<?xml version="1.0" encoding="utf-8" ?>
<svg xmlns="http://www.w3.org/2000/svg" xmlns:cc="http://creativecommons.org/ns" xmlns:dc="http://purl.org/dc/elements/1.1/" xmlns:ev="http://www.w3.org/2001/xml-events" xmlns:inkscape="http://www.inkscape.org/namespaces/inkscape" xmlns:rdf="http://www.w3.org/1999/02/22-rdf-syntax-ns" xmlns:sodipodi="http://sodipodi.sourceforge.net/DTD/sodipodi-0.dtd" xmlns:xlink="http://www.w3.org/1999/xlink" baseProfile="tiny" height="29.7cm" version="1.2" viewBox="0 0 793.7007874015749 1122.5196850393702" width="21.0cm">
  <metadata>
    <rdf:RDF>
      <cc:Work>
        <dc:format>image/svg+xml</dc:format>
        <dc:source>Vsketch with params {'__seed__': 1171450572, 'debug_show_shapes': False, 'debug_draw': False, 'occult': False, 'scale': 1.0, 'area_type': 'RECT', 'width': 12.0, 'height': 14.0, 'num_circ_min': 2, 'num_circ_max': 10, 'circ_rad_min': 0.5, 'circ_rad_max': 2.0, 'num_circ_shaded_min': 0, 'num_circ_shaded_max': 0, 'circ_shaded_rad_min': 0.05, 'circ_shaded_rad_max': 0.5, 'circ_shaded_fill_dist_min': 0.05, 'circ_shaded_fill_dist_max': 0.2, 'num_circ_fill_min': 0, 'num_circ_fill_max': 0, 'circ_fill_rad_min': 0.05, 'circ_fill_rad_max': 0.5, 'num_circ_dash_min': 0, 'num_circ_dash_max': 0, 'circ_dash_rad_min': 0.05, 'circ_dash_rad_max': 0.5, 'num_circ_dot_min': 0, 'num_circ_dot_max': 0, 'circ_dot_rad_min': 0.05, 'circ_dot_rad_max': 0.5, 'circ_dot_dens_min': 400.0, 'circ_dot_dens_max': 800.0, 'circ_dot_dot_rad_min': 0.02, 'circ_dot_dot_rad_max': 0.06, 'num_circ_half_fill_min': 0, 'num_circ_half_fill_max': 0, 'circ_half_fill_rad_min': 0.05, 'circ_half_fill_rad_max': 2.0, 'circ_half_fill_gain_min': 0.4, 'circ_half_fill_gain_max': 0.6, 'num_circ_outer_fill_min': 0, 'num_circ_outer_fill_max': 10, 'circ_outer_fill_rad_min': 0.05, 'circ_outer_fill_rad_max': 2.0, 'circ_outer_fill_gain_min': 0.0, 'circ_outer_fill_gain_max': 0.2, 'num_line_min': 5, 'num_line_max': 8, 'line_length_min': 5.0, 'line_length_max': 13.0, 'num_thick_line_min': 0, 'num_thick_line_max': 0, 'thick_line_length_min': 3.0, 'thick_line_length_max': 7.0, 'num_tri_line_min': 4, 'num_tri_line_max': 8, 'tri_line_length_min': 4.0, 'tri_line_length_max': 10.0, 'tri_line_width_gain_min': 0.02, 'tri_line_width_gain_max': 0.04, 'num_rect_min': 5, 'num_rect_max': 10, 'rect_width_min': 1.0, 'rect_width_max': 4.0, 'rect_height_gain_min': 0.3, 'rect_height_gain_max': 3.0, 'num_rect_shaded_min': 0, 'num_rect_shaded_max': 0, 'rect_shaded_width_min': 0.1, 'rect_shaded_width_max': 1.0, 'rect_shaded_height_gain_min': 0.5, 'rect_shaded_height_gain_max': 2.0, 'rect_shaded_fill_dist_min': 0.05, 'rect_shaded_fill_dist_max': 0.2, 'num_rect_fill_min': 0, 'num_rect_fill_max': 0, 'rect_fill_width_min': 0.1, 'rect_fill_width_max': 1.0, 'rect_fill_height_gain_min': 0.5, 'rect_fill_height_gain_max': 2.0, 'num_rect_dash_min': 0, 'num_rect_dash_max': 0, 'rect_dash_width_min': 0.1, 'rect_dash_width_max': 1.0, 'rect_dash_height_gain_min': 0.5, 'rect_dash_height_gain_max': 2.0, 'num_rect_dot_min': 0, 'num_rect_dot_max': 0, 'rect_dot_width_min': 0.1, 'rect_dot_width_max': 1.0, 'rect_dot_height_gain_min': 0.5, 'rect_dot_height_gain_max': 2.0, 'rect_dot_dens_min': 400.0, 'rect_dot_dens_max': 800.0, 'rect_dot_rad_min': 0.02, 'rect_dot_rad_max': 0.06, 'num_tri_min': 0, 'num_tri_max': 5, 'tri_width_min': 0.5, 'tri_width_max': 4.0, 'tri_height_gain_min': 0.5, 'tri_height_gain_max': 2.0, 'num_tri_shaded_min': 0, 'num_tri_shaded_max': 0, 'tri_shaded_width_min': 0.1, 'tri_shaded_width_max': 1.0, 'tri_shaded_height_gain_min': 0.5, 'tri_shaded_height_gain_max': 2.0, 'tri_shaded_fill_dist_min': 0.05, 'tri_shaded_fill_dist_max': 0.2, 'num_tri_fill_min': 0, 'num_tri_fill_max': 0, 'tri_fill_width_min': 0.4, 'tri_fill_width_max': 1.0, 'tri_fill_height_gain_min': 0.5, 'tri_fill_height_gain_max': 3.0, 'num_tri_dash_min': 0, 'num_tri_dash_max': 0, 'tri_dash_width_min': 0.1, 'tri_dash_width_max': 1.0, 'tri_dash_height_gain_min': 0.5, 'tri_dash_height_gain_max': 2.0, 'num_tri_dot_min': 0, 'num_tri_dot_max': 0, 'tri_dot_width_min': 0.1, 'tri_dot_width_max': 1.0, 'tri_dot_height_gain_min': 0.5, 'tri_dot_height_gain_max': 2.0, 'tri_dot_dens_min': 400.0, 'tri_dot_dens_max': 800.0, 'tri_dot_rad_min': 0.02, 'tri_dot_rad_max': 0.06}</dc:source>
        <dc:date>2023-11-19T21:12:33.861317</dc:date>
      </cc:Work>
    </rdf:RDF>
  </metadata>
  <defs/>
  <g fill="none" id="layer1" inkscape:groupmode="layer" inkscape:label="1" stroke="#0000ff" style="display:inline">
    <polygon points="590.9281,694.9701 595.183,693.4102 599.2644,691.4407 603.1332,689.0808 606.752,686.3529 610.0861,683.2835 613.1032,679.9021 615.7743,676.2412 618.0738,672.3362 619.9794,668.2245 621.4729,663.9459 622.5397,659.5415 623.1698,655.0537 623.3569,650.5258 623.0993,646.0014 622.3994,641.524 621.2641,637.1367 619.7042,632.8819 617.7348,628.8004 615.3748,624.9316 612.647,621.3128 609.5776,617.9788 606.1962,614.9617 602.5353,612.2905 598.6302,609.991 594.5186,608.0854 590.24,606.592 585.8356,605.5251 581.3478,604.8951 576.8199,604.708 572.2955,604.9656 567.818,605.6654 563.4308,606.8007 559.1759,608.3606 555.0945,610.33 551.2257,612.69 547.6069,615.4179 544.2728,618.4873 541.2557,621.8687 538.5846,625.5295 536.2851,629.4346 534.3795,633.5462 532.886,637.8249 531.8192,642.2293 531.1891,646.717 531.002,651.2449 531.2596,655.7694 531.9595,660.2468 533.0948,664.6341 534.6547,668.8889 536.6241,672.9704 538.9841,676.8391 541.7119,680.458 544.7813,683.792 548.1627,686.8091 551.8236,689.4803 555.7287,691.7797 559.8403,693.6854 564.1189,695.1788 568.5233,696.2457 573.0111,696.8757 577.539,697.0628 582.0635,696.8052 586.5409,696.1054"/>
    <line x1="641.0048" x2="328.0017" y1="724.6254" y2="580.0746"/>
    <polygon points="322.4387,573.9439 324.5124,567.4698 325.9253,560.8202 326.64,554.4395 326.7332,547.642 326.1938,541.2441 325.0497,534.9262 323.1909,528.3872 320.6846,522.068 317.5562,516.0326 313.8374,510.3419 309.8169,505.3359 305.0627,500.4767 300.1457,496.3478 294.8591,492.7041 288.9117,489.4114 282.6636,486.7327 276.5435,484.7912 269.8939,483.3783 263.5132,482.6636 256.7158,482.5704 250.3178,483.1098 243.9999,484.2538 237.4609,486.1127 231.4859,488.4631 225.4331,491.5577 219.7217,495.2447 214.4096,499.4867 209.8076,503.9641 205.4215,509.1579 201.5793,514.766 198.3199,520.7317 195.8064,526.6399 193.7689,533.1255 192.3932,539.7829 191.7142,546.1675 191.6589,552.9653 192.2341,559.3602 193.4135,565.6716 195.3088,572.2001 197.6927,578.1619 200.821,584.1973 204.3184,589.5819 208.5604,594.894 213.3146,599.7532 218.2316,603.8821 223.5182,607.5258 229.4656,610.8185 235.3597,613.365 241.8337,615.4387 248.4833,616.8516 254.8641,617.5663 261.6615,617.6595 268.0595,617.1201 274.3774,615.976 280.9164,614.1172 286.8914,611.7667 292.9442,608.6721 298.6556,604.9852 303.9677,600.7432 308.8269,595.989 312.9558,591.072 316.798,585.4639 319.8922,579.838"/>
    <polygon points="319.5986,579.5371 322.261,573.286 324.1838,567.1635 325.5732,560.5126 326.2623,554.1324 326.3397,547.7156 325.8046,541.3207 324.5759,534.6382 322.8013,528.4712 320.2903,522.1577 317.3447,516.4564 313.8686,511.0621 309.6452,505.7398 304.9059,500.8711 299.9998,496.7345 294.4004,492.8859 288.7804,489.7879 282.5368,487.1079 276.4198,485.168 270.1456,483.8204 263.3946,483.0528 256.978,482.9574 250.2072,483.524 243.8957,484.6844 237.3662,486.5633 231.4032,488.9349 225.3668,492.0537 219.6763,495.7661 214.6719,499.7832 209.8165,504.5362 205.6937,509.4539 202.0588,514.7425 198.945,520.3537 196.3807,526.2364 194.2903,532.7013 192.9251,538.9717 192.1386,545.7205 192.0376,552.5142 192.5727,558.9092 193.8014,565.5916 195.576,571.7587 198.0869,578.0721 201.0326,583.7734 204.729,589.4744 208.7321,594.4901 213.4714,599.3588 218.3775,603.4954 223.9769,607.3439 229.5969,610.4419 235.8404,613.1219 241.9575,615.0619 248.6044,616.47 254.9827,617.1771 261.3992,617.2725 268.17,616.7059 274.4815,615.5454 281.011,613.6665 286.974,611.2949 293.0104,608.1762 298.701,604.4638 303.7054,600.4466 308.3038,595.9704 312.6836,590.7759 316.3184,585.4873"/>
    <polygon points="311.3319,575.7139 313.7091,570.1586 315.4022,564.7525 316.5608,559.2071 317.1736,553.5752 317.2349,547.9104 316.7441,542.2666 315.7059,536.6974 314.1301,531.2559 311.8737,525.6505 309.2401,520.6348 306.1304,515.8995 302.5742,511.4896 298.6054,507.4471 294.2616,503.8104 289.5843,500.6141 284.6178,497.8887 279.0549,495.5296 273.6433,493.854 268.0941,492.7135 262.4603,492.119 256.7953,492.0762 251.1532,492.5853 245.5874,493.6416 240.151,495.2351 234.8957,497.3506 229.8714,499.9679 225.126,503.0622 220.7046,506.604 216.6492,510.5596 212.9984,514.8915 209.7869,519.5585 207.0454,524.516 204.7997,529.717 203.0714,535.1121 201.8769,540.6498 201.2274,546.2776 201.1293,551.9419 201.5834,557.5887 202.5853,563.1645 204.1257,568.6162 206.1898,573.8919 208.7579,578.9415 211.8058,583.7169 215.5528,588.4573 219.4952,592.5255 223.8152,596.1904 228.793,599.6157 233.7594,602.3412 238.9677,604.5699 244.3684,606.2806 249.91,607.4572 255.5398,608.0883 261.5819,608.1537 267.2241,607.6446 272.7899,606.5882 278.2263,604.9948 283.4816,602.8793 288.5059,600.262 293.2513,597.1677 297.6727,593.6259 301.7281,589.6702 305.3789,585.3383 308.5903,580.6714"/>
    <line x1="310.9503" x2="591.8498" y1="563.451" y2="398.0766"/>
    <line x1="572.1987" x2="425.2865" y1="323.9676" y2="476.3677"/>
    <line x1="393.9746" x2="459.0157" y1="469.2468" y2="257.7592"/>
    <line x1="458.6513" x2="400.1143" y1="257.6471" y2="447.986"/>
    <line x1="400.8432" x2="459.3801" y1="448.2101" y2="257.8713"/>
    <line x1="459.7445" x2="407.7117" y1="257.9834" y2="427.1734"/>
    <line x1="406.254" x2="458.2868" y1="426.7251" y2="257.5351"/>
    <line x1="457.9224" x2="412.3937" y1="257.423" y2="405.4643"/>
    <line x1="414.5802" x2="460.109" y1="406.1367" y2="258.0955"/>
    <line x1="460.4734" x2="421.4488" y1="258.2075" y2="385.1001"/>
    <line x1="418.5333" x2="457.558" y1="384.2035" y2="257.3109"/>
    <line x1="457.1935" x2="424.673" y1="257.1988" y2="362.9426"/>
    <line x1="428.3173" x2="460.8378" y1="364.0634" y2="258.3196"/>
    <line x1="461.2023" x2="435.1858" y1="258.4317" y2="343.0267"/>
    <line x1="430.8127" x2="456.8291" y1="341.6818" y2="257.0868"/>
    <line x1="456.4647" x2="436.9524" y1="256.9747" y2="320.421"/>
    <line x1="442.0544" x2="461.5667" y1="321.99" y2="258.5438"/>
    <line x1="461.9311" x2="448.9229" y1="258.6558" y2="300.9534"/>
    <line x1="454.5541" x2="247.9062" y1="302.9597" y2="681.4807"/>
    <polygon points="255.3905,612.839 261.4329,612.9138 267.4546,612.4078 273.7676,611.2393 279.5714,609.5563 285.5302,607.1663 290.8884,604.3723 295.9535,601.0765 300.9615,597.0592 305.5335,592.5518 309.3954,587.904 312.7931,582.9067 315.695,577.6062 318.0743,572.0514 319.9091,566.2938 321.1824,560.3866 321.9069,554.0073 321.9908,547.965 321.4436,541.5681 320.3348,535.6278 318.5375,529.4643 316.2795,523.8591 313.4935,518.4967 310.2054,513.4267 306.1956,508.4127 301.6951,503.8339 297.0531,499.965 292.0609,496.5598 286.7648,493.65 280.8594,491.1309 275.0935,489.3221 269.1806,488.0755 263.1753,487.4026 256.7555,487.3231 250.7354,487.8471 244.4259,489.0347 238.6272,490.7351 233.0187,492.9847 227.6521,495.7626 222.2708,499.2641 217.5571,503.0453 213.2284,507.2618 209.3247,511.8746 205.683,517.1622 202.7652,522.4539 200.3692,528.0015 198.4198,534.1187 197.1643,540.0297 196.4823,546.034 196.3803,552.076 196.8591,558.0999 197.9143,564.05 199.656,570.2295 202.0191,576.199 204.7889,581.5697 208.0618,586.6496 212.0565,591.6757 216.2665,596.0107 221.1736,600.1508 226.4775,603.7686 231.7824,606.6625 237.6953,609.1638 243.4666,610.9553 249.3832,612.1841"/>
    <polygon points="243.2171,611.2996 249.128,612.5443 255.5076,613.2426 261.5479,613.3058 267.9407,612.7412 273.8764,611.6204 279.678,609.9383 285.6361,607.5534 290.996,604.7678 296.0657,601.4835 301.0825,597.4811 305.6678,592.9908 309.5468,588.3603 313.164,583.059 316.0611,577.7586 318.4393,572.2059 320.3733,566.0865 321.677,559.8025 322.3163,553.7959 322.3643,547.3783 321.8149,541.3628 320.6052,535.0601 318.8886,529.2687 316.6271,523.6674 313.6506,517.9817 310.336,512.9317 306.5548,508.2211 302.0645,503.6358 297.434,499.7568 292.4545,496.3373 286.8323,493.2425 281.2796,490.8643 275.1602,488.9303 269.2493,487.6855 262.8696,486.9873 256.452,486.9393 250.4365,487.4887 244.5009,488.6095 238.3424,490.415 232.3985,492.8355 227.0554,495.653 222.0054,498.9675 217.2948,502.7488 212.9664,506.9623 209.0598,511.5695 205.6107,516.5285 202.4823,522.1321 199.938,528.024 198.1005,533.7783 196.8204,539.6816 196.0841,546.057 195.9978,552.4741 196.5112,558.4928 197.6832,564.8027 199.3653,570.6043 201.5932,576.2189 204.5358,581.9223 207.8201,586.992 211.8225,592.0088 216.3128,596.5941 220.9433,600.4731 225.9228,603.8925 231.545,606.9874 237.0977,609.3656"/>
    <polygon points="267.2255,608.4437 272.7949,607.4012 278.2383,605.8281 283.5053,603.739 288.5471,601.1534 293.317,598.0951 298.0556,594.3439 302.3846,590.1268 306.0306,585.7895 309.2427,581.1219 311.9914,576.167 314.3838,570.6172 316.0989,565.2168 317.287,559.6766 317.9611,553.6708 318.0307,548.0051 317.5555,542.3589 316.5397,536.7845 314.8711,530.9759 312.7736,525.7122 310.1799,520.6746 306.8935,515.6027 303.3552,511.1771 299.408,507.1121 295.0883,503.4453 290.1152,500.0111 285.156,497.2704 279.9563,495.0191 274.1992,493.1805 268.6571,492.0013 263.0273,491.3603 257.362,491.2634 251.7136,491.7114 245.7662,492.7853 240.3178,494.341 235.0442,496.4131 229.6665,499.171 224.5999,502.4655 220.18,506.0109 215.8645,510.2419 212.2325,514.5908 209.0353,519.2688 206.3026,524.2324 204.0596,529.4357 202.2302,535.1957 201.0599,540.7397 200.4279,546.3705 200.3536,552.4136 200.847,558.0582 201.9686,563.9968 203.5679,569.4326 205.6822,574.6894 208.4831,580.0448 211.5948,584.78 215.1472,589.1943 219.3851,593.503 223.7399,597.128 228.423,600.3177 233.391,603.0425 238.9523,605.4081 244.3609,607.0972 249.9067,608.2586 255.5385,608.8816 261.5817,608.9462"/>
    <polygon points="267.9436,614.3394 274.254,613.1583 280.4166,611.3588 286.3709,608.9585 292.0586,605.9809 297.1181,602.6772 302.1317,598.6673 306.724,594.1811 310.85,589.2626 314.4692,583.96 317.5462,578.3255 320.0506,572.4142 321.958,566.2841 323.2496,559.9955 323.8914,553.987 323.957,547.5674 323.3873,541.1728 322.1879,534.8659 320.3704,528.7086 317.9527,522.7613 314.9586,517.0823 311.4173,511.7274 307.6156,507.0306 303.1161,502.4513 298.1856,498.3397 292.8725,494.7359 287.5691,491.8399 281.6652,489.3182 275.5407,487.393 269.6289,486.1428 263.2493,485.4238 256.8299,485.3394 250.4337,485.8904 244.1233,487.0715 237.9607,488.8711 232.3498,491.114 226.6449,494.0584 221.2592,497.5526 216.2456,501.5626 211.9109,505.7725 207.7563,510.6668 204.1062,515.9482 200.9965,521.5647 198.5907,527.1077 196.612,533.2151 195.2472,539.4883 194.5096,545.8658 194.4065,552.2849 194.9389,558.6827 196.1016,564.9965 197.8832,571.1643 200.1097,576.7817 203.0375,582.4952 206.516,587.891 210.5113,592.9163 214.9842,597.5217 219.8906,601.662 225.1826,605.2967 230.8081,608.39 236.7121,610.9117 242.4713,612.7405 248.7484,614.0871 255.128,614.8061 261.5474,614.8905"/>
    <polygon points="280.7005,611.45 280.0817,615.9388 279.907,620.4666 280.1781,624.9898 280.8924,629.4644 282.043,633.8471 283.6187,638.0956 285.6043,642.1686 287.9805,646.0268 290.7244,649.6328 293.8094,652.9518 297.2056,655.9514 300.8802,658.6028 304.7975,660.8803 308.9197,662.7618 313.2068,664.229 317.6174,665.2679 322.1087,665.8683 326.6372,666.0244 331.1592,665.7347 335.6309,665.0021 340.0088,663.8335 344.2508,662.2404 348.3157,660.2382 352.1641,657.8461 355.7588,655.0874 359.0651,651.9889 362.0508,648.5804 364.4814,645.2118 366.7749,641.3039 368.6733,637.1894 370.1581,632.9084 371.215,628.5021 371.8338,624.0133 372.0085,619.4854 371.7374,614.9623 371.0231,610.4877 369.8725,606.1049 368.2968,601.8565 366.3112,597.7834 363.935,593.9252 361.1911,590.3192 358.1061,587.0003 354.7099,584.0006 351.0354,581.3492 347.118,579.0718 342.9958,577.1903 338.7087,575.723 334.2982,574.6842 329.8069,574.0838 325.2783,573.9277 320.7563,574.2173 316.6543,574.8722 312.2669,576.0047 308.012,577.563 303.9309,579.5319 300.0629,581.8923 296.4457,584.6214 293.1142,587.6927 290.1006,591.0766 287.4342,594.7402 285.1406,598.6482 283.2423,602.7626 281.7574,607.0437"/>
    <polygon points="290.0442,602.5725 294.7889,599.4758 299.5087,595.7018 303.5734,591.7546 307.4842,587.1474 310.9188,582.1751 313.8434,576.8867 316.0962,571.688 317.9552,565.9378 319.2347,560.0316 319.9222,554.0276 320.0228,548.3627 319.5491,542.3381 318.4803,536.3901 316.8268,530.5775 314.605,524.9575 311.8368,519.5856 308.5495,514.5147 304.7755,509.7948 300.8283,505.7302 296.2211,501.8193 291.2488,498.3847 285.9604,495.4602 280.7617,493.2074 275.0115,491.3484 269.1053,490.0689 263.1013,489.3814 257.0587,489.2928 251.0372,489.8039 245.4638,490.8233 239.6512,492.4768 234.0312,494.6985 228.6593,497.4668 223.5884,500.7541 218.8685,504.5281 214.5462,508.7516 210.8931,513.0824 207.4584,518.0547 204.5339,523.3432 202.1482,528.8956 200.4221,534.292 199.1426,540.1982 198.4551,546.2022 198.3665,552.2448 198.8281,557.8918 199.897,563.8397 201.5505,569.6524 203.7723,575.2723 206.5405,580.6443 209.8278,585.7152 213.6018,590.435 217.549,594.4997 222.1561,598.4105 227.1284,601.8451 232.4169,604.7697 237.9693,607.1553 243.3657,608.8815 249.272,610.161 255.2759,610.8485 261.3185,610.9371 267.3401,610.426 273.2813,609.3202 279.0835,607.6307 284.6896,605.374"/>
    <polygon points="299.2465,595.4052 303.565,591.1829 307.4408,586.5508 310.8351,581.5551 313.5498,576.5858 315.9194,571.0304 317.723,565.2663 318.9426,559.351 319.5446,553.7206 319.6172,548.0586 319.1106,542.0402 318.006,536.1023 316.3146,530.3043 314.2108,525.0471 311.4354,519.6829 308.1387,514.6223 304.3536,509.9159 300.1178,505.6105 295.4736,501.7493 290.4674,498.3706 285.4896,495.6714 279.9268,493.3191 274.5227,491.6281 268.6113,490.3901 262.6058,489.748 256.5662,489.7083 250.9268,490.2185 245.3598,491.2541 239.5565,492.9274 234.2928,495.0147 228.9199,497.7733 223.8491,501.0542 219.1308,504.8247 215.0696,508.7706 211.165,513.3784 207.7396,518.3528 204.8275,523.6441 202.4579,529.1995 200.75,534.5983 199.5547,540.1332 198.8564,546.1324 198.7601,552.1713 199.2667,558.1897 200.2849,563.7599 201.94,569.5684 204.1664,575.1827 206.9418,580.547 210.0178,585.3011 213.7735,590.0311 217.7068,594.1046 222.3023,598.0236 227.266,601.4645 232.5481,604.3931 238.0961,606.7801 243.4896,608.5048 249.3932,609.7797 255.3945,610.4593 261.4337,610.5368 267.4505,610.0113 273.3848,608.8883 278.8208,607.3025 284.4281,605.0586 289.4574,602.4565 294.5282,599.1756"/>
    <polygon points="329.8653,599.3926 330.9478,606.1011 332.7801,613.0356 335.1527,619.4033 338.3047,625.846 341.8759,631.6272 346.2262,637.3298 350.8583,642.3017 355.9442,646.8083 361.7535,651.0151 367.622,654.441 374.1414,657.4314 380.929,659.7492 387.5442,661.3032 394.654,662.2499 401.4453,662.4812 408.603,662.0203 415.3086,660.92 421.8784,659.184 428.5995,656.6797 434.7034,653.6934 440.8056,649.924 446.2082,645.8025 451.4561,640.9133 456.1843,635.5199 460.1405,629.995 463.7236,623.7816 466.5239,617.5901 468.8236,610.7963 470.36,604.177 471.257,597.4412 471.5011,590.2728 471.0644,583.4916 469.903,576.4138 468.1496,569.8486 465.6275,563.1342 462.625,557.0382 458.8394,550.9461 454.4588,545.2667 449.8003,540.3195 444.6906,535.84 439.1762,531.8691 432.9724,528.2695 426.7884,525.4528 420.3635,523.2398 413.3855,521.581 406.6521,520.6662 399.4844,520.403 392.3267,520.8639 385.6211,521.9642 378.6915,523.815 372.3302,526.2044 366.2263,529.1908 360.1241,532.9602 354.4332,537.3256 349.4736,541.9709 344.7454,547.3643 340.7892,552.8892 337.3789,558.7668 334.4059,565.2941 332.1061,572.0879 330.5697,578.7072 329.6728,585.443 329.4234,592.2337"/>
    <polygon points="336.5568,619.1047 339.5587,625.2046 343.1412,630.9827 347.27,636.3839 351.9058,641.3568 357.0045,645.854 362.5173,649.8326 368.3919,653.2546 374.5721,656.0875 380.9991,658.3042 387.6117,659.8837 394.3468,660.8109 401.5179,661.0722 408.3026,660.6377 415.0126,659.5437 421.9437,657.685 428.3007,655.2749 434.3924,652.2564 440.1608,648.6583 445.5508,644.5148 450.5112,639.8655 454.9945,634.7547 458.9581,629.2311 462.3641,623.3473 465.1803,617.1594 467.3796,610.7263 468.9411,604.1095 469.85,597.372 470.0976,590.5779 469.6389,583.4166 468.5267,576.7097 466.7658,570.1431 464.2219,563.4332 461.1869,557.3497 457.5731,551.5911 453.4151,546.2123 448.7523,541.2646 443.6294,536.7952 438.095,532.8466 432.202,529.4565 426.0065,526.6572 419.5675,524.4753 412.9465,522.9317 406.2065,522.0411 399.4118,521.812 392.2518,522.29 385.5478,523.4205 378.9861,525.1992 372.629,527.6093 366.5373,530.6278 360.7689,534.2259 355.3789,538.3694 350.4186,543.0187 345.9352,548.1295 341.9717,553.6531 338.5656,559.5369 335.7495,565.7248 333.5501,572.1578 331.9209,579.1464 331.0486,585.8888 330.8379,592.6841 331.2908,599.4676 332.403,606.1745 334.1639,612.7411"/>
    <polygon points="346.2503,636.6288 351.1174,641.8988 356.1994,646.4114 362.0081,650.6209 368.2141,654.219 374.4019,657.03 380.8314,659.2328 387.443,660.807 394.1753,661.7379 401.3436,662.0132 408.5029,661.5595 415.2099,660.4612 421.7802,658.7229 428.4999,656.2116 434.93,653.0311 440.6942,649.4305 446.0853,645.2921 451.0534,640.6544 455.5524,635.5603 459.7464,629.7403 463.1553,623.8607 466.1223,617.3294 468.411,610.5307 469.932,603.9067 470.8088,597.1672 471.0334,590.3745 470.5605,583.2165 469.4443,576.5124 467.6884,569.9468 465.3091,563.5804 462.3286,557.4725 458.5607,551.3681 454.1926,545.6777 449.5416,540.722 444.4355,536.2367 438.9216,532.2633 433.0511,528.8387 426.8784,525.9946 420.0983,523.6514 413.4868,522.0772 406.7544,521.1463 399.5861,520.871 392.4268,521.3247 385.7198,522.423 379.1495,524.1613 372.7768,526.5235 366.3299,529.6695 360.5465,533.2392 354.8444,537.5921 349.8763,542.2298 345.142,547.6194 341.1834,553.1438 337.7745,559.0235 334.9469,565.2037 332.7269,571.6273 331.0654,578.6059 330.1525,585.3407 329.8917,592.132 330.3262,599.2925 331.4065,606.0024 333.1272,612.5774 335.6206,619.3037 338.6011,625.4117 342.1554,631.2046"/>
    <line x1="326.4925" x2="524.2395" y1="665.3863" y2="776.148"/>
    <line x1="524.0561" x2="326.3091" y1="776.4753" y2="665.7136"/>
    <line x1="354.3753" x2="523.8727" y1="681.8641" y2="776.8027"/>
    <line x1="523.6894" x2="382.4416" y1="777.13" y2="698.0145"/>
    <line x1="383.3583" x2="524.6062" y1="696.3778" y2="775.4933"/>
    <line x1="524.7895" x2="411.7912" y1="775.1659" y2="711.8735"/>
    <line x1="410.5078" x2="523.506" y1="714.165" y2="777.4574"/>
    <line x1="523.3227" x2="438.574" y1="777.7847" y2="730.3154"/>
    <line x1="440.2242" x2="524.9729" y1="727.3693" y2="774.8386"/>
    <line x1="525.1562" x2="468.6571" y1="774.5112" y2="742.865"/>
    <line x1="466.6402" x2="523.1393" y1="746.4659" y2="778.112"/>
    <line x1="522.956" x2="494.7064" y1="778.4394" y2="762.6163"/>
    <line x1="497.09" x2="525.3396" y1="758.3608" y2="774.1839"/>
    <line x1="524.4228" x2="354.9254" y1="775.8206" y2="680.8821"/>
    <line x1="385.4782" x2="264.2035" y1="635.2683" y2="348.2316"/>
    <polygon points="287.8959,339.4693 290.3142,342.3579 292.9612,344.4785 296.3076,346.2086 299.5683,347.1422 303.3233,347.4453 306.6915,347.0468 310.2722,345.8758 313.225,344.2071 315.8141,342.0162 318.1543,339.064 319.6961,336.043 320.6467,332.7873 320.9694,329.0339 320.5884,325.6636 319.5848,322.4238 317.7829,319.1155 315.3345,316.2523 312.6656,314.1594 309.6527,312.6018 306.402,311.6342 302.6503,311.292 299.2781,311.6553 296.0331,312.6421 292.7154,314.4267 290.1035,316.5903 287.7327,319.518 286.0201,322.8735 285.1036,326.139 284.8131,329.5182 285.1588,332.8922 286.1286,336.1423"/>
    <polygon points="290.7149,342.0776 293.3782,344.1773 296.3949,345.7273 299.6528,346.6698 303.0311,346.97 306.4042,346.6167 309.9938,345.4744 312.9507,343.8133 315.7939,341.3421 317.8505,338.6453 319.3518,335.6041 320.2418,332.3314 320.4876,328.9488 320.0801,325.5818 319.0343,322.3555 317.3891,319.3897 314.9332,316.5334 312.2474,314.4623 309.2143,312.9448 305.9465,312.0372 302.5652,311.7732 299.1961,312.1627 295.9642,313.1912 292.6799,315.0361 290.1202,317.2611 288.0347,319.9356 286.501,322.9606 285.5759,326.2235 285.3029,329.9806 285.7465,333.343 286.8268,336.5579 288.5037,339.5059"/>
    <polygon points="295.8971,313.7444 292.9542,315.4299 290.4012,317.6624 288.3385,320.3544 286.8468,323.4001 285.9848,326.6801 285.7862,330.0657 286.2589,333.424 287.2282,336.2796 288.8974,339.2317 291.1159,341.7969 293.4789,343.6704 296.4823,345.2454 299.7374,346.1975 303.1162,346.4893 306.4862,346.1093 309.7152,345.0725 312.6765,343.4196 315.2539,341.2153 317.3462,338.5463 318.8714,335.5172 319.702,332.6182 320.0124,329.241 319.651,325.869 318.632,322.6343 316.9954,319.6639 314.8054,317.0744 312.1479,314.9674 309.1272,313.4256 305.8619,312.5095 302.4801,312.255 299.1145,312.6721"/>
    <polygon points="299.4014,313.1001 296.5225,313.9973 293.5381,315.608 291.208,317.5221 289.0486,320.137 287.4642,323.1353 286.5923,326.022 286.2519,329.3961 286.6027,332.7691 287.63,336.001 289.0772,338.6465 291.2447,341.2547 293.8959,343.3693 296.57,344.763 299.8219,345.7252 303.2013,346.0081 306.5678,345.6 309.4364,344.6702 312.4023,343.0258 314.9732,340.8143 317.0424,338.1275 318.3905,335.4301 319.2971,332.1623 319.5225,328.7786 319.1427,325.7871 318.0788,322.5671 316.6016,319.9381 314.4047,317.3547 311.7297,315.2703 308.6877,313.7715 305.7774,312.9818 302.395,312.7373"/>
    <polygon points="318.1766,318.8413 315.7355,315.9717 312.7651,313.6542 309.7402,312.12 306.1155,311.0925 302.3581,310.8182 298.6226,311.3084 295.4069,312.387 292.1315,314.2486 289.2995,316.7332 287.0276,319.7385 285.4094,323.1407 284.5676,326.4265 284.3506,330.1876 284.809,333.5483 285.8713,336.7695 287.7162,340.0543 290.1864,342.899 292.8605,344.9854 296.2205,346.6895 299.4838,347.6145 303.2383,347.927 306.9785,347.4749 310.205,346.429 313.4992,344.6008 316.3563,342.1451 318.6586,339.163 320.1775,336.1303 321.1865,332.5005 321.4417,328.7417 321.0175,325.3765 319.8376,321.7986"/>
    <polygon points="318.5704,318.567 316.1361,315.6914 313.1833,313.3514 309.8274,311.6386 306.2,310.6202 302.4431,310.336 298.7038,310.7972 295.1286,311.9856 291.8573,313.8548 289.0181,316.3315 286.7223,319.3189 285.0596,322.6998 284.0952,326.3419 283.8669,330.1026 284.3836,333.8347 285.4695,337.0481 287.3224,340.3286 289.7851,343.18 292.761,345.4906 296.1336,347.17 299.7709,348.1524 303.5304,348.3994 307.265,347.9012 310.4837,346.8312 313.7734,344.9946 316.6369,342.5461 318.9623,339.5817 320.5192,336.5681 321.5914,332.9563 321.9314,329.204 321.5259,325.4583 320.3907,321.8657"/>
    <polygon points="327.4999,346.1009 322.8941,349.3756 319.019,353.4891 316.0248,358.282 314.0275,363.5686 313.1046,369.144 313.2917,374.7922 314.5817,380.2943 316.9245,385.4371 320.2294,390.0213 324.3682,393.8693 329.1807,396.8319 334.1159,398.6964 339.6851,399.656 345.3344,399.506 350.8449,398.2522 356.003,395.9433 360.6088,392.6686 364.4839,388.5551 367.4781,383.7622 369.4754,378.4756 370.3983,372.9002 370.2112,367.252 368.9213,361.7499 366.7658,356.9347 363.5214,352.3074 359.4335,348.4054 354.6604,345.3797 349.387,343.3478 343.8178,342.3882 338.1685,342.5382 332.658,343.792"/>
    <polygon points="328.1387,347.2719 323.838,350.3221 319.9713,354.4388 317.1961,358.9219 315.3318,363.8538 314.4476,369.0517 314.5763,374.3227 315.832,379.8292 318.0012,384.6349 321.0515,388.9356 324.8696,392.5717 329.3141,395.4084 334.5832,397.4418 339.7811,398.3259 345.0521,398.1972 350.2006,397.0604 355.3643,394.7723 359.6649,391.7221 363.5316,387.6054 366.3068,383.1223 368.1711,378.1903 369.0553,372.9925 368.9266,367.7215 367.7898,362.5729 365.687,357.7378 362.4514,353.1086 358.6333,349.4725 354.1889,346.6358 349.2831,344.7037 343.7218,343.7183 338.4508,343.847 333.3023,344.9838"/>
    <polygon points="315.8982,374.1455 317.06,379.2973 319.0498,383.7808 322.0908,388.0986 325.9404,391.7141 330.1012,394.312 335.0396,396.1836 339.8771,396.9959 344.781,396.8866 349.9371,395.7434 354.4277,393.7699 358.7566,390.7446 362.386,386.9081 364.999,382.7568 366.8884,377.8252 367.7182,372.9907 367.6268,368.0864 366.5023,362.9262 364.5451,358.4285 361.5355,354.0887 357.7122,350.4453 353.5704,347.8173 348.6457,345.91 343.8142,345.0626 338.5343,345.1803 333.7454,346.242 328.9105,348.3669 324.6037,351.4235 321.0022,355.2862 318.4194,359.4564 316.5658,364.4016 315.7711,369.242"/>
    <polygon points="315.3279,379.7234 317.4466,384.5568 320.6845,389.1907 324.7924,393.0744 329.2621,395.8803 334.1812,397.7916 339.7491,398.7693 345.0251,398.6482 350.5423,397.416 355.3686,395.2809 359.9915,392.0273 363.8612,387.9063 366.6519,383.4271 368.6455,378.1372 369.5053,372.9303 369.318,367.2803 368.1154,362.1418 365.7758,356.9955 362.6947,352.7109 358.8598,349.0853 354.4093,346.2492 349.1399,344.2018 343.942,343.2891 338.6653,343.3745 333.1399,344.5692 328.2993,346.6714 323.6544,349.8936 319.7568,353.9883 316.9358,358.4484 315.0078,363.361 314.0112,368.9256 314.1601,374.5768"/>
    <polygon points="313.9607,379.8292 316.1845,385.03 319.6146,389.9918 323.9924,394.1415 328.7911,397.1357 334.0777,399.1469 339.6531,400.0994 345.3076,399.9573 350.8282,398.726 356.0071,396.4518 360.6493,393.2203 364.5802,389.1532 367.6518,384.4036 369.8513,378.7869 370.8218,373.2146 370.698,367.5597 369.4846,362.0352 367.2272,356.8489 364.0108,352.1962 359.66,348.0182 354.8807,344.993 349.6073,342.9476 344.0381,341.959 338.3829,342.0645 332.8544,343.26 327.6609,345.5006 322.7102,348.9467 318.8057,353.0392 315.765,357.8086 313.7026,363.0754 312.6959,368.6413 312.7831,374.2969"/>
    <line x1="311.9984" x2="201.1341" y1="411.804" y2="455.025"/>
    <line x1="200.9972" x2="284.1454" y1="454.674" y2="422.2582"/>
    <line x1="285.6509" x2="202.5027" y1="426.1199" y2="458.5357"/>
    <line x1="202.6396" x2="258.0717" y1="458.8867" y2="437.2762"/>
    <line x1="256.2925" x2="200.8604" y1="432.7124" y2="454.3229"/>
    <line x1="200.7235" x2="228.4396" y1="453.9718" y2="443.1666"/>
    <line x1="230.4925" x2="202.7765" y1="448.4325" y2="459.2378"/>
    <line x1="202.3659" x2="313.2301" y1="458.1846" y2="414.9636"/>
    <line x1="288.3015" x2="278.5764" y1="418.1493" y2="440.0586"/>
    <line x1="269.943" x2="279.6681" y1="436.2265" y2="414.3172"/>
    <line x1="280.0135" x2="260.5633" y1="414.4705" y2="458.2891"/>
    <line x1="268.5059" x2="287.9561" y1="461.8146" y2="417.9961"/>
    <line x1="287.6108" x2="258.4355" y1="417.8428" y2="483.5706"/>
    <polygon points="256.7551,488.908 250.7383,489.4453 244.8036,490.5726 239.0088,492.279 233.7534,494.39 228.3884,497.1663 223.3229,500.4574 218.6062,504.2315 214.2842,508.4519 210.3989,513.0774 206.9881,518.0631 204.0849,523.3606 201.7177,528.9182 199.9093,534.6819 198.6775,540.5958 198.0341,546.6022 197.9855,552.6428 198.5321,558.6588 199.6686,564.5917 201.26,570.027 203.503,575.636 206.2875,580.9967 209.5865,586.0571 213.3679,590.768 217.5949,595.0835 222.2264,598.9617 227.2173,602.3648 232.5192,605.2598 238.0805,607.6185 243.847,609.418 249.7628,610.6407 255.7702,611.2748 261.4335,611.3291 267.4519,610.8104 273.39,609.7013 279.19,608.0128 284.7955,605.7612 290.152,602.9684 295.2073,599.6616 299.9123,595.873 303.9644,591.9162 307.864,587.3027 311.2901,582.3275 314.2096,577.0391 316.594,571.4888 318.4201,565.7306 319.6702,559.8206 320.332,553.8162 320.3993,547.7757 319.8712,541.7581 318.7531,535.8217 317.0556,530.0243 314.7953,524.4223 311.9943,519.0702 308.6797,514.02 304.8839,509.3208 300.6436,505.0183 296.0001,501.1544 290.9987,497.7667 285.6879,494.8881 280.1194,492.5465 274.3473,490.7649 268.801,489.6185 262.7956,488.9659"/>
    <polygon points="250.5497,488.6721 244.6148,489.8036 238.818,491.507 233.2144,493.7661 227.8571,496.5595 222.7968,499.8607 218.0816,503.6384 213.7562,507.8568 209.8616,512.4759 206.4347,517.4519 203.508,522.7376 201.1093,528.2829 199.1645,534.4003 197.9207,540.3127 197.2578,546.3181 197.1821,552.3595 197.6944,558.3796 198.7897,564.3213 200.4578,570.1284 202.8398,576.0892 205.6332,581.4465 208.9344,586.5067 212.7121,591.2219 216.9305,595.5473 221.5496,599.4419 226.5256,602.8688 232.1508,605.9612 237.7106,608.3261 243.474,610.1391 249.3864,611.3829 255.3918,612.0458 261.4332,612.1215 267.4533,611.6092 273.395,610.5138 279.5593,608.7228 285.1629,606.4637 290.5202,603.6703 295.5804,600.3691 300.2956,596.5914 304.621,592.373 308.5156,587.7539 311.9425,582.778 314.8692,577.4923 317.268,571.947 319.116,566.1947 320.3958,560.29 321.1195,553.9117 321.1952,547.8704 320.6314,541.476 319.4999,535.5411 317.7965,529.7443 315.5374,524.1407 312.744,518.7834 309.4428,513.7231 305.6651,509.0079 301.4467,504.6825 296.8276,500.7879 291.8517,497.361 286.566,494.4343 281.0207,492.0356 275.2684,490.1876 268.9908,488.847 262.9854,488.1841 256.5666,488.1232"/>
    <polygon points="243.9345,486.3025 237.77,488.0992 231.8106,490.4898 226.1134,493.4515 220.7331,496.9559 215.721,500.9695 211.1253,505.4537 206.7618,510.667 203.1569,515.9805 200.0887,521.621 197.5864,527.5344 195.6742,533.664 194.3703,539.9513 193.6873,546.3358 193.6315,552.7566 194.2037,559.152 195.3983,565.4609 197.2038,571.6229 199.603,577.5788 202.5729,583.2717 206.085,588.647 210.1058,593.6533 214.5967,598.2425 219.5146,602.3709 224.8125,605.9987 230.4397,609.0913 236.3422,611.619 242.4636,613.5577 248.7451,614.8887 255.1266,615.5994 261.5471,615.6828 267.945,615.1383 274.259,613.971 280.4286,612.1921 286.3949,609.8186 292.4269,606.6829 297.7971,603.163 302.7976,599.135 307.3804,594.6376 311.5016,589.7137 315.1218,584.4105 318.2063,578.7789 320.7255,572.8728 322.6554,566.7486 323.9774,560.4652 324.6788,554.0826 324.7378,547.2845 324.1473,540.8907 322.9345,534.5853 321.1113,528.4286 318.6949,522.4796 315.7087,516.7953 312.181,511.4301 308.1459,506.4354 303.6418,501.8591 298.712,497.745 293.4037,494.1324 287.7676,491.056 281.8578,488.5453 275.7309,486.6243 269.4456,485.3113 263.062,484.6191 256.6414,484.5541 250.2451,485.1171"/>
    <line x1="251.1835" x2="280.3588" y1="480.3516" y2="414.6238"/>
    <line x1="280.7041" x2="241.8038" y1="414.777" y2="502.4142"/>
    <line x1="248.3651" x2="287.2655" y1="505.3266" y2="417.6895"/>
    <line x1="286.9201" x2="238.2946" y1="417.5362" y2="527.0826"/>
    <line x1="232.424" x2="281.0495" y1="524.4768" y2="414.9303"/>
    <line x1="281.3948" x2="223.0442" y1="415.0836" y2="546.5393"/>
    <line x1="228.2242" x2="286.5748" y1="548.8386" y2="417.3829"/>
    <line x1="286.2295" x2="218.1538" y1="417.2296" y2="570.5946"/>
    <line x1="213.6645" x2="281.7401" y1="568.6019" y2="415.2369"/>
    <line x1="282.0855" x2="204.2847" y1="415.3902" y2="590.6645"/>
    <line x1="208.0834" x2="285.8841" y1="592.3506" y2="417.0763"/>
    <line x1="285.5388" x2="198.0129" y1="416.9231" y2="614.1066"/>
    <line x1="194.9049" x2="282.4308" y1="612.7271" y2="415.5435"/>
    <line x1="282.7761" x2="185.5252" y1="415.6968" y2="634.7896"/>
    <line x1="187.9425" x2="285.1935" y1="635.8627" y2="416.7698"/>
    <line x1="284.8481" x2="177.8721" y1="416.6165" y2="657.6187"/>
    <line x1="176.1454" x2="283.1215" y1="656.8522" y2="415.85"/>
    <line x1="283.4668" x2="166.7657" y1="416.0033" y2="678.9148"/>
    <line x1="167.8016" x2="284.5028" y1="679.3747" y2="416.4632"/>
    <line x1="284.1575" x2="157.7312" y1="416.3099" y2="701.1307"/>
    <line x1="157.3859" x2="283.8121" y1="700.9774" y2="416.1566"/>
    <polygon points="279.3228,414.1639 152.696,712.0087 288.6468,418.3026"/>
    <line x1="339.8513" x2="201.271" y1="401.3499" y2="455.3761"/>
    <line x1="201.4078" x2="367.7042" y1="455.7271" y2="390.8957"/>
    <line x1="368.3886" x2="202.0921" y1="392.651" y2="457.4825"/>
    <line x1="201.9553" x2="395.9678" y1="457.1314" y2="381.4947"/>
    <line x1="395.5572" x2="201.5447" y1="380.4415" y2="456.0782"/>
    <line x1="201.6816" x2="423.4101" y1="456.4293" y2="369.9873"/>
    <line x1="423.547" x2="201.8184" y1="370.3384" y2="456.7803"/>
    <line x1="202.229" x2="340.8093" y1="457.8335" y2="403.8073"/>
    <polygon points="361.7026,397.0629 356.6051,401.5559 351.9816,406.5354 347.8784,411.9516 344.3364,417.7504 341.5384,423.5261 339.1835,429.9 337.5542,436.1075 336.4752,442.8163 336.0714,449.5993 336.3136,456.0125 337.228,462.7457 338.81,469.3539 341.0438,475.7712 343.907,481.9335 347.1635,487.4637 351.1635,492.9566 355.4272,497.7534 360.4131,502.3699 365.5232,506.2525 371.3072,509.8187 377.4183,512.7896 383.7954,515.1356 390.0052,516.7563 396.3401,517.7842 403.1214,518.2163 409.9119,517.9692 416.2725,517.1144 422.8873,515.56 429.3138,513.353 435.488,510.5154 441.0317,507.282 446.2458,503.5401 451.3557,499.0613 455.993,494.0946 459.8968,489.0007 463.487,483.2316 466.3331,477.4794 468.741,471.1254 470.422,464.9317 471.5568,458.2321 472.0171,451.4527 471.8283,445.0377 470.9701,438.2972 469.4432,431.676 467.263,425.2402 464.4512,419.0543 461.0358,413.18 457.2868,407.9712 452.8008,402.8675 447.8277,398.2371 442.7284,394.3403 436.9544,390.7581 431.1982,387.9201 425.2001,385.6375 418.6448,383.8486 411.9437,382.7231 405.1637,382.2722 398.7489,382.4699 392.0096,383.3375 385.3905,384.8735 378.9578,387.0627 372.7758,389.8831 366.9062,393.3066"/>
    <polygon points="367.1419,367.7781 366.0584,362.999 364.084,358.5139 361.045,354.2009 357.4859,350.8324 353.35,348.2039 348.4253,346.3107 343.5938,345.4917 338.6948,345.6085 333.9078,346.6567 329.4083,348.598 325.073,351.605 321.6784,355.1392 319.0195,359.2556 317.1937,363.8032 316.2354,368.9915 316.3611,374.2661 317.4446,379.0452 319.419,383.5303 322.2119,387.5569 326.017,391.2118 330.1529,393.8403 334.7138,395.6324 339.9091,396.5525 344.8081,396.4357 349.9536,395.2692 354.424,393.2617 358.4299,390.4392 361.8246,386.905 364.4835,382.7886 366.3092,378.241 367.2676,373.0527"/>
    <polygon points="367.9851,367.3757 366.7424,362.2499 364.6995,357.7976 361.6241,353.5127 357.7606,349.9222 353.2623,347.1684 348.6725,345.4566 343.4696,344.5921 338.5728,344.7277 333.4257,345.8789 328.6088,348.0271 324.313,351.0873 320.7087,354.9379 318.1066,359.0882 316.2107,364.01 315.3277,369.2098 315.4926,374.4815 316.5788,379.2582 318.7098,384.0828 321.7546,388.3895 325.5924,392.0074 330.0709,394.7932 335.0127,396.6363 339.8451,397.4392 345.1173,397.2932 350.2561,396.1053 355.0576,393.9228 359.0475,391.0807 362.6791,387.2558 365.4808,382.7872 367.3415,377.8521 368.1874,372.6461"/>
    <polygon points="367.3091,362.5339 365.162,357.7109 362.1153,353.3995 358.286,349.7653 353.8213,346.948 348.8928,345.0559 343.6898,344.1616 338.4124,344.2996 333.2632,345.4645 328.4403,347.6115 324.1289,350.6582 320.4947,354.4875 317.6774,358.9522 315.7853,363.8808 314.891,369.0837 315.0289,374.3612 316.1938,379.5103 318.3409,384.3333 321.3876,388.6447 325.2169,392.2789 329.6816,395.0962 334.6101,396.9883 339.8131,397.8826 345.0906,397.7446 350.2397,396.5797 355.0627,394.4327 359.3741,391.386 363.0082,387.5567 365.8255,383.092 367.7177,378.1634 368.6119,372.9605 368.474,367.683"/>
    <polygon points="368.5597,362.0687 366.2392,356.9083 363.1854,352.5984 359.0862,348.6982 354.6297,345.8626 349.3602,343.8016 343.7858,342.8315 338.5049,342.9453 332.9775,344.1546 327.8017,346.4406 323.4714,349.4655 319.544,353.5386 316.5065,358.3123 314.5825,363.2316 313.5751,368.7994 313.697,374.4562 314.8259,379.6163 317.0773,384.8073 320.3175,389.4458 324.4168,393.346 329.2107,396.3515 334.5073,398.3418 339.7171,399.2127 345.373,399.053 350.8838,397.7699 356.0286,395.4149 360.318,392.3324 364.1907,388.2072 366.9964,383.7319 369.0222,378.4487 369.9278,373.2448 369.8059,367.588"/>
    <polygon points="412.3214,309.4393 409.9643,304.3024 406.6427,299.7296 402.7865,296.1285 397.9973,293.1273 392.7114,291.1267 387.1351,290.2051 381.4866,290.3983 375.9864,291.6989 370.8495,294.056 366.2766,297.3776 362.4465,301.5337 359.5087,306.3621 357.5781,311.674 356.7302,317.2619 356.9454,322.5337 358.246,328.0339 360.6031,333.1708 363.9246,337.7437 367.7808,341.3448 372.57,344.346 377.856,346.3465 383.4322,347.2682 389.0808,347.0749 394.581,345.7743 399.7179,343.4172 404.2907,340.0957 408.1209,335.9395 410.893,331.4503 412.8936,326.1643 413.8152,320.5881 413.622,314.9395"/>
    <line x1="443.092" x2="456.1002" y1="299.1601" y2="256.8626"/>
    <line x1="455.7358" x2="449.2317" y1="256.7505" y2="277.8993"/>
    <line x1="455.7914" x2="462.2955" y1="279.9167" y2="258.7679"/>
    <polygon points="455.3714,256.6385 393.9746,469.2468 462.66,258.88"/>
    <polygon points="405.1966,265.7289 446.1011,371.3133 502.521,349.4556 461.6165,243.8712"/>
    <polygon points="319.5934,286.792 301.7774,344.1611 409.4737,377.6062 427.2897,320.2371"/>
    <polygon points="437.3366,364.7602 200.5866,453.6208 202.9133,459.5889"/>
    <polygon points="466.4942,352.306 468.0143,355.9132 616.663,291.149"/>
    <line x1="466.6462" x2="496.528" y1="352.6667" y2="340.0746"/>
    <line x1="497.744" x2="467.8623" y1="342.9603" y2="355.5524"/>
    <line x1="467.7103" x2="527.4737" y1="355.1917" y2="330.0075"/>
    <line x1="526.5617" x2="466.7982" y1="327.8432" y2="353.0274"/>
    <line x1="466.9502" x2="556.5955" y1="353.3881" y2="315.6118"/>
    <line x1="557.2035" x2="467.5583" y1="317.0547" y2="354.831"/>
    <line x1="467.4063" x2="586.9332" y1="354.4703" y2="304.1018"/>
    <line x1="586.6292" x2="467.1022" y1="303.3804" y2="353.7488"/>
    <line x1="467.2542" x2="616.663" y1="354.1096" y2="291.149"/>
    <polygon points="509.3942,436.9758 548.7474,335.3082 253.4375,221.0003 214.0842,322.6679"/>
    <polygon points="447.8999,542.3983 443.0813,538.1578 437.5692,534.1827 431.6889,530.7755 425.8499,528.1098 419.4237,525.8987 412.8093,524.3378 406.0725,523.4426 399.6578,523.2166 392.8747,523.6353 386.1669,524.7267 379.6009,526.48 373.242,528.8778 367.4832,531.7128 361.7049,535.2901 356.3112,539.4245 351.3555,544.075 347.1217,548.8994 343.1541,554.417 339.9285,559.9664 337.0975,566.1447 335.0007,572.2113 333.4124,578.8191 332.4892,585.5521 332.2405,592.3436 332.6686,599.1261 333.6907,605.463 335.4167,612.0361 337.6398,618.0576 340.5991,624.1755 344.1524,629.9685 348.2644,635.3794 352.8942,640.3544 357.7011,644.6082 363.2022,648.5986 368.7381,651.8473 374.9046,654.7039 381.3247,656.9328 387.9347,658.512 394.669,659.4258 401.4608,659.6651 408.2427,659.2277 414.5781,658.1968 421.1489,656.4617 427.5145,654.0815 433.6117,651.0799 439.0692,647.7011 444.4744,643.5817 449.4429,638.945 453.9256,633.837 457.6729,628.6256 461.0882,622.7501 463.902,616.564 466.0864,610.1286 467.552,603.8794 468.4565,597.1439 468.6865,590.3518 468.2821,583.9458 467.2,577.2365 465.4558,570.6681 463.0668,564.3058 460.0567,558.2128 456.6704,552.7599 452.5435,547.3605"/>
    <polygon points="468.652,569.8799 466.1473,563.1538 462.981,556.7125 459.3999,550.932 455.286,545.5177 450.4066,540.2539 445.0242,535.5058 439.193,531.3211 432.9717,527.7419 426.7747,524.9425 419.9766,522.6402 413.3539,521.0981 406.238,520.1604 399.4418,519.9343 392.2793,520.397 385.5687,521.4956 378.9928,523.2266 372.2633,525.7224 365.8179,528.8802 360.0326,532.4536 354.3235,536.8034 349.3427,541.4328 344.5875,546.8089 340.395,552.6346 336.9808,558.5152 334.0001,565.0444 331.7934,571.4763 330.1379,578.4602 329.2229,585.1983 328.9558,592.3707 329.409,599.5338 330.4987,606.2458 332.335,613.1843 334.7079,619.5568 337.8572,626.0064 341.423,631.7964 345.7653,637.5112 350.6585,642.762 355.7579,647.2605 361.578,651.4606 367.7898,655.0562 373.9794,657.872 380.7714,660.1922 387.39,661.7518 394.5034,662.7083 401.6769,662.9469 408.8381,662.4653 415.5457,661.349 422.1171,659.6007 428.8399,657.0871 434.9464,654.0954 441.0528,650.3235 446.7504,645.9586 451.719,641.3162 456.46,635.9275 460.4319,630.4082 464.0357,624.2011 466.8597,618.0153 469.1889,611.2264 470.7572,604.6098 471.7231,597.4977 471.9761,590.7025 471.5418,583.5382 470.3916,576.4536"/>
    <polygon points="455.3911,635.0098 459.3522,629.4857 462.7597,623.604 465.7206,617.0687 467.8957,610.6286 469.4368,604.0081 470.3296,597.2696 470.5655,590.4762 470.1425,583.6919 468.9855,576.611 467.2271,570.0449 464.6906,563.3335 461.6665,557.2457 458.0671,551.4795 453.9263,546.0889 449.0109,540.8623 443.8844,536.3986 438.3497,532.4525 432.4588,529.0608 426.2672,526.2556 419.833,524.0632 413.2167,522.5042 406.4805,521.5933 399.6878,521.3391 392.527,521.7856 385.8185,522.8818 379.2476,524.6224 372.5294,527.1409 366.4335,530.1485 360.6576,533.7323 355.2558,537.8587 350.2791,542.4888 345.5386,547.8744 341.5775,553.3985 338.17,559.2802 335.3481,565.4642 333.1384,571.8925 331.5616,578.5046 330.6326,585.2382 330.36,592.0302 330.7465,598.8167 331.8653,605.9037 333.7026,612.8393 336.0886,619.2042 339.0798,625.3082 342.6481,631.0938 347.0035,636.7953 351.6469,641.7596 356.7494,646.2508 362.2627,650.2267 368.1352,653.6501 374.6625,656.6286 381.0967,658.821 387.713,660.38 394.4492,661.2909 401.2419,661.5451 408.0273,661.1404 415.1113,660.0024 421.6821,658.2618 428.0534,655.8929 434.1654,652.9182 440.2722,649.1519 445.962,644.7811 450.9137,640.1243"/>
    <polygon points="414.6768,658.6556 420.8868,657.0361 427.2667,654.6979 433.3844,651.7408 439.1801,648.1938 444.597,644.0917 449.5822,639.4745 454.0869,634.3875 458.0671,628.8803 461.3093,623.3418 464.1629,617.1751 466.3934,610.7568 467.979,604.1494 468.904,597.4178 469.1596,590.6277 468.7431,583.8456 467.6587,577.1378 465.917,570.5699 463.535,564.2062 460.7183,558.4397 457.1633,552.6489 453.0538,547.2376 448.4297,542.2588 443.3365,537.7611 437.8238,533.7885 432.2809,530.5539 426.1103,527.7087 419.6889,525.4871 413.0794,523.9106 406.3465,522.9948 399.5561,522.7485 392.7745,523.1743 386.0682,524.2679 379.5027,526.0187 373.1423,528.4095 367.0492,531.4169 361.5938,534.797 356.1881,538.914 351.2156,543.5449 346.7249,548.6443 342.76,554.1624 339.3595,560.0452 336.5568,566.2352 334.3793,572.6717 332.9161,578.9204 332.0095,585.6545 331.7726,592.4453 332.166,598.8509 333.2319,605.5617 334.9556,612.1343 337.3201,618.5045 340.3024,624.61 343.8732,630.391 347.9976,635.791 352.6353,640.7571 357.7409,645.2408 362.9476,648.9928 368.8163,652.4175 374.9947,655.2457 381.4222,657.4497 388.036,659.008 394.3951,659.873 401.1848,660.1379 407.9675,659.7308"/>
    <polygon points="373.7036,552.9463 383.3835,601.7839 522.3209,574.2456 512.6409,525.408"/>
    <polygon points="399.1356,522.2861 392.3518,522.7507 386.0158,523.7993 379.444,525.5448 373.0753,527.9272 366.9713,530.9235 361.191,534.5045 355.7902,538.6358 350.8212,543.2775 346.3319,548.3846 342.3658,553.9078 338.9612,559.7937 336.1509,565.9855 333.9621,572.4233 332.4161,579.0449 331.5277,585.7863 331.3054,592.5824 331.7516,599.3674 332.8618,606.0759 334.6253,612.6429 337.0251,619.0051 339.8549,624.7702 343.4202,630.5603 347.5367,635.9723 352.1648,640.954 357.2596,645.4572 362.7719,649.4384 368.6486,652.8591 374.8327,655.6863 381.2645,657.8926 387.8818,659.4567 394.6208,660.3636 401.4162,660.6044 408.2025,660.1768 414.9139,659.0849 421.4858,657.3393 427.8544,654.957 433.9584,651.9607 439.7387,648.3797 445.1395,644.2484 450.1085,639.6067 454.5978,634.4996 458.5639,628.9764 461.9686,623.0905 464.7788,616.8987 466.9676,610.4609 468.5136,603.8393 469.4021,597.0979 469.6243,590.3018 469.1781,583.5168 468.0679,576.8083 466.3044,570.2413 463.9046,563.8791 460.8918,557.7833 457.2949,552.0128 453.1489,546.6234 448.4937,541.667 443.3744,537.1917 437.8403,533.2407 431.9451,529.8522 425.7457,527.0588 419.3019,524.8877 412.6761,523.3597 405.9323,522.4897"/>
    <polygon points="326.3595,560.6091 327.0498,554.228 327.1353,547.8102 326.5658,541.0386 325.3231,534.3576 323.4196,527.834 321.0323,521.8762 317.9042,515.8434 314.1895,510.1529 309.9253,504.8618 305.4318,500.2789 300.2256,495.9113 294.6093,492.0854 288.6392,488.8392 282.7296,486.335 276.2448,484.3035 269.9626,482.9883 263.2075,482.2481 256.7896,482.1715 250.0187,482.7505 243.3395,484.0024 237.1755,485.7917 230.8641,488.3106 224.8356,491.447 219.1503,495.1696 214.1473,499.1901 209.5457,503.6646 205.1565,508.8525 201.3071,514.4527 198.0361,520.4093 195.376,526.6626 193.4488,532.7847 192.0471,539.4342 191.3163,546.1904 191.2487,552.6083 191.837,559.3784 193.0107,565.6885 194.896,572.2173 197.4237,578.5253 200.5685,584.5495 204.299,590.2295 208.3265,595.227 213.0841,600.0792 218.3024,604.4323 223.6069,608.0459 229.5679,611.3087 235.8249,613.96 242.3154,615.9735 248.6012,617.2712 255.3583,617.9927 261.7764,618.0514 268.5456,617.4537 275.2214,616.1831 281.3803,614.3768 287.6848,611.8404 293.7045,608.6872 299.3794,604.9488 304.3713,600.9144 309.2169,596.15 313.5627,590.9257 317.169,585.6162 320.4234,579.6506 322.9358,573.7444 324.9763,567.2624"/>
    <polygon points="318.8449,565.6715 320.0815,559.7551 320.7329,553.746 320.7926,547.7021 320.2603,541.6813 319.141,535.7416 317.4454,529.94 315.1898,524.3324 312.396,518.9725 309.0908,513.912 305.3059,509.1995 301.0778,504.8803 296.447,500.9958 291.4581,497.5834 286.159,494.676 280.6007,492.3015 274.8366,490.4826 268.9221,489.2369 262.9141,488.5764 256.8702,488.5073 250.8486,489.0304 244.9072,490.1406 239.103,491.8273 233.4919,494.0743 228.1278,496.8599 223.0623,500.1573 218.3439,503.935 214.0182,508.1565 210.1267,512.7813 206.7067,517.765 203.7911,523.0596 201.4081,528.6142 199.5804,534.3756 198.3256,540.2882 197.6558,546.2952 197.5775,552.339 198.0914,558.3613 199.1925,564.3045 200.8703,570.1112 203.1087,575.7257 205.886,581.0941 209.1757,586.1647 212.9462,590.8888 217.1611,595.221 221.7799,599.1196 226.7583,602.5473 232.0484,605.4709 237.5994,607.8625 243.3579,609.699 249.2686,610.9628 255.2746,611.6418 261.3182,611.7294 267.7159,611.1736 273.6538,610.0452 279.4528,608.3407 285.057,606.0766 290.4125,603.2745 295.468,599.9616 300.1747,596.1695 304.4874,591.9347 308.3648,587.298 311.7695,582.3039 314.6688,577.0003 317.0348,571.4384"/>
    <polygon points="312.7548,511.5471 308.5053,506.2437 304.0111,501.6612 299.093,497.5368 293.7975,493.9096 288.1748,490.8138 282.278,488.2789 276.1629,486.3286 269.5143,484.9214 263.1335,484.2267 256.7153,484.1551 249.9463,484.759 243.6422,485.9657 237.485,487.779 231.5331,490.1817 225.8427,493.1512 220.4677,496.6593 215.4587,500.6729 210.8633,505.154 206.7249,510.0603 203.0825,515.3454 199.9707,520.9592 197.2868,527.2026 195.354,533.3233 194.0249,539.6027 193.312,545.9816 193.222,552.3996 193.8065,559.1702 194.9952,565.4778 196.7908,571.6401 199.1765,577.5989 202.1297,583.2977 205.6224,588.6828 209.8719,593.9861 214.3662,598.5687 219.2843,602.6931 224.5797,606.3203 230.2025,609.416 236.0993,611.951 242.2144,613.9012 248.49,615.2483 255.2438,616.0031 261.662,616.0748 268.0568,615.5227 274.3678,614.3521 280.5352,612.5741 286.8442,610.0481 292.5345,607.0787 297.9096,603.5706 302.9185,599.557 307.514,595.0758 311.6524,590.1695 315.2947,584.8845 318.5724,578.9313 321.0905,573.0273 323.0232,566.9066 324.3524,560.6271 325.0653,554.2483 325.1553,547.8303 324.6215,541.4339 323.3821,534.7521 321.5864,528.5898 319.2007,522.631 316.2476,516.9321"/>
    <polygon points="293.9347,493.5292 288.306,490.4373 282.4049,487.9036 275.9212,485.8556 269.6354,484.5398 263.2519,483.8373 256.8304,483.7547 250.431,484.2929 243.7457,485.5336 237.5793,487.3274 231.615,489.7085 225.9086,492.6547 220.207,496.3593 215.1964,500.3764 210.3406,505.1359 206.224,510.0651 202.6029,515.3688 199.511,520.9976 196.9773,526.8987 195.0256,533.0169 193.6135,539.6681 192.911,546.0516 192.8429,552.8508 193.4175,559.247 194.6073,565.5579 196.4011,571.7243 198.7822,577.6886 201.7284,583.3949 205.212,588.79 209.4501,594.1071 213.9324,598.7062 218.838,602.8507 224.4425,606.7007 230.0713,609.7926 235.9724,612.3262 242.0906,614.278 248.3688,615.6296 255.1253,616.3926 261.5468,616.4751 268.3207,615.8861 274.6316,614.6963 280.798,612.9025 286.7623,610.5213 292.7951,607.3848 298.1703,603.8706 303.1808,599.8535 308.0367,595.0939 312.1532,590.1648 315.7744,584.861 318.8663,579.2323 321.3999,573.3312 323.3517,567.2129 324.7638,560.5617 325.4663,554.1782 325.5344,547.3791 324.9598,540.9828 323.77,534.672 321.9762,528.5056 319.595,522.5413 316.6489,516.8349 312.9443,511.1333 308.9272,506.1227 304.4449,501.5237 299.2385,497.1503"/>
    <polygon points="276.3532,485.5599 270.077,484.2103 263.3233,483.445 256.9043,483.356 250.1319,483.9337 243.8207,485.1088 237.6515,486.8842 231.3373,489.4002 225.6377,492.3542 219.9416,496.0627 214.9341,500.0798 210.3354,504.5591 206.1879,509.4591 202.53,514.7346 199.2279,520.6755 196.5466,526.9213 194.6094,533.0416 193.2087,539.6927 192.5129,546.0745 192.433,552.4937 192.9696,558.8909 194.2043,565.5747 195.9884,571.7415 198.3563,577.7085 201.2861,583.4206 204.9704,589.1323 208.9663,594.1568 213.7019,599.0325 218.6077,603.1731 223.8884,606.8236 229.4952,609.9503 235.7295,612.658 241.8416,614.6212 248.4867,616.0501 254.8655,616.7729 261.6618,616.8671 268.0582,616.3215 274.3727,615.1643 280.5469,613.4063 286.8681,610.9082 292.5761,607.9703 297.9757,604.4982 303.3015,600.275 307.9128,595.8088 312.3041,590.6208 315.9471,585.3349 319.2324,579.3847 321.7649,573.4856 323.7193,567.3708 325.1388,560.7237 325.8526,554.3438 325.9507,547.925 325.4322,541.5263 324.2165,534.8389 322.4497,528.6672 319.9427,522.3495 316.9968,516.6457 313.517,511.251 309.2863,505.9312 304.8135,501.3262 299.6193,496.9423 294.3283,493.3067 288.7128,490.1958 282.4709,487.5057"/>
    <polygon points="274.2658,492.7887 268.7257,491.6114 262.7216,490.9445 257.0582,490.8774 251.04,491.4019 245.1064,492.5362 239.6753,494.143 234.4224,496.2609 229.3956,498.8704 224.6408,501.9478 219.9177,505.7143 215.8593,509.665 211.9673,514.2852 208.7633,518.9556 205.8537,524.2498 203.6286,529.4582 201.9107,534.8552 200.655,540.7643 200.0298,546.3935 199.9582,552.4341 200.4499,558.0765 201.5653,564.0137 203.1549,569.4498 205.256,574.7094 208.0393,580.0711 211.1319,584.816 214.9134,589.5271 219.1548,593.8289 223.5096,597.4502 228.1902,600.6393 233.1537,603.3672 238.355,605.6089 244.1115,607.4412 249.6515,608.6185 255.6557,609.2854 261.3191,609.3524 267.3373,608.828 272.9037,607.7822 278.3449,606.21 283.6112,604.1257 288.9817,601.3594 293.7365,598.282 298.4596,594.5155 302.5179,590.5648 306.41,585.9446 309.614,581.2742 312.5236,575.98 314.7487,570.7716 316.5626,565.0094 317.7223,559.4656 318.37,553.4593 318.4191,547.7958 317.9273,542.1534 316.8994,536.5837 315.2224,530.78 313.1213,525.5204 310.3379,520.1588 307.0233,515.1083 303.4639,510.7027 299.5003,506.657 294.8677,502.7797 290.1871,499.5905 285.2235,496.8627 279.6682,494.4893"/>
    <polygon points="270.6163,527.115 263.7675,524.972 256.37,523.4444 249.2326,522.6992 241.6791,522.6658 234.5353,523.3478 227.4913,524.719 220.6133,526.7663 213.9661,529.4704 207.2871,532.9985 201.3065,536.9647 195.7384,541.4918 190.6352,546.5371 186.045,552.0533 181.8147,558.3112 178.407,564.6267 175.6273,571.2426 173.4084,578.463 171.993,585.4982 171.247,593.0149 171.2519,600.1911 171.9523,607.3331 173.3414,614.3735 175.4062,621.2463 178.1273,627.8866 181.4791,634.2319 185.4301,640.2226 189.9429,645.8022 195.2536,651.1738 200.7814,655.7499 206.7267,659.7688 213.0335,663.1927 219.9974,666.1186 226.857,668.2266 233.8886,669.66 241.026,670.4052 248.202,670.4552 255.7232,669.7565 262.7673,668.3854 269.6452,666.3381 276.6347,663.4739 282.9715,660.1059 288.9521,656.1397 294.5202,651.6126 299.6233,646.5672 304.2136,641.0511 308.4438,634.7932 311.8516,628.4777 314.7597,621.5063 316.8502,614.6414 318.2656,607.6061 318.9925,600.4668 319.0243,593.2907 318.3063,585.7713 316.9172,578.7308 314.8524,571.8581 312.1312,565.2178 308.7794,558.8724 304.8285,552.8817 300.3157,547.3021 295.005,541.9306 289.4771,537.3544 283.5319,533.3355 277.2251,529.9116"/>
    <polygon points="220.4423,506.3074 216.3872,510.26 212.7334,514.5862 209.5151,519.2455 206.7625,524.1942 204.5015,529.386 202.7531,534.772 201.5338,540.3019 200.8292,546.3006 200.7338,551.9625 201.1865,557.6071 202.2686,563.5493 203.8346,568.9912 205.9197,574.2561 208.5041,579.2946 211.5637,584.0596 215.3186,588.7905 219.2647,592.852 223.8853,596.7417 228.5602,599.9374 233.5222,602.6659 239.079,605.0329 244.4845,606.7203 250.0278,607.877 255.657,608.4922 261.3193,608.5601 267.3358,608.0287 272.8985,606.9693 278.3328,605.3769 283.5875,603.2664 288.6135,600.6576 293.3636,597.5749 298.0762,593.7971 302.1185,589.8315 305.7583,585.4935 309.1588,580.5017 311.8633,575.5266 314.2033,569.9584 315.8645,564.5448 316.9944,558.9959 317.5823,553.3638 317.6228,547.7012 317.1155,542.0613 315.9759,536.1298 314.3572,530.7034 312.2213,525.4589 309.5882,520.4456 306.4825,515.7105 302.9335,511.2979 298.9744,507.2492 294.6423,503.6024 289.9778,500.3916 285.0247,497.6471 279.8293,495.3944 274.4404,493.6547 268.9086,492.4443 262.9088,491.7494 257.2467,491.6632 251.2285,492.1752 245.6624,493.2166 240.223,494.7915 234.9615,496.885 229.9271,499.4776 224.8606,502.7655"/>
    <polygon points="213.885,498.8936 209.0223,503.6457 204.6556,508.8572 201.0259,514.1547 197.7423,520.1083 195.1985,526.0046 193.1205,532.4784 191.6956,539.1266 190.9381,545.8834 190.8552,552.682 191.4479,559.4552 192.7103,566.1361 194.6299,572.6586 197.1877,578.9582 200.1668,584.6471 203.8878,590.3376 208.1555,595.6305 212.9277,600.4734 218.1573,604.8185 223.7925,608.6227 229.437,611.6851 235.6983,614.3353 242.1919,616.3506 248.8535,617.711 255.24,618.3825 261.6613,618.4518 268.4353,617.8685 275.1179,616.6153 281.6431,614.7048 287.603,612.3136 293.6392,609.1844 299.3349,605.4713 304.6337,601.2109 309.4831,596.4454 313.8354,591.2218 317.6475,585.5919 320.7176,579.9516 323.2452,574.0483 325.3053,567.5688 326.7117,560.9168 327.4506,554.1579 327.5147,547.3591 326.9033,540.5875 325.711,534.2775 323.8094,527.7497 321.269,521.4431 318.3057,515.746 314.6004,510.0452 310.3473,504.7405 305.5885,499.8845 300.371,495.525 295.0685,491.9026 289.1103,488.6272 283.2105,486.0915 276.7338,484.0225 270.0837,482.6068 263.3259,481.8586 256.5272,481.7851 250.1292,482.3361 243.4431,483.5708 236.9127,485.4633 230.9463,487.838 224.9014,490.9505 219.1955,494.6479"/>
    <polygon points="226.5893,494.5492 221.2187,498.0711 216.5079,501.8591 212.1728,506.072 208.0212,510.9721 204.5776,515.9403 201.4463,521.5476 198.8889,527.4388 196.9307,533.5554 195.5913,539.8366 194.9079,545.8427 194.7904,551.8865 195.2868,558.2897 196.4183,564.6116 198.1736,570.7895 200.5353,576.7619 203.2911,582.1421 206.7578,587.5485 210.7455,592.5829 215.2147,597.1953 219.821,601.1096 225.0941,604.776 230.706,607.8991 236.601,610.4479 242.7204,612.3971 248.6306,613.6664 255.0107,614.4019 261.4324,614.4984 267.8318,613.9551 273.7774,612.8639 279.9527,611.0995 285.9216,608.7291 291.2977,605.9654 296.6991,602.4908 301.7276,598.4957 306.075,594.2956 310.241,589.4077 313.8996,584.1293 317.0145,578.5128 319.5547,572.6141 321.3977,566.857 322.7556,560.5798 323.4817,554.1986 323.5688,547.7767 323.016,541.3782 321.829,535.0664 320.1427,529.2615 317.7635,523.296 314.8021,517.5971 311.5095,512.5277 307.507,507.505 303.3005,503.1638 298.4065,499.005 293.1227,495.3541 287.5016,492.2475 281.5992,489.716 275.4741,487.7847 269.187,486.473 263.178,485.816 256.756,485.7383 250.3583,486.3004 244.4159,487.409 238.2458,489.1915 232.2839,491.5795"/>
    <polygon points="204.3905,508.5516 200.7541,513.8417 197.4592,519.7863 194.7672,526.0271 192.7042,532.5031 191.2906,539.1512 190.54,545.9063 190.4466,552.325 191.0004,559.099 192.2201,565.7854 194.0938,572.3187 196.6031,578.6351 199.7237,584.6731 203.4249,590.3736 207.6707,595.6809 212.1434,600.2856 217.325,604.684 222.9154,608.5495 228.86,611.8444 235.1008,614.5364 241.5769,616.5993 248.2249,618.013 254.98,618.7636 261.7762,618.8438 268.5471,618.2528 275.2266,616.9964 281.7495,615.0869 288.0521,612.5429 294.0729,609.3892 299.4473,605.8786 304.7546,601.6328 309.6169,596.8839 313.7577,591.9786 317.6232,586.3882 320.9181,580.4436 323.6101,574.2027 325.673,567.7267 327.0867,561.0787 327.8373,554.3236 327.9307,547.9049 327.3769,541.1308 326.1572,534.4445 324.2835,527.9112 321.7742,521.5947 318.6536,515.5568 314.9524,509.8563 310.7065,504.549 305.9576,499.6866 300.7519,495.3168 295.1404,491.482 289.1778,488.2198 283.2765,485.6935 276.8004,483.6305 270.1524,482.2169 263.3973,481.4663 256.6011,481.3861 249.8302,481.9771 243.1506,483.2335 236.6277,485.143 230.6684,487.5294 224.6305,490.65 218.93,494.3512 213.6227,498.597 208.7603,503.346"/>
    <polygon points="205.2767,523.6268 203.0212,528.8232 201.1663,534.5736 199.8986,540.4813 199.2307,546.4864 199.1695,552.5282 199.6638,558.1714 200.7743,564.1107 202.4758,569.9083 204.7512,575.5056 207.3852,580.5208 210.4798,585.2656 214.2575,589.9812 218.4899,594.2933 222.8326,597.9308 227.4986,601.143 232.7853,604.0685 238.3392,606.448 244.104,608.2576 249.6482,609.4201 255.6544,610.0785 261.3188,610.1448 267.3387,609.6271 273.2762,608.5072 278.7142,606.9205 284.3222,604.6715 289.6759,601.8705 294.4159,598.7684 299.1255,594.9833 303.1746,591.0216 307.0616,586.3958 310.4642,581.4028 313.1836,576.4334 315.5544,570.8758 317.2595,565.4737 318.5087,559.5621 319.1349,553.932 319.2279,548.268 318.7386,542.2457 317.6467,536.303 315.9634,530.5 313.8632,525.239 311.0875,519.8721 308.0077,515.1176 304.2449,510.3902 300.0261,506.0647 295.6949,502.4136 290.718,498.9875 285.7615,496.2447 280.5686,493.981 274.8212,492.1171 268.9155,490.8401 262.9114,490.1628 257.2473,490.0787 251.2257,490.5775 245.6526,491.5923 239.8418,493.2483 234.5708,495.3237 229.191,498.074 224.1146,501.3509 219.3931,505.1212 215.3316,509.0701 211.43,513.6837 208.2105,518.3447"/>
    <polygon points="199.0669,528.097 197.2592,533.8618 196.003,539.7713 195.2849,546.1499 195.1956,552.1908 195.7251,558.5878 196.8062,564.5318 198.5632,570.7055 200.9295,576.6723 203.6921,582.0453 207.1681,587.4415 211.1669,592.4626 215.3721,596.8004 220.2668,600.953 225.5527,604.5946 230.8374,607.5224 236.7279,610.0727 242.4792,611.9228 248.7518,613.2852 255.1293,614.0128 261.5476,614.0981 267.9422,613.5404 273.8814,612.433 280.0473,610.6487 286.0035,608.2559 291.3642,605.4697 296.745,601.9698 301.7484,597.9488 306.0675,593.7244 310.1984,588.8114 313.8166,583.5095 316.8858,577.872 319.2452,572.3101 321.1657,566.1853 322.4633,559.899 323.1038,553.8915 323.1608,547.4729 322.6269,541.4549 321.5283,535.5141 319.7531,529.3456 317.3691,523.3858 314.4005,517.6947 311.0989,512.6351 307.0853,507.6258 302.5903,503.0436 297.9603,499.1623 292.6638,495.5363 287.3704,492.624 281.4724,490.0912 275.3504,488.1616 269.4391,486.9141 263.0594,486.2054 256.6409,486.139 250.6222,486.6639 244.6798,487.7538 238.5086,489.5199 232.5454,491.8951 226.8499,494.8554 221.7854,498.1495 216.7702,502.1557 212.1813,506.6439 208.2932,511.2681 204.6594,516.5593 201.5736,522.1878"/>
    <polygon points="199.6287,546.4635 199.551,552.1301 200.0608,558.1532 201.1774,564.0938 202.7651,569.534 204.8618,574.799 207.6378,580.1686 210.9427,585.2297 214.4915,589.6482 218.7203,593.9673 223.0629,597.6085 228.0531,601.0196 233.0226,603.7437 238.2281,605.9841 243.9878,607.818 249.5303,608.9998 255.5372,609.6748 261.5815,609.7386 267.2269,609.2428 273.1675,608.1262 278.6077,606.5384 284.2164,604.2844 289.2423,601.6658 293.9971,598.5823 298.7219,594.8121 303.041,590.5833 306.6822,586.2407 309.8951,581.5723 312.8174,576.281 315.0578,571.0755 316.8917,565.3158 318.0735,559.7732 318.7485,553.7664 318.8263,548.0998 318.3165,542.0767 317.1999,536.136 315.6121,530.6958 313.3581,525.0872 310.7395,520.0613 307.656,515.3065 303.8858,510.5817 299.9339,506.5198 295.3144,502.6213 290.646,499.4084 285.3547,496.4861 280.1492,494.2457 274.3895,492.4118 268.8469,491.23 262.8401,490.555 256.7958,490.4912 251.1504,490.9871 245.2097,492.1037 239.7696,493.6914 234.1609,495.9455 229.135,498.5641 224.3802,501.6476 219.6554,505.4178 215.3363,509.6466 211.695,513.9892 208.4822,518.6576 205.5598,523.9488 203.1878,529.5086 201.4855,534.9141 200.2437,540.8298"/>
    <polygon points="194.0248,552.6829 194.5927,559.0752 195.7862,565.3808 197.5936,571.5385 199.9975,577.4888 202.9746,583.174 206.4961,588.539 210.5278,593.532 215.0308,598.1045 219.9614,602.2123 225.2718,605.8156 230.9107,608.8795 236.8234,611.3743 242.9527,613.2759 249.2393,614.5659 255.6222,615.2317 262.0396,615.267 268.4294,614.6713 274.7297,613.4505 280.8796,611.6163 286.8193,609.1866 292.4915,606.1848 297.5364,602.863 302.5352,598.8385 307.1142,594.3422 311.2292,589.4176 314.8402,584.1124 317.9122,578.4779 320.4156,572.5688 322.2305,566.8076 323.5659,560.5306 324.2779,554.1527 324.3596,547.7357 323.8102,541.3417 322.635,535.0327 320.8454,528.8698 318.4588,522.9126 315.4981,517.2188 311.9922,511.8435 307.9749,506.8389 303.7617,502.5107 298.867,498.3603 293.588,494.711 287.976,491.5982 282.0851,489.0521 275.9726,487.0973 269.6975,485.7528 263.3206,485.0316 256.9037,484.9406 250.509,485.4807 244.1983,486.6468 238.0328,488.4274 232.0721,490.8055 226.374,493.7579 220.9937,497.256 215.9833,501.266 211.3913,505.7491 207.2621,510.6618 203.6358,515.9565 200.5474,521.582 198.027,527.4839 196.0987,533.6049 194.7815,539.8857 194.0879,546.2657"/>
    <polygon points="198.9756,570.6884 201.1992,576.3084 204.1344,582.0196 207.4098,587.0991 211.401,592.1294 215.6027,596.4738 220.4971,600.6306 225.7854,604.273 231.0744,607.1979 236.6171,609.6078 242.7282,611.5798 249.0068,612.9258 255.0121,613.6085 261.4327,613.7061 267.8304,613.1561 273.7726,612.0519 279.9408,610.2666 285.8976,607.8688 291.2566,605.0742 296.3263,601.7837 301.3448,597.7776 305.9339,593.2861 309.819,588.6563 313.4457,583.3572 316.3548,578.0595 318.8802,572.1556 320.7021,566.3928 322.0295,560.1102 322.6943,554.1029 322.7729,547.6821 322.2552,541.6604 321.082,535.3471 319.2784,529.1843 317.0215,523.5776 314.0524,517.8839 310.7469,512.824 306.7259,507.8174 302.2208,503.2417 297.5795,499.3703 292.5919,495.9568 286.9633,492.866 281.052,490.3582 275.2838,488.5534 268.9972,487.2447 262.9881,486.5977 256.567,486.5382 250.5468,487.0737 244.2371,488.2657 238.4365,489.9633 232.4796,492.3611 227.1206,495.1557 222.0509,498.4461 217.0325,502.4522 212.7006,506.6669 208.5583,511.5735 205.13,516.551 202.0224,522.1704 199.629,527.7202 197.6752,533.837 196.3478,540.1197 195.683,546.1269 195.5911,552.1701 196.122,558.5695 197.2953,564.8827"/>
    <polygon points="212.2284,591.2716 216.4241,595.6158 221.0198,599.5343 225.9726,602.9905 231.5742,606.1201 237.4675,608.6583 243.2248,610.4829 249.1314,611.7427 255.1321,612.4261 261.1707,612.5265 267.1908,612.0431 273.5038,610.8949 279.3086,609.2277 284.9252,607.0075 290.301,604.2551 295.6928,600.7763 300.4163,597.0128 305.0115,592.5343 308.8951,587.9091 312.3138,582.9304 315.2355,577.6446 317.6329,572.1014 319.5807,565.9875 320.8316,560.079 321.5058,554.0773 321.5835,547.6611 321.0546,541.6449 319.9469,535.7078 318.2709,529.9056 316.0422,524.2924 313.092,518.5942 309.7948,513.5342 306.0242,508.8164 301.8154,504.485 296.9076,500.3514 291.9237,496.9402 286.6336,494.0265 280.7327,491.5061 274.9699,489.699 269.0595,488.457 263.0568,487.7918 256.6405,487.7239 250.6251,488.2619 244.6897,489.3785 238.89,491.0633 233.2802,493.3004 227.5864,496.2592 222.5314,499.5641 217.8194,503.3419 213.4943,507.5572 209.5966,512.1706 206.1629,517.139 203.2253,522.4159 200.8111,527.9519 198.9431,533.6952 197.5761,539.9645 196.8837,545.9642 196.7867,552.38 197.2974,558.3979 198.3871,564.3382 200.0455,570.1455 202.4134,576.1093 205.1902,581.4725 208.4721,586.5425"/>
    <polygon points="522.7726,778.7667 525.5229,773.8565 312.276,657.6384"/>
    <polygon points="432.5437,901.5194 516.9068,798.709 327.6727,729.4474"/>
    <polygon points="588.5199,565.9954 500.317,508.0757 439.4248,600.8051 527.6277,658.7249"/>
  </g>
</svg>
