<?xml version="1.0" encoding="utf-8" ?>
<svg xmlns="http://www.w3.org/2000/svg" xmlns:cc="http://creativecommons.org/ns" xmlns:dc="http://purl.org/dc/elements/1.1/" xmlns:ev="http://www.w3.org/2001/xml-events" xmlns:inkscape="http://www.inkscape.org/namespaces/inkscape" xmlns:rdf="http://www.w3.org/1999/02/22-rdf-syntax-ns" xmlns:sodipodi="http://sodipodi.sourceforge.net/DTD/sodipodi-0.dtd" xmlns:xlink="http://www.w3.org/1999/xlink" baseProfile="tiny" height="29.7cm" version="1.2" viewBox="0 0 793.7007874015749 1122.5196850393702" width="21.0cm">
  <metadata>
    <rdf:RDF>
      <cc:Work>
        <dc:format>image/svg+xml</dc:format>
        <dc:source>Vsketch with params {'__seed__': 1920754759, 'debug_show_shapes': False, 'debug_draw': False, 'occult': False, 'scale': 1.0, 'area_type': 'RECT', 'width': 12.0, 'height': 14.0, 'num_circ_min': 2, 'num_circ_max': 10, 'circ_rad_min': 0.5, 'circ_rad_max': 2.0, 'num_circ_shaded_min': 0, 'num_circ_shaded_max': 0, 'circ_shaded_rad_min': 0.05, 'circ_shaded_rad_max': 0.5, 'circ_shaded_fill_dist_min': 0.05, 'circ_shaded_fill_dist_max': 0.2, 'num_circ_fill_min': 0, 'num_circ_fill_max': 0, 'circ_fill_rad_min': 0.05, 'circ_fill_rad_max': 0.5, 'num_circ_dash_min': 0, 'num_circ_dash_max': 0, 'circ_dash_rad_min': 0.05, 'circ_dash_rad_max': 0.5, 'num_circ_dot_min': 0, 'num_circ_dot_max': 0, 'circ_dot_rad_min': 0.05, 'circ_dot_rad_max': 0.5, 'circ_dot_dens_min': 400.0, 'circ_dot_dens_max': 800.0, 'circ_dot_dot_rad_min': 0.02, 'circ_dot_dot_rad_max': 0.06, 'num_circ_half_fill_min': 0, 'num_circ_half_fill_max': 0, 'circ_half_fill_rad_min': 0.05, 'circ_half_fill_rad_max': 2.0, 'circ_half_fill_gain_min': 0.4, 'circ_half_fill_gain_max': 0.6, 'num_circ_outer_fill_min': 0, 'num_circ_outer_fill_max': 10, 'circ_outer_fill_rad_min': 0.05, 'circ_outer_fill_rad_max': 2.0, 'circ_outer_fill_gain_min': 0.0, 'circ_outer_fill_gain_max': 0.2, 'num_line_min': 5, 'num_line_max': 8, 'line_length_min': 5.0, 'line_length_max': 13.0, 'num_thick_line_min': 0, 'num_thick_line_max': 0, 'thick_line_length_min': 3.0, 'thick_line_length_max': 7.0, 'num_tri_line_min': 4, 'num_tri_line_max': 8, 'tri_line_length_min': 4.0, 'tri_line_length_max': 10.0, 'tri_line_width_gain_min': 0.02, 'tri_line_width_gain_max': 0.04, 'num_rect_min': 5, 'num_rect_max': 10, 'rect_width_min': 1.0, 'rect_width_max': 4.0, 'rect_height_gain_min': 0.3, 'rect_height_gain_max': 3.0, 'num_rect_shaded_min': 0, 'num_rect_shaded_max': 0, 'rect_shaded_width_min': 0.1, 'rect_shaded_width_max': 1.0, 'rect_shaded_height_gain_min': 0.5, 'rect_shaded_height_gain_max': 2.0, 'rect_shaded_fill_dist_min': 0.05, 'rect_shaded_fill_dist_max': 0.2, 'num_rect_fill_min': 0, 'num_rect_fill_max': 0, 'rect_fill_width_min': 0.1, 'rect_fill_width_max': 1.0, 'rect_fill_height_gain_min': 0.5, 'rect_fill_height_gain_max': 2.0, 'num_rect_dash_min': 0, 'num_rect_dash_max': 0, 'rect_dash_width_min': 0.1, 'rect_dash_width_max': 1.0, 'rect_dash_height_gain_min': 0.5, 'rect_dash_height_gain_max': 2.0, 'num_rect_dot_min': 0, 'num_rect_dot_max': 0, 'rect_dot_width_min': 0.1, 'rect_dot_width_max': 1.0, 'rect_dot_height_gain_min': 0.5, 'rect_dot_height_gain_max': 2.0, 'rect_dot_dens_min': 400.0, 'rect_dot_dens_max': 800.0, 'rect_dot_rad_min': 0.02, 'rect_dot_rad_max': 0.06, 'num_tri_min': 0, 'num_tri_max': 5, 'tri_width_min': 0.5, 'tri_width_max': 4.0, 'tri_height_gain_min': 0.5, 'tri_height_gain_max': 2.0, 'num_tri_shaded_min': 0, 'num_tri_shaded_max': 0, 'tri_shaded_width_min': 0.1, 'tri_shaded_width_max': 1.0, 'tri_shaded_height_gain_min': 0.5, 'tri_shaded_height_gain_max': 2.0, 'tri_shaded_fill_dist_min': 0.05, 'tri_shaded_fill_dist_max': 0.2, 'num_tri_fill_min': 0, 'num_tri_fill_max': 0, 'tri_fill_width_min': 0.4, 'tri_fill_width_max': 1.0, 'tri_fill_height_gain_min': 0.5, 'tri_fill_height_gain_max': 3.0, 'num_tri_dash_min': 0, 'num_tri_dash_max': 0, 'tri_dash_width_min': 0.1, 'tri_dash_width_max': 1.0, 'tri_dash_height_gain_min': 0.5, 'tri_dash_height_gain_max': 2.0, 'num_tri_dot_min': 0, 'num_tri_dot_max': 0, 'tri_dot_width_min': 0.1, 'tri_dot_width_max': 1.0, 'tri_dot_height_gain_min': 0.5, 'tri_dot_height_gain_max': 2.0, 'tri_dot_dens_min': 400.0, 'tri_dot_dens_max': 800.0, 'tri_dot_rad_min': 0.02, 'tri_dot_rad_max': 0.06}</dc:source>
        <dc:date>2023-11-19T21:12:55.415369</dc:date>
      </cc:Work>
    </rdf:RDF>
  </metadata>
  <defs/>
  <g fill="none" id="layer1" inkscape:groupmode="layer" inkscape:label="1" stroke="#0000ff" style="display:inline">
    <polygon points="428.3802,588.4641 432.7389,587.2389 436.61,585.7416 440.6586,583.7147 444.4865,581.2968 448.0561,578.5117 451.3323,575.3866 454.0502,572.2497 456.6767,568.5618 458.925,564.6319 460.7731,560.4986 462.2026,556.2026 463.1997,551.7861 463.7544,547.2926 463.8613,542.7663 463.5194,538.2516 462.8144,534.1613 461.6254,529.7926 460.0094,525.5632 457.9826,521.5146 455.5647,517.6867 452.7795,514.1171 449.6545,510.8409 446.2204,507.8903 442.5109,505.2944 438.8997,503.2482 434.7664,501.4001 430.4704,499.9706 426.054,498.9735 421.5605,498.4188 417.0341,498.3119 412.5195,498.6539 408.4292,499.3588 404.0605,500.5478 399.8311,502.1638 395.7825,504.1906 391.9546,506.6085 388.3849,509.3937 385.1087,512.5187 382.1582,515.9528 379.5622,519.6623 377.3465,523.6107 375.5327,527.7591 374.2384,531.7028 373.2414,536.1192 372.6867,540.6127 372.5798,545.1391 372.9217,549.6538 373.7091,554.1124 374.9343,558.4711 376.4316,562.3421 378.4585,566.3907 380.8764,570.2186 383.6615,573.7883 386.5139,576.8035 389.9235,579.7823 393.6114,582.4088 397.5413,584.6572 401.6746,586.5052 405.9706,587.9348 410.3871,588.9318 414.8806,589.4865 419.4069,589.5934 423.9216,589.2515"/>
    <polygon points="448.8432,640.6756 538.6015,938.4397 546.22,936.036"/>
    <line x1="453.4801" x2="542.5921" y1="654.7404" y2="937.1806"/>
    <line x1="542.9549" x2="462.7541" y1="937.0662" y2="682.87"/>
    <line x1="461.6658" x2="541.8665" y1="683.2134" y2="937.4096"/>
    <line x1="541.5038" x2="470.2142" y1="937.524" y2="711.5718"/>
    <line x1="472.0281" x2="543.3177" y1="710.9995" y2="936.9517"/>
    <line x1="543.6805" x2="481.3021" y1="936.8373" y2="739.1291"/>
    <line x1="478.7626" x2="541.141" y1="739.9303" y2="937.6385"/>
    <line x1="540.7782" x2="487.311" y1="937.7529" y2="768.2888"/>
    <line x1="490.5761" x2="544.0432" y1="767.2587" y2="936.7228"/>
    <line x1="544.406" x2="499.8501" y1="936.6083" y2="795.3882"/>
    <line x1="495.8594" x2="540.4154" y1="796.6473" y2="937.8674"/>
    <line x1="540.0526" x2="504.4078" y1="937.9819" y2="825.0058"/>
    <line x1="509.124" x2="544.7688" y1="823.5178" y2="936.4939"/>
    <line x1="545.1316" x2="518.398" y1="936.3794" y2="851.6473"/>
    <line x1="512.9562" x2="539.6898" y1="853.3643" y2="938.0963"/>
    <line x1="539.3271" x2="521.5047" y1="938.2108" y2="881.7227"/>
    <line x1="527.672" x2="545.4944" y1="879.7769" y2="936.2649"/>
    <line x1="545.8572" x2="536.946" y1="936.1505" y2="907.9065"/>
    <line x1="530.0531" x2="538.9643" y1="910.0812" y2="938.3252"/>
    <line x1="542.2293" x2="453.1174" y1="937.2951" y2="654.8549"/>
    <line x1="468.7236" x2="540.7047" y1="670.817" y2="603.7726"/>
    <line x1="540.4475" x2="492.4601" y1="603.4964" y2="648.1927"/>
    <line x1="495.8037" x2="543.7912" y1="651.7825" y2="607.0863"/>
    <line x1="544.0484" x2="520.0546" y1="607.3624" y2="629.7105"/>
    <line x1="516.1966" x2="540.1903" y1="625.5684" y2="603.2203"/>
    <line x1="540.9619" x2="444.9871" y1="604.0487" y2="693.4412"/>
    <line x1="447.3019" x2="543.2767" y1="695.9265" y2="606.534"/>
    <line x1="543.534" x2="471.5528" y1="606.8101" y2="673.8545"/>
    <line x1="455.9701" x2="243.0526" y1="686.0075" y2="560.9768"/>
    <line x1="270.4255" x2="506.0009" y1="559.8209" y2="976.7455"/>
    <line x1="559.8242" x2="657.1213" y1="781.2077" y2="804.2423"/>
    <line x1="657.0352" x2="592.1704" y1="804.6061" y2="789.2497"/>
    <line x1="593.6346" x2="658.4994" y1="783.065" y2="798.4214"/>
    <line x1="658.5855" x2="626.1531" y1="798.0576" y2="790.3794"/>
    <line x1="624.5167" x2="656.9491" y1="797.2917" y2="804.9699"/>
    <polygon points="656.8629,805.3337 658.6716,797.6938 317.2272,720.8928"/>
    <line x1="657.2075" x2="527.4779" y1="803.8785" y2="773.1657"/>
    <line x1="528.5976" x2="658.3271" y1="768.4363" y2="799.149"/>
    <line x1="658.4133" x2="561.1161" y1="798.7852" y2="775.7507"/>
    <line x1="518.6541" x2="466.4177" y1="733.202" y2="772.769"/>
    <line x1="466.6454" x2="492.7636" y1="773.0696" y2="753.2861"/>
    <line x1="490.2589" x2="464.1406" y1="749.9793" y2="769.7628"/>
    <line x1="464.3684" x2="516.6048" y1="770.0634" y2="730.4964"/>
    <line x1="542.9507" x2="464.5961" y1="711.0136" y2="770.3641"/>
    <line x1="464.8238" x2="569.2966" y1="770.6647" y2="691.5307"/>
    <line x1="570.4351" x2="465.9623" y1="693.0338" y2="772.1678"/>
    <line x1="466.19" x2="544.5446" y1="772.4684" y2="713.1179"/>
    <line x1="596.3256" x2="465.7346" y1="672.9496" y2="771.8671"/>
    <line x1="465.5069" x2="622.2161" y1="771.5665" y2="652.8655"/>
    <line x1="621.9884" x2="465.2792" y1="652.5649" y2="771.2659"/>
    <line x1="465.0515" x2="595.6425" y1="770.9653" y2="672.0478"/>
    <line x1="591.5434" x2="421.556" y1="648.5754" y2="413.3474"/>
    <line x1="442.0741" x2="294.3034" y1="408.3351" y2="835.0996"/>
    <polygon points="333.4914,787.2262 331.984,781.3773 329.9084,775.7051 327.2847,770.2647 324.1384,765.1089 320.5,760.2876 316.4049,755.8478 311.8928,751.8325 307.0075,748.2807 302.1307,745.4025 296.66,742.8425 291.3256,740.9423 285.4685,739.4672 279.4946,738.5755 273.4621,738.276 267.4293,738.5716 261.4549,739.4593 255.5968,740.9307 249.9119,742.9713 244.4555,745.5614 239.2804,748.6759 234.4368,752.2845 229.9719,756.3522 225.9288,760.8395 222.347,765.7028 219.2611,770.895 216.7011,776.3657 214.6918,782.0617 213.2528,787.9278 212.3979,793.907 212.1356,799.9413 212.4683,805.9721 213.3929,811.941 214.9003,817.7899 216.9759,823.462 219.5996,828.9024 222.7458,834.0583 226.3842,838.8795 230.4793,843.3193 234.9914,847.3346 239.8767,850.8864 244.7535,853.7646 250.2242,856.3246 255.9202,858.3339 261.7863,859.7729 267.7655,860.6278 273.7998,860.8901 279.8307,860.5574 285.7995,859.6328 291.6484,858.1254 297.3206,856.0498 302.761,853.4261 307.9168,850.2798 312.738,846.6415 317.1778,842.5464 320.9554,838.3277 324.5372,833.4643 327.6231,828.2721 330.1832,822.8015 332.1924,817.1055 333.6315,811.2394 334.4863,805.2602 334.7486,799.2259 334.4159,793.195"/>
    <line x1="350.0411" x2="541.9907" y1="783.9384" y2="605.1533"/>
    <line x1="542.2479" x2="350.2983" y1="605.4294" y2="784.2145"/>
    <line x1="374.5492" x2="542.5051" y1="762.1425" y2="605.7056"/>
    <line x1="542.7623" x2="398.8001" y1="605.9817" y2="740.0705"/>
    <line x1="398.5235" x2="657.9826" y1="739.1787" y2="800.6042"/>
    <line x1="657.8965" x2="366.0049" y1="800.968" y2="731.8644"/>
    <line x1="365.7466" x2="657.6381" y1="732.9558" y2="802.0594"/>
    <line x1="657.552" x2="398.0928" y1="802.4233" y2="740.9978"/>
    <line x1="397.5141" x2="541.4763" y1="738.6898" y2="604.601"/>
    <line x1="541.2191" x2="421.2506" y1="604.3248" y2="716.0655"/>
    <line x1="423.051" x2="543.0195" y1="717.9985" y2="606.2578"/>
    <line x1="541.7335" x2="373.7776" y1="604.8771" y2="761.3141"/>
    <line x1="333.4003" x2="657.7242" y1="724.9138" y2="801.6956"/>
    <line x1="657.8104" x2="333.4864" y1="801.3318" y2="724.55"/>
    <polygon points="321.8594,707.2186 325.9576,706.5737 329.4872,705.2413 332.6914,703.2497 335.4487,700.6747 337.6544,697.6139 339.2248,694.1835 340.1002,690.5137 340.2475,686.7438 339.661,683.017 338.363,679.4745 336.4028,676.251 333.8548,673.4687 330.8157,671.2332 327.4008,669.6295 323.7397,668.7183 319.9715,668.5343 315.8733,669.1792 312.3437,670.5117 309.1394,672.5032 306.3821,675.0783 304.1764,678.1391 302.6061,681.5694 301.7306,685.2392 301.5834,689.0091 302.1699,692.736 303.4678,696.2784 305.428,699.5019 307.976,702.2842 311.0152,704.5197 314.4301,706.1234 318.0911,707.0346"/>
    <polygon points="300.5724,689.0789 301.1424,692.8072 302.5502,696.7085 304.7188,700.244 307.2754,703.017 310.6234,705.4651 314.041,707.0605 318.0676,708.0551 322.2121,708.2137 325.9378,707.6265 329.8325,706.2005 333.0567,704.2434 335.8649,701.7256 338.3593,698.412 340.1311,694.6619 341.0525,691.0045 341.2688,686.8626 340.6419,682.7627 339.198,678.8746 337.2259,675.6595 334.4146,672.6102 331.37,670.3839 327.9673,668.7569 323.9502,667.7251 319.8073,667.528 315.7103,668.1738 312.1685,669.4705 308.6231,671.6227 305.5868,674.4482 303.3747,677.503 301.7634,680.9132 300.7502,684.9351"/>
    <polygon points="337.8656,679.61 335.8843,676.4058 333.3056,673.6593 330.2324,671.4802 326.7875,669.9554 323.4825,669.1935 319.7177,669.056 316.0007,669.6696 312.819,670.8444 309.5951,672.7936 306.823,675.3447 304.6132,678.3959 303.0541,681.8254 302.2077,685.4964 302.0839,688.8858 302.6603,692.6088 303.9652,696.1429 305.9466,699.3471 308.5253,702.0936 311.2722,704.083 314.686,705.6764 318.3484,706.5594 322.1132,706.6969 325.4649,706.178 329.0119,704.9085 332.2358,702.9593 335.0079,700.4083 337.0247,697.6813 338.6522,694.2837 339.5718,690.6303 339.7469,686.8671 339.1705,683.1441"/>
    <polygon points="336.9337,676.1161 334.427,673.3049 331.1129,670.8206 327.3559,669.0772 323.693,668.1996 319.9304,668.029 315.8376,668.6643 312.3037,669.9675 309.0792,671.9141 306.0274,674.7144 303.8114,677.76 302.2098,681.169 301.2802,684.819 301.056,688.5788 301.6329,692.6803 302.8857,696.2324 304.7862,699.4842 307.5428,702.5756 310.5565,704.8348 314.2968,706.6138 317.9512,707.526 321.712,707.7324 325.8107,707.136 329.3568,705.8663 332.9026,703.7257 335.9277,700.8966 338.1147,697.8301 339.6839,694.4061 340.6298,690.3737 340.7469,686.609 340.1515,682.8898 338.865,679.3498"/>
    <line x1="262.0419" x2="537.2076" y1="718.6716" y2="530.2847"/>
    <polygon points="566.6072,547.4192 570.8446,543.6596 574.9559,539.232 578.6055,534.4165 581.757,529.2614 584.379,523.8178 586.3329,518.5006 587.8596,512.6545 588.7961,506.6854 589.133,500.6526 588.9012,494.9926 588.0721,489.0076 586.6507,483.135 584.6511,477.4333 582.0931,471.9593 579.0024,466.7675 575.6481,462.2026 571.617,457.7017 567.1574,453.625 562.6268,450.2245 557.4667,447.0811 552.019,444.4676 546.6988,442.522 540.8504,441.0044 534.8798,440.0772 529.2243,439.7526 523.1868,439.9904 517.2031,440.8288 511.3327,442.2593 505.6342,444.2679 500.1642,446.8343 494.9772,449.9332 490.4175,453.2945 485.9229,457.3327 481.8532,461.7986 478.4598,466.3346 475.3244,471.4996 472.7194,476.9513 470.6707,482.6356 469.2736,488.1254 468.3558,494.0974 468.0377,500.1312 468.3226,506.1666 469.2076,512.1436 470.5746,517.641 472.592,523.3364 474.9902,528.4685 478.0648,533.6699 481.6424,538.539 485.6876,543.0273 489.8687,546.8493 494.7011,550.4763 499.871,553.6037 504.9784,556.0539 510.653,558.1292 516.5062,559.6285 522.4796,560.537 528.1361,560.844 534.1728,560.5874 539.7828,559.8014 545.6576,558.3891 551.0119,556.5394 556.5057,554.0242 561.7214,550.9741"/>
    <polygon points="510.1697,567.8797 563.261,532.0222 471.5126,396.1776 418.4213,432.0351"/>
    <line x1="493.2908" x2="657.4261" y1="562.8252" y2="677.195"/>
    <polygon points="597.3127,626.7647 503.8868,429.5147 407.4481,475.1921 500.874,672.4421"/>
    <polygon points="544.3056,607.6386 539.9331,602.9441 338.1728,795.2505"/>
    <polygon points="646.2445,589.176 647.697,583.3109 648.5864,577.3345 648.9056,570.9228 648.577,564.5116 647.6789,558.5365 646.2179,552.6735 644.0637,546.6262 641.489,541.1599 638.1984,535.6478 634.6086,530.7876 630.3076,526.0217 625.5483,521.7136 620.6935,518.1164 615.1863,514.8175 609.3747,512.0905 603.3179,509.9631 597.4485,508.5281 591.0933,507.6208 585.0569,507.3562 578.6467,507.7038 572.6743,508.6197 566.4545,510.2089 560.7747,512.2703 554.9835,515.0402 549.8138,518.1681 544.6728,522.0128 540.2112,526.0874 535.9172,530.8596 532.3345,535.725 529.052,541.242 526.4852,546.712 524.3399,552.7625 522.8874,558.6276 521.998,564.604 521.6788,571.0157 521.9701,577.0509 522.9055,583.402 524.3665,589.265 526.5207,595.3123 529.0954,600.7786 532.386,606.2907 535.9758,611.1509 540.2767,615.9168 544.7443,619.9849 549.8909,623.8221 555.0651,626.9424 560.8604,629.7039 566.9045,631.8672 572.7653,633.3371 579.1149,634.2821 585.1497,634.5825 591.1858,634.3091 597.5396,633.3926 603.4069,631.949 609.4606,629.8127 615.2683,627.0772 620.7706,623.7703 625.6201,620.1661 630.3732,615.851 634.4281,611.3714 638.2499,606.2134 641.3549,601.03 644.0991,595.2265"/>
    <polygon points="626.5919,538.075 621.7976,533.2577 616.5425,528.9478 611.2043,525.3827 605.5511,522.3418 599.2791,519.7237 593.1416,517.8429 586.4797,516.4976 579.7161,515.8301 573.2969,515.8282 566.5329,516.4918 560.2365,517.7413 553.7316,519.7106 547.7995,522.1633 541.8032,525.3628 536.463,528.9248 531.4858,532.9786 526.6618,537.7662 522.5703,542.7125 518.772,548.3485 515.7231,553.9974 513.0963,560.2657 511.1141,566.7667 509.8522,573.0606 509.1949,579.4461 509.1644,586.2425 509.7643,592.6335 511.0591,599.3055 513.0194,605.8132 515.4638,611.7487 518.4618,617.4248 522.2093,623.0947 526.5089,628.3583 531.037,632.9082 536.2801,637.2328 541.6083,640.8128 547.2529,643.8696 553.5175,646.5053 559.6497,648.4032 566.3079,649.7672 572.6924,650.4335 579.4887,650.4735 586.2545,649.8289 592.5544,648.5971 599.0648,646.646 605.3456,644.0491 611.3329,640.8329 616.6631,637.2559 621.9086,632.9343 626.4394,628.387 630.517,623.4293 634.2995,617.7827 637.4941,611.7838 639.9419,605.8496 641.9058,599.3431 643.15,593.0457 643.8081,586.2811 643.8009,579.862 643.1278,573.0989 641.8696,566.8043 639.8911,560.3021 637.4301,554.3735 634.4162,548.7058 630.6528,543.0464"/>
    <line x1="605.7039" x2="371.3113" y1="435.7965" y2="149.7921"/>
    <line x1="371.5997" x2="592.2045" y1="149.5558" y2="418.7364"/>
    <line x1="591.6277" x2="371.0229" y1="419.2091" y2="150.0284"/>
    <line x1="370.7345" x2="577.5515" y1="150.2648" y2="402.6217"/>
    <line x1="578.7051" x2="371.8881" y1="401.6763" y2="149.3194"/>
    <line x1="372.1765" x2="565.2057" y1="149.0831" y2="384.6161"/>
    <line x1="563.4753" x2="370.4462" y1="386.0342" y2="150.5011"/>
    <line x1="370.1578" x2="549.3992" y1="150.7375" y2="369.4468"/>
    <line x1="551.7063" x2="372.4649" y1="367.556" y2="148.8467"/>
    <line x1="372.7533" x2="538.2069" y1="148.6104" y2="350.4959"/>
    <line x1="535.323" x2="369.8694" y1="352.8593" y2="150.9738"/>
    <line x1="369.581" x2="521.2468" y1="151.2102" y2="336.2719"/>
    <line x1="524.7074" x2="373.0417" y1="333.4357" y2="148.374"/>
    <line x1="373.33" x2="511.208" y1="148.1377" y2="316.3756"/>
    <line x1="507.1706" x2="369.2926" y1="319.6844" y2="151.4465"/>
    <line x1="369.0042" x2="493.0944" y1="151.6829" y2="303.097"/>
    <line x1="497.7086" x2="373.6184" y1="299.3154" y2="147.9013"/>
    <line x1="373.9068" x2="484.2092" y1="147.665" y2="282.2553"/>
    <line x1="479.0182" x2="368.7158" y1="286.5095" y2="151.9192"/>
    <line x1="368.4274" x2="464.942" y1="152.1556" y2="269.9221"/>
    <line x1="470.7098" x2="374.1952" y1="265.1952" y2="147.4286"/>
    <line x1="374.4836" x2="457.2104" y1="147.1923" y2="248.135"/>
    <line x1="450.8658" x2="368.139" y1="253.3347" y2="152.3919"/>
    <line x1="367.8507" x2="436.7897" y1="152.6283" y2="236.7472"/>
    <line x1="443.711" x2="374.772" y1="231.0749" y2="146.9559"/>
    <line x1="375.0604" x2="430.2116" y1="146.7196" y2="214.0148"/>
    <line x1="422.7135" x2="367.5623" y1="220.1598" y2="152.8646"/>
    <line x1="367.2739" x2="408.6373" y1="153.101" y2="203.5723"/>
    <line x1="416.7122" x2="375.3488" y1="196.9546" y2="146.4832"/>
    <line x1="375.6372" x2="403.2128" y1="146.2469" y2="179.8945"/>
    <line x1="394.5611" x2="366.9855" y1="186.9849" y2="153.3373"/>
    <line x1="366.6971" x2="380.4849" y1="153.5736" y2="170.3974"/>
    <line x1="389.7133" x2="375.9255" y1="162.8343" y2="146.0106"/>
    <polygon points="376.2139,145.7742 366.4087,153.81 605.7039,435.7965"/>
    <polygon points="373.3644,248.3546 368.1374,249.1395 362.644,250.5144 357.6635,252.2843 352.5345,254.6843 347.6692,257.582 343.1159,260.9489 338.9197,264.7514 335.1221,268.9521 331.7606,273.5093 328.8686,278.378 326.4746,283.5099 324.6024,288.8543 323.3421,293.9874 322.5264,299.5912 322.271,304.8706 322.5419,310.5269 323.3735,316.1284 324.7575,321.6195 326.6803,326.9459 329.1228,332.0549 332.0608,336.8959 335.4652,341.4211 339.0339,345.3201 343.2409,349.1107 347.8037,352.4646 352.6771,355.3486 357.4634,357.591 362.7984,359.4898 368.2957,360.8492 373.9008,361.6556 379.5583,361.9011 384.8365,361.622 390.4366,360.7811 395.564,359.4978 400.8999,357.6015 406.021,355.1845 410.8766,352.2706 415.1266,349.1281 419.3354,345.3395 423.1469,341.1514 426.5235,336.6054 429.4316,331.7464 431.6979,326.9712 433.6232,321.6458 435.0099,316.1553 435.8442,310.5543 436.1178,304.8981 435.8282,299.2427 435.052,294.0144 433.6862,288.5187 431.7811,283.186 429.3556,278.0689 426.6433,273.5322 423.2841,268.9734 419.7544,265.0391 415.5853,261.2068 411.0561,257.8076 406.2116,254.8753 401.0998,252.4389 395.7711,250.5224 390.2784,249.1448 384.676,248.3198 379.0193,248.0555"/>
    <polygon points="339.7973,256.7642 335.0443,261.075 330.9984,265.559 327.4059,270.414 324.3007,275.5941 321.712,281.0508 319.5546,287.0939 318.1024,292.9563 317.225,298.9317 316.9307,304.9641 317.2222,310.9966 318.0968,316.9725 319.5462,322.8356 321.5569,328.5306 324.1099,334.004 327.3897,339.5192 330.9798,344.3758 335.2906,349.1288 339.7747,353.1748 344.6296,356.7672 350.1432,360.0496 355.6155,362.6052 361.3095,364.6185 367.1719,366.0707 373.1474,366.9481 379.1798,367.2425 385.588,366.9133 391.5585,366.0025 397.4126,364.5175 403.0954,362.4724 408.5532,359.8862 413.7348,356.7835 418.5914,353.1933 423.3445,348.8825 427.3904,344.3985 430.9829,339.5435 434.2653,334.0299 436.8208,328.5577 438.8342,322.8636 440.2864,317.0013 441.1638,311.0258 441.4581,304.9934 441.1666,298.9609 440.292,292.985 438.8426,287.122 436.8319,281.4269 434.1019,275.6199 430.9991,270.4383 427.4089,265.5817 423.0982,260.8287 418.6141,256.7828 413.7592,253.1903 408.579,250.0851 403.1224,247.4964 397.4406,245.4486 391.2169,243.8868 385.2414,243.0094 379.209,242.715 373.1765,243.0065 367.2006,243.8811 361.3376,245.3306 355.6426,247.3413 349.8356,250.0713 344.654,253.174"/>
    <polygon points="339.6987,257.3775 335.2439,261.457 331.2083,265.9516 327.6303,270.8184 324.5441,276.011 321.9791,281.4798 319.9598,287.1728 318.5055,293.0356 317.6299,299.0123 317.3415,305.0459 317.643,311.0788 318.6064,317.4238 320.1092,323.2744 322.1756,328.9504 324.7857,334.3979 327.9148,339.5647 331.5329,344.4017 335.6056,348.8627 340.094,352.9052 344.9553,356.4906 350.1432,359.5847 355.6081,362.1581 361.298,364.1861 367.1586,365.6494 373.1339,366.5341 379.1671,366.8317 385.2005,366.5394 391.1766,365.66 397.0385,364.2018 403.079,362.0341 408.5304,359.4323 413.702,356.3111 418.5446,352.7003 423.0118,348.6345 427.0611,344.1522 430.6539,339.2964 433.756,334.1133 436.3376,328.6523 438.3743,322.9655 439.8466,317.1072 440.7768,310.7573 441.0468,304.7228 440.7269,298.6908 439.8201,292.7188 438.3351,286.8636 436.2861,281.1813 433.6926,275.7259 430.5793,270.5495 426.976,265.7015 422.9169,261.2281 418.4409,257.1719 413.5905,253.5717 408.4122,250.4617 402.9551,247.8717 396.9099,245.7171 391.0449,244.2717 385.0669,243.4052 379.0329,243.126 373.0004,243.4368 367.0269,244.3344 360.8086,245.9216 355.1357,247.9966 349.6923,250.6151 344.5302,253.752"/>
    <polygon points="331.657,266.0515 328.0638,270.9083 324.9649,276.0944 322.3904,281.5598 320.3651,287.2517 318.9085,293.1149 318.0348,299.0928 317.7524,305.1277 318.0641,311.1611 318.9667,317.1347 320.4517,322.9908 322.5046,328.6727 325.1056,334.1256 328.2295,339.2967 331.8462,344.1359 335.9206,348.5966 340.4135,352.6356 345.2812,356.2139 350.4769,359.2967 355.9502,361.8545 361.6482,363.8623 367.5159,365.3008 373.4965,366.1561 379.5322,366.42 385.5646,366.0898 391.5354,365.1688 397.3869,363.6658 403.0625,361.5955 408.5074,358.9777 413.3555,356.0489 418.2058,352.4471 422.679,348.3864 426.7318,343.906 430.325,339.0492 433.4238,333.8631 435.9984,328.3977 438.0237,322.7058 439.4803,316.8426 440.354,310.8647 440.6364,304.8299 440.3616,299.1724 439.4956,293.1933 438.0467,287.3282 436.0288,281.6338 433.4614,276.165 430.3693,270.9748 426.7824,266.1134 422.7355,261.6277 418.2676,257.5612 413.4219,253.9531 408.2453,250.8384 402.7878,248.247 397.1022,246.2042 391.2435,244.7296 385.2683,243.8376 379.2344,243.5366 373.2,243.8297 367.2237,244.714 361.363,246.181 355.6748,248.2164 350.214,250.8006 345.0333,253.9086 340.1829,257.5104 335.7097,261.5711"/>
    <polygon points="335.9905,269.8372 332.8521,274.0936 330.1315,278.6285 327.7081,283.7498 325.8176,289.0909 324.5513,294.2254 323.7777,299.4568 323.5034,305.1159 323.8055,310.7737 324.6049,316.0012 326.0074,321.4907 327.8133,326.4611 330.0826,331.2378 333.0048,336.0919 336.1642,340.3327 339.9789,344.5218 343.9065,348.0632 348.4666,351.4256 353.3448,354.3073 358.1402,356.5368 363.1255,358.3013 368.2557,359.5851 373.4845,360.3764 379.1426,360.6699 384.8013,360.3869 390.0316,359.6053 395.5258,358.2215 400.5023,356.4324 405.2867,354.1793 410.1506,351.2737 414.6942,347.8888 418.6042,344.3281 422.1588,340.4127 425.5367,335.8639 428.2573,331.3291 430.6807,326.2077 432.4621,321.2285 433.8375,315.7322 434.6473,310.1246 434.8854,304.8416 434.6213,299.5598 433.7839,293.9563 432.3814,288.4668 430.5755,283.4964 428.3062,278.7197 425.384,273.8657 421.9837,269.3336 418.4098,265.4357 414.4823,261.8944 409.9222,258.5319 405.044,255.6502 400.2486,253.4208 394.9011,251.5484 389.7623,250.2995 384.5283,249.5436 379.2462,249.2876 373.5875,249.5706 368.3572,250.3522 362.863,251.736 357.8865,253.5251 352.7689,255.9564 348.2382,258.6839 343.6946,262.0687 339.7846,265.6294"/>
    <polygon points="332.6282,273.6894 329.7103,278.5449 327.2968,283.6698 325.4125,289.012 324.1482,294.146 323.3729,299.3763 323.0925,305.0341 323.3841,310.6914 324.1697,315.9201 325.4441,321.0516 327.339,326.3901 329.7626,331.5103 332.6901,336.3599 335.8509,340.5986 339.6639,344.7879 343.8799,348.5714 348.1407,351.7024 353.0108,354.5958 357.7981,356.8404 362.7755,358.6243 368.269,360.0066 373.498,360.7908 379.1553,361.0807 384.8131,360.7986 390.4135,359.9475 395.5385,358.6472 400.8674,356.7254 405.6426,354.4552 410.4972,351.5358 415.0327,348.1418 418.9369,344.5762 422.4882,340.6589 425.8656,336.1111 428.7672,331.2459 431.0199,326.4623 432.9222,321.1265 434.2038,315.9968 435.0344,310.3932 435.2958,304.7345 435.0236,299.4541 434.1819,293.8522 432.7795,288.3637 430.9774,283.3929 428.7153,278.6139 425.8041,273.7544 422.4177,269.2132 418.8587,265.3029 414.9474,261.7451 410.4053,258.36 405.8779,255.6288 400.7652,253.1895 395.4326,251.2782 390.305,249.988 384.7029,249.1479 379.4224,248.8773 374.1399,249.105 368.5311,249.8995 363.3932,251.148 358.0452,253.0159 352.9129,255.4135 348.0485,258.3166 343.5017,261.6953 339.5854,265.2477 336.021,269.153"/>
    <polygon points="324.2986,282.3202 322.2809,288.0135 320.9238,293.5115 320.0965,299.1138 319.8064,305.1471 320.0924,310.8029 320.9897,316.7761 322.378,322.2664 324.2829,327.5994 326.8647,333.0601 329.7773,337.9167 333.1392,342.4739 337.1861,346.9581 341.3755,350.7684 346.2223,354.3731 351.4101,357.4668 356.5358,359.8746 361.8675,361.7832 367.7271,363.2494 373.3294,364.0767 379.3627,364.3667 385.0185,364.0807 390.6214,363.2573 396.482,361.7951 401.815,359.8902 407.2758,357.3085 412.1324,354.3959 416.6895,351.0339 421.1737,346.9871 424.984,342.7977 428.5887,337.9509 431.5047,333.0963 434.0902,327.6374 436.1078,321.944 437.465,316.446 438.3284,310.4678 438.5824,304.8104 438.2581,298.7789 437.3991,293.1814 435.8997,287.3302 433.9609,282.0094 431.5241,276.8974 428.401,271.7272 425.0102,267.1915 420.9349,262.7332 416.7213,258.9495 411.8517,255.3758 406.9787,252.4907 401.853,250.083 396.1597,248.0653 390.6617,246.7082 385.0594,245.8809 379.0261,245.5908 372.9945,245.915 367.397,246.7741 361.9068,248.1624 356.5737,250.0673 351.113,252.6491 346.2564,255.5617 341.4072,259.163 337.2151,262.9704 333.4047,267.1599 329.8001,272.0066 326.7064,277.1945"/>
    <polygon points="322.7954,287.7308 321.3268,293.5908 320.5013,299.1943 320.2175,305.2289 320.5134,310.8851 321.4255,316.8571 322.9437,322.7045 324.9035,328.0186 327.3639,333.1202 330.3024,337.9623 333.6919,342.5002 337.501,346.692 341.9869,350.7384 346.548,354.0965 351.4102,357.0016 356.5286,359.4269 361.8561,361.3501 367.7138,362.828 373.6919,363.699 379.3501,363.956 385.0068,363.6691 390.9802,362.7666 396.4692,361.3695 401.7988,359.4524 406.92,357.0328 412.0996,353.9235 416.6429,350.5413 421.1075,346.4713 424.8944,342.2595 428.2598,337.7038 431.1727,332.8462 433.6062,327.7317 435.5378,322.4073 437.0252,316.552 437.8686,310.9512 438.171,305.2953 437.8939,299.2604 437.0747,293.656 435.7217,288.156 433.7041,282.4616 431.1147,277.0034 428.1917,272.1519 424.8168,267.6032 421.0212,263.3992 416.8398,259.5787 411.9979,255.9658 407.145,253.0452 401.6857,250.4583 396.352,248.5522 390.8602,247.1666 385.2607,246.3141 379.6053,246.0028 373.9461,246.2353 367.9643,247.0804 362.1003,248.533 356.7645,250.433 351.3022,253.0137 346.4461,255.9289 341.6001,259.5364 337.4144,263.3522 333.614,267.5519 330.0244,272.4111 327.1271,277.2779 324.71,282.4002"/>
    <polygon points="321.318,310.6737 322.1469,316.2786 323.5172,321.7762 325.416,327.1145 327.8252,332.2426 330.7221,337.1119 334.079,341.6762 338.1308,346.1599 342.333,349.9604 346.8851,353.3339 351.7439,356.2484 356.8632,358.6763 362.1945,360.5945 367.6871,361.9848 373.665,362.8712 379.3248,363.1345 384.9833,362.8458 390.5869,362.0078 396.0823,360.6286 401.4174,358.7211 406.5416,356.3036 411.4062,353.3988 415.9651,350.0345 420.175,346.2425 423.9958,342.0589 427.3915,337.5233 430.5086,332.3459 432.9281,327.2227 434.8377,321.8883 436.219,316.3934 437.0592,310.7902 437.3501,305.1318 437.0889,299.4719 436.2783,293.8643 434.8167,288.0005 432.9006,282.6685 430.4747,277.5482 427.5621,272.6883 424.1903,268.1349 420.3915,263.9312 416.2017,260.1171 411.6606,256.7289 406.8113,253.7986 401.351,251.209 396.0135,249.3081 390.5164,247.9356 384.9118,247.1046 379.2529,246.8229 373.2175,247.1308 367.6167,247.987 362.1258,249.3841 356.7969,251.3089 351.6806,253.7431 346.8254,256.6636 342.2775,260.0427 338.08,263.8484 334.2727,268.0444 330.8918,272.591 327.9694,277.445 325.3887,282.9095 323.4965,288.2501 322.133,293.7494 321.311,299.3554 321.0385,305.0147"/>
    <polygon points="323.9701,321.8539 325.8901,327.1856 328.3234,332.3034 331.2466,337.158 334.6316,341.7028 338.4458,345.8939 342.6524,349.6909 347.2109,353.0574 352.0775,355.9608 357.2051,358.3732 362.5446,360.2714 368.0444,361.6371 373.6516,362.4572 379.3121,362.7237 384.9716,362.4341 390.5754,361.5912 396.0696,360.2031 401.4012,358.2831 406.519,355.8498 411.3737,352.9265 415.9184,349.5415 420.1095,345.7274 423.9066,341.5208 427.273,336.9622 430.1764,332.0957 432.5888,326.968 434.4871,321.6286 435.8528,316.1288 436.6728,310.5216 436.9394,304.861 436.6498,299.2016 435.8068,293.5978 434.4187,288.1036 432.4987,282.7719 430.0654,277.6541 427.1422,272.7995 423.7571,268.2547 419.943,264.0636 415.7364,260.2666 411.1779,256.9002 406.3113,253.9967 401.1836,251.5843 395.8442,249.6861 390.3444,248.3204 384.7372,247.5003 379.0766,247.2338 373.4172,247.5234 367.8134,248.3663 362.3192,249.7545 356.9876,251.6744 351.8698,254.1078 347.0151,257.031 342.4704,260.416 338.2793,264.2302 334.4822,268.4368 331.1158,272.9953 328.2124,277.8618 325.7999,282.9895 323.9017,288.329 322.536,293.8288 321.7159,299.436 321.4494,305.0965 321.739,310.7559 322.582,316.3597"/>
    <polygon points="327.9988,325.8337 330.2263,330.6311 333.1097,335.5094 336.2385,339.774 339.7606,343.7201 343.6437,347.3116 348.1643,350.7286 352.6787,353.4848 357.7838,355.9445 362.7527,357.7575 368.2423,359.1634 373.471,359.962 378.752,360.2574 384.0371,360.0466 389.6492,359.2615 395.1515,357.906 400.1368,356.1387 405.2643,353.7259 409.8038,351.0112 414.3555,347.6357 418.2714,344.08 422.069,339.8741 425.2078,335.6168 427.9253,331.0789 430.3413,325.953 432.1117,320.9688 433.3976,315.8382 434.1874,310.6082 434.4737,305.3267 434.2188,299.6656 433.4592,294.4312 432.0943,288.9312 430.3184,283.9489 428.0745,279.1592 425.1744,274.2908 422.0311,270.0368 418.4955,266.1028 414.6002,262.5247 410.0679,259.1231 405.2112,256.2033 400.4306,253.9401 395.4555,252.1442 389.9612,250.757 384.3536,249.9397 379.0699,249.6985 373.4112,250.0017 368.1834,250.8061 363.0565,252.1064 358.0772,253.8908 352.958,256.321 348.4278,259.0512 344.1793,262.2019 339.984,266.0113 336.4393,269.9371 333.286,274.1836 330.3746,279.0453 328.1195,283.8298 326.3321,288.8079 324.9543,294.3047 324.1825,299.5373 323.9143,304.8198 324.1884,310.48 324.966,315.7118 326.24,320.8454"/>
    <polygon points="373.4696,365.3284 379.1291,365.5993 385.1653,365.3046 391.1421,364.4103 397.0002,362.9254 402.6813,360.8645 407.7964,358.4276 412.9761,355.3141 417.82,351.7004 422.28,347.6224 426.3119,343.1206 429.6671,338.5549 432.7594,333.3626 435.1755,328.2376 437.2131,322.5481 438.6742,316.684 439.544,310.7035 439.8142,304.6662 439.4818,298.632 438.6259,293.0311 437.2508,287.5345 435.2255,281.8406 432.6432,276.3767 429.5298,271.1971 426.1559,266.6451 422.1058,262.1598 417.6291,258.0999 412.7705,254.506 407.5782,251.4137 402.1038,248.8538 396.7637,246.96 390.8996,245.499 384.9192,244.6291 378.8818,244.359 372.8476,244.6913 367.2467,245.5472 361.7501,246.9223 356.0563,248.9477 350.5923,251.5299 345.4127,254.6434 340.5688,258.2571 336.1087,262.3351 332.3156,266.544 328.7217,271.4026 325.6294,276.5949 323.0694,282.0693 321.0673,287.7714 319.7146,293.2735 318.8447,299.254 318.5739,304.9134 318.8686,310.9496 319.7629,316.9265 321.2478,322.7846 323.3086,328.4657 325.7456,333.5808 328.859,338.7605 332.4727,343.6044 336.5507,348.0644 340.7596,351.8576 345.6183,355.4515 350.8106,358.5438 356.285,361.1037 361.6251,362.9975 367.4892,364.4585"/>
    <polygon points="415.4656,349.3817 419.6683,345.5877 423.4763,341.3977 426.8524,336.8525 429.7638,331.9965 432.182,326.877 434.0835,321.544 435.4497,316.0494 436.2301,310.8227 436.5284,305.1687 436.2675,299.5128 435.4501,293.9102 434.0841,288.4156 432.1828,283.0825 429.7648,277.9629 426.8536,273.1068 423.4776,268.5615 419.6698,264.3714 415.4673,260.5772 410.911,257.2161 406.3785,254.4986 401.267,252.0636 395.9403,250.1445 390.4503,248.7602 385.2261,247.9626 379.5731,247.6457 373.9164,247.8879 368.3112,248.6869 362.8121,250.0348 357.4727,251.9185 352.3452,254.3197 347.4796,257.2148 342.9232,260.5758 338.7205,264.3698 334.9125,268.5598 331.5364,273.105 328.625,277.961 326.2068,283.0805 324.3053,288.4135 322.9391,293.9081 322.1214,299.5106 321.8604,305.1665 322.1585,310.8205 323.0128,316.4176 324.4149,321.9031 326.3513,327.2235 328.624,331.9946 331.5352,336.8507 334.9111,341.396 338.719,345.5862 342.6298,349.1405 347.1639,352.5315 352.0103,355.4589 357.1217,357.894 362.4485,359.813 367.9385,361.1973 373.1627,361.9949 378.8157,362.3118 384.4724,362.0696 390.0776,361.2707 395.5767,359.9227 400.916,358.039 406.0435,355.6379 410.9092,352.7427"/>
    <polygon points="431.5031,326.3677 433.2729,321.3862 434.6436,315.8908 435.4574,310.2858 435.706,304.6274 435.4259,299.3484 434.58,293.7481 433.2882,288.6219 431.3793,283.2895 428.9462,278.1749 426.0134,273.3296 422.6103,268.8021 418.7711,264.6381 414.8284,261.1164 410.259,257.7699 405.7118,255.0737 400.5833,252.67 395.6019,250.9003 390.1064,249.5295 384.5014,248.7158 378.8431,248.4671 373.1883,248.7861 367.9637,249.5932 362.4763,250.9955 357.1568,252.94 352.3905,255.227 347.5452,258.1598 343.0178,261.5629 339.1192,265.1333 335.5712,269.0524 332.1942,273.5993 329.4677,278.1284 327.0298,283.2407 325.1159,288.5713 323.7452,294.0667 322.9681,299.2958 322.6817,304.9523 322.9628,310.6092 323.8088,316.2094 325.2111,321.6969 327.0095,326.6681 329.4426,331.7826 332.1649,336.3143 335.5377,340.8644 339.3489,345.054 343.268,348.6019 347.8149,351.9789 352.677,354.8838 357.4563,357.1433 362.7869,359.0573 368.2824,360.428 373.5114,361.205 379.168,361.4915 384.8248,361.2103 390.425,360.3643 395.9125,358.962 400.8837,357.1636 405.9983,354.7306 410.5299,352.0082 415.08,348.6355 419.2696,344.8243 423.0567,340.6128 426.1946,336.3583 429.0995,331.4961"/>
    <polygon points="436.4589,322.2038 437.9042,316.34 438.7507,310.3604 438.9928,304.7034 438.66,298.6733 437.7971,293.0773 436.2978,287.2271 434.3629,281.9058 431.9333,276.7914 428.8213,271.6157 425.203,266.7803 421.384,262.6 417.1867,258.7997 412.3351,255.2031 407.4788,252.2918 402.0203,249.7076 396.329,247.6872 390.8336,246.3234 385.2338,245.4855 379.2023,245.1798 373.5464,245.4471 367.5706,246.3204 362.0748,247.6827 356.383,249.7016 351.2572,252.1069 346.0668,255.1944 341.2142,258.7897 336.7491,262.8561 332.7169,267.3521 329.3665,271.9166 326.4629,276.7776 323.8873,282.2401 321.9846,287.573 320.5207,293.4322 319.6553,299.4091 319.3972,305.4429 319.749,311.4719 320.6296,317.0652 322.0352,322.5501 324.099,328.2258 326.7248,333.6644 329.6731,338.4983 333.3066,343.3223 337.1388,347.4905 341.6412,351.5156 346.211,354.8588 351.4103,357.9312 356.5431,360.3217 361.879,362.216 367.7404,363.6706 373.7188,364.5265 379.3753,364.7775 385.406,364.4543 391.0033,363.6002 396.8559,362.1101 402.1802,360.1836 407.2984,357.7621 412.4791,354.6583 417.3202,351.0477 421.5065,347.2352 425.5529,342.7519 429.1264,337.8834 432.1907,332.6792 434.573,327.5427"/>
    <polygon points="438.3073,316.4192 439.1565,310.4348 439.4014,304.3954 439.0395,298.3619 438.1523,292.7649 436.6307,286.9152 434.678,281.5953 432.054,276.1503 429.1096,271.3084 425.723,266.7648 421.6571,262.2923 417.4559,258.4892 412.602,254.8873 407.4114,251.7902 401.9364,249.2292 396.5944,247.338 390.7276,245.8839 384.7445,245.0253 379.0834,244.7691 373.0473,245.0836 367.073,246.0017 361.582,247.4025 355.8981,249.4585 350.7815,251.8946 345.6024,255.0108 341.0535,258.3903 336.5746,262.4491 332.5253,266.9365 329.1554,271.4926 326.0502,276.6783 323.6249,281.8 321.581,287.4883 320.1177,293.3529 319.2863,298.9584 318.9846,304.9952 319.2896,311.0319 320.1984,317.0076 321.7017,322.862 323.6376,328.1879 326.2446,333.6412 329.1738,338.4923 332.5461,343.0465 336.5979,347.5318 340.7872,351.348 345.6298,354.9651 350.8106,358.0785 356.2775,360.6567 361.9754,362.6739 367.4758,364.0372 373.0801,364.8773 379.1164,365.1885 385.1535,364.8929 391.1306,363.9936 396.626,362.61 402.3164,360.5719 407.7737,357.9735 412.943,354.841 417.7723,351.2061 421.9474,347.3745 425.9827,342.8743 429.5464,337.9923 432.6027,332.7776 434.9796,327.6333 436.8624,322.2883"/>
    <polygon points="441.9506,298.544 441.0469,292.5684 439.4651,286.3455 437.4055,280.6638 434.6324,274.8726 431.4972,269.706 427.6409,264.5722 423.5521,260.1218 419.0563,256.0831 413.8796,252.2845 408.6782,249.2073 403.2063,246.642 397.5139,244.612 391.2828,243.0625 384.9265,242.1544 378.8886,241.8942 372.4777,242.2521 366.5063,243.1826 360.6514,244.6803 354.9666,246.7313 349.5042,249.3169 344.0,252.6232 338.8604,256.4718 334.4039,260.5539 330.3585,265.0437 326.5521,270.2147 323.291,275.7457 320.7503,281.2292 318.7459,286.9306 317.2963,292.7976 316.4147,298.7765 316.1095,305.1901 316.4192,311.2256 317.305,317.2038 318.7587,323.0698 320.9107,329.1193 323.4881,334.5856 326.7862,340.0947 330.3868,344.9485 334.4354,349.4354 338.8948,353.5143 344.0371,357.3593 349.2107,360.4831 355.0079,363.2434 361.0557,365.4001 366.9206,366.8585 372.8981,367.7491 379.3112,368.0639 385.7232,367.7253 391.6973,366.8127 397.9179,365.2215 403.5965,363.1534 409.0512,360.5515 414.5454,357.2287 419.3829,353.6063 423.8516,349.5376 428.1497,344.7674 431.7323,339.9004 435.0099,334.3791 437.5671,328.9033 439.5885,323.2079 441.1287,316.9745 441.9923,310.993 442.2797,304.9564"/>
    <polygon points="436.6765,293.7601 435.3238,288.2591 433.4459,282.9145 430.8838,277.4423 427.9817,272.5773 424.623,268.0154 420.5729,263.5315 416.375,259.7277 411.8292,256.3473 406.9782,253.4219 401.5183,250.8336 396.1828,248.9302 390.6883,247.551 385.0863,246.7092 379.4292,246.4126 373.7698,246.6639 367.7904,247.5331 362.2938,248.9036 356.6062,250.9433 351.4914,253.3784 346.6357,256.2963 342.0847,259.6696 337.6139,263.7342 333.8237,267.9443 330.4579,272.5009 327.3711,277.6952 324.9775,282.8296 323.0913,288.1712 321.7299,293.6701 320.8706,299.651 320.6287,305.3107 320.9347,310.9673 321.7858,316.568 323.2854,322.4212 325.2321,327.7411 327.6837,332.848 330.6172,337.6943 334.0051,342.2344 337.8159,346.426 342.3065,350.4687 346.8739,353.8197 351.7438,356.7138 356.8705,359.1239 362.206,361.0274 367.7005,362.4065 373.3025,363.2483 378.9596,363.5449 384.619,363.2937 390.5984,362.4244 396.4564,360.9437 401.7825,359.0142 406.8974,356.5791 411.753,353.6613 416.3041,350.288 420.5079,346.4907 424.5651,342.0132 427.9309,337.4566 430.8406,332.5961 433.4112,327.1279 435.2975,321.7863 436.6589,316.2874 437.4826,310.6827 437.761,305.0246 437.4915,299.3661"/>
    <polygon points="413.2532,254.3347 408.0784,251.215 402.6205,248.6224 396.933,246.5821 391.0716,245.1143 385.0938,244.2332 379.0581,243.9476 373.0238,244.2601 367.05,245.1679 361.1952,246.6619 355.5169,248.7275 350.0706,251.3445 345.223,254.276 340.3758,257.8837 335.9092,261.953 331.8668,266.4441 328.2883,271.3128 325.386,276.178 322.8018,281.6399 320.7704,287.3306 319.3116,293.1942 318.4398,299.1734 318.1635,305.2095 318.4854,311.2433 319.4024,317.2157 320.9055,323.0682 322.9799,328.7433 325.4255,333.8532 328.5443,339.0286 332.1594,343.8702 336.2357,348.3305 340.733,352.366 345.6073,355.9369 350.8108,359.0084 355.9428,361.4074 361.6366,363.43 367.5025,364.8797 373.4831,365.7423 379.5196,366.0093 385.5529,365.678 391.5238,364.7518 397.374,363.2396 403.0459,361.1564 408.1521,358.7029 413.3226,355.5761 418.1585,351.9535 422.6126,347.8703 426.6411,343.3668 429.9961,338.8021 433.0917,333.6129 435.6589,328.143 437.5635,322.8077 439.0404,316.9486 439.8925,311.348 440.2248,305.3148 439.9589,299.2782 439.0974,293.2975 437.6488,287.4314 435.6272,281.7372 433.0524,276.2708 429.9497,271.0859 426.3495,266.2331 422.2871,261.7602 418.0941,257.9507"/>
    <polygon points="413.7112,252.6655 408.5114,249.5838 402.689,246.8746 396.9826,244.8816 391.1107,243.4475 384.7517,242.5511 378.7123,242.3061 372.6773,242.644 366.703,243.5617 360.8448,245.0506 355.1573,247.0969 349.6934,249.6815 344.1897,252.9906 339.0535,256.8456 334.6036,260.9361 330.5684,265.4364 326.9854,270.3044 323.888,275.4949 321.3051,280.9596 319.1511,287.0095 317.6994,292.8769 316.8196,298.857 316.5206,305.2719 316.8403,311.3079 317.7399,317.285 319.3218,323.5089 321.3853,329.1903 323.9864,334.6464 327.101,339.8266 330.9404,344.9743 335.0175,349.4366 339.5056,353.4854 344.3627,357.083 349.5439,360.196 355.0008,362.7954 360.6827,364.8571 366.9072,366.437 372.8846,367.3348 378.9207,367.6527 385.3355,367.3517 391.3152,366.47 397.1823,365.0165 402.882,363.0045 408.3614,360.4529 413.885,357.177 419.0443,353.3531 423.5188,349.2895 427.5811,344.8137 431.1933,339.9674 434.322,334.7956 437.0837,328.9979 439.1282,323.3098 440.6894,317.0806 441.5692,311.1005 441.8682,304.6856 441.5485,298.6497 440.6489,292.6726 439.067,286.4486 437.0035,280.7673 434.2225,274.9788 431.0767,269.8175 427.4484,264.9832 423.1024,260.2554 418.59,256.2337"/>
    <line x1="492.5977" x2="108.5311" y1="375.2857" y2="362.9685"/>
    <line x1="168.275" x2="138.4517" y1="331.8075" y2="659.6117"/>
    <polygon points="296.3578,578.219 301.6893,581.0672 306.9278,583.229 312.3496,584.8783 318.2784,586.0556 324.2965,586.6202 329.9635,586.5878 335.6012,586.0119 341.1577,584.8978 346.5817,583.2559 351.8232,581.1013 357.1585,578.2603 361.872,575.1141 366.262,571.5303 370.5424,567.2625 374.1392,562.8831 377.4938,557.8548 380.1561,552.8521 382.4529,547.2609 384.0762,541.8313 385.225,535.8969 385.7607,529.8761 385.7011,524.2094 385.0981,518.5745 383.9573,513.0234 382.2894,507.6074 380.1096,502.3763 377.438,497.3784 374.0742,492.3563 370.4694,487.9836 366.181,483.7237 361.7845,480.148 357.0652,477.0105 351.7246,474.1794 346.4792,472.0344 340.6851,470.3123 335.1196,469.2441 329.4774,468.7148 323.8103,468.729 317.797,469.3433 312.2441,470.4751 306.4702,472.2635 301.2496,474.4684 296.2647,477.1639 291.5613,480.3252 286.9035,484.1776 282.916,488.2045 279.3333,492.5954 276.1882,497.3096 273.5099,502.3038 271.323,507.5319 269.6477,512.9457 268.4419,518.8688 267.8673,524.5067 267.8535,530.5512 268.4023,536.1916 269.4897,541.7534 271.2317,547.5415 273.3947,552.7795 276.0503,557.7859 279.398,562.8187 282.9888,567.203 286.9837,571.2225 291.6486,575.0664"/>
    <polygon points="300.3256,583.5201 305.9057,585.8374 311.6855,587.5987 317.6096,588.7874 323.6214,589.3919 330.0409,589.3879 336.052,588.7758 341.9746,587.5798 347.7521,585.8112 353.3293,583.4869 358.653,580.6292 363.6722,577.2654 368.339,573.4276 372.6087,569.1525 376.4407,564.4809 379.7983,559.4575 382.6493,554.1303 384.9666,548.5501 386.7279,542.7704 387.9166,536.8463 388.5211,530.8345 388.5358,524.7923 387.9605,518.7776 386.709,512.4813 384.9404,506.7038 382.6161,501.1266 379.7584,495.8029 376.3946,490.7837 372.5568,486.1169 368.2817,481.8471 363.6101,478.0152 358.5867,474.6576 353.2594,471.8066 347.6793,469.4893 341.8996,467.7279 335.9755,466.5393 329.9636,465.9347 323.9215,465.9201 317.9068,466.4954 311.977,467.6552 306.1888,469.3885 300.5974,471.6786 295.2564,474.5037 290.2167,477.8368 285.5266,481.646 281.2307,485.8949 277.3703,490.543 273.7868,495.8692 270.9358,501.1964 268.6185,506.7766 266.8571,512.5563 265.6685,518.4804 265.0639,524.4922 265.0492,530.5344 265.6246,536.5491 266.8761,542.8454 268.6447,548.6229 270.9689,554.2001 273.8266,559.5238 277.1904,564.543 281.0283,569.2098 285.3034,573.4796 289.975,577.3115 294.9984,580.6691"/>
    <polygon points="317.7134,590.0159 323.7272,590.5989 329.7692,590.6031 335.7839,590.0286 342.0826,588.7902 347.867,587.0447 353.4576,584.7532 359.1279,581.7438 364.159,578.3981 368.8466,574.586 373.4025,570.0636 377.2493,565.4044 380.8274,560.0748 383.6834,554.7504 386.0162,549.1769 387.8045,543.4056 389.0895,537.1162 389.728,530.7287 389.7323,524.6866 389.1578,518.672 387.9193,512.3733 386.0464,506.2332 383.7215,500.6565 380.873,495.328 377.3024,489.9933 373.4622,485.3287 369.1928,481.0534 364.2304,476.9812 359.204,473.6284 353.538,470.6111 347.9506,468.3118 342.1687,466.5581 336.2453,465.3663 330.2351,464.7473 323.8158,464.7236 317.4274,465.3531 311.5024,466.5365 305.718,468.282 299.7856,470.7344 294.4572,473.5828 289.426,476.9285 284.7385,480.7407 280.1825,485.263 276.3358,489.9223 272.7576,495.2519 269.9017,500.5763 267.5689,506.1498 265.7806,511.9211 264.4955,518.2105 263.857,524.598 263.8528,530.64 264.4272,536.6547 265.6657,542.9534 267.4112,548.7378 269.7027,554.3284 272.5191,559.6739 276.0577,565.0298 280.1229,569.998 284.3922,574.2733 289.0514,578.1201 294.381,581.6982 299.7055,584.5542 305.6344,587.0149 311.783,588.8597"/>
    <polygon points="340.9177,584.1331 346.3402,582.4926 351.9189,580.1707 356.9041,577.4795 361.6041,574.3164 365.9744,570.7115 369.9735,566.6987 373.5636,562.3162 376.7107,557.6055 379.385,552.6112 381.5611,547.3805 383.2184,541.9631 384.3412,536.4102 384.9189,530.7745 384.9461,525.1094 384.368,519.0945 383.2623,513.5382 381.6218,508.1156 379.2999,502.5369 376.6087,497.5517 373.4456,492.8517 369.8406,488.4815 365.8279,484.4823 361.4454,480.8922 356.7347,477.7451 351.7404,475.0709 346.1538,472.768 340.7257,471.1459 335.1657,470.0591 329.5264,469.518 323.8611,469.5276 318.2236,470.0879 312.6673,471.1935 307.2448,472.8341 302.0075,474.994 297.0049,477.6528 292.2845,480.7853 287.8909,484.3618 283.6115,488.628 280.0214,493.0105 276.8743,497.7212 274.2001,502.7155 272.024,507.9462 270.275,513.7301 269.1883,519.2902 268.6471,524.9295 268.6568,530.5947 269.2171,536.2322 270.3227,541.7885 271.9633,547.211 274.1232,552.4484 276.782,557.451 279.9145,562.1714 283.491,566.565 287.7571,570.8443 292.1396,574.4344 296.8504,577.5815 301.8447,580.2558 307.0753,582.4319 312.4928,584.0892 318.0456,585.212 323.6813,585.7898 329.7239,585.7991 335.3614,585.2388"/>
    <polygon points="340.9122,583.7221 346.3278,582.0722 351.5561,579.9004 356.5468,577.2277 361.2523,574.0796 365.6272,570.4864 369.6297,566.4825 373.2213,562.1063 376.3677,557.3997 379.0386,552.408 381.2084,547.1789 382.8564,541.7627 383.9666,536.2113 384.5286,530.5779 384.5368,524.9165 383.9912,519.2815 382.8971,513.7268 381.2648,508.3058 379.1102,503.0705 376.4538,498.071 373.3211,493.3554 369.7422,488.9687 365.7514,484.9532 361.3869,481.3473 356.6907,478.1856 351.7077,475.4984 346.4857,473.3115 341.0749,471.6458 335.5271,470.5174 329.8956,469.9371 324.2343,469.9104 318.5975,470.4376 313.0393,471.5136 307.613,473.1281 302.029,475.4263 297.0382,478.099 292.3328,481.247 287.9579,484.8403 283.9554,488.8442 280.3638,493.2204 277.2174,497.9269 274.5465,502.9187 272.3766,508.1477 270.7287,513.564 269.6184,519.1154 269.0565,524.7488 269.0482,530.4102 269.5938,536.0452 270.688,541.5999 272.3202,547.0208 274.4748,552.2562 277.1312,557.2556 280.2639,561.9713 283.8428,566.3579 287.8337,570.3735 292.1981,573.9794 296.8944,577.1411 301.8774,579.8283 307.0993,582.0152 312.5101,583.6808 318.0579,584.8092 324.0666,585.4086 329.7279,585.3983 335.3611,584.8344"/>
    <polygon points="369.1506,566.4145 372.7626,562.0524 375.9272,557.3558 378.45,552.7105 380.6665,547.4989 382.3587,542.0943 383.5102,536.5492 384.1097,530.9176 384.1515,525.2544 383.635,519.6146 382.5654,514.0532 380.9531,508.6242 378.8136,503.3804 376.1679,498.373 373.0417,493.6506 369.4655,489.2593 365.4739,485.2416 361.106,481.6368 356.4041,478.4799 351.414,475.8016 346.1843,473.6281 340.766,471.9803 335.2116,470.8745 329.5753,470.3213 324.2892,470.3084 318.6503,470.8341 313.0906,471.9129 307.6643,473.5342 302.4241,475.6823 297.421,478.3362 292.7038,481.4701 288.3183,485.0536 284.3072,489.0518 280.7096,493.4256 277.5605,498.1327 274.8904,503.1272 272.7254,508.3604 271.0866,513.7815 269.9899,519.3377 269.446,524.9749 269.4601,530.6382 270.0322,536.2726 271.1566,541.8233 272.8225,547.2361 275.0136,552.4585 277.7086,557.4395 280.8812,562.1308 284.5006,566.4867 288.5316,570.4647 292.935,574.0263 297.3429,576.9439 302.3418,579.6058 307.223,581.6345 312.636,583.3001 318.1867,584.4242 323.8211,584.9959 329.4845,585.0097 335.1216,584.4655 340.6777,583.3684 346.0987,581.7293 351.3318,579.564 356.3261,576.8936 361.033,573.7442 365.4067,570.1463"/>
    <polygon points="377.0163,565.0478 380.3869,560.0309 383.2581,554.7125 385.6032,549.1419 387.4938,543.0051 388.6903,537.0807 389.3099,531.0686 389.3299,524.6472 388.7477,518.6313 387.4967,512.3329 385.7357,506.5511 383.2632,500.6248 380.393,495.3058 377.0233,490.2883 373.1855,485.6191 368.9154,481.3418 364.2527,477.496 358.9172,473.923 353.5858,471.0759 347.6487,468.6291 341.8594,466.8932 335.9296,465.7236 329.9147,465.1312 323.8707,465.1215 317.854,465.6946 311.5537,466.9361 305.4137,468.8163 299.8392,471.1519 294.5159,474.0141 289.4933,477.3762 284.5387,481.4612 280.2807,485.7506 276.4562,490.4307 273.1007,495.4576 270.2455,500.7847 267.9173,506.3623 266.0452,512.5048 264.8666,518.4328 264.2469,524.8242 264.2645,530.8682 264.8649,536.8823 266.0423,542.8105 267.7859,548.5976 270.0794,554.1895 273.0946,559.859 276.4492,564.8866 280.2729,569.5673 284.5301,573.8576 289.4839,577.9435 294.5058,581.3065 299.8286,584.1697 305.4027,586.5063 311.1761,588.2946 317.4685,589.5753 323.4816,590.1858 329.903,590.1961 335.918,589.6048 341.848,588.4363 347.9936,586.5746 353.5752,584.2558 358.9071,581.4097 363.9398,578.0628 368.6263,574.2462 373.1776,569.7162"/>
    <polygon points="388.3923,542.7072 389.5442,536.778 390.1267,530.7661 390.116,524.3489 389.5134,518.3389 388.2497,512.0473 386.3567,505.9156 384.0172,500.347 381.1586,495.0263 377.5815,489.6985 373.7388,485.0383 369.1902,480.5116 364.5116,476.6916 359.1666,473.1402 353.49,470.1473 347.8964,467.8681 341.7447,466.0413 335.8138,464.8982 329.4237,464.3078 323.3838,464.3449 317.3747,464.9565 311.085,466.2295 305.3111,468.0027 299.391,470.4794 294.0745,473.3459 289.0549,476.7053 284.3776,480.5271 279.8307,485.0555 275.9897,489.717 272.4146,495.0461 269.3963,500.7093 267.0921,506.2925 265.2378,512.4361 264.0683,518.3618 263.4494,524.7492 263.4595,530.7892 264.0997,537.1745 265.2891,543.0963 267.0365,548.8781 269.4867,554.8091 272.5239,560.4622 275.8908,565.4768 279.7195,570.1484 284.2546,574.6886 288.9219,578.5226 294.2563,582.0898 299.5823,584.9386 305.5106,587.3955 311.6569,589.2406 317.5844,590.4014 323.5954,590.9929 330.0127,590.9917 336.0235,590.398 342.317,589.1437 348.0962,587.3877 354.0236,584.9287 359.6721,581.8831 364.6817,578.5087 369.6268,574.4188 373.8811,570.1312 377.7081,565.4582 381.2674,560.1185 384.2687,554.4464 386.5563,548.8563"/>
    <polygon points="391.0876,518.0463 389.9167,512.1171 388.0751,505.9658 385.6357,500.0261 382.6223,494.356 379.0642,489.0109 374.9962,484.0428 370.4579,479.5003 365.4936,475.4277 360.1518,471.8646 354.4846,468.8459 348.5472,466.401 342.7641,464.6455 336.4695,463.3773 330.0805,462.7362 323.6594,462.7286 317.2689,463.3544 310.9713,464.6076 304.828,466.4759 298.899,468.9412 293.5664,471.7852 288.2161,475.3355 283.2421,479.3963 278.693,483.928 274.6131,488.8864 271.0423,494.223 268.0154,499.8858 265.5618,505.8197 263.7056,511.9666 262.4649,518.2667 261.8517,524.6585 261.872,531.0795 262.5257,537.4672 263.7138,543.393 265.4471,549.1827 267.8692,555.1295 270.8662,560.8083 274.4087,566.1637 278.4623,571.1436 282.9874,575.6993 287.9398,579.7863 293.2712,583.3649 298.9297,586.4001 304.8599,588.8622 310.6379,590.6345 316.9288,591.921 323.3159,592.5806 329.7369,592.607 336.1292,591.9997 342.4305,590.7648 348.5791,588.9143 354.5153,586.4663 360.1809,583.4447 365.5209,579.8788 370.483,575.8036 375.0189,571.2587 379.0844,566.2885 382.4453,561.2656 385.4887,555.6115 387.9595,549.6848 389.8335,543.5433 391.0926,537.2469 391.7244,530.8569 391.7227,524.4359"/>
    <line x1="419.8502" x2="436.6378" y1="510.0124" y2="492.9971"/>
    <line x1="440.6406" x2="423.8529" y1="496.9463" y2="513.9616"/>
    <line x1="423.5861" x2="457.1613" y1="513.6983" y2="479.6677"/>
    <line x1="453.6923" x2="420.1171" y1="476.2451" y2="510.2757"/>
    <line x1="420.3839" x2="470.7468" y1="510.539" y2="459.4931"/>
    <line x1="473.6821" x2="423.3192" y1="462.3891" y2="513.435"/>
    <line x1="423.0524" x2="490.2029" y1="513.1717" y2="445.1106"/>
    <line x1="487.8013" x2="420.6508" y1="442.7411" y2="510.8022"/>
    <line x1="420.9176" x2="504.8557" y1="511.0655" y2="425.9891"/>
    <line x1="506.7237" x2="422.7855" y1="427.832" y2="512.9084"/>
    <line x1="422.5187" x2="523.2444" y1="512.6452" y2="410.5534"/>
    <line x1="521.9102" x2="421.1845" y1="409.237" y2="511.3288"/>
    <line x1="421.4513" x2="538.9647" y1="511.5921" y2="392.485"/>
    <line x1="539.7652" x2="422.2518" y1="393.2749" y2="512.3819"/>
    <line x1="421.985" x2="556.286" y1="512.1186" y2="375.9963"/>
    <line x1="556.0191" x2="421.7182" y1="375.733" y2="511.8553"/>
    <polygon points="420.9856,464.986 426.5407,469.5141 432.8725,472.8714 439.7376,474.9289 446.8721,475.6076 454.002,474.8813 460.8532,472.7781 467.1624,469.3786 472.6872,464.8136 477.2153,459.2585 480.5726,452.9268 482.6301,446.0617 483.3088,438.9271 482.5826,431.7972 480.4793,424.946 477.0798,418.6368 472.5148,413.112 466.9597,408.5839 460.628,405.2266 453.7629,403.1691 446.6283,402.4904 439.4984,403.2167 432.6472,405.3199 426.338,408.7194 420.8132,413.2844 416.2852,418.8395 412.9279,425.1713 410.8703,432.0363 410.1917,439.1709 410.9179,446.3008 413.0212,453.152 416.4206,459.4612"/>
    <polygon points="464.3408,473.2661 444.8474,674.3025 541.3023,683.6552 560.7957,482.6188"/>
    <polygon points="480.4334,470.6018 453.8529,585.5106 658.5892,632.8698 685.1697,517.961"/>
    <polygon points="375.4867,491.5741 371.6514,486.9051 367.3703,482.6411 362.6859,478.8246 357.9693,475.6868 352.6392,472.8409 347.4079,470.6672 341.6305,468.8978 335.7056,467.7124 329.6921,467.1229 323.6498,467.135 317.6388,467.7487 312.0849,468.865 306.3036,470.6216 300.7259,472.9451 295.4072,475.8124 290.7033,478.9691 286.0343,482.8044 281.7703,487.0856 278.1785,491.4663 274.816,496.4865 271.97,501.8166 269.669,507.4036 267.9356,513.192 266.8416,518.7503 266.2521,524.7638 266.2642,530.806 266.8779,536.8171 267.9942,542.371 269.7508,548.1523 272.0743,553.73 274.9416,559.0487 278.0983,563.7526 281.6804,568.1412 285.9349,572.4318 290.5954,576.2774 295.6157,579.6399 300.9458,582.4858 306.5328,584.7869 311.9546,586.4289 317.8795,587.6143 323.5156,588.1846 329.5579,588.2101 335.5726,587.6339 341.5002,586.4617 346.9255,584.8317 352.5176,582.543 357.854,579.7089 362.8817,576.3575 367.2704,572.7754 371.5609,568.521 375.4066,563.8604 378.7691,558.8402 381.615,553.51 383.9161,547.9231 385.6494,542.1347 386.7434,536.5764 387.333,530.5629 387.3209,524.5206 386.7072,518.5096 385.5908,512.9557 383.9609,507.5303 381.6722,501.9382 378.8381,496.6018"/>
    <polygon points="346.781,471.7171 340.9948,469.9761 335.4357,468.8857 329.7979,468.3297 324.1328,468.3132 318.492,468.8363 312.5595,469.9837 306.7742,471.7278 301.5374,473.8888 296.5304,476.5388 291.4938,479.8772 287.1028,483.4565 282.8177,487.7167 278.9875,492.3902 275.8452,497.1038 273.1661,502.0954 270.8463,507.6748 269.1053,513.461 268.0149,519.0202 267.4409,525.0353 267.4605,530.7004 268.0758,536.7114 269.2046,542.2629 270.857,547.6817 273.1797,553.2599 275.8615,558.25 279.0063,562.962 282.5857,567.3531 286.8459,571.6382 291.5193,575.4684 296.233,578.6107 301.2246,581.2898 306.804,583.6095 312.5902,585.3505 318.1494,586.441 323.7871,586.997 329.8296,586.9954 335.467,586.4364 341.3921,585.2513 346.8109,583.5989 352.3891,581.2762 357.3792,578.5944 362.3944,575.2241 366.7626,571.6168 370.7674,567.61 374.3723,563.2398 377.7399,558.2228 380.419,553.2313 382.6105,548.0072 384.3882,542.2322 385.514,536.6801 386.1059,531.046 386.1427,525.0037 385.6195,519.3628 384.4721,513.4303 382.8542,508.0011 380.567,502.4083 377.7236,497.0767 374.5787,492.3646 370.9993,487.9736 366.7391,483.6885 362.0657,479.8583 357.352,476.716 352.3605,474.0369"/>
    <polygon points="305.2474,467.1756 299.3155,469.6291 293.9825,472.4686 288.6354,476.0204 283.6697,480.0883 279.389,484.3521 275.3014,489.3016 271.7284,494.6345 268.8678,499.9563 266.3908,505.8783 264.5175,512.0181 263.2665,518.3142 262.669,524.3265 262.6563,530.7457 263.2846,537.1341 264.4559,543.0613 266.3048,549.2085 268.7583,555.1403 271.5978,560.4734 275.1496,565.8204 279.2175,570.7861 283.7609,575.3208 288.7344,579.3792 293.7637,582.7274 299.4267,585.7501 305.3632,588.1922 311.1473,589.9384 317.4434,591.1893 323.4557,591.7868 329.8749,591.7996 336.2633,591.1713 342.557,589.9083 348.6932,588.0232 354.2695,585.6976 359.9267,582.6641 364.9496,579.3063 369.6347,575.4912 374.196,570.9746 378.2836,566.0251 381.8566,560.6921 384.8793,555.0291 387.1943,549.4483 389.0676,543.3086 390.3185,537.0124 390.916,531.0002 390.9287,524.581 390.3551,518.5664 389.1292,512.2653 387.2802,506.1182 384.9874,500.5283 381.9872,494.8533 378.4354,489.5062 374.3675,484.5406 369.8241,480.0058 365.1542,476.1722 359.8213,472.5993 354.4996,469.7386 348.5775,467.2616 342.4378,465.3883 336.5152,464.1935 330.1294,463.5399 323.7102,463.5271 317.6956,464.1008 311.3945,465.3267"/>
    <polygon points="293.5995,472.2313 288.2645,475.7974 283.3095,479.8751 278.7834,484.4243 274.731,489.4 271.3854,494.4288 268.3618,500.089 265.9147,506.0212 264.0681,512.167 262.8951,518.092 262.2608,524.4777 262.2631,530.8949 262.9019,537.2802 264.1711,543.5706 265.9301,549.3487 268.3815,555.2792 271.409,560.9373 274.9829,566.2672 279.0679,571.2162 283.6237,575.7356 288.6053,579.7808 293.6389,583.119 298.9623,585.9726 304.8838,588.4457 311.0214,590.3192 317.3145,591.5747 323.7012,592.1996 330.1183,592.188 336.5027,591.5398 342.4251,590.3539 348.5668,588.494 354.4937,586.034 360.1474,582.9982 365.1689,579.6417 370.1357,575.5784 374.6751,571.0425 378.742,566.0787 382.2966,560.7359 385.3035,555.0668 387.7333,549.1274 389.562,542.9763 390.7176,537.0479 391.3333,530.6604 391.3122,524.2432 390.7109,518.2333 389.4602,511.9392 387.5913,505.8002 385.1226,499.8769 382.0785,494.2277 378.4891,488.9083 374.3897,483.9712 369.8207,479.4651 364.8273,475.4345 359.7839,472.111 354.4522,469.273 348.5236,466.8172 342.3805,464.9616 336.0837,463.7246 329.6953,463.1183 323.6553,463.1293 317.2691,463.7588 310.9768,465.0187 304.8406,466.8966 299.262,469.212"/>
    <polygon points="290.2839,478.2842 285.6065,482.1123 281.3281,486.3817 277.4902,491.051 274.1299,496.075 271.2797,501.4049 268.9672,506.9893 267.215,512.7739 266.0398,518.7027 265.4532,524.7184 265.4608,530.7625 266.0626,536.7767 267.2526,542.7026 269.0194,548.4827 271.3459,554.0612 274.2094,559.384 277.5824,564.3995 281.4321,569.0591 285.441,573.0642 290.1044,576.9093 295.1232,580.2773 300.4487,583.1357 306.0295,585.4568 311.8114,587.2179 317.7384,588.4022 323.7532,588.998 329.7974,588.9997 335.8124,588.4073 341.7401,587.2263 347.523,585.4684 353.1051,583.1506 358.4323,580.2952 363.453,576.9299 368.1185,573.0874 372.3837,568.8049 376.2073,564.1238 379.5521,559.0895 382.3859,553.7508 384.6812,548.1594 386.4156,542.3694 387.5725,536.437 388.1225,530.797 388.1335,524.7529 387.5502,518.7369 386.3785,512.8074 384.6294,507.0218 382.3202,501.4362 379.473,496.1046 376.1154,491.0788 372.2801,486.4073 368.0042,482.1355 363.329,478.3047 358.2998,474.9521 352.9655,472.1101 347.3776,469.8063 341.5903,468.0629 335.6597,466.8969 329.6431,466.3196 323.599,466.3365 317.9596,466.892 312.0283,468.0546 306.24,469.7947 300.6508,472.0954 295.3149,474.9344"/>
    <polygon points="286.3947,483.0177 282.122,487.293 278.2995,491.9752 275.159,496.6923 272.314,502.0252 270.018,507.6165 268.3848,513.0429 267.2132,518.9727 266.66,524.6125 266.6572,530.6569 267.2603,536.6711 268.3708,542.2281 270.1255,548.0121 272.4513,553.5911 275.1295,558.5852 278.4901,563.6092 282.0835,567.9911 286.3521,572.2705 291.0283,576.1003 295.7405,579.2482 301.0689,582.1016 306.6566,584.4064 312.4473,586.1393 318.0084,587.229 324.0248,587.8095 329.6917,587.8033 335.7068,587.2096 341.2655,586.1078 346.6961,584.4883 352.2932,582.2064 357.6332,579.3748 362.6625,576.0221 367.0501,572.4356 371.3362,568.1737 375.1733,563.5035 378.3286,558.7963 381.0272,553.8133 383.3758,548.2438 385.1541,542.467 386.3443,536.5409 386.9151,530.9029 386.937,524.8586 386.3527,518.8425 385.2596,513.282 383.5231,507.4925 381.3755,502.2483 378.5523,496.9038 375.4312,492.1739 371.6279,487.4761 367.3727,483.1833 362.7086,479.3388 358.0063,476.1762 352.6868,473.3061 347.4618,471.1124 341.6877,469.3251 335.7636,468.1256 329.749,467.5261 323.7046,467.5328 318.0652,468.0894 312.1361,469.2646 306.7107,470.9012 301.1208,473.2006 295.7897,476.0489 290.7709,479.4174"/>
    <polygon points="283.2599,488.4205 279.6756,492.8052 276.5313,497.5154 273.6952,502.8487 271.5481,508.0892 269.9168,513.5124 268.8166,519.0678 268.2577,524.7034 268.2639,530.7439 268.8344,536.3783 269.9461,541.9314 271.7166,547.7066 273.9081,552.9286 276.5935,557.9148 279.7475,562.6184 283.3408,566.9958 287.3398,571.0058 291.7071,574.6112 296.7256,577.9731 301.7215,580.6401 306.9516,582.8125 312.7332,584.5617 318.2904,585.653 323.9269,586.2029 329.9673,586.1869 335.6009,585.6073 341.1521,584.4867 346.5693,582.8355 351.8019,580.6692 357.1248,577.8136 361.8234,574.652 366.4737,570.7968 370.4514,566.7657 374.0215,562.3695 377.1507,557.6492 379.9695,552.3068 382.0997,547.0594 383.7135,541.6309 384.7958,536.0721 385.3533,530.0573 385.3109,524.3942 384.7222,518.7617 383.5927,513.2122 381.9328,507.7977 379.758,502.5686 377.0888,497.5738 373.7247,492.5568 370.1173,488.1911 365.8245,483.9415 361.4225,480.3785 356.6972,477.257 351.6927,474.6061 346.4557,472.4505 340.6684,470.7199 335.1078,469.6465 329.4695,469.1149 323.8063,469.1298 318.1709,469.6913 312.6161,470.794 307.1936,472.4277 301.6125,474.7383 296.622,477.4156 291.9133,480.5621 287.5302,484.1483"/>
    <polygon points="267.5773,512.9742 266.415,518.9016 265.8446,524.9149 265.8715,530.9551 266.4956,536.9631 267.6176,542.5138 269.3761,548.2925 271.5362,553.5273 274.3645,558.8645 277.7068,563.8959 281.2777,568.2911 285.5182,572.5926 290.1633,576.4538 295.1674,579.8367 300.1412,582.5443 305.6986,584.9107 311.4628,586.7159 317.3773,587.9424 323.384,588.578 329.4242,588.6165 335.4385,588.0575 341.3681,586.9066 347.1549,585.1749 352.3997,583.0392 357.75,580.2356 362.7968,576.9168 367.4907,573.1152 371.7856,568.8681 375.6396,564.217 379.0147,559.2077 381.878,553.8892 384.2014,548.3136 385.962,542.5357 387.0861,536.9853 387.7123,530.9776 387.7415,524.9374 387.1732,518.9239 386.0131,512.9961 384.2725,507.212 381.9685,501.6284 379.1237,496.3 375.7659,491.2791 372.1813,486.8949 367.9276,482.6065 363.2706,478.7598 358.2561,475.3924 352.9331,472.5373 347.7091,470.351 341.9394,468.5636 336.0212,467.3555 330.0125,466.7385 323.9722,466.7187 317.9596,467.2962 312.0336,468.4655 306.2523,470.215 300.6723,472.5277 295.3483,475.3808 290.3325,478.7463 285.9539,482.3377 281.6721,486.5981 277.8326,491.261 274.4729,496.2807 271.6261,501.6081 269.32,507.1908"/>
    <polygon points="263.0582,524.5526 263.0683,530.9739 263.7236,537.3616 264.9241,543.285 266.8074,549.4239 269.1352,555.0014 272.1747,560.6578 275.7672,565.98 279.8765,570.9142 284.1789,575.1588 288.8636,578.9774 294.2129,582.5296 299.8921,585.5262 305.4871,587.8117 311.2732,589.5576 317.5724,590.8039 323.5874,591.393 330.0087,591.3924 336.3974,590.7465 342.3226,589.5549 348.4642,587.6807 354.0452,585.3611 359.706,582.33 365.0336,578.7453 369.6949,574.8982 374.2249,570.3472 378.2746,565.364 381.6105,560.3242 384.6155,554.6494 387.0349,548.7014 388.7551,542.9076 389.9734,536.603 390.552,530.2078 390.5067,524.1642 389.8899,518.1519 388.6145,511.8586 386.8419,506.0805 384.3687,500.1547 381.5078,494.8308 377.931,489.498 374.0908,484.831 369.5466,480.2942 364.5694,476.2372 359.5345,472.8938 354.2059,470.0418 348.276,467.5784 342.1285,465.7234 336.1996,464.5504 329.8089,463.9245 323.3877,463.944 317.3745,464.552 311.0793,465.8181 305.2986,467.5821 299.3691,470.0465 294.041,472.8995 288.7029,476.4684 284.0302,480.3017 279.4868,484.8392 275.6474,489.5069 272.0715,494.8403 269.0497,500.5061 266.7394,506.091 264.8754,512.2357 263.6935,518.1629"/>
    <polygon points="264.6558,530.6836 265.2416,536.6953 266.4077,542.6218 268.27,548.763 270.592,554.339 273.4439,559.6635 276.7987,564.6864 280.6248,569.3602 284.8861,573.641 289.5425,577.4883 294.8736,581.0606 300.2025,583.9044 305.782,586.218 311.5596,587.9796 317.4807,589.1725 323.4897,589.7856 329.5298,589.8131 335.9179,589.2005 341.8426,588.0254 347.6255,586.2814 353.5535,583.8233 358.8737,580.9633 363.8914,577.6009 368.5594,573.7677 372.8337,569.4999 376.6739,564.8377 380.0439,559.825 382.9119,554.5092 385.379,548.585 387.1318,542.8047 388.3158,536.8818 388.9381,530.4946 388.9197,524.4545 388.3157,518.4446 387.1317,512.5216 385.3789,506.7414 383.0737,501.1584 380.238,495.8252 376.8985,490.7922 373.0866,486.1068 368.8383,481.8131 363.8911,477.7256 358.8734,474.3632 353.5532,471.5033 347.9807,469.1728 342.2085,467.3936 336.291,466.1827 330.2839,465.5514 324.2439,465.5055 317.854,466.0988 311.9257,467.2558 306.1375,468.9823 300.5441,471.262 295.1981,474.0734 289.8454,477.6134 285.1658,481.4324 280.8786,485.6872 276.7985,490.6406 273.4437,495.6634 270.431,501.3296 268.1428,506.9196 266.4076,512.7052 265.2416,518.6317 264.6558,524.6434"/>
    <polygon points="267.0487,530.4723 267.6367,536.484 268.7362,542.0394 270.3561,547.4659 272.6413,553.0573 275.4788,558.3898 278.6149,563.1053 282.4354,567.7839 286.4289,571.7993 291.0865,575.6455 295.7847,578.8075 300.7609,581.5109 306.3249,583.862 312.0978,585.6398 317.647,586.7698 323.6554,587.3908 329.6958,587.4026 335.3329,586.8602 341.2602,585.6969 346.6841,584.0684 352.272,581.7744 357.5999,578.9285 362.3105,575.7849 366.7026,572.2099 370.9922,567.9573 374.605,563.5962 377.9856,558.5904 380.8439,553.2691 383.151,547.6867 384.7921,542.2666 385.9693,536.342 386.5429,530.3289 386.5271,524.6658 385.9202,518.656 384.8032,513.1041 383.1661,507.6827 380.8633,502.0985 378.203,497.0991 374.858,492.0695 371.2761,487.683 367.0166,483.4001 362.6499,479.7941 357.6387,476.4215 352.654,473.7338 347.0826,471.4003 341.3042,469.6407 335.7513,468.5283 329.741,467.9263 324.0779,467.9152 318.4391,468.4398 312.5082,469.5844 307.0791,471.1957 301.4841,473.4721 296.1472,476.3012 291.4267,479.4299 286.742,483.243 282.7203,487.2301 278.8668,491.8816 275.5021,496.8981 272.8222,501.887 270.4976,507.4622 268.8393,512.8771 267.6434,518.7979 267.0509,524.8091"/>
    <polygon points="225.1597,400.4129 218.514,399.052 211.7307,398.9844 204.6967,400.3182 198.0752,403.0405 192.4287,406.8001 187.6034,411.5682 183.5965,417.5011 180.9757,423.7581 179.5971,430.4002 179.5449,437.5593 180.8264,444.2208 183.3556,450.5153 187.2756,456.506 192.3213,461.585 197.953,465.3668 204.203,468.0042 211.2167,469.4404 218.0003,469.4718 225.027,468.1006 231.6339,465.343 237.2603,461.5533 242.06,456.7595 246.0353,450.8053 248.7306,444.1728 250.0027,437.5095 249.9799,430.7259 248.5525,423.7104 245.9228,417.4571 242.1482,411.8206 237.0755,406.7686 231.4237,403.017"/>
    <polygon points="246.735,311.0264 173.4642,315.1959 184.8203,514.7526 258.0911,510.5831"/>
    <polygon points="564.5464,367.357 419.5834,509.7491 424.1198,514.2248"/>
    <line x1="463.5605" x2="658.1549" y1="753.8075" y2="799.8766"/>
    <line x1="658.0687" x2="431.042" y1="800.2404" y2="746.4931"/>
    <line x1="430.4391" x2="657.4658" y1="749.0398" y2="802.7871"/>
    <line x1="657.3797" x2="462.7854" y1="803.1509" y2="757.0817"/>
    <polygon points="463.9129,769.4622 466.8731,773.3702 635.1614,642.8235"/>
    <line x1="495.1316" x2="657.2936" y1="765.1237" y2="803.5147"/>
    <line x1="658.241" x2="496.079" y1="799.5128" y2="761.1219"/>
  </g>
</svg>
