<?xml version="1.0" encoding="utf-8" ?>
<svg xmlns="http://www.w3.org/2000/svg" xmlns:cc="http://creativecommons.org/ns" xmlns:dc="http://purl.org/dc/elements/1.1/" xmlns:ev="http://www.w3.org/2001/xml-events" xmlns:inkscape="http://www.inkscape.org/namespaces/inkscape" xmlns:rdf="http://www.w3.org/1999/02/22-rdf-syntax-ns" xmlns:sodipodi="http://sodipodi.sourceforge.net/DTD/sodipodi-0.dtd" xmlns:xlink="http://www.w3.org/1999/xlink" baseProfile="tiny" height="29.7cm" version="1.2" viewBox="0 0 793.7007874015749 1122.5196850393702" width="21.0cm">
  <metadata>
    <rdf:RDF>
      <cc:Work>
        <dc:format>image/svg+xml</dc:format>
        <dc:source>Vsketch with params {'__seed__': 768199615, 'debug_show_shapes': False, 'debug_draw': False, 'occult': False, 'scale': 1.0, 'area_type': 'RECT', 'width': 12.0, 'height': 14.0, 'num_circ_min': 2, 'num_circ_max': 10, 'circ_rad_min': 0.5, 'circ_rad_max': 2.0, 'num_circ_shaded_min': 0, 'num_circ_shaded_max': 0, 'circ_shaded_rad_min': 0.05, 'circ_shaded_rad_max': 0.5, 'circ_shaded_fill_dist_min': 0.05, 'circ_shaded_fill_dist_max': 0.2, 'num_circ_fill_min': 0, 'num_circ_fill_max': 0, 'circ_fill_rad_min': 0.05, 'circ_fill_rad_max': 0.5, 'num_circ_dash_min': 0, 'num_circ_dash_max': 0, 'circ_dash_rad_min': 0.05, 'circ_dash_rad_max': 0.5, 'num_circ_dot_min': 0, 'num_circ_dot_max': 0, 'circ_dot_rad_min': 0.05, 'circ_dot_rad_max': 0.5, 'circ_dot_dens_min': 400.0, 'circ_dot_dens_max': 800.0, 'circ_dot_dot_rad_min': 0.02, 'circ_dot_dot_rad_max': 0.06, 'num_circ_half_fill_min': 0, 'num_circ_half_fill_max': 0, 'circ_half_fill_rad_min': 0.05, 'circ_half_fill_rad_max': 2.0, 'circ_half_fill_gain_min': 0.4, 'circ_half_fill_gain_max': 0.6, 'num_circ_outer_fill_min': 0, 'num_circ_outer_fill_max': 10, 'circ_outer_fill_rad_min': 0.05, 'circ_outer_fill_rad_max': 2.0, 'circ_outer_fill_gain_min': 0.0, 'circ_outer_fill_gain_max': 0.2, 'num_line_min': 5, 'num_line_max': 8, 'line_length_min': 5.0, 'line_length_max': 13.0, 'num_thick_line_min': 0, 'num_thick_line_max': 0, 'thick_line_length_min': 3.0, 'thick_line_length_max': 7.0, 'num_tri_line_min': 4, 'num_tri_line_max': 8, 'tri_line_length_min': 4.0, 'tri_line_length_max': 10.0, 'tri_line_width_gain_min': 0.02, 'tri_line_width_gain_max': 0.04, 'num_rect_min': 5, 'num_rect_max': 10, 'rect_width_min': 1.0, 'rect_width_max': 4.0, 'rect_height_gain_min': 0.3, 'rect_height_gain_max': 3.0, 'num_rect_shaded_min': 0, 'num_rect_shaded_max': 0, 'rect_shaded_width_min': 0.1, 'rect_shaded_width_max': 1.0, 'rect_shaded_height_gain_min': 0.5, 'rect_shaded_height_gain_max': 2.0, 'rect_shaded_fill_dist_min': 0.05, 'rect_shaded_fill_dist_max': 0.2, 'num_rect_fill_min': 0, 'num_rect_fill_max': 0, 'rect_fill_width_min': 0.1, 'rect_fill_width_max': 1.0, 'rect_fill_height_gain_min': 0.5, 'rect_fill_height_gain_max': 2.0, 'num_rect_dash_min': 0, 'num_rect_dash_max': 0, 'rect_dash_width_min': 0.1, 'rect_dash_width_max': 1.0, 'rect_dash_height_gain_min': 0.5, 'rect_dash_height_gain_max': 2.0, 'num_rect_dot_min': 0, 'num_rect_dot_max': 0, 'rect_dot_width_min': 0.1, 'rect_dot_width_max': 1.0, 'rect_dot_height_gain_min': 0.5, 'rect_dot_height_gain_max': 2.0, 'rect_dot_dens_min': 400.0, 'rect_dot_dens_max': 800.0, 'rect_dot_rad_min': 0.02, 'rect_dot_rad_max': 0.06, 'num_tri_min': 0, 'num_tri_max': 5, 'tri_width_min': 0.5, 'tri_width_max': 4.0, 'tri_height_gain_min': 0.5, 'tri_height_gain_max': 2.0, 'num_tri_shaded_min': 0, 'num_tri_shaded_max': 0, 'tri_shaded_width_min': 0.1, 'tri_shaded_width_max': 1.0, 'tri_shaded_height_gain_min': 0.5, 'tri_shaded_height_gain_max': 2.0, 'tri_shaded_fill_dist_min': 0.05, 'tri_shaded_fill_dist_max': 0.2, 'num_tri_fill_min': 0, 'num_tri_fill_max': 0, 'tri_fill_width_min': 0.4, 'tri_fill_width_max': 1.0, 'tri_fill_height_gain_min': 0.5, 'tri_fill_height_gain_max': 3.0, 'num_tri_dash_min': 0, 'num_tri_dash_max': 0, 'tri_dash_width_min': 0.1, 'tri_dash_width_max': 1.0, 'tri_dash_height_gain_min': 0.5, 'tri_dash_height_gain_max': 2.0, 'num_tri_dot_min': 0, 'num_tri_dot_max': 0, 'tri_dot_width_min': 0.1, 'tri_dot_width_max': 1.0, 'tri_dot_height_gain_min': 0.5, 'tri_dot_height_gain_max': 2.0, 'tri_dot_dens_min': 400.0, 'tri_dot_dens_max': 800.0, 'tri_dot_rad_min': 0.02, 'tri_dot_rad_max': 0.06}</dc:source>
        <dc:date>2023-11-19T21:14:03.249432</dc:date>
      </cc:Work>
    </rdf:RDF>
  </metadata>
  <defs/>
  <g fill="none" id="layer1" inkscape:groupmode="layer" inkscape:label="1" stroke="#0000ff" style="display:inline">
    <polygon points="188.48,612.3595 183.3501,611.1499 178.0817,611.0001 173.2549,611.8161 168.6668,613.5227 164.179,616.2866 160.3412,619.8991 157.4979,623.884 155.4523,628.3313 154.2241,633.4568 154.0317,638.3483 154.8537,643.5544 156.5436,648.1487 159.2912,652.6464 162.8898,656.4973 166.8643,659.355 171.3042,661.4167 176.4252,662.6636 181.6924,662.8516 186.8892,661.973 191.802,660.064 195.9324,657.4368 199.744,653.7965 202.5583,649.7911 204.5715,645.329 205.7626,640.1948 205.9194,635.302 205.0597,630.1021 203.1686,625.1825 200.5563,621.0425 196.9299,617.2178 192.9348,614.389"/>
    <polygon points="175.731,590.4607 181.2097,594.4864 187.3822,598.1468 193.5424,601.0232 200.3115,603.4056 206.9154,605.0217 213.6436,605.9989 220.4343,606.3283 227.6015,605.9699 234.3255,604.9648 240.9227,603.3214 247.3324,601.0547 253.8301,598.0089 259.6727,594.5324 265.4493,590.2746 270.4991,585.7225 275.0906,580.7084 279.3934,574.9653 283.0947,568.8174 286.0121,562.6764 288.4395,555.9233 290.0994,549.3303 291.1213,542.6088 291.4976,535.4425 291.1488,528.2749 290.1526,521.5495 288.518,514.9502 286.2598,508.5375 283.3988,502.37 279.7539,496.1885 275.5038,490.4063 270.9584,485.3504 265.6596,480.5111 260.2131,476.4418 254.0701,472.7323 247.933,469.8068 241.5442,467.4815 234.5923,465.7017 227.4963,464.6325 220.7064,464.285 213.9145,464.5884 206.8117,465.6115 199.8483,467.3462 193.4446,469.6299 187.2887,472.5155 181.1217,476.185 175.649,480.2189 170.3188,485.0237 165.7407,490.05 161.4531,495.8045 157.7682,501.9622 154.8672,508.111 152.4578,514.8705 150.8154,521.4679 149.7745,528.5681 149.4541,535.3593 149.822,542.526 150.8361,549.2487 152.5985,556.2051 154.9078,562.5996 157.9967,569.0769 161.512,574.8963 165.8081,580.6444 170.3937,585.6639"/>
    <polygon points="175.6969,589.8312 181.1539,593.8888 186.9761,597.4021 193.4582,600.4843 200.22,602.892 206.8204,604.5281 213.5476,605.5212 220.3392,605.8621 227.5083,605.5109 234.234,604.5078 241.1935,602.7519 247.5902,600.4442 254.0677,597.3524 259.8847,593.8304 265.3357,589.7648 270.3699,585.1933 275.1801,579.8661 279.2157,574.3928 282.8829,568.2227 285.7618,562.0621 288.0343,555.6529 289.7519,548.6838 290.7179,541.9526 291.0315,535.1597 290.6897,528.3682 289.6214,521.2705 287.9491,514.6792 285.6499,508.2795 282.5668,501.7978 279.0526,495.9761 274.9943,490.5197 270.4296,485.4793 265.4008,480.9018 259.6409,476.6191 253.8093,473.1213 247.3189,470.0565 240.5508,467.6669 233.946,466.0485 227.2161,465.0734 220.4236,464.7508 213.6316,465.0835 206.5325,466.1422 199.5777,467.9167 193.1873,470.2416 186.7181,473.3507 180.9105,476.8883 175.1801,481.2103 170.1827,485.8221 165.6526,490.8935 161.6316,496.3776 158.1573,502.2232 155.2619,508.3761 152.9723,514.7792 151.2361,521.7436 150.252,528.4722 149.921,535.6422 150.281,542.4328 151.2931,549.1572 153.0583,556.1144 155.3745,562.5079 158.2955,568.6487 161.7941,574.4798 165.8378,579.9471 170.389,584.9996"/>
    <polygon points="176.9921,588.4822 182.4628,592.521 187.9725,595.8212 194.115,598.7383 200.5159,601.0339 207.1123,602.6854 213.8397,603.6765 220.6322,603.9976 227.047,603.6828 233.7753,602.6981 240.3734,601.0529 246.7764,598.7634 252.9217,595.8521 258.4346,592.5571 263.9091,588.5236 268.958,583.9684 273.5318,578.9364 277.5856,573.4769 281.0798,567.6433 283.835,561.8418 286.1482,555.4473 287.8178,548.8554 288.8274,542.1307 289.1673,535.3392 288.8339,528.5473 287.8307,521.8217 286.2768,515.59 284.005,509.1807 281.1106,503.0274 277.622,497.1905 273.5733,491.727 269.0043,486.6907 263.9598,482.1308 258.4891,478.092 252.9793,474.7918 246.8368,471.8746 240.436,469.579 233.8395,467.9276 227.1121,466.9364 220.3197,466.6153 213.5288,466.9673 206.8059,467.9891 200.2171,469.6705 193.8267,471.9952 187.6976,474.9403 181.8896,478.4769 176.4598,482.5705 171.7268,486.912 167.1808,491.9691 163.1571,497.4508 159.695,503.3036 156.8287,509.47 154.6938,515.5273 153.0605,522.1283 152.0879,528.8584 151.7855,535.6517 152.1562,542.4416 153.1212,548.7912 154.7845,555.3847 157.0916,561.7814 160.0198,567.9187 163.5405,573.7363 167.6191,579.1774 171.9475,583.9222"/>
    <polygon points="227.2336,604.6013 233.9584,603.6121 240.5547,601.9719 246.9596,599.6963 253.1121,596.807 259.2678,593.1219 264.7206,589.0637 269.7517,584.4932 274.3131,579.4539 278.3614,573.9938 282.0353,567.8314 284.9135,561.6737 287.1775,555.2647 288.8058,548.6654 289.7828,541.9389 290.0993,535.1491 289.7521,528.3608 288.7447,521.6387 287.0866,515.0469 284.7937,508.6482 281.8877,502.5035 278.3964,496.6715 274.113,490.9161 269.5288,485.8975 264.4771,481.3497 259.0061,477.3163 253.1678,473.8355 247.0179,470.9406 240.615,468.6593 234.0202,467.0131 227.2963,466.0178 220.5074,465.683 213.7182,466.0117 206.623,467.075 200.0357,468.751 193.6432,471.0613 187.5065,473.9839 181.684,477.491 176.2312,481.5492 171.2002,486.1197 166.6388,491.1591 162.5905,496.6191 159.0939,502.448 156.0383,508.9392 153.7743,515.3482 152.146,521.9475 151.169,528.6741 150.8526,535.4639 151.1997,542.2521 152.2071,548.9742 153.8652,555.566 156.1582,561.9648 159.0642,568.1094 162.5555,573.9414 166.5988,579.4051 171.1557,584.4486 176.1826,589.0237 181.6317,593.0868 187.451,596.5991 193.5851,599.5273 199.9755,601.8434 206.5613,603.5254 213.6555,604.5951 220.4444,604.93"/>
    <line x1="239.2056" x2="586.9879" y1="612.7301" y2="547.9846"/>
    <line x1="587.0576" x2="261.0116" y1="548.3586" y2="609.0576"/>
    <line x1="260.8724" x2="586.9183" y1="608.3095" y2="547.6105"/>
    <line x1="586.8486" x2="282.5391" y1="547.2365" y2="603.8888"/>
    <line x1="282.8177" x2="587.1272" y1="605.385" y2="548.7327"/>
    <line x1="587.1968" x2="304.6237" y1="549.1067" y2="601.7125"/>
    <line x1="304.2059" x2="586.779" y1="599.4682" y2="546.8624"/>
    <line x1="586.7094" x2="325.8726" y1="546.4884" y2="595.0475"/>
    <line x1="326.4297" x2="587.2665" y1="598.0399" y2="549.4808"/>
    <line x1="587.3361" x2="348.2358" y1="549.8548" y2="594.3674"/>
    <line x1="347.5394" x2="586.6397" y1="590.6269" y2="546.1143"/>
    <line x1="586.5701" x2="369.2062" y1="545.7403" y2="586.2062"/>
    <line x1="370.0418" x2="587.4057" y1="590.6948" y2="550.2289"/>
    <line x1="587.4754" x2="391.8478" y1="550.6029" y2="587.0223"/>
    <line x1="390.8729" x2="586.5005" y1="581.7856" y2="545.3662"/>
    <line x1="586.4308" x2="412.5397" y1="544.9921" y2="577.3649"/>
    <line x1="413.6538" x2="587.545" y1="583.3498" y2="550.977"/>
    <line x1="587.6146" x2="435.4599" y1="551.351" y2="579.6772"/>
    <line x1="434.2064" x2="586.3612" y1="572.9443" y2="544.6181"/>
    <line x1="586.2916" x2="455.8732" y1="544.244" y2="568.5236"/>
    <line x1="457.2659" x2="587.6843" y1="576.0047" y2="551.7251"/>
    <line x1="587.7539" x2="479.0719" y1="552.0991" y2="572.3321"/>
    <line x1="477.5399" x2="586.2219" y1="564.103" y2="543.87"/>
    <line x1="586.1523" x2="499.2067" y1="543.4959" y2="559.6823"/>
    <line x1="500.878" x2="587.8235" y1="568.6596" y2="552.4732"/>
    <line x1="587.8932" x2="522.684" y1="552.8473" y2="564.987"/>
    <line x1="520.8735" x2="586.0826" y1="555.2617" y2="543.1219"/>
    <line x1="586.013" x2="542.5402" y1="542.7478" y2="550.841"/>
    <line x1="544.49" x2="587.9628" y1="561.3145" y2="553.2213"/>
    <line x1="588.0325" x2="566.2961" y1="553.5954" y2="557.642"/>
    <line x1="564.207" x2="585.9434" y1="546.4204" y2="542.3738"/>
    <polygon points="585.8737,541.9997 239.2056,612.7301 588.1021,553.9694"/>
    <line x1="551.9489" x2="517.8511" y1="498.7327" y2="974.0296"/>
    <polygon points="635.137,923.1513 640.0796,920.653 521.7145,692.6185"/>
    <line x1="635.4665" x2="620.014" y1="922.9848" y2="892.4136"/>
    <line x1="624.2976" x2="639.7501" y1="890.2484" y2="920.8196"/>
    <line x1="639.4206" x2="608.5156" y1="920.9861" y2="859.8438"/>
    <line x1="604.891" x2="635.796" y1="861.6759" y2="922.8182"/>
    <line x1="636.1255" x2="589.768" y1="922.6517" y2="830.9382"/>
    <line x1="592.7335" x2="639.0911" y1="829.4392" y2="921.1527"/>
    <line x1="638.7616" x2="576.9515" y1="921.3192" y2="799.0346"/>
    <line x1="574.645" x2="636.455" y1="800.2005" y2="922.4851"/>
    <line x1="636.7845" x2="559.522" y1="922.3186" y2="769.4628"/>
    <line x1="561.1695" x2="638.4321" y1="768.63" y2="921.4858"/>
    <line x1="638.1026" x2="545.3875" y1="921.6524" y2="738.2254"/>
    <line x1="544.399" x2="637.114" y1="738.725" y2="922.152"/>
    <line x1="637.4435" x2="529.276" y1="921.9855" y2="707.9873"/>
    <line x1="529.6055" x2="637.773" y1="707.8208" y2="921.8189"/>
    <line x1="450.4745" x2="273.2006" y1="697.3849" y2="336.4836"/>
    <polygon points="288.8469,338.2278 197.7631,274.0781 148.5742,343.9195 239.6581,408.0692"/>
    <line x1="322.9801" x2="278.207" y1="329.4088" y2="233.3052"/>
    <line x1="278.5501" x2="334.5165" y1="233.1453" y2="353.2748"/>
    <line x1="338.6341" x2="282.6677" y1="351.3565" y2="231.227"/>
    <line x1="282.3246" x2="349.4843" y1="231.3869" y2="375.5423"/>
    <line x1="346.053" x2="278.8933" y1="377.1408" y2="232.9855"/>
    <line x1="279.2364" x2="357.5894" y1="232.8256" y2="401.0069"/>
    <line x1="360.3344" x2="281.9814" y1="399.728" y2="231.5467"/>
    <line x1="281.6383" x2="371.1846" y1="231.7066" y2="423.9138"/>
    <line x1="369.1258" x2="279.5795" y1="424.8729" y2="232.6658"/>
    <line x1="279.9226" x2="380.6622" y1="232.5059" y2="448.739"/>
    <line x1="382.0347" x2="281.2952" y1="448.0995" y2="231.8665"/>
    <line x1="280.952" x2="392.8849" y1="232.0263" y2="472.2853"/>
    <line x1="392.1986" x2="280.2658" y1="472.605" y2="232.346"/>
    <line x1="280.6089" x2="403.735" y1="232.1862" y2="496.471"/>
    <polygon points="403.735,496.471 284.3833,230.4277 276.8345,233.9446"/>
    <polygon points="380.8068,502.512 378.754,499.5463 253.0629,588.7411"/>
    <line x1="380.6015" x2="355.258" y1="502.2154" y2="519.7578"/>
    <line x1="353.6158" x2="378.9593" y1="517.3852" y2="499.8429"/>
    <line x1="379.1645" x2="328.4776" y1="500.1394" y2="535.2242"/>
    <line x1="329.7093" x2="380.3962" y1="537.0036" y2="501.9188"/>
    <line x1="380.1909" x2="304.1605" y1="501.6223" y2="554.2495"/>
    <line x1="303.3394" x2="379.3698" y1="553.0632" y2="500.436"/>
    <line x1="379.5751" x2="278.2012" y1="500.7326" y2="570.9021"/>
    <line x1="278.6117" x2="379.9857" y1="571.4953" y2="501.3257"/>
    <line x1="379.7804" x2="253.0629" y1="501.0291" y2="588.7411"/>
    <polygon points="264.6066,588.5534 269.6215,583.9631 274.1615,578.9025 277.9735,573.7353 281.4689,567.9041 284.3748,561.7579 286.6633,555.356 288.3121,548.7604 289.3053,542.0348 289.6333,535.2441 289.293,528.4541 288.2877,521.7302 286.627,515.1376 284.327,508.7399 281.41,502.5989 277.9041,496.774 274.0828,491.6137 269.5337,486.5613 264.5105,481.98 259.0617,477.9141 253.2401,474.4028 247.1018,471.48 240.7062,469.1741 234.1151,467.5073 227.3922,466.4958 220.6025,466.1492 213.8115,466.4709 207.085,467.4579 200.4878,469.1005 194.0838,471.383 187.9349,474.2833 182.1005,477.7732 176.6369,481.8192 171.5969,486.3821 167.0294,491.4178 162.9783,496.8776 159.4829,502.7088 156.577,508.855 154.2886,515.2569 152.6398,521.8525 151.6466,528.5782 151.3185,535.3688 151.6588,542.1589 152.6642,548.8827 154.3248,555.4754 156.6248,561.8731 159.5418,568.0141 163.0477,573.839 167.1086,579.2915 171.6852,584.3189 176.7334,588.8727 182.2043,592.9088 188.045,596.3883 194.1991,599.2774 200.6072,601.5483 207.2073,603.1791 213.9357,604.154 220.7272,604.4634 227.5163,604.1046 234.2374,603.0809 240.8254,601.4022 247.2169,599.0848 253.3499,596.151 259.1652,592.6292"/>
    <polygon points="287.473,555.8964 289.2266,548.9411 290.2238,542.219 290.5654,535.4318 290.2112,528.2676 289.2017,521.5472 287.5462,514.9562 285.1151,508.2078 282.1869,502.0753 278.6786,496.2551 274.6231,490.8021 270.0586,485.7675 265.028,481.1985 259.2645,476.9284 253.4287,473.4464 246.9336,470.4023 240.5237,468.1452 233.9253,466.5193 227.2005,465.5402 220.4124,465.2169 213.6249,465.5525 206.9019,466.5438 200.3064,468.1816 193.5515,470.5946 187.4111,473.5062 181.5815,476.9988 176.1176,481.0396 171.0707,485.5905 166.4882,490.6088 162.2026,496.3607 158.7048,502.1872 155.7878,508.325 153.4788,514.7165 151.7253,521.6718 150.728,528.394 150.3864,535.1811 150.7406,542.3454 151.7501,549.0657 153.4056,555.6567 155.6917,562.0564 158.765,568.5377 162.2733,574.3578 166.5693,580.102 171.1609,585.1119 176.2161,589.6537 181.6873,593.6845 187.5232,597.1666 193.6689,600.0671 200.0665,602.3588 206.6561,604.0201 213.3755,605.0355 220.1618,605.3954 226.9509,605.0964 234.05,604.0691 240.6454,602.4313 247.0512,600.1625 253.2072,597.284 259.3703,593.6141 264.8342,589.5734 269.8811,585.0225 274.7037,579.7126 278.7493,574.2522 282.247,568.4258 285.1641,562.2879"/>
    <line x1="307.0989" x2="159.0629" y1="533.3909" y2="391.6134"/>
    <line x1="159.3234" x2="286.2114" y1="391.3414" y2="512.8649"/>
    <line x1="285.6903" x2="158.8024" y1="513.409" y2="391.8855"/>
    <line x1="158.5418" x2="264.2818" y1="392.1575" y2="493.4271"/>
    <line x1="265.324" x2="159.584" y1="492.339" y2="391.0694"/>
    <line x1="159.8445" x2="244.4365" y1="390.7973" y2="471.813"/>
    <line x1="242.8733" x2="158.2813" y1="473.4452" y2="392.4296"/>
    <line x1="158.0207" x2="221.4647" y1="392.7016" y2="453.4634"/>
    <line x1="223.549" x2="160.1051" y1="451.287" y2="390.5253"/>
    <line x1="160.3656" x2="202.6616" y1="390.2532" y2="430.7611"/>
    <line x1="200.0562" x2="157.7602" y1="433.4815" y2="392.9736"/>
    <line x1="157.4997" x2="178.6476" y1="393.2457" y2="413.4996"/>
    <line x1="181.7741" x2="160.6261" y1="410.2351" y2="389.9812"/>
    <polygon points="157.2391,393.5177 307.0989,533.3909 160.8867,389.7092"/>
    <line x1="97.1938" x2="362.6049" y1="361.8332" y2="585.7919"/>
    <line x1="384.0224" x2="672.4802" y1="581.1683" y2="211.7734"/>
    <polygon points="616.3264,350.1911 408.0387,320.8025 397.5529,395.1193 605.8406,424.5079"/>
    <polygon points="544.9925,396.6451 549.8876,396.2575 554.7232,395.4036 559.8134,393.9717 564.385,392.1793 569.0921,389.7699 573.2194,387.1096 577.3576,383.8177 580.878,380.3944 584.055,376.6502 587.0589,372.2985 589.4335,368.0004 591.3862,363.4949 592.8992,358.8234 594.0211,353.656 594.5813,348.7776 594.6725,343.868 594.2454,338.5975 593.3649,333.7667 592.0265,329.0421 590.0872,324.1228 587.8418,319.7558 585.1891,315.6236 581.9048,311.4793 578.488,307.9526 574.7496,304.7688 570.724,301.957 566.4479,299.5429 561.9607,297.5488 556.9392,295.8917 552.1464,294.8234 546.8965,294.1911 541.6094,294.1026 536.7158,294.5082 531.8833,295.3799 526.7984,296.8305 522.2334,298.6398 517.8623,300.8772 513.7252,303.5223 509.8599,306.5508 506.3019,309.935 502.8512,313.9417 500.032,317.9622 497.6101,322.2338 495.6077,326.7174 493.9413,331.7358 492.8642,336.5266 492.2223,341.7753 492.113,346.6845 492.4735,351.5817 493.3006,356.422 494.7044,361.5201 496.4715,366.1015 498.6686,370.493 501.4923,374.9637 504.5137,378.8346 508.1651,382.6593 511.8917,385.8569 515.907,388.6835 520.5117,391.2831 525.0063,393.2607 529.6694,394.7995 534.8305,395.9499 539.7057,396.5371"/>
    <polygon points="520.7837,440.4599 532.3008,480.4559 599.979,460.9675 588.4619,420.9715"/>
    <polygon points="452.1919,439.6173 446.1531,439.5234 440.1351,440.0325 434.1978,441.1395 428.4007,442.8332 423.1445,444.9391 417.7815,447.7166 413.0287,450.7945 408.3004,454.552 403.9706,458.7625 400.0823,463.3839 396.8728,468.0488 393.9465,473.332 391.5618,478.8809 389.7427,484.6399 388.567,490.1788 387.8899,496.1803 387.8149,502.2194 388.2922,507.8616 389.3806,513.8022 391.0562,519.6047 393.3023,525.211 396.0966,530.5652 399.4111,535.614 403.2127,540.3069 407.1855,544.3416 411.8191,548.2154 416.494,551.4103 421.7863,554.3201 427.3426,556.6875 433.1073,558.4887 439.0229,559.7058 444.6534,560.3054 450.6927,560.3615 456.3334,559.8666 462.2706,558.7597 468.0678,557.0659 473.667,554.8023 479.0125,551.9913 483.746,548.8838 488.4508,545.0969 492.4979,541.1367 496.3861,536.5152 499.7938,531.5289 502.6871,526.2275 504.9066,521.0183 506.7258,515.2592 507.9015,509.7203 508.5539,504.0957 508.6666,498.0572 508.1763,492.0376 507.1732,486.4648 505.5339,480.652 503.3228,475.0318 500.7502,469.9876 497.499,464.8978 493.7563,460.1577 489.5593,455.8147 484.9501,451.9121 480.2952,448.6881 475.0211,445.7452 469.4798,443.3433 464.0912,441.604 458.1912,440.3131"/>
    <polygon points="412.4501,518.7297 411.1256,521.8519 410.3891,525.5461 410.415,528.9374 411.093,532.2604 412.3979,535.3908 414.2809,538.2115 416.6715,540.6172 419.4804,542.5177 422.6025,543.8422 425.9212,544.5411 429.3123,544.5882 433.0111,543.8748 436.1415,542.5699 438.9622,540.6869 441.3678,538.2963 443.2684,535.4875 444.5929,532.3653 445.2917,529.0466 445.3035,525.2797 444.6255,521.9567 443.3206,518.8264 441.4376,516.0056 439.047,513.6 436.2381,511.6994 433.116,510.375 429.7973,509.6761 426.0304,509.6643 422.7074,510.3424 419.577,511.6473 416.7563,513.5302 414.3507,515.9208"/>
    <polygon points="409.8719,525.4778 409.8838,528.8659 410.5283,532.1922 411.958,535.6733 413.8374,538.4924 416.2103,540.9109 418.993,542.8437 422.4463,544.3395 425.7597,545.0473 429.5227,545.0929 432.8523,544.4658 436.3409,543.0543 439.1698,541.1896 441.8423,538.5401 443.7313,535.7274 445.0617,532.6114 445.8286,528.927 445.852,525.539 445.1362,521.8444 443.849,518.7103 441.9991,515.8717 439.6517,513.4286 436.5608,511.2818 433.4517,509.9351 429.7715,509.149 426.3836,509.1079 423.0476,509.7002 419.5445,511.0752 416.4024,513.1463 413.9963,515.5318 411.8982,518.6559 410.6003,521.7856"/>
    <polygon points="407.7124,543.221 412.327,547.1207 416.993,550.3324 422.2833,553.2505 427.4888,555.484 432.8837,557.2104 438.7916,558.4754 444.7975,559.1326 450.4616,559.1904 456.1054,558.7074 462.045,557.6011 467.8412,555.896 473.0912,553.7693 478.1144,551.1513 482.8647,548.0658 487.2988,544.541 491.6346,540.3334 495.5195,535.7063 498.7163,531.0301 501.4522,526.0702 503.7022,520.8718 505.4458,515.4824 506.7297,509.5786 507.3817,503.9519 507.4819,497.9109 506.9667,491.8912 505.9295,486.3225 504.2429,480.521 502.1329,475.2642 499.5309,470.2327 496.2398,465.166 492.4502,460.4605 488.4795,456.4208 484.1414,452.7785 479.4754,449.5668 474.5243,446.8151 468.9796,444.4152 463.2195,442.5921 457.6769,441.4237 451.671,440.7666 446.0068,440.7087 440.363,441.1917 434.7911,442.2112 428.9842,443.8793 423.7207,445.9725 418.681,448.5585 413.6038,451.8334 408.8862,455.608 404.8339,459.5658 401.1777,463.8923 397.7521,468.869 394.8509,474.1686 392.634,479.3812 390.9248,484.7816 389.7387,490.3205 389.0625,496.3243 388.9866,501.9882 389.4516,507.6335 390.4533,513.2087 392.1029,519.0209 394.1793,524.291 396.9375,529.6664 400.0079,534.4266 403.5185,538.8719"/>
    <polygon points="421.9777,545.8313 425.6613,546.6099 429.4259,546.6708 433.1328,546.0116 436.9811,544.4846 440.4234,542.1843 443.0711,539.5075 445.159,536.3743 446.61,532.9002 447.371,529.2128 447.3782,525.0726 446.6302,521.3826 445.1913,517.9034 443.1144,514.763 440.4761,512.0769 437.0418,509.7646 433.5607,508.3302 429.8697,507.587 425.7295,507.5996 422.0432,508.3654 418.5709,509.821 415.4405,511.9129 412.7672,514.5641 410.6494,517.677 409.165,521.1371 408.3687,524.817 408.2897,528.5812 408.9311,532.2912 410.4396,536.1468 412.7234,539.6002 415.3874,542.2607 418.5105,544.3636"/>
    <polygon points="439.924,541.9204 442.5968,539.2639 444.5146,536.4652 446.0273,533.0137 446.833,529.3324 446.9004,525.5646 446.2268,521.8568 444.8385,518.3534 442.7895,515.1907 440.1595,512.4918 437.0509,510.3616 433.5846,508.8831 429.8955,508.1138 426.1272,508.0837 422.4263,508.7938 418.9368,510.2166 415.7945,512.2968 413.1217,514.9533 411.0223,518.0828 409.5781,521.5635 408.8453,525.26 408.8524,529.0285 409.5991,532.7222 411.0563,536.1975 413.1674,539.3191 415.559,541.7254 418.6676,543.8555 422.1339,545.334 425.823,546.1033 429.5913,546.1335 433.2922,545.4233 436.7817,544.0005"/>
    <polygon points="442.1219,539.02 444.2334,535.8944 445.5589,532.7678 446.2932,529.4522 446.3867,525.6813 445.7168,521.9693 444.4833,518.8053 442.6946,515.9186 440.1293,513.1533 437.0583,510.963 433.6084,509.4379 430.2966,508.6868 426.5262,508.5741 423.1755,509.1262 419.6406,510.4425 416.4444,512.4456 413.7185,515.0528 411.7606,517.8275 410.2181,521.2697 409.4024,524.9525 409.3182,528.3474 409.9504,532.066 411.3205,535.5804 413.372,538.7458 415.7317,541.1879 418.8248,543.3469 422.2901,544.8368 425.6094,545.5542 429.3807,545.6286 433.0892,544.9398 436.2469,543.6902 439.4226,541.6548"/>
    <polygon points="461.5646,557.1088 467.3711,555.4352 472.6316,553.3316 477.6648,550.7307 482.4237,547.6565 486.8641,544.1379 491.2029,539.9317 494.8576,535.6026 498.2764,530.6198 501.0003,525.652 503.2326,520.4448 504.9524,515.0467 506.2041,509.1348 506.8196,503.5029 506.8893,497.8378 506.4124,492.1924 505.3935,486.6192 503.7199,480.8127 501.6163,475.5522 499.0153,470.519 495.9412,465.76 492.1729,461.036 488.2163,456.9809 483.8872,453.3262 478.9044,449.9074 473.9367,447.1835 468.7295,444.9512 462.9659,443.1354 457.4195,441.9797 451.7875,441.3642 446.1224,441.2945 440.477,441.7714 434.9039,442.7903 429.4549,444.3419 423.8368,446.5675 418.8036,449.1685 414.0447,452.2426 409.3206,456.0109 405.2655,459.9674 401.6108,464.2966 398.3905,468.9579 395.4681,474.2471 393.2358,479.4543 391.516,484.8525 390.2643,490.7643 389.6488,496.3963 389.5791,502.0614 390.1072,508.0812 391.162,513.6476 392.7486,519.0864 394.8521,524.347 397.6436,529.7064 400.7484,534.4455 404.2955,538.8632 408.2521,542.9182 412.5812,546.573 417.564,549.9917 422.5317,552.7157 427.7389,554.9479 433.5026,556.7638 439.049,557.9195 444.6809,558.535 450.346,558.6046 455.9914,558.1278"/>
    <polygon points="462.1578,558.1804 467.5975,556.6043 473.2076,554.3649 478.5636,551.5715 483.3054,548.4749 488.0165,544.694 492.0662,540.735 495.9528,536.1108 499.156,531.4403 502.07,526.149 504.3046,520.9451 506.0375,515.5533 507.3156,509.6495 507.9923,503.6469 508.0743,497.9841 507.6209,492.3389 506.5517,486.3936 504.889,480.5863 502.806,475.3199 500.0465,469.9464 496.7595,464.8784 492.9787,460.1673 489.0197,456.1176 484.3954,452.231 479.7249,449.0278 474.4336,446.1138 469.2297,443.8792 463.473,442.049 457.9341,440.8682 452.3084,440.216 446.2687,440.1095 440.249,440.6121 434.6782,441.6321 428.871,443.2948 423.6046,445.3778 418.2311,448.1373 413.163,451.4243 408.4519,455.2051 404.4022,459.1641 400.5156,463.7884 397.3124,468.4588 394.3985,473.7502 392.1639,478.9541 390.3337,484.7108 389.1528,490.2497 388.4761,496.2523 388.4077,502.2925 388.8968,507.9348 390.0034,513.8732 391.5795,519.3128 393.8189,524.923 396.6123,530.279 399.7089,535.0208 403.2397,539.4488 407.4488,543.7816 412.073,547.6682 416.7435,550.8714 421.6957,553.619 427.2387,556.0199 432.9954,557.8501 438.5343,559.0309 444.5369,559.7076 450.5772,559.776 456.2194,559.287"/>
    <polygon points="493.5557,524.1611 515.5251,544.5674 558.4233,498.3834 536.4539,477.977"/>
    <polygon points="522.1777,618.2217 568.0856,590.6813 525.4163,519.5547 479.5084,547.0951"/>
    <polygon points="641.5099,625.9644 643.6631,621.9815 645.2775,618.1577 646.6303,613.8369 647.5438,609.4023 648.0089,604.8986 648.0371,600.748 647.6335,596.2384 646.7804,591.7918 645.6109,587.8093 643.9243,583.6075 641.8256,579.5957 639.3358,575.814 636.7313,572.5822 633.5651,569.3457 630.0909,566.4423 626.3435,563.9013 622.3606,561.7482 618.5368,560.1337 614.5809,558.8771 610.1542,557.9265 605.6545,557.4239 601.1271,557.3741 596.9915,557.7269 592.5379,558.5428 588.1884,559.8004 583.9866,561.487 579.9747,563.5857 576.4985,565.8536 572.9613,568.6799 569.7247,571.8461 566.8214,575.3204 564.2804,579.0678 562.1272,583.0507 560.5128,586.8745 559.16,591.1954 558.2465,595.6299 557.7814,600.1336 557.7532,604.2842 558.1569,608.7938 558.9219,612.8734 560.1794,617.2229 561.866,621.4247 563.9647,625.4366 566.2327,628.9128 569.059,632.45 572.2252,635.6865 575.6994,638.5899 579.4468,641.1309 583.4298,643.284 587.2536,644.8985 591.2094,646.1552 595.6362,647.1057 600.1358,647.6084 604.6632,647.6581 608.7989,647.3053 613.2524,646.4894 617.6019,645.2319 621.8037,643.5453 625.8156,641.4465 629.2919,639.1786 632.8291,636.3523 636.0656,633.1861 638.9689,629.7118"/>
    <line x1="696.507" x2="478.4852" y1="514.8166" y2="148.4901"/>
    <line x1="284.0402" x2="295.2335" y1="230.5876" y2="254.6135"/>
    <line x1="288.3709" x2="277.1776" y1="257.8107" y2="233.7848"/>
    <line x1="277.5207" x2="299.9073" y1="233.6249" y2="281.6767"/>
    <line x1="306.0837" x2="283.6971" y1="278.7992" y2="230.7474"/>
    <line x1="283.354" x2="316.9338" y1="230.9073" y2="302.985"/>
    <line x1="311.4437" x2="277.8639" y1="305.5427" y2="233.4651"/>
    <line x1="283.0108" x2="327.784" y1="231.0672" y2="327.1707"/>
    <line x1="259.9972" x2="161.2742" y1="423.7508" y2="729.1366"/>
    <polygon points="220.41,623.3961 224.0389,622.3645 227.9008,620.8462 231.2607,619.1304 234.4468,617.11 237.7181,614.557 240.7117,611.6833 243.3964,608.5192 245.5453,605.4183 247.5653,601.7936 249.072,598.3348 250.3506,594.3871 251.2196,590.3295 251.6465,586.581 251.7121,582.4319 251.4039,578.6719 250.6635,574.5888 249.6318,570.9599 248.1136,567.098 246.3977,563.7381 244.3774,560.552 241.8243,557.2807 239.2244,554.547 236.0853,551.833 232.6856,549.4535 229.3987,547.6017 225.9541,546.063 222.0184,544.7477 218.3408,543.9063 214.2248,543.3793 210.0765,543.2752 205.9392,543.595 202.2239,544.2508 198.2272,545.367 194.7098,546.731 191.0054,548.6011 187.5113,550.8396 184.5481,553.1745 181.8143,555.7744 179.1003,558.9135 176.7209,562.3132 174.869,565.6001 173.1942,569.3967 172.015,572.9804 171.1736,576.658 170.6466,580.7741 170.5344,584.5451 170.8157,588.6851 171.5182,592.7749 172.516,596.4132 173.9983,600.2891 175.8685,603.9934 178.1069,607.4875 180.4419,610.4508 183.0418,613.1846 186.1808,615.8985 189.5805,618.278 192.8674,620.1298 196.312,621.6685 200.2477,622.9838 204.297,623.8905 208.4178,624.3792 212.1897,624.4564 216.327,624.1366"/>
    <polygon points="324.3271,563.9667 266.9178,630.1911 336.0786,690.1459 393.4879,623.9214"/>
    <polygon points="234.4975,465.2071 227.4004,464.1547 220.2336,463.819 213.0692,464.2033 206.3496,465.2282 199.7577,466.8866 193.0039,469.3079 186.8598,472.2155 180.7051,475.9027 175.243,479.9485 169.9219,484.7613 165.3499,489.7912 161.0652,495.546 157.5575,501.3684 154.4726,507.846 152.0525,514.6001 150.3952,521.1923 149.3334,528.288 148.9884,535.0766 149.3254,542.2433 150.379,549.3402 152.1387,556.2957 154.4411,562.6913 157.3405,568.8392 161.0197,574.9988 165.2977,580.7585 169.864,585.7936 175.1795,590.6125 180.9513,594.8743 186.7875,598.3589 193.2772,601.4181 200.0409,603.8114 207.0105,605.5148 213.7395,606.4763 220.9071,606.7931 228.0705,606.3898 234.7874,605.3472 241.7359,603.5599 248.1222,601.2322 254.2586,598.3084 260.4035,594.6049 265.855,590.5447 271.1633,585.7179 275.961,580.3833 280.1999,574.5947 283.8372,568.4104 286.6949,562.2429 288.9538,555.8319 290.6664,548.8647 291.6368,542.1369 291.963,534.9697 291.5693,527.8058 290.5355,521.0876 288.8683,514.4978 286.4381,507.7473 283.5225,501.607 279.8271,495.4572 275.774,490.0004 270.9543,484.6858 265.6261,479.881 260.1578,475.8433 253.9977,472.1653 247.8492,469.2669 241.0918,466.8557"/>
    <line x1="223.165" x2="337.4373" y1="472.8444" y2="749.4003"/>
    <polygon points="339.5992,777.7042 335.8363,773.4728 331.3936,769.3813 326.8672,765.979 322.0342,763.0284 316.9395,760.557 311.27,758.4749 305.7867,757.0615 300.1928,756.1827 294.5403,755.8469 288.5055,756.0904 282.8984,756.8807 277.3935,758.2074 272.042,760.0581 266.8936,762.4156 261.9962,765.2581 257.1002,768.7947 252.5934,772.8154 248.7642,776.9869 245.3545,781.5078 242.3962,786.336 239.9166,791.4268 237.9389,796.7327 236.4032,802.5739 235.5154,808.1664 235.1705,813.8184 235.4044,819.8535 236.1856,825.4619 237.5034,830.9689 239.4866,836.6737 241.8689,841.8107 244.735,846.6943 248.0581,851.2792 251.8073,855.5227 255.9478,859.3853 260.4412,862.8312 265.5758,866.0114 271.0099,868.6474 276.3253,870.5995 281.804,872.0305 287.395,872.9272 293.0464,873.2813 298.7057,873.0893 304.3202,872.3532 310.2007,870.9759 315.5582,869.1424 320.7141,866.8015 325.6206,863.9748 330.528,860.4539 334.7775,856.7115 338.6468,852.5772 342.3144,847.7787 345.2883,842.96 347.933,837.5301 349.8937,832.2179 351.3335,826.7415 352.2392,821.1519 352.6071,815.1234 352.3879,809.4651 351.6247,803.8543 350.2191,797.9804 348.3598,792.6319 345.994,787.4873 343.1436,782.5944"/>
    <polygon points="299.5198,775.7996 379.1253,847.7894 407.5756,816.3295 327.9701,744.3396"/>
    <line x1="346.8401" x2="205.5009" y1="709.1721" y2="901.9826"/>
    <polygon points="381.1629,754.2851 375.1323,756.4864 369.3512,759.2778 363.877,762.6314 359.0541,766.2715 354.5939,770.3481 350.2965,775.1173 346.4957,780.2911 343.4062,785.484 340.6729,791.2928 338.5321,797.3451 337.0052,803.5807 336.1425,809.5612 335.8449,815.9741 336.1879,822.3847 337.0929,828.359 338.664,834.5835 340.8476,840.6205 343.6219,846.4099 346.7481,851.5808 350.5854,856.7275 354.6489,861.1996 359.4055,865.511 364.568,869.3269 370.0852,872.6094 375.9021,875.3256 381.9606,877.4486 387.8297,878.8858 394.1837,879.8024 400.5974,880.0811 407.007,879.7193 413.3486,878.7205 419.1985,877.2074 425.2291,875.0061 430.6781,872.3948 436.1719,869.0734 441.3074,865.221 446.0333,860.876 450.3027,856.0816 453.8657,851.2015 457.1319,845.6747 459.6885,840.1997 461.8293,834.1474 463.3562,827.9119 464.2542,821.5552 464.5141,815.1407 464.1735,809.1078 463.2685,803.1336 461.6974,796.909 459.5138,790.872 456.7395,785.0826 453.4019,779.5986 449.776,774.7651 445.7125,770.293 440.956,765.9815 435.7934,762.1656 430.2762,758.8832 424.4594,756.1669 418.4008,754.0439 412.5317,752.6067 406.1777,751.6902 399.764,751.4114 393.3544,751.7732 387.0128,752.772"/>
  </g>
</svg>
