<?xml version="1.0" encoding="utf-8" ?>
<svg xmlns="http://www.w3.org/2000/svg" xmlns:cc="http://creativecommons.org/ns" xmlns:dc="http://purl.org/dc/elements/1.1/" xmlns:ev="http://www.w3.org/2001/xml-events" xmlns:inkscape="http://www.inkscape.org/namespaces/inkscape" xmlns:rdf="http://www.w3.org/1999/02/22-rdf-syntax-ns" xmlns:sodipodi="http://sodipodi.sourceforge.net/DTD/sodipodi-0.dtd" xmlns:xlink="http://www.w3.org/1999/xlink" baseProfile="tiny" height="29.7cm" version="1.2" viewBox="0 0 793.7007874015749 1122.5196850393702" width="21.0cm">
  <metadata>
    <rdf:RDF>
      <cc:Work>
        <dc:format>image/svg+xml</dc:format>
        <dc:source>Vsketch with params {'__seed__': 2084758245, 'debug_show_shapes': False, 'debug_draw': False, 'occult': False, 'scale': 1.0, 'area_type': 'RECT', 'width': 12.0, 'height': 14.0, 'num_circ_min': 2, 'num_circ_max': 10, 'circ_rad_min': 0.5, 'circ_rad_max': 2.0, 'num_circ_shaded_min': 0, 'num_circ_shaded_max': 0, 'circ_shaded_rad_min': 0.05, 'circ_shaded_rad_max': 0.5, 'circ_shaded_fill_dist_min': 0.05, 'circ_shaded_fill_dist_max': 0.2, 'num_circ_fill_min': 0, 'num_circ_fill_max': 0, 'circ_fill_rad_min': 0.05, 'circ_fill_rad_max': 0.5, 'num_circ_dash_min': 0, 'num_circ_dash_max': 0, 'circ_dash_rad_min': 0.05, 'circ_dash_rad_max': 0.5, 'num_circ_dot_min': 0, 'num_circ_dot_max': 0, 'circ_dot_rad_min': 0.05, 'circ_dot_rad_max': 0.5, 'circ_dot_dens_min': 400.0, 'circ_dot_dens_max': 800.0, 'circ_dot_dot_rad_min': 0.02, 'circ_dot_dot_rad_max': 0.06, 'num_circ_half_fill_min': 0, 'num_circ_half_fill_max': 0, 'circ_half_fill_rad_min': 0.05, 'circ_half_fill_rad_max': 2.0, 'circ_half_fill_gain_min': 0.4, 'circ_half_fill_gain_max': 0.6, 'num_circ_outer_fill_min': 0, 'num_circ_outer_fill_max': 10, 'circ_outer_fill_rad_min': 0.05, 'circ_outer_fill_rad_max': 2.0, 'circ_outer_fill_gain_min': 0.0, 'circ_outer_fill_gain_max': 0.2, 'num_line_min': 5, 'num_line_max': 8, 'line_length_min': 5.0, 'line_length_max': 13.0, 'num_thick_line_min': 0, 'num_thick_line_max': 0, 'thick_line_length_min': 3.0, 'thick_line_length_max': 7.0, 'num_tri_line_min': 4, 'num_tri_line_max': 8, 'tri_line_length_min': 4.0, 'tri_line_length_max': 10.0, 'tri_line_width_gain_min': 0.02, 'tri_line_width_gain_max': 0.04, 'num_rect_min': 5, 'num_rect_max': 10, 'rect_width_min': 1.0, 'rect_width_max': 4.0, 'rect_height_gain_min': 0.3, 'rect_height_gain_max': 3.0, 'num_rect_shaded_min': 0, 'num_rect_shaded_max': 0, 'rect_shaded_width_min': 0.1, 'rect_shaded_width_max': 1.0, 'rect_shaded_height_gain_min': 0.5, 'rect_shaded_height_gain_max': 2.0, 'rect_shaded_fill_dist_min': 0.05, 'rect_shaded_fill_dist_max': 0.2, 'num_rect_fill_min': 0, 'num_rect_fill_max': 0, 'rect_fill_width_min': 0.1, 'rect_fill_width_max': 1.0, 'rect_fill_height_gain_min': 0.5, 'rect_fill_height_gain_max': 2.0, 'num_rect_dash_min': 0, 'num_rect_dash_max': 0, 'rect_dash_width_min': 0.1, 'rect_dash_width_max': 1.0, 'rect_dash_height_gain_min': 0.5, 'rect_dash_height_gain_max': 2.0, 'num_rect_dot_min': 0, 'num_rect_dot_max': 0, 'rect_dot_width_min': 0.1, 'rect_dot_width_max': 1.0, 'rect_dot_height_gain_min': 0.5, 'rect_dot_height_gain_max': 2.0, 'rect_dot_dens_min': 400.0, 'rect_dot_dens_max': 800.0, 'rect_dot_rad_min': 0.02, 'rect_dot_rad_max': 0.06, 'num_tri_min': 0, 'num_tri_max': 5, 'tri_width_min': 0.5, 'tri_width_max': 4.0, 'tri_height_gain_min': 0.5, 'tri_height_gain_max': 2.0, 'num_tri_shaded_min': 0, 'num_tri_shaded_max': 0, 'tri_shaded_width_min': 0.1, 'tri_shaded_width_max': 1.0, 'tri_shaded_height_gain_min': 0.5, 'tri_shaded_height_gain_max': 2.0, 'tri_shaded_fill_dist_min': 0.05, 'tri_shaded_fill_dist_max': 0.2, 'num_tri_fill_min': 0, 'num_tri_fill_max': 0, 'tri_fill_width_min': 0.4, 'tri_fill_width_max': 1.0, 'tri_fill_height_gain_min': 0.5, 'tri_fill_height_gain_max': 3.0, 'num_tri_dash_min': 0, 'num_tri_dash_max': 0, 'tri_dash_width_min': 0.1, 'tri_dash_width_max': 1.0, 'tri_dash_height_gain_min': 0.5, 'tri_dash_height_gain_max': 2.0, 'num_tri_dot_min': 0, 'num_tri_dot_max': 0, 'tri_dot_width_min': 0.1, 'tri_dot_width_max': 1.0, 'tri_dot_height_gain_min': 0.5, 'tri_dot_height_gain_max': 2.0, 'tri_dot_dens_min': 400.0, 'tri_dot_dens_max': 800.0, 'tri_dot_rad_min': 0.02, 'tri_dot_rad_max': 0.06}</dc:source>
        <dc:date>2023-11-19T21:13:14.411173</dc:date>
      </cc:Work>
    </rdf:RDF>
  </metadata>
  <defs/>
  <g fill="none" id="layer1" inkscape:groupmode="layer" inkscape:label="1" stroke="#0000ff" style="display:inline">
    <polygon points="487.8294,703.5439 484.1848,706.2287 480.877,709.8476 478.3675,714.0595 476.8495,718.3243 476.1334,723.1745 476.3541,727.696 477.5393,732.4534 479.6602,736.8738 482.3735,740.4974 486.0181,743.7768 490.2495,746.2533 494.526,747.738 499.3817,748.4161 504.2744,748.1005 508.6493,746.9377 513.053,744.7824 516.6553,742.0408 519.9061,738.3707 522.1927,734.4638 523.8006,729.8321 524.4408,724.9713 524.1494,720.4538 522.89,715.7155 520.9,711.6495 517.9307,707.748 514.5421,704.7465 510.3106,702.27 506.0342,700.7854 501.5559,700.1242 496.6589,700.3633 492.2663,701.4576"/>
    <polygon points="492.6512,662.7546 491.9783,589.8622 436.3257,590.3759 436.9986,663.2683"/>
    <line x1="535.0608" x2="536.9189" y1="651.9266" y2="788.9131"/>
    <line x1="536.534" x2="535.1404" y1="788.9183" y2="686.1784"/>
    <line x1="540.5292" x2="541.9228" y1="686.1053" y2="788.8452"/>
    <line x1="542.3077" x2="541.3786" y1="788.84" y2="720.3467"/>
    <line x1="535.22" x2="536.1491" y1="720.4303" y2="788.9236"/>
    <line x1="535.7642" x2="535.2996" y1="788.9288" y2="754.6821"/>
    <line x1="542.2281" x2="542.6926" y1="754.5882" y2="788.8348"/>
    <line x1="541.5379" x2="539.6797" y1="788.8505" y2="651.8639"/>
    <line x1="538.8303" x2="541.153" y1="617.6225" y2="788.8557"/>
    <line x1="540.7681" x2="537.9808" y1="788.8609" y2="583.3811"/>
    <line x1="534.9015" x2="537.6887" y1="583.4229" y2="788.9027"/>
    <line x1="537.3038" x2="534.9811" y1="788.9079" y2="617.6747"/>
    <polygon points="571.0984,622.1567 567.5044,628.3514 565.1707,635.1222 564.1847,642.2157 564.2216,645.9891 564.6425,649.7391 566.4815,656.6607 569.619,663.0985 571.754,666.2101 574.1948,669.088 579.5813,673.8077 585.7759,677.4017 592.5467,679.7354 599.6402,680.7214 603.4136,680.6845 607.1636,680.2636 614.0852,678.4246 620.5231,675.2871 623.6346,673.1521 626.5126,670.7113 631.2323,665.3248 634.8263,659.1302 637.1599,652.3594 638.146,645.2659 638.109,641.4925 637.6881,637.7425 635.8492,630.8209 632.7116,624.383 630.5766,621.2715 628.1359,618.3935 622.7494,613.6738 616.5547,610.0798 609.7839,607.7462 602.6904,606.7601 598.917,606.7971 595.167,607.218 588.2454,609.0569 581.8076,612.1945 578.696,614.3295 575.8181,616.7702"/>
    <polygon points="577.805,618.6016 573.315,623.6899 569.9139,629.5622 567.8223,635.6215 566.8765,642.3414 567.2715,649.116 568.8625,655.3257 571.7737,661.4556 575.8342,666.8928 580.8852,671.4247 586.7293,674.8741 593.1378,677.1061 599.8603,678.0333 606.6338,677.6197 613.1934,675.8812 619.2827,672.886 624.6636,668.7511 628.9049,663.9446 632.3382,658.0911 634.5525,651.6765 635.4613,644.9515 635.029,638.1792 633.2725,631.6243 630.2606,625.5433 626.3687,620.4497 621.2928,615.9457 615.4298,612.5285 609.0091,610.3319 602.2817,609.4416 595.5106,609.8925 589.3143,611.5347 583.2086,614.4964"/>
    <polygon points="602.4494,605.8522 594.9283,606.3471 587.6538,608.32 581.2334,611.4931 575.2476,616.0738 570.2863,621.7481 566.5457,628.2917 564.258,635.0782 563.2737,642.551 563.7261,649.6984 565.5145,656.6331 568.7697,663.4313 573.3055,669.4511 578.9426,674.4547 585.4582,678.2441 592.5946,680.6696 600.0699,681.6353 607.2161,681.1651 614.5004,679.2284 620.9364,676.0873 626.945,671.5365 631.9344,665.887 635.5503,659.7052 638.0291,652.587 639.0506,645.1192 638.5745,637.5969 636.6196,630.3174 633.4625,623.8892 628.8968,617.892 623.2348,612.9166 616.7005,609.1597 609.5521,606.7698"/>
    <polygon points="615.3034,611.9788 608.8583,609.8361 602.1196,608.9874 595.3445,609.465 588.7916,611.2508 582.7109,614.2765 577.3345,618.4268 572.8676,623.5431 569.4807,629.4303 567.303,635.8636 566.4176,642.5976 566.8584,649.3752 568.6086,655.9377 571.6012,662.0348 575.7221,667.4337 580.8141,671.9283 587.0272,675.5028 593.4723,677.6454 600.211,678.4942 606.9861,678.0165 613.5391,676.2308 619.6198,673.205 624.9962,669.0548 629.4631,663.9385 632.85,658.0513 635.0277,651.6179 635.913,644.884 635.4722,638.1064 633.7221,631.5438 630.7294,625.4468 626.6085,620.0479 621.5165,615.5532"/>
    <polygon points="615.9192,611.7648 609.1449,609.4411 602.418,608.5475 595.2719,609.0218 588.7221,610.7968 582.3144,613.9955 576.9592,618.1634 572.5028,623.2811 568.9562,629.5031 566.8234,635.9452 565.9658,642.6768 566.4153,649.448 568.1551,656.0072 571.1207,662.1109 575.202,667.5325 580.5523,672.2932 586.4114,675.7167 593.1858,678.0404 599.9127,678.9341 607.0587,678.4597 613.6085,676.6848 620.0162,673.4861 625.3715,669.3181 629.8279,664.2004 633.3744,657.9785 635.5072,651.5363 636.3648,644.8047 635.9154,638.0336 634.1755,631.4744 631.2099,625.3707 627.1287,619.9491 621.7783,615.1883"/>
    <polygon points="636.3586,637.9608 634.492,631.0403 631.4802,624.953 627.1112,619.2707 621.6941,614.5768 615.7934,611.214 608.9939,608.9459 602.256,608.0927 595.1059,608.5946 588.2004,610.516 582.1372,613.5762 576.4898,617.9902 572.0558,623.1348 568.6774,629.0266 566.3913,635.82 565.5203,642.5556 566.0032,649.7071 567.9063,656.6176 570.9504,662.6889 575.3495,668.348 580.4823,672.7956 586.7098,676.3446 593.1525,678.4937 600.2635,679.3941 607.0385,678.9186 613.954,677.0338 620.0333,674.0058 625.4285,669.8803 630.1653,664.5007 633.7307,658.2826 635.8969,651.8457 636.8036,645.1148"/>
    <polygon points="631.9834,657.7874 634.0767,651.7345 635.0094,645.0188 634.5858,638.252 632.8229,631.705 629.991,625.9605 625.8718,620.5751 621.069,616.3382 615.2119,612.9227 608.7919,610.7424 602.4434,609.8967 595.6765,610.3203 589.1296,612.0832 583.385,614.9151 577.9997,619.0343 573.5427,624.1436 570.1927,630.0384 568.1669,636.1142 567.3212,642.4627 567.7448,649.2296 569.5078,655.7765 572.3396,661.5211 576.4588,666.9064 581.5682,671.3634 587.1187,674.5588 593.5387,676.7392 599.8873,677.5849 606.6541,677.1613 613.2011,675.3983 618.9456,672.5665 624.0543,668.7038 628.5679,663.6444"/>
    <polygon points="634.101,658.5547 636.3766,651.7641 637.2559,645.0353 636.8017,637.888 635.0777,631.3247 631.9608,624.8768 627.6328,619.1708 622.2639,614.4311 616.0652,610.8439 609.2806,608.5506 602.1769,607.6411 595.4057,608.0892 588.4838,609.9268 582.3819,612.8961 576.6646,617.2092 571.9108,622.5657 568.3075,628.7549 565.9964,635.5335 565.0684,642.6349 565.56,649.7797 567.4518,656.6871 570.6694,663.0853 574.8267,668.4488 580.2203,673.1604 586.0937,676.5593 592.8662,678.8881 599.9651,679.8347 607.1112,679.3618 614.0235,677.488 620.4301,674.2871 625.8044,670.1439 630.5301,664.7627"/>
    <polygon points="599.9382,680.2831 607.0909,679.8204 614.0158,677.9711 620.4469,674.8064 626.137,670.4478 630.8674,665.0629 634.4565,658.8586 636.7661,652.0734 637.7077,644.9679 637.2449,637.8152 635.3956,630.8903 632.2309,624.4592 627.8724,618.7691 622.4875,614.0387 616.2832,610.4496 609.4979,608.14 602.3924,607.1984 595.2398,607.6612 588.3149,609.5105 581.8838,612.6752 576.1937,617.0337 571.4632,622.4186 567.8742,628.6229 565.5645,635.4082 564.623,642.5137 565.0857,649.6663 566.935,656.5912 570.0997,663.0223 574.4583,668.7124 579.8432,673.4429 586.0475,677.0319 592.8327,679.3416"/>
    <polygon points="573.5695,669.0748 576.2604,671.7244 579.2044,674.0897 582.3716,676.1466 585.7298,677.8741 592.5131,680.1891 596.2268,680.875 599.9907,681.1835 607.1432,680.7219 610.8362,679.9321 614.4309,678.7745 620.8603,675.6069 626.5688,671.2727 629.2117,668.5751 631.5696,665.6251 633.6184,662.4527 635.3375,659.0901 637.6353,652.3011 638.3119,648.5857 638.6109,644.821 638.1313,637.6697 637.3322,633.9787 636.1655,630.3869 632.9816,623.9655 630.8289,620.8626 628.3748,617.9923 622.9729,613.2815 616.7727,609.6857 610.0012,607.3366 606.291,606.6319 602.5288,606.3044 595.374,606.73 591.6771,607.5011 588.0766,608.6406 581.6312,611.7758 578.5122,613.905 575.6233,616.3374 570.8718,621.7034 568.807,624.8655 567.071,628.2193 564.7389,634.9967 563.7403,642.0942 563.7647,645.8706 564.1692,649.6254 564.9497,653.3204 566.0982,656.918 569.2497,663.3554"/>
    <line x1="630.4654" x2="428.4277" y1="750.9209" y2="441.1314"/>
    <line x1="420.3837" x2="373.9687" y1="422.9133" y2="436.2111"/>
    <line x1="374.0725" x2="397.28" y1="436.5735" y2="429.9246"/>
    <line x1="394.9961" x2="371.7886" y1="421.9527" y2="428.6016"/>
    <line x1="371.8924" x2="418.3074" y1="428.964" y2="415.6662"/>
    <line x1="441.6187" x2="371.9962" y1="409.3797" y2="429.3263"/>
    <line x1="372.1" x2="464.93" y1="429.6887" y2="403.0931"/>
    <line x1="466.591" x2="373.7611" y1="408.8909" y2="435.4864"/>
    <line x1="373.8649" x2="443.4874" y1="435.8488" y2="415.9021"/>
    <line x1="489.6947" x2="373.6572" y1="401.8796" y2="435.124"/>
    <line x1="373.5534" x2="512.7984" y1="434.7617" y2="394.8684"/>
    <line x1="511.5526" x2="372.3077" y1="390.5201" y2="430.4134"/>
    <line x1="372.4115" x2="534.8639" y1="430.7757" y2="384.2336"/>
    <line x1="535.9021" x2="373.4496" y1="387.8572" y2="434.3993"/>
    <line x1="373.3458" x2="559.0058" y1="434.037" y2="380.8459"/>
    <line x1="558.1752" x2="372.5153" y1="377.9471" y2="431.1381"/>
    <line x1="372.6191" x2="581.4866" y1="431.5005" y2="371.6605"/>
    <line x1="582.1094" x2="373.242" y1="373.8347" y2="433.6746"/>
    <line x1="373.1382" x2="605.2131" y1="433.3122" y2="366.8234"/>
    <line x1="604.7979" x2="372.7229" y1="365.374" y2="431.8628"/>
    <line x1="372.8267" x2="628.1092" y1="432.2252" y2="359.0875"/>
    <line x1="628.3168" x2="373.0344" y1="359.8122" y2="432.9499"/>
    <line x1="372.9305" x2="651.4205" y1="432.5875" y2="352.801"/>
    <line x1="560.2961" x2="249.4987" y1="306.6308" y2="517.4725"/>
    <polygon points="247.823,513.3118 246.7816,520.4096 246.4517,527.1981 246.7637,533.9874 247.7862,541.088 249.5107,548.0514 251.9199,554.8086 254.8124,560.9589 258.4804,567.124 262.5055,572.6004 267.2945,577.9417 272.5914,582.7796 278.3438,587.0661 284.4943,590.7585 290.982,593.8201 297.3807,596.1112 304.3373,597.8632 311.0579,598.8762 318.2218,599.2527 325.3876,598.914 332.1134,597.9364 339.0791,596.221 345.8394,593.8207 351.9935,590.9363 358.1634,587.2763 363.6451,583.2585 368.9927,578.4765 373.8375,573.1859 378.1315,567.4392 381.832,561.2935 384.7568,555.1585 387.2016,548.4142 388.9628,541.4599 390.0227,534.3648 390.371,527.1995 390.0412,520.411 389.0,513.3132 387.2573,506.3543 384.8303,499.6035 381.7432,493.1279 378.2375,487.3053 374.198,481.8395 369.3951,476.5108 364.0855,471.6868 358.3219,467.4155 352.1616,463.7392 346.0152,460.8385 339.2613,458.4203 332.3001,456.6866 325.5769,455.6912 318.4121,455.3335 311.2472,455.691 304.5239,456.6863 297.9246,458.3114 291.158,460.694 284.6623,463.7385 278.502,467.4147 272.7383,471.6859 267.4286,476.5098 262.8649,481.5462 258.586,487.3042 254.9016,493.4596 251.8485,499.9512 249.5658,506.3529"/>
    <polygon points="251.4728,506.966 249.7422,513.9321 248.7694,520.6625 248.4546,527.4555 248.8395,534.6231 249.8799,541.3434 251.5678,547.9309 253.8874,554.3234 256.8167,560.4606 260.328,566.2843 264.3882,571.7395 269.2269,577.0412 274.2895,581.5817 279.769,585.6091 285.9479,589.2617 292.118,592.1209 298.5366,594.3675 305.1429,595.9803 311.8746,596.9441 318.6681,597.2497 325.4592,596.8942 332.554,595.8057 339.1393,594.1088 345.5287,591.7806 351.9939,588.6625 357.7937,585.1119 363.2214,581.015 368.2257,576.4104 372.7593,571.3417 376.7793,565.8568 380.2478,560.0075 383.132,553.849 385.4046,547.4396 387.1163,540.4689 388.071,533.7358 388.3674,526.9419 388.0027,520.1514 386.9805,513.4283 385.3104,506.8362 383.008,500.4374 379.9161,493.9596 376.3891,488.1455 372.3142,482.7012 367.7299,477.6783 362.6797,473.1242 357.2111,469.082 351.3759,465.5898 345.2291,462.6807 338.829,460.3822 331.8653,458.6422 325.1362,457.6603 317.9656,457.3377 311.1755,457.7115 304.4538,458.7428 297.864,460.4219 291.1199,462.8794 284.9947,465.8335 279.1853,469.3684 273.7465,473.4507 268.7298,478.0417 264.1826,483.0981 260.1477,488.5722 256.6635,494.4121 253.7627,500.5627"/>
    <polygon points="262.9716,490.1137 259.4774,495.9455 256.7382,501.7529 254.5696,507.7967 252.9917,514.0208 252.0191,520.3678 251.6591,527.1567 251.9548,533.5709 252.9379,540.2979 254.6002,546.8899 256.7783,552.9303 259.5267,558.7334 262.8199,564.2456 266.6275,569.4159 271.1805,574.4646 275.9312,578.7843 281.3889,582.838 286.8969,586.1382 293.0457,589.0384 299.0956,591.1899 305.3242,592.7502 311.6738,593.7048 318.0859,594.0449 324.5009,593.7673 331.2306,592.8032 337.8274,591.1595 343.8738,588.9986 349.6847,586.2666 355.2062,582.989 360.6804,578.9577 365.4488,574.6574 369.782,569.9189 373.8511,564.4727 377.1669,558.9741 379.9389,553.1822 382.1417,547.1508 383.831,540.5656 384.8035,534.2187 385.1636,527.4298 384.8313,520.6395 383.8847,514.2886 382.3323,508.058 380.1885,502.0055 377.473,496.1869 374.0028,490.3409 369.9559,484.8781 365.6422,480.1219 360.5993,475.5626 355.4338,471.7484 349.9257,468.4483 344.1261,465.6926 338.0885,463.5069 331.4985,461.8363 324.7728,460.8446 318.359,460.5408 311.5696,460.8924 305.2215,461.8569 298.9953,463.4269 292.9488,465.5879 286.8046,468.4978 281.3018,471.8066 275.8505,475.8689 271.1065,480.1961 266.8003,484.959"/>
    <polygon points="262.2563,481.025 257.9719,486.7813 254.2754,492.9317 251.2026,499.4163 248.7835,506.1721 247.0417,513.1332 246.0316,519.8562 245.651,527.0219 245.9781,534.1902 247.0097,541.2914 248.7358,548.2565 251.1396,555.0177 254.1976,561.5093 257.8802,567.668 262.1516,573.4341 266.9701,578.7514 272.289,583.5682 278.0565,587.8376 284.2165,591.5182 290.709,594.5741 297.471,596.9757 304.4367,598.6994 311.5383,599.7287 318.3289,600.054 325.4963,599.7083 332.5949,598.6582 339.5555,596.9141 346.3104,594.4928 352.794,591.4179 358.9432,587.7193 364.6981,583.433 370.0029,578.6007 374.8058,573.2693 379.0603,567.4908 382.7249,561.3213 385.7639,554.8208 388.1479,548.0526 389.8536,541.0825 390.8644,533.9782 391.1721,527.1868 390.8078,520.0203 389.7393,512.9245 387.9771,505.9684 385.5382,499.2198 382.4465,492.7442 378.732,486.6047 374.4307,480.8609 369.8525,475.8351 364.5337,471.0183 358.7662,466.7488 352.6062,463.0683 346.1137,460.0123 339.3517,457.6108 332.386,455.887 325.2844,454.8578 318.4938,454.5325 311.3264,454.8782 304.2278,455.9282 297.2672,457.6724 290.5123,460.0937 284.0287,463.1686 277.8795,466.8672 272.1246,471.1535 267.0869,475.7186"/>
    <line x1="252.8852" x2="357.9656" y1="467.8493" y2="457.1491"/>
    <line x1="358.0046" x2="273.9403" y1="457.5319" y2="466.0921"/>
    <line x1="273.6284" x2="357.6927" y1="463.0294" y2="454.4692"/>
    <line x1="357.7317" x2="252.6513" y1="454.852" y2="465.5522"/>
    <line x1="231.6742" x2="357.7706" y1="468.0751" y2="455.2349"/>
    <line x1="357.8096" x2="210.6971" y1="455.6177" y2="470.598"/>
    <line x1="210.7751" x2="357.8876" y1="471.3637" y2="456.3834"/>
    <line x1="357.8486" x2="189.72" y1="456.0005" y2="473.1209"/>
    <polygon points="189.72,473.1209 358.1605,459.0632 357.5367,452.9378"/>
    <polygon points="181.6281,494.3439 334.1741,651.9222 338.2038,647.9189"/>
    <line x1="192.0664" x2="336.3233" y1="504.5822" y2="649.7871"/>
    <line x1="336.0546" x2="191.7978" y1="650.054" y2="504.8491"/>
    <line x1="212.1373" x2="335.786" y1="525.8596" y2="650.3209"/>
    <line x1="335.5173" x2="232.4767" y1="650.5878" y2="546.87"/>
    <line x1="233.82" x2="336.8606" y1="545.5356" y2="649.2533"/>
    <line x1="337.1292" x2="254.6967" y1="648.9864" y2="566.0122"/>
    <line x1="252.8162" x2="335.2487" y1="567.8805" y2="650.8547"/>
    <line x1="334.98" x2="273.1557" y1="651.1216" y2="588.8909"/>
    <line x1="275.5735" x2="337.3978" y1="586.4889" y2="648.7195"/>
    <line x1="337.6665" x2="296.4503" y1="648.4526" y2="606.9655"/>
    <line x1="293.4952" x2="334.7114" y1="609.9014" y2="651.3885"/>
    <line x1="334.4427" x2="313.8346" y1="651.6554" y2="630.9118"/>
    <line x1="317.327" x2="337.9351" y1="627.4422" y2="648.1858"/>
    <line x1="336.5919" x2="212.9432" y1="649.5202" y2="525.0589"/>
    <line x1="203.4568" x2="248.3329" y1="544.6036" y2="335.3533"/>
    <polygon points="261.7237,330.1338 99.1897,483.1361 168.7747,557.0561 331.3087,404.0538"/>
    <polygon points="213.9216,302.5847 209.7501,307.4494 206.592,313.0256 204.5651,319.1049 203.7353,325.838 204.2255,332.2276 205.9353,338.4037 208.8008,344.1357 212.975,349.4835 217.8398,353.655 223.4159,356.8131 229.4953,358.84 236.2284,359.6698 242.618,359.1796 249.1457,357.3324 254.8447,354.4018 259.8739,350.43 264.0453,345.5653 267.2035,339.9891 269.2304,333.9098 270.0602,327.1767 269.57,320.7871 267.8602,314.611 264.7922,308.5603 260.8204,303.5312 255.9556,299.3597 250.3795,296.2016 244.3001,294.1747 237.567,293.3449 231.1774,293.8351 225.0014,295.5449 219.2694,298.4104"/>
    <polygon points="293.6768,400.298 293.5872,404.8194 294.393,409.2692 296.0622,413.4721 298.5292,417.2621 301.6965,420.4899 305.4393,423.0281 309.6099,424.7765 314.0437,425.6662 318.5659,425.662 322.9981,424.7643 326.8324,423.1859 330.6122,420.7033 333.8268,417.5226 336.3495,413.7693 337.9684,409.952 338.9132,405.5296 338.9653,401.0076 338.1227,396.5646 336.4186,392.3757 333.9204,388.6062 331.0162,385.6467 327.2946,383.0776 323.1387,381.2947 319.0873,380.4116 314.5664,380.3033 310.1133,381.0906 305.9035,382.7424 302.1033,385.1937 298.8624,388.3476 296.3088,392.0798 294.5431,396.2431"/>
    <polygon points="293.1733,405.3335 294.0609,409.7637 295.7893,413.9382 298.2932,417.6992 301.4778,420.9042 305.2227,423.4321 309.3861,425.1872 314.1858,426.1401 318.7039,426.1087 323.1305,425.2032 327.2979,423.4579 331.0487,420.9387 334.2408,417.7411 336.7535,413.986 338.4916,409.8155 339.3895,405.3874 339.3753,400.4941 338.4519,396.0712 336.6896,391.9108 334.1553,388.1703 330.9447,384.9912 327.1795,382.4938 323.002,380.7726 318.5702,379.8927 314.052,379.8875 309.6183,380.757 305.4367,382.4685 301.6657,384.9571 298.4477,388.1287 295.9046,391.8632 294.1327,396.0195 293.1989,400.4402"/>
    <polygon points="299.5494,416.3357 302.7251,419.5558 306.1724,421.8608 310.3616,423.5651 314.4389,424.3216 318.5856,424.2771 322.6458,423.4335 326.467,421.8225 329.9056,419.5044 332.8324,416.5666 335.1374,413.1193 336.734,409.292 337.5623,405.2286 337.5911,401.0818 336.7102,396.6459 335.0991,392.8247 332.7811,389.3861 329.8432,386.4593 326.3959,384.1543 322.5686,382.5577 318.5053,381.7294 314.3584,381.7006 310.284,382.4725 306.1013,384.1926 302.6627,386.5106 299.7359,389.4485 297.4309,392.8958 295.8343,396.7231 295.006,400.7864 294.9773,404.9333 295.7491,409.0077 297.2925,412.8568"/>
    <polygon points="313.6489,427.0078 318.1702,427.0782 322.9887,426.2025 327.196,424.5456 331.3178,421.9006 334.821,418.4782 337.5615,414.4194 339.4266,409.891 340.3043,405.4552 340.304,400.5578 339.426,396.122 337.7363,391.9277 335.0591,387.8268 331.6095,384.3504 327.862,381.82 323.3483,379.9196 318.544,378.969 313.6467,379.0075 309.2179,379.9202 305.037,381.6427 300.9571,384.3518 297.7474,387.5368 295.0068,391.5957 293.1417,396.124 292.2641,400.5599 292.2643,405.4573 293.1423,409.8931 295.0078,414.4213 297.5092,418.1883 300.9588,421.6647 304.7064,424.1951 308.86,425.9823"/>
    <line x1="331.3451" x2="302.4256" y1="426.3072" y2="446.3375"/>
    <polygon points="302.2153,446.0339 305.16,450.2854 506.124,307.947"/>
    <line x1="302.6359" x2="360.4749" y1="446.6412" y2="406.5805"/>
    <line x1="362.5783" x2="304.7393" y1="409.6173" y2="449.678"/>
    <line x1="304.9497" x2="333.8691" y1="449.9817" y2="429.9513"/>
    <line x1="336.5597" x2="357.5757" y1="455.4607" y2="453.3207"/>
    <line x1="357.6147" x2="315.5826" y1="453.7035" y2="457.9836"/>
    <polygon points="311.6899,460.0749 305.3421,461.016 298.7506,462.664 292.7068,464.8212 286.5614,467.7192 281.0523,471.0102 275.5876,475.0476 270.8234,479.3467 266.2478,484.3695 262.1999,489.8265 258.7207,495.6624 255.9886,501.4691 253.7103,507.8701 252.1592,514.097 251.206,520.4431 250.8578,527.2285 251.1565,533.6388 252.1341,540.3625 253.7821,546.954 255.9393,552.9978 258.8373,559.1431 262.1283,564.6523 265.9271,569.8242 270.4648,574.8812 275.4876,579.4568 280.9446,583.5046 286.7805,586.9839 292.5872,589.7159 298.6268,591.8847 305.2151,593.5453 311.5612,594.4986 318.3466,594.8467 324.7569,594.5481 331.4806,593.5705 338.0721,591.9225 344.1159,589.7653 350.2612,586.8673 356.0844,583.3666 361.2351,579.5389 366.2666,574.973 370.5749,570.217 374.6227,564.76 378.102,558.924 380.834,553.1174 383.0028,547.0778 384.6634,540.4894 385.6539,533.7676 385.9649,527.3579 385.6662,520.9477 384.6886,514.224 383.0406,507.6325 380.7387,501.2399 377.8064,495.1108 374.4847,489.6202 370.657,484.4695 366.0911,479.438 361.0428,474.8906 355.8781,471.0818 350.3753,467.7803 344.2355,464.8705 337.8345,462.5922 331.6076,461.0411 324.8857,460.0507 318.476,459.7397"/>
    <line x1="316.0504" x2="358.0825" y1="462.5776" y2="458.2976"/>
    <line x1="358.0435" x2="294.9953" y1="457.9147" y2="464.3349"/>
    <line x1="294.6055" x2="357.6537" y1="460.5065" y2="454.0864"/>
    <line x1="357.9266" x2="231.8301" y1="456.7662" y2="469.6065"/>
    <polygon points="229.2935,503.637 297.9318,544.7718 369.8658,424.7412 301.2276,383.6065"/>
    <polygon points="249.2556,527.2539 249.5859,534.0443 250.5813,540.7694 252.2322,547.3643 254.5227,553.7653 257.4307,559.9104 260.9279,565.7403 264.9807,571.1987 269.5498,576.2327 274.5911,580.7938 280.0559,584.8379 285.8914,588.3258 292.0411,591.2239 298.4457,593.5042 305.0433,595.1447 311.77,596.1294 318.1831,596.4486 324.9743,596.1369 331.7022,595.1598 338.3016,593.5269 344.7088,591.2539 350.8618,588.3628 356.7012,584.8815 362.1706,580.8436 367.2172,576.2883 371.792,571.2594 375.851,565.8057 379.3549,559.9798 382.2698,553.838 384.5676,547.4396 386.226,540.8466 387.2291,534.1226 387.5671,527.3326 387.2368,520.5422 386.2414,513.817 384.5904,507.2221 382.2999,500.8212 379.392,494.6761 375.8948,488.8462 371.842,483.3878 367.2729,478.3538 362.2316,473.7927 356.7668,469.7486 350.9313,466.2607 344.7815,463.3625 338.3769,461.0822 331.7794,459.4418 325.4287,458.4944 318.6396,458.1378 311.8483,458.4496 305.1205,459.4266 298.5211,461.0595 292.1139,463.3326 285.9609,466.2237 280.1214,469.705 274.652,473.7428 269.6055,478.2982 265.0307,483.327 260.9717,488.7808 257.4678,494.6067 254.5529,500.7485 252.2551,507.1468 250.5967,513.7399 249.5936,520.4639"/>
    <polygon points="253.395,554.1828 256.472,560.6653 259.9821,566.4875 264.0376,571.9438 268.8684,577.25 273.9212,581.7983 279.3894,585.8378 285.222,589.3306 291.3644,592.2443 298.1208,594.6614 304.7175,596.3052 311.4421,597.3047 318.6095,597.6504 325.399,597.3028 332.4937,596.227 339.081,594.546 345.8237,592.0909 351.9496,589.1427 357.7624,585.617 363.2078,581.5468 368.2349,576.9701 372.7968,571.9295 377.0605,566.1578 380.5376,560.3159 383.5781,553.8161 385.8337,547.4028 387.4598,540.8017 388.4767,533.6983 388.7677,526.9062 388.4019,520.1176 387.3826,513.396 385.7194,506.8042 383.2823,500.0549 380.3506,493.9211 376.8406,488.0989 372.785,482.6427 368.2218,477.6033 363.1935,473.0278 357.4332,468.7487 351.6007,465.2558 345.4583,462.3422 339.0633,460.035 332.1052,458.2813 325.3806,457.2818 318.591,456.936 311.4237,457.2836 304.6994,458.2849 298.1031,459.9304 291.3473,462.3493 285.2057,465.2646 279.3741,468.7589 273.9069,472.7998 268.8553,477.3495 264.2664,482.3655 259.9718,488.1143 256.4633,493.9374 253.5332,500.072 251.0979,506.8219 249.4364,513.4142 248.4189,520.136 248.0539,527.3025 248.4207,534.4689 249.44,541.1905 251.1033,547.7823"/>
    <polygon points="268.243,577.1915 273.2618,581.7746 279.0103,586.0661 285.1638,589.7536 291.3097,592.6553 297.7057,594.954 304.663,596.7028 311.3857,597.7016 318.1732,598.0509 324.9629,597.7473 332.063,596.7218 338.6611,595.0918 345.0724,592.8362 351.5719,589.7999 357.4159,586.33 362.9,582.3155 368.2426,577.5281 372.8324,572.5155 377.1316,566.7727 380.8273,560.6241 383.7372,554.4821 386.0444,548.0892 387.8024,541.1342 388.8473,534.0369 389.1694,527.2481 388.8011,520.0838 387.7847,513.3637 386.1283,506.7722 383.7024,500.0211 380.7847,493.8827 377.0812,487.7389 373.0156,482.2925 368.4463,477.2612 363.1232,472.4521 357.6554,468.4154 351.8255,464.9218 345.3384,461.8591 338.9364,459.5775 331.9744,457.8473 325.2491,456.8664 318.4606,456.5352 311.6718,456.8569 304.5744,457.9013 297.6193,459.659 291.2263,461.9658 285.0841,464.8753 279.2494,468.3607 273.7759,472.3899 268.4461,477.1916 263.8698,482.2164 259.5859,487.9706 255.9067,494.129 253.0132,500.2788 250.723,506.6779 248.9835,513.6375 247.9937,520.3615 247.6537,527.5272 248.0026,534.3148 249.001,541.0375 250.6399,547.6335 253.0477,554.391 255.949,560.5371 259.4266,566.3765 263.4485,571.8553"/>
    <polygon points="273.3269,582.3472 279.1025,586.609 284.9441,590.0904 291.4407,593.1425 297.8496,595.4163 304.8171,597.1412 311.9229,598.1554 318.7167,598.4512 325.8838,598.0584 332.6047,597.0219 339.1959,595.3487 345.5974,593.0539 351.7505,590.1585 357.9141,586.48 363.3835,582.439 368.7102,577.6278 373.2853,572.5966 377.5701,566.838 381.0747,561.0104 384.1527,554.526 386.452,548.1262 388.2046,541.1656 389.2101,534.4401 389.5699,527.2713 389.2429,520.4788 388.196,513.3778 386.5491,506.7799 384.1358,500.0199 381.2323,493.8706 377.5456,487.7119 373.2573,481.956 368.6791,476.9276 363.3494,472.1198 357.8776,468.0821 351.7117,464.4074 345.5568,461.5158 339.1539,459.225 332.1911,457.4816 325.4642,456.485 318.2949,456.1347 311.1268,456.5085 304.4032,457.5271 297.4461,459.2932 291.0508,461.605 284.9053,464.5167 278.7516,468.2115 273.2929,472.2671 267.979,477.0924 263.4173,482.1357 259.1478,487.9057 255.4813,494.0764 252.5979,500.2352 250.3156,506.641 248.5815,513.6062 247.5579,520.7107 247.2531,527.5042 247.6363,534.6717 248.6638,541.394 250.4392,548.3487 252.7595,554.741 255.8586,561.2153 259.3824,567.0314 263.686,572.776 268.2775,577.7922"/>
    <polygon points="272.657,583.3517 278.436,587.6089 284.6083,591.2726 291.1133,594.3068 297.5247,596.5735 304.4912,598.302 311.2186,599.2951 318.3874,599.6535 325.5565,599.2999 332.6552,598.2377 339.6138,596.4775 346.3638,594.0365 352.8387,590.9388 358.9749,587.2149 364.712,582.9013 369.9934,578.0406 374.5295,572.9743 378.7792,567.1898 382.4348,561.0127 385.3175,554.8536 387.7188,548.0894 389.4382,541.1206 390.4226,534.392 390.7716,527.2227 390.4086,520.0541 389.3372,512.9567 387.5679,506.0004 385.1181,499.2536 382.1913,493.1154 378.4914,486.9647 374.4403,481.5028 369.6281,476.1771 364.3119,471.3544 358.544,467.0821 352.3813,463.4023 345.8843,460.3511 339.4789,458.0677 332.5168,456.3211 325.416,455.2728 318.2463,454.9332 311.4543,455.2682 304.3528,456.3118 297.7515,457.945 290.9826,460.333 284.4836,463.3799 278.3185,467.0556 272.5478,471.3241 267.2284,476.1433 262.4127,481.4658 258.1479,487.2392 254.4761,493.4067 251.4334,499.9077 249.0498,506.6781 247.3486,513.6514 246.3467,520.7589 246.0539,527.9307 246.4332,534.7204 247.5232,541.8149 249.3107,548.7666 251.778,555.5069 254.9011,561.9697 258.4368,567.7785 262.7428,573.5212 267.3283,578.5429"/>
    <polygon points="284.1583,591.9409 290.6544,594.9847 297.4173,597.3778 304.3821,599.0969 311.4818,600.1257 318.6481,600.4542 325.8121,600.0793 332.905,599.0046 339.8585,597.2404 346.6058,594.8037 353.082,591.7179 359.2249,588.0126 364.9753,583.7236 370.2781,578.892 375.0822,573.5642 379.3414,567.7916 383.0147,561.6297 386.067,555.1375 388.4687,548.3777 390.1969,541.4151 391.2348,534.3168 391.5726,527.1509 391.2069,519.9864 390.1414,512.8922 388.3862,505.9364 385.9581,499.186 382.8807,492.7058 379.1834,486.5581 374.9017,480.8021 370.077,475.4931 364.7555,470.6822 358.9884,466.4155 352.8311,462.7342 346.3429,459.6736 339.5862,457.2631 332.6259,455.526 325.5289,454.4789 318.3635,454.1319 311.1985,454.4883 304.1029,455.5447 297.1448,457.2909 290.3913,459.7102 283.9071,462.7793 277.7547,466.4687 271.9932,470.7429 266.678,475.5608 261.8601,480.8761 257.5861,486.6377 253.8968,492.7902 250.8278,499.2744 248.4086,506.028 246.5896,513.3567 245.57,520.4577 245.2507,527.6244 245.6348,534.7879 246.7187,541.8794 248.4919,548.8306 250.9373,555.5748 254.0315,562.047 257.7447,568.1851 262.0411,573.93 266.8796,579.2265 272.2135,584.0237 277.9916,588.2755"/>
    <polygon points="292.7182,590.2029 299.1327,592.4553 305.3691,593.984 312.098,594.9534 318.8902,595.2457 325.6775,594.8577 332.0222,593.8703 338.6064,592.1771 344.6403,589.9814 350.44,587.2259 356.2681,583.7257 361.7174,579.6607 366.4668,575.3394 371.027,570.2973 375.0606,564.8248 378.5272,558.9766 381.2493,553.1612 383.4103,547.1147 385.0656,540.5209 386.0537,533.7946 386.3648,527.0033 386.0341,520.5908 385.026,513.8676 383.4614,507.6401 381.1722,501.2387 378.2547,495.0981 374.7383,489.2797 370.899,484.133 366.3238,479.1044 361.5616,474.7973 356.1003,470.7485 350.2618,467.2656 344.1045,464.3836 337.69,462.1312 331.4536,460.6025 324.7247,459.633 318.3104,459.3392 311.521,459.6894 305.1709,460.6415 298.5774,462.298 292.1824,464.6051 286.3827,467.3606 280.5545,470.8608 275.3972,474.6858 270.3559,479.247 265.7957,484.2891 261.7621,489.7616 258.2954,495.6098 255.4305,501.7751 253.1959,508.1958 251.6846,514.4364 250.769,520.7918 250.4579,527.5831 250.7886,533.9956 251.7967,540.7189 253.3613,546.9464 255.6505,553.3478 258.5679,559.4884 261.8738,564.993 265.6845,570.161 270.2317,575.2149 275.2611,579.7891 280.7224,583.8379 286.5609,587.3208"/>
    <polygon points="295.019,581.376 196.1093,608.5985 243.1883,779.655 342.098,752.4326"/>
    <polygon points="305.6403,593.2206 312.3695,594.1739 318.7829,594.4452 325.5686,594.0637 331.9111,593.0753 338.4911,591.3739 344.5178,589.1639 350.306,586.3885 356.1159,582.862 361.5395,578.7663 366.2572,574.4133 370.5376,569.6297 374.3418,564.4592 377.6349,558.9492 380.3868,553.1499 382.6829,546.7531 384.2473,540.5275 385.2102,534.181 385.5642,527.3939 385.2671,520.9816 384.2867,514.2563 382.6316,507.6645 380.464,501.6224 377.7295,495.8149 374.2439,489.9804 370.1864,484.528 365.8666,479.7799 360.821,475.2265 355.656,471.4151 350.1505,468.1143 344.0063,465.2092 337.9616,463.0491 331.3678,461.402 325.0173,460.466 318.2287,460.1405 311.4419,460.5029 305.0966,461.4735 298.8729,463.0455 292.479,465.3494 286.683,468.1085 281.177,471.4083 275.719,475.4581 270.9648,479.7712 266.4043,484.8103 262.5857,489.9701 259.099,495.804 256.3634,501.611 254.1947,507.6527 252.5384,514.2442 251.5568,520.9693 251.2584,527.3815 251.6113,534.1687 252.5729,540.5154 254.2466,547.1025 256.4311,553.1385 259.3609,559.2709 262.684,564.763 266.7567,570.2039 271.0899,574.9399 275.8554,579.2404 281.324,583.2759 287.1726,586.7379 292.9911,589.449 299.4039,591.7001"/>
    <polygon points="318.6581,598.852 325.8236,598.4675 332.5443,597.4429 339.1375,595.7851 345.8929,593.365 352.3719,590.2805 358.1959,586.7735 363.6609,582.7296 368.9854,577.9191 373.8014,572.5995 377.8508,567.1387 381.3638,561.3182 384.4549,554.8424 386.882,548.0895 388.5465,541.498 389.6165,534.4024 389.9705,527.2354 389.642,520.4449 388.598,513.3455 386.9577,506.7479 384.5554,499.9862 381.6656,493.8326 377.9964,487.6658 373.7281,481.8975 369.1705,476.853 363.8636,472.023 358.0997,467.7488 352.27,464.2512 345.786,461.1771 339.0268,458.7679 332.0602,457.0478 324.9564,456.034 318.1646,455.7345 311.375,456.0809 304.2783,457.1436 297.6852,458.8014 290.9298,461.2215 284.4508,464.306 278.6267,467.813 272.8697,472.0965 267.8373,476.6674 263.2613,481.6952 258.9718,487.4478 255.2801,493.6011 252.2232,500.0932 249.8319,506.8588 248.2022,513.459 247.2062,520.184 246.8522,527.3511 247.1806,534.1415 248.2246,541.241 249.865,547.8385 252.2673,554.6003 255.1571,560.7539 258.8263,566.9207 263.0946,572.689 267.6522,577.7335 272.959,582.5635 278.723,586.8377 284.5527,590.3353 291.0366,593.4093 297.7959,595.8185 304.3918,597.4656 311.4901,598.5169"/>
    <polygon points="357.2969,584.9647 362.7397,580.8943 367.7593,576.3122 372.3078,571.2621 376.3416,565.7922 379.8224,559.9547 382.7168,553.8054 384.9973,547.4029 386.642,540.8085 387.6353,534.085 387.9677,527.2967 387.636,520.5083 386.6433,513.7847 384.9993,507.1901 382.7194,500.7875 379.8256,494.6378 376.3454,488.8 372.0726,483.0376 367.4973,478.0118 362.4533,473.4566 356.9889,469.4153 351.1562,465.9266 345.0108,463.0238 338.6114,460.7347 332.0192,459.081 325.2971,458.0786 318.5092,457.737 311.7204,458.0594 304.9955,459.043 298.3987,460.6781 291.9929,462.9492 285.8394,465.8347 279.6825,469.5164 274.2286,473.572 269.1966,478.1404 264.6345,483.1782 260.5858,488.6371 257.0892,494.4651 254.0341,500.9558 251.7711,507.3644 250.1442,513.9633 249.1692,520.6894 248.8552,527.4787 249.2054,534.2661 250.2163,540.9869 251.8783,547.5771 254.1755,553.9735 257.2651,560.4478 260.7927,566.2571 264.8705,571.6944 269.4594,576.7077 274.5157,581.2493 279.9911,585.2757 285.8333,588.7485 291.9865,591.6346 298.3921,593.9064 304.9887,595.5422 311.7136,596.5264 318.5023,596.8495 325.2902,596.5086 332.0125,595.5068 338.6048,593.8538 345.0044,591.5653 351.4829,588.4844"/>
    <polygon points="365.3737,562.2578 281.5168,586.7757 355.5703,684.3919"/>
    <line x1="359.5861" x2="607.7639" y1="550.4335" y2="533.5597"/>
    <line x1="607.7887" x2="395.0648" y1="533.9242" y2="548.3874"/>
    <line x1="395.0153" x2="607.7391" y1="547.6585" y2="533.1953"/>
    <line x1="607.7143" x2="430.4445" y1="532.8308" y2="544.8835"/>
    <line x1="430.5436" x2="607.8134" y1="546.3413" y2="534.2886"/>
    <line x1="607.8382" x2="466.0223" y1="534.653" y2="544.2952"/>
    <line x1="465.8736" x2="607.6895" y1="542.1085" y2="532.4664"/>
    <line x1="607.6648" x2="501.3028" y1="532.1019" y2="539.3336"/>
    <line x1="501.5011" x2="607.863" y1="542.2491" y2="535.0175"/>
    <line x1="607.8878" x2="536.9798" y1="535.3819" y2="540.203"/>
    <line x1="536.732" x2="607.64" y1="536.5586" y2="531.7375"/>
    <line x1="607.6152" x2="572.1612" y1="531.3731" y2="533.7836"/>
    <line x1="572.4586" x2="607.9125" y1="538.1569" y2="535.7464"/>
    <polygon points="607.9373,536.1108 607.5904,531.0086 359.5861,550.4335"/>
    <polygon points="580.1219,496.1723 576.3551,496.2057 572.6659,496.9665 569.1932,498.4262 566.0683,500.5296 563.4088,503.1973 561.3153,506.3289 559.8665,509.806 559.082,513.8733 559.1337,517.6398 559.9125,521.3254 561.389,524.7908 563.5076,527.9055 566.1882,530.552 569.3299,532.6303 572.8141,534.0622 576.5093,534.7935 580.2762,534.7968 583.9727,534.0718 587.7913,532.4668 590.8956,530.3331 593.529,527.6396 595.7638,524.1519 597.1105,520.634 597.7518,516.9221 597.6635,513.1562 596.8489,509.4784 595.3387,506.0275 593.19,502.9335 590.4837,500.3133 587.322,498.2656 583.824,496.8677"/>
    <line x1="535.4325" x2="539.6133" y1="480.6568" y2="788.8766"/>
    <line x1="539.9982" x2="536.2819" y1="788.8713" y2="514.8983"/>
    <line x1="534.7423" x2="538.4586" y1="514.9191" y2="788.8922"/>
    <line x1="538.0737" x2="534.8219" y1="788.8975" y2="549.171"/>
    <line x1="537.1314" x2="540.3831" y1="549.1397" y2="788.8661"/>
    <line x1="539.2284" x2="534.583" y1="788.8818" y2="446.4154"/>
    <line x1="534.6626" x2="538.8435" y1="480.6673" y2="788.887"/>
    <polygon points="535.3793,788.934 543.0775,788.8296 534.583,446.4154"/>
    <line x1="607.3716" x2="527.7799" y1="829.1748" y2="564.0198"/>
    <polygon points="475.8926,507.596 472.7152,510.273 469.8192,513.2521 467.2333,516.5041 464.9831,519.9968 463.0908,523.6956 460.5365,531.1958 459.4435,539.0432 459.4695,543.1979 459.9078,547.3295 460.7542,551.3971 462.0002,555.3606 463.6336,559.1809 465.6382,562.8201 467.9942,566.2423 470.6784,569.4136 476.6153,574.6605 483.4358,578.6927 487.2797,580.2694 491.2612,581.4568 495.3409,582.243 499.4785,582.6203 503.6331,582.5849 507.7637,582.1372 515.4355,580.1569 519.2667,578.5495 522.9194,576.5696 529.2681,571.8293 532.2042,568.8897 534.8339,565.673 537.1313,562.2112 539.0737,558.5384 540.6417,554.6909 541.8201,550.7067 542.5971,546.6253 542.965,542.4868 542.9202,538.3323 542.4632,534.2027 540.4656,526.5355 538.8495,522.7079 536.8614,519.0597 534.5209,515.6269 531.8511,512.4434 525.9379,507.1698 522.4709,504.8802 518.7937,502.9462 514.9427,501.3868 510.9559,500.2175 506.8726,499.4497 502.7334,499.0912 498.5789,499.1453 494.4504,499.6117 486.7877,501.6266 482.9638,503.2514 479.3201,505.2477"/>
    <polygon points="427.633,531.2034 484.0039,569.4342 488.1785,500.0023"/>
    <line x1="401.2174" x2="347.5789" y1="537.5264" y2="742.0098"/>
    <line x1="358.4229" x2="694.5111" y1="654.7543" y2="665.6784"/>
    <polygon points="444.8862,565.2971 446.2901,562.6497 446.5878,560.0405 445.8163,557.1449 443.9806,554.7763 441.369,553.3068 438.3916,552.9671 435.5162,553.8106 433.4404,555.4194 431.9063,557.9935 431.4925,560.9614 432.264,563.8571 434.0997,566.2256 436.7113,567.6951 439.6886,568.0348 442.5641,567.1913"/>
    <polygon points="386.4229,534.133 386.766,527.3453 386.4333,520.557 385.4281,513.8353 383.7604,507.2467 381.5917,501.2049 378.6887,495.0597 375.1898,489.2331 371.1295,483.7828 366.5481,478.7627 361.4907,474.2223 356.3224,470.4152 350.4867,466.9316 344.3339,464.0447 338.2865,461.8919 331.6935,460.2414 324.9692,459.2539 318.1801,458.939 311.3932,459.2998 305.046,460.258 298.4551,461.9166 292.4104,464.0769 286.2611,466.9714 280.4297,470.4623 274.9738,474.515 269.9473,479.0895 265.4,484.1405 261.5857,489.3036 258.094,495.1345 255.3433,500.9344 253.0375,507.3277 251.3779,513.9184 250.3811,520.6414 250.0568,527.4301 250.3711,533.8415 251.3577,540.566 253.0072,547.1592 255.3033,553.556 258.2233,559.6932 261.528,565.1963 265.5732,570.6578 269.874,575.4231 274.8935,580.0053 280.3432,584.0663 286.1693,587.566 291.9654,590.3248 298.3555,592.6394 304.944,594.3081 311.6655,595.3142 318.4537,595.6479 325.2416,595.3058 331.5914,594.3652 338.1869,592.7248 344.5869,590.4375 350.3948,587.7037 356.2358,584.2289 361.7029,580.1913 366.742,575.6307 371.3033,570.5922 375.1317,565.4397 378.6396,559.6185 381.4063,553.8262 383.7298,547.4393 385.4075,540.8532"/>
    <polygon points="388.8071,505.944 386.3914,499.185 383.3284,492.6936 379.6474,486.5316 375.3833,480.7577 370.5768,475.4269 365.2737,470.5898 359.2105,466.0822 353.0508,462.3974 346.2118,459.1867 339.4419,456.8016 332.4718,455.0875 325.3679,454.061 318.1977,453.7316 311.0295,454.1026 303.9317,455.1704 296.9717,456.9249 290.2158,459.3494 283.7283,462.4207 277.5711,466.1096 271.8027,470.3811 266.478,475.1944 261.4082,480.796 257.148,486.5727 253.4711,492.7372 250.4125,499.2306 248.0012,505.9912 246.2604,512.9546 245.2064,520.0546 244.85,527.6014 245.2302,534.769 246.3072,541.8655 248.0706,548.8233 250.5037,555.576 253.7628,562.3921 257.4913,568.5256 261.7997,574.2664 266.6471,579.5601 271.9873,584.3561 277.7695,588.6088 283.9387,592.2778 290.4361,595.3281 297.1998,597.7306 304.1654,599.4626 311.2667,600.5074 318.436,600.8552 325.6051,600.5026 333.0762,599.3786 340.0317,597.6062 346.7813,595.1645 353.2609,592.0765 359.4086,588.3717 365.166,584.0855 370.4783,579.2585 375.2949,573.9368 379.5699,568.171 383.2626,562.016 386.3379,555.5305 388.7665,548.776 390.5253,541.8171 391.5974,534.7199 391.9732,527.1741 391.6114,520.0054 390.5527,512.9062"/>
    <line x1="358.1215" x2="337.1054" y1="458.6804" y2="460.8204"/>
    <polygon points="338.1594,461.4351 331.5628,459.8075 324.8377,458.839 318.0499,458.539 311.6412,458.8721 304.9211,459.8744 298.3327,461.5351 292.2893,463.6935 286.1396,466.5823 280.3049,470.064 274.8425,474.1046 269.8055,478.6645 265.2431,483.6994 261.2,489.16 257.7156,494.993 254.8239,501.1414 252.5532,507.5452 250.9256,514.1418 249.9571,520.8669 249.6561,527.2771 249.9902,534.0633 250.9925,540.7835 252.6532,547.3719 254.9561,553.7642 257.8786,559.898 261.3923,565.7134 265.4628,571.1536 270.0503,576.1655 274.8175,580.4614 280.2781,584.5046 286.1111,587.989 292.2595,590.8807 298.6633,593.1514 305.2599,594.7789 311.985,595.7475 318.7728,596.0475 325.1814,595.7143 331.9016,594.712 338.49,593.0514 344.8823,590.7485 351.0161,587.826 356.5177,584.5225 361.9802,580.4819 367.0172,575.9219 371.5796,570.8871 375.6227,565.4265 379.1071,559.5935 381.8542,553.794 384.16,547.4027 385.8238,540.8151 386.8293,534.0955 387.1666,527.3094 386.8324,520.5231 385.8301,513.803 384.1695,507.2146 381.8666,500.8223 378.9441,494.6885 375.4304,488.8731 371.3599,483.4329 366.7723,478.421 362.0052,474.125 356.5446,470.0819 350.7116,466.5975 344.5632,463.7058"/>
    <line x1="304.529" x2="391.2874" y1="449.3744" y2="389.2832"/>
    <line x1="389.6047" x2="302.8463" y1="386.8538" y2="446.9449"/>
    <line x1="303.0566" x2="418.7346" y1="447.2486" y2="367.1271"/>
    <line x1="419.9966" x2="304.3186" y1="368.9492" y2="449.0707"/>
    <line x1="304.1083" x2="448.7057" y1="448.767" y2="348.6151"/>
    <line x1="447.8644" x2="303.267" y1="347.4004" y2="447.5523"/>
    <line x1="303.4773" x2="476.9942" y1="447.8559" y2="327.6737"/>
    <line x1="477.4149" x2="303.898" y1="328.2811" y2="448.4633"/>
    <line x1="303.6876" x2="506.124" y1="448.1596" y2="307.947"/>
    <line x1="488.2413" x2="372.2038" y1="396.8066" y2="430.051"/>
    <polygon points="374.1763,436.9358 651.4205,352.801 371.6848,428.2392"/>
    <polygon points="337.6838,396.6972 335.9698,392.5079 333.4455,388.7508 330.5079,385.8189 326.7459,383.3018 322.9151,381.705 318.479,380.8051 314.3288,380.7827 309.8833,381.6348 306.0354,383.1902 302.2465,385.6665 299.0354,388.8567 296.7129,392.2963 294.9538,396.4669 294.1114,400.5308 294.0363,404.6805 294.8318,409.1364 296.3382,413.0037 298.7663,416.8238 301.9154,420.0752 305.6559,422.624 309.8339,424.3654 313.9014,425.1906 318.0513,425.2481 322.5038,424.4337 326.7004,422.7374 330.4681,420.229 333.6521,417.0118 335.9454,413.5526 337.6692,409.3673 338.4771,405.2964 338.4823,400.77"/>
    <polygon points="327.3125,382.0456 323.1243,380.3307 318.6863,379.4436 314.1605,379.4169 309.3503,380.3591 305.1692,382.0914 301.102,384.8271 297.9212,388.0466 295.4108,391.8124 293.6625,395.9868 292.7018,400.7934 292.7511,405.6948 293.6918,410.1217 295.4573,414.289 297.9832,418.0443 301.1773,421.2506 305.2558,423.9695 309.4441,425.6844 313.8821,426.5714 318.7837,426.5613 323.218,425.6559 327.3992,423.9237 331.4663,421.188 334.6471,417.9685 337.1575,414.2027 338.9058,410.0282 339.8282,405.5974 339.891,401.0721 338.9871,396.2545 337.111,391.7261 334.5851,387.9708 331.391,384.7644"/>
    <polygon points="314.2201,381.253 310.1513,382.0336 306.303,383.568 302.5184,386.0363 299.3224,389.2302 297.0269,392.6791 295.4236,396.4993 294.5311,400.9286 294.5297,405.0716 295.4192,409.5015 297.2008,413.6538 299.5531,417.0642 302.5068,419.9693 305.9557,422.2648 309.7759,423.8681 314.2052,424.7606 318.3482,424.762 322.7781,423.8725 326.5994,422.2719 330.3408,419.7386 333.246,416.7849 335.5414,413.336 337.1447,409.5158 338.0372,405.0865 338.0387,400.9435 337.2581,396.8747 335.7237,393.0263 333.2554,389.2418 330.0615,386.0457 326.6126,383.7503 322.7924,382.147 318.3631,381.2545"/>
    <polygon points="290.4442,458.8221 283.9406,461.8545 277.4464,465.7114 271.3794,470.2104 266.0691,475.0367 261.2515,480.3549 256.972,486.1148 253.2708,492.2624 250.0377,499.0886 247.6263,505.8471 245.8812,512.8075 244.8188,519.9042 244.4492,527.0705 244.7757,534.2388 245.868,541.7125 247.6067,548.6745 250.0119,555.4352 253.2387,562.2644 256.9343,568.4153 261.2086,574.1792 266.0213,579.5018 271.3271,584.333 277.39,588.8375 283.547,592.5231 290.3815,595.7387 297.1461,598.1328 304.1109,599.8601 311.5864,600.9402 318.7553,601.2549 325.9209,600.8735 333.0159,599.7995 340.3345,597.9319 347.0766,595.475 353.5488,592.3763 359.6903,588.665 365.4433,584.3761 370.7536,579.5498 375.8102,573.939 380.0602,568.1572 383.73,561.9908 386.785,555.4978 389.1963,548.7393 390.9414,541.779 392.0038,534.6823 392.3737,527.1382 392.0106,519.9716 390.9547,512.8739 389.1058,505.5506 386.6661,498.8022 383.584,492.3221 379.8884,486.1711 375.3738,480.1156 370.534,474.8177 365.2036,470.0137 359.4327,465.7489 353.2757,462.0634 346.7905,458.9919 340.0382,456.5632 333.0823,454.8004 325.9883,453.7199 318.4452,453.3307 311.2777,453.6755 304.1774,454.7133 297.211,456.4342"/>
    <polygon points="265.3229,656.5219 342.2276,666.9194 333.3876,589.8202"/>
    <polygon points="238.7587,677.4797 237.6491,670.3971 236.5277,666.79 235.0495,663.3139 231.3139,657.195 226.483,651.898 223.5587,649.5071 220.4088,647.4222 213.9185,644.3772 210.3018,643.2874 206.5939,642.5666 202.8322,642.2222 199.0551,642.2577 191.9724,643.3673 185.2299,645.8034 181.9019,647.5902 178.7703,649.7025 175.8669,652.1188 173.2212,654.8148 168.9976,660.6076 165.9525,667.0978 164.8627,670.7146 164.1419,674.4225 163.7975,678.1841 163.833,681.9613 164.9426,689.044 167.3787,695.7865 169.1655,699.1145 171.2778,702.2461 176.1087,707.543 179.033,709.934 182.1829,712.0188 188.6732,715.0639 192.2899,716.1537 195.9978,716.8745 199.7595,717.2188 203.5366,717.1834 210.6193,716.0738 214.2264,714.9524 217.7025,713.4742 223.8214,709.7386 226.7248,707.3222 229.3705,704.6263 233.5941,698.8335 236.6392,692.3432 237.729,688.7265 238.4498,685.0186 238.7942,681.2569"/>
    <polygon points="202.9289,664.3433 227.8587,655.3572 211.5759,610.1847 186.6462,619.1709"/>
    <polygon points="206.5618,643.6271 199.4074,643.2939 192.3257,644.3651 185.59,646.7995 179.4597,650.5032 174.1714,655.3334 169.9289,661.1039 166.8957,667.5921 165.1889,674.548 164.8742,681.7033 165.9638,688.7821 168.4156,695.5116 172.1352,701.6322 176.979,706.908 182.7604,711.1356 189.2565,714.1519 196.2167,715.8407 203.3728,716.1369 210.4488,715.029 216.8311,712.7224 222.9805,709.0505 228.2937,704.2477 232.5661,698.4993 235.6327,692.0268 237.3755,685.0799 237.7273,677.9263 236.6743,670.842 234.2574,664.0999 230.5696,657.9601 225.7531,652.6593 219.9936,648.4018 213.5132,645.3519"/>
    <polygon points="213.6546,644.8428 206.7062,643.1155 199.5552,642.7588 195.8007,643.1282 192.1033,643.8779 185.3725,646.3193 182.0543,648.1142 178.936,650.2377 173.6766,655.0959 169.4512,660.8761 166.4181,667.3618 165.341,670.9773 164.6376,674.6838 164.3538,681.8381 165.4532,688.9131 167.8946,695.6439 171.5865,701.7785 176.3908,707.0872 179.3068,709.4809 182.4514,711.5652 188.9371,714.5983 195.8855,716.3255 199.6408,716.6862 203.4134,716.6626 210.4884,715.5632 217.2192,713.1218 223.3538,709.4299 228.6625,704.6256 231.0562,701.7096 233.1405,698.565 236.1736,692.0793 237.2507,688.4637 237.9541,684.7573 238.2379,677.603 237.1385,670.528 234.6971,663.7972 231.0052,657.6626 226.2009,652.3539 223.2849,649.9602 220.1403,647.8759"/>
    <polygon points="191.8935,642.2997 184.795,644.8429 178.3268,648.7182 172.7357,653.7775 168.2354,659.8275 166.4498,663.1532 164.8714,666.9932 163.0916,674.3204 162.7709,681.8539 163.9215,689.3059 166.4994,696.3918 170.4063,702.841 175.4928,708.4073 181.5649,712.8779 188.3904,716.0822 195.7089,717.8979 203.2407,718.2555 210.6982,717.1414 217.7967,714.5981 224.2649,710.7229 229.856,705.6636 234.3563,699.6135 236.3023,695.9461 237.7203,692.4479 239.5001,685.1206 239.8208,677.5872 238.6702,670.1352 236.0923,663.0493 232.1854,656.6 227.0989,651.0338 221.0268,646.5632 214.2013,643.3588 206.8828,641.5432 199.351,641.1856"/>
    <polygon points="164.432,689.1749 167.0207,696.2595 170.9557,702.6944 176.0825,708.2269 181.8739,712.4484 188.7099,715.636 196.0403,717.4128 203.2,717.7297 210.6588,716.6077 217.7497,714.0366 224.1944,710.1176 229.7395,705.0046 233.9754,699.2237 237.18,692.3956 238.9749,685.0696 239.2898,677.5335 238.2061,670.4492 235.8135,663.6937 231.9747,657.2009 226.9309,651.5928 220.88,647.0895 214.0599,643.868 206.7384,642.0548 199.2031,641.7212 192.1161,642.7874 185.0125,645.3232 178.5485,649.2102 172.978,654.2956 168.7135,660.0554 165.4751,666.8676 163.6438,674.1845 163.2915,681.719"/>
    <polygon points="221.5054,713.2056 224.6382,711.1022 230.2248,706.0415 234.7368,700.0031 238.0066,693.2112 239.2295,689.2451 239.9708,685.5452 240.3521,681.7912 240.3516,677.6408 239.2272,670.1872 236.6939,663.0876 234.9263,659.7539 232.6211,656.3025 227.5469,650.7282 221.4976,646.2308 218.1763,644.4399 214.3427,642.8497 207.0272,641.0317 203.2723,640.6594 199.1219,640.6699 191.671,641.8122 187.7081,643.0456 184.2371,644.5257 177.8023,648.4518 172.2402,653.5395 167.7574,659.5996 165.9746,662.9252 164.3937,666.7627 162.5933,674.0825 162.2137,678.2155 162.2506,681.9887 163.4109,689.4368 165.9785,696.5241 167.9579,700.172 170.0839,703.2894 175.185,708.8392 181.2559,713.3074 188.0713,716.528 195.3778,718.3813 199.131,718.7717 203.2813,718.7812 210.7377,717.6748 217.8433,715.1586"/>
    <polygon points="497.7875,440.9985 499.0722,435.1065 499.1964,429.0775 498.1556,423.1376 495.8176,417.1736 492.5444,412.1088 488.3559,407.7704 483.4093,404.3213 477.5311,401.7751 471.6315,400.5262 465.6018,400.4385 459.6684,401.5153 454.054,403.7162 448.9695,406.9586 444.6058,411.1208 441.1267,416.0463 438.6629,421.5504 437.2603,427.8009 437.136,433.83 438.1768,439.7698 440.3437,445.3974 443.5552,450.5015 447.9765,455.137 453.2533,458.769 458.8013,461.1323 464.7009,462.3812 470.7306,462.4689 476.664,461.3921 482.6138,459.018 487.6586,455.7141 491.9715,451.4994 495.3906,446.532"/>
  </g>
</svg>
