<?xml version="1.0" encoding="utf-8" ?>
<svg xmlns="http://www.w3.org/2000/svg" xmlns:cc="http://creativecommons.org/ns" xmlns:dc="http://purl.org/dc/elements/1.1/" xmlns:ev="http://www.w3.org/2001/xml-events" xmlns:inkscape="http://www.inkscape.org/namespaces/inkscape" xmlns:rdf="http://www.w3.org/1999/02/22-rdf-syntax-ns" xmlns:sodipodi="http://sodipodi.sourceforge.net/DTD/sodipodi-0.dtd" xmlns:xlink="http://www.w3.org/1999/xlink" baseProfile="tiny" height="29.7cm" version="1.2" viewBox="0 0 793.7007874015749 1122.5196850393702" width="21.0cm">
  <metadata>
    <rdf:RDF>
      <cc:Work>
        <dc:format>image/svg+xml</dc:format>
        <dc:source>Vsketch with params {'__seed__': 406206912, 'debug_show_shapes': False, 'debug_draw': False, 'occult': False, 'scale': 1.0, 'area_type': 'RECT', 'width': 12.0, 'height': 14.0, 'num_circ_min': 2, 'num_circ_max': 10, 'circ_rad_min': 0.5, 'circ_rad_max': 2.0, 'num_circ_shaded_min': 0, 'num_circ_shaded_max': 0, 'circ_shaded_rad_min': 0.05, 'circ_shaded_rad_max': 0.5, 'circ_shaded_fill_dist_min': 0.05, 'circ_shaded_fill_dist_max': 0.2, 'num_circ_fill_min': 0, 'num_circ_fill_max': 0, 'circ_fill_rad_min': 0.05, 'circ_fill_rad_max': 0.5, 'num_circ_dash_min': 0, 'num_circ_dash_max': 0, 'circ_dash_rad_min': 0.05, 'circ_dash_rad_max': 0.5, 'num_circ_dot_min': 0, 'num_circ_dot_max': 0, 'circ_dot_rad_min': 0.05, 'circ_dot_rad_max': 0.5, 'circ_dot_dens_min': 400.0, 'circ_dot_dens_max': 800.0, 'circ_dot_dot_rad_min': 0.02, 'circ_dot_dot_rad_max': 0.06, 'num_circ_half_fill_min': 0, 'num_circ_half_fill_max': 0, 'circ_half_fill_rad_min': 0.05, 'circ_half_fill_rad_max': 2.0, 'circ_half_fill_gain_min': 0.4, 'circ_half_fill_gain_max': 0.6, 'num_circ_outer_fill_min': 0, 'num_circ_outer_fill_max': 10, 'circ_outer_fill_rad_min': 0.05, 'circ_outer_fill_rad_max': 2.0, 'circ_outer_fill_gain_min': 0.0, 'circ_outer_fill_gain_max': 0.2, 'num_line_min': 5, 'num_line_max': 8, 'line_length_min': 5.0, 'line_length_max': 13.0, 'num_thick_line_min': 0, 'num_thick_line_max': 0, 'thick_line_length_min': 3.0, 'thick_line_length_max': 7.0, 'num_tri_line_min': 4, 'num_tri_line_max': 8, 'tri_line_length_min': 4.0, 'tri_line_length_max': 10.0, 'tri_line_width_gain_min': 0.02, 'tri_line_width_gain_max': 0.04, 'num_rect_min': 5, 'num_rect_max': 10, 'rect_width_min': 1.0, 'rect_width_max': 4.0, 'rect_height_gain_min': 0.3, 'rect_height_gain_max': 3.0, 'num_rect_shaded_min': 0, 'num_rect_shaded_max': 0, 'rect_shaded_width_min': 0.1, 'rect_shaded_width_max': 1.0, 'rect_shaded_height_gain_min': 0.5, 'rect_shaded_height_gain_max': 2.0, 'rect_shaded_fill_dist_min': 0.05, 'rect_shaded_fill_dist_max': 0.2, 'num_rect_fill_min': 0, 'num_rect_fill_max': 0, 'rect_fill_width_min': 0.1, 'rect_fill_width_max': 1.0, 'rect_fill_height_gain_min': 0.5, 'rect_fill_height_gain_max': 2.0, 'num_rect_dash_min': 0, 'num_rect_dash_max': 0, 'rect_dash_width_min': 0.1, 'rect_dash_width_max': 1.0, 'rect_dash_height_gain_min': 0.5, 'rect_dash_height_gain_max': 2.0, 'num_rect_dot_min': 0, 'num_rect_dot_max': 0, 'rect_dot_width_min': 0.1, 'rect_dot_width_max': 1.0, 'rect_dot_height_gain_min': 0.5, 'rect_dot_height_gain_max': 2.0, 'rect_dot_dens_min': 400.0, 'rect_dot_dens_max': 800.0, 'rect_dot_rad_min': 0.02, 'rect_dot_rad_max': 0.06, 'num_tri_min': 0, 'num_tri_max': 5, 'tri_width_min': 0.5, 'tri_width_max': 4.0, 'tri_height_gain_min': 0.5, 'tri_height_gain_max': 2.0, 'num_tri_shaded_min': 0, 'num_tri_shaded_max': 0, 'tri_shaded_width_min': 0.1, 'tri_shaded_width_max': 1.0, 'tri_shaded_height_gain_min': 0.5, 'tri_shaded_height_gain_max': 2.0, 'tri_shaded_fill_dist_min': 0.05, 'tri_shaded_fill_dist_max': 0.2, 'num_tri_fill_min': 0, 'num_tri_fill_max': 0, 'tri_fill_width_min': 0.4, 'tri_fill_width_max': 1.0, 'tri_fill_height_gain_min': 0.5, 'tri_fill_height_gain_max': 3.0, 'num_tri_dash_min': 0, 'num_tri_dash_max': 0, 'tri_dash_width_min': 0.1, 'tri_dash_width_max': 1.0, 'tri_dash_height_gain_min': 0.5, 'tri_dash_height_gain_max': 2.0, 'num_tri_dot_min': 0, 'num_tri_dot_max': 0, 'tri_dot_width_min': 0.1, 'tri_dot_width_max': 1.0, 'tri_dot_height_gain_min': 0.5, 'tri_dot_height_gain_max': 2.0, 'tri_dot_dens_min': 400.0, 'tri_dot_dens_max': 800.0, 'tri_dot_rad_min': 0.02, 'tri_dot_rad_max': 0.06}</dc:source>
        <dc:date>2023-11-19T21:15:03.416207</dc:date>
      </cc:Work>
    </rdf:RDF>
  </metadata>
  <defs/>
  <g fill="none" id="layer1" inkscape:groupmode="layer" inkscape:label="1" stroke="#0000ff" style="display:inline">
    <polygon points="227.2985,655.7925 231.6384,651.0792 234.9793,645.6122 237.1938,639.6 238.1974,633.272 237.9517,626.8697 236.4663,620.6373 233.7976,614.8125 230.0477,609.6175 225.3594,605.2505 219.9117,601.8782 213.9124,599.6292 207.5903,598.5892 201.1867,598.798 194.9458,600.2476 189.1057,602.8827 183.8892,606.6027 179.4954,611.2658 175.9254,617.0328 173.7109,623.045 172.7073,629.3729 172.953,635.7752 174.4384,642.0077 177.1071,647.8325 180.857,653.0275 185.5453,657.3944 190.993,660.7667 196.9923,663.0158 203.3144,664.0557 209.718,663.8469 216.3158,662.2744 222.1252,659.5723"/>
    <polygon points="156.2902,698.9693 287.6924,746.6837 402.7299,429.8786 271.3278,382.1642"/>
    <line x1="152.4742" x2="177.8866" y1="734.352" y2="747.7924"/>
    <line x1="173.884" x2="148.4716" y1="755.3604" y2="741.92"/>
    <line x1="148.6456" x2="199.4705" y1="741.5909" y2="768.4717"/>
    <line x1="203.125" x2="152.3002" y1="761.5619" y2="734.6811"/>
    <line x1="152.1262" x2="228.3634" y1="735.0101" y2="775.3313"/>
    <line x1="225.0569" x2="148.8197" y1="781.5831" y2="741.2619"/>
    <line x1="148.9937" x2="250.6434" y1="740.9328" y2="794.6944"/>
    <line x1="253.6018" x2="151.9521" y1="789.1008" y2="735.3391"/>
    <line x1="151.7781" x2="278.8402" y1="735.6682" y2="802.8702"/>
    <line x1="276.2298" x2="149.1677" y1="807.8058" y2="740.6038"/>
    <line x1="149.3417" x2="301.8163" y1="740.2748" y2="820.9172"/>
    <line x1="304.0786" x2="151.6041" y1="816.6396" y2="735.9972"/>
    <line x1="151.4301" x2="329.317" y1="736.3263" y2="830.4091"/>
    <line x1="327.4028" x2="149.5158" y1="834.0285" y2="739.9457"/>
    <line x1="149.6898" x2="352.9892" y1="739.6167" y2="847.1399"/>
    <line x1="354.5554" x2="151.256" y1="844.1785" y2="736.6553"/>
    <line x1="151.082" x2="379.7938" y1="736.9844" y2="857.948"/>
    <line x1="378.5757" x2="149.8638" y1="860.2512" y2="739.2876"/>
    <line x1="150.0378" x2="404.1621" y1="738.9586" y2="873.3626"/>
    <line x1="405.0322" x2="150.908" y1="871.7174" y2="737.3134"/>
    <line x1="150.7339" x2="430.2706" y1="737.6424" y2="885.4868"/>
    <line x1="429.7486" x2="150.2119" y1="886.474" y2="738.6296"/>
    <line x1="150.3859" x2="455.335" y1="738.3005" y2="899.5853"/>
    <line x1="455.509" x2="150.5599" y1="899.2563" y2="737.9715"/>
    <line x1="65.0475" x2="396.2603" y1="605.8599" y2="814.547"/>
    <polygon points="389.251,832.0977 390.0392,826.4869 390.252,820.8251 389.9295,815.5465 389.1066,810.3225 387.6783,804.8396 385.6992,799.5306 383.3731,794.7812 380.3922,789.9629 377.1806,785.7613 373.5842,781.884 369.3409,778.1295 364.7374,774.8265 360.1579,772.1815 354.9965,769.8445 349.9876,768.148 344.4683,766.8676 339.224,766.1853 333.5609,766.011 328.2846,766.3695 323.0663,767.2279 317.9532,768.5784 312.6442,770.5575 307.8949,772.8836 303.3881,775.6507 298.8749,779.0761 294.9976,782.6725 291.2431,786.9158 287.9401,791.5193 285.2952,796.0988 283.0975,800.9089 281.2617,806.2691 280.049,811.4167 279.2989,817.0327 279.1183,822.318 279.4409,827.5966 280.3415,833.1904 281.692,838.3035 283.6711,843.6125 285.9972,848.3619 288.7643,852.8686 292.1897,857.3818 296.0569,861.5227 300.0294,865.0136 304.6329,868.3166 309.2124,870.9616 314.0226,873.1593 319.3828,874.9951 324.902,876.2755 330.1463,876.9578 335.4316,877.1384 340.7102,876.8159 346.304,875.9152 351.4171,874.5647 356.3787,872.7343 361.1438,870.4405 365.6693,867.7042 370.2056,864.3095 374.1073,860.7396 377.8906,856.5219 381.0172,852.2567 383.9008,847.3796 386.1312,842.5845 388.0034,837.2369"/>
    <polygon points="364.5977,853.6924 551.2736,981.4762 614.3386,889.3463 427.6627,761.5625"/>
    <polygon points="402.2753,900.5657 444.5345,903.1888 447.402,856.9908 405.1428,854.3678"/>
    <polygon points="468.1282,906.141 152.6482,734.023 148.2976,742.249"/>
    <polygon points="513.2987,888.6243 689.6954,835.284 688.0009,829.9716"/>
    <line x1="524.9455" x2="688.7916" y1="884.7141" y2="832.4507"/>
    <line x1="688.6787" x2="548.2392" y1="832.0965" y2="876.8938"/>
    <line x1="548.5781" x2="689.0176" y1="877.9563" y2="833.159"/>
    <line x1="689.1305" x2="572.0976" y1="833.5132" y2="870.8442"/>
    <line x1="571.5328" x2="688.5657" y1="869.0734" y2="831.7424"/>
    <line x1="688.4527" x2="594.8264" y1="831.3882" y2="861.2531"/>
    <line x1="595.6172" x2="689.2435" y1="863.7322" y2="833.8673"/>
    <line x1="689.3565" x2="619.1367" y1="834.2215" y2="856.6201"/>
    <line x1="618.12" x2="688.3398" y1="853.4327" y2="831.0341"/>
    <line x1="688.2268" x2="641.4136" y1="830.6799" y2="845.6123"/>
    <line x1="642.6563" x2="689.4694" y1="849.5081" y2="834.5756"/>
    <line x1="689.5824" x2="666.1758" y1="834.9298" y2="842.396"/>
    <line x1="664.7072" x2="688.1138" y1="837.792" y2="830.3258"/>
    <line x1="688.9046" x2="525.0585" y1="832.8049" y2="885.0683"/>
    <polygon points="594.2842,793.5506 550.4221,718.0626 507.4978,784.0403"/>
    <polygon points="486.6579,761.658 489.5547,758.6829 493.9488,752.5536 497.0814,745.6934 498.8354,738.3586 499.1866,734.221 499.1225,730.4463 498.6938,726.6955 497.806,722.6391 495.1105,715.5957 491.1099,709.2026 485.954,703.6987 479.8354,699.2897 476.4854,697.5491 472.6254,696.0185 465.2781,694.3177 457.7407,694.0626 450.2952,695.2625 446.3405,696.5286 442.8804,698.0386 436.4776,702.0236 430.9613,707.1662 428.3814,710.4199 426.3482,713.6009 423.2488,720.4762 421.5303,727.8194 421.2569,735.3561 422.4388,742.8045 423.5638,746.4082 425.197,750.226 429.1665,756.6384 434.2957,762.1672 440.3929,766.6057 444.0776,768.5202 447.587,769.9118 454.926,771.6481 462.462,771.9398 466.5887,771.4782 470.2786,770.6801 477.3414,768.0357 483.7634,764.0817"/>
    <polygon points="487.4046,757.1592 491.6138,751.3561 494.6037,744.8404 496.2581,737.865 496.513,730.7007 495.3584,723.6254 492.8391,716.9137 489.0529,710.8262 484.43,705.8493 478.6378,701.625 472.1299,698.6183 465.1588,696.9457 457.9952,696.6722 450.9169,697.8085 444.1987,700.3103 438.1014,704.0807 433.1125,708.6907 428.8732,714.4719 425.8495,720.9719 424.2133,727.5647 423.8469,734.7242 424.8912,741.8166 427.3056,748.5667 430.9965,754.7125 435.8207,760.0154 441.5908,764.2697 448.083,767.3102 455.0453,769.0189 462.2075,769.3296 469.2915,768.2301 476.0226,765.7632 482.1395,762.0245"/>
    <polygon points="476.7026,766.4031 482.7905,762.6269 485.6723,760.189 488.2927,757.4721 492.4574,751.643 495.4296,745.1248 497.0995,738.1582 497.4055,731.0008 497.0128,727.2465 496.2423,723.5513 493.7689,716.8279 491.961,713.5143 489.8271,710.4006 484.9557,705.1478 479.1692,700.9243 475.8273,699.1694 472.3249,697.7615 468.6981,696.7152 464.9841,696.0411 457.824,695.8077 450.7515,696.9488 444.0281,699.4222 440.7145,701.2301 437.6008,703.364 432.348,708.2353 429.986,711.1797 427.9339,714.3479 424.9617,720.8661 423.2917,727.8327 422.9588,731.5927 423.0079,735.3671 424.149,742.4396 426.6224,749.163 430.3367,755.2888 432.7453,758.1952 435.4355,760.843 438.3799,763.2051 441.548,765.2572 448.0663,768.2294 455.0329,769.8993 458.7929,770.2323 462.5673,770.1832 466.3173,769.7524 470.0046,768.9445"/>
    <polygon points="468.8553,766.9894 475.5757,764.5237 481.6556,760.7452 486.5949,756.0964 490.5473,750.584 493.3648,744.414 494.9423,737.817 495.2207,731.0399 494.0944,723.9706 491.7239,717.6154 488.1746,711.8352 483.2966,706.5961 477.7842,702.6438 471.6141,699.8262 465.0172,698.2488 458.24,697.9704 451.1707,699.0966 444.8156,701.4672 439.0354,705.0165 434.0464,709.6118 430.035,715.0814 427.0264,721.5769 425.449,728.1738 425.1706,734.951 426.2968,742.0203 428.6673,748.3755 432.2166,754.1557 436.812,759.1447 442.2816,763.1561 448.7771,766.1646 455.374,767.7421 462.1512,768.0205"/>
    <polygon points="455.2671,769.4907 462.4228,769.7546 469.4943,768.6287 476.2143,766.1556 482.3286,762.4289 487.6061,757.5893 489.9787,754.6556 492.0386,751.4945 495.0166,744.9826 496.6781,738.0175 496.9603,730.8625 495.8526,723.7881 493.3967,717.0618 489.6857,710.938 487.274,708.0363 484.5781,705.3967 478.7762,701.1999 472.272,698.2053 465.3111,696.5259 458.1568,696.2254 451.0797,697.315 447.4767,698.435 444.0073,699.9178 437.9121,703.6758 432.6594,708.5424 428.4478,714.3334 425.4365,720.83 423.7393,727.7865 423.4205,734.94 423.8124,738.6926 424.5863,742.3854 427.0766,749.099 430.819,755.2038 435.6721,760.4689 438.6119,762.8339 441.7782,764.8858 448.2977,767.8471"/>
    <polygon points="438.1479,763.5763 441.3179,765.6286 447.8349,768.6115 451.46,769.6694 455.1728,770.3594 462.3348,770.6347 466.0896,770.2319 469.7852,769.4554 476.512,766.9817 479.8302,765.1789 482.9514,763.0531 485.8443,760.6258 488.4799,757.9212 492.686,752.1179 494.436,748.7716 495.8425,745.2669 496.8914,741.6391 497.572,737.9246 497.8294,730.762 496.7267,723.6801 495.6115,720.0722 494.1409,716.594 492.3298,713.2803 490.1962,710.1644 485.3332,704.8993 482.3963,702.5255 479.2366,700.4573 472.7347,697.4418 465.7795,695.7112 462.0215,695.3397 458.2451,695.3459 454.4883,695.7299 450.7888,696.4879 444.0497,698.9279 440.7225,700.714 437.5907,702.8241 434.6857,705.237 432.0366,707.9283 429.6701,710.8712 427.6099,714.036 424.6107,720.5455 423.5437,724.168 422.8444,727.879 422.5199,731.6414 422.5735,735.4174 423.7117,742.4937 424.845,746.096 426.333,749.5668 430.081,755.6759 432.5011,758.5749 435.1991,761.2172"/>
    <polygon points="393.4643,789.5021 347.4731,757.7339 363.5656,811.2637"/>
    <polygon points="314.6187,723.0101 380.3782,605.9106 313.8796,568.567 248.1201,685.6666"/>
    <line x1="336.6922" x2="124.4623" y1="668.8769" y2="232.3231"/>
    <line x1="238.7414" x2="99.9779" y1="307.582" y2="585.7565"/>
    <line x1="276.335" x2="239.194" y1="576.6436" y2="141.0435"/>
    <line x1="399.8218" x2="420.6031" y1="217.9505" y2="619.3658"/>
    <polygon points="414.2699,614.0881 418.8723,616.6851 423.7067,618.8195 428.7266,620.4709 433.884,621.6234 439.1293,622.266 444.7899,622.3818 450.0571,621.9542 455.2573,621.0134 460.3405,619.5687 465.2581,617.6337 469.9629,615.227 474.4097,612.3718 478.556,609.0954 482.362,605.4291 485.7912,601.4082 488.8107,597.0712 491.3915,592.4597 493.509,587.6179 495.1428,582.5923 496.2773,577.4309 496.9015,572.1833 497.0096,566.8998 496.6004,561.6311 495.6779,556.4277 494.2509,551.3394 492.3331,546.4151 489.943,541.7019 487.1033,537.2451 483.8414,533.0874 480.1885,529.2686 476.1796,525.8254 471.8532,522.7908 467.2508,520.1938 462.4164,518.0594 457.3965,516.408 452.2391,515.2555 446.9937,514.6129 441.7107,514.4863 436.0659,514.9247 430.8658,515.8654 425.7825,517.3102 420.8649,519.2452 416.1602,521.6518 411.7133,524.5071 407.567,527.7835 403.7611,531.4498 400.3319,535.4707 397.3124,539.8076 394.7315,544.4191 392.6141,549.2609 390.9802,554.2866 389.8458,559.448 389.2215,564.6956 389.1135,569.9791 389.5227,575.2478 390.4452,580.4512 391.8722,585.5395 393.7899,590.4638 396.1801,595.177 399.0198,599.6338 402.2817,603.7915 405.9346,607.6103 409.9435,611.0535"/>
    <polygon points="410.3052,610.8176 414.6418,613.8399 419.2551,616.42 424.1002,618.5329 429.13,620.1579 434.2955,621.2792 439.5464,621.8859 444.4539,621.9833 449.7247,621.5854 454.9306,620.6698 460.0209,619.2456 464.9461,617.3266 469.6581,614.9315 474.1111,612.0836 478.2617,608.8107 482.0695,605.1446 485.4974,601.121 488.512,596.7791 490.9155,592.4994 493.054,587.6654 494.7056,582.6443 495.8542,577.4848 496.4887,572.2372 496.6029,566.9527 496.1956,561.6826 495.2709,556.4783 493.8377,551.3905 491.91,546.4688 489.5066,541.761 486.6509,537.313 483.3706,533.1682 479.6978,529.3668 475.9671,526.177 471.6412,523.1395 467.037,520.5431 462.5517,518.5494 457.5393,516.8712 452.386,515.6953 447.1418,515.0331 441.858,514.891 436.5858,515.2704 431.3767,516.1676 426.6405,517.4567 421.6953,519.3235 416.9583,521.6687 412.4754,524.4693 408.2904,527.6981 404.444,531.3238 400.9737,535.3109 397.9134,539.6206 395.2927,544.2109 393.1372,549.0373 391.4679,554.0526 390.3011,559.208 389.6481,564.4533 389.5153,569.7374 389.904,575.0089 390.8103,580.2164 392.2256,585.3092 394.1359,590.2377 396.5227,594.954 399.3627,599.412 402.6283,603.5684 406.2877,607.3826"/>
    <polygon points="407.0575,615.0117 411.7008,618.2568 416.6345,621.0405 422.1657,623.4724 427.5522,625.2261 433.0824,626.4539 438.705,627.1445 444.7457,627.2818 450.3938,626.8475 456.3425,625.7882 461.7934,624.2461 467.4153,622.0319 472.4538,619.4429 477.2202,616.3815 481.6703,612.8762 486.022,608.6844 489.6915,604.3687 492.9291,599.7202 495.7049,594.7821 497.9932,589.6 499.873,583.8576 501.0919,578.3254 501.7735,572.7017 501.9113,567.0386 501.4577,561.0134 500.4735,555.4347 498.838,549.6181 496.7706,544.344 494.2059,539.293 491.1675,534.5119 487.6836,530.045 483.5128,525.6732 479.2148,521.983 474.582,518.723 469.6572,515.9235 464.1339,513.4738 458.753,511.7029 453.2268,510.4573 447.6064,509.7487 441.5662,509.592 435.9167,510.0082 430.3333,510.9655 424.8678,512.4551 419.2249,514.615 414.1616,517.1554 409.3659,520.1707 404.5956,523.879 400.2304,528.0568 396.5471,532.3608 393.2946,536.9988 390.5029,541.928 388.0622,547.4553 386.2999,552.8391 385.0632,558.3673 384.3362,564.3656 384.2165,570.0292 384.6418,575.678 385.6081,581.2599 387.2249,587.0817 389.2754,592.3624 391.8239,597.4216 394.847,602.2124 398.5629,606.9769 402.7477,611.3353"/>
    <polygon points="390.037,592.0667 392.5907,597.1195 395.6245,601.8995 399.1094,606.3612 403.0124,610.4623 407.2963,614.1636 411.9204,617.43 416.8407,620.2305 422.3627,622.6742 427.7442,624.4325 433.2713,625.6583 438.8916,626.3399 444.5515,626.4707 450.1973,626.0496 455.7752,625.0805 461.2321,623.5727 466.5163,621.5405 471.5773,619.0032 476.6757,615.7674 481.126,612.268 485.2144,608.3517 488.9018,604.0557 492.1532,599.421 495.106,594.1537 497.3633,588.9618 499.1041,583.5746 500.3119,578.0435 500.9752,572.4211 501.0876,566.7607 500.6482,561.1164 499.661,555.5417 498.1354,550.0896 496.086,544.8121 493.5323,539.7594 490.4986,534.9794 487.0136,530.5177 483.1106,526.4166 478.8267,522.7153 474.2026,519.4488 469.2823,516.6484 463.7603,514.2047 458.3789,512.4463 452.8517,511.2206 447.2315,510.539 441.5715,510.4082 435.9258,510.8293 430.3479,511.7984 424.8909,513.3062 419.6068,515.3384 414.5458,517.8756 409.7559,520.8938 405.2829,524.3642 401.1692,528.2539 397.2213,532.8231 393.9699,537.4578 391.1854,542.3872 388.8944,547.5644 387.1186,552.9401 385.8748,558.4632 385.175,564.0812 385.0257,569.7407 385.4749,575.7625 386.4621,581.3372 387.9877,586.7892"/>
    <polygon points="389.5206,586.2265 391.5748,591.5074 394.1484,596.5556 396.9961,601.0124 400.4958,605.4689 404.4249,609.5518 408.4445,612.9891 412.7683,616.035 417.6953,618.8336 422.8782,621.1239 428.2647,622.8827 433.8004,624.0924 439.4296,624.7407 445.0954,624.821 450.3661,624.3828 455.5726,623.453 461.0279,621.9205 465.957,620.0032 471.0138,617.4465 475.7886,614.3955 480.2333,610.8809 484.0443,607.2136 487.7269,602.9071 490.7583,598.5731 493.5404,593.6368 495.6781,588.7991 497.455,583.4186 498.6831,577.8869 499.3503,572.2599 499.4496,566.5944 499.0291,561.3223 498.0329,555.7442 496.4822,550.2941 494.3926,545.0271 491.9747,540.3232 488.9077,535.5586 485.6272,531.41 481.6982,527.3271 477.6786,523.8897 473.3548,520.8439 468.4278,518.0453 463.2449,515.755 457.8584,513.9962 452.3226,512.7865 446.6935,512.1382 441.0277,512.0579 435.757,512.4961 430.1822,513.5109 425.0952,514.9583 420.1661,516.8757 415.1093,519.4324 410.3345,522.4834 405.8898,525.998 402.0788,529.6653 398.3961,533.9718 395.3648,538.3058 392.5827,543.2421 390.445,548.0798 388.6681,553.4603 387.4399,558.992 386.7728,564.619 386.6735,570.2845 387.094,575.5566 388.0902,581.1347"/>
    <polygon points="392.6987,585.4372 394.4819,590.0116 396.8653,594.731 399.7057,599.1902 402.7279,603.0594 406.3667,606.895 410.3686,610.3502 414.6938,613.3907 419.2998,615.9865 424.1408,618.1118 428.8047,619.6457 433.9622,620.8087 439.2098,621.4536 444.4954,621.574 449.7669,621.1687 454.972,620.2418 460.0593,618.8023 464.6337,617.0191 469.3531,614.6357 473.8123,611.7953 477.9673,608.5259 481.777,604.86 484.9723,601.1324 488.0128,596.8071 490.6086,592.2012 492.7339,587.3602 494.3679,582.332 495.4942,577.1663 496.0757,572.2912 496.1961,567.0055 495.7908,561.7341 494.9472,556.8974 493.5439,551.8 491.6412,546.8672 489.2578,542.1479 486.6349,537.9976 483.3951,533.8195 479.7563,529.9838 475.7545,526.5287 471.4292,523.4882 466.8233,520.8924 461.9823,518.767 457.3184,517.2331 452.1608,516.0701 446.9133,515.4252 441.6276,515.3048 436.3562,515.7101 431.151,516.6371 426.0637,518.0766 421.1446,520.0143 416.4423,522.4312 412.3108,525.0836 408.1558,528.3529 404.3461,532.0189 400.9195,536.0452 397.9098,540.3919 395.5145,544.6777 393.3891,549.5187 391.7552,554.5469 390.6922,559.3401 390.0473,564.5877 389.9269,569.8733 390.3322,575.1448 391.2592,580.35"/>
    <polygon points="391.9473,579.6904 393.3421,584.7865 395.2435,589.716 397.6323,594.4286 400.2656,598.5685 403.5213,602.7297 406.906,606.2816 410.9055,609.734 415.2327,612.7656 419.8436,615.3455 424.691,617.4473 429.3609,618.9523 434.5234,620.0762 439.3963,620.6488 444.3014,620.7626 449.5703,620.371 454.773,619.4502 459.4982,618.1294 464.079,616.3719 468.8045,614.0086 473.2677,611.181 477.423,607.9178 480.9689,604.5267 484.4141,600.5209 487.2365,596.5076 489.8413,591.9109 491.8336,587.4272 493.4995,582.4132 494.5864,577.6287 495.2503,572.3871 495.3824,567.1053 494.9813,561.837 494.0511,556.636 492.6012,551.5554 490.6465,546.6468 488.3967,542.2866 485.7485,538.1562 482.4779,534.0068 479.0803,530.4671 475.0684,527.0291 471.05,524.2139 466.4486,521.6174 461.9613,519.6332 456.9443,517.9764 452.1579,516.8981 446.9151,516.2436 441.633,516.1211 436.7401,516.4847 431.5342,517.3868 426.4457,518.8091 421.8713,520.5831 417.1543,522.9634 412.7014,525.8071 408.8427,528.8374 405.0243,532.4892 401.825,536.209 398.7856,540.5307 396.1974,545.1369 394.2213,549.6277 392.5735,554.6477 391.4403,559.8082 390.8589,564.68 390.7458,569.9623 391.1183,574.8546"/>
    <polygon points="386.0565,581.3935 387.6985,587.2097 389.7757,592.4812 392.3535,597.527 395.4077,602.2994 398.9095,606.7538 402.8262,610.8482 407.1208,614.5442 411.7531,617.8071 416.6795,620.6062 421.8537,622.9153 427.5912,624.8137 433.1216,626.0466 438.7452,626.7383 444.4095,626.8823 450.4361,626.4308 456.0156,625.4445 461.4735,623.9227 466.7584,621.8796 472.1491,619.1475 476.9215,616.0933 481.3759,612.5914 485.4703,608.6748 489.1663,604.3802 492.6306,599.4281 495.3978,594.4838 497.6733,589.2947 499.4358,583.9097 500.6687,578.3794 501.3604,572.7557 501.5044,567.0915 501.0529,561.0649 500.0666,555.4853 498.4246,549.6692 496.3474,544.3976 493.7696,539.3519 490.7154,534.5795 487.2135,530.1251 483.0219,525.7715 478.7035,522.1033 474.0502,518.8704 469.1059,516.1032 463.9168,513.8277 458.5318,512.0652 453.0015,510.8323 447.3778,510.1406 441.7136,509.9966 435.687,510.448 430.1074,511.4344 424.6496,512.9562 419.3647,514.9993 413.974,517.7314 409.2016,520.7856 404.7472,524.2874 400.6528,528.2041 396.9568,532.4987 393.6939,537.131 390.8948,542.0574 388.5857,547.2316 386.6873,552.9691 385.3913,558.872 384.736,564.5001 384.6286,570.1651 385.0701,575.814"/>
    <polygon points="386.2509,569.7707 386.6657,575.4206 387.5588,580.6324 389.0486,586.0981 391.0752,591.3883 393.6185,596.4504 396.4362,600.9249 399.9024,605.4058 403.7975,609.5194 408.0829,613.2247 412.7159,616.4849 417.3131,619.0975 422.4849,621.4095 427.8613,623.1951 433.3887,624.4364 438.6355,625.0931 444.2984,625.2523 449.949,624.8468 455.5311,623.8807 460.9893,622.3636 465.924,620.4638 470.9903,617.9289 475.7791,614.9022 480.2427,611.4137 484.3368,607.4981 487.7886,603.4925 491.0565,598.8649 493.8474,593.935 496.1336,588.7516 497.8923,583.3664 499.1061,577.8329 499.7628,572.206 499.8675,566.9193 499.4338,561.2708 498.4399,555.6935 496.8957,550.243 494.8164,544.9733 492.4111,540.2642 489.3606,535.4906 486.0975,531.3298 482.1888,527.2292 477.8911,523.5381 473.2473,520.2934 468.6415,517.696 463.4619,515.4012 458.0797,513.6336 452.5481,512.4106 446.9223,511.7445 441.2581,511.6418 435.9866,512.0553 430.4077,513.0399 424.9546,514.5751 420.0263,516.4914 414.9684,519.0431 410.1897,522.0857 405.7377,525.589 401.6567,529.5182 398.2182,533.5353 394.9657,538.1737 392.1912,543.1129 389.9223,548.3038 388.2807,553.3302 387.0485,558.8597 386.3731,564.4844"/>
    <line x1="388.4573" x2="632.658" y1="556.4371" y2="570.6886"/>
    <line x1="632.6794" x2="419.0037" y1="570.3223" y2="557.8522"/>
    <line x1="418.961" x2="632.6366" y1="558.5848" y2="571.055"/>
    <line x1="632.6152" x2="449.4647" y1="571.4213" y2="560.7326"/>
    <line x1="449.5502" x2="632.7008" y1="559.2673" y2="569.956"/>
    <line x1="632.7221" x2="480.0967" y1="569.5896" y2="560.6824"/>
    <line x1="479.9684" x2="632.5939" y1="562.8804" y2="571.7876"/>
    <line x1="632.5725" x2="510.4721" y1="572.154" y2="565.0282"/>
    <line x1="510.6431" x2="632.7435" y1="562.0975" y2="569.2233"/>
    <line x1="632.7649" x2="541.1896" y1="568.8569" y2="563.5126"/>
    <line x1="540.9758" x2="632.5511" y1="567.176" y2="572.5203"/>
    <line x1="632.5297" x2="571.4795" y1="572.8866" y2="569.3237"/>
    <line x1="571.7361" x2="632.7863" y1="564.9277" y2="568.4906"/>
    <line x1="632.8076" x2="602.2826" y1="568.1243" y2="566.3428"/>
    <line x1="601.9832" x2="632.5083" y1="571.4715" y2="573.253"/>
    <polygon points="632.829,567.7579 388.4573,556.4371 632.487,573.6193"/>
    <polygon points="588.5904,550.2168 591.0903,545.9975 592.855,541.0207 593.5891,535.7917 593.2628,530.5215 592.0214,525.7769 589.9199,521.3457 586.7794,517.1007 582.8537,513.5693 578.6434,511.0543 573.673,509.2717 568.824,508.5376 563.923,508.7174 558.7826,509.9251 553.9875,512.1361 549.7313,515.2613 546.4123,518.8719 543.6557,523.3756 541.8553,528.3395 541.0836,533.5631 541.3162,538.4619 542.5793,543.5889 544.842,548.3599 548.0128,552.5822 551.9638,556.0852 556.1921,558.5699 561.1751,560.3167 566.4068,561.032 571.3028,560.7466 576.4159,559.4283 581.1622,557.1143 585.0732,554.1552"/>
    <polygon points="584.3357,553.6333 587.6393,550.0197 590.3498,545.4987 591.9805,540.8822 592.695,536.0386 592.4667,531.1479 591.177,526.0367 589.0576,521.6232 586.1306,517.6985 582.2006,514.1853 577.9737,511.7146 573.3512,510.1011 568.505,509.4046 563.2424,509.709 558.5088,510.9597 554.1032,513.0955 550.1894,516.0371 546.9128,519.6751 544.2359,524.2161 542.6395,528.8446 541.961,533.6934 542.2256,538.5822 543.4234,543.3295 545.7054,548.0813 548.6615,551.9842 552.6174,555.4681 556.8625,557.9073 561.4969,559.4865 566.3482,560.147 571.236,559.8642 575.9788,558.6487 580.4001,556.5457"/>
    <polygon points="581.5317,557.9229 585.7407,554.74 589.2548,550.8031 591.9412,546.261 593.6985,541.2851 594.4604,536.0633 594.1401,530.4197 592.7924,525.3176 590.4835,520.5724 587.3005,516.3634 583.3637,512.8493 578.8216,510.1629 573.8457,508.4056 568.6239,507.6437 562.9803,507.964 557.8782,509.3117 553.133,511.6206 548.924,514.8036 545.4099,518.7404 542.7235,523.2825 540.9662,528.2584 540.189,533.8574 540.5246,539.1238 541.8723,544.2259 544.1812,548.9711 547.3642,553.1801 551.301,556.6942 555.8431,559.3806 560.819,561.1379 566.0408,561.8998 571.6844,561.5795 576.7865,560.2319"/>
    <polygon points="570.8959,560.3602 576.0198,559.1027 580.7814,556.8306 584.7045,553.8944 588.0027,550.2703 590.7202,545.748 592.4623,540.7681 593.1424,535.9153 592.8366,530.6482 591.5992,525.9068 589.2923,521.1619 586.3276,517.2603 582.6795,513.9887 578.1375,511.3044 573.5121,509.6863 568.2873,508.954 563.3953,509.2381 558.6449,510.4408 554.2071,512.5188 549.9602,515.6491 546.662,519.2732 543.9445,523.7955 542.2024,528.7755 541.5223,533.6283 541.8281,538.8953 543.0655,543.6367 545.3724,548.3816 548.3371,552.2832 551.9853,555.5548 556.5272,558.2391 561.1526,559.8572 566.0003,560.5728"/>
    <polygon points="550.9437,557.525 555.4941,560.1913 560.8297,562.0483 566.4292,562.7982 571.6931,562.4716 577.157,561.0353 581.901,558.7311 586.408,555.3246 590.1406,551.0838 592.7916,546.5244 594.5419,541.5493 595.3482,535.9577 595.0748,530.6907 593.6937,525.2126 591.2425,520.1226 587.8209,515.6271 583.5675,511.9088 578.9993,509.2732 573.6514,507.4521 568.424,506.752 562.7854,507.1019 557.6846,508.4427 552.6028,510.911 548.3954,514.0911 544.6344,518.3067 541.9528,522.8481 540.0778,528.1774 539.3251,533.3974 539.5631,538.6661 540.9073,544.1533 543.3242,549.2598 546.7155,553.7781"/>
    <polygon points="545.7425,554.6751 549.9547,558.442 554.8103,561.3323 560.1297,563.239 566.0927,564.1099 571.7352,563.8041 577.2147,562.4232 582.3282,560.0183 587.1662,556.4254 591.1689,551.9205 594.0123,547.0372 595.8677,541.6997 596.6664,536.1056 596.3787,530.4622 594.8873,524.6234 592.4332,519.5333 589.0496,515.0075 584.8617,511.2137 580.0247,508.2922 574.7177,506.3514 568.7605,505.4422 562.7431,505.7683 557.2726,507.1844 552.1746,509.6221 547.638,512.9911 543.6064,517.4702 540.7317,522.3351 538.7531,528.0273 537.9904,533.6264 538.3745,539.6403 539.8432,545.0969 542.3299,550.1712"/>
    <polygon points="542.657,549.8608 546.0669,554.3761 550.2906,558.1412 555.1664,561.0118 560.5079,562.8783 566.1106,563.6691 571.76,563.3541 577.2399,561.9451 582.3407,559.4962 586.8671,556.1012 590.646,551.8898 593.5326,547.0233 595.4165,541.688 596.2256,536.0879 595.929,530.4375 594.5379,524.953 592.1057,519.8442 588.7254,515.3067 584.5264,511.5142 579.6694,508.6117 573.9731,506.6212 568.3654,505.867 562.7182,506.219 557.2475,507.6637 552.1628,510.1458 547.6587,513.5704 543.9074,517.8064 541.0527,522.6916 539.2037,528.0391 538.4311,533.6443 538.7647,539.2927 540.1915,544.768"/>
    <polygon points="540.4414,528.5567 539.7499,533.7925 540.1296,539.4369 541.5162,544.5329 543.8481,549.2715 547.0398,553.4791 550.9746,557.0018 555.5083,559.7106 560.8415,561.5975 566.0699,562.3427 571.718,562.021 576.8279,560.6867 581.9124,558.2063 586.1091,555.0001 589.8391,550.7468 592.4698,546.1674 594.2652,540.8026 594.9209,535.5622 594.5664,530.2929 593.2147,525.1875 590.7168,520.1117 587.4964,515.9259 583.2302,512.2105 578.6419,509.5954 573.6394,507.9022 568.406,507.1928 563.1333,507.4932 558.0144,508.7924 552.9131,511.238 548.6945,514.4153 545.1584,518.338 542.2735,523.2044"/>
    <polygon points="539.6407,528.1082 538.8701,533.7094 539.221,539.3524 540.6797,544.8149 543.1886,549.8817 546.3912,554.0771 550.6171,557.8332 555.1593,560.5215 560.4854,562.4186 566.0814,563.2264 571.7266,562.9128 577.1986,561.4904 582.2819,559.0151 586.7761,555.5845 590.2825,551.6395 593.1622,546.7739 595.024,541.4353 595.7946,535.8341 595.4437,530.1911 593.985,524.7286 591.6743,519.9832 588.2735,515.4664 584.0476,511.7103 579.163,508.863 573.8122,507.0366 568.5833,506.3172 562.9381,506.6307 557.4661,508.0531 552.3828,510.5284 548.1662,513.7031 544.3822,517.904 541.5025,522.7697"/>
    <polygon points="558.8382,511.3088 554.4139,513.4229 550.4885,516.3613 547.2134,520.0106 544.7153,524.23 543.0905,528.8564 542.4017,533.7112 542.6757,538.607 543.9017,543.3546 546.0325,547.7709 548.9858,551.6852 552.6475,554.9464 556.8763,557.4286 561.5088,559.0359 566.3662,559.7062 570.8873,559.4704 575.6486,558.2984 580.0888,556.2178 584.0364,553.3092 587.339,549.6848 589.869,545.4844 591.5288,540.8705 592.2542,536.021 592.0174,531.1233 590.8273,526.3665 588.73,521.9342 585.8064,517.9977 582.1695,514.7089 577.9597,512.1947 573.3394,510.5524 568.4873,509.8453 563.5905,510.1007"/>
    <polygon points="568.4645,508.0781 563.2001,508.3756 558.0967,509.7012 553.353,512.0032 549.1537,515.1919 545.6625,519.1433 543.0152,523.7034 541.3151,528.6945 540.6282,533.9223 540.9218,538.8108 542.2293,543.9189 544.5145,548.6707 547.6885,552.8812 551.6275,556.3863 556.1782,559.0497 561.1633,560.7674 566.3887,561.4727 571.6508,561.1381 576.7448,559.7765 581.4721,557.4411 585.6488,554.2228 589.112,550.2468 591.727,545.6682 593.3919,540.6652 594.0418,535.4326 593.6515,530.1743 592.2361,525.0951 589.8507,520.3927 586.8479,516.5241 583.1894,513.2686 578.6576,510.5732 573.6848,508.8203"/>
    <polygon points="483.2453,501.9186 407.1819,400.7491 395.0744,526.7425"/>
    <polygon points="480.3744,528.8828 476.3548,525.4449 472.0203,522.4138 467.4118,519.8181 462.2197,517.548 457.1848,515.9275 452.0164,514.8038 446.7632,514.1875 441.4749,514.0845 436.2017,514.4958 430.9934,515.4174 425.8993,516.8407 420.9675,518.7521 416.2448,521.1337 411.7758,523.9628 407.3171,527.4601 403.5049,531.1266 400.067,535.1461 397.0359,539.4807 394.4402,544.0892 392.3045,548.928 390.649,553.9515 389.4894,559.112 388.8367,564.3608 388.6969,569.6482 389.1179,575.2992 390.0395,580.5075 391.4628,585.6017 393.3742,590.5334 395.7558,595.2562 398.5849,599.7252 402.0822,604.1839 405.7487,607.996 409.7682,611.434 414.1028,614.4651 418.7113,617.0608 423.9034,619.3309 428.9382,620.9514 434.1067,622.0751 439.3599,622.6914 444.6481,622.7943 449.9213,622.3831 455.1296,621.4614 460.2238,620.0382 465.1555,618.1267 469.8783,615.7452 474.6557,612.6976 478.806,609.4188 482.6181,605.7523 486.0561,601.7327 489.0872,597.3982 491.6829,592.7897 493.8186,587.9509 495.4741,582.9274 496.6337,577.7668 497.2864,572.518 497.4262,567.2307 497.0052,561.5796 496.0835,556.3713 494.6603,551.2772 492.5941,546.0006 490.1798,541.2946 487.3197,536.8453 484.0409,532.695"/>
    <polygon points="485.9648,537.7565 482.6768,533.6147 478.9905,529.8229 475.2434,526.6488 470.897,523.6363 466.6095,521.2417 461.7651,519.121 456.7327,517.496 451.5628,516.3831 446.6846,515.8181 441.3972,515.7198 436.1266,516.1514 430.9256,517.1086 426.2043,518.4598 421.2844,520.399 416.5834,522.821 412.1485,525.7017 408.3078,528.7619 404.5094,532.4413 401.0986,536.4826 398.1095,540.8451 395.738,545.1454 393.7767,549.6476 392.1427,554.6771 391.0205,559.8449 390.4215,565.0992 390.339,570.0093 390.7612,575.2807 391.6241,580.1152 393.0518,585.2071 394.9821,590.1305 397.2078,594.508 400.0486,598.9685 403.3218,603.1221 406.7196,606.6676 410.7302,610.1146 415.0658,613.1425 419.3446,615.5525 424.1814,617.6905 429.208,619.3335 434.3738,620.465 439.627,621.0734 444.9147,621.1528 449.8091,620.752 455.0135,619.8134 460.0977,618.3584 465.0106,616.4016 469.3761,614.1524 473.5135,611.507 477.6729,608.2412 481.4845,604.5754 484.9098,600.5464 487.9144,596.1946 490.3013,591.9029 492.4134,587.0546 493.9307,582.3841 495.0714,577.2203 495.6626,572.3452 495.7894,567.0584 495.3861,561.7855 494.4568,556.5795 493.0109,551.4927 491.2183,546.9208 488.8216,542.2068"/>
    <polygon points="497.8147,561.4767 496.8974,556.2701 495.4861,551.1752 493.5939,546.2386 491.0525,541.1766 488.224,536.7102 484.7343,532.2487 481.0806,528.4277 477.0781,524.9737 472.7634,521.9186 468.1762,519.2902 463.0069,516.9751 457.9915,515.3029 452.4672,514.0526 447.2205,513.4022 441.9357,513.2568 436.2862,513.6627 431.0765,514.5623 425.6179,516.0743 420.6879,517.9834 415.9631,520.3555 411.1779,523.3859 407.0136,526.643 403.1801,530.2837 399.4797,534.5719 396.4393,538.8969 393.6571,543.8306 391.5293,548.6703 389.8743,553.6914 388.7072,558.8478 388.0104,564.4688 387.8831,569.7541 388.3083,575.4022 389.2257,580.6088 390.637,585.7037 392.5292,590.6403 395.0706,595.7022 398.1173,600.4771 401.3887,604.6302 405.0425,608.4512 409.3433,612.137 413.9992,615.3625 418.622,617.9278 423.4689,620.0391 428.8603,621.7753 434.0284,622.8894 439.2793,623.5038 444.9426,623.6015 450.2116,623.1685 455.7829,622.1475 460.8631,620.684 466.1237,618.5845 470.8156,616.148 475.2528,613.2737 479.6782,609.7385 483.4615,606.0457 486.8742,602.0079 489.8849,597.6621 492.466,593.0482 494.5938,588.2086 496.3485,582.8231 497.4802,577.6589 498.1127,572.4101 498.24,567.1248"/>
    <line x1="468.9627" x2="426.8426" y1="570.992" y2="272.9647"/>
    <polygon points="385.0252,306.6815 378.2394,307.0814 371.5243,308.1371 364.9432,309.8388 358.5579,312.1703 352.4287,315.1097 346.6133,318.6293 341.1664,322.6961 336.1394,327.2717 331.5795,332.313 327.3204,338.087 323.8504,343.9322 320.9632,350.0861 318.6861,356.491 316.9679,363.4571 316.0056,370.1863 315.7001,376.977 316.0932,384.1411 317.1399,390.8576 318.8326,397.4411 321.3026,404.1774 324.2668,410.2947 327.81,416.0958 331.8987,421.5262 336.4946,426.5347 341.5543,431.0742 347.3455,435.3098 353.2047,438.7562 359.3703,441.6185 365.7842,443.8697 372.7573,445.5596 379.4903,446.4947 386.2821,446.7727 393.069,446.3912 399.7869,445.3536 406.3727,443.6697 412.7642,441.3554 418.9013,438.4325 424.7261,434.9286 430.184,430.8765 435.2234,426.3145 440.0364,420.9934 444.0714,415.523 447.5573,409.6872 450.461,403.5411 452.8645,396.7807 454.4923,390.1809 455.4728,383.4544 455.7966,376.6645 455.4228,369.4994 454.3943,362.78 452.7193,356.192 450.4136,349.7974 447.499,343.6564 444.0029,337.8268 439.7182,332.0718 435.1358,327.0509 430.0884,322.4978 424.3086,318.2465 418.4588,314.7844 412.3009,311.9055 405.893,309.637 398.9246,307.9282 392.1941,306.975"/>
    <line x1="395.2942" x2="290.2631" y1="379.427" y2="380.7927"/>
    <line x1="290.2581" x2="369.0314" y1="380.4067" y2="379.3824"/>
    <line x1="369.0917" x2="290.3183" y1="384.0145" y2="385.0388"/>
    <line x1="290.3234" x2="342.8389" y1="385.4248" y2="384.7419"/>
    <line x1="342.7687" x2="290.2531" y1="379.3378" y2="380.0207"/>
    <line x1="290.2481" x2="316.5059" y1="379.6347" y2="379.2933"/>
    <line x1="316.5862" x2="290.3284" y1="385.4694" y2="385.8108"/>
    <polygon points="290.3334,386.1968 526.6082,379.6498 290.2431,379.2487"/>
    <line x1="290.3133" x2="395.3444" y1="384.6528" y2="383.287"/>
    <line x1="421.5972" x2="290.3083" y1="382.5596" y2="384.2668"/>
    <line x1="290.3033" x2="447.85" y1="383.8808" y2="381.8321"/>
    <line x1="447.8198" x2="290.2732" y1="379.5161" y2="381.5647"/>
    <line x1="290.2681" x2="421.557" y1="381.1787" y2="379.4715"/>
    <polygon points="454.9617,383.2395 455.2669,376.4477 454.9073,369.6585 453.8862,362.9369 452.2134,356.3472 449.9049,349.9523 446.8031,343.4813 443.2638,337.6765 439.1744,332.2451 434.574,327.2392 429.5067,322.7066 424.0208,318.6906 418.1689,315.2297 412.007,312.3569 405.5939,310.0998 398.991,308.4799 392.2614,307.5127 385.4695,307.2075 378.6803,307.5672 371.9587,308.5883 365.369,310.261 358.6259,312.716 352.5031,315.6713 346.6983,319.2106 341.267,323.3 336.261,327.9004 331.7284,332.9677 327.7125,338.4536 324.2515,344.3055 321.3788,350.4675 319.1217,356.8806 317.5018,363.4835 316.5346,370.213 316.2293,377.0049 316.589,383.7941 317.6101,390.5157 319.2829,397.1054 321.5913,403.5002 324.6932,409.9713 328.2325,415.7761 332.3219,421.2075 336.9222,426.2134 341.9896,430.746 347.4754,434.762 353.3273,438.2229 359.4893,441.0956 365.9024,443.3528 372.5053,444.9727 379.2349,445.9399 386.0268,446.2451 392.816,445.8854 399.5376,444.8643 406.1273,443.1916 412.8704,440.7366 418.9932,437.7813 424.798,434.2419 430.2293,430.1525 435.2352,425.5522 439.7679,420.4848 443.7838,414.999 447.2447,409.1471 450.1175,402.9851 452.3746,396.572 453.9945,389.9691"/>
    <line x1="474.1027" x2="290.2983" y1="381.1047" y2="383.4948"/>
    <line x1="290.2932" x2="500.3555" y1="383.1088" y2="380.3772"/>
    <line x1="500.3454" x2="290.2832" y1="379.6052" y2="382.3368"/>
    <line x1="290.2782" x2="474.0826" y1="381.9507" y2="379.5606"/>
    <line x1="526.6082" x2="290.2882" y1="379.6498" y2="382.7228"/>
    <polygon points="318.6752,363.0097 317.6459,369.7263 317.2874,376.5119 317.6034,383.2997 318.5906,390.0226 320.2395,396.6146 322.5338,403.0106 325.4508,409.1478 328.7517,414.6516 332.7921,420.115 337.3542,425.1509 342.393,429.7098 347.5449,433.5368 353.3649,437.0442 359.5038,439.9573 365.9013,442.2475 372.4943,443.8922 378.8421,444.8382 385.6282,445.1873 392.4155,444.8619 399.1371,443.8654 405.7268,442.2074 411.7707,440.0488 417.9199,437.1573 423.752,433.6703 429.2098,429.6224 434.2395,425.0534 438.7914,420.0083 442.8207,414.5368 446.2879,408.6929 449.1586,402.534 451.4046,396.1208 452.9322,389.8874 453.906,383.1625 454.2083,376.3742 453.8362,369.5893 452.7933,362.8747 451.2016,356.6574 448.8897,350.2677 445.9558,344.1386 442.4288,338.3306 438.5843,333.1917 434.0084,328.1684 428.957,323.6234 423.7945,319.8106 417.9649,316.3193 411.8179,313.4232 405.4142,311.1506 399.1871,309.5972 392.4663,308.5956 385.6793,308.2652 379.2688,308.5725 372.5444,309.5505 365.9502,311.1903 359.551,313.4758 353.4099,316.3843 347.9014,319.6776 342.4325,323.7105 337.3903,328.2656 332.8245,333.2981 328.9903,338.4448 325.475,344.2599 322.5534,350.3948 320.2544,356.7891"/>
    <polygon points="322.8249,351.1251 320.6895,357.1784 319.1349,363.4063 318.1373,370.1289 317.8164,376.9175 318.1378,383.3284 319.1358,390.0509 320.8005,396.6401 322.97,402.6813 325.8776,408.8241 329.1744,414.3317 333.2151,419.7963 337.7815,424.8298 342.5359,429.1424 347.9895,433.1978 353.821,436.688 359.6231,439.4338 366.0195,441.7304 372.6134,443.3763 379.3387,444.3552 386.1282,444.6572 392.5382,444.3181 399.2579,443.3013 405.4813,441.729 411.5285,439.5763 417.6794,436.6858 423.5107,433.1952 428.964,429.1394 433.9848,424.559 438.2842,419.7927 442.3244,414.3278 445.6209,408.82 448.3828,403.0256 450.6971,396.6356 452.3614,390.0463 453.359,383.3237 453.6798,376.5351 453.3208,369.7484 452.2854,363.0315 450.6957,356.8125 448.5262,350.7713 445.6187,344.6285 442.1119,338.8069 438.2812,333.6563 433.7148,328.6228 428.9604,324.3102 423.5068,320.2547 417.6752,316.7645 411.8732,314.0188 405.4768,311.7222 398.8829,310.0762 392.1576,309.0974 385.3681,308.7954 378.5824,309.1733 371.8684,310.2274 365.6538,311.8343 359.6187,314.0206 353.484,316.9452 347.9856,320.2574 342.5322,324.3132 337.5114,328.8936 333.2121,333.6599 329.1718,339.1248 325.6979,344.966"/>
    <polygon points="332.5039,420.5978 337.0814,425.6262 342.1316,430.1796 347.6056,434.2137 353.4501,437.6893 359.6084,440.5727 366.0206,442.8358 372.6244,444.4568 379.3558,445.4197 386.1492,445.7153 392.9387,445.3408 399.6584,444.2996 406.243,442.602 412.28,440.4108 418.4204,437.4896 424.2434,433.9781 429.6925,429.9104 434.7146,425.326 439.2611,420.2696 443.2877,414.7901 446.7553,408.9408 449.6303,402.7786 451.8846,396.3633 453.4965,389.7573 454.4503,383.0246 454.7366,376.2308 454.3916,369.8177 453.378,363.0937 451.7075,356.5023 449.3962,350.1073 446.4666,343.9709 442.9471,338.1526 438.872,332.7092 434.2808,327.6933 429.2181,323.1538 423.7331,319.1347 417.8791,315.6751 411.7129,312.8085 405.2946,310.563 398.6863,308.9601 391.9524,308.0156 385.1581,307.7386 378.3696,308.1318 372.023,309.1151 365.4338,310.7947 359.042,313.1147 352.9096,316.0527 347.0962,319.5802 341.6583,323.6628 336.6487,328.2609 332.1161,333.3298 328.1046,338.8203 324.653,344.679 321.9376,350.4991 319.6657,356.9082 318.0357,363.5098 317.0635,370.2398 316.7586,377.0329 317.1239,383.8229 318.1558,390.544 319.8444,397.1309 322.0274,403.1709 324.9402,409.3153 328.4437,415.1431"/>
    <line x1="296.9506" x2="51.7956" y1="456.3085" y2="393.4854"/>
    <polygon points="303.6499,593.1702 609.2312,509.6401 575.0004,384.4124 269.4191,467.9425"/>
    <polygon points="334.1236,577.8823 389.6526,544.2549 305.862,405.8915 250.3331,439.5189"/>
    <polygon points="391.9169,548.7992 390.1621,554.1859 388.9729,559.7251 388.3848,564.9803 388.306,570.2677 388.7373,575.5381 389.6747,580.7423 391.1095,585.832 393.0283,590.7596 395.6008,595.8072 398.4604,600.2553 401.7354,604.407 405.3955,608.2237 409.7054,611.9008 414.0509,614.9141 418.6665,617.4945 423.5095,619.6179 428.8993,621.3634 434.0676,622.4822 439.3196,623.0976 444.6066,623.2037 450.2538,622.7514 455.4565,621.805 460.5436,620.3614 465.4679,618.4342 470.1834,616.0411 474.6463,613.2046 479.1003,609.7035 482.9107,606.0368 486.3497,602.0199 489.3855,597.6901 491.9898,593.0879 494.1382,588.256 495.9115,582.8753 497.0571,577.7129 497.6996,572.464 497.8331,567.1777 497.4099,561.5282 496.4905,556.3207 495.0733,551.2262 493.1715,546.292 490.6164,541.2355 487.7722,536.7776 484.2634,532.3295 480.5901,528.5255 476.5673,525.0934 472.2323,522.0651 467.6256,519.4688 462.437,517.1939 457.4062,515.5646 452.2418,514.428 446.9919,513.7945 441.7054,513.6701 436.0566,514.103 430.8507,515.0315 425.7586,516.4575 420.8277,518.3678 415.7757,520.9316 411.3226,523.7835 407.1652,527.0514 403.083,530.9797 399.6578,535.0085 396.6369,539.3487 394.0486,543.9599"/>
    <polygon points="391.2208,545.8356 294.2363,482.8365 256.7416,540.5579 353.7261,603.557"/>
    <polygon points="393.2657,543.7014 391.0077,548.8946 389.3871,553.9256 388.2514,559.0878 387.5845,564.7112 387.493,570.3733 387.9277,575.641 388.8606,580.8436 390.2833,585.9341 392.3365,591.2116 394.728,595.9252 397.5563,600.3905 401.0421,604.8533 404.9638,608.9384 408.9815,612.3729 413.3071,615.4104 418.239,618.1932 423.4283,620.46 428.4566,622.0892 433.9892,623.2965 439.2391,623.9101 444.5235,624.0224 450.1694,623.5854 455.3736,622.6613 460.8248,621.1278 465.7475,619.2031 470.7932,616.6323 475.244,613.7814 479.404,610.5207 483.2355,606.8797 486.9371,602.5941 489.9819,598.2736 492.7731,593.3465 494.9135,588.5136 496.6864,583.1355 497.8396,577.9772 498.5256,572.3561 498.6469,567.0719 498.2195,561.4252 497.22,555.8513 495.78,550.7656 493.8636,545.8397 491.3015,540.7896 488.2389,536.0264 484.9571,531.8831 481.0215,527.8114 476.9922,524.3905 472.6563,521.3677 467.715,518.6016 462.8713,516.4859 457.8486,514.8396 452.6923,513.6777 447.0724,512.9821 441.7884,512.8519 436.141,513.2696 430.5654,514.2597 425.4773,515.691 420.5481,517.5991 415.4937,520.1526 411.0333,522.9885 406.5764,526.4819 402.498,530.4105 399.0703,534.434 396.0401,538.7648"/>
    <polygon points="402.3348,529.9884 398.8924,533.9978 395.6411,538.6327 393.0431,543.2344 390.7541,548.4126 388.9996,553.7954 387.7974,559.3279 387.1847,564.5767 387.0802,570.2373 387.4988,575.5051 388.4959,581.0782 389.9299,586.1644 391.9907,591.4375 394.3854,596.1482 397.4313,600.9206 400.6955,605.0764 404.3369,608.906 408.6199,612.6086 412.9358,615.6579 417.8565,618.4579 422.6825,620.6107 428.0534,622.4015 433.2057,623.5757 438.8222,624.289 444.482,624.4316 450.1272,624.0022 455.7003,623.005 460.7865,621.5711 465.7148,619.6642 470.7703,617.1156 475.2344,614.2876 479.6985,610.8054 483.5281,607.1641 487.2307,602.8811 490.482,598.2462 493.2488,593.3067 495.5028,588.1132 497.1235,583.0834 498.3257,577.551 498.9384,572.3022 499.0537,567.019 498.6243,561.3737 497.6271,555.8007 496.1932,550.7145 494.2863,545.7862 491.7377,540.7306 488.9097,536.2666 485.4275,531.8025 481.7862,527.9729 477.5032,524.2703 473.1873,521.221 468.2666,518.421 463.4406,516.2682 458.0697,514.4774 452.9173,513.3032 447.3009,512.5899 441.6411,512.4473 435.9958,512.8767 430.4228,513.8738 425.3366,515.3078 420.4082,517.2147 415.3527,519.7633 410.8887,522.5913 406.4246,526.0734"/>
    <polygon points="401.4891,489.2126 559.6349,374.6417 471.4749,252.9516 313.3291,367.5226"/>
    <line x1="359.7406" x2="625.9893" y1="507.3796" y2="275.2176"/>
    <polygon points="605.597,383.1765 478.3843,306.1553 407.6554,566.5418"/>
    <polygon points="532.1383,366.9647 574.2044,381.2069 573.8195,351.6326"/>
    <polygon points="378.9933,446.9799 386.1597,447.3027 392.9463,446.9359 399.6661,445.918 406.2569,444.2584 412.6574,441.9727 419.1417,438.904 424.9675,435.4037 430.7214,431.1194 435.7447,426.5414 440.5432,421.2088 444.5678,415.732 448.0469,409.8936 450.9482,403.7475 453.245,397.3509 454.9158,390.763 455.9834,383.6691 456.3254,376.5036 455.9767,369.716 454.9768,362.9935 453.2252,356.0369 450.9223,349.6425 448.015,343.4992 444.3204,337.3501 440.2614,331.8988 435.4293,326.5966 430.3771,322.0504 424.9112,318.0112 418.7486,314.339 412.5948,311.4541 405.8302,309.066 399.2291,307.4481 392.503,306.4727 385.7143,306.1487 378.9258,306.4792 371.8302,307.5346 365.2394,309.1941 358.8389,311.4799 352.6878,314.3707 346.8434,317.8398 341.0667,322.0933 336.0189,326.6443 331.1919,331.9511 326.9285,337.7205 323.4494,343.559 320.4044,350.0544 318.1419,356.4632 316.5063,363.06 315.4767,370.1594 315.1709,376.949 315.5195,383.7365 316.5195,390.4591 318.2711,397.4157 320.574,403.8101 323.4813,409.9533 327.1759,416.1025 331.2349,421.5538 336.067,426.856 341.1191,431.4022 346.5851,435.4413 352.4143,438.936 358.5526,441.8539 365.3043,444.2781 372.2672,446.0044"/>
    <polygon points="449.6125,619.9544 454.8143,619.0218 459.5367,617.6865 464.4566,615.7571 468.8278,613.5261 472.9688,610.8925 477.1286,607.6331 480.6763,604.2422 484.1203,600.2338 486.9383,596.216 489.5342,591.6127 491.5142,587.1223 493.1621,582.1011 494.2912,576.9384 494.8647,572.0644 494.9756,567.1581 494.5765,561.8885 493.7281,557.0548 492.3086,551.9643 490.5335,547.389 488.1482,542.6732 485.5146,538.5322 482.2552,534.3723 478.5898,530.5653 474.8559,527.3806 470.5182,524.3618 466.2348,521.9668 461.3916,519.8522 456.7232,518.3389 451.5604,517.2098 446.6865,516.6363 441.4027,516.5361 436.5106,516.9245 431.3088,517.857 426.5864,519.1923 421.6665,521.1218 417.2953,523.3528 413.1543,525.9864 408.9944,529.2458 405.4468,532.6367 402.0027,536.6451 399.1847,540.6629 396.5889,545.2662 394.6089,549.7566 392.961,554.7778 391.8951,559.5682 391.2584,564.8144 391.1475,569.7207 391.5466,574.9904 392.395,579.824 393.8144,584.9146 395.5896,589.4898 397.9748,594.2057 400.6085,598.3467 403.8679,602.5065 407.5333,606.3136 411.2672,609.4983 415.6048,612.5171 419.8883,614.9121 424.7315,617.0267 429.3999,618.54 434.1903,619.6059 439.4365,620.2426 444.7203,620.3428"/>
    <polygon points="471.6235,618.0376 476.3859,614.9717 480.8219,611.4502 484.8881,607.5074 488.3144,603.4815 491.5563,598.8372 494.3233,593.8952 496.4534,589.0568 498.2297,583.6787 499.4658,578.1514 500.1496,572.5289 500.2742,566.8664 499.8386,561.2193 498.847,555.6429 497.4283,550.5503 495.394,545.2644 492.8471,540.2054 489.8128,535.4229 486.3206,530.9638 482.4047,526.8717 478.1036,523.1866 473.4593,519.9447 468.5173,517.1777 463.6789,515.0476 458.3008,513.2712 452.7735,512.0351 447.151,511.3514 441.4885,511.2267 435.8414,511.6624 430.265,512.654 424.814,514.1919 419.5416,516.2611 414.4995,518.8413 409.7372,521.9071 405.5859,525.1804 401.4938,529.0963 397.8087,533.3974 394.5668,538.0417 391.7998,542.9836 389.5348,548.1749 387.8933,553.2002 386.6572,558.7275 385.9735,564.35 385.8488,570.0125 386.2845,575.6596 387.2761,581.2359 388.6948,586.3286 390.7291,591.6145 393.2759,596.6735 396.3103,601.4559 399.8025,605.9151 403.7183,610.0072 408.0195,613.6923 412.6638,616.9342 417.6057,619.7012 422.4442,621.8313 427.8223,623.6076 433.3496,624.8437 438.9721,625.5275 444.6346,625.6521 450.2817,625.2165 455.858,624.2249 461.3091,622.687 466.5815,620.6178"/>
    <polygon points="491.8548,599.1292 494.6306,594.1935 496.9087,589.0094 498.6672,583.6267 499.889,578.0974 500.5624,572.475 500.681,566.8136 500.2434,561.1678 499.254,555.5923 497.7223,550.1408 495.6631,544.8658 493.0962,539.8183 490.0465,535.0471 486.7904,530.8838 482.8945,526.7744 478.6141,523.067 473.9907,519.7976 469.0687,516.9976 463.8958,514.694 458.5218,512.9091 452.9987,511.6601 447.3796,510.959 441.7188,510.8127 436.071,511.2225 430.4907,512.1845 425.0317,513.6894 419.7466,515.7227 414.6866,518.2647 409.9005,521.2909 405.4343,524.7722 401.3313,528.6748 397.631,532.9612 394.3691,537.59 391.5771,542.5165 389.282,547.6932 387.5059,553.0701 386.266,558.5953 385.5742,564.2156 385.4371,569.8766 385.8562,575.5237 386.8273,581.1024 388.3411,586.559 390.383,591.8406 392.9333,596.8965 395.9674,601.6777 399.4559,606.1382 403.3653,610.2348 407.6578,613.9281 412.2919,617.1823 417.223,619.9662 422.4034,622.2529 427.7832,624.0201 433.3105,625.251 438.9318,625.9337 444.593,626.0614 450.2395,625.6331 455.8166,624.6529 461.2707,623.1301 466.549,621.0795 471.6007,618.521 476.3769,615.4791 480.8316,611.9832 484.9218,608.0671 488.6081,603.7686"/>
    <polygon points="493.2276,600.0122 496.0119,595.0802 498.4484,589.5524 500.2106,584.1699 501.5149,578.2715 502.1865,572.6478 502.3077,566.6081 501.8625,560.962 500.7961,555.0159 499.2514,549.567 497.1937,544.2903 494.4546,538.9061 491.1818,533.8286 487.6588,529.394 483.7287,525.3158 479.4273,521.6314 474.7939,518.3743 469.5334,515.4045 464.3509,513.1201 458.6098,511.2405 452.7073,509.955 447.0815,509.3014 441.419,509.1877 435.7714,509.6149 429.822,510.6624 424.3682,512.1898 419.085,514.2306 413.6921,516.9525 408.9122,519.9906 404.1584,523.718 400.0677,527.6351 396.3696,531.9247 393.0977,536.5477 390.1112,541.7987 387.6746,547.3264 385.9124,552.709 384.6082,558.6074 383.9366,564.2311 383.8153,570.2708 384.2606,575.9169 385.2426,581.4948 386.8717,587.3119 388.9294,592.5885 391.6685,597.9728 394.7217,602.743 398.2164,607.1999 402.1204,611.303 406.6957,615.2475 411.3291,618.5046 416.5896,621.4744 421.7722,623.7588 427.5132,625.6384 433.0433,626.8612 438.6648,627.5507 444.7041,627.6912 450.3516,627.2639 455.9326,626.2996 461.396,624.8071 466.6921,622.7999 472.1023,620.1125 476.9014,617.1049 481.6789,613.4079 486.0554,609.2438 489.7535,604.9542"/>
    <polygon points="536.8492,656.4359 340.2054,712.2165 366.8225,806.0499 563.4663,750.2693"/>
    <polygon points="494.9693,723.8622 492.4674,717.1476 488.6837,711.0625 484.0523,706.0979 478.2445,701.901 472.0769,699.0623 465.4856,697.4337 458.3283,697.0909 451.2451,698.1743 444.5175,700.6408 438.7144,704.1652 433.4237,708.9978 429.1965,714.7835 426.2005,721.2926 424.6066,727.8924 424.3014,735.0514 425.422,742.1287 427.9238,748.8433 431.7075,754.9283 436.6228,760.1422 442.4745,764.2778 448.6715,767.0516 455.6541,768.6605 462.4401,768.8784 469.1461,767.8166 475.8737,765.3501 481.9786,761.5984 486.9675,756.9931 491.1948,751.2074 494.1907,744.6983 495.8363,737.7243 496.0663,730.5625"/>
    <polygon points="498.2521,730.5232 497.0202,723.0778 494.5129,716.36 490.5653,709.9282 485.4284,704.3997 479.3035,699.9909 472.7878,696.9975 465.4528,695.2228 457.912,694.9271 450.4606,696.1222 443.3903,698.7611 436.9782,702.7405 431.7253,707.6213 427.2862,713.7242 424.1358,720.5818 422.3974,727.9255 422.1391,735.4677 423.371,742.9131 426.0449,749.9702 429.826,756.0627 434.9628,761.5912 441.0877,766.0 447.9608,769.1164 454.9384,770.7681 462.4793,771.0638 469.9307,769.8687 477.0009,767.2298 483.4131,763.2504 488.9161,758.0862 493.1051,752.2667 496.2555,745.4091 497.9939,738.0654"/>
    <polygon points="458.2841,697.5306 451.5736,698.5416 444.8365,700.9719 438.724,704.7044 433.735,709.3048 429.7121,714.7701 426.6754,721.2564 425.0018,728.2202 424.736,735.0012 425.7648,741.709 428.213,748.4396 431.7343,754.2408 436.5754,759.5189 442.3769,763.7185 448.5457,766.5468 455.5139,768.2019 462.2956,768.4496 469.0007,767.403 475.7247,764.9369 481.8173,761.1719 486.7818,756.5451 490.7756,751.0585 493.7778,744.5561 495.3636,737.9577 495.6654,731.1782 494.6723,724.465 492.2599,717.7215 488.7695,711.9017 483.9565,706.5979 478.1774,702.3676 472.0237,699.5065 465.4382,697.8682"/>
    <polygon points="450.6234,695.6285 447.018,696.7427 443.199,698.3685 436.7889,702.3354 431.2728,707.4732 426.8613,713.5858 423.7228,720.4397 421.9773,727.773 421.6914,735.3059 422.876,742.7504 425.4859,749.8225 429.4214,756.2518 434.5322,761.793 437.4689,764.1629 440.9493,766.4244 447.8185,769.5293 455.1603,771.2389 462.6944,771.4879 470.1331,770.2669 477.1923,767.6224 483.6023,763.6555 489.1185,758.5176 493.53,752.4051 496.6684,745.5512 498.4139,738.2179 498.6998,730.685 497.5152,723.2405 494.9053,716.1684 490.9699,709.739 485.8591,704.1978 479.7681,699.7565 472.9297,696.5845 465.605,694.8031 458.0737,694.4804"/>
    <polygon points="264.4129,868.0888 266.2583,865.2412 267.5231,862.0925 268.1606,858.7596 268.147,855.3664 267.4828,852.0388 266.1927,848.9004 264.0841,845.7765 261.656,843.4062 258.8183,841.5456 255.6764,840.2639 252.3471,839.6085 248.9538,839.604 245.6227,840.2503 242.4774,841.5236 239.6347,843.3765 237.2002,845.7402 235.0832,848.8584 233.7846,851.9934 233.1115,855.3192 233.1266,859.0881 233.8264,862.4084 235.1501,865.5328 237.0485,868.3453 239.4511,870.7415 242.6029,872.808 245.7584,874.056 249.0946,874.6756 252.4877,874.6438 255.8117,873.9618 259.2741,872.473 262.0557,870.5296"/>
    <polygon points="253.0859,875.442 256.3872,874.6854 259.8236,873.1544 262.594,871.2061 264.9621,868.7848 267.0253,865.639 268.4084,862.1405 269.054,858.4344 268.9355,854.6743 268.1788,851.373 266.6479,847.9366 264.6996,845.1662 261.9834,842.5634 259.1325,840.7349 255.634,839.3518 252.3034,838.7365 248.5417,838.7783 244.8664,839.5813 241.4301,841.1123 238.6597,843.0606 236.0568,845.7768 234.2284,848.6277 232.9511,851.7645 232.23,855.4567 232.2718,859.2185 233.0748,862.8937 234.6057,866.3301 236.5541,869.1005 238.9754,871.4686 242.1212,873.5318 245.6197,874.9149 249.3258,875.5606"/>
    <polygon points="741.9052,518.7616 567.8195,336.9195 464.8969,435.4519 638.9826,617.294"/>
  </g>
</svg>
