<?xml version="1.0" encoding="utf-8" ?>
<svg xmlns="http://www.w3.org/2000/svg" xmlns:cc="http://creativecommons.org/ns" xmlns:dc="http://purl.org/dc/elements/1.1/" xmlns:ev="http://www.w3.org/2001/xml-events" xmlns:inkscape="http://www.inkscape.org/namespaces/inkscape" xmlns:rdf="http://www.w3.org/1999/02/22-rdf-syntax-ns" xmlns:sodipodi="http://sodipodi.sourceforge.net/DTD/sodipodi-0.dtd" xmlns:xlink="http://www.w3.org/1999/xlink" baseProfile="tiny" height="29.7cm" version="1.2" viewBox="0 0 793.7007874015749 1122.5196850393702" width="21.0cm">
  <metadata>
    <rdf:RDF>
      <cc:Work>
        <dc:format>image/svg+xml</dc:format>
        <dc:source>Vsketch with params {'__seed__': 473319883, 'debug_show_shapes': False, 'debug_draw': False, 'occult': False, 'scale': 1.0, 'area_type': 'RECT', 'width': 12.0, 'height': 19.0, 'num_circ_min': 2, 'num_circ_max': 10, 'circ_rad_min': 0.5, 'circ_rad_max': 2.0, 'num_circ_shaded_min': 0, 'num_circ_shaded_max': 0, 'circ_shaded_rad_min': 0.05, 'circ_shaded_rad_max': 0.5, 'circ_shaded_fill_dist_min': 0.05, 'circ_shaded_fill_dist_max': 0.2, 'num_circ_fill_min': 0, 'num_circ_fill_max': 0, 'circ_fill_rad_min': 0.05, 'circ_fill_rad_max': 0.5, 'num_circ_dash_min': 0, 'num_circ_dash_max': 0, 'circ_dash_rad_min': 0.05, 'circ_dash_rad_max': 0.5, 'num_circ_dot_min': 0, 'num_circ_dot_max': 0, 'circ_dot_rad_min': 0.05, 'circ_dot_rad_max': 0.5, 'circ_dot_dens_min': 400.0, 'circ_dot_dens_max': 800.0, 'circ_dot_dot_rad_min': 0.02, 'circ_dot_dot_rad_max': 0.06, 'num_circ_half_fill_min': 0, 'num_circ_half_fill_max': 0, 'circ_half_fill_rad_min': 0.05, 'circ_half_fill_rad_max': 2.0, 'circ_half_fill_gain_min': 0.4, 'circ_half_fill_gain_max': 0.6, 'num_circ_outer_fill_min': 0, 'num_circ_outer_fill_max': 10, 'circ_outer_fill_rad_min': 0.05, 'circ_outer_fill_rad_max': 2.0, 'circ_outer_fill_gain_min': 0.0, 'circ_outer_fill_gain_max': 0.2, 'num_line_min': 5, 'num_line_max': 8, 'line_length_min': 5.0, 'line_length_max': 13.0, 'num_thick_line_min': 0, 'num_thick_line_max': 0, 'thick_line_length_min': 3.0, 'thick_line_length_max': 7.0, 'num_tri_line_min': 4, 'num_tri_line_max': 8, 'tri_line_length_min': 4.0, 'tri_line_length_max': 10.0, 'tri_line_width_gain_min': 0.02, 'tri_line_width_gain_max': 0.04, 'num_rect_min': 5, 'num_rect_max': 10, 'rect_width_min': 1.0, 'rect_width_max': 4.0, 'rect_height_gain_min': 0.3, 'rect_height_gain_max': 3.0, 'num_rect_shaded_min': 0, 'num_rect_shaded_max': 0, 'rect_shaded_width_min': 0.1, 'rect_shaded_width_max': 1.0, 'rect_shaded_height_gain_min': 0.5, 'rect_shaded_height_gain_max': 2.0, 'rect_shaded_fill_dist_min': 0.05, 'rect_shaded_fill_dist_max': 0.2, 'num_rect_fill_min': 0, 'num_rect_fill_max': 0, 'rect_fill_width_min': 0.1, 'rect_fill_width_max': 1.0, 'rect_fill_height_gain_min': 0.5, 'rect_fill_height_gain_max': 2.0, 'num_rect_dash_min': 0, 'num_rect_dash_max': 0, 'rect_dash_width_min': 0.1, 'rect_dash_width_max': 1.0, 'rect_dash_height_gain_min': 0.5, 'rect_dash_height_gain_max': 2.0, 'num_rect_dot_min': 0, 'num_rect_dot_max': 0, 'rect_dot_width_min': 0.1, 'rect_dot_width_max': 1.0, 'rect_dot_height_gain_min': 0.5, 'rect_dot_height_gain_max': 2.0, 'rect_dot_dens_min': 400.0, 'rect_dot_dens_max': 800.0, 'rect_dot_rad_min': 0.02, 'rect_dot_rad_max': 0.06, 'num_tri_min': 0, 'num_tri_max': 5, 'tri_width_min': 0.5, 'tri_width_max': 4.0, 'tri_height_gain_min': 0.5, 'tri_height_gain_max': 2.0, 'num_tri_shaded_min': 0, 'num_tri_shaded_max': 0, 'tri_shaded_width_min': 0.1, 'tri_shaded_width_max': 1.0, 'tri_shaded_height_gain_min': 0.5, 'tri_shaded_height_gain_max': 2.0, 'tri_shaded_fill_dist_min': 0.05, 'tri_shaded_fill_dist_max': 0.2, 'num_tri_fill_min': 0, 'num_tri_fill_max': 0, 'tri_fill_width_min': 0.4, 'tri_fill_width_max': 1.0, 'tri_fill_height_gain_min': 0.5, 'tri_fill_height_gain_max': 3.0, 'num_tri_dash_min': 0, 'num_tri_dash_max': 0, 'tri_dash_width_min': 0.1, 'tri_dash_width_max': 1.0, 'tri_dash_height_gain_min': 0.5, 'tri_dash_height_gain_max': 2.0, 'num_tri_dot_min': 0, 'num_tri_dot_max': 0, 'tri_dot_width_min': 0.1, 'tri_dot_width_max': 1.0, 'tri_dot_height_gain_min': 0.5, 'tri_dot_height_gain_max': 2.0, 'tri_dot_dens_min': 400.0, 'tri_dot_dens_max': 800.0, 'tri_dot_rad_min': 0.02, 'tri_dot_rad_max': 0.06}</dc:source>
        <dc:date>2023-11-21T20:31:21.425832</dc:date>
      </cc:Work>
    </rdf:RDF>
  </metadata>
  <defs/>
  <g fill="none" id="layer1" inkscape:groupmode="layer" inkscape:label="1" stroke="#0000ff" style="display:inline">
    <polygon points="360.4481,309.3549 366.0866,308.8033 372.0155,307.6347 377.7976,305.8787 383.375,303.553 388.3681,300.8758 393.3918,297.5175 398.0543,293.6733 402.0557,289.6624 405.8887,284.9907 409.235,279.9589 412.061,274.6175 414.2126,269.3765 415.8629,263.9567 417.0544,258.0324 417.6472,252.0186 417.6352,245.9758 417.0186,239.9644 415.8969,234.411 414.1319,228.6317 411.9596,223.3992 409.1124,218.069 405.7462,213.0506 401.8947,208.3941 397.5966,204.1464 393.1999,200.5734 388.1628,197.2349 383.1592,194.5776 377.5726,192.2739 372.1502,190.6321 366.2241,189.4498 360.2094,188.8665 354.1666,188.8879 348.1562,189.5139 342.6046,190.6443 337.1836,192.2907 331.5989,194.5989 326.5975,197.2604 321.5632,200.603 316.8887,204.4326 312.8749,208.431 309.0272,213.0906 305.6652,218.1119 302.8224,223.4444 300.5275,229.0346 298.8942,234.4595 297.7212,240.3875 297.1655,246.0257 297.1585,252.0686 297.7563,258.0818 298.9527,264.0051 300.6075,269.4235 302.9246,275.0046 305.5939,280.0018 308.9444,285.0308 312.7813,289.6994 316.7859,293.7069 321.4516,297.5473 326.4781,300.9015 331.815,303.7358 337.4088,306.022 343.2033,307.7369 348.7661,308.8105 354.7826,309.375"/>
    <polygon points="400.8431,287.6128 316.6395,256.9188 239.1969,469.3692 323.4005,500.0632"/>
    <line x1="432.1574" x2="380.3781" y1="338.2902" y2="387.7167"/>
    <line x1="380.1162" x2="414.6358" y1="387.4423" y2="354.4913"/>
    <line x1="421.1833" x2="386.6638" y1="361.3505" y2="394.3015"/>
    <line x1="386.4019" x2="438.1812" y1="394.0271" y2="344.6007"/>
    <line x1="455.179" x2="386.14" y1="327.8508" y2="393.7528"/>
    <line x1="385.8781" x2="472.1769" y1="393.4784" y2="311.101"/>
    <line x1="467.2007" x2="380.9019" y1="305.888" y2="388.2654"/>
    <line x1="380.64" x2="449.6791" y1="387.991" y2="322.0891"/>
    <line x1="484.7224" x2="381.1638" y1="289.6869" y2="388.5398"/>
    <line x1="381.4257" x2="502.2441" y1="388.8141" y2="273.4857"/>
    <line x1="506.1726" x2="385.3543" y1="277.6013" y2="392.9297"/>
    <line x1="385.0924" x2="523.1705" y1="392.6553" y2="260.8514"/>
    <line x1="519.7657" x2="381.6876" y1="257.2846" y2="389.0885"/>
    <line x1="381.9495" x2="537.2874" y1="389.3629" y2="241.0835"/>
    <line x1="540.1683" x2="384.8305" y1="244.1016" y2="392.3809"/>
    <line x1="384.5686" x2="557.1662" y1="392.1066" y2="227.3517"/>
    <line x1="554.8091" x2="382.2114" y1="224.8824" y2="389.6372"/>
    <line x1="382.4733" x2="572.3307" y1="389.9116" y2="208.6813"/>
    <line x1="574.1641" x2="384.3067" y1="210.6019" y2="391.8322"/>
    <line x1="384.0448" x2="591.1619" y1="391.5578" y2="193.852"/>
    <line x1="589.8524" x2="382.7352" y1="192.4802" y2="390.186"/>
    <line x1="382.9971" x2="607.3741" y1="390.4603" y2="176.279"/>
    <line x1="608.1598" x2="383.7829" y1="177.1021" y2="391.2835"/>
    <line x1="383.521" x2="625.1576" y1="391.0091" y2="160.3523"/>
    <line x1="624.8957" x2="383.2591" y1="160.0779" y2="390.7347"/>
    <line x1="385.6162" x2="489.1747" y1="393.204" y2="294.3511"/>
    <line x1="404.1854" x2="386.9257" y1="378.1004" y2="394.5759"/>
    <line x1="379.8543" x2="397.1141" y1="387.1679" y2="370.6924"/>
    <line x1="356.0754" x2="554.985" y1="462.4601" y2="77.9005"/>
    <polygon points="633.6566,151.9774 379.5924,386.8935 387.1876,394.8503"/>
    <polygon points="606.7675,215.0145 518.0213,212.472 514.7405,326.987 603.4867,329.5295"/>
    <polygon points="579.7058,432.6553 572.5306,432.4735 564.9954,433.0193 557.9213,434.2331 550.9944,436.1133 543.9309,438.7936 537.1707,442.1667 530.7816,446.1985 524.8275,450.8489 519.6284,455.7973 514.9229,461.2171 510.5495,467.3775 506.9849,473.6073 503.8898,480.4992 501.4992,487.6659 499.837,495.0357 498.9478,502.158 498.7471,509.7102 499.3022,517.2448 500.6078,524.6861 502.5314,531.601 505.2559,538.6476 508.6711,545.3865 512.5243,551.4421 516.9353,557.1042 522.137,562.5832 527.5627,567.282 533.7286,571.6476 540.3,575.375 546.8586,578.2908 553.6644,580.5705 561.028,582.2604 568.5235,583.2057 575.6983,583.4055 582.8595,582.9228 590.312,581.6825 597.2435,579.8196 604.3137,577.157 610.7521,573.9847 617.1713,570.0009 623.1602,565.3953 628.6587,560.2142 633.6117,554.5094 637.7666,548.6567 641.3468,542.4359 644.459,535.5518 646.7643,528.7545 648.4818,521.3974 649.4553,513.9054 649.6749,506.3537 649.1386,498.8178 647.9337,491.7422 645.9454,484.4535 643.2386,477.4001 640.0261,470.9817 636.0022,464.5875 631.6054,458.9143 626.4174,453.4223 621.0035,448.71 614.8485,444.3289 608.6232,440.7565 601.7352,437.6529 594.5715,435.2533 587.2037,433.5818"/>
    <polygon points="579.5055,441.3698 573.0909,441.1688 566.6867,441.5845 559.9827,442.6924 553.7852,444.3594 547.7764,446.6135 541.6814,449.6171 536.2332,453.0089 531.1357,456.908 526.173,461.5494 521.9418,466.3748 517.9887,471.9015 514.7891,477.4647 512.1383,483.3094 509.9568,489.7446 508.5072,495.9965 507.6338,502.735 507.4419,509.1499 507.8666,515.5536 508.984,522.256 510.7767,528.8101 513.0733,534.8029 515.9346,540.5475 519.3341,545.9909 523.4852,551.3704 527.8888,556.039 532.7201,560.2633 537.9347,564.0043 543.4843,567.2275 549.6686,570.0429 556.1069,572.2152 562.3608,573.6561 569.1006,574.5199 575.5157,574.7028 581.9187,574.269 588.6196,573.1421 594.8123,571.4576 601.1607,569.035 606.9012,566.1657 612.6492,562.542 617.7134,558.5997 622.3758,554.1896 626.5933,549.3522 630.327,544.1324 633.5423,538.5782 636.3489,532.39 638.4092,526.312 639.9441,519.6927 640.769,513.3282 640.9722,506.5363 640.4842,499.759 639.3931,493.4347 637.6998,487.2443 635.4202,481.2451 632.5752,475.4925 629.1911,470.0395 625.0552,464.6482 620.6649,459.9672 615.5495,455.4946 610.3244,451.7683 604.7657,448.5608 598.5735,445.763 592.4926,443.7112 586.2428,442.2527"/>
    <polygon points="572.9468,438.797 566.1642,439.255 559.4593,440.3768 552.897,442.1514 546.5406,444.5619 540.4517,447.5848 534.6889,451.1909 529.3081,455.3455 524.3612,460.0083 519.896,465.1343 515.9558,470.6739 512.5784,476.5737 509.7967,482.7765 507.6375,489.2226 506.1216,495.8495 505.2637,502.5932 505.0721,509.3885 505.5486,516.1698 506.6081,522.5025 508.3649,529.0696 510.7579,535.4325 513.7642,541.5297 517.3546,547.3023 521.4944,552.6945 526.1437,557.6541 531.2574,562.1332 536.7863,566.0886 542.6768,569.4821 548.8721,572.2807 555.3122,574.4576 561.9349,575.9915 568.6762,576.8679 575.471,577.078 582.2536,576.62 588.9585,575.4982 595.5208,573.7236 601.8772,571.3131 607.9661,568.2902 613.7289,564.6841 619.1097,560.5295 624.0566,555.8667 628.5218,550.7407 632.462,545.2011 635.8394,539.3013 638.6211,533.0985 640.7803,526.6524 642.2962,520.0256 643.1541,513.2819 643.3457,506.4865 642.8692,499.7052 641.7291,493.0034 639.9365,486.446 637.5087,480.0962 634.4692,474.0155 630.8473,468.2627 626.9234,463.1806 622.2741,458.2209 617.1603,453.7418 611.6315,449.7864 605.741,446.393 599.5457,443.5943 593.1056,441.4175 586.4829,439.8835 579.7416,439.0072"/>
    <polygon points="591.9721,444.3866 585.7098,442.9608 578.9617,442.1222 572.5409,441.9719 566.1359,442.4465 559.4388,443.625 553.2566,445.3656 547.2729,447.6988 541.5444,450.6027 536.1253,454.0498 531.0669,458.0074 526.4173,462.438 522.2204,467.2996 518.3142,472.8657 515.1694,478.4657 512.584,484.3448 510.5823,490.4475 509.1834,496.7158 508.4004,503.0904 508.2409,509.511 508.7064,515.9167 509.7923,522.2467 511.4885,528.4413 513.9317,534.7872 516.8274,540.5199 520.2667,545.944 524.2171,551.0079 528.641,555.6639 533.4966,559.8678 539.0571,563.7819 544.6525,566.9347 550.528,569.5286 556.6278,571.539 562.8941,572.9469 569.2676,573.739 575.6879,573.9076 582.0943,573.4514 588.4259,572.3745 594.6228,570.6872 600.6264,568.4054 606.3796,565.5508 611.8282,562.1504 617.2077,557.991 621.87,553.5737 626.0808,548.7242 630.0029,543.1692 633.1637,537.5783 635.766,531.7066 637.7852,525.6097 639.202,519.3454 640.0032,512.973 640.1811,506.5529 639.734,500.146 638.6662,493.8128 636.9877,487.6135 634.7145,481.6067 631.8682,475.8493 628.4756,470.3959 624.3239,465.0104 619.9133,460.3418 615.0698,456.1241 609.8392,452.3972 604.271,449.1964 598.0661,446.4145"/>
    <polygon points="606.1893,444.4019 599.9784,441.6392 593.5321,439.4821 586.5375,437.8837 579.7941,437.0268 572.622,436.8249 565.466,437.3465 558.7675,438.5034 551.8512,440.4123 545.5075,442.8548 539.097,446.0774 533.3523,449.7115 527.9809,453.8774 523.0316,458.537 518.5497,463.6478 514.371,469.4804 510.8011,475.7042 508.0138,481.9041 505.831,488.3417 504.2048,495.33 503.321,502.0699 503.0905,509.2412 503.5836,516.3991 504.7139,523.1022 506.5951,530.0261 509.0124,536.3794 512.0251,542.473 515.8206,548.5618 520.2102,554.2373 524.8764,559.1804 529.9932,563.6555 535.8313,567.8264 541.7233,571.2164 548.2634,574.1671 554.7039,576.3413 561.6943,577.9583 568.4354,578.8332 575.607,579.0541 582.7643,578.5515 589.4658,577.4123 596.028,575.6387 602.7373,573.0962 608.8269,570.0754 614.9107,566.2718 620.5803,561.8747 625.5172,557.2019 630.2192,551.7824 634.1487,546.2356 637.5308,540.3391 640.4729,533.795 642.7407,526.9879 644.2462,520.3591 645.1122,513.6168 645.3236,506.445 644.8564,499.6635 643.6634,492.5884 641.7638,485.6695 639.3296,479.3226 636.1156,472.9077 632.4891,467.1583 628.3303,461.7813 623.4051,456.5638 617.9793,451.869 612.4274,447.9469"/>
    <polygon points="616.901,463.4832 612.3428,459.5164 607.418,456.0149 602.1741,453.0126 596.6613,450.5381 590.9328,448.6154 585.0435,447.2629 579.05,446.4935 573.0101,446.3148 566.9816,446.7283 561.0226,447.7302 555.1904,449.3107 549.541,451.4548 544.1286,454.1418 539.0054,457.3459 534.2206,461.0362 529.8201,465.1773 525.8463,469.7294 522.3373,474.6488 519.3269,479.8882 516.844,485.3971 514.9125,491.1227 513.5509,497.0099 512.7724,503.0022 512.5844,509.0419 512.9887,515.071 513.9814,521.0315 515.5531,526.8661 517.6885,532.5189 520.3672,537.9353 523.5633,543.0634 527.4919,548.141 531.6532,552.5224 536.2236,556.4753 541.159,559.9616 546.4122,562.9479 551.9325,565.4054 557.6669,567.3106 563.5603,568.6451 569.5561,569.396 575.5966,569.5563 581.6237,569.1243 587.5796,568.1041 593.407,566.5057 599.0498,564.3443 604.4539,561.6408 609.5673,558.421 614.3408,554.7161 618.7286,550.5615 622.6884,545.9972 626.1823,541.067 629.1766,535.8185 631.6426,530.302 633.5566,524.5705 634.9001,518.6791 635.6602,512.6845 635.8297,506.6443 635.407,500.6164 634.396,494.659 632.8064,488.8292 630.6537,483.183 627.9584,477.7748 624.7465,472.6565 621.0489,467.8774"/>
    <polygon points="633.6509,466.7495 629.2778,461.0631 624.3629,455.8378 618.9545,451.1253 613.1058,446.9717 606.8744,443.418 600.3215,440.4992 593.5117,438.2439 586.512,436.6744 579.3913,435.8061 572.5971,435.6381 565.4421,436.1535 558.3734,437.3752 551.4605,439.2913 545.1168,441.7299 538.7006,444.9379 532.9433,448.5494 527.2626,452.9299 522.0438,457.8516 517.3383,463.2662 513.1923,469.1203 509.6468,475.3563 506.8734,481.5609 504.5914,488.3618 502.9945,495.3553 502.0983,502.4726 501.9038,509.2661 502.3478,516.0478 503.5048,523.1274 505.3576,530.0575 507.8878,536.77 511.0706,543.1988 514.8747,549.2806 519.2626,554.9556 524.1911,560.168 529.3151,564.6327 535.1529,568.8015 541.3751,572.3715 547.9203,575.3074 554.7241,577.5805 561.7197,579.1682 568.4616,580.0261 575.6319,580.2408 582.7882,579.7441 589.8601,578.5409 596.778,576.6429 603.128,574.2209 609.5526,571.0297 615.6294,567.2177 621.2987,562.8224 626.243,558.1595 630.9627,552.7572 635.1239,546.914 638.6857,540.6872 641.6131,534.1382 643.775,527.6949 645.3902,520.7056 646.3049,513.5907 646.5103,506.4201 646.0043,499.2645 644.7918,492.1941 642.8848,485.2787 640.4544,478.9319 637.2549,472.5115"/>
    <polygon points="635.6877,480.8699 632.6369,474.7943 629.2055,469.367 625.0252,464.0056 620.5984,459.3544 615.4501,454.9142 610.199,451.2187 604.6191,448.0415 598.4092,445.2745 592.3155,443.2501 585.6843,441.7512 579.3124,440.9579 572.8939,440.7767 566.4873,441.2091 559.7821,442.3313 553.2246,444.1255 547.2277,446.4207 541.1479,449.4629 535.7158,452.8867 530.3485,457.0595 525.691,461.4797 521.4769,466.3245 517.5408,471.8677 514.1852,477.7803 511.58,483.6492 509.547,489.7399 508.0388,496.369 507.2366,502.7398 507.0542,509.5359 507.5136,515.9405 508.6641,522.641 510.486,529.1908 512.8064,535.178 515.6879,540.9162 519.321,546.6625 523.5164,552.0122 527.9562,556.6509 532.8187,560.8446 538.3784,564.7573 543.9673,567.9188 549.8325,570.5322 556.2843,572.6756 562.5474,574.0912 569.2938,574.9312 575.7128,575.0944 582.4932,574.5984 588.8202,573.5029 595.3725,571.6902 601.363,569.3782 607.4342,566.3189 612.8567,562.8798 618.2122,558.692 622.8572,554.2586 627.0577,549.4021 630.9782,543.8478 634.3172,537.9258 636.9059,532.0496 638.9217,525.9531 640.3462,519.692 641.1956,512.9468 641.3678,506.528 640.8814,499.7469 639.7948,493.4185 637.9913,486.8635"/>
    <line x1="673.6431" x2="347.2378" y1="491.259" y2="196.8942"/>
    <polygon points="199.8919,290.7499 196.9327,287.8371 193.7016,285.2294 190.2298,282.9519 186.5509,281.0266 182.7006,279.4724 178.7162,278.3041 174.6362,277.5331 170.5002,277.1669 166.3483,277.209 162.2206,277.659 158.1571,278.5126 154.1972,279.7615 150.3792,281.3936 146.7401,283.393 143.3152,285.7405 140.1377,288.4132 137.2382,291.3854 134.6449,294.6282 132.383,298.1101 130.4742,301.7976 128.9372,305.6548 127.7868,309.6444 127.034,313.7278 126.6863,317.8654 126.747,322.0171 127.2155,326.1428 128.0873,330.2024 129.3539,334.1567 131.003,337.9673 133.0188,341.5974 135.3815,345.0117 138.0685,348.1773 141.0536,351.0634 144.3079,353.6422 147.8,355.8885 151.4959,357.7807 155.36,359.3005 159.3547,360.4331 163.4414,361.1675 171.3551,361.4415 175.4828,360.9915 179.5463,360.1379 183.5062,358.889 187.3242,357.2569 190.9632,355.2575 194.3881,352.91 197.5657,350.2372 200.4652,347.2651 203.0584,344.0223 205.3204,340.5404 207.2291,336.8529 208.7662,332.9957 209.9166,329.0061 210.6693,324.9227 211.017,320.7851 210.9563,316.6334 210.4878,312.5077 209.6161,308.4481 208.3495,304.4938 206.7003,300.6832 202.5504,293.9393"/>
    <polygon points="202.0612,348.2316 204.6385,344.9719 207.0859,341.1563 208.9738,337.4544 210.5043,333.591 211.6637,329.6005 212.4933,325.144 212.8475,321.0036 212.7869,316.471 212.2605,311.9687 211.3736,307.9089 209.9744,303.5973 208.3084,299.7903 206.2909,296.1574 203.7104,292.4306 201.0195,289.264 197.7581,286.1158 194.4983,283.5384 191.0102,281.2799 187.3246,279.3603 183.1174,277.6727 179.1269,276.5132 174.6705,275.6836 170.5301,275.3294 166.3747,275.3672 162.2414,275.7965 157.8008,276.7069 153.4773,278.069 149.6561,279.7023 145.6838,281.886 142.2573,284.237 139.0676,286.9006 135.8915,290.1349 133.2863,293.3724 130.8063,297.1668 128.7296,301.1961 127.1991,305.0595 125.953,309.4179 125.2101,313.5065 124.8559,317.6469 124.9165,322.1795 125.4428,326.6818 126.3297,330.7416 127.5955,334.6997 129.2287,338.5208 131.4124,342.4931 133.7634,345.9197 136.6839,349.3865 139.6613,352.2854 143.205,355.1121 146.6932,357.3706 150.7225,359.4473 154.5859,360.9778 158.5765,362.1373 163.0329,362.9669 167.1733,363.3211 171.7059,363.2605 175.8354,362.7957 180.268,361.8472 184.5797,360.448 188.3866,358.782 192.3401,356.5643 195.7463,354.1839 198.913,351.4931"/>
    <polygon points="158.4471,361.6332 162.5215,362.4314 167.0305,362.8557 171.1823,362.8314 175.3129,362.412 179.7509,361.5085 183.7167,360.2795 187.8878,358.5151 191.5317,356.5251 195.2709,353.9697 198.4487,351.2976 201.6078,348.0524 204.1935,344.804 206.4583,341.3243 208.3816,337.6447 210.0697,333.4422 211.2263,329.4547 211.9981,325.3752 212.393,320.8634 212.3417,316.7119 211.8355,312.2113 210.9632,308.1521 209.7084,304.1944 208.0826,300.3741 206.1006,296.7258 203.7803,293.2829 200.8881,289.7976 197.932,286.8822 194.407,284.0387 190.9321,281.7664 186.9139,279.6771 183.0579,278.1379 179.0729,276.9727 174.621,276.1404 170.4842,275.7873 165.9557,275.8531 161.4585,276.3886 157.4051,277.2873 153.4556,278.5677 149.6459,280.2183 146.0106,282.224 142.5828,284.5666 139.1164,287.4814 136.2203,290.4564 133.3998,293.9998 131.1501,297.4894 129.2428,301.1772 127.6952,305.0299 126.5213,309.0123 125.6794,313.4624 125.3174,317.5984 125.3507,321.7501 125.779,325.8798 126.5985,329.95 127.9298,334.2789 129.539,338.1063 131.5052,341.763 134.0362,345.5187 136.9435,348.9914 139.9122,351.894 143.1437,354.5007 146.9342,356.9794 150.6179,358.8947 154.4672,360.4507"/>
    <polygon points="158.6411,363.0965 162.7234,363.8519 167.2352,364.2426 171.7634,364.1773 176.262,363.6566 180.6854,362.6859 184.9887,361.2749 188.7905,359.6071 192.4222,357.5955 196.1536,355.0294 199.3315,352.3579 202.5009,349.1231 205.3286,345.5858 207.786,341.7818 209.8482,337.7499 211.3733,333.8886 212.623,329.5358 213.3784,325.4535 213.769,320.9417 213.7037,316.4135 213.2437,312.2875 212.3102,307.8561 210.9355,303.5412 209.1335,299.3864 206.9226,295.4341 204.3252,291.7243 201.3677,288.2948 198.3658,285.4269 194.8049,282.629 191.3083,280.3909 187.6201,278.485 183.4151,276.8036 179.0622,275.554 174.98,274.7986 170.8454,274.4231 166.3168,274.4504 161.814,274.9332 157.3826,275.8668 153.4216,277.1104 149.2519,278.8774 145.6035,280.8584 141.8506,283.3931 138.3718,286.2925 135.2025,289.5274 132.3748,293.0647 129.9173,296.8687 127.8552,300.9006 126.3301,304.7619 125.0804,309.1147 124.325,313.197 123.9343,317.7088 123.9997,322.237 124.5203,326.7356 125.3932,330.7944 126.7679,335.1093 128.4038,338.925 130.3848,342.5735 132.9195,346.3263 135.819,349.8051 139.0538,352.9744 142.5912,355.8022 146.3951,358.2596 150.0833,360.1655 154.2883,361.8469"/>
    <polygon points="132.6466,346.7273 135.559,350.2004 138.8031,353.3658 142.3466,356.192 146.1542,358.6509 149.8442,360.5611 154.0501,362.2507 158.0362,363.4241 162.4867,364.2826 167.0006,364.6932 171.533,364.6517 176.0386,364.1586 180.4727,363.2187 184.7909,361.8414 188.6108,360.2063 192.5882,358.0326 196.329,355.4732 199.796,352.5537 202.704,349.5858 205.5523,346.0599 208.0349,342.2677 210.127,338.2468 211.8078,334.0375 213.0606,329.6815 213.8729,325.2223 214.2234,321.0819 214.1725,316.5497 213.67,312.045 212.7208,307.613 211.3346,303.2976 209.6915,299.4811 207.5096,295.5083 204.9424,291.7728 202.0157,288.3118 199.0417,285.41 195.8149,282.7922 192.0382,280.286 188.0305,278.1688 183.8317,276.4618 179.4836,275.1818 175.0296,274.3418 170.8915,273.9654 166.359,273.988 161.8513,274.4624 157.4134,275.3838 153.0895,276.7432 148.9226,278.5268 145.2765,280.5195 141.525,283.0632 138.0459,285.9684 134.8737,289.2059 132.0401,292.7435 129.7643,296.22 127.6554,300.2321 125.9571,304.4344 124.6862,308.7852 123.8554,313.241 123.473,317.7574 123.5428,322.2894 124.0641,326.7919 125.0316,331.22 126.4359,335.5295 128.0948,339.3391 130.095,342.9811"/>
    <polygon points="126.5422,313.9473 126.2198,318.0849 126.3011,322.2342 126.7853,326.356 127.6677,330.4112 128.9402,334.3614 130.5905,338.1693 132.6031,341.7987 134.959,345.2154 137.6357,348.3869 140.6081,351.2832 143.8478,353.877 147.3243,356.1436 151.0047,358.0615 154.854,359.6127 158.8359,360.7824 162.9126,361.5596 167.0455,361.9369 171.1956,361.9107 175.3234,361.4813 179.39,360.6527 183.3567,359.4328 187.5262,357.6694 191.1646,355.6729 194.5916,353.3322 197.7749,350.6695 200.6844,347.71 203.2924,344.4817 205.7649,340.6895 207.6665,337.0007 209.2007,333.1445 210.3528,329.1575 211.1119,325.0774 211.4709,320.9429 211.4263,316.793 210.9787,312.6671 210.1321,308.6042 208.8947,304.6429 207.1128,300.4812 205.1002,296.8518 202.7444,293.4351 200.0676,290.2636 196.8114,287.1186 193.5488,284.5536 190.0524,282.3179 186.3552,280.4326 182.4923,278.9155 178.5002,277.7811 174.4168,277.04 170.2807,276.6993 165.7545,276.788 161.6349,277.2904 157.5836,278.1908 153.6391,279.4807 149.8385,281.1478 146.218,283.1765 142.8118,285.5474 139.6522,288.2382 136.769,291.2233 134.1897,294.4745 131.9385,297.961 130.0368,301.6498 128.5027,305.506 127.3506,309.493"/>
    <polygon points="128.1297,305.1786 126.9572,309.1636 126.1737,313.2429 125.7864,317.3787 125.82,321.9098 126.2685,326.0394 127.2085,330.472 128.4747,334.4282 130.1157,338.2442 132.1164,341.8845 134.4582,345.3154 137.1193,348.505 140.3574,351.6746 143.6031,354.2668 147.0833,356.5347 151.1092,358.614 154.973,360.1393 158.9656,361.2856 163.05,362.0423 167.1882,362.4023 171.3419,362.3625 175.4725,361.923 179.9072,360.9927 183.8661,359.7353 187.6857,358.1026 191.3304,356.1099 194.7664,353.7756 197.9618,351.1215 201.1385,347.8904 203.7379,344.6503 206.2034,340.8486 208.1015,337.1537 209.6352,333.2933 210.7902,329.3033 211.6059,324.8461 211.9388,320.7056 211.8716,316.5522 211.405,312.4246 210.4456,307.9962 209.1621,304.0455 207.5044,300.2368 205.4878,296.6052 203.131,293.1846 200.1978,289.7309 197.204,286.8514 193.9469,284.2734 190.4568,282.0208 186.7661,280.1146 182.9091,278.5724 178.9216,277.4086 174.8405,276.6341 170.3264,276.2413 166.1729,276.2994 162.0443,276.7569 157.9789,277.6097 154.0144,278.8498 150.1877,280.4658 146.5343,282.4425 142.7862,284.9887 139.6025,287.6568 136.6903,290.619 134.0768,293.8476 131.7861,297.3128 129.6803,301.325"/>
    <polygon points="125.4002,304.643 124.1636,309.0014 123.3631,313.4606 123.0065,317.977 123.0971,322.5065 123.6342,327.0051 124.6124,331.4286 125.8887,335.3809 127.6823,339.5412 129.8776,343.5042 132.4532,347.2313 135.3839,350.6862 138.6411,353.835 142.1931,356.6471 146.0053,359.0951 149.6965,360.9988 153.9014,362.6852 158.2521,363.9487 162.7062,364.7767 167.2203,365.1613 171.7503,365.0986 176.2521,364.5893 180.6816,363.6384 184.9957,362.2551 189.1523,360.4529 193.1108,358.2495 196.8326,355.6663 200.2814,352.7284 203.1742,349.7484 206.0082,346.2138 208.4797,342.4168 210.5645,338.3946 212.2424,334.1863 213.4968,329.833 214.3157,325.3771 214.6767,321.2397 214.6421,316.7093 214.1606,312.2046 213.237,307.7692 211.8804,303.4467 210.104,299.279 207.925,295.307 205.3648,291.5693 202.4483,288.1024 199.2041,284.9402 195.6637,282.1134 191.8616,279.6498 187.8351,277.5732 183.6233,275.9041 179.2675,274.6586 174.81,273.8489 170.2943,273.4829 165.7646,273.5642 161.265,274.092 156.8394,275.0612 152.531,276.4622 148.3819,278.2815 144.4325,280.5012 140.7213,283.0998 137.2847,286.0518 134.156,289.3284 131.5847,292.5899 129.1289,296.397 127.0607,300.4278"/>
    <polygon points="141.7534,284.0437 138.3053,286.983 135.4221,289.9728 132.6099,293.5253 130.3617,297.0177 128.449,300.7046 126.7646,304.9107 125.6037,308.8987 124.7674,313.3517 124.3885,317.8666 124.4462,322.0197 124.9506,326.5224 125.8132,330.5853 127.0509,334.5502 128.8163,338.7229 130.9969,342.6944 133.5702,346.4236 136.5094,349.8716 139.4992,352.7548 142.7449,355.3466 146.5441,357.8152 150.5748,359.8846 154.4371,361.4124 158.4251,362.5733 162.8781,363.4095 167.393,363.7884 171.5461,363.7307 176.0488,363.2263 180.1118,362.3638 184.431,360.9953 188.2493,359.3607 192.2209,357.18 195.6495,354.8356 199.1224,351.9257 202.0308,348.9605 204.6501,345.7369 207.1509,341.9588 209.2544,337.9459 210.9388,333.7398 212.0997,329.7518 212.9359,325.2988 213.3149,320.7839 213.2571,316.6308 212.7528,312.1281 211.793,307.7001 210.3879,303.3927 208.721,299.5884 206.5067,295.6355 204.1332,292.2269 201.194,288.7789 198.2041,285.8957 194.6517,283.0835 191.1592,280.8353 187.4723,278.9226 183.2662,277.2381 179.2782,276.0772 174.8253,275.241 170.3103,274.862 166.1572,274.9198 162.0276,275.3646 157.5916,276.2867 153.2724,277.6552 149.1148,279.456 145.4825,281.4705"/>
    <line x1="259.6968" x2="114.8985" y1="411.0038" y2="627.7773"/>
    <line x1="115.217" x2="248.877" y1="627.9901" y2="427.8915"/>
    <line x1="248.2399" x2="114.5799" y1="427.4659" y2="627.5645"/>
    <line x1="114.2613" x2="236.7829" y1="627.3517" y2="443.928"/>
    <line x1="238.0573" x2="115.5356" y1="444.7792" y2="628.2029"/>
    <line x1="115.8542" x2="227.2375" y1="628.4157" y2="461.6669"/>
    <line x1="225.326" x2="113.9427" y1="460.39" y2="627.1389"/>
    <line x1="113.6241" x2="213.8691" y1="626.9261" y2="476.8521"/>
    <line x1="216.4178" x2="116.1728" y1="478.5545" y2="628.6285"/>
    <line x1="116.4914" x2="205.598" y1="628.8413" y2="495.4422"/>
    <line x1="202.4122" x2="113.3056" y1="493.3142" y2="626.7133"/>
    <line x1="112.987" x2="190.9553" y1="626.5005" y2="509.7763"/>
    <line x1="194.7783" x2="116.81" y1="512.3299" y2="629.0541"/>
    <line x1="117.1285" x2="183.9585" y1="629.2669" y2="529.2176"/>
    <line x1="179.4984" x2="112.6684" y1="526.2384" y2="626.2877"/>
    <line x1="112.3498" x2="168.0415" y1="626.0748" y2="542.7004"/>
    <line x1="173.1388" x2="117.4471" y1="546.1053" y2="629.4797"/>
    <line x1="117.7657" x2="162.319" y1="629.6925" y2="562.993"/>
    <line x1="156.5845" x2="112.0312" y1="559.1625" y2="625.862"/>
    <line x1="111.7126" x2="145.1276" y1="625.6492" y2="575.6246"/>
    <line x1="151.4993" x2="118.0843" y1="579.8807" y2="629.9053"/>
    <line x1="118.4029" x2="140.6795" y1="630.1181" y2="596.7684"/>
    <line x1="133.6707" x2="111.3941" y1="592.0867" y2="625.4364"/>
    <line x1="111.0755" x2="122.2138" y1="625.2236" y2="608.5487"/>
    <line x1="129.8598" x2="118.7215" y1="613.656" y2="630.3309"/>
    <polygon points="119.04,630.5437 259.6968,411.0038 110.7569,625.0108"/>
    <line x1="159.9108" x2="309.4303" y1="657.4619" y2="900.7094"/>
    <line x1="310.7033" x2="531.58" y1="890.8564" y2="835.3684"/>
    <polygon points="577.8932,812.6487 622.3769,778.3249 583.6746,728.1667 539.1909,762.4905"/>
    <polygon points="480.868,824.7141 479.8992,820.6872 478.1633,816.9267 475.7272,813.5771 472.6844,810.7672 469.1518,808.6049 465.2653,807.1732 461.1742,806.5273 457.0357,806.692 453.0088,807.6609 449.2483,809.3967 445.8988,811.8329 443.0888,814.8757 440.9265,818.4082 439.4949,822.2947 438.849,826.3858 439.0136,830.5243 439.9825,834.5512 441.7183,838.3117 444.1545,841.6613 447.1973,844.4712 450.7298,846.6335 454.6163,848.0652 458.7074,848.7111 462.8459,848.5464 466.8728,847.5775 470.6333,845.8417 473.9829,843.4055 476.7928,840.3627 478.9552,836.8302 480.3868,832.9437 481.0327,828.8526"/>
    <polygon points="472.5487,811.2592 469.0302,809.0722 465.146,807.6314 461.0524,806.9946 456.9141,807.1877 452.8975,808.2027 449.4879,809.805 446.1431,812.2494 443.5809,815.0113 441.3938,818.5298 439.953,822.414 439.3163,826.5076 439.5093,830.6459 440.5243,834.6625 442.1266,838.0721 444.3216,841.1339 447.3329,843.9791 450.8514,846.1662 454.7356,847.607 458.8292,848.2438 462.5939,848.1026 466.6283,847.1611 470.3937,845.4334 473.7386,842.989 476.3008,840.2271 478.4878,836.7086 479.9287,832.8244 480.5654,828.7308 480.3723,824.5925 479.4827,820.9317 477.755,817.1663 475.56,814.1045"/>
    <polygon points="476.0376,839.7917 478.1845,836.2472 479.4705,832.7051 480.0756,828.9856 479.9302,824.8443 479.0658,821.1764 477.3467,817.4059 474.8937,814.066 472.1133,811.5224 468.9085,809.54 465.0267,808.0895 461.3073,807.4844 457.1659,807.6298 453.498,808.4942 449.7275,810.2133 446.3876,812.6664 443.844,815.4467 441.8616,818.6515 440.4111,822.5333 439.806,826.2528 439.9514,830.3941 440.8158,834.062 442.5349,837.8325 444.7372,840.8904 447.7684,843.716 451.3128,845.8629 454.8549,847.1489 458.5744,847.754 462.7158,847.6086 466.7401,846.6204 470.1541,845.0251 473.212,842.8229"/>
    <polygon points="458.9399,846.3534 462.7075,846.175 466.3632,845.2466 469.4354,843.8002 472.1966,841.8237 474.7902,839.0852 476.7835,835.8832 478.0962,832.3472 478.651,828.9972 478.5485,825.2268 477.6939,821.5531 476.1218,818.1246 473.8956,815.0799 471.1054,812.542 467.864,810.6135 464.6688,809.4638 460.9417,808.885 457.5484,809.0115 453.8747,809.8661 450.4462,811.4382 447.4015,813.6644 445.0915,816.1532 443.0981,819.3552 441.7855,822.8912 441.2306,826.2412 441.3331,830.0116 442.1877,833.6853 443.7598,837.1138 445.7363,839.875 448.4749,842.4685 451.6768,844.4619 455.2128,845.7746"/>
    <polygon points="454.9742,846.6908 458.6961,847.2875 462.4636,847.1648 466.4959,846.2048 469.9146,844.6168 472.9683,842.4069 475.5455,839.6561 477.718,836.126 479.0124,832.5858 479.6092,828.8639 479.4864,825.0964 478.6485,821.4213 476.9384,817.6455 474.4763,814.3108 471.6766,811.7868 468.4476,809.842 464.9074,808.5476 461.1855,807.9509 457.4181,808.0736 453.3857,809.0336 449.9671,810.6216 446.6325,813.0837 444.1085,815.8834 442.1637,819.1124 440.8692,822.6526 440.2725,826.3745 440.3953,830.142 441.2331,833.8171 442.9432,837.5929 445.1531,840.6467 448.205,843.4516 451.434,845.3963"/>
    <polygon points="455.1047,845.2556 458.4387,845.8449 462.1986,845.7668 465.863,844.9212 468.951,843.533 471.7302,841.5993 474.3406,838.8921 476.342,835.7082 477.6499,832.1823 478.2088,828.4634 478.0513,825.0813 477.2731,821.7862 475.7135,818.3642 473.7371,815.6152 470.9899,813.047 468.1142,811.2599 464.5951,809.9339 461.2551,809.379 457.4962,809.4958 453.8408,810.3791 450.7672,811.7991 448.008,813.7613 445.4257,816.4952 443.6238,819.3616 442.2797,822.8739 441.6825,826.5869 441.8051,829.9704 442.5494,833.2733 444.0737,836.7112 446.2689,839.7647 448.7422,842.0768 451.5993,843.8935"/>
    <polygon points="445.5693,840.4027 448.3394,842.9608 451.5553,844.9294 455.0935,846.2327 458.818,846.8207 462.5856,846.6708 466.2515,845.7888 469.675,844.2085 472.7243,841.9907 475.2824,839.2206 477.251,836.0047 478.5543,832.4665 479.1423,828.742 478.9924,824.9744 478.1104,821.3085 476.5301,817.885 474.3123,814.8357 471.5422,812.2776 468.3263,810.309 464.7881,809.0057 461.0637,808.4177 457.2961,808.5676 453.6301,809.4496 450.2067,811.0299 447.1573,813.2477 444.5992,816.0178 442.6307,819.2337 441.3273,822.7719 440.7393,826.4963 440.8892,830.2639 441.7713,833.9299 443.3515,837.3534"/>
    <line x1="389.6591" x2="374.4542" y1="781.8641" y2="764.3691"/>
    <line x1="369.2539" x2="384.4588" y1="768.8887" y2="786.3837"/>
    <line x1="384.7477" x2="354.3379" y1="786.1326" y2="751.1427"/>
    <line x1="358.9604" x2="389.3702" y1="747.1253" y2="782.1152"/>
    <line x1="389.0813" x2="343.4667" y1="782.3663" y2="729.8814"/>
    <line x1="339.422" x2="385.0366" y1="733.3966" y2="785.8815"/>
    <line x1="385.3255" x2="324.506" y1="785.6305" y2="715.6505"/>
    <line x1="327.9729" x2="388.7924" y1="712.6375" y2="782.6174"/>
    <line x1="388.5035" x2="312.4791" y1="782.8685" y2="695.3936"/>
    <line x1="309.59" x2="385.6144" y1="697.9045" y2="785.3794"/>
    <line x1="385.9033" x2="294.6741" y1="785.1283" y2="680.1584"/>
    <line x1="296.9853" x2="388.2146" y1="678.1497" y2="783.1196"/>
    <line x1="387.9257" x2="281.4915" y1="783.3707" y2="660.9058"/>
    <line x1="279.7581" x2="386.1922" y1="662.4123" y2="784.8772"/>
    <line x1="386.4811" x2="264.8421" y1="784.6261" y2="644.6663"/>
    <line x1="265.9977" x2="387.6368" y1="643.6619" y2="783.6217"/>
    <line x1="387.3479" x2="250.504" y1="783.8728" y2="626.418"/>
    <line x1="249.9261" x2="386.77" y1="626.9202" y2="784.375"/>
    <line x1="387.0589" x2="235.0102" y1="784.1239" y2="609.1741"/>
    <polygon points="213.6751,576.047 217.9795,577.4533 222.4016,578.4281 226.8984,578.9618 231.4258,579.0493 235.9398,578.6897 240.3963,577.8865 244.7519,576.6475 248.9639,574.9849 252.9914,572.9149 256.795,570.4576 260.3376,567.637 263.5846,564.4807 266.5044,561.0195 269.0685,557.2871 271.2519,553.3199 273.0332,549.1567 274.298,545.2028 275.2636,540.7787 275.7881,536.2809 275.8663,531.7532 275.4974,527.24 274.685,522.7851 273.4371,518.4322 271.9209,514.5678 269.8758,510.5276 267.442,506.7089 264.6434,503.1489 261.5072,499.8825 258.0641,496.9413 254.3476,494.3542 250.394,492.1464 246.2418,490.3394 241.9317,488.9509 237.8778,488.0573 233.3832,487.505 228.8562,487.3989 224.3407,487.7399 219.881,488.5248 215.5204,489.7458 211.3015,491.391 207.2656,493.4445 203.4519,495.8861 200.1831,498.4449 196.8973,501.5609 193.935,504.9858 191.325,508.6862 189.0928,512.6261 187.2602,516.767 185.845,521.0685 184.8612,525.4887 184.3182,529.9843 184.2214,534.5116 184.5717,539.0263 185.3657,543.4844 186.5957,547.8425 188.2496,552.058 190.1245,555.7617 192.5425,559.5904 195.3264,563.1618 198.4491,566.4412 201.8801,569.3965 205.5859,571.9989 209.5304,574.2229"/>
    <polygon points="210.1968,573.1857 213.9995,574.8588 218.3054,576.2719 222.7325,577.2409 227.235,577.7558 231.389,577.8243 235.5313,577.5061 239.9947,576.7213 243.9971,575.6075 248.2242,573.9737 251.9354,572.1064 255.7664,569.6854 259.3321,566.8883 262.5957,563.744 265.2931,560.5842 267.8864,556.8677 270.0894,552.9073 271.7463,549.0975 273.1411,544.7856 274.0294,540.7272 274.5634,536.2269 274.6495,532.0733 274.3024,527.5547 273.4987,523.0947 272.2468,518.7391 270.7163,514.8768 268.6451,510.8459 266.3961,507.3528 263.584,503.799 260.7014,500.8072 257.2547,497.8648 253.5272,495.2872 249.5575,493.1011 245.7407,491.4603 241.7879,490.1816 237.3608,489.2126 233.2353,488.7231 228.7044,488.6292 224.1873,488.9954 220.0987,489.7322 215.7379,490.9656 211.8691,492.4797 208.1579,494.3471 204.3269,496.7681 201.0473,499.3184 197.7572,502.435 194.8003,505.8693 192.4085,509.2662 190.1721,513.2078 188.4829,517.0034 187.0516,521.3034 186.0639,525.7263 185.5299,530.2266 185.4439,534.3802 185.7909,538.8988 186.5104,542.9905 187.7254,547.3565 189.377,551.5766 191.2601,555.2799 193.6972,559.1006 196.2614,562.3694 199.3919,565.6463 202.5402,568.357 206.2457,570.966"/>
    <polygon points="189.4233,538.3172 190.1481,542.4068 191.2835,546.402 192.6623,549.9173 194.5457,553.6191 196.7944,557.111 199.3854,560.3571 202.0154,563.0666 204.8839,565.5223 208.2854,567.9055 211.9109,569.9318 215.7231,571.5804 219.6826,572.8343 223.3759,573.6207 227.1259,574.0635 231.2784,574.1492 235.0434,573.8617 239.1347,573.1464 242.774,572.1393 246.651,570.6495 250.0282,568.9606 253.5458,566.7522 256.8216,564.1989 259.8218,561.3267 262.2841,558.4639 264.6752,555.0679 266.7098,551.4471 268.2326,547.9917 269.532,544.0469 270.4251,539.9907 270.9026,535.8649 270.9719,532.0894 270.6461,527.9489 269.9025,523.8627 268.7486,519.8728 267.3537,516.3639 265.4532,512.6708 263.4087,509.4961 261.0805,506.5233 258.2153,503.5165 255.3582,501.0476 251.9677,498.6487 248.3515,496.6057 244.547,494.9395 240.9578,493.7664 236.9037,492.864 233.1558,492.4039 229.0038,492.299 225.2374,492.5691 221.1429,493.2656 217.14,494.3733 213.2699,495.8809 209.5725,497.7729 206.0858,500.0297 202.8457,502.6281 200.1422,505.2644 197.4631,508.4381 195.3178,511.5455 193.2998,515.1757 191.793,518.6381 190.5118,522.5889 189.6375,526.6492 189.179,530.7771 189.1271,534.5528"/>
    <polygon points="198.7197,503.7952 196.0254,506.9561 193.6487,510.3623 191.6119,513.982 189.9339,517.7813 188.6305,521.7248 187.6499,526.148 187.1646,530.273 187.0797,534.4255 187.4446,538.9414 188.195,543.0264 189.3362,547.0199 190.8575,550.8846 192.9338,554.9115 195.1999,558.3922 197.7914,561.6379 200.6841,564.6183 203.8509,567.3057 207.5834,569.8736 211.2252,571.8706 215.0428,573.5067 219.0004,574.7668 223.0611,575.6389 227.1871,576.1152 231.3398,576.1909 235.8549,575.8161 239.9382,575.0567 243.9293,573.9068 247.7906,572.377 251.4863,570.4817 254.9819,568.2386 258.2446,565.6685 261.2441,562.7956 263.9522,559.6466 266.5447,555.931 268.5656,552.3025 270.2269,548.4958 271.513,544.5466 272.4119,540.4916 272.9153,536.3689 273.0184,532.2168 272.7204,528.0741 272.0239,523.9796 270.8173,519.6126 269.3131,515.7412 267.4421,512.0331 265.2221,508.5228 262.6736,505.2432 259.5469,501.9645 256.392,499.2632 252.991,496.8791 249.0377,494.666 245.2274,493.0131 241.2754,491.7357 237.2185,490.8456 233.0946,490.3513 228.9423,490.2573 224.8003,490.5645 220.339,491.3537 216.343,492.4861 212.4749,493.9989 208.7709,495.8779 205.2655,498.1057 201.7065,500.9091"/>
    <polygon points="201.799,500.2882 198.5194,503.4121 195.814,506.5621 193.4221,509.9561 191.3656,513.5633 189.5266,517.7025 188.1291,522.0109 187.249,526.0688 186.7607,530.1922 186.6689,534.3434 186.9742,538.4844 187.6739,542.5772 188.8795,546.9432 190.379,550.8152 192.4285,554.8544 194.668,558.3509 197.2313,561.6174 200.0952,564.624 203.2333,567.343 206.9357,569.9522 210.8898,572.1612 214.6989,573.814 218.6486,575.0951 222.7026,575.9929 226.8238,576.499 231.3521,576.5993 235.4917,576.2759 239.9495,575.4738 243.9422,574.3338 247.8076,572.8175 251.5104,570.9386 255.3246,568.4958 258.5799,565.9182 261.574,563.0413 264.2793,559.8914 266.8724,556.1777 268.8974,552.5528 270.5668,548.7509 271.9643,544.4426 272.8444,540.3847 273.3326,536.2613 273.4245,532.11 273.1191,527.9691 272.3364,523.5078 271.0929,519.1525 269.5598,515.2937 267.6648,511.5991 265.2054,507.7956 262.6137,504.5515 259.7238,501.57 256.5621,498.8784 253.1577,496.5013 249.5416,494.4604 245.3944,492.6395 241.08,491.2607 237.0183,490.3983 232.8928,489.928 228.7412,489.8542 224.2272,490.2266 220.1439,490.9797 216.1512,492.1196 212.2857,493.636 208.5829,495.5148 205.0766,497.739"/>
    <polygon points="201.6066,499.9152 198.3194,503.0294 195.3713,506.4664 192.9937,509.8692 190.7802,513.8194 189.1193,517.6238 187.8261,521.5683 186.912,525.6175 186.3569,530.1115 186.2582,534.2614 186.599,538.7767 187.3195,542.8648 188.5429,547.2246 190.0544,551.0907 191.9252,554.7964 194.3558,558.6169 197.1678,562.166 200.0551,565.1486 203.2117,567.8444 206.9291,570.4299 210.5548,572.4513 214.7086,574.2541 218.6614,575.5218 222.7164,576.4097 226.8373,576.9097 231.3644,577.0076 235.8774,576.6376 239.9607,575.8907 243.955,574.7605 247.8244,573.2574 251.8623,571.208 255.3599,568.9723 258.9151,566.1678 261.9038,563.287 264.8371,559.8374 267.2,556.4244 269.2291,552.8031 271.0409,548.6532 272.3171,544.7031 273.2137,540.65 273.7226,536.5302 273.8303,532.0034 273.47,527.4896 272.7319,523.4046 271.4897,519.0502 269.9615,515.1906 268.0749,511.493 265.6278,507.683 263.0499,504.4294 260.1756,501.4344 257.0306,498.725 253.6433,496.3255 250.044,494.2574 245.9139,492.4011 241.6141,490.9811 237.563,490.0758 233.4443,489.558 228.9176,489.4406 224.4031,489.7912 220.3165,490.5205 216.3174,491.6334 212.4416,493.1199 208.3949,495.1518 204.8878,497.3725"/>
    <polygon points="209.3047,484.9994 213.0403,481.8134 216.4348,478.2662 219.4535,474.3942 221.8797,470.566 223.9381,466.5281 225.7324,461.958 227.0557,457.23 227.8945,452.3925 228.2312,447.8728 228.1185,442.9644 227.5746,438.4648 226.5147,433.6709 224.9757,429.0086 223.1436,424.8632 220.9327,420.9067 218.1326,416.8738 215.1982,413.4196 211.6709,410.0045 207.8166,406.9632 203.6747,404.3269 199.2877,402.1227 194.7003,400.373 189.9597,399.0958 185.4896,398.3475 180.5914,398.0114 176.061,398.1419 171.5625,398.6945 166.7707,399.7638 162.464,401.1761 157.9695,403.152 153.6977,405.572 149.6922,408.4112 146.2668,411.3791 142.8861,414.9394 139.8825,418.8231 137.4712,422.6608 135.2755,427.0521 133.6521,431.2837 132.4305,435.6483 131.5729,440.4825 131.2185,445.0009 131.3122,449.9097 131.9013,454.7839 132.9799,459.5737 134.537,464.2299 136.3852,468.3682 138.6115,472.3161 141.4273,476.338 144.3751,479.7807 147.9157,483.1821 151.7818,486.2084 155.6053,488.642 159.9837,490.8633 164.2058,492.5114 168.9312,493.8439 173.3922,494.6443 178.2862,495.0377 182.8178,494.9601 187.6954,494.3994 192.4913,493.3488 197.1566,491.8189 201.3056,489.9949 205.2664,487.7917"/>
    <polygon points="228.7658,490.6709 224.6242,490.9983 220.5342,491.7279 216.5348,492.8526 212.6641,494.3617 208.9589,496.241 205.4544,498.4724 202.1842,501.0348 199.1793,503.9036 196.4682,507.0517 194.077,510.4491 191.8596,514.4015 190.2066,518.213 188.933,522.1675 188.0508,526.2273 187.5686,530.3538 187.4908,534.5076 187.8681,539.0237 188.6339,543.1071 189.794,547.0963 191.3375,550.9535 193.2495,554.6419 195.512,558.1264 198.1032,561.3738 200.9987,564.3532 204.1707,567.0361 207.5891,569.3972 211.2214,571.4138 215.033,573.0668 218.9874,574.3404 223.0473,575.2226 227.1737,575.7048 231.3275,575.7826 235.4691,575.4551 239.5591,574.7256 243.5585,573.6009 247.4293,572.0917 251.1345,570.2125 254.6389,567.9811 257.9091,565.4187 260.9141,562.5498 263.6251,559.4017 266.0164,556.0044 268.0652,552.3901 269.7519,548.5934 271.0606,544.6504 271.9787,540.5986 272.4976,536.4766 272.6025,531.9459 272.2751,527.8043 271.5455,523.7143 270.4208,519.7149 268.9117,515.8442 267.0324,512.1389 264.801,508.6345 262.2387,505.3643 259.3698,502.3593 256.2217,499.6483 252.8243,497.257 248.8719,495.0397 245.0604,493.3867 241.1059,492.1131 237.0461,491.2309 232.9196,490.7487"/>
    <polygon points="237.3331,488.38 233.2084,487.9021 228.6798,487.8125 224.1648,488.1743 219.7083,488.9838 215.7123,490.1124 211.4907,491.7539 207.4536,493.8076 203.641,496.253 200.3757,498.8181 197.0972,501.9434 194.3788,505.0821 191.7537,508.7734 189.5092,512.7076 187.6676,516.8458 186.2472,521.1468 185.2621,525.5679 184.7221,530.065 184.6325,534.5936 184.9942,539.1086 185.8038,543.5652 187.053,547.919 188.5739,551.7827 190.4411,555.4914 192.8548,559.3242 195.6381,562.8977 198.7633,566.1762 202.1995,569.1273 205.9124,571.7216 209.8652,573.9333 214.0185,575.7405 218.3312,577.1251 222.7603,578.0734 227.2618,578.5761 231.4135,578.6409 235.9285,578.2792 240.3851,577.4696 244.3811,576.341 248.6026,574.6995 252.6398,572.6459 256.4524,570.2004 259.7176,567.6353 262.9962,564.5101 265.9473,561.0739 268.5415,557.361 270.7532,553.4082 272.5604,549.2549 273.945,544.9422 274.8934,540.5131 275.396,536.0116 275.4609,531.8599 275.0991,527.3449 274.2896,522.8883 273.161,518.8923 271.5195,514.6708 269.4658,510.6336 267.0204,506.821 264.2075,503.2708 261.0551,500.0184 257.5945,497.096 254.1809,494.7319 250.2282,492.5202 246.0748,490.713 241.7622,489.3284"/>
    <polygon points="246.5881,489.1602 242.2747,487.774 237.848,486.8089 232.9721,486.2489 228.4419,486.1853 223.9265,486.5575 219.4678,487.3621 215.1072,488.5917 210.8849,490.2348 206.8402,492.2763 203.0105,494.6972 199.4314,497.4751 195.875,500.8574 192.6902,504.5917 190.1101,508.316 187.9001,512.2711 186.0805,516.4204 184.6684,520.7254 183.6766,525.1462 183.0873,530.0186 182.9964,534.5484 183.3414,539.0659 184.1192,543.5294 185.3225,547.8973 187.0933,552.4747 189.1429,556.5153 191.7903,560.648 194.6039,564.1991 197.746,567.4633 201.4866,570.6406 205.2161,573.2132 209.1756,575.4153 213.3285,577.2265 217.6364,578.63 222.4316,579.6755 226.9327,580.1925 231.4627,580.2743 235.9795,579.9202 240.4414,579.1334 244.807,577.9214 249.3808,576.1414 253.7443,573.8949 257.5446,571.428 261.0901,568.6073 264.3479,565.4587 267.288,562.0115 269.883,558.2975 272.1089,554.3513 274.0799,549.8566 275.4748,545.5459 276.4488,541.1212 277.0185,536.2464 277.0913,531.7163 276.7281,527.2002 275.9324,522.7399 274.7116,518.3768 272.9225,513.8066 270.8567,509.7743 268.4128,505.9592 265.6134,502.3968 262.2097,498.8609 258.4564,495.6986 254.7166,493.141 250.7483,490.9548"/>
    <polygon points="255.2041,492.9626 251.2526,490.7484 246.7552,488.7866 242.0793,487.2994 237.6478,486.3618 233.1472,485.8507 228.6183,485.7709 224.1025,486.123 219.2727,486.988 214.9153,488.2252 210.6957,489.8719 206.3244,492.1007 202.5132,494.5485 198.9526,497.3483 195.6751,500.4747 192.4783,504.1971 189.8829,507.9094 187.653,511.852 185.6733,516.3416 184.2662,520.6471 183.2758,525.067 182.6834,529.9378 182.5855,534.4663 182.9196,538.9835 183.7655,543.8168 184.9853,548.179 186.6152,552.4051 188.6405,556.4567 191.2592,560.6062 194.0449,564.1778 197.4316,567.7283 200.8679,570.6794 204.8892,573.4909 208.8407,575.7051 212.9852,577.5326 217.6492,579.0569 222.073,580.0297 226.9461,580.6027 231.475,580.6826 235.9908,580.3305 240.4526,579.5497 245.178,578.2283 249.3976,576.5815 253.7689,574.3528 257.5801,571.905 261.1407,569.1051 264.4183,565.9787 267.383,562.5542 270.2105,558.5441 272.609,554.2636 274.42,550.1118 275.8271,545.8064 276.8176,541.3864 277.41,536.5156 277.5078,531.9871 277.1737,527.4699 276.3279,522.6367 275.1081,518.2745 273.4781,514.0483 271.2668,509.6682 268.8341,505.8473 265.8012,501.9903 262.6617,498.7252 258.9266,495.5432"/>
    <polygon points="268.1569,516.1578 264.251,509.2726 261.7038,505.995 258.8437,502.9866 252.6196,498.0956 249.0202,496.028 245.2333,494.3281 241.2963,493.0125 237.2481,492.0943 233.1288,491.5826 228.9791,491.4823 224.8399,491.7945 220.7521,492.5162 213.2365,495.0017 209.5245,496.8595 206.0153,499.0766 202.7435,501.6313 199.7415,504.4981 194.8646,510.7333 192.8052,514.3373 191.1138,518.1281 189.8071,522.068 188.8981,526.1182 188.3956,530.2387 188.3048,534.3887 188.6263,538.5271 189.3572,542.6133 191.8597,550.1232 193.7259,553.8311 195.951,557.3353 198.513,560.6012 201.3866,563.5967 204.5434,566.2921 207.9522,568.6608 215.0361,572.1936 218.9789,573.4914 223.0312,574.3913 227.1528,574.8844 231.3029,574.9659 235.4407,574.635 239.5251,573.8949 243.5159,572.7529 247.3736,571.2203 251.0601,569.3124 254.539,567.0478 260.4814,561.8181 263.1696,558.6552 265.5306,555.2411 269.0474,548.1492 271.1627,540.5212 271.6838,536.403 271.7934,532.2535 271.4905,528.1136 270.7781,524.0242 269.6632,520.0258"/>
    <polygon points="275.9313,527.4101 275.1415,522.9464 273.9186,518.5815 272.2743,514.3572 270.2243,510.3141 267.7884,506.4912 264.99,502.925 261.8559,499.65 258.4163,496.6974 254.7042,494.0958 250.7553,491.87 246.6074,490.0414 242.3004,488.6277 237.8758,487.6424 233.3759,487.0949 228.4664,487.0019 223.949,487.3786 219.4902,488.1957 215.1328,489.4454 210.9187,491.1156 206.8883,493.1903 203.0803,495.6495 199.5314,498.4697 196.2756,501.6238 193.3442,505.0814 190.7653,508.8094 188.5638,512.7719 186.7607,516.931 185.3734,521.2465 184.4152,525.6771 183.8953,530.1802 183.8187,534.7126 184.1862,539.2307 184.9942,543.6912 186.235,548.0511 187.8965,552.2687 189.963,556.3033 192.4145,560.1162 195.2274,563.6709 198.3748,566.9332 201.8265,569.8716 205.5492,572.4581 209.5072,574.6678 213.6625,576.4793 217.9752,577.8755 222.4038,578.8427 226.9059,579.3718 231.4381,579.4576 235.957,579.0994 240.4191,578.3005 244.7815,577.0686 249.0025,575.4157 253.0413,573.3575 256.8593,570.9138 260.4197,568.1081 263.6883,564.9674 266.6339,561.5217 269.2279,557.8043 271.4457,553.8508 273.2657,549.6992 274.6706,545.3894 275.6469,540.9627 276.1852,536.4618 276.2803,531.9297"/>
    <polygon points="274.9799,536.1192 275.0431,531.589 274.6507,527.0754 273.8068,522.624 272.5197,518.28 270.9617,514.4299 269.0556,510.7397 266.5983,506.9334 263.7709,503.3932 260.602,500.1551 257.4246,497.4803 253.6937,494.9099 250.0624,492.8939 245.9078,491.0866 241.5926,489.706 237.5332,488.8273 233.0334,488.2997 228.5033,488.227 224.3634,488.5606 219.9034,489.3579 215.9042,490.4792 211.6799,492.1168 207.6415,494.1707 203.83,496.62 200.5684,499.1915 197.2973,502.3263 194.5893,505.4754 191.9799,509.1792 189.7559,513.1265 187.9399,517.2773 186.5503,521.5896 185.663,525.6471 185.126,530.1458 185.0438,534.6757 185.3687,538.8164 186.1566,543.278 187.3889,547.6378 189.0531,551.8518 190.9438,555.5499 193.3851,559.3666 196.1976,562.9185 199.3529,566.1699 202.8189,569.0877 206.2391,571.4441 209.862,573.4752 214.009,575.2999 218.3183,576.6987 222.7464,577.6572 226.8715,578.1409 231.4013,578.2326 235.5426,577.9163 240.0058,577.1377 244.3683,575.9146 248.5857,574.2592 252.6154,572.1884 256.4166,569.7231 259.9509,566.8883 262.9254,563.9896 265.8505,560.5297 268.413,556.7933 270.5871,552.8184 272.2199,548.9994 273.5915,544.6814 274.5222,540.2473"/>
    <polygon points="273.6599,540.4616 274.1465,536.3346 274.2329,531.8023 273.8548,527.285 273.1033,523.1979 271.9714,519.1993 270.4691,515.3248 268.4234,511.2795 266.1931,507.7731 263.6434,504.4915 260.5242,501.2022 257.0846,498.2495 253.681,495.8653 249.7308,493.6415 245.927,491.9682 241.6185,490.5589 237.561,489.6608 233.4372,489.1477 228.9056,489.0323 224.3859,489.3814 220.294,490.1067 215.9297,491.332 212.0583,492.8427 208.3459,494.7101 204.5158,497.1348 201.2397,499.6915 197.9571,502.8177 195.2436,505.9651 192.6348,509.6724 190.5885,513.2892 188.7543,517.4347 187.3542,521.7461 186.4648,525.8055 185.934,530.3074 185.8547,534.4623 186.2136,538.9812 186.9476,543.0715 188.0623,547.0748 189.7011,551.3013 191.7641,555.3378 194.0094,558.8347 196.8211,562.3904 199.7063,565.3813 203.1585,568.3192 206.5723,570.6888 210.5319,572.8957 214.3429,574.5528 218.6573,575.9437 222.7186,576.8244 226.8446,577.3198 231.3767,577.4159 235.8948,577.0474 239.9835,576.3047 243.9844,575.1814 248.2074,573.5336 251.9118,571.6503 255.7316,569.2092 259.2813,566.3899 262.266,563.4983 265.1965,560.0399 267.5588,556.621 269.7573,552.6567 271.4062,548.8422 272.7879,544.5247"/>
    <polygon points="267.0416,551.6974 268.7074,547.8941 269.9835,543.9429 270.7944,540.256 271.2939,536.1341 271.3775,531.9828 271.0444,527.844 270.3826,524.1275 269.2667,520.1281 267.7553,516.2608 266.0509,512.8925 263.8301,509.3842 261.2687,506.1163 258.3924,503.1218 255.2303,500.4308 251.8142,498.0705 248.1787,496.0647 244.714,494.566 240.7628,493.2899 236.7036,492.4165 232.954,491.9795 228.8027,491.8959 225.0386,492.1816 220.9474,492.8908 216.9481,494.0067 213.0808,495.5181 209.3845,497.4097 205.8966,499.6624 202.9363,502.0047 199.9417,504.881 197.2507,508.0431 194.8905,511.4592 193.0518,514.7561 191.3859,518.5594 190.1098,522.5106 189.299,526.1974 188.7994,530.3194 188.7158,534.4707 189.049,538.6095 189.7107,542.326 190.8266,546.3253 192.338,550.1926 194.2296,553.8889 196.4824,557.3768 199.0736,560.6211 201.701,563.3317 204.8631,566.0227 207.959,568.1827 211.576,570.2216 215.3793,571.8875 218.9663,573.064 223.0174,573.9744 227.1393,574.474 231.2906,574.5576 235.4294,574.2244 239.5139,573.4779 243.1453,572.4468 247.0126,570.9354 250.3809,569.231 253.8892,567.0102 257.1571,564.4487 260.1516,561.5724 262.8426,558.4103 265.2029,554.9943"/>
    <polygon points="266.2089,551.5346 267.893,547.7367 269.0794,544.1506 269.9926,540.0977 270.4587,536.3494 270.5661,532.1962 270.2942,528.4288 269.5917,524.3341 268.4736,520.3328 267.1065,516.8117 265.2315,513.1043 263.2056,509.9164 260.8917,506.9309 258.0379,503.9116 254.89,501.2003 251.8009,499.0268 248.1858,496.9795 244.7328,495.4484 241.1524,494.2453 237.1037,493.3133 232.9809,492.8006 228.8273,492.7126 224.6865,493.0502 220.9698,493.7236 217.332,494.7401 213.4591,496.2438 209.7605,498.1361 206.582,500.1768 203.6074,502.5046 200.6014,505.3724 198.1364,508.2344 195.7457,511.6321 193.8844,514.9189 192.2003,518.7168 191.0139,522.3028 190.1008,526.3558 189.6073,530.481 189.5273,534.2573 189.7991,538.0246 190.5017,542.1194 191.6197,546.1207 192.9868,549.6418 194.8618,553.3492 196.8877,556.5371 199.4481,559.8089 202.3299,562.8015 205.5029,565.4834 208.6122,567.628 212.2463,569.6414 215.7133,571.1403 219.6696,572.4084 223.362,573.2042 227.4894,573.6785 231.2661,573.7409 235.4069,573.4033 239.1235,572.7298 243.1196,571.5932 246.6343,570.2097 250.3329,568.3174 253.5113,566.2766 256.7712,563.7011 259.4919,561.081 261.957,558.2191 264.3477,554.8213"/>
    <polygon points="265.6889,555.7578 267.7337,552.14 269.4124,548.3384 270.7087,544.39 271.6101,540.3332 272.1078,536.2074 272.1969,532.0526 271.8766,527.9093 271.1501,523.8175 270.0243,519.8172 268.5101,515.9471 266.6224,512.2449 264.3794,508.7464 261.803,505.4858 258.918,502.4946 255.7527,499.8019 252.3377,497.4338 248.7061,495.4134 244.8933,493.7603 240.9364,492.4905 236.8736,491.6165 228.967,491.074 224.8229,491.3849 220.7296,492.1024 216.7268,493.2192 212.8533,494.7247 209.1468,496.6041 205.6434,498.8392 202.3769,501.4084 199.3793,504.2866 196.6795,507.4459 194.3038,510.8556 192.2753,514.4826 190.6136,518.2917 189.335,522.2458 188.4518,526.3066 187.9726,530.4346 187.9021,534.5897 188.2409,538.7316 188.9859,542.82 190.1296,546.8153 191.661,550.6785 193.5653,554.3723 195.824,557.8606 198.415,561.1097 201.3133,564.088 204.4907,566.7665 207.9163,569.1192 211.5569,571.1233 215.377,572.7593 223.0333,574.806 227.1603,575.2944 231.3152,575.3742 235.4579,575.0447 239.5479,574.3089 243.5457,573.1742 247.4124,571.6514 251.1104,569.7554 254.6038,567.5045 260.5841,562.304 263.298,559.1569"/>
    <polygon points="269.5555,558.0509 271.7773,554.1011 273.6055,549.9544 275.1219,545.2853 276.0791,540.8557 276.6021,536.3541 276.6859,531.823 276.3297,527.3051 275.537,522.8432 274.3151,518.4791 272.6756,514.2542 270.6341,510.2083 268.2096,506.3795 265.4252,502.8039 262.033,499.2552 258.5865,496.3125 254.8709,493.7179 250.921,491.4961 246.4211,489.5339 242.1052,488.1515 237.6756,487.1943 233.174,486.6713 228.6429,486.5875 224.1251,486.9437 219.6631,487.7364 215.2991,488.9583 211.0742,490.5978 207.0282,492.6393 203.1994,495.0638 199.6239,497.8482 196.0752,501.2404 193.1324,504.6869 190.5379,508.4025 188.316,512.3524 186.4878,516.4991 185.0705,520.8036 184.0775,525.2253 183.4913,530.0994 183.4075,534.6305 183.7636,539.1483 184.5564,543.6103 185.7782,547.9743 187.4177,552.1992 189.4593,556.2452 191.8837,560.074 194.6682,563.6496 198.0604,567.1982 201.5068,570.141 205.2225,572.7355 209.1723,574.9574 213.6723,576.9196 217.9881,578.302 222.4178,579.2592 226.9193,579.7821 231.4504,579.8659 235.9683,579.5098 240.4302,578.717 244.7943,577.4952 249.0192,575.8557 253.393,573.6264 257.2021,571.171 260.7549,568.3577 264.0182,565.213 266.9609,561.7666"/>
    <line x1="448.1565" x2="473.939" y1="526.9369" y2="546.4152"/>
    <line x1="475.7177" x2="449.9352" y1="544.0608" y2="524.5825"/>
    <line x1="449.7129" x2="501.2779" y1="524.8768" y2="563.8334"/>
    <line x1="499.9438" x2="448.3788" y1="565.5992" y2="526.6426"/>
    <line x1="448.6012" x2="525.9487" y1="526.3483" y2="584.7833"/>
    <line x1="526.8381" x2="449.4905" y1="583.606" y2="525.1711"/>
    <line x1="449.2682" x2="552.3982" y1="525.4654" y2="603.3787"/>
    <line x1="551.9535" x2="448.8235" y1="603.9673" y2="526.054"/>
    <line x1="449.0458" x2="577.9584" y1="525.7597" y2="623.1513"/>
    <polygon points="577.9584,623.1513 450.1576,524.2882 447.9341,527.2312"/>
    <polygon points="582.2298,575.4276 588.564,574.3693 594.7701,572.7178 601.14,570.3391 606.9095,567.5187 612.6992,563.9531 618.1036,559.8268 623.0687,555.1812 627.5447,550.0628 631.4869,544.5227 634.6843,538.9532 637.4807,532.7553 639.6438,526.3091 641.152,519.6789 641.9902,512.9313 642.159,506.5114 641.6764,499.729 640.6005,493.3978 638.9318,487.1963 636.5354,480.833 633.5152,474.7411 629.9015,468.9814 625.976,463.8987 621.3166,458.9466 616.1857,454.4848 610.6347,450.558 605.0563,447.3761 598.8507,444.5969 592.7623,442.5539 586.1364,441.0273 579.7678,440.2002 572.9717,439.9837 566.5634,440.4039 559.8538,441.5058 553.2878,443.2726 546.9313,445.6866 540.8477,448.7237 535.4077,452.1368 530.3142,456.0482 525.3491,460.6938 520.8731,465.8122 516.9309,471.3523 513.7335,476.9218 510.9371,483.1197 508.7739,489.566 507.2657,496.1961 506.4276,502.9438 506.2588,509.3636 506.7414,516.146 507.8992,522.8462 509.7207,529.3972 512.0341,535.3881 514.9025,541.1339 518.5163,546.8937 522.4418,551.9763 527.1012,556.9284 532.2321,561.3902 537.4646,565.1136 543.3615,568.4989 549.2153,571.1401 555.6555,573.3211 562.2814,574.8478 568.65,575.6748 575.4461,575.8913"/>
    <polygon points="581.2724,570.3605 587.605,569.314 593.7977,567.6268 599.4405,565.4692 604.85,562.7796 610.2859,559.3668 615.0591,555.6637 619.4545,551.5192 623.6653,546.675 627.1575,541.7455 630.16,536.5032 632.6451,530.9969 634.693,524.9139 636.044,519.0256 636.8527,512.6583 637.0165,506.6193 636.5994,500.5925 635.5244,494.2648 633.9275,488.4384 631.7784,482.7924 629.097,477.3789 625.6924,471.9378 621.9964,467.1591 617.8586,462.7575 613.0207,458.5394 608.0964,455.0398 602.522,451.8581 597.0045,449.3979 591.2761,447.4789 585.39,446.1191 579.4004,445.331 572.9851,445.128 566.9577,445.536 560.9974,446.521 555.1592,448.074 549.1503,450.3302 543.7328,453.0036 538.2866,456.4 533.5024,460.0887 529.0945,464.22 524.8692,469.0515 521.3622,473.9705 518.3439,479.2037 515.8422,484.7026 513.7761,490.7794 512.4074,496.6635 511.6102,502.6519 511.3976,509.0668 511.7965,515.0949 512.7726,521.0567 514.3168,526.8972 516.564,532.9094 519.2292,538.331 522.6174,543.7823 526.299,548.5721 530.4236,552.9861 534.9531,556.9835 540.1625,560.7331 545.3911,563.7592 550.8863,566.2692 556.96,568.3445 562.842,569.722 569.2056,570.5594 575.2438,570.7504"/>
    <polygon points="599.2964,565.9635 605.054,563.1188 610.1832,559.9206 615.2716,556.0026 619.6744,551.8611 623.6616,547.3181 627.4018,542.0976 630.5931,536.5246 633.0656,531.0088 635.1026,524.9184 636.4461,519.025 637.2498,512.6534 637.412,506.611 636.9964,500.5808 635.9261,494.2486 634.3366,488.4167 632.0458,482.4171 629.1582,476.6809 625.9218,471.5757 622.2126,466.803 618.0645,462.4064 613.5155,458.426 608.2894,454.6936 603.0485,451.6821 597.1922,449.0464 591.4626,447.1205 585.5753,445.7507 579.2074,444.9184 573.1658,444.729 566.7583,445.161 560.7968,446.1596 554.5983,447.8391 548.9481,449.9868 543.199,452.8486 538.0794,456.0621 533.0027,459.9954 528.6123,464.15 524.405,469.002 520.9141,473.9366 517.9104,479.182 515.4214,484.6904 513.3662,490.7747 512.0051,496.664 511.1824,503.0332 511.0021,509.075 511.4436,515.4819 512.4511,521.4419 514.1398,527.6379 516.296,533.2849 519.1664,539.0297 522.3876,544.1445 526.0825,548.9283 530.4896,553.5995 535.3479,557.7995 540.2877,561.2831 545.5376,564.2789 551.4017,566.8971 557.137,568.8058 563.0284,570.158 569.022,570.9414 575.4409,571.1426 581.4718,570.736 587.4363,569.7553 593.6398,568.0943"/>
    <polygon points="600.0335,566.9373 605.7796,564.0728 611.212,560.6504 615.9898,556.9501 620.6623,552.5465 624.6389,547.9962 628.3769,542.7759 631.5765,537.2094 634.206,531.3519 636.2391,525.2618 637.6558,518.9995 638.4134,513.004 638.5988,506.5861 638.1887,500.5569 637.1359,494.2233 635.4577,488.0259 633.3217,482.3728 630.4826,476.6141 627.2989,471.4775 623.4049,466.3726 619.0219,461.6809 614.1935,457.4488 609.2853,453.9233 603.7329,450.6993 597.8871,448.0441 591.806,445.9841 585.55,444.5398 579.1812,443.7257 573.1409,443.5423 566.7345,443.9686 560.7717,444.9508 554.567,446.6017 548.5575,448.8622 543.1334,451.5266 537.6711,454.901 532.5719,458.8025 527.8866,463.1924 523.6616,468.027 520.1433,472.9404 516.9274,478.4975 514.2808,484.3472 512.2297,490.4313 510.7947,496.6894 510.0196,502.6827 509.8153,509.1 510.2078,515.1304 511.242,521.4671 512.902,527.6694 515.1713,533.6755 518.0273,539.4259 521.4417,544.8633 525.135,549.6465 529.5318,554.3254 534.3725,558.5433 539.6092,562.2583 545.1897,565.4333 550.7065,567.9002 556.4302,569.839 562.6819,571.3016 569.0482,572.1345 575.4658,572.3293 581.8709,571.8842 587.8308,570.8845 594.0306,569.2154"/>
    <polygon points="602.47,572.7812 608.8958,569.5834 614.6549,565.9678 620.3275,561.5703 625.2643,556.894 629.7294,551.7653 633.885,545.9132 637.2558,540.0074 640.0439,533.8053 642.2236,527.3641 643.8422,520.3715 644.7437,513.2508 644.928,506.4533 644.4587,499.6695 643.2592,492.593 641.4667,486.0335 639.0526,479.6764 635.8548,473.2506 632.2392,467.4915 627.8416,461.8189 623.1654,456.8821 618.0366,452.417 612.1846,448.2614 606.2788,444.8906 600.0767,442.1025 593.6355,439.9228 586.6428,438.3042 579.5222,437.4027 572.7247,437.2184 565.9409,437.6877 558.8644,438.8872 552.3048,440.6797 545.6017,443.2457 539.522,446.2916 533.7629,449.9072 528.3775,454.0591 523.1534,458.981 518.455,464.407 514.5327,469.9618 510.9915,476.2049 508.2366,482.4219 506.0913,488.8746 504.5756,495.5036 503.7034,502.2474 503.4898,509.4217 504.0043,516.5807 505.1586,523.2821 506.9511,529.8416 509.5171,536.5447 512.563,542.6244 516.1786,548.3835 520.3305,553.7689 525.2524,558.993 530.6784,563.6914 536.2332,567.6137 542.139,570.9844 548.3411,573.7726 554.7823,575.9522 561.7749,577.5708 568.5188,578.443 575.6931,578.6566 582.4769,578.1873 589.1843,577.0688 596.113,575.1953"/>
    <polygon points="621.388,553.5041 625.6162,548.6742 629.3519,543.4541 632.5596,537.8939 635.2083,532.0468 637.2728,525.9687 638.7334,519.718 639.606,512.9778 639.7855,506.5612 639.3369,500.1578 638.2646,493.8289 636.5788,487.6351 634.2955,481.6358 631.4368,475.8884 628.03,470.4479 624.1077,465.3665 619.7075,460.6928 614.8715,456.4716 609.6461,452.7434 604.0813,449.5438 598.2303,446.9034 592.1493,444.8477 585.5245,443.3299 579.1551,442.5332 572.7382,442.3629 566.3354,442.8207 560.0081,443.9022 553.8167,445.5969 547.8207,447.8888 542.0774,450.7558 536.6418,454.1704 531.5661,458.1 526.8987,462.5069 522.6845,467.349 518.9638,472.5798 515.7722,478.1492 513.0035,484.3561 510.9915,490.4518 509.5851,496.7149 508.7975,503.0855 508.6365,509.5026 509.1035,515.9047 510.1941,522.2305 511.8978,528.4194 514.1982,534.4122 517.0735,540.1513 520.4959,545.582 524.4328,550.652 528.8465,555.313 533.6946,559.5202 538.9308,563.2334 544.5048,566.417 550.3633,569.0405 556.4502,571.0788 562.7073,572.5123 569.0744,573.3273 575.4908,573.516 581.8948,573.0767 588.2253,572.0135 594.4215,570.3365 600.4241,568.062 606.1756,565.2115 611.621,561.8126 616.708,557.8976"/>
    <polygon points="625.9902,557.8517 630.7064,552.4432 634.6563,546.9097 638.2391,540.6921 641.1844,534.1484 643.4629,527.3438 644.9859,520.718 645.9072,513.6014 646.1147,506.4284 645.651,499.6456 644.4691,492.5676 642.7039,486.0022 640.1771,479.2858 636.9936,472.8546 633.185,466.7727 629.0347,461.388 624.1231,456.1562 618.7146,451.44 612.863,447.2862 606.9635,443.9073 600.4198,440.962 593.6152,438.6835 586.6174,437.0943 579.496,436.2104 572.6998,436.0317 565.917,436.4954 558.839,437.6773 551.9141,439.5587 545.5572,441.9693 539.126,445.1528 533.0441,448.9614 527.372,453.357 522.4276,458.0233 517.7114,463.4318 513.5576,469.2834 510.1787,475.1829 507.2334,481.7266 505.0578,488.1677 503.4319,495.157 502.5106,502.2736 502.3031,509.4466 502.7668,516.2294 503.9487,523.3074 505.83,530.2323 508.3921,536.9354 511.6094,543.3497 515.4498,549.4116 519.6284,554.7744 524.5674,559.9803 530.0006,564.6681 535.5548,568.5888 541.7911,572.1389 548.3502,575.0498 555.1667,577.2926 561.8004,578.7807 568.9218,579.6646 575.718,579.8433 582.5008,579.3796 589.5788,578.1977 596.5037,576.3164 603.2068,573.7543 609.2918,570.7222 615.3737,566.9137 620.7584,562.7633"/>
    <polygon points="626.3371,549.0383 630.2669,543.4919 633.4393,537.9104 636.0577,532.0485 638.1992,525.5972 639.6059,519.333 640.4008,512.9623 640.5767,506.5446 640.1317,500.1399 639.0702,493.8082 637.2852,487.2493 634.9917,481.2528 632.1296,475.5059 628.7258,470.0624 624.8121,464.9731 620.1531,460.0235 615.0123,455.5763 609.7633,451.8795 604.1818,448.7071 598.3199,446.0887 592.2325,444.0488 585.9764,442.6065 579.2337,441.7456 572.816,441.5697 566.4113,442.0147 560.0796,443.0762 553.88,444.7445 547.5242,447.1547 541.7773,450.0168 536.0241,453.637 530.9572,457.5797 526.2949,461.9933 522.0807,466.8367 518.1509,472.3831 514.9784,477.9646 512.36,483.8265 510.3202,489.9139 508.8779,496.17 508.017,502.9127 507.8411,509.3304 508.2861,515.7351 509.3476,522.0668 511.0159,528.2664 513.4261,534.6222 516.4737,540.6982 519.9084,546.1223 523.851,551.1892 528.2647,555.8515 533.1081,560.0657 538.336,563.7923 544.236,567.168 550.0979,569.7864 556.5492,571.9278 562.8134,573.3345 569.1841,574.1294 575.6018,574.3053 582.3815,573.8149 588.7071,572.7173 594.8971,571.0138 600.8936,568.7203 606.6405,565.8583 612.084,562.4544 617.1733,558.5407 622.1229,553.8817"/>
    <polygon points="638.3379,532.7347 640.4723,526.2841 641.9596,519.6543 642.7569,513.2866 642.9501,506.4948 642.4721,499.7171 641.3274,493.0196 639.5273,486.4678 637.0893,480.1257 634.0372,474.0552 630.4009,468.3156 626.2158,462.9629 621.7961,458.31 616.6655,453.8554 611.1203,449.929 605.2146,446.5691 599.358,443.9456 592.9192,441.7759 586.2976,440.2522 579.558,439.3895 572.7662,439.1963 566.3635,439.6302 559.6599,440.7381 553.0983,442.5022 546.7429,444.9053 540.6557,447.924 534.8962,451.5288 529.5206,455.6844 524.5814,460.3503 520.1268,465.4809 516.2004,471.0261 512.8405,476.9318 510.0798,483.1403 507.9455,489.5909 506.4582,496.2207 505.6609,502.5884 505.4677,509.3802 505.9457,516.1579 507.0095,522.4865 508.7736,529.0481 511.1767,535.4035 514.1954,541.4907 517.8001,547.2502 521.9558,552.6258 526.6216,557.565 531.7523,562.0196 536.9794,565.7424 542.8666,569.1347 549.0598,571.9294 555.4986,574.0992 562.1202,575.6228 568.8598,576.4855 575.6516,576.6787 582.4293,576.2007 589.1268,575.056 595.6786,573.2559 601.6749,570.9697 607.7621,567.951 613.5216,564.3463 618.8972,560.1907 623.8364,555.5248 628.291,550.3941 632.2174,544.8489 635.5773,538.9432"/>
    <polygon points="636.5513,525.613 637.9941,519.3592 638.8111,512.9933 638.9944,506.5778 638.5421,500.1757 637.4587,493.8497 635.7549,487.6619 633.5993,482.0188 630.744,476.2708 627.3342,470.8335 623.4031,465.7601 618.9895,461.1005 614.1366,456.9004 608.892,453.201 603.6441,450.2091 597.789,447.5804 591.7026,445.5438 585.4446,444.1193 579.0764,443.3209 573.038,443.1484 566.6346,443.582 560.3055,444.6469 554.1128,446.3327 548.4633,448.4718 542.7071,451.3103 537.2598,454.7043 532.1751,458.6206 527.5026,463.0206 523.2884,467.8613 519.5737,473.0951 516.3949,478.6707 513.7833,484.5334 511.7645,490.6257 510.3582,496.8878 509.6067,502.8817 509.4234,509.2972 509.8757,515.6993 510.9591,522.0253 512.5458,527.854 514.8185,533.8563 517.6737,539.6042 521.0836,545.0416 525.0147,550.1149 529.1561,554.5127 533.689,558.5057 538.8901,562.266 544.4377,565.4934 550.2774,568.1562 556.3518,570.2282 562.6014,571.6891 568.9649,572.5247 575.3798,572.7267 581.7832,572.293 588.1123,571.2281 594.305,569.5423 600.3006,567.2521 606.0402,564.3801 611.4676,560.9544 616.2427,557.2544 620.9152,552.8544 625.1294,548.0138 628.6401,543.0978 631.8513,537.5408 634.497,531.6934"/>
    <polygon points="635.4149,525.2697 636.8501,519.0126 637.6474,512.6428 637.8076,506.6027 637.3493,500.1996 636.3303,494.2439 634.7508,488.4118 632.4746,482.4094 629.605,476.667 626.3883,471.5522 622.4554,466.4785 618.3043,462.088 613.4587,457.8772 608.5321,454.3791 603.2958,451.3643 597.4458,448.7208 591.7227,446.7832 585.47,445.3295 579.1026,444.5133 573.063,444.3351 566.6585,444.7745 560.6999,445.7757 554.8631,447.3378 548.8539,449.5962 543.103,452.4488 537.9787,455.6503 532.8933,459.5681 528.2287,463.9785 524.0323,468.8365 520.5489,473.7735 517.3788,479.3557 514.9234,484.8765 513.0029,490.6053 511.5677,496.8624 510.7704,503.2322 510.6102,509.2723 511.0685,515.6754 512.0875,521.6311 513.784,527.8224 515.9432,533.4656 518.628,538.8785 522.0295,544.3228 525.717,549.1093 530.1135,553.787 534.6625,557.7638 539.8857,561.4959 545.122,564.5107 550.9719,567.1543 556.6951,569.0918 562.9478,570.5456 569.3152,571.3617 575.3548,571.5399 581.7593,571.1006 588.0869,570.018 593.9143,568.4212 599.9099,566.1272 605.6438,563.2406 610.749,560.0086 615.811,556.0607 620.1891,551.8966 624.3855,547.0385 627.8689,542.1015 631.039,536.5193 633.4944,530.9985"/>
    <polygon points="642.7002,520.0132 643.5518,513.2712 643.7413,506.4782 643.2212,499.3243 642.0511,492.6301 640.2333,486.0822 637.7852,479.7428 634.73,473.6727 631.097,467.9297 626.9209,462.5687 622.2415,457.6409 617.1035,453.1933 611.556,449.2683 605.6519,445.9035 599.4476,443.1309 593.0023,440.9772 586.3776,439.4627 579.6367,438.6019 572.844,438.4032 566.0643,438.8684 559.3624,439.9929 552.8022,441.7662 546.4464,444.1713 540.0263,447.3699 534.2784,450.9951 528.9117,455.164 523.9775,459.8367 519.5229,464.9686 515.5904,470.5108 512.2176,476.4103 509.4367,482.6109 507.2741,489.0532 505.7506,495.6759 504.8808,502.4156 504.6728,509.208 505.1288,515.9883 506.2442,522.6917 508.0086,529.2543 510.4051,535.6134 513.595,542.0378 517.2123,547.7907 521.3739,553.163 526.0399,558.1035 531.1658,562.5651 537.0212,566.7079 542.9345,570.0567 549.1463,572.8124 555.5974,574.9486 562.2262,576.4451 568.9694,577.2876 575.7626,577.4678 582.541,576.9843 589.2398,575.8415 595.7952,574.0504 602.1444,571.6281 608.2269,568.5977 613.9846,564.9881 619.3626,560.8339 624.3095,556.1746 628.778,551.0547 632.7255,545.5232 636.1143,539.6329 638.9121,533.4399 641.0922,527.0035"/>
    <polygon points="648.0795,521.3979 649.058,513.9102 649.2794,506.362 648.7415,498.8297 647.5321,491.7583 645.6533,484.8345 642.9715,477.7753 639.5942,471.0212 635.7727,464.9496 631.1436,458.9834 626.2117,453.7733 620.5084,448.824 614.6555,444.6752 608.0968,440.9325 601.5475,438.0043 594.7486,435.7144 587.3905,434.0166 580.2757,433.096 572.7278,432.8651 565.57,433.3491 558.1219,434.594 550.8365,436.5808 544.1332,439.137 537.7045,442.3213 531.2985,446.3197 525.3265,450.9413 520.1101,455.8666 515.1536,461.5637 510.9975,467.4113 507.2466,473.9653 504.3101,480.511 502.0117,487.307 500.3046,494.6629 499.345,502.1531 499.1347,509.3242 499.6097,516.4826 500.8453,523.9323 502.7066,530.8608 505.3706,537.9267 508.5469,544.3594 512.5372,550.7704 517.1513,556.7482 522.07,561.9707 527.7609,566.9344 533.6033,571.0979 539.8163,574.6848 546.6945,577.8018 553.4876,580.1087 560.8414,581.825 567.9539,582.7635 575.5012,583.0134 582.6602,582.5474 590.1114,581.3212 597.4018,579.3528 604.1114,576.8134 610.8782,573.4617 616.9642,569.663 622.9478,565.0565 628.1765,560.1443 632.9126,554.7556 637.3182,548.6225 641.0855,542.078 644.0385,535.5398 646.354,528.7496"/>
    <polygon points="562.3324,577.2666 569.0791,578.0892 575.8736,578.2568 582.6526,577.7679 589.7215,576.5446 596.2706,574.7272 602.6137,572.2861 608.6917,569.2442 614.7569,565.413 620.1148,561.2313 625.0441,556.5519 629.7314,551.1211 633.6401,545.5608 636.9938,539.6493 639.7613,533.4416 642.0182,526.6319 643.5059,520.0001 644.3466,513.2557 644.5324,506.4616 644.0163,499.3063 642.8574,492.6092 641.0576,486.0552 638.6335,479.7055 635.608,473.6195 632.0092,467.8538 627.8707,462.4624 622.9596,457.233 617.5414,452.5311 611.9917,448.6076 606.0891,445.238 599.8889,442.4538 593.4489,440.281 586.4575,438.6732 579.7154,437.8144 572.9218,437.6103 566.1403,438.0628 559.4341,439.1677 552.8658,440.9148 546.15,443.4373 540.0558,446.4465 534.2805,450.0298 528.878,454.1538 523.6355,459.0508 519.1534,464.16 514.9806,469.9956 511.5952,475.889 508.6565,482.4334 506.3996,489.2431 504.9119,495.8749 504.0712,502.6193 503.8854,509.4134 504.3561,516.1937 505.5604,523.2658 507.3602,529.8198 509.7843,536.1695 512.995,542.5848 516.6247,548.331 520.792,553.7001 525.4581,558.642 530.8763,563.3439 536.4261,567.2674 542.3287,570.637 548.8809,573.5582 555.3325,575.6963"/>
    <polygon points="541.644,571.6203 548.1857,574.5616 554.6255,576.7304 561.6137,578.3458 568.7285,579.2533 575.5209,579.4515 582.6766,578.9605 589.3782,577.8365 596.3024,575.9658 602.6584,573.5622 609.0878,570.383 615.1664,566.5758 620.5461,562.4245 625.7701,557.5098 630.4756,552.0966 634.4123,546.5578 637.9774,540.3341 640.9014,533.7847 643.1547,526.9754 644.6502,520.3468 645.5389,513.2296 645.7192,506.4367 645.2093,499.2824 644.0676,492.5837 642.1786,485.6645 639.7582,479.3149 636.5621,472.8939 632.9551,467.135 628.5733,461.4566 623.6449,456.2456 618.2193,451.5544 612.6701,447.6324 606.4371,444.0836 600.2321,441.3135 593.4288,439.0422 586.8041,437.5292 579.6892,436.6218 572.8969,436.4235 565.7412,436.9145 559.0396,438.0386 552.1154,439.9092 545.7594,442.3128 539.33,445.492 533.2514,449.2992 527.5846,453.696 522.6477,458.3652 518.1761,463.482 514.0055,469.3172 510.4403,475.5409 507.5164,482.0903 505.2631,488.8996 503.7676,495.5282 502.9079,502.2689 502.6986,509.4383 503.1638,516.2176 504.3502,523.2913 506.2392,530.2105 508.8116,536.9058 511.8557,542.9811 515.6789,549.0497 520.0906,554.7048 524.7729,559.6294 529.9014,564.0875 535.7477,568.2426"/>
    <polygon points="528.1493,566.7364 534.3239,571.088 540.9065,574.7936 547.4765,577.6811 554.6577,580.0246 561.6663,581.5682 568.7906,582.432 575.965,582.6082 583.4982,582.0489 590.5679,580.8153 597.4866,578.9089 604.5361,576.1948 610.9469,572.9692 617.0185,569.1432 622.9817,564.5061 628.1855,559.5642 632.8911,554.1457 637.2583,547.9821 640.8104,541.7463 643.8847,534.8463 646.1455,528.0351 647.8076,520.6663 648.6895,513.5442 648.8838,506.3703 648.3887,499.2108 647.2088,492.132 645.3549,485.199 642.6943,478.1291 639.3333,471.3641 635.5226,465.2829 630.9007,459.308 625.972,454.0916 620.5653,449.3724 614.4128,444.9896 608.186,441.4217 601.2938,438.33 594.4884,436.0519 587.1238,434.3712 580.004,433.4713 572.8306,433.2589 565.6699,433.7359 558.2188,434.9779 551.2905,436.8492 544.5738,439.3769 537.8004,442.7208 531.7095,446.5161 525.7229,451.1229 520.4941,456.0384 515.7612,461.4331 511.3629,467.5745 507.6074,474.1287 504.6701,480.6766 502.3749,487.4762 500.6755,494.8365 499.7576,501.9541 499.534,509.5047 500.0742,517.0393 501.2899,524.1121 503.2966,531.3947 505.8751,538.092 509.0845,544.5109 513.1117,550.9018 517.5171,556.5671 522.7189,562.0446"/>
    <polygon points="527.126,548.3223 531.277,552.7101 535.8351,556.6734 540.7571,560.1745 545.9962,563.1804 551.5029,565.6624 557.2249,567.5971 563.4796,569.0326 569.4726,569.7865 575.5105,569.9539 581.536,569.5333 587.8607,568.4467 593.6811,566.832 599.3168,564.659 604.7145,561.948 609.8229,558.725 614.5937,555.0204 618.9815,550.8694 622.9447,546.3113 626.4459,541.3893 629.4518,536.1502 631.9338,530.6435 633.8685,524.9216 635.304,518.6668 636.0579,512.6738 636.2253,506.6359 635.759,500.2355 634.7181,494.2857 633.1034,488.4653 630.9303,482.8296 628.2194,477.4319 624.9964,472.3235 621.2918,467.5527 617.1408,463.1649 612.5827,459.2017 607.6607,455.7005 602.4216,452.6946 596.9149,450.2126 590.8294,448.1756 584.9382,446.8424 578.9452,446.0885 572.9073,445.9211 566.8818,446.3417 560.5571,447.4283 554.7367,449.043 549.101,451.2161 543.7033,453.927 538.5949,457.15 533.8241,460.8546 529.4363,465.0056 525.473,469.5637 521.9719,474.4857 518.966,479.7248 516.484,485.2315 514.447,491.317 513.1138,497.2082 512.3599,503.2012 512.1925,509.2391 512.6131,515.2646 513.6177,521.2207 515.1969,527.0508 517.3356,532.6996 520.0136,538.1137 523.2055,543.2417"/>
    <polygon points="515.3342,541.0946 518.9626,546.8409 522.9034,551.9075 527.5797,556.8388 532.4302,561.0427 537.976,564.9708 543.8882,568.3219 549.7548,570.9265 555.842,572.9627 562.4667,574.4788 568.8336,575.2927 575.6267,575.492 582.4054,575.0079 588.7326,573.9275 594.9287,572.2517 601.2843,569.8451 607.0363,566.9966 612.8028,563.4004 618.1789,559.243 622.8488,554.8394 627.0797,550.0124 631.0387,544.4887 634.4229,538.5952 637.0602,532.7434 639.1304,526.6676 640.6835,520.0515 641.5641,513.3128 641.7634,506.5197 641.2793,499.741 640.1989,493.4138 638.5231,487.2177 636.1164,480.8621 633.0836,474.7804 629.6718,469.3436 625.5144,463.9675 621.1107,459.2976 616.2838,455.0667 610.7601,451.1077 604.8666,447.7235 598.663,444.9485 592.5758,442.9123 585.9511,441.3962 579.2076,440.5533 572.7911,440.383 566.0124,440.8671 559.3166,442.0297 552.7714,443.859 546.7879,446.1823 541.0518,449.0628 535.3055,452.6913 530.2389,456.632 525.3076,461.3083 520.871,466.4563 517.1756,471.7046 513.8245,477.6169 511.2199,483.4834 509.1837,489.5706 507.6676,496.1953 506.8537,502.5622 506.6544,509.3553 507.1385,516.134 508.2189,522.4612 510.0116,529.0165 512.4537,535.3585"/>
    <polygon points="504.9044,537.2529 408.7109,558.6751 452.6364,755.917 548.8299,734.4948"/>
    <polygon points="510.5574,522.0415 512.2537,528.235 514.551,534.2315 517.4271,539.973 520.8542,545.4036 524.5531,550.1837 528.9501,554.8638 533.7861,559.0886 539.0143,562.8172 544.584,566.0133 550.441,568.6461 556.5287,570.6898 562.7879,572.1247 569.1579,572.9369 575.5769,573.1185 581.9826,572.6678 588.3129,571.589 594.5064,569.8927 600.5029,567.5954 606.2444,564.7193 611.675,561.2922 616.7422,557.3476 621.1352,553.1963 625.36,548.3603 629.0886,543.1321 632.2847,537.5624 634.9174,531.7054 636.9612,525.6177 638.3961,519.3585 639.2083,512.9885 639.3899,506.5695 638.9392,500.1638 637.8604,493.8335 636.1641,487.64 633.8668,481.6435 630.9906,475.902 627.7799,470.7813 623.8647,465.6913 619.4677,461.0112 614.6317,456.7864 609.4035,453.0578 603.8338,449.8617 597.9767,447.229 591.8891,445.1852 585.6299,443.7503 579.2599,442.9381 572.8409,442.7565 566.4352,443.2072 560.1049,444.286 553.9114,445.9823 547.9149,448.2796 542.1734,451.1558 536.7428,454.5828 531.6756,458.5274 527.0211,462.9514 522.8243,467.8119 519.1261,473.0616 515.9623,478.6497 513.3636,484.5219 511.3552,490.6213 510.0217,496.5165 509.2095,502.8865 509.0279,509.3055 509.4786,515.7112"/>
    <polygon points="501.2216,516.6403 502.5005,524.0867 504.4176,531.004 507.0002,537.7013 510.2238,544.1147 514.0575,550.1831 518.4648,555.8487 523.4038,561.0574 528.8272,565.7595 534.6834,569.9102 540.9165,573.47 547.4671,576.4048 554.2727,578.6866 561.2685,580.2938 568.3876,581.211 575.5623,581.4294 582.724,580.947 589.8046,579.7683 597.0959,577.7879 603.7998,575.2225 610.2215,572.0154 616.2998,568.1973 621.9766,563.8046 627.198,558.879 631.9141,553.4677 636.0798,547.6222 639.6555,541.3983 642.6072,534.8552 644.9065,528.0555 646.5982,520.6919 647.4971,513.5704 647.697,506.3952 647.1962,499.2347 645.9993,492.1572 644.1179,485.2302 641.5697,478.5197 638.3792,472.0898 634.5767,466.0017 629.953,460.0263 625.014,454.8176 619.5906,450.1155 613.7344,445.9648 607.5013,442.4051 600.9507,439.4703 594.1451,437.1884 587.1493,435.5812 579.6533,434.6351 572.4777,434.4536 565.3185,434.9728 558.2441,436.1879 551.3219,438.0871 544.618,440.6525 538.1963,443.8596 531.8088,447.8949 526.1545,452.3168 520.9586,457.2691 516.2704,462.7046 512.1348,468.5714 508.5911,474.8137 505.6731,481.3718 503.4088,488.1833 501.8196,495.1831 500.9207,502.3046 500.7207,509.4798"/>
    <polygon points="500.4261,516.6524 501.6917,524.0959 503.5879,531.0139 506.2947,538.0624 509.5164,544.4713 513.5584,550.8486 517.9793,556.4975 522.9243,561.6938 528.3474,566.3889 534.1979,570.5392 540.7583,574.2768 547.3117,577.1934 554.1158,579.4645 561.1073,581.0688 568.5973,582.0209 575.7678,582.2168 582.9238,581.7203 589.9985,580.536 596.926,578.6749 603.9881,576.004 610.4134,572.8149 616.5012,569.0211 622.4824,564.4133 627.7037,559.4947 632.4264,554.0956 636.8106,547.9485 640.5482,541.3881 643.4648,534.8347 645.7359,528.0306 647.4059,520.6672 648.2923,513.5491 648.4882,506.3786 647.9464,498.8477 646.7261,491.7791 644.8299,484.8611 642.2753,478.1583 639.0863,471.733 635.0767,465.3353 630.4385,459.3775 625.4935,454.1813 619.7727,449.2537 613.9011,445.1333 607.6595,441.5982 601.1061,438.6816 594.302,436.4105 586.9386,434.7405 579.8204,433.8541 572.65,433.6582 565.494,434.1547 558.0505,435.4203 551.1325,437.3165 544.4297,439.8711 538.0044,443.0601 531.9166,446.8539 525.9353,451.4618 520.714,456.3803 515.9914,461.7794 511.8114,467.6088 508.2131,473.8142 505.0906,480.6886 502.6819,487.8444 501.0776,494.8359 500.1255,502.326 499.9296,509.4964"/>
    <polygon points="506.0931,481.3834 503.8184,488.1878 502.2215,495.1824 501.3179,502.2998 501.1163,509.4715 501.6186,516.6285 502.82,523.7017 504.709,530.6231 507.2672,537.3261 510.4701,543.746 514.2869,549.8211 518.6807,555.4928 523.6094,560.7065 529.0253,565.412 534.8763,569.564 541.1062,573.1225 547.6548,576.0533 554.4592,578.328 561.4538,579.9249 568.5712,580.8285 575.7429,581.0301 582.8999,580.5278 589.9731,579.3264 596.8945,577.4374 603.5975,574.8792 610.0174,571.6763 616.0924,567.8595 621.7641,563.4657 626.9779,558.537 631.6834,553.1211 635.8354,547.2701 639.3939,541.0402 642.3247,534.4916 644.5994,527.6872 646.1963,520.6926 647.0999,513.5752 647.3015,506.4035 646.7991,499.2466 645.5977,492.1733 643.7088,485.2519 641.1506,478.5489 637.9477,472.129 634.1309,466.054 629.737,460.3823 624.8084,455.1685 619.3925,450.463 613.5415,446.311 607.3116,442.7525 600.763,439.8217 593.9586,437.547 586.964,435.9501 579.8466,435.0465 572.6749,434.8449 565.5179,435.3473 558.4447,436.5487 551.5233,438.4376 544.8203,440.9958 538.4004,444.1987 532.3253,448.0155 526.6536,452.4094 521.4399,457.338 516.7344,462.7539 512.5824,468.6049 509.0239,474.8348"/>
    <polygon points="522.5817,475.0009 519.5886,480.2462 517.1267,485.7607 515.2199,491.491 513.9531,497.0094 513.1697,502.9975 512.98,509.0337 513.3857,515.0592 514.3034,520.6463 515.8465,526.485 517.9571,532.1433 520.6148,537.5662 523.7938,542.701 527.463,547.4976 531.5868,551.9096 536.1252,555.8939 541.0339,559.4118 546.2653,562.4291 551.7684,564.9165 557.4897,566.8498 563.3737,568.2101 569.363,568.9842 575.3995,569.1647 581.4243,568.7497 587.379,567.7433 593.2057,566.1553 598.8475,564.0011 604.2498,561.3016 609.3599,558.0832 614.1282,554.3771 618.5082,550.2194 622.4574,545.6505 625.9374,540.7148 628.9143,535.4603 631.3592,529.9382 633.2483,524.2021 634.5632,518.3078 635.2911,512.3127 635.4342,506.6526 635.0099,500.6283 633.9943,494.6752 632.3973,488.851 630.2344,483.2125 627.7114,478.1437 624.5166,473.0188 620.8326,468.2334 616.6952,463.8342 612.4403,460.0988 607.5424,456.5657 602.3204,453.5323 596.825,451.028 591.1096,449.0771 585.2299,447.6986 579.243,446.906 573.2071,446.707 567.181,447.1034 561.2232,448.0914 555.3917,449.6615 549.7432,451.7983 544.3327,454.481 539.2127,457.6837 534.433,461.375 530.0402,465.5193 526.0769,470.076"/>
    <polygon points="519.527,464.326 515.551,469.8412 511.9561,476.0524 509.1544,482.2473 506.8644,489.0486 505.3486,495.6765 504.4835,502.4203 504.2772,509.2162 504.7318,516.0 505.8429,522.7077 507.5999,529.2758 510.1371,535.9888 513.1634,542.0772 516.7665,547.843 521.1579,553.519 525.8342,558.4545 530.9676,562.9126 536.5096,566.8513 542.4079,570.2333 548.9586,573.164 555.4109,575.3075 562.0409,576.8143 568.7859,577.6703 575.582,577.8674 582.7404,577.3586 589.4404,576.2022 595.9965,574.4008 602.3467,571.9714 608.431,568.9369 614.1919,565.3259 619.575,561.1727 624.5294,556.5165 629.2424,551.1045 633.1736,545.5572 636.5476,539.6544 639.3325,533.4519 641.6042,526.6444 643.1021,520.0125 643.949,513.2664 644.1369,506.4699 643.664,499.6873 642.5348,492.9827 640.6427,486.0602 638.2047,479.7133 635.162,473.6331 631.5433,467.877 627.3828,462.4995 622.7199,457.5514 617.5985,453.0794 612.0672,449.1257 606.1781,445.7278 599.9869,442.9178 593.5522,440.7221 586.5629,439.0938 579.8203,438.2196 573.0246,438.0042 566.2402,438.4496 559.5311,439.5516 552.9606,441.2998 546.591,443.6777 540.4823,446.6628 534.6923,450.2269 529.2757,454.3364 524.0198,459.2228"/>
    <polygon points="533.6116,460.5157 529.2162,464.6636 525.009,469.5143 521.5241,474.452 518.5329,479.7035 516.0636,485.2196 514.0376,491.3126 512.712,497.209 511.9627,503.206 511.7969,509.2474 512.216,515.2764 513.2162,521.2367 514.7881,527.0723 517.068,533.0749 519.7665,538.4826 523.1922,543.9135 526.9101,548.6782 531.0714,553.061 535.637,557.0209 540.883,560.7234 546.1435,563.6987 551.6671,566.1513 557.402,568.0582 563.2944,569.4017 569.289,570.1691 575.7076,570.3453 581.7354,569.9079 587.6926,568.8896 593.5235,567.3001 599.5192,565.0021 605.2471,562.1003 610.3391,558.8451 615.0925,555.1127 619.4627,550.9382 623.4088,546.3607 627.0955,541.1035 630.0547,535.834 632.4906,530.303 634.3802,524.5624 635.7058,518.666 636.4551,512.669 636.6209,506.6276 636.1562,500.2235 635.1199,494.2694 633.5128,488.4434 631.3498,482.8001 628.4654,477.0634 625.2256,471.9615 621.5076,467.1968 617.3464,462.814 612.483,458.6215 607.5348,455.1516 602.2743,452.1763 596.7507,449.7238 591.0158,447.8168 585.1234,446.4733 579.1287,445.7059 573.0879,445.5218 567.0576,445.9227 560.7252,446.9854 554.8943,448.5749 549.2445,450.7208 543.4991,453.5879 538.3875,456.8122"/>
    <polygon points="532.4263,448.4279 526.7632,452.8368 521.8237,457.5096 517.1075,462.9195 512.9477,468.768 509.3847,474.9981 506.5912,481.1974 504.2845,487.9936 502.659,494.9841 501.7305,502.1008 501.5082,509.2743 501.9509,516.0594 503.1036,523.1433 504.949,530.079 507.4691,536.7989 510.6395,543.2377 514.4291,549.3326 518.8011,555.0243 523.713,560.2571 529.1168,564.9803 534.9599,569.1478 541.1853,572.7189 547.7325,575.6589 554.5377,577.9391 561.1625,579.4705 568.278,580.4082 575.4512,580.6399 582.6124,580.1633 589.6917,578.983 596.6201,577.1106 603.3302,574.5643 609.7566,571.3689 615.8367,567.5555 621.5113,563.1613 626.725,558.2291 631.427,552.8069 635.5717,546.9476 638.9473,541.0452 641.8958,534.5018 644.1849,527.6997 645.7922,520.705 646.7022,513.5859 646.9059,506.4118 646.4014,499.2526 645.1935,492.1779 643.4111,485.6162 640.8735,478.9028 637.6864,472.4722 633.8809,466.3872 629.4941,460.7069 624.5687,455.4868 619.1526,450.7777 613.2987,446.6255 607.064,443.0705 600.8611,440.2852 594.062,437.9873 587.0694,436.3708 579.9515,435.4516 572.7776,435.2386 565.6177,435.7338 558.5415,436.9325 551.618,438.8229 544.9145,441.3866 538.4964,444.5987"/>
    <polygon points="538.1003,443.4597 532.0173,447.2656 526.332,451.6435 520.8361,456.8244 515.8977,462.5391 511.7697,468.4084 508.2303,474.6503 505.313,481.2061 503.0453,488.0138 501.4485,495.0095 500.5089,502.5037 500.3294,509.677 500.8463,516.8339 502.055,523.9069 503.9439,530.8294 506.4953,537.536 509.685,543.9636 513.4831,550.0515 517.8538,555.7424 523.0276,561.2449 528.736,566.1906 534.6,570.3262 540.8374,573.8735 547.3894,576.7991 554.1943,579.0756 561.5599,580.7469 568.6809,581.6305 575.8539,581.8192 583.0115,581.3114 590.0861,580.1118 597.0109,578.2317 603.7208,575.6889 610.4821,572.3228 616.5555,568.5013 622.2295,564.1089 627.4509,559.1869 632.1702,553.7817 636.5469,547.6261 640.1022,541.3933 643.0362,534.845 645.3213,528.043 646.936,521.0515 647.8947,513.5597 648.0926,506.3869 647.5485,498.8536 646.3218,491.7837 644.4152,484.8661 641.8467,478.166 638.6405,471.7466 634.8268,465.6684 630.4416,459.9887 625.5263,454.7611 620.1271,450.0348 614.2951,445.8544 607.7488,442.0871 601.2043,439.1447 594.4053,436.8508 587.0439,435.1606 579.9253,434.2589 572.7527,434.0519 565.2188,434.5864 558.1473,435.8041 551.2272,437.7018 544.5239,440.2618"/>
    <polygon points="541.0816,448.1398 535.3071,451.7251 529.9172,455.8661 524.9651,460.522 520.7344,465.3504 516.7696,470.8712 513.3726,476.7585 510.577,482.9541 508.4106,489.3966 506.8946,496.0224 506.0441,502.766 505.8595,509.1831 506.3211,515.9644 507.4538,522.6664 509.2464,529.2228 511.5295,535.2228 514.549,541.3123 518.1582,547.0719 522.3215,552.4447 526.7254,557.1157 531.5479,561.3531 537.0633,565.3256 542.9459,568.7307 549.1376,571.5348 555.2139,573.6062 561.8291,575.1679 568.5667,576.065 575.36,576.2885 582.142,575.8363 588.8455,574.7129 595.4044,572.9293 601.4075,570.6545 607.1708,567.8266 612.9552,564.2572 618.3566,560.1311 623.3215,555.4889 627.8009,550.3767 631.7504,544.8449 635.1311,538.9483 637.7715,533.0967 639.9557,526.6602 641.49,520.0386 642.3592,513.2973 642.5545,506.5031 642.1186,500.0982 641.0045,493.3931 639.2299,486.8318 636.8126,480.4792 633.7764,474.398 630.1513,468.6484 625.9731,463.2872 621.5564,458.6283 616.4256,454.1701 610.8775,450.2435 605.3038,447.0582 599.1044,444.2712 592.6589,442.1136 586.031,440.6068 579.6629,439.7947 572.8689,439.5899 566.4634,440.017 559.7568,441.1219 553.1931,442.8874 546.8371,445.2959"/>
    <polygon points="542.6778,452.2341 537.2589,455.6712 532.497,459.3866 527.8454,463.8071 523.6597,468.6711 520.1837,473.6104 517.0181,479.1923 514.5633,484.7108 512.5374,490.7996 511.1967,496.6888 510.387,503.0545 510.2188,509.4693 510.6481,515.4939 511.7241,521.8201 513.3108,527.6478 515.5904,533.6463 518.2745,539.0569 521.6715,544.5011 525.5965,549.5778 530.0101,554.2359 534.5707,558.1958 539.8021,561.912 545.0427,564.9148 550.8942,567.5488 556.9801,569.5836 563.2391,570.9989 569.2318,571.7521 575.6463,571.9298 582.0465,571.4643 587.9993,570.4427 594.1885,568.7478 600.1768,566.4417 605.5755,563.7337 611.0046,560.3126 616.0638,556.3652 620.4421,552.2045 624.642,547.3529 628.3351,542.1051 631.3146,536.8513 633.9227,530.9882 635.8295,525.2572 637.254,519.0003 638.0449,512.6322 638.2032,506.5944 637.7917,500.5686 636.7344,494.2393 635.0486,488.0477 632.7513,482.0559 629.8657,476.3243 626.6382,471.2191 622.6982,466.154 618.5441,461.7697 613.9951,457.7964 608.7747,454.0647 603.5431,451.0465 597.6993,448.3953 591.6195,446.3425 585.3647,444.9088 578.9977,444.1085 572.9602,443.9413 566.5587,444.3879 560.6029,445.3919 554.4088,447.0685 548.4137,449.3569"/>
    <line x1="456.2084" x2="44.0714" y1="612.6173" y2="479.7342"/>
    <polygon points="124.0594,735.3892 119.3035,792.3507 200.8408,799.1585 205.5967,742.197"/>
    <line x1="194.8127" x2="186.6183" y1="769.1157" y2="788.6522"/>
    <line x1="192.8358" x2="201.0302" y1="791.2601" y2="771.7235"/>
    <polygon points="201.3756,771.8684 194.4673,768.9708 115.9778,965.7855"/>
    <line x1="200.6848" x2="184.296" y1="771.5786" y2="810.6518"/>
    <line x1="178.7694" x2="195.1581" y1="808.3337" y2="769.2605"/>
    <line x1="195.5035" x2="170.9204" y1="769.4054" y2="828.0152"/>
    <line x1="175.7563" x2="200.3394" y1="830.0435" y2="771.4337"/>
    <line x1="199.9939" x2="167.2165" y1="771.2889" y2="849.4352"/>
    <line x1="163.0715" x2="195.8489" y1="847.6966" y2="769.5503"/>
    <line x1="196.1944" x2="155.2226" y1="769.6952" y2="867.3781"/>
    <line x1="158.6767" x2="199.6485" y1="868.8269" y2="771.144"/>
    <line x1="199.3031" x2="150.1369" y1="770.9991" y2="888.2186"/>
    <line x1="147.3736" x2="196.5398" y1="887.0596" y2="769.8401"/>
    <line x1="196.8852" x2="139.5247" y1="769.9849" y2="906.7411"/>
    <line x1="141.5972" x2="198.9577" y1="907.6103" y2="770.8542"/>
    <line x1="198.6123" x2="133.0574" y1="770.7093" y2="927.002"/>
    <line x1="131.6757" x2="197.2306" y1="926.4225" y2="770.1298"/>
    <line x1="197.576" x2="123.8268" y1="770.2747" y2="946.104"/>
    <line x1="124.5176" x2="198.2669" y1="946.3937" y2="770.5645"/>
    <line x1="197.9214" x2="115.9778" y1="770.4196" y2="965.7855"/>
    <line x1="107.745" x2="353.4637" y1="940.8661" y2="954.6436"/>
    <line x1="353.4844" x2="80.4636" y1="954.2741" y2="938.9658"/>
    <line x1="80.4844" x2="353.5051" y1="938.5963" y2="953.9047"/>
    <line x1="353.5258" x2="107.8072" y1="953.5352" y2="939.7576"/>
    <line x1="135.13" x2="353.5466" y1="940.919" y2="953.1657"/>
    <line x1="353.5673" x2="162.4527" y1="952.7962" y2="942.0804"/>
    <line x1="162.3077" x2="353.4223" y1="944.6667" y2="955.3826"/>
    <line x1="353.4015" x2="189.5891" y1="955.7521" y2="946.567"/>
    <line x1="189.7755" x2="353.588" y1="943.2417" y2="952.4267"/>
    <line x1="353.6087" x2="217.0983" y1="952.0573" y2="944.4031"/>
    <line x1="216.8704" x2="353.3808" y1="948.4674" y2="956.1215"/>
    <line x1="353.3601" x2="244.1518" y1="956.491" y2="950.3677"/>
    <line x1="244.4211" x2="353.6294" y1="945.5644" y2="951.6878"/>
    <line x1="353.6502" x2="271.7439" y1="951.3183" y2="946.7258"/>
    <line x1="271.4332" x2="353.3394" y1="952.268" y2="956.8605"/>
    <line x1="353.3187" x2="298.7145" y1="957.23" y2="954.1683"/>
    <line x1="299.0667" x2="353.6709" y1="947.8871" y2="950.9488"/>
    <line x1="353.6916" x2="326.3895" y1="950.5793" y2="949.0485"/>
    <line x1="325.9959" x2="353.298" y1="956.0686" y2="957.5995"/>
    <line x1="353.443" x2="135.0264" y1="955.0131" y2="942.7664"/>
    <polygon points="66.823,938.0156 353.2772,957.9689 353.7123,950.2098"/>
    <polygon points="217.9909,832.8281 270.4143,820.9967 239.3668,683.4292 186.9435,695.2606"/>
    <line x1="285.3777" x2="749.6294" y1="888.7697" y2="1014.4526"/>
    <polygon points="540.7886,721.3038 530.9867,637.9176 464.5614,645.7258 474.3633,729.1119"/>
    <line x1="535.0069" x2="270.1226" y1="700.3798" y2="1044.6192"/>
    <polygon points="384.1699,786.6348 389.948,781.613 235.0102,609.1741"/>
    <polygon points="419.4881,707.3373 416.8864,709.4713 415.3158,712.4473 415.0222,715.7995 416.0515,719.0032 418.2425,721.5571 420.8915,722.9551 424.2364,723.3228 427.4621,722.3647 430.0638,720.2306 431.6344,717.2547 431.928,713.9025 430.8988,710.6988 428.7077,708.1449 426.0587,706.7469 422.7138,706.3792"/>
    <polygon points="419.0401,706.4816 416.1449,708.8522 414.3938,712.1591 414.06,715.8861 415.0192,719.1187 417.3318,722.0604 420.6032,723.877 424.3228,724.2848 427.9101,723.2204 430.8053,720.8497 432.5564,717.5429 432.8902,713.8159 431.931,710.5832 429.6184,707.6415 426.347,705.825 422.6274,705.4171"/>
    <polygon points="437.5098,648.6277 440.7753,650.4384 444.4852,650.8617 448.0746,649.833 450.9972,647.5091 452.8079,644.2436 453.2312,640.5337 452.2025,636.9442 449.8786,634.0217 446.6131,632.2109 442.9032,631.7877 439.3137,632.8163 436.3912,635.1403 434.5804,638.4058 434.1572,642.1157 435.1858,645.7051"/>
    <polygon points="435.9533,645.8137 438.1672,648.3621 441.1677,649.9089 444.5278,650.2341 447.7692,649.2913 450.4306,647.2147 451.5142,645.6744 452.2513,643.9415 452.6119,640.5851 451.7033,637.3339 450.6907,635.7461 449.3683,634.4053 446.4011,632.7956 444.5561,632.418 442.6729,632.4348 439.4521,633.4457 436.835,635.578 435.1941,638.528 434.797,640.3689 434.794,642.2521 435.1852,644.0943"/>
    <polygon points="435.4134,642.2003 436.4358,645.4055 438.643,647.9445 441.6747,649.403 444.6633,649.595 447.5266,648.7172 450.139,646.5974 451.5876,643.9762 451.9926,640.6364 451.0429,637.409 449.1823,635.0623 446.2564,633.4018 442.9122,633.0346 440.0298,633.8474 437.3702,635.9077 435.7428,638.8522"/>
    <polygon points="434.6157,636.6942 433.9194,638.4412 433.5378,642.167 434.528,645.779 435.5025,647.3875 437.0366,649.0407 438.8968,650.3161 440.6306,651.0445 444.3487,651.4948 447.9784,650.5716 449.9073,649.4029 451.2859,648.1237 452.5954,646.2874 453.3557,644.5673 453.7871,642.7368 453.8505,640.4823 453.5228,638.6305 452.6895,636.5347 450.3517,633.6086 447.1148,631.7247 444.9196,631.2074 443.0397,631.1545 441.182,631.4479 439.0712,632.2423 437.481,633.2465 435.8564,634.8108"/>
  </g>
</svg>
