<?xml version="1.0" encoding="utf-8" ?>
<svg xmlns="http://www.w3.org/2000/svg" xmlns:cc="http://creativecommons.org/ns" xmlns:dc="http://purl.org/dc/elements/1.1/" xmlns:ev="http://www.w3.org/2001/xml-events" xmlns:inkscape="http://www.inkscape.org/namespaces/inkscape" xmlns:rdf="http://www.w3.org/1999/02/22-rdf-syntax-ns" xmlns:sodipodi="http://sodipodi.sourceforge.net/DTD/sodipodi-0.dtd" xmlns:xlink="http://www.w3.org/1999/xlink" baseProfile="tiny" height="29.7cm" version="1.2" viewBox="0 0 793.7007874015749 1122.5196850393702" width="21.0cm">
  <metadata>
    <rdf:RDF>
      <cc:Work>
        <dc:format>image/svg+xml</dc:format>
        <dc:source>Vsketch with params {'__seed__': 215120332, 'debug_show_shapes': False, 'debug_draw': False, 'occult': False, 'scale': 1.0, 'area_type': 'RECT', 'width': 12.0, 'height': 19.0, 'num_circ_min': 2, 'num_circ_max': 10, 'circ_rad_min': 0.5, 'circ_rad_max': 2.0, 'num_circ_shaded_min': 0, 'num_circ_shaded_max': 0, 'circ_shaded_rad_min': 0.05, 'circ_shaded_rad_max': 0.5, 'circ_shaded_fill_dist_min': 0.05, 'circ_shaded_fill_dist_max': 0.2, 'num_circ_fill_min': 0, 'num_circ_fill_max': 0, 'circ_fill_rad_min': 0.05, 'circ_fill_rad_max': 0.5, 'num_circ_dash_min': 0, 'num_circ_dash_max': 0, 'circ_dash_rad_min': 0.05, 'circ_dash_rad_max': 0.5, 'num_circ_dot_min': 0, 'num_circ_dot_max': 0, 'circ_dot_rad_min': 0.05, 'circ_dot_rad_max': 0.5, 'circ_dot_dens_min': 400.0, 'circ_dot_dens_max': 800.0, 'circ_dot_dot_rad_min': 0.02, 'circ_dot_dot_rad_max': 0.06, 'num_circ_half_fill_min': 0, 'num_circ_half_fill_max': 0, 'circ_half_fill_rad_min': 0.05, 'circ_half_fill_rad_max': 2.0, 'circ_half_fill_gain_min': 0.4, 'circ_half_fill_gain_max': 0.6, 'num_circ_outer_fill_min': 0, 'num_circ_outer_fill_max': 10, 'circ_outer_fill_rad_min': 0.05, 'circ_outer_fill_rad_max': 2.0, 'circ_outer_fill_gain_min': 0.0, 'circ_outer_fill_gain_max': 0.2, 'num_line_min': 5, 'num_line_max': 8, 'line_length_min': 5.0, 'line_length_max': 13.0, 'num_thick_line_min': 0, 'num_thick_line_max': 0, 'thick_line_length_min': 3.0, 'thick_line_length_max': 7.0, 'num_tri_line_min': 4, 'num_tri_line_max': 8, 'tri_line_length_min': 4.0, 'tri_line_length_max': 10.0, 'tri_line_width_gain_min': 0.02, 'tri_line_width_gain_max': 0.04, 'num_rect_min': 5, 'num_rect_max': 10, 'rect_width_min': 1.0, 'rect_width_max': 4.0, 'rect_height_gain_min': 0.3, 'rect_height_gain_max': 3.0, 'num_rect_shaded_min': 0, 'num_rect_shaded_max': 0, 'rect_shaded_width_min': 0.1, 'rect_shaded_width_max': 1.0, 'rect_shaded_height_gain_min': 0.5, 'rect_shaded_height_gain_max': 2.0, 'rect_shaded_fill_dist_min': 0.05, 'rect_shaded_fill_dist_max': 0.2, 'num_rect_fill_min': 0, 'num_rect_fill_max': 0, 'rect_fill_width_min': 0.1, 'rect_fill_width_max': 1.0, 'rect_fill_height_gain_min': 0.5, 'rect_fill_height_gain_max': 2.0, 'num_rect_dash_min': 0, 'num_rect_dash_max': 0, 'rect_dash_width_min': 0.1, 'rect_dash_width_max': 1.0, 'rect_dash_height_gain_min': 0.5, 'rect_dash_height_gain_max': 2.0, 'num_rect_dot_min': 0, 'num_rect_dot_max': 0, 'rect_dot_width_min': 0.1, 'rect_dot_width_max': 1.0, 'rect_dot_height_gain_min': 0.5, 'rect_dot_height_gain_max': 2.0, 'rect_dot_dens_min': 400.0, 'rect_dot_dens_max': 800.0, 'rect_dot_rad_min': 0.02, 'rect_dot_rad_max': 0.06, 'num_tri_min': 0, 'num_tri_max': 5, 'tri_width_min': 0.5, 'tri_width_max': 4.0, 'tri_height_gain_min': 0.5, 'tri_height_gain_max': 2.0, 'num_tri_shaded_min': 0, 'num_tri_shaded_max': 0, 'tri_shaded_width_min': 0.1, 'tri_shaded_width_max': 1.0, 'tri_shaded_height_gain_min': 0.5, 'tri_shaded_height_gain_max': 2.0, 'tri_shaded_fill_dist_min': 0.05, 'tri_shaded_fill_dist_max': 0.2, 'num_tri_fill_min': 0, 'num_tri_fill_max': 0, 'tri_fill_width_min': 0.4, 'tri_fill_width_max': 1.0, 'tri_fill_height_gain_min': 0.5, 'tri_fill_height_gain_max': 3.0, 'num_tri_dash_min': 0, 'num_tri_dash_max': 0, 'tri_dash_width_min': 0.1, 'tri_dash_width_max': 1.0, 'tri_dash_height_gain_min': 0.5, 'tri_dash_height_gain_max': 2.0, 'num_tri_dot_min': 0, 'num_tri_dot_max': 0, 'tri_dot_width_min': 0.1, 'tri_dot_width_max': 1.0, 'tri_dot_height_gain_min': 0.5, 'tri_dot_height_gain_max': 2.0, 'tri_dot_dens_min': 400.0, 'tri_dot_dens_max': 800.0, 'tri_dot_rad_min': 0.02, 'tri_dot_rad_max': 0.06}</dc:source>
        <dc:date>2023-11-21T20:30:51.422590</dc:date>
      </cc:Work>
    </rdf:RDF>
  </metadata>
  <defs/>
  <g fill="none" id="layer1" inkscape:groupmode="layer" inkscape:label="1" stroke="#0000ff" style="display:inline">
    <polygon points="336.519,246.0628 331.5309,242.6577 326.565,239.9371 321.0103,237.5663 315.245,235.7672 309.7009,234.6162 303.6959,233.9717 298.0339,233.92 292.0181,234.4547 286.0868,235.5928 280.6567,237.1976 275.0596,239.4666 269.7197,242.288 264.9953,245.4093 260.5871,248.963 256.2777,253.1944 252.644,257.537 249.239,262.5251 246.3539,267.8309 244.0181,273.4004 242.2554,279.177 241.1395,284.7282 240.553,290.3601 240.5168,296.3995 241.0894,302.4117 242.174,307.9692 243.904,313.7556 246.0478,318.9964 248.6772,324.0112 251.9905,329.0607 255.5443,333.4689 259.7756,337.7783 264.1182,341.412 269.1063,344.8171 274.0722,347.5376 279.6269,349.9085 285.3922,351.7076 290.9363,352.8586 296.9413,353.503 302.6034,353.5548 308.6192,353.0201 314.5504,351.882 319.9806,350.2772 325.5776,348.0082 330.9176,345.1868 335.6419,342.0655 340.0502,338.5118 344.3596,334.2804 348.2207,329.6363 351.3983,324.9497 354.1189,319.9838 356.4897,314.4291 358.2888,308.6638 359.4398,303.1197 360.0618,297.4917 360.136,291.4526 359.6013,285.4369 358.4632,279.5056 356.7333,273.7192 354.5894,268.4784 351.9601,263.4636 348.6467,258.4141 345.093,254.0058 340.8616,249.6964"/>
    <line x1="298.2612" x2="556.3012" y1="298.408" y2="575.2095"/>
    <line x1="600.3076" x2="333.8491" y1="600.2411" y2="792.221"/>
    <line x1="401.0549" x2="422.7654" y1="809.925" y2="822.861"/>
    <line x1="425.8033" x2="404.0928" y1="817.7626" y2="804.8266"/>
    <line x1="403.9029" x2="447.324" y1="805.1452" y2="831.0172"/>
    <line x1="444.6658" x2="401.2448" y1="835.4784" y2="809.6064"/>
    <line x1="401.4346" x2="466.5662" y1="809.2877" y2="848.0957"/>
    <line x1="468.8446" x2="403.713" y1="844.2719" y2="805.4639"/>
    <line x1="403.5232" x2="490.3653" y1="805.7825" y2="857.5266"/>
    <line x1="488.4666" x2="401.6245" y1="860.7131" y2="808.9691"/>
    <line x1="401.8144" x2="510.367" y1="808.6504" y2="873.3305"/>
    <line x1="511.8859" x2="403.3333" y1="870.7812" y2="806.1012"/>
    <line x1="403.1434" x2="533.4066" y1="806.4198" y2="884.0359"/>
    <line x1="532.2674" x2="402.0042" y1="885.9478" y2="808.3317"/>
    <line x1="402.1941" x2="554.1678" y1="808.0131" y2="898.5652"/>
    <line x1="554.9273" x2="402.9536" y1="897.2906" y2="806.7385"/>
    <line x1="402.7637" x2="576.4479" y1="807.0571" y2="910.5452"/>
    <line x1="576.0682" x2="402.384" y1="911.1825" y2="807.6944"/>
    <line x1="402.5738" x2="597.9686" y1="807.3758" y2="923.7999"/>
    <polygon points="597.9686,923.7999 404.2826,804.5079 400.865,810.2437"/>
    <line x1="555.406" x2="542.4278" y1="925.1888" y2="959.9686"/>
    <line x1="542.0644" x2="568.0209" y1="959.833" y2="890.2733"/>
    <line x1="565.4771" x2="539.5206" y1="889.3241" y2="958.8838"/>
    <line x1="539.884" x2="578.8187" y1="959.0194" y2="854.6799"/>
    <line x1="580.6357" x2="541.701" y1="855.3579" y2="959.6974"/>
    <line x1="541.3376" x2="593.2506" y1="959.5618" y2="820.4424"/>
    <line x1="592.1604" x2="540.2474" y1="820.0356" y2="959.155"/>
    <line x1="540.6108" x2="605.502" y1="959.2906" y2="785.3914"/>
    <line x1="605.8654" x2="540.9742" y1="785.527" y2="959.4262"/>
    <line x1="539.1572" x2="552.1355" y1="958.7482" y2="923.9684"/>
    <line x1="530.1314" x2="515.7187" y1="851.3745" y2="836.4865"/>
    <line x1="524.4467" x2="538.8594" y1="828.0372" y2="842.9252"/>
    <line x1="538.5867" x2="509.7613" y1="843.1892" y2="813.4132"/>
    <line x1="501.5788" x2="530.4042" y1="821.3344" y2="851.1105"/>
    <line x1="530.6769" x2="487.4388" y1="850.8465" y2="806.1824"/>
    <line x1="495.0758" x2="538.3139" y1="798.7892" y2="843.4533"/>
    <line x1="538.0412" x2="480.3904" y1="843.7173" y2="784.1652"/>
    <line x1="473.2989" x2="530.9497" y1="791.0303" y2="850.5824"/>
    <line x1="531.2224" x2="459.1589" y1="850.3184" y2="775.8782"/>
    <line x1="465.7049" x2="537.7684" y1="769.5412" y2="843.9814"/>
    <line x1="537.4957" x2="451.0194" y1="844.2454" y2="754.9172"/>
    <line x1="445.019" x2="531.4952" y1="760.7261" y2="850.0543"/>
    <line x1="531.7679" x2="430.879" y1="849.7903" y2="745.5741"/>
    <line x1="436.334" x2="537.2229" y1="740.2932" y2="844.5095"/>
    <line x1="536.9502" x2="421.6485" y1="844.7735" y2="725.6692"/>
    <line x1="416.739" x2="532.0407" y1="730.422" y2="849.5263"/>
    <line x1="532.3134" x2="402.5991" y1="849.2622" y2="715.2699"/>
    <line x1="406.9631" x2="536.6774" y1="711.0452" y2="845.0375"/>
    <line x1="536.4047" x2="392.2776" y1="845.3016" y2="696.4212"/>
    <line x1="388.4591" x2="532.5862" y1="700.1178" y2="848.9982"/>
    <line x1="532.8589" x2="374.3192" y1="848.7341" y2="684.9658"/>
    <line x1="377.5922" x2="536.1319" y1="681.7972" y2="845.5656"/>
    <line x1="535.8592" x2="362.9067" y1="845.8297" y2="667.1733"/>
    <line x1="360.1792" x2="533.1317" y1="669.8137" y2="848.4701"/>
    <line x1="533.4044" x2="346.0393" y1="848.206" y2="654.6616"/>
    <line x1="348.2213" x2="535.5864" y1="652.5493" y2="846.0937"/>
    <line x1="535.3137" x2="333.5358" y1="846.3578" y2="637.9253"/>
    <line x1="331.8993" x2="533.6772" y1="639.5095" y2="847.942"/>
    <line x1="533.9499" x2="317.7594" y1="847.678" y2="624.3574"/>
    <line x1="318.8504" x2="535.0409" y1="623.3013" y2="846.6218"/>
    <line x1="534.7682" x2="304.1649" y1="846.8858" y2="608.6773"/>
    <line x1="303.6194" x2="534.2227" y1="609.2054" y2="847.4139"/>
    <line x1="534.4954" x2="289.4795" y1="847.1499" y2="594.0533"/>
    <polygon points="289.4795,594.0533 529.8587,851.6386 539.1322,842.6612"/>
    <polygon points="275.8947,548.2772 277.9779,544.2553 279.6551,540.0478 280.9103,535.6957 281.731,531.2413 282.1095,526.7277 282.0647,522.5757 281.5888,518.0713 280.6721,513.6356 279.3233,509.3117 277.7185,505.4821 275.5817,501.4883 273.0623,497.7242 270.1848,494.2263 266.977,491.0285 263.4701,488.1618 259.6982,485.6542 255.6978,483.5298 251.5078,481.8095 247.1689,480.5097 242.7231,479.6433 238.2136,479.2185 233.6842,479.2395 229.1789,479.7061 224.7413,480.6137 220.4146,481.9536 216.2407,483.7128 212.2602,485.8741 208.5117,488.4166 205.0315,491.3157 201.8535,494.5431 199.0086,498.0675 196.5242,501.8549 194.4245,505.8682 192.73,510.0688 191.457,514.4156 190.618,518.8667 190.221,523.3787 190.2699,527.9079 190.7642,532.4103 191.6992,536.8421 193.0657,541.1605 194.8505,545.3235 196.8394,548.9684 199.3742,552.7222 202.2661,556.2083 205.487,559.3929 209.0056,562.2451 212.7878,564.7372 216.7969,566.8451 220.9939,568.5483 225.3381,569.8302 229.7875,570.6784 234.2986,571.0846 238.8279,571.045 243.3313,570.5599 247.7651,569.6341 252.0863,568.2764 256.2529,566.5001 260.2245,564.3225 263.9625,561.7646 267.4307,558.8513 270.5954,555.6108 273.4259,552.0747"/>
    <polygon points="275.0513,534.5656 275.7655,530.8602 276.1442,526.727 276.1152,522.9535 275.673,518.8265 274.9018,515.1326 273.656,511.1734 272.0067,507.3645 270.1721,504.0669 268.035,500.9568 265.3576,497.7852 262.6502,495.1566 259.4009,492.574 255.9016,490.3419 252.535,488.6372 249.0229,487.2571 245.0286,486.1287 241.3135,485.4669 237.1753,485.1467 229.6545,485.6666 222.3647,487.5879 218.5481,489.2192 215.2419,491.0382 211.821,493.3888 208.9375,495.823 206.2962,498.518 203.6983,501.755 201.639,504.9172 199.7291,508.6023 197.2723,515.7295 196.5059,519.8087 196.1794,523.5681 196.2309,527.7184 196.6506,531.4685 197.518,535.5275 198.6676,539.1217 200.3169,542.9305 202.1515,546.2281 204.2886,549.3382 206.966,552.5098 209.9575,555.387 212.9227,557.721 216.0945,559.7654 219.7886,561.6579 223.3007,563.0379 227.295,564.1664 231.3847,564.875 235.1483,565.1483 242.6691,564.6285 246.3594,563.8399 250.3127,562.5754 253.7755,561.0759 257.4026,559.058 263.3861,554.4721 266.0274,551.7771 268.6253,548.54 270.6846,545.3779 272.5945,541.6928"/>
    <polygon points="278.1226,526.9787 278.0984,522.8276 277.6645,518.6991 276.8253,514.6336 275.5887,510.6708 273.9671,506.8495 271.9761,503.2068 269.6353,499.7786 266.9675,496.5981 263.9987,493.6965 260.758,491.1022 257.2771,488.8405 253.5899,486.9334 249.7324,485.3996 245.7423,484.2541 237.8987,483.1828 233.7476,483.2163 229.6201,483.6594 225.5565,484.5078 221.5965,485.7532 217.7788,487.3835 214.1407,489.3826 210.7177,491.7311 207.5432,494.4061 204.6483,497.3814 202.0613,500.6279 199.8074,504.1139 197.9086,507.8054 195.3339,515.2915 194.5604,519.37 194.1932,523.505 194.2361,527.656 194.6885,531.7824 195.546,535.8441 196.8003,539.8013 198.4391,543.6153 200.4465,547.249 202.8027,550.6667 205.4848,553.8351 208.4665,556.7233 211.7188,559.3031 218.5622,563.283 222.4127,564.8341 226.3976,565.9975 230.4778,566.7618 234.6136,567.1197 238.7644,567.0675 242.8899,566.6058 246.9496,565.7392 250.904,564.476 258.022,561.0111 261.4555,558.6779 264.6419,556.0173 267.5502,553.0551 270.1518,549.8202 272.4213,546.3444 274.3367,542.6614 276.945,535.1869 277.7369,531.112"/>
    <polygon points="276.0654,518.7637 275.1991,514.7006 274.0533,511.1016 272.5764,507.6253 270.585,503.9792 268.2297,500.5569 265.7938,497.6703 262.8162,494.7733 259.8639,492.4174 256.3783,490.1569 253.0231,488.4222 249.5207,487.0084 245.5344,485.8384 241.8234,485.1351 237.6855,484.7652 233.5314,484.8222 229.778,485.2439 226.0803,486.0142 222.1159,487.2561 218.2998,488.8984 214.9935,490.7244 211.5712,493.0796 208.6846,495.5155 206.0381,498.2103 203.4317,501.4454 201.1712,504.931 199.4365,508.2862 198.0227,511.7887 196.8527,515.7749 196.1493,519.4859 195.7795,523.6239 195.8365,527.7779 196.2582,531.5313 197.1245,535.5944 198.2703,539.1935 199.7472,542.6698 201.7386,546.3158 204.0939,549.7382 206.5298,552.6247 209.2246,555.2713 212.4597,557.8777 215.9453,560.1382 219.3005,561.8728 222.8029,563.2867 226.7892,564.4566 230.8745,565.2112 234.6381,565.5298 238.415,565.4957 242.5456,565.0512 246.6087,564.1849 250.2077,563.039 253.6841,561.5621 257.3301,559.5707 260.7524,557.2155 263.639,554.7795 266.5361,551.8019 268.8919,548.8496 270.9619,545.6903 272.8871,542.0089 274.4242,538.1492 275.4709,534.5201 276.2255,530.4348 276.5441,526.6712 276.4871,522.5172"/>
    <polygon points="292.0,494.2615 323.1988,340.8291 180.1054,311.7326 148.9066,465.165"/>
    <line x1="300.5408" x2="74.088" y1="500.6932" y2="400.6432"/>
    <polygon points="98.9533,301.7173 153.7983,327.3892 210.411,206.443 155.566,180.7711"/>
    <polygon points="226.1794,341.0216 306.8819,380.1264 423.2234,140.0268 342.5209,100.9219"/>
    <polygon points="225.7452,485.6909 222.1438,486.8223 218.6624,488.2815 215.0069,490.2505 211.5704,492.5808 208.6663,494.9925 205.7444,497.9425 203.1375,501.1741 200.8724,504.6539 199.1297,508.0025 197.5792,511.8542 196.5159,515.4763 195.7384,519.5549 195.3793,523.6914 195.4193,527.4661 195.8657,531.5941 196.7294,535.6554 197.8691,539.2541 199.3364,542.7322 201.3138,546.3831 203.652,549.8142 206.3268,552.99 209.0272,555.6277 212.2649,558.2272 215.4238,560.2939 219.1025,562.2192 222.601,563.637 226.5823,564.8157 230.6627,565.5838 234.8,565.9333 238.5746,565.8846 242.7016,565.4286 246.7608,564.5555 250.3569,563.4075 254.1712,561.7671 257.4779,559.9463 260.9036,557.6001 263.7965,555.175 266.7047,552.2116 269.2967,548.9679 271.5457,545.4776 273.4283,541.7769 274.8055,538.2622 275.9381,534.2676 276.6589,530.1786 276.9506,526.4149 276.8932,522.6405 276.4276,518.5146 275.6424,514.8222 274.3889,510.8639 272.7396,507.0535 270.9111,503.7509 268.7853,500.6315 266.1253,497.4434 263.1551,494.5421 259.9054,491.9576 256.41,489.7167 253.0494,487.9973 249.187,486.4736 245.5577,485.4355 241.4738,484.6863 237.7123,484.3685 233.5605,484.4221 229.8085,484.8367"/>
    <polygon points="222.6632,488.325 219.1828,489.7946 215.5376,491.7895 209.5299,496.3577 206.8834,499.0537 204.2868,502.298 200.5003,508.8266 198.0345,515.9596 196.9805,523.4328 197.019,527.588 197.4355,531.343 199.3392,538.6461 202.6066,545.4493 204.7157,548.5838 207.3719,551.7794 213.0062,556.8008 219.498,560.6501 223.3479,562.2139 226.9738,563.2749 234.4471,564.3288 238.6023,564.2903 242.3573,563.8739 249.6604,561.9701 253.4807,560.3352 256.786,558.5055 259.9,556.3663 263.0699,553.6794 268.0368,547.997 271.8233,541.4685 274.2891,534.3355 274.9963,530.6243 275.3578,526.4846 274.8881,518.9521 272.9844,511.649 271.5147,508.1686 269.5198,504.5233 267.3806,501.4094 264.6937,498.2395 259.0113,493.2726 252.4827,489.4861 248.9757,488.0811 244.9819,486.9334 237.4989,485.9515 229.9663,486.4212"/>
    <polygon points="208.5122,488.9149 205.0507,491.8398 201.8969,495.0939 199.0817,498.6452 196.6332,502.4585 194.7314,506.152 193.0499,510.3602 191.7945,514.7145 190.9778,519.172 190.6077,523.6886 190.688,528.2196 191.1566,532.3475 191.9992,536.4155 193.3364,540.7454 195.0971,544.9211 197.2637,548.9013 199.8149,552.6467 202.7254,556.1203 205.9664,559.2876 209.506,562.1174 212.983,564.391 216.9947,566.4988 221.1959,568.1978 225.545,569.4712 229.9991,570.3064 234.5141,570.6952 239.0454,570.6337 243.5482,570.1225 247.978,569.1666 252.2909,567.7756 256.4444,565.9632 260.3974,563.7473 263.8114,561.3802 267.2729,558.4553 270.4267,555.2011 273.2419,551.6499 275.501,548.1635 277.5922,544.1431 279.2737,539.9349 280.5291,535.5805 281.3458,531.123 281.7159,526.6064 281.6595,522.4525 281.167,517.9476 280.2295,513.5139 278.9872,509.5497 277.2265,505.3739 275.0599,501.3937 272.5087,497.6483 269.5982,494.1748 266.3572,491.0074 262.8176,488.1776 259.0145,485.7133 254.9855,483.6388 250.7704,481.9747 246.4108,480.7374 241.95,479.9391 237.8095,479.5999 233.2782,479.6614 228.7754,480.1726 224.3456,481.1284 220.3866,482.3872 216.2182,484.1651 212.247,486.3482"/>
    <polygon points="207.9611,488.3357 204.5016,491.265 201.3447,494.5181 198.5205,498.0639 196.056,501.8685 193.9747,505.8955 192.2966,510.1065 191.0376,514.4613 190.2098,518.9181 189.8212,523.4345 189.8753,527.9672 190.3718,532.473 191.3058,536.9088 192.6685,541.2322 194.4467,545.402 196.6236,549.3781 199.1783,553.1227 202.0864,556.6 205.3202,559.7768 208.8486,562.6226 212.6381,565.1103 216.6523,567.2162 220.853,568.92 225.1999,570.2056 229.6516,571.0606 234.1656,571.4768 238.6985,571.4504 243.2073,570.9815 247.6487,570.0746 251.9804,568.7384 256.1609,566.9856 260.4729,564.6363 264.2123,562.0739 267.6836,559.1587 270.8538,555.9185 273.6924,552.3843 276.1724,548.5898 278.2701,544.5713 279.9654,540.3671 281.2421,536.0176 282.088,531.5641 282.4951,527.0494 282.4594,522.5165 281.9813,518.0087 281.0654,513.5691 279.7203,509.2402 277.9591,505.0633 275.7984,501.0783 273.259,497.3233 270.365,493.8342 267.1443,490.6443 263.6274,487.7841 259.8482,485.2809 255.8425,483.1588 251.6489,481.4378 247.3072,480.1345 242.859,479.2614 238.3468,478.8267 233.4364,478.8554 228.9296,479.3427 224.1266,480.3643 219.8116,481.7533 215.6528,483.557 211.69,485.7582"/>
    <polygon points="203.5444,496.23 200.9399,499.4661 198.6553,502.9353 196.7113,506.6063 195.1255,510.4457 193.821,514.7851 192.9741,519.2365 192.6075,523.3742 192.6587,527.9052 193.1188,532.0336 194.0662,536.4647 195.3345,540.4202 196.9737,544.2371 199.1671,548.2021 201.5296,551.6188 204.2065,554.7951 207.1737,557.7023 210.7098,560.5356 214.1939,562.7976 217.8774,564.7177 221.727,566.2785 226.0748,567.5548 230.1572,568.3224 234.2941,568.6979 238.8252,568.6565 242.9546,568.2054 247.0223,567.3633 251.346,566.0078 255.1664,564.3769 259.1361,562.1921 262.558,559.837 265.7401,557.167 268.9042,553.9234 271.4947,550.6761 273.7642,547.197 275.85,543.1743 277.3857,539.3147 278.5471,535.3264 279.3235,531.2457 279.708,527.1096 279.6764,522.5784 279.2343,518.4481 278.401,514.3786 277.0549,510.0519 275.4323,506.228 273.4531,502.5758 270.9084,498.8266 268.2452,495.6387 265.2907,492.7187 262.0717,490.0933 258.6173,487.7862 254.6175,485.6569 250.7747,484.0795 246.4325,482.7844 241.9793,481.9471 237.8407,481.5895 233.687,481.6275 229.5557,482.0606 225.4844,482.8851 221.1548,484.2219 217.3273,485.8362 213.3482,488.0038 209.9162,490.344 206.445,493.2566"/>
    <polygon points="199.8633,498.9196 197.3992,502.7212 195.4883,506.4086 193.9272,510.2571 192.6389,514.6004 191.796,519.0516 191.4221,523.1878 191.453,527.718 191.9415,532.2219 192.8825,536.6534 194.2664,540.9672 196.0791,545.1191 198.1016,548.7464 200.6806,552.471 203.3644,555.6404 206.3303,558.5476 209.8574,561.3906 213.6538,563.8628 217.6805,565.9388 221.8963,567.5973 225.8901,568.7362 230.3466,569.551 234.4851,569.8988 238.638,569.8616 243.1429,569.3827 247.5764,568.451 251.8931,567.0762 255.7097,565.4385 259.6804,563.2574 263.1097,560.9148 266.5855,558.0091 269.4989,555.0494 272.3494,551.5283 274.6376,548.0624 276.7559,544.0579 278.4588,539.8597 279.7288,535.5111 280.5529,531.0563 280.9227,526.5411 280.8594,522.3886 280.3519,517.8867 279.4892,513.8242 278.1235,509.5047 276.3283,505.3452 274.3212,501.7094 271.7579,497.974 268.8303,494.5166 265.8522,491.622 262.3131,488.7938 258.8329,486.5275 254.815,484.4346 250.6062,482.7583 246.2496,481.5159 242.1642,480.769 237.6498,480.3896 233.4971,480.4443 228.9942,480.9422 224.5647,481.8926 220.6075,483.1529 216.4442,484.9393 212.4828,487.1372 209.0633,489.4942 205.5998,492.4145 202.4491,495.6698"/>
    <polygon points="201.1009,509.4271 198.7911,516.2128 197.7656,523.687 198.2203,531.2174 200.1376,538.5139 203.4437,545.2951 208.011,551.2996 213.6634,556.296 220.1832,560.0916 227.319,562.5401 234.7956,563.5472 242.3249,563.074 249.6167,561.1387 256.3897,557.8161 262.383,553.234 267.3654,547.5693 271.145,541.0401 273.576,533.8984 274.5647,526.4193 274.073,518.8912 272.1198,511.6042 268.7805,504.8394 264.1837,498.8574 258.5067,493.8889 251.9684,490.1254 244.8207,487.7119 237.3392,486.7416 229.8123,487.2518 222.5302,489.2229 215.7735,492.5789 209.8029,497.1903 204.8483,502.8795"/>
    <polygon points="201.6202,512.6899 176.7074,591.9771 218.8516,593.9929"/>
    <polygon points="195.753,511.0556 194.5774,515.0383 193.7934,519.1162 193.3932,523.6283 193.4473,527.7805 193.9036,531.908 194.7578,535.9718 196.0018,539.9337 197.7896,544.0957 199.8067,547.7255 202.1661,551.1428 204.8456,554.3152 207.8199,557.213 211.0611,559.809 214.5387,562.0785 218.2198,564.0004 222.427,565.6792 226.4199,566.8195 230.5046,567.5675 234.6426,567.9161 238.7948,567.862 242.9223,567.4057 246.9861,566.5516 250.948,565.3076 254.7706,563.6854 258.7398,561.5026 262.157,559.1432 265.3295,556.4637 268.2273,553.4894 270.8232,550.2482 273.0928,546.7707 275.0146,543.0895 276.5706,539.2395 277.8338,534.8894 278.5818,530.8047 278.9304,526.6668 278.8763,522.5145 278.42,518.3871 277.5658,514.3232 276.1898,510.0075 274.534,506.1993 272.5169,502.5695 270.1575,499.1523 267.478,495.9799 264.5037,493.082 261.2625,490.4861 257.7849,488.2165 254.1038,486.2947 249.8966,484.6159 245.9037,483.4755 241.819,482.7276 237.681,482.379 233.5288,482.4331 229.4013,482.8893 225.3375,483.7435 221.0218,485.1196 217.2136,486.7754 213.5838,488.7925 210.1666,491.1518 206.9941,493.8313 204.0963,496.8057 201.5004,500.0469 199.2308,503.5244 197.309,507.2055"/>
    <polygon points="195.3801,519.25 194.9938,523.3818 195.0249,527.5314 195.4733,531.6569 196.3344,535.7163 197.468,539.3148 199.0891,543.1348 201.0863,546.7724 203.4392,550.1906 206.124,553.3549 208.8298,555.984 212.07,558.5767 215.5545,560.8303 218.9045,562.5656 222.7556,564.1116 226.7426,565.2624 230.8251,566.0064 234.9618,566.3359 239.1106,566.2478 242.8574,565.8058 246.5481,565.0229 250.5061,563.7761 254.3187,562.1374 257.947,560.1236 261.0548,557.9845 264.2313,555.3142 267.1231,552.338 269.7009,549.086 271.7499,545.918 273.6585,542.2333 275.064,538.7321 276.2331,534.7504 276.9958,530.6713 277.3443,526.5362 277.2751,522.387 276.8503,518.6382 275.9892,514.5787 274.7242,510.6265 273.0682,506.8215 271.2373,503.5227 268.8844,500.1044 266.1996,496.9402 263.4938,494.3111 260.2536,491.7184 256.7691,489.4647 253.0756,487.573 249.568,486.1835 245.581,485.0327 241.4985,484.2887 237.739,483.9719 233.5896,484.022 229.8388,484.4297 225.7755,485.2721 221.8175,486.519 218.3445,487.9929 214.6978,489.9734 211.2688,492.3106 208.3698,494.725 205.4508,497.6746 202.8433,500.9029 200.7655,504.0519 198.8232,507.7191 197.2596,511.563 196.0905,515.5447"/>
    <polygon points="192.2421,527.5934 192.7263,532.0964 193.5749,536.1605 194.933,540.4809 196.7281,544.6388 198.7414,548.2698 201.088,551.6948 204.0035,555.1604 207.2599,558.3079 210.515,560.885 213.9985,563.1438 217.6795,565.0641 221.5251,566.6288 225.8678,567.9139 230.3197,568.7456 234.4561,569.1022 238.9846,569.0447 243.1106,568.583 247.5399,567.6383 251.4952,566.3763 255.3139,564.7471 259.2841,562.5679 263.0091,559.9922 266.1747,557.3058 269.0728,554.333 271.8993,550.7943 274.158,547.3108 276.2355,543.2865 277.7671,539.4276 278.9281,535.4415 279.7082,531.3637 280.1165,526.8532 280.0815,522.7016 279.5973,518.1987 278.7487,514.1346 277.3906,509.8141 275.7613,505.9954 273.5822,502.0253 271.0064,498.3002 268.3201,495.1347 265.3472,492.2365 261.8086,489.4101 258.3251,487.1513 254.6441,485.231 250.7985,483.6663 246.4558,482.3812 242.3779,481.6012 237.8675,481.1928 233.339,481.2504 229.213,481.7121 225.1489,482.5607 221.1829,483.7886 217.0097,485.548 213.3616,487.53 209.6146,490.0738 206.4261,492.7328 203.2508,495.9621 200.6458,499.1949 198.3572,502.6589 196.2453,506.6652 194.6806,510.5109 193.3955,514.8536 192.5637,519.3054 192.2071,523.4418"/>
    <polygon points="196.3239,544.7177 198.3286,548.3574 200.6649,551.7936 203.5675,555.2749 206.8101,558.4421 210.0523,561.041 213.8491,563.5167 217.535,565.4351 221.741,567.1247 225.7297,568.2894 230.184,569.1284 234.3231,569.4946 238.4783,569.4722 242.9868,569.0049 247.0582,568.1744 251.3896,566.8388 255.5622,565.0683 259.5325,562.8816 262.9588,560.5307 266.4277,557.6132 269.3311,554.6407 272.1661,551.104 274.6256,547.2967 276.5283,543.6027 278.0772,539.7469 279.3476,535.3959 280.1677,530.938 280.5163,526.7975 280.4533,522.2652 279.9897,518.1359 279.1419,514.0681 277.7879,509.7424 275.9997,505.5774 273.995,501.9377 271.4306,498.2002 268.7561,495.0201 265.7959,492.1041 262.2713,489.2541 258.4745,486.7784 254.7886,484.86 250.5826,483.1703 246.2263,481.9185 242.1396,481.1667 237.6229,480.7864 233.091,480.8687 228.9637,481.3499 224.8995,482.2149 220.5796,483.5874 216.4222,485.3933 212.7911,487.4135 209.3648,489.7644 205.8959,492.6818 202.9925,495.6544 200.1575,499.1911 197.698,502.9984 195.7953,506.6924 194.2464,510.5482 192.976,514.8992 192.1559,519.357 191.8073,523.4976 191.8703,528.0298 192.3339,532.1591 193.1817,536.227 194.5357,540.5527"/>
    <polygon points="200.0336,547.3366 202.3789,550.7662 205.0487,553.9498 208.0172,556.8569 211.256,559.4594 214.734,561.7323 218.4177,563.654 222.2719,565.2059 226.2594,566.3731 230.3421,567.1443 234.4806,567.5123 238.6353,567.4734 242.7662,567.0281 246.8337,566.1806 250.7987,564.939 254.6232,563.3153 258.2703,561.3251 261.7052,558.9874 264.8947,556.3248 267.8083,553.3627 270.418,550.1297 272.6988,546.6568 274.6286,542.9774 276.1891,539.1267 277.3652,535.1417 278.1455,531.0608 278.5227,526.9231 278.4702,522.3912 277.9973,518.2633 277.1226,514.2016 275.8546,510.245 274.2053,506.4315 272.1907,502.7977 269.8302,499.3785 267.1463,496.2069 264.1648,493.3131 260.9145,490.7251 257.4264,488.4676 253.7341,486.5624 249.8731,485.0277 245.8804,483.8783 241.7943,483.1252 237.6542,482.7757 233.4997,482.8331 229.3708,483.2968 225.3072,484.1624 221.3477,485.4217 217.5305,487.0624 213.8923,489.0689 210.4679,491.4218 207.2902,494.0986 204.3898,497.0736 201.7946,500.3182 199.5293,503.8013 197.6159,507.4893 196.0726,511.3469 194.9143,515.337 194.1521,519.4214 193.7934,523.5607 193.8415,527.7153 194.296,531.8452 195.1526,535.9108 196.403,539.8731 198.0353,543.6939"/>
    <polygon points="222.6148,564.4834 226.6046,565.6382 234.4516,566.7157 238.605,566.679 242.7339,566.2284 246.7974,565.3684 250.7549,564.1075 257.8741,560.6357 264.2064,555.8775 267.1308,552.928 269.7465,549.7016 272.0274,546.2305 273.9509,542.5492 275.4977,538.6945 276.6525,534.7048 277.7299,526.8577 277.6933,522.7044 277.2427,518.5754 276.3827,514.5119 275.1217,510.5545 271.6499,503.4352 269.3081,500.0048 266.6359,496.8251 263.66,493.9276 260.41,491.3413 256.9183,489.092 253.2197,487.202 245.719,484.6569 237.872,483.5794 233.7186,483.616 229.5897,484.0666 225.5262,484.9267 221.5687,486.1876 214.4495,489.6594 211.0191,492.0012 207.8393,494.6734 202.5771,500.5934 198.5323,507.4034 196.9505,511.244 195.7596,515.2231 194.9714,519.3011 194.5937,523.4374 194.6303,527.5907 195.0809,531.7197 195.9409,535.7831 197.2019,539.7406 200.6737,546.8599 205.4318,553.1921 208.3813,556.1165 211.6077,558.7322 215.0788,561.0131 218.7601,562.9366"/>
    <polygon points="221.0079,569.3942 225.3604,570.6529 230.1886,571.5342 234.7051,571.8945 239.2352,571.8161 243.7365,571.2998 248.1667,570.3503 252.4843,568.9766 256.9875,567.0247 260.9419,564.8131 264.6637,562.2292 268.118,559.2973 271.2724,556.0449 274.0973,552.5026 276.5662,548.7036 278.656,544.6834 280.3469,540.48 281.6231,536.1326 282.4727,531.6822 282.9026,526.793 282.8424,522.2626 282.3443,517.7592 281.4126,513.3252 280.0564,509.0022 278.1227,504.4911 275.9271,500.5278 273.3582,496.7956 270.4403,493.3295 267.2007,490.162 263.6698,487.3228 259.8808,484.8385 255.8691,482.7326 251.6726,481.0247 247.3304,479.7309 242.5094,478.8106 237.996,478.4138 233.4654,478.4556 228.9601,478.9356 224.5223,479.8493 220.1938,481.1881 216.0152,482.9395 211.7029,485.2832 207.9603,487.8369 204.4824,490.7408 201.0512,494.2501 198.2263,497.7925 195.7574,501.5915 193.6676,505.6116 191.9767,509.8151 190.6132,514.5299 189.7996,518.9871 189.421,523.5021 189.4812,528.0325 189.9794,532.5358 190.911,536.9698 192.2672,541.2929 194.2009,545.804 196.3965,549.7672 199.1955,553.7989 202.1413,557.2414 205.4064,560.3826 208.9601,563.1932 212.7691,565.6468 216.7976,567.7202"/>
    <polygon points="230.1348,569.9238 234.6469,570.3022 239.1743,570.227 243.299,569.7603 247.3633,568.9169 251.6882,567.5759 255.8571,565.8087 259.8282,563.6331 263.2605,561.2985 266.743,558.4045 269.9183,555.1765 272.7545,551.6468 275.2232,547.8509 277.2995,543.827 278.8403,539.9726 280.1099,535.6262 280.8861,531.5485 281.3022,527.0396 281.2649,522.5118 280.7745,518.0104 279.8361,513.5807 278.459,509.2672 276.657,505.1131 274.6473,501.4811 272.0851,497.7477 269.4188,494.5664 266.1907,491.3911 262.661,488.5548 258.8652,486.0861 254.8413,484.0098 250.6298,482.3467 246.6405,481.1995 242.5627,480.4232 238.0539,480.0071 233.526,480.0444 229.0246,480.5348 224.5949,481.4732 220.2814,482.8504 216.1274,484.6524 212.4954,486.662 208.762,489.2242 205.5806,491.8905 202.4053,495.1186 199.5691,498.6483 197.1004,502.4442 195.0241,506.468 193.3609,510.6796 192.2137,514.6689 191.3856,519.1205 191.0214,523.2554 191.0587,527.7833 191.5491,532.2847 192.4875,536.7144 193.8646,541.0279 195.6666,545.1819 197.6763,548.814 200.2385,552.5473 202.9048,555.7287 206.1329,558.904 209.6626,561.7402 213.4584,564.2089 217.4823,566.2853 221.6938,567.9484 225.6831,569.0956"/>
    <polygon points="262.5408,553.6299 267.549,547.9936 269.6192,544.8377 271.5305,541.1523 273.9572,534.0136 274.9582,526.5405 274.4957,519.0149 272.5873,511.7205 269.3048,504.9327 264.7721,498.9074 261.8065,496.0022 258.855,493.6496 252.3384,489.8571 248.8349,488.453 244.844,487.3095 237.3661,486.3448 229.8428,486.8439 222.5578,488.7878 215.786,492.1032 209.7828,496.6651 206.8921,499.6449 204.5539,502.6078 200.7931,509.1427 198.3664,516.2814 197.3654,523.7545 197.8279,531.2802 199.7363,538.5745 203.0188,545.3624 205.1385,548.4854 207.808,551.6647 213.4686,556.6454 219.9852,560.438 223.8462,561.9636 227.4796,562.9856 234.9575,563.9502 242.4808,563.4512 249.7658,561.5073 256.5376,558.1918"/>
    <polygon points="245.74,486.7066 241.6631,485.9152 237.9032,485.5696 233.7503,485.6048 229.9968,486.014 225.9339,486.8744 222.3368,488.0219 215.5508,491.3152 212.4236,493.431 209.2337,496.0903 204.2144,501.7208 200.3533,508.2006 198.776,512.0424 197.6982,515.661 196.9164,519.7398 196.5798,523.5005 196.6028,527.2762 197.043,531.4058 198.9383,538.7067 200.5622,542.529 202.3786,545.8391 206.9128,551.8672 209.5893,554.5303 212.8113,557.1506 216.2899,559.4193 219.6428,561.1554 226.767,563.6337 230.4736,564.3532 234.6091,564.7333 242.1401,564.3101 245.8413,563.563 249.8097,562.3387 256.6113,559.0778 262.6716,554.5869 265.3538,551.9294 267.9971,548.7263 270.0972,545.5885 272.0506,541.9236 273.4847,538.4308 274.6702,534.4506 275.4325,530.3681 275.7512,526.6059 275.31,519.0759 274.4592,515.0109 273.3203,511.4111 270.0432,504.6172 265.5379,498.5676 262.5939,495.6384 259.6646,493.2561 256.5218,491.1635 252.8522,489.2188"/>
    <polygon points="250.2775,484.3262 246.2943,483.1599 242.2176,482.3812 238.085,481.9974 233.9346,482.012 229.4317,482.4821 225.0028,483.421 221.0494,484.6846 217.2356,486.3219 213.5966,488.3176 210.1659,490.6534 206.9752,493.3077 204.054,496.256 201.2062,499.7756 198.9324,503.2477 197.0024,506.922 195.3097,511.1211 194.1521,515.1068 193.3823,519.1852 192.9932,523.6958 193.0532,527.8457 193.5112,531.9708 194.4597,536.3977 195.732,540.3483 197.3776,544.1585 199.3813,547.7932 201.9537,551.5187 204.6427,554.6802 207.6227,557.569 210.8663,560.1585 214.3433,562.4247 218.0219,564.3467 221.8679,565.9068 226.2128,567.1791 230.6671,567.9896 234.8044,568.3192 238.9542,568.2501 243.0782,567.7831 247.1384,566.9225 251.0972,565.6761 254.9182,564.0555 258.5659,562.0757 262.0068,559.7549 265.4873,556.8595 268.3956,553.8985 271.0062,550.672 273.4865,546.8845 275.4005,543.2018 276.9522,539.3523 278.1272,535.3718 278.9148,531.2968 279.3076,527.165 279.3021,523.0146 278.8418,518.5107 278.0078,514.445 276.7874,510.4781 275.1919,506.6466 273.0409,502.6628 270.7126,499.227 267.8096,495.7529 264.8422,492.851 261.6101,490.2474 257.8172,487.7754 254.1303,485.8695"/>
    <line x1="365.8822" x2="67.8044" y1="616.6027" y2="526.6384"/>
    <line x1="145.6858" x2="156.2307" y1="699.9735" y2="726.922"/>
    <line x1="161.4714" x2="150.9264" y1="724.8714" y2="697.9228"/>
    <line x1="150.5771" x2="171.6669" y1="698.0595" y2="751.9566"/>
    <line x1="167.125" x2="146.0351" y1="753.7339" y2="699.8367"/>
    <line x1="146.3845" x2="178.0193" y1="699.7" y2="780.5458"/>
    <line x1="181.8624" x2="150.2277" y1="779.0419" y2="698.1962"/>
    <line x1="149.8783" x2="192.058" y1="698.3329" y2="806.1272"/>
    <line x1="188.9136" x2="146.7339" y1="807.3576" y2="699.5633"/>
    <line x1="147.0833" x2="199.8079" y1="699.4266" y2="834.1695"/>
    <line x1="202.2535" x2="149.5289" y1="833.2125" y2="698.4696"/>
    <line x1="149.1796" x2="212.4491" y1="698.6063" y2="860.2978"/>
    <line x1="210.7022" x2="147.4327" y1="860.9813" y2="699.2899"/>
    <line x1="147.782" x2="221.5965" y1="699.1532" y2="887.7932"/>
    <line x1="222.6446" x2="148.8302" y1="887.3831" y2="698.7431"/>
    <line x1="148.4808" x2="232.8401" y1="698.8798" y2="914.4684"/>
    <line x1="232.4908" x2="148.1314" y1="914.6051" y2="699.0165"/>
    <polygon points="262.1966,698.9301 256.3861,770.8044 311.1907,775.235 317.0012,703.3607"/>
    <polygon points="315.6041,706.7607 313.354,711.5428 311.5738,716.5189 310.28,721.6431 309.447,727.2437 309.1936,732.5226 309.4863,738.1772 310.3595,743.7716 311.6901,748.8864 313.6539,754.1971 315.9711,758.947 318.734,763.4523 321.917,767.6712 325.4907,771.5648 329.7155,775.3345 334.306,778.6493 338.8773,781.3016 343.6823,783.5023 348.6765,785.2311 353.8138,786.472 359.4226,787.2472 364.7039,787.4461 369.9798,787.1366 375.2016,786.3216 380.6813,784.8961 385.9853,782.914 390.7272,780.5805 395.223,777.8022 399.431,774.6047 403.576,770.7473 407.0674,766.7798 410.1614,762.4952 412.8293,757.933 415.1871,752.7851 416.8988,747.7849 418.122,742.6435 418.8455,737.4082 419.0626,732.1277 418.731,726.4752 417.8981,721.2563 416.5675,716.1415 414.7515,711.1783 412.2865,706.0809 409.5236,701.5756 406.3406,697.3567 402.4975,693.1984 398.542,689.6934 394.268,686.5847 389.7151,683.9011 384.9253,681.6674 379.9431,679.9043 374.4438,678.5559 369.2111,677.8144 363.5537,677.5818 358.2778,677.8913 353.056,678.7063 347.9367,680.0193 342.9673,681.8182 337.8614,684.2657 333.3467,687.013 329.1168,690.1815 325.211,693.7418 321.4268,697.9537 318.3034,702.217"/>
    <line x1="372.3512" x2="582.9889" y1="645.5404" y2="841.8547"/>
    <polygon points="612.1728,768.0692 538.7938,958.6126 542.7912,960.1042"/>
    <polygon points="541.7422,689.5944 454.4248,698.4413 461.0418,763.7503 548.3592,754.9034"/>
    <line x1="480.3933" x2="689.6858" y1="620.4108" y2="306.7369"/>
    <line x1="605.668" x2="664.2058" y1="374.0238" y2="436.1037"/>
    <line x1="663.9277" x2="590.7554" y1="436.366" y2="358.7661"/>
    <line x1="585.7489" x2="658.9211" y1="363.487" y2="441.0869"/>
    <line x1="658.643" x2="600.1052" y1="441.3492" y2="379.2693"/>
    <line x1="614.4615" x2="658.3649" y1="395.0515" y2="441.6114"/>
    <line x1="658.0867" x2="628.8178" y1="441.8737" y2="410.8338"/>
    <line x1="635.4932" x2="664.7621" y1="404.5392" y2="435.5792"/>
    <line x1="664.484" x2="620.5806" y1="435.8415" y2="389.2815"/>
    <line x1="650.4058" x2="665.0403" y1="419.7969" y2="435.3169"/>
    <polygon points="665.3184,435.0546 456.5421,221.4468 657.5304,442.3983"/>
    <line x1="663.6495" x2="575.8429" y1="436.6283" y2="343.5084"/>
    <line x1="571.3926" x2="659.1993" y1="347.7048" y2="440.8246"/>
    <line x1="659.4774" x2="557.0363" y1="440.5624" y2="331.9225"/>
    <line x1="560.9303" x2="663.3714" y1="328.2507" y2="436.8906"/>
    <line x1="663.0933" x2="546.0177" y1="437.1528" y2="312.993"/>
    <line x1="542.68" x2="659.7556" y1="316.1403" y2="440.3001"/>
    <line x1="660.0337" x2="528.3237" y1="440.0378" y2="300.358"/>
    <line x1="531.1051" x2="662.8151" y1="297.7353" y2="437.4151"/>
    <line x1="662.537" x2="516.1925" y1="437.6774" y2="282.4776"/>
    <line x1="513.9674" x2="660.3118" y1="284.5758" y2="439.7755"/>
    <line x1="660.59" x2="499.611" y1="439.5133" y2="268.7936"/>
    <line x1="501.2799" x2="662.2588" y1="267.2199" y2="437.9396"/>
    <line x1="661.9807" x2="486.3673" y1="438.2019" y2="251.9622"/>
    <line x1="485.2547" x2="660.8681" y1="253.0113" y2="439.251"/>
    <line x1="661.1463" x2="470.8984" y1="438.9887" y2="237.2291"/>
    <line x1="471.4547" x2="661.7026" y1="236.7045" y2="438.4642"/>
    <line x1="661.4244" x2="456.5421" y1="438.7265" y2="221.4468"/>
    <polygon points="518.0421,264.9433 513.4019,269.3595 509.6921,274.5817 506.9298,280.7749 505.523,287.0243 505.3649,293.8038 506.5821,300.475 508.9498,306.4272 512.4122,311.8166 517.1289,316.6889 522.734,320.5059 528.6348,322.9988 535.2787,324.3568 541.6845,324.3791 547.9763,323.1759 553.9217,320.7914 559.5957,317.0777 564.1602,312.5833 567.7808,307.2988 570.4376,301.0596 571.7767,294.4118 571.781,288.006 570.5599,281.7177 568.1586,275.779 564.4288,270.1155 559.9215,265.5638 554.6268,261.9582 548.7403,259.4318 542.4791,258.0781 536.0747,257.947 529.7634,259.0432 523.4412,261.4961"/>
    <polygon points="580.8023,210.2866 582.0375,212.6115 583.4721,214.3547 585.2026,215.8047 587.1701,216.912 589.6752,217.7211 591.9187,217.974 594.1704,217.8103 596.7057,217.101 598.7155,216.0726 600.7737,214.4312 602.2237,212.7007 603.4794,210.3869 604.1402,208.2281 604.393,205.9846 604.2293,203.7329 603.52,201.1977 602.4916,199.1879 600.8502,197.1296 599.1197,195.6796 597.1523,194.5723 594.6471,193.7632 592.4037,193.5103 590.1519,193.6741 587.6167,194.3833 585.6069,195.4117 583.5486,197.0531 581.8891,199.0968 580.8429,201.0974 580.1822,203.2562 579.9294,205.4997 580.1607,208.1221"/>
    <polygon points="580.8165,203.1691 580.5331,205.4082 580.6875,207.6599 581.2738,209.8394 582.2699,211.8647 583.8992,213.9314 585.6361,215.3727 587.6186,216.4514 589.7721,217.127 592.0156,217.3741 594.2645,217.1833 596.4342,216.5618 598.4431,215.533 600.2155,214.1356 601.6847,212.4223 602.9426,210.1107 603.5832,207.9465 603.7939,205.6994 603.5667,203.4539 602.9102,201.2945 601.849,199.3025 600.4231,197.5529 598.6862,196.1117 596.7037,195.0329 594.5502,194.3573 592.3068,194.1102 590.0579,194.301 587.8881,194.9225 585.8792,195.9513 584.1068,197.3487 582.6376,199.062 581.5269,201.0268"/>
    <polygon points="588.0689,215.9865 590.2388,216.6048 592.1124,216.7735 594.3578,216.5527 596.1627,216.0223 598.1705,214.9931 599.927,213.577 601.1453,212.1436 602.2598,210.1818 602.9519,208.0343 603.1925,205.7909 602.9717,203.5455 602.4413,201.7406 601.4121,199.7328 599.996,197.9763 598.2521,196.5447 596.2534,195.4978 594.0836,194.8795 592.2099,194.7108 589.9645,194.9316 587.811,195.6047 585.8395,196.7018 584.3953,197.9073 582.9637,199.6512 581.9168,201.6499 581.2985,203.8198 581.1298,205.6934 581.2819,207.5684 581.8811,209.7437 582.9102,211.7515 584.3263,213.508 586.0702,214.9396"/>
    <polygon points="594.4475,218.3725 596.977,217.6401 599.3038,216.4068 601.3299,214.7247 602.7623,212.9788 604.016,210.663 604.695,208.5093 604.9959,205.8931 604.8237,203.6414 604.1285,201.1015 602.9296,198.7568 601.2774,196.7062 599.2414,195.036 596.9075,193.8163 594.3738,193.0987 592.1237,192.9066 589.8748,193.1118 587.3453,193.8442 585.0185,195.0775 582.9924,196.7596 581.5601,198.5055 580.3063,200.8213 579.5516,203.3442 579.3276,205.968 579.5658,208.2137 580.3352,210.7322 581.6025,213.0406 583.045,214.7781 585.0809,216.4484 587.4148,217.668 589.9486,218.3856 592.1986,218.5777"/>
    <line x1="584.0656" x2="453.5961" y1="417.5302" y2="860.9956"/>
    <polygon points="295.9512,883.1012 312.6655,859.5012 263.6936,824.8177 246.9793,848.4177"/>
    <polygon points="256.2056,904.8879 259.9137,909.6597 263.8242,913.7597 268.1166,917.4579 272.7499,920.719 277.6796,923.5118 282.8586,925.8096 288.2373,927.5902 293.7643,928.8368 299.3867,929.5374 305.0506,929.6852 310.7019,929.2789 316.2864,928.3224 321.7507,926.8247 327.0425,924.8003 332.1112,922.2684 336.9082,919.2535 341.3877,915.7842 345.5068,911.8938 349.226,907.6195 352.5097,903.0023 355.3266,898.0863 357.6497,892.9186 359.5583,887.1847 360.7959,881.6557 361.4873,876.0322 361.6259,870.368 361.2103,864.7175 360.2447,859.1345 358.7381,853.6726 356.705,848.3841 354.1649,843.3196 351.1421,838.5275 347.6655,834.0536 343.7684,829.9409 339.4881,826.2287 334.8656,822.9525 329.945,820.1436 324.7735,817.829 319.4006,816.0308 313.8777,814.7662 307.8808,814.019 302.2165,813.8896 296.5666,814.3143 290.9852,815.2891 285.5258,816.8046 280.2406,818.8463 275.1802,821.3946 270.393,824.4253 265.9249,827.9091 261.8185,831.8129 258.1133,836.0993 254.8446,840.7272 252.0438,845.6524 249.7376,850.8276 247.9482,856.2035 246.6926,861.7284 245.9828,867.3496 245.8258,873.0133 246.2229,878.6652 247.1703,884.2513 248.6591,889.718 250.6749,895.0131 253.1984,900.0859"/>
    <polygon points="237.9379,928.011 151.2758,697.7861 145.3364,700.1102"/>
    <polygon points="181.264,872.9452 183.1045,869.2286 184.1802,865.2233 184.4491,861.0847 183.9008,856.9738 182.5567,853.0504 180.4689,849.4669 177.7187,846.3626 174.4129,843.8583 170.6801,842.0512 166.6652,841.0115 162.5244,840.7798 158.7861,841.2783 154.8508,842.5872 151.2487,844.6427 148.1199,847.3649 145.586,850.6481 143.7454,854.3646 142.6698,858.37 142.4009,862.5085 142.9491,866.6194 144.2932,870.5429 146.381,874.1264 149.1312,877.2306 152.437,879.735 156.1699,881.5421 160.1847,882.5817 164.3256,882.8135 168.0638,882.3149 171.9991,881.0061 175.6012,878.9506 178.73,876.2283"/>
    <line x1="448.5038" x2="725.8964" y1="651.4683" y2="1021.5978"/>
    <line x1="657.8086" x2="643.1741" y1="442.136" y2="426.616"/>
  </g>
</svg>
