<?xml version="1.0" encoding="utf-8" ?>
<svg xmlns="http://www.w3.org/2000/svg" xmlns:cc="http://creativecommons.org/ns" xmlns:dc="http://purl.org/dc/elements/1.1/" xmlns:ev="http://www.w3.org/2001/xml-events" xmlns:inkscape="http://www.inkscape.org/namespaces/inkscape" xmlns:rdf="http://www.w3.org/1999/02/22-rdf-syntax-ns" xmlns:sodipodi="http://sodipodi.sourceforge.net/DTD/sodipodi-0.dtd" xmlns:xlink="http://www.w3.org/1999/xlink" baseProfile="tiny" height="29.7cm" version="1.2" viewBox="0 0 793.7007874015749 1122.5196850393702" width="21.0cm">
  <metadata>
    <rdf:RDF>
      <cc:Work>
        <dc:format>image/svg+xml</dc:format>
        <dc:source>Vsketch with params {'__seed__': 1865002019, 'debug_show_shapes': False, 'debug_draw': False, 'occult': False, 'scale': 1.0, 'area_type': 'RECT', 'width': 12.0, 'height': 19.0, 'num_circ_min': 2, 'num_circ_max': 10, 'circ_rad_min': 0.5, 'circ_rad_max': 2.0, 'num_circ_shaded_min': 0, 'num_circ_shaded_max': 0, 'circ_shaded_rad_min': 0.05, 'circ_shaded_rad_max': 0.5, 'circ_shaded_fill_dist_min': 0.05, 'circ_shaded_fill_dist_max': 0.2, 'num_circ_fill_min': 0, 'num_circ_fill_max': 0, 'circ_fill_rad_min': 0.05, 'circ_fill_rad_max': 0.5, 'num_circ_dash_min': 0, 'num_circ_dash_max': 0, 'circ_dash_rad_min': 0.05, 'circ_dash_rad_max': 0.5, 'num_circ_dot_min': 0, 'num_circ_dot_max': 0, 'circ_dot_rad_min': 0.05, 'circ_dot_rad_max': 0.5, 'circ_dot_dens_min': 400.0, 'circ_dot_dens_max': 800.0, 'circ_dot_dot_rad_min': 0.02, 'circ_dot_dot_rad_max': 0.06, 'num_circ_half_fill_min': 0, 'num_circ_half_fill_max': 0, 'circ_half_fill_rad_min': 0.05, 'circ_half_fill_rad_max': 2.0, 'circ_half_fill_gain_min': 0.4, 'circ_half_fill_gain_max': 0.6, 'num_circ_outer_fill_min': 0, 'num_circ_outer_fill_max': 10, 'circ_outer_fill_rad_min': 0.05, 'circ_outer_fill_rad_max': 2.0, 'circ_outer_fill_gain_min': 0.0, 'circ_outer_fill_gain_max': 0.2, 'num_line_min': 5, 'num_line_max': 8, 'line_length_min': 5.0, 'line_length_max': 13.0, 'num_thick_line_min': 0, 'num_thick_line_max': 0, 'thick_line_length_min': 3.0, 'thick_line_length_max': 7.0, 'num_tri_line_min': 4, 'num_tri_line_max': 8, 'tri_line_length_min': 4.0, 'tri_line_length_max': 10.0, 'tri_line_width_gain_min': 0.02, 'tri_line_width_gain_max': 0.04, 'num_rect_min': 5, 'num_rect_max': 10, 'rect_width_min': 1.0, 'rect_width_max': 4.0, 'rect_height_gain_min': 0.3, 'rect_height_gain_max': 3.0, 'num_rect_shaded_min': 0, 'num_rect_shaded_max': 0, 'rect_shaded_width_min': 0.1, 'rect_shaded_width_max': 1.0, 'rect_shaded_height_gain_min': 0.5, 'rect_shaded_height_gain_max': 2.0, 'rect_shaded_fill_dist_min': 0.05, 'rect_shaded_fill_dist_max': 0.2, 'num_rect_fill_min': 0, 'num_rect_fill_max': 0, 'rect_fill_width_min': 0.1, 'rect_fill_width_max': 1.0, 'rect_fill_height_gain_min': 0.5, 'rect_fill_height_gain_max': 2.0, 'num_rect_dash_min': 0, 'num_rect_dash_max': 0, 'rect_dash_width_min': 0.1, 'rect_dash_width_max': 1.0, 'rect_dash_height_gain_min': 0.5, 'rect_dash_height_gain_max': 2.0, 'num_rect_dot_min': 0, 'num_rect_dot_max': 0, 'rect_dot_width_min': 0.1, 'rect_dot_width_max': 1.0, 'rect_dot_height_gain_min': 0.5, 'rect_dot_height_gain_max': 2.0, 'rect_dot_dens_min': 400.0, 'rect_dot_dens_max': 800.0, 'rect_dot_rad_min': 0.02, 'rect_dot_rad_max': 0.06, 'num_tri_min': 0, 'num_tri_max': 5, 'tri_width_min': 0.5, 'tri_width_max': 4.0, 'tri_height_gain_min': 0.5, 'tri_height_gain_max': 2.0, 'num_tri_shaded_min': 0, 'num_tri_shaded_max': 0, 'tri_shaded_width_min': 0.1, 'tri_shaded_width_max': 1.0, 'tri_shaded_height_gain_min': 0.5, 'tri_shaded_height_gain_max': 2.0, 'tri_shaded_fill_dist_min': 0.05, 'tri_shaded_fill_dist_max': 0.2, 'num_tri_fill_min': 0, 'num_tri_fill_max': 0, 'tri_fill_width_min': 0.4, 'tri_fill_width_max': 1.0, 'tri_fill_height_gain_min': 0.5, 'tri_fill_height_gain_max': 3.0, 'num_tri_dash_min': 0, 'num_tri_dash_max': 0, 'tri_dash_width_min': 0.1, 'tri_dash_width_max': 1.0, 'tri_dash_height_gain_min': 0.5, 'tri_dash_height_gain_max': 2.0, 'num_tri_dot_min': 0, 'num_tri_dot_max': 0, 'tri_dot_width_min': 0.1, 'tri_dot_width_max': 1.0, 'tri_dot_height_gain_min': 0.5, 'tri_dot_height_gain_max': 2.0, 'tri_dot_dens_min': 400.0, 'tri_dot_dens_max': 800.0, 'tri_dot_rad_min': 0.02, 'tri_dot_rad_max': 0.06}</dc:source>
        <dc:date>2023-11-21T20:30:44.288094</dc:date>
      </cc:Work>
    </rdf:RDF>
  </metadata>
  <defs/>
  <g fill="none" id="layer1" inkscape:groupmode="layer" inkscape:label="1" stroke="#0000ff" style="display:inline">
    <polygon points="607.5554,437.6587 603.7696,431.1332 598.7695,425.4841 592.752,420.934 585.9543,417.6622 578.6443,415.7975 571.4874,415.3971 564.015,416.4347 556.8948,418.9278 550.4073,422.7783 545.0635,427.5558 540.7118,433.2518 537.3725,440.0166 535.4353,447.3077 534.9764,454.8379 536.014,462.3103 538.3492,469.0873 542.135,475.6127 547.1352,481.2618 553.1526,485.8119 559.596,488.9528 566.8871,490.89 574.4172,491.3489 581.522,490.3983 588.6667,487.9761 595.1921,484.1903 600.8412,479.1901 605.3913,473.1727 608.6631,466.375 610.5278,459.0649 610.9282,451.9081 609.9777,444.8033"/>
    <line x1="565.4632" x2="596.3691" y1="456.1631" y2="189.6343"/>
    <polygon points="656.7397,195.5704 655.5544,190.4187 653.8795,185.4047 651.7305,180.5748 648.9247,175.6551 645.8618,171.3465 642.3991,167.3522 638.2818,163.4632 634.0966,160.2337 629.6204,157.4214 624.8947,155.0522 619.9632,153.148 614.503,151.6439 609.2921,150.7541 603.6421,150.3611 598.3582,150.5209 593.1141,151.1876 587.9583,152.3553 582.5865,154.1497 577.7641,156.3153 573.1721,158.9342 568.853,161.9822 564.5736,165.6921 560.9437,169.5352 557.6998,173.7092 554.8721,178.1757 552.3338,183.2386 550.4466,188.1767 549.0427,193.2731 548.135,198.481 547.7226,204.1295 547.8937,209.7906 548.5786,215.0323 549.7639,220.1841 551.4388,225.1981 553.7589,230.3646 556.3936,234.9476 559.4565,239.2562 562.9192,243.2506 566.7498,246.8937 571.2217,250.369 575.6979,253.1814 580.4236,255.5506 585.3551,257.4547 590.8153,258.9588 596.0262,259.8487 601.6762,260.2417 606.9601,260.0819 612.576,259.3482 617.7236,258.1452 623.0829,256.3138 627.8904,254.1152 632.4643,251.4648 636.7623,248.3871 640.7447,244.9106 644.6195,240.78 647.8346,236.5837 650.6315,232.0979 652.9845,227.3641 654.8717,222.4261 656.357,216.9607 657.2719,211.3715 657.6025,206.0955 657.4246,200.8122"/>
    <line x1="479.0491" x2="151.3735" y1="233.3679" y2="342.1182"/>
    <polygon points="171.4644,368.1491 170.4132,372.1682 169.7728,376.2729 169.5527,380.0435 169.7111,384.1948 170.2875,388.3089 171.2759,392.344 172.5237,395.9089 174.2673,399.6796 176.3825,403.2552 178.8475,406.5991 181.3709,409.4094 184.4313,412.2188 187.4467,414.4931 190.9889,416.6637 194.3844,418.3178 198.277,419.769 202.2962,420.8202 206.0253,421.4195 210.1714,421.6807 214.3227,421.5222 218.4369,420.9459 222.1095,420.0641 226.0368,418.7097 229.4722,417.1402 233.0671,415.058 236.4336,412.6238 239.5373,409.8624 242.1043,407.0918 244.4062,404.0974 246.6092,400.5753 248.4457,396.8489 249.897,392.9563 250.8694,389.3067 251.5475,385.2081 251.8086,381.0619 251.6502,376.9106 251.0738,372.7965 250.0854,368.7614 248.695,364.8467 247.094,361.4258 245.1859,358.1663 242.7517,354.7998 239.9904,351.696 237.2198,349.1291 233.9146,346.6123 230.7033,344.6241 226.9769,342.7876 223.0843,341.3364 219.0651,340.2852 214.9604,339.6449 210.8121,339.4218 207.0386,339.5832 203.2958,340.09 199.2518,341.0413 195.3245,342.3957 191.5538,344.1394 187.9782,346.2545 184.6342,348.7195 181.5559,351.5093 179.0146,354.3034 176.5282,357.6315 174.5697,360.861 172.9156,364.2565"/>
    <polygon points="211.5033,340.8775 207.3516,341.0089 199.9281,342.3535 195.9941,343.6867 192.5562,345.2497 189.2825,347.1324 185.9064,349.5522 182.8017,352.3116 180.2434,355.0896 175.9745,361.31 174.1532,365.0432 172.8444,368.5856 171.8007,372.6061 171.2214,376.3378 170.997,380.4856 171.1703,384.258 172.5855,391.6684 173.9561,395.5896 175.5518,399.0124 179.6801,405.327 182.1754,408.1616 185.2175,410.9899 188.5386,413.4848 191.7692,415.4404 198.7135,418.389 202.734,419.4326 206.4658,420.012 214.0097,420.0965 221.4332,418.7519 225.3672,417.4187 228.8051,415.8557 235.1587,411.7877 238.2895,409.0579 240.8741,406.3045 243.1853,403.3178 245.3868,399.7954 247.2081,396.0622 248.5169,392.5198 249.5606,388.4993 250.1399,384.7676 250.2245,377.2237 249.729,373.4799 248.7758,369.437 245.9837,362.4283 244.101,359.1546 241.6812,355.7784 236.4324,350.3592 233.4457,348.0481 229.9234,345.8466 226.5372,344.1746 222.6478,342.7164 215.271,341.1354"/>
    <polygon points="222.9388,341.7964 219.2888,340.826 215.1892,340.1549 211.0425,339.9057 207.2684,340.0475 203.1521,340.6073 199.4772,341.4785 195.899,342.687 192.1115,344.3934 188.5179,346.4774 185.1558,348.9174 182.3298,351.423 179.5048,354.4687 177.0054,357.7868 175.0378,361.0105 173.3778,364.403 171.9244,368.2946 170.8756,372.3142 170.2427,376.4198 170.032,380.5686 170.2089,384.3413 170.807,388.4522 171.7123,392.1189 172.9539,395.6857 174.6955,399.4572 176.6054,402.7155 179.0453,406.0776 181.5509,408.9035 184.5966,411.7286 187.6027,414.0149 191.1385,416.1956 194.531,417.8555 198.4225,419.309 202.4421,420.3577 206.1721,420.9505 209.941,421.1946 214.0929,421.0579 218.2092,420.4981 222.2468,419.5211 225.8137,418.2794 229.5851,416.5379 232.8434,414.628 236.2055,412.188 239.0315,409.6824 241.8565,406.6368 244.1429,403.6306 246.3236,400.0949 247.9835,396.7024 249.437,392.8108 250.4074,389.1608 251.0785,385.0612 251.3226,381.2924 251.1858,377.1404 250.6943,373.3958 249.7549,369.3492 248.5464,365.771 246.84,361.9835 244.7559,358.3899 242.316,355.0278 239.5456,351.9323 236.7647,349.3768 233.7586,347.0905 230.2228,344.9098 226.4829,343.1014"/>
    <polygon points="229.2931,346.6009 222.3568,343.6364 214.9774,342.0731 207.4349,341.9702 203.3207,342.5399 199.6529,343.4376 192.6658,346.2801 186.3624,350.4235 180.982,355.7105 176.7289,361.9403 173.7644,368.8765 172.201,376.256 172.0981,383.7985 173.4597,391.2178 176.234,398.2323 180.3156,404.5758 185.5498,410.0075 188.8495,412.53 192.0682,414.5045 199.0045,417.469 202.6561,418.4308 206.7596,419.0724 214.3027,419.1017 221.7084,417.6678 228.6955,414.8253 234.9989,410.6819 240.3793,405.3949 244.6324,399.1651 247.5969,392.2289 249.1603,384.8494 249.2632,377.3069 247.9016,369.8876 245.1274,362.8731 243.0354,359.285 240.8098,356.2345 235.5229,350.8541"/>
    <polygon points="249.021,388.7232 249.6703,384.6207 249.7275,377.0771 248.3388,369.6622 245.5555,362.6507 241.4807,356.3021 238.742,353.1793 235.9779,350.6063 229.7735,346.3152 226.3906,344.637 222.5023,343.1764 215.1242,341.6041 207.5815,341.4741 203.4641,342.0214 199.7902,342.8945 192.7786,345.6778 189.5061,347.5622 186.1343,349.9878 180.7343,355.2554 178.4391,358.2542 176.2608,361.7907 173.3044,368.7311 172.2634,372.7521 171.691,376.4847 171.6338,384.0283 173.0225,391.4432 175.8058,398.4547 179.8806,404.8034 182.3569,407.6544 185.3834,410.4991 188.3821,412.7942 191.9187,414.9726 198.859,417.929 202.5102,418.893 206.6127,419.5423 214.1562,419.5996 221.5711,418.2109 228.5827,415.4276 231.8552,413.5432 235.227,411.1176 240.627,405.85 244.9181,399.6455 246.5963,396.2626 248.0569,392.3743"/>
    <polygon points="248.977,392.6653 250.0232,388.6453 250.6093,384.9144 250.8425,381.145 250.6889,376.9939 249.3175,369.5746 248.1156,365.9944 246.4118,362.2059 244.5307,358.9311 242.1166,355.5506 239.6294,352.7087 236.5989,349.8677 233.2911,347.3549 230.0732,345.3781 226.6838,343.7122 222.7933,342.2564 219.1429,341.2881 215.0424,340.624 211.2729,340.3909 207.1218,340.5445 203.3799,341.0556 199.3397,342.0208 195.7709,343.2563 191.9986,344.9957 185.6786,349.1168 182.8366,351.6039 179.9957,354.6345 177.697,357.631 175.506,361.1602 173.8402,364.5496 172.3844,368.4401 171.3382,372.4601 170.752,376.191 170.6407,383.7351 171.1835,387.8534 172.0438,391.5308 173.3843,395.4625 174.9495,398.8995 176.8306,402.1743 179.2447,405.5548 181.9951,408.6678 184.7625,411.2377 187.759,413.5363 191.2882,415.7273 194.6775,417.3932 198.568,418.849 202.2184,419.8173 206.3189,420.4814 210.4661,420.7183 214.2395,420.5609 221.6587,419.1895 225.239,417.9877 229.0275,416.2839 232.3023,414.4028 235.6827,411.9887 238.7958,409.2383 241.3657,406.4709 243.6643,403.4744 245.8553,399.9452 247.67,396.2086"/>
    <line x1="261.2707" x2="532.4126" y1="416.6188" y2="427.6046"/>
    <line x1="532.4275" x2="295.1784" y1="427.2362" y2="417.6236"/>
    <line x1="295.0888" x2="532.338" y1="419.8344" y2="429.447"/>
    <line x1="532.3529" x2="261.211" y1="429.0785" y2="418.0927"/>
    <polygon points="248.3441,445.6973 250.4928,452.1473 253.1232,458.005 256.3121,463.5783 260.0291,468.8142 264.2388,473.6628 268.9011,478.0779 273.9716,482.0176 279.402,485.4442 285.1406,488.3251 291.1326,490.6329 297.69,492.4274 304.0222,493.4924 310.4281,493.935 316.8466,493.751 323.5884,492.8753 329.8409,491.4135 335.9212,489.3491 341.7712,486.7019 347.3353,483.497 352.5605,479.765 357.397,475.5414 361.7988,470.8664 365.7239,465.7846 369.1349,460.3444 371.9993,454.5976 374.2899,448.5989 375.9848,442.4056 377.0679,436.0765 377.5289,429.6719 377.3633,423.2529 376.5729,416.8806 375.165,410.6158 373.1531,404.518 370.5563,398.6454 367.3995,393.0538 363.48,387.4989 359.2703,382.6503 354.6079,378.2351 349.5374,374.2955 344.1071,370.8689 338.3685,367.988 332.3764,365.6802 325.8191,363.8856 319.4869,362.8207 313.081,362.3781 306.6625,362.5621 300.2926,363.3709 294.0318,364.7968 287.9398,366.8262 282.0746,369.4397 276.4922,372.6126 271.2456,376.3146 266.3849,380.5104 261.9564,385.16 258.0022,390.2191 254.3742,395.9687 251.5098,401.7155 249.2192,407.7141 247.5243,413.9075 246.4412,420.2366 245.9802,426.6412 246.1457,433.0602 246.9362,439.4324"/>
    <line x1="224.2154" x2="451.5051" y1="446.9306" y2="314.9291"/>
    <polygon points="490.55,350.1315 366.3492,704.6778 502.4444,354.5249"/>
    <line x1="490.8998" x2="483.2441" y1="350.2607" y2="370.9872"/>
    <line x1="494.4388" x2="502.0945" y1="375.1222" y2="354.3957"/>
    <line x1="501.7447" x2="486.4332" y1="354.2665" y2="395.7194"/>
    <line x1="475.9381" x2="491.2497" y1="391.8428" y2="350.3899"/>
    <line x1="491.5995" x2="468.6322" y1="350.5191" y2="412.6985"/>
    <line x1="478.4276" x2="501.3949" y1="416.3166" y2="354.1373"/>
    <line x1="501.045" x2="470.422" y1="354.0081" y2="436.9138"/>
    <line x1="461.3263" x2="491.9493" y1="433.5542" y2="350.6484"/>
    <line x1="492.2992" x2="454.0203" y1="350.7776" y2="454.4098"/>
    <line x1="462.4164" x2="500.6952" y1="457.5111" y2="353.8788"/>
    <line x1="500.3454" x2="454.4108" y1="353.7496" y2="478.1083"/>
    <line x1="446.7144" x2="492.649" y1="475.2655" y2="350.9068"/>
    <line x1="492.9988" x2="439.4085" y1="351.036" y2="496.1212"/>
    <line x1="446.4052" x2="499.9955" y1="498.7055" y2="353.6204"/>
    <line x1="499.6457" x2="438.3996" y1="353.4912" y2="519.3028"/>
    <line x1="432.1025" x2="493.3487" y1="516.9768" y2="351.1652"/>
    <line x1="493.6985" x2="424.7966" y1="351.2945" y2="537.8325"/>
    <line x1="430.394" x2="499.2959" y1="539.9" y2="353.362"/>
    <line x1="498.946" x2="422.3884" y1="353.2327" y2="560.4972"/>
    <line x1="417.4907" x2="494.0483" y1="558.6882" y2="351.4237"/>
    <line x1="494.3982" x2="410.1848" y1="351.5529" y2="579.5438"/>
    <line x1="414.3828" x2="498.5962" y1="581.0944" y2="353.1035"/>
    <line x1="498.2464" x2="406.3772" y1="352.9743" y2="601.6917"/>
    <line x1="402.8788" x2="494.748" y1="600.3995" y2="351.6821"/>
    <line x1="495.0978" x2="395.5729" y1="351.8113" y2="621.2552"/>
    <line x1="398.3716" x2="497.8965" y1="622.2889" y2="352.8451"/>
    <line x1="497.5467" x2="390.366" y1="352.7159" y2="642.8861"/>
    <line x1="388.9397" x2="501.7028" y1="641.4099" y2="741.4317"/>
    <line x1="501.453" x2="372.5809" y1="741.7133" y2="627.4027"/>
    <line x1="368.3342" x2="497.2062" y1="632.1904" y2="746.501"/>
    <line x1="496.9564" x2="384.1934" y1="746.7826" y2="646.7609"/>
    <line x1="388.267" x2="495.4477" y1="642.1108" y2="351.9406"/>
    <line x1="495.7975" x2="380.961" y1="352.0698" y2="662.9665"/>
    <line x1="382.3604" x2="497.1969" y1="663.4834" y2="352.5866"/>
    <line x1="496.847" x2="374.3548" y1="352.4574" y2="684.0806"/>
    <line x1="373.6551" x2="496.1473" y1="683.8222" y2="352.199"/>
    <line x1="496.4972" x2="366.3492" y1="352.3282" y2="704.6778"/>
    <polygon points="366.7222,717.3071 541.6752,629.5641 538.5279,623.5511"/>
    <line x1="366.7222" x2="540.1016" y1="717.3071" y2="626.5576"/>
    <line x1="539.9267" x2="385.8118" y1="626.2235" y2="706.8897"/>
    <line x1="386.1615" x2="540.2764" y1="707.5578" y2="626.8917"/>
    <line x1="540.4513" x2="405.6007" y1="627.2257" y2="697.8086"/>
    <line x1="404.9013" x2="539.7519" y1="696.4724" y2="625.8895"/>
    <line x1="539.577" x2="423.9908" y1="625.5554" y2="686.0551"/>
    <line x1="425.0399" x2="540.6261" y1="688.0594" y2="627.5598"/>
    <line x1="540.801" x2="444.4791" y1="627.8938" y2="678.3102"/>
    <line x1="443.0803" x2="539.4022" y1="675.6377" y2="625.2214"/>
    <line x1="539.2273" x2="462.1698" y1="624.8873" y2="665.2204"/>
    <line x1="463.9184" x2="540.9758" y1="668.561" y2="628.2279"/>
    <line x1="541.1507" x2="483.3576" y1="628.562" y2="658.8118"/>
    <line x1="481.2594" x2="539.0525" y1="654.8031" y2="624.5532"/>
    <line x1="538.8776" x2="500.3489" y1="624.2192" y2="644.3857"/>
    <line x1="502.7968" x2="541.3255" y1="649.0626" y2="628.896"/>
    <line x1="541.5004" x2="522.236" y1="629.2301" y2="639.3133"/>
    <line x1="519.4384" x2="538.7028" y1="633.9684" y2="623.8851"/>
    <polygon points="549.172,626.3665 546.5434,629.5832 544.2375,633.0385 542.2759,636.7002 540.5499,640.89 539.3633,644.871 538.5664,648.9479 538.1668,653.0827 538.188,657.614 538.6265,661.7449 539.4616,665.8141 540.6856,669.7838 542.287,673.6168 544.2508,677.2773 546.785,681.0338 549.4437,684.2256 552.398,687.1459 555.6204,689.7675 559.406,692.2579 563.0891,694.1792 566.9404,695.736 570.924,696.9139 575.0026,697.7018 579.1383,698.0924 583.6695,698.0612 587.7994,697.6136 591.8668,696.7696 595.8338,695.5369 599.6632,693.9271 603.3195,691.9552 606.7683,689.6396 609.9776,687.002 612.9173,684.067 615.7846,680.5582 618.0753,677.0928 620.0208,673.4225 621.603,669.5816 622.8071,665.6058 623.6764,661.1586 624.0579,657.0221 624.0384,652.8681 623.6181,648.7353 622.8008,644.6625 621.5943,640.6875 619.8475,636.5063 617.8676,632.8545 615.5444,629.4107 612.8998,626.2073 609.9583,623.274 606.7475,620.6384 603.2972,618.3249 599.2982,616.1939 595.4538,614.6201 591.4754,613.4247 587.0263,612.5652 582.889,612.1928 578.735,612.2215 574.6032,612.6509 570.5321,613.4771 566.5598,614.6923 562.3825,616.4483 558.735,618.4362 555.2964,620.7669 552.0987,623.4186"/>
    <polygon points="541.3719,641.0927 540.1815,645.0724 539.3885,649.1499 539.0009,653.2857 539.0222,657.4396 539.4522,661.5712 540.2869,665.6404 541.5181,669.6076 543.1339,673.4344 545.1184,677.0836 547.4526,680.5197 550.1136,683.7094 553.0757,686.6216 556.3101,689.2281 559.7853,691.5036 563.4677,693.4259 567.3214,694.9764 571.309,696.1401 579.1526,697.2496 583.3065,697.2376 587.4391,696.8168 591.5101,695.9912 595.4801,694.7689 599.3105,693.1618 602.9642,691.1854 606.4055,688.8589 609.6011,686.205 612.52,683.2495 615.1337,680.021 617.417,676.5508 619.3475,672.8728 620.9067,669.0226 622.0793,665.0376 622.8539,660.9565 623.2231,656.8191 623.1831,652.6653 622.7345,648.5357 621.8816,644.4703 620.6327,640.5086 618.9998,636.6891 616.9989,633.0488 614.6494,629.6232 611.9741,626.4455 608.9989,623.5466 605.7529,620.9546 602.2675,618.6947 598.5766,616.7889 591.0906,614.1977 587.0113,613.414 582.8747,613.0355 578.7209,613.0661 574.5903,613.5055 566.9136,615.4606 563.076,617.0505 559.4136,619.0105 555.9618,621.3215 552.7544,623.9611 549.8223,626.9035 547.1941,630.1203 544.8953,633.5802 542.9483,637.2495"/>
    <polygon points="541.1122,665.4666 542.3509,669.4314 543.9816,673.2517 545.7903,676.5668 548.1202,680.0056 550.5284,682.9145 553.4719,685.8454 556.6948,688.4658 560.1647,690.7492 563.5038,692.5132 566.9901,693.9648 570.9601,695.1865 575.0328,696.0032 578.7897,696.3873 582.9434,696.4116 587.0785,696.0186 590.7864,695.3025 594.7705,694.1274 598.6164,692.5582 602.2853,690.6105 605.74,688.3043 608.6654,685.9161 611.6163,682.9928 614.2588,679.7879 616.3707,676.6572 618.3528,673.0068 619.9583,669.1759 621.1708,665.203 621.9783,661.1285 622.3538,657.3708 622.3686,653.217 621.9661,649.0828 621.1505,645.0099 620.0574,641.3951 618.4793,637.5528 616.5233,633.8884 614.4337,630.7428 611.8142,627.5191 608.8842,624.5748 605.6733,621.9397 602.2139,619.6404 598.5411,617.7002 595.0483,616.2645 591.0727,615.061 586.9963,614.2629 583.2377,613.896 579.084,613.8907 574.9507,614.3026 570.8796,615.1275 567.2674,616.2289 563.4287,617.8158 559.7687,619.7802 556.3246,622.1022 553.1311,624.7584 550.2205,627.7219 547.8449,630.6575 545.5535,634.122 543.6217,637.7993 542.0689,641.6519 540.9996,645.2738 540.2108,649.3519 539.8356,653.4887 539.8778,657.6423 540.278,661.3975"/>
    <polygon points="510.4515,677.6528 640.6682,845.4428 701.2222,798.4487 571.0055,630.6587"/>
    <line x1="491.1755" x2="250.3769" y1="653.8899" y2="727.0782"/>
    <line x1="308.385" x2="514.2418" y1="706.2928" y2="972.1586"/>
    <line x1="548.61" x2="176.2872" y1="863.7034" y2="819.1658"/>
    <line x1="189.9088" x2="210.3519" y1="666.4457" y2="638.4761"/>
    <line x1="207.0119" x2="186.5688" y1="636.0348" y2="664.0044"/>
    <line x1="186.8724" x2="227.7586" y1="664.2264" y2="608.2872"/>
    <line x1="230.4913" x2="189.6052" y1="610.2845" y2="666.2238"/>
    <line x1="189.3016" x2="250.6308" y1="666.0018" y2="582.093"/>
    <line x1="248.5053" x2="187.1761" y1="580.5395" y2="664.4483"/>
    <line x1="187.4797" x2="269.252" y1="664.6702" y2="552.7918"/>
    <line x1="270.7702" x2="188.9979" y1="553.9015" y2="665.7799"/>
    <line x1="188.6943" x2="290.9096" y1="665.558" y2="525.7099"/>
    <line x1="289.9987" x2="187.7834" y1="525.0442" y2="664.8922"/>
    <line x1="188.087" x2="310.7454" y1="665.1141" y2="497.2965"/>
    <line x1="311.049" x2="188.3906" y1="497.5184" y2="665.336"/>
    <polygon points="186.2652,663.7825 190.2125,666.6676 321.1188,483.4226"/>
    <polygon points="249.9356,643.4576 284.8261,528.0689 94.3585,533.4459"/>
    <line x1="304.8974" x2="498.2055" y1="573.9086" y2="745.3745"/>
    <line x1="498.4553" x2="289.0382" y1="745.0928" y2="559.3382"/>
    <line x1="290.7869" x2="500.2039" y1="557.3668" y2="743.1214"/>
    <line x1="500.4537" x2="307.1457" y1="742.8398" y2="571.374"/>
    <line x1="323.5045" x2="500.7035" y1="585.3812" y2="742.5582"/>
    <line x1="500.9533" x2="339.8633" y1="742.2765" y2="599.3884"/>
    <line x1="336.6158" x2="497.7058" y1="603.0495" y2="745.9377"/>
    <line x1="497.9557" x2="320.7566" y1="745.6561" y2="588.4791"/>
    <line x1="352.475" x2="497.456" y1="617.62" y2="746.2194"/>
    <line x1="496.7066" x2="400.0526" y1="747.0642" y2="661.3313"/>
    <line x1="405.2985" x2="501.9526" y1="655.4171" y2="741.15"/>
    <line x1="502.2024" x2="421.6574" y1="740.8684" y2="669.4243"/>
    <line x1="415.9118" x2="496.4568" y1="675.9018" y2="747.3459"/>
    <line x1="496.207" x2="431.771" y1="747.6275" y2="690.4722"/>
    <line x1="438.0162" x2="502.4522" y1="683.4315" y2="740.5868"/>
    <line x1="502.702" x2="454.375" y1="740.3051" y2="697.4387"/>
    <line x1="447.6302" x2="495.9572" y1="705.0427" y2="747.9091"/>
    <line x1="495.7074" x2="463.4894" y1="748.1908" y2="719.6131"/>
    <line x1="470.7338" x2="502.9518" y1="711.4459" y2="740.0235"/>
    <line x1="503.2016" x2="487.0926" y1="739.7419" y2="725.4531"/>
    <line x1="479.3486" x2="495.4576" y1="734.1836" y2="748.4724"/>
    <polygon points="495.2078,748.754 503.4514,739.4603 233.531,508.3416"/>
    <line x1="498.7051" x2="273.179" y1="744.8112" y2="544.7677"/>
    <line x1="274.428" x2="499.9541" y1="543.3596" y2="743.4031"/>
    <line x1="499.7043" x2="258.0692" y1="743.6847" y2="529.3524"/>
    <line x1="257.3198" x2="498.9549" y1="530.1973" y2="744.5296"/>
    <line x1="499.2047" x2="241.4606" y1="744.2479" y2="515.6268"/>
    <line x1="241.7104" x2="499.4545" y1="515.3452" y2="743.9663"/>
    <line x1="501.2031" x2="356.2221" y1="741.9949" y2="613.3955"/>
    <polygon points="359.6077,630.1886 409.1627,704.3295 461.2388,669.5224 411.6839,595.3815"/>
    <polygon points="385.9156,517.2601 394.1571,494.5571 360.6232,495.2313"/>
    <polygon points="341.068,485.6846 346.6352,482.4898 351.8576,478.758 356.6837,474.5261 361.0657,469.8359 364.7455,465.0444 368.1463,459.6006 370.9898,453.8461 373.2478,447.8376 374.8181,442.0039 375.8814,435.6738 376.3109,429.2695 376.1024,422.8541 375.258,416.4912 373.8896,410.6067 371.84,404.524 369.1966,398.6749 365.9855,393.1171 362.4731,388.2017 358.2553,383.3632 353.578,378.9675 348.4873,375.0579 343.3635,371.857 337.6173,368.9967 331.6154,366.7211 325.7863,365.1337 319.4594,364.0519 313.0563,363.6037 306.6404,363.7934 300.275,364.6193 294.0231,366.0731 287.9464,368.1404 282.105,370.8009 276.5566,374.0283 271.3561,377.7906 266.8254,381.787 262.4433,386.4772 258.5486,391.5793 255.1798,397.0429 252.5193,402.467 250.2613,408.4754 248.611,414.6784 247.5848,421.0146 247.1982,427.0436 247.4067,433.459 248.2511,439.8219 249.6195,445.7063 251.669,451.7891 254.3124,457.6382 257.5235,463.196 261.036,468.1114 265.2538,472.9499 269.9311,477.3456 275.0218,481.2552 280.1456,484.4561 285.8918,487.3164 291.8936,489.5919 298.0918,491.2604 304.0497,492.2611 310.4528,492.7094 316.4921,492.5485 322.8622,491.7599 329.1225,490.3427 335.2112,488.3109"/>
    <polygon points="369.5461,460.4464 372.402,454.6967 374.6876,448.6973 376.4621,442.1358 377.5119,435.8023 377.9433,429.3968 377.7522,422.9797 376.9404,416.6113 375.5156,410.3515 373.4911,404.2591 370.7152,398.0545 367.5221,392.4849 363.8046,387.2508 359.5976,382.4014 354.9406,377.9823 349.8775,374.0351 344.4558,370.5968 338.3812,367.547 332.3851,365.2529 326.195,363.5503 319.8691,362.4554 313.0893,361.9696 306.2953,362.1816 299.9304,363.0207 293.6767,364.4723 287.593,366.5228 281.4004,369.3253 275.8445,372.5421 270.6264,376.282 265.795,380.5098 261.3959,385.1856 257.4704,390.2656 253.8711,396.0317 251.0316,401.7896 248.7631,407.7954 247.0871,413.9927 246.0192,420.3232 245.5625,427.1051 245.8036,433.8981 246.6699,440.2594 248.1482,446.5068 250.2248,452.5816 252.88,458.4267 256.089,463.9872 259.8214,469.2107 264.3049,474.3196 268.9996,478.6986 274.0963,482.6024 279.8778,486.1769 285.6477,488.9918 291.6632,491.2345 297.8676,492.884 304.2026,493.9248 310.6087,494.347 317.0255,494.1468 323.3928,493.3259 329.6506,491.8921 335.7401,489.859 341.604,487.2455 347.5057,483.8732 352.7345,480.1482 357.5779,475.9343 361.9904,471.271 366.1466,465.8924"/>
    <polygon points="373.4112,448.6542 375.1325,442.4718 376.2356,436.1497 376.7096,429.7497 376.5499,423.3341 375.7581,416.9656 374.3419,410.7063 372.3152,404.6171 369.6976,398.7577 366.5148,393.185 362.7978,387.9535 358.5828,383.1142 353.9109,378.7143 349.1373,375.0131 343.7124,371.5846 337.9757,368.7079 331.9832,366.4111 325.7934,364.7168 319.4666,363.6413 313.0645,363.1952 306.6497,363.3828 300.2847,364.2024 294.0316,365.6458 287.9514,367.6991 282.1034,370.3422 276.5446,373.5493 271.6257,377.055 266.7803,381.2629 262.3736,385.9284 258.4487,391.0058 255.0438,396.4456 252.1921,402.1948 249.9215,408.1972 248.2542,414.3944 247.2506,420.3508 246.7952,426.7522 246.9735,433.1672 247.7187,439.1614 249.1167,445.4249 251.1257,451.5198 253.7263,457.3869 256.8929,462.9688 260.5947,468.2111 264.7956,473.0626 269.4547,477.4761 274.5263,481.4084 279.9612,484.8212 285.7063,487.6812 291.3465,489.8429 297.5314,491.5553 303.8551,492.6491 310.2558,493.1138 316.6711,492.9448 323.0385,492.1438 329.2958,490.7185 335.0297,488.8192 340.9005,486.2272 346.487,483.0687 351.7347,479.3745 356.5923,475.1807 361.0125,470.5281 364.7345,465.7707 368.1867,460.3607 371.0883,454.6366"/>
    <line x1="362.8444" x2="532.3081" y1="423.3178" y2="430.1839"/>
    <line x1="532.2932" x2="396.7222" y1="430.5524" y2="425.0595"/>
    <line x1="396.9014" x2="532.4723" y1="420.6378" y2="426.1307"/>
    <line x1="532.4872" x2="430.809" y1="425.7623" y2="421.6426"/>
    <line x1="430.6" x2="532.2782" y1="426.8011" y2="430.9208"/>
    <line x1="532.2633" x2="464.4778" y1="431.2893" y2="428.5428"/>
    <line x1="464.7167" x2="532.5022" y1="422.6474" y2="425.3938"/>
    <line x1="532.5171" x2="498.6244" y1="425.0253" y2="423.6521"/>
    <line x1="498.3556" x2="532.2484" y1="430.2845" y2="431.6578"/>
    <line x1="532.323" x2="328.9666" y1="429.8154" y2="421.5761"/>
    <line x1="329.0861" x2="532.4425" y1="418.6283" y2="426.8677"/>
    <line x1="532.4574" x2="362.9937" y1="426.4992" y2="419.6331"/>
    <polygon points="372.0151,411.49 369.9888,405.3995 367.5206,399.8854 364.5317,394.6351 360.8168,389.4008 356.8473,384.8465 352.4568,380.6966 347.6862,376.9899 342.5802,373.7608 336.8408,370.887 331.1964,368.7332 325.3704,367.1342 319.0423,366.0598 313.0151,365.6463 306.5996,365.8465 300.6099,366.6349 294.7242,367.9977 288.9975,369.9223 283.147,372.5623 277.9149,375.5829 272.9988,379.0943 268.4445,383.0638 264.2946,387.4543 260.3717,392.5347 257.1736,397.6601 254.485,403.0703 252.3312,408.7147 250.7322,414.5407 249.703,420.4937 249.2443,426.896 249.4145,432.935 250.1667,438.9293 251.5957,445.1869 253.5203,450.9136 256.1603,456.7641 259.1809,461.9962 262.6923,466.9123 266.6618,471.4666 271.0523,475.6165 275.8229,479.3232 281.2581,482.7375 286.6683,485.426 292.3127,487.5799 298.1387,489.1789 304.4668,490.2533 310.494,490.6667 316.9095,490.4666 322.8992,489.6782 328.7849,488.3153 334.5116,486.3908 340.0257,483.9226 345.5942,480.7302 350.5103,477.2188 355.0646,473.2493 359.2145,468.8588 362.9212,464.0882 366.3355,458.653 369.024,453.2428 371.2942,447.239 372.858,441.4035 373.8513,435.4443 374.2647,429.4171 374.0946,423.3781 373.3424,417.3837"/>
    <polygon points="366.0664,394.0042 362.3813,388.7473 358.1893,383.8849 353.5323,379.4659 348.457,375.5344 343.3436,372.3148 337.6047,369.4374 331.9658,367.2659 325.7792,365.5508 319.4522,364.4626 313.0481,364.0122 307.0077,364.175 300.6372,364.9698 294.7419,366.2959 288.6447,368.3059 283.1166,370.7455 277.5223,373.895 272.2708,377.5878 267.4146,381.787 263.0024,386.4505 259.0784,391.5315 255.8664,396.6497 252.9974,402.3929 250.7168,408.3941 249.1283,414.2241 248.0494,420.5527 247.6166,426.5797 247.7801,432.9976 248.5842,439.3669 249.919,445.2602 251.938,451.3544 254.5558,457.2163 257.7464,462.7873 261.4778,468.0115 265.4503,472.5647 270.1203,476.97 274.8973,480.6704 280.33,484.091 286.0774,486.9515 292.0819,489.2233 297.9143,490.8033 304.2445,491.8728 310.2722,492.2968 316.6898,492.1238 323.0579,491.3103 329.3129,489.8645 335.0405,487.9389 340.5614,485.483 346.1464,482.3171 351.387,478.6088 356.2308,474.3953 360.6292,469.7189 364.5383,464.6263 367.7352,459.4987 370.5873,453.7471 372.8502,447.7392 374.4216,441.9045 375.437,435.9479 375.8969,429.5445 375.743,423.5039 374.9576,417.1322 373.5394,410.8709 371.6392,405.1349 369.0386,399.2653"/>
    <polygon points="348.0862,376.2722 342.6454,372.8599 337.2336,370.167 331.5896,368.0022 325.3962,366.3029 319.4378,365.2841 313.0316,364.8293 306.989,364.9959 300.6176,365.8032 294.3607,367.2515 288.6341,369.1869 282.7814,371.8313 277.5441,374.8497 272.6184,378.3536 267.7763,382.5727 263.6313,386.9726 259.7082,392.0574 256.3202,397.5134 253.6515,402.9373 251.5121,408.5909 249.9213,414.4226 248.8937,420.3795 248.4293,426.785 248.6159,433.2047 249.3846,439.2004 250.8236,445.4595 252.7505,451.189 255.3862,457.0456 258.3967,462.2874 261.8933,467.2184 265.844,471.7936 270.4988,476.2183 275.2682,479.9322 280.37,483.1745 286.1026,486.0699 291.7401,488.2514 297.9284,489.9692 303.8837,491.0057 310.2886,491.4797 316.3316,491.3311 322.7054,490.5428 328.9666,489.1132 334.699,487.1949 340.5595,484.568 345.8058,481.5652 351.0391,477.8425 355.5966,473.8714 359.7547,469.4839 363.693,464.4108 366.9124,459.2946 369.6295,453.8948 371.9384,447.9019 373.5466,442.0749 374.6383,435.746 375.0754,429.717 374.9358,423.6737 374.1571,417.2988 372.8379,411.3996 370.827,405.3002 368.3792,399.7732 365.2139,394.185 361.499,388.9461 357.5347,384.3827 353.1535,380.218"/>
    <polygon points="337.592,369.8785 331.5983,367.575 325.4032,365.886 319.445,364.8734 313.0398,364.4208 306.9984,364.5855 300.6274,365.3864 294.7332,366.7222 288.6394,368.7462 283.1172,371.2021 277.533,374.3719 272.5935,377.8543 267.7318,382.049 263.3168,386.7115 259.3933,391.7945 256.1852,396.9164 253.3244,402.665 251.173,408.3128 249.484,414.5079 248.4714,420.4661 248.0188,426.8713 248.2128,433.2895 248.9844,439.2837 250.3202,445.1779 252.3442,451.2717 254.9709,457.131 257.9699,462.3781 261.6854,467.6151 265.647,472.1793 270.0231,476.3477 275.0827,480.3013 280.1856,483.5398 285.9171,486.4346 291.5521,488.6194 297.737,490.345 304.0641,491.4397 310.4693,491.8923 316.8875,491.6983 322.8817,490.9267 328.7759,489.5909 334.8697,487.5669 340.729,484.9402 346.2943,481.7374 351.2131,478.2257 356.0498,474.0023 360.1922,469.6016 364.1158,464.5186 367.3239,459.3967 370.1847,453.6481 372.4527,447.6408 374.025,441.8052 375.0377,435.847 375.4903,429.4418 375.2963,423.0236 374.5247,417.0294 373.1889,411.1352 371.1649,405.0414 368.5382,399.1821 365.5392,393.935 362.0567,388.9955 357.8621,384.1338 353.1996,379.7188 348.4263,376.0117 343.3235,372.7733"/>
    <polygon points="325.3633,367.5514 319.0351,366.4704 313.0069,366.0549 306.9668,366.227 300.972,366.9853 295.0793,368.3224 289.3443,370.2258 283.8215,372.6774 278.2443,375.857 273.3211,379.3605 268.7616,383.3258 264.609,387.7154 260.9026,392.4877 257.6774,397.5975 254.964,402.9966 252.6704,408.9927 251.0879,414.8244 250.0795,420.7822 249.6548,426.8098 249.8178,432.8501 250.567,438.8461 251.9971,445.1046 253.9267,450.8308 256.4034,456.3424 259.4041,461.5873 262.9001,466.5158 266.8585,471.0812 271.2417,475.2405 276.0084,478.9542 281.1133,482.1871 286.8539,485.0612 292.5009,487.2115 298.3301,488.8028 304.2864,489.8203 310.3134,490.2541 316.3539,490.1003 322.351,489.3603 328.2478,488.0411 334.3408,486.0188 339.8562,483.5504 345.1056,480.5578 350.0394,477.0693 354.6109,473.1178 358.7768,468.7409 362.7147,463.6706 365.9243,458.551 368.6213,453.1437 370.7801,447.5 372.3803,441.6731 373.4068,435.7184 373.858,429.3144 373.6767,423.2746 372.9093,417.281 371.5632,411.3903 369.6511,405.6583 367.1911,400.1392 364.0031,394.5668 360.4921,389.6489 356.5199,385.0955 352.124,380.9496 347.3461,377.2504 342.2313,374.033 336.8281,371.3278 331.1877,369.1604"/>
    <polygon points="325.812,364.3024 319.4797,363.2313 313.0728,362.7867 306.6532,362.9727 300.2828,363.7876 294.0231,365.2236 287.9345,367.2668 282.0757,369.8974 276.5032,373.0902 271.2709,376.8142 266.4291,381.0337 262.0247,385.7077 258.1001,390.7914 254.6931,396.2355 251.8367,401.9876 249.5584,407.9922 247.8802,414.1914 246.8182,420.5253 246.3828,426.9328 246.5781,433.3521 247.4023,439.7213 248.8473,445.9789 250.8993,452.0646 253.5384,457.9196 256.7392,463.4874 260.4708,468.7144 264.6972,473.55 269.3776,477.9477 274.4669,481.865 279.916,485.264 285.6722,488.1121 291.6801,490.3818 297.8817,492.051 304.2171,493.1038 310.6252,493.53 317.0443,493.3254 323.0402,492.5584 329.304,491.1405 335.3985,489.1149 341.2649,486.5012 346.8466,483.3245 352.0897,479.6156 356.9436,475.4102 361.3615,470.7489 365.3008,465.6766 368.7235,460.2424 371.5965,454.4985 373.8921,448.5005 375.5883,442.3063 376.6685,435.9755 377.1225,429.5692 376.9457,423.1494 376.14,416.7778 374.713,410.516 372.6787,404.4245 370.0565,398.5619 366.8718,392.9848 363.1553,387.7471 358.9429,382.8993 354.2752,378.4881 349.1972,374.5561 343.758,371.1413 338.01,368.2766 332.0087,365.9896"/>
    <polygon points="319.4245,365.6942 313.0233,365.2378 306.609,365.4357 300.6196,366.218 294.3695,367.674 288.6511,369.6193 283.1455,372.1039 277.9035,375.1049 272.6766,378.8282 268.1274,382.8018 263.9802,387.1933 260.2731,391.9621 256.8546,397.3933 254.1582,402.7983 251.9924,408.4369 250.2948,414.6258 249.2807,420.5803 248.8422,426.6046 249.0112,433.0198 249.7665,439.0126 251.1944,445.2692 253.1139,450.9963 255.5737,456.513 258.551,461.7685 262.0185,466.7143 266.2039,471.5791 270.863,475.9923 275.6374,479.6922 280.7445,482.9174 286.4827,485.7908 292.1246,487.9482 297.9473,489.5547 304.272,490.6416 310.297,491.0712 316.3353,490.9211 322.3315,490.1929 328.5944,488.7931 334.3301,486.8994 340.1953,484.2948 345.4463,481.3096 350.3869,477.8347 355.2454,473.642 359.4058,469.263 363.3444,464.1963 366.5619,459.0844 369.4267,453.3418 371.5756,447.6968 373.2546,441.5029 374.2508,435.5453 374.6713,429.5197 374.483,423.1051 373.7098,417.1145 372.2631,410.8623 370.3264,405.1409 367.85,399.6316 364.857,394.3851 361.1415,389.1526 357.1747,384.5975 352.5024,380.1983 347.7169,376.5127 342.6001,373.3028 336.8533,370.4467 331.205,368.3063 325.3775,366.7172"/>
    <polygon points="299.9498,362.1868 293.6939,363.6184 287.6036,365.6418 281.7347,368.2385 275.8218,371.5863 270.5755,375.2826 265.4332,379.7241 261.013,384.3769 256.8407,389.7399 253.233,395.4979 250.3775,401.2453 248.0848,407.2394 246.294,413.7941 245.2204,420.1213 244.7487,426.8998 244.9658,433.6911 245.8015,440.0542 247.3452,446.6713 249.4115,452.7473 252.2219,458.9337 255.4388,464.4869 259.407,470.0026 263.6496,474.8179 268.3334,479.2052 273.7257,483.3396 279.1784,486.7241 284.9298,489.5715 291.2864,491.972 297.4843,493.6372 304.1881,494.7457 310.5922,495.1641 317.0068,494.968 323.7451,494.0928 330.3601,492.5397 336.4331,490.4649 342.6155,487.6457 348.1642,484.4211 353.379,480.6805 358.4836,476.1957 362.8643,471.5057 366.7764,466.4183 370.1839,460.98 373.2072,454.8948 375.483,448.8942 377.2553,442.3345 378.3543,435.6291 378.7637,429.2245 378.5586,422.8101 377.7409,416.4448 376.2158,409.8233 374.1666,403.7416 371.3736,397.5473 368.1725,391.985 364.2198,386.4581 359.9907,381.631 355.3194,377.2304 350.2485,373.2969 344.4956,369.681 338.7523,366.8174 332.4024,364.399 326.2092,362.7163 319.8835,361.6338 313.1057,361.1525 306.314,361.3601"/>
    <polygon points="328.1165,440.9798 140.9885,347.3022 92.4786,444.2043 279.6066,537.8819"/>
    <polygon points="297.6759,493.2607 304.0078,494.3135 310.4116,494.752 316.8279,494.5721 323.197,493.7754 329.8238,492.2679 335.9108,490.231 341.7735,487.6176 347.3575,484.4521 352.9085,480.5313 357.7587,476.3269 362.4276,471.3885 366.3535,466.3103 369.7724,460.8778 372.8046,454.7957 375.0853,448.7958 376.7778,442.6041 377.8665,436.2783 378.35,429.4995 378.1701,423.0832 377.3734,416.714 375.8659,410.0873 373.829,404.0003 371.2156,398.1375 368.0501,392.5536 364.3618,387.3003 359.9249,382.1524 355.2732,377.7295 350.2173,373.7748 344.4758,370.1386 338.7395,367.2585 332.3938,364.8258 326.2021,363.1333 319.5013,361.9995 313.0975,361.5611 306.3047,361.7709 299.9401,362.6037 293.6853,364.0452 287.2466,366.2201 281.0631,369.0397 275.5154,372.2684 270.3043,376.016 265.478,380.2478 260.8372,385.2126 256.9401,390.313 253.552,395.7648 250.7044,401.5174 248.3078,407.8768 246.6504,414.0779 245.5975,420.4098 245.1591,426.8136 245.339,433.2299 246.1357,439.599 247.6432,446.2258 249.6801,452.3128 252.4646,458.5122 255.6618,464.0782 259.614,469.6068 263.8458,474.4331 268.5226,478.8296 273.6007,482.7555 279.0332,486.1744 285.1154,489.2066 291.4748,491.6033"/>
    <polygon points="284.8958,490.0024 290.9017,492.2772 297.4659,494.0514 304.1754,495.1554 310.584,495.5726 317.0034,495.3782 323.7471,494.5077 330.369,492.9624 336.4502,490.8975 342.3074,488.2633 348.2059,484.8804 353.4373,481.1551 358.5632,476.6874 362.9682,472.0138 367.125,466.6326 370.5345,461.1901 373.5627,455.1019 375.8459,449.0992 377.6293,442.5375 378.7428,435.8296 379.1689,429.4215 378.9835,423.0019 378.1224,416.2569 376.6892,409.9966 374.53,403.5488 371.904,397.688 368.5294,391.7847 364.8115,386.5481 360.3509,381.4159 355.3962,376.759 350.3082,372.8401 344.8705,369.423 338.7865,366.3862 332.787,364.0946 326.2278,362.302 319.8967,361.2237 313.114,360.744 306.6941,360.9205 299.9479,361.772 293.3218,363.2988 287.2348,365.3467 281.0334,368.1356 275.4623,371.3307 269.9235,375.275 265.082,379.4947 260.664,384.1559 256.4921,389.5254 252.8823,395.2878 249.8712,401.3845 247.6048,407.3935 245.8397,413.9602 244.7451,420.6712 244.3369,427.0805 244.5713,433.8762 245.4203,440.2421 246.871,446.4984 249.0483,452.9401 251.8633,459.1297 255.0818,464.6873 258.8144,469.9135 263.2893,475.0332 267.9691,479.4316 273.3561,483.5809 278.8033,486.9827"/>
    <polygon points="295.6982,514.1734 365.0588,523.0812 347.2028,387.6259"/>
    <line x1="230.9227" x2="279.9401" y1="526.2362" y2="213.4294"/>
    <line x1="227.3631" x2="532.3977" y1="415.614" y2="427.9731"/>
    <line x1="532.3827" x2="193.4554" y1="428.3416" y2="414.6093"/>
    <polygon points="193.4554,414.6093 532.2334,432.0262 532.532,424.6569"/>
    <line x1="227.3332" x2="532.3678" y1="416.351" y2="428.71"/>
    <polygon points="535.6319,406.0887 536.1874,408.2563 537.5765,410.0105 539.559,411.0481 541.7922,411.1896 543.8898,410.4105 545.2705,409.151 546.2382,407.1334 546.3017,404.8967 545.651,403.1448 544.4404,401.721 542.4579,400.6834 540.598,400.5002 538.4511,401.1311 536.986,402.2913 535.8799,404.2364"/>
    <polygon points="464.8826,448.6772 537.9085,490.4144 582.1669,412.9773 509.141,371.2401"/>
    <polygon points="424.441,398.598 425.6389,330.2391 277.5942,327.6449 276.3963,396.0038"/>
    <polygon points="495.7707,531.9244 497.5572,526.1534 498.851,519.8666 499.4884,513.8591 499.5427,507.4408 498.9546,501.0493 497.8196,495.1157 496.0073,488.9584 493.5881,483.0132 490.5864,477.3399 487.2559,472.2996 483.2142,467.3135 478.9723,463.012 474.0431,458.901 468.7273,455.3038 463.4189,452.4199 457.5081,449.9179 451.3767,448.0198 445.0862,446.7445 439.0768,446.1248 432.6584,446.0895 426.2687,446.6964 420.3384,447.8489 414.1865,449.6793 408.2485,452.116 402.9086,454.9413 397.5536,458.4798 392.5794,462.5362 388.0359,467.0698 384.194,471.732 380.8082,476.7353 377.7442,482.3752 375.3893,487.9386 373.4731,494.0644 372.1793,500.3511 371.5209,506.7358 371.5045,513.1542 372.0757,519.1684 373.3001,525.469 375.1487,531.6155 377.4422,537.2045 380.444,542.8778 383.9982,548.2224 387.8161,552.9042 392.3363,557.4611 397.2897,561.5429 402.6266,565.1087 408.2934,568.1228 413.8773,570.4284 420.0198,572.2903 425.9441,573.4732 432.3307,574.1128 438.7492,574.1103 444.7616,573.5214 450.6919,572.3689 456.8438,570.5384 462.7818,568.1017 468.4463,565.0832 473.7804,561.5133 478.4509,557.6816 482.9944,553.1479 486.8363,548.4857 490.2221,543.4824 493.2861,537.8425"/>
    <polygon points="571.2271,616.7781 567.2647,618.0233 560.4795,621.32 554.442,625.8429 551.5208,628.7955 549.1466,631.7319 546.871,635.2065 545.1282,638.5564 542.6359,645.6765 541.5383,653.14 541.527,656.9162 541.9297,661.05 542.6696,664.753 543.8865,668.7242 547.1346,675.5328 549.4554,678.9774 551.8678,681.8825 554.8274,684.7966 557.7694,687.1639 564.2608,691.007 567.7512,692.448 571.7295,693.6413 575.8109,694.4116 579.573,694.7375 587.1046,694.3108 591.1717,693.4679 594.7741,692.3358 601.575,689.0715 605.014,686.7425 607.9134,684.3231 610.5692,681.6387 613.1807,678.409 615.2496,675.25 617.1665,671.5654 619.6248,664.4334 620.6868,656.9648 620.6801,653.1887 620.2577,649.0568 619.405,644.9918 618.2643,641.392 614.9839,634.5989 612.6466,631.1655 610.2204,628.2719 604.599,623.2412 601.4549,621.1498 597.7841,619.2066 593.93,617.6583 590.3028,616.6079 586.2178,615.8571 582.4542,615.5491 574.9247,616.0117"/>
    <polygon points="578.9308,611.7893 574.7966,612.1959 570.7202,612.9958 566.383,614.3082 562.547,615.9026 558.881,617.8564 555.4185,620.1516 552.1912,622.7673 549.2287,625.6794 546.3307,629.163 543.8117,632.9298 541.8589,636.5963 540.2655,640.4327 538.9542,644.7703 538.1554,648.8469 537.7499,652.9812 537.7415,657.1353 538.185,661.645 539.0026,665.7179 540.2058,669.694 541.945,673.8783 543.9147,677.5358 546.4512,681.2909 549.1087,684.4837 552.0593,687.4079 555.2758,690.0367 558.7289,692.3461 562.3869,694.3148 566.5718,696.0529 570.5482,697.255 574.9951,698.1263 579.1311,698.5138 583.6625,698.4836 587.793,698.0411 591.8622,697.2057 596.1879,695.8556 600.0098,694.2278 603.6587,692.2423 607.4027,689.6895 610.5839,687.0181 613.4953,684.0548 616.1101,680.8268 618.4043,677.3637 620.3571,673.6972 621.9505,669.8608 623.2618,665.5232 624.0606,661.4466 624.4661,657.3123 624.4745,653.1582 624.031,648.6485 623.2134,644.5756 622.0102,640.5995 620.271,636.4151 618.3013,632.7577 615.991,629.3052 613.3614,626.0893 610.1567,622.8856 606.9401,620.2568 603.4871,617.9474 599.829,615.9787 595.6442,614.2406 591.6678,613.0385 587.2209,612.1672 583.0849,611.7797"/>
    <polygon points="601.6447,620.7724 598.3152,618.9907 594.8327,617.5305 590.8622,616.3111 586.7867,615.5096 583.0276,615.151 578.8741,615.1673 575.1179,615.5555 567.7982,617.3817 563.9577,618.9637 560.6254,620.7402 557.4753,622.8227 554.254,625.4447 551.3217,628.3863 548.9332,631.3112 546.6372,634.7725 544.8712,638.1103 543.3013,641.9557 542.2268,645.5759 541.4981,649.2811 541.1036,653.4159 541.1184,657.1921 541.5455,661.3236 543.4062,668.6346 545.0062,672.4675 546.7984,675.7914 548.8958,678.9316 551.5329,682.1405 557.121,687.2087 560.5713,689.521 563.9008,691.3028 567.3833,692.763 571.3538,693.9823 575.4293,694.7838 579.1884,695.1425 583.3419,695.1262 587.0981,694.738 590.8011,693.9976 594.7735,692.7845 598.2583,691.3298 601.9142,689.3585 605.3463,687.0192 608.241,684.5941 610.8943,681.9072 613.5062,678.6777 617.3448,672.1832 618.9147,668.3378 619.9892,664.7176 620.7714,660.6384 621.1124,656.8776 621.0765,652.7243 620.6705,648.9699 618.8098,641.6589 617.2098,637.826 615.4176,634.5021 610.9364,628.4332 608.2873,625.7421 605.095,623.0848"/>
    <polygon points="602.0242,620.0177 598.3519,618.0768 594.8579,616.6438 590.8803,615.4474 586.8018,614.6608 582.6645,614.292 578.8882,614.3227 574.7575,614.7586 571.058,615.5168 567.0888,616.7411 563.2644,618.3617 559.9464,620.165 556.5062,622.4927 553.3199,625.1575 550.6714,627.8494 548.0588,631.0785 545.979,634.2306 544.038,637.9029 542.4797,641.7532 541.4087,645.3745 540.622,649.453 540.2532,653.5903 540.2839,657.3665 540.7198,661.4973 541.4781,665.1967 542.7023,669.1659 544.1597,672.6497 546.1263,676.3084 548.2281,679.4458 550.8632,682.6565 553.8106,685.5833 557.0397,688.196 560.1918,690.2757 563.8641,692.2167 567.7144,693.775 571.3357,694.8461 575.4142,695.6327 579.5515,696.0015 583.3278,695.9708 587.4585,695.5349 591.158,694.7767 595.1272,693.5524 598.611,692.0951 602.2696,690.1285 605.7098,687.8008 608.8961,685.136 611.5446,682.4441 614.1572,679.215 616.4288,675.7374 618.178,672.3906 619.6109,668.8967 620.8073,664.919 621.5396,661.2143 621.9466,657.0806 621.9321,652.927 621.5531,649.1697 620.7379,645.0968 619.5137,641.1276 617.893,637.3031 616.0897,633.9851 613.762,630.5449 611.3527,627.6369 608.4054,624.7101 605.4806,622.3213"/>
    <polygon points="615.8509,634.4056 613.5415,630.9531 611.1448,628.0349 608.4865,625.3527 605.2878,622.703 601.8344,620.3951 598.1626,618.4534 594.6676,617.0232 590.6879,615.834 586.6072,615.0591 582.846,614.721 578.6926,614.7558 574.9376,615.1569 571.2364,615.9063 567.2657,617.125 563.7814,618.581 560.1241,620.55 556.6879,622.8834 553.7865,625.3005 550.8707,628.2587 548.4957,631.1947 546.2121,634.6642 544.4545,638.0065 543.0163,641.4982 541.8177,645.4752 541.0872,649.1801 540.6864,653.3143 540.7115,657.4679 541.1038,661.2237 541.9376,665.2928 543.0541,668.9003 544.502,672.388 546.4623,676.0499 548.7878,679.4915 551.1981,682.3985 554.1494,685.3212 557.0799,687.703 560.544,689.9948 563.8823,691.7601 567.7265,693.3331 571.3447,694.4143 575.4217,695.2083 579.1813,695.564 582.9576,695.5676 587.0916,695.165 590.7963,694.4329 594.7727,693.2327 598.2638,691.7929 601.9302,689.8411 605.3772,687.5237 608.2899,685.1202 610.9658,682.4556 613.6081,679.2508 615.7137,676.116 617.681,672.4579 619.1356,668.9729 620.3527,665.0016 621.1562,660.9265 621.5206,657.1678 621.5149,653.0142 621.1401,649.2565 620.4166,645.5502 619.2257,641.571 617.6332,637.7348"/>
    <polygon points="628.2665,631.9685 510.0668,698.268 629.0174,771.821"/>
    <polygon points="620.2427,652.8987 619.8448,649.1436 617.9777,641.8349 614.7452,635.0192 610.2671,628.9489 607.611,626.2648 604.4064,623.6227 600.9402,621.3345 597.5948,619.5832 590.4775,617.0837 583.0132,615.9938 575.4784,616.3538 571.7719,617.0755 567.7962,618.277 560.9805,621.5095 557.5344,623.8279 554.6303,626.2415 549.5839,631.8484 545.705,638.318 544.25,641.8025 543.045,645.7772 542.3201,649.4831 541.9385,653.6189 542.3711,661.1499 544.2383,668.4586 545.8537,672.2849 547.6663,675.5975 552.2027,681.6244 557.8096,686.6708 561.2758,688.959 564.6212,690.7103 571.7385,693.2098 579.2028,694.2997 586.7376,693.9396 590.8105,693.1262 594.4198,692.0165 601.2355,688.784 607.3059,684.3058 610.244,681.3702 612.6321,678.4451 616.511,671.9755 617.966,668.491 619.171,664.5162 620.2609,657.052"/>
    <polygon points="606.4354,689.3621 609.6496,686.7306 612.592,683.7985 615.2347,680.5934 617.5524,677.1461 619.6843,673.1477 621.2551,669.3022 622.4436,665.3218 623.2385,661.2446 623.6323,657.1093 623.6211,652.9553 623.2051,648.8222 622.3882,644.7493 621.1783,640.7754 619.5868,636.9384 617.629,633.2747 615.3233,629.8194 612.6919,626.6051 609.7597,623.6627 606.5547,621.0201 603.1074,618.7024 599.109,616.5704 595.2634,614.9996 591.2831,613.8111 587.2058,613.0162 583.0706,612.6225 578.9166,612.6336 574.7835,613.0496 570.3446,613.9604 566.3817,615.2055 562.5589,616.831 558.9128,618.8213 555.478,621.1575 552.2872,623.8174 549.3709,626.7756 546.7568,630.0039 544.4698,633.4716 542.5317,637.1458 540.9609,640.9913 539.7724,644.9717 538.9775,649.0489 538.5837,653.1842 538.5949,657.3382 539.0109,661.4713 539.8277,665.5442 541.0377,669.518 542.6291,673.3551 544.587,677.0187 546.8927,680.4741 549.5241,683.6883 552.4563,686.6308 555.6613,689.2734 559.1086,691.5911 563.107,693.723 566.9526,695.2938 570.9329,696.4824 575.0101,697.2773 579.1454,697.671 583.2994,697.6598 587.4325,697.2438 591.5054,696.427 595.4793,695.2171 599.3163,693.6256 602.98,691.6677"/>
    <polygon points="591.5147,695.5552 595.4808,694.3202 599.3044,692.6971 602.9476,690.7019 609.2734,685.9339 612.1948,682.981 614.8082,679.7523 618.851,672.9402 620.4331,669.0994 621.6255,665.1204 622.7802,657.2836 622.7862,653.1298 622.3791,648.9959 621.5631,644.923 620.3462,640.9515 618.7404,637.1205 616.7617,633.4683 614.4296,630.0308 611.7674,626.8423 605.8659,621.5582 602.4037,619.2631 598.7304,617.3236 594.8825,615.7589 590.8982,614.5845 586.8168,613.8121 582.6788,613.4494 574.7704,613.9039 570.7013,614.7383 566.7352,615.9732 562.9116,617.5964 559.2683,619.5916 552.9426,624.3596 550.0212,627.3125 547.4078,630.5412 545.1283,634.0137 543.2055,637.6957 540.5905,645.1731 539.7997,649.2509 539.4181,653.3872 539.4498,657.5409 539.8942,661.6709 541.8698,669.342 543.4756,673.1729 545.4543,676.8252 550.1936,683.1725 553.1333,686.1073 556.3501,688.7352 559.8123,691.0304 563.4856,692.9699 567.3335,694.5346 571.3178,695.7089 575.3992,696.4813 579.5372,696.8441 587.4456,696.3896"/>
    <line x1="670.1941" x2="338.6108" y1="716.1453" y2="784.5588"/>
  </g>
</svg>
