<?xml version="1.0" encoding="utf-8" ?>
<svg xmlns="http://www.w3.org/2000/svg" xmlns:cc="http://creativecommons.org/ns" xmlns:dc="http://purl.org/dc/elements/1.1/" xmlns:ev="http://www.w3.org/2001/xml-events" xmlns:inkscape="http://www.inkscape.org/namespaces/inkscape" xmlns:rdf="http://www.w3.org/1999/02/22-rdf-syntax-ns" xmlns:sodipodi="http://sodipodi.sourceforge.net/DTD/sodipodi-0.dtd" xmlns:xlink="http://www.w3.org/1999/xlink" baseProfile="tiny" height="29.7cm" version="1.2" viewBox="0 0 793.7007874015749 1122.5196850393702" width="21.0cm">
  <metadata>
    <rdf:RDF>
      <cc:Work>
        <dc:format>image/svg+xml</dc:format>
        <dc:source>Vsketch with params {'__seed__': 807683009, 'debug_show_shapes': False, 'debug_draw': False, 'occult': False, 'scale': 1.0, 'area_type': 'RECT', 'width': 12.0, 'height': 19.0, 'num_circ_min': 2, 'num_circ_max': 10, 'circ_rad_min': 0.5, 'circ_rad_max': 2.0, 'num_circ_shaded_min': 0, 'num_circ_shaded_max': 0, 'circ_shaded_rad_min': 0.05, 'circ_shaded_rad_max': 0.5, 'circ_shaded_fill_dist_min': 0.05, 'circ_shaded_fill_dist_max': 0.2, 'num_circ_fill_min': 0, 'num_circ_fill_max': 0, 'circ_fill_rad_min': 0.05, 'circ_fill_rad_max': 0.5, 'num_circ_dash_min': 0, 'num_circ_dash_max': 0, 'circ_dash_rad_min': 0.05, 'circ_dash_rad_max': 0.5, 'num_circ_dot_min': 0, 'num_circ_dot_max': 0, 'circ_dot_rad_min': 0.05, 'circ_dot_rad_max': 0.5, 'circ_dot_dens_min': 400.0, 'circ_dot_dens_max': 800.0, 'circ_dot_dot_rad_min': 0.02, 'circ_dot_dot_rad_max': 0.06, 'num_circ_half_fill_min': 0, 'num_circ_half_fill_max': 0, 'circ_half_fill_rad_min': 0.05, 'circ_half_fill_rad_max': 2.0, 'circ_half_fill_gain_min': 0.4, 'circ_half_fill_gain_max': 0.6, 'num_circ_outer_fill_min': 0, 'num_circ_outer_fill_max': 10, 'circ_outer_fill_rad_min': 0.05, 'circ_outer_fill_rad_max': 2.0, 'circ_outer_fill_gain_min': 0.0, 'circ_outer_fill_gain_max': 0.2, 'num_line_min': 5, 'num_line_max': 8, 'line_length_min': 5.0, 'line_length_max': 13.0, 'num_thick_line_min': 0, 'num_thick_line_max': 0, 'thick_line_length_min': 3.0, 'thick_line_length_max': 7.0, 'num_tri_line_min': 4, 'num_tri_line_max': 8, 'tri_line_length_min': 4.0, 'tri_line_length_max': 10.0, 'tri_line_width_gain_min': 0.02, 'tri_line_width_gain_max': 0.04, 'num_rect_min': 5, 'num_rect_max': 10, 'rect_width_min': 1.0, 'rect_width_max': 4.0, 'rect_height_gain_min': 0.3, 'rect_height_gain_max': 3.0, 'num_rect_shaded_min': 0, 'num_rect_shaded_max': 0, 'rect_shaded_width_min': 0.1, 'rect_shaded_width_max': 1.0, 'rect_shaded_height_gain_min': 0.5, 'rect_shaded_height_gain_max': 2.0, 'rect_shaded_fill_dist_min': 0.05, 'rect_shaded_fill_dist_max': 0.2, 'num_rect_fill_min': 0, 'num_rect_fill_max': 0, 'rect_fill_width_min': 0.1, 'rect_fill_width_max': 1.0, 'rect_fill_height_gain_min': 0.5, 'rect_fill_height_gain_max': 2.0, 'num_rect_dash_min': 0, 'num_rect_dash_max': 0, 'rect_dash_width_min': 0.1, 'rect_dash_width_max': 1.0, 'rect_dash_height_gain_min': 0.5, 'rect_dash_height_gain_max': 2.0, 'num_rect_dot_min': 0, 'num_rect_dot_max': 0, 'rect_dot_width_min': 0.1, 'rect_dot_width_max': 1.0, 'rect_dot_height_gain_min': 0.5, 'rect_dot_height_gain_max': 2.0, 'rect_dot_dens_min': 400.0, 'rect_dot_dens_max': 800.0, 'rect_dot_rad_min': 0.02, 'rect_dot_rad_max': 0.06, 'num_tri_min': 0, 'num_tri_max': 5, 'tri_width_min': 0.5, 'tri_width_max': 4.0, 'tri_height_gain_min': 0.5, 'tri_height_gain_max': 2.0, 'num_tri_shaded_min': 0, 'num_tri_shaded_max': 0, 'tri_shaded_width_min': 0.1, 'tri_shaded_width_max': 1.0, 'tri_shaded_height_gain_min': 0.5, 'tri_shaded_height_gain_max': 2.0, 'tri_shaded_fill_dist_min': 0.05, 'tri_shaded_fill_dist_max': 0.2, 'num_tri_fill_min': 0, 'num_tri_fill_max': 0, 'tri_fill_width_min': 0.4, 'tri_fill_width_max': 1.0, 'tri_fill_height_gain_min': 0.5, 'tri_fill_height_gain_max': 3.0, 'num_tri_dash_min': 0, 'num_tri_dash_max': 0, 'tri_dash_width_min': 0.1, 'tri_dash_width_max': 1.0, 'tri_dash_height_gain_min': 0.5, 'tri_dash_height_gain_max': 2.0, 'num_tri_dot_min': 0, 'num_tri_dot_max': 0, 'tri_dot_width_min': 0.1, 'tri_dot_width_max': 1.0, 'tri_dot_height_gain_min': 0.5, 'tri_dot_height_gain_max': 2.0, 'tri_dot_dens_min': 400.0, 'tri_dot_dens_max': 800.0, 'tri_dot_rad_min': 0.02, 'tri_dot_rad_max': 0.06}</dc:source>
        <dc:date>2023-11-21T20:31:36.324174</dc:date>
      </cc:Work>
    </rdf:RDF>
  </metadata>
  <defs/>
  <g fill="none" id="layer1" inkscape:groupmode="layer" inkscape:label="1" stroke="#0000ff" style="display:inline">
    <polygon points="410.3234,857.4045 414.7529,854.5231 418.5892,851.4636 422.3838,847.7861 425.792,843.748 428.581,839.7106 431.1514,835.0937 433.2476,830.2432 434.8488,825.2075 435.8783,820.4097 436.4839,815.1603 436.562,809.8767 436.1119,804.6118 435.2247,799.7856 433.7731,794.7048 431.9768,790.1384 429.5776,785.4303 426.7201,780.9854 423.4327,776.8483 419.7485,773.0603 416.0043,769.8886 411.6619,766.8776 407.0405,764.3154 402.1862,762.2278 397.5126,760.7326 392.348,759.6148 387.0976,759.0186 381.8138,758.9499 376.5497,759.4094 371.7251,760.3052 366.6469,761.7658 361.74,763.7266 357.0535,766.1677 352.9401,768.8434 348.8089,772.1381 345.0275,775.8291 341.6337,779.8794 338.6616,784.2484 336.3054,788.5527 334.2264,793.4108 332.6432,798.4522 331.5717,803.6265 331.0441,808.5051 330.9849,813.7889 331.4538,819.0522 332.3582,823.8752 333.828,828.9508 335.7975,833.8543 338.247,838.5364 340.93,842.6449 344.2321,846.7703 347.9298,850.5451 351.6854,853.7033 356.0385,856.6988 360.669,859.2444 365.5308,861.3147 370.2097,862.7932 375.3783,863.8925 380.6308,864.47 385.5374,864.5338 390.8031,864.0931 395.9985,863.1285 400.7143,861.772 405.6282,859.8288"/>
    <line x1="459.503" x2="185.1028" y1="769.5514" y2="775.5298"/>
    <line x1="177.8329" x2="296.5883" y1="645.2731" y2="503.6158"/>
    <line x1="296.8756" x2="197.9127" y1="503.8566" y2="621.9044"/>
    <line x1="197.051" x2="296.0138" y1="621.182" y2="503.1342"/>
    <line x1="295.7265" x2="216.5563" y1="502.8934" y2="597.3316"/>
    <line x1="217.9926" x2="297.1628" y1="598.5357" y2="504.0974"/>
    <line x1="297.4501" x2="238.0724" y1="504.3382" y2="575.1669"/>
    <line x1="236.0616" x2="295.4393" y1="573.4812" y2="502.6526"/>
    <line x1="295.152" x2="255.5669" y1="502.4117" y2="549.6308"/>
    <line x1="258.1522" x2="297.7373" y1="551.7982" y2="504.5791"/>
    <line x1="298.0246" x2="278.232" y1="504.8199" y2="528.4294"/>
    <line x1="275.0722" x2="294.8648" y1="525.7805" y2="502.1709"/>
    <polygon points="294.5775,501.9301 167.793,656.9575 298.3118,505.0607"/>
    <line x1="296.3011" x2="177.5457" y1="503.375" y2="645.0323"/>
    <polygon points="291.4016,607.0202 564.4747,520.6064 288.7244,598.0532"/>
    <line x1="291.2945" x2="313.2475" y1="606.6615" y2="600.1071"/>
    <line x1="310.7844" x2="288.8315" y1="591.8575" y2="598.4119"/>
    <line x1="288.9386" x2="332.8444" y1="598.7706" y2="585.6618"/>
    <line x1="335.0933" x2="291.1875" y1="593.194" y2="606.3028"/>
    <line x1="291.0804" x2="356.9392" y1="605.9442" y2="586.2809"/>
    <line x1="354.9045" x2="289.0457" y1="579.466" y2="599.1293"/>
    <line x1="289.1528" x2="376.9645" y1="599.488" y2="573.2703"/>
    <line x1="378.785" x2="290.9733" y1="579.3678" y2="605.5855"/>
    <line x1="290.8662" x2="400.6309" y1="605.2268" y2="572.4547"/>
    <line x1="399.0245" x2="289.2598" y1="567.0745" y2="599.8466"/>
    <line x1="289.3669" x2="421.0845" y1="600.2053" y2="560.8788"/>
    <line x1="422.4767" x2="290.7591" y1="565.5416" y2="604.8681"/>
    <line x1="290.652" x2="444.3225" y1="604.5094" y2="558.6285"/>
    <line x1="443.1446" x2="289.474" y1="554.683" y2="600.564"/>
    <line x1="289.5811" x2="465.2046" y1="600.9227" y2="548.4873"/>
    <line x1="466.1684" x2="290.5449" y1="551.7154" y2="604.1508"/>
    <line x1="290.4378" x2="488.0142" y1="603.7921" y2="544.8023"/>
    <line x1="487.2646" x2="289.6882" y1="542.2915" y2="601.2813"/>
    <line x1="289.7953" x2="509.3246" y1="601.64" y2="536.0958"/>
    <line x1="509.8601" x2="290.3307" y1="537.8892" y2="603.4334"/>
    <line x1="290.2236" x2="531.7059" y1="603.0747" y2="530.9761"/>
    <line x1="531.3847" x2="289.9024" y1="529.9" y2="601.9987"/>
    <line x1="290.0095" x2="553.4447" y1="602.3574" y2="523.7043"/>
    <line x1="553.5518" x2="290.1166" y1="524.063" y2="602.7161"/>
    <line x1="329.4384" x2="325.4213" y1="592.7937" y2="1065.0036"/>
    <line x1="500.0043" x2="493.3301" y1="810.0797" y2="780.7074"/>
    <line x1="500.4006" x2="507.0747" y1="779.1008" y2="808.4731"/>
    <polygon points="507.4468,808.3886 433.4613,500.8669 499.6321,810.1643"/>
    <line x1="506.7026" x2="493.3543" y1="808.5577" y2="749.813"/>
    <line x1="487.0282" x2="500.3764" y1="751.2505" y2="809.9952"/>
    <line x1="500.7485" x2="480.7262" y1="809.9106" y2="721.7936"/>
    <line x1="486.3081" x2="506.3304" y1="720.5253" y2="808.6423"/>
    <line x1="505.9583" x2="479.2619" y1="808.7268" y2="691.2375"/>
    <line x1="474.4242" x2="501.1206" y1="692.3367" y2="809.826"/>
    <line x1="501.4928" x2="468.1222" y1="809.7415" y2="662.8798"/>
    <line x1="472.2156" x2="505.5862" y1="661.9497" y2="808.8114"/>
    <line x1="505.214" x2="465.1694" y1="808.8959" y2="632.6619"/>
    <line x1="461.8202" x2="501.8649" y1="633.4229" y2="809.6569"/>
    <line x1="502.237" x2="455.5183" y1="809.5724" y2="603.966"/>
    <line x1="458.1232" x2="504.8419" y1="603.3742" y2="808.9805"/>
    <line x1="504.4698" x2="451.0769" y1="809.065" y2="574.0864"/>
    <line x1="449.2163" x2="502.6091" y1="574.5092" y2="809.4878"/>
    <line x1="502.9813" x2="442.9143" y1="809.4033" y2="545.0523"/>
    <line x1="444.0307" x2="504.0977" y1="544.7986" y2="809.1496"/>
    <line x1="503.7255" x2="436.9845" y1="809.2342" y2="515.5108"/>
    <line x1="436.6123" x2="503.3534" y1="515.5954" y2="809.3187"/>
    <polygon points="453.7565,738.4416 463.4944,874.6546 641.4541,861.9321 631.7162,725.7192"/>
    <polygon points="470.5993,714.7407 442.7496,695.0711 379.3018,784.9052 407.1515,804.5748"/>
    <line x1="578.5115" x2="547.9485" y1="697.9296" y2="328.5916"/>
    <polygon points="531.079,409.0673 535.9172,409.9043 541.1906,410.2883 546.4756,410.1318 551.3453,409.504 556.4972,408.3147 561.1494,406.7446 565.9683,404.5687 570.2225,402.1173 574.2251,399.2735 577.94,396.0629 581.5804,392.2284 584.594,388.352 587.2264,384.2073 589.6078,379.4866 591.3768,374.9064 592.7869,369.8105 593.6692,364.5973 594.0079,359.699 593.8805,354.7906 593.2235,349.5442 592.0343,344.3924 590.4642,339.7402 588.2883,334.9213 585.8369,330.667 582.9931,326.6644 579.5211,322.6767 575.948,319.3091 571.7619,316.0792 567.598,313.4772 562.86,311.1303 558.267,309.3948 553.5301,308.1027 548.3169,307.2203 543.4186,306.8816 538.5102,307.009 533.2638,307.666 528.4756,308.7529 523.8121,310.289 519.3153,312.2604 514.7054,314.8498 510.6821,317.6643 506.6692,321.1071 503.0287,324.9415 500.0151,328.8179 497.1967,333.2915 495.0013,337.6833 493.2323,342.2636 491.8222,347.3595 490.9852,352.1976 490.6012,357.471 490.7286,362.3793 491.3856,367.6257 492.5748,372.7776 494.1449,377.4298 496.3208,382.2487 498.7722,386.5029 501.616,390.5055 504.8266,394.2204 508.6611,397.8609 512.5375,400.8744 516.6822,403.5068 521.4029,405.8882 526.3421,407.7752"/>
    <polygon points="571.3689,439.5509 521.0743,299.2265 322.7285,370.317 373.0231,510.6413"/>
    <line x1="590.9219" x2="298.1938" y1="432.1159" y2="207.3649"/>
    <polygon points="246.8541,191.0922 252.6348,283.105 316.9196,279.0663 311.1389,187.0535"/>
    <line x1="319.9026" x2="271.6153" y1="106.9506" y2="60.5902"/>
    <line x1="271.347" x2="295.4907" y1="60.8697" y2="84.0499"/>
    <line x1="298.4421" x2="274.2984" y1="80.9758" y2="57.7956"/>
    <polygon points="274.5667,57.5161 271.0787,61.1491 429.7565,210.0039"/>
    <line x1="274.0301" x2="322.3174" y1="58.075" y2="104.4354"/>
    <line x1="346.1928" x2="273.7618" y1="127.8951" y2="58.3545"/>
    <line x1="273.4935" x2="370.0681" y1="58.634" y2="151.3547"/>
    <line x1="368.7266" x2="272.1519" y1="152.7521" y2="60.0313"/>
    <line x1="271.8836" x2="344.3146" y1="60.3107" y2="129.8513"/>
    <line x1="393.1386" x2="272.4202" y1="175.6528" y2="59.7518"/>
    <line x1="272.6886" x2="417.5505" y1="59.4723" y2="198.5535"/>
    <line x1="417.8189" x2="272.9569" y1="198.2741" y2="59.1929"/>
    <line x1="273.2252" x2="393.9435" y1="58.9134" y2="174.8144"/>
    <polygon points="422.5789,145.9572 504.6729,231.8149 548.3954,190.009 466.3014,104.1514"/>
    <line x1="452.8989" x2="467.4455" y1="145.8666" y2="113.6343"/>
    <line x1="467.7915" x2="438.6983" y1="113.7905" y2="178.255"/>
    <line x1="442.1581" x2="471.2512" y1="179.8164" y2="115.3519"/>
    <line x1="470.9052" x2="427.2656" y1="115.1957" y2="211.8925"/>
    <line x1="424.4978" x2="468.1374" y1="210.6434" y2="113.9466"/>
    <line x1="468.4834" x2="410.2972" y1="114.1027" y2="243.0318"/>
    <line x1="412.373" x2="470.5593" y1="243.9686" y2="115.0396"/>
    <line x1="470.2133" x2="397.4805" y1="114.8834" y2="276.0447"/>
    <line x1="396.0966" x2="468.8294" y1="275.4201" y2="114.2589"/>
    <line x1="469.1754" x2="381.896" y1="114.415" y2="307.8085"/>
    <line x1="382.588" x2="469.8673" y1="308.1208" y2="114.7273"/>
    <line x1="469.5213" x2="367.6954" y1="114.5712" y2="340.1969"/>
    <polygon points="350.6854,373.9999 358.2046,373.2625 365.2429,371.8544 372.1114,369.7704 378.7455,367.0301 385.0825,363.6593 391.0628,359.6898 396.6298,355.159 401.9859,349.8304 406.5453,344.2867 410.5456,338.327 413.9489,332.0074 416.7234,325.3875 418.8427,318.5298 420.344,311.1252 421.0631,303.9836 421.0862,296.8059 420.413,289.6598 419.05,282.6126 417.0099,275.7309 414.312,269.0794 410.9818,262.721 407.0505,256.7155 402.304,250.8374 396.9823,245.4745 391.4444,240.9081 385.4898,236.9002 379.1746,233.4888 372.5583,230.7059 365.7033,228.5777 358.6742,227.1245 351.1599,226.3388 343.9822,226.3065 336.8352,226.9706 329.7864,228.3246 322.5455,230.4812 315.9044,233.2046 309.2342,236.7527 303.2641,240.7374 297.7086,245.2824 292.3662,250.6247 287.821,256.18 283.836,262.1499 280.4488,268.4782 277.6912,275.1051 275.5894,281.9683 274.1631,289.0029 273.4258,296.1427 273.3844,303.3203 274.0393,310.4682 275.3843,317.5188 277.5317,324.7624 280.2466,331.4069 283.593,337.7568 287.7633,344.0569 292.3011,349.6181 297.6366,354.9674 303.1861,359.5197 309.1509,363.5123 315.4748,366.9076 322.454,369.8012 329.3251,371.8767 336.3651,373.276 343.5077,373.986"/>
    <polygon points="226.0227,312.1672 392.9695,334.3514 401.3017,271.6474 234.3549,249.4632"/>
    <polygon points="206.9888,329.2886 236.9847,299.9003 160.1685,221.4959 130.1726,250.8841"/>
    <line x1="161.3746" x2="287.1998" y1="394.0577" y2="522.3549"/>
    <line x1="287.4648" x2="182.6105" y1="522.095" y2="415.1807"/>
    <line x1="179.9605" x2="284.8148" y1="417.7796" y2="524.6939"/>
    <line x1="284.5498" x2="200.6664" y1="524.9538" y2="439.4223"/>
    <line x1="203.8463" x2="287.7297" y1="436.3036" y2="521.8351"/>
    <line x1="287.9947" x2="225.0822" y1="521.5752" y2="457.4266"/>
    <line x1="221.3723" x2="284.2848" y1="461.0651" y2="525.2137"/>
    <line x1="284.0198" x2="242.0781" y1="525.4735" y2="482.7078"/>
    <line x1="246.318" x2="288.2597" y1="478.5496" y2="521.3153"/>
    <line x1="288.5247" x2="267.5539" y1="521.0554" y2="499.6726"/>
    <line x1="262.784" x2="283.7548" y1="504.3506" y2="525.7334"/>
    <line x1="285.0798" x2="159.2547" y1="524.434" y2="396.1368"/>
    <line x1="138.5488" x2="285.3448" y1="374.4941" y2="524.1741"/>
    <line x1="285.6098" x2="117.843" y1="523.9142" y2="352.8513"/>
    <line x1="118.9029" x2="286.6698" y1="351.8118" y2="522.8747"/>
    <line x1="286.4048" x2="97.6671" y1="523.1345" y2="330.6888"/>
    <line x1="97.1371" x2="285.8748" y1="331.2086" y2="523.6543"/>
    <line x1="286.1398" x2="76.4312" y1="523.3944" y2="309.5658"/>
    <line x1="140.1388" x2="286.9348" y1="372.9347" y2="522.6148"/>
    <polygon points="288.7897,520.7955 76.4312,309.5658 283.4898,525.9933"/>
    <line x1="276.4651" x2="431.8834" y1="522.5187" y2="116.0845"/>
    <line x1="471.5972" x2="457.0506" y1="115.508" y2="147.7402"/>
    <polygon points="471.9431,115.6641 467.0995,113.4782 367.6954,340.1969"/>
    <polygon points="485.9971,194.5081 555.5545,79.8514 487.9891,60.4171"/>
    <polygon points="513.2494,231.9999 531.9765,175.5022 392.5771,129.296 373.85,185.7936"/>
    <polygon points="533.2255,516.9289 534.0557,512.0934 534.4056,507.1997 534.2719,502.2953 533.6557,497.428 532.5632,492.6449 531.0049,487.9928 529.1661,483.8538 526.7585,479.5789 523.9416,475.562 520.7427,471.842 517.193,468.4552 513.327,465.4344 509.1823,462.8091 504.7992,460.6047 500.2203,458.8428 495.4901,457.5404 490.6546,456.7102 485.7609,456.3603 480.8565,456.494 475.9891,457.1102 471.2061,458.2027 466.5539,459.761 462.0779,461.7699 457.8214,464.2099 454.1231,466.8243 450.4032,470.0232 447.0163,473.5729 443.9956,477.4389 441.3703,481.5836 439.1659,485.9667 437.404,490.5456 436.1016,495.2758 435.2714,500.1113 434.9215,505.005 435.0552,509.9094 435.6714,514.7768 436.7639,519.5598 438.3222,524.212 440.161,528.351 442.5686,532.6258 445.3855,536.6428 448.5844,540.3627 452.1341,543.7496 456.0001,546.7703 460.1448,549.3957 464.5279,551.6 469.1068,553.3619 473.837,554.6643 478.6725,555.4945 483.5662,555.8444 488.4706,555.7107 493.3379,555.0945 498.121,554.002 502.7731,552.4437 507.2492,550.4348 511.5057,547.9948 515.5011,545.1475 519.1967,541.9205 522.3107,538.6318 525.3315,534.7658 527.9568,530.6211 530.1612,526.238 531.9231,521.6591"/>
    <polygon points="542.0557,559.8087 537.6397,560.802 533.84,562.4713 530.1213,565.0518 526.9928,568.3229 524.5806,572.1529 522.9819,576.3875 522.2612,580.8561 522.3971,585.0041 523.4089,589.4159 525.2814,593.5368 527.9392,597.2006 530.9744,600.0312 534.8145,602.4274 539.0557,604.0083 543.1502,604.6863 547.6747,604.557 551.7238,603.6462 555.8678,601.8256 559.5648,599.2141 562.6658,595.9169 564.8775,592.4051 566.5116,588.184 567.2698,583.7216 567.1686,579.5726 566.3088,575.5124 564.5404,571.3458 561.9755,567.6163 558.7175,564.4742 554.8976,562.046 550.6698,560.4296 546.2043,559.6901"/>
    <polygon points="467.3821,573.5996 461.9021,575.028 456.9416,576.8541 452.1753,579.1396 447.3322,582.0749 442.8101,585.4841 438.92,589.063 435.3845,592.9925 432.0257,597.5521 429.1443,602.4275 426.9118,607.2188 425.0324,612.5611 423.7732,617.6949 422.9675,623.3004 422.7317,628.9587 423.0281,634.2363 423.896,639.8326 425.3245,645.3127 427.1506,650.2731 429.4361,655.0394 432.3714,659.8826 435.7806,664.4046 439.3594,668.2947 443.5822,672.0683 448.1643,675.3963 452.7239,678.0704 457.8653,680.4449 463.2201,682.2883 468.3622,683.5128 473.9731,684.2808 479.2551,684.483 484.9083,684.1464 490.129,683.3187 495.6091,681.8903 500.5696,680.0641 505.3359,677.7787 510.179,674.8434 514.4105,671.6755 518.5911,667.8553 522.3648,663.6325 525.4855,659.3662 528.3669,654.4908 530.7414,649.3494 532.4788,644.3572 533.8092,638.8525 534.5772,633.2416 534.7795,627.9596 534.4429,622.3064 533.6152,617.0857 532.2991,611.9662 530.3606,606.6451 527.8948,601.5469 524.9269,596.7237 521.4873,592.2248 517.8823,588.3589 513.929,584.85 509.3469,581.5219 504.7872,578.8478 499.6459,576.4733 494.6536,574.736 489.149,573.4055 483.5381,572.6375 478.256,572.4352 472.6029,572.7719"/>
    <line x1="398.3926" x2="249.893" y1="522.2944" y2="539.5476"/>
    <line x1="249.9381" x2="361.3128" y1="539.9358" y2="526.9958"/>
    <line x1="361.1775" x2="249.8028" y1="525.8313" y2="538.7713"/>
    <line x1="249.7577" x2="324.0075" y1="538.3831" y2="529.7565"/>
    <line x1="324.233" x2="249.9832" y1="531.6973" y2="540.324"/>
    <line x1="250.0283" x2="287.1532" y1="540.7121" y2="536.3988"/>
    <line x1="286.8375" x2="249.7126" y1="533.6816" y2="537.9949"/>
    <polygon points="249.6675,537.6068 250.0734,541.1003 416.9325,519.9436"/>
    <line x1="249.8479" x2="398.3475" y1="539.1594" y2="521.9062"/>
    <line x1="411.5762" x2="639.8705" y1="503.734" y2="879.6687"/>
    <polygon points="623.1222,627.8031 572.5285,492.7621 482.4805,605.3993"/>
    <polygon points="717.2696,581.9011 545.6641,401.8394 443.5274,499.1795 615.1328,679.2412"/>
    <polygon points="348.983,752.4305 265.3025,677.9753 126.1685,834.3487 209.8491,908.8038"/>
  </g>
</svg>
