<?xml version="1.0" encoding="utf-8" ?>
<svg xmlns="http://www.w3.org/2000/svg" xmlns:cc="http://creativecommons.org/ns" xmlns:dc="http://purl.org/dc/elements/1.1/" xmlns:ev="http://www.w3.org/2001/xml-events" xmlns:inkscape="http://www.inkscape.org/namespaces/inkscape" xmlns:rdf="http://www.w3.org/1999/02/22-rdf-syntax-ns" xmlns:sodipodi="http://sodipodi.sourceforge.net/DTD/sodipodi-0.dtd" xmlns:xlink="http://www.w3.org/1999/xlink" baseProfile="tiny" height="29.7cm" version="1.2" viewBox="0 0 793.7007874015749 1122.5196850393702" width="21.0cm">
  <metadata>
    <rdf:RDF>
      <cc:Work>
        <dc:format>image/svg+xml</dc:format>
        <dc:source>Vsketch with params {'__seed__': 1956357155, 'debug_show_shapes': False, 'debug_draw': False, 'occult': False, 'scale': 1.0, 'area_type': 'RECT', 'width': 12.0, 'height': 14.0, 'num_circ_min': 2, 'num_circ_max': 10, 'circ_rad_min': 0.5, 'circ_rad_max': 2.0, 'num_circ_shaded_min': 0, 'num_circ_shaded_max': 0, 'circ_shaded_rad_min': 0.05, 'circ_shaded_rad_max': 0.5, 'circ_shaded_fill_dist_min': 0.05, 'circ_shaded_fill_dist_max': 0.2, 'num_circ_fill_min': 0, 'num_circ_fill_max': 0, 'circ_fill_rad_min': 0.05, 'circ_fill_rad_max': 0.5, 'num_circ_dash_min': 0, 'num_circ_dash_max': 0, 'circ_dash_rad_min': 0.05, 'circ_dash_rad_max': 0.5, 'num_circ_dot_min': 0, 'num_circ_dot_max': 0, 'circ_dot_rad_min': 0.05, 'circ_dot_rad_max': 0.5, 'circ_dot_dens_min': 400.0, 'circ_dot_dens_max': 800.0, 'circ_dot_dot_rad_min': 0.02, 'circ_dot_dot_rad_max': 0.06, 'num_circ_half_fill_min': 0, 'num_circ_half_fill_max': 0, 'circ_half_fill_rad_min': 0.05, 'circ_half_fill_rad_max': 2.0, 'circ_half_fill_gain_min': 0.4, 'circ_half_fill_gain_max': 0.6, 'num_circ_outer_fill_min': 0, 'num_circ_outer_fill_max': 10, 'circ_outer_fill_rad_min': 0.05, 'circ_outer_fill_rad_max': 2.0, 'circ_outer_fill_gain_min': 0.0, 'circ_outer_fill_gain_max': 0.2, 'num_line_min': 5, 'num_line_max': 8, 'line_length_min': 5.0, 'line_length_max': 13.0, 'num_thick_line_min': 0, 'num_thick_line_max': 0, 'thick_line_length_min': 3.0, 'thick_line_length_max': 7.0, 'num_tri_line_min': 4, 'num_tri_line_max': 8, 'tri_line_length_min': 4.0, 'tri_line_length_max': 10.0, 'tri_line_width_gain_min': 0.02, 'tri_line_width_gain_max': 0.04, 'num_rect_min': 5, 'num_rect_max': 10, 'rect_width_min': 1.0, 'rect_width_max': 4.0, 'rect_height_gain_min': 0.3, 'rect_height_gain_max': 3.0, 'num_rect_shaded_min': 0, 'num_rect_shaded_max': 0, 'rect_shaded_width_min': 0.1, 'rect_shaded_width_max': 1.0, 'rect_shaded_height_gain_min': 0.5, 'rect_shaded_height_gain_max': 2.0, 'rect_shaded_fill_dist_min': 0.05, 'rect_shaded_fill_dist_max': 0.2, 'num_rect_fill_min': 0, 'num_rect_fill_max': 0, 'rect_fill_width_min': 0.1, 'rect_fill_width_max': 1.0, 'rect_fill_height_gain_min': 0.5, 'rect_fill_height_gain_max': 2.0, 'num_rect_dash_min': 0, 'num_rect_dash_max': 0, 'rect_dash_width_min': 0.1, 'rect_dash_width_max': 1.0, 'rect_dash_height_gain_min': 0.5, 'rect_dash_height_gain_max': 2.0, 'num_rect_dot_min': 0, 'num_rect_dot_max': 0, 'rect_dot_width_min': 0.1, 'rect_dot_width_max': 1.0, 'rect_dot_height_gain_min': 0.5, 'rect_dot_height_gain_max': 2.0, 'rect_dot_dens_min': 400.0, 'rect_dot_dens_max': 800.0, 'rect_dot_rad_min': 0.02, 'rect_dot_rad_max': 0.06, 'num_tri_min': 0, 'num_tri_max': 5, 'tri_width_min': 0.5, 'tri_width_max': 4.0, 'tri_height_gain_min': 0.5, 'tri_height_gain_max': 2.0, 'num_tri_shaded_min': 0, 'num_tri_shaded_max': 0, 'tri_shaded_width_min': 0.1, 'tri_shaded_width_max': 1.0, 'tri_shaded_height_gain_min': 0.5, 'tri_shaded_height_gain_max': 2.0, 'tri_shaded_fill_dist_min': 0.05, 'tri_shaded_fill_dist_max': 0.2, 'num_tri_fill_min': 0, 'num_tri_fill_max': 0, 'tri_fill_width_min': 0.4, 'tri_fill_width_max': 1.0, 'tri_fill_height_gain_min': 0.5, 'tri_fill_height_gain_max': 3.0, 'num_tri_dash_min': 0, 'num_tri_dash_max': 0, 'tri_dash_width_min': 0.1, 'tri_dash_width_max': 1.0, 'tri_dash_height_gain_min': 0.5, 'tri_dash_height_gain_max': 2.0, 'num_tri_dot_min': 0, 'num_tri_dot_max': 0, 'tri_dot_width_min': 0.1, 'tri_dot_width_max': 1.0, 'tri_dot_height_gain_min': 0.5, 'tri_dot_height_gain_max': 2.0, 'tri_dot_dens_min': 400.0, 'tri_dot_dens_max': 800.0, 'tri_dot_rad_min': 0.02, 'tri_dot_rad_max': 0.06}</dc:source>
        <dc:date>2023-11-21T20:28:47.413906</dc:date>
      </cc:Work>
    </rdf:RDF>
  </metadata>
  <defs/>
  <g fill="none" id="layer1" inkscape:groupmode="layer" inkscape:label="1" stroke="#0000ff" style="display:inline">
    <polygon points="457.4492,390.5814 461.3473,394.6794 466.2924,398.1327 471.4822,400.3809 477.0085,401.5846 482.6632,401.6985 488.2334,400.7183 493.5096,398.6809 498.293,395.663 502.4036,391.7782 505.6866,387.1728 508.1378,381.6618 509.3594,376.1394 509.4916,370.4852 508.5295,364.9118 506.5092,359.6291 503.5068,354.8359 499.6354,350.7128 495.0406,347.4148 489.8955,345.0662 484.3937,343.7553 478.7423,343.5316 473.154,344.4033 467.8393,346.3378 462.6968,349.4898 458.5612,353.3479 455.2483,357.932 452.7615,363.427 451.5041,368.9413 451.3353,374.5946 452.2613,380.1741 454.2474,385.4698"/>
    <polygon points="459.8529,368.2942 463.3898,364.8927 466.5663,361.1525 469.1506,357.4321 471.5468,353.1498 473.3657,349.0011 474.8918,344.3373 475.9405,339.5436 476.5014,334.6687 476.5686,329.762 476.1919,325.2478 475.3123,320.4202 473.9512,315.7057 472.2793,311.4956 470.0351,307.1317 467.5832,303.3227 464.5402,299.4732 461.125,295.9495 457.3725,292.7875 453.6421,290.2176 449.3506,287.838 445.1948,286.0352 440.5252,284.5273 436.0999,283.5591 431.2272,282.9794 426.3209,282.8931 421.8052,283.2523 416.9742,284.1132 412.2544,285.456 407.6938,287.2671 403.3387,289.5282 399.5393,291.9949 395.9856,294.804 392.4486,298.2055 389.5029,301.6468 386.6878,305.6661 384.2916,309.9484 382.4727,314.0971 380.9467,318.7608 379.8979,323.5546 379.337,328.4295 379.2698,333.3361 379.6969,338.2246 380.5261,342.678 381.7657,347.035 383.5591,351.6026 385.8033,355.9665 388.4754,360.0823 391.2983,363.625 394.7134,367.1487 398.4659,370.3107 402.1963,372.8806 406.1495,375.0926 410.6436,377.0629 415.3133,378.5709 419.7385,379.539 424.6112,380.1188 429.5176,380.2051 434.4077,379.797 438.8642,378.985 443.226,377.7623 447.8005,375.9866 451.8449,373.9463 455.9915,371.3223"/>
    <polygon points="473.1183,348.4043 474.5009,344.0868 475.5343,339.2858 476.0742,334.4047 476.1296,329.8716 475.7092,324.9786 474.8814,320.5214 473.6388,316.1616 471.8374,311.5929 469.5808,307.2311 467.114,303.4276 464.0518,299.5883 460.8919,296.3375 457.4408,293.3977 453.409,290.5939 449.4518,288.382 444.9513,286.4164 440.6393,285.0168 435.8424,283.9647 430.9634,283.4057 426.4305,283.3325 421.536,283.7337 416.7077,284.6305 412.3527,285.8902 407.7912,287.7094 403.4383,289.9831 399.6444,292.4647 395.8172,295.542 392.5788,298.7146 389.6525,302.1771 386.8645,306.22 384.502,310.5253 382.7202,314.6939 381.2407,319.3767 380.3041,323.8123 379.7881,328.3163 379.7089,333.2266 380.0792,337.7449 380.9571,342.5768 382.1997,346.9366 384.0011,351.5052 386.0684,355.5399 388.7244,359.6706 391.7867,363.5099 394.9465,366.7606 398.6974,369.9305 402.4295,372.5042 406.3867,374.7162 410.8871,376.6818 415.1991,378.0813 419.996,379.1335 424.875,379.6925 429.4079,379.7656 434.3024,379.3644 438.7629,378.5541 443.1275,377.3286 447.7032,375.5451 451.7459,373.4936 455.887,370.8537 459.4532,368.0547 463.0013,364.6595 466.1859,360.921 468.9739,356.8782 471.1704,352.9124"/>
    <polygon points="473.1139,320.7424 471.8467,316.3925 470.1619,312.1867 468.0755,308.1649 465.6073,304.3654 462.7809,300.8244 459.6231,297.5754 456.1638,294.6494 452.1144,291.8762 448.1359,289.7085 443.9651,287.9386 439.6419,286.5833 435.2071,285.6554 430.7031,285.1638 426.1726,285.1132 421.6588,285.504 417.2044,286.3325 412.8519,287.5909 408.6427,289.2672 404.6167,291.3454 400.8122,293.8058 396.9825,296.8753 393.7529,300.0529 390.848,303.5299 388.2956,307.2733 386.1198,311.2474 384.3414,315.4146 382.9773,319.7351 382.0404,324.1679 381.5397,328.6709 381.4798,333.2013 381.8615,337.7159 382.681,342.172 383.9305,346.527 385.5982,350.7397 387.6682,354.7699 390.1209,358.5794 392.9329,362.1319 396.0775,365.3936 399.5249,368.3337 403.563,371.1233 407.5327,373.3071 411.6962,375.094 416.0139,376.4669 420.4448,377.4128 424.9468,377.9227 429.477,377.9917 433.9925,377.6193 438.4501,376.8088 442.8077,375.5682 447.0238,373.909 451.0582,371.8472 454.8726,369.4022 458.7147,366.3483 461.9573,363.1838 464.8762,359.7187 467.4439,355.9857 469.6358,352.0204 471.4311,347.8606 472.8127,343.5456 473.7676,339.1166 474.2867,334.6157 474.3649,330.0856 474.0016,325.5695"/>
    <polygon points="464.6343,298.9108 461.1933,295.4092 457.7212,292.4966 453.6745,289.717 449.3706,287.3553 445.2066,285.5665 440.5308,284.0706 435.7289,283.0489 430.8491,282.5116 425.94,282.4641 421.0506,282.9067 416.5972,283.7467 411.8825,285.1155 407.328,286.948 403.3054,289.0353 399.185,291.7044 395.6354,294.5219 392.1009,297.9291 388.9241,301.6721 386.1368,305.7134 383.7667,310.0127 381.8376,314.5272 380.3688,319.2116 379.4342,323.6462 378.9122,328.148 378.8174,333.0564 379.2131,337.9497 380.0951,342.7792 381.3336,347.1386 383.1222,351.7105 385.3582,356.0811 388.0193,360.2066 391.0789,364.046 394.2304,367.3027 397.9673,370.4867 402.0032,373.2818 405.9594,375.4925 410.4551,377.4649 415.1252,378.9787 419.9231,380.0189 424.4239,380.5495 429.3321,380.6537 434.2262,380.2675 439.0573,379.3947 443.4192,378.1646 447.9945,376.3848 452.3693,374.1572 456.5,371.504 460.3452,368.4518 463.8666,365.0311 467.0289,361.276 469.602,357.5453 471.9886,353.2551 473.935,348.7481 475.4219,344.0693 476.3735,339.6384 476.939,334.7617 477.0148,329.853 476.6004,324.9612 475.7861,320.503 474.4446,315.7805 472.6384,311.2155 470.3856,306.8536 467.7086,302.7383"/>
    <polygon points="444.5744,287.2205 440.2632,285.8321 435.8391,284.8619 430.9658,284.293 426.4372,284.2181 421.9221,284.5762 417.0939,285.4489 412.7392,286.694 408.5233,288.3494 404.4848,290.4 400.3529,293.0457 396.5168,296.1047 393.2742,299.2669 390.3486,302.7244 387.7666,306.4457 385.5519,310.3966 383.5907,314.8939 382.1053,319.57 381.1704,324.0017 380.6632,328.5025 380.6016,333.4085 380.9957,337.9206 381.819,342.3744 383.1866,347.0863 384.8756,351.2889 386.9583,355.3108 389.4158,359.1154 392.2255,362.6678 395.3618,365.9356 399.0946,369.1197 402.8158,371.7017 406.7667,373.9164 411.264,375.8776 415.9401,377.363 420.3719,378.2979 425.2495,378.8279 429.7786,378.8667 434.2907,378.4726 438.7445,377.6493 443.4564,376.2817 447.659,374.5927 451.681,372.51 455.4856,370.0525 459.038,367.2428 462.3057,364.1065 465.4899,360.3737 468.0718,356.6525 470.2865,352.7016 472.2478,348.2043 473.6362,343.8931 474.668,339.0964 475.1753,334.5957 475.2368,329.6897 474.8428,325.1776 474.0194,320.7238 472.7743,316.369 471.1189,312.1532 469.0683,308.1147 466.4226,303.9827 463.3636,300.1467 460.2014,296.9041 456.7439,293.9784 453.0226,291.3965 448.7332,289.0145"/>
    <polygon points="445.0966,285.053 440.4165,283.5828 435.614,282.5824 430.7362,282.0616 425.8307,282.0255 421.3197,282.4228 416.4961,283.3157 411.7843,284.6811 407.2306,286.5054 402.8796,288.771 399.0799,291.2348 395.2363,294.2829 391.7127,297.6959 388.5438,301.4406 385.7605,305.4802 383.3901,309.7751 381.4559,314.2832 379.9768,318.9605 378.9673,323.7611 378.4372,328.6379 378.3917,333.5433 378.7804,338.0551 379.6642,342.8804 381.0205,347.5947 382.8363,352.1519 385.0936,356.5073 387.5501,360.3116 390.5908,364.161 393.9972,367.6911 397.7358,370.8672 401.7701,373.6581 406.0604,376.0366 410.5649,377.9794 414.8748,379.3695 419.6655,380.4247 424.5371,381.0012 429.4418,381.0933 434.3316,380.7002 439.1586,379.8256 443.5176,378.5984 448.0919,376.8261 452.4686,374.6104 456.6048,371.9729 460.46,368.9395 463.9966,365.5399 467.1797,361.8073 469.9784,357.7784 472.3651,353.4925 474.3164,348.9918 475.8133,344.3202 476.8412,339.5235 477.3898,334.6487 477.4539,329.7435 477.0824,325.2303 476.2171,320.4016 474.8786,315.6822 473.0803,311.1181 470.8396,306.7542 468.1785,302.6331 465.1231,298.7952 461.7034,295.2782 457.9527,292.1164 453.9078,289.3408 449.6084,286.9786"/>
    <polygon points="400.3061,292.5356 396.4503,295.5734 393.1849,298.7152 390.2317,302.152 387.4154,306.1724 385.0263,310.4604 383.222,314.6171 381.8194,318.9259 380.7678,323.7207 380.2384,328.221 380.1485,333.1288 380.5624,338.02 381.388,342.4756 382.7541,347.1903 384.4383,351.3971 386.7032,355.752 389.1804,359.5463 392.2562,363.3718 395.43,366.6061 398.8959,369.5252 402.9439,372.3016 407.2553,374.6483 411.4296,376.4114 415.7521,377.7714 420.184,378.7159 424.6853,379.2364 429.5934,379.3166 434.4837,378.893 438.9376,378.0586 443.6497,376.6832 447.8531,374.9907 452.2035,372.7172 455.9929,370.2325 459.53,367.4001 462.783,364.2455 465.7226,360.797 468.523,356.7655 470.8952,352.4681 472.683,348.3043 474.0686,343.99 475.0393,339.5638 475.6128,334.6887 475.6958,330.1581 475.3012,325.2653 474.4932,320.8066 473.2666,316.4444 471.4783,311.873 469.4192,307.8365 466.7683,303.7052 463.957,300.1513 460.5467,296.6208 456.7922,293.4586 453.0554,290.8955 449.0926,288.6979 444.586,286.7522 440.2689,285.3753 435.468,284.3521 430.9646,283.8494 426.4338,283.7753 421.5418,284.1796 417.0847,284.9964 412.3672,286.3531 408.1571,288.029 404.1247,290.096"/>
    <line x1="389.3701" x2="428.8126" y1="282.3671" y2="193.7472"/>
    <line x1="429.1618" x2="397.6078" y1="193.9027" y2="264.7985"/>
    <line x1="391.6718" x2="423.2259" y1="262.1566" y2="191.2607"/>
    <line x1="422.8767" x2="399.2112" y1="191.1053" y2="244.2772"/>
    <line x1="405.8454" x2="429.5109" y1="247.23" y2="194.0581"/>
    <line x1="429.8601" x2="414.0831" y1="194.2135" y2="229.6614"/>
    <line x1="406.7505" x2="422.5275" y1="226.3978" y2="190.9499"/>
    <line x1="422.1783" x2="414.2898" y1="190.7945" y2="208.5185"/>
    <line x1="422.3208" x2="430.2093" y1="212.0928" y2="194.3689"/>
    <line x1="428.4634" x2="381.1324" y1="193.5918" y2="299.9356"/>
    <line x1="376.5932" x2="423.9242" y1="297.9153" y2="191.5715"/>
    <line x1="423.575" x2="384.1325" y1="191.4161" y2="280.036"/>
    <polygon points="385.409,305.2069 383.0317,309.5004 381.0867,314.0064 379.5927,318.6812 378.5642,323.48 378.0109,328.3565 377.9383,333.2637 378.3471,338.1545 379.2332,342.9816 380.5882,347.6986 382.3991,352.2601 384.6483,356.6221 387.3142,360.7427 390.3712,364.5821 393.7898,368.1034 397.5371,371.2726 401.577,374.0593 405.8706,376.4366 410.3765,378.3816 415.0513,379.8756 419.8501,380.9041 424.7266,381.4574 429.6339,381.53 434.5246,381.1212 439.3517,380.2351 444.0687,378.8801 448.6302,377.0692 452.9922,374.82 457.1128,372.1541 460.9522,369.0971 464.4735,365.6785 467.6427,361.9312 470.4294,357.8913 472.8067,353.5977 474.7517,349.0918 476.2457,344.417 477.2742,339.6182 477.8275,334.7417 477.9001,329.8344 477.4914,324.9437 476.6052,320.1166 475.2502,315.3996 473.4394,310.8381 471.1902,306.4761 468.5242,302.3555 465.4672,298.5161 462.0486,294.9948 458.3013,291.8256 454.2614,289.0389 449.9679,286.6616 445.462,284.7166 440.7871,283.2226 435.9883,282.1941 431.1118,281.6408 426.2046,281.5682 421.3138,281.9769 416.4867,282.8631 411.7697,284.2181 407.2082,286.0289 402.8462,288.2782 398.7256,290.9441 394.8862,294.0011 391.365,297.4197 388.1957,301.167"/>
    <line x1="372.8947" x2="428.1143" y1="317.5042" y2="193.4364"/>
    <line x1="427.7651" x2="364.657" y1="193.281" y2="335.0727"/>
    <line x1="361.5145" x2="424.6225" y1="333.6741" y2="191.8824"/>
    <line x1="424.9717" x2="353.9752" y1="192.0378" y2="351.5534"/>
    <line x1="356.4194" x2="427.4159" y1="352.6413" y2="193.1256"/>
    <line x1="427.0667" x2="348.1817" y1="192.9702" y2="370.2099"/>
    <line x1="346.4358" x2="425.3209" y1="369.4328" y2="192.1932"/>
    <line x1="425.6701" x2="338.8965" y1="192.3486" y2="387.3122"/>
    <line x1="339.944" x2="426.7176" y1="387.7784" y2="192.8148"/>
    <line x1="426.3684" x2="331.7063" y1="192.6594" y2="405.347"/>
    <line x1="331.3572" x2="426.0192" y1="405.1916" y2="192.504"/>
    <line x1="424.2734" x2="369.0538" y1="191.7269" y2="315.7947"/>
    <polygon points="383.4933,357.2777 386.3742,361.7093 389.4443,365.539 392.8662,369.058 396.6085,372.2341 400.9578,375.2379 405.2533,377.613 409.756,379.567 414.4247,381.0822 419.5892,382.2072 424.8421,382.7952 429.7502,382.8548 434.6415,382.4454 439.8391,381.4845 444.9103,379.9942 449.4592,378.1502 453.8111,375.8801 457.9264,373.2048 462.0504,369.8987 465.5568,366.4639 468.9473,362.4089 471.7069,358.3496 474.0662,354.0454 476.0037,349.5356 477.5982,344.4962 478.6076,339.6926 479.1536,334.8147 479.2313,329.9069 478.7905,324.6396 477.8981,319.813 476.5489,315.0937 474.5992,310.1807 472.3452,305.8205 469.685,301.6954 466.6431,297.8432 462.9722,294.0402 459.2299,290.8641 454.8807,287.8603 450.2456,285.3197 445.7287,283.3988 440.6834,281.8228 435.8763,280.8311 430.9963,280.303 426.0883,280.2434 421.1969,280.6527 415.9994,281.6137 411.285,282.9803 406.7227,284.7908 402.0273,287.2181 397.9121,289.8934 393.788,293.1995 390.2816,296.6343 387.1193,300.3883 384.1316,304.7485 381.7722,309.0527 379.8348,313.5626 378.3368,318.2369 377.2308,323.4055 376.6848,328.2835 376.6071,333.1913 376.9985,338.0841 377.9403,343.2852 379.2895,348.0045 381.2392,352.9175"/>
    <polygon points="389.8855,359.0104 392.9643,362.8355 396.1471,366.0631 399.6265,368.9684 403.3701,371.5244 407.3428,373.7071 411.5077,375.4962 415.8259,376.875 420.2569,377.8305 425.1366,378.3779 429.6692,378.4279 434.1855,378.0401 438.6433,377.2183 443.0009,375.9701 447.2178,374.3071 451.2544,372.2449 455.0732,369.8028 458.9231,366.7549 462.1762,363.5982 465.1094,360.1423 467.6955,356.4194 469.9101,352.4644 471.7327,348.314 473.2451,343.6424 474.2007,339.2114 474.7241,334.7088 474.798,329.7991 474.4103,325.2828 473.5884,320.825 472.2173,316.11 470.5204,311.9067 468.4258,307.8868 465.9529,304.0878 463.125,300.5452 459.9683,297.2921 456.5124,294.3589 452.7896,291.7728 448.8345,289.5582 444.6842,287.7356 440.0126,286.2232 435.5815,285.2676 431.079,284.7442 426.5469,284.6577 421.6529,285.058 417.1951,285.8799 412.8375,287.1281 408.6206,288.7911 404.584,290.8532 400.4579,293.5154 396.6328,296.5942 393.4052,299.777 390.4999,303.2564 387.9439,306.9999 385.7612,310.9727 383.9721,315.1376 382.5933,319.4557 381.6378,323.8868 381.1143,328.3893 381.0278,332.9214 381.4282,337.8154 382.25,342.2732 383.6211,346.9882 385.318,351.1915 387.4127,355.2114"/>
    <polygon points="410.188,378.7837 414.8633,380.2835 419.6622,381.3218 424.5393,381.8887 429.826,381.966 434.7176,381.5419 439.5448,380.6444 444.2619,379.2819 449.1676,377.3095 453.5149,375.0274 457.6199,372.3335 461.4436,369.2535 464.9498,365.8163 468.1053,362.0546 470.8802,358.0039 473.2482,353.7028 475.1869,349.1918 476.678,344.5138 477.7671,339.3398 478.2883,334.4576 478.3325,329.5479 477.8993,324.6571 476.9927,319.8316 475.6213,315.117 473.6397,310.2151 471.3495,305.872 468.648,301.7721 465.5608,297.9542 462.117,294.4544 458.3494,291.306 454.2936,288.5387 449.988,286.1787 445.1187,284.1183 440.4269,282.6711 435.6166,281.6867 430.7334,281.1747 425.8236,281.1396 420.9337,281.582 416.1098,282.4977 411.3979,283.8778 406.8424,285.7095 402.4865,287.9753 398.3714,290.6537 394.5362,293.7195 391.0172,297.1435 387.8477,300.8934 385.0576,304.9335 382.6735,309.2258 380.7179,313.7295 379.2093,318.4019 378.162,323.1989 377.586,328.0749 377.4866,332.9839 377.9137,338.2539 378.8022,343.0828 380.1559,347.8024 381.9619,352.3681 384.2032,356.7367 386.8585,360.8667 390.1521,365.0028 393.5828,368.5154 397.3386,371.678 401.384,374.4604 405.6807,376.8365"/>
    <polygon points="419.7771,381.7893 424.6524,382.3398 429.5581,382.4184 434.4485,382.0242 439.646,381.0754 444.3602,379.7161 448.9217,377.9093 453.6146,375.4822 457.7253,372.804 461.5592,369.7423 465.0804,366.3258 468.2562,362.5861 471.0573,358.558 473.4574,354.2789 475.4344,349.7885 477.0692,344.7645 478.1133,339.9706 478.7159,334.7217 478.7854,329.8159 478.3821,324.9262 477.51,320.0981 476.177,315.3763 474.2404,310.4607 471.9946,306.0986 469.3393,301.9729 466.299,298.1222 462.9021,294.582 459.1802,291.3854 454.848,288.361 450.5645,285.9688 445.7173,283.8668 441.0434,282.3746 436.2476,281.3394 431.3744,280.7708 426.469,280.6741 421.5772,281.0501 416.3762,281.9796 411.657,283.3214 407.0889,285.1113 402.387,287.521 398.2663,290.1839 394.4212,293.2313 390.8873,296.6348 387.4674,300.6619 384.6813,304.7004 382.1309,309.3274 380.204,313.8395 378.7205,318.5161 377.6942,323.3139 377.1111,328.5649 377.0598,333.4709 377.4812,338.3591 378.3713,343.184 379.7218,347.9007 381.5202,352.4655 383.7497,356.836 386.6091,361.2787 389.6636,365.1181 393.0736,368.6457 397.1071,372.0582 401.1508,374.8367 405.4432,377.213 410.2981,379.297 414.9775,380.7719"/>
    <polygon points="421.7104,384.9926 419.3456,390.9598 417.5884,397.1333 416.4564,403.4515 415.9609,409.8511 416.0806,415.8914 416.829,422.2663 418.2103,428.5347 420.076,434.2808 422.6407,440.165 425.78,445.7636 429.4627,451.0208 433.6518,455.8841 438.0198,460.0578 443.0685,464.0215 448.1597,467.2741 453.8782,470.1893 459.8593,472.5189 465.6748,474.1557 471.993,475.2877 478.015,475.7718 484.4328,475.6636 490.8078,474.9151 497.0762,473.5339 502.8223,471.6681 508.7064,469.1035 514.3051,465.9641 519.5623,462.2815 524.4256,458.0923 528.8462,453.4385 532.563,448.6756 536.0028,443.2564 538.8843,437.5208 541.1787,431.5261 542.7812,425.7011 543.8292,419.7512 544.3247,413.3516 544.1787,406.9345 543.3927,400.5641 541.9746,394.3039 540.0751,388.5689 537.4759,382.6999 534.5056,377.4391 530.823,372.1818 526.8935,367.5928 522.2658,363.1449 517.5248,359.4002 512.1259,355.9286 506.7516,353.1689 500.7843,350.8041 494.6108,349.0469 488.6672,347.964 482.2706,347.4309 475.8528,347.5391 469.4778,348.2876 463.2095,349.6688 457.1103,351.669 451.2414,354.2682 445.9805,357.2385 440.7233,360.9212 436.1343,364.8506 431.6863,369.4783 427.9417,374.2193 424.6592,379.2912"/>
    <polygon points="414.7459,415.6118 417.9789,410.0646 420.6589,404.2301 422.7606,398.1632 424.3337,391.5498 425.1887,385.1864 425.4227,378.7701 425.0336,372.3613 424.0249,366.0204 422.4063,359.8072 420.0446,353.4327 417.2243,347.6647 413.8581,342.1973 409.7341,336.7931 405.3492,332.1031 400.5302,327.8604 395.3226,324.1048 389.7754,320.8718 383.9408,318.1918 377.874,316.0901 371.2606,314.517 364.8972,313.662 358.4808,313.428 352.0721,313.8171 345.7312,314.8258 339.1578,316.5583 333.1435,318.8061 327.3755,321.6264 321.9081,324.9926 316.5039,329.1166 311.8139,333.5015 307.5711,338.3205 303.8155,343.5281 300.5825,349.0753 297.9026,354.9098 295.8009,360.9767 294.2973,367.2187 293.4059,373.5772 293.1353,379.992 293.5279,386.7786 294.5365,393.1195 296.1552,399.3327 298.3686,405.3597 301.3372,411.4752 304.7034,416.9426 308.5838,422.0579 312.9419,426.7728 318.0313,431.2795 323.2389,435.0351 328.7861,438.2681 334.6206,440.9481 340.6875,443.0498 346.9295,444.5534 353.6643,445.4779 360.0806,445.7119 366.4894,445.3228 372.8303,444.3141 379.0435,442.6955 385.0705,440.4821 391.186,437.5135 396.6534,434.1473 401.7686,430.2669 406.4836,425.9088 410.9903,420.8194"/>
    <line x1="373.5252" x2="719.5332" y1="420.6133" y2="506.6575"/>
    <polygon points="572.6557,422.3189 504.5187,341.8142 377.801,449.0647 445.938,529.5693"/>
    <line x1="540.258" x2="399.1169" y1="431.6588" y2="808.5214"/>
    <polygon points="393.7838,783.9184 399.8832,780.9149 405.3334,777.5194 410.4301,773.6133 415.1256,769.2331 419.376,764.4199 423.3473,758.9014 426.5612,753.3422 429.2231,747.4986 431.4122,741.0619 432.8651,734.807 433.707,728.4411 433.9299,722.0236 433.4892,715.2391 432.4379,708.9044 430.7795,702.7009 428.5297,696.6865 425.7093,690.9177 422.3449,685.4483 418.4679,680.3294 413.8444,675.3447 409.0311,671.0943 403.8297,667.3287 397.9535,663.9092 392.1098,661.2473 386.0364,659.1624 379.4183,657.6053 373.0524,656.7634 366.6349,656.5404 359.8504,656.9811 353.5157,658.0324 347.3121,659.6908 341.2978,661.9407 335.1984,664.9441 329.7482,668.3396 324.6515,672.2458 319.956,676.6259 315.4703,681.7349 311.7344,686.9576 308.5204,692.5168 305.8586,698.3605 303.6694,704.7972 302.2165,711.052 301.3746,717.418 301.1517,723.8355 301.5924,730.62 302.6437,736.9547 304.3021,743.1582 306.5519,749.1726 309.5554,755.2719 312.9509,760.7221 316.857,765.8188 321.2372,770.5144 326.3462,775.0001 331.5689,778.736 337.1281,781.9499 342.9718,784.6118 349.0452,786.6967 355.6633,788.2538 362.0293,789.0957 368.4468,789.3187 374.8558,788.9207 381.1964,787.9054 387.7695,786.1683"/>
    <polygon points="373.7106,784.4058 469.4825,705.9802 354.9402,659.0451"/>
    <polygon points="418.415,763.6226 422.1715,758.4203 425.398,752.8737 428.0631,747.0366 430.1412,740.9656 431.6118,734.7196 432.4609,728.3593 432.6848,722.3238 432.3092,715.918 431.3052,709.5803 429.6826,703.3721 427.4572,697.3536 424.6504,691.5832 421.2896,686.1169 417.4074,681.0078 413.0413,676.3054 408.2338,672.0554 403.0315,668.2989 397.4849,665.0724 391.6478,662.4072 385.9394,660.4348 379.7021,658.9279 373.3467,658.042 366.9351,657.7856 360.5293,658.1612 354.1916,659.1651 347.9833,660.7877 341.9648,663.0132 336.1945,665.8199 330.7282,669.1807 325.6191,673.063 320.9167,677.4291 316.6666,682.2365 312.9101,687.4388 309.6836,692.9854 307.0185,698.8225 304.9405,704.8935 303.4698,711.1395 302.6207,717.4998 302.3968,723.5353 302.7724,729.941 303.7764,736.2788 305.399,742.487 307.6244,748.5055 310.4312,754.2759 313.792,759.7421 317.6743,764.8513 322.0403,769.5537 326.8478,773.8037 332.0501,777.5602 337.5967,780.7867 343.4338,783.4519 349.5048,785.5299 355.7507,787.0006 362.1111,787.8497 368.5241,788.0689 374.9276,787.6562 381.2594,786.6155 387.4581,784.957 393.4636,782.6967 399.2176,779.8565 404.6643,776.4641 409.7509,772.5523 414.1649,768.43"/>
    <polygon points="426.0857,753.3556 428.7663,747.52 430.8668,741.4515 432.3675,735.2075 433.254,728.8471 433.5181,722.4308 433.1571,716.0191 432.1745,709.6729 430.5796,703.4523 428.2404,697.0682 425.4387,691.2897 421.8751,685.4992 417.9789,680.3943 413.6049,675.6924 408.7946,671.438 403.5934,667.6714 398.0507,664.4283 392.2189,661.7394 386.1534,659.6301 379.9115,658.1205 373.5525,657.2249 366.7586,656.955 360.3486,657.3436 354.0067,658.3534 347.793,659.975 341.4189,662.3417 335.6526,665.1681 330.1883,668.5417 325.0779,672.4306 320.3697,676.7978 315.8726,681.8974 312.1283,687.1147 308.909,692.6713 306.2452,698.5145 304.162,704.589 302.6792,710.8373 301.8109,717.2002 301.5653,723.6173 301.9446,730.0279 302.9454,736.3712 304.5581,742.5872 306.9156,748.9647 309.9169,755.0656 313.3139,760.5154 317.2247,765.609 321.6122,770.2984 326.4347,774.539 331.6466,778.2907 337.1986,781.5179 343.038,784.1901 349.1096,786.282 355.3557,787.7737 361.7173,788.6512 368.134,788.906 374.5452,788.5358 380.89,787.5441 387.1083,785.9403 393.4891,783.592 399.2635,780.7821 404.7374,777.4241 410.1482,773.3067 414.8438,768.926 419.0913,764.1095 422.8505,758.903"/>
    <line x1="419.4599" x2="339.2993" y1="743.1192" y2="619.0251"/>
    <line x1="339.6136" x2="433.1343" y1="618.822" y2="763.5986"/>
    <line x1="438.1628" x2="344.6421" y1="760.3504" y2="615.5738"/>
    <line x1="344.9564" x2="425.1169" y1="615.3708" y2="739.465"/>
    <polygon points="430.823,734.4058 431.6206,728.4183 431.8486,722.0048 431.4363,715.6004 430.4669,709.6383 428.829,703.4333 426.5808,697.4223 423.7448,691.6653 420.3492,686.2197 416.6723,681.4273 412.2916,676.7374 407.4653,672.5075 402.5588,668.9843 397.0082,665.763 391.1643,663.1109 385.0851,661.0543 378.8313,659.6139 372.8414,658.8339 366.4272,658.6248 360.0241,659.0559 353.6959,660.123 347.5055,661.8155 341.8603,663.9647 336.1117,666.8175 330.9861,670.0136 325.8945,673.9201 321.4803,678.0433 317.2362,682.8572 313.493,688.0701 310.288,693.6301 307.7917,699.1305 305.7174,705.2036 304.2586,711.4532 303.461,717.4407 303.233,723.8543 303.6454,730.2586 304.6939,736.59 306.2526,742.4258 308.5008,748.4368 311.3368,754.1937 314.7324,759.6394 318.6538,764.7196 322.79,769.1217 327.6163,773.3516 332.5228,776.8747 338.0734,780.0961 343.9173,782.7482 349.6335,784.7007 355.8788,786.1778 362.2402,787.0252 368.2767,787.2398 374.3068,786.8871 380.6472,785.8944 386.857,784.2747 392.8746,782.0442 398.3087,779.4068 403.7841,776.0593 408.8986,772.1827 413.6013,767.8158 417.8454,763.0019 421.5886,757.789 424.7936,752.229 427.2899,746.7286 429.3642,740.6554"/>
    <polygon points="436.9128,735.8071 437.8622,728.6924 438.0903,721.896 437.6632,715.1091 436.5846,708.3949 434.7507,701.4554 432.3712,695.085 429.2068,688.6424 425.6197,682.8652 421.493,677.4602 416.5942,672.214 411.4841,667.7273 405.9658,663.7533 399.7548,660.1556 393.5621,657.346 386.7643,655.0417 380.1396,653.5064 373.3978,652.616 366.2238,652.3847 359.4387,652.8392 352.7289,653.9447 345.7968,655.8065 339.436,658.2115 333.3363,661.2177 327.5543,664.7971 322.1437,668.9165 316.891,673.8083 312.3974,678.9123 308.4161,684.4253 304.984,690.296 301.9922,696.8205 299.7832,703.252 298.2036,709.8662 297.2351,716.9784 296.9888,723.7742 297.3978,730.5622 298.4583,737.2792 300.1606,743.863 302.636,750.6004 305.6013,756.7201 309.1419,762.5259 313.467,768.2543 318.0815,773.2493 323.1554,777.777 328.9574,782.0026 335.1588,785.6169 341.344,788.4431 347.7725,790.6608 354.3847,792.2492 361.119,793.1938 368.291,793.4827 375.0795,793.0828 381.798,792.0312 388.384,790.3377 395.1247,787.8713 401.5799,784.7328 407.3715,781.1689 412.7931,777.064 417.7943,772.4562 422.3287,767.3884 426.5622,761.592 430.1848,755.3955 433.0193,749.2141 435.3509,742.4256"/>
    <polygon points="436.1961,728.6402 436.4247,721.8479 435.983,715.0661 434.8752,708.3609 433.1121,701.7974 430.7109,695.4396 427.695,689.3493 424.0937,683.5857 419.942,678.2051 415.2804,673.2597 410.1542,668.7977 404.9311,665.0666 399.048,661.6641 392.8583,658.8578 386.4222,656.6751 379.8024,655.1371 373.0632,654.2589 366.648,654.0429 359.865,654.4661 353.1568,655.5555 346.5885,657.3006 340.2241,659.6843 334.1256,662.6835 328.6634,666.055 323.2488,670.1623 318.2653,674.7831 313.7612,679.8724 309.7805,685.3807 306.362,691.2545 303.5387,697.4365 301.3384,703.8666 299.7822,710.4822 298.8855,717.2189 298.652,723.6335 299.0566,730.4176 300.1276,737.1288 301.8546,743.7019 304.2209,750.0728 307.2034,756.1795 310.7731,761.9627 314.8952,767.366 319.2594,772.0729 324.3364,776.5909 329.8338,780.5867 335.6982,784.0213 341.8724,786.8615 348.2964,789.0795 354.5366,790.5835 361.2657,791.5356 368.0559,791.82 374.8411,791.434 381.5552,790.3814 388.133,788.6724 394.5103,786.3236 400.6252,783.3579 406.4182,779.8041 411.8328,775.6968 416.8164,771.076 421.3204,765.9867 425.3011,760.4783 428.7197,754.6046 431.5429,748.4226 433.7433,741.9925 435.2994,735.3769"/>
    <polygon points="433.9475,715.5857 432.9358,709.245 431.2066,702.6702 428.9678,696.6523 426.1617,690.877 422.8141,685.3977 418.7139,679.975 414.3542,675.2611 409.5621,670.9874 404.0661,666.986 398.1919,663.5638 392.3516,660.8957 385.9191,658.6955 379.6681,657.2279 373.3052,656.3672 366.5111,656.126 360.1031,656.5333 353.7638,657.5539 347.5517,659.1784 341.1767,661.5397 335.0746,664.5367 329.6192,667.923 324.2256,672.0614 319.5426,676.4543 315.3029,681.2765 311.3405,686.8007 308.1318,692.3624 305.4719,698.2065 303.3853,704.2789 301.8221,710.8951 300.9704,717.2593 300.7335,723.6759 301.1552,730.4611 302.1847,736.799 303.818,743.0087 306.1883,749.3804 309.0108,755.1478 312.3739,760.6175 316.2465,765.7392 320.8624,770.7302 325.9617,775.2263 331.1739,778.9761 337.0577,782.3817 342.9055,785.0333 349.3442,787.2153 355.5993,788.6652 361.9647,789.5079 368.7594,789.7299 375.1662,789.3045 381.5026,788.2659 387.7101,786.6239 394.0784,784.2446 399.8417,781.4139 405.3067,778.0431 410.4229,774.1633 415.4074,769.5403 419.6607,764.7301 423.6388,759.2172 427.036,753.3286 429.6794,747.477 431.7488,741.3987 433.2933,734.7781 434.127,728.4115 434.3458,721.9943"/>
    <polygon points="441.6335,702.5826 447.1624,703.8146 453.1602,704.5425 458.8233,704.6688 464.8477,704.209 470.7942,703.1403 476.2439,701.595 481.5218,699.5383 486.9083,696.8016 491.9894,693.5326 496.4287,690.0142 500.7718,685.814 504.4369,681.495 507.6743,676.8468 510.6232,671.5735 512.8886,666.3817 514.6496,660.9979 515.9543,655.0986 516.6278,649.4743 516.7631,643.8114 516.3129,637.7863 515.3375,632.2064 513.8355,626.7446 511.6686,621.1048 509.127,616.0425 505.8984,610.9356 502.4153,606.4685 498.523,602.3531 493.96,598.393 489.3377,595.1187 484.088,592.128 478.9143,589.8215 473.1809,587.9158 467.6559,586.6663 461.6604,585.9193 455.9977,585.775 449.972,586.2157 444.0221,587.2655 438.5675,588.7934 432.938,590.9872 427.8879,593.5529 423.1048,596.5875 418.6322,600.0635 414.5106,603.9492 410.5432,608.5059 407.2616,613.1231 404.2625,618.368 401.8112,623.8902 400.0331,629.2684 398.7096,635.1635 398.0183,640.7857 397.865,646.4481 398.2961,652.4746 399.2537,658.0575 400.8557,663.8831 403.0405,669.5161 405.5982,674.5703 408.6252,679.3582 412.3403,684.1229 416.5196,688.486 420.8212,692.1715 425.7735,695.6325 430.7131,698.4051 435.894,700.6951"/>
    <polygon points="464.4552,702.2089 470.0351,701.2282 475.4912,699.7026 480.7704,697.6467 485.8214,695.0807 490.595,692.0295 495.0448,688.5229 498.8674,684.8691 502.5714,680.5822 505.835,675.9512 508.6264,671.0212 510.9185,665.8401 512.6889,660.4584 513.8554,655.3007 514.5731,649.6809 514.7337,644.0178 514.3354,638.3664 513.3823,632.7817 511.8835,627.3182 509.8538,622.0288 507.3127,616.9652 504.2851,612.1766 500.8005,607.7096 496.8926,603.6077 492.5997,599.9108 488.2822,596.8575 483.366,594.0418 478.1963,591.7242 472.8235,589.9272 467.2997,588.6684 461.6787,587.9599 456.3931,587.8014 450.7398,588.1717 445.1505,589.0973 439.6796,590.5691 434.3803,592.5727 429.3042,595.0887 424.5008,598.0926 420.0166,601.5552 415.8955,605.4428 412.1774,609.7175 408.8986,614.3377 406.091,619.2585 403.7819,624.432 401.9938,629.8078 400.744,635.3337 400.0448,640.9558 399.9029,646.6194 400.3197,652.2695 401.2912,657.851 402.8079,663.3096 404.8551,668.5922 407.4128,673.6474 410.4561,678.426 413.7086,682.5954 417.6029,686.7102 421.8837,690.4212 426.5093,693.6924 431.4348,696.4919 436.612,698.7925 441.9908,700.5718 447.5187,701.8125 453.1419,702.5025 458.8058,702.635"/>
    <polygon points="455.9204,681.3369 527.0184,909.5197 633.6261,876.3025 562.528,648.1197"/>
    <polygon points="489.0331,701.2082 494.1454,697.9857 499.2203,694.0526 503.878,689.6333 508.072,684.7719 511.7607,679.5166 514.7377,674.2576 517.3453,668.3904 519.3552,662.2925 520.7474,656.0247 521.4809,650.0262 521.64,643.6076 521.1587,637.205 520.0417,630.8824 518.4195,625.061 516.1059,619.0718 513.2068,613.3429 509.9693,608.2401 506.0213,603.1768 501.5884,598.5321 496.7146,594.3524 491.4486,590.6792 486.1808,587.7176 480.306,585.1272 474.2022,583.1352 467.9304,581.7614 461.9297,581.0455 455.5107,580.9053 449.4845,581.3583 443.1586,582.4568 436.9736,584.1802 431.3364,586.3579 425.5991,589.2401 420.1776,592.6798 415.4119,596.3957 410.7543,600.815 406.5602,605.6765 402.8716,610.9317 399.8945,616.1907 397.2869,622.0579 395.277,628.1558 393.8848,634.4236 393.1513,640.4221 392.9922,646.8408 393.4736,653.2433 394.5074,659.1974 396.2127,665.3873 398.5264,671.3766 401.4254,677.1054 404.881,682.5168 408.6109,687.2715 412.7704,691.6554 417.6196,695.8637 422.864,699.5678 428.1142,702.5603 433.9738,705.1851 440.0657,707.2129 446.3294,708.6235 452.7025,709.4028 458.7439,709.5525 465.1478,709.09 471.4737,707.9915 477.6586,706.2681 483.641,703.9368"/>
    <polygon points="493.5303,696.4297 498.5754,692.4591 502.9297,688.2692 506.8605,683.6797 510.3314,678.7332 513.4793,673.1378 515.9049,667.6033 517.7867,661.861 519.1071,655.9642 519.8539,649.9678 520.0201,643.9273 519.559,637.5238 518.529,631.5694 516.9308,625.7419 514.6268,619.7494 511.9091,614.3523 508.6847,609.2417 504.737,604.1787 500.5668,599.8056 495.9951,595.854 491.0644,592.3608 485.4832,589.1877 479.9597,586.7371 473.8618,584.7286 467.9631,583.4171 461.5887,582.6525 455.1695,582.5435 449.1473,583.041 442.833,584.2019 437.0276,585.879 431.4106,588.107 426.034,590.8652 420.9478,594.128 416.1993,597.8651 411.5731,602.3167 407.6562,606.918 404.2002,611.875 401.2373,617.1415 398.6602,623.0216 396.7957,628.7696 395.4931,634.6703 394.7644,640.6689 394.6264,647.0876 395.0967,653.112 396.1446,659.0632 397.7604,664.8859 400.0825,670.8714 402.8163,676.2604 406.0561,681.3612 409.7718,686.1266 413.9288,690.5123 418.786,694.7105 423.7273,698.1889 429.3179,701.3452 434.8488,703.7792 440.5883,705.6696 446.483,706.9989 452.4783,707.7547 458.8963,707.9217 464.9228,707.4786 470.8786,706.4576 477.0676,704.7502 482.7045,702.5731 488.4344,699.6771"/>
    <polygon points="494.0008,696.5943 498.7436,692.8521 503.107,688.6736 507.2826,683.7988 510.7414,678.8454 513.7109,673.5841 516.1637,668.063 518.1788,661.9688 519.5646,655.7015 520.2812,649.7027 520.4209,643.6629 519.9361,637.2625 518.8039,630.9445 517.1572,625.1318 514.9623,619.5032 512.2394,614.1101 508.7958,608.6934 505.0678,603.9394 500.9024,599.5635 496.0401,595.3733 490.7774,591.6985 485.5072,588.7448 479.9788,586.3085 473.8786,584.3116 467.6072,582.9446 461.6063,582.246 455.1885,582.1359 449.1672,582.6282 443.2205,583.6939 437.4029,585.3233 431.7677,587.5013 426.0379,590.3942 420.9396,593.6354 415.8887,597.5962 411.2661,602.0495 407.3496,606.6495 403.8908,611.6029 400.9214,616.8642 398.4685,622.3853 396.4534,628.4795 395.1314,634.3745 394.379,640.3689 394.2031,646.4078 394.6496,652.8109 395.6619,658.7669 397.3559,664.9581 399.517,670.5997 402.3928,676.3382 405.8365,681.7549 409.5645,686.5089 414.0039,691.1448 418.5922,695.075 423.8549,698.7498 429.125,701.7035 435.0064,704.2744 440.7536,706.1367 446.6526,707.441 453.026,708.2023 459.4437,708.3124 465.4651,707.8201 471.4118,706.7544 477.2293,705.1251 482.8645,702.9471 488.5943,700.0541"/>
    <polygon points="505.6488,682.5874 508.9019,677.9497 511.8825,672.6936 514.3292,667.1689 516.2181,661.4294 517.5309,655.5314 518.2546,649.5326 518.3821,643.4916 517.9123,637.4676 516.9333,631.8879 515.3242,626.0638 513.1477,620.4271 510.425,615.033 507.1827,609.9342 503.6994,605.4668 499.545,601.0792 494.9776,597.1235 490.0417,593.6383 484.7856,590.6578 479.2608,588.2111 473.5214,586.3221 467.6234,585.0094 461.6246,584.2857 455.5836,584.1582 449.5596,584.628 443.6115,585.6906 437.7974,587.3357 432.5191,589.3926 427.125,592.1153 422.0262,595.3575 417.2727,599.0876 412.9109,603.269 409.2155,607.5627 405.7303,612.4986 402.7498,617.7547 400.3031,623.2794 398.4141,629.0189 397.1014,634.9169 396.3777,640.9157 396.2501,646.9567 396.72,652.9807 397.7826,658.9288 399.4276,664.7429 401.639,670.366 404.2073,675.4153 407.4495,680.5141 411.1796,685.2676 415.361,689.6294 419.9529,693.5568 424.9102,697.0114 430.1846,699.9593 435.3714,702.2372 441.1109,704.1262 447.0089,705.4389 453.0077,706.1626 459.0486,706.2902 465.0727,705.8203 470.6524,704.8413 476.4765,703.2322 482.1132,701.0557 487.5073,698.333 492.6061,695.0908 497.3596,691.3607 501.7214,687.1793"/>
    <polygon points="509.7369,665.5128 511.5125,660.1348 512.7378,654.6054 513.374,649.3575 513.5054,643.6955 513.1133,638.4237 512.2277,633.2122 510.7402,627.7474 508.7104,622.4601 506.1588,617.4039 503.1113,612.6301 499.8469,608.4722 496.2063,604.6394 491.9249,600.9319 487.2921,597.6741 482.355,594.899 477.5167,592.7693 472.1357,591.0028 466.6042,589.7868 460.9784,589.1335 455.3155,589.0497 450.0473,589.4861 444.8433,590.4154 439.3913,591.9487 434.4658,593.8682 429.4139,596.4283 424.6452,599.4838 420.2082,603.0036 416.4061,606.6763 412.7347,610.9887 409.5159,615.6486 406.9489,620.2698 404.6935,625.4649 403.07,630.4957 401.9263,635.6568 401.2447,641.2792 401.1323,646.9416 401.5421,652.212 402.4452,657.4206 403.951,662.8803 405.9986,668.1607 408.3803,672.8801 411.4117,677.6641 414.9091,682.1188 418.837,686.1989 422.8564,689.6325 427.1805,692.6733 432.1083,695.4649 437.2919,697.7466 442.3145,699.3954 447.4697,700.5651 453.0886,701.275 458.7504,701.4159 464.3977,700.9864 469.6047,700.0745 475.0619,698.5595 479.9938,696.6566 485.0543,694.1135 489.5243,691.2915 493.9966,687.8166 497.8355,684.1825 501.5502,679.9073 504.8158,675.28 507.5992,670.3476"/>
    <polygon points="515.6146,658.3316 432.4008,661.4891 439.3168,843.7535 522.5307,840.5959"/>
    <polygon points="517.2923,631.6312 515.6693,625.8124 513.4833,620.1808 510.7552,614.791 507.5115,609.6947 503.7834,604.9414 499.607,600.5767 495.0225,596.6428 490.0741,593.1777 484.8096,590.2149 479.2799,587.7828 473.5382,585.905 467.64,584.5996 461.6421,583.8792 455.6026,583.7508 449.5795,584.2155 443.6311,585.2689 437.8148,586.9008 432.1866,589.0955 426.8009,591.8319 421.7097,595.0834 416.962,598.8188 412.6038,603.0019 408.909,607.2944 405.4212,612.2268 402.4341,617.4775 399.9766,622.996 398.0724,628.729 396.7398,634.6211 395.9918,640.6156 395.8355,646.6545 396.2724,652.6797 397.2984,658.6329 398.9036,664.4567 401.0723,670.0949 403.7838,675.4931 407.0119,680.5993 410.7253,685.3641 414.8883,689.7416 419.4608,693.6895 424.3985,697.1697 429.6538,700.1488 435.1761,702.5978 440.912,704.4932 446.8061,705.8167 452.8017,706.5555 458.8409,706.7025 464.8654,706.2563 470.817,705.2212 476.6383,703.6071 482.2732,701.4297 487.6672,698.7099 492.7684,695.474 497.5275,691.7533 501.8986,687.5835 505.8395,683.0051 509.3122,678.062 512.2831,672.8021 514.7237,667.2761 516.6103,661.5373 517.9247,655.6411 518.6543,649.6444 518.7921,643.605 518.3366,637.5812"/>
    <polygon points="509.812,627.5331 507.8856,622.6075 505.4983,617.888 502.4538,613.109 499.1854,608.9509 495.5354,605.1233 491.537,601.6613 487.2267,598.5964 482.307,595.7849 477.1259,593.4906 472.1021,591.8372 466.9434,590.6705 461.3202,589.9724 456.0329,589.8424 450.7573,590.2171 445.1724,591.1749 440.0734,592.5793 435.1315,594.4636 430.0622,596.9954 425.278,600.0318 421.1143,603.2931 417.2805,606.9365 413.8117,610.929 410.7395,615.2341 407.9195,620.149 405.7534,624.9739 403.9545,630.3472 402.7139,635.8761 402.0713,641.1258 401.9416,646.7907 402.3434,652.0644 403.2463,657.2756 404.642,662.3771 406.6698,667.6682 409.041,672.3958 412.0692,677.1851 415.3233,681.3544 419.2339,685.4551 423.244,688.9035 427.5648,691.9537 432.1567,694.5779 437.33,696.8899 442.3482,698.5604 447.875,699.8104 453.1236,700.4619 458.4104,700.61 464.0626,700.2085 469.6441,699.2317 474.7383,697.8099 479.6738,695.9087 484.4054,693.5456 488.8901,690.742 493.3747,687.2785 497.2209,683.6481 500.9373,679.3707 503.9948,675.0552 506.798,670.1307 508.9477,665.2984 510.7282,659.919 511.9499,654.3859 512.5746,649.134 512.685,643.4687 512.2652,638.1965 511.3446,632.9883"/>
    <polygon points="509.1246,608.4539 505.3985,603.7 501.2378,599.3215 496.3829,595.1248 491.4486,591.6412 485.8689,588.4712 479.9979,585.8802 474.2597,583.9944 468.3684,582.6621 462.0006,581.8663 455.9625,581.7078 449.5618,582.1683 443.6086,583.1897 437.4204,584.8891 431.7805,587.0512 426.0422,589.924 420.9319,593.1439 415.8635,597.0801 411.4788,601.2343 407.2749,606.0829 403.5815,611.3309 400.6056,616.587 398.1424,622.1021 396.1116,628.1896 394.7054,634.4509 393.938,640.8222 393.8064,646.8609 394.2955,653.2595 395.3434,659.2081 397.0703,665.3887 399.2576,671.0189 402.156,676.7443 405.6172,682.1482 409.3574,686.891 413.8055,691.5166 418.3984,695.4394 423.343,698.9084 428.9321,702.0618 434.8108,704.6352 440.5546,706.504 446.8222,707.8823 452.82,708.5957 459.236,708.726 465.2579,708.2566 471.2079,707.2176 477.3911,705.4999 483.3694,703.1672 488.7543,700.4311 494.1633,696.9779 498.9116,693.2448 503.5439,688.8035 507.4735,684.2165 510.9498,679.277 514.1115,673.6926 516.5583,668.1703 518.571,662.0767 519.8946,656.1834 520.6809,649.8145 520.8207,643.3987 520.3603,637.3761 519.3301,631.4245 517.6216,625.2388 515.2978,619.257 512.5697,613.8681"/>
    <polygon points="509.4225,608.171 505.4427,603.1309 500.9773,598.5154 496.3714,594.6011 491.0962,590.9387 485.819,587.9913 480.287,585.5555 474.1855,583.5522 467.9138,582.171 461.5352,581.426 455.4917,581.3127 449.0897,581.8181 442.7706,582.9631 436.9562,584.6149 431.3237,586.8084 425.5949,589.7105 420.4943,592.9541 415.4366,596.9115 410.8014,601.3563 406.8667,605.9448 403.1809,611.2038 400.2102,616.4679 397.6136,622.3415 395.7195,628.0816 394.3106,634.3471 393.565,640.3454 393.3892,646.3874 393.8283,652.7943 394.908,659.1249 396.6172,665.3152 398.7857,670.9574 401.6624,676.699 404.8833,681.8139 408.8183,686.8891 413.2425,691.544 417.8135,695.4989 422.7376,699.0046 428.307,702.202 434.169,704.8247 440.2646,706.846 446.5322,708.2457 452.9086,709.0096 458.9516,709.1408 465.3552,708.6543 471.3091,707.6117 477.4969,705.8933 483.4811,703.5628 488.8732,700.8313 494.2922,697.3852 499.3382,693.4128 503.701,689.2293 507.8814,684.3542 511.3506,679.4044 514.5068,673.8115 516.9508,668.2832 518.9631,662.1846 520.3535,655.915 521.108,649.5375 521.2189,643.1164 520.7343,637.0914 519.6829,631.139 517.9554,624.9538 515.7702,619.3181 512.8766,613.585"/>
    <polygon points="501.8373,606.4222 497.6389,602.0755 493.3184,598.41 488.3458,594.9758 483.3878,592.2336 478.1898,589.979 472.7997,588.233 467.2671,587.0115 461.6429,586.3258 455.6011,586.192 449.9521,586.628 444.3708,587.6034 438.9087,589.1091 433.616,591.1313 428.2121,593.8365 423.4217,596.862 418.9432,600.3326 414.5564,604.4892 410.8496,608.7742 407.3679,613.7137 404.5782,618.6451 402.1381,624.1738 400.3748,629.5583 399.1356,635.087 398.4043,641.0858 398.2788,646.7503 398.7439,652.7756 399.7371,658.3537 401.2602,663.811 403.2994,669.0972 406.0219,674.4924 409.2815,679.5812 412.7949,684.0262 416.7181,688.114 421.3138,692.0383 426.2865,695.4725 431.2445,698.2147 436.4424,700.4693 441.8325,702.2153 447.3652,703.4368 453.3663,704.149 459.0311,704.2563 464.6802,703.8203 470.2614,702.8449 476.0822,701.2203 481.3618,699.1643 486.4202,696.6118 491.5193,693.3685 495.9755,689.8693 500.3356,685.6847 504.0149,681.3761 507.2643,676.7346 510.0541,671.8032 512.3584,666.6271 514.2575,660.89 515.4966,655.3613 516.2003,649.7393 516.362,644.0758 515.9355,638.0476 514.8952,632.0946 513.372,626.6373 511.3329,621.3511 508.6104,615.9559 505.3508,610.8671"/>
    <polygon points="487.6113,596.9139 483.0047,594.3147 477.8249,592.0164 472.4425,590.2435 466.9108,589.0137 461.2843,588.3389 455.9965,588.2159 450.3447,588.6284 444.7618,589.5998 439.3028,591.1206 434.0218,593.1756 429.2994,595.5579 424.5081,598.5839 420.0409,602.0705 415.9418,605.9833 412.2513,610.2836 409.0058,614.929 406.2375,619.8736 404.1083,624.7154 402.3355,630.0978 401.1056,635.6295 400.4309,641.256 400.3179,646.9216 400.7204,652.1956 401.6918,657.7785 403.2125,663.2375 405.2676,668.5185 407.8366,673.5695 410.8943,678.3405 414.4105,682.7846 418.0753,686.5985 422.3756,690.289 426.7015,693.3326 431.6276,696.1337 436.8074,698.432 442.1897,700.2048 447.7215,701.4347 452.971,702.0819 458.6358,702.2324 464.2876,701.8199 469.8705,700.8485 475.3294,699.3278 480.6105,697.2727 485.3329,694.8904 490.1241,691.8644 494.5913,688.3778 498.6904,684.465 502.3809,680.1647 505.4246,675.8388 508.2256,670.9127 510.5239,665.7329 512.2968,660.3506 513.5266,654.8188 514.1738,649.5693 514.3243,643.9045 513.9119,638.2527 513.0224,633.0387 511.5379,627.5698 509.5179,622.2753 506.9824,617.2074 503.9564,612.4162 500.4698,607.9489 496.557,603.8498 492.2567,600.1593"/>
    <polygon points="483.0763,592.9869 477.8818,590.7322 472.4929,588.9926 466.9605,587.7846 461.337,587.1195 455.6755,587.0037 450.0295,587.4381 444.4523,588.4189 438.9968,589.9365 433.3697,592.131 428.327,594.7074 423.5583,597.7612 419.1088,601.2638 415.0204,605.1818 411.3318,609.4784 408.0778,614.1129 405.2894,619.0415 402.9927,624.2175 401.1093,629.9562 399.8923,635.4866 399.2181,641.1091 399.093,646.7704 399.5662,652.7917 400.5741,658.364 402.1183,663.8121 404.1842,669.0845 406.7524,674.1314 410.0179,679.2124 413.5421,683.6449 417.48,687.7142 421.7944,691.3818 426.4447,694.6132 431.3867,697.3776 436.5739,699.6491 441.9571,701.4062 447.4855,702.6322 453.1069,703.3155 458.768,703.4497 464.4154,703.0335 469.9957,702.0709 475.4561,700.5709 480.7451,698.5477 486.1413,695.8347 490.9199,692.7963 495.6658,689.0604 499.7415,685.1291 503.4161,680.8206 506.655,676.1756 509.4275,671.2381 511.7074,666.0546 513.4732,660.6742 514.7081,655.1478 515.4005,649.5276 515.5439,643.8667 515.1369,638.2186 514.1005,632.2683 512.574,626.8152 510.5251,621.5362 507.9733,616.481 504.7243,611.3894 501.2145,606.9456 497.2898,602.8635 492.9873,599.1819 488.0273,595.7353"/>
    <polygon points="475.0302,608.636 588.7544,516.5206 529.6501,443.5514 415.9259,535.6668"/>
    <polygon points="461.4086,590.3867 455.7485,590.2566 450.4795,590.6608 445.2736,591.569 440.1789,592.9727 434.8972,595.0117 430.181,597.3955 425.7153,600.221 421.2555,603.7088 417.437,607.3619 413.9868,611.3646 410.735,615.9993 408.1449,620.6054 406.0088,625.439 404.2464,630.8193 403.1088,635.9799 402.4717,641.2258 402.3513,646.8862 402.7646,652.1545 403.6818,657.3588 405.2137,662.8092 407.1423,667.7292 409.5342,672.4414 412.5859,677.2101 415.8627,681.356 419.5224,685.1682 423.531,688.6115 428.1712,691.8554 432.7819,694.4376 437.6191,696.5654 442.6382,698.219 448.1649,699.4473 453.412,700.0753 458.6951,700.1968 463.9654,699.8106 469.1744,698.9203 474.2738,697.5341 479.5625,695.5133 484.2869,693.1457 488.7623,690.3355 492.9472,687.1087 496.8031,683.4952 500.5289,679.2322 503.7966,674.6088 506.4026,670.0116 508.6911,664.8331 510.3361,659.8111 511.4914,654.6545 512.1465,649.4108 512.2952,644.1284 511.8911,638.4812 510.9085,632.9055 509.4786,627.8181 507.567,622.8915 505.1913,618.1711 502.3734,613.7006 499.1395,609.5212 495.5193,605.6715 491.25,601.9531 486.6209,598.6933 482.0192,596.0952 477.1894,593.9509 471.8121,592.1792 466.6534,591.0327"/>
    <polygon points="456.0166,585.3678 449.9919,585.8034 444.0417,586.8438 438.585,588.3593 432.9505,590.5361 427.5639,593.2696 422.7881,596.3132 418.0354,600.0413 413.6825,604.2293 410.0043,608.5354 406.5482,613.4894 403.7769,618.4282 401.3493,623.9594 399.5905,629.3426 398.284,635.24 397.6048,640.8623 397.4598,646.5237 397.8954,652.5484 398.8532,658.13 400.4512,663.9552 402.6281,669.5898 405.3616,674.9764 408.4051,679.7522 412.1332,684.5049 416.3213,688.8578 420.6274,692.536 425.2618,695.7908 430.5202,698.7634 436.0514,701.1909 441.4345,702.9498 447.332,704.2562 452.9543,704.9355 458.6157,705.0805 464.6404,704.6449 470.222,703.687 476.0472,702.0891 481.3363,700.0648 486.74,697.3654 491.8442,694.1352 496.3111,690.654 500.429,686.7663 504.3955,682.2106 507.8828,677.2785 510.8553,672.0201 513.1476,666.8416 515.0417,661.1058 516.3482,655.2083 517.0275,649.586 517.1725,643.9246 516.7369,637.8999 515.6964,631.9498 514.181,626.4931 512.1568,621.204 509.4573,615.8003 506.2271,610.6961 502.7459,606.2292 498.5854,601.85 494.3026,598.1447 489.3705,594.6575 484.1121,591.6849 478.5809,589.2574 473.1977,587.4986 467.3003,586.1921 461.6779,585.5128"/>
    <polygon points="455.5282,582.9391 449.5021,583.4054 443.5495,584.4533 437.7265,586.0729 432.0877,588.2492 426.3578,591.1482 421.2643,594.402 416.51,598.134 412.1396,602.3091 408.1943,606.8879 404.7112,611.8274 401.723,617.0812 399.1217,622.9523 397.2377,628.6952 395.9189,634.5937 395.1509,640.9692 395.0311,647.0121 395.4973,653.0382 396.5452,658.9908 398.1649,664.8138 400.4952,670.7976 403.2402,676.1824 406.494,681.276 410.4743,686.3151 414.6758,690.6601 419.2785,694.5776 424.2391,698.0307 429.5108,700.9869 435.0442,703.4185 440.7872,705.3026 447.0583,706.6847 453.0611,707.3894 459.1041,707.5092 465.1302,707.043 471.0827,705.9951 476.9058,704.3754 482.5445,702.1992 487.9459,699.4869 493.059,696.264 497.8359,692.5609 502.4926,688.1393 506.4379,683.5604 509.9211,678.6209 512.9093,673.3671 515.5105,667.496 517.3946,661.7531 518.7767,655.482 519.4814,649.4791 519.6012,643.4362 519.1349,637.4101 518.087,631.4575 516.4674,625.6345 514.2911,619.9958 511.5788,614.5944 508.356,609.4812 504.6529,604.7044 500.5044,600.3088 495.6524,596.1023 490.7129,592.6192 485.1214,589.4614 479.588,587.0298 473.845,585.1457 467.9466,583.827 461.9481,583.0859"/>
    <polygon points="434.4784,593.4178 429.418,595.958 424.9458,598.774 420.468,602.2396 416.3588,606.135 412.6593,610.4215 409.4064,615.056 406.8021,619.6548 404.5007,624.8282 402.7276,630.2056 401.5005,635.7333 400.8317,641.3558 400.7277,647.017 401.1415,652.2858 402.1277,657.8614 403.666,663.3107 405.5862,668.2345 408.1433,673.2864 411.1921,678.0576 414.7023,682.5005 418.6387,686.5705 422.6626,689.9968 426.9884,693.033 431.9154,695.8232 437.0965,698.1073 442.4798,699.8624 447.6391,701.0078 453.2594,701.6954 458.9203,701.8182 464.5651,701.375 470.1374,700.3701 475.5815,698.8137 480.4988,696.8771 485.5422,694.3032 489.9956,691.4574 494.4501,687.962 498.2734,684.3133 501.973,680.0268 505.2259,675.3923 507.9996,670.456 510.1315,665.6201 511.9046,660.2427 513.1317,654.7151 513.8006,649.0925 513.9045,643.4313 513.4908,638.1625 512.5045,632.5869 510.9663,627.1376 508.8914,621.8693 506.489,617.1619 503.4401,612.3907 499.9299,607.9478 496.2684,604.1367 491.9697,600.4515 487.3243,597.2141 482.3788,594.4568 477.1826,592.2073 472.1525,590.5859 466.9931,589.4405 461.3728,588.7529 455.712,588.6301 450.0672,589.0734 444.4949,590.0782 439.4086,591.514"/>
    <polygon points="432.6181,590.2392 427.2402,592.9865 422.4715,596.0389 417.7248,599.7724 413.3755,603.9621 409.6978,608.267 406.2388,613.2173 403.2924,618.4889 401.0222,623.6757 399.1486,629.4168 397.922,634.9442 397.1915,640.939 397.0645,646.9767 397.5422,652.9968 398.5352,658.571 400.1657,664.3858 402.3699,670.0082 405.1256,675.3819 408.4052,680.4528 411.9264,684.8866 415.8481,688.9705 420.4336,692.9003 425.3893,696.3516 430.6655,699.2897 436.2092,701.685 441.5999,703.4164 447.5016,704.6969 453.1251,705.3554 458.7856,705.4834 464.8079,705.0339 470.755,703.9841 476.5672,702.3445 482.1862,700.1315 487.2283,697.5558 492.0065,694.5183 496.7649,690.7997 500.8671,686.8972 504.8185,682.3303 508.0905,677.7095 511.0862,672.4659 513.5422,666.9488 515.4339,661.2136 516.7421,655.318 517.4539,649.321 517.573,643.6603 517.1141,637.6387 516.1386,632.0615 514.5263,626.2416 512.3397,620.6123 509.6008,615.23 506.3371,610.1488 502.8298,605.7041 498.921,601.608 494.3478,597.6638 489.4029,594.197 484.136,591.2424 478.9527,588.9641 473.2146,587.0814 467.3169,585.7824 461.3188,585.08 455.658,584.9698 449.6371,585.4381 443.6933,586.5066 437.8862,588.1644"/>
    <polygon points="423.55,597.2689 418.7982,600.9949 414.7132,604.9147 411.0253,609.2101 407.7686,613.841 404.8044,619.1018 402.5304,624.2865 400.7669,629.6662 399.5304,635.1909 398.805,641.1857 398.6882,646.8459 399.1177,652.4909 400.0895,658.0683 401.5945,663.526 403.7716,669.1583 406.3287,674.2093 409.5792,679.2983 413.0869,683.7421 417.0067,687.8271 421.302,691.515 425.933,694.7717 431.1938,697.7359 436.3785,700.0099 441.7582,701.7733 447.6551,703.0733 453.2776,703.7353 458.9378,703.8521 464.5829,703.4226 470.1603,702.4508 475.618,700.9458 481.2503,698.7687 486.3013,696.2116 491.3903,692.9611 495.8341,689.4534 499.919,685.5336 503.607,681.2383 506.8637,676.6073 509.8279,671.3465 512.1018,666.1618 513.8653,660.7821 515.1653,654.8852 515.8272,649.2626 515.944,643.6025 515.5145,637.9574 514.5428,632.38 513.0378,626.9223 510.8606,621.29 508.3036,616.239 505.2714,611.458 501.7924,606.9917 497.899,602.8816 493.3302,598.9333 488.3797,595.4756 483.4384,592.7124 478.2538,590.4384 472.8741,588.675 467.3494,587.4384 461.3546,586.713 455.6944,586.5963 450.0494,587.0258 444.472,587.9975 439.0143,589.5025 433.3819,591.6796 428.3309,594.2367"/>
    <polygon points="421.8769,604.2466 418.0514,607.8962 414.5998,611.9013 411.5551,616.2237 408.9462,620.8224 406.798,625.6535 405.1309,630.6709 403.9608,635.827 403.2713,641.4493 403.1607,646.7353 403.5659,652.0069 404.483,657.2139 405.9033,662.3067 407.8132,667.2369 410.1946,671.9573 413.0248,676.4232 416.2769,680.5919 419.9198,684.4238 424.2171,688.1142 428.5555,691.1363 433.1677,693.7211 438.0099,695.844 443.036,697.4848 448.1981,698.6279 453.4471,699.2624 458.7329,699.3822 464.0052,698.9862 469.2138,698.0781 474.309,696.6667 479.2425,694.7654 483.9671,692.3922 488.4379,689.5698 492.6123,686.325 496.4505,682.6888 499.916,678.6958 503.178,674.0648 505.7709,669.4571 507.9022,664.6186 509.5518,659.5954 510.7039,654.4352 511.3475,649.1874 511.4765,643.9018 511.0897,638.6289 510.1908,633.4187 508.7882,628.321 506.8955,623.3842 504.3441,618.3269 501.4984,613.8709 498.2318,609.7135 494.5756,605.8944 490.5645,602.4498 486.2367,599.4126 481.6335,596.8117 476.7987,594.672 471.7784,593.0136 466.6203,591.8525 461.3736,591.1998 456.0882,591.0615 450.8146,591.4392 445.6029,592.329 440.5027,593.7227 435.2172,595.7597 430.5009,598.1493 426.0399,600.9873"/>
    <polygon points="406.0395,612.7705 403.0656,618.0319 400.7659,623.2105 398.8567,628.9447 397.5273,634.8404 396.8194,640.4622 396.6457,646.5034 397.0739,652.5319 398.0995,658.4879 399.7126,664.3124 401.8969,669.9475 404.4445,675.0088 407.6694,680.1202 411.3867,684.8855 415.5596,689.2573 419.8486,692.9601 424.4644,696.2466 429.7025,699.2613 435.2145,701.7401 440.9457,703.6582 446.8393,704.9968 452.46,705.7134 458.5009,705.8965 464.5301,705.4777 470.4877,704.4613 476.3147,702.8574 481.9532,700.6818 487.3474,697.9561 492.4436,694.7074 497.1915,690.9679 501.5438,686.7746 505.2265,682.4683 508.4915,677.8373 511.4817,672.5852 513.9346,667.0616 515.826,661.3215 517.137,655.4217 517.8274,649.7977 517.9822,643.756 517.5353,637.7289 516.4911,631.7761 514.86,625.9567 512.812,620.6735 510.0947,615.2751 506.854,610.1737 503.1218,605.4201 498.9354,601.0612 494.6348,597.3718 489.6899,593.8971 484.7614,591.1013 479.2417,588.6397 473.5046,586.7394 467.6068,585.4192 461.607,584.6922 455.5647,584.5656 449.9146,584.9934 443.9602,586.0283 438.4971,587.5321 432.8518,589.6901 427.4492,592.399 422.6524,595.415 417.8698,599.11 413.4784,603.2624 409.5219,607.831"/>
    <polygon points="399.5141,623.065 397.6298,628.8031 396.3137,634.6976 395.5783,640.6923 395.4305,646.7301 395.8717,652.7535 396.8979,658.7053 398.4992,664.5288 400.8135,670.5137 403.5468,675.8994 406.792,680.9931 410.5181,685.7463 414.6896,690.1138 419.2669,694.054 424.2063,697.5295 429.461,700.507 434.9807,702.9583 440.7131,704.8601 446.6035,706.1942 452.5959,706.9479 458.6333,707.1141 464.658,706.6912 470.6129,705.6832 476.4413,704.0997 482.0876,701.9558 487.8272,699.0868 492.9308,695.8572 497.6953,692.1456 502.0756,687.9874 506.0297,683.4222 509.5202,678.4933 512.6837,672.9106 515.1182,667.3833 517.0024,661.6452 518.3185,655.7507 519.054,649.7561 519.2018,643.7183 518.7605,637.6948 517.7344,631.743 516.1331,625.9195 513.8187,619.9347 511.0854,614.549 507.8403,609.4552 504.1142,604.702 499.9427,600.3345 495.3654,596.3943 490.4259,592.9188 485.1713,589.9413 479.6515,587.49 473.9191,585.5882 468.0287,584.2541 462.0363,583.5004 455.999,583.3342 449.9742,583.7571 444.0193,584.7651 438.191,586.3486 432.1991,588.6447 426.8051,591.3616 421.7015,594.5912 416.9369,598.3027 412.5567,602.4609 408.6025,607.0261 404.9101,612.2741 401.9486,617.5377"/>
    <polygon points="401.5512,629.882 400.3179,635.4101 399.6313,641.0324 399.4979,646.6949 399.919,652.3433 400.8906,657.9234 402.4034,663.3817 404.4427,668.6659 406.9892,673.7252 410.0184,678.5112 413.5011,682.978 417.4041,687.0827 421.6898,690.7859 426.3172,694.0522 431.2419,696.8502 436.4167,699.153 441.7919,700.9387 447.316,702.19 452.936,702.895 458.5981,703.0469 464.2478,702.6442 469.831,701.6908 475.2942,700.1959 480.585,698.1738 485.6527,695.6439 490.4486,692.6304 494.9267,689.1622 499.0441,685.2727 502.7613,680.9991 506.0427,676.3824 509.027,671.1296 511.313,665.9473 513.081,660.5663 514.3143,655.0382 515.0009,649.4159 515.1343,643.7534 514.7132,638.105 513.7416,632.5249 512.2289,627.0666 510.1895,621.7824 507.643,616.7231 504.6139,611.9371 501.1311,607.4703 497.2282,603.3656 492.9425,599.6624 488.315,596.3961 483.3903,593.5982 478.2155,591.2953 472.8403,589.5096 467.3162,588.2583 461.6962,587.5533 456.0342,587.4015 450.3845,587.8041 444.8012,588.7575 439.338,590.2524 433.7019,592.4276 428.6509,594.9906 423.8748,598.0353 419.4194,601.5327 415.3275,605.449 411.6383,609.7468 408.3871,614.3849 405.6053,619.3187 403.3193,624.501"/>
    <polygon points="401.6579,641.2025 401.5271,646.4885 401.9427,652.1382 402.8457,657.3481 404.3556,662.8082 406.2576,667.7418 408.8037,672.8024 411.8497,677.5787 415.1161,681.7368 418.7613,685.567 423.0502,689.268 427.6922,692.5151 432.3011,695.1067 437.4874,697.3858 442.5134,699.0284 447.6723,700.1879 453.2945,700.8824 458.5805,701.0132 464.2302,700.5975 469.8086,699.6112 474.9001,698.1847 480.179,696.129 484.8943,693.7366 489.6707,690.6906 493.8287,687.4242 497.9191,683.5049 501.36,679.4901 504.4055,675.1676 507.1986,670.2392 509.3423,665.4056 511.1204,660.0269 512.2799,654.868 512.9744,649.2458 513.1052,643.9598 512.6895,638.3101 511.7032,632.7317 510.2767,627.6402 508.3746,622.7065 505.8286,617.6459 502.7826,612.8696 499.5162,608.7115 495.5969,604.6212 491.5821,601.1803 487.2596,598.1348 482.3311,595.3416 477.1449,593.0625 472.1189,591.4199 466.96,590.2604 461.3378,589.5659 456.0518,589.4351 450.4021,589.8508 444.8237,590.8371 439.7321,592.2636 434.4533,594.3193 429.7379,596.7117 425.2701,599.5397 420.8035,603.0241 416.9733,606.6694 413.2723,610.9582 410.0251,615.6002 407.4336,620.2092 405.2899,625.0427 403.5119,630.4214 402.3524,635.5803"/>
    <polygon points="409.7408,670.0632 404.5388,666.3006 398.6686,662.8733 392.4841,660.0525 386.0477,657.8666 379.7962,656.4051 373.0578,655.511 366.6414,655.2917 359.8577,655.7234 353.521,656.7545 346.9503,658.4957 340.5876,660.8875 334.497,663.9058 329.0502,667.3043 323.9501,671.2039 318.9789,675.8399 314.4981,680.9514 310.7574,686.1691 307.5281,691.7179 304.6986,697.8985 302.6087,703.9689 301.0336,710.5813 300.1301,717.3184 299.9017,723.7345 300.2827,730.1433 301.3463,736.857 303.0783,743.4301 305.3121,749.449 308.2878,755.5605 311.6482,761.0309 315.5121,766.1581 320.1133,771.1615 325.1934,775.6779 330.7011,779.6616 336.2454,782.8986 342.422,785.7367 348.4895,787.8352 355.0997,789.4195 361.8356,790.3324 368.2513,790.5697 375.0362,790.1568 381.7454,789.0652 387.9513,787.4206 394.3207,785.0466 400.4196,782.0453 405.8759,778.662 410.9869,774.7767 415.971,770.1546 420.4661,765.0556 424.2214,759.8484 427.6404,753.9734 430.4526,747.785 432.6295,741.3456 434.0823,735.092 434.9669,728.3524 435.1774,721.9357 434.7361,715.1526 433.6962,708.8173 431.9458,702.2491 429.6952,696.2364 426.7024,690.1333 423.3268,684.6723 419.2055,679.2667 414.8334,674.5653"/>
    <polygon points="409.7713,672.035 412.5876,676.5081 415.8233,680.6879 419.4481,684.535 423.7249,688.247 428.3633,691.4958 432.9748,694.0793 437.8145,696.2047 442.837,697.852 447.9954,699.0057 453.2412,699.6551 458.5252,699.794 464.1727,699.375 469.7464,698.3732 474.829,696.9216 479.7474,694.9853 484.4554,692.5823 488.9089,689.7352 493.0661,686.4706 496.8881,682.8193 500.3389,678.8154 503.3863,674.4964 506.1713,669.5655 508.2967,664.7258 509.9439,659.7032 511.0977,654.5449 511.747,649.2991 511.886,644.0151 511.467,638.3676 510.5499,633.162 509.0136,627.7113 507.0773,622.7929 504.6743,618.0849 501.8271,613.6314 498.5626,609.4742 494.9112,605.6522 490.9073,602.2014 486.5884,599.1539 481.995,596.5386 477.1701,594.3798 471.7952,592.5963 466.2645,591.3794 461.0143,590.7663 455.7295,590.664 450.4596,591.0733 444.8859,592.0751 439.8033,593.5267 434.8849,595.463 430.1769,597.866 425.4161,600.9328 421.2816,604.2261 417.485,607.9038 414.0619,611.9315 411.0445,616.2714 408.4609,620.8828 406.3356,625.7225 404.6883,630.7451 403.5346,635.9034 402.8852,641.1492 402.7463,646.4332 403.1191,651.7058 404.0002,656.9177 405.3812,662.0199 407.401,667.3105"/>
    <line x1="385.9795" x2="345.8992" y1="676.8089" y2="614.7618"/>
    <line x1="346.2135" x2="372.9337" y1="614.5588" y2="655.9235"/>
    <line x1="364.7624" x2="338.0422" y1="661.2018" y2="619.8371"/>
    <line x1="337.7279" x2="351.088" y1="620.0401" y2="640.7225"/>
    <line x1="356.5767" x2="378.5358" y1="638.1423" y2="699.8426"/>
    <line x1="378.1748" x2="367.1952" y1="699.9711" y2="669.1209"/>
    <line x1="374.4168" x2="385.3964" y1="666.5507" y2="697.4009"/>
    <line x1="385.0353" x2="363.0762" y1="697.5294" y2="635.8291"/>
    <line x1="359.8879" x2="346.5278" y1="635.0381" y2="614.3557"/>
    <line x1="345.5849" x2="399.0253" y1="614.9648" y2="697.6942"/>
    <polygon points="398.6569,693.7188 304.5787,900.158 374.1889,931.8806 468.267,725.4414"/>
    <line x1="392.1112" x2="338.6708" y1="702.1605" y2="619.4311"/>
    <line x1="338.3565" x2="378.4368" y1="619.6341" y2="681.6812"/>
    <line x1="384.3132" x2="340.3949" y1="697.7864" y2="574.3858"/>
    <line x1="335.3397" x2="379.258" y1="576.1849" y2="699.5855"/>
    <line x1="379.6191" x2="324.7212" y1="699.457" y2="545.2063"/>
    <line x1="329.0542" x2="383.9521" y1="543.6642" y2="697.9149"/>
    <line x1="383.591" x2="317.7135" y1="698.0434" y2="512.9425"/>
    <line x1="314.1027" x2="379.9802" y1="514.2276" y2="699.3285"/>
    <line x1="380.3413" x2="303.4842" y1="699.2" y2="483.249"/>
    <line x1="306.3729" x2="383.2299" y1="482.2209" y2="698.1719"/>
    <line x1="382.8688" x2="295.0322" y1="698.3004" y2="451.4992"/>
    <line x1="292.8657" x2="380.7023" y1="452.2703" y2="699.0715"/>
    <line x1="381.0634" x2="282.2472" y1="698.943" y2="421.2916"/>
    <line x1="283.6916" x2="382.5077" y1="420.7776" y2="698.429"/>
    <line x1="382.1467" x2="272.3509" y1="698.5575" y2="390.056"/>
    <line x1="271.6287" x2="381.4245" y1="390.313" y2="698.8145"/>
    <line x1="381.7856" x2="261.0103" y1="698.686" y2="359.3343"/>
    <polygon points="261.0103,359.3343 377.8137,700.0996 385.7575,697.2724"/>
    <polygon points="327.5875,414.1312 430.5585,194.5243 421.8292,190.6391"/>
    <line x1="257.9746" x2="489.7847" y1="488.6788" y2="522.8926"/>
    <line x1="487.7338" x2="152.715" y1="528.9117" y2="485.4691"/>
    <line x1="153.6335" x2="290.5025" y1="571.1647" y2="713.8807"/>
    <line x1="290.7709" x2="173.4546" y1="713.6233" y2="591.2953"/>
    <line x1="172.6495" x2="289.9657" y1="592.0675" y2="714.3955"/>
    <line x1="290.2341" x2="153.3652" y1="714.1381" y2="571.4221"/>
    <line x1="191.9338" x2="289.6973" y1="612.7129" y2="714.6529"/>
    <line x1="289.4289" x2="211.2181" y1="714.9103" y2="633.3583"/>
    <line x1="213.0968" x2="291.3076" y1="631.5565" y2="713.1085"/>
    <line x1="291.576" x2="232.9179" y1="712.8511" y2="651.6871"/>
    <line x1="230.5024" x2="289.1605" y1="654.0037" y2="715.1677"/>
    <line x1="288.8921" x2="249.7867" y1="715.4251" y2="674.6491"/>
    <line x1="252.739" x2="291.8444" y1="671.8178" y2="712.5938"/>
    <line x1="292.1128" x2="272.5601" y1="712.3364" y2="691.9484"/>
    <line x1="269.0711" x2="288.6238" y1="695.2945" y2="715.6825"/>
    <line x1="291.0392" x2="193.2757" y1="713.3659" y2="611.4259"/>
    <polygon points="203.594,608.3623 206.535,612.2952 209.8494,615.919 213.505,619.1982 217.4662,622.101 221.6942,624.5991 226.148,626.668 230.7842,628.2878 235.1864,629.3704 240.045,630.0857 244.9503,630.3184 249.8548,630.0662 254.7104,629.3317 259.47,628.1219 264.0871,626.4487 268.5167,624.3284 272.4018,621.9921 276.3514,619.0737 279.994,615.7799 283.294,612.1431 286.2193,608.1985 288.7414,603.9847 290.8357,599.5428 292.4818,594.916 293.6637,590.1494 294.3697,585.2895 294.5931,580.3837 294.3316,575.4797 293.5879,570.6255 292.3691,565.8682 290.6871,561.2543 288.5584,556.8287 286.2148,552.9481 283.2888,549.0041 279.9881,545.3677 276.345,542.0746 272.3949,539.1568 268.1763,536.6427 263.7304,534.5568 259.1005,532.9195 254.3317,531.7467 249.4705,531.0499 244.5642,530.8359 239.6608,531.1066 234.8079,531.8596 230.053,533.0874 225.4423,534.7781 221.0208,536.9153 217.1446,539.2663 213.2061,542.1998 209.5761,545.5073 206.2899,549.1567 203.3796,553.1123 200.8735,557.3356 198.7961,561.7855 197.1676,566.4185 196.0038,571.1896 195.3163,576.0521 195.1115,580.9588 195.3916,585.8617 196.1538,590.7131 197.3906,595.4657 199.0901,600.0732 201.2356,604.4906"/>
    <line x1="222.96" x2="438.6836" y1="640.1077" y2="467.3555"/>
    <line x1="438.4449" x2="240.6983" y1="467.0574" y2="625.4136"/>
    <line x1="242.1303" x2="439.8769" y1="627.2018" y2="468.8457"/>
    <line x1="440.1156" x2="260.3459" y1="469.1437" y2="613.1038"/>
    <line x1="258.4366" x2="438.2062" y1="610.7196" y2="466.7594"/>
    <line x1="437.9676" x2="276.1749" y1="466.4614" y2="596.0255"/>
    <line x1="278.5615" x2="440.3543" y1="599.0059" y2="469.4417"/>
    <line x1="440.5929" x2="296.7772" y1="469.7398" y2="584.9079"/>
    <line x1="293.9132" x2="437.7289" y1="581.3315" y2="466.1633"/>
    <line x1="437.4902" x2="311.6515" y1="465.8653" y2="566.6374"/>
    <line x1="314.9928" x2="440.8316" y1="570.8099" y2="470.0378"/>
    <line x1="441.0703" x2="333.2084" y1="470.3358" y2="556.7119"/>
    <line x1="329.3898" x2="437.2516" y1="551.9434" y2="465.5673"/>
    <line x1="437.0129" x2="347.1281" y1="465.2692" y2="537.2493"/>
    <line x1="351.4241" x2="441.3089" y1="542.614" y2="470.6339"/>
    <line x1="441.5476" x2="369.6397" y1="470.9319" y2="528.516"/>
    <line x1="364.8664" x2="436.7742" y1="522.5553" y2="464.9712"/>
    <line x1="436.5356" x2="382.6047" y1="464.6732" y2="507.8612"/>
    <line x1="387.8554" x2="441.7863" y1="514.418" y2="471.2299"/>
    <line x1="442.0249" x2="406.071" y1="471.528" y2="500.32"/>
    <line x1="400.343" x2="436.2969" y1="493.1672" y2="464.3751"/>
    <line x1="436.0582" x2="418.0813" y1="464.0771" y2="478.4731"/>
    <line x1="424.2866" x2="442.2636" y1="486.222" y2="471.826"/>
    <line x1="439.6382" x2="223.9146" y1="468.5476" y2="641.2998"/>
    <polygon points="222.1755,662.9173 225.8979,658.1751 228.4537,653.1328 230.0112,647.6985 230.5097,641.6905 229.7885,635.7051 228.0303,630.3324 225.0736,625.0786 221.3932,620.7877 216.9686,617.2692 211.6087,614.5095 206.1744,612.952 200.1664,612.4536 194.5497,613.0942 188.8083,614.9329 183.8644,617.6742 179.2636,621.57 175.5412,626.3123 172.9854,631.3546 171.4279,636.7888 170.9294,642.7969 171.6506,648.7822 173.4088,654.1549 176.15,659.0989 180.0459,663.6996 184.4705,667.2182 189.8304,669.9779 195.2647,671.5353 201.2727,672.0338 206.8894,671.3931 212.6308,669.5545 217.5747,666.8132"/>
    <line x1="205.699" x2="439.3996" y1="655.3978" y2="468.2496"/>
    <line x1="439.1609" x2="187.4834" y1="467.9516" y2="669.4958"/>
    <polygon points="187.4834,669.4958 442.5023,472.1241 435.8196,463.7791"/>
    <line x1="205.2217" x2="438.9222" y1="654.8017" y2="467.6535"/>
    <line x1="460.9495" x2="239.3032" y1="452.5882" y2="536.7883"/>
    <line x1="345.9582" x2="378.8969" y1="607.1636" y2="699.714"/>
    <line x1="384.6742" x2="351.7355" y1="697.6579" y2="605.1074"/>
    <line x1="345.2706" x2="412.0711" y1="615.1678" y2="718.5796"/>
    <line x1="405.7855" x2="338.9851" y1="722.6399" y2="619.2281"/>
    <line x1="339.9279" x2="446.8087" y1="618.619" y2="784.0779"/>
    <line x1="451.2086" x2="344.3278" y1="781.2357" y2="615.7768"/>
    <line x1="344.0135" x2="464.2544" y1="615.9799" y2="802.1211"/>
    <line x1="460.483" x2="340.2422" y1="804.5573" y2="618.416"/>
    <line x1="340.5564" x2="474.1574" y1="618.213" y2="825.0366"/>
    <line x1="477.3002" x2="343.6992" y1="823.0065" y2="616.1829"/>
    <line x1="343.385" x2="490.346" y1="616.3859" y2="843.8919"/>
    <line x1="487.8318" x2="340.8707" y1="845.516" y2="618.01"/>
    <line x1="341.185" x2="501.5062" y1="617.807" y2="865.9953"/>
    <line x1="503.3918" x2="343.0707" y1="864.7772" y2="616.5889"/>
    <line x1="342.7564" x2="516.4377" y1="616.7919" y2="885.6626"/>
    <line x1="515.1805" x2="341.4993" y1="886.4747" y2="617.604"/>
    <line x1="341.8136" x2="528.8549" y1="617.4009" y2="906.954"/>
    <line x1="529.4835" x2="342.4421" y1="906.548" y2="616.9949"/>
    <line x1="342.1278" x2="542.5293" y1="617.1979" y2="927.4334"/>
    <line x1="447.1542" x2="99.5201" y1="926.6926" y2="687.1819"/>
    <polygon points="137.4961,787.8389 178.8885,830.5628 274.9633,737.4825 233.571,694.7585"/>
    <line x1="230.8447" x2="448.419" y1="683.1769" y2="754.265"/>
    <polygon points="460.457,753.4263 453.8691,751.8133 447.0924,751.5329 440.3937,752.5961 434.0369,754.9611 428.2723,758.5348 423.3267,763.1763 419.3951,768.703 416.6322,774.8973 415.1946,781.1407 414.9703,787.9195 415.9921,794.2443 418.3396,800.6076 421.8973,806.3822 426.5252,811.3405 432.041,815.2873 437.8703,817.9456 444.467,819.5222 451.2452,819.7652 457.9379,818.665 463.9426,816.431 469.7269,812.8892 474.6979,808.275 478.66,802.7701 481.4571,796.5912 482.9292,790.3558 483.1909,783.5783 482.1091,776.8827 479.7266,770.5324 476.1371,764.7776 471.7655,760.094 466.2715,756.1167"/>
    <polygon points="373.0516,721.9762 370.6031,716.0435 367.4127,710.0437 363.6388,704.3926 359.5727,699.4268 354.7772,694.6123 349.5247,690.301 344.1915,686.7303 338.2044,683.5162 331.926,680.9163 325.7857,679.0486 319.1231,677.712 312.7375,677.0669 305.9422,677.044 299.1786,677.7002 292.5144,679.0289 286.3719,680.8894 280.0905,683.4818 274.0995,686.6889 268.459,690.4785 263.2254,694.8127 258.7033,699.3672 254.6314,704.3282 250.8508,709.9748 247.6533,715.9709 245.071,722.2564 243.1296,728.7685 241.9022,735.0682 241.2568,741.8328 241.2906,748.6281 242.0032,755.386 243.2931,761.6731 245.2991,768.1656 247.7805,774.0846 251.0042,780.0666 254.8095,785.6966 259.1583,790.9182 263.7253,795.4275 268.6976,799.4857 274.3547,803.2505 280.3596,806.4313 286.2963,808.8703 292.803,810.8298 299.4729,812.1293 306.2393,812.7559 312.6573,812.724 319.4172,812.0302 326.0738,810.6645 332.5607,808.6404 338.4728,806.1425 344.1228,803.0978 349.7633,799.3082 354.7178,795.2283 359.519,790.4195 363.5909,785.4585 367.3715,779.8119 370.569,773.8158 373.0245,767.886 375.002,761.3848 376.3201,754.7185 376.9655,747.9539 376.9514,741.5358 376.2764,734.774 375.0215,728.4798"/>
    <polygon points="353.4049,655.0778 346.4679,656.9022 340.103,659.2833 334.0018,662.2763 328.2231,665.8524 322.8224,669.9773 317.8516,674.6112 313.3586,679.7096 309.3864,685.2236 305.9733,691.1 303.1521,697.2825 300.9499,703.7115 299.388,710.3253 298.4812,717.0603 298.2384,723.8516 298.6618,730.6342 299.7474,737.3426 301.4848,743.9125 303.8573,750.2807 306.8419,756.3859 310.4102,762.1694 314.5277,767.5757 319.1548,772.5528 324.2471,777.0529 329.7556,781.0325 335.6274,784.4536 341.806,787.2833 348.2321,789.4942 354.8437,791.0652 361.5774,791.9811 368.3685,792.2332 375.1516,791.819 381.8615,790.7425 388.4337,789.0141 394.8051,786.6503 400.9144,783.6739 406.7028,780.1136 412.1147,776.0035 417.0981,771.3831 421.6051,766.2969 425.5923,760.7938 429.0214,754.9267 431.8594,748.7519 434.0791,742.3289 435.6591,735.7194 436.5842,728.987 436.8455,722.1963 436.4405,715.4126 435.3732,708.7012 433.6537,702.1267 431.2986,695.7521 428.3306,689.6387 424.7781,683.8455 420.6754,678.428 416.0618,673.4383 410.9818,668.9244 405.4841,664.9297 399.6217,661.4926 393.4508,658.6462 387.0308,656.4178 380.4235,654.8288 373.6923,653.8945 366.902,653.6239 360.1178,654.0196"/>
    <polygon points="346.0361,655.2926 339.662,657.661 333.2126,660.8105 327.4255,664.3807 321.7173,668.7316 316.741,673.3656 311.9949,678.7497 308.0219,684.2682 304.4215,690.4771 301.6056,696.6665 299.3948,703.0969 297.7402,710.0809 296.831,716.8197 296.5708,723.6145 297.0029,730.7788 298.0778,737.4932 299.9039,744.4343 302.2723,750.8083 305.2398,756.9265 308.992,763.0449 313.3429,768.7531 317.9769,773.7294 323.0658,778.2394 328.8794,782.4485 335.0884,786.0488 341.2777,788.8648 347.7082,791.0755 354.6922,792.7301 361.8075,793.6709 368.6037,793.8949 375.7656,793.4246 382.4741,792.314 389.0455,790.5665 395.7667,788.0487 401.869,785.0486 407.9673,781.2639 413.3643,777.1274 418.3407,772.4935 422.8507,767.4045 427.0597,761.5909 430.4864,755.7176 433.4761,749.1926 435.7914,742.399 437.3414,735.7782 438.2506,729.0394 438.5108,722.2445 438.0787,715.0803 437.0038,708.3659 435.1777,701.4248 432.8093,695.0507 429.6599,688.6013 426.0896,682.8142 421.9819,677.3953 417.1047,672.1297 412.0158,667.6197 406.2022,663.4106 399.9932,659.8102 393.8039,656.9943 387.3734,654.7836 380.3895,653.129 373.6507,652.2197 366.8558,651.9596 359.6915,652.3916 352.9772,653.4666"/>
    <polygon points="317.288,673.9969 312.5538,679.3844 308.5983,684.9094 305.196,690.7911 302.3788,696.9745 300.1731,703.4014 298.5997,710.0116 297.6409,717.1193 297.4067,723.9102 297.8307,730.6919 298.9089,737.4007 300.6312,743.9737 302.9814,750.3492 305.9375,756.4674 309.6844,762.5829 313.7928,767.9951 318.4056,772.9843 323.4795,777.5038 328.967,781.5112 334.8164,784.9687 341.3228,787.9862 348.1034,790.3234 354.7157,791.888 361.4484,792.8054 368.2383,793.067 375.0216,792.6704 381.7347,791.6193 388.3146,789.9236 395.0473,787.4519 401.1615,784.4876 406.9602,780.9456 412.6786,776.6168 417.6617,771.9973 422.1744,766.9173 426.3807,761.1083 429.7988,755.2357 432.6327,749.0599 434.8556,742.6389 436.4469,736.033 437.3915,729.3041 437.6773,722.1377 437.2715,715.3549 436.2114,708.6432 434.5068,702.0656 432.0261,695.3362 429.0536,689.226 425.5037,683.4321 421.1673,677.7195 416.5411,672.7427 411.455,668.2368 405.9568,664.2443 400.0981,660.8025 393.5836,657.8026 387.1596,655.5882 380.5515,654.0059 373.8213,653.0704 366.6545,652.7942 359.8723,653.2091 353.1621,654.2782 346.2267,656.1055 339.8607,658.4814 333.7545,661.4622 327.9654,665.0198 322.5477,669.1209"/>
    <polygon points="313.1919,679.2519 309.1983,684.7499 305.7588,690.6105 302.7655,697.1285 300.5615,703.5565 298.9938,710.1685 298.0771,716.9017 297.8254,724.0697 298.2675,730.8506 299.3675,737.5563 301.1151,744.1231 303.4936,750.4885 306.4805,756.5922 310.0473,762.3762 314.1602,767.7854 318.7801,772.7686 323.8632,777.2785 329.3611,781.2721 335.5568,784.8857 341.7397,787.7049 348.1677,789.9088 355.1512,791.5447 361.8892,792.4249 368.681,792.645 375.4619,792.2029 382.1676,791.1028 388.7343,789.3552 395.0998,786.9767 401.2035,783.9899 406.9874,780.4231 412.3967,776.3102 417.3799,771.6902 421.8897,766.6071 425.8834,761.1092 429.3228,755.2486 432.3161,748.7306 434.5201,742.3026 436.0878,735.6906 437.0045,728.9574 437.2562,721.7894 436.8141,715.0084 435.7141,708.3028 433.9665,701.736 431.588,695.3706 428.6011,689.2669 425.0343,683.4829 420.9214,678.0737 416.3015,673.0904 411.2184,668.5806 405.7205,664.587 399.8599,661.1475 393.3419,658.1542 386.5508,655.8463 379.9304,654.3144 373.1924,653.4342 366.4006,653.2141 359.6197,653.6562 352.914,654.7563 346.3473,656.5038 339.9818,658.8824 333.8781,661.8692 328.0942,665.436 322.6849,669.5489 317.7017,674.1689"/>
    <polygon points="305.3289,705.0486 303.9331,710.9251 303.057,717.2822 302.8147,723.6948 303.2086,730.0999 304.157,736.0649 305.769,742.2763 307.9882,748.2976 310.7927,754.0695 313.9422,759.2234 317.7992,764.3521 322.1451,769.0737 326.9371,773.3418 332.1282,777.1144 337.6674,780.3545 343.5001,783.0303 349.2066,785.0094 355.4436,786.5197 361.7994,787.405 368.2116,787.6567 374.6173,787.2722 380.9534,786.2553 387.1577,784.6161 393.1692,782.3706 398.9288,779.5409 404.3799,776.1548 409.469,772.2456 414.146,767.8518 418.3649,763.0164 421.8801,758.1047 425.0959,752.5514 427.7461,746.707 429.8046,740.629 431.2511,734.377 432.0715,728.0124 432.2644,721.9755 431.8519,715.5716 430.8073,709.24 429.1409,703.0429 427.0192,697.3879 424.1979,691.6242 420.8198,686.1681 416.918,681.0733 412.8017,676.6532 407.9972,672.3991 402.7952,668.6416 397.2466,665.4177 391.4061,662.759 385.331,660.6916 379.0811,659.236 372.7178,658.4063 366.6812,658.2047 360.2767,658.6078 353.9435,659.6432 348.1039,661.1861 342.0859,663.414 336.3181,666.2269 330.8571,669.597 326.0458,673.2484 321.3305,677.6012 317.0694,682.3995 313.3043,687.596 310.0723,693.1399 307.4051,698.9765"/>
    <polygon points="299.3217,717.0012 299.07,723.7931 299.4929,730.5765 300.508,736.915 302.2246,743.4912 304.5846,749.8649 307.5649,755.9732 311.136,761.7559 315.0196,766.8672 319.6339,771.8573 324.7202,776.3654 330.2284,780.3471 336.1041,783.7631 341.9388,786.4396 347.9984,788.5579 354.6006,790.172 361.3302,791.1235 368.121,791.4033 374.5305,791.0481 381.2488,790.0197 387.832,788.3303 394.2154,785.9966 400.336,783.0417 406.1335,779.4945 411.5508,775.3901 416.5346,770.7689 420.799,765.9708 424.8035,760.4792 428.2438,754.6177 431.0861,748.444 433.3024,742.0189 434.8708,735.4058 435.776,728.6697 436.0137,722.2549 435.6095,715.4703 434.5348,708.7593 432.9135,702.5481 430.571,696.168 427.6076,690.0515 424.0525,684.2589 419.9406,678.8472 415.3125,673.8698 410.2138,669.3758 404.6947,665.4093 398.8096,662.0095 392.9676,659.3491 386.5395,657.1417 379.9242,655.5824 373.5633,654.7187 366.7717,654.4577 360.3633,654.8305 353.6478,655.8775 347.0692,657.585 340.6923,659.9363 334.5799,662.9081 328.7922,666.4713 323.3863,670.5906 318.4153,675.2255 313.9282,680.3304 309.9694,685.855 306.5777,691.7448 303.9254,697.5905 301.7268,704.0216 300.2454,710.2676"/>
    <polygon points="300.3201,723.8941 300.7186,730.3022 301.7267,736.6431 303.335,742.8589 305.6759,749.241 308.6493,755.3541 312.011,760.8242 315.8792,765.9487 320.4878,770.9459 325.5774,775.4522 330.7792,779.2158 336.6514,782.6405 342.4884,785.3149 348.5539,787.4203 355.1637,789.008 361.9001,789.9202 368.3164,790.1527 374.7257,789.7722 381.4392,788.7049 387.6505,787.0791 394.026,784.7203 400.1307,781.7297 405.5914,778.3526 410.7049,774.47 415.6892,769.8475 420.1812,764.7452 423.9301,759.5329 427.3384,753.6511 429.9963,747.8066 432.1893,741.3721 433.6538,735.1209 434.547,728.3819 434.7616,721.965 434.3205,715.1815 433.2768,708.8463 431.6336,702.6397 429.2569,696.2708 426.4323,690.505 423.0706,685.0349 419.2024,679.9104 414.5938,674.9132 409.5042,670.4069 404.3024,666.6433 398.4303,663.2186 392.5932,660.5442 386.165,658.3331 379.9179,656.851 373.1815,655.9389 366.7652,655.7063 360.3559,656.0869 353.6424,657.1542 347.4311,658.78 341.0556,661.1388 335.2818,663.9472 329.4903,667.5065 324.3767,671.3891 319.3924,676.0116 314.9004,681.1139 311.1515,686.3262 307.9169,691.8724 305.0853,698.0525 302.997,704.1239 301.4278,710.7382 300.5663,717.1007"/>
    <polygon points="292.3812,712.079 143.723,561.0994 288.3554,715.9398"/>
    <polygon points="302.5946,743.2805 304.9484,749.6569 307.9264,755.7668 311.4989,761.5492 315.3869,766.6576 320.0086,771.6415 325.1043,776.1396 330.6233,780.107 336.5104,783.5042 342.3558,786.1583 348.4251,788.25 355.0357,789.8309 361.3947,790.7115 368.1862,790.9865 374.5955,790.623 381.3123,789.5817 387.8917,787.8757 394.2682,785.522 400.0467,782.7253 405.8488,779.1849 411.2689,775.0834 416.2528,770.4617 420.7509,765.366 424.7183,759.8471 427.9423,754.2956 430.7696,748.1146 432.8612,742.0452 434.4422,735.4346 435.3558,728.6993 435.5931,721.9064 435.194,715.4992 434.1155,708.7883 432.487,702.5786 430.1333,696.2022 427.1552,690.0923 423.7962,684.6215 419.6947,679.2015 415.073,674.2176 409.9773,669.7195 404.4583,665.7521 398.5712,662.3549 392.7259,659.7007 386.2936,657.504 380.0459,656.0282 373.6869,655.1476 366.8954,654.8726 360.4861,655.2361 353.7693,656.2774 347.1899,657.9834 340.8134,660.3371 334.7035,663.3151 328.9212,666.8877 323.8128,670.7757 318.8288,675.3973 314.3307,680.4931 310.3633,686.012 307.1394,691.5634 304.312,697.7445 302.2204,703.8139 300.6395,710.4245 299.7258,717.1598 299.4885,723.9526 299.9299,730.7353 300.9661,737.0708"/>
    <polygon points="313.4624,759.9975 317.3485,765.1105 321.7162,769.8189 326.5236,774.0773 331.7246,777.8449 337.2692,781.0857 343.1043,783.7683 349.537,785.9721 355.7913,787.4311 362.1584,788.2712 368.5771,788.4843 374.9859,788.0684 381.3232,787.0275 387.5283,785.3715 393.5416,783.1164 399.3054,780.2838 404.7644,776.9009 409.8663,773.0001 414.562,768.6188 418.8066,763.7991 422.5592,758.5873 425.7839,753.0334 428.4498,747.1906 430.5312,741.115 432.0082,734.8649 432.8667,728.5003 433.0983,722.0822 432.7009,715.6723 431.6782,709.3319 430.0401,703.1221 427.8024,697.1023 424.9864,691.3304 421.6192,685.8616 417.7331,680.7486 413.3654,676.0402 408.558,671.7818 403.357,668.0142 397.8124,664.7734 391.9773,662.0907 385.9077,659.9918 379.6619,658.4968 373.2998,657.62 366.8824,657.3699 360.4713,657.7488 354.1281,658.7532 347.9136,660.3734 341.8874,662.5938 336.1073,665.3931 330.6289,668.7445 325.5047,672.6159 320.7838,676.97 316.2751,682.0599 312.5224,687.2718 309.2977,692.8257 306.6318,698.6685 304.5504,704.7441 303.0734,710.9942 302.2149,717.3588 301.9833,723.7769 302.3807,730.1868 303.4034,736.5271 305.0415,742.737 307.2792,748.7567 310.0952,754.5287"/>
    <polygon points="292.3367,766.9415 517.0997,686.5076 482.3888,589.5121 257.6258,669.946"/>
    <polygon points="337.4137,620.2431 542.5293,927.4334 346.842,614.1527"/>
    <polygon points="375.3592,612.0238 376.2755,618.7575 377.7575,625.0025 379.9642,631.43 382.6309,637.2683 385.8391,642.8275 389.794,648.3539 394.0208,653.184 398.9738,657.837 404.3688,661.9693 409.8208,665.3565 415.9157,668.3622 421.9217,670.6259 428.1154,672.3099 434.8157,673.4445 441.5961,673.9009 448.0116,673.705 454.3796,672.9018 461.0068,671.3975 467.4495,669.2356 473.6427,666.4381 479.5239,663.0332 484.7382,659.2905 489.5743,655.0704 494.2342,650.1239 498.1584,645.0449 501.7688,639.2875 504.6318,633.5429 507.0551,627.1939 508.829,620.6338 509.9355,613.9287 510.3576,607.5241 510.1407,600.7319 509.3108,594.3673 507.7788,587.7465 505.59,581.3129 502.9396,575.4672 499.5428,569.5812 495.8075,564.3616 491.3322,559.2476 486.6541,554.8529 481.2707,550.7055 475.4983,547.1193 469.3951,544.1306 463.3827,541.8837 456.8152,540.1373 450.1056,539.0589 443.3216,538.6593 436.908,538.909 430.1756,539.8347 423.9326,541.3253 417.859,543.4011 411.6736,546.2159 405.802,549.6372 400.5981,553.3944 395.5028,557.8911 391.1278,562.5875 387.2177,567.6775 383.6235,573.445 380.7765,579.1975 378.371,585.5532 376.6154,592.1183 375.5703,598.4511 375.1234,605.2322"/>
    <line x1="445.1038" x2="74.1676" y1="610.4381" y2="341.6455"/>
    <polygon points="580.2572,352.6289 491.5726,346.9109 475.0522,603.1366 563.7369,608.8546"/>
    <polygon points="583.0156,308.7729 368.8777,291.149 526.36,437.3167"/>
    <polygon points="607.072,703.3286 608.634,700.7876 609.0381,698.2046 608.4818,695.65 607.0402,693.4689 604.9081,691.9558 601.998,691.3015 599.4234,691.7562 596.9136,693.3678 595.2851,695.8667 594.8129,698.4382 595.3016,701.0066 596.9462,703.4949 599.4664,705.0903 602.0439,705.5285 604.9497,704.8554"/>
    <polygon points="624.9603,702.828 622.3592,696.9622 619.3859,691.7052 615.6992,686.4535 611.5051,681.5973 607.132,677.4318 602.0776,673.4788 596.6529,670.0516 590.9122,667.1849 584.9134,664.9073 579.0855,663.3226 573.1343,662.2942 566.7351,661.8213 560.6973,661.9637 554.3275,662.7377 548.0672,664.1456 541.9794,666.1733 536.1252,668.8003 530.8815,671.7967 525.6461,675.5067 520.8085,679.7223 516.4173,684.401 512.7317,689.1856 509.3286,694.6254 506.4873,700.3787 504.352,706.0281 502.6774,712.2223 501.6314,718.5532 501.2308,724.5793 501.4293,730.9929 502.2021,736.9827 503.6377,743.2367 505.5546,748.9639 508.173,754.822 511.3648,760.3884 515.0979,765.6074 519.0723,770.1548 523.7446,774.5529 528.5237,778.2455 533.6296,781.4711 539.3618,784.3548 544.9953,786.5318 551.177,788.252 557.4999,789.3446 563.523,789.7897 569.9378,789.6384 576.3053,788.8456 582.5614,787.4192 588.6432,785.3736 594.1533,782.901 599.7245,779.7174 604.6522,776.2255 609.5022,772.0243 613.9072,767.3585 617.6068,762.5849 621.0259,757.155 623.7321,751.7558 625.9174,746.1255 627.6467,739.9463 628.7487,733.625 629.2122,727.2252 629.0609,721.1876 628.2775,714.819 626.8603,708.5608"/>
    <polygon points="587.0926,708.5259 586.4568,714.1529 586.3901,719.4381 586.8837,725.0793 587.8673,730.2726 589.3464,735.347 591.3074,740.2554 593.7319,744.9521 596.5974,749.3935 600.1267,753.822 603.8168,757.6064 607.8541,761.0178 612.2012,764.0245 617.1565,766.7653 622.0139,768.8494 627.0494,770.4561 632.2162,771.5704 637.8432,772.2062 643.1284,772.2729 648.7696,771.7793 653.9629,770.7957 659.0373,769.3166 663.9457,767.3556 668.9687,764.7408 673.3902,761.8447 677.5123,758.5362 681.2967,754.8462 684.7081,750.8089 687.7148,746.4618 690.2889,741.8454 692.5397,736.6491 694.1464,731.6136 695.2607,726.4468 695.8723,721.1967 695.9632,715.5346 695.5206,710.2676 694.486,704.7001 693.0069,699.6256 691.0459,694.7173 688.4311,689.6943 685.535,685.2727 682.2265,681.1506 678.5365,677.3663 674.1985,673.7264 669.8308,670.7497 665.1967,668.2074 660.3394,666.1233 655.3039,664.5166 650.1371,663.4023 644.887,662.7907 639.2249,662.6998 633.9579,663.1424 628.3904,664.177 623.3159,665.6561 618.4076,667.617 613.7108,670.0416 609.2694,672.9071 604.8409,676.4364 601.0566,680.1265 597.4167,684.4645 594.44,688.8322 591.8977,693.4662 589.8136,698.3236 588.2069,703.3591"/>
    <polygon points="611.3614,745.6916 560.0359,738.7823 565.2237,790.3103"/>
    <polygon points="606.6795,797.0455 608.146,799.6447 610.5308,801.4391 613.4345,802.1283 616.0195,801.7291 618.5801,800.1961 620.1528,798.106 620.8871,795.5955 620.5841,792.6265 619.3578,790.3161 617.0686,788.4013 614.5779,787.6026 611.6021,787.8291 608.966,789.2283 607.2878,791.2346 606.3765,794.0765"/>
    <polygon points="619.3286,797.52 619.9085,795.3471 619.5737,792.75 618.4618,790.7952 616.4007,789.18 614.2367,788.5677 611.6349,788.8636 609.6636,789.9461 608.0178,791.9828 607.3426,794.5129 607.6301,796.7434 608.9248,799.0195 611.0333,800.5724 613.2146,801.1196 615.8065,800.746 618.0223,799.3506"/>
  </g>
</svg>
