<?xml version="1.0" encoding="utf-8" ?>
<svg xmlns="http://www.w3.org/2000/svg" xmlns:cc="http://creativecommons.org/ns" xmlns:dc="http://purl.org/dc/elements/1.1/" xmlns:ev="http://www.w3.org/2001/xml-events" xmlns:inkscape="http://www.inkscape.org/namespaces/inkscape" xmlns:rdf="http://www.w3.org/1999/02/22-rdf-syntax-ns" xmlns:sodipodi="http://sodipodi.sourceforge.net/DTD/sodipodi-0.dtd" xmlns:xlink="http://www.w3.org/1999/xlink" baseProfile="tiny" height="29.7cm" version="1.2" viewBox="0 0 793.7007874015749 1122.5196850393702" width="21.0cm">
  <metadata>
    <rdf:RDF>
      <cc:Work>
        <dc:format>image/svg+xml</dc:format>
        <dc:source>Vsketch with params {'__seed__': 1883885335, 'debug_show_shapes': False, 'debug_draw': False, 'occult': False, 'scale': 1.0, 'area_type': 'RECT', 'width': 12.0, 'height': 14.0, 'num_circ_min': 2, 'num_circ_max': 10, 'circ_rad_min': 0.5, 'circ_rad_max': 2.0, 'num_circ_shaded_min': 0, 'num_circ_shaded_max': 0, 'circ_shaded_rad_min': 0.05, 'circ_shaded_rad_max': 0.5, 'circ_shaded_fill_dist_min': 0.05, 'circ_shaded_fill_dist_max': 0.2, 'num_circ_fill_min': 0, 'num_circ_fill_max': 0, 'circ_fill_rad_min': 0.05, 'circ_fill_rad_max': 0.5, 'num_circ_dash_min': 0, 'num_circ_dash_max': 0, 'circ_dash_rad_min': 0.05, 'circ_dash_rad_max': 0.5, 'num_circ_dot_min': 0, 'num_circ_dot_max': 0, 'circ_dot_rad_min': 0.05, 'circ_dot_rad_max': 0.5, 'circ_dot_dens_min': 400.0, 'circ_dot_dens_max': 800.0, 'circ_dot_dot_rad_min': 0.02, 'circ_dot_dot_rad_max': 0.06, 'num_circ_half_fill_min': 0, 'num_circ_half_fill_max': 0, 'circ_half_fill_rad_min': 0.05, 'circ_half_fill_rad_max': 2.0, 'circ_half_fill_gain_min': 0.4, 'circ_half_fill_gain_max': 0.6, 'num_circ_outer_fill_min': 0, 'num_circ_outer_fill_max': 10, 'circ_outer_fill_rad_min': 0.05, 'circ_outer_fill_rad_max': 2.0, 'circ_outer_fill_gain_min': 0.0, 'circ_outer_fill_gain_max': 0.2, 'num_line_min': 5, 'num_line_max': 8, 'line_length_min': 5.0, 'line_length_max': 13.0, 'num_thick_line_min': 0, 'num_thick_line_max': 0, 'thick_line_length_min': 3.0, 'thick_line_length_max': 7.0, 'num_tri_line_min': 4, 'num_tri_line_max': 8, 'tri_line_length_min': 4.0, 'tri_line_length_max': 10.0, 'tri_line_width_gain_min': 0.02, 'tri_line_width_gain_max': 0.04, 'num_rect_min': 5, 'num_rect_max': 10, 'rect_width_min': 1.0, 'rect_width_max': 4.0, 'rect_height_gain_min': 0.3, 'rect_height_gain_max': 3.0, 'num_rect_shaded_min': 0, 'num_rect_shaded_max': 0, 'rect_shaded_width_min': 0.1, 'rect_shaded_width_max': 1.0, 'rect_shaded_height_gain_min': 0.5, 'rect_shaded_height_gain_max': 2.0, 'rect_shaded_fill_dist_min': 0.05, 'rect_shaded_fill_dist_max': 0.2, 'num_rect_fill_min': 0, 'num_rect_fill_max': 0, 'rect_fill_width_min': 0.1, 'rect_fill_width_max': 1.0, 'rect_fill_height_gain_min': 0.5, 'rect_fill_height_gain_max': 2.0, 'num_rect_dash_min': 0, 'num_rect_dash_max': 0, 'rect_dash_width_min': 0.1, 'rect_dash_width_max': 1.0, 'rect_dash_height_gain_min': 0.5, 'rect_dash_height_gain_max': 2.0, 'num_rect_dot_min': 0, 'num_rect_dot_max': 0, 'rect_dot_width_min': 0.1, 'rect_dot_width_max': 1.0, 'rect_dot_height_gain_min': 0.5, 'rect_dot_height_gain_max': 2.0, 'rect_dot_dens_min': 400.0, 'rect_dot_dens_max': 800.0, 'rect_dot_rad_min': 0.02, 'rect_dot_rad_max': 0.06, 'num_tri_min': 0, 'num_tri_max': 5, 'tri_width_min': 0.5, 'tri_width_max': 4.0, 'tri_height_gain_min': 0.5, 'tri_height_gain_max': 2.0, 'num_tri_shaded_min': 0, 'num_tri_shaded_max': 0, 'tri_shaded_width_min': 0.1, 'tri_shaded_width_max': 1.0, 'tri_shaded_height_gain_min': 0.5, 'tri_shaded_height_gain_max': 2.0, 'tri_shaded_fill_dist_min': 0.05, 'tri_shaded_fill_dist_max': 0.2, 'num_tri_fill_min': 0, 'num_tri_fill_max': 0, 'tri_fill_width_min': 0.4, 'tri_fill_width_max': 1.0, 'tri_fill_height_gain_min': 0.5, 'tri_fill_height_gain_max': 3.0, 'num_tri_dash_min': 0, 'num_tri_dash_max': 0, 'tri_dash_width_min': 0.1, 'tri_dash_width_max': 1.0, 'tri_dash_height_gain_min': 0.5, 'tri_dash_height_gain_max': 2.0, 'num_tri_dot_min': 0, 'num_tri_dot_max': 0, 'tri_dot_width_min': 0.1, 'tri_dot_width_max': 1.0, 'tri_dot_height_gain_min': 0.5, 'tri_dot_height_gain_max': 2.0, 'tri_dot_dens_min': 400.0, 'tri_dot_dens_max': 800.0, 'tri_dot_rad_min': 0.02, 'tri_dot_rad_max': 0.06}</dc:source>
        <dc:date>2023-11-19T21:13:04.205341</dc:date>
      </cc:Work>
    </rdf:RDF>
  </metadata>
  <defs/>
  <g fill="none" id="layer1" inkscape:groupmode="layer" inkscape:label="1" stroke="#0000ff" style="display:inline">
    <polygon points="476.1981,720.6081 482.5662,719.7933 488.8239,718.3582 494.9107,716.3167 500.7681,713.6883 506.3397,710.4985 511.5718,706.778 516.414,702.5625 520.8198,697.8927 524.7466,692.8136 528.1566,687.374 531.017,681.6263 533.3003,675.626 534.9845,669.4308 536.0534,663.1003 536.4965,656.6955 536.3098,650.2782 535.495,643.91 534.0599,637.6524 532.0183,631.5656 529.39,625.7081 526.2002,620.1365 522.4796,614.9044 518.2642,610.0622 513.5944,605.6565 508.5152,601.7297 503.0756,598.3197 497.328,595.4592 491.3277,593.1759 485.1324,591.4917 478.802,590.4229 472.3972,589.9797 465.9798,590.1664 459.6117,590.9813 453.354,592.4164 447.2672,594.4579 441.4098,597.0863 435.8382,600.2761 430.6061,603.9966 425.7639,608.2121 421.3581,612.8819 417.4314,617.961 414.0213,623.4006 411.1609,629.1482 408.8776,635.1486 407.1934,641.3438 406.1246,647.6743 405.6814,654.079 405.8681,660.4964 406.6829,666.8646 408.118,673.1222 410.1596,679.209 412.7879,685.0664 415.9777,690.638 419.6983,695.8701 423.9137,700.7124 428.5835,705.1181 433.6627,709.0449 439.1023,712.4549 444.8499,715.3154 450.8502,717.5987 457.0455,719.2829 463.3759,720.3517 469.7807,720.7949"/>
    <polygon points="480.911,721.4329 484.7972,715.8539 487.9465,710.2576 490.6985,704.0404 492.8251,697.5824 494.3055,690.9465 495.1256,684.1971 495.2772,677.3997 494.7589,670.6204 493.5758,663.9251 491.7393,657.3788 489.2673,651.045 486.1837,644.9854 482.5187,639.2588 478.3077,633.9207 473.5916,629.0232 468.4163,624.6137 462.8321,620.735 456.8932,617.425 451.0105,614.85 444.5496,612.7323 437.9117,611.2609 431.1611,610.4501 424.3636,610.3078 417.585,610.8353 410.8913,612.0276 404.3475,613.8731 398.0171,616.3538 391.9617,619.4456 386.2401,623.1185 381.193,627.0888 376.2761,631.7847 371.8454,636.9418 368.146,642.1909 364.7792,648.0978 362.0102,654.3074 359.866,660.7595 358.3673,667.3914 357.5288,674.1385 357.3586,680.9355 357.8583,687.7161 359.0231,694.4147 360.8416,700.966 363.2963,707.3065 366.3632,713.3746 370.0126,719.1112 374.209,724.4608 378.9116,729.3712 384.0748,733.7949 389.6483,737.6888 395.2404,740.8458 401.4538,743.6062 407.9088,745.7416 414.5427,747.2312 421.291,748.0605 428.0882,748.2214 434.8682,747.7124 441.5651,746.5384 448.1139,744.7109 454.4511,742.2476 460.5149,739.1724 466.2466,735.5151 471.5904,731.3114 476.4944,726.6021"/>
    <polygon points="468.1699,719.1498 471.8708,714.865 475.3362,709.9193 478.0998,704.9779 480.3669,699.7898 482.1156,694.4048 483.3293,688.8747 483.9961,683.2523 484.1099,677.5917 483.6694,671.947 482.6788,666.3726 481.1478,660.9217 479.091,655.6468 476.528,650.5983 473.4835,645.8247 469.9867,641.3719 466.0712,637.2824 461.7743,633.5955 457.1375,630.3466 452.2051,627.5668 447.0245,625.2828 441.6452,623.5165 436.1191,622.2848 430.4989,621.5995 424.8387,621.4673 419.1926,621.8894 413.615,622.8617 408.1591,624.3749 402.8775,626.4145 397.8207,628.961 393.0372,631.9899 388.5729,635.4721 384.4707,639.3743 380.7698,643.6591 377.5057,648.2853 374.7099,653.2086 372.4089,658.3817 370.6251,663.7551 369.3754,669.2773 368.6718,674.8952 368.5211,680.5549 368.9713,686.577 369.9618,692.1515 371.4928,697.6023 373.5497,702.8773 376.1126,707.9258 379.1571,712.6993 382.6539,717.1522 386.5695,721.2417 390.8663,724.9286 395.5031,728.1775 400.4355,730.9573 405.6162,733.2413 410.9954,735.0076 416.5216,736.2393 422.1417,736.9245 427.802,737.0567 433.448,736.6347 439.0256,735.6624 444.4815,734.1491 449.7631,732.1095 454.8199,729.5631 459.6034,726.5342 464.0677,723.052"/>
    <polygon points="461.8457,729.8336 466.6136,726.1233 471.2567,721.6915 475.1847,717.1013 478.6457,712.1495 481.6067,706.8835 484.0394,701.3535 485.9206,695.6125 487.2323,689.7151 487.9618,683.7179 488.1024,677.6782 487.6526,671.6535 486.6166,665.7016 485.0045,659.8792 482.8317,654.2421 480.1188,648.844 476.6738,643.4282 472.9345,638.683 468.7497,634.3257 464.1596,630.3977 459.2078,626.9366 453.9418,623.9756 448.4118,621.5429 442.6707,619.6617 436.7734,618.3501 430.7762,617.6205 424.7364,617.48 418.7118,617.9298 412.7598,618.9657 406.9375,620.5778 401.3003,622.7507 395.9023,625.4635 390.7949,628.6905 386.027,632.4007 381.3839,636.8326 377.456,641.4228 373.9949,646.3745 371.0339,651.6406 368.6012,657.1705 366.72,662.9116 365.4084,668.8089 364.6788,674.8061 364.5382,680.8459 364.9881,686.8705 366.024,692.8225 367.6361,698.6449 369.8089,704.282 372.5218,709.68 375.7488,714.7874 379.459,719.5554 383.8909,724.1984 388.481,728.1264 393.4328,731.5874 398.6988,734.5484 404.2288,736.9812 409.9699,738.8623 415.8672,740.174 421.8644,740.9036 427.9042,741.0441 433.9288,740.5943 439.8808,739.5584 445.7031,737.9463 451.3403,735.7734 456.7383,733.0605"/>
    <polygon points="456.721,732.6117 461.8183,729.3648 466.5716,725.6325 470.9351,721.451 474.8664,716.8609 478.3273,711.9065 481.2845,706.6358 483.7093,701.1 485.5781,695.3527 486.8728,689.4495 487.581,683.4475 487.706,677.7828 487.2633,671.7555 486.2302,665.8009 484.6167,659.9767 482.4385,654.3394 479.7167,648.9434 476.4776,643.8412 472.7526,639.0821 468.5779,634.7122 463.9938,630.7739 459.3638,627.5076 454.1161,624.51 448.5991,622.0428 442.8663,620.1298 436.9732,618.7897 430.9769,618.0353 424.9355,617.8741 418.9076,618.3076 412.9514,619.3315 407.1247,620.936 401.484,623.1056 396.0839,625.8191 390.9767,629.0503 386.2118,632.7679 381.8355,636.936 377.8902,641.514 374.414,646.4577 371.4406,651.7192 368.9988,657.2476 367.2136,662.6251 365.8644,668.5161 365.1009,674.5112 364.9304,680.5524 365.3545,686.581 366.3693,692.5387 367.9649,698.3679 370.1257,704.0119 372.8309,709.4162 376.0543,714.5284 379.7646,719.2989 383.9258,723.6816 388.4978,727.634 393.4362,731.1178 398.6931,734.0993 404.2177,736.5496 409.9563,738.4449 415.8535,739.7669 421.8521,740.5028 427.894,740.6454 433.9206,740.1934 439.8736,739.1511 445.6953,737.5287 451.3293,735.3418"/>
    <polygon points="458.9852,736.3713 464.3967,732.9151 469.4456,728.9478 474.0836,724.5073 478.2667,719.6358 481.955,714.3797 485.1133,708.7891 487.7116,702.9172 489.7252,696.8201 491.1986,690.1832 491.9542,683.8068 492.0847,677.3871 491.5887,670.9852 490.471,664.6622 488.7422,658.4782 486.4189,652.4923 483.5231,646.7613 480.0825,641.3398 476.1297,636.2796 471.7025,631.6289 466.843,627.4318 461.5976,623.7284 456.0161,620.5541 450.1517,617.9389 444.0604,615.9078 437.8,614.4802 431.0535,613.6414 424.6342,613.4926 418.231,613.9702 411.9047,615.0697 405.7159,616.7807 399.7232,619.0868 393.9839,621.9661 388.5527,625.3912 383.4811,629.3294 378.8177,633.7432 374.6067,638.5906 370.8883,643.8254 367.6979,649.3978 365.0658,655.2546 363.0173,661.3401 361.5717,667.5963 360.7136,674.3404 360.5463,680.7592 361.0055,687.1639 362.0868,693.4932 363.8984,700.0458 366.2217,706.0318 369.1175,711.7628 372.5581,717.1842 376.5109,722.2444 380.9381,726.8952 385.7976,731.0923 391.3626,734.9973 396.9622,738.1396 402.8415,740.721 408.9444,742.7171 415.2128,744.1087 421.5871,744.8826 428.0064,745.0315 434.7845,744.5064 441.1043,743.3705 447.2833,741.624 453.2626,739.2835"/>
    <polygon points="459.7803,738.2136 465.2091,734.7825 470.5757,730.6072 475.497,725.9152 479.6913,721.0519 483.6095,715.4947 486.9512,709.573 489.6829,703.3462 491.6777,697.2418 493.1502,690.6035 493.9502,683.8512 494.081,677.4304 493.6035,671.026 492.4399,664.3268 490.7297,658.1365 488.2892,651.79 485.2252,645.7199 481.7866,640.2959 477.6037,634.9351 472.9049,630.0204 467.7372,625.6011 462.1529,621.7217 456.5467,618.5889 450.3162,615.866 444.2089,613.8796 437.5686,612.4164 431.1922,611.6519 424.3942,611.504 417.6156,612.0379 410.9246,613.2481 404.3885,615.1227 398.4171,617.486 392.6961,620.4039 386.9686,624.0687 381.6371,628.2888 377.0138,632.7462 372.6017,637.9199 368.9303,643.1892 365.7741,648.7822 363.0251,655.0013 360.913,661.4646 359.5223,667.7343 358.7035,674.4844 358.565,681.2826 359.1083,688.0604 360.3279,694.7497 362.2116,701.2832 364.5833,707.2513 367.698,713.2956 371.1818,718.6906 375.1607,723.7317 379.8732,728.6334 384.7539,732.8073 390.3275,736.7022 396.2632,740.0192 402.1478,742.591 408.2495,744.5943 414.8857,746.076 421.26,746.8583 428.0575,747.0252 434.8376,746.5102 441.1634,745.4024 447.356,743.7008 453.7059,741.2692"/>
    <polygon points="433.501,738.6374 439.4532,737.6104 445.2715,735.9882 450.5517,733.9415 455.9433,731.2185 461.0328,727.9657 465.7682,724.216 469.8431,720.2835 473.5279,715.9833 476.991,711.0344 479.9373,705.7615 482.2032,700.5717 484.0676,694.8264 485.2808,689.2949 485.9654,683.6734 486.1062,677.6349 485.6843,671.9876 484.6478,666.037 483.1355,660.5797 480.9614,654.9444 478.23,649.557 475.1878,644.7806 471.4606,640.0274 467.5475,635.934 462.967,631.9966 458.3323,628.7424 453.0734,625.7712 447.5417,623.3455 441.7935,621.4902 436.2601,620.2858 430.6376,619.61 424.5988,619.4788 418.5776,619.9573 413.0032,620.9555 407.5483,622.4764 401.9164,624.6594 396.8615,627.2123 391.7618,630.449 387.0145,634.1837 382.9272,638.1033 379.2289,642.3919 375.7502,647.3298 372.7873,652.5934 370.505,657.7761 368.723,663.1514 367.3918,669.0431 366.6894,674.6623 366.5296,680.7004 366.9336,686.3489 367.9513,692.3028 369.4464,697.7649 371.6027,703.4071 374.1316,708.474 377.3442,713.589 381.0563,718.3539 384.9565,722.4597 389.5246,726.4115 394.468,729.8825 399.3984,732.6681 404.9225,735.1112 410.6648,736.9847 416.1944,738.2066 422.1914,738.9274 427.8531,739.0504"/>
    <line x1="421.8655" x2="631.2937" y1="747.6397" y2="418.8794"/>
    <polygon points="530.0536,480.6934 346.905,393.6219 307.3742,476.7722 490.5227,563.8437"/>
    <polygon points="502.4716,524.7836 244.2213,281.5557 495.3577,532.1222"/>
    <line x1="502.2082" x2="483.342" y1="525.0554" y2="506.7668"/>
    <line x1="476.755" x2="495.6212" y1="513.5617" y2="531.8504"/>
    <line x1="495.8846" x2="458.1523" y1="531.5786" y2="495.0013"/>
    <line x1="464.2123" x2="501.9447" y1="488.7499" y2="525.3272"/>
    <line x1="501.6812" x2="445.0827" y1="525.599" y2="470.733"/>
    <line x1="439.5496" x2="496.1481" y1="476.4408" y2="531.3068"/>
    <line x1="496.4116" x2="420.9469" y1="531.035" y2="457.8803"/>
    <line x1="425.953" x2="501.4177" y1="452.7161" y2="525.8708"/>
    <line x1="501.1542" x2="406.8233" y1="526.1426" y2="434.6992"/>
    <line x1="402.3442" x2="496.6751" y1="439.3198" y2="530.7632"/>
    <line x1="496.9386" x2="383.7415" y1="530.4914" y2="420.7593"/>
    <line x1="387.6937" x2="500.8908" y1="416.6823" y2="526.4144"/>
    <line x1="500.6273" x2="368.564" y1="526.6862" y2="398.6655"/>
    <line x1="365.1388" x2="497.202" y1="402.1989" y2="530.2196"/>
    <line x1="497.4655" x2="346.5361" y1="529.9478" y2="383.6384"/>
    <line x1="349.4344" x2="500.3638" y1="380.6486" y2="526.958"/>
    <line x1="500.1003" x2="330.3047" y1="527.2298" y2="362.6317"/>
    <line x1="327.9334" x2="497.729" y1="365.0779" y2="529.676"/>
    <line x1="497.9925" x2="309.3307" y1="529.4042" y2="346.5174"/>
    <line x1="311.1751" x2="499.8368" y1="344.6148" y2="527.5016"/>
    <line x1="499.5734" x2="292.0454" y1="527.7734" y2="326.5979"/>
    <line x1="290.728" x2="498.256" y1="327.9569" y2="529.1324"/>
    <line x1="498.5194" x2="272.1253" y1="528.8606" y2="309.3965"/>
    <line x1="272.9158" x2="499.3099" y1="308.5811" y2="528.0452"/>
    <line x1="499.0464" x2="253.7861" y1="528.317" y2="290.5642"/>
    <line x1="253.5226" x2="498.7829" y1="290.836" y2="528.5888"/>
    <polygon points="485.3628,555.7558 459.5417,391.9667 328.9138,412.56 354.7349,576.3491"/>
    <polygon points="511.0956,585.7143 511.2184,590.2654 679.4048,583.45"/>
    <line x1="511.1058" x2="539.1471" y1="586.0936" y2="585.3369"/>
    <line x1="539.2495" x2="511.2082" y1="589.1295" y2="589.8862"/>
    <line x1="511.1979" x2="567.2805" y1="589.5069" y2="587.9936"/>
    <line x1="567.1987" x2="511.1161" y1="584.9595" y2="586.4728"/>
    <line x1="511.1263" x2="595.2502" y1="586.8521" y2="584.5822"/>
    <line x1="595.3116" x2="511.1877" y1="586.8577" y2="589.1276"/>
    <line x1="511.1775" x2="623.3427" y1="588.7484" y2="585.7218"/>
    <line x1="623.3017" x2="511.1365" y1="584.2048" y2="587.2313"/>
    <line x1="511.1468" x2="651.3532" y1="587.6106" y2="583.8274"/>
    <line x1="651.3737" x2="511.1672" y1="584.5859" y2="588.3691"/>
    <line x1="511.157" x2="679.4048" y1="587.9899" y2="583.45"/>
    <line x1="670.6713" x2="420.7043" y1="596.0199" y2="448.5571"/>
    <polygon points="453.8699,376.3901 394.3248,490.1594 498.7246,544.8006 558.2697,431.0313"/>
    <polygon points="464.3215,381.0469 454.6707,437.7191 597.393,462.0234 607.0438,405.3512"/>
    <line x1="469.3481" x2="381.4873" y1="338.8915" y2="547.8518"/>
    <polygon points="411.9234,615.4743 405.7405,617.1926 399.7557,619.5087 394.0268,622.4002 388.6088,625.8393 383.5541,629.7929 378.9112,634.223 374.7249,639.0868 371.0355,644.3374 367.8785,649.9245 365.2843,655.794 363.2779,661.8896 361.8787,668.1525 361.1001,674.5224 360.9496,680.9379 361.4286,687.3373 362.5326,693.6589 364.2509,699.8419 366.567,705.8266 369.4585,711.5556 372.8976,716.9735 376.8512,722.0282 381.2812,726.6711 386.145,730.8574 391.3957,734.5469 396.9827,737.7039 402.8523,740.298 408.9479,742.3044 415.2108,743.7036 421.5807,744.4822 427.9962,744.6328 434.3956,744.1537 440.7172,743.0497 446.9001,741.3314 452.8849,739.0154 458.6138,736.1239 464.0318,732.6847 469.0865,728.7311 473.7294,724.3011 477.9157,719.4373 481.6051,714.1866 484.7621,708.5996 487.3563,702.73 489.3627,696.6344 490.7619,690.3716 491.5405,684.0017 491.691,677.5862 491.212,671.1868 490.108,664.8652 488.3897,658.6822 486.0736,652.6974 483.1821,646.9685 479.743,641.5506 475.7894,636.4958 471.3594,631.8529 466.4956,627.6666 461.2449,623.9772 455.6579,620.8202 449.7883,618.226 443.6927,616.2197 437.4298,614.8204 431.06,614.0418 424.6444,613.8913 418.2451,614.3704"/>
    <polygon points="418.0211,613.1924 411.3261,614.3834 405.1454,616.1297 399.1617,618.4633 393.1026,621.5502 387.6972,625.0189 382.651,628.9921 378.0111,633.4331 373.8207,638.3004 370.1186,643.5487 366.9394,649.1293 364.1759,655.3426 362.1606,661.4408 360.6776,668.0773 359.9054,674.4533 359.751,680.8741 360.216,687.2799 361.2959,693.6111 362.9808,699.8088 365.4066,706.1616 368.2814,711.9049 371.6962,717.3445 375.865,722.7169 380.2861,727.3757 385.4332,731.8197 390.6868,735.5143 396.2719,738.6856 402.489,741.4403 408.5902,743.447 415.2287,744.9206 421.6058,745.6837 428.0268,745.829 434.807,745.3078 441.1304,744.183 447.6743,742.334 453.6513,739.9834 459.3741,737.0679 464.7894,733.6146 470.1321,729.4078 474.7593,724.9537 479.1668,719.7753 482.824,714.4956 485.9556,708.8881 488.5323,703.005 490.5304,696.9011 491.931,690.633 492.7486,683.8822 492.8848,677.461 492.354,670.6817 491.2202,664.3599 489.3619,657.8186 487.0028,651.8449 483.8902,645.799 480.3986,640.4083 476.4039,635.3792 471.9432,630.7582 467.0581,626.5885 461.7941,622.9088 455.8617,619.5848 449.975,617.0164 443.8682,615.027 437.5982,613.6352 431.2233,612.854 424.4249,612.7002"/>
    <polygon points="424.5729,611.1001 418.1698,611.5666 411.47,612.7146 404.9178,614.5239 398.5783,616.9766 392.5146,620.0483 387.0952,623.4903 381.737,627.673 376.822,632.3684 372.3988,637.5299 368.5116,643.1061 365.3673,648.7035 362.6275,654.9243 360.6208,661.0227 359.1312,667.6549 358.3094,674.4024 358.1635,681.1983 358.695,687.9749 359.8986,694.6649 361.7623,701.2018 364.1119,707.1765 367.0131,712.9036 370.6575,718.6415 374.608,723.7022 379.2898,728.6303 384.439,733.0677 389.6852,736.7683 395.593,740.1302 401.8062,742.8872 408.2631,745.0118 414.5271,746.4187 421.2723,747.2592 428.0677,747.4239 434.8458,746.9112 441.5391,745.7262 448.0812,743.8806 454.0623,741.5475 460.1261,738.4758 465.5454,735.0338 470.9036,730.851 475.8187,726.1556 480.2418,720.9942 484.129,715.4179 487.2733,709.8206 490.0131,703.5998 492.1198,697.1371 493.5094,690.8692 494.3032,684.4984 494.4868,677.7034 493.9929,670.924 492.8264,664.2274 490.9989,657.6803 488.6824,651.6927 485.6275,645.6205 481.9831,639.8825 478.0326,634.8218 473.3509,629.8938 468.2017,625.4564 462.6362,621.5537 457.0476,618.3939 450.8344,615.6369 444.3776,613.5123 438.1135,612.1054 431.3683,611.2649"/>
    <polygon points="424.5013,608.309 417.3446,608.8555 410.6479,610.0376 403.7366,611.9744 397.4009,614.4445 391.3307,617.5095 385.2728,621.3591 379.9199,625.5531 374.993,630.24 370.5373,635.377 366.3902,641.2353 363.0262,647.1451 360.1061,653.7018 357.8632,660.52 356.3838,667.1573 355.5188,674.2826 355.3673,681.081 355.867,687.8628 357.0959,694.9344 358.9134,701.4871 361.5028,708.1814 364.5678,714.2516 368.1997,720.0007 372.6114,725.6624 377.2983,730.5893 382.4352,735.0451 388.2936,739.1921 394.5408,742.7263 400.7601,745.4762 407.5783,747.7192 414.2155,749.1986 421.3408,750.0635 428.1393,750.2151 435.2961,749.6686 441.9927,748.4865 448.5454,746.6689 455.2397,744.0796 461.6382,740.8274 467.3678,737.1649 472.7207,732.971 477.6476,728.284 482.3362,722.8494 486.2504,717.2887 489.7845,711.0415 492.5345,704.8222 494.7774,698.0041 496.2568,691.3668 497.0943,684.6184 497.2734,677.4431 496.7736,670.6613 495.5447,663.5897 493.6079,656.6783 491.1378,650.3426 487.8856,643.9441 484.2232,638.2145 479.7814,632.5763 475.0683,627.6745 469.9077,623.2461 464.347,619.332 458.0998,615.7978 451.8805,613.0478 445.0623,610.8049 438.4251,609.3255 431.2998,608.4606"/>
    <polygon points="431.8837,609.3043 424.7106,609.1019 417.9294,609.5868 410.8581,610.808 404.307,612.6253 397.9624,615.068 391.884,618.1132 386.1288,621.7322 380.464,626.1373 375.5388,630.8237 371.0901,635.9647 367.1597,641.512 363.614,647.7507 360.8592,653.9661 358.7187,660.4189 357.2126,667.0485 356.3267,674.1696 356.1624,680.9661 356.6565,687.7467 357.8044,694.4477 359.7133,701.365 362.1645,707.7063 365.4046,714.1091 369.0623,719.8398 373.2573,725.1898 377.9503,730.1087 383.3956,734.7824 388.9692,738.6753 394.8934,742.0107 401.1125,744.7571 407.5682,746.8889 414.5722,748.4503 421.3221,749.2624 428.1188,749.4176 434.8987,748.9144 441.5981,747.7575 448.5129,745.8393 454.8509,743.3795 460.9211,740.3179 466.6666,736.6834 472.0334,732.51 477.2321,727.5635 481.6669,722.4106 485.5823,716.8527 488.9415,710.942 491.7131,704.7341 493.8709,698.2871 495.3948,691.6615 496.3,684.5429 496.4826,677.7468 495.961,670.5898 494.7951,663.892 492.9866,657.3384 490.5524,650.9906 487.3296,644.5791 483.6873,638.8385 479.5067,633.4773 474.827,628.5457 469.692,624.0901 464.15,620.1523 458.2529,616.7693 451.7043,613.835 445.2544,611.6859 438.6268,610.1709"/>
    <polygon points="424.8591,622.2648 419.2091,622.6913 413.9981,623.5935 408.5336,625.0915 403.2448,627.1243 398.5132,629.4867 393.7101,632.4925 389.2291,635.9601 385.1143,639.8554 381.4065,644.1398 378.3454,648.4524 375.5244,653.3663 373.2049,658.5358 371.4101,663.9101 370.1575,669.4359 369.4595,675.0588 369.3231,680.7232 369.7037,685.9981 370.6518,691.5843 372.1497,697.0487 374.1826,702.3375 376.7304,707.3985 379.7679,712.1815 383.2652,716.6395 386.9136,720.468 391.1981,724.1758 395.8294,727.44 400.7618,730.2285 405.9466,732.5136 411.3326,734.2728 416.8667,735.4888 422.1171,736.1228 427.7815,736.2593 433.4315,735.8328 439.0112,734.8476 444.4657,733.3135 449.3958,731.3997 454.1274,729.0373 458.9305,726.0316 463.4116,722.564 467.5263,718.6687 471.2341,714.3843 474.4983,709.753 477.2868,704.8206 479.5719,699.6357 481.2306,694.614 482.4832,689.0881 483.1811,683.4652 483.3175,677.8008 482.8911,672.1509 481.9059,666.5711 480.3718,661.1167 478.458,656.1865 475.9102,651.1256 472.8727,646.3425 469.3755,641.8846 465.727,638.056 461.4425,634.3483 456.8112,631.084 451.8788,628.2956 446.694,626.0105 441.6723,624.3518 436.1464,623.0992 430.5235,622.4012"/>
    <polygon points="448.2577,623.194 442.5257,621.2771 437.0025,620.0103 431.008,619.2379 424.9662,619.0704 418.9381,619.5094 413.3532,620.4681 407.5238,622.0645 401.8837,624.2373 396.8188,626.7784 391.7054,630.0007 386.9408,633.7195 382.8335,637.6234 379.1115,641.8963 375.603,646.8178 372.6057,652.0663 370.2868,657.2367 368.3608,662.9657 367.019,668.8589 366.2748,674.857 366.1266,680.5217 366.5562,686.5504 367.5061,692.1369 369.0933,697.9688 371.1055,703.2661 373.7904,708.6811 377.0047,713.7996 380.716,718.57 384.6135,722.6834 388.8805,726.4121 393.7965,729.9283 399.0403,732.9339 404.559,735.3986 410.297,737.2976 416.1965,738.6117 422.198,739.3276 427.8633,739.4492 433.5149,739.0375 439.4719,738.015 445.2963,736.4003 450.9294,734.2098 455.9863,731.6528 461.0896,728.4145 465.8426,724.6808 469.9375,720.7639 473.8788,716.1817 477.3408,711.2273 480.2886,705.9509 482.5587,700.7588 484.3306,695.3764 485.654,689.479 486.3517,683.8555 486.5098,677.8135 486.0613,671.7861 485.0938,666.2027 483.4883,660.3758 481.4595,655.0848 478.7576,649.6783 475.5273,644.5699 471.801,639.8111 467.8906,635.71 463.612,631.9947 458.6849,628.4939 453.4318,625.5048"/>
    <polygon points="472.6633,630.8918 467.5224,626.4441 462.2765,622.7421 456.7003,619.5594 450.4931,616.7878 444.0369,614.6596 437.7707,613.2602 431.3993,612.4672 424.6035,612.2964 418.2004,612.7683 411.8718,613.8511 405.3168,615.6523 399.3235,617.9552 393.2491,621.007 387.8239,624.4407 382.7523,628.3781 377.8196,633.0556 373.6187,637.9112 369.6992,643.4654 366.3628,649.3882 363.7782,655.2655 361.6682,661.7277 360.2865,667.9978 359.5114,674.3714 359.3501,680.7899 359.804,687.1944 360.9504,693.895 362.77,700.4448 365.0899,706.4316 367.9723,712.1688 371.6078,717.9129 375.5594,722.9733 380.2509,727.8929 385.4168,732.3116 390.6835,735.9838 396.2775,739.1351 402.5003,741.8716 408.6037,743.8644 414.8699,745.2638 421.2413,746.0569 428.0371,746.2277 434.4402,745.7558 441.1375,744.5904 447.3238,742.8718 453.6624,740.4156 459.3915,737.517 465.1253,733.8653 470.1746,729.8995 474.821,725.4684 479.2543,720.315 482.9414,715.0587 486.2778,709.1359 488.8624,703.2585 490.8725,697.1607 492.3541,690.5262 493.1292,684.1526 493.2906,677.7341 492.7909,670.9546 491.6902,664.6291 489.9891,658.438 487.5507,652.0925 484.6683,646.3553 481.0328,640.6112 477.0812,635.5507"/>
    <polygon points="472.4123,639.2983 468.5082,635.1968 463.9441,631.2411 459.0113,627.756 454.0947,624.9468 448.5877,622.4665 442.8625,620.543 436.975,619.195 430.9832,618.4359 424.9456,618.2729 418.9216,618.7077 412.97,619.7361 407.5082,621.2304 401.862,623.375 396.4556,626.0674 391.3419,629.2813 386.571,632.985 382.1898,637.1424 378.2412,641.7126 374.7638,646.6508 371.7918,651.9087 369.3542,657.4348 367.475,663.1747 366.1727,669.0724 365.487,674.6933 365.3334,680.7311 365.7775,686.7545 366.8151,692.7044 368.436,698.5226 370.6242,704.152 373.3584,709.5375 376.6117,714.6261 380.1049,719.0829 384.269,723.4576 388.8453,727.3992 393.7889,730.869 398.7141,733.663 404.2288,736.1262 409.96,738.032 415.8515,739.3617 421.8457,740.1023 427.8837,740.2466 433.9064,739.7932 439.8548,738.7463 445.6705,737.1165 451.2965,734.9195 456.6777,732.177 461.4533,729.1343 466.2126,725.4158 470.5809,721.2449 474.5154,716.6625 477.7756,712.0327 480.7639,706.784 483.2186,701.2655 485.1155,695.5314 486.4361,689.6378 487.1675,683.6425 487.3024,677.6042 486.8396,671.5822 485.8668,666.0039 484.264,660.1807 482.0932,654.5445 479.3757,649.1507 476.1381,644.0519"/>
    <polygon points="473.823,645.6139 470.3271,641.1556 466.4144,637.0581 462.1219,633.3605 457.1704,629.8963 452.2255,627.1312 447.0352,624.8599 441.6487,623.1038 436.117,621.8797 430.4925,621.1992 424.8284,621.0686 419.1785,621.4892 413.5963,622.4571 408.1346,623.963 402.8451,625.9928 397.778,628.5271 392.6722,631.7593 388.2138,635.2552 384.1164,639.168 380.4188,643.4605 376.9546,648.4119 374.1895,653.3568 371.9182,658.5471 370.1621,663.9336 368.938,669.4654 368.2575,675.0899 368.1269,680.7539 368.5475,686.4038 369.5154,691.9861 371.0213,697.4478 373.051,702.7372 375.5853,707.8044 378.6002,712.6011 382.3135,717.3685 386.2262,721.4659 390.5188,725.1636 395.1504,728.4264 400.0773,731.2236 405.2527,733.5286 410.9919,735.4202 416.5236,736.6443 422.1481,737.3249 427.8122,737.4555 433.4621,737.0348 439.0443,736.067 444.5061,734.561 450.1408,732.3778 455.1913,729.8107 459.9684,726.7647 464.4268,723.2688 468.5242,719.3561 472.2218,715.0636 475.686,710.1122 478.4511,705.1672 480.7225,699.9769 482.4785,694.5904 483.7026,689.0587 484.3832,683.4342 484.5137,677.7702 484.0931,672.1203 483.0415,666.1696 481.5001,660.7177 479.4361,655.4415 476.8689,650.391"/>
    <polygon points="468.3655,652.2498 509.7185,615.3963 474.0032,575.3204 432.6502,612.1738"/>
    <polygon points="484.3087,653.6372 481.6047,648.2311 478.1817,642.7973 474.2266,637.7376 470.0542,633.364 465.1864,629.175 460.2396,625.7012 454.9846,622.7143 449.1167,620.1045 443.3791,618.2023 437.1143,616.7898 431.1156,616.0458 424.6955,615.885 418.6672,616.3278 412.7084,617.3427 406.5139,619.0375 400.8684,621.1975 395.4543,623.8854 390.0103,627.2921 385.2259,630.9864 380.5528,635.3915 376.5828,639.9496 372.8608,645.1832 369.8582,650.4294 367.231,656.2895 365.21,662.3853 363.8805,668.2819 363.1186,674.2783 362.9387,680.6979 363.3635,686.7276 364.4418,693.0585 366.1551,699.2478 368.3319,704.8869 371.0359,710.293 374.4589,715.7268 378.414,720.7865 382.5864,725.1601 387.4542,729.3491 392.401,732.8229 397.6561,735.8098 403.524,738.4196 409.2615,740.3217 415.5263,741.7342 421.525,742.4783 427.9451,742.6391 433.9734,742.1963 440.3011,741.0991 446.4854,739.3674 452.1179,737.1738 457.5159,734.4537 462.9395,731.0145 467.9873,727.0443 472.3485,722.8589 476.2913,718.2772 479.982,713.0216 483.1221,707.4195 485.5455,701.8819 487.4306,696.1388 488.8244,689.8698 489.5506,683.8689 489.7019,677.8262 489.2314,671.4213 488.1988,665.4656 486.6036,659.6352"/>
    <polygon points="484.8716,671.9163 483.8982,666.3393 482.3949,660.8812 480.2229,655.2469 477.6735,650.192 474.4338,645.0962 470.9383,640.6428 467.0322,636.5449 462.4536,632.608 457.8165,629.3601 452.8896,626.5715 447.3657,624.1321 441.9859,622.3691 436.4619,621.1297 430.8445,620.4254 424.808,620.2711 419.162,620.6875 413.5818,621.6431 407.7602,623.2465 402.4777,625.2829 397.0861,628.0021 392.3085,631.0395 387.844,634.5207 383.7336,638.4137 380.0152,642.6827 376.5194,647.6063 373.7151,652.5244 371.3949,657.6885 369.4778,663.4145 368.2208,668.9346 367.4695,674.9261 367.3249,680.5856 367.7232,686.2329 368.7424,692.1848 370.2457,697.6429 372.2652,702.9318 374.9671,708.3321 377.9892,713.1193 381.4561,717.595 385.6084,721.9792 389.8893,725.684 394.8241,729.164 399.7511,731.9525 404.9226,734.2561 410.291,736.0536 416.1788,737.3943 421.7961,738.0986 427.8326,738.2529 433.4786,737.8365 439.0588,736.881 444.5217,735.3951 450.1629,733.2412 455.2259,730.7079 460.0228,727.7012 464.5096,724.2487 468.907,720.1104 472.6254,715.8414 476.1212,710.9177 478.9256,705.9997 481.3826,700.4837 483.2631,694.7455 484.4847,689.2176 485.1711,683.598 485.3158,677.9384"/>
    <polygon points="483.5606,683.7354 483.7228,678.0738 483.3265,672.4238 482.3753,666.8404 480.8787,661.3778 479.0024,656.4353 476.497,651.3557 473.5033,646.5477 470.0504,642.058 466.1719,637.9303 461.9057,634.2049 457.2931,630.918 452.3791,628.1015 447.2115,625.7829 441.8407,623.9847 436.3188,622.7245 430.6995,622.0145 425.0377,621.8615 419.3883,622.2672 413.8065,623.2275 408.3463,624.7332 403.0611,626.7694 398.0023,629.3165 393.219,632.3497 388.7579,635.8394 384.6623,639.7517 380.9721,644.0484 377.7232,648.6879 374.9472,653.6248 372.6712,658.8113 370.9172,664.1968 369.7025,669.7289 369.0387,675.3538 368.922,680.639 369.337,686.2877 370.3065,691.868 371.8211,697.3257 373.866,702.6075 376.4215,707.6622 379.4625,712.4404 382.9595,716.8958 386.6049,720.7246 390.8834,724.436 395.5067,727.7077 400.4299,730.508 405.6051,732.8096 410.9819,734.5901 416.5079,735.8321 422.1294,736.5237 427.7917,736.658 433.4397,736.2337 439.0184,735.2551 444.1148,733.8497 449.4067,731.8309 454.4739,729.3004 459.2671,726.283 463.7397,722.808 467.8481,718.9092 471.5525,714.6246 474.8166,709.9959 477.4379,705.405 479.765,700.2412 481.572,694.8733 482.8413,689.3535"/>
    <polygon points="492.3349,684.0772 492.4909,677.6601 492.0245,671.2581 490.9403,664.9314 489.1302,658.3807 486.8122,652.3949 483.9253,646.6618 480.4966,641.2353 476.5585,636.1664 472.1479,631.5028 467.3062,627.2884 462.0792,623.5627 456.1792,620.1896 450.3168,617.5751 444.2287,615.5408 437.9723,614.1058 431.2296,613.2544 424.8128,613.0893 418.4102,613.5465 411.7133,614.704 405.5286,616.4224 399.5395,618.7319 393.8023,621.6106 388.0621,625.2489 383.0101,629.2088 378.3654,633.6393 374.1717,638.4989 370.4685,643.7419 367.2905,649.3189 364.6677,655.1776 362.6247,661.2627 361.1148,667.889 360.3198,674.2586 360.1455,680.6751 360.5935,687.0784 361.6597,693.4082 363.334,699.6049 365.752,705.9564 368.6225,711.6977 372.2527,717.4432 376.2053,722.5008 380.6292,727.1518 385.4828,731.3524 390.7205,735.0631 396.293,738.2491 402.4999,741.0172 408.5938,743.0341 414.8543,744.4513 421.5994,745.2834 428.0166,745.4302 434.7927,744.9075 441.1115,743.7781 447.2912,742.042 453.2737,739.7155 459.3306,736.633 464.7325,733.1657 469.7732,729.1915 474.4052,724.7477 478.585,719.8762 482.2733,714.6227 485.4353,709.0366 488.1768,702.8179 490.1677,696.7155 491.558,690.4489"/>
    <polygon points="482.8209,694.8501 484.0616,689.3242 484.7906,683.3277 484.91,677.6655 484.4345,671.6436 483.4279,666.0704 481.8881,660.6203 479.8295,655.3442 477.2713,650.2915 474.2374,645.5093 470.7561,641.0422 466.8599,636.9319 462.5852,633.2169 457.9719,629.9318 452.7264,626.936 447.553,624.6317 442.1813,622.8375 436.6615,621.5701 430.6685,620.8121 425.007,620.6653 419.3577,621.0656 413.7735,622.0093 407.9473,623.6048 402.6614,625.6378 397.5964,628.1716 392.4904,631.3994 388.0289,634.8879 383.9249,638.7907 380.2168,643.0714 376.7367,648.0088 373.9518,652.9402 371.6558,658.1174 369.7698,663.8561 368.5469,669.3859 367.8635,675.008 367.7258,680.6697 368.1352,686.3183 369.0879,691.9011 370.5749,697.3658 372.7343,703.0073 375.2762,708.0683 378.2947,712.8602 381.7616,717.3385 385.9173,721.7226 390.204,725.4238 394.8278,728.694 399.7457,731.5027 405.2638,733.9605 411.0055,735.8373 416.5373,737.0512 422.1604,737.7256 427.8224,737.8542 433.4703,737.4357 439.42,736.3908 444.8725,734.8598 450.1519,732.8097 455.5368,730.0724 460.3043,727.0154 464.7545,723.5126 468.8459,719.5966 472.5402,715.304 476.0044,710.3553 478.7734,705.415 481.0526,700.2304"/>
    <polygon points="438.1714,683.5938 382.0886,642.9888 280.3779,783.4694 336.4607,824.0744"/>
    <polygon points="410.6512,736.5676 416.1807,737.7995 421.8024,738.4992 427.8428,738.6517 433.4927,738.2367 439.446,737.2031 445.2636,735.5701 450.5407,733.5098 455.5975,730.9563 460.3882,727.9326 465.1558,724.2204 469.2614,720.317 473.2095,715.7429 476.4711,711.1109 479.4468,705.852 481.7379,700.671 483.5251,695.2952 484.8578,689.4016 485.5574,683.78 485.71,677.7395 485.2949,672.0897 484.2614,666.1363 482.6284,660.3188 480.5681,655.0417 478.0145,649.9848 474.7733,644.8853 471.2787,640.4266 467.1014,636.0607 462.8011,632.3728 458.1692,629.1113 452.9103,626.1356 447.7292,623.8445 442.3535,622.0573 436.4599,620.7245 430.8382,620.0249 424.7978,619.8724 419.148,620.2874 413.1946,621.321 407.3771,622.9539 402.1,625.0142 397.0431,627.5678 391.9436,630.8091 387.4848,634.3037 383.119,638.481 379.4311,642.7812 376.1696,647.4132 373.1938,652.672 370.9027,657.8531 369.0147,663.593 367.7828,669.1224 367.0556,675.1209 366.9307,680.7846 367.3457,686.4344 368.3793,692.3877 370.0122,698.2053 372.0725,703.4824 374.8133,708.8674 377.8673,713.6387 381.3619,718.0975 385.2653,722.2031 389.8395,726.1512 394.4714,729.4128 399.7303,732.3885 404.9114,734.6796"/>
    <polygon points="404.24,737.4123 409.9834,739.2795 415.8808,740.581 421.8767,741.3043 427.9144,741.4428 433.9371,740.9952 440.2563,739.882 446.0694,738.2448 451.6964,736.0515 457.0842,733.3229 462.1819,730.0847 467.2268,726.1198 471.5782,721.9319 475.5029,717.3417 478.964,712.3926 481.9289,707.1311 484.504,701.2541 486.3625,695.5078 487.655,689.6084 488.3693,683.6115 488.4986,677.5736 488.0418,671.5516 487.0031,665.6022 485.273,659.4234 483.0712,653.7998 480.3344,648.4162 477.0885,643.3233 473.3639,638.5693 469.1958,634.1989 464.6235,630.2533 459.6902,626.7697 454.1049,623.6112 448.577,621.179 442.8393,619.2944 436.9459,617.9751 430.9522,617.2335 424.5375,617.0863 418.5162,617.5523 412.5684,618.6 406.7503,620.2196 401.1167,622.3958 395.7207,625.108 390.3046,628.5485 385.5562,632.2803 381.1921,636.455 377.2535,641.0332 373.5763,646.2914 370.6274,651.5619 368.2036,657.0935 366.3277,662.8341 365.0173,668.7295 364.2584,675.1009 364.1474,681.1392 364.6225,687.1598 365.6792,693.106 367.4281,699.2795 369.6469,704.8964 372.4,710.2717 375.6615,715.3547 379.4005,720.0974 383.5818,724.4551 388.4649,728.6175 393.4298,732.0561 398.7047,734.9969"/>
    <polygon points="408.2531,744.1814 414.8836,745.671 421.6304,746.4852 428.0473,746.6264 434.8234,746.11 441.1447,744.9977 447.3316,743.2891 453.6735,740.8473 459.4087,737.9656 465.153,734.3344 470.5023,730.1432 475.1428,725.7089 479.5726,720.5554 483.2597,715.3016 486.4302,709.7209 489.1923,703.5118 491.2143,697.4202 492.7132,690.7918 493.5089,684.4228 493.6871,677.6294 493.1801,670.8527 492.0767,664.5297 490.2585,657.9817 487.9439,651.9952 484.8842,645.9272 481.4471,640.5066 477.2634,635.1514 472.8356,630.5047 467.6883,626.0677 462.4397,622.3732 456.5262,619.0246 450.6582,616.424 444.5693,614.3936 437.9431,612.8854 431.1986,612.0523 424.7821,611.893 418.0046,612.3905 411.6802,613.485 405.1296,615.2941 399.1398,617.6003 393.0675,620.6515 387.6421,624.081 382.2811,628.2572 377.6282,632.6785 373.4171,637.5224 369.4822,643.063 366.296,648.6348 363.5165,654.8361 361.4775,660.9221 359.96,667.5463 359.1175,674.2895 358.9492,680.7058 359.4372,687.484 360.5229,693.81 362.2054,700.004 364.6206,706.3561 367.4782,712.1033 371.0851,717.8628 375.2538,723.2298 379.6686,727.8888 384.8034,732.3402 390.3605,736.2519 396.2833,739.5839 402.1586,742.168"/>
    <polygon points="374.7984,715.5162 378.7544,720.5701 382.9296,724.9361 387.8019,729.1138 392.7537,732.5739 398.0143,735.5438 403.535,737.9962 409.2653,739.9085 415.5243,741.3291 421.8954,742.1054 427.9348,742.2403 433.9594,741.7961 439.9138,740.777 446.1021,739.0747 451.74,736.905 457.1442,734.2053 462.5744,730.784 467.3425,727.0747 471.9943,722.6528 475.9403,718.0786 479.43,713.1476 482.4314,707.905 485.0545,702.0473 487.068,695.9531 488.3874,690.058 489.1637,683.6869 489.2986,677.6475 488.8544,671.6229 487.7527,665.3 486.0133,659.122 483.8098,653.4972 480.89,647.7816 477.624,642.6997 473.8862,637.9539 469.711,633.588 464.8387,629.4102 459.8869,625.9501 454.6264,622.9802 449.1056,620.5279 443.0114,618.5144 437.1163,617.195 431.1219,616.4463 424.7058,616.2837 418.6812,616.7279 412.7268,617.7471 406.5385,619.4494 400.9006,621.6191 395.4965,624.3188 390.0662,627.7401 385.0122,631.6962 380.6463,635.8713 376.7003,640.4454 373.2106,645.3765 370.2092,650.6191 367.5861,656.4767 365.6738,662.207 364.2533,668.466 363.4769,674.8371 363.342,680.8766 363.8331,687.2759 364.888,693.2241 366.5077,699.0439 368.6773,704.6817 371.5628,710.4147"/>
    <polygon points="370.5712,719.208 374.5493,724.2444 379.2549,729.1468 384.4225,733.5595 389.6815,737.2383 395.5986,740.5795 401.8173,743.3187 408.2766,745.429 414.913,746.8898 421.2846,747.6601 428.078,747.8227 434.4792,747.3582 441.1778,746.2165 447.7307,744.4176 454.0733,741.979 460.1435,738.9248 465.8816,735.2848 471.2314,731.0949 476.1403,726.3961 480.3281,721.5326 484.2461,715.9806 487.5954,710.0681 490.3432,703.8532 492.4624,697.3968 493.9324,690.7624 494.7113,684.3919 494.8833,677.5988 494.4276,671.1969 493.2952,664.4967 491.5053,657.9414 489.0754,651.5954 486.0295,645.521 482.3975,639.7779 478.2149,634.4223 473.5229,629.507 468.3675,625.0801 462.7993,621.1851 456.873,617.8602 450.6468,615.1382 444.5461,613.145 437.9138,611.6659 431.1676,610.8504 424.3739,610.7065 417.5993,611.2356 410.9102,612.4326 404.3725,614.2856 398.0502,616.7764 392.0055,619.8807 386.2976,623.5679 381.2667,627.553 376.3708,632.2653 371.9652,637.439 368.0932,643.0232 364.9606,648.6248 362.23,654.8473 360.2284,660.9452 358.7402,667.5755 357.9154,674.3205 357.7622,681.1141 358.282,687.8894 359.4697,694.5801 361.3137,701.1204 363.7958,707.4461 366.8918,713.4951"/>
    <polygon points="373.4812,708.9451 376.6992,714.0587 380.4104,718.8264 384.5779,723.201 388.8625,726.9063 393.7925,730.3991 399.0458,733.3837 404.5701,735.8305 410.3106,737.715 416.2101,739.0186 421.8334,739.7015 427.8735,739.8479 433.8982,739.3922 439.4791,738.422 445.3041,736.8179 450.9405,734.6417 456.3322,731.9151 461.4256,728.6653 466.1701,724.9244 470.2593,721.0044 473.9646,716.7198 477.4574,711.7898 480.442,706.5366 482.8887,701.0123 484.7733,695.2718 486.0768,689.3722 486.7866,683.3721 486.9062,677.7088 486.4505,671.6841 485.4803,666.1033 483.8761,660.2782 481.7,654.6419 478.9734,649.2502 475.9414,644.4654 472.2302,639.6976 468.0627,635.3231 463.4804,631.3852 458.5287,627.9232 453.257,624.9714 448.0705,622.6936 442.6941,620.91 436.8028,619.5697 430.8072,618.8226 424.7671,618.6762 418.7424,619.1319 413.1615,620.102 407.3365,621.7062 401.7001,623.8824 396.3084,626.6089 391.215,629.8588 386.7559,633.3522 382.3814,637.5196 378.6761,641.8043 375.1832,646.7342 372.1986,651.9875 369.7519,657.5118 367.9683,662.8882 366.6279,668.7796 365.8809,674.7751 365.7344,680.8152 366.1902,686.8399 367.1603,692.4208 368.7645,698.2458 370.9407,703.8822"/>
    <polygon points="362.9609,693.7438 364.6986,699.9235 367.0374,705.9017 369.9546,711.62 373.203,716.7145 377.1568,721.7718 381.5902,726.4145 386.46,730.5971 391.7186,734.2789 397.3148,737.424 403.1939,740.0017 409.2987,741.9868 415.5695,743.36 421.9452,744.1079 427.986,744.234 434.3873,743.7528 440.3413,742.725 446.5335,741.0322 452.5286,738.7369 458.2679,735.8614 463.6956,732.4337 468.7586,728.4872 473.4077,724.0606 477.5974,719.1969 481.2868,713.9436 484.44,708.352 487.0263,702.4766 489.0203,696.3748 490.3385,690.4783 491.1327,684.1082 491.2946,677.6908 490.8227,671.2888 489.8035,665.3333 488.1198,659.1386 485.8332,653.1402 482.966,647.3967 479.5462,641.9641 475.6071,636.8953 471.1872,632.2398 466.3297,628.043 461.0818,624.346 455.4947,621.1846 449.6231,618.5899 443.5241,616.587 437.2574,615.1956 430.8839,614.4291 424.4658,614.2952 418.4408,614.7481 412.1149,615.8401 405.9277,617.5508 399.9393,619.8636 394.2084,622.7558 388.7907,626.1992 383.7391,630.1604 379.1029,634.6005 374.9274,639.4763 371.2532,644.7403 368.1163,650.341 365.5471,656.2239 363.5709,662.3316 362.2698,668.2319 361.4941,674.6043 361.3508,681.0221 361.8414,687.4227"/>
    <line x1="366.1843" x2="262.1664" y1="688.6241" y2="987.8272"/>
    <line x1="262.5188" x2="366.5367" y1="987.9497" y2="688.7466"/>
    <polygon points="362.9967,687.0172 364.0967,693.3422 365.708,699.166 368.0153,705.1569 370.913,710.8856 374.1534,715.9858 378.1084,721.0428 382.2775,725.4167 386.8418,729.3766 392.0783,733.0905 397.6616,736.2594 403.5351,738.8511 409.6394,740.8394 415.54,742.1413 421.5373,742.8792 427.9553,743.0378 434.3567,742.5506 440.3083,741.5064 446.1345,739.9038 452.1288,737.6053 457.5329,734.9019 462.9668,731.4832 468.0297,727.5357 472.4097,723.3731 476.6097,718.5176 480.0981,713.5837 483.2752,708.0051 485.7391,702.4877 487.7725,696.3983 489.1181,690.5075 489.9303,684.1392 490.0984,677.7215 489.6666,671.6944 488.5853,665.3662 486.8734,659.1787 484.7018,653.5399 482.0063,648.1318 478.5957,642.6928 474.9014,637.9111 470.4996,633.238 465.9471,629.2646 460.7215,625.5352 455.4842,622.5215 449.6339,619.8777 443.5475,617.8353 437.2867,616.4149 431.2916,615.6593 424.8742,615.4817 418.4714,615.95 412.1481,617.0594 406.3267,618.6792 400.3391,620.9954 394.9431,623.7148 389.5193,627.1496 384.754,630.865 380.1005,635.2876 375.9149,640.1555 372.4412,645.0998 369.2806,650.6878 366.833,656.2124 364.8177,662.3078 363.4251,668.5748 362.6961,674.5733 362.547,680.9914"/>
    <polygon points="361.7425,680.7286 362.2072,687.1333 363.3056,693.4602 365.0267,699.6468 367.3536,705.632 370.0765,711.028 373.5085,716.4555 377.4624,721.5155 381.8992,726.1578 386.775,730.3367 392.0417,734.0107 397.6471,737.1437 403.1827,739.5704 409.2851,741.5697 415.5558,742.9532 421.933,743.7073 427.9757,743.8353 434.3791,743.3518 440.3341,742.318 446.5257,740.615 452.5177,738.3056 458.2507,735.4127 463.6681,731.9648 468.4306,728.2433 473.0859,723.8201 477.279,718.9565 480.9685,713.7006 484.1179,708.1044 486.5607,702.5759 488.5779,696.4794 489.9798,690.2128 490.7525,683.8379 490.8981,677.7955 490.4783,671.766 489.417,665.4327 487.7321,659.2362 485.4403,653.2375 482.5641,647.496 479.1321,642.0685 475.1782,637.0086 470.7414,632.3663 465.8656,628.1874 460.5989,624.5133 455.3316,621.5491 449.4579,618.9537 443.7197,617.0551 437.4572,615.6349 431.0846,614.8435 424.6649,614.6888 418.2615,615.1722 411.9378,616.2891 406.1149,617.9091 400.123,620.2185 394.3899,623.1114 388.9725,626.5592 384.21,630.2808 379.5547,634.704 375.3616,639.5675 371.8745,644.5043 368.6924,650.082 366.0799,655.9481 364.0627,662.0446 362.6609,668.3113 361.916,674.3093"/>
    <polygon points="356.9673,681.2289 357.4926,688.0055 358.6784,694.6982 360.5134,701.2428 362.9799,707.5764 366.0543,713.6382 369.7072,719.3701 373.9033,724.7171 378.6025,729.6279 383.7597,734.0553 389.3253,737.9568 395.246,741.2951 401.4649,744.0379 407.9224,746.1591 414.5564,747.6383 421.3033,748.4613 428.0984,748.6201 434.8764,748.1133 441.5723,746.9457 448.1218,745.1286 454.4621,742.6793 460.5323,739.6214 466.2741,735.9841 471.6326,731.8026 476.5561,727.1167 480.9975,721.9716 484.9142,716.4166 488.2685,710.5051 491.0283,704.2937 493.1671,697.842 494.6643,691.212 495.5057,684.4674 495.683,677.6728 495.1946,670.8934 493.9622,663.8258 492.1273,657.2813 489.6607,650.9477 486.5863,644.8859 482.9334,639.1539 478.7373,633.8069 474.0381,628.8961 468.8809,624.4688 463.3153,620.5672 457.3946,617.229 451.1757,614.4861 444.7182,612.3649 438.0842,610.8857 431.3373,610.0628 424.5422,609.9039 417.7642,610.4107 411.0683,611.5783 404.5188,613.3955 398.1785,615.8448 391.7802,619.0899 386.0582,622.7583 380.7227,626.969 375.8247,631.6816 371.4114,636.8508 367.525,642.427 364.2029,648.3567 361.477,654.5831 359.3734,661.0463 357.9122,667.6843 357.1076,674.4335"/>
    <line x1="355.5187" x2="288.5083" y1="680.3314" y2="295.8839"/>
    <line x1="232.05" x2="253.5976" y1="280.1849" y2="134.7339"/>
    <line x1="253.2259" x2="228.087" y1="134.6788" y2="304.3717"/>
    <line x1="222.5114" x2="247.6503" y1="303.5457" y2="133.8528"/>
    <line x1="248.022" x2="219.2918" y1="133.9079" y2="327.8426"/>
    <line x1="224.1241" x2="252.8542" y1="328.5584" y2="134.6237"/>
    <line x1="252.4825" x2="220.1611" y1="134.5687" y2="352.7452"/>
    <line x1="216.0723" x2="248.3937" y1="352.1395" y2="133.9629"/>
    <line x1="248.7654" x2="212.8527" y1="134.018" y2="376.4364"/>
    <line x1="216.1981" x2="252.1108" y1="376.932" y2="134.5136"/>
    <line x1="251.7391" x2="212.2351" y1="134.4585" y2="401.1187"/>
    <line x1="209.6331" x2="249.1371" y1="400.7333" y2="134.0731"/>
    <line x1="249.5088" x2="206.4136" y1="134.1281" y2="425.0302"/>
    <line x1="208.2721" x2="251.3674" y1="425.3055" y2="134.4035"/>
    <line x1="250.9957" x2="204.3092" y1="134.3484" y2="449.4923"/>
    <line x1="203.194" x2="249.8805" y1="449.3271" y2="134.1832"/>
    <line x1="250.2522" x2="199.9745" y1="134.2383" y2="473.624"/>
    <line x1="200.3462" x2="250.6239" y1="473.6791" y2="134.2933"/>
    <line x1="253.9693" x2="236.013" y1="134.7889" y2="255.9981"/>
    <line x1="228.9505" x2="246.9068" y1="254.9519" y2="133.7427"/>
    <line x1="246.5351" x2="232.17" y1="133.6876" y2="230.655"/>
    <line x1="239.976" x2="254.3411" y1="231.8113" y2="134.844"/>
    <line x1="254.7128" x2="243.939" y1="134.8991" y2="207.6246"/>
    <line x1="235.3896" x2="246.1634" y1="206.358" y2="133.6325"/>
    <line x1="245.7917" x2="238.6092" y1="133.5775" y2="182.0611"/>
    <line x1="247.9019" x2="255.0845" y1="183.4378" y2="134.9541"/>
    <line x1="255.4562" x2="251.8649" y1="135.0092" y2="159.251"/>
    <line x1="241.8287" x2="245.42" y1="157.7642" y2="133.5224"/>
    <polygon points="245.0483,133.4673 198.3647,485.7724 255.8279,135.0643"/>
    <line x1="247.2785" x2="225.7309" y1="133.7977" y2="279.2488"/>
    <line x1="235.9805" x2="403.7015" y1="372.8506" y2="281.5318"/>
    <polygon points="403.2085,313.6172 400.8922,316.0954 399.0867,318.9671 397.7585,322.4929 397.2204,325.8421 397.3259,329.2326 398.1925,332.8993 399.6159,335.9783 401.8479,339.0137 404.3625,341.2904 407.2625,343.05 410.4431,344.2291 414.1662,344.807 417.5546,344.6478 420.8516,343.8501 423.9381,342.443 426.9853,340.2271 429.2753,337.7246 431.2127,334.4932 432.3411,331.2942 432.8437,327.9396 432.7024,324.5504 431.9222,321.2492 430.5314,318.1553 428.3316,315.0965 425.8413,312.7933 422.6202,310.8388 419.4272,309.6935 416.0753,309.1731 412.6854,309.2965 409.3801,310.0593 406.2789,311.4337"/>
    <polygon points="398.2794,329.623 399.1405,332.9059 400.6381,335.9515 402.4559,338.3606 404.9737,340.6365 407.5534,342.2026 410.7343,343.3863 414.0872,343.9126 417.4777,343.7605 420.77,342.9361 423.8322,341.4724 426.5414,339.4281 428.5652,337.1894 430.3264,334.2882 431.4745,331.0943 431.9635,327.7357 431.8282,324.7209 431.0405,321.4196 429.6111,318.3413 427.5971,315.6095 425.0794,313.3335 422.4996,311.7674 419.3188,310.5838 415.9659,310.0575 412.5753,310.2096 409.283,311.034 406.2209,312.4977 403.7917,314.2885 401.4879,316.7807 399.7266,319.6819 398.5785,322.8758 398.0896,326.2343"/>
    <polygon points="443.308,317.4779 444.4092,320.2636 446.217,322.1674 448.9422,323.4109 451.9371,323.4692 454.3907,322.5353 456.589,320.5005 457.7977,317.7597 457.8823,315.1357 456.8526,312.3228 454.7899,310.1506 452.0338,308.9771 449.409,308.926 446.6094,309.9915 444.4638,312.0818 443.4045,314.484"/>
    <polygon points="449.1348,308.2028 446.0222,309.4692 443.8936,311.5711 442.5881,314.6676 442.5692,317.6591 443.6323,320.4554 445.9376,322.9004 449.034,324.2059 452.0255,324.2247 455.1382,322.9583 457.2668,320.8563 458.5723,317.7599 458.5911,314.7684 457.5281,311.9721 455.2228,309.5271 452.1263,308.2216"/>
    <polygon points="337.7361,357.2873 465.8269,406.6959 484.1353,359.2318 356.0445,309.8232"/>
    <line x1="251.0308" x2="114.296" y1="455.9766" y2="832.6171"/>
    <line x1="294.7246" x2="260.0519" y1="887.3578" y2="987.0921"/>
    <line x1="259.6995" x2="282.8146" y1="986.9696" y2="920.48"/>
    <line x1="288.1007" x2="264.9856" y1="922.3177" y2="988.8073"/>
    <line x1="265.338" x2="276.8956" y1="988.9298" y2="955.685"/>
    <line x1="270.9046" x2="259.3471" y1="953.6023" y2="986.8471"/>
    <line x1="260.4043" x2="306.6345" y1="987.2146" y2="854.2355"/>
    <line x1="310.511" x2="264.2808" y1="855.5831" y2="988.5623"/>
    <line x1="263.9284" x2="321.7161" y1="988.4398" y2="822.2158"/>
    <line x1="318.5445" x2="260.7567" y1="821.1132" y2="987.3371"/>
    <line x1="261.1091" x2="330.4544" y1="987.4597" y2="787.9909"/>
    <line x1="332.9213" x2="263.576" y1="788.8485" y2="988.3173"/>
    <line x1="263.2236" x2="344.1264" y1="988.1947" y2="755.4812"/>
    <line x1="342.3644" x2="261.4615" y1="754.8687" y2="987.5822"/>
    <line x1="261.814" x2="354.2743" y1="987.7047" y2="721.7464"/>
    <line x1="355.3316" x2="262.8712" y1="722.1139" y2="988.0722"/>
    <line x1="264.6332" x2="299.3059" y1="988.6848" y2="888.9504"/>
    <line x1="359.0977" x2="384.4149" y1="855.2596" y2="655.5933"/>
    <polygon points="369.0435,650.2716 366.4352,656.1354 364.5266,661.8664 363.0985,668.1233 362.3022,674.4914 362.1458,680.9072 362.5845,686.9318 363.6688,693.2573 365.3793,699.4429 367.6988,705.4268 370.6042,711.1492 373.848,716.2448 377.8028,721.2992 381.9687,725.6733 386.5273,729.6365 391.7559,733.358 397.3299,736.5388 403.1937,739.1472 409.2885,741.157 415.5537,742.5483 421.5497,743.2801 427.9655,743.4365 433.9901,742.9978 440.3155,741.9135 446.5011,740.2031 452.485,737.8835 458.2075,734.9781 463.6112,731.5159 468.6422,727.5314 472.9917,723.3398 476.928,718.758 480.6187,713.5076 483.5971,708.2524 486.2055,702.3887 488.2153,696.2938 489.6066,690.0287 490.3384,684.0327 490.4948,677.6168 490.0099,671.2174 488.8884,664.8985 487.2613,659.0812 484.9418,653.0973 482.223,647.7032 478.7926,642.2792 475.0843,637.511 470.6719,632.8507 465.8163,628.6543 460.8847,625.1661 455.3107,621.9852 449.447,619.3769 443.3521,617.367 437.0869,615.9757 431.0909,615.2439 424.6751,615.0875 418.6505,615.5263 412.3251,616.6106 406.1395,618.321 400.1556,620.6405 394.4332,623.5459 389.0294,627.0082 383.9984,630.9927 379.6489,635.1842 375.7126,639.7661 372.0219,645.0164"/>
    <polygon points="360.4614,653.8891 358.3262,660.3414 356.8216,666.9692 355.9614,673.7111 355.7614,680.882 356.2444,687.6613 357.459,694.7314 359.2662,701.2832 361.848,707.9762 364.9088,714.0444 368.5392,719.7901 372.9517,725.4462 377.6414,730.3654 383.0805,735.0429 388.6463,738.9433 394.5615,742.2903 401.1237,745.1886 407.5817,747.3065 414.2135,748.7934 421.3343,749.6632 428.1291,749.8163 434.907,749.3152 441.6054,748.1645 448.1619,746.3748 454.8619,743.8109 460.9382,740.7664 467.0028,736.9345 472.3615,732.754 477.5537,727.804 481.9852,722.651 485.9005,717.0956 489.2634,711.1894 492.1792,704.635 494.3144,698.1826 495.8838,691.1827 496.7079,684.4364 496.8695,677.2645 496.3503,670.4879 495.0978,663.4243 493.2556,656.8823 490.7926,650.5479 487.7318,644.4796 484.1015,638.734 479.9353,633.3642 474.9992,628.1587 469.858,623.7134 463.9943,619.5808 458.0791,616.2338 451.8694,613.4713 445.0589,611.2176 438.4271,609.7307 431.3063,608.8609 424.5115,608.7077 417.7336,609.2088 411.0353,610.3596 404.4787,612.1492 397.7788,614.7131 391.3737,617.9439 385.6378,621.5895 379.9935,626.0172 375.0869,630.7201 370.6554,635.8731 366.7401,641.4285 363.2073,647.672"/>
    <polygon points="356.1662,652.8435 129.8851,509.7692 126.7843,514.7951"/>
    <line x1="356.1662" x2="128.3347" y1="652.8435" y2="512.2821"/>
    <line x1="128.1409" x2="327.4934" y1="512.5963" y2="635.5875"/>
    <line x1="327.881" x2="128.5285" y1="634.9592" y2="511.968"/>
    <line x1="128.7223" x2="299.5959" y1="511.6539" y2="617.0749"/>
    <line x1="298.8207" x2="127.9471" y1="618.3314" y2="512.9104"/>
    <line x1="127.7533" x2="270.148" y1="513.2245" y2="601.0754"/>
    <line x1="271.3108" x2="128.9161" y1="599.1906" y2="511.3398"/>
    <line x1="129.1099" x2="243.0256" y1="511.0256" y2="581.3063"/>
    <line x1="241.4752" x2="127.5595" y1="583.8193" y2="513.5386"/>
    <line x1="127.3657" x2="212.8025" y1="513.8528" y2="566.5633"/>
    <line x1="214.7405" x2="129.3037" y1="563.422" y2="510.7115"/>
    <line x1="129.4975" x2="186.4553" y1="510.3974" y2="545.5377"/>
    <line x1="184.1297" x2="127.1719" y1="549.3072" y2="514.1669"/>
    <line x1="126.9781" x2="155.457" y1="514.481" y2="532.0512"/>
    <line x1="158.1702" x2="129.6913" y1="527.6535" y2="510.0833"/>
    <polygon points="243.857,483.1187 480.622,622.9014 549.401,506.403 312.636,366.6203"/>
    <polygon points="251.8592,577.1454 237.2424,612.6797 326.3981,649.3534 341.015,613.8191"/>
    <polygon points="310.0381,578.487 203.2228,493.9149 180.9623,622.0918"/>
    <polygon points="357.5852,667.2327 356.7411,673.9749 356.5568,680.7672 357.0339,687.5452 358.168,694.2447 359.9484,700.8022 362.358,707.1554 365.559,713.5734 369.1841,719.3204 373.3511,724.6875 378.0203,729.6239 383.1475,734.0828 388.684,738.0219 394.9142,741.5747 401.1236,744.3338 407.5719,746.476 414.198,747.9808 420.939,748.834 428.1086,749.0189 434.8847,748.5142 441.5795,747.3529 448.1297,745.546 454.8182,742.9573 460.878,739.8836 466.6102,736.2351 471.9604,732.0464 476.8778,727.3572 481.3159,722.212 485.2325,716.6595 488.5904,710.7525 491.358,704.5468 493.5088,698.1014 495.0877,691.1053 495.9135,684.3609 496.0795,677.5681 495.5372,670.4166 494.3487,663.7266 492.5152,657.1838 490.0541,650.8504 486.9886,644.7863 483.3479,639.0492 479.1664,633.6934 474.4839,628.7696 469.3447,624.3246 463.7975,620.4005 457.895,617.0346 451.693,614.2587 444.8868,611.9976 438.2566,610.5108 431.5133,609.6758 424.7208,609.5006 417.9434,609.9869 411.2454,611.1301 404.6904,612.9193 398.3404,615.3375 392.2558,618.3619 386.4942,621.9637 380.8232,626.3543 375.8931,631.0302 371.4412,636.1634 367.5096,641.7052 364.1356,647.6032 361.3513,653.8014 359.0811,660.6046"/>
    <polygon points="363.871,674.9191 363.7432,680.9608 364.2464,687.3614 365.3166,693.309 366.9552,699.1256 369.1471,704.7571 371.8718,710.151 375.1038,715.2571 378.8132,720.0278 383.2386,724.6794 388.1171,728.8533 393.0768,732.3058 398.3462,735.2641 403.8764,737.7004 409.6157,739.5922 415.5106,740.9218 421.8831,741.7047 427.9246,741.8416 434.326,741.3481 440.2752,740.2869 446.0943,738.657 451.7291,736.4736 457.1271,733.7571 462.2381,730.5328 467.0143,726.8306 471.6726,722.4123 475.6219,717.8383 479.1118,712.9048 482.1097,707.6578 484.7248,701.7941 486.6252,696.0577 488.0284,689.7925 488.7562,683.7934 488.9022,677.7521 488.465,671.7249 487.4487,665.768 485.8628,659.9368 483.5702,653.9396 480.8618,648.5375 477.4279,643.1125 473.7042,638.3531 469.5389,633.9749 464.673,629.7863 459.7238,626.3188 454.4632,623.3447 448.9405,620.8916 443.2069,618.9825 436.9438,617.5699 430.569,616.8063 424.5271,616.6876 418.502,617.1521 412.5497,618.1953 406.3672,619.927 400.739,622.1274 395.0214,625.0481 389.9398,628.3186 385.1973,632.0638 380.838,636.2489 376.9025,640.8347 373.4276,645.7787 370.2761,651.3725 367.8481,656.9063 365.965,662.6485 364.6443,668.5454"/>
    <polygon points="372.1393,672.063 258.9947,986.7246 265.6904,989.0523"/>
    <polygon points="178.0957,641.29 175.3489,647.0928 173.3249,652.7865 171.8648,658.6502 170.9824,664.6282 170.6863,670.6637 170.9791,676.6993 171.8582,682.6778 173.425,688.9038 175.4806,694.5861 178.0796,700.0414 181.1973,705.2178 184.8042,710.066 188.8659,714.54 193.344,718.5974 198.1957,722.1996 203.3751,725.3123 209.1821,728.0503 214.8788,730.0656 220.7447,731.5168 226.7241,732.39 232.76,732.6769 238.7952,732.3749 244.7723,731.4868 250.6346,730.021 256.3263,727.9914 262.1265,725.2389 267.2981,722.1133 272.1408,718.499 276.6086,714.4305 280.6592,709.9463 284.4627,704.7741 287.5358,699.5712 290.0879,694.0938 292.0946,688.394 293.5368,682.5258 294.4009,676.5452 294.6787,670.5088 294.3674,664.4741 293.4702,658.4983 291.9954,652.6383 289.9572,646.9497 287.3748,641.4865 284.2729,636.3007 280.6808,631.4415 276.6327,626.9551 272.1671,622.8841 267.3263,619.2671 262.1564,616.1387 256.7066,613.5284 251.0285,611.461 245.1761,609.9563 238.8291,608.9898 232.7941,608.6845 226.758,608.9681 220.7782,609.8381 214.9115,611.286 209.2136,613.2982 203.7387,615.8556 198.224,619.1429 193.3703,622.7424 188.89,626.7973 184.8259,631.2691 181.2163,636.1153"/>
  </g>
</svg>
