<?xml version="1.0" encoding="utf-8" ?>
<svg xmlns="http://www.w3.org/2000/svg" xmlns:cc="http://creativecommons.org/ns" xmlns:dc="http://purl.org/dc/elements/1.1/" xmlns:ev="http://www.w3.org/2001/xml-events" xmlns:inkscape="http://www.inkscape.org/namespaces/inkscape" xmlns:rdf="http://www.w3.org/1999/02/22-rdf-syntax-ns" xmlns:sodipodi="http://sodipodi.sourceforge.net/DTD/sodipodi-0.dtd" xmlns:xlink="http://www.w3.org/1999/xlink" baseProfile="tiny" height="29.7cm" version="1.2" viewBox="0 0 793.7007874015749 1122.5196850393702" width="21.0cm">
  <metadata>
    <rdf:RDF>
      <cc:Work>
        <dc:format>image/svg+xml</dc:format>
        <dc:source>Vsketch with params {'__seed__': 217821341, 'debug_show_shapes': False, 'debug_draw': False, 'occult': False, 'scale': 1.0, 'area_type': 'RECT', 'width': 12.0, 'height': 14.0, 'num_circ_min': 2, 'num_circ_max': 10, 'circ_rad_min': 0.5, 'circ_rad_max': 2.0, 'num_circ_shaded_min': 0, 'num_circ_shaded_max': 0, 'circ_shaded_rad_min': 0.05, 'circ_shaded_rad_max': 0.5, 'circ_shaded_fill_dist_min': 0.05, 'circ_shaded_fill_dist_max': 0.2, 'num_circ_fill_min': 0, 'num_circ_fill_max': 0, 'circ_fill_rad_min': 0.05, 'circ_fill_rad_max': 0.5, 'num_circ_dash_min': 0, 'num_circ_dash_max': 0, 'circ_dash_rad_min': 0.05, 'circ_dash_rad_max': 0.5, 'num_circ_dot_min': 0, 'num_circ_dot_max': 0, 'circ_dot_rad_min': 0.05, 'circ_dot_rad_max': 0.5, 'circ_dot_dens_min': 400.0, 'circ_dot_dens_max': 800.0, 'circ_dot_dot_rad_min': 0.02, 'circ_dot_dot_rad_max': 0.06, 'num_circ_half_fill_min': 0, 'num_circ_half_fill_max': 0, 'circ_half_fill_rad_min': 0.05, 'circ_half_fill_rad_max': 2.0, 'circ_half_fill_gain_min': 0.4, 'circ_half_fill_gain_max': 0.6, 'num_circ_outer_fill_min': 0, 'num_circ_outer_fill_max': 10, 'circ_outer_fill_rad_min': 0.05, 'circ_outer_fill_rad_max': 2.0, 'circ_outer_fill_gain_min': 0.0, 'circ_outer_fill_gain_max': 0.2, 'num_line_min': 5, 'num_line_max': 8, 'line_length_min': 5.0, 'line_length_max': 13.0, 'num_thick_line_min': 0, 'num_thick_line_max': 0, 'thick_line_length_min': 3.0, 'thick_line_length_max': 7.0, 'num_tri_line_min': 4, 'num_tri_line_max': 8, 'tri_line_length_min': 4.0, 'tri_line_length_max': 10.0, 'tri_line_width_gain_min': 0.02, 'tri_line_width_gain_max': 0.04, 'num_rect_min': 5, 'num_rect_max': 10, 'rect_width_min': 1.0, 'rect_width_max': 4.0, 'rect_height_gain_min': 0.3, 'rect_height_gain_max': 3.0, 'num_rect_shaded_min': 0, 'num_rect_shaded_max': 0, 'rect_shaded_width_min': 0.1, 'rect_shaded_width_max': 1.0, 'rect_shaded_height_gain_min': 0.5, 'rect_shaded_height_gain_max': 2.0, 'rect_shaded_fill_dist_min': 0.05, 'rect_shaded_fill_dist_max': 0.2, 'num_rect_fill_min': 0, 'num_rect_fill_max': 0, 'rect_fill_width_min': 0.1, 'rect_fill_width_max': 1.0, 'rect_fill_height_gain_min': 0.5, 'rect_fill_height_gain_max': 2.0, 'num_rect_dash_min': 0, 'num_rect_dash_max': 0, 'rect_dash_width_min': 0.1, 'rect_dash_width_max': 1.0, 'rect_dash_height_gain_min': 0.5, 'rect_dash_height_gain_max': 2.0, 'num_rect_dot_min': 0, 'num_rect_dot_max': 0, 'rect_dot_width_min': 0.1, 'rect_dot_width_max': 1.0, 'rect_dot_height_gain_min': 0.5, 'rect_dot_height_gain_max': 2.0, 'rect_dot_dens_min': 400.0, 'rect_dot_dens_max': 800.0, 'rect_dot_rad_min': 0.02, 'rect_dot_rad_max': 0.06, 'num_tri_min': 0, 'num_tri_max': 5, 'tri_width_min': 0.5, 'tri_width_max': 4.0, 'tri_height_gain_min': 0.5, 'tri_height_gain_max': 2.0, 'num_tri_shaded_min': 0, 'num_tri_shaded_max': 0, 'tri_shaded_width_min': 0.1, 'tri_shaded_width_max': 1.0, 'tri_shaded_height_gain_min': 0.5, 'tri_shaded_height_gain_max': 2.0, 'tri_shaded_fill_dist_min': 0.05, 'tri_shaded_fill_dist_max': 0.2, 'num_tri_fill_min': 0, 'num_tri_fill_max': 0, 'tri_fill_width_min': 0.4, 'tri_fill_width_max': 1.0, 'tri_fill_height_gain_min': 0.5, 'tri_fill_height_gain_max': 3.0, 'num_tri_dash_min': 0, 'num_tri_dash_max': 0, 'tri_dash_width_min': 0.1, 'tri_dash_width_max': 1.0, 'tri_dash_height_gain_min': 0.5, 'tri_dash_height_gain_max': 2.0, 'num_tri_dot_min': 0, 'num_tri_dot_max': 0, 'tri_dot_width_min': 0.1, 'tri_dot_width_max': 1.0, 'tri_dot_height_gain_min': 0.5, 'tri_dot_height_gain_max': 2.0, 'tri_dot_dens_min': 400.0, 'tri_dot_dens_max': 800.0, 'tri_dot_rad_min': 0.02, 'tri_dot_rad_max': 0.06}</dc:source>
        <dc:date>2023-11-21T20:29:42.768788</dc:date>
      </cc:Work>
    </rdf:RDF>
  </metadata>
  <defs/>
  <g fill="none" id="layer1" inkscape:groupmode="layer" inkscape:label="1" stroke="#0000ff" style="display:inline">
    <polygon points="340.0748,637.0984 344.8687,634.0936 348.7183,630.4774 352.0167,625.8805 354.2095,621.0755 355.5207,615.5718 355.707,609.9171 354.7608,604.3391 352.7202,599.0621 349.9001,594.5963 346.0127,590.4856 341.3829,587.2336 336.5561,585.0892 331.0395,583.8333 325.7601,583.6771 320.1789,584.6046 314.8952,586.6275 310.1215,589.6644 306.2962,593.3063 303.0287,597.9251 300.749,603.1032 299.5938,608.2571 299.42,613.5359 300.3288,619.1202 302.334,624.4107 305.3548,629.1945 309.2697,633.279 313.5918,636.3149 318.7622,638.612 323.9121,639.7844 329.1904,639.9759 334.7777,639.0858"/>
    <line x1="319.4" x2="313.9187" y1="665.7776" y2="256.5778"/>
    <line x1="386.5385" x2="422.9913" y1="239.9132" y2="488.5184"/>
    <line x1="423.3676" x2="383.877" y1="488.4632" y2="219.141"/>
    <line x1="386.5106" x2="426.0011" y1="218.7548" y2="488.0771"/>
    <line x1="426.3774" x2="389.9245" y1="488.0219" y2="239.4167"/>
    <line x1="393.3385" x2="426.7536" y1="260.0787" y2="487.9667"/>
    <line x1="427.1298" x2="396.7525" y1="487.9116" y2="280.7406"/>
    <line x1="391.8615" x2="422.2389" y1="281.4578" y2="488.6287"/>
    <line x1="422.6151" x2="389.2" y1="488.5736" y2="260.6855"/>
    <line x1="394.523" x2="421.8626" y1="302.23" y2="488.6839"/>
    <line x1="421.4864" x2="397.1845" y1="488.7391" y2="323.0023"/>
    <line x1="403.5804" x2="427.8823" y1="322.0645" y2="487.8012"/>
    <line x1="427.5061" x2="400.1664" y1="487.8564" y2="301.4025"/>
    <line x1="406.9943" x2="428.2585" y1="342.7264" y2="487.7461"/>
    <line x1="428.6347" x2="410.4083" y1="487.6909" y2="363.3883"/>
    <line x1="402.5075" x2="420.734" y1="364.5468" y2="488.8494"/>
    <line x1="421.1102" x2="399.846" y1="488.7942" y2="343.7746"/>
    <line x1="405.169" x2="420.3577" y1="385.3191" y2="488.9046"/>
    <line x1="419.9815" x2="407.8306" y1="488.9597" y2="406.0913"/>
    <line x1="417.2362" x2="429.3872" y1="404.7122" y2="487.5806"/>
    <line x1="429.7634" x2="420.6502" y1="487.5254" y2="425.3741"/>
    <line x1="410.4921" x2="419.6053" y1="426.8636" y2="489.0149"/>
    <line x1="419.2291" x2="413.1536" y1="489.0701" y2="447.6359"/>
    <line x1="424.0642" x2="430.1396" y1="446.0361" y2="487.4702"/>
    <line x1="430.5159" x2="427.4781" y1="487.4151" y2="466.698"/>
    <line x1="415.8151" x2="418.8528" y1="468.4081" y2="489.1252"/>
    <line x1="423.7438" x2="381.2155" y1="488.4081" y2="198.3687"/>
    <line x1="383.0966" x2="425.6249" y1="198.0929" y2="488.1322"/>
    <line x1="425.2487" x2="379.6826" y1="488.1874" y2="177.431"/>
    <line x1="378.5539" x2="424.12" y1="177.5964" y2="488.3529"/>
    <line x1="424.4962" x2="375.8924" y1="488.2977" y2="156.8242"/>
    <line x1="376.2687" x2="424.8725" y1="156.769" y2="488.2426"/>
    <line x1="429.011" x2="413.8223" y1="487.6357" y2="384.0503"/>
    <line x1="455.7491" x2="686.6331" y1="328.7828" y2="345.9972"/>
    <line x1="686.6615" x2="455.7775" y1="345.6171" y2="328.4027"/>
    <line x1="478.8942" x2="686.6898" y1="329.7441" y2="345.237"/>
    <line x1="686.7181" x2="502.0109" y1="344.8569" y2="331.0854"/>
    <line x1="501.8693" x2="686.5764" y1="332.9859" y2="346.7573"/>
    <line x1="686.6048" x2="478.8092" y1="346.3773" y2="330.8843"/>
    <polygon points="511.5873,343.6736 507.7263,340.6595 503.0213,338.2771 497.9349,336.8835 493.0499,336.5247 488.1832,337.0799 483.1571,338.6771 478.5518,341.247 474.5533,344.6858 471.5254,348.536 469.1261,353.2324 467.7809,357.9423 467.3378,363.1974 467.9544,368.435 469.4547,373.0979 472.008,377.7124 475.1616,381.4603 479.2716,384.7649 483.9594,387.1811 489.0356,388.6112 494.2952,388.9976 499.5259,388.3245 504.1722,386.7741 508.4496,384.3872 512.4727,380.9773 515.7328,376.8319 517.9612,372.4699 519.4096,367.3989 519.8148,362.1407 519.2421,357.2761 517.6269,352.2558 515.0404,347.6597"/>
    <line x1="524.9293" x2="686.5481" y1="335.0874" y2="347.1374"/>
    <line x1="686.5198" x2="547.9894" y1="347.5175" y2="337.1889"/>
    <line x1="548.2444" x2="686.7748" y1="333.7681" y2="344.0967"/>
    <line x1="686.7465" x2="525.1277" y1="344.4768" y2="332.4268"/>
    <line x1="571.3612" x2="686.8031" y1="335.1095" y2="343.7167"/>
    <line x1="686.8315" x2="594.4779" y1="343.3366" y2="336.4508"/>
    <line x1="594.1095" x2="686.4631" y1="341.392" y2="348.2777"/>
    <line x1="686.4914" x2="571.0494" y1="347.8976" y2="339.2904"/>
    <line x1="617.1695" x2="686.4347" y1="343.4935" y2="348.6578"/>
    <line x1="686.4064" x2="640.2296" y1="349.0379" y2="345.595"/>
    <line x1="640.7114" x2="686.8882" y1="339.1335" y2="342.5764"/>
    <line x1="686.8598" x2="617.5946" y1="342.9565" y2="337.7922"/>
    <line x1="663.8281" x2="686.9165" y1="340.4749" y2="342.1963"/>
    <line x1="686.3781" x2="663.2897" y1="349.418" y2="347.6965"/>
    <polygon points="686.3497,349.798 686.9448,341.8162 444.2191,327.7321"/>
    <polygon points="521.5265,572.0247 486.2781,548.6187 443.3875,613.2103 478.636,636.6162"/>
    <polygon points="464.9539,574.3006 461.248,578.5705 458.484,583.5027 456.8558,588.5235 456.2072,593.7616 456.6252,599.4 458.1769,604.8368 460.5917,609.5301 463.8511,613.6816 467.8373,617.1412 472.4062,619.7839 477.7602,621.601 482.9938,622.2852 488.6349,621.9055 493.7296,620.5261 498.7917,618.008 502.9653,614.7768 506.6711,610.5069 509.4352,605.5747 511.0634,600.554 511.7119,595.3158 511.3575,590.0496 509.8799,584.5922 507.5291,579.8665 504.3265,575.6711 500.0818,571.9362 495.5129,569.2935 490.159,567.4765 484.9254,566.7923 479.2843,567.1719 474.1896,568.5513 469.1274,571.0695"/>
    <polygon points="459.7316,539.3245 458.8444,534.1219 457.0935,529.5434 454.2829,525.0764 450.9132,521.5164 446.607,518.465 442.1314,516.4656 436.9854,515.2943 431.7087,515.1879 426.8827,516.047 422.3042,517.7979 417.8372,520.6086 414.0308,524.2644 411.2258,528.2845 409.1082,533.1187 408.0551,537.9061 407.9206,542.8061 408.8079,548.0087 410.7288,552.9244 413.3694,557.0543 416.7391,560.6142 421.0453,563.6657 425.8795,565.7833 430.6669,566.8363 435.567,566.9708 440.7695,566.0836 445.6852,564.1627 449.8151,561.5221 453.6215,557.8662 456.4265,553.8462 458.5441,549.012 459.5971,544.2246"/>
    <line x1="450.4848" x2="196.984" y1="500.3112" y2="883.5536"/>
    <polygon points="210.6756,875.834 217.3782,876.9507 223.7818,877.3766 230.1967,877.1874 236.9359,876.3187 243.1892,874.8751 249.6272,872.7016 255.4758,870.0595 261.0447,866.8697 266.5794,862.9277 271.4145,858.7076 276.0685,853.7567 279.982,848.6703 283.5747,842.9028 286.4146,837.1476 288.8063,830.7875 290.4623,824.5871 291.5602,817.8814 291.9728,811.099 291.7294,804.6859 290.8038,797.9542 289.3072,791.7134 287.2201,785.6445 284.3879,779.468 281.151,773.9263 277.3985,768.7199 272.9016,763.6259 268.2008,759.2567 263.1033,755.3575 257.656,751.9643 251.5625,748.9575 245.5555,746.6985 238.9906,744.9452 232.6572,743.9083 225.876,743.4765 219.4622,743.7019 212.728,744.6085 206.483,746.0874 200.0574,748.2972 194.2237,750.9722 188.6729,754.1934 183.1606,758.1665 178.3494,762.4138 173.7233,767.3909 169.8385,772.4993 166.4607,777.9562 163.6208,783.7114 161.2291,790.0715 159.4942,796.6413 158.4752,802.9776 158.0626,809.76 158.306,816.1732 159.1623,822.5335 160.6236,828.7827 162.8153,835.2145 165.4738,841.0557 168.6794,846.6155 172.6369,852.1391 176.8706,856.9622 181.5467,861.3579 186.9321,865.5015 192.3794,868.8947 198.1266,871.7508 204.4799,874.1605"/>
    <line x1="233.6087" x2="260.9615" y1="864.5625" y2="656.2184"/>
    <polygon points="245.2407,666.1941 278.874,502.6234 241.9652,665.4862"/>
    <line x1="244.8768" x2="252.7148" y1="666.1154" y2="629.845"/>
    <line x1="250.1672" x2="242.3292" y1="629.2945" y2="665.5649"/>
    <line x1="242.6931" x2="258.3691" y1="665.6435" y2="593.1027"/>
    <line x1="260.1888" x2="244.5129" y1="593.496" y2="666.0368"/>
    <line x1="244.1489" x2="267.6629" y1="665.9581" y2="557.1469"/>
    <line x1="266.5711" x2="243.0571" y1="556.911" y2="665.7222"/>
    <line x1="243.421" x2="274.773" y1="665.8008" y2="520.7192"/>
    <line x1="275.1369" x2="243.785" y1="520.7979" y2="665.8795"/>
    <line x1="247.8058" x2="431.3847" y1="638.6349" y2="909.9976"/>
    <line x1="398.8458" x2="397.9173" y1="897.7211" y2="876.7692"/>
    <line x1="387.189" x2="388.1176" y1="877.2447" y2="898.1966"/>
    <polygon points="387.7345,898.2135 399.229,897.7041 379.5533,583.6808"/>
    <line x1="388.5008" x2="386.6436" y1="898.1796" y2="856.2758"/>
    <line x1="396.6055" x2="398.4627" y1="855.8343" y2="897.7381"/>
    <line x1="398.0795" x2="395.2938" y1="897.7551" y2="834.8995"/>
    <line x1="386.0982" x2="388.8839" y1="835.307" y2="898.1626"/>
    <line x1="389.2671" x2="385.5528" y1="898.1456" y2="814.3381"/>
    <line x1="393.9821" x2="397.6964" y1="813.9646" y2="897.772"/>
    <line x1="397.3132" x2="392.6704" y1="897.789" y2="793.0297"/>
    <line x1="385.0074" x2="389.6502" y1="793.3693" y2="898.1286"/>
    <line x1="390.0334" x2="384.462" y1="898.1116" y2="772.4005"/>
    <line x1="391.3587" x2="396.9301" y1="772.0948" y2="897.806"/>
    <line x1="396.5469" x2="390.047" y1="897.823" y2="751.1599"/>
    <line x1="383.9166" x2="390.4165" y1="751.4316" y2="898.0947"/>
    <line x1="390.7997" x2="383.3712" y1="898.0777" y2="730.4628"/>
    <line x1="388.7353" x2="396.1638" y1="730.225" y2="897.84"/>
    <line x1="395.7806" x2="387.4235" y1="897.8569" y2="709.2902"/>
    <line x1="382.8257" x2="391.1828" y1="709.4939" y2="898.0607"/>
    <line x1="391.566" x2="382.2803" y1="898.0437" y2="688.5251"/>
    <line x1="386.1118" x2="395.3975" y1="688.3553" y2="897.8739"/>
    <line x1="395.0143" x2="384.8001" y1="897.8909" y2="667.4204"/>
    <line x1="381.7349" x2="391.9491" y1="667.5562" y2="898.0267"/>
    <line x1="392.3323" x2="381.1895" y1="898.0098" y2="646.5874"/>
    <line x1="383.4884" x2="394.6312" y1="646.4855" y2="897.9079"/>
    <line x1="394.248" x2="382.1767" y1="897.9249" y2="625.5506"/>
    <line x1="380.6441" x2="392.7154" y1="625.6185" y2="897.9928"/>
    <line x1="393.0986" x2="380.0987" y1="897.9758" y2="604.6497"/>
    <polygon points="380.1468,605.3386 377.8601,607.2941 375.7613,609.9482 374.3855,612.6241 373.4482,615.8753 373.1944,619.2495 373.5521,622.2369 374.5951,625.4558 376.0575,628.0853 378.2419,630.6695 380.9079,632.7531 383.5916,634.1136 386.8481,635.0323 390.2237,635.2668 393.576,634.8071 396.7638,633.6726 399.3504,632.1357 401.6147,630.1542 403.683,627.4763 405.1611,624.4325 405.9283,621.5232 406.1539,618.5228 405.7518,615.1631 404.8243,612.3008 403.1797,609.3437 400.9659,606.7847 398.2762,604.7317 395.2241,603.2711 392.3104,602.5205 388.9324,602.3246 385.9515,602.7333 383.0945,603.6772"/>
    <line x1="380.865" x2="393.8649" y1="604.6157" y2="897.9418"/>
    <line x1="393.4817" x2="379.5533" y1="897.9588" y2="583.6808"/>
    <polygon points="376.9823,610.5358 375.5979,613.2139 374.7717,616.1133 374.5364,619.1188 374.8231,621.7422 375.702,624.6259 377.135,627.2784 379.0651,629.5943 381.4159,631.4818 384.094,632.8662 386.9934,633.6924 389.9989,633.9277 392.9915,633.5629 395.8525,632.6123 398.4684,631.1136 400.4744,629.399 402.3619,627.0482 403.7463,624.3701 404.5725,621.4708 404.8078,618.4652 404.443,615.4726 403.4924,612.6116 401.9937,609.9957 400.2791,607.9897 397.9283,606.1022 395.2502,604.7178 392.3509,603.8916 389.7227,603.6528 386.722,603.943 383.8382,604.8219 381.1857,606.2549 378.8698,608.185"/>
    <polygon points="378.6873,629.8511 381.3324,631.9609 384.0179,633.3179 386.914,634.1336 389.913,634.3777 392.9029,634.041 395.7724,633.1362 398.4147,631.697 400.7312,629.7769 402.6357,627.4475 404.0571,624.7956 405.0137,621.5501 405.2578,618.5512 404.8386,615.1937 403.8647,612.3468 402.362,609.7401 400.3865,607.4707 398.0118,605.6231 395.3263,604.2661 392.4302,603.4504 389.4313,603.2063 386.4413,603.543 383.5718,604.4478 380.6202,606.1021 378.3508,608.0776 376.5032,610.4523 375.1462,613.1378 374.3305,616.0339 374.0864,619.0328 374.4231,622.0228 375.3279,624.8923 376.7672,627.5346"/>
    <polygon points="377.5689,631.2658 380.225,633.3809 383.2417,634.9393 386.5038,635.8814 389.8869,636.1712 393.2617,635.7978 396.4996,634.7754 399.4768,633.143 402.0799,630.9629 404.2095,628.3182 405.7842,625.3101 406.744,622.0531 407.0523,618.6717 406.6972,615.2949 405.6924,612.0515 404.0762,609.0654 401.9102,606.4505 399.2772,604.3066 396.2776,602.7156 393.0259,601.7381 389.2684,601.4161 385.8978,601.8262 382.6713,602.8837 379.7119,604.5484 377.1327,606.7567 375.0321,609.4244 373.4901,612.4495 372.5658,615.7167 372.2943,619.1012 372.686,622.474 373.726,625.7062 375.3746,628.6746"/>
    <polygon points="402.3367,631.3409 404.4827,628.7173 406.2367,625.3861 407.1853,622.1321 407.5009,618.7573 407.0961,615.0144 406.0663,611.7852 404.444,608.8091 402.2878,606.1939 399.6756,604.0341 396.3537,602.2625 393.1048,601.2968 389.7317,600.9633 386.3565,601.2742 382.7521,602.3609 379.7675,603.9675 376.8755,606.3778 374.7573,609.0239 373.0387,612.3735 372.1246,615.6374 371.8447,619.0153 372.2091,622.3851 373.3529,625.9719 375.0066,628.9306 377.1904,631.5228 380.1419,633.8599 383.1657,635.3912 386.4247,636.3226 389.8011,636.6204 393.1728,636.2738 396.7656,635.1489 399.7329,633.5109"/>
    <polygon points="404.5764,624.7088 405.4872,621.4435 405.6912,618.0597 405.2711,615.0747 404.2998,612.221 402.5916,609.2929 400.5856,607.0429 397.8719,605.0112 395.148,603.7201 392.2305,602.9616 388.8456,602.7775 385.8631,603.2152 383.0152,604.2033 380.4025,605.7069 378.1174,607.6729 376.2406,610.0318 374.6992,613.051 373.8893,615.9546 373.6372,618.9585 374.0305,622.3255 374.9681,625.1904 376.4254,627.8292 378.6211,630.4119 380.9911,632.2748 383.6678,633.6612 386.9276,634.5912 389.9329,634.8257 393.2976,634.4126 396.1569,633.4581 398.7871,631.9853 401.0952,630.0463 403.2057,627.3936"/>
    <polygon points="406.2639,615.4132 405.2584,612.1761 403.6283,609.2041 401.4388,606.6163 398.7778,604.5165 395.7519,602.9889 392.4823,602.0945 389.1001,601.8694 385.7408,602.3224 382.539,603.4355 379.9293,604.9435 377.6283,606.8904 375.499,609.5278 373.9377,612.5366 373.007,615.796 372.7441,619.1755 373.1597,622.5396 374.2371,625.7536 375.933,628.6885 377.9054,630.9677 380.5664,633.0675 383.5923,634.5951 386.8619,635.4895 389.867,635.7232 393.2355,635.3451 396.4613,634.3036 399.4149,632.6405 401.9781,630.4223 404.0481,627.7381 405.542,624.6953 406.3372,621.788 406.6001,618.4085"/>
    <polygon points="370.9471,663.2179 365.8728,668.7372 587.8607,867.7359"/>
    <line x1="370.6933" x2="392.6384" y1="663.4939" y2="683.6697"/>
    <line x1="388.0715" x2="366.1265" y1="688.6371" y2="668.4612"/>
    <line x1="366.3802" x2="410.2703" y1="668.1853" y2="708.537"/>
    <line x1="414.3298" x2="370.4396" y1="704.1215" y2="663.7699"/>
    <line x1="370.1859" x2="436.0211" y1="664.0458" y2="724.5733"/>
    <line x1="432.4691" x2="366.6339" y1="728.4368" y2="667.9093"/>
    <line x1="366.8876" x2="454.6679" y1="667.6334" y2="748.3367"/>
    <line x1="457.7125" x2="369.9322" y1="745.0251" y2="664.3218"/>
    <line x1="369.6785" x2="479.4039" y1="664.5977" y2="765.4769"/>
    <line x1="476.8667" x2="367.1413" y1="768.2366" y2="667.3574"/>
    <line x1="367.395" x2="499.0655" y1="667.0814" y2="788.1364"/>
    <line x1="501.0952" x2="369.4248" y1="785.9287" y2="664.8737"/>
    <line x1="369.1711" x2="522.7866" y1="665.1497" y2="806.3805"/>
    <line x1="521.2643" x2="367.6488" y1="808.0363" y2="666.8055"/>
    <line x1="367.9025" x2="543.4631" y1="666.5295" y2="827.9362"/>
    <line x1="544.4779" x2="368.9173" y1="826.8323" y2="665.4256"/>
    <line x1="368.6636" x2="566.1693" y1="665.7016" y2="847.2841"/>
    <line x1="565.6619" x2="368.1562" y1="847.8361" y2="666.2535"/>
    <line x1="368.4099" x2="587.8607" y1="665.9776" y2="867.7359"/>
    <polygon points="591.4539,813.2757 590.6995,808.8203 589.0926,804.5969 586.6945,800.7669 583.597,797.4768 579.9185,794.8523 575.7996,792.9938 571.3978,791.9723 566.8813,791.8269 562.4229,792.5631 558.193,794.1528 554.3533,796.5352 551.0505,799.6193 548.411,803.2871 546.5357,807.3983 545.4963,811.796 545.3325,816.3118 546.0505,820.7731 547.6229,825.0095 549.9896,828.8589 553.0602,832.1742 556.7172,834.8286 560.8208,836.7207 565.2141,837.7781 569.7292,837.9604 574.1935,837.2605 578.4362,835.7054 582.5948,833.1252 585.8722,830.0143 588.4817,826.3251 590.3234,822.1986 591.3269,817.7927"/>
    <polygon points="565.7973,809.1945 584.2332,795.3177 543.5218,741.2308 525.0858,755.1076"/>
    <polygon points="490.653,800.504 490.9176,793.3489 489.8319,786.652 487.4861,780.2861 483.9666,774.486 479.1224,769.2136 473.3146,765.0261 467.1393,762.2165 460.5409,760.6391 453.3858,760.3745 446.6889,761.4602 440.323,763.806 434.2217,767.553 429.2505,772.1697 425.2534,777.6516 422.2534,784.1528 420.676,790.7512 420.4114,797.9063 421.4971,804.6032 423.843,810.9691 427.59,817.0704 432.2066,822.0417 438.0145,826.2291 444.1897,829.0387 451.1623,830.6662 457.9432,830.8807 465.0047,829.6972 471.3452,827.2834 477.1073,823.7022 482.0786,819.0855 486.266,813.2777 489.0756,807.1024"/>
    <polygon points="487.6257,814.1374 490.5959,807.6246 492.2541,800.6611 492.5378,793.5085 492.1294,789.7589 491.3407,786.0705 488.8271,779.3681 485.0679,773.2765 482.635,770.3943 479.9209,767.7752 474.0927,763.6193 467.5722,760.6657 460.6045,759.0254 453.4512,758.7599 449.7027,759.1778 446.0163,759.9759 439.3204,762.5066 433.2384,766.2814 427.9988,771.1585 425.6475,774.1077 423.6092,777.2813 420.6723,783.8093 419.0498,790.7812 418.7464,794.5407 418.8281,798.3116 420.0376,805.3668 422.5854,812.0563 426.3757,818.1286 431.2662,823.3558 437.0731,827.5414 443.5784,830.5282 450.5376,832.2042 457.6895,832.5062 464.7652,831.4229 468.3685,830.3081 471.8392,828.8316 477.9404,825.088 483.2049,820.2377 485.5712,817.3006"/>
    <polygon points="419.8751,797.9159 421.0428,804.9794 423.4233,811.3318 427.1852,817.4232 432.0821,822.6459 437.9189,826.7919 444.1049,829.576 451.0787,831.1957 458.2352,831.3978 464.9252,830.2738 471.6227,827.7439 477.6842,823.934 482.6207,819.281 486.782,813.4552 489.5824,807.2765 491.2204,800.307 491.4655,793.5277 490.4295,786.8235 487.988,780.0933 484.2582,773.9822 479.3888,768.7338 473.8999,764.7474 467.4026,761.7405 460.4374,760.0842 453.6588,759.8213 446.5863,760.9332 439.8756,763.4278 433.7941,767.2057 428.5843,772.1164 424.6413,777.6365 421.6858,784.1574 420.1337,790.7612"/>
    <polygon points="422.822,784.1485 421.1675,791.1153 420.9477,797.8968 422.0484,804.5919 424.4275,810.946 427.9947,816.7176 432.6143,821.687 438.1106,825.6653 444.2745,828.5012 450.8716,830.0868 458.0278,830.3381 464.7199,829.2193 471.0676,826.8229 476.8295,823.2401 481.7864,818.607 485.7498,813.1 488.5689,806.9284 490.1365,800.327 490.3931,793.5469 489.2316,786.4811 486.818,780.1399 483.2195,774.3878 478.573,769.4435 473.0552,765.4951 466.876,762.6927 460.2704,761.143 453.4896,760.9048 446.7915,761.9873 440.4309,764.3492 434.6497,767.9007 429.6677,772.5068 425.6745,777.9923"/>
    <polygon points="428.1673,771.7794 424.2198,777.2956 421.2399,783.8047 419.644,790.3974 419.317,797.5487 420.396,804.6257 422.8393,811.3547 426.5524,817.4752 431.3916,822.7507 437.1697,826.9769 443.6633,829.9905 450.6211,831.6748 457.7741,831.9647 464.8454,830.849 471.5615,828.3709 477.6628,824.6261 482.9131,819.7596 487.1093,813.9596 490.0892,807.4505 491.7374,800.4841 491.9902,793.3297 490.8379,786.2643 488.3249,779.5611 484.5486,773.4793 479.655,768.2543 473.8333,764.0882 467.3088,761.1422 460.3339,759.5301 453.1784,759.3143 446.119,760.5033 439.4289,763.0509 433.3668,766.8587"/>
    <polygon points="364.6038,787.3576 360.1098,786.7652 355.5793,786.6197 351.0566,786.9224 346.5859,787.6704 342.211,788.8564 337.9746,790.4688 333.9183,792.4918 330.0816,794.9057 326.5022,797.6867 323.2149,800.8077 320.2521,804.2382 317.846,807.6261 315.583,811.5536 313.719,815.6854 312.2724,819.9812 311.325,824.0271 310.7141,828.5186 310.5499,833.0485 310.834,837.5724 311.5636,842.0461 312.7315,846.4259 314.3264,850.6689 316.3327,854.7336 318.7307,858.5801 321.4969,862.171 324.6044,865.4711 328.0226,868.448 331.7182,871.0727 335.655,873.3195 339.7946,875.1664 344.0963,876.5954 348.1461,877.526 352.64,878.1184 357.1705,878.264 361.6932,877.9612 366.1639,877.2132 370.5388,876.0272 374.7752,874.4148 378.8316,872.3918 382.6682,869.978 386.2477,867.1969 389.5349,864.0759 392.4977,860.6454 394.9039,857.2576 397.1669,853.3301 399.0308,849.1982 400.4775,844.9024 401.4927,840.4847 402.0665,835.9884 402.1934,831.4573 401.872,826.9359 401.1056,822.4683 399.9015,818.0983 398.2717,813.8686 396.232,809.8207 393.8024,805.994 391.0066,802.426 387.8721,799.1517 384.7272,796.4356 381.0316,793.8109 377.0948,791.5641 372.9553,789.7172 368.6536,788.2883"/>
    <polygon points="303.0983,735.4154 296.3852,734.3818 289.2235,734.6893 282.6237,736.2947 276.1208,739.3109 270.6324,743.3125 266.0005,748.2804 262.2249,754.3738 259.8383,760.7329 258.6725,767.8059 258.9422,774.9691 260.6365,781.9344 263.687,788.4213 267.7175,793.8884 273.012,798.721 278.8232,802.2373 285.5607,804.6849 292.2739,805.7185 299.4356,805.411 306.0354,803.8056 312.5383,800.7894 318.0267,796.7879 322.6586,791.8199 326.4342,785.7265 328.8208,779.3674 329.9866,772.2944 329.7169,765.1312 328.0226,758.1659 324.972,751.6791 320.9415,746.2119 315.6471,741.3793 309.8359,737.863"/>
    <polygon points="296.1954,708.4984 234.8592,694.0024 213.13,785.944 274.4662,800.44"/>
    <polygon points="346.0548,676.6078 339.5727,936.0555 437.3291,938.4979 443.8112,679.0501"/>
    <line x1="393.0765" x2="642.9361" y1="707.7793" y2="886.3711"/>
    <line x1="478.2549" x2="230.6528" y1="976.0816" y2="614.647"/>
    <polygon points="194.6643,662.893 192.0898,662.3106 189.4515,662.2326 186.8472,662.6617 184.0361,663.7521 181.8235,665.1912 179.9278,667.0279 178.4194,669.1939 177.3543,671.609 176.7719,674.1834 176.6938,676.8217 177.123,679.4261 178.2133,682.2371 179.6525,684.4498 181.4892,686.3454 183.6552,687.8538 186.0702,688.919 188.6446,689.5014 191.283,689.5794 193.8873,689.1503 196.3611,688.2298 198.6125,686.8521 200.5581,685.0684 202.315,682.6181 203.3802,680.203 203.9626,677.6286 204.0407,674.9903 203.6115,672.3859 202.691,669.9121 201.082,667.3622 199.2453,665.4666 197.0793,663.9582"/>
    <polygon points="199.186,687.5805 201.3876,685.5298 203.1232,683.072 204.3193,680.3113 204.9254,677.3642 204.9509,674.7306 204.4021,671.7723 203.2598,668.9888 201.8108,666.7895 199.991,664.8856 197.5333,663.1501 194.7725,661.9539 192.1998,661.3902 189.1918,661.3223 186.5963,661.7693 184.1229,662.6744 181.5484,664.2315 179.3468,666.2822 177.6113,668.7399 176.4152,671.5007 175.8091,674.4478 175.7835,677.0814 176.3323,680.0397 177.4746,682.8231 178.9236,685.0225 181.0304,687.1705 183.2012,688.6619 185.962,689.858 188.5347,690.4218 191.5426,690.4897 194.1382,690.0427 196.9501,688.9724"/>
    <polygon points="280.1799,568.534 284.5126,569.8549 288.954,570.7442 293.4613,571.1933 297.9909,571.1978 302.499,570.7578 306.9422,569.8774 311.2775,568.5652 315.4632,566.8339 319.4587,564.7001 323.2254,562.1845 326.7272,559.3114 329.93,556.1084 332.803,552.6066 335.3184,548.8397 337.4521,544.8441 339.1832,540.6584 340.4952,536.323 341.3754,531.8798 341.8152,527.3716 341.8105,522.8421 341.3612,518.3348 340.4718,513.8935 339.1507,509.5608 337.4108,505.3788 335.2689,501.3876 332.7456,497.626 329.8653,494.1302 326.6558,490.9339 323.1481,488.0681 319.376,485.5604 315.3761,483.4349 311.1868,481.7123 306.8488,480.4092 302.4037,479.5382 297.8947,479.1075 293.3651,479.1216 288.8588,479.58 284.4193,480.4786 280.0894,481.8085 275.9109,483.557 271.9241,485.7071 268.1677,488.2381 264.6778,491.1256 261.4881,494.3416 258.6295,497.8552 256.1294,501.6323 254.0122,505.6366 252.2982,509.8294 251.004,514.1701 250.142,518.6169 249.7388,522.7497 249.725,527.2792 250.1558,531.7882 251.027,536.2332 252.3303,540.5712 254.0531,544.7604 256.1787,548.7603 258.6865,552.5322 261.5525,556.0398 264.7489,559.2492 268.2448,562.1293 272.0066,564.6525 275.9978,566.7943"/>
    <polygon points="318.3872,542.2162 322.0693,543.0578 326.1919,543.5721 329.968,543.661 334.1101,543.3413 341.4647,541.6543 348.3636,538.5979 351.8713,536.3718 354.8411,534.0379 360.0451,528.5741 362.2317,525.4942 364.2845,521.8823 367.0016,514.8429 367.8431,511.1607 368.3574,507.0382 368.4353,502.8844 368.1267,499.1199 366.4396,491.7653 363.3832,484.8665 361.1571,481.3588 358.8232,478.389 353.3594,473.1849 349.9603,470.7961 346.6676,468.9455 339.6282,466.2285 335.946,465.387 331.8235,464.8726 328.0474,464.7837 323.9052,465.1034 316.5506,466.7904 309.6518,469.8468 306.1441,472.073 303.1743,474.4068 297.9702,479.8707 295.7836,482.9505 293.7308,486.5624 291.0138,493.6019 290.1723,497.284 289.6579,501.4066 289.8416,508.9499 290.4732,512.6739 291.5757,516.6794 294.6321,523.5783 296.8583,527.086 299.1922,530.0558 304.656,535.2598 307.7358,537.4464 311.3477,539.4992"/>
    <polygon points="325.8961,546.3825 330.0494,546.4844 334.1926,546.178 338.2858,545.4665 342.2894,544.3566 346.1646,542.8591 349.8742,540.9885 353.3823,538.7628 356.6549,536.2035 359.6606,533.3353 362.3702,530.1859 364.7575,526.7858 366.7996,523.1678 368.4768,519.3668 369.7727,515.4195 370.6749,511.3641 371.1747,507.2398 371.2672,503.0862 370.9517,498.9437 370.231,494.8521 369.1122,490.8511 367.606,486.9791 365.7271,483.2737 363.4936,479.7706 360.9269,476.5037 358.052,473.5045 354.8966,470.802 348.206,466.5582 344.4163,464.8557 340.4779,463.5333 336.4286,462.604 332.3077,462.0765 328.1548,461.9561 324.0103,462.2439 319.914,462.9372 315.9055,464.0291 312.0235,465.5093 308.3056,467.3633 304.7877,469.5734 301.5036,472.118 298.4852,474.9727 295.7616,478.11 293.359,481.4994 291.3008,485.1082 289.6067,488.9017 288.2931,492.8431 287.3728,496.8945 286.8546,501.0166 286.7435,505.1696 287.0405,509.3136 287.7429,513.4083 288.8438,517.4143 290.3327,521.293 292.195,525.0067 294.4129,528.5197 296.9649,531.7981 299.8263,534.8101 302.9696,537.5267 306.3644,539.9217 309.9778,541.9719 313.7751,543.6575 317.7194,544.9622 321.7728,545.8735"/>
    <polygon points="340.2284,538.2383 346.4432,535.5112 352.32,531.4166 357.2647,526.2345 361.0794,520.1722 363.5122,513.8364 364.7352,506.779 364.5761,499.994 363.0236,493.0016 360.111,486.458 355.9546,480.6246 350.7207,475.7349 344.9575,472.1507 338.2574,469.6184 331.5643,468.4949 324.7793,468.654 317.787,470.2064 311.5722,472.9335 305.6953,477.0282 300.9843,481.9136 297.1059,487.9353 294.5032,494.6083 293.2802,501.6658 293.4393,508.4507 294.9917,515.4431 297.7188,521.6579 301.8135,527.5347 306.9956,532.4793 313.0578,536.2941 319.3936,538.7269 326.4511,539.9499 333.236,539.7908"/>
    <polygon points="356.5766,525.8044 360.22,520.0849 362.7934,513.4068 363.9302,506.7214 363.7569,499.9422 362.1606,492.9657 359.3687,486.7857 355.4378,481.2598 350.5154,476.5954 344.7861,472.9674 338.4649,470.512 331.4126,469.2932 324.6339,469.4848 318.0193,470.9795 311.4892,473.9084 305.974,477.8542 301.3229,482.7892 297.543,488.8664 295.1729,495.2202 294.0722,501.9116 294.282,508.6897 295.9159,515.6576 298.7411,521.8224 302.7017,527.327 307.6492,531.9648 313.3979,535.5619 319.7323,537.9832 326.4146,539.1381 333.5686,538.9359 340.175,537.4055 346.3625,534.6303 351.8989,530.7143"/>
    <polygon points="358.1915,527.0144 362.0347,520.9672 364.6413,514.2931 365.4815,510.6124 365.9426,506.8654 365.7602,499.7026 365.1089,495.9839 364.0824,492.3508 361.1395,485.818 356.9935,479.9743 354.379,477.2508 351.5008,474.8076 345.4148,471.0263 338.7144,468.4879 331.6507,467.2875 324.4879,467.4699 320.7692,468.1211 317.1361,469.1476 310.6033,472.0906 304.7596,476.2366 302.0361,478.851 299.5929,481.7292 295.8116,487.8153 293.2732,494.5156 292.0728,501.5794 292.2552,508.7421 292.9064,512.4609 293.9329,516.094 296.8759,522.6267 301.0219,528.4704 306.2157,533.4062 312.2628,537.2494 318.9369,539.856 322.6176,540.6962 326.3647,541.1573 330.1392,541.2344 333.902,540.9268 340.8793,539.2971 347.412,536.3542 353.2557,532.2082"/>
    <polygon points="368.7599,507.067 368.8401,502.915 368.5376,499.1517 367.7954,495.0658 366.7549,491.4365 363.67,484.5537 361.6532,481.362 359.0972,478.0891 356.4893,475.3591 353.3367,472.6561 350.2405,470.4956 346.6157,468.4692 343.1534,466.9635 339.1996,465.6938 331.7581,464.4635 327.606,464.3932 323.8433,464.7045 320.127,465.3706 316.1324,466.5056 312.6212,467.8932 308.9298,469.7955 302.8032,474.1948 299.8209,477.0846 297.3839,479.9682 293.3806,486.3607 290.6534,493.3929 289.7347,497.4427 289.2694,501.1894 289.4096,508.7307 290.0139,512.4575 291.0825,516.4704 292.5629,520.3502 294.2526,523.7265 296.4708,527.2372 298.7946,530.2128 301.3896,532.9551 304.5294,535.673 307.9349,538.0494 311.2305,539.8917 318.2691,542.6022 322.3211,543.5113 326.0689,543.9677 330.2207,544.0577 333.9847,543.7642 337.7041,543.1158 341.7041,541.9998 345.2219,540.6288 348.9222,538.744 355.0696,534.3737 357.8058,531.7723 360.5162,528.6261 362.6841,525.535 364.719,521.915 367.4129,514.87 368.2481,511.188"/>
    <polygon points="364.4801,487.9016 362.7393,484.5543 358.3321,478.4399 352.8323,473.2862 346.4448,469.2852 339.4076,466.586 335.7266,465.7579 331.6064,465.2621 324.0727,465.4886 316.7228,467.1584 313.203,468.5171 309.5028,470.3961 303.3673,474.7737 298.1871,480.2485 294.1552,486.6166 291.422,493.6407 290.5112,497.6894 290.0604,501.4354 290.2505,508.9701 290.8897,512.6885 292.0035,516.6862 295.0875,523.5635 299.4354,529.7201 302.0343,532.4552 305.1831,535.1585 311.5706,539.1595 318.6078,541.8588 322.6609,542.7499 326.409,543.1826 333.9427,542.9561 341.2925,541.2863 348.1846,538.2356 351.3779,536.226 354.6481,533.6711 359.8283,528.1962 363.8601,521.8281 366.5934,514.8041 367.5041,510.7553 367.9549,507.0094 367.7648,499.4746 367.042,495.3881 366.0119,491.7585"/>
    <polygon points="360.5837,486.4738 356.476,480.6099 351.2952,475.6685 345.2437,471.8426 338.5579,469.2817 331.8753,468.1137 324.7172,468.255 318.086,469.6858 311.5064,472.5086 305.6106,476.5703 300.6288,481.7124 296.7558,487.7338 294.1427,494.3994 292.8917,501.4488 293.0516,508.6065 294.6163,515.5929 297.5245,522.1352 301.6627,527.9776 306.8692,532.892 312.9406,536.6863 319.6397,539.2123 326.3282,540.3455 333.4855,540.1669 340.1091,538.7016 346.6739,535.8446 352.5485,531.7522 357.5034,526.5842 361.3451,520.5427 363.9234,513.8635 365.1376,506.8078 364.9861,500.0256 363.4579,493.0311"/>
    <polygon points="360.1618,476.8544 354.3922,471.432 350.986,469.058 347.3594,467.0364 339.9572,464.2262 335.9027,463.3318 331.7791,462.8472 323.8647,463.0747 319.7757,463.7952 315.7793,464.9211 308.5507,468.1517 305.0462,470.3782 301.7819,472.944 298.7905,475.8233 296.1021,478.9874 291.9057,485.7015 290.2396,489.5045 288.9621,493.4551 287.6456,501.2626 287.5569,505.4136 287.8838,509.5527 288.623,513.6383 289.767,517.6295 293.0305,524.8434 295.273,528.3377 297.8536,531.5903 303.6231,537.0127 307.0294,539.3868 310.6559,541.4083 314.4665,543.0571 318.4228,544.3165 326.2362,545.5975 334.1507,545.37 338.2396,544.6495 342.236,543.5237 346.0998,542.0038 349.7923,540.1053 356.2335,535.5008 361.6821,529.756 364.0717,526.3606 366.1097,522.7432 367.7758,518.9402 369.0532,514.9897 370.3698,507.1822 370.4584,503.0311 370.1315,498.8921 369.3924,494.8064 368.2483,490.8152 364.9848,483.6013 362.7424,480.107"/>
    <polygon points="338.3215,470.0537 331.6297,468.9042 324.8414,469.0529 317.8472,470.6115 311.638,473.3591 306.0674,477.2411 301.3399,482.1148 297.4561,488.1369 294.9662,494.4537 293.6966,501.5062 293.8273,508.2948 295.3672,515.2932 298.0982,521.5096 302.2108,527.3778 307.1222,532.0661 313.1751,535.9017 319.5117,538.3409 326.5741,539.554 333.3614,539.3691 340.3473,537.7732 346.5417,534.9926 352.3768,530.8331 357.0256,525.8844 360.6446,520.1394 363.2011,513.4451 364.3327,506.7502 364.1659,499.9623 362.5887,492.9723 359.8245,486.7705 355.9277,481.2102 351.0413,476.4958 345.009,472.628"/>
    <polygon points="339.7208,464.9982 335.6616,464.1097 331.9099,463.6652 328.1331,463.5709 323.9887,463.8725 320.2654,464.5125 316.2581,465.6121 312.384,467.115 309.0117,468.8181 305.5026,471.0438 302.5247,473.3686 299.514,476.2326 296.8113,479.389 294.4448,482.8048 292.6062,486.1051 290.9472,489.9149 289.7835,493.5092 288.9585,497.1959 288.4505,501.3202 288.3562,505.0969 288.6578,509.2414 289.2978,512.9647 290.3974,516.972 291.9003,520.8461 293.6034,524.2183 295.6121,527.418 298.1539,530.7053 301.0179,533.7161 304.1743,536.4188 307.2698,538.5847 310.8904,540.6239 314.7003,542.2829 318.2945,543.4465 321.9813,544.2715 326.1055,544.7795 329.8822,544.8738 334.0267,544.5723 337.75,543.9323 341.7573,542.8326 345.2858,541.4826 349.0037,539.6267 352.2033,537.618 355.4906,535.0762 358.24,532.485 360.9719,529.3539 363.37,525.9603 365.4092,522.3397 366.9336,518.8829 368.2318,514.9355 369.0568,511.2488 369.5648,507.1246 369.6492,502.97 369.3576,499.2034 368.6346,495.1113 367.6179,491.4728 366.115,487.5987 364.2246,483.8982 361.9664,480.41 359.614,477.4538 356.9974,474.7287 353.841,472.026 350.4253,469.6595 347.125,467.8209 343.3151,466.1619"/>
    <polygon points="335.8147,464.5447 331.6928,464.0547 327.5423,463.9917 323.7814,464.3057 319.6988,465.0561 316.0722,466.0999 312.2153,467.6345 308.8629,469.3678 305.6876,471.4073 302.4325,473.9831 299.4599,476.8804 297.0294,479.7674 294.6812,483.1904 292.8625,486.4972 290.1914,493.5476 289.2985,497.6015 288.853,501.349 288.7604,505.1217 289.0669,509.2614 290.707,516.6204 292.1873,520.4984 293.8732,523.8748 296.0836,527.3883 298.3976,530.3696 301.2528,533.3826 304.1053,535.8535 307.1768,538.0464 310.7758,540.1146 314.2169,541.6641 318.1511,542.9882 321.8289,543.8345 325.946,544.3631 330.0958,544.465 333.8594,544.1863 337.5803,543.5564 341.5851,542.4645 345.1109,541.1187 348.8247,539.2644 352.019,537.2547 355.2981,534.7095 358.2977,531.8402 360.7552,528.9761 362.9337,525.8945 364.985,522.2857 366.5184,518.8374 367.824,514.8971 368.7168,510.8433 369.1623,507.0958 369.2448,502.9456 368.9484,499.1834 368.301,495.4654 367.1904,491.4657 365.6738,487.6017 363.9564,484.2413 361.9317,481.0564 359.3712,477.7893 356.7626,475.0621 353.6123,472.3591 350.2004,469.9949 346.9022,468.1607 343.0936,466.5098 339.5003,465.3565"/>
    <polygon points="324.1966,466.2864 316.8433,467.9689 309.9634,471.0621 303.8245,475.4457 298.897,480.6505 294.8556,487.0199 292.1433,494.0587 290.8654,501.493 291.0717,509.0335 292.7542,516.3867 295.8475,523.2667 300.2311,529.4055 305.4358,534.3331 311.8052,538.3744 318.844,541.0868 326.2783,542.3647 333.4438,542.204 340.8133,540.5942 347.7235,537.5691 353.9053,533.2464 359.1184,527.7942 363.1597,521.4248 365.8721,514.386 367.15,506.9518 366.9437,499.4113 365.2611,492.058 362.1679,485.1781 357.7843,479.0392 352.5795,474.1117 346.2101,470.0703 339.1714,467.3579 331.7371,466.08"/>
    <polygon points="296.2116,478.1911 293.7957,481.5657 291.7257,485.1629 290.022,488.9474 288.7013,492.8819 287.7766,496.9279 287.257,501.0456 287.1476,505.1944 287.4495,509.3337 288.1596,513.4228 289.2711,517.4215 292.4648,524.6632 294.6679,528.1805 297.2084,531.4624 302.9025,536.9597 306.2717,539.3832 309.8642,541.4613 313.6449,543.1735 317.5765,544.5031 321.6203,545.4369 325.7368,545.9658 329.8854,546.0845 334.0253,545.792 341.7582,544.1051 345.6439,542.6469 349.3661,540.8112 352.8884,538.616 356.176,536.0829 359.1966,533.2368 361.9207,530.1056 364.3214,526.7201 366.3752,523.1136 368.0618,519.3215 369.3648,515.381 370.2712,511.3309 370.7722,507.211 370.8629,503.0617 370.5424,498.9238 368.8033,491.2025 367.3189,487.3267 365.458,483.617 363.2391,480.1097 360.6838,476.8393 357.8173,473.8379 354.6678,471.1351 347.9831,466.8975 344.1948,465.2023 340.2572,463.8905 336.2092,462.975 332.0904,462.4647 324.1774,462.6306 320.0836,463.3131 316.0775,464.3975 312.1984,465.8732 308.4845,467.7257 304.9722,469.9367 301.6961,472.4846"/>
    <polygon points="293.7345,494.3606 292.4892,501.4198 292.6427,508.5863 294.1892,515.5857 295.5446,519.1112 297.2559,522.4783 301.4198,528.3131 306.6404,533.2251 312.7178,537.0262 319.4191,539.5708 326.4877,540.7614 333.6528,540.5525 340.64,538.9519 347.1817,536.0211 353.0272,531.8723 357.9526,526.6643 361.7694,520.5968 364.3313,513.9021 365.5401,506.8366 365.3496,499.6709 363.7671,492.6796 360.8532,486.1304 356.7194,480.2743 351.5242,475.3354 345.4666,471.503 338.7785,468.9239 331.7161,467.6968 324.55,467.8688 317.5546,469.4333 310.998,472.3303 305.1311,476.4489 300.1789,481.6314 296.3309,487.6791"/>
    <polygon points="291.4347,508.6788 293.0627,516.0354 295.9312,522.5946 300.2274,528.7843 305.6649,534.0 312.0281,538.0348 318.701,540.6279 326.1189,541.9483 333.6514,541.7727 340.9998,540.108 347.5446,537.2068 353.7128,532.8798 358.9013,527.4163 362.9044,521.0331 365.4641,514.3474 366.7475,506.923 366.5343,499.3914 364.8331,492.0514 361.7111,485.1941 357.5415,479.3747 352.3504,474.4448 345.9873,470.4099 339.3144,467.8169 331.8964,466.4965 324.3639,466.6721 317.0155,468.3367 310.1427,471.4245 304.3026,475.565 299.114,481.0284 295.111,487.4116 292.5512,494.0973 291.2678,501.5218"/>
    <polygon points="290.6381,508.8143 292.2603,516.178 295.2815,523.0864 299.5868,529.2767 305.0122,534.513 311.3512,538.5961 314.7889,540.1547 318.7259,541.4728 326.1553,542.7603 333.6934,542.5806 341.053,540.9405 347.9541,537.9024 354.1338,533.582 359.3569,528.1438 363.4245,521.7949 364.9747,518.3533 366.2831,514.4131 367.5525,506.9806 367.3543,499.443 366.7051,495.7246 365.5759,491.7294 362.4537,484.866 358.0582,478.7395 352.5566,473.5833 346.1585,469.5935 339.1074,466.9222 331.6717,465.671 324.1346,465.8875 316.7831,467.5636 309.8969,470.6353 303.7384,474.9859 298.542,480.4495 294.5054,486.8182 291.7825,493.8496 290.4768,501.2759"/>
    <polygon points="293.4382,515.8855 296.3105,522.4463 298.3115,525.6457 300.6244,528.6275 303.2258,531.3612 306.0892,533.819 312.1455,537.6422 318.8189,540.2419 322.4973,541.0847 326.2418,541.5529 330.0143,541.6417 333.7767,541.3502 340.7605,539.7623 347.314,536.8735 350.5084,534.8645 353.4843,532.544 358.4302,527.364 360.6106,524.2841 362.4699,521.0003 363.9891,517.5459 365.1528,513.9562 366.3451,506.8942 366.1705,499.7343 365.5298,496.0154 364.5179,492.38 361.6126,485.8338 359.5955,482.6445 357.2675,479.6745 354.6524,476.9539 351.7766,474.5105 345.7012,470.718 342.243,469.2075 338.6504,468.0528 331.5853,466.8784 327.8123,466.8086 324.0515,467.1191 317.0758,468.7421 310.5369,471.664 307.3527,473.6891 304.3886,476.0245 301.6746,478.6465 299.2385,481.5285 295.4613,487.6134 292.9121,494.3064 292.0971,497.991 291.6573,501.7389 291.868,508.8978"/>
    <polygon points="289.905,516.7626 291.3718,520.6487 293.2238,524.3666 295.2256,527.5687 297.7569,530.862 300.6079,533.8827 303.7495,536.5999 306.8306,538.7833 310.4355,540.8469 314.2303,542.5357 318.1763,543.8325 322.2332,544.7241 325.9825,545.1751 329.7574,545.2799 333.9012,544.9941 337.995,544.2912 341.9968,543.1783 345.5205,541.8203 349.2342,539.9599 352.4317,537.9507 355.7191,535.4118 358.7332,532.5538 361.4432,529.406 363.6195,526.3199 365.6748,522.7103 367.2181,519.2637 368.5421,515.3267 369.4617,511.2761 369.9673,507.1534 370.0633,503.3782 369.768,499.2351 369.0557,495.143 367.9336,491.1437 366.4133,487.2783 364.6986,483.9137 362.682,480.7209 360.1356,477.4393 357.2707,474.4317 354.4145,471.9614 351.0255,469.5598 347.7482,467.6837 343.9611,465.9774 340.3846,464.7655 336.3404,463.818 332.2212,463.284 328.4468,463.1619 324.3017,463.4286 320.2048,464.1126 316.1979,465.2071 312.668,466.5488 308.9458,468.3922 305.4288,470.6022 302.1531,473.1561 299.1521,476.0279 296.4566,479.1882 294.2945,482.2843 292.2559,485.9033 290.5933,489.7097 289.4226,493.3 288.5866,496.9826 288.062,501.103 287.9486,504.8776 288.2248,509.0221 288.8382,512.7483"/>
    <polygon points="309.2737,509.5517 308.336,504.3515 306.9003,499.2662 304.9799,494.3435 302.5929,489.6293 299.7615,485.1678 296.2651,480.7155 292.6021,476.9071 288.5883,473.4704 284.2612,470.4377 279.6613,467.8372 274.8317,465.6933 269.4536,463.9257 264.2938,462.7864 259.0481,462.1509 253.7656,462.0253 248.1209,462.4576 242.9191,463.3864 237.8314,464.8133 232.9053,466.7252 228.187,469.1041 223.7207,471.9277 219.548,475.1696 215.7081,478.7996 212.2369,482.7836 209.1669,487.0843 206.3553,491.9979 204.2031,496.8238 202.5272,501.8351 201.3433,506.9848 200.6334,512.6013 200.5086,518.2611 200.9213,523.529 201.841,528.7324 203.2592,533.8226 205.1625,538.7519 207.5332,543.4743 210.5666,548.2542 213.8302,552.41 217.48,556.231 221.4819,559.6815 226.1178,562.9307 230.7266,565.5153 235.5636,567.6425 240.5835,569.2924 246.1115,570.513 251.3593,571.1303 256.6423,571.2377 262.2854,570.7858 267.484,569.8391 272.5668,568.3946 277.4862,566.4657 282.1962,564.0705 286.6528,561.2315 291.0991,557.7273 294.9012,554.0578 298.3309,550.038 301.3562,545.7057 303.9487,541.1014 306.2187,535.9153 307.8426,530.8869 308.973,525.7252 309.5993,520.4784 309.7046,514.8182"/>
    <polygon points="217.4576,496.9651 215.2132,492.1881 211.874,487.6259 207.6977,483.8148 202.8497,480.9058 197.5219,479.014 191.925,478.2142 186.2805,478.5381 181.1665,479.8435 176.0574,482.2646 171.8088,485.3961 167.9839,489.5596 165.0588,494.3979 163.1493,499.7195 162.3309,505.3137 162.636,510.9592 164.0526,516.4326 166.5245,521.5174 169.954,526.0122 174.2053,529.7393 178.7667,532.3945 184.107,534.251 189.7091,535.0136 194.9784,534.7112 200.4565,533.3129 205.5495,530.8578 210.0557,527.4433 213.7968,523.2043 216.4672,518.6518 218.3414,513.3177 219.1226,507.7181 218.78,502.0748"/>
    <polygon points="210.1357,489.05 206.2231,485.516 202.0231,482.9982 197.0623,481.2127 191.8444,480.4575 186.9538,480.7062 181.8394,481.9868 177.4088,484.0722 173.1625,487.1973 169.8541,490.8075 167.1107,495.3099 165.3252,500.2706 164.57,505.4886 164.8757,510.752 166.0994,515.4935 168.3789,520.2476 171.5649,524.4484 175.2224,527.7044 179.7638,530.3826 184.7498,532.0964 189.6011,532.763 194.8646,532.4572 199.6061,531.2336 204.3601,528.954 208.283,526.0231 211.8169,522.1105 214.4951,517.5691 216.1203,512.9498 216.8755,507.7318 216.5698,502.4684 215.3461,497.7269 213.2608,493.2963"/>
    <polygon points="208.1201,525.5642 211.3996,521.92 214.0889,517.378 215.7072,512.7502 216.4183,507.8995 216.1963,503.002 214.9238,497.8792 212.6327,493.124 209.6767,489.2128 205.7273,485.7108 201.4906,483.2441 196.8628,481.6258 192.0121,480.9147 187.1145,481.1366 181.9918,482.4091 177.2366,484.7003 173.3254,487.6562 169.8234,491.6056 167.3566,495.8424 165.7383,500.4702 165.0272,505.3209 165.2492,510.2184 166.5217,515.3412 168.8128,520.0964 171.7688,524.0076 175.7182,527.5096 179.9549,529.9764 184.5827,531.5947 189.8108,532.3219 194.7045,532.0281 199.4537,530.8113 204.2089,528.5201"/>
    <polygon points="209.5028,526.7313 212.9982,522.7765 215.6745,518.2272 217.4333,513.2507 218.2097,508.03 217.9199,502.3836 216.613,497.2698 214.1582,492.1767 210.9722,487.9686 207.0415,484.4461 202.5107,481.7387 197.5463,479.9459 192.3311,479.1337 186.6828,479.3847 181.5602,480.6565 176.4503,483.0763 172.2205,486.2334 168.6711,490.1398 165.771,494.9932 164.0123,499.9697 163.2358,505.1904 163.5256,510.8368 164.8325,515.9506 167.2873,521.0437 170.4733,525.2518 174.404,528.7743 178.9348,531.4817 183.8992,533.2745 189.4915,534.1062 194.7627,533.8357 200.2405,532.4358 205.3167,529.9461"/>
    <polygon points="212.4729,537.335 190.4457,398.9946 106.756,412.3201 128.7832,550.6605"/>
    <polygon points="179.4447,530.7294 184.4241,532.4802 189.2739,533.1965 194.5469,532.9599 199.6696,531.6878 204.4406,529.4301 208.6726,526.2757 212.1992,522.3484 214.8818,517.8027 216.6149,512.817 217.3305,507.5875 217.0587,502.6927 215.7684,497.5745 213.4939,492.8115 210.3245,488.5907 206.3847,485.0781 201.8295,482.4117 196.8377,480.6962 191.983,480.0143 186.7119,480.2883 181.5983,481.5967 177.167,483.6936 172.9128,486.8179 169.3585,490.7201 166.6437,495.2467 164.8753,500.2199 164.1226,505.4442 164.4153,510.7144 165.7418,515.8233 167.8543,520.2471 170.9937,524.4902 174.9085,528.0307"/>
    <polygon points="179.086,532.0473 184.4328,533.8664 189.659,534.5625 194.923,534.2656 200.3926,532.8582 205.1462,530.5774 209.6666,527.1916 213.4147,522.9668 216.0808,518.4182 217.9359,513.0838 218.6672,507.8624 218.3492,502.2236 217.0353,497.1175 214.7866,492.3487 211.4314,487.8056 207.232,484.0291 202.7014,481.3323 197.7454,479.5336 192.1633,478.6748 186.8957,478.9007 181.4076,480.2343 176.6238,482.4507 172.0582,485.7753 168.2534,489.9491 165.3647,494.8022 163.5096,500.1366 162.7783,505.358 163.0963,510.9968 164.4102,516.1029 166.8534,521.1949 170.2695,525.6923 174.5195,529.4119"/>
    <polygon points="163.6665,505.6118 163.986,510.8744 165.3194,515.9754 167.6161,520.7212 170.7891,524.9319 174.718,528.4479 179.2538,531.1357 184.2245,532.8935 189.4417,533.6545 194.7074,533.39 199.822,532.11 204.5916,529.863 208.8352,526.7342 212.392,522.8423 215.1271,518.3348 216.9367,513.3827 217.7522,508.1738 217.4885,502.5323 216.1907,497.4222 213.9271,492.6605 210.7835,488.4278 206.8793,484.8845 202.3623,482.1652 197.4039,480.3729 191.8154,479.5576 186.5517,479.8588 181.4461,481.1744 176.6923,483.4546 172.4705,486.6129 168.941,490.5295 166.2374,495.0559 164.373,500.3869"/>
    <polygon points="176.0463,468.1872 220.3373,444.6141 191.3019,390.0602 147.011,413.6333"/>
    <line x1="140.388" x2="179.1754" y1="455.3781" y2="199.7363"/>
    <polygon points="119.5186,389.6756 364.8093,624.5166 454.7304,530.5942 209.4397,295.7532"/>
    <polygon points="303.2443,400.2218 302.9943,397.2155 302.0707,393.9512 300.5044,390.9419 298.3605,388.3126 295.7282,386.1725 293.0662,384.7534 289.8222,383.7606 286.8219,383.4468 283.4427,383.7471 280.1946,384.7261 277.2123,386.3434 274.8852,388.2629 272.9427,390.571 271.296,393.537 270.2848,396.7753 269.9541,399.7738 270.2352,403.1546 271.1958,406.4083 272.5886,409.0842 274.7024,411.7376 276.9994,413.6932 279.9561,415.3566 282.8199,416.3047 286.1851,416.7339 289.5675,416.472 292.8266,415.5299 295.8269,413.9465 298.1757,412.0535 300.1442,409.7677 301.8245,406.8205 302.8723,403.5938"/>
    <polygon points="374.5617,146.4381 418.4766,489.1804 430.8921,487.3599"/>
  </g>
</svg>
