<?xml version="1.0" encoding="utf-8" ?>
<svg xmlns="http://www.w3.org/2000/svg" xmlns:cc="http://creativecommons.org/ns" xmlns:dc="http://purl.org/dc/elements/1.1/" xmlns:ev="http://www.w3.org/2001/xml-events" xmlns:inkscape="http://www.inkscape.org/namespaces/inkscape" xmlns:rdf="http://www.w3.org/1999/02/22-rdf-syntax-ns" xmlns:sodipodi="http://sodipodi.sourceforge.net/DTD/sodipodi-0.dtd" xmlns:xlink="http://www.w3.org/1999/xlink" baseProfile="tiny" height="29.7cm" version="1.2" viewBox="0 0 793.7007874015749 1122.5196850393702" width="21.0cm">
  <metadata>
    <rdf:RDF>
      <cc:Work>
        <dc:format>image/svg+xml</dc:format>
        <dc:source>Vsketch with params {'__seed__': 1252859333, 'debug_show_shapes': False, 'debug_draw': False, 'occult': False, 'scale': 1.0, 'area_type': 'RECT', 'width': 12.0, 'height': 19.0, 'num_circ_min': 2, 'num_circ_max': 10, 'circ_rad_min': 0.5, 'circ_rad_max': 2.0, 'num_circ_shaded_min': 0, 'num_circ_shaded_max': 0, 'circ_shaded_rad_min': 0.05, 'circ_shaded_rad_max': 0.5, 'circ_shaded_fill_dist_min': 0.05, 'circ_shaded_fill_dist_max': 0.2, 'num_circ_fill_min': 0, 'num_circ_fill_max': 0, 'circ_fill_rad_min': 0.05, 'circ_fill_rad_max': 0.5, 'num_circ_dash_min': 0, 'num_circ_dash_max': 0, 'circ_dash_rad_min': 0.05, 'circ_dash_rad_max': 0.5, 'num_circ_dot_min': 0, 'num_circ_dot_max': 0, 'circ_dot_rad_min': 0.05, 'circ_dot_rad_max': 0.5, 'circ_dot_dens_min': 400.0, 'circ_dot_dens_max': 800.0, 'circ_dot_dot_rad_min': 0.02, 'circ_dot_dot_rad_max': 0.06, 'num_circ_half_fill_min': 0, 'num_circ_half_fill_max': 0, 'circ_half_fill_rad_min': 0.05, 'circ_half_fill_rad_max': 2.0, 'circ_half_fill_gain_min': 0.4, 'circ_half_fill_gain_max': 0.6, 'num_circ_outer_fill_min': 0, 'num_circ_outer_fill_max': 10, 'circ_outer_fill_rad_min': 0.05, 'circ_outer_fill_rad_max': 2.0, 'circ_outer_fill_gain_min': 0.0, 'circ_outer_fill_gain_max': 0.2, 'num_line_min': 5, 'num_line_max': 8, 'line_length_min': 5.0, 'line_length_max': 13.0, 'num_thick_line_min': 0, 'num_thick_line_max': 0, 'thick_line_length_min': 3.0, 'thick_line_length_max': 7.0, 'num_tri_line_min': 4, 'num_tri_line_max': 8, 'tri_line_length_min': 4.0, 'tri_line_length_max': 10.0, 'tri_line_width_gain_min': 0.02, 'tri_line_width_gain_max': 0.04, 'num_rect_min': 5, 'num_rect_max': 10, 'rect_width_min': 1.0, 'rect_width_max': 4.0, 'rect_height_gain_min': 0.3, 'rect_height_gain_max': 3.0, 'num_rect_shaded_min': 0, 'num_rect_shaded_max': 0, 'rect_shaded_width_min': 0.1, 'rect_shaded_width_max': 1.0, 'rect_shaded_height_gain_min': 0.5, 'rect_shaded_height_gain_max': 2.0, 'rect_shaded_fill_dist_min': 0.05, 'rect_shaded_fill_dist_max': 0.2, 'num_rect_fill_min': 0, 'num_rect_fill_max': 0, 'rect_fill_width_min': 0.1, 'rect_fill_width_max': 1.0, 'rect_fill_height_gain_min': 0.5, 'rect_fill_height_gain_max': 2.0, 'num_rect_dash_min': 0, 'num_rect_dash_max': 0, 'rect_dash_width_min': 0.1, 'rect_dash_width_max': 1.0, 'rect_dash_height_gain_min': 0.5, 'rect_dash_height_gain_max': 2.0, 'num_rect_dot_min': 0, 'num_rect_dot_max': 0, 'rect_dot_width_min': 0.1, 'rect_dot_width_max': 1.0, 'rect_dot_height_gain_min': 0.5, 'rect_dot_height_gain_max': 2.0, 'rect_dot_dens_min': 400.0, 'rect_dot_dens_max': 800.0, 'rect_dot_rad_min': 0.02, 'rect_dot_rad_max': 0.06, 'num_tri_min': 0, 'num_tri_max': 5, 'tri_width_min': 0.5, 'tri_width_max': 4.0, 'tri_height_gain_min': 0.5, 'tri_height_gain_max': 2.0, 'num_tri_shaded_min': 0, 'num_tri_shaded_max': 0, 'tri_shaded_width_min': 0.1, 'tri_shaded_width_max': 1.0, 'tri_shaded_height_gain_min': 0.5, 'tri_shaded_height_gain_max': 2.0, 'tri_shaded_fill_dist_min': 0.05, 'tri_shaded_fill_dist_max': 0.2, 'num_tri_fill_min': 0, 'num_tri_fill_max': 0, 'tri_fill_width_min': 0.4, 'tri_fill_width_max': 1.0, 'tri_fill_height_gain_min': 0.5, 'tri_fill_height_gain_max': 3.0, 'num_tri_dash_min': 0, 'num_tri_dash_max': 0, 'tri_dash_width_min': 0.1, 'tri_dash_width_max': 1.0, 'tri_dash_height_gain_min': 0.5, 'tri_dash_height_gain_max': 2.0, 'num_tri_dot_min': 0, 'num_tri_dot_max': 0, 'tri_dot_width_min': 0.1, 'tri_dot_width_max': 1.0, 'tri_dot_height_gain_min': 0.5, 'tri_dot_height_gain_max': 2.0, 'tri_dot_dens_min': 400.0, 'tri_dot_dens_max': 800.0, 'tri_dot_rad_min': 0.02, 'tri_dot_rad_max': 0.06}</dc:source>
        <dc:date>2023-11-21T20:30:41.483461</dc:date>
      </cc:Work>
    </rdf:RDF>
  </metadata>
  <defs/>
  <g fill="none" id="layer1" inkscape:groupmode="layer" inkscape:label="1" stroke="#0000ff" style="display:inline">
    <polygon points="572.1734,772.7048 566.2351,773.8253 560.4358,775.5242 554.8316,777.785 549.4768,780.5858 544.4232,783.8993 539.7198,787.6937 535.4123,791.932 531.5422,796.5732 528.1471,801.5724 525.2599,806.8811 522.9086,812.4479 521.1159,818.2189 519.8992,824.1382 519.2703,830.1485 519.2352,836.1914 519.7421,841.8343 520.8535,847.7743 522.5435,853.5762 524.7957,859.1839 527.5882,864.543 530.894,869.6017 534.6811,874.3109 538.9127,878.625 543.548,882.5022 548.5419,885.9049 553.8462,888.8003 559.4094,891.1602 565.1777,892.9618 571.0951,894.1876 577.1043,894.8258 583.1472,894.8701 589.1652,894.3202 595.1,893.1813 600.894,891.4646 606.4913,889.1866 611.8375,886.3694 616.5754,883.2627 621.2904,879.4829 625.611,875.2579 629.4954,870.6286 632.9058,865.6399 635.8093,860.3401 638.1778,854.7805 639.9882,849.015 641.2231,843.0995 641.8474,837.4684 641.9383,831.426 641.4346,825.404 640.3415,819.4606 638.6694,813.6535 636.4345,808.0389 633.6585,802.6712 630.3683,797.6024 626.5957,792.8816 622.3773,788.5545 617.754,784.6631 612.7706,781.2449 607.4752,778.3333 601.9193,775.9563 596.1566,774.137 590.243,772.893 584.2357,772.2363 578.193,772.1734"/>
    <line x1="605.8167" x2="447.8762" y1="735.9728" y2="625.7776"/>
    <line x1="460.411" x2="617.4682" y1="625.5992" y2="664.411"/>
    <line x1="617.3782" x2="486.4972" y1="664.775" y2="632.4319"/>
    <line x1="487.5769" x2="618.4579" y1="628.063" y2="660.4062"/>
    <line x1="618.5478" x2="513.843" y1="660.0421" y2="634.1676"/>
    <line x1="512.5835" x2="617.2883" y1="639.2646" y2="665.1391"/>
    <line x1="617.1983" x2="538.6697" y1="665.5032" y2="646.0973"/>
    <line x1="540.1092" x2="618.6378" y1="640.2721" y2="659.678"/>
    <line x1="618.7278" x2="566.3754" y1="659.3139" y2="646.3767"/>
    <line x1="564.7559" x2="617.1083" y1="652.93" y2="665.8672"/>
    <line x1="617.0184" x2="590.8422" y1="666.2313" y2="659.7627"/>
    <line x1="592.6416" x2="618.8178" y1="652.4812" y2="658.9499"/>
    <line x1="618.3679" x2="461.3107" y1="660.7702" y2="621.9585"/>
    <line x1="435.0445" x2="618.2779" y1="615.8539" y2="661.1343"/>
    <line x1="618.188" x2="408.7784" y1="661.4984" y2="609.7494"/>
    <line x1="408.2386" x2="617.6482" y1="611.9338" y2="663.6828"/>
    <line x1="617.5582" x2="434.3248" y1="664.0469" y2="618.7665"/>
    <line x1="382.1523" x2="617.7381" y1="605.1011" y2="663.3187"/>
    <line x1="617.8281" x2="356.0661" y1="662.9547" y2="598.2684"/>
    <line x1="356.246" x2="618.008" y1="597.5402" y2="662.2265"/>
    <line x1="618.098" x2="382.5122" y1="661.8624" y2="603.6448"/>
    <line x1="329.9799" x2="617.9181" y1="591.4357" y2="662.5906"/>
    <polygon points="616.9284,666.5954 618.9077,658.5858 329.9799,591.4357"/>
    <polygon points="642.8825,676.599 644.3579,717.428 720.7122,714.6687 719.2368,673.8397"/>
    <polygon points="663.4286,637.2229 751.0962,602.7487 661.2445,502.9625"/>
    <polygon points="631.1431,607.7449 704.349,288.2444 694.5643,286.1591"/>
    <line x1="631.1431" x2="699.4567" y1="607.7449" y2="287.2017"/>
    <line x1="699.833" x2="636.7743" y1="287.2819" y2="583.1679"/>
    <line x1="636.0217" x2="699.0803" y1="583.0075" y2="287.1215"/>
    <line x1="698.704" x2="640.9002" y1="287.0413" y2="558.2702"/>
    <line x1="642.4055" x2="700.2093" y1="558.591" y2="287.3621"/>
    <line x1="700.5857" x2="648.0368" y1="287.4423" y2="534.014"/>
    <line x1="645.7788" x2="698.3277" y1="533.5328" y2="286.9611"/>
    <line x1="697.9513" x2="650.6573" y1="286.8809" y2="508.7954"/>
    <line x1="653.668" x2="700.962" y1="509.4371" y2="287.5225"/>
    <line x1="701.3383" x2="659.2992" y1="287.6027" y2="484.8601"/>
    <line x1="655.5359" x2="697.575" y1="484.058" y2="286.8007"/>
    <line x1="697.1987" x2="660.4144" y1="286.7205" y2="459.3207"/>
    <line x1="664.9305" x2="701.7147" y1="460.2831" y2="287.6829"/>
    <line x1="702.091" x2="670.5617" y1="287.7631" y2="435.7062"/>
    <line x1="665.293" x2="696.8223" y1="434.5833" y2="286.6403"/>
    <line x1="696.446" x2="670.1715" y1="286.5601" y2="409.8459"/>
    <line x1="676.1929" x2="702.4674" y1="411.1292" y2="287.8433"/>
    <line x1="702.8437" x2="681.8241" y1="287.9235" y2="386.5522"/>
    <line x1="675.0501" x2="696.0696" y1="385.1086" y2="286.4799"/>
    <line x1="695.6933" x2="679.9286" y1="286.3997" y2="360.3712"/>
    <line x1="687.4554" x2="703.22" y1="361.9753" y2="288.0037"/>
    <line x1="703.5964" x2="693.0866" y1="288.084" y2="337.3983"/>
    <line x1="684.8072" x2="695.317" y1="335.6338" y2="286.3195"/>
    <line x1="694.9406" x2="689.6857" y1="286.2393" y2="310.8964"/>
    <line x1="698.7178" x2="703.9727" y1="312.8213" y2="288.1642"/>
    <line x1="605.0803" x2="583.5567" y1="366.7982" y2="363.6464"/>
    <line x1="581.8214" x2="603.345" y1="375.4967" y2="378.6485"/>
    <line x1="603.3992" x2="560.3521" y1="378.2781" y2="371.9745"/>
    <line x1="561.9789" x2="605.026" y1="360.8649" y2="367.1685"/>
    <line x1="604.9718" x2="540.4012" y1="367.5388" y2="358.0834"/>
    <line x1="538.8828" x2="603.4534" y1="368.4524" y2="377.9078"/>
    <line x1="603.5077" x2="517.4135" y1="377.5375" y2="364.9303"/>
    <line x1="518.8234" x2="604.9176" y1="355.3019" y2="367.9091"/>
    <line x1="604.8634" x2="497.2456" y1="368.2795" y2="352.5204"/>
    <line x1="495.9441" x2="603.5619" y1="361.4082" y2="377.1672"/>
    <line x1="603.6161" x2="474.4748" y1="376.7969" y2="357.886"/>
    <line x1="475.6678" x2="604.8091" y1="349.7389" y2="368.6498"/>
    <line x1="604.7549" x2="454.0901" y1="369.0201" y2="346.9575"/>
    <line x1="453.0055" x2="603.6703" y1="354.3639" y2="376.4265"/>
    <line x1="603.7246" x2="431.5362" y1="376.0562" y2="350.8418"/>
    <line x1="432.5123" x2="604.7007" y1="344.176" y2="369.3904"/>
    <line x1="604.6464" x2="410.9345" y1="369.7607" y2="341.3945"/>
    <line x1="410.0668" x2="603.7788" y1="347.3196" y2="375.6859"/>
    <line x1="603.833" x2="388.5975" y1="375.3156" y2="343.7975"/>
    <line x1="389.3567" x2="604.5922" y1="338.613" y2="370.1311"/>
    <line x1="604.538" x2="367.7789" y1="370.5014" y2="335.8315"/>
    <line x1="367.1282" x2="603.8873" y1="340.2754" y2="374.9453"/>
    <line x1="603.9415" x2="345.6589" y1="374.5749" y2="336.7533"/>
    <line x1="346.2012" x2="604.4838" y1="333.05" y2="370.8717"/>
    <line x1="604.4295" x2="324.6234" y1="371.242" y2="330.2686"/>
    <line x1="324.1896" x2="603.9957" y1="333.2311" y2="374.2046"/>
    <line x1="604.0499" x2="302.7202" y1="373.8343" y2="329.709"/>
    <line x1="303.0456" x2="604.3753" y1="327.4871" y2="371.6124"/>
    <line x1="604.3211" x2="281.4678" y1="371.9827" y2="324.7056"/>
    <line x1="281.2509" x2="604.1042" y1="326.1869" y2="373.464"/>
    <line x1="604.1584" x2="259.7816" y1="373.0936" y2="322.6648"/>
    <line x1="259.8901" x2="604.2669" y1="321.9241" y2="372.353"/>
    <line x1="604.2126" x2="238.3123" y1="372.7233" y2="319.1426"/>
    <polygon points="238.3123,319.1426 603.2907,379.0188 605.1345,366.4278"/>
    <polygon points="132.382,257.6616 329.997,439.8624 411.4024,351.5701 213.7874,169.3693"/>
    <polygon points="282.6808,195.4421 276.3272,196.2424 270.2616,198.296 264.7287,201.5201 260.208,205.5079 256.5185,210.2753 253.6562,216.0037 252.0591,221.8166 251.5926,228.2033 252.3283,234.1865 254.3279,240.2701 257.5028,245.8314 261.7248,250.6462 266.8238,254.5204 272.24,257.167 278.0575,258.7469 284.4456,259.1944 290.4266,258.4411 296.5042,256.4234 302.0562,253.2321 306.8585,248.9959 310.5197,244.2068 313.3481,238.4615 314.9715,232.2669 315.3394,226.2499 314.4828,219.9037 312.5328,214.1995 309.5441,208.9643 305.3506,204.1246 300.2747,200.2203 294.8742,197.5418 288.6943,195.8634"/>
    <polygon points="354.5801,403.4784 351.7736,400.4141 348.6867,397.6324 345.0326,394.9502 341.4537,392.8388 337.6891,391.0797 333.7733,389.6889 329.7425,388.6794 325.2574,388.0236 320.7284,387.8395 316.5804,388.087 312.4752,388.7304 308.4504,389.7637 304.5429,391.1775 300.7888,392.9589 297.2223,395.0914 293.5842,397.7951 290.5138,400.5949 287.4868,403.9689 285.0352,407.324 282.916,410.8983 281.0061,415.0091 279.641,418.9338 278.5877,423.3425 278.0313,427.4604 277.8716,431.6127 278.11,435.7612 278.7445,439.8678 279.8812,444.2557 281.3206,448.1538 283.1264,451.8963 285.4948,455.7611 288.0096,459.0691 290.8295,462.1212 293.9285,464.8894 297.5942,467.5556 301.1823,469.6514 304.9546,471.3941 308.8763,472.7678 313.2827,473.8307 317.3994,474.396 321.5513,474.5648 326.076,474.2948 330.1784,473.6335 334.1987,472.5826 338.4474,471.0033 342.178,469.1731 345.7162,466.9941 349.0297,464.4866 352.3523,461.4033 355.1002,458.2863 357.5371,454.9205 359.6407,451.337 361.3916,447.5685 362.8807,443.2873 363.8463,439.2457 364.4207,435.1303 364.5984,430.9787 364.3781,426.8292 363.7615,422.7199 362.6439,418.327 361.2215,414.4227 359.432,410.6724 357.0805,406.7973"/>
    <line x1="420.1974" x2="679.0698" y1="381.1213" y2="423.6733"/>
    <polygon points="544.3175,404.8139 543.5489,398.4527 541.5585,392.3622 538.4222,386.7749 534.2595,381.9037 529.2294,377.9346 523.5237,375.019 517.3602,373.2681 510.9738,372.7488 504.6083,373.4807 498.5065,375.4361 492.5915,378.7562 487.7444,382.9468 483.8044,387.9997 480.9216,393.722 479.2062,399.8956 478.7236,406.2849 479.4922,412.6461 481.4826,418.7365 484.6189,424.3239 488.7816,429.1951 493.8117,433.1641 499.5173,436.0797 505.6809,437.8306 512.0673,438.35 518.8014,437.5364 524.8803,435.511 530.4495,432.3425 535.2967,428.1519 539.2367,423.0991 542.1195,417.3767 543.8348,411.2032"/>
    <polygon points="572.6889,323.0576 674.9293,289.9287 596.1601,221.1644"/>
    <polygon points="503.1435,262.8539 528.5547,318.8923 609.1396,282.3503 583.7285,226.3119"/>
    <polygon points="498.2469,499.2888 716.0404,612.6238 719.2064,606.3201"/>
    <line x1="509.8763" x2="717.7067" y1="504.922" y2="609.3061"/>
    <line x1="717.8733" x2="533.1352" y1="608.9743" y2="516.1885"/>
    <line x1="532.6353" x2="717.3734" y1="517.1838" y2="609.9696"/>
    <line x1="717.5401" x2="509.7097" y1="609.6378" y2="505.2538"/>
    <line x1="555.561" x2="717.2068" y1="529.1138" y2="610.3014"/>
    <line x1="717.0402" x2="578.4866" y1="610.6331" y2="541.0438"/>
    <line x1="579.653" x2="718.2066" y1="538.7214" y2="608.3108"/>
    <line x1="718.04" x2="556.3941" y1="608.6425" y2="527.4549"/>
    <line x1="602.9119" x2="718.3732" y1="549.9878" y2="607.979"/>
    <line x1="718.5399" x2="626.1708" y1="607.6472" y2="561.2543"/>
    <line x1="624.3379" x2="716.7069" y1="564.9038" y2="611.2967"/>
    <line x1="716.8735" x2="601.4122" y1="610.9649" y2="552.9738"/>
    <line x1="647.2635" x2="716.5403" y1="576.8338" y2="611.6285"/>
    <line x1="716.3736" x2="670.1891" y1="611.9602" y2="588.7638"/>
    <line x1="672.6886" x2="718.8731" y1="583.7872" y2="606.9837"/>
    <line x1="719.0398" x2="695.9475" y1="606.6519" y2="595.0537"/>
    <line x1="693.1147" x2="716.207" y1="600.6938" y2="612.292"/>
    <line x1="718.7065" x2="649.4297" y1="607.3155" y2="572.5208"/>
    <line x1="483.5234" x2="50.7145" y1="641.17" y2="793.9752"/>
    <line x1="174.8491" x2="359.1028" y1="661.5137" y2="553.7042"/>
    <line x1="333.892" x2="297.0882" y1="476.8973" y2="696.9015"/>
    <polygon points="301.5456,701.1399 206.7923,746.8593 310.6415,763.7053"/>
    <polygon points="305.0125,781.9791 298.2682,784.4007 292.1284,788.0956 286.8306,792.9207 282.5796,798.6894 279.6676,804.8231 277.8847,811.7636 277.4948,818.9188 278.5128,826.012 280.8995,832.7686 284.5625,838.9275 289.3601,844.2503 295.1067,848.5312 301.5801,851.6045 308.5297,853.3513 315.6868,853.7041 322.7746,852.6493 329.1767,850.3879 335.3545,846.7568 340.7021,841.9869 345.0127,836.2626 348.1195,829.8053 349.9024,822.8648 350.2923,815.7095 349.2742,808.6164 346.8875,801.8597 343.2246,795.7008 338.427,790.378 332.6804,786.0972 326.207,783.0239 319.2574,781.2771 312.1002,780.9242"/>
    <line x1="311.0924" x2="209.0763" y1="884.2729" y2="684.1231"/>
    <line x1="42.6046" x2="461.2226" y1="569.4874" y2="533.3925"/>
    <polygon points="467.1823,535.5746 514.7895,275.652 419.4905,258.1972 371.8833,518.1197"/>
    <polygon points="516.2614,814.0168 594.095,938.9057 697.0237,874.7582 619.1902,749.8693"/>
    <line x1="517.7158" x2="424.8943" y1="827.2679" y2="835.2894"/>
    <line x1="424.9261" x2="540.953" y1="835.6575" y2="825.6307"/>
    <line x1="541.2075" x2="425.1807" y1="828.5758" y2="838.6027"/>
    <line x1="425.1488" x2="564.3811" y1="838.2345" y2="826.2023"/>
    <line x1="564.1902" x2="424.958" y1="823.9935" y2="836.0257"/>
    <line x1="424.9898" x2="587.4274" y1="836.3938" y2="822.3562"/>
    <line x1="587.5546" x2="425.117" y1="823.8288" y2="837.8664"/>
    <line x1="425.0852" x2="610.7282" y1="837.4982" y2="821.4553"/>
    <line x1="610.6646" x2="425.0216" y1="820.719" y2="836.762"/>
    <line x1="425.0534" x2="633.9018" y1="837.1301" y2="819.0818"/>
    <polygon points="670.5789,807.3676 656.4104,743.2607 505.4543,776.6241 519.6228,840.7309"/>
    <line x1="518.034" x2="425.2125" y1="830.9493" y2="838.9708"/>
    <line x1="425.2443" x2="494.8604" y1="839.339" y2="833.3228"/>
    <line x1="494.4786" x2="424.8625" y1="828.9051" y2="834.9212"/>
    <line x1="424.8307" x2="471.2414" y1="834.5531" y2="830.5424"/>
    <line x1="471.6868" x2="425.2761" y1="835.6964" y2="839.7071"/>
    <line x1="425.3079" x2="448.5133" y1="840.0752" y2="838.0699"/>
    <line x1="448.0043" x2="424.7989" y1="832.1796" y2="834.185"/>
    <polygon points="425.3397,840.4434 633.9018,819.0818 424.7671,833.8168"/>
    <polygon points="460.579,953.1504 518.7294,866.7823 460.4109,849.0308"/>
    <polygon points="521.8374,935.5164 552.8202,909.1399 541.1688,895.4538 510.186,921.8303"/>
    <polygon points="265.0192,899.425 268.9888,898.2408 272.6375,896.2795 275.5493,893.8897 278.1845,890.6936 279.9755,887.3796 281.2053,883.424 281.6112,879.3015 281.2505,875.5519 280.0663,871.5823 278.105,867.9336 275.4475,864.756 272.5191,862.3866 268.8568,860.4509 264.8791,859.2944 261.127,858.9599 257.0075,859.3946 253.4078,860.5048 249.7591,862.4661 246.5815,865.1236 244.2121,868.052 242.2764,871.7143 241.1198,875.692 240.7854,879.4441 241.146,883.1937 242.3303,887.1633 244.0831,890.4976 246.6814,893.7238 249.8775,896.359 253.5398,898.2947 257.5175,899.4512 261.2696,899.7857"/>
  </g>
</svg>
