<?xml version="1.0" encoding="utf-8" ?>
<svg xmlns="http://www.w3.org/2000/svg" xmlns:cc="http://creativecommons.org/ns" xmlns:dc="http://purl.org/dc/elements/1.1/" xmlns:ev="http://www.w3.org/2001/xml-events" xmlns:inkscape="http://www.inkscape.org/namespaces/inkscape" xmlns:rdf="http://www.w3.org/1999/02/22-rdf-syntax-ns" xmlns:sodipodi="http://sodipodi.sourceforge.net/DTD/sodipodi-0.dtd" xmlns:xlink="http://www.w3.org/1999/xlink" baseProfile="tiny" height="29.7cm" version="1.2" viewBox="0 0 793.7007874015749 1122.5196850393702" width="21.0cm">
  <metadata>
    <rdf:RDF>
      <cc:Work>
        <dc:format>image/svg+xml</dc:format>
        <dc:source>vsk save -s 58 -c C:\Users\marti\Documents\git\putti-plotter-plot\sixfeet\config\1.json C:\Users\marti\Documents\git\putti-plotter-plot\sixfeet\sketch_sixfeet.py</dc:source>
        <dc:date>2023-11-19T17:46:31.349197</dc:date>
      </cc:Work>
    </rdf:RDF>
  </metadata>
  <defs/>
  <g fill="none" id="layer1" inkscape:groupmode="layer" inkscape:label="1" stroke="#0000ff" style="display:inline">
    <polygon points="560.1241,611.2871 558.7553,606.5856 556.531,602.2232 553.2696,598.0808 549.551,594.895 544.9574,592.3077 540.3054,590.779 535.0725,590.1371 530.1889,590.4961 525.1061,591.8964 520.7278,594.089 516.5619,597.3203 513.1318,601.3241 510.7287,605.5906 509.0828,610.5992 508.4866,615.4595 508.8732,620.7175 510.1738,625.4383 512.5345,630.1524 515.5357,634.0216 519.5145,637.4806 524.1081,640.0679 528.7601,641.5966 533.993,642.2385 539.2481,641.8139 543.9594,640.4792 548.3377,638.2865 552.5036,635.0553 555.9337,631.0515 558.3368,626.785 559.9827,621.7764 560.5867,616.5389"/>
    <line x1="562.1767" x2="561.4504" y1="606.9746" y2="601.4378"/>
    <line x1="561.8209" x2="562.4866" y1="601.3892" y2="606.4646"/>
    <line x1="562.7965" x2="562.1913" y1="605.9546" y2="601.3406"/>
    <line x1="562.5617" x2="563.1064" y1="601.292" y2="605.4446"/>
    <line x1="563.4163" x2="562.9321" y1="604.9346" y2="601.2434"/>
    <line x1="563.3025" x2="563.7262" y1="601.1948" y2="604.4246"/>
    <line x1="564.0361" x2="563.6729" y1="603.9146" y2="601.1462"/>
    <line x1="564.0434" x2="564.346" y1="601.0976" y2="603.4046"/>
    <line x1="564.6559" x2="564.4138" y1="602.8946" y2="601.049"/>
    <line x1="564.7842" x2="564.9658" y1="601.0004" y2="602.3847"/>
    <line x1="565.2757" x2="565.1546" y1="601.8747" y2="600.9519"/>
    <line x1="565.525" x2="565.5855" y1="600.9033" y2="601.3647"/>
    <line x1="561.08" x2="561.7458" y1="601.4863" y2="606.5618"/>
    <line x1="561.3149" x2="560.7096" y1="606.149" y2="601.5349"/>
    <line x1="560.3392" x2="560.8839" y1="601.5835" y2="605.7361"/>
    <line x1="560.453" x2="559.9688" y1="605.3233" y2="601.6321"/>
    <line x1="559.5984" x2="560.022" y1="601.6807" y2="604.9105"/>
    <line x1="559.5911" x2="559.2279" y1="604.4977" y2="601.7293"/>
    <line x1="558.8575" x2="559.1602" y1="601.7779" y2="604.0849"/>
    <line x1="558.7292" x2="558.4871" y1="603.6721" y2="601.8265"/>
    <line x1="558.1167" x2="558.2983" y1="601.8751" y2="603.2593"/>
    <line x1="557.8673" x2="557.7463" y1="602.8465" y2="601.9237"/>
    <line x1="557.3759" x2="557.4364" y1="601.9723" y2="602.4337"/>
    <polygon points="557.0054,602.0208 562.1767,606.9746 565.8954,600.8547"/>
    <line x1="548.7593" x2="383.7254" y1="625.736" y2="524.0295"/>
    <line x1="376.102" x2="371.0389" y1="557.9337" y2="591.569"/>
    <line x1="370.6401" x2="375.7032" y1="591.509" y2="557.8736"/>
    <polygon points="375.3044,557.8136 368.308,608.3566 376.5008,557.9937"/>
    <polygon points="427.905,506.7558 431.0509,500.7394 432.8567,494.5857 433.4607,487.8234 432.6961,481.0773 430.7444,474.9682 427.4563,469.0283 423.3154,464.1312 418.3211,460.1079 412.3047,456.962 405.7796,455.0868 399.3887,454.5521 393.0123,455.2387 386.5335,457.2684 380.5936,460.5565 375.6965,464.6974 371.6732,469.6917 368.5273,475.7081 366.7214,481.8619 366.1174,488.6242 366.804,495.0006 368.8337,501.4793 371.9082,507.1076 376.2627,512.3164 381.257,516.3397 387.2734,519.4856 393.7986,521.3607 400.1895,521.8954 406.9355,521.1308 413.0446,519.1791 418.9845,515.891 423.8817,511.7501"/>
    <line x1="453.5173" x2="519.755" y1="504.1789" y2="861.0754"/>
    <line x1="529.6292" x2="538.3463" y1="747.6471" y2="737.0211"/>
    <line x1="538.6352" x2="530.5887" y1="737.2581" y2="747.0667"/>
    <line x1="529.7219" x2="537.7685" y1="746.3557" y2="736.5471"/>
    <line x1="538.0574" x2="529.3403" y1="736.7841" y2="747.4101"/>
    <line x1="530.1036" x2="537.4796" y1="745.3013" y2="736.3101"/>
    <line x1="537.1906" x2="530.4852" y1="736.0731" y2="744.2469"/>
    <line x1="530.8668" x2="536.9017" y1="743.1925" y2="735.8361"/>
    <line x1="536.6128" x2="531.2484" y1="735.5991" y2="742.1381"/>
    <line x1="531.6301" x2="536.3239" y1="741.0837" y2="735.362"/>
    <line x1="536.035" x2="532.0117" y1="735.125" y2="740.0293"/>
    <line x1="532.3933" x2="535.7461" y1="738.9749" y2="734.888"/>
    <line x1="535.4572" x2="532.775" y1="734.651" y2="737.9205"/>
    <line x1="533.1566" x2="535.1682" y1="736.8661" y2="734.414"/>
    <line x1="534.8793" x2="533.5382" y1="734.177" y2="735.8117"/>
    <line x1="533.9199" x2="534.5904" y1="734.7573" y2="733.94"/>
    <line x1="538.9241" x2="531.5481" y1="737.4952" y2="746.4864"/>
    <line x1="532.5076" x2="539.213" y1="745.906" y2="737.7322"/>
    <line x1="539.502" x2="533.467" y1="737.9692" y2="745.3256"/>
    <line x1="534.4265" x2="539.7909" y1="744.7453" y2="738.2062"/>
    <line x1="540.0798" x2="535.386" y1="738.4432" y2="744.1649"/>
    <line x1="536.3454" x2="540.3687" y1="743.5845" y2="738.6802"/>
    <line x1="540.6576" x2="537.3049" y1="738.9172" y2="743.0042"/>
    <line x1="538.2644" x2="540.9465" y1="742.4238" y2="739.1543"/>
    <line x1="541.2354" x2="539.2238" y1="739.3913" y2="741.8434"/>
    <line x1="540.1833" x2="541.5244" y1="741.263" y2="739.6283"/>
    <line x1="541.8133" x2="541.1427" y1="739.8653" y2="740.6827"/>
    <polygon points="542.1022,740.1023 534.3015,733.7029 529.1495,747.9373"/>
    <line x1="452.0767" x2="450.6521" y1="724.7427" y2="723.0072"/>
    <line x1="451.7818" x2="448.9325" y1="724.9848" y2="721.5138"/>
    <line x1="447.2129" x2="451.4869" y1="720.0204" y2="725.2269"/>
    <line x1="451.192" x2="445.4933" y1="725.469" y2="718.527"/>
    <line x1="443.7738" x2="450.8971" y1="717.0336" y2="725.7111"/>
    <line x1="450.6022" x2="442.0542" y1="725.9532" y2="715.5402"/>
    <line x1="440.3346" x2="450.3073" y1="714.0468" y2="726.1953"/>
    <line x1="450.0124" x2="438.615" y1="726.4374" y2="712.5534"/>
    <line x1="436.8954" x2="449.7175" y1="711.06" y2="726.6794"/>
    <line x1="449.4226" x2="435.1759" y1="726.9215" y2="709.5666"/>
    <line x1="433.4563" x2="449.1277" y1="708.0732" y2="727.1636"/>
    <line x1="448.8328" x2="431.7367" y1="727.4057" y2="706.5798"/>
    <line x1="430.852" x2="447.9481" y1="707.306" y2="728.132"/>
    <line x1="447.6532" x2="431.9817" y1="728.3741" y2="709.2836"/>
    <line x1="433.1115" x2="447.3582" y1="711.2612" y2="728.6162"/>
    <line x1="447.0633" x2="434.2413" y1="728.8582" y2="713.2388"/>
    <line x1="435.371" x2="446.7684" y1="715.2164" y2="729.1003"/>
    <line x1="446.4735" x2="436.5008" y1="729.3424" y2="717.194"/>
    <line x1="437.6306" x2="446.1786" y1="719.1715" y2="729.5845"/>
    <line x1="445.8837" x2="438.7603" y1="729.8266" y2="721.1491"/>
    <line x1="439.8901" x2="445.5888" y1="723.1267" y2="730.0687"/>
    <line x1="445.2939" x2="441.0199" y1="730.3108" y2="725.1043"/>
    <line x1="442.1496" x2="444.999" y1="727.0819" y2="730.5529"/>
    <line x1="444.7041" x2="443.2794" y1="730.795" y2="729.0595"/>
    <line x1="447.0906" x2="690.5259" y1="731.3963" y2="680.8494"/>
    <line x1="529.4204" x2="526.3424" y1="644.6842" y2="643.5574"/>
    <line x1="526.4746" x2="529.0395" y1="643.1965" y2="644.1355"/>
    <line x1="528.6587" x2="526.6067" y1="643.5867" y2="642.8355"/>
    <line x1="526.7388" x2="528.2778" y1="642.4746" y2="643.038"/>
    <line x1="527.8969" x2="526.8709" y1="642.4893" y2="642.1137"/>
    <line x1="527.0031" x2="527.5161" y1="641.7527" y2="641.9405"/>
    <line x1="526.2103" x2="528.7753" y1="643.9184" y2="644.8573"/>
    <line x1="528.1302" x2="526.0782" y1="645.0305" y2="644.2793"/>
    <line x1="525.946" x2="527.485" y1="644.6402" y2="645.2036"/>
    <line x1="526.8399" x2="525.8139" y1="645.3768" y2="645.0012"/>
    <line x1="525.6818" x2="526.1948" y1="645.3621" y2="645.5499"/>
    <polygon points="525.5496,645.7231 529.4204,644.6842 527.1352,641.3918"/>
    <line x1="448.5379" x2="430.0171" y1="727.6478" y2="705.0863"/>
    <line x1="429.7222" x2="448.243" y1="705.3284" y2="727.8899"/>
    <polygon points="429.1573,704.3396 444.4092,731.037 452.3716,724.5006"/>
    <line x1="405.9137" x2="615.0045" y1="774.9991" y2="476.1459"/>
    <line x1="597.6526" x2="547.5901" y1="443.9554" y2="428.8138"/>
    <polygon points="540.9747,396.7897 544.8705,395.3855 548.4163,393.2463 551.4751,390.4547 553.9286,387.1187 555.682,383.3671 556.6677,379.345 556.8473,375.2078 556.2141,371.1153 554.7926,367.2259 552.6375,363.6897 549.8323,360.6434 546.4853,358.2049 542.7259,356.4682 538.6994,355.5006 534.5614,355.3394 530.4718,355.9909 526.5888,357.4299 523.0623,359.6008 520.0286,362.4196 517.605,365.7775 515.8852,369.5446 514.9357,373.5754 514.793,377.7141 515.4628,381.8007 516.9192,385.6773 519.1058,389.194 521.9382,392.215 525.3068,394.6236 528.7254,396.2028 532.7431,397.2064 536.8795,397.4046"/>
    <polygon points="525.7423,393.8217 529.5199,395.511 533.1887,396.3475 536.9492,396.4874 541.0349,395.8315 544.9005,394.3548 548.0863,392.3521 550.8442,389.7919 553.2695,386.4391 554.9588,382.6615 555.7953,378.9927 555.9104,374.8562 555.2792,371.1465 553.8026,367.2808 551.7998,364.0951 549.2397,361.3372 545.8868,358.9119 542.1093,357.2226 538.4404,356.3861 534.3039,356.271 530.5942,356.9022 526.7286,358.3788 523.5428,360.3816 520.7849,362.9417 518.3597,366.2946 516.6704,370.0721 515.8339,373.741 515.7187,377.8774 516.3499,381.5871 517.8265,385.4528 519.8293,388.6386 522.3895,391.3965"/>
    <polygon points="520.7534,393.6025 524.436,396.2272 528.5627,398.0767 532.5984,399.0288 537.1167,399.2188 541.5841,398.5168 545.8263,396.9501 549.6777,394.58 552.988,391.4989 555.6279,387.8272 557.4944,383.7081 558.5146,379.3024 558.6487,374.7822 557.8915,370.3238 556.2725,366.1013 553.8549,362.2795 550.7331,359.0076 547.029,356.4133 543.2452,354.7175 538.8437,353.6791 534.3241,353.5264 529.8626,354.2652 525.6334,355.8668 521.8017,358.2686 518.517,361.3768 515.9074,365.0702 514.075,369.2045 513.0911,373.6185 512.9682,377.7631 513.6886,382.2276 515.2727,386.4633 517.6587,390.3049"/>
    <polygon points="512.0678,377.976 512.8015,382.4411 514.5334,387.0255 516.9351,390.8604 520.0192,394.1714 524.0006,397.029 528.1244,398.8914 532.9006,399.989 537.4238,400.1135 541.8888,399.3799 546.1343,397.8144 550.3082,395.2462 553.6192,392.1621 556.4768,388.1808 558.3392,384.057 559.4367,379.2808 559.5613,374.7576 558.8276,370.2926 557.0957,365.7081 554.694,361.8732 551.6099,358.5622 547.6286,355.7046 543.5047,353.8422 538.7285,352.7447 534.2053,352.6201 529.376,353.453 525.1558,355.0856 521.321,357.4874 517.7616,360.856 515.1524,364.5528 513.2899,368.6767 512.1924,373.4529"/>
    <polygon points="514.4898,373.4691 514.3552,377.9912 515.0655,382.0783 516.5468,385.9531 518.744,389.4718 521.5755,392.5035 524.936,394.9356 528.7008,396.6778 532.7298,397.6654 537.2506,397.8396 541.3437,397.1652 545.2314,395.718 548.7692,393.5517 551.8257,390.747 554.2872,387.4079 556.1872,383.3021 557.1394,379.2645 557.2739,374.7424 556.5636,370.6554 555.0823,366.7805 552.8851,363.2619 550.0537,360.2302 546.6931,357.798 542.9284,356.0558 538.8993,355.0683 534.3785,354.894 530.2854,355.5684 526.3977,357.0157 522.8599,359.1819 519.8035,361.9867 517.3419,365.3257 515.5668,369.0751"/>
    <polygon points="520.0632,363.0773 517.906,366.169 516.2273,369.9595 515.3879,373.6348 515.2544,377.7783 515.9528,381.8646 517.455,385.7285 519.4675,388.9163 522.31,391.9341 525.6988,394.3219 529.1388,395.8642 533.1761,396.8058 537.3202,396.9203 541.039,396.3022 544.9232,394.8532 548.4388,392.6562 551.4435,389.8 553.8158,386.4002 555.3423,382.9532 556.2654,378.9117 556.361,374.7671 555.6251,370.6873 554.2591,367.1736 552.046,363.6681 549.4612,360.9239 546.0943,358.5051 542.3115,356.8091 538.2657,355.9045 534.1208,355.8279 530.0444,356.5825 526.537,357.9646 523.0417,360.1937"/>
    <polygon points="529.7985,354.7556 525.9199,356.234 522.0794,358.6304 518.7981,361.7491 516.2099,365.463 514.4199,369.621 513.5433,373.6782 513.457,378.2042 514.1782,382.2918 515.8083,386.5151 518.0205,390.0272 521.1253,393.3215 524.5004,395.7376 528.2629,397.4905 532.6576,398.5765 537.1808,398.7581 541.6484,398.0279 545.5393,396.5823 549.3999,394.2183 552.7073,391.1273 555.3267,387.4353 557.032,383.651 558.0624,379.2429 558.2114,375.0949 557.5,370.6242 555.9056,366.3874 553.493,362.557 550.3605,359.289 546.6357,356.7164 542.4702,354.9439 538.4094,354.0845 534.2598,353.9878"/>
    <polygon points="557.7595,375.1833 557.0534,370.7195 555.4492,366.4944 553.2469,362.9841 550.1409,359.7013 546.7577,357.3082 542.9856,355.5928 538.5846,354.5652 534.0664,354.4596 529.9851,355.1772 526.1111,356.6482 522.582,358.8203 519.2726,361.898 516.8506,365.2605 514.9798,369.3744 514.0376,373.4098 513.8696,377.5503 514.5757,382.0142 516.18,386.2392 518.3822,389.7495 521.2043,392.784 524.8714,395.4254 528.6436,397.1408 532.6707,398.1176 537.1864,398.3008 541.2794,397.6534 545.1781,396.2491 549.0471,393.9134 552.1057,391.1175 554.7785,387.4732 556.6494,383.3592 557.5916,379.3239"/>
    <polygon points="557.9563,383.7653 558.9667,379.3619 559.1101,374.8464 558.381,370.3878 556.6391,365.8154 554.2168,362.0019 551.1053,358.7263 547.4212,356.1114 543.3024,354.2551 538.9031,353.2269 534.3882,353.0653 529.5626,353.8744 525.3473,355.4998 521.524,357.9067 518.236,361.005 515.6062,364.6785 513.6138,369.1474 512.639,373.5588 512.5321,378.0753 513.2971,382.5279 514.9055,386.7497 517.2969,390.5827 520.3818,393.8832 524.3719,396.7153 528.5056,398.5383 532.913,399.5309 537.4291,399.656 541.8847,398.909 546.1129,397.3177 549.9555,394.9417 553.2685,391.8701 555.9279,388.2179"/>
    <polygon points="478.7416,409.234 478.9744,404.7082 478.7625,400.1814 478.1079,395.6972 477.0169,391.2987 475.5001,387.0284 473.572,382.9272 471.2512,379.0348 468.56,375.3887 465.5245,372.0238 462.1737,368.9727 458.54,366.2648 454.6584,363.926 450.5662,361.979 446.3029,360.4424 441.9095,359.3311 437.4283,358.6558 432.9025,358.423 428.3757,358.6349 423.8915,359.2895 419.493,360.3805 415.2227,361.8973 411.1215,363.8254 407.2291,366.1462 403.583,368.8374 400.2181,371.873 397.167,375.2237 394.4591,378.8574 392.1203,382.7391 390.1733,386.8312 388.6367,391.0946 387.5254,395.488 386.8501,399.9691 386.6173,404.4949 386.8292,409.0217 387.4838,413.5059 388.5748,417.9044 390.0916,422.1748 392.0197,426.2759 394.3405,430.1683 397.0317,433.8145 400.0673,437.1793 403.418,440.2304 407.0517,442.9384 410.9334,445.2771 415.0255,447.2242 419.2888,448.7607 423.6822,449.872 428.1634,450.5473 432.6892,450.7801 437.216,450.5682 441.7002,449.9136 446.0987,448.8226 450.3691,447.3058 454.4702,445.3777 458.3626,443.0569 462.0087,440.3657 465.3736,437.3302 468.4247,433.9794 471.1326,430.3457 473.4714,426.4641 475.4184,422.3719 476.955,418.1086 478.0663,413.7152"/>
    <line x1="470.8535" x2="566.1656" y1="411.3033" y2="536.0283"/>
    <line x1="566.4624" x2="487.0357" y1="535.8015" y2="431.864"/>
    <line x1="486.1453" x2="565.572" y1="432.5444" y2="536.4819"/>
    <line x1="565.2752" x2="501.7338" y1="536.7087" y2="453.5587"/>
    <line x1="503.2178" x2="566.7592" y1="452.4247" y2="535.5747"/>
    <line x1="567.056" x2="519.4" y1="535.3479" y2="472.9854"/>
    <line x1="517.3224" x2="564.9784" y1="474.573" y2="536.9355"/>
    <line x1="564.6816" x2="532.9109" y1="537.1623" y2="495.5873"/>
    <line x1="535.5821" x2="567.3528" y1="493.5461" y2="535.121"/>
    <line x1="567.6496" x2="551.7643" y1="534.8942" y2="514.1067"/>
    <line x1="548.4995" x2="564.3848" y1="516.6016" y2="537.3891"/>
    <polygon points="564.088,537.6159 567.9464,534.6674 462.7624,401.0229"/>
    <line x1="565.8688" x2="470.5567" y1="536.2551" y2="411.5301"/>
    <line x1="452.5777" x2="435.6393" y1="433.5466" y2="446.3611"/>
    <line x1="436.7869" x2="453.7253" y1="447.8781" y2="435.0636"/>
    <line x1="453.4958" x2="419.619" y1="434.7602" y2="460.3892"/>
    <line x1="418.9304" x2="452.8072" y1="459.479" y2="433.85"/>
    <line x1="453.0367" x2="402.2215" y1="434.1534" y2="472.5968"/>
    <line x1="402.451" x2="453.2663" y1="472.9002" y2="434.4568"/>
    <polygon points="396.4281,434.6349 399.476,437.9842 402.831,441.0258 406.4622,443.7315 410.3362,446.0766 414.4172,448.0393 418.6677,449.6017 423.418,450.8257 428.2698,451.5497 432.7931,451.7674 437.3163,451.5503 441.7979,450.9003 446.1965,449.8236 450.4716,448.3301 454.5838,446.4334 458.8108,443.9441 462.4639,441.2679 466.1118,437.9882 469.3993,434.3472 472.0832,430.6998 474.405,426.8118 476.4868,422.37 477.9894,418.0981 479.0755,413.7017 479.7703,408.8457 479.9608,404.3212 479.7166,399.7993 479.0398,395.3217 477.9367,390.9297 476.2725,386.315 474.3184,382.2299 471.9815,378.3509 469.2835,374.714 465.9818,371.0858 462.6147,368.0577 458.9727,365.3665 454.7559,362.8599 450.6516,360.9463 446.3827,359.4351 441.9886,358.3403 437.5097,357.6719 432.9874,357.4361 428.0875,357.6713 423.6086,358.3392 419.2143,359.4335 414.5964,361.0884 410.5073,363.0343 406.6237,365.3634 402.9813,368.0542 399.6138,371.0819 396.3118,374.7097 393.6133,378.3463 391.276,382.225 389.3214,386.3099 387.6567,390.9243 386.553,395.3163 385.8757,399.7938 385.6301,404.6932 385.8563,409.216 386.5152,413.6963 387.6007,418.0927 389.1028,422.3648 391.1841,426.8069 393.5054,430.6952"/>
    <polygon points="390.6818,426.9136 393.1992,431.1255 395.8961,434.7649 399.1931,438.3991 402.5535,441.4366 406.1871,444.1413 410.061,446.4889 414.4884,448.6045 418.7486,450.1438 423.1356,451.2717 427.9855,452.0176 432.5087,452.2601 437.0346,452.0721 441.8931,451.3847 446.2934,450.3097 450.9216,448.6796 455.0244,446.7597 458.9263,444.459 462.886,441.561 466.2589,438.5374 469.3295,435.2073 472.2828,431.2886 474.8175,427.0871 476.7624,422.9961 478.3101,418.739 479.5225,413.9843 480.2022,409.5058 480.4537,404.9831 480.2747,400.4569 479.5969,395.597 478.423,390.8326 476.9097,386.5631 474.998,382.4566 472.705,378.5501 469.8148,374.5847 466.7979,371.2058 463.4739,368.1286 459.5611,365.1676 455.6965,362.8047 451.2775,360.6715 446.6626,359.0041 442.2711,357.8936 437.794,357.205 433.2718,356.9446 428.7452,357.1146 423.884,357.7828 419.4795,358.8403 415.1952,360.3112 410.7345,362.3557 406.8235,364.6409 402.8523,367.5232 399.4675,370.5334 396.3837,373.8514 393.4149,377.7583 390.8636,381.9497 388.9025,386.033 387.3379,390.2839 386.1067,395.0338 385.3704,399.8852 385.1369,404.4089 385.3696,409.3102 386.0309,413.7914 387.1145,418.1896 388.7538,422.8146"/>
    <line x1="369.694" x2="370.3924" y1="457.459" y2="458.3899"/>
    <line x1="370.7885" x2="369.3917" y1="459.5476" y2="457.6858"/>
    <line x1="369.0894" x2="371.1846" y1="457.9126" y2="460.7053"/>
    <line x1="371.5807" x2="368.7871" y1="461.8629" y2="458.1394"/>
    <line x1="368.4848" x2="371.9768" y1="458.3662" y2="463.0206"/>
    <line x1="372.3729" x2="368.1825" y1="464.1783" y2="458.593"/>
    <line x1="367.8802" x2="372.769" y1="458.8198" y2="465.336"/>
    <line x1="373.1651" x2="367.5779" y1="466.4937" y2="459.0466"/>
    <line x1="367.2756" x2="373.5613" y1="459.2734" y2="467.6514"/>
    <line x1="373.9574" x2="366.9734" y1="468.8091" y2="459.5001"/>
    <line x1="366.6711" x2="374.3535" y1="459.7269" y2="469.9667"/>
    <line x1="373.4466" x2="365.7642" y1="470.6471" y2="460.4073"/>
    <line x1="365.4619" x2="372.4459" y1="460.6341" y2="469.943"/>
    <line x1="371.4452" x2="365.1596" y1="469.2389" y2="460.8609"/>
    <line x1="364.8573" x2="370.4445" y1="461.0877" y2="468.5348"/>
    <line x1="369.4438" x2="364.555" y1="467.8307" y2="461.3145"/>
    <line x1="364.2527" x2="368.4431" y1="461.5413" y2="467.1267"/>
    <line x1="367.4424" x2="363.9504" y1="466.4226" y2="461.7681"/>
    <line x1="363.6481" x2="366.4417" y1="461.9949" y2="465.7185"/>
    <line x1="365.441" x2="363.3458" y1="465.0144" y2="462.2217"/>
    <line x1="363.0435" x2="364.4403" y1="462.4485" y2="464.3103"/>
    <line x1="363.4396" x2="362.7412" y1="463.6062" y2="462.6753"/>
    <polygon points="362.439,462.9021 374.9476,471.7033 369.9963,457.2322"/>
    <line x1="366.0665" x2="374.4473" y1="460.1805" y2="471.3512"/>
    <line x1="374.7496" x2="366.3688" y1="471.1244" y2="459.9537"/>
    <line x1="359.5514" x2="360.4034" y1="471.288" y2="472.3663"/>
    <line x1="360.9469" x2="359.2429" y1="473.6883" y2="471.5318"/>
    <line x1="358.9345" x2="361.4904" y1="471.7755" y2="475.0103"/>
    <line x1="362.0339" x2="358.626" y1="476.3323" y2="472.0192"/>
    <line x1="358.3175" x2="362.5775" y1="472.2629" y2="477.6543"/>
    <line x1="362.269" x2="358.0091" y1="477.8981" y2="472.5067"/>
    <line x1="357.7006" x2="361.1086" y1="472.7504" y2="477.0635"/>
    <line x1="359.9481" x2="357.3922" y1="476.229" y2="472.9941"/>
    <line x1="357.0837" x2="358.7877" y1="473.2378" y2="475.3944"/>
    <line x1="357.6272" x2="356.7752" y1="474.5599" y2="473.4816"/>
    <polygon points="356.4668,473.7253 362.8492,478.3153 359.8599,471.0443"/>
    <line x1="350.9614" x2="103.1749" y1="469.2329" y2="378.3887"/>
    <polygon points="242.3403,413.8288 300.5841,556.1962 246.7214,412.1142"/>
    <line x1="242.7053" x2="252.0476" y1="413.6859" y2="437.5567"/>
    <line x1="255.6985" x2="246.3563" y1="436.1279" y2="412.2571"/>
    <line x1="245.9912" x2="264.6756" y1="412.4" y2="460.1415"/>
    <line x1="261.7549" x2="243.0704" y1="461.2846" y2="413.5431"/>
    <line x1="243.4355" x2="271.4622" y1="413.4002" y2="485.0125"/>
    <line x1="273.6527" x2="245.6261" y1="484.1552" y2="412.5429"/>
    <line x1="245.261" x2="282.6298" y1="412.6857" y2="508.1688"/>
    <line x1="281.1695" x2="243.8006" y1="508.7404" y2="413.2573"/>
    <line x1="244.1657" x2="290.8768" y1="413.1144" y2="532.4683"/>
    <line x1="291.6069" x2="244.8959" y1="532.1825" y2="412.8286"/>
    <line x1="244.5308" x2="300.5841" y1="412.9715" y2="556.1962"/>
    <line x1="277.7565" x2="268.4134" y1="597.0588" y2="802.1851"/>
    <line x1="226.4203" x2="219.2052" y1="721.477" y2="720.8589"/>
    <line x1="219.1737" x2="224.9457" y1="721.227" y2="721.7215"/>
    <line x1="225.0404" x2="219.2683" y1="720.6172" y2="720.1226"/>
    <line x1="219.2999" x2="223.6289" y1="719.7545" y2="720.1254"/>
    <line x1="222.2174" x2="219.3314" y1="719.6337" y2="719.3864"/>
    <line x1="219.3629" x2="220.806" y1="719.0183" y2="719.1419"/>
    <polygon points="219.3945,718.6502 219.0476,722.6995 227.1576,721.3548"/>
    <line x1="219.2368" x2="226.4518" y1="720.4908" y2="721.1089"/>
    <line x1="223.4712" x2="219.1422" y1="721.966" y2="721.5951"/>
    <line x1="219.1106" x2="221.9966" y1="721.9632" y2="722.2105"/>
    <line x1="220.5221" x2="219.0791" y1="722.455" y2="722.3314"/>
    <line x1="185.6164" x2="186.3359" y1="598.9805" y2="597.3997"/>
    <line x1="186.709" x2="185.2699" y1="595.6612" y2="598.8227"/>
    <line x1="184.9234" x2="187.082" y1="598.665" y2="593.9227"/>
    <line x1="187.4551" x2="184.577" y1="592.1842" y2="598.5073"/>
    <line x1="184.2305" x2="187.8281" y1="598.3496" y2="590.4457"/>
    <line x1="186.4423" x2="182.8446" y1="589.8149" y2="597.7188"/>
    <line x1="182.4981" x2="185.3763" y1="597.5611" y2="591.238"/>
    <line x1="184.3103" x2="182.1517" y1="592.661" y2="597.4034"/>
    <line x1="181.8052" x2="183.2443" y1="597.2457" y2="594.0841"/>
    <line x1="182.1782" x2="181.4587" y1="595.5072" y2="597.088"/>
    <polygon points="181.1122,596.9303 185.9628,599.1382 188.5743,586.9687"/>
    <line x1="183.1911" x2="187.5083" y1="597.8765" y2="588.3918"/>
    <line x1="188.2012" x2="183.884" y1="588.7072" y2="598.1919"/>
    <line x1="183.5375" x2="188.5743" y1="598.0342" y2="586.9687"/>
    <line x1="187.4696" x2="184.2156" y1="571.9563" y2="543.6307"/>
    <line x1="184.8815" x2="188.1355" y1="543.5543" y2="571.8798"/>
    <line x1="187.8025" x2="181.2946" y1="571.918" y2="515.267"/>
    <polygon points="188.4684,571.8415 181.2946,515.267 187.1367,571.9945"/>
    <polygon points="252.3091,511.4913 253.516,511.1393 235.5086,451.6414"/>
    <line x1="252.7114" x2="241.1088" y1="511.374" y2="471.5914"/>
    <line x1="241.5111" x2="253.1137" y1="471.4741" y2="511.2567"/>
    <polygon points="273.8866,451.4616 278.1945,447.423 264.8094,437.462"/>
    <line x1="274.1558" x2="272.7519" y1="451.2091" y2="449.7116"/>
    <line x1="271.6173" x2="274.425" y1="447.9617" y2="450.9567"/>
    <line x1="274.6943" x2="270.4826" y1="450.7043" y2="446.2117"/>
    <line x1="269.348" x2="274.9635" y1="444.4618" y2="450.4519"/>
    <line x1="275.2328" x2="268.2133" y1="450.1995" y2="442.7119"/>
    <line x1="267.0787" x2="275.502" y1="440.9619" y2="449.9471"/>
    <line x1="275.7713" x2="265.9441" y1="449.6947" y2="439.212"/>
    <line x1="266.4826" x2="276.3098" y1="438.7072" y2="449.1899"/>
    <line x1="276.579" x2="268.1557" y1="448.9375" y2="439.9523"/>
    <line x1="269.8288" x2="276.8483" y1="441.1974" y2="448.685"/>
    <line x1="277.1175" x2="271.502" y1="448.4326" y2="442.4425"/>
    <line x1="273.1751" x2="277.3868" y1="443.6876" y2="448.1802"/>
    <line x1="277.656" x2="274.8482" y1="447.9278" y2="444.9328"/>
    <line x1="276.5214" x2="277.9253" y1="446.1779" y2="447.6754"/>
    <line x1="276.0405" x2="264.8094" y1="449.4423" y2="437.462"/>
    <polygon points="278.3047,421.9015 353.9663,354.7249 276.3804,419.6694"/>
    <line x1="278.0642" x2="297.2201" y1="421.6225" y2="405.1074"/>
    <line x1="295.7768" x2="276.6209" y1="403.4333" y2="419.9484"/>
    <line x1="276.8615" x2="315.1733" y1="420.2275" y2="387.1972"/>
    <line x1="316.1355" x2="277.8236" y1="388.3132" y2="421.3435"/>
    <line x1="277.5831" x2="335.0509" y1="421.0645" y2="371.5191"/>
    <line x1="334.5698" x2="277.102" y1="370.9611" y2="420.5065"/>
    <line x1="277.3426" x2="353.9663" y1="420.7855" y2="354.7249"/>
    <line x1="351.0496" x2="332.921" y1="354.6699" y2="391.2153"/>
    <line x1="332.5937" x2="359.7865" y1="391.0529" y2="336.2348"/>
    <line x1="350.3949" x2="332.2664" y1="354.3452" y2="390.8906"/>
    <line x1="331.939" x2="341.0033" y1="390.7282" y2="372.4555"/>
    <line x1="342.3126" x2="333.2484" y1="373.105" y2="391.3777"/>
    <polygon points="333.5757,391.5401 359.7865,336.2348 331.6117,390.5658"/>
    <line x1="373.3961" x2="383.7059" y1="372.43" y2="355.8748"/>
    <line x1="385.2085" x2="374.8987" y1="356.8106" y2="373.3658"/>
    <line x1="374.5982" x2="395.2177" y1="373.1786" y2="340.0682"/>
    <line x1="394.3162" x2="373.6966" y1="339.5067" y2="372.6172"/>
    <line x1="373.9972" x2="404.9264" y1="372.8043" y2="323.1387"/>
    <line x1="405.227" x2="374.2977" y1="323.3258" y2="372.9915"/>
    <polygon points="437.5197,359.1614 432.9958,358.9169 428.47,359.1217 423.9867,359.7738 419.59,360.8668 415.3232,362.3898 411.2282,364.3279 407.3454,366.6621 404.005,369.1302 400.6333,372.1562 397.5779,375.5013 394.8688,379.1326 392.7126,382.6822 390.7386,386.7601 389.1783,391.0134 388.0469,395.4003 387.3556,399.8777 387.1112,404.4016 387.316,408.9274 387.9681,413.4108 389.061,417.8074 390.5841,422.0742 392.5222,426.1692 394.8564,430.0521 397.5637,433.6847 400.6175,437.0312 403.6956,439.8195 407.3269,442.5286 410.8765,444.6849 414.9543,446.6588 419.2077,448.2191 423.5946,449.3505 428.072,450.0418 432.5959,450.2862 437.1217,450.0814 441.605,449.4293 446.0017,448.3364 449.9189,446.9564 454.0298,445.0521 457.9318,442.7501 461.5867,440.0729 464.9584,437.0469 468.0138,433.7018 470.7229,430.0705 473.059,426.1888 474.9991,422.0948 476.5242,417.8287 477.6193,413.4326 478.2361,409.3254 478.4805,404.8015 478.2757,400.2757 477.6236,395.7924 476.5307,391.3957 475.1506,387.4785 473.2464,383.3676 470.9444,379.4656 468.2672,375.8107 465.2412,372.439 461.8961,369.3836 458.2648,366.6745 454.3831,364.3384 450.2891,362.3983 446.023,360.8732 441.6269,359.7781"/>
    <polygon points="459.5229,364.547 455.6398,362.2122 451.206,360.1069 446.5809,358.464 442.1834,357.3725 437.7027,356.6993 432.8009,356.4486 428.2749,356.6613 423.4182,357.3706 419.0204,358.4611 414.395,360.1031 410.294,362.0296 406.0771,364.5414 402.1379,367.4694 398.7835,370.5154 395.7303,373.8631 392.7937,377.796 390.2728,382.0074 388.3374,386.1042 386.7956,390.3648 385.5853,395.1215 384.9033,399.6008 384.643,404.5021 384.8468,409.0285 385.5466,413.8866 386.7372,418.6482 388.2614,422.9152 390.1798,427.0199 392.6834,431.2417 395.6036,435.1867 398.643,438.547 401.9848,441.6068 405.9119,444.551 410.1183,447.0802 414.2113,449.0237 418.4689,450.5738 423.2232,451.7934 428.0769,452.5227 432.602,452.7541 437.5048,452.5237 441.9882,451.869 446.7522,450.6877 451.0221,449.1719 455.4646,447.085 459.3573,444.7662 463.3079,441.8537 466.6742,438.8209 469.9817,435.1944 472.6925,431.5638 475.0501,427.6945 477.1814,423.2732 478.7399,419.0187 479.9689,414.2668 480.6685,409.7901 480.948,404.8899 480.7272,399.9866 480.0812,395.5019 478.9092,390.7356 477.4018,386.4628 475.4995,382.3505 473.0125,378.119 470.1077,374.1626 466.8153,370.5225 463.4615,367.4758"/>
    <polygon points="466.0736,371.8771 462.4512,368.5619 458.8151,365.855 454.9336,363.5136 450.8433,361.5599 446.5827,360.0121 441.8216,358.8104 437.3368,358.1508 432.8092,357.9293 428.2815,358.1482 423.7963,358.8052 419.3961,359.8943 415.1222,361.405 411.0151,363.3233 407.1134,365.6309 403.454,368.3062 399.803,371.5899 396.7562,374.9462 394.0493,378.5823 391.53,382.7972 389.6094,386.9032 388.0962,391.1762 387.0046,395.5758 386.345,400.0606 386.1236,404.5882 386.3425,409.116 386.9995,413.6011 388.0885,418.0013 389.5993,422.2752 391.5176,426.3823 393.8252,430.284 396.5005,433.9434 399.7842,437.5944 403.1405,440.6412 406.7766,443.3481 410.6581,445.6895 414.7484,447.6433 419.009,449.191 423.3997,450.3182 427.879,451.0141 432.4046,451.2722 437.3102,451.055 441.7954,450.3979 446.1956,449.3089 450.8187,447.6536 454.9101,445.7021 458.793,443.363 462.4306,440.6582 465.7887,437.6133 468.8355,434.2569 471.5424,430.6209 473.8838,426.7393 475.8376,422.649 477.3853,418.3884 478.5125,413.9978 479.2084,409.5185 479.4665,404.9928 479.2843,400.4635 478.5922,395.602 477.5032,391.2018 475.9924,386.9279 474.0741,382.8208 471.7665,378.9191 469.0912,375.2597"/>
    <polygon points="410.2316,314.9547 373.0956,372.2429 375.1992,373.5529"/>
    <polygon points="494.9701,264.7254 498.9837,266.1173 497.6685,261.4443"/>
    <line x1="495.1777" x2="498.2755" y1="264.473" y2="263.6011"/>
    <line x1="498.3767" x2="495.2789" y1="263.9605" y2="264.8324"/>
    <line x1="495.8964" x2="498.4779" y1="265.0466" y2="264.32"/>
    <line x1="498.579" x2="496.5138" y1="264.6795" y2="265.2607"/>
    <line x1="497.1313" x2="498.6802" y1="265.4749" y2="265.0389"/>
    <line x1="498.7814" x2="497.7488" y1="265.3984" y2="265.689"/>
    <line x1="498.3663" x2="498.8826" y1="265.9032" y2="265.7579"/>
    <line x1="498.1744" x2="495.5928" y1="263.2416" y2="263.9682"/>
    <line x1="496.008" x2="498.0732" y1="263.4634" y2="262.8822"/>
    <line x1="497.972" x2="496.4231" y1="262.5227" y2="262.9586"/>
    <line x1="496.8382" x2="497.8708" y1="262.4538" y2="262.1632"/>
    <line x1="497.7697" x2="497.2534" y1="261.8038" y2="261.9491"/>
    <polygon points="393.867,479.1557 453.9549,435.367 452.3482,433.2432"/>
    <polygon points="525.8969,501.793 507.6971,515.3267 542.7282,562.4356 560.928,548.9019"/>
    <polygon points="521.7623,530.1678 492.9337,532.9369 495.4365,558.9923 524.2651,556.2232"/>
  </g>
</svg>
