<?xml version="1.0" encoding="utf-8" ?>
<svg xmlns="http://www.w3.org/2000/svg" xmlns:cc="http://creativecommons.org/ns" xmlns:dc="http://purl.org/dc/elements/1.1/" xmlns:ev="http://www.w3.org/2001/xml-events" xmlns:inkscape="http://www.inkscape.org/namespaces/inkscape" xmlns:rdf="http://www.w3.org/1999/02/22-rdf-syntax-ns" xmlns:sodipodi="http://sodipodi.sourceforge.net/DTD/sodipodi-0.dtd" xmlns:xlink="http://www.w3.org/1999/xlink" baseProfile="tiny" height="29.7cm" version="1.2" viewBox="0 0 793.7007874015749 1122.5196850393702" width="21.0cm">
  <metadata>
    <rdf:RDF>
      <cc:Work>
        <dc:format>image/svg+xml</dc:format>
        <dc:source>vsk save -s 53 -c C:\Users\marti\Documents\git\putti-plotter-plot\sixfeet\config\1.json C:\Users\marti\Documents\git\putti-plotter-plot\sixfeet\sketch_sixfeet.py</dc:source>
        <dc:date>2023-11-19T17:46:29.221232</dc:date>
      </cc:Work>
    </rdf:RDF>
  </metadata>
  <defs/>
  <g fill="none" id="layer1" inkscape:groupmode="layer" inkscape:label="1" stroke="#0000ff" style="display:inline">
    <polygon points="329.1199,397.5916 329.2694,404.7674 330.1193,411.8943 331.6613,418.904 333.8808,425.7296 336.7566,432.3057 340.261,438.5694 344.3606,444.4607 349.0162,449.9234 354.1832,454.905 360.1202,459.577 366.1771,463.4277 372.5814,466.6682 379.2715,469.2675 386.1836,471.2008 393.2515,472.4495 400.4076,473.0018 407.5835,472.8523 414.7103,472.0024 421.7201,470.4604 428.5457,468.2409 435.1218,465.3651 441.3855,461.8607 447.5755,457.5296 453.0141,452.8459 457.9691,447.6533 462.3931,442.0015 466.2437,435.9445 469.4842,429.5403 472.0836,422.8502 474.0168,415.9381 475.2656,408.8702 475.8275,401.3363 475.641,394.1613 474.7545,387.0389 473.1764,380.0372 470.9217,373.2231 468.0122,366.6619 464.4755,360.4164 460.3456,354.5462 455.662,349.1076 450.4694,344.1526 444.8176,339.7286 438.7606,335.878 432.3564,332.6375 425.6662,330.0381 418.7541,328.1049 411.6862,326.8561 404.5301,326.3038 396.9774,326.4807 389.855,327.3672 382.8532,328.9453 376.0392,331.2 369.478,334.1095 363.2325,337.6462 357.3623,341.7761 351.9237,346.4597 346.9687,351.6523 342.5447,357.3041 338.694,363.3611 335.4535,369.7653 332.8542,376.4554 330.9209,383.3675 329.6722,390.4355"/>
    <line x1="321.2112" x2="339.3165" y1="401.3296" y2="403.739"/>
    <line x1="338.9315" x2="320.8262" y1="406.6319" y2="404.2225"/>
    <line x1="320.8744" x2="357.0849" y1="403.8608" y2="408.6797"/>
    <line x1="357.3737" x2="321.1631" y1="406.51" y2="401.6912"/>
    <line x1="321.115" x2="375.4308" y1="402.0528" y2="409.2811"/>
    <line x1="375.2383" x2="320.9225" y1="410.7275" y2="403.4992"/>
    <line x1="320.9706" x2="393.3917" y1="403.1376" y2="412.7753"/>
    <line x1="393.488" x2="321.0669" y1="412.0521" y2="402.4144"/>
    <line x1="321.0187" x2="411.5451" y1="402.776" y2="414.8231"/>
    <polygon points="411.5451,414.8231 321.2593,400.968 320.7781,404.5841"/>
    <polygon points="402.2906,457.6601 399.5753,467.63 407.9233,466.3229"/>
    <line x1="402.2906" x2="403.7493" y1="457.6601" y2="466.9765"/>
    <line x1="404.1288" x2="402.8027" y1="466.9171" y2="458.4477"/>
    <line x1="402.0438" x2="403.3699" y1="458.5665" y2="467.0359"/>
    <line x1="402.9904" x2="401.7969" y1="467.0953" y2="459.4729"/>
    <line x1="401.5501" x2="402.6109" y1="460.3792" y2="467.1547"/>
    <line x1="402.2315" x2="401.3032" y1="467.2141" y2="461.2856"/>
    <line x1="401.0564" x2="401.852" y1="462.1919" y2="467.2736"/>
    <line x1="401.4726" x2="400.8095" y1="467.333" y2="463.0983"/>
    <line x1="400.5627" x2="401.0931" y1="464.0046" y2="467.3924"/>
    <line x1="400.7137" x2="400.3158" y1="467.4518" y2="464.911"/>
    <line x1="400.069" x2="400.3342" y1="465.8173" y2="467.5112"/>
    <line x1="399.9548" x2="399.8221" y1="467.5706" y2="466.7237"/>
    <line x1="404.5082" x2="403.3147" y1="466.8577" y2="459.2352"/>
    <line x1="403.8268" x2="404.8877" y1="460.0227" y2="466.7982"/>
    <line x1="405.2671" x2="404.3389" y1="466.7388" y2="460.8103"/>
    <line x1="404.8509" x2="405.6466" y1="461.5978" y2="466.6794"/>
    <line x1="406.026" x2="405.363" y1="466.62" y2="462.3853"/>
    <line x1="405.8751" x2="406.4055" y1="463.1728" y2="466.5606"/>
    <line x1="406.785" x2="406.3871" y1="466.5012" y2="463.9604"/>
    <line x1="406.8992" x2="407.1644" y1="464.7479" y2="466.4418"/>
    <line x1="407.5439" x2="407.4113" y1="466.3824" y2="465.5354"/>
    <polygon points="368.3929,451.5295 367.2263,434.739 359.6385,437.1545"/>
    <line x1="367.976" x2="363.2517" y1="450.845" y2="436.0042"/>
    <line x1="362.8904" x2="367.1423" y1="436.1193" y2="449.4759"/>
    <line x1="368.2262" x2="363.9744" y1="449.1309" y2="435.7742"/>
    <line x1="363.613" x2="368.3373" y1="435.8892" y2="450.73"/>
    <line x1="368.1151" x2="364.3357" y1="447.5318" y2="435.6592"/>
    <line x1="364.697" x2="368.004" y1="435.5442" y2="445.9327"/>
    <line x1="367.8929" x2="365.0583" y1="444.3336" y2="435.4291"/>
    <line x1="365.4197" x2="367.7818" y1="435.3141" y2="442.7345"/>
    <line x1="367.6707" x2="365.781" y1="441.1354" y2="435.1991"/>
    <line x1="366.1423" x2="367.5596" y1="435.0841" y2="439.5363"/>
    <line x1="367.4485" x2="366.5036" y1="437.9372" y2="434.9691"/>
    <line x1="366.865" x2="367.3374" y1="434.854" y2="436.3381"/>
    <line x1="362.5291" x2="366.3085" y1="436.2343" y2="448.1069"/>
    <line x1="365.4748" x2="362.1678" y1="446.7378" y2="436.3493"/>
    <line x1="361.8064" x2="364.641" y1="436.4643" y2="445.3688"/>
    <line x1="363.8072" x2="361.4451" y1="443.9997" y2="436.5793"/>
    <line x1="361.0838" x2="362.9735" y1="436.6944" y2="442.6307"/>
    <line x1="362.1397" x2="360.7225" y1="441.2616" y2="436.8094"/>
    <line x1="360.3611" x2="361.306" y1="436.9244" y2="439.8926"/>
    <line x1="360.4722" x2="359.9998" y1="438.5235" y2="437.0394"/>
    <line x1="356.6828" x2="357.1181" y1="394.2403" y2="393.9968"/>
    <line x1="357.3699" x2="356.4994" y1="393.4253" y2="393.9123"/>
    <line x1="356.3159" x2="357.6218" y1="393.5844" y2="392.8539"/>
    <line x1="357.8736" x2="356.1325" y1="392.2824" y2="393.2564"/>
    <line x1="355.949" x2="358.1254" y1="392.9284" y2="391.711"/>
    <line x1="358.3772" x2="355.7656" y1="391.1395" y2="392.6005"/>
    <line x1="355.5821" x2="358.629" y1="392.2725" y2="390.5681"/>
    <line x1="358.8809" x2="355.3986" y1="389.9966" y2="391.9446"/>
    <line x1="355.2152" x2="359.1327" y1="391.6166" y2="389.4252"/>
    <line x1="359.3845" x2="355.0317" y1="388.8537" y2="391.2887"/>
    <line x1="354.8483" x2="359.6363" y1="390.9607" y2="388.2823"/>
    <line x1="359.8881" x2="354.6648" y1="387.7108" y2="390.6328"/>
    <line x1="354.4813" x2="360.14" y1="390.3048" y2="387.1394"/>
    <line x1="360.3918" x2="354.2979" y1="386.5679" y2="389.9768"/>
    <line x1="354.1144" x2="360.2083" y1="389.6489" y2="386.24"/>
    <polygon points="360.5177,386.2822 351.546,385.0575 356.8663,394.5682"/>
    <line x1="359.5896" x2="353.931" y1="386.1555" y2="389.3209"/>
    <line x1="353.7475" x2="358.9709" y1="388.993" y2="386.071"/>
    <line x1="358.3521" x2="353.5641" y1="385.9866" y2="388.665"/>
    <line x1="353.3806" x2="357.7334" y1="388.3371" y2="385.9021"/>
    <line x1="357.1146" x2="353.1971" y1="385.8177" y2="388.0091"/>
    <line x1="353.0137" x2="356.4959" y1="387.6811" y2="385.7332"/>
    <line x1="355.8772" x2="352.8302" y1="385.6487" y2="387.3532"/>
    <line x1="352.6468" x2="355.2584" y1="387.0252" y2="385.5643"/>
    <line x1="354.6397" x2="352.4633" y1="385.4798" y2="386.6973"/>
    <line x1="352.2799" x2="354.021" y1="386.3693" y2="385.3953"/>
    <line x1="353.4022" x2="352.0964" y1="385.3109" y2="386.0414"/>
    <line x1="351.9129" x2="352.7835" y1="385.7134" y2="385.2264"/>
    <line x1="352.1648" x2="351.7295" y1="385.142" y2="385.3855"/>
    <line x1="353.088" x2="359.0359" y1="375.065" y2="372.6104"/>
    <line x1="359.176" x2="354.0778" y1="372.9499" y2="375.0538"/>
    <line x1="353.7976" x2="358.8958" y1="374.3749" y2="372.271"/>
    <line x1="358.7557" x2="354.5072" y1="371.9315" y2="373.6847"/>
    <line x1="355.2168" x2="358.6156" y1="372.9946" y2="371.592"/>
    <line x1="358.4755" x2="355.9264" y1="371.2526" y2="372.3045"/>
    <line x1="356.6361" x2="358.3354" y1="371.6144" y2="370.9131"/>
    <line x1="358.1954" x2="357.3457" y1="370.5736" y2="370.9243"/>
    <polygon points="358.0553,370.2341 353.088,375.065 360.0165,374.9867"/>
    <line x1="359.3161" x2="355.0676" y1="373.2894" y2="375.0426"/>
    <line x1="356.0574" x2="359.4562" y1="375.0314" y2="373.6288"/>
    <line x1="359.5963" x2="357.0472" y1="373.9683" y2="375.0203"/>
    <line x1="358.037" x2="359.7364" y1="375.0091" y2="374.3078"/>
    <line x1="359.8765" x2="359.0268" y1="374.6472" y2="374.9979"/>
    <polygon points="456.1209,408.6 455.8904,413.122 456.0955,417.2678 456.6971,421.3748 457.6895,425.4053 459.0636,429.3221 460.9831,433.423 463.1105,436.9872 465.5697,440.3311 468.3382,443.4239 471.6809,446.4781 475.0103,448.9568 478.562,451.1051 482.6516,453.0485 486.5603,454.4455 490.9552,455.5346 495.064,456.1243 499.2103,456.3175 503.3561,456.1124 507.4632,455.5108 511.4936,454.5184 515.4104,453.1443 519.5113,451.2249 523.0755,449.0974 526.4194,446.6382 529.5122,443.8697 532.5664,440.5271 535.2545,436.8834 537.3716,433.3131 539.1369,429.5563 540.5339,425.6476 541.6229,421.2527 542.2127,417.1439 542.4058,412.9976 542.2007,408.8518 541.5992,404.7447 540.6068,400.7143 539.0892,396.4483 537.3132,392.6966 535.1858,389.1324 532.7265,385.7885 529.9581,382.6957 526.6154,379.6415 522.9718,376.9534 519.4015,374.8363 515.6447,373.0711 511.736,371.674 507.7114,370.6581 503.6079,370.0325 499.4634,369.8032 494.9401,370.0072 490.463,370.6829 486.4413,371.7104 482.5366,373.1187 478.7849,374.8947 475.2207,377.0221 471.8768,379.4814 468.784,382.2498 465.7298,385.5925 463.2511,388.922 461.1028,392.4737 459.3049,396.2149 457.7624,400.4719 456.7464,404.4965"/>
    <polygon points="460.3752,405.3535 459.817,409.0854 459.6171,413.2309 459.8135,416.9992 460.4433,421.1015 461.3864,424.7552 464.2929,431.7104 468.4669,437.9875 471.2496,441.0669 474.047,443.5993 480.3003,447.8088 484.0475,449.5933 487.5995,450.8667 494.986,452.3714 499.1305,452.5912 502.8997,452.4128 507.005,451.8025 510.6631,450.8769 517.6322,448.0036 523.9291,443.8597 527.0218,441.0918 529.5675,438.3065 533.8067,432.0733 535.4617,428.6822 536.8995,424.7888 538.4395,417.4096 538.6752,413.6436 538.5186,409.4961 537.928,405.388 537.0198,401.7255 535.7666,398.1663 534.0033,394.4091 529.8294,388.132 527.0467,385.0526 524.2493,382.5202 521.2232,380.2661 517.6633,378.1324 510.6967,375.2529 506.6692,374.2504 502.9347,373.7102 495.3966,373.7068 491.2913,374.317 487.6332,375.2426 480.6641,378.1159 474.3671,382.2599 471.5434,384.7629 468.7288,387.8131 466.2495,391.1416 464.3096,394.3781 461.3968,401.3308"/>
    <polygon points="463.6075,393.9352 461.8295,397.6908 460.5559,401.2476 459.5459,405.2783 458.9918,409.0152 458.7888,413.1656 458.9755,416.9388 459.5873,421.0488 460.5076,424.7129 461.9106,428.6242 463.529,432.0378 465.4595,435.2851 467.9233,438.6312 470.4511,441.4388 473.5212,444.239 476.5488,446.4986 480.1068,448.6451 483.5175,450.2696 487.4263,451.6795 494.8217,453.1867 498.5926,453.4154 502.7449,453.2587 506.8592,452.6758 510.5296,451.7812 514.4506,450.4057 517.8755,448.8113 521.4523,446.6962 524.4997,444.4634 527.3249,441.9554 530.1466,438.9051 532.4274,435.8934 534.5988,432.3506 536.3944,428.6033 537.6846,425.0526 538.7135,421.0266 539.2851,417.2923 539.5075,413.1429 539.3385,409.3689 538.746,405.256 537.8428,401.5877 536.4582,397.6699 534.8557,394.2487 532.9404,390.9924 530.4923,387.6348 527.9777,384.8154 524.9208,382.0008 521.5907,379.5155 518.3559,377.564 514.9528,375.9236 511.0507,374.4953 507.0223,373.4759 503.2867,372.913 499.5147,372.702 495.3631,372.8782 491.2517,373.4803 487.5855,374.392 483.6709,375.7859 480.2536,377.3963 476.6867,379.5281 473.6499,381.7752 470.8364,384.2964 468.029,387.3599 465.7623,390.3822"/>
    <polygon points="476.2843,446.8196 479.8385,448.971 483.5932,450.7496 487.1477,452.0273 491.1755,453.0462 494.91,453.6124 499.0588,453.8332 502.8323,453.6665 506.9455,453.0808 510.9777,452.0795 514.5378,450.8174 518.3002,449.0553 521.8638,446.9195 524.8997,444.6721 527.7146,442.1534 530.5269,439.0953 533.0135,435.767 534.9695,432.5356 536.7655,428.7892 538.1709,424.8795 539.1711,420.8471 539.72,417.1099 539.9215,412.9602 539.7374,409.1875 539.2048,405.448 538.2223,401.4112 536.834,397.4953 535.232,394.0747 533.1127,390.5012 530.8794,387.455 528.109,384.3588 525.038,381.5607 522.012,379.3 518.4578,377.1485 514.7031,375.37 511.1486,374.0922 507.1208,373.0733 503.3863,372.5071 499.6153,372.2889 495.4639,372.453 491.722,372.9682 487.6807,373.9321 483.7585,375.3021 479.9961,377.0643 476.7472,378.991 473.3966,381.4475 470.5817,383.9662 467.7693,387.0242 465.4946,390.0397 463.3268,393.5839 461.6782,396.9824 460.2366,400.8789 459.1991,404.9019 458.5763,409.0096 458.3747,413.1594 458.5589,416.9321 459.1637,421.0425 460.1836,425.07 461.6081,428.9728 463.2417,432.3784 465.3941,435.9321 467.6555,438.9575 470.1872,441.7607 473.2583,444.5589"/>
    <polygon points="482.8492,452.234 486.7561,453.6395 490.7817,454.6564 494.8875,455.275 499.034,455.4893 503.1816,455.2973 507.2906,454.7008 511.6829,453.5957 515.5849,452.1764 519.3294,450.3826 522.8807,448.2314 526.2048,445.7433 529.2697,442.9423 532.0463,439.8551 534.5077,436.5114 536.6306,432.943 538.3945,429.1843 539.7826,425.2711 540.7816,421.241 541.3819,417.1326 541.5777,412.9851 541.3673,408.8384 540.7525,404.7321 539.7394,400.7055 538.3375,396.7973 536.5604,393.0448 534.425,389.4839 531.9518,386.1488 529.1644,383.0714 526.0896,380.2812 522.7568,377.8049 519.198,375.6662 515.4471,373.8855 511.5401,372.48 507.5145,371.4631 503.4088,370.8446 499.2623,370.6303 495.1147,370.8223 491.0057,371.4187 486.9746,372.414 483.0602,373.7984 479.2998,375.5588 475.7295,377.6784 472.3834,380.1367 469.2937,382.9104 466.4898,385.9727 463.9987,389.2944 461.8441,392.8438 460.0468,396.5867 458.6239,400.4873 457.5891,404.5084 456.9523,408.6113 456.7195,412.7568 456.8931,416.9053 457.4713,421.0169 458.4485,425.0523 459.8156,428.9729 461.5592,432.741 463.8713,436.6356 466.3445,439.9707 469.1319,443.0481 472.2067,445.8383 475.5394,448.3147 479.0983,450.4534"/>
    <polygon points="494.9757,455.6998 499.1222,455.9035 503.2689,455.7049 507.3769,455.1058 511.4076,454.112 515.3233,452.7328 519.087,450.9811 522.6636,448.8733 526.0194,446.4292 529.3914,443.4065 532.1865,440.337 534.8811,436.6974 537.0011,433.1281 538.7657,429.3703 540.1583,425.4594 541.1659,421.4321 541.7789,417.3261 541.9917,413.1801 541.765,408.6573 541.1389,404.5533 540.1185,400.5292 538.7134,396.6228 536.9368,392.8707 534.8054,389.3081 532.3393,385.9686 529.5614,382.8834 526.2064,379.8418 522.8644,377.3789 519.2998,375.2511 515.5459,373.4782 511.2764,371.9686 507.2425,370.9876 503.1326,370.4017 498.9853,370.2164 494.8395,370.4333 490.7342,371.0504 486.7079,372.0619 482.7983,373.4584 478.7097,375.4054 475.1613,377.5602 471.8382,380.0484 468.7714,382.8466 465.9899,385.9284 463.5196,389.2649 461.3839,392.8249 459.6028,396.5749 458.0837,400.841 457.0939,404.8727 456.499,408.9813 456.3045,413.1282 456.5122,417.2745 457.1203,421.3811 458.2334,425.7707 459.6557,429.6709 461.4488,433.4152 463.5958,436.9683 466.0767,440.297 468.8681,443.3699 471.9438,446.1582 475.5893,448.8448 479.1633,450.9569 482.9249,452.7132 486.8389,454.0972 490.8684,455.0958"/>
    <polygon points="507.0912,452.2075 510.7491,451.2835 514.6521,449.8737 518.0561,448.2468 524.3292,444.0687 527.4103,441.2889 529.9475,438.4967 532.4203,435.1641 534.3573,431.9265 536.1246,428.1719 537.3854,424.616 538.3051,420.957 538.9131,416.8521 538.9176,409.3149 538.3869,405.5796 537.3992,401.5491 535.9986,397.6429 534.3797,394.235 530.2164,387.952 527.444,384.8643 524.6577,382.3206 518.4294,378.0759 515.0429,376.4129 511.1552,374.9616 507.1379,373.9215 503.4098,373.3423 499.2663,373.1145 495.4972,373.2815 491.7607,373.8034 487.7278,374.7817 483.8183,376.173 480.4066,377.7838 477.1622,379.7093 473.8209,382.1702 470.7529,384.9645 468.2289,387.7687 465.7719,391.1129 463.8502,394.3596 460.9659,401.323 460.0289,404.9776 459.4015,409.0797 459.203,413.2247 459.3968,416.9925 460.8431,424.3896 462.0829,427.9529 463.828,431.7179 465.7458,434.9669 468.1988,438.314 470.7194,441.1212 473.7841,443.9192 476.8086,446.1745 480.3646,448.3134 484.1234,450.0719 487.6822,451.3243 491.3434,452.2353 495.4498,452.8336 502.987,452.8203"/>
    <polygon points="510.405,449.6569 517.3596,446.7408 523.6078,442.5181 528.9071,437.1527 532.8749,431.1863 535.7735,424.2244 537.2514,416.8294 537.2512,409.2881 535.7729,401.8932 532.8739,394.9314 528.6667,388.6728 523.3144,383.3603 517.0247,379.1998 510.403,376.462 503.0117,374.9659 495.4704,374.9475 488.0719,376.4076 481.103,379.2894 474.8341,383.4812 469.5083,388.8203 465.3323,395.0998 462.5782,401.7147 461.0639,409.1023 461.0269,416.6435 462.4687,424.0456 465.3333,431.0216 469.5096,437.3008 474.8357,442.6397 481.1048,446.8312 488.0739,449.7126 495.4725,451.1722 503.0137,451.1534"/>
    <polygon points="529.0479,437.6351 533.2455,431.3714 536.149,424.4126 537.648,417.0229 537.6858,409.4828 536.2609,402.0784 534.8711,398.1663 533.2504,394.7573 529.0545,388.4924 523.7235,383.16 517.4597,378.9624 510.5009,376.059 506.8427,375.129 502.7354,374.5231 495.1953,374.5588 487.8052,376.0559 480.8457,378.9575 474.5808,383.1534 469.2483,388.4844 465.0507,394.7482 462.1473,401.707 460.6483,409.0967 460.6105,416.6368 462.0354,424.0411 463.2816,427.6041 465.0458,431.3622 469.2418,437.6271 474.5728,442.9596 480.8365,447.1572 487.7953,450.0606 495.185,451.5597 502.7251,451.5974 506.8325,450.9926 510.491,450.0636 517.4506,447.1621 523.7155,442.9662"/>
    <polygon points="542.8197,413.1925 542.5988,408.6707 541.9109,404.196 540.8764,400.1767 539.4651,396.2738 537.6896,392.5225 535.5661,388.9567 533.1136,385.6085 530.0892,382.2397 527.0238,379.4418 523.3937,376.7366 519.8362,374.5991 516.0919,372.8089 511.8339,371.2711 507.4395,370.1823 503.3319,369.5888 499.1865,369.388 495.0407,369.5816 490.5617,370.2404 486.5358,371.2488 482.6238,372.6349 478.8611,374.386 475.2816,376.4864 471.6235,379.1537 468.2613,382.1854 465.47,385.2568 462.9828,388.5792 460.6428,392.4548 458.8607,396.203 457.4425,400.1034 456.3253,404.4906 455.7052,408.5943 455.4764,413.1158 455.6789,417.2611 456.274,421.3685 457.3645,425.7624 458.9041,430.0198 460.6958,433.7634 463.0457,437.633 465.5414,440.9491 468.3406,444.0133 471.418,446.7979 474.7458,449.2779 478.6264,451.6095 482.3784,453.3835 486.2819,454.7933 490.6715,455.901 494.7766,456.5122 499.2985,456.7313 503.4434,456.5198 507.9195,455.8416 511.941,454.8158 515.847,453.4129 519.6021,451.6455 523.4868,449.3207 526.819,446.8466 529.9013,444.0673 532.9461,440.717 535.4189,437.3838 537.7421,433.4982 539.6507,429.3929 541.0182,425.4744 542.0076,421.4438 542.6099,417.3375"/>
    <polygon points="538.119,409.6775 536.7463,402.2643 535.3907,398.3409 533.8036,394.9168 531.6859,391.3466 529.4421,388.3121 524.1319,382.9603 517.8938,378.7266 514.15,376.9335 510.5988,375.6559 503.2108,374.154 495.6718,374.0972 488.262,375.4877 484.692,376.7116 480.9216,378.4482 477.6711,380.3657 474.3275,382.8257 468.9885,388.1487 464.7698,394.397 461.8281,401.3386 460.2727,408.7156 460.0313,412.8596 460.1941,416.6301 460.7194,420.3673 461.7101,424.3984 464.5806,431.3697 466.7155,434.9297 468.974,437.9533 474.3099,443.2794 477.3376,445.5324 480.9015,447.6608 487.8781,450.5185 495.2733,451.9847 502.8124,452.0051 510.2155,450.5789 513.7795,449.3377 517.5415,447.583 523.8226,443.4133 529.1872,438.1161 533.436,431.8882 536.4111,424.9609 538.0021,417.5915 538.258,413.8262"/>
    <polygon points="538.1047,397.3213 536.3608,393.5526 534.2534,389.9743 531.803,386.6217 529.0336,383.5272 525.9723,380.7213 522.649,378.2313 519.0961,376.0815 515.3483,374.2929 511.4422,372.8831 507.4161,371.8657 503.3092,371.2507 495.39,371.2126 491.2773,371.7879 487.2416,372.7665 483.3222,374.1387 479.5573,375.8911 475.9839,378.0065 472.6367,380.4644 469.5485,383.2407 466.7495,386.3083 462.3052,392.863 460.4914,396.5986 459.0552,400.4951 458.0107,404.5143 457.3681,408.6169 457.1335,412.763 457.3095,416.912 457.8941,421.0233 458.8817,425.0568 460.2627,428.9732 462.0235,432.7341 464.147,436.3027 466.6124,439.6444 469.3957,442.7263 472.4696,445.5185 475.8041,447.9935 479.3666,450.1273 483.1224,451.899 487.0347,453.2913 491.0654,454.2906 495.175,454.8871 503.0943,454.8897 507.2043,454.2958 511.2356,453.2991 515.1489,451.9094 518.9058,450.1401 522.4697,448.0086 525.8058,445.5357 528.8815,442.7455 531.6667,439.6653 534.1343,436.3253 536.2601,432.758 539.2971,425.4441 540.3235,421.4203 540.9478,417.3148 541.1636,413.1677 540.9691,409.0196 539.4681,401.2438"/>
    <polygon points="533.493,390.3256 531.0284,386.9817 528.2395,383.9032 525.4466,381.3611 522.4325,379.0855 518.892,376.9129 515.1506,375.108 511.6071,373.8018 507.5894,372.7465 503.8613,372.1428 499.7159,371.8761 495.5647,372.0284 491.45,372.598 487.4136,373.5792 483.4965,374.962 480.0727,376.5558 476.4927,378.6629 473.4373,380.8826 470.327,383.636 467.5098,386.6887 465.2273,389.6976 463.0466,393.2331 461.2332,396.9703 459.8054,400.8712 458.7777,404.8961 458.1608,409.004 457.9607,413.1531 458.1424,416.9254 458.7403,421.0361 459.6408,424.7038 461.0146,428.624 462.7762,432.3859 464.9079,435.9513 467.3878,439.2837 469.9233,442.0826 472.9954,444.8788 476.0198,447.1405 479.5703,449.2968 483.3199,451.0845 487.2305,452.4855 491.2623,453.4854 494.9983,454.0377 499.147,454.2473 503.2957,454.038 507.4022,453.4118 511.4248,452.3752 515.3224,450.9386 518.724,449.2979 522.2746,447.1417 525.2992,444.8802 528.1039,442.351 530.9071,439.2854 533.3872,435.9531 535.519,432.3879 537.2809,428.6261 538.5464,425.0678 539.5555,421.0382 540.1165,417.3035 540.3356,413.1553 540.1357,409.0062 539.5921,405.2689 538.6017,401.2347 537.2099,397.3208 535.431,393.567"/>
    <polygon points="533.6638,389.8356 531.1761,386.5097 525.5638,380.9209 522.2276,378.4472 518.6613,376.3184 514.9005,374.5558 510.9827,373.177 503.2096,371.6569 499.061,371.4583 494.9133,371.6743 487.1466,373.2269 483.2347,374.6221 479.4813,376.4004 472.89,380.7921 469.8034,383.5711 467.0093,386.6441 462.5854,393.2138 460.7888,396.9585 459.3745,400.8636 457.7839,408.6226 457.5476,412.7692 457.7259,416.9187 458.3171,421.0297 459.3153,425.0613 460.7105,428.9733 462.4888,432.7266 466.8805,439.3179 469.6595,442.4045 472.7325,445.1986 476.0687,447.6724 479.635,449.8012 483.3958,451.5637 487.3136,452.9425 495.0867,454.4626 499.2352,454.6613 503.3829,454.4453 511.1496,452.8926 515.0616,451.4974 518.815,449.7191 525.4063,445.3274 528.4929,442.5484 531.287,439.4754 533.7607,436.1392 535.8895,432.5729 537.6521,428.8121 539.0309,424.8944 540.551,417.1212 540.7496,412.9727 540.5336,408.825 538.981,401.0583 537.5858,397.1463 535.8075,393.3929"/>
    <line x1="573.7258" x2="574.4016" y1="401.3802" y2="403.7061"/>
    <line x1="574.0383" x2="573.5315" y1="403.8116" y2="402.0672"/>
    <line x1="573.3372" x2="573.675" y1="402.7542" y2="403.9172"/>
    <line x1="573.3118" x2="573.1428" y1="404.0227" y2="403.4412"/>
    <line x1="574.7648" x2="573.9201" y1="403.6006" y2="400.6932"/>
    <line x1="574.1145" x2="575.1281" y1="400.0061" y2="403.495"/>
    <line x1="575.4914" x2="574.3088" y1="403.3895" y2="399.3191"/>
    <line x1="574.5031" x2="575.8546" y1="398.6321" y2="403.2839"/>
    <line x1="576.2179" x2="574.6974" y1="403.1784" y2="397.9451"/>
    <line x1="574.8917" x2="576.5811" y1="397.2581" y2="403.0729"/>
    <line x1="576.9444" x2="575.424" y1="402.9673" y2="397.734"/>
    <line x1="575.9562" x2="577.3077" y1="398.2099" y2="402.8618"/>
    <line x1="577.6709" x2="576.4884" y1="402.7562" y2="398.6859"/>
    <line x1="577.0206" x2="578.0342" y1="399.1618" y2="402.6507"/>
    <line x1="578.3975" x2="577.5528" y1="402.5451" y2="399.6378"/>
    <line x1="578.085" x2="578.7607" y1="400.1137" y2="402.4396"/>
    <line x1="579.124" x2="578.6172" y1="402.3341" y2="400.5896"/>
    <line x1="579.1494" x2="579.4873" y1="401.0656" y2="402.2285"/>
    <line x1="579.8505" x2="579.6816" y1="402.123" y2="401.5415"/>
    <polygon points="580.2138,402.0174 574.8917,397.2581 572.9485,404.1283"/>
    <line x1="585.1244" x2="446.6766" y1="441.5104" y2="518.8603"/>
    <line x1="446.4908" x2="561.8639" y1="518.5277" y2="454.0695"/>
    <line x1="562.4214" x2="447.0482" y1="455.0673" y2="519.5255"/>
    <line x1="447.2341" x2="539.5326" y1="519.8581" y2="468.2915"/>
    <line x1="538.6035" x2="446.305" y1="466.6285" y2="518.1951"/>
    <line x1="446.1191" x2="515.343" y1="517.8625" y2="479.1876"/>
    <line x1="516.6438" x2="447.4199" y1="481.5157" y2="520.1907"/>
    <line x1="447.6057" x2="493.755" y1="520.5233" y2="494.74"/>
    <line x1="492.0826" x2="445.9333" y1="491.7466" y2="517.5299"/>
    <line x1="445.7475" x2="468.8221" y1="517.1973" y2="504.3057"/>
    <line x1="470.8662" x2="447.7915" y1="507.9642" y2="520.8559"/>
    <line x1="446.8624" x2="585.3102" y1="519.1929" y2="441.843"/>
    <polygon points="580.5003,459.567 513.9645,546.414 544.1255,569.5212 610.6614,482.6741"/>
    <line x1="568.8802" x2="542.4964" y1="457.6291" y2="549.1122"/>
    <line x1="542.1336" x2="561.9214" y1="549.0076" y2="480.3953"/>
    <line x1="562.6471" x2="542.8593" y1="480.6045" y2="549.2169"/>
    <line x1="543.2221" x2="556.414" y1="549.3215" y2="503.58"/>
    <line x1="554.9626" x2="541.7707" y1="503.1614" y2="548.9029"/>
    <line x1="541.4079" x2="548.0038" y1="548.7983" y2="525.9275"/>
    <line x1="550.1809" x2="543.5849" y1="526.5554" y2="549.4261"/>
    <polygon points="541.045,548.6936 543.9478,549.5308 568.8802,457.6291"/>
    <polygon points="543.3341,537.8482 544.6269,535.9916 545.7695,532.413 545.7918,530.1507 545.4247,528.3003 543.7022,524.9619 540.8791,522.4836 538.8145,521.5585 536.9716,521.155 535.0859,521.1011 532.8589,521.4998 529.5205,523.2223 528.149,524.5176 526.8561,526.3742 525.7135,529.9528 525.9573,533.7015 526.7631,535.8155 527.7809,537.404 529.0762,538.7755 530.9328,540.0683 534.5114,541.2109 536.3972,541.2648 538.6242,540.8661 541.9626,539.1436"/>
    <polygon points="531.2038,538.9193 534.3704,540.0465 536.2432,540.1379 538.0941,539.8379 541.115,538.3641 542.4906,537.0899 543.5713,535.5576 544.6319,532.3681 544.684,530.4938 544.3453,528.6496 542.8085,525.6602 540.2792,523.4465 537.1126,522.3193 535.2398,522.228 533.3889,522.528 530.368,524.0018 528.1018,526.4842 527.2918,528.1752 526.8512,529.9977 527.0392,533.3537 527.6807,535.1156 528.6745,536.7056"/>
    <polygon points="543.3699,525.4607 540.5791,522.965 537.0427,521.736 533.3057,521.9632 529.9442,523.6114 527.4762,526.4267 526.2822,529.9751 526.5463,533.7097 528.2277,537.0548 531.0672,539.4948 534.6272,540.6537 538.359,540.3527 541.6873,538.6384 544.0992,535.7749 545.2228,532.2036 544.9849,528.8383"/>
    <line x1="523.7522" x2="560.8178" y1="517.9437" y2="669.2568"/>
    <polygon points="559.0433,630.3277 664.5931,552.4024 662.1985,549.2591"/>
    <line x1="559.0433" x2="663.3958" y1="630.3277" y2="550.8308"/>
    <line x1="663.1563" x2="579.6744" y1="550.5164" y2="614.1139"/>
    <line x1="580.1533" x2="663.6353" y1="614.7426" y2="551.1451"/>
    <line x1="663.8747" x2="601.2632" y1="551.4594" y2="599.1576"/>
    <line x1="600.3054" x2="662.9169" y1="597.9002" y2="550.2021"/>
    <line x1="662.6774" x2="620.9364" y1="549.8878" y2="581.6865"/>
    <line x1="622.3732" x2="664.1142" y1="583.5725" y2="551.7738"/>
    <line x1="664.3536" x2="643.4832" y1="552.0881" y2="567.9875"/>
    <line x1="641.5674" x2="662.4379" y1="565.4728" y2="549.5734"/>
    <line x1="633.5303" x2="631.93" y1="507.7003" y2="470.9859"/>
    <line x1="629.7156" x2="631.3159" y1="471.0824" y2="507.7968"/>
    <polygon points="630.9469,507.8129 633.8993,507.6842 626.022,360.891"/>
    <line x1="631.685" x2="628.4844" y1="507.7807" y2="434.352"/>
    <line x1="629.9607" x2="633.1612" y1="434.2876" y2="507.7164"/>
    <line x1="632.7921" x2="627.9913" y1="507.7324" y2="397.5893"/>
    <line x1="627.2532" x2="632.054" y1="397.6215" y2="507.7646"/>
    <line x1="632.4231" x2="626.022" y1="507.7485" y2="360.891"/>
    <line x1="595.815" x2="593.6857" y1="503.2593" y2="503.0179"/>
    <line x1="591.5142" x2="595.7729" y1="503.1477" y2="503.6306"/>
    <line x1="595.7308" x2="589.3427" y1="504.0018" y2="503.2775"/>
    <line x1="587.1712" x2="595.6887" y1="503.4073" y2="504.3731"/>
    <line x1="595.6466" x2="584.9998" y1="504.7443" y2="503.5371"/>
    <line x1="582.8283" x2="595.6045" y1="503.6669" y2="505.1156"/>
    <line x1="595.5625" x2="580.6568" y1="505.4869" y2="503.7967"/>
    <line x1="578.4853" x2="595.5204" y1="503.9265" y2="505.8581"/>
    <line x1="595.4783" x2="576.3139" y1="506.2294" y2="504.0564"/>
    <line x1="574.1424" x2="595.4362" y1="504.1862" y2="506.6006"/>
    <line x1="595.3941" x2="571.9709" y1="506.9719" y2="504.316"/>
    <line x1="569.7995" x2="595.352" y1="504.4458" y2="507.3431"/>
    <line x1="595.3099" x2="567.628" y1="507.7144" y2="504.5756"/>
    <line x1="567.4596" x2="595.1415" y1="506.0606" y2="509.1994"/>
    <line x1="595.1836" x2="565.3723" y1="508.8282" y2="505.4479"/>
    <line x1="565.4565" x2="595.2678" y1="504.7054" y2="508.0856"/>
    <line x1="595.2257" x2="563.285" y1="508.4569" y2="504.8352"/>
    <line x1="569.5469" x2="595.0994" y1="506.6733" y2="509.5707"/>
    <line x1="595.0573" x2="571.6342" y1="509.9419" y2="507.286"/>
    <line x1="573.7214" x2="595.0152" y1="507.8987" y2="510.3132"/>
    <line x1="594.9731" x2="575.8087" y1="510.6844" y2="508.5114"/>
    <line x1="577.896" x2="594.931" y1="509.1241" y2="511.0557"/>
    <line x1="594.8889" x2="579.9833" y1="511.4269" y2="509.7368"/>
    <line x1="582.0706" x2="594.8468" y1="510.3495" y2="511.7982"/>
    <line x1="594.8047" x2="584.1578" y1="512.1695" y2="510.9622"/>
    <line x1="586.2451" x2="594.7626" y1="511.5749" y2="512.5407"/>
    <line x1="594.7205" x2="588.3324" y1="512.912" y2="512.1876"/>
    <line x1="590.4197" x2="594.6784" y1="512.8003" y2="513.2832"/>
    <line x1="594.6363" x2="592.507" y1="513.6545" y2="513.413"/>
    <polygon points="594.5942,514.0257 595.8571,502.8881 563.285,504.8352"/>
    <polygon points="609.1083,584.4742 606.6594,585.3735 604.4776,587.3979 603.3975,589.7726 603.3058,592.7475 604.2374,595.1843 605.9864,597.12 608.3165,598.2932 611.2854,598.5027 614.0793,597.4766 615.9917,595.7022 617.1341,593.3568 617.3043,590.3854 616.4374,587.9248 614.442,585.7165 611.7167,584.5202"/>
    <line x1="505.7213" x2="496.6859" y1="596.5544" y2="557.173"/>
    <line x1="434.5031" x2="484.8271" y1="565.97" y2="318.5385"/>
    <line x1="533.8752" x2="339.9689" y1="235.1567" y2="555.9182"/>
    <line x1="312.0014" x2="297.6132" y1="530.2837" y2="523.9849"/>
    <line x1="297.4632" x2="309.7959" y1="524.3276" y2="529.7266"/>
    <line x1="310.246" x2="297.9133" y1="528.6984" y2="523.2995"/>
    <line x1="297.7633" x2="312.1514" y1="523.6422" y2="529.941"/>
    <line x1="308.3406" x2="298.0634" y1="527.4559" y2="522.9567"/>
    <line x1="298.2134" x2="306.4352" y1="522.614" y2="526.2133"/>
    <line x1="304.5298" x2="298.3634" y1="524.9708" y2="522.2713"/>
    <line x1="298.5135" x2="302.6244" y1="521.9286" y2="523.7282"/>
    <line x1="300.7189" x2="298.6635" y1="522.4857" y2="521.5858"/>
    <line x1="297.3132" x2="307.5904" y1="524.6704" y2="529.1695"/>
    <line x1="305.3849" x2="297.1631" y1="528.6124" y2="525.0131"/>
    <line x1="297.0131" x2="303.1794" y1="525.3558" y2="528.0553"/>
    <line x1="300.9739" x2="296.8631" y1="527.4982" y2="525.6985"/>
    <line x1="296.713" x2="298.7685" y1="526.0413" y2="526.9411"/>
    <polygon points="296.563,526.384 313.1041,530.5623 298.8135,521.2431"/>
    <line x1="251.8334" x2="173.382" y1="526.0656" y2="812.8705"/>
    <line x1="240.5299" x2="277.0798" y1="774.9165" y2="824.6821"/>
    <line x1="277.3806" x2="222.5558" y1="824.4611" y2="749.8127"/>
    <line x1="223.1575" x2="277.9824" y1="749.3708" y2="824.0191"/>
    <line x1="277.6815" x2="204.5817" y1="824.2401" y2="724.7089"/>
    <line x1="215.1177" x2="150.5833" y1="668.3718" y2="648.9657"/>
    <line x1="150.69" x2="236.7359" y1="648.6107" y2="674.4856"/>
    <line x1="237.0562" x2="151.0102" y1="673.4207" y2="647.5458"/>
    <line x1="150.9035" x2="258.4609" y1="647.9007" y2="680.2444"/>
    <line x1="258.3542" x2="150.7967" y1="680.5994" y2="648.2557"/>
    <line x1="151.117" x2="215.6514" y1="647.1908" y2="666.597"/>
    <line x1="229.5361" x2="387.9658" y1="658.1958" y2="754.0691"/>
    <polygon points="392.7981,751.5069 388.5215,748.3975 384.2893,745.908 379.8435,743.8237 374.8612,742.0533 370.0971,740.8647 364.867,740.0873 359.5853,739.8387 354.6813,740.0837 349.4507,740.8574 344.3241,742.1522 339.7022,743.8097 334.9211,746.0679 330.7052,748.5849 326.4488,751.7219 322.5287,755.2704 318.9846,759.1943 315.8522,763.4541 313.3399,767.6728 311.0869,772.4563 309.4345,777.0801 308.1453,782.208 307.4147,787.0635 307.1377,792.3438 307.3921,797.6252 308.1752,802.8544 309.369,807.6172 311.1449,812.5976 313.4117,817.3746 316.1465,821.8999 319.0809,825.8367 322.6364,829.7504 326.5667,833.2875 330.5172,836.2034 335.0553,838.917 339.8429,841.1614 344.8315,842.914 349.5999,844.0854 354.8327,844.844 359.7374,845.0749 365.0183,844.811 370.2461,844.0185 375.0068,842.8162 379.984,841.0313 384.7569,838.7559 389.2773,836.013 393.2089,833.0715 397.1161,829.5091 400.6461,825.5724 403.555,821.6167 406.2604,817.0737 408.4962,812.2821 410.132,807.6525 411.4027,802.5199 412.1159,797.6618 412.3739,792.3806 412.1006,787.1001 411.3734,782.2442 410.0879,777.1153 408.4387,772.4904 406.189,767.7053 403.4705,763.1702 400.3105,758.9307 396.7411,755.0299"/>
    <polygon points="392.9239,751.0719 388.6385,747.975 384.4012,745.4947 379.6028,743.2741 374.6072,741.5424 369.464,740.3167 364.6006,739.6423 359.6958,739.4206 354.4154,739.6901 349.1881,740.4841 344.0658,741.7946 339.0994,743.6085 334.6706,745.7281 330.1426,748.458 325.9089,751.6251 322.0116,755.1981 318.4894,759.1413 315.3773,763.4157 312.8819,767.6441 310.6443,772.4346 309.0032,777.0621 307.7225,782.1919 306.9591,787.4237 306.7199,792.3278 306.9706,797.6091 307.7459,802.8392 309.0381,807.9661 310.8344,812.9389 313.1169,817.7081 315.8629,822.2264 318.804,826.1579 322.096,829.8006 326.0014,833.3647 330.2423,836.5223 334.7765,839.2419 339.5589,841.4965 344.1805,843.1541 349.3058,844.453 354.5348,845.2351 359.8158,845.4927 365.0962,845.2232 369.953,844.5032 375.0845,843.2292 380.0637,841.4507 384.841,839.1852 389.0548,836.6652 393.3109,833.5283 397.2336,829.9832 400.7838,826.0651 403.9263,821.813 406.6297,817.2692 408.8673,812.4787 410.5084,807.8513 411.7891,802.7214 412.5525,797.4896 412.7913,792.2077 412.503,786.9283 411.7657,782.0741 410.4735,776.9472 408.6772,771.9744 406.3947,767.2052 403.6487,762.6869 400.4665,758.4646 396.8797,754.58"/>
    <polygon points="374.4276,743.6683 369.2908,742.4102 364.4277,741.7246 359.1433,741.5137 354.241,741.8093 349.3899,742.5757 344.6352,743.8055 340.021,745.4875 335.2581,747.7864 331.0708,750.3528 327.1501,753.3104 323.5323,756.6318 320.2511,760.2861 317.3371,764.2393 314.6404,768.7888 312.5711,773.2428 310.8335,778.2378 309.6917,783.0145 309.0152,787.8789 308.8102,792.7858 309.0786,797.6896 309.8179,802.5449 311.1328,807.6675 312.8233,812.2785 314.95,816.7054 317.493,820.9069 320.4287,824.8441 323.7299,828.4803 327.6585,832.0209 331.6172,834.9276 335.8373,837.4397 340.6295,839.6769 345.265,841.2991 350.0352,842.4674 354.8958,843.171 360.1794,843.4016 365.0827,843.1241 369.9366,842.3758 374.6958,841.1635 379.3162,839.4987 383.7549,837.3967 387.9705,834.8771 392.2161,831.7236 395.8462,828.4157 399.1409,824.7735 402.0696,820.8311 404.7831,816.2917 406.8689,811.8454 408.625,806.8568 409.7845,802.0845 410.4791,797.2226 410.6999,791.9386 410.4133,787.0358 409.6559,782.1833 408.4349,777.4263 406.7615,772.809 404.6513,768.3743 402.1239,764.1633 398.9625,759.9236 395.6478,756.2996 391.9996,753.0117 388.0518,750.0904 383.5073,747.3852 379.0571,745.3077"/>
    <polygon points="375.0779,741.2457 369.944,739.9826 364.7105,739.2328 359.4284,739.0037 354.1496,739.2975 348.9256,740.1113 344.1686,741.3258 339.1938,743.1157 334.4202,745.3883 329.8944,748.1213 325.6607,751.2881 321.7606,754.8576 318.2322,758.7949 315.1099,763.0616 312.4245,767.6157 310.2021,772.4129 308.4644,777.4062 307.2285,782.5467 306.5408,787.408 306.3024,792.6896 306.5868,797.9689 307.3914,803.1943 308.7083,808.3147 310.5245,813.2799 312.6428,817.7091 315.3678,822.2397 318.5271,826.479 322.0897,830.3854 326.0208,833.9208 330.2819,837.0505 334.8313,839.744 339.6246,841.9749 344.6148,843.7214 349.7531,844.9664 354.9892,845.6977 359.8943,845.9104 365.1741,845.6353 370.4009,844.8399 375.5236,843.5321 380.1433,841.87 384.9249,839.6143 389.4604,836.8972 393.7052,833.7454 397.6179,830.1897 401.1602,826.2649 404.2975,822.0094 406.999,817.4647 409.2384,812.6754 410.8848,808.05 412.1751,802.9229 412.9526,797.6934 413.2097,792.4126 412.9439,787.1323 412.1578,781.9041 410.859,776.7791 409.0603,771.8075 406.9578,767.3709 404.2488,762.8307 401.1045,758.5803 397.5557,754.6613 393.6372,751.112 389.3871,747.9672 384.8473,745.2577 380.0619,743.0099"/>
    <polygon points="353.5062,718.7565 261.5446,671.6339 260.5557,673.6158"/>
    <line x1="353.5062" x2="261.0502" y1="718.7565" y2="672.6248"/>
    <line x1="261.215" x2="322.8523" y1="672.2945" y2="703.0489"/>
    <line x1="322.5227" x2="260.8854" y1="703.7096" y2="672.9552"/>
    <line x1="260.7205" x2="291.5392" y1="673.2855" y2="688.6627"/>
    <line x1="292.1985" x2="261.3798" y1="687.3414" y2="671.9642"/>
    <polygon points="269.1633,683.6562 151.4372,646.1259 150.263,650.0306"/>
    <line x1="194.2467" x2="151.2237" y1="659.7733" y2="646.8358"/>
    <line x1="151.3305" x2="172.8419" y1="646.4809" y2="652.9496"/>
    <line x1="171.8813" x2="150.3698" y1="656.1443" y2="649.6756"/>
    <line x1="150.4765" x2="193.4995" y1="649.3206" y2="662.2581"/>
    <line x1="145.8804" x2="254.9041" y1="681.6701" y2="560.7158"/>
    <polygon points="206.1689,481.1091 207.9974,480.853 209.2471,480.0562 210.1113,478.8521 210.4659,477.413 210.2604,475.9452 209.524,474.6589 208.3623,473.7385 206.9417,473.3158 205.4658,473.4513 204.146,474.1256 202.9994,475.5728 202.6447,477.0118 202.8503,478.4796 203.5866,479.7659 204.7483,480.6863"/>
    <polygon points="262.8975,447.3735 263.1516,451.8855 264.2767,456.2623 266.2298,460.3376 268.9368,463.9563 272.2946,466.9807 276.1757,469.2959 280.7989,470.9023 285.2794,471.4923 289.7891,471.2015 294.1567,470.0409 298.2159,468.0547 301.8125,465.3183 304.8095,461.936 307.093,458.0362 308.5763,453.7674 309.2027,449.2919 308.9486,444.7799 307.8236,440.4031 305.8705,436.3278 303.1635,432.7091 299.8056,429.6847 295.5821,427.2115 291.3013,425.7631 286.8209,425.1731 282.3111,425.4639 277.9436,426.6245 273.8843,428.6107 270.2878,431.3471 267.2908,434.7294 265.0072,438.6292 263.524,442.898"/>
    <polygon points="133.8031,547.2566 136.2564,551.937 138.9511,556.0383 142.2732,560.1479 145.7186,563.6422 149.7809,567.022 154.1667,569.9698 158.489,572.2934 163.012,574.1971 168.0606,575.7581 173.2421,576.796 178.1253,577.282 183.0325,577.3032 188.2935,576.8061 193.1099,575.8663 197.8156,574.4744 202.3684,572.643 207.0533,570.1982 211.4644,567.2884 215.2751,564.1965 218.7757,560.7574 222.1629,556.7013 225.1187,552.3208 227.4501,548.0028 229.3621,543.4833 230.9323,538.4375 231.9797,533.2579 232.4745,528.3757 232.4877,523.0913 232.0172,518.2066 230.9957,513.0219 229.5781,508.3238 227.5613,503.4394 225.2514,499.1097 222.5418,495.0184 219.2048,490.9209 215.7466,487.4391 211.9742,484.3006 207.9215,481.5335 203.2854,478.9975 198.7694,477.0773 193.7265,475.4979 188.5489,474.441 183.6675,473.9373 178.7604,473.8982 173.4976,474.376 168.311,475.3881 163.6104,476.7972 159.0644,478.6451 154.7138,480.9154 150.5979,483.5876 146.4702,486.8871 142.957,490.3134 139.5551,494.3571 136.7806,498.4048 134.2361,503.0363 132.1772,507.9031 130.7191,512.5888 129.6528,517.7645 129.1401,522.6449 129.1077,527.9292 129.5603,532.8156 130.4738,537.6371 131.9634,542.7072"/>
    <line x1="241.7334" x2="278.2832" y1="774.0326" y2="823.7982"/>
    <line x1="278.5841" x2="260.3092" y1="823.5772" y2="798.6944"/>
    <line x1="258.504" x2="276.7789" y1="800.0202" y2="824.903"/>
    <polygon points="278.885,823.3562 204.5817,724.7089 276.478,825.124"/>
    <line x1="269.2293" x2="269.4866" y1="848.769" y2="850.6561"/>
    <line x1="269.3689" x2="268.8544" y1="852.5943" y2="848.8202"/>
    <line x1="268.4795" x2="269.2513" y1="848.8713" y2="854.5324"/>
    <line x1="269.1336" x2="268.1046" y1="856.4706" y2="848.9224"/>
    <line x1="267.7297" x2="269.0159" y1="848.9735" y2="858.4088"/>
    <line x1="268.8983" x2="267.3548" y1="860.3469" y2="849.0246"/>
    <line x1="266.9799" x2="268.7806" y1="849.0757" y2="862.2851"/>
    <line x1="268.663" x2="266.605" y1="864.2233" y2="849.1268"/>
    <line x1="266.2301" x2="268.5453" y1="849.1779" y2="866.1614"/>
    <line x1="268.4277" x2="265.8552" y1="868.0996" y2="849.229"/>
    <line x1="265.4803" x2="268.31" y1="849.2801" y2="870.0377"/>
    <line x1="268.1924" x2="265.1054" y1="871.9759" y2="849.3312"/>
    <line x1="264.7305" x2="268.0747" y1="849.3823" y2="873.9141"/>
    <line x1="267.3249" x2="263.9807" y1="874.0163" y2="849.4846"/>
    <line x1="264.3556" x2="267.9571" y1="849.4335" y2="875.8522"/>
    <polygon points="267.9571,875.8522 269.6042,848.7179 259.1069,850.149"/>
    <line x1="266.6928" x2="263.6058" y1="872.1803" y2="849.5357"/>
    <line x1="263.2309" x2="266.0606" y1="849.5868" y2="870.3444"/>
    <line x1="265.4284" x2="262.856" y1="868.5084" y2="849.6379"/>
    <line x1="262.4811" x2="264.7963" y1="849.689" y2="866.6725"/>
    <line x1="264.1641" x2="262.1062" y1="864.8365" y2="849.7401"/>
    <line x1="261.7312" x2="263.532" y1="849.7912" y2="863.0006"/>
    <line x1="262.8998" x2="261.3563" y1="861.1647" y2="849.8423"/>
    <line x1="260.9814" x2="262.2677" y1="849.8934" y2="859.3287"/>
    <line x1="261.6355" x2="260.6065" y1="857.4928" y2="849.9445"/>
    <line x1="260.2316" x2="261.0034" y1="849.9956" y2="855.6568"/>
    <line x1="260.3712" x2="259.8567" y1="853.8209" y2="850.0467"/>
    <line x1="259.4818" x2="259.7391" y1="850.0979" y2="851.9849"/>
    <polygon points="331.9363,834.1361 336.1451,836.6567 340.5803,838.7536 345.1992,840.4068 349.9577,841.6003 354.81,842.3229 359.7098,842.5676 364.61,842.3319 369.4637,841.6183 374.2243,840.4334 378.8463,838.7887 383.2853,836.7 387.4988,834.1872 391.4463,831.2744 395.3569,827.7224 398.6346,824.0722 401.5398,820.119 404.0444,815.9007 406.1246,811.4577 407.7604,806.8325 408.936,802.0696 409.6403,797.2146 409.8665,792.3139 409.6124,787.4146 408.8805,782.5637 407.6777,777.8075 406.0156,773.1918 403.9102,768.7607 401.3815,764.5567 398.4539,760.6201 395.1554,756.9887 391.5176,753.6972 387.2605,750.5688 383.0328,748.08 378.582,746.0166 373.9507,744.3983 369.1834,743.2405 364.3258,742.5545 359.4243,742.3468 354.526,742.6194 349.6778,743.3696 344.9262,744.5903 340.3168,746.2697 335.8937,748.3919 331.6992,750.9364 327.7737,753.8788 324.1547,757.191 320.877,760.8411 317.9718,764.7943 315.4672,769.0126 313.387,773.4557 311.7512,778.0808 310.5756,782.8437 309.8713,787.6988 309.6451,792.5994 309.8992,797.4987 310.6311,802.3497 311.8339,807.1058 313.496,811.7215 315.6015,816.1526 318.1301,820.3566 321.0577,824.2932 324.3562,827.9246 327.994,831.2161"/>
    <polygon points="386.9109,833.0724 390.8478,830.1439 394.471,826.8353 397.7441,823.18 400.4261,819.5299 402.9365,815.3142 405.0113,810.8679 406.5219,806.5977 407.7044,801.8358 408.4033,796.9792 408.6116,792.0771 408.3665,787.5543 407.6297,782.7033 406.41,777.9508 404.7198,773.3445 402.5761,768.931 400.2134,765.0666 397.2622,761.1468 393.9326,757.5428 390.5525,754.5278 386.5929,751.6301 382.6967,749.3202 378.2544,747.2368 373.6256,745.6094 369.2276,744.5263 364.3724,743.818 359.4706,743.6002 354.9473,743.8366 350.095,744.564 345.3401,745.7745 340.7305,747.4558 336.3129,749.591 332.4439,751.9462 328.5184,754.8899 324.908,758.2124 321.8865,761.5868 318.9812,765.5407 316.4871,769.7662 314.4295,774.2204 312.8289,778.8587 311.7713,783.2629 311.0912,788.1221 310.9018,793.025 311.1644,797.5469 311.92,802.3949 313.158,807.1427 314.866,811.7424 316.8449,815.8167 319.4043,820.0029 322.3707,823.9112 325.7141,827.5024 329.1059,830.5043 333.0767,833.3866 336.9818,835.6814 341.432,837.7477 346.0672,839.3572 350.4693,840.4233 355.3272,841.1128 359.8522,841.3139 364.7521,841.0578 369.2315,840.3863 373.991,839.1942 378.607,837.5307 382.7002,835.5912"/>
    <polygon points="392.1312,831.2509 395.7406,827.9285 399.0108,824.2719 401.9109,820.3153 404.4138,816.0962 406.4957,811.6542 408.137,807.0313 409.3223,802.271 410.0404,797.4182 410.2846,792.5187 410.0149,787.2429 409.2725,782.3938 408.0633,777.6395 406.3988,773.0249 404.2946,768.5934 401.7707,764.3869 398.8507,760.4449 395.2948,756.5382 391.6443,753.2612 387.6931,750.3536 383.4787,747.8429 379.0406,745.7527 374.4208,744.1028 369.2923,742.8359 364.4355,742.145 359.5347,741.9283 354.6359,742.1879 349.7854,742.9213 345.0289,744.1216 340.4112,745.7775 335.9758,747.8734 331.7645,750.3895 327.8171,753.3021 324.1708,756.5837 320.8598,760.2035 317.9155,764.1273 315.1865,768.6505 313.088,773.0846 311.3205,778.0628 310.153,782.8275 309.453,787.683 309.2271,792.5834 309.4776,797.4826 310.2019,802.3345 311.3933,807.0933 313.1858,812.0626 315.3064,816.4861 317.8461,820.6832 320.7808,824.6142 324.0828,828.2421 328.014,831.771 331.9759,834.6638 336.1997,837.1587 340.6456,839.2323 345.2715,840.865 350.034,842.0414 354.8882,842.7505 359.7882,842.9855 364.6879,842.7442 369.5411,842.0289 374.6632,840.7364 379.6223,838.9161 384.034,836.7707 388.2167,834.2075"/>
    <polygon points="395.9632,828.8894 399.5174,824.9734 402.441,821.0275 405.1524,816.4872 407.2398,812.042 408.8932,807.4177 410.1711,802.2861 410.8794,797.4265 411.1203,792.5215 410.8548,787.2398 410.0475,782.0134 408.8203,777.2583 407.1446,772.6421 405.0357,768.207 402.513,763.9936 399.3597,759.7481 396.0551,756.1155 392.4186,752.815 388.4835,749.8769 383.9532,747.1488 379.5157,745.045 374.536,743.2645 369.7706,742.0779 364.5375,741.3152 359.2538,741.0945 354.351,741.3772 349.4976,742.1269 344.738,743.3366 340.1157,744.9953 335.3398,747.2662 331.1357,749.8045 327.1932,752.7327 323.2813,756.2913 319.9942,759.9399 316.8616,764.2006 314.3592,768.4261 312.2718,772.8713 310.6184,777.4956 309.3405,782.6272 308.6322,787.4868 308.3922,792.7697 308.6568,797.6735 309.3886,802.5296 310.5808,807.2936 312.367,812.2712 314.4759,816.7063 316.9986,820.9197 320.1519,825.1652 323.4565,828.7978 327.3856,832.3376 331.3421,835.2466 335.5584,837.7646 339.9959,839.8683 344.9756,841.6488 349.741,842.8354 354.9741,843.5982 360.2578,843.8188 365.1606,843.5361 370.014,842.7865 374.7736,841.5768 379.7446,839.7723 384.1718,837.6471 388.3759,835.1088 392.3184,832.1807"/>
    <polygon points="411.9554,792.1757 411.698,787.272 410.981,782.4142 409.7022,777.2834 407.9109,772.3083 405.6255,767.5399 402.8693,763.0271 399.9133,759.1062 396.6018,755.4804 392.672,751.9425 388.4043,748.8203 384.1773,746.3214 379.7342,744.2308 374.7528,742.457 369.6175,741.1963 364.7572,740.4965 359.8527,740.2564 354.5712,740.5145 349.7134,741.2314 344.5825,742.5102 339.6074,744.3015 334.839,746.587 330.3263,749.3431 326.4054,752.2992 322.7796,755.6106 319.2416,759.5405 316.1194,763.8081 313.6205,768.0351 311.3866,772.8279 309.7562,777.4597 308.4955,782.595 307.7956,787.4553 307.5562,792.7377 307.8136,797.6413 308.6046,802.8696 309.8094,807.6299 311.6007,812.6051 313.707,817.0408 316.4304,821.5733 319.358,825.5155 322.9098,829.4329 326.5472,832.7315 330.7922,835.8845 335.3343,838.5919 339.7774,840.6825 344.7588,842.4563 349.8942,843.717 354.7544,844.4168 359.6589,844.6569 364.9404,844.3989 369.7982,843.6819 374.9291,842.4031 379.5551,840.7564 384.3399,838.5055 388.8725,835.7821 393.1062,832.6141 396.732,829.3027 400.27,825.3728 403.1837,821.4203 405.8911,816.8782 408.125,812.0855 409.7554,807.4536 410.9434,802.6891 411.716,797.458"/>
    <polygon points="407.2378,782.8732 406.135,778.4799 404.6266,774.2087 402.5503,769.7628 400.0348,765.5498 397.3453,761.905 394.0616,758.2589 390.4259,754.9637 386.4754,752.0532 382.5845,749.734 378.1452,747.6436 373.8788,746.1218 369.1187,744.9307 364.6384,744.2639 360.1154,744.0186 355.2132,744.2307 350.3575,744.9377 345.5983,746.1323 341.3331,747.6573 336.8953,749.751 333.0061,752.0731 329.0579,754.9865 325.4246,758.2844 322.1436,761.933 319.2485,765.8947 316.9445,769.7946 314.8714,774.2421 313.3663,778.5143 312.1937,783.279 311.5444,787.7619 311.3168,792.6635 311.5479,797.1872 312.2738,802.0401 313.487,806.7946 315.0286,811.0539 317.1395,815.4834 319.6878,819.6767 322.4056,823.3004 325.45,826.6544 329.0857,829.9496 333.0362,832.8601 336.9271,835.1793 341.0176,837.125 345.6328,838.7915 350.3929,839.9826 354.8732,840.6494 359.7738,840.8961 364.6743,840.6457 369.1541,839.9756 373.9133,838.781 378.1785,837.256 382.6163,835.1624 386.8194,832.6305 390.4537,829.9268 394.087,826.6289 397.129,823.2726 400.0548,819.3336 402.5671,815.1187 404.6402,810.6713 406.1453,806.399 407.3179,801.6343 407.9672,797.1514 408.1949,792.6275 407.9637,787.7261"/>
    <polygon points="413.3431,752.8273 426.9635,751.731 416.9949,742.3852"/>
    <line x1="413.469" x2="414.2824" y1="752.4672" y2="752.7517"/>
    <line x1="413.5949" x2="415.2218" y1="752.1071" y2="752.6761"/>
    <line x1="416.1611" x2="413.7209" y1="752.6004" y2="751.7471"/>
    <line x1="413.8468" x2="417.1004" y1="751.387" y2="752.5248"/>
    <line x1="418.0398" x2="413.9727" y1="752.4492" y2="751.0269"/>
    <line x1="414.0986" x2="418.9791" y1="750.6668" y2="752.3736"/>
    <line x1="419.9184" x2="414.2245" y1="752.298" y2="750.3068"/>
    <line x1="414.3505" x2="420.8578" y1="749.9467" y2="752.2224"/>
    <line x1="421.7971" x2="414.4764" y1="752.1468" y2="749.5866"/>
    <line x1="414.6023" x2="422.7365" y1="749.2266" y2="752.0712"/>
    <line x1="423.6758" x2="414.7282" y1="751.9956" y2="748.8665"/>
    <line x1="414.8542" x2="424.6151" y1="748.5064" y2="751.92"/>
    <line x1="425.5545" x2="414.9801" y1="751.8444" y2="748.1463"/>
    <line x1="415.106" x2="426.4938" y1="747.7863" y2="751.7688"/>
    <line x1="426.6197" x2="415.2319" y1="751.4087" y2="747.4262"/>
    <line x1="415.3579" x2="425.9322" y1="747.0661" y2="750.7642"/>
    <line x1="425.2447" x2="415.4838" y1="750.1196" y2="746.7061"/>
    <line x1="415.6097" x2="424.5573" y1="746.346" y2="749.4751"/>
    <line x1="423.8698" x2="415.7356" y1="748.8306" y2="745.9859"/>
    <line x1="415.8615" x2="423.1823" y1="745.6258" y2="748.186"/>
    <line x1="422.4948" x2="415.9875" y1="747.5415" y2="745.2658"/>
    <line x1="416.1134" x2="421.8073" y1="744.9057" y2="746.897"/>
    <line x1="421.1198" x2="416.2393" y1="746.2524" y2="744.5456"/>
    <line x1="416.3652" x2="420.4323" y1="744.1856" y2="745.6079"/>
    <line x1="419.7448" x2="416.4912" y1="744.9634" y2="743.8255"/>
    <line x1="416.6171" x2="419.0573" y1="743.4654" y2="744.3188"/>
    <line x1="418.3698" x2="416.743" y1="743.6743" y2="743.1054"/>
    <line x1="416.8689" x2="417.6823" y1="742.7453" y2="743.0297"/>
    <line x1="408.6447" x2="408.5147" y1="720.879" y2="720.3316"/>
    <line x1="408.0182" x2="408.2782" y1="719.8713" y2="720.966"/>
    <line x1="407.9117" x2="407.5217" y1="721.0531" y2="719.411"/>
    <line x1="407.0252" x2="407.5452" y1="718.9507" y2="721.1401"/>
    <line x1="407.1787" x2="406.5287" y1="721.2271" y2="718.4904"/>
    <line x1="406.0322" x2="406.8122" y1="718.0301" y2="721.3142"/>
    <line x1="406.4457" x2="405.5357" y1="721.4012" y2="717.5698"/>
    <line x1="405.0392" x2="406.0792" y1="717.1095" y2="721.4883"/>
    <line x1="405.7127" x2="404.5427" y1="721.5753" y2="716.6492"/>
    <line x1="404.0462" x2="405.3462" y1="716.1889" y2="721.6624"/>
    <line x1="404.9797" x2="403.5497" y1="721.7494" y2="715.7286"/>
    <line x1="403.1832" x2="404.6132" y1="715.8157" y2="721.8365"/>
    <line x1="404.2467" x2="402.9467" y1="721.9235" y2="716.4501"/>
    <line x1="402.7102" x2="403.8802" y1="717.0844" y2="722.0106"/>
    <line x1="403.5137" x2="402.4737" y1="722.0976" y2="717.7188"/>
    <line x1="402.2372" x2="403.1472" y1="718.3532" y2="722.1847"/>
    <line x1="402.7807" x2="402.0007" y1="722.2717" y2="718.9876"/>
    <line x1="401.7642" x2="402.4142" y1="719.622" y2="722.3588"/>
    <line x1="402.0477" x2="401.5277" y1="722.4458" y2="720.2564"/>
    <line x1="401.2912" x2="401.6812" y1="720.8908" y2="722.5328"/>
    <line x1="401.3147" x2="401.0547" y1="722.6199" y2="721.5252"/>
    <line x1="400.8182" x2="400.9482" y1="722.1596" y2="722.7069"/>
    <polygon points="400.5817,722.794 409.0112,720.7919 403.3015,715.4985"/>
    <line x1="430.7238" x2="444.2765" y1="691.4247" y2="704.6174"/>
    <line x1="444.5253" x2="417.4199" y1="704.3617" y2="677.9765"/>
    <line x1="418.4153" x2="445.5207" y1="676.9539" y2="703.3392"/>
    <line x1="445.7695" x2="432.2168" y1="703.0836" y2="689.8909"/>
    <line x1="445.2719" x2="404.6138" y1="703.5948" y2="664.0169"/>
    <line x1="404.1161" x2="444.7742" y1="664.5282" y2="704.1061"/>
    <line x1="445.023" x2="390.8122" y1="703.8505" y2="651.0799"/>
    <polygon points="390.8122,651.0799 444.0276,704.873 446.0184,702.8279"/>
    <polygon points="475.0036,661.7302 502.0134,661.1243 476.2866,652.8762"/>
    <line x1="475.057" x2="477.2544" y1="661.3613" y2="661.6797"/>
    <line x1="479.5052" x2="475.1105" y1="661.6292" y2="660.9923"/>
    <line x1="475.1639" x2="481.756" y1="660.6234" y2="661.5787"/>
    <line x1="484.0068" x2="475.2174" y1="661.5282" y2="660.2545"/>
    <line x1="475.2709" x2="486.2577" y1="659.8856" y2="661.4777"/>
    <line x1="488.5085" x2="475.3243" y1="661.4272" y2="659.5167"/>
    <line x1="475.3778" x2="490.7593" y1="659.1478" y2="661.3767"/>
    <line x1="493.0101" x2="475.4312" y1="661.3262" y2="658.7789"/>
    <line x1="475.4847" x2="495.2609" y1="658.41" y2="661.2757"/>
    <line x1="495.5817" x2="475.8054" y1="659.0622" y2="656.1965"/>
    <line x1="475.752" x2="497.7256" y1="656.5654" y2="659.7496"/>
    <line x1="497.5118" x2="475.5381" y1="661.2252" y2="658.041"/>
    <line x1="475.5916" x2="499.7626" y1="657.6721" y2="661.1747"/>
    <line x1="499.8695" x2="475.6985" y1="660.4369" y2="656.9343"/>
    <line x1="475.6451" x2="502.0134" y1="657.3032" y2="661.1243"/>
    <line x1="493.4378" x2="475.8589" y1="658.3749" y2="655.8276"/>
    <line x1="475.9124" x2="491.2939" y1="655.4586" y2="657.6876"/>
    <line x1="489.15" x2="475.9658" y1="657.0002" y2="655.0897"/>
    <line x1="476.0193" x2="487.0061" y1="654.7208" y2="656.3129"/>
    <line x1="484.8622" x2="476.0727" y1="655.6256" y2="654.3519"/>
    <line x1="476.1262" x2="482.7183" y1="653.983" y2="654.9382"/>
    <line x1="480.5744" x2="476.1797" y1="654.2509" y2="653.6141"/>
    <line x1="476.2331" x2="478.4305" y1="653.2452" y2="653.5636"/>
    <polygon points="521.1668,702.6754 510.368,714.8853 525.7622,709.5267"/>
    <line x1="521.3757" x2="520.1851" y1="702.9869" y2="703.7854"/>
    <line x1="519.2034" x2="521.5846" y1="704.8954" y2="703.2983"/>
    <line x1="521.7935" x2="518.2217" y1="703.6097" y2="706.0054"/>
    <line x1="517.24" x2="522.0024" y1="707.1154" y2="703.9211"/>
    <line x1="522.2112" x2="516.2583" y1="704.2325" y2="708.2254"/>
    <line x1="515.2766" x2="522.4201" y1="709.3353" y2="704.544"/>
    <line x1="522.629" x2="514.2948" y1="704.8554" y2="710.4453"/>
    <line x1="513.3131" x2="522.8379" y1="711.5553" y2="705.1668"/>
    <line x1="523.0467" x2="512.3314" y1="705.4782" y2="712.6653"/>
    <line x1="511.3497" x2="523.2556" y1="713.7753" y2="705.7896"/>
    <line x1="523.4645" x2="510.368" y1="706.1011" y2="714.8853"/>
    <line x1="511.7675" x2="523.6734" y1="714.3981" y2="706.4125"/>
    <line x1="523.8823" x2="513.1669" y1="706.7239" y2="713.911"/>
    <line x1="514.5664" x2="524.0911" y1="713.4238" y2="707.0353"/>
    <line x1="524.3" x2="515.9659" y1="707.3467" y2="712.9367"/>
    <line x1="517.3653" x2="524.5089" y1="712.4495" y2="707.6581"/>
    <line x1="524.7178" x2="518.7648" y1="707.9696" y2="711.9624"/>
    <line x1="520.1643" x2="524.9266" y1="711.4752" y2="708.281"/>
    <line x1="525.1355" x2="521.5637" y1="708.5924" y2="710.9881"/>
    <line x1="522.9632" x2="525.3444" y1="710.501" y2="708.9038"/>
    <line x1="525.5533" x2="524.3627" y1="709.2152" y2="710.0138"/>
    <line x1="474.6591" x2="460.0982" y1="742.4102" y2="739.597"/>
    <line x1="460.1696" x2="473.5171" y1="739.2271" y2="741.8058"/>
    <line x1="473.3027" x2="459.9552" y1="742.9157" y2="740.3369"/>
    <line x1="460.0267" x2="474.5876" y1="739.967" y2="742.7801"/>
    <line x1="472.0178" x2="459.8837" y1="743.0512" y2="740.7069"/>
    <line x1="459.8123" x2="470.7329" y1="741.0768" y2="743.1867"/>
    <line x1="469.4481" x2="459.7408" y1="743.3222" y2="741.4468"/>
    <line x1="459.6693" x2="468.1632" y1="741.8167" y2="743.4578"/>
    <line x1="466.8783" x2="459.5978" y1="743.5933" y2="742.1867"/>
    <line x1="459.5264" x2="465.5934" y1="742.5566" y2="743.7288"/>
    <line x1="464.3085" x2="459.4549" y1="743.8643" y2="742.9266"/>
    <line x1="459.3834" x2="463.0236" y1="743.2965" y2="743.9998"/>
    <line x1="461.7387" x2="459.3119" y1="744.1354" y2="743.6665"/>
    <line x1="459.2405" x2="460.4539" y1="744.0365" y2="744.2709"/>
    <polygon points="459.169,744.4064 475.23,742.7124 460.9559,735.1576"/>
    <line x1="460.2411" x2="472.3752" y1="738.8571" y2="741.2014"/>
    <line x1="471.2333" x2="460.3126" y1="740.597" y2="738.4872"/>
    <line x1="460.3841" x2="470.0913" y1="738.1172" y2="739.9927"/>
    <line x1="468.9494" x2="460.4555" y1="739.3883" y2="737.7472"/>
    <line x1="460.527" x2="467.8075" y1="737.3773" y2="738.7839"/>
    <line x1="466.6655" x2="460.5985" y1="738.1795" y2="737.0073"/>
    <line x1="460.67" x2="465.5236" y1="736.6374" y2="737.5751"/>
    <line x1="464.3817" x2="460.7414" y1="736.9707" y2="736.2674"/>
    <line x1="460.8129" x2="463.2397" y1="735.8975" y2="736.3663"/>
    <line x1="462.0978" x2="460.8844" y1="735.762" y2="735.5275"/>
    <polygon points="457.504,793.6353 458.0343,797.7435 459.4803,802.0234 461.55,805.6115 464.2566,808.7472 467.5037,811.3192 471.1758,813.2359 475.5129,814.5001 480.0168,814.8504 484.1294,814.3553 488.0759,813.0971 492.0273,810.9073 495.1861,808.2278 497.7859,805.0029 499.8762,800.998 501.0354,797.0213 501.4274,792.8976 500.9646,788.4038 499.5924,784.0997 497.5845,780.4767 494.6622,777.0316 491.4151,774.4596 487.743,772.543 483.4059,771.2787 478.902,770.9284 474.7894,771.4235 470.8429,772.6817 466.8915,774.8715 463.7326,777.5511 460.9277,781.0923 458.9064,785.1325 457.8157,789.1285"/>
    <polygon points="566.8208,814.9281 568.9315,813.3422 570.6974,811.3794 572.0523,809.1134 572.9455,806.629 573.3437,804.019 573.2318,801.3812 572.6142,798.8143 571.5139,796.4143 569.7189,793.9907 567.744,792.2385 565.4687,790.8993 562.9781,790.0233 560.3654,789.6432 557.3556,789.8334 554.8115,790.5395 552.4511,791.7222 550.3625,793.3372 548.624,795.3242 547.3006,797.6087 546.4418,800.1053 546.0798,802.7206 546.2281,805.3566 546.8812,807.9147 548.0146,810.2992 549.586,812.4208 551.5364,814.2002 554.1355,815.73 556.638,816.5715 559.2557,816.9154 561.8906,816.7488 564.4442,816.078"/>
    <line x1="563.3662" x2="550.2535" y1="874.3854" y2="882.8371"/>
    <line x1="550.0451" x2="562.1492" y1="882.5138" y2="874.7123"/>
    <line x1="562.7743" x2="550.6702" y1="875.6821" y2="883.4837"/>
    <line x1="550.4618" x2="563.5746" y1="883.1604" y2="874.7087"/>
    <line x1="561.974" x2="550.8786" y1="876.6555" y2="883.8069"/>
    <line x1="551.0869" x2="561.1737" y1="884.1302" y2="877.6289"/>
    <line x1="560.3733" x2="551.2953" y1="878.6023" y2="884.4535"/>
    <line x1="551.5037" x2="559.573" y1="884.7768" y2="879.5757"/>
    <line x1="558.7727" x2="551.712" y1="880.5492" y2="885.1001"/>
    <line x1="551.9204" x2="557.9724" y1="885.4233" y2="881.5226"/>
    <line x1="557.1721" x2="552.1288" y1="882.496" y2="885.7466"/>
    <line x1="552.3371" x2="556.3718" y1="886.0699" y2="883.4694"/>
    <line x1="555.5715" x2="552.5455" y1="884.4428" y2="886.3932"/>
    <line x1="552.7539" x2="554.7712" y1="886.7165" y2="885.4162"/>
    <line x1="553.9709" x2="552.9622" y1="886.3896" y2="887.0397"/>
    <line x1="549.8367" x2="560.9321" y1="882.1905" y2="875.0391"/>
    <line x1="559.7151" x2="549.6284" y1="875.366" y2="881.8673"/>
    <line x1="549.42" x2="558.4981" y1="881.544" y2="875.6928"/>
    <line x1="557.281" x2="549.2116" y1="876.0197" y2="881.2207"/>
    <line x1="549.0033" x2="556.064" y1="880.8974" y2="876.3465"/>
    <line x1="554.8469" x2="548.7949" y1="876.6734" y2="880.5741"/>
    <line x1="548.5865" x2="553.6299" y1="880.2509" y2="877.0002"/>
    <line x1="552.4129" x2="548.3782" y1="877.3271" y2="879.9276"/>
    <line x1="548.1698" x2="551.1958" y1="879.6043" y2="877.6539"/>
    <line x1="549.9788" x2="547.9614" y1="877.9808" y2="879.281"/>
    <line x1="547.7531" x2="548.7617" y1="878.9577" y2="878.3076"/>
    <polygon points="547.5447,878.6345 553.1706,887.363 563.9747,874.222"/>
    <line x1="591.2576" x2="590.224" y1="704.7084" y2="704.408"/>
    <line x1="590.3252" x2="592.3924" y1="704.0597" y2="704.6605"/>
    <line x1="593.5272" x2="590.4265" y1="704.6126" y2="703.7114"/>
    <line x1="590.5277" x2="594.662" y1="703.3631" y2="704.5647"/>
    <line x1="595.7968" x2="590.629" y1="704.5169" y2="703.0148"/>
    <line x1="590.7302" x2="596.9316" y1="702.6664" y2="704.469"/>
    <polygon points="596.9316,704.469 591.3377,700.5766 590.1228,704.7563"/>
    <line x1="595.9993" x2="590.8315" y1="703.8202" y2="702.3181"/>
    <line x1="590.9327" x2="595.0669" y1="701.9698" y2="703.1715"/>
    <line x1="594.1346" x2="591.0339" y1="702.5228" y2="701.6215"/>
    <line x1="591.1352" x2="593.2023" y1="701.2732" y2="701.874"/>
    <line x1="592.27" x2="591.2364" y1="701.2253" y2="700.9249"/>
    <polygon points="445.5617,516.8647 447.9773,521.1885 596.7546,435.2309"/>
    <polygon points="339.8615,744.6483 335.0894,746.9266 330.8874,749.4679 326.6536,752.6363 323.0304,755.9509 319.4988,759.8868 316.387,764.1624 313.9018,768.3978 311.6872,773.1998 310.0792,777.8397 308.918,782.6111 308.1789,787.8473 307.9742,792.7537 308.2352,797.6574 308.9595,802.5144 310.2501,807.6425 311.9112,812.2637 314.1808,817.04 316.9256,821.5599 319.8751,825.4862 323.1831,829.1154 327.1126,832.6542 331.3825,835.7738 335.6133,838.2667 340.4113,840.4901 345.0483,842.1065 350.1886,843.3476 355.0524,844.025 359.9584,844.2387 365.2385,843.948 370.0914,843.1971 375.2124,841.8785 379.8244,840.1921 384.256,838.0764 388.4672,835.5505 392.7125,832.3976 396.3477,829.0961 399.8937,825.1731 402.8123,821.2239 405.5217,816.6827 407.6108,812.2385 409.2694,807.6165 410.4828,802.8581 411.2791,797.6303 411.5375,792.7264 411.295,787.4439 410.5885,782.5844 409.3165,777.4515 407.6723,772.8243 405.4202,768.0398 402.6919,763.5099 399.7568,759.5729 396.1945,755.6647 392.5455,752.3785 388.6016,749.4527 384.0653,746.735 379.6249,744.6379 374.6444,742.8608 369.5086,741.6009 364.6474,740.9058 359.3643,740.6757 354.4611,740.9456 349.6054,741.6788 344.4796,742.9788"/>
    <polygon points="324.6569,757.8719 321.3915,761.5338 318.7142,765.187 316.2058,769.4036 314.1291,773.8488 312.6133,778.1169 311.421,782.8761 310.7078,787.7303 310.4809,792.6314 310.7426,797.5308 311.4901,802.3799 312.7162,807.1305 314.2623,811.3877 316.3704,815.818 318.9087,820.0168 321.852,823.9423 325.171,827.5556 328.5399,830.5829 332.4862,833.4982 336.7028,836.0067 341.148,838.0833 345.416,839.5991 350.1752,840.7915 355.0295,841.5046 359.9306,841.7315 364.8299,841.4699 369.679,840.7223 374.4297,839.4962 379.0349,837.8038 383.4489,835.6617 387.3159,833.3037 391.2414,830.3605 394.8547,827.0414 397.882,823.6726 400.7974,819.7263 403.3058,815.5097 405.3825,811.0645 406.8983,806.7965 408.0906,802.0372 408.8038,797.183 409.0306,792.6594 408.8065,787.7582 408.0961,782.9036 406.9064,778.1436 405.2493,773.5256 403.1412,769.0953 400.6029,764.8965 397.6596,760.9711 394.3406,757.3577 390.6787,754.0924 387.0255,751.4151 382.8088,748.9067 378.7127,746.9739 374.0956,745.3142 369.3364,744.1218 364.4821,743.4087 359.581,743.1818 354.6817,743.4434 350.2027,744.1164 345.4428,745.306 340.8248,746.9632 336.3944,749.0713 332.1957,751.6096 328.2702,754.5528"/>
    <polygon points="315.9251,769.0415 313.8298,773.4776 312.1822,778.0988 310.9982,782.8599 310.327,787.3389 310.0632,792.2379 310.2838,797.139 310.9867,801.9945 312.1649,806.7571 313.8069,811.3802 315.8969,815.8189 318.4143,820.0299 321.3347,823.9721 324.6297,827.6071 328.267,830.8995 332.2112,833.8172 336.4239,836.3317 340.864,838.4186 345.4883,840.0575 350.2517,841.2324 355.1077,841.9319 360.009,842.1491 364.9078,841.8819 369.7564,841.133 374.5075,839.9097 379.1149,838.2238 383.5335,836.0917 387.4075,833.7457 391.3441,830.8178 394.9729,827.516 398.2584,823.8724 401.1686,819.9227 403.6751,815.7052 405.7536,811.2611 407.3836,806.6337 408.4766,802.2386 409.2037,797.3866 409.4488,792.4867 409.2096,787.5864 408.4884,782.7336 407.2921,777.9756 405.6325,773.3587 403.5257,768.928 400.9922,764.7266 398.0569,760.7955 395.0152,757.4399 391.3905,754.1337 387.4573,751.2011 383.2542,748.6705 378.822,746.5668 374.204,744.9104 369.4452,743.7174 364.5919,742.9995 359.6914,742.7636 354.7916,743.0122 349.9402,743.7427 345.1845,744.948 340.9196,746.4719 336.4769,748.5534 332.2612,751.0629 328.3134,753.9758 324.6721,757.2638 321.3728,760.8949 318.4477,764.8335"/>
  </g>
</svg>
