<?xml version="1.0" encoding="utf-8" ?>
<svg xmlns="http://www.w3.org/2000/svg" xmlns:cc="http://creativecommons.org/ns" xmlns:dc="http://purl.org/dc/elements/1.1/" xmlns:ev="http://www.w3.org/2001/xml-events" xmlns:inkscape="http://www.inkscape.org/namespaces/inkscape" xmlns:rdf="http://www.w3.org/1999/02/22-rdf-syntax-ns" xmlns:sodipodi="http://sodipodi.sourceforge.net/DTD/sodipodi-0.dtd" xmlns:xlink="http://www.w3.org/1999/xlink" baseProfile="tiny" height="29.7cm" version="1.2" viewBox="0 0 793.7007874015749 1122.5196850393702" width="21.0cm">
  <metadata>
    <rdf:RDF>
      <cc:Work>
        <dc:format>image/svg+xml</dc:format>
        <dc:source>vsk save -s 65 -c C:\Users\marti\Documents\git\putti-plotter-plot\sixfeet\config\1.json C:\Users\marti\Documents\git\putti-plotter-plot\sixfeet\sketch_sixfeet.py</dc:source>
        <dc:date>2023-11-19T17:46:34.670463</dc:date>
      </cc:Work>
    </rdf:RDF>
  </metadata>
  <defs/>
  <g fill="none" id="layer1" inkscape:groupmode="layer" inkscape:label="1" stroke="#0000ff" style="display:inline">
    <polygon points="480.9853,810.3288 479.1747,807.0186 476.8297,803.5945 471.7026,798.0693 468.4632,795.4753 465.2973,793.4226 458.4535,790.2637 451.1356,788.4571 447.0041,788.0656 443.2311,788.0863 435.7762,789.1999 432.1618,790.2828 428.3251,791.8646 424.6747,793.8388 421.5515,795.9559 418.6438,798.3603 415.7254,801.3108 411.2703,807.391 409.4961,810.7209 407.9198,814.5599 406.1132,821.8778 405.7394,825.6323 405.7424,829.7824 406.1792,833.9094 406.9488,837.6031 409.5207,844.6884 411.2997,848.0157 413.612,851.462 416.0163,854.3697 418.9669,857.2881 425.047,861.7432 428.7189,863.6772 432.216,865.0936 439.5339,866.9002 443.2884,867.2741 447.4385,867.2711 451.1924,866.8918 455.2592,866.0647 462.3445,863.4928 465.6718,861.7138 469.118,859.4015 472.0258,856.9971 474.9442,854.0465 477.5382,850.8071 479.5908,847.6412 481.3333,844.2946 482.8729,840.4407 484.0013,836.447 484.6597,832.7318 484.9053,825.1982 483.7208,817.7542 482.4731,813.7962"/>
    <line x1="414.5851" x2="411.4642" y1="758.6699" y2="401.4321"/>
    <line x1="397.8022" x2="365.2111" y1="396.6438" y2="458.1889"/>
    <line x1="365.552" x2="387.2794" y1="458.3694" y2="417.3394"/>
    <line x1="383.5292" x2="361.8018" y1="415.3534" y2="456.3835"/>
    <line x1="361.4609" x2="372.3246" y1="456.2029" y2="435.6879"/>
    <polygon points="372.0392,439.7637 363.1322,443.3622 365.5121,446.8122"/>
    <line x1="371.2294" x2="364.214" y1="440.0908" y2="444.9304"/>
    <line x1="363.9976" x2="369.61" y1="444.6168" y2="440.7451"/>
    <line x1="370.2591" x2="364.6467" y1="441.686" y2="445.5576"/>
    <line x1="364.4303" x2="371.4458" y1="445.244" y2="440.4044"/>
    <line x1="369.0723" x2="364.863" y1="442.9675" y2="445.8713"/>
    <line x1="365.0794" x2="367.8856" y1="446.1849" y2="444.2491"/>
    <line x1="366.6988" x2="365.2958" y1="445.5306" y2="446.4985"/>
    <line x1="363.7813" x2="367.9905" y1="444.3031" y2="441.3994"/>
    <line x1="366.3711" x2="363.5649" y1="442.0537" y2="443.9895"/>
    <line x1="363.3485" x2="364.7516" y1="443.6759" y2="442.7079"/>
    <line x1="376.7566" x2="365.8929" y1="438.0349" y2="458.5499"/>
    <line x1="364.8701" x2="408.3249" y1="458.0083" y2="375.9482"/>
    <line x1="405.9384" x2="362.4836" y1="374.6845" y2="456.7446"/>
    <line x1="362.1427" x2="394.7338" y1="456.564" y2="395.019"/>
    <polygon points="382.0024,424.7575 378.6964,425.3964 375.8766,427.2366 373.9607,430.0056 373.2326,433.2932 373.8002,436.6122 375.5793,439.4709 377.0006,440.6997 378.6515,441.5966 381.9539,442.2537 385.2599,441.6149 388.0798,439.7746 389.9956,437.0056 390.7237,433.7181 390.1561,430.3991 388.377,427.5403 386.9557,426.3116 385.3048,425.4147"/>
    <line x1="364.5292" x2="418.8477" y1="457.8278" y2="355.2527"/>
    <line x1="417.1431" x2="362.8246" y1="354.35" y2="456.9251"/>
    <line x1="363.1655" x2="428.3477" y1="457.1056" y2="334.0155"/>
    <line x1="429.3705" x2="364.1883" y1="334.5571" y2="457.6472"/>
    <line x1="363.8474" x2="439.8932" y1="457.4667" y2="313.8616"/>
    <line x1="439.5523" x2="363.5064" y1="313.681" y2="457.2862"/>
    <line x1="313.7031" x2="475.9984" y1="461.5101" y2="199.3883"/>
    <line x1="437.0337" x2="419.5048" y1="271.2806" y2="293.685"/>
    <line x1="421.9757" x2="439.5046" y1="295.6183" y2="273.2138"/>
    <line x1="439.1957" x2="404.138" y1="272.9721" y2="317.7811"/>
    <line x1="402.2848" x2="437.3425" y1="316.3312" y2="271.5222"/>
    <line x1="437.6514" x2="385.0648" y1="271.7639" y2="338.9773"/>
    <line x1="386.3002" x2="438.8869" y1="339.9439" y2="272.7305"/>
    <line x1="438.578" x2="368.4625" y1="272.4888" y2="362.1068"/>
    <line x1="367.8447" x2="437.9603" y1="361.6235" y2="272.0055"/>
    <line x1="438.2691" x2="350.6247" y1="272.2472" y2="384.2696"/>
    <polygon points="350.6247,384.2696 439.8135,273.4554 436.7248,271.0389"/>
    <line x1="372.7431" x2="502.0416" y1="313.0506" y2="359.6073"/>
    <line x1="502.1651" x2="340.5419" y1="359.2645" y2="301.0686"/>
    <line x1="372.99" x2="502.2885" y1="312.3649" y2="358.9216"/>
    <line x1="502.412" x2="405.4381" y1="358.5788" y2="323.6613"/>
    <line x1="404.9443" x2="501.9182" y1="325.0327" y2="359.9502"/>
    <line x1="501.7947" x2="437.1455" y1="360.293" y2="337.0147"/>
    <line x1="437.8862" x2="502.5354" y1="334.9576" y2="358.2359"/>
    <line x1="502.6589" x2="470.3342" y1="357.8931" y2="346.2539"/>
    <line x1="469.3466" x2="501.6713" y1="348.9967" y2="360.6359"/>
    <polygon points="502.7823,357.5502 340.5419,301.0686 501.5478,360.9787"/>
    <line x1="503.1166" x2="443.5995" y1="385.1429" y2="340.8572"/>
    <line x1="443.8292" x2="473.5877" y1="340.5485" y2="362.6914"/>
    <line x1="471.98" x2="442.2215" y1="364.8521" y2="342.7093"/>
    <line x1="442.4511" x2="501.9682" y1="342.4006" y2="386.6863"/>
    <polygon points="480.3866,404.2385 567.3655,481.9732 569.4252,479.6051"/>
    <line x1="480.3866" x2="568.3953" y1="404.2385" y2="480.7892"/>
    <line x1="568.6528" x2="502.6462" y1="480.4932" y2="423.0801"/>
    <line x1="502.1313" x2="568.1379" y1="423.6722" y2="481.0852"/>
    <line x1="567.8804" x2="523.876" y1="481.3812" y2="443.1058"/>
    <line x1="524.9059" x2="568.9103" y1="441.9218" y2="480.1972"/>
    <line x1="569.1678" x2="547.1656" y1="479.9012" y2="460.7635"/>
    <line x1="545.6207" x2="567.6229" y1="462.5395" y2="481.6772"/>
    <polygon points="576.9387,441.2716 444.0589,340.2399 441.9918,343.0179"/>
    <polygon points="574.5001,429.1723 579.6309,430.4399 584.8648,431.1739 589.7688,431.3708 594.6691,431.099 599.5212,430.361 604.2808,429.1635 609.2532,427.3727 613.6833,425.2606 618.2052,422.5248 622.1321,419.5808 626.026,416.0073 629.2955,412.347 632.201,408.3916 634.8925,403.8432 636.9613,399.3926 638.5961,394.765 639.782,390.0025 640.5082,385.1487 640.7688,379.87 640.524,374.9682 639.7388,369.7418 638.5326,364.9844 636.8781,360.3638 634.7904,355.9221 632.0796,351.3852 629.1573,347.4422 625.8722,343.7958 622.2543,340.4795 618.0237,337.3118 613.4902,334.5952 609.0511,332.5019 604.4326,330.8417 599.3065,329.5552 594.0753,328.8019 589.1721,328.587 584.2708,328.8408 579.4161,329.561 574.6521,330.741 570.0225,332.37 565.2353,334.6094 561.0176,337.119 557.0585,340.0195 553.1254,343.5499 549.8157,347.1739 546.6558,351.4102 544.1254,355.6155 541.8624,360.3916 540.102,365.3749 538.9336,370.1417 538.2252,374.9982 537.9833,379.9001 538.21,384.8027 538.9759,390.0321 540.2749,395.155 541.9463,399.7695 544.0503,404.2035 546.5677,408.4166 549.7146,412.6627 553.0131,416.2969 556.9352,419.8394 560.8853,422.7522 565.0952,425.2748 569.8755,427.529"/>
    <line x1="562.1742" x2="443.1402" y1="430.0459" y2="341.4746"/>
    <line x1="443.3699" x2="532.6454" y1="341.1659" y2="407.5944"/>
    <line x1="531.9564" x2="442.6808" y1="408.5204" y2="342.0919"/>
    <line x1="442.9105" x2="561.9446" y1="341.7832" y2="430.3546"/>
    <polygon points="558.5301,426.473 563.069,429.1838 568.1932,431.5974 573.1738,433.3705 578.6704,434.7381 584.2773,435.5414 589.5589,435.7745 594.839,435.5067 600.4405,434.6667 605.5668,433.374 610.8969,431.4574 615.6725,429.1894 620.5262,426.2697 624.7676,423.1136 628.9584,419.3032 632.7413,415.0875 635.8695,410.8254 638.5803,406.2865 640.9939,401.1623 642.7671,396.1817 644.1347,390.6851 644.9379,385.0782 645.1711,379.7966 644.865,374.1407 644.0633,368.915 642.7706,363.7887 640.8539,358.4586 638.4068,353.3504 635.6663,348.8293 632.2696,344.2967 628.6997,340.3971 624.7768,336.8529 620.222,333.486 615.683,330.7752 610.5589,328.3616 605.2164,326.4799 600.0817,325.2208 594.8509,324.4534 589.1931,324.1844 583.5372,324.4905 578.3116,325.2922 572.8241,326.6958 567.8552,328.5016 563.0796,330.7696 558.2259,333.6892 553.9845,336.8453 549.7936,340.6558 546.2494,344.5787 542.8825,349.1335 539.9948,354.0062 537.7581,358.7966 535.8765,364.1391 534.6174,369.2738 533.8141,374.8807 533.581,380.1624 533.887,385.8183 534.6888,391.0439 536.0923,396.5314 537.8981,401.5003 540.1661,406.2759 543.0858,411.1296 546.2419,415.371 550.0523,419.5619 554.268,423.3448"/>
    <polygon points="559.8576,424.4719 564.4025,427.1731 569.1923,429.4116 573.8181,431.0566 578.9458,432.3448 584.1757,433.1196 589.4566,433.3734 594.7367,433.1037 599.9643,432.3131 605.088,431.0094 610.0577,429.2053 614.8247,426.9186 619.342,424.1717 623.5656,420.9915 627.454,417.4092 630.969,413.4599 633.8685,409.4979 636.3918,405.2863 638.6641,400.5125 640.4531,395.5374 641.7414,390.4097 642.5162,385.1798 642.7699,379.8989 642.5002,374.6188 641.7096,369.3912 640.4059,364.2675 638.6019,359.2978 636.3152,354.5308 633.7792,350.3269 630.629,346.0809 627.0742,342.1673 623.1499,338.6244 618.8944,335.487 614.6828,332.9637 609.909,330.6914 604.9339,328.9024 599.8063,327.6141 594.5763,326.8393 589.2954,326.5856 584.0153,326.8553 578.7878,327.6459 574.0255,328.8397 569.0431,330.6085 564.2602,332.8614 559.7234,335.5763 555.4775,338.7265 551.5638,342.2813 548.021,346.2056 544.8836,350.4611 542.3603,354.6727 540.088,359.4465 538.2989,364.4216 537.0107,369.5492 536.2359,374.7792 535.9821,380.0601 536.2518,385.3402 537.0424,390.5677 538.3461,395.6915 540.1502,400.6612 542.258,405.0953 544.9729,409.6321 548.1231,413.878 551.6778,417.7917 555.6022,421.3345"/>
    <polygon points="554.349,422.3769 558.894,425.7537 563.7621,428.6453 568.5517,430.8792 573.5336,432.6431 578.6618,433.9206 583.889,434.6999 589.1669,434.974 594.4467,434.7401 600.0503,433.9285 605.5408,432.545 610.5119,430.7507 615.2877,428.4874 619.8243,425.7762 624.0796,422.6421 628.2823,418.8477 631.8335,414.9337 635.2025,410.3829 637.9093,405.8437 640.1679,401.0657 642.0668,395.7315 643.3355,390.601 644.1058,385.3725 644.3703,379.7166 644.0911,374.439 643.3066,369.2126 641.9137,363.7244 640.1109,358.7565 637.8394,353.9846 635.1205,349.4527 631.979,345.2027 628.1774,341.0065 623.9645,337.2235 619.7008,334.1008 615.1569,331.4019 610.375,329.1515 605.3992,327.3706 599.905,326.0019 594.6751,325.2405 589.3964,324.9846 583.7416,325.274 578.5166,326.0674 573.3918,327.3587 568.4146,329.136 563.631,331.3828 558.7707,334.2875 554.5262,337.4362 550.6035,340.9779 546.7988,345.1712 543.6542,349.4189 540.7543,354.282 538.5121,359.0678 536.7397,364.0467 535.4534,369.1727 534.6651,374.3985 534.382,379.6759 534.6068,384.9561 535.4088,390.5611 536.6737,395.6925 538.4253,400.6787 540.8237,405.8078 543.5271,410.349 546.8927,414.9023 550.441,418.8189"/>
    <polygon points="552.5855,428.7003 549.0894,431.5623 546.2315,435.0619 544.1258,439.0595 542.9287,443.0255 542.471,447.5205 542.9154,452.0168 544.1007,455.9865 546.1945,459.9903 549.0419,463.4983 552.2177,466.1586 556.1706,468.3471 560.4794,469.7066 564.9724,470.1831 569.4705,469.7574 573.7945,468.4467 577.7718,466.303 581.2439,463.4119 583.8643,460.2031 586.0032,456.2232 587.3088,451.8978 587.7291,447.3991 587.2473,442.9067 586.0289,438.9471 583.9018,434.9609 581.2909,431.7443 577.8274,428.8429 573.8564,426.6875 569.5364,425.3639 565.0396,424.9249 560.5452,425.388 556.5805,426.5898"/>
    <polygon points="548.9574,406.9507 551.8857,410.892 555.1967,414.5176 558.5637,417.5522 562.5128,420.4699 566.4025,422.7968 570.8409,424.8967 575.4685,426.5379 580.2381,427.7038 585.1011,428.3823 589.6298,428.5701 594.1563,428.335 599.0119,427.6057 603.7691,426.3901 608.031,424.8471 612.1305,422.9136 616.3472,420.3981 620.2885,417.4698 623.9142,414.1588 626.9487,410.7918 629.8665,406.8427 632.1934,402.953 634.2933,398.5146 635.9345,393.887 637.1003,389.1174 637.7789,384.2544 637.9666,379.7257 637.7316,375.1992 637.0023,370.3436 635.8972,365.9477 634.2436,361.3245 632.1319,356.8918 629.5837,352.6948 626.8664,349.067 623.5553,345.4413 620.1884,342.4068 616.2393,339.489 612.3495,337.1621 607.9112,335.0622 603.2836,333.421 598.5139,332.2552 594.0273,331.6113 589.1223,331.3889 584.5957,331.6239 579.7402,332.3532 574.983,333.5688 570.7211,335.1119 566.2883,337.2236 562.0913,339.7718 558.4635,342.4891 554.8379,345.8002 551.5649,349.4602 548.8856,353.1162 546.5587,357.006 544.4588,361.4443 542.8176,366.0719 541.6517,370.8416 541.0079,375.3282 540.7854,380.2332 541.0205,384.7598 541.7498,389.6153 542.9654,394.3725 544.5084,398.6344 546.6201,403.0672"/>
    <polygon points="546.3051,397.7426 548.2341,401.8423 550.5523,405.7352 553.2377,409.3846 556.2648,412.7558 559.8967,416.0572 563.5405,418.7501 567.7625,421.2529 571.8738,423.1571 576.1506,424.653 580.5525,425.7264 585.0378,426.3672 589.5642,426.5692 594.0888,426.3306 598.5688,425.6537 602.9619,424.5447 607.2264,423.0144 611.3222,421.077 615.2104,418.7509 618.8543,416.0581 622.4862,412.7568 625.5135,409.3857 628.1989,405.7364 630.5172,401.8436 632.4465,397.7439 633.9683,393.4763 635.0685,389.081 635.7365,384.5997 635.966,380.0746 635.755,375.5487 635.0315,370.6942 633.8013,365.9427 632.2278,361.6939 630.249,357.6179 627.8836,353.7535 625.1541,350.1371 622.0862,346.8029 618.7089,343.7825 615.0542,341.1044 611.1567,338.794 607.0532,336.8731 602.7825,335.3599 598.385,334.2687 593.9023,333.6097 589.3767,333.3894 584.8512,333.6096 580.3685,334.2684 575.971,335.3595 571.7002,336.8726 567.5966,338.7934 563.699,341.1036 560.0442,343.7816 556.399,347.0682 553.3581,350.427 550.6579,354.0654 548.3238,357.9488 546.378,362.0406 544.8388,366.302 543.7208,370.6928 543.0347,375.1714 542.786,380.0732 543.0154,384.5982 543.6833,389.0796 544.7833,393.4749"/>
    <polygon points="539.7698,389.9196 540.9658,394.6776 542.617,399.2974 544.7079,403.7355 547.4287,408.264 550.3655,412.1939 553.6691,415.8208 557.3085,419.1108 561.564,422.2415 565.7881,424.7366 570.234,426.8108 574.8599,428.4446 579.9931,429.6942 584.8524,430.3692 589.7542,430.5704 594.6525,430.2959 599.5012,429.5483 604.2547,428.3346 608.8683,426.6661 613.2985,424.5587 617.5038,422.032 621.4447,419.1099 625.0839,415.8199 628.3874,412.1928 631.534,407.949 634.0448,403.7343 636.1356,399.2961 637.7867,394.6763 639.0554,389.5478 639.7485,384.6911 639.9681,379.79 639.7118,374.8907 638.9823,370.0393 637.7863,365.2813 636.1351,360.6616 634.0442,356.2235 631.5332,352.0088 628.6259,348.0571 625.3494,344.4055 621.7347,341.0885 617.5027,337.9262 613.2973,335.3996 608.867,333.2923 604.2534,331.624 599.4999,330.4104 594.6512,329.6628 589.7529,329.3885 584.851,329.5899 579.621,330.3365 574.8586,331.5147 570.2327,333.1487 565.4535,335.4003 561.2482,337.9269 557.3074,340.849 553.6681,344.1391 550.1253,348.0581 547.2181,352.0099 544.5312,356.5587 542.4736,361.0123 540.857,365.6443 539.6967,370.4111 539.0035,375.2679 538.784,380.1689 539.0402,385.0682"/>
    <polygon points="537.8476,369.4484 537.0509,374.673 536.7825,379.9513 537.0089,384.8539 537.7625,390.0849 539.0373,395.2139 540.8204,400.1891 543.0938,404.9602 545.6239,409.1656 548.774,413.4093 552.334,417.3154 555.9756,420.6057 560.2215,423.7527 564.7619,426.4577 569.5508,428.6933 574.5399,430.437 579.3079,431.6003 584.5395,432.3501 589.4422,432.5729 594.7203,432.3008 599.9443,431.5002 604.7008,430.2908 609.6728,428.4988 614.1071,426.3955 618.6406,423.6791 622.5867,420.761 626.5119,417.222 630.0621,413.3069 633.2015,409.0553 635.8983,404.5101 638.1254,399.7172 639.753,395.0871 641.0149,389.9549 641.7199,385.098 641.9693,379.8189 641.6876,374.5413 640.953,369.6888 639.6598,364.5644 637.8588,359.5957 635.5683,354.8328 633.0231,350.6365 630.0979,346.6957 626.5518,342.7768 622.6304,339.2336 618.6875,336.3112 614.4894,333.7691 609.7248,331.482 604.7548,329.6846 599.6295,328.3951 594.4006,327.6265 589.4987,327.3861 584.2197,327.6393 578.9928,328.4211 573.8707,329.7235 569.2536,331.3876 564.8118,333.4749 560.2685,336.175 556.312,339.079 552.3741,342.6038 548.8099,346.5061 545.6552,350.7464 542.9421,355.2819 540.8421,359.7178 539.1647,364.3301"/>
    <polygon points="540.3545,359.8493 538.592,364.8361 537.3355,369.9737 536.5973,375.2109 536.3825,380.1178 536.6602,385.3995 537.463,390.6273 538.7829,395.7489 540.4602,400.3652 542.7359,405.1396 545.4761,409.6634 548.6537,413.8915 552.2369,417.7819 555.8962,421.0579 560.1577,424.1906 564.7102,426.8829 569.5084,429.108 574.1421,430.7364 579.2775,432.0021 584.5134,432.7497 589.7978,432.9715 594.7021,432.7049 599.9312,431.9114 604.6938,430.7111 609.6745,428.9316 614.453,426.6644 618.9817,423.9322 623.2154,420.7622 627.1122,417.186 630.3947,413.5325 633.535,409.2766 636.0577,405.0625 638.3255,400.2843 640.1057,395.3039 641.3806,390.1708 642.1375,384.9362 642.3698,380.0301 642.1109,374.7475 641.3267,369.5169 640.025,364.3905 638.2189,359.4194 635.9262,354.6532 633.3815,350.4522 630.219,346.2128 626.6497,342.3097 622.7092,338.7819 618.7519,335.8728 614.5422,333.3426 609.7681,331.0663 604.7908,329.2772 599.66,327.9932 594.4268,327.227 589.1432,326.9862 583.862,327.2734 578.6357,328.0855 573.8774,329.3027 568.9031,331.1001 564.1328,333.3842 559.6138,336.1326 555.3914,339.3177 551.5075,342.9078 548.0008,346.8672 545.1129,350.84 542.6052,355.0631"/>
    <polygon points="546.7062,344.6538 543.3208,349.1975 540.5951,353.7298 538.3142,358.5014 536.3872,363.8299 535.0887,368.9568 534.2466,374.5601 533.9811,379.8422 534.2569,385.5017 535.0347,390.733 536.4175,396.2279 538.2084,401.2042 540.4657,405.9871 543.1688,410.5328 546.2931,414.8001 550.0755,419.0191 553.9776,422.589 558.5155,425.9822 563.0432,428.7155 568.1595,431.1505 573.1361,432.9406 578.6313,434.3225 583.8627,435.0995 589.5222,435.3744 595.1802,435.0697 600.4074,434.2651 605.5341,432.9657 610.8623,431.0379 615.9657,428.5759 620.4789,425.8187 624.7086,422.6436 628.6162,419.0797 632.4051,414.8666 635.536,410.6042 638.2462,406.0626 640.655,400.9339 642.4196,395.9482 643.7734,390.446 644.5236,385.2107 644.7711,379.9278 644.476,374.2692 643.6804,369.0407 642.2788,363.5505 640.471,358.5803 638.1974,353.8052 635.4788,349.2687 632.1004,344.7198 628.5431,340.8061 624.3365,337.0099 620.0794,333.8718 615.5424,331.1539 610.4179,328.7363 605.4352,326.9632 599.9354,325.6001 594.7014,324.8409 589.4188,324.5844 583.7598,324.8698 578.5299,325.6566 573.0373,327.0487 568.0641,328.8481 563.2851,331.1135 558.7439,333.8244 554.4819,336.956 550.2695,340.7456"/>
    <polygon points="568.2748,329.6276 563.5034,331.9047 558.9746,334.6327 554.731,337.7859 550.8122,341.3348 547.2551,345.2462 543.883,349.7973 541.177,354.3391 538.9229,359.1215 537.0333,364.4612 535.7777,369.5969 534.9904,375.2061 534.7837,380.489 535.089,385.7671 535.9034,390.9909 537.3321,396.472 539.1714,401.4287 541.4815,406.1842 544.2407,410.6939 547.4232,414.9157 550.9992,418.8098 554.935,422.3397 559.1938,425.4725 563.7357,428.1785 568.518,430.4326 573.496,432.2136 578.9934,433.5778 584.2265,434.3307 589.5078,434.574 594.7879,434.3052 600.0172,433.527 605.1467,432.2467 610.1284,430.4762 615.2487,428.0542 619.7774,425.3263 624.0211,422.173 627.9399,418.6241 631.7363,414.4205 634.869,410.1617 637.5751,405.6198 639.8292,400.8375 641.6101,395.8595 642.9743,390.3621 643.7273,385.129 643.9683,379.4699 643.663,374.1918 642.8487,368.968 641.5329,363.8475 639.7279,358.8782 637.4508,354.1068 634.5114,349.265 631.3288,345.0433 627.7529,341.1492 623.817,337.6192 619.5582,334.4865 614.6822,331.6041 609.8844,329.3832 604.8943,327.6367 599.7586,326.3812 594.5256,325.6282 589.2443,325.385 583.9642,325.6537 578.3646,326.5068 573.244,327.8226"/>
    <polygon points="584.322,330.0424 579.469,330.7748 574.3499,332.0893 569.7445,333.7858 565.3268,335.924 561.139,338.4834 557.2213,341.4396 553.611,344.7642 550.3426,348.4256 547.4475,352.3887 544.9533,356.6156 542.8838,361.0659 541.2588,365.6971 540.094,370.4648 539.4003,375.3234 539.1845,380.2266 539.4486,385.1275 540.1901,389.9791 541.4018,394.7351 543.0723,399.35 545.1855,403.7797 547.7212,407.9818 550.6553,411.9162 553.9595,415.5452 557.6024,418.8342 561.5491,421.7516 565.7619,424.2697 570.2004,426.3643 574.8223,428.0153 579.5833,429.2071 584.438,429.9281 589.3399,430.1716 594.2422,429.9352 599.0979,429.2211 603.8607,428.0362 608.4849,426.3918 612.9265,424.3036 617.1428,421.7916 621.3855,418.6401 625.0084,415.329 628.2905,411.6799 631.2005,407.7278 633.7106,403.5103 635.7968,399.0678 637.4392,394.4428 638.622,389.6795 639.3339,384.8235 639.5682,379.9211 639.2838,374.6437 638.524,369.7949 637.2944,365.0435 635.6066,360.4349 633.4767,356.0132 630.9252,351.8206 627.9764,347.8973 624.6585,344.2807 621.0032,341.0055 617.0456,338.1029 612.8234,335.6007 608.377,333.5229 603.7489,331.8892 598.9834,330.7154 594.1261,330.0126 589.2233,329.7875"/>
    <polygon points="594.7521,326.0524 589.47,325.7851 584.187,326.034 578.9533,326.7967 573.819,328.0659 568.8328,329.8296 564.0423,332.0708 559.493,334.7684 554.9357,338.1357 551.021,341.692 547.4716,345.613 544.3213,349.8613 541.6001,354.3964 539.3339,359.1752 537.5443,364.1521 536.2483,369.2798 535.4584,374.5093 535.1819,380.1689 535.4585,385.4506 536.2485,390.6802 537.5446,395.8078 539.3343,400.7847 541.6005,405.5634 544.3219,410.0985 547.4723,414.3468 551.0218,418.2677 555.2292,422.0631 559.4939,425.1911 564.0432,427.8886 568.8338,430.1298 573.82,431.8933 578.9543,433.1624 584.188,433.925 589.471,434.1738 595.1291,433.8677 600.3544,433.0503 605.4752,431.7274 610.4427,429.9117 615.2095,427.6205 619.7303,424.8755 623.962,421.7029 627.8643,418.133 631.4,414.1996 634.5355,409.9404 637.2409,405.3958 639.6331,400.2592 641.3705,395.2638 642.6127,390.1229 643.348,384.8853 643.5691,379.601 643.2742,374.3204 642.4659,369.0936 641.152,363.9705 639.345,358.9999 637.062,354.2291 634.3249,349.7035 631.1597,345.4663 627.5966,341.5578 623.6694,338.0152 619.4156,334.8723 614.8758,332.159 610.093,329.9011 605.113,328.1202 599.9831,326.8332"/>
    <polygon points="594.6505,323.63 588.9897,323.385 583.3328,323.7072 578.1065,324.517 572.6173,325.9218 567.2961,327.8684 562.5283,330.157 557.6811,333.0911 553.1516,336.4953 548.9851,340.3353 545.2236,344.5726 542.1113,348.8486 539.4118,353.3964 537.0042,358.5255 535.1215,363.8697 533.7825,369.3753 533.0008,374.9872 532.781,380.2713 533.0938,385.9287 533.8949,391.1564 535.2905,396.6479 537.2282,401.9724 539.5088,406.744 542.4349,411.5961 545.8315,416.1313 549.6645,420.3041 553.6019,423.8349 558.1663,427.1921 562.7096,429.8992 567.8347,432.3154 573.1757,434.2071 578.6791,435.5552 583.9134,436.311 589.5734,436.5749 595.2314,436.2716 600.8306,435.404 605.9542,434.0928 611.2818,432.1639 616.0573,429.8913 620.9143,426.9733 625.4551,423.5843 629.6343,419.7583 633.41,415.5335 636.5365,411.268 639.4287,406.3956 641.8192,401.2585 643.6841,395.908 644.9338,390.7692 645.7342,385.1599 645.9717,379.8766 645.6778,374.2181 644.8942,368.9879 643.6258,363.8536 641.7415,358.51 639.3324,353.3815 636.4225,348.5197 633.0411,343.9732 629.4895,340.0546 625.2964,336.2437 620.7432,332.8713 615.8757,329.9709 610.7425,327.5719 605.3952,325.6981 600.2585,324.4398"/>
    <polygon points="603.9312,332.7811 599.177,331.57 594.3262,330.8364 589.4265,330.5878 584.5263,330.8264 579.674,331.55 574.9173,332.7514 570.3034,334.4188 565.8776,336.5357 561.6836,339.0812 558.0539,341.7896 554.4198,345.0853 551.1305,348.7253 548.2186,352.6737 545.8905,356.5584 543.7815,360.9879 542.1224,365.6048 540.9294,370.3636 540.2144,375.2172 539.9845,380.1178 540.2419,385.017 540.984,389.8666 542.2036,394.6185 543.7428,398.8779 545.8427,403.3117 548.3722,407.5153 551.3062,411.4473 554.6158,415.0688 558.2683,418.3442 561.9132,421.0322 566.1213,423.5542 570.5589,425.6462 574.8209,427.1779 579.5751,428.389 584.4259,429.1225 589.3256,429.3711 594.2258,429.1325 599.0781,428.4089 603.8347,427.2075 608.4487,425.5401 612.8745,423.4233 617.0684,420.8778 620.9892,417.9288 624.598,414.6054 627.6215,411.2336 630.5335,407.2852 633.0393,403.0675 635.1144,398.622 636.6297,394.3541 637.8227,389.5954 638.4998,385.1174 638.7672,380.2187 638.5472,375.3176 637.8422,370.4626 636.659,365.7014 635.0093,361.0811 632.9093,356.6472 630.3799,352.4436 627.4459,348.5116 624.1363,344.8901 620.4838,341.6148 616.8389,338.9267 612.6308,336.4047 608.5417,334.4579"/>
    <polygon points="621.407,331.8707 616.5425,328.9656 611.4169,326.5507 606.0795,324.6493 600.5815,323.2796 594.9759,322.4549 589.3165,322.183 583.6576,322.4666 578.0536,323.3029 572.5585,324.6839 567.2251,326.5963 562.1045,329.0217 557.2459,331.9369 552.6962,335.3138 548.499,339.1199 544.6947,343.3187 541.3197,347.8699 538.4066,352.7297 535.9834,357.8513 534.0732,363.1856 532.6946,368.6813 531.8607,374.2856 531.5796,379.9446 531.8539,385.6039 532.681,391.2092 534.053,396.7066 535.9567,402.0432 538.3738,407.1677 541.281,412.031 544.6504,416.5862 548.4497,420.7896 552.6423,424.6009 557.188,427.9832 562.0429,430.9043 567.1606,433.3359 572.4918,435.2547 577.9852,436.6424 583.5881,437.4854 589.2467,437.7758 594.9064,437.5107 600.5131,436.6928 606.0127,435.3298 611.3524,433.4348 616.4809,431.0261 621.3489,428.1268 625.9096,424.7648 630.3864,420.7052 634.177,416.4939 637.5371,411.9318 640.4343,407.0625 642.8408,401.933 644.7334,396.5925 646.0941,391.0923 646.9097,385.4853 647.1723,379.8254 646.8795,374.167 646.034,368.5645 644.6441,363.0716 642.723,357.7413 640.2892,352.6246 637.366,347.7709 633.9817,343.2267 630.1687,339.0357 625.9637,335.2382"/>
    <polygon points="619.5209,343.4124 615.5755,340.4896 611.6829,338.1672 607.5862,336.2273 603.323,334.6877 598.5617,333.4877 594.078,332.8227 589.5513,332.5892 584.6468,332.8255 580.1635,333.493 575.403,334.6957 571.1406,336.2378 567.0451,338.18 562.8399,340.715 559.2101,343.4298 555.8562,346.4789 552.5698,350.1271 549.8861,353.78 547.5637,357.6726 545.6238,361.7693 543.9745,366.3941 542.8842,370.7938 542.1833,375.6536 541.9859,380.1821 542.222,384.7087 542.8895,389.192 544.0923,393.9525 545.6343,398.2149 547.5766,402.3104 550.1116,406.5156 552.8263,410.1454 556.1438,413.7654 559.5237,416.7857 563.1766,419.4694 567.0692,421.7918 571.1658,423.7317 575.4291,425.2713 580.1903,426.4713 585.0502,427.1722 589.5786,427.3696 594.1052,427.1335 598.5885,426.466 603.3491,425.2632 607.6115,423.7211 612.0396,421.5995 615.9122,419.2439 619.542,416.5292 623.1619,413.2117 626.1823,409.8318 628.8659,406.1789 631.1883,402.2863 633.272,397.8402 634.7776,393.5649 635.8678,389.1652 636.5687,384.3053 636.7662,379.7769 636.53,375.2503 635.8625,370.767 634.7698,366.3679 633.1177,361.744 631.1755,357.6485 628.8508,353.7572 625.9257,349.8135 622.8766,346.4596"/>
    <polygon points="625.5645,350.0047 622.5108,346.6602 619.1494,343.6251 615.5113,340.9277 611.2973,338.4157 607.1942,336.4984 602.9256,334.985 598.5312,333.8896 594.0517,333.2223 589.5287,332.9894 584.6286,333.2296 580.1502,333.9037 575.7574,335.0059 571.4911,336.5258 567.391,338.4493 563.1808,340.9679 559.5469,343.6708 555.9239,346.9788 552.9023,350.3524 550.2196,354.0013 547.9006,357.8914 545.8237,362.3361 544.3275,366.6108 543.2498,371.0096 542.6005,375.4917 542.3875,380.3931 542.6456,384.9146 543.3377,389.3904 544.4575,393.7787 545.9945,398.0388 548.1139,402.4634 550.47,406.3312 553.1875,409.9542 556.2412,413.2988 559.6027,416.3338 563.2407,419.0312 567.1215,421.3658 571.5579,423.4606 575.8264,424.9739 580.2209,426.0693 585.0762,426.7727 589.6009,426.9693 594.1234,426.7294 598.6019,426.0552 602.9947,424.9531 607.2609,423.4332 611.694,421.3316 615.5712,418.991 619.2051,416.2881 622.5619,413.2479 625.8497,409.6065 628.5324,405.9577 630.8514,402.0675 632.7852,397.9722 634.3157,393.7097 635.5023,388.9494 636.1516,384.4672 636.3645,379.5659 636.1065,375.0443 635.4144,370.5686 634.1822,365.8198 632.611,361.5722 630.6382,357.4955 628.2821,353.6277"/>
    <polygon points="627.807,348.3204 624.5021,344.6893 620.8556,341.4014 616.9031,338.4885 612.6828,335.9791 608.236,333.8976 603.6057,332.2641 598.8371,331.0947 594.3526,330.4369 589.4489,330.1876 584.5446,330.4225 579.6873,331.1393 574.9242,332.331 570.3016,333.986 565.8645,336.0882 561.656,338.6172 557.717,341.5485 554.0859,344.8534 550.7979,348.4999 547.8851,352.4524 545.3757,356.6727 543.2942,361.1195 541.6607,365.7498 540.4912,370.5184 539.7971,375.379 539.585,380.2844 539.8571,385.1868 540.6108,390.0385 541.8386,394.7925 543.5286,399.4024 545.4848,403.491 548.0138,407.6995 550.945,411.6385 554.2499,415.2696 557.8964,418.5576 561.849,421.4704 566.0692,423.9798 570.5161,426.0613 575.1464,427.6948 579.915,428.8643 584.7756,429.5584 589.681,429.7705 594.5833,429.4984 599.4351,428.7447 604.189,427.5169 608.7989,425.8269 612.8876,423.8707 617.0961,421.3417 621.0351,418.4105 624.6662,415.1056 627.9541,411.4591 630.867,407.5065 633.3764,403.2863 635.4579,398.8394 637.0914,394.2091 638.2608,389.4405 638.9186,384.956 639.1679,380.0524 638.933,375.1481 638.2162,370.2907 637.0245,365.5276 635.3695,360.905 633.2673,356.4679 630.7383,352.2594"/>
    <polygon points="631.6817,351.5106 628.5065,347.2831 625.1806,343.6713 621.5227,340.3962 617.5669,337.488 613.3496,334.9738 608.9101,332.8768 603.9278,331.1073 599.1602,329.9343 593.9256,329.1902 589.02,328.9881 584.1176,329.2587 579.264,329.9995 574.5041,331.2037 569.8821,332.8601 565.4408,334.9533 560.9072,337.6738 556.6797,340.849 553.0679,344.1749 549.7928,347.8328 546.8846,351.7886 544.3703,356.0059 542.2733,360.4454 540.5038,365.4276 539.3309,370.1953 538.5868,375.4299 538.3847,380.3355 538.6553,385.2379 539.3961,390.0915 540.6003,394.8514 542.2567,399.4734 544.3499,403.9147 547.0703,408.4483 550.0044,412.385 553.3034,416.0213 556.9369,419.3235 561.1852,422.4709 565.4024,424.9852 569.8419,427.0822 574.8242,428.8517 579.5919,430.0246 584.8264,430.7687 589.7321,430.9708 594.6345,430.7002 599.4881,429.9594 604.609,428.6437 609.2186,426.9531 613.6442,424.827 617.8449,422.2852 622.0724,419.1099 625.6842,415.784 628.9593,412.1262 631.8675,408.1703 634.3817,403.9531 636.4787,399.5136 638.2482,394.5313 639.4212,389.7636 640.1302,384.9053 640.3674,379.6234 640.0968,374.721 639.356,369.8674 638.1518,365.1075 636.4954,360.4855 634.2236,355.7113"/>
    <polygon points="632.2666,350.9464 629.3272,347.0185 626.0293,343.3863 622.1109,339.8428 618.1665,336.9256 613.9637,334.3948 609.1921,332.1271 604.5756,330.4669 599.4527,329.1761 594.2249,328.4139 589.3242,328.1864 584.0483,328.4611 579.1978,329.1964 574.4385,330.3872 569.4642,332.1669 565.0297,334.2654 560.4995,336.9833 556.5609,339.9084 552.6496,343.4598 549.1204,347.3911 546.2176,351.3461 543.702,355.5581 541.4518,360.3379 539.8084,364.9605 538.5363,370.088 537.8285,374.9427 537.5835,380.22 537.8775,385.4949 538.6304,390.3428 539.9501,395.4583 541.6363,400.0654 543.9308,404.8241 546.4854,409.0125 549.6662,413.2308 552.9904,416.8388 556.6411,420.1161 560.9002,423.242 565.4555,425.9178 569.9093,427.975 574.5378,429.6015 579.67,430.8549 584.5272,431.5451 589.8054,431.7708 595.0791,431.4576 599.9242,430.687 604.6746,429.4615 609.2878,427.792 614.0549,425.5149 618.2526,422.9756 622.1912,420.0505 626.1025,416.4992 629.6317,412.5679 632.5345,408.6128 635.0501,404.4009 637.3003,399.621 638.9437,394.9985 640.2158,389.8709 640.9236,385.0162 641.1685,379.7389 640.8746,374.464 640.1217,369.6162 638.9135,364.8613 637.1157,359.8936 634.8212,355.1348"/>
    <polygon points="639.3883,365.0491 637.6212,360.0661 635.3591,355.2873 632.6251,350.762 629.6883,346.8274 626.1276,342.9192 622.1897,339.3912 618.2306,336.4875 614.0163,333.9686 609.235,331.7119 604.6117,330.0594 599.4832,328.7742 594.6271,328.051 589.3466,327.7862 584.0664,328.0569 579.2111,328.7856 574.4457,329.9672 569.4626,331.7343 564.6839,333.9964 560.1586,336.7304 556.224,339.6672 552.3157,343.2279 549.0264,346.8729 545.8841,351.1249 543.188,355.6729 540.966,360.4704 539.347,365.1055 538.0989,370.2432 537.377,375.4808 537.1843,380.3867 537.4933,385.6648 538.2571,390.5147 539.5852,395.6323 541.2763,400.2416 543.5729,405.0038 546.127,409.1969 549.3048,413.4225 552.6245,417.0398 556.5624,420.5677 560.5214,423.4714 565.0695,426.1675 569.517,428.2471 574.5021,430.0085 579.2688,431.1848 584.501,431.9446 589.4055,432.1728 594.6856,431.902 599.541,431.1734 604.3064,429.9917 609.2894,428.2246 613.7347,426.14 618.2797,423.4389 622.5281,420.2918 626.4363,416.731 629.9643,412.7931 632.868,408.8341 635.3869,404.6197 637.6436,399.8385 639.2961,395.2152 640.5813,390.0867 641.3412,384.8545 641.5693,379.95 641.2986,374.6699 640.5699,369.8145"/>
    <polygon points="636.3014,389.0334 636.9479,384.549 637.1657,379.6457 636.8794,374.746 636.1703,370.2711 635.0407,365.8834 633.5006,361.6223 631.3851,357.1936 629.0385,353.3178 626.3355,349.6816 623.0331,346.0507 619.3758,342.7777 615.718,340.1039 611.8235,337.7886 607.3779,335.7088 602.7424,334.0959 598.3372,333.0363 593.8515,332.3987 588.9479,332.1906 584.4243,332.4459 579.9452,333.1284 575.1897,334.3428 570.9317,335.8913 566.5072,338.0155 562.636,340.3697 559.0052,343.08 555.3809,346.3895 552.3527,349.7597 549.4485,353.7163 547.1409,357.6154 545.0699,362.0651 543.4662,366.7038 542.4153,371.111 541.7865,375.598 541.5855,380.1243 541.8523,385.0251 542.5437,389.5029 543.656,393.895 545.1793,398.1621 547.0998,402.2657 549.6085,406.4842 552.5366,410.4231 555.5851,413.7749 558.9374,416.823 562.8767,419.7506 566.762,422.0813 570.8506,424.0336 575.4667,425.7013 579.859,426.8131 584.7125,427.5422 589.2376,427.7701 594.1399,427.5322 598.6217,426.8674 603.0203,425.7811 607.6459,424.1402 611.7458,422.2116 615.9593,419.6946 619.8924,416.7587 623.2382,413.7035 626.2796,410.3453 629.1995,406.4002 631.6992,402.1765 633.6111,398.0688 635.1253,393.7985"/>
    <polygon points="635.4727,394.0319 636.6626,389.2724 637.3261,384.7924 637.567,379.8923 637.3084,374.9931 636.553,370.1456 635.3087,365.4 633.7373,361.1525 631.5932,356.7398 629.2252,352.8793 626.2634,348.9682 623.1893,345.6424 619.8167,342.6198 615.8605,339.7185 611.6299,337.2344 607.519,335.3341 602.8858,333.7208 598.4836,332.6569 594.001,332.0109 589.1001,331.7892 584.5775,332.028 579.727,332.7643 575.3374,333.8786 570.723,335.5448 566.6341,337.4921 562.4322,340.0245 558.8004,342.7302 555.1717,346.0319 552.1359,349.3927 549.2191,353.3375 546.7185,357.5583 544.8021,361.6618 543.2794,365.927 542.0895,370.6866 541.4259,375.1666 541.1851,380.0667 541.4437,384.9658 542.1234,389.4434 543.2205,393.8375 544.8687,398.4583 546.7999,402.5548 549.3158,406.7666 552.2468,410.7008 555.2947,414.0506 558.9354,417.3391 562.5769,420.0317 566.4552,422.3706 570.8839,424.4813 575.5043,426.1308 580.2684,427.302 585.127,427.9828 589.652,428.1697 594.1746,427.931 599.025,427.1946 603.4147,426.0803 608.0291,424.4141 612.118,422.4669 616.3199,419.9345 619.9517,417.2287 623.5804,413.927 626.8546,410.2735 629.533,406.6215 632.0336,402.4006 633.95,398.2971"/>
    <polygon points="642.3532,402.0645 644.2714,396.7373 645.6554,391.247 646.4918,385.647 646.7723,379.9919 646.4942,374.3367 645.6603,368.7364 644.2787,363.2455 642.5068,358.2665 640.1089,353.1372 637.2173,348.2692 633.8602,343.7098 630.0701,339.5033 625.884,335.6907 621.3427,332.3091 616.4902,329.3914 611.3739,326.9661 606.0436,325.0566 600.551,323.6816 595.3254,322.8924 589.6717,322.584 584.0152,322.8341 578.4108,323.6404 572.9131,324.9949 567.5757,326.8845 562.4504,329.2908 557.5871,332.1904 553.0332,335.5551 548.833,339.352 545.0273,343.5444 541.6532,348.0913 538.7435,352.9485 536.3265,358.0688 534.4258,363.4023 533.0599,368.8971 532.2419,374.4998 531.98,380.1558 532.2767,385.8101 533.129,391.4077 534.5287,396.894 536.4622,402.2157 538.9105,407.3211 541.85,412.1603 545.252,416.6864 549.0834,420.8553 553.3069,424.6264 557.5664,427.7547 562.4284,430.6564 567.5526,433.065 572.8893,434.9569 578.3863,436.3138 583.9904,437.1225 589.6468,437.3751 595.3006,437.0691 600.8967,436.2076 606.3808,434.7989 611.6993,432.8567 616.8006,430.3999 621.635,427.4525 626.1555,424.0431 630.0525,420.4733 633.8444,416.2685 637.2036,411.7105 639.9194,407.1768"/>
    <polygon points="636.203,411.0467 638.9144,406.5103 641.3328,401.3907 643.2236,396.0536 644.4955,390.924 645.2799,385.6977 645.5716,380.0431 645.329,374.7637 644.5202,369.1597 643.1515,363.6655 641.3811,358.6859 639.1508,353.8947 636.2732,349.0183 632.9196,344.4562 629.3899,340.5228 625.2163,336.6965 620.6789,333.3096 616.1562,330.5754 611.0488,328.1313 606.0823,326.3246 600.5983,324.9158 595.0003,324.0661 589.7228,323.785 584.0663,324.0353 578.4636,324.8536 573.3333,326.1225 567.9951,328.0102 563.2077,330.2486 558.3361,333.1343 553.7797,336.4957 549.5846,340.2984 545.7935,344.504 542.6537,348.7551 539.7487,353.6152 537.4915,358.3938 535.6932,363.3634 534.2936,368.8498 533.4917,374.0735 533.181,379.7271 533.4409,385.3832 534.2686,390.9845 535.6557,396.474 537.4428,401.4476 539.6892,406.2314 542.5831,411.098 545.9521,415.6488 549.4949,419.5704 553.6814,423.3826 558.2302,426.7542 562.762,429.4732 567.8776,431.9002 573.2114,433.8 578.7094,435.1534 583.9397,435.9115 589.5957,436.1746 595.2494,435.8673 600.4736,435.0684 605.5996,433.7822 610.9314,431.8766 615.7114,429.6221 620.5732,426.72 625.1183,423.3434 629.3005,419.5266 632.8391,415.6012"/>
    <polygon points="636.87,411.4892 639.763,406.6197 642.1583,401.487 644.0324,396.142 645.2948,391.0082 646.1134,385.4036 646.3716,379.7454 646.0669,374.0895 645.2024,368.4918 643.8978,363.3686 641.9799,358.0391 639.5425,352.9263 636.6096,348.0807 633.2103,343.5501 629.3781,339.3792 625.4442,335.8474 620.8858,332.4855 616.0162,329.5925 610.8836,327.1972 605.9005,325.4314 600.4048,324.0607 594.8001,323.2421 589.142,322.9839 583.4861,323.2886 577.8884,324.1531 572.4041,325.569 567.0875,327.5222 562.3229,329.813 557.4772,332.7459 553.238,335.9047 549.0418,339.7092 545.244,343.9113 541.882,348.4697 538.9891,353.3393 536.5937,358.4719 534.828,363.455 533.4572,368.9507 532.6387,374.5554 532.3805,380.2135 532.6852,385.8694 533.5497,391.4671 534.9655,396.9514 536.9187,402.268 539.39,407.3645 542.1424,411.8783 545.5417,416.4089 549.3739,420.5797 553.3079,424.1115 557.8663,427.4735 562.7358,430.3664 567.8685,432.7618 572.8516,434.5275 578.3473,435.8983 583.9519,436.7168 589.6101,436.975 595.266,436.6703 600.8637,435.8058 606.3479,434.39 611.6646,432.4368 616.7611,429.9655 621.2748,427.2131 625.8054,423.8138 629.9763,419.9816 633.5081,416.0476"/>
    <polygon points="634.202,409.7191 636.9039,405.177 639.1471,400.3917 640.9099,395.4093 642.1752,390.278 642.931,385.0473 643.1698,379.7677 642.8894,374.4901 642.0925,369.2656 640.7868,364.1444 638.9849,359.1761 636.7041,354.4085 633.9665,349.8878 630.7985,345.6575 627.2307,341.7585 623.2976,338.2285 619.037,335.1014 614.4901,332.4074 609.7008,330.1727 604.7154,328.4186 599.5819,327.1623 594.3499,326.4157 589.0699,326.1861 583.7928,326.4758 578.5696,327.2819 573.4508,328.5966 568.4856,330.4072 563.7221,332.6964 559.2062,335.4419 554.9815,338.6173 551.355,341.9241 547.8042,345.8386 544.6547,350.0826 541.9369,354.6153 539.6769,359.3927 537.8967,364.3688 536.6133,369.4957 535.8392,374.7237 535.5818,380.0024 535.8437,385.2809 536.6223,390.5083 537.91,395.634 539.6945,400.6086 541.9585,405.3841 544.6802,409.9144 547.8333,414.1558 551.3874,418.0673 555.3082,421.6111 559.5577,424.7532 564.0951,427.4631 568.8765,429.7146 573.8558,431.4862 578.9848,432.7605 584.2142,433.5254 589.4934,433.7735 594.7714,433.5024 599.9974,432.7147 605.1208,431.4179 610.0923,429.6247 614.8639,427.3523 619.3894,424.6227 623.6252,421.4621 627.5305,417.9012 631.0674,413.9742"/>
    <line x1="641.1854" x2="590.4831" y1="433.1419" y2="543.0187"/>
    <line x1="590.1128" x2="623.9143" y1="542.8479" y2="469.5966"/>
    <line x1="624.6549" x2="590.8534" y1="469.9384" y2="543.1896"/>
    <line x1="591.2237" x2="608.1245" y1="543.3605" y2="506.7349"/>
    <line x1="606.6433" x2="589.7425" y1="506.0514" y2="542.677"/>
    <polygon points="589.3722,542.5061 591.5941,543.5314 641.1854,433.1419"/>
    <polygon points="558.9109,554.8154 516.0105,575.8534 516.5988,577.0129"/>
    <line x1="544.6108" x2="516.2066" y1="561.828" y2="576.2399"/>
    <line x1="516.4027" x2="544.8069" y1="576.6264" y2="562.2145"/>
    <polygon points="474.8698,602.4976 481.6541,602.7373 487.9818,601.6979 493.994,599.4674 499.4685,596.1282 504.2032,591.8034 508.2164,586.3282 510.9151,580.5111 512.5041,573.9112 512.7487,567.5033 511.6674,560.8015 509.4199,554.7957 506.0651,549.3306 501.727,544.6082 496.2404,540.6105 490.4158,537.9283 484.1856,536.4096 477.4028,536.1315 471.0693,537.135 465.0446,539.3315 459.5513,542.6397 454.5389,547.218 450.7481,552.39 448.0164,558.1917 446.4449,564.4087 446.1092,571.1889 447.1526,577.8967 449.3661,583.9152 452.9175,589.7006 457.2823,594.3985 462.465,598.1747 468.6312,601.0142"/>
    <polygon points="444.584,588.631 446.0351,585.1804 446.2577,582.9369 446.0573,581.0677 445.3642,578.9225 444.433,577.2894 441.751,574.6779 438.3004,573.2267 436.4334,573.0062 434.1877,573.2045 432.0425,573.8977 430.4094,574.8288 427.7979,577.5108 426.3467,580.9615 426.1241,583.2049 426.3246,585.0741 427.0177,587.2193 427.9488,588.8524 430.6308,591.4639 434.0815,592.9151 435.9484,593.1357 438.1941,592.9373 441.6602,591.5234 443.1363,590.3592"/>
    <polygon points="430.0835,592.2048 431.7336,593.1139 433.8821,593.8133 436.1283,594.0584 438.3772,593.8389 440.1845,593.3071 442.1939,592.2738 443.9495,590.8513 445.3769,589.0998 446.2718,587.4419 446.9527,585.2874 447.1786,583.0392 446.9397,580.7923 446.2464,578.6418 445.1278,576.6786 443.9044,575.2459 442.1407,573.8335 440.1254,572.8118 438.315,572.2905 436.0649,572.084 433.8202,572.342 431.6757,573.0538 429.7221,574.1892 428.3,575.4249 426.9028,577.2006 425.8984,579.2247 425.3927,581.0395 425.2044,582.914 425.4046,585.1646 425.9208,586.9765 426.9368,588.9947 428.3442,590.7624"/>
    <polygon points="423.3057,588.8359 422.9132,590.6652 423.3091,592.4938 424.1506,593.7364 425.7017,594.7827 427.1691,595.0975 429.0128,594.7797 430.5619,593.7306 431.4012,592.4864 431.7937,590.6571 431.5387,589.1781 430.8056,587.8685 429.3488,586.6945 427.5379,586.2248 425.6941,586.5426 424.145,587.5917"/>
    <polygon points="385.5177,560.8825 388.3681,555.1383 390.0271,548.9441 390.4412,542.9219 389.6454,536.5589 387.608,530.4787 384.4094,524.9209 380.1755,520.1047 375.0735,516.2202 369.3045,513.4203 363.096,511.8157 357.0704,511.4545 350.7147,512.3061 344.9966,514.2407 339.4295,517.4231 334.601,521.6428 330.7015,526.7334 327.8848,532.4942 326.262,538.698 325.8832,544.7226 326.7162,551.0807 328.6341,556.8044 331.8002,562.3808 336.0057,567.2216 341.0849,571.136 346.4844,573.835 352.6638,575.5484 359.0599,576.0069 365.4205,575.1926 371.1498,573.2914 376.7354,570.1416 381.5885,565.9502"/>
    <polygon points="380.0682,563.9623 383.4956,559.4601 386.1439,554.038 387.5876,548.5669 387.9719,542.9216 387.1993,536.9369 385.394,531.5743 382.3901,526.3408 378.3941,521.8192 373.8919,518.3917 368.4697,515.7434 362.9987,514.2998 356.9758,513.9281 351.3687,514.688 345.662,516.6495 340.7726,519.4973 336.2509,523.4933 332.8235,527.9955 330.3081,533.0639 328.7316,538.8887 328.3473,544.534 329.1198,550.5187 330.9251,555.8813 333.9291,561.1148 337.6491,565.3784 342.4272,569.0639 347.4957,571.5793 353.3205,573.1558 359.3433,573.5275 364.9504,572.7676 370.3131,570.9623 375.5465,567.9583"/>
    <polygon points="376.5825,569.2402 381.1092,565.2593 384.7937,560.4882 387.6351,554.7495 389.1959,548.927 389.6179,542.9136 388.8017,536.5622 386.7167,530.5075 383.672,525.3048 379.691,520.7782 374.92,517.0937 369.1813,514.2522 363.3587,512.6914 356.9682,512.2815 350.994,513.0856 344.9393,515.1706 339.7366,518.2154 335.21,522.1963 331.3264,527.2879 328.5539,533.0603 327.0631,538.9011 326.7133,544.9191 327.5174,550.8934 329.4459,556.6047 332.4281,561.8435 336.3545,566.4176 341.3991,570.3619 347.1378,573.2034 352.9604,574.7642 358.9737,575.1861 365.3252,574.37 371.3798,572.285"/>
    <polygon points="376.0932,569.0843 380.6548,565.1411 384.3685,560.3909 387.2293,554.6601 388.7939,548.837 389.2038,542.8213 388.4436,536.8398 386.5419,531.1179 383.5704,525.8713 379.6411,521.2977 374.5831,517.3681 369.1801,514.6914 363.3618,513.1091 356.9701,512.6931 350.9958,513.5078 345.2915,515.4616 340.0722,518.4808 335.5346,522.4516 331.8499,527.2243 329.1568,532.6191 327.5569,538.4326 327.1104,544.4456 327.918,550.7997 329.8544,556.5099 333.0785,562.0445 337.0904,566.5457 341.8966,570.1868 347.3157,572.8306 353.1435,574.3775 359.1604,574.7691 365.1396,573.9907 370.8556,572.0717"/>
    <polygon points="377.59,571.0489 382.4331,566.8531 386.5914,561.4935 389.4521,555.7597 391.2335,549.2142 391.6609,542.4442 390.8048,536.0938 388.7561,530.0223 385.3709,524.1438 381.1478,519.3244 375.7649,515.1964 370.0151,512.368 363.8321,510.6853 357.0646,510.2198 350.7095,511.0401 344.282,513.2089 338.7291,516.4067 333.886,520.6025 329.7278,525.9621 326.8671,531.6959 325.0856,538.2413 324.6582,545.0114 325.5144,551.3618 327.7193,557.7769 330.9483,563.3118 335.1713,568.1312 340.2341,572.0591 345.9517,574.9521 352.487,576.7703 359.2545,577.2358 365.6096,576.4155 372.0371,574.2466"/>
    <polygon points="365.9809,577.1742 372.3986,574.9861 378.2615,571.58 383.341,567.0886 387.4393,561.6869 390.3967,555.5854 392.0377,549.3942 392.4907,542.6289 391.606,535.9064 389.4179,529.4887 386.0118,523.6259 381.5204,518.5463 376.1187,514.448 370.0171,511.4906 363.4535,509.7895 356.6837,509.4108 350.3382,510.2814 343.9205,512.4694 338.0576,515.8755 333.2362,520.0918 329.0788,525.4482 326.0546,531.5168 324.2814,538.0613 323.8284,544.8267 324.7132,551.5491 326.9012,557.9669 330.3073,563.8297 334.7987,568.9093 340.2005,573.0076 346.302,575.9649 352.8656,577.6661 359.6355,578.0448"/>
    <polygon points="359.2468,575.5895 365.2347,574.8131 371.314,572.7676 376.5534,569.7666 381.3934,565.5576 385.0926,560.7854 387.962,555.0489 389.562,549.2267 390.0272,542.8294 389.2023,536.4685 387.1209,530.4015 384.0889,525.1799 379.8513,520.365 375.0572,516.6941 369.6571,513.993 363.4722,512.2933 357.0723,511.8661 351.0844,512.6425 345.3503,514.534 339.7657,517.689 334.9257,521.898 331.0262,526.9907 328.3571,532.4067 326.6941,538.6016 326.292,544.6262 327.1168,550.9871 329.0423,556.7098 332.2303,562.2756 336.1924,566.8318 341.2619,570.7615 346.662,573.4626 352.8469,575.1623"/>
    <polygon points="339.7427,573.2081 345.8258,576.2262 352.3796,578.004 359.154,578.4737 365.8905,577.6173 372.3319,575.4675 378.2324,572.1064 383.3669,567.6623 387.5393,562.3046 390.5904,556.238 392.4039,549.6939 392.9104,542.9222 392.0066,535.8128 389.8218,529.3831 386.4287,523.501 381.9567,518.3907 376.5764,514.2475 370.4933,511.2294 363.9395,509.4516 357.1651,508.9819 350.4286,509.8383 343.9872,511.988 338.0867,515.3492 332.9522,519.7933 328.7798,525.151 325.7287,531.2176 323.8524,538.1343 323.4196,544.9111 324.3126,551.6428 326.4973,558.0725 329.8904,563.9546 334.3625,569.0648"/>
    <polygon points="339.5658,573.5826 345.6481,576.5988 352.5692,578.4522 359.3448,578.8794 366.0763,577.9968 372.5128,575.8373 378.4145,572.4815 383.5615,568.0543 387.9643,562.4017 391.1303,555.9741 392.8689,549.4114 393.3142,542.6369 392.4497,535.9031 390.3075,529.4608 386.9676,523.5501 382.2807,518.1307 376.9134,513.9733 370.4944,510.7901 363.9364,509.0339 357.1631,508.5704 350.427,509.4168 343.979,511.5416 337.7505,515.0833 332.369,519.8137 328.2549,525.2142 325.2551,531.3046 323.4813,537.8579 323.0113,545.0074 323.9119,551.7365 326.0887,558.1672 329.6804,564.3669 334.1763,569.454"/>
    <line x1="321.6591" x2="309.568" y1="578.5439" y2="594.1296"/>
    <line x1="307.411" x2="319.5022" y1="592.4562" y2="576.8705"/>
    <polygon points="319.194,576.6315 266.1704,647.8427 321.9673,578.7829"/>
    <line x1="319.8103" x2="295.628" y1="577.1096" y2="608.2809"/>
    <line x1="297.1687" x2="321.351" y1="609.4762" y2="578.3048"/>
    <line x1="321.0429" x2="284.7694" y1="578.0658" y2="624.8228"/>
    <line x1="283.8449" x2="320.1184" y1="624.1057" y2="577.3486"/>
    <line x1="320.4266" x2="272.0619" y1="577.5877" y2="639.9304"/>
    <line x1="272.37" x2="320.7347" y1="640.1694" y2="577.8267"/>
    <polygon points="331.3335,555.7867 334.14,560.7018 338.1109,565.2477 342.6041,568.6894 347.6734,571.2068 353.5038,572.7688 359.1526,573.1228 364.7647,572.3883 370.1322,570.5925 375.3642,567.5826 379.6149,563.8455 383.0711,559.3633 385.6047,554.3021 387.1854,548.4768 387.5437,542.4515 386.7551,536.8468 384.7482,531.1542 381.8475,526.2941 378.0696,522.0796 373.5543,518.6668 368.4689,516.182 362.6287,514.6575 356.9776,514.3398 351.3704,515.1103 345.6714,517.0989 340.802,519.984 336.5754,523.7484 333.1481,528.2526 330.647,533.33 329.1648,538.7924 328.7563,544.4376 329.5204,550.425"/>
    <polygon points="332.3025,519.2827 327.9303,524.9571 324.916,531.0386 323.0481,537.9541 322.6032,545.1037 323.5113,551.8302 325.6802,558.2619 329.2494,564.4727 333.7145,569.5848 339.3888,573.957 345.8239,577.1041 352.3859,578.8392 359.158,579.2968 366.262,578.376 373.0375,576.0511 378.9045,572.6379 384.0166,568.1728 388.3888,562.4985 391.4031,556.417 393.271,549.5015 393.7285,542.7294 392.8078,535.6254 390.6389,529.1937 387.0697,522.9829 382.3288,517.6128 376.9303,513.4985 370.4952,510.3515 363.9332,508.6164 356.7837,508.1714 350.0572,509.0796 343.6255,511.2484 337.4146,514.8177"/>
    <polygon points="362.9955,513.8824 357.3514,513.504 351.367,514.2661 345.653,516.2011 340.437,519.232 336.1842,522.9621 332.4989,527.7383 329.8352,533.1512 328.2992,538.9851 327.952,545.0078 328.7192,550.6123 330.5169,555.9759 333.4988,561.2201 337.1889,565.5077 341.9304,569.2375 347.318,571.9518 353.1373,573.5424 359.1565,573.946 364.768,573.2314 370.1482,571.484 375.4201,568.5513 380.0048,564.6303 383.7199,559.8772 386.4173,554.4811 387.9897,548.6569 388.3745,542.6365 387.6424,537.0273 385.7252,531.3073 382.7105,526.0818 378.9938,521.8174 374.2291,518.1172 368.8246,515.4366"/>
    <polygon points="362.9924,513.4652 356.972,513.1048 350.9976,513.9304 345.3006,515.91 340.1017,518.9671 335.8594,522.7068 332.1744,527.4813 329.4958,532.885 327.9273,538.7086 327.5298,544.7267 328.3186,550.706 330.2631,556.4151 333.2881,561.6328 337.2764,566.157 342.0734,569.8126 347.1404,572.3242 352.9543,573.9285 358.9697,574.3631 364.9538,573.6112 370.6748,571.7019 375.911,568.7091 380.4597,564.7488 384.1448,559.9743 386.8233,554.5706 388.3918,548.747 388.7893,542.7289 388.0005,536.7496 386.056,531.0405 383.031,525.8228 379.0428,521.2986 374.2457,517.643 368.8256,514.9978"/>
    <polygon points="381.196,518.8067 376.1022,514.9215 370.0162,511.929 363.4566,510.2064 357.0627,509.8082 350.34,510.7036 343.9297,512.9178 338.3932,516.141 333.3026,520.6221 329.4033,525.7051 326.5287,531.4303 324.715,537.9653 324.2371,544.7304 325.1138,551.4555 327.1548,557.528 330.5179,563.4174 334.9849,568.5204 340.057,572.4339 345.7742,575.3244 352.3041,577.1562 359.0678,577.653 365.7953,576.795 372.2179,574.6164 378.079,571.2043 382.8877,566.9713 387.0156,561.5903 389.9912,555.496 391.6356,549.3043 392.076,542.5366 391.2478,536.184 389.0871,529.7554 385.6913,523.8848"/>
    <polygon points="385.269,524.7107 381.0977,519.8445 375.7483,515.6706 369.6604,512.6746 363.4628,511.0407 357.0665,510.6313 350.7112,511.4618 344.6349,513.5011 339.0653,516.6727 334.2109,520.8579 330.0523,526.2191 327.2059,531.9618 325.4575,538.5177 325.0664,544.9152 325.915,551.2681 327.9715,557.3386 331.159,562.8991 335.358,567.7415 340.7311,571.8848 346.4818,574.7149 352.67,576.3841 359.0639,576.8299 365.4238,576.0357 371.8563,573.8769 377.4078,570.6736 382.2382,566.4608 386.1665,561.3964 389.0457,555.6701 390.8314,549.1242 391.259,542.7291 390.4466,536.3715 388.4247,530.2894"/>
    <polygon points="390.0036,536.2812 387.9389,530.2118 384.7299,524.6618 380.4997,519.8446 375.4111,515.9451 369.6595,513.1134 363.4659,511.4581 357.0685,511.0429 350.7129,511.8838 344.6436,513.9484 339.0936,517.1575 334.2763,521.3876 330.3769,526.4763 327.5451,532.2279 325.8898,538.4214 325.4747,544.8189 326.3156,551.1744 328.3802,557.2438 331.5893,562.7938 335.8194,567.611 340.908,571.5105 346.6596,574.3422 352.8532,575.9975 359.2507,576.4127 365.6062,575.5718 371.6756,573.5071 377.2255,570.2981 382.0428,566.068 385.9422,560.9793 388.774,555.2277 390.4293,549.0342 390.8444,542.6367"/>
    <polygon points="421.15,497.3374 418.183,497.7644 415.6198,499.3186 414.0326,501.412 413.228,504.2996 413.6178,507.2717 414.8942,509.5678 417.2129,511.4676 420.0901,512.3084 423.067,511.9561 425.6684,510.4668 427.4795,508.0782 428.1846,505.5475 427.8697,502.5665 426.4132,499.9466 424.0475,498.1056"/>
    <polygon points="486.4108,493.0836 485.5815,485.9559 484.0448,478.9466 481.8163,472.1257 479.0867,465.8994 475.5806,459.6385 471.698,454.0579 467.0467,448.5938 462.1578,443.8698 456.5372,439.4088 450.4994,435.5311 444.1048,432.2754 437.4171,429.6743 430.8715,427.8375 423.8069,426.5795 416.652,426.0329 409.4783,426.2032 402.7297,427.0244 395.7245,428.5795 388.9095,430.826 382.3528,433.7416 376.1198,437.2971 370.2729,441.457 365.1427,445.9178 360.4575,450.8439 356.041,456.4995 352.2111,462.5677 349.1585,468.6422 346.6942,474.9782 344.7555,481.8871 343.5636,488.5802 342.9982,495.7336 343.1496,502.9077 344.0164,510.0309 345.5899,517.032 347.7183,523.4886 350.6166,530.053 353.954,535.9758 357.8366,541.5564 362.4878,547.0206 367.3768,551.7446 372.9973,556.2056 379.0351,560.0833 385.4298,563.339 392.1175,565.9401 398.663,567.7769 405.7276,569.0349 412.5049,569.5706 419.6794,569.438 426.8048,568.5899 433.4455,567.1341 440.2722,564.9235 446.8442,562.0425 453.0958,558.5198 458.9646,554.3908 464.1181,549.957 468.8292,545.0556 473.2754,539.4233 477.1372,533.3754 480.376,526.9721 482.8403,520.6361 484.7791,513.7273 485.971,507.0342 486.5364,499.8808"/>
    <line x1="430.3853" x2="502.0576" y1="369.9922" y2="278.7399"/>
    <line x1="501.7495" x2="430.0772" y1="278.4979" y2="369.7501"/>
    <line x1="453.6598" x2="501.4413" y1="339.0907" y2="278.2559"/>
    <line x1="501.1332" x2="477.2424" y1="278.0139" y2="308.4313"/>
    <line x1="478.7831" x2="502.6739" y1="309.6414" y2="279.224"/>
    <line x1="502.3657" x2="454.5842" y1="278.982" y2="339.8168"/>
    <polygon points="445.1546,303.5138 361.1199,456.0224 366.2339,458.7305"/>
    <polygon points="500.825,277.7718 418.2859,385.0798 502.982,279.466"/>
    <polygon points="608.414,425.1206 612.8351,422.9892 616.708,420.6381 620.639,417.6994 624.2562,414.3821 627.5233,410.7195 630.2,407.064 632.705,402.8434 634.7753,398.3934 636.2822,394.1206 637.4617,389.3565 638.1587,384.4982 638.366,379.5946 638.0817,374.6949 637.3852,370.218 636.2781,365.8246 634.6265,361.2028 632.5207,356.7695 629.9819,352.5691 627.0356,348.6439 623.7114,345.0331 620.0425,341.773 616.3818,339.1034 612.1564,336.6065 607.7025,334.5448 603.0645,332.9392 598.6604,331.8758 593.8008,331.1882 589.2744,330.9881 584.749,331.207 579.8923,331.9147 575.4926,332.9963 570.8613,334.6212 566.4159,336.7013 562.2009,339.2158 558.2587,342.1393 554.6288,345.4426 551.5868,348.8003 548.6568,352.7378 546.3143,356.616 544.1928,361.0418 542.5247,365.6576 541.3268,370.4172 540.6112,375.2727 540.3849,380.1755 540.6126,384.7005 541.3296,389.5558 542.5289,394.3151 544.0536,398.5816 546.1422,403.0229 548.6648,407.2331 551.5959,411.1697 554.9062,414.7932 558.5625,418.0674 562.2129,420.7511 566.0956,423.0861 570.5254,425.1992 575.1445,426.8583 579.9063,428.047 584.7633,428.7533 589.6665,428.9701 594.191,428.7338 599.045,428.0073 603.8019,426.7989"/>
    <polygon points="626.7733,570.8451 516.1027,439.623 431.4812,510.9914 542.1519,642.2135"/>
    <line x1="676.7586" x2="421.0392" y1="680.4494" y2="733.9455"/>
    <polygon points="350.6514,690.4993 292.8811,676.0587 279.5676,729.32 337.3379,743.7606"/>
    <polygon points="261.6044,630.3317 256.529,628.7981 258.6248,633.6683"/>
    <line x1="261.3561" x2="260.7585" y1="630.6098" y2="630.0761"/>
    <line x1="259.9126" x2="261.1078" y1="629.8205" y2="630.8878"/>
    <line x1="260.8595" x2="259.0667" y1="631.1659" y2="629.5649"/>
    <line x1="258.2208" x2="260.6112" y1="629.3093" y2="631.4439"/>
    <line x1="260.3629" x2="257.3749" y1="631.722" y2="629.0537"/>
    <line x1="256.8783" x2="259.8663" y1="629.6098" y2="632.2781"/>
    <line x1="259.618" x2="257.2276" y1="632.5561" y2="630.4215"/>
    <line x1="257.5769" x2="259.3697" y1="631.2332" y2="632.8342"/>
    <line x1="259.1214" x2="257.9262" y1="633.1122" y2="632.0449"/>
    <line x1="258.2755" x2="258.8731" y1="632.8566" y2="633.3903"/>
    <line x1="260.1146" x2="256.529" y1="632.0" y2="628.7981"/>
    <line x1="235.9734" x2="235.7485" y1="582.9567" y2="581.4087"/>
    <line x1="235.6077" x2="235.158" y1="583.0099" y2="579.9138"/>
    <line x1="234.5674" x2="235.2419" y1="578.4189" y2="583.063"/>
    <line x1="234.8762" x2="233.9768" y1="583.1161" y2="576.924"/>
    <line x1="233.3863" x2="234.5105" y1="575.4291" y2="583.1692"/>
    <line x1="234.1448" x2="232.7957" y1="583.2223" y2="573.9342"/>
    <line x1="232.2052" x2="233.7791" y1="572.4393" y2="583.2754"/>
    <line x1="233.4134" x2="231.6146" y1="583.3286" y2="570.9444"/>
    <line x1="230.5175" x2="232.3162" y1="571.1037" y2="583.4879"/>
    <line x1="232.6819" x2="230.6583" y1="583.4348" y2="569.5026"/>
    <line x1="231.024" x2="233.0476" y1="569.4495" y2="583.3817"/>
    <line x1="231.9505" x2="230.3766" y1="583.541" y2="572.7049"/>
    <line x1="230.2357" x2="231.5848" y1="574.306" y2="583.5942"/>
    <line x1="231.2191" x2="230.0948" y1="583.6473" y2="575.9072"/>
    <line x1="229.954" x2="230.8533" y1="577.5083" y2="583.7004"/>
    <line x1="230.4876" x2="229.8131" y1="583.7535" y2="579.1094"/>
    <line x1="229.6722" x2="230.1219" y1="580.7106" y2="583.8066"/>
    <line x1="229.7562" x2="229.5313" y1="583.8598" y2="582.3117"/>
    <polygon points="229.3905,583.9129 236.3391,582.9036 230.7288,568.702"/>
    <line x1="204.8633" x2="203.2255" y1="642.999" y2="643.3525"/>
    <line x1="201.6676" x2="204.9432" y1="644.0762" y2="643.3693"/>
    <line x1="205.0231" x2="200.1097" y1="643.7396" y2="644.8"/>
    <line x1="198.5518" x2="205.103" y1="645.5238" y2="644.1099"/>
    <line x1="205.183" x2="196.9939" y1="644.4803" y2="646.2475"/>
    <line x1="195.4359" x2="205.2629" y1="646.9713" y2="644.8506"/>
    <line x1="205.3428" x2="193.878" y1="645.2209" y2="647.695"/>
    <line x1="192.3201" x2="205.4227" y1="648.4188" y2="645.5912"/>
    <line x1="205.5026" x2="190.7622" y1="645.9615" y2="649.1426"/>
    <line x1="189.2043" x2="205.5825" y1="649.8663" y2="646.3318"/>
    <line x1="205.6624" x2="187.6464" y1="646.7021" y2="650.5901"/>
    <line x1="186.0885" x2="205.7424" y1="651.3138" y2="647.0724"/>
    <line x1="205.8223" x2="184.5306" y1="647.4427" y2="652.0376"/>
    <line x1="184.6105" x2="205.9022" y1="652.4079" y2="647.813"/>
    <line x1="205.9821" x2="186.3283" y1="648.1833" y2="652.4248"/>
    <line x1="188.046" x2="206.062" y1="652.4416" y2="648.5536"/>
    <line x1="206.1419" x2="189.7637" y1="648.9239" y2="652.4585"/>
    <line x1="191.4815" x2="206.2218" y1="652.4753" y2="649.2942"/>
    <line x1="206.3018" x2="193.1992" y1="649.6645" y2="652.4922"/>
    <line x1="194.9169" x2="206.3817" y1="652.509" y2="650.0348"/>
    <line x1="206.4616" x2="196.6347" y1="650.4052" y2="652.5259"/>
    <line x1="198.3524" x2="206.5415" y1="652.5427" y2="650.7755"/>
    <line x1="206.6214" x2="200.0701" y1="651.1458" y2="652.5596"/>
    <line x1="201.7879" x2="206.7013" y1="652.5764" y2="651.5161"/>
    <line x1="206.7813" x2="203.5056" y1="651.8864" y2="652.5933"/>
    <line x1="205.2233" x2="206.8612" y1="652.6101" y2="652.2567"/>
    <polygon points="206.9411,652.627 204.7834,642.6287 183.7516,652.3995"/>
    <polygon points="222.8222,683.3072 221.1164,696.8832 230.0643,694.9162"/>
    <line x1="222.8222" x2="225.5904" y1="683.3072" y2="695.8997"/>
    <line x1="225.2175" x2="222.6801" y1="695.9816" y2="684.4385"/>
    <line x1="223.4257" x2="225.9632" y1="684.2746" y2="695.8177"/>
    <line x1="226.336" x2="224.0292" y1="695.7358" y2="685.242"/>
    <line x1="224.6327" x2="226.7089" y1="686.2094" y2="695.6538"/>
    <line x1="227.0817" x2="225.2362" y1="695.5719" y2="687.1768"/>
    <line x1="225.8398" x2="227.4545" y1="688.1443" y2="695.4899"/>
    <line x1="227.8273" x2="226.4433" y1="695.4079" y2="689.1117"/>
    <line x1="227.0468" x2="228.2002" y1="690.0791" y2="695.326"/>
    <line x1="228.573" x2="227.6503" y1="695.244" y2="691.0465"/>
    <line x1="228.2538" x2="228.9458" y1="692.0139" y2="695.1621"/>
    <line x1="229.3187" x2="228.8573" y1="695.0801" y2="692.9814"/>
    <line x1="229.4608" x2="229.6915" y1="693.9488" y2="694.9982"/>
    <line x1="224.8447" x2="222.5379" y1="696.0636" y2="685.5698"/>
    <line x1="222.3958" x2="224.4719" y1="686.7012" y2="696.1456"/>
    <line x1="224.099" x2="222.2536" y1="696.2275" y2="687.8325"/>
    <line x1="222.1115" x2="223.7262" y1="688.9638" y2="696.3095"/>
    <line x1="223.3534" x2="221.9693" y1="696.3914" y2="690.0952"/>
    <line x1="221.8272" x2="222.9806" y1="691.2265" y2="696.4734"/>
    <line x1="222.6077" x2="221.685" y1="696.5553" y2="692.3578"/>
    <line x1="221.5429" x2="222.2349" y1="693.4892" y2="696.6373"/>
    <line x1="221.8621" x2="221.4007" y1="696.7193" y2="694.6205"/>
    <line x1="221.2586" x2="221.4892" y1="695.7518" y2="696.8012"/>
    <polygon points="241.6484,752.0141 135.8768,792.4376 243.1203,756.0985"/>
    <line x1="241.7822" x2="222.4172" y1="752.3854" y2="759.3638"/>
    <line x1="223.6214" x2="242.9865" y1="762.7056" y2="755.7272"/>
    <line x1="242.8526" x2="204.1226" y1="755.3559" y2="769.3127"/>
    <line x1="203.186" x2="241.916" y1="766.7135" y2="752.7567"/>
    <line x1="242.0498" x2="183.9548" y1="753.128" y2="774.0633"/>
    <line x1="184.6238" x2="242.7188" y1="775.9198" y2="754.9846"/>
    <line x1="242.585" x2="165.125" y1="754.6133" y2="782.5269"/>
    <line x1="164.7236" x2="242.1836" y1="781.413" y2="753.4993"/>
    <line x1="242.3174" x2="145.4924" y1="753.8706" y2="788.7627"/>
    <line x1="145.6262" x2="242.4512" y1="789.1341" y2="754.242"/>
    <line x1="257.4885" x2="279.244" y1="789.9609" y2="790.7939"/>
    <line x1="279.2295" x2="259.0279" y1="791.1729" y2="790.3995"/>
    <line x1="259.057" x2="279.2585" y1="789.6413" y2="790.4148"/>
    <line x1="279.273" x2="260.6254" y1="790.0357" y2="789.3217"/>
    <line x1="260.5674" x2="279.215" y1="790.8381" y2="791.552"/>
    <line x1="279.2005" x2="262.1068" y1="791.9311" y2="791.2766"/>
    <line x1="263.6463" x2="279.186" y1="791.7152" y2="792.3102"/>
    <line x1="279.1715" x2="265.1857" y1="792.6892" y2="792.1538"/>
    <line x1="266.7252" x2="279.1569" y1="792.5924" y2="793.0683"/>
    <line x1="279.1424" x2="268.2647" y1="793.4474" y2="793.0309"/>
    <line x1="269.8041" x2="279.1279" y1="793.4695" y2="793.8265"/>
    <line x1="279.1134" x2="271.3436" y1="794.2056" y2="793.9081"/>
    <line x1="272.883" x2="279.0989" y1="794.3467" y2="794.5846"/>
    <line x1="279.0844" x2="274.4225" y1="794.9637" y2="794.7852"/>
    <line x1="275.9619" x2="279.0699" y1="795.2238" y2="795.3428"/>
    <line x1="279.0553" x2="277.5014" y1="795.7219" y2="795.6624"/>
    <polygon points="279.0408,796.101 279.4472,785.4868 257.4885,789.9609"/>
    <line x1="279.2876" x2="262.1939" y1="789.6566" y2="789.0022"/>
    <line x1="263.7624" x2="279.3021" y1="788.6826" y2="789.2775"/>
    <line x1="279.3166" x2="265.3309" y1="788.8985" y2="788.363"/>
    <line x1="266.8994" x2="279.3311" y1="788.0434" y2="788.5194"/>
    <line x1="279.3456" x2="268.4678" y1="788.1403" y2="787.7238"/>
    <line x1="270.0363" x2="279.3601" y1="787.4042" y2="787.7612"/>
    <line x1="279.3746" x2="271.6048" y1="787.3821" y2="787.0847"/>
    <line x1="273.1733" x2="279.3892" y1="786.7651" y2="787.0031"/>
    <line x1="279.4037" x2="274.7418" y1="786.624" y2="786.4455"/>
    <line x1="276.3103" x2="279.4182" y1="786.1259" y2="786.2449"/>
    <line x1="279.4327" x2="277.8787" y1="785.8658" y2="785.8063"/>
    <polygon points="391.06,811.3454 406.8445,810.4213 403.9429,760.8579 388.1584,761.7819"/>
    <line x1="518.3313" x2="498.5639" y1="923.1314" y2="655.0663"/>
    <line x1="515.0661" x2="516.7795" y1="653.2198" y2="653.0255"/>
    <line x1="517.3931" x2="515.1085" y1="653.335" y2="653.5942"/>
    <line x1="515.151" x2="518.0067" y1="653.9686" y2="653.6446"/>
    <line x1="518.6203" x2="515.1935" y1="653.9542" y2="654.3429"/>
    <line x1="515.2359" x2="519.234" y1="654.7173" y2="654.2638"/>
    <line x1="519.8476" x2="515.2784" y1="654.5734" y2="655.0917"/>
    <line x1="515.3209" x2="520.4612" y1="655.466" y2="654.883"/>
    <line x1="521.0748" x2="515.3633" y1="655.1925" y2="655.8404"/>
    <line x1="515.4058" x2="521.6884" y1="656.2148" y2="655.5021"/>
    <polygon points="521.6884,655.5021 514.9387,652.0967 515.8729,660.3329"/>
    <line x1="521.1597" x2="515.4483" y1="655.9413" y2="656.5892"/>
    <line x1="515.4907" x2="520.6311" y1="656.9635" y2="656.3804"/>
    <line x1="520.1024" x2="515.5332" y1="656.8196" y2="657.3379"/>
    <line x1="515.5757" x2="519.5737" y1="657.7123" y2="657.2588"/>
    <line x1="519.045" x2="515.6181" y1="657.6979" y2="658.0866"/>
    <line x1="515.6606" x2="518.5163" y1="658.461" y2="658.1371"/>
    <line x1="517.9877" x2="515.7031" y1="658.5762" y2="658.8354"/>
    <line x1="515.7455" x2="517.459" y1="659.2097" y2="659.0154"/>
    <line x1="516.9303" x2="515.788" y1="659.4545" y2="659.5841"/>
    <line x1="515.8305" x2="516.4016" y1="659.9585" y2="659.8937"/>
    <line x1="516.1659" x2="515.0236" y1="652.7159" y2="652.8455"/>
    <line x1="514.9811" x2="515.5523" y1="652.4711" y2="652.4063"/>
    <line x1="546.0889" x2="605.6637" y1="719.7078" y2="826.5055"/>
    <line x1="605.3402" x2="555.6946" y1="826.6859" y2="737.6878"/>
    <line x1="556.3415" x2="605.9871" y1="737.327" y2="826.3251"/>
    <line x1="606.3106" x2="566.594" y1="826.1446" y2="754.9462"/>
    <line x1="565.3002" x2="605.0168" y1="755.6679" y2="826.8664"/>
    <line x1="604.6934" x2="574.9059" y1="827.0468" y2="773.6479"/>
    <line x1="576.8466" x2="606.634" y1="772.5654" y2="825.9642"/>
    <line x1="606.9575" x2="587.0992" y1="825.7838" y2="790.1846"/>
    <line x1="584.5116" x2="604.3699" y1="791.628" y2="827.2272"/>
    <line x1="604.0465" x2="594.1173" y1="827.4076" y2="809.608"/>
    <line x1="597.3518" x2="607.2809" y1="807.8037" y2="825.6034"/>
    <polygon points="603.723,827.5881 607.6044,825.4229 546.0889,719.7078"/>
    <polygon points="238.9139,497.2484 241.0498,493.2502 242.7769,489.0593 243.9864,485.0838 244.8858,480.6411 245.3385,476.1309 245.357,471.9756 244.9444,467.4615 244.0845,463.011 242.7857,458.6682 241.061,454.4763 238.9275,450.4769 236.4063,446.7099 233.5226,443.2126 230.305,440.0198 226.7856,437.1632 223.324,434.8643 219.3258,432.7285 215.1349,431.0013 210.7929,429.7 206.3428,428.8375 202.2065,428.4398 197.6737,428.4385 193.1632,428.8885 188.7199,429.7854 184.3881,431.1202 180.2106,432.8797 176.5525,434.8508 172.7854,437.3719 169.2881,440.2556 166.0953,443.4732 163.2388,446.9927 160.9399,450.4543 158.8041,454.4524 157.2048,458.2877 155.8675,462.6188 154.968,467.0615 154.5154,471.5717 154.4969,475.7271 154.9094,480.2411 155.7693,484.6917 157.0681,489.0345 158.7928,493.2264 160.9264,497.2258 163.4475,500.9928 166.3312,504.4901 169.5488,507.6829 173.0683,510.5395 176.5299,512.8383 180.528,514.9742 184.3633,516.5735 188.6944,517.9108 193.1371,518.8103 197.6473,519.2629 202.1802,519.2642 206.6907,518.8142 211.1339,517.9173 215.4658,516.5825 219.6432,514.823 223.3014,512.8519 227.0684,510.3307 230.5657,507.447 233.7585,504.2295 236.3906,501.0139"/>
    <polygon points="238.1189,496.9915 240.2666,493.0034 241.8712,489.1736 243.1131,485.2112 244.0417,480.7778 244.4944,476.6502 244.5486,472.1209 244.1438,467.6095 243.284,463.1622 242.1037,459.1811 240.4005,454.9839 238.473,451.306 235.9908,447.5171 233.3887,444.2811 230.221,441.0434 226.7416,438.1433 222.9863,435.6105 219.3345,433.6339 215.1604,431.8748 210.8297,430.5475 206.7602,429.722 202.2545,429.2568 197.7249,429.2504 193.218,429.7029 189.1462,430.517 185.1676,431.7057 180.974,433.4177 176.9754,435.5457 173.5165,437.8432 170.0046,440.704 166.8006,443.9057 163.9374,447.4156 161.6374,450.8729 159.5066,454.87 157.9182,458.7066 156.6931,462.6741 155.7832,467.1114 155.3275,471.618 155.3307,476.1476 155.7928,480.6536 156.6154,484.7237 157.8126,488.6997 159.5334,492.8897 161.4765,496.5595 163.9747,500.3378 166.8429,503.8437 169.7718,506.7871 173.2635,509.6725 176.7061,511.9943 180.3495,513.9863 184.516,515.7631 188.4758,517.0134 192.9072,517.9514 197.0338,518.4128 201.563,518.4766 206.0753,518.0813 210.5243,517.2309 214.8643,515.9342 219.0507,514.2045 223.0402,512.0596 226.4893,509.7474 229.9891,506.8719 232.9263,503.9367 235.8044,500.439"/>
    <polygon points="230.8258,502.0148 233.4657,498.8127 235.7751,495.3647 237.7313,491.7047 239.3151,487.8688 240.5107,483.8948 241.3065,479.8219 241.6903,471.9171 241.2928,467.7862 240.4877,463.7151 239.2829,459.7438 237.6904,455.9116 235.7258,452.2561 233.4085,448.8133 228.0904,442.9525 224.8883,440.3126 221.4403,438.0031 217.7803,436.0469 213.9444,434.4632 209.9704,433.2675 205.8975,432.4717 201.7657,432.0837 197.6158,432.1071 189.7907,433.2906 185.8194,434.4953 181.9871,436.0878 178.3317,438.0524 174.8889,440.3697 169.0281,445.6879 166.3882,448.89 164.0787,452.338 162.1225,455.9979 160.5388,459.8338 159.3431,463.8078 158.5473,467.8808 158.1636,475.7856 158.5611,479.9165 159.3662,483.9876 160.5709,487.9588 162.1634,491.7911 166.2207,498.586 168.8389,501.8058 171.7635,504.7502 174.9655,507.3901 178.4136,509.6995 182.0735,511.6558 185.9094,513.2395 189.8834,514.4352 193.9564,515.2309 201.8612,515.6147 205.992,515.2172 210.0632,514.4121 217.5251,511.7753 221.1981,509.8437 224.6616,507.5576 227.8814,504.9393"/>
    <polygon points="227.1432,498.0139 229.7599,493.4245 231.4353,488.4143 232.1056,483.1741 231.7453,477.9035 230.3682,472.8032 228.0266,468.0676 224.5496,463.6029 220.5318,460.1726 215.9243,457.5881 210.9025,455.9477 205.6577,455.314 200.3898,455.7111 195.2993,457.1238 190.5801,459.4983 186.412,462.7443 182.9538,466.738 180.3372,471.3274 178.6618,476.3376 177.9915,481.5778 178.3517,486.8484 179.7289,491.9487 182.2725,497.0038 185.5475,501.1491 189.5652,504.5793 194.1728,507.1638 199.1945,508.8042 204.4393,509.4379 209.7073,509.0409 214.7978,507.6281 219.517,505.2536 223.685,502.0076"/>
    <polygon points="217.8008,506.5187 213.8869,502.4209 209.5883,498.7286 204.9469,495.4779 200.0077,492.7002 194.8189,490.4228 189.4309,488.6677 183.8963,487.4519 178.2688,486.7874 172.6032,486.6807 166.9546,487.1326 161.3781,488.1389 156.2861,489.5697 151.0016,491.6153 145.9444,494.1717 141.1636,497.2138 136.7059,500.7122 132.6145,504.6328 128.9293,508.9375 125.6862,513.5843 122.9167,518.528 120.6478,523.7205 118.9015,529.1114 117.6949,534.648 117.0397,540.2766 116.9422,545.9424 117.4035,551.5902 118.4189,557.1651 119.9788,562.6128 122.0678,567.8803 124.6656,572.9164 127.747,577.6719 131.0328,581.8166 134.9601,585.9015 139.2708,589.5796 143.9229,592.8151 148.8712,595.5764 154.0675,597.8368 159.4612,599.5742 164.9998,600.7717 170.6295,601.4177 175.9177,601.5173 181.5677,601.084 187.1475,600.096 192.6028,598.5631 197.8806,596.5001 202.9294,593.9272 207.7001,590.8693 212.1463,587.3562 216.2248,583.4222 219.8958,579.1054 223.1236,574.448 225.8768,569.4952 228.1287,564.2952 229.7586,559.2635 230.9834,553.7309 231.6572,548.1044 231.7733,542.439 231.3306,536.7897 230.3335,531.2115 228.7916,525.7587 226.7199,520.4844 224.3261,515.768 221.2918,510.9822"/>
    <polygon points="218.8236,513.8619 222.4921,511.9137 226.2662,509.4066 229.7641,506.5266 232.6966,503.5848 235.3403,500.3811 237.8676,496.6205 239.9972,492.6211 241.5807,488.7811 242.7971,484.8095 243.693,480.368 244.1112,476.2354 244.1233,471.7044 243.7273,467.5697 242.8553,463.1234 241.6602,459.1454 239.9375,454.9546 237.9893,451.2862 235.4822,447.512 232.8557,444.2941 229.6604,441.0817 226.1534,438.2128 222.6961,435.9106 219.0381,433.9427 214.8567,432.1976 210.5187,430.8892 206.4436,430.0853 202.311,429.6671 197.78,429.6549 193.2716,430.1062 189.199,430.923 185.2209,432.1181 181.0302,433.8407 177.3618,435.7889 173.5876,438.2961 170.3697,440.9225 167.1573,444.1178 164.2884,447.6249 161.9862,451.0822 160.0183,454.7401 158.2732,458.9216 157.0568,462.8931 156.1609,467.3347 155.7239,471.8445 155.7305,475.9982 156.1265,480.133 156.9986,484.5793 158.3207,488.913 159.9163,492.748 161.8645,496.4165 164.3717,500.1906 166.9981,503.4085 170.1934,506.621 173.7005,509.4899 177.1578,511.7921 180.8157,513.7599 184.9971,515.5051 188.9687,516.7215 193.4103,517.6174 197.5428,518.0356 202.0738,518.0477 206.5823,517.5965 210.6548,516.7797 214.6329,515.5846"/>
    <polygon points="190.4993,503.9184 194.7971,506.2645 199.4586,507.7631 204.6956,508.3689 209.5762,507.9739 214.6476,506.534 219.0076,504.3054 223.1449,501.0381 226.538,497.0032 228.8997,492.714 230.4152,488.0579 231.04,482.8231 230.5957,477.57 229.2413,472.8645 227.0285,468.4966 223.7762,464.3474 220.0632,461.1553 215.473,458.5624 210.4541,456.9489 205.2128,456.3812 199.9648,456.8826 195.2744,458.2882 190.6155,460.7555 186.8172,463.8456 183.4535,467.905 181.1229,472.2113 179.6412,476.8782 179.0545,482.1174 179.4672,486.9964 180.9254,492.0626 183.1699,496.4145 186.4522,500.5399"/>
    <polygon points="177.7857,510.7458 181.7863,512.8687 185.6312,514.4354 189.6093,515.6243 193.6834,516.4243 197.8156,516.8278 201.9675,516.8312 206.1003,516.4345 210.1757,515.6413 214.5115,514.3325 218.3452,512.7384 222.0074,510.7822 225.464,508.4822 228.6828,505.8597 231.6339,502.9392 234.5157,499.4454 236.8214,495.9926 238.7836,492.3336 240.384,488.5026 241.6078,484.5352 242.4434,480.4683 242.8832,476.3397 242.9231,472.188 242.5626,468.0518 241.7168,463.6025 240.4081,459.2667 238.814,455.4331 236.8578,451.7709 234.5578,448.3143 231.9353,445.0955 229.0148,442.1444 225.8235,439.4885 222.0682,436.9569 218.0675,434.834 214.2226,433.2672 210.2446,432.0783 206.1705,431.2784 202.0383,430.8748 197.8864,430.8714 193.7535,431.2682 189.6781,432.0614 185.6981,433.2437 181.8506,434.8041 177.8465,436.9204 174.3899,439.2205 171.1711,441.8429 168.22,444.7634 165.5641,447.9547 163.0325,451.7101 160.9096,455.7107 159.3428,459.5556 158.1539,463.5337 157.354,467.6078 156.9504,471.74 156.947,475.8919 157.3438,480.0248 158.137,484.1002 159.4457,488.4359 161.0399,492.2696 162.996,495.9318 165.2961,499.3884 167.9185,502.6072 170.839,505.5583 174.3329,508.4401"/>
    <polygon points="184.2372,516.9604 188.5668,518.298 193.0072,519.2019 197.5152,519.6634 202.0466,519.6778 206.5574,519.2451 211.0035,518.3695 215.3415,517.0596 219.1869,515.488 223.2007,513.3847 226.9874,510.8958 230.5101,508.0453 233.7344,504.8612 236.6288,501.3746 239.1651,497.6194 241.1543,493.9725 242.9383,489.807 244.3026,485.4857 245.2339,481.051 245.7232,476.546 245.7656,472.0147 245.3608,467.5013 244.5127,463.0499 243.2295,458.7039 241.5239,454.5057 239.4123,450.4962 236.9156,446.7146 234.0579,443.1978 230.8672,439.9801 227.3746,437.0929 223.6142,434.5643 219.6227,432.419 215.439,430.678 211.1039,429.3583 206.6598,428.4726 202.15,428.0298 197.6186,428.034 193.1096,428.4852 188.6672,429.3791 184.3346,430.7069 180.4957,432.2943 176.4906,434.4141 172.7141,436.9186 169.2032,439.7836 165.9921,442.9809 163.112,446.4794 160.5912,450.245 158.4541,454.2409 156.7218,458.4282 155.4109,462.7659 154.5345,467.2119 154.1009,471.7225 154.1144,476.254 154.5196,480.3883 155.386,484.8362 156.5623,488.8203 158.2507,493.0255 160.3457,497.0437 162.8269,500.8355 165.67,504.364 168.8475,507.5949 172.3281,510.4965 176.0781,513.0405 180.0608,515.2022"/>
    <polygon points="166.6199,494.0651 168.7332,497.1947 173.8165,502.7685 179.8786,507.2582 183.2069,509.0422 187.0483,510.6222 194.3759,512.4148 201.9116,512.7617 209.3729,511.6499 216.4801,509.121 222.9667,505.2699 226.1805,502.6386 228.8441,499.9618 233.3338,493.8996 235.1178,490.5713 236.6978,486.73 238.4904,479.4024 238.8373,471.8667 237.7255,464.4054 235.1966,457.2982 233.234,453.6375 231.1206,450.508 226.0373,444.9342 219.9752,440.4444 216.6469,438.6604 212.8056,437.0805 205.478,435.2878 197.9423,434.941 190.481,436.0528 183.3738,438.5817 176.8872,442.4328 173.6734,445.0641 171.0098,447.7409 166.52,453.803 164.736,457.1314 163.1561,460.9727 161.3634,468.3003 161.0165,475.836 162.1284,483.2973 164.6573,490.4045"/>
    <polygon points="160.2993,492.6064 162.4473,496.5974 164.7689,500.0433 167.6609,503.5331 170.6157,506.4543 173.8337,509.0827 177.2861,511.3946 180.9419,513.3693 184.7681,514.9891 189.0963,516.3343 193.1667,517.1688 197.675,517.6353 201.83,517.6518 205.9678,517.2749 210.4187,516.4192 214.7575,515.1085 218.5965,513.5193 222.5922,511.3798 226.0431,509.0657 229.5391,506.1812 232.4667,503.2327 235.102,500.0204 237.6158,496.249 239.5668,492.5805 241.2886,488.3879 242.479,484.4071 243.3414,479.9575 243.7245,475.8202 243.6937,471.2879 243.2545,467.1562 242.4261,463.0846 241.216,459.1097 239.4734,454.9257 237.5042,451.267 234.9717,447.5081 232.3205,444.3089 229.3784,441.375 225.868,438.5079 222.4057,436.2108 218.7415,434.2519 214.9083,432.6486 210.9405,431.4155 206.5005,430.5051 201.9902,430.0581 197.8352,430.0595 193.3251,430.5094 189.2518,431.3291 185.2743,432.5306 181.0866,434.2642 177.1001,436.4208 173.6593,438.7499 170.4543,441.3942 167.5141,444.33 164.865,447.5309 162.335,451.2915 160.2067,455.2931 158.6282,459.1366 157.3298,463.479 156.5392,467.5581 156.1383,471.6937 156.1495,476.2261 156.5709,480.3597 157.3817,484.4348 158.5747,488.4149"/>
    <polygon points="161.655,483.075 164.116,490.2034 166.0374,493.8842 168.1119,497.038 170.479,499.9786 173.3946,502.9349 179.427,507.4604 186.2116,510.7526 190.1745,511.9919 193.8724,512.7507 201.4008,513.1914 205.536,512.8174 209.2424,512.101 216.3648,509.623 219.7154,507.8841 223.1898,505.6106 228.8188,500.5922 231.2472,497.702 233.585,494.2706 236.861,487.4781 237.9964,483.8779 238.8407,479.8125 239.2634,472.2832 238.8794,468.1488 238.1542,464.4442 237.0774,460.8261 235.4989,456.9857 231.6303,450.5123 229.2492,447.5831 226.3194,444.6409 220.2654,440.1443 216.6021,438.1897 213.1098,436.7565 205.7948,434.9234 198.2644,434.5188 194.131,434.9126 190.4281,435.6468 183.3176,438.1589 179.9754,439.9139 176.512,442.204 173.309,444.8461 170.6533,447.5289 166.1713,453.5937 162.9279,460.4019 161.0422,467.7036 160.611,471.8332 160.5984,475.6082"/>
    <polygon points="153.2959,476.1755 153.7404,480.6825 154.6195,485.1251 155.925,489.4617 157.6444,493.6514 159.7616,497.6548 162.2568,501.4343 165.1064,504.9542 168.5623,508.4363 172.0606,511.3123 175.8211,513.8359 179.8084,515.9833 183.9851,517.7343 188.3117,519.0724 192.7476,519.985 197.6281,520.4836 202.1569,520.487 206.6647,520.0516 211.1091,519.1814 215.4483,517.8848 219.9831,516.013 223.9736,513.8715 227.7378,511.3535 231.2404,508.4826 234.4484,505.2858 237.3315,501.7933 239.8627,498.0379 242.0182,494.0549 243.7776,489.8819 245.2176,485.1921 246.1033,480.7507 246.5545,476.2445 246.567,471.7157 246.1407,467.207 245.1884,462.3944 243.8654,458.0632 242.1291,453.8804 239.9956,449.8856 237.4852,446.1163 234.6214,442.6079 231.4311,439.3935 227.6416,436.278 223.8709,433.7696 219.8749,431.6383 215.3353,429.7782 210.9928,428.4927 206.5462,427.634 202.0372,427.2101 197.5084,427.2251 193.0024,427.6787 188.5615,428.5668 184.2276,429.881 180.0414,431.6089 176.0423,433.7342 172.2679,436.2371 168.7537,439.0938 165.2787,442.5567 162.4097,446.0608 159.8937,449.8264 157.7543,453.8181 156.0118,457.9982 154.6825,462.3275 153.723,467.1387 153.2901,471.6467"/>
    <polygon points="152.8795,475.983 153.3572,480.8704 154.2478,485.3154 155.5617,489.6541 157.2866,493.8464 159.6004,498.1778 162.1261,501.9423 165.0021,505.4465 168.2016,508.658 171.6951,511.547 175.4501,514.0868 179.432,516.2537 183.6037,518.0277 188.2925,519.4873 192.7341,520.3945 197.2423,520.8704 201.7754,520.9107 206.2914,520.515 211.1158,519.5986 215.8186,518.1848 220.0075,516.4515 224.0103,514.3235 227.7899,511.8205 231.3114,508.9657 234.5421,505.7856 237.6792,502.0075 240.2114,498.2474 242.3703,494.2612 244.136,490.0859 245.4921,485.7602 246.4844,480.9508 246.9513,476.4416 246.9654,471.5309 246.5244,467.0191 245.6516,462.5707 244.2284,457.8707 242.4867,453.6854 240.3507,449.6869 237.8401,445.9122 234.9783,442.3965 231.5123,438.9176 228.0073,436.0427 224.2421,433.518 219.91,431.2054 215.7172,429.4816 211.3782,428.169 206.933,427.2797 202.0454,426.8033 197.5121,426.8176 193.0013,427.2677 188.5545,428.1493 184.2132,429.4545 179.6756,431.3321 175.6814,433.4761 171.9118,435.9943 168.4018,438.8632 164.9299,442.3361 162.062,445.8468 159.5449,449.6171 157.402,453.6119 155.5256,458.15 154.2217,462.4918 153.3413,466.9387 152.8925,471.4497"/>
    <polygon points="163.6376,460.8317 161.7966,468.1499 161.4164,475.6865 162.5116,483.1529 165.0401,490.2628 168.9051,496.7441 173.9586,502.3483 180.007,506.8608 186.8184,510.1087 194.1321,511.9676 201.6678,512.3662 209.1367,511.2894 216.2529,508.7783 222.7436,504.9291 228.3601,499.8894 232.8875,493.8521 236.152,487.0486 238.0289,479.7395 238.446,472.2049 237.3874,464.7333 234.8938,457.611 231.0605,451.1109 226.0346,445.482 220.0084,440.9399 213.2129,437.6587 205.9085,435.7639 198.3749,435.3284 190.9007,436.3686 183.7724,438.8448 177.2629,442.6621 174.3193,445.0298 171.3664,447.953 166.8688,454.0123"/>
    <polygon points="169.385,445.9002 166.7394,449.0993 164.4275,452.5473 162.6349,455.8686 161.0215,459.6936 159.7993,463.6609 158.9805,467.7306 158.5734,471.862 158.582,476.0133 158.9507,479.7694 159.7494,483.8432 160.952,487.8165 162.5464,491.6494 164.5167,495.3034 166.6174,498.4389 168.9949,501.3701 171.9062,504.3294 175.0993,506.9823 178.542,509.3021 182.1997,511.2655 185.6805,512.7244 189.645,513.9556 193.7129,514.7837 197.8433,515.2002 201.6174,515.2182 205.7516,514.8409 209.8271,514.0516 213.8032,512.858 217.6397,511.2723 221.2982,509.3104 224.7417,506.9919 227.9358,504.3403 230.8483,501.3821 233.2269,498.4518 235.5231,494.9933 237.4614,491.3223 238.8965,487.8316 240.1006,483.8587 240.9008,479.7853 241.2891,475.6521 241.2615,471.5009 240.8757,467.7465 240.0585,463.6764 238.8378,459.7086 237.3882,456.2239 235.4346,452.561 233.124,449.1121 230.7331,446.1918 227.8083,443.2458 224.6032,440.6075 221.15,438.3034 217.4834,436.3567 213.6403,434.7871 210.0259,433.7006 205.9542,432.891 201.822,432.4934 197.6707,432.5115 193.5421,432.9452 189.8435,433.6966 185.8729,434.9083 182.0437,436.5115 178.7176,438.2952 175.2635,440.5979 172.0573,443.235"/>
    <polygon points="168.6792,445.4669 166.0405,448.6759 163.73,452.1287 161.77,455.7919 160.1796,459.63 158.9742,463.6058 158.1655,467.6809 157.7612,471.8157 157.7653,475.9703 158.1778,480.1043 158.9946,484.1778 160.2078,488.1513 161.8058,491.9862 163.773,495.6455 166.0904,499.0938 171.4029,504.9717 174.6001,507.6247 178.0425,509.9507 181.6969,511.927 185.5278,513.5346 189.4982,514.7578 193.5697,515.5848 197.7027,516.0075 201.8572,516.022 205.993,515.6281 210.0701,514.8295 214.049,513.634 217.891,512.0532 221.5591,510.1024 225.0177,507.8005 228.2332,505.1698 231.1746,502.2358 233.8133,499.0268 236.1239,495.574 238.0838,491.9108 239.6742,488.0727 240.8796,484.0968 241.6884,480.0218 242.0927,475.8869 242.0886,471.7324 241.6761,467.5983 240.8593,463.5248 239.646,459.5514 238.048,455.7164 236.0808,452.0571 233.7635,448.6089 231.1184,445.4052 228.1712,442.4769 221.8114,437.752 218.157,435.7756 214.326,434.1681 210.3556,432.9449 206.2842,432.1179 202.1512,431.6951 197.9967,431.6806 193.8608,432.0746 189.7837,432.8732 185.8049,434.0687 181.9628,435.6494 178.2947,437.6002 174.8362,439.9021 171.6206,442.5329"/>
    <polygon points="180.5762,433.1557 176.5896,435.3032 173.1413,437.6144 169.9204,440.233 166.6979,443.4143 163.8109,446.9029 161.2887,450.6636 159.1566,454.6585 157.5634,458.4917 156.2358,462.8209 155.3494,467.2615 154.9131,471.7687 154.9124,475.9198 155.3473,480.4271 156.2323,484.868 157.5586,489.1977 159.3127,493.3723 161.4769,497.3499 163.8025,500.7885 166.6883,504.278 169.9098,507.4602 173.4344,510.3031 176.9012,512.5864 180.5635,514.5409 184.7449,516.2788 189.0796,517.5883 193.5239,518.4561 197.6558,518.8561 202.184,518.8568 206.6894,518.403 211.1265,517.4994 215.4506,516.155 219.2776,514.547 223.2642,512.3994 227.0151,509.8626 230.4925,506.9622 233.4098,504.0089 236.2674,500.4963 238.5652,497.0391 240.6972,493.0442 242.2904,489.2109 243.618,484.8817 244.5045,480.4411 244.9408,475.934 244.9414,471.7828 244.5065,467.2755 243.6215,462.8346 242.2952,458.505 240.5411,454.3303 238.3769,450.3528 236.0514,446.9142 233.1655,443.4247 230.2245,440.4951 226.7239,437.6228 222.9526,435.1163 218.9488,433.001 215.109,431.4239 210.7742,430.1144 206.3299,429.2466 202.1981,428.8466 197.6699,428.8459 193.1644,429.2996 188.7273,430.2033 184.4033,431.5477"/>
    <polygon points="186.282,435.1941 182.4412,436.7729 178.7797,438.7322 175.6385,440.8266 172.7033,443.2012 169.7421,446.1126 167.0907,449.3086 164.7762,452.7566 162.8225,456.4209 161.3762,459.9084 160.1634,463.88 159.4147,467.5805 158.9882,471.7112 158.9817,475.8639 159.3954,479.996 160.1326,483.6987 161.333,487.6741 162.7684,491.1661 164.7107,494.8365 167.0144,498.2916 169.6559,501.4959 172.6079,504.4166 175.8403,507.0236 178.9943,509.0988 182.6676,511.0357 186.1617,512.4658 190.1389,513.6603 194.2165,514.4463 197.9754,514.7995 202.1281,514.7868 206.2582,514.3541 209.9575,513.5999 213.5718,512.5085 217.4127,510.9297 221.0741,508.9705 224.2154,506.8761 227.4318,504.2494 230.366,501.3108 232.7631,498.394 235.0776,494.9461 237.0314,491.2817 238.4776,487.7943 239.6904,483.8226 240.4391,480.1222 240.8657,475.9914 240.8889,472.216 240.5133,468.0804 239.7213,464.0039 238.5208,460.0285 236.9244,456.195 234.9483,452.5426 232.8394,449.411 230.198,446.2067 227.5263,443.5391 224.3181,440.9024 220.8596,438.6038 217.1862,436.667 213.6921,435.2368 209.7149,434.0423 205.6373,433.2564 201.5011,432.8869 197.7257,432.9158 193.9691,433.2919 189.8963,434.1028"/>
    <polygon points="186.7453,435.8938 182.8955,437.4583 179.5527,439.2187 176.0848,441.5082 173.1524,443.8905 170.2012,446.816 167.7934,449.7274 165.4737,453.1751 163.6841,456.5024 162.0861,460.3384 160.8928,464.3189 160.1701,468.0272 159.7988,471.7869 159.8002,475.9424 160.8992,483.4097 161.9694,487.033 163.5338,490.8828 165.4875,494.5504 167.5838,497.6935 170.2192,500.9064 172.8916,503.577 175.8029,505.9848 179.2507,508.3045 186.0587,511.5634 190.0278,512.794 193.7291,513.5516 197.4852,513.9582 201.6405,513.9959 205.4033,513.6575 209.4853,512.8791 213.1086,511.8088 216.9584,510.2444 220.626,508.2908 223.7691,506.1945 226.982,503.559 229.6526,500.8867 232.2859,497.672 234.3801,494.5275 236.1697,491.2002 237.7677,487.3643 238.961,483.3838 239.6837,479.6755 240.055,475.9158 240.0536,471.7602 238.9547,464.293 237.8844,460.6697 236.32,456.8199 234.5595,453.4771 232.27,450.0092 229.8878,447.0769 226.9623,444.1256 223.7476,441.4924 220.6031,439.3982 217.2758,437.6085 213.4399,436.0105 206.1248,434.151 201.9913,433.7232 198.2133,433.7067 194.0763,434.0984 190.3686,434.8236"/>
    <polygon points="202.0947,431.2849 197.9415,431.276 193.8072,431.6714 189.7309,432.4673 185.7515,433.6561 181.9067,435.2266 178.2329,437.1639 174.7652,439.4495 171.5364,442.0617 168.5772,444.9759 165.6893,448.4666 163.3812,451.9194 161.2597,455.9224 159.6983,459.7709 158.5189,463.7531 157.7326,467.8312 157.347,471.9665 157.3657,476.1197 157.7886,480.2513 158.6115,484.3222 159.8268,488.2936 161.4228,492.1279 163.3844,495.7887 165.6931,499.2411 168.3267,502.4525 171.2604,505.3923 174.4664,508.0326 177.914,510.3484 181.5707,512.3176 185.4017,513.9215 189.3707,515.145 193.4398,515.9763 197.9478,516.4269 202.101,516.4174 206.2335,516.0037 210.3062,515.1898 214.2803,513.9834 218.1181,512.3958 221.7832,510.4423 225.2408,508.1414 228.458,505.5148 231.4043,502.5876 234.0517,499.3875 236.3751,495.945 238.3524,492.2927 239.9648,488.4653 241.1971,484.4991 242.0375,480.4318 242.478,476.302 242.5145,472.1489 242.1466,468.012 241.3778,463.9306 240.0906,459.5869 238.5116,455.7455 236.5662,452.0761 234.273,448.6135 231.6535,445.3905 228.7329,442.4377 225.5387,439.7832 222.1013,437.4522 218.4534,435.4668 214.6295,433.8459 210.6661,432.6049 206.2273,431.698"/>
    <polygon points="205.3643,434.4503 197.8322,434.1321 194.0774,434.5094 190.0093,435.3332 182.9196,437.8964 179.2652,439.8646 176.1373,441.9757 170.5501,447.037 167.9156,450.2445 165.8225,453.3844 164.0364,456.7086 162.4453,460.5423 160.6073,467.8536 160.1819,475.3804 160.5577,479.5141 161.2715,483.2196 162.3333,486.8408 163.8917,490.6878 165.6495,494.0271 167.9387,497.4894 172.9735,503.1006 175.8668,505.5233 179.2984,507.8582 182.6141,509.6601 186.4401,511.2694 190.0469,512.3791 194.1159,513.199 198.2481,513.5903 202.0217,513.5706 209.4785,512.4619 213.0946,511.3829 216.9343,509.8062 220.2651,508.0326 223.7166,505.727 226.9089,503.0742 229.5569,500.3856 234.0313,494.3182 235.8175,490.994 237.4086,487.1604 238.5012,483.5484 239.3017,479.4756 239.6575,475.7188 239.6358,471.5681 238.4917,464.1166 237.3955,460.5056 235.8007,456.6736 234.0113,453.3511 231.6893,449.9107 226.6015,444.3476 223.3816,441.7284 220.2317,439.6502 216.5569,437.7203 213.058,436.3069 209.4408,435.2315"/>
    <polygon points="210.1366,434.5685 206.0679,433.7307 202.3121,433.3336 198.1581,433.302 194.3967,433.6419 190.3158,434.4178 186.692,435.4819 182.8395,437.0356 179.1659,438.975 175.7098,441.2798 172.7871,443.6717 169.8445,446.6039 167.217,449.8214 165.125,452.9659 163.1725,456.6325 161.7311,460.1233 160.528,464.0994 159.7921,467.8037 159.3842,471.9377 159.4009,476.0918 159.7846,479.849 160.6079,483.9207 161.843,487.8869 163.3125,491.366 165.099,494.6935 167.4118,498.1442 170.0652,501.3405 172.7495,503.9971 175.6693,506.3927 179.1225,508.7018 182.4519,510.4847 186.2879,512.079 190.2667,513.2729 193.9727,514.0001 198.1077,514.3984 201.8844,514.392 206.018,513.9796 209.7215,513.2397 213.3403,512.1588 217.1856,510.5871 220.5254,508.8239 223.9922,506.5353 227.2069,503.9043 229.8822,501.2385 232.5247,498.0332 234.6313,494.8986 236.6008,491.2411 238.0584,487.7569 239.1859,484.1524 240.0332,480.0857 240.439,476.3308 240.4803,472.1769 240.1491,468.4147 239.3827,464.332 238.203,460.3489 236.6224,456.5073 234.8514,453.1715 232.5548,449.71 230.1696,446.7818 227.2443,443.8324 224.3358,441.4232 220.8933,439.0981 217.5723,437.2997 213.7438,435.6876"/>
    <polygon points="210.5554,431.7367 206.4871,430.9145 202.3588,430.4844 198.2084,430.4503 193.6998,430.865 189.6253,431.6556 185.2888,432.9572 181.4523,434.5411 177.7845,436.484 174.3189,438.7681 170.806,441.6244 167.8629,444.5511 165.2127,447.7453 162.6837,451.5008 160.5594,455.4991 158.9875,459.3405 157.7893,463.3144 156.976,467.3845 156.5548,471.5136 156.5471,476.0412 156.9542,480.1718 157.8456,484.6108 159.0647,488.5783 160.8197,492.7519 162.8023,496.3983 165.1239,499.8389 167.7633,503.0422 170.6964,505.9789 174.1995,508.8471 177.6573,511.143 181.3185,513.0984 185.1495,514.6953 189.1155,515.9193 193.5534,516.8162 198.0605,517.2463 202.2111,517.2263 206.3407,516.8102 210.4118,516.0019 214.3872,514.8087 218.2305,513.2415 221.9067,511.3145 225.6871,508.823 228.9075,506.2045 231.8633,503.2906 234.5274,500.1079 237.0727,496.3635 239.0518,492.7152 240.6737,488.8946 242.0183,484.5713 242.8494,480.5048 243.2885,476.3775 243.3316,472.2271 242.9784,468.0916 242.1449,463.6414 240.9776,459.6583 239.4355,455.8048 237.3423,451.7902 235.0657,448.3196 232.2171,444.8005 229.2968,441.8511 225.8061,438.9676 222.3583,436.6568 218.7057,434.6855 214.8816,433.0719"/>
    <line x1="216.1322" x2="118.194" y1="404.2634" y2="376.6538"/>
    <line x1="118.0915" x2="196.442" y1="377.0175" y2="399.1052"/>
    <line x1="197.1598" x2="118.8093" y1="396.559" y2="374.4713"/>
    <line x1="118.9119" x2="177.6748" y1="374.1075" y2="390.6733"/>
    <line x1="176.7519" x2="117.989" y1="393.9471" y2="377.3813"/>
    <line x1="117.8864" x2="157.0617" y1="377.745" y2="388.7889"/>
    <line x1="158.1897" x2="119.0144" y1="384.7876" y2="373.7438"/>
    <line x1="119.1169" x2="138.7046" y1="373.38" y2="378.9019"/>
    <line x1="137.3715" x2="117.7839" y1="383.6307" y2="378.1088"/>
    <line x1="118.2966" x2="235.8224" y1="376.29" y2="409.4216"/>
    <line x1="236.13" x2="118.6042" y1="408.3303" y2="375.1988"/>
    <line x1="118.7068" x2="216.6449" y1="374.835" y2="402.4447"/>
    <line x1="255.6151" x2="118.5017" y1="414.216" y2="375.5625"/>
    <line x1="118.3991" x2="255.5126" y1="375.9263" y2="414.5798"/>
    <polygon points="285.917,428.301 280.6542,423.4252 275.2444,419.3102 269.1407,415.5398 262.6925,412.3948 256.3237,410.0205 249.3903,408.1769 242.308,407.0317 235.1469,406.5961 228.3543,406.842 221.2435,407.7944 214.2626,409.4488 207.8316,411.6491 201.6364,414.4453 195.4137,418.0158 189.5767,422.1872 184.1833,426.9182 179.5314,431.8739 175.1506,437.5554 171.3562,443.6442 168.1859,450.08 165.6711,456.7991 163.9158,463.3656 162.7427,470.4433 162.2856,477.2249 162.4982,484.3961 163.4226,491.5106 165.0496,498.498 167.2246,504.9376 170.1675,511.4805 173.7461,517.6986 177.9252,523.5301 182.6632,528.9173 187.9132,533.8068 193.3122,537.936 199.406,541.7224 205.8459,544.8843 212.5683,547.3903 219.1371,549.137 226.2164,550.3008 232.9986,550.7491 240.1694,550.527 247.2827,549.5933 254.268,547.9572 261.056,545.6347 267.2438,542.8223 273.4572,539.2355 278.9872,535.2835 284.3929,530.5667 289.3031,525.3359 293.669,519.6429 297.4474,513.5442 300.6008,507.1001 303.098,500.3744 304.8361,493.8034 305.9906,486.7226 306.43,479.9398 306.1986,472.7692 305.2556,465.6572 303.7141,459.0373 301.4184,452.2402 298.4584,445.705 294.8634,439.4963 290.6691,433.6758"/>
    <polygon points="240.8353,449.7063 238.1249,445.6131 235.26,442.1015 232.0736,438.8789 228.2924,435.7478 224.5322,433.2181 220.5481,431.0582 216.0212,429.1585 211.689,427.8281 207.2496,426.9167 202.7436,426.4325 197.8344,426.395 193.3216,426.8104 188.5018,427.7434 183.804,429.1688 179.6193,430.9086 175.6194,433.0393 171.8408,435.5414 168.0368,438.6448 164.8269,441.844 161.9365,445.3345 159.1962,449.4078 157.0522,453.4005 155.2984,457.5794 153.9509,461.9064 152.9636,466.7154 152.4973,471.2233 152.4793,476.1325 152.9126,480.6437 153.8647,485.4598 155.1806,489.7965 156.9038,493.988 159.2118,498.3209 161.729,502.0896 164.5938,505.6012 168.0594,509.0783 171.5614,511.9549 175.3216,514.4846 179.3058,516.6444 183.4776,518.4148 187.7992,519.7795 192.6042,520.7859 197.4875,521.2911 202.0194,521.3076 206.9062,520.8382 211.3521,519.9593 216.0499,518.5339 220.2346,516.7941 224.2344,514.6634 228.013,512.1613 231.536,509.3104 235.0269,505.8587 237.9173,502.3681 240.6577,498.2948 242.963,493.9605 244.6834,489.7678 245.9965,485.4302 246.8903,480.9873 247.3566,476.4794 247.3745,471.5702 246.8857,466.6853 245.9891,462.2429 244.6732,457.9062 242.9501,453.7146"/>
    <polygon points="243.4202,458.0279 241.6649,453.8517 239.5097,449.867 236.9753,446.1122 234.086,442.6231 230.8693,439.4332 227.3563,436.573 223.5804,434.07 219.578,431.9481 215.3872,430.2277 211.0484,428.9252 206.603,428.0532 202.0936,427.6199 197.5635,427.6295 193.056,428.082 188.6144,428.973 184.2811,430.2939 180.0977,432.0321 176.1043,434.171 172.3392,436.6901 168.8383,439.5652 165.6353,442.7687 162.7608,446.2701 160.2424,450.0357 157.9439,454.3714 156.2406,458.5691 154.9558,462.9133 154.1019,467.3622 153.687,471.8733 153.7151,476.4033 154.186,480.9089 155.0951,485.3469 156.4337,489.6747 158.189,493.851 160.3441,497.8356 162.8785,501.5905 165.7679,505.0796 168.9845,508.2695 172.4976,511.1297 176.2734,513.6327 180.2759,515.7545 184.4666,517.475 188.8055,518.7774 193.2509,519.6495 197.7602,520.0828 202.2904,520.0732 206.7978,519.6207 211.2395,518.7297 215.5728,517.4088 219.7561,515.6705 223.7495,513.5316 227.5147,511.0126 231.0155,508.1375 234.2185,504.9339 237.093,501.4326 239.6114,497.667 241.91,493.3313 243.6133,489.1335 244.898,484.7894 245.752,480.3405 246.1668,475.8294 246.1387,471.2993 245.6679,466.7937 244.7588,462.3558"/>
    <polygon points="279.0975,346.7734 280.1688,344.7824 280.8289,342.6199 281.0521,340.37 280.8298,338.12 279.3054,334.2825 277.9232,332.4932 276.217,331.0098 274.253,329.8897 272.1075,329.1764 269.8638,328.8978 267.609,329.0646 265.4306,329.6703 263.4134,330.6914 261.6356,332.0882 260.1662,333.8066 259.0623,335.7797 258.3667,337.931 258.1065,340.177 258.2918,342.4303 258.9154,344.6036 259.9531,346.6123 261.3645,348.3786 263.0949,349.8338 265.077,350.9215 267.234,351.5993 269.482,351.841 271.7337,351.6372 273.9018,350.9957 275.902,349.9416 277.6566,348.5157"/>
    <polygon points="119.2195,373.0163 117.6813,378.4725 265.3576,417.1589"/>
  </g>
</svg>
