<?xml version="1.0" encoding="utf-8" ?>
<svg xmlns="http://www.w3.org/2000/svg" xmlns:cc="http://creativecommons.org/ns" xmlns:dc="http://purl.org/dc/elements/1.1/" xmlns:ev="http://www.w3.org/2001/xml-events" xmlns:inkscape="http://www.inkscape.org/namespaces/inkscape" xmlns:rdf="http://www.w3.org/1999/02/22-rdf-syntax-ns" xmlns:sodipodi="http://sodipodi.sourceforge.net/DTD/sodipodi-0.dtd" xmlns:xlink="http://www.w3.org/1999/xlink" baseProfile="tiny" height="29.7cm" version="1.2" viewBox="0 0 793.7007874015749 1122.5196850393702" width="21.0cm">
  <metadata>
    <rdf:RDF>
      <cc:Work>
        <dc:format>image/svg+xml</dc:format>
        <dc:source>vsk save -s 85 -c C:\Users\marti\Documents\git\putti-plotter-plot\sixfeet\config\1.json C:\Users\marti\Documents\git\putti-plotter-plot\sixfeet\sketch_sixfeet.py</dc:source>
        <dc:date>2023-11-19T17:46:43.289728</dc:date>
      </cc:Work>
    </rdf:RDF>
  </metadata>
  <defs/>
  <g fill="none" id="layer1" inkscape:groupmode="layer" inkscape:label="1" stroke="#0000ff" style="display:inline">
    <polygon points="216.6201,256.8445 212.0331,254.2121 206.8614,251.8972 201.8424,250.2297 196.6859,249.0545 191.4401,248.3824 185.776,248.2276 180.5013,248.6124 175.2883,249.5044 170.1858,250.8953 165.2414,252.7723 160.1715,255.3026 155.6992,258.1254 151.5202,261.3668 147.6735,264.9963 144.1951,268.9802 141.1174,273.2812 138.4692,277.8591 136.2751,282.6713 134.4516,288.036 133.2586,293.1884 132.5684,298.4319 132.3875,303.7175 132.7175,308.9959 133.5555,314.2179 134.8935,319.3345 136.8678,324.6456 139.1968,329.3939 141.9732,333.8952 145.1711,338.1076 148.7606,341.9917 153.003,345.7477 157.2933,348.8402 161.8621,351.5043 167.0177,353.8548 172.025,355.5569 177.1733,356.7677 182.4144,357.476 187.6993,357.6752 192.9788,357.3633 198.2036,356.5434 203.6854,355.1099 208.6428,353.2671 213.3991,350.9545 217.91,348.1937 222.423,344.7675 226.2946,341.1646 230.036,336.9093 233.1137,332.6084 235.7619,328.0304 237.9559,323.2183 239.6752,318.2168 240.9725,312.7012 241.6627,307.4577 241.8436,302.172 241.5135,296.8936 240.5964,291.3022 239.2231,286.1949 237.3632,281.244 235.0342,276.4957 232.043,271.6834 228.8161,267.4932 225.1999,263.634 221.2281,260.1418"/>
    <line x1="255.0493" x2="314.3837" y1="255.221" y2="284.6407"/>
    <line x1="314.5534" x2="274.9972" y1="284.2983" y2="264.6852"/>
    <line x1="274.6576" x2="314.2139" y1="265.3699" y2="284.983"/>
    <line x1="314.0441" x2="294.266" y1="285.3254" y2="275.5189"/>
    <line x1="294.9451" x2="314.7232" y1="274.1493" y2="283.9559"/>
    <polygon points="314.893,283.6135 255.0493,255.221 313.8744,285.6678"/>
    <line x1="326.9417" x2="299.1206" y1="281.166" y2="278.5961"/>
    <polygon points="299.0829,279.0038 368.7298,284.4092 299.2712,276.9654"/>
    <line x1="299.1583" x2="354.8004" y1="278.1884" y2="283.3281"/>
    <line x1="354.838" x2="299.1959" y1="282.9204" y2="277.7807"/>
    <line x1="299.2336" x2="327.0546" y1="277.373" y2="279.9429"/>
    <line x1="323.4867" x2="308.4806" y1="310.8227" y2="317.0127"/>
    <line x1="308.6221" x2="322.4739" y1="317.3557" y2="311.6419"/>
    <line x1="322.1909" x2="308.3391" y1="310.9558" y2="316.6696"/>
    <line x1="308.1976" x2="320.895" y1="316.3265" y2="311.0889"/>
    <line x1="319.5992" x2="308.0561" y1="311.222" y2="315.9835"/>
    <line x1="307.9146" x2="318.3034" y1="315.6404" y2="311.355"/>
    <line x1="317.0076" x2="307.7731" y1="311.4881" y2="315.2974"/>
    <line x1="307.6315" x2="315.7117" y1="314.9543" y2="311.6212"/>
    <line x1="314.4159" x2="307.49" y1="311.7543" y2="314.6112"/>
    <line x1="307.3485" x2="313.1201" y1="314.2682" y2="311.8874"/>
    <line x1="311.8243" x2="307.207" y1="312.0205" y2="313.9251"/>
    <line x1="307.0655" x2="310.5284" y1="313.5821" y2="312.1536"/>
    <line x1="309.2326" x2="306.924" y1="312.2867" y2="313.239"/>
    <line x1="306.7825" x2="307.9368" y1="312.8959" y2="312.4198"/>
    <line x1="308.7636" x2="321.4611" y1="317.6988" y2="312.4611"/>
    <line x1="320.4483" x2="308.9052" y1="313.2803" y2="318.0419"/>
    <line x1="309.0467" x2="319.4355" y1="318.3849" y2="314.0995"/>
    <line x1="318.4227" x2="309.1882" y1="314.9187" y2="318.728"/>
    <line x1="309.3297" x2="317.4099" y1="319.071" y2="315.738"/>
    <line x1="316.3971" x2="309.4712" y1="316.5572" y2="319.4141"/>
    <line x1="309.6127" x2="315.3843" y1="319.7572" y2="317.3764"/>
    <line x1="314.3715" x2="309.7542" y1="318.1956" y2="320.1002"/>
    <line x1="309.8957" x2="313.3587" y1="320.4433" y2="319.0148"/>
    <line x1="312.3459" x2="310.0373" y1="319.834" y2="320.7863"/>
    <line x1="310.1788" x2="311.3331" y1="321.1294" y2="320.6532"/>
    <polygon points="310.3203,321.4725 323.4867,310.8227 306.641,312.5529"/>
    <line x1="278.7533" x2="276.2782" y1="355.016" y2="360.136"/>
    <line x1="275.941" x2="278.4161" y1="359.973" y2="354.853"/>
    <line x1="277.804" x2="275.6038" y1="355.2589" y2="359.8101"/>
    <line x1="275.2667" x2="277.1918" y1="359.6471" y2="355.6648"/>
    <line x1="276.5796" x2="274.9295" y1="356.0707" y2="359.4841"/>
    <line x1="274.5923" x2="275.9674" y1="359.3211" y2="356.4766"/>
    <line x1="275.3552" x2="274.2551" y1="356.8825" y2="359.1581"/>
    <line x1="273.918" x2="274.743" y1="358.9951" y2="357.2884"/>
    <line x1="274.1308" x2="273.5808" y1="357.6943" y2="358.8321"/>
    <line x1="273.2436" x2="273.5186" y1="358.6691" y2="358.1002"/>
    <line x1="276.6153" x2="278.8155" y1="360.299" y2="355.7479"/>
    <line x1="278.8776" x2="276.9525" y1="356.4798" y2="360.462"/>
    <line x1="277.2897" x2="278.9398" y1="360.625" y2="357.2117"/>
    <line x1="279.0019" x2="277.6268" y1="357.9436" y2="360.788"/>
    <line x1="277.964" x2="279.0641" y1="360.951" y2="358.6755"/>
    <line x1="279.1262" x2="278.3012" y1="359.4074" y2="361.114"/>
    <line x1="278.6384" x2="279.1884" y1="361.277" y2="360.1392"/>
    <line x1="279.2505" x2="278.9755" y1="360.8711" y2="361.44"/>
    <polygon points="279.3127,361.603 278.7222,354.6501 272.9065,358.5061"/>
    <line x1="311.7752" x2="316.6977" y1="455.8401" y2="477.7757"/>
    <line x1="317.0631" x2="312.5508" y1="477.6937" y2="457.5861"/>
    <line x1="311.82" x2="316.3323" y1="457.7501" y2="477.8577"/>
    <line x1="315.9669" x2="311.8648" y1="477.9397" y2="459.66"/>
    <line x1="313.3264" x2="317.4285" y1="459.332" y2="477.6117"/>
    <line x1="317.7939" x2="314.102" y1="477.5297" y2="461.078"/>
    <line x1="314.8776" x2="318.1593" y1="462.824" y2="477.4477"/>
    <line x1="318.5247" x2="315.6532" y1="477.3657" y2="464.5699"/>
    <line x1="316.4288" x2="318.89" y1="466.3159" y2="477.2837"/>
    <line x1="319.2554" x2="317.2044" y1="477.2017" y2="468.0619"/>
    <line x1="317.98" x2="319.6208" y1="469.8079" y2="477.1197"/>
    <line x1="319.9862" x2="318.7556" y1="477.0377" y2="471.5538"/>
    <line x1="319.5312" x2="320.3516" y1="473.2998" y2="476.9557"/>
    <line x1="320.717" x2="320.3068" y1="476.8737" y2="475.0458"/>
    <line x1="315.6015" x2="311.9096" y1="478.0217" y2="461.57"/>
    <line x1="311.9544" x2="315.2361" y1="463.48" y2="478.1037"/>
    <line x1="314.8707" x2="311.9992" y1="478.1857" y2="465.3899"/>
    <line x1="312.044" x2="314.5053" y1="467.2999" y2="478.2677"/>
    <line x1="314.1399" x2="312.0888" y1="478.3497" y2="469.2098"/>
    <line x1="312.1336" x2="313.7745" y1="471.1198" y2="478.4317"/>
    <line x1="313.4091" x2="312.1785" y1="478.5137" y2="473.0298"/>
    <line x1="312.2233" x2="313.0437" y1="474.9397" y2="478.5957"/>
    <line x1="312.6783" x2="312.2681" y1="478.6777" y2="476.8497"/>
    <polygon points="312.3129,478.7597 321.0824,476.7917 311.7752,455.8401"/>
    <polygon points="301.2401,502.9402 300.1238,505.6607 387.4548,539.9077"/>
    <line x1="301.1006" x2="322.7938" y1="503.2803" y2="512.1821"/>
    <line x1="321.9565" x2="300.2633" y1="514.2225" y2="505.3207"/>
    <line x1="300.4028" x2="343.7893" y1="504.9806" y2="522.7842"/>
    <line x1="344.3475" x2="300.961" y1="521.4239" y2="503.6203"/>
    <line x1="300.8215" x2="365.9012" y1="503.9604" y2="530.6658"/>
    <line x1="365.6221" x2="300.5424" y1="531.3459" y2="504.6405"/>
    <line x1="300.6819" x2="387.4548" y1="504.3005" y2="539.9077"/>
    <polygon points="390.8314,534.7904 396.5657,537.653 402.7422,539.3637 409.1321,539.8592 415.4985,539.1212 421.9518,537.0263 427.5379,533.8844 432.6795,529.4575 436.6165,524.4002 439.5116,518.6822 441.2573,512.5155 441.789,506.1285 441.0077,499.3889 439.0289,493.2929 435.7027,487.3794 431.521,482.5225 426.1672,478.3547 420.4329,475.4921 414.2564,473.7814 407.8665,473.2859 401.5001,474.0239 395.393,475.9682 389.4607,479.2607 384.5802,483.4149 380.3821,488.7449 377.3517,494.8154 375.676,501.0015 375.2282,507.7715 376.0744,514.1245 378.1223,520.1976 381.2959,525.7657 385.4776,530.6226"/>
    <line x1="419.245" x2="368.7794" y1="500.3808" y2="455.3383"/>
    <line x1="369.0347" x2="436.3221" y1="455.0523" y2="515.1089"/>
    <line x1="436.5773" x2="369.29" y1="514.8229" y2="454.7663"/>
    <line x1="369.5452" x2="420.0107" y1="454.4803" y2="499.5228"/>
    <line x1="403.4441" x2="369.8005" y1="484.2226" y2="454.1943"/>
    <line x1="370.0557" x2="386.8776" y1="453.9083" y2="468.9225"/>
    <line x1="385.0908" x2="368.2689" y1="470.9244" y2="455.9103"/>
    <line x1="368.5242" x2="402.1679" y1="455.6243" y2="485.6526"/>
    <line x1="382.8403" x2="606.5484" y1="489.6489" y2="332.4093"/>
    <line x1="596.8057" x2="565.1074" y1="334.5807" y2="357.444"/>
    <line x1="564.8803" x2="612.4276" y1="357.129" y2="322.8341"/>
    <line x1="611.9733" x2="564.4259" y1="322.2042" y2="356.4991"/>
    <line x1="564.1987" x2="595.897" y1="356.1841" y2="333.3209"/>
    <line x1="579.8207" x2="563.9715" y1="344.4376" y2="355.8692"/>
    <line x1="564.6531" x2="628.0496" y1="356.8141" y2="311.0875"/>
    <polygon points="628.0496,311.0875 563.7444,355.5542 565.5618,358.0739"/>
    <line x1="581.1837" x2="565.3346" y1="346.3273" y2="357.759"/>
    <line x1="534.2399" x2="546.4038" y1="278.5511" y2="258.9437"/>
    <line x1="546.7194" x2="535.4244" y1="259.1395" y2="277.3464"/>
    <line x1="534.7931" x2="546.0882" y1="276.9547" y2="258.7479"/>
    <line x1="545.7725" x2="535.3463" y1="258.5521" y2="275.3584"/>
    <line x1="536.6088" x2="547.0351" y1="276.1416" y2="259.3353"/>
    <line x1="547.3507" x2="537.7933" y1="259.5311" y2="274.9369"/>
    <line x1="538.9778" x2="547.6663" y1="273.7322" y2="259.7269"/>
    <line x1="547.982" x2="540.1623" y1="259.9227" y2="272.5275"/>
    <line x1="541.3468" x2="548.2976" y1="271.3228" y2="260.1185"/>
    <line x1="548.6132" x2="542.5313" y1="260.3144" y2="270.1181"/>
    <line x1="543.7157" x2="548.9288" y1="268.9133" y2="260.5102"/>
    <line x1="549.2445" x2="544.9002" y1="260.706" y2="267.7086"/>
    <line x1="546.0847" x2="549.5601" y1="266.5039" y2="260.9018"/>
    <line x1="549.8757" x2="547.2692" y1="261.0976" y2="265.2992"/>
    <line x1="548.4537" x2="550.1914" y1="264.0945" y2="261.2934"/>
    <line x1="550.507" x2="549.6381" y1="261.4892" y2="262.8897"/>
    <polygon points="550.8226,261.685 541.985,256.2024 534.2399,278.5511"/>
    <line x1="545.4569" x2="535.8995" y1="258.3563" y2="273.7621"/>
    <line x1="536.4528" x2="545.1413" y1="272.1657" y2="258.1605"/>
    <line x1="544.8256" x2="537.006" y1="257.9646" y2="270.5694"/>
    <line x1="537.5592" x2="544.51" y1="268.9731" y2="257.7688"/>
    <line x1="544.1944" x2="538.1124" y1="257.573" y2="267.3767"/>
    <line x1="538.6656" x2="543.8787" y1="265.7804" y2="257.3772"/>
    <line x1="543.5631" x2="539.2189" y1="257.1814" y2="264.184"/>
    <line x1="539.7721" x2="543.2475" y1="262.5877" y2="256.9856"/>
    <line x1="542.9319" x2="540.3253" y1="256.7898" y2="260.9914"/>
    <line x1="540.8785" x2="542.6162" y1="259.395" y2="256.594"/>
    <line x1="542.3006" x2="541.4317" y1="256.3982" y2="257.7987"/>
    <polygon points="440.4578,333.7912 438.3814,331.116 436.1134,329.1351 433.1833,327.4373 429.9698,326.3688 426.6065,325.974 423.2329,326.2692 420.339,327.1017 417.3242,328.6441 414.9559,330.5039 412.7426,333.0671 411.0949,336.0256 410.161,338.8884 409.7471,342.2495 409.9586,345.2534 410.8393,348.5233 412.3646,351.5468 414.4712,354.1983 416.7615,356.1534 419.7107,357.8178 422.936,358.8498 426.3037,359.2064 429.3035,358.9439 432.558,358.0077 435.5551,356.4312 437.9021,354.5446 440.0862,351.9566 441.5513,349.3258 442.6016,346.1063 442.9773,342.7408 442.663,339.3689 441.8141,336.4798"/>
    <polygon points="435.1874,330.1291 432.5654,328.637 429.7011,327.6894 426.7065,327.3235 423.6984,327.5535 420.7942,328.3704 418.1073,329.7424 415.7426,331.6158 413.7924,333.9176 412.3328,336.5579 411.4207,339.4336 411.0919,342.4325 411.2932,345.0656 412.0741,347.9797 413.4127,350.6833 415.2568,353.071 417.5343,355.0496 420.1563,356.5417 423.0205,357.4893 426.0151,357.8552 429.0233,357.6252 431.9274,356.8083 434.6143,355.4363 436.979,353.5629 438.9293,351.2611 440.3889,348.6208 441.3009,345.7451 441.6298,342.7462 441.3626,339.7412 440.5098,336.8473 439.3089,334.4954 437.4649,332.1077"/>
    <polygon points="433.2794,326.4982 430.0533,325.4675 426.6891,325.077 423.3127,325.3412 419.7001,326.3898 416.707,327.9745 414.0748,330.1056 411.902,332.7034 410.2697,335.6708 409.239,338.8969 408.8484,342.2611 409.1126,345.6375 410.0217,348.9 411.5416,351.9265 413.877,354.8754 416.4749,357.0482 419.4423,358.6805 422.6684,359.7112 426.0325,360.1017 429.409,359.8376 433.0215,358.7889 436.0147,357.2043 438.6468,355.0732 440.8197,352.4753 442.452,349.5079 443.4827,346.2818 443.8732,342.9176 443.609,339.5412 442.7,336.2788 441.1801,333.2522 439.1061,330.5748 436.5556,328.3465"/>
    <polygon points="426.4945,325.5236 423.1162,325.8343 419.8662,326.8071 416.8727,328.4036 414.2542,330.5607 412.1141,333.193 410.6823,335.8482 409.7403,338.714 409.3022,342.0782 409.5381,345.4625 410.4388,348.7333 411.9687,351.7613 414.0673,354.4269 416.6517,356.6247 419.6197,358.2679 422.8541,359.2915 426.2271,359.6552 429.6054,359.3444 432.8555,358.3716 435.8489,356.7751 438.4674,354.618 440.3962,352.2985 442.0394,349.3305 443.063,346.096 443.4266,342.723 443.1836,339.7162 442.2829,336.4454 440.753,333.4174 438.6544,330.7518 436.07,328.554 433.102,326.9108 429.8675,325.8872"/>
    <polygon points="416.0905,327.3058 413.465,329.4454 411.0628,332.3407 409.4444,335.316 408.3193,338.9059 407.9498,342.2726 408.2697,346.0211 409.2043,349.2765 410.9214,352.6238 413.2831,355.5523 416.1906,357.9397 419.1741,359.5427 422.7697,360.6495 426.1383,361.0018 429.8851,360.6627 433.1357,359.7115 436.1572,358.181 439.1215,355.8646 441.5532,352.994 443.2019,350.0354 444.3638,346.4573 444.7741,342.7177 444.4861,339.343 443.4481,335.727 441.6967,332.3974 439.5706,329.7609 436.9975,327.5585 433.7206,325.7104 430.1366,324.5669 426.7718,324.1802 423.0217,324.4809 419.4111,325.5375"/>
    <polygon points="412.9525,333.5549 411.5075,336.2031 410.5019,339.4431 410.1935,342.4441 410.4479,345.4501 411.2564,348.3565 412.5907,351.0622 414.6619,353.7491 417.2482,355.9447 419.8879,357.4051 422.753,358.3497 425.7437,358.7456 428.7558,358.579 432.0397,357.7272 434.7531,356.4087 437.4521,354.3533 439.6627,351.7798 441.1385,349.1487 442.182,345.9206 442.5254,342.9234 442.2393,339.543 441.3969,336.6462 440.0311,333.9563 437.9286,331.2937 435.3169,329.1285 432.6603,327.699 429.4144,326.7123 426.4117,326.4214 423.4072,326.6934 420.5055,327.5188 417.4896,329.0724 415.133,330.9558"/>
    <polygon points="411.0012,339.2479 410.6459,342.238 410.8672,345.2409 411.6571,348.1466 412.9865,350.8483 414.8066,353.247 417.0508,355.2545 419.9792,356.9545 422.8354,357.9078 425.821,358.299 428.8264,358.1137 432.0939,357.2254 434.7795,355.8637 437.1562,354.0149 439.1367,351.7468 440.8015,348.7983 441.7962,345.5615 442.0797,342.5638 441.7864,339.567 440.9271,336.6812 439.5333,334.0121 437.6561,331.6578 435.3645,329.7046 432.3961,328.0753 429.5179,327.1908 426.1468,326.8719 423.1538,327.2011 420.2784,328.095 417.6262,329.5207 415.2946,331.4259 413.369,333.7409 411.9202,336.3805"/>
    <polygon points="443.8628,346.6402 444.3227,342.9002 444.0609,339.5178 443.0308,335.8932 441.4747,332.8786 439.3796,330.2104 436.511,327.767 433.5434,326.1231 430.3196,325.0664 426.5773,324.6261 422.8255,324.9761 419.5772,325.9548 416.5708,327.5267 413.9136,329.6358 411.4854,332.5172 409.8571,335.4934 408.8173,338.7227 408.4032,342.0898 408.694,345.8467 409.6214,349.11 411.1458,352.1407 413.4729,355.1044 416.0555,357.3042 419.0057,358.9793 422.5864,360.153 425.9556,360.5494 429.3393,360.3053 432.9693,359.2943 435.992,357.754 438.6713,355.673 440.9115,353.1253 442.7891,349.8583"/>
    <polygon points="443.6788,355.2048 438.7421,358.6908 433.8933,362.8999 429.7481,367.2977 426.0485,372.0765 422.8292,377.1912 420.1207,382.5937 417.9484,388.2333 416.3326,394.0568 415.2427,400.3844 414.8169,406.4129 414.9772,412.4542 415.7221,418.4516 417.0446,424.3486 419.0685,430.4422 421.5369,435.9586 424.5282,441.2099 428.0141,446.1466 432.2232,450.9954 436.6211,455.1406 441.3998,458.8402 446.5145,462.0594 452.2631,464.9197 457.9157,467.0578 463.7489,468.6382 469.7078,469.646 475.7362,470.0718 481.7776,469.9114 487.775,469.1665 493.672,467.8441 499.7655,465.8202 505.2819,463.3518 510.5332,460.3605 515.767,456.641 520.3187,452.6655 524.4639,448.2676 528.1635,443.4889 531.3828,438.3742 534.0913,432.9716 536.2636,427.3321 537.8794,421.5086 538.9233,415.556 539.3951,409.1525 539.2348,403.1111 538.424,396.7416 537.0658,390.8528 535.1435,385.1232 532.6751,379.6068 529.6838,374.3555 526.1979,369.4187 522.25,364.8429 517.8774,360.6711 512.8122,356.7251 507.6975,353.5059 502.2949,350.7974 496.6554,348.625 490.4631,346.9272 484.5042,345.9193 478.4758,345.4936 472.4344,345.6539 466.437,346.3988 460.54,347.7213 454.7989,349.6088 448.9301,352.2136"/>
    <polygon points="442.3381,387.655 439.7341,389.1788 437.4985,391.205 435.9201,393.3225 434.6169,396.0437 433.9004,398.9745 433.7794,401.6128 434.1353,404.2298 435.1103,407.0851 436.4295,409.3731 438.4119,411.6475 440.8192,413.4662 443.1938,414.6224 446.1102,415.3956 448.7457,415.5678 451.7378,415.1806 454.5867,414.1871 457.1708,412.6297 459.1277,410.856 460.9309,408.437 462.1987,405.6992 462.8259,403.1337 462.9642,400.1197 462.5746,397.5075 461.5627,394.6652 460.214,392.3944 458.2023,390.1458 456.0951,388.5537 453.3824,387.233 450.4563,386.4976 447.8188,386.3595 445.1995,386.6984"/>
    <polygon points="440.2962,389.9215 438.3298,391.6754 436.736,393.7737 435.5742,396.1386 434.8872,398.6825 434.7155,401.6875 435.1082,404.293 435.9932,406.7749 437.3376,409.0411 439.0914,411.0075 441.5132,412.7948 443.9093,413.8911 446.471,414.5077 449.1035,414.6217 451.709,414.229 454.1909,413.344 456.7582,411.7728 458.6755,409.9655 460.2108,407.824 461.3071,405.428 461.9237,402.8662 462.0378,400.2337 461.645,397.6282 460.7601,395.1464 459.4157,392.8802 457.6619,390.9137 455.2401,389.1264 452.844,388.0301 450.2822,387.4135 447.6498,387.2995 445.0443,387.6922 442.5624,388.5772"/>
    <polygon points="441.6725,412.3486 444.0676,413.4531 446.6343,414.06 449.2704,414.1451 451.5056,413.7996 453.993,412.9225 455.9505,411.7896 457.9502,410.0698 459.5685,407.9872 460.741,405.6246 461.421,403.0763 461.5813,400.4437 461.2156,397.8317 460.3385,395.3443 458.9849,393.0806 457.2088,391.1309 455.0807,389.5727 452.6857,388.4681 450.4923,387.9163 447.8597,387.7559 445.2477,388.1216 442.7603,388.9987 440.8028,390.1316 438.8031,391.8514 437.1848,393.934 436.0123,396.2966 435.3323,398.8449 435.172,401.4775 435.5376,404.0896 436.4147,406.5769 437.7683,408.8406 439.5445,410.7904"/>
    <polygon points="446.4237,413.5593 449.0606,413.6914 451.6682,413.2775 453.7951,412.501 456.0559,411.1374 457.735,409.6186 459.3177,407.5053 460.4311,405.1113 461.0276,402.5393 461.1074,400.2766 460.6935,397.669 459.917,395.5422 458.7766,393.5863 457.0346,391.6022 454.9213,390.0195 452.8827,389.0344 450.3296,388.362 447.6926,388.2299 445.4515,388.5516 442.9582,389.4202 440.6973,390.7838 439.0182,392.3027 437.4356,394.4159 436.3221,396.8099 435.7257,399.3819 435.6459,401.6446 436.0598,404.2522 436.8363,406.379 437.9767,408.335 439.7187,410.319 441.5106,411.7029 443.8705,412.8868"/>
    <polygon points="449.3129,415.0757 451.9121,414.6578 454.3888,413.7656 456.6573,412.4298 458.639,410.6969 460.4652,408.3076 461.6172,405.9405 462.3107,403.401 462.5117,400.4004 462.0738,397.4252 461.1816,394.9484 459.8459,392.6799 457.8363,390.4427 455.7237,388.872 453.3566,387.72 450.4452,386.9665 447.8164,386.8256 445.2071,387.1741 442.3645,388.1557 440.096,389.4914 438.1142,391.2243 436.288,393.6136 435.136,395.9807 434.3826,398.8921 434.2416,401.5208 434.5902,404.1302 435.5717,406.9728 437.1319,409.5437 438.917,411.4786 441.354,413.2405 443.751,414.3291 446.3081,414.9547"/>
    <polygon points="457.2459,409.4588 458.8519,407.3756 459.8483,405.3519 460.5202,402.8089 460.6534,400.5571 460.286,397.9525 459.5352,395.8255 458.186,393.5675 456.6687,391.8984 454.8717,390.5348 452.5031,389.391 450.3179,388.8315 448.0672,388.6811 445.4599,389.0285 443.3271,389.7631 441.3646,390.8752 439.6386,392.3275 438.2073,394.071 436.9736,396.394 436.3308,398.5562 436.0951,401.176 436.3416,403.4182 437.1407,405.9242 438.2378,407.8951 439.9467,409.8947 441.7225,411.2856 444.0734,412.4656 446.6215,413.118 448.8742,413.234 451.4759,412.8466 453.5971,412.0795 455.5423,410.9373"/>
    <polygon points="468.6026,416.5444 464.372,418.1737 460.3166,420.2003 456.4737,422.6055 452.5912,425.6128 449.3014,428.7322 446.3252,432.1519 443.6897,435.8407 441.4192,439.7647 439.5344,443.8879 437.9479,448.5356 436.918,452.9506 436.3153,457.4439 436.1505,462.3521 436.4506,466.8757 437.182,471.3499 438.4532,476.0935 440.0572,480.3338 442.0595,484.4012 444.4416,488.2585 447.4256,492.159 450.7976,495.7293 454.2233,498.6988 457.9173,501.3269 461.8458,503.5896 465.9728,505.4661 470.6236,507.0433 475.4128,508.1303 479.9119,508.6882 484.4437,508.8131 488.9667,508.504 493.4394,507.7637 498.1805,506.483 502.4176,504.8705 506.481,502.8602 510.3334,500.4703 514.228,497.4786 517.5302,494.3724 520.7542,490.6678 523.5771,486.6492 525.8005,482.6984 527.6358,478.5529 529.066,474.2509 530.0782,469.8318 530.6923,464.9593 530.8083,460.4273 530.4901,455.9049 529.6591,451.0647 528.4507,446.6952 526.8298,442.4614 524.6257,438.0727 522.1975,434.2443 519.1671,430.3798 516.0281,427.1088 512.5905,424.1531 508.886,421.5397 504.9485,419.2927 500.8141,417.4327 496.157,415.874 491.7359,414.8707 487.2391,414.2948 482.7078,414.1517 477.8082,414.4866 472.9697,415.3272"/>
    <polygon points="457.8252,424.6175 454.2409,427.3903 450.9543,430.5102 447.9988,433.9453 445.6063,437.3414 443.3663,441.2807 441.5347,445.4257 440.1301,449.7341 439.1668,454.1621 438.6798,458.2877 438.5857,462.8183 438.901,466.9606 439.5977,471.056 440.7855,475.4291 442.408,479.6603 444.263,483.3774 446.6686,487.2178 449.2036,490.5089 452.3027,493.8151 455.7192,496.7922 459.1001,499.2061 463.0252,501.4709 467.1585,503.3286 471.458,504.7604 475.8798,505.7516 480.0023,506.2646 484.5322,506.3872 488.6764,506.0981 493.1454,505.3475 497.516,504.1505 501.398,502.6713 505.457,500.6564 509.2922,498.2426 512.578,495.7007 515.6149,492.8661 518.6135,489.4685 521.2545,485.786 523.3382,482.1921 525.2219,478.0706 526.6808,473.7803 527.6321,469.7364 528.2389,465.2456 528.3901,460.7166 528.0842,456.1953 527.4048,452.097 526.2353,447.7189 524.6307,443.4809 522.7913,439.7561 520.4019,435.9056 517.6366,432.3156 514.7956,429.2847 511.3916,426.2932 508.0209,423.8651 504.1054,421.5838 499.9799,419.7088 495.6865,418.2589 491.2689,417.2491 486.772,416.6895 482.2416,416.5859 478.0986,416.8925 473.6328,417.6618 469.2673,418.8772 465.3915,420.3727 461.3411,422.4047"/>
    <polygon points="451.7932,424.7009 448.5036,427.8136 445.2842,431.5154 442.6579,435.2049 440.2143,439.4589 438.3502,443.5864 436.7744,448.2323 435.6755,453.0136 435.0647,457.8813 434.9483,462.7858 435.2807,467.3024 436.0326,471.7684 437.3127,476.5044 439.0642,481.087 441.2693,485.4694 443.6879,489.2983 446.698,493.1723 449.8107,496.4618 453.5125,499.6813 457.2021,502.3075 461.4561,504.7512 465.935,506.7531 470.593,508.2927 475.3827,509.3544 479.8784,509.9007 484.783,510.0172 489.2996,509.6847 493.7656,508.9329 498.5015,507.6528 502.7381,506.0523 507.1376,503.8814 511.2955,501.2776 514.8824,498.5128 518.459,495.1548 521.6784,491.453 524.3047,487.7634 526.7483,483.5094 528.7502,479.0305 530.2898,474.3724 531.3515,469.5828 531.8979,465.087 532.0229,460.5599 531.6819,455.6659 530.93,451.1999 529.6499,446.464 527.8984,441.8814 525.8785,437.8279 523.2747,433.67 520.5099,430.0831 517.1519,426.5065 513.4501,423.2871 509.7605,420.6608 505.5065,418.2171 501.0276,416.2153 496.7332,414.7773 491.9519,413.6784 487.0842,413.0676 482.1796,412.9512 477.663,413.2836 473.197,414.0355 468.4611,415.3156 463.8785,417.0671 459.496,419.2722 455.3585,421.9082"/>
    <polygon points="443.0893,445.8843 441.7801,449.8275 440.79,454.2503 440.2933,458.3754 440.1941,462.5291 440.4936,466.6732 441.1888,470.7695 442.2735,474.7803 443.7376,478.6687 445.7516,482.7289 447.9615,486.2473 450.4985,489.5378 453.6115,492.8317 456.7536,495.5503 460.1417,497.9552 463.7448,500.0243 467.5295,501.7385 471.8246,503.1854 476.2475,504.1754 480.3726,504.6722 484.5263,504.7713 488.6703,504.4719 492.7666,503.7766 496.7774,502.692 500.6658,501.2279 504.726,499.2139 508.2445,497.004 511.8216,494.2209 514.8288,491.3539 517.5474,488.2119 519.9523,484.8237 522.1922,480.8836 523.8733,477.084 525.1825,473.1408 526.1078,469.0903 526.6406,464.9697 526.7759,460.817 526.469,456.2951 525.7738,452.1988 524.5715,447.8289 523.0735,443.9535 521.211,440.2394 519.0011,436.721 516.2181,433.1438 513.3511,430.1366 510.209,427.418 506.8209,425.0131 502.8807,422.7733 499.0812,421.0921 495.1379,419.7829 491.0874,418.8577 486.9668,418.3249 482.8141,418.1895 478.2923,418.4964 474.196,419.1917 470.1851,420.2764 466.2968,421.7405 462.2366,423.7544 458.7181,425.9644 455.4277,428.5013 452.3956,431.342 449.4152,434.7565 447.0103,438.1446 444.7704,442.0847"/>
    <polygon points="442.6157,449.8406 441.6744,453.8847 441.1323,458.0015 440.9945,462.1515 441.2625,466.2951 441.9337,470.3928 443.0015,474.4054 444.456,478.2946 446.283,482.0234 448.4653,485.5559 450.982,488.8587 453.809,491.9 456.9193,494.6508 460.2833,497.085 463.8688,499.1792 467.9926,501.0527 471.9285,502.3755 475.9748,503.3079 480.0927,503.8408 484.243,503.9693 488.386,503.6921 492.4822,503.0119 496.4924,501.9351 500.3784,500.4721 504.1031,498.6367 507.6308,496.4466 511.2151,493.6774 514.2248,490.8168 516.941,487.6761 519.3376,484.2853 521.3919,480.6768 523.0841,476.8849 524.3982,472.9461 525.3216,468.8978 525.8454,464.7786 525.9647,460.6281 525.6783,456.4857 524.9889,452.391 523.9032,448.3832 522.4315,444.5004 520.5879,440.7799 518.39,437.257 515.8587,433.9655 513.0182,430.9368 509.8957,428.1998 506.5209,425.7806 502.9261,423.7023 499.1457,421.9849 495.2157,420.6446 490.8019,419.6275 486.6816,419.1129 482.5308,419.0028 478.3891,419.2984 474.2959,419.9968 470.2905,421.0914 466.4111,422.5717 462.6946,424.4236 459.1767,426.6294 455.8908,429.168 452.8684,432.0152 450.1383,435.1438 447.7266,438.5239 445.6564,442.1233 443.9473,445.9076"/>
    <polygon points="439.6007,454.0169 439.0955,458.1418 438.9772,462.296 439.2906,466.8184 440.0624,471.2855 441.2845,475.651 442.9443,479.8695 444.8356,483.57 447.2825,487.3862 449.8559,490.6493 452.9968,493.9182 456.1546,496.6199 459.5505,499.0153 463.4921,501.2548 467.2883,502.9457 471.5895,504.3777 476.014,505.3648 480.139,505.87 484.2931,505.9882 488.8155,505.6749 492.9136,504.9848 497.2893,503.7998 501.5218,502.1758 505.2382,500.316 509.075,497.9016 512.3599,495.356 515.393,492.515 518.3838,489.1082 521.0125,485.4149 523.2519,481.4734 525.0788,477.3245 526.3748,473.376 527.297,469.3238 527.8671,464.8265 527.9769,460.2945 527.672,456.1499 526.9002,451.6828 525.7969,447.6761 524.3247,443.7898 522.3131,439.7273 519.8988,435.8904 517.3531,432.6056 514.2401,429.3101 511.1054,426.5817 507.7299,424.1575 503.8075,421.8847 499.6743,420.0226 495.3731,418.5906 491.3209,417.6685 486.8236,417.0984 482.2917,416.9886 478.147,417.2935 474.0489,417.9836 469.6733,419.1686 465.787,420.6408 461.7244,422.6524 458.1977,424.8507 454.6027,427.6124 451.3073,430.7254 448.5788,433.8601 445.9501,437.5534 443.8818,441.158 442.0198,445.2912 440.5878,449.5923"/>
    <polygon points="439.6694,466.5825 440.3428,470.6793 441.5131,475.0543 442.9749,478.9402 444.9784,483.0018 447.3878,486.8365 449.9314,490.1178 452.7723,493.1454 456.1808,496.1275 459.8771,498.7443 463.4849,500.7986 467.6217,502.6418 471.5617,503.9507 475.6074,504.8832 480.0991,505.4619 484.249,505.5851 488.7671,505.2739 492.861,504.5829 497.2309,503.3939 501.456,501.7631 505.1635,499.8946 508.9879,497.4688 512.2583,494.9112 515.5342,491.7841 518.2411,488.6362 520.6401,485.2477 522.8809,481.3121 524.7064,477.1674 525.9984,473.2219 526.9137,469.1723 527.4731,464.6781 527.5687,460.1503 527.248,456.0109 526.5395,451.9201 525.3318,447.5553 523.8368,443.6821 521.7986,439.6378 519.5748,436.1318 516.7848,432.5644 513.6438,429.3018 510.4843,426.6084 507.0855,424.224 503.1404,422.0 499.3409,420.3265 495.4009,419.0177 491.3552,418.0851 486.8635,417.5065 482.7136,417.3833 478.1955,417.6945 474.1016,418.3854 469.7316,419.5744 465.5066,421.2053 461.7991,423.0737 458.2837,425.2825 454.7043,428.0572 451.4284,431.1842 448.7215,434.3322 446.1205,438.0396 444.0816,441.6563 442.2561,445.8009 440.9642,449.7465 440.0489,453.7961 439.5185,457.9138 439.3841,462.4406"/>
    <polygon points="445.2186,478.0232 447.0555,481.7507 449.2544,485.2768 451.7935,488.5665 454.6475,491.587 457.788,494.3084 464.4644,498.5777 468.2522,500.2868 472.1913,501.6103 476.2427,502.535 480.366,503.0518 488.2891,502.8902 496.0383,501.232 499.9335,499.7842 503.6652,497.9558 507.1963,495.7649 510.4917,493.2333 516.0122,487.5478 518.4456,484.1792 520.5316,480.5851 523.4769,473.2281 524.4475,469.1875 525.0109,465.0703 525.1616,460.9175 524.8981,456.7703 524.2229,452.6699 523.1429,448.6572 519.9986,441.383 517.8157,437.8469 515.2916,434.5457 512.4513,431.5123 509.3231,428.7768 505.9381,426.3663 502.3299,424.3048 498.5344,422.6129 494.5892,421.3072 490.5337,420.4009 486.4081,419.9029 478.4859,420.1004 474.3902,420.8034 470.3849,421.9107 463.1322,425.1044 459.6111,427.3113 456.3272,429.8578 453.3132,432.7186 450.5989,435.8654 448.2115,439.2667 446.1747,442.8888 443.3296,450.2852 441.9358,458.0863 441.804,462.2398 442.0863,466.3858 443.762,474.1313"/>
    <polygon points="448.8821,491.3757 451.7358,494.3906 455.1465,497.3693 458.5179,499.7913 462.4295,502.0727 466.5476,503.956 470.8318,505.4227 475.24,506.4585 479.7291,507.0531 484.255,507.2008 488.7733,506.9001 493.2397,506.1539 497.6104,504.9695 501.8425,503.3587 505.8945,501.3371 509.7267,498.9246 513.3014,496.1449 516.5837,493.0253 519.3079,489.893 521.9423,486.2099 524.1994,482.2842 526.0572,478.1545 527.4973,473.8614 528.5058,469.4468 529.0726,464.9541 529.1994,460.8048 528.908,456.2859 528.171,451.818 526.9957,447.4449 525.3936,443.2095 523.3804,439.1533 520.9759,435.3161 518.2036,431.7357 515.3624,428.7091 511.964,425.7163 508.2863,423.0743 504.3654,420.8091 500.2395,418.9428 495.9493,417.4938 491.5368,416.4762 487.0453,415.9001 482.5189,415.7711 478.0018,416.0905 473.5386,416.8551 469.1728,418.0575 464.9474,419.6858 461.2328,421.539 457.3907,423.9357 453.8045,426.7006 450.5094,429.8067 447.5377,433.2235 444.9186,436.9174 442.6777,440.8524 440.8369,444.9897 439.5167,448.9254 438.4901,453.3358 437.9047,457.8261 437.7664,462.3522 438.0764,466.8699 438.8318,471.3348 440.0252,475.703 441.6448,479.9318 443.6747,483.9796 446.0951,487.8068"/>
    <polygon points="447.5122,492.8782 450.6509,496.1472 454.0855,499.1039 457.7849,501.7217 462.0529,504.1478 466.5474,506.1227 470.8562,507.5273 475.2787,508.5169 480.152,509.1106 484.6828,509.2117 489.2028,508.8828 494.04,508.0446 498.4071,506.8337 502.9853,505.0612 507.0292,503.0155 510.861,500.5957 514.4461,497.8234 517.7522,494.7237 520.9845,491.0286 523.8202,487.0211 526.0598,483.0812 527.9157,478.9468 529.4741,474.2914 530.5461,469.5006 531.0942,465.0019 531.2132,460.4715 530.8569,455.5752 529.9996,450.7414 528.7714,446.379 527.1351,442.1528 524.9192,437.7721 522.2651,433.6421 519.4504,430.0902 516.3117,426.8211 512.8771,423.8644 509.1777,421.2466 504.9097,418.8206 500.4152,416.8456 496.1064,415.4411 491.6839,414.4514 486.8106,413.8577 482.2798,413.7566 477.7598,414.0856 472.9226,414.9237 468.5555,416.1346 464.3228,417.7542 460.2627,419.7678 456.1015,422.3727 452.5164,425.1449 449.2104,428.2447 445.9781,431.9397 443.1424,435.9472 440.9028,439.8871 438.9101,444.3737 437.4885,448.677 436.4165,453.4678 435.8684,457.9664 435.7494,462.4968 436.1057,467.3931 436.963,472.227 438.1912,476.5893 439.9818,481.1604 442.0434,485.1963 444.6975,489.3262"/>
    <polygon points="454.2505,498.2053 457.9262,500.8519 461.8399,503.1319 466.306,505.1636 470.5962,506.6157 475.3782,507.7142 479.872,508.28 484.3995,508.41 488.9185,508.103 493.3868,507.3619 497.7628,506.1934 502.3522,504.4582 506.4067,502.4391 510.2476,500.0386 513.8393,497.2791 517.4102,493.9143 520.3782,490.4928 523.0025,486.8012 525.4295,482.5371 527.2635,478.3956 528.6898,474.0967 529.695,469.6803 530.2698,465.1875 530.4008,460.2828 530.0665,455.7658 529.2984,451.302 528.1036,446.9331 526.3407,442.3543 524.2972,438.3121 521.8735,434.4857 519.0924,430.9108 515.7061,427.3602 512.2668,424.4129 508.5594,421.8109 504.6185,419.5783 500.4808,417.736 496.1847,416.3012 491.7703,415.2871 487.2788,414.7032 482.3743,414.5624 477.8566,414.8876 473.3913,415.6467 469.02,416.8327 464.4376,418.5864 460.3914,420.6218 456.5601,423.0377 452.9796,425.8117 449.4222,429.1908 446.468,432.6242 443.8586,436.3263 441.6181,440.2627 439.7674,444.3967 438.2225,449.0536 437.235,453.474 436.6783,457.969 436.5574,462.4968 436.8735,467.0151 437.6236,471.4819 438.8008,475.8556 440.3942,480.0955 442.3888,484.162 444.9808,488.328 447.7475,491.9141 450.8471,495.2168"/>
    <polygon points="461.923,504.5345 466.4174,506.5054 470.7246,507.91 475.5169,508.9674 480.0152,509.5058 484.9216,509.6092 489.4386,509.2607 494.2712,508.4061 498.6337,507.1842 502.862,505.5577 507.2479,503.3559 511.0783,500.9366 514.9511,497.9224 518.2366,494.8032 521.4479,491.0921 524.0627,487.3925 526.4893,483.1268 528.3331,478.9886 529.882,474.3319 530.9488,469.5417 531.496,465.0445 531.6181,460.5158 531.2695,455.6206 530.4243,450.7863 529.211,446.4214 527.5928,442.1899 525.3995,437.7997 522.9878,433.9646 519.9812,430.0859 516.8684,426.7942 513.1636,423.5757 509.1504,420.7511 505.2082,418.5187 501.0737,416.6668 496.42,415.1087 491.6319,414.0325 487.1358,413.4765 482.6073,413.3455 477.7114,413.6846 473.2442,414.4385 468.5083,415.725 463.9279,417.487 459.8791,419.5196 456.0393,421.9238 452.1547,424.9228 448.8569,428.0291 445.6311,431.7276 442.7986,435.7352 440.5585,439.673 438.6985,443.8039 437.1313,448.4545 436.1118,452.8687 435.4809,457.7356 435.3487,462.6414 435.6705,467.1603 436.4967,471.9978 437.6929,476.3674 439.2945,480.6052 441.4705,485.004 443.8671,488.8486 446.8586,492.739 449.9584,496.0429 453.6505,499.2759 457.6526,502.1163"/>
    <polygon points="460.0214,516.7013 462.3226,524.3185 468.3415,518.344"/>
    <line x1="460.1309" x2="460.8138" y1="517.0641" y2="516.8578"/>
    <line x1="461.6062" x2="460.2405" y1="517.0142" y2="517.4268"/>
    <line x1="460.3501" x2="462.3986" y1="517.7895" y2="517.1707"/>
    <line x1="463.191" x2="460.4597" y1="517.3271" y2="518.1522"/>
    <line x1="460.5693" x2="463.9834" y1="518.515" y2="517.4835"/>
    <line x1="464.7757" x2="460.6788" y1="517.64" y2="518.8777"/>
    <line x1="460.7884" x2="465.5681" y1="519.2404" y2="517.7964"/>
    <line x1="466.3605" x2="460.898" y1="517.9529" y2="519.6031"/>
    <line x1="461.0076" x2="467.1529" y1="519.9659" y2="518.1093"/>
    <line x1="467.9453" x2="461.1172" y1="518.2657" y2="520.3286"/>
    <line x1="461.2268" x2="468.0549" y1="520.6913" y2="518.6285"/>
    <line x1="467.4817" x2="461.3363" y1="519.1975" y2="521.054"/>
    <line x1="461.4459" x2="466.9085" y1="521.4168" y2="519.7665"/>
    <line x1="466.3352" x2="461.5555" y1="520.3355" y2="521.7795"/>
    <line x1="461.6651" x2="465.762" y1="522.1422" y2="520.9045"/>
    <line x1="465.1887" x2="461.7747" y1="521.4735" y2="522.5049"/>
    <line x1="461.8842" x2="464.6155" y1="522.8677" y2="522.0425"/>
    <line x1="464.0423" x2="461.9938" y1="522.6115" y2="523.2304"/>
    <line x1="462.1034" x2="463.469" y1="523.5931" y2="523.1805"/>
    <line x1="462.8958" x2="462.213" y1="523.7495" y2="523.9558"/>
    <polygon points="513.403,496.5897 516.704,493.4835 519.6841,490.0684 522.3147,486.3773 524.5704,482.4458 526.4293,478.312 527.8735,474.0156 528.8891,469.5983 529.4662,465.1026 529.5993,460.5719 529.2872,456.0501 528.5327,451.5807 527.3432,447.207 525.7302,442.9711 523.7093,438.914 521.3,435.0748 518.5255,431.4906 515.4126,428.196 511.9914,425.2229 508.2949,422.5998 504.3588,420.3522 500.2211,418.5018 495.9218,417.0664 491.5024,416.0599 487.0055,415.4919 482.4746,415.3681 477.9534,415.6895 473.4856,416.4531 469.1143,417.6516 464.8818,419.2732 460.8288,421.3025 456.9945,423.7197 453.7036,426.2564 450.39,429.349 447.3958,432.7519 444.7501,436.4322 442.4784,440.3544 440.6026,444.4806 439.1408,448.771 438.1071,453.1841 437.5116,457.6774 437.3599,462.2075 437.6536,466.7306 438.3897,471.203 439.5613,475.5815 441.1569,479.824 443.1612,483.8894 445.5548,487.7384 448.3146,491.3339 451.414,494.6412 454.823,497.6284 458.5087,500.2666 462.4355,502.5303 466.5656,504.3976 470.859,505.8506 475.2742,506.8752 479.7687,507.4616 484.2991,507.604 488.8215,507.3011 493.2924,506.5558 497.6686,505.3752 501.9078,503.7709 505.969,501.7583 509.8131,499.3568"/>
    <polygon points="514.1849,491.4399 517.1713,488.0367 519.5799,484.6563 521.6504,481.059 523.3636,477.2784 524.7034,473.3498 525.6572,469.3102 526.2472,464.8211 526.3695,460.6722 526.0902,456.531 525.4121,452.4361 524.3413,448.4259 522.8879,444.5379 521.0656,440.8087 518.8914,437.273 516.3856,433.964 513.3016,430.649 510.1819,427.9113 506.8121,425.4879 503.2239,423.4015 499.0998,421.5327 495.1655,420.2102 490.75,419.2086 486.6301,418.704 482.4807,418.6 478.3407,418.8974 474.2488,419.5936 470.2433,420.682 466.3618,422.1525 462.6406,423.9912 459.1145,426.1809 455.5292,428.9459 452.5153,431.7998 449.7913,434.9316 447.1802,438.6305 445.1414,442.246 443.4615,446.0416 442.1564,449.9817 441.1742,454.4016 440.6877,458.5237 440.6019,462.6735 440.9176,466.8121 441.6318,470.9009 442.7378,474.9015 444.2253,478.7765 446.0804,482.4896 448.2856,486.006 450.8204,489.2928 453.661,492.3193 457.0772,495.2907 460.4682,497.6843 464.0746,499.7391 467.8627,501.4356 471.7971,502.7581 475.8409,503.6941 479.9562,504.235 484.4819,504.3684 488.6219,504.0709 492.7138,503.3747 496.7193,502.2863 500.6008,500.8158 504.322,498.9771 507.8481,496.7874 511.146,494.2671"/>
    <line x1="504.7121" x2="490.008" y1="481.171" y2="445.2334"/>
    <polygon points="523.4645,448.3406 521.9741,444.4632 520.1088,440.7517 517.8867,437.2421 515.3294,433.9686 512.462,430.9632 509.3122,428.2551 505.9108,425.8706 502.291,423.8331 494.9027,420.9754 490.8539,420.0468 486.7333,419.5219 482.581,419.4057 478.4375,419.6994 474.3431,420.4001 470.3377,421.501 466.4604,422.9914 462.7488,424.8567 459.2392,427.0788 455.9658,429.636 452.9603,432.5035 450.2522,435.6533 447.8678,439.0546 445.8302,442.6745 444.1594,446.4776 442.8717,450.4268 441.519,458.2322 441.4028,462.3845 441.6965,466.528 442.3972,470.6224 443.4981,474.6278 444.9885,478.5051 446.8538,482.2166 449.0759,485.7262 451.6332,488.9997 457.3532,494.4801 460.733,496.8949 464.3344,498.9649 468.1224,500.6698 472.0599,501.9929 476.1087,502.9215 480.2293,503.4464 484.3816,503.5626 488.5251,503.2689 492.6195,502.5682 496.6249,501.4673 500.5022,499.977 504.2138,498.1116 507.7234,495.8895 510.9968,493.3323 514.0022,490.4648 516.7104,487.3151 519.0948,483.9137 521.1324,480.2938 522.8032,476.4907 524.0909,472.5415 524.9831,468.4845 525.4711,464.3594 525.2661,456.4403 524.5654,452.346"/>
    <polygon points="525.0109,447.8714 523.5311,443.9907 521.5049,439.9385 519.288,436.4264 516.5014,432.8541 513.6346,429.8489 510.4955,427.1294 506.7937,424.5174 503.1793,422.4714 499.3871,420.7777 495.4512,419.4516 491.0354,418.4383 486.9151,417.9156 482.7638,417.7864 478.2439,418.0955 474.1488,418.7885 469.7789,419.9841 465.9013,421.4722 461.8535,423.5072 458.3462,425.7317 454.7799,428.526 451.781,431.3993 449.0683,434.5443 446.4642,438.2517 444.426,441.8705 442.7405,445.6664 441.423,449.6052 440.4192,454.0231 439.9054,458.1445 439.7852,462.296 440.0595,466.4403 440.8059,470.9089 441.8933,474.9173 443.3562,478.8044 445.3649,482.8653 447.5667,486.387 450.3377,489.9713 453.1916,492.9888 456.3189,495.7218 460.0094,498.3499 463.6149,500.4115 467.3998,502.1215 471.3299,503.4646 475.3698,504.4285 479.8592,505.0375 484.0099,505.1846 488.5312,504.8951 492.9982,504.1391 497.0043,503.043 500.8882,501.5717 504.6149,499.7383 508.1508,497.5595 511.753,494.8117 515.0513,491.7058 517.7776,488.5725 520.3976,484.8764 522.4514,481.2665 524.1533,477.4779 525.5905,473.1813 526.5107,469.1313 527.0423,465.0121 527.1735,460.4835 526.8812,456.3405 526.1155,451.8751"/>
    <polygon points="525.0874,443.5184 523.086,439.4546 520.6889,435.6108 517.9201,432.0256 514.8071,428.7347 511.6779,426.0047 507.9951,423.3671 504.4031,421.2832 500.2852,419.3954 495.9995,417.9281 491.5887,416.896 487.097,416.3094 482.569,416.1741 478.0502,416.4915 473.5857,417.2585 469.579,418.3499 465.3423,419.9533 461.2869,421.9716 457.7632,424.1691 454.1665,426.923 450.8626,430.0221 447.8847,433.4357 445.2624,437.1294 443.022,441.0665 441.1858,445.2076 439.8735,449.1475 438.8597,453.5626 438.3219,457.6803 438.1678,462.2076 438.4664,466.7277 439.1354,470.8262 440.2895,475.2066 441.8752,479.45 443.8766,483.5138 446.0594,487.0466 448.7982,490.6547 451.8836,493.9715 455.2847,496.9636 458.9675,499.6012 462.8953,501.8581 467.0287,503.7115 471.3265,505.143 475.3739,506.0723 479.8656,506.659 484.3936,506.7943 488.9123,506.4768 493.3769,505.7099 497.3836,504.6184 501.6203,503.015 505.6757,500.9967 509.5094,498.5837 513.0831,495.7999 516.361,492.6733 519.0779,489.5327 521.7002,485.8389 523.9406,481.9018 525.6397,478.1126 527.0891,473.8208 528.0353,469.7773 528.6406,465.288 528.7948,460.7607 528.4962,456.2406 527.8272,452.1421 526.6731,447.7617"/>
    <polygon points="529.6992,456.0955 528.9559,451.6259 527.7815,447.2497 526.1871,443.0086 524.1877,438.9426 521.8023,435.0904 519.0536,431.4885 515.6961,427.9083 512.2778,424.9343 508.5864,422.3068 504.657,420.0509 500.5268,418.1877 496.235,416.7352 491.8223,415.7069 486.9539,415.083 482.4244,414.9652 477.905,415.2885 473.4385,416.0499 469.0672,417.2421 464.8325,418.8537 460.7747,420.8696 456.9322,423.2706 453.0547,426.2798 449.7749,429.4059 446.8148,432.8363 444.2024,436.5383 441.9624,440.4768 440.116,444.6145 438.6809,448.9122 437.6705,453.3291 437.0946,457.8233 436.9584,462.3522 437.2634,466.8729 438.0066,471.3425 439.2981,476.0777 440.9269,480.3058 442.9592,484.3554 445.3758,488.1881 448.1537,491.7677 451.2665,495.06 454.6848,498.0341 458.3762,500.6615 462.3056,502.9175 466.4358,504.7806 471.0913,506.3352 475.5122,507.3276 480.0087,507.8854 484.5381,508.0031 489.0576,507.6798 493.5241,506.9184 497.8954,505.7263 502.13,504.1146 506.1879,502.0987 510.3397,499.481 513.9079,496.6886 517.1876,493.5624 520.1478,490.132 522.7602,486.4301 525.0002,482.4915 526.8466,478.3538 528.2817,474.0561 529.292,469.6393 529.868,465.1451 530.0042,460.6161"/>
    <line x1="453.4569" x2="431.2495" y1="458.5927" y2="583.1019"/>
    <line x1="373.7368" x2="382.6288" y1="610.5881" y2="630.6902"/>
    <line x1="379.2564" x2="370.3644" y1="632.1819" y2="612.0799"/>
    <line x1="370.7016" x2="388.4857" y1="611.9307" y2="652.1348"/>
    <line x1="391.1836" x2="373.3996" y1="650.9414" y2="610.7373"/>
    <line x1="373.0623" x2="399.7383" y1="610.8865" y2="671.1926"/>
    <line x1="397.7149" x2="371.0389" y1="672.0876" y2="611.7815"/>
    <line x1="371.3761" x2="406.9441" y1="611.6324" y2="692.0405"/>
    <line x1="408.2931" x2="372.7251" y1="691.4438" y2="611.0357"/>
    <line x1="372.3878" x2="416.8479" y1="611.1848" y2="711.695"/>
    <line x1="416.1734" x2="371.7134" y1="711.9933" y2="611.4832"/>
    <line x1="372.0506" x2="425.4026" y1="611.334" y2="731.9462"/>
    <polygon points="425.4026,731.9462 374.074,610.439 370.0272,612.2291"/>
    <line x1="434.4201" x2="414.2062" y1="733.5387" y2="755.5201"/>
    <polygon points="413.9264,755.2629 416.1646,757.321 495.9011,668.3663"/>
    <line x1="414.486" x2="454.9138" y1="755.7774" y2="711.8146"/>
    <line x1="456.0328" x2="415.605" y1="712.8436" y2="756.8065"/>
    <line x1="415.8848" x2="436.0987" y1="757.0637" y2="735.0823"/>
    <line x1="415.3253" x2="475.9669" y1="756.5492" y2="690.6049"/>
    <line x1="475.4074" x2="414.7657" y1="690.0904" y2="756.0347"/>
    <line x1="415.0455" x2="495.9011" y1="756.2919" y2="668.3663"/>
    <polygon points="504.8325,704.2338 503.3591,705.9456 502.267,707.9226 501.682,709.7126 501.396,711.953 501.5743,714.2046 502.2093,716.3721 503.2743,718.3638 504.4582,719.8283 506.1826,721.2869 508.169,722.362 509.9639,722.9315 512.2067,723.1984 514.4567,723.0008 516.6186,722.3471 518.2868,721.4735 520.0554,720.0686 521.4992,718.3318 522.5572,716.3363 523.1113,714.5365 523.3588,712.2915 523.1419,710.0433 522.6124,708.2361 521.5818,706.2264 520.1619,704.47 518.7241,703.2538 516.7565,702.1448 514.9715,701.5445 512.7337,701.2392 510.4807,701.3982 508.3078,702.0146 506.6248,702.8595"/>
    <polygon points="502.1119,710.0941 501.8954,712.3373 502.0854,714.2067 502.7487,716.3604 503.857,718.3226 505.0842,719.7455 506.8622,721.1302 508.5424,721.9715 512.2145,722.6965 514.4584,722.4888 516.2591,721.9519 517.935,721.1021 519.7059,719.7084 521.138,717.9683 522.0242,716.3114 522.6765,714.1543 522.857,712.284 522.6291,710.042 522.0761,708.2461 521.2112,706.5779 519.8017,704.8196 518.3616,703.6126 516.384,702.532 514.2212,701.899 512.3493,701.7354 510.1095,701.9833 508.3187,702.5525 506.6583,703.4322 504.9127,704.8575 503.5121,706.6229 502.6558,708.2955"/>
    <polygon points="508.0716,726.8648 455.1843,827.67 511.6129,728.8036"/>
    <line x1="508.3935" x2="498.4557" y1="727.041" y2="745.193"/>
    <line x1="501.3531" x2="511.2909" y1="746.7793" y2="728.6273"/>
    <line x1="510.969" x2="491.0934" y1="728.4511" y2="764.755"/>
    <line x1="488.8399" x2="508.7155" y1="763.5212" y2="727.2173"/>
    <line x1="509.0374" x2="479.224" y1="727.3935" y2="781.8495"/>
    <line x1="480.8337" x2="510.6471" y1="782.7307" y2="728.2748"/>
    <line x1="510.3251" x2="470.5739" y1="728.0986" y2="800.7064"/>
    <line x1="469.6081" x2="509.3593" y1="800.1777" y2="727.5698"/>
    <line x1="509.6813" x2="459.9923" y1="727.7461" y2="818.5059"/>
    <line x1="460.3142" x2="510.0032" y1="818.6821" y2="727.9223"/>
    <polygon points="516.629,722.8851 518.6385,721.8439 520.4049,720.4289 521.8594,718.695 522.9457,716.7095 523.6215,714.5496 523.8607,712.2991 523.6539,710.0453 523.0092,707.8759 521.9515,705.875 520.522,704.1204 518.7762,702.6801 516.7819,701.6102 514.6165,700.9521 512.364,700.7315 510.1121,700.9568 507.948,701.6194 505.9559,702.6935 504.2131,704.1373 502.7872,705.8949 501.7338,707.898 501.0935,710.0688 500.8914,712.3229 501.1352,714.573 501.8156,716.7315 502.906,718.7147 504.3641,720.4456 507.7962,722.749 509.9505,723.4426 512.199,723.7002 514.4544,723.512"/>
    <polygon points="522.1852,719.1062 523.4518,716.8004 524.1146,714.6438 524.3615,712.4012 524.1838,710.1521 523.4491,707.626 522.3928,705.6324 520.9816,703.8721 519.2656,702.4073 517.3055,701.2901 514.8033,700.4779 512.5607,700.231 510.3115,700.4087 508.1355,701.0047 505.7918,702.1997 504.0315,703.6109 502.5668,705.3269 501.3001,707.6326 500.6373,709.7892 500.3904,712.0318 500.6388,714.6509 501.3028,716.8071 502.3591,718.8007 503.7703,720.561 505.4863,722.0257 507.4464,723.143 509.9487,723.9552 512.1913,724.2021 514.4404,724.0244 516.6164,723.4284 518.9601,722.2334 520.7204,720.8222"/>
    <polygon points="521.6359,708.4963 520.5605,706.5069 519.3402,705.0691 516.2061,703.0015 512.5297,702.2384 508.8316,702.8879 505.6353,704.8579 504.1515,706.5646 503.2351,708.2127 502.4025,711.874 502.5162,713.7563 503.116,715.9368 505.1462,719.0953 508.1999,721.28 510.3478,721.9876 512.2222,722.1946 514.1021,722.0454 516.2708,721.4044 519.3903,719.3148 520.8084,717.5532 521.6618,715.8716 522.3552,712.1814"/>
    <polygon points="497.8938,733.201 502.6423,728.889 506.2399,724.0397 508.9897,718.2448 510.4707,712.3911 510.8078,705.9858 509.8582,699.6422 507.6603,693.6163 504.5302,688.453 500.4842,683.9709 495.3442,680.1339 489.8968,677.5293 483.6832,675.9376 477.2769,675.6195 470.9362,676.5878 464.9168,678.8035 459.7627,681.9489 455.0398,686.289 451.4709,691.1595 448.7555,696.9706 447.3091,702.8328 447.0099,709.2401 447.997,715.5779 450.2305,721.5907 453.3911,726.7355 457.7452,731.4455 462.6262,735.0 468.0889,737.5724 474.3118,739.1273 480.7199,739.4074 486.6888,738.4959 492.3794,736.4774"/>
    <polygon points="548.1943,730.7121 549.105,733.5809 550.355,735.9 552.2508,738.2378 554.5721,740.1536 557.2271,741.5714 560.1103,742.435 563.1076,742.7103 566.0999,742.3861 568.9686,741.4755 571.2878,740.2254 573.6256,738.3297 575.5414,736.0083 576.9592,733.3534 577.8228,730.4701 578.098,727.4729 577.7739,724.4806 576.8633,721.6118 575.6132,719.2926 573.7175,716.9549 571.3961,715.0391 568.7411,713.6213 565.8579,712.7576 562.8607,712.4824 559.8684,712.8065 556.9996,713.7172 554.6804,714.9672 552.3427,716.863 550.4269,719.1844 549.0091,721.8393 548.1454,724.7226 547.8702,727.7198"/>
    <line x1="528.0964" x2="526.4056" y1="631.9715" y2="623.6106"/>
    <line x1="526.3454" x2="528.4589" y1="621.447" y2="631.8981"/>
    <line x1="528.8214" x2="526.2852" y1="631.8248" y2="619.2835"/>
    <line x1="526.225" x2="529.1839" y1="617.12" y2="631.7515"/>
    <line x1="529.5464" x2="526.1647" y1="631.6782" y2="614.9564"/>
    <line x1="527.9772" x2="531.3589" y1="614.5899" y2="631.3117"/>
    <line x1="530.9964" x2="527.192" y1="631.385" y2="612.573"/>
    <line x1="526.1045" x2="529.9089" y1="612.7929" y2="631.6049"/>
    <line x1="530.2714" x2="526.0443" y1="631.5316" y2="610.6294"/>
    <line x1="526.4068" x2="530.6339" y1="610.556" y2="631.4583"/>
    <line x1="531.7213" x2="528.7624" y1="631.2384" y2="616.6068"/>
    <line x1="529.5476" x2="532.0838" y1="618.6237" y2="631.1651"/>
    <line x1="532.4463" x2="530.3328" y1="631.0918" y2="620.6406"/>
    <line x1="531.118" x2="532.8088" y1="622.6576" y2="631.0185"/>
    <line x1="533.1713" x2="531.9032" y1="630.9452" y2="624.6745"/>
    <line x1="532.6884" x2="533.5338" y1="626.6914" y2="630.8719"/>
    <line x1="533.8963" x2="533.4736" y1="630.7985" y2="628.7083"/>
    <line x1="527.7339" x2="526.4658" y1="632.0448" y2="625.7741"/>
    <line x1="526.526" x2="527.3714" y1="627.9376" y2="632.1181"/>
    <line x1="527.0089" x2="526.5862" y1="632.1914" y2="630.1012"/>
    <polygon points="526.6464,632.2647 534.2588,630.7252 526.0142,609.5476"/>
    <line x1="661.3133" x2="557.4413" y1="580.0118" y2="874.292"/>
    <line x1="449.128" x2="313.6957" y1="779.1178" y2="511.1138"/>
    <polygon points="370.311,453.6224 368.0137,456.1963 444.8606,522.473"/>
    <polygon points="428.7368,424.1545 565.9001,624.6317 649.1498,567.6736 511.9866,367.1964"/>
    <polygon points="386.6711,256.63 387.3303,252.6169 376.0913,252.8315"/>
    <line x1="386.7311" x2="384.7475" y1="256.2652" y2="255.9394"/>
    <line x1="386.791" x2="382.8239" y1="255.9004" y2="255.2487"/>
    <line x1="380.9003" x2="386.8509" y1="254.5581" y2="255.5355"/>
    <line x1="386.9108" x2="378.9767" y1="255.1707" y2="253.8675"/>
    <line x1="379.1565" x2="387.0906" y1="252.773" y2="254.0762"/>
    <line x1="387.0307" x2="377.113" y1="254.4411" y2="252.812"/>
    <line x1="377.0531" x2="386.9708" y1="253.1768" y2="254.8059"/>
    <line x1="387.1505" x2="381.2" y1="253.7114" y2="252.734"/>
    <line x1="383.2434" x2="387.2105" y1="252.695" y2="253.3466"/>
    <line x1="387.2704" x2="385.2869" y1="252.9818" y2="252.656"/>
    <polygon points="225.882,470.2569 222.6892,463.8425 218.297,458.1813 212.8772,453.4946 206.9862,450.1198 200.2018,447.8153 193.0966,446.8901 185.9482,447.3806 179.0359,449.2674 172.6298,452.4769 167.2549,456.6246 162.5259,462.0076 158.9481,468.2156 156.7478,474.6383 155.7671,481.7361 156.2017,488.888 158.0345,495.8148 161.1938,502.2458 165.5564,507.9298 170.9517,512.6447 177.169,516.2063 183.5974,518.39 190.6977,519.3521 197.8485,518.8989 204.7705,517.0481 211.1933,513.872 216.8659,509.4947 221.3467,504.3941 224.9568,498.2049 227.279,491.4265 228.2226,484.3237 227.7508,477.1741"/>
    <polygon points="189.3286,504.7517 185.9201,508.891 199.9728,516.9895"/>
    <line x1="189.0851" x2="190.8492" y1="505.0473" y2="506.4999"/>
    <line x1="192.3698" x2="188.8416" y1="508.2482" y2="505.343"/>
    <line x1="188.5982" x2="193.8904" y1="505.6387" y2="509.9965"/>
    <line x1="195.411" x2="188.3547" y1="511.7447" y2="505.9343"/>
    <line x1="188.1112" x2="196.9316" y1="506.23" y2="513.493"/>
    <line x1="195.9577" x2="187.1374" y1="514.6757" y2="507.4127"/>
    <line x1="187.3809" x2="197.9653" y1="507.117" y2="515.8326"/>
    <line x1="198.4522" x2="187.8678" y1="515.2413" y2="506.5257"/>
    <line x1="187.6243" x2="199.9728" y1="506.8213" y2="516.9895"/>
    <line x1="193.9502" x2="186.8939" y1="513.5187" y2="507.7083"/>
    <line x1="186.6505" x2="191.9427" y1="508.004" y2="512.3618"/>
    <line x1="189.9351" x2="186.407" y1="511.2049" y2="508.2997"/>
    <line x1="186.1635" x2="187.9276" y1="508.5953" y2="510.0479"/>
    <polygon points="167.4063,553.3461 161.798,555.5529 157.0332,558.5918 152.667,562.7465 149.2088,567.6825 146.7949,573.2049 145.5209,579.0957 145.4369,585.122 146.5464,591.0459 148.6321,596.2984 151.8887,601.3697 155.7971,605.4516 160.7224,608.9253 166.2373,611.3563 172.124,612.6486 178.1501,612.7513 184.0775,611.6603 189.672,609.4186 194.7127,606.1148 198.758,602.1684 202.1855,597.211 204.5649,591.6736 205.8023,585.7751 205.8488,579.7483 204.8084,574.1935 202.5842,568.592 199.2961,563.5411 195.3623,559.4835 190.4155,556.0406 184.8856,553.644 178.9909,552.3882 172.9643,552.323"/>
    <line x1="230.4153" x2="232.2386" y1="555.37" y2="568.8838"/>
    <line x1="232.6147" x2="230.4875" y1="568.833" y2="553.0669"/>
    <line x1="230.5597" x2="232.9907" y1="550.7639" y2="568.7823"/>
    <line x1="233.3668" x2="230.6319" y1="568.7316" y2="548.4608"/>
    <line x1="232.1362" x2="234.8711" y1="548.2579" y2="568.5286"/>
    <line x1="234.495" x2="231.4563" y1="568.5793" y2="546.0563"/>
    <line x1="230.7041" x2="233.7429" y1="546.1578" y2="568.6808"/>
    <line x1="234.119" x2="230.7763" y1="568.6301" y2="543.8547"/>
    <line x1="232.8162" x2="235.2472" y1="550.4594" y2="568.4779"/>
    <line x1="235.6233" x2="233.4961" y1="568.4271" y2="552.661"/>
    <line x1="234.1761" x2="235.9993" y1="554.8626" y2="568.3764"/>
    <line x1="236.3754" x2="234.856" y1="568.3257" y2="557.0641"/>
    <line x1="235.536" x2="236.7515" y1="559.2657" y2="568.2749"/>
    <line x1="237.1276" x2="236.2159" y1="568.2242" y2="561.4673"/>
    <line x1="236.8959" x2="237.5036" y1="563.6688" y2="568.1734"/>
    <line x1="237.8797" x2="237.5758" y1="568.1227" y2="565.8704"/>
    <polygon points="238.2558,568.072 230.7763,543.8547 229.9821,569.1882"/>
    <line x1="231.8625" x2="230.3431" y1="568.9345" y2="557.673"/>
    <line x1="230.2709" x2="231.4864" y1="559.976" y2="568.9853"/>
    <line x1="231.1104" x2="230.1987" y1="569.036" y2="562.2791"/>
    <line x1="230.1265" x2="230.7343" y1="564.5821" y2="569.0867"/>
    <line x1="230.3582" x2="230.0543" y1="569.1375" y2="566.8852"/>
    <polygon points="296.2073,650.6266 295.3341,644.6565 293.3279,638.9661 290.0398,633.4643 285.9783,629.0023 281.1338,625.4055 275.6877,622.8086 269.8434,621.3086 263.4424,620.9787 257.475,621.87 251.7906,623.8933 246.6021,626.9729 242.1034,630.9938 238.2671,636.1284 235.6867,641.5824 234.2043,647.4311 233.8755,653.4559 234.7126,659.4312 236.6842,665.1336 239.7167,670.3499 243.6965,674.8849 248.796,678.7677 254.2264,681.3976 260.0614,682.9329 266.4603,683.3016 272.4331,682.4464 278.1295,680.4575 283.6412,677.1861 288.1155,673.1381 291.7269,668.3045 294.3403,662.8662 295.858,657.0266"/>
    <line x1="308.4454" x2="316.3173" y1="652.2052" y2="670.9616"/>
    <line x1="318.6338" x2="310.7619" y1="669.9894" y2="651.233"/>
    <polygon points="311.0928,651.0941 308.1144,652.3441 345.0274,736.1231"/>
    <line x1="310.431" x2="326.1748" y1="651.3718" y2="688.8847"/>
    <line x1="324.5202" x2="308.7763" y1="689.5792" y2="652.0663"/>
    <line x1="309.1072" x2="332.723" y1="651.9274" y2="708.1967"/>
    <line x1="333.7158" x2="310.1" y1="707.7801" y2="651.5107"/>
    <line x1="309.7691" x2="341.2568" y1="651.6496" y2="726.6754"/>
    <line x1="340.9259" x2="309.4382" y1="726.8143" y2="651.7885"/>
    <line x1="345.9369" x2="346.903" y1="727.9535" y2="727.9014"/>
    <line x1="345.9572" x2="347.8895" y1="728.3297" y2="728.2254"/>
    <line x1="348.876" x2="345.9775" y1="728.5494" y2="728.7058"/>
    <line x1="345.9978" x2="349.8625" y1="729.082" y2="728.8734"/>
    <line x1="350.849" x2="346.0181" y1="729.1974" y2="729.4581"/>
    <line x1="346.0384" x2="351.8354" y1="729.8343" y2="729.5214"/>
    <line x1="350.8895" x2="346.0587" y1="729.9497" y2="730.2104"/>
    <line x1="346.079" x2="349.9437" y1="730.5866" y2="730.378"/>
    <line x1="348.9978" x2="346.0993" y1="730.8063" y2="730.9627"/>
    <line x1="346.1196" x2="348.0519" y1="731.3389" y2="731.2346"/>
    <line x1="347.106" x2="346.1399" y1="731.6629" y2="731.715"/>
    <polygon points="346.1602,732.0912 351.8354,729.5214 345.9166,727.5774"/>
    <polygon points="332.3817,787.568 425.2793,796.1462 450.0944,527.4109 357.1967,518.8328"/>
    <polygon points="403.5615,797.7459 408.3296,801.4521 413.4393,804.6711 418.841,807.3716 424.4822,809.5275 430.3081,811.1179 436.2623,812.1273 442.2869,812.5459 448.3234,812.3696 453.9414,811.6655 459.8348,810.3467 465.5698,808.4544 471.0907,806.007 476.0245,803.2294 480.9806,799.7785 485.5731,795.8567 489.7573,791.5021 493.4928,786.7568 496.7431,781.6671 499.4769,776.2821 501.6676,770.6543 503.2938,764.8383 504.3398,758.8905 504.7955,752.8686 504.6564,746.8311 503.9239,740.8365 502.6051,734.9432 500.7128,729.2082 498.2654,723.6872 495.2865,718.4339 491.8052,713.4992 487.8552,708.931 483.4749,704.7736 478.7067,701.0675 473.597,697.8485 468.1953,695.148 462.9127,693.1104 457.0967,691.4842 451.1489,690.4382 445.127,689.9825 439.0894,690.1215 433.0949,690.854 427.2016,692.1728 421.4666,694.0652 415.9456,696.5126 410.6923,699.4914 405.7576,702.9728 401.1894,706.9228 397.032,711.3031 393.3259,716.0713 390.1069,721.181 387.4064,726.5826 385.2504,732.2238 383.6601,738.0497 382.6965,743.6291 382.2408,749.651 382.3799,755.6885 383.1124,761.683 384.4312,767.5764 386.3235,773.3114 388.771,778.8323 391.7498,784.0857 395.2311,789.0204 399.1811,793.5886"/>
    <line x1="258.287" x2="257.1088" y1="781.3965" y2="781.3479"/>
    <line x1="258.3023" x2="255.946" y1="781.0256" y2="780.9283"/>
    <line x1="254.7832" x2="258.3176" y1="780.5088" y2="780.6547"/>
    <line x1="258.3329" x2="253.6204" y1="780.2838" y2="780.0893"/>
    <line x1="252.4575" x2="258.3482" y1="779.6698" y2="779.9129"/>
    <line x1="258.3635" x2="251.2947" y1="779.542" y2="779.2502"/>
    <line x1="250.1319" x2="258.3788" y1="778.8307" y2="779.1711"/>
    <line x1="258.3941" x2="248.969" y1="778.8002" y2="778.4112"/>
    <line x1="247.8062" x2="258.4095" y1="777.9916" y2="778.4293"/>
    <line x1="258.4248" x2="246.6434" y1="778.0584" y2="777.5721"/>
    <line x1="245.4805" x2="258.4401" y1="777.1526" y2="777.6875"/>
    <line x1="258.4554" x2="244.3177" y1="777.3166" y2="776.7331"/>
    <line x1="243.1549" x2="258.4707" y1="776.3135" y2="776.9457"/>
    <line x1="258.486" x2="241.9921" y1="776.5748" y2="775.894"/>
    <polygon points="241.9921,775.894 258.2717,781.7674 258.7003,771.3823"/>
    <line x1="243.1855" x2="258.5013" y1="775.5717" y2="776.2039"/>
    <line x1="258.5166" x2="244.379" y1="775.8331" y2="775.2495"/>
    <line x1="245.5724" x2="258.5319" y1="774.9272" y2="775.4622"/>
    <line x1="258.5472" x2="246.7659" y1="775.0913" y2="774.6049"/>
    <line x1="247.9593" x2="258.5626" y1="774.2827" y2="774.7204"/>
    <line x1="258.5779" x2="249.1528" y1="774.3495" y2="773.9604"/>
    <line x1="250.3462" x2="258.5932" y1="773.6381" y2="773.9786"/>
    <line x1="258.6085" x2="251.5397" y1="773.6077" y2="773.3159"/>
    <line x1="252.7331" x2="258.6238" y1="772.9936" y2="773.2368"/>
    <line x1="258.6391" x2="253.9266" y1="772.8659" y2="772.6713"/>
    <line x1="255.12" x2="258.6544" y1="772.3491" y2="772.495"/>
    <line x1="258.6697" x2="256.3134" y1="772.1241" y2="772.0268"/>
    <line x1="257.5069" x2="258.685" y1="771.7046" y2="771.7532"/>
    <polygon points="255.0127,757.1036 255.8659,753.0422 256.3111,748.9161 256.3438,744.7662 255.2633,736.9262 254.1091,732.9399 252.5643,729.0881 250.6443,725.4089 248.3679,721.9389 245.7578,718.7124 242.8398,715.7614 239.6429,713.1152 236.1988,710.7999 232.5415,708.8385 228.7073,707.2505 224.7342,706.0515 220.6616,705.2535 212.7569,704.8688 208.626,705.2675 204.5553,706.075 197.096,708.7192 193.4256,710.6559 189.9659,712.948 184.0683,718.2256 179.2744,724.5225 177.2636,728.1529 175.6236,731.9651 174.3708,735.9215 173.5176,739.9829 173.0724,744.109 173.0396,748.2589 174.1202,756.0989 175.2744,760.0853 176.8191,763.9371 178.7392,767.6162 181.0156,771.0862 183.6257,774.3127 186.5436,777.2637 189.7405,779.9099 193.1847,782.2252 200.3213,785.6462 204.2833,786.881 208.3485,787.7159 212.4766,788.1424 216.6266,788.1563 224.4617,787.0403 228.4427,785.8681 232.2875,784.3059 239.1127,780.2996 242.351,777.7041 245.3151,774.7996 250.109,768.5026 252.1199,764.8723 253.7599,761.06"/>
    <polygon points="234.8545,789.49 321.8307,857.6085 473.7375,663.648 386.7613,595.5296"/>
    <polygon points="212.7568,714.5367 209.8731,708.7743 208.2665,713.1811"/>
    <line x1="212.5872" x2="212.2285" y1="714.1978" y2="714.3772"/>
    <line x1="212.4176" x2="211.7003" y1="713.8588" y2="714.2178"/>
    <line x1="211.172" x2="212.2479" y1="714.0583" y2="713.5198"/>
    <line x1="212.0783" x2="210.6437" y1="713.1809" y2="713.8988"/>
    <line x1="210.1155" x2="211.9087" y1="713.7393" y2="712.8419"/>
    <line x1="211.739" x2="209.5872" y1="712.503" y2="713.5798"/>
    <line x1="209.0589" x2="211.5694" y1="713.4203" y2="712.164"/>
    <line x1="211.3998" x2="208.5307" y1="711.825" y2="713.2608"/>
    <line x1="208.3611" x2="211.2302" y1="712.9218" y2="711.4861"/>
    <line x1="211.0605" x2="208.5501" y1="711.1471" y2="712.4034"/>
    <line x1="208.7391" x2="210.8909" y1="711.885" y2="710.8081"/>
    <line x1="210.7213" x2="208.9281" y1="710.4692" y2="711.3665"/>
    <line x1="209.1171" x2="210.5516" y1="710.8481" y2="710.1302"/>
    <line x1="210.382" x2="209.3061" y1="709.7912" y2="710.3297"/>
    <line x1="209.4951" x2="210.2124" y1="709.8112" y2="709.4523"/>
    <line x1="210.0428" x2="209.6841" y1="709.1133" y2="709.2928"/>
    <polygon points="153.2988,678.7146 156.9671,781.7503 195.106,780.3925 191.4377,677.3568"/>
  </g>
</svg>
