<?xml version="1.0" encoding="utf-8" ?>
<svg xmlns="http://www.w3.org/2000/svg" xmlns:cc="http://creativecommons.org/ns" xmlns:dc="http://purl.org/dc/elements/1.1/" xmlns:ev="http://www.w3.org/2001/xml-events" xmlns:inkscape="http://www.inkscape.org/namespaces/inkscape" xmlns:rdf="http://www.w3.org/1999/02/22-rdf-syntax-ns" xmlns:sodipodi="http://sodipodi.sourceforge.net/DTD/sodipodi-0.dtd" xmlns:xlink="http://www.w3.org/1999/xlink" baseProfile="tiny" height="29.7cm" version="1.2" viewBox="0 0 793.7007874015749 1122.5196850393702" width="21.0cm">
  <metadata>
    <rdf:RDF>
      <cc:Work>
        <dc:format>image/svg+xml</dc:format>
        <dc:source>vsk save -s 39 -c C:\Users\marti\Documents\git\putti-plotter-plot\sixfeet\config\1.json C:\Users\marti\Documents\git\putti-plotter-plot\sixfeet\sketch_sixfeet.py</dc:source>
        <dc:date>2023-11-19T17:46:21.848606</dc:date>
      </cc:Work>
    </rdf:RDF>
  </metadata>
  <defs/>
  <g fill="none" id="layer1" inkscape:groupmode="layer" inkscape:label="1" stroke="#0000ff" style="display:inline">
    <polygon points="655.882,530.4798 659.5919,525.2563 662.0432,519.7458 663.4388,513.4927 663.5321,507.0865 662.426,501.1576 660.0293,495.2159 656.712,490.179 652.4903,485.8717 647.521,482.4539 641.9885,480.0524 636.0981,478.7565 629.6923,478.6439 623.76,479.732 618.1466,481.9376 613.0602,485.1786 608.6897,489.3349 605.0115,494.5807 602.4782,500.4654 601.2355,506.3672 601.1477,512.3978 602.218,518.3333 604.4066,523.9534 607.6323,529.0495 612.0614,533.6788 617.01,537.1265 622.5279,539.5613 628.4103,540.8927 634.4389,541.0715 640.7541,539.9916 646.3808,537.82 651.4866,534.6097"/>
    <polygon points="615.4959,483.957 615.7847,476.7858 615.3794,469.6203 614.2072,462.1574 612.3963,455.2126 609.9231,448.4752 606.8106,442.0082 603.0881,435.8721 598.7902,430.1243 593.6889,424.5524 588.3416,419.7654 582.5569,415.5173 576.0548,411.6713 569.5457,408.6478 562.7751,406.2672 555.8061,404.5517 548.3278,403.482 541.1574,403.175 533.615,403.6016 526.525,404.7152 519.5756,406.5084 512.832,408.9645 506.0249,412.2407 499.8983,415.9788 494.1614,420.2913 488.6025,425.4068 483.8292,430.7662 479.5958,436.5617 475.7664,443.0736 472.7595,449.5904 470.3961,456.3671 468.6983,463.3403 467.6477,470.8213 467.3589,477.9925 467.7642,485.1581 468.8598,492.2509 470.6353,499.2048 473.0742,505.9547 476.333,512.7701 480.0556,518.9062 484.3534,524.654 489.1864,529.9599 494.802,535.013 500.5867,539.2611 506.7547,542.9306 513.5979,546.1305 520.3685,548.5111 527.3375,550.2266 534.8158,551.2963 541.9862,551.6033 549.1528,551.2163 556.2484,550.1388 563.2068,548.381 570.3117,545.8138 576.7865,542.7179 583.2453,538.7995 588.9822,534.4871 594.2757,529.6406 599.3145,524.0121 603.7549,517.9005 607.3772,511.7047 610.3841,505.188 612.7475,498.4113 614.5159,491.0668"/>
    <line x1="595.3289" x2="675.8284" y1="461.4409" y2="376.0291"/>
    <line x1="676.1112" x2="615.7365" y1="376.2956" y2="440.3544"/>
    <line x1="614.3228" x2="674.6975" y1="439.0221" y2="374.9632"/>
    <line x1="674.9802" x2="594.4807" y1="375.2297" y2="460.6415"/>
    <line x1="574.6385" x2="675.263" y1="482.2609" y2="375.4962"/>
    <line x1="675.5457" x2="574.9213" y1="375.7626" y2="482.5274"/>
    <polygon points="592.1015,431.1796 587.062,423.2648 584.0907,426.2942"/>
    <line x1="591.6433" x2="585.7114" y1="430.4601" y2="424.6418"/>
    <line x1="585.9815" x2="590.7271" y1="424.3664" y2="429.0211"/>
    <line x1="589.9167" x2="585.1712" y1="429.8473" y2="425.1926"/>
    <line x1="585.4413" x2="591.3732" y1="424.9172" y2="430.7355"/>
    <line x1="588.4602" x2="584.9011" y1="428.959" y2="425.468"/>
    <line x1="584.6309" x2="587.0037" y1="425.7434" y2="428.0707"/>
    <line x1="585.5472" x2="584.3608" y1="427.1825" y2="426.0188"/>
    <line x1="586.2517" x2="589.8108" y1="424.091" y2="427.582"/>
    <line x1="588.8945" x2="586.5218" y1="426.143" y2="423.8156"/>
    <line x1="586.7919" x2="587.9783" y1="423.5402" y2="424.7039"/>
    <line x1="634.165" x2="674.4148" y1="417.4027" y2="374.6967"/>
    <line x1="674.132" x2="654.0072" y1="374.4303" y2="395.7832"/>
    <line x1="656.5517" x2="676.6766" y1="398.1815" y2="376.8285"/>
    <line x1="676.3939" x2="636.1441" y1="376.562" y2="419.2679"/>
    <line x1="669.8596" x2="607.2687" y1="466.6604" y2="604.397"/>
    <line x1="569.9251" x2="525.9065" y1="623.9514" y2="654.3623"/>
    <line x1="523.2017" x2="260.3271" y1="607.069" y2="873.3142"/>
    <line x1="259.792" x2="258.0347" y1="848.3575" y2="747.6049"/>
    <line x1="259.9107" x2="261.668" y1="747.5722" y2="848.3248"/>
    <line x1="262.0432" x2="260.8717" y1="848.3183" y2="781.1499"/>
    <line x1="258.2452" x2="259.4168" y1="781.1957" y2="848.3641"/>
    <line x1="259.0416" x2="258.4558" y1="848.3706" y2="814.7864"/>
    <line x1="261.8326" x2="262.4184" y1="814.7275" y2="848.3117"/>
    <line x1="261.2928" x2="258.9497" y1="848.3314" y2="713.9946"/>
    <line x1="257.8241" x2="260.1672" y1="714.0142" y2="848.351"/>
    <line x1="260.5424" x2="257.6135" y1="848.3444" y2="680.4234"/>
    <line x1="257.9887" x2="260.9176" y1="680.4169" y2="848.3379"/>
    <polygon points="280.1236,797.3131 285.0229,797.0339 289.8736,796.2919 294.9933,794.983 299.6049,793.3057 304.3692,791.0199 308.5633,788.4723 312.4972,785.5389 316.1355,782.246 319.6857,778.3319 322.609,774.3905 325.3243,769.8572 327.5631,765.0705 329.1947,760.4426 330.3807,755.6809 331.1473,750.4524 331.3782,745.5507 331.1437,740.6491 330.3732,735.4213 329.1838,730.6605 327.5486,726.0337 325.3063,721.2487 322.7971,717.0316 319.6615,712.7781 316.3753,709.1338 312.4677,705.5765 308.2176,702.4362 304.0032,699.9224 299.5696,697.8192 294.5957,696.0348 289.4657,694.767 284.6091,694.064 279.3302,693.825 274.43,694.0863 269.5766,694.8107 264.4522,696.1009 259.8345,697.7613 255.0618,700.0298 250.5454,702.7732 246.6223,705.7209 242.996,709.027 239.4601,712.954 236.5512,716.9061 233.8525,721.4493 231.6312,726.2441 230.0164,730.878 228.8478,735.644 228.1003,740.8752 227.8873,745.7777 228.1397,750.6784 228.9292,755.9034 230.136,760.6599 231.9331,765.6292 234.0478,770.0574 236.5723,774.2653 239.7235,778.5073 243.2908,782.4058 246.9435,785.6827 250.8903,788.5988 255.4286,791.3058 259.8698,793.3929 264.8502,795.1591 269.9848,796.4081 274.8439,797.0934"/>
    <polygon points="279.6899,794.5215 284.5934,794.2695 289.4471,793.5276 294.202,792.3031 298.8103,790.6085 302.894,788.6416 307.0918,786.0947 310.7224,783.3811 314.3538,780.0764 317.6359,776.4245 320.5357,772.4622 323.024,768.2294 325.0757,763.7686 326.5641,759.4873 327.7223,754.7158 328.3621,750.2286 328.5836,745.3235 328.3127,740.421 327.5521,735.5702 326.3093,730.8201 324.5969,726.2183 322.6142,722.1423 320.0511,717.9544 317.3236,714.3343 314.0049,710.7156 310.3404,707.4476 306.3669,704.5631 302.4594,702.2662 298.0065,700.1973 293.3688,698.5848 288.5929,697.4451 284.1032,696.8226 279.1973,696.62 274.6716,696.8701 270.1884,697.5377 265.4242,698.7254 260.8029,700.3844 256.3711,702.498 252.1733,705.045 248.2518,707.9996 244.9113,711.0632 241.6291,714.7151 238.7294,718.6774 236.2411,722.9102 234.3312,727.0208 232.7009,731.6523 231.5428,736.4238 230.903,740.911 230.6814,745.8161 230.9523,750.7186 231.6372,755.1992 232.8433,759.9588 234.5202,764.5736 236.6508,768.9973 239.002,772.8724 241.9415,776.8053 245.2602,780.424 248.9247,783.692 252.8982,786.5765 256.8057,788.8735 261.2585,790.9424 265.534,792.4473 269.9304,793.5504 274.7857,794.281"/>
    <polygon points="284.2818,793.0973 289.1379,792.3686 293.5324,791.2565 297.8017,789.7327 302.2408,787.6334 306.4408,785.0893 310.0672,782.3694 313.6853,779.0494 316.7063,775.6698 319.3933,772.019 321.8992,767.796 323.9582,763.3381 325.4433,759.0552 326.5859,754.2795 327.2002,749.7882 327.3859,745.259 327.1412,740.7326 326.4686,736.2497 325.2638,731.4893 323.7232,727.2261 321.7852,723.1282 319.2578,718.9181 316.5522,715.281 313.2466,711.6498 309.879,708.6154 305.9242,705.7047 302.0258,703.3914 297.576,701.3148 293.299,699.8128 288.5279,698.6513 284.0391,698.0192 279.5107,697.8156 274.9833,698.0423 270.4978,698.6973 265.7327,699.8831 261.4634,701.4069 257.0243,703.5062 253.1378,705.8394 249.1979,708.7702 245.8458,711.8218 242.5587,715.4698 239.8717,719.1207 237.3658,723.3436 235.3068,727.8016 233.8218,732.0845 232.6792,736.8601 232.0649,741.3514 231.8792,745.8806 232.1238,750.4071 232.8717,755.2602 234.0012,759.6503 235.5419,763.9135 237.6587,768.3443 240.0073,772.2215 242.7128,775.8586 246.0184,779.4899 249.3861,782.5242 253.0263,785.2256 256.9062,787.5697 260.9909,789.5353 265.6044,791.2172 270.3662,792.4165 274.8498,793.084 279.3765,793.3235"/>
    <polygon points="297.8388,788.4193 301.92,786.4454 305.7899,784.084 309.4118,781.3573 312.7513,778.2913 315.7768,774.9151 318.6668,770.9445 320.9497,767.0278 322.8408,762.9076 324.3222,758.6229 325.3799,754.2145 326.0038,749.7242 326.188,745.1944 325.9307,740.6683 325.2345,736.1885 324.1059,731.7978 322.5556,727.5376 320.5983,723.4484 318.0402,719.2563 315.2989,715.6455 312.2194,712.3185 308.8309,709.3068 305.1655,706.6389 301.258,704.3401 296.7948,702.2916 292.5042,700.8275 288.0915,699.7878 283.5987,699.1821 279.0682,699.0163 274.5431,699.2919 270.0662,700.0063 265.6801,701.1527 261.4263,702.7203 257.345,704.6942 253.4752,707.0556 249.8533,709.7823 246.5138,712.8483 243.4883,716.2245 240.8056,719.879 238.491,723.7771 236.5665,727.8819 235.0503,732.1543 233.9569,736.554 233.2966,741.0391 233.0756,745.5672 233.2961,750.0954 233.9559,754.5806 235.0488,758.9804 236.5645,763.253 238.4885,767.3579 240.8027,771.2563 243.4851,774.9111 246.5102,778.2877 250.1408,781.5946 253.7844,784.2922 257.6731,786.6226 261.7699,788.5637 266.0362,790.0972 270.4314,791.2085 275.29,791.9238 279.8189,792.1264 284.3461,791.8875 288.8286,791.2095 293.2239,790.0987"/>
    <polygon points="303.547,789.6496 307.7427,787.1 311.6689,784.1523 315.2881,780.8348 318.5655,777.1793 321.4698,773.2208 323.9731,768.9973 326.0514,764.5493 327.6848,759.9194 328.8577,755.1519 329.5588,750.2926 329.7813,745.3881 329.5232,740.4852 328.787,735.6312 327.5796,730.8723 325.9126,726.2544 323.8021,721.8215 321.2683,717.6163 318.3354,713.679 314.7629,709.7817 311.0951,706.518 307.1257,703.6287 302.8929,701.1413 298.437,699.0797 293.801,697.4638 289.0292,696.3089 284.1673,695.6261 279.2619,695.422 274.3601,695.6986 269.5088,696.4532 264.7545,697.6785 260.1429,699.3628 255.718,701.49 251.5224,704.0396 247.5962,706.9874 243.977,710.3049 240.6995,713.9604 237.7953,717.9188 235.292,722.1423 233.2136,726.5903 231.5802,731.2202 230.4074,735.9877 229.7063,740.847 229.4837,745.7515 229.7418,750.6544 230.4781,755.5085 231.7976,760.6281 233.4993,765.2334 235.6431,769.6502 238.2085,773.8362 241.171,777.7513 244.5021,781.3579 248.17,784.6216 252.1393,787.5109 256.3722,789.9983 260.828,792.0599 265.4641,793.6758 270.2359,794.8307 275.0978,795.5135 280.0032,795.7176 284.905,795.441 289.7563,794.6865 294.5105,793.4611 299.1222,791.7768"/>
    <polygon points="304.5209,791.8454 308.7307,789.3209 312.9794,786.1758 316.8906,782.6198 320.4247,778.6887 323.5459,774.4225 326.0469,770.1985 328.2866,765.4104 329.9258,760.7833 331.1999,755.6531 331.952,750.4208 332.1764,745.5171 331.9052,740.2379 331.105,735.0128 329.7838,729.8944 327.955,724.9348 325.8184,720.5153 323.0673,716.0015 320.1184,712.0772 316.5483,708.1788 312.8979,704.8969 308.6429,701.7604 304.0943,699.0673 299.2981,696.8448 294.6652,695.2222 289.9011,694.039 284.6715,693.2681 279.3909,693.0264 274.4886,693.2783 269.6311,693.9865 264.4989,695.2525 259.5197,697.0277 254.7442,699.2942 250.2206,702.029 245.9946,705.2046 242.1091,708.7887 238.8404,712.4509 235.7191,716.7171 233.0424,721.2754 230.9785,725.7293 229.2312,730.7182 228.0652,735.4865 227.313,740.7189 227.0886,745.6225 227.3598,750.9017 228.1601,756.1269 229.3699,760.8842 231.0184,765.508 233.2677,770.2916 235.9863,774.8251 238.9069,778.7705 242.4489,782.6945 246.3672,786.2427 250.6222,789.3792 255.1708,792.0724 259.967,794.2949 264.5999,795.9174 269.364,797.1006 274.5936,797.8715 279.8741,798.1132 284.7765,797.8613 290.0045,797.0799 295.1275,795.7771 300.0938,793.9661"/>
    <polygon points="301.3831,796.4539 306.1416,794.145 310.9701,791.1794 315.1812,787.9793 319.0676,784.3919 322.5937,780.4497 325.7274,776.189 328.617,771.3146 330.8511,766.5206 332.7251,761.1729 333.9722,756.033 334.7573,750.4212 334.9687,745.1363 334.6745,739.8555 333.8016,734.2566 332.4741,729.1369 330.5166,723.8192 328.2077,719.0608 325.4551,714.5445 322.2838,710.3116 318.4546,706.1347 314.5125,702.6086 309.9362,699.2669 305.3774,696.5853 300.233,694.2094 295.2356,692.4773 290.0957,691.2302 284.8602,690.4795 279.577,690.232 273.9182,690.5278 268.3193,691.4007 263.1996,692.7282 258.23,694.5384 253.1235,696.9946 248.6072,699.7473 244.3743,702.9185 240.4635,706.4793 236.6713,710.6899 233.3296,715.2661 230.648,719.825 228.2721,724.9693 226.54,729.9667 225.2929,735.1066 224.5078,740.7185 224.2964,746.0033 224.5905,751.2841 225.4635,756.883 226.7909,762.0027 228.7485,767.3204 231.0574,772.0788 234.023,776.9074 237.223,781.1185 240.8105,785.0049 244.7526,788.531 249.3288,791.8728 253.8877,794.5543 259.032,796.9303 264.0294,798.6624 269.1693,799.9095 274.7812,800.6946 280.066,800.9059 285.3469,800.6118 290.5755,799.8149 296.0655,798.4114"/>
    <polygon points="313.3767,778.794 316.3965,775.4182 319.2876,771.454 321.5791,767.5471 323.4869,763.4391 324.9935,759.1676 326.0851,754.7718 326.7517,750.2918 326.9873,745.7685 326.7537,740.8676 326.0889,736.3873 324.8895,731.6297 323.3506,727.3697 321.2328,722.9439 318.8809,719.073 316.17,715.4445 312.8567,711.8257 309.481,708.8059 305.8321,706.1224 301.6098,703.6232 297.5018,701.7155 293.2304,700.2089 288.8345,699.1173 284.3545,698.4506 279.8313,698.215 274.9303,698.4486 270.0799,699.1881 265.6924,700.3129 261.0845,701.9982 257.0066,703.9695 253.1357,706.3214 249.5072,709.0324 246.1544,712.0776 242.8686,715.7214 240.1851,719.3702 237.8625,723.2588 235.9221,727.3514 234.2716,731.972 233.18,736.3678 232.5133,740.8478 232.2777,745.3711 232.5114,750.272 233.1761,754.7523 234.3756,759.5099 236.0609,764.1179 238.0323,768.1957 240.5967,772.3787 243.3365,775.9855 246.4083,779.314 249.7841,782.3338 253.433,785.0172 257.6553,787.5164 261.7632,789.4242 266.0347,790.9307 270.8012,792.0943 275.2864,792.7252 279.8114,792.9247 284.3347,792.691 289.1852,791.9515 293.5726,790.8267 297.8326,789.2879 302.2585,787.1701 306.1293,784.8182 309.7578,782.1072"/>
    <line x1="320.662" x2="116.7414" y1="785.0344" y2="505.3642"/>
    <polygon points="186.0837,443.9485 189.4597,445.6326 192.9878,446.9687 199.9816,448.5035 207.1396,448.6805 210.8846,448.224 214.5647,447.3934 221.2455,444.8176 224.5308,442.9627 227.6129,440.787 232.7995,435.8506 235.1248,432.8798 237.1397,429.6902 240.0424,423.1448 241.0538,419.5102 241.6947,415.7923 241.8717,408.6343 241.4152,404.8893 240.5846,401.2092 238.0088,394.5284 236.1539,391.2432 233.9782,388.161 231.5037,385.3132 228.7554,382.7286 222.8814,378.6342 219.5054,376.9502 215.9773,375.614 208.9835,374.0792 201.8255,373.9023 198.0805,374.3587 194.4004,375.1894 190.8224,376.3857 187.3828,377.9356 181.3522,381.7957 176.1656,386.7321 173.8403,389.703 171.8254,392.8925 168.9227,399.438 167.9113,403.0726 167.2704,406.7904 167.0935,413.9484 167.5499,417.6934 168.3806,421.3735 170.9563,428.0544 172.8112,431.3396 174.9869,434.4217 179.9233,439.6083 182.8942,441.9336"/>
    <polygon points="193.2758,445.7492 200.2722,447.2804 207.433,447.4055 214.4785,446.1197 220.7973,443.6451 226.8422,439.8042 232.0135,434.8494 236.1093,428.9742 238.8518,422.767 240.4375,415.7829 240.6186,408.6233 239.388,401.5679 236.7937,394.8924 232.9371,388.8576 228.255,383.9454 222.4121,379.8038 215.8686,376.8924 208.8804,375.3248 201.7203,375.1624 195.0322,376.311 188.3366,378.8531 182.2718,382.6624 177.0747,387.5902 172.9484,393.444 170.054,399.9949 168.5047,406.9872 168.3331,413.7712 169.5269,420.8329 172.0864,427.5218 175.9116,433.5766 180.8529,438.7609 186.7173,442.8719"/>
    <polygon points="199.6441,449.7203 203.4105,450.0089 207.5639,449.9009 214.9916,448.5708 222.0204,445.8257 228.3836,441.7698 233.8396,436.5571 238.1813,430.3855 241.2441,423.4891 242.9115,416.1298 243.2087,411.9856 243.0921,408.21 241.762,400.7823 239.0169,393.7535 234.961,387.3903 229.7483,381.9343 223.5767,377.5926 216.6803,374.5299 209.321,372.8624 201.778,372.6536 198.0272,373.1008 193.9735,374.012 186.9447,376.7571 180.5815,380.8129 175.1255,386.0256 170.7838,392.1972 167.721,399.0936 166.0536,406.4529 165.7564,410.5971 165.873,414.3727 167.2031,421.8004 169.9483,428.8292 174.0041,435.1924 179.2168,440.6484 185.3884,444.9902 192.2848,448.0529"/>
    <polygon points="182.8318,436.6189 188.0861,440.2981 193.948,442.9024 200.5753,444.3817 207.3649,444.4867 213.6722,443.3193 219.6388,440.965 225.0439,437.511 229.9324,432.7981 233.5818,427.5231 236.1529,421.6465 237.5502,415.3862 237.6937,408.5973 236.5621,402.2835 234.0698,395.967 230.5852,390.5817 226.1333,385.9638 220.549,382.1005 214.6579,379.5629 208.3898,378.201 201.6002,378.0961 195.293,379.2634 189.3263,381.6177 183.9212,385.0717 179.0327,389.7846 175.3833,395.0597 172.8123,400.9362 171.4149,407.1965 171.243,413.6086 172.3029,419.9348 174.7235,426.2791 178.1467,431.7037"/>
    <polygon points="168.7626,421.1933 169.9542,424.7733 171.5037,428.2135 175.3728,434.239 177.8565,437.0793 180.616,439.6525 186.5146,443.7124 193.0838,446.5623 200.0784,448.0959 203.8427,448.3529 207.6137,448.226 214.6571,446.9347 221.3207,444.3132 227.356,440.4594 230.2027,437.983 232.7828,435.2301 236.8577,429.3418 239.7243,422.7799 240.7097,419.1377 241.3196,415.4143 241.425,408.2543 240.1517,401.2076 238.9418,397.6338 237.3749,394.2015 233.475,388.1958 228.4932,383.0521 222.6153,378.9623 216.0607,376.079 212.4211,375.0844 208.6992,374.4649 204.9337,374.227 201.1634,374.3732 194.1267,375.7003 187.4765,378.3557 181.4609,382.2402 176.3045,387.2089 172.1997,393.0763 170.5153,396.4525 169.1827,399.9825 167.667,406.981 167.5251,414.1403"/>
    <polygon points="167.9987,421.5536 170.75,428.5686 174.6012,434.6043 179.8039,440.0551 185.9822,444.3689 192.5331,447.258 199.8848,448.9112 207.0418,449.1046 214.4721,447.8509 221.5074,445.152 227.8698,441.1146 233.0612,436.1841 237.421,430.0382 240.4788,423.1513 242.1137,415.7955 242.261,408.2617 240.9149,400.8476 238.3007,394.1823 234.2475,387.83 229.0177,382.4051 222.818,378.1221 216.2528,375.2657 208.893,373.6492 201.7351,373.4914 194.3112,374.7821 187.2893,377.5159 181.2441,381.3521 176.0282,386.2567 171.6378,392.3808 168.5458,399.2524 166.8743,406.6 166.6895,414.133"/>
    <polygon points="170.4079,413.6012 171.538,420.2956 173.97,426.6342 177.6077,432.3665 182.3074,437.266 187.8834,441.1391 193.7559,443.716 200.3815,445.1971 206.7924,445.366 213.4868,444.2359 219.8254,441.8039 225.5577,438.1662 230.4572,433.4665 234.1448,428.2197 236.9072,422.018 238.3883,415.3924 238.5296,408.6047 237.3255,401.9233 234.8235,395.612 231.3574,390.2163 226.6577,385.3168 221.0817,381.4437 214.8498,378.7501 208.5836,377.3856 201.7959,377.2444 195.1145,378.4485 188.8032,380.9504 183.4074,384.4165 178.7548,388.8303 174.8203,394.363 172.0579,400.5647 170.5768,407.1903"/>
    <polygon points="183.2995,383.9728 178.3692,388.6392 174.4459,394.1792 171.6809,400.3791 170.1808,406.9998 170.0035,413.7859 171.1558,420.4759 173.5933,426.8117 177.2219,432.549 181.9018,437.4665 187.4525,441.3747 193.6599,444.1227 200.2847,445.6047 207.0713,445.7635 213.7581,444.5929 220.0872,442.1381 225.8146,438.4938 230.7193,433.8005 234.6123,428.2392 237.3434,422.0243 238.7603,415.7703 238.9747,408.9852 237.859,402.2891 235.4562,395.94 231.8589,390.183 227.2059,385.24 221.6767,381.3016 215.4844,378.5196 208.8679,377.0015 202.0822,376.8056 195.3891,377.9397 189.0467,380.3598"/>
    <polygon points="188.6162,380.1106 182.8936,383.7613 177.9838,388.4484 174.0715,393.9954 171.3039,400.1934 169.7854,406.8093 169.5729,413.5938 170.7737,420.6562 173.2166,426.9892 176.8364,432.7314 181.4969,437.6664 187.351,441.7954 193.5639,444.5294 200.1878,446.0122 206.9734,446.1881 214.0292,444.9492 220.3489,442.4722 226.0715,438.8214 230.9813,434.1343 234.8936,428.5873 237.6612,422.3893 239.1797,415.7735 239.3922,408.9889 238.2905,402.291 235.7485,395.5935 232.1287,389.8514 227.4682,384.9163 221.6141,380.7874 215.4012,378.0533 208.7773,376.5705 201.9917,376.3947 194.936,377.6336"/>
    <polygon points="233.2061,388.5266 228.231,383.3756 222.3492,379.2904 215.7853,376.427 208.7898,374.8946 201.6299,374.7518 194.5789,376.004 187.906,378.6035 181.866,382.4509 176.6895,387.3995 172.574,393.2601 169.6768,399.8092 168.1084,406.7967 167.9288,413.9558 169.1447,421.0131 171.7097,427.6993 175.526,433.7591 180.4478,438.961 186.2872,443.1066 192.8213,446.0375 199.8006,447.6418 206.9587,447.8584 214.0222,446.6788 220.7215,444.1482 224.0138,442.3044 227.0991,440.1318 232.2756,435.1833 236.3911,429.3226 239.2883,422.7735 240.8567,415.786 241.126,412.0222 241.007,408.2506 239.7184,401.2061 237.0846,394.5467"/>
    <polygon points="242.5381,415.7516 242.6742,408.2063 241.3288,400.7807 238.554,393.7628 234.6916,387.7217 229.4861,382.2579 223.6389,378.1078 216.7635,374.9968 209.4116,373.2937 201.8686,373.0646 194.4269,374.3184 187.3754,377.0064 180.9874,381.0243 175.5109,386.2163 171.1581,392.381 168.0981,399.2793 166.4495,406.6435 166.2762,414.1881 167.585,421.6202 170.325,428.6517 174.3901,435.0098 179.6225,440.4478 185.8193,444.7548 192.74,447.7637 199.7409,449.3129 207.285,449.5048 214.7204,448.2143 221.7586,445.4916 228.1267,441.4422 233.5776,436.2232 237.8998,430.0371 240.9258,423.1238"/>
    <polygon points="241.5609,423.8539 242.5989,420.2223 243.3307,416.1329 243.5379,408.5906 243.0959,404.8395 242.1948,400.7841 239.4787,393.7447 237.6249,390.4539 235.2302,387.0592 230.0105,381.6108 226.7216,379.0727 223.5133,377.0796 216.5968,374.0642 209.2304,372.4317 201.6875,372.2426 194.2485,373.504 187.1896,376.1691 183.5652,378.1994 180.4736,380.3691 174.9875,385.5492 170.5971,391.6855 167.4653,398.5501 166.4098,402.1766 165.6583,406.2624 165.4146,413.8037 165.9008,417.9295 166.72,421.6166 167.8908,425.2075 169.5715,429.0067 173.6183,435.3749 178.8116,440.8484 184.9585,445.2241 188.3193,446.9476 192.1888,448.4596 199.5473,450.1277 203.6905,450.432 207.466,450.3262 214.8988,449.0289 218.487,447.8494 222.2821,446.1596 228.6405,442.0974 234.1015,436.8909 238.4623,430.7335"/>
    <polygon points="231.4889,434.1812 235.3608,428.6067 238.0977,422.3957 239.6449,415.4017 239.7831,408.6159 238.5219,401.5647 236.0401,395.2474 232.3984,389.5199 227.4444,384.3462 221.8802,380.4594 215.3176,377.5884 208.6867,376.1401 201.9012,375.9838 195.2106,377.1253 188.5229,379.6911 182.7856,383.3176 177.8459,387.9723 173.8853,393.4842 170.9271,400.0079 169.3905,406.6189 169.1682,413.7785 170.2919,420.4721 172.6723,426.8283 176.451,432.9136 181.3774,438.1137 186.9207,442.0301 193.1096,444.8166 200.091,446.4197 206.8755,446.6122 213.9366,445.4075 220.2735,442.9763 226.3284,439.149"/>
    <polygon points="229.9487,433.419 233.8637,427.8716 236.5886,421.6526 237.9693,415.3893 238.1116,408.601 236.9948,402.2853 234.7028,396.2951 231.088,390.5476 226.6814,385.8873 221.145,381.9568 214.9337,379.2145 208.6742,377.8162 201.8864,377.6549 195.5676,378.7541 189.5709,381.0292 183.8133,384.628 179.1408,389.0215 175.1948,394.5469 172.435,400.7505 170.9734,407.381 170.8389,413.7933 172.0213,420.4794 174.5185,426.7932 177.9937,432.1838 182.7136,437.0647 187.9846,440.7188 194.2112,443.4263 200.4784,444.7894 207.267,444.9128 213.5796,443.7782 219.9005,441.2987 225.3008,437.8386"/>
    <polygon points="220.8721,443.1398 226.5853,439.4766 231.7513,434.5154 235.8269,428.6255 238.6491,422.0425 240.0637,415.4049 240.2009,408.6196 238.9552,401.5663 236.502,395.2385 232.6678,389.1887 227.7066,384.0227 221.8167,379.9471 215.2337,377.1248 208.5961,375.7102 201.8108,375.573 194.7574,376.8188 188.4297,379.272 182.3798,383.1061 177.2138,388.0673 173.1383,393.9572 170.316,400.5403 168.9014,407.1779 168.7944,414.3396 170.01,421.0165 172.6342,427.6809 176.2973,433.3941 181.2585,438.5601 186.8189,442.4512 193.3719,445.3427 200.3691,446.8725 207.1543,447.0097 214.2077,445.764"/>
    <polygon points="263.2095,395.583 268.5794,399.1021 274.2706,402.0739 280.2273,404.4692 286.3915,406.2645 292.3286,407.3905 298.7221,407.9768 305.1423,407.9288 311.5263,407.2472 317.8118,405.9385 323.9374,404.0156 329.8432,401.4973 335.4715,398.4081 340.7672,394.7782 345.6787,390.6432 349.9071,386.3261 353.9393,381.3299 357.4585,375.96 360.4302,370.2688 362.8255,364.3121 364.5323,358.5152 365.7469,352.2108 366.3331,345.8173 366.2852,339.3971 365.6036,333.0131 364.2949,326.7276 362.372,320.602 359.8536,314.6962 356.7644,309.0679 353.1346,303.7722 348.9996,298.8607 344.3998,294.3816 339.6863,290.6001 334.3164,287.0809 328.6252,284.1092 322.6684,281.7139 316.5043,279.9185 310.5672,278.7925 304.1737,278.2063 297.7535,278.2542 291.3695,278.9358 285.0839,280.2445 278.9583,282.1674 273.3928,284.5216 267.7467,287.578 262.4299,291.177 257.4945,295.2833 252.9887,299.8569 248.9565,304.8531 245.4373,310.223 242.4655,315.9142 240.1948,321.5143 238.3635,327.6679 237.1489,333.9723 236.5626,340.3658 236.6106,346.7859 237.2922,353.1699 238.6009,359.4555 240.5238,365.5811 243.0422,371.4869 246.1314,377.1151 249.5333,382.1095 253.6397,387.0449 258.2133,391.5507"/>
    <polygon points="257.3576,366.2327 262.3151,370.3101 267.6415,373.8922 273.2874,376.9461 279.5556,379.5724 285.6921,381.4553 292.3546,382.7965 299.119,383.4531 305.5379,383.4383 312.2992,382.7506 318.5896,381.4728 325.0833,379.4678 330.9991,376.9768 336.6483,373.929 341.9784,370.3524 346.9403,366.2803 351.7417,361.4705 355.805,356.5014 359.3721,351.1649 362.5716,345.169 365.0185,339.2348 366.884,333.093 368.2064,326.4267 368.8265,320.0378 368.8299,313.6189 368.1614,306.8557 366.9013,300.5617 364.9147,294.0624 362.4405,288.1395 359.2135,282.1583 355.6219,276.8383 351.5358,271.888 346.7124,267.1002 341.7318,263.051 336.3853,259.499 330.3803,256.3165 324.4392,253.8864 318.2921,252.0383 311.6221,250.7348 305.2315,250.1328 298.4355,250.1676 292.0514,250.8352 285.761,252.113 279.6224,253.9894 273.6926,256.4468 268.0263,259.4626 262.3721,263.2334 257.1308,267.5597 252.6089,272.1153 248.5455,277.0844 244.9784,282.4209 241.779,288.4168 239.332,294.351 237.3753,300.8594 236.1442,307.1591 235.524,313.548 235.5206,319.9669 236.1891,326.7301 237.4492,333.0241 239.4358,339.5234 241.91,345.4463 244.9419,351.1041 248.5033,356.4443 252.8147,361.6978"/>
    <polygon points="241.0653,338.5032 243.5102,344.4365 246.5295,350.0991 250.0936,355.4357 254.1677,360.3938 258.7119,364.925 263.6817,368.985 269.0284,372.5338 274.3581,375.3759 280.2842,377.8383 286.4246,379.703 292.7192,380.9517 299.1065,381.5721 305.5238,381.5583 311.9083,380.9102 318.1975,379.6344 324.3298,377.7432 330.2451,375.2552 335.5625,372.3902 340.8938,368.8183 345.846,364.7369 350.3706,360.1861 354.1987,355.514 357.7709,350.1829 360.7987,344.5248 363.2525,338.5951 365.1082,332.452 366.3477,326.1555 366.9589,319.7674 366.9546,313.7273 366.3345,307.34 365.0861,301.0453 363.2218,294.9048 360.7596,288.9786 357.7239,283.3248 354.3692,278.3019 350.3095,273.332 345.7785,268.7875 340.8206,264.7132 335.8077,261.3436 330.1629,258.2911 324.244,255.8115 318.109,253.929 311.8181,252.662 305.8098,252.043 299.3926,252.0008 293.0027,252.593 286.7026,253.8139 280.554,255.6514 274.6171,258.0876 268.9501,261.0987 263.6084,264.6551 258.6443,268.722 254.1065,273.2596 250.0393,278.2234 246.4827,283.565 243.6328,288.8905 241.1618,294.813 239.2882,300.9507 238.0303,307.2435 237.4006,313.6298 237.3873,319.6699 237.9888,326.0589 239.2188,332.3573"/>
    <polygon points="305.608,382.9645 311.9957,382.3217 318.2912,381.0638 324.4355,379.2024 330.3707,376.7553 336.0413,373.7452 341.6978,369.976 346.6591,365.9015 351.2028,361.366 355.5114,356.1087 359.0658,350.7625 362.0862,345.0974 364.5442,339.1666 366.4167,333.0258 367.7417,326.3589 368.3597,319.9688 368.3564,313.5488 367.7318,307.1593 366.3999,300.4938 364.5211,294.3549 362.057,288.4266 358.8358,282.4411 355.2454,277.1189 351.1568,272.1692 346.3275,267.3859 341.3388,263.345 335.9825,259.8058 330.3089,256.8015 324.0148,254.2349 317.8582,252.415 311.5543,251.1995 305.1624,250.5997 298.7425,250.6213 292.3548,251.2641 285.6931,252.615 279.5596,254.5113 273.6384,256.9923 267.9851,260.0347 262.3502,263.8361 257.4122,267.9387 252.8944,272.5 248.8392,277.4771 245.2847,282.8233 242.2643,288.4884 239.6798,294.7752 237.8423,300.9266 236.6088,307.2269 235.9738,313.9945 236.0137,320.4143 236.6747,326.8001 237.9506,333.092 239.8295,339.2309 242.2935,345.1592 245.5147,351.1448 249.1051,356.4669 253.1937,361.4166 257.7421,365.9474 262.7076,370.0167 268.0437,373.5864 273.7001,376.6229 279.6238,379.0978 285.7593,380.9878 292.4224,382.3318 299.1881,382.9861"/>
    <line x1="323.0949" x2="318.0378" y1="380.8402" y2="499.8007"/>
    <line x1="317.6523" x2="321.8666" y1="499.7843" y2="400.6506"/>
    <line x1="324.1795" x2="319.9653" y1="400.7489" y2="499.8826"/>
    <line x1="319.5798" x2="324.6369" y1="499.8662" y2="380.9057"/>
    <line x1="325.0942" x2="319.1943" y1="361.0626" y2="499.8499"/>
    <line x1="318.8088" x2="325.5516" y1="499.8335" y2="341.2195"/>
    <line x1="324.3233" x2="318.4233" y1="361.0298" y2="499.8171"/>
    <line x1="317.2668" x2="320.6382" y1="499.7679" y2="420.4609"/>
    <line x1="323.7222" x2="320.3508" y1="420.592" y2="499.899"/>
    <line x1="320.7362" x2="323.2648" y1="499.9154" y2="440.4352"/>
    <line x1="319.4099" x2="316.8813" y1="440.2713" y2="499.7515"/>
    <line x1="316.4958" x2="318.1815" y1="499.7351" y2="460.0816"/>
    <line x1="322.8074" x2="321.1217" y1="460.2783" y2="499.9318"/>
    <line x1="321.5072" x2="322.3501" y1="499.9482" y2="480.1214"/>
    <line x1="316.9532" x2="316.1104" y1="479.892" y2="499.7188"/>
    <polygon points="315.7249,499.7024 321.8927,499.9646 325.5516,341.2195"/>
    <line x1="348.3554" x2="349.6339" y1="534.5777" y2="535.0087"/>
    <line x1="350.7956" x2="348.2385" y1="535.7864" y2="534.9244"/>
    <line x1="348.1216" x2="351.9572" y1="535.2711" y2="536.5641"/>
    <line x1="353.1189" x2="348.0048" y1="537.3418" y2="535.6178"/>
    <line x1="347.8879" x2="354.2805" y1="535.9645" y2="538.1195"/>
    <line x1="355.4422" x2="347.771" y1="538.8973" y2="536.3112"/>
    <line x1="347.6541" x2="356.6039" y1="536.6579" y2="539.675"/>
    <line x1="356.487" x2="347.5372" y1="540.0217" y2="537.0046"/>
    <line x1="347.4204" x2="355.0916" y1="537.3513" y2="539.9374"/>
    <line x1="353.6962" x2="347.3035" y1="539.853" y2="537.698"/>
    <line x1="347.1866" x2="352.3008" y1="538.0447" y2="539.7687"/>
    <line x1="350.9053" x2="347.0697" y1="539.6844" y2="538.3914"/>
    <line x1="346.9529" x2="349.5099" y1="538.7381" y2="539.6001"/>
    <line x1="348.1145" x2="346.836" y1="539.5158" y2="539.0848"/>
    <line x1="355.7901" x2="216.8578" y1="544.2524" y2="555.1612"/>
    <line x1="216.8281" x2="332.6051" y1="554.7838" y2="545.6931"/>
    <line x1="332.6643" x2="216.8874" y1="546.448" y2="555.5387"/>
    <line x1="216.9171" x2="309.5386" y1="555.9161" y2="548.6436"/>
    <line x1="309.42" x2="216.7985" y1="547.1338" y2="554.4063"/>
    <line x1="216.7689" x2="286.235" y1="554.0288" y2="548.5744"/>
    <line x1="286.4128" x2="216.9467" y1="550.8392" y2="556.2936"/>
    <line x1="216.9763" x2="263.2871" y1="556.6711" y2="553.0348"/>
    <line x1="263.05" x2="216.7392" y1="550.0151" y2="553.6514"/>
    <line x1="216.7096" x2="239.865" y1="553.2739" y2="551.4558"/>
    <line x1="240.1613" x2="217.006" y1="555.2304" y2="557.0485"/>
    <polygon points="217.0356,557.426 355.7901,544.2524 216.6799,552.8965"/>
    <polygon points="259.996,604.6709 259.8695,611.2481 272.0761,608.1931"/>
    <line x1="259.9886" x2="261.4172" y1="605.0578" y2="605.0853"/>
    <line x1="262.8384" x2="259.9812" y1="605.4997" y2="605.4447"/>
    <line x1="259.9737" x2="264.2596" y1="605.8316" y2="605.9141"/>
    <line x1="265.6808" x2="259.9663" y1="606.3284" y2="606.2185"/>
    <line x1="259.9588" x2="267.102" y1="606.6054" y2="606.7428"/>
    <line x1="268.5232" x2="259.9514" y1="607.1572" y2="606.9923"/>
    <line x1="259.9439" x2="269.9443" y1="607.3792" y2="607.5716"/>
    <line x1="269.922" x2="259.9216" y1="608.7323" y2="608.5399"/>
    <line x1="259.9142" x2="268.4859" y1="608.9268" y2="609.0917"/>
    <line x1="267.0499" x2="259.9067" y1="609.4511" y2="609.3137"/>
    <line x1="259.8993" x2="265.6138" y1="609.7006" y2="609.8105"/>
    <line x1="264.1777" x2="259.8918" y1="610.1699" y2="610.0875"/>
    <line x1="259.8844" x2="262.7416" y1="610.4744" y2="610.5293"/>
    <line x1="261.3056" x2="259.8769" y1="610.8887" y2="610.8613"/>
    <line x1="259.9291" x2="271.3581" y1="608.153" y2="608.3729"/>
    <line x1="271.3655" x2="259.9365" y1="607.986" y2="607.7661"/>
    <polygon points="257.5082,663.6281 258.6664,848.3772 262.7936,848.3052"/>
    <polygon points="257.8879,693.8162 253.1173,696.0905 248.2678,699.0132 243.7374,702.4096 239.5722,706.2451 236.0516,710.1867 232.9173,714.4419 230.0192,719.3062 227.6259,724.4377 225.869,729.4221 224.5888,734.5497 223.7586,740.1506 223.4969,745.8068 223.768,751.0848 224.6077,756.6843 225.8968,761.8097 227.8061,767.1402 230.0643,771.9184 232.9707,776.7777 236.1123,781.0276 239.9056,785.2313 244.103,789.0315 248.662,792.3895 253.536,795.2712 258.3256,797.5051 263.6658,799.3873 269.1684,800.722 274.4013,801.4616 280.0583,801.7043 285.3354,801.4155 290.9321,800.5569 296.053,799.2506 301.3771,797.3234 306.1477,795.0491 310.6833,792.3363 315.2365,788.9705 319.4274,785.1631 323.2135,780.9529 326.3478,776.6977 329.2459,771.8334 331.4959,767.0513 333.396,761.7175 334.6763,756.5899 335.5064,750.989 335.7681,745.3329 335.4971,740.0548 334.6573,734.4553 333.3683,729.3299 331.459,723.9994 329.0224,718.8883 326.2944,714.3619 322.9132,709.8201 319.0918,705.642 315.162,702.1081 310.6031,698.7501 306.0629,696.0451 300.9395,693.6345 295.961,691.8609 290.4675,690.4893 284.8637,689.678 279.2068,689.4353 273.9297,689.7241 268.7032,690.5079 263.212,691.889"/>
    <polygon points="263.4745,693.8968 258.5146,695.7178 253.7558,698.0137 249.2435,700.7625 245.0207,703.938 241.1274,707.5101 237.6009,711.4446 234.4747,715.7041 231.7786,720.2481 229.5383,725.0332 227.775,730.014 226.4342,735.5136 225.7073,740.747 225.494,746.0263 225.7963,751.3013 226.6114,756.5217 227.9314,761.6378 229.7438,766.6008 232.0314,771.3636 234.7723,775.8806 237.9405,780.1091 241.5057,784.0085 245.4341,787.5419 249.6882,790.6755 254.2274,793.3795 259.0087,795.6282 263.9863,797.4001 269.113,798.6784 274.3398,799.4509 279.6171,799.7102 285.2701,799.4159 290.4919,798.61 295.6103,797.2989 300.5765,795.4951 305.3433,793.2159 309.8651,790.4828 314.099,787.322 318.0047,783.7636 321.5449,779.8414 324.6859,775.5928 327.3979,771.0582 329.6549,766.2809 331.4355,761.3064 332.7955,755.8114 333.5406,750.5806 333.7723,745.3021 333.4884,740.0261 332.6916,734.8029 331.3894,729.6822 329.5943,724.7129 327.3233,719.9422 324.5982,715.4156 321.4448,711.1761 317.8931,707.2643 313.9771,703.7172 309.734,700.5688 304.8708,697.6718 300.0817,695.4398 295.0979,693.6852 289.9668,692.4248 284.7373,691.6706 279.4592,691.4296 274.1827,691.7044 268.9581,692.4921"/>
    <polygon points="268.6353,692.1505 263.5143,693.4664 258.5448,695.272 253.7734,697.5503 249.2451,700.28 245.0024,703.4353 240.8188,707.2545 237.291,711.193 234.1612,715.4546 231.2828,720.3335 229.0663,725.1339 227.3251,730.1264 226.0054,735.6352 225.2954,740.8748 225.0961,746.1584 225.4094,751.4365 226.2323,756.6595 227.5571,761.7782 229.5192,767.0923 231.8388,771.8438 234.6075,776.3483 237.7994,780.5635 241.3845,784.4498 245.3291,787.9708 249.5961,791.0932 254.1454,793.7877 258.9342,796.0291 263.9175,797.7963 269.0486,799.0726 274.6552,799.8818 279.9378,800.1085 285.2174,799.8227 290.4446,799.0269 295.5702,797.7288 300.8944,795.7943 305.6578,793.4994 310.1766,790.7541 314.4084,787.5841 318.3133,784.0193 322.0928,779.7997 325.2079,775.5274 327.8945,770.9734 330.2692,765.8304 331.9931,760.832 333.2249,755.6901 333.9531,750.453 334.1706,745.1701 333.8756,739.8909 333.0708,734.6652 331.6515,729.1811 329.8201,724.221 327.517,719.4616 324.5507,714.6356 321.3442,710.4314 317.7456,706.5575 313.7889,703.0503 309.1943,699.7368 304.6173,697.0896 299.8054,694.8981 294.804,693.1829 289.6599,691.96 284.4217,691.2409 279.1384,691.0325 273.8597,691.3366"/>
    <polygon points="274.1713,692.5079 268.9445,693.3094 263.8228,694.6243 258.8565,696.4399 254.4267,698.5586 249.896,701.2852 245.6576,704.447 241.753,708.0128 238.2206,711.9477 235.0952,716.2131 232.4075,720.7669 230.3268,725.2146 228.5537,730.1963 227.2826,735.3291 226.5627,740.1865 226.2905,745.4673 226.5424,750.7491 227.316,755.98 228.495,760.7468 230.2489,765.7353 232.4881,770.5256 235.1906,775.0707 238.3298,779.3258 241.8748,783.2493 245.7909,786.8025 250.0396,789.9505 254.5791,792.6624 259.3647,794.9115 263.9879,796.5662 269.1139,797.8646 274.3432,798.6491 279.6245,798.912 284.9058,798.6507 290.1354,797.8678 295.2617,796.571 299.8854,794.9176 304.6717,792.67 309.212,789.9595 313.4616,786.8127 317.3788,783.2607 320.9251,779.3383 324.0656,775.0841 326.7694,770.5398 329.0101,765.7502 330.7655,760.7623 331.9459,755.9958 332.7211,750.7652 332.9746,745.4834 332.704,740.2025 331.9118,734.9744 330.6059,729.8503 328.7991,724.8808 326.5091,720.1145 323.7585,715.5984 320.8155,711.6677 317.2565,707.7568 313.3279,704.2175 309.0681,701.0846 304.5191,698.3888 300.075,696.3002 295.0964,694.5183 289.9659,693.2381 284.7339,692.4721 279.4517,692.2279"/>
    <line x1="301.7443" x2="599.6923" y1="697.3783" y2="760.647"/>
    <polygon points="601.6984,790.2775 597.9635,790.7972 594.3972,792.0226 591.1318,793.9085 588.031,796.6617 585.772,799.6811 584.1332,803.0772 583.1752,806.7244 582.9336,810.4876 583.4172,814.2274 584.6083,817.8052 586.4626,821.0887 588.9115,823.9562 592.1832,826.5039 595.5635,828.1754 599.2013,829.1684 602.9619,829.4463 606.7062,828.9987 610.6406,827.689 613.906,825.8031 616.7498,823.3267 619.2658,820.0305 620.9046,816.6344 621.8626,812.9872 622.0884,808.8467 621.5328,805.1169 620.273,801.5627 618.3558,798.3155 615.852,795.4957 612.8546,793.2077 609.12,791.4056 605.4637,790.4828"/>
    <polygon points="598.4021,792.1394 595.1863,793.2109 591.9165,795.0772 589.3585,797.3011 587.0556,800.2795 585.5473,803.315 584.5642,806.9493 584.3367,810.3312 584.8241,814.0644 586.0697,817.6173 587.7954,820.5347 590.0326,823.0811 592.7033,825.1683 595.7149,826.7236 599.3335,827.7631 603.0886,828.0353 606.4518,827.6139 609.6785,826.5758 612.9675,824.7435 615.8088,822.2734 617.8821,819.5919 619.4218,816.5722 620.4425,812.9483 620.705,809.5689 620.2564,805.8309 619.2015,802.6096 617.3523,799.3302 615.1417,796.7607 612.1752,794.4424 608.795,792.7845 605.5185,791.9164 602.1378,791.6714"/>
    <polygon points="604.9955,792.7842 601.6057,792.6297 598.2511,793.1417 595.404,794.1411 592.4654,795.8379 589.9157,798.0773 587.8538,800.7724 586.3594,803.819 585.4903,807.0992 585.2801,810.4861 585.737,813.8486 586.8434,817.0566 588.5563,819.9859 590.8095,822.5232 593.5159,824.5704 596.5706,826.0481 599.8555,826.8993 603.2435,827.0909 606.6035,826.6156 609.8054,825.4917 612.7253,823.7628 615.2502,821.4957 617.2825,818.7782 618.7435,815.7154 619.5767,812.4258 619.7498,809.0369 619.2561,805.6796 618.1147,802.4839 616.3698,799.5735 614.0889,797.0609 611.3603,795.0435 608.2896,793.5993"/>
    <polygon points="605.9114,790.0801 601.7759,789.805 598.0393,790.2977 594.1165,791.6353 590.8573,793.5281 587.7515,796.2724 585.4717,799.2737 583.6612,803.002 582.7122,806.6495 582.462,810.4101 583.0038,814.5191 584.2202,818.0864 586.0822,821.3633 588.5243,824.2341 591.777,826.8027 595.488,828.6482 599.1264,829.6315 603.2619,829.9066 606.9985,829.4139 610.9213,828.0763 614.1805,826.1835 617.2863,823.4392 619.5661,820.4379 621.3766,816.7096 622.3256,813.0621 622.5758,809.3015 622.034,805.1925 620.8176,801.6252 618.9556,798.3483 616.5135,795.4775 613.2608,792.9089 609.9021,791.199"/>
    <polygon points="617.9753,798.5899 615.4631,795.7749 612.4471,793.5079 609.3988,792.0095 605.7617,791.0062 601.9984,790.7364 598.2554,791.2106 594.6782,792.4103 591.4062,794.2888 588.5666,796.7732 586.2699,799.7666 584.6055,803.1525 583.6382,806.7994 583.4056,810.5652 583.9167,814.3033 585.1517,817.8684 587.0625,821.1217 589.5747,823.9367 592.5907,826.2037 595.9929,827.8345 599.6492,828.7658 603.417,828.9612 607.15,828.4132 610.7027,827.143 613.937,825.2002 616.7269,822.6602 618.964,819.622 620.5612,816.2038 621.3996,812.9122 621.6322,809.1464 621.1211,805.4083 619.8861,801.8432"/>
    <polygon points="609.1796,825.2586 612.1438,823.6025 614.714,821.3836 616.5823,819.0118 618.1375,815.9935 619.0533,812.7238 619.2922,809.3368 618.8443,805.9709 617.7281,802.7642 616.2112,800.1536 614.2511,797.8571 611.5956,795.7411 608.5685,794.2029 605.2938,793.3055 601.9054,793.0857 598.5422,793.5525 595.3418,794.6867 592.7398,796.2183 590.4544,798.1914 588.3533,800.8587 586.8322,803.8944 585.9533,807.1741 585.7525,810.5637 586.2383,813.9242 587.2308,816.7757 588.9367,819.7115 591.1987,822.2439 593.6017,824.0718 596.6459,825.5758 599.5578,826.3738 602.9435,826.6317 605.9427,826.2841"/>
    <polygon points="592.6162,825.6684 595.6388,827.1984 599.2587,828.2262 603.0112,828.5067 606.7437,828.0286 609.9602,826.9651 613.242,825.1239 616.0876,822.6617 618.3813,819.6785 620.0297,816.2958 620.9055,813.0232 621.1671,809.2693 620.6701,805.5393 619.5904,802.3282 617.7326,799.0557 615.2561,796.2226 612.2613,793.944 609.2234,792.4446 605.5933,791.4534 602.215,791.2008 598.4779,791.6412 594.9051,792.8226 591.6421,794.6968 588.8215,797.1877 586.7566,799.8734 585.0741,803.2393 584.1012,806.8743 583.8776,810.6307 584.325,813.9888 585.5244,817.5555 587.415,820.809 589.6447,823.3597"/>
    <polygon points="586.021,803.3908 585.0272,807.0242 584.8082,810.4086 585.2379,813.7727 586.3006,816.9933 588.1759,820.2603 590.4208,822.8023 593.4309,825.0671 596.4954,826.5199 599.7805,827.3623 603.166,827.5633 606.5278,827.1157 609.7427,826.0358 612.6929,824.3632 615.2705,822.1591 617.381,819.5044 619.0847,816.1448 619.9794,812.8735 620.2345,809.4916 619.7572,805.7551 618.6602,802.546 616.9719,799.6047 614.7542,797.0388 612.0882,794.9426 608.7196,793.2568 605.4436,792.3795 601.6833,792.1562 598.3265,792.6395 595.1232,793.7536 592.1909,795.4576 589.637,797.689 587.5549,800.3661"/>
    <polygon points="575.4652,715.1664 588.1136,712.5776 582.0006,704.0321"/>
    <line x1="575.4652" x2="585.0571" y1="715.1664" y2="708.3049"/>
    <line x1="584.8388" x2="575.932" y1="707.9997" y2="714.3711"/>
    <line x1="576.3687" x2="585.2754" y1="714.9815" y2="708.6101"/>
    <line x1="585.4938" x2="577.2721" y1="708.9153" y2="714.7966"/>
    <line x1="578.1756" x2="585.7121" y1="714.6116" y2="709.2205"/>
    <line x1="585.9304" x2="579.079" y1="709.5257" y2="714.4267"/>
    <line x1="579.9825" x2="586.1487" y1="714.2418" y2="709.8309"/>
    <line x1="586.367" x2="580.8859" y1="710.1361" y2="714.0569"/>
    <line x1="581.7894" x2="586.5854" y1="713.872" y2="710.4413"/>
    <line x1="586.8037" x2="582.6929" y1="710.7465" y2="713.6871"/>
    <line x1="583.5963" x2="587.022" y1="713.5022" y2="711.0517"/>
    <line x1="587.2403" x2="584.4998" y1="711.3569" y2="713.3173"/>
    <line x1="585.4032" x2="587.4586" y1="713.1324" y2="711.6621"/>
    <line x1="587.677" x2="586.3067" y1="711.9672" y2="712.9475"/>
    <line x1="587.2101" x2="587.8953" y1="712.7626" y2="712.2724"/>
    <line x1="584.6205" x2="576.3988" y1="707.6945" y2="713.5758"/>
    <line x1="576.8657" x2="584.4022" y1="712.7805" y2="707.3893"/>
    <line x1="584.1838" x2="577.3325" y1="707.0841" y2="711.9852"/>
    <line x1="577.7993" x2="583.9655" y1="711.1899" y2="706.7789"/>
    <line x1="583.7472" x2="578.2661" y1="706.4737" y2="710.3946"/>
    <line x1="578.7329" x2="583.5289" y1="709.5992" y2="706.1685"/>
    <line x1="583.3106" x2="579.1997" y1="705.8633" y2="708.8039"/>
    <line x1="579.6666" x2="583.0922" y1="708.0086" y2="705.5581"/>
    <line x1="582.8739" x2="580.1334" y1="705.2529" y2="707.2133"/>
    <line x1="580.6002" x2="582.6556" y1="706.418" y2="704.9477"/>
    <line x1="582.4373" x2="581.067" y1="704.6425" y2="705.6227"/>
    <line x1="581.5338" x2="582.219" y1="704.8274" y2="704.3373"/>
    <line x1="475.0899" x2="400.2265" y1="662.5074" y2="720.1506"/>
    <line x1="399.9909" x2="456.1384" y1="719.8446" y2="676.6122"/>
    <line x1="456.6096" x2="400.4621" y1="677.2242" y2="720.4566"/>
    <line x1="400.6977" x2="438.1294" y1="720.7626" y2="691.941"/>
    <line x1="437.187" x2="399.7553" y1="690.717" y2="719.5386"/>
    <line x1="399.5197" x2="418.2355" y1="719.2327" y2="704.8219"/>
    <line x1="419.6491" x2="400.9333" y1="706.6577" y2="721.0685"/>
    <polygon points="399.2841,718.9267 401.1689,721.3745 475.0899,662.5074"/>
    <polygon points="377.8688,721.4007 342.2633,679.1361 376.6408,722.4055"/>
    <line x1="377.5618" x2="360.0661" y1="721.6519" y2="700.2684"/>
    <line x1="359.452" x2="376.9478" y1="700.7708" y2="722.1543"/>
    <line x1="377.2548" x2="342.2633" y1="721.9031" y2="679.1361"/>
    <line x1="356.5056" x2="317.9108" y1="683.0248" y2="689.4502"/>
    <polygon points="317.8425,689.0402 318.1839,691.0904 414.5001,674.0016"/>
    <line x1="317.9791" x2="395.1686" y1="689.8603" y2="677.0093"/>
    <line x1="395.2368" x2="318.0473" y1="677.4194" y2="690.2703"/>
    <line x1="318.1156" x2="356.7104" y1="690.6803" y2="684.2549"/>
    <line x1="367.963" x2="439.2303" y1="676.1346" y2="563.2631"/>
    <polygon points="428.5345,598.8902 423.2971,598.1727 418.0143,597.979 412.7384,598.3111 407.5216,599.1657 402.4155,600.5343 397.4706,602.4033 392.7358,604.7544 388.2581,607.5642 384.369,610.5599 380.5094,614.1722 377.0277,618.15 373.9584,622.4541 371.5042,626.7056 369.4528,631.1655 367.7139,636.1577 366.4797,641.2979 365.7621,646.5353 365.5684,651.8181 365.9005,657.094 366.7551,662.3108 368.1237,667.4169 369.9928,672.3618 372.3439,677.0966 375.1537,681.5744 378.1493,685.4634 381.7616,689.323 385.7395,692.8047 390.0435,695.874 394.2951,698.3282 399.1055,700.5202 404.11,702.2236 409.2588,703.4213 414.1248,704.0703 419.4076,704.264 424.308,703.973 429.5307,703.1555 434.6464,701.8233 439.6045,699.9894 444.3558,697.672 448.8535,694.8941 453.0529,691.6831 456.6489,688.3414 460.1588,684.3884 463.2586,680.1062 465.9177,675.5373 468.1097,670.7269 469.7079,666.0853 470.9422,660.9451 471.6598,655.7077 471.8534,650.4249 471.5213,645.149 470.6668,639.9321 469.2982,634.826 467.4291,629.8811 465.078,625.1464 462.2682,620.6686 459.2725,616.7796 455.6602,612.9199 451.9778,609.6736 447.6957,606.5738 443.1268,603.9147 438.667,601.8633 433.6748,600.1245"/>
    <polygon points="407.9029,600.6721 403.1563,601.9279 398.2033,603.7782 393.7959,605.9419 389.6142,608.5148 385.6959,611.4736 381.8115,615.0606 378.5508,618.7314 375.6538,622.6955 372.9707,627.2514 370.9088,631.7074 369.2798,636.3392 368.0265,641.4757 367.3391,646.3373 367.1192,651.62 367.4002,656.5218 368.1459,661.3747 369.4608,666.4959 371.1452,671.1078 373.4404,675.8709 375.998,680.0621 379.1842,684.2815 382.7854,688.1527 386.4681,691.3999 390.4428,694.2824 395.0085,696.9488 399.472,698.9944 404.4725,700.712 409.2508,701.8409 414.1149,702.5105 419.0205,702.7147 424.2991,702.4121 429.519,701.5708 434.2656,700.315 439.2185,698.4648 443.626,696.3011 447.8077,693.7282 451.726,690.7694 455.6103,687.1823 458.8711,683.5116 461.9751,679.2314 464.4512,674.9916 466.5131,670.5356 468.249,665.5414 469.3954,660.7672 470.0828,655.9057 470.3049,651.0008 470.0216,645.7212 469.276,640.8682 467.9611,635.7471 466.129,630.7874 463.9814,626.3721 461.2108,621.8689 458.2377,617.9615 454.6365,614.0903 450.9537,610.843 446.979,607.9605 442.4134,605.2941 437.9499,603.2486 432.9494,601.531 427.7994,600.3342 422.9306,599.7002 418.0236,599.532 412.7473,599.8732"/>
    <polygon points="367.5788,590.3391 371.9619,589.2013 376.2169,587.6516 380.637,585.5241 384.8142,582.9524 388.4161,580.2077 392.0039,576.8624 394.9935,573.4611 397.8508,569.4738 400.1107,565.5496 402.1252,561.0769 403.5665,556.7839 404.5926,552.3733 405.1943,547.8851 405.3609,542.9825 405.0653,538.4637 404.341,533.9936 403.0802,529.253 401.3375,524.6675 399.317,520.6148 396.92,516.7729 394.1682,513.1765 391.0866,509.8583 387.4086,506.6125 383.733,503.9675 379.8223,501.6843 375.712,499.7837 371.0774,498.1763 366.673,497.1239 361.8123,496.4625 357.2869,496.2997 352.7664,496.5684 348.2921,497.2661 343.9045,498.3864 339.6434,499.9193 335.2149,502.0292 331.0274,504.5843 327.4147,507.3146 323.8137,510.6456 320.8106,514.035 317.9374,518.011 315.662,521.9262 313.7696,526.0402 312.1714,530.678 311.1278,535.0845 310.476,539.9465 310.3222,544.4723 310.5998,548.9922 311.3064,553.4651 312.4355,557.8505 313.9768,562.1085 316.0955,566.5328 318.6589,570.7152 321.3964,574.3225 324.4648,577.6529 328.1299,580.9133 331.795,583.5729 335.6966,585.8716 340.1491,587.9304 344.4275,589.4142 349.1986,590.5542 353.6857,591.1648 358.2105,591.3456 363.1073,591.0546"/>
    <polygon points="357.1847,540.0638 348.4723,534.231 346.7191,539.4314"/>
    <line x1="364.7976" x2="415.1819" y1="473.1389" y2="488.3762"/>
    <polygon points="440.2566,480.5611 445.2807,484.5448 450.9961,487.4507 457.175,489.1631 463.1932,489.6226 469.1911,488.9477 475.3047,487.0149 480.9123,483.906 485.7904,479.7448 489.7444,474.6974 492.4799,469.3171 494.2286,463.1484 494.7235,457.133 494.0065,450.7614 492.1871,445.0064 489.1112,439.3806 484.9789,434.4781 480.2715,430.7003 474.5907,427.7273 468.4324,425.9424 462.0422,425.4166 455.6749,426.1711 449.9307,428.0243 444.3231,431.1333 439.445,435.2944 435.491,440.3419 432.7555,445.7221 431.0752,451.5193 430.5119,457.9063 431.2289,464.2778 433.1976,470.3799 436.1242,475.6587"/>
    <polygon points="440.7911,479.8784 445.4934,483.6553 450.8338,486.4584 456.9842,488.2536 462.994,488.7634 468.9897,488.109 475.0951,486.1662 480.3664,483.2353 484.9764,479.3462 488.7534,474.6439 491.5565,469.3035 493.2814,463.5241 493.8615,457.1434 493.2071,451.1476 491.413,445.3893 488.546,440.0829 484.4443,435.1609 479.742,431.384 474.0511,428.4406 468.2512,426.7857 462.2414,426.2759 456.2457,426.9302 450.4874,428.7243 444.869,431.8039 440.259,435.693 436.482,440.3954 433.5387,446.0863 431.8837,451.8861 431.374,457.8959 432.1075,464.2608 433.9711,469.997 436.902,475.2683"/>
    <polygon points="446.4439,482.2166 451.4525,484.8486 457.2422,486.5479 462.8788,487.0402 468.5057,486.4482 473.9164,484.7937 478.9121,482.1372 483.577,478.3101 487.3663,473.6144 489.9822,468.5974 491.663,462.8022 492.1373,457.1641 491.4485,451.1696 489.7075,445.7861 486.9715,440.8335 483.341,436.4939 478.6332,432.7196 473.6079,430.1198 467.8074,428.4576 462.1678,428.0013 456.5447,428.6293 451.1447,430.3184 445.8538,433.2193 441.5258,436.8637 437.9726,441.2669 435.1829,446.6172 433.6068,452.0513 433.0964,457.6862 433.6704,463.3151 435.3077,468.731 437.9481,473.7352 441.7603,478.4123"/>
    <polygon points="468.3044,485.6094 473.7078,483.9466 478.6797,481.2554 483.0266,477.6406 486.5793,473.2428 489.1995,468.2332 490.7854,462.8067 491.2753,457.1745 490.6499,451.5557 488.9338,446.169 486.1936,441.2239 482.5361,436.913 478.1034,433.4039 473.4188,430.9732 467.9975,429.3695 462.367,428.8611 456.7461,429.4679 451.3538,431.1663 446.3997,433.8902 442.0768,437.5335 438.5531,441.9546 435.9659,446.9813 434.4854,452.0471 433.9585,457.676 434.5468,463.2988 436.2274,468.6967 438.935,473.6597 442.5641,477.9946 446.9735,481.5328 451.9917,484.1366 457.4234,485.7046 462.6797,486.1792"/>
    <line x1="481.1886" x2="463.8677" y1="471.8716" y2="449.3533"/>
    <line x1="464.1595" x2="498.8014" y1="449.1288" y2="494.1654"/>
    <line x1="500.8444" x2="466.2025" y1="492.5939" y2="447.5574"/>
    <line x1="465.9107" x2="517.8735" y1="447.7819" y2="515.3367"/>
    <line x1="516.4142" x2="464.4514" y1="516.4592" y2="448.9043"/>
    <line x1="464.7433" x2="534.027" y1="448.6798" y2="538.7529"/>
    <line x1="534.9026" x2="465.6188" y1="538.0795" y2="448.0064"/>
    <line x1="465.327" x2="551.9316" y1="448.2309" y2="560.8222"/>
    <line x1="551.6398" x2="465.0351" y1="561.0467" y2="448.4553"/>
    <line x1="466.4944" x2="483.8153" y1="447.3329" y2="469.8512"/>
    <polygon points="490.4132,457.1849 489.8498,451.9418 488.3065,446.8994 485.6292,441.9256 482.2702,437.8605 477.8902,434.2935 473.2292,431.8273 468.1864,430.2856 462.5659,429.7222 456.9475,430.3066 451.9104,431.867 447.2587,434.3507 442.892,437.9339 439.3399,442.326 436.8895,446.9953 435.2932,452.4137 434.8206,457.6658 435.3484,462.9125 437.0016,468.3139 439.7126,473.2695 443.0991,477.3116 447.5031,480.8488 452.1807,483.2834 457.234,484.7908 462.8582,485.3161 468.1031,484.7705 473.4988,483.099 478.1336,480.5838 482.4758,476.971 485.7918,472.8709 488.4167,467.8691 489.907,462.8108"/>
    <polygon points="490.8442,457.1797 490.2109,451.5642 488.6209,446.534 485.9117,441.5746 482.538,437.5188 478.155,433.9517 473.4984,431.4723 468.0921,429.827 462.4665,429.2915 456.8468,429.8872 451.8061,431.4436 446.8288,434.1196 442.4842,437.7334 438.9465,442.1402 436.4983,446.8133 434.8891,452.2304 434.3912,457.8596 435.0245,463.4751 436.6145,468.5053 439.3237,473.4646 442.9665,477.7849 447.3969,481.2931 452.4372,483.8485 457.8856,485.3487 463.1463,485.7432 468.7575,485.0724 474.1226,483.2973 478.7181,480.7065 483.0139,477.0349 486.4924,472.5812 488.8779,467.8759 490.3463,462.8088"/>
    <polygon points="491.0888,451.5473 489.395,446.1511 486.6892,441.1846 483.0734,436.8355 478.6845,433.2683 473.6882,430.6177 468.2735,428.984 462.2674,428.431 456.6454,429.0486 451.2492,430.7423 445.9716,433.6622 441.6698,437.3341 438.1598,441.769 435.5744,446.7993 434.0111,452.2347 433.5291,457.8699 434.1467,463.4919 435.8404,468.8881 438.5463,473.8547 442.162,478.2037 446.8671,481.9775 451.8974,484.563 457.3328,486.1262 462.968,486.6082 468.59,485.9907 473.9862,484.2969 478.9527,481.5911 483.3018,477.9753 486.869,473.5864 489.5196,468.5901 491.1533,463.1754 491.7063,457.1693"/>
    <polygon points="487.7689,440.4726 483.9095,435.8438 479.2124,432.0678 473.8624,429.2931 468.4408,427.699 462.4405,427.1363 456.4471,427.7689 451.0444,429.4262 445.7272,432.2631 441.0745,436.0937 437.2694,440.7672 434.4615,446.0999 432.7615,451.8818 432.236,457.8855 432.9059,463.8748 434.7447,469.6141 437.4666,474.5666 441.3259,479.1954 446.023,482.9715 451.373,485.7461 456.7946,487.3403 462.795,487.903 468.7883,487.2703 474.5389,485.4672 479.8205,482.5644 484.4253,478.6764 487.966,474.272 490.7739,468.9394 492.474,463.1575 492.9994,457.1537 492.4061,451.5338 490.6387,445.7721"/>
    <polygon points="466.7862,447.1084 463.5758,449.5778 560.4462,572.1936"/>
    <polygon points="467.554,431.0404 462.2933,430.5862 457.0451,431.167 452.0111,432.7605 447.3846,435.3055 443.3435,438.7042 440.0432,442.8259 437.6103,447.5123 436.1385,452.5833 435.6843,457.844 436.2651,463.0922 437.8586,468.1263 440.4036,472.7527 443.8023,476.7938 447.924,480.0942 452.6104,482.527 457.6814,483.9988 462.9421,484.453 468.1903,483.8722 473.2244,482.2787 477.8508,479.7337 481.8919,476.3351 485.1922,472.2133 487.6251,467.5269 489.0969,462.4559 489.5511,457.1953 488.9703,451.947 487.3768,446.913 484.8318,442.2865 481.4332,438.2455 477.3114,434.9451 472.625,432.5123"/>
    <polygon points="467.4588,430.5848 462.1937,430.1565 456.9444,430.7477 451.9065,432.3365 447.2677,434.8635 443.2008,438.2348 439.8574,442.3245 437.362,446.9805 435.7344,452.3999 435.2516,457.6602 435.8655,463.2853 437.4717,468.3177 440.0147,472.9478 443.4,477.003 447.5013,480.3323 452.1658,482.8115 457.5908,484.4204 462.8528,484.8851 468.106,484.3301 473.1548,482.7761 478.1238,480.0692 482.1673,476.67 485.6879,472.24 488.0862,467.5334 489.5357,462.4537 489.9822,457.1901 489.3294,451.5693 487.6886,446.5482 485.1136,441.9358 481.7004,437.904 477.5763,434.6032 472.5435,432.0167"/>
    <polygon points="451.0403,429.8947 445.7366,432.777 441.1185,436.6641 437.5789,441.081 434.7914,446.4351 433.2029,451.8679 432.6671,457.8803 433.3476,463.8781 435.0664,469.271 437.982,474.5565 441.627,478.8869 446.0215,482.4543 451.3579,485.2755 457.1516,486.9695 462.7895,487.472 468.7914,486.8293 474.5427,484.9963 479.4988,482.2623 484.117,478.3752 487.6565,473.9583 490.4441,468.6041 492.1015,462.7998 492.5684,457.1589 491.9657,451.5309 490.169,445.7682 487.4664,440.7949 483.6085,436.1524 478.8981,432.3776 473.8775,429.7638 468.0838,428.0698 462.446,427.5673 456.444,428.21"/>
    <polygon points="442.5289,424.6753 442.4366,421.4273 294.4554,427.2591"/>
    <line x1="442.5186" x2="409.6237" y1="424.3144" y2="425.2495"/>
    <line x1="409.5519" x2="442.4468" y1="422.7232" y2="421.7881"/>
    <line x1="442.4571" x2="376.6671" y1="422.149" y2="424.0192"/>
    <line x1="376.7184" x2="442.5084" y1="425.8237" y2="423.9535"/>
    <line x1="442.4981" x2="343.8132" y1="423.5926" y2="426.3979"/>
    <line x1="343.7824" x2="442.4673" y1="425.3152" y2="422.5099"/>
    <line x1="442.4776" x2="310.8977" y1="422.8708" y2="426.6112"/>
    <line x1="310.908" x2="442.4879" y1="426.972" y2="423.2317"/>
    <polygon points="436.0885,440.2096 433.2876,445.5537 431.4793,451.7027 430.9412,457.7123 431.5523,463.7148 433.4353,469.8414 436.5131,475.4635 440.3889,480.0876 445.3868,484.1003 450.7392,486.8852 456.5226,488.6048 462.9048,489.1954 469.2752,488.4892 475.0264,486.6651 480.3275,483.7837 485.2519,479.6811 489.2496,474.6712 492.0186,469.3105 493.7902,463.1508 494.2925,457.1382 493.5673,450.7699 491.7261,445.0241 488.8289,439.7316 484.7116,434.8195 480.0068,431.0421 474.3209,428.0837 468.156,426.3304 462.1418,425.8461 456.145,426.5109 450.0355,428.4486 444.4411,431.5765 439.8518,435.4935"/>
    <polygon points="434.0702,445.9178 432.3576,451.6985 431.8033,457.702 432.4286,463.6985 434.2096,469.4585 437.078,474.7615 440.9241,479.4045 445.6006,483.2097 450.9285,486.0314 456.7039,487.7618 462.7057,488.3344 468.7042,487.7275 474.8171,485.8169 480.0935,482.8999 484.7009,479.0113 488.463,474.3 491.2357,468.9464 492.9129,463.1553 493.4304,457.1485 492.7684,451.1559 490.9522,445.407 488.0514,440.1216 484.1769,435.5023 479.4772,431.7258 474.1321,428.9367 468.3462,427.2418 462.341,426.7059 456.3464,427.3496 450.5919,429.1482 445.2977,432.0328 440.6665,435.8931 436.8757,440.5812"/>
    <polygon points="389.0927,395.2165 392.6409,391.8242 396.09,387.8182 399.119,383.4859 401.6974,378.8712 403.6653,374.374 405.2049,369.7128 406.3687,364.5563 407.0085,359.309 407.1178,354.0239 406.7432,349.1293 405.831,343.9224 404.4003,338.8335 402.4655,333.9141 400.2346,329.5414 397.3872,325.0876 394.1068,320.9424 390.4265,317.1478 386.6835,313.9718 382.3403,310.9584 378.055,308.564 373.2121,306.4448 368.5454,304.922 363.3848,303.7768 358.5119,303.1827 353.2273,303.0544 347.9565,303.4577 343.1213,304.3048 338.0272,305.7172 333.1009,307.6343 328.3922,310.0367 323.9486,312.9 320.0993,315.9463 316.2915,319.613 313.102,323.3446 310.073,327.6769 307.4946,332.2916 305.3928,337.142 303.7891,342.1791 302.6996,347.3518 302.1581,352.2307 302.0868,357.5164 302.4965,362.4082 303.4461,367.6084 304.9134,372.6869 306.7265,377.2487 309.1458,381.9487 311.8047,386.0751 315.0852,390.2203 318.7655,394.0149 322.5085,397.1909 326.8517,400.2044 331.137,402.5988 335.9799,404.7179 341.0111,406.3398 345.8072,407.386 351.0568,408.0069 356.3423,408.0972 361.2355,407.7051 366.4391,406.7742 371.1647,405.4456 376.0911,403.5285 380.7998,401.1261 384.9357,398.482"/>
    <polygon points="375.4372,353.7423 371.0957,349.5383 366.3799,345.759 361.0057,342.2457 355.3089,339.2839 349.346,336.903 343.176,335.1264 336.8599,333.9719 330.838,333.4637 324.4178,333.5436 318.0373,334.2611 312.125,335.5126 306.0011,337.4421 300.0992,339.9706 294.4778,343.0731 289.1926,346.719 284.5723,350.6144 280.0857,355.2074 276.0777,360.2235 272.588,365.6131 269.6513,371.3228 267.4185,376.9385 265.6329,383.106 264.4691,389.4203 263.9386,395.8191 264.0466,402.2389 264.7922,408.6162 266.1678,414.8878 268.026,420.6383 270.5804,426.529 273.5083,431.8157 277.1464,437.1062 281.2923,442.009 285.9049,446.4754 290.9386,450.4614 296.0162,453.7385 301.7216,456.6836 307.6915,459.0471 313.4989,460.7192 319.8115,461.8922 326.2095,462.4321 332.6294,462.3335 339.0078,461.5973 345.2814,460.2308 351.3882,458.2477 356.9291,455.8353 362.5414,452.7163 367.5159,449.2847 372.4247,445.146 376.898,440.54 380.6704,435.8187 384.1758,430.4393 387.1292,424.7382 389.5014,418.7718 391.269,412.5992 392.3644,406.656 392.9136,400.2588 392.8244,393.8387 392.0975,387.4593 390.7403,381.1836 388.766,375.074 386.3618,369.5295 383.251,363.9127 379.5974,358.6329"/>
    <polygon points="347.7518,366.8121 352.2886,362.266 356.3738,357.3102 360.1666,351.6662 363.3737,345.67 365.9629,339.3822 367.8171,333.2332 369.1357,326.5623 369.7603,320.1702 369.758,313.3702 369.0733,306.6048 367.8061,300.3085 365.8203,293.8049 363.1919,287.5335 360.1431,281.8807 356.3466,276.2392 352.258,271.2862 347.438,266.4896 342.1609,262.2009 336.8054,258.656 331.1378,255.6348 324.8537,253.0369 318.7072,251.1741 312.0381,249.8462 305.6469,249.2127 298.8469,249.2055 292.0806,249.8808 285.7825,251.1391 279.2762,253.1158 273.3425,255.5735 267.6686,258.5827 262.0007,262.3398 257.0193,266.3937 252.1892,271.1801 247.8638,276.4271 244.0868,282.0817 241.0577,287.745 238.451,294.0255 236.4877,300.536 235.2424,306.8366 234.5811,313.6043 234.5833,320.0269 235.2491,326.7942 236.4987,333.094 238.4663,339.6031 240.9157,345.5402 243.917,351.2183 247.6661,356.8914 251.9657,362.1596 256.4927,366.7153 261.7337,371.048 267.383,374.8329 273.0421,377.8699 279.3189,380.4854 285.4601,382.3653 292.1255,383.7118 298.5149,384.3632 305.3148,384.3894 312.0831,383.733 318.7513,382.4006 324.8965,380.5337 331.1789,377.9315 337.1684,374.712 342.5017,371.1337"/>
    <polygon points="367.3104,300.2634 365.4365,294.1252 362.9856,288.1938 359.7866,282.1989 356.2237,276.8608 351.9148,271.6067 347.3774,267.0679 342.1247,262.7572 336.7877,259.1927 331.1351,256.1535 324.8632,253.5389 318.3593,251.5711 312.0637,250.3247 305.3006,249.6659 298.8828,249.6739 292.1214,250.3495 285.8289,251.6116 279.6854,253.4682 273.4054,256.0632 267.7433,259.0846 262.0915,262.8569 257.129,266.9267 252.3234,271.7307 248.2521,276.6918 244.478,282.3424 241.4547,288.0036 238.8578,294.2828 236.9082,300.7922 235.6795,307.0913 235.0397,313.8562 235.0657,320.274 235.7604,327.0334 237.0402,333.3224 238.914,339.4606 241.5266,345.7333 244.564,351.3869 248.3521,357.0281 252.4358,361.9791 256.9732,366.5179 261.9228,370.6032 267.5628,374.3931 273.2154,377.4323 279.4873,380.0469 285.6249,381.9227 292.2869,383.2611 298.6727,383.9013 305.4678,383.912 312.2291,383.2363 318.5217,381.9742 325.0206,379.9902 330.9452,377.5226 336.931,374.3068 342.2591,370.7289 347.2215,366.6592 352.0271,361.8551 356.323,356.5903 359.8725,351.2434 362.8958,345.5822 365.4927,339.303 367.3513,333.1602 368.671,326.4945 369.3108,319.7296 369.2848,313.3118 368.5902,306.5524"/>
    <polygon points="305.4017,251.5512 298.9795,251.5497 292.5883,252.1788 286.2897,253.4325 280.1447,255.2987 274.2126,257.7592 268.5508,260.7904 263.214,264.3628 258.2539,268.4421 253.7182,272.9888 249.651,277.9588 246.0914,283.3042 243.074,288.9733 240.6278,294.9114 238.7766,301.0609 237.5382,307.3625 236.9245,313.7552 236.9416,320.1774 237.5892,326.5668 238.7692,332.4951 240.6175,338.6455 243.0609,344.5847 246.0757,350.2552 249.6327,355.6023 253.6976,360.5743 258.2311,365.123 263.1894,369.2046 268.5245,372.7796 274.1849,375.8135 280.1158,378.2768 286.2599,380.1458 292.5579,381.4025 298.9489,382.0346 305.371,382.0361 311.7623,381.407 318.0608,380.1533 324.2059,378.2872 330.1379,375.8266 335.7997,372.7955 341.1365,369.223 346.0967,365.1437 350.6323,360.5971 354.6996,355.627 358.2591,350.2816 361.2765,344.6125 363.7227,338.6745 365.574,332.5249 366.8124,326.2233 367.426,319.8306 367.409,313.4085 366.7613,307.0191 365.4894,300.7241 363.6055,294.5845 361.1278,288.6596 358.0803,283.0066 354.4924,277.6802 350.3988,272.7318 345.8391,268.2093 340.8573,264.1565 335.8261,260.8062 330.1657,257.7724 324.2348,255.309 318.0906,253.44 311.7926,252.1833"/>
    <polygon points="280.2079,254.7777 274.2672,257.2144 268.2679,260.4125 262.9334,263.9864 257.9726,268.0632 253.4329,272.6042 249.3575,277.5661 245.7852,282.9017 242.75,288.5601 240.2808,294.4874 238.4012,300.6272 237.0735,307.2947 236.4577,313.6861 236.4678,320.1072 237.1038,326.4966 238.3597,332.7937 240.2234,338.9383 242.6772,344.872 245.6977,350.5382 249.2562,355.883 253.3188,360.8554 257.8468,365.4082 262.797,369.4978 268.1223,373.0855 273.7719,376.1369 279.6921,378.623 285.8265,380.5203 292.4902,381.8671 298.8798,382.5013 305.3008,382.5096 311.6921,381.892 317.9927,380.6542 324.1427,378.8082 330.4251,376.2101 336.0826,373.1733 341.4172,369.5995 346.657,365.2679 351.1706,360.7009 355.2175,355.7157 358.7591,350.3597 361.7617,344.684 364.1968,338.7426 366.0411,332.5921 367.277,326.2911 367.8929,319.8997 367.8828,313.4786 367.2467,307.0892 365.9909,300.7921 364.1272,294.6475 361.6734,288.7138 358.6528,283.0476 355.0943,277.7028 351.0317,272.7304 346.5038,268.1777 341.5536,264.088 336.2283,260.5004 330.2373,257.2868 324.3029,254.8347 318.1578,252.9727 311.8604,251.7187 305.4707,251.0845 299.0497,251.0762 292.6584,251.6939 286.3578,252.9316"/>
    <polygon points="518.959,405.5233 511.8772,408.1485 505.4249,411.2874 498.9883,415.2386 493.2689,419.5716 487.9877,424.4289 482.9545,430.06 478.7178,435.851 474.8747,442.3528 471.702,449.2067 469.3378,455.9814 467.6288,462.9502 466.5547,470.4261 466.2325,477.5942 466.6316,485.1363 467.7839,492.6005 469.5656,499.5511 472.1463,506.6492 475.2447,513.121 479.1556,519.5823 483.6937,525.6195 488.5444,530.9068 494.1692,535.9471 500.2703,540.399 506.4519,544.0423 513.3018,547.2236 520.0735,549.5963 527.411,551.3859 534.5147,552.3975 542.0601,552.7271 549.6007,552.2997 557.0606,551.1194 564.3648,549.1981 571.0927,546.7041 577.8843,543.4001 583.9994,539.6463 590.0195,535.0855 595.2885,530.2149 600.3076,524.5713 604.5298,518.7696 608.3565,512.2582 611.3708,505.7467 613.8593,498.6158 615.6213,491.2716 616.6061,484.1641 616.9074,476.6175 616.4923,469.4542 615.3977,462.3629 613.5222,455.0468 611.0704,448.3033 607.8091,441.4911 603.8821,435.0397 599.3288,429.0139 594.1952,423.4742 588.8275,418.7125 583.0312,414.4831 576.5245,410.6482 569.6666,407.4841 562.889,405.1284 555.9181,403.4282 548.4408,402.3634 540.8946,402.0527 533.7308,402.4588 526.268,403.6204"/>
    <polygon points="521.9538,535.33 422.2658,515.08 370.3162,770.8215 470.0042,791.0714"/>
    <line x1="543.9129" x2="549.043" y1="540.6456" y2="543.6392"/>
    <line x1="548.852" x2="544.4547" y1="543.9666" y2="541.4006"/>
    <line x1="544.9966" x2="548.6609" y1="542.1556" y2="544.2939"/>
    <line x1="548.4699" x2="545.5384" y1="544.6213" y2="542.9106"/>
    <line x1="546.0803" x2="548.2789" y1="543.6657" y2="544.9486"/>
    <line x1="548.0878" x2="546.6221" y1="545.276" y2="544.4207"/>
    <line x1="547.1639" x2="547.8968" y1="545.1757" y2="545.6034"/>
    <line x1="549.234" x2="544.1039" y1="543.3118" y2="540.3182"/>
    <line x1="545.0278" x2="549.425" y1="540.4185" y2="542.9845"/>
    <line x1="549.6161" x2="545.9517" y1="542.6571" y2="540.5188"/>
    <line x1="546.8756" x2="549.8071" y1="540.6191" y2="542.3297"/>
    <line x1="549.9981" x2="547.7995" y1="542.0024" y2="540.7194"/>
    <line x1="548.7234" x2="550.1892" y1="540.8197" y2="541.675"/>
    <line x1="550.3802" x2="549.6473" y1="541.3477" y2="540.92"/>
    <polygon points="550.5712,541.0203 543.642,540.2681 547.7058,545.9307"/>
    <polygon points="468.7431,665.6962 469.8923,660.925 470.622,655.6907 470.8178,650.4094 470.5198,645.5107 469.7622,640.6618 468.4403,635.5449 466.6069,630.5882 464.4629,626.1736 461.7007,621.6679 458.7393,617.7544 455.1539,613.8717 451.1937,610.3722 447.2162,607.4971 442.6512,604.8343 438.1907,602.7875 433.195,601.063 428.0504,599.8535 423.1861,599.2022 418.2821,599.0115 413.0063,599.3229 408.1588,600.0893 403.0443,601.4205 398.4383,603.1147 393.6802,605.4148 389.1795,608.1851 385.2714,611.1536 381.6598,614.4766 378.1388,618.4177 375.2422,622.3795 372.5546,626.93 370.3417,631.7293 368.6263,636.7281 367.4261,641.8749 366.7837,646.7404 366.6018,651.6448 366.9228,656.9199 367.7764,662.1355 369.0384,666.8781 370.8897,671.8282 373.0497,676.235 375.8282,680.7306 378.8037,684.6334 382.4032,688.5031 386.0808,691.7528 390.0478,694.6422 394.6031,697.3216 399.4065,699.5257 404.0456,701.1271 409.1858,702.3553 414.0477,703.0242 419.3286,703.2296 424.6032,702.899 429.4479,702.1151 434.5576,700.7654 439.5042,698.9051 443.9071,696.7371 448.3977,693.9506 452.2951,690.9679 456.1582,687.3615 459.4013,683.678 462.4896,679.3893 464.9546,675.1455 467.1501,670.3382"/>
    <polygon points="367.5872,667.439 369.4398,672.3877 371.77,677.1302 374.5554,681.6205 377.7689,685.8152 381.109,689.4098 385.0568,692.9222 389.3308,696.0293 393.8897,698.701 398.6893,700.9114 403.6829,702.6391 408.8223,703.8673 414.0575,704.5841 418.9603,704.7856 424.2367,704.5009 429.4596,703.6987 434.5782,702.3868 439.543,700.5778 444.3058,698.2893 448.8205,695.5435 453.0432,692.3671 456.9331,688.7907 460.4524,684.8491 463.567,680.5805 466.2467,676.0263 468.4655,671.2307 470.202,666.2401 471.4392,661.1029 472.1653,655.8689 472.373,650.5889 472.0605,645.3141 471.2307,640.0956 469.8918,634.9839 468.0566,630.0288 465.7431,625.2781 462.9735,620.778 459.7748,616.572 456.1779,612.7011 452.2178,609.2026 447.9329,606.1106 443.3646,603.455 438.5573,601.2615 433.5576,599.5514 428.414,598.3413 423.1762,597.6429 417.8952,597.463 412.6221,597.8033 407.408,598.6606 402.3035,600.0265 397.3581,601.8878 392.6197,604.2264 388.4453,606.8056 384.2338,609.9969 380.3565,613.587 376.8511,617.5409 373.7515,621.8204 371.0879,626.384 368.8859,631.1874 367.167,636.1841 365.9479,641.3256 365.2403,646.5621 365.0511,651.8428 365.3821,657.1165 366.2302,662.3321"/>
    <polygon points="366.0824,651.4155 366.3389,656.3199 367.1251,661.5498 368.4321,666.6744 370.2469,671.642 372.5511,676.4023 375.3213,680.9074 378.2867,684.8222 381.8731,688.7091 385.5372,691.9793 389.8053,695.1024 394.3652,697.7813 398.8206,699.8475 403.8112,701.5978 408.5812,702.7669 413.8156,703.5227 419.0994,703.7495 424.3793,703.4448 429.2319,702.6886 434.3541,701.3723 438.9701,699.6953 443.7428,697.4168 448.2627,694.6709 452.4842,691.4851 456.0996,688.1612 459.6282,684.2218 462.7436,679.9482 465.4144,675.3834 467.4726,670.9243 469.2139,665.9305 470.3744,661.1585 471.1209,655.9227 471.3381,650.6385 471.024,645.3592 470.1815,640.1381 468.9336,635.3881 467.101,630.4271 464.9613,626.0066 462.2072,621.4916 459.0139,617.2758 455.4136,613.4018 451.7378,610.1449 447.4585,607.0371 442.889,604.3745 438.0753,602.184 433.4293,600.592 428.2838,599.37 423.4181,598.703 418.5114,598.4925 413.2305,598.7782 408.0049,599.5925 402.8874,600.9271 397.9297,602.7687 393.513,604.9163 389.003,607.6785 385.0828,610.6369 381.1895,614.2162 377.6751,618.1683 374.782,622.1369 372.0949,626.692 370.0207,631.1437 368.2615,636.1312 367.0118,641.2701 366.3186,646.1321"/>
    <polygon points="314.5436,702.1207 310.2698,699.0084 305.7203,696.315 300.9361,694.0648 295.5986,692.1685 290.0962,690.8238 284.862,690.0787 279.5807,689.8329 273.924,690.1259 268.6964,690.9163 263.2058,692.3084 257.8849,694.2507 253.1203,696.5422 248.2812,699.4862 244.0558,702.664 239.8848,706.4964 236.3615,710.4383 233.0192,715.0115 230.3336,719.5655 228.0915,724.3536 226.2043,729.6943 224.9405,734.828 224.1326,740.4344 223.8958,745.7161 224.1984,751.3723 225.0736,756.9686 226.3991,762.0868 228.3504,767.4044 230.6499,772.1651 233.3901,776.6865 236.7871,781.2192 240.3576,785.1184 244.5744,788.9003 249.1532,792.2348 253.7118,794.9128 258.5037,797.1467 263.8476,799.0249 268.9834,800.28 274.5912,801.0783 279.8733,801.3063 285.529,800.994 291.1238,800.1093 296.2397,798.7752 301.554,796.8149 306.3108,794.5073 311.1399,791.5469 315.3545,788.3548 319.5124,784.5083 323.0224,780.5545 326.3491,775.97 329.0193,771.4069 331.3866,766.2609 333.1143,761.2642 334.431,755.755 335.1495,750.5171 335.3649,744.8569 335.0467,739.5795 334.2298,734.356 332.8097,728.8726 330.9884,723.9092 328.5248,718.8087 325.5562,713.9846 322.3569,709.7754 318.5033,705.624"/>
    <polygon points="305.499,706.3805 301.601,704.0697 297.4985,702.1454 292.8676,700.5175 288.4633,699.4516 283.9769,698.8151 279.4499,698.6141 274.9247,698.8503 270.0731,699.5971 265.6863,700.7326 261.4293,702.2857 257.3419,704.2418 253.4621,706.5829 249.8259,709.287 246.2011,712.5969 243.1784,715.973 240.4953,719.6246 238.1767,723.5179 236.1011,727.9662 234.607,732.2442 233.5322,736.6463 232.8867,741.1315 232.6765,745.658 232.9423,750.5595 233.6407,755.0368 234.7674,759.4259 236.3119,763.6859 238.2598,767.7773 240.5931,771.6618 243.5303,775.5948 246.5925,778.9349 249.9624,781.9643 253.6087,784.6547 257.4973,786.9812 261.592,788.922 266.2164,790.5685 270.6163,791.6521 275.1002,792.3066 279.6263,792.5259 284.5283,792.27 289.007,791.5806 293.759,790.3506 298.0097,788.7804 302.0892,786.8078 305.9596,784.4511 309.5848,781.7324 312.9311,778.6769 316.2054,775.0198 318.8738,771.3574 321.3515,767.1199 323.2344,762.9982 324.7113,758.7142 325.7684,754.3078 326.4285,749.4437 326.584,744.915 326.3023,740.3924 325.5859,735.9179 324.4416,731.5334 322.7314,726.9322 320.7342,722.8647 318.3543,719.0086 315.6137,715.3999 312.5381,712.0721 309.156,709.0563"/>
    <polygon points="324.0479,726.9678 322.1028,722.8755 319.572,718.6701 316.8668,715.0352 313.832,711.6707 310.2035,708.3653 306.2574,705.4466 302.3683,703.1217 298.2779,701.1726 293.6615,699.5052 289.2697,698.3906 284.4169,697.6546 279.5144,697.4165 274.9889,697.6408 270.134,698.3624 265.3777,699.5746 260.7696,701.2647 256.6888,703.2337 252.8112,705.5777 248.8794,708.5158 245.5328,711.5703 242.2489,715.2182 239.5616,718.8663 237.0514,723.0842 234.9836,727.5357 233.4862,731.8121 232.3974,736.2103 231.69,741.0674 231.4791,745.5935 231.7316,750.4953 232.4066,754.9757 233.6095,759.7344 235.1446,763.9974 237.2516,768.4305 239.5879,772.3127 242.5183,776.2502 245.5663,779.6028 249.2077,782.8939 252.8505,785.5883 257.0634,788.1068 261.1615,790.0398 265.7844,791.6891 270.1805,792.7865 275.0361,793.5034 279.9395,793.7223 284.4641,793.4803 289.3161,792.7396 293.7068,791.6206 298.3216,789.9486 302.41,787.9955 306.6105,785.4564 310.2401,782.7442 313.8654,779.4353 316.8969,776.0678 319.8079,772.1159 322.1252,768.2223 324.2104,763.7789 325.7245,759.5084 326.8306,755.1145 327.557,750.2602 327.7857,745.735 327.5524,740.8322 326.8212,735.9787 325.7108,731.5859"/>
    <polygon points="333.0767,739.9264 332.2638,734.7036 330.9418,729.5859 329.1235,724.6228 326.8263,719.8623 324.0727,715.3506 320.8891,711.1311 317.3065,707.2448 313.3593,703.7293 309.086,700.6185 304.5277,697.9425 299.7286,695.7273 294.7351,693.9942 289.5954,692.7601 284.3595,692.0368 279.0777,691.8314 273.8014,692.1458 268.5814,692.977 263.4684,694.317 258.5117,696.1528 253.7594,698.4666 249.2573,701.2361 245.339,704.1925 241.4402,707.7614 237.9108,711.6962 234.785,715.9586 232.093,720.5074 229.8609,725.2987 228.1103,730.2861 226.8581,735.4214 226.1164,740.6548 225.8925,745.9358 226.15,750.8374 226.9262,756.0658 228.2122,761.1927 229.9956,766.1685 232.2592,770.945 234.9811,775.476 238.1349,779.7177 241.6902,783.6291 245.6125,787.1723 249.8639,790.313 254.4033,793.021 259.1867,795.2699 264.1679,797.038 269.2987,798.3082 274.5295,799.0683 279.8096,799.3108 285.0881,799.0335 290.3137,798.239 295.436,796.9349 300.4055,795.134 305.174,792.8536 309.6954,790.1159 313.926,786.9472 317.8249,783.3782 321.3543,779.4434 324.4801,775.181 327.172,770.6322 329.4041,765.8409 331.1547,760.8535 332.4069,755.7182 333.1486,750.4848 333.3726,745.2039"/>
    <polygon points="328.7888,749.9482 328.9806,745.0441 328.7244,740.5207 327.9802,735.6695 326.7577,730.9163 325.0692,726.308 322.9313,721.8902 320.3652,717.7066 317.3962,713.7986 314.0538,710.2048 310.6655,707.1971 306.7006,704.3045 302.468,701.82 298.0096,699.7682 293.7318,698.2758 289.3351,697.1821 284.481,696.4577 279.5789,696.219 274.6773,696.4683 269.8248,697.2033 265.0692,698.4167 260.4577,700.0964 256.0358,702.2258 252.1603,704.5725 248.224,707.5039 244.5984,710.8118 241.3193,714.4635 238.4191,718.4228 235.9265,722.6507 234.0088,726.7554 232.3656,731.3801 231.19,736.1451 230.4934,741.0033 230.2828,745.9067 230.5603,750.8068 231.3231,755.655 232.5638,760.4035 234.2699,765.0053 236.2434,769.0835 238.7935,773.2769 241.5066,776.9054 244.8076,780.5374 248.453,783.8235 252.4068,786.7313 256.6298,789.2319 260.7309,791.1575 265.3524,792.8095 270.1152,793.9943 274.972,794.7001 279.875,794.9201 284.7756,794.652 289.6253,793.8984 294.3762,792.6669 298.6332,791.1163 303.0632,789.0038 307.2615,786.4617 311.1865,783.5153 314.7994,780.1935 317.8265,776.8225 320.7418,772.8743 323.2506,768.656 325.3279,764.2095 326.9534,759.5785 328.1108,754.8091"/>
    <polygon points="328.416,760.2602 329.6038,755.4948 330.3273,750.6371 330.5797,745.7323 330.322,740.4498 329.5181,735.2226 328.29,730.4673 326.6098,725.8524 324.493,721.4208 321.9593,717.2135 319.0323,713.2697 315.7392,709.6261 311.8184,706.0767 307.8662,703.1611 303.3177,700.4627 298.8644,698.3917 294.2324,696.7592 289.4648,695.5802 284.6058,694.8657 279.3226,694.6234 274.4186,694.8899 269.563,695.6274 264.4398,696.9404 259.8281,698.6292 255.4003,700.7542 251.1978,703.2957 247.2595,706.23 243.622,709.5299 240.0798,713.4572 237.1716,717.4148 234.6579,721.6341 232.5622,726.0757 230.9039,730.6986 229.6984,735.4596 228.9569,740.3145 228.6851,745.5963 228.9244,750.5017 229.6349,755.3613 230.9194,760.4917 232.5825,765.1128 234.6828,769.5523 237.2009,773.7689 240.3528,778.0158 243.6595,781.6471 247.3004,784.9432 251.2417,787.8735 255.4469,790.4106 260.2258,792.6762 264.8517,794.326 269.6149,795.5226 274.4713,796.2551 279.7535,796.5171 284.6585,796.2687 289.5168,795.5492 294.2832,794.3652 299.2628,792.5835 303.6983,790.475 307.9103,787.9491 311.8595,785.0294 315.5092,781.743 319.0659,777.8289 322.1976,773.5671 324.6956,769.3386 326.7749,764.8892"/>
    <polygon points="326.8698,776.6322 329.7418,771.748 332.1104,766.6008 333.846,761.6051 335.1788,756.098 335.9196,750.8616 336.1678,745.5788 335.8847,739.9198 335.0367,734.3176 333.6321,728.8284 331.8315,723.8558 329.3959,718.7399 326.6711,714.2073 323.2956,709.6564 319.4815,705.4663 315.2672,701.679 310.695,698.3326 306.1451,695.6367 301.0138,693.2337 296.0298,691.4647 290.5318,690.0951 284.9243,689.2828 279.6415,689.0346 273.9825,689.3176 268.3803,690.1657 262.8911,691.5702 257.9185,693.3708 252.8026,695.8065 247.9563,698.742 243.4281,702.1478 239.2636,705.9898 235.7417,709.9351 232.3953,714.5074 229.5233,719.3916 227.2964,724.1885 225.4191,729.5345 224.0863,735.0416 223.3455,740.2781 223.0985,745.9387 223.3803,751.2198 224.2284,756.822 225.6329,762.3112 227.4336,767.2839 229.8692,772.3997 232.8047,777.2461 236.2105,781.7742 240.0525,785.9388 243.9979,789.4606 248.2551,792.5984 253.12,795.5029 257.9019,797.7619 263.2352,799.6749 268.7333,801.0445 274.3408,801.8568 279.6235,802.105 285.2825,801.822 290.8848,800.974 296.374,799.5694 301.695,797.6225 306.4624,795.3331 311.3088,792.3977 315.837,788.9918 320.0015,785.1498 323.5233,781.2045"/>
    <polygon points="256.8876,788.4653 260.9835,790.398 265.6028,792.0512 270.3652,793.2298 275.2223,793.9217 280.1245,794.1199 284.6462,793.8629 289.1243,793.1856 293.8812,791.9846 298.4925,790.3097 302.9113,788.1779 307.0925,785.6111 310.704,782.8782 314.3105,779.5521 317.3261,776.173 320.2221,772.2127 322.528,768.3147 324.6044,763.8696 326.1139,759.5996 327.2925,754.8371 327.9844,749.98 328.1826,745.0779 327.9256,740.5561 327.2483,736.078 326.0473,731.3212 324.3724,726.7098 322.2407,722.291 319.8862,718.4221 316.941,714.4983 313.6148,710.8918 310.2357,707.8763 306.5903,705.1887 302.3774,702.6743 297.9324,700.5979 293.6623,699.0884 288.8998,697.9098 284.0427,697.2179 279.1406,697.0197 274.6189,697.2768 270.1408,697.954 265.3839,699.155 261.121,700.6846 256.6858,702.7819 252.4848,705.3162 248.5611,708.2614 244.9546,711.5875 241.939,714.9667 239.043,718.9269 236.737,722.8249 234.8043,726.9208 233.1511,731.54 231.9726,736.3025 231.2806,741.1596 231.0824,746.0617 231.3395,750.5835 232.0168,755.0616 233.2177,759.8184 234.8927,764.4298 236.8447,768.5166 239.169,772.4037 242.0836,776.3502 245.3816,779.9825 249.0294,783.2633 252.9896,786.1593"/>
    <polygon points="248.3945,793.1692 252.9442,795.8615 258.0731,798.2643 263.4155,800.1457 268.9183,801.4869 274.5271,802.2748 280.1865,802.5015 285.8404,802.1647 291.4328,801.2679 296.9085,799.8198 302.2132,797.8348 306.9637,795.5151 311.7909,792.5524 316.0101,789.367 320.1817,785.5359 323.952,781.3092 327.2837,776.7289 329.9684,772.1747 332.3628,767.0418 334.2352,761.6963 335.5674,756.1913 336.3459,750.5812 336.5632,744.9214 336.2171,739.2681 335.3109,733.6771 333.8538,728.2039 331.86,722.9025 329.5324,718.1559 326.7745,713.6456 323.3693,709.1197 319.5313,704.9544 315.2984,701.1911 311.0283,698.0743 306.1539,695.1899 301.017,692.804 295.6685,690.9404 290.1612,689.6174 284.5498,688.8482 278.8897,688.6403 273.6125,688.9546 268.3871,689.7571 262.8973,691.1506 257.5731,693.0826 252.4672,695.5341 247.6302,698.4808 243.1099,701.8935 238.951,705.7385 235.4319,709.6836 232.085,714.2528 229.3852,718.7981 226.9738,723.923 225.0836,729.2622 223.7332,734.7628 222.9361,740.3703 222.7,746.0293 223.0274,751.6838 223.8385,756.9078 225.2411,762.3953 227.182,767.7162 229.642,772.818 232.5967,777.6502 236.0169,782.1648 239.5993,786.0526 243.8197,789.8299"/>
    <polygon points="247.4152,785.5512 251.3807,788.4452 255.6044,790.9473 260.3975,793.1774 265.0319,794.7967 269.7998,795.9661 274.6576,796.6748 279.5609,796.9163 284.8407,796.6515 290.0654,795.8453 294.819,794.6191 299.4338,792.9446 304.2,790.6576 308.3936,788.1053 312.6147,784.9226 316.2221,781.5929 319.4951,777.934 322.4037,773.9792 324.9213,769.7647 327.0249,765.329 328.8054,760.3514 330.0646,755.217 330.7554,750.3567 330.9789,745.4526 330.733,740.5495 329.946,735.3219 328.7374,730.5638 327.0799,725.9429 324.9887,721.5014 322.2735,716.9654 319.3469,713.0239 315.79,709.113 312.1431,705.8266 307.8844,702.6944 303.6607,700.1923 298.8676,697.9623 294.2331,696.3429 289.4652,695.1735 284.6074,694.4649 279.7042,694.2233 274.4243,694.4881 269.5698,695.219 264.446,696.5205 259.8312,698.195 255.0651,700.4821 250.8715,703.0343 246.6504,706.217 243.0429,709.5467 239.77,713.2056 236.8614,717.1604 234.3438,721.3749 232.2401,725.8106 230.4597,730.7882 229.2728,735.5518 228.5096,740.7829 228.2884,746.0648 228.5703,750.9659 229.319,755.8177 230.6394,760.9366 232.4791,765.8927 234.6355,770.303 237.2031,774.4871 240.1587,778.407 243.7442,782.2917"/>
    <polygon points="240.6645,784.2965 244.8578,788.1019 249.1057,791.2467 253.9695,794.1463 258.7561,796.3875 263.736,798.1584 268.8629,799.4426 274.4654,800.265 279.7451,800.5084 285.0238,800.2433 290.2526,799.4723 295.7445,798.0928 300.7171,796.3015 305.827,793.8617 310.6587,790.9089 314.8719,787.7177 318.759,784.1364 322.2839,780.1982 325.6217,775.624 328.2969,771.0657 330.5217,766.2714 332.2755,761.2855 333.542,756.1542 334.3451,750.5489 334.5704,745.2684 334.2872,739.9906 333.4982,734.7645 332.2106,729.6384 330.2914,724.311 328.0142,719.5414 325.2892,715.0128 322.1416,710.7669 318.6005,706.8431 314.4073,703.0377 309.8446,699.6842 305.2955,696.9934 300.1591,694.6098 295.1672,692.8732 289.6605,691.5541 284.4235,690.8404 279.1423,690.6333 273.8655,690.9346 268.6422,691.7416 263.1598,693.1588 258.1997,694.9843 253.438,697.2779 248.9187,700.0185 244.6837,703.1806 240.7721,706.7351 236.9812,710.9414 233.851,715.2002 230.9682,720.0739 228.7434,724.8682 226.9896,729.8541 225.7231,734.9854 224.9199,740.5907 224.6947,745.8712 224.9779,751.149 225.7669,756.3751 227.0545,761.5012 228.9736,766.8286 231.2509,771.5982 233.9759,776.1269 237.1235,780.3727"/>
    <polygon points="230.8575,755.3708 232.0599,760.1269 233.7249,764.7416 235.8363,769.1697 238.3736,773.3684 241.3121,777.2968 244.6232,780.9167 248.2747,784.1929 251.9168,786.8844 256.1206,789.4133 260.553,791.5158 265.1709,793.1715 269.9295,794.3644 274.7824,795.0828 279.6825,795.3198 284.582,795.073 289.4335,794.3448 294.1897,793.1424 298.8043,791.4774 303.2325,789.366 307.4312,786.8287 311.3596,783.8903 314.9795,780.5792 318.2557,776.9277 321.1563,772.9713 323.6531,768.7484 325.722,764.3002 327.2343,760.0314 328.4271,755.2729 329.1455,750.42 329.3825,745.5199 329.1357,740.6203 328.4076,735.7688 327.2051,731.0127 325.5401,726.3981 323.4287,721.9699 320.8914,717.7712 317.953,713.8428 314.6419,710.2229 310.9904,706.9467 307.034,704.0461 303.1445,701.7263 298.7121,699.6238 294.0942,697.9681 289.3356,696.7752 284.4827,696.0568 279.5826,695.8198 274.683,696.0666 269.8316,696.7948 265.0754,697.9972 260.4608,699.6622 256.0326,701.7736 251.8339,704.3109 247.9055,707.2494 244.2856,710.5604 241.0094,714.2119 238.1088,718.1683 235.6119,722.3912 233.5431,726.8394 231.9224,731.4698 230.7657,736.2373 230.0841,741.0955 229.8826,745.6197 230.1294,750.5193"/>
    <line x1="235.5801" x2="236.4157" y1="753.8387" y2="749.8662"/>
    <line x1="236.7847" x2="235.9491" y1="749.9438" y2="753.9163"/>
    <line x1="236.4573" x2="237.1536" y1="753.3319" y2="750.0214"/>
    <line x1="237.5226" x2="236.9655" y1="750.099" y2="752.7474"/>
    <line x1="237.4737" x2="237.8915" y1="752.1629" y2="750.1766"/>
    <line x1="238.2605" x2="237.9819" y1="750.2542" y2="751.5784"/>
    <line x1="238.4902" x2="238.6294" y1="750.9939" y2="750.3318"/>
    <polygon points="238.9984,750.4094 234.202,749.4006 235.695,754.2086"/>
    <line x1="236.0468" x2="235.3504" y1="749.7886" y2="753.099"/>
    <line x1="235.1207" x2="235.6778" y1="752.3593" y2="749.711"/>
    <line x1="235.3089" x2="234.8911" y1="749.6334" y2="751.6196"/>
    <line x1="234.6614" x2="234.9399" y1="750.8799" y2="749.5558"/>
    <line x1="234.571" x2="234.4317" y1="749.4782" y2="750.1402"/>
    <polygon points="227.7133,735.2082 226.9391,740.4351 226.6897,745.7132 226.9677,750.9899 227.6956,755.8424 228.9783,760.9683 230.7655,765.9409 233.0395,770.7105 235.5672,774.9162 238.7119,779.1625 242.2642,783.0742 246.1888,786.6123 250.4465,789.7415 254.9949,792.4308 259.4392,794.5106 264.4182,796.2797 269.5488,797.5437 274.7798,798.29 280.0591,798.5111 284.9587,798.2443 290.1828,797.451 295.3018,796.141 300.2647,794.3272 304.6901,792.2076 308.9003,789.6874 313.1522,786.5503 317.0702,783.0049 320.6153,779.0866 323.5423,775.1484 326.2721,770.6242 328.5372,765.8503 330.3152,760.8745 331.5884,755.7462 332.3074,750.8923 332.5756,745.6152 332.3164,740.3376 331.6057,735.4825 330.3414,730.352 328.5719,725.3731 326.3149,720.5954 323.593,716.0665 320.4331,711.8314 316.8668,707.9324 313.2224,704.6469 308.9759,701.5024 304.4371,698.7969 299.6512,696.5574 295.0276,694.9145 289.9015,693.6322 284.6732,692.8673 279.3947,692.6273 274.4942,692.8767 269.2673,693.6513 264.1437,694.9431 259.1744,696.7392 254.4088,699.0217 249.8945,701.7678 245.6764,704.9503 242.0616,708.2685 238.5305,712.1993 235.6175,716.1479 232.904,720.6819 230.6559,725.4638 228.8956,730.4459"/>
    <polygon points="231.3014,725.9949 229.6742,730.6284 228.4902,735.3943 227.7226,740.6266 227.4878,745.5318 227.7521,750.8134 228.4754,755.6707 229.7616,760.8002 231.4155,765.4241 233.6744,770.2057 236.4059,774.7338 239.3411,778.6709 242.6337,782.3144 246.5457,785.8729 250.7979,789.0168 255.3467,791.7139 259.7953,793.7939 264.7816,795.5551 269.9207,796.8022 274.7833,797.4886 280.0669,797.7128 284.9701,797.4407 290.1964,796.6333 294.9532,795.4131 299.9228,793.605 304.3516,791.4833 308.5612,788.9543 312.8066,785.8012 316.4441,782.502 319.9955,778.5836 322.9222,774.6402 325.6439,770.1061 327.7481,765.6689 329.5364,760.6922 330.7377,755.9306 331.5242,750.7011 331.7771,745.4189 331.5317,740.5142 330.8259,735.6544 329.5584,730.5202 327.9212,725.8904 325.6797,721.1007 323.1736,716.8774 320.0436,712.6149 316.498,708.6914 312.5732,705.1471 308.6244,702.2276 304.0854,699.514 299.6444,697.4179 294.6645,695.6387 289.5299,694.3729 284.6698,693.6689 279.765,693.4252 274.4829,693.6799 269.2537,694.4683 264.4925,695.6713 259.5165,697.4614 254.7473,699.7462 250.234,702.5024 246.3129,705.4589 242.4217,709.04 239.1502,712.7025 236.0295,716.9717 233.5325,721.2004"/>
    <polygon points="247.2778,706.733 243.6642,710.0535 240.3897,713.7088 237.485,717.6644 234.9776,721.883 232.8911,726.3249 231.1373,731.3101 229.9831,736.0799 229.2968,740.9392 229.085,745.8422 229.3496,750.7426 230.1645,755.9641 231.4056,760.7121 233.1012,765.3174 235.2355,769.7365 237.7882,773.9279 240.7353,777.8519 244.0491,781.4717 247.9919,784.9906 251.9637,787.873 256.1963,790.3567 260.6498,792.4183 265.2822,794.0383 270.0499,795.2015 274.908,795.8968 280.1882,796.115 285.087,795.8229 289.9344,795.0572 294.6847,793.8249 299.2931,792.1379 303.7163,790.0119 307.9124,787.467 311.8419,784.5272 315.7332,780.9515 318.9941,777.284 321.884,773.3176 324.3756,769.0896 326.4455,764.64 328.1807,759.6483 329.3171,754.8741 329.9852,750.0123 330.1787,745.1086 329.8957,740.2092 329.139,735.3604 327.9157,730.6078 326.2373,725.9962 324.1195,721.5691 321.5825,717.3683 318.4089,713.1426 315.0816,709.5352 311.4202,706.2675 307.4592,703.3702 303.2359,700.8707 298.7901,698.7925 294.1638,697.1552 289.4005,695.9743 284.5451,695.2608 279.2657,695.0229 274.3658,695.2967 269.5156,696.0443 264.7607,697.2588 260.146,698.9286 255.715,701.038 251.5094,703.5672"/>
    <polygon points="673.8493,374.1638 564.7174,493.0706 676.9593,377.095"/>
  </g>
</svg>
