<?xml version="1.0" encoding="utf-8" ?>
<svg xmlns="http://www.w3.org/2000/svg" xmlns:cc="http://creativecommons.org/ns" xmlns:dc="http://purl.org/dc/elements/1.1/" xmlns:ev="http://www.w3.org/2001/xml-events" xmlns:inkscape="http://www.inkscape.org/namespaces/inkscape" xmlns:rdf="http://www.w3.org/1999/02/22-rdf-syntax-ns" xmlns:sodipodi="http://sodipodi.sourceforge.net/DTD/sodipodi-0.dtd" xmlns:xlink="http://www.w3.org/1999/xlink" baseProfile="tiny" height="29.7cm" version="1.2" viewBox="0 0 793.7007874015749 1122.5196850393702" width="21.0cm">
  <metadata>
    <rdf:RDF>
      <cc:Work>
        <dc:format>image/svg+xml</dc:format>
        <dc:source>vsk save -s 76 -c C:\Users\marti\Documents\git\putti-plotter-plot\sixfeet\config\1.json C:\Users\marti\Documents\git\putti-plotter-plot\sixfeet\sketch_sixfeet.py</dc:source>
        <dc:date>2023-11-19T17:46:39.205468</dc:date>
      </cc:Work>
    </rdf:RDF>
  </metadata>
  <defs/>
  <g fill="none" id="layer1" inkscape:groupmode="layer" inkscape:label="1" stroke="#0000ff" style="display:inline">
    <polygon points="481.5247,813.2736 480.3101,817.2416 479.5061,821.3127 479.1213,825.4445 479.1595,829.594 479.5611,833.3453 480.4023,837.4089 481.5228,841.0114 483.135,844.8351 485.1285,848.4746 487.4825,851.892 489.9149,854.776 492.8862,857.6728 495.831,860.0312 498.9817,862.1064 502.6528,864.0411 506.502,865.5915 510.1221,866.6538 513.8251,867.3762 517.956,867.7706 522.1056,867.742 525.8578,867.3491 529.5575,866.6101 533.5284,865.4052 537.0149,863.9637 540.6773,862.0125 544.1218,859.6983 547.0338,857.2996 549.711,854.6413 552.3572,851.4448 554.6639,847.9953 556.6071,844.3287 558.1664,840.4831 559.3257,836.4986 560.0729,832.4167 560.3879,828.6571 560.3531,824.8845 559.9114,820.7584 559.0514,816.6988 557.9141,813.1015 556.2842,809.2853 554.4718,805.9764 552.1336,802.5481 549.7147,799.6529 546.7569,796.7423 543.8231,794.3703 540.3576,792.0877 537.0199,790.3288 533.1779,788.7606 529.5628,787.6814 525.4899,786.8869 521.3572,786.5116 517.5845,786.5377 513.4574,786.9699 509.3958,787.8204 505.7959,788.9493 502.3161,790.407 498.6628,792.3751 495.2291,794.7053 492.3282,797.1175 489.4108,800.0685 487.032,802.9969 484.9349,806.133 482.9748,809.7906"/>
    <polygon points="448.6645,792.8647 249.3017,722.1764 219.042,807.5182 418.4048,878.2064"/>
    <line x1="450.5783" x2="342.4056" y1="770.6889" y2="863.2766"/>
    <line x1="342.6517" x2="423.7812" y1="863.5641" y2="794.1233"/>
    <line x1="422.7969" x2="341.6674" y1="792.9733" y2="862.4142"/>
    <line x1="341.4213" x2="395.5077" y1="862.1267" y2="815.8328"/>
    <line x1="396.9841" x2="342.8977" y1="817.5577" y2="863.8516"/>
    <line x1="343.1438" x2="370.187" y1="864.1391" y2="840.9922"/>
    <line x1="368.2184" x2="341.1752" y1="838.6922" y2="861.8392"/>
    <polygon points="340.9292,861.5517 343.3899,864.4266 477.3754,747.2544"/>
    <line x1="341.9135" x2="450.0862" y1="862.7017" y2="770.1139"/>
    <polygon points="462.7851,771.2477 478.6763,758.7554 470.4698,752.552"/>
    <line x1="463.3737" x2="474.725" y1="770.785" y2="755.7686"/>
    <line x1="475.0289" x2="464.5508" y1="755.9983" y2="769.8597"/>
    <line x1="463.639" x2="474.1171" y1="769.1704" y2="755.3091"/>
    <line x1="474.4211" x2="463.0697" y1="755.5388" y2="770.5553"/>
    <line x1="464.2082" x2="473.8132" y1="767.7855" y2="755.0793"/>
    <line x1="473.5092" x2="464.7774" y1="754.8496" y2="766.4007"/>
    <line x1="465.3467" x2="473.2053" y1="765.0158" y2="754.6198"/>
    <line x1="472.9013" x2="465.9159" y1="754.39" y2="763.6309"/>
    <line x1="466.4851" x2="472.5974" y1="762.2461" y2="754.1603"/>
    <line x1="472.2934" x2="467.0544" y1="753.9305" y2="760.8612"/>
    <line x1="467.6236" x2="471.9895" y1="759.4763" y2="753.7008"/>
    <line x1="471.6856" x2="468.1928" y1="753.471" y2="758.0915"/>
    <line x1="468.7621" x2="471.3816" y1="756.7066" y2="753.2412"/>
    <line x1="471.0777" x2="469.3313" y1="753.0115" y2="755.3217"/>
    <line x1="469.9006" x2="470.7737" y1="753.9368" y2="752.7817"/>
    <line x1="475.3329" x2="465.7279" y1="756.2281" y2="768.9343"/>
    <line x1="466.905" x2="475.6368" y1="768.009" y2="756.4579"/>
    <line x1="475.9408" x2="468.0822" y1="756.6876" y2="767.0836"/>
    <line x1="469.2593" x2="476.2447" y1="766.1583" y2="756.9174"/>
    <line x1="476.5487" x2="470.4364" y1="757.1471" y2="765.2329"/>
    <line x1="471.6135" x2="476.8526" y1="764.3076" y2="757.3769"/>
    <line x1="477.1565" x2="472.7906" y1="757.6067" y2="763.3822"/>
    <line x1="473.9678" x2="477.4605" y1="762.4569" y2="757.8364"/>
    <line x1="477.7644" x2="475.1449" y1="758.0662" y2="761.5315"/>
    <line x1="476.322" x2="478.0684" y1="760.6062" y2="758.2959"/>
    <line x1="478.3723" x2="477.4991" y1="758.5257" y2="759.6808"/>
    <line x1="477.3754" x2="342.1595" y1="747.2544" y2="862.9892"/>
    <line x1="308.0758" x2="124.5158" y1="871.8643" y2="730.8387"/>
    <line x1="257.6245" x2="271.0698" y1="682.0819" y2="695.7599"/>
    <line x1="272.43" x2="258.9846" y1="694.4229" y2="680.7449"/>
    <line x1="258.7126" x2="285.6033" y1="681.0123" y2="708.3683"/>
    <line x1="284.7872" x2="257.8965" y1="709.1705" y2="681.8145"/>
    <line x1="258.1685" x2="298.5046" y1="681.5471" y2="722.5811"/>
    <line x1="298.7766" x2="258.4406" y1="722.3137" y2="681.2797"/>
    <line x1="263.3167" x2="236.8396" y1="681.8873" y2="422.588"/>
    <line x1="243.646" x2="347.9721" y1="419.4633" y2="406.9503"/>
    <line x1="348.0185" x2="264.5577" y1="407.3375" y2="417.3479"/>
    <line x1="264.4648" x2="347.9256" y1="416.5735" y2="406.5631"/>
    <line x1="347.8792" x2="285.2836" y1="406.1758" y2="413.6836"/>
    <line x1="285.4693" x2="348.065" y1="415.2325" y2="407.7247"/>
    <line x1="348.1114" x2="306.381" y1="408.112" y2="413.1172"/>
    <line x1="306.1023" x2="347.8327" y1="410.7938" y2="405.7886"/>
    <line x1="347.7863" x2="326.9211" y1="405.4014" y2="407.904"/>
    <line x1="327.2926" x2="348.1579" y1="411.0018" y2="408.4992"/>
    <polygon points="347.7399,405.0142 243.646,419.4633 348.2043,408.8864"/>
    <line x1="380.13" x2="382.2244" y1="451.8398" y2="450.8825"/>
    <line x1="384.4787" x2="380.2898" y1="450.2748" y2="452.1894"/>
    <line x1="380.4496" x2="386.733" y1="452.5391" y2="449.6672"/>
    <line x1="388.9872" x2="380.6094" y1="449.0596" y2="452.8888"/>
    <line x1="380.7693" x2="391.2415" y1="453.2385" y2="448.452"/>
    <line x1="393.4958" x2="380.9291" y1="447.8444" y2="453.5881"/>
    <line x1="381.0889" x2="395.7501" y1="453.9378" y2="447.2367"/>
    <line x1="398.0043" x2="381.2487" y1="446.6291" y2="454.2875"/>
    <line x1="381.4085" x2="400.2586" y1="454.6372" y2="446.0215"/>
    <line x1="400.7381" x2="381.888" y1="447.0705" y2="455.6862"/>
    <line x1="381.7282" x2="402.6727" y1="455.3365" y2="445.7636"/>
    <line x1="402.5129" x2="381.5684" y1="445.4139" y2="454.9868"/>
    <line x1="382.0478" x2="398.8034" y1="456.0359" y2="448.3775"/>
    <line x1="396.8688" x2="382.2077" y1="449.6845" y2="456.3855"/>
    <line x1="382.3675" x2="394.9342" y1="456.7352" y2="450.9914"/>
    <line x1="392.9996" x2="382.5273" y1="452.2984" y2="457.0849"/>
    <line x1="382.6871" x2="391.0649" y1="457.4346" y2="453.6054"/>
    <line x1="389.1303" x2="382.847" y1="454.9123" y2="457.7842"/>
    <line x1="383.0068" x2="387.1957" y1="458.1339" y2="456.2193"/>
    <line x1="385.261" x2="383.1666" y1="457.5263" y2="458.4836"/>
    <polygon points="383.3264,458.8333 403.64,445.1101 379.9701,451.4901"/>
    <polygon points="411.7659,498.3477 406.9079,496.269 401.8715,494.6703 396.704,493.5669 391.0771,492.9459 385.7933,492.8958 380.5295,493.3577 375.3352,494.327 370.2591,495.7948 365.349,497.7472 360.651,500.1659 356.2094,503.0281 352.0657,506.307 348.001,510.2473 344.3669,514.588 341.3983,518.9593 338.8669,523.5975 336.7966,528.459 335.2067,533.4982 334.1122,538.6676 333.5235,543.9187 333.46,549.5795 333.931,554.8425 334.9093,560.0351 336.3859,565.1087 338.3468,570.0154 340.7736,574.7091 343.6435,579.1458 346.9296,583.2838 350.8769,587.3417 354.9226,590.7407 359.6003,593.9293 364.2429,596.4526 369.108,598.5146 374.1499,600.0957 379.3212,601.1812 384.5734,601.7609 389.8569,601.8293 395.1223,601.3857 400.6873,600.3471 405.7583,598.8618 410.6616,596.8924 415.3511,594.4575 420.0884,591.3581 424.1978,588.0363 427.9662,584.3322 431.3582,580.2807 434.5387,575.5974 437.054,570.9505 439.1075,566.0818 440.6799,561.0372 441.8141,555.4909 442.3482,550.2339 442.3708,544.9499 441.8817,539.6886 440.8854,534.4994 439.3912,529.431 437.4133,524.5311 434.9703,519.8458 432.085,515.4191 428.7847,511.2925 425.1002,507.5049 420.7658,503.8633 416.3997,500.8872"/>
    <line x1="427.9309" x2="513.0134" y1="558.4307" y2="560.237"/>
    <line x1="513.0054" x2="427.9229" y1="560.6141" y2="558.8078"/>
    <line x1="456.2758" x2="512.9974" y1="559.787" y2="560.9912"/>
    <line x1="512.9894" x2="484.6286" y1="561.3683" y2="560.7662"/>
    <line x1="484.6686" x2="513.0294" y1="558.8807" y2="559.4828"/>
    <polygon points="513.0375,559.1057 413.7465,558.3183 512.9814,561.7454"/>
    <line x1="513.0214" x2="456.2998" y1="559.8599" y2="558.6557"/>
    <line x1="430.7134" x2="451.0652" y1="593.7571" y2="609.7352"/>
    <line x1="450.7975" x2="430.4458" y1="610.0761" y2="594.098"/>
    <polygon points="450.5299,610.417 451.3328,609.3943 420.4037,585.9384"/>
    <polygon points="392.201,601.2078 386.5097,600.7743 387.6653,604.6727"/>
    <line x1="391.7886" x2="387.14" y1="601.5228" y2="602.9007"/>
    <line x1="387.035" x2="391.6836" y1="602.5463" y2="601.1684"/>
    <line x1="390.6488" x2="386.9299" y1="601.0895" y2="602.1919"/>
    <line x1="386.8249" x2="389.6141" y1="601.8375" y2="601.0107"/>
    <line x1="388.5793" x2="386.7198" y1="600.9319" y2="601.4831"/>
    <line x1="386.6148" x2="387.5445" y1="601.1287" y2="600.8531"/>
    <line x1="387.2451" x2="390.964" y1="603.2551" y2="602.1527"/>
    <line x1="390.1393" x2="387.3501" y1="602.7827" y2="603.6095"/>
    <line x1="387.4552" x2="389.3146" y1="603.9639" y2="603.4127"/>
    <line x1="388.4899" x2="387.5602" y1="604.0427" y2="604.3183"/>
    <line x1="355.469" x2="215.3016" y1="601.5215" y2="601.4557"/>
    <line x1="215.3017" x2="320.4273" y1="601.0597" y2="601.1091"/>
    <line x1="320.427" x2="215.3014" y1="601.901" y2="601.8516"/>
    <line x1="215.3012" x2="285.3849" y1="602.2476" y2="602.2805"/>
    <line x1="285.3857" x2="215.3019" y1="600.6967" y2="600.6638"/>
    <line x1="215.3021" x2="250.344" y1="600.2678" y2="600.2843"/>
    <line x1="250.3429" x2="215.301" y1="602.66" y2="602.6435"/>
    <polygon points="215.3008,603.0394 355.469,601.5215 215.3023,599.8719"/>
    <line x1="314.626" x2="332.6442" y1="603.6769" y2="597.6614"/>
    <line x1="332.7641" x2="314.7459" y1="598.0206" y2="604.036"/>
    <line x1="316.3673" x2="332.884" y1="603.8939" y2="598.3797"/>
    <line x1="333.0039" x2="317.9887" y1="598.7389" y2="603.7518"/>
    <line x1="319.6102" x2="333.1238" y1="603.6097" y2="599.0981"/>
    <line x1="333.2437" x2="321.2316" y1="599.4572" y2="603.4675"/>
    <line x1="322.853" x2="333.3637" y1="603.3254" y2="599.8164"/>
    <line x1="333.4836" x2="324.4744" y1="600.1755" y2="603.1833"/>
    <line x1="326.0959" x2="333.6035" y1="603.0411" y2="600.5347"/>
    <line x1="333.7234" x2="327.7173" y1="600.8939" y2="602.899"/>
    <line x1="329.3387" x2="333.8433" y1="602.7569" y2="601.253"/>
    <line x1="333.9632" x2="330.9601" y1="601.6122" y2="602.6147"/>
    <line x1="332.5816" x2="334.0831" y1="602.4726" y2="601.9713"/>
    <line x1="332.5243" x2="316.0076" y1="597.3023" y2="602.8164"/>
    <line x1="317.3892" x2="332.4044" y1="601.956" y2="596.9431"/>
    <line x1="332.2845" x2="318.7708" y1="596.584" y2="601.0956"/>
    <line x1="320.1524" x2="332.1646" y1="600.2351" y2="596.2248"/>
    <line x1="332.0447" x2="321.534" y1="595.8656" y2="599.3747"/>
    <line x1="322.9157" x2="331.9248" y1="598.5142" y2="595.5065"/>
    <line x1="331.8049" x2="324.2973" y1="595.1473" y2="597.6538"/>
    <line x1="325.6789" x2="331.685" y1="596.7933" y2="594.7882"/>
    <line x1="331.5651" x2="327.0605" y1="594.429" y2="595.9329"/>
    <line x1="328.4421" x2="331.4452" y1="595.0724" y2="594.0699"/>
    <line x1="331.3252" x2="329.8237" y1="593.7107" y2="594.212"/>
    <polygon points="331.2053,593.3515 313.9352,604.1071 334.203,602.3305"/>
    <line x1="340.6927" x2="639.3212" y1="629.9143" y2="668.108"/>
    <line x1="566.4544" x2="555.2452" y1="650.9091" y2="697.1627"/>
    <line x1="554.8822" x2="571.696" y1="697.0747" y2="627.6944"/>
    <line x1="570.6072" x2="553.7934" y1="627.4306" y2="696.8108"/>
    <line x1="553.4305" x2="564.6397" y1="696.7229" y2="650.4694"/>
    <line x1="558.6721" x2="553.0675" y1="673.5082" y2="696.6349"/>
    <polygon points="552.7046,696.547 555.971,697.3386 579.5585,592.8724"/>
    <line x1="554.1563" x2="576.5748" y1="696.8988" y2="604.3918"/>
    <line x1="576.9377" x2="554.5193" y1="604.4797" y2="696.9867"/>
    <line x1="555.6081" x2="561.2127" y1="697.2506" y2="674.1239"/>
    <polygon points="523.9676,697.5964 527.9751,691.6452 531.5615,684.9992 534.4646,678.0274 536.655,670.8 538.1108,663.3896 538.7999,656.2481 538.8066,649.0734 538.0762,641.5568 536.6885,634.5175 534.5114,627.2861 531.7823,620.6507 528.2415,613.9802 524.0507,607.6977 519.2519,601.8664 513.8933,596.5448 508.0289,591.7865 501.7175,587.6393 495.3654,584.3035 488.7249,581.587 481.4893,579.4238 474.4474,578.0496 466.9294,577.3336 459.3775,577.374 452.2409,578.1126 445.2069,579.5267 437.9838,581.731 431.3587,584.4851 424.7015,588.0509 418.7379,592.0399 412.9006,596.8314 407.8258,601.9031 403.0308,607.7376 399.0383,613.6989 395.4685,620.3539 392.7105,626.9774 390.502,634.1992 389.0276,641.6059 388.3022,649.123 388.3136,656.2977 389.0628,663.8125 390.4681,670.8482 392.6633,678.0742 395.4091,684.7027 398.9666,691.3643 403.1732,697.6363 407.7322,703.1763 413.0774,708.5112 418.6261,713.0597 424.9061,717.2543 431.2329,720.6378 438.2083,723.5321 445.072,725.6217 452.1033,727.0488 459.6157,727.8213 466.7903,727.8549 474.3097,727.1529 481.7209,725.7015 488.5936,723.6418 495.5815,720.7779 502.2476,717.2288 508.5249,713.03 514.0706,708.4779 519.158,703.4189"/>
    <line x1="501.2358" x2="520.0461" y1="732.1595" y2="741.3621"/>
    <line x1="517.359" x2="498.5487" y1="746.8545" y2="737.6519"/>
    <line x1="498.7167" x2="536.3373" y1="737.3086" y2="755.7139"/>
    <line x1="538.6885" x2="501.0679" y1="750.908" y2="732.5028"/>
    <line x1="500.8999" x2="557.3308" y1="732.846" y2="760.4539"/>
    <line x1="555.3155" x2="498.8846" y1="764.5732" y2="736.9654"/>
    <line x1="499.0526" x2="574.2938" y1="736.6221" y2="773.4326"/>
    <line x1="575.9732" x2="500.732" y1="769.9998" y2="733.1893"/>
    <line x1="500.5641" x2="594.6156" y1="733.5326" y2="779.5457"/>
    <line x1="593.272" x2="499.2205" y1="782.2919" y2="736.2788"/>
    <line x1="499.3885" x2="612.2503" y1="735.9355" y2="791.1513"/>
    <line x1="613.2579" x2="500.3961" y1="789.0916" y2="733.8759"/>
    <line x1="500.2282" x2="631.9003" y1="734.2192" y2="798.6375"/>
    <line x1="631.2285" x2="499.5564" y1="800.0106" y2="735.5923"/>
    <line x1="499.7243" x2="650.2067" y1="735.249" y2="808.87"/>
    <line x1="650.5426" x2="500.0602" y1="808.1834" y2="734.5624"/>
    <line x1="499.8923" x2="669.185" y1="734.9057" y2="817.7293"/>
    <line x1="623.0111" x2="484.1355" y1="863.1638" y2="741.9114"/>
    <polygon points="498.3808,737.9952 669.185,817.7293 501.4038,731.8162"/>
    <polygon points="553.173,764.8922 603.8807,785.0253 637.3665,700.6869 586.6588,680.5539"/>
    <polygon points="566.633,777.3185 567.6454,783.374 571.4779,781.0897"/>
    <line x1="566.633" x2="569.5616" y1="777.3185" y2="782.2319"/>
    <line x1="569.2423" x2="566.8018" y1="782.4222" y2="778.3277"/>
    <line x1="567.4405" x2="569.881" y1="777.947" y2="782.0415"/>
    <line x1="570.2004" x2="568.248" y1="781.8511" y2="778.5755"/>
    <line x1="569.0555" x2="570.5198" y1="779.2041" y2="781.6608"/>
    <line x1="570.8392" x2="569.863" y1="781.4704" y2="779.8326"/>
    <line x1="570.6704" x2="571.1585" y1="780.4611" y2="781.28"/>
    <line x1="568.9229" x2="566.9705" y1="782.6126" y2="779.337"/>
    <line x1="567.1392" x2="568.6035" y1="780.3463" y2="782.803"/>
    <line x1="568.2841" x2="567.3079" y1="782.9933" y2="781.3555"/>
    <line x1="567.4766" x2="567.9647" y1="782.3648" y2="783.1837"/>
    <line x1="429.4836" x2="409.1399" y1="672.9713" y2="679.1577"/>
    <line x1="408.0114" x2="428.3552" y1="675.4468" y2="669.2604"/>
    <line x1="428.468" x2="387.7806" y1="669.6315" y2="682.0042"/>
    <line x1="388.6833" x2="429.3708" y1="684.973" y2="672.6002"/>
    <line x1="429.2579" x2="368.2268" y1="672.2291" y2="690.7883"/>
    <line x1="367.5497" x2="428.5809" y1="688.5617" y2="670.0026"/>
    <line x1="428.6937" x2="347.3188" y1="670.3737" y2="695.1192"/>
    <line x1="347.7702" x2="429.1451" y1="696.6036" y2="671.858"/>
    <line x1="429.0322" x2="327.3136" y1="671.487" y2="702.4189"/>
    <line x1="327.0879" x2="428.8066" y1="701.6767" y2="670.7448"/>
    <line x1="428.9194" x2="306.857" y1="671.1159" y2="708.2341"/>
    <polygon points="306.857,708.2341 429.5965,673.3424 428.2423,668.8893"/>
    <polygon points="305.3633,729.2865 259.2566,680.4775 257.3524,682.3493"/>
    <polygon points="358.0639,734.7325 357.4055,736.0802 357.3223,737.5778 357.8273,738.9902 358.8413,740.0955 359.8424,740.6159 361.3296,740.8108 362.7758,740.4127 363.9538,739.4841 364.6785,738.1709 364.8363,736.6792 364.4023,735.2434 363.4446,734.089 362.1137,733.3972 360.6186,733.2767 359.1941,733.7463"/>
    <line x1="305.2243" x2="514.0911" y1="842.1654" y2="596.1932"/>
    <polygon points="576.9727,465.5118 556.8112,514.7055 574.0679,521.7779 594.2294,472.5842"/>
    <line x1="492.2598" x2="287.8974" y1="425.5192" y2="244.3132"/>
    <polygon points="301.9702,344.7074 283.1917,348.9703 287.3786,357.2729"/>
    <line x1="301.219" x2="285.2014" y1="344.8779" y2="352.9556"/>
    <line x1="285.0339" x2="299.7167" y1="352.6235" y2="345.2189"/>
    <line x1="300.2192" x2="285.5364" y1="346.2152" y2="353.6198"/>
    <line x1="285.7039" x2="299.0519" y1="353.9519" y2="347.2205"/>
    <line x1="297.8845" x2="285.8713" y1="348.2257" y2="354.284"/>
    <line x1="286.0388" x2="296.7172" y1="354.6161" y2="349.231"/>
    <line x1="295.5499" x2="286.2063" y1="350.2362" y2="354.9482"/>
    <line x1="286.3738" x2="294.3826" y1="355.2803" y2="351.2415"/>
    <line x1="293.2152" x2="286.5412" y1="352.2467" y2="355.6124"/>
    <line x1="286.7087" x2="292.0479" y1="355.9445" y2="353.2519"/>
    <line x1="290.8806" x2="286.8762" y1="354.2572" y2="356.2766"/>
    <line x1="287.0437" x2="289.7133" y1="356.6087" y2="355.2624"/>
    <line x1="288.546" x2="287.2112" y1="356.2677" y2="356.9408"/>
    <line x1="285.3689" x2="301.3865" y1="353.2877" y2="345.21"/>
    <line x1="298.2145" x2="284.8665" y1="345.56" y2="352.2914"/>
    <line x1="284.699" x2="296.7122" y1="351.9593" y2="345.901"/>
    <line x1="295.2099" x2="284.5315" y1="346.242" y2="351.6272"/>
    <line x1="284.364" x2="293.7076" y1="351.2951" y2="346.5831"/>
    <line x1="292.2053" x2="284.1965" y1="346.9241" y2="350.963"/>
    <line x1="284.0291" x2="290.7031" y1="350.6309" y2="347.2652"/>
    <line x1="289.2008" x2="283.8616" y1="347.6062" y2="350.2988"/>
    <line x1="283.6941" x2="287.6985" y1="349.9667" y2="347.9472"/>
    <line x1="286.1962" x2="283.5266" y1="348.2883" y2="349.6345"/>
    <line x1="283.3591" x2="284.6939" y1="349.3024" y2="348.6293"/>
    <polygon points="269.4603,372.1178 250.1889,391.0196 258.4405,396.7599"/>
    <line x1="269.0522" x2="254.4675" y1="373.0305" y2="393.9961"/>
    <line x1="254.7731" x2="268.2359" y1="394.2087" y2="374.8558"/>
    <line x1="267.3191" x2="253.8563" y1="374.218" y2="393.5709"/>
    <line x1="254.1619" x2="268.7466" y1="393.7835" y2="372.8179"/>
    <line x1="265.8915" x2="253.5507" y1="375.6181" y2="393.3583"/>
    <line x1="253.2451" x2="264.464" y1="393.1457" y2="377.0183"/>
    <line x1="263.0365" x2="252.9394" y1="378.4184" y2="392.9331"/>
    <line x1="252.6338" x2="261.609" y1="392.7205" y2="379.8186"/>
    <line x1="260.1815" x2="252.3282" y1="381.2187" y2="392.5079"/>
    <line x1="252.0226" x2="258.754" y1="392.2953" y2="382.6188"/>
    <line x1="257.3265" x2="251.717" y1="384.019" y2="392.0827"/>
    <line x1="251.4113" x2="255.8989" y1="391.8701" y2="385.4191"/>
    <line x1="254.4714" x2="251.1057" y1="386.8192" y2="391.6575"/>
    <line x1="250.8001" x2="253.0439" y1="391.4449" y2="388.2194"/>
    <line x1="251.6164" x2="250.4945" y1="389.6195" y2="391.2323"/>
    <line x1="255.0788" x2="267.4196" y1="394.4213" y2="376.6812"/>
    <line x1="266.6033" x2="255.3844" y1="378.5065" y2="394.6339"/>
    <line x1="255.69" x2="265.7871" y1="394.8465" y2="380.3318"/>
    <line x1="264.9708" x2="255.9956" y1="382.1572" y2="395.0591"/>
    <line x1="256.3012" x2="264.1545" y1="395.2717" y2="383.9825"/>
    <line x1="263.3382" x2="256.6068" y1="385.8079" y2="395.4843"/>
    <line x1="256.9125" x2="262.5219" y1="395.6969" y2="387.6332"/>
    <line x1="261.7057" x2="257.2181" y1="389.4585" y2="395.9095"/>
    <line x1="257.5237" x2="260.8894" y1="396.1221" y2="391.2839"/>
    <line x1="260.0731" x2="257.8293" y1="393.1092" y2="396.3347"/>
    <line x1="258.1349" x2="259.2568" y1="396.5473" y2="394.9346"/>
    <polygon points="316.7515,532.8751 314.9419,532.4077 313.4561,532.6089 311.8359,533.5407 310.7522,535.0634 310.4086,536.5228 310.5778,538.0126 311.4744,539.6525 312.6374,540.5989 314.4252,541.1436 316.2773,540.8929 317.5771,540.1454 318.7253,538.6707 319.1536,536.8515 318.7839,535.0194 317.9541,533.7706"/>
    <line x1="468.7547" x2="457.6117" y1="368.0639" y2="352.08"/>
    <line x1="459.3962" x2="470.5392" y1="350.836" y2="366.8199"/>
    <polygon points="470.8366,366.6126 425.075,303.5062 468.4573,368.2713"/>
    <line x1="470.2417" x2="447.9558" y1="367.0272" y2="335.0594"/>
    <line x1="446.7661" x2="469.0521" y1="335.8887" y2="367.8566"/>
    <line x1="469.3495" x2="435.9205" y1="367.6493" y2="319.6975"/>
    <line x1="436.5154" x2="469.9443" y1="319.2828" y2="367.2346"/>
    <line x1="469.6469" x2="425.075" y1="367.4419" y2="303.5062"/>
    <polygon points="430.832,277.4205 411.4538,366.8097 645.0789,417.4558 664.457,328.0666"/>
    <polygon points="486.9299,319.1697 476.3141,373.5725 577.0771,393.2347 587.6929,338.8319"/>
    <line x1="657.273" x2="657.6322" y1="352.6574" y2="352.0348"/>
    <line x1="657.9638" x2="657.2455" y1="352.2261" y2="353.4713"/>
    <line x1="657.218" x2="658.2955" y1="354.2852" y2="352.4175"/>
    <line x1="658.6271" x2="657.1905" y1="352.6088" y2="355.0991"/>
    <line x1="657.163" x2="658.9588" y1="355.913" y2="352.8001"/>
    <line x1="659.2904" x2="657.1355" y1="352.9915" y2="356.7269"/>
    <line x1="657.108" x2="659.6221" y1="357.5408" y2="353.1828"/>
    <line x1="659.9537" x2="657.0804" y1="353.3741" y2="358.3547"/>
    <line x1="657.0529" x2="660.2854" y1="359.1686" y2="353.5655"/>
    <line x1="660.617" x2="657.0254" y1="353.7568" y2="359.9825"/>
    <line x1="656.9979" x2="660.9487" y1="360.7964" y2="353.9481"/>
    <line x1="661.2803" x2="656.9704" y1="354.1394" y2="361.6103"/>
    <line x1="657.6337" x2="661.9436" y1="361.9929" y2="354.5221"/>
    <line x1="662.2753" x2="658.3245" y1="354.7134" y2="361.5617"/>
    <line x1="659.0153" x2="662.6069" y1="361.1304" y2="354.9048"/>
    <line x1="662.9386" x2="659.7062" y1="355.0961" y2="360.6992"/>
    <line x1="660.397" x2="663.2703" y1="360.268" y2="355.2874"/>
    <line x1="663.6019" x2="661.0878" y1="355.4788" y2="359.8367"/>
    <line x1="661.7786" x2="663.9336" y1="359.4055" y2="355.6701"/>
    <line x1="664.2652" x2="662.4694" y1="355.8614" y2="358.9743"/>
    <line x1="663.1602" x2="664.5969" y1="358.543" y2="356.0528"/>
    <line x1="664.9285" x2="663.851" y1="356.2441" y2="358.1118"/>
    <line x1="664.5418" x2="665.2602" y1="357.6805" y2="356.4354"/>
    <line x1="665.5918" x2="665.2327" y1="356.6267" y2="357.2493"/>
    <polygon points="665.9235,356.8181 657.3005,351.8435 656.9429,362.4242"/>
    <line x1="661.612" x2="656.9429" y1="354.3308" y2="362.4242"/>
  </g>
</svg>
