<?xml version="1.0" encoding="utf-8" ?>
<svg xmlns="http://www.w3.org/2000/svg" xmlns:cc="http://creativecommons.org/ns" xmlns:dc="http://purl.org/dc/elements/1.1/" xmlns:ev="http://www.w3.org/2001/xml-events" xmlns:inkscape="http://www.inkscape.org/namespaces/inkscape" xmlns:rdf="http://www.w3.org/1999/02/22-rdf-syntax-ns" xmlns:sodipodi="http://sodipodi.sourceforge.net/DTD/sodipodi-0.dtd" xmlns:xlink="http://www.w3.org/1999/xlink" baseProfile="tiny" height="29.7cm" version="1.2" viewBox="0 0 793.7007874015749 1122.5196850393702" width="21.0cm">
  <metadata>
    <rdf:RDF>
      <cc:Work>
        <dc:format>image/svg+xml</dc:format>
        <dc:source>vsk save -s 84 -c C:\Users\marti\Documents\git\putti-plotter-plot\sixfeet\config\1.json C:\Users\marti\Documents\git\putti-plotter-plot\sixfeet\sketch_sixfeet.py</dc:source>
        <dc:date>2023-11-19T17:46:42.789082</dc:date>
      </cc:Work>
    </rdf:RDF>
  </metadata>
  <defs/>
  <g fill="none" id="layer1" inkscape:groupmode="layer" inkscape:label="1" stroke="#0000ff" style="display:inline">
    <polygon points="147.8138,663.4887 141.5078,666.0322 135.8126,669.0003 130.4222,672.4913 125.0999,676.7231 120.2258,681.4643 115.8485,686.6676 112.2098,691.9595 108.9183,697.9094 106.2361,704.1577 104.1899,710.6422 102.8002,717.2983 102.1029,723.6825 102.023,730.4816 102.6212,737.2549 103.8033,743.5674 105.6967,750.0981 108.2314,756.4077 111.3823,762.4332 115.118,768.1147 119.4013,773.3957 123.9111,777.968 129.1325,782.3237 134.762,786.1373 140.403,789.207 146.6624,791.8632 152.7896,793.7873 159.4438,795.1863 165.827,795.8924 172.6261,795.9817 179.4002,795.393 185.7143,794.2196 192.2476,792.3353 198.5607,789.8093 204.5906,786.6668 210.2773,782.9389 215.5642,778.663 220.1428,774.1596 224.5056,768.9441 228.327,763.3199 231.569,757.3428 234.1991,751.0725 236.0977,744.9373 237.469,738.2774 238.1485,731.8913 238.2239,725.4696 237.6446,718.6946 236.393,712.0112 234.6047,705.843 232.0875,699.5264 228.9533,693.4922 225.2334,687.8003 221.2156,682.7902 216.4677,677.9227 211.2583,673.5526 205.6394,669.7234 200.0069,666.638 193.7549,663.9644 187.2676,661.9273 180.6096,660.5467 174.2244,659.8583 167.8028,659.774 161.0271,660.3439 154.3419,661.5863"/>
    <polygon points="172.1905,666.9287 176.003,669.3684 179.8754,670.8615 183.962,671.586 188.1117,671.5153 192.1712,670.6519 195.9905,669.0277 199.4285,666.7028 202.3581,663.763 204.8476,659.9829 206.3914,656.1304 207.1695,652.0537 207.1533,647.9034 206.3432,643.8329 204.7693,639.9926 202.2502,636.2322 199.2976,633.3154 195.5066,630.8424 191.6474,629.3155 187.5673,628.5553 183.0417,628.6324 178.9899,629.5313 175.185,631.1889 171.7675,633.5438 168.8637,636.5091 166.4073,640.3109 164.8973,644.1767 164.1549,648.2601 164.2519,652.7853 165.1685,656.8331 166.8427,660.6308 169.2125,664.0379"/>
    <line x1="185.1228" x2="185.9725" y1="659.5079" y2="660.2145"/>
    <line x1="185.3614" x2="187.0608" y1="659.2209" y2="660.6342"/>
    <line x1="188.1491" x2="185.6" y1="661.0539" y2="658.934"/>
    <line x1="185.8386" x2="189.2375" y1="658.6471" y2="661.4735"/>
    <line x1="190.3258" x2="186.0772" y1="661.8932" y2="658.3602"/>
    <line x1="186.3158" x2="191.4141" y1="658.0732" y2="662.3129"/>
    <line x1="192.5024" x2="186.5544" y1="662.7326" y2="657.7863"/>
    <line x1="186.793" x2="193.5907" y1="657.4994" y2="663.1523"/>
    <line x1="194.6791" x2="187.0316" y1="663.572" y2="657.2125"/>
    <line x1="187.2702" x2="195.7674" y1="656.9255" y2="663.9917"/>
    <line x1="196.8557" x2="187.5088" y1="664.4114" y2="656.6386"/>
    <line x1="187.7474" x2="197.944" y1="656.3517" y2="664.8311"/>
    <line x1="198.6598" x2="188.4632" y1="663.9703" y2="655.4909"/>
    <line x1="188.2246" x2="199.2709" y1="655.7778" y2="664.9638"/>
    <line x1="199.0323" x2="187.986" y1="665.2508" y2="656.0648"/>
    <line x1="188.7018" x2="198.0487" y1="655.204" y2="662.9768"/>
    <line x1="197.4376" x2="188.9404" y1="661.9832" y2="654.9171"/>
    <line x1="189.1791" x2="196.8265" y1="654.6301" y2="660.9897"/>
    <line x1="196.2154" x2="189.4177" y1="659.9961" y2="654.3432"/>
    <line x1="189.6563" x2="195.6043" y1="654.0563" y2="659.0026"/>
    <line x1="194.9932" x2="189.8949" y1="658.0091" y2="653.7694"/>
    <line x1="190.1335" x2="194.382" y1="653.4824" y2="657.0155"/>
    <line x1="193.7709" x2="190.3721" y1="656.022" y2="653.1955"/>
    <line x1="190.6107" x2="193.1598" y1="652.9086" y2="655.0284"/>
    <line x1="192.5487" x2="190.8493" y1="654.0349" y2="652.6217"/>
    <line x1="191.0879" x2="191.9376" y1="652.3348" y2="653.0414"/>
    <polygon points="191.3265,652.0478 184.8842,659.7948 199.5765,665.4606"/>
    <polygon points="218.6984,653.0551 216.8784,648.0951 214.5729,643.3412 212.0175,639.1529 208.8449,634.9281 205.267,631.0405 201.3194,627.529 197.0414,624.4285 192.8104,621.9445 188.0181,619.7199 183.0279,617.9842 177.8896,616.7545 173.0303,616.0765 167.7517,615.8529 162.477,616.1566 157.2588,616.9845 152.1492,618.3285 147.199,620.1751 142.4575,622.5059 138.2829,625.0836 134.3649,628.0368 130.471,631.6078 126.9524,635.5491 123.8443,639.8216 121.1775,644.3826 119.1196,648.8365 117.375,653.8236 116.1361,658.9597 115.4495,663.8177 115.2165,669.096 115.5108,674.3712 116.3294,679.5908 117.6642,684.7028 119.502,689.6563 121.6429,694.0709 124.3947,698.5812 127.3408,702.5044 130.9049,706.4047 134.84,709.9303 139.1069,713.0461 143.329,715.5451 148.1133,717.7867 153.0973,719.5403 158.2312,720.7883 163.4639,721.5183 168.7434,721.7231 173.6416,721.4411 178.8626,720.6318 183.977,719.3061 188.586,717.6241 193.3522,715.3441 197.8673,712.6004 202.0865,709.4203 205.9676,705.8354 209.2351,702.1754 212.3584,697.914 215.0415,693.3626 217.2575,688.5663 218.8776,683.9352 220.1347,678.8036 220.8741,673.5721 221.0883,668.293 220.8151,663.3944 220.0151,658.1718"/>
    <polygon points="219.4461,652.6804 217.6156,647.7195 215.3066,642.9625 212.5414,638.4552 209.3469,634.2414 205.7538,630.3618 201.7971,626.854 197.5148,623.7518 192.9486,621.0852 188.1424,618.8802 183.1429,617.1579 178.3696,616.0056 173.135,615.2573 167.8522,615.0268 162.5723,615.3164 157.3464,616.1233 152.225,617.4396 147.2577,619.2527 142.4925,621.545 137.9756,624.2943 133.7506,627.474 129.8584,631.0534 126.3367,634.9978 123.2194,639.2691 120.5369,643.826 118.3149,648.6244 116.5751,653.6178 115.3343,658.758 114.6043,663.9952 114.3924,669.2788 114.7006,674.5576 115.5258,679.7807 116.8601,684.8974 118.6907,689.8583 120.9997,694.6153 123.7648,699.1226 126.7176,703.046 130.2833,706.9508 134.2153,710.4864 138.4756,713.6186 143.0231,716.3171 147.8136,718.5559 152.8008,720.3133 157.9366,721.5722 163.1713,722.3205 168.4541,722.551 173.734,722.2614 178.9599,721.4545 184.0813,720.1382 189.0486,718.3251 193.8137,716.0328 198.3306,713.2835 202.5556,710.1038 206.4478,706.5244 209.9696,702.58 213.0868,698.3087 215.7694,693.7518 217.9913,688.9535 219.7311,683.96 220.972,678.8198 221.7019,673.5826 221.9138,668.299 221.6057,663.0202 220.7804,657.7971"/>
    <polygon points="219.8878,652.71 218.0741,647.7438 215.785,642.978 213.0423,638.458 209.872,634.2268 206.0352,630.0598 202.0797,626.5516 197.8011,623.4458 193.2401,620.7718 188.4401,618.5551 183.447,616.8168 178.3082,615.5735 173.0727,614.8371 167.7903,614.6145 162.5114,614.9078 156.9163,615.7914 151.8039,617.1391 146.8472,618.9787 142.0934,621.2927 137.5878,624.059 133.3733,627.2514 129.4901,630.8393 125.9751,634.7887 122.8618,639.0619 120.1798,643.6183 117.9547,648.4143 116.2078,653.4045 114.9555,658.5411 114.21,663.7753 113.9813,669.4351 114.3023,674.7124 115.1361,679.9333 116.4749,685.0481 118.3058,690.008 120.6115,694.7658 123.37,699.2762 126.555,703.4962 130.1362,707.3857 134.0795,710.9076 138.3473,714.0284 142.8989,716.7183 147.6911,718.9517 152.6781,720.7074 158.1837,722.0394 163.4217,722.7576 168.7049,722.9617 173.9827,722.65 179.2051,721.8253 184.3222,720.4954 189.2852,718.6731 194.0471,716.3757 198.5623,713.6251 202.7879,710.4475 206.6836,706.8731 210.2124,702.9359 213.3406,698.6736 216.0384,694.1266 218.2802,689.3384 220.0445,684.3544 221.3147,679.2222 222.0785,673.9906 222.3287,668.7094 222.063,663.429 221.2087,657.8294"/>
    <polygon points="224.0186,644.8488 221.5475,639.7523 218.4012,634.5951 214.7585,629.7757 210.6553,625.3418 206.4264,621.574 201.5501,618.0077 196.678,615.1194 191.2092,612.5528 185.5125,610.5417 179.6444,609.1061 173.6627,608.2602 168.0043,608.0101 161.9713,608.3251 155.9994,609.2375 150.1476,610.7382 144.822,612.6663 139.3658,615.2597 134.1939,618.382 129.3576,622.0022 124.9046,626.0847 121.1172,630.296 117.5282,635.1556 114.4394,640.3474 111.8812,645.8203 109.879,651.52 108.4525,657.3904 107.6507,662.9973 107.3746,669.0322 107.699,675.0646 108.6207,681.0351 110.1305,686.8846 112.2135,692.5553 114.8492,697.9912 117.799,702.8264 121.1861,707.3659 125.2478,711.8379 129.7334,715.8846 134.5985,719.466 139.4616,722.3695 144.9225,724.9531 150.6128,726.9819 156.4765,728.4357 162.4555,729.3002 168.4908,729.567 174.5228,729.2332 180.4918,728.3023 185.9782,726.8953 191.6586,724.8387 197.1067,722.2284 202.2688,719.0901 207.0938,715.4548 211.5342,711.3585 215.5459,706.8417 219.0894,701.9488 221.955,697.0633 224.4961,691.5826 226.4806,685.8766 227.8888,680.0018 228.7069,674.0163 228.9306,668.3568 228.5875,662.3253 227.6473,656.3578 226.1193,650.513"/>
    <polygon points="194.8351,618.3464 189.7023,615.9495 184.3571,614.0733 178.8522,612.7363 173.2419,611.9516 167.5814,611.7272 162.3023,612.025 156.703,612.8848 151.2166,614.2956 145.897,616.2434 140.7968,618.709 136.2789,621.456 131.7429,624.8496 127.5658,628.6761 123.7886,632.898 120.657,637.1584 117.7549,642.0235 115.3494,647.1523 113.4644,652.4944 112.1183,657.9971 111.3244,663.6061 111.0905,669.2662 111.3797,674.5458 112.2302,680.1465 113.6319,685.6353 115.4252,690.6094 117.8485,695.7298 120.7675,700.5848 124.1536,705.1263 127.9732,709.3098 131.8963,712.8549 136.4441,716.2326 141.3043,719.1428 146.4292,721.5567 151.7681,723.4506 157.2686,724.8058 162.8763,725.609 168.5359,725.8522 174.1919,725.5331 179.7883,724.6548 185.27,723.2259 190.5831,721.2605 195.3435,718.9591 200.1839,716.016 204.7086,712.6075 208.8731,708.7671 212.6362,704.5327 215.7537,700.262 218.4625,695.721 220.8849,690.6001 222.7876,685.2643 224.152,679.7662 224.9644,674.1598 225.2177,668.8784 224.9454,663.22 224.1134,657.6165 222.7299,652.1231 220.8085,646.794 218.3683,641.6816 215.4332,636.8364 212.0321,632.306 208.1987,628.1352 203.9706,624.365 199.705,621.2405"/>
    <polygon points="189.28,617.1144 183.938,615.2405 178.8045,613.9879 173.1996,613.191 167.9205,612.9629 162.6434,613.235 157.0454,614.0786 151.9225,615.3739 146.5963,617.2923 141.824,619.5611 136.9738,622.4808 132.7352,625.6361 128.5469,629.445 124.7659,633.6585 121.6388,637.9179 118.7515,642.7875 116.5145,647.5747 114.7401,652.5519 113.3703,658.0449 112.5638,663.6484 112.3268,668.9272 112.6279,674.5804 113.4242,679.8041 114.7108,684.9292 116.6202,690.2587 119.0595,695.3674 121.7923,699.8899 124.9405,704.1338 128.7423,708.3285 132.6572,711.8776 137.2035,715.2509 142.0682,718.1465 146.8516,720.3916 151.8259,722.1745 157.3165,723.5535 162.5429,724.3328 168.197,724.6154 173.475,724.3611 179.0758,723.5364 184.203,722.2585 189.5357,720.3581 194.6486,717.9274 199.4889,714.9913 204.007,711.5802 207.8922,707.9987 211.4213,704.0659 214.7715,699.5024 217.6424,694.6231 219.8632,689.8284 221.6208,684.8452 222.972,679.3476 223.7595,673.7414 223.9787,668.4618 223.6585,662.8097 222.8445,657.5887 221.429,652.1073 219.6132,647.145 217.1566,642.0446 214.4085,637.5313 211.005,633.0074 207.43,629.1162 203.2101,625.3424 198.9454,622.2225 194.4048,619.5198"/>
    <polygon points="190.9118,612.8771 185.5708,610.99 179.7057,609.5384 174.1011,608.7164 168.0662,608.4227 162.0323,608.7337 156.0596,609.6464 150.2081,611.1516 144.8845,613.0874 139.433,615.6924 134.2691,618.8293 129.4447,622.4667 125.2732,626.299 121.2405,630.7982 117.6778,635.678 114.6208,640.8896 112.1,646.3806 110.1408,652.0961 108.8315,657.6073 108.0445,663.217 107.7886,669.2536 108.098,674.9098 109.0106,680.8824 110.5158,686.7339 112.5983,692.4056 115.0566,697.5091 118.1935,702.6729 121.8309,707.4973 125.6632,711.6689 130.1624,715.7015 135.0423,719.2642 140.2538,722.3213 145.3944,724.7007 151.0976,726.6957 156.9715,728.1106 162.9575,728.9312 168.9956,729.1493 175.0252,728.7628 180.6165,727.8546 186.0981,726.4263 191.7699,724.3437 197.205,721.7046 202.0371,718.7485 206.8615,715.1111 211.0331,711.2789 215.0658,706.7796 218.4202,702.215 221.5098,697.0227 223.9214,691.8971 225.952,686.2065 227.4037,680.3415 228.2617,674.3608 228.5176,668.3242 228.1688,662.2923 227.2956,656.6954 225.7905,650.8439 223.8546,645.5203 221.2496,640.0687 218.1127,634.9049 214.7167,630.3711 210.6431,625.9089 206.4367,622.115 201.5792,618.5218 196.3869,615.4322"/>
    <polygon points="173.1973,615.6777 167.9141,615.4392 162.6332,615.725 157.4066,616.5322 152.6467,617.7419 147.6688,619.528 142.8922,621.7981 138.3639,624.5301 134.4201,627.4569 130.4937,630.9998 126.9373,634.9141 123.7859,639.1613 121.0705,643.6996 118.8178,648.4844 117.0499,653.4688 115.7842,658.6037 115.033,663.8388 114.8039,669.1224 115.0991,674.4028 115.9156,679.628 117.2454,684.7467 119.0755,689.7086 121.2072,694.133 123.9471,698.6565 127.1214,702.8865 130.699,706.7815 134.6446,710.3031 138.9195,713.4167 143.4817,716.0918 147.9361,718.1601 152.9236,719.9192 158.0607,721.1758 162.9208,721.8819 168.2032,722.1391 173.4851,721.872 178.7146,721.0833 183.8402,719.7807 188.8118,717.977 193.5803,715.6899 198.099,712.942 202.3234,709.7601 206.212,706.1757 209.7266,702.2238 212.8327,697.9434 215.4997,693.3765 217.7014,688.568 219.4163,683.5651 220.5579,678.7885 221.2904,673.5509 221.5008,668.2664 221.2267,663.363 220.4287,658.1349 219.117,653.0115 217.3045,648.0432 215.1886,643.6112 212.4647,639.0781 209.3053,634.8368 205.7416,630.9292 201.8085,627.3937 197.5446,624.2649 192.992,621.5737 188.1952,619.3464 183.5637,617.7129 178.431,616.4381"/>
    <polygon points="156.6106,610.7983 150.7506,612.2797 145.4208,614.2052 139.9671,616.8112 135.1207,619.7482 130.2866,623.3767 126.1132,627.2103 122.3259,631.4258 118.9596,635.9845 115.8676,641.1781 113.4645,646.3103 111.5637,651.6489 110.1096,657.5157 109.262,663.5004 109.0262,669.1624 109.3732,675.1968 110.2566,680.7944 111.6718,686.2817 113.6058,691.6084 116.2205,697.058 119.1652,701.8997 122.56,706.4373 126.6418,710.8952 130.8633,714.6758 135.7428,718.243 140.6259,721.1185 146.1121,723.6554 151.4658,725.5134 156.9727,726.8504 162.5823,727.654 168.6211,727.9152 174.2791,727.5989 179.8809,726.7423 185.7362,725.2422 191.0598,723.2997 196.1729,720.8565 201.3422,717.7238 205.8743,714.3219 210.3257,710.2329 214.0995,706.0054 217.4513,701.436 220.3502,696.5667 222.7697,691.4422 224.6874,686.1097 226.1604,680.2475 226.9909,674.6418 227.281,668.6044 226.9532,662.5689 226.0877,656.9685 224.6901,651.4767 222.7731,646.1439 220.1758,640.6859 217.2466,635.8348 213.8664,631.2864 210.0663,627.0825 205.8812,623.2617 201.0361,619.6478 196.1808,616.7256 190.7191,614.1362 185.3836,612.227 179.519,610.7634 173.5358,609.9063 167.8742,609.6614 162.2151,609.9597"/>
    <polygon points="127.0944,627.9792 123.3032,632.1864 119.9413,636.744 117.0408,641.6082 114.6295,646.7326 112.7305,652.0681 111.3619,657.5636 110.5368,663.1666 110.2631,668.8233 110.5435,674.4798 111.4501,680.4519 112.8611,685.9367 114.8013,691.2574 117.252,696.363 120.19,701.2048 123.5869,705.7363 127.4104,709.9142 131.6238,713.6984 136.1869,717.0529 141.0559,719.9455 146.1842,722.3484 151.8849,724.3461 157.3914,725.6698 163.0009,726.4492 168.6597,726.6767 174.3136,726.3502 179.9086,725.4728 185.3911,724.0529 190.7086,722.1041 195.8103,719.645 200.6472,716.6991 205.1731,713.2948 209.3448,709.4645 213.1222,705.2449 216.4692,700.6764 219.3538,695.8027 221.7484,690.6705 223.63,685.3288 224.9807,679.8289 225.7875,674.2232 226.0427,668.5656 225.7439,662.9101 224.8939,657.3109 223.5008,651.8216 221.4314,646.1465 218.964,641.0489 216.0103,636.2167 212.5986,631.6963 208.7615,627.531 204.5357,623.7604 199.9618,620.4209 195.0834,617.5442 189.9472,615.158 184.6025,613.2851 179.1004,611.9434 173.4935,611.1457 167.8354,610.8998 162.1804,611.2078 156.5826,612.067 151.0955,613.469 145.7717,615.4005 140.6621,617.8429 135.8155,620.7729 131.2785,624.1625"/>
    <polygon points="116.5075,641.7346 114.1265,646.8723 112.2552,652.2168 110.9112,657.7176 110.1072,663.3229 109.8532,669.3573 110.1833,675.0103 111.0602,680.6046 112.4758,686.0874 114.4165,691.4071 116.8641,696.5134 119.7956,701.3582 123.1832,705.8957 126.9951,710.0832 131.1951,713.8812 135.7438,717.2538 140.5983,720.1692 145.7126,722.6 151.0387,724.5231 156.8965,725.9946 162.4991,726.8168 168.1551,727.0916 174.1867,726.7786 179.7839,725.9198 185.2713,724.522 190.5972,722.5985 196.0436,719.9878 200.8789,717.0407 205.4054,713.6384 209.5805,709.813 213.3649,705.6007 216.7227,701.0411 219.6224,696.1772 222.0366,691.055 224.051,685.361 225.395,679.8602 226.1991,674.255 226.4531,668.2205 226.123,662.5675 225.246,656.9732 223.7173,651.1301 221.7421,645.8231 219.2615,640.7328 216.2987,635.9071 212.8817,631.3916 208.7728,626.9649 204.5239,623.2216 199.9318,619.9082 195.0401,617.0559 189.8946,614.6916 184.5441,612.8376 179.039,611.5114 173.4312,610.7256 167.7735,610.4874 162.1195,610.7992 156.1526,611.7346 150.6744,613.1679 145.361,615.1258 140.2627,617.59 135.4274,620.5371 130.9009,623.9394 126.7257,627.7648 122.9414,631.9771 119.3756,636.852"/>
    <polygon points="117.5946,648.2044 115.8406,653.1912 114.5772,658.3243 113.7813,663.9317 113.5664,669.2136 113.8635,674.4916 114.6696,679.716 115.9773,684.838 117.921,690.1576 120.2235,694.9162 122.9754,699.4297 126.3933,703.9457 129.9896,707.8201 133.9439,711.3285 138.219,714.438 142.7748,717.1193 147.5686,719.3474 152.5554,721.1014 157.6885,722.3648 163.2959,723.1607 168.5778,723.3756 173.8558,723.0786 179.0803,722.2724 184.2023,720.9647 189.1738,719.1677 194.2804,716.7186 198.7939,713.9667 203.3099,710.5488 207.1844,706.9524 210.6927,702.9981 213.8022,698.723 216.4835,694.1672 218.7117,689.3734 220.4657,684.3866 221.8002,678.8825 222.525,673.6461 222.7398,668.3642 222.4428,663.0862 221.5598,657.4919 220.2166,652.3791 218.3852,647.4202 216.0828,642.6616 213.3309,638.1481 210.1553,633.9219 206.3166,629.7577 202.3624,626.2493 198.0873,623.1399 193.5315,620.4585 188.7377,618.2304 183.7508,616.4764 178.6177,615.213 173.3865,614.452 167.7284,614.2022 162.4505,614.4992 157.226,615.3054 152.104,616.6131 147.1325,618.4101 142.3581,620.6796 137.5123,623.6112 133.2861,626.7868 129.3869,630.3562 125.8513,634.2861 122.7123,638.5396 119.8227,643.4106"/>
    <polygon points="111.8401,680.2992 113.2465,685.786 115.186,691.1077 117.64,696.2127 120.5845,701.0513 123.9909,705.5767 127.8262,709.7447 132.0531,713.5151 136.6306,716.8511 141.5142,719.7204 146.6566,722.095 152.0077,723.952 157.5155,725.2733 163.1267,726.046 168.4089,726.2657 174.0649,725.9614 179.6635,725.1019 185.1502,723.6956 190.4719,721.756 195.5769,719.3021 200.4155,716.3576 204.9409,712.9511 209.109,709.1158 212.6411,705.1821 216.0071,700.6266 218.9084,695.7619 221.3168,690.6353 223.2089,685.2966 224.5664,679.7975 225.376,674.1915 225.6299,668.5331 225.3256,662.8771 224.4661,657.2786 223.0598,651.7918 221.1202,646.4701 218.6663,641.3651 215.7218,636.5265 212.3154,632.0012 208.4801,627.8331 204.2531,624.0627 199.6756,620.7267 194.792,617.8575 189.6497,615.4828 184.2986,613.6258 178.7907,612.3045 173.1796,611.5318 167.5196,611.3151 161.8657,611.6565 156.2729,612.5528 150.7955,613.9951 145.4867,615.9696 140.7294,618.2757 135.8907,621.2202 131.3654,624.6267 127.1973,628.462 123.4269,632.6889 120.0909,637.2664 117.2217,642.15 114.847,647.2923 112.99,652.6434 111.7399,657.7803 110.9303,663.3863 110.6764,669.0447 110.9806,674.7007"/>
    <polygon points="132.3248,712.6725 136.8873,716.0317 141.7624,718.9184 146.9015,721.3037 152.2532,723.1638 157.3926,724.4095 162.6259,725.1705 168.2851,725.4407 173.9431,725.1442 179.5431,724.284 185.0292,722.8688 189.9983,721.0596 195.1101,718.6162 199.9522,715.6745 204.4763,712.2638 208.3719,708.6874 212.156,704.4707 215.4999,699.8971 218.3704,695.0123 220.7385,689.8653 222.5807,684.5074 223.8093,679.3638 224.5529,674.1281 224.8041,668.468 224.4888,662.8111 223.6099,657.2139 222.1765,651.7326 220.2026,646.4218 217.8903,641.6659 214.9324,636.8336 211.5066,632.3209 207.9173,628.4373 203.6879,624.6673 199.1032,621.3386 194.2089,618.4845 189.4047,616.2741 184.0531,614.414 178.9136,613.1683 173.6804,612.4073 168.0211,612.1372 162.3632,612.4337 156.7632,613.2938 151.2771,614.709 145.9598,616.6651 140.8644,619.1425 136.354,621.9034 131.8299,625.314 127.9344,628.8904 124.1503,633.1071 121.0149,637.3656 118.2902,641.898 115.8536,647.0129 113.94,652.3457 112.5687,657.843 111.7534,663.4497 111.5021,669.1098 111.8175,674.7667 112.6203,679.9937 114.0172,685.4845 115.8099,690.4597 118.2362,695.5795 121.1618,700.4315 124.5574,704.9669 128.389,709.1405"/>
    <polygon points="131.0222,715.3336 135.6147,718.6524 140.5018,721.5195 145.9897,724.051 151.343,725.9075 156.8486,727.2468 162.8329,728.0916 168.494,728.3288 174.5279,727.9875 180.1263,727.1135 185.6162,725.7113 191.2965,723.6478 196.4064,721.1995 201.5738,718.0654 206.1065,714.6654 210.5616,710.5817 214.5798,706.0674 217.9131,701.4854 220.7958,696.6074 223.3446,691.1276 225.3248,685.4177 226.6466,679.9078 227.4386,674.2973 227.6916,668.2591 227.3717,662.602 226.4394,656.6307 225.0198,651.1453 222.9383,645.4715 220.2923,640.038 217.3233,635.212 213.6663,630.4005 209.8111,626.248 205.5787,622.4808 200.6916,618.9255 195.8044,616.0583 190.3166,613.5268 184.9632,611.6703 179.0864,610.2605 173.4734,609.4862 167.4344,609.2524 161.4027,609.6319 155.8101,610.5415 150.3292,611.9785 145.0097,613.93 139.8999,616.3783 134.7324,619.5124 130.1997,622.9124 125.7447,626.9961 121.7265,631.5105 118.3932,636.0924 115.5105,640.9704 112.9617,646.4502 110.9815,652.1602 109.6597,657.67 108.8676,663.2805 108.6146,669.3187 108.9346,674.9758 109.8668,680.9471 111.2865,686.4325 113.368,692.1063 115.8325,697.2084 118.983,702.3658 122.3973,706.8877 126.4951,711.3298"/>
    <polygon points="152.3759,722.7697 157.8881,724.0833 163.5044,724.8356 168.79,725.0245 174.0701,724.716 179.6679,723.8367 184.7882,722.5115 190.1099,720.5649 194.8767,718.2732 199.7206,715.3329 203.9534,712.1616 208.1362,708.3389 211.6748,704.4079 215.0381,699.8476 217.9256,694.9719 220.3077,689.8305 222.0537,684.838 223.3951,679.3325 224.1413,674.0964 224.3912,668.4354 224.0702,662.778 223.2582,657.5517 221.9589,652.4248 220.0391,647.0934 217.5925,641.9823 214.644,637.1433 211.2236,632.6256 207.3659,628.475 203.1101,624.7337 198.8169,621.6447 193.9171,618.7983 189.107,616.5991 184.1116,614.8614 178.6039,613.5293 173.3666,612.7919 167.7052,612.5515 162.0483,612.882 156.4534,613.7801 151.3376,615.1225 146.0226,617.087 140.9322,619.5764 136.4295,622.3512 132.2074,625.5368 128.0374,629.3735 124.5121,633.3163 121.164,637.8879 118.293,642.7733 115.9282,647.9227 114.1989,652.921 112.876,658.431 112.1474,663.6696 111.9166,669.3313 112.2162,674.6119 113.0861,680.2112 114.515,685.6946 116.4885,691.0063 118.8041,695.7615 121.7688,700.5905 125.2044,705.0967 128.8052,708.9708 132.7539,712.4895 137.3311,715.8299 142.2213,718.6927 147.3747,721.0489"/>
    <polygon points="174.0598,727.2065 179.659,726.366 185.1511,724.9901 190.834,722.9468 195.9449,720.5105 201.1105,717.3823 205.6376,713.982 210.0814,709.8927 213.8455,705.6632 217.1847,701.0908 220.0679,696.218 222.4685,691.0902 224.3639,685.7551 225.8093,679.8916 226.6106,674.2867 226.8661,668.2531 226.5415,662.6005 225.674,657.0055 224.2717,651.52 222.3475,646.1951 219.7401,640.748 216.7994,635.9097 213.4064,631.3771 209.5926,627.1924 205.1008,623.1559 200.5338,619.8094 195.3315,616.7424 190.1922,614.3666 184.848,612.4969 179.3485,611.1507 173.7449,610.3403 167.7117,610.0751 162.0586,610.3906 156.4622,611.2491 150.6138,612.7543 145.2982,614.7042 140.1952,617.157 135.3522,620.0898 130.8141,623.4755 126.3572,627.5505 122.5796,631.7679 119.2257,636.3295 116.3268,641.193 113.9098,646.313 111.8881,652.0036 110.533,657.5009 109.7136,663.1032 109.4387,669.1359 109.7451,674.7895 110.5946,680.3873 111.9794,685.8772 114.0317,691.5568 116.4763,696.6638 119.4014,701.5115 122.7798,706.055 126.5801,710.252 130.767,714.0634 135.6151,717.6641 140.4739,720.5708 145.9392,723.14 151.2774,725.0269 156.7725,726.3909 162.3735,727.2192 168.4058,727.5038"/>
    <polygon points="211.1721,703.0596 214.2631,698.7721 217.1016,693.8721 219.2832,689.0578 220.9927,684.0563 222.2142,678.9139 222.9365,673.6779 223.1488,668.0191 222.821,662.7437 221.9883,657.5242 220.6584,652.4086 218.8437,647.4444 216.3803,642.3455 213.6194,637.8383 210.4385,633.617 206.598,629.4556 202.645,625.947 198.3734,622.834 193.8227,620.1454 189.035,617.906 184.0544,616.1366 178.5564,614.7807 173.3242,614.0315 168.0442,613.7879 162.7653,614.0524 157.1658,614.8965 152.0435,616.2 147.07,617.9891 142.2911,620.2474 137.4371,623.1639 133.1995,626.3229 129.2847,629.8741 125.4894,634.0769 122.3545,638.3324 119.6425,642.8691 117.2345,647.9944 115.3663,653.3402 114.1271,658.4784 113.3869,663.7119 113.1524,668.9922 113.4649,674.6464 114.2796,679.8687 115.5919,684.9888 117.5362,690.3073 119.8354,695.0666 122.5809,699.5832 125.9887,704.1058 129.5734,707.99 133.8086,711.749 138.0908,714.8473 142.6507,717.5202 147.4461,719.7432 152.4327,721.4955 157.9354,722.8325 163.1701,723.5638 168.4509,723.7892 174.1045,723.467 179.3254,722.6433 184.8036,721.2091 189.7584,719.3688 194.5137,717.0614 199.0256,714.3082 203.5423,710.8926 207.4204,707.3013"/>
    <polygon points="219.4318,689.7933 221.3075,684.451 222.5577,679.3162 223.3132,674.0857 223.5657,668.4293 223.2398,662.7767 222.4165,657.5564 221.0997,652.4383 219.1549,647.1208 216.6776,642.0295 213.9078,637.5287 210.7218,633.3122 206.8794,629.1535 202.9276,625.6447 198.6594,622.5282 193.7796,619.6567 188.9827,617.439 183.9962,615.6882 178.495,614.3487 172.8858,613.5776 167.6047,613.3778 162.3287,613.6821 156.7358,614.5641 151.6222,615.8983 146.3114,617.8613 141.5592,620.1736 137.049,622.928 132.8217,626.0996 128.9157,629.6595 125.3666,633.5753 121.9966,638.1252 119.1086,642.9952 116.8745,647.7845 114.9988,653.1268 113.7485,658.2616 112.9931,663.4922 112.7394,668.7709 112.9896,674.0498 113.8144,679.6514 115.2065,685.1395 117.0049,690.109 119.2685,694.8845 122.1865,699.7366 125.3437,703.9747 129.1576,708.1594 133.0855,711.6952 137.6468,715.0496 142.1924,717.7453 147.3236,720.1389 152.31,721.8896 157.4405,723.1573 163.0444,723.9667 168.3239,724.2024 173.6019,723.9341 179.2007,723.0903 184.3233,721.7909 189.6473,719.8642 194.4151,717.5843 199.2573,714.6498 203.4846,711.4782 207.6563,707.65 211.1786,703.7101 214.3096,699.4527 217.1977,694.5826"/>
    <polygon points="223.7756,691.1625 225.6391,685.8123 227.0607,679.9392 227.8502,674.3291 228.1046,668.2917 227.79,662.635 226.8676,656.6631 225.4609,651.1751 223.3968,645.4958 220.9515,640.3853 217.8241,635.2148 214.4333,630.6762 210.3617,626.2111 205.8613,622.1785 201.2933,618.8274 196.0957,615.7451 190.9642,613.3445 185.2671,611.3299 179.7671,609.971 174.1634,609.1374 168.1282,608.8353 162.0932,609.1424 156.4902,609.9807 150.6296,611.4534 144.9471,613.5086 139.5003,616.1254 134.6573,619.0651 130.1134,622.4488 125.6419,626.5133 121.8413,630.7147 118.2439,635.57 115.1535,640.7628 112.7447,645.8906 110.8307,651.2228 109.3536,657.0823 108.5111,662.6847 108.1996,668.7194 108.4971,674.7548 109.3266,680.3592 110.6814,685.8602 112.6917,691.5587 115.2655,697.026 118.3766,702.2064 121.9933,707.0473 125.8106,711.2335 130.2983,715.2802 135.1705,718.8546 140.3778,721.9205 145.5169,724.305 151.2203,726.3016 156.7246,727.6431 162.707,728.4946 168.7448,728.7396 174.7766,728.3755 180.3715,727.4842 186.2178,725.9562 191.5332,723.9958 196.6399,721.5425 201.8055,718.4069 206.3387,715.0089 210.7974,710.9303 214.5847,706.7169 218.1668,701.8504 221.2408,696.6479"/>
    <polygon points="256.2718,695.6558 400.6612,727.1754 401.6816,722.071"/>
    <line x1="256.2718" x2="401.1714" y1="695.6558" y2="724.6232"/>
    <line x1="401.2443" x2="277.0447" y1="724.2586" y2="699.4294"/>
    <line x1="276.8989" x2="401.0985" y1="700.1586" y2="724.9878"/>
    <line x1="401.0257" x2="297.526" y1="725.3524" y2="704.6614"/>
    <line x1="297.8175" x2="401.3172" y1="703.203" y2="723.894"/>
    <line x1="401.3901" x2="318.5903" y1="723.5294" y2="706.9766"/>
    <line x1="318.153" x2="400.9528" y1="709.1642" y2="725.717"/>
    <line x1="400.8799" x2="338.7801" y1="726.0816" y2="713.667"/>
    <line x1="339.3632" x2="401.463" y1="710.7502" y2="723.1648"/>
    <line x1="401.5359" x2="360.136" y1="722.8002" y2="714.5238"/>
    <line x1="359.4071" x2="400.807" y1="718.1698" y2="726.4462"/>
    <line x1="400.7341" x2="380.0342" y1="726.8108" y2="722.6726"/>
    <line x1="380.9088" x2="401.6088" y1="718.2974" y2="722.4356"/>
    <polygon points="342.4483,735.8096 341.3765,736.8501 340.7456,738.2041 340.6384,739.694 341.0691,741.1243 341.981,742.3074 343.6107,743.2068 345.0978,743.3478 346.8674,742.7708 347.9855,741.7802 348.6774,740.4563 348.8522,738.9729 348.4871,737.5244 347.3507,736.0502 345.6818,735.2258 344.1899,735.1526"/>
    <polygon points="291.5675,674.1166 294.332,666.7022 272.6532,662.8415"/>
    <line x1="291.6991" x2="289.7661" y1="673.7636" y2="673.0428"/>
    <line x1="291.8308" x2="287.9647" y1="673.4105" y2="671.969"/>
    <line x1="286.1634" x2="291.9624" y1="670.8952" y2="673.0574"/>
    <line x1="292.094" x2="284.362" y1="672.7044" y2="669.8213"/>
    <line x1="282.5606" x2="292.2257" y1="668.7475" y2="672.3513"/>
    <line x1="292.3573" x2="280.7593" y1="671.9982" y2="667.6737"/>
    <line x1="278.9579" x2="292.489" y1="666.5999" y2="671.6451"/>
    <line x1="292.6206" x2="277.1566" y1="671.2921" y2="665.526"/>
    <line x1="277.8148" x2="293.2789" y1="663.7607" y2="669.5267"/>
    <line x1="293.1472" x2="275.7501" y1="669.8798" y2="663.393"/>
    <line x1="275.3552" x2="292.7523" y1="664.4522" y2="670.939"/>
    <line x1="292.8839" x2="273.5538" y1="670.5859" y2="663.3784"/>
    <line x1="273.6855" x2="293.0156" y1="663.0253" y2="670.2329"/>
    <line x1="293.4105" x2="279.8795" y1="669.1737" y2="664.1284"/>
    <line x1="281.9441" x2="293.5422" y1="664.4961" y2="668.8206"/>
    <line x1="293.6738" x2="284.0088" y1="668.4675" y2="664.8638"/>
    <line x1="286.0734" x2="293.8055" y1="665.2315" y2="668.1145"/>
    <line x1="293.9371" x2="288.1381" y1="667.7614" y2="665.5991"/>
    <line x1="290.2027" x2="294.0688" y1="665.9668" y2="667.4083"/>
    <line x1="294.2004" x2="292.2674" y1="667.0553" y2="666.3345"/>
    <line x1="315.6609" x2="315.1199" y1="608.4422" y2="608.2257"/>
    <line x1="315.256" x2="316.338" y1="607.8856" y2="608.3186"/>
    <line x1="317.015" x2="315.3921" y1="608.195" y2="607.5455"/>
    <line x1="315.5283" x2="317.6921" y1="607.2054" y2="608.0714"/>
    <line x1="318.3692" x2="315.6644" y1="607.9479" y2="606.8653"/>
    <line x1="315.8005" x2="319.0463" y1="606.5251" y2="607.8243"/>
    <line x1="319.1825" x2="315.9366" y1="607.4842" y2="606.185"/>
    <line x1="316.0727" x2="318.7776" y1="605.8449" y2="606.9275"/>
    <line x1="318.3728" x2="316.2089" y1="606.3709" y2="605.5048"/>
    <line x1="316.345" x2="317.9679" y1="605.1647" y2="605.8143"/>
    <line x1="317.5631" x2="316.4811" y1="605.2577" y2="604.8246"/>
    <line x1="316.6172" x2="317.1582" y1="604.4845" y2="604.701"/>
    <polygon points="316.7534,604.1444 314.9838,608.5658 319.3849,607.7625"/>
    <line x1="349.3826" x2="348.9929" y1="564.7611" y2="564.2882"/>
    <line x1="349.6739" x2="348.8945" y1="564.5209" y2="563.5753"/>
    <line x1="348.7961" x2="349.9653" y1="562.8623" y2="564.2808"/>
    <line x1="350.2566" x2="348.6977" y1="564.0407" y2="562.1493"/>
    <line x1="348.5993" x2="350.5479" y1="561.4364" y2="563.8006"/>
    <line x1="350.8392" x2="348.5009" y1="563.5605" y2="560.7234"/>
    <line x1="348.4025" x2="351.1306" y1="560.0105" y2="563.3204"/>
    <line x1="351.4219" x2="348.3041" y1="563.0802" y2="559.2975"/>
    <line x1="348.2057" x2="351.7132" y1="558.5845" y2="562.8401"/>
    <line x1="352.0045" x2="348.497" y1="562.6" y2="558.3444"/>
    <line x1="349.178" x2="352.2959" y1="558.5772" y2="562.3599"/>
    <line x1="352.5872" x2="349.8591" y1="562.1198" y2="558.8099"/>
    <line x1="350.5401" x2="352.8785" y1="559.0426" y2="561.8797"/>
    <line x1="353.1698" x2="351.2212" y1="561.6395" y2="559.2753"/>
    <line x1="351.9022" x2="353.4612" y1="559.5081" y2="561.3994"/>
    <line x1="353.7525" x2="352.5833" y1="561.1593" y2="559.7408"/>
    <line x1="353.2644" x2="354.0438" y1="559.9735" y2="560.9192"/>
    <line x1="354.3351" x2="353.9454" y1="560.6791" y2="560.2062"/>
    <polygon points="354.6265,560.439 348.1565,558.2281 349.0913,565.0012"/>
    <line x1="355.6505" x2="377.496" y1="550.5112" y2="557.8602"/>
    <line x1="377.617" x2="333.9261" y1="557.5004" y2="542.8023"/>
    <line x1="334.8945" x2="378.5854" y1="539.9237" y2="554.6218"/>
    <line x1="378.7064" x2="356.861" y1="554.262" y2="546.9129"/>
    <line x1="350.5049" x2="337.6911" y1="534.2374" y2="538.3103"/>
    <line x1="337.5755" x2="352.5249" y1="537.9465" y2="533.1948"/>
    <line x1="354.5449" x2="337.4599" y1="532.1522" y2="537.5827"/>
    <line x1="337.3442" x2="356.5649" y1="537.2189" y2="531.1096"/>
    <line x1="358.5849" x2="337.2286" y1="530.067" y2="536.8551"/>
    <line x1="337.113" x2="360.6049" y1="536.4913" y2="529.0244"/>
    <line x1="360.1424" x2="336.6504" y1="527.5692" y2="535.0361"/>
    <line x1="336.7661" x2="362.3937" y1="535.3999" y2="527.2542"/>
    <line x1="362.6249" x2="336.9973" y1="527.9818" y2="536.1275"/>
    <line x1="336.8817" x2="364.6449" y1="535.7637" y2="526.9392"/>
    <line x1="357.8911" x2="336.5348" y1="527.8842" y2="534.6723"/>
    <line x1="336.4192" x2="355.6399" y1="534.3085" y2="528.1992"/>
    <line x1="353.3886" x2="336.3035" y1="528.5143" y2="533.9447"/>
    <line x1="336.1879" x2="351.1373" y1="533.5809" y2="528.8293"/>
    <line x1="348.8861" x2="336.0723" y1="529.1443" y2="533.2171"/>
    <line x1="335.9566" x2="346.6348" y1="532.8533" y2="529.4593"/>
    <line x1="344.3835" x2="335.841" y1="529.7743" y2="532.4895"/>
    <line x1="335.7254" x2="342.1323" y1="532.1257" y2="530.0893"/>
    <line x1="339.881" x2="335.6097" y1="530.4043" y2="531.7619"/>
    <line x1="335.4941" x2="337.6297" y1="531.3981" y2="530.7193"/>
    <line x1="337.8068" x2="348.4849" y1="538.6741" y2="535.28"/>
    <line x1="346.4649" x2="337.9224" y1="536.3226" y2="539.0379"/>
    <line x1="338.038" x2="344.4449" y1="539.4017" y2="537.3652"/>
    <line x1="342.4249" x2="338.1537" y1="538.4078" y2="539.7655"/>
    <line x1="338.2693" x2="340.4049" y1="540.1293" y2="539.4505"/>
    <polygon points="338.3849,540.4931 364.6449,526.9392 335.3785,531.0344"/>
    <line x1="312.928" x2="378.4643" y1="532.9345" y2="554.9816"/>
    <line x1="378.3433" x2="290.9615" y1="555.3414" y2="525.9453"/>
    <line x1="290.4773" x2="377.8591" y1="527.3846" y2="556.7807"/>
    <line x1="377.7381" x2="312.2017" y1="557.1405" y2="535.0935"/>
    <polygon points="301.8514,516.2438 136.8886,522.9989 137.1007,526.9934"/>
    <line x1="286.874" x2="137.0043" y1="517.221" y2="525.1777"/>
    <line x1="136.985" x2="286.8548" y1="524.8146" y2="516.8579"/>
    <line x1="268.995" x2="378.2222" y1="518.9561" y2="555.7013"/>
    <line x1="378.1012" x2="247.0285" y1="556.0611" y2="511.9669"/>
    <polygon points="247.0285,511.9669 377.3749,558.22 378.8275,553.9022"/>
    <line x1="256.8615" x2="136.9657" y1="518.0861" y2="524.4515"/>
    <line x1="136.9465" x2="226.8683" y1="524.0883" y2="519.3143"/>
    <line x1="226.9647" x2="137.0429" y1="521.13" y2="525.904"/>
    <line x1="137.0621" x2="197.01" y1="526.2671" y2="523.0844"/>
    <line x1="196.8751" x2="136.9272" y1="520.5425" y2="523.7252"/>
    <line x1="136.9079" x2="166.8819" y1="523.3621" y2="521.7707"/>
    <line x1="167.0554" x2="137.0814" y1="525.0389" y2="526.6303"/>
    <line x1="137.0236" x2="256.9194" y1="525.5409" y2="519.1755"/>
    <polygon points="267.507,522.0005 267.3232,528.4122 268.4006,534.7354 270.6975,540.7244 274.1245,546.1465 278.5485,550.7911 283.7977,554.4775 289.668,557.0627 295.9313,558.4462 302.3444,558.5742 308.658,557.4417 314.6267,555.0928 320.0188,551.6187 324.6246,547.1544 328.2652,541.8733 330.7992,535.9807 332.1281,529.7055 332.231,523.6683 331.1169,517.3515 328.7853,511.3759 325.3268,505.9738 320.8759,501.355 315.6054,497.6991 309.7202,495.148 303.4489,493.8009 297.0352,493.7102 290.7284,494.8793 284.7733,497.2629 279.4016,500.7682 274.8217,505.2592 271.3946,510.2305 268.8265,516.1083"/>
    <line x1="268.7529" x2="377.9801" y1="519.6758" y2="556.4209"/>
    <line x1="396.6941" x2="414.0551" y1="548.3701" y2="448.6097"/>
    <line x1="368.031" x2="381.4528" y1="469.4342" y2="505.0441"/>
    <line x1="381.7882" x2="375.0773" y1="504.9177" y2="487.1127"/>
    <line x1="374.0709" x2="380.7818" y1="487.492" y2="505.297"/>
    <line x1="381.1173" x2="367.6955" y1="505.1706" y2="469.5606"/>
    <line x1="364.1453" x2="367.9685" y1="474.2125" y2="480.278"/>
    <line x1="368.2854" x2="365.418" y1="480.0783" y2="475.5291"/>
    <line x1="366.6907" x2="368.6023" y1="476.8458" y2="479.8785"/>
    <line x1="368.9192" x2="367.9634" y1="479.6788" y2="478.1624"/>
    <line x1="367.6517" x2="362.8726" y1="480.4778" y2="472.8958"/>
    <line x1="361.5999" x2="367.3348" y1="471.5792" y2="480.6775"/>
    <line x1="367.0179" x2="360.3272" y1="480.8772" y2="470.2625"/>
    <line x1="359.0545" x2="366.701" y1="468.9459" y2="481.077"/>
    <line x1="366.3841" x2="357.7818" y1="481.2767" y2="467.6292"/>
    <line x1="356.5091" x2="366.0673" y1="466.3126" y2="481.4764"/>
    <line x1="365.7504" x2="355.2364" y1="481.6762" y2="464.9959"/>
    <line x1="353.9637" x2="365.4335" y1="463.6793" y2="481.8759"/>
    <line x1="365.1166" x2="352.691" y1="482.0757" y2="462.3626"/>
    <line x1="351.7403" x2="364.166" y1="462.9618" y2="482.6749"/>
    <line x1="364.4829" x2="351.1014" y1="482.4751" y2="461.2457"/>
    <line x1="351.4183" x2="364.7997" y1="461.046" y2="482.2754"/>
    <line x1="363.8491" x2="352.3793" y1="482.8746" y2="464.678"/>
    <line x1="353.0182" x2="363.5322" y1="466.3941" y2="483.0744"/>
    <line x1="363.2153" x2="353.6571" y1="483.2741" y2="468.1102"/>
    <line x1="354.2961" x2="362.8985" y1="469.8263" y2="483.4738"/>
    <line x1="362.5816" x2="354.935" y1="483.6736" y2="471.5425"/>
    <line x1="355.574" x2="362.2647" y1="473.2586" y2="483.8733"/>
    <line x1="361.9478" x2="356.2129" y1="484.073" y2="474.9747"/>
    <line x1="356.8518" x2="361.6309" y1="476.6909" y2="484.2728"/>
    <line x1="361.314" x2="357.4908" y1="484.4725" y2="478.407"/>
    <line x1="358.1297" x2="360.9972" y1="480.1231" y2="484.6723"/>
    <line x1="360.6803" x2="358.7686" y1="484.872" y2="481.8392"/>
    <line x1="359.4076" x2="360.3634" y1="483.5554" y2="485.0717"/>
    <polygon points="360.0465,485.2715 369.2361,479.4791 350.7819,460.3877"/>
    <polygon points="382.1237,504.7912 364.5078,460.5949 380.4463,505.4235"/>
    <line x1="455.1638" x2="464.8862" y1="491.2083" y2="489.6513"/>
    <line x1="464.9448" x2="456.4377" y1="490.0173" y2="491.3797"/>
    <line x1="456.2618" x2="464.769" y1="490.2815" y2="488.9191"/>
    <line x1="464.7103" x2="457.4185" y1="488.5531" y2="489.7209"/>
    <line x1="458.5752" x2="464.6517" y1="489.1602" y2="488.187"/>
    <line x1="464.5931" x2="459.7319" y1="487.8209" y2="488.5995"/>
    <line x1="460.8885" x2="464.5345" y1="488.0388" y2="487.4549"/>
    <line x1="464.4758" x2="462.0452" y1="487.0888" y2="487.4781"/>
    <line x1="463.2019" x2="464.4172" y1="486.9174" y2="486.7227"/>
    <line x1="464.8276" x2="455.1052" y1="489.2852" y2="490.8422"/>
    <line x1="457.7116" x2="465.0035" y1="491.5512" y2="490.3834"/>
    <line x1="465.0621" x2="458.9856" y1="490.7495" y2="491.7226"/>
    <line x1="460.2595" x2="465.1207" y1="491.894" y2="491.1155"/>
    <line x1="465.1793" x2="461.5334" y1="491.4816" y2="492.0655"/>
    <line x1="462.8074" x2="465.238" y1="492.2369" y2="491.8477"/>
    <line x1="465.2966" x2="464.0813" y1="492.2137" y2="492.4084"/>
    <polygon points="465.3552,492.5798 464.3586,486.3567 454.5268,491.1226"/>
    <line x1="474.5091" x2="475.6031" y1="519.972" y2="519.8766"/>
    <line x1="475.6349" x2="473.4468" y1="520.2406" y2="520.4314"/>
    <line x1="472.3845" x2="475.6666" y1="520.8908" y2="520.6046"/>
    <line x1="475.6984" x2="471.3222" y1="520.9685" y2="521.3502"/>
    <line x1="471.4175" x2="475.7936" y1="522.4421" y2="522.0604"/>
    <line x1="475.8254" x2="472.5433" y1="522.4244" y2="522.7107"/>
    <line x1="473.669" x2="475.8571" y1="522.9792" y2="522.7884"/>
    <line x1="475.8889" x2="474.7948" y1="523.1524" y2="523.2478"/>
    <polygon points="475.9206,523.5163 475.5714,519.5126 469.7288,522.0393"/>
    <line x1="475.7619" x2="470.2917" y1="521.6965" y2="522.1736"/>
    <line x1="470.26" x2="475.7301" y1="521.8096" y2="521.3325"/>
    <line x1="508.0585" x2="691.6777" y1="460.3566" y2="621.8024"/>
    <polygon points="592.7258,576.1133 617.8655,467.3071 516.0029,443.7717 490.8632,552.5779"/>
    <polygon points="603.9002,534.3111 608.7734,533.7751 613.449,532.3009 617.7483,529.9449 621.5069,526.7971 624.7854,522.6605 626.9917,518.2824 628.3036,513.5586 628.671,508.6699 628.08,503.8031 626.553,499.1444 624.1485,494.872 620.9585,491.1493 617.1049,488.1186 612.7352,485.8959 608.0164,484.5662 603.1291,484.1803 598.2601,484.753 593.5957,486.2625 589.3143,488.6508 585.5795,491.8268 582.5344,495.669 580.2952,500.0303 578.9478,504.744 578.5435,509.6299 579.0979,514.501 580.5897,519.171 582.9619,523.4614 586.1238,527.2081 589.9544,530.2677 594.3073,532.5232 599.0159,533.8885"/>
    <line x1="531.214" x2="530.7143" y1="612.5594" y2="614.3338"/>
    <line x1="529.8534" x2="530.8528" y1="616.0065" y2="612.4577"/>
    <line x1="530.4916" x2="528.9925" y1="612.3559" y2="617.6792"/>
    <line x1="528.1316" x2="530.1303" y1="619.3519" y2="612.2542"/>
    <line x1="529.7691" x2="527.2707" y1="612.1525" y2="621.0246"/>
    <line x1="526.4098" x2="529.4079" y1="622.6973" y2="612.0508"/>
    <line x1="529.0467" x2="525.5489" y1="611.9491" y2="624.37"/>
    <line x1="524.688" x2="528.6854" y1="626.0427" y2="611.8473"/>
    <line x1="528.3242" x2="523.8271" y1="611.7456" y2="627.7154"/>
    <line x1="522.9662" x2="527.963" y1="629.3881" y2="611.6439"/>
    <line x1="527.6018" x2="522.1053" y1="611.5422" y2="631.0607"/>
    <line x1="521.2444" x2="527.2405" y1="632.7334" y2="611.4405"/>
    <line x1="526.8793" x2="520.3835" y1="611.3387" y2="634.4061"/>
    <line x1="519.6611" x2="526.1569" y1="634.2027" y2="611.1353"/>
    <line x1="525.7957" x2="519.7996" y1="611.0336" y2="632.3266"/>
    <line x1="519.938" x2="525.4344" y1="630.4504" y2="610.9319"/>
    <line x1="525.0732" x2="520.0765" y1="610.8301" y2="628.5743"/>
    <line x1="520.2149" x2="524.712" y1="626.6982" y2="610.7284"/>
    <line x1="524.3508" x2="520.3534" y1="610.6267" y2="624.822"/>
    <line x1="520.4918" x2="523.9895" y1="622.9459" y2="610.525"/>
    <line x1="523.6283" x2="520.6303" y1="610.4233" y2="621.0698"/>
    <line x1="520.7687" x2="523.2671" y1="619.1936" y2="610.3215"/>
    <line x1="522.9059" x2="520.9072" y1="610.2198" y2="617.3175"/>
    <line x1="521.0456" x2="522.5446" y1="615.4413" y2="610.1181"/>
    <line x1="522.1834" x2="521.1841" y1="610.0164" y2="613.5652"/>
    <line x1="521.3225" x2="521.8222" y1="611.6891" y2="609.9147"/>
    <polygon points="521.461,609.8129 519.5227,636.0788 531.5752,612.6611"/>
    <line x1="526.5181" x2="519.5227" y1="611.237" y2="636.0788"/>
    <line x1="513.7283" x2="495.0934" y1="631.2543" y2="645.5009"/>
    <line x1="495.324" x2="512.4059" y1="645.8025" y2="632.743"/>
    <line x1="511.0836" x2="495.5545" y1="634.2318" y2="646.104"/>
    <line x1="495.785" x2="509.7612" y1="646.4055" y2="635.7206"/>
    <line x1="508.4388" x2="496.0156" y1="637.2093" y2="646.7071"/>
    <line x1="496.2461" x2="507.1165" y1="647.0086" y2="638.6981"/>
    <line x1="505.7941" x2="496.4767" y1="640.1869" y2="647.3102"/>
    <line x1="496.7072" x2="504.4717" y1="647.6117" y2="641.6756"/>
    <line x1="503.1494" x2="496.9377" y1="643.1644" y2="647.9133"/>
    <line x1="497.1683" x2="501.827" y1="648.2148" y2="644.6532"/>
    <line x1="500.5046" x2="497.3988" y1="646.1419" y2="648.5164"/>
    <line x1="497.6293" x2="499.1822" y1="648.8179" y2="647.6307"/>
    <line x1="494.8629" x2="515.0507" y1="645.1994" y2="629.7655"/>
    <line x1="514.3591" x2="494.1713" y1="628.8609" y2="644.2947"/>
    <line x1="494.4018" x2="516.1425" y1="644.5963" y2="627.9752"/>
    <line x1="516.373" x2="494.6324" y1="628.2767" y2="644.8978"/>
    <line x1="493.9407" x2="512.5756" y1="643.9932" y2="629.7465"/>
    <line x1="510.7922" x2="493.7102" y1="630.6322" y2="643.6916"/>
    <line x1="493.4797" x2="509.0087" y1="643.3901" y2="631.5179"/>
    <line x1="507.2253" x2="493.2491" y1="632.4035" y2="643.0885"/>
    <line x1="493.0186" x2="505.4418" y1="642.787" y2="633.2892"/>
    <line x1="503.6584" x2="492.7881" y1="634.1749" y2="642.4854"/>
    <line x1="492.5575" x2="501.875" y1="642.1839" y2="635.0606"/>
    <line x1="500.0915" x2="492.327" y1="635.9462" y2="641.8823"/>
    <line x1="492.0964" x2="498.3081" y1="641.5808" y2="636.8319"/>
    <line x1="496.5246" x2="491.8659" y1="637.7176" y2="641.2792"/>
    <line x1="491.6354" x2="494.7412" y1="640.9777" y2="638.6033"/>
    <line x1="492.9577" x2="491.4048" y1="639.4889" y2="640.6762"/>
    <polygon points="517.0342,627.5323 491.1743,640.3746 497.8599,649.1195"/>
    <polygon points="560.8102,641.4119 563.2375,649.037 572.5463,641.875"/>
    <line x1="560.9258" x2="561.928" y1="641.775" y2="641.456"/>
    <line x1="561.0414" x2="563.0457" y1="642.1381" y2="641.5001"/>
    <line x1="564.1634" x2="561.157" y1="641.5442" y2="642.5012"/>
    <line x1="561.2726" x2="565.2811" y1="642.8643" y2="641.5883"/>
    <line x1="566.3988" x2="561.3882" y1="641.6324" y2="643.2274"/>
    <line x1="561.5037" x2="567.5166" y1="643.5905" y2="641.6765"/>
    <line x1="568.6343" x2="561.6193" y1="641.7206" y2="643.9536"/>
    <line x1="561.7349" x2="569.752" y1="644.3167" y2="641.7647"/>
    <line x1="570.8697" x2="561.8505" y1="641.8088" y2="644.6798"/>
    <line x1="561.9661" x2="571.9874" y1="645.0429" y2="641.8529"/>
    <line x1="572.103" x2="562.0816" y1="642.216" y2="645.406"/>
    <line x1="562.1972" x2="571.2164" y1="645.7691" y2="642.8981"/>
    <line x1="570.3299" x2="562.3128" y1="643.5802" y2="646.1322"/>
    <line x1="562.4284" x2="569.4433" y1="646.4953" y2="644.2623"/>
    <line x1="568.5568" x2="562.544" y1="644.9444" y2="646.8584"/>
    <line x1="562.6596" x2="567.6702" y1="647.2215" y2="645.6265"/>
    <line x1="566.7837" x2="562.7751" y1="646.3086" y2="647.5846"/>
    <line x1="562.8907" x2="565.8971" y1="647.9477" y2="646.9907"/>
    <line x1="565.0106" x2="563.0063" y1="647.6728" y2="648.3108"/>
    <line x1="563.1219" x2="564.124" y1="648.6739" y2="648.3549"/>
    <line x1="585.2934" x2="568.2783" y1="673.7453" y2="682.8755"/>
    <line x1="569.3512" x2="586.3664" y1="684.875" y2="675.7449"/>
    <polygon points="586.5452,676.0781 585.1146,673.4121 517.7693,711.2657"/>
    <line x1="586.1875" x2="552.1572" y1="675.4116" y2="693.6719"/>
    <line x1="551.442" x2="585.4723" y1="692.3389" y2="674.0786"/>
    <line x1="585.6511" x2="534.6056" y1="674.4118" y2="701.8023"/>
    <line x1="534.9633" x2="586.0087" y1="702.4688" y2="675.0783"/>
    <line x1="585.8299" x2="517.7693" y1="674.7451" y2="711.2657"/>
    <polygon points="484.9057,718.407 483.4347,715.063 481.1092,717.8804"/>
    <line x1="484.5261" x2="484.6115" y1="718.3543" y2="717.7382"/>
    <line x1="484.3173" x2="484.1464" y1="717.0694" y2="718.3017"/>
    <line x1="483.7668" x2="484.0231" y1="718.249" y2="716.4006"/>
    <line x1="483.7289" x2="483.3871" y1="715.7318" y2="718.1964"/>
    <line x1="483.0075" x2="483.4347" y1="718.1437" y2="715.063"/>
    <line x1="482.9696" x2="482.6278" y1="715.6265" y2="718.091"/>
    <line x1="482.2482" x2="482.5045" y1="718.0384" y2="716.19"/>
    <line x1="482.0394" x2="481.8685" y1="716.7535" y2="717.9857"/>
    <line x1="481.4889" x2="481.5743" y1="717.9331" y2="717.317"/>
    <polygon points="488.0445,750.1213 408.0472,652.1851 298.705,741.4993 378.7023,839.4354"/>
    <polygon points="377.7755,650.6606 376.9892,643.8183 371.2287,648.5219"/>
    <line x1="377.7755" x2="374.109" y1="650.6606" y2="646.1701"/>
    <line x1="373.8209" x2="377.1208" y1="646.4053" y2="650.4467"/>
    <line x1="376.4661" x2="373.5329" y1="650.2329" y2="646.6405"/>
    <line x1="373.2449" x2="375.8115" y1="646.8757" y2="650.019"/>
    <line x1="375.1568" x2="372.9568" y1="649.8051" y2="647.1108"/>
    <line x1="372.6688" x2="374.5021" y1="647.346" y2="649.5913"/>
    <line x1="373.8474" x2="372.3808" y1="649.3774" y2="647.5812"/>
    <line x1="372.0928" x2="373.1927" y1="647.8164" y2="649.1635"/>
    <line x1="372.538" x2="371.8047" y1="648.9497" y2="648.0516"/>
    <line x1="371.5167" x2="371.8834" y1="648.2867" y2="648.7358"/>
    <line x1="374.397" x2="377.6969" y1="645.9349" y2="649.9764"/>
    <line x1="377.6183" x2="374.685" y1="649.2921" y2="645.6998"/>
    <line x1="374.973" x2="377.5396" y1="645.4646" y2="648.6079"/>
    <line x1="377.461" x2="375.2611" y1="647.9237" y2="645.2294"/>
    <line x1="375.5491" x2="377.3824" y1="644.9942" y2="647.2395"/>
    <line x1="377.3037" x2="375.8371" y1="646.5552" y2="644.759"/>
    <line x1="376.1251" x2="377.2251" y1="644.5239" y2="645.871"/>
    <line x1="377.1465" x2="376.4132" y1="645.1868" y2="644.2887"/>
    <line x1="376.7012" x2="377.0679" y1="644.0535" y2="644.5025"/>
    <polygon points="326.371,447.7648 349.9735,373.712 223.0487,333.258 199.4462,407.3108"/>
    <line x1="274.84" x2="280.1082" y1="403.3643" y2="371.5043"/>
    <line x1="278.6741" x2="273.4059" y1="371.2672" y2="403.1272"/>
    <polygon points="273.0474,403.0679 275.1986,403.4236 289.9274,307.6656"/>
    <line x1="273.7644" x2="284.3007" y1="403.1865" y2="339.4664"/>
    <line x1="285.0178" x2="274.4815" y1="339.585" y2="403.3051"/>
    <line x1="274.123" x2="289.9274" y1="403.2458" y2="307.6656"/>
    <line x1="192.4533" x2="179.0985" y1="349.857" y2="346.3439"/>
    <line x1="179.1934" x2="191.3341" y1="345.983" y2="349.1768"/>
    <line x1="191.0493" x2="178.9086" y1="350.2594" y2="347.0657"/>
    <line x1="178.8137" x2="189.7403" y1="347.4266" y2="350.3009"/>
    <line x1="188.4313" x2="178.7188" y1="350.3425" y2="347.7875"/>
    <line x1="178.6238" x2="187.1223" y1="348.1484" y2="350.384"/>
    <line x1="185.8133" x2="178.5289" y1="350.4255" y2="348.5093"/>
    <line x1="178.4339" x2="184.5043" y1="348.8702" y2="350.467"/>
    <line x1="183.1953" x2="178.339" y1="350.5085" y2="349.231"/>
    <line x1="178.2441" x2="181.8863" y1="349.5919" y2="350.5501"/>
    <line x1="180.5773" x2="178.1491" y1="350.5916" y2="349.9528"/>
    <line x1="178.0542" x2="179.2683" y1="350.3137" y2="350.6331"/>
    <polygon points="177.9593,350.6746 193.0128,350.1971 180.1428,342.3741"/>
    <line x1="179.0036" x2="192.3583" y1="346.7048" y2="350.2179"/>
    <line x1="190.215" x2="179.2884" y1="348.4965" y2="345.6221"/>
    <line x1="179.3833" x2="189.0959" y1="345.2612" y2="347.8162"/>
    <line x1="187.9767" x2="179.4782" y1="347.136" y2="344.9004"/>
    <line x1="179.5732" x2="186.8576" y1="344.5395" y2="346.4557"/>
    <line x1="185.7385" x2="179.6681" y1="345.7754" y2="344.1786"/>
    <line x1="179.763" x2="184.6193" y1="343.8177" y2="345.0952"/>
    <line x1="183.5002" x2="179.858" y1="344.4149" y2="343.4568"/>
    <line x1="179.9529" x2="182.3811" y1="343.0959" y2="343.7346"/>
    <line x1="181.2619" x2="180.0479" y1="343.0544" y2="342.735"/>
    <line x1="188.5322" x2="188.0107" y1="378.6597" y2="378.9333"/>
    <line x1="188.1849" x2="189.228" y1="379.2653" y2="378.7181"/>
    <line x1="189.9237" x2="188.3591" y1="378.7764" y2="379.5974"/>
    <line x1="188.5333" x2="190.6194" y1="379.9294" y2="378.8348"/>
    <line x1="191.3152" x2="188.7075" y1="378.8932" y2="380.2614"/>
    <line x1="188.8817" x2="192.0109" y1="380.5934" y2="378.9515"/>
    <line x1="192.7067" x2="189.0559" y1="379.0099" y2="380.9254"/>
    <line x1="189.2301" x2="193.4024" y1="381.2574" y2="379.0683"/>
    <line x1="194.0981" x2="189.4043" y1="379.1266" y2="381.5894"/>
    <line x1="189.5785" x2="194.7939" y1="381.9214" y2="379.185"/>
    <line x1="194.4466" x2="189.7527" y1="379.7906" y2="382.2534"/>
    <line x1="189.9269" x2="194.0992" y1="382.5855" y2="380.3963"/>
    <line x1="193.7519" x2="190.1011" y1="381.002" y2="382.9175"/>
    <line x1="190.2753" x2="193.4046" y1="383.2495" y2="381.6076"/>
    <line x1="193.0572" x2="190.4495" y1="382.2133" y2="383.5815"/>
    <line x1="190.6237" x2="192.7099" y1="383.9135" y2="382.8189"/>
    <line x1="192.3626" x2="190.7979" y1="383.4246" y2="384.2455"/>
    <line x1="190.9721" x2="192.0152" y1="384.5775" y2="384.0302"/>
    <line x1="191.6679" x2="191.1464" y1="384.6359" y2="384.9095"/>
    <polygon points="191.3206,385.2416 194.7939,379.185 187.8365,378.6013"/>
    <polygon points="153.4906,373.2392 209.749,433.9934 234.1473,411.4005 177.889,350.6464"/>
    <polygon points="205.1846,436.4035 203.3708,447.2128 234.8906,446.9451"/>
    <line x1="205.122" x2="207.2333" y1="436.7763" y2="437.1306"/>
    <line x1="205.0595" x2="209.282" y1="437.149" y2="437.8576"/>
    <line x1="211.3307" x2="204.9969" y1="438.5846" y2="437.5217"/>
    <line x1="204.9344" x2="213.3793" y1="437.8945" y2="439.3116"/>
    <line x1="215.428" x2="204.8718" y1="440.0386" y2="438.2672"/>
    <line x1="204.8093" x2="217.4767" y1="438.6399" y2="440.7656"/>
    <line x1="219.5254" x2="204.7468" y1="441.4926" y2="439.0127"/>
    <line x1="204.6842" x2="221.5741" y1="439.3854" y2="442.2196"/>
    <line x1="223.6228" x2="204.6217" y1="442.9466" y2="439.7581"/>
    <line x1="204.5591" x2="225.6715" y1="440.1309" y2="443.6736"/>
    <line x1="227.7202" x2="204.4966" y1="444.4006" y2="440.5036"/>
    <line x1="204.434" x2="229.7689" y1="440.8763" y2="445.1276"/>
    <line x1="229.4562" x2="204.1213" y1="446.9912" y2="442.74"/>
    <line x1="204.0588" x2="227.2824" y1="443.1127" y2="447.0097"/>
    <line x1="225.1086" x2="203.9962" y1="447.0282" y2="443.4855"/>
    <line x1="203.9337" x2="222.9348" y1="443.8582" y2="447.0466"/>
    <line x1="220.761" x2="203.8711" y1="447.0651" y2="444.2309"/>
    <line x1="203.8086" x2="218.5872" y1="444.6037" y2="447.0836"/>
    <line x1="216.4135" x2="203.746" y1="447.102" y2="444.9764"/>
    <line x1="203.6835" x2="214.2397" y1="445.3491" y2="447.1205"/>
    <line x1="212.0659" x2="203.6209" y1="447.1389" y2="445.7219"/>
    <line x1="203.5584" x2="209.8921" y1="446.0946" y2="447.1574"/>
    <line x1="207.7183" x2="203.4959" y1="447.1759" y2="446.4673"/>
    <line x1="203.4333" x2="205.5445" y1="446.8401" y2="447.1943"/>
    <line x1="204.1838" x2="231.6299" y1="442.3673" y2="446.9728"/>
    <line x1="231.8176" x2="204.3715" y1="445.8546" y2="441.2491"/>
    <line x1="204.3089" x2="233.8663" y1="441.6218" y2="446.5816"/>
    <line x1="233.8037" x2="204.2464" y1="446.9543" y2="441.9945"/>
    <polygon points="223.7464,478.9354 201.159,512.4855 201.9743,513.0202"/>
    <line x1="216.2173" x2="201.4307" y1="490.1187" y2="512.6637"/>
    <line x1="201.7025" x2="216.489" y1="512.842" y2="490.297"/>
    <line x1="170.348" x2="163.2971" y1="500.4048" y2="512.6768"/>
    <line x1="163.6245" x2="170.2053" y1="512.8648" y2="501.411"/>
    <line x1="169.5506" x2="162.9698" y1="501.0348" y2="512.4887"/>
    <line x1="162.6425" x2="168.7532" y1="512.3006" y2="501.6649"/>
    <line x1="167.9558" x2="162.3151" y1="502.2949" y2="512.1125"/>
    <line x1="161.9878" x2="167.1584" y1="511.9245" y2="502.925"/>
    <line x1="166.361" x2="161.6604" y1="503.5551" y2="511.7364"/>
    <line x1="161.3331" x2="165.5636" y1="511.5483" y2="504.1851"/>
    <line x1="164.7662" x2="161.0058" y1="504.8152" y2="511.3603"/>
    <line x1="160.6784" x2="163.9688" y1="511.1722" y2="505.4453"/>
    <line x1="163.1714" x2="160.3511" y1="506.0753" y2="510.9841"/>
    <line x1="160.0238" x2="162.374" y1="510.796" y2="506.7054"/>
    <line x1="161.5767" x2="159.6964" y1="507.3354" y2="510.608"/>
    <line x1="159.3691" x2="160.7793" y1="510.4199" y2="507.9655"/>
    <line x1="159.9819" x2="159.0417" y1="508.5956" y2="510.2318"/>
    <line x1="158.7144" x2="159.1845" y1="510.0438" y2="509.2256"/>
    <line x1="163.9518" x2="170.0626" y1="513.0529" y2="502.4172"/>
    <line x1="169.9198" x2="164.2792" y1="503.4234" y2="513.241"/>
    <line x1="164.6065" x2="169.7771" y1="513.429" y2="504.4296"/>
    <line x1="169.6344" x2="164.9338" y1="505.4358" y2="513.6171"/>
    <line x1="165.2612" x2="169.4917" y1="513.8052" y2="506.442"/>
    <line x1="169.349" x2="165.5885" y1="507.4482" y2="513.9933"/>
    <line x1="165.9158" x2="169.2062" y1="514.1813" y2="508.4544"/>
    <line x1="169.0635" x2="166.2432" y1="509.4606" y2="514.3694"/>
    <line x1="166.5705" x2="168.9208" y1="514.5575" y2="510.4668"/>
    <line x1="168.7781" x2="166.8979" y1="511.473" y2="514.7456"/>
    <line x1="167.2252" x2="168.6354" y1="514.9336" y2="512.4792"/>
    <line x1="168.4926" x2="167.5525" y1="513.4854" y2="515.1217"/>
    <line x1="167.8799" x2="168.3499" y1="515.3098" y2="514.4916"/>
    <polygon points="168.2072,515.4978 170.348,500.4048 158.3871,509.8557"/>
    <polygon points="438.7407,364.3982 444.9706,369.1507 448.6489,362.232"/>
    <line x1="439.1076" x2="439.2021" y1="364.318" y2="364.7502"/>
    <line x1="439.4746" x2="439.6636" y1="364.2377" y2="365.1023"/>
    <line x1="440.1251" x2="439.8416" y1="365.4543" y2="364.1575"/>
    <line x1="440.2086" x2="440.5866" y1="364.0773" y2="365.8063"/>
    <line x1="441.048" x2="440.5755" y1="366.1584" y2="363.9971"/>
    <line x1="440.9425" x2="441.5095" y1="363.9168" y2="366.5104"/>
    <line x1="441.971" x2="441.3095" y1="366.8624" y2="363.8366"/>
    <line x1="441.6764" x2="442.4325" y1="363.7564" y2="367.2145"/>
    <line x1="442.8939" x2="442.0434" y1="367.5665" y2="363.6761"/>
    <line x1="442.4104" x2="443.3554" y1="363.5959" y2="367.9186"/>
    <line x1="443.8169" x2="442.7773" y1="368.2706" y2="363.5157"/>
    <line x1="443.1443" x2="444.2784" y1="363.4355" y2="368.6226"/>
    <line x1="444.7398" x2="443.5113" y1="368.9747" y2="363.3552"/>
    <line x1="443.8783" x2="445.1068" y1="363.275" y2="368.8944"/>
    <line x1="445.3793" x2="444.2452" y1="368.3819" y2="363.1948"/>
    <line x1="444.6122" x2="445.6517" y1="363.1145" y2="367.8694"/>
    <line x1="445.9242" x2="444.9792" y1="367.357" y2="363.0343"/>
    <line x1="445.3461" x2="446.1967" y1="362.9541" y2="366.8445"/>
    <line x1="446.4691" x2="445.7131" y1="366.332" y2="362.8739"/>
    <line x1="446.0801" x2="446.7416" y1="362.7936" y2="365.8195"/>
    <line x1="447.0141" x2="446.4471" y1="365.307" y2="362.7134"/>
    <line x1="446.814" x2="447.2865" y1="362.6332" y2="364.7945"/>
    <line x1="447.559" x2="447.181" y1="364.282" y2="362.5529"/>
    <line x1="447.548" x2="447.8315" y1="362.4727" y2="363.7695"/>
    <line x1="448.1039" x2="447.9149" y1="363.257" y2="362.3925"/>
    <line x1="448.2819" x2="448.3764" y1="362.3123" y2="362.7445"/>
    <polygon points="439.4411,348.2579 437.3446,346.1363 434.5959,344.9785 431.6132,344.9606 428.8508,346.0856 426.7292,348.182 425.5713,350.9308 425.5535,353.9134 426.6785,356.6758 428.7749,358.7974 431.5237,359.9553 434.5063,359.9731 437.2687,358.8482 439.3903,356.7517 440.5482,354.003 440.566,351.0203"/>
    <polygon points="423.6789,295.9411 413.9627,283.0843 409.5029,288.2765"/>
    <line x1="423.6789" x2="411.7328" y1="295.9411" y2="285.6804"/>
    <line x1="411.485" x2="422.1038" y1="285.9689" y2="295.0895"/>
    <line x1="422.5994" x2="411.9806" y1="294.5125" y2="285.3919"/>
    <line x1="412.2283" x2="421.5198" y1="285.1035" y2="293.084"/>
    <line x1="420.5287" x2="411.2373" y1="294.2378" y2="286.2573"/>
    <line x1="410.9895" x2="418.9536" y1="286.5458" y2="293.3862"/>
    <line x1="417.3785" x2="410.7418" y1="292.5346" y2="286.8342"/>
    <line x1="410.494" x2="415.8034" y1="287.1227" y2="291.683"/>
    <line x1="414.2283" x2="410.2462" y1="290.8314" y2="287.4112"/>
    <line x1="409.9985" x2="412.6532" y1="287.6996" y2="289.9798"/>
    <line x1="411.0781" x2="409.7507" y1="289.1282" y2="287.9881"/>
    <line x1="412.4761" x2="420.4402" y1="284.815" y2="291.6555"/>
    <line x1="419.3606" x2="412.7238" y1="290.2269" y2="284.5266"/>
    <line x1="412.9716" x2="418.281" y1="284.2381" y2="288.7984"/>
    <line x1="417.2014" x2="413.2194" y1="287.3699" y2="283.9496"/>
    <line x1="413.4671" x2="416.1218" y1="283.6612" y2="285.9413"/>
    <line x1="415.0422" x2="413.7149" y1="284.5128" y2="283.3727"/>
    <line x1="505.1681" x2="489.5276" y1="408.8614" y2="421.3251"/>
    <line x1="489.9899" x2="505.6303" y1="421.9052" y2="409.4415"/>
    <line x1="505.3992" x2="474.1183" y1="409.1515" y2="434.0788"/>
    <polygon points="474.1183,434.0788 505.8614,409.7315 504.937,408.5714"/>
    <polygon points="652.5709,796.2737 574.6756,502.5102 448.9328,535.8525 526.8281,829.6161"/>
  </g>
</svg>
