<?xml version="1.0" encoding="utf-8" ?>
<svg xmlns="http://www.w3.org/2000/svg" xmlns:cc="http://creativecommons.org/ns" xmlns:dc="http://purl.org/dc/elements/1.1/" xmlns:ev="http://www.w3.org/2001/xml-events" xmlns:inkscape="http://www.inkscape.org/namespaces/inkscape" xmlns:rdf="http://www.w3.org/1999/02/22-rdf-syntax-ns" xmlns:sodipodi="http://sodipodi.sourceforge.net/DTD/sodipodi-0.dtd" xmlns:xlink="http://www.w3.org/1999/xlink" baseProfile="tiny" height="29.7cm" version="1.2" viewBox="0 0 793.7007874015749 1122.5196850393702" width="21.0cm">
  <metadata>
    <rdf:RDF>
      <cc:Work>
        <dc:format>image/svg+xml</dc:format>
        <dc:source>vsk save -s 42 -c C:\Users\marti\Documents\git\putti-plotter-plot\sixfeet\config\1.json C:\Users\marti\Documents\git\putti-plotter-plot\sixfeet\sketch_sixfeet.py</dc:source>
        <dc:date>2023-11-19T17:46:23.591446</dc:date>
      </cc:Work>
    </rdf:RDF>
  </metadata>
  <defs/>
  <g fill="none" id="layer1" inkscape:groupmode="layer" inkscape:label="1" stroke="#0000ff" style="display:inline">
    <polygon points="195.3615,401.8877 192.7249,406.4547 191.1445,411.0907 190.4422,416.3172 190.7429,421.2059 192.0804,426.307 194.4152,431.0355 197.3936,434.9238 201.3507,438.4096 205.5837,440.8737 210.2022,442.5043 215.4208,443.2631 220.6855,442.9584 225.4278,441.7332 230.1813,439.4498 234.1017,436.5138 237.6301,432.5946 240.1399,428.3886 241.9135,423.4223 242.6534,418.201 242.3297,412.9374 241.0874,408.1996 238.7869,403.4544 235.5802,399.2679 231.598,395.8108 227.3473,393.3774 222.3498,391.6938 217.4931,391.0591 212.6033,391.3421 207.4975,392.6612 202.7606,394.9789 198.8615,397.9432"/>
    <polygon points="188.5481,395.5555 188.2757,401.2134 188.5909,407.247 189.4514,412.8457 190.8503,418.3347 192.7747,423.6622 195.2062,428.7783 198.3331,433.9479 201.9775,438.7667 205.8296,442.9198 210.0659,446.68 214.6468,450.012 219.5289,452.8843 224.6665,455.27 230.0111,457.1466 235.8834,458.5673 241.4947,459.3414 247.1547,459.568 253.1854,459.204 258.777,458.2983 264.2545,456.855 269.5663,454.8876 274.6625,452.4147 279.495,449.4596 284.0185,446.0501 288.1902,442.2183 291.9709,438.0002 295.5327,433.12 298.3971,428.2332 300.7745,423.0918 302.6425,417.7442 303.9834,412.2407 304.7846,406.6332 305.0387,400.9745 304.7432,395.3177 303.9008,389.7163 302.5196,384.2228 300.6126,378.889 298.019,373.4322 295.0874,368.5854 291.6999,364.0455 287.62,359.5893 283.3959,355.8154 278.8258,352.4687 273.953,349.5805 268.8232,347.1782 263.4847,345.2843 257.617,343.8446 252.0082,343.0524 246.349,342.8075 240.6928,343.1122 235.0927,343.9636 229.6014,345.3537 223.9223,347.4154 218.8182,349.8717 213.9761,352.8112 209.4417,356.2061 204.9921,360.2931 201.225,364.5234 197.8857,369.0988 195.0054,373.9764 192.6114,379.11 190.7262,384.4516 189.3675,389.9507"/>
    <line x1="229.3433" x2="361.1435" y1="367.7733" y2="465.0356"/>
    <line x1="360.9152" x2="251.0817" y1="465.3449" y2="384.293"/>
    <line x1="251.5382" x2="361.3717" y1="383.6744" y2="464.7263"/>
    <line x1="361.6" x2="273.7332" y1="464.417" y2="399.5755"/>
    <line x1="272.8202" x2="360.687" y1="400.8127" y2="465.6542"/>
    <line x1="360.4587" x2="294.5586" y1="465.9636" y2="417.3324"/>
    <line x1="295.9282" x2="361.8283" y1="415.4765" y2="464.1077"/>
    <line x1="362.0565" x2="318.1231" y1="463.7983" y2="431.3776"/>
    <line x1="316.297" x2="360.2304" y1="433.8521" y2="466.2729"/>
    <line x1="360.0022" x2="338.0355" y1="466.5822" y2="450.3718"/>
    <line x1="340.3181" x2="362.2848" y1="447.2787" y2="463.489"/>
    <polygon points="362.513,463.1797 229.3433,367.7733 359.7739,466.8915"/>
    <line x1="370.7635" x2="388.5227" y1="459.5148" y2="477.0952"/>
    <line x1="388.785" x2="353.2667" y1="476.8302" y2="441.6693"/>
    <line x1="356.1526" x2="391.6709" y1="438.7541" y2="473.915"/>
    <line x1="391.4085" x2="338.1311" y1="474.18" y2="421.4387"/>
    <line x1="335.7699" x2="389.0474" y1="423.8238" y2="476.5652"/>
    <line x1="389.3097" x2="318.2731" y1="476.3002" y2="405.9784"/>
    <line x1="320.1096" x2="391.1462" y1="404.1233" y2="474.445"/>
    <line x1="390.8838" x2="302.0881" y1="474.7101" y2="386.8078"/>
    <line x1="300.7763" x2="389.5721" y1="388.1329" y2="476.0351"/>
    <line x1="389.8344" x2="283.2795" y1="475.7701" y2="370.2874"/>
    <line x1="284.0666" x2="390.6215" y1="369.4924" y2="474.9751"/>
    <line x1="390.3591" x2="266.0451" y1="475.2401" y2="352.177"/>
    <line x1="265.7827" x2="390.0968" y1="352.442" y2="475.5051"/>
    <line x1="391.9332" x2="374.1741" y1="473.65" y2="456.0695"/>
    <polygon points="392.1955,473.385 257.0344,343.5192 388.2603,477.3602"/>
    <polygon points="396.0648,476.7415 394.954,481.6262 399.4455,480.079"/>
    <line x1="395.9794" x2="396.5849" y1="477.1173" y2="477.255"/>
    <line x1="397.105" x2="395.8939" y1="477.7685" y2="477.493"/>
    <line x1="395.8085" x2="397.6251" y1="477.8688" y2="478.2819"/>
    <line x1="398.1452" x2="395.723" y1="478.7954" y2="478.2445"/>
    <line x1="395.6376" x2="398.6653" y1="478.6203" y2="479.3088"/>
    <line x1="399.1854" x2="395.5521" y1="479.8223" y2="478.996"/>
    <line x1="395.4667" x2="399.1" y1="479.3718" y2="480.198"/>
    <line x1="398.409" x2="395.3812" y1="480.4361" y2="479.7475"/>
    <line x1="395.2958" x2="397.718" y1="480.1233" y2="480.6741"/>
    <line x1="397.027" x2="395.2103" y1="480.9121" y2="480.499"/>
    <line x1="395.1249" x2="396.336" y1="480.8747" y2="481.1502"/>
    <line x1="395.645" x2="395.0394" y1="481.3882" y2="481.2505"/>
    <line x1="412.1401" x2="422.5679" y1="442.0358" y2="331.6804"/>
    <polygon points="468.3672,336.3398 464.0698,339.4143 460.0991,342.9006 456.4944,346.764 453.2914,350.9665 450.5216,355.4663 448.2126,360.2191 446.3872,365.1777 445.141,369.9237 444.2949,375.1394 443.9711,380.4135 444.1728,385.6936 444.8981,390.9275 446.0341,395.701 447.7444,400.7006 449.9428,405.5055 452.4025,409.7513 455.477,414.0487 458.9632,418.0194 462.8267,421.6241 466.7186,424.6124 471.1987,427.414 475.9349,429.7567 480.8805,431.6174 485.9864,432.9775 491.2021,433.8236 496.4762,434.1474 501.7563,433.9457 506.9902,433.2204 512.1262,431.9788 516.7633,430.3741 521.5682,428.1757 526.1309,425.5108 530.4063,422.4058 534.3521,418.8914 537.6868,415.2918 540.8898,411.0893 543.6596,406.5895 545.9686,401.8367 547.794,396.8781 549.1178,391.7626 549.9269,386.541 550.2101,381.6423 550.0084,376.3622 549.2831,371.1283 548.1471,366.3548 546.4368,361.3552 544.2384,356.5503 541.7787,352.3045 538.7042,348.0071 535.218,344.0364 531.3545,340.4317 527.152,337.2287 522.6522,334.4589 517.8994,332.1499 512.9408,330.3245 507.8253,329.0007 502.6037,328.1917 497.705,327.9084 492.4249,328.1101 487.191,328.8354 482.4175,329.9714 477.4179,331.6817 472.613,333.8801"/>
    <polygon points="473.832,335.9822 469.5833,338.4436 465.5926,341.3045 461.6264,344.8013 458.2881,348.4021 455.1009,352.6211 452.5498,356.8165 450.4164,361.2391 448.7209,365.8473 447.4792,370.5979 446.7029,375.4463 446.3992,380.3471 446.5712,385.2543 447.217,390.1218 448.3307,394.904 450.0412,399.9073 452.0883,404.3704 454.7644,408.9308 457.6623,412.8946 460.9301,416.5595 464.5371,419.8911 468.4495,422.8581 472.6306,425.4327 477.0412,427.5907 481.6398,429.312 486.753,430.6587 491.6029,431.4259 496.5042,431.7204 501.4111,431.5394 506.2774,430.8845 511.0576,429.7619 516.0576,428.042 520.5169,425.9866 524.7564,423.5094 528.7364,420.6337 532.4195,417.3864 535.7712,413.7981 538.9741,409.591 541.5409,405.4051 543.6907,400.9905 545.4034,396.3887 546.6628,391.6428 547.4572,386.7973 547.7791,381.8976 547.6255,376.9898 546.9978,372.1199 545.7985,366.9701 544.21,362.324 542.1796,357.8533 539.7261,353.6 536.8727,349.604 533.3832,345.6313 529.7887,342.2863 525.5756,339.0912 521.3849,336.5323 516.9664,334.3907 512.3613,332.6866 507.6131,331.436 502.7661,330.6507 497.8659,330.3379 492.9584,330.5007 488.0896,331.1374 482.9421,332.3463 478.2989,333.9434"/>
    <polygon points="477.9353,332.782 473.1256,334.9815 468.8811,337.4524 464.5936,340.549 460.9135,343.8013 457.5573,347.3869 454.3394,351.5842 451.7481,355.7562 449.412,360.5011 447.6855,365.0989 446.3211,370.2087 445.4837,375.4308 445.1857,380.333 445.3844,385.6181 446.0497,390.4841 447.2768,395.6286 448.8796,400.271 450.914,404.7411 453.5665,409.3167 456.6709,413.5985 459.93,417.2727 463.8108,420.8657 467.7247,423.8326 472.2326,426.5985 476.6506,428.7438 481.2516,430.4619 486.3638,431.817 491.2118,432.6034 496.4902,432.9339 501.3984,432.7584 506.6397,432.0515 511.7819,430.8151 516.4214,429.2038 521.2231,426.9868 525.4585,424.5004 529.44,421.6249 533.4029,418.1225 536.9889,414.2351 539.9487,410.3158 542.5248,406.1344 544.8436,401.381 546.5534,396.7769 547.8992,391.6622 548.7175,386.4371 548.9976,381.5338 548.8131,376.626 548.0968,371.3859 546.9572,366.6086 545.2312,361.6094 543.1806,357.1467 540.5114,352.5809 537.3915,348.3104 534.1191,344.6481 530.5152,341.3115 526.3005,338.1166 521.7825,335.3671 517.3568,333.2379 512.3888,331.4239 507.6324,330.2001 502.4059,329.3912 497.502,329.12 492.5945,329.3135 487.7273,329.9698 482.9439,331.0833"/>
    <polygon points="444.6911,375.2365 444.3746,380.5126 444.5879,385.7938 445.329,391.0271 446.4833,395.7978 448.2166,400.791 450.4412,405.5856 452.9273,409.8177 455.7963,413.8002 459.2854,417.7705 463.1546,421.3714 467.3649,424.5667 471.874,427.3245 476.289,429.469 480.8843,431.1937 485.989,432.5643 491.2054,433.4169 496.4809,433.7429 501.7625,433.5391 506.9971,432.8073 512.1322,431.5551 516.7662,429.9372 521.5647,427.7212 526.1173,425.0358 530.3781,421.9081 534.0358,418.6351 537.6158,414.7466 540.7885,410.5192 543.522,405.9954 545.6428,401.5689 547.4556,396.604 548.7622,391.4825 549.5105,386.6316 549.8082,381.3544 549.5759,376.074 548.816,370.8433 547.6447,366.0768 545.8935,361.0898 543.6517,356.3032 540.9419,351.7652 538.0304,347.8137 534.4987,343.8812 530.8819,340.5631 526.6601,337.3829 522.4729,334.822 517.7185,332.5126 512.7569,330.6909 507.6377,329.3752 502.7881,328.6181 497.5115,328.311 492.6069,328.5004 487.3696,329.2133 482.2301,330.4471 477.24,332.1894 472.7839,334.2472 468.2217,336.9163 463.9498,340.0287 460.011,343.5533 456.6864,347.1642 453.4986,351.3802 450.749,355.8943 448.4652,360.661 446.7817,365.2715 445.4568,370.3883"/>
    <polygon points="445.6201,390.3843 446.8273,395.5318 448.548,400.5311 450.7645,405.3312 453.2469,409.5672 456.1156,413.5518 459.6077,417.5216 463.4826,421.1186 467.7009,424.3061 472.2194,427.0516 476.6436,429.1805 481.2479,430.8854 486.3612,432.2298 491.5841,433.0513 496.4855,433.3384 501.7687,433.1324 507.004,432.3941 511.7759,431.2385 516.769,429.4998 521.2265,427.4415 525.788,424.7682 530.0565,421.6482 533.7194,418.3788 537.3024,414.4909 540.2624,410.5737 542.8422,406.3963 545.1691,401.6487 546.8905,397.0506 548.2535,391.9421 549.0938,386.7222 549.3986,381.8219 549.2116,376.538 548.5611,371.6715 547.3539,366.524 545.7728,361.8758 543.7629,357.3962 541.1392,352.806 538.0657,348.504 534.5735,344.5342 530.6986,340.9372 526.7921,337.9631 522.624,335.3683 517.8849,333.0242 512.9334,331.1705 507.82,329.826 502.5971,329.0045 497.6957,328.7174 492.4125,328.9235 487.5484,329.5915 482.4053,330.8173 477.7628,332.4152 473.2906,334.4412 468.7098,337.0815 464.419,340.1706 460.7325,343.4134 457.1215,347.2754 453.9188,351.4821 451.157,355.9906 449.0121,360.4071 447.2907,365.0052 445.9277,370.1137 445.1299,374.9582 444.7826,380.2339 444.9696,385.5178"/>
    <polygon points="445.6686,395.8933 447.3864,400.8948 449.5893,405.7025 452.2559,410.2693 455.3602,414.5507 458.8717,418.5049 462.4672,421.8498 466.6643,425.0671 471.1584,427.8545 475.9056,430.1848 480.8596,432.0354 485.9721,433.388 491.193,434.2296 496.4715,434.5519 501.756,434.3518 506.9951,433.6312 512.1374,432.3972 516.782,430.802 521.5974,428.616 526.1735,425.9655 530.4659,422.8764 534.4324,419.3789 538.0345,415.507 541.2369,411.2985 543.8254,407.1252 546.1724,402.3862 548.0405,397.4388 549.4112,392.3312 550.2712,387.1133 550.6121,381.8359 550.4307,376.5507 549.7285,371.3092 548.5127,366.1625 546.7948,361.161 544.5919,356.3533 541.9253,351.7865 539.0567,347.8006 535.5731,343.8217 531.714,340.206 527.5169,336.9887 523.0228,334.2013 518.2756,331.871 513.3216,330.0204 508.2092,328.6678 502.9882,327.8262 497.7097,327.5039 492.4252,327.704 487.1862,328.4246 482.0438,329.6586 477.3992,331.2538 472.5839,333.4398 468.0077,336.0903 463.7153,339.1794 459.7488,342.677 456.1467,346.5489 452.9443,350.7573 450.1728,355.2612 447.8592,360.0166 446.0262,364.9771 444.6915,370.0942 443.8684,375.3181 443.5691,380.2199 443.7506,385.5051 444.4527,390.7466"/>
    <polygon points="448.9076,395.4369 450.5407,400.063 452.6169,404.5079 455.1162,408.7294 458.015,412.6873 461.2856,416.344 464.8969,419.6646 468.8146,422.6175 473.0013,425.1746 477.4173,427.3117 482.0205,429.0083 486.7671,430.2483 491.612,431.02 496.5089,431.3159 501.4114,431.1333 506.2728,430.474 511.0468,429.344 515.688,427.7543 520.1523,425.72 524.3971,423.2604 528.382,420.3989 532.0692,417.1627 535.4235,413.5827 538.413,409.6929 541.0093,405.5303 543.1877,401.1346 545.0426,396.188 546.2916,391.4437 547.0723,386.6004 547.3775,381.704 547.2041,376.8011 546.4842,371.5674 545.3274,366.7999 543.7116,362.1677 541.6522,357.715 539.1687,353.4841 536.2848,349.5154 533.0279,345.8465 529.4291,342.5124 525.5225,339.5448 521.3454,336.9719 516.9375,334.8183 512.3407,333.1044 507.5988,331.8466 502.7569,331.0567 497.861,330.7424 492.9579,330.9066 488.094,331.5477 483.3158,332.6597 478.6687,334.232 473.8614,336.4227 469.6258,338.8982 465.6517,341.7747 461.9767,345.0246 458.6358,348.6172 455.448,352.83 452.8988,357.0215 450.77,361.4415 449.082,366.0479 447.8509,370.7968 447.0883,375.6431 446.8016,380.5406 447.0279,385.8187 447.7329,390.6737"/>
    <polygon points="451.9116,394.1826 453.3856,398.4654 455.2646,402.5866 457.7369,406.8247 460.3995,410.4889 463.402,413.8801 466.7166,416.9669 470.6241,419.9344 474.4873,422.2987 478.5601,424.2807 483.1647,425.9752 487.5507,427.1059 492.025,427.8096 496.5464,428.0799 501.0727,427.9143 505.9333,427.2447 510.3359,426.1804 514.6157,424.6978 518.7332,422.8105 522.6501,420.5361 526.3302,417.8957 529.7395,414.9136 532.8462,411.6176 535.6216,408.0382 538.04,404.2085 540.2311,399.8184 541.9533,395.2241 543.1103,390.845 543.841,386.3749 544.1385,381.8553 544.0001,377.328 543.4271,372.8351 542.4247,368.418 540.8652,363.7659 538.8297,359.3015 536.5475,355.3892 533.8996,351.7144 530.9108,348.3111 527.6085,345.2111 523.713,342.228 519.8593,339.8481 515.7945,337.8498 511.5565,336.2515 507.1845,335.0681 502.3438,334.2669 497.8236,333.9784 492.9204,334.1579 488.4334,334.776 484.0266,335.8226 479.7408,337.288 475.6158,339.1588 471.6898,341.4174 467.9991,344.0431 464.3061,347.2734 461.2126,350.5819 458.2373,354.4834 455.8652,358.3419 453.875,362.4106 452.2853,366.6519 451.1106,371.0263 450.362,375.4934 450.0398,380.3893 450.1963,384.9159 450.7874,389.4066"/>
    <polygon points="461.7937,408.9932 464.7828,412.3988 468.099,415.4868 471.7087,418.2259 475.5754,420.5883 479.3122,422.4025 483.5602,423.9797 487.9452,425.122 492.0471,425.7771 496.5698,426.0574 500.7212,425.9138 505.2137,425.3218 509.6239,424.2812 513.9072,422.8027 517.685,421.0754 521.6053,418.803 525.2774,416.1482 528.3937,413.4015 531.4886,410.0917 534.2352,406.4878 536.6058,402.626 538.4279,398.893 539.8982,395.0079 541.0864,390.6352 541.8292,386.1652 542.1189,381.6432 541.9528,377.1149 541.4014,372.9977 540.3701,368.5854 538.9006,364.299 537.0077,360.182 534.917,356.5925 532.5045,353.2109 529.5297,349.7928 526.2265,346.6909 522.6283,343.9367 519.1019,341.7414 515.0423,339.7282 510.801,338.1332 506.4209,336.9725 501.9463,336.2579 497.8003,336.001 493.2717,336.1576 488.7818,336.7685 484.376,337.8276 480.4494,339.183 476.3284,341.0672 472.4177,343.356 469.0513,345.7897 465.652,348.7859 462.571,352.1086 460.0531,355.4125 457.6664,359.2642 455.6788,363.3364 454.1105,367.5876 452.9774,371.9749 452.3309,376.0783 452.0601,380.6015 452.2124,384.7527 452.8139,389.2439 453.8637,393.6519 455.2109,397.5813 456.9143,401.3699 459.162,405.3045"/>
    <polygon points="473.7052,424.176 477.7862,426.1496 482.3919,427.8529 487.1449,429.0874 491.9974,429.8407 496.523,430.1024 501.43,429.9135 505.922,429.3046 510.7022,428.1804 515.3462,426.5841 519.8074,424.5317 523.7245,422.2501 527.7106,419.3822 531.3902,416.1302 534.7263,412.5269 537.4721,408.9199 540.0573,404.7448 542.2123,400.3323 543.9156,395.7266 545.0721,391.3434 545.8628,386.4969 546.1651,381.5955 545.9762,376.6886 545.3673,372.1965 544.2431,367.4163 542.6468,362.7723 540.5944,358.3112 538.1065,354.0774 535.4449,350.4079 532.1929,346.7284 528.8784,343.6358 524.9826,340.6464 520.8075,338.0612 516.395,335.9062 511.7893,334.2029 507.0363,332.9684 502.1838,332.2151 497.6582,331.9534 492.7513,332.1423 488.2592,332.7512 483.479,333.8754 478.835,335.4717 474.3739,337.5241 470.1401,340.012 466.1762,342.9106 462.7911,345.9256 459.6985,349.2401 456.7091,353.1359 454.1239,357.311 451.9689,361.7235 450.2656,366.3292 449.0311,371.0822 448.2778,375.9347 448.0161,380.4603 448.205,385.3673 448.8834,390.2308 450.0443,395.0022 451.5344,399.2835 453.5868,403.7447 456.0747,407.9784 458.9733,411.9423 461.9883,415.3275 465.5916,418.6636 469.5104,421.623"/>
    <polygon points="477.4245,426.8749 482.0243,428.5853 486.7698,429.8355 491.6152,430.6134 496.5136,430.9114 501.4176,430.7268 506.2797,430.0612 511.0529,428.9211 515.6909,427.3175 520.149,425.266 524.384,422.7864 528.3548,419.9027 532.0231,416.6428 535.3533,413.0383 538.3133,409.124 540.8743,404.9379 543.0117,400.5203 544.7047,395.9141 545.8588,391.5334 546.655,386.6909 546.9716,381.7937 546.8055,376.8891 546.1583,372.0245 545.0363,367.247 543.4503,362.6029 541.4157,358.1371 538.9521,353.8928 536.0835,349.9111 532.8375,346.2305 529.2456,342.8867 525.3426,339.9119 521.1661,337.335 516.7567,335.1809 512.1569,333.4705 507.4114,332.2203 502.566,331.4424 497.6676,331.1444 492.7636,331.329 488.273,331.9265 483.4913,333.0304 478.8412,334.5988 474.3677,336.6165 470.1141,339.064 466.1216,341.9175 462.4288,345.1495 459.0713,348.7288 456.0818,352.6205 453.4891,356.7872 451.3184,361.1884 449.5906,365.7817 448.3224,370.5224 447.5262,375.3649 447.2096,380.2621 447.3757,385.1667 448.0229,390.0313 449.1449,394.8088 450.7309,399.4529 452.7655,403.9187 455.2291,408.163 458.0977,412.1447 461.3437,415.8253 464.9356,419.1692 468.8387,422.1439 473.0151,424.7208"/>
    <polygon points="482.4125,427.4352 487.1589,428.6771 492.0062,429.4349 496.5276,429.6979 501.4301,429.5074 506.2885,428.8242 511.0535,427.6554 515.3271,426.1557 519.4427,424.2653 523.6819,421.7954 527.3561,419.1473 531.0399,415.9068 534.3787,412.3119 537.1251,408.7106 539.7085,404.5396 541.859,400.1298 543.4407,395.8859 544.701,391.1444 545.4775,386.3 545.7625,381.4021 545.5529,376.5004 544.9222,372.0154 543.7719,367.246 542.2888,362.9666 540.241,358.5082 537.961,354.5949 535.0923,350.6148 531.8376,346.9436 528.519,343.8615 524.6178,340.8864 520.7675,338.5015 516.366,336.334 512.1283,334.7358 507.3916,333.4571 502.5503,332.6618 497.6536,332.3579 492.7511,332.5485 487.8927,333.2316 483.1277,334.4004 478.8541,335.9001 474.4038,337.9652 470.4993,340.2604 466.5303,343.1444 463.1413,346.149 459.8025,349.7439 456.8426,353.6566 454.2916,357.8475 452.3223,361.926 450.7405,366.1699 449.4802,370.9115 448.7037,375.7558 448.4231,380.2762 448.5639,384.8031 449.1905,389.6691 450.2011,394.084 451.7536,398.7381 453.7669,403.2122 456.2202,407.4609 459.0889,411.441 462.0803,414.8416 465.6622,418.1944 469.5634,421.1695 473.4138,423.5543 477.8152,425.7218"/>
    <polygon points="501.4238,430.3202 506.2866,429.6482 511.0589,428.4978 515.3431,427.0208 519.8105,424.9859 524.0543,422.5184 528.0328,419.6425 531.7066,416.3865 535.0398,412.7826 537.9995,408.8661 540.3747,405.0068 542.5377,400.5999 544.2533,396.0005 545.5048,391.2537 546.2798,386.4062 546.5706,381.5058 546.3745,376.6007 545.6933,371.7391 544.6397,367.3316 543.0486,362.6876 541.0052,358.2241 538.5295,353.985 535.6461,350.0121 532.3831,346.3445 528.7728,343.0182 524.8507,340.066 520.6553,337.5169 516.2281,335.3961 511.6124,333.7244 507.2239,332.5943 502.375,331.8285 497.474,331.547 492.5693,331.7526 487.7091,332.443 483.3036,333.5051 478.6626,335.105 474.203,337.1569 469.9687,339.6407 466.0013,342.5317 462.3399,345.8017 459.0205,349.4183 456.0758,353.3461 453.7153,357.2144 451.5691,361.6295 449.8711,366.2355 448.6377,370.987 447.8812,375.8374 447.6128,380.3612 447.7902,385.267 448.4528,390.1311 449.4896,394.5426 451.0629,399.1926 453.0893,403.6639 455.5487,407.9124 458.417,411.8963 461.666,415.5764 465.2635,418.9164 469.1744,421.8836 473.36,424.4486 477.7791,426.5863 482.3883,428.2756 487.1422,429.4999 491.9941,430.2471 496.5183,430.5069"/>
    <polygon points="505.5712,426.0782 509.9744,425.0218 514.2518,423.5361 518.3619,421.6356 522.2643,419.3389 525.9212,416.6685 529.2967,413.6502 532.3581,410.3137 535.0753,406.6914 537.4219,402.8188 539.3749,398.7335 540.8032,394.8359 541.9522,390.4559 542.6635,385.984 542.9301,381.4637 542.7495,376.9392 542.1234,372.4546 541.0578,368.0536 539.5633,363.7792 537.6544,359.6731 535.3497,355.7753 532.6717,352.124 529.9112,349.0239 526.5937,345.942 522.9882,343.2025 519.1301,340.832 515.057,338.8537 510.8086,337.287 506.7955,336.2254 502.3281,335.4865 497.8095,335.192 493.284,335.3446 488.7956,335.9431 484.3881,336.9814 480.1045,338.4494 475.9867,340.333 472.0748,342.6136 468.407,345.269 465.0191,348.2733 461.944,351.5971 459.2119,355.2082 456.8494,359.0712 454.8795,363.1484 453.3215,367.4 452.1906,371.7847 451.5385,375.8842 451.2533,380.4033 451.4153,384.9286 452.0229,389.4157 453.0703,393.8211 454.5472,398.1016 456.4392,402.2155 458.7278,406.1227 461.3908,409.7851 464.402,413.1668 467.7323,416.235 471.3489,418.9597 475.2168,421.3142 479.298,423.2757 483.5529,424.825 487.5702,425.87 492.0407,426.5905 496.5604,426.8664 501.0853,426.6951"/>
    <polygon points="530.0899,415.1376 533.194,411.8332 536.1841,407.9374 538.5734,404.0844 540.5841,400.0211 542.1979,395.7845 543.4813,391.0441 544.268,386.1964 544.5459,381.6713 544.3908,377.1404 543.7358,372.2731 542.6877,367.8624 541.083,363.2208 539.1832,359.1045 536.6923,354.872 534.0159,351.2127 531.0026,347.8254 527.6798,344.7412 524.0779,341.988 520.2297,339.5911 515.8237,337.4218 511.5775,335.8333 506.8295,334.5782 502.353,333.8609 497.8285,333.5739 493.2972,333.72 488.8006,334.2978 484.0159,335.4047 479.7223,336.8604 475.251,338.8917 471.3302,341.1678 467.6444,343.8077 464.2274,346.7871 460.8648,350.3666 458.1045,353.963 455.7,357.8064 453.6731,361.8617 451.9249,366.4511 450.7401,370.8271 449.9341,375.6716 449.6382,380.1956 449.7753,384.7271 450.4109,389.5969 451.4415,394.0118 453.0276,398.6597 454.911,402.7835 457.3851,407.0259 460.0469,410.6959 463.0467,414.0951 466.3572,417.1925 470.259,420.1749 474.1167,422.5565 478.5313,424.7083 482.7838,426.2798 487.1668,427.4385 492.0161,428.2155 496.5417,428.4844 501.0723,428.3203 505.5666,427.7246 510.3469,426.5987 514.6346,425.1259 518.7622,423.2507 523.0095,420.7851 526.6847,418.1306"/>
    <polygon points="533.0527,417.8992 536.3984,414.3095 539.6016,410.1067 542.176,405.9291 544.4901,401.1785 546.1927,396.5762 547.4495,391.8328 548.2492,386.9912 548.591,381.718 548.3906,376.4375 547.7209,371.5763 546.5917,366.8009 544.8734,361.8038 542.827,357.3437 540.3655,353.0986 537.5112,349.1071 534.0277,345.1335 530.4442,341.7812 526.2473,338.5703 521.7435,335.8063 517.3281,333.6654 512.3687,331.8411 507.6184,330.6104 502.7725,329.8373 497.8751,329.5289 492.5943,329.7196 487.7318,330.3803 482.9544,331.5008 478.3052,333.0709 473.4903,335.2481 469.2407,337.7019 465.2439,340.5489 461.2639,344.025 457.9051,347.6025 454.902,351.4833 452.0968,355.9616 449.9155,360.3573 448.0459,365.2997 446.7717,370.0385 445.9542,374.8771 445.5931,380.149 445.7741,385.4302 446.426,390.2938 447.5377,395.0734 449.2377,400.0767 451.4413,404.8796 453.9184,409.1156 456.7873,413.0967 460.2853,417.0575 464.1707,420.639 468.0897,423.5921 472.2721,426.1589 477.0269,428.4643 481.6323,430.1584 486.3781,431.4065 491.5964,432.239 496.4949,432.5294 501.775,432.3194 506.635,431.6408 511.4083,430.5028 516.4023,428.7754 520.8586,426.7209 525.0992,424.2516 529.0855,421.3899"/>
    <polygon points="537.5899,403.3553 539.581,399.2836 541.164,395.0366 542.3236,390.6549 543.0487,386.1808 543.3324,381.6572 543.172,377.1276 542.5688,372.6354 541.5289,368.2239 540.0621,363.9353 538.1825,359.8109 535.9082,355.8903 533.261,352.2112 530.2665,348.8089 526.9532,345.716 523.3531,342.9624 519.5007,340.5743 515.4331,338.5749 511.1893,336.9833 506.81,335.8147 502.3374,335.0804 497.8144,334.7874 493.2844,334.9387 488.791,335.5326 484.3774,336.5636 480.0858,338.0216 475.9576,339.8928 472.0324,342.159 468.3478,344.7987 464.9394,347.7863 461.8398,351.0932 459.0788,354.6877 456.6829,358.5352 454.6752,362.5987 453.0748,366.8393 451.8973,371.2162 451.1539,375.6873 450.8517,380.2097 450.9937,384.7399 451.5785,389.2345 452.6004,393.6503 454.0497,397.9448 455.9124,402.0768 458.1706,406.0067 460.8027,409.6966 463.7834,413.1111 467.084,416.2175 470.6728,418.9858 474.5154,421.3896 478.5748,423.4056 482.8121,425.0146 487.1866,426.2011 491.6561,426.9536 496.5557,427.2709 501.085,427.1012 505.576,426.4889 509.9854,425.4399 514.2709,423.9644 518.3915,422.0764 522.3074,419.7941 525.9811,417.1394 529.3773,414.1379 532.4634,410.8183 535.2097,407.2126"/>
    <polygon points="538.1026,398.6255 539.6762,394.3744 540.7329,390.3556 541.4113,386.2559 541.713,381.733 541.5544,377.2029 541.0059,373.0838 540.0766,369.0336 538.6381,364.7349 536.7711,360.6044 534.4946,356.6845 532.0682,353.311 529.0762,349.9059 526.0428,347.0657 522.4483,344.304 518.9226,342.1046 514.8616,340.0908 510.6173,338.4992 506.603,337.4255 502.1309,336.6854 497.6068,336.4029 493.4539,336.5483 488.9606,337.1467 484.9144,338.0931 480.6219,339.5497 476.4993,341.4343 472.9058,343.5212 469.2259,346.1679 466.1043,348.9108 463.0062,352.2197 460.4744,355.5149 458.0752,359.3609 456.0786,363.4303 454.505,367.6814 453.4483,371.7002 452.7699,375.7999 452.4682,380.3228 452.6268,384.8529 453.1753,388.972 454.2077,393.3858 455.5431,397.3209 457.4101,401.4514 459.6866,405.3713 462.113,408.7448 465.105,412.1499 468.1384,414.9901 471.7329,417.7518 475.5889,420.1347 479.6668,422.1141 483.5639,423.5566 487.9478,424.7093 492.426,425.4115 496.5744,425.6529 501.1039,425.4751 505.5919,424.8387 509.63,423.8581 513.91,422.3651 517.6819,420.6215 521.5921,418.3285 524.9553,415.8879 528.3478,412.8815 531.4178,409.5464 533.9215,406.2299 536.288,402.3638"/>
    <polygon points="537.7493,398.4229 539.2013,394.5338 540.3617,390.1566 541.0683,385.6836 541.3111,381.5394 541.1643,377.3907 540.5612,372.9026 539.5024,368.4997 538.1408,364.578 536.2433,360.4663 534.1428,356.8856 531.4796,353.2231 528.7209,350.121 525.6835,347.2912 522.0835,344.5441 518.5524,342.3613 514.4856,340.3692 510.5965,338.9172 506.2193,337.7569 501.7463,337.0502 497.6021,336.8074 493.4534,336.9543 488.9653,337.5573 484.5624,338.6161 480.6407,339.9777 476.864,341.7011 472.9483,343.9757 469.2857,346.6389 466.1837,349.3976 463.111,352.7241 460.6068,356.035 458.2422,359.897 456.4319,363.6329 454.9799,367.522 453.8196,371.8992 453.1129,376.3722 452.8701,380.5164 453.017,384.6652 453.62,389.1532 454.6788,393.5561 456.0404,397.4778 457.7638,401.2545 460.0384,405.1702 462.4654,408.5382 465.4603,411.9349 468.7868,415.0075 472.0977,417.5118 475.6289,419.6946 479.6956,421.6866 483.5847,423.1386 487.9619,424.299 492.4349,425.0056 496.5791,425.2484 500.7278,425.1016 505.2159,424.4985 509.6188,423.4397 513.5405,422.0781 517.3172,420.3547 521.2329,418.0801 524.8955,415.4169 527.9976,412.6582 530.8273,409.6208 533.5745,406.0208 535.7573,402.4897"/>
    <polygon points="541.6154,394.9502 542.7559,390.5652 543.4658,386.0902 543.7381,381.5675 543.5705,377.0397 542.9643,372.5495 541.9255,368.1392 540.4637,363.8506 538.4189,359.3887 536.1247,355.4815 533.4624,351.8153 530.4569,348.4247 527.1367,345.3416 523.5331,342.5951 519.68,340.2112 515.6138,338.2123 511.3729,336.6173 506.9973,335.4413 502.5282,334.6952 497.6302,334.3804 493.1024,334.5481 488.6122,335.1542 483.8394,336.2989 479.5627,337.7953 475.4514,339.6996 471.5442,341.9938 467.878,344.6561 464.4874,347.6616 461.4043,350.9818 458.6578,354.5854 456.0923,358.7697 454.1265,362.852 452.5659,367.1056 451.4253,371.4906 450.7154,375.9656 450.4431,380.4883 450.6446,385.3924 451.287,389.8775 452.3616,394.2792 453.858,398.5558 455.7623,402.6671 458.0565,406.5743 460.7188,410.2405 463.7243,413.6312 467.3344,416.9563 470.9602,419.6735 474.8324,422.0262 478.9147,423.9921 483.1683,425.5527 487.5533,426.6932 492.0283,427.4031 496.551,427.6754 501.0789,427.5078 505.569,426.9016 509.9793,425.8628 514.2679,424.401 518.7298,422.3562 522.637,420.062 526.3032,417.3997 529.6939,414.3942 532.7769,411.074 535.5234,407.4704 538.0889,403.2861 540.0548,399.2038"/>
    <polygon points="545.0171,386.7658 545.352,381.8694 545.188,376.9644 544.5952,372.4728 543.4809,367.6931 542.0263,363.4024 540.0042,358.9305 537.7434,355.0044 534.8907,351.0108 531.9099,347.599 528.3353,344.2361 524.4378,341.2535 520.2576,338.6821 516.1853,336.6966 511.9447,335.1016 507.2044,333.8306 502.7347,333.0903 497.8377,332.7649 492.933,332.9385 488.4425,333.5402 484.0283,334.5602 479.3773,336.1268 475.2455,337.9853 470.9876,340.4261 467.2959,343.0523 463.5936,346.2741 460.2377,349.8552 457.4774,353.4478 454.8815,357.6128 452.722,362.02 451.0212,366.6237 449.8736,371.0065 449.142,375.4776 448.8263,380.3752 449.0095,385.2796 449.6199,389.7688 450.7529,394.5441 452.3649,399.1796 454.2638,403.293 456.746,407.5268 459.4082,411.1926 462.6661,414.8632 465.99,417.9417 469.8992,420.909 474.0895,423.464 478.1695,425.4336 482.4163,427.012 487.1616,428.2644 492.0095,429.0285 496.5323,429.2934 501.06,429.1332 505.9244,428.4814 510.6974,427.3391 514.9795,425.8594 519.4394,423.8111 523.3522,421.5273 527.0337,418.8867 530.7233,415.6504 533.8213,412.3446 536.8114,408.4529 539.391,404.2777 541.3845,400.2092 543.1033,395.6123 544.268,391.234"/>
    <polygon points="551.2277,376.3748 550.5195,371.1373 549.3059,365.9933 547.5982,360.9916 545.4127,356.1794 542.77,351.6024 539.4598,347.0084 535.9543,343.053 532.0811,339.457 527.8768,336.2542 523.3813,333.4751 518.6371,331.1458 513.329,329.1744 508.2144,327.8421 502.9947,327.0129 497.7191,326.6949 492.4375,326.8908 486.8289,327.669 481.6934,328.9184 476.7037,330.6608 471.9069,332.8797 467.3483,335.5541 463.0711,338.6587 459.1157,342.1643 455.5197,346.0374 452.3169,350.2417 449.5378,354.7372 447.0599,359.8287 445.2371,364.7895 443.9048,369.9041 443.0756,375.1238 442.7576,380.3994 442.9535,385.681 443.6617,390.9185 444.8753,396.0625 446.583,401.0642 448.7685,405.8764 451.4112,410.4535 454.486,414.7521 458.227,419.0028 462.1001,422.5988 466.6163,426.0145 471.131,428.7623 475.8914,431.0586 480.8522,432.8815 485.9668,434.2138 491.1865,435.0429 496.4621,435.3609 501.7437,435.165 507.3524,434.3868 512.4878,433.1374 517.4775,431.395 522.2743,429.1762 526.8329,426.5017 531.1101,423.3971 535.0655,419.8916 538.6615,416.0184 541.8643,411.8141 544.6435,407.3186 546.9727,402.5744 548.9441,397.2663 550.2765,392.1517 551.1056,386.932 551.4236,381.6564"/>
    <polygon points="543.0843,367.7778 541.4851,363.1361 539.4188,358.6827 537.1156,354.7795 534.4536,351.1116 531.1926,347.4416 527.8632,344.3668 523.9459,341.4075 520.0783,339.0451 515.6568,336.9112 511.4011,335.353 507.017,334.2043 502.1684,333.4338 497.6442,333.1669 492.7387,333.3619 488.2499,333.9872 483.4778,335.1402 479.1988,336.6334 475.0802,338.5247 471.1589,340.7969 467.4701,343.4299 463.7746,346.6618 460.4295,350.2553 457.6834,353.8607 455.1078,358.0402 453.1219,362.114 451.4157,366.7174 450.267,371.1015 449.538,375.5746 449.2296,380.4743 449.3918,385.0035 449.9816,389.497 451.0969,394.2781 452.5563,398.5687 454.4149,402.7021 456.8596,406.9596 459.4926,410.6484 462.7245,414.3439 466.318,417.689 469.9234,420.4351 473.7723,422.8279 478.1767,424.9966 482.4201,426.5884 487.1642,427.8515 491.6373,428.5805 496.537,428.8889 501.4426,428.6939 505.9313,428.0686 510.7034,426.9156 514.9824,425.4224 519.4358,423.3561 523.3391,421.0529 527.3009,418.1536 530.6769,415.1299 533.7517,411.8005 536.4978,408.1951 539.0734,404.0156 541.0593,399.9418 542.6511,395.6985 543.9142,390.9543 544.6847,386.1057 544.9516,381.5815 544.7566,376.676 544.1313,372.1872"/>
    <polygon points="540.7666,368.5007 539.3023,364.2143 537.4184,360.0949 535.1338,356.1835 532.471,352.5191 529.7206,349.4081 526.4101,346.3164 522.8083,343.5696 518.9508,341.195 514.8761,339.2164 510.6247,337.6533 506.6083,336.5989 502.1373,335.872 497.6161,335.5939 493.4661,335.7356 488.9744,336.3216 484.5634,337.3519 480.277,338.8162 476.4935,340.5275 472.5633,342.7795 468.8768,345.4117 465.4708,348.3979 462.3791,351.7084 459.6323,355.3102 457.2577,359.1677 455.2791,363.2424 453.716,367.4938 452.584,371.8798 451.9347,375.9812 451.6566,380.5024 451.83,385.0288 452.4533,389.5154 453.4146,393.5551 454.8789,397.8416 456.7628,401.9609 459.0474,405.8723 461.7102,409.5367 464.7245,412.9178 468.0606,415.9819 471.3729,418.4863 475.2304,420.8608 479.3051,422.8394 483.5565,424.4025 487.9425,425.5345 492.0439,426.1838 496.5651,426.4619 500.7152,426.3202 505.2068,425.7342 509.6178,424.7039 513.9043,423.2396 518.0236,421.3558 521.935,419.0711 525.5994,416.4084 528.7104,413.6579 531.5573,410.6349 534.3339,407.056 536.7404,403.2184 538.7528,399.1603 540.3512,394.922 541.5197,390.5456 542.2465,386.0746 542.5246,381.5534 542.3829,377.4034 541.7969,372.9117"/>
    <polygon points="544.6116,362.2393 542.5896,357.7664 539.9432,353.1907 536.8383,348.9128 533.5735,345.2473 529.6821,341.6699 525.7554,338.7244 521.5642,336.1693 517.1472,334.028 512.1847,332.2076 507.4308,330.9846 502.5816,330.2233 497.6816,329.9309 492.7763,330.1099 487.9107,330.7588 482.7668,331.976 478.1265,333.5767 473.6611,335.6152 469.0952,338.2785 465.1227,341.1618 461.4451,344.413 458.0964,348.002 455.1075,351.8958 452.5061,356.0584 450.1652,360.7977 448.3264,365.7535 447.0858,370.5028 446.3067,375.3492 445.9961,380.248 446.1889,385.5304 446.8557,390.3936 448.092,395.5329 449.7098,400.1673 451.7648,404.6251 454.238,408.8651 457.3429,413.143 460.6077,416.8085 464.2091,420.1439 468.1139,423.1184 472.2861,425.7044 477.034,428.0278 481.6361,429.7353 486.3807,430.9934 491.2242,431.7905 496.4996,432.1249 501.405,431.9459 506.2705,431.297 511.4144,430.0798 516.0547,428.4791 520.5201,426.4406 525.086,423.7773 529.0586,420.894 532.7361,417.6428 536.0848,414.0538 539.0737,410.16 541.6751,405.9974 544.016,401.2581 545.8548,396.3023 547.0954,391.553 547.8745,386.7066 548.1851,381.8078 548.0242,376.9018 547.3255,371.6623 546.1951,366.8855"/>
    <polygon points="531.8976,339.8314 527.6968,336.6214 523.202,333.8382 518.4563,331.5084 513.5053,329.6544 508.3965,328.2941 503.1792,327.4405 497.9033,327.1019 492.6196,327.2814 487.3788,327.9774 482.2314,329.1831 477.2268,330.8871 472.413,333.0728 467.8364,335.7193 463.5408,338.8013 459.5677,342.2889 455.9551,346.1489 452.7378,350.3439 449.9467,354.8339 447.6086,359.5755 445.7459,364.5233 444.3767,369.6296 443.514,374.8455 443.1661,380.1208 443.3364,385.4048 444.0232,390.6468 445.2199,395.7963 446.9151,400.8039 449.0924,405.6215 451.7309,410.2028 454.8053,414.5037 458.286,418.4829 462.1396,422.1023 466.329,425.3269 471.1446,428.3088 475.8985,430.622 480.8559,432.4586 485.9694,433.801 491.1898,434.6363 496.4668,434.9564 501.7499,434.7584 506.9881,434.0441 512.1313,432.8203 517.1299,431.0989 521.936,428.8963 526.5034,426.2337 530.7881,423.1368 534.749,419.6352 538.348,415.7627 541.5506,411.5563 544.326,407.0567 546.6475,402.3069 548.4927,397.3526 549.8441,392.2415 550.6886,387.0226 551.018,381.7461 550.8292,376.4627 550.124,371.2232 548.9093,366.0779 547.1966,361.0763 545.0024,356.2664 542.3479,351.6944 539.2584,347.4042 535.7638,343.4372"/>
    <line x1="482.2818" x2="482.6883" y1="447.239" y2="447.648"/>
    <line x1="482.4229" x2="481.6099" y1="447.9118" y2="447.0939"/>
    <line x1="480.9381" x2="482.1575" y1="446.9488" y2="448.1756"/>
    <line x1="481.8921" x2="480.2662" y1="448.4394" y2="446.8036"/>
    <line x1="479.5943" x2="481.6267" y1="446.6585" y2="448.7031"/>
    <line x1="481.3613" x2="478.9225" y1="448.9669" y2="446.5134"/>
    <line x1="478.2506" x2="481.096" y1="446.3682" y2="449.2307"/>
    <line x1="480.8306" x2="477.5787" y1="449.4945" y2="446.2231"/>
    <line x1="476.9069" x2="480.5652" y1="446.0779" y2="449.7583"/>
    <line x1="480.2998" x2="476.235" y1="450.0221" y2="445.9328"/>
    <line x1="475.5632" x2="480.0344" y1="445.7877" y2="450.2859"/>
    <line x1="479.769" x2="474.8913" y1="450.5497" y2="445.6425"/>
    <line x1="474.2194" x2="479.5037" y1="445.4974" y2="450.8135"/>
    <line x1="479.2383" x2="473.5476" y1="451.0773" y2="445.3523"/>
    <line x1="472.8757" x2="478.9729" y1="445.2071" y2="451.3411"/>
    <line x1="478.7075" x2="473.0168" y1="451.6049" y2="445.8798"/>
    <line x1="473.1579" x2="478.4421" y1="446.5526" y2="451.8686"/>
    <line x1="478.1767" x2="473.299" y1="452.1324" y2="447.2253"/>
    <line x1="473.4401" x2="477.9114" y1="447.898" y2="452.3962"/>
    <line x1="477.646" x2="473.5812" y1="452.66" y2="448.5707"/>
    <line x1="473.7223" x2="477.3806" y1="449.2434" y2="452.9238"/>
    <line x1="477.1152" x2="473.8634" y1="453.1876" y2="449.9162"/>
    <line x1="474.0045" x2="476.8498" y1="450.5889" y2="453.4514"/>
    <line x1="476.5844" x2="474.1456" y1="453.7152" y2="451.2616"/>
    <line x1="474.2867" x2="476.3191" y1="451.9343" y2="453.979"/>
    <line x1="476.0537" x2="474.4278" y1="454.2428" y2="452.6071"/>
    <line x1="474.5689" x2="475.7883" y1="453.2798" y2="454.5066"/>
    <line x1="475.5229" x2="474.71" y1="454.7704" y2="453.9525"/>
    <line x1="474.8511" x2="475.2575" y1="454.6252" y2="455.0342"/>
    <polygon points="474.9922,455.2979 482.9536,447.3842 472.8757,445.2071"/>
    <polygon points="445.4066,449.224 433.7147,452.4781 440.3687,460.2652"/>
    <line x1="445.22" x2="437.165" y1="449.6329" y2="456.5159"/>
    <line x1="436.9185" x2="444.9735" y1="456.2275" y2="449.3445"/>
    <line x1="444.1075" x2="436.6721" y1="449.5856" y2="455.9391"/>
    <line x1="436.4256" x2="443.2414" y1="455.6506" y2="449.8266"/>
    <line x1="442.3754" x2="436.1792" y1="450.0677" y2="455.3622"/>
    <line x1="435.9327" x2="441.5093" y1="455.0738" y2="450.3087"/>
    <line x1="440.6432" x2="435.6863" y1="450.5497" y2="454.7854"/>
    <line x1="435.4398" x2="439.7772" y1="454.497" y2="450.7908"/>
    <line x1="438.9111" x2="435.1934" y1="451.0318" y2="454.2086"/>
    <line x1="434.947" x2="438.045" y1="453.9202" y2="451.2729"/>
    <line x1="437.179" x2="434.7005" y1="451.5139" y2="453.6318"/>
    <line x1="434.4541" x2="436.3129" y1="453.3434" y2="451.755"/>
    <line x1="435.4469" x2="434.2076" y1="451.996" y2="453.055"/>
    <line x1="433.9612" x2="434.5808" y1="452.7665" y2="452.2371"/>
    <line x1="437.4114" x2="444.8468" y1="456.8043" y2="450.4508"/>
    <line x1="444.4736" x2="437.6578" y1="451.2687" y2="457.0927"/>
    <line x1="437.9043" x2="444.1005" y1="457.3811" y2="452.0865"/>
    <line x1="443.7273" x2="438.1507" y1="452.9044" y2="457.6695"/>
    <line x1="438.3972" x2="443.3541" y1="457.9579" y2="453.7223"/>
    <line x1="442.9809" x2="438.6436" y1="454.5401" y2="458.2463"/>
    <line x1="438.8901" x2="442.6078" y1="458.5347" y2="455.358"/>
    <line x1="442.2346" x2="439.1365" y1="456.1759" y2="458.8232"/>
    <line x1="439.383" x2="441.8614" y1="459.1116" y2="456.9937"/>
    <line x1="441.4882" x2="439.6294" y1="457.8116" y2="459.4"/>
    <line x1="439.8758" x2="441.1151" y1="459.6884" y2="458.6295"/>
    <line x1="440.7419" x2="440.1223" y1="459.4473" y2="459.9768"/>
    <polygon points="450.5719,494.8551 455.5843,497.4654 461.372,499.1459 467.3802,499.6196 472.9916,498.9494 478.7193,497.0741 483.6405,494.2957 487.9441,490.6329 491.6777,485.9019 494.376,480.5129 495.8652,475.0613 496.2814,469.0489 495.5576,463.4441 493.6276,457.7347 490.8023,452.8403 487.0985,448.5719 482.6512,445.085 477.2708,442.3695 471.824,440.863 466.1901,440.4189 460.5745,441.0533 455.1818,442.7432 449.8963,445.639 445.5694,449.2743 441.8057,453.9814 439.2113,459.0021 437.5492,464.7951 437.0947,470.8048 437.7828,476.4141 439.5242,481.7904 442.2554,486.7379 445.8769,491.0764"/>
    <line x1="493.017" x2="493.0397" y1="500.3079" y2="501.0702"/>
    <line x1="493.4412" x2="493.3958" y1="501.8213" y2="500.2966"/>
    <line x1="493.7745" x2="493.8427" y1="500.2853" y2="502.5723"/>
    <line x1="494.2441" x2="494.1532" y1="503.3234" y2="500.274"/>
    <line x1="494.532" x2="494.6456" y1="500.2627" y2="504.0744"/>
    <line x1="495.4031" x2="495.2895" y1="504.0519" y2="500.2401"/>
    <line x1="494.9107" x2="495.0471" y1="500.2514" y2="504.8255"/>
    <line x1="495.7591" x2="495.6682" y1="503.2782" y2="500.2288"/>
    <line x1="496.4257" x2="496.4711" y1="500.2062" y2="501.7309"/>
    <polyline points="496.1151,502.5046 496.0469,500.2175 494.7222,499.9109"/>
    <polyline points="494.8165,499.5397 497.3393,500.1803 492.6383,500.3191 495.0471,504.8255 497.1832,500.1837"/>
    <line x1="496.8044" x2="496.8271" y1="500.195" y2="500.9573"/>
    <line x1="498.695" x2="494.9107" y1="500.1294" y2="499.1686"/>
    <line x1="495.0049" x2="500.0507" y1="498.7974" y2="500.0785"/>
    <line x1="501.4063" x2="495.0992" y1="500.0276" y2="498.4263"/>
    <line x1="495.1934" x2="502.762" y1="498.0551" y2="499.9767"/>
    <line x1="504.1177" x2="495.2876" y1="499.9258" y2="497.684"/>
    <line x1="495.3819" x2="505.4733" y1="497.3128" y2="499.8749"/>
    <line x1="505.5676" x2="495.4761" y1="499.5038" y2="496.9417"/>
    <line x1="495.5703" x2="504.4004" y1="496.5705" y2="498.8124"/>
    <line x1="503.2332" x2="495.6646" y1="498.1209" y2="496.1994"/>
    <line x1="495.7588" x2="502.066" y1="495.8282" y2="497.4295"/>
    <line x1="500.8988" x2="495.853" y1="496.7381" y2="495.457"/>
    <line x1="495.9473" x2="499.7316" y1="495.0859" y2="496.0467"/>
    <line x1="498.5644" x2="496.0415" y1="495.3553" y2="494.7147"/>
    <line x1="496.1357" x2="497.3971" y1="494.3436" y2="494.6638"/>
    <polygon points="496.2299,493.9724 494.628,500.2821 506.1512,499.8495"/>
    <line x1="518.4022" x2="641.5732" y1="587.4044" y2="872.2899"/>
    <line x1="580.1643" x2="581.1381" y1="768.8624" y2="768.258"/>
    <line x1="580.9365" x2="578.9887" y1="767.9331" y2="769.1419"/>
    <line x1="577.8132" x2="580.7348" y1="769.4213" y2="767.6081"/>
    <line x1="580.5332" x2="576.6377" y1="767.2832" y2="769.7008"/>
    <line x1="575.4621" x2="580.3315" y1="769.9802" y2="766.9583"/>
    <line x1="580.1299" x2="574.2866" y1="766.6333" y2="770.2597"/>
    <line x1="573.1111" x2="579.9282" y1="770.5391" y2="766.3084"/>
    <line x1="579.7265" x2="571.9355" y1="765.9834" y2="770.8186"/>
    <line x1="570.76" x2="579.5249" y1="771.098" y2="765.6585"/>
    <line x1="579.3232" x2="569.5844" y1="765.3336" y2="771.3775"/>
    <line x1="568.4089" x2="579.1216" y1="771.6569" y2="765.0086"/>
    <line x1="578.9199" x2="567.2334" y1="764.6837" y2="771.9364"/>
    <line x1="566.0578" x2="578.7183" y1="772.2158" y2="764.3588"/>
    <line x1="578.5166" x2="564.8823" y1="764.0338" y2="772.4953"/>
    <polygon points="564.8823,772.4953 581.3398,768.583 575.6934,759.4847"/>
    <line x1="565.6545" x2="578.3149" y1="771.5659" y2="763.7089"/>
    <line x1="578.1133" x2="566.4267" y1="763.3839" y2="770.6366"/>
    <line x1="567.199" x2="577.9116" y1="769.7073" y2="763.059"/>
    <line x1="577.71" x2="567.9712" y1="762.7341" y2="768.7779"/>
    <line x1="568.7434" x2="577.5083" y1="767.8486" y2="762.4091"/>
    <line x1="577.3067" x2="569.5156" y1="762.0842" y2="766.9193"/>
    <line x1="570.2879" x2="577.105" y1="765.99" y2="761.7592"/>
    <line x1="576.9033" x2="571.0601" y1="761.4343" y2="765.0606"/>
    <line x1="571.8323" x2="576.7017" y1="764.1313" y2="761.1094"/>
    <line x1="576.5" x2="572.6045" y1="760.7844" y2="763.202"/>
    <line x1="573.3767" x2="576.2984" y1="762.2727" y2="760.4595"/>
    <line x1="576.0967" x2="574.149" y1="760.1345" y2="761.3433"/>
    <line x1="574.9212" x2="575.8951" y1="760.414" y2="759.8096"/>
    <polygon points="554.3545,722.7069 555.033,719.7763 555.1125,716.7692 554.6876,714.1706 553.6546,711.3454 552.0781,708.7834 550.0218,706.5879 547.8935,705.0374 545.1734,703.7531 542.2515,703.0378 539.2457,702.9205 536.2769,703.4059 533.465,704.4744 531.2224,705.8543 529.0012,707.8829 527.2299,710.3142 525.9798,713.0503 525.3013,715.9809 525.2218,718.988 525.6467,721.5867 526.6797,724.4119 528.2562,726.9738 530.3125,729.1693 532.4408,730.7199 535.161,732.0042 538.0828,732.7194 541.0887,732.8367 544.0574,732.3514 546.5304,731.4471 549.112,729.903 551.3332,727.8744 553.1045,725.443"/>
    <polygon points="553.7699,723.0055 554.5348,720.0901 554.682,717.0797 554.2986,714.4694 553.2918,711.6285 551.7208,709.0563 549.9359,707.1134 547.5059,705.3303 545.117,704.2105 542.192,703.4835 539.5568,703.3546 536.5748,703.7927 534.0879,704.674 531.4956,706.2115 529.5296,707.971 527.7151,710.3776 526.5644,712.7518 525.7996,715.6671 525.6523,718.6775 526.0358,721.2879 527.0426,724.1288 528.6136,726.7009 530.6812,728.8939 532.8284,730.427 535.2174,731.5468 538.1424,732.2737 540.7776,732.4026 543.7596,731.9646 546.2464,731.0833 548.8388,729.5458 550.8047,727.7863 552.6192,725.3797"/>
    <line x1="559.0351" x2="447.8222" y1="716.7393" y2="593.1552"/>
    <polygon points="445.7334,657.507 436.9112,661.4724 445.962,669.8119"/>
    <line x1="445.3941" x2="445.751" y1="657.6595" y2="658.4535"/>
    <line x1="445.0547" x2="445.7685" y1="657.812" y2="659.4"/>
    <line x1="445.7861" x2="444.7154" y1="660.3465" y2="657.9645"/>
    <line x1="444.3761" x2="445.8037" y1="658.117" y2="661.2931"/>
    <line x1="445.8213" x2="444.0368" y1="662.2396" y2="658.2696"/>
    <line x1="443.6975" x2="445.8389" y1="658.4221" y2="663.1861"/>
    <line x1="445.8565" x2="443.3582" y1="664.1327" y2="658.5746"/>
    <line x1="443.0189" x2="445.8741" y1="658.7271" y2="665.0792"/>
    <line x1="445.8917" x2="442.6795" y1="666.0257" y2="658.8796"/>
    <line x1="442.3402" x2="445.9092" y1="659.0321" y2="666.9723"/>
    <line x1="445.9268" x2="442.0009" y1="667.9188" y2="659.1847"/>
    <line x1="441.6616" x2="445.9444" y1="659.3372" y2="668.8653"/>
    <line x1="445.2658" x2="440.983" y1="669.1704" y2="659.6422"/>
    <line x1="440.6437" x2="444.5696" y1="659.7947" y2="668.5289"/>
    <line x1="443.8734" x2="440.3043" y1="667.8874" y2="659.9473"/>
    <line x1="439.965" x2="443.1771" y1="660.0998" y2="667.2459"/>
    <line x1="442.4809" x2="439.6257" y1="666.6044" y2="660.2523"/>
    <line x1="439.2864" x2="441.7847" y1="660.4048" y2="665.9629"/>
    <line x1="441.0885" x2="438.9471" y1="665.3214" y2="660.5573"/>
    <line x1="438.6078" x2="440.3923" y1="660.7099" y2="664.6799"/>
    <line x1="439.6961" x2="438.2685" y1="664.0384" y2="660.8624"/>
    <line x1="437.9291" x2="438.9999" y1="661.0149" y2="663.3969"/>
    <line x1="438.3036" x2="437.5898" y1="662.7554" y2="661.1674"/>
    <line x1="437.2505" x2="437.6074" y1="661.3199" y2="662.1139"/>
    <line x1="441.3223" x2="445.962" y1="659.4897" y2="669.8119"/>
    <polygon points="396.4407,682.652 387.9208,682.386 391.9073,691.2755"/>
    <line x1="396.0702" x2="396.0465" y1="682.6404" y2="683.4019"/>
    <line x1="395.6998" x2="395.6523" y1="682.6289" y2="684.1517"/>
    <line x1="395.2581" x2="395.3294" y1="684.9016" y2="682.6173"/>
    <line x1="394.959" x2="394.8638" y1="682.6057" y2="685.6515"/>
    <line x1="394.4696" x2="394.5885" y1="686.4013" y2="682.5942"/>
    <line x1="394.2181" x2="394.0754" y1="682.5826" y2="687.1512"/>
    <line x1="393.6812" x2="393.8477" y1="687.9011" y2="682.571"/>
    <line x1="393.4772" x2="393.287" y1="682.5595" y2="688.6509"/>
    <line x1="392.8928" x2="393.1068" y1="689.4008" y2="682.5479"/>
    <line x1="392.7364" x2="392.4986" y1="682.5363" y2="690.1507"/>
    <line x1="392.1044" x2="392.3659" y1="690.9005" y2="682.5248"/>
    <line x1="391.9955" x2="391.734" y1="682.5132" y2="690.889"/>
    <line x1="391.3873" x2="391.6251" y1="690.116" y2="682.5016"/>
    <line x1="391.2547" x2="391.0407" y1="682.4901" y2="689.343"/>
    <line x1="390.694" x2="390.8842" y1="688.57" y2="682.4785"/>
    <line x1="390.5138" x2="390.3474" y1="682.4669" y2="687.797"/>
    <line x1="390.0007" x2="390.1434" y1="687.024" y2="682.4554"/>
    <line x1="389.7729" x2="389.6541" y1="682.4438" y2="686.251"/>
    <line x1="389.3074" x2="389.4025" y1="685.478" y2="682.4322"/>
    <line x1="389.0321" x2="388.9608" y1="682.4207" y2="684.705"/>
    <line x1="388.6141" x2="388.6617" y1="683.932" y2="682.4091"/>
    <line x1="388.2912" x2="388.2675" y1="682.3975" y2="683.159"/>
    <polygon points="375.7904,678.1261 375.2455,671.351 374.1061,665.0333 372.2499,658.4947 369.744,652.1765 366.8037,646.4698 363.3334,641.0689 359.1163,635.7384 354.3833,630.8601 349.4829,626.713 344.21,623.0513 338.2739,619.7404 332.0344,617.0446 325.92,615.0885 319.6472,613.7234 312.896,612.9361 306.4773,612.8211 299.7022,613.366 293.3845,614.5054 286.8459,616.3616 280.8718,618.7116 274.821,621.8077 269.4202,625.2781 264.0896,629.4952 259.2113,634.2282 255.0642,639.1285 251.4026,644.4015 248.0916,650.3375 245.3959,656.5771 243.4397,662.6914 242.0131,669.337 241.2873,675.7155 241.1723,682.1341 241.7172,688.9092 242.8566,695.2269 244.7128,701.7656 247.0628,707.7396 250.1589,713.7905 253.6293,719.1913 257.8464,724.5218 262.3037,729.1418 267.4797,733.5472 273.0735,737.4084 278.6887,740.5199 284.5747,743.0824 291.0426,745.1717 297.3155,746.5368 304.0667,747.3241 310.4853,747.4391 317.2604,746.8942 323.9461,745.6691 330.1168,743.8987 336.435,741.3928 342.1417,738.4525 347.5425,734.9822 352.873,730.765 357.7513,726.0321 361.8985,721.1317 365.5601,715.8587 368.8711,709.9227 371.5668,703.6832 373.523,697.5688 374.9496,690.9232 375.6753,684.5447"/>
    <polygon points="376.8352,670.8442 375.589,664.1604 373.691,657.6316 371.1594,651.3215 368.0189,645.2912 364.5213,639.9057 360.2893,634.5844 355.554,629.7055 350.3614,625.3164 345.0828,621.6595 339.149,618.3404 332.9172,615.6215 326.4481,613.5293 319.8044,612.0841 313.0508,611.2999 306.2527,611.1844 299.4763,611.7387 292.7874,612.9574 286.251,614.8286 279.9305,617.3342 273.8873,620.4499 268.4875,623.9254 263.1488,628.1355 258.2505,632.8507 253.8402,638.0252 249.9607,643.6088 246.6496,649.5471 243.9393,655.7826 241.9549,661.8899 240.4824,668.5275 239.6705,675.2779 239.5271,682.0754 240.0535,688.854 241.2447,695.5479 243.089,702.092 245.5687,708.4227 248.6595,714.4786 252.3314,720.2008 256.5488,725.5338 260.996,730.1662 266.1523,734.5978 271.7199,738.5002 277.6446,741.8356 283.8688,744.5716 290.3322,746.6815 296.9719,748.1449 303.7234,748.9475 310.5211,749.0816 317.299,748.5459 323.9912,747.3456 330.5328,745.4923 336.8601,743.004 342.9117,739.9049 348.6289,736.2251 353.9561,732.0004 358.8414,727.2718 363.2376,722.0852 367.1018,716.491 370.3965,710.5436 373.0898,704.3008 375.1554,697.8231 376.5733,691.1736 377.3297,684.4167 377.4173,677.6183"/>
    <polygon points="375.9184,698.15 377.3513,691.5056 378.1312,684.7534 378.2506,677.9574 377.7085,671.1819 376.4244,664.1234 374.5455,657.5911 372.0401,651.2726 368.9321,645.2277 365.2509,639.5138 361.0315,634.1849 356.3137,629.2917 351.1424,624.8806 345.5666,620.9933 339.3007,617.4991 333.0631,614.7985 326.5924,612.7175 319.95,611.2756 313.1989,610.4866 306.0254,610.3702 299.2522,610.9398 292.5666,612.1654 286.0318,614.0355 279.7099,616.5323 273.6608,619.6321 267.9418,623.3056 262.6073,627.5179 257.7077,632.229 253.2896,637.3943 249.1945,643.2852 245.8921,649.2261 243.1831,655.46 241.0932,661.9278 239.6424,668.5683 238.8442,675.3184 238.7064,682.1141 239.2302,688.8909 240.4106,695.5848 242.2364,702.132 244.6904,708.4707 247.9363,714.8688 251.602,720.5927 255.8071,725.9329 260.5116,730.8389 265.6709,735.264 271.2362,739.1663 277.4926,742.6775 283.7229,745.3949 290.1879,747.4935 296.8264,748.9534 303.5754,749.7606 310.3709,749.9077 317.1485,749.3931 324.2121,748.1376 330.752,746.2852 337.0806,743.8055 343.1381,740.7221 349.1744,736.8447 354.4976,732.618 359.6421,727.6175 364.0182,722.4165 367.8676,716.8145 371.154,710.8647 373.8461,704.6234"/>
    <polygon points="371.4494,711.1947 374.2903,704.6078 376.3485,698.1309 377.7709,691.4852 378.5441,684.7332 378.6609,677.9381 378.071,670.789 376.842,664.1049 374.9724,657.571 372.48,651.2484 369.3879,645.1963 365.7253,639.4716 361.2781,633.8431 356.5558,628.9556 351.0835,624.3176 345.4881,620.4603 339.5459,617.1621 333.3127,614.4537 326.4821,612.2629 319.8365,610.8405 313.0844,610.0673 306.2893,609.9505 299.1402,610.5404 292.4561,611.7695 285.9222,613.639 279.5996,616.1315 273.5476,619.2235 267.5155,623.1057 262.1943,627.3333 257.3068,632.0556 252.8988,637.2283 249.0115,642.8029 245.5133,649.0655 242.805,655.2987 240.712,661.7645 239.1918,668.775 238.4185,675.527 238.3145,682.6996 238.8916,689.4712 240.1207,696.1553 241.9902,702.6893 244.4827,709.0119 247.5747,715.0639 251.4569,721.096 255.6846,726.4171 260.4069,731.3046 265.5795,735.7126 271.4746,739.7999 277.4167,743.0982 283.6499,745.8065 290.1158,747.8995 296.7536,749.3576 303.8782,750.1929 310.6734,750.3097 317.8225,749.7198 324.5065,748.4907 331.0405,746.6212 337.3631,744.1288 343.4151,741.0367 349.4472,737.1545 354.7683,732.9269 359.6558,728.2046 364.2939,722.7323 368.1511,717.1368"/>
    <polygon points="351.5193,729.2209 356.1318,724.7574 360.2838,719.8626 363.9351,714.5837 367.0503,708.9718 369.5994,703.0811 371.5578,696.9686 372.9064,690.6933 373.6323,684.3159 373.7285,677.898 373.1939,671.5017 372.1193,665.5568 370.3807,659.3781 368.0437,653.4001 365.131,647.6804 361.6708,642.2744 357.6964,637.2343 353.2463,632.6089 348.3635,628.4428 343.0952,624.7763 337.4923,621.6448 331.609,619.0787 325.5022,617.1027 319.2308,615.7359 312.8555,614.9915 306.438,614.8768 300.0402,615.3928 293.724,616.5346 287.5504,618.2911 281.5791,620.6453 275.8679,623.5745 270.472,627.0504 265.4434,631.0393 260.8308,635.5028 256.6788,640.3976 253.0276,645.6765 249.9123,651.2884 247.3632,657.1791 245.4049,663.2916 244.0563,669.5669 243.3304,675.9443 243.2342,682.3622 243.7687,688.7585 244.9288,695.0714 246.7031,701.2398 249.0746,707.2043 252.0203,712.907 255.5118,718.2929 259.5153,723.3099 263.992,727.9095 268.8989,732.0473 274.1883,735.6833 279.8092,738.7823 285.7072,741.3143 291.8254,743.255 298.1046,744.5855 304.1071,745.2687 310.5247,745.3834 316.9225,744.8674 323.2387,743.7256 329.4123,741.9691 335.3835,739.6149 341.0947,736.6857 346.4907,733.2098"/>
    <polygon points="353.1438,731.0739 357.7644,726.6186 362.1739,721.4473 366.0431,715.8603 369.1661,710.2525 371.7444,704.3744 373.855,697.9145 375.3078,691.2756 376.0627,684.9014 376.2007,678.1068 375.6573,671.3326 374.5232,665.0148 372.6767,658.4745 370.1841,652.1521 367.2595,646.4384 363.8073,641.0271 359.6114,635.681 354.9011,630.7822 350.0227,626.6108 344.7714,622.9197 338.8572,619.5718 332.6374,616.8333 326.1746,614.7317 319.9061,613.3508 313.1584,612.5422 306.7412,612.4029 299.9648,612.918 293.6423,614.0256 287.0943,615.8448 281.1067,618.1573 275.0357,621.2116 269.3012,624.8587 263.961,629.062 259.0688,633.7792 254.6738,638.9627 250.8202,644.5605 247.7128,650.177 245.1509,656.0623 243.0583,662.5281 241.624,669.171 240.8869,675.5472 240.7566,681.9646 241.2811,688.7404 242.4818,695.4294 244.3466,701.9646 246.7008,707.936 249.7973,713.9855 253.4843,719.6944 257.4754,724.7215 262.1993,729.6072 267.0893,733.765 272.3509,737.4415 278.2744,740.7729 284.1489,743.3593 290.6059,745.479 297.2427,746.941 303.9927,747.7308 310.7878,747.8404 317.1852,747.3182 323.8726,746.1082 330.0474,744.3555 336.3733,741.8718 342.4185,738.7669 348.1223,735.0719"/>
    <polygon points="341.915,737.6345 347.3042,734.1426 352.3315,730.1474 356.9502,725.686 361.1172,720.8 364.9938,715.2145 368.1135,709.6016 370.8105,703.3604 372.76,697.242 374.1105,690.9641 374.8494,684.5851 374.9697,678.1647 374.4218,671.3879 373.2715,665.0702 371.5174,658.8928 369.0202,652.569 366.0805,646.8599 362.6039,641.4608 358.623,636.4221 354.1747,631.7908 349.0015,627.379 343.7261,623.7175 337.7834,620.4145 331.8886,617.8672 325.7757,615.9003 319.5017,614.5319 312.7478,613.7496 306.3271,613.6476 299.9264,614.1651 293.6055,615.2974 287.0651,617.1546 280.7484,619.6698 275.0476,622.6257 269.6585,626.1176 264.6311,630.1128 260.0124,634.5743 255.8455,639.4602 252.1691,644.7253 248.8492,650.6586 246.2852,656.546 244.2026,663.0182 242.8521,669.2962 242.1133,675.6751 241.9929,682.0955 242.5409,688.8724 243.6912,695.1901 245.4453,701.3674 247.7869,707.3468 250.8822,713.4003 254.3587,718.7994 258.3397,723.8381 262.788,728.4694 267.9611,732.8812 273.2366,736.5427 279.1793,739.8458 285.074,742.393 291.1869,744.3599 297.8338,745.7898 304.2148,746.5106 310.6356,746.6126 317.0362,746.0951 323.7253,744.8772 329.8976,743.1056 336.2142,740.5905"/>
    <polygon points="323.7991,746.5469 330.336,744.6917 336.6556,742.1948 342.3681,739.2698 348.0882,735.6019 353.4146,731.3827 358.0358,726.9294 362.4493,721.7628 366.3264,716.1825 369.6286,710.2438 372.3231,704.0058 374.2857,697.8955 375.6649,691.6276 376.4758,684.8812 376.611,678.0875 376.1169,671.6887 374.9403,664.9964 373.1032,658.4544 370.6239,652.1278 367.527,646.0796 363.8432,640.3698 359.8582,635.339 355.1432,630.4461 350.2634,626.2777 344.6938,622.3851 338.7643,619.0665 332.5338,616.3547 326.0643,614.2768 319.7927,612.915 313.044,612.1227 306.25,612.0064 299.8526,612.5182 293.1635,613.7133 286.6267,615.5685 280.307,618.0654 274.2674,621.179 268.5678,624.8786 263.5481,628.8775 258.9268,633.3308 254.5134,638.4974 250.6363,644.0778 247.3341,650.0164 244.6396,656.2544 242.5795,662.7296 241.1745,669.3778 240.4616,675.7558 240.3517,682.1727 240.8936,688.9461 242.0224,695.2638 243.8595,701.8058 246.3388,708.1324 249.4357,714.1806 252.9,719.5831 257.1044,724.9212 261.8195,729.8141 266.6993,733.9825 272.2689,737.8751 278.1984,741.1937 284.4288,743.9055 290.8983,745.9834 297.17,747.3453 303.9186,748.1375 310.7127,748.2539 317.4845,747.6932"/>
    <line x1="332.0817" x2="492.5867" y1="766.4423" y2="771.6983"/>
    <line x1="492.5994" x2="355.0237" y1="771.3116" y2="766.8065"/>
    <line x1="354.973" x2="492.5487" y1="768.3533" y2="772.8585"/>
    <line x1="492.5614" x2="332.0564" y1="772.4718" y2="767.2158"/>
    <line x1="309.1398" x2="492.5741" y1="766.0782" y2="772.0851"/>
    <line x1="492.5361" x2="377.8896" y1="773.2452" y2="769.4909"/>
    <line x1="377.9656" x2="492.612" y1="767.1706" y2="770.9249"/>
    <line x1="492.6247" x2="400.9076" y1="770.5382" y2="767.5348"/>
    <line x1="400.8062" x2="492.5234" y1="770.6285" y2="773.6319"/>
    <line x1="492.5107" x2="423.7229" y1="774.0186" y2="771.7661"/>
    <line x1="423.8495" x2="492.6374" y1="767.8989" y2="770.1515"/>
    <line x1="492.65" x2="446.7915" y1="769.7648" y2="768.2631"/>
    <line x1="446.6395" x2="492.4981" y1="772.9036" y2="774.4053"/>
    <line x1="492.4854" x2="469.5561" y1="774.7921" y2="774.0412"/>
    <line x1="469.7334" x2="492.6627" y1="768.6272" y2="769.3781"/>
    <polygon points="492.6754,768.9913 309.1398,766.0782 492.4727,775.1788"/>
    <polygon points="485.0261,754.7188 487.85,750.6801 483.5537,748.2661"/>
    <line x1="484.9443" x2="485.3398" y1="754.3603" y2="754.2701"/>
    <line x1="485.6536" x2="484.8625" y1="753.8213" y2="754.0018"/>
    <line x1="484.7807" x2="485.9674" y1="753.6434" y2="753.3726"/>
    <line x1="486.2811" x2="484.6989" y1="752.9238" y2="753.2849"/>
    <line x1="484.6171" x2="486.5949" y1="752.9264" y2="752.4751"/>
    <line x1="486.9087" x2="484.5353" y1="752.0263" y2="752.5679"/>
    <line x1="484.4535" x2="487.2224" y1="752.2094" y2="751.5776"/>
    <line x1="487.5362" x2="484.3717" y1="751.1288" y2="751.8509"/>
    <line x1="484.2899" x2="487.85" y1="751.4924" y2="750.6801"/>
    <line x1="487.3726" x2="484.2081" y1="750.4119" y2="751.134"/>
    <line x1="484.1263" x2="486.8953" y1="750.7755" y2="750.1436"/>
    <line x1="486.4179" x2="484.0445" y1="749.8754" y2="750.417"/>
    <line x1="483.9627" x2="485.9405" y1="750.0585" y2="749.6072"/>
    <line x1="485.4632" x2="483.8809" y1="749.339" y2="749.7"/>
    <line x1="483.7991" x2="484.9858" y1="749.3415" y2="749.0707"/>
    <line x1="484.5084" x2="483.7173" y1="748.8025" y2="748.983"/>
    <line x1="483.6355" x2="484.0311" y1="748.6245" y2="748.5343"/>
    <line x1="469.2729" x2="238.2954" y1="759.9436" y2="535.8419"/>
    <line x1="245.3494" x2="287.5072" y1="553.7107" y2="554.501"/>
    <line x1="287.5" x2="224.2632" y1="554.8872" y2="553.7018"/>
    <line x1="224.256" x2="287.4927" y1="554.088" y2="555.2735"/>
    <line x1="287.4855" x2="245.3276" y1="555.6597" y2="554.8694"/>
    <polygon points="266.0712,551.3369 276.4452,553.6492 268.3831,546.7232"/>
    <line x1="266.2363" x2="267.5532" y1="551.0074" y2="551.6672"/>
    <line x1="269.0352" x2="266.4015" y1="551.9976" y2="550.6778"/>
    <line x1="266.5666" x2="270.5172" y1="550.3483" y2="552.3279"/>
    <line x1="271.9992" x2="266.7317" y1="552.6582" y2="550.0187"/>
    <line x1="266.8969" x2="273.4812" y1="549.6891" y2="552.9885"/>
    <line x1="274.1417" x2="267.5574" y1="551.6703" y2="548.3709"/>
    <line x1="267.7226" x2="272.99" y1="548.0414" y2="550.6809"/>
    <line x1="271.8383" x2="267.8877" y1="549.6914" y2="547.7118"/>
    <line x1="268.0529" x2="270.6866" y1="547.3823" y2="548.702"/>
    <line x1="269.5349" x2="268.218" y1="547.7126" y2="547.0527"/>
    <line x1="267.3923" x2="275.2934" y1="548.7005" y2="552.6597"/>
    <line x1="274.9632" x2="267.062" y1="553.3188" y2="549.3596"/>
    <line x1="267.2272" x2="276.4452" y1="549.03" y2="553.6492"/>
    <line x1="266.4355" x2="287.5145" y1="553.7196" y2="554.1148"/>
    <line x1="287.4783" x2="266.3993" y1="556.0459" y2="555.6508"/>
    <polygon points="213.7201,553.6974 287.471,556.4322 287.5217,553.7286"/>
    <line x1="189.8857" x2="239.7761" y1="533.3828" y2="487.948"/>
    <line x1="240.0242" x2="206.7639" y1="488.2204" y2="518.5103"/>
    <line x1="206.0195" x2="239.2798" y1="517.6929" y2="487.403"/>
    <line x1="239.0317" x2="222.4015" y1="487.1306" y2="502.2755"/>
    <line x1="223.6422" x2="240.2723" y1="503.6378" y2="488.4929"/>
    <line x1="239.5279" x2="189.6376" y1="487.6755" y2="533.1103"/>
    <polygon points="181.4466,540.819 240.5205,488.7654 238.7835,486.8581"/>
    <line x1="154.5096" x2="167.0752" y1="576.9356" y2="593.1995"/>
    <line x1="164.991" x2="152.4253" y1="594.8098" y2="578.5458"/>
    <line x1="152.7231" x2="177.8543" y1="578.3158" y2="610.8437"/>
    <line x1="179.3431" x2="154.2118" y1="609.6936" y2="577.1656"/>
    <line x1="153.9141" x2="191.6109" y1="577.3956" y2="626.1876"/>
    <line x1="190.7177" x2="153.0208" y1="626.8777" y2="578.0857"/>
    <line x1="153.3186" x2="203.5811" y1="577.8557" y2="642.9116"/>
    <line x1="203.8788" x2="153.6163" y1="642.6816" y2="577.6257"/>
    <polygon points="152.1276,578.7759 210.0128,650.9286 154.8073,576.7055"/>
    <polygon points="244.9976,648.258 242.1054,654.827 239.9901,661.2897 238.4385,668.2974 237.628,675.049 237.477,682.2249 238.0026,689.0046 239.2579,696.0714 241.0994,702.6174 243.7126,709.3023 246.7987,715.3616 250.4501,721.0982 254.8805,726.7451 259.5833,731.6567 265.0326,736.3281 270.6052,740.2251 276.8628,743.7405 283.4433,746.6065 289.9143,748.696 296.9282,750.2196 303.683,751.0031 310.4817,751.1372 317.6369,750.5729 324.6987,749.2894 331.2373,747.4218 337.9117,744.782 343.9587,741.6717 349.9879,737.7774 355.3098,733.5445 360.2026,728.8222 364.6215,723.6536 368.5259,718.0862 372.0496,711.8332 374.7897,705.6097 377.0224,698.7883 378.4924,692.1491 379.3479,685.0227 379.4799,677.8465 378.9362,671.0682 377.6621,664.0047 375.8033,657.4637 373.3275,651.1304 370.07,644.7346 366.1838,638.7003 361.958,633.3727 356.9666,628.2149 351.7805,623.8167 346.1975,619.9346 340.2689,616.6041 333.6961,613.7206 327.2307,611.6139 320.2208,610.0716 313.4682,609.2701 306.2921,609.1286 299.5131,609.6632 292.8163,610.8436 285.9045,612.7781 279.2231,615.4002 273.1678,618.4944 267.4361,622.1534 261.7951,626.5913 256.8897,631.3006 252.2256,636.7561 248.336,642.3339"/>
    <polygon points="250.4591,651.1106 247.8751,656.9871 245.8846,663.0902 244.507,669.3602 243.7558,675.7357 243.6383,682.1542 244.1558,688.5528 245.2184,694.5009 246.9485,700.6829 249.281,706.6637 252.1932,712.3847 255.6566,717.7898 259.6372,722.8262 264.0961,727.4446 268.9895,731.5996 274.2697,735.2507 279.5463,738.1945 285.4266,740.7699 291.5326,742.7516 297.8046,744.1201 304.1811,744.862 310.5998,744.9701 316.9977,744.4433 323.3122,743.2867 329.4815,741.5117 335.4451,739.1357 340.8178,736.3712 346.2179,732.9 351.2485,728.9121 355.6015,724.7216 359.7779,719.8463 363.452,714.5821 366.5878,708.9806 369.0199,703.4495 371.0282,697.3521 372.4241,691.0862 373.1938,684.713 373.3395,678.6725 372.8779,672.2696 371.7858,665.9436 370.0738,659.7566 367.7587,653.769 364.8631,648.0396 361.4155,642.6243 357.4496,637.5764 353.0042,632.9451 348.4212,629.0075 343.1731,625.3105 337.5853,622.1502 331.7125,619.5577 325.6123,617.5582 319.3443,616.1715 312.97,615.411 306.5517,615.2842 300.1523,615.7924 293.8344,616.9306 287.66,618.6876 281.6894,621.0462 276.3087,623.7951 270.8985,627.2506 265.8563,631.2238 261.2315,635.676 257.3006,640.2647 253.6112,645.5182"/>
    <polygon points="258.3927,633.2995 254.0006,638.4908 250.1443,644.0916 247.0285,649.7077 244.3174,655.9439 242.2374,662.418 240.8088,669.0662 240.0457,675.8233 239.9557,682.6227 240.5395,689.3976 241.7046,695.7136 243.5764,702.2509 246.0865,708.5707 249.0211,714.2835 252.6962,720.0049 256.9199,725.3341 261.6507,730.2187 266.842,734.6108 272.4428,738.4671 278.0589,741.583 284.2951,744.294 290.7692,746.3741 297.4174,747.8026 304.1745,748.5657 310.9739,748.6558 317.7488,748.072 324.0648,746.9069 330.6021,745.0351 336.5776,742.6807 342.6348,739.5904 348.3561,735.9153 353.6853,731.6915 358.57,726.9608 362.962,721.7694 366.6188,716.4896 369.9342,710.5526 372.6452,704.3163 374.7253,697.8423 376.0919,691.5668 376.8922,684.8141 377.0197,678.0152 376.4732,671.2372 375.2581,664.5466 373.3863,658.0093 370.8762,651.6896 367.9416,645.9767 364.2665,640.2553 360.0428,634.9261 355.5873,630.3003 350.4203,625.8797 344.8408,621.9926 338.9038,618.6772 332.6676,615.9662 326.1935,613.8862 319.5452,612.4576 313.1653,611.7193 306.3665,611.5917 299.5884,612.1382 293.2662,613.2685 286.7186,615.1042 280.3851,617.5795 274.3279,620.6698 268.6066,624.345 263.2774,628.5687"/>
    <line x1="286.9048" x2="262.0759" y1="651.5737" y2="693.2953"/>
    <line x1="262.3917" x2="299.6349" y1="693.4832" y2="630.9008"/>
    <line x1="301.8452" x2="264.602" y1="632.2161" y2="694.7985"/>
    <line x1="264.2862" x2="313.9439" y1="694.6106" y2="611.1674"/>
    <line x1="312.3651" x2="262.7074" y1="610.2279" y2="693.6711"/>
    <line x1="263.0232" x2="325.0953" y1="693.859" y2="589.555"/>
    <line x1="326.0425" x2="263.9705" y1="590.1187" y2="694.4227"/>
    <line x1="263.6547" x2="338.1412" y1="694.2348" y2="569.07"/>
    <line x1="337.8254" x2="263.3389" y1="568.8821" y2="694.0469"/>
    <line x1="261.7602" x2="274.1746" y1="693.1074" y2="672.2466"/>
    <line x1="277.6479" x2="265.2335" y1="674.3135" y2="695.1743"/>
    <line x1="264.9177" x2="289.7465" y1="694.9864" y2="653.2648"/>
    <polygon points="293.127,614.987 286.9555,616.7581 280.9821,619.1123 274.9343,622.2166 269.5392,625.6977 264.5026,629.6797 259.6118,634.4011 255.4548,639.2943 251.7858,644.5634 248.4704,650.498 245.9071,656.3848 243.8211,662.8548 242.4633,669.1302 241.7131,675.5068 241.5773,681.926 242.0572,688.3286 243.2315,695.0244 244.959,701.2082 247.4248,707.5432 250.3326,713.2677 253.7755,718.6871 257.9689,724.0376 262.4086,728.6758 267.2724,732.8672 272.5154,736.5733 278.4265,739.9305 284.6477,742.6708 290.7502,744.6668 297.0158,746.0689 303.7638,746.8918 310.1828,747.0366 316.961,746.5189 323.2835,745.4009 329.8282,743.5626 335.8082,741.2252 341.8648,738.1381 347.5769,734.4524 352.6023,730.4562 357.4798,725.721 361.6229,720.816 365.277,715.5367 368.4084,709.9315 371.1223,703.6987 373.0925,697.5879 374.468,691.3163 375.2624,684.5649 375.38,678.1454 374.8336,671.3694 373.6888,665.0517 371.9439,658.8728 369.615,652.8894 366.5363,646.8286 362.8588,641.1112 358.8697,636.0802 354.4168,631.4546 349.2422,627.046 343.968,623.3844 338.3672,620.2451 332.4914,617.657 326.0303,615.5436 319.7607,614.1593 313.0104,613.3554 306.2134,613.2404 299.8143,613.7655"/>
    <polygon points="299.7772,610.044 292.7136,611.2882 286.1706,613.1222 279.4893,615.7307 273.4344,618.815 267.704,622.467 262.0657,626.9002 257.165,631.6074 252.7392,636.7637 248.8295,642.3215 245.3024,648.5667 242.4269,655.1374 240.3307,661.6012 238.8654,668.2366 238.0181,675.3588 237.8857,682.1527 238.4549,689.3025 239.6606,695.9899 241.5033,702.5304 244.1207,709.2082 247.2131,715.259 250.8728,720.9845 255.3135,726.6168 260.0272,731.5113 265.1895,735.9301 270.7525,739.8324 277.0024,743.3512 283.2239,746.0838 290.0436,748.3054 297.0534,749.8239 303.8042,750.5996 310.9757,750.7106 317.7473,750.1442 324.4331,748.9296 331.3288,746.9569 337.6454,744.4518 344.0189,741.1621 349.7199,737.4643 355.0391,733.2357 359.9273,728.5155 364.3392,723.3473 368.234,717.7791 371.7444,711.5245 374.4687,705.2993 376.5822,698.8411 378.0652,692.2097 378.9315,685.0898 379.0821,678.2963 378.532,671.145 377.3442,664.4544 375.519,657.9089 373.0731,651.5692 369.8432,645.1652 366.1989,639.4299 361.7732,633.7857 357.0726,628.8786 351.6238,624.2145 346.0504,620.3272 339.7911,616.8251 333.5623,614.1091 326.7367,611.9057 320.0956,610.4671 313.3469,609.6734 306.5531,609.5319"/>
    <polygon points="326.7026,613.1727 320.0635,611.7111 313.3133,610.9061 306.1391,610.7772 299.3643,611.3392 292.677,612.5614 286.1414,614.4321 279.8202,616.9332 273.774,620.0409 268.061,623.7253 262.7358,627.951 257.8498,632.6775 253.4496,637.8594 249.5776,643.447 246.2709,649.3866 243.5612,655.6213 241.4746,662.0912 240.0311,668.7342 239.2445,675.4866 239.1223,682.2836 239.6659,689.0599 240.8699,695.7504 242.7227,702.2911 245.2067,708.6191 248.2979,714.6737 251.9667,720.3968 256.1779,725.7334 260.8911,730.6323 266.061,735.0466 271.638,738.9338 277.5686,742.2567 283.7959,744.9833 290.2601,747.0875 296.8991,748.5491 303.6494,749.3541 310.446,749.4947 317.2237,748.9696 323.9176,747.7839 330.4633,745.9488 336.798,743.4821 342.861,740.4074 348.9017,736.5349 354.2268,732.3092 359.1129,727.5827 363.5131,722.4008 367.3851,716.8132 370.6918,710.8736 373.4015,704.6389 375.4881,698.169 376.9316,691.526 377.7182,684.7736 377.8403,677.9766 377.2968,671.2004 376.0928,664.5098 374.24,657.9691 371.756,651.6411 368.6648,645.5865 364.996,639.8635 360.7848,634.5268 356.0716,629.6279 350.9017,625.2136 345.3247,621.3264 339.3941,618.0036 333.1668,615.2769"/>
    <line x1="340.2288" x2="634.6263" y1="595.3647" y2="629.8448"/>
    <polygon points="549.35,707.7961 547.2369,706.2167 544.8591,705.0736 542.3058,704.4098 539.6724,704.2501 536.6913,704.6915 534.2172,705.6075 531.9658,706.9827 529.773,709.05 528.2676,711.2166 527.2075,713.6324 526.6324,716.2072 526.5639,718.8445 527.0044,721.4457 527.9375,723.9133 529.3283,726.1552 531.1247,728.0873 533.2595,729.6373 536.0107,730.8673 538.5894,731.4246 541.2271,731.4749 543.8252,731.0164 546.2864,730.0662 548.5185,728.66 550.4381,726.8502 551.9734,724.7047 553.0668,722.3038 553.6775,719.7372 553.7825,717.1011 553.378,714.4941 552.4792,712.0138 551.1195,709.7529"/>
    <polygon points="524.8617,715.8746 524.7641,718.8873 525.2538,721.8615 526.3121,724.6839 527.8988,727.2467 529.9533,729.4523 532.3973,731.2166 535.1376,732.4723 538.0696,733.1716 541.0817,733.2876 544.0588,732.8161 546.8876,731.775 549.4601,730.204 551.6782,728.163 553.4574,725.7299 554.7299,722.9973 555.447,720.0696 555.5814,717.0583 555.1281,714.0783 554.1043,711.2433 552.5491,708.6612 550.5217,706.4306 548.0995,704.6366 545.018,703.2245 542.0776,702.5612 539.0644,702.482 536.0932,702.9898 533.2774,704.0655 530.7243,705.6678 528.5312,707.7357 526.7819,710.1905 525.543,712.9383"/>
    <polygon points="526.5217,721.3788 527.4113,723.8566 528.9709,726.4281 530.7572,728.362 533.197,730.1206 535.9544,731.3211 538.5292,731.8703 541.1612,731.9307 543.7584,731.5004 546.5681,730.4276 548.7912,729.0175 550.7132,727.2183 552.2669,725.0929 553.3979,722.7156 554.1231,719.7969 554.2123,716.7907 553.7646,714.1964 552.6731,711.394 551.2481,709.1803 549.4361,707.2704 546.9731,705.5446 544.5593,704.4936 541.618,703.8664 538.9854,703.8411 536.3941,704.3061 533.9346,705.2452 531.395,706.8561 529.4972,708.6808 527.9721,710.8268 526.8729,713.219 526.1868,716.1471 526.1088,718.7787"/>
    <polygon points="536.0326,730.4016 538.6019,730.9733 541.2335,731.0233 543.4594,730.649 545.9299,729.7408 548.1708,728.3601 550.0929,726.5619 551.6197,724.4178 552.6902,722.0132 553.2618,719.4439 553.3119,716.8123 552.9375,714.5864 552.0294,712.1159 550.6487,709.875 548.8505,707.9529 546.7063,706.4261 544.3017,705.3556 541.7324,704.784 539.1008,704.7339 536.8749,705.1083 534.4044,706.0164 532.1635,707.3971 530.2414,709.1953 528.7147,711.3395 527.6442,713.7441 527.0725,716.3134 527.0225,718.945 527.3968,721.1709 528.305,723.6414 529.6857,725.8823 531.4839,727.8044 533.628,729.3311"/>
    <polygon points="541.0161,733.7417 544.3563,733.2021 547.1703,732.1374 550.0311,730.3309 552.4445,727.9595 554.125,725.4639 555.3048,722.6962 555.9416,719.7556 555.9813,716.3724 555.4137,713.4177 554.2992,710.6231 552.6777,708.0887 550.6075,705.9055 548.1627,704.1517 545.0743,702.7698 542.1376,702.1156 538.7547,702.0558 535.7967,702.6059 532.9955,703.7039 530.4515,705.3103 528.2561,707.3676 526.3003,710.1284 525.0877,712.882 524.4161,715.8148 524.3094,718.8216 524.7716,721.7946 525.7861,724.6271 527.5415,727.5196 529.5857,729.7272 532.3349,731.6994 535.0812,732.9282 538.01,733.6172"/>
    <polygon points="509.3497,638.1702 514.8733,640.5969 521.1354,641.9616 527.1679,642.0533 533.1057,640.9844 538.7274,638.7945 543.8237,635.5653 548.2047,631.4171 551.8936,626.1762 554.3203,620.6525 555.6406,614.7655 555.8052,608.7345 554.7077,602.4202 552.5178,596.7984 549.0549,591.4055 544.8541,587.075 539.8995,583.6323 534.3759,581.2055 528.1138,579.8409 522.0813,579.7491 516.1435,580.8181 510.5218,583.008 505.4255,586.2372 501.0445,590.3854 497.5422,595.2979 494.9289,601.15 493.6087,607.037 493.4725,613.4445 494.5415,619.3823 496.7314,625.0041 500.1943,630.397 504.3951,634.7275"/>
    <polygon points="366.6585,638.658 362.2046,633.0309 357.2086,627.879 352.0212,623.4837 346.4394,619.6015 340.1757,616.0989 333.9457,613.3761 327.1205,611.1583 320.1072,609.6364 313.3537,608.8505 306.1784,608.7213 299.0263,609.3125 292.3375,610.5319 285.4369,612.5026 279.1128,614.9993 272.7271,618.2741 267.0092,621.9529 261.3821,626.4069 256.2302,631.4028 251.835,636.5903 247.7528,642.4927 244.4502,648.4357 241.5936,655.0192 239.5095,661.491 237.9876,668.5042 237.2017,675.2577 237.0725,682.433 237.6147,689.2105 238.8832,696.274 240.7329,702.8166 243.3506,709.4986 246.6254,715.8844 250.3041,721.6023 254.7581,727.2294 259.4784,732.1228 264.9415,736.7765 270.5232,740.6587 276.7869,744.1613 283.3704,747.0178 289.8422,749.1019 296.8554,750.6238 303.6089,751.4097 310.7843,751.539 317.5617,750.9967 324.6252,749.7283 331.5258,747.7576 338.1939,745.1046 344.2356,741.9861 349.9535,738.3073 355.5806,733.8534 360.7325,728.8574 365.1277,723.6699 369.0099,718.0882 372.5125,711.8245 375.2353,705.5944 377.4531,698.7693 378.9751,691.756 379.761,685.0025 379.8902,677.8272 379.2989,670.6751 378.0795,663.9863 376.1088,657.0856 373.4559,650.4175 370.3373,644.3758"/>
    <line x1="367.0267" x2="366.4079" y1="610.7616" y2="590.346"/>
    <line x1="367.8852" x2="368.5039" y1="590.3013" y2="610.7168"/>
    <line x1="368.1346" x2="366.897" y1="610.728" y2="569.8969"/>
    <line x1="366.1584" x2="367.396" y1="569.9193" y2="610.7504"/>
    <line x1="367.7653" x2="365.9089" y1="610.7392" y2="549.4925"/>
    <polygon points="365.9089,549.4925 366.6574,610.7728 368.8733,610.7056"/>
    <polygon points="242.9058,676.153 242.8307,682.5702 243.382,688.9641 244.5545,695.2737 246.3371,701.4388 248.7127,707.4005 251.6587,713.1021 255.1469,718.4889 259.144,723.5098 263.612,728.1166 268.5081,732.2656 273.7857,735.917 279.3944,739.0361 285.2807,741.5931 291.3883,743.5635 297.6591,744.9286 304.0331,745.6753 310.4496,745.7966 316.8473,745.2913 323.1652,744.1641 329.3429,742.4259 335.6658,739.9379 341.3716,737.0001 346.7635,733.5197 351.79,729.5297 356.4033,725.0684 360.5593,720.1782 364.2183,714.9059 367.5122,708.9628 370.0437,703.0656 371.9878,696.9495 373.3259,690.6729 374.0451,684.2957 374.1388,677.8788 373.6058,671.4833 372.3644,664.8029 370.5641,658.6429 368.1713,652.688 365.209,646.995 361.7053,641.6181 357.6938,636.6088 353.2126,632.0148 348.3045,627.88 343.0165,624.2437 337.3988,621.1408 331.5053,618.6007 325.392,616.6479 319.1173,615.3008 312.7411,614.5724 306.3243,614.4695 299.9281,614.9933 293.6135,616.1386 287.4408,617.8946 281.125,620.4007 275.4278,623.3549 270.0459,626.8508 265.0308,630.8552 260.4304,635.3298 256.2885,640.2319 252.4466,645.8363 249.3679,651.4672 246.8533,657.3717 244.9268,663.4933 243.6068,669.7737"/>
    <polygon points="261.4444,692.9194 265.5492,695.3622 344.1905,558.5457"/>
    <polygon points="245.8116,701.1682 248.3044,707.4949 251.2438,713.2052 254.7235,718.6034 258.7107,723.6385 263.1676,728.2628 268.0522,732.4329 273.3184,736.1093 278.9165,739.2573 284.7937,741.8472 290.8945,743.8545 297.1612,745.2604 303.9118,746.0787 310.333,746.2109 316.7367,745.7193 323.0624,744.6087 329.609,742.7697 335.5878,740.4239 341.3107,737.5089 346.7238,734.0524 352.0608,729.8385 356.6788,725.375 360.8419,720.4845 364.5107,715.213 367.6507,709.6104 370.2322,703.7295 372.2308,697.6259 373.6908,690.9845 374.4364,684.6054 374.5594,678.184 374.0587,671.781 372.939,665.4569 371.2109,659.2712 368.8908,653.2824 366.0004,647.547 362.3489,641.8106 358.3762,636.7642 353.9325,632.1271 348.7608,627.712 343.4841,624.0507 337.877,620.9187 331.9924,618.3456 325.886,616.3557 319.6152,614.9677 313.2394,614.1948 306.8186,614.0443 300.0385,614.5647 293.716,615.6935 287.5328,617.4304 281.5473,619.7591 275.8161,622.6577 270.0849,626.3174 265.0441,630.2973 260.4134,634.7476 256.2364,639.6262 252.5525,644.8872 249.3965,650.4808 246.7982,656.3543 244.7821,662.4522 243.3031,669.0894 242.5393,675.4663 242.398,681.8873 242.8804,688.2917 243.982,694.619"/>
    <line x1="239.5087" x2="238.3514" y1="757.8743" y2="758.8574"/>
    <line x1="239.7575" x2="237.443" y1="758.1672" y2="760.1333"/>
    <line x1="236.5345" x2="240.0063" y1="761.4093" y2="758.4602"/>
    <line x1="240.2551" x2="235.6261" y1="758.7531" y2="762.6852"/>
    <line x1="234.7176" x2="240.5039" y1="763.9611" y2="759.046"/>
    <line x1="240.7527" x2="233.8092" y1="759.3389" y2="765.2371"/>
    <line x1="232.9007" x2="241.0015" y1="766.513" y2="759.6318"/>
    <line x1="241.2503" x2="231.9923" y1="759.9247" y2="767.789"/>
    <line x1="232.7387" x2="241.9968" y1="768.6677" y2="760.8034"/>
    <line x1="241.748" x2="231.3326" y1="760.5105" y2="769.3578"/>
    <line x1="231.0838" x2="241.4992" y1="769.0649" y2="760.2176"/>
    <line x1="242.2456" x2="234.1447" y1="761.0963" y2="767.9775"/>
    <line x1="235.5508" x2="242.4944" y1="767.2874" y2="761.3892"/>
    <line x1="242.7432" x2="236.9569" y1="761.6821" y2="766.5973"/>
    <line x1="238.363" x2="242.992" y1="765.9072" y2="761.975"/>
    <line x1="243.2408" x2="239.769" y1="762.2679" y2="765.217"/>
    <line x1="241.1751" x2="243.4896" y1="764.5269" y2="762.5608"/>
    <line x1="243.7384" x2="242.5812" y1="762.8537" y2="763.8368"/>
    <polygon points="230.6296,769.7029 243.9872,763.1466 239.2599,757.5814"/>
    <line x1="216.2697" x2="179.361" y1="784.9775" y2="750.8805"/>
    <line x1="179.1012" x2="234.4643" y1="751.1617" y2="802.3073"/>
    <line x1="233.6849" x2="178.3217" y1="803.151" y2="752.0054"/>
    <line x1="178.5815" x2="252.3991" y1="751.7241" y2="819.9183"/>
    <line x1="252.6589" x2="178.8414" y1="819.6371" y2="751.4429"/>
    <line x1="179.6208" x2="198.0752" y1="750.5992" y2="767.6478"/>
    <line x1="196.2565" x2="177.8021" y1="769.6164" y2="752.5678"/>
    <line x1="178.0619" x2="214.9707" y1="752.2866" y2="786.3837"/>
    <polygon points="179.8806,750.318 177.5423,752.8491 261.7561,828.3019"/>
    <line x1="250.0286" x2="243.8578" y1="350.6007" y2="338.4366"/>
    <line x1="244.2" x2="249.7538" y1="338.2629" y2="349.2106"/>
    <line x1="249.0692" x2="243.5155" y1="349.5579" y2="338.6102"/>
    <line x1="243.1732" x2="248.1099" y1="338.7839" y2="348.5151"/>
    <line x1="247.1505" x2="242.8309" y1="347.4724" y2="338.9575"/>
    <line x1="242.4886" x2="246.1911" y1="339.1311" y2="346.4296"/>
    <line x1="245.2318" x2="242.1463" y1="345.3868" y2="339.3048"/>
    <line x1="241.8041" x2="244.2724" y1="339.4784" y2="344.344"/>
    <line x1="243.313" x2="241.4618" y1="343.3013" y2="339.6521"/>
    <line x1="241.1195" x2="242.3537" y1="339.8257" y2="342.2585"/>
    <line x1="241.3943" x2="240.7772" y1="341.2157" y2="339.9993"/>
    <polygon points="240.4349,340.173 250.0286,350.6007 247.2806,336.7002"/>
    <line x1="244.5423" x2="249.479" y1="338.0893" y2="347.8206"/>
    <line x1="249.2042" x2="244.8846" y1="346.4305" y2="337.9157"/>
    <line x1="245.2269" x2="248.9294" y1="337.742" y2="345.0405"/>
    <line x1="248.6546" x2="245.5692" y1="343.6504" y2="337.5684"/>
    <line x1="245.9115" x2="248.3798" y1="337.3947" y2="342.2604"/>
    <line x1="248.105" x2="246.2537" y1="340.8703" y2="337.2211"/>
    <line x1="246.596" x2="247.8302" y1="337.0475" y2="339.4803"/>
    <line x1="247.5554" x2="246.9383" y1="338.0902" y2="336.8738"/>
    <polygon points="203.6428,343.7283 207.7901,343.6345 211.4685,342.7976 214.9203,341.2755 218.0192,339.1242 220.6518,336.4221 222.8947,332.9324 224.2592,329.4154 224.9292,325.7029 224.8355,321.5556 223.9985,317.8772 222.4765,314.4254 220.3251,311.3265 217.6231,308.694 214.1334,306.451 210.6163,305.0865 206.9039,304.4165 202.7566,304.5102 199.0781,305.3472 195.6264,306.8692 192.5275,309.0206 189.6612,312.0195 187.652,315.2123 186.2874,318.7294 185.6174,322.4418 185.7112,326.5891 186.5482,330.2676 188.0702,333.7194 190.2216,336.8182 192.9236,339.4508 196.4133,341.6937 199.9303,343.0583"/>
    <polygon points="207.1549,317.1865 201.2146,318.2944 195.4102,319.9748 189.4535,322.3697 184.1012,325.1747 179.0471,328.4869 174.3391,332.275 170.0219,336.5031 166.1363,341.1309 162.7193,346.1148 159.8032,351.4074 157.2846,357.3128 155.4834,363.0809 154.2517,368.9968 153.6012,375.0044 153.5382,381.0468 154.0631,387.0668 155.171,393.0071 156.8514,398.8115 159.0884,404.4249 161.8608,409.7942 165.1422,414.8683 168.9015,419.5993 173.1032,423.9422 178.0075,428.0853 182.9914,431.5024 188.284,434.4185 193.835,436.806 199.592,438.6423 205.5003,439.9099 211.5039,440.5969 217.9234,440.6835 223.9433,440.1586 229.8836,439.0507 235.688,437.3702 241.6448,434.9754 246.9971,432.1704 252.0511,428.8582 256.7591,425.0701 261.0764,420.842 264.9619,416.2141 268.3789,411.2303 271.295,405.9377 273.6825,400.3866 275.5188,394.6296 276.7865,388.7213 277.4735,382.7178 277.5601,376.2982 277.0352,370.2783 275.9272,364.338 274.2468,358.5336 271.852,352.5769 269.047,347.2246 265.7348,342.1705 261.9466,337.4625 257.7186,333.1453 253.0907,329.2597 248.1069,325.8427 242.8143,322.9266 237.2632,320.5391 231.5062,318.7028 225.5979,317.4351 219.5943,316.7481 213.1748,316.6616"/>
    <line x1="341.5027" x2="341.5944" y1="334.3804" y2="335.8075"/>
    <line x1="341.8741" x2="342.0575" y1="334.3565" y2="337.2107"/>
    <line x1="342.5206" x2="342.2455" y1="338.6139" y2="334.3327"/>
    <line x1="342.6169" x2="342.9837" y1="334.3088" y2="340.0171"/>
    <line x1="343.4468" x2="342.9883" y1="341.4203" y2="334.2849"/>
    <line x1="343.3597" x2="343.9099" y1="334.2611" y2="342.8235"/>
    <line x1="344.373" x2="343.7311" y1="344.2267" y2="334.2372"/>
    <line x1="344.1025" x2="344.8362" y1="334.2133" y2="345.6299"/>
    <line x1="345.2993" x2="344.4739" y1="347.0331" y2="334.1895"/>
    <line x1="344.8453" x2="345.7624" y1="334.1656" y2="348.4363"/>
    <line x1="346.2255" x2="345.2166" y1="349.8396" y2="334.1417"/>
    <line x1="345.588" x2="346.6886" y1="334.1179" y2="351.2428"/>
    <line x1="347.1517" x2="345.9594" y1="352.646" y2="334.094"/>
    <line x1="346.3308" x2="347.6148" y1="334.0701" y2="354.0492"/>
    <line x1="348.3576" x2="347.0736" y1="354.0014" y2="334.0224"/>
    <line x1="347.445" x2="348.6373" y1="333.9985" y2="352.5505"/>
    <line x1="348.9169" x2="347.8164" y1="351.0996" y2="333.9746"/>
    <line x1="348.1878" x2="349.1966" y1="333.9508" y2="349.6486"/>
    <line x1="349.4763" x2="348.5592" y1="348.1977" y2="333.9269"/>
    <line x1="348.9306" x2="349.756" y1="333.903" y2="346.7467"/>
    <line x1="350.0357" x2="349.302" y1="345.2958" y2="333.8792"/>
    <line x1="349.6734" x2="350.3154" y1="333.8553" y2="343.8448"/>
    <line x1="350.595" x2="350.0448" y1="342.3939" y2="333.8314"/>
    <line x1="350.4162" x2="350.8747" y1="333.8076" y2="340.943"/>
    <line x1="351.1544" x2="350.7876" y1="339.492" y2="333.7837"/>
    <line x1="351.1589" x2="351.4341" y1="333.7598" y2="338.0411"/>
    <line x1="351.7138" x2="351.5303" y1="336.5901" y2="333.736"/>
    <line x1="351.9017" x2="351.9934" y1="333.7121" y2="335.1392"/>
    <polygon points="352.2731,333.6882 341.1313,334.4043 348.0779,355.4524"/>
    <line x1="346.7022" x2="348.0779" y1="334.0462" y2="355.4524"/>
    <polygon points="351.9539,314.089 358.2015,312.6542 364.0394,310.0066 368.951,306.5008 373.1196,302.1378 376.5706,296.7358 378.8794,290.7557 379.9259,284.8128 379.7987,278.4038 378.4007,272.1478 375.7875,266.2944 372.3107,261.3623 367.6759,256.934 362.2536,253.5149 356.6243,251.3415 350.3111,250.2298 343.903,250.3946 338.0139,251.7107 332.4752,254.1056 327.1927,257.7371 322.7372,262.3458 319.4588,267.4119 317.0798,273.3643 315.931,279.6708 316.0581,286.0798 317.3395,291.9765 319.8836,297.8603 323.5461,303.1213 328.1809,307.5496 333.6032,310.9687 339.5968,313.2423 345.5457,314.2538"/>
  </g>
</svg>
