<?xml version="1.0" encoding="utf-8" ?>
<svg xmlns="http://www.w3.org/2000/svg" xmlns:cc="http://creativecommons.org/ns" xmlns:dc="http://purl.org/dc/elements/1.1/" xmlns:ev="http://www.w3.org/2001/xml-events" xmlns:inkscape="http://www.inkscape.org/namespaces/inkscape" xmlns:rdf="http://www.w3.org/1999/02/22-rdf-syntax-ns" xmlns:sodipodi="http://sodipodi.sourceforge.net/DTD/sodipodi-0.dtd" xmlns:xlink="http://www.w3.org/1999/xlink" baseProfile="tiny" height="29.7cm" version="1.2" viewBox="0 0 793.7007874015749 1122.5196850393702" width="21.0cm">
  <metadata>
    <rdf:RDF>
      <cc:Work>
        <dc:format>image/svg+xml</dc:format>
        <dc:source>vsk save -s 36 -c C:\Users\marti\Documents\git\putti-plotter-plot\sixfeet\config\1.json C:\Users\marti\Documents\git\putti-plotter-plot\sixfeet\sketch_sixfeet.py</dc:source>
        <dc:date>2023-11-19T17:46:20.041735</dc:date>
      </cc:Work>
    </rdf:RDF>
  </metadata>
  <defs/>
  <g fill="none" id="layer1" inkscape:groupmode="layer" inkscape:label="1" stroke="#0000ff" style="display:inline">
    <polygon points="181.4194,757.4402 178.5613,762.3273 176.0379,767.8134 174.0819,773.5265 172.7813,779.0366 171.9762,785.0213 171.7745,790.6792 172.1513,796.7061 173.0561,802.2948 174.6003,808.1327 176.7266,813.7846 179.4132,819.1927 182.4164,823.992 185.8609,828.4851 189.9865,832.8947 194.5366,836.8648 199.1465,840.1513 204.3831,843.1585 209.5452,845.4835 214.9044,847.3089 220.7837,848.6868 226.3958,849.4327 232.431,849.6384 238.456,849.233 244.0403,848.3016 249.5113,846.8452 255.1666,844.7279 260.5789,842.0498 265.383,839.0542 269.8815,835.6168 274.2976,831.4982 278.2749,826.9544 281.5687,822.3497 284.5842,817.1178 286.9174,811.9595 288.8553,806.2403 290.1385,800.7261 290.9246,794.7388 291.1084,789.0803 290.7126,783.0547 289.79,777.4688 288.3423,771.9955 286.2339,766.3369 283.7472,761.2508 280.5764,756.1116 276.9025,751.3192 273.0345,747.185 268.7922,743.4359 263.8975,739.8994 258.6704,736.8757 253.5158,734.5343 247.7996,732.5874 242.2875,731.2955 236.3015,730.4999 230.6432,730.3071 224.9922,730.6514 219.0297,731.6071 213.5541,733.0462 207.8922,735.1456 202.4714,737.8066 197.6579,740.787 192.8597,744.4533 188.7194,748.3147 184.7278,752.8459"/>
    <polygon points="201.8409,748.8914 289.5711,757.4155 289.7749,754.9629"/>
    <line x1="214.4029" x2="289.6875" y1="749.7587" y2="756.014"/>
    <line x1="289.6584" x2="214.3738" y1="756.3644" y2="750.1091"/>
    <polygon points="227.3761,753.2529 230.9476,759.0368 234.8378,764.1444 239.4647,769.1244 244.568,773.615 249.779,777.3656 255.6573,780.7794 261.4975,783.4465 267.5643,785.5479 274.174,787.1354 280.9097,788.0516 287.3256,788.2919 294.111,787.8823 300.4514,786.8718 307.0279,785.152 313.3987,782.7809 319.1686,779.9649 324.9575,776.4015 330.3595,772.2751 335.3202,767.6274 339.5547,762.8014 343.5181,757.2787 346.9072,751.3861 349.5498,745.5348 351.6258,739.4593 353.1856,732.8429 354.0735,726.1034 354.287,719.6866 353.8489,712.903 352.8119,706.5669 351.0646,699.9976 348.8167,693.9836 346.0088,688.2098 342.4535,682.4159 338.5775,677.2975 333.9645,672.3046 328.8738,667.7998 323.6733,664.0346 318.1394,660.7793 311.9718,657.921 305.911,655.8026 299.3057,654.1967 292.9488,653.2959 286.1573,653.0035 279.3708,653.3942 272.6578,654.464 266.4463,656.0883 260.0689,658.4417 254.2912,661.2415 248.4924,664.7888 243.3686,668.6575 238.3692,673.2635 233.8573,678.348 229.8785,683.8597 226.6465,689.4072 223.814,695.5867 221.721,701.6564 220.1428,708.2684 219.2686,714.6289 219.0047,721.4215 219.4238,728.2063 220.5217,734.9148 222.2874,741.4793 224.5521,747.4869"/>
    <polygon points="228.7111,752.3322 232.2759,758.1213 236.4171,763.5132 240.8179,768.1892 245.6521,772.4157 250.8739,776.1527 256.434,779.3648 262.2798,782.0217 268.356,784.0982 274.6052,785.5748 281.3448,786.4688 287.7628,786.6726 294.1703,786.2521 300.5066,785.2112 306.7119,783.5598 312.7274,781.3135 318.8268,778.3104 324.2752,774.9122 329.3678,771.0009 334.0564,766.6135 338.2967,761.7914 342.2533,756.2627 345.4495,750.6934 348.0897,744.84 350.1488,738.7579 351.6075,732.5045 352.4519,726.139 352.6741,719.7216 352.2719,713.313 351.2491,706.9737 349.6155,700.7637 347.3864,694.7418 344.4007,688.6338 341.0182,683.1757 336.877,677.7838 332.4762,673.1078 327.642,668.8813 322.4202,665.1444 316.8601,661.9322 311.0143,659.2753 304.938,657.1988 298.6889,655.7222 292.3258,654.8596 285.9091,654.6191 279.4993,655.003 273.1571,656.0076 266.9425,657.6234 260.9142,659.8353 255.1292,662.6222 249.33,666.1704 244.2151,670.0525 239.5015,674.413 235.2336,679.2107 231.452,684.4003 228.1922,689.9326 225.4853,695.7554 223.3566,701.8136 221.7555,708.421 220.8746,714.7815 220.62,721.5754 221.0222,727.9841 222.045,734.3233 223.6786,740.5333 225.9077,746.5552"/>
    <polygon points="235.1667,746.511 241.3205,745.0239 238.7266,741.2758"/>
    <line x1="235.1667" x2="240.0235" y1="746.511" y2="743.1499"/>
    <line x1="240.2397" x2="236.1923" y1="743.4622" y2="746.2631"/>
    <line x1="235.76" x2="239.8073" y1="745.6384" y2="742.8375"/>
    <line x1="239.5912" x2="236.3533" y1="742.5252" y2="744.7659"/>
    <line x1="236.9466" x2="239.375" y1="743.8934" y2="742.2128"/>
    <line x1="239.1589" x2="237.5399" y1="741.9005" y2="743.0208"/>
    <line x1="238.1333" x2="238.9427" y1="742.1483" y2="741.5881"/>
    <line x1="240.4558" x2="237.218" y1="743.7746" y2="746.0153"/>
    <line x1="238.2436" x2="240.672" y1="745.7675" y2="744.0869"/>
    <line x1="240.8881" x2="239.2692" y1="744.3993" y2="745.5196"/>
    <line x1="240.2948" x2="241.1043" y1="745.2718" y2="744.7116"/>
    <line x1="239.5269" x2="289.7167" y1="751.4934" y2="755.6636"/>
    <line x1="289.7458" x2="264.6509" y1="755.3132" y2="753.2281"/>
    <line x1="264.5053" x2="289.6002" y1="754.98" y2="757.0651"/>
    <line x1="289.6293" x2="239.4396" y1="756.7147" y2="752.5446"/>
    <polygon points="225.9664,762.4698 230.3197,768.1711 235.2067,773.4221 240.5811,778.1732 246.3918,782.3792 252.584,786.0004 259.0989,789.0024 265.8748,791.3569 273.2186,793.1112 280.3271,794.0734 287.4954,794.34 294.6557,793.9085 302.1096,792.7045 309.0416,790.8599 315.7615,788.3501 322.2056,785.1989 328.3127,781.4361 334.0251,777.0974 339.2887,772.2239 344.0535,766.8617 348.4807,760.7454 352.086,754.544 355.0713,748.0214 357.4084,741.2395 359.075,734.2625 360.0555,727.1566 360.3361,719.6113 359.8862,712.4522 358.7424,705.3707 356.8008,698.0741 354.2738,691.3606 351.1061,684.9247 347.3276,678.8272 342.9743,673.1259 338.0873,667.8749 332.713,663.1239 326.9022,658.9178 320.7101,655.2966 314.1952,652.2946 307.4193,649.9402 300.0754,648.1858 292.967,647.2236 285.7987,646.957 278.6384,647.3886 271.554,648.5142 264.6125,650.3233 257.8799,652.7986 251.0885,656.0981 244.9813,659.8609 239.2689,664.1996 234.0054,669.0731 229.2406,674.4353 224.8134,680.5516 221.2081,686.7531 218.2227,693.2756 215.8857,700.0575 214.219,707.0345 213.2386,714.1404 212.9579,721.6857 213.4078,728.8449 214.5516,735.9264 216.3785,742.8631 218.871,749.5894 222.188,756.3723"/>
    <polygon points="239.3956,769.6191 244.2197,773.8532 249.7381,777.8197 255.6246,781.216 261.4692,783.8695 267.9006,786.0655 274.1475,787.5408 280.8819,788.454 287.2961,788.6955 294.0801,788.2914 300.7899,787.2127 307.3587,785.4701 313.374,783.2303 319.4828,780.2524 325.2642,776.68 330.6604,772.5488 335.3545,768.1711 339.8517,763.0758 343.8182,757.5575 347.2145,751.671 350.0068,745.4751 352.1671,739.0316 353.6077,732.7766 354.4525,726.4137 354.6894,719.6218 354.2476,712.8401 353.1317,706.1364 351.4686,699.9368 349.0795,693.5746 346.0678,687.4824 342.6785,682.0314 338.7908,676.9239 334.1696,671.941 329.0743,667.4438 323.556,663.4773 317.6695,660.081 311.8249,657.4276 305.7563,655.3366 299.1465,653.7562 292.4122,652.8431 285.6203,652.6062 279.214,653.0056 272.5041,654.0843 265.9353,655.8269 259.9201,658.0667 253.8112,661.0446 248.0299,664.617 242.6337,668.7482 237.9395,673.126 233.4424,678.2212 229.4758,683.7396 226.0795,689.6261 223.2873,695.822 221.23,701.9021 219.6864,708.5205 218.8106,715.2598 218.6047,721.6753 219.0464,728.4569 220.1624,735.1607 221.8254,741.3602 224.2145,747.7224 227.2263,753.8146 230.6155,759.2657 234.7467,764.6618"/>
    <polygon points="274.1673,787.9547 280.9069,788.8608 287.7032,789.0938 294.4891,788.6512 300.828,787.6169 307.4026,785.8794 313.7723,783.4982 319.8744,780.4968 325.6485,776.9047 330.7493,773.0017 335.7261,768.3676 340.2186,763.2625 344.1824,757.7369 347.4052,752.1812 350.234,745.9973 352.4353,739.5632 353.9874,732.9424 354.8432,726.5769 355.0949,719.7813 354.6711,712.9942 353.576,706.2827 351.8204,699.713 349.5714,693.6968 346.5868,687.5865 343.0106,681.8025 339.1217,676.6909 334.5014,671.7013 329.4088,667.1948 323.8941,663.2158 318.0119,659.8035 311.8202,656.9918 305.38,654.8082 299.1268,653.3423 292.3871,652.4362 285.5908,652.2033 278.805,652.6458 272.466,653.6801 265.8915,655.4176 259.5217,657.7988 253.7506,660.6177 247.9568,664.1779 242.5447,668.2954 237.5679,672.9295 233.0754,678.0345 229.1117,683.5601 225.7157,689.4517 222.921,695.6512 220.8587,701.7339 219.3066,708.3546 218.4191,715.0968 218.1991,721.5158 218.6229,728.3028 219.718,735.0143 221.4736,741.5841 223.8724,747.9472 226.7073,753.7105 230.2834,759.4945 234.4158,764.8952 239.0637,769.8592 244.1811,774.3375 249.3999,778.0813 255.2821,781.4935 261.4739,784.3053 267.9141,786.4888"/>
    <line x1="280.8826" x2="216.7166" y1="765.1965" y2="675.5072"/>
    <polygon points="216.2716,700.1746 214.607,707.1538 213.6327,714.2623 213.3581,721.432 213.7859,728.5942 214.9119,735.6802 216.7254,742.6222 219.209,749.3537 222.3388,755.81 226.2985,762.241 230.6544,767.9423 235.547,773.1905 240.9292,777.9351 246.7496,782.1308 252.9523,785.7372 259.4779,788.7199 266.2638,791.0502 273.2452,792.7059 280.3549,793.671 287.525,793.9364 294.6866,793.4993 301.7712,792.3642 308.7108,790.5418 315.439,788.0495 321.8913,784.9114 328.0059,781.1574 333.7241,776.8235 338.9911,771.9513 343.7565,766.5875 347.9746,760.7834 351.605,754.5947 354.6129,748.0806 356.9694,741.3037 358.6521,734.3288 359.6447,727.2229 359.9377,720.0539 359.5284,712.8906 358.4206,705.8017 356.625,698.8551 354.1588,692.1173 350.8644,685.3214 347.1026,679.2117 342.5176,673.2105 337.6115,667.975 332.2171,663.2443 326.3859,659.0636 320.1739,655.4732 313.6407,652.5073 306.8487,650.1945 299.8631,648.5568 292.7509,647.61 285.5802,647.3632 278.4197,647.8186 271.3381,648.9721 264.4032,650.8124 257.6814,653.3219 251.2372,656.4767 245.1324,660.2464 239.4254,664.595 234.1709,669.4808 229.4194,674.8569 225.2162,680.6718 221.6018,686.8699 218.6107,693.3917"/>
    <polygon points="217.3065,708.0826 216.4184,714.822 216.1837,721.6157 216.6473,728.7757 217.756,735.4823 219.6215,742.4106 222.0301,748.7672 225.0399,754.8622 228.623,760.6389 232.7461,766.0434 237.3706,771.0256 242.4537,775.539 248.2643,779.7482 254.1371,783.1714 260.3124,786.0129 266.7327,788.2461 273.7096,789.9207 280.4441,790.8449 287.6142,791.1118 294.3988,790.6908 301.1113,789.6181 308.0494,787.7898 314.4189,785.4153 320.53,782.4381 326.6374,778.6725 332.0419,774.5495 337.2875,769.6541 341.7736,764.547 345.7467,759.0313 349.1699,753.1585 352.0114,746.9832 354.3504,740.2001 355.9192,733.586 356.8434,726.8514 357.1103,719.6814 356.6893,712.8967 355.6166,706.1843 353.9021,699.6064 351.4138,692.8766 348.2541,686.4348 344.671,680.6582 340.548,675.2536 335.9234,670.2715 330.5455,665.5219 325.0298,661.5488 319.157,658.1256 312.6309,655.1439 306.1986,652.9451 299.2129,651.308 292.4735,650.4199 285.3021,650.1914 278.5199,650.6488 271.8132,651.7575 264.885,653.623 258.5283,656.0316 252.4333,659.0414 246.6567,662.6245 241.2521,666.7475 236.27,671.3721 231.7566,676.4552 227.5473,682.2657 224.1241,688.1386 221.1424,694.6647 218.9437,701.0969"/>
    <polygon points="214.1867,736.1493 216.0263,743.087 218.5285,749.8141 221.8523,756.5986 225.6343,762.6987 230.2331,768.6926 235.1459,773.9252 240.542,778.6579 246.3706,782.8464 252.9131,786.6242 259.4543,789.5784 266.2507,791.8859 273.2385,793.525 280.3521,794.4804 287.9026,794.7376 295.0647,794.2686 302.1478,793.1088 309.0855,791.2692 315.8126,788.767 322.5971,785.4433 328.6972,781.6612 334.4028,777.3067 339.6604,772.4206 344.4205,767.0488 348.8449,760.925 352.4498,754.7185 355.5769,747.8412 357.8844,741.0448 359.5235,734.057 360.4789,726.9435 360.7415,719.7708 360.2671,712.2309 359.1073,705.1478 357.1524,697.8502 354.6159,691.1359 351.4418,684.6985 347.6597,678.5983 343.3052,672.8927 338.4192,667.6352 332.7521,662.6391 326.9235,658.4507 320.717,654.8458 314.1909,651.8582 307.4064,649.5161 300.0555,647.7721 292.942,646.8167 285.3915,646.5594 278.2294,647.0285 271.1463,648.1882 264.2086,650.0278 257.4814,652.53 251.0279,655.6713 244.5968,659.6358 238.8912,663.9903 233.3703,669.1474 228.6376,674.5435 224.4492,680.372 220.8443,686.5785 217.7172,693.4558 215.4097,700.2522 213.7706,707.24 212.8152,714.3536 212.5525,721.5262 212.985,728.6906"/>
    <line x1="250.452" x2="269.9928" y1="692.2365" y2="702.7995"/>
    <line x1="270.4926" x2="250.9517" y1="701.8751" y2="691.312"/>
    <polygon points="251.1183,691.0039 250.2854,692.5446 299.554,718.1819"/>
    <line x1="250.7851" x2="289.8668" y1="691.6202" y2="712.7463"/>
    <line x1="289.7003" x2="250.6186" y1="713.0544" y2="691.9283"/>
    <polygon points="248.6434,665.1741 243.2354,669.2957 238.5346,673.6711 234.2726,678.475 230.2813,683.9798 226.8664,689.8596 224.2019,695.7028 222.0019,702.1365 220.5308,708.3877 219.6627,714.7508 219.4095,721.5456 219.8439,728.3312 220.8814,734.6688 222.6335,741.2387 224.8897,747.2514 227.7091,753.0214 231.2797,758.8079 235.4164,764.2043 239.805,768.8928 244.6209,773.1413 249.8201,776.911 255.3552,780.1675 261.5259,783.0233 267.9534,785.2413 274.2005,786.73 280.9376,787.6492 287.3552,787.8883 293.7663,787.5141 300.4825,786.4533 307.0572,784.7196 313.0762,782.4804 319.1854,779.4953 324.6507,776.1229 330.0586,772.0014 334.7595,767.6259 339.0215,762.822 343.0127,757.3172 346.2537,751.7729 349.0922,745.5943 351.1871,739.5236 352.7633,732.9093 353.6314,726.5462 353.8845,719.7514 353.4923,713.3414 352.4126,706.6282 350.7752,700.4184 348.4044,694.0457 345.585,688.2756 342.0144,682.4891 337.8777,677.0928 333.489,672.4042 328.3775,667.9204 323.1572,664.18 317.2679,660.7816 311.4172,658.1335 304.9773,655.9517 298.722,654.4981 292.3565,653.6479 285.9389,653.4088 279.5278,653.783 272.8116,654.8438 266.2368,656.5774 260.2178,658.8166 254.4399,661.6198"/>
    <polygon points="252.9128,659.2373 247.1192,662.7962 241.6979,666.8999 236.6999,671.5098 231.9353,676.8768 227.9503,682.386 224.3442,688.591 221.5303,694.7807 219.3296,701.2141 217.7629,707.8304 216.8448,714.5675 216.5889,721.7397 217.0245,728.5251 218.1158,735.2363 219.8524,741.8101 222.3675,748.5318 225.3728,754.6309 228.9551,760.41 233.0807,765.8147 237.7107,770.794 242.8016,775.3012 248.6222,779.4996 254.5055,782.9081 260.6915,785.7303 267.1218,787.9397 274.1077,789.584 281.2251,790.505 288.0216,790.7017 294.8052,790.2386 301.5119,789.1202 308.0787,787.357 314.4436,784.9656 320.5468,781.9685 326.3307,778.394 332.0295,774.0317 336.9901,769.3816 341.4766,764.2725 345.4468,758.7527 348.8632,752.874 351.6938,746.6918 353.9118,740.2644 355.4964,733.6523 356.4654,726.5412 356.7078,719.7462 356.2905,712.9597 355.2173,706.2456 353.4984,699.6671 351.15,693.2862 348.1942,687.163 344.446,681.0427 340.3349,675.627 335.4479,670.3712 330.3449,665.8778 324.8304,661.9002 318.9563,658.4758 312.778,655.6369 306.3536,653.4103 299.7436,651.8168 293.0103,650.8714 286.2171,650.5832 279.0521,650.9947 272.3366,652.0588 265.3954,653.8825 259.024,656.2567"/>
    <polygon points="285.4316,651.8025 278.6483,652.258 271.943,653.3801 265.7407,655.0423 259.3729,657.4238 253.271,660.4216 247.4944,664.0065 242.0995,668.1436 237.4023,672.5216 232.8963,677.6124 228.9143,683.1228 225.4951,688.999 222.6721,695.1837 220.4728,701.6167 218.9185,708.2352 218.0245,714.9747 217.7995,721.7695 218.2456,728.5534 219.3585,735.2603 221.0122,741.4648 223.3849,747.8359 226.3744,753.9419 229.9514,759.7234 233.8378,764.8348 238.4526,769.8272 243.5372,774.3402 249.0421,778.3297 254.9136,781.7569 261.0945,784.5884 267.5244,786.7966 274.1408,788.36 280.8791,789.2632 287.6736,789.4976 294.4581,789.0607 300.7969,788.0357 307.3733,786.3118 313.7476,783.9478 319.8577,780.9668 325.6441,777.3977 331.0503,773.2755 335.7595,768.9104 340.2795,763.8319 344.2766,758.3325 347.7118,752.4657 350.5518,746.2888 352.7688,739.8618 354.3413,733.2476 355.2537,726.5106 355.4974,719.7164 355.0699,712.9313 353.9754,706.2214 352.2245,699.6522 349.8343,693.2877 347.0108,687.5206 343.4497,681.7293 339.3348,676.3175 334.7063,671.3378 329.6093,666.8388 324.0935,662.8644 318.2126,659.4533 312.024,656.6387 305.5881,654.4482 298.9674,652.903 292.2267,652.0183"/>
    <polygon points="292.9113,648.0284 285.7395,647.7644 278.5765,648.2069 271.4918,649.3517 264.5539,651.1876 257.8303,653.6969 251.3859,656.8553 245.2835,660.6321 239.582,664.9906 234.3367,669.8888 229.5986,675.279 225.4135,681.109 221.822,687.3224 218.8589,693.8588 216.553,700.6549 214.9266,707.6448 213.9954,714.7608 213.7686,721.9339 214.2482,729.0945 215.4297,736.1732 217.3016,743.1014 219.8457,749.812 222.8538,755.9096 226.6306,762.0121 230.9892,767.7136 235.8873,772.9588 241.2775,777.697 247.1075,781.8821 253.3209,785.4736 259.8573,788.4366 266.6534,790.7426 273.2717,792.3006 280.3827,793.2686 287.5545,793.5327 294.7175,793.0901 301.8023,791.9454 308.7401,790.1094 315.4638,787.6001 321.9081,784.4417 328.0106,780.665 333.4229,776.5496 338.6935,771.6788 343.4595,766.3132 347.6748,760.5049 351.2984,754.3103 354.2954,747.7893 356.6365,741.0053 358.2991,734.0239 359.2671,726.9128 359.5312,719.741 359.0886,712.578 357.9439,705.4933 356.1079,698.5554 353.5986,691.8317 350.4403,685.3874 346.6635,679.2849 342.3049,673.5834 337.4068,668.3382 332.0166,663.6001 326.5034,659.6208 320.3088,655.9971 313.7879,653.0002 307.0038,650.6591 300.0224,648.9964"/>
    <polygon points="349.6801,685.6798 346.1063,679.8983 341.7612,674.1898 336.8701,668.9414 331.7767,664.4409 325.966,660.2333 319.7659,656.6241 313.2377,653.6491 306.4461,651.3378 299.8299,649.7811 292.7203,648.8216 285.9281,648.5689 278.7668,648.9974 271.6836,650.1356 264.7485,651.9722 258.3775,654.34 251.9263,657.4785 245.819,661.2427 240.1161,665.5953 235.1377,670.2226 230.3803,675.5925 226.1803,681.4087 222.5793,687.6136 219.6128,694.1457 217.3104,700.9403 215.7624,707.5585 214.8123,714.6694 214.5684,721.4618 215.0063,728.6226 216.1537,735.7043 217.8852,742.2769 220.3756,749.0049 223.5225,755.452 227.2947,761.5544 231.6548,767.2515 236.5596,772.4871 241.9606,777.2091 247.4865,781.1666 253.696,784.7595 260.232,787.7174 266.6664,789.9072 273.6498,791.5503 280.3856,792.4592 287.5548,792.726 294.7149,792.2788 301.7952,791.122 308.3655,789.382 315.0902,786.8827 321.2022,783.9093 327.3193,780.1611 333.0335,775.8235 338.2883,770.9393 342.7955,765.8518 347.0107,760.0466 350.628,753.8512 353.6115,747.3269 355.8266,740.9012 357.4971,733.9243 358.4326,727.1921 358.7275,720.0241 358.3084,712.8622 357.1795,705.7774 355.352,698.84 352.8439,692.1186"/>
    <line x1="349.5403" x2="229.6326" y1="692.5495" y2="536.6988"/>
    <polygon points="222.3752,509.8223 229.4139,511.2258 236.5578,511.9173 243.3576,511.9092 250.4998,511.2007 257.1687,509.8728 264.0375,507.7914 270.3217,505.1942 276.3312,502.0123 282.3164,498.0513 287.8749,493.5107 292.6963,488.7159 297.2676,483.1827 301.0666,477.5431 304.4769,471.2278 307.2375,464.6027 309.2283,458.1008 310.6503,451.0659 311.3607,443.9238 311.3705,437.124 310.6809,429.98 309.3706,423.3076 307.3074,416.4333 304.7268,410.1422 301.3683,403.7992 297.3915,397.8245 292.8362,392.278 288.0287,387.4692 282.4834,382.9125 276.8338,379.1284 270.8506,375.8975 264.2328,373.1195 257.3701,371.0181 250.7051,369.6709 243.9423,368.9622 236.7652,368.9139 229.6194,369.5846 222.5766,370.9677 215.7078,373.0491 209.4235,375.6463 203.0894,379.0215 197.4289,382.7892 192.1514,387.077 187.0489,392.1246 182.4776,397.6578 178.4835,403.621 175.1066,409.9542 172.5078,416.2378 170.517,422.7396 169.0949,429.7746 168.3846,436.9166 168.3748,443.7164 169.0644,450.8605 170.3746,457.5328 172.4379,464.4071 175.1793,471.0402 178.377,477.0412 182.3538,483.016 186.9091,488.5624 191.7166,493.3712 197.2619,497.9279 202.9115,501.712 208.8946,504.9429 215.5124,507.721"/>
    <polygon points="243.1421,511.121 250.284,510.4266 256.9525,509.1047 263.8193,507.0223 270.0988,504.4176 276.4234,501.0282 282.0696,497.2419 287.3265,492.9313 292.1456,488.1362 296.4825,482.901 300.4929,476.9507 303.718,470.9661 306.4828,464.3446 308.4708,457.8435 309.8825,450.8081 310.5561,444.0433 310.5777,437.2451 309.8928,430.1023 308.5799,423.432 306.6331,416.9185 303.9103,410.2795 300.7231,404.2747 296.7505,398.2991 292.1933,392.7565 287.379,387.9566 282.1264,383.6408 276.1601,379.6542 270.1627,376.4531 263.8858,373.8421 257.0211,371.7528 250.354,370.4243 243.5901,369.7416 236.4145,369.7285 229.2744,370.4419 222.6095,371.7816 216.1038,373.7545 209.4758,376.5038 203.4838,379.7149 197.8275,383.4862 192.5591,387.7827 187.4725,392.8439 183.1497,398.0908 179.1551,404.0517 175.946,410.0448 173.3266,416.3182 171.2282,423.1801 169.8908,429.8455 169.1797,436.9858 169.1763,443.784 169.8803,450.925 171.211,457.5918 173.1752,464.1001 175.7548,470.3899 179.1188,476.7281 182.8825,482.3894 187.425,487.9442 192.2264,492.7569 197.4675,497.0867 203.0998,500.8937 209.0714,504.1428 215.6818,506.934 222.5409,509.0416 229.2045,510.3879 236.3439,511.1085"/>
    <polygon points="255.3608,502.9259 261.1512,501.199 267.097,498.7784 272.7724,495.7777 278.1207,492.2268 282.8081,488.4138 287.3733,483.9004 291.4665,478.9548 295.0469,473.6262 298.079,467.9676 300.5326,462.0352 302.3833,455.888 303.5579,449.9609 304.1914,443.5725 304.1856,437.1527 303.5407,430.7655 302.3555,424.8404 300.4938,418.6966 298.1908,413.1103 295.1818,407.4394 291.6231,402.0962 287.5501,397.134 283.0033,392.602 278.3315,388.7699 272.9976,385.1973 267.3346,382.1735 261.7543,379.856 255.6153,377.9782 249.3199,376.721 243.3079,376.116 236.8881,376.0935 230.4981,376.7103 224.2012,377.9603 218.0601,379.831 212.1357,382.3039 206.4871,385.3544 201.4728,388.726 196.5165,392.8063 191.9912,397.3598 187.9417,402.3412 184.6012,407.3763 181.7473,412.7023 179.2763,418.6274 177.4076,424.7691 176.1597,431.0664 175.5634,437.0793 175.5503,443.4991 176.1765,449.8882 177.4357,456.1832 179.3155,462.3216 181.7971,468.2423 184.6605,473.5632 188.2348,478.8959 192.3224,483.8461 196.6019,488.1118 201.2625,491.9575 206.5858,495.5458 211.8992,498.423 217.8134,500.9201 223.9469,502.8158 230.2386,504.0914 236.6261,504.7343 243.0458,504.738 249.434,504.1024"/>
    <polygon points="260.3353,498.5271 265.9268,496.2441 271.268,493.4245 276.3074,490.0955 280.9966,486.289 285.2905,482.0416 289.1479,477.3942 292.5316,472.3914 295.4092,467.0813 297.753,461.5149 299.5405,455.7458 300.7544,449.8293 301.3832,443.8225 301.4207,437.7829 300.8125,431.3949 299.6359,425.471 297.8848,419.6907 295.5761,414.1097 292.732,408.7815 289.3799,403.7575 285.5519,399.0858 281.2848,394.8115 276.6197,390.9755 271.6014,387.6148 266.2781,384.7617 260.701,382.4435 254.9237,380.6826 249.0017,379.4958 242.992,378.8947 236.9524,378.8849 230.9407,379.4666 225.015,380.6342 219.232,382.3764 213.6475,384.6765 208.315,387.5124 203.2858,390.8569 198.6083,394.6777 194.3274,398.9382 190.4843,403.5975 187.1159,408.6106 184.2546,413.9295 181.9279,419.5031 180.1581,425.2777 178.9623,431.1978 178.352,437.2066 178.3329,443.2462 178.9054,449.2587 180.0639,455.1863 181.7972,460.9719 184.0888,466.56 186.9165,471.8968 190.2533,476.9311 194.067,481.6144 198.3209,485.9018 202.9742,489.7521 207.9822,493.1281 213.2968,495.9976 218.8667,498.3329 224.6386,500.1115 230.5569,501.3164 236.5647,501.9359 242.6043,501.9642 248.6177,501.4009 254.547,500.2515"/>
    <polygon points="263.2211,505.1185 269.4929,502.4981 275.4753,499.2715 280.8072,495.6958 286.063,491.3856 290.8678,486.5778 295.1745,481.3192 298.9413,475.6612 301.9696,470.0005 304.586,463.7271 306.5704,457.226 307.9034,450.5609 308.5722,443.7967 308.57,436.9996 307.8969,430.2358 306.6511,423.938 304.6982,417.4275 302.1123,411.1414 298.9186,405.1413 295.1482,399.4857 290.8381,394.2299 286.3096,389.6794 281.0747,385.3438 275.4375,381.5461 269.4529,378.3233 263.1795,375.7069 256.6784,373.7225 250.0133,372.3894 243.2491,371.7207 236.8293,371.7052 230.062,372.3411 223.3904,373.6418 216.8799,375.5947 210.5938,378.1806 204.5937,381.3743 198.9381,385.1447 193.6823,389.4548 188.8775,394.2627 184.5707,399.5213 180.804,405.1793 177.6142,411.1815 175.1593,417.1134 173.1749,423.6144 171.8418,430.2796 171.1731,437.0438 171.1753,443.8409 171.8484,450.6047 173.1857,457.2689 175.0471,463.413 177.633,469.699 180.8267,475.6992 184.5971,481.3548 188.9072,486.6106 193.7151,491.4154 198.9737,495.7221 204.6317,499.4888 210.6339,502.6787 216.9216,505.2606 223.0668,507.118 229.732,508.451 236.4962,509.1197 243.2933,509.1176 250.0571,508.4445 256.7214,507.1071"/>
    <polygon points="272.2156,495.1805 277.5701,491.6419 282.2598,487.8343 286.8227,483.3207 290.9074,478.3703 294.2778,473.3571 297.3204,467.7061 299.65,462.1325 301.5339,455.9972 302.7337,450.0767 303.3663,444.0691 303.4107,437.6511 302.8081,431.2614 301.5646,424.965 299.8199,419.1815 297.3741,413.2478 294.3427,407.5907 290.9822,402.5709 286.9072,397.6124 282.6336,393.343 277.9741,389.4984 272.6478,385.9175 267.329,383.0538 261.4073,380.5787 255.6326,378.8055 249.3424,377.5308 242.9557,376.8966 236.9149,376.8906 230.9007,377.4578 224.6006,378.6827 218.456,380.5363 212.8711,382.8384 207.205,385.853 202.1752,389.1985 197.4855,393.0062 192.9226,397.5197 188.8379,402.4701 185.2729,407.807 182.4249,413.1344 179.9674,419.0633 178.1199,425.2097 176.9554,431.1373 176.3401,437.5258 176.3521,443.5666 176.9372,449.5791 178.1807,455.8755 180.0526,462.0146 182.3712,467.5927 185.2086,472.9257 188.7631,478.2696 192.5847,482.948 197.1117,487.4974 202.0742,491.5675 207.0974,494.9229 212.7575,497.9487 218.3379,500.2618 224.1127,502.035 230.4029,503.3097 236.7896,503.9439 242.8304,503.9498 249.2183,503.3282 255.1447,502.1578 261.2892,500.3042 266.8742,498.0021"/>
    <polygon points="278.1885,489.9431 183.0852,422.313 180.618,425.9238"/>
    <line x1="278.1885" x2="181.8516" y1="489.9431" y2="424.1184"/>
    <line x1="181.646" x2="261.9267" y1="424.4193" y2="479.2732"/>
    <line x1="262.3379" x2="182.0572" y1="478.6714" y2="423.8175"/>
    <line x1="182.2628" x2="246.4874" y1="423.5166" y2="467.3997"/>
    <line x1="245.665" x2="181.4404" y1="468.6033" y2="424.7202"/>
    <line x1="181.2348" x2="229.4033" y1="425.0211" y2="457.9335"/>
    <line x1="230.6369" x2="182.4684" y1="456.128" y2="423.2157"/>
    <line x1="182.674" x2="214.7863" y1="422.9148" y2="444.8564"/>
    <line x1="213.1415" x2="181.0292" y1="447.2636" y2="425.322"/>
    <line x1="180.8236" x2="196.8798" y1="425.6229" y2="436.5937"/>
    <line x1="198.9358" x2="182.8796" y1="433.5847" y2="422.6139"/>
    <polygon points="175.8334,424.4892 174.5889,430.7845 173.9617,437.1709 173.9577,443.588 174.577,449.9752 175.8138,456.272 177.6563,462.4189 180.0871,468.3578 183.2766,474.3569 186.8403,479.6935 190.9056,484.6587 195.4339,489.2056 200.3823,493.2911 205.7043,496.8768 211.6903,500.0908 217.6192,502.5459 223.7585,504.4136 230.0502,505.6762 236.4347,506.3217 242.8518,506.344 249.2407,505.7429 255.9076,504.4335 262.0492,502.5734 267.9812,500.1256 273.6473,497.1132 278.994,493.5647 283.9708,489.5137 288.5306,484.9984 292.6304,480.0616 296.4267,474.4269 299.6236,468.4318 302.0617,462.4959 303.9119,456.3512 305.1564,450.056 305.7836,443.6696 305.7876,437.2524 305.1683,430.8653 303.9315,424.5685 302.089,418.4216 299.6582,412.4827 296.4687,406.4835 292.905,401.147 288.8397,396.1818 284.3114,391.6349 279.3629,387.5493 274.041,383.9637 268.396,380.912 262.4813,378.4229 255.9868,376.4269 249.6951,375.1643 242.9334,374.5002 236.5163,374.5146 230.1309,375.1522 223.8377,376.407 217.696,378.2671 211.7641,380.7149 205.7741,383.9215 200.4478,387.5005 195.2155,391.8347 190.7076,396.4018 186.6647,401.3852 183.1249,406.7377 180.1217,412.4087 177.6836,418.3446"/>
    <polygon points="175.1376,443.2 175.7301,449.5902 176.9518,455.8904 178.7908,462.0389 181.229,467.9753 184.2425,473.6414 187.8017,478.9815 191.8717,483.9434 196.1333,488.2242 201.0768,492.3166 206.4008,495.8999 212.0532,498.9389 217.9786,501.4039 224.1187,503.2706 230.4133,504.5208 236.8007,505.1421 242.8411,505.1469 249.2295,504.5358 255.5262,503.2957 261.6692,501.4388 267.5985,498.9833 273.2558,495.9533 278.5855,492.3786 283.5356,488.2941 288.0572,483.74 291.8819,479.0647 295.4496,473.7302 298.4722,468.069 300.9198,462.1365 302.7687,455.991 304.0005,449.6927 304.6032,443.3035 304.5904,437.2632 303.9607,430.8765 302.7022,424.5835 300.9545,418.8016 298.5163,412.8652 295.5028,407.1991 291.9436,401.8589 287.8735,396.897 283.3326,392.3621 278.6685,388.5238 273.3445,384.9406 267.6921,381.9015 261.7667,379.4366 255.9927,377.6628 249.7054,376.3759 243.3217,375.7174 236.9042,375.6935 230.5158,376.3047 224.2191,377.5448 218.076,379.4017 212.1468,381.8572 206.8138,384.6935 201.4632,388.2371 196.4895,392.2927 191.9414,396.8204 187.8634,401.7757 184.2957,407.1102 181.2731,412.7715 178.9531,418.3485 177.0685,424.4831 175.8,430.7741 175.16,437.1597"/>
    <polygon points="178.4824,449.1181 179.6208,455.0534 181.4572,461.206 183.7583,466.7942 186.5924,472.1319 189.9328,477.1683 193.7475,481.8556 198.0005,486.1492 202.6513,490.0084 207.6557,493.3965 212.9662,496.2813 218.5323,498.6354 224.3011,500.4364 230.5913,501.725 236.6036,502.3373 242.647,502.3615 248.6641,501.7971 254.9644,500.5588 260.7474,498.8039 266.3321,496.4944 271.6655,493.6521 276.6968,490.3041 281.3782,486.4822 285.9193,481.9428 289.7429,477.2627 293.0928,472.2327 295.937,466.9004 298.2487,461.3165 300.0057,455.5341 301.1914,449.6081 301.7946,443.5949 301.8096,437.5515 301.2361,431.5353 299.9882,425.2369 298.2245,419.4566 295.9064,413.8754 293.056,408.5464 289.7003,403.5202 285.8713,398.8445 281.6052,394.5639 276.9427,390.7189 271.928,387.3461 266.6088,384.4775 260.68,382.0125 254.8949,380.2642 248.9671,379.0875 242.953,378.4935 236.9095,378.4877 230.8942,379.0704 224.9642,380.2359 219.1759,381.9732 213.5842,384.2657 208.2422,387.0917 203.2007,390.4244 198.5076,394.2321 194.2075,398.4785 190.3413,403.1234 186.7497,408.4458 183.8892,413.7694 181.5606,419.3462 179.7859,425.1232 178.5821,431.0455 177.9606,437.0569 177.9273,443.1003"/>
    <polygon points="179.3185,455.494 181.1873,461.6345 183.5137,467.21 186.3684,472.5343 189.7245,477.5576 193.5507,482.2329 197.811,486.5162 202.4656,490.3675 207.7942,493.9459 213.1204,496.797 218.6973,499.1197 224.4728,500.8923 230.7661,502.1543 237.1557,502.7632 243.1969,502.7337 249.207,502.1202 255.1296,500.9285 260.9092,499.1696 266.8328,496.6979 272.1485,493.8271 277.1616,490.4557 281.8253,486.6154 286.0957,482.3422 289.9329,477.676 293.3009,472.6606 296.1682,467.343 298.5078,461.7731 300.2978,456.0031 301.5788,449.7136 302.2071,443.3259 302.1959,437.2845 301.6006,431.2726 300.4268,425.3464 298.558,419.2059 296.2316,413.6305 293.3769,408.3062 290.0208,403.2828 286.1946,398.6076 281.9343,394.3242 277.2797,390.4729 271.9511,386.8946 266.6249,384.0435 261.0479,381.7208 255.2725,379.9482 249.3527,378.7424 243.3441,378.1148 237.303,378.0711 231.2859,378.6117 224.9822,379.8208 219.192,381.5446 213.5957,383.8204 208.2457,386.6266 202.8872,390.1599 198.2004,393.9719 193.9042,398.2193 189.8124,403.1645 186.4444,408.1799 183.5771,413.4975 181.2375,419.0674 179.3543,425.2035 178.1664,431.1268 177.557,437.1373 177.5494,443.5559 178.1447,449.5678"/>
    <polygon points="167.6159,458.0029 169.6464,464.8836 172.4893,471.8794 176.0271,478.5507 179.9984,484.5253 184.7799,490.37 189.8493,495.4462 195.3843,500.0103 201.3333,504.0198 207.641,507.4375 214.2487,510.2314 221.4605,512.4701 228.4888,513.909 235.623,514.6639 243.1742,514.7121 250.6913,513.9943 257.7305,512.6095 264.9593,510.4263 271.5882,507.6832 277.922,504.3141 283.9017,500.3505 289.4716,495.829 294.5799,490.7919 299.179,485.286 303.4232,479.0403 307.0122,472.3963 309.7809,465.7781 311.899,458.9238 313.4042,451.524 314.132,444.387 314.1514,436.8357 313.4604,429.695 311.9933,422.2875 309.9105,415.4225 307.1758,408.7901 303.6211,402.1277 299.6347,396.1632 295.0921,390.6106 290.0356,385.5215 284.2095,380.7174 278.2503,376.723 271.5927,373.1594 264.964,370.4159 258.1017,368.3239 251.0698,366.9028 243.9337,366.166 236.7598,366.1202 229.2409,366.8189 222.1982,368.1859 214.9639,370.3507 208.328,373.0769 201.9857,376.4299 195.6916,380.602 190.1332,385.1376 185.0377,390.1877 180.4525,395.7052 176.2242,401.9617 172.6521,408.6147 169.9002,415.24 167.7995,422.0996 166.3695,429.1297 165.6236,436.2649 165.585,443.8161 166.2579,450.9586"/>
    <polygon points="166.7043,451.2566 168.0987,458.296 170.1688,465.1671 173.0561,472.147 176.4451,478.4726 180.431,484.4399 185.2305,490.2727 190.3186,495.3332 195.8732,499.8768 201.8419,503.8607 208.1686,507.2475 214.7937,510.0053 221.6549,512.1081 228.6875,513.5361 235.8254,514.2759 243.3789,514.3035 250.5221,513.616 257.565,512.2396 264.4414,510.1871 271.4287,507.3176 277.7628,503.9448 283.7404,499.9741 289.305,495.4428 294.4043,490.3936 298.9903,484.874 303.2158,478.6129 306.7807,471.9535 309.5215,465.3214 311.6068,458.4549 313.0168,451.4186 313.7384,444.2788 313.7647,437.1027 313.041,429.5839 311.6466,422.5445 309.5765,415.6734 306.8504,409.0352 303.3002,402.3679 299.3142,396.4005 294.7688,390.8475 289.7066,385.7611 283.8721,380.9637 277.9034,376.9797 271.5767,373.5929 264.5958,370.708 257.724,368.6403 250.6841,367.2482 243.1651,366.5271 235.989,366.5558 228.8494,367.2798 221.8136,368.6922 214.9478,370.7798 208.3166,373.5229 201.6584,377.0901 195.7013,381.0913 190.1599,385.6509 185.0864,390.7261 180.5287,396.269 176.5295,402.2276 173.1265,408.5456 170.3519,415.1636 168.1385,422.3856 166.7285,429.4219 166.0069,436.5617 165.9806,443.7378"/>
    <polygon points="175.51,478.461 179.6779,484.7626 184.2075,490.3306 189.5289,495.6937 195.0613,500.2667 201.3301,504.4837 207.6511,507.8845 214.6245,510.792 221.4891,512.8888 228.5232,514.3178 236.0392,515.0859 243.2169,515.1094 250.3638,514.4445 257.7811,513.0077 265.0156,510.8297 271.6516,508.0941 278.3193,504.5413 284.291,500.5589 289.8533,496.0223 295.2097,490.6941 299.7757,485.1559 303.9848,478.8817 307.3776,472.5565 310.2762,465.5795 312.456,458.3455 313.8404,451.3026 314.5431,444.1593 314.5575,436.9816 313.8291,429.4616 312.4374,422.42 310.3769,415.5444 307.5063,408.5558 303.945,401.8925 299.9552,395.9259 295.4115,390.3694 290.0765,385.0197 284.2289,380.2357 278.2531,376.2595 271.5817,372.7136 264.9429,369.9849 258.073,367.9054 251.0353,366.4943 243.5173,365.7451 236.3396,365.7398 229.1944,366.4227 221.7807,367.8783 214.9077,369.9475 208.2648,372.6663 201.5881,376.2022 195.6064,380.1695 190.0327,384.692 184.6628,390.0067 179.8567,395.8361 175.8579,401.7968 172.4491,408.1135 169.5329,415.0831 167.3349,422.3116 165.9326,429.351 165.2119,436.4925 165.1793,443.6701 165.8887,451.192 167.2626,458.237 169.4315,465.4742 172.1587,472.1136"/>
    <polygon points="203.7963,499.917 209.7751,503.1539 216.0412,505.7918 222.5349,507.8055 229.1942,509.1759 235.9553,509.8898 242.7539,509.9405 249.525,509.3275 256.2039,508.0565 262.7269,506.1398 269.3743,503.4363 275.3835,500.2562 281.0537,496.5049 286.3307,492.2181 291.1641,487.4368 295.5079,482.2065 299.3204,476.5773 302.5654,470.6029 305.3407,463.9852 307.328,457.4833 308.6712,450.8186 309.3763,443.6772 309.3624,436.8784 308.685,430.1135 307.3506,423.4469 305.372,416.9425 302.768,410.6621 299.5635,404.6659 295.7891,399.0111 291.4809,393.7516 286.6799,388.9377 281.432,384.6153 275.7873,380.8257 269.7998,377.6051 263.5265,374.9842 257.0273,372.9881 250.3644,371.6358 243.2239,370.921 236.4252,370.9257 229.6593,371.5939 222.991,372.9193 216.4838,374.8891 210.2,377.4845 204.1994,380.6809 198.5394,384.4476 193.2741,388.7487 188.4537,393.5431 184.1242,398.7851 180.3269,404.4247 176.9361,410.7492 174.3409,417.0331 172.3712,423.5403 171.0461,430.2087 170.378,436.9746 170.3735,443.7734 171.0325,450.5401 172.3488,457.2102 174.3098,463.7201 176.8967,470.0074 180.0849,476.0123 183.8439,481.6774 188.1379,486.9486 192.9258,491.7755 198.1619,496.1121"/>
    <polygon points="286.2299,491.7724 291.0441,486.9769 295.3645,481.7323 299.1497,476.0892 302.3629,470.1019 304.9733,463.8283 306.9557,457.3289 308.2909,450.6664 308.966,443.905 308.9746,437.11 308.3165,430.3469 306.9982,423.681 305.0322,417.1766 302.4377,410.8964 299.2395,404.9011 295.4687,399.2484 291.1615,393.9929 286.3594,389.1853 281.109,384.872 275.4607,381.0946 269.469,377.8895 263.1919,375.2877 256.6898,373.3142 250.0254,371.9881 243.2631,371.3222 236.8453,371.3053 230.0796,371.9357 223.4084,373.2267 216.896,375.166 210.6052,377.7348 204.5968,380.9084 198.9288,384.6561 193.6557,388.9418 188.8285,393.7241 184.4937,398.9568 180.6932,404.5896 177.4636,410.5681 174.8361,416.8345 172.836,423.3285 171.4826,429.9874 170.789,436.7469 170.7619,443.5419 171.4015,450.3067 172.7017,456.9762 174.6499,463.4859 177.2273,469.7732 180.409,475.7772 184.1644,481.4402 188.4573,486.7074 193.2462,491.5281 198.4849,495.8557 204.1228,499.6485 210.1057,502.87 216.3757,505.4889 222.8724,507.4801 229.5332,508.8244 236.2936,509.5088 243.0886,509.5266 249.8526,508.8778 256.5203,507.5685 263.0273,505.6115 269.311,503.0255 275.3107,499.8355 280.9686,496.0724"/>
    <polygon points="300.4774,518.1803 298.8051,522.3929 297.5687,526.7534 296.8292,530.842 296.4733,534.9817 296.5259,539.5138 297.038,544.0172 297.9067,548.0804 299.2806,552.3995 300.9192,556.2177 303.1031,560.1893 305.6786,563.9188 308.3608,567.092 311.6094,570.2526 315.1619,573.0673 318.6539,575.3188 322.3403,577.2357 326.5457,578.9259 330.5334,580.0932 334.9864,580.9375 339.5022,581.3258 344.034,581.2539 348.1624,580.7845 352.5946,579.8369 356.5541,578.5774 360.7191,576.79 364.6814,574.5893 368.4,571.998 371.8365,569.0429 374.7086,566.0404 377.289,562.7838 379.745,558.9745 381.6463,555.2801 383.3186,551.0675 384.469,547.075 385.2945,542.6184 385.6504,538.4787 385.5977,533.9466 385.1458,529.8163 384.217,525.3801 382.8431,521.0609 381.038,516.9035 378.8206,512.9506 376.4451,509.5416 373.7629,506.3684 370.5143,503.2078 366.9618,500.3931 363.4698,498.1416 359.7834,496.2247 355.5779,494.5345 351.2227,493.2796 346.7627,492.4731 342.6215,492.1347 338.0897,492.2065 333.5885,492.7377 329.5291,493.6235 325.2158,495.0157 321.4046,496.6704 317.4423,498.8711 313.7237,501.4624 310.2871,504.4175 307.4151,507.42 304.8347,510.6766 302.3787,514.4859"/>
    <polygon points="333.3531,491.8538 329.2937,492.7435 324.9781,494.1317 321.1612,495.7756 317.1874,497.9574 313.4503,500.5236 309.9869,503.4486 306.8315,506.7035 304.2364,509.9495 301.7559,513.7441 299.665,517.7665 297.9845,521.9768 296.731,526.3334 295.9169,530.793 295.5502,535.3115 295.6105,539.4669 296.1078,543.9729 297.0508,548.4071 298.4301,552.7255 300.2319,556.8854 302.2396,560.5241 304.798,564.2666 307.7158,567.7361 310.9642,570.8982 314.2048,573.5 317.9942,575.9884 322.0122,578.0876 326.2191,579.7768 330.5731,581.0394 335.031,581.8628 339.5487,582.2388 344.0815,582.1637 348.5843,581.6383 352.6474,580.7654 356.9687,579.3951 360.7924,577.7671 364.7752,575.6018 368.5229,573.0511 371.9984,570.1405 375.1673,566.8987 377.7759,563.6635 380.2721,559.8793 382.3796,555.8656 384.0776,551.6623 385.3492,547.3109 386.1818,542.8547 386.5672,538.3377 386.5242,534.1821 386.0455,529.6741 385.1209,525.2361 383.7596,520.9119 381.9751,516.7446 379.785,512.7754 377.2111,509.0436 374.5363,505.863 371.301,502.6874 367.766,499.8493 363.9664,497.3767 359.9397,495.2941 355.7258,493.6224 351.3667,492.3779 346.9053,491.573 342.3861,491.2158 337.8537,491.3097"/>
    <polygon points="324.5236,468.6559 409.3518,451.5056 408.6587,448.3766"/>
    <line x1="324.5236" x2="409.0052" y1="468.6559" y2="449.9411"/>
    <line x1="408.9186" x2="345.5573" y1="449.55" y2="463.5861"/>
    <line x1="345.7306" x2="409.0919" y1="464.3683" y2="450.3322"/>
    <line x1="409.1785" x2="366.9377" y1="450.7233" y2="460.0807"/>
    <line x1="366.5911" x2="408.8319" y1="458.5162" y2="449.1588"/>
    <line x1="408.7453" x2="387.6249" y1="448.7677" y2="453.4464"/>
    <line x1="388.1447" x2="409.2652" y1="455.7932" y2="451.1145"/>
    <line x1="365.5456" x2="364.4856" y1="450.9094" y2="450.6228"/>
    <line x1="363.3261" x2="365.4461" y1="450.7044" y2="451.2776"/>
    <line x1="365.3465" x2="362.1666" y1="451.6458" y2="450.786"/>
    <line x1="361.0071" x2="365.247" y1="450.8676" y2="452.014"/>
    <line x1="365.1474" x2="359.8475" y1="452.3821" y2="450.9491"/>
    <line x1="358.688" x2="365.0479" y1="451.0307" y2="452.7503"/>
    <line x1="364.9483" x2="357.5285" y1="453.1185" y2="451.1123"/>
    <line x1="357.2298" x2="364.6497" y1="452.2168" y2="454.223"/>
    <line x1="364.7492" x2="356.2694" y1="453.8548" y2="451.562"/>
    <line x1="356.3689" x2="364.8488" y1="451.1939" y2="453.4866"/>
    <line x1="364.5501" x2="358.1903" y1="454.5912" y2="452.8716"/>
    <line x1="359.1507" x2="364.4506" y1="453.5264" y2="454.9593"/>
    <line x1="364.3511" x2="360.1111" y1="455.3275" y2="454.1811"/>
    <line x1="361.0716" x2="364.2515" y1="454.8359" y2="455.6957"/>
    <line x1="364.152" x2="362.032" y1="456.0639" y2="455.4907"/>
    <line x1="362.9924" x2="364.0524" y1="456.1454" y2="456.432"/>
    <polygon points="355.7892,451.2347 363.9529,456.8002 365.6452,450.5413"/>
    <polygon points="312.9529,444.0209 312.9542,436.8464 312.2529,429.7062 310.8556,422.669 308.7759,415.8025 306.0336,409.1727 302.6553,402.8433 298.6733,396.8752 294.126,391.3258 289.057,386.2484 283.5151,381.6918 277.5536,377.7 270.8882,374.1501 264.2488,371.4311 257.375,369.3755 250.333,368.0029 243.1903,367.3266 236.0158,367.353 228.8784,368.082 221.8467,369.5065 214.9883,371.6128 208.3691,374.3807 202.0529,377.7835 196.1002,381.7886 190.5685,386.3574 185.5108,391.446 180.9757,397.0055 177.0069,402.9824 173.6426,409.3192 170.9151,415.9551 168.8505,422.8262 167.4689,429.8665 166.7833,437.0082 166.8005,444.1827 167.5203,451.3211 168.9357,458.3546 171.0332,465.2158 173.7925,471.8385 177.1872,478.1591 181.1846,484.1169 185.7462,489.6546 190.8283,494.7189 196.3819,499.2611 202.3537,503.2376 208.6862,506.6101 215.3185,509.3462 222.1869,511.4196 229.2254,512.8103 236.3663,513.5051 243.5408,513.4971 250.6801,512.7866 257.7155,511.3802 264.5793,509.2916 271.2056,506.5409 277.5306,503.1543 283.4935,499.1646 289.0371,494.6101 294.1079,489.5346 298.6573,483.9869 302.6415,478.0203 306.0222,471.6921 308.7668,465.0633 310.8491,458.1976 312.2489,451.1609"/>
    <polygon points="311.8614,451.0553 312.5589,443.9126 312.5676,437.1134 311.8884,429.9689 310.5087,422.926 308.4419,416.0533 305.7083,409.4177 302.3343,403.0835 298.3528,397.1125 294.0555,391.8434 289.0072,386.7426 283.4809,382.1638 277.5304,378.1516 271.2138,374.7451 264.5922,371.9773 257.7303,369.8752 250.6946,368.4593 243.5537,367.7433 236.377,367.7341 229.2343,368.4319 222.5619,369.739 215.6839,371.7879 209.0411,374.5043 202.6982,377.8618 196.7169,381.8278 191.1553,386.3636 186.0676,391.4253 181.5032,396.9634 177.702,402.6009 174.2791,408.9087 171.4941,415.523 169.3742,422.3795 167.94,429.4114 167.2055,436.5505 167.1777,443.7271 167.8569,450.8716 169.2366,457.9144 171.3033,464.7871 174.037,471.4228 177.411,477.757 181.3924,483.728 185.9427,489.2777 191.0175,494.3523 196.5675,498.9024 202.5387,502.8836 208.873,506.2573 215.5088,508.9906 222.3816,511.057 229.4245,512.4364 236.569,513.1153 243.7456,513.0872 250.511,512.4086 257.5502,511.0106 264.4175,508.926 271.046,506.1752 277.3714,502.7848 283.3321,498.7878 288.87,494.2231 293.9314,489.1352 298.467,483.5734 302.4327,477.5919 305.7899,471.2488 308.506,464.606 310.5546,457.7278"/>
    <polygon points="311.2344,458.3005 312.6364,451.2664 313.3468,444.1292 313.3588,436.9568 312.6722,429.8173 311.2022,422.4121 309.1096,415.5518 306.3589,408.9277 302.9763,402.6031 298.9938,396.6379 294.4493,391.0888 289.3861,386.0087 283.8523,381.4457 277.9004,377.4433 271.5871,374.0395 264.617,371.1388 257.7529,369.0585 250.7188,367.6565 243.5816,366.9461 236.4092,366.9341 229.2697,367.6206 222.2309,368.9991 215.3599,371.0565 208.7219,373.7732 202.3799,377.1233 196.0903,381.2991 190.5412,385.8435 185.2076,391.1867 180.6731,396.7439 176.7014,402.7162 173.33,409.0469 170.5912,415.6759 168.5109,422.54 167.1089,429.5741 166.3985,436.7113 166.4053,444.2609 167.1284,451.3968 168.543,458.4283 170.6356,465.2887 173.3864,471.9127 176.769,478.2374 180.7515,484.2026 185.296,489.7516 190.6391,495.0852 196.1963,499.6197 202.1686,503.5915 208.4994,506.9629 215.1283,509.7017 221.9924,511.782 229.0265,513.184 236.1637,513.8944 243.3361,513.9063 250.4756,513.2198 257.5143,511.8413 264.7411,509.6572 271.3651,506.9065 277.6898,503.5238 283.655,499.5414 289.2041,494.9969 294.2842,489.9337 298.8472,484.3999 303.0439,478.1242 306.4153,471.7935 309.1541,465.1646"/>
    <polygon points="299.3906,461.6759 301.24,455.5277 302.4024,449.5976 302.9931,443.5837 302.9883,437.1634 302.3322,430.7767 301.1257,424.8555 299.3591,419.0766 297.0487,413.4928 294.0218,407.8308 290.6617,402.8082 286.8373,398.1294 282.3043,393.5828 277.6371,389.7444 272.3008,386.1744 266.9718,383.3253 261.3949,380.9981 255.6213,379.2142 249.3303,377.9323 242.9417,377.2952 236.8988,377.2906 230.5093,377.9181 224.5827,379.098 218.4401,380.9657 212.8597,383.2844 207.2024,386.3199 202.1847,389.6874 197.5117,393.5188 192.9718,398.0586 188.916,403.0355 185.5784,408.0731 182.7373,413.4065 180.2914,419.3426 178.5507,425.1294 177.3157,431.4298 176.7431,437.4455 176.767,443.8657 177.3845,449.877 178.5734,455.8018 180.3226,461.586 182.7773,467.5185 185.8212,473.1713 189.1962,478.1839 193.0346,482.8512 197.5811,487.3843 202.2599,491.2087 207.6067,494.7627 212.9443,497.5959 218.5281,499.9064 224.6735,501.765 230.6018,502.9362 236.9922,503.5542 243.0351,503.5407 249.4228,502.8941 255.3458,501.6965 261.4828,499.8104 267.0562,497.475 272.3811,494.618 277.712,491.0402 282.3736,487.1948 286.6466,482.9219 290.7173,477.9571 294.0699,472.9295 297.0885,467.2631"/>
    <polygon points="304.9956,443.4529 304.978,437.0316 304.3288,430.6431 303.0543,424.3495 301.1668,418.2118 298.6847,412.2895 295.8268,406.9639 292.264,401.6216 288.193,396.6557 283.6531,392.1143 278.6885,388.0416 273.3474,384.4771 267.6814,381.4553 261.7457,379.0056 255.5978,377.1517 249.671,375.9673 243.2827,375.316 236.8614,375.2963 230.4693,375.9085 224.1684,377.1465 218.0198,378.9984 212.0833,381.4461 206.4164,384.4661 201.074,388.0288 196.1081,392.0999 191.5667,396.6398 187.494,401.6043 183.9295,406.9455 180.9077,412.6115 178.458,418.5472 176.6041,424.6951 175.364,430.9956 174.7497,437.3875 174.7673,443.8089 175.3609,449.8236 176.5989,456.1245 178.4508,462.273 180.8986,468.2096 183.9185,473.8765 187.4813,479.2189 191.5523,484.1848 196.0922,488.7261 201.0568,492.7988 206.3979,496.3634 212.0639,499.3852 217.9996,501.8349 224.1475,503.6888 230.448,504.9289 236.84,505.5432 243.2613,505.5256 249.6498,504.8764 255.5769,503.694 261.7255,501.8421 267.662,499.3943 273.3289,496.3744 278.6713,492.8116 283.6372,488.7406 288.1786,484.2007 292.2513,479.2361 295.8158,473.8949 298.8376,468.229 301.2873,462.2933 303.1412,456.1453 304.3813,449.8448"/>
    <polygon points="307.3727,437.0102 306.7446,430.6207 305.422,423.9529 303.4363,417.4518 300.97,411.524 297.7584,405.5329 294.1868,400.1977 290.1251,395.2254 285.3311,390.4061 280.0772,386.0928 274.7408,382.523 268.7487,379.3133 262.8201,376.849 256.6844,374.9584 250.0237,373.6008 243.6376,372.9391 236.84,372.9022 230.0731,373.5483 223.772,374.7799 217.2599,376.7292 211.3184,379.1623 205.3094,382.3404 199.6501,386.1061 194.3976,390.4212 189.8585,394.9618 185.5452,400.2156 181.9754,405.552 178.7657,411.5442 176.1742,417.8285 174.227,424.3413 172.9975,430.6428 172.3715,437.0326 172.3726,443.8302 173.0007,450.2198 174.3233,456.8875 176.1816,463.033 178.7752,469.3165 181.9869,475.3076 185.5585,480.6428 189.6201,485.615 194.4142,490.4343 199.365,494.5221 205.0045,498.3175 210.6555,501.3648 216.9252,503.9914 223.0608,505.882 229.7216,507.2397 236.485,507.9214 243.2826,507.9203 250.0458,507.2363 256.3399,505.9695 262.8411,503.9838 268.7689,501.5176 274.4359,498.5001 280.0952,494.7344 285.3477,490.4193 289.8868,485.8787 293.9745,480.9279 297.7699,475.2884 300.8172,469.6374 303.4439,463.3677 305.4274,456.8658 306.7478,450.1976 307.3917,443.4305"/>
    <polygon points="309.7178,423.0505 307.6413,416.1825 304.8912,409.5553 301.6893,403.5589 297.7119,397.5871 293.1597,392.0411 288.3578,387.2296 282.8208,382.6663 277.1805,378.872 270.8669,375.4632 264.2452,372.7 257.3814,370.6098 250.7171,369.2693 243.9561,368.5636 236.7812,368.5141 229.637,369.1792 222.5946,370.5523 215.7238,372.6199 209.0931,375.3612 202.7683,378.7492 197.1155,382.5248 191.5634,387.0697 186.4915,392.1449 182.1751,397.3964 178.1781,403.355 174.9564,409.3408 172.1844,415.9588 170.0852,422.8199 168.6796,429.856 167.9815,436.997 167.9979,444.1721 168.6724,450.9362 170.0733,457.9732 172.1679,464.8358 174.7733,471.1144 178.1529,477.4436 182.146,483.405 186.4588,488.6594 191.5273,493.738 196.7731,498.0612 202.7265,502.0661 209.049,505.4584 215.3224,508.0763 222.1808,510.1845 229.215,511.5994 236.3551,512.3068 243.1528,512.318 250.2952,511.6342 257.334,510.2425 264.1993,508.157 270.4813,505.5598 276.815,502.1885 282.7816,498.2032 288.0417,493.8973 293.1269,488.8355 297.6829,483.2925 301.6643,477.3234 304.8703,471.3292 307.6248,464.7039 309.706,457.8373 311.0377,451.1713 311.7546,444.0321 311.757,436.8571 311.1002,430.0911"/>
    <polygon points="300.6447,411.769 297.4375,405.773 293.8664,400.435 289.8019,395.4623 285.2812,390.9005 280.0433,386.5643 274.7175,382.9748 268.7326,379.747 262.8077,377.2686 256.6732,375.3673 250.0117,374.0023 243.6238,373.3377 236.824,373.3021 230.4295,373.8998 223.7541,375.195 217.2438,377.1583 211.3069,379.6079 205.631,382.6132 199.9634,386.3703 194.7045,390.6811 190.1618,395.221 186.0733,400.1739 182.2808,405.818 179.0782,411.8165 176.6249,417.7518 174.6575,424.2609 173.4125,430.5615 172.7749,436.9521 172.768,443.752 173.3927,450.144 174.716,456.8138 176.5789,462.9601 179.1814,469.2423 182.2106,474.9054 185.9916,480.5572 190.3245,485.7978 194.8836,490.3213 200.1579,494.6132 205.5137,498.1576 211.5256,501.3348 217.4713,503.7631 223.6216,505.6126 229.9204,506.8664 236.3102,507.5131 243.1101,507.5295 249.5029,506.9138 256.1746,505.5999 262.3235,503.7456 268.6093,501.152 274.2767,498.1307 279.9338,494.3577 285.1805,490.0321 289.7104,485.4795 293.785,480.5151 297.5616,474.8604 300.7473,468.8529 303.1839,462.9107 305.133,456.3961 306.3602,450.092 306.9799,443.6996 306.9677,436.8997 306.2682,430.1359 304.9829,423.8434 303.1027,417.7024"/>
    <polygon points="297.1136,406.0082 293.5459,400.6723 289.4824,395.7036 284.6814,390.8936 279.4165,386.5964 274.0671,383.049 268.0599,379.8711 262.1173,377.4449 255.9693,375.6004 249.6726,374.3546 242.9082,373.7007 236.4895,373.7174 230.102,374.3502 223.4384,375.6852 216.945,377.6904 211.0291,380.181 205.3797,383.228 200.0489,386.8032 195.0859,390.8737 190.5365,395.4018 186.4428,400.3457 182.647,405.9828 179.6055,411.6352 176.9923,417.9087 175.1217,424.0488 173.8491,430.3401 173.1864,436.7245 173.1561,443.5205 173.7618,449.9106 175.0684,456.5797 177.0461,463.0816 179.5116,469.008 182.5346,474.6703 186.0872,480.0162 190.1366,484.9965 194.924,489.82 199.8737,493.9066 205.5161,497.6945 211.1728,500.7281 217.45,503.3324 223.5928,505.1943 229.8859,506.4579 236.6485,507.1309 243.0672,507.1324 249.4564,506.5176 255.7571,505.2924 261.9111,503.468 268.2041,500.902 274.2037,497.7098 279.5446,494.1496 284.7993,489.8399 289.3359,485.299 293.4156,480.3435 297.0007,475.0194 300.0582,469.3756 302.6891,463.1095 304.5771,456.9747 305.9244,450.3136 306.5691,443.9273 306.5977,437.5087 305.9564,430.743 304.7223,424.444 302.763,417.9366 300.3143,412.0033"/>
    <polygon points="296.1478,406.7237 292.5845,401.3843 288.5164,396.4187 283.9823,391.8746 279.0258,387.7954 273.6943,384.2202 268.0389,381.1834 262.1137,378.7138 255.9755,376.8353 249.6831,375.5658 243.2966,374.9174 236.8774,374.8964 230.4869,375.5029 224.1863,376.7313 218.0359,378.5696 212.0947,381.0003 206.4195,384.0001 201.0647,387.5403 196.0816,391.5869 191.518,396.1013 187.4174,401.0401 183.8193,406.3561 180.758,411.9984 178.2629,417.9128 176.3579,424.0429 175.0612,430.3298 174.3852,436.7133 174.3365,443.1324 174.9689,449.8994 176.2063,456.1982 178.0535,462.346 180.4927,468.2837 183.5007,473.9546 187.0486,479.3042 191.1024,484.2815 195.6233,488.8387 200.5681,492.9321 205.8893,496.5226 211.5359,499.5757 217.454,502.0623 223.5868,503.9585 229.8755,505.2462 236.26,505.9129 242.6791,505.9524 249.4452,505.3102 255.7423,504.0638 261.8874,502.2078 267.8216,499.76 273.4881,496.7438 278.8327,493.1882 283.8041,489.1273 288.3547,484.5998 292.441,479.6492 296.0239,474.3228 299.0689,468.6718 301.6745,462.3946 303.5265,456.2483 304.7689,449.9504 305.3897,443.5613 305.3829,437.142 304.7488,430.7542 303.4933,424.459 301.6284,418.3166 299.1721,412.3859"/>
    <polygon points="299.8845,404.4257 296.1096,398.7738 291.8042,393.5146 286.7291,388.4443 281.4659,384.1439 275.8104,380.3744 269.8159,377.1713 263.5389,374.5648 257.0386,372.5796 250.3764,371.2343 243.6152,370.5416 236.4413,370.5257 229.677,371.1882 223.0089,372.5038 216.4999,374.4601 210.2113,377.0386 203.8781,380.4084 198.2262,384.1833 192.9671,388.4886 188.1504,393.2839 183.8217,398.5238 179.8268,404.4825 176.6237,410.477 174.0172,416.754 172.032,423.2543 170.631,430.2901 169.9749,437.055 169.9781,443.8516 170.6967,450.9894 172.0483,457.6503 174.0396,464.1487 176.652,470.4232 179.8608,476.4147 183.6357,482.0667 188.195,487.6055 193.0162,492.3961 198.2794,496.6965 203.9349,500.4661 209.9294,503.6692 216.2064,506.2756 222.7067,508.2609 229.3689,509.6062 236.1301,510.2988 243.304,510.3148 250.0683,509.6523 256.7364,508.3366 263.6011,506.2532 269.8756,503.6408 275.8672,500.4321 281.5191,496.6572 286.7782,492.3518 291.8486,487.2767 296.149,482.0135 299.9185,476.358 303.1216,470.3634 305.7281,464.0864 307.7133,457.5862 309.1143,450.5504 309.7704,443.7855 309.7672,436.9889 309.1047,430.2246 307.7891,423.5565 305.8328,417.0475 303.0932,410.4172"/>
    <polygon points="304.46,401.9766 300.2756,395.6886 295.7348,390.1324 290.4058,384.7799 284.5665,379.9893 278.6001,376.0027 271.9396,372.4412 265.311,369.6931 258.0843,367.4971 251.0474,366.0928 243.5313,365.3466 235.9783,365.3584 228.4647,366.1282 221.4322,367.5547 214.5678,369.6452 207.5925,372.5422 200.9431,376.1246 194.9893,380.1299 189.4446,384.6846 184.1055,390.0271 179.3295,395.8784 175.358,401.8547 171.9744,408.1826 169.0818,415.1597 166.904,422.392 165.5174,429.4324 164.8084,436.5729 164.8013,444.1259 165.5522,451.6415 166.961,458.6775 169.0342,465.5471 171.9137,472.5297 175.4793,479.188 179.4697,485.1519 184.0105,490.708 189.3395,496.0605 195.1788,500.8512 201.1451,504.8378 207.4644,508.2373 214.4343,511.1474 221.2947,513.2509 228.6979,514.7477 235.8367,515.4746 243.3896,515.5007 250.9071,514.7686 257.9466,513.3776 265.1775,511.1953 271.8112,508.4597 278.4785,504.9108 284.4523,500.9354 290.3007,496.1558 295.3858,491.093 300.1911,485.2658 304.3873,478.9857 307.7709,472.6579 310.6635,465.6807 312.8413,458.4485 314.2279,451.4081 314.9369,444.2676 314.944,436.7146 314.1931,429.199 312.7843,422.163 310.7111,415.2934 307.8316,408.3108"/>
    <polygon points="282.8546,382.1951 276.8798,378.2263 270.5414,374.8684 263.9017,372.1544 257.026,370.1111 250.3556,368.8121 243.2156,368.1261 236.4199,368.1313 229.2809,368.8281 222.246,370.2282 215.3842,372.3179 208.7629,375.0765 202.7711,378.2826 196.8022,382.2605 191.2565,386.8097 186.1883,391.8856 181.6475,397.4382 177.8727,403.089 174.6445,409.069 171.8614,415.68 169.7463,422.534 168.3202,429.5637 167.597,436.7001 167.5837,443.873 168.2805,451.012 169.6807,458.0469 171.7703,464.9087 174.5289,471.5299 177.735,477.5218 181.7129,483.4906 186.2621,489.0364 191.338,494.1045 196.8907,498.6453 202.8655,502.6142 209.2039,505.9721 215.8436,508.686 222.3526,510.6389 229.3897,512.0283 236.1525,512.6959 243.3254,512.7092 250.4644,512.0123 257.4993,510.6122 264.3611,508.5226 270.9824,505.7639 276.9742,502.5579 282.943,498.58 288.4888,494.0307 293.3029,489.2344 297.8727,483.7055 301.8726,477.7514 305.2635,471.4306 308.0121,464.8052 310.0913,457.9403 311.4251,451.2767 312.1483,444.1404 312.1616,436.9675 311.4648,429.8285 310.0646,422.7935 308.1019,416.2875 305.3778,409.6519 302.0103,403.3187 298.0324,397.3498 293.4831,391.8041 288.4073,386.7359"/>
    <polygon points="266.9821,383.7719 261.0604,381.3015 254.9175,379.4481 248.9914,378.2849 242.9809,377.6963 236.5645,377.7066 230.5559,378.3143 224.6335,379.4964 218.852,381.2418 213.2649,383.5346 207.5994,386.5464 202.5738,389.8955 197.8932,393.7118 193.3464,398.239 189.5098,402.9031 186.139,407.9141 183.2652,413.2257 180.7858,419.1437 179.0153,424.9175 177.8076,430.8348 177.1535,437.2177 177.1359,443.2569 177.7528,449.6436 178.9259,455.5678 180.6627,461.3519 182.947,466.9424 185.7578,472.2877 189.2919,477.643 193.1012,482.3294 197.6216,486.8831 202.2798,490.7266 207.2858,494.1049 212.593,496.9868 218.1526,499.3455 224.2785,501.2542 230.1939,502.4708 236.1988,503.1136 242.615,503.1612 248.6288,502.6077 254.5617,501.4791 260.7153,499.6616 266.3092,497.3856 271.6587,494.5829 277.0194,491.0569 281.7115,487.2547 286.2719,482.7411 290.348,477.7858 293.7037,472.7647 296.7231,467.1031 299.0232,461.5191 300.7763,455.7399 301.9662,449.819 302.5819,443.8113 302.6177,437.7722 302.02,431.3837 300.8646,425.456 299.1452,419.6667 296.7182,413.727 293.8914,408.3902 290.3413,403.0455 286.5179,398.3706 281.9839,393.8306 277.314,390.0011 272.298,386.6378"/>
    <polygon points="230.0443,372.7465 223.3725,374.0571 216.8638,376.0237 210.5826,378.6269 204.5909,381.841 199.2514,385.409 194.2702,389.462 189.4351,394.2425 185.0987,399.4795 181.3038,405.1213 178.0879,411.112 175.4828,417.3925 173.6066,423.5341 172.2573,430.1982 171.5764,436.9634 171.5707,443.7627 172.1854,450.1551 173.4867,456.8287 175.4443,463.3401 178.0389,469.6249 181.2448,475.621 185.0302,481.2691 189.3578,486.5134 193.9044,491.0487 199.1593,495.3634 204.8167,499.1349 210.4791,502.1644 216.756,504.7782 223.2613,506.7557 229.931,508.0774 236.6989,508.7302 243.1207,508.7267 249.8879,508.0665 256.5561,506.7376 263.0593,504.753 269.3334,502.1324 274.9924,499.0967 280.6457,495.3191 285.896,490.9987 290.6912,486.1783 294.7595,481.2094 298.5388,475.5572 301.7381,469.5576 304.3258,463.27 306.2764,456.7565 307.516,450.4554 308.1782,443.6884 308.1651,436.8891 307.4768,430.1247 306.213,423.8284 304.364,417.6785 301.7868,411.3865 298.5976,405.3816 294.8277,399.723 290.5146,394.4668 285.7008,389.6649 280.434,385.3648 275.0906,381.8027 269.0955,378.5951 262.8114,375.9987 256.3006,374.0392 250.0012,372.7908 243.6125,372.1389 236.8133,372.105"/>
    <polygon points="223.7868,376.0086 217.6398,377.8638 211.7008,380.3041 206.0253,383.3066 200.362,387.0674 195.3929,391.1337 190.5859,395.9408 186.5196,400.91 182.9524,406.2487 179.9176,411.9071 177.4436,417.8322 175.4609,424.3349 174.2083,430.6323 173.5516,437.3987 173.5699,443.8196 174.2084,450.2086 175.4611,456.506 177.3162,462.653 179.7565,468.5921 182.7591,474.2676 186.5199,479.9308 190.5861,484.9 195.1134,489.4531 200.3624,493.7733 205.7012,497.3405 211.3595,500.3753 217.2846,502.8493 223.7873,504.8319 230.0847,506.0846 236.4738,506.723 243.272,506.723 249.661,506.0845 255.9584,504.8318 262.1054,502.9767 268.0445,500.5364 273.72,497.5338 279.3832,493.773 284.3524,489.7067 288.9055,485.1794 293.0,480.2335 296.7929,474.5917 299.8277,468.9334 302.3017,463.0083 304.2843,456.5056 305.537,450.2081 306.1937,443.4417 306.1754,437.0209 305.5369,430.6319 304.2842,424.3344 302.3015,417.8318 299.8275,411.9067 296.7927,406.2484 293.2254,400.9096 289.1591,395.9405 284.6318,391.3874 279.6859,387.2929 274.0441,383.5 268.3858,380.4652 262.105,377.8636 255.958,376.0085 249.6605,374.7559 243.2715,374.1175 236.4733,374.1175 230.0843,374.756"/>
    <polygon points="218.3998,380.1329 212.4659,382.5885 207.1321,385.4321 201.786,388.9902 196.8234,393.0662 192.5479,397.3389 188.6945,401.9958 185.1012,407.3184 182.0595,412.9743 179.728,418.551 177.8391,424.6888 176.5748,430.9851 175.9479,437.3763 175.9458,443.4208 176.5684,449.8125 177.7369,455.7429 179.5854,461.8931 181.8801,467.485 184.8845,473.1608 188.4426,478.5069 192.5187,483.4695 197.0715,487.9986 201.7511,491.8244 207.0948,495.3862 212.7686,498.3944 218.3589,500.6929 224.5078,502.5456 230.4375,503.7181 236.8287,504.345 243.2507,504.3282 249.2649,503.7245 255.562,502.4644 261.3455,500.7075 267.2794,498.252 272.6132,495.4084 277.9593,491.8502 282.6415,488.0276 287.1974,483.5016 291.0508,478.8446 294.6441,473.5221 297.6858,467.8662 300.0173,462.2895 301.9062,456.1516 303.1705,449.8554 303.7783,443.8416 303.7994,437.4197 303.1769,431.028 301.9169,424.7309 300.1599,418.9474 297.7044,413.0135 294.8608,407.6797 291.3026,402.3336 287.2266,397.371 282.954,393.0954 278.2971,389.2421 272.9745,385.6488 267.6595,382.7702 261.7419,380.2756 255.6041,378.3867 249.3078,377.1224 243.294,376.5146 236.8721,376.4934 230.4804,377.116 224.1833,378.376"/>
    <polygon points="216.4438,374.0569 209.8061,376.7885 203.8051,379.9874 198.1409,383.7506 192.8663,388.0428 187.7757,393.1032 183.4522,398.3522 179.6554,403.9939 176.4209,409.9758 173.7788,416.2419 171.6598,423.0998 170.3065,429.7641 169.6028,436.528 169.5552,443.3282 170.2171,450.4754 171.5128,457.1512 173.5725,464.0272 176.1604,470.3158 179.3432,476.3254 183.3152,482.304 187.6216,487.5671 192.6957,492.644 197.9562,496.9535 203.6081,500.7351 209.5987,503.9535 215.8718,506.5788 222.3691,508.5864 229.4034,510.0147 236.1691,510.7002 242.9694,510.7296 249.7408,510.1025 256.7871,508.7349 263.3015,506.7835 269.5971,504.2125 275.6151,501.0459 281.6044,497.0899 286.879,492.7977 291.9696,487.7373 296.2931,482.4883 300.0899,476.8466 303.3244,470.8647 305.9665,464.5986 307.9915,458.1067 309.4387,451.0763 310.1424,444.3125 310.1901,437.5123 309.5281,430.3651 308.2325,423.6893 306.1728,416.8133 303.5849,410.5246 300.4021,404.5151 296.4301,398.5364 291.8697,392.9935 287.0496,388.1964 281.7891,383.887 276.1371,380.1054 270.1466,376.8869 263.8735,374.2617 257.0099,372.1611 250.3419,370.8258 243.1987,370.1214 236.3984,370.1285 229.6305,370.792 222.9582,372.1055"/>
    <polygon points="213.6363,385.1228 208.3122,387.979 203.2956,391.3461 198.6354,395.1915 194.6307,399.1975 190.7868,403.8589 187.4213,408.8765 184.5669,414.2015 182.2513,419.782 180.4973,425.5637 179.3218,431.49 178.7364,437.5034 178.7467,443.5452 179.3526,449.5566 180.5483,455.4789 182.322,461.2545 184.6565,466.8271 187.3342,471.8187 190.6859,476.8457 194.5168,481.5177 198.5105,485.5348 203.16,489.393 208.1672,492.774 213.4834,495.6448 219.0567,497.9776 224.8329,499.7494 230.7556,500.9432 236.7672,501.5472 242.809,501.5555 248.8222,500.9682 254.7482,499.7908 260.5293,498.0349 266.109,495.7176 271.4331,492.8615 276.4497,489.4943 281.1098,485.649 285.3682,481.3629 289.1832,476.6779 292.5177,471.6396 295.3392,466.2971 297.4939,461.0584 299.248,455.2768 300.4234,449.3504 301.0089,443.337 300.9986,437.2952 300.3927,431.2839 299.197,425.3615 297.4233,419.5859 295.0888,414.0133 292.2162,408.6981 289.0594,403.9948 285.2285,399.3228 280.9556,395.0513 276.2823,391.2218 271.2543,387.8718 266.2619,385.1956 260.6885,382.8629 254.9124,381.091 248.9897,379.8973 242.9781,379.2933 236.9363,379.2849 230.9231,379.8723 224.9971,381.0496 219.216,382.8055"/>
    <polygon points="189.5553,394.7025 185.2426,399.9541 181.67,405.2862 178.4533,411.2721 175.9783,417.194 174.0728,423.3228 172.6946,429.9771 171.9877,436.7357 171.9427,443.1538 172.555,449.9217 173.8398,456.5946 175.7844,463.1059 178.2093,469.0485 181.3753,475.0614 185.1258,480.7282 189.4233,485.9923 193.9457,490.5466 199.1793,494.8812 204.4964,498.4759 210.4689,501.7176 216.7351,504.3468 223.2326,506.3373 229.5228,507.6127 236.2824,508.3103 243.0779,508.3295 249.4676,507.7246 256.1387,506.4305 262.2911,504.6024 268.5865,502.0438 274.595,498.8694 280.2566,495.111 285.2341,491.059 290.0628,486.2776 294.3901,481.0379 298.1726,475.3925 301.2108,469.7388 303.8312,463.4689 305.8127,456.9687 307.0794,450.6767 307.7471,444.2933 307.7947,437.498 307.1637,430.7318 305.8603,424.0625 304.0237,417.9126 301.4562,411.6208 298.2735,405.6167 294.5073,399.9604 290.1952,394.7082 285.3803,389.9128 280.4146,385.8465 274.7639,382.0717 269.106,379.0415 262.8325,376.4297 256.6957,374.5497 250.0358,373.1993 243.6514,372.5404 236.856,372.5023 230.4647,373.0894 223.79,374.365 217.276,376.3005 211.33,378.7172 205.3128,381.8749 199.6408,385.6175 194.3707,389.9077"/>
    <polygon points="187.1693,392.5847 182.6219,398.1326 178.8497,403.7857 175.4721,410.1142 172.8752,416.3946 170.8891,422.8941 169.4754,429.9268 168.7955,436.6889 168.7809,443.8623 169.4884,451.0007 170.8184,457.6655 172.778,464.173 175.5096,470.8059 178.7011,476.8061 182.6743,482.7787 187.2285,488.321 192.0371,493.1236 197.585,497.6709 203.2381,501.4432 209.2253,504.6591 215.847,507.4177 222.3465,509.4037 229.3792,510.8175 236.5185,511.5162 243.3147,511.512 250.0795,510.8596 257.1179,509.4745 263.6254,507.5149 270.2583,504.7833 276.5826,501.3978 282.2311,497.6186 287.4933,493.3178 292.576,488.2558 296.8981,483.0111 300.8956,477.0547 304.2732,470.7263 306.8701,464.4458 308.8562,457.9463 310.2699,450.9136 310.9686,443.7743 310.9644,436.9782 310.2569,429.8397 308.9269,423.175 306.9673,416.6675 304.2357,410.0345 301.0442,404.0344 297.071,398.0618 292.7703,392.7995 287.7082,387.7169 282.1603,383.1695 276.5072,379.3973 270.1787,376.0197 263.8982,373.4228 257.3988,371.4367 250.366,370.0229 243.604,369.343 236.4306,369.3285 229.6658,369.9808 222.6274,371.366 215.7642,373.4526 209.487,376.0572 203.1627,379.4426 197.5142,383.2219 192.2519,387.5226"/>
    <polygon points="184.0562,389.4882 179.2517,395.3132 175.2474,401.2652 171.6622,407.9106 168.7581,414.8806 166.5642,422.1057 165.1578,429.1401 164.4248,436.2761 164.3879,443.8268 165.1048,451.3435 166.5683,458.7512 168.637,465.62 171.5077,472.6038 174.8678,478.9418 179.037,485.2373 183.5611,490.8044 188.8709,496.1729 194.6899,500.9848 200.9601,505.1918 207.6189,508.7521 214.5998,511.63 221.4665,513.7057 228.8727,515.1768 236.0114,515.883 243.5622,515.8916 251.0762,515.1466 258.112,513.7474 265.3393,511.5609 272.3123,508.664 278.9614,505.0856 284.9175,501.0874 290.7474,496.2888 296.0694,490.9324 300.6062,485.3756 304.7897,479.0896 308.1641,472.7593 311.0508,465.782 313.1351,458.9179 314.6154,451.5136 315.3306,444.3758 315.3486,436.825 314.6129,429.3101 313.2225,422.2725 311.0451,415.0425 308.1569,408.0659 304.5868,401.4123 300.5961,395.4513 295.8048,389.6153 290.455,384.2867 284.6,379.5186 278.6232,375.5516 271.9555,372.008 265.3234,369.2739 258.0956,367.089 251.0594,365.6914 243.5453,364.948 236.3717,364.9398 229.2297,365.612 221.8166,367.0477 214.5839,369.2161 207.6036,372.0956 201.2698,375.4636 194.9796,379.6406 189.1377,384.4246"/>
    <polygon points="256.0652,334.5864 260.5559,335.1624 265.0739,334.8693 269.4525,333.7179 273.5303,331.7508 277.1569,329.0405 280.1985,325.6868 282.7039,321.4718 284.2832,316.8296 284.8591,312.3389 284.566,307.8209 283.4147,303.4423 281.4476,299.3645 278.7372,295.7379 275.3836,292.6963 271.1685,290.1909 266.5263,288.6117 262.0357,288.0357 257.5177,288.3288 253.139,289.4801 249.0612,291.4473 245.4347,294.1576 242.3931,297.5112 239.8877,301.7263 238.3084,306.3685 237.7325,310.8592 238.0256,315.3771 239.1769,319.7558 241.144,323.8336 243.8544,327.4602 247.208,330.5017 251.4231,333.0071"/>
    <polygon points="264.7148,333.884 269.0964,332.7523 273.1638,330.7683 276.4759,328.2686 279.4991,324.9012 281.789,320.9979 283.2532,316.7158 283.8328,312.2276 283.5663,308.0867 282.4162,303.7099 280.4152,299.6508 277.6438,296.0732 274.5216,293.3401 270.6087,291.0666 266.6881,289.7076 262.2075,289.0717 257.6902,289.3435 253.6726,290.3812 249.5888,292.331 245.9766,295.0572 242.9816,298.4498 240.882,302.0289 239.382,306.2985 238.7649,310.7817 239.0555,315.2978 240.11,319.311 242.077,323.3867 244.5627,326.7091 247.9175,329.7465 251.8112,332.0527 255.7203,333.4445 260.1954,334.1179"/>
    <polygon points="276.9469,328.5348 279.9502,325.156 282.2366,321.2563 283.7182,316.9854 284.3382,312.5075 284.0727,307.9946 282.9319,303.6203 280.9596,299.5527 278.2316,295.9479 274.8528,292.9446 270.953,290.6582 266.6821,289.1766 262.2042,288.5566 257.6914,288.8221 253.3171,289.963 249.2494,291.9353 245.6447,294.6632 242.6414,298.042 240.355,301.9418 238.8733,306.2127 238.2533,310.6906 238.5189,315.2034 239.6597,319.5777 241.632,323.6454 244.36,327.2502 247.7388,330.2534 251.6386,332.5398 255.9095,334.0215 260.3874,334.6415 264.9002,334.3759 269.2745,333.2351 273.3422,331.2628"/>
    <polygon points="283.0121,307.888 281.9334,303.888 279.9263,299.8401 277.3955,296.5601 274.2954,293.8119 270.7355,291.6927 266.8419,290.2774 262.3756,289.5944 257.8639,289.8369 253.8504,290.8641 250.1002,292.6246 246.4648,295.3076 243.677,298.3721 241.3492,302.2446 239.8604,306.5104 239.2867,310.6134 239.5485,315.124 240.5929,319.1331 242.5653,323.1981 245.0679,326.4996 248.4489,329.4968 252.0268,331.5854 256.299,333.056 260.4044,333.6121 264.5413,333.3898 268.9184,332.2695 272.9749,330.2797 276.2657,327.763 279.0271,324.6746 281.3217,320.7824 282.6869,316.8709 283.3125,312.3962"/>
    <polygon points="281.065,304.5097 279.2899,300.7689 276.8155,297.4491 273.7378,294.6793 270.1765,292.5671 266.27,291.1947 262.1702,290.6153 258.0364,290.8516 254.0293,291.8943 250.3046,293.7028 247.0071,296.207 244.2651,299.3094 242.1849,302.8895 240.9369,306.4419 240.3208,310.5363 240.5199,314.6721 241.5266,318.6884 243.3016,322.4291 245.7761,325.7489 248.8538,328.5188 252.4151,330.6309 256.3216,332.0034 260.4214,332.5827 264.5552,332.3465 268.5623,331.3038 272.287,329.4953 275.5844,326.9911 278.3265,323.8887 280.4066,320.3086 281.6547,316.7562 282.2708,312.6618 282.0717,308.526"/>
    <polygon points="241.1743,319.2204 243.0104,322.9394 245.5259,326.237 248.6273,328.9907 252.1994,331.0982 256.1096,332.4812 260.2124,333.0883 264.7288,332.8399 268.7403,331.7866 272.7962,329.7842 276.0716,327.2399 278.7979,324.1144 280.874,320.5239 282.2226,316.6018 282.7937,312.4938 282.5057,307.9798 281.4173,303.9776 279.5812,300.2587 277.0657,296.9611 273.9643,294.2074 270.3921,292.0999 266.482,290.7169 262.0019,290.0941 257.8628,290.3582 253.8512,291.4114 250.1163,293.2148 246.7968,295.7013 244.016,298.7784 241.7176,302.6742 240.2844,306.9643 239.7855,311.0817 240.0858,315.2183"/>
    <line x1="442.2305" x2="442.8086" y1="323.3703" y2="323.8336"/>
    <line x1="443.6262" x2="442.47" y1="323.9979" y2="323.0714"/>
    <line x1="442.7095" x2="444.4438" y1="322.7725" y2="324.1622"/>
    <line x1="445.2615" x2="442.949" y1="324.3266" y2="322.4736"/>
    <line x1="443.1886" x2="446.0791" y1="322.1747" y2="324.4909"/>
    <line x1="446.3186" x2="443.4281" y1="324.192" y2="321.8758"/>
    <line x1="443.6676" x2="445.98" y1="321.5769" y2="323.4298"/>
    <line x1="446.4457" x2="458.2392" y1="323.0204" y2="403.468"/>
    <line x1="457.8553" x2="443.1134" y1="403.5243" y2="302.9648"/>
    <line x1="441.9618" x2="456.7037" y1="303.1336" y2="403.6931"/>
    <line x1="456.3199" x2="444.5263" y1="403.7494" y2="323.3018"/>
    <line x1="445.6414" x2="443.9071" y1="322.6677" y2="321.278"/>
    <line x1="444.1466" x2="445.3028" y1="320.9791" y2="321.9056"/>
    <line x1="444.9642" x2="444.3861" y1="321.1434" y2="320.6802"/>
    <polygon points="444.6257,320.3813 441.991,323.6692 446.4879,324.5731"/>
    <line x1="447.0908" x2="455.936" y1="343.47" y2="403.8057"/>
    <line x1="455.5521" x2="449.6554" y1="403.862" y2="363.6381"/>
    <line x1="453.1102" x2="459.0069" y1="363.1317" y2="403.3555"/>
    <line x1="458.6231" x2="449.7779" y1="403.4118" y2="343.076"/>
    <polygon points="471.5359,327.4504 469.799,326.7182 467.9493,326.3555 466.0645,326.3775 464.2238,326.7834 462.5045,327.556 459.9412,329.7585 458.9185,331.3418 458.2401,333.1004 457.9345,334.9604 458.0146,336.8437 459.1095,340.0409 461.2855,342.6267 462.8583,343.6656 464.6099,344.362 467.9754,344.669 469.8241,344.301 471.5589,343.5638 474.1668,341.4145 475.2219,339.8525 475.9362,338.1082 476.2799,336.2549 476.2386,334.3704 475.2095,331.1513 473.087,328.5214"/>
    <line x1="504.018" x2="526.3979" y1="355.885" y2="381.2236"/>
    <line x1="528.4129" x2="506.033" y1="379.4439" y2="354.1052"/>
    <polygon points="506.3209,353.851 503.7302,356.1392 605.7349,469.0191"/>
    <line x1="505.7452" x2="550.5049" y1="354.3595" y2="405.0368"/>
    <line x1="549.0656" x2="504.3059" y1="406.3081" y2="355.6307"/>
    <line x1="504.5937" x2="571.7333" y1="355.3765" y2="431.3925"/>
    <line x1="572.5969" x2="505.4573" y1="430.6297" y2="354.6137"/>
    <line x1="505.1695" x2="594.6889" y1="354.868" y2="456.2227"/>
    <line x1="594.401" x2="504.8816" y1="456.4769" y2="355.1222"/>
    <line x1="456.4424" x2="459.3908" y1="383.1873" y2="403.2992"/>
    <line x1="457.4715" x2="439.7812" y1="403.5806" y2="282.9091"/>
    <line x1="439.3973" x2="457.0876" y1="282.9654" y2="403.6369"/>
    <line x1="455.1683" x2="452.2199" y1="403.9182" y2="383.8063"/>
    <polygon points="466.9594,491.0514 467.9532,495.3393 479.4082,490.4252"/>
    <line x1="467.0422" x2="469.0342" y1="491.4087" y2="490.947"/>
    <line x1="471.109" x2="467.125" y1="490.8426" y2="491.766"/>
    <line x1="467.2079" x2="473.1838" y1="492.1233" y2="490.7383"/>
    <line x1="475.2586" x2="467.2907" y1="490.6339" y2="492.4807"/>
    <line x1="467.3735" x2="477.3334" y1="492.838" y2="490.5295"/>
    <line x1="477.499" x2="467.5391" y1="491.2442" y2="493.5526"/>
    <line x1="467.4563" x2="479.4082" y1="493.1953" y2="490.4252"/>
    <line x1="475.5899" x2="467.622" y1="492.0632" y2="493.91"/>
    <line x1="467.7048" x2="473.6807" y1="494.2673" y2="492.8822"/>
    <line x1="471.7716" x2="467.7876" y1="493.7012" y2="494.6246"/>
    <line x1="467.8704" x2="469.8624" y1="494.9819" y2="494.5202"/>
    <polygon points="442.791,574.601 440.6255,571.9853 437.7101,569.5921 434.3737,567.8325 431.123,566.8505 427.3705,566.4684 423.6176,566.8471 420.0171,567.9712 416.7154,569.7949 414.1106,571.9736 411.7321,574.9011 409.9894,578.2463 408.9534,581.8732 408.6607,585.2564 408.9846,588.6367 410.054,592.2538 411.8275,595.5828 414.2329,598.4883 417.1723,600.8519 420.5263,602.5777 424.1583,603.5953 427.5429,603.871 431.2918,603.4543 434.8808,602.294 438.1639,600.437 440.7465,598.2321 443.0953,595.2807 444.6642,592.2691 445.7368,588.6529 446.0619,584.895 445.7039,581.5181 444.598,577.9119"/>
    <polygon points="446.2349,581.1387 445.0904,577.5451 443.2689,574.2428 440.8399,571.3578 437.8961,569.0003 434.5501,567.2603 430.9295,566.2043 427.1728,565.8727 423.4232,566.278 419.8241,567.4049 416.5129,569.2102 413.616,571.6251 411.2441,574.5572 409.4878,577.8947 408.4141,581.5101 408.0641,585.2652 408.4511,589.0167 409.5603,592.6213 411.3494,595.9413 413.7501,598.8499 416.6706,601.2361 419.9995,603.0088 423.6095,604.1001 427.3629,604.4685 431.1162,604.0999 434.7262,603.0083 438.0549,601.2355 440.9753,598.8491 443.3757,595.9402 445.307,592.2702 446.3453,588.6446 446.6585,584.8862"/>
    <polygon points="452.4205,593.4146 449.4867,614.3959 457.1097,614.0746"/>
    <line x1="452.4205" x2="453.2982" y1="593.4146" y2="614.2352"/>
    <line x1="452.917" x2="452.1271" y1="614.2513" y2="595.5127"/>
    <line x1="452.8894" x2="453.6793" y1="595.4806" y2="614.2192"/>
    <line x1="454.0605" x2="453.3584" y1="614.2031" y2="597.5466"/>
    <line x1="451.8338" x2="452.5359" y1="597.6108" y2="614.2674"/>
    <line x1="452.1547" x2="451.5404" y1="614.2834" y2="599.709"/>
    <line x1="451.247" x2="451.7736" y1="601.8071" y2="614.2995"/>
    <line x1="451.3924" x2="450.9536" y1="614.3156" y2="603.9052"/>
    <line x1="450.6602" x2="451.0113" y1="606.0034" y2="614.3316"/>
    <line x1="450.6301" x2="450.3668" y1="614.3477" y2="608.1015"/>
    <line x1="450.0734" x2="450.249" y1="610.1996" y2="614.3638"/>
    <line x1="449.8678" x2="449.78" y1="614.3798" y2="612.2978"/>
    <line x1="454.4416" x2="453.8273" y1="614.187" y2="599.6126"/>
    <line x1="454.2962" x2="454.8228" y1="601.6786" y2="614.171"/>
    <line x1="455.2039" x2="454.7651" y1="614.1549" y2="603.7446"/>
    <line x1="455.234" x2="455.5851" y1="605.8106" y2="614.1388"/>
    <line x1="455.9662" x2="455.7029" y1="614.1228" y2="607.8766"/>
    <line x1="456.1718" x2="456.3474" y1="609.9426" y2="614.1067"/>
    <line x1="456.7285" x2="456.6408" y1="614.0906" y2="612.0086"/>
    <polygon points="441.9647,599.5465 444.5597,596.3127 446.3101,592.9732 447.493,588.9993 447.8518,584.8687 447.4497,581.1197 446.2232,577.1591 444.2245,573.5264 441.5354,570.3704 438.2661,567.8203 434.9028,566.1162 430.9129,564.9884 427.1552,564.6794 423.0347,565.1406 419.4382,566.2725 415.7963,568.2545 412.8929,570.6599 410.2681,573.8696 408.3433,577.5419 407.2676,581.1556 406.8708,585.2828 407.313,589.4054 408.4283,593.0071 410.3935,596.658 412.7855,599.5725 415.671,601.9994 419.298,604.0084 423.2552,605.2461 427.3806,605.6619 431.1347,605.3116 435.1119,604.1399 438.7719,602.1916"/>
    <polygon points="443.8636,596.284 445.809,592.622 446.9531,588.6362 447.2552,584.8774 446.7624,580.7601 445.5818,577.1788 443.7467,573.8846 441.3229,570.9958 438.3977,568.6162 435.0759,566.8313 431.1069,565.6307 427.3528,565.2751 423.2289,565.7092 419.6311,566.8387 416.3111,568.6267 413.1218,571.2769 410.7561,574.2134 408.987,577.5436 407.8052,581.5183 407.4675,585.274 407.9211,589.3958 409.0677,592.9882 410.8714,596.2997 413.5367,599.4763 416.4844,601.8281 420.1738,603.7211 423.8032,604.7443 427.5605,605.0642 431.6801,604.591 435.267,603.4274 438.5699,601.6079 441.4702,599.1979"/>
    <line x1="455.0075" x2="383.4127" y1="645.41" y2="668.6951"/>
    <line x1="383.2948" x2="431.0246" y1="668.3325" y2="652.809"/>
    <line x1="431.7323" x2="384.0025" y1="654.985" y2="670.5085"/>
    <line x1="384.1205" x2="407.9854" y1="670.8711" y2="663.1094"/>
    <line x1="407.0418" x2="383.1768" y1="660.2081" y2="667.9698"/>
    <line x1="383.5307" x2="478.9904" y1="669.0578" y2="638.011"/>
    <line x1="479.2263" x2="383.7666" y1="638.7363" y2="669.7831"/>
    <line x1="383.6486" x2="502.9732" y1="669.4205" y2="630.6119"/>
    <line x1="455.4793" x2="383.8845" y1="646.8607" y2="670.1458"/>
    <polygon points="384.2384,671.2338 502.9732,630.6119 383.0589,667.6071"/>
    <polygon points="355.1172,733.4863 356.0422,726.7544 356.3023,719.5868 355.8674,712.8055 354.774,706.0989 353.0324,699.5307 350.6591,693.1634 347.6768,687.0577 344.1138,681.2715 340.004,675.86 335.3866,670.8747 330.3054,666.3629 324.8088,662.3677 318.6141,658.7527 312.4317,655.9327 306.0039,653.7285 299.392,652.161 292.6589,651.2451 285.8685,650.9895 279.0855,651.3968 272.3745,652.4629 265.7993,654.1778 259.4224,656.5252 253.3046,659.4827 247.1922,663.2352 241.7863,667.3523 236.8072,671.9765 232.3023,677.0638 228.3145,682.5657 224.8817,688.4301 221.8964,694.9516 219.7008,701.3823 218.1423,707.9963 217.2355,714.7308 216.9892,721.5215 217.4056,728.3039 218.4809,735.0134 220.2047,741.5863 222.5607,747.96 225.5264,754.0738 229.2872,760.1811 233.4116,765.5815 238.0426,770.5543 243.136,775.0522 248.6434,779.0326 254.5123,782.4574 260.6871,785.2942 267.4716,787.6208 274.0877,789.1703 280.8233,790.068 287.6144,790.3051 294.3962,789.8795 301.1043,788.7952 307.6749,787.0624 314.0453,784.6978 320.1551,781.7238 325.9461,778.1686 331.3632,774.0662 336.3547,769.4555 341.1097,764.0858 345.0825,758.573 348.4994,752.6994 351.3278,746.5208 353.5407,740.0961"/>
    <polygon points="351.0098,746.2294 353.2073,739.7975 354.7637,733.1813 355.6641,726.4443 355.8999,719.6516 355.4687,712.8684 354.3747,706.1602 352.6285,699.5915 350.2468,693.2255 347.2526,687.1237 343.6748,681.3448 339.5477,675.9443 334.9112,670.9744 329.8099,666.4829 324.2929,662.513 318.4134,659.103 312.2279,656.2857 305.796,654.0883 299.1798,652.5319 292.4428,651.6314 285.6501,651.3957 278.8669,651.8269 272.1587,652.9208 265.59,654.6671 259.2241,657.0488 253.1222,660.0429 247.3433,663.6208 241.9428,667.7478 236.9729,672.3843 232.4814,677.4856 228.5115,683.0026 225.1015,688.8822 222.2842,695.0677 220.0868,701.4995 218.5304,708.1158 217.6299,714.8527 217.3942,721.6455 217.8254,728.4286 218.9194,735.1369 220.6656,741.7056 223.0473,748.0715 226.0414,754.1733 229.6193,759.9523 233.7463,765.3527 238.3828,770.3226 243.4841,774.8141 249.0011,778.784 254.8807,782.194 261.0662,785.0113 267.498,787.2087 274.1143,788.7652 280.8512,789.6656 287.644,789.9014 294.4271,789.4702 301.1354,788.3762 307.7041,786.6299 314.07,784.2483 320.1718,781.2541 325.9508,777.6763 331.3512,773.5492 336.3211,768.9127 340.8127,763.8114 344.7825,758.2944 348.1925,752.4148"/>
    <polygon points="352.8357,747.0949 355.0547,740.667 356.7212,733.6855 357.6446,726.9484 357.9182,719.7761 357.5107,712.9882 356.381,705.9001 354.6582,699.3218 352.1685,692.5899 349.1964,686.4736 345.4422,680.3562 341.3349,674.9366 336.4603,669.6682 331.0805,664.9169 325.5673,660.9362 319.6998,657.499 313.1811,654.495 306.7562,652.2675 299.7769,650.5917 292.6646,649.6264 285.869,649.3762 279.0806,649.7747 271.991,650.895 265.05,652.7227 258.6753,655.0899 252.5551,658.0539 246.4326,661.8 241.0076,665.9001 235.7328,670.7677 231.2111,675.8467 226.9863,681.6492 223.3666,687.8471 220.3885,694.3777 218.1865,700.8115 216.5386,707.7973 215.6016,714.9135 215.3784,721.7099 215.8465,728.8722 216.9524,735.5818 218.6926,742.1555 221.2002,748.8808 224.1885,754.9891 227.9589,761.0966 232.0805,766.5053 236.9691,771.7607 242.066,776.2622 247.8852,780.4638 254.0976,784.0589 260.2885,786.8722 266.7193,789.0827 273.7029,790.7399 280.4412,791.6544 287.614,791.9185 294.4013,791.502 301.4879,790.3629 308.0639,788.6314 314.7925,786.1327 321.2357,782.97 327.0173,779.3902 332.4314,775.2758 337.6933,770.3941 342.2015,765.3032 346.4109,759.4896 350.0142,753.282"/>
    <polygon points="350.4938,753.2306 353.2934,747.0353 355.4935,740.6027 357.1436,733.6192 358.0872,726.5056 358.3148,719.3334 357.8679,712.5496 356.7012,705.4693 354.8325,698.541 352.4314,692.1807 349.4386,686.0765 345.6673,679.9715 341.3045,674.2743 336.6652,669.3047 331.281,664.561 325.7666,660.5847 319.5652,656.9744 313.0338,654.0021 306.6012,651.8021 299.6177,650.152 292.5041,649.2084 285.7097,648.9748 278.5482,649.4277 271.4678,650.5943 264.5395,652.463 258.1792,654.8641 251.7445,658.0401 245.9701,661.6283 240.5616,665.7474 235.3033,670.6303 230.7956,675.7195 226.5832,681.5289 222.9729,687.7304 220.1407,693.9108 217.8006,700.6943 216.1505,707.6779 215.2069,714.7914 214.9733,721.5858 215.4262,728.7474 216.5928,735.8278 218.346,742.3963 220.8626,749.1163 224.0386,755.5511 227.6268,761.3255 231.7459,766.734 236.6288,771.9923 242.013,776.736 247.5274,780.7123 253.7289,784.3227 259.9093,787.1549 266.6928,789.495 273.6764,791.1451 280.4134,792.0568 287.5844,792.3222 294.7459,791.8694 301.8263,790.7027 308.3948,788.9496 315.1148,786.4329 321.2191,783.44 327.324,779.6687 333.0212,775.3059 338.2537,770.3954 342.7345,765.2825 346.9162,759.451"/>
    <polygon points="334.3878,767.4292 338.8907,762.3403 342.6485,757.1375 345.8899,751.5983 348.7261,745.4233 350.9207,738.9923 352.3838,732.7434 353.2407,726.383 353.4788,719.592 353.0694,713.1871 351.9686,706.4818 350.3088,700.2822 348.062,694.2704 345.0665,688.1712 341.6823,682.718 337.5468,677.3262 333.1572,672.6442 328.3388,668.4048 323.136,664.6471 317.5968,661.4056 311.4218,658.5694 305.3537,656.4795 298.7419,654.9118 292.3815,654.0548 285.9681,653.8118 279.5611,654.185 272.8496,655.2479 266.2807,656.9868 260.2689,659.2335 254.5003,662.0465 248.7165,665.6132 243.3247,669.7488 238.6427,674.1384 234.4033,678.9568 230.4403,684.4766 227.2302,690.034 224.5679,695.8737 222.478,701.9418 220.9103,708.5536 220.0533,714.9141 219.8152,721.705 220.2246,728.1099 221.2464,734.446 222.9853,741.0148 225.232,747.0266 228.045,752.7952 231.6117,758.579 235.5033,763.6825 239.8664,768.3893 244.9553,772.8922 250.1581,776.65 255.6973,779.8914 261.8722,782.7276 268.3032,784.9222 274.5521,786.3853 281.289,787.2736 287.7036,787.4803 294.1084,787.0709 300.8138,785.9701 307.0134,784.3103 313.0252,782.0635 318.7938,779.2505 324.5776,775.6838 329.681,771.7922"/>
    <polygon points="326.944,778.9509 332.3429,774.8233 337.3216,770.1975 341.8344,765.1161 346.0467,759.3099 349.4765,753.4429 352.4697,746.9239 354.7885,740.1358 356.3417,733.5196 357.2541,726.7851 357.5128,719.6165 357.0881,712.8338 356.0158,706.1229 354.3056,699.5456 351.8259,692.8146 348.6785,686.3687 345.1101,680.5849 340.7609,674.8805 336.1285,669.9079 331.0411,665.4019 325.5455,661.4039 319.3576,657.7754 313.1853,654.9314 306.7689,652.6917 299.7966,651.0058 293.0658,650.0665 285.8983,649.7792 279.1139,650.1768 272.029,651.2992 265.0939,653.132 258.7263,655.5068 252.2846,658.6627 246.5056,662.2389 241.0957,666.3522 235.8406,671.2347 231.1059,676.6235 227.1446,682.1456 223.5574,688.3575 220.7546,694.5486 218.5577,700.9798 216.9183,707.9632 216.0239,714.7001 215.7788,721.4917 216.227,728.6509 217.3172,735.3589 219.1593,742.2916 221.5425,748.656 224.7071,755.0935 228.291,760.8677 232.4114,766.2721 237.301,771.5208 242.4004,776.0132 248.2234,780.2022 254.4401,783.7811 260.6349,786.5757 267.069,788.764 274.0546,790.3941 281.1692,791.3097 287.9622,791.5096 294.7432,791.0578 301.4498,789.9587 308.0202,788.2222 314.7413,785.7156 320.8442,782.7257"/>
    <polygon points="315.4125,787.183 321.5165,784.197 327.6261,780.4398 333.3345,776.0973 338.5858,771.2119 343.0924,766.1261 347.3105,760.3251 350.9347,754.1356 353.9294,747.6183 356.2654,740.837 357.9197,733.858 358.8763,726.7496 359.1257,719.5815 358.6654,712.4239 357.5,705.3468 355.6409,698.4195 353.1063,691.7098 349.9211,685.2835 346.3314,679.5138 341.974,673.8167 337.0749,668.5782 331.6821,663.8494 326.1654,659.8819 320.3015,656.4483 313.792,653.4366 307.0168,651.083 300.0421,649.4105 292.9363,648.4354 286.1465,648.1638 278.9855,648.5681 271.8995,649.6781 264.9578,651.483 258.2286,653.9651 251.7776,657.1 245.6679,660.8572 239.9595,665.1997 234.9724,669.8153 230.2016,675.171 225.9835,680.9719 222.3594,687.1614 219.3647,693.6787 217.0287,700.4601 215.3743,707.4391 214.4178,714.5474 214.1684,721.7155 214.6287,728.8731 215.794,735.9503 217.6531,742.8776 220.1877,749.5872 223.373,756.0135 226.9626,761.7832 231.0768,767.1914 235.9486,772.4554 241.3167,777.2122 247.1286,781.4152 253.3275,785.0232 259.8526,788.0009 266.64,790.3192 273.6233,791.9554 280.7341,792.8934 287.9028,793.1241 294.684,792.6881 301.7642,791.5411 308.6963,789.7001"/>
    <polygon points="300.4755,785.6303 307.0425,783.8773 313.0497,781.6137 318.8105,778.7809 324.2709,775.4053 329.6686,771.2746 334.3539,766.8861 338.5937,762.0658 342.3486,756.8589 345.7568,750.9783 348.4081,745.1318 350.4827,739.0567 351.9613,732.8097 352.8621,726.0728 353.0765,719.6568 352.6706,713.2501 351.6484,706.9124 349.9048,700.343 347.6497,694.3325 344.825,688.5678 341.4572,683.1025 337.3342,677.699 332.9524,673.0074 328.1382,668.7607 322.9366,664.9985 317.3962,661.7559 311.5687,659.0631 305.5085,656.9453 298.9011,655.3515 292.1654,654.4412 285.7497,654.2177 279.3424,654.6144 273.0033,655.6277 266.7916,657.2481 260.7653,659.4604 254.9806,662.244 249.179,665.785 243.7696,669.9003 239.0718,674.2755 234.8183,679.0837 231.0487,684.2799 227.7981,689.8157 224.9559,695.9898 222.8639,702.0589 221.3675,708.3017 220.4807,714.6597 220.2115,721.0736 220.6026,727.8592 221.6069,734.1998 223.3318,740.7741 225.5698,746.791 228.5605,752.8945 231.9438,758.3502 236.0822,763.742 240.4773,768.421 245.3036,772.654 250.5158,776.4015 256.0655,779.6284 261.9006,782.3046 267.9668,784.4051 274.5787,785.9801 281.3169,786.8712 287.7332,787.0765 294.1393,786.6615"/>
    <polygon points="387.6929,744.621 387.9914,740.114 387.4644,736.0061 386.0379,731.7203 383.7801,727.8082 380.7828,724.4291 377.4895,721.9177 373.4377,719.9215 369.4396,718.8405 365.3108,718.5147 360.8238,719.0328 356.8779,720.2909 352.9191,722.4659 349.4776,725.3914 346.6936,728.9482 344.6803,732.9916 343.5825,736.9851 343.246,741.4894 343.7384,745.6017 344.98,749.5528 347.1383,753.5207 350.0492,756.9745 353.5943,759.7735 357.6292,761.8038 361.618,762.9184 366.1209,763.2738 370.6034,762.7179 374.8831,761.2734 378.4789,759.2183 381.6344,756.5359 384.4484,753.0026 386.4956,748.9763"/>
    <polygon points="364.9957,600.9305 369.6495,596.0513 364.4701,595.7701"/>
    <line x1="365.2542" x2="364.9373" y1="600.6594" y2="600.3571"/>
    <line x1="364.8789" x2="365.5128" y1="599.7837" y2="600.3884"/>
    <line x1="365.7713" x2="364.8205" y1="600.1173" y2="599.2104"/>
    <line x1="364.7621" x2="366.0299" y1="598.637" y2="599.8462"/>
    <line x1="366.2884" x2="364.7037" y1="599.5752" y2="598.0636"/>
    <line x1="364.6453" x2="366.547" y1="597.4903" y2="599.3041"/>
    <line x1="366.8055" x2="364.5869" y1="599.033" y2="596.9169"/>
    <line x1="364.5285" x2="367.0641" y1="596.3435" y2="598.762"/>
    <line x1="367.3226" x2="364.4701" y1="598.4909" y2="595.7701"/>
    <line x1="365.0456" x2="367.5812" y1="595.8014" y2="598.2199"/>
    <line x1="367.8397" x2="365.6211" y1="597.9488" y2="595.8326"/>
    <line x1="366.1966" x2="368.0983" y1="595.8639" y2="597.6777"/>
    <line x1="368.3568" x2="366.7721" y1="597.4067" y2="595.8951"/>
    <line x1="367.3476" x2="368.6153" y1="595.9264" y2="597.1356"/>
    <line x1="368.8739" x2="367.9231" y1="596.8645" y2="595.9576"/>
    <line x1="368.4986" x2="369.1324" y1="595.9889" y2="596.5935"/>
    <line x1="369.391" x2="369.0741" y1="596.3224" y2="596.0201"/>
    <polygon points="367.6774,571.405 370.8488,568.7219 374.0007,565.4663 376.5797,562.2098 378.838,558.7232 380.9119,554.6942 382.4372,550.8303 383.6746,546.4711 384.4068,542.3821 384.7476,538.242 384.6938,534.0883 384.1859,529.5855 383.3129,525.5241 382.0584,521.564 380.268,517.4013 378.0563,513.4463 375.679,510.0398 372.9891,506.8742 370.0108,503.9783 366.4646,501.1573 362.9731,498.9066 359.2838,496.9975 355.4298,495.4471 351.0788,494.1815 346.9946,493.4228 342.4793,493.0413 338.3257,493.104 333.8239,493.6217 329.7645,494.5034 325.8071,495.7665 321.9875,497.3996 318.0183,499.5856 314.5963,501.9407 311.4134,504.6101 308.2475,507.8521 305.6544,511.0974 303.191,514.9007 301.1346,518.9386 299.626,522.8091 298.4916,526.8053 297.7417,530.8911 297.383,535.0296 297.4189,539.1836 297.9073,543.6885 298.7627,547.7536 300.0001,551.7191 301.6084,555.5492 303.573,559.2094 306.1016,562.9697 308.7502,566.1698 311.9716,569.3567 315.5056,572.193 318.9873,574.4588 323.0118,576.5413 326.8724,578.075 331.2289,579.3218 335.3163,580.0629 339.8332,580.4248 343.9865,580.3442 348.1134,579.8696 352.1766,579.0054 356.4934,577.6276 360.306,575.9781 363.9447,573.9741"/>
    <polygon points="374.8642,566.5539 377.6866,563.0109 380.1393,559.2025 382.1974,555.1671 383.84,550.9456 384.9667,546.9487 385.7705,542.4908 386.1109,538.3521 386.0462,533.8227 385.5878,529.6954 384.657,525.2622 383.4167,521.2992 381.6541,517.1263 379.4817,513.1513 376.9213,509.4145 374.2555,506.2305 371.0269,503.0531 367.4957,500.2158 363.6976,497.7472 359.6709,495.6723 355.4563,494.012 351.4642,492.8686 347.0096,492.0461 342.495,491.6747 338.3428,491.734 333.8406,492.2341 329.4114,493.1835 325.4535,494.4404 321.288,496.2204 317.3222,498.4095 313.5962,500.9855 310.4234,503.6646 307.2595,506.9065 304.6585,510.1436 302.174,513.9314 300.241,517.6067 298.5278,521.8001 297.2442,526.1443 296.403,530.5953 296.0128,535.1083 296.0547,539.2608 296.5359,543.765 297.4667,548.1982 298.707,552.1613 300.4695,556.3342 302.642,560.3091 305.2024,564.0459 308.1249,567.5069 311.38,570.6571 314.9348,573.4648 318.4261,575.7132 322.1095,577.6308 326.31,579.3264 330.6595,580.5918 335.1141,581.4144 339.6287,581.7857 344.1578,581.702 348.2831,581.2263 352.7123,580.2769 357.0239,578.8878 361.1743,577.073 365.1217,574.8507 368.5275,572.4749 371.7003,569.7958"/>
    <polygon points="380.1414,543.5945 382.3733,546.1531 385.0715,548.2139 388.1273,549.6938 391.0441,550.4727 394.4308,550.7132 397.7973,550.2719 401.0076,549.1666 403.6251,547.6621 406.1961,545.4446 408.272,542.7579 409.6333,540.0631 410.5642,536.798 410.8236,533.4127 410.4011,530.0438 409.4662,527.1731 407.8239,524.2015 405.6208,521.6181 403.263,519.7324 400.2586,518.1509 396.9987,517.2018 393.6149,516.9235 390.2438,517.3272 387.0213,518.3965 384.0776,520.0884 381.5316,522.3346 379.6857,524.7236 378.1548,527.7541 377.2605,531.0295 377.0389,534.4175 377.4991,537.7814 378.4659,540.6414"/>
    <line x1="338.1331" x2="127.4011" y1="552.9362" y2="724.0555"/>
    <polygon points="271.6345,569.276 271.0365,575.6692 271.0908,582.09 271.7375,588.099 272.9556,594.0187 274.8634,600.1498 277.384,606.0554 280.2928,611.353 283.923,616.6494 287.8147,621.2734 292.1305,625.5042 297.1367,629.5252 302.5252,633.0171 307.8964,635.7878 313.5078,638.0323 319.6757,639.8177 325.6184,640.9177 331.6391,641.4446 338.0597,641.371 344.0668,640.7064 350.3482,639.3747 356.1081,637.5445 362.0062,635.0062 367.2951,632.0816 372.2801,628.6647 376.9157,624.7869 381.1594,620.4837 384.9722,615.7946 388.5124,610.4375 391.3312,605.0915 393.626,599.5004 395.4666,593.3488 396.6199,587.4162 397.2179,581.0231 397.1849,574.9795 396.517,568.5932 395.204,562.3078 393.3911,556.5425 390.8705,550.6368 387.9617,545.3392 384.5597,540.3439 380.6958,535.6968 376.4054,531.4402 371.4234,527.3893 366.0558,523.8652 360.7013,521.0624 355.1034,518.7844 348.9464,516.9621 342.636,515.7745 336.6154,515.2477 330.5719,515.2988 324.561,515.9274 318.6378,517.1278 312.501,519.0173 306.5878,521.5202 301.2815,524.4132 296.2761,527.8002 291.3387,531.9053 287.0951,536.2085 283.059,541.2026 279.7421,546.2547 276.7643,551.9435 274.503,557.5482 272.7878,563.3434"/>
    <polygon points="311.7418,569.7619 314.9729,572.369 318.7596,574.8532 322.4377,576.7789 326.6367,578.4755 330.6201,579.6455 335.0696,580.4892 339.2049,580.8585 343.7335,580.8167 348.234,580.3113 352.2944,579.4454 356.2556,578.202 360.4225,576.4281 364.3859,574.2368 367.8046,571.8811 371.2635,568.9577 374.1561,565.9796 376.9774,562.4369 379.2324,558.951 381.3072,554.9254 382.8379,551.0661 384.0863,546.7128 384.8335,542.6289 385.2075,538.1155 385.1425,533.9643 384.6881,529.8376 383.7529,525.4064 382.3689,521.0942 380.7182,517.2847 378.5185,513.326 376.1555,509.9124 373.4824,506.7358 370.2404,503.5735 366.9982,500.9803 363.201,498.5122 359.171,496.446 355.3085,494.9236 350.9525,493.6845 346.867,492.946 342.3528,492.5817 338.2018,492.6556 333.7034,493.1801 329.6468,494.0635 325.691,495.3238 321.5317,497.1155 317.8983,499.1243 314.1691,501.694 310.9982,504.3739 307.8429,507.6226 305.2565,510.8703 302.7966,514.6728 300.8946,518.3632 299.2249,522.573 298.0805,526.5638 297.2653,531.0187 296.9226,535.1562 296.9698,539.3076 297.4655,543.8092 298.3228,547.8715 299.6884,552.1895 301.3227,556.006 303.5055,559.9741 305.8539,563.3977 308.5134,566.5858"/>
    <polygon points="323.4528,576.2402 327.3207,577.7461 331.3152,578.8743 335.3994,579.6144 339.5357,579.9597 344.0628,579.8824 348.1849,579.3961 352.2415,578.517 356.1951,577.2531 360.0094,575.6161 363.6492,573.621 367.3816,571.0579 370.8256,568.1187 373.6971,565.1215 376.268,561.8628 378.5148,558.3727 380.5718,554.3393 382.0777,550.4714 383.2059,546.4769 383.9461,542.3927 384.303,537.8791 384.2141,533.7293 383.7278,529.6071 382.8486,525.5506 381.4511,521.2439 379.7809,517.4441 377.7541,513.8218 375.3895,510.4105 372.7089,507.2415 369.4531,504.095 366.1944,501.5241 362.7044,499.2773 359.015,497.3754 355.1604,495.8358 351.1759,494.6728 346.7243,493.846 342.2107,493.489 338.0609,493.578 333.9388,494.0643 329.8822,494.9434 325.9286,496.2073 322.1143,497.8443 318.4745,499.8394 314.7421,502.4025 311.5731,505.0832 308.4266,508.339 305.8557,511.5976 303.6089,515.0877 301.5518,519.1211 300.046,522.9891 298.9178,526.9835 298.1776,531.0677 297.8207,535.5814 297.9096,539.7311 298.3959,543.8533 299.2751,547.9098 300.539,551.8635 302.176,555.6777 304.3695,559.6386 306.7341,563.0499 309.4148,566.2189 312.3869,569.1164 315.623,571.7157 319.4193,574.1831"/>
    <polygon points="330.6994,581.5367 335.1587,582.3389 339.6752,582.6985 344.2053,582.6118 348.7048,582.0798 352.7652,581.2053 357.0848,579.8379 361.2488,578.052 365.2169,575.8651 368.9506,573.2983 372.4135,570.3765 375.5722,567.1282 378.3959,563.5849 380.8572,559.7809 382.9323,555.7531 384.6009,551.5408 385.847,547.1846 386.6584,542.727 387.0272,538.2112 386.9498,533.681 386.4271,529.1804 385.464,524.7531 384.07,520.4421 382.2585,516.2891 380.0472,512.3345 377.4574,508.6168 374.5144,505.1719 371.2467,502.0333 367.686,499.2315 363.8669,496.7936 359.8265,494.7434 355.6039,493.1007 351.2402,491.8815 346.7777,491.0976 342.6372,490.768 338.1069,490.8361 333.6052,491.3496 329.1759,492.3035 324.862,493.6887 320.7054,495.4917 316.7463,497.6949 313.0232,500.277 309.5723,503.2129 306.6766,506.1907 303.8384,509.7224 301.3615,513.5163 299.2699,517.5355 297.584,521.741 296.32,526.092 295.4903,530.5462 295.103,535.0605 295.1617,539.5909 295.666,544.0936 296.6109,548.5249 297.9872,552.8416 299.7816,557.002 301.9767,560.9656 304.5511,564.694 307.48,568.1509 310.7347,571.3029 314.2839,574.1193 318.0929,576.5728 322.1249,578.6396 326.3407,580.2996"/>
    <polygon points="438.115,272.8813 454.7844,403.9745 459.7747,403.2429"/>
    <polygon points="663.9812,694.5888 660.2133,697.1958 666.2997,701.9663"/>
    <line x1="663.6672" x2="664.3677" y1="694.8061" y2="695.8184"/>
    <line x1="663.3533" x2="664.7541" y1="695.0233" y2="697.048"/>
    <line x1="665.1405" x2="663.0393" y1="698.2776" y2="695.2406"/>
    <line x1="662.7253" x2="665.5269" y1="695.4578" y2="699.5071"/>
    <line x1="665.9133" x2="662.4113" y1="700.7367" y2="695.6751"/>
    <line x1="662.0973" x2="666.2997" y1="695.8923" y2="701.9663"/>
    <line x1="665.2853" x2="661.7833" y1="701.1712" y2="696.1096"/>
    <line x1="661.4693" x2="664.2709" y1="696.3268" y2="700.3761"/>
    <line x1="663.2565" x2="661.1553" y1="699.581" y2="696.5441"/>
    <line x1="660.8413" x2="662.2421" y1="696.7613" y2="698.786"/>
    <line x1="661.2277" x2="660.5273" y1="697.9909" y2="696.9786"/>
  </g>
</svg>
