<?xml version="1.0" encoding="utf-8" ?>
<svg xmlns="http://www.w3.org/2000/svg" xmlns:cc="http://creativecommons.org/ns" xmlns:dc="http://purl.org/dc/elements/1.1/" xmlns:ev="http://www.w3.org/2001/xml-events" xmlns:inkscape="http://www.inkscape.org/namespaces/inkscape" xmlns:rdf="http://www.w3.org/1999/02/22-rdf-syntax-ns" xmlns:sodipodi="http://sodipodi.sourceforge.net/DTD/sodipodi-0.dtd" xmlns:xlink="http://www.w3.org/1999/xlink" baseProfile="tiny" height="29.7cm" version="1.2" viewBox="0 0 793.7007874015749 1122.5196850393702" width="21.0cm">
  <metadata>
    <rdf:RDF>
      <cc:Work>
        <dc:format>image/svg+xml</dc:format>
        <dc:source>vsk save -s 51 -c C:\Users\marti\Documents\git\putti-plotter-plot\sixfeet\config\1.json C:\Users\marti\Documents\git\putti-plotter-plot\sixfeet\sketch_sixfeet.py</dc:source>
        <dc:date>2023-11-19T17:46:28.361353</dc:date>
      </cc:Work>
    </rdf:RDF>
  </metadata>
  <defs/>
  <g fill="none" id="layer1" inkscape:groupmode="layer" inkscape:label="1" stroke="#0000ff" style="display:inline">
    <polygon points="310.6074,667.0288 312.2745,663.6435 313.594,660.1082 314.5525,656.4585 315.1406,652.731 315.2189,645.5697 313.9383,638.5233 312.7323,634.9477 311.1741,631.5109 309.2794,628.2476 307.0672,625.1905 302.0715,620.0587 296.1938,615.9669 292.8169,614.2829 289.2882,612.9457 285.6434,611.9688 281.919,611.3621 274.7581,611.2478 267.7053,612.493 264.1237,613.681 260.6792,615.222 254.635,619.0638 251.7776,621.5284 249.1815,624.267 245.0602,630.1241 243.3592,633.4925 242.0044,637.0144 241.0092,640.6543 240.3838,644.3757 240.1344,648.1409 240.2635,651.9122 241.5441,658.9586 242.7501,662.5342 244.3083,665.971 248.1804,671.9958 250.6593,674.8408 253.4109,677.4231 259.2887,681.515 262.6656,683.199 266.1942,684.5362 269.8391,685.5131 273.5635,686.1198 280.7244,686.2341 287.7771,684.9889 291.3587,683.8009 294.8032,682.2599 298.076,680.3816 301.1441,678.1847 303.9767,675.6915 306.5451,672.927"/>
    <line x1="301.9628" x2="295.5628" y1="666.354" y2="672.2184"/>
    <line x1="295.8118" x2="300.9318" y1="672.4901" y2="667.7986"/>
    <line x1="300.1849" x2="295.0648" y1="666.9835" y2="671.675"/>
    <line x1="295.3138" x2="301.7138" y1="671.9467" y2="666.0823"/>
    <line x1="298.6559" x2="294.8159" y1="667.8846" y2="671.4033"/>
    <line x1="294.5669" x2="297.1269" y1="671.1315" y2="668.7858"/>
    <line x1="295.5979" x2="294.3179" y1="669.6869" y2="670.8598"/>
    <line x1="296.0608" x2="299.9008" y1="672.7619" y2="669.2432"/>
    <line x1="298.8698" x2="296.3097" y1="670.6878" y2="673.0336"/>
    <line x1="296.5587" x2="297.8387" y1="673.3053" y2="672.1324"/>
    <polygon points="296.8077,673.577 302.4783,665.6317 294.0689,670.5881"/>
    <polygon points="267.5656,687.3224 262.3441,685.1399 257.1671,684.086 251.8843,684.0201 246.3191,685.0479 241.4083,686.9963 236.6523,690.0636 232.6076,694.022 229.6197,698.3792 227.5006,703.2187 226.2786,708.7445 226.189,714.4031 227.131,719.6017 229.2004,724.8691 232.2837,729.6147 235.9663,733.403 240.6228,736.6193 245.4695,738.7221 250.9994,739.9256 256.6583,739.9961 261.8536,739.0366 267.114,736.9495 271.5539,734.086 275.6251,730.155 278.8257,725.4876 280.9123,720.6339 282.0971,715.1 282.1486,709.4409 281.1716,704.2488 279.0668,698.9955 275.9517,694.2707 271.9527,690.2661"/>
    <polygon points="256.8973,692.2023 239.0924,684.6061 237.8487,695.6469"/>
    <line x1="256.2404" x2="238.4491" y1="692.3211" y2="690.3169"/>
    <line x1="238.4062" x2="254.9267" y1="690.6976" y2="692.5586"/>
    <line x1="255.0554" x2="238.5349" y1="691.4165" y2="689.5555"/>
    <line x1="238.492" x2="256.2833" y1="689.9362" y2="691.9403"/>
    <line x1="253.8274" x2="238.5778" y1="690.8926" y2="689.1748"/>
    <line x1="238.6206" x2="252.5995" y1="688.794" y2="690.3687"/>
    <line x1="251.3716" x2="238.6635" y1="689.8449" y2="688.4133"/>
    <line x1="238.7064" x2="250.1437" y1="688.0326" y2="689.321"/>
    <line x1="248.9158" x2="238.7493" y1="688.7971" y2="687.6519"/>
    <line x1="238.7922" x2="247.6878" y1="687.2712" y2="688.2732"/>
    <line x1="246.4599" x2="238.8351" y1="687.7494" y2="686.8904"/>
    <line x1="238.878" x2="245.232" y1="686.5097" y2="687.2255"/>
    <line x1="244.0041" x2="238.9209" y1="686.7016" y2="686.129"/>
    <line x1="238.9637" x2="242.7762" y1="685.7483" y2="686.1778"/>
    <line x1="241.5482" x2="239.0066" y1="685.6539" y2="685.3676"/>
    <line x1="239.0495" x2="240.3203" y1="684.9869" y2="685.13"/>
    <line x1="238.3633" x2="253.613" y1="691.0783" y2="692.7962"/>
    <line x1="252.2993" x2="238.3204" y1="693.0337" y2="691.4591"/>
    <line x1="238.2775" x2="250.9856" y1="691.8398" y2="693.2713"/>
    <line x1="249.6719" x2="238.2347" y1="693.5089" y2="692.2205"/>
    <line x1="238.1918" x2="248.3582" y1="692.6012" y2="693.7464"/>
    <line x1="247.0445" x2="238.1489" y1="693.984" y2="692.9819"/>
    <line x1="238.106" x2="245.7308" y1="693.3626" y2="694.2216"/>
    <line x1="244.4172" x2="238.0631" y1="694.4591" y2="693.7434"/>
    <line x1="238.0202" x2="243.1035" y1="694.1241" y2="694.6967"/>
    <line x1="241.7898" x2="237.9773" y1="694.9342" y2="694.5048"/>
    <line x1="237.9345" x2="240.4761" y1="694.8855" y2="695.1718"/>
    <line x1="239.1624" x2="237.8916" y1="695.4094" y2="695.2662"/>
    <line x1="220.9522" x2="219.2178" y1="767.2086" y2="767.3901"/>
    <line x1="220.9911" x2="217.5223" y1="767.5805" y2="767.9435"/>
    <line x1="215.8268" x2="221.03" y1="768.4968" y2="767.9524"/>
    <line x1="221.0689" x2="214.1313" y1="768.3242" y2="769.0501"/>
    <line x1="212.4357" x2="221.1078" y1="769.6035" y2="768.6961"/>
    <line x1="221.1467" x2="210.7402" y1="769.068" y2="770.1568"/>
    <line x1="209.0447" x2="221.1856" y1="770.7102" y2="769.4398"/>
    <line x1="221.2246" x2="207.3492" y1="769.8117" y2="771.2635"/>
    <line x1="207.5049" x2="221.3802" y1="772.751" y2="771.2991"/>
    <line x1="221.3413" x2="205.7315" y1="770.9273" y2="772.5606"/>
    <line x1="205.6537" x2="221.2635" y1="771.8168" y2="770.1836"/>
    <line x1="221.3024" x2="203.9582" y1="770.5554" y2="772.3702"/>
    <line x1="209.2782" x2="221.4191" y1="772.9413" y2="771.671"/>
    <line x1="221.458" x2="211.0515" y1="772.0429" y2="773.1317"/>
    <line x1="212.8248" x2="221.4969" y1="773.3221" y2="772.4147"/>
    <line x1="221.5358" x2="214.5982" y1="772.7866" y2="773.5125"/>
    <line x1="216.3715" x2="221.5747" y1="773.7029" y2="773.1585"/>
    <line x1="221.6136" x2="218.1448" y1="773.5303" y2="773.8933"/>
    <line x1="219.9181" x2="221.6526" y1="774.0837" y2="773.9022"/>
    <polygon points="221.6915,774.2741 220.9133,766.8368 203.9582,772.3702"/>
    <polygon points="196.3193,789.3928 192.3565,793.9556 189.0784,798.577 186.082,803.8252 183.7685,808.9973 181.8534,814.7293 180.5934,820.2534 179.8334,826.2488 179.6753,831.9125 180.0552,837.5657 181.0495,843.5268 182.6417,849.3566 184.663,854.6498 187.362,860.057 190.3771,864.8541 193.8338,869.3435 197.9722,873.7476 202.535,877.7103 207.1564,880.9884 212.0679,883.8133 217.5767,886.2984 223.3087,888.2134 228.8328,889.4734 234.4515,890.2038 240.4919,890.3915 246.5204,889.9673 252.1062,889.0174 257.9361,887.4252 263.2292,885.4038 268.3067,882.8895 273.4335,879.6897 278.2103,875.9877 282.327,872.0946 286.0558,867.8286 289.5678,862.9105 292.5643,857.6622 294.8778,852.4901 296.7928,846.7582 298.0529,841.2341 298.8128,835.2387 298.9709,829.5749 298.5467,823.5465 297.5968,817.9607 296.0046,812.1308 293.9832,806.8377 291.2843,801.4305 288.2691,796.6334 284.5671,791.8566 280.674,787.7399 276.1113,783.7771 271.4899,780.499 266.5783,777.6741 261.0695,775.1891 255.3376,773.274 249.8135,772.014 243.8181,771.254 238.1543,771.0959 232.1259,771.5202 226.5401,772.4701 221.0696,773.9455 215.4171,776.0836 210.0099,778.7826 205.2128,781.7977 200.7233,785.2544"/>
    <polygon points="187.0271,812.9327 280.7422,832.9718 291.5618,782.3725 197.8467,762.3334"/>
    <line x1="265.6578" x2="271.4826" y1="826.1502" y2="837.9046"/>
    <line x1="271.1367" x2="266.2828" y1="838.076" y2="828.2806"/>
    <line x1="266.9744" x2="271.8284" y1="827.9379" y2="837.7332"/>
    <line x1="272.1743" x2="268.2911" y1="837.5618" y2="829.7256"/>
    <line x1="266.9077" x2="270.7909" y1="830.4111" y2="838.2473"/>
    <line x1="270.445" x2="267.5326" y1="838.4187" y2="832.5415"/>
    <line x1="268.1576" x2="270.0992" y1="834.672" y2="838.5901"/>
    <line x1="269.7533" x2="268.7825" y1="838.7615" y2="836.8024"/>
    <line x1="272.5201" x2="269.6077" y1="837.3904" y2="831.5132"/>
    <line x1="270.9244" x2="272.8659" y1="833.3009" y2="837.2191"/>
    <line x1="273.2118" x2="272.241" y1="837.0477" y2="835.0886"/>
    <polygon points="273.5576,836.8763 265.6578,826.1502 269.4075,838.9329"/>
    <line x1="290.5762" x2="290.3796" y1="843.7475" y2="844.4853"/>
    <line x1="290.7339" x2="291.127" y1="844.5797" y2="843.104"/>
    <line x1="291.6778" x2="291.0881" y1="842.4605" y2="844.6741"/>
    <line x1="291.4423" x2="292.2286" y1="844.7684" y2="841.8171"/>
    <line x1="292.7794" x2="291.7966" y1="841.1736" y2="844.8628"/>
    <line x1="292.1508" x2="293.3302" y1="844.9572" y2="840.5301"/>
    <line x1="293.881" x2="292.505" y1="839.8867" y2="845.0515"/>
    <line x1="292.8593" x2="294.2352" y1="845.1459" y2="839.9811"/>
    <polygon points="294.1564,839.565 290.0254,844.3909 295.3389,845.8065"/>
    <line x1="294.3929" x2="293.2135" y1="840.8133" y2="845.2403"/>
    <line x1="293.5677" x2="294.5505" y1="845.3346" y2="841.6455"/>
    <line x1="294.7082" x2="293.9219" y1="842.4777" y2="845.429"/>
    <line x1="294.2762" x2="294.8659" y1="845.5234" y2="843.3099"/>
    <line x1="295.0235" x2="294.6304" y1="844.1421" y2="845.6178"/>
    <line x1="294.9846" x2="295.1812" y1="845.7121" y2="844.9743"/>
    <line x1="297.1166" x2="300.5173" y1="853.3338" y2="854.1115"/>
    <line x1="300.6012" x2="298.0507" y1="853.7444" y2="853.1612"/>
    <line x1="298.9849" x2="300.6852" y1="852.9885" y2="853.3773"/>
    <line x1="300.7691" x2="299.919" y1="853.0102" y2="852.8158"/>
    <line x1="300.4333" x2="296.1825" y1="854.4786" y2="853.5065"/>
    <line x1="295.2484" x2="300.3494" y1="853.6791" y2="854.8457"/>
    <line x1="300.2654" x2="294.3143" y1="855.2127" y2="853.8518"/>
    <line x1="293.3802" x2="300.1815" y1="854.0245" y2="855.5798"/>
    <line x1="300.0976" x2="292.4461" y1="855.9469" y2="854.1971"/>
    <line x1="291.512" x2="300.0136" y1="854.3698" y2="856.314"/>
    <line x1="299.9297" x2="290.5779" y1="856.6811" y2="854.5424"/>
    <line x1="289.6438" x2="299.8457" y1="854.7151" y2="857.0482"/>
    <line x1="299.7618" x2="288.7097" y1="857.4152" y2="854.8878"/>
    <line x1="288.428" x2="294.8152" y1="855.7671" y2="859.7306"/>
    <line x1="294.6192" x2="286.9546" y1="860.0465" y2="855.2903"/>
    <line x1="285.4811" x2="294.4231" y1="854.8135" y2="860.3624"/>
    <line x1="294.2271" x2="284.0077" y1="860.6783" y2="854.3367"/>
    <line x1="283.8116" x2="294.0311" y1="854.6526" y2="860.9942"/>
    <line x1="293.835" x2="284.893" y1="861.3101" y2="855.7612"/>
    <line x1="285.9744" x2="293.639" y1="856.8698" y2="861.626"/>
    <line x1="293.443" x2="287.0558" y1="861.9419" y2="857.9784"/>
    <line x1="288.1372" x2="293.2469" y1="859.087" y2="862.2578"/>
    <line x1="293.0509" x2="289.2186" y1="862.5737" y2="860.1956"/>
    <line x1="290.3" x2="292.8549" y1="861.3042" y2="862.8896"/>
    <line x1="292.6589" x2="291.3814" y1="863.2055" y2="862.4128"/>
    <polygon points="292.4628,863.5214 295.7953,858.151 283.2709,854.0983"/>
    <line x1="295.6056" x2="299.0062" y1="859.9413" y2="860.719"/>
    <polyline points="299.0902,860.3519 294.8394,859.3798 289.9015,856.2439"/>
    <line x1="290.2421" x2="299.5939" y1="856.0108" y2="858.1494"/>
    <line x1="299.6778" x2="289.4759" y1="857.7823" y2="855.4493"/>
    <line x1="291.0083" x2="299.5099" y1="856.5723" y2="858.5165"/>
    <line x1="299.426" x2="291.7745" y1="858.8836" y2="857.1338"/>
    <line x1="291.375" x2="295.2072" y1="856.7207" y2="859.0987"/>
    <line x1="295.4033" x2="292.8484" y1="858.7828" y2="857.1975"/>
    <line x1="292.5407" x2="299.342" y1="857.6953" y2="859.2506"/>
    <line x1="299.2581" x2="293.307" y1="859.6177" y2="858.2568"/>
    <line x1="294.0732" x2="299.1741" y1="858.8183" y2="859.9848"/>
    <line x1="298.9223" x2="296.3718" y1="861.0861" y2="860.5028"/>
    <line x1="297.138" x2="298.8383" y1="861.0643" y2="861.4531"/>
    <line x1="298.7544" x2="297.9042" y1="861.8202" y2="861.6258"/>
    <polygon points="298.6705,862.1873 300.8531,852.6432 288.7097,854.8878"/>
    <line x1="295.5993" x2="294.3219" y1="858.4669" y2="857.6742"/>
    <line x1="410.2033" x2="413.4517" y1="837.536" y2="870.5171"/>
    <line x1="413.8063" x2="407.3095" y1="870.4822" y2="804.5199"/>
    <line x1="408.7276" x2="415.2244" y1="804.3802" y2="870.3425"/>
    <line x1="414.8698" x2="405.1246" y1="870.3774" y2="771.434"/>
    <line x1="404.4156" x2="414.1608" y1="771.5038" y2="870.4473"/>
    <line x1="414.5153" x2="401.5217" y1="870.4123" y2="738.4878"/>
    <polygon points="400.6973,707.6999 404.2878,703.3285 406.7569,698.6602 408.2787,693.6032 408.7962,688.3476 408.2898,683.091 406.7785,678.0308 404.3192,673.3574 401.0043,669.2463 396.9585,665.8522 392.3337,663.3025 386.9341,661.6161 381.6803,661.0804 376.0513,661.6424 371.0072,663.2062 366.3596,665.714 362.2832,669.0714 358.9314,673.1524 356.43,677.8034 354.8731,682.8497 354.3192,688.1016 354.8617,693.7324 356.408,698.782 358.8996,703.4383 362.2429,707.5262 366.6267,711.1015 371.3035,713.5544 376.3658,715.0587 381.6231,715.5579 386.878,715.0333 391.9329,713.5045 396.5978,711.029"/>
    <polygon points="403.4638,703.0272 405.8066,698.7208 407.3917,693.6862 407.9387,688.8144 407.575,683.9255 406.1799,678.835 403.7996,674.1239 400.5292,669.9809 396.4997,666.5716 391.8721,664.0327 387.2014,662.5437 381.9582,661.936 377.0706,662.3172 371.9851,663.7305 367.2826,666.1276 363.1513,669.4128 359.9715,673.1441 357.383,677.7441 355.7619,682.7672 355.1729,688.0125 355.5716,692.8987 357.0031,697.9791 359.4171,702.6731 362.717,706.7926 366.7709,710.1729 371.4164,712.6786 376.0977,714.1342 381.3451,714.7043 386.601,714.2186 391.3051,712.8385 395.9904,710.4078 400.0981,707.0931"/>
    <polygon points="394.4835,708.3356 398.3002,705.2727 401.4107,701.4945 403.541,697.5097 404.8807,693.1943 405.3817,688.7037 404.9578,683.8283 403.6892,679.4915 401.6248,675.4721 398.577,671.6433 395.1229,668.7302 390.8348,666.3719 386.5248,665.0151 381.659,664.4918 376.789,664.9735 372.4676,666.2934 368.473,668.4054 364.949,671.2335 362.0222,674.676 359.7979,678.6092 358.2731,683.2594 357.7366,687.7459 358.0567,692.2531 359.3561,696.9713 361.592,701.3244 364.4061,704.8596 367.837,707.8 372.1063,710.1921 376.7743,711.6616 381.2669,712.1448 385.77,711.7712 390.4724,710.416"/>
    <polygon points="407.5164,688.4813 407.0843,683.5993 405.6025,678.5348 403.1272,673.8746 400.0279,670.0779 395.9576,666.7197 391.6413,664.398 386.5957,662.8531 381.7195,662.3599 376.8375,662.7921 371.773,664.2738 367.1128,666.7491 363.3161,669.8484 359.9579,673.9187 357.6362,678.235 356.0912,683.2806 355.5981,688.1568 356.1016,693.4096 357.512,698.1033 359.9873,702.7635 363.0866,706.5602 367.1569,709.9185 371.4732,712.2401 376.5188,713.7851 381.395,714.2782 386.277,713.8461 391.3415,712.3643 396.0017,709.889 399.7984,706.7897 403.1566,702.7194 405.4783,698.4031 406.9473,693.7274"/>
    <polygon points="398.3393,672.0104 394.8934,669.0899 390.9505,666.8859 386.289,665.4013 381.7978,664.9192 376.9274,665.3805 372.6065,666.6974 368.6192,668.8199 365.1139,671.6689 362.2213,675.1383 360.0492,679.0988 358.6784,683.4028 358.1601,687.8901 358.5135,692.3933 359.7256,696.7447 361.7511,700.7822 364.7752,704.6277 368.2211,707.5482 372.5105,709.9007 376.8255,711.2368 381.3167,711.7189 385.817,711.3292 390.508,709.9407 394.4953,707.8183 398.0006,704.9692 400.8932,701.4999 403.2111,697.1917 404.5123,692.8661 404.9583,688.3711 404.5323,683.8741 403.2503,679.5428 401.16,675.5385"/>
    <polygon points="381.5202,664.0651 377.0206,664.4932 372.3286,665.8895 368.0126,668.1995 364.5146,671.0621 361.6086,674.524 359.2448,678.8108 357.868,683.1159 357.3057,687.9789 357.7314,692.8557 359.1277,697.5477 361.2295,701.5492 364.3003,705.3617 368.074,708.4799 372.3971,710.7767 377.0934,712.1587 381.5943,712.573 386.4639,712.0715 390.7859,710.7487 394.7874,708.6468 398.5999,705.5761 401.718,701.8023 404.0149,697.4792 405.3246,693.1532 405.8112,688.2821 405.3097,683.4124 403.9868,679.0904 401.885,675.0889 398.8142,671.2765 395.0405,668.1583 391.0655,666.0066 386.3914,664.5517"/>
    <polygon points="358.1878,678.0323 356.5727,683.0543 356.0271,687.9236 356.4907,693.1785 357.8804,697.877 360.142,702.2235 363.1922,706.0581 367.2296,709.4535 371.5303,711.8011 376.2002,713.284 381.0674,713.8476 386.324,713.4034 391.0276,712.0311 395.3825,709.7855 399.4988,706.4863 402.6386,702.7248 405.0021,698.4328 406.5801,693.399 407.0896,688.5258 406.659,683.6451 405.3041,678.9364 403.0747,674.5733 399.7907,670.4448 396.0408,667.2911 391.4104,664.7636 386.7296,663.3152 381.8584,662.7876 376.9761,663.2002 372.2624,664.5377 367.5737,666.9554 363.7505,670.0197 360.583,673.7579"/>
    <polygon points="356.0279,677.6596 354.4673,682.7061 353.8919,688.3351 354.3992,693.593 355.8967,698.6586 358.3296,703.3473 361.873,707.7588 365.9266,711.1457 370.8977,713.8484 375.9443,715.409 381.5733,715.9844 386.8312,715.4771 391.8968,713.9797 396.9013,711.3393 400.997,708.0033 404.3839,703.9497 407.0866,698.9786 408.7214,693.5615 409.2226,688.303 408.7153,683.0451 407.2178,677.9795 404.7849,673.2908 401.2415,668.8794 396.8747,665.2811 392.2168,662.7897 387.1702,661.2291 381.9191,660.6561 376.2833,661.161 371.2177,662.6585 366.2132,665.2988 362.1175,668.6348 358.7306,672.6884"/>
    <polygon points="360.867,701.774 363.9307,705.5941 367.6883,708.7341 371.9919,711.0704 376.672,712.5111 381.5445,712.9994 386.4174,712.5162 391.0991,711.0803 395.4051,708.7484 398.8995,705.8795 401.8119,702.4212 404.1975,698.1447 405.6917,693.4813 406.2359,688.6148 405.8757,684.1079 404.5656,679.3895 402.3497,675.0227 399.3153,671.1793 395.5818,668.0106 391.6418,665.793 386.9959,664.2454 382.1359,663.6455 377.2532,664.0169 372.5398,665.345 368.1815,667.5775 364.3497,670.6266 361.411,674.0626 358.9928,678.3207 357.463,682.9725 356.8816,687.8347 357.2717,692.716 358.6178,697.4242"/>
    <polygon points="360.5045,701.9988 363.5614,705.8262 367.3032,708.9872 371.5876,711.3616 376.2515,712.8588 381.1173,713.422 385.9999,713.0297 391.0637,711.5565 395.3948,709.2684 399.1991,706.1829 402.332,702.4174 404.674,698.1153 406.1362,693.4403 406.6628,688.5703 406.2338,683.6908 404.8655,678.9875 402.61,674.6394 399.5531,670.8119 395.8113,667.6509 391.5269,665.2765 386.863,663.7793 381.6198,663.2123 376.7437,663.678 372.0508,665.0816 367.7197,667.3697 363.9154,670.4553 360.7825,674.2207 358.4405,678.5229 356.9783,683.1979 356.4517,688.0678 356.8807,692.9473 358.249,697.6506"/>
    <polygon points="362.3476,707.0247 366.3854,710.4262 371.0115,712.9706 376.0466,714.5592 381.2952,715.1303 386.5541,714.6619 391.6192,713.172 396.2941,710.7185 400.3977,707.3965 403.7707,703.3348 406.2825,698.6909 407.7579,694.0145 408.366,688.7699 407.9346,683.5079 406.4804,678.4325 404.0599,673.7403 400.7669,669.6135 396.7291,666.2119 392.103,663.6675 387.0679,662.079 381.8193,661.5078 376.5604,661.9763 371.4953,663.4661 366.8204,665.9196 362.7168,669.2416 359.3438,673.3033 356.832,677.9473 355.279,682.9933 354.7448,688.2459 355.1799,693.1302 356.6341,698.2057 359.0546,702.8978"/>
    <polygon points="431.1677,680.8833 425.1352,680.5207 419.0957,680.7409 413.1056,681.5419 407.2205,682.9162 401.4951,684.8509 395.6465,687.5006 390.4165,690.529 385.5026,694.0471 380.9505,698.0222 376.5575,702.705 372.8809,707.5015 369.6836,712.6298 366.8445,718.3889 364.724,724.0481 363.1584,729.8853 362.1624,735.8461 361.7386,742.2529 361.9406,748.293 362.7235,754.2855 364.08,760.1748 365.9975,765.906 368.4582,771.4258 371.6421,777.0016 375.3799,782.2224 379.3687,786.7625 383.7763,790.8973 388.5617,794.5883 393.6804,797.8011 399.0847,800.5059 404.7245,802.6776 410.9161,804.3783 417.2491,805.4364 423.2794,805.8354 429.6966,805.6207 435.6868,804.8198 441.5719,803.4455 447.2973,801.5107 452.8097,799.0334 458.3759,795.8327 463.2897,792.3146 467.8419,788.3395 471.99,783.9444 475.9114,778.8602 479.1088,773.7319 481.9479,767.9728 484.0684,762.3136 485.713,756.1069 486.7139,749.7645 487.0582,743.7309 486.8198,737.6922 486.0008,731.7045 484.5031,725.4608 482.5166,719.7531 479.9895,714.2634 476.9454,709.0426 473.1762,703.8445 469.1601,699.3285 464.7276,695.2203 459.9201,691.5583 454.7821,688.3763 449.3615,685.7042 443.3489,683.4512 437.5071,681.9033"/>
    <line x1="430.5941" x2="457.4564" y1="650.8363" y2="652.9163"/>
    <line x1="457.7671" x2="430.9047" y1="648.9044" y2="646.8244"/>
    <line x1="430.8765" x2="484.6012" y1="647.1891" y2="651.3491"/>
    <line x1="484.347" x2="430.6223" y1="654.6315" y2="650.4716"/>
    <line x1="430.6506" x2="511.2376" y1="650.1069" y2="656.3468"/>
    <line x1="511.4353" x2="430.8483" y1="653.7938" y2="647.5538"/>
    <line x1="430.82" x2="538.2694" y1="647.9185" y2="656.2385"/>
    <line x1="538.1282" x2="430.6788" y1="658.0621" y2="649.7421"/>
    <line x1="430.7071" x2="565.0188" y1="649.3774" y2="659.7773"/>
    <line x1="565.1035" x2="430.7918" y1="658.6832" y2="648.2833"/>
    <line x1="430.7635" x2="591.9376" y1="648.648" y2="661.1279"/>
    <line x1="591.9094" x2="430.7353" y1="661.4926" y2="649.0127"/>
    <polygon points="418.7691,647.2444 327.5087,630.3466 287.972,843.8729 379.2324,860.7708"/>
    <polygon points="477.3464,620.8307 474.4142,624.7678 471.8677,628.9646 469.7298,633.3836 467.9061,638.3454 466.6734,643.0971 465.8552,648.3197 465.5732,653.5985 465.7942,658.5025 466.4783,663.3636 467.7256,668.5007 469.4897,673.4839 471.5746,677.9282 474.0707,682.1552 477.1928,686.4211 480.4673,690.0785 484.3633,693.6515 488.6029,696.809 492.8091,699.3402 497.5843,701.6078 502.2042,703.2676 506.9604,704.4829 512.1859,705.2822 517.4657,705.5449 522.3689,705.306 527.2275,704.6043 532.3599,703.3382 536.9875,701.7 541.7734,699.4548 546.3056,696.7338 550.2457,693.8057 553.8911,690.518 557.2091,686.9001 560.3821,682.6719 562.9286,678.4751 565.2135,673.7081 566.8902,669.0943 568.199,663.9726 568.9411,659.12 569.2209,654.2189 569.0021,648.9372 568.3181,644.0761 567.0708,638.939 565.4494,634.3055 563.2217,629.5115 560.7256,625.2844 557.6035,621.0186 554.0631,617.093 550.4331,613.7882 546.5067,610.8417 541.9873,608.0995 537.212,605.8319 532.5921,604.1721 527.4657,602.882 522.6104,602.1575 517.3306,601.8948 512.4274,602.1337 507.1982,602.9084 502.4364,604.1015 497.4596,605.8837 493.023,607.9849 488.4908,610.7059 484.5506,613.634 480.6379,617.1887"/>
    <line x1="499.3511" x2="500.1926" y1="630.1999" y2="628.6377"/>
    <line x1="501.3759" x2="499.693" y1="627.2597" y2="630.3841"/>
    <line x1="500.0349" x2="502.5593" y1="630.5682" y2="625.8817"/>
    <line x1="503.7426" x2="500.3768" y1="624.5037" y2="630.7524"/>
    <line x1="500.7187" x2="504.926" y1="630.9366" y2="623.1257"/>
    <line x1="506.1094" x2="501.0606" y1="621.7477" y2="631.1207"/>
    <line x1="501.4025" x2="507.2927" y1="631.3049" y2="620.3697"/>
    <line x1="508.6603" x2="502.7701" y1="621.1064" y2="632.0416"/>
    <line x1="502.4282" x2="509.1599" y1="631.8574" y2="619.3601"/>
    <line x1="508.4761" x2="501.7444" y1="618.9917" y2="631.4891"/>
    <line x1="502.0863" x2="509.6595" y1="631.6732" y2="617.6137"/>
    <line x1="508.1608" x2="503.112" y1="622.8527" y2="632.2257"/>
    <line x1="503.4539" x2="507.6612" y1="632.4099" y2="624.5991"/>
    <line x1="507.1617" x2="503.7958" y1="626.3454" y2="632.5941"/>
    <line x1="504.1377" x2="506.6621" y1="632.7782" y2="628.0917"/>
    <line x1="506.1625" x2="504.4796" y1="629.8381" y2="632.9624"/>
    <line x1="504.8215" x2="505.663" y1="633.1466" y2="631.5844"/>
    <polygon points="505.1634,633.3307 509.6595,617.6137 499.0092,630.0157"/>
    <polygon points="530.6493,650.2484 528.1745,658.1213 533.7636,655.5528"/>
    <line x1="530.5368" x2="530.9324" y1="650.6063" y2="650.7306"/>
    <line x1="530.4243" x2="531.2155" y1="650.9641" y2="651.2129"/>
    <line x1="531.4986" x2="530.3118" y1="651.6951" y2="651.322"/>
    <line x1="530.1993" x2="531.7818" y1="651.6799" y2="652.1773"/>
    <line x1="532.0649" x2="530.0868" y1="652.6595" y2="652.0377"/>
    <line x1="529.9744" x2="532.348" y1="652.3956" y2="653.1417"/>
    <line x1="532.6311" x2="529.8619" y1="653.6239" y2="652.7534"/>
    <line x1="529.7494" x2="532.9142" y1="653.1113" y2="654.1061"/>
    <line x1="533.1973" x2="529.6369" y1="654.5883" y2="653.4691"/>
    <line x1="529.5244" x2="533.4805" y1="653.827" y2="655.0706"/>
    <line x1="533.7636" x2="529.4119" y1="655.5528" y2="654.1848"/>
    <line x1="529.2994" x2="533.2555" y1="654.5427" y2="655.7863"/>
    <line x1="532.7474" x2="529.1869" y1="656.0198" y2="654.9006"/>
    <line x1="529.0744" x2="532.2393" y1="655.2584" y2="656.2533"/>
    <line x1="531.7312" x2="528.9619" y1="656.4868" y2="655.6163"/>
    <line x1="528.8495" x2="531.2231" y1="655.9741" y2="656.7203"/>
    <line x1="530.715" x2="528.737" y1="656.9538" y2="656.332"/>
    <line x1="528.6245" x2="530.2069" y1="656.6898" y2="657.1873"/>
    <line x1="529.6988" x2="528.512" y1="657.4208" y2="657.0477"/>
    <line x1="528.3995" x2="529.1907" y1="657.4056" y2="657.6543"/>
    <line x1="528.6826" x2="528.287" y1="657.8878" y2="657.7634"/>
    <line x1="538.3366" x2="538.0105" y1="627.5527" y2="625.6545"/>
    <line x1="538.0511" x2="538.7032" y1="623.6934" y2="627.4897"/>
    <line x1="539.0697" x2="538.0916" y1="627.4268" y2="621.7323"/>
    <line x1="538.1321" x2="539.4363" y1="619.7712" y2="627.3638"/>
    <line x1="539.8028" x2="538.1726" y1="627.3008" y2="617.8101"/>
    <line x1="538.2131" x2="540.1694" y1="615.8489" y2="627.2379"/>
    <line x1="540.536" x2="538.2536" y1="627.1749" y2="613.8878"/>
    <line x1="538.2941" x2="540.9025" y1="611.9267" y2="627.1119"/>
    <line x1="541.2691" x2="538.3346" y1="627.049" y2="609.9656"/>
    <line x1="538.3751" x2="541.6357" y1="608.0045" y2="626.986"/>
    <line x1="542.0022" x2="538.4157" y1="626.9231" y2="606.0433"/>
    <line x1="539.1488" x2="542.7353" y1="605.9174" y2="626.7971"/>
    <line x1="542.3688" x2="538.4562" y1="626.8601" y2="604.0822"/>
    <polygon points="538.4562,604.0822 537.97,627.6157 546.7675,626.1045"/>
    <line x1="539.8414" x2="543.1019" y1="607.7526" y2="626.7342"/>
    <line x1="543.4685" x2="540.534" y1="626.6712" y2="609.5878"/>
    <line x1="541.2266" x2="543.835" y1="611.423" y2="626.6082"/>
    <line x1="544.2016" x2="541.9192" y1="626.5453" y2="613.2582"/>
    <line x1="542.6118" x2="544.5681" y1="615.0934" y2="626.4823"/>
    <line x1="544.9347" x2="543.3045" y1="626.4193" y2="616.9286"/>
    <line x1="543.9971" x2="545.3013" y1="618.7637" y2="626.3564"/>
    <line x1="545.6678" x2="544.6897" y1="626.2934" y2="620.5989"/>
    <line x1="545.3823" x2="546.0344" y1="622.4341" y2="626.2304"/>
    <line x1="546.401" x2="546.0749" y1="626.1675" y2="624.2693"/>
    <polygon points="557.0417,616.4004 560.4998,610.9923 563.4296,605.2808 565.9267,598.9597 567.7767,592.42 568.913,586.1022 569.4452,579.7052 569.3451,572.9095 568.5635,566.1581 567.1082,559.5193 564.994,553.0601 562.4114,547.1834 559.2833,541.5781 555.408,535.9948 550.9919,530.8286 546.0796,526.1317 541.0293,522.1694 535.2982,518.5161 529.2295,515.4564 523.243,513.1397 517.0638,511.401 510.373,510.2072 503.5963,509.691 497.1786,509.8304 490.4306,510.6403 484.1623,512.0235 478.0533,513.9948 471.8199,516.7031 465.8897,520.0234 460.3226,523.9221 455.175,528.3598 450.7453,533.0055 446.776,538.0503 443.1147,543.7763 440.2009,549.496 437.7215,555.824 435.9741,562.0007 434.771,568.6898 434.2567,575.0883 434.3758,581.8837 435.1763,588.6328 436.5507,594.9031 438.5135,601.0148 441.2131,607.252 444.5251,613.1869 448.1852,618.4602 452.5869,623.6387 457.486,628.3493 462.5253,632.3257 468.2461,635.995 473.9617,638.9168 480.2863,641.405 486.8286,643.2459 493.148,644.3734 499.5458,644.8967 506.3413,644.7871 512.7189,644.0577 519.3637,642.6303 525.8317,640.5432 532.0576,637.8175 537.9785,634.4806 543.2365,630.7984 548.3965,626.3751 552.8392,621.7417"/>
    <line x1="596.008" x2="601.7189" y1="655.1334" y2="660.843"/>
    <line x1="601.4514" x2="595.7405" y1="661.1106" y2="655.401"/>
    <line x1="595.473" x2="600.5493" y1="655.6685" y2="660.7437"/>
    <line x1="599.6473" x2="595.2055" y1="660.3769" y2="655.9361"/>
    <line x1="594.938" x2="598.7452" y1="656.2037" y2="660.0101"/>
    <line x1="597.8432" x2="594.6705" y1="659.6432" y2="656.4712"/>
    <line x1="594.403" x2="596.9411" y1="656.7388" y2="659.2764"/>
    <line x1="596.0391" x2="594.1354" y1="658.9096" y2="657.0064"/>
    <line x1="593.8679" x2="595.137" y1="657.2739" y2="658.5427"/>
    <line x1="594.235" x2="593.6004" y1="658.1759" y2="657.5415"/>
    <polygon points="593.3329,657.8091 601.9024,661.294 598.4156,652.7253"/>
    <line x1="596.2755" x2="601.3519" y1="654.8658" y2="659.941"/>
    <line x1="600.9848" x2="596.543" y1="659.0391" y2="654.5982"/>
    <line x1="596.8105" x2="600.6178" y1="654.3307" y2="658.1371"/>
    <line x1="600.2507" x2="597.078" y1="657.2351" y2="654.0631"/>
    <line x1="597.3455" x2="599.8837" y1="653.7955" y2="656.3331"/>
    <line x1="599.5167" x2="597.613" y1="655.4312" y2="653.528"/>
    <line x1="597.8805" x2="599.1496" y1="653.2604" y2="654.5292"/>
    <line x1="598.7826" x2="598.148" y1="653.6272" y2="652.9928"/>
    <polygon points="605.3546,662.3502 430.933,646.4597 430.5659,651.201"/>
    <line x1="623.6661" x2="642.3395" y1="580.0661" y2="572.6922"/>
    <line x1="642.2003" x2="623.5269" y1="572.3396" y2="579.7135"/>
    <line x1="624.8241" x2="642.061" y1="578.7936" y2="571.9869"/>
    <line x1="641.9218" x2="626.1212" y1="571.6343" y2="577.8738"/>
    <line x1="627.4184" x2="641.7825" y1="576.9539" y2="571.2816"/>
    <line x1="641.6433" x2="628.7155" y1="570.929" y2="576.034"/>
    <line x1="630.0127" x2="641.504" y1="575.1142" y2="570.5764"/>
    <line x1="641.3648" x2="631.3099" y1="570.2237" y2="574.1943"/>
    <line x1="632.607" x2="641.2255" y1="573.2745" y2="569.8711"/>
    <line x1="641.0863" x2="633.9042" y1="569.5185" y2="572.3546"/>
    <line x1="635.2014" x2="640.947" y1="571.4347" y2="569.1658"/>
    <line x1="640.8078" x2="636.4985" y1="568.8132" y2="570.5149"/>
    <line x1="637.7957" x2="640.6685" y1="569.595" y2="568.4605"/>
    <line x1="640.5293" x2="639.0928" y1="568.1079" y2="568.6751"/>
    <polygon points="640.39,567.7553 622.8783,580.1734 644.1498,577.2765"/>
    <line x1="642.4788" x2="625.2418" y1="573.0448" y2="579.8515"/>
    <line x1="626.8175" x2="642.618" y1="579.637" y2="573.3975"/>
    <line x1="642.7573" x2="628.3932" y1="573.7501" y2="579.4224"/>
    <line x1="629.9688" x2="642.8966" y1="579.2078" y2="574.1027"/>
    <line x1="643.0358" x2="631.5445" y1="574.4554" y2="578.9932"/>
    <line x1="633.1202" x2="643.1751" y1="578.7786" y2="574.808"/>
    <line x1="643.3143" x2="634.6958" y1="575.1607" y2="578.564"/>
    <line x1="636.2715" x2="643.4536" y1="578.3494" y2="575.5133"/>
    <line x1="643.5928" x2="637.8472" y1="575.8659" y2="578.1348"/>
    <line x1="639.4228" x2="643.7321" y1="577.9202" y2="576.2186"/>
    <line x1="643.8713" x2="640.9985" y1="576.5712" y2="577.7057"/>
    <line x1="642.5742" x2="644.0106" y1="577.4911" y2="576.9238"/>
    <polygon points="630.5159,537.44 625.9325,533.4993 620.988,530.0226 615.729,527.0429 610.2053,524.5882 604.4693,522.6819 598.2028,521.2773 592.2019,520.5528 586.159,520.4149 580.1312,520.8648 574.1757,521.8982 568.3488,523.5054 562.7057,525.6712 557.2996,528.3751 552.1819,531.5915 547.1144,535.5363 542.7407,539.7084 538.7931,544.2858 535.3089,549.2251 532.3211,554.4795 529.8581,559.9994 527.943,565.7325 526.5941,571.6246 525.824,577.6199 525.6401,583.6616 526.0442,589.6926 527.0323,595.6557 528.7116,601.8542 530.8689,607.5007 533.5645,612.9108 536.7731,618.0334 540.4642,622.82 544.603,627.2253 549.1502,631.2076 554.0629,634.7292 559.6309,637.929 565.1471,640.4005 570.8773,642.3242 576.7673,643.6821 583.1381,644.4906 589.1806,644.6469 595.2097,644.2153 601.1683,643.2 607.3591,641.4924 612.9956,639.3095 618.3934,636.5892 623.5013,633.3573 628.271,629.6443 632.6574,625.4855 636.6189,620.9202 640.1181,615.9915 643.2924,610.4089 645.7387,604.8815 647.6363,599.1426 649.0314,592.874 649.7467,586.872 649.8755,580.8289 649.4164,574.8018 648.3739,568.8479 646.7578,563.0235 644.5834,557.3836 641.8713,551.9817 638.6472,546.8689 634.6947,541.8073"/>
    <polygon points="581.9982,516.0556 580.6028,510.033 577.2191,512.134"/>
    <line x1="581.8714" x2="579.0648" y1="515.5081" y2="510.988"/>
    <line x1="578.7571" x2="581.5638" y1="511.179" y2="515.6991"/>
    <line x1="580.6948" x2="578.4495" y1="514.986" y2="511.37"/>
    <line x1="578.1419" x2="579.8259" y1="511.561" y2="514.273"/>
    <line x1="578.957" x2="577.8343" y1="513.56" y2="511.752"/>
    <line x1="577.5267" x2="578.088" y1="511.943" y2="512.847"/>
    <line x1="579.3724" x2="581.6177" y1="510.797" y2="514.413"/>
    <line x1="581.3639" x2="579.68" y1="513.318" y2="510.606"/>
    <line x1="579.9876" x2="581.1102" y1="510.415" y2="512.223"/>
    <line x1="580.8565" x2="580.2952" y1="511.128" y2="510.224"/>
    <line x1="579.1192" x2="482.7422" y1="460.7416" y2="468.9204"/>
    <polygon points="475.0144,460.8208 479.7754,459.6214 484.3993,457.9707 488.8436,455.8841 493.3817,453.1714 497.324,450.245 500.9674,446.9538 504.2781,443.3283 507.4367,439.0883 509.9629,434.8784 512.0735,430.4454 513.8595,425.4691 515.0494,420.7057 515.7767,415.8502 516.0348,410.9472 515.7854,405.666 515.0663,400.8092 513.8845,396.0438 512.251,391.4138 510.1807,386.9618 507.4848,382.4137 504.573,378.4606 501.2953,374.8051 497.3911,371.2399 493.1396,368.0971 488.9203,365.5864 484.4796,363.4922 479.8584,361.8337 474.729,360.5523 469.8707,359.843 464.9668,359.603 460.0626,359.8346 454.8325,360.609 450.0715,361.8084 445.0987,363.6043 440.67,365.7238 436.4651,368.2584 432.5228,371.1848 428.6126,374.7434 425.3287,378.3933 422.4102,382.3414 419.884,386.5514 417.7733,390.9843 416.0977,395.5993 414.8727,400.3538 414.0701,405.5796 413.812,410.4826 414.0615,415.7638 414.7806,420.6206 416.0721,425.7475 417.7399,430.3653 419.843,434.8018 422.5724,439.3299 425.5134,443.2614 428.818,446.8925 432.4557,450.1899 436.393,453.123 440.9266,455.8434 445.7169,458.0809 450.3501,459.7052 455.1179,460.8774 459.9761,461.5868 464.88,461.8268 469.7843,461.5951"/>
    <polygon points="478.1292,454.2006 482.3934,452.6697 486.4839,450.7217 490.3601,448.3762 493.6922,445.8967 496.784,443.1233 499.8525,439.79 502.5739,436.1677 504.9211,432.2925 506.8707,428.2028 508.4035,423.9392 509.5042,419.5443 510.1241,415.4375 510.3697,410.9135 510.1636,406.3875 509.5079,401.9045 508.4092,397.5091 507.022,393.5942 505.1081,389.4877 502.7949,385.592 500.1052,381.9461 497.066,378.5861 493.7072,375.5454 490.0625,372.8542 486.501,370.7172 482.4113,368.7676 478.1478,367.2348 473.7529,366.1341 469.646,365.5142 465.122,365.2686 460.596,365.4747 456.1131,366.1304 451.7177,367.2291 447.4535,368.7601 443.6962,370.5302 439.8006,372.8435 436.1546,375.5331 432.7946,378.5723 429.9944,381.6398 427.273,385.2621 424.9258,389.1373 422.9761,393.227 421.4433,397.4905 420.3427,401.8854 419.6851,406.3681 419.4771,410.894 419.7208,415.4181 420.4137,419.8955 421.4377,423.9207 422.9686,428.1848 424.9166,432.2753 427.052,435.8377 429.7416,439.4837 432.7809,442.8437 435.8483,445.6439 439.4706,448.3653 443.3459,450.7125 447.4356,452.6622 451.6991,454.195 456.094,455.2956 460.5767,455.9532 465.1026,456.1612 469.6267,455.9176 474.104,455.2246"/>
    <line x1="475.6731" x2="476.0767" y1="446.2731" y2="485.8704"/>
    <polygon points="459.8879,507.4906 465.302,505.8239 470.5258,503.6324 475.5085,500.9374 480.2018,497.7651 484.56,494.1462 488.5409,490.1159 492.1057,485.7134 495.22,480.9814 497.8533,475.9658 499.9803,470.7154 501.5801,465.2812 502.6373,459.7159 503.1415,454.0735 503.088,448.4089 502.4772,442.7771 501.4094,437.5986 499.7427,432.1844 497.5513,426.9607 494.8563,421.9779 491.6839,417.2847 488.065,412.9264 484.0348,408.9456 479.6323,405.3807 474.9002,402.2665 469.8847,399.6331 464.6343,397.5062 459.2,395.9064 453.6347,394.8492 447.9923,394.3449 442.3278,394.3985 436.6959,395.0093 431.5174,396.077 426.1033,397.7437 420.8795,399.9352 415.8968,402.6302 411.2035,405.8025 406.8453,409.4214 402.8644,413.4517 399.2995,417.8542 396.1853,422.5862 393.5519,427.6018 391.425,432.8522 389.8252,438.2864 388.768,443.8517 388.2638,449.4941 388.3173,455.1587 388.9281,460.7905 390.0903,466.3349 391.7925,471.7379 394.0183,476.9472 396.746,481.9121 399.7213,486.2829 403.3402,490.6412 407.3705,494.622 411.773,498.1869 416.505,501.3011 421.5206,503.9345 426.771,506.0614 432.2052,507.6612 437.7706,508.7184 443.4129,509.2227 449.0775,509.1691 454.7093,508.5583"/>
    <line x1="492.8153" x2="430.9497" y1="463.2206" y2="361.5823"/>
    <line x1="430.6267" x2="480.1193" y1="361.7788" y2="443.0895"/>
    <line x1="481.088" x2="431.5955" y1="442.4998" y2="361.1892"/>
    <line x1="431.2726" x2="493.1382" y1="361.3857" y2="463.024"/>
    <polygon points="502.8292,465.6431 503.8977,460.0821 504.4262,454.4442 504.4097,448.7815 503.7917,442.7733 502.6552,437.2259 500.9902,431.8135 498.8122,426.5865 495.9463,421.2698 492.7772,416.577 489.1712,412.2109 484.8811,407.9594 480.4826,404.3931 475.7614,401.2665 470.7612,398.6086 465.1725,396.318 459.7453,394.702 453.814,393.5624 448.1743,393.052 442.5118,393.0867 436.8788,393.6661 430.9619,394.8783 425.5549,396.5606 420.3348,398.7555 415.3502,401.4424 410.3448,404.8226 405.9903,408.4426 401.7526,412.7463 398.2004,417.1562 395.089,421.8875 392.4473,426.8962 390.1746,432.4922 388.576,437.9245 387.5076,443.4855 386.9632,449.5008 387.0161,455.1632 387.6136,460.7943 388.7501,466.3417 390.415,471.7541 392.7561,477.3218 395.656,482.6199 398.8553,487.2923 402.4892,491.6351 406.5241,495.6082 411.2278,499.397 415.9691,502.4932 420.9862,505.1189 426.2327,507.2496 431.6599,508.8656 437.5913,510.0052 443.2309,510.5156 448.8935,510.4809 454.8996,509.8436 460.4434,508.6893 465.8504,507.007 471.0704,504.8121 476.055,502.1252 481.0604,498.745 485.6926,494.869 489.6526,490.8213 493.2048,486.4114 496.3163,481.6801 498.958,476.6714 501.1056,471.4318"/>
    <polygon points="499.2835,445.2042 502.581,441.5699 505.286,437.9361 507.8213,433.7345 509.7753,429.6474 511.4533,425.036 512.6587,420.2791 513.341,415.8007 513.607,410.9006 513.4135,406.3747 512.7303,401.5152 511.5613,396.7492 509.9184,392.1251 507.9957,388.0233 505.4925,383.8025 502.5771,379.8551 499.2792,376.2213 495.9243,373.1772 491.9879,370.2471 487.7764,367.728 483.3328,365.6458 479.064,364.1298 474.3024,362.9429 469.4455,362.2414 464.9203,362.0309 460.0193,362.2785 455.1681,363.0183 450.777,364.1316 446.1593,365.7923 442.065,367.7309 437.8539,370.2505 434.2099,372.9418 430.8319,375.9601 427.5063,379.5687 424.5609,383.4937 422.0255,387.6953 419.9261,392.1308 418.3935,396.3938 417.1882,401.1507 416.5058,405.6291 416.2427,410.1515 416.4333,415.0551 417.1166,419.9145 418.2856,424.6805 419.9284,429.3047 421.8511,433.4065 424.1468,437.3118 427.0315,441.2817 430.3011,444.941 433.6323,448.0109 437.5459,450.9716 441.7376,453.5232 446.165,455.6398 450.7829,457.3 455.5444,458.4869 460.0255,459.1518 464.9265,459.3988 469.8275,459.1512 474.6787,458.4115 479.0699,457.2982 483.3385,455.7816 487.7819,453.6988 491.993,451.1793 495.929,448.2486"/>
    <polygon points="485.7865,449.7183 489.6658,447.3803 492.9948,444.8987 496.0765,442.1158 499.1244,438.7654 501.8136,435.1208 503.9396,431.5541 505.7217,427.8038 507.2554,423.542 508.2717,419.5161 508.9445,415.037 509.1558,410.8902 508.9418,406.3659 508.3401,402.2575 507.2476,397.8619 505.8559,393.9498 503.9268,389.8518 501.7987,386.2864 499.1072,382.6435 496.0573,379.2949 492.9739,376.514 489.6434,374.0344 485.7627,371.6987 482.0124,369.9166 477.7506,368.3829 473.7247,367.3666 469.2455,366.6938 465.0987,366.4825 460.5744,366.6965 456.0957,367.372 452.0704,368.3907 447.8096,369.927 444.0603,371.7115 440.1811,374.0495 436.852,376.5311 433.7704,379.3139 430.7225,382.6644 428.0332,386.309 425.9073,389.8756 423.9807,393.9749 422.5914,397.8877 421.5752,401.9137 420.9024,406.3928 420.6911,410.5396 420.905,415.0639 421.5068,419.1723 422.5993,423.5679 424.1356,427.8288 425.92,431.578 428.0482,435.1433 430.7396,438.7863 433.7896,442.1349 436.8729,444.9158 440.5175,447.6051 444.0842,449.731 448.1834,451.6576 452.0963,453.0469 456.1222,454.0631 460.6013,454.7359 464.7481,454.9473 469.2724,454.7333 473.3808,454.1315 477.7764,453.039 482.0373,451.5027"/>
    <polygon points="499.6899,425.4144 496.7676,420.1241 493.5581,415.4545 489.6663,410.8306 485.6129,406.8713 480.899,403.089 476.1554,399.99 470.798,397.1927 465.5438,395.0714 459.746,393.3651 453.8061,392.2498 448.1618,391.7512 442.1184,391.8078 436.1112,392.4713 430.2011,393.735 424.4478,395.5859 419.2484,397.8381 414.2842,400.57 409.2981,403.9855 404.6804,407.8846 400.7274,411.9442 397.1744,416.3581 393.861,421.4126 391.2305,426.4312 388.9591,432.0318 387.3508,437.465 386.2075,443.3996 385.6823,449.0415 385.7104,455.0851 386.2882,460.7218 387.4867,466.6455 389.2742,472.4188 391.469,477.6427 394.3412,482.9603 397.7331,487.9624 401.6104,492.5985 405.6513,496.5706 410.3533,500.3676 415.4129,503.6731 420.4357,506.2957 426.0399,508.5583 431.8431,510.2464 437.412,511.292 443.4323,511.8239 449.4755,511.7482 455.1075,511.1261 461.0216,509.8811 466.7806,508.0482 471.9871,505.8124 476.9598,503.0961 481.9566,499.6964 486.3089,496.0681 490.5523,491.7647 494.1192,487.3619 497.4485,482.3179 500.2542,476.965 502.3837,471.7141 504.0992,465.919 505.2238,459.9808 505.7462,453.9598 505.661,447.9167 505.0301,442.2856 503.7758,436.3736 502.0659,430.9715"/>
    <polygon points="509.1746,424.1853 510.2807,419.7888 510.9511,415.3052 511.1794,410.7775 510.9634,406.2492 510.3051,401.7638 509.2109,397.3644 507.6913,393.0932 505.761,388.9913 503.4383,385.098 500.7457,381.4508 497.709,378.0847 494.3573,375.0321 490.723,372.3221 486.8408,369.981 482.7481,368.0312 478.4842,366.4913 474.09,365.3762 469.6078,364.6967 465.0805,364.4591 460.5518,364.6659 456.0651,365.315 451.6634,366.4002 447.3891,367.9111 443.2833,369.8331 439.3853,372.1478 435.7326,374.8329 432.3603,377.8628 429.3008,381.2081 426.3733,385.1511 424.056,389.0475 422.1313,393.1521 420.6176,397.4254 419.5295,401.8263 418.8774,406.3126 418.6676,410.8412 418.9021,415.3686 419.5787,419.8513 420.6908,424.2462 422.2279,428.5111 424.175,432.6051 426.5135,436.4889 429.221,440.125 432.2715,443.4787 435.6355,446.5176 439.2809,449.2127 443.1726,451.5379 447.2733,453.4711 451.5435,454.9935 455.9422,456.0906 460.4271,456.7518 464.9553,456.9709 469.4831,456.7456 473.9672,456.0782 478.3644,454.975 482.6324,453.4467 486.7304,451.5079 490.6189,449.1773 494.2606,446.4773 497.6205,443.4337 500.6663,440.0758 503.3688,436.436 505.702,432.549 507.6435,428.4523"/>
    <polygon points="510.1932,424.9993 511.4258,420.2507 512.1229,415.7758 512.3903,411.2549 512.1926,406.3529 511.49,401.4976 510.3997,397.1019 508.8954,392.8302 506.991,388.7212 504.7036,384.8124 501.8178,380.8451 498.8034,377.4651 495.1908,374.1459 491.2548,371.2173 487.371,368.8878 483.2829,366.939 478.6668,365.2779 473.9038,364.1021 469.4209,363.4584 464.8971,363.2449 460.3735,363.4634 455.8914,364.1121 451.1297,365.2931 446.5154,366.9594 442.4295,368.9127 438.5483,371.2465 434.9071,373.9396 431.5392,376.9674 428.2344,380.5932 425.5309,384.2266 423.1859,388.1011 421.0749,392.5296 419.5414,396.791 418.4211,401.179 417.6852,406.0295 417.4537,410.5524 417.6905,415.4526 418.3569,419.9322 419.4472,424.3278 420.9514,428.5996 423.0321,433.0424 425.3505,436.9329 428.2678,440.8772 431.5766,444.4993 434.9479,447.5234 438.592,450.2124 442.4758,452.542 446.5639,454.4908 451.1801,456.1519 455.5726,457.2548 460.0502,457.9341 464.9497,458.1849 469.4733,457.9663 474.3258,457.2444 478.7171,456.1366 482.9829,454.6154 487.0842,452.6946 490.9839,450.3918 494.9397,447.4902 498.3077,444.4624 501.3717,441.1274 504.104,437.5156 506.6609,433.3287 508.626,429.2483"/>
    <polygon points="512.6012,425.4332 513.8167,420.6775 514.559,415.8255 514.8209,410.9239 514.6,406.0203 513.8984,401.1622 512.7229,396.3965 511.0848,391.7694 509.0,387.3256 506.4887,383.1081 503.5751,379.1578 500.2875,375.5128 496.6577,372.2085 492.7208,369.2769 488.515,366.7462 484.0808,364.641 479.4612,362.9817 474.701,361.7843 469.8461,361.0604 464.9436,360.8169 460.0409,361.0564 455.1854,361.7764 450.4242,362.97 445.8033,364.6256 441.3674,366.7272 437.1595,369.2544 433.2202,372.1829 429.5878,375.4843 426.2972,379.1265 423.3805,383.0745 420.8658,387.2899 418.7774,391.7321 417.2456,395.9965 416.0302,400.7522 415.2879,405.6043 415.0259,410.5059 415.2468,415.4094 415.9484,420.2676 417.124,425.0333 418.7621,429.6604 420.8469,434.1042 423.3582,438.3217 426.2717,442.272 429.5593,445.9169 433.1891,449.2212 437.126,452.1529 441.3319,454.6836 445.7661,456.7887 450.3856,458.4481 455.1459,459.6455 460.0008,460.3694 464.9033,460.6128 469.806,460.3734 474.6614,459.6534 479.4226,458.4598 484.0435,456.8042 488.4794,454.7026 492.6873,452.1753 496.334,449.4857 499.9914,446.212 503.3094,442.5947 506.2559,438.6689 508.8025,434.4727 510.9244,430.0465"/>
    <polygon points="513.0829,396.1885 511.2933,391.2166 509.1729,386.7914 506.6314,382.5938 503.6931,378.6639 500.3857,375.0389 496.741,371.7534 492.7934,368.8387 488.5807,366.3225 484.1428,364.2287 479.5221,362.5773 474.7624,361.3839 469.9091,360.66 465.0084,360.4124 459.7311,360.681 454.8808,361.425 450.1261,362.638 445.5122,364.3085 441.083,366.4206 436.8807,368.9542 432.9452,371.8852 429.3141,375.1857 426.0218,378.8243 423.0996,382.7663 420.5755,386.9743 418.4734,391.4083 416.8133,396.0259 415.611,400.7833 414.8412,406.0111 414.6212,410.9132 414.8799,415.8133 415.6147,420.665 416.8188,425.422 418.4807,430.039 420.5845,434.4721 423.1102,438.6792 426.0338,442.6202 429.3274,446.2575 432.9599,449.5566 436.8964,452.4861 441.0997,455.0182 445.5297,457.1286 450.1442,458.7974 454.8994,460.0086 459.7499,460.7507 465.0273,461.0174 469.928,460.7679 474.781,460.0422 479.5402,458.847 484.1603,457.1938 488.5974,455.0984 492.8092,452.5805 496.7557,449.6643 500.3992,446.3775 503.7051,442.7513 506.642,438.8202 509.1819,434.6217 511.3007,430.1957 512.9781,425.5843 514.1982,420.8314 514.9876,415.6066 515.226,410.7054 514.9858,405.8043 514.2691,400.9499"/>
    <polygon points="506.3515,394.0954 504.4548,389.9841 502.1513,386.086 499.7027,382.7345 496.6892,379.3552 493.639,376.5401 490.0292,373.8069 486.1611,371.4535 482.0745,369.504 478.1724,368.0891 473.7861,366.9662 469.684,366.3321 465.1634,366.0781 461.0162,366.2488 456.5317,366.8734 452.1335,367.9491 447.867,369.4647 444.1091,371.2274 440.2159,373.5391 436.577,376.2334 433.4966,379.0155 430.447,382.3622 427.7522,386.0007 425.6172,389.5602 423.6764,393.6509 422.2697,397.5561 421.1561,401.9447 420.4928,406.4237 420.2866,410.9468 420.5012,415.0919 421.0998,419.1993 422.1848,423.5952 423.5659,427.5094 425.4801,431.6126 427.8,435.5009 430.2628,438.842 433.2905,442.2086 436.6437,445.2511 440.2878,447.9383 443.8519,450.0657 447.5982,451.8529 451.8548,453.3963 456.2458,454.5007 460.3505,455.1174 464.8722,455.3522 469.3944,455.1278 473.8706,454.4464 477.894,453.4262 481.8053,452.0368 485.9045,450.114 489.4735,447.9948 493.1238,445.316 496.2159,442.5469 499.2796,439.2131 501.9899,435.5861 504.3187,431.7031 506.0979,427.9531 507.6324,423.6932 508.6533,419.67 509.3355,415.1939 509.5608,410.6717 509.3638,406.5257 508.7108,402.0452 507.7162,398.0154"/>
    <polygon points="496.0844,400.0293 408.958,437.2874 410.4632,440.6271"/>
    <line x1="496.0844" x2="409.7106" y1="400.0293" y2="438.9572"/>
    <line x1="409.5601" x2="478.6591" y1="438.6233" y2="407.4809"/>
    <line x1="478.9602" x2="409.8611" y1="408.1488" y2="439.2912"/>
    <line x1="410.0117" x2="461.8359" y1="439.6252" y2="416.2684"/>
    <line x1="461.2339" x2="409.4096" y1="414.9325" y2="438.2893"/>
    <line x1="409.2591" x2="443.8086" y1="437.9553" y2="422.3841"/>
    <line x1="444.7117" x2="410.1622" y1="424.388" y2="439.9591"/>
    <line x1="410.3127" x2="427.5875" y1="440.2931" y2="432.5075"/>
    <line x1="426.3833" x2="409.1086" y1="429.8358" y2="437.6214"/>
    <polygon points="419.403,434.8364 421.9052,439.0589 425.0358,443.3175 428.5862,447.2329 432.2265,450.5253 436.1635,453.4562 440.6942,456.1781 445.1308,458.2776 449.747,459.9453 454.8711,461.2412 459.7252,461.9685 465.0041,462.2314 469.9064,461.9899 474.7634,461.283 479.893,460.0086 484.8649,458.2153 489.2949,456.102 493.5036,453.5766 497.7449,450.4227 501.3748,447.1189 504.6738,443.4848 507.612,439.5531 510.3421,435.0274 512.5942,430.2457 514.2365,425.6204 515.5043,420.4892 516.2049,415.6312 516.44,410.7286 516.2075,405.8259 515.4366,400.597 514.2445,395.8357 512.6046,391.2095 510.532,386.7604 508.0453,382.5287 504.9303,378.2587 501.3942,374.3303 497.7661,371.0246 493.8399,368.0792 489.3191,365.3408 484.5416,363.08 479.9193,361.4292 474.7904,360.1521 469.9338,359.4425 464.6539,359.199 459.7525,359.4585 454.8981,360.1832 450.1347,361.3666 445.5055,362.998 441.0526,365.0625 436.8163,367.5414 432.5406,370.6486 428.6058,374.1774 425.2934,377.7995 422.3409,381.7203 419.5941,386.2361 417.4703,390.661 415.6653,395.6287 414.4531,400.3849 413.6991,405.2349 413.4101,410.1346 413.6218,415.4158 414.3735,420.6476 415.5481,425.4131 417.171,430.0453"/>
    <polygon points="420.6356,428.8964 422.5537,433.0036 424.8517,436.911 427.7459,440.878 430.7654,444.259 434.3811,447.5815 438.0049,450.305 442.2019,452.8541 446.2893,454.8142 450.9046,456.491 455.6674,457.6862 460.1514,458.3511 464.6783,458.5889 469.5835,458.3622 474.0691,457.7078 478.8347,456.5238 483.454,454.8578 487.5459,452.9074 491.7489,450.3681 495.379,447.6532 498.7361,444.6071 502.03,440.9652 504.9335,437.0051 507.2407,433.1031 509.3114,428.6506 510.8088,424.372 511.8948,419.9709 512.5958,415.1107 512.7979,410.5822 512.5325,405.6788 511.8427,401.1986 510.7324,396.8036 509.2113,392.5334 507.1159,388.0924 504.7871,384.2032 502.101,380.5518 499.0815,377.1708 495.4657,373.8482 491.842,371.1248 487.645,368.5757 483.5576,366.6156 478.9423,364.9388 474.1794,363.7435 469.6954,363.0787 465.1686,362.8409 460.2633,363.0676 455.4071,363.7956 451.0121,364.9059 446.3929,366.5719 442.3009,368.5224 438.4118,370.8512 434.4678,373.7766 431.1107,376.8227 428.0568,380.1726 425.1221,384.1097 422.7842,387.9933 420.8241,392.0807 419.1473,396.696 417.9521,401.4589 417.2872,405.9429 417.0494,410.4697 417.2761,415.375 417.9305,419.8606 419.1145,424.6262"/>
    <polygon points="414.4806,415.0234 408.8343,405.9865 395.1064,420.8461"/>
    <line x1="414.279" x2="413.0968" y1="414.7007" y2="415.4393"/>
    <line x1="414.0773" x2="411.7129" y1="414.3779" y2="415.8552"/>
    <line x1="410.329" x2="413.8757" y1="416.2711" y2="414.0552"/>
    <line x1="413.674" x2="408.9451" y1="413.7324" y2="416.687"/>
    <line x1="407.5613" x2="413.4724" y1="417.1029" y2="413.4097"/>
    <line x1="413.2707" x2="406.1774" y1="413.0869" y2="417.5188"/>
    <line x1="404.7935" x2="413.0691" y1="417.9347" y2="412.7642"/>
    <line x1="412.8674" x2="403.4096" y1="412.4414" y2="418.3506"/>
    <line x1="402.0257" x2="412.6658" y1="418.7665" y2="412.1187"/>
    <line x1="412.4641" x2="400.6419" y1="411.7959" y2="419.1824"/>
    <line x1="399.258" x2="412.2624" y1="419.5983" y2="411.4732"/>
    <line x1="412.0608" x2="397.8741" y1="411.1504" y2="420.0142"/>
    <line x1="396.4902" x2="411.8591" y1="420.4302" y2="410.8277"/>
    <line x1="411.6575" x2="395.1064" y1="410.5049" y2="420.8461"/>
    <line x1="396.0869" x2="411.4558" y1="419.7847" y2="410.1822"/>
    <line x1="411.2542" x2="397.0675" y1="409.8594" y2="418.7233"/>
    <line x1="398.0481" x2="411.0525" y1="417.6619" y2="409.5367"/>
    <line x1="410.8509" x2="399.0286" y1="409.2139" y2="416.6005"/>
    <line x1="400.0092" x2="410.6492" y1="415.5391" y2="408.8912"/>
    <line x1="410.4476" x2="400.9898" y1="408.5684" y2="414.4777"/>
    <line x1="401.9704" x2="410.2459" y1="413.4163" y2="408.2457"/>
    <line x1="410.0443" x2="402.9509" y1="407.9229" y2="412.3549"/>
    <line x1="403.9315" x2="409.8426" y1="411.2935" y2="407.6002"/>
    <line x1="409.641" x2="404.9121" y1="407.2775" y2="410.2321"/>
    <line x1="405.8926" x2="409.4393" y1="409.1707" y2="406.9547"/>
    <line x1="409.2377" x2="406.8732" y1="406.632" y2="408.1093"/>
    <polygon points="405.5533,408.256 401.5785,412.2909 397.7843,416.992 394.6796,421.7291 391.883,427.084 389.7694,432.3387 388.1676,437.7714 387.092,443.3322 386.5359,449.3477 386.5738,455.0115 387.2104,461.019 388.3602,466.5649 390.0347,471.9756 392.2184,477.2016 395.0864,482.5186 398.2542,487.2137 401.8561,491.5848 406.1394,495.8449 410.8345,499.6466 415.5666,502.7588 420.5745,505.4048 426.1684,507.6859 431.9656,509.3853 437.5315,510.4342 443.1722,510.9465 449.2131,510.8965 454.8445,510.2907 460.7579,509.0548 466.5146,507.2229 471.7159,504.981 476.6792,502.2524 481.3592,499.0622 485.9906,495.1833 489.9526,491.1358 493.7317,486.4226 496.8213,481.6756 499.4432,476.6551 501.5735,471.4072 503.2821,465.6127 504.3399,460.0484 504.8613,454.4086 504.8208,448.3676 504.1651,442.3621 502.9976,436.8199 501.3059,431.4145 499.1056,426.1955 496.4166,421.2106 493.0378,416.2027 489.422,411.8432 485.1251,407.5967 480.7233,404.0325 475.6759,400.7129 470.6597,398.083 465.0585,395.8197 459.6233,394.2265 454.0608,393.1598 448.4218,392.6294 442.7579,392.6402 436.7474,393.248 431.196,394.3713 425.422,396.1481 420.1995,398.3401 415.2103,401.0211 410.1971,404.392"/>
    <line x1="407.8538" x2="409.036" y1="407.0479" y2="406.3092"/>
    <polygon points="419.0724,410.546 419.2794,415.0704 419.9318,419.5522 421.0231,423.9479 422.5428,428.2144 424.2996,431.9764 426.5954,435.8805 429.2652,439.5391 432.2828,442.9164 435.619,445.9795 439.2411,448.6986 443.1137,451.0471 447.1992,453.002 451.4576,454.5443 455.8474,455.659 460.3257,456.3351 464.8489,456.5662 469.3729,456.3498 473.8534,455.6882 478.2468,454.5878 482.5102,453.0593 486.602,451.1177 490.4822,448.7818 494.1131,446.0746 497.4592,443.0223 500.4879,439.6548 503.1695,436.0049 505.478,432.1083 507.3907,428.0029 508.8891,423.7288 509.8861,419.6984 510.5531,415.2186 510.7748,410.695 510.5491,406.1715 509.8783,401.6923 508.7688,397.3012 507.2316,393.041 505.2815,388.9532 502.9377,385.0778 500.2229,381.4524 497.1638,378.1126 493.79,375.0909 490.4492,372.6257 486.5669,370.2932 482.4734,368.3552 478.5696,366.9413 474.1844,365.8085 469.7089,365.1139 465.1867,364.8643 460.6619,365.062 456.1787,365.7051 451.7808,366.7875 447.5112,368.2984 443.4114,370.2231 439.5216,372.543 435.8795,375.2353 432.5209,378.2738 429.4784,381.6288 426.9927,384.9544 424.6362,388.8222 422.6729,392.9036 421.1218,397.1589 419.9981,401.5463 419.3127,406.0233"/>
    <polygon points="436.6371,394.1417 431.0936,395.2915 425.6877,396.9732 420.4702,399.1708 415.4902,401.8638 410.7947,405.0266 406.1493,408.8847 402.1781,412.9197 398.6167,417.3206 395.4985,422.0459 392.8529,427.0512 390.7048,432.2893 389.0744,437.7109 387.9232,443.6387 387.3909,449.6538 387.4589,455.3148 388.0752,460.9426 389.2341,466.4842 390.9245,471.8874 393.1305,477.1013 395.8315,482.0769 399.002,486.7673 402.6121,491.1285 406.909,495.3711 411.3157,498.9255 416.046,502.036 421.0556,504.6735 426.6536,506.9375 432.0883,508.524 437.651,509.5763 443.2896,510.0846 449.3279,510.0217 454.9546,509.3963 460.4943,508.2285 465.8948,506.5294 471.1052,504.3149 476.0764,501.6058 481.0628,498.2 485.6705,494.297 489.6023,490.2236 493.1209,485.7883 496.1931,481.033 498.79,476.0023 500.8871,470.7435 502.4648,465.3064 503.5081,459.7419 504.021,453.7252 503.9346,448.0644 503.3001,442.4386 502.1233,436.9008 500.4155,431.5031 498.1925,426.2963 495.4755,421.3295 492.2899,416.6493 488.6657,412.2999 484.6371,408.3222 480.2419,404.7536 475.5217,401.6278 470.5207,398.9741 465.2861,396.8175 459.8671,395.1784 453.9412,394.0177 448.3043,393.4912 442.6429,393.5134"/>
    <line x1="442.0312" x2="429.658" y1="382.6961" y2="362.3685"/>
    <line x1="429.9809" x2="454.7272" y1="362.1719" y2="402.8272"/>
    <line x1="456.9876" x2="432.2413" y1="401.4514" y2="360.7961"/>
    <line x1="432.5642" x2="444.9373" y1="360.5995" y2="380.9272"/>
    <polygon points="446.4505,366.1095 442.3497,368.038 438.1328,370.5508 434.4851,373.2396 430.837,376.5241 427.7815,379.8706 424.8414,383.8016 422.4947,387.6782 420.5217,391.7577 418.8262,396.3644 417.6072,401.1195 416.916,405.5981 416.6446,410.4994 416.8723,415.403 417.5967,420.2581 418.6999,424.6533 420.3543,429.2751 422.2907,433.372 424.6028,437.2694 427.5077,441.2264 430.7994,444.8681 434.1519,447.9171 437.7754,450.6383 441.9697,453.1886 446.4014,455.2999 450.6632,456.8401 455.4207,458.0497 459.9005,458.7322 464.8024,458.994 469.3295,458.7927 474.1888,458.0968 478.9523,456.911 483.2217,455.3922 487.6639,453.3032 491.871,450.7738 495.5081,448.0708 499.1433,444.772 502.1857,441.4136 504.8998,437.7848 507.442,433.5854 509.399,429.4982 511.0765,424.8849 512.2768,420.125 512.9505,415.6438 513.2027,410.7414 512.9925,406.2148 512.3589,401.7277 511.2011,396.9574 509.5649,392.3292 507.6444,388.2247 505.1398,384.0029 502.2195,380.0572 499.1808,376.6954 495.5492,373.3926 491.9151,370.6856 487.7108,368.1516 483.6197,366.2026 479.0031,364.5342 474.6113,363.4176 469.7584,362.6783 464.8555,362.4356 460.3293,362.6547 455.4728,363.3696 451.0754,364.4642"/>
    <polygon points="451.3649,366.0675 447.0976,367.5934 442.9985,369.5261 439.1062,371.8473 435.1654,374.7749 431.8193,377.8313 428.7854,381.1978 426.0924,384.8427 423.7657,388.7318 421.6838,393.1777 420.1865,397.4551 419.1111,401.8575 418.468,406.3436 418.263,410.8708 418.4982,415.3966 419.1714,419.8782 420.2761,424.2734 421.802,428.5407 423.7346,432.6398 426.0558,436.5321 428.9835,440.4729 432.0398,443.819 435.4063,446.8529 439.0513,449.5459 442.9403,451.8726 447.0367,453.8111 451.6636,455.4518 456.0661,456.5272 460.5521,457.1703 465.0794,457.3753 469.6051,457.1401 474.0868,456.4669 478.4819,455.3622 482.7492,453.8363 486.8484,451.9037 490.7407,449.5825 494.3894,446.8946 498.0276,443.5985 501.0615,440.232 503.7545,436.587 506.0812,432.698 508.0196,428.6016 509.5516,424.3365 510.6625,419.9429 511.3789,415.0862 511.5838,410.5589 511.3486,406.0332 510.6755,401.5515 509.5708,397.1564 508.0449,392.8891 506.1122,388.7899 503.791,384.8976 501.1032,381.2489 498.074,377.8781 494.4405,374.5768 490.7956,371.8838 486.9065,369.5571 482.4606,367.4753 478.1832,365.9779 473.7808,364.9026 469.2947,364.2594 464.7675,364.0545 460.2417,364.2897 455.7601,364.9628"/>
    <polygon points="465.21,363.6504 460.6836,363.8409 455.8257,364.5372 451.4281,365.6258 447.1555,367.1322 442.7139,369.2193 438.8272,371.5469 435.1823,374.2374 431.8129,377.2658 428.7503,380.6042 426.0229,384.2216 423.4756,388.4163 421.5238,392.5046 419.974,396.7616 418.8407,401.148 418.095,405.9985 417.8585,410.5227 418.0943,415.4246 418.7641,419.9052 419.8615,424.3006 421.3765,428.5702 423.2949,432.6743 425.5991,436.5749 428.5057,440.5292 431.5409,443.8924 434.8854,446.9483 438.8217,449.8792 442.708,452.2073 447.1494,454.295 451.4218,455.802 455.8192,456.8913 460.301,457.5527 464.8257,457.7801 469.7271,457.5344 474.2063,456.8557 478.5995,455.7494 483.2146,454.0805 487.2993,452.121 491.1766,449.7778 494.8107,447.0728 498.1679,444.0308 501.217,440.6802 503.9299,437.0519 506.2814,433.1796 508.2497,429.0991 509.8165,424.8484 510.9674,420.4666 511.7326,415.6191 511.9888,410.7182 511.771,406.1931 511.1193,401.7098 510.0395,397.3101 508.5416,393.0345 506.6397,388.9227 504.3512,385.0128 501.4605,381.047 498.4388,377.6715 494.8158,374.3612 491.1821,371.6556 487.3051,369.3119 482.8722,367.2064 478.6059,365.6823 474.2128,364.5754 469.7337,363.896"/>
    <polygon points="492.0604,369.8091 488.1752,367.4824 483.744,365.3775 479.1249,363.7254 474.3639,362.5426 469.8844,361.8776 465.3626,361.6282 460.461,361.8295 455.604,362.519 450.8401,363.6899 446.2168,365.3303 441.7804,367.4241 437.5751,369.9502 433.9347,372.644 430.5582,375.6618 427.2311,379.2668 424.2804,383.186 421.7357,387.38 419.6223,391.8072 418.0726,396.0624 416.8441,400.8118 416.0958,405.6601 415.835,410.5588 416.0296,415.0833 416.7097,419.9416 417.8714,424.7078 419.503,429.3342 421.4122,433.4407 423.8977,437.6701 426.793,441.6303 430.0691,445.2818 433.6933,448.588 437.6294,451.516 441.8381,454.0365 445.9286,455.9796 450.5414,457.6494 455.2978,458.8505 460.1503,459.5709 465.0505,459.8033 469.9494,459.5455 474.7982,458.8 479.1875,457.6854 483.8044,456.0272 488.2328,453.9164 492.4283,451.3741 496.0583,448.6664 499.6908,445.3692 502.7364,442.0178 505.672,438.0873 508.2005,433.8835 510.2969,429.4483 511.9401,424.826 513.0405,420.433 513.7702,415.5819 514.0108,411.0597 513.8001,406.1585 513.1013,401.3029 511.9213,396.5412 510.2719,391.9211 508.1696,387.4886 505.6355,383.2882 502.9347,379.6531 499.6446,376.0142 496.0077,372.722"/>
    <polygon points="493.3317,375.7612 489.6752,373.0833 486.1023,370.9626 482.0002,369.0355 477.7251,367.5304 473.6914,366.5345 469.2071,365.877 464.6794,365.6735 460.1542,365.926 455.6773,366.6321 451.6546,367.6716 447.7448,369.0774 443.6474,371.0146 439.7654,373.3537 436.1381,376.0711 433.0683,378.8709 430.0294,382.2334 427.3438,385.8843 425.0387,389.7865 423.1374,393.9007 421.7659,397.8226 420.6887,402.225 420.0595,406.7134 419.8816,410.8644 420.1247,415.3902 420.7461,419.4983 421.8524,423.8934 423.3948,428.1551 425.1786,431.9076 427.5095,435.7945 429.9797,439.1353 433.0127,442.5031 436.3688,445.5491 440.0141,448.2423 443.578,450.3779 447.672,452.3223 451.9407,453.8453 456.3408,454.9317 460.4517,455.5344 464.6007,455.7558 469.1287,455.5602 473.6142,454.9105 478.0116,453.8134 482.2766,452.2799 486.3658,450.3256 489.9245,448.1813 493.5631,445.4791 496.9118,442.425 499.9366,439.0497 502.3985,435.7029 504.72,431.8103 506.6385,427.7042 508.0265,423.788 509.1221,419.3902 509.7335,415.2806 509.9635,411.1321 509.7774,406.6037 509.1372,402.1169 508.0493,397.7171 506.5248,393.449 504.579,389.3556 502.2318,385.4786 499.7476,382.1481 496.7005,378.7931"/>
    <polygon points="460.0466,392.5466 454.1128,391.4177 448.0964,390.8817 442.0565,390.9438 436.0524,391.6035 430.1431,392.8542 424.3867,394.6836 419.179,396.9085 413.8777,399.8033 408.8889,403.2086 404.2617,407.091 400.0415,411.4123 396.4916,415.8245 393.174,420.872 390.3722,426.2232 388.1139,431.8253 386.5101,437.2564 385.3629,443.1867 384.8082,449.2014 384.8314,454.8643 385.4352,460.8742 386.6309,466.7949 388.4068,472.5681 390.7454,478.1373 393.6238,483.4475 397.0136,488.4468 400.8816,493.0861 405.1899,497.3197 409.896,501.106 414.9538,504.408 419.9707,507.0347 425.5658,509.3104 431.3587,511.021 437.2925,512.1499 443.3089,512.6859 449.3488,512.6238 455.3528,511.9641 461.2621,510.7134 467.0186,508.884 472.2262,506.6591 477.5276,503.7643 482.5164,500.359 487.1436,496.4766 491.3638,492.1553 495.1356,487.4375 498.4218,482.3695 501.1903,477.0011 503.2913,471.7423 504.984,465.9441 506.0945,460.0069 506.5971,454.3662 506.5536,448.3262 505.9126,442.3201 504.6802,436.407 502.8686,430.6448 500.4955,425.0903 497.5843,419.798 494.1635,414.8198 490.2668,410.2046 486.2154,406.2479 481.5093,402.4616 476.4515,399.1596 471.0917,396.3745 465.8395,394.2572"/>
    <line x1="469.0378" x2="431.9184" y1="421.9756" y2="360.9926"/>
    <polygon points="432.8871,360.403 429.3351,362.565 499.1633,473.2861"/>
    <line x1="430.3038" x2="467.4232" y1="361.9754" y2="422.9584"/>
    <polygon points="437.3556,451.8196 441.5641,454.3489 446.0026,456.4488 450.6273,458.0985 455.3927,459.2818 459.8758,459.9501 464.7791,460.208 469.6839,459.9787 474.5418,459.2646 479.305,458.0726 483.9267,456.4145 488.3614,454.3067 492.5654,451.7698 496.4973,448.8289 500.1185,445.5128 503.3932,441.8542 506.2894,437.8892 508.602,433.9908 510.6933,429.5484 512.3342,424.9206 513.5085,420.1529 514.2046,415.2924 514.4156,410.3868 514.1396,405.4845 513.3791,400.6336 512.2536,396.2429 510.5867,391.6244 508.4704,387.1938 506.136,383.3085 503.2176,379.3598 499.9223,375.7197 496.2825,372.424 492.3341,369.5052 488.116,366.992 483.6695,364.9091 479.4003,363.3862 474.6395,362.1847 469.7831,361.4608 464.8788,361.2216 459.9749,361.4696 455.1198,362.2023 450.3611,363.4124 445.7458,365.0881 441.3192,367.2128 437.125,369.7658 433.4953,372.4806 429.8615,375.7829 426.5728,379.4289 423.6615,383.3829 421.1564,387.6058 419.2257,391.7068 417.5672,396.3283 416.3747,401.0914 415.6601,405.9493 415.4303,410.854 415.6877,415.7574 416.4296,420.6111 417.6488,425.3674 419.3333,429.9795 421.287,434.0696 423.8158,438.2784 426.7492,442.2159 430.0584,445.8434 433.7107,449.1252"/>
    <polygon points="391.0199,432.6987 389.4167,438.1332 388.3522,443.6984 387.8366,449.341 387.8748,455.0069 388.4665,460.642 389.6059,466.1923 391.2823,471.6047 393.4794,476.8275 396.3734,482.133 399.575,486.8078 403.218,491.1475 407.2676,495.1104 411.6851,498.6587 416.4282,501.7583 421.4514,504.3797 426.7068,506.4976 432.1439,508.0919 437.7108,509.1474 443.3542,509.6538 449.0201,509.6063 454.6542,509.0054 460.2026,507.8569 465.6123,506.1718 470.8314,503.9661 475.8101,501.261 480.5005,498.0823 484.858,494.4606 488.8407,490.4304 492.4105,486.0303 495.5333,481.3024 498.1792,476.2921 500.4474,470.6904 502.0328,465.2507 503.0791,459.682 503.5763,454.0378 503.5196,448.372 502.9096,442.7389 501.752,437.1923 500.0581,431.7854 497.8438,426.5699 495.1306,421.5957 491.9443,416.9104 488.3155,412.5589 484.2788,408.5828 479.8729,405.0201 475.14,401.905 470.1253,399.2673 464.5199,397.0083 459.0776,395.4317 453.5073,394.3945 447.8623,393.9065 442.1966,393.9724 436.5644,394.5917 431.0198,395.7583 425.6156,397.4611 420.4037,399.6838 415.434,402.4051 410.7539,405.5991 406.4083,409.235 402.4388,413.2782 398.8833,417.6899 395.7759,422.4279 393.1464,427.4468"/>
    <polygon points="386.6233,443.5529 386.1089,449.1946 386.1528,455.2369 386.7489,460.8705 387.9707,466.7881 389.7848,472.5518 392.0072,477.7628 394.9109,483.0618 398.1072,487.7391 401.7327,492.0921 406.0362,496.3336 410.7468,500.118 415.4896,503.2161 420.505,505.8503 426.1041,508.1222 431.537,509.7273 437.4718,510.8631 443.491,511.3927 449.1557,511.3337 454.7894,510.7375 460.707,509.5158 466.4706,507.7016 471.6816,505.4793 476.6583,502.7726 481.6579,499.3793 486.2886,495.4975 490.2525,491.4502 494.0369,486.7397 497.135,481.9968 499.7692,476.9814 502.041,471.3823 503.6461,465.9494 504.7819,460.0147 505.3115,453.9955 505.2525,448.3307 504.5976,442.3239 503.4346,436.7795 501.6204,431.0158 499.3981,425.8048 496.6915,420.8281 493.2981,415.8285 489.4164,411.1978 485.3691,407.234 480.9639,403.6719 475.9156,400.3515 470.5573,397.5587 465.3011,395.4454 459.8682,393.8403 453.9335,392.7045 448.2918,392.1901 442.2495,392.2339 436.2427,392.8888 430.6983,394.0518 424.9346,395.866 419.7236,398.0883 414.4247,400.9921 409.7474,404.1883 405.3944,407.8139 401.1528,412.1174 397.3684,416.8279 394.2703,421.5708 391.6361,426.5862 389.3643,432.1853 387.6706,437.9855"/>
    <polygon points="387.1146,466.9375 388.9166,472.7013 391.2841,478.2568 393.9963,483.2267 397.3876,488.2235 401.0046,492.5794 405.2931,496.8311 409.984,500.6343 415.0306,503.951 420.3826,506.7483 425.9868,508.9981 431.7873,510.6783 437.3523,511.721 443.3676,512.2548 449.0292,512.2084 455.0349,511.576 460.9477,510.3481 466.7087,508.5371 471.9207,506.3256 476.9032,503.6367 481.9158,500.2688 486.5679,496.4182 490.5604,492.4037 494.3855,487.7307 497.7258,482.6996 500.548,477.3608 502.8241,471.7672 504.4417,466.3414 505.6001,460.4146 506.162,454.4018 506.1421,448.7401 505.5378,442.7314 504.3377,436.813 502.6819,431.3987 500.3665,425.8213 497.5068,420.5024 494.1311,415.495 490.2732,410.849 486.2525,406.8628 481.5735,403.045 476.5373,399.7125 471.194,396.8986 465.5969,394.6312 459.8016,392.933 454.24,391.873 448.2264,391.3204 442.5646,391.3491 436.557,391.9628 430.6404,393.1722 424.8737,394.9652 419.6549,397.1605 414.3404,400.0285 409.3383,403.412 404.6984,407.2771 400.7184,411.304 396.9079,415.989 393.5833,421.0304 390.7777,426.3781 388.5191,431.9787 386.8299,437.7766 385.7785,443.3399 385.2353,449.3544 385.2729,455.0161 385.896,461.0228"/>
    <polygon points="349.6923,471.8505 338.5956,468.978 347.6429,476.016"/>
    <line x1="349.5215" x2="347.8429" y1="472.1976" y2="471.3718"/>
    <line x1="345.9934" x2="349.3508" y1="470.893" y2="472.5448"/>
    <line x1="349.18" x2="344.144" y1="472.8919" y2="470.4142"/>
    <line x1="342.2945" x2="349.0092" y1="469.9355" y2="473.239"/>
    <line x1="348.8384" x2="340.4451" y1="473.5861" y2="469.4567"/>
    <line x1="340.1035" x2="348.4969" y1="470.151" y2="474.2804"/>
    <line x1="348.3261" x2="341.6114" y1="474.6275" y2="471.324"/>
    <line x1="343.1193" x2="348.1553" y1="472.497" y2="474.9746"/>
    <line x1="347.9845" x2="344.6272" y1="475.3218" y2="473.67"/>
    <line x1="346.1351" x2="347.8137" y1="474.843" y2="475.6689"/>
    <line x1="348.6676" x2="338.5956" y1="473.9333" y2="468.978"/>
    <line x1="327.7121" x2="423.9306" y1="487.7071" y2="816.0934"/>
    <line x1="412.3305" x2="415.5789" y1="837.3264" y2="870.3076"/>
    <polygon points="413.0972,870.552 415.9334,870.2727 401.5217,738.4878"/>
    <line x1="460.321" x2="493.3426" y1="856.0591" y2="827.1262"/>
    <line x1="493.6154" x2="477.1045" y1="827.4375" y2="841.9039"/>
    <line x1="476.5591" x2="493.0699" y1="841.2814" y2="826.8149"/>
    <polygon points="492.7972,826.5037 460.321,856.0591 493.8881,827.7487"/>
    <polygon points="463.7169,746.49 465.3464,745.2469 431.3763,702.4038"/>
    <line x1="464.0428" x2="450.7807" y1="746.2414" y2="728.8555"/>
    <line x1="451.7584" x2="465.0205" y1="728.1097" y2="745.4955"/>
    <line x1="464.6946" x2="438.1703" y1="745.7441" y2="710.9724"/>
    <line x1="437.8444" x2="464.3687" y1="711.221" y2="745.9927"/>
    <polygon points="504.6567,723.4009 512.3956,664.8121 481.1649,660.6869 473.4261,719.2757"/>
    <polygon points="601.2217,815.3392 601.15,820.2368 602.1031,825.4236 603.911,829.9758 606.7764,834.4031 610.4779,838.1594 614.5304,840.9106 619.3876,842.9646 624.1844,843.9555 629.082,844.0272 634.2688,843.0742 639.1557,841.092 643.2483,838.4008 646.7621,834.9884 649.7558,830.6469 651.8098,825.7897 652.8007,820.9928 652.8724,816.0953 651.9194,810.9084 650.1114,806.3562 647.246,801.929 643.8336,798.4151 639.4921,795.4214 634.6349,793.3675 629.838,792.3765 624.9405,792.3048 619.7537,793.2579 615.2014,795.0658 610.7742,797.9312 607.0178,801.6327 604.2666,805.6852 602.2127,810.5424"/>
    <line x1="536.9078" x2="539.8054" y1="556.9954" y2="552.6456"/>
    <line x1="540.134" x2="537.8159" y1="552.8645" y2="556.3443"/>
    <line x1="537.1587" x2="539.4768" y1="555.9066" y2="552.4267"/>
    <line x1="539.1482" x2="537.4096" y1="552.2078" y2="554.8177"/>
    <line x1="537.6606" x2="538.8196" y1="553.7288" y2="551.9889"/>
    <line x1="538.491" x2="537.9115" y1="551.77" y2="552.64"/>
    <line x1="540.4626" x2="538.724" y1="553.0833" y2="555.6933"/>
    <line x1="539.6321" x2="540.7912" y1="555.0422" y2="553.3022"/>
    <line x1="541.1198" x2="540.5402" y1="553.5211" y2="554.3911"/>
    <polygon points="541.4484,553.74 538.1624,551.5511 536.9078,556.9954"/>
    <line x1="527.8454" x2="310.6084" y1="480.4765" y2="232.1281"/>
    <line x1="301.8577" x2="300.5239" y1="391.7715" y2="391.721"/>
    <line x1="300.5097" x2="303.1773" y1="392.0939" y2="392.195"/>
    <line x1="304.497" x2="300.4956" y1="392.6184" y2="392.4668"/>
    <line x1="300.4815" x2="305.8167" y1="392.8397" y2="393.0419"/>
    <line x1="307.1363" x2="300.4674" y1="393.4653" y2="393.2127"/>
    <line x1="300.4532" x2="308.456" y1="393.5856" y2="393.8888"/>
    <line x1="309.7757" x2="300.4391" y1="394.3122" y2="393.9585"/>
    <line x1="300.425" x2="311.0954" y1="394.3314" y2="394.7357"/>
    <line x1="311.053" x2="300.3826" y1="395.8544" y2="395.4502"/>
    <line x1="300.3685" x2="309.705" y1="395.8231" y2="396.1768"/>
    <line x1="308.3571" x2="300.3543" y1="396.4992" y2="396.196"/>
    <line x1="300.3402" x2="307.0092" y1="396.5689" y2="396.8216"/>
    <line x1="305.6613" x2="300.3261" y1="397.144" y2="396.9418"/>
    <line x1="300.312" x2="304.3133" y1="397.3148" y2="397.4663"/>
    <line x1="302.9654" x2="300.2978" y1="397.7887" y2="397.6877"/>
    <line x1="300.2837" x2="301.6175" y1="398.0606" y2="398.1111"/>
    <polygon points="300.2696,398.4335 313.0749,395.3708 300.538,391.3481"/>
    <line x1="300.3967" x2="312.4009" y1="395.0773" y2="395.532"/>
    <line x1="312.415" x2="300.4108" y1="395.1591" y2="394.7043"/>
    <polygon points="303.5365,455.246 298.9412,452.6551 293.9266,451.0171 288.688,450.3958 283.4294,450.8154 278.3555,452.2595 273.6641,454.672 269.5379,457.9589 266.1375,461.9921 263.5954,466.6145 262.0105,471.6462 261.4447,476.8911 261.92,482.145 263.4178,487.2032 265.6739,491.5526 268.9461,495.6904 272.9673,499.105 277.5807,501.6634 282.6067,503.266 287.8496,503.8503 293.1052,503.3936 298.1687,501.9136 302.8429,499.4681 306.6753,496.4153 310.1041,492.4063 312.6788,487.8019 314.2991,482.7815 314.9019,477.5407 314.4637,472.2836 313.0017,467.2149 310.5726,462.5321 307.5334,458.6889"/>
    <polygon points="309.3656,491.7023 311.8953,487.0707 313.3518,482.3905 313.8972,477.1414 313.434,472.2617 312.0535,467.5585 309.5994,462.8865 306.5102,459.0809 302.4425,455.7187 298.1236,453.4008 293.4434,451.9442 288.1943,451.3988 283.3146,451.862 278.2619,453.3855 273.9395,455.6967 270.1339,458.7859 266.7716,462.8535 264.4537,467.1724 262.9971,471.8526 262.4517,477.1017 262.915,481.9814 264.4384,487.0341 266.7496,491.3566 269.8388,495.1622 273.5938,498.3127 278.2253,500.8424 282.9055,502.2989 287.777,502.8413 292.663,502.4497 297.3859,501.1384 302.0935,498.7531 306.2151,495.4572"/>
    <polygon points="327.5573,497.9956 140.8284,508.9677 141.0974,512.8545"/>
    <line x1="327.5573" x2="140.9629" y1="497.9956" y2="510.9111"/>
    <line x1="140.9898" x2="290.2653" y1="511.2998" y2="500.9673"/>
    <line x1="290.2115" x2="140.936" y1="500.19" y2="510.5224"/>
    <line x1="140.9091" x2="252.8657" y1="510.1337" y2="502.3844"/>
    <line x1="252.9733" x2="141.0167" y1="503.9391" y2="511.6884"/>
    <line x1="141.0436" x2="215.6814" y1="512.0771" y2="506.9109"/>
    <line x1="215.5199" x2="140.8822" y1="504.5788" y2="509.745"/>
    <line x1="140.8553" x2="178.1742" y1="509.3563" y2="506.7732"/>
    <line x1="178.3894" x2="141.0705" y1="509.8827" y2="512.4658"/>
    <polygon points="169.9766,527.361 171.4314,530.8443 173.402,534.4988 175.513,537.6283 178.1635,540.8243 180.8484,543.4778 186.9053,547.9707 190.2236,549.7703 194.0511,551.3795 201.3542,553.2599 205.106,553.6769 209.2578,553.7259 213.0183,553.3974 217.0987,552.6295 220.7214,551.5683 224.5712,550.0134 228.2396,548.0686 231.3839,545.9798 234.3177,543.6044 237.271,540.6859 239.9064,537.4775 242.0028,534.3382 243.9563,530.6745 245.3948,527.1844 246.5901,523.2082 247.3146,519.5035 247.7052,515.3699 247.6875,511.5951 246.5904,504.1339 244.1153,497.0103 242.1965,493.3282 240.1299,490.1693 237.5249,486.9362 234.8778,484.245 231.6881,481.5869 228.5637,479.4685 225.2539,477.6533 221.434,476.026 217.832,474.8967 213.7669,474.0519 210.0132,473.6526 205.8612,473.6232 201.7285,474.0234 198.0256,474.7565 194.4079,475.8347 190.5654,477.4077 186.9062,479.3698 183.7718,481.4734 180.5696,484.1163 177.9098,486.795 175.5137,489.7119 173.2079,493.1648 171.2717,496.8377 169.8497,500.3345 168.673,504.3163 167.966,508.0244 167.6108,511.7825 167.6303,515.9345 168.7626,523.3904"/>
    <polygon points="177.0677,536.1303 181.8374,541.4817 187.8497,546.0395 194.2906,549.1864 201.581,551.1282 209.1115,551.5892 216.5844,550.5514 223.7043,548.0556 229.8846,544.4235 235.5292,539.4177 240.072,533.394 243.2029,526.9453 245.1265,519.6501 245.5688,512.1184 244.5123,504.6481 241.9989,497.5345 238.3514,491.3633 233.3315,485.7311 227.2966,481.2034 220.4851,477.959 213.1665,476.1264 206.0073,475.7595 198.5397,476.8346 191.7748,479.2059 185.2703,483.0286 179.6506,488.0625 175.1379,494.1087 171.9105,500.9282 170.1519,507.8776 169.747,515.4114 170.8407,522.8763 173.3895,529.9773"/>
    <polygon points="178.4426,539.858 181.0936,542.5433 187.1059,547.0901 193.8769,550.4031 197.4696,551.5567 201.5291,552.4206 205.6571,552.8508 209.4304,552.8614 216.8931,551.7982 224.0147,549.3273 227.6901,547.3993 230.8378,545.3184 233.771,542.9447 236.7175,540.0217 241.2208,533.9767 244.4848,527.182 245.7061,523.2154 246.4471,519.5155 246.8489,511.9882 246.506,508.2304 245.7138,504.1563 243.1916,497.0528 241.4307,493.7155 239.1336,490.2588 236.7388,487.3428 233.7946,484.4174 227.7173,479.9579 224.0434,478.0269 220.5433,476.6172 213.2187,474.836 205.6887,474.4886 198.2312,475.5877 194.6161,476.6691 190.7801,478.2536 184.3179,482.1345 181.3961,484.5223 178.4637,487.4594 173.9895,493.5261 172.2099,496.8534 170.6316,500.692 168.8328,508.0123 168.4673,515.5414 169.5485,523.0015 172.0365,530.1171 175.8395,536.6255"/>
    <polygon points="216.9736,551.3377 224.0789,548.8258 230.5647,544.9877 236.1862,539.9683 238.6052,537.0733 240.9273,533.6343 244.1587,526.826 246.0132,519.5214 246.4207,511.9962 246.0749,508.2394 245.2752,504.1677 242.7288,497.0746 238.8592,490.6076 233.8126,485.0106 227.7792,480.4946 224.4624,478.697 220.6316,477.1021 213.3181,475.2832 205.7909,474.9122 198.3341,476.0033 191.2287,478.5153 184.7429,482.3533 179.1214,487.3727 176.7025,490.2678 174.3804,493.7067 171.1489,500.5151 170.0439,504.1222 169.2394,508.193 168.9051,515.7219 170.0324,523.1734 171.133,526.7819 172.742,530.6068 176.6742,537.0358 181.7751,542.5836 187.8521,547.0406 194.676,550.239 201.9895,552.0579 209.5167,552.4288"/>
    <polygon points="245.0725,500.5287 243.4938,496.6894 241.7173,493.3595 239.4076,489.9101 237.0053,486.9993 234.0566,484.0774 227.9789,479.6154 221.1667,476.3843 217.1952,475.1761 213.4928,474.4434 209.7376,474.066 205.5864,474.0651 198.1284,475.1721 194.1564,476.3787 190.6727,477.8306 184.1968,481.6919 180.9826,484.3191 178.3134,486.9872 173.7937,493.0221 170.4979,499.8033 169.348,503.398 168.4841,507.4584 168.0493,511.5867 168.0305,515.3608 168.4243,519.4933 169.1554,523.196 171.6538,530.3097 173.5903,533.9816 175.6752,537.1275 178.3024,540.3417 180.9705,543.011 184.1836,545.6394 187.3287,547.7256 190.6579,549.5035 194.4966,551.0837 201.8148,552.8976 209.3441,553.2938 213.1029,552.9537 217.1793,552.1689 224.293,549.6705 227.9649,547.734 231.1108,545.6491 234.325,543.022 236.9943,540.3538 241.5139,534.3189 244.8097,527.5377 246.0557,523.5779 246.8236,519.8827 247.2367,516.1312 247.2771,511.9802 246.8834,507.8477 246.1522,504.1451"/>
    <polygon points="242.3006,497.1711 238.4019,490.7099 233.3141,485.1367 227.2341,480.6668 220.7527,477.6005 213.4407,475.7345 205.905,475.3355 198.4369,476.419 191.3252,478.9429 184.8449,482.8098 179.2467,487.8701 174.7469,493.928 171.5197,500.7494 169.6898,508.0705 169.3279,515.6081 170.3573,522.7039 172.8462,529.828 176.6812,536.3272 181.7138,541.9503 187.7495,546.4798 194.5549,549.7406 201.8669,551.6066 209.4026,552.0055 216.8708,550.9221 223.9825,548.3981 230.4627,544.5313 236.061,539.471 240.5607,533.413 243.788,526.5916 245.6179,519.2706 245.9797,511.733 244.8595,504.2703"/>
    <polygon points="205.9369,477.0485 198.8482,478.0814 192.0957,480.4731 185.9372,484.1323 180.6077,488.9191 176.3109,494.651 174.5214,497.9745 173.0831,501.4644 171.3695,508.42 171.0411,515.576 172.1105,522.6593 174.537,529.3994 178.2278,535.539 183.042,540.8437 188.7959,545.111 195.2698,548.1779 202.2165,549.9274 209.3707,550.2926 216.4594,549.2596 223.212,546.8679 229.3705,543.2088 234.6999,538.4219 238.9968,532.6901 242.097,526.2321 243.8822,519.2945 244.2684,515.5397 244.2666,511.765 243.1971,504.6817 240.7707,497.9416 237.0799,491.802 232.2656,486.4973 226.5117,482.2301 220.0379,479.1631 213.0912,477.4137"/>
    <polygon points="190.4582,476.985 187.1179,478.745 183.6507,481.0306 180.4356,483.6592 177.7601,486.3231 175.3442,489.2246 173.0115,492.6604 171.0428,496.3169 169.5864,499.8003 168.4605,503.4041 167.6155,507.4701 167.1911,511.6012 167.1742,515.3767 167.5615,519.5115 168.2793,523.2182 169.4634,527.1986 170.8886,530.6949 172.633,534.0434 174.9024,537.5213 177.5159,540.7486 180.1674,543.4365 183.3588,546.0937 186.4825,548.2145 190.1298,550.2003 193.6063,551.6729 197.5702,552.9113 201.6401,553.7373 205.3959,554.1232 209.5487,554.1418 213.6816,553.7352 217.3849,553.0002 221.0038,551.9235 224.8494,550.356 228.5144,548.4031 231.657,546.3104 234.5911,543.9343 237.5476,541.0179 239.9634,538.1164 242.2961,534.6806 244.2648,531.0241 245.7213,527.5407 246.9411,523.5711 247.6922,519.871 248.1165,515.7399 248.1335,511.9643 247.7462,507.8296 247.0284,504.1228 245.8442,500.1424 244.4191,496.6461 242.4832,492.9721 240.1815,489.5155 237.7917,486.5925 234.8616,483.6496 231.6456,481.0222 228.5022,478.9307 225.1779,477.1408 221.3464,475.5388 217.7374,474.4298 213.6676,473.6037 209.5345,473.1986 205.7589,473.1993 201.6261,473.6058 197.9227,474.3409 194.3039,475.4175"/>
    <polygon points="188.5395,481.3861 185.391,483.471 180.0548,488.2552 177.6398,491.1583 175.5288,494.2894 173.7433,497.6168 172.3013,501.1069 170.5574,508.0584 170.167,515.2147 170.5121,518.9751 171.2335,522.6818 172.3238,526.2972 173.772,529.7847 177.4543,535.9333 179.8452,538.8563 182.5177,541.5241 188.2727,545.7955 194.7349,548.8947 198.3411,550.0149 202.0417,550.767 205.7991,551.1432 209.5754,551.1399 216.6651,550.0909 220.2805,549.0006 223.768,547.5523 229.9166,543.8701 232.8396,541.4792 235.5074,538.8066 239.7788,533.0517 241.5643,529.7242 243.0063,526.2342 244.7503,519.2827 245.1406,512.1264 244.7955,508.3659 244.0742,504.6593 241.6962,497.8983 239.9383,494.5562 237.8534,491.4077 233.0691,486.0715 230.1661,483.6565 227.035,481.5455 220.5728,478.4463 216.9665,477.3261 213.266,476.5741 206.1097,476.1837 202.3492,476.5288 198.6426,477.2502 191.8816,479.6282"/>
    <polygon points="186.0583,484.575 180.7575,489.3909 176.5074,495.1553 173.4741,501.6431 171.7761,508.6008 171.4798,515.7565 172.5031,522.4649 174.7594,528.8649 178.3904,535.038 183.1648,540.3763 188.8958,544.6713 195.3597,547.7552 202.3038,549.5075 209.457,549.8598 216.5397,548.7982 223.2753,546.3643 229.4006,542.6531 234.6763,537.8097 238.8963,532.0232 241.7704,525.8758 243.5046,518.9271 243.8382,511.7731 242.7582,504.6931 240.3068,497.9639 236.5797,491.8483 231.7225,486.5853 226.2501,482.5724 219.7702,479.5222 212.817,477.8061 205.6621,477.4912 198.951,478.497 192.2029,480.8958"/>
    <polygon points="175.9198,494.4701 172.8201,500.9303 171.0204,507.8658 170.5879,515.018 170.9169,518.7791 171.6265,522.4873 173.9941,529.2501 177.6178,535.4315 182.3625,540.8008 185.2516,543.2313 188.3727,545.3555 194.8249,548.4717 198.4292,549.5955 202.1291,550.3472 209.2844,550.7251 216.3788,549.7201 223.1476,547.3698 229.3382,543.7618 232.2849,541.4015 234.9764,538.7539 239.2896,533.0322 242.4222,526.588 244.2572,519.6617 244.7261,512.5118 244.4163,508.7491 243.7255,505.0373 242.661,501.4151 241.2338,497.9198 237.5786,491.7569 232.8067,486.4119 229.9053,483.9961 226.7733,481.8878 220.3054,478.8045 213.3652,477.0225 206.212,476.6081 202.4517,476.9467 198.7454,477.6658 191.9886,480.0506 188.652,481.8172 185.5123,483.914 180.2039,488.7266"/>
    <polygon points="313.5742,523.9022 311.3833,519.9491 308.4433,516.5164 304.874,513.7439 301.173,511.8793 297.1919,510.7284 292.6897,510.3326 288.5688,510.7711 284.2507,512.1057 280.2885,514.28 277.1072,516.9357 274.2601,520.4459 272.1757,524.4561 271.008,528.4324 270.5933,532.9329 271.0905,537.4251 272.4795,541.726 274.4884,545.3506 277.3994,548.808 280.9452,551.6105 284.9815,553.6441 289.3439,554.8259 293.4776,555.1192 297.9631,554.5653 301.9013,553.2751 305.5344,551.2815 309.0039,548.3851 311.6145,545.1666 313.7326,541.174 315.006,536.8375 315.3829,532.3336 314.9269,528.2146"/>
    <polygon points="331.2458,543.3078 336.4889,550.6073 349.1918,535.9503"/>
    <line x1="331.4643" x2="332.7413" y1="543.6119" y2="542.6946"/>
    <line x1="334.2368" x2="331.6827" y1="542.0815" y2="543.9161"/>
    <line x1="331.9012" x2="335.7323" y1="544.2202" y2="541.4684"/>
    <line x1="337.2278" x2="332.1196" y1="540.8553" y2="544.5243"/>
    <line x1="332.3381" x2="338.7233" y1="544.8285" y2="540.2422"/>
    <line x1="340.2188" x2="332.5566" y1="539.629" y2="545.1326"/>
    <line x1="332.775" x2="341.7143" y1="545.4368" y2="539.0159"/>
    <line x1="343.2098" x2="332.9935" y1="538.4028" y2="545.7409"/>
    <line x1="333.212" x2="344.7053" y1="546.0451" y2="537.7897"/>
    <line x1="346.2008" x2="333.4304" y1="537.1766" y2="546.3492"/>
    <line x1="333.6489" x2="347.6963" y1="546.6534" y2="536.5634"/>
    <line x1="348.1332" x2="334.0858" y1="537.1717" y2="547.2617"/>
    <line x1="334.3043" x2="347.0746" y1="547.5658" y2="538.3931"/>
    <line x1="346.0161" x2="334.5227" y1="539.6146" y2="547.87"/>
    <line x1="334.7412" x2="344.9575" y1="548.1741" y2="540.836"/>
    <line x1="343.8989" x2="334.9596" y1="542.0574" y2="548.4782"/>
    <line x1="335.1781" x2="342.8403" y1="548.7824" y2="543.2788"/>
    <line x1="341.7818" x2="335.3966" y1="544.5002" y2="549.0865"/>
    <line x1="335.615" x2="340.7232" y1="549.3907" y2="545.7216"/>
    <line x1="339.6646" x2="335.8335" y1="546.943" y2="549.6948"/>
    <line x1="336.0519" x2="338.606" y1="549.999" y2="548.1644"/>
    <line x1="337.5474" x2="336.2704" y1="549.3859" y2="550.3031"/>
    <line x1="333.8673" x2="349.1918" y1="546.9575" y2="535.9503"/>
    <line x1="361.1543" x2="351.1672" y1="586.7612" y2="596.3935"/>
    <line x1="350.9072" x2="360.1262" y1="596.124" y2="587.2326"/>
    <line x1="360.9059" x2="351.687" y1="588.0411" y2="596.9325"/>
    <line x1="351.9469" x2="360.3976" y1="597.202" y2="589.0515"/>
    <line x1="359.8893" x2="352.2068" y1="590.062" y2="597.4715"/>
    <line x1="352.4668" x2="359.3809" y1="597.7409" y2="591.0724"/>
    <line x1="358.8726" x2="352.7267" y1="592.0829" y2="598.0104"/>
    <line x1="352.9866" x2="358.3643" y1="598.2799" y2="593.0933"/>
    <line x1="357.856" x2="353.2465" y1="594.1037" y2="598.5494"/>
    <line x1="353.5064" x2="357.3476" y1="598.8189" y2="595.1142"/>
    <line x1="356.8393" x2="353.7663" y1="596.1246" y2="599.0884"/>
    <line x1="354.0263" x2="356.331" y1="599.3579" y2="597.1351"/>
    <line x1="355.8227" x2="354.2862" y1="598.1455" y2="599.6274"/>
    <line x1="354.5461" x2="355.3143" y1="599.8969" y2="599.156"/>
    <polygon points="354.806,600.1664 361.6684,586.5254 347.7882,592.8901"/>
    <line x1="351.4271" x2="361.4142" y1="596.663" y2="587.0307"/>
    <line x1="359.098" x2="350.6473" y1="587.7041" y2="595.8545"/>
    <line x1="350.3874" x2="358.0698" y1="595.585" y2="588.1755"/>
    <line x1="357.0417" x2="350.1275" y1="588.647" y2="595.3155"/>
    <line x1="349.8676" x2="356.0135" y1="595.046" y2="589.1184"/>
    <line x1="354.9853" x2="349.6076" y1="589.5899" y2="594.7765"/>
    <line x1="349.3477" x2="353.9572" y1="594.507" y2="590.0613"/>
    <line x1="352.929" x2="349.0878" y1="590.5328" y2="594.2375"/>
    <line x1="348.8279" x2="351.9009" y1="593.968" y2="591.0042"/>
    <line x1="350.8727" x2="348.568" y1="591.4757" y2="593.6985"/>
    <line x1="348.3081" x2="349.8445" y1="593.429" y2="591.9471"/>
    <line x1="348.8164" x2="348.0481" y1="592.4186" y2="593.1596"/>
    <polygon points="414.5903,579.1566 418.506,580.872 420.3823,571.2622"/>
    <line x1="414.9463" x2="415.6434" y1="579.3126" y2="577.7213"/>
    <line x1="416.6965" x2="415.3023" y1="576.2859" y2="579.4685"/>
    <line x1="415.6582" x2="417.7496" y1="579.6244" y2="574.8506"/>
    <line x1="418.8027" x2="416.0142" y1="573.4152" y2="579.7804"/>
    <line x1="416.3702" x2="419.8558" y1="579.9363" y2="571.9799"/>
    <line x1="420.2118" x2="416.7261" y1="572.1358" y2="580.0923"/>
    <line x1="417.0821" x2="419.8706" y1="580.2482" y2="573.8831"/>
    <line x1="419.5294" x2="417.4381" y1="575.6303" y2="580.4042"/>
    <line x1="417.794" x2="419.1883" y1="580.5601" y2="577.3775"/>
    <line x1="418.8471" x2="418.15" y1="579.1248" y2="580.7161"/>
    <polygon points="429.1532,374.7745 425.844,378.4035 422.9014,382.3357 420.3531,386.5341 418.2228,390.9594 416.5307,395.57 415.2164,400.6928 414.48,405.5486 414.2168,410.4528 414.4293,415.3595 415.1155,420.2226 416.3767,425.3588 418.0211,429.9866 420.1055,434.4337 422.6103,438.6582 425.5121,442.6206 428.7836,446.2837 432.3941,449.6131 436.3098,452.5776 440.8258,455.3302 445.6039,457.5975 450.23,459.2466 454.994,460.4405 459.8511,461.1678 465.1338,461.4217 470.0383,461.1635 474.8948,460.4321 479.6578,459.2342 484.6313,457.4356 489.0587,455.3099 493.2597,452.7658 497.1949,449.8272 500.8274,446.5218 504.123,442.8804 507.0509,438.9372 509.5836,434.7294 511.842,429.947 513.4825,425.3178 514.6674,420.5516 515.3857,415.6931 515.6306,410.788 515.3624,405.506 514.6219,400.6509 513.4152,395.8901 511.6073,390.92 509.4734,386.4965 506.9215,382.3003 503.9756,378.3705 500.6633,374.7443 497.0158,371.4554 493.0672,368.5349 488.8547,366.01 484.0681,363.7606 479.4359,362.1287 474.6675,360.9527 469.8077,360.2434 464.902,360.0076 459.9966,360.2475 455.1374,360.9609 450.37,362.141 445.7391,363.7768 441.2882,365.8529 437.059,368.3498 433.0912,371.2442"/>
    <polygon points="431.9727,370.5893 428.332,373.879 424.7777,377.7887 421.6391,382.0394 419.1255,386.2534 417.0209,390.6858 415.2333,395.6581 414.0339,400.416 413.2507,405.6415 413.0026,410.9195 413.2538,415.8198 414.0402,421.0449 415.2425,425.802 417.0332,430.7732 419.1405,435.2044 421.8665,439.7307 424.7978,443.6656 428.3546,447.5732 431.9972,450.8606 435.9339,453.7895 440.4619,456.5128 444.8944,458.6174 449.8667,460.405 454.6246,461.6044 459.85,462.3877 465.1281,462.6357 470.0284,462.3845 474.8831,461.6719 480.0105,460.3958 484.9817,458.6052 489.4129,456.4978 493.9393,453.7718 497.8742,450.8405 501.5148,447.5508 505.0691,443.6411 507.998,439.7044 510.7213,435.1764 512.9703,430.395 514.6136,425.7716 515.8865,420.6434 516.5962,415.7883 516.8444,410.8878 516.5931,405.6099 515.8805,400.7552 514.6043,395.6278 512.8137,390.6566 510.7064,386.2254 507.9803,381.699 505.049,377.7641 501.7594,374.1235 497.8496,370.5692 493.9129,367.6403 489.3849,364.917 484.6036,362.668 479.9802,361.0248 475.2223,359.8253 469.9968,359.0421 464.7188,358.7941 459.8185,359.0452 454.9638,359.7578 449.8363,361.034 445.2139,362.68 440.4339,364.9319 435.9076,367.658"/>
  </g>
</svg>
