<?xml version="1.0" encoding="utf-8" ?>
<svg xmlns="http://www.w3.org/2000/svg" xmlns:cc="http://creativecommons.org/ns" xmlns:dc="http://purl.org/dc/elements/1.1/" xmlns:ev="http://www.w3.org/2001/xml-events" xmlns:inkscape="http://www.inkscape.org/namespaces/inkscape" xmlns:rdf="http://www.w3.org/1999/02/22-rdf-syntax-ns" xmlns:sodipodi="http://sodipodi.sourceforge.net/DTD/sodipodi-0.dtd" xmlns:xlink="http://www.w3.org/1999/xlink" baseProfile="tiny" height="29.7cm" version="1.2" viewBox="0 0 793.7007874015749 1122.5196850393702" width="21.0cm">
  <metadata>
    <rdf:RDF>
      <cc:Work>
        <dc:format>image/svg+xml</dc:format>
        <dc:source>vsk save -s 83 -c C:\Users\marti\Documents\git\putti-plotter-plot\sixfeet\config\1.json C:\Users\marti\Documents\git\putti-plotter-plot\sixfeet\sketch_sixfeet.py</dc:source>
        <dc:date>2023-11-19T17:46:42.258414</dc:date>
      </cc:Work>
    </rdf:RDF>
  </metadata>
  <defs/>
  <g fill="none" id="layer1" inkscape:groupmode="layer" inkscape:label="1" stroke="#0000ff" style="display:inline">
    <polygon points="456.3869,407.2466 454.9209,402.5605 453.1606,398.3837 450.8302,394.0619 448.0822,389.9929 444.9435,386.217 441.4453,382.7716 437.6222,379.6906 433.512,377.0046 429.1554,374.7402 424.5953,372.9196 419.877,371.561 415.4215,370.7286 410.5309,370.2921 405.6211,370.3434 400.7407,370.8822 395.938,371.9031 391.2604,373.3959 386.7542,375.346 382.4641,377.734 378.7323,380.3067 374.9745,383.4669 371.5492,386.9848 368.4902,390.8255 366.0179,394.6246 363.9045,398.6343 362.0404,403.1767 360.6367,407.8818 359.7074,412.7031 359.2614,417.5928 359.3034,422.5027 359.8329,427.3841 360.8445,432.1888 362.3284,436.8692 364.1047,441.0393 366.4515,445.3521 369.2152,449.4105 372.3683,453.1744 375.8796,456.6064 379.7144,459.6727 383.8349,462.343 388.2002,464.5907 392.7672,466.3938 397.4907,467.7343 401.9494,468.5497 406.8416,468.9675 411.7511,468.8974 416.6294,468.3399 421.0629,467.3975 425.7462,465.9226 430.2598,463.9898 434.5591,461.6182 438.6016,458.8313 442.3473,455.6567 445.7591,452.1257 448.8034,448.2733 451.2611,444.4649 453.3592,440.4471 455.2058,435.8976 456.5915,431.1871 457.5024,426.3623 457.9141,421.8485 457.8909,416.9385 457.3801,412.0551"/>
    <polygon points="465.7524,401.9524 478.3042,387.7022 472.4824,384.1951"/>
    <line x1="465.7524" x2="475.3933" y1="401.9524" y2="385.9486"/>
    <line x1="475.0699" x2="466.5002" y1="385.7538" y2="399.9794"/>
    <line x1="467.1471" x2="475.7167" y1="400.369" y2="386.1435"/>
    <line x1="476.0402" x2="468.5417" y1="386.3383" y2="398.7857"/>
    <line x1="467.248" x2="474.7464" y1="398.0063" y2="385.559"/>
    <line x1="474.423" x2="467.9957" y1="385.3641" y2="396.0333"/>
    <line x1="468.7435" x2="474.0996" y1="394.0602" y2="385.1693"/>
    <line x1="473.7761" x2="469.4913" y1="384.9744" y2="392.0872"/>
    <line x1="470.2391" x2="473.4527" y1="390.1142" y2="384.7796"/>
    <line x1="473.1293" x2="470.9868" y1="384.5848" y2="388.1411"/>
    <line x1="471.7346" x2="472.8058" y1="386.1681" y2="384.3899"/>
    <line x1="476.3636" x2="469.9363" y1="386.5332" y2="397.2023"/>
    <line x1="471.331" x2="476.6871" y1="395.619" y2="386.728"/>
    <line x1="477.0105" x2="472.7256" y1="386.9229" y2="394.0356"/>
    <line x1="474.1203" x2="477.3339" y1="392.4523" y2="387.1177"/>
    <line x1="477.6574" x2="475.5149" y1="387.3125" y2="390.8689"/>
    <line x1="476.9096" x2="477.9808" y1="389.2856" y2="387.5074"/>
    <line x1="459.1245" x2="459.4705" y1="318.4775" y2="317.6557"/>
    <line x1="459.4614" x2="458.7694" y1="316.6844" y2="318.3279"/>
    <line x1="458.4142" x2="459.4522" y1="318.1783" y2="315.7132"/>
    <line x1="459.443" x2="458.059" y1="314.7419" y2="318.0288"/>
    <line x1="457.7038" x2="459.4338" y1="317.8792" y2="313.7706"/>
    <line x1="459.4246" x2="457.3486" y1="312.7993" y2="317.7297"/>
    <line x1="456.9934" x2="459.4154" y1="317.5801" y2="311.828"/>
    <line x1="458.705" x2="456.283" y1="311.5289" y2="317.281"/>
    <line x1="455.9278" x2="458.0038" y1="317.1314" y2="312.2011"/>
    <line x1="457.3026" x2="455.5726" y1="312.8732" y2="316.9819"/>
    <line x1="455.2174" x2="456.6014" y1="316.8323" y2="313.5454"/>
    <line x1="455.9003" x2="454.8623" y1="314.2176" y2="316.6828"/>
    <line x1="454.5071" x2="455.1991" y1="316.5332" y2="314.8897"/>
    <line x1="454.4979" x2="454.1519" y1="315.5619" y2="316.3836"/>
    <line x1="456.6382" x2="459.4062" y1="317.4305" y2="310.8567"/>
    <polygon points="459.4062,310.8567 453.7967,316.2341 459.4797,318.627"/>
    <line x1="400.8022" x2="397.0287" y1="331.8719" y2="338.0652"/>
    <line x1="396.7037" x2="400.4773" y1="337.8672" y2="331.6739"/>
    <line x1="399.7749" x2="396.3787" y1="332.0952" y2="337.6692"/>
    <line x1="396.0538" x2="399.0726" y1="337.4712" y2="332.5165"/>
    <line x1="398.3703" x2="395.7288" y1="332.9378" y2="337.2732"/>
    <line x1="395.4038" x2="397.6679" y1="337.0752" y2="333.3592"/>
    <line x1="396.9656" x2="395.0788" y1="333.7805" y2="336.8771"/>
    <line x1="394.7539" x2="396.2633" y1="336.6791" y2="334.2018"/>
    <line x1="395.5609" x2="394.4289" y1="334.6231" y2="336.4811"/>
    <line x1="394.1039" x2="394.8586" y1="336.2831" y2="335.0445"/>
    <line x1="394.1563" x2="393.7789" y1="335.4658" y2="336.0851"/>
    <polygon points="393.4539,335.8871 400.2785,340.0452 400.8284,331.4632"/>
    <line x1="397.3537" x2="400.7499" y1="338.2632" y2="332.6892"/>
    <line x1="400.6975" x2="397.6787" y1="333.5065" y2="338.4612"/>
    <line x1="398.0036" x2="400.6451" y1="338.6592" y2="334.3239"/>
    <line x1="400.5927" x2="398.3286" y1="335.1412" y2="338.8572"/>
    <line x1="398.6536" x2="400.5404" y1="339.0552" y2="335.9586"/>
    <line x1="400.488" x2="398.9786" y1="336.7759" y2="339.2532"/>
    <line x1="399.3035" x2="400.4356" y1="339.4512" y2="337.5932"/>
    <line x1="400.3832" x2="399.6285" y1="338.4106" y2="339.6492"/>
    <line x1="399.9535" x2="400.3309" y1="339.8472" y2="339.2279"/>
    <line x1="363.1155" x2="344.1508" y1="347.6067" y2="296.6038"/>
    <line x1="343.8153" x2="372.2624" y1="296.7286" y2="373.2329"/>
    <line x1="362.4447" x2="343.4799" y1="347.8561" y2="296.8533"/>
    <line x1="343.1445" x2="352.6269" y1="296.978" y2="322.4794"/>
    <line x1="353.9686" x2="344.4862" y1="321.9805" y2="296.4791"/>
    <polygon points="342.8091,297.1027 372.2624,373.2329 344.8216,296.3544"/>
    <line x1="391.5588" x2="369.4247" y1="425.5587" y2="507.3345"/>
    <line x1="369.8176" x2="384.5737" y1="507.4409" y2="452.9237"/>
    <line x1="383.7878" x2="369.0317" y1="452.711" y2="507.2282"/>
    <line x1="368.6387" x2="376.0167" y1="507.1218" y2="479.8632"/>
    <line x1="377.5887" x2="370.2106" y1="480.2887" y2="507.5473"/>
    <polygon points="370.6036,507.6536 391.5588,425.5587 368.2457,507.0154"/>
    <line x1="349.4154" x2="198.0472" y1="454.3382" y2="455.3793"/>
    <line x1="198.0447" x2="319.1393" y1="455.019" y2="454.1861"/>
    <line x1="319.1442" x2="198.0497" y1="454.9067" y2="455.7396"/>
    <line x1="198.0522" x2="288.8731" y1="456.0999" y2="455.4753"/>
    <line x1="288.8632" x2="198.0422" y1="454.034" y2="454.6587"/>
    <line x1="198.0398" x2="258.587" y1="454.2984" y2="453.8819"/>
    <line x1="258.6019" x2="198.0546" y1="456.0438" y2="456.4602"/>
    <line x1="198.0571" x2="228.3307" y1="456.8205" y2="456.6123"/>
    <line x1="228.3109" x2="198.0373" y1="453.7298" y2="453.938"/>
    <polygon points="198.0348,453.5777 198.0596,457.1808 349.4154,454.3382"/>
    <line x1="195.104" x2="194.7175" y1="465.3823" y2="465.4317"/>
    <line x1="194.3787" x2="195.1518" y1="465.8547" y2="465.7558"/>
    <line x1="195.1996" x2="194.04" y1="466.1294" y2="466.2778"/>
    <line x1="193.7013" x2="195.2474" y1="466.7008" y2="466.503"/>
    <line x1="195.2952" x2="193.3625" y1="466.8766" y2="467.1238"/>
    <line x1="193.0238" x2="195.343" y1="467.5469" y2="467.2502"/>
    <line x1="195.3908" x2="192.685" y1="467.6238" y2="467.9699"/>
    <line x1="192.3463" x2="195.4386" y1="468.3929" y2="467.9973"/>
    <line x1="195.4864" x2="192.0075" y1="468.3709" y2="468.816"/>
    <line x1="191.6688" x2="195.5342" y1="469.239" y2="468.7445"/>
    <line x1="195.582" x2="191.3301" y1="469.1181" y2="469.662"/>
    <polygon points="191.1607,469.8736 196.1555,473.6011 195.0562,465.0087"/>
    <line x1="191.3779" x2="195.6298" y1="470.0356" y2="469.4917"/>
    <line x1="195.6776" x2="191.8122" y1="469.8653" y2="470.3598"/>
    <line x1="192.2465" x2="195.7254" y1="470.6839" y2="470.2388"/>
    <line x1="195.7731" x2="192.6808" y1="470.6124" y2="471.008"/>
    <line x1="193.1152" x2="195.8209" y1="471.3322" y2="470.986"/>
    <line x1="195.8687" x2="193.5495" y1="471.3596" y2="471.6563"/>
    <line x1="193.9838" x2="195.9165" y1="471.9804" y2="471.7332"/>
    <line x1="195.9643" x2="194.4182" y1="472.1067" y2="472.3046"/>
    <polygon points="194.6288,472.2911 201.6057,470.6449 208.1215,467.6564 213.9209,463.4428 218.7765,458.1693 222.498,452.0425 224.9395,445.3026 225.9845,438.5912 225.7076,431.428 224.025,424.4598 221.0026,417.9597 217.0101,412.4646 211.762,407.5816 205.6547,403.8282 198.9276,401.3515 191.8445,400.2487 184.6829,400.5629 178.0804,402.1572 171.5645,405.1457 165.7652,409.3592 160.9096,414.6328 157.3531,420.4196 154.8414,427.1336 153.7016,434.2109 153.9784,441.374 155.661,448.3422 158.4927,454.5161 162.6759,460.3374 167.9241,465.2205 174.0313,468.9739 180.7584,471.4506 187.8415,472.5534"/>
    <line x1="194.8525" x2="196.0121" y1="472.6287" y2="472.4803"/>
    <line x1="196.0599" x2="195.2868" y1="472.8539" y2="472.9528"/>
    <line x1="195.7212" x2="196.1077" y1="473.2769" y2="473.2275"/>
    <line x1="177.771" x2="187.115" y1="488.7845" y2="617.2646"/>
    <line x1="186.7419" x2="177.3979" y1="617.2917" y2="488.8116"/>
    <line x1="178.8937" x2="186.3689" y1="514.5348" y2="617.3189"/>
    <line x1="185.9958" x2="180.3895" y1="617.346" y2="540.2579"/>
    <line x1="182.2546" x2="187.861" y1="540.1223" y2="617.2103"/>
    <line x1="188.2341" x2="184.4965" y1="617.1832" y2="565.7912"/>
    <line x1="181.8852" x2="185.6228" y1="565.9811" y2="617.3731"/>
    <line x1="185.2498" x2="183.381" y1="617.4003" y2="591.7042"/>
    <line x1="186.7383" x2="188.6071" y1="591.4601" y2="617.1561"/>
    <polygon points="188.9802,617.129 176.6501,475.95 184.8767,617.4274"/>
    <line x1="187.488" x2="180.0128" y1="617.2375" y2="514.4534"/>
    <line x1="185.4273" x2="139.487" y1="528.5099" y2="672.4717"/>
    <line x1="139.128" x2="179.3257" y1="672.3571" y2="546.3906"/>
    <line x1="180.4028" x2="140.205" y1="546.7343" y2="672.7008"/>
    <line x1="139.846" x2="185.7863" y1="672.5863" y2="528.6245"/>
    <polygon points="153.9795,523.1672 145.6166,523.201 151.6604,528.9813"/>
    <line x1="153.8431" x2="152.9957" y1="523.5092" y2="523.1712"/>
    <line x1="152.0118" x2="153.7067" y1="523.1752" y2="523.8512"/>
    <line x1="153.5703" x2="151.0279" y1="524.1932" y2="523.1791"/>
    <line x1="150.0441" x2="153.4339" y1="523.1831" y2="524.5352"/>
    <line x1="153.2975" x2="149.0602" y1="524.8772" y2="523.1871"/>
    <line x1="148.0763" x2="153.161" y1="523.1911" y2="525.2192"/>
    <line x1="153.0246" x2="147.0924" y1="525.5612" y2="523.1951"/>
    <line x1="146.1086" x2="152.8882" y1="523.1991" y2="525.9033"/>
    <line x1="152.7518" x2="145.9722" y1="526.2453" y2="523.5411"/>
    <line x1="146.6832" x2="152.6154" y1="524.2211" y2="526.5873"/>
    <line x1="152.4789" x2="147.3942" y1="526.9293" y2="524.9011"/>
    <line x1="148.1053" x2="152.3425" y1="525.5812" y2="527.2713"/>
    <line x1="152.2061" x2="148.8163" y1="527.6133" y2="526.2612"/>
    <line x1="149.5273" x2="152.0697" y1="526.9412" y2="527.9553"/>
    <line x1="151.9333" x2="150.2384" y1="528.2973" y2="527.6213"/>
    <line x1="150.9494" x2="151.7969" y1="528.3013" y2="528.6393"/>
    <line x1="173.2241" x2="138.7689" y1="564.2712" y2="672.2426"/>
    <line x1="138.4099" x2="167.1226" y1="672.128" y2="582.1519"/>
    <line x1="169.6358" x2="140.9231" y1="582.9539" y2="672.93"/>
    <line x1="141.2821" x2="164.2523" y1="673.0446" y2="601.0637"/>
    <line x1="161.021" x2="138.0509" y1="600.0325" y2="672.0134"/>
    <line x1="137.6918" x2="154.9195" y1="671.8988" y2="617.9132"/>
    <line x1="158.8688" x2="141.6412" y1="619.1735" y2="673.1591"/>
    <line x1="142.0002" x2="153.4853" y1="673.2737" y2="637.2833"/>
    <line x1="148.8179" x2="137.3328" y1="635.7938" y2="671.7843"/>
    <line x1="136.9738" x2="142.7163" y1="671.6697" y2="653.6745"/>
    <line x1="148.1018" x2="142.3592" y1="655.393" y2="673.3883"/>
    <polygon points="142.7182,673.5028 188.4781,519.5696 136.6148,671.5551"/>
    <line x1="140.5641" x2="175.0193" y1="672.8154" y2="564.8441"/>
    <line x1="244.8643" x2="245.3067" y1="564.5291" y2="564.7416"/>
    <line x1="245.91" x2="245.0253" y1="564.6189" y2="564.1939"/>
    <line x1="245.1863" x2="246.5134" y1="563.8588" y2="564.4962"/>
    <line x1="247.1167" x2="245.3473" y1="564.3735" y2="563.5236"/>
    <line x1="245.5083" x2="247.7201" y1="563.1884" y2="564.2508"/>
    <line x1="248.3234" x2="245.6693" y1="564.1281" y2="562.8532"/>
    <line x1="245.8303" x2="248.9268" y1="562.5181" y2="564.0054"/>
    <line x1="249.5301" x2="245.9913" y1="563.8827" y2="562.1829"/>
    <line x1="246.1523" x2="250.1335" y1="561.8477" y2="563.76"/>
    <line x1="250.2945" x2="246.3132" y1="563.4248" y2="561.5125"/>
    <line x1="246.4742" x2="250.0131" y1="561.1774" y2="562.8772"/>
    <line x1="249.7317" x2="246.6352" y1="562.3295" y2="560.8422"/>
    <line x1="246.7962" x2="249.4504" y1="560.507" y2="561.7819"/>
    <line x1="249.169" x2="246.9572" y1="561.2342" y2="560.1719"/>
    <line x1="247.1182" x2="248.8876" y1="559.8367" y2="560.6866"/>
    <line x1="248.6063" x2="247.2792" y1="560.1389" y2="559.5015"/>
    <line x1="247.4402" x2="248.3249" y1="559.1663" y2="559.5913"/>
    <line x1="248.0435" x2="247.6012" y1="559.0436" y2="558.8312"/>
    <polygon points="247.7622,558.496 244.7033,564.8643 250.4351,563.6986"/>
    <line x1="287.7795" x2="288.9288" y1="445.6707" y2="445.9471"/>
    <line x1="289.0154" x2="286.7169" y1="445.5869" y2="445.0339"/>
    <line x1="285.6543" x2="289.1021" y1="444.3972" y2="445.2266"/>
    <line x1="289.1887" x2="284.5917" y1="444.8663" y2="443.7605"/>
    <line x1="283.529" x2="289.2754" y1="443.1238" y2="444.5061"/>
    <line x1="289.3621" x2="282.4664" y1="444.1458" y2="442.4871"/>
    <line x1="281.4038" x2="289.4487" y1="441.8503" y2="443.7855"/>
    <line x1="289.5354" x2="280.3412" y1="443.4253" y2="441.2136"/>
    <line x1="279.2786" x2="289.622" y1="440.5769" y2="443.065"/>
    <line x1="289.7087" x2="278.216" y1="442.7047" y2="439.9402"/>
    <line x1="278.3027" x2="289.7954" y1="439.5799" y2="442.3445"/>
    <line x1="289.882" x2="279.5386" y1="441.9842" y2="439.4961"/>
    <line x1="280.7745" x2="289.9687" y1="439.4123" y2="441.6239"/>
    <line x1="290.0553" x2="282.0105" y1="441.2637" y2="439.3285"/>
    <line x1="283.2464" x2="290.142" y1="439.2447" y2="440.9034"/>
    <line x1="290.2287" x2="284.4823" y1="440.5431" y2="439.1609"/>
    <line x1="285.7182" x2="290.3153" y1="439.0771" y2="440.1829"/>
    <line x1="290.402" x2="286.9542" y1="439.8226" y2="438.9932"/>
    <line x1="288.1901" x2="290.4887" y1="438.9094" y2="439.4623"/>
    <line x1="290.5753" x2="289.426" y1="439.1021" y2="438.8256"/>
    <polygon points="290.662,438.7418 277.6847,439.6218 288.8421,446.3074"/>
    <line x1="287.3677" x2="278.9603" y1="433.0925" y2="435.1188"/>
    <line x1="278.871" x2="289.3803" y1="434.7485" y2="432.2157"/>
    <line x1="291.3929" x2="278.7818" y1="431.3388" y2="434.3782"/>
    <line x1="278.6925" x2="293.4055" y1="434.0079" y2="430.4619"/>
    <line x1="293.1377" x2="278.4248" y1="429.3511" y2="432.8971"/>
    <line x1="278.3355" x2="290.9466" y1="432.5268" y2="429.4873"/>
    <line x1="288.7556" x2="278.2463" y1="429.6236" y2="432.1565"/>
    <line x1="278.157" x2="286.5645" y1="431.7862" y2="429.7599"/>
    <line x1="284.3734" x2="278.0678" y1="429.8962" y2="431.4159"/>
    <line x1="277.9786" x2="282.1823" y1="431.0456" y2="430.0324"/>
    <line x1="279.9912" x2="277.8893" y1="430.1687" y2="430.6753"/>
    <line x1="278.514" x2="295.3288" y1="433.2673" y2="429.2148"/>
    <line x1="295.4181" x2="278.6033" y1="429.5851" y2="433.6376"/>
    <line x1="279.0495" x2="285.3551" y1="435.4891" y2="433.9694"/>
    <line x1="283.3425" x2="279.1387" y1="434.8463" y2="435.8594"/>
    <line x1="279.228" x2="281.3298" y1="436.2297" y2="435.7231"/>
    <polygon points="279.3172,436.6 296.4244,429.1466 277.8001,430.305"/>
    <polygon points="404.6657,620.6305 410.8449,622.3703 417.1673,623.4821 423.5693,623.9546 429.6098,623.8111 435.9821,623.035 441.8804,621.7245 447.9819,619.7292 453.8526,617.1323 459.1143,614.1622 464.3711,610.4777 469.2322,606.285 473.4019,601.9123 477.359,596.8575 480.6031,591.7602 483.3518,586.3795 485.7021,580.4058 487.442,574.2266 488.506,568.2789 489.0163,561.8798 488.8828,555.4617 488.1067,549.0894 486.7962,543.1911 484.8008,537.0896 482.373,531.5567 479.434,526.2776 475.7806,520.9991 471.6166,516.1134 466.9839,511.6696 461.9292,507.7124 456.8318,504.4684 451.1065,501.5649 445.119,499.2499 438.9297,497.5466 432.9758,496.5177 426.9514,496.0552 420.5334,496.1887 414.161,496.9648 408.2627,498.2753 402.1613,500.2707 396.6284,502.6985 391.0288,505.8376 386.0708,509.2909 381.185,513.4549 376.7412,518.0876 372.7841,523.1423 369.54,528.2397 366.6366,533.965 364.441,539.5941 362.7862,545.4052 361.6371,551.7209 361.1268,558.1201 361.2603,564.5381 362.0364,570.9105 363.3469,576.8087 365.3423,582.9102 367.7701,588.4431 370.7092,593.7222 374.3625,599.0007 378.5265,603.8864 383.1592,608.3302 388.2139,612.2874 393.3113,615.5314 398.692,618.2801"/>
    <polygon points="372.4533,665.8749 378.2956,663.2303 383.4755,659.4496 387.5503,654.9954 390.6935,649.8413 392.7878,644.1793 393.7772,637.8432 393.5089,631.8122 392.0869,625.9452 389.5642,620.4607 386.0348,615.563 381.6301,611.4347 376.5143,608.2295 370.5132,605.9685 364.5544,605.001 358.5206,605.1964 352.2791,606.6693 346.7946,609.192 341.897,612.7215 337.5398,617.4269 334.3967,622.581 332.3024,628.243 331.3349,634.2019 331.5304,640.2356 332.8814,646.1194 335.526,651.9616 339.3066,657.1416 343.7608,661.2164 348.915,664.3595 354.577,666.4538 360.5358,667.4213 366.5696,667.2259"/>
    <line x1="344.9221" x2="339.6506" y1="701.9903" y2="707.1478"/>
    <line x1="339.3872" x2="343.9057" y1="706.8786" y2="702.4579"/>
    <line x1="342.8893" x2="339.1239" y1="702.9256" y2="706.6095"/>
    <line x1="338.8606" x2="341.8729" y1="706.3404" y2="703.3932"/>
    <line x1="340.8565" x2="338.5973" y1="703.8609" y2="706.0712"/>
    <line x1="338.334" x2="339.8401" y1="705.8021" y2="704.3285"/>
    <line x1="338.8237" x2="338.0706" y1="704.7962" y2="705.5329"/>
    <polygon points="337.8073,705.2638 341.7571,709.3009 345.4303,701.7565"/>
    <line x1="339.9139" x2="345.1854" y1="707.4169" y2="702.2594"/>
    <line x1="344.6956" x2="340.1772" y1="703.2654" y2="707.6861"/>
    <line x1="340.4405" x2="344.2059" y1="707.9552" y2="704.2713"/>
    <line x1="343.7161" x2="340.7038" y1="705.2772" y2="708.2244"/>
    <line x1="340.9672" x2="343.2264" y1="708.4935" y2="706.2832"/>
    <line x1="342.7366" x2="341.2305" y1="707.2891" y2="708.7626"/>
    <line x1="341.4938" x2="342.2469" y1="709.0318" y2="708.295"/>
    <line x1="371.4492" x2="370.5722" y1="776.3226" y2="803.9154"/>
    <line x1="370.1943" x2="371.0086" y1="803.9034" y2="778.2815"/>
    <line x1="371.7644" x2="370.9501" y1="778.3055" y2="803.9275"/>
    <line x1="371.328" x2="372.0797" y1="803.9395" y2="780.2884"/>
    <line x1="370.5681" x2="369.8164" y1="780.2404" y2="803.8914"/>
    <line x1="369.4385" x2="370.1276" y1="803.8794" y2="782.1993"/>
    <line x1="369.687" x2="369.0606" y1="784.1582" y2="803.8674"/>
    <line x1="368.6827" x2="369.2465" y1="803.8554" y2="786.1171"/>
    <line x1="368.806" x2="368.3048" y1="788.076" y2="803.8434"/>
    <line x1="367.9269" x2="368.3654" y1="803.8314" y2="790.0349"/>
    <line x1="367.9249" x2="367.549" y1="791.9939" y2="803.8194"/>
    <line x1="367.1712" x2="367.4844" y1="803.8074" y2="793.9528"/>
    <line x1="367.0438" x2="366.7933" y1="795.9117" y2="803.7953"/>
    <line x1="366.4154" x2="366.6033" y1="803.7833" y2="797.8706"/>
    <line x1="366.1628" x2="366.0375" y1="799.8295" y2="803.7713"/>
    <line x1="365.6596" x2="365.7222" y1="803.7593" y2="801.7884"/>
    <polygon points="365.2817,803.7473 375.8627,804.0836 371.4492,776.3226"/>
    <line x1="371.7059" x2="372.3949" y1="803.9515" y2="782.2714"/>
    <line x1="372.7102" x2="372.0838" y1="784.2543" y2="803.9635"/>
    <line x1="372.4617" x2="373.0254" y1="803.9755" y2="786.2372"/>
    <line x1="373.3407" x2="372.8396" y1="788.2202" y2="803.9875"/>
    <line x1="373.2175" x2="373.6559" y1="803.9995" y2="790.2031"/>
    <line x1="373.9712" x2="373.5954" y1="792.186" y2="804.0115"/>
    <line x1="373.9732" x2="374.2864" y1="804.0235" y2="794.1689"/>
    <line x1="374.6017" x2="374.3511" y1="796.1519" y2="804.0355"/>
    <line x1="374.729" x2="374.917" y1="804.0476" y2="798.1348"/>
    <line x1="375.2322" x2="375.1069" y1="800.1177" y2="804.0596"/>
    <line x1="375.4848" x2="375.5475" y1="804.0716" y2="802.1007"/>
    <polygon points="356.0808,791.9589 260.7093,775.4097 260.3611,777.5598"/>
    <line x1="356.0808" x2="260.5352" y1="791.9589" y2="776.4848"/>
    <line x1="260.5932" x2="324.2903" y1="776.1264" y2="786.4425"/>
    <line x1="324.1742" x2="260.4772" y1="787.1592" y2="776.8431"/>
    <line x1="260.4191" x2="292.2677" y1="777.2015" y2="782.3595"/>
    <line x1="292.4998" x2="260.6513" y1="780.9261" y2="775.7681"/>
    <line x1="410.1066" x2="423.0418" y1="824.7873" y2="804.1912"/>
    <line x1="424.9224" x2="411.9872" y1="805.3723" y2="825.9684"/>
    <line x1="411.6738" x2="437.5442" y1="825.7716" y2="784.5794"/>
    <line x1="436.2904" x2="410.42" y1="783.792" y2="824.9842"/>
    <line x1="410.7335" x2="449.5391" y1="825.181" y2="763.3927"/>
    <line x1="450.1659" x2="411.3603" y1="763.7864" y2="825.5747"/>
    <line x1="411.0469" x2="462.7877" y1="825.3779" y2="742.9934"/>
    <polygon points="462.7877,742.9934 409.7932,824.5905 412.3006,826.1653"/>
    <polygon points="498.7017,706.112 509.2979,697.0034 501.0336,692.3349"/>
    <line x1="499.1256" x2="505.3311" y1="705.7477" y2="694.7625"/>
    <line x1="505.0005" x2="498.795" y1="694.5758" y2="705.5609"/>
    <line x1="498.9816" x2="504.6699" y1="704.4587" y2="694.389"/>
    <line x1="504.3393" x2="499.1681" y1="694.2023" y2="703.3566"/>
    <line x1="499.3547" x2="504.0088" y1="702.2544" y2="694.0156"/>
    <line x1="503.6782" x2="499.5412" y1="693.8288" y2="701.1522"/>
    <line x1="499.7278" x2="503.3476" y1="700.0501" y2="693.6421"/>
    <line x1="503.017" x2="499.9143" y1="693.4553" y2="698.9479"/>
    <line x1="500.1009" x2="502.6865" y1="697.8457" y2="693.2686"/>
    <line x1="502.3559" x2="500.2874" y1="693.0819" y2="696.7436"/>
    <line x1="500.474" x2="502.0253" y1="695.6414" y2="692.8951"/>
    <line x1="501.6948" x2="500.6605" y1="692.7084" y2="694.5392"/>
    <line x1="500.8471" x2="501.3642" y1="693.4371" y2="692.5216"/>
    <line x1="505.6616" x2="499.9733" y1="694.9493" y2="705.019"/>
    <line x1="500.821" x2="505.9922" y1="704.2903" y2="695.136"/>
    <line x1="506.3228" x2="501.6687" y1="695.3227" y2="703.5616"/>
    <line x1="502.5164" x2="506.6533" y1="702.8329" y2="695.5095"/>
    <line x1="506.9839" x2="503.3641" y1="695.6962" y2="702.1042"/>
    <line x1="504.2118" x2="507.3145" y1="701.3755" y2="695.883"/>
    <line x1="507.6451" x2="505.0594" y1="696.0697" y2="700.6468"/>
    <line x1="505.9071" x2="507.9756" y1="699.9181" y2="696.2564"/>
    <line x1="508.3062" x2="506.7548" y1="696.4432" y2="699.1895"/>
    <line x1="507.6025" x2="508.6368" y1="698.4608" y2="696.6299"/>
    <line x1="508.9673" x2="508.4502" y1="696.8167" y2="697.7321"/>
    <line x1="510.0544" x2="614.7466" y1="691.1041" y2="696.5191"/>
    <line x1="582.4435" x2="609.16" y1="702.1159" y2="729.7678"/>
    <polygon points="609.4982,729.4411 582.4435,702.1159 608.8218,730.0945"/>
    <polygon points="576.0637,723.4125 581.6573,722.5168 587.1346,721.0709 592.4415,719.089 597.5258,716.5908 602.3373,713.6007 606.54,710.3922 610.6925,706.539 614.4425,702.293 617.7531,697.6961 620.4175,693.129 622.79,687.9848 624.6408,682.6308 625.9516,677.1197 626.6763,671.8821 626.9113,666.222 626.584,660.5666 625.6975,654.9715 624.2607,649.4919 622.2876,644.1817 619.7978,639.0933 616.8157,634.2769 613.6142,630.0688 609.7678,625.9099 605.528,622.1529 600.9366,618.8348 596.0388,615.9882 591.2337,613.7817 585.8828,611.9221 580.3738,610.6022 574.7611,609.835 569.1,609.6281 563.4462,609.9835 558.2252,610.8196 552.7432,612.2473 547.4298,614.2116 542.6689,616.512 537.8279,619.4541 533.3025,622.8617 529.1373,626.7012 525.3733,630.9347 522.0475,635.5207 519.1929,640.4137 516.8375,645.5657 515.0044,650.9258 513.7119,656.4413 512.9726,662.0577 512.7938,667.7198 513.1773,673.3717 514.1193,678.9577 515.4942,684.0633 517.4848,689.3669 519.9915,694.447 522.9895,699.2536 526.205,703.4511 530.0651,707.5972 534.3173,711.3401 538.6028,714.4372 543.4912,717.3 548.289,719.5223 553.6337,721.3997 559.1383,722.7378 564.7484,723.5235 570.4088,723.7492"/>
    <polygon points="572.4511,708.521 453.7093,690.047 453.3501,692.5251"/>
    <line x1="555.488" x2="453.5554" y1="705.8819" y2="691.1091"/>
    <line x1="453.6067" x2="521.5618" y1="690.7551" y2="700.6036"/>
    <line x1="521.4078" x2="453.4527" y1="701.6657" y2="691.8171"/>
    <line x1="453.504" x2="555.4367" y1="691.4631" y2="706.2359"/>
    <line x1="553.1854" x2="557.1784" y1="730.1093" y2="731.1647"/>
    <line x1="557.0827" x2="551.0933" y1="731.5265" y2="729.9434"/>
    <line x1="549.0012" x2="556.9871" y1="729.7776" y2="731.8884"/>
    <line x1="556.8915" x2="546.9091" y1="732.2502" y2="729.6118"/>
    <line x1="544.8169" x2="556.7958" y1="729.4459" y2="732.6121"/>
    <line x1="556.7002" x2="542.7248" y1="732.9739" y2="729.2801"/>
    <line x1="540.6327" x2="556.6045" y1="729.1142" y2="733.3358"/>
    <line x1="556.5089" x2="538.5406" y1="733.6977" y2="728.9484"/>
    <line x1="536.4485" x2="556.4132" y1="728.7825" y2="734.0595"/>
    <line x1="556.3176" x2="534.3563" y1="734.4214" y2="728.6167"/>
    <line x1="532.2642" x2="556.222" y1="728.4509" y2="734.7832"/>
    <line x1="556.1263" x2="530.1721" y1="735.1451" y2="728.285"/>
    <line x1="529.7895" x2="555.7437" y1="729.7324" y2="736.5925"/>
    <line x1="555.6481" x2="531.6904" y1="736.9543" y2="730.622"/>
    <line x1="533.5912" x2="555.5525" y1="731.5115" y2="737.3162"/>
    <line x1="555.4568" x2="535.492" y1="737.678" y2="732.4011"/>
    <line x1="537.3929" x2="555.3612" y1="733.2906" y2="738.0399"/>
    <line x1="555.2655" x2="539.2937" y1="738.4018" y2="734.1802"/>
    <line x1="541.1945" x2="555.1699" y1="735.0697" y2="738.7636"/>
    <line x1="555.0742" x2="543.0954" y1="739.1255" y2="735.9593"/>
    <line x1="544.9962" x2="554.9786" y1="736.8488" y2="739.4873"/>
    <line x1="554.883" x2="546.897" y1="739.8492" y2="737.7384"/>
    <line x1="548.7979" x2="554.7873" y1="738.6279" y2="740.211"/>
    <line x1="554.6917" x2="550.6987" y1="740.5729" y2="739.5175"/>
    <line x1="552.5995" x2="554.596" y1="740.407" y2="740.9347"/>
    <line x1="555.8394" x2="527.8887" y1="736.2306" y2="728.8429"/>
    <line x1="528.08" x2="556.0307" y1="728.1192" y2="735.5069"/>
    <line x1="555.935" x2="525.9879" y1="735.8688" y2="727.9533"/>
    <polygon points="525.9879,727.9533 554.5004,741.2966 557.3697,730.441"/>
    <line x1="542.7105" x2="522.1147" y1="749.666" y2="762.2828"/>
    <line x1="522.3313" x2="563.5229" y1="762.6363" y2="737.4028"/>
    <line x1="557.274" x2="555.2775" y1="730.8028" y2="730.2751"/>
    <line x1="543.1437" x2="522.5479" y1="750.3731" y2="762.9899"/>
    <polygon points="522.7644,763.3434 563.5229,737.4028 521.8981,761.9292"/>
    <line x1="530.3319" x2="655.3615" y1="694.417" y2="583.2068"/>
    <line x1="655.6079" x2="548.4396" y1="583.4838" y2="678.8068"/>
    <line x1="547.7006" x2="654.8688" y1="677.9758" y2="582.6529"/>
    <line x1="655.1152" x2="530.0855" y1="582.9298" y2="694.14"/>
    <line x1="487.6355" x2="453.658" y1="695.3253" y2="690.4011"/>
    <line x1="453.4014" x2="487.379" y1="692.1711" y2="697.0954"/>
    <line x1="565.3156" x2="654.6225" y1="661.8117" y2="582.3759"/>
    <line x1="654.3761" x2="582.9306" y1="582.0989" y2="645.6476"/>
    <line x1="584.6551" x2="656.1006" y1="647.5864" y2="584.0377"/>
    <line x1="655.8542" x2="566.5474" y1="583.7608" y2="663.1966"/>
    <line x1="602.7628" x2="656.347" y1="631.9762" y2="584.3147"/>
    <line x1="656.5933" x2="620.8706" y1="584.5917" y2="616.366"/>
    <line x1="618.1606" x2="653.8834" y1="613.3193" y2="581.545"/>
    <line x1="653.637" x2="635.7756" y1="581.268" y2="597.1552"/>
    <line x1="638.9783" x2="656.8397" y1="600.7558" y2="584.8686"/>
    <polygon points="657.086,585.1456 653.3907,580.9911 521.278,702.222"/>
    <line x1="654.1297" x2="600.5456" y1="581.822" y2="629.4834"/>
    <polygon points="529.403,619.9844 535.1244,621.8795 540.733,622.5758 546.3721,622.2003 552.1922,620.6343 557.2584,618.1293 562.0362,614.4552 565.9766,609.8946 568.7662,604.9794 570.6614,599.258 571.3577,593.6494 570.9822,588.0103 569.4162,582.1902 566.7106,576.8044 563.2371,572.3462 558.6765,568.4058 553.7613,565.6162 548.0399,563.721 542.4313,563.0247 536.4201,563.4632 530.972,564.9662 525.9059,567.4712 521.1281,571.1453 517.4062,575.3983 514.398,580.6211 512.5029,586.3425 511.8066,591.9511 512.1821,597.5902 513.7481,603.4104 516.4537,608.7961 519.9272,613.2543 524.1802,616.9762"/>
    <line x1="475.3952" x2="491.483" y1="574.2613" y2="547.456"/>
    <line x1="491.1829" x2="459.0074" y1="547.2759" y2="600.8864"/>
    <line x1="458.7073" x2="490.8828" y1="600.7063" y2="547.0958"/>
    <line x1="490.5827" x2="474.495" y1="546.9157" y2="573.721"/>
    <polygon points="490.2826,546.7356 450.8134,614.199 491.7831,547.6361"/>
    <line x1="596.4542" x2="601.8767" y1="452.6255" y2="447.3244"/>
    <line x1="601.6088" x2="596.9609" y1="447.0503" y2="451.5941"/>
    <line x1="597.4676" x2="601.3409" y1="450.5628" y2="446.7763"/>
    <line x1="601.073" x2="597.9744" y1="446.5022" y2="449.5314"/>
    <line x1="598.4811" x2="600.8051" y1="448.5" y2="446.2281"/>
    <line x1="600.5371" x2="598.9878" y1="445.9541" y2="447.4687"/>
    <line x1="599.4946" x2="600.2692" y1="446.4373" y2="445.68"/>
    <line x1="602.1447" x2="596.7221" y1="447.5984" y2="452.8995"/>
    <line x1="597.7647" x2="602.4126" y1="452.4163" y2="447.8725"/>
    <line x1="602.6805" x2="598.8072" y1="448.1466" y2="451.9331"/>
    <line x1="599.8498" x2="602.9484" y1="451.4498" y2="448.4206"/>
    <line x1="603.2164" x2="600.8924" y1="448.6947" y2="450.9666"/>
    <line x1="601.935" x2="603.4843" y1="450.4833" y2="448.9687"/>
    <line x1="603.7522" x2="602.9775" y1="449.2428" y2="450.0001"/>
    <polygon points="604.0201,449.5169 600.0013,445.4059 596.2008,453.1412"/>
  </g>
</svg>
