<?xml version="1.0" encoding="utf-8" ?>
<svg xmlns="http://www.w3.org/2000/svg" xmlns:cc="http://creativecommons.org/ns" xmlns:dc="http://purl.org/dc/elements/1.1/" xmlns:ev="http://www.w3.org/2001/xml-events" xmlns:inkscape="http://www.inkscape.org/namespaces/inkscape" xmlns:rdf="http://www.w3.org/1999/02/22-rdf-syntax-ns" xmlns:sodipodi="http://sodipodi.sourceforge.net/DTD/sodipodi-0.dtd" xmlns:xlink="http://www.w3.org/1999/xlink" baseProfile="tiny" height="29.7cm" version="1.2" viewBox="0 0 793.7007874015749 1122.5196850393702" width="21.0cm">
  <metadata>
    <rdf:RDF>
      <cc:Work>
        <dc:format>image/svg+xml</dc:format>
        <dc:source>vsk save -s 93 -c C:\Users\marti\Documents\git\putti-plotter-plot\sixfeet\config\1.json C:\Users\marti\Documents\git\putti-plotter-plot\sixfeet\sketch_sixfeet.py</dc:source>
        <dc:date>2023-11-19T17:46:47.318869</dc:date>
      </cc:Work>
    </rdf:RDF>
  </metadata>
  <defs/>
  <g fill="none" id="layer1" inkscape:groupmode="layer" inkscape:label="1" stroke="#0000ff" style="display:inline">
    <polygon points="415.0686,329.0078 414.6504,324.1186 413.7464,319.2956 412.3655,314.5869 410.5214,310.0396 408.2328,305.699 405.5223,301.6085 402.6692,298.0901 399.2271,294.5929 395.7543,291.6845 391.7073,288.9095 387.4036,286.5523 382.8861,284.6364 378.1999,283.181 373.3918,282.2005 368.5099,281.7049 363.9802,281.6821 359.0935,282.1284 354.2758,283.0603 349.5751,284.4684 345.3806,286.1787 341.3616,288.2683 337.2452,290.9393 333.4161,294.0079 329.9123,297.4433 326.9972,300.9105 324.2144,304.9521 321.8489,309.2513 319.9243,313.7652 318.4599,318.4486 317.4703,323.2547 316.9867,327.7587 316.9337,332.6654 317.3197,337.1787 318.2052,342.0052 319.568,346.7191 321.3945,351.2735 323.6665,355.6229 326.1395,359.418 329.2007,363.2531 332.6294,366.7635 336.091,369.6853 340.1272,372.4758 344.4219,374.8496 348.932,376.7828 353.6126,378.2562 358.044,379.1954 362.9198,379.7473 367.8264,379.8098 372.7148,379.3822 377.1686,378.5562 381.8852,377.2025 386.4431,375.3847 390.7968,373.1211 394.9029,370.4343 398.7202,367.351 401.9547,364.1796 404.8831,360.7237 407.6814,356.6928 410.0634,352.4027 412.0053,347.8963 413.4877,343.2186 414.4354,338.789 414.9967,333.9142"/>
    <line x1="448.6663" x2="498.69" y1="347.4453" y2="276.8783"/>
    <line x1="498.3707" x2="460.8529" y1="276.6519" y2="329.5772"/>
    <line x1="462.4494" x2="499.9672" y1="330.7089" y2="277.7836"/>
    <line x1="500.2864" x2="475.2746" y1="278.01" y2="313.2935"/>
    <line x1="473.0395" x2="498.0514" y1="311.7091" y2="276.4256"/>
    <line x1="497.7321" x2="485.2262" y1="276.1992" y2="293.841"/>
    <line x1="488.0998" x2="500.6057" y1="295.8781" y2="278.2363"/>
    <line x1="499.6479" x2="449.6241" y1="277.5573" y2="348.1244"/>
    <line x1="436.7989" x2="499.3286" y1="365.5398" y2="277.3309"/>
    <line x1="499.0093" x2="436.4796" y1="277.1046" y2="365.3134"/>
    <polygon points="430.3863,374.2475 500.925,278.4626 497.4128,275.9729"/>
    <line x1="429.6568" x2="428.8947" y1="381.5661" y2="382.6386"/>
    <line x1="428.4275" x2="429.9518" y1="383.9206" y2="381.7757"/>
    <line x1="430.2468" x2="427.9603" y1="381.9854" y2="385.2027"/>
    <line x1="427.4932" x2="430.5418" y1="386.4848" y2="382.195"/>
    <line x1="430.8368" x2="427.026" y1="382.4046" y2="387.7669"/>
    <line x1="427.321" x2="431.1317" y1="387.9765" y2="382.6143"/>
    <line x1="431.4267" x2="428.3781" y1="382.8239" y2="387.1137"/>
    <line x1="429.4352" x2="431.7217" y1="386.2509" y2="383.0335"/>
    <line x1="432.0167" x2="430.4923" y1="383.2431" y2="385.388"/>
    <line x1="431.5495" x2="432.3116" y1="384.5252" y2="383.4528"/>
    <polygon points="426.7924,388.4079 432.6066,383.6624 429.3619,381.3565"/>
    <line x1="404.0074" x2="327.9849" y1="366.1199" y2="352.7686"/>
    <polygon points="333.3767,376.5279 177.9394,369.3188 171.6672,504.5559 327.1044,511.765"/>
    <line x1="300.0819" x2="100.0989" y1="364.2011" y2="385.798"/>
    <line x1="224.755" x2="232.5733" y1="371.1605" y2="387.6533"/>
    <line x1="233.5303" x2="225.712" y1="387.1996" y2="370.7069"/>
    <line x1="225.393" x2="241.0296" y1="370.8581" y2="403.8437"/>
    <line x1="240.7106" x2="225.074" y1="403.9949" y2="371.0093"/>
    <polygon points="244.7793,412.1657 226.031,370.5556 224.4359,371.3118"/>
    <line x1="272.208" x2="271.2138" y1="396.2432" y2="394.3624"/>
    <line x1="271.5381" x2="273.5264" y1="394.191" y2="397.9525"/>
    <line x1="274.8449" x2="271.8624" y1="399.6618" y2="394.0196"/>
    <line x1="272.1867" x2="276.1633" y1="393.8482" y2="401.3711"/>
    <line x1="277.4818" x2="272.5111" y1="403.0803" y2="393.6767"/>
    <line x1="272.8354" x2="278.8002" y1="393.5053" y2="404.7896"/>
    <line x1="279.4488" x2="273.484" y1="404.4468" y2="393.1625"/>
    <line x1="273.8083" x2="278.779" y1="392.991" y2="402.3946"/>
    <line x1="278.1092" x2="274.1326" y1="400.3425" y2="392.8196"/>
    <line x1="274.4569" x2="277.4393" y1="392.6482" y2="398.2903"/>
    <line x1="276.7695" x2="274.7812" y1="396.2382" y2="392.4768"/>
    <line x1="275.1055" x2="276.0996" y1="392.3053" y2="394.1861"/>
    <line x1="273.1597" x2="280.1187" y1="393.3339" y2="406.4989"/>
    <polygon points="280.1187,406.4989 275.4298,392.1339 270.8895,394.5339"/>
    <polygon points="284.2043,366.7114 277.8953,369.2403 271.5293,372.5485 265.8337,376.2578 260.2339,380.7425 255.3698,385.4901 250.7508,390.9796 246.9045,396.5836 243.443,402.8676 240.6305,409.4676 238.5906,415.9512 237.1773,422.5997 236.3794,429.7294 236.3019,436.9033 236.894,443.6744 238.1281,450.3584 240.1148,457.2521 242.7841,463.9113 245.9183,469.9425 249.6126,475.6479 254.0824,481.2596 259.0935,486.3936 264.5952,490.9982 270.5317,495.0265 276.5025,498.2744 283.11,501.0694 289.599,503.0921 296.6243,504.5467 303.383,505.2669 310.557,505.3253 317.3266,504.7153 324.3746,503.3754 330.8957,501.4586 337.5478,498.7716 343.5707,495.6214 349.572,491.6903 354.8661,487.4274 359.7301,482.6798 364.3492,477.1904 368.1955,471.5863 371.6569,465.3023 374.3381,459.0565 376.5094,452.2187 377.9825,445.1973 378.7427,438.0634 378.798,431.2667 378.1542,424.1213 376.8847,417.444 374.8615,410.5609 372.3158,404.2586 368.9908,397.9014 365.0438,391.9105 360.7669,386.6278 356.0064,381.7763 350.5048,377.1718 344.8906,373.3404 338.5974,369.8955 332.3445,367.231 325.501,365.0778 318.4757,363.6232 311.717,362.9031 304.543,362.8446 297.7734,363.4546 290.7254,364.7946"/>
    <line x1="254.4735" x2="253.6666" y1="328.5965" y2="327.6107"/>
    <line x1="253.1482" x2="254.762" y1="326.3888" y2="328.3603"/>
    <line x1="255.0504" x2="252.6299" y1="328.1242" y2="325.1669"/>
    <line x1="252.1115" x2="255.3389" y1="323.945" y2="327.8881"/>
    <line x1="255.6274" x2="251.5931" y1="327.652" y2="322.7231"/>
    <line x1="251.0747" x2="255.9159" y1="321.5012" y2="327.4159"/>
    <line x1="256.2044" x2="250.5563" y1="327.1797" y2="320.2793"/>
    <line x1="250.0379" x2="256.4928" y1="319.0574" y2="326.9436"/>
    <line x1="256.7813" x2="249.5195" y1="326.7075" y2="317.8355"/>
    <line x1="250.385" x2="257.6467" y1="317.1271" y2="325.9992"/>
    <line x1="257.3583" x2="249.2896" y1="326.2353" y2="316.3774"/>
    <line x1="249.0011" x2="257.0698" y1="316.6136" y2="326.4714"/>
    <line x1="257.9352" x2="251.4803" y1="325.763" y2="317.8768"/>
    <line x1="252.5756" x2="258.2237" y1="318.6264" y2="325.5269"/>
    <line x1="258.5122" x2="253.671" y1="325.2908" y2="319.3761"/>
    <line x1="254.7663" x2="258.8007" y1="320.1258" y2="325.0547"/>
    <line x1="259.0891" x2="255.8617" y1="324.8186" y2="320.8754"/>
    <line x1="256.957" x2="259.3776" y1="321.6251" y2="324.5824"/>
    <line x1="259.6661" x2="258.0524" y1="324.3463" y2="322.3748"/>
    <line x1="259.1477" x2="259.9546" y1="323.1244" y2="324.1102"/>
    <polygon points="260.243,323.8741 248.7419,316.0026 254.185,328.8326"/>
    <polygon points="219.7256,301.6379 310.2524,577.7695 436.8681,536.2599 346.3413,260.1283"/>
    <line x1="342.3969" x2="346.4864" y1="270.6686" y2="316.8241"/>
    <polygon points="340.5034,469.1798 335.4477,473.1191 331.2718,477.9813 328.1411,483.5739 326.1795,489.6756 325.4715,495.6673 325.9568,502.0582 327.6976,508.2265 330.6251,513.9281 334.6234,518.9373 339.5342,523.0559 344.8161,525.9721 350.9178,527.9337 357.2871,528.6485 363.6718,528.0883 369.4687,526.4156 375.1703,523.4881 379.9077,519.752 384.0836,514.8898 387.2143,509.2971 389.1758,503.1954 389.8907,496.8261 389.3986,490.8129 387.6577,484.6445 384.9334,479.2612 380.9941,474.2055 376.1319,470.0296 370.5393,466.8989 364.8064,465.0188 358.4459,464.2293 352.055,464.7146 345.8867,466.4555"/>
    <polygon points="358.4073,519.1064 364.5093,522.0857 370.7088,523.7321 377.485,524.173 384.2136,523.2577 390.6258,521.0228 396.1602,517.7802 401.2447,513.2792 405.1348,508.1789 408.131,502.0852 409.8557,495.5173 410.2401,488.7377 409.3578,482.3842 407.1407,475.9659 403.6917,470.1165 399.1485,465.0697 394.016,461.2223 387.8974,458.277 381.3154,456.6071 374.5328,456.2794 368.187,457.2146 361.7873,459.4851 356.2709,462.7584 351.2115,467.2876 347.3499,472.4094 344.3876,478.5198 342.6995,485.0971 342.3528,491.8787 343.3615,498.5939 345.5231,504.6332 348.7811,510.1586 353.2962,515.2306"/>
    <polygon points="370.9143,572.5328 273.5176,666.9224 373.383,575.1486"/>
    <line x1="371.1612" x2="351.435" y1="572.7944" y2="591.4107"/>
    <line x1="353.4099" x2="373.1361" y1="593.5034" y2="574.887"/>
    <line x1="372.8893" x2="333.4368" y1="574.6254" y2="611.8581"/>
    <line x1="331.9556" x2="371.4081" y1="610.2886" y2="573.0559"/>
    <line x1="371.6549" x2="312.4763" y1="573.3175" y2="629.1665"/>
    <line x1="313.4637" x2="372.6424" y1="630.2129" y2="574.3639"/>
    <line x1="372.3955" x2="293.4907" y1="574.1023" y2="648.5676"/>
    <line x1="292.9969" x2="371.9018" y1="648.0444" y2="573.5791"/>
    <line x1="372.1487" x2="273.5176" y1="573.8407" y2="666.9224"/>
    <line x1="267.6689" x2="233.6102" y1="670.7767" y2="627.6183"/>
    <line x1="233.3085" x2="267.3672" y1="627.8564" y2="671.0148"/>
    <polygon points="276.0327,681.6854 234.2135,627.1422 232.7052,628.3325"/>
    <line x1="292.6848" x2="288.3707" y1="689.5926" y2="623.1069"/>
    <line x1="288.7421" x2="294.4942" y1="623.0828" y2="711.7304"/>
    <line x1="296.7227" x2="290.9706" y1="711.5858" y2="622.9382"/>
    <line x1="291.342" x2="295.6561" y1="622.9141" y2="689.3998"/>
    <polygon points="306.9112,687.9067 301.9933,685.0963 296.8241,682.7803 291.4532,680.981 285.9319,679.7158 280.3135,678.9966 274.6516,678.8305 269.0006,679.219 263.4147,680.1584 257.9475,681.6396 252.6514,683.6485 247.5771,686.1658 242.7735,689.1674 238.2864,692.6244 234.1591,696.5038 230.4309,700.7683 227.1378,705.3769 224.3113,710.2856 221.9785,715.4473 220.1617,720.8123 218.8784,726.3294 218.1409,731.9455 217.9563,737.6068 218.3263,743.259 219.2475,748.848 220.7108,754.32 222.7024,759.6226 225.2032,764.7051 228.4047,769.8287 231.8763,774.3044 235.7691,778.4191 240.0458,782.1333 244.6652,785.4113 249.5831,788.2218 254.7523,790.5378 260.1233,792.337 265.6445,793.6023 271.263,794.3214 276.9249,794.4875 282.5758,794.099 288.1617,793.1597 293.629,791.6784 298.9251,789.6695 303.9993,787.1522 308.803,784.1506 313.29,780.6936 317.4174,776.8142 321.1455,772.5498 324.4386,767.9411 327.2651,763.0324 329.598,757.8708 331.4147,752.5057 332.698,746.9887 333.4355,741.3725 333.6201,735.7112 333.2501,730.059 332.329,724.4701 330.8656,718.998 328.874,713.6954 326.3733,708.613 323.1718,703.4894 319.7001,699.0136 315.8073,694.899 311.5307,691.1848"/>
    <polygon points="310.3696,693.3936 305.769,690.0873 301.191,687.4404 296.0303,685.1029 290.6578,683.3048 285.5019,682.13 280.2575,681.4521 274.5945,681.2844 268.944,681.696 263.7337,682.5992 258.6333,683.9952 253.3432,686.0231 248.6166,688.3944 244.1377,691.2055 239.66,694.6765 235.8211,698.3132 232.3464,702.2994 229.2677,706.5989 226.613,711.1723 224.2667,716.329 222.4595,721.6985 221.2758,726.8524 220.5592,732.4723 220.4116,737.7583 220.7689,743.0342 221.6276,748.2521 223.0952,753.7241 224.9627,758.6714 227.4773,763.7483 230.2808,768.232 233.4992,772.4279 237.3743,776.5607 241.3546,780.0422 245.9665,783.3328 250.5534,785.964 255.3704,788.1458 260.3735,789.8583 265.8886,791.1546 271.1307,791.8503 276.793,792.0374 282.0696,791.6892 287.2889,790.8393 292.4034,789.4957 297.7139,787.522 302.795,785.0161 307.2835,782.2202 311.4849,779.009 315.6243,775.1409 319.347,770.8702 322.411,766.5603 325.0501,761.9779 327.2401,757.1646 328.9611,752.1645 330.2669,746.6516 330.9715,741.4107 331.1682,735.7487 330.829,730.4715 329.909,724.8813 328.5391,719.7737 326.5383,714.4734 324.0065,709.4051 321.1876,704.931 317.955,700.7461 314.338,696.8886"/>
    <polygon points="308.1154,695.7784 303.8086,692.7143 299.2136,690.1023 294.73,688.1051 289.7148,686.4363 284.9285,685.3489 280.0611,684.7166 274.7781,684.5509 269.5056,684.9212 264.6664,685.7416 259.9258,687.0137 254.979,688.8756 250.2463,691.229 246.0859,693.8332 242.1889,696.8173 238.3263,700.4253 235.0839,704.1101 231.9965,708.4002 229.3595,712.981 227.338,717.4536 225.7461,722.0966 224.5285,727.24 223.8381,732.4803 223.6754,737.3859 224.017,742.6603 224.8111,747.504 226.1717,752.6114 227.8924,757.2082 230.0379,761.6227 232.8016,766.1281 236.0075,770.3305 239.3514,773.9234 243.3131,777.4223 247.6088,780.5019 251.8582,782.9583 256.6706,785.144 261.3165,786.7274 266.4621,787.9357 271.7036,788.6166 276.6095,788.7704 281.5081,788.4621 286.7255,787.6164 291.8304,786.2465 296.4241,784.5175 301.1653,782.1813 305.3352,779.5921 309.243,776.6222 313.1186,773.0282 316.3744,769.3552 319.4773,765.0763 322.1308,760.5051 324.3077,755.6887 325.8828,751.04 327.0817,745.8922 327.7228,741.026 327.8981,735.7434 327.5808,730.8453 326.7257,725.6294 325.4622,720.8865 323.6092,715.9364 321.2644,711.1995 318.6677,707.0343 315.4467,702.8436 312.0897,699.2628"/>
    <polygon points="315.8147,702.6455 312.1946,698.7959 308.5023,695.5636 304.2077,692.4846 299.9612,690.0253 295.1533,687.8324 290.1494,686.1338 285.0002,684.9465 279.7577,684.2826 274.475,684.1488 269.2056,684.5465 264.3712,685.3882 259.2774,686.7948 254.6961,688.5532 250.2989,690.7315 245.8133,693.525 241.9187,696.5105 238.0562,700.1168 234.5755,704.0929 231.5119,708.3986 228.8965,712.9903 226.8923,717.4695 225.3149,722.1163 224.1092,727.2613 223.4264,732.5013 223.2737,737.7835 223.6524,743.0542 224.4767,747.8917 225.865,752.9904 227.7586,757.9239 230.1382,762.6421 232.7622,766.7888 236.0073,770.9594 239.3818,774.5222 243.3704,777.9885 247.3688,780.8334 251.6152,783.2928 256.4231,785.4856 261.427,787.1843 266.5763,788.3715 271.8188,789.0354 277.1014,789.1692 282.3708,788.7715 287.2053,787.9298 291.9401,786.6406 296.8803,784.7648 301.2775,782.5865 305.7632,779.7931 309.9454,776.563 313.5202,773.2013 317.0009,769.2252 320.0645,764.9195 322.6799,760.3278 324.6841,755.8485 326.3647,750.8385 327.4673,746.0568 328.15,740.8167 328.3028,735.5346 327.924,730.2638 327.0997,725.4263 325.8275,720.6869 323.9695,715.74 321.6238,711.0048 319.0297,706.8393"/>
    <polygon points="318.8142,699.8641 314.9238,695.7505 310.642,692.0461 306.3302,688.9905 301.4161,686.1783 296.5974,684.0085 291.2344,682.1933 285.7169,680.9229 280.1001,680.2099 274.4402,680.0615 269.1686,680.4338 263.5857,681.3761 258.1249,682.8714 252.8407,684.9047 248.1149,687.2699 243.3201,690.281 239.137,693.5106 235.0105,697.3872 231.2918,701.6567 228.0181,706.2762 225.3932,710.8629 223.0686,716.0255 221.3743,721.0313 220.0855,726.5445 219.3538,732.1589 219.18,737.4407 219.5412,743.091 220.4649,748.6771 221.942,754.1429 223.9576,759.4338 226.4917,764.4969 229.3022,768.9723 232.5178,773.1661 236.3806,777.3056 240.6377,781.0385 245.2462,784.3275 250.1603,787.1398 255.3307,789.4471 260.342,791.1247 265.8595,792.3952 271.4763,793.1082 277.1362,793.2565 282.4078,792.8843 287.9907,791.9419 293.0924,790.5632 298.39,788.5653 303.1315,786.2316 307.9463,783.2525 312.1508,780.051 316.3031,776.2019 320.0502,771.9574 323.3546,767.3598 326.01,762.7907 328.369,757.6437 330.2021,752.2868 331.4909,746.7736 332.2227,741.1592 332.3964,735.8773 332.0352,730.227 331.1115,724.641 329.6344,719.1752 327.6188,713.8843 325.0847,708.8211 322.2742,704.3457"/>
    <polygon points="331.8633,718.1022 329.8269,712.8141 327.2932,707.7454 324.0687,702.6332 320.3387,697.8773 316.4173,693.7866 312.1219,690.0905 307.4921,686.823 302.5706,684.0143 297.0503,681.5529 291.6717,679.769 286.147,678.5087 280.5269,677.7836 274.4853,677.6076 268.8325,678.0042 263.2437,678.9407 257.7704,680.4085 252.1163,682.5443 247.0395,685.0618 242.2273,688.0542 237.7241,691.4939 233.3077,695.6204 229.5706,699.88 226.0539,704.7958 223.2294,709.7084 220.8887,714.869 219.0532,720.2302 217.6713,726.1143 216.898,732.1087 216.7329,737.773 217.1115,743.427 218.1103,749.3881 219.5956,754.8567 221.7495,760.504 224.2832,765.5727 227.291,770.3752 230.7451,774.8675 234.8857,779.2706 239.4545,783.2275 244.0843,786.495 249.3433,789.4741 254.5261,791.7652 259.9047,793.5491 265.4294,794.8094 271.0496,795.5344 277.0911,795.7104 282.7439,795.3138 288.7017,794.2959 294.1655,792.7931 299.4602,790.7737 304.5369,788.2563 309.6594,785.0482 314.4272,781.3333 318.5304,777.425 322.2402,773.1415 325.5225,768.5222 328.5184,763.2728 330.8261,758.0973 332.6272,752.7245 333.9714,746.8317 334.7064,740.8324 334.8351,735.1672 334.4204,729.5157 333.3835,723.5612"/>
    <polygon points="329.454,724.7153 327.9395,719.2548 326.0258,714.3239 323.647,709.5998 320.8254,705.1261 317.5869,700.9443 313.6886,696.8316 309.6861,693.3739 305.3698,690.3169 300.4426,687.5181 295.6064,685.3764 290.5868,683.7093 285.4302,682.5323 279.8076,681.8274 274.52,681.6949 269.2442,682.0711 264.029,682.9525 258.9226,684.331 253.9723,686.1938 248.8937,688.7075 244.4103,691.5138 240.2174,694.7379 236.3537,698.35 232.8549,702.3166 229.548,706.9183 226.7323,711.8359 224.574,716.6647 222.788,722.0425 221.6287,727.2031 220.9707,732.4512 220.8287,738.1161 221.2231,743.3906 222.1224,748.6027 223.5185,753.7044 225.5507,758.9941 227.9294,763.7182 230.7511,768.1919 233.9896,772.3737 237.6149,776.225 241.5936,779.7101 246.2066,783.0012 250.7966,785.6293 255.618,787.8042 260.9896,789.6087 266.1462,790.7857 271.7689,791.4907 277.0564,791.6232 282.3322,791.247 287.5474,790.3655 292.6538,788.987 297.6041,787.1242 302.6828,784.6106 307.1661,781.8043 311.359,778.5802 315.2227,774.9681 318.7215,771.0014 322.0284,766.3998 324.6723,761.8188 326.8638,757.0049 328.6867,751.6395 329.8814,746.487 330.6057,740.8668 330.7564,735.5798 330.3983,730.3027"/>
    <polygon points="336.8626,731.7464 341.0398,727.3838 344.5428,722.9346 347.8035,717.8504 350.5413,712.4665 352.7288,706.8366 354.3444,701.0167 355.3718,695.0647 355.7917,689.4175 355.6559,683.3791 354.919,677.3842 353.5882,671.4927 351.813,666.1154 349.3745,660.5895 346.3975,655.3342 343.1436,650.6996 339.2119,646.1145 334.8428,641.9441 330.0798,638.2299 325.2988,635.1952 319.9107,632.4658 314.2774,630.2871 308.8233,628.764 302.8762,627.7087 296.8536,627.2514 290.8154,627.3966 284.8217,628.1429 279.2961,629.382 273.5577,631.2665 268.0356,633.7136 262.7849,636.6988 258.1554,639.9599 253.5765,643.8987 249.4129,648.2744 245.7062,653.0431 242.4932,658.1576 239.958,663.2212 237.788,668.8579 236.2734,674.3143 235.2274,680.2631 234.7794,686.2864 234.9068,691.9477 235.625,697.9449 236.9374,703.8405 238.8309,709.576 241.1171,714.7568 244.0777,720.0214 247.5483,724.9647 251.4943,729.5375 255.8764,733.6942 260.651,737.3935 265.7705,740.5985 270.838,743.1259 276.4781,745.287 282.3055,746.8753 287.8872,747.8299 293.9112,748.2684 299.5724,748.1322 305.5684,747.4046 311.462,746.083 316.8421,744.3162 322.3717,741.8864 327.3119,739.1184 332.2713,735.6709"/>
    <polygon points="326.2432,745.9348 326.8989,741.0682 327.0812,735.7834 326.7625,730.8832 325.8972,725.6666 324.6166,720.9259 322.8886,716.3295 320.5457,711.5889 317.9436,707.4244 314.9553,703.5278 311.6082,699.9348 307.9328,696.6782 303.6464,693.5816 299.0639,690.9427 294.5863,688.9267 289.5728,687.2452 284.7851,686.1536 279.915,685.5248 274.6293,685.3716 269.7309,685.7174 264.8881,686.5299 260.1451,687.8017 255.5454,689.5212 250.8005,691.8555 246.6313,694.4498 242.7292,697.431 239.13,700.7715 235.8667,704.4409 232.7622,708.7216 230.2881,712.9634 228.0906,717.7731 226.5034,722.42 225.2995,727.5691 224.6617,732.4381 224.4923,737.3457 224.793,742.247 225.6391,747.4668 226.9022,752.2122 228.763,757.1619 230.9387,761.5641 233.7408,766.0487 236.9895,770.221 240.3762,773.7768 244.0873,776.9926 248.0889,779.8388 252.3443,782.2893 256.8145,784.3218 261.4585,785.9175 266.6053,787.131 271.4731,787.7777 276.3804,787.9561 281.6579,787.6226 286.5037,786.8279 291.2513,785.5736 296.2045,783.7219 300.6107,781.5543 305.1004,778.7605 309.2787,775.5194 312.8407,772.1393 316.0633,768.4341 318.9169,764.4378 321.5473,759.8505 323.5551,755.3692 325.1251,750.7164"/>
    <polygon points="315.4532,741.3595 320.6471,739.1065 325.5931,736.3518 330.243,733.1222 334.5512,729.4493 338.4758,725.3689 341.9783,720.921 345.0246,716.149 347.5848,711.0996 349.5136,706.1799 351.0676,700.736 352.0764,695.1652 352.5304,689.522 352.4249,683.8616 351.761,678.2392 350.5453,672.7099 348.7895,667.3276 346.511,662.1449 343.7318,657.2126 340.4793,652.5788 336.7851,648.2887 332.6854,644.3844 328.2202,640.9039 323.7614,638.0679 318.7162,635.4994 313.442,633.4416 307.9904,631.9145 302.4147,630.9332 296.7694,630.5072 291.1095,630.6407 285.4905,631.3324 279.9673,632.5754 274.5937,634.3578 269.4224,636.6619 264.8229,639.2635 260.1838,642.5084 255.8876,646.1955 251.9765,650.2888 248.7073,654.4404 245.6454,659.2023 243.0685,664.2433 241.002,669.5141 239.466,674.9632 238.4755,680.5373 238.0402,686.1819 238.1644,691.842 238.8467,697.4621 240.0807,702.9874 241.8542,708.3639 244.1498,713.539 246.9452,718.4621 250.213,723.0852 253.6611,727.0894 257.7479,731.0073 262.2016,734.5025 266.9786,737.5409 272.0323,740.0927 276.9551,742.0135 282.4016,743.5585 287.9741,744.5581 293.618,745.0027 299.2782,744.8879 304.5271,744.2769 310.0623,743.0886"/>
    <line x1="297.7893" x2="290.5992" y1="733.7718" y2="622.9623"/>
    <line x1="290.2278" x2="298.8559" y1="622.9864" y2="755.9578"/>
    <line x1="298.1131" x2="289.4849" y1="756.006" y2="623.0346"/>
    <line x1="289.8564" x2="299.9225" y1="623.0105" y2="778.1438"/>
    <polygon points="302.2573,783.912 306.7372,781.1069 310.9224,777.8785 315.0342,773.9847 318.4856,769.9815 321.5304,765.6609 324.1395,761.064 326.2882,756.2348 327.9558,751.2191 329.1267,746.0647 329.7895,740.8207 329.938,735.5372 329.5708,730.2643 328.6913,725.0523 327.308,719.9508 325.4341,715.0085 323.0873,710.2723 320.29,705.7875 316.8234,701.3097 313.1823,697.4782 309.185,694.0197 304.8697,690.9674 300.2775,688.3503 295.452,686.1933 290.4392,684.5169 285.2869,683.3371 280.0441,682.6651 274.7608,682.5074 269.4872,682.8654 264.2737,683.7358 259.1698,685.1102 253.8783,687.1271 249.1545,689.4986 244.6844,692.3193 240.5105,695.5623 236.6726,699.1967 233.2072,703.1879 230.1474,707.4979 227.5223,712.0856 225.3568,716.9073 223.6717,721.9172 222.4829,727.0674 221.7728,732.6856 221.6427,737.9697 222.0283,743.2413 222.9259,748.4502 224.327,753.5468 226.2182,758.4825 228.5815,763.2105 231.3944,767.6855 234.6301,771.865 238.2578,775.7093 242.5403,779.4145 246.8662,782.4517 251.4675,785.0528 256.3005,787.193 261.3191,788.852 266.4755,790.0138 271.7206,790.6675 277.0045,790.8068 282.2767,790.4303 287.4872,789.5418 292.5862,788.1496 297.5253,786.267"/>
    <polygon points="319.6591,771.7921 322.9718,767.1991 325.8055,762.2961 328.1315,757.1327 329.926,751.7615 331.1054,746.609 331.8258,740.992 331.9851,735.7086 331.6042,730.0584 330.7373,724.8441 329.2694,719.3746 327.4092,714.427 324.91,709.3453 321.9121,704.5408 318.6909,700.3499 314.8194,696.217 310.5516,692.4946 305.9309,689.2206 301.0042,686.4281 296.174,684.2814 291.1634,682.598 285.6452,681.3252 280.027,680.6142 274.7434,680.4639 269.0938,680.8542 263.881,681.7299 258.414,683.2069 253.4695,685.0755 248.392,687.5832 243.5926,690.5892 239.4071,693.8174 235.2807,697.6959 231.5655,701.9699 228.5023,706.2776 225.8573,710.8541 223.514,716.0096 221.7015,721.3747 220.4379,726.895 219.7655,732.1378 219.5949,737.7983 219.9948,743.4472 220.8792,748.6585 222.3654,754.123 224.2422,759.0644 226.7585,764.1377 229.5567,768.6221 233.0078,773.112 236.6214,776.9697 240.8766,780.7064 245.4863,783.9959 250.0672,786.6332 255.2266,788.9678 260.2315,790.6681 265.7453,791.9594 271.3611,792.6893 277.0219,792.8504 282.6701,792.441 287.8799,791.5478 292.9827,790.1692 298.2801,788.1673 303.3492,785.6425 307.8289,782.8368 312.0252,779.6226 316.1646,775.7581"/>
    <polygon points="348.8365,782.8766 348.5112,787.3945 348.6539,792.2992 349.2412,796.7905 350.2604,801.204 351.7018,805.4981 353.552,809.6326 355.7935,813.5687 358.4054,817.2694 361.3631,820.7 364.9253,824.0744 368.5109,826.8422 372.3475,829.2501 376.7452,831.4264 380.9867,833.016 385.3621,834.1877 389.8304,834.9306 394.3496,835.2376 398.8772,835.1059 403.3709,834.5367 407.7885,833.5354 412.0884,832.1113 416.2303,830.2778 420.1754,828.0522 424.1842,825.2228 427.6029,822.2513 430.718,818.9629 433.5002,815.3885 435.9236,811.5617 437.9653,807.5183 439.6061,803.2964 440.9137,798.5671 441.6746,794.1018 441.9998,789.5839 441.8864,785.0558 441.3354,780.5598 440.3519,776.1383 438.9452,771.8326 437.1285,767.6833 434.9188,763.7293 432.1056,759.7091 429.1479,756.2785 425.8721,753.1501 422.309,750.3535 418.1636,747.7283 414.112,745.703 409.8835,744.0792 405.5176,742.8722 401.0555,742.0932 396.539,741.7497 392.0104,741.8449 387.5122,742.3777 383.0868,743.3434 378.4227,744.8672 374.2807,746.7006 370.3356,748.9263 366.6244,751.5232 362.9081,754.7272 359.7931,758.0156 357.0108,761.59 354.5875,765.4168 352.5458,769.4601 350.9049,773.6821 349.6803,778.043"/>
    <polygon points="352.1717,778.5831 351.3837,783.0471 351.0666,787.1905 351.1659,791.7224 351.7288,796.2203 352.647,800.2731 353.9417,804.2218 355.7699,808.3698 357.8111,811.9895 360.4144,815.7004 363.1233,818.8516 366.1162,821.7345 369.6738,824.5437 373.1721,826.7864 376.8656,828.6907 381.0791,830.3626 385.0734,831.5087 389.5322,832.3252 393.6735,832.6689 398.206,832.5987 402.3346,832.1268 406.766,831.1725 411.0764,829.7694 414.8825,828.1015 418.5152,826.0836 422.2427,823.5041 425.6865,820.5565 428.563,817.5575 431.3645,813.9939 433.5998,810.4907 435.6512,806.4485 437.1591,802.5762 438.2966,798.5794 439.1036,794.1188 439.4496,789.599 439.3586,785.4445 438.8778,781.3169 437.914,776.8875 436.6362,772.9333 434.8257,768.7776 432.5992,764.8291 430.2126,761.4273 427.5172,758.2645 424.2525,755.1197 420.9911,752.5445 417.175,750.098 413.1284,748.0552 409.2529,746.5557 404.8852,745.3427 400.7914,744.6292 396.6486,744.3032 392.1165,744.3928 387.99,744.8823 383.5627,745.8556 379.6112,747.1419 375.4594,748.9612 371.5157,751.1962 368.1189,753.59 364.9619,756.2922 361.8241,759.5636 359.2558,762.8305 356.8175,766.6518 354.7834,770.7028 353.2921,774.5815"/>
    <polygon points="351.7343,773.8812 350.5067,778.2404 349.7147,782.6993 349.3658,787.2145 349.4635,791.7422 350.0068,796.2382 350.9905,800.6588 352.4049,804.9609 354.2364,809.1028 356.467,813.0441 359.0751,816.7464 362.0353,820.1737 365.3187,823.2927 368.8935,826.073 372.7249,828.4875 376.7755,830.5128 381.0059,832.1291 385.375,833.3208 389.8403,834.0761 394.3583,834.3879 398.885,834.253 403.3763,833.6727 407.7887,832.6527 412.0791,831.2029 416.2057,829.3375 419.8104,827.2778 423.5127,824.6697 426.94,821.7095 430.059,818.426 432.8392,814.8512 435.2538,811.0199 437.2791,806.9693 438.8954,802.7388 440.0871,798.3697 440.7964,794.2792 441.1452,789.7639 441.0475,785.2363 440.5042,780.7403 439.5205,776.3197 438.1061,772.0175 436.2747,767.8756 434.0441,763.9344 431.436,760.2321 428.4758,756.8048 425.1923,753.6858 421.6175,750.9055 417.7862,748.491 413.7356,746.4657 409.5051,744.8493 405.136,743.6577 400.6707,742.9023 396.1528,742.5906 391.6261,742.7255 387.1347,743.3058 382.7223,744.3258 378.432,745.7755 374.3053,747.641 370.7007,749.7007 366.9984,752.3088 363.8453,755.0095 360.6994,758.2672 357.8899,761.819 355.4439,765.6304 353.3854,769.6642"/>
    <polygon points="358.1109,762.2415 355.685,766.0651 353.8053,769.7663 352.149,773.9808 350.92,778.3391 350.1304,782.798 349.7881,787.3133 349.8966,791.8402 350.4546,796.334 351.3564,800.386 352.757,804.6922 354.5788,808.8378 356.8038,812.7817 359.4099,816.4849 362.3713,819.9105 365.3731,822.7778 368.9308,825.5793 372.7494,828.0131 376.791,830.0552 381.0157,831.6852 385.3816,832.8871 389.8453,833.6489 394.3626,833.963 398.5124,833.855 403.0073,833.3064 407.4253,832.3134 411.3703,831.0213 415.5197,829.2081 419.4682,826.9913 423.1767,824.3929 426.6085,821.4385 429.7295,818.1576 432.2909,814.8909 434.7326,811.0773 436.783,807.0399 438.3014,803.1764 439.5485,798.8233 440.3566,794.3677 440.7176,789.8539 440.628,785.3265 440.1507,781.2029 439.2036,776.7747 437.8209,772.4627 436.0164,768.3096 433.8078,764.3565 431.217,760.6426 428.2698,757.2047 424.9953,754.0769 421.4261,751.2902 417.5975,748.8723 413.5473,746.847 409.3159,745.2345 405.3136,744.1327 400.8531,743.3524 396.3371,743.0195 391.8104,743.1373 387.6898,743.6403 383.2677,744.6149 379.3174,745.8906 375.1605,747.6866 371.2028,749.887 367.4836,752.47 364.0396,755.4101 360.905,758.6781"/>
    <polygon points="357.4501,761.7043 355.0155,765.5235 352.9655,769.5621 351.3196,773.7816 350.0935,778.1417 349.299,782.6006 348.9436,787.1158 349.0308,791.6441 349.5597,796.1423 350.5252,800.5673 352.0532,805.2296 353.8941,809.3677 356.1302,813.3064 358.7402,817.0079 361.6992,820.4369 364.9788,823.5606 368.5477,826.3491 372.3718,828.7759 376.4146,830.8177 380.6375,832.455 385.0,833.6722 389.8353,834.5034 394.3539,834.8127 398.8811,834.6794 403.3737,834.1047 407.7886,833.0942 412.0838,831.6574 416.2182,829.808 420.1523,827.5639 423.8485,824.9463 427.2715,821.9804 430.3885,818.6945 433.1697,815.1199 435.5887,811.2908 437.6223,807.2438 439.251,803.0177 440.4593,798.6527 441.2357,794.1905 441.5726,789.6739 441.467,785.146 440.9198,780.65 439.9362,776.229 438.5257,771.9251 436.7017,767.7794 434.4816,763.8317 431.8867,760.1196 428.9418,756.6786 425.6749,753.5416 422.1174,750.7385 418.3032,748.2961 414.2687,746.2379 410.0526,744.5833 405.695,743.3484 401.2378,742.5448 396.7233,742.1802 392.1948,742.2582 387.6956,742.7779 383.2686,743.7344 378.9561,745.1186 374.7994,746.9173 370.8382,749.1132 366.8113,751.9159 363.3763,754.8679 360.2459,758.1411"/>
    <polygon points="380.1613,749.2055 376.3624,750.8848 372.7475,752.9303 369.3519,755.3223 363.5959,760.7636 361.017,764.0195 358.7716,767.5137 356.8817,771.2123 355.3655,775.0792 354.2379,779.0767 353.5098,783.1658 353.1884,787.3069 353.2767,791.4594 353.7739,795.583 354.6752,799.6376 355.9718,803.5835 357.6511,807.3824 359.6966,810.9972 362.0886,814.3928 364.8035,817.5361 367.8152,820.3965 371.0941,822.946 374.6084,825.1599 378.3237,827.0166 382.2041,828.498 389.9321,830.235 394.0732,830.5564 398.2257,830.4681 402.3493,829.9708 406.4038,829.0695 410.3498,827.7729 414.1486,826.0937 417.7635,824.0481 421.1591,821.6562 424.3024,818.9412 427.1627,815.9296 431.7394,809.4647 433.6294,805.7661 435.1455,801.8993 436.2732,797.9018 437.0012,793.8126 437.3227,789.6716 437.2343,785.519 436.7371,781.3954 435.8358,777.3409 434.5392,773.395 432.8599,769.5961 430.8144,765.9812 428.4225,762.5856 425.7075,759.4423 422.6959,756.582 419.4169,754.0325 415.9027,751.8186 408.6656,748.5992 404.6681,747.4716 400.5789,746.7435 396.4379,746.4221 392.2853,746.5104 388.1617,747.0076 384.1072,747.909"/>
    <polygon points="417.3638,749.7166 413.3166,747.6739 409.0832,746.0523 404.707,744.8686 400.6088,744.1786 396.0863,743.8641 391.932,743.9803 387.4342,744.547 383.3809,745.465 379.0778,746.8915 375.2788,748.5765 371.653,750.6076 367.9321,753.1973 364.493,756.151 361.3713,759.4384 358.5991,763.0255 356.3896,766.5453 354.3641,770.6011 352.8776,774.482 351.6753,778.8531 350.9679,782.9484 350.6343,787.4695 350.761,792.0011 351.3468,796.4966 352.2819,800.5459 353.5896,804.4907 355.4277,808.6348 357.4742,812.2519 360.0796,815.9619 363.0478,819.3884 366.0615,822.2502 369.3282,824.8192 373.1473,827.2619 376.8494,829.1501 381.069,830.8075 385.0666,831.9436 389.5272,832.753 394.0469,833.1057 398.202,833.0247 402.3316,832.5576 406.7654,831.6125 411.0804,830.2225 415.2322,828.4019 419.1779,826.1696 422.579,823.7812 426.018,820.8274 429.1397,817.5401 431.6949,814.2625 434.1214,810.4331 435.994,806.723 437.6335,802.4964 438.7526,798.494 439.5431,794.0301 439.8767,789.5089 439.7781,785.3542 439.2305,780.854 438.3297,776.7969 436.9214,772.4878 435.0833,768.3437 432.8343,764.4075 430.4315,761.0166 427.4632,757.5901 424.4496,754.7283 421.1828,752.1592"/>
    <polygon points="432.3631,765.2514 429.7618,761.5396 427.0517,758.3899 424.0552,755.5113 420.4915,752.7106 416.9862,750.4795 413.2852,748.5907 409.0637,746.9405 404.6943,745.7356 400.5989,745.0333 396.0776,744.7138 391.9242,744.833 387.4287,745.4113 383.3803,746.3473 379.4389,747.6627 375.64,749.3459 371.6983,751.5836 368.3059,753.9829 364.8829,756.954 362.0303,759.9752 359.4769,763.2532 357.2457,766.7585 355.2028,770.8046 353.7068,774.681 352.5018,779.0505 351.7996,783.1459 351.4801,787.6671 351.5993,791.8206 352.1117,795.944 353.0126,800.0003 354.429,804.3058 356.1122,808.1048 358.148,811.727 360.7492,815.4388 363.4593,818.5885 366.7415,821.7145 370.0195,824.2678 373.5248,826.499 377.2258,828.3878 381.4473,830.038 385.8168,831.2429 389.9121,831.9451 394.0556,832.256 398.5868,832.1455 403.0823,831.5671 407.1307,830.6312 411.0721,829.3157 414.871,827.6325 418.4933,825.5968 422.2051,822.9955 425.6281,820.0245 428.4808,817.0033 431.0341,813.7252 433.4514,809.8911 435.3082,806.1739 436.8043,802.2974 438.0092,797.928 438.7114,793.8326 439.031,789.3113 438.9118,785.1579 438.3994,781.0345 437.4984,776.9782 436.217,773.0256 434.3988,768.8737"/>
    <polygon points="438.4925,785.2482 437.9838,781.1247 437.0828,777.0689 435.7977,773.1179 434.1403,769.308 431.9257,765.3539 429.5429,761.9503 426.8454,758.7903 423.8578,755.9031 420.3001,753.0955 416.7974,750.8609 413.097,748.9718 409.2328,747.4456 405.2402,746.2962 400.7813,745.4845 396.2622,745.1426 392.1087,745.2453 387.9841,745.745 383.9263,746.6372 379.9725,747.9137 376.1591,749.5628 372.2001,751.7688 368.7913,754.1441 365.6255,756.8347 362.7318,759.816 360.1367,763.0606 357.6742,766.8654 355.7771,770.5617 354.1214,774.7805 352.9981,778.7806 352.2629,782.8697 351.9112,787.3882 352.0048,791.5418 352.5597,796.0398 353.4784,800.0917 354.9178,804.3892 356.6248,808.1771 358.6865,811.7842 361.0841,815.1773 363.7953,818.3255 367.0816,821.4464 370.3654,823.9917 373.8778,826.211 377.5864,828.084 381.4572,829.5934 385.4548,830.7254 389.9171,831.5177 394.06,831.8311 398.5907,831.7191 402.7131,831.2014 406.767,830.2915 410.7152,828.9978 414.5214,827.3321 418.1507,825.3098 421.8691,822.7187 425.0232,820.0143 427.9039,817.0204 430.7037,813.4566 432.9307,809.9491 434.9649,805.8992 436.449,802.0186 437.5548,798.0137 438.2722,793.9214 438.5946,789.7792"/>
    <polygon points="413.7991,825.7934 417.4213,823.7617 420.8231,821.3794 423.9709,818.6702 426.8332,815.6611 431.4049,809.194 433.2868,805.4918 434.7907,801.6206 435.9017,797.6189 436.6088,793.5265 436.8148,785.6093 436.3215,781.4857 435.4201,777.4316 432.6016,770.0302 430.5781,766.4035 428.2036,762.9962 425.5015,759.8424 422.4989,756.9732 419.2256,754.4172 415.714,752.1999 408.4765,748.9839 404.4773,747.8638 400.3865,747.1475 396.2447,746.8421 392.0931,746.9505 384.289,748.2997 380.3419,749.5913 376.543,751.2695 372.9301,753.3176 369.5391,755.7153 366.4036,758.4387 363.5549,761.4607 359.0126,767.9486 355.7802,775.1788 354.6511,779.1754 353.9255,783.2646 353.6107,787.4057 353.7097,791.5575 354.2217,795.6789 355.1415,799.7288 356.4599,803.667 358.1639,807.4544 362.4234,814.1313 365.1397,817.2729 368.1552,820.1285 371.4402,822.6696 374.9618,824.8709 378.6851,826.7108 382.573,828.1707 390.312,829.8538 398.2296,830.0418 402.3522,829.5392 406.4042,828.6287"/>
    <polygon points="406.4034,829.51 410.3539,828.2261 414.4979,826.3932 418.1055,824.3342 421.495,821.9328 424.6339,819.2121 427.4922,816.198 430.0428,812.9193 432.2611,809.4073 434.1261,805.6956 435.6199,801.8196 436.7283,797.8163 437.4406,793.7239 437.7501,789.5816 437.6538,785.4288 437.1527,781.3052 436.2515,777.2502 434.9588,773.3026 433.2869,769.4999 431.252,765.8786 428.6407,762.1755 425.913,759.0427 422.8926,756.191 419.6083,753.6478 416.0914,751.4372 412.3755,749.5805 408.4962,748.0953 404.4904,746.9959 400.3965,746.2926 396.2534,745.9923 392.1009,746.0978 387.9784,746.6081 383.9254,747.5184 379.9807,748.8198 376.1818,750.5001 372.565,752.5431 369.1649,754.9294 366.014,757.6361 363.1422,760.6375 360.36,764.214 358.1573,767.7358 356.3089,771.4557 354.8323,775.3383 353.7417,779.3465 353.0476,783.442 352.7565,787.5857 352.8712,791.7381 353.3907,795.8594 354.3099,799.9103 355.6201,803.8522 357.3088,807.6473 359.3599,811.2595 361.7537,814.6543 364.4675,817.7993 367.4752,820.6643 370.7482,823.2221 374.2552,825.4483 377.9628,827.3215 381.8355,828.8239 385.8363,829.9411 389.9271,830.6626 394.0688,830.9813 398.2218,830.8942 402.3465,830.4023"/>
    <polygon points="407.0616,831.9727 411.3661,830.5683 415.5079,828.739 419.4451,826.5032 422.8407,824.1159 426.2769,821.1675 429.1525,818.1742 431.9605,814.6223 434.398,810.8066 436.4402,806.7655 438.0665,802.5399 439.2605,798.1724 439.9648,794.0818 440.2898,789.9438 440.2084,785.4167 439.673,780.9207 438.6892,776.5011 437.4017,772.5551 435.5897,768.4057 433.3705,764.459 430.7663,760.7551 428.0634,757.605 424.7982,754.4682 421.2346,751.6751 417.4087,749.2536 413.3591,747.2284 409.1267,745.6198 404.7542,744.4441 400.6608,743.7569 396.5214,743.4493 391.9947,743.5497 387.8731,744.0404 383.4494,745.0057 379.145,746.4102 375.0032,748.2395 371.0659,750.4753 367.6704,752.8626 364.5089,755.5522 361.3586,758.8043 358.5505,762.3561 356.113,766.1719 354.0709,770.2129 352.5638,774.0804 351.3332,778.4378 350.5462,782.8967 350.2107,787.412 350.33,791.9382 350.838,796.0578 351.8219,800.4774 353.1093,804.4234 354.9213,808.5728 357.1406,812.5194 359.7447,816.2234 362.7075,819.6473 365.7128,822.5102 369.2764,825.3034 372.7744,827.5379 376.4631,829.441 380.668,831.1202 385.0202,832.369 389.4757,833.1747 393.6123,833.517 398.1397,833.4545 402.6379,832.9381"/>
    <polygon points="398.2178,831.3204 402.3435,830.8336 406.7673,829.8506 410.7109,828.5444 414.5099,826.8631 418.1285,824.8225 421.533,822.4418 424.6914,819.7432 427.5743,816.7519 430.1545,813.496 432.408,810.006 434.3137,806.3146 435.8536,802.4562 437.0996,798.0992 437.8325,794.01 438.1668,789.8692 438.0993,785.7154 437.6306,781.5876 436.6671,777.1595 435.3783,773.2102 433.5443,769.0662 431.4878,765.4566 429.0921,762.0626 426.3796,758.9161 423.0891,755.8002 419.7995,753.2632 416.28,751.0559 412.5637,749.1992 408.6854,747.7103 404.6813,746.6032 400.5889,745.8883 396.4466,745.5723 392.2932,745.6581 388.1675,746.1449 383.7437,747.1279 379.8001,748.4341 375.6642,750.2863 372.0637,752.3586 368.6803,754.7692 365.5457,757.4955 362.6893,760.512 360.1378,763.7905 357.9151,767.3002 355.8897,771.354 354.4179,775.2389 353.3284,779.2479 352.6315,783.3433 352.3337,787.487 352.4672,792.0166 353.0084,796.1356 353.9452,800.1829 355.2688,804.1207 356.9667,807.9122 359.0232,811.5219 361.4189,814.9158 364.3928,818.3351 367.4219,821.1782 370.7115,823.7153 374.231,825.9225 377.9473,827.7793 381.8257,829.2682 385.8298,830.3752 389.9221,831.0901 394.0644,831.4062"/>
    <polygon points="347.1839,710.9988 349.1177,706.0797 350.6731,700.6348 351.6793,695.0622 352.1262,689.4171 352.0094,683.7556 351.3301,678.1338 350.095,672.6074 348.4515,667.5839 346.3487,662.7347 343.6066,657.7802 340.3854,653.1229 336.7169,648.8092 332.6375,644.8817 328.1878,641.3794 323.4117,638.337 318.3567,635.7848 313.073,633.7481 307.6128,632.247 302.4053,631.3424 296.7588,630.9142 291.4745,631.0232 285.8504,631.6839 280.3199,632.9006 274.9379,634.6614 269.7577,636.9488 264.8307,639.74 260.2058,643.0075 256.2022,646.4583 252.2883,650.5507 249.0193,654.704 245.9612,659.47 243.3922,664.5164 241.4584,669.4354 239.9029,674.8804 238.8968,680.453 238.4499,686.098 238.5413,691.3827 239.1833,697.009 240.3817,702.5434 242.1246,707.9313 244.3947,713.119 247.1696,718.0553 250.1907,722.3923 253.8592,726.706 257.9385,730.6335 262.3883,734.1358 267.1644,737.1781 272.2193,739.7303 277.5031,741.7671 282.9632,743.2682 288.5456,744.2188 293.8172,744.601 299.4783,744.4654 304.7257,743.8313 310.2561,742.6146 315.6381,740.8538 320.8183,738.5664 325.7453,735.7751 330.0723,732.7397 334.3738,729.0569 338.2878,724.9645 341.5567,720.8112 344.6149,716.0452"/>
    <line x1="363.2145" x2="364.5054" y1="690.1697" y2="690.1054"/>
    <line x1="365.7777" x2="363.1958" y1="689.6666" y2="689.7951"/>
    <line x1="363.1772" x2="367.0501" y1="689.4206" y2="689.2278"/>
    <line x1="368.3224" x2="363.1586" y1="688.7891" y2="689.0461"/>
    <line x1="363.1399" x2="369.5947" y1="688.6716" y2="688.3503"/>
    <line x1="370.867" x2="363.1213" y1="687.9115" y2="688.2971"/>
    <line x1="363.1026" x2="372.1393" y1="687.9225" y2="687.4727"/>
    <line x1="373.4116" x2="363.084" y1="687.0339" y2="687.548"/>
    <line x1="363.0653" x2="374.6839" y1="687.1735" y2="686.5952"/>
    <line x1="375.9562" x2="363.0467" y1="686.1564" y2="686.799"/>
    <line x1="363.0281" x2="377.2285" y1="686.4244" y2="685.7176"/>
    <line x1="378.5008" x2="363.0094" y1="685.2788" y2="686.0499"/>
    <line x1="362.9908" x2="379.7732" y1="685.6754" y2="684.84"/>
    <line x1="378.4636" x2="362.9721" y1="684.5298" y2="685.3009"/>
    <line x1="362.9535" x2="377.154" y1="684.9263" y2="684.2195"/>
    <line x1="375.8444" x2="362.9349" y1="683.9092" y2="684.5518"/>
    <line x1="362.9162" x2="374.5348" y1="684.1773" y2="683.599"/>
    <line x1="373.2252" x2="362.8976" y1="683.2887" y2="683.8028"/>
    <line x1="362.8789" x2="371.9156" y1="683.4282" y2="682.9784"/>
    <line x1="370.606" x2="362.8603" y1="682.6682" y2="683.0537"/>
    <line x1="362.8416" x2="369.2964" y1="682.6792" y2="682.3579"/>
    <line x1="367.9868" x2="362.823" y1="682.0476" y2="682.3047"/>
    <line x1="362.8044" x2="366.6772" y1="681.9302" y2="681.7374"/>
    <line x1="365.3676" x2="362.7857" y1="681.4271" y2="681.5556"/>
    <line x1="362.7671" x2="364.058" y1="681.1811" y2="681.1169"/>
    <polygon points="362.7484,680.8066 363.2331,690.5442 379.7732,684.84"/>
    <polygon points="356.1626,677.4097 354.7594,671.1457 352.8511,665.413 350.3918,659.8942 347.4049,654.6422 343.919,649.7073 339.9674,645.1366 335.5881,640.9741 330.823,637.2594 325.7176,634.0283 320.3208,631.3116 314.6844,629.1353 308.8623,627.5203 302.9102,626.482 296.8852,626.0304 290.8448,626.1698 284.847,626.8989 278.9492,628.2107 272.8554,630.2287 267.3404,632.6965 262.093,635.6915 257.1634,639.1849 252.5988,643.1434 248.4429,647.5291 244.7356,652.2999 241.5123,657.4103 238.8038,662.8111 236.6361,668.4509 235.03,674.2754 234.0009,680.2291 233.5585,686.2548 233.7071,692.295 234.4454,698.2917 235.7662,704.1875 237.6568,709.926 240.0993,715.4523 243.0701,720.7134 246.5409,725.659 250.4785,730.2417 255.1312,734.6642 259.9077,738.3642 265.023,741.5797 270.428,744.2799 276.071,746.4389 281.8981,748.0361 287.8533,749.0562 293.8797,749.4894 299.9196,749.3315 305.9152,748.5841 311.809,747.2543 317.5446,745.3548 323.0671,742.9039 328.3237,739.925 333.2639,736.4467 337.8406,732.5021 342.0099,728.1292 345.7318,723.3697 348.9707,718.2693 351.6957,712.8767 353.8806,707.2436 355.5045,701.424 356.5519,695.4735 357.0127,689.4492 356.8825,683.4086"/>
    <polygon points="350.916,672.5222 349.1527,667.1375 346.8696,661.9519 344.0887,657.0153 340.8368,652.3753 337.1453,648.0769 333.0499,644.1613 328.5901,640.6665 323.8089,637.6262 318.7524,635.0697 313.4695,633.0216 308.0111,631.5018 302.43,630.5249 296.7799,630.1003 291.4924,630.206 285.8638,630.8561 280.3262,632.0554 274.9329,633.7922 269.7361,636.0498 264.7859,638.8065 260.13,642.0355 255.8135,645.7058 251.8779,649.7819 248.3612,654.2245 245.2974,658.9908 242.7161,664.0346 240.6421,669.3074 239.0954,674.7582 238.0911,680.3345 237.6387,685.9824 237.7427,691.6475 238.4021,697.275 239.6104,702.8107 241.3561,708.2011 243.6222,713.3942 246.3869,718.3399 249.6236,722.9904 253.301,727.301 257.3835,731.2299 261.8319,734.7393 266.6031,737.7953 271.6512,740.3684 276.9274,742.4337 282.3807,743.9714 287.9586,744.9666 293.6073,745.4097 299.2722,745.2964 304.8986,744.6279 310.4323,743.4105 315.8198,741.656 321.0092,739.3814 325.9504,736.6085 330.5956,733.3642 334.9001,729.6798 338.8224,725.5908 342.3245,721.1367 345.3726,716.3605 347.9374,711.3082 349.9942,706.0287 351.5229,700.5728 352.509,694.9933 352.9428,689.3439 352.8203,683.6792 352.1425,678.0539"/>
    <polygon points="349.6251,667.2343 347.3675,662.0389 344.6146,657.0881 341.3924,652.4291 337.473,647.8308 333.3831,643.9114 328.9309,640.4091 323.8302,637.1704 318.7668,634.6307 313.48,632.5963 308.0202,631.0865 302.4393,630.1158 296.7904,629.6933 291.1272,629.8231 285.5036,630.5039 279.973,631.7293 274.5881,633.4876 269.4001,635.7621 264.4583,638.5311 259.8098,641.7683 255.4987,645.443 251.566,649.5201 248.0492,653.9609 244.9817,658.7232 242.3927,663.7616 240.3068,669.0283 238.7439,674.4731 237.7187,680.0443 237.2289,686.0664 237.3403,691.73 238.0028,697.3558 239.2102,702.8903 240.951,708.2809 243.2086,713.4763 245.9615,718.4271 249.1836,723.0861 253.103,727.6844 257.1929,731.6037 261.6452,735.1061 266.4174,738.1581 271.8093,740.8845 277.096,742.9189 282.5558,744.4287 288.1367,745.3994 293.7857,745.8219 299.4489,745.6921 305.0725,745.0113 310.6031,743.7859 315.988,742.0276 321.176,739.7531 326.1178,736.9841 330.7663,733.7469 335.0774,730.0722 339.0101,725.9951 342.5269,721.5543 345.7821,716.4642 348.3383,711.409 350.3899,706.1289 351.9174,700.674 352.9063,695.0963 353.3472,689.4488 353.2358,683.7852 352.5732,678.1594 351.3659,672.6249"/>
    <polygon points="338.5564,646.6067 334.1759,642.4444 329.7065,638.963 324.9274,635.9207 319.5366,633.1906 313.8976,631.0193 308.4367,629.511 302.8575,628.5271 296.8325,628.0653 291.1686,628.1876 285.1691,628.909 279.6376,630.1328 273.8938,632.0096 268.7068,634.2881 263.439,637.2483 258.7956,640.494 254.2056,644.4242 250.0364,648.7981 246.5479,653.2619 243.3111,658.3646 240.7595,663.4227 238.5792,669.0583 236.9797,674.8855 236.0223,680.4693 235.5891,686.4964 235.7673,692.5364 236.4881,698.1557 237.8401,704.0451 239.6422,709.4162 241.9452,714.5922 244.9305,719.846 248.1981,724.474 252.1501,729.0452 256.257,732.9475 261.0241,736.6609 265.8128,739.688 271.2122,742.401 276.4991,744.4367 282.3237,746.0455 288.281,747.0573 293.9324,747.4544 299.9727,747.2858 305.5931,746.5739 311.1207,745.3326 316.8586,743.4376 322.0382,741.1428 327.2967,738.1658 332.2274,734.6727 336.5073,730.9608 340.6627,726.5737 344.1371,722.0989 347.3577,716.986 349.8933,711.9198 352.0557,706.2773 353.5553,700.8141 354.5304,695.2334 354.9826,689.2077 354.8514,683.5439 354.1205,677.5456 352.7872,671.6519 351.0021,666.2752 348.7154,661.0919 345.7469,655.8287 342.2615,650.8924"/>
    <polygon points="333.2808,634.5683 408.9205,603.5462 407.8751,601.1105"/>
    <polygon points="324.949,635.4645 319.8961,632.9053 314.6248,630.8329 308.8142,629.1796 302.8669,628.1179 296.8431,627.6584 290.8036,627.8057 284.8093,628.5585 279.2847,629.8074 273.5495,631.7061 268.0338,634.1708 263.1118,636.9735 258.1775,640.4591 253.891,644.1614 249.7247,648.5362 246.0184,653.3071 242.8096,658.4258 240.2822,663.4946 238.1248,669.1376 236.6262,674.5998 235.6483,680.1787 235.1888,686.2026 235.3092,691.8653 236.0243,697.8641 237.3378,703.7609 239.101,709.1435 241.531,714.6745 244.5039,719.9338 247.9896,724.8681 251.6919,729.1546 255.7812,733.0736 260.5286,736.8098 265.2991,739.8633 270.6799,742.6099 276.3093,744.8027 282.1302,746.4194 287.7092,747.3973 293.733,747.8568 299.7725,747.7094 305.7667,746.9567 311.6552,745.6061 317.0265,743.8091 322.5422,741.3444 327.4642,738.5417 332.1006,735.2883 336.685,731.3537 340.8514,726.9789 344.3402,722.517 347.5811,717.4185 350.1404,712.3657 352.2127,707.0944 353.866,701.2837 354.9278,695.3364 355.3873,689.3126 355.2399,683.2731 354.5518,677.651 353.2383,671.7543 351.475,666.3717 349.045,660.8406 346.0722,655.5814 342.5865,650.6471 338.8842,646.3606 334.7949,642.4416 330.0474,638.7054"/>
    <line x1="338.04" x2="351.5355" y1="627.1722" y2="642.3145"/>
    <line x1="351.806" x2="324.8149" y1="642.0735" y2="611.7889"/>
    <line x1="325.6263" x2="352.6175" y1="611.0657" y2="641.3502"/>
    <line x1="352.888" x2="339.3924" y1="641.1092" y2="625.9669"/>
    <line x1="343.9372" x2="408.3232" y1="629.7886" y2="602.1543"/>
    <line x1="408.1738" x2="365.2498" y1="601.8064" y2="620.2292"/>
    <line x1="365.6978" x2="408.6219" y1="621.2731" y2="602.8503"/>
    <line x1="408.7712" x2="387.3092" y1="603.1982" y2="612.4096"/>
    <line x1="386.5625" x2="408.0245" y1="610.6698" y2="601.4584"/>
    <line x1="408.4725" x2="344.0865" y1="602.5023" y2="630.1366"/>
    <line x1="352.347" x2="311.8603" y1="641.5913" y2="596.1645"/>
    <line x1="311.5898" x2="352.0765" y1="596.4055" y2="641.8324"/>
    <line x1="368.8471" x2="518.7279" y1="628.9166" y2="539.76"/>
    <line x1="502.3662" x2="381.8621" y1="551.0926" y2="683.5985"/>
    <line x1="382.1369" x2="478.5402" y1="683.8484" y2="577.8437"/>
    <line x1="477.9906" x2="381.5873" y1="577.3438" y2="683.3486"/>
    <line x1="381.3125" x2="453.615" y1="683.0987" y2="603.5951"/>
    <line x1="454.7142" x2="382.4117" y1="604.5947" y2="684.0983"/>
    <line x1="382.6865" x2="430.8881" y1="684.3482" y2="631.3458"/>
    <line x1="429.2394" x2="381.0377" y1="629.8464" y2="682.8487"/>
    <line x1="380.7629" x2="404.8638" y1="682.5988" y2="656.0977"/>
    <line x1="407.0621" x2="382.9613" y1="658.0969" y2="684.5981"/>
    <polygon points="380.4881,682.3489 383.2361,684.848 502.3662,551.0926"/>
    <polygon points="402.5357,651.5085 407.3082,653.7658 412.4265,655.0596 418.0755,655.3224 423.2918,654.5093 428.2533,652.7049 432.7732,649.9771 436.6819,646.4283 439.8323,642.192 442.106,637.4274 443.4176,632.3135 443.7178,627.0427 442.9953,621.8131 441.1178,616.4787 438.4057,611.9493 434.8705,608.0284 430.6451,604.8633 425.8884,602.573 420.7792,601.2437 415.5094,600.9253 409.9103,601.7187 404.9365,603.4886 400.3977,606.185 396.4645,609.7066 393.2848,613.921 390.9781,618.6697 389.631,623.7743 389.3095,629.4203 390.0683,634.6448 391.821,639.6247 394.5016,644.1728 398.2885,648.3729"/>
    <polygon points="399.4676,647.2127 403.4151,650.1107 407.8425,652.2034 412.9608,653.4691 417.8533,653.6811 422.6966,652.9569 427.313,651.323 431.8372,648.6155 435.4588,645.3193 438.579,641.0692 440.639,636.6265 441.8146,631.8726 442.0429,626.605 441.283,621.7673 439.4507,616.8234 436.8743,612.6589 433.5514,609.0617 429.6039,606.1636 425.1765,604.071 420.0582,602.8053 415.1657,602.5932 409.9571,603.4114 405.3653,605.1132 401.1819,607.6589 397.5602,610.9551 394.6331,614.8811 392.5079,619.293 391.2045,624.4018 390.9564,629.2926 391.6448,634.141 393.404,639.1114 395.9187,643.3134"/>
    <polygon points="393.3715,645.4219 397.1794,649.5959 401.7271,652.9486 406.8405,655.3519 412.3239,656.7136 417.9675,656.9816 423.5554,656.1458 428.8735,654.2381 433.7186,651.3315 437.905,647.5373 441.2726,643.0006 443.6925,637.8951 445.0721,632.4161 445.3586,626.7734 444.541,621.1828 442.4881,615.518 439.5342,610.7017 435.6991,606.5527 431.1296,603.2297 426.0006,600.8599 420.5084,599.5341 414.8632,599.3029 409.2809,600.1751 403.9753,602.1175 399.1494,605.0557 394.9878,608.8772 391.6499,613.4358 389.2634,618.5571 387.9196,624.0449 387.67,629.6894 388.524,635.2745 390.4491,640.5864"/>
    <polygon points="390.6323,640.0042 393.4862,644.8818 397.2473,649.0996 401.7675,652.4914 406.8686,654.9236 411.9766,656.2425 417.6175,656.5842 423.2147,655.8048 428.5478,653.9352 433.4064,651.0491 437.5992,647.26 440.961,642.7175 443.3592,637.6004 444.6994,632.1104 444.9288,626.4638 444.0384,620.8832 442.2272,615.9282 439.3089,611.0888 435.4922,606.9212 431.2516,603.7829 426.1505,601.3508 420.6695,599.9742 415.0246,599.7074 409.8043,600.4696 404.4713,602.3391 399.6127,605.2253 395.4199,609.0143 392.0581,613.5569 389.6598,618.674 388.3748,623.7907 388.0705,629.4337 388.7981,634.6589"/>
    <polygon points="389.7288,629.5416 390.5232,634.7622 392.3252,639.7258 395.0649,644.2402 398.6361,648.1302 402.9003,651.2449 407.6922,653.4637 412.826,654.7005 417.7253,654.9271 422.9513,654.1695 427.9276,652.4026 432.4611,649.6947 436.3761,646.151 439.5209,641.9089 441.6441,637.4877 442.9891,632.3812 443.3074,627.1102 442.5866,621.8789 440.8547,616.8904 438.1789,612.3379 434.6629,608.398 430.443,605.2234 425.6828,602.9374 420.5669,601.6284 415.2938,601.3472 410.0678,602.1048 405.0915,603.8718 400.558,606.5796 396.6429,610.1233 393.4982,614.3655 391.2457,619.1417 389.9728,624.2666"/>
    <polygon points="388.7197,624.2831 388.4896,629.5549 389.3424,635.1427 391.1347,640.1058 394.0488,644.9492 397.5941,648.8576 401.8086,652.033 406.8968,654.4948 412.3752,655.8867 418.0215,656.1522 423.2405,655.3736 428.5634,653.4716 433.094,650.7664 437.2934,646.9828 440.6492,642.4342 442.8993,637.6612 444.2728,632.1781 444.5384,626.908 443.8125,621.6814 441.9643,616.3396 439.3049,611.7819 435.5639,607.5445 431.3709,604.3408 426.2993,601.8449 421.203,600.4768 415.5632,600.0974 409.9619,600.8561 404.9694,602.5647 400.0776,605.3969 395.8529,609.1522 392.4666,613.6781 390.0563,618.7909"/>
    <polygon points="386.7435,623.5362 386.4237,629.5614 387.3112,635.5295 389.3705,641.2008 392.2923,646.0457 396.3477,650.5133 401.2122,654.0829 406.3342,656.4859 412.1888,657.9452 417.8394,658.2274 423.8102,657.3585 429.488,655.3171 434.645,652.1849 438.8223,648.3691 442.4071,643.5158 444.8262,638.4013 446.3039,632.5514 446.5859,626.5243 445.6609,620.562 443.5661,614.9036 440.3856,609.7763 436.5306,605.6351 431.9693,602.2879 426.5069,599.7252 420.6433,598.3027 414.991,598.0559 409.0257,598.9622 403.7017,600.8765 398.5252,603.9763 394.0704,608.0456 390.7089,612.5965 388.129,618.0508"/>
    <polygon points="387.7326,617.9339 386.3442,623.4173 386.005,629.4401 386.8566,635.4121 388.8656,641.1 391.9537,646.282 396.0004,650.7557 400.8476,654.3465 406.3062,656.9142 412.1631,658.3585 418.1897,658.6232 424.1506,657.6979 429.8133,655.6186 434.9567,652.4667 439.128,648.6463 442.7188,643.7991 445.2865,638.3405 446.6748,632.857 447.014,626.8342 446.1625,620.8623 444.1534,615.1743 441.0653,609.9924 437.0186,605.5187 432.1714,601.9279 426.7128,599.3602 420.8559,597.9158 414.8294,597.6511 408.8684,598.5765 403.2058,600.6557 398.0624,603.8077 393.891,607.6281 390.3002,612.4753"/>
    <polygon points="396.8223,610.541 393.9069,614.4867 391.6422,619.2586 390.3726,624.3857 390.1297,629.2855 390.8861,634.5131 392.6678,639.4856 395.4036,644.0039 398.7031,647.6344 402.94,650.7885 407.7199,653.0361 412.4777,654.2323 417.7523,654.5127 422.9771,653.7376 427.9431,651.9381 432.4516,649.1862 436.0704,645.8738 439.2092,641.6256 441.4397,636.8376 442.6189,632.0756 442.8804,626.8001 442.1779,621.9448 440.4318,616.9597 437.7285,612.4219 434.176,608.513 429.9166,605.3894 425.4771,603.3018 420.3545,602.0138 415.0781,601.7712 409.8589,602.5837 404.9059,604.4187 400.7185,606.9746"/>
    <polygon points="434.0386,608.9456 429.8061,605.8036 425.3821,603.7064 420.2706,602.4187 415.381,602.1697 410.1651,602.9313 405.551,604.5682 401.0211,607.2639 397.1283,610.818 394.0326,615.0845 391.9836,619.531 390.7516,624.6562 390.5558,629.5482 391.3742,634.7555 393.0612,639.3516 395.5802,643.5498 399.1202,647.4555 403.3754,650.5666 407.8144,652.6317 412.9352,653.8823 417.8264,654.0958 422.6709,653.3884 427.6388,651.626 431.8461,649.1223 435.7646,645.5965 438.697,641.676 440.9723,636.9211 442.2415,631.8049 442.4728,626.9145 441.6922,621.7014 440.0386,617.0932 437.3265,612.5732"/>
    <polygon points="445.5044,632.3132 445.7662,626.6589 444.9358,621.0598 443.044,615.725 440.1615,610.8535 436.1168,606.3726 431.2395,602.8159 426.0947,600.4557 420.592,599.129 414.9369,598.8854 409.3405,599.7339 403.671,601.8063 398.8467,604.767 394.6818,608.6002 391.3319,613.1629 388.9221,618.2846 387.5422,623.7742 387.263,629.8041 388.1295,635.3978 390.0557,640.7203 392.9695,645.5731 396.7623,649.7748 401.2923,653.1687 406.3905,655.628 411.8664,657.0609 417.8934,657.3985 423.4952,656.5861 428.8361,654.7115 433.7168,651.8448 438.2107,647.8145 441.7832,642.9488 444.16,637.8116"/>
    <polygon points="442.5663,637.3665 443.8991,631.8721 444.1097,626.5982 443.2193,621.015 441.3788,616.0683 438.6316,611.5615 435.0779,607.6591 430.8473,604.5032 426.0939,602.2089 420.6182,600.8012 415.3477,600.5186 409.7528,601.3326 404.7814,603.1054 400.2376,605.7908 396.0314,609.5688 392.6819,614.1236 390.4527,618.9078 389.12,624.4023 388.9094,629.6761 389.7998,635.2594 391.6403,640.2061 394.3875,644.7129 397.9412,648.6153 402.1718,651.7712 406.9251,654.0655 412.0279,655.4145 417.6714,655.7558 423.2662,654.9417 428.2376,653.1689 432.7815,650.4836 436.9877,646.7055 440.1436,642.4749"/>
    <polygon points="444.4935,638.1067 445.8763,632.6192 446.1761,626.5916 445.2515,620.6278 443.306,615.3137 440.3881,610.465 436.6037,606.2576 432.0901,602.8441 426.6568,600.2172 420.8047,598.7425 415.1526,598.4614 409.5499,599.2571 403.8567,601.2597 398.6858,604.3715 394.5026,608.1826 391.1179,612.7178 388.5255,618.1677 387.1428,623.6552 386.843,629.6828 387.6743,635.2804 389.713,640.9606 392.8576,646.1116 396.6953,650.2706 401.5774,653.8184 406.7182,656.184 412.2144,657.5318 418.2437,657.7933 424.2015,656.8309 429.5031,654.8516 434.3332,651.9029 438.5165,648.0918 442.0952,643.2324"/>
    <polygon points="440.1791,636.6872 441.3871,631.9402 441.6525,627.0491 440.8737,621.8332 439.1911,617.233 436.6492,613.0458 433.3443,609.4304 429.4018,606.5237 424.9708,604.4357 420.2193,603.2456 415.3272,602.9984 410.4799,603.7036 405.8611,605.3344 401.6456,607.8291 397.9933,611.093 395.0424,615.0027 392.9047,619.4099 391.6612,624.1477 391.3591,629.0367 392.0097,633.8916 393.5885,638.5285 396.0355,642.7717 399.5349,646.7172 403.4556,649.6534 407.8708,651.7746 412.6133,653.0003 417.5033,653.2841 422.7221,652.5248 427.3286,650.8595 431.5253,648.3333 435.153,645.042 438.0746,641.1104"/>
    <polygon points="439.8461,636.3926 441.015,631.6345 441.2238,626.7394 440.4644,621.8991 438.9291,617.6438 436.4232,613.4336 433.1371,609.7994 429.1996,606.8837 424.7649,604.8006 420.3802,603.6879 415.4888,603.4045 410.6375,604.09 406.0162,605.7176 401.8059,608.2235 398.1718,611.5096 395.256,615.4471 393.1729,619.8818 392.0041,624.6399 391.7768,629.1579 392.4623,634.0093 394.0899,638.6306 396.5959,642.8408 399.8819,646.4749 403.8194,649.3907 408.2541,651.4738 413.0122,652.6427 417.5302,652.8699 422.3816,652.1844 427.0029,650.5568 431.2131,648.0509 434.8473,644.7648 437.763,640.8273"/>
    <line x1="430.3941" x2="585.8155" y1="635.1606" y2="573.5225"/>
    <line x1="564.8147" x2="601.3402" y1="617.9302" y2="779.9626"/>
    <polygon points="608.1924,746.7677 611.6707,742.7854 614.7448,738.4834 617.3854,733.9025 619.5675,729.0863 621.2702,724.0805 622.5443,718.5608 623.2081,713.3152 623.3579,708.0299 622.9924,702.755 622.1151,697.5409 620.7342,692.4369 618.8629,687.4916 616.519,682.7521 613.7248,678.2632 610.5068,674.0678 606.8956,670.2056 602.9254,666.7134 598.6342,663.6244 594.0625,660.9678 589.2539,658.769 584.2541,657.0489 579.1105,655.8237 573.8721,655.1052 568.5886,654.9002 563.3102,655.2105 558.0872,656.0334 552.9691,657.3608 548.0045,659.1803 542.9093,661.6561 538.4108,664.4346 534.2042,667.638 530.3295,671.2358 526.8234,675.1937 523.7195,679.4742 521.047,684.0366 518.8315,688.8375 516.9886,694.1942 515.7814,699.342 515.0811,704.5828 514.8944,709.867 515.2232,715.1443 516.0642,720.3644 517.4095,725.4779 519.2463,730.4361 521.5571,735.1918 524.534,740.0114 527.752,744.2068 531.3632,748.069 535.3333,751.5612 539.6246,754.6503 544.1963,757.3068 549.0049,759.5056 554.0047,761.2258 559.5199,762.5191 564.7632,763.2011 570.048,763.3694 575.324,763.0223 580.5412,762.1631 585.65,760.8 590.6017,758.946 595.3494,756.6186 599.848,753.84 604.3428,750.3923"/>
    <line x1="521.7411" x2="693.6019" y1="772.8789" y2="586.3793"/>
    <line x1="609.6893" x2="582.4411" y1="622.6115" y2="493.2442"/>
    <line x1="576.0078" x2="582.2197" y1="491.1126" y2="472.342"/>
    <line x1="581.8676" x2="569.4438" y1="472.2255" y2="509.7667"/>
    <line x1="568.3877" x2="580.8115" y1="509.4172" y2="471.876"/>
    <line x1="581.1635" x2="562.5278" y1="471.9925" y2="528.3043"/>
    <line x1="562.8799" x2="581.5156" y1="528.4208" y2="472.109"/>
    <line x1="580.4595" x2="574.2475" y1="471.7595" y2="490.5301"/>
    <polygon points="582.5717,472.4585 580.1074,471.643 559.5979,537.7479"/>
    <line x1="614.8787" x2="481.7148" y1="515.3523" y2="685.1841"/>
    <line x1="484.6706" x2="494.9538" y1="637.6598" y2="618.969"/>
    <line x1="494.0168" x2="483.7336" y1="618.4535" y2="637.1443"/>
    <polygon points="483.4213,636.9725 484.9829,637.8317 509.9101,590.6751"/>
    <line x1="484.046" x2="504.6124" y1="637.3162" y2="599.9346"/>
    <line x1="504.9247" x2="484.3583" y1="600.1064" y2="637.488"/>
    <polygon points="490.1063,614.5827 492.7522,612.4891 494.4113,609.5513 494.838,606.2045 493.9688,602.9444 492.966,601.3512 491.6461,600.0088 488.6733,598.4132 485.318,598.0587 482.0774,598.9978 479.4315,601.0913 477.7723,604.0291 477.3457,607.376 477.6725,609.23 478.3876,610.9714 480.5375,613.5717 483.5104,615.1672 486.8656,615.5217"/>
    <polygon points="478.733,604.424 478.3858,607.3968 479.1938,610.2786 481.036,612.6375 483.6362,614.1197 486.6045,614.5031 489.496,613.7302 491.8771,611.9168 493.5061,608.9765 493.7808,605.9962 492.9028,603.1349 491.0037,600.8216 488.3682,599.4031 485.3915,599.0921 482.5197,599.9352 480.1835,601.806"/>
    <polygon points="529.757,644.6135 534.0337,649.9004 538.8126,654.7381 544.0468,659.0792 549.6849,662.8809 555.3308,665.9426 561.5927,668.5941 568.0862,670.6128 574.7476,671.979 581.5116,672.6794 588.3117,672.7069 595.081,672.0614 601.7533,670.7491 607.9067,668.9091 614.2041,666.3431 620.2167,663.1665 625.8854,659.4105 630.8732,655.3643 635.7175,650.5921 640.0657,645.3639 643.8752,639.731 647.1086,633.7489 649.7342,627.4761 651.7261,620.9742 653.0078,614.6808 653.7175,607.9178 653.7544,601.1178 653.1181,594.3475 651.8151,587.6735 649.8579,581.1611 647.266,574.8743 644.2579,569.1997 640.5097,563.5259 636.4704,558.5325 631.7048,553.6816 626.4826,549.3262 620.855,545.5089 615.2176,542.4317 608.963,539.763 602.4751,537.7264 595.8174,536.3418 589.0554,535.6229 582.2555,535.5766 575.4843,536.2035 569.1757,537.4082 563.0073,539.1973 556.6889,541.7112 550.6504,544.838 544.9508,548.5471 539.6463,552.8019 534.7889,557.5608 530.4263,562.777 526.6013,568.3994 523.3514,574.3726 520.7086,580.6382 518.7935,586.7686 517.3998,593.4244 516.6715,600.1854 516.6159,606.9852 517.2334,613.7572 518.5181,620.4349 520.3327,626.5958 522.8727,632.9038 526.0244,638.9294"/>
    <polygon points="641.3245,498.5887 637.553,496.8484 633.6286,495.4873 629.5895,494.5185 625.4746,493.9514 621.324,493.7915 617.1778,494.0405 613.0761,494.6957 609.0586,495.751 605.1644,497.196 601.4311,499.0169 597.8948,501.1959 594.5898,503.7119 591.5482,506.5406 588.7993,509.6546 586.3698,513.0237 584.2833,516.6154 582.5599,520.3947 581.2163,524.3251 580.2656,528.3685 579.5717,536.2594 579.802,540.4067 580.4389,544.5113 581.4762,548.5334 582.9038,552.4341 584.7079,556.1756 586.8711,559.7216 589.3723,563.0377 592.1874,566.092 595.289,568.8548 598.6472,571.2993 602.2295,573.4019 606.001,575.1422 609.9254,576.5033 613.9646,577.4721 618.0794,578.0392 622.23,578.199 626.3763,577.9501 630.478,577.2949 634.4954,576.2396 638.3896,574.7946 642.123,572.9737 645.6592,570.7947 648.9642,568.2787 652.0059,565.45 654.7547,562.336 657.1842,558.9668 659.2707,555.3752 660.9941,551.5959 663.2185,543.9933 663.8039,539.881 663.9824,535.7312 663.752,531.5839 663.1151,527.4793 662.0778,523.4572 660.6502,519.5565 658.8461,515.815 656.683,512.269 654.1817,508.9528 651.3667,505.8986 648.265,503.1358 644.9068,500.6913"/>
    <polygon points="523.2544,444.6235 525.9857,442.6088 528.2518,440.0822 529.7991,437.491 530.9485,434.2976 531.4266,430.9374 531.2714,427.9235 530.4506,424.6302 528.9792,421.5718 526.9183,418.8751 524.3535,416.6523 521.7364,415.1493 518.5239,414.0544 515.5336,413.6462 512.5188,413.7843 509.2209,414.5864 506.1542,416.0405 503.7255,417.832 501.4308,420.3327 499.6908,423.2468 498.5777,426.453 498.1377,429.8184 498.3271,432.8304 499.1852,436.1141 500.6912,439.1557 502.5238,441.5536 505.0632,443.8054 507.6631,445.3379 510.4969,446.3761 513.8484,446.9113 517.2388,446.7559 520.5274,445.9165"/>
    <polygon points="499.6331,439.4389 501.9108,442.435 504.4617,444.6653 507.3908,446.3687 510.958,447.5683 514.3212,447.9809 517.7013,447.7452 520.9747,446.8698 524.0213,445.3868 526.7296,443.3505 529.2218,440.5304 530.9096,437.5923 532.0068,434.3865 532.4849,430.6535 532.2312,427.2746 531.3384,424.0059 529.8392,420.9672 527.5297,417.9956 524.9552,415.7927 522.0082,414.1205 518.7965,413.0405 515.061,412.5822 511.6835,412.8539 508.4197,413.7641 505.389,415.2795 502.7026,417.3445 500.4588,419.8834 498.7398,422.8034 497.5212,426.3642 497.0907,429.7251 497.3084,433.1065 498.1664,436.3845"/>
    <polygon points="519.3597,389.7412 513.6007,393.3493 507.9198,397.7292 502.7032,402.6529 498.2366,407.7749 494.0684,413.6128 490.5022,419.8367 487.7112,426.0331 485.4132,432.8283 483.8032,439.8186 482.8973,446.9344 482.6967,453.7274 483.1811,460.8843 484.3757,467.9573 486.1518,474.5171 488.6891,481.2266 491.8818,487.6502 495.6981,493.7239 500.1003,499.3875 504.7716,504.3236 510.1841,509.0311 515.7201,512.9728 521.9394,516.5472 528.4836,519.4846 535.2878,521.7558 541.9124,523.2724 548.6506,524.1572 555.8198,524.3972 562.602,523.9649 569.6828,522.8168 576.614,520.9693 583.3269,518.4409 589.4245,515.4401 595.5231,511.6636 601.2155,507.2987 606.4449,502.3887 611.1595,496.9824 615.1085,491.4515 618.691,485.2369 621.637,478.6965 623.9171,471.8953 625.4424,465.2727 626.3361,458.5357 626.5855,451.3668 626.1199,444.2087 624.9438,437.1326 623.1849,430.5681 620.6653,423.852 617.4895,417.4201 613.689,411.3363 609.3017,405.6612 604.3712,400.4511 598.9463,395.7579 593.3999,391.8307 587.1713,388.2726 580.9712,385.4897 574.173,383.2007 567.1807,381.5999 560.0637,380.7033 553.2704,380.5116 546.4894,380.9616 539.4116,382.1284 532.4853,383.994 525.7791,386.5401"/>
    <polygon points="517.1329,379.9182 518.4274,377.6191 519.2694,375.1187 519.6406,372.1276 519.4352,369.4972 518.6042,366.6 517.3842,364.2606 515.7486,362.1903 513.7549,360.4622 511.1286,358.9834 508.6171,358.175 505.9987,357.8501 503.3658,358.0202 500.4577,358.8122 498.1021,360.0006 495.7371,361.8691 494.0359,363.8858 492.7414,366.1849 491.8994,368.6853 491.5282,371.6764 491.7336,374.3068 492.5646,377.204 493.7846,379.5434 495.4202,381.6137 497.4139,383.3419 500.0402,384.8206 502.5517,385.629 505.1701,385.9539 507.803,385.7838 510.7111,384.9919 513.0667,383.8034 515.4317,381.9349"/>
    <polygon points="429.8556,451.4324 458.6705,440.2169 436.1368,382.3231 407.3219,393.5386"/>
    <polygon points="313.6639,554.6875 304.2396,552.2286 310.4062,559.7676"/>
    <line x1="313.4603" x2="312.4858" y1="555.005" y2="554.3801"/>
    <line x1="313.2567" x2="311.3078" y1="555.3225" y2="554.0728"/>
    <line x1="310.1298" x2="313.053" y1="553.7654" y2="555.64"/>
    <line x1="312.8494" x2="308.9517" y1="555.9575" y2="553.458"/>
    <line x1="307.7737" x2="312.6458" y1="553.1507" y2="556.275"/>
    <line x1="312.4422" x2="306.5957" y1="556.5925" y2="552.8433"/>
    <line x1="305.4177" x2="312.2386" y1="552.5359" y2="556.91"/>
    <line x1="312.035" x2="304.2396" y1="557.2275" y2="552.2286"/>
    <line x1="305.0104" x2="311.8314" y1="553.171" y2="557.545"/>
    <line x1="311.6278" x2="305.7813" y1="557.8625" y2="554.1133"/>
    <line x1="306.5521" x2="311.4242" y1="555.0557" y2="558.18"/>
    <line x1="311.2206" x2="307.3229" y1="558.4975" y2="555.9981"/>
    <line x1="308.0937" x2="311.017" y1="556.9404" y2="558.815"/>
    <line x1="310.8134" x2="308.8645" y1="559.1325" y2="557.8828"/>
    <line x1="309.6354" x2="310.6098" y1="558.8252" y2="559.45"/>
    <polygon points="304.9772,588.7138 351.265,642.5556 353.1585,640.8681"/>
    <line x1="292.0848" x2="293.5229" y1="622.8659" y2="645.0278"/>
    <line x1="289.0659" x2="287.6279" y1="645.317" y2="623.1551"/>
    <polygon points="287.2565,623.1792 299.9225,778.1438 292.4563,622.8418"/>
    <line x1="287.9993" x2="290.8753" y1="623.131" y2="667.4548"/>
    <line x1="294.5895" x2="291.7134" y1="667.2138" y2="622.89"/>
    <line x1="289.1135" x2="296.3037" y1="623.0587" y2="733.8682"/>
    <polygon points="250.5234,691.5422 246.3586,694.1415 242.459,697.1241 238.5965,700.7339 235.1227,704.7192 232.2769,708.7197 229.8234,712.972 227.645,717.7891 226.0725,722.4398 224.8804,727.5904 224.2205,732.8358 224.0904,737.7435 224.4262,742.6414 225.3055,747.8545 226.7125,752.9506 228.4787,757.5313 230.8572,762.2528 233.4869,766.3985 236.4979,770.2762 240.1358,774.1122 243.8483,777.3246 247.8488,780.1703 252.1012,782.6239 256.9183,784.8022 261.569,786.3748 266.7196,787.5668 271.5884,788.1974 276.8727,788.3568 282.1457,787.9759 286.9837,787.1417 292.0798,785.7347 296.6605,783.9685 301.382,781.5901 305.5277,778.9604 309.4053,775.9493 313.2414,772.3115 316.4538,768.5989 319.5025,764.2798 322.0942,759.6719 324.068,755.1767 325.6065,750.5146 326.696,745.7276 327.3266,740.8589 327.4926,735.9523 327.1925,731.052 326.3513,725.8326 324.9816,720.7264 323.2489,716.1329 321.0884,711.7245 318.3057,707.2294 315.0785,703.0419 311.7133,699.4673 307.7281,695.9935 303.7276,693.1477 299.4752,690.6942 294.6581,688.5158 289.6438,686.8407 284.8568,685.7512 279.9881,685.1207 274.7037,684.9612 269.8058,685.297 264.9618,686.0959 260.2154,687.3505 255.2621,689.1983"/>
    <polygon points="239.6452,697.3007 240.7818,702.4638 242.5298,707.8514 244.8087,713.0367 247.5958,717.9676 250.6308,722.2964 254.3164,726.5973 258.4144,730.5073 262.8836,733.9869 267.679,737.0012 272.4064,739.3679 277.3345,741.282 282.7881,742.8116 288.3675,743.7871 293.639,744.1888 298.9249,744.0956 304.5518,743.4476 310.0854,742.2391 315.4701,740.4822 320.6516,738.1945 325.5778,735.3992 330.1992,732.1244 334.1962,728.6642 338.0993,724.5596 341.3542,720.3936 344.3925,715.6134 346.7829,710.8979 348.8424,705.6216 350.2787,700.5337 351.2821,694.9592 351.7219,689.3123 351.5936,683.6497 350.9625,678.4007 349.8431,673.2338 348.1132,667.8404 345.8516,662.6475 343.0811,657.7073 340.0606,653.3684 336.3894,649.0552 332.3044,645.1315 327.8469,641.6369 323.0617,638.6066 318.3422,636.2241 313.0624,634.1734 307.6037,632.662 302.0211,631.7053 296.7483,631.3212 291.0859,631.4589 285.4658,632.1633 280.3085,633.3259 274.9297,635.1008 270.0934,637.2361 265.1578,640.0149 260.824,643.0427 256.5169,646.7211 252.6001,650.8125 249.3313,654.9677 246.4656,659.4103 243.8709,664.4451 241.7937,669.7145 240.255,675.1656 239.2702,680.7433 238.8597,686.0141 238.969,691.6771"/>
    <polygon points="225.7734,704.4763 222.9381,709.3813 220.4429,714.885 218.6222,720.25 217.2522,726.1356 216.5164,731.7532 216.3186,737.4152 216.7023,743.446 217.6161,749.0373 219.1725,754.8764 221.1628,760.1808 223.6488,765.2718 226.8214,770.4149 230.2555,774.921 234.3731,779.3439 238.6226,783.091 243.5261,786.6227 248.4266,789.4658 253.9263,791.9697 259.2884,793.7989 265.1718,795.1783 270.7882,795.9229 276.8278,796.1244 282.4813,795.7557 288.4435,794.7715 293.9156,793.3036 299.57,791.1718 304.9789,788.4771 309.777,785.4645 314.5541,781.7636 318.67,777.8703 322.3967,773.603 325.905,768.6827 328.7247,763.7687 331.0641,758.6087 332.9019,753.2495 334.2905,747.3683 335.0753,741.3766 335.2552,735.7139 334.8954,730.0598 333.9207,724.096 332.4615,718.6216 330.3387,712.9638 327.8365,707.8808 324.6476,702.7478 321.1992,698.2526 317.0675,693.8428 312.5097,689.875 307.8915,686.5931 302.982,683.7656 297.4743,681.2792 292.1064,679.467 286.2187,678.1063 280.2232,677.3501 274.5598,677.1972 268.9074,677.5839 262.9484,678.5871 257.481,680.0723 252.1797,682.071 246.7623,684.7484 241.9546,687.7458 237.1658,691.4316 233.0376,695.3118 229.2973,699.5672"/>
    <polygon points="222.5956,732.6435 222.4594,737.9298 222.8472,743.2035 223.6733,748.0441 225.0566,753.148 226.9384,758.0898 229.3003,762.8211 232.119,767.2952 235.3668,771.4683 238.739,775.0379 242.7209,778.5175 247.0277,781.5858 251.6171,784.2126 256.4441,786.3721 261.4611,788.043 266.619,789.2091 271.4902,789.8296 276.7756,789.9939 282.0514,789.6341 287.2656,788.7537 292.367,787.3613 296.9592,785.622 301.7029,783.2853 306.192,780.4904 310.3823,777.2648 314.2326,773.6402 317.7052,769.6522 320.7658,765.34 323.2127,761.0824 325.3978,756.267 327.0954,751.2589 328.2888,746.1073 328.9663,740.8629 329.1212,735.5771 328.7521,730.302 327.9431,725.4586 326.5779,720.3498 324.7136,715.4014 322.3685,710.6618 319.5657,706.1777 316.3327,701.9931 312.7013,698.1492 308.7071,694.6837 304.3894,691.6307 299.7907,689.0202 295.3083,687.0148 290.2972,685.3261 285.1435,684.1418 279.8979,683.4736 274.6119,683.328 269.3375,683.7065 264.1264,684.6054 259.3891,685.8983 254.4439,687.7714 249.7085,690.1248 245.2294,692.9356 241.0505,696.176 237.475,699.5419 233.9884,703.5176 230.9125,707.819 228.2775,712.4037 226.1095,717.2269 224.4297,722.241 223.2545,727.3967"/>
    <polygon points="220.0033,737.7783 220.4042,743.4283 221.2935,748.6399 222.6721,753.7439 224.678,759.0411 227.0258,763.778 230.0265,768.5821 233.4989,773.0572 237.1337,776.8964 241.4124,780.608 245.7264,783.6643 250.6469,786.47 255.4743,788.6259 260.8477,790.4177 266.0029,791.5904 271.6225,792.2995 276.9075,792.444 282.5575,792.0431 287.7691,791.1537 293.2323,789.6582 298.1703,787.7693 302.9072,785.4214 307.7113,782.4207 311.8992,779.1938 316.0256,775.3135 319.5035,771.3316 322.7935,766.7209 325.5992,761.8003 327.7551,756.9729 329.4445,751.9632 330.7196,746.4444 331.4287,740.8247 331.5732,735.5398 331.1722,729.8897 330.2829,724.6782 328.7874,719.2149 326.8985,714.277 324.3659,709.2105 321.5499,704.7359 318.323,700.548 314.4427,696.4217 310.4608,692.9437 305.85,689.6537 301.2662,687.0194 296.1021,684.6921 291.0924,683.0027 285.5736,681.7276 279.9539,681.0186 274.669,680.8741 269.0189,681.275 263.8074,682.1643 258.7034,683.5429 253.4062,685.5488 248.6692,687.8966 243.8651,690.8974 239.6772,694.1242 235.5509,698.0045 232.0729,701.9864 228.7829,706.5972 225.9773,711.5178 223.8213,716.3451 222.0295,721.7185 220.8568,726.8737 220.1477,732.4933"/>
    <line x1="212.9782" x2="132.7827" y1="738.8976" y2="755.8586"/>
    <polygon points="221.4414,753.9207 223.4231,759.2296 225.9218,764.3156 228.9131,769.1284 232.3673,773.6206 235.9788,777.4849 240.2275,781.2345 244.8274,784.544 249.733,787.3805 254.896,789.7161 260.2653,791.5278 265.7878,792.7975 271.4092,793.5129 277.0738,793.6668 282.7257,793.2577 287.94,792.3714 293.4097,790.8902 298.3588,789.0242 303.4448,786.5254 308.2576,783.5341 312.7498,780.08 316.877,776.197 320.5984,771.9235 323.8773,767.3018 326.5097,762.7142 328.8453,757.5513 330.6569,752.182 331.9267,746.6594 332.6421,741.0381 332.8033,735.7513 332.4316,730.0969 331.5006,724.5072 330.0194,719.0375 328.0026,713.7419 325.6546,709.0025 322.6633,704.1896 319.2092,699.6974 315.3262,695.5702 311.0527,691.8488 306.431,688.5699 301.5067,685.766 296.6805,683.6019 291.3112,681.7903 285.7886,680.5205 280.1673,679.8051 274.5027,679.6512 269.2261,680.0156 263.6364,680.9466 258.1667,682.4278 252.8711,684.4446 247.8018,686.977 243.3188,689.7839 239.1152,692.9941 234.9624,696.8496 231.2127,701.0983 227.9033,705.6982 225.0667,710.6038 222.7311,715.7668 220.9195,721.1361 219.6497,726.6586 218.9343,732.28 218.7804,737.9446 219.1448,743.2212 220.0758,748.8109"/>
    <polygon points="224.6334,753.1678 226.5026,758.1131 228.8485,762.851 231.6486,767.3354 234.8756,771.5232 238.4984,775.3736 242.4819,778.8495 246.7876,781.9173 251.3739,784.5473 256.1963,786.7141 261.2082,788.3966 266.3612,789.5786 271.6054,790.2487 276.8901,790.4004 282.1641,790.0322 287.3764,789.1477 292.4766,787.7555 297.4154,785.8689 302.145,783.5064 306.6196,780.6906 310.7959,777.4489 314.6336,773.8126 318.0955,769.8169 321.1482,765.5004 323.762,760.9049 325.9118,756.0749 327.5767,751.0571 328.7406,745.9 329.3923,740.6535 329.5254,735.3683 329.1387,730.0956 328.2359,724.8865 326.8257,719.7912 324.9218,714.859 322.5426,710.1378 319.9279,705.9826 316.7008,701.7949 313.0781,697.9444 309.0945,694.4685 304.7888,691.4007 300.2026,688.7707 295.3801,686.604 290.3682,684.9215 285.2152,683.7394 279.971,683.0693 274.6863,682.9176 269.4123,683.2858 264.2,684.1703 259.0998,685.5626 254.161,687.4491 249.4315,689.8117 244.9569,692.6274 240.7805,695.8692 236.9428,699.5055 233.715,703.2046 230.6321,707.4995 227.986,712.0765 225.8023,716.8913 224.1022,721.8973 222.9021,727.0461 222.2135,732.2879 222.0433,737.572 222.3929,742.8473 223.2591,748.0627"/>
    <polygon points="224.9356,765.0648 227.9345,769.8688 231.3856,774.3589 235.5286,778.7546 239.8068,782.4652 244.4251,785.7429 249.3398,788.5566 254.5046,790.8797 259.8705,792.6903 265.7588,794.0374 271.3782,794.7402 277.0393,794.894 282.6885,794.4972 288.2726,793.5538 293.7386,792.0725 299.3808,789.9156 304.441,787.3728 309.2304,784.3507 313.7036,780.8777 317.8185,776.9868 321.5361,772.7146 324.8212,768.1017 327.6428,763.1915 329.9743,758.0305 331.8962,752.304 333.1503,746.7815 333.8622,741.1632 334.0251,735.5024 333.5922,729.4775 332.6216,723.8981 331.1138,718.4394 329.083,713.1528 326.5484,708.0885 323.534,703.2942 320.0683,698.8153 316.1841,694.6942 311.918,690.9697 306.992,687.4737 302.0682,684.676 296.8959,682.3696 291.5242,680.5765 286.0036,679.3134 280.3865,678.5924 274.726,678.4203 269.0755,678.7987 263.4884,679.7241 258.0176,681.1876 252.3685,683.3262 247.3,685.8526 242.5009,688.8592 237.7296,692.5635 233.6274,696.4677 229.9237,700.7519 226.6536,705.3755 223.8479,710.2948 221.5331,715.4633 219.7312,720.8322 218.4592,726.3507 217.7292,731.9666 217.5479,737.6269 217.9171,743.278 218.8334,748.8665 220.2881,754.3397 222.2673,759.6457"/>
    <polygon points="238.8697,774.5954 242.8351,778.0865 247.1288,781.165 251.7079,783.8001 256.5269,785.9657 261.5377,787.6401 266.3188,788.7405 271.1813,789.3935 276.4608,789.59 281.7336,789.2594 286.9473,788.4048 292.0497,787.0347 296.9902,785.1628 301.7195,782.8078 305.8807,780.2089 310.0719,776.9923 313.6587,773.6451 317.1569,769.6859 320.243,765.3978 322.8863,760.8234 325.0604,756.0083 326.7438,751.0004 327.9196,745.8497 328.576,740.6075 328.7067,735.3259 328.356,730.4323 327.4735,725.2233 326.0762,720.1283 324.1779,715.1979 321.9832,710.8101 319.1765,706.3341 315.9376,702.1601 312.2988,698.3298 308.5934,695.1143 304.2888,692.0511 299.7003,689.4324 295.2253,687.4214 290.2204,685.7291 285.0718,684.5442 279.8308,683.8783 274.5494,683.7382 269.2804,684.1253 264.4447,684.9534 259.3472,686.3417 254.7593,688.0799 250.0217,690.418 245.5407,693.2167 241.6486,696.2037 237.786,699.8082 234.302,703.7798 231.2312,708.079 228.6043,712.6628 226.4473,717.4856 224.7818,722.4994 223.69,727.2825 223.0148,732.5224 222.8653,737.8035 223.1985,742.6982 224.0625,747.9103 225.4416,753.0103 227.3223,757.9475 229.6857,762.6725 232.2921,766.8291 235.2721,770.7264"/>
    <polygon points="239.5678,782.7972 244.185,786.0745 249.0966,788.8913 254.6087,791.3589 259.9813,793.1461 265.5011,794.407 271.1168,795.1298 277.1536,795.3002 282.8012,794.8954 288.3834,793.9479 293.8482,792.4666 299.1448,790.4654 304.5534,787.7786 309.3481,784.7671 313.8301,781.3073 317.9577,777.4314 321.6923,773.1757 325.2037,768.2622 328.1912,763.0138 330.4881,757.8386 332.2753,752.466 333.5362,746.9461 334.259,741.3304 334.437,735.6712 334.0685,730.0211 333.0771,724.0639 331.5958,718.599 329.5946,713.3024 326.9078,707.8938 323.8963,703.0991 320.1906,698.3305 316.2883,694.228 312.0086,690.5208 307.3914,687.2436 302.4798,684.4267 297.3194,682.0966 291.5952,680.1719 286.0753,678.9111 280.0831,678.1594 274.4228,678.0178 268.7753,678.4227 263.1931,679.3702 257.3693,680.9688 252.0857,683.0042 247.023,685.5394 242.2283,688.551 237.7463,692.0108 233.6188,695.8866 229.8841,700.1424 226.3727,705.0558 223.5559,709.9674 221.2258,715.1278 219.404,720.4888 218.0402,726.3719 217.3174,731.9876 217.1395,737.6469 217.5079,743.2969 218.4993,749.2542 220.098,755.0779 222.1333,760.3615 224.6686,765.4242 227.6802,770.2189 231.3858,774.9876 235.2881,779.0901"/>
    <polygon points="246.3075,782.5805 250.8875,785.2167 255.7011,787.3976 260.703,789.1026 266.2179,790.3833 271.4593,791.0571 277.1188,791.2129 282.3894,790.8284 287.598,789.9359 292.6959,788.5438 297.6352,786.6651 302.3696,784.3174 307.1645,781.3068 311.3359,778.0626 315.1741,774.43 318.6428,770.4433 321.9126,765.8213 324.5171,761.2231 326.6645,756.3946 328.3349,751.381 329.5125,746.2293 330.1863,740.9879 330.35,735.7059 330.002,730.4329 329.1455,725.2182 327.673,719.7514 325.7943,714.8121 323.4466,710.0776 320.652,705.5925 317.4367,701.3986 313.5592,697.2732 309.5725,693.8044 305.2689,690.7376 300.6889,688.1013 295.5238,685.7827 290.5102,684.1123 285.3585,682.9347 280.1171,682.2609 274.4576,682.1052 269.1871,682.4897 263.9784,683.3822 258.8806,684.7743 253.9413,686.653 249.2068,689.0006 244.412,692.0112 240.2405,695.2555 236.1419,699.1614 232.7009,703.1721 229.6638,707.4968 227.0594,712.0949 224.9119,716.9234 223.2415,721.937 222.0639,727.0887 221.3901,732.3301 221.2264,737.6121 221.5745,742.8852 222.4309,748.0998 223.9035,753.5667 225.7822,758.506 228.1298,763.2404 230.9244,767.7256 234.1397,771.9194 237.7456,775.7826 242.0039,779.5136"/>
    <polygon points="246.2642,779.6584 243.9797,774.0626 241.1623,768.7152 237.8386,763.6669 233.7878,758.6841 229.5244,754.3998 224.8648,750.5501 219.8533,747.1713 214.5371,744.2954 208.9667,741.9497 203.1947,740.1564 196.9022,738.8751 190.8885,738.2685 184.8443,738.2492 178.8269,738.8172 172.8932,739.9673 167.0992,741.6884 161.4999,743.9644 155.8232,746.9664 150.7901,750.313 146.106,754.1329 141.8152,758.3898 137.9584,763.0435 134.572,768.0499 131.688,773.3617 129.3339,778.9286 127.4379,785.0639 126.2409,790.9884 125.6252,797.0011 125.5967,803.0452 126.1555,809.0635 127.2966,814.999 129.0089,820.7956 131.436,826.7408 134.2697,832.0796 137.6087,837.1178 141.4214,841.8077 145.6718,846.1049 150.3196,849.9688 155.3209,853.3628 160.6283,856.2549 166.5466,858.747 172.324,860.5228 178.2467,861.7288 184.2585,862.3536 190.3025,862.3914 196.3217,861.8416 202.626,860.6198 208.4146,858.881 214.007,856.588 219.35,853.7625 224.3933,850.4312 229.089,846.6256 233.6477,842.1028 237.4904,837.4374 240.8616,832.4207 243.7293,827.1002 246.0665,821.5262 247.8511,815.7515 249.0661,809.8307 249.7001,803.8198 249.7304,797.3983 249.1532,791.3817 247.9942,785.4497"/>
    <polygon points="255.0001,790.1957 260.3762,791.9834 265.9022,793.2327 271.5244,793.9315 276.8104,794.0809 282.4631,793.7008 288.0509,792.7656 293.5193,791.2843 298.8152,789.2715 303.887,786.7467 308.6854,783.7344 313.1636,780.2641 317.278,776.3694 320.7547,772.3848 324.0559,767.7805 326.8874,762.8733 329.2216,757.711 331.0359,752.3439 332.3124,746.8241 333.039,741.2053 333.2083,735.5424 332.8189,729.8903 331.8745,724.3041 330.3843,718.8381 328.3628,713.5455 326.0139,708.8077 323.0254,703.9946 319.5772,699.4993 315.7028,695.3656 311.44,691.6338 306.8302,688.3402 301.9184,685.5168 296.7523,683.191 291.3822,681.3856 285.8603,680.1181 280.2404,679.4009 274.5771,679.2408 268.9257,679.6395 263.341,680.5931 257.8775,682.0923 252.5883,684.1226 247.5248,686.6641 242.7364,689.6921 238.2696,693.1772 234.168,697.0854 230.7044,701.0813 227.4184,705.6965 224.6031,710.613 222.2858,715.7829 220.4893,721.156 219.2308,726.68 218.5228,732.3011 218.3721,737.9645 218.7801,743.6153 219.6616,748.8294 221.1338,754.3003 223.1379,759.5995 225.6544,764.6754 228.6587,769.4787 232.1217,773.9626 236.0097,778.0835 240.2847,781.8012 244.9053,785.0797 249.8264,787.887"/>
    <polygon points="237.499,674.4338 236.4912,680.01 236.008,686.0347 236.1141,691.7003 236.8227,697.7027 238.1386,703.6017 239.9116,708.9838 242.1903,714.172 244.9537,719.1191 248.1766,723.7799 252.0877,728.3879 256.4474,732.5739 260.902,736.0763 265.6706,739.1376 271.0539,741.8853 276.689,744.0707 282.1484,745.5888 288.1028,746.6258 293.7541,747.0429 299.4193,746.9186 305.4193,746.1909 311.3142,744.8563 316.6905,743.0661 321.8715,740.7709 327.1293,737.7899 331.759,734.5226 336.0558,730.8283 340.2279,726.4552 343.7161,721.9895 346.7621,717.2112 349.4926,711.8191 351.5416,706.536 353.1608,700.7128 354.1331,695.1303 354.5681,689.4805 354.4356,683.4379 353.7533,677.8125 352.5373,672.278 350.6644,666.5314 348.2164,661.0053 345.4215,656.0759 341.9366,651.1378 338.2286,646.8528 334.1286,642.9413 329.3654,639.2207 324.5775,636.1899 319.5221,633.6299 313.8871,631.4444 308.4276,629.9264 302.4732,628.8894 296.822,628.4723 291.1568,628.5966 285.1567,629.3243 279.6261,630.558 273.8855,632.4491 268.7046,634.7443 263.4468,637.7253 258.8171,640.9926 254.5203,644.6869 250.5957,648.7744 247.0791,653.2178 244.0027,657.9766 241.2379,663.3511 239.0344,668.9792"/>
    <polygon points="239.3947,669.1859 237.8697,674.6388 236.8753,680.2129 236.4098,686.2341 236.5633,692.2715 237.2681,697.8895 238.5091,703.414 240.2748,708.7937 242.549,713.979 245.3105,718.922 248.7646,723.876 252.4478,728.1765 256.5269,732.1033 260.9642,735.6204 266.0459,738.8836 271.0903,741.4553 276.3584,743.5307 282.1692,745.176 287.7433,746.1703 293.7646,746.6359 299.4253,746.5101 305.0478,745.8413 310.5801,744.6358 316.3241,742.7708 321.5095,740.4967 326.4525,737.7351 331.1075,734.5116 335.7069,730.5978 339.8814,726.2336 343.3699,721.7739 346.4141,716.9997 348.9857,711.9553 351.1814,706.3293 352.7064,700.8764 353.748,694.9277 354.1663,689.281 354.0405,683.6203 353.308,677.6257 352.067,672.1012 350.3013,666.7215 347.8579,661.1986 345.0647,656.2734 341.5789,651.3416 337.8683,647.0649 333.7641,643.1642 328.9953,639.4586 324.2018,636.4451 319.141,633.9058 313.8597,631.8643 308.4069,630.3392 302.4581,629.2977 296.8115,628.8793 290.7742,629.0328 285.1561,629.7376 279.6317,630.9786 274.2519,632.7444 268.729,635.1877 263.8038,637.9809 259.1696,641.2342 254.8692,644.9173 250.6947,649.2815 247.2062,653.7413 244.162,658.5155 241.5903,663.5599"/>
    <line x1="250.0362" x2="233.0068" y1="649.6737" y2="628.0945"/>
    <line x1="233.9118" x2="250.9412" y1="627.3803" y2="648.9595"/>
    <polygon points="273.544,630.8357 268.0113,633.2702 262.747,636.2408 257.8029,639.7184 253.502,643.4087 249.3136,647.767 245.5776,652.5188 242.5188,657.2895 239.7597,662.6677 237.547,668.2928 235.9026,674.1094 234.8426,680.0604 234.3773,686.087 234.5115,692.1302 235.2438,698.1303 236.5669,704.0283 238.4679,709.7662 240.7584,714.9498 243.7208,720.2187 247.1907,725.1682 251.134,729.7495 255.5117,733.9176 260.2809,737.6314 265.3945,740.8545 270.8023,743.555 276.092,745.5885 281.9163,747.2059 287.8721,748.2382 293.9009,748.6754 299.5664,748.5408 305.5676,747.8178 311.4677,746.5038 317.2085,744.6117 322.7337,742.1602 327.9887,739.1732 332.624,735.9128 337.2114,731.9767 341.3863,727.6055 345.1075,722.8421 348.3385,717.7334 351.0474,712.3298 353.0891,707.0432 354.7155,701.2215 355.7571,695.2673 356.2036,689.2392 356.0507,683.1965 355.2998,677.1987 353.9584,671.3049 352.1761,665.9253 349.7331,660.3964 346.7543,655.1367 343.2691,650.198 339.3117,645.6289 334.921,641.4745 330.1404,637.7754 325.3461,634.7537 319.9467,632.0364 314.3046,629.8674 308.8441,628.3511 302.8915,627.3003 296.8641,626.8444 290.8212,626.9879 285.1948,627.6658 279.2907,628.9615"/>
    <polygon points="284.8347,627.3142 278.9377,628.6361 273.1995,630.5319 267.6757,632.9831 262.4199,635.966 257.4831,639.4516 252.9132,643.4061 248.7547,647.791 245.0478,652.5639 241.8285,657.6783 239.1282,663.0847 236.9729,668.7306 235.3836,674.5612 234.3758,680.5198 233.9678,686.171 234.1093,692.2126 234.8446,698.211 236.1665,704.1079 238.0623,709.8461 240.5136,715.3699 243.295,720.3061 246.7501,725.2643 250.6763,729.8584 255.0356,734.0439 259.7855,737.7801 264.88,741.0308 270.2697,743.7644 275.9022,745.9544 281.7229,747.5796 287.6752,748.6241 293.7014,749.0778 299.743,748.9363 305.3689,748.2643 311.2738,746.9787 317.0236,745.1183 322.5624,742.7011 327.8365,739.7506 332.7947,736.2955 337.3888,732.3693 341.5743,728.0101 345.3105,723.2601 348.5612,718.1656 351.2949,712.7759 353.4849,707.1434 355.11,701.3228 356.1545,695.3704 356.6082,689.3442 356.493,683.6795 355.7947,677.6767 354.5091,671.7718 352.6487,666.022 350.2315,660.4832 347.2811,655.2091 343.826,650.2509 339.8997,645.6568 335.5405,641.4713 330.7906,637.7351 325.6961,634.4844 320.3064,631.7508 314.6739,629.5608 308.8532,627.9356 302.9009,626.8911 296.8747,626.4374 290.833,626.5789"/>
    <polygon points="285.5159,630.0888 279.9845,631.3042 274.2437,633.1836 269.0644,635.4747 264.131,638.2559 259.4896,641.5012 254.9098,645.44 251.0064,649.5434 247.5183,654.0051 244.4779,658.7832 241.9139,663.833 239.8503,669.107 238.3065,674.5559 237.2968,680.1286 236.8193,686.1503 236.9653,692.1891 237.6673,697.8089 238.9094,703.3343 240.6802,708.7138 242.9629,713.8968 245.7361,718.8347 248.9739,723.4813 252.6459,727.7929 257.0024,731.9774 261.4585,735.4728 266.2317,738.5209 271.2773,741.093 276.548,743.1651 281.9944,744.7178 287.5654,745.7364 293.5863,746.2237 299.2487,746.1142 304.8739,745.4576 310.4092,744.2601 316.1561,742.3992 321.6803,739.9556 326.6048,737.1584 331.2356,733.8982 335.5294,730.2053 339.446,726.1145 342.9486,721.6641 346.0043,716.8959 348.5846,711.8544 350.6652,706.5871 352.3119,700.7752 353.3036,695.1993 353.7513,689.5537 353.651,683.8912 353.0035,678.2649 351.8149,672.7277 349.9633,666.9778 347.6973,661.7875 344.7394,656.5206 341.4866,651.8845 337.8007,647.5848 333.7162,643.6616 329.2715,640.1519 324.5082,637.0884 319.1265,634.3449 313.8491,632.2899 308.3977,630.7548 302.4487,629.7067 296.8009,629.2863 291.139,629.4141"/>
    <polygon points="308.8714,627.1051 302.9196,626.0729 296.8957,625.6234 290.8566,625.7608 284.4873,626.5483 278.5965,627.8858 272.8635,629.7888 267.3422,632.2394 262.0849,635.2144 257.1413,638.6856 252.5579,642.6203 248.3781,646.9814 244.4234,652.0361 241.1961,657.1423 238.4796,662.5377 236.2998,668.1713 234.6771,673.99 233.6269,679.9386 233.1591,685.9611 233.2781,692.0006 234.0462,698.3724 235.3658,704.2671 237.2514,710.0059 239.6852,715.5346 242.6442,720.8009 246.3322,726.0533 250.2808,730.6247 254.6546,734.7912 259.4121,738.5134 264.5085,741.7563 269.8957,744.4891 275.5226,746.6861 281.7046,748.4101 287.6564,749.4422 293.6803,749.8917 299.7194,749.7544 305.7167,749.0314 311.9795,747.6294 317.7126,745.7263 323.2338,743.2758 328.4911,740.3008 333.4348,736.8296 338.0182,732.8948 342.198,728.5338 345.9347,723.7875 349.193,718.701 352.0964,712.9775 354.2763,707.3438 355.899,701.5252 356.9492,695.5766 357.417,689.5541 357.298,683.5146 356.5933,677.5152 355.3095,671.6125 353.3247,665.5093 350.8909,659.9806 347.9319,654.7143 344.4757,649.7601 340.5549,645.1648 336.2065,640.9718 331.4717,637.2207 326.3951,633.9469 320.6804,631.0261 315.0534,628.8291"/>
    <line x1="263.7061" x2="255.8667" y1="496.5487" y2="481.067"/>
    <line x1="256.2045" x2="263.4839" y1="480.896" y2="495.2718"/>
    <line x1="262.8084" x2="255.529" y1="495.6139" y2="481.2381"/>
    <line x1="255.1912" x2="261.9106" y1="481.4091" y2="494.6791"/>
    <line x1="261.0129" x2="254.8534" y1="493.7443" y2="481.5801"/>
    <line x1="254.5157" x2="260.1152" y1="481.7511" y2="492.8095"/>
    <line x1="259.2175" x2="254.1779" y1="491.8747" y2="481.9222"/>
    <line x1="253.8402" x2="258.3198" y1="482.0932" y2="490.9399"/>
    <line x1="257.4221" x2="253.5024" y1="490.0051" y2="482.2642"/>
    <line x1="253.1647" x2="256.5244" y1="482.4352" y2="489.0703"/>
    <line x1="255.6267" x2="252.8269" y1="488.1354" y2="482.6063"/>
    <line x1="252.4891" x2="254.729" y1="482.7773" y2="487.2006"/>
    <line x1="253.8312" x2="252.1514" y1="486.2658" y2="482.9483"/>
    <line x1="251.8136" x2="252.9335" y1="483.1194" y2="485.331"/>
    <line x1="252.0358" x2="251.4759" y1="484.3962" y2="483.2904"/>
    <polygon points="251.1381,483.4614 263.7061,496.5487 260.5953,478.6726"/>
    <line x1="256.5422" x2="263.2617" y1="480.725" y2="493.995"/>
    <line x1="263.0395" x2="256.88" y1="492.7181" y2="480.5539"/>
    <line x1="257.2178" x2="262.8173" y1="480.3829" y2="491.4413"/>
    <line x1="262.5951" x2="257.5555" y1="490.1644" y2="480.2119"/>
    <line x1="257.8933" x2="262.3729" y1="480.0409" y2="488.8875"/>
    <line x1="262.1507" x2="258.231" y1="487.6107" y2="479.8698"/>
    <line x1="258.5688" x2="261.9285" y1="479.6988" y2="486.3338"/>
    <line x1="261.7063" x2="258.9065" y1="485.0569" y2="479.5278"/>
    <line x1="259.2443" x2="261.4841" y1="479.3567" y2="483.7801"/>
    <line x1="261.2619" x2="259.5821" y1="482.5032" y2="479.1857"/>
    <line x1="259.9198" x2="261.0397" y1="479.0147" y2="481.2264"/>
    <line x1="260.8175" x2="260.2576" y1="479.9495" y2="478.8437"/>
  </g>
</svg>
