<?xml version="1.0" encoding="utf-8" ?>
<svg xmlns="http://www.w3.org/2000/svg" xmlns:cc="http://creativecommons.org/ns" xmlns:dc="http://purl.org/dc/elements/1.1/" xmlns:ev="http://www.w3.org/2001/xml-events" xmlns:inkscape="http://www.inkscape.org/namespaces/inkscape" xmlns:rdf="http://www.w3.org/1999/02/22-rdf-syntax-ns" xmlns:sodipodi="http://sodipodi.sourceforge.net/DTD/sodipodi-0.dtd" xmlns:xlink="http://www.w3.org/1999/xlink" baseProfile="tiny" height="29.7cm" version="1.2" viewBox="0 0 793.7007874015749 1122.5196850393702" width="21.0cm">
  <metadata>
    <rdf:RDF>
      <cc:Work>
        <dc:format>image/svg+xml</dc:format>
        <dc:source>vsk save -s 86 -c C:\Users\marti\Documents\git\putti-plotter-plot\sixfeet\config\1.json C:\Users\marti\Documents\git\putti-plotter-plot\sixfeet\sketch_sixfeet.py</dc:source>
        <dc:date>2023-11-19T17:46:43.713708</dc:date>
      </cc:Work>
    </rdf:RDF>
  </metadata>
  <defs/>
  <g fill="none" id="layer1" inkscape:groupmode="layer" inkscape:label="1" stroke="#0000ff" style="display:inline">
    <polygon points="533.0931,845.1145 537.9994,844.9634 542.4938,844.3872 547.2795,843.2957 551.9313,841.7292 556.0659,839.8751 560.3298,837.4434 564.328,834.5959 568.02,831.3613 571.1239,828.0601 574.1252,824.176 576.7213,820.0102 578.7352,815.9511 580.482,811.3639 581.6781,806.9933 582.5104,802.1559 582.8528,797.2593 582.7017,792.353 582.0586,787.4868 580.9302,782.7097 579.4674,778.4211 577.4416,773.9501 575.1817,770.0226 572.3342,766.0244 569.0995,762.3324 565.7983,759.2285 562.2236,756.444 558.0779,753.8158 553.6893,751.6172 549.1021,749.8704 544.7316,748.6743 539.8941,747.842 534.9975,747.4996 530.0913,747.6507 525.5968,748.227 520.8112,749.3184 516.1593,750.885 512.0248,752.7391 507.7609,755.1707 504.0599,757.7851 500.3429,760.991 496.9667,764.5541 493.9654,768.4381 491.3694,772.604 489.2048,777.0095 487.6086,781.2503 486.3313,785.9897 485.5364,790.8335 485.2379,795.3549 485.389,800.2611 485.9652,804.7556 487.0567,809.5412 488.4862,813.8411 490.4773,818.3276 492.7068,822.2725 495.5233,826.2926 498.7293,830.0095 502.2923,833.3857 506.1764,836.387 510.3422,838.983 514.4013,840.997 518.9885,842.7438 523.728,844.0211 528.1966,844.7722"/>
    <line x1="488.2039" x2="379.0446" y1="791.3909" y2="683.386"/>
    <line x1="379.3168" x2="472.8819" y1="683.1109" y2="775.6865"/>
    <line x1="472.3376" x2="378.7725" y1="776.2366" y2="683.661"/>
    <line x1="378.5003" x2="456.4712" y1="683.9361" y2="761.0824"/>
    <line x1="457.5598" x2="379.5889" y1="759.9822" y2="682.8358"/>
    <line x1="379.8611" x2="442.2378" y1="682.5608" y2="744.2779"/>
    <line x1="440.6049" x2="378.2282" y1="745.9282" y2="684.2111"/>
    <line x1="377.956" x2="424.7386" y1="684.4862" y2="730.774"/>
    <line x1="426.9157" x2="380.1332" y1="728.5736" y2="682.2857"/>
    <line x1="380.4053" x2="411.5937" y1="682.0107" y2="712.8692"/>
    <line x1="408.8722" x2="377.6839" y1="715.6198" y2="684.7612"/>
    <line x1="377.4117" x2="393.0059" y1="685.0363" y2="700.4656"/>
    <line x1="396.2717" x2="380.6775" y1="697.1649" y2="681.7356"/>
    <polygon points="380.9496,681.4606 377.1396,685.3113 488.2039,791.3909"/>
    <polygon points="361.5878,676.5014 480.5472,582.0403 478.0955,579.0323"/>
    <line x1="361.5878" x2="479.3214" y1="676.5014" y2="580.5363"/>
    <line x1="479.5665" x2="385.3797" y1="580.8371" y2="657.6092"/>
    <line x1="384.8894" x2="479.0762" y1="657.0076" y2="580.2355"/>
    <line x1="478.831" x2="408.1909" y1="579.9347" y2="637.5138"/>
    <line x1="409.1716" x2="479.8117" y1="638.717" y2="581.1379"/>
    <line x1="480.0569" x2="432.9635" y1="581.4387" y2="619.8247"/>
    <line x1="431.4924" x2="478.5858" y1="618.02" y2="579.6339"/>
    <line x1="478.3406" x2="454.7939" y1="579.3331" y2="598.5261"/>
    <line x1="456.7554" x2="480.3021" y1="600.9325" y2="581.7395"/>
    <line x1="471.146" x2="405.6432" y1="597.9712" y2="711.3352"/>
    <line x1="421.673" x2="470.8001" y1="682.7943" y2="597.7713"/>
    <line x1="470.4542" x2="437.7028" y1="597.5714" y2="654.2535"/>
    <line x1="439.0864" x2="471.8379" y1="655.0529" y2="598.3709"/>
    <line x1="472.1838" x2="455.8081" y1="598.5708" y2="626.9118"/>
    <line x1="453.7326" x2="470.1083" y1="625.7126" y2="597.3716"/>
    <polygon points="469.7624,597.1717 405.6432,711.3352 472.5297,598.7707"/>
    <line x1="471.492" x2="422.3648" y1="598.1711" y2="683.1941"/>
    <line x1="463.1564" x2="463.9499" y1="704.3644" y2="706.4497"/>
    <line x1="465.0992" x2="463.5123" y1="708.3996" y2="704.229"/>
    <line x1="463.8681" x2="466.2485" y1="704.0936" y2="710.3496"/>
    <line x1="467.3978" x2="464.224" y1="712.2995" y2="703.9582"/>
    <line x1="464.5799" x2="468.5472" y1="703.8228" y2="714.2494"/>
    <line x1="469.6965" x2="464.9357" y1="716.1994" y2="703.6874"/>
    <line x1="465.2916" x2="470.8458" y1="703.552" y2="718.1493"/>
    <line x1="471.9951" x2="465.6475" y1="720.0992" y2="703.4166"/>
    <line x1="466.0033" x2="473.1444" y1="703.2812" y2="722.0491"/>
    <line x1="474.212" x2="467.0709" y1="721.6429" y2="702.8749"/>
    <line x1="466.715" x2="474.6496" y1="703.0104" y2="723.8637"/>
    <line x1="474.2937" x2="466.3592" y1="723.9991" y2="703.1458"/>
    <line x1="467.4268" x2="473.7744" y1="702.7395" y2="719.4222"/>
    <line x1="473.3368" x2="467.7826" y1="717.2015" y2="702.6041"/>
    <line x1="468.1385" x2="472.8992" y1="702.4687" y2="714.9807"/>
    <line x1="472.4616" x2="468.4944" y1="712.76" y2="702.3333"/>
    <line x1="468.8502" x2="472.024" y1="702.1979" y2="710.5393"/>
    <line x1="471.5865" x2="469.2061" y1="708.3185" y2="702.0625"/>
    <line x1="469.5619" x2="471.1489" y1="701.9271" y2="706.0978"/>
    <line x1="470.7113" x2="469.9178" y1="703.8771" y2="701.7917"/>
    <polygon points="470.2737,701.6563 462.8006,704.4998 474.8684,724.974"/>
    <polygon points="536.5071,667.7633 539.8157,668.4992 542.8292,668.556 545.8001,668.0478 548.9609,666.8238 551.4993,665.1987 553.9338,662.8403 555.6389,660.3549 556.8486,657.5942 557.5203,654.656 557.6303,651.6439 557.0784,648.2996 556.0066,645.4826 554.1958,642.6173 552.1115,640.4401 549.6565,638.6915 546.9176,637.4333 543.6179,636.6584 540.6052,636.5662 537.2643,637.1377 534.4536,638.2261 531.8963,639.8213 529.6826,641.8669 527.7,644.616 526.3396,647.7205 525.7025,650.6665 525.6586,654.0557 526.2191,657.0172 527.4987,660.1559 529.1684,662.6652 531.2782,664.8177 533.7536,666.5373"/>
    <polygon points="539.7002,667.8758 542.7118,667.9577 545.682,667.4527 548.4974,666.3801 551.0506,664.7808 553.2444,662.7158 554.995,660.2638 556.2358,657.5184 556.9193,654.5841 557.0196,651.573 556.5327,648.5998 555.4773,645.7779 553.8937,643.215 551.8421,641.0086 549.4009,639.243 546.6631,637.9855 543.7331,637.2841 540.7226,637.1654 537.3826,637.7333 534.5806,638.8403 532.047,640.4706 529.8787,642.5623 528.1581,645.0355 526.9511,647.7959 526.3035,650.7383 526.24,653.7504 526.7632,656.7174 527.853,659.5262 529.4678,662.0696 531.5462,664.2507 534.0088,665.9863 536.7618,667.2103"/>
    <line x1="566.4822" x2="566.1787" y1="678.7783" y2="679.7913"/>
    <line x1="566.5446" x2="567.1515" y1="679.9009" y2="677.8747"/>
    <line x1="567.8207" x2="566.9104" y1="676.9712" y2="680.0105"/>
    <line x1="567.2762" x2="568.49" y1="680.1201" y2="676.0677"/>
    <line x1="569.1593" x2="567.6421" y1="675.1642" y2="680.2297"/>
    <line x1="568.0079" x2="569.8286" y1="680.3392" y2="674.2607"/>
    <line x1="570.4979" x2="568.3738" y1="673.3572" y2="680.4488"/>
    <line x1="568.7396" x2="571.1672" y1="680.5584" y2="672.4537"/>
    <line x1="571.8365" x2="569.1055" y1="671.5501" y2="680.668"/>
    <line x1="569.4713" x2="572.5058" y1="680.7776" y2="670.6466"/>
    <line x1="573.1751" x2="569.8371" y1="669.7431" y2="680.8871"/>
    <line x1="570.203" x2="573.8444" y1="680.9967" y2="668.8396"/>
    <line x1="574.5136" x2="570.5688" y1="667.9361" y2="681.1063"/>
    <line x1="570.9347" x2="575.1829" y1="681.2159" y2="667.0326"/>
    <line x1="575.2453" x2="571.3005" y1="668.1552" y2="681.3255"/>
    <line x1="571.6664" x2="575.3077" y1="681.435" y2="669.2779"/>
    <line x1="575.3701" x2="572.0322" y1="670.4006" y2="681.5446"/>
    <line x1="572.3981" x2="575.4325" y1="681.6542" y2="671.5233"/>
    <line x1="575.4949" x2="572.7639" y1="672.6459" y2="681.7638"/>
    <line x1="573.1297" x2="575.5573" y1="681.8734" y2="673.7686"/>
    <line x1="575.6197" x2="573.4956" y1="674.8913" y2="681.9829"/>
    <line x1="573.8614" x2="575.6821" y1="682.0925" y2="676.014"/>
    <line x1="575.7445" x2="574.2273" y1="677.1366" y2="682.2021"/>
    <line x1="574.5931" x2="575.8069" y1="682.3117" y2="678.2593"/>
    <line x1="575.8693" x2="574.959" y1="679.382" y2="682.4212"/>
    <line x1="575.3248" x2="575.9317" y1="682.5308" y2="680.5046"/>
    <line x1="575.9941" x2="575.6906" y1="681.6273" y2="682.6404"/>
    <polygon points="576.0565,682.75 575.1829,667.0326 565.8129,679.6818"/>
    <line x1="580.6015" x2="585.3046" y1="677.6274" y2="672.2842"/>
    <line x1="584.656" x2="580.8935" y1="673.6098" y2="677.8845"/>
    <line x1="581.1855" x2="584.0073" y1="678.1415" y2="674.9355"/>
    <line x1="583.3587" x2="581.4775" y1="676.2612" y2="678.3985"/>
    <line x1="581.7695" x2="582.7101" y1="678.6555" y2="677.5869"/>
    <line x1="580.3094" x2="585.9532" y1="677.3704" y2="670.9585"/>
    <line x1="586.6018" x2="580.0174" y1="669.6328" y2="677.1134"/>
    <line x1="579.7254" x2="587.2504" y1="676.8564" y2="668.3071"/>
    <line x1="586.9584" x2="579.4334" y1="668.0501" y2="676.5993"/>
    <line x1="579.1414" x2="585.7257" y1="676.3423" y2="668.8617"/>
    <line x1="584.4931" x2="578.8494" y1="669.6733" y2="676.0853"/>
    <line x1="578.5574" x2="583.2605" y1="675.8282" y2="670.485"/>
    <line x1="582.0278" x2="578.2654" y1="671.2966" y2="675.5712"/>
    <line x1="577.9733" x2="580.7952" y1="675.3142" y2="672.1082"/>
    <line x1="579.5626" x2="577.6813" y1="672.9199" y2="675.0572"/>
    <line x1="577.3893" x2="578.3299" y1="674.8001" y2="673.7315"/>
    <polygon points="577.0973,674.5431 582.0615,678.9126 587.5747,667.6443"/>
    <line x1="595.2299" x2="585.6046" y1="682.2544" y2="706.2253"/>
    <polygon points="585.2664,706.0895 587.9717,707.1758 625.1202,610.7491"/>
    <line x1="585.9427" x2="605.1933" y1="706.3611" y2="658.4193"/>
    <line x1="606.546" x2="587.2954" y1="658.9624" y2="706.9043"/>
    <line x1="586.9572" x2="615.8331" y1="706.7685" y2="634.8557"/>
    <line x1="615.1568" x2="586.2809" y1="634.5842" y2="706.4969"/>
    <line x1="586.6191" x2="625.1202" y1="706.6327" y2="610.7491"/>
    <line x1="615.0957" x2="614.0131" y1="533.9727" y2="533.9437"/>
    <line x1="615.1057" x2="612.9404" y1="533.6019" y2="533.5438"/>
    <line x1="611.8677" x2="615.1156" y1="533.1439" y2="533.231"/>
    <line x1="615.1256" x2="610.795" y1="532.8601" y2="532.744"/>
    <line x1="609.7223" x2="615.1355" y1="532.344" y2="532.4892"/>
    <line x1="615.1455" x2="608.6496" y1="532.1184" y2="531.9441"/>
    <polygon points="608.6496,531.9441 615.0858,534.3436 615.2052,529.8931"/>
    <line x1="609.7422" x2="615.1554" y1="531.6023" y2="531.7475"/>
    <line x1="615.1654" x2="610.8348" y1="531.3766" y2="531.2605"/>
    <line x1="611.9274" x2="615.1753" y1="530.9186" y2="531.0058"/>
    <line x1="615.1853" x2="613.02" y1="530.6349" y2="530.5768"/>
    <line x1="614.1126" x2="615.1952" y1="530.235" y2="530.264"/>
    <polygon points="581.9835,504.8855 565.7684,496.4826 563.8028,506.6182"/>
    <line x1="581.3829" x2="564.822" y1="504.5742" y2="501.3627"/>
    <line x1="564.8948" x2="580.1818" y1="500.9873" y2="503.9518"/>
    <line x1="579.9634" x2="564.6764" y1="505.078" y2="502.1135"/>
    <line x1="564.6036" x2="578.6167" y1="502.4889" y2="505.2063"/>
    <line x1="577.27" x2="564.5308" y1="505.3347" y2="502.8643"/>
    <line x1="564.458" x2="575.9233" y1="503.2397" y2="505.463"/>
    <line x1="574.5765" x2="564.3852" y1="505.5914" y2="503.6151"/>
    <line x1="564.3124" x2="573.2298" y1="503.9904" y2="505.7197"/>
    <line x1="571.8831" x2="564.2396" y1="505.8481" y2="504.3658"/>
    <line x1="564.1668" x2="570.5364" y1="504.7412" y2="505.9764"/>
    <line x1="569.1897" x2="564.094" y1="506.1048" y2="505.1166"/>
    <line x1="564.0212" x2="567.843" y1="505.492" y2="506.2331"/>
    <line x1="566.4963" x2="563.9484" y1="506.3615" y2="505.8674"/>
    <line x1="563.8756" x2="565.1495" y1="506.2428" y2="506.4898"/>
    <line x1="564.7492" x2="581.3101" y1="501.7381" y2="504.9496"/>
    <line x1="578.9807" x2="564.9676" y1="503.3294" y2="500.6119"/>
    <line x1="565.0404" x2="577.7795" y1="500.2365" y2="502.7069"/>
    <line x1="576.5784" x2="565.1132" y1="502.0845" y2="499.8611"/>
    <line x1="565.186" x2="575.3773" y1="499.4857" y2="501.4621"/>
    <line x1="574.1762" x2="565.2588" y1="500.8396" y2="499.1103"/>
    <line x1="565.3316" x2="572.9751" y1="498.735" y2="500.2172"/>
    <line x1="571.774" x2="565.4044" y1="499.5948" y2="498.3596"/>
    <line x1="565.4772" x2="570.5728" y1="497.9842" y2="498.9723"/>
    <line x1="569.3717" x2="565.55" y1="498.3499" y2="497.6088"/>
    <line x1="565.6228" x2="568.1706" y1="497.2334" y2="497.7275"/>
    <line x1="566.9695" x2="565.6956" y1="497.105" y2="496.858"/>
    <polygon points="538.8031,526.6636 538.6762,520.2424 537.8744,513.4899 536.4939,507.2176 534.3867,500.7525 531.806,494.8713 528.6756,489.2635 525.024,483.9802 520.8846,479.0696 516.0122,474.3264 510.9923,470.3204 505.2862,466.6218 499.5796,463.6752 493.2603,461.1642 486.7195,459.3049 480.3992,458.1644 473.6211,457.6204 467.1997,457.7382 460.819,458.4687 454.1719,459.9023 447.7038,462.0004 441.819,464.5728 436.2068,467.6954 430.6184,471.5694 425.4502,475.9885 421.0027,480.6218 417.0179,485.6586 413.3435,491.3803 410.4209,497.0992 407.9366,503.4291 406.1049,509.9776 404.9911,516.3027 404.4863,522.7053 404.6206,529.5039 405.378,535.8815 406.8396,542.5225 408.8298,548.6287 411.5622,554.8555 414.91,560.7742 418.606,566.0266 422.7867,570.902 427.6989,575.604 432.7525,579.5675 438.4896,583.2177 444.2208,586.1161 450.5611,588.5737 457.1173,590.3778 463.447,591.4649 469.8517,591.9427 476.2727,591.8068 483.024,590.9954 489.2944,589.6061 495.4034,587.6245 501.2954,585.0686 507.2375,581.7625 512.5157,578.1035 517.6963,573.699 522.1568,569.0782 526.3758,563.7454 529.8462,558.3413 532.7849,552.6306 535.2869,546.3078 537.0517,540.1326 538.2687,533.4425"/>
    <polygon points="521.5768,550.4486 515.9816,548.1858 510.418,547.1484 504.7588,547.2005 499.2152,548.3399 493.9943,550.5243 489.0002,553.9133 485.0418,557.9582 481.9353,562.6888 479.7965,567.9286 478.7054,573.4819 478.7027,579.1413 479.8988,585.0571 482.0999,590.271 485.2627,594.9642 489.2691,598.9615 493.9695,602.1137 499.55,604.4125 505.1068,605.4857 510.7662,605.4702 516.317,604.3665 521.5519,602.2159 526.2755,599.0987 530.5522,594.8399 533.6892,590.1294 535.8617,584.9035 536.9886,579.3574 537.0278,573.6981 535.8699,567.7747 533.7024,562.5468 530.57,557.8332 526.2974,553.5704"/>
    <polygon points="505.1159,465.8277 499.0415,462.7707 493.0503,460.456 486.867,458.7187 480.1722,457.5258 473.3916,457.0095 466.9704,457.1481 460.5911,457.8937 453.9458,459.3373 447.8321,461.3057 441.5929,464.0104 435.9769,467.1269 430.3805,470.99 425.4754,475.1362 420.7342,480.0111 416.7261,485.0297 413.0201,490.7314 409.904,496.7757 407.531,502.7439 405.646,509.2777 404.4251,515.9674 403.8929,522.3681 403.9922,529.1676 404.7722,535.923 406.127,542.2012 408.202,548.6771 410.7484,554.5735 414.0397,560.5242 417.681,565.815 422.0636,571.0146 426.9451,575.7489 431.9693,579.7501 437.6762,583.4481 443.7248,586.5557 449.6964,588.9204 456.2327,590.7963 462.9242,592.008 469.7033,592.5431 476.1249,592.4224 482.5063,591.6946 489.1555,590.2695 495.6286,588.1854 501.5214,585.6309 507.4675,582.3313 513.0531,578.4526 517.9467,574.2927 522.6742,569.4046 526.8883,564.0674 530.3584,558.6628 533.3015,552.9541 535.814,546.635 537.6808,540.096 538.834,533.7777 539.3975,527.0008 539.2792,520.2016 538.4803,513.4484 537.1081,507.174 535.1482,501.0576 532.4522,494.8146 529.1443,488.8731 525.2578,483.2929 520.8319,478.1302 516.1965,473.6844 510.8534,469.4778"/>
    <polygon points="467.4291,458.329 461.0469,459.0439 454.398,460.4672 448.2824,462.4277 442.3841,464.9682 436.4367,468.264 431.1558,471.9185 426.2516,476.0649 421.7696,480.6644 417.7516,485.6743 414.2349,491.048 411.0941,497.0787 408.7071,503.0407 406.9056,509.205 405.6548,515.8885 405.1052,522.2871 405.198,529.086 405.9838,535.84 407.3548,542.1141 409.3239,548.2269 411.8728,554.1215 415.177,560.0643 418.8391,565.34 423.2512,570.5137 427.8824,574.963 433.2287,579.1642 438.6469,582.612 444.372,585.5217 450.3508,587.8664 456.896,589.7088 463.2199,590.8274 469.6222,591.3316 476.0433,591.2166 482.4235,590.4835 488.7033,589.1392 494.8244,587.1961 501.0694,584.5063 507.0074,581.1936 512.2779,577.5241 517.4454,573.1047 521.888,568.4672 525.8633,563.4233 529.5218,557.6918 532.4234,551.9626 534.7596,545.9805 536.5085,539.8011 537.654,533.4819 538.1854,527.0819 538.0733,520.2832 537.3312,513.9041 535.978,507.6262 533.8931,501.1541 531.3276,495.2667 528.2067,489.6539 524.3294,484.0681 520.1623,479.1816 515.5437,474.7192 510.5168,470.7225 504.801,467.0397 499.0841,464.1137 493.112,461.7521 486.9401,459.9768 480.6259,458.8044 473.8505,458.2322"/>
    <polygon points="418.0431,486.3029 414.5565,491.6958 411.4549,497.7464 409.112,503.7256 407.3615,509.9042 406.2199,516.2237 405.6981,522.6242 405.801,529.0452 406.5276,535.4258 407.8711,541.7055 409.8186,547.8248 412.3519,553.7258 415.4468,559.3526 419.3034,564.9523 423.4567,569.8502 428.0666,574.321 433.0893,578.3226 438.4772,581.8169 444.1792,584.7708 450.1415,587.1565 456.6752,589.038 462.9931,590.1886 469.3929,590.7196 475.814,590.6259 482.5684,589.8469 488.8423,588.4765 494.9532,586.5026 500.8433,583.944 506.4568,580.8249 511.7404,577.1749 516.9198,572.77 521.3708,568.141 525.3507,563.1012 528.8219,557.6983 531.7513,551.9836 534.1113,546.0112 535.9647,539.4695 537.0882,533.1467 537.5917,526.7447 537.4704,520.324 536.7255,513.9456 535.3641,507.6697 533.399,501.556 530.8488,495.6623 527.7378,490.0443 523.8652,484.4557 519.6978,479.5698 515.0752,475.1121 510.0411,471.125 504.6432,467.6461 498.9327,464.7085 492.6057,462.2189 486.4246,460.4772 480.1034,459.3447 473.7021,458.832 467.2813,458.9441 460.9018,459.6799 454.624,461.0323 448.5075,462.9887 442.6101,465.5304 436.6667,468.8328 431.3936,472.4979 426.5017,476.6583 422.0374,481.2745"/>
    <line x1="348.5957" x2="330.3619" y1="455.9412" y2="464.2254"/>
    <line x1="329.5552" x2="347.789" y1="462.4498" y2="454.1656"/>
    <line x1="347.9504" x2="311.4828" y1="454.5207" y2="471.0891"/>
    <line x1="311.9668" x2="348.4344" y1="472.1545" y2="455.5861"/>
    <line x1="348.273" x2="293.5717" y1="455.2309" y2="480.0836"/>
    <line x1="293.4103" x2="348.1117" y1="479.7285" y2="454.8758"/>
    <polygon points="324.8078,469.9976 334.755,627.4989 340.7201,627.0084"/>
    <line x1="324.8078" x2="337.7375" y1="469.9976" y2="627.2536"/>
    <line x1="337.3647" x2="326.0512" y1="627.2843" y2="489.6853"/>
    <line x1="326.7968" x2="338.1104" y1="489.624" y2="627.223"/>
    <line x1="338.4832" x2="328.7858" y1="627.1923" y2="509.2503"/>
    <line x1="327.2946" x2="336.9919" y1="509.3729" y2="627.3149"/>
    <line x1="336.6191" x2="328.538" y1="627.3456" y2="529.0606"/>
    <line x1="330.7749" x2="338.856" y1="528.8767" y2="627.1617"/>
    <line x1="339.2288" x2="332.7639" y1="627.131" y2="548.503"/>
    <line x1="329.7814" x2="336.2462" y1="548.7482" y2="627.3763"/>
    <line x1="335.8734" x2="331.0248" y1="627.4069" y2="568.4359"/>
    <line x1="334.753" x2="339.6017" y1="568.1294" y2="627.1004"/>
    <line x1="339.9745" x2="336.742" y1="627.0697" y2="587.7557"/>
    <line x1="332.2682" x2="335.5006" y1="588.1236" y2="627.4376"/>
    <line x1="335.1278" x2="333.5116" y1="627.4682" y2="607.8112"/>
    <line x1="338.7311" x2="340.3473" y1="607.3821" y2="627.0391"/>
    <line x1="350.174" x2="292.1872" y1="574.4561" y2="557.8186"/>
    <line x1="292.2831" x2="350.2698" y1="557.4845" y2="574.122"/>
    <line x1="321.3724" x2="292.379" y1="565.4691" y2="557.1503"/>
    <polygon points="292.4749,556.8162 291.9955,558.4869 364.7186,578.4484"/>
    <line x1="292.0914" x2="321.0847" y1="558.1528" y2="566.4715"/>
    <line x1="289.4044" x2="288.7348" y1="601.7875" y2="601.9306"/>
    <line x1="288.1467" x2="289.486" y1="602.4555" y2="602.1693"/>
    <line x1="289.5675" x2="287.5586" y1="602.551" y2="602.9803"/>
    <line x1="286.9706" x2="289.6491" y1="603.5051" y2="602.9328"/>
    <line x1="289.7307" x2="286.3825" y1="603.3145" y2="604.03"/>
    <line x1="286.4641" x2="289.8123" y1="604.4117" y2="603.6963"/>
    <line x1="289.8938" x2="287.2153" y1="604.078" y2="604.6504"/>
    <line x1="287.9665" x2="289.9754" y1="604.889" y2="604.4598"/>
    <line x1="290.057" x2="288.7177" y1="604.8415" y2="605.1277"/>
    <line x1="289.4689" x2="290.1385" y1="605.3663" y2="605.2232"/>
    <polygon points="290.2201,605.605 289.3228,601.4058 286.0885,604.2924"/>
    <polygon points="253.2113,528.7573 247.8354,533.5055 242.7041,539.0435 238.3789,544.7652 234.6309,550.8807 231.4958,557.3318 229.0032,564.0573 227.1768,570.9935 226.0339,578.0744 225.5855,585.233 225.8357,592.4012 226.7822,599.5111 228.5208,606.858 230.8611,613.638 233.8501,620.1581 237.4593,626.3565 241.8908,632.4689 246.6596,637.8265 251.9271,642.6946 257.6434,647.0272 263.754,650.783 270.5486,654.0743 277.2836,656.541 284.2268,658.3407 291.3121,659.4563 298.4723,659.8772 305.6395,659.5994 313.1167,658.5552 320.0858,656.8588 326.8568,654.4923 333.3654,651.4783 339.5498,647.8453 345.3514,643.6278 350.7151,638.8658 355.5901,633.6045 359.9299,627.8939 363.6936,621.7881 366.9936,614.9977 369.469,608.2658 371.2775,601.325 372.4022,594.2411 372.8323,587.0814 372.5637,579.9139 371.599,572.8064 369.8416,565.4641 367.4838,558.6901 364.3025,551.8433 360.6457,545.6729 356.406,539.8875 351.6234,534.5422 346.3434,529.6875 340.6161,525.3696 334.4958,521.6295 328.0407,518.5026 320.9514,515.9062 314.0037,514.1243 306.9156,513.0269 299.7543,512.6244 292.5878,512.9206 285.4842,513.9126 278.5107,515.5911 271.7337,517.9402 265.2174,520.9375 259.0237,524.5547"/>
    <polygon points="284.3741,484.0481 348.7571,456.2963 347.6277,453.8105"/>
    <polygon points="257.1177,417.9532 306.1644,301.7022 254.0376,416.6051"/>
    <line x1="256.7755" x2="268.017" y1="417.8034" y2="392.1197"/>
    <line x1="265.6213" x2="254.3798" y1="391.0711" y2="416.7549"/>
    <line x1="254.7221" x2="277.2051" y1="416.9047" y2="365.5371"/>
    <line x1="278.9162" x2="256.4333" y1="366.2861" y2="417.6536"/>
    <line x1="256.091" x2="289.8155" y1="417.5038" y2="340.4525"/>
    <line x1="288.7888" x2="255.0643" y1="340.0032" y2="417.0545"/>
    <line x1="255.4066" x2="300.3725" y1="417.2042" y2="314.4692"/>
    <line x1="300.7148" x2="255.7488" y1="314.619" y2="417.354"/>
    <line x1="259.3786" x2="257.6912" y1="333.7307" y2="333.0498"/>
    <line x1="259.5222" x2="256.1474" y1="333.3749" y2="332.013"/>
    <line x1="254.6037" x2="259.6658" y1="330.9762" y2="333.019"/>
    <line x1="259.8094" x2="253.0599" y1="332.6631" y2="329.9394"/>
    <line x1="251.5161" x2="259.953" y1="328.9026" y2="332.3072"/>
    <line x1="260.0966" x2="249.9724" y1="331.9514" y2="327.8659"/>
    <line x1="248.4286" x2="260.2402" y1="326.8291" y2="331.5955"/>
    <line x1="260.3838" x2="246.8848" y1="331.2396" y2="325.7923"/>
    <line x1="245.3411" x2="260.5275" y1="324.7555" y2="330.8837"/>
    <line x1="260.6711" x2="243.7973" y1="330.5279" y2="323.7187"/>
    <line x1="242.2535" x2="260.8147" y1="322.6819" y2="330.172"/>
    <line x1="260.9583" x2="240.7098" y1="329.8161" y2="321.6451"/>
    <line x1="241.1406" x2="261.3891" y1="320.5775" y2="328.7485"/>
    <line x1="261.2455" x2="239.3096" y1="329.1044" y2="320.2524"/>
    <line x1="239.166" x2="261.1019" y1="320.6083" y2="329.4602"/>
    <line x1="261.5327" x2="242.9716" y1="328.3926" y2="320.9025"/>
    <line x1="244.8025" x2="261.6763" y1="321.2276" y2="328.0367"/>
    <line x1="261.8199" x2="246.6335" y1="327.6809" y2="321.5526"/>
    <line x1="248.4645" x2="261.9635" y1="321.8777" y2="327.325"/>
    <line x1="262.1071" x2="250.2955" y1="326.9691" y2="322.2027"/>
    <line x1="252.1265" x2="262.2507" y1="322.5277" y2="326.6132"/>
    <line x1="262.3944" x2="253.9575" y1="326.2574" y2="322.8528"/>
    <line x1="255.7885" x2="262.538" y1="323.1778" y2="325.9015"/>
    <line x1="262.6816" x2="257.6194" y1="325.5456" y2="323.5029"/>
    <line x1="259.4504" x2="262.8252" y1="323.8279" y2="325.1897"/>
    <line x1="262.9688" x2="261.2814" y1="324.8339" y2="324.1529"/>
    <polygon points="238.3941,320.0899 259.235,334.0866 263.1124,324.478"/>
    <polygon points="174.2417,561.7243 244.1177,522.1694 226.3717,490.8201 156.4958,530.375"/>
    <polygon points="255.5346,721.0904 252.9723,720.4678 250.7119,720.4 248.4802,720.7655 246.3595,721.5508 244.428,722.7271 242.757,724.2509 241.4081,726.0661 240.3072,728.4621 239.8085,730.6679 239.7406,732.9283 240.1061,735.1601 240.8915,737.2808 242.0678,739.2122 243.5916,740.8832 245.4068,742.2321 247.4463,743.2091 250.0086,743.8317 252.269,743.8996 254.5007,743.5341 256.6214,742.7487 258.5529,741.5724 260.2239,740.0486 261.5728,738.2335 262.5498,736.194 263.1724,733.6316 263.2403,731.3712 262.8748,729.1395 262.0894,727.0188 260.9131,725.0873 259.3893,723.4163 257.5742,722.0675"/>
    <polygon points="255.3245,721.5086 253.14,720.9598 250.8901,720.8549 248.6639,721.1978 246.5499,721.975 244.6317,723.1557 242.9856,724.693 241.6767,726.5261 240.757,728.5822 240.2629,730.7797 240.5153,734.8852 241.275,737.0056 242.4397,738.9335 243.9633,740.5924 245.7854,741.9164 247.8338,742.8532 250.0271,743.3656 254.1346,743.1472 256.2612,742.4053 258.1987,741.2566 259.8702,739.7468 261.2094,737.9358 262.6358,734.0778 262.7968,731.8312 262.5095,729.5972 261.7852,727.4644 260.6527,725.5174 259.1569,723.8334 257.357,722.4793"/>
    <polygon points="256.9585,722.7829 255.2587,721.9793 253.0742,721.4199 251.1974,721.3076 248.9618,721.6025 246.8355,722.3534 244.9104,723.5276 243.5202,724.7936 242.1714,726.6006 241.3531,728.2934 240.7747,730.473 240.6596,732.725 241.0126,734.9522 241.654,736.7196 242.8115,738.6548 244.3442,740.3088 246.1858,741.6102 247.8993,742.3841 250.0932,742.9055 251.9717,742.9852 254.2018,742.6515 256.3148,741.8639 257.9199,740.8848 259.5872,739.3665 260.9045,737.5363 261.8148,735.4733 262.2337,733.6403 262.3297,731.7626 262.0153,729.5296 261.4047,727.7514 260.2809,725.7964 258.7772,724.116"/>
    <polygon points="261.285,724.8086 259.7693,723.1339 257.6488,721.5715 255.6002,720.62 253.0384,720.0077 250.781,719.93 248.5477,720.2685 246.074,721.1731 244.1493,722.3553 242.4745,723.871 240.9122,725.9914 239.9607,728.04 239.3484,730.6018 239.2984,733.2352 239.7054,735.457 240.5138,737.5662 241.6959,739.4909 243.2117,741.1657 245.3321,742.7281 247.3807,743.6795 249.9425,744.2918 252.5759,744.3419 254.7977,743.9348 256.9069,743.1264 258.8316,741.9443 260.5064,740.4286 262.0687,738.3081 263.0202,736.2595 263.6325,733.6977 263.6825,731.0643 263.2755,728.8425 262.4671,726.7333"/>
    <polygon points="262.8444,726.4484 261.6568,724.5299 259.8693,722.5992 257.7224,721.0782 255.6657,720.1504 253.1045,719.5477 250.8499,719.4609 248.25,719.8649 246.128,720.6319 243.8706,721.9834 241.9399,723.7709 240.4188,725.9178 239.4911,727.9745 238.8884,730.5357 238.8016,732.7903 239.2056,735.3902 239.9725,737.5122 241.3241,739.7697 243.1116,741.7003 245.2585,743.2214 247.3152,744.1492 249.8764,744.7519 252.131,744.8386 254.7309,744.4346 257.1919,743.5037 259.1103,742.3161 261.041,740.5286 262.5621,738.3817 263.4898,736.325 264.0925,733.7638 264.1793,731.5092 263.7753,728.9093"/>
    <polygon points="238.4343,730.4236 238.3316,732.6856 238.703,735.2998 239.5884,737.7874 240.9522,740.0484 242.7397,741.9919 244.8789,743.5397 247.2839,744.6297 249.4838,745.1658 252.1206,745.3044 254.7321,744.9143 257.2133,744.0111 259.4645,742.6311 261.395,740.8297 262.7355,739.0049 263.8769,736.6239 264.5205,734.063 264.6403,731.4253 264.3218,729.1835 263.4722,726.6834 262.1409,724.4031 260.6566,722.6933 258.5859,721.0548 256.23,719.8624 253.6836,719.1639 251.049,718.9874 248.4322,719.34 245.9383,720.2075 243.6676,721.5551 241.7114,723.3286 240.1483,725.4567 239.0411,727.8538"/>
    <polygon points="388.084,795.034 402.112,781.7717 395.9652,777.4113"/>
    <line x1="388.084" x2="399.0386" y1="795.034" y2="779.5915"/>
    <line x1="398.7313" x2="388.8721" y1="779.3735" y2="793.2717"/>
    <line x1="389.4868" x2="399.346" y1="793.7078" y2="779.8096"/>
    <line x1="399.6533" x2="390.8896" y1="780.0276" y2="792.3815"/>
    <line x1="389.6603" x2="398.4239" y1="791.5095" y2="779.1555"/>
    <line x1="398.1166" x2="390.4484" y1="778.9375" y2="789.7472"/>
    <line x1="391.2365" x2="397.8093" y1="787.9849" y2="778.7195"/>
    <line x1="397.5019" x2="392.0246" y1="778.5014" y2="786.2227"/>
    <line x1="392.8127" x2="397.1946" y1="784.4604" y2="778.2834"/>
    <line x1="396.8872" x2="393.6009" y1="778.0654" y2="782.6981"/>
    <line x1="394.389" x2="396.5799" y1="780.9359" y2="777.8474"/>
    <line x1="396.2726" x2="395.1771" y1="777.6294" y2="779.1736"/>
    <line x1="399.9606" x2="392.2924" y1="780.2456" y2="791.0553"/>
    <line x1="393.6952" x2="400.268" y1="789.7291" y2="780.4636"/>
    <line x1="400.5753" x2="395.098" y1="780.6816" y2="788.4029"/>
    <line x1="396.5008" x2="400.8826" y1="787.0766" y2="780.8997"/>
    <line x1="401.19" x2="397.9036" y1="781.1177" y2="785.7504"/>
    <line x1="399.3064" x2="401.4973" y1="784.4242" y2="781.3357"/>
    <line x1="401.8047" x2="400.7092" y1="781.5537" y2="783.098"/>
    <polygon points="419.2651,633.3345 420.1508,639.6943 421.6494,645.9381 423.7469,652.007 426.5984,658.1786 429.8603,663.7095 433.6435,668.8978 437.9124,673.6944 442.6266,678.0542 447.7415,681.9359 453.2091,685.303 458.9775,688.1236 465.3528,690.485 471.5668,692.1028 477.9085,693.1098 484.3179,693.4968 490.7347,693.26 497.4696,692.3319 503.7112,690.8243 509.7771,688.7181 515.61,686.0333 521.4709,682.5881 526.6538,678.7974 531.4443,674.5217 535.7974,669.8013 539.6718,664.6808 543.2119,658.8766 545.9912,653.0882 548.1957,647.0573 549.8045,640.841 550.8026,634.4979 551.1804,628.0879 550.9005,621.2951 549.9966,614.9379 548.4801,608.6984 546.3653,602.6355 543.6722,596.8065 540.4261,591.2663 536.6577,586.0672 532.4025,581.2584 527.7008,576.8851 522.597,572.9888 517.1391,569.6061 511.0316,566.6197 504.6496,564.2766 498.431,562.6766 492.0865,561.6876 485.6759,561.319 479.2599,561.5742 472.8989,562.4508 466.6529,563.9405 460.581,566.0293 454.4053,568.8719 448.8697,572.1259 443.6761,575.9018 438.8733,580.1637 434.5068,584.8717 430.6178,589.9811 427.2429,595.4438 424.2652,601.5556 421.9312,607.9409 420.3401,614.1618 419.3602,620.5077 419.0008,626.9188"/>
    <polygon points="547.1722,636.8812 543.8768,636.082 540.4878,635.9674 537.146,636.5423 534.3274,637.6134 531.4472,639.403 528.9897,641.7393 527.0568,644.5254 525.8445,647.2862 525.1015,650.5947 525.0167,653.6088 525.5726,656.9538 526.7952,660.1167 528.6335,662.966 530.7234,665.1395 533.4984,667.0882 536.2523,668.316 539.5566,669.0778 542.9466,669.1539 545.9182,668.6428 549.088,667.4382 551.6491,665.8469 553.8809,663.8194 555.9075,661.1007 557.3408,658.0276 558.1213,654.7278 558.2167,651.3382 557.7223,648.3638 556.5358,645.1873 554.959,642.6172 552.6648,640.1202 549.912,638.1402"/>
    <line x1="597.2588" x2="587.6336" y1="683.0691" y2="707.04"/>
    <polygon points="590.3772,445.0323 591.969,440.3532 587.9662,441.6018"/>
    <line x1="590.4996" x2="590.0063" y1="444.6724" y2="444.5046"/>
    <line x1="589.6353" x2="590.6221" y1="443.9768" y2="444.3125"/>
    <line x1="590.7445" x2="589.2644" y1="443.9525" y2="443.449"/>
    <line x1="588.8935" x2="590.8669" y1="442.9212" y2="443.5926"/>
    <line x1="590.9894" x2="588.5226" y1="443.2327" y2="442.3935"/>
    <line x1="588.1517" x2="591.1118" y1="441.8657" y2="442.8727"/>
    <line x1="591.2343" x2="588.2741" y1="442.5128" y2="441.5058"/>
    <line x1="588.8899" x2="591.3567" y1="441.3137" y2="442.1528"/>
    <line x1="591.4792" x2="589.5057" y1="441.7929" y2="441.1216"/>
    <line x1="590.1215" x2="591.6016" y1="440.9295" y2="441.433"/>
    <line x1="591.7241" x2="590.7374" y1="441.073" y2="440.7374"/>
    <line x1="591.3532" x2="591.8465" y1="440.5453" y2="440.7131"/>
    <polygon points="606.9221,432.2128 611.3598,435.4446 615.4607,425.1507"/>
    <line x1="607.2179" x2="608.0606" y1="432.4282" y2="431.2711"/>
    <line x1="607.5138" x2="609.1991" y1="432.6437" y2="430.3295"/>
    <line x1="610.3375" x2="607.8096" y1="429.3879" y2="432.8591"/>
    <line x1="608.1055" x2="611.476" y1="433.0746" y2="428.4463"/>
    <line x1="612.6145" x2="608.4013" y1="427.5047" y2="433.29"/>
    <line x1="608.6972" x2="613.753" y1="433.5055" y2="426.5631"/>
    <line x1="614.6405" x2="609.5847" y1="427.2095" y2="434.1518"/>
    <line x1="609.2889" x2="615.1873" y1="433.9364" y2="425.8369"/>
    <line x1="614.8915" x2="608.993" y1="425.6215" y2="433.7209"/>
    <line x1="609.8806" x2="614.0938" y1="434.3673" y2="428.582"/>
    <line x1="613.547" x2="610.1764" y1="429.9545" y2="434.5827"/>
    <line x1="610.4723" x2="613.0002" y1="434.7982" y2="431.327"/>
    <line x1="612.4534" x2="610.7681" y1="432.6995" y2="435.0137"/>
    <line x1="611.064" x2="611.9066" y1="435.2291" y2="434.072"/>
    <line x1="615.9235" x2="635.3895" y1="420.8413" y2="432.9075"/>
    <line x1="635.5912" x2="596.6592" y1="432.5821" y2="408.4496"/>
    <line x1="597.8695" x2="636.8016" y1="406.497" y2="430.6295"/>
    <line x1="637.0033" x2="617.5373" y1="430.3041" y2="418.2378"/>
    <line x1="636.5998" x2="578.2017" y1="430.9549" y2="394.7561"/>
    <line x1="577.3949" x2="635.7929" y1="396.0579" y2="432.2567"/>
    <line x1="635.9947" x2="558.1305" y1="431.9312" y2="383.6662"/>
    <line x1="558.534" x2="636.3981" y1="383.0153" y2="431.2804"/>
    <line x1="636.1964" x2="538.8662" y1="431.6058" y2="371.2745"/>
    <line x1="555.3587" x2="555.4691" y1="328.3581" y2="326.5282"/>
    <line x1="555.9501" x2="555.7294" y1="324.7206" y2="328.3805"/>
    <line x1="556.1001" x2="556.4311" y1="328.4028" y2="322.913"/>
    <line x1="556.9121" x2="556.4708" y1="321.1054" y2="328.4252"/>
    <line x1="556.8415" x2="557.3932" y1="328.4475" y2="319.2978"/>
    <line x1="557.8742" x2="557.2122" y1="317.4903" y2="328.4699"/>
    <line x1="557.5828" x2="558.3552" y1="328.4922" y2="315.6827"/>
    <line x1="558.8363" x2="557.9535" y1="313.8751" y2="328.5146"/>
    <line x1="558.3242" x2="559.3173" y1="328.5369" y2="312.0675"/>
    <line x1="559.7983" x2="558.6949" y1="310.2599" y2="328.5593"/>
    <line x1="559.0656" x2="560.2793" y1="328.5816" y2="308.4523"/>
    <line x1="561.0207" x2="559.807" y1="308.497" y2="328.6263"/>
    <line x1="559.4363" x2="560.7604" y1="328.604" y2="306.6447"/>
    <polygon points="560.7604,306.6447 554.988,328.3358 563.8845,328.8722"/>
    <line x1="563.5118" x2="506.6874" y1="306.0294" y2="329.6263"/>
    <line x1="506.5426" x2="534.9548" y1="329.2776" y2="317.4791"/>
    <line x1="535.9684" x2="507.5562" y1="319.9201" y2="331.7185"/>
    <line x1="507.4114" x2="564.2358" y1="331.3698" y2="307.773"/>
    <line x1="561.2811" x2="560.1777" y1="310.3493" y2="328.6487"/>
    <line x1="560.5483" x2="561.5414" y1="328.6711" y2="312.2016"/>
    <line x1="561.8018" x2="560.919" y1="314.0539" y2="328.6934"/>
    <line x1="561.2897" x2="562.0621" y1="328.7158" y2="315.9062"/>
    <line x1="562.3224" x2="561.6604" y1="317.7585" y2="328.7381"/>
    <line x1="562.0311" x2="562.5828" y1="328.7605" y2="319.6108"/>
    <line x1="562.8431" x2="562.4018" y1="321.4631" y2="328.7828"/>
    <line x1="562.7725" x2="563.1035" y1="328.8052" y2="323.3153"/>
    <line x1="563.3638" x2="563.1432" y1="325.1676" y2="328.8275"/>
    <line x1="563.5138" x2="563.6242" y1="328.8499" y2="327.0199"/>
    <line x1="592.5032" x2="507.2666" y1="295.6259" y2="331.0211"/>
    <line x1="507.1218" x2="620.7706" y1="330.6724" y2="283.4787"/>
    <line x1="620.6258" x2="506.977" y1="283.13" y2="330.3237"/>
    <line x1="506.8322" x2="592.0688" y1="329.975" y2="294.5797"/>
    <polygon points="634.9043,277.4051 506.3978,328.9289 507.701,332.0673"/>
    <polygon points="635.1878,433.233 637.205,429.9786 538.8662,371.2745"/>
  </g>
</svg>
