<?xml version="1.0" encoding="utf-8" ?>
<svg xmlns="http://www.w3.org/2000/svg" xmlns:cc="http://creativecommons.org/ns" xmlns:dc="http://purl.org/dc/elements/1.1/" xmlns:ev="http://www.w3.org/2001/xml-events" xmlns:inkscape="http://www.inkscape.org/namespaces/inkscape" xmlns:rdf="http://www.w3.org/1999/02/22-rdf-syntax-ns" xmlns:sodipodi="http://sodipodi.sourceforge.net/DTD/sodipodi-0.dtd" xmlns:xlink="http://www.w3.org/1999/xlink" baseProfile="tiny" height="29.7cm" version="1.2" viewBox="0 0 793.7007874015749 1122.5196850393702" width="21.0cm">
  <metadata>
    <rdf:RDF>
      <cc:Work>
        <dc:format>image/svg+xml</dc:format>
        <dc:source>vsk save -s 87 -c C:\Users\marti\Documents\git\putti-plotter-plot\sixfeet\config\1.json C:\Users\marti\Documents\git\putti-plotter-plot\sixfeet\sketch_sixfeet.py</dc:source>
        <dc:date>2023-11-19T17:46:44.162968</dc:date>
      </cc:Work>
    </rdf:RDF>
  </metadata>
  <defs/>
  <g fill="none" id="layer1" inkscape:groupmode="layer" inkscape:label="1" stroke="#0000ff" style="display:inline">
    <polygon points="490.2173,362.9782 495.0304,357.1735 496.991,353.9479 498.774,350.1984 500.9511,342.979 501.6893,335.4747 501.4697,331.3287 500.8861,327.5993 498.6481,320.3986 495.0584,313.7673 490.2528,307.9565 484.4132,303.1859 477.7605,299.6362 470.5464,297.4415 463.0439,296.685 455.5369,297.3953 448.3094,299.5454 441.635,303.0541 435.7661,307.7886 433.2045,310.5612 430.7131,313.8825 427.1472,320.5265 424.935,327.7353 424.1602,335.2359 424.8522,342.7446 426.9847,349.9772 430.4772,356.6602 435.1973,362.5407 440.9667,367.396 447.5668,371.0426 451.4615,372.481 455.1175,373.4203 462.6162,374.2133 470.1266,373.5396 477.3645,371.4247 484.0559,367.9485 487.1166,365.7392"/>
    <polygon points="502.7642,361.342 471.1126,269.7583 468.6366,270.6518"/>
    <line x1="497.8888" x2="469.6978" y1="348.3863" y2="270.2689"/>
    <line x1="469.3441" x2="488.1381" y1="270.3965" y2="322.4748"/>
    <line x1="489.1992" x2="470.4052" y1="322.0918" y2="270.0136"/>
    <line x1="470.7589" x2="480.1559" y1="269.886" y2="295.9251"/>
    <line x1="478.3874" x2="468.9903" y1="296.5633" y2="270.5242"/>
    <line x1="470.0515" x2="498.2425" y1="270.1413" y2="348.2586"/>
    <polygon points="527.8871,354.8735 527.1735,360.8635 527.6422,366.8777 529.2752,372.6848 532.0097,378.0618 535.7407,382.8019 540.3248,386.7231 545.5857,389.6747 551.3214,391.5432 557.3114,392.2568 563.3255,391.7881 569.1326,390.1551 574.5096,387.4206 579.2498,383.6896 583.171,379.1055 586.1225,373.8446 587.991,368.1089 588.7046,362.1189 588.2359,356.1048 586.6029,350.2976 583.8684,344.9207 580.1374,340.1805 575.5534,336.2593 570.2924,333.3078 564.5567,331.4393 558.5667,330.7257 552.5526,331.1944 546.7455,332.8274 541.3685,335.5619 536.6284,339.2929 532.7072,343.8769 529.7556,349.1379"/>
    <polygon points="534.2321,376.5855 537.7305,381.0225 541.7359,384.4545 546.6566,387.2315 552.0333,388.9681 557.6488,389.5941 563.2759,389.0842 568.3378,387.601 573.3503,384.9934 577.4703,381.6998 580.9024,377.6944 583.6794,372.7737 585.4159,367.397 586.042,361.7815 585.5321,356.1544 584.0489,351.0925 581.4412,346.08 578.1477,341.96 574.1422,338.5279 569.2215,335.7509 563.8448,334.0143 558.2294,333.3883 552.6022,333.8982 547.5403,335.3814 542.5279,337.9891 538.4078,341.2826 534.9758,345.288 532.1988,350.2088 530.544,355.2171 529.8426,360.8237 530.2769,366.4572 531.8292,371.8899"/>
    <polygon points="551.8524,388.473 557.4693,389.147 563.1059,388.6641 568.1763,387.1868 573.1901,384.5665 577.2979,381.2472 580.6999,377.2077 583.2722,372.5952 584.9209,367.5779 585.5949,361.961 585.112,356.3244 583.6347,351.254 581.2205,346.5568 577.9577,342.4041 573.965,338.9472 569.0431,336.1581 564.0257,334.5094 558.7865,333.8444 553.5164,334.1873 548.0538,335.6582 543.324,338.0079 538.8519,341.4726 535.395,345.4653 532.606,350.3872 530.9573,355.4046 530.2923,360.6438 530.6981,366.2864 532.1061,371.3765 534.6576,376.4256 537.9205,380.5784 542.2226,384.2521 546.8351,386.8243"/>
    <polygon points="557.3059,391.3673 562.9489,390.951 568.7652,389.344 573.8213,386.8039 578.5828,383.0971 582.5025,378.5093 585.2701,373.5741 587.1403,367.8369 587.813,362.2188 587.3501,356.2023 585.8259,350.7532 583.3019,345.689 579.6101,340.9159 575.0347,336.9817 570.1082,334.1985 564.7454,332.3939 558.7611,331.6198 552.7431,332.0636 547.2892,333.5706 542.2171,336.0786 537.4323,339.7553 533.7027,344.0104 530.685,349.2359 528.8634,354.5929 528.0704,360.5748 528.4952,366.5941 530.1207,372.4053 532.8805,377.7715 536.3985,382.2032 540.6888,385.8922 545.9427,388.8603 551.3168,390.631"/>
    <polygon points="567.1093,384.1417 573.3248,385.7434 579.297,386.6544 585.3296,386.9778 591.365,386.7108 597.3455,385.8557 603.2139,384.4208 608.9141,382.4197 614.3918,379.8717 619.5945,376.8011 624.4725,373.2371 628.9792,369.2139 633.0716,364.7698 636.7106,359.9475 639.8613,354.7929 642.6404,349.0072 644.6946,343.3259 646.1843,337.4712 647.0952,331.499 647.4187,325.4663 647.1516,319.431 646.2965,313.4505 644.8616,307.5821 642.8606,301.8819 640.3126,296.4042 637.2419,291.2015 633.6779,286.3235 629.6547,281.8167 625.2107,277.7243 620.3883,274.0854 615.2337,270.9347 609.7961,268.3023 604.1274,266.2134 597.912,264.6117 591.9398,263.7008 585.9072,263.3773 579.8718,263.6444 573.8913,264.4995 568.0229,265.9344 562.3227,267.9354 556.845,270.4834 551.6423,273.5541 546.7643,277.1181 542.2576,281.1413 538.1652,285.5853 534.5262,290.4077 531.3755,295.5623 528.7431,300.9999 526.6542,306.6685 525.1288,312.514 524.1814,318.4806 523.821,324.5111 524.0852,330.9242 524.9403,336.9046 526.3752,342.773 528.3762,348.4733 530.9242,353.9509 533.9949,359.1536 537.5589,364.0317 541.5821,368.5384 546.0261,372.6308 550.8485,376.2697 556.0031,379.4205 561.4407,382.0528"/>
    <polygon points="586.4148,374.2821 588.3444,368.5616 589.1367,362.5766 588.7002,356.1782 587.1022,350.3563 584.2112,344.6315 580.4745,339.8897 575.8949,335.9558 570.6437,332.9769 564.5485,330.9824 558.5522,330.2807 552.5329,330.7464 546.7159,332.362 541.3186,335.0671 536.543,338.7606 532.5677,343.3043 529.3865,348.8729 527.4915,354.605 526.7354,360.5947 527.1464,366.618 528.8439,372.8025 531.5654,378.1916 535.2733,382.956 539.829,386.9175 545.4072,390.0819 551.5144,392.0395 557.5149,392.7049 563.5312,392.2028 569.3384,390.552 574.7192,387.8142 579.4723,384.0919 583.4201,379.5243"/>
    <polygon points="587.3701,362.1389 586.8848,356.1293 585.3261,350.695 582.7572,345.6588 579.2731,341.2066 574.6931,337.2856 569.757,334.5293 564.3851,332.7674 558.7754,332.0649 552.7629,332.5117 547.3186,334.0356 542.2661,336.5721 537.5181,340.2877 533.6266,344.8928 530.902,349.8464 529.1746,355.2295 528.508,360.8436 528.9933,366.8531 530.5521,372.2875 533.1209,377.3236 536.6051,381.7759 540.8761,385.48 546.1212,388.4531 551.8619,390.2953 557.4801,390.9258 563.1153,390.4707 568.9107,388.8084 573.9303,386.2074 578.3601,382.6947 582.2516,378.0897 584.9762,373.136 586.7036,367.7529"/>
    <polygon points="588.2615,362.0391 587.771,356.0317 586.1022,350.24 583.3209,344.8927 579.5372,340.201 574.9003,336.3503 569.9409,333.6398 564.196,331.8163 558.204,331.165 552.5724,331.6425 546.7755,333.2933 541.4196,336.0579 536.7162,339.827 532.851,344.4519 530.1251,349.4028 528.3651,354.7735 527.6207,360.7547 528.0738,366.765 529.7065,372.567 532.4544,377.9315 536.209,382.6466 540.8218,386.5261 545.7642,389.2675 551.4976,391.1266 557.1083,391.8072 563.1199,391.3728 568.927,389.7581 574.3,387.0269 579.0268,383.287 582.9206,378.6863 585.8277,373.4064 587.5543,368.0248"/>
    <line x1="584.6608" x2="702.4385" y1="352.4866" y2="462.7267"/>
    <line x1="657.8887" x2="648.8151" y1="463.3611" y2="431.3369"/>
    <line x1="646.6349" x2="655.7085" y1="431.9547" y2="463.9788"/>
    <line x1="656.0719" x2="637.9246" y1="463.8759" y2="399.8276"/>
    <line x1="639.3781" x2="657.5253" y1="399.4158" y2="463.464"/>
    <line x1="657.162" x2="629.9411" y1="463.567" y2="367.4946"/>
    <line x1="629.2144" x2="656.4352" y1="367.7005" y2="463.7729"/>
    <line x1="656.7986" x2="620.5041" y1="463.6699" y2="335.5734"/>
    <polygon points="620.5041,335.5734 655.3452,464.0818 658.252,463.2581"/>
    <polygon points="587.5162,350.1943 584.8377,344.7912 580.9254,339.7184 576.3802,335.755 570.822,332.5696 565.1046,330.6516 558.75,329.8405 552.3621,330.3251 546.554,331.9479 540.84,334.8444 536.0978,338.5699 532.148,343.1269 528.9792,348.6945 527.0782,354.4176 526.286,360.7747 526.7897,367.161 528.4298,372.9643 531.3434,378.6696 535.0829,383.4007 539.6517,387.3369 545.2287,390.4891 551.3262,392.4541 557.3169,393.1463 563.7017,392.6235 569.5,390.9662 575.1966,388.0356 579.9166,384.282 583.8392,379.7015 586.9747,374.1151 588.8415,368.3807 589.5873,362.3965 589.1217,356.0072"/>
    <polygon points="582.3317,345.8187 578.8218,341.3781 574.516,337.704 569.5785,334.9365 564.1974,333.1811 558.5777,332.5047 552.9337,332.933 547.4805,334.4497 542.4258,336.997 537.9624,340.4778 534.2604,344.7596 531.4608,349.679 529.6704,355.0485 528.949,361.0415 529.4141,366.6826 530.9663,372.1259 533.5465,377.1638 537.0564,381.6044 541.3621,385.2784 546.2996,388.0459 551.6808,389.8013 557.3004,390.4778 562.9444,390.0495 568.7493,388.3941 573.7703,385.7811 578.1879,382.2424 581.8338,377.9128 584.5691,372.9573 586.2894,367.5649 586.9292,361.9409 586.4641,356.2998 584.9119,350.8566"/>
    <polygon points="581.0013,339.1549 576.4135,335.2334 570.8279,332.0862 564.7282,330.1115 558.3579,329.3882 551.9708,329.9451 546.1724,331.6194 540.7898,334.3494 535.7388,338.298 531.7904,342.8626 528.6104,348.4296 526.5999,354.5176 525.8485,360.5059 526.2925,366.9018 527.9986,373.0819 530.8986,378.7999 534.8769,383.8276 539.4646,387.749 545.0503,390.8963 550.7812,392.7889 557.1426,393.5871 563.1634,393.1691 569.3535,391.4994 575.0884,388.6331 580.1394,384.6844 584.3051,379.8109 587.2678,374.5528 589.2783,368.4649 590.0391,362.0989 589.5198,355.7087 587.8796,349.9005 584.9796,344.1826"/>
    <polygon points="542.4762,337.4924 538.3216,340.7499 534.6181,345.0238 531.8296,349.9439 530.0657,355.317 529.3956,360.9325 529.8455,366.5699 531.2609,371.656 533.788,376.7152 537.2628,381.1771 541.5489,384.8665 546.4781,387.6387 551.8571,389.3848 557.4747,390.0364 563.1106,389.5679 568.5435,387.9976 573.5603,385.3873 577.6932,382.1023 581.3685,377.804 584.1243,372.8656 585.8527,367.4809 586.4857,361.8612 585.9985,356.2269 584.5494,351.1503 581.9889,346.1078 578.4847,341.669 574.1743,338.008 569.5727,335.4201 564.2054,333.6384 558.5922,332.9497 552.9534,333.381 547.5102,334.9153"/>
    <line x1="539.4145" x2="538.8334" y1="278.3468" y2="269.409"/>
    <line x1="538.4544" x2="538.9907" y1="269.4336" y2="277.684"/>
    <line x1="538.567" x2="538.0753" y1="277.0211" y2="269.4583"/>
    <line x1="537.6963" x2="538.1432" y1="269.4829" y2="276.3582"/>
    <line x1="537.7195" x2="537.3172" y1="275.6953" y2="269.5076"/>
    <line x1="536.9381" x2="537.2957" y1="269.5322" y2="275.0324"/>
    <line x1="536.872" x2="536.5591" y1="274.3695" y2="269.5569"/>
    <line x1="536.18" x2="536.4482" y1="269.5815" y2="273.7067"/>
    <line x1="536.0245" x2="535.801" y1="273.0438" y2="269.6061"/>
    <line x1="535.4219" x2="535.6007" y1="269.6308" y2="272.3809"/>
    <line x1="535.1769" x2="535.0429" y1="271.718" y2="269.6554"/>
    <line x1="534.6638" x2="534.7532" y1="269.6801" y2="271.0551"/>
    <line x1="534.3294" x2="534.2847" y1="270.3922" y2="269.7047"/>
    <polygon points="533.9057,269.7294 539.6264,278.6783 544.1403,269.064"/>
    <line x1="539.2125" x2="539.7935" y1="269.3844" y2="278.3222"/>
    <line x1="540.1279" x2="539.5916" y1="277.61" y2="269.3597"/>
    <line x1="539.9706" x2="540.4623" y1="269.3351" y2="276.8979"/>
    <line x1="540.7966" x2="540.3497" y1="276.1857" y2="269.3104"/>
    <line x1="540.7287" x2="541.131" y1="269.2858" y2="275.4735"/>
    <line x1="541.4654" x2="541.1078" y1="274.7613" y2="269.2611"/>
    <line x1="541.4869" x2="541.7997" y1="269.2365" y2="274.0492"/>
    <line x1="542.1341" x2="541.8659" y1="273.337" y2="269.2119"/>
    <line x1="542.245" x2="542.4684" y1="269.1872" y2="272.6248"/>
    <line x1="542.8028" x2="542.624" y1="271.9127" y2="269.1626"/>
    <line x1="543.0031" x2="543.1372" y1="269.1379" y2="271.2005"/>
    <line x1="543.4715" x2="543.3821" y1="270.4883" y2="269.1133"/>
    <line x1="543.7612" x2="543.8059" y1="269.0886" y2="269.7762"/>
    <polygon points="629.7743,265.6978 626.7689,260.9059 623.1296,257.0798 618.8229,254.0242 614.0095,251.853 608.8685,250.647 603.5916,250.4512 598.3755,251.2729 593.4143,253.0814 588.8931,255.8094 584.9802,259.3552 581.8214,263.5868 579.407,268.702 578.1478,273.8302 577.8974,279.1047 578.7582,284.6952 580.5839,289.6501 583.3275,294.1619 586.8868,298.0625 591.4543,301.399 596.2527,303.6034 601.3852,304.8449 607.0377,305.0546 612.2481,304.1969 617.1966,302.3542 621.6989,299.595 625.5873,296.0223 628.9079,291.4432 631.0958,286.6373 632.3195,281.5005 632.5335,276.2244 631.6341,270.6399"/>
    <polygon points="585.6362,412.9104 581.4852,412.8538 577.7238,413.165 574.0066,413.8189 570.0059,414.9275 566.137,416.4328 562.4392,418.3196 558.9499,420.5688 555.9885,422.9088 552.9935,425.7835 550.3028,428.9449 547.9437,432.3608 545.9402,435.9967 544.4445,439.462 543.1729,443.4139 542.3053,447.4736 541.8746,451.2232 541.799,455.3739 542.1413,459.5112 542.8122,463.2254 543.9391,467.2209 545.3076,470.7383 547.1775,474.4448 549.4106,477.9443 551.7371,480.9164 554.598,483.9245 557.7471,486.6297 561.1522,489.0044 564.441,490.8561 568.2373,492.5361 572.1833,493.8257 576.239,494.7119 580.3633,495.1857 584.5143,495.2423 588.2757,494.9311 592.361,494.1931 595.9936,493.1686 599.5172,491.8162 603.2322,489.9633 606.4323,487.9623 609.7246,485.4334 612.7458,482.5863 615.4654,479.4497 617.8556,476.0554 619.8924,472.438 621.555,468.6341 622.7275,465.0465 623.6322,460.9949 624.1249,456.8729 624.2109,453.0996 623.9065,448.9594 623.2696,445.2392 622.1794,441.2335 620.6918,437.3578 618.822,433.6513 616.5888,430.1518 614.2624,427.1797 611.4014,424.1716 608.2524,421.4664 604.8473,419.0917 601.2206,417.0716 597.7622,415.56 593.8162,414.2704 589.7605,413.3842"/>
    <polygon points="543.2944,451.8015 533.6403,459.063 544.143,473.0261 553.7971,465.7646"/>
    <line x1="514.9806" x2="523.3415" y1="439.9212" y2="422.7233"/>
    <line x1="522.9997" x2="506.2778" y1="422.5571" y2="456.9529"/>
    <line x1="501.15" x2="517.8718" y1="454.4599" y2="420.0642"/>
    <line x1="517.5299" x2="509.169" y1="419.898" y2="437.0958"/>
    <line x1="518.2137" x2="493.1309" y1="420.2304" y2="471.824"/>
    <line x1="497.5751" x2="522.6578" y1="473.9846" y2="422.3909"/>
    <line x1="522.3159" x2="488.8723" y1="422.2247" y2="491.0163"/>
    <line x1="485.1119" x2="518.5555" y1="489.1881" y2="420.3965"/>
    <line x1="518.8974" x2="477.0928" y1="420.5627" y2="506.5522"/>
    <line x1="480.1695" x2="521.9741" y1="508.048" y2="422.0585"/>
    <line x1="521.6322" x2="471.4668" y1="421.8923" y2="525.0797"/>
    <line x1="469.0738" x2="519.2392" y1="523.9163" y2="420.7289"/>
    <line x1="519.5811" x2="461.0547" y1="420.8951" y2="541.2804"/>
    <line x1="462.764" x2="521.2904" y1="542.1114" y2="421.7261"/>
    <line x1="520.9485" x2="454.0612" y1="421.5599" y2="559.143"/>
    <line x1="453.0356" x2="519.9229" y1="558.6445" y2="421.0613"/>
    <line x1="520.2648" x2="445.0166" y1="421.2275" y2="576.0085"/>
    <line x1="445.3584" x2="520.6067" y1="576.1747" y2="421.3937"/>
    <line x1="490.6039" x2="634.5853" y1="461.3496" y2="526.9257"/>
    <line x1="634.4286" x2="490.4472" y1="527.2696" y2="461.6936"/>
    <polygon points="476.1274,454.964 633.6454,528.9894 635.3685,525.2059"/>
    <line x1="481.7392" x2="200.7566" y1="476.777" y2="443.048"/>
    <line x1="202.597" x2="201.823" y1="416.2324" y2="416.0425"/>
    <line x1="201.139" x2="202.6871" y1="415.4857" y2="415.8655"/>
    <line x1="202.7771" x2="200.4549" y1="415.4986" y2="414.9289"/>
    <line x1="199.7709" x2="202.8671" y1="414.3721" y2="415.1316"/>
    <line x1="202.9571" x2="199.0868" y1="414.7647" y2="413.8152"/>
    <line x1="198.4028" x2="203.0471" y1="413.2584" y2="414.3978"/>
    <line x1="203.1371" x2="197.7187" y1="414.0309" y2="412.7016"/>
    <line x1="197.0347" x2="203.2271" y1="412.1448" y2="413.664"/>
    <line x1="203.3172" x2="196.3507" y1="413.2971" y2="411.588"/>
    <line x1="195.6666" x2="203.4072" y1="411.0312" y2="412.9302"/>
    <line x1="203.4972" x2="194.9826" y1="412.5632" y2="410.4744"/>
    <line x1="194.2985" x2="203.5872" y1="409.9176" y2="412.1963"/>
    <line x1="203.6772" x2="193.6145" y1="411.8294" y2="409.3608"/>
    <line x1="192.9304" x2="203.7672" y1="408.8039" y2="411.4625"/>
    <line x1="203.8572" x2="192.2464" y1="411.0956" y2="408.2471"/>
    <line x1="193.1105" x2="203.9473" y1="408.0701" y2="410.7287"/>
    <line x1="204.0373" x2="193.9745" y1="410.3618" y2="407.8931"/>
    <line x1="194.8386" x2="204.1273" y1="407.7161" y2="409.9948"/>
    <line x1="204.2173" x2="195.7027" y1="409.6279" y2="407.5391"/>
    <line x1="196.5668" x2="204.3073" y1="407.362" y2="409.261"/>
    <line x1="204.3973" x2="197.4308" y1="408.8941" y2="407.185"/>
    <line x1="198.2949" x2="204.4873" y1="407.008" y2="408.5272"/>
    <line x1="204.5774" x2="199.159" y1="408.1603" y2="406.831"/>
    <line x1="200.023" x2="204.6674" y1="406.654" y2="407.7934"/>
    <line x1="204.7574" x2="200.8871" y1="407.4265" y2="406.477"/>
    <line x1="201.7512" x2="204.8474" y1="406.2999" y2="407.0595"/>
    <line x1="204.9374" x2="202.6152" y1="406.6926" y2="406.1229"/>
    <line x1="203.4793" x2="205.0274" y1="405.9459" y2="406.3257"/>
    <line x1="205.1174" x2="204.3434" y1="405.9588" y2="405.7689"/>
    <polygon points="205.2075,405.5919 192.2464,408.2471 202.507,416.5993"/>
    <polygon points="268.0767,359.6387 269.2089,356.448 269.7436,352.7256 269.4953,348.9733 268.6105,345.7053 267.131,342.66 265.1088,339.9446 262.3124,337.4302 259.3982,335.7068 256.2134,334.558 252.4939,334.0039 248.7403,334.2326 245.4677,335.1003 242.4148,336.5639 239.6889,338.5719 237.386,341.0537 235.4213,344.2602 234.1638,347.8043 233.6824,351.1556 233.8354,354.5378 234.7421,358.1874 236.1898,361.248 238.4359,364.264 241.2583,366.7491 244.1904,368.442 247.387,369.5575 250.7357,370.0564 254.1187,369.921 257.773,369.0334 261.164,367.4077 263.8688,365.3713 266.1456,362.8656"/>
    <line x1="272.0769" x2="266.2937" y1="339.667" y2="335.0746"/>
    <line x1="266.0539" x2="271.2588" y1="335.3766" y2="339.5097"/>
    <line x1="271.7384" x2="266.5335" y1="338.9057" y2="334.7726"/>
    <line x1="266.7733" x2="271.3999" y1="334.4706" y2="338.1445"/>
    <line x1="271.0614" x2="267.0131" y1="337.3832" y2="334.1685"/>
    <line x1="267.253" x2="270.7229" y1="333.8665" y2="336.622"/>
    <line x1="270.3844" x2="267.4928" y1="335.8607" y2="333.5645"/>
    <line x1="267.7326" x2="270.0459" y1="333.2625" y2="335.0995"/>
    <line x1="269.7074" x2="267.9724" y1="334.3382" y2="332.9605"/>
    <line x1="268.2122" x2="269.3689" y1="332.6585" y2="333.577"/>
    <line x1="269.0304" x2="268.452" y1="332.8157" y2="332.3565"/>
    <line x1="265.814" x2="270.4406" y1="335.6786" y2="339.3525"/>
    <line x1="269.6225" x2="265.5742" y1="339.1953" y2="335.9806"/>
    <line x1="265.3344" x2="268.8044" y1="336.2826" y2="339.038"/>
    <line x1="267.9862" x2="265.0946" y1="338.8808" y2="336.5846"/>
    <line x1="264.8548" x2="267.1681" y1="336.8866" y2="338.7236"/>
    <line x1="266.3499" x2="264.6149" y1="338.5663" y2="337.1886"/>
    <line x1="264.3751" x2="265.5318" y1="337.4906" y2="338.4091"/>
    <line x1="264.7136" x2="264.1353" y1="338.2519" y2="337.7926"/>
    <polygon points="263.8955,338.0946 272.0769,339.667 268.6919,332.0545"/>
    <polygon points="320.9714,389.0137 388.7206,485.2015 323.2151,387.4718"/>
    <line x1="321.2919" x2="340.3283" y1="388.7934" y2="416.4959"/>
    <line x1="341.931" x2="322.8946" y1="415.3946" y2="387.6921"/>
    <line x1="322.574" x2="360.6468" y1="387.9123" y2="443.3174"/>
    <line x1="359.6852" x2="321.6124" y1="443.9782" y2="388.5731"/>
    <line x1="321.933" x2="379.0421" y1="388.3529" y2="471.4604"/>
    <line x1="379.3627" x2="322.2535" y1="471.2402" y2="388.1326"/>
    <line x1="338.4035" x2="564.4196" y1="442.048" y2="626.0293"/>
    <line x1="610.4079" x2="497.247" y1="651.0346" y2="771.5581"/>
    <line x1="529.5794" x2="502.8576" y1="785.0383" y2="823.479"/>
    <line x1="502.5388" x2="515.8997" y1="823.2574" y2="804.037"/>
    <line x1="520.3637" x2="507.0029" y1="807.1402" y2="826.3606"/>
    <line x1="506.684" x2="533.4058" y1="826.1389" y2="787.6982"/>
    <line x1="546.4478" x2="506.3651" y1="768.2562" y2="825.9173"/>
    <line x1="506.0463" x2="559.4898" y1="825.6956" y2="748.8142"/>
    <line x1="556.9389" x2="503.4954" y1="747.041" y2="823.9224"/>
    <line x1="503.1765" x2="543.2592" y1="823.7007" y2="766.0397"/>
    <line x1="570.6186" x2="503.8142" y1="728.0423" y2="824.144"/>
    <line x1="504.1331" x2="584.2984" y1="824.3657" y2="709.0436"/>
    <line x1="585.5738" x2="505.4085" y1="709.9302" y2="825.2523"/>
    <line x1="505.7274" x2="572.5318" y1="825.4739" y2="729.3722"/>
    <line x1="598.6159" x2="505.0897" y1="690.4882" y2="825.0306"/>
    <line x1="504.7708" x2="611.6579" y1="824.809" y2="671.0462"/>
    <polygon points="611.6579,671.0462 502.2199,823.0357 507.3217,826.5822"/>
    <line x1="597.9781" x2="504.452" y1="690.0449" y2="824.5873"/>
    <line x1="499.1927" x2="476.0762" y1="706.6295" y2="566.8968"/>
    <line x1="439.7685" x2="439.1222" y1="563.5658" y2="564.2372"/>
    <line x1="438.2009" x2="439.4935" y1="564.644" y2="563.301"/>
    <line x1="439.2184" x2="437.2795" y1="563.0363" y2="565.0507"/>
    <line x1="436.3582" x2="438.9434" y1="565.4574" y2="562.7716"/>
    <line x1="438.6684" x2="435.4369" y1="562.5069" y2="565.8642"/>
    <line x1="434.5156" x2="438.3934" y1="566.2709" y2="562.2422"/>
    <line x1="438.1183" x2="433.5943" y1="561.9774" y2="566.6777"/>
    <line x1="432.6729" x2="437.8433" y1="567.0844" y2="561.7127"/>
    <line x1="437.5683" x2="431.7516" y1="561.448" y2="567.4912"/>
    <line x1="430.8303" x2="437.2932" y1="567.8979" y2="561.1833"/>
    <line x1="437.0182" x2="429.909" y1="560.9186" y2="568.3046"/>
    <line x1="428.9876" x2="436.7432" y1="568.7114" y2="560.6539"/>
    <line x1="436.4682" x2="428.7126" y1="560.3891" y2="568.4467"/>
    <line x1="429.0839" x2="436.1931" y1="567.5105" y2="560.1244"/>
    <line x1="435.9181" x2="429.4552" y1="559.8597" y2="566.5743"/>
    <line x1="429.8264" x2="435.6431" y1="565.6381" y2="559.595"/>
    <line x1="435.3681" x2="430.1977" y1="559.3303" y2="564.7019"/>
    <line x1="430.569" x2="435.093" y1="563.7658" y2="559.0655"/>
    <line x1="434.818" x2="430.9402" y1="558.8008" y2="562.8296"/>
    <line x1="431.3115" x2="434.543" y1="561.8934" y2="558.5361"/>
    <line x1="434.268" x2="431.6828" y1="558.2714" y2="560.9572"/>
    <line x1="432.054" x2="433.9929" y1="560.021" y2="558.0067"/>
    <line x1="433.7179" x2="432.4253" y1="557.7419" y2="559.0849"/>
    <line x1="432.7966" x2="433.4429" y1="558.1487" y2="557.4772"/>
    <polygon points="433.1679,557.2125 428.527,568.9148 440.0435,563.8305"/>
    <polygon points="433.2903,530.5513 426.8523,532.0619 430.1771,546.2311 436.6151,544.7205"/>
    <line x1="421.2421" x2="421.4003" y1="509.1309" y2="508.541"/>
    <line x1="420.8847" x2="421.2011" y1="509.0351" y2="507.8552"/>
    <line x1="421.0019" x2="420.5273" y1="507.1695" y2="508.9392"/>
    <line x1="420.1699" x2="420.8027" y1="508.8434" y2="506.4837"/>
    <line x1="420.6035" x2="419.8125" y1="505.7979" y2="508.7475"/>
    <line x1="419.4551" x2="420.4043" y1="508.6517" y2="505.1121"/>
    <line x1="420.2051" x2="419.0977" y1="504.4264" y2="508.5558"/>
    <line x1="418.7403" x2="419.8477" y1="508.46" y2="504.3305"/>
    <polygon points="420.1055,504.0835 416.2385,507.789 421.5995,509.2268"/>
    <line x1="419.3321" x2="418.3829" y1="504.8246" y2="508.3641"/>
    <line x1="418.0255" x2="418.8165" y1="508.2683" y2="505.3187"/>
    <line x1="418.3009" x2="417.6681" y1="505.8127" y2="508.1724"/>
    <line x1="417.3107" x2="417.7853" y1="508.0766" y2="506.3068"/>
    <line x1="417.2697" x2="416.9533" y1="506.8009" y2="507.9807"/>
    <line x1="416.5959" x2="416.7541" y1="507.8849" y2="507.295"/>
    <line x1="403.2971" x2="403.3671" y1="539.8786" y2="540.4694"/>
    <line x1="403.0631" x2="402.923" y1="541.1045" y2="539.923"/>
    <line x1="402.549" x2="402.7591" y1="539.9673" y2="541.7396"/>
    <line x1="402.4551" x2="402.1749" y1="542.3747" y2="540.0117"/>
    <line x1="401.8008" x2="402.1511" y1="540.056" y2="543.0099"/>
    <line x1="401.847" x2="401.4267" y1="543.645" y2="540.1004"/>
    <line x1="401.0527" x2="401.543" y1="540.1448" y2="544.2801"/>
    <line x1="401.239" x2="400.6786" y1="544.9152" y2="540.1891"/>
    <line x1="400.3045" x2="400.8649" y1="540.2335" y2="544.9596"/>
    <line x1="400.4208" x2="399.9305" y1="544.4132" y2="540.2778"/>
    <line x1="399.5564" x2="399.9767" y1="540.3222" y2="543.8667"/>
    <line x1="399.5326" x2="399.1823" y1="543.3203" y2="540.3665"/>
    <line x1="398.8083" x2="399.0885" y1="540.4109" y2="542.7739"/>
    <line x1="398.6443" x2="398.4342" y1="542.2275" y2="540.4552"/>
    <line x1="398.0601" x2="398.2002" y1="540.4996" y2="541.6811"/>
    <line x1="397.7561" x2="397.686" y1="541.1347" y2="540.5439"/>
    <polygon points="397.312,540.5883 401.087,545.2328 403.6712,539.8343"/>
    <line x1="368.0833" x2="469.7225" y1="575.6017" y2="611.8713"/>
    <polygon points="441.0071,584.6906 523.6834,422.8895 517.1881,419.7318"/>
    <line x1="405.3548" x2="397.5583" y1="650.1338" y2="672.259"/>
    <line x1="396.8272" x2="404.6238" y1="672.0013" y2="649.8762"/>
    <polygon points="404.2582,649.7474 389.3962,694.2552 405.7204,650.2627"/>
    <line x1="404.9893" x2="389.3962" y1="650.005" y2="694.2552"/>
    <polygon points="360.7345,694.375 356.6206,690.4846 351.8393,686.7952 347.0328,683.8024 341.9588,681.2896 336.6652,679.2803 331.2018,677.7935 325.62,676.8431 319.5949,676.4306 313.9356,676.6115 307.9491,677.4079 302.4394,678.7127 297.0821,680.5454 291.9276,682.8886 287.0245,685.7203 282.4188,689.0139 278.154,692.7382 274.2702,696.8584 270.804,701.3355 267.788,706.1275 265.2506,711.1892 263.0983,716.8319 261.6203,722.2977 260.679,727.881 260.2831,733.5293 260.4365,739.1893 261.1377,744.8078 262.3801,750.332 264.152,755.7097 266.4367,760.8904 269.4146,766.1444 272.6858,770.766 276.3894,775.0488 280.4907,778.9525 284.9509,782.4404 289.7282,785.4797 294.7775,788.0416 300.0514,790.1022 305.5001,791.642 311.447,792.6942 317.0933,793.1175 322.754,792.9915 328.3758,792.3176 333.9059,791.102 339.2922,789.3563 344.8219,786.9283 349.7523,784.1444 354.6873,780.6633 358.9642,776.9527 362.8613,772.8452 366.3419,768.3793 369.3735,763.5971 372.0799,758.1982 374.0978,752.9079 375.5934,747.4469 376.5528,741.8666 376.967,736.2197 376.8319,730.5592 376.1489,724.9384 374.8237,719.0464 373.0344,713.6744 370.733,708.5011 367.941,703.5752 364.6848,698.9431"/>
    <polygon points="351.3749,687.9146 346.5772,684.9045 341.5053,682.3838 336.2089,680.3773 330.7399,678.9046 325.152,677.9804 319.8778,677.6205 314.2162,677.7772 308.5979,678.4934 303.4418,679.6603 298.0627,681.4333 292.8854,683.7297 287.9607,686.5271 283.3369,689.7981 279.0595,693.5105 275.1703,697.6279 271.7077,702.1099 268.8907,706.5833 266.3449,711.6427 264.3121,716.9291 262.8124,722.3907 261.8605,727.9739 261.4656,733.6239 261.6317,739.2852 262.3571,744.9024 263.6347,750.4202 265.452,755.7845 267.7911,760.9427 270.6291,765.8441 273.9382,770.4407 277.423,774.416 281.5468,778.2983 286.0345,781.7536 290.5126,784.5632 295.5761,787.1006 300.8659,789.1246 306.33,790.6153 311.9148,791.558 317.5654,791.9436 323.2265,791.7681 328.8424,791.0334 333.9946,789.8494 339.3678,788.0588 344.5375,785.7452 349.453,782.9315 354.0659,779.6453 358.3311,775.9188 361.9611,772.0757 365.4386,767.6052 368.4566,762.8125 370.9857,757.7447 373.001,752.4516 374.4826,746.9851 375.4161,741.3988 375.7923,735.7475 375.6373,730.4633 374.9305,724.8438 373.6711,719.3218 371.8715,713.9515 369.5494,708.7856 366.7276,703.8749 363.6675,699.5642 359.9621,695.2806 355.8512,691.3847"/>
    <polygon points="343.2943,678.8581 337.655,676.6968 331.8298,675.1025 325.8758,674.0908 319.851,673.6717 313.8143,673.8493 307.8246,674.6217 301.9403,675.9815 296.2189,677.9154 290.7164,680.4044 285.4863,683.4244 280.8761,686.7116 276.3165,690.6719 272.17,695.0629 268.4771,699.8416 265.2739,704.9614 262.5915,710.3724 260.5733,715.6627 258.97,721.4853 257.9492,727.4378 257.5208,733.4619 257.689,739.4989 258.4522,745.4898 259.7015,751.0125 261.5911,756.7486 264.0376,762.2702 267.0171,767.5234 270.5004,772.457 274.4537,777.0227 278.8382,781.1759 283.6113,784.8762 288.7262,788.0873 293.7875,790.6256 299.4201,792.8044 305.2403,794.4167 311.1912,795.4467 317.2146,795.8844 323.2519,795.7255 329.244,794.9716 334.7685,793.7309 340.5076,791.8501 346.033,789.4121 351.2908,786.4408 356.2297,782.965 360.8015,779.0188 364.9615,774.6407 368.6691,769.8734 371.8882,764.7635 374.5872,759.3608 376.7399,753.7181 378.3252,747.8906 379.3276,741.935 379.7293,736.2871 379.5797,730.2496 378.835,724.2563 377.5025,718.3658 375.7309,712.9879 373.3015,707.4588 370.3383,702.1964 366.8701,697.2521 362.931,692.6742 358.5593,688.5075 353.7977,684.7925 348.6928,681.5655"/>
    <polygon points="319.864,678.015 314.1999,678.1744 308.5799,678.8976 303.06,680.1773 297.6951,682.0008 292.8749,684.1775 287.9594,686.9963 283.3494,690.291 279.0907,694.0288 275.4704,697.8844 272.0078,702.3697 269.0095,707.1778 266.6564,711.9144 264.6361,717.2083 263.1536,722.6773 262.2235,728.2668 261.8551,733.9211 262.0215,739.2074 262.7447,744.8274 263.922,749.9836 265.7098,755.3605 268.0246,760.5325 270.6404,765.1292 273.9043,769.7611 277.6137,774.0445 281.7315,777.9369 286.2168,781.3995 291.0249,784.3978 296.1079,786.902 301.0554,788.7712 306.5244,790.2538 312.1139,791.1839 317.3904,791.5452 323.0545,791.3858 328.6745,790.6626 334.1945,789.3829 339.2076,787.6975 344.3796,785.3827 349.295,782.5639 353.9051,779.2692 357.8916,775.7937 361.784,771.6758 365.2466,767.1905 368.2449,762.3824 370.749,757.2994 372.6183,752.3519 374.1009,746.8829 375.031,741.2935 375.3993,735.6391 375.2329,730.3528 374.5097,724.7328 373.23,719.2129 371.5446,714.1997 369.2298,709.0278 366.6141,704.431 363.3501,699.7992 359.6408,695.5157 355.5229,691.6233 351.3472,688.3774 346.5592,685.3472 341.4929,682.8093 336.199,680.789 330.73,679.3065 325.1405,678.3764"/>
    <polygon points="302.6318,676.608 296.8913,678.5005 291.3689,680.9579 286.4391,683.7529 281.4947,687.2298 276.9231,691.184 272.7701,695.5759 269.0774,700.3612 265.882,705.492 263.3666,710.5702 261.2215,716.2212 259.6525,722.0585 258.6756,728.0235 258.3061,733.6785 258.4986,739.7199 259.2274,745.3398 260.5821,751.2305 262.5195,756.9561 265.0201,762.4591 268.0587,767.6842 271.3691,772.2838 275.359,776.8243 279.4948,780.6986 284.2859,784.3838 289.0916,787.3871 294.5039,790.0785 300.1582,792.2148 305.998,793.7746 311.589,794.6993 317.2422,795.0954 323.2844,794.9313 328.9077,794.2289 334.8047,792.9019 340.5393,790.9914 346.054,788.5167 351.2934,785.5026 355.9084,782.2139 360.1946,778.5066 364.3613,774.1278 367.8515,769.6631 371.0949,764.5625 373.8117,759.163 375.9745,753.5187 377.5617,747.6864 378.5574,741.7245 378.9446,736.0707 378.771,730.0287 377.9937,724.0344 376.7236,718.5116 374.9408,713.1323 372.4921,707.6061 369.5026,702.3526 366.0025,697.4247 362.2885,693.1443 357.9032,688.9844 353.1237,685.2842 347.9979,682.0808 342.9236,679.5575 337.276,677.4035 331.4411,675.8254 325.853,674.8832 320.2012,674.4695 314.1584,674.6147 308.533,675.2994"/>
    <polygon points="297.1406,679.6739 291.6325,682.1527 286.7233,684.9755 282.1065,688.2548 277.5519,692.2221 273.6702,696.3454 269.9847,701.1309 266.9897,705.937 264.3173,711.3538 262.3258,716.655 260.8505,722.1224 259.9048,727.7058 259.4895,733.7317 259.6603,739.3921 260.4382,745.3819 261.7188,750.8982 263.521,756.2667 265.9997,761.7748 269.0273,767.0014 272.3361,771.5972 276.0692,775.8554 280.1925,779.7371 284.6681,783.2068 289.7841,786.4177 294.8546,788.9394 300.143,790.9646 305.6008,792.4748 311.5529,793.5025 317.2012,793.9099 323.2392,793.747 328.8573,793.0357 334.7453,791.6886 340.1138,789.8863 345.6219,787.4076 350.5312,784.5848 355.1479,781.3054 359.4299,777.5995 363.5842,773.2149 367.0539,768.7393 370.2648,763.6233 372.7865,758.5528 374.8117,753.2643 376.4039,747.4378 377.3496,741.8544 377.757,736.2061 377.5941,730.1682 376.8163,724.1783 375.5357,718.662 373.5951,712.9421 371.2547,707.7854 368.4319,702.8762 364.9183,697.9631 361.1852,693.7048 357.062,689.8231 352.5864,686.3535 347.7995,683.3278 342.3999,680.6209 337.1114,678.5956 331.2849,677.0034 325.7015,676.0577 320.0532,675.6503 314.0153,675.8132 308.3972,676.5246 302.5091,677.8717"/>
    <polygon points="268.8696,692.2413 264.9431,697.3184 261.5326,702.7556 258.6709,708.5006 256.3856,714.4983 254.6986,720.691 253.6262,727.019 253.1786,733.4217 253.3602,739.8375 254.1691,746.2046 255.5977,752.4619 257.6322,758.5492 260.253,764.4081 263.435,769.9821 267.1475,775.2177 271.3549,780.0647 276.0167,784.4763 281.0881,788.4101 286.5204,791.8285 292.2613,794.6984 298.2557,796.9924 304.4459,798.6883 310.7724,799.7699 317.1744,800.2267 323.5904,800.0544 329.9587,799.2546 336.2181,797.8351 342.3083,795.8094 348.1709,793.197 353.7496,790.0231 358.9905,786.3181 363.8435,782.1177 368.2619,777.4623 372.203,772.3966 375.6292,766.9692 378.5074,761.2324 380.81,755.2414 382.5149,749.0536 383.6056,742.7287 384.0716,736.3273 383.9086,729.9111 383.0521,723.1697 381.6055,716.9166 379.5534,710.8351 376.9157,704.9839 373.7177,699.419 369.9901,694.1941 365.7687,689.3594 361.0942,684.9612 356.0115,681.042 350.5693,677.6394 344.8202,674.786 338.8192,672.5093 332.6241,670.8313 326.2945,669.768 319.8912,669.3296 313.4757,669.5204 307.1098,670.3386 300.8545,671.7762 294.7701,673.8194 288.9151,676.4487 283.3456,679.6387 278.1154,683.3588 273.2745,687.5731"/>
    <polygon points="265.0351,676.8974 263.1278,672.0864 251.8398,679.345"/>
    <line x1="264.8988" x2="263.15" y1="676.5538" y2="677.247"/>
    <line x1="261.265" x2="264.7626" y1="677.5967" y2="676.2101"/>
    <line x1="264.6264" x2="259.38" y1="675.8665" y2="677.9464"/>
    <line x1="257.4949" x2="264.4901" y1="678.296" y2="675.5228"/>
    <line x1="264.3539" x2="255.6099" y1="675.1792" y2="678.6457"/>
    <line x1="255.065" x2="263.809" y1="677.2711" y2="673.8046"/>
    <line x1="263.9452" x2="253.4524" y1="674.1482" y2="678.308"/>
    <line x1="253.7249" x2="264.2177" y1="678.9953" y2="674.8355"/>
    <line x1="264.0814" x2="251.8398" y1="674.4919" y2="679.345"/>
    <line x1="256.6775" x2="263.6727" y1="676.2341" y2="673.461"/>
    <line x1="263.5365" x2="258.2901" y1="673.1173" y2="675.1972"/>
    <line x1="259.9027" x2="263.4003" y1="674.1603" y2="672.7737"/>
    <line x1="263.264" x2="261.5152" y1="672.43" y2="673.1233"/>
    <polygon points="257.4305,721.1346 256.3561,727.4624 255.9343,733.8668 256.1374,739.9044 256.9206,745.8945 258.2766,751.7813 260.3309,757.862 262.8228,763.3651 265.8328,768.6029 269.3328,773.5267 273.2905,778.0908 277.9558,782.4988 282.7368,786.1914 288.1807,789.5911 293.5969,792.2668 299.2454,794.4088 305.4429,796.0778 311.4032,797.0621 317.8083,797.4743 323.8456,797.2621 329.8345,796.4699 335.7193,795.105 341.7969,793.0416 347.2963,790.5414 352.5295,787.5236 357.448,784.0161 362.2781,779.7894 366.407,775.3797 370.0925,770.593 373.3001,765.4739 376.1515,759.7238 378.285,754.0721 379.8647,748.2412 380.876,742.2854 381.3093,736.2599 381.1322,729.8441 380.367,723.8517 379.0287,717.9607 376.9928,711.8739 374.5175,706.3633 371.5233,701.1165 368.0381,696.1822 363.8333,691.333 359.4422,687.1842 354.6723,683.4772 349.2386,680.061 343.4842,677.2183 337.8293,675.0933 331.6268,673.443 325.6635,672.4766 319.635,672.0886 313.597,672.2826 307.2342,673.1243 301.3535,674.5069 295.6331,676.4491 290.1263,678.9327 284.5662,682.139 279.6583,685.6613 275.1121,689.6395 270.9699,694.0368 267.0543,699.1224 263.8621,704.2511 261.1783,709.6633 259.0278,715.3086"/>
    <polygon points="255.2196,726.9945 254.7585,733.3945 254.9416,739.8085 255.7673,746.1717 257.1239,752.0568 259.0302,757.7875 261.6388,763.6499 264.8224,769.221 268.3151,774.148 272.2575,778.7231 276.8996,783.153 281.654,786.8773 287.0666,790.3235 292.7976,793.2093 298.4306,795.3873 304.6123,797.1076 310.9353,798.1991 317.336,798.6508 323.3732,798.4874 329.368,797.7545 335.6311,796.3594 341.3701,794.4785 347.244,791.8959 352.8292,788.7371 358.0694,785.034 362.6387,781.0848 367.0617,776.4362 370.779,771.6763 374.2171,766.2586 377.0945,760.5234 379.382,754.5284 381.0566,748.3342 382.0575,742.3783 382.4916,736.3545 382.3274,729.94 381.5205,723.5743 380.1813,717.6853 378.2919,711.949 375.7007,706.0789 372.5336,700.4984 369.0554,695.5611 364.8668,690.7002 360.2117,686.2841 355.4463,682.5739 350.0235,679.1437 344.6294,676.4275 338.6446,674.1135 332.8263,672.4943 326.5065,671.3841 320.1072,670.9135 313.693,671.0872 307.7004,671.8378 301.4414,673.2514 295.3559,675.2857 289.5051,677.9203 284.2659,680.9244 279.0367,684.643 274.2069,688.8675 270.0698,693.2673 266.3666,698.0382 262.9445,703.466 260.0841,709.2098 257.9311,714.8524 256.3205,720.6731"/>
    <polygon points="267.9323,774.2991 272.1273,779.159 276.7862,783.5761 281.8624,787.5066 287.3055,790.911 292.7147,793.6042 298.7119,795.8956 304.5389,797.4957 310.8652,798.5882 317.269,799.0443 323.6864,798.8592 329.6813,798.101 335.9426,796.6825 341.679,794.783 347.5495,792.1842 353.1315,789.0128 358.0717,785.5331 362.9377,781.3452 367.3617,776.6928 371.2996,771.6223 374.712,766.1843 377.5649,760.433 379.7134,754.7852 381.322,748.9606 382.4239,742.6358 382.8893,736.2327 382.7137,729.8151 381.9643,723.8191 380.555,717.5557 378.5279,711.4641 375.9032,705.6051 372.7072,700.0371 369.2058,695.1123 364.9965,690.2648 360.3247,685.8613 355.2369,681.9459 350.1138,678.7415 344.3667,675.8802 338.3628,673.6063 332.5312,672.0234 326.2016,670.9494 319.7965,670.5122 313.7564,670.6864 307.7593,671.427 301.4938,672.8271 295.3992,674.8453 289.5364,677.4613 283.9637,680.6491 278.7369,684.3769 274.1801,688.3454 269.7697,693.0108 265.8468,698.0929 262.635,703.2112 259.7651,708.9541 257.6001,714.5956 255.891,720.7839 254.8539,726.7369 254.3697,733.1387 254.5264,739.5568 255.3226,745.9272 256.6491,751.8225 258.6583,757.92 261.2657,763.7867 264.243,769.045"/>
    <polygon points="276.2015,784.1147 281.2704,788.0559 286.3744,791.292 292.1012,794.1957 298.0862,796.5208 304.2713,798.2447 310.5962,799.3506 316.9993,799.8277 323.4183,799.6715 329.7906,798.8833 336.0542,797.471 342.1481,795.4482 348.0129,792.8346 353.5916,789.6557 358.8299,785.9425 363.6766,781.731 368.0847,777.0624 372.0112,771.9821 375.2325,766.8687 378.1195,761.1335 380.4273,755.1417 382.1332,748.9516 383.2207,742.6236 383.6793,736.2191 383.5044,729.8006 382.6977,723.4307 381.2672,717.1712 379.2267,711.0832 376.5961,705.226 373.4011,699.6565 369.9061,694.7262 365.7087,689.8672 361.0529,685.4456 355.984,681.5043 350.5513,678.0819 344.8078,675.2115 338.8093,672.9212 332.9831,671.3156 326.6582,670.2097 320.2551,669.7325 313.8361,669.8888 307.4638,670.6769 301.2003,672.0893 295.1064,674.1121 289.2415,676.7256 283.6628,679.9045 278.4245,683.6178 273.5778,687.8292 269.1697,692.4978 265.2432,697.5781 262.0219,702.6915 259.1349,708.4267 256.8272,714.4185 255.1212,720.6086 254.0337,726.9367 253.5752,733.3411 253.7501,739.7596 254.4919,745.7573 255.886,752.025 257.8911,758.1247 260.4877,763.9971 263.6503,769.5851 267.3483,774.8341 271.5457,779.693"/>
    <polygon points="277.3709,783.0375 282.1449,786.7407 287.5782,790.159 293.3289,793.0112 298.9787,795.1522 304.8064,796.7466 311.1342,797.8254 317.5387,798.2598 323.5777,798.0759 329.9439,797.2524 335.831,795.8938 341.9142,793.8443 347.4231,791.3633 352.6713,788.3698 357.9087,784.6582 362.7444,780.4368 366.8846,776.0364 370.5878,771.2624 374.0061,765.8291 376.7067,760.4244 378.9993,754.4287 380.5937,748.6009 381.6725,742.2731 382.0993,736.2463 381.9229,729.8296 381.0995,723.4635 379.7409,717.5763 377.8289,711.845 375.2104,705.9842 372.0134,700.4178 368.5053,695.4987 364.5455,690.9353 359.8835,686.5227 355.1095,682.8196 349.6762,679.4013 343.9255,676.5491 338.2757,674.408 332.0791,672.7325 326.1202,671.7348 319.7157,671.3004 313.6767,671.4844 307.6825,672.2416 301.4234,673.6664 295.3403,675.716 289.8313,678.197 284.5831,681.1904 279.3458,684.902 274.51,689.1235 270.3698,693.5238 266.4505,698.6076 263.2484,703.7311 260.5477,709.1358 258.2551,715.1316 256.6607,720.9593 255.5819,727.2871 255.1475,733.6916 255.3315,739.7306 256.1549,746.0968 257.5135,751.9839 259.563,758.0671 262.0441,763.576 265.241,769.1425 268.7491,774.0616 272.7089,778.6249"/>
    <polygon points="282.9191,785.8372 288.0338,789.0566 293.4363,791.7653 299.435,794.0553 305.2682,795.6359 311.2271,796.6439 317.6334,797.077 323.6737,796.8802 329.6666,796.0992 335.5556,794.7411 341.2853,792.8189 346.8018,790.3507 352.0532,787.3595 356.9902,783.8737 361.8391,779.6647 365.9845,775.2669 369.6843,770.4882 372.9037,765.3735 375.6124,759.971 377.7849,754.3315 379.4009,748.508 380.445,742.5553 380.9075,736.5295 380.7568,730.1103 380.0121,724.1128 378.6898,718.2157 376.666,712.122 374.1978,706.6055 371.2066,701.3541 367.4872,696.1201 363.5118,691.5682 359.114,687.4228 354.3353,683.723 348.8909,680.3191 343.472,677.6432 337.8194,675.5049 331.9862,673.9243 326.0273,672.9163 319.9988,672.4904 313.9574,672.6505 307.9599,673.3953 302.0628,674.7175 295.9691,676.7413 290.4526,679.2096 284.8829,682.4044 279.9672,685.9201 275.4153,689.8956 271.2699,694.2933 267.5701,699.072 264.3507,704.1867 261.642,709.5892 259.4695,715.2288 257.8535,721.0523 256.7634,727.38 256.3375,733.4085 256.4976,739.4499 257.2423,745.4474 258.5646,751.3445 260.452,757.0858 263.0567,762.9547 266.0478,768.2061 269.7672,773.4401 273.7427,777.992 278.1404,782.1374"/>
    <polygon points="281.6801,787.8606 287.1227,791.261 292.8754,794.1053 298.8817,796.3654 304.7134,797.9389 311.0414,799.0069 317.444,799.4425 323.8583,799.2414 329.8494,798.4723 336.1064,797.0465 342.1914,795.0077 348.0443,792.3758 353.6076,789.1768 358.8265,785.4422 363.6495,781.2087 367.7847,776.8059 371.7077,771.7272 375.1081,766.2847 377.9524,760.5319 380.2125,754.5256 381.786,748.6939 382.854,742.366 383.2896,735.9633 383.0885,729.549 382.2528,723.1862 380.7905,716.9376 378.7161,710.8646 376.2229,705.363 373.0239,699.7997 369.5232,694.8773 365.318,690.0297 360.653,685.6226 355.5743,681.6996 350.1317,678.2992 344.379,675.455 338.3727,673.1949 332.172,671.5411 326.2131,670.5533 319.8104,670.1177 313.3961,670.3188 307.0333,671.1546 300.7847,672.6168 295.063,674.5526 289.2101,677.1845 283.965,680.1801 278.7244,683.8842 273.8768,688.0894 269.4697,692.7543 265.5467,697.833 262.3312,702.9463 259.4535,708.6823 257.1583,714.6753 255.4684,720.8663 254.4004,727.1943 253.9648,733.5969 254.1659,740.0112 255.0017,746.374 256.3608,752.2593 258.3997,758.3443 261.0316,764.1973 264.2305,769.7605 267.9651,774.9794 272.1986,779.8024 276.6014,783.9376"/>
    <polygon points="294.3184,790.4283 299.9686,792.5684 305.8034,794.1365 311.39,795.0732 317.4172,795.494 323.4564,795.3137 329.4478,794.5342 334.9686,793.266 340.6995,791.3526 346.212,788.8792 351.4513,785.8703 356.0691,782.5895 360.6347,778.6323 364.7844,774.2409 368.4772,769.4589 371.6765,764.3336 374.3507,758.9157 376.3572,753.6184 377.8614,748.1572 378.8975,742.2048 379.337,736.1789 379.1755,730.1392 378.4147,724.1454 377.1636,718.6207 375.2681,712.8839 372.8119,707.3638 369.8193,702.1151 366.3199,697.1897 362.6098,692.9093 358.2314,688.7459 353.4608,685.0382 348.6744,682.0089 343.2817,679.2843 337.645,677.109 331.82,675.5046 325.8644,674.487 319.8372,674.0663 313.798,674.2465 308.1785,674.9599 302.2858,676.2943 296.5549,678.2076 291.0425,680.681 285.8031,683.6899 280.8886,687.2045 276.3478,691.1901 272.47,695.3194 268.9939,699.7919 265.7628,704.8972 263.0549,710.2983 260.8972,715.9418 259.393,721.403 258.3569,727.3554 257.9174,733.3813 258.0789,739.421 258.8398,745.4148 260.0908,750.9395 261.9863,756.6764 264.4425,762.1965 267.4351,767.4452 270.9345,772.3705 274.9059,776.9238 279.0231,780.8143 283.7936,784.522 288.9089,787.7372"/>
    <polygon points="295.0399,788.5896 300.3324,790.6113 306.1639,792.1952 311.7519,793.1287 317.4038,793.5196 323.0671,793.3643 329.0612,792.5984 334.5816,791.3246 339.9536,789.5251 345.1273,787.2165 350.3732,784.2171 354.9872,780.9296 359.2631,777.213 363.4067,772.8146 366.8619,768.3247 369.8686,763.5229 372.5499,758.1076 374.546,752.8054 376.0222,747.3357 377.0083,741.3739 377.3719,735.7202 377.1893,730.0577 376.4622,724.4391 375.0941,718.5532 373.2687,713.1899 370.9351,708.0274 367.9105,702.7961 364.6008,698.1979 360.8636,693.94 356.7336,690.0618 352.2493,686.5994 347.1225,683.4007 342.0413,680.895 336.7424,678.8904 330.9058,677.3253 325.3149,676.4097 319.6617,676.037 313.9989,676.2105 308.3792,676.9285 302.8548,678.1846 297.1249,680.104 291.9587,682.4292 287.0404,685.2413 282.119,688.7478 277.855,692.4782 273.9702,696.6019 270.5006,701.0806 267.4785,705.8727 264.9321,710.9336 262.7667,716.5751 261.2729,722.04 260.3125,727.6234 259.8943,733.2734 260.0502,739.3142 260.7592,744.9351 262.0064,750.4615 263.78,755.8422 266.2335,761.3645 269.2413,766.6055 272.5362,771.2143 276.2598,775.4842 280.3772,779.3757 284.8504,782.8525 289.9668,786.0676"/>
    <polygon points="299.1682,794.7988 305.3698,796.4659 311.3333,797.4514 317.3637,797.8618 323.7824,797.6635 330.1477,796.8137 336.0308,795.4267 341.7541,793.4831 347.2651,791.0008 352.5134,788.0025 357.7479,784.2823 362.5771,780.0493 366.7071,775.6361 370.6111,770.5372 373.7941,765.3989 376.4708,759.9795 378.7327,753.9693 380.3719,747.7602 381.3306,741.7924 381.7139,735.7603 381.5182,729.7191 380.7453,723.7244 379.4024,717.8311 377.3648,711.7412 374.8907,706.2264 371.6968,700.6552 368.1879,695.7336 364.2242,691.1704 359.5551,686.7614 354.7725,683.0654 349.3285,679.6592 343.9132,676.9743 337.9064,674.7035 332.0693,673.1343 326.1088,672.131 320.0797,671.7025 313.6604,671.8816 307.6645,672.6455 301.4054,674.0817 295.6763,676.0081 289.821,678.6455 284.5818,681.6595 279.655,685.161 274.8131,689.3795 270.6698,693.7803 266.7507,698.8675 263.5523,703.9963 260.7084,709.754 258.5795,715.411 256.9217,721.6151 255.9451,727.5801 255.5437,733.611 255.7213,739.6528 256.4763,745.6498 257.9031,751.911 259.8209,757.643 262.2785,763.1652 265.4557,768.746 268.9498,773.678 272.8998,778.2531 277.5557,782.676 282.3272,786.3863 287.7609,789.8089 293.5144,792.6614"/>
    <polygon points="304.3725,799.0764 310.7023,800.159 317.1074,800.62 323.5269,800.455 329.8999,799.6656 336.1656,798.2593 342.617,796.1128 348.4763,793.4848 354.0518,790.2986 359.2905,786.5846 364.1425,782.378 368.5618,777.7189 372.5063,772.6515 375.9386,767.224 378.8259,761.4881 381.1409,755.4982 382.8615,749.3113 384.0174,742.6112 384.4692,736.2055 384.295,729.7862 383.4965,723.4144 382.0812,717.1506 380.0625,711.0545 377.4598,705.184 374.2976,699.5948 370.6062,694.3402 366.4205,689.4701 361.4943,684.784 356.4213,680.8467 350.9889,677.4222 345.2488,674.5431 339.2556,672.2368 332.6974,670.4432 326.3645,669.3788 319.9581,668.9361 313.5391,669.1195 307.1684,669.9272 300.9067,671.3515 294.4616,673.5166 288.6098,676.1614 283.0435,679.3635 277.8155,683.0925 272.9755,687.313 268.5696,691.9848 264.6396,697.0635 261.223,702.5008 258.3521,708.245 256.0543,714.2415 254.2702,720.8023 253.2148,727.1366 252.7814,733.5436 252.974,739.9624 253.8582,746.7038 255.3273,752.9551 257.3984,759.0336 260.0516,764.8816 263.2617,770.4433 266.9982,775.6659 271.2256,780.4998 275.9037,784.899 280.9881,788.8217 286.4302,792.2306 292.1786,795.0932 298.1783,797.3824"/>
    <polygon points="317.3628,792.3343 323.0219,792.1802 328.6386,791.471 334.1584,790.2135 339.528,788.42 344.6955,786.1077 349.6109,783.299 354.2267,780.0212 358.4982,776.3058 362.3841,772.1888 365.8469,767.7101 368.6674,763.2417 371.2209,758.1891 373.2659,752.9101 374.7824,747.4557 375.7559,741.8788 376.1769,736.2333 376.0414,730.5736 375.3506,724.9547 374.1112,719.4308 372.3353,714.0553 370.04,708.8802 367.2475,703.9557 363.9848,699.3292 360.2834,695.0455 356.1792,691.1461 351.7119,687.6687 346.9246,684.6469 341.8636,682.1099 336.5779,680.0823 331.1186,678.5836 325.5385,677.6285 319.8916,677.226 314.2325,677.3801 308.6158,678.0893 303.096,679.3467 297.7264,681.1403 292.5589,683.4525 287.6435,686.2612 283.0277,689.539 278.7562,693.2544 274.8703,697.3714 271.4076,701.8501 268.4015,706.6473 265.8811,711.7166 263.8708,717.0089 262.3901,722.4731 261.4532,728.0562 261.0692,733.7044 261.2419,739.3631 261.9695,744.9773 263.1432,750.1295 264.9191,755.5049 267.2144,760.68 270.0069,765.6046 273.2696,770.2311 276.971,774.5147 281.0752,778.4141 285.5426,781.8915 290.3299,784.9133 295.3908,787.4503 300.6765,789.4779 306.1358,790.9766 311.7159,791.9318"/>
    <polygon points="309.4144,773.8641 329.3321,761.9928 306.2114,763.746"/>
    <line x1="309.3" x2="310.8371" y1="773.5027" y2="773.0161"/>
    <line x1="309.1856" x2="312.2598" y1="773.1414" y2="772.1682"/>
    <line x1="313.6825" x2="309.0712" y1="771.3203" y2="772.78"/>
    <line x1="308.9568" x2="315.1052" y1="772.4187" y2="770.4723"/>
    <line x1="316.5279" x2="308.8424" y1="769.6244" y2="772.0573"/>
    <line x1="308.728" x2="317.9505" y1="771.6959" y2="768.7764"/>
    <line x1="319.3732" x2="308.6137" y1="767.9285" y2="771.3346"/>
    <line x1="308.4993" x2="320.7959" y1="770.9732" y2="767.0805"/>
    <line x1="322.2186" x2="308.3849" y1="766.2326" y2="770.6118"/>
    <line x1="308.2705" x2="323.6413" y1="770.2505" y2="765.3846"/>
    <line x1="325.064" x2="308.1561" y1="764.5367" y2="769.8891"/>
    <line x1="308.0417" x2="326.4867" y1="769.5278" y2="763.6887"/>
    <line x1="326.0291" x2="307.5841" y1="762.2433" y2="768.0823"/>
    <line x1="307.6985" x2="327.6806" y1="768.4437" y2="762.1181"/>
    <line x1="327.9094" x2="307.9273" y1="762.8408" y2="769.1664"/>
    <line x1="307.8129" x2="329.3321" y1="768.805" y2="761.9928"/>
    <line x1="324.3776" x2="307.4697" y1="762.3685" y2="767.721"/>
    <line x1="307.3553" x2="322.7262" y1="767.3596" y2="762.4937"/>
    <line x1="321.0747" x2="307.2409" y1="762.619" y2="766.9982"/>
    <line x1="307.1265" x2="319.4232" y1="766.6369" y2="762.7442"/>
    <line x1="317.7717" x2="307.0121" y1="762.8694" y2="766.2755"/>
    <line x1="306.8977" x2="316.1202" y1="765.9142" y2="762.9946"/>
    <line x1="314.4688" x2="306.7833" y1="763.1199" y2="765.5528"/>
    <line x1="306.669" x2="312.8173" y1="765.1914" y2="763.2451"/>
    <line x1="311.1658" x2="306.5546" y1="763.3703" y2="764.8301"/>
    <line x1="306.4402" x2="309.5143" y1="764.4687" y2="763.4955"/>
    <line x1="307.8629" x2="306.3258" y1="763.6208" y2="764.1073"/>
    <polygon points="340.8163,792.1542 346.3384,789.7003 351.5931,786.7166 356.5296,783.2316 361.1005,779.2791 365.2615,774.8973 368.9725,770.1283 372.1977,765.0183 374.906,759.6164 377.0712,753.975 378.6725,748.1483 379.6944,742.1926 380.127,736.1653 379.9662,730.1247 379.2135,724.1291 377.8762,718.2362 375.9671,712.5029 373.5048,706.9846 370.513,701.7346 367.0205,696.8033 363.061,692.2386 358.6727,688.0843 353.8981,684.3806 348.7831,681.1633 343.3771,678.4633 337.7323,676.3067 331.9031,674.7144 325.9459,673.7017 319.918,673.2783 313.8777,673.4484 307.8832,674.2103 301.9923,675.5566 296.262,677.4745 290.7475,679.9452 285.502,682.9452 280.5762,686.4452 276.0175,690.4117 271.87,694.8063 268.1736,699.5867 264.9641,704.7066 262.2725,710.1167 260.1246,715.7648 258.5412,721.5964 257.5376,727.5552 257.1235,733.5838 257.3028,739.6238 258.0739,745.6172 259.4293,751.5059 261.356,757.2333 263.8352,762.744 266.8432,767.9849 270.3508,772.9053 274.3243,777.4579 278.7253,781.5987 283.5113,785.2877 288.6361,788.4893 294.0504,791.1727 299.7018,793.3119 305.5358,794.8863 311.4962,795.8808 317.5253,796.2856 323.5651,796.097 329.1852,795.3827 335.0801,794.0544"/>
    <polygon points="345.0008,786.3952 349.9131,783.5743 354.5266,780.2875 358.7972,776.5659 362.6841,772.4453 366.1503,767.965 369.1626,763.1677 371.6922,758.0993 373.7151,752.8082 375.2924,746.9758 376.2123,741.3864 376.5821,735.7338 376.3985,730.0722 375.663,724.4555 374.3829,718.9375 372.5702,713.5707 370.2423,708.4065 367.4214,703.4942 364.1346,698.8808 360.413,694.6101 356.2924,690.7232 351.8121,687.257 347.0148,684.2447 341.9464,681.7151 336.6553,679.6923 331.192,678.1956 325.6086,677.2393 319.5809,676.8252 313.9193,677.0089 308.3026,677.7443 302.7846,679.0245 297.4178,680.8371 292.2536,683.165 287.3413,685.9859 282.7279,689.2728 278.4572,692.9943 274.5703,697.1149 271.1041,701.5952 268.0918,706.3925 265.5622,711.4609 263.5394,716.7521 262.0427,722.2154 261.0864,727.7987 260.6797,733.4487 260.8265,739.1114 261.5253,744.7327 262.7695,750.259 264.5472,755.6375 266.8413,760.8167 269.6301,765.7473 273.1199,770.6795 276.8414,774.9501 280.962,778.837 285.4423,782.3032 290.2396,785.3155 295.308,787.8451 300.9586,789.9843 306.4315,791.4453 312.021,792.3652 317.6735,792.735 323.3351,792.5514 328.9518,791.8159 334.4699,790.5358 339.8366,788.7231"/>
    <polygon points="350.6727,785.4305 355.6085,781.9475 359.8956,778.2462 364.0614,773.8712 367.7656,769.0991 370.7856,764.3077 373.493,758.9073 375.5254,753.6208 377.133,747.7976 378.1005,742.217 378.547,736.1925 378.3848,730.1537 377.6156,724.1618 376.3499,718.6413 374.5689,713.2648 372.1189,707.7429 369.1256,702.4956 365.8528,697.8732 361.8977,693.3068 357.5031,689.1617 352.7136,685.4801 347.9079,682.4827 342.8408,679.9524 337.1987,677.7935 331.368,676.2135 325.783,675.2724 319.7564,674.8543 314.0949,675.0153 308.1019,675.7751 302.2157,677.1343 296.4963,679.0791 291.3375,681.4168 286.4223,684.2309 281.4975,687.7295 277.2221,691.4443 273.0701,695.8324 269.5972,700.3064 266.376,705.417 263.6857,710.8259 261.5535,716.4781 260.0807,721.9471 259.0863,727.9057 258.7033,733.5565 258.8845,739.5948 259.6726,745.5842 260.9556,751.1008 262.8914,756.8232 265.221,761.9858 268.0274,766.9054 271.5182,771.8357 275.2262,776.1169 279.6077,780.2758 284.0763,783.7557 289.1818,786.985 294.5865,789.6838 299.8762,791.7079 305.702,793.3063 311.284,794.265 317.3092,794.7021 323.3478,794.5304 328.9666,793.818 334.857,792.4773 340.2306,790.6878 345.7487,788.2292"/>
    <polygon points="350.8333,784.8599 355.4478,781.5717 359.7289,777.8598 363.8843,773.4714 367.3572,768.9942 370.5745,763.8781 373.1052,758.8084 375.1426,753.5212 376.6681,748.0642 377.7158,742.112 378.1452,736.4621 378.0091,730.42 377.3257,724.7951 376.0111,718.8962 374.2414,713.5134 371.7991,707.9852 369.0113,703.0523 365.5354,698.1082 361.8372,693.8153 357.4619,689.6461 352.9958,686.159 347.8899,682.9254 342.4825,680.2261 337.1888,678.2056 331.3581,676.6154 325.7716,675.6686 320.1203,675.2571 314.0787,675.4124 308.0839,676.1793 302.5613,677.4469 296.832,679.3709 291.6637,681.6935 286.7396,684.497 281.8066,687.9885 277.5255,691.7004 273.3701,696.0889 269.6811,700.876 266.6799,705.6821 263.9978,711.098 261.994,716.3981 260.4224,722.2338 259.4933,727.8234 259.0998,733.4759 259.2742,739.517 259.9933,745.1374 261.2433,750.6641 263.013,756.0468 265.4553,761.575 268.2431,766.508 271.719,771.4521 275.4173,775.7449 279.7925,779.9142 284.2587,783.4013 289.3645,786.6348 294.4261,789.1816 300.0656,791.3547 305.5274,792.8629 311.4828,793.8916 317.1341,794.3031 323.1758,794.1478 329.1706,793.3809 334.6932,792.1133 340.0703,790.3266 345.5907,787.8667"/>
    <polygon points="372.7782,764.7889 375.4448,759.3692 377.5705,753.7154 379.1352,747.8814 380.1239,741.9227 380.5273,735.8959 380.3414,729.8586 379.5681,723.8681 378.2147,717.9815 376.2941,712.2547 373.8246,706.7424 370.8296,701.497 367.3378,696.5684 363.3823,692.0035 359.0008,687.8458 354.235,684.1348 349.1303,680.906 343.7352,678.1899 338.1011,676.0125 332.2816,674.3945 326.3322,673.3513 320.3094,672.8929 313.8939,673.0512 307.5294,673.8728 301.6469,675.2442 295.926,677.1822 290.4213,679.6685 285.185,682.6794 280.2671,686.1863 275.7143,690.1557 271.5699,694.5498 267.8736,699.3269 264.6603,704.4415 261.9607,709.8449 259.8005,715.4856 258.2003,721.31 257.1752,727.2626 256.7351,733.2867 256.8842,739.3251 257.6209,745.3202 258.9384,751.215 260.824,756.9533 263.2598,762.4806 266.2227,767.7442 269.6844,772.694 273.8721,777.5567 278.2536,781.7145 283.0194,785.4254 288.1242,788.6543 293.5193,791.3703 299.1534,793.5477 304.9728,795.1657 310.9223,796.2089 317.3226,796.6765 323.3605,796.509 329.3533,795.754 335.2441,794.4185 340.9766,792.5154 346.4964,790.0627 351.751,787.0838 356.6902,783.607 361.5402,779.4046 365.6845,775.0104 369.5962,769.923"/>
    <polygon points="379.3657,761.2411 381.6414,755.2389 383.3256,749.0446 384.4465,742.3413 384.8693,735.936 384.6702,729.52 383.8512,723.1533 382.4199,716.8958 380.3897,710.8061 377.7796,704.9416 374.6143,699.3571 370.6907,693.8076 366.4812,688.9615 361.8224,684.5454 356.7582,680.601 351.336,677.1651 345.2612,674.1173 339.2655,671.8245 333.0761,670.1227 326.751,669.0279 319.972,668.5416 313.5554,668.7224 307.1864,669.5233 300.9248,670.9367 294.4773,673.0863 288.6201,675.713 282.7267,679.098 277.5065,682.8336 272.6723,687.057 268.2696,691.7283 264.3396,696.8038 260.9192,702.2358 258.0406,707.9733 255.613,714.3214 253.9289,720.5156 252.8079,727.219 252.3851,733.6242 252.5842,740.0402 253.4032,746.4069 254.8346,752.6645 256.8648,758.7541 259.4748,764.6187 262.6401,770.2031 266.331,775.4551 270.7732,780.5988 275.432,785.0148 280.4963,788.9593 286.2475,792.5807 291.9932,795.4429 297.9889,797.7357 304.1783,799.4375 310.5034,800.5323 316.9048,801.0099 323.699,800.8379 330.068,800.037 336.3296,798.6235 342.425,796.6106 348.6343,793.8472 354.2097,790.666 359.7479,786.7266 364.5821,782.5033 368.9848,777.8319 373.1305,772.4463 376.5198,766.9949"/>
    <polygon points="372.2866,752.095 373.6722,746.9942 374.6198,741.4111 374.9947,736.1387 374.8467,730.4778 374.1315,724.8602 372.9587,719.7062 371.1727,714.3324 368.8566,709.1647 366.2372,704.5737 362.9671,699.9504 359.2498,695.6784 355.4097,692.0463 350.9377,688.5722 346.1397,685.5642 341.4101,683.2042 336.1217,681.179 331.0256,679.7763 325.4457,678.8101 320.1746,678.4175 314.5132,678.5466 308.8932,679.2429 303.7354,680.3984 298.3556,682.1665 293.1802,684.4652 288.5805,687.0692 283.9462,690.3238 279.6618,694.0268 275.7704,698.1409 272.5278,702.3151 269.5038,707.103 266.9753,712.1701 265.085,717.1062 263.5822,722.5661 262.6803,727.7742 262.2598,733.4215 262.4078,739.0825 263.1229,744.7001 264.3979,750.2176 266.0817,755.2279 268.3978,760.3955 271.0172,764.9865 274.2873,769.6098 277.7436,773.6088 281.8447,777.514 286.008,780.7706 290.7857,783.8106 295.8443,786.356 301.1327,788.3812 306.2289,789.7839 311.8087,790.7502 317.0798,791.1427 322.7413,791.0137 328.3612,790.3174 333.883,789.0609 338.8989,787.3938 344.0742,785.095 348.9929,782.2887 353.6052,779.0031 357.5926,775.5334 361.484,771.4193 364.9431,766.9356 367.7507,762.4573 370.2791,757.3902"/>
    <polygon points="467.1186,702.8569 461.921,701.984 457.0282,702.1305 452.25,703.1941 447.4278,705.3208 443.4204,708.1319 439.7792,711.9421 437.1526,716.0728 435.2466,720.9864 434.4007,725.8078 434.5202,731.0768 435.7026,736.2128 437.7104,740.6771 440.5215,744.6845 444.3318,748.3258 448.7996,751.1214 453.3761,752.8584 458.5736,753.7314 463.4665,753.5848 468.2446,752.5213 473.0668,750.3946 477.0742,747.5835 480.7155,743.7732 483.3421,739.6425 485.2481,734.7289 486.121,729.5314 485.9745,724.6385 484.792,719.5025 482.7842,715.0382 479.9731,711.0308 476.1629,707.3895 471.6951,704.594"/>
    <polygon points="532.3791,543.2716 552.4811,604.0496 702.6961,554.3667 682.5941,493.5888"/>
    <line x1="542.2663" x2="539.4882" y1="491.8634" y2="488.1829"/>
    <line x1="539.1883" x2="541.7138" y1="488.4093" y2="491.7551"/>
    <line x1="541.1614" x2="538.8884" y1="491.6469" y2="488.6356"/>
    <line x1="538.5886" x2="540.609" y1="488.862" y2="491.5387"/>
    <line x1="540.0566" x2="538.2887" y1="491.4304" y2="489.0883"/>
    <line x1="537.9889" x2="539.5042" y1="489.3147" y2="491.3222"/>
    <line x1="538.9518" x2="537.689" y1="491.2139" y2="489.541"/>
    <line x1="537.3891" x2="538.3993" y1="489.7674" y2="491.1057"/>
    <line x1="537.8469" x2="537.0893" y1="490.9975" y2="489.9937"/>
    <line x1="536.7894" x2="537.2945" y1="490.2201" y2="490.8892"/>
    <line x1="536.7421" x2="536.4895" y1="490.781" y2="490.4464"/>
    <line x1="539.788" x2="542.8187" y1="487.9566" y2="491.9716"/>
    <polygon points="542.8187,491.9716 543.3864,485.2404 536.1897,490.6728"/>
    <line x1="542.866" x2="540.0879" y1="491.4107" y2="487.7303"/>
    <line x1="540.3878" x2="542.9133" y1="487.5039" y2="490.8497"/>
    <line x1="542.9606" x2="540.6876" y1="490.2888" y2="487.2776"/>
    <line x1="540.9875" x2="543.0079" y1="487.0512" y2="489.7279"/>
    <line x1="543.0553" x2="541.2874" y1="489.167" y2="486.8249"/>
    <line x1="541.5872" x2="543.1026" y1="486.5985" y2="488.606"/>
    <line x1="543.1499" x2="541.8871" y1="488.0451" y2="486.3722"/>
    <line x1="542.187" x2="543.1972" y1="486.1458" y2="487.4842"/>
    <line x1="543.2445" x2="542.4868" y1="486.9232" y2="485.9195"/>
    <line x1="542.7867" x2="543.2918" y1="485.6931" y2="486.3623"/>
    <line x1="543.3391" x2="543.0866" y1="485.8014" y2="485.4668"/>
    <line x1="547.7265" x2="634.1153" y1="488.6119" y2="527.9575"/>
    <line x1="634.272" x2="519.0868" y1="527.6136" y2="475.1527"/>
    <line x1="519.5568" x2="634.7419" y1="474.1209" y2="526.5817"/>
    <line x1="634.8986" x2="548.5097" y1="526.2378" y2="486.8922"/>
    <line x1="577.4627" x2="635.0552" y1="499.6634" y2="525.8938"/>
    <line x1="635.2119" x2="606.4156" y1="525.5499" y2="512.4347"/>
    <line x1="605.0057" x2="633.802" y1="515.5302" y2="528.6454"/>
    <line x1="633.9587" x2="576.3661" y1="528.3015" y2="502.0711"/>
    <polygon points="621.7316,550.2466 630.8107,623.76 623.513,550.0484"/>
    <line x1="622.0879" x2="625.3633" y1="550.2069" y2="579.6519"/>
    <line x1="626.4321" x2="623.1567" y1="579.533" y2="550.0881"/>
    <line x1="622.8004" x2="629.3511" y1="550.1277" y2="609.0176"/>
    <line x1="628.9949" x2="622.4442" y1="609.0573" y2="550.1673"/>
    <line x1="438.7273" x2="425.7193" y1="326.3292" y2="303.0421"/>
    <line x1="424.7391" x2="437.7471" y1="303.5896" y2="326.8767"/>
    <line x1="438.0738" x2="412.0578" y1="326.6942" y2="280.12"/>
    <line x1="412.3846" x2="438.4006" y1="279.9374" y2="326.5117"/>
    <polygon points="405.7172,268.3851 437.4203,327.0593 439.0541,326.1467"/>
    <line x1="366.2902" x2="366.8755" y1="338.2467" y2="339.5608"/>
    <line x1="365.9462" x2="367.1169" y1="338.3999" y2="341.0282"/>
    <line x1="367.3582" x2="365.6021" y1="342.4955" y2="338.5531"/>
    <line x1="365.2581" x2="367.5995" y1="338.7064" y2="343.9629"/>
    <line x1="367.8408" x2="364.9141" y1="345.4302" y2="338.8596"/>
    <line x1="364.57" x2="368.0821" y1="339.0129" y2="346.8976"/>
    <line x1="368.3234" x2="364.226" y1="348.365" y2="339.1661"/>
    <line x1="363.882" x2="368.5648" y1="339.3193" y2="349.8323"/>
    <line x1="368.8061" x2="363.538" y1="351.2997" y2="339.4726"/>
    <line x1="363.1939" x2="369.0474" y1="339.6258" y2="352.7671"/>
    <line x1="369.2887" x2="362.8499" y1="354.2344" y2="339.7791"/>
    <line x1="362.5059" x2="369.53" y1="339.9323" y2="355.7018"/>
    <polygon points="369.53,355.7018 366.6342,338.0934 358.3775,341.7712"/>
    <line x1="368.6006" x2="362.1618" y1="354.5409" y2="340.0856"/>
    <line x1="361.8178" x2="367.6713" y1="340.2388" y2="353.38"/>
    <line x1="366.7419" x2="361.4738" y1="352.2191" y2="340.392"/>
    <line x1="361.1297" x2="365.8125" y1="340.5453" y2="351.0583"/>
    <line x1="364.8831" x2="360.7857" y1="349.8974" y2="340.6985"/>
    <line x1="360.4417" x2="363.9538" y1="340.8518" y2="348.7365"/>
    <line x1="363.0244" x2="360.0977" y1="347.5756" y2="341.005"/>
    <line x1="359.7536" x2="362.095" y1="341.1582" y2="346.4147"/>
    <line x1="361.1656" x2="359.4096" y1="345.2538" y2="341.3115"/>
    <line x1="359.0656" x2="360.2363" y1="341.4647" y2="344.093"/>
    <line x1="359.3069" x2="358.7215" y1="342.9321" y2="341.618"/>
    <polygon points="287.7142,455.5511 325.0409,528.8427 350.8025,515.7226 313.4758,442.4309"/>
    <polygon points="268.8199,528.2981 266.8841,535.5837 266.3932,543.106 267.3656,550.5814 269.7646,557.7279 271.4729,561.0927 273.7194,564.5829 278.7051,570.237 284.6897,574.8208 291.4475,578.1613 295.0376,579.324 299.0961,580.1935 306.6208,580.6479 314.0914,579.6392 321.226,577.2054 327.7557,573.4384 333.434,568.4802 335.8855,565.6113 338.2462,562.1974 341.5538,555.4234 343.4896,548.1378 343.9805,540.6155 343.0081,533.1401 341.8606,529.1512 340.4531,525.6499 336.6544,519.1386 331.6686,513.4845 328.4871,510.8188 325.3625,508.7029 318.5725,505.4283 311.2776,503.528 303.7529,503.0736 296.2824,504.0823 289.1477,506.5161 282.618,510.2831 276.9397,515.2413 274.2586,518.4099 272.1275,521.5241"/>
    <line x1="304.702" x2="301.3875" y1="546.9529" y2="570.5626"/>
    <line x1="302.5461" x2="305.8605" y1="570.7253" y2="547.1155"/>
    <polygon points="306.2467,547.1697 304.3158,546.8987 296.9952,606.0586"/>
    <line x1="305.4744" x2="298.8455" y1="547.0613" y2="594.2808"/>
    <line x1="298.4593" x2="305.0882" y1="594.2266" y2="547.0071"/>
    <line x1="301.1132" x2="255.0572" y1="572.012" y2="827.6178"/>
    <polygon points="160.9438,872.0685 397.9522,662.5789 328.0131,583.4525 91.0047,792.9421"/>
    <polygon points="204.363,599.8969 208.7343,605.5768 213.8481,610.0456 219.7185,613.4602 226.4988,615.7837 233.2297,616.6874 240.3826,616.2345 246.9458,614.4893 253.3789,611.3293 258.7719,607.2017 263.5025,601.8172 266.9014,595.9378 269.2069,589.1514 270.1039,582.0404 269.6208,575.2663 267.8581,568.7078 264.681,562.2831 260.5391,556.9012 255.4491,552.4052 249.2536,548.8016 242.8291,546.6 236.1031,545.6606 228.9478,546.0754 222.3755,547.7858 215.9257,550.9115 210.2341,555.2677 205.7517,560.3696 202.3215,566.2309 199.9801,573.005 199.0452,580.111 199.4923,586.8876 201.2201,593.4554"/>
  </g>
</svg>
