<?xml version="1.0" encoding="utf-8" ?>
<svg xmlns="http://www.w3.org/2000/svg" xmlns:cc="http://creativecommons.org/ns" xmlns:dc="http://purl.org/dc/elements/1.1/" xmlns:ev="http://www.w3.org/2001/xml-events" xmlns:inkscape="http://www.inkscape.org/namespaces/inkscape" xmlns:rdf="http://www.w3.org/1999/02/22-rdf-syntax-ns" xmlns:sodipodi="http://sodipodi.sourceforge.net/DTD/sodipodi-0.dtd" xmlns:xlink="http://www.w3.org/1999/xlink" baseProfile="tiny" height="29.7cm" version="1.2" viewBox="0 0 793.7007874015749 1122.5196850393702" width="21.0cm">
  <metadata>
    <rdf:RDF>
      <cc:Work>
        <dc:format>image/svg+xml</dc:format>
        <dc:source>vsk save -s 52 -c C:\Users\marti\Documents\git\putti-plotter-plot\sixfeet\config\1.json C:\Users\marti\Documents\git\putti-plotter-plot\sixfeet\sketch_sixfeet.py</dc:source>
        <dc:date>2023-11-19T17:46:28.740084</dc:date>
      </cc:Work>
    </rdf:RDF>
  </metadata>
  <defs/>
  <g fill="none" id="layer1" inkscape:groupmode="layer" inkscape:label="1" stroke="#0000ff" style="display:inline">
    <polygon points="419.4079,557.2067 416.4336,563.3181 414.2005,569.3367 412.5476,575.5397 411.4462,582.2466 411.0228,589.0302 411.2495,595.4456 412.0828,601.8108 413.618,608.4319 415.6708,614.5143 418.4617,620.7116 421.6558,626.28 425.5963,631.8179 430.0723,636.9328 435.0386,641.573 440.1341,645.4775 445.9065,649.0657 451.6629,651.9071 458.0219,654.3069 464.2203,655.9772 470.9241,657.0973 477.7065,657.5396 484.1225,657.3308 490.8618,656.4485 497.1154,654.9986 503.5553,652.8252 509.7448,650.017 515.3043,646.8073 520.8311,642.8514 525.662,638.6239 530.3161,633.6705 534.2348,628.5859 537.8391,622.8235 540.6966,617.0751 543.1141,610.7228 544.8825,604.1601 545.9405,597.8285 546.4017,591.0474 546.1807,584.2542 545.3473,577.889 543.8121,571.2679 541.6208,564.8341 538.9685,558.9882 535.5702,553.102 531.5988,547.5861 527.3579,542.767 522.3916,538.1268 516.985,534.0079 511.5236,530.6341 505.7672,527.7927 499.4082,525.3929 492.8406,523.6428 486.506,522.6025 479.7237,522.1602 473.3076,522.369 466.5683,523.2513 459.9515,524.8049 453.5239,527.0142 447.6854,529.6829 441.8086,533.0975 436.599,536.8484 431.4967,541.3387 427.114,546.0293 422.9801,551.4243"/>
    <line x1="445.1803" x2="469.0308" y1="555.9448" y2="556.7291"/>
    <line x1="469.1534" x2="445.3029" y1="553.002" y2="552.2178"/>
    <line x1="445.2906" x2="492.9916" y1="552.5905" y2="554.159"/>
    <line x1="492.8936" x2="445.1926" y1="557.1406" y2="555.5721"/>
    <line x1="445.2048" x2="516.7564" y1="555.1994" y2="557.5521"/>
    <line x1="516.8299" x2="445.2784" y1="555.3159" y2="552.9632"/>
    <line x1="445.2661" x2="540.6681" y1="553.3359" y2="556.4729"/>
    <line x1="540.6191" x2="445.2171" y1="557.9637" y2="554.8267"/>
    <line x1="445.2293" x2="564.4819" y1="554.454" y2="558.3752"/>
    <line x1="564.5064" x2="445.2539" y1="557.6298" y2="553.7086"/>
    <line x1="445.2416" x2="588.3447" y1="554.0813" y2="558.7868"/>
    <line x1="564.783" x2="564.0858" y1="551.7087" y2="551.5648"/>
    <line x1="564.8582" x2="563.4638" y1="551.344" y2="551.0564"/>
    <line x1="562.8418" x2="564.9334" y1="550.5479" y2="550.9793"/>
    <line x1="565.0086" x2="562.2198" y1="550.6147" y2="550.0394"/>
    <line x1="561.5978" x2="565.0838" y1="549.5309" y2="550.25"/>
    <line x1="565.1591" x2="560.9758" y1="549.8853" y2="549.0225"/>
    <line x1="560.3538" x2="565.2343" y1="548.514" y2="549.5207"/>
    <line x1="565.3095" x2="559.7318" y1="549.156" y2="548.0055"/>
    <line x1="559.1099" x2="565.3847" y1="547.497" y2="548.7913"/>
    <line x1="565.4599" x2="558.4879" y1="548.4267" y2="546.9885"/>
    <line x1="557.8659" x2="565.5352" y1="546.4801" y2="548.062"/>
    <line x1="565.6104" x2="557.2439" y1="547.6973" y2="545.9716"/>
    <line x1="556.6219" x2="565.6856" y1="545.4631" y2="547.3327"/>
    <line x1="565.7608" x2="555.9999" y1="546.968" y2="544.9546"/>
    <line x1="556.0751" x2="565.836" y1="544.59" y2="546.6033"/>
    <line x1="565.9113" x2="556.8476" y1="546.2387" y2="544.3691"/>
    <line x1="557.62" x2="565.9865" y1="544.1483" y2="545.874"/>
    <line x1="566.0617" x2="558.3924" y1="545.5093" y2="543.9274"/>
    <line x1="559.1648" x2="566.1369" y1="543.7066" y2="545.1447"/>
    <line x1="566.2121" x2="559.9373" y1="544.78" y2="543.4857"/>
    <line x1="560.7097" x2="566.2874" y1="543.2648" y2="544.4153"/>
    <line x1="566.3626" x2="561.4821" y1="544.0507" y2="543.044"/>
    <line x1="562.2545" x2="566.4378" y1="542.8231" y2="543.686"/>
    <line x1="566.513" x2="563.027" y1="543.3214" y2="542.6023"/>
    <line x1="563.7994" x2="566.5882" y1="542.3814" y2="542.9567"/>
    <line x1="566.6634" x2="564.5718" y1="542.592" y2="542.1606"/>
    <line x1="565.3443" x2="566.7387" y1="541.9397" y2="542.2274"/>
    <line x1="566.8139" x2="566.1167" y1="541.8627" y2="541.7189"/>
    <polygon points="566.8891,541.498 555.6889,544.7004 564.7077,552.0733"/>
    <line x1="622.145" x2="389.5975" y1="512.2892" y2="398.7593"/>
    <line x1="400.2311" x2="331.6254" y1="453.2539" y2="466.7996"/>
    <line x1="331.5562" x2="365.859" y1="466.4489" y2="459.6761"/>
    <line x1="366.3437" x2="332.0409" y1="462.131" y2="468.9038"/>
    <line x1="331.9716" x2="400.5773" y1="468.5531" y2="455.0074"/>
    <polygon points="420.4918,479.7248 419.4466,475.7058 417.8794,471.4556 416.0652,467.7201 413.6938,463.8605 410.9376,460.2656 408.098,457.2355 404.985,454.487 401.6264,452.0446 397.7177,449.755 393.9449,448.0198 389.6627,446.5425 385.6225,445.5821 381.1335,444.9746 376.9834,444.8265 372.8379,445.0709 368.734,445.7055 364.3474,446.8362 360.4481,448.2645 356.3691,450.2347 352.8262,452.4011 349.5037,454.8922 346.1652,457.9541 343.1598,461.3434 340.7246,464.7072 338.6179,468.2859 336.8585,472.0474 335.3536,476.3201 334.3672,480.3539 333.7308,484.8389 333.5559,488.988 333.8128,493.5106 334.4562,497.6132 335.4841,501.6366 337.033,505.8935 339.012,509.9683 341.186,513.5065 343.6843,516.8237 346.4846,519.8902 349.5618,522.6786 353.2024,525.3742 357.1012,527.6806 360.8666,529.4319 364.7805,530.82 369.1784,531.9054 373.2887,532.4977 377.8142,532.6981 381.9607,532.4716 386.4374,531.7793 390.4587,530.7428 394.7122,529.1847 398.4516,527.3786 402.3163,525.0154 405.6281,522.51 408.6885,519.7031 411.4703,516.6198 414.1581,512.9735 416.4561,509.0697 418.1994,505.3006 419.579,501.3838 420.6549,496.9835 421.2721,492.4958 421.4291,488.3461 421.1937,484.2"/>
    <polygon points="442.0013,496.9497 437.6457,495.7549 433.1382,495.4713 429.0337,496.0225 424.7607,497.4854 421.1797,499.5654 418.05,502.2774 415.2793,505.8442 413.4256,509.5475 412.2308,513.903 411.9354,518.0338 412.4984,522.515 413.8063,526.4444 416.0413,530.3691 419.028,533.757 422.3201,536.2695 426.0233,538.1231 430.3789,539.318 434.8865,539.6016 438.9909,539.0504 442.9203,537.7425 446.845,535.5075 450.2329,532.5207 452.7454,529.2287 454.599,525.5254 455.7939,521.1698 456.0892,517.0391 455.5263,512.5578 454.0634,508.2848 451.9834,504.7038 448.9966,501.3159 445.7046,498.8034"/>
    <polygon points="422.387,521.0586 403.5861,525.4896 422.5291,529.2669"/>
    <line x1="422.3934" x2="420.6778" y1="521.4317" y2="521.4614"/>
    <line x1="422.3999" x2="418.9686" y1="521.8048" y2="521.8642"/>
    <line x1="417.2595" x2="422.4063" y1="522.2671" y2="522.1779"/>
    <line x1="422.4128" x2="415.5503" y1="522.551" y2="522.6699"/>
    <line x1="413.8411" x2="422.4193" y1="523.0727" y2="522.9241"/>
    <line x1="422.4257" x2="412.132" y1="523.2972" y2="523.4755"/>
    <line x1="410.4228" x2="422.4322" y1="523.8783" y2="523.6703"/>
    <line x1="422.4386" x2="408.7136" y1="524.0434" y2="524.2811"/>
    <line x1="407.0045" x2="422.4451" y1="524.684" y2="524.4165"/>
    <line x1="422.4516" x2="405.2953" y1="524.7897" y2="525.0868"/>
    <line x1="405.3082" x2="422.4645" y1="525.833" y2="525.5359"/>
    <line x1="422.471" x2="407.0303" y1="525.909" y2="526.1764"/>
    <line x1="408.7524" x2="422.4774" y1="526.5198" y2="526.2821"/>
    <line x1="422.4839" x2="410.4745" y1="526.6552" y2="526.8632"/>
    <line x1="412.1966" x2="422.4903" y1="527.2066" y2="527.0283"/>
    <line x1="422.4968" x2="413.9187" y1="527.4014" y2="527.55"/>
    <line x1="415.6408" x2="422.5033" y1="527.8933" y2="527.7745"/>
    <line x1="422.5097" x2="417.3628" y1="528.1476" y2="528.2367"/>
    <line x1="419.0849" x2="422.5162" y1="528.5801" y2="528.5207"/>
    <line x1="422.5227" x2="420.807" y1="528.8938" y2="528.9235"/>
    <line x1="422.458" x2="403.5861" y1="525.1628" y2="525.4896"/>
    <polygon points="445.3151,551.8451 445.1681,556.3175 588.3447,558.7868"/>
    <line x1="436.3904" x2="373.3164" y1="632.6731" y2="747.8551"/>
    <line x1="373.6317" x2="436.7057" y1="748.0277" y2="632.8458"/>
    <line x1="421.2525" x2="373.947" y1="661.8139" y2="748.2004"/>
    <line x1="374.2623" x2="405.7993" y1="748.373" y2="690.7821"/>
    <line x1="404.2228" x2="372.6858" y1="689.9188" y2="747.5098"/>
    <line x1="373.0011" x2="420.3066" y1="747.6824" y2="661.296"/>
    <line x1="450.1423" x2="708.7909" y1="669.5087" y2="677.0741"/>
    <polygon points="487.4159,737.0826 488.6281,736.1938 489.6173,734.6023 489.863,732.7446 489.3218,730.9506 488.3823,729.7772 486.7502,728.8565 485.2601,728.6594 483.4447,729.124 481.9819,730.2951 481.1313,731.9648 480.9976,733.462 481.3703,734.9182 482.4783,736.4294 484.1104,737.3501 485.6006,737.5472"/>
    <polygon points="480.3325,731.3107 480.0441,733.5391 480.518,735.355 481.8586,737.1584 483.8167,738.2605 486.0539,738.471 487.8521,737.934 489.6076,736.5313 490.5281,734.8959 490.8165,732.6674 490.3426,730.8515 489.002,729.0482 487.0439,727.9461 484.8068,727.7356 483.0085,728.2726 481.2531,729.6753"/>
    <line x1="390.3461" x2="374.5776" y1="719.7502" y2="748.5457"/>
    <line x1="372.3705" x2="388.139" y1="747.3371" y2="718.5416"/>
    <polygon points="372.0553,747.1644 374.8929,748.7183 444.4323,618.3617"/>
    <line x1="323.2988" x2="199.7785" y1="740.1916" y2="878.8716"/>
    <line x1="199.4943" x2="309.2901" y1="878.6185" y2="755.3474"/>
    <line x1="309.8585" x2="200.0627" y1="755.8536" y2="879.1247"/>
    <line x1="200.3468" x2="296.4182" y1="879.3778" y2="771.5156"/>
    <line x1="295.2814" x2="199.2101" y1="770.5031" y2="878.3654"/>
    <line x1="198.9259" x2="281.2728" y1="878.1122" y2="785.6589"/>
    <line x1="282.9779" x2="200.631" y1="787.1776" y2="879.631"/>
    <line x1="200.9152" x2="269.5376" y1="879.8841" y2="802.8396"/>
    <line x1="267.2641" x2="198.6417" y1="800.8147" y2="877.8591"/>
    <line x1="198.3575" x2="253.2554" y1="877.606" y2="815.9704"/>
    <line x1="256.0973" x2="201.1994" y1="818.5017" y2="880.1372"/>
    <line x1="201.4836" x2="242.657" y1="880.3903" y2="834.1637"/>
    <line x1="239.2468" x2="198.0733" y1="831.1262" y2="877.3529"/>
    <line x1="197.7892" x2="225.2381" y1="877.0997" y2="846.282"/>
    <line x1="229.2167" x2="201.7678" y1="849.8257" y2="880.6434"/>
    <line x1="202.052" x2="215.7765" y1="880.8966" y2="865.4877"/>
    <line x1="211.2294" x2="197.505" y1="861.4377" y2="876.8466"/>
    <polygon points="202.3362,881.1497 323.2988,740.1916 197.2208,876.5935"/>
    <line x1="231.6249" x2="85.7861" y1="741.0179" y2="677.5521"/>
    <line x1="85.9321" x2="231.7709" y1="677.2165" y2="740.6824"/>
    <line x1="207.6105" x2="86.0781" y1="729.7692" y2="676.881"/>
    <line x1="86.2242" x2="183.45" y1="676.5454" y2="718.856"/>
    <line x1="182.7199" x2="85.494" y1="720.5338" y2="678.2232"/>
    <line x1="85.6401" x2="207.1724" y1="677.8877" y2="730.7758"/>
    <polygon points="200.6081,699.2325 261.1942,660.976 260.0837,659.2714"/>
    <line x1="212.5032" x2="260.5279" y1="691.2403" y2="659.9533"/>
    <line x1="260.75" x2="212.7253" y1="660.2942" y2="691.5812"/>
    <line x1="236.9598" x2="260.9721" y1="676.2786" y2="660.6351"/>
    <line x1="260.3058" x2="236.2935" y1="659.6124" y2="675.2559"/>
    <line x1="207.1744" x2="201.4678" y1="605.708" y2="497.2961"/>
    <line x1="222.5798" x2="460.5292" y1="476.5485" y2="463.0761"/>
    <line x1="469.0445" x2="331.8332" y1="440.7602" y2="467.8517"/>
    <line x1="331.9024" x2="434.8109" y1="468.2024" y2="447.8838"/>
    <line x1="434.6032" x2="331.6947" y1="446.8317" y2="467.1503"/>
    <line x1="331.7639" x2="468.9753" y1="467.501" y2="440.4095"/>
    <polygon points="486.1613,437.1984 331.4869,466.0982 332.1101,469.2545"/>
    <polygon points="509.4792,428.6695 504.2925,433.6319 499.3795,439.3722 495.2774,445.263 491.7655,451.5235 488.8767,458.0949 486.6384,464.9152 485.0715,471.9204 484.1637,479.4215 484.0142,486.5982 484.5609,493.7556 485.7986,500.8264 487.835,508.1026 490.4476,514.7885 493.8838,521.5177 497.7679,527.5544 502.2187,533.1863 507.1943,538.3604 512.6479,543.0279 518.5281,547.145 525.1179,550.8417 531.6966,553.7136 538.8876,556.0329 545.9046,557.5461 553.0352,558.3721 560.2123,558.5033 567.3683,557.9383 574.8041,556.5976 581.7068,554.6275 588.3861,551.9979 595.1065,548.5446 601.1332,544.645 606.7537,540.1799 612.1731,534.9149 616.7987,529.4257 620.8706,523.5141 624.3505,517.2357 627.2057,510.6496 629.4091,503.8179 631.0018,496.4319 631.8097,489.2992 631.9225,482.1218 631.3393,474.9673 630.0655,467.9029 628.1131,460.9952 625.3452,453.9647 622.0644,447.5801 618.1803,441.5434 613.7295,435.9115 608.7538,430.7374 603.0009,425.8391 597.0997,421.7521 590.8303,418.2561 584.2515,415.3842 577.4255,413.1633 570.4163,411.6143 563.29,410.7519 555.7359,410.5945 548.5799,411.1595 541.5123,412.4152 534.5996,414.3499 527.907,416.9454 521.169,420.3644 515.1225,424.2331"/>
    <line x1="553.0964" x2="577.3462" y1="343.267" y2="241.621"/>
    <line x1="576.9956" x2="560.829" y1="241.5373" y2="309.3014"/>
    <line x1="561.881" x2="578.0475" y1="309.5523" y2="241.7883"/>
    <line x1="577.6969" x2="553.447" y1="241.7046" y2="343.3507"/>
    <line x1="570.3149" x2="578.3981" y1="275.7539" y2="241.8719"/>
    <line x1="576.6449" x2="568.5617" y1="241.4536" y2="275.3357"/>
    <polygon points="576.2943,241.37 549.2301,360.2499 578.7488,241.9556"/>
    <polygon points="468.0341,306.4145 456.4274,313.4472 469.9786,314.1813"/>
    <line x1="468.1267" x2="466.9287" y1="306.7843" y2="307.0843"/>
    <line x1="465.8233" x2="468.2193" y1="307.7541" y2="307.1542"/>
    <line x1="468.3119" x2="464.7179" y1="307.524" y2="308.4238"/>
    <line x1="463.6125" x2="468.4045" y1="309.0936" y2="307.8939"/>
    <line x1="468.4971" x2="462.5071" y1="308.2637" y2="309.7634"/>
    <line x1="461.4017" x2="468.5897" y1="310.4332" y2="308.6336"/>
    <line x1="468.6823" x2="460.2963" y1="309.0034" y2="311.103"/>
    <line x1="459.1909" x2="468.7749" y1="311.7728" y2="309.3733"/>
    <line x1="468.8675" x2="458.0855" y1="309.7431" y2="312.4425"/>
    <line x1="458.3633" x2="469.1453" y1="313.5521" y2="310.8527"/>
    <line x1="469.2379" x2="459.6538" y1="311.2225" y2="313.622"/>
    <line x1="460.9444" x2="469.3305" y1="313.6919" y2="311.5923"/>
    <line x1="469.4231" x2="462.235" y1="311.9622" y2="313.7618"/>
    <line x1="463.5256" x2="469.5156" y1="313.8317" y2="312.332"/>
    <line x1="469.6082" x2="464.8162" y1="312.7019" y2="313.9016"/>
    <line x1="466.1068" x2="469.7008" y1="313.9715" y2="313.0717"/>
    <line x1="469.7934" x2="467.3974" y1="313.4416" y2="314.0415"/>
    <line x1="468.688" x2="469.886" y1="314.1114" y2="313.8114"/>
    <line x1="469.0527" x2="457.0727" y1="310.4828" y2="313.4822"/>
    <line x1="456.9801" x2="468.9601" y1="313.1123" y2="310.113"/>
    <line x1="270.7368" x2="270.8335" y1="469.1928" y2="469.9599"/>
    <line x1="270.562" x2="270.3684" y1="470.7734" y2="469.2392"/>
    <line x1="270.0001" x2="270.2904" y1="469.2857" y2="471.587"/>
    <line x1="270.0188" x2="269.6318" y1="472.4006" y2="469.3321"/>
    <line x1="269.2634" x2="269.7472" y1="469.3786" y2="473.2141"/>
    <line x1="269.4756" x2="268.8951" y1="474.0277" y2="469.4251"/>
    <line x1="268.5267" x2="269.204" y1="469.4715" y2="474.8412"/>
    <line x1="268.9324" x2="268.1584" y1="475.6548" y2="469.518"/>
    <line x1="267.7901" x2="268.6608" y1="469.5644" y2="476.4684"/>
    <line x1="268.3892" x2="267.4217" y1="477.2819" y2="469.6109"/>
    <line x1="267.0534" x2="268.1176" y1="469.6573" y2="478.0955"/>
    <line x1="267.8461" x2="266.685" y1="478.909" y2="469.7038"/>
    <line x1="266.3167" x2="267.5745" y1="469.7503" y2="479.7226"/>
    <line x1="266.8378" x2="265.58" y1="479.8155" y2="469.8432"/>
    <line x1="265.2117" x2="266.3727" y1="469.8896" y2="479.0949"/>
    <line x1="265.9076" x2="264.8433" y1="478.3742" y2="469.9361"/>
    <line x1="264.475" x2="265.4425" y1="469.9825" y2="477.6536"/>
    <line x1="264.9774" x2="264.1066" y1="476.9329" y2="470.029"/>
    <line x1="263.7383" x2="264.5123" y1="470.0755" y2="476.2123"/>
    <line x1="264.0472" x2="263.3699" y1="475.4916" y2="470.1219"/>
    <line x1="263.0016" x2="263.5821" y1="470.1684" y2="474.771"/>
    <line x1="263.117" x2="262.6333" y1="474.0504" y2="470.2148"/>
    <line x1="262.2649" x2="262.6519" y1="470.2613" y2="473.3297"/>
    <line x1="262.1868" x2="261.8966" y1="472.6091" y2="470.3078"/>
    <line x1="261.5282" x2="261.7217" y1="470.3542" y2="471.8884"/>
    <line x1="261.2566" x2="261.1599" y1="471.1678" y2="470.4007"/>
    <line x1="265.9483" x2="267.3029" y1="469.7967" y2="480.5362"/>
    <polygon points="267.3029,480.5362 271.1051,469.1463 260.7916,470.4471"/>
    <line x1="159.2896" x2="86.3702" y1="707.9428" y2="676.2099"/>
    <line x1="86.5162" x2="135.1291" y1="675.8743" y2="697.0296"/>
    <line x1="133.8149" x2="85.202" y1="700.0496" y2="678.8943"/>
    <line x1="85.056" x2="109.3624" y1="679.2299" y2="689.8075"/>
    <line x1="110.9687" x2="86.6622" y1="686.1164" y2="675.5388"/>
    <line x1="85.348" x2="158.2674" y1="678.5588" y2="710.2917"/>
    <polygon points="84.9099,679.5654 243.8511,746.139 86.8083,675.2032"/>
    <line x1="320.4288" x2="320.6214" y1="772.2864" y2="779.6747"/>
    <line x1="321.005" x2="320.8509" y1="779.6647" y2="773.754"/>
    <line x1="320.0837" x2="320.2378" y1="773.774" y2="779.6847"/>
    <line x1="319.8542" x2="319.7387" y1="779.6947" y2="775.2617"/>
    <line x1="319.3936" x2="319.4706" y1="776.7493" y2="779.7047"/>
    <line x1="319.0871" x2="319.0485" y1="779.7147" y2="778.237"/>
    <line x1="321.3886" x2="321.273" y1="779.6547" y2="775.2217"/>
    <line x1="321.6951" x2="321.7722" y1="776.6893" y2="779.6447"/>
    <line x1="322.1558" x2="322.1172" y1="779.6347" y2="778.157"/>
    <polygon points="322.5393,779.6247 320.4288,772.2864 318.7035,779.7247"/>
    <polygon points="331.7227,777.2821 327.6147,779.1719 323.9516,781.8232 320.8728,785.135 318.3319,789.3216 316.8154,793.5816 316.1545,798.0549 316.3744,802.5714 317.4668,806.9593 319.39,811.0518 322.071,814.6932 325.4078,817.7449 329.2734,820.091 333.5209,821.6422 337.9887,822.3394 342.5068,822.1563 346.9035,821.0997 351.0115,819.2098 354.6745,816.5585 357.7533,813.2467 360.1308,809.4003 361.7165,805.1656 362.4501,800.7036 362.3037,796.1841 361.2829,791.779 359.4265,787.6558 356.5551,783.6886 353.2184,780.6368 349.3527,778.2907 345.1053,776.7396 340.6375,776.0423 336.1193,776.2255"/>
    <polygon points="346.8189,820.2795 350.8999,818.3432 354.2301,815.8806 357.2772,812.546 359.4301,809.0077 360.8944,805.1334 361.648,800.6796 361.4922,796.1652 360.4331,791.774 358.514,787.6848 355.8131,784.0641 352.4402,781.0595 348.875,778.9514 344.9825,777.5362 340.5195,776.8389 336.3808,776.9992 331.9852,778.0398 328.2138,779.7519 324.5371,782.376 321.4621,785.6849 319.114,789.5438 317.6825,793.4303 316.9663,797.8903 317.1602,802.4033 318.1313,806.4296 320.0159,810.5348 322.6863,814.1781 326.0337,817.211 329.581,819.3491 333.8263,820.8925 338.2949,821.5522 342.8051,821.3013"/>
    <polygon points="391.9453,802.8174 396.8795,807.4747 402.6287,811.078 408.9713,813.4882 415.6626,814.6125 422.4445,814.4075 429.0557,812.881 435.241,810.092 440.7621,806.148 445.4059,801.201 448.9934,795.442 451.3863,789.0929 452.4923,782.3985 452.2688,775.6172 450.7242,769.0102 447.9183,762.8325 443.9592,757.3223 438.9997,752.692 433.2308,749.1202 426.8752,746.7446 420.1779,745.6569 413.3971,745.899 406.7944,747.4616 400.6244,750.2843 395.125,754.2585 390.5083,759.2307 387.1194,764.6707 384.6919,771.0067 383.5493,777.6949 383.7358,784.4774 385.2442,791.0926 388.0164,797.2856"/>
  </g>
</svg>
