<?xml version="1.0" encoding="utf-8" ?>
<svg xmlns="http://www.w3.org/2000/svg" xmlns:cc="http://creativecommons.org/ns" xmlns:dc="http://purl.org/dc/elements/1.1/" xmlns:ev="http://www.w3.org/2001/xml-events" xmlns:inkscape="http://www.inkscape.org/namespaces/inkscape" xmlns:rdf="http://www.w3.org/1999/02/22-rdf-syntax-ns" xmlns:sodipodi="http://sodipodi.sourceforge.net/DTD/sodipodi-0.dtd" xmlns:xlink="http://www.w3.org/1999/xlink" baseProfile="tiny" height="29.7cm" version="1.2" viewBox="0 0 793.7007874015749 1122.5196850393702" width="21.0cm">
  <metadata>
    <rdf:RDF>
      <cc:Work>
        <dc:format>image/svg+xml</dc:format>
        <dc:source>vsk save -s 13 -c C:\Users\marti\Documents\git\putti-plotter-plot\sixfeet\config\1.json C:\Users\marti\Documents\git\putti-plotter-plot\sixfeet\sketch_sixfeet.py</dc:source>
        <dc:date>2023-11-19T17:46:09.379297</dc:date>
      </cc:Work>
    </rdf:RDF>
  </metadata>
  <defs/>
  <g fill="none" id="layer1" inkscape:groupmode="layer" inkscape:label="1" stroke="#0000ff" style="display:inline">
    <polygon points="501.1621,624.9648 501.1721,618.1821 499.8654,611.5265 497.2918,605.2511 493.5491,599.5945 488.7796,594.7719 483.1649,590.9668 476.9183,588.3238 470.2776,586.9434 463.1195,586.9135 456.4675,588.2382 450.199,590.8288 444.5526,594.5869 439.743,599.3694 435.9531,604.9944 433.327,611.2481 431.9647,617.8925 431.9179,624.675 433.1885,631.3377 435.728,637.627 439.6779,643.5967 444.4735,648.3933 450.1088,652.168 456.3695,654.777 463.0177,656.1213 470.1758,656.1124 476.8206,654.7516 483.0749,652.127 488.7008,648.3384 493.4844,643.5299 497.2437,637.8844 499.8358,631.6165"/>
    <polygon points="512.3847,617.6403 516.4477,619.6422 521.0457,621.3544 525.4286,622.4974 529.9017,623.2094 534.4228,623.4834 538.9491,623.317 543.4379,622.7118 547.8467,621.6733 552.1337,620.2116 556.2585,618.3403 560.182,616.0772 563.8672,613.4438 567.2791,610.4648 570.6297,606.8804 573.3721,603.2756 575.7514,599.4214 577.745,595.3544 579.4479,590.7528 580.5821,586.3677 581.2849,581.8932 581.5498,577.3715 581.3742,572.8455 580.7599,568.3579 579.7125,563.9513 578.2421,559.6672 576.3625,555.5462 573.8852,551.311 571.2145,547.6527 568.2011,544.2712 564.8734,541.1983 561.2631,538.4632 557.4041,536.0918 553.333,534.1064 549.0883,532.5258 544.3406,531.2875 539.8646,530.5938 535.3425,530.338 530.8168,530.5228 526.3305,531.1462 521.926,532.2025 517.6449,533.6816 513.5277,535.5696 509.6134,537.8486 505.939,540.497 502.2693,543.7538 499.2032,547.0877 496.4754,550.7036 494.1118,554.5674 492.1346,558.6425 490.5626,562.8903 489.4107,567.2708 488.6897,571.7425 488.4027,576.6406 488.5966,581.1659 489.2292,585.6509 490.2944,590.0533 491.7822,594.3313 493.6785,598.4447 495.9654,602.3544 498.6213,606.0234 501.6209,609.4172 504.9361,612.5035 508.5353,615.2532"/>
    <polygon points="524.7674,626.51 529.6194,627.2656 534.5217,627.5478 539.4283,627.3539 544.6642,626.6147 549.4327,625.4427 554.0653,623.8144 558.5184,621.745 562.7501,619.2541 567.0142,616.1271 570.6618,612.8397 573.9739,609.2144 576.9193,605.2854 579.4703,601.0896 581.6029,596.6665 583.2971,592.0576 584.5369,587.3062 585.3107,582.4572 585.6145,577.1781 585.4022,572.2722 584.7158,567.41 583.5617,562.6372 581.8082,557.6485 579.7223,553.2032 577.2156,548.9808 574.3117,545.021 571.0379,541.3611 567.4251,538.0355 563.5071,535.0755 559.3208,532.5089 554.9057,530.3598 550.3031,528.6484 545.5564,527.3909 540.7103,526.5991 535.8102,526.2803 530.5258,526.4695 525.661,527.1378 520.8839,528.2741 516.2393,529.8678 511.7709,531.9038 507.5207,534.3631 503.5286,537.2225 499.8323,540.4551 496.2222,544.3188 493.2476,548.2257 490.6654,552.4023 488.4998,556.8095 486.7713,561.4056 485.4171,566.5171 484.6434,571.3662 484.3395,576.6452 484.5518,581.5511 485.2382,586.4133 486.3924,591.1861 488.0034,595.8248 490.2318,600.6201 492.7385,604.8425 495.6424,608.8023 498.9161,612.4622 502.529,615.7878 506.4469,618.7478 510.6332,621.3144 515.0484,623.4635 520.0115,625.2879"/>
    <polygon points="539.5444,626.9355 544.4024,626.2514 549.1705,625.0966 553.8032,623.4822 558.2564,621.4236 562.4875,618.9404 566.4562,616.0563 570.1246,612.7989 573.4577,609.1991 576.4238,605.2913 578.9946,601.1128 581.1455,596.7035 582.856,592.1054 584.1869,586.9928 584.9356,582.1443 585.2078,577.2459 585.0008,572.3443 584.3167,567.4863 583.1619,562.7182 581.5476,558.0854 579.489,553.6323 577.0058,549.4012 574.1217,545.4325 570.8642,541.7641 567.2644,538.4309 563.3566,535.4648 559.1782,532.8941 554.7688,530.7432 549.8105,528.9199 545.0581,527.7018 540.2096,526.953 535.3112,526.6809 530.4096,526.8878 525.5516,527.572 520.7835,528.7267 516.1508,530.3411 511.6976,532.3997 507.4665,534.8829 503.4978,537.767 499.8294,541.0245 496.4963,544.6243 493.5302,548.532 490.9594,552.7105 488.8086,557.1198 487.0981,561.7179 485.8443,566.461 485.0591,571.3037 484.7502,576.1999 484.9532,581.479 485.6373,586.337 486.7921,591.1052 488.4065,595.7379 490.4651,600.191 492.9483,604.4221 495.8323,608.3908 499.0898,612.0592 502.6896,615.3924 506.9097,618.5706 511.1074,621.1099 515.5327,623.2276 520.1436,624.9035 524.8959,626.1216 529.7444,626.8703 534.6428,627.1424"/>
    <polygon points="557.931,620.6767 561.8433,618.3902 565.8256,615.5203 569.5037,612.2695 572.841,608.6698 575.8048,604.7568 578.3658,600.5691 580.4987,596.148 582.1825,591.5371 583.4006,586.7819 584.1409,581.9293 584.3961,577.0272 584.1638,572.124 583.5185,567.6388 582.4651,563.2315 580.8737,558.5879 578.8294,554.1251 576.3526,549.8871 573.4675,545.9157 570.4665,542.5204 566.8796,539.1693 562.978,536.1906 558.8001,533.6136 554.3872,531.4638 549.7827,529.7624 545.4018,528.6044 540.558,527.8085 535.6592,527.4971 530.7536,527.6732 525.8897,528.3351 521.1155,529.4762 516.478,531.0854 512.023,533.1466 507.7945,535.6397 503.8342,538.54 500.1811,541.8188 497.113,545.1535 494.1492,549.0665 491.5882,553.2542 489.4553,557.6753 487.7715,562.2862 486.5534,567.0414 485.8131,571.894 485.5579,576.7961 485.7902,581.6993 486.4355,586.1846 487.5949,590.9544 489.2218,595.5857 491.1246,599.6982 493.6015,603.9362 496.4866,607.9076 499.7514,611.5732 503.3638,614.8968 507.2881,617.8456 511.4856,620.3906 515.9148,622.5066 520.5321,624.1727 524.9218,625.2972 529.396,626.0148 534.2949,626.3262 539.2004,626.1501 544.0643,625.4882 548.8386,624.3471 553.4761,622.738"/>
    <line x1="554.84" x2="636.2866" y1="609.8978" y2="499.4847"/>
    <line x1="636.5968" x2="566.7854" y1="499.7135" y2="594.3533"/>
    <line x1="565.8549" x2="635.6663" y1="593.6669" y2="499.0272"/>
    <line x1="635.9765" x2="554.5298" y1="499.256" y2="609.669"/>
    <polygon points="573.6858,594.7323 595.2561,605.6865 597.6877,597.7627"/>
    <line x1="573.6858" x2="596.4719" y1="594.7323" y2="601.7246"/>
    <line x1="596.5824" x2="575.8678" y1="601.3644" y2="595.0078"/>
    <line x1="575.6468" x2="596.3614" y1="595.7282" y2="602.0848"/>
    <line x1="596.2509" x2="577.6077" y1="602.445" y2="596.724"/>
    <line x1="578.0498" x2="596.693" y1="595.2833" y2="601.0043"/>
    <line x1="596.8035" x2="580.2318" y1="600.6441" y2="595.5588"/>
    <line x1="582.4138" x2="596.914" y1="595.8343" y2="600.2839"/>
    <line x1="597.0245" x2="584.5958" y1="599.9237" y2="596.1098"/>
    <line x1="586.7778" x2="597.1351" y1="596.3853" y2="599.5636"/>
    <line x1="597.2456" x2="588.9597" y1="599.2034" y2="596.6607"/>
    <line x1="591.1417" x2="597.3561" y1="596.9362" y2="598.8432"/>
    <line x1="597.4666" x2="593.3237" y1="598.483" y2="597.2117"/>
    <line x1="595.5057" x2="597.5772" y1="597.4872" y2="598.1229"/>
    <line x1="596.1403" x2="579.5686" y1="602.8051" y2="597.7198"/>
    <line x1="581.5296" x2="596.0298" y1="598.7157" y2="603.1653"/>
    <line x1="595.9193" x2="583.4905" y1="603.5255" y2="599.7115"/>
    <line x1="585.4514" x2="595.8087" y1="600.7074" y2="603.8857"/>
    <line x1="595.6982" x2="587.4124" y1="604.2458" y2="601.7032"/>
    <line x1="589.3733" x2="595.5877" y1="602.699" y2="604.606"/>
    <line x1="595.4772" x2="591.3342" y1="604.9662" y2="603.6949"/>
    <line x1="593.2952" x2="595.3666" y1="604.6907" y2="605.3264"/>
    <polygon points="582.6469,597.326 584.4767,592.3695 585.716,587.6223 586.5425,582.4039 586.8308,577.506 586.6548,572.6028 585.9482,567.3668 584.818,562.5924 583.1023,557.5953 581.0613,553.1336 578.4027,548.5678 575.5296,544.5906 572.0304,540.632 568.4359,537.2926 564.2309,534.0937 560.0534,531.5207 555.3046,529.2047 550.3448,527.3839 545.5953,526.1532 540.7507,525.3769 535.477,525.0569 530.198,525.2752 525.3394,525.958 520.5671,527.0968 515.5731,528.8216 510.7805,531.0456 506.5541,533.5377 502.5822,536.4179 498.63,539.9244 495.0551,543.8147 492.1059,547.7358 489.3597,552.2494 487.2331,556.671 485.5339,561.2737 484.1994,566.3858 483.4319,571.2318 483.1214,576.5061 483.3493,581.7846 484.0409,586.642 485.1885,591.4123 486.9224,596.4031 488.9795,600.8574 491.6548,605.4134 494.5423,609.3801 498.0559,613.3259 501.6626,616.6522 505.8792,619.8358 510.3979,622.5738 514.8233,624.6923 519.7897,626.495 524.5436,627.7084 529.7665,628.5064 534.6658,628.7679 539.568,628.5652 544.4291,627.9001 549.5682,626.6737 554.2058,625.072 558.6712,623.0392 563.2418,620.3888 567.519,617.2872 571.1891,614.031 574.5351,610.4426 577.7416,606.2434 580.3223,602.0706"/>
    <polygon points="578.6615,590.5448 579.7958,586.1569 580.4496,582.0539 580.7353,577.5307 580.5721,573.0014 579.9617,568.5105 578.9101,564.1021 577.5672,560.1703 575.7024,556.0395 573.4381,552.1135 570.7965,548.4307 567.8036,545.0273 564.4888,541.9366 560.8845,539.1889 557.026,536.8113 552.9513,534.8269 548.7003,533.2554 544.3147,532.112 539.8375,531.4081 535.6905,531.1548 531.1609,531.3086 526.6688,531.9097 522.2581,532.9522 517.9722,534.4259 513.8531,536.3163 509.9412,538.6049 506.2748,541.2692 502.89,544.2831 499.8199,547.617 497.0946,551.2383 494.7409,555.1114 492.7818,559.1983 491.2366,563.4589 490.1204,567.8515 489.4442,572.333 489.2146,576.8594 489.3985,581.0101 490.0274,585.4984 491.0972,589.9025 492.4563,593.8287 494.3382,597.9517 496.6187,601.8684 499.2754,605.5402 502.2823,608.9313 505.6099,612.0083 509.2255,614.741 513.0937,617.1027 517.1766,619.0702 521.434,620.6242 525.8243,621.7495 530.3044,622.4349 534.8303,622.6739 539.3576,622.464 543.471,621.8789 547.8773,620.8182 552.1571,619.3268 556.2683,617.4194 559.8545,615.3214 563.5318,612.6723 566.9291,609.6724 570.0129,606.3512 572.7532,602.7412 575.1228,598.8778 577.0988,594.7991"/>
    <polygon points="582.5811,586.7329 583.3286,581.8847 583.5816,577.3633 583.4126,572.838 582.7554,567.9767 581.6115,563.2064 579.9925,558.5757 578.0908,554.4659 575.6088,550.2346 572.9498,546.569 569.698,542.8961 566.0926,539.5697 562.4824,536.836 558.6334,534.4501 554.233,532.2819 549.6365,530.5683 544.8907,529.3267 540.4192,528.6107 535.523,528.3081 530.6213,528.5006 526.1348,529.116 521.3623,530.2507 516.7285,531.8606 512.2805,533.9294 508.3789,536.2282 504.4137,539.1163 500.7598,542.3894 497.4544,546.0141 494.7418,549.6402 492.1979,553.8346 490.0897,558.264 488.5491,562.5223 487.3352,567.2753 486.6451,571.7509 486.3711,576.6488 486.5921,581.5493 487.2337,586.0321 488.3961,590.7979 489.8906,595.0727 491.9508,599.5246 494.4491,603.7463 497.1224,607.4015 500.3884,611.0618 503.7166,614.1325 507.6275,617.0939 511.4857,619.4647 515.8945,621.6158 520.4976,623.3116 525.2482,624.5347 530.0979,625.2728 534.6197,625.517 539.5207,625.3055 544.0047,624.6726 548.4104,623.6251 553.0504,622.0332 557.5064,619.9817 561.7329,617.4916 565.6869,614.5881 569.0599,611.5666 572.1371,608.2442 575.106,604.3391 577.6662,600.1547 579.7916,595.7335 581.3487,591.4812"/>
    <line x1="578.7308" x2="636.907" y1="578.8088" y2="499.9423"/>
    <line x1="637.2171" x2="590.6761" y1="500.1711" y2="563.2643"/>
    <line x1="588.5051" x2="635.046" y1="561.6628" y2="498.5696"/>
    <line x1="635.3562" x2="577.18" y1="498.7984" y2="577.6649"/>
    <polygon points="582.7671,577.5224 582.5777,572.6177 581.9572,568.1293 580.8087,563.3572 579.3191,559.0779 577.431,554.9589 574.9556,550.7205 572.2957,547.0522 569.3003,543.6524 565.9965,540.5515 562.1037,537.5618 557.9248,534.9871 553.8515,533.0024 549.6085,531.4124 544.8648,530.1516 540.3923,529.4254 535.4934,529.1204 530.589,529.3195 526.1018,529.9489 521.6944,531.0004 517.4064,532.4646 513.2763,534.3283 509.0232,536.7785 505.0439,539.6521 501.65,542.6541 498.3122,546.2529 495.5736,549.8628 493.0072,554.0468 491.0306,558.124 489.4489,562.3701 488.1976,567.1163 487.4396,571.9658 487.1849,576.4897 487.3597,581.0175 488.0319,585.8796 489.1993,590.6472 490.7057,594.9205 492.6101,599.032 495.1022,603.2606 498.0149,607.2114 501.0504,610.5755 504.3908,613.637 508.3187,616.5803 512.5279,619.1053 516.6244,621.0416 520.8859,622.5812 525.6443,623.7856 530.1251,624.4588 535.0273,624.7056 539.553,624.4861 544.0377,623.839 548.4409,622.77 552.7231,621.2889 557.181,619.2348 561.0892,616.9419 565.0571,614.0527 568.4391,611.0372 571.7627,607.4253 574.487,603.8046 576.8561,599.9422 578.9974,595.5255 580.6743,590.9125 581.7948,586.5221 582.4945,582.0453"/>
    <polygon points="583.7809,572.3899 583.1545,567.9006 582.0112,563.1255 580.3958,558.4886 578.3245,554.0367 576.0259,550.13 573.3763,546.4524 570.136,542.7632 566.5429,539.4168 562.6329,536.4466 558.4454,533.8826 554.0224,531.7503 549.4082,530.0714 545.0193,528.9385 540.169,528.1745 535.6444,527.9033 530.7375,528.0824 525.8732,528.7516 521.463,529.7986 516.8169,531.3872 512.3531,533.4326 508.1163,535.9144 504.4438,538.5712 500.7609,541.8186 497.4214,545.4181 494.4587,549.3338 492.0843,553.1949 489.9266,557.6055 488.221,562.2099 486.9846,566.9618 486.2299,571.8137 485.9674,576.3388 486.156,581.2453 486.8346,586.1083 487.8901,590.5165 489.4876,595.1595 491.5416,599.6193 494.0316,603.8513 496.9325,607.8129 499.9499,611.1954 503.5559,614.528 507.4773,617.483 511.6747,620.0309 515.7577,621.9992 520.0052,623.5819 524.7499,624.8457 529.5972,625.6285 534.4986,625.9223 539.4047,625.7242 543.8952,625.1064 548.6725,623.9723 552.9615,622.5058 557.4332,620.4776 561.6795,618.0121 565.6578,615.1342 569.0576,612.1364 572.411,608.5497 575.3887,604.6455 577.778,600.7936 579.9527,596.3913 581.676,591.7935 582.9307,587.0464 583.7041,582.1975 583.9885,577.2956"/>
    <polygon points="585.7853,572.0063 585.0791,567.1483 583.9095,562.3806 582.2874,557.7474 580.0516,552.9571 577.5421,548.738 574.6389,544.7794 571.3688,541.1181 567.7622,537.7878 563.54,534.6068 559.3441,532.0587 554.5745,529.7791 549.9563,528.1145 545.1995,526.9012 540.3482,526.1505 535.0695,525.8672 530.1657,526.0944 525.3064,526.7916 520.5366,527.9523 515.9003,529.5659 511.4404,531.6174 506.8821,534.2945 502.6251,537.4288 498.982,540.7191 495.6718,544.3442 492.7251,548.2705 490.1692,552.4617 488.0277,556.879 486.3205,561.4816 484.9856,566.5966 484.2259,571.4465 483.9356,576.347 484.1509,581.629 484.8391,586.4895 485.991,591.2615 487.596,595.9008 489.6393,600.3644 492.308,604.9277 495.4343,609.1904 498.7179,612.8397 502.3369,616.1566 506.2577,619.1105 510.4442,621.6742 515.2053,623.9714 519.8173,625.6531 524.5695,626.8839 529.418,627.6526 534.6957,627.9554 539.6003,627.7464 544.4621,627.0672 549.2362,625.9241 553.8784,624.3277 558.681,622.1185 562.914,619.6325 566.8886,616.7513 570.8379,613.2372 574.1615,609.6244 577.1227,605.709 579.875,601.1957 582.0001,596.7705 583.6903,592.1615 585.0063,587.0416 585.748,582.1889 586.0215,576.9097"/>
    <polygon points="585.514,567.2576 584.3643,562.4864 582.7652,557.8466 580.5574,553.045 578.0761,548.8107 574.9661,544.5378 571.6996,540.875 567.8092,537.2981 563.8856,534.3501 559.367,531.6092 554.9398,529.4914 550.3309,527.8052 545.2125,526.4892 540.3618,525.7434 535.4621,525.4631 530.558,525.6509 525.3229,526.3747 520.1897,527.6316 515.5617,529.2647 511.1103,531.3313 506.8761,533.8126 502.8976,536.6861 498.9404,540.189 495.3634,544.0795 492.4155,548.0031 489.6745,552.5216 487.5568,556.9489 485.8705,561.5578 484.5546,566.6762 483.8087,571.5269 483.5285,576.4266 483.7163,581.3307 484.44,586.5658 485.5898,591.3369 487.3301,596.327 489.5731,601.1123 492.0854,605.3282 494.988,609.2855 498.2544,612.9483 501.8549,616.2832 506.0685,619.4732 510.587,622.2141 515.0142,624.3319 519.984,626.1295 524.7416,627.3341 529.5923,628.0799 534.4919,628.3602 539.396,628.1724 544.6311,627.4486 549.4022,626.2989 554.3924,624.5586 559.1776,622.3156 563.3935,619.8033 567.3508,616.9007 571.2822,613.3688 574.5906,609.7439 577.5385,605.8202 580.2795,601.3017 582.3972,596.8744 584.0835,592.2655 585.323,587.5169 586.1453,582.2964 586.4256,577.3967 586.2377,572.4926"/>
    <line x1="576.5569" x2="578.7908" y1="548.4244" y2="532.1897"/>
    <line x1="578.4164" x2="576.4306" y1="532.1381" y2="546.569"/>
    <line x1="577.1795" x2="579.1653" y1="546.6721" y2="532.2412"/>
    <line x1="579.5398" x2="577.8022" y1="532.2927" y2="544.9198"/>
    <line x1="576.3044" x2="578.0419" y1="544.7137" y2="532.0866"/>
    <line x1="577.6675" x2="576.1781" y1="532.0351" y2="542.8583"/>
    <line x1="576.0519" x2="577.293" y1="541.0029" y2="531.9835"/>
    <line x1="576.9185" x2="575.9256" y1="531.932" y2="539.1475"/>
    <line x1="575.7994" x2="576.5441" y1="537.2921" y2="531.8805"/>
    <line x1="576.1696" x2="575.6732" y1="531.829" y2="535.4367"/>
    <line x1="575.5469" x2="575.7951" y1="533.5813" y2="531.7774"/>
    <line x1="579.9142" x2="578.4249" y1="532.3442" y2="543.1674"/>
    <line x1="579.0476" x2="580.2887" y1="541.4151" y2="532.3958"/>
    <line x1="580.6631" x2="579.6703" y1="532.4473" y2="539.6628"/>
    <line x1="580.2929" x2="581.0376" y1="537.9104" y2="532.4988"/>
    <line x1="581.4121" x2="580.9156" y1="532.5504" y2="536.1581"/>
    <line x1="581.5383" x2="581.7865" y1="534.4057" y2="532.6019"/>
    <polygon points="582.161,532.6534 575.4207,531.7259 576.5569,548.4244"/>
    <polygon points="568.6441,536.4069 564.414,533.2359 559.8873,530.505 555.1097,528.2415 550.4906,526.5784 545.3667,525.2768 540.1381,524.4954 535.2353,524.2425 529.954,524.4819 525.0942,525.1774 519.9577,526.4287 514.9726,528.1887 510.189,530.4395 505.9697,532.9494 502.0025,535.8412 498.0514,539.3537 494.7148,542.9549 491.5136,547.1622 488.9324,551.3382 486.6007,556.0829 484.7564,561.0374 483.418,566.1519 482.5991,571.3747 482.3079,576.6534 482.5473,581.9346 483.2427,586.7945 484.4941,591.9309 486.1118,596.5661 488.3283,601.3657 491.0147,605.9189 494.1441,610.1799 497.6848,614.1057 501.6013,617.6568 505.54,620.5874 509.7345,623.1385 514.4958,625.4361 519.4634,627.2449 524.5873,628.5465 529.4401,629.2896 534.7188,629.5808 539.6238,629.3761 544.8598,628.6459 549.9963,627.3946 554.6314,625.7769 559.431,623.5604 563.6682,621.0809 567.6561,618.2176 571.6323,614.7335 575.2392,610.8684 578.4405,606.6612 581.2038,602.1542 583.5015,597.3929 585.3102,592.4253 586.536,587.6714 587.3139,582.8241 587.643,577.5477 587.4414,572.2649 586.7113,567.0288 585.46,561.8924 583.7,556.9073 581.6258,552.4576 578.9393,547.9044 576.0475,543.9371 572.535,539.986"/>
    <polygon points="565.3711,540.5552 561.7587,537.8177 557.5699,535.2564 553.4869,533.2885 549.2346,531.7197 544.8519,530.5643 540.3788,529.8329 535.4785,529.5266 530.5728,529.7291 526.0853,530.3656 521.6791,531.428 517.3946,532.9065 513.2709,534.7876 509.0288,537.2597 505.3592,539.9201 501.6906,543.1832 498.6206,546.5176 495.8831,550.13 493.5033,553.9874 491.5029,558.0545 489.9002,562.2942 488.6296,567.0368 487.8982,571.5099 487.592,576.4102 487.7944,581.3158 488.431,585.8034 489.4934,590.2096 491.1135,594.8444 493.0274,598.953 495.5332,603.1753 498.2227,606.8235 501.2485,610.1981 504.5829,613.2681 508.5079,616.2179 512.3842,618.5669 516.4671,620.5348 521.0802,622.2159 525.472,623.3363 529.9508,624.032 534.4755,624.2967 539.0048,624.1279 543.8687,623.4577 548.2749,622.3953 552.5595,620.9168 556.6832,619.0357 560.9253,616.5637 564.8888,613.6659 568.2634,610.6401 571.3335,607.3058 574.2832,603.3808 576.6322,599.5045 578.6001,595.4215 580.2812,590.8085 581.4017,586.4167 582.0974,581.9379 582.3645,577.0353 582.1596,572.5075 581.523,568.02 580.4606,563.6138 578.9821,559.3292 577.1011,555.2055 574.629,550.9634 571.9686,547.2938 568.7055,543.6253"/>
    <polygon points="548.7142,532.834 544.3277,531.6997 539.8511,531.0009 535.3276,530.7442 530.8007,530.9322 526.314,531.5629 521.9108,532.6304 517.6334,534.1244 513.523,536.0304 509.6193,538.3301 505.9597,541.0014 502.5796,544.0185 499.5115,547.3524 496.785,550.9709 494.4262,554.8393 492.458,558.9203 490.8993,563.1745 489.7651,567.561 489.0663,572.0376 488.8096,576.5611 488.9975,581.088 489.6283,585.5746 490.6958,589.9779 492.1897,594.2553 494.0957,598.3657 496.3954,602.2694 499.0667,605.929 502.0838,609.3091 505.4177,612.3772 509.0363,615.1037 512.9047,617.4624 516.9856,619.4306 521.2398,620.9894 525.6264,622.1236 530.1029,622.8224 534.6264,623.0791 539.1533,622.8911 543.64,622.2604 548.0432,621.1929 552.3206,619.6989 556.431,617.7929 560.3348,615.4932 563.9943,612.822 567.3744,609.8048 570.4425,606.471 573.1691,602.8524 575.5278,598.984 577.496,594.903 579.0547,590.6488 580.1889,586.2623 580.8878,581.7857 581.1444,577.2622 580.9565,572.7353 580.3257,568.2487 579.2582,563.8454 577.7643,559.568 575.8583,555.4577 573.5586,551.5539 570.8873,547.8943 567.8702,544.5143 564.5363,541.4462 560.9177,538.7196 557.0494,536.3609 552.9684,534.3927"/>
    <polygon points="550.8373,527.1129 545.7239,525.7651 540.876,524.9822 535.5982,524.6519 530.3141,524.8566 525.4489,525.5241 520.3049,526.7499 515.6617,528.3484 510.8531,530.5489 506.6082,533.0177 502.6137,535.8741 498.6324,539.3545 495.0232,543.2195 491.823,547.4294 489.0647,551.9411 486.9237,556.3605 485.207,560.9613 483.8499,566.0724 483.0163,571.2944 482.7146,576.5739 482.9136,581.4805 483.6418,586.7182 484.8956,591.8556 486.6621,596.8399 488.9232,601.6203 491.4455,605.8336 494.591,610.0845 497.8828,613.7286 501.7931,617.2886 505.7292,620.2249 510.2558,622.9587 514.6867,625.0757 519.2968,626.7675 524.4151,628.0968 529.2658,628.8621 534.5447,629.1733 539.4517,628.9832 544.6908,628.2645 549.4677,627.1261 554.4678,625.4047 558.9332,623.3613 563.5044,620.7027 567.4885,617.832 571.4572,614.3371 574.8088,610.748 578.0241,606.5497 580.6158,602.3787 582.9557,597.6364 584.6891,593.0418 586.0646,587.9357 586.8737,583.0922 587.2327,577.8162 587.0566,572.5311 586.3473,567.2907 585.1121,562.1489 583.5052,557.5086 581.2961,552.704 578.8196,548.4635 575.7204,544.1787 572.4684,540.4992 568.8853,537.1411 564.6929,533.9182 560.5265,531.319 555.7884,528.9705"/>
    <line x1="599.8302" x2="634.7359" y1="545.6607" y2="498.3408"/>
    <line x1="634.4257" x2="611.1553" y1="498.112" y2="529.6586"/>
    <line x1="614.5669" x2="637.8374" y1="532.1753" y2="500.6287"/>
    <line x1="637.5273" x2="602.6215" y1="500.3999" y2="547.7198"/>
    <line x1="626.5123" x2="638.1476" y1="516.6307" y2="500.8575"/>
    <line x1="634.1156" x2="622.4804" y1="497.8833" y2="513.6566"/>
    <polygon points="633.8054,497.6545 548.8673,617.6701 638.4577,501.0862"/>
    <line x1="625.8475" x2="254.7591" y1="449.6256" y2="483.9251"/>
    <line x1="252.7711" x2="400.717" y1="530.3352" y2="444.3128"/>
    <line x1="428.2291" x2="486.1724" y1="432.4055" y2="496.0027"/>
    <line x1="485.897" x2="442.4395" y1="496.2537" y2="448.5557"/>
    <line x1="444.3676" x2="487.8252" y1="446.799" y2="494.4969"/>
    <line x1="487.5497" x2="429.6063" y1="494.7479" y2="431.1506"/>
    <line x1="414.8451" x2="487.2742" y1="415.5023" y2="494.9988"/>
    <line x1="486.9988" x2="400.0838" y1="495.2498" y2="399.8539"/>
    <line x1="399.8083" x2="486.7233" y1="400.1049" y2="495.5008"/>
    <line x1="486.4479" x2="414.0187" y1="495.7517" y2="416.2552"/>
    <line x1="433.2059" x2="499.052" y1="385.8282" y2="419.539"/>
    <line x1="499.2322" x2="400.463" y1="419.1871" y2="368.6209"/>
    <line x1="400.8233" x2="499.5925" y1="367.9171" y2="418.4833"/>
    <line x1="499.4123" x2="367.72" y1="418.8352" y2="351.4136"/>
    <polygon points="367.72,351.4136 498.6917,420.2428 500.133,417.4276"/>
    <line x1="342.8958" x2="342.0323" y1="381.457" y2="405.7477"/>
    <line x1="340.0665" x2="340.93" y1="405.6778" y2="381.3871"/>
    <polygon points="340.5369,381.3731 338.8906,466.4393 343.2889,381.471"/>
    <line x1="341.3232" x2="339.5962" y1="381.4011" y2="429.9824"/>
    <line x1="340.7756" x2="342.5026" y1="430.0243" y2="381.443"/>
    <line x1="342.1095" x2="339.519" y1="381.4291" y2="454.301"/>
    <line x1="339.1258" x2="341.7163" y1="454.287" y2="381.4151"/>
    <polygon points="320.2694,370.2625 315.1032,369.1312 309.8516,368.5066 304.5642,368.3945 299.2909,368.7962 294.0814,369.7076 288.985,371.1204 284.0497,373.021 279.3222,375.3916 274.847,378.2098 270.3802,381.6957 266.5591,385.352 263.1108,389.3618 260.0679,393.6873 257.4591,398.2877 255.3091,403.1195 253.6382,408.1372 252.3973,413.6657 251.7636,418.9162 251.6424,424.2034 252.0824,429.8523 253.021,435.057 254.4603,440.146 256.3866,445.0713 258.9702,450.114 261.8426,454.5546 265.1324,458.6954 268.8085,462.4975 272.8362,465.9249 277.1775,468.9452 282.1303,471.6973 286.9879,473.7884 292.0255,475.3983 297.1956,476.5116 302.4493,477.118 307.7371,477.2117 313.009,476.7918 318.2153,475.8622 323.3067,474.4318 328.2354,472.5141 332.9547,470.127 337.7281,467.0745 341.8747,463.7919 345.6831,460.1224 349.1175,456.1007 352.1453,451.7646 354.7381,447.1552 356.8713,442.3159 358.5248,437.2925 359.6831,432.1322 360.362,426.507 360.4649,421.2194 360.0541,415.9468 359.1336,410.7389 357.712,405.645 355.6482,400.3682 353.2367,395.6614 350.3797,391.2109 347.1044,387.0586 343.4415,383.2438 339.4257,379.8024 335.0949,376.7671 330.49,374.1663 325.3014,371.8898"/>
    <line x1="306.9988" x2="298.1408" y1="358.2491" y2="241.13"/>
    <line x1="297.7765" x2="306.6345" y1="241.1576" y2="358.2766"/>
    <line x1="304.7939" x2="297.4122" y1="338.7843" y2="241.1851"/>
    <line x1="297.048" x2="302.9533" y1="241.2127" y2="319.2921"/>
    <line x1="304.7747" x2="298.8694" y1="319.1543" y2="241.0749"/>
    <line x1="299.2337" x2="303.6627" y1="241.0474" y2="299.6069"/>
    <line x1="301.1127" x2="296.6837" y1="299.7998" y2="241.2402"/>
    <line x1="296.3194" x2="299.2721" y1="241.2678" y2="280.3075"/>
    <line x1="302.5506" x2="299.5979" y1="280.0595" y2="241.0198"/>
    <line x1="299.9622" x2="301.4386" y1="240.9923" y2="260.5121"/>
    <line x1="297.4314" x2="295.9551" y1="260.8152" y2="241.2953"/>
    <polygon points="295.5908,241.3229 307.5548,368.0228 300.3265,240.9647"/>
    <line x1="298.5051" x2="305.8868" y1="241.1025" y2="338.7017"/>
    <line x1="282.5214" x2="281.7276" y1="329.9261" y2="350.6978"/>
    <line x1="280.6851" x2="281.479" y1="350.6579" y2="329.8863"/>
    <line x1="281.8265" x2="280.2387" y1="329.8996" y2="371.4428"/>
    <line x1="280.5862" x2="282.174" y1="371.4561" y2="329.9129"/>
    <line x1="292.7591" x2="291.4176" y1="296.4485" y2="294.614"/>
    <line x1="290.3847" x2="293.0676" y1="292.5539" y2="296.2229"/>
    <line x1="293.3761" x2="289.3517" y1="295.9973" y2="290.4938"/>
    <line x1="288.3188" x2="293.6846" y1="288.4337" y2="295.7717"/>
    <line x1="293.9931" x2="287.2858" y1="295.5461" y2="286.3736"/>
    <line x1="286.2529" x2="294.3017" y1="284.3136" y2="295.3205"/>
    <line x1="294.6102" x2="285.2199" y1="295.0949" y2="282.2535"/>
    <line x1="284.187" x2="294.9187" y1="280.1934" y2="294.8693"/>
    <line x1="295.2272" x2="283.154" y1="294.6437" y2="278.1333"/>
    <line x1="282.1211" x2="295.5357" y1="276.0732" y2="294.4181"/>
    <line x1="295.8442" x2="281.0881" y1="294.1925" y2="274.0131"/>
    <line x1="280.0552" x2="296.1527" y1="271.9531" y2="293.9669"/>
    <line x1="296.4612" x2="279.0222" y1="293.7413" y2="269.893"/>
    <line x1="279.9477" x2="297.3868" y1="269.2162" y2="293.0645"/>
    <line x1="297.6953" x2="281.5977" y1="292.8389" y2="270.8251"/>
    <line x1="283.2477" x2="298.0038" y1="272.434" y2="292.6133"/>
    <line x1="298.3123" x2="284.8976" y1="292.3877" y2="274.0429"/>
    <line x1="286.5476" x2="298.6208" y1="275.6517" y2="292.1621"/>
    <line x1="298.9293" x2="288.1976" y1="291.9365" y2="277.2606"/>
    <line x1="289.8476" x2="299.2378" y1="278.8695" y2="291.7109"/>
    <line x1="299.5463" x2="291.4975" y1="291.4853" y2="280.4784"/>
    <line x1="293.1475" x2="299.8548" y1="282.0873" y2="291.2597"/>
    <line x1="300.1633" x2="294.7975" y1="291.0341" y2="283.6962"/>
    <line x1="296.4475" x2="300.4718" y1="285.3051" y2="290.8085"/>
    <line x1="300.7804" x2="298.0974" y1="290.5829" y2="286.914"/>
    <line x1="299.7474" x2="301.0889" y1="288.5229" y2="290.3573"/>
    <line x1="297.0782" x2="278.2978" y1="293.2901" y2="267.6073"/>
    <line x1="277.9892" x2="296.7697" y1="267.8329" y2="293.5157"/>
    <polygon points="277.4728,266.8029 292.4506,296.674 301.3974,290.1317"/>
    <line x1="230.0889" x2="242.3225" y1="315.195" y2="552.4004"/>
    <line x1="262.6509" x2="277.6599" y1="537.257" y2="540.6509"/>
    <line x1="277.7447" x2="263.8077" y1="540.2761" y2="537.1246"/>
    <line x1="263.6382" x2="277.5752" y1="537.8741" y2="541.0256"/>
    <line x1="277.4905" x2="264.6256" y1="541.4004" y2="538.4913"/>
    <line x1="265.6129" x2="277.4057" y1="539.1085" y2="541.7751"/>
    <line x1="277.321" x2="266.6002" y1="542.1499" y2="539.7256"/>
    <line x1="267.5876" x2="277.2362" y1="540.3428" y2="542.5246"/>
    <line x1="277.1515" x2="268.5749" y1="542.8994" y2="540.96"/>
    <line x1="269.5622" x2="277.0668" y1="541.5772" y2="543.2741"/>
    <line x1="276.982" x2="270.5496" y1="543.6489" y2="542.1943"/>
    <line x1="271.5369" x2="276.8973" y1="542.8115" y2="544.0236"/>
    <line x1="276.8125" x2="272.5242" y1="544.3984" y2="543.4287"/>
    <line x1="273.5116" x2="276.7278" y1="544.0458" y2="544.7731"/>
    <line x1="276.6431" x2="274.4989" y1="545.1479" y2="544.663"/>
    <line x1="275.4863" x2="276.5583" y1="545.2802" y2="545.5226"/>
    <line x1="277.8294" x2="264.9645" y1="539.9014" y2="536.9923"/>
    <line x1="266.1214" x2="277.9142" y1="536.86" y2="539.5266"/>
    <line x1="277.9989" x2="267.2782" y1="539.1519" y2="536.7277"/>
    <line x1="268.435" x2="278.0836" y1="536.5953" y2="538.7771"/>
    <line x1="278.1684" x2="269.5918" y1="538.4024" y2="536.463"/>
    <line x1="270.7486" x2="278.2531" y1="536.3307" y2="538.0276"/>
    <line x1="278.3379" x2="271.9054" y1="537.6529" y2="536.1984"/>
    <line x1="273.0622" x2="278.4226" y1="536.066" y2="537.2781"/>
    <line x1="278.5073" x2="274.2191" y1="536.9034" y2="535.9337"/>
    <line x1="275.3759" x2="278.5921" y1="535.8014" y2="536.5286"/>
    <line x1="278.6768" x2="276.5327" y1="536.1539" y2="535.6691"/>
    <line x1="277.6895" x2="278.7616" y1="535.5367" y2="535.7791"/>
    <polygon points="278.8463,535.4044 262.6509,537.257 276.4736,545.8974"/>
    <line x1="319.7338" x2="324.9734" y1="534.0538" y2="534.2785"/>
    <line x1="324.9572" x2="320.5909" y1="534.6542" y2="534.467"/>
    <line x1="320.6232" x2="324.9895" y1="533.7155" y2="533.9028"/>
    <line x1="325.0056" x2="321.5125" y1="533.5271" y2="533.3773"/>
    <line x1="322.4019" x2="325.0217" y1="533.039" y2="533.1513"/>
    <line x1="325.0378" x2="323.2913" y1="532.7756" y2="532.7007"/>
    <line x1="324.1807" x2="325.0539" y1="532.3625" y2="532.3999"/>
    <line x1="324.9411" x2="321.4481" y1="535.0299" y2="534.8801"/>
    <line x1="322.3052" x2="324.925" y1="535.2933" y2="535.4056"/>
    <line x1="324.9089" x2="323.1624" y1="535.7814" y2="535.7065"/>
    <line x1="324.0195" x2="324.8928" y1="536.1196" y2="536.1571"/>
    <polygon points="324.8767,536.5328 325.07,532.0242 319.7338,534.0538"/>
    <line x1="344.3722" x2="374.7291" y1="468.485" y2="472.5204"/>
    <line x1="374.7788" x2="314.0652" y1="472.146" y2="464.0752"/>
    <line x1="314.115" x2="374.8286" y1="463.7008" y2="471.7716"/>
    <line x1="374.8784" x2="344.5215" y1="471.3972" y2="467.3618"/>
    <polygon points="329.7535,447.8214 327.4652,449.1146 325.5952,451.4592 324.8432,453.9778 325.0203,456.6003 326.3262,459.3001 328.5975,461.2586 331.46,462.1533 334.4423,461.8367 337.0533,460.3611 338.6922,458.3062 339.5503,455.4325 339.1957,452.4545 337.9318,450.1499 335.6112,448.25 332.7268,447.4288"/>
    <polygon points="298.9117,461.8703 374.6793,472.8948 374.9281,471.0228"/>
    <polygon points="280.0156,381.8352 282.8689,329.9394 281.1315,329.873"/>
    <line x1="365.328" x2="377.3859" y1="412.1011" y2="649.9384"/>
    <line x1="397.2753" x2="413.2935" y1="628.3985" y2="584.3771"/>
    <line x1="412.9218" x2="404.9128" y1="584.2419" y2="606.2526"/>
    <line x1="405.656" x2="413.6651" y1="606.523" y2="584.5123"/>
    <polygon points="412.5502,584.1067 397.2753,628.3985 414.0367,584.6476"/>
    <polygon points="412.8164,588.5439 362.3673,659.1846 537.8103,784.4799 588.2594,713.8393"/>
    <polygon points="480.4731,602.0952 480.5221,603.6193 523.9565,601.4603"/>
    <line x1="480.4854" x2="502.2148" y1="602.4762" y2="601.7778"/>
    <line x1="502.2393" x2="480.5099" y1="602.5398" y2="603.2382"/>
    <line x1="480.4976" x2="523.9565" y1="602.8572" y2="601.4603"/>
    <polygon points="486.7821,576.1917 486.9586,581.0954 487.6328,585.9558 488.6909,590.3603 490.2981,594.9966 492.3683,599.4454 494.6718,603.3458 497.3313,607.0127 500.5868,610.6842 503.909,613.7634 507.8168,616.7312 512.006,619.2862 516.0853,621.2555 520.3315,622.8331 525.0763,624.0842 529.5483,624.8053 534.4458,625.1091 538.9727,624.9461 543.8357,624.2909 548.6069,623.1447 552.8868,621.6611 557.3437,619.6083 561.5688,617.113 565.2253,614.4392 568.884,611.1693 571.9502,607.8351 574.9026,603.9157 577.2613,600.0485 579.3945,595.6295 580.9555,591.3772 582.188,586.6275 582.9311,581.7772 583.1761,577.254 582.9954,572.7279 582.3212,567.8675 581.1564,563.1008 579.6559,558.8267 577.7609,554.7124 575.2822,550.4775 572.6227,546.8106 569.3672,543.1391 566.045,540.0599 562.1373,537.0922 558.2793,534.7184 553.8687,532.5678 549.2623,530.8769 544.8777,529.7391 540.4057,529.018 535.5082,528.7143 530.9814,528.8772 526.1184,529.5324 521.7098,530.5732 517.0672,532.1622 512.9455,534.0411 508.701,536.5032 504.7288,539.3841 501.3395,542.3894 498.0039,545.9883 495.2642,549.5956 492.8753,553.4443 490.7075,557.8464 489.1133,562.0864 487.8436,566.8262 487.0625,571.6706"/>
    <polygon points="486.1984,566.7511 485.4355,571.5987 485.1532,576.4979 485.3541,581.4011 486.0364,586.2608 487.1935,591.0298 488.814,595.6618 490.8824,600.112 493.3785,604.337 496.0414,608.0019 499.2886,611.6812 502.882,615.0233 506.7867,617.9957 510.9649,620.5695 515.376,622.7198 519.9773,624.4258 524.724,625.6709 529.5702,626.443 534.4689,626.7346 539.3725,626.543 544.2334,625.8699 549.0046,624.7219 553.6397,623.1101 558.0937,621.0502 562.3235,618.5621 566.2881,615.67 569.9489,612.4019 573.2705,608.7895 576.2206,604.868 578.7706,600.6752 580.8959,596.252 582.5757,591.6411 583.7938,586.8873 584.5383,582.0368 584.8021,577.1366 584.5826,572.2342 583.9527,567.748 582.8137,562.9747 581.2107,558.3366 579.1592,553.8786 576.6792,549.6441 573.7946,545.6741 570.5334,542.0071 566.9274,538.6787 563.0114,535.7211 558.8235,533.1631 554.4043,531.0295 549.7966,529.341 545.0452,528.1139 540.1961,527.3602 535.2963,527.0871 530.3935,527.2973 525.5352,527.9889 520.7684,529.155 516.1394,530.7843 511.6932,532.8611 507.7885,535.1579 503.8131,538.035 500.1399,541.2892 496.8046,544.8889 493.8397,548.7992 491.2738,552.9823 489.1318,557.3975 487.4345,562.002"/>
    <polygon points="493.7974,554.2956 491.8114,558.3649 490.113,562.9665 488.9789,567.3502 488.2721,571.8228 487.996,576.7201 488.1958,581.2437 488.8301,585.7271 489.8931,590.1286 491.3748,594.4074 493.2616,598.5236 495.7423,602.7552 498.4124,606.4122 501.4222,609.7952 504.7437,612.8727 508.346,615.6162 512.1957,618.0001 516.6038,620.1514 520.8517,621.7193 525.2309,622.871 529.7005,623.5958 534.2192,623.8869 539.1211,623.7099 543.607,623.0936 548.375,621.9421 552.6478,620.4432 556.7564,618.5399 560.6627,616.2499 564.3304,613.5945 567.995,610.3341 571.0592,607.0003 573.7882,603.387 576.1566,599.5278 578.1426,595.4584 579.7276,591.2168 580.9752,586.4731 581.7214,581.6251 581.958,577.1032 581.7582,572.5796 581.1239,568.0962 580.0609,563.6947 578.4372,559.0662 576.5174,554.9652 574.2117,551.0682 571.5416,547.4111 568.5318,544.0282 565.2104,540.9506 561.608,538.2072 557.7584,535.8232 553.6971,533.8209 549.4619,532.2189 544.7232,530.9523 540.2535,530.2275 535.3573,529.9318 530.8329,530.1134 526.347,530.7297 521.9413,531.775 517.6566,533.2396 513.5328,535.1098 509.2913,537.5734 505.6236,540.2288 502.2286,543.225 499.1377,546.5341 496.1658,550.4363"/>
    <line x1="485.3461" x2="470.8602" y1="496.7556" y2="480.8563"/>
    <line x1="473.8902" x2="488.3761" y1="478.0957" y2="493.995"/>
    <line x1="488.1006" x2="459.1289" y1="494.2459" y2="462.4473"/>
    <line x1="456.6498" x2="485.6215" y1="464.706" y2="496.5046"/>
    <polygon points="488.6515,493.744 392.7031,392.0298 485.0706,497.0066"/>
    <line x1="468.3537" x2="146.6961" y1="455.4275" y2="408.4803"/>
    <line x1="187.9006" x2="207.9321" y1="629.6706" y2="632.254"/>
    <line x1="207.3451" x2="187.3136" y1="636.8056" y2="634.2222"/>
    <line x1="187.3625" x2="227.4254" y1="633.8429" y2="639.0097"/>
    <line x1="227.9146" x2="187.8517" y1="635.2167" y2="630.0499"/>
    <line x1="187.8028" x2="247.8972" y1="630.4292" y2="638.1793"/>
    <line x1="247.5058" x2="187.4114" y1="641.2138" y2="633.4636"/>
    <line x1="187.4603" x2="267.5862" y1="633.0843" y2="643.4179"/>
    <line x1="267.8797" x2="187.7538" y1="641.142" y2="630.8085"/>
    <line x1="187.7049" x2="287.8623" y1="631.1878" y2="644.1047"/>
    <line x1="287.6666" x2="187.5093" y1="645.6219" y2="632.705"/>
    <line x1="187.5582" x2="307.747" y1="632.3257" y2="647.826"/>
    <line x1="307.8449" x2="187.656" y1="647.0674" y2="631.5671"/>
    <line x1="187.6071" x2="327.8274" y1="631.9464" y2="650.0301"/>
    <polygon points="327.8274,650.0301 187.9495,629.2913 187.2647,634.6016"/>
    <polygon points="286.16,677.1335 355.9611,828.1085 361.8911,825.2229"/>
    <line x1="290.6148" x2="359.1005" y1="685.8446" y2="826.5808"/>
    <line x1="359.4494" x2="299.5243" y1="826.4111" y2="703.2669"/>
    <line x1="298.4778" x2="358.4029" y1="703.7761" y2="826.9203"/>
    <line x1="358.7517" x2="290.2659" y1="826.7506" y2="686.0143"/>
    <line x1="306.6897" x2="358.0541" y1="721.5379" y2="827.0901"/>
    <line x1="357.7053" x2="314.9016" y1="827.2598" y2="739.2997"/>
    <line x1="317.3434" x2="360.147" y1="738.1114" y2="826.0716"/>
    <line x1="359.7982" x2="308.4338" y1="826.2413" y2="720.6892"/>
    <line x1="326.2529" x2="360.4958" y1="755.5337" y2="825.9018"/>
    <line x1="360.8447" x2="335.1625" y1="825.7321" y2="772.956"/>
    <line x1="331.3254" x2="357.0076" y1="774.8232" y2="827.5993"/>
    <line x1="357.3564" x2="323.1135" y1="827.4296" y2="757.0614"/>
    <line x1="327.252" x2="331.1513" y1="780.6023" y2="780.8111"/>
    <line x1="331.1311" x2="325.2822" y1="781.1875" y2="780.8743"/>
    <line x1="323.3123" x2="331.111" y1="781.1463" y2="781.5639"/>
    <line x1="331.0908" x2="321.3425" y1="781.9402" y2="781.4183"/>
    <line x1="319.3727" x2="331.0707" y1="781.6903" y2="782.3166"/>
    <line x1="331.0505" x2="317.4029" y1="782.693" y2="781.9623"/>
    <line x1="315.4331" x2="331.0304" y1="782.2342" y2="783.0694"/>
    <line x1="331.0102" x2="313.4633" y1="783.4457" y2="782.5062"/>
    <line x1="311.4935" x2="330.9901" y1="782.7782" y2="783.8221"/>
    <line x1="330.9699" x2="309.5236" y1="784.1985" y2="783.0502"/>
    <line x1="309.443" x2="330.8893" y1="784.5557" y2="785.704"/>
    <line x1="330.9095" x2="307.5135" y1="785.3276" y2="784.075"/>
    <line x1="307.5538" x2="330.9498" y1="783.3222" y2="784.5749"/>
    <line x1="330.9296" x2="305.584" y1="784.9512" y2="783.5942"/>
    <polygon points="305.584,783.5942 330.6676,789.8441 331.1916,780.0583"/>
    <line x1="311.3725" x2="330.8692" y1="785.0365" y2="786.0804"/>
    <line x1="330.849" x2="313.3021" y1="786.4567" y2="785.5172"/>
    <line x1="315.2316" x2="330.8289" y1="785.998" y2="786.8331"/>
    <line x1="330.8087" x2="317.1611" y1="787.2095" y2="786.4788"/>
    <line x1="319.0906" x2="330.7886" y1="786.9595" y2="787.5859"/>
    <line x1="330.7684" x2="321.0201" y1="787.9623" y2="787.4403"/>
    <line x1="322.9496" x2="330.7483" y1="787.9211" y2="788.3386"/>
    <line x1="330.7281" x2="324.8791" y1="788.715" y2="788.4018"/>
    <line x1="326.8086" x2="330.708" y1="788.8826" y2="789.0914"/>
    <line x1="330.6878" x2="328.7381" y1="789.4678" y2="789.3634"/>
    <line x1="329.2218" x2="331.1714" y1="780.3303" y2="780.4347"/>
    <line x1="339.5373" x2="356.6588" y1="792.585" y2="827.7691"/>
    <line x1="356.31" x2="347.7492" y1="827.9388" y2="810.3468"/>
    <line x1="352.9816" x2="361.5423" y1="807.8006" y2="825.3926"/>
    <line x1="361.1935" x2="344.072" y1="825.5624" y2="790.3783"/>
    <line x1="366.1715" x2="366.8836" y1="790.7753" y2="790.2033"/>
    <line x1="367.8287" x2="366.4045" y1="789.9214" y2="791.0654"/>
    <line x1="366.6375" x2="368.7738" y1="791.3554" y2="789.6395"/>
    <line x1="369.7189" x2="366.8705" y1="789.3576" y2="791.6455"/>
    <line x1="367.1035" x2="370.664" y1="791.9356" y2="789.0757"/>
    <line x1="371.6091" x2="367.3365" y1="788.7937" y2="792.2256"/>
    <line x1="367.5695" x2="372.5542" y1="792.5157" y2="788.5118"/>
    <line x1="373.4993" x2="367.8025" y1="788.2299" y2="792.8058"/>
    <line x1="368.0355" x2="374.4444" y1="793.0958" y2="787.948"/>
    <line x1="375.3895" x2="368.2685" y1="787.6661" y2="793.3859"/>
    <line x1="368.5015" x2="376.3346" y1="793.676" y2="787.3842"/>
    <line x1="376.8006" x2="368.9675" y1="787.9643" y2="794.2561"/>
    <line x1="368.7345" x2="377.2797" y1="793.9661" y2="787.1023"/>
    <line x1="376.3215" x2="369.2005" y1="788.8264" y2="794.5462"/>
    <line x1="369.4335" x2="375.8424" y1="794.8363" y2="789.6884"/>
    <line x1="375.3632" x2="369.6664" y1="790.5505" y2="795.1263"/>
    <line x1="369.8994" x2="374.8841" y1="795.4164" y2="791.4125"/>
    <line x1="374.405" x2="370.1324" y1="792.2746" y2="795.7065"/>
    <line x1="370.3654" x2="373.9259" y1="795.9965" y2="793.1366"/>
    <line x1="373.4468" x2="370.5984" y1="793.9987" y2="796.2866"/>
    <line x1="370.8314" x2="372.9677" y1="796.5767" y2="794.8607"/>
    <line x1="372.4886" x2="371.0644" y1="795.7228" y2="796.8668"/>
    <line x1="371.2974" x2="372.0095" y1="797.1568" y2="796.5848"/>
    <polygon points="371.5304,797.4469 377.2797,787.1023 365.9385,790.4852"/>
    <line x1="290.947" x2="570.9308" y1="796.1115" y2="714.2783"/>
    <line x1="523.6872" x2="522.8613" y1="739.5317" y2="740.9912"/>
    <line x1="521.7127" x2="523.3643" y1="742.2681" y2="739.349"/>
    <line x1="523.0415" x2="520.5641" y1="739.1664" y2="743.5451"/>
    <line x1="519.4155" x2="522.7187" y1="744.822" y2="738.9837"/>
    <line x1="522.3959" x2="518.2668" y1="738.8011" y2="746.0989"/>
    <line x1="517.1182" x2="522.073" y1="747.3758" y2="738.6184"/>
    <line x1="521.7502" x2="515.9696" y1="738.4358" y2="748.6527"/>
    <line x1="514.8209" x2="521.4274" y1="749.9296" y2="738.2531"/>
    <line x1="521.1046" x2="513.6723" y1="738.0705" y2="751.2065"/>
    <line x1="512.5237" x2="520.7817" y1="752.4834" y2="737.8878"/>
    <line x1="520.4589" x2="511.375" y1="737.7052" y2="753.7603"/>
    <line x1="510.0837" x2="519.1676" y1="753.0297" y2="736.9746"/>
    <line x1="518.8448" x2="510.5867" y1="736.7919" y2="751.3875"/>
    <line x1="511.0897" x2="518.522" y1="749.7453" y2="736.6093"/>
    <line x1="518.1992" x2="511.5927" y1="736.4266" y2="748.1031"/>
    <line x1="512.0957" x2="517.8763" y1="746.4609" y2="736.244"/>
    <line x1="517.5535" x2="512.5987" y1="736.0613" y2="744.8187"/>
    <line x1="513.1017" x2="517.2307" y1="743.1765" y2="735.8787"/>
    <line x1="516.9079" x2="513.6046" y1="735.696" y2="741.5342"/>
    <line x1="514.1076" x2="516.585" y1="739.892" y2="735.5134"/>
    <line x1="516.2622" x2="514.6106" y1="735.3307" y2="738.2498"/>
    <line x1="515.1136" x2="515.9394" y1="736.6076" y2="735.1481"/>
    <line x1="519.4905" x2="509.5808" y1="737.1572" y2="754.6719"/>
    <line x1="510.2264" x2="520.1361" y1="755.0372" y2="737.5225"/>
    <line x1="519.8133" x2="509.0778" y1="737.3399" y2="756.3141"/>
    <polygon points="509.0778,756.3141 524.01,739.7143 515.6166,734.9654"/>
    <polygon points="517.9609,775.9258 543.5713,795.9307 551.1269,786.2578 525.5165,766.253"/>
    <line x1="460.6738" x2="329.0649" y1="699.8103" y2="881.555"/>
    <line x1="520.6848" x2="535.8825" y1="658.391" y2="455.0275"/>
    <line x1="498.8718" x2="465.9488" y1="419.8909" y2="403.0355"/>
    <line x1="467.0297" x2="499.9528" y1="400.9241" y2="417.7795"/>
    <line x1="499.7726" x2="433.9265" y1="418.1314" y2="384.4206"/>
    <line x1="504.3812" x2="472.5233" y1="336.1517" y2="277.0134"/>
    <line x1="526.016" x2="546.9751" y1="295.0477" y2="255.6577"/>
    <line x1="533.3937" x2="532.7906" y1="309.4063" y2="310.9869"/>
    <line x1="532.5443" x2="533.7506" y1="312.7038" y2="309.5425"/>
    <line x1="534.1075" x2="532.298" y1="309.6787" y2="314.4206"/>
    <line x1="532.0517" x2="534.4644" y1="316.1375" y2="309.8149"/>
    <line x1="534.8213" x2="531.8055" y1="309.9511" y2="317.8543"/>
    <line x1="531.5592" x2="535.1782" y1="319.5712" y2="310.0872"/>
    <line x1="535.5351" x2="531.3129" y1="310.2234" y2="321.288"/>
    <line x1="531.0666" x2="535.892" y1="323.0049" y2="310.3596"/>
    <line x1="536.2489" x2="530.8204" y1="310.4958" y2="324.7217"/>
    <line x1="530.5741" x2="536.6058" y1="326.4386" y2="310.632"/>
    <line x1="536.9627" x2="530.3278" y1="310.7682" y2="328.1554"/>
    <line x1="530.0815" x2="537.3196" y1="329.8723" y2="310.9044"/>
    <line x1="537.6765" x2="529.8353" y1="311.0406" y2="331.5891"/>
    <line x1="530.1922" x2="538.0334" y1="331.7253" y2="311.1768"/>
    <line x1="538.3903" x2="531.1522" y1="311.313" y2="330.2809"/>
    <line x1="532.1123" x2="538.7472" y1="328.8364" y2="311.4491"/>
    <line x1="539.1041" x2="533.0724" y1="311.5853" y2="327.3919"/>
    <line x1="534.0324" x2="539.461" y1="325.9475" y2="311.7215"/>
    <line x1="539.8179" x2="534.9925" y1="311.8577" y2="324.503"/>
    <line x1="535.9526" x2="540.1748" y1="323.0585" y2="311.9939"/>
    <line x1="540.5317" x2="536.9126" y1="312.1301" y2="321.614"/>
    <line x1="537.8727" x2="540.8886" y1="320.1696" y2="312.2663"/>
    <line x1="541.2455" x2="538.8328" y1="312.4025" y2="318.7251"/>
    <line x1="539.7929" x2="541.6024" y1="317.2806" y2="312.5387"/>
    <line x1="541.9593" x2="540.7529" y1="312.6749" y2="315.8362"/>
    <line x1="541.713" x2="542.3162" y1="314.3917" y2="312.8111"/>
    <polygon points="542.6731,312.9472 533.0368,309.2701 529.7121,332.4476"/>
    <line x1="535.2411" x2="534.3265" y1="365.4254" y2="365.4678"/>
    <line x1="533.4296" x2="535.2587" y1="365.8908" y2="365.8059"/>
    <line x1="535.2764" x2="532.5327" y1="366.1864" y2="366.3138"/>
    <line x1="531.6358" x2="535.2941" y1="366.7368" y2="366.5669"/>
    <line x1="535.3117" x2="530.7389" y1="366.9475" y2="367.1598"/>
    <line x1="529.8419" x2="535.3294" y1="367.5828" y2="367.328"/>
    <line x1="535.3471" x2="528.945" y1="367.7085" y2="368.0058"/>
    <line x1="528.0481" x2="535.3647" y1="368.4288" y2="368.0891"/>
    <line x1="535.3824" x2="527.1512" y1="368.4696" y2="368.8518"/>
    <line x1="526.2543" x2="535.4001" y1="369.2748" y2="368.8501"/>
    <line x1="535.4177" x2="525.3574" y1="369.2306" y2="369.6978"/>
    <line x1="525.3927" x2="535.4531" y1="370.4588" y2="369.9917"/>
    <line x1="535.4707" x2="526.325" y1="370.3722" y2="370.7969"/>
    <line x1="527.2572" x2="535.4884" y1="371.1349" y2="370.7527"/>
    <line x1="535.5061" x2="528.1895" y1="371.1333" y2="371.473"/>
    <line x1="529.1217" x2="535.5238" y1="371.8111" y2="371.5138"/>
    <line x1="535.5414" x2="530.054" y1="371.8943" y2="372.1491"/>
    <line x1="530.9862" x2="535.5591" y1="372.4872" y2="372.2749"/>
    <line x1="535.5768" x2="531.9185" y1="372.6554" y2="372.8252"/>
    <line x1="532.8507" x2="535.5944" y1="373.1633" y2="373.0359"/>
    <line x1="535.6121" x2="533.7829" y1="373.4164" y2="373.5014"/>
    <line x1="534.7152" x2="535.6298" y1="373.8394" y2="373.797"/>
    <polygon points="535.6474,374.1775 535.2234,365.0448 524.4605,370.1207"/>
    <line x1="535.4354" x2="524.4605" y1="369.6112" y2="370.1207"/>
    <polygon points="544.2206,652.3666 539.9949,649.3345 536.4532,654.2704 540.6789,657.3024"/>
    <line x1="616.7347" x2="617.8124" y1="647.7441" y2="648.8611"/>
    <line x1="619.1584" x2="617.003" y1="649.7191" y2="647.4852"/>
    <line x1="617.2713" x2="620.5044" y1="647.2263" y2="650.5772"/>
    <line x1="621.8504" x2="617.5397" y1="651.4353" y2="646.9674"/>
    <line x1="617.808" x2="623.1964" y1="646.7085" y2="652.2933"/>
    <line x1="624.0014" x2="618.613" y1="651.5167" y2="645.9319"/>
    <line x1="618.8813" x2="623.192" y1="645.673" y2="650.1408"/>
    <line x1="622.3827" x2="619.1497" y1="648.7649" y2="645.4141"/>
    <line x1="619.418" x2="621.5733" y1="645.1552" y2="647.3891"/>
    <line x1="620.764" x2="619.6863" y1="646.0132" y2="644.8963"/>
    <line x1="618.3447" x2="624.8107" y1="646.1907" y2="652.8925"/>
    <line x1="624.5424" x2="618.0763" y1="653.1514" y2="646.4496"/>
    <polygon points="625.2154,653.5804 619.9546,644.6374 616.4664,648.003"/>
    <polygon points="640.1681,662.4259 645.8726,665.7442 647.0047,657.2354"/>
    <line x1="640.5036" x2="640.9724" y1="662.6211" y2="661.8153"/>
    <line x1="641.7767" x2="640.8392" y1="661.2046" y2="662.8163"/>
    <line x1="641.1747" x2="642.581" y1="663.0115" y2="660.594"/>
    <line x1="643.3853" x2="641.5103" y1="659.9834" y2="663.2067"/>
    <line x1="641.8459" x2="644.1896" y1="663.4019" y2="659.3727"/>
    <line x1="644.9939" x2="642.1814" y1="658.7621" y2="663.5971"/>
    <line x1="642.517" x2="645.7982" y1="663.7923" y2="658.1514"/>
    <line x1="646.6025" x2="642.8525" y1="657.5408" y2="663.9875"/>
    <line x1="643.1881" x2="646.9381" y1="664.1827" y2="657.736"/>
    <line x1="646.8049" x2="643.5237" y1="658.737" y2="664.3778"/>
    <line x1="643.8592" x2="646.6717" y1="664.573" y2="659.738"/>
    <line x1="646.5385" x2="644.1948" y1="660.739" y2="664.7682"/>
    <line x1="644.5303" x2="646.4053" y1="664.9634" y2="661.7401"/>
    <line x1="646.2721" x2="644.8659" y1="662.7411" y2="665.1586"/>
    <line x1="645.2015" x2="646.1389" y1="665.3538" y2="663.7421"/>
    <line x1="646.0058" x2="645.537" y1="664.7432" y2="665.549"/>
  </g>
</svg>
