<?xml version="1.0" encoding="utf-8" ?>
<svg xmlns="http://www.w3.org/2000/svg" xmlns:cc="http://creativecommons.org/ns" xmlns:dc="http://purl.org/dc/elements/1.1/" xmlns:ev="http://www.w3.org/2001/xml-events" xmlns:inkscape="http://www.inkscape.org/namespaces/inkscape" xmlns:rdf="http://www.w3.org/1999/02/22-rdf-syntax-ns" xmlns:sodipodi="http://sodipodi.sourceforge.net/DTD/sodipodi-0.dtd" xmlns:xlink="http://www.w3.org/1999/xlink" baseProfile="tiny" height="29.7cm" version="1.2" viewBox="0 0 793.7007874015749 1122.5196850393702" width="21.0cm">
  <metadata>
    <rdf:RDF>
      <cc:Work>
        <dc:format>image/svg+xml</dc:format>
        <dc:source>vsk save -s 82 -c C:\Users\marti\Documents\git\putti-plotter-plot\sixfeet\config\1.json C:\Users\marti\Documents\git\putti-plotter-plot\sixfeet\sketch_sixfeet.py</dc:source>
        <dc:date>2023-11-19T17:46:41.777539</dc:date>
      </cc:Work>
    </rdf:RDF>
  </metadata>
  <defs/>
  <g fill="none" id="layer1" inkscape:groupmode="layer" inkscape:label="1" stroke="#0000ff" style="display:inline">
    <polygon points="440.4014,400.4351 436.6943,399.7154 432.9366,399.3404 428.783,399.3295 424.6496,399.7396 420.9454,400.4742 416.9683,401.6724 413.1331,403.2675 409.4792,405.2429 406.3465,407.3517 403.1414,409.9937 400.2204,412.9468 397.8369,415.8759 395.5392,419.3362 393.7643,422.6694 392.1758,426.5073 391.0759,430.12 390.2561,434.1919 389.8531,438.326 389.852,442.1024 390.2525,446.2367 390.9785,449.9426 392.1676,453.9224 393.5936,457.4192 395.5267,461.0956 397.8224,464.5572 400.4569,467.7685 403.4033,470.6963 406.6311,473.3105 409.7819,475.3922 413.111,477.1748 416.9453,478.7721 420.9216,479.9728 424.6254,480.7095 428.3813,481.1019 432.5349,481.1319 436.6701,480.7409 440.7445,479.9329 444.716,478.7164 448.2028,477.2662 451.8657,475.3077 455.3114,472.9881 458.5043,470.3314 461.4117,467.3649 464.0035,464.119 466.0634,460.954 467.9817,457.2698 469.3936,453.7673 470.5667,449.7828 471.2778,446.074 471.6618,441.9381 471.6455,438.1618 471.2259,434.0293 470.3897,429.9607 469.1457,425.9977 467.6715,422.521 465.6877,418.8717 463.5716,415.7439 461.1763,412.8244 458.2435,409.883 455.331,407.4793 451.8867,405.1577 448.2249,403.197 444.3833,401.6174"/>
    <polygon points="448.2054,408.955 447.758,415.358 447.9376,422.1514 448.7875,428.8939 450.2993,435.5194 452.3216,441.611 455.0724,447.8252 458.4236,453.7373 462.3424,459.2894 466.5303,464.1535 471.4384,468.8538 476.7869,473.0463 482.5234,476.6899 488.5918,479.7489 494.9326,482.1936 501.1156,483.9166 507.8069,485.1037 514.5828,485.624 521.3769,485.4723 528.1228,484.6503 534.7545,483.1658 541.2071,481.0335 547.4175,478.2742 553.0057,475.1167 558.5739,471.2208 563.73,466.7939 568.4236,461.8792 572.6087,456.525 576.2444,450.7835 579.2951,444.711 581.7311,438.3667 583.5284,431.8129 584.6694,425.1136 585.1431,418.3343 584.9735,411.918 584.1421,405.1732 582.6486,398.5436 580.5074,392.0939 577.7395,385.8873 574.3721,379.9845 570.6708,374.7406 566.2368,369.5906 561.3157,364.9038 555.9557,360.726 550.2093,357.0982 544.1325,354.0558 537.785,351.6286 531.5973,349.9226 524.9027,348.7539 518.1255,348.2522 511.3318,348.4226 504.5882,349.2632 497.9606,350.7658 491.5139,352.9159 485.311,355.6923 479.4129,359.0678 474.1741,362.7763 469.0302,367.2174 464.3501,372.1449 460.1798,377.5106 456.5598,383.262 453.5258,389.343 451.1073,395.6939 449.328,402.2526"/>
    <polygon points="451.2659,428.9136 452.7305,435.1655 454.7934,441.2463 457.435,447.099 460.6306,452.6685 464.3502,457.9026 468.8208,463.0245 473.5042,467.4174 478.5907,471.3364 484.0326,474.7448 489.7788,477.6106 496.1348,480.0237 502.335,481.6934 508.6678,482.7553 515.4514,483.2062 521.869,482.9916 528.2357,482.157 534.4917,480.7102 540.5784,478.6647 546.4386,476.0398 552.0172,472.8601 557.5589,468.9219 562.3965,464.6994 566.8027,460.0286 570.7363,454.9533 574.1602,449.5211 577.1943,443.4371 579.4735,437.434 581.1609,431.2386 582.2852,424.5336 582.711,418.1266 582.5148,411.7084 581.6983,405.3393 580.2693,399.0792 578.2412,392.9867 575.462,386.7821 572.2664,381.2126 568.5468,375.9785 564.3382,371.1289 559.3928,366.4637 554.3063,362.5446 548.8644,359.1362 542.7718,356.1194 536.7623,353.8574 530.1926,352.1082 523.8539,351.0824 517.4456,350.6749 511.028,350.8895 504.6613,351.7241 498.4053,353.1709 492.3186,355.2164 486.4585,357.8413 480.8798,361.021 475.3381,364.9592 470.5005,369.1817 466.0943,373.8525 462.1607,378.9278 458.7369,384.36 455.7027,390.4439 453.4236,396.447 451.7361,402.6425 450.6118,409.3475 450.186,415.7545 450.3822,422.1727"/>
    <polygon points="447.6175,429.2704 449.1399,435.8951 451.2983,442.3408 454.0723,448.5464 457.4357,454.4534 461.3567,460.0059 465.7984,465.1514 471.0051,470.0877 476.38,474.2488 482.4632,478.0529 488.5574,481.0639 494.9151,483.469 501.4763,485.2454 508.5542,486.4201 515.3375,486.8583 522.1312,486.6358 528.8713,485.7548 535.494,484.2235 541.9367,482.0564 548.1386,479.274 554.041,475.9026 559.5882,471.9741 564.7278,467.5255 569.657,462.3121 573.8109,456.9316 577.4227,451.1732 580.6095,444.745 583.006,438.3841 584.853,431.4512 585.9386,424.741 586.3677,417.9571 586.1361,411.1637 585.2459,404.4248 583.7057,397.8042 581.5299,391.3644 578.7391,385.1663 575.3598,379.2684 571.4237,373.7265 566.9682,368.593 562.0353,363.9163 556.6717,359.7407 550.9279,356.1055 544.5128,352.8927 538.1616,350.4705 531.6052,348.6763 524.5305,347.4826 517.7484,347.026 510.9541,347.2302 504.2116,348.093 497.5848,349.6064 491.1363,351.7561 484.5902,354.6929 478.6969,358.0802 473.1603,362.0237 468.0328,366.4862 463.3628,371.4254 459.1944,376.7947 455.567,382.5433 452.5149,388.617 449.9492,395.3173 448.1639,401.8761 447.0239,408.5772 446.5399,415.3574 446.7456,422.5291"/>
    <polygon points="475.1927,487.0675 480.5485,485.2235 485.7008,482.8702 490.6014,480.0297 495.2043,476.7285 499.7373,472.7344 503.5918,468.5839 507.2402,463.7682 510.1924,458.9341 512.6632,453.8371 514.6296,448.5251 516.073,443.0477 516.9799,437.4565 517.3464,431.426 517.089,425.3899 516.2835,419.7832 514.9394,414.2806 513.0695,408.9339 510.6913,403.793 507.827,398.9063 504.5036,394.3194 500.7521,390.0755 496.6078,386.2143 491.798,382.5582 486.9686,379.5982 481.8757,377.1191 476.5668,375.1442 471.0918,373.692 465.502,372.776 459.4722,372.3998 453.8119,372.6136 448.1989,373.3739 442.6856,374.6735 436.9731,376.6403 431.8285,379.0103 426.6211,382.0737 422.0504,385.4194 417.8247,389.1913 413.9836,393.3543 410.3509,398.1817 407.4143,403.0254 404.9599,408.1303 402.8992,413.8096 401.509,419.3007 400.6563,424.9004 400.3491,430.5564 400.5904,436.2155 401.4497,442.1957 402.8115,447.6939 404.6986,453.0346 407.0934,458.1678 409.9735,463.0452 413.3117,467.6213 417.0769,471.8531 421.2336,475.7009 425.743,479.1287 430.8941,482.2859 435.995,484.7485 441.3103,486.7063 446.7899,488.1408 452.7582,489.0792 458.4136,489.3955 464.0732,489.1633 469.6838,488.3849"/>
    <polygon points="507.2763,491.5829 514.8078,492.1264 522.3558,491.912 529.8443,490.9416 536.8344,489.3285 543.6391,487.0568 550.5334,483.9766 557.084,480.2206 562.9287,476.0608 568.3504,471.363 573.5463,465.8839 578.1666,459.9113 581.9802,453.8351 585.3497,447.0774 587.9078,440.3752 589.8976,433.091 591.1023,426.019 591.6277,418.8645 591.4416,411.3157 590.4995,403.8236 588.8109,396.4637 586.5305,389.662 583.4417,382.7715 579.6775,376.2256 575.5103,370.3862 570.5441,364.698 565.3201,359.7813 559.3417,355.1685 553.2607,351.3626 546.8447,348.1533 539.7934,345.4519 532.5067,343.4712 525.4333,342.2754 518.278,341.759 510.7295,341.9545 503.2386,342.906 496.2444,344.5016 489.082,346.8928 482.1954,349.9903 475.6542,353.7627 469.82,357.9372 464.4101,362.6486 459.228,368.1408 454.8385,373.815 450.8244,380.2107 447.6232,386.6307 444.9306,393.6854 443.0402,400.6057 441.7721,408.0495 441.2647,415.2054 441.4697,422.7537 442.3648,429.8715 444.035,437.2356 446.2982,444.043 449.3697,450.9412 453.1175,457.4966 457.27,463.3464 461.9609,468.774 467.4335,473.9769 473.4003,478.6047 479.4717,482.4259 485.8796,485.6512 492.9242,488.3703 499.8373,490.2868"/>
    <polygon points="514.9967,487.6641 521.7945,487.4767 528.9151,486.5718 535.5437,485.053 542.3479,482.7672 548.5491,479.9761 554.4536,476.6024 560.3041,472.4438 565.431,467.9762 570.3508,462.7496 574.5005,457.3621 578.2979,451.271 581.3086,445.1734 583.7199,438.8149 585.5903,431.885 586.7059,425.1767 587.1721,418.3923 586.9551,411.2177 586.0798,404.4739 584.5609,397.8453 582.4126,391.3932 579.4841,384.8399 575.9065,378.6172 571.9518,373.0849 567.4842,367.958 562.5449,363.2837 557.1796,359.1054 551.1089,355.2754 545.0275,352.2322 538.3228,349.6691 531.3929,347.7987 524.6847,346.6832 517.9003,346.217 510.7257,346.434 503.9819,347.3093 497.3533,348.8281 490.9012,350.9764 484.3479,353.905 478.1252,357.4826 472.5929,361.4372 467.466,365.9049 462.7917,370.8441 458.3965,376.519 454.7834,382.2801 451.7402,388.3616 449.1771,395.0662 447.3875,401.6269 446.1912,408.7044 445.725,415.4888 445.9124,422.2866 446.7516,429.0349 448.3361,436.0357 450.6218,442.8399 453.413,449.0411 456.7866,454.9457 460.9452,460.7961 465.4128,465.9231 470.6395,470.8429 476.027,474.9925 481.7881,478.6056 487.8695,481.6489 494.5742,484.212 501.5041,486.0824 508.2123,487.1979"/>
    <polygon points="522.3935,490.28 529.5069,489.3525 536.4963,487.7368 543.295,485.4481 549.8386,482.5082 556.0648,478.9451 561.9144,474.7927 567.3319,470.0903 572.2657,464.8828 576.669,459.2195 580.6849,452.8251 583.874,446.3994 586.4222,439.6935 588.3856,432.4024 589.5494,425.3238 590.0183,418.1655 589.788,410.9955 588.8605,403.8821 587.2448,396.8928 584.9561,390.094 582.0162,383.5505 578.4531,377.3243 574.3007,371.4746 569.5983,366.0571 564.3908,361.1233 558.7275,356.7201 552.6624,352.8892 545.9073,349.515 539.2015,346.9668 532.2794,345.0837 525.2069,343.8836 518.0511,343.378 510.5035,343.6011 503.3901,344.5285 496.4008,346.1443 489.602,348.433 483.0584,351.3728 476.8322,354.9359 470.9826,359.0884 465.2929,364.0526 460.3859,369.2855 456.0118,374.9712 452.2121,381.0559 449.023,387.4817 446.4748,394.1875 444.5917,401.1096 443.3476,408.5573 442.8787,415.7156 443.109,422.8855 444.0365,429.999 445.6523,436.9883 447.9409,443.787 450.8808,450.3306 454.4439,456.5568 458.5964,462.4065 463.2987,467.8239 468.5063,472.7578 474.1695,477.161 480.2346,480.9919 486.9897,484.366 493.6955,486.9143 500.6176,488.7974 508.0653,490.0414 515.2236,490.5104"/>
    <polygon points="529.1742,488.9996 536.1703,487.4068 542.9767,485.1366 549.5281,482.2107 555.7614,478.6572 561.6167,474.5103 567.0378,469.8099 571.9725,464.6012 576.3733,458.9342 580.1979,452.8635 583.4096,446.4474 585.9775,439.7476 587.8769,432.8285 589.0896,425.7566 589.6038,418.6 589.4146,411.4274 588.5239,404.3079 586.9402,397.3098 584.6788,390.5004 581.7613,383.9452 578.2158,377.7073 574.0765,371.8466 569.1216,366.1469 563.8938,361.2325 558.2098,356.8536 552.1244,353.0525 545.6959,349.8657 538.9862,347.3237 532.0598,345.4511 524.9833,344.2659 517.8247,343.7794 510.6529,343.9963 503.5368,344.9146 496.5449,346.5254 489.7444,348.8132 483.2006,351.756 476.9764,355.3256 471.1318,359.4876 465.7229,364.2019 460.8017,369.4234 456.4155,375.1017 452.6066,381.1823 449.4114,387.6066 446.8608,394.3131 444.9793,401.237 443.7849,408.312 443.2892,415.4699 443.4969,422.642 444.406,429.7592 446.0077,436.7532 448.2867,443.5567 451.2211,450.1043 454.7827,456.3331 458.9371,462.183 463.6445,467.598 468.8596,472.526 474.5322,476.9195 480.6079,480.7363 487.0281,483.9397 493.7312,486.499 500.6528,488.3894 507.7262,489.5929 514.8835,490.0979 522.0558,489.8995"/>
    <polygon points="534.8675,481.8695 541.3078,479.6864 547.1596,477.0393 552.7333,473.8479 558.2756,469.9077 563.1211,465.6919 567.79,460.7479 571.7216,455.6692 575.3383,449.9105 578.3571,443.8171 580.6316,437.8106 582.3248,431.6151 583.4671,424.9116 583.9213,418.505 583.7363,411.7073 582.9341,405.3349 581.4288,398.7034 579.2637,392.2571 576.633,386.3979 573.254,380.4966 569.5326,375.2619 565.069,370.1317 560.3994,365.7219 555.3318,361.7761 549.5832,358.1433 543.4983,355.1074 537.4982,352.8162 530.9386,351.0234 524.6072,349.9445 517.824,349.4636 511.4037,349.6384 505.0291,350.4227 498.3934,351.9095 491.941,354.0564 486.0745,356.6708 480.483,359.8309 474.9187,363.74 469.7759,368.1891 465.107,373.1332 460.9594,378.522 457.5587,383.9706 454.6914,389.7177 452.2654,396.0704 450.4911,402.6351 449.4299,408.9695 448.9757,415.3761 449.1608,422.1738 449.9629,428.5462 451.4682,435.1777 453.6333,441.624 456.264,447.4832 459.643,453.3845 463.3644,458.6192 467.828,463.7494 472.4976,468.1591 477.8748,472.3219 483.3138,475.7378 489.0529,478.6212 495.3988,481.0649 501.9584,482.8576 508.2898,483.9365 515.073,484.4175 521.4933,484.2427 528.2403,483.3934"/>
    <polygon points="541.6183,481.7449 547.828,478.9764 553.7375,475.6146 559.2905,471.6917 564.4336,467.2451 569.1179,462.3174 573.2984,456.9557 576.9351,451.2113 580.1458,444.7934 582.5618,438.4383 584.3455,431.8776 585.4799,425.174 585.954,418.3917 585.7634,411.5956 584.9098,404.8505 583.4015,398.2211 581.2528,391.7707 578.4844,385.5611 575.1226,379.6515 571.1996,374.0986 566.7531,368.9554 561.8254,364.2712 556.4637,360.0907 550.39,356.2685 544.3013,353.2433 537.9462,350.8273 531.3856,349.0435 524.682,347.9092 517.8997,347.435 511.1035,347.6257 504.3585,348.4792 497.7291,349.9876 491.2787,352.1362 484.7323,355.0762 478.8411,358.47 473.3096,362.4231 468.1907,366.8975 463.5333,371.8506 459.382,377.235 455.7765,382.999 452.7513,389.0877 450.3352,395.4428 448.5515,402.0035 447.4171,408.707 446.943,415.4893 447.1336,422.2855 447.9872,429.0306 449.4955,435.66 451.6442,442.1104 454.4127,448.32 457.7744,454.2296 461.6974,459.7825 466.144,464.9257 471.3586,469.8557 476.7429,474.007 482.507,477.6126 488.5957,480.6378 494.9508,483.0538 501.5115,484.8376 508.215,485.9719 514.9973,486.446 521.7935,486.2554 528.5385,485.4018 535.1679,483.8935"/>
    <polygon points="545.1569,486.2194 641.3647,431.1522 532.9762,241.787 436.7684,296.8543"/>
    <polygon points="545.7174,475.0398 551.3011,471.8722 556.5454,468.1698 561.3993,463.9684 565.8154,459.3092 569.7509,454.2373 573.1673,448.8023 576.0314,443.057 578.3153,437.0575 579.9968,430.862 581.0595,424.531 581.493,418.126 581.2932,411.7095 580.4619,405.344 579.1099,399.4549 577.0814,393.3642 574.4626,387.5031 571.4812,382.2476 567.7939,376.9926 563.6067,372.1265 558.9603,367.6968 553.8999,363.7467 548.4748,360.3145 542.7379,357.4337 536.745,355.1324 530.5544,353.4329 524.2265,352.3519 517.8228,351.8997 511.4058,352.081 505.0379,352.8938 498.781,354.3302 492.6962,356.3763 486.8428,359.0122 481.2775,362.2122 476.0548,365.945 471.2254,370.1745 466.8364,374.8593 463.1461,379.6437 459.7297,385.0788 456.8656,390.824 454.5817,396.8236 452.9002,403.0191 451.8375,409.3501 451.404,415.7551 451.6038,422.1715 452.4351,428.5371 453.7871,434.4261 455.8156,440.5169 458.4345,446.378 461.6182,451.9525 465.3359,457.186 469.5513,462.0277 474.2234,466.4303 478.9971,470.1344 484.4222,473.5666 490.1591,476.4474 496.152,478.7487 501.974,480.3652 508.2956,481.483 514.6965,481.9723 521.1145,481.8283 527.487,481.0525 533.7521,479.6524 539.8487,477.6417"/>
    <polygon points="559.8859,472.2565 565.0219,467.8059 569.7044,462.8805 573.8896,457.5261 577.7248,451.4642 580.9226,445.0432 583.3339,438.6893 585.1207,432.1324 586.2663,425.4337 586.7601,418.6556 586.5691,411.4849 585.6487,404.371 584.1125,397.7509 581.9446,391.31 579.1651,385.1083 575.8001,379.2039 571.6476,373.3548 567.1833,368.2308 561.958,363.3164 556.57,359.1744 550.8075,355.5718 544.7242,352.5422 538.0176,349.997 531.4559,348.2278 524.7542,347.1002 517.9748,346.6246 510.8047,346.8348 504.0648,347.7068 497.4406,349.2252 490.6422,351.5135 484.448,354.3096 478.235,357.8949 472.7147,361.8587 467.6027,366.3367 462.9467,371.2873 458.7903,376.6641 454.9877,382.7465 451.9744,388.8379 449.5631,395.1918 447.7763,401.7487 446.5861,408.8225 446.1287,415.6031 446.3279,422.3961 447.1818,429.1383 448.6824,435.7665 450.9524,442.5711 453.7319,448.7728 457.0969,454.6772 461.2494,460.5263 465.7137,465.6503 470.6517,470.3195 476.0173,474.4904 482.0895,478.3093 488.1729,481.3389 494.5202,483.7673 501.4411,485.6533 508.1429,486.7809 514.9222,487.2565 521.7158,487.0755 528.4602,486.2398 535.0925,484.7569 541.9031,482.5052 548.1122,479.7424 554.3444,476.1906"/>
    <polygon points="570.3986,463.3185 574.7963,457.6475 578.4156,451.892 581.469,445.8172 584.0473,439.12 585.9378,432.1971 587.0768,425.4942 587.5708,418.7132 587.3876,411.5392 586.4825,404.4201 584.9676,397.7921 582.8268,391.3389 579.91,384.7821 576.5504,378.8711 572.4095,373.01 567.6991,367.5958 562.7548,362.929 557.078,358.5387 551.3176,354.9271 545.2388,351.8818 538.5382,349.3124 531.6128,347.431 524.9084,346.3009 518.1267,345.8159 510.953,346.0087 504.2071,346.8572 497.2091,348.447 490.7588,350.5963 484.2058,353.5218 477.9809,357.0927 472.4437,361.038 467.3083,365.4938 462.3755,370.706 458.209,376.0787 454.3888,382.1538 451.3516,388.2367 448.791,394.9407 447.0,401.4995 445.7977,408.5745 445.3217,415.3567 445.524,422.5303 446.3815,429.275 447.9805,436.2709 450.2763,443.0702 453.0727,449.2674 456.6518,455.4876 460.6044,461.0196 465.3291,466.4212 470.2858,471.0749 475.9743,475.45 481.7442,479.0464 487.8311,482.0755 494.5385,484.6272 501.4689,486.4901 508.1762,487.6024 514.9592,488.0693 522.1324,487.8575 528.8759,486.9911 535.8698,485.3828 542.3143,483.2164 548.5227,480.4446 554.7571,476.8904 560.3047,472.9598 565.4519,468.5176"/>
    <polygon points="589.1224,432.8361 590.3158,425.7594 590.8219,418.6006 590.6068,411.0496 589.6271,403.5594 587.9972,396.5703 585.7014,389.7708 582.7611,383.2241 578.9999,376.673 574.8288,370.833 570.1143,365.4222 564.613,360.2454 558.9258,355.8681 552.8433,352.0593 546.0759,348.7029 539.3627,346.1656 532.4363,344.2869 525.3612,343.0845 518.203,342.5693 510.6518,342.7748 503.5323,343.6785 496.533,345.264 489.719,347.5166 482.8163,350.5852 476.2604,354.338 470.4152,358.5018 464.9983,363.2094 460.0603,368.4171 455.647,374.0764 451.6135,380.4634 448.2485,387.2266 445.7027,393.9365 443.7345,401.2296 442.559,408.3093 442.0712,415.4693 442.2755,422.6431 443.1701,429.7637 444.7467,436.765 446.9906,443.5819 450.0505,450.4884 453.5921,456.7303 457.9513,462.8996 462.6521,468.3225 467.8535,473.2671 473.5072,477.6875 479.8891,481.7292 486.648,485.1027 493.3546,487.6571 500.2762,489.5533 507.7235,490.819 514.8829,491.316 522.0569,491.1207 529.1786,490.2351 536.546,488.5663 543.3542,486.2964 549.9121,483.3811 556.4775,479.6449 562.3333,475.496 568.035,470.5408 572.9598,465.3206 577.3586,459.6502 581.1906,453.5822 584.5728,446.8276 587.1357,440.1242"/>
    <polygon points="585.0641,425.2318 585.5375,418.8265 585.3884,412.0278 584.5719,405.2767 583.0959,398.6385 580.9748,392.1775 578.2289,385.9563 574.885,380.035 570.9753,374.4709 566.5378,369.318 561.6154,364.6261 556.2557,360.4407 550.5106,356.8023 544.4358,353.746 538.0901,351.3015 531.5348,349.4925 524.8336,348.3364 518.0511,347.8444 511.2531,348.0214 504.5054,348.8656 497.8733,350.3687 491.4211,352.5164 485.2111,355.2877 479.3036,358.6559 473.7556,362.5884 468.6209,367.047 463.9493,371.9886 459.7859,377.3654 456.171,383.1253 453.1397,389.2126 450.7213,395.5683 448.9391,402.131 447.8105,408.8369 447.3546,415.2435 447.5223,422.0417 448.3573,428.7906 449.8514,435.4247 451.9902,441.8799 454.7531,448.0936 458.1132,454.0058 462.038,459.5591 466.4896,464.6998 471.4249,469.3782 476.796,473.549 482.5509,477.1717 488.6341,480.2114 494.9865,482.6385 501.5466,484.4296 508.2511,485.5674 515.0349,486.0408 521.8323,485.8452 528.5777,484.9826 535.2056,483.4613 541.652,481.296 547.8544,478.5077 553.7527,475.1234 558.9926,471.4092 564.1395,466.9647 568.8246,462.0358 573.0027,456.6704 576.6333,450.9204 579.6813,444.8415 582.1171,438.4924 583.9172,431.9347"/>
    <polygon points="584.7359,418.3912 584.542,411.5967 583.7395,405.2271 582.242,398.5969 580.093,392.1483 577.3136,385.9452 573.9315,380.0491 569.9801,374.5184 565.4986,369.4078 560.8192,365.0125 555.4382,360.8595 550.0006,357.4466 543.9212,354.4063 537.5697,351.9854 531.009,350.2077 524.3041,349.091 517.8991,348.6531 511.1046,348.8471 504.7351,349.6496 498.1048,351.147 491.6562,353.2961 485.4532,356.0754 479.5571,359.4575 474.3231,363.1751 469.1878,367.6283 464.5205,372.5699 460.3675,377.9509 456.9545,383.3884 453.9143,389.4679 451.4934,395.8194 449.7157,402.3801 448.5989,409.085 448.1541,415.8676 448.3551,422.2844 449.1576,428.654 450.655,435.2842 452.804,441.7328 455.5834,447.9359 458.9655,453.832 462.9169,459.3627 467.3984,464.4733 472.0778,468.8686 477.4589,473.0216 483.226,476.6192 488.9759,479.4748 495.3274,481.8957 501.888,483.6734 508.5929,484.7901 515.3756,485.2349 521.7924,485.034 528.1619,484.2315 534.7922,482.734 541.2408,480.585 547.4438,477.8057 553.3399,474.4236 558.5739,470.706 563.7093,466.2528 568.3765,461.3112 572.313,456.2398 575.9425,450.4926 578.9827,444.4132 581.4037,438.0617 583.1813,431.501 584.2981,424.7961"/>
    <polygon points="587.6931,396.9873 585.4242,390.1772 582.5061,383.6191 578.9662,377.3746 574.8378,371.5025 570.1598,366.0582 564.6904,360.8456 558.7178,356.218 552.6346,352.4077 546.2107,349.2048 539.5067,346.6394 532.5856,344.7359 525.5127,343.5119 517.9766,342.9704 510.8013,343.1704 503.3071,344.131 496.3133,345.7472 489.5091,348.0334 482.9584,350.9683 476.723,354.5241 470.5644,358.9011 465.1561,363.6207 460.2305,368.8421 455.8341,374.5163 452.0083,380.5898 448.789,387.0055 446.0887,394.062 444.2028,400.9879 442.997,408.0639 442.4747,415.6014 442.693,422.7761 443.6057,429.896 445.2039,436.8938 447.4728,443.7039 450.3909,450.262 453.9308,456.5065 458.0592,462.3786 462.7372,467.8229 468.2066,473.0355 473.8696,477.4464 479.9333,481.2877 486.6863,484.6763 493.3903,487.2416 500.3114,489.1452 507.3843,490.3692 514.9204,490.9107 522.0957,490.7107 529.2178,489.8162 536.2198,488.2359 543.0356,485.9844 549.9386,482.9128 556.174,479.357 562.0355,475.2136 567.4679,470.5217 572.6665,465.039 577.0629,459.3648 581.0736,452.9616 584.2601,446.5296 586.8083,439.8191 588.6942,432.8932 589.9001,425.8171 590.4146,418.6575 590.204,411.1049 589.2914,403.9851"/>
    <polygon points="575.2074,387.1769 572.0293,381.5957 568.3228,376.3505 564.123,371.4913 559.4699,367.0643 554.4078,363.1114 548.9848,359.6704 542.9068,356.621 536.9063,354.3309 530.7114,352.6361 524.3808,351.5527 517.9748,351.091 511.5543,351.2554 505.1803,352.0444 498.9135,353.4503 492.8134,355.4599 486.6006,358.2244 481.0239,361.4105 475.4875,365.3588 470.6585,369.5933 466.2649,374.278 462.3485,379.3683 458.9464,384.8158 456.0911,390.5688 453.8096,396.5726 452.1237,402.7699 451.0494,409.1021 450.5969,415.5087 450.7705,421.929 451.5686,428.3018 452.9835,434.5666 455.0019,440.6639 457.6044,446.5355 460.7665,452.1258 464.458,457.3815 468.6438,462.2528 473.2842,466.6932 478.3349,470.6605 484.0766,474.3038 489.8173,477.1839 495.8111,479.4912 502.3702,481.2856 508.7039,482.3508 515.1112,482.7942 521.5312,482.6113 527.9028,481.8041 534.1656,480.3802 540.2599,478.3531 546.1279,475.7421 551.7136,472.572 556.9641,468.873 561.8293,464.6802 566.263,460.0335 570.2231,454.9771 573.672,449.559 576.5767,443.8308 579.0287,437.4882 580.7324,431.2956 581.8249,424.9666 582.2958,418.5613 582.1406,412.1405 581.3608,405.7655 579.8627,399.1324 577.8268,393.041"/>
    <polygon points="559.8123,365.7548 554.7222,361.845 549.2818,358.4395 543.1949,355.418 537.1931,353.1435 531.0013,351.453 524.6764,350.362 518.2761,349.8804 511.4824,350.0396 505.1117,350.8204 498.4806,352.3066 492.386,354.3195 486.1742,357.0751 480.2731,360.4451 475.0396,364.1608 470.1852,368.3596 465.5077,373.2893 461.353,378.6668 457.9475,384.1072 454.9259,390.1941 452.6515,396.196 450.961,402.3877 449.8247,409.0876 449.3792,415.4905 449.5766,422.2833 450.3932,428.6495 451.9167,435.2721 453.9639,441.3552 456.7545,447.5514 460.1576,453.4335 463.9027,458.6459 468.3916,463.7479 473.0847,468.1263 478.1748,472.0361 483.6152,475.4416 489.7021,478.4631 495.7039,480.7376 501.8957,482.428 508.5956,483.5643 514.9985,484.0099 521.7912,483.8125 528.1574,482.9958 534.4164,481.5745 540.8632,479.4251 546.7228,476.8059 552.6239,473.436 557.8574,469.7203 562.7118,465.5215 567.3893,460.5918 571.3277,455.5239 574.9495,449.7739 577.8195,444.0329 580.2455,437.6851 581.936,431.4934 583.0723,424.7934 583.5178,418.3906 583.3204,411.5978 582.5038,405.2316 580.9803,398.609 578.9331,392.5259 576.1425,386.3297 572.944,380.7651 568.9943,375.2352 564.5054,370.1332"/>
    <polygon points="556.9752,357.9741 551.1966,354.3944 545.1043,351.3792 538.3942,348.8389 531.4633,346.9834 524.7569,345.8742 517.9754,345.4065 510.8035,345.6132 504.0602,346.4708 497.0649,348.0658 490.2644,350.3534 483.7273,353.3106 477.8366,356.7029 471.9979,360.8728 466.6061,365.6065 461.9596,370.568 457.8049,375.9481 453.9943,382.0275 450.963,388.1117 448.405,394.8152 446.5312,401.7411 445.4044,408.4446 444.9107,415.6025 445.1066,422.3972 446.0117,429.5148 447.5229,436.1423 449.6561,442.5965 452.5614,449.1568 456.1091,455.3932 460.2636,461.243 464.9831,466.6473 469.9323,471.3068 475.6111,475.6922 481.3707,479.3024 487.7927,482.5019 494.1436,484.9254 501.0645,486.8175 507.765,487.962 514.5439,488.4655 521.7168,488.2967 528.8368,487.4103 535.8322,485.8152 542.6326,483.5277 548.8333,480.7424 554.7418,477.3812 560.6025,473.2422 566.0192,468.537 570.9374,463.313 575.3077,457.6227 578.9027,451.8536 582.0853,445.4232 584.492,439.0659 586.3658,432.14 587.4926,425.4365 587.9783,418.6563 587.7905,411.4838 586.9507,404.7383 585.3741,397.7388 583.1045,390.9323 580.1646,384.3874 576.584,378.1698 572.3987,372.3421 567.914,367.2338 562.677,362.3294"/>
    <polygon points="548.6835,359.9661 542.9492,357.0833 536.9602,354.7759 530.7739,353.066 524.45,351.9702 518.0492,351.4989 511.6329,351.6567 505.263,352.442 499.0006,353.8474 492.9059,355.8593 487.0375,358.4583 481.4519,361.6196 476.2027,365.3126 471.3403,369.5019 466.9116,374.1472 462.959,379.2039 459.3352,384.9524 456.4772,390.6991 454.1957,396.6981 452.5126,402.8916 451.4441,409.2202 451.0005,415.6231 451.1861,422.0386 451.999,428.405 453.4315,434.6613 455.4697,440.7472 458.0941,446.6043 461.2795,452.1762 464.9952,457.4094 469.2055,462.2536 473.87,466.6622 478.9437,470.5928 484.378,474.0077 490.1206,476.874 496.1163,479.1641 502.3074,480.8561 508.6345,481.9337 515.0366,482.3866 521.4524,482.2103 527.82,481.4065 534.0784,479.9831 540.1672,477.9536 546.0281,475.3377 551.6046,472.1603 556.8431,468.4522 561.6934,464.2489 566.1087,459.5908 570.0466,454.5227 573.4693,449.0933 576.3439,443.3549 578.6427,437.3625 580.3436,431.1738 581.4304,424.8483 581.8924,418.4468 581.7254,412.0308 580.9308,405.662 579.5164,399.4016 577.4958,393.3099 574.8882,387.4452 571.719,381.8642 568.0184,376.6203 563.822,371.764 559.1703,367.3419 554.1079,363.3967"/>
    <polygon points="543.3296,355.92 536.9777,353.5004 530.4125,351.7401 524.0777,350.6994 517.6721,350.2727 511.2552,350.464 504.8865,351.2715 498.6249,352.6878 492.5285,354.6996 486.3163,357.4582 480.7358,360.6316 475.1888,364.5599 470.3427,368.7705 465.6783,373.7145 461.7567,378.7973 458.3421,384.2336 455.3143,390.319 453.0375,396.3215 451.3485,402.5151 450.263,408.8424 449.7825,415.6225 449.9647,422.0397 450.8292,428.7815 452.2721,435.0371 454.4478,441.4765 457.0947,447.3252 460.2918,452.8922 464.0095,458.126 468.4748,463.2506 473.1506,467.6494 478.2278,471.5782 483.6593,475.0006 489.3947,477.8847 495.7397,480.3223 501.9309,482.02 508.2567,483.1145 515.036,483.6046 521.4535,483.4315 527.8245,482.642 534.4541,481.1425 540.5448,479.1134 546.7491,476.3373 552.6385,472.944 557.8564,469.2041 562.6905,464.9798 567.3409,460.0226 571.4625,454.6176 574.8308,449.1525 577.6579,443.3888 579.9177,437.3799 581.6687,430.8122 582.7004,424.4759 583.118,418.0697 582.9176,411.6531 582.034,404.9137 580.5734,398.6623 578.3794,392.229 575.716,386.3879 572.5031,380.8299 568.7707,375.6067 564.2909,370.4948 559.6026,366.1092 554.5143,362.1948 549.0731,358.7879"/>
    <polygon points="510.6541,345.218 503.5416,346.1513 496.9207,347.6847 490.1221,349.9732 483.9216,352.7556 477.6924,356.3132 471.8485,360.4734 466.7201,364.9329 461.7889,370.1427 457.6177,375.5082 453.7847,381.5718 450.5745,387.9868 448.019,394.6896 446.225,401.2448 445.0111,408.3148 444.516,415.0929 444.6894,422.2642 445.5761,429.3827 447.1671,436.3775 449.3099,442.827 452.221,449.3832 455.7704,455.617 459.6899,461.1691 464.3757,466.6007 469.579,471.5387 475.2481,475.934 481.3267,479.7431 487.4084,482.7765 494.1078,485.3408 501.0293,487.2253 507.729,488.3666 514.8841,488.8798 521.678,488.7065 528.4254,487.8931 535.4304,486.348 542.2469,484.1131 548.8069,481.2106 554.726,477.8711 560.6025,473.7571 566.0402,469.0785 570.9851,463.8817 575.3879,458.2183 579.2049,452.1447 582.2463,446.067 584.8194,439.371 586.713,432.452 587.9083,425.3788 588.3934,418.2218 588.1934,411.4285 587.3533,404.6844 585.7807,397.6855 583.519,390.8779 580.5907,384.3294 577.0249,378.1049 572.8571,372.2665 568.1287,366.872 563.1746,362.2196 557.8036,358.0554 551.735,354.2304 545.3157,351.0286 538.6096,348.4819 531.6832,346.6155 524.6054,345.4481 517.4465,344.9912"/>
    <polygon points="497.8853,351.6305 491.7986,353.6763 485.5953,356.4586 480.0197,359.6437 474.4722,363.5741 469.6185,367.7782 464.9366,372.708 460.7713,378.0813 457.3493,383.5149 454.3028,389.5928 451.8794,395.9449 450.1847,402.1386 449.0366,408.8396 448.5644,415.6219 448.7729,422.4174 449.5929,428.7862 451.1127,435.4128 453.2877,441.8543 455.9237,447.7096 459.3042,453.6082 463.0237,458.8426 467.4821,463.9754 472.1444,468.3908 477.2029,472.3461 482.9406,475.9931 489.0143,479.0481 495.3631,481.4804 501.9232,483.2655 508.2538,484.3411 515.0354,484.8227 521.4545,484.6526 528.2011,483.8125 534.8299,482.3019 540.9223,480.2732 547.1333,477.5081 552.7178,474.3385 558.2762,470.4236 563.4152,465.9724 568.0833,461.0295 572.2336,455.6447 575.6405,450.2016 578.6701,444.1153 581.0758,437.7564 582.7532,431.5581 583.8827,424.8538 584.336,418.0703 584.1391,411.652 583.2709,404.9089 581.7326,398.2865 579.5398,391.8512 576.8875,386.0032 573.4905,380.114 569.7565,374.89 565.2839,369.7696 560.6093,365.3672 555.5398,361.426 549.7919,357.7949 543.7098,354.7569 537.3543,352.3423 530.7892,350.5754 524.0803,349.4739 517.6727,349.0547 510.8775,349.2726 504.5099,350.1015"/>
    <polygon points="496.025,344.985 489.2243,347.273 482.6742,350.2021 476.4349,353.7454 470.266,358.1027 464.8408,362.7985 459.644,368.2788 455.2427,373.9456 451.2189,380.3371 448.0118,386.7556 445.3167,393.8109 443.4277,400.7331 442.1655,408.1794 441.6678,415.3374 441.8583,422.51 442.7352,429.6315 444.3907,437.0004 446.781,444.1647 449.7101,450.7148 453.2533,456.9542 457.6106,463.123 462.3065,468.5483 467.7868,473.7451 473.4536,478.1464 479.845,482.1702 486.2636,485.3773 493.3189,488.0724 500.6101,490.0423 507.6874,491.2235 514.8453,491.7212 522.018,491.5307 529.5116,490.5888 536.5083,488.9983 543.6727,486.6081 550.2228,483.6789 556.4621,480.1357 562.631,475.7784 568.0562,471.0826 573.2531,465.6022 577.8707,459.6258 581.6781,453.544 584.8853,447.1255 587.5804,440.0701 589.5502,432.779 590.7315,425.7017 591.2363,418.166 591.0096,410.9944 590.0968,403.8774 588.5063,396.8807 586.116,389.7164 583.1869,383.1663 579.6437,376.9269 575.2864,370.758 570.5906,365.3328 565.1102,360.136 559.4434,355.7347 553.052,351.7109 546.6334,348.5038 539.5781,345.8087 532.287,343.8388 525.2096,342.6576 517.674,342.1527 510.5023,342.3794 503.0136,343.3592"/>
    <polygon points="477.5832,355.9014 471.7271,360.0522 466.311,364.7628 461.3883,369.9867 457.0073,375.6727 453.2112,381.7648 450.1884,387.8564 447.6329,394.5641 445.7546,401.492 444.5718,408.5718 444.1036,415.3561 444.3026,422.5314 445.2114,429.6516 446.8212,436.6467 449.1161,443.4479 451.9018,449.6516 455.4602,455.8855 459.6186,461.7362 464.3362,467.1461 469.2794,471.8164 474.9482,476.2196 480.6962,479.8537 487.1051,483.0862 493.8027,485.6679 500.3544,487.4903 507.4232,488.7377 514.5807,489.2786 521.7567,489.1078 528.5079,488.2908 535.5174,486.745 542.3393,484.5124 548.9065,481.6149 555.1543,478.081 561.0212,473.9455 566.4496,469.2491 571.1392,464.3243 575.5646,458.6728 579.4083,452.6107 582.6325,446.1976 585.2054,439.4966 587.1019,432.5737 588.3031,425.4969 588.7973,418.336 588.5796,411.1613 587.7185,404.4156 586.127,397.4163 583.8499,390.6091 580.9095,384.061 577.3349,377.8364 573.1612,371.9966 568.4295,366.599 563.4742,361.9417 557.7939,357.5533 551.7068,353.7492 545.2728,350.567 538.9148,348.1542 532.3583,346.349 525.2863,345.12 518.1274,344.5978 510.9519,344.7874 503.8305,345.6869 496.8333,347.2876 490.0291,349.5736 483.4848,352.5225"/>
    <polygon points="466.1533,364.3516 461.2178,369.5615 456.8195,375.2322 453.0011,381.3086 449.7999,387.7315 447.2469,394.4386 445.4488,400.9956 444.2234,408.0667 443.7006,415.2242 443.8853,422.3983 444.7758,429.5193 446.3634,436.518 448.6326,443.3263 451.5615,449.878 455.1214,456.1093 459.2778,461.9596 463.9903,467.3721 469.213,472.2941 474.8951,476.6776 480.9814,480.4802 487.4127,483.6648 494.1263,486.2004 501.0571,488.0623 508.1375,489.2325 514.921,489.6927 522.0946,489.4893 529.2134,488.5804 536.2079,486.9746 543.0103,484.6877 549.5543,481.7418 555.7764,478.1657 561.6159,473.9941 567.0161,469.2676 571.9245,464.0322 576.2933,458.3387 580.08,452.2425 583.2479,445.8031 585.6501,439.4425 587.5301,432.5166 588.7187,425.4392 589.2043,418.2791 589.0117,411.4828 588.1212,404.3617 586.5336,397.363 584.2644,390.5547 581.3355,384.0031 577.9782,378.0908 573.8522,372.2189 569.1679,366.7821 563.9708,361.833 558.3115,357.42 552.2451,353.5859 545.8304,350.368 539.1301,347.7976 532.2091,345.8996 525.1348,344.6927 517.976,344.1884 511.1792,344.3634 504.0558,345.2354 497.053,346.8048 490.2389,349.0564 483.6796,351.9682 477.4391,355.512 471.578,359.6532"/>
    <polygon points="513.8805,428.5076 519.5614,430.5369 525.9019,431.4668 531.9263,431.1541 538.1364,429.5728 543.5767,426.9663 548.7004,423.1173 552.719,418.6182 555.9674,413.0943 557.9456,407.3953 558.803,401.4241 558.5084,395.3987 556.9457,389.1839 554.3554,383.7358 550.5218,378.6007 546.0348,374.5686 540.5206,371.3037 534.8276,369.3085 528.8589,368.4332 522.8327,368.7098 516.9694,370.1283 511.1574,372.8278 506.0108,376.646 501.9653,381.121 498.8455,386.2841 496.7653,391.9466 495.7785,398.2784 496.0372,404.3054 497.4381,410.173 500.1202,415.993 503.6709,420.8699 508.3858,425.2098"/>
    <line x1="600.1343" x2="338.981" y1="543.9001" y2="499.6584"/>
    <line x1="331.3388" x2="330.5598" y1="497.2983" y2="498.4402"/>
    <line x1="330.2476" x2="331.8057" y1="498.2272" y2="495.9434"/>
    <line x1="332.2725" x2="329.9354" y1="494.5885" y2="498.0142"/>
    <line x1="329.6232" x2="332.7393" y1="497.8012" y2="493.2336"/>
    <line x1="333.2062" x2="329.311" y1="491.8787" y2="497.5882"/>
    <line x1="328.9988" x2="333.673" y1="497.3752" y2="490.5238"/>
    <line x1="334.1398" x2="328.6865" y1="489.1689" y2="497.1622"/>
    <line x1="328.3743" x2="334.6067" y1="496.9492" y2="487.814"/>
    <line x1="335.0735" x2="328.0621" y1="486.4591" y2="496.7362"/>
    <line x1="327.7499" x2="335.5403" y1="496.5232" y2="485.1042"/>
    <line x1="336.0072" x2="327.4377" y1="483.7493" y2="496.3102"/>
    <line x1="327.1255" x2="336.474" y1="496.0972" y2="482.3944"/>
    <line x1="336.1618" x2="326.8133" y1="482.1814" y2="495.8842"/>
    <line x1="326.5011" x2="335.0705" y1="495.6712" y2="483.1103"/>
    <line x1="333.9793" x2="326.1889" y1="484.0392" y2="495.4582"/>
    <line x1="325.8767" x2="332.8881" y1="495.2452" y2="484.9681"/>
    <line x1="331.7968" x2="325.5645" y1="485.897" y2="495.0322"/>
    <line x1="325.2523" x2="330.7056" y1="494.8192" y2="486.8259"/>
    <line x1="329.6143" x2="324.9401" y1="487.7548" y2="494.6062"/>
    <line x1="324.6279" x2="328.5231" y1="494.3932" y2="488.6837"/>
    <line x1="327.4318" x2="324.3157" y1="489.6126" y2="494.1802"/>
    <line x1="324.0034" x2="326.3406" y1="493.9672" y2="490.5415"/>
    <line x1="325.2493" x2="323.6912" y1="491.4704" y2="493.7542"/>
    <line x1="323.379" x2="324.1581" y1="493.5412" y2="492.3993"/>
    <polygon points="336.7074,481.717 323.0668,493.3282 330.872,498.6532"/>
    <polygon points="349.5858,467.3617 355.1929,466.5692 361.0588,465.1294 366.3955,463.2355 371.5236,460.8334 376.3948,457.9457 380.9632,454.5994 385.1858,450.8262 389.0229,446.6616 392.4383,442.1446 395.3999,437.318 398.0275,431.8794 399.968,426.5595 401.3838,421.0765 402.2615,415.4821 402.593,409.829 402.3751,404.1704 401.6099,398.5595 400.3044,393.0492 398.3306,387.3408 395.9534,382.2011 393.0893,377.3159 389.5281,372.4375 385.748,368.221 381.5772,364.3906 377.0547,360.9825 372.2233,358.0287 367.1284,355.5571 361.4574,353.4781 355.9721,352.0712 350.3763,351.2025 344.7227,350.8801 338.6883,351.1418 333.0838,351.9525 327.5843,353.3024 322.2414,355.179 317.1056,357.5644 312.2251,360.4364 307.6459,363.7679 303.142,367.7924 299.3184,371.9695 295.9176,376.4974 292.7921,381.6659 290.3617,386.7806 288.4385,392.1069 287.0404,397.5944 286.1807,403.1916 285.8675,408.8458 286.139,414.8797 286.9587,420.4829 288.3175,425.9802 290.2027,431.32 292.7737,436.7856 295.685,441.6427 299.0534,446.1948 302.8471,450.3991 307.0303,454.2159 311.5637,457.6093 316.4047,460.5475 321.5076,463.0027 326.8244,464.9518 332.6751,466.4524 338.2736,467.303 343.9283,467.6071"/>
    <polygon points="270.7372,415.1996 270.9358,418.5805 271.7901,421.8576 273.2674,424.9051 275.3108,427.6058 277.8418,429.856 280.7631,431.5692 283.9626,432.6795 287.3172,433.1444 290.6981,432.9458 293.9752,432.0915 297.0227,430.6142 299.7234,428.5708 301.9736,426.0398 303.6868,423.1184 304.7971,419.919 305.262,416.5644 305.0634,413.1835 304.2091,409.9064 302.7318,406.8589 300.6884,404.1582 298.1574,401.908 295.236,400.1948 292.0366,399.0844 288.682,398.6196 285.3011,398.8182 282.024,399.6725 278.9765,401.1498 276.2758,403.1932 274.0256,405.7242 272.3124,408.6455 271.202,411.845"/>
    <line x1="253.9623" x2="254.6787" y1="333.6976" y2="332.4138"/>
    <line x1="255.0641" x2="253.6312" y1="330.9453" y2="333.5128"/>
    <line x1="253.3002" x2="255.4495" y1="333.3281" y2="329.4768"/>
    <line x1="255.8349" x2="252.9692" y1="328.0083" y2="333.1434"/>
    <line x1="252.6381" x2="256.2203" y1="332.9586" y2="326.5398"/>
    <line x1="256.6057" x2="252.3071" y1="325.0713" y2="332.7739"/>
    <line x1="251.9761" x2="256.9911" y1="332.5891" y2="323.6028"/>
    <line x1="255.998" x2="250.9829" y1="323.0486" y2="332.0349"/>
    <line x1="250.6519" x2="254.9505" y1="331.8502" y2="324.1476"/>
    <line x1="253.903" x2="250.3209" y1="325.2466" y2="331.6654"/>
    <line x1="249.9898" x2="252.8556" y1="331.4807" y2="326.3456"/>
    <line x1="251.8081" x2="249.6588" y1="327.4446" y2="331.2959"/>
    <line x1="249.3277" x2="250.7606" y1="331.1112" y2="328.5437"/>
    <line x1="249.7131" x2="248.9967" y1="329.6427" y2="330.9264"/>
    <polygon points="248.6657,330.7417 254.2933,333.8823 257.5692,321.4"/>
    <line x1="251.314" x2="257.0454" y1="332.2196" y2="321.9495"/>
    <line x1="257.3765" x2="251.645" y1="322.1343" y2="332.4044"/>
    <polygon points="180.6525,482.9642 172.7517,482.025 176.1668,486.9985"/>
    <line x1="180.2763" x2="180.2253" y1="482.9195" y2="483.3484"/>
    <line x1="179.7981" x2="179.9001" y1="483.7326" y2="482.8748"/>
    <line x1="179.5239" x2="179.3709" y1="482.83" y2="484.1169"/>
    <line x1="178.9437" x2="179.1476" y1="484.5011" y2="482.7853"/>
    <line x1="178.7714" x2="178.5165" y1="482.7406" y2="484.8853"/>
    <line x1="178.0892" x2="178.3952" y1="485.2695" y2="482.6959"/>
    <line x1="178.0189" x2="177.662" y1="482.6512" y2="485.6537"/>
    <line x1="177.2348" x2="177.6427" y1="486.0379" y2="482.6064"/>
    <line x1="177.2665" x2="176.8076" y1="482.5617" y2="486.4221"/>
    <line x1="176.3804" x2="176.8903" y1="486.8064" y2="482.517"/>
    <line x1="176.514" x2="176.0041" y1="482.4723" y2="486.7616"/>
    <line x1="175.6789" x2="176.1378" y1="486.288" y2="482.4275"/>
    <line x1="175.7616" x2="175.3537" y1="482.3828" y2="485.8143"/>
    <line x1="175.0284" x2="175.3853" y1="485.3407" y2="482.3381"/>
    <line x1="175.0091" x2="174.7032" y1="482.2934" y2="484.867"/>
    <line x1="174.3779" x2="174.6329" y1="484.3933" y2="482.2486"/>
    <line x1="174.2567" x2="174.0527" y1="482.2039" y2="483.9197"/>
    <line x1="173.7275" x2="173.8804" y1="483.446" y2="482.1592"/>
    <line x1="173.5042" x2="173.4022" y1="482.1145" y2="482.9723"/>
    <line x1="173.077" x2="173.128" y1="482.4987" y2="482.0697"/>
    <line x1="166.7112" x2="156.3455" y1="497.7293" y2="476.3687"/>
    <line x1="156.0114" x2="176.7428" y1="476.5308" y2="519.252"/>
    <line x1="173.7358" x2="153.0043" y1="520.7112" y2="477.9901"/>
    <line x1="152.6702" x2="163.0359" y1="478.1522" y2="499.5128"/>
    <line x1="153.3384" x2="184.4356" y1="477.8279" y2="541.9097"/>
    <line x1="186.7745" x2="155.6772" y1="540.7747" y2="476.693"/>
    <line x1="155.3431" x2="196.8061" y1="476.8551" y2="562.2974"/>
    <line x1="195.1355" x2="153.6725" y1="563.1081" y2="477.6658"/>
    <line x1="154.0066" x2="205.8354" y1="477.5037" y2="584.3065"/>
    <line x1="206.8377" x2="155.009" y1="583.8201" y2="477.0173"/>
    <line x1="154.6749" x2="216.8693" y1="477.1794" y2="605.3428"/>
    <line x1="216.5352" x2="154.3408" y1="605.505" y2="477.3415"/>
    <line x1="208.0015" x2="191.2004" y1="550.8348" y2="643.3738"/>
    <line x1="190.8227" x2="202.0234" y1="643.3052" y2="581.6125"/>
    <line x1="203.1566" x2="191.9559" y1="581.8183" y2="643.5109"/>
    <line x1="192.3337" x2="197.934" y1="643.5795" y2="612.7332"/>
    <line x1="196.0453" x2="190.4449" y1="612.3903" y2="643.2366"/>
    <polygon points="190.0672,643.168 192.7114,643.6481 210.9906,535.4459"/>
    <line x1="191.5782" x2="208.3793" y1="643.4424" y2="550.9034"/>
    <polygon points="221.8851,616.1042 156.6796,476.2066 152.3361,478.3144"/>
    <line x1="275.1588" x2="301.247" y1="619.0255" y2="631.553"/>
    <line x1="302.9099" x2="276.8217" y1="628.0901" y2="615.5626"/>
    <line x1="276.6554" x2="328.8318" y1="615.9089" y2="640.9638"/>
    <line x1="327.5015" x2="275.3251" y1="643.7341" y2="618.6792"/>
    <line x1="275.4914" x2="353.756" y1="618.3329" y2="655.9153"/>
    <line x1="354.7538" x2="276.4891" y1="653.8376" y2="616.2552"/>
    <line x1="276.3229" x2="380.6757" y1="616.6015" y2="666.7113"/>
    <line x1="380.0105" x2="275.6577" y1="668.0965" y2="617.9866"/>
    <line x1="275.824" x2="406.265" y1="617.6403" y2="680.2777"/>
    <line x1="406.5976" x2="276.1566" y1="679.5851" y2="616.9478"/>
    <line x1="275.9903" x2="432.5195" y1="617.294" y2="692.4588"/>
    <polygon points="432.5195,692.4588 276.988,615.2163 274.9926,619.3718"/>
    <line x1="441.0708" x2="395.1137" y1="683.9085" y2="792.1366"/>
    <line x1="394.7589" x2="429.2267" y1="791.986" y2="710.8149"/>
    <line x1="431.3555" x2="396.8876" y1="711.7188" y2="792.8899"/>
    <line x1="396.5328" x2="442.49" y1="792.7393" y2="684.5111"/>
    <line x1="421.2097" x2="451.8683" y1="704.5978" y2="716.0127"/>
    <line x1="450.6689" x2="420.0102" y1="719.2343" y2="707.8194"/>
    <polygon points="419.8769,708.1773 589.2325,768.9907 421.343,704.2399"/>
    <line x1="420.1435" x2="481.4608" y1="707.4614" y2="730.2913"/>
    <line x1="482.3937" x2="421.0764" y1="727.7856" y2="704.9558"/>
    <line x1="420.9431" x2="512.9191" y1="705.3137" y2="739.5585"/>
    <line x1="512.2527" x2="420.2768" y1="741.3483" y2="707.1035"/>
    <line x1="420.41" x2="543.0446" y1="706.7455" y2="752.4053"/>
    <line x1="543.4444" x2="420.8099" y1="751.3314" y2="705.6717"/>
    <line x1="420.6766" x2="573.9698" y1="706.0296" y2="763.1043"/>
    <line x1="573.8365" x2="420.5433" y1="763.4622" y2="706.3876"/>
    <line x1="417.3827" x2="394.4041" y1="737.7213" y2="791.8353"/>
    <line x1="394.0493" x2="405.5386" y1="791.6847" y2="764.6277"/>
    <line x1="409.0864" x2="397.5972" y1="766.1342" y2="793.1912"/>
    <line x1="397.2424" x2="420.221" y1="793.0406" y2="738.9265"/>
    <polygon points="429.5684,753.8179 424.5046,755.3144 419.8186,757.748 415.4116,761.2935 412.0309,765.3497 409.4846,769.9755 407.7878,775.3712 407.2268,780.9995 407.7494,786.2538 409.2632,791.3125 411.9215,796.305 415.2734,800.385 419.3411,803.7518 423.9756,806.2822 429.3771,807.9605 435.0072,808.5023 440.2598,807.9617 445.3132,806.4306 449.9825,803.9649 454.0966,800.6551 457.718,796.3102 460.2325,791.667 461.8923,786.2599 462.4161,781.0056 461.9295,775.7478 460.4503,770.6789 457.8263,765.6683 454.5023,761.5655 450.1451,757.959 445.4933,755.4604 440.0805,753.8191 434.8245,753.3133"/>
    <line x1="420.863" x2="393.9533" y1="756.718" y2="762.601"/>
    <line x1="394.025" x2="447.8443" y1="762.9286" y2="751.1626"/>
    <polygon points="447.8443,751.1626 393.8817,762.2735 394.1682,763.5837"/>
    <line x1="449.84" x2="476.8114" y1="750.1116" y2="737.5392"/>
    <line x1="476.9751" x2="423.0323" y1="737.8903" y2="763.0352"/>
    <line x1="423.687" x2="477.6298" y1="764.4398" y2="739.2949"/>
    <line x1="477.7935" x2="450.8221" y1="739.646" y2="752.2185"/>
    <polygon points="477.9572,739.9972 476.6477,737.188 369.4169,788.8824"/>
    <line x1="477.4661" x2="396.552" y1="738.9438" y2="776.6611"/>
    <line x1="396.2246" x2="477.1387" y1="775.9588" y2="738.2415"/>
    <line x1="477.3024" x2="369.4169" y1="738.5926" y2="788.8824"/>
    <polygon points="383.9757,788.354 385.3004,796.9991 390.6376,794.0206"/>
    <line x1="383.9757" x2="387.969" y1="788.354" y2="795.5098"/>
    <line x1="388.3026" x2="384.8084" y1="795.3237" y2="789.0623"/>
    <line x1="384.1413" x2="387.6354" y1="789.4346" y2="795.696"/>
    <line x1="387.3018" x2="384.3068" y1="795.8821" y2="790.5153"/>
    <line x1="384.4724" x2="386.9683" y1="791.5959" y2="796.0683"/>
    <line x1="386.6347" x2="384.638" y1="796.2544" y2="792.6765"/>
    <line x1="384.8036" x2="386.3011" y1="793.7572" y2="796.4406"/>
    <line x1="385.9675" x2="384.9692" y1="796.6268" y2="794.8378"/>
    <line x1="385.1348" x2="385.6339" y1="795.9184" y2="796.8129"/>
    <line x1="388.6362" x2="385.6412" y1="795.1375" y2="789.7706"/>
    <line x1="386.4739" x2="388.9697" y1="790.479" y2="794.9514"/>
    <line x1="389.3033" x2="387.3067" y1="794.7652" y2="791.1873"/>
    <line x1="388.1394" x2="389.6369" y1="791.8956" y2="794.579"/>
    <line x1="389.9705" x2="388.9722" y1="794.3929" y2="792.6039"/>
    <line x1="389.8049" x2="390.3041" y1="793.3122" y2="794.2067"/>
    <polygon points="393.6945,791.534 397.9519,793.3419 464.759,630.0958"/>
    <line x1="395.4684" x2="452.9149" y1="792.2873" y2="657.0021"/>
    <line x1="453.6245" x2="396.178" y1="657.3035" y2="792.5886"/>
    <line x1="395.8232" x2="464.759" y1="792.438" y2="630.0958"/>
    <polygon points="516.1866,641.104 615.529,608.101 556.1839,429.4664 456.8415,462.4693"/>
    <line x1="421.0062" x2="394.0966" y1="757.3731" y2="763.2561"/>
    <polygon points="383.3811,806.709 414.7961,818.5752 427.6275,784.6047 396.2126,772.7386"/>
    <line x1="390.5452" x2="404.9401" y1="819.8942" y2="816.1894"/>
    <line x1="405.0336" x2="388.8393" y1="816.5525" y2="820.7204"/>
    <line x1="387.1334" x2="405.127" y1="821.5466" y2="816.9156"/>
    <line x1="405.2205" x2="385.4275" y1="817.2787" y2="822.3729"/>
    <line x1="385.6144" x2="405.4074" y1="823.0991" y2="818.0049"/>
    <line x1="405.3139" x2="383.7215" y1="817.6418" y2="823.1991"/>
    <line x1="387.5072" x2="405.5008" y1="822.999" y2="818.368"/>
    <line x1="405.5943" x2="389.4" y1="818.7311" y2="822.899"/>
    <line x1="391.2928" x2="405.6877" y1="822.799" y2="819.0942"/>
    <line x1="405.7812" x2="393.1856" y1="819.4573" y2="822.699"/>
    <line x1="395.0785" x2="405.8746" y1="822.599" y2="819.8204"/>
    <line x1="405.9681" x2="396.9713" y1="820.1835" y2="822.499"/>
    <line x1="398.8641" x2="406.0615" y1="822.399" y2="820.5466"/>
    <line x1="406.155" x2="400.7569" y1="820.9097" y2="822.299"/>
    <line x1="402.6497" x2="406.2484" y1="822.199" y2="821.2728"/>
    <line x1="406.3419" x2="404.5425" y1="821.6359" y2="822.099"/>
    <line x1="404.8467" x2="392.2511" y1="815.8263" y2="819.068"/>
    <line x1="393.957" x2="404.7532" y1="818.2418" y2="815.4632"/>
    <line x1="404.6598" x2="395.6629" y1="815.1001" y2="817.4156"/>
    <line x1="397.3688" x2="404.5663" y1="816.5894" y2="814.737"/>
    <line x1="404.4728" x2="399.0748" y1="814.3738" y2="815.7632"/>
    <line x1="400.7807" x2="404.3794" y1="814.937" y2="814.0107"/>
    <line x1="404.2859" x2="402.4866" y1="813.6476" y2="814.1108"/>
    <polygon points="404.1925,813.2845 383.7215,823.1991 406.4354,821.999"/>
    <line x1="438.6391" x2="509.2597" y1="793.2442" y2="844.5459"/>
    <polygon points="527.9475,830.0902 553.2324,817.3909 546.5944,808.8089"/>
    <line x1="528.8194" x2="550.0279" y1="829.6523" y2="813.2479"/>
    <line x1="549.799" x2="528.5905" y1="812.9519" y2="829.3564"/>
    <line x1="529.8765" x2="549.5701" y1="827.8887" y2="812.656"/>
    <line x1="549.3412" x2="531.1624" y1="812.3601" y2="826.421"/>
    <line x1="532.3069" x2="550.4857" y1="827.9007" y2="813.8397"/>
    <line x1="550.2568" x2="530.5631" y1="813.5438" y2="828.7765"/>
    <line x1="534.0507" x2="550.7146" y1="827.0249" y2="814.1356"/>
    <line x1="550.9435" x2="535.7945" y1="814.4316" y2="826.149"/>
    <line x1="537.5383" x2="551.1724" y1="825.2732" y2="814.7275"/>
    <line x1="551.4013" x2="539.2821" y1="815.0234" y2="824.3974"/>
    <line x1="541.0259" x2="551.6302" y1="823.5216" y2="815.3194"/>
    <line x1="551.8591" x2="542.7697" y1="815.6153" y2="822.6458"/>
    <line x1="544.5135" x2="552.088" y1="821.77" y2="815.9112"/>
    <line x1="552.3169" x2="546.2573" y1="816.2072" y2="820.8941"/>
    <line x1="548.0011" x2="552.5457" y1="820.0183" y2="816.5031"/>
    <line x1="552.7746" x2="549.7449" y1="816.799" y2="819.1425"/>
    <line x1="551.4886" x2="553.0035" y1="818.2667" y2="817.0949"/>
    <line x1="549.1123" x2="532.4484" y1="812.0641" y2="824.9534"/>
    <line x1="533.7344" x2="548.8834" y1="823.4857" y2="811.7682"/>
    <line x1="548.6545" x2="535.0204" y1="811.4723" y2="822.018"/>
    <line x1="536.3064" x2="548.4256" y1="820.5503" y2="811.1763"/>
    <line x1="548.1967" x2="537.5924" y1="810.8804" y2="819.0826"/>
    <line x1="538.8784" x2="547.9678" y1="817.615" y2="810.5845"/>
    <line x1="547.7389" x2="540.1644" y1="810.2886" y2="816.1473"/>
    <line x1="541.4504" x2="547.51" y1="814.6796" y2="809.9926"/>
    <line x1="547.2811" x2="542.7364" y1="809.6967" y2="813.2119"/>
    <line x1="544.0224" x2="547.0522" y1="811.7443" y2="809.4008"/>
    <line x1="546.8233" x2="545.3084" y1="809.1048" y2="810.2766"/>
    <polygon points="333.1337,802.5385 332.1196,798.4572 328.9812,803.2035"/>
    <line x1="332.8568" x2="330.4458" y1="802.5829" y2="800.9886"/>
    <line x1="330.655" x2="333.0661" y1="800.6722" y2="802.2664"/>
    <line x1="332.9308" x2="330.8642" y1="801.7223" y2="800.3558"/>
    <line x1="331.0735" x2="332.7956" y1="800.0393" y2="801.1781"/>
    <line x1="332.6604" x2="331.2827" y1="800.6339" y2="799.7229"/>
    <line x1="331.4919" x2="332.5252" y1="799.4065" y2="800.0898"/>
    <line x1="332.39" x2="331.7011" y1="799.5456" y2="799.0901"/>
    <line x1="331.9104" x2="332.2548" y1="798.7737" y2="799.0014"/>
    <line x1="330.2365" x2="332.3032" y1="801.305" y2="802.6715"/>
    <line x1="331.7495" x2="330.0273" y1="802.7602" y2="801.6214"/>
    <line x1="329.8181" x2="331.1958" y1="801.9379" y2="802.8489"/>
    <line x1="330.6422" x2="329.6089" y1="802.9375" y2="802.2543"/>
    <line x1="329.3996" x2="330.0885" y1="802.5707" y2="803.0262"/>
    <line x1="329.5349" x2="329.1904" y1="803.1149" y2="802.8871"/>
    <line x1="279.9846" x2="264.2909" y1="771.1422" y2="788.6469"/>
    <polygon points="264.5404,788.8706 295.4288,753.4137 263.5421,787.9756"/>
    <line x1="264.0413" x2="295.4288" y1="788.4231" y2="753.4137"/>
    <line x1="279.4854" x2="263.7917" y1="770.6947" y2="788.1994"/>
    <polygon points="264.9482,702.1677 266.9947,697.7122 268.1281,692.9419 268.3044,688.042 267.5168,683.2026 265.7959,678.6114 263.2084,674.4467 259.8547,670.8699 255.865,668.02 251.394,666.0074 246.6153,664.9102 241.7142,664.7711 236.8809,665.5954 232.3029,667.3511 228.4576,669.7401 224.8555,673.0666 221.9754,677.0346 219.9289,681.4901 218.7955,686.2604 218.6192,691.1603 219.4068,695.9997 221.1277,700.5909 223.7152,704.7556 227.0689,708.3324 231.0586,711.1823 235.5296,713.1949 240.3084,714.2921 245.2095,714.4312 250.0428,713.6069 254.6207,711.8512 258.466,709.4622 262.0681,706.1357"/>
    <polygon points="309.535,587.2766 321.8758,581.6866 308.7878,578.187"/>
    <line x1="309.5039" x2="310.5634" y1="586.8978" y2="586.8107"/>
    <line x1="311.5918" x2="309.4727" y1="586.3449" y2="586.5191"/>
    <line x1="309.4416" x2="312.6202" y1="586.1404" y2="585.8791"/>
    <line x1="313.6486" x2="309.4105" y1="585.4132" y2="585.7616"/>
    <line x1="309.3793" x2="314.677" y1="585.3829" y2="584.9474"/>
    <line x1="315.7054" x2="309.3482" y1="584.4816" y2="585.0042"/>
    <line x1="309.3171" x2="316.7338" y1="584.6254" y2="584.0158"/>
    <line x1="317.7622" x2="309.2859" y1="583.5499" y2="584.2467"/>
    <line x1="309.2548" x2="318.7906" y1="583.868" y2="583.0841"/>
    <line x1="319.819" x2="309.2237" y1="582.6183" y2="583.4892"/>
    <line x1="309.1925" x2="320.8474" y1="583.1105" y2="582.1524"/>
    <line x1="320.7851" x2="309.1303" y1="581.395" y2="582.353"/>
    <line x1="309.1614" x2="321.8758" y1="582.7318" y2="581.6866"/>
    <line x1="319.6945" x2="309.0991" y1="581.1033" y2="581.9743"/>
    <line x1="309.068" x2="318.6038" y1="581.5956" y2="580.8117"/>
    <line x1="317.5131" x2="309.0369" y1="580.5201" y2="581.2168"/>
    <line x1="309.0057" x2="316.4225" y1="580.8381" y2="580.2284"/>
    <line x1="315.3318" x2="308.9746" y1="579.9368" y2="580.4594"/>
    <line x1="308.9435" x2="314.2411" y1="580.0806" y2="579.6452"/>
    <line x1="313.1505" x2="308.9123" y1="579.3535" y2="579.7019"/>
    <line x1="308.8812" x2="312.0598" y1="579.3232" y2="579.0619"/>
    <line x1="310.9691" x2="308.8501" y1="578.7702" y2="578.9444"/>
    <line x1="308.8189" x2="309.8785" y1="578.5657" y2="578.4786"/>
    <polygon points="320.2858,867.8404 322.6011,863.1037 323.9568,858.0087 324.3015,852.7477 323.6223,847.5194 321.9449,842.521 319.3325,837.9415 315.8838,833.9536 311.729,830.7079 307.025,828.3269 301.5775,826.8369 296.3165,826.4922 291.0882,827.1713 286.0899,828.8488 281.5103,831.4612 277.2643,835.1849 274.0767,839.3844 271.7614,844.1211 270.4057,849.2161 270.061,854.4771 270.7402,859.7055 272.4176,864.7038 275.03,869.2833 278.7538,873.5293 282.9533,876.717 287.6899,879.0323 292.785,880.3879 298.0459,880.7326 303.6412,879.9662 308.6158,878.2195 313.1586,875.5437 317.0981,872.0399"/>
  </g>
</svg>
