<?xml version="1.0" encoding="utf-8" ?>
<svg xmlns="http://www.w3.org/2000/svg" xmlns:cc="http://creativecommons.org/ns" xmlns:dc="http://purl.org/dc/elements/1.1/" xmlns:ev="http://www.w3.org/2001/xml-events" xmlns:inkscape="http://www.inkscape.org/namespaces/inkscape" xmlns:rdf="http://www.w3.org/1999/02/22-rdf-syntax-ns" xmlns:sodipodi="http://sodipodi.sourceforge.net/DTD/sodipodi-0.dtd" xmlns:xlink="http://www.w3.org/1999/xlink" baseProfile="tiny" height="29.7cm" version="1.2" viewBox="0 0 793.7007874015749 1122.5196850393702" width="21.0cm">
  <metadata>
    <rdf:RDF>
      <cc:Work>
        <dc:format>image/svg+xml</dc:format>
        <dc:source>vsk save -s 45 -c C:\Users\marti\Documents\git\putti-plotter-plot\sixfeet\config\1.json C:\Users\marti\Documents\git\putti-plotter-plot\sixfeet\sketch_sixfeet.py</dc:source>
        <dc:date>2023-11-19T17:46:25.253543</dc:date>
      </cc:Work>
    </rdf:RDF>
  </metadata>
  <defs/>
  <g fill="none" id="layer1" inkscape:groupmode="layer" inkscape:label="1" stroke="#0000ff" style="display:inline">
    <polygon points="543.0091,358.8101 541.0889,357.0088 538.8455,355.6308 536.7345,354.8299 534.1416,354.3731 531.5098,354.4475 528.9469,355.0503 526.5578,356.1565 524.7227,357.4718 522.9075,359.3788 521.6843,361.2765 520.6972,363.7173 520.2216,366.3068 520.277,368.9391 520.8611,371.5063 521.9501,373.9034 523.4993,376.0322 525.1459,377.577 527.3691,378.9873 529.8308,379.9212 532.0543,380.3129 534.6868,380.2766 536.8987,379.8236 539.3336,378.8221 541.5171,377.3509 543.3597,375.4704 544.7861,373.2574 545.7378,370.8025 546.1758,368.2064 546.0823,365.5752 545.4611,363.0167 544.3375,360.6357"/>
    <line x1="531.6417" x2="415.0241" y1="354.2396" y2="449.9358"/>
    <line x1="415.2625" x2="515.2204" y1="450.2262" y2="368.2009"/>
    <line x1="514.0287" x2="414.0708" y1="366.7487" y2="448.774"/>
    <line x1="414.3091" x2="530.9267" y1="449.0644" y2="353.3682"/>
    <polygon points="521.7423,346.4517 522.5719,342.3835 522.9987,338.2535 523.0187,334.1016 522.6317,329.9677 521.8413,325.8917 520.6552,321.9127 519.0848,318.0692 517.1453,314.3981 514.8552,310.9348 512.2367,307.7126 509.315,304.7626 506.1182,302.1132 502.6772,299.7899 499.0249,297.815 495.1967,296.2077 491.2294,294.9833 487.1611,294.1537 483.0312,293.7268 478.8792,293.7068 474.7453,294.0938 470.6693,294.8842 466.6903,296.0703 462.8468,297.6407 459.1757,299.5803 455.7124,301.8703 452.4902,304.4888 449.5402,307.4105 446.8908,310.6073 444.5675,314.0484 442.5927,317.7006 440.9853,321.5288 439.7609,325.4962 438.9313,329.5644 438.5044,333.6944 438.4844,337.8463 438.8715,341.9802 439.6619,346.0562 440.848,350.0352 442.4184,353.8787 444.3579,357.5498 446.648,361.0131 449.2665,364.2353 452.1882,367.1853 455.3849,369.8347 458.826,372.158 462.4783,374.1329 466.3065,375.7402 470.2738,376.9646 474.3421,377.7942 478.472,378.2211 482.624,378.2411 486.7578,377.8541 490.8339,377.0637 494.8128,375.8776 498.6564,374.3072 502.3275,372.3676 505.7908,370.0776 509.0129,367.4591 511.9629,364.5374 514.6124,361.3406 516.9357,357.8995 518.9105,354.2473 520.5179,350.4191"/>
    <polygon points="520.6168,345.9449 521.4193,341.8727 521.8068,337.7403 521.7958,333.9668 521.4386,330.2103 520.6497,326.1355 519.579,322.5171 518.0235,318.6691 516.0878,314.9976 513.7916,311.5401 511.4109,308.6123 508.4945,305.6592 505.5968,303.2421 502.1683,300.9029 498.8609,299.0862 495.0475,297.4476 491.0883,296.202 487.3964,295.4215 483.2719,294.9581 479.1216,294.9131 474.9879,295.2869 470.9131,296.0759 466.9386,297.2718 463.4467,298.702 459.7752,300.6378 456.3177,302.934 453.39,305.3146 450.4368,308.231 447.7929,311.4305 445.4853,314.8804 443.699,318.2043 442.0955,322.0325 440.8864,326.003 440.0839,330.0752 439.7143,333.8305 439.7074,337.9811 440.1192,342.1111 440.8535,345.8124 442.0494,349.7869 443.4797,353.2788 445.2242,356.6248 447.4886,360.1033 450.0922,363.3356 453.0087,366.2887 455.9064,368.7058 459.3349,371.045 462.9819,373.0265 466.8102,374.63 470.7807,375.8392 474.8529,376.6416 478.6082,377.0112 482.7587,377.0181 486.5152,376.661 490.5901,375.872 494.2085,374.8013 498.0565,373.2459 501.728,371.3101 504.8809,369.237 508.1132,366.6333 511.0664,363.7169 513.7102,360.5174 516.0179,357.0675 517.8042,353.7436 519.4076,349.9154"/>
    <polygon points="518.4192,322.8822 517.0114,319.3766 515.0874,315.6936 513.0143,312.5355 510.6516,309.5877 507.7436,306.6196 504.8448,304.1972 501.4074,301.8626 494.6107,298.5819 490.6445,297.3427 486.9446,296.5799 483.1891,296.1706 479.034,296.1331 475.2717,296.4744 471.1912,297.2591 467.2145,298.4641 463.7258,299.9133 460.0659,301.8808 456.9326,303.9912 451.3334,309.0516 448.6917,312.2589 446.5914,315.399 444.7978,318.7239 443.1979,322.5588 442.097,326.1725 441.2869,330.248 440.9149,337.7859 441.3197,341.9214 442.0595,345.626 444.5709,352.743 448.3782,359.2593 450.9769,362.5016 453.6208,365.2 456.8093,367.8645 459.9344,369.987 463.2464,371.8043 467.0698,373.4313 474.372,375.3382 478.5028,375.7884 482.2804,375.8225 486.0443,375.499 490.1284,374.7337 497.263,372.2729 500.9506,370.3577 504.1136,368.2921 507.3497,365.6857 510.0419,363.0354 512.6988,359.8407 514.8139,356.7105 516.7868,353.0535 518.2413,349.5669 519.3593,345.9584 520.1887,341.8868 520.5964,334.3508 519.577,326.8729"/>
    <polygon points="511.9511,313.1402 506.9231,307.5162 500.8986,302.9757 494.1071,299.6915 486.8071,297.7886 479.2765,297.3396 471.8021,298.3615 464.6685,300.8154 461.3151,302.5522 457.8417,304.8303 452.23,309.8721 447.7042,315.9076 444.4366,322.7072 442.5516,330.0118 442.121,337.5434 443.1611,345.0153 445.6325,352.1429 447.5698,355.8172 449.664,358.9598 454.7195,364.5592 457.9364,367.187 461.0904,369.264 467.9293,372.4483 475.2565,374.2439 482.7928,374.5825 490.2514,373.4512 497.3483,370.893 503.8134,367.0053 509.4004,361.9362 513.8966,355.8786 517.131,349.0632 518.9803,341.7494 519.3741,334.2158 518.2974,326.7491 515.7913,319.6336"/>
    <polygon points="513.9873,306.6326 510.8215,303.396 507.6432,300.7268 503.9082,298.1679 499.9317,296.0034 496.1098,294.3849 491.7881,293.0354 487.7244,292.1915 483.5995,291.7313 479.0724,291.6715 474.9369,292.0227 470.4847,292.8449 466.1396,294.1169 462.2893,295.6668 458.2748,297.7599 454.7997,300.0293 451.2691,302.8635 448.0459,306.043 445.3903,309.2326 442.8474,312.9785 440.863,316.6239 439.0976,320.7929 437.7665,325.1203 436.9399,329.1876 436.4972,333.3144 436.4567,337.8417 436.8782,342.3495 437.6667,346.4244 438.9571,350.764 440.6835,354.9494 442.6335,358.6132 445.1412,362.3828 448.0203,365.8769 450.9601,368.8067 454.464,371.6739 457.9177,373.9757 461.5715,375.9445 465.748,377.6922 469.715,378.9125 474.1518,379.8142 478.6574,380.2587 482.8079,380.2605 487.3138,379.8198 491.3853,379.014 495.3636,377.831 499.5563,376.1225 503.2284,374.188 507.0086,371.6964 510.5149,368.8322 513.4572,365.9049 516.1129,362.7153 518.6558,358.9694 520.6402,355.324 522.4056,351.155 523.7367,346.8276 524.5633,342.7603 525.006,338.6335 525.0465,334.1062 524.6777,329.9722 523.8365,325.5235 522.5461,321.1839 520.9798,317.3403 519.061,313.66 516.5855,309.8693"/>
    <polygon points="506.0686,302.5831 502.6386,300.2408 498.9935,298.2495 495.1693,296.6289 491.2034,295.3949 487.1348,294.5595 483.0034,294.131 478.85,294.1136 471.0068,295.2193 467.02,296.3842 463.1681,297.9381 459.489,299.8657 456.0188,302.148 452.7916,304.7627 449.8391,307.684 447.1903,310.8833 444.8712,314.329 442.9047,317.9875 441.31,321.8226 439.3516,329.4975 438.9138,333.6278 438.8871,337.7812 439.2717,341.9168 440.0638,345.9941 442.6762,353.4716 444.5955,357.1551 446.87,360.6304 449.4774,363.8635 452.3921,366.8226 455.5854,369.4786 459.0259,371.8054 466.1567,375.2536 470.117,376.5055 474.1818,377.3592 478.3112,377.8063 482.4645,377.8424 486.601,377.4672 490.68,376.6842 498.1634,374.0886 501.8512,372.1777 505.3316,369.911 508.5706,367.3109 511.5363,364.4029 514.1994,361.2156 516.534,357.7804 518.517,354.1308 520.129,350.3029 522.1219,342.637 522.5783,338.5086 522.6238,334.3554 521.5712,326.5049 520.4332,322.5103 518.9054,318.6481 517.0028,314.956 514.7439,311.4704 512.1512,308.2256 509.2499,305.2534"/>
    <polygon points="501.8071,301.1575 498.1492,299.1929 494.6656,297.7389 490.6965,296.5199 486.9973,295.7681 483.2443,295.3623 479.0924,295.3197 474.9579,295.7004 471.2504,296.4107 467.2679,297.585 463.4258,299.159 459.7641,301.1164 456.6239,303.2115 453.6915,305.5886 450.7357,308.5045 448.3191,311.4045 445.984,314.8377 444.1748,318.1508 442.5489,321.9713 441.3207,325.9375 440.5032,330.0083 440.1235,333.764 440.1099,337.9161 440.5194,342.0479 441.2554,345.7503 442.4574,349.7245 443.8966,353.2143 445.653,356.5557 447.9333,360.0255 450.3035,362.9635 453.2126,365.926 456.4085,368.5767 459.5348,370.6924 462.8436,372.5092 466.6603,374.1441 470.2584,375.2857 474.3194,376.1504 478.4474,376.5968 482.2221,376.6355 486.3584,376.2739 490.4363,375.4927 494.4133,374.2999 497.9064,372.8689 501.5772,370.9285 504.727,368.848 507.9524,366.2334 510.6397,363.5823 513.2977,360.3926 515.4207,357.2713 517.4107,353.6272 519.0189,349.7992 520.1354,346.1933 520.9719,342.1263 521.3895,337.9953 521.4019,334.2205 521.0644,330.4607 520.2927,326.381 519.1092,322.4012 517.6862,318.9048 515.9454,315.5553 513.6812,312.0749 511.0741,308.8434 508.1513,305.8944 505.2457,303.4846"/>
    <polygon points="500.7891,303.3837 494.0128,300.0885 486.7222,298.1853 479.1999,297.7481 471.7378,298.7936 464.6254,301.2814 458.1385,305.115 452.5289,310.1456 448.014,316.1781 444.769,322.9786 442.9199,330.2831 442.522,337.4314 443.5491,344.896 446.0194,352.0145 449.8369,358.5108 454.8537,364.1329 460.5536,368.465 467.3135,371.7936 474.5947,373.7327 482.1147,374.207 489.5819,373.1983 496.7065,370.7456 503.2122,366.9441 508.8466,361.9412 513.3912,355.931 516.6696,349.1467 518.5548,341.8513 518.9735,334.328 517.9096,326.8685 515.5625,320.1049 511.777,313.5898 506.788,307.9431"/>
    <polygon points="499.5285,296.7087 495.7004,295.0977 491.7361,293.8589 487.2986,292.9452 483.1674,292.5171 479.0141,292.4847 474.8767,292.8483 470.4255,293.6926 466.0862,294.9951 462.247,296.5796 458.5762,298.5228 455.1074,300.807 451.8722,303.4115 448.6437,306.59 445.989,309.7842 443.651,313.217 441.4863,317.197 439.8753,321.0252 438.6365,324.9895 437.7228,329.427 437.2947,333.5582 437.2623,337.7114 437.6785,342.2228 438.4703,346.3 439.6471,350.2832 441.1981,354.136 443.3004,358.1493 445.5847,361.6181 448.441,365.1349 451.3676,368.0819 454.5619,370.7365 457.9946,373.0746 461.6346,375.0748 465.8028,376.8502 469.7671,378.089 474.2046,379.0027 478.3358,379.4308 482.489,379.4632 487.0005,379.047 491.0777,378.2553 495.417,376.9528 499.2562,375.3683 502.9269,373.4251 506.7,370.917 509.9125,368.2846 512.8595,365.3579 515.7401,361.861 518.0483,358.4081 520.0169,354.7509 521.6279,350.9227 522.8666,346.9584 523.7219,342.8941 524.2085,338.3897 524.2409,334.2365 523.8246,329.7251 523.0329,325.6479 521.8561,321.6647 520.1459,317.4693 518.2028,313.7986 515.9185,310.3298 513.3141,307.0945 510.1355,303.866 506.9413,301.2114 503.5086,298.8733"/>
    <polygon points="479.1123,298.9682 472.0161,299.9767 465.247,302.3329 461.9021,304.0865 458.7532,306.1716 453.4255,310.9661 449.1208,316.697 446.0004,323.1496 444.1811,330.0823 443.7713,333.8367 443.7459,337.6132 444.1051,341.3727 444.8453,345.0761 447.2705,351.8209 450.9492,357.9723 455.7438,363.3001 461.4746,367.6048 467.9272,370.7251 474.86,372.5444 478.6143,372.9542 482.3909,372.9797 489.4871,371.9712 496.2562,369.615 499.601,367.8614 502.7499,365.7763 508.0777,360.9818 512.3824,355.2509 515.5028,348.7983 517.3221,341.8656 517.7319,338.1112 517.7573,334.3347 516.7488,327.2385 515.6723,323.6185 514.2327,320.127 510.554,313.9756 505.7594,308.6478 502.847,306.2435 499.7049,304.1482 493.2208,301.0938 486.2699,299.3453"/>
    <polygon points="474.827,296.9484 471.1276,297.6924 464.0256,300.2201 460.6879,301.9806 457.2294,304.2753 451.6323,309.3251 449.2207,312.2274 446.9015,315.6696 443.6588,322.4749 441.769,329.7726 441.355,333.5233 441.3155,337.6737 442.3578,345.1397 443.4084,348.764 444.9579,352.6144 446.9031,356.2809 448.9968,359.4203 454.0332,365.0295 460.044,369.5789 463.6871,371.5675 467.1639,373.0343 474.457,374.9416 478.5836,375.3871 482.357,375.414 486.4895,375.0274 490.1925,374.3011 497.3065,371.8074 503.8167,368.0067 507.0527,365.4077 509.7431,362.7618 512.3957,359.5695 514.5042,356.44 517.7794,349.6502 519.7041,342.3616 520.136,338.6129 520.1954,334.4628 519.1888,326.9919 518.0332,323.0055 516.6245,319.5048 514.8879,316.1546 512.6181,312.6797 509.996,309.4624 507.3308,306.791 504.4227,304.3863 500.975,302.0754 494.1619,298.849 490.5556,297.7381 486.4865,296.92 478.9576,296.542"/>
    <polygon points="475.3018,296.0613 471.2208,296.8347 467.5976,297.8991 463.7468,299.456 460.0768,301.4012 456.9303,303.4891 453.7118,306.1148 451.0346,308.7781 448.6185,311.6803 446.2877,315.1183 444.3233,318.7781 442.8731,322.2648 441.6628,326.2382 440.9229,329.9413 440.533,333.6974 440.5124,337.851 440.9196,341.9846 441.6574,345.6881 442.7389,349.3063 444.3138,353.1497 446.2762,356.8106 448.3788,359.9473 450.766,362.8734 453.6953,365.8182 459.7346,370.3397 463.3851,372.3212 466.865,373.7877 470.8327,375.0167 474.5323,375.7739 478.6637,376.2028 482.44,376.2215 486.5754,375.8337 490.2824,375.1132 493.9056,374.0488 497.7563,372.4919 501.4263,370.5467 504.5729,368.4588 507.5102,366.0854 510.4686,363.1698 512.8847,360.2676 515.2155,356.8296 517.1799,353.1698 518.6301,349.6831 519.7474,346.0758 520.5803,342.0066 520.9702,338.2505 520.9908,334.0969 520.5836,329.9633 519.8458,326.2598 518.6376,322.2857 517.1894,318.7982 515.227,315.1373 513.1243,312.0006 510.4836,308.7944 507.8078,306.1297 501.7686,301.6082 498.4582,299.7911 494.6382,298.1602 490.6705,296.9312 486.9709,296.174 482.8395,295.7451 479.0632,295.7264"/>
    <polygon points="474.5328,292.4873 470.0884,293.3587 465.7574,294.683 461.9262,296.283 458.2631,298.2376 454.4972,300.7536 451.2894,303.3895 448.3448,306.3165 445.6896,309.5084 443.3477,312.9367 441.3399,316.5708 439.5515,320.7318 438.2012,325.0549 437.3604,329.1207 436.9072,333.2478 436.8595,337.7766 437.2784,342.2862 438.0685,346.3622 439.2398,350.3454 440.782,354.2002 442.6812,357.8923 445.1403,361.6956 447.7277,364.9427 450.8858,368.1889 454.0606,370.8646 457.7948,373.4273 461.773,375.5919 465.5981,377.2067 469.924,378.5477 473.9916,379.3798 478.4967,379.8451 482.6485,379.8621 487.1572,379.4335 491.2315,378.6347 495.5682,377.3289 499.4063,375.7454 503.0777,373.8066 506.8543,371.3068 510.0734,368.6847 513.0306,365.7704 515.6995,362.5899 518.2542,358.8502 520.2464,355.2075 522.0168,351.0389 523.3486,346.7101 524.1719,342.6406 524.6275,338.1346 524.6355,333.9827 524.2515,329.8486 523.3897,325.4024 522.2012,321.4242 520.4829,317.2339 518.5362,313.5666 516.0283,309.7954 513.3993,306.5819 510.4786,303.631 506.9906,300.7421 503.5472,298.4223 499.5597,296.2748 495.7278,294.6765 491.7621,293.4471 487.325,292.5394 482.818,292.0935 478.6661,292.0944"/>
    <polygon points="478.6075,292.9084 474.4726,293.3147 470.396,294.1171 466.4155,295.3081 462.2262,297.0375 458.5648,299.0013 455.1093,301.3083 451.8919,303.9372 448.9425,306.8635 446.2884,310.0601 443.7588,313.8207 441.7984,317.4839 440.1996,321.3188 438.9774,325.2898 438.0867,329.7336 437.6842,333.8689 437.6815,338.0237 438.0787,342.1595 438.8722,346.2379 440.1808,350.577 441.7747,354.414 443.7304,358.0797 446.0298,361.5402 448.6517,364.7633 451.8508,367.9737 455.0648,370.6067 458.5173,372.9181 462.1763,374.8866 466.0077,376.4937 469.9759,377.7246 474.0443,378.5679 478.5522,379.0367 482.707,379.0484 486.8436,378.6603 490.9237,377.8758 495.2657,376.5766 499.1062,374.9912 502.7762,373.0435 506.2417,370.7516 509.7513,367.884 512.6879,364.9447 515.328,361.7365 517.647,358.2891 519.6234,354.6345 521.3674,350.4513 522.5722,346.475 523.3887,342.4012 523.8094,338.2677 523.8303,334.1129 523.4512,329.9754 522.5857,325.5266 521.3859,321.5488 519.8089,317.7049 517.6756,313.7062 515.361,310.2558 512.7251,307.0442 509.7923,304.1012 506.5899,301.4541 502.8238,298.9327 499.1563,296.9803 495.3178,295.39 491.3442,294.1764 487.2722,293.351 483.1397,292.9213"/>
    <polygon points="458.4471,305.8941 453.1266,310.6926 448.8174,316.4166 445.6771,322.8565 443.8209,329.7765 443.3845,333.5263 443.328,337.301 444.2657,344.4041 445.2999,348.0347 446.6943,351.5428 448.4349,354.8927 450.5039,358.0503 455.262,363.4069 460.9532,367.7593 464.2541,369.5912 467.7226,371.0814 471.3235,372.2148 475.0202,372.9799 482.173,373.3941 485.9333,373.0608 489.641,372.3507 496.4063,369.9919 502.5985,366.3878 505.5496,364.0336 508.2488,361.3943 510.6684,358.4966 512.784,355.3701 515.8918,348.9144 517.0161,345.3106 517.7719,341.612 518.168,334.4582 517.8253,330.6987 517.1058,326.9929 514.7299,320.2335 512.9725,316.8925 510.8876,313.7454 506.1025,308.4128 503.1988,306.0004 500.0669,303.8927 493.6034,300.8013 489.9968,299.686 486.2963,298.9396 479.1415,298.5615 475.3829,298.9137 471.6789,299.6425 464.9256,302.0354 461.589,303.8013"/>
    <polygon points="445.2225,322.9174 443.3398,330.2162 442.9407,337.7434 443.9508,344.8338 446.436,351.9501 450.282,358.4328 455.0578,363.77 461.0749,368.31 467.518,371.4375 474.8074,373.3566 482.3324,373.7932 489.7948,372.7301 496.8986,370.2094 503.3621,366.3311 508.6755,361.5288 513.1854,355.4891 516.4092,348.6755 518.2189,341.3583 518.5625,334.2045 517.5524,327.1141 515.0671,319.9979 511.2211,313.5151 506.4454,308.1779 500.4282,303.6379 493.6308,300.3802 486.3227,298.5339 479.1707,298.1547 471.7083,299.2178 464.9468,301.5792 458.445,305.3928 452.8277,310.4191 448.3178,316.4588"/>
    <polygon points="452.5961,366.4597 455.7858,369.1224 459.2257,371.4528 462.8815,373.4276 466.3614,374.8974 470.3258,376.1413 474.3948,376.9825 478.5275,377.4127 482.3049,377.4432 486.444,377.08 490.5261,376.3047 494.5101,375.1251 498.3563,373.5531 502.0259,371.6042 505.4823,369.2982 508.6907,366.6581 511.3652,363.9904 514.0134,360.7886 516.1321,357.6611 518.1235,354.0144 519.7402,350.1868 520.8711,346.5825 521.7308,342.5174 522.1797,338.3867 522.2134,334.2318 521.8313,330.0944 521.1265,326.3832 519.965,322.3938 518.4105,318.5406 516.4784,314.8621 514.1881,311.3953 511.5627,308.1748 508.6283,305.2331 505.4145,302.5995 501.9535,300.3005 498.2799,298.3592 494.7868,296.9211 491.1774,295.8066 487.1084,294.9654 482.9757,294.5352 478.8207,294.5205 474.6851,294.9214 470.9771,295.6432 466.9931,296.8228 463.1469,298.3948 459.4773,300.3437 456.0209,302.6497 452.8125,305.2898 450.138,307.9575 447.4898,311.1593 445.1751,314.6098 443.3797,317.9335 441.763,321.7611 440.5372,325.7312 439.7145,329.8039 439.3032,333.9385 439.2898,337.7161 439.6719,341.8535 440.4657,345.932 441.6634,349.9106 443.0927,353.4073 445.0248,357.0858 447.3151,360.5526 449.6887,363.4914"/>
    <polygon points="453.6405,372.5766 457.4094,375.0879 461.409,377.2126 465.5999,378.9296 469.9405,380.2219 474.388,381.0768 478.5213,381.4689 483.0502,381.4655 487.1829,381.0672 491.6291,380.2057 495.9678,378.9068 500.1561,377.1835 504.1526,375.0528 507.9177,372.5358 511.4142,369.6573 514.3538,366.7254 517.2415,363.2365 519.7685,359.4781 521.9098,355.4873 523.6441,351.3036 524.9544,346.9683 525.8277,342.5244 526.2554,338.0157 526.2523,333.8639 525.8178,329.3558 524.9378,324.9132 523.621,320.5799 521.8804,316.3988 519.7332,312.4112 517.2005,308.6566 514.5618,305.4512 511.3636,302.2445 507.8627,299.3713 504.0938,296.86 500.0942,294.7353 496.2589,293.1453 491.9291,291.8171 487.4888,290.9254 482.9819,290.479 478.4529,290.4824 473.9467,290.9355 469.5078,291.8339 465.5353,293.0411 461.3471,294.7644 457.6754,296.7024 453.8895,299.1882 450.3693,302.0376 447.1493,305.2225 444.4889,308.4098 441.9308,312.1472 439.7566,316.1201 437.9876,320.2893 436.6414,324.6135 435.7313,329.0501 435.2663,333.5551 435.2509,338.084 435.6854,342.5921 436.5653,347.0347 437.8822,351.368 439.6228,355.5491 441.77,359.5367 444.3026,363.2913 447.1956,366.7759 450.1396,369.7034"/>
    <line x1="463.6303" x2="445.0218" y1="372.1314" y2="581.7516"/>
    <polygon points="463.2598,579.0196 467.0102,582.1874 471.054,584.9708 475.3519,587.343 479.8624,589.2809 484.5417,590.7657 489.3443,591.783 494.2237,592.3229 499.1325,592.3803 504.0232,591.9544 508.8482,591.0495 513.2034,589.7966 517.7716,587.9991 522.1409,585.761 526.2688,583.1039 530.1153,580.0536 533.6432,576.6397 536.818,572.8954 539.6092,568.8569 541.9895,564.5634 543.9359,560.0566 545.4296,555.3802 546.456,550.5795 547.0052,545.7012 547.0718,540.7925 546.6552,535.901 545.8452,531.4422 544.5148,526.7167 542.726,522.1451 540.4961,517.7716 537.8468,513.6386 534.8038,509.7863 531.3967,506.2521 527.6584,503.0701 523.6252,500.2713 519.3362,497.8828 514.8331,495.9279 510.1595,494.4254 505.3608,493.3899 500.4835,492.8315 495.5749,492.7555 490.6827,493.1629 485.8542,494.0494 481.1364,495.4067 476.575,497.2215 472.2142,499.4762 468.0964,502.1489 464.2615,505.2137 460.7466,508.6409 457.586,512.3973 455.0094,516.1253 452.6128,520.4098 450.6493,524.9092 449.1379,529.5799 448.0934,534.3766 447.5257,539.2529 447.4405,544.1613 447.8385,549.0543 448.716,553.8844 450.0643,558.6048 451.8704,563.1696 454.1168,567.5346 456.7817,571.6575 459.8393,575.4983"/>
    <polygon points="460.8311,569.1433 463.4309,572.3828 466.5936,575.6274 469.7657,578.3091 473.4912,580.8879 477.4567,583.0799 481.6222,584.8628 485.9456,586.2186 490.0102,587.0745 494.5132,587.5774 499.044,587.6257 503.5567,587.2192 507.6386,586.4502 511.99,585.187 516.1926,583.4934 519.878,581.5775 523.6786,579.1105 527.2123,576.2745 530.4436,573.0982 533.112,569.915 535.4761,566.4997 537.6846,562.5434 539.485,558.3854 540.761,554.4325 541.7318,550.0067 542.2535,545.5059 542.3209,540.9754 541.9332,536.461 541.0944,532.0083 539.9363,528.0193 538.2604,523.8096 536.1704,519.7894 533.6875,515.9992 531.0877,512.7597 528.2008,509.7732 524.753,506.8335 521.0274,504.2546 517.0619,502.0627 513.2502,500.4122 508.9383,499.0202 504.5084,498.068 500.0054,497.5652 495.8522,497.5034 491.3362,497.8722 486.88,498.6923 482.5287,499.9556 478.3261,501.6491 474.3146,503.7559 470.5349,506.2547 467.3063,508.868 464.075,512.0443 461.1789,515.5289 458.8434,518.9639 456.6681,522.9385 454.9027,527.1115 453.6597,531.0749 452.7868,535.1358 452.2651,539.6367 452.1978,544.1672 452.5855,548.6816 453.3373,552.7667 454.5823,557.1233 456.2582,561.333 458.3482,565.3532"/>
    <polygon points="462.6496,567.6019 465.2424,570.8428 468.1374,573.8168 471.3074,576.4957 475.044,579.052 478.6895,581.0359 482.5104,582.6566 486.4705,583.8988 490.5325,584.7508 494.658,585.2046 498.8081,585.2558 502.9435,584.904 507.0253,584.1524 511.0148,583.0083 514.8745,581.4823 518.5679,579.589 522.06,577.3461 525.318,574.7749 528.3111,571.8996 531.011,568.7474 533.3922,565.3481 535.4322,561.7337 537.1118,557.9383 538.5145,553.6338 539.3934,549.5775 539.8745,545.4551 539.9532,541.3055 539.6288,537.1678 538.9043,533.0811 537.6658,528.7265 536.1314,524.8701 534.2299,521.181 531.9793,517.6938 529.4009,514.4415 526.519,511.4548 523.3609,508.7619 519.9563,506.3882 515.9989,504.1891 512.1852,502.5515 508.2306,501.2918 504.1725,500.4218 500.049,499.9499 495.8992,499.8803 491.7622,500.2139 487.6772,500.9474 483.6826,502.0739 479.4724,503.7384 475.7874,505.6481 472.3052,507.9063 469.0586,510.4919 466.0782,513.3804 463.3923,516.5445 461.0262,519.9543 458.8358,523.9165 457.2067,527.7338 455.9557,531.6912 455.0947,535.7513 454.6319,539.8758 454.5715,544.0257 454.9142,548.1619 455.6567,552.2453 456.792,556.2374 458.3094,560.1005 460.1946,563.798"/>
    <polygon points="462.9741,567.3745 465.5703,570.6156 468.4717,573.5866 471.6504,576.259 475.0757,578.6069 478.7146,580.6077 482.5321,582.2423 486.4915,583.4948 490.5545,584.3531 494.6821,584.8091 498.8346,584.8583 502.9718,584.5003 507.0541,583.7385 511.042,582.5802 514.8972,581.0366 518.5826,579.1226 522.0625,576.8565 525.3036,574.2603 528.2747,571.3589 530.947,568.1802 533.2949,564.7549 535.2958,561.116 536.9303,557.2985 538.1828,553.3391 539.0412,549.2761 539.4972,545.1485 539.5464,540.996 539.1884,536.8587 538.4265,532.7765 537.2683,528.7886 535.7247,524.9334 533.8106,521.248 531.5446,517.7681 528.9483,514.527 526.0469,511.5559 522.8683,508.8836 519.443,506.5357 515.8041,504.5348 511.9865,502.9003 508.0272,501.6478 503.9641,500.7894 499.8365,500.3334 495.6841,500.2842 491.5468,500.6422 487.4645,501.4041 483.4766,502.5623 479.6214,504.1059 475.9361,506.02 472.4561,508.286 469.215,510.8823 466.244,513.7837 463.5716,516.9623 461.2237,520.3876 459.2229,524.0265 457.5883,527.8441 456.3358,531.8034 455.4775,535.8665 455.0215,539.9941 454.9722,544.1465 455.3303,548.2838 456.0921,552.3661 457.2504,556.354 458.794,560.2092 460.708,563.8945"/>
    <polygon points="461.7109,563.2548 463.9787,566.7352 466.3355,569.6861 469.2284,572.6672 472.4073,575.3413 475.8397,577.681 479.1506,579.4978 482.9679,581.1362 486.5657,582.2845 490.6263,583.1607 494.7545,583.6227 498.5307,583.6794 502.671,583.3415 506.756,582.5876 510.3867,581.5478 514.2514,580.0248 517.9428,578.1197 521.1165,576.0725 524.3742,573.4951 527.3553,570.6022 530.0293,567.4233 532.3691,563.9909 534.1859,560.68 535.6913,557.2163 536.9726,553.2649 537.8487,549.2043 538.3108,545.0761 538.3675,541.2999 538.0295,537.1596 537.2757,533.0746 536.2358,529.4439 534.8673,525.9239 532.9962,522.2152 530.7605,518.7141 528.1831,515.4564 525.5655,512.7341 522.4113,510.0309 519.0006,507.6597 515.368,505.6447 511.5507,504.0064 507.9529,502.858 503.8924,501.9819 499.7641,501.5198 495.9879,501.4631 491.8477,501.8011 488.1306,502.4694 484.132,503.5948 480.2672,505.1178 476.5758,507.0229 473.4022,509.07 470.1445,511.6475 467.4221,514.2651 464.719,517.4193 462.3478,520.83 460.3328,524.4626 458.6944,528.2799 457.4495,532.2429 456.6699,535.9382 456.2079,540.0665 456.1512,543.8427 456.4891,547.9829 457.243,552.068 458.2828,555.6986 459.8058,559.5634"/>
    <polygon points="451.0787,539.5643 451.006,544.0935 451.3763,548.6081 452.1863,553.0649 453.4281,557.4211 455.0899,561.635 457.1556,565.6663 459.6056,569.4764 462.4163,573.0287 465.5608,576.2891 469.3091,579.4559 473.0489,582.0117 477.0207,584.1896 481.1864,585.9689 485.5061,587.3323 489.9384,588.2669 494.4408,588.7638 498.9703,588.818 503.4833,588.4292 507.9367,587.6011 512.2878,586.3415 516.495,584.6626 520.5178,582.5804 524.3178,580.1149 527.8586,577.2898 531.1062,574.132 534.0296,570.6718 536.6006,566.9424 538.7948,562.9795 540.591,558.8211 541.9721,554.507 542.9845,549.7057 543.4629,545.2013 543.4987,540.6717 543.0915,536.1602 542.2452,531.7102 540.9679,527.3643 539.2718,523.164 537.1732,519.1497 534.6923,515.3598 531.8527,511.8306 528.6817,508.5959 525.2096,505.6867 521.4697,503.1309 517.4979,500.9529 513.3322,499.1737 509.0125,497.8102 504.5802,496.8756 500.0778,496.3788 495.5484,496.3245 491.0353,496.7133 486.5819,497.5415 482.2308,498.801 478.0237,500.4799 474.0008,502.5621 470.2008,505.0276 466.66,507.8528 463.4124,511.0106 460.4891,514.4708 457.918,518.2001 455.7239,522.163 453.9277,526.3214 452.5466,530.6355 451.5939,535.064"/>
    <polygon points="450.2817,539.6103 450.2147,544.1407 450.6339,549.0309 451.4709,553.4838 452.7322,557.8355 454.4061,562.0459 456.6669,566.4023 459.1462,570.1947 461.9787,573.7311 465.138,576.9788 468.8954,580.1365 472.6385,582.6896 476.6098,584.8709 481.1267,586.7912 485.453,588.1374 489.8886,589.0614 494.3926,589.5547 499.3005,589.5978 503.8124,589.1837 508.2636,588.3377 512.6129,587.0677 517.1628,585.227 521.1717,583.1158 524.9591,580.6289 528.4899,577.7894 531.7312,574.6235 534.6532,571.1607 537.2287,567.433 539.4339,563.475 541.3813,558.9697 542.7535,554.6517 543.7043,550.2216 544.2246,545.7207 544.3099,541.1906 543.9592,536.6734 543.0911,531.8426 541.8473,527.4858 540.1903,523.2687 538.1356,519.2306 535.7021,515.4086 532.6647,511.5533 529.5185,508.2929 525.7737,505.1201 522.0409,502.5521 518.0784,500.3549 513.923,498.5488 509.6133,497.1506 504.8165,496.1111 500.3146,495.5997 495.7843,495.5236 491.2677,495.8834 486.4387,496.7611 482.0844,498.0136 477.8707,499.6791 473.5098,501.9312 469.7124,504.4028 466.1703,507.2282 462.6591,510.6576 459.751,514.1321 457.1905,517.8701 455.0012,521.8369 453.2035,525.9959 451.8139,530.3085 450.7841,535.1073"/>
    <polygon points="465.5823,512.751 462.654,516.2055 460.2984,519.624 458.1132,523.5905 456.4823,527.4083 455.2226,531.3641 454.3458,535.422 453.8351,539.9217 453.7802,544.0729 454.1719,548.5845 454.9412,552.6641 456.096,556.6518 457.6255,560.5113 459.516,564.2075 461.9696,568.0138 464.5554,571.2617 467.439,574.2483 470.5942,576.9465 473.9922,579.3316 477.9396,581.5512 481.743,583.2152 486.0521,584.608 490.4827,585.5452 494.6097,585.9955 498.7609,586.0504 503.2726,585.6587 507.3522,584.8893 511.3399,583.7346 515.5427,582.0479 519.2222,580.1254 522.7018,577.861 525.9497,575.2752 528.9364,572.3916 531.8646,568.9371 534.2202,565.5185 536.4054,561.552 538.1664,557.3798 539.3917,553.4132 540.2333,549.3479 540.6836,545.2209 540.7384,541.0697 540.3973,536.9322 539.5774,532.4784 538.4227,528.4907 536.736,524.2879 534.8135,520.6084 532.549,517.1288 529.713,513.5981 526.5253,510.3814 523.3238,507.7384 519.885,505.4126 516.2401,503.4252 512.4223,501.7942 508.4665,500.5346 504.0359,499.5973 499.9089,499.147 495.7577,499.0922 491.2461,499.4838 487.1665,500.2532 483.1787,501.4079 479.3193,502.9375 475.2964,505.0171 471.8168,507.2816 468.5689,509.8674"/>
    <polygon points="469.7048,511.5069 466.7406,514.4137 464.0815,517.6018 459.9455,524.3526 458.3128,528.1696 457.0693,532.1306 455.8183,539.9481 456.0736,547.861 456.8077,551.9472 457.9461,555.9396 461.1978,563.158 463.4338,566.656 466.0078,569.9133 471.7651,575.3476 475.1654,577.7295 478.7866,579.76 482.5924,581.4187 486.5448,582.6891 490.6043,583.5585 494.7304,584.0182 498.8817,584.0636 503.0168,583.6942 510.717,581.854 514.5723,580.3139 518.2546,578.3964 524.6723,573.7606 530.0935,567.9909 532.4677,564.5852 534.4899,560.9594 536.14,557.1498 537.4014,553.1945 538.688,545.3828 538.4686,537.4688 537.7532,533.3794 536.6329,529.3818 533.414,522.1487 531.194,518.6406 528.6348,515.3716 525.762,512.3746 522.6042,509.6794 519.1931,507.3129 515.5628,505.2989 508.1561,502.5025 504.1006,501.6147 499.9767,501.1363 495.8256,501.072 491.6888,501.4226 483.9804,503.2277 480.1181,504.7504 476.4272,506.651 472.9445,508.9107"/>
    <polygon points="473.74,509.3161 470.4779,511.8822 467.7529,514.4922 465.0487,517.6406 462.8798,520.7284 460.8355,524.3403 459.3047,527.7892 457.9975,531.7283 457.0979,535.78 456.6153,539.9022 456.5546,544.0522 456.9167,548.1867 457.6975,552.263 458.7642,555.8824 460.1612,559.3876 462.065,563.0755 464.3343,566.5506 466.6946,569.4946 469.3173,572.2075 472.4782,574.8971 475.5759,577.0516 479.1973,579.0792 483.0063,580.7277 486.9632,581.9801 491.027,582.8233 494.7786,583.2273 498.5516,583.2824 502.6878,582.9395 506.4001,582.264 510.3919,581.1277 514.2474,579.5911 517.6003,577.8602 521.0858,575.607 524.0407,573.2604 526.7657,570.6504 529.47,567.5019 531.8398,564.0946 533.6832,560.8022 535.3493,557.001 536.62,553.0499 537.482,548.99 537.9034,545.2403 537.976,541.4677 537.6523,537.3299 536.9939,533.6145 535.8762,529.6174 534.3575,525.7549 532.6421,522.394 530.4051,518.8981 527.824,515.648 524.9255,512.6774 522.0404,510.2454 518.6222,507.8915 514.9822,505.8975 511.1582,504.2844 507.5555,503.1625 503.4916,502.3193 499.74,501.9153 495.9671,501.8602 491.8309,502.203 487.7511,502.965 484.1267,504.0148 480.2713,505.5514 476.9183,507.2823"/>
    <polygon points="461.74,509.901 458.8333,513.3751 456.0672,517.428 453.8913,521.4009 451.9657,525.9141 450.6035,530.2341 449.6523,534.6628 449.0953,539.5379 449.0231,544.067 449.4243,548.9574 450.3201,553.7818 451.7011,558.4903 453.5531,563.0342 455.6642,567.0419 458.364,571.1392 461.2138,574.6601 464.6586,578.1545 468.1384,581.0543 471.8748,583.6151 476.1738,585.9806 480.6908,587.8973 485.0134,589.2511 489.8168,590.2533 494.3202,590.7411 498.8494,590.8045 503.739,590.3937 508.5617,589.4885 513.2675,588.0983 517.4655,586.3969 521.8113,584.1185 525.9033,581.4106 529.4186,578.5539 532.6506,575.3802 535.7992,571.6168 538.5494,567.5532 540.7098,563.5719 542.6177,559.0511 543.963,554.7258 544.9558,549.9205 545.4348,545.4162 545.4893,540.8868 545.069,535.998 544.1543,531.1772 542.8795,526.8306 541.2027,522.6227 538.9499,518.2636 536.2661,514.1557 533.4301,510.6237 530.2754,507.3732 526.5306,504.2025 522.8042,501.6271 518.5145,499.2448 514.3587,497.4428 509.6877,495.9397 504.8883,494.9187 500.3869,494.4133 495.4805,494.3447 490.9667,494.7239 486.1406,495.6102 481.4294,496.982 477.2248,498.667 472.8701,500.9283 469.0732,503.3984 465.2411,506.4631"/>
    <polygon points="486.2838,496.3906 481.9329,497.6467 477.7216,499.3117 473.3611,501.5592 469.5616,504.0232 465.7309,507.0878 462.493,510.2538 459.3432,514.0146 456.7944,517.7579 454.6139,521.7269 452.8216,525.8857 451.4338,530.1964 450.4013,534.9921 449.8923,539.492 449.8275,544.3972 450.2173,548.909 451.0354,553.363 452.2741,557.7189 454.0778,562.2809 456.1525,566.3062 458.8217,570.4221 461.6507,573.9583 465.0804,577.4658 468.5521,580.3736 472.607,583.1346 476.5847,585.2992 481.1051,587.2049 485.432,588.5412 489.8666,589.459 494.3684,589.9502 498.8966,590.01 503.784,589.5877 508.2348,588.7519 512.5857,587.4959 516.7971,585.8309 521.1576,583.5833 524.9571,581.1193 528.7877,578.0547 532.0257,574.8887 534.9472,571.4286 537.7242,567.3847 539.9047,563.4156 541.8283,558.9029 543.1818,554.5813 544.1173,550.1504 544.6493,545.2737 544.6752,540.3682 544.2494,535.8596 543.396,531.4122 542.1226,527.0664 540.4409,522.8616 538.176,518.5101 535.6969,514.7204 532.8679,511.1842 529.4383,507.6767 525.9665,504.769 522.2335,502.2053 517.9339,499.8433 513.768,498.0676 509.0866,496.6014 504.6521,495.6835 500.1502,495.1924 495.622,495.1325 490.7346,495.5548"/>
    <polygon points="505.289,494.5828 500.4112,494.0179 495.8789,493.9353 490.9837,494.3221 486.1524,495.2004 481.4342,496.5611 477.221,498.2336 472.8541,500.4791 469.0427,502.933 465.1911,505.979 461.6661,509.3976 458.7333,512.8541 456.1349,516.5685 453.7234,520.846 451.7553,525.3448 450.3496,529.6544 449.2866,534.4484 448.7121,539.3252 448.6322,544.235 449.0475,549.1279 449.9539,553.9539 451.2185,558.307 453.0391,562.8675 455.1198,566.8948 457.7861,571.0183 460.8545,574.8521 464.2936,578.3571 468.0685,581.4976 471.8178,584.0453 476.1278,586.3985 480.2982,588.1749 484.9812,589.6522 489.416,590.5905 494.2961,591.1366 499.2063,591.1879 503.7223,590.7957 508.5501,589.8987 513.263,588.5196 517.4697,586.8308 521.8279,584.5683 525.6297,582.0996 529.4694,579.0387 532.7235,575.8829 535.9005,572.1386 538.6839,568.0932 540.8793,564.1273 542.6961,559.9743 544.2188,555.3059 545.2633,550.5078 545.8188,545.6288 545.8796,540.7187 545.4453,535.8275 544.6086,531.3724 543.2387,526.6569 541.558,522.4469 539.304,518.0843 536.8427,514.2777 533.7893,510.432 530.6397,507.1719 526.9016,503.9876 522.8617,501.1963 518.5609,498.8265 514.0432,496.9022 509.7202,495.5384"/>
    <polygon points="513.0517,500.7608 508.7349,499.376 504.6729,498.4968 500.1699,497.9725 496.0146,497.895 491.4952,498.2509 487.035,499.0629 482.68,500.3225 478.475,502.0168 474.7892,503.9369 470.991,506.412 467.7458,509.0083 464.4976,512.1708 461.8154,515.3454 459.4397,518.7554 457.2216,522.7092 455.5498,526.5141 454.1377,530.822 453.1693,535.2508 452.6545,539.755 452.5858,543.9104 452.9513,548.4291 453.7726,552.8876 455.0414,557.2399 456.5865,561.098 458.6726,565.123 461.1556,568.916 463.7588,572.1556 466.9282,575.3972 470.4096,578.301 473.8445,580.6405 477.8216,582.8167 481.9986,584.5787 485.9665,585.8147 490.0321,586.6767 494.5373,587.1819 499.0706,587.2282 503.5852,586.8149 508.0347,585.9465 512.0171,584.7581 516.2149,583.046 519.8926,581.1103 523.6803,578.6192 526.9144,576.0092 530.1493,572.8329 533.0457,569.3454 535.5739,565.5823 537.5457,561.9239 539.299,557.7432 540.5265,553.7726 541.4386,549.3319 541.8756,545.1989 541.9123,540.6656 541.5422,536.5261 540.702,532.0712 539.4148,527.7243 537.8535,523.8728 535.7504,519.8566 533.2513,516.0742 530.6344,512.8455 527.729,509.8739 524.2599,506.9554 520.5129,504.4034 516.8671,502.4084"/>
    <polygon points="520.014,505.9572 516.3844,503.9371 512.5773,502.2757 508.6279,500.9885 504.2004,500.0249 500.0733,499.5544 495.5425,499.4967 491.4047,499.8619 487.3213,500.6236 483.3302,501.7748 479.4684,503.3049 475.7718,505.1994 472.2746,507.441 468.7252,510.2576 465.7476,513.1539 462.8339,516.624 460.4964,520.0577 458.5003,523.7005 456.864,527.5185 455.6028,531.4762 454.7283,535.537 454.2487,539.6631 454.1685,543.8162 454.4884,547.9577 455.2053,552.0492 456.4325,556.411 457.954,560.2761 460.0295,564.304 462.294,567.7863 464.8832,571.0345 467.773,574.0184 471.2367,576.9397 474.6653,579.2847 478.3037,581.2889 482.1181,582.9335 486.073,584.2034 490.5047,585.1476 494.6339,585.6001 498.7874,585.653 503.301,585.2546 507.381,584.475 511.3671,583.3063 515.2221,581.7594 518.9104,579.8486 522.3977,577.5917 525.6515,575.0097 528.6418,572.1265 531.3407,568.9688 533.7231,565.5661 535.9353,561.6117 537.5883,557.8009 538.8669,553.8487 539.8208,549.4191 540.2822,545.291 540.3301,540.7601 539.9558,536.6231 539.1851,532.5414 538.0251,528.5528 536.4867,524.6944 534.584,521.0019 532.3347,517.5097 529.7598,514.2502 526.8832,511.2536 523.4323,508.3172"/>
    <line x1="533.0355" x2="537.7817" y1="507.3409" y2="499.4426"/>
    <line x1="537.4521" x2="533.2991" y1="499.2445" y2="506.1555"/>
    <line x1="534.2881" x2="538.4411" y1="506.7498" y2="499.8388"/>
    <line x1="538.1114" x2="533.3652" y1="499.6407" y2="507.539"/>
    <line x1="535.2111" x2="538.7707" y1="505.9606" y2="500.0369"/>
    <line x1="539.1004" x2="536.134" y1="500.235" y2="505.1714"/>
    <line x1="537.0569" x2="539.43" y1="504.3822" y2="500.4331"/>
    <line x1="539.7597" x2="537.9799" y1="500.6312" y2="503.593"/>
    <line x1="538.9028" x2="540.0894" y1="502.8038" y2="500.8293"/>
    <line x1="540.419" x2="539.8258" y1="501.0274" y2="502.0146"/>
    <line x1="537.1224" x2="533.5627" y1="499.0464" y2="504.9701"/>
    <line x1="533.8264" x2="536.7927" y1="503.7847" y2="498.8483"/>
    <line x1="536.4631" x2="534.09" y1="498.6502" y2="502.5993"/>
    <line x1="534.3536" x2="536.1334" y1="501.4139" y2="498.4521"/>
    <line x1="535.8038" x2="534.6172" y1="498.254" y2="500.2285"/>
    <line x1="534.8808" x2="535.4741" y1="499.0432" y2="498.0559"/>
    <polygon points="535.1444,497.8578 532.9037,507.9336 540.7487,501.2255"/>
    <polygon points="537.7171,519.2972 535.0479,515.1753 532.212,511.6386 529.0464,508.3938 525.5809,505.4713 521.8483,502.8988 517.8837,500.7006 513.7245,498.8973 509.4101,497.506 504.981,496.5398 500.1019,495.9833 495.569,495.9273 491.0521,496.3113 486.5937,497.1316 482.2359,498.3806 478.0198,500.0465 473.6584,502.3032 469.8633,504.7827 466.3267,507.6186 462.8256,511.062 459.9313,514.551 457.3891,518.3043 455.223,522.2866 453.4535,526.4602 452.0972,530.7858 451.1669,535.2226 450.6714,539.7287 450.6153,544.2616 450.9993,548.7785 451.8197,553.2369 453.0687,557.5947 454.7345,561.8108 456.9913,566.1722 459.4707,569.9672 462.3066,573.5039 465.4722,576.7488 468.9377,579.6712 472.6704,582.2437 476.635,584.442 480.7941,586.2452 485.1086,587.6365 489.9106,588.6637 494.4167,589.1592 499.3272,589.2 503.8409,588.7795 508.2925,587.9231 512.6401,586.6389 516.8425,584.9389 520.8602,582.8393 524.6553,580.3599 528.1919,577.524 531.4368,574.3583 534.3593,570.8929 536.9318,567.1602 539.13,563.1956 540.9333,559.0365 542.4215,554.3567 543.3518,549.92 543.8473,545.4139 543.9033,540.881 543.5193,536.364 542.699,531.9056 541.45,527.5479 539.7841,523.3318"/>
    <polygon points="559.219,520.354 562.3702,531.5549 569.7432,525.3171"/>
    <line x1="559.219" x2="566.0567" y1="520.354" y2="528.436"/>
    <line x1="565.7732" x2="559.4614" y1="528.676" y2="521.2156"/>
    <line x1="560.0286" x2="566.3403" y1="520.7358" y2="528.1961"/>
    <line x1="566.6239" x2="560.8381" y1="527.9562" y2="521.1175"/>
    <line x1="561.6477" x2="566.9075" y1="521.4993" y2="527.7163"/>
    <line x1="567.191" x2="562.4573" y1="527.4764" y2="521.8811"/>
    <line x1="563.2668" x2="567.4746" y1="522.2629" y2="527.2365"/>
    <line x1="567.7582" x2="564.0764" y1="526.9965" y2="522.6447"/>
    <line x1="564.8859" x2="568.0418" y1="523.0264" y2="526.7566"/>
    <line x1="568.3253" x2="565.6955" y1="526.5167" y2="523.4082"/>
    <line x1="566.505" x2="568.6089" y1="523.79" y2="526.2768"/>
    <line x1="568.8925" x2="567.3146" y1="526.0369" y2="524.1718"/>
    <line x1="568.1241" x2="569.1761" y1="524.5536" y2="525.797"/>
    <line x1="569.4597" x2="568.9337" y1="525.557" y2="524.9354"/>
    <line x1="565.4896" x2="559.7038" y1="528.9159" y2="522.0772"/>
    <line x1="559.9462" x2="565.206" y1="522.9388" y2="529.1558"/>
    <line x1="564.9224" x2="560.1886" y1="529.3957" y2="523.8004"/>
    <line x1="560.431" x2="564.6388" y1="524.662" y2="529.6356"/>
    <line x1="564.3553" x2="560.6734" y1="529.8755" y2="525.5237"/>
    <line x1="560.9158" x2="564.0717" y1="526.3853" y2="530.1154"/>
    <line x1="563.7881" x2="561.1582" y1="530.3554" y2="527.2469"/>
    <line x1="561.4006" x2="563.5045" y1="528.1085" y2="530.5953"/>
    <line x1="563.221" x2="561.643" y1="530.8352" y2="528.9701"/>
    <line x1="561.8854" x2="562.9374" y1="529.8317" y2="531.0751"/>
    <line x1="562.6538" x2="562.1278" y1="531.315" y2="530.6933"/>
    <polygon points="545.7356,550.0635 546.2201,545.5587 546.2735,540.6509 545.8872,536.1367 545.0008,531.3094 543.6364,526.5948 541.8077,522.0402 539.7232,518.0174 537.0569,513.8968 533.9922,510.0632 530.5597,506.5551 526.7938,503.4076 522.7322,500.6522 518.7558,498.4807 514.2421,496.5532 509.5584,495.0864 504.7515,494.095 500.2467,493.6105 495.7164,493.5437 490.8247,493.9433 485.9974,494.8298 481.2828,496.1942 477.0719,497.8662 472.7054,500.1073 468.5848,502.7736 464.7513,505.8384 461.2432,509.2709 458.0957,513.0368 455.3402,517.0983 453.1687,521.0748 451.2412,525.5885 449.8706,529.907 448.8422,534.7061 448.2986,539.5839 448.2451,544.4916 448.6314,549.0059 449.5178,553.8332 450.8823,558.5477 452.711,563.1024 454.9857,567.4514 457.6837,571.5514 460.5264,575.0793 463.9589,578.5874 467.7248,581.7349 471.4644,584.293 475.7629,586.6619 480.2766,588.5894 484.595,589.96 489.3941,590.9884 494.2719,591.532 499.1797,591.5855 503.6939,591.1992 508.5212,590.3127 513.2358,588.9483 517.7904,587.1196 522.1395,584.8449 526.2394,582.1469 529.7674,579.3042 533.2755,575.8717 536.1944,572.4065 538.981,568.3662 541.3499,564.0677 543.2774,559.554 544.7442,554.8703"/>
    <polygon points="538.5098,557.5951 539.7453,553.6282 540.6589,549.1889 541.0901,545.0564 541.1288,540.9016 540.7228,536.3875 539.9436,532.3063 538.6578,527.9602 537.0911,524.112 535.1676,520.4291 532.9046,516.9445 530.0725,513.406 527.1683,510.4346 523.6956,507.5222 520.2637,505.1799 516.286,503.0074 512.1055,501.2566 508.1333,500.0381 504.0636,499.2006 499.933,498.7516 495.7785,498.6951 491.2627,499.0816 487.1781,499.8432 482.8265,501.1103 478.9716,502.6604 475.2805,504.568 471.4794,507.0366 468.2355,509.6329 464.9942,512.8009 462.3243,515.9844 459.9673,519.4062 457.7777,523.3745 456.0089,527.5474 454.7733,531.5144 453.8597,535.9537 453.4285,540.0862 453.4059,544.6184 453.7958,548.755 454.665,553.2032 455.8609,557.1824 457.5879,561.3727 459.543,565.0389 461.836,568.5039 464.4462,571.7366 467.3503,574.708 470.5224,577.3916 474.2549,579.9626 477.8928,581.9699 482.0581,583.7567 486.0197,585.0093 490.082,585.8818 494.5856,586.391 498.7402,586.4475 503.256,586.061 507.3405,585.2993 511.6921,584.0322 515.547,582.4821 519.2382,580.5745 523.0393,578.1059 526.2831,575.5096 529.267,572.6183 532.1943,569.1581 534.5513,565.7364 536.7409,561.7681"/>
    <polygon points="537.8566,567.9236 540.2401,563.6317 542.1713,559.1182 543.535,554.7962 544.5438,549.9917 545.0337,545.4863 545.0952,540.9547 544.678,536.0632 543.7619,531.2401 542.4817,526.8927 540.7961,522.6858 538.5302,518.3307 536.0525,514.536 533.227,510.9926 529.8031,507.4744 526.3377,504.5538 522.6117,501.9739 518.3197,499.5905 514.1602,497.7913 509.4843,496.2956 504.6797,495.2868 500.1743,494.7969 495.2652,494.7496 490.7512,495.1526 486.2955,495.9807 481.5807,497.3489 477.0308,499.1928 473.0188,501.3004 469.2241,503.7781 465.3978,506.854 462.1624,510.0275 459.0135,513.7939 456.4631,517.5401 454.1137,521.8508 452.3473,526.0244 450.9837,530.3463 449.9748,535.1508 449.485,539.6563 449.4377,544.5654 449.8406,549.0794 450.7567,553.9025 452.0369,558.2499 453.8808,562.7998 455.9885,566.8118 458.4661,570.6065 461.2916,574.1499 464.7156,577.6681 468.1809,580.5888 471.9069,583.1686 476.1989,585.552 480.3584,587.3512 485.0343,588.8469 489.4659,589.7957 494.3443,590.3456 498.8759,590.4072 503.3929,590.0398 507.855,589.2469 512.5805,587.916 516.8005,586.2637 521.1733,584.0322 525.2946,581.3644 528.838,578.539 532.0982,575.391 535.2768,571.6497"/>
    <polygon points="539.2781,568.6391 541.6542,564.3473 543.5934,559.8413 544.9791,555.53 546.0283,550.7378 546.5975,545.8654 546.6919,541.3378 546.3265,536.4458 545.478,531.6141 544.1551,526.8903 542.3705,522.3207 540.142,517.9505 537.4914,513.8226 534.4448,509.9777 531.0323,506.4535 527.2874,503.2849 523.2469,500.5029 518.9506,498.1349 514.7944,496.3368 510.1269,494.8268 505.3328,493.7868 500.4592,493.2269 495.5542,493.1527 490.6659,493.5648 485.8425,494.4593 481.1315,495.8273 476.5792,497.6554 472.2305,499.9255 468.1281,502.6154 464.5948,505.448 461.0772,508.8673 457.9157,512.6183 455.1414,516.6641 452.7816,520.9648 450.8596,525.4783 449.4904,529.7948 448.4595,534.5909 447.9089,539.4655 447.8318,543.9934 448.2159,548.884 449.0828,553.7124 450.4238,558.4312 452.2257,562.9939 454.4709,567.3555 457.1373,571.4733 460.1985,575.3066 463.6245,578.8177 467.3815,581.972 471.4325,584.7386 475.3986,586.9245 479.9009,588.8724 484.5741,590.3645 489.3721,591.3862 494.2478,591.9275 499.1531,591.983 504.0398,591.5522 508.4924,590.7265 513.2086,589.3765 517.7678,587.5658 522.1252,585.3123 525.9311,582.8582 529.7819,579.8189 533.3125,576.4131 536.4883,572.6742"/>
    <polygon points="532.4883,569.426 535.0467,565.6878 537.0453,562.0478 538.8263,557.8828 540.0775,553.9231 540.9523,549.8637 541.4686,545.3633 541.5358,541.2113 541.1654,536.6966 540.4224,532.611 539.1795,528.255 537.4983,524.0487 535.587,520.362 533.3389,516.8706 530.5255,513.3203 527.6402,510.3337 524.1891,507.3996 520.4564,504.8333 516.8206,502.8269 512.6594,501.037 508.7024,499.7774 504.2722,498.8325 500.1456,498.368 495.9937,498.292 491.4782,498.6527 487.0232,499.4728 482.6753,500.7435 478.4798,502.4516 474.8055,504.3864 471.3284,506.6568 467.7962,509.4928 464.8282,512.3971 461.9162,515.8669 459.5708,519.2939 457.3907,523.2645 455.6274,527.4371 454.3931,531.4021 453.5356,535.4652 453.0385,539.9677 453.0038,544.4974 453.3786,548.6331 454.2271,553.0827 455.4005,557.0661 456.9418,560.9222 459.0267,564.9437 461.2897,568.4255 464.1181,571.9638 467.2931,575.1947 470.4797,577.8574 473.9016,580.2101 477.8676,582.3987 482.0364,584.1708 485.9988,585.4135 490.0601,586.2797 494.5615,586.7864 499.0911,586.8308 503.2276,586.4648 507.3116,585.713 511.6649,584.4609 515.5242,582.9278 519.5502,580.8515 523.343,578.3749 526.5811,575.775 529.8188,572.6069"/>
    <polygon points="507.083,583.3242 511.0692,582.1515 514.9197,580.5899 518.5967,578.6548 525.0057,573.9949 527.9803,571.0937 530.653,567.9122 534.825,561.1756 536.4823,557.3652 537.7542,553.4095 538.6282,549.3474 539.0958,545.2186 538.8466,537.2986 538.1203,533.2074 536.9926,529.2083 535.4745,525.3404 533.5809,521.6418 531.3305,518.1488 528.7454,514.8958 525.8509,511.9147 522.6755,509.2348 519.2504,506.8824 515.6092,504.8806 508.1888,502.1009 504.1286,501.2177 500.001,500.7408 495.8463,500.6749 491.7056,501.0206 483.9859,502.808 480.1146,504.3174 476.4117,506.2026 472.9137,508.4451 469.6549,511.0229 466.6673,513.9107 463.9802,517.08 461.6201,520.4999 459.6101,524.1365 456.8137,531.5506 455.9214,535.6088 455.4351,539.7354 455.6487,547.6564 456.3565,551.7508 457.4662,555.7551 458.9669,559.6297 460.8437,563.3368 463.0784,566.8399 465.6488,570.1045 468.5299,573.0987 471.6932,575.7929 475.1076,578.1607 478.7397,580.1788 482.5538,581.8275 486.5123,583.0905 490.5765,583.9554 494.7063,584.4137 498.8611,584.4609 503.0003,584.0965"/>
    <polygon points="499.0174,588.0233 503.5283,587.6232 507.977,586.7766 511.9628,585.6153 516.1701,583.9399 520.1899,581.8544 523.9824,579.3796 527.5101,576.5399 530.7379,573.3635 533.4059,570.1828 535.9724,566.4517 538.1551,562.4838 539.8003,558.6723 541.1905,554.3623 542.1452,549.9355 542.655,545.4357 542.7271,541.2848 542.3739,536.7701 541.5734,532.3128 540.3337,527.9572 538.6671,523.7464 536.5899,519.7222 534.123,515.9246 531.2906,512.391 528.1209,509.1567 524.9458,506.482 521.22,503.9078 517.2567,501.7169 513.4485,500.0638 509.1415,498.6647 504.7167,497.7007 500.2179,497.1816 495.6899,497.1124 491.1774,497.4937 486.7251,498.3219 482.3773,499.5887 478.177,501.2815 474.1659,503.3836 470.3837,505.8742 467.1498,508.4774 463.9088,511.6404 460.9984,515.1099 458.4475,518.8517 456.4465,522.4892 454.6519,526.647 453.2796,530.9626 452.3432,535.3934 451.8759,539.5185 451.7972,544.0464 452.1692,548.5597 452.9882,553.0136 454.2459,557.364 455.7738,561.2241 457.8342,565.2569 460.2854,569.0647 463.1031,572.61 466.2593,575.8575 469.7228,578.7751 473.4593,581.3338 477.4316,583.5083 481.2466,585.1456 485.5595,586.5268 489.9882,587.4724 494.4891,587.9728"/>
    <polygon points="494.465,588.3683 498.9968,588.4206 503.5117,588.0255 507.9656,587.1869 512.315,585.913 516.5175,584.2162 520.2058,582.3033 524.0137,579.8457 527.5605,577.0243 530.8118,573.8668 533.7356,570.4039 536.3036,566.6695 538.4905,562.6999 540.2752,558.534 541.6402,554.2122 542.5722,549.7769 543.062,545.2713 543.1049,540.7394 542.7005,536.2253 541.8528,531.7732 540.5699,527.4264 538.8645,523.2274 536.7531,519.2171 534.2563,515.4347 531.6499,512.1992 528.4857,508.9545 525.0168,506.0378 521.2771,503.4775 517.303,501.2987 513.1334,499.5226 509.1742,498.2631 504.7447,497.3038 500.2422,496.7861 496.0883,496.704 491.5689,497.0433 487.105,497.8268 482.7401,499.0469 478.517,500.6917 474.4767,502.7451 470.6587,505.187 467.1002,507.9938 463.836,511.1379 460.8979,514.5887 458.3146,518.3125 456.1113,522.273 454.3095,526.4316 452.9267,530.7477 451.9765,535.1791 451.4681,539.6826 451.4065,544.2144 451.7923,548.7301 452.6218,553.1857 453.8867,557.5377 455.5749,561.7437 457.6697,565.7627 460.1509,569.5553 462.9941,573.0847 466.1716,576.3164 469.6525,579.2188 473.4027,581.7636 477.0458,583.761 481.2081,585.5542 485.527,586.9281 489.9604,587.8692"/>
    <line x1="512.9872" x2="513.5342" y1="608.6236" y2="608.3514"/>
    <line x1="513.7005" x2="512.6064" y1="608.6854" y2="609.2299"/>
    <line x1="512.2256" x2="513.8667" y1="609.8361" y2="609.0194"/>
    <line x1="514.0329" x2="511.8448" y1="609.3534" y2="610.4423"/>
    <line x1="511.4641" x2="514.1991" y1="611.0486" y2="609.6874"/>
    <line x1="514.3654" x2="511.0833" y1="610.0214" y2="611.6548"/>
    <line x1="510.7025" x2="514.5316" y1="612.2611" y2="610.3554"/>
    <line x1="514.6978" x2="510.3217" y1="610.6894" y2="612.8673"/>
    <line x1="509.9409" x2="514.864" y1="613.4736" y2="611.0234"/>
    <line x1="515.0303" x2="509.5601" y1="611.3574" y2="614.0798"/>
    <polygon points="509.1793,614.6861 517.025,615.3654 513.368,608.0174"/>
    <line x1="509.1793" x2="515.1965" y1="614.6861" y2="611.6914"/>
    <line x1="515.3627" x2="509.8926" y1="612.0254" y2="614.7478"/>
    <line x1="510.6058" x2="515.529" y1="614.8096" y2="612.3594"/>
    <line x1="515.6952" x2="511.319" y1="612.6934" y2="614.8713"/>
    <line x1="512.0323" x2="515.8614" y1="614.9331" y2="613.0274"/>
    <line x1="516.0276" x2="512.7455" y1="613.3614" y2="614.9949"/>
    <line x1="513.4588" x2="516.1939" y1="615.0566" y2="613.6954"/>
    <line x1="516.3601" x2="514.172" y1="614.0294" y2="615.1184"/>
    <line x1="514.8853" x2="516.5263" y1="615.1802" y2="614.3634"/>
    <line x1="516.6925" x2="515.5985" y1="614.6974" y2="615.2419"/>
    <line x1="516.3118" x2="516.8588" y1="615.3037" y2="615.0314"/>
    <polygon points="526.5253,660.6568 522.2003,666.8291 520.4957,670.1946 518.9984,674.0646 517.3385,681.4162 517.0382,685.1769 517.121,689.3256 517.6357,693.443 518.4739,697.1214 519.7937,701.0554 521.3435,704.495 523.4161,708.0898 525.6163,711.1544 530.8359,716.5912 533.8083,718.9143 537.3157,721.1316 540.6893,722.8203 544.5664,724.2992 551.9258,725.9242 555.6878,726.2067 559.8361,726.1042 567.2618,724.8155 571.2021,723.5144 574.649,721.9809 578.2536,719.9254 581.3286,717.7398 586.79,712.5461 589.1273,709.5847 591.3612,706.0878 594.4439,699.2103 595.5677,695.2159 596.2231,691.5007 596.5234,687.74 596.4406,683.5913 595.1872,676.1596 594.0383,672.5661 592.3877,668.759 590.55,665.4642 588.1783,662.0593 585.7247,659.1936 582.7257,656.3257 579.4442,653.786 576.2458,651.7852 569.3538,648.7353 565.7222,647.7135 561.6358,646.9927 554.1019,646.7855 549.982,647.2807 546.2998,648.1013 542.3595,649.4025 538.9126,650.9359 535.308,652.9915 532.233,655.1771 529.3789,657.6443"/>
    <polygon points="527.4249,660.8723 524.8679,664.1429 522.8575,667.3372 519.8084,674.2331 518.7986,677.8698 518.1001,681.9621 517.9586,689.5006 519.2726,696.9251 521.9927,703.9572 526.017,710.3333 531.1947,715.8143 534.4652,718.3713 537.6595,720.3818 544.5554,723.4308 548.1921,724.4407 552.2844,725.1391 559.823,725.2806 567.2474,723.9666 574.2795,721.2465 577.5652,719.389 580.9528,716.9892 586.3833,711.7587 590.7041,705.5797 593.7531,698.6838 594.763,695.0471 595.4615,690.9548 595.6029,683.4163 594.289,675.9918 591.5688,668.9597 589.7114,665.674 587.3116,662.2865 582.081,656.8559 575.902,652.5351 569.0062,649.4861 565.3694,648.4762 561.2771,647.7777 553.7386,647.6363 546.3141,648.9503 539.282,651.6704 532.906,655.6947"/>
    <polygon points="530.4748,663.6294 526.3643,669.4877 523.6525,675.7028 522.1963,682.3257 522.051,689.1052 523.222,695.7843 525.665,702.11 529.2873,707.8425 533.9518,712.7644 539.4815,716.6892 546.0252,719.5867 552.648,721.0429 559.4275,721.1883 566.1067,720.0173 572.4324,717.5743 578.1648,713.9519 583.0867,709.2874 587.0116,703.7577 589.9091,697.214 591.3653,690.5912 591.5106,683.8117 590.3396,677.1325 587.8966,670.8069 584.2742,665.0744 579.6098,660.1525 574.08,656.2276 567.8946,653.4486 561.2879,651.9208 554.5104,651.702 547.4549,652.8996 541.1292,655.3426 535.3968,658.965"/>
    <polygon points="521.8497,674.6099 520.8221,678.2402 520.1707,681.9565 519.9907,689.1147 521.1971,696.1728 523.7445,702.8648 527.5368,708.9385 529.9862,711.8083 532.7159,714.4129 538.5704,718.5357 545.1111,721.4496 552.0916,723.045 555.8535,723.3326 559.6252,723.2345 566.677,721.9919 573.3559,719.4104 579.4102,715.587 584.6117,710.666 588.7644,704.8327 591.7118,698.307 592.7395,694.6767 593.3909,690.9604 593.5709,683.8022 592.3645,676.7441 589.8171,670.0521 586.0248,663.9783 581.1304,658.7517 578.1727,656.4093 574.9912,654.3812 568.4505,651.4672 561.47,649.8719 557.708,649.5842 553.9363,649.6824 546.8845,650.9249 540.2056,653.5065 534.1514,657.3298 528.9499,662.2509 524.7972,668.0842"/>
    <polygon points="532.1095,714.4296 537.9081,718.628 541.2539,720.3697 544.7586,721.7646 551.7255,723.4112 555.4838,723.7328 559.2554,723.6732 563.0016,723.2329 566.6843,722.4165 573.3719,719.862 579.4482,716.0768 582.3239,713.6358 584.9384,710.9168 589.0926,705.0865 590.8089,701.7275 592.1772,698.2124 593.7708,691.2331 594.0016,684.078 592.8612,677.0105 591.7224,673.4145 590.2262,669.9519 586.4564,663.866 584.0226,660.9841 581.3102,658.3628 575.4905,654.1938 572.1359,652.469 568.6242,651.0919 561.649,649.4806 557.8891,649.178 554.1179,649.2567 550.374,649.7159 546.6955,650.551 540.0209,653.1393 533.9638,656.9552 528.7473,661.858 524.5636,667.6672 522.8303,671.0174 521.4443,674.5256 520.4197,678.1558 519.7671,681.8709 519.5724,689.0272 520.7486,696.0888 521.9056,699.679 523.4193,703.134 527.2199,709.2007"/>
    <polygon points="538.0033,719.6317 544.9032,722.6798 552.2682,724.3094 559.8099,724.4569 567.2329,723.1165 573.9101,720.512 579.9817,716.7037 585.4831,711.543 589.8606,705.4 592.9428,698.5154 594.6089,691.1585 594.7938,683.6177 593.4902,676.1881 590.7491,669.1606 586.9108,663.1079 581.7228,657.6321 575.5582,653.2851 568.6584,650.2371 561.2934,648.6074 553.7517,648.4599 546.3286,649.8004 539.6515,652.4048 533.2813,656.4445 527.8313,661.6595 523.7009,667.5168 520.6188,674.4015 519.0011,681.3837 518.7415,688.9223 519.9714,696.3645 522.6427,703.4188 526.6508,709.8089 531.8387,715.2847"/>
    <polygon points="551.9177,725.509 559.453,725.7198 563.5733,725.22 567.2546,724.3912 574.2954,721.6981 577.9096,719.6574 580.9922,717.4811 586.4633,712.2953 590.8453,706.1614 592.731,702.4641 594.0987,698.9472 595.1233,695.3155 595.8429,691.2279 596.0357,683.6921 594.7879,676.2578 593.6362,672.6644 591.9784,668.8593 587.9768,662.4708 585.2768,659.3186 582.5464,656.714 576.402,652.3468 573.0446,650.6243 569.18,649.1107 565.5459,648.0948 561.4565,647.385 553.9203,647.2103 546.489,648.4759 542.5458,649.7711 539.0973,651.3032 535.8115,653.1585 532.4208,655.5523 526.9746,660.7642 522.6222,666.919 520.9078,670.2806 519.4034,674.1488 517.742,681.5017 517.5131,689.0365 518.7251,696.4767 519.8596,700.0756 521.4992,703.8885 523.3308,707.1876 525.7002,710.5954 530.8728,716.0789 536.9961,720.4756 540.3452,722.2141 544.2026,723.7463 547.8318,724.7796"/>
    <line x1="532.9059" x2="558.6649" y1="740.4278" y2="749.2266"/>
    <line x1="558.1635" x2="532.4045" y1="750.6944" y2="741.8956"/>
    <polygon points="532.2792,742.2625 609.9321,767.5581 533.0312,740.0609"/>
    <line x1="532.5299" x2="584.0478" y1="741.5286" y2="759.1262"/>
    <line x1="584.2985" x2="532.7805" y1="758.3924" y2="740.7947"/>
    <line x1="532.6552" x2="609.9321" y1="741.1617" y2="767.5581"/>
    <polygon points="587.7793,704.071 590.556,697.8753 592.1079,691.2657 592.3557,684.1046 591.1665,677.0386 588.7574,670.691 584.9587,664.6155 580.3071,659.6699 574.4754,655.5066 568.2871,652.7136 561.3071,651.0943 554.1443,650.9034 547.4521,652.0479 540.7598,654.6082 535.0125,658.2227 529.8062,663.1457 525.6893,669.0104 522.9455,675.2206 521.3818,682.2133 521.2189,689.0007 522.4454,696.0603 524.8882,702.395 528.4875,708.1518 533.3967,713.3712 538.9225,717.3161 545.4534,720.2638 552.4419,721.8461 559.2288,722.027 566.2917,720.8191 572.6328,718.3931 578.6983,714.5784 583.6315,709.9137"/>
    <polygon points="594.228,690.8854 594.3891,683.7184 593.1909,676.6505 592.027,673.0572 590.5095,669.5983 588.6536,666.3086 586.4778,663.221 581.5434,658.0207 578.5742,655.6861 575.3863,653.6602 572.0118,651.9634 568.4844,650.6127 564.8396,649.6217 561.1139,649.0003 553.9466,648.8571 550.1991,649.3293 546.5176,650.174 539.8362,652.7721 536.5511,654.6362 533.469,656.8197 530.6208,659.3006 528.0351,662.0539 525.7379,665.0522 523.7521,668.2652 520.9058,674.8447 519.9239,678.492 519.3119,682.2192 519.1867,689.3868 520.4203,696.4486 521.6021,700.0361 523.137,703.4874 526.9677,709.5468 529.4271,712.4135 532.1609,715.0198 538.0111,719.163 541.3771,720.8767 544.8977,722.2451 548.5375,723.2544 552.26,723.8944 556.0279,724.1589 559.8033,724.0451 563.5485,723.5541 567.2256,722.691 573.8939,720.0595 579.9437,716.2136 582.8043,713.747 585.4038,711.0067 587.7161,708.02 589.7179,704.817 592.5971,698.2518 593.5972,694.6095"/>
    <polygon points="593.1659,683.903 591.9651,676.8423 589.4078,670.1524 585.5925,664.0912 580.6663,658.8923 574.8192,654.7563 568.2767,651.8426 561.2908,650.2636 554.1312,650.08 547.0736,651.2991 540.3903,653.8737 534.339,657.7047 529.1529,662.6443 525.0321,668.5021 522.1353,675.0522 520.622,681.6675 520.3829,688.8256 521.5471,695.8924 524.0698,702.5954 527.8537,708.6763 532.7529,713.9006 538.5785,718.0668 545.1059,721.0143 552.0834,722.6295 559.2421,722.8501 566.3059,721.6676 573.0024,719.1275 579.0734,715.3279 584.285,710.4152 588.4361,704.5789 591.3667,698.0439 592.9639,691.0622"/>
    <polygon points="588.3483,670.7912 584.7571,665.0273 580.1272,660.0593 574.3034,655.8819 568.1134,653.0887 561.5026,651.5346 554.3393,651.3015 547.2771,652.5225 540.9445,654.9754 535.2,658.5974 530.0095,663.5396 526.1107,669.1 523.2331,675.6639 521.7429,682.6744 521.6677,689.465 522.8963,696.144 525.3831,702.4633 529.0358,708.1883 533.7188,713.1064 539.2581,717.035 545.8066,719.9478 552.4337,721.4309 559.2222,721.6154 566.2845,720.3944 572.6171,717.9415 578.3616,714.3195 583.552,709.3772 587.4509,703.8169 590.2108,697.612 591.7294,690.9929 591.9503,684.2055 590.7672,677.1368"/>
    <polygon points="588.4299,661.7135 585.7049,658.577 582.9584,655.9837 576.7975,651.6258 573.4375,649.8998 569.5726,648.375 565.9392,647.3419 561.8502,646.6052 558.0847,646.3053 553.9307,646.3853 549.8071,646.894 546.122,647.7238 542.1785,649.0318 538.7279,650.5687 535.1177,652.6252 532.0358,654.8094 529.1727,657.2733 526.306,660.2808 521.9482,666.4418 520.2221,669.8018 518.6973,673.6667 517.6643,677.3 516.9276,681.389 516.6276,685.1545 516.7077,689.3085 517.2163,693.4321 518.0462,697.1172 519.3542,701.0607 520.8911,704.5113 522.9475,708.1215 525.1317,711.2034 527.5957,714.0665 530.6031,716.9332 536.7641,721.2911 540.1241,723.0171 543.989,724.5419 547.6224,725.575 551.7114,726.3117 555.4768,726.6116 559.6309,726.5316 563.382,726.0867 567.4395,725.193 571.3831,723.8851 574.8337,722.3482 578.4439,720.2917 581.5258,718.1075 584.6622,715.3826 587.2555,712.6361 591.6134,706.4751 593.3394,703.1151 594.8642,699.2502 595.8973,695.6168 596.634,691.5279 596.934,687.7624 596.8539,683.6084 596.3452,679.4848 595.5154,675.7997 594.2074,671.8561 592.6705,668.4055 590.614,664.7954"/>
    <polygon points="581.902,657.2439 575.7301,652.9101 568.8323,649.8616 561.4727,648.2151 553.9334,648.0337 546.5032,649.3243 539.4668,652.0376 535.8631,654.1008 532.7968,656.3032 527.3823,661.5526 523.094,667.7562 520.0963,674.6763 518.504,682.0478 518.378,689.5882 519.7233,697.0087 522.4882,704.025 526.5668,710.3684 531.803,715.7958 537.9961,720.0992 544.9088,723.1139 552.2763,724.7243 559.8164,724.8688 567.2402,723.5417 574.2633,720.794 580.6166,716.7309 586.0568,711.508 590.3755,705.3255 593.4071,698.4202 595.0355,691.0567 595.1984,683.5169 593.8896,676.0899 591.1591,669.0601 587.1115,662.6968"/>
    <polygon points="574.6473,655.1315 568.1028,652.2181 561.1116,650.6557 553.9495,650.506 546.8991,651.775 540.5751,654.241 534.5268,658.0797 529.3565,663.0383 525.4538,668.5919 522.5404,675.1364 520.978,682.1276 520.8284,689.2898 521.9957,695.9764 524.5633,702.6642 528.4021,708.7125 533.3606,713.8827 539.2433,717.9708 545.4588,720.6988 552.45,722.2612 559.6121,722.4108 566.2988,721.2435 572.9865,718.6759 579.0348,714.8371 583.9583,710.1645 588.1078,704.325 591.0212,697.7805 592.5835,690.7892 592.7332,683.6271 591.5658,676.9405 588.9983,670.2527 585.1595,664.2044 580.4868,659.281"/>
    <polygon points="585.6908,576.8634 586.4556,578.9949 587.8152,581.2586 589.3375,582.9352 591.4599,584.5063 593.5079,585.4727 595.6965,586.0541 598.3318,586.2211 600.9435,585.8313 603.075,585.0665 605.3387,583.7069 607.0153,582.1846 608.5864,580.0622 609.5528,578.0142 610.1921,575.4522 610.3012,573.1903 609.9114,570.5786 609.1466,568.4471 607.787,566.1834 606.2647,564.5068 604.4652,563.1322 602.0943,561.9693 599.9057,561.388 597.2704,561.2209 595.0259,561.5213 592.5272,562.3755 590.2635,563.7351 588.5869,565.2574 587.0158,567.3798 586.0494,569.4278 585.4101,571.9898 585.301,574.2517"/>
    <line x1="526.8336" x2="526.711" y1="429.5781" y2="429.1789"/>
    <line x1="526.4715" x2="526.2263" y1="429.6893" y2="428.8909"/>
    <line x1="525.7417" x2="526.1094" y1="428.6029" y2="429.8005"/>
    <line x1="525.7473" x2="525.257" y1="429.9117" y2="428.3148"/>
    <line x1="524.7724" x2="525.3853" y1="428.0268" y2="430.0228"/>
    <line x1="525.0232" x2="524.2877" y1="430.134" y2="427.7387"/>
    <line x1="523.8031" x2="524.6611" y1="427.4507" y2="430.2452"/>
    <line x1="524.299" x2="523.3184" y1="430.3564" y2="427.1627"/>
    <line x1="522.8338" x2="523.937" y1="426.8746" y2="430.4675"/>
    <line x1="523.5749" x2="522.3491" y1="430.5787" y2="426.5866"/>
    <line x1="521.8645" x2="523.2128" y1="426.2986" y2="430.6899"/>
    <line x1="522.8507" x2="521.3798" y1="430.8011" y2="426.0105"/>
    <line x1="520.8952" x2="522.4887" y1="425.7225" y2="430.9122"/>
    <line x1="522.1266" x2="520.4105" y1="431.0234" y2="425.4345"/>
    <polygon points="520.4105,425.4345 517.0575,432.5798 527.1956,429.467"/>
    <line x1="520.171" x2="521.7645" y1="425.9449" y2="431.1346"/>
    <line x1="521.4024" x2="519.9315" y1="431.2457" y2="426.4552"/>
    <line x1="519.692" x2="521.0404" y1="426.9656" y2="431.3569"/>
    <line x1="520.6783" x2="519.4525" y1="431.4681" y2="427.476"/>
    <line x1="519.213" x2="520.3162" y1="427.9864" y2="431.5793"/>
    <line x1="519.9541" x2="518.9735" y1="431.6904" y2="428.4968"/>
    <line x1="518.734" x2="519.5921" y1="429.0072" y2="431.8016"/>
    <line x1="519.23" x2="518.4945" y1="431.9128" y2="429.5175"/>
    <line x1="518.255" x2="518.8679" y1="430.0279" y2="432.024"/>
    <line x1="518.5058" x2="518.0155" y1="432.1351" y2="430.5383"/>
    <line x1="517.776" x2="518.1438" y1="431.0487" y2="432.2463"/>
    <line x1="517.7817" x2="517.5365" y1="432.3575" y2="431.5591"/>
    <line x1="517.297" x2="517.4196" y1="432.0695" y2="432.4687"/>
    <line x1="482.3778" x2="415.7392" y1="396.1236" y2="450.8071"/>
    <line x1="415.9775" x2="465.9565" y1="451.0976" y2="410.0849"/>
    <line x1="463.3347" x2="413.3558" y1="406.89" y2="447.9026"/>
    <line x1="413.5941" x2="480.2327" y1="448.1931" y2="393.5096"/>
    <polygon points="487.026,380.6803 491.108,379.9144 495.46,378.6552 499.6638,376.966 503.351,375.0545 507.1541,372.5926 510.6914,369.7619 513.9272,366.591 516.6005,363.4126 519.1701,359.6813 521.3528,355.7113 523.1266,351.5425 524.3781,347.5823 525.3219,343.1512 525.8168,338.6479 525.8579,334.1176 525.4447,329.606 524.5814,325.1586 523.402,321.1763 521.704,316.9761 519.5937,312.9671 517.0922,309.1899 514.2246,305.6824 511.2992,302.7344 507.8138,299.84 504.3785,297.5059 500.404,295.3315 496.2315,293.5664 491.9031,292.2285 487.4624,291.3311 482.9541,290.8832 478.8009,290.8717 474.2902,291.2943 469.8445,292.1669 465.5087,293.4807 461.6681,295.0613 457.6636,297.1801 454.1961,299.466 450.6707,302.3115 447.4482,305.496 444.7882,308.6856 442.2342,312.4275 440.0681,316.4066 438.3118,320.5828 436.9829,324.914 436.1517,328.9832 435.6756,333.4886 435.6535,338.019 436.0323,342.1549 436.8769,346.6059 438.1635,350.9499 439.879,355.143 442.0061,359.1431 444.2993,362.6058 446.901,365.8431 450.0652,369.0854 453.2381,371.7654 456.9639,374.3428 460.9294,376.5338 465.0945,378.3163 469.4172,379.6724 473.8541,380.5884 477.9834,381.0335 482.5136,381.084"/>
    <polygon points="491.6881,379.356 495.6652,378.1544 499.856,376.4292 503.8508,374.2889 507.3054,371.9809 510.8119,369.1098 513.7561,366.1784 516.6425,362.6844 519.1606,358.9164 521.1232,355.2545 522.8667,351.0713 524.0856,347.0994 524.9888,342.6583 525.4181,338.5259 525.4471,333.994 525.0175,329.4824 524.2244,325.4042 523.0565,321.4171 521.3668,317.2118 519.4512,313.5251 516.9815,309.7252 514.1401,306.1945 510.9561,302.9694 507.4621,300.083 504.0176,297.76 500.0322,295.6023 495.8489,293.8589 491.8771,292.64 487.436,291.7368 482.9263,291.2875 478.7717,291.2784 474.26,291.7081 469.8151,292.5919 465.4823,293.9209 461.6471,295.5187 457.9768,297.4653 454.1978,299.967 450.6912,302.8381 447.7471,305.7695 445.0875,308.9613 442.5377,312.708 440.5442,316.3531 438.7655,320.5215 437.4176,324.8485 436.5144,329.2896 436.0651,333.7993 436.0561,337.9539 436.4325,342.0914 437.2787,346.5437 438.5711,350.8876 440.1364,354.7361 442.052,358.4228 444.5216,362.2227 447.3631,365.7534 450.5471,368.9785 454.0411,371.8649 457.8092,374.383 461.471,376.3456 465.6543,378.089 469.9924,379.4003 474.0672,380.2111 478.5769,380.6604 482.7315,380.6695 487.2431,380.2398"/>
    <polygon points="494.9642,376.2538 498.8064,374.6842 502.4782,372.7492 505.9449,370.4669 509.1737,367.8589 512.1341,364.9498 515.0248,361.4653 517.3371,358.0186 519.3039,354.3637 520.9067,350.5352 522.1304,346.5692 522.9633,342.5031 523.3978,338.3755 523.4295,334.2251 523.0583,330.0912 522.2876,326.0129 521.1247,322.0287 519.5807,318.1761 517.4787,314.1661 515.1888,310.7045 512.5736,307.4815 509.6581,304.5275 506.1672,301.6445 502.7154,299.3399 499.0561,297.3811 495.2241,295.7868 491.2554,294.5719 487.1875,293.7479 483.0589,293.3226 478.9084,293.3 474.7754,293.6804 470.6988,294.46 466.7171,295.6317 462.868,297.1843 459.1877,299.1031 455.711,301.3701 452.1889,304.2149 449.2414,307.137 446.5914,310.3314 444.2639,313.7679 442.2809,317.414 440.6612,321.2354 439.3264,325.5616 438.5114,329.6313 438.0952,333.7609 438.0818,337.9114 438.5266,342.4169 439.3513,346.4847 440.5668,350.4532 442.1618,354.285 444.1212,357.9438 446.4264,361.3953 449.0557,364.6067 451.9843,367.5478 455.1846,370.1907 458.6262,372.5106 462.2767,374.4855 466.1017,376.0968 470.4308,377.422 474.5023,378.228 478.6328,378.6351 482.7833,378.6393 486.9146,378.2407 490.9877,377.443"/>
    <line x1="497.1307" x2="413.8324" y1="380.1291" y2="448.4835"/>
    <line x1="413.1174" x2="446.4367" y1="447.6122" y2="420.2704"/>
    <line x1="449.5352" x2="416.2158" y1="424.0462" y2="451.388"/>
    <line x1="416.4542" x2="433.1138" y1="451.6785" y2="438.0076"/>
    <line x1="429.5387" x2="412.8791" y1="433.6509" y2="447.3218"/>
    <line x1="414.5475" x2="547.8247" y1="449.3549" y2="339.9878"/>
    <line x1="548.0631" x2="414.7858" y1="340.2783" y2="449.6453"/>
    <line x1="415.5008" x2="498.7991" y1="450.5167" y2="382.1622"/>
    <polygon points="467.3687,372.6778 471.3397,373.8909 475.0431,374.6223 482.5748,374.999 490.0386,373.9217 497.1564,371.4304 503.6629,367.6181 506.61,365.2591 509.572,362.3493 512.2085,359.1416 514.2977,355.9974 517.5197,349.1793 518.6226,345.569 519.427,341.4956 519.7674,333.9621 518.654,326.5036 516.1284,319.398 514.3634,316.061 512.0602,312.6062 506.9874,307.0264 500.937,302.5251 494.1345,299.2701 490.1635,298.057 486.4601,297.3256 478.9283,296.9489 471.4646,298.0262 464.3468,300.5175 460.6764,302.4588 457.5355,304.5528 451.9311,309.5986 449.2947,312.8063 447.2055,315.9505 443.9834,322.7686 442.1313,330.0787 441.7182,337.6086 442.7594,345.0775 443.9402,349.0582 445.3748,352.5499 449.2186,359.0379 454.2372,364.6666 460.2438,369.2262 463.8887,371.2149"/>
    <polygon points="556.2737,333.2976 412.6408,447.0313 416.6925,451.9689"/>
    <line x1="566.9731" x2="641.8299" y1="412.4798" y2="423.6813"/>
    <line x1="641.8873" x2="591.9827" y1="423.2981" y2="415.8304"/>
    <line x1="591.8107" x2="641.7152" y1="416.98" y2="424.4476"/>
    <line x1="641.7726" x2="566.9157" y1="424.0645" y2="412.863"/>
    <line x1="616.7056" x2="641.6579" y1="421.097" y2="424.8308"/>
    <line x1="641.9446" x2="616.9923" y1="422.9149" y2="419.1811"/>
    <polygon points="642.0019,422.5317 554.4683,410.8045 641.6005,425.214"/>
    <line x1="689.3978" x2="360.861" y1="423.2218" y2="427.7734"/>
    <line x1="332.2107" x2="322.5126" y1="434.5784" y2="476.6915"/>
    <line x1="322.1781" x2="331.8761" y1="476.6145" y2="434.5013"/>
    <line x1="326.6925" x2="321.8435" y1="455.4809" y2="476.5375"/>
    <polygon points="321.509,476.4604 323.1818,476.8456 334.4679,424.0116"/>
    <line x1="322.8472" x2="327.6962" y1="476.7686" y2="455.712"/>
    <line x1="276.0052" x2="207.5301" y1="484.617" y2="630.2597"/>
    <line x1="207.8766" x2="266.5695" y1="630.4226" y2="505.586"/>
    <line x1="265.8765" x2="207.1835" y1="505.2602" y2="630.0968"/>
    <line x1="206.837" x2="255.7478" y1="629.9339" y2="525.9033"/>
    <line x1="257.1339" x2="208.2231" y1="526.555" y2="630.5856"/>
    <line x1="208.5696" x2="247.6983" y1="630.7485" y2="547.524"/>
    <line x1="245.6191" x2="206.4905" y1="546.5465" y2="629.7709"/>
    <line x1="206.144" x2="235.4904" y1="629.608" y2="567.1897"/>
    <line x1="238.2626" x2="208.9161" y1="568.4931" y2="630.9114"/>
    <line x1="209.2627" x2="228.827" y1="631.0743" y2="589.4621"/>
    <line x1="225.3618" x2="205.7974" y1="587.8329" y2="629.4451"/>
    <line x1="205.4509" x2="215.2331" y1="629.2822" y2="608.4761"/>
    <line x1="219.3914" x2="209.6092" y1="610.4311" y2="631.2372"/>
    <polygon points="205.1044,629.1193 209.9557,631.4002 276.0052,484.617"/>
    <line x1="217.11" x2="241.8607" y1="622.2655" y2="628.4886"/>
    <line x1="242.5039" x2="217.7532" y1="625.9302" y2="619.7072"/>
    <line x1="217.6613" x2="267.1627" y1="620.0726" y2="632.5188"/>
    <line x1="266.7033" x2="217.2019" y1="634.3462" y2="621.9"/>
    <line x1="217.2937" x2="291.5459" y1="621.5345" y2="640.2038"/>
    <line x1="291.8215" x2="217.5694" y1="639.1074" y2="620.4381"/>
    <line x1="217.4775" x2="316.4804" y1="620.8036" y2="645.6959"/>
    <line x1="316.3885" x2="217.3856" y1="646.0614" y2="621.1691"/>
    <line x1="248.5323" x2="247.1425" y1="669.7759" y2="671.1025"/>
    <line x1="247.3991" x2="250.1787" y1="671.3713" y2="668.7181"/>
    <line x1="251.8251" x2="247.6556" y1="667.6604" y2="671.6401"/>
    <line x1="247.9122" x2="253.4715" y1="671.9089" y2="666.6026"/>
    <line x1="255.1179" x2="248.1688" y1="665.5449" y2="672.1777"/>
    <line x1="248.4253" x2="256.7643" y1="672.4465" y2="664.4871"/>
    <line x1="258.4107" x2="248.6819" y1="663.4293" y2="672.7153"/>
    <line x1="248.9385" x2="260.0571" y1="672.9841" y2="662.3716"/>
    <line x1="260.5702" x2="249.4516" y1="662.9092" y2="673.5217"/>
    <line x1="249.195" x2="261.7035" y1="673.2529" y2="661.3138"/>
    <polygon points="261.7035,661.3138 246.8859,670.8337 251.5041,675.6721"/>
    <line x1="259.4369" x2="249.7081" y1="664.5045" y2="673.7905"/>
    <line x1="249.9647" x2="258.3037" y1="674.0593" y2="666.0999"/>
    <line x1="257.1704" x2="250.2213" y1="667.6953" y2="674.3281"/>
    <line x1="250.4778" x2="256.0371" y1="674.5969" y2="669.2906"/>
    <line x1="254.9039" x2="250.7344" y1="670.886" y2="674.8657"/>
    <line x1="250.991" x2="253.7706" y1="675.1345" y2="672.4814"/>
    <line x1="252.6374" x2="251.2475" y1="674.0767" y2="675.4033"/>
    <polygon points="249.7393,699.1283 248.1574,702.1275 247.1823,705.375 246.8503,708.7495 247.1741,712.1247 248.2872,715.7226 249.926,718.691 252.1055,721.2885 255.0616,723.6221 258.0941,725.1391 261.3618,726.0441 264.7427,726.3034 268.1102,725.9071 271.3385,724.8701 274.3069,723.2313 276.9044,721.0518 279.0339,718.4131 280.6158,715.414 281.5909,712.1664 281.9192,708.4146 281.523,705.0471 280.486,701.8188 278.8471,698.8504 276.6676,696.2529 274.029,694.1234 270.6791,692.4023 267.4114,691.4973 264.0305,691.2381 260.663,691.6343 257.4347,692.6713 254.4663,694.3102 251.8688,696.4897"/>
    <line x1="256.6094" x2="286.1256" y1="725.8116" y2="738.098"/>
    <polygon points="286.2662,737.7601 241.781,719.8373 285.8443,738.7738"/>
    <line x1="285.9849" x2="256.4687" y1="738.4359" y2="726.1495"/>
    <polygon points="264.1631,747.2235 306.9422,878.978 268.8048,745.8058"/>
    <line x1="264.5202" x2="270.7445" y1="747.1144" y2="767.4934"/>
    <line x1="274.6721" x2="268.4478" y1="766.2938" y2="745.9148"/>
    <line x1="268.0907" x2="280.5394" y1="746.0239" y2="786.7818"/>
    <line x1="277.3259" x2="264.8772" y1="787.7633" y2="747.0054"/>
    <line x1="265.2343" x2="283.9073" y1="746.8963" y2="808.0333"/>
    <line x1="286.4067" x2="267.7337" y1="807.2699" y2="746.1329"/>
    <line x1="267.3766" x2="292.274" y1="746.242" y2="827.7579"/>
    <line x1="290.4887" x2="265.5914" y1="828.3032" y2="746.7872"/>
    <line x1="265.9484" x2="297.0701" y1="746.6782" y2="848.5731"/>
    <line x1="298.1413" x2="267.0196" y1="848.246" y2="746.351"/>
    <line x1="266.6625" x2="304.0086" y1="746.4601" y2="868.734"/>
    <line x1="303.6515" x2="266.3055" y1="868.843" y2="746.5691"/>
    <line x1="344.2438" x2="358.9031" y1="766.6692" y2="725.3937"/>
    <line x1="358.5504" x2="351.2207" y1="725.2684" y2="745.9062"/>
    <line x1="353.3372" x2="360.6669" y1="746.6579" y2="726.0201"/>
    <line x1="360.3141" x2="345.6548" y1="725.8948" y2="767.1703"/>
    <line x1="337.9724" x2="359.9614" y1="787.6827" y2="725.7696"/>
    <line x1="359.6086" x2="330.2899" y1="725.6443" y2="808.1952"/>
    <line x1="337.2669" x2="359.2559" y1="787.4322" y2="725.519"/>
    <polygon points="358.1976,725.1431 330.2899,808.1952 361.0196,726.1454"/>
    <line x1="361.1322" x2="342.7603" y1="719.4169" y2="709.5472"/>
    <line x1="342.9407" x2="361.3126" y1="709.2113" y2="719.081"/>
    <line x1="359.6559" x2="343.1211" y1="717.7582" y2="708.8754"/>
    <line x1="343.3016" x2="357.9991" y1="708.5396" y2="716.4353"/>
    <line x1="357.0969" x2="342.3994" y1="718.1147" y2="710.2189"/>
    <line x1="342.219" x2="355.0793" y1="710.5548" y2="717.4636"/>
    <line x1="353.0617" x2="342.0385" y1="716.8125" y2="710.8907"/>
    <line x1="341.8581" x2="351.0441" y1="711.2266" y2="716.1614"/>
    <line x1="349.0264" x2="341.6777" y1="715.5103" y2="711.5624"/>
    <line x1="341.4972" x2="347.0088" y1="711.8983" y2="714.8592"/>
    <line x1="344.9912" x2="341.3168" y1="714.2081" y2="712.2342"/>
    <line x1="341.1363" x2="342.9735" y1="712.57" y2="713.557"/>
    <line x1="342.5798" x2="359.1146" y1="709.8831" y2="718.7658"/>
    <line x1="356.3424" x2="343.482" y1="715.1125" y2="708.2037"/>
    <line x1="343.6624" x2="354.6856" y1="707.8678" y2="713.7896"/>
    <line x1="353.0288" x2="343.8429" y1="712.4668" y2="707.532"/>
    <line x1="344.0233" x2="351.3721" y1="707.1961" y2="711.144"/>
    <line x1="349.7153" x2="344.2038" y1="709.8211" y2="706.8602"/>
    <line x1="344.3842" x2="348.0586" y1="706.5243" y2="708.4983"/>
    <line x1="346.4018" x2="344.5646" y1="707.1754" y2="706.1885"/>
    <polygon points="344.7451,705.8526 340.9559,712.9059 362.141,719.7424"/>
    <polygon points="372.7313,714.1307 377.1552,715.7864 375.9664,712.2248"/>
    <line x1="373.1" x2="373.2705" y1="714.2687" y2="713.8131"/>
    <line x1="373.8097" x2="373.4687" y1="713.4954" y2="714.4067"/>
    <line x1="373.8373" x2="374.3489" y1="714.5446" y2="713.1778"/>
    <line x1="374.8881" x2="374.206" y1="712.8601" y2="714.6826"/>
    <line x1="374.5746" x2="375.4272" y1="714.8206" y2="712.5425"/>
    <line x1="375.9664" x2="374.9433" y1="712.2248" y2="714.9586"/>
    <line x1="375.3119" x2="376.1645" y1="715.0965" y2="712.8184"/>
    <line x1="376.3627" x2="375.6806" y1="713.412" y2="715.2345"/>
    <line x1="376.0493" x2="376.5608" y1="715.3725" y2="714.0056"/>
    <line x1="376.759" x2="376.4179" y1="714.5992" y2="715.5104"/>
    <line x1="376.7866" x2="376.9571" y1="715.6484" y2="715.1928"/>
    <line x1="417.0206" x2="282.2211" y1="688.1284" y2="569.8158"/>
    <polygon points="343.3817,535.6287 347.8325,534.797 352.1792,533.5291 356.0358,531.9942 360.065,529.9287 363.8702,527.4747 367.4139,524.6563 370.6615,521.5012 373.5811,518.0404 376.144,514.3078 378.3252,510.3399 379.9708,506.5293 381.3638,502.221 382.3238,497.7961 382.8413,493.298 382.9114,488.7707 382.5819,484.633 381.7962,480.1739 380.5732,475.8143 378.9251,471.5971 376.8678,467.5636 374.4217,463.7534 371.8582,460.4888 368.7368,457.2089 365.3063,454.2537 361.6003,451.6524 357.6551,449.4304 353.5096,447.6096 349.2042,446.2077 344.7813,445.2386 340.2842,444.7118 335.7571,444.6323 331.2443,445.0011 326.7901,445.8144 322.4382,447.0643 318.2313,448.7386 314.2106,450.8208 310.7223,453.0704 307.167,455.8741 303.9064,459.0158 300.9725,462.4645 298.3942,466.1866 296.1967,470.1454 294.4016,474.3021 293.0264,478.6161 292.0847,483.0449 291.5857,487.5452 291.5214,491.6955 291.8809,496.209 292.685,500.6649 293.926,505.0193 295.5915,509.2297 297.6654,513.2547 299.9079,516.7476 302.7042,520.3087 305.8391,523.5758 309.2818,526.5167 312.9985,529.1027 316.9528,531.3084 321.1059,533.1121 325.417,534.4962 329.8438,535.447 334.3431,535.9553 338.8705,536.0161"/>
    <polygon points="337.6951,515.8143 336.1177,522.0391 335.1614,528.3891 334.8357,534.8024 335.1436,541.2165 336.0822,547.5692 337.6424,553.7983 339.665,559.494 342.383,565.3119 345.4533,570.5181 349.2297,575.7119 353.4995,580.5083 358.2213,584.8604 363.3491,588.726 368.8328,592.0674 374.6192,594.8521 380.6519,597.0528 386.8721,598.6483 393.2192,599.623 399.6316,599.9674 406.0466,599.6781 412.4019,598.7579 418.2734,597.3236 424.3371,595.2098 430.1629,592.5087 435.6942,589.2466 440.877,585.4552 445.661,581.1714 449.7573,576.7272 453.6378,571.6107 456.9951,566.1366 459.7965,560.3584 462.0148,554.3321 463.6284,548.1166 464.6215,541.7723 464.9844,535.361 464.7138,528.9451 463.8121,522.5872 462.2881,516.349 460.1568,510.2915 457.4388,504.4735 454.1606,498.9517 450.3542,493.7799 446.0565,489.0084 441.3096,484.6838 436.1595,480.848 430.6564,477.5385 424.8539,474.7875 419.1699,472.7326 412.9497,471.1371 406.6025,470.1624 400.1902,469.8181 393.7751,470.1074 387.4198,471.0275 381.5484,472.4619 375.4847,474.5756 369.6588,477.2767 364.1275,480.5389 358.9447,484.3303 354.1608,488.614 349.8223,493.3484 345.9716,498.4874 342.6462,503.9808 339.8784,509.7753"/>
    <line x1="389.0001" x2="132.6695" y1="518.3492" y2="734.5966"/>
    <polygon points="154.5874,522.5516 161.0476,524.6691 167.6847,526.1409 174.4344,526.9528 180.8536,527.1064 187.6344,526.6183 194.3344,525.4656 200.8884,523.6596 207.2331,521.2176 213.3068,518.1635 219.0507,514.5267 224.409,510.3427 229.3298,505.6519 233.7654,500.4998 237.4702,495.2554 240.8437,489.3531 243.6203,483.1476 245.7731,476.6991 247.2813,470.0701 248.13,463.3249 248.3113,456.529 247.8232,449.7481 246.6705,443.0482 244.8645,436.4941 242.4225,430.1494 239.3684,424.0757 235.9484,418.6413 231.7937,413.2602 227.1299,408.3138 222.0022,403.8501 216.4603,399.9124 210.558,396.5389 204.3525,393.7622 197.904,391.6094 191.275,390.1013 184.5298,389.2525 177.7339,389.0713 170.953,389.5594 164.2531,390.712 157.699,392.5181 151.7003,394.8081 145.6099,397.8289 139.8462,401.4342 134.4651,405.5888 129.5187,410.2526 125.055,415.3803 121.1173,420.9222 117.7438,426.8245 114.9671,433.03 112.8143,439.4785 111.3062,446.1075 110.4574,452.8527 110.2762,459.6487 110.7643,466.4295 111.9169,473.1295 113.723,479.6835 116.1649,486.0282 119.2191,492.1019 122.8558,497.8458 127.0399,503.2041 131.7307,508.1249 136.8827,512.5605 142.4461,516.4678 148.3668,519.809"/>
    <line x1="115.4187" x2="247.7082" y1="464.958" y2="394.5225"/>
    <line x1="247.8913" x2="137.6501" y1="394.8665" y2="453.5627"/>
    <line x1="137.1007" x2="247.342" y1="452.5309" y2="393.8347"/>
    <line x1="247.1589" x2="158.9658" y1="393.4908" y2="440.4478"/>
    <line x1="159.8814" x2="248.0745" y1="442.1674" y2="395.2104"/>
    <line x1="248.2576" x2="182.1128" y1="395.5543" y2="430.7721"/>
    <line x1="180.831" x2="246.9757" y1="428.3646" y2="393.1468"/>
    <line x1="246.7926" x2="202.6961" y1="392.8029" y2="416.2814"/>
    <line x1="204.3442" x2="248.4407" y1="419.3768" y2="395.8983"/>
    <line x1="248.6238" x2="226.5756" y1="396.2422" y2="407.9814"/>
    <line x1="224.5612" x2="246.6095" y1="404.1982" y2="392.459"/>
    <line x1="247.5251" x2="115.2356" y1="394.1786" y2="464.6141"/>
    <line x1="203.2064" x2="210.0946" y1="444.1266" y2="443.2626"/>
    <line x1="210.0471" x2="203.1589" y1="442.884" y2="443.748"/>
    <line x1="203.8002" x2="209.9996" y1="443.2829" y2="442.5053"/>
    <line x1="209.9521" x2="204.4415" y1="442.1266" y2="442.8178"/>
    <line x1="205.0828" x2="209.9046" y1="442.3527" y2="441.7479"/>
    <line x1="209.8571" x2="205.7242" y1="441.3692" y2="441.8877"/>
    <line x1="206.3655" x2="209.8096" y1="441.4226" y2="440.9906"/>
    <line x1="209.7621" x2="207.0068" y1="440.6119" y2="440.9575"/>
    <line x1="207.6481" x2="209.7146" y1="440.4924" y2="440.2332"/>
    <line x1="209.6671" x2="208.2894" y1="439.8545" y2="440.0273"/>
    <line x1="208.9308" x2="209.6196" y1="439.5623" y2="439.4759"/>
    <line x1="210.1421" x2="203.9427" y1="443.6413" y2="444.4189"/>
    <line x1="204.679" x2="210.1896" y1="444.7112" y2="444.02"/>
    <line x1="210.2371" x2="205.4153" y1="444.3987" y2="445.0035"/>
    <line x1="206.1516" x2="210.2846" y1="445.2957" y2="444.7773"/>
    <line x1="210.3321" x2="206.888" y1="445.156" y2="445.588"/>
    <line x1="207.6243" x2="210.3796" y1="445.8803" y2="445.5347"/>
    <line x1="210.4271" x2="208.3606" y1="445.9134" y2="446.1726"/>
    <line x1="209.0969" x2="210.4746" y1="446.4649" y2="446.292"/>
    <line x1="210.5221" x2="209.8332" y1="446.6707" y2="446.7571"/>
    <polygon points="210.5696,447.0494 209.5721,439.0972 202.8382,443.9805"/>
    <polygon points="248.8069,396.5861 246.4264,392.115 104.303,470.6557"/>
    <line x1="251.6188" x2="280.451" y1="350.8665" y2="259.5001"/>
    <line x1="257.4151" x2="314.7588" y1="279.1512" y2="373.0672"/>
    <line x1="314.4464" x2="245.634" y1="373.2579" y2="260.5588"/>
    <line x1="256.7904" x2="314.1341" y1="279.5327" y2="373.4486"/>
    <line x1="313.8217" x2="267.9468" y1="373.6393" y2="298.5066"/>
    <line x1="269.1962" x2="315.0711" y1="297.7437" y2="372.8764"/>
    <line x1="315.3835" x2="280.9773" y1="372.6857" y2="316.3362"/>
    <line x1="279.1031" x2="313.5093" y1="317.4805" y2="373.8301"/>
    <line x1="313.197" x2="290.2595" y1="374.0208" y2="336.4544"/>
    <line x1="292.7584" x2="315.6959" y1="334.9286" y2="372.495"/>
    <line x1="316.0082" x2="304.5395" y1="372.3043" y2="353.5211"/>
    <line x1="301.4159" x2="312.8846" y1="355.4283" y2="374.2115"/>
    <polygon points="316.3206,372.1136 245.634,260.5588 312.5723,374.4022"/>
    <line x1="334.7054" x2="453.1178" y1="358.5798" y2="243.5417"/>
    <line x1="198.601" x2="195.7727" y1="341.9083" y2="347.8289"/>
    <line x1="196.1144" x2="198.5387" y1="347.9922" y2="342.9174"/>
    <line x1="198.4763" x2="196.4561" y1="343.9264" y2="348.1554"/>
    <line x1="196.7977" x2="198.4139" y1="348.3186" y2="344.9354"/>
    <line x1="198.3516" x2="197.1394" y1="345.9445" y2="348.4819"/>
    <line x1="197.4811" x2="198.2892" y1="348.6451" y2="346.9535"/>
    <line x1="198.2269" x2="197.8228" y1="347.9625" y2="348.8083"/>
    <polygon points="198.1645,348.9716 198.6322,341.4038 193.0391,346.5231"/>
    <line x1="195.431" x2="198.2593" y1="347.6657" y2="341.7451"/>
    <line x1="197.5136" x2="195.0893" y1="342.4277" y2="347.5025"/>
    <line x1="194.7476" x2="196.7678" y1="347.3392" y2="343.1102"/>
    <line x1="196.0221" x2="194.4059" y1="343.7928" y2="347.176"/>
    <line x1="194.0642" x2="195.2764" y1="347.0128" y2="344.4754"/>
    <line x1="194.5306" x2="193.7225" y1="345.1579" y2="346.8495"/>
    <line x1="193.3808" x2="193.7849" y1="346.6863" y2="345.8405"/>
    <line x1="179.7769" x2="181.235" y1="338.0578" y2="333.3831"/>
    <line x1="180.8752" x2="178.931" y1="333.2709" y2="339.5039"/>
    <line x1="178.0852" x2="180.5153" y1="340.9499" y2="333.1587"/>
    <line x1="180.1555" x2="177.2394" y1="333.0464" y2="342.3959"/>
    <line x1="176.3935" x2="179.7957" y1="343.8419" y2="332.9342"/>
    <line x1="179.4359" x2="175.5477" y1="332.822" y2="345.2879"/>
    <line x1="174.7018" x2="179.0761" y1="346.7339" y2="332.7098"/>
    <line x1="178.7163" x2="173.856" y1="332.5975" y2="348.1799"/>
    <line x1="173.0102" x2="178.3565" y1="349.6259" y2="332.4853"/>
    <line x1="177.9967" x2="172.1643" y1="332.3731" y2="351.072"/>
    <line x1="171.3185" x2="177.6369" y1="352.518" y2="332.2608"/>
    <line x1="177.2771" x2="170.4726" y1="332.1486" y2="353.964"/>
    <line x1="169.753" x2="176.5574" y1="353.7395" y2="331.9242"/>
    <line x1="176.9172" x2="169.6268" y1="332.0364" y2="355.41"/>
    <line x1="169.8792" x2="176.1976" y1="352.0691" y2="331.8119"/>
    <line x1="175.8378" x2="170.0055" y1="331.6997" y2="350.3986"/>
    <line x1="170.1317" x2="175.478" y1="348.7281" y2="331.5875"/>
    <line x1="175.1182" x2="170.2579" y1="331.4752" y2="347.0577"/>
    <line x1="170.3841" x2="174.7584" y1="345.3872" y2="331.363"/>
    <line x1="174.3986" x2="170.5103" y1="331.2508" y2="343.7167"/>
    <line x1="170.6366" x2="174.0388" y1="342.0462" y2="331.1386"/>
    <line x1="173.679" x2="170.7628" y1="331.0263" y2="340.3758"/>
    <line x1="170.889" x2="173.3191" y1="338.7053" y2="330.9141"/>
    <line x1="172.9593" x2="171.0152" y1="330.8019" y2="337.0348"/>
    <line x1="171.1414" x2="172.5995" y1="335.3644" y2="330.6897"/>
    <line x1="172.2397" x2="171.2677" y1="330.5774" y2="333.6939"/>
    <line x1="171.3939" x2="171.8799" y1="332.0234" y2="330.4652"/>
    <line x1="181.5948" x2="180.6227" y1="333.4954" y2="336.6118"/>
    <line x1="181.4686" x2="181.9546" y1="335.1658" y2="333.6076"/>
    <polygon points="182.3144,333.7198 171.5201,330.353 169.6268,355.41"/>
    <polygon points="406.0083,512.6027 409.3897,516.6523 413.1995,519.7337 417.8665,522.1937 422.5617,523.5953 427.8136,524.0963 433.059,523.5323 437.737,522.0744 442.0607,519.7688 446.1467,516.4315 449.4792,512.3416 451.7796,508.0152 453.232,503.3355 453.7899,498.0894 453.2827,492.8381 451.7312,487.7958 449.4101,483.4804 446.0581,479.4065 441.9561,476.0889 437.6215,473.804 432.5662,472.295 427.6884,471.8297 422.439,472.3558 417.4023,473.9255 412.7835,476.4748 409.0336,479.6289 405.9385,483.4275 403.4616,488.0857 401.9708,493.1463 401.5267,498.4032 402.0682,503.2732 403.6561,508.3042"/>
    <polygon points="399.4952,586.2577 399.4974,588.8899 400.0132,591.4712 401.0226,593.9022 402.4869,596.0896 404.3498,597.9493 406.5397,599.4098 408.9724,600.415 411.5546,600.9263 414.1868,600.9241 416.7681,600.4083 419.1991,599.3989 421.3865,597.9346 423.2462,596.0717 424.7067,593.8818 425.7119,591.4491 426.2232,588.867 426.221,586.2347 425.7052,583.6534 424.6958,581.2224 423.2315,579.035 421.3686,577.1753 419.1787,575.7148 416.746,574.7096 414.1639,574.1983 411.5316,574.2005 408.9504,574.7163 406.5193,575.7257 404.3319,577.19 402.4722,579.0529 401.0117,581.2428 400.0065,583.6755"/>
    <polygon points="328.8098,648.9902 217.8451,619.3417 217.0181,622.631"/>
    <line x1="459.1007" x2="446.2186" y1="724.2861" y2="764.4161"/>
    <polygon points="445.7957,764.2803 446.6415,764.5518 459.1007,724.2861"/>
    <line x1="435.6725" x2="436.7122" y1="811.2278" y2="811.8986"/>
    <line x1="437.5473" x2="435.4678" y1="812.8866" y2="811.545"/>
    <line x1="435.2632" x2="438.3825" y1="811.8621" y2="813.8746"/>
    <line x1="439.2176" x2="435.0586" y1="814.8625" y2="812.1793"/>
    <line x1="434.854" x2="440.0527" y1="812.4964" y2="815.8505"/>
    <line x1="440.8878" x2="434.6494" y1="816.8384" y2="812.8136"/>
    <line x1="434.4448" x2="441.723" y1="813.1308" y2="817.8264"/>
    <line x1="442.5581" x2="434.2401" y1="818.8144" y2="813.4479"/>
    <line x1="434.0355" x2="443.3932" y1="813.7651" y2="819.8023"/>
    <line x1="442.7794" x2="433.4217" y1="820.7538" y2="814.7166"/>
    <line x1="433.6263" x2="444.0237" y1="814.3994" y2="821.1074"/>
    <line x1="444.2283" x2="433.8309" y1="820.7903" y2="814.0822"/>
    <line x1="433.217" x2="441.535" y1="815.0337" y2="820.4002"/>
    <line x1="440.2906" x2="433.0124" y1="820.0465" y2="815.3509"/>
    <line x1="432.8078" x2="439.0463" y1="815.668" y2="819.6929"/>
    <line x1="437.8019" x2="432.6032" y1="819.3392" y2="815.9852"/>
    <line x1="432.3986" x2="436.5575" y1="816.3023" y2="818.9856"/>
    <line x1="435.3132" x2="432.1939" y1="818.6319" y2="816.6195"/>
    <line x1="431.9893" x2="434.0688" y1="816.9367" y2="818.2783"/>
    <line x1="432.8245" x2="431.7847" y1="817.9246" y2="817.2538"/>
    <polygon points="444.6459,821.2843 435.8771,810.9107 431.5801,817.571"/>
  </g>
</svg>
