<?xml version="1.0" encoding="utf-8" ?>
<svg xmlns="http://www.w3.org/2000/svg" xmlns:cc="http://creativecommons.org/ns" xmlns:dc="http://purl.org/dc/elements/1.1/" xmlns:ev="http://www.w3.org/2001/xml-events" xmlns:inkscape="http://www.inkscape.org/namespaces/inkscape" xmlns:rdf="http://www.w3.org/1999/02/22-rdf-syntax-ns" xmlns:sodipodi="http://sodipodi.sourceforge.net/DTD/sodipodi-0.dtd" xmlns:xlink="http://www.w3.org/1999/xlink" baseProfile="tiny" height="29.7cm" version="1.2" viewBox="0 0 793.7007874015749 1122.5196850393702" width="21.0cm">
  <metadata>
    <rdf:RDF>
      <cc:Work>
        <dc:format>image/svg+xml</dc:format>
        <dc:source>vsk save -s 74 -c C:\Users\marti\Documents\git\putti-plotter-plot\sixfeet\config\1.json C:\Users\marti\Documents\git\putti-plotter-plot\sixfeet\sketch_sixfeet.py</dc:source>
        <dc:date>2023-11-19T17:46:38.431707</dc:date>
      </cc:Work>
    </rdf:RDF>
  </metadata>
  <defs/>
  <g fill="none" id="layer1" inkscape:groupmode="layer" inkscape:label="1" stroke="#0000ff" style="display:inline">
    <polygon points="468.995,512.7972 469.9486,515.6216 471.9104,517.8661 474.5819,519.1889 477.5562,519.3888 480.3806,518.4352 482.625,516.4734 483.9479,513.802 484.1477,510.8276 483.1942,508.0033 481.2323,505.7588 478.5609,504.4359 475.5866,504.2361 472.7622,505.1896 470.5178,507.1515 469.1949,509.8229"/>
    <line x1="478.2856" x2="579.7568" y1="526.2662" y2="368.5578"/>
    <line x1="579.4461" x2="488.122" y1="368.3579" y2="510.2954"/>
    <line x1="488.7433" x2="580.0674" y1="510.6952" y2="368.7576"/>
    <line x1="580.3781" x2="499.2011" y1="368.9575" y2="495.1242"/>
    <line x1="497.9585" x2="579.1354" y1="494.3247" y2="368.158"/>
    <line x1="578.8248" x2="507.795" y1="367.9581" y2="478.354"/>
    <line x1="509.6589" x2="580.6887" y1="479.5533" y2="369.1574"/>
    <line x1="580.9994" x2="520.1167" y1="369.3573" y2="463.9823"/>
    <line x1="517.6314" x2="578.5141" y1="462.3833" y2="367.7583"/>
    <line x1="578.2035" x2="527.4679" y1="367.5584" y2="446.4126"/>
    <line x1="530.5744" x2="581.31" y1="448.4114" y2="369.5572"/>
    <line x1="581.6207" x2="541.0322" y1="369.757" y2="432.8404"/>
    <line x1="537.3043" x2="577.8928" y1="430.4419" y2="367.3585"/>
    <line x1="577.5822" x2="547.1408" y1="367.1586" y2="414.4711"/>
    <line x1="551.49" x2="581.9314" y1="417.2694" y2="369.9569"/>
    <line x1="582.242" x2="561.9478" y1="370.1568" y2="401.6985"/>
    <line x1="556.9773" x2="577.2715" y1="398.5004" y2="366.9587"/>
    <line x1="576.9609" x2="566.8137" y1="366.7589" y2="382.5297"/>
    <line x1="572.4055" x2="582.5527" y1="386.1275" y2="370.3567"/>
    <polygon points="576.6502,366.559 478.2856,526.2662 582.8633,370.5566"/>
    <line x1="564.914" x2="486.1236" y1="373.2398" y2="492.79"/>
    <line x1="485.7934" x2="584.2814" y1="492.5724" y2="343.1346"/>
    <line x1="564.2536" x2="485.4632" y1="372.8046" y2="492.3547"/>
    <line x1="485.133" x2="544.2258" y1="492.1371" y2="402.4745"/>
    <line x1="545.5466" x2="486.4538" y1="403.345" y2="493.0076"/>
    <line x1="486.784" x2="526.1792" y1="493.2252" y2="433.4501"/>
    <line x1="524.198" x2="484.8028" y1="432.1444" y2="491.9195"/>
    <line x1="484.4726" x2="504.1702" y1="491.7019" y2="461.8143"/>
    <line x1="506.8118" x2="487.1142" y1="463.5553" y2="493.4428"/>
    <polygon points="487.4444,493.6605 584.2814,343.1346 484.1424,491.4842"/>
    <polygon points="491.8816,513.9524 491.4597,519.2851 496.1975,519.6599 496.6194,514.3272"/>
    <line x1="462.695" x2="358.0538" y1="534.4743" y2="508.7651"/>
    <line x1="380.2336" x2="379.8061" y1="501.7178" y2="497.1331"/>
    <line x1="380.1854" x2="380.7554" y1="497.0977" y2="503.2107"/>
    <line x1="381.2772" x2="380.5648" y1="504.7036" y2="497.0624"/>
    <line x1="380.9441" x2="381.799" y1="497.027" y2="506.1965"/>
    <line x1="382.3208" x2="381.3234" y1="507.6894" y2="496.9916"/>
    <line x1="381.7027" x2="382.8426" y1="496.9563" y2="509.1823"/>
    <line x1="383.3644" x2="382.082" y1="510.6751" y2="496.9209"/>
    <line x1="382.4613" x2="383.8862" y1="496.8855" y2="512.168"/>
    <line x1="384.4081" x2="382.8406" y1="513.6609" y2="496.8502"/>
    <line x1="383.2199" x2="384.9299" y1="496.8148" y2="515.1538"/>
    <line x1="386.0678" x2="384.3579" y1="515.0477" y2="496.7087"/>
    <line x1="384.7372" x2="386.3046" y1="496.6733" y2="513.4841"/>
    <line x1="386.5414" x2="385.1165" y1="511.9204" y2="496.638"/>
    <line x1="385.4958" x2="386.7782" y1="496.6026" y2="510.3568"/>
    <line x1="387.0151" x2="385.8751" y1="508.7932" y2="496.5672"/>
    <line x1="386.2544" x2="387.2519" y1="496.5319" y2="507.2296"/>
    <line x1="387.4887" x2="386.6337" y1="505.666" y2="496.4965"/>
    <line x1="387.0131" x2="387.7255" y1="496.4611" y2="504.1024"/>
    <line x1="387.9623" x2="387.3924" y1="502.5388" y2="496.4258"/>
    <line x1="387.7717" x2="388.1992" y1="496.3904" y2="500.9751"/>
    <line x1="388.436" x2="388.151" y1="499.4115" y2="496.355"/>
    <line x1="388.5303" x2="388.6728" y1="496.3197" y2="497.8479"/>
    <polygon points="388.9096,496.2843 378.6682,497.2392 385.7126,517.3931"/>
    <line x1="383.9786" x2="385.831" y1="496.7441" y2="516.6113"/>
    <line x1="385.4517" x2="383.5992" y1="516.6467" y2="496.7794"/>
    <line x1="379.4268" x2="379.7118" y1="497.1685" y2="500.225"/>
    <line x1="379.19" x2="379.0475" y1="498.7321" y2="497.2038"/>
    <line x1="426.0271" x2="740.78" y1="453.7675" y2="362.9643"/>
    <line x1="550.8117" x2="546.8119" y1="480.8952" y2="497.5048"/>
    <line x1="546.4482" x2="550.448" y1="497.4172" y2="480.8076"/>
    <line x1="549.6398" x2="546.0844" y1="482.5655" y2="497.3296"/>
    <line x1="545.7207" x2="548.8316" y1="497.242" y2="484.3234"/>
    <line x1="550.6504" x2="547.5394" y1="484.7614" y2="497.68"/>
    <line x1="547.1757" x2="550.7311" y1="497.5924" y2="482.8283"/>
    <line x1="550.5697" x2="547.9032" y1="486.6945" y2="497.7676"/>
    <line x1="548.267" x2="550.4891" y1="497.8552" y2="488.6276"/>
    <line x1="550.4084" x2="548.6307" y1="490.5607" y2="497.9428"/>
    <line x1="548.9945" x2="550.3277" y1="498.0304" y2="492.4938"/>
    <line x1="550.2471" x2="549.3582" y1="494.427" y2="498.118"/>
    <line x1="549.722" x2="550.1664" y1="498.2056" y2="496.3601"/>
    <polygon points="550.0857,498.2932 550.8521,479.9286 543.1744,496.6288"/>
    <line x1="545.3569" x2="548.0234" y1="497.1544" y2="486.0813"/>
    <line x1="547.2153" x2="544.9931" y1="487.8392" y2="497.0668"/>
    <line x1="544.6294" x2="546.4071" y1="496.9792" y2="489.5972"/>
    <line x1="545.5989" x2="544.2656" y1="491.3551" y2="496.8916"/>
    <line x1="543.9019" x2="544.7907" y1="496.804" y2="493.113"/>
    <line x1="543.9825" x2="543.5381" y1="494.8709" y2="496.7164"/>
    <line x1="491.4829" x2="492.3464" y1="424.9307" y2="421.3704"/>
    <line x1="491.9937" x2="491.1301" y1="421.2848" y2="424.8451"/>
    <line x1="490.95" x2="491.6409" y1="424.0475" y2="421.1992"/>
    <line x1="491.2881" x2="490.77" y1="421.1137" y2="423.2499"/>
    <line x1="490.5899" x2="490.9353" y1="422.4522" y2="421.0281"/>
    <line x1="490.5826" x2="490.4098" y1="420.9425" y2="421.6546"/>
    <line x1="492.6992" x2="492.0083" y1="421.4559" y2="424.3042"/>
    <line x1="492.5338" x2="493.052" y1="423.6777" y2="421.5415"/>
    <line x1="493.4048" x2="493.0593" y1="421.6271" y2="423.0512"/>
    <line x1="493.5848" x2="493.7575" y1="422.4247" y2="421.7126"/>
    <polygon points="494.1103,421.7982 490.2298,420.857 491.2201,425.244"/>
    <line x1="395.8703" x2="214.9248" y1="353.9056" y2="401.3303"/>
    <line x1="189.6654" x2="189.1983" y1="358.4194" y2="358.4984"/>
    <line x1="189.135" x2="190.069" y1="358.1239" y2="357.9659"/>
    <line x1="190.4727" x2="189.0717" y1="357.5124" y2="357.7494"/>
    <line x1="189.0083" x2="190.8763" y1="357.3749" y2="357.0589"/>
    <line x1="191.28" x2="188.945" y1="356.6054" y2="357.0004"/>
    <line x1="188.8816" x2="191.6836" y1="356.6259" y2="356.1519"/>
    <line x1="192.0873" x2="188.8183" y1="355.6984" y2="356.2514"/>
    <line x1="188.7549" x2="192.491" y1="355.8769" y2="355.2449"/>
    <line x1="192.8946" x2="188.6916" y1="354.7914" y2="355.5024"/>
    <line x1="188.6282" x2="193.2983" y1="355.1279" y2="354.338"/>
    <line x1="192.7679" x2="188.5649" y1="354.0424" y2="354.7534"/>
    <line x1="188.5016" x2="192.2376" y1="354.3789" y2="353.7469"/>
    <line x1="191.7072" x2="188.4382" y1="353.4514" y2="354.0044"/>
    <line x1="188.3749" x2="191.1769" y1="353.6299" y2="353.1559"/>
    <line x1="190.6465" x2="188.3115" y1="352.8604" y2="353.2554"/>
    <line x1="188.2482" x2="190.1162" y1="352.8809" y2="352.5649"/>
    <line x1="189.5858" x2="188.1848" y1="352.2694" y2="352.5064"/>
    <line x1="188.1215" x2="189.0555" y1="352.1319" y2="351.9739"/>
    <line x1="188.5251" x2="188.0581" y1="351.6784" y2="351.7574"/>
    <polygon points="187.9948,351.3829 189.2617,358.8729 193.2983,354.338"/>
    <line x1="173.1483" x2="102.6753" y1="370.2843" y2="441.4478"/>
    <line x1="158.6571" x2="159.3793" y1="446.3794" y2="444.8218"/>
    <line x1="160.4372" x2="158.9928" y1="443.42" y2="446.535"/>
    <line x1="159.3285" x2="161.4951" y1="446.6907" y2="442.0181"/>
    <line x1="162.553" x2="159.6642" y1="440.6162" y2="446.8463"/>
    <line x1="160.0" x2="163.6109" y1="447.002" y2="439.2144"/>
    <line x1="164.6688" x2="160.3357" y1="437.8125" y2="447.1577"/>
    <line x1="160.6714" x2="165.7267" y1="447.3133" y2="436.4106"/>
    <line x1="166.7846" x2="161.0071" y1="435.0087" y2="447.469"/>
    <line x1="161.3428" x2="167.8425" y1="447.6247" y2="433.6069"/>
    <line x1="169.1853" x2="162.6857" y1="434.2295" y2="448.2473"/>
    <line x1="162.35" x2="169.5718" y1="448.0916" y2="432.5163"/>
    <line x1="168.9004" x2="161.6786" y1="432.205" y2="447.7803"/>
    <line x1="162.0143" x2="169.9583" y1="447.936" y2="430.8031"/>
    <line x1="168.7989" x2="163.0214" y1="435.9427" y2="448.403"/>
    <line x1="163.3571" x2="168.4124" y1="448.5586" y2="437.6559"/>
    <line x1="168.0259" x2="163.6929" y1="439.3691" y2="448.7143"/>
    <line x1="164.0286" x2="167.6395" y1="448.87" y2="441.0823"/>
    <line x1="167.253" x2="164.3643" y1="442.7955" y2="449.0256"/>
    <line x1="164.7" x2="166.8666" y1="449.1813" y2="444.5087"/>
    <line x1="166.4801" x2="165.0357" y1="446.2219" y2="449.3369"/>
    <line x1="165.3715" x2="166.0936" y1="449.4926" y2="447.9351"/>
    <polygon points="165.7072,449.6483 169.9583,430.8031 158.3214,446.2237"/>
    <polygon points="177.2362,499.3335 179.2708,506.2579 182.7513,503.9888"/>
    <line x1="177.4212" x2="180.8528" y1="499.963" y2="505.2265"/>
    <line x1="181.1692" x2="177.7376" y1="505.0202" y2="499.7567"/>
    <line x1="178.7403" x2="181.4857" y1="500.6031" y2="504.8139"/>
    <line x1="181.8021" x2="179.7431" y1="504.6076" y2="501.4495"/>
    <line x1="180.7458" x2="182.1185" y1="502.2959" y2="504.4013"/>
    <line x1="182.4349" x2="181.7486" y1="504.195" y2="503.1424"/>
    <line x1="180.5364" x2="177.7911" y1="505.4328" y2="501.222"/>
    <line x1="178.161" x2="180.22" y1="502.481" y2="505.6391"/>
    <line x1="179.9036" x2="178.531" y1="505.8454" y2="503.74"/>
    <line x1="178.9009" x2="179.5872" y1="504.999" y2="506.0517"/>
    <line x1="203.2872" x2="204.3406" y1="487.3494" y2="487.9466"/>
    <line x1="205.5804" x2="203.4736" y1="488.2148" y2="487.0206"/>
    <line x1="203.6601" x2="206.8203" y1="486.6917" y2="488.483"/>
    <line x1="208.0601" x2="203.8465" y1="488.7512" y2="486.3628"/>
    <line x1="204.0329" x2="209.2999" y1="486.0339" y2="489.0195"/>
    <line x1="209.8592" x2="204.5922" y1="488.0328" y2="485.0472"/>
    <line x1="204.7787" x2="208.9922" y1="484.7183" y2="487.1068"/>
    <line x1="208.1253" x2="204.9651" y1="486.1808" y2="484.3894"/>
    <line x1="205.1515" x2="207.2583" y1="484.0605" y2="485.2548"/>
    <line x1="206.3913" x2="205.338" y1="484.3287" y2="483.7316"/>
    <line x1="204.4058" x2="210.7262" y1="485.3761" y2="488.9588"/>
    <line x1="210.5397" x2="204.2194" y1="489.2877" y2="485.705"/>
    <polygon points="211.1597,489.4218 205.5244,483.4027 203.1008,487.6783"/>
    <line x1="141.93" x2="141.3898" y1="524.2089" y2="527.9535"/>
    <line x1="141.0157" x2="141.6331" y1="527.8995" y2="523.62"/>
    <line x1="141.3361" x2="140.6416" y1="523.0311" y2="527.8455"/>
    <line x1="140.2675" x2="141.0392" y1="527.7916" y2="522.4421"/>
    <line x1="140.7423" x2="139.8934" y1="521.8532" y2="527.7376"/>
    <line x1="139.5193" x2="140.291" y1="527.6836" y2="522.3342"/>
    <line x1="139.8397" x2="139.1452" y1="522.8152" y2="527.6297"/>
    <line x1="138.7711" x2="139.3885" y1="527.5757" y2="523.2961"/>
    <line x1="138.9372" x2="138.397" y1="523.7771" y2="527.5217"/>
    <line x1="138.0229" x2="138.4859" y1="527.4677" y2="524.2581"/>
    <line x1="138.0347" x2="137.6488" y1="524.7391" y2="527.4138"/>
    <line x1="137.2747" x2="137.5834" y1="527.3598" y2="525.22"/>
    <line x1="137.1321" x2="136.9006" y1="525.701" y2="527.3058"/>
    <line x1="136.5265" x2="136.6808" y1="527.2519" y2="526.182"/>
    <line x1="136.2296" x2="136.1524" y1="526.663" y2="527.1979"/>
    <line x1="141.7638" x2="142.2269" y1="528.0075" y2="524.7978"/>
    <line x1="142.5238" x2="142.1379" y1="525.3867" y2="528.0614"/>
    <line x1="142.512" x2="142.8207" y1="528.1154" y2="525.9756"/>
    <line x1="143.1177" x2="142.8861" y1="526.5645" y2="528.1694"/>
    <line x1="143.2602" x2="143.4146" y1="528.2233" y2="527.1534"/>
    <line x1="143.7115" x2="143.6343" y1="527.7424" y2="528.2773"/>
    <polygon points="144.0084,528.3313 140.7423,521.8532 135.7783,527.1439"/>
    <line x1="226.7621" x2="333.9046" y1="582.5768" y2="609.2693"/>
    <line x1="333.9964" x2="262.568" y1="608.9009" y2="591.1059"/>
    <line x1="262.3845" x2="333.8128" y1="591.8427" y2="609.6377"/>
    <line x1="333.7211" x2="298.0069" y1="610.0061" y2="601.1086"/>
    <line x1="298.374" x2="334.0882" y1="599.635" y2="608.5325"/>
    <polygon points="334.18,608.1641 226.7621,582.5768 333.6293,610.3745"/>
    <line x1="347.6766" x2="609.1441" y1="620.1537" y2="682.3564"/>
    <line x1="559.0692" x2="559.2143" y1="646.9562" y2="646.2402"/>
    <line x1="558.9843" x2="558.6939" y1="645.4482" y2="646.8801"/>
    <line x1="558.3187" x2="558.7543" y1="646.804" y2="644.6561"/>
    <line x1="558.5242" x2="557.9435" y1="643.8641" y2="646.7279"/>
    <line x1="557.5683" x2="558.2942" y1="646.6518" y2="643.072"/>
    <line x1="558.0642" x2="557.1931" y1="642.28" y2="646.5757"/>
    <line x1="556.8179" x2="557.8341" y1="646.4996" y2="641.4879"/>
    <line x1="557.6041" x2="556.4427" y1="640.6959" y2="646.4236"/>
    <line x1="556.0674" x2="557.3741" y1="646.3475" y2="639.9039"/>
    <line x1="557.144" x2="555.6922" y1="639.1118" y2="646.2714"/>
    <line x1="555.317" x2="556.914" y1="646.1953" y2="638.3198"/>
    <line x1="556.684" x2="554.9418" y1="637.5277" y2="646.1192"/>
    <line x1="554.5666" x2="556.4539" y1="646.0431" y2="636.7357"/>
    <line x1="555.7035" x2="553.8162" y1="636.5835" y2="645.891"/>
    <line x1="554.1914" x2="556.2239" y1="645.967" y2="635.9436"/>
    <line x1="555.1831" x2="553.4409" y1="637.2234" y2="645.8149"/>
    <line x1="553.0657" x2="554.6627" y1="645.7388" y2="637.8633"/>
    <line x1="554.1423" x2="552.6905" y1="638.5031" y2="645.6627"/>
    <line x1="552.3153" x2="553.6219" y1="645.5866" y2="639.143"/>
    <line x1="553.1015" x2="551.9401" y1="639.7829" y2="645.5105"/>
    <line x1="551.5649" x2="552.5811" y1="645.4344" y2="640.4227"/>
    <line x1="552.0607" x2="551.1896" y1="641.0626" y2="645.3584"/>
    <line x1="550.8144" x2="551.5403" y1="645.2823" y2="641.7025"/>
    <line x1="551.0199" x2="550.4392" y1="642.3424" y2="645.2062"/>
    <line x1="550.064" x2="550.4995" y1="645.1301" y2="642.9822"/>
    <line x1="549.9792" x2="549.6888" y1="643.6221" y2="645.054"/>
    <line x1="549.3136" x2="549.4588" y1="644.9779" y2="644.262"/>
    <polygon points="548.9384,644.9018 559.4444,647.0322 556.2239,635.9436"/>
    <line x1="456.9478" x2="410.7131" y1="651.8083" y2="780.929"/>
    <line x1="411.066" x2="448.0538" y1="781.0554" y2="677.7588"/>
    <line x1="446.995" x2="410.0073" y1="677.3797" y2="780.6763"/>
    <line x1="409.6544" x2="437.3952" y1="780.5499" y2="703.0775"/>
    <line x1="439.1598" x2="411.419" y1="703.7093" y2="781.1818"/>
    <line x1="411.7719" x2="430.2657" y1="781.3081" y2="729.6598"/>
    <line x1="427.7953" x2="409.3015" y1="728.7752" y2="780.4236"/>
    <line x1="408.9485" x2="418.1955" y1="780.2972" y2="754.473"/>
    <line x1="421.3717" x2="412.1248" y1="755.6104" y2="781.4345"/>
    <polygon points="412.4777,781.5609 461.3948,638.833 408.5956,780.1708"/>
    <line x1="410.3602" x2="456.5949" y1="780.8027" y2="651.6819"/>
    <line x1="434.1696" x2="433.8045" y1="656.3332" y2="655.6884"/>
    <line x1="433.4774" x2="434.2077" y1="655.8736" y2="657.1631"/>
    <line x1="434.2458" x2="433.1504" y1="657.9931" y2="656.0588"/>
    <line x1="432.8234" x2="434.2839" y1="656.244" y2="658.823"/>
    <line x1="434.3219" x2="432.4963" y1="659.653" y2="656.4292"/>
    <line x1="432.1693" x2="434.36" y1="656.6144" y2="660.4829"/>
    <line x1="434.3981" x2="431.8423" y1="661.3129" y2="656.7996"/>
    <line x1="431.5152" x2="434.4362" y1="656.9848" y2="662.1428"/>
    <line x1="434.4743" x2="431.1882" y1="662.9728" y2="657.17"/>
    <line x1="430.8612" x2="434.5124" y1="657.3552" y2="663.8027"/>
    <line x1="434.5504" x2="430.5341" y1="664.6327" y2="657.5404"/>
    <line x1="430.2071" x2="434.5885" y1="657.7256" y2="665.4627"/>
    <line x1="433.9345" x2="429.553" y1="665.833" y2="658.096"/>
    <line x1="429.8801" x2="434.6266" y1="657.9108" y2="666.2926"/>
    <polygon points="434.6266,666.2926 434.1315,655.5032 425.6286,660.3184"/>
    <line x1="433.2423" x2="429.226" y1="665.3735" y2="658.2812"/>
    <line x1="428.8989" x2="432.5501" y1="658.4664" y2="664.9139"/>
    <line x1="431.858" x2="428.5719" y1="664.4544" y2="658.6516"/>
    <line x1="428.2449" x2="431.1658" y1="658.8368" y2="663.9948"/>
    <line x1="430.4737" x2="427.9178" y1="663.5353" y2="659.022"/>
    <line x1="427.5908" x2="429.7815" y1="659.2072" y2="663.0757"/>
    <line x1="429.0894" x2="427.2638" y1="662.6162" y2="659.3924"/>
    <line x1="426.9367" x2="428.3972" y1="659.5776" y2="662.1566"/>
    <line x1="427.7051" x2="426.6097" y1="661.697" y2="659.7628"/>
    <line x1="426.2827" x2="427.0129" y1="659.948" y2="661.2375"/>
    <line x1="426.3208" x2="425.9556" y1="660.7779" y2="660.1332"/>
    <line x1="430.0417" x2="394.2838" y1="634.7802" y2="791.368"/>
    <polygon points="399.8136,743.8524 398.7002,740.2576 396.8903,736.9581 394.4569,734.0874 391.8147,731.9666 388.8335,730.3568 385.2425,729.2311 381.4989,728.8463 377.754,729.2182 374.1592,730.3316 371.1725,731.9311 368.2533,734.3062 365.8683,737.2172 364.1136,740.5464 363.0604,744.1593 362.748,747.5329 363.1199,751.2778 364.0896,754.5241 365.8328,757.8593 368.2078,760.7785 371.1188,763.1636 374.1,764.7733 377.691,765.8991 381.4346,766.2838 385.1795,765.912 388.7743,764.7986 391.761,763.1991 394.6801,760.824 397.0652,757.913 398.675,754.9318 399.8008,751.3408 400.1855,747.5973"/>
    <polygon points="372.2506,745.7126 415.6758,627.4018 96.3461,510.1938 52.9208,628.5046"/>
    <line x1="410.2045" x2="410.9269" y1="716.7542" y2="716.9545"/>
    <line x1="410.3069" x2="411.7516" y1="716.3851" y2="716.7859"/>
    <line x1="412.5763" x2="410.4093" y1="716.6172" y2="716.0161"/>
    <line x1="410.5116" x2="413.401" y1="715.6471" y2="716.4485"/>
    <line x1="414.2256" x2="410.614" y1="716.2799" y2="715.278"/>
    <line x1="410.7164" x2="415.0503" y1="714.909" y2="716.1112"/>
    <line x1="415.875" x2="410.8187" y1="715.9425" y2="714.54"/>
    <line x1="410.9211" x2="416.6997" y1="714.1709" y2="715.7738"/>
    <line x1="417.5244" x2="411.0234" y1="715.6052" y2="713.8019"/>
    <line x1="411.1258" x2="418.3491" y1="713.4329" y2="715.4365"/>
    <line x1="419.1738" x2="411.2282" y1="715.2678" y2="713.0638"/>
    <line x1="411.3305" x2="419.9985" y1="712.6948" y2="715.0992"/>
    <line x1="420.8232" x2="411.4329" y1="714.9305" y2="712.3257"/>
    <line x1="411.5353" x2="421.6479" y1="711.9567" y2="714.7618"/>
    <polygon points="421.6479,714.7618 412.9684,706.7902 410.1022,717.1232"/>
    <line x1="421.028" x2="411.6376" y1="714.1924" y2="711.5877"/>
    <line x1="411.74" x2="420.408" y1="711.2186" y2="713.623"/>
    <line x1="419.788" x2="411.8424" y1="713.0536" y2="710.8496"/>
    <line x1="411.9447" x2="419.1681" y1="710.4806" y2="712.4842"/>
    <line x1="418.5481" x2="412.0471" y1="711.9148" y2="710.1115"/>
    <line x1="412.1495" x2="417.9281" y1="709.7425" y2="711.3454"/>
    <line x1="417.3082" x2="412.2518" y1="710.776" y2="709.3735"/>
    <line x1="412.3542" x2="416.6882" y1="709.0044" y2="710.2066"/>
    <line x1="416.0682" x2="412.4566" y1="709.6372" y2="708.6354"/>
    <line x1="412.5589" x2="415.4483" y1="708.2664" y2="709.0678"/>
    <line x1="414.8283" x2="412.6613" y1="708.4984" y2="707.8973"/>
    <line x1="412.7637" x2="414.2083" y1="707.5283" y2="707.929"/>
    <line x1="413.5884" x2="412.866" y1="707.3596" y2="707.1592"/>
    <line x1="436.1369" x2="531.4533" y1="736.362" y2="851.2838"/>
    <line x1="531.1578" x2="435.8414" y1="851.5289" y2="736.6071"/>
    <line x1="451.432" x2="530.8623" y1="756.0058" y2="851.7739"/>
    <line x1="530.5668" x2="467.0226" y1="852.019" y2="775.4045"/>
    <line x1="468.5" x2="532.0442" y1="774.1792" y2="850.7937"/>
    <line x1="531.7487" x2="452.3184" y1="851.0387" y2="755.2706"/>
    <polygon points="482.9675,735.9105 571.8949,694.399 504.9024,550.8852 415.9749,592.3967"/>
    <polygon points="471.1783,716.7449 457.6634,704.7482 454.4553,709.8956"/>
    <line x1="471.1783" x2="456.0593" y1="716.7449" y2="707.3219"/>
    <line x1="455.8588" x2="469.0879" y1="707.6436" y2="715.8887"/>
    <line x1="469.489" x2="456.2598" y1="715.2453" y2="707.0002"/>
    <line x1="456.4603" x2="467.7996" y1="706.6784" y2="713.7457"/>
    <line x1="466.9976" x2="455.6583" y1="715.0325" y2="707.9653"/>
    <line x1="455.4578" x2="464.9072" y1="708.287" y2="714.1764"/>
    <line x1="462.8168" x2="455.2573" y1="713.3202" y2="708.6087"/>
    <line x1="455.0568" x2="460.7264" y1="708.9304" y2="712.4641"/>
    <line x1="458.636" x2="454.8563" y1="711.6079" y2="709.2521"/>
    <line x1="454.6558" x2="456.5456" y1="709.5738" y2="710.7517"/>
    <line x1="456.6609" x2="466.1102" y1="706.3567" y2="712.2461"/>
    <line x1="464.4209" x2="456.8614" y1="710.7465" y2="706.035"/>
    <line x1="457.0619" x2="462.7315" y1="705.7133" y2="709.2469"/>
    <line x1="461.0421" x2="457.2624" y1="707.7474" y2="705.3916"/>
    <line x1="457.4629" x2="459.3528" y1="705.0699" y2="706.2478"/>
    <line x1="484.6815" x2="532.3397" y1="793.0877" y2="850.5486"/>
    <line x1="532.6351" x2="500.863" y1="850.3035" y2="811.9963"/>
    <line x1="498.2038" x2="529.9759" y1="814.2019" y2="852.5091"/>
    <line x1="530.2714" x2="482.6132" y1="852.264" y2="794.8032"/>
    <polygon points="451.0701,799.9823 454.1602,801.2923 457.5166,801.2921 460.2923,800.1871 462.7306,797.8806 464.075,794.8053 464.1122,791.4492 462.8362,788.3449 460.7591,786.1974 457.6989,784.8189 454.3434,784.7443 451.225,785.9857 449.0546,788.0387 447.642,791.0833 447.5301,794.4378 448.7366,797.5698"/>
    <line x1="513.7944" x2="529.6804" y1="833.6005" y2="852.7542"/>
    <polygon points="529.385,852.9992 533.2261,849.8134 428.0461,726.9077"/>
    <line x1="532.9306" x2="517.0445" y1="850.0585" y2="830.9049"/>
    <polygon points="321.1887,798.2716 324.8847,797.5181 328.7015,795.8942 331.8075,793.7538 334.4491,791.0612 336.5298,787.9149 338.0804,784.0678 338.7631,780.358 338.7271,776.5861 337.8596,772.53 336.3497,769.0733 334.2093,765.9674 331.5167,763.3257 328.0351,761.071 324.5232,759.6944 320.8135,759.0117 317.0416,759.0477 313.3456,759.8013 309.8606,761.2447 306.4228,763.5656 303.7812,766.2582 301.7005,769.4045 300.257,772.8894 299.4671,776.9614 299.5032,780.7333 300.2567,784.4293 301.7001,787.9142 304.021,791.352 306.7136,793.9937 310.1952,796.2484 313.7071,797.625 317.4168,798.3077"/>
    <line x1="221.8461" x2="221.8247" y1="776.7939" y2="776.3807"/>
    <line x1="221.4361" x2="221.4789" y1="776.4008" y2="777.2273"/>
    <line x1="221.1117" x2="221.0475" y1="777.6606" y2="776.4209"/>
    <line x1="220.6589" x2="220.7445" y1="776.441" y2="778.094"/>
    <line x1="220.3773" x2="220.2704" y1="778.5274" y2="776.4611"/>
    <line x1="219.8818" x2="220.0101" y1="776.4812" y2="778.9607"/>
    <line x1="219.6429" x2="219.4932" y1="779.3941" y2="776.5013"/>
    <line x1="219.1046" x2="219.2757" y1="776.5214" y2="779.8275"/>
    <line x1="218.8657" x2="218.716" y1="779.4343" y2="776.5415"/>
    <line x1="218.3274" x2="218.4557" y1="776.5617" y2="779.0412"/>
    <line x1="218.0457" x2="217.9388" y1="778.648" y2="776.5818"/>
    <line x1="217.5502" x2="217.6358" y1="776.6019" y2="778.2549"/>
    <line x1="217.2258" x2="217.1616" y1="777.8617" y2="776.622"/>
    <line x1="216.773" x2="216.8158" y1="776.6421" y2="777.4686"/>
    <line x1="216.4058" x2="216.3844" y1="777.0755" y2="776.6622"/>
    <polygon points="215.9958,776.6823 219.2757,779.8275 222.2133,776.3605"/>
    <polygon points="221.1351,714.499 230.2626,714.7878 225.9614,706.3466"/>
    <line x1="221.5154" x2="221.5373" y1="714.5111" y2="713.8197"/>
    <line x1="221.9395" x2="221.8957" y1="713.1403" y2="714.5231"/>
    <line x1="222.276" x2="222.3417" y1="714.5351" y2="712.4609"/>
    <line x1="222.7439" x2="222.6564" y1="711.7816" y2="714.5472"/>
    <line x1="223.0367" x2="223.146" y1="714.5592" y2="711.1022"/>
    <line x1="223.5482" x2="223.417" y1="710.4228" y2="714.5712"/>
    <line x1="223.7973" x2="223.9504" y1="714.5833" y2="709.7435"/>
    <line x1="224.3526" x2="224.1776" y1="709.0641" y2="714.5953"/>
    <line x1="224.5579" x2="224.7548" y1="714.6073" y2="708.3847"/>
    <line x1="225.157" x2="224.9382" y1="707.7054" y2="714.6194"/>
    <line x1="225.3186" x2="225.5592" y1="714.6314" y2="707.026"/>
    <line x1="226.3198" x2="226.0792" y1="707.0501" y2="714.6555"/>
    <line x1="226.4595" x2="226.6782" y1="714.6675" y2="707.7535"/>
    <line x1="227.0367" x2="226.8398" y1="708.4569" y2="714.6795"/>
    <line x1="227.2201" x2="227.3951" y1="714.6916" y2="709.1604"/>
    <line x1="227.7536" x2="227.6004" y1="709.8638" y2="714.7036"/>
    <line x1="227.9807" x2="228.112" y1="714.7156" y2="710.5672"/>
    <line x1="228.4704" x2="228.3611" y1="711.2707" y2="714.7277"/>
    <line x1="228.7414" x2="228.8289" y1="714.7397" y2="711.9741"/>
    <line x1="229.1873" x2="229.1217" y1="712.6775" y2="714.7517"/>
    <line x1="229.502" x2="229.5458" y1="714.7638" y2="713.381"/>
    <line x1="229.9042" x2="229.8823" y1="714.0844" y2="714.7758"/>
    <line x1="225.6989" x2="225.9614" y1="714.6434" y2="706.3466"/>
    <polygon points="207.1878,698.3887 155.9853,785.399 225.9238,826.5553 277.1262,739.545"/>
    <line x1="178.0244" x2="152.2978" y1="716.0396" y2="716.0492"/>
    <line x1="152.2982" x2="178.0248" y1="717.0784" y2="717.0688"/>
    <line x1="178.0247" x2="126.5714" y1="716.7257" y2="716.745"/>
    <line x1="126.5713" x2="178.0246" y1="716.402" y2="716.3826"/>
    <line x1="120.3611" x2="220.1574" y1="720.518" y2="872.0725"/>
    <polygon points="253.0825,701.7118 261.1696,700.852 256.4633,694.2195"/>
    <line x1="253.2362" x2="253.8177" y1="701.3712" y2="701.6336"/>
    <line x1="254.5529" x2="253.3899" y1="701.5555" y2="701.0307"/>
    <line x1="253.5436" x2="255.2881" y1="700.6901" y2="701.4773"/>
    <line x1="256.0233" x2="253.6972" y1="701.3992" y2="700.3496"/>
    <line x1="253.8509" x2="256.7585" y1="700.009" y2="701.321"/>
    <line x1="257.4937" x2="254.0046" y1="701.2428" y2="699.6684"/>
    <line x1="254.1582" x2="258.2289" y1="699.3279" y2="701.1647"/>
    <line x1="258.9641" x2="254.3119" y1="701.0865" y2="698.9873"/>
    <line x1="254.4656" x2="259.6993" y1="698.6468" y2="701.0083"/>
    <line x1="260.4345" x2="254.6192" y1="700.9302" y2="698.3062"/>
    <line x1="254.7729" x2="261.1696" y1="697.9656" y2="700.852"/>
    <line x1="260.7418" x2="254.9266" y1="700.249" y2="697.6251"/>
    <line x1="255.0803" x2="260.3139" y1="697.2845" y2="699.6461"/>
    <line x1="259.8861" x2="255.2339" y1="699.0431" y2="696.9439"/>
    <line x1="255.3876" x2="259.4582" y1="696.6034" y2="698.4402"/>
    <line x1="259.0304" x2="255.5413" y1="697.8372" y2="696.2628"/>
    <line x1="255.6949" x2="258.6025" y1="695.9223" y2="697.2342"/>
    <line x1="258.1747" x2="255.8486" y1="696.6313" y2="695.5817"/>
    <line x1="256.0023" x2="257.7468" y1="695.2411" y2="696.0283"/>
    <line x1="257.319" x2="256.1559" y1="695.4254" y2="694.9006"/>
    <line x1="256.3096" x2="256.8911" y1="694.56" y2="694.8224"/>
    <polygon points="243.2859,638.3212 238.3706,633.6251 232.7265,629.1943 226.6697,625.3469 220.2602,622.1212 213.9203,619.6678 207.3773,617.823 200.315,616.5539 193.1614,615.9937 185.9876,616.148 179.2372,616.9519 172.2278,618.4867 165.7592,620.5772 159.1773,623.4349 152.9124,626.9332 147.0266,631.0373 141.8532,635.4476 136.8693,640.6098 132.4237,646.2421 128.5605,652.2888 125.318,658.6899 122.7284,665.3817 120.8174,672.298 119.6502,678.9952 119.1088,686.1502 119.2819,693.3235 120.1677,700.4441 121.6566,707.0771 123.899,713.8932 126.8083,720.4524 130.1537,726.3704 134.2733,732.2454 138.9569,737.6814 144.1581,742.6246 149.5163,746.8083 155.5731,750.6557 161.9827,753.8814 168.3226,756.3348 174.8656,758.1796 181.9279,759.4487 189.0815,760.0089 196.2552,759.8546 203.3781,758.9874 210.015,757.5159 216.837,755.2914 223.4037,752.3993 229.6502,748.8682 235.2163,744.9653 240.6646,740.2959 245.6213,735.1077 249.8191,729.7605 253.6824,723.7138 256.9249,717.3127 259.5145,710.6209 261.4255,703.7046 262.5927,697.0075 263.1341,689.8525 262.961,682.6791 262.1394,675.9308 260.5863,668.9255 258.3439,662.1094 255.4346,655.5502 251.8871,649.313 247.9696,643.7572"/>
    <line x1="259.37" x2="271.7941" y1="633.081" y2="556.2901"/>
    <polygon points="274.5758,541.4956 274.6562,538.5621 271.6986,540.9181"/>
    <line x1="274.5758" x2="273.1774" y1="541.4956" y2="539.7401"/>
    <line x1="272.8816" x2="274.0004" y1="539.9757" y2="541.3801"/>
    <line x1="273.4249" x2="272.5859" y1="541.2646" y2="540.2113"/>
    <line x1="272.2901" x2="272.8495" y1="540.4469" y2="541.1491"/>
    <line x1="272.2741" x2="271.9944" y1="541.0336" y2="540.6825"/>
    <line x1="273.4732" x2="274.5919" y1="539.5045" y2="540.9089"/>
    <line x1="274.608" x2="273.7689" y1="540.3222" y2="539.2689"/>
    <line x1="274.0647" x2="274.624" y1="539.0333" y2="539.7355"/>
    <line x1="274.6401" x2="274.3604" y1="539.1488" y2="538.7977"/>
    <polygon points="287.367,601.9316 275.8322,607.0546 288.452,606.8648"/>
    <line x1="287.4504" x2="285.5924" y1="602.3111" y2="602.7198"/>
    <line x1="283.8178" x2="287.5339" y1="603.5079" y2="602.6905"/>
    <line x1="287.6174" x2="282.0432" y1="603.07" y2="604.2961"/>
    <line x1="280.2687" x2="287.7008" y1="605.0842" y2="603.4495"/>
    <line x1="287.7843" x2="278.4941" y1="603.829" y2="605.8724"/>
    <line x1="278.7445" x2="288.0347" y1="607.0108" y2="604.9674"/>
    <line x1="288.1182" x2="280.686" y1="605.3469" y2="606.9816"/>
    <line x1="282.6275" x2="288.2016" y1="606.9524" y2="605.7263"/>
    <line x1="288.2851" x2="284.569" y1="606.1058" y2="606.9232"/>
    <line x1="286.5105" x2="288.3686" y1="606.894" y2="606.4853"/>
    <line x1="287.9512" x2="276.803" y1="604.5879" y2="607.04"/>
    <line x1="276.7195" x2="287.8678" y1="606.6606" y2="604.2084"/>
    <polygon points="310.2422,604.8544 303.0866,605.4151 296.0226,606.6861 289.1203,608.6547 282.4486,611.3014 276.4009,614.4103 270.6738,618.0764 265.0328,622.5144 260.1217,627.2177 255.4442,632.6616 251.3324,638.5446 247.8273,644.8081 244.9639,651.3896 242.8689,657.8589 241.3941,664.497 240.5247,671.6217 240.3696,678.7975 240.9303,685.953 242.1169,692.6487 244.0492,699.5612 246.5068,705.9016 249.7379,712.3106 253.5916,718.3658 258.0296,724.0068 262.7329,728.9179 268.1769,733.5955 274.0598,737.7072 279.9852,741.0435 286.5516,743.9415 293.3741,746.1707 300.3848,747.709 307.5139,748.5409 314.3127,748.67 321.4682,748.1093 328.5323,746.8383 335.4345,744.8697 341.7619,742.3788 348.1539,739.1141 354.1887,735.2286 359.522,731.01 364.4331,726.3067 369.1107,720.8628 373.2224,714.9798 376.5587,709.0545 379.4567,702.488 381.6859,695.6655 383.1607,689.0274 384.0301,681.9027 384.1852,674.7269 383.6245,667.5714 382.3535,660.5073 380.3849,653.6051 377.7383,646.9334 374.6293,640.8857 370.7438,634.8509 366.5253,629.5176 361.822,624.6065 356.378,619.929 350.495,615.8172 344.2315,612.3121 338.0033,609.5829 331.1807,607.3537 324.17,605.8154 317.418,605.0095"/>
    <polygon points="299.6934,623.5988 443.1863,615.345 422.1972,250.4472 278.7043,258.701"/>
    <line x1="396.4375" x2="411.936" y1="621.5779" y2="610.699"/>
    <line x1="412.4521" x2="414.2076" y1="610.6707" y2="615.7106"/>
    <line x1="414.5676" x2="412.5614" y1="615.5852" y2="609.8252"/>
    <line x1="412.6707" x2="414.9277" y1="608.9798" y2="615.4598"/>
    <line x1="415.2878" x2="412.78" y1="615.3344" y2="608.1344"/>
    <line x1="412.8893" x2="415.6479" y1="607.289" y2="615.209"/>
    <line x1="416.0079" x2="412.9986" y1="615.0836" y2="606.4436"/>
    <polygon points="412.9986,606.4436 411.687,616.5885 420.3288,613.5786"/>
    <line x1="413.6095" x2="416.368" y1="607.0382" y2="614.9581"/>
    <line x1="416.7281" x2="414.2203" y1="614.8327" y2="607.6328"/>
    <line x1="414.8312" x2="417.0882" y1="608.2274" y2="614.7073"/>
    <line x1="417.4482" x2="415.442" y1="614.5819" y2="608.8219"/>
    <line x1="416.0529" x2="417.8083" y1="609.4165" y2="614.4565"/>
    <line x1="418.1684" x2="416.6637" y1="614.3311" y2="610.0111"/>
    <line x1="417.2746" x2="418.5285" y1="610.6057" y2="614.2057"/>
    <line x1="418.8885" x2="417.8854" y1="614.0802" y2="611.2003"/>
    <line x1="418.4963" x2="419.2486" y1="611.7948" y2="613.9548"/>
    <line x1="419.6087" x2="419.1071" y1="613.8294" y2="612.3894"/>
    <line x1="419.718" x2="419.9688" y1="612.984" y2="613.704"/>
    <line x1="413.8309" x2="398.3324" y1="613.3985" y2="624.2775"/>
    <polygon points="398.5429,624.5774 482.6268,563.0935 396.227,621.278"/>
    <line x1="398.1219" x2="429.1189" y1="623.9775" y2="602.2196"/>
    <line x1="427.6451" x2="396.6481" y1="600.12" y2="621.8779"/>
    <line x1="396.8586" x2="443.3541" y1="622.1778" y2="589.541"/>
    <line x1="444.4069" x2="397.9113" y1="591.0407" y2="623.6776"/>
    <line x1="397.7008" x2="459.6948" y1="623.3776" y2="579.8618"/>
    <line x1="459.0632" x2="397.0691" y1="578.962" y2="622.4778"/>
    <line x1="397.2797" x2="474.7723" y1="622.7777" y2="568.383"/>
    <line x1="474.9828" x2="397.4902" y1="568.6829" y2="623.0777"/>
    <polygon points="408.0049,623.4335 411.6057,618.1167 414.8432,612.1383 417.3281,606.2172 419.3268,599.7188 420.5988,593.4247 421.2608,587.0376 421.3066,580.6164 420.683,573.8463 419.4652,567.5414 417.6477,561.3826 415.0886,555.0839 412.0955,549.4028 408.5709,544.0352 404.2958,538.7487 399.7845,534.179 394.5533,529.8364 389.2314,526.2432 383.5892,523.1774 377.3238,520.5375 370.8227,518.548 364.5268,517.2849 358.1387,516.632 351.7174,516.5953 345.3223,517.1752 339.0124,518.3663 332.8459,520.1576 326.5364,522.69 320.8426,525.659 315.4601,529.1608 310.4387,533.1632 305.5668,537.9053 301.202,543.118 297.5862,548.4246 294.4965,554.0538 291.8301,560.3079 289.8131,566.8006 288.5233,573.091 287.8432,579.4763 287.7793,585.8973 288.3837,592.6692 289.5837,598.9774 291.3838,605.1414 293.9251,611.4473 297.0941,617.4623 300.6339,622.8199 304.6716,627.813 309.17,632.3954 314.3889,636.7527 319.7006,640.361 325.3341,643.4428 331.592,646.1003 338.0875,648.1082 344.3798,649.3891 350.766,650.0601 357.1872,650.115 363.5839,649.5532 370.2647,648.2921 376.7827,646.3586 382.7284,643.9331 388.739,640.7555 394.0915,637.2082 399.3599,632.9107 403.9103,628.3801"/>
    <line x1="412.0471" x2="411.7963" y1="616.4631" y2="615.7431"/>
    <line x1="412.4072" x2="411.9056" y1="616.3377" y2="614.8977"/>
    <line x1="412.0149" x2="412.7673" y1="614.0523" y2="616.2123"/>
    <line x1="413.1273" x2="412.1242" y1="616.0869" y2="613.2069"/>
    <line x1="412.2335" x2="413.4874" y1="612.3615" y2="615.9615"/>
    <line x1="413.8475" x2="412.3428" y1="615.836" y2="611.5161"/>
    <polygon points="403.156,563.5649 402.6861,557.5434 401.6243,551.5978 399.9809,545.7859 397.9262,540.5093 395.2065,535.1165 391.9679,530.0185 388.242,525.265 384.0651,520.9024 379.4781,516.9733 374.5257,513.516 369.2563,510.5644 364.0741,508.2822 358.3392,506.3876 352.4453,505.0683 346.45,504.337 340.7893,504.192 334.7644,504.6153 328.8107,505.6312 322.9863,507.2297 317.3482,509.3952 311.9512,512.1065 306.8482,515.3373 302.0889,519.0558 297.9806,522.9528 294.0162,527.5094 290.5209,532.4349 287.5287,537.6813 285.0688,543.1975 283.1654,548.9294 281.8369,554.8213 281.0964,560.8154 280.9511,566.8534 281.4023,572.8763 282.4458,578.8252 284.0712,584.6421 286.2628,590.2702 288.8126,595.3262 292.0355,600.4342 295.7467,605.1992 299.91,609.5747 304.4849,613.5179 309.1079,616.7879 314.3497,619.7882 319.862,622.2565 325.591,624.1688 331.4808,625.5064 337.4738,626.2562 343.5116,626.4108 349.5351,625.9689 355.4857,624.9346 361.3051,623.3182 366.9365,621.1353 371.9964,618.5933 377.1094,615.3783 381.8802,611.6745 386.2621,607.5179 390.2124,602.9491 393.6925,598.0128 396.6685,592.7571 399.1113,587.2334 400.997,581.4956 402.3073,575.5997 403.0293,569.6033"/>
    <polygon points="319.302,410.4328 333.0883,402.498 317.2778,404.2446"/>
    <line x1="319.183" x2="320.9239" y1="410.0688" y2="409.4993"/>
    <line x1="319.0639" x2="322.5458" y1="409.7048" y2="408.5658"/>
    <line x1="324.1678" x2="318.9448" y1="407.6323" y2="409.3408"/>
    <line x1="318.8257" x2="325.7897" y1="408.9768" y2="406.6988"/>
    <line x1="327.4116" x2="318.7067" y1="405.7653" y2="408.6128"/>
    <line x1="318.5876" x2="329.0335" y1="408.2487" y2="404.8318"/>
    <line x1="330.6554" x2="318.4685" y1="403.8982" y2="407.8847"/>
    <line x1="318.3494" x2="332.2773" y1="407.5207" y2="402.9647"/>
    <line x1="332.1582" x2="318.2304" y1="402.6007" y2="407.1567"/>
    <line x1="318.1113" x2="330.2982" y1="406.7927" y2="402.8062"/>
    <line x1="328.4381" x2="317.9922" y1="403.0117" y2="406.4287"/>
    <line x1="317.8731" x2="326.5781" y1="406.0646" y2="403.2172"/>
    <line x1="324.718" x2="317.7541" y1="403.4226" y2="405.7006"/>
    <line x1="317.635" x2="322.8579" y1="405.3366" y2="403.6281"/>
    <line x1="320.9979" x2="317.5159" y1="403.8336" y2="404.9726"/>
    <line x1="317.3968" x2="319.1378" y1="404.6086" y2="404.0391"/>
    <polygon points="340.6453,264.3401 335.9004,263.0774 331.0539,262.2899 326.1532,261.9854 321.2465,262.1667 316.3817,262.8322 311.6066,263.9752 306.9678,265.5847 302.8462,267.4708 298.5958,269.9291 294.6092,272.7955 290.9255,276.0419 287.5807,279.6365 284.6076,283.5442 282.0354,287.7265 279.8891,292.1427 278.1899,296.7494 276.9543,301.5015 276.1946,306.3524 275.922,310.8769 276.094,315.7839 276.7502,320.65 277.8842,325.4273 279.4849,330.0691 281.5365,334.5301 283.8133,338.4494 286.6721,342.4414 289.9115,346.1313 293.4997,349.4829 297.4017,352.4634 301.5792,355.0436 305.9912,357.1983 310.5947,358.9063 315.3444,360.1509 319.8184,360.8778 324.7178,361.2011 329.6252,361.0384 334.4925,360.3915 339.2719,359.2666 343.9168,357.6748 348.0456,355.8044 352.3053,353.3623 356.3028,350.5111 359.9988,347.2788 363.3572,343.6969 366.3452,339.8006 368.9334,335.6281 371.0964,331.2201 372.8132,326.6199 374.0668,321.8726 374.8451,317.0246 375.1403,312.1234 374.9496,307.217 374.2749,302.3535 373.1227,297.5805 371.5044,292.9448 369.4358,288.4917 366.9372,284.265 364.2701,280.6 361.0167,276.9225 357.4157,273.5846 353.5024,270.6189 349.3151,268.0546 344.8949,265.9168"/>
    <polygon points="113.708,716.5783 178.025,717.4118 178.0243,715.6965"/>
  </g>
</svg>
