<?xml version="1.0" encoding="utf-8" ?>
<svg xmlns="http://www.w3.org/2000/svg" xmlns:cc="http://creativecommons.org/ns" xmlns:dc="http://purl.org/dc/elements/1.1/" xmlns:ev="http://www.w3.org/2001/xml-events" xmlns:inkscape="http://www.inkscape.org/namespaces/inkscape" xmlns:rdf="http://www.w3.org/1999/02/22-rdf-syntax-ns" xmlns:sodipodi="http://sodipodi.sourceforge.net/DTD/sodipodi-0.dtd" xmlns:xlink="http://www.w3.org/1999/xlink" baseProfile="tiny" height="29.7cm" version="1.2" viewBox="0 0 793.7007874015749 1122.5196850393702" width="21.0cm">
  <metadata>
    <rdf:RDF>
      <cc:Work>
        <dc:format>image/svg+xml</dc:format>
        <dc:source/>
        <dc:date>2022-11-14T21:54:32.110349</dc:date>
      </cc:Work>
    </rdf:RDF>
  </metadata>
  <defs/>
  <g fill="none" id="layer1" inkscape:groupmode="layer" inkscape:label="1" stroke="#0000ff" style="display:inline">
    <polygon points="206.7202,940.2502 207.056,940.2502"/>
    <line x1="206.1038" x2="206.1038" y1="940.7363" y2="940.7363"/>
    <line x1="206.0507" x2="207.789" y1="941.921" y2="938.4529"/>
    <line x1="208.7453" x2="205.2593" y1="936.5449" y2="943.5"/>
    <line x1="207.9983" x2="207.9983" y1="941.6887" y2="941.6887"/>
    <line x1="210.1162" x2="210.1162" y1="942.6798" y2="942.6798"/>
    <line x1="213.104" x2="213.104" y1="944.0442" y2="944.0442"/>
    <line x1="203.323" x2="210.6398" y1="947.3633" y2="932.765"/>
    <line x1="213.9666" x2="200.6046" y1="926.1272" y2="952.7871"/>
    <line x1="216.9078" x2="216.9078" y1="954.9899" y2="954.9899"/>
    <line x1="190.0894" x2="228.7739" y1="973.7671" y2="896.5838"/>
    <line x1="254.8927" x2="163.2372" y1="844.4716" y2="1027.3426"/>
    <line x1="166.3134" x2="166.3134" y1="1009.277" y2="998.8597"/>
    <line x1="166.3134" x2="173.2583" y1="1003.8203" y2="1003.8203"/>
    <line x1="173.2583" x2="173.2583" y1="998.8597" y2="1009.277"/>
    <polygon points="184.1717,1005.3085 184.1717,1002.8282 183.6756,1001.34 183.1796,1000.3479 182.1874,999.3558 180.6992,998.8597 177.2268,998.8597 177.2268,1009.277 180.6992,1009.277 182.1874,1008.781 183.1796,1007.7888"/>
    <polyline points="196.5733,1000.8439 197.5654,1000.3479 199.0536,998.8597 199.0536,1009.277"/>
    <polygon points="207.9827,998.8597 206.4945,999.3558 205.5024,1000.8439 205.0063,1004.8125 205.5024,1007.2928 206.4945,1008.781 207.9827,1009.277 208.9748,1009.277 210.463,1008.781 211.4551,1007.2928 211.9512,1003.3243 211.4551,1000.8439 210.463,999.3558 208.9748,998.8597"/>
    <polyline points="216.4158,1000.8439 217.4079,1000.3479 218.8961,998.8597 218.8961,1009.277"/>
    <polygon points="231.2977,1000.3479 230.8016,999.3558 229.3134,998.8597 227.3292,998.8597 225.841,999.3558 225.3449,1000.3479 225.3449,1001.34 225.841,1002.3321 230.3055,1003.8203 231.2977,1004.8125 231.7937,1005.8046 231.7937,1007.2928 231.2977,1008.2849 230.8016,1008.781 229.3134,1009.277 227.3292,1009.277 225.841,1008.781 224.8488,1007.2928 224.8488,1005.8046 225.3449,1004.8125 226.337,1003.8203 230.8016,1002.3321 231.2977,1001.34"/>
    <polygon points="234.7701,1004.8125 235.2662,1007.2928 236.2583,1008.781 237.7465,1009.277 238.7386,1009.277 240.2268,1008.781 241.2189,1007.2928 241.715,1003.3243 241.2189,1000.8439 240.2268,999.3558 238.7386,998.8597 237.7465,998.8597 236.2583,999.3558 235.2662,1000.8439"/>
    <line x1="256.6778" x2="256.6778" y1="953.9175" y2="953.9175"/>
    <line x1="353.5772" x2="353.5772" y1="998.8597" y2="1009.277"/>
    <line x1="353.5772" x2="360.5221" y1="1005.8046" y2="998.8597"/>
    <line x1="363.9945" x2="367.963" y1="1003.8203" y2="1003.8203"/>
    <polyline points="373.4197,1004.3164 377.8843,1004.3164 379.3725,1003.8203 380.3646,1002.3321 380.3646,1000.8439 379.8685,999.8518 379.3725,999.3558 377.8843,998.8597 373.4197,998.8597 373.4197,1009.277"/>
    <polyline points="370.4433,1009.277 363.9945,1009.277 363.9945,998.8597 370.4433,998.8597"/>
    <polyline points="383.837,998.8597 383.837,1009.277 389.7898,1009.277"/>
    <line x1="392.2701" x2="396.2386" y1="1003.8203" y2="1003.8203"/>
    <polyline points="401.6953,1003.8203 406.1599,1003.8203 407.6481,1003.3243 408.6402,1001.8361 408.6402,1000.8439 408.1441,999.8518 407.6481,999.3558 406.1599,998.8597 401.6953,998.8597 401.6953,1009.277"/>
    <polyline points="398.7189,1009.277 392.2701,1009.277 392.2701,998.8597 398.7189,998.8597"/>
    <line x1="405.1677" x2="408.6402" y1="1003.8203" y2="1009.277"/>
    <line x1="412.1126" x2="421.0418" y1="1004.8125" y2="1004.8125"/>
    <polyline points="426.0024,1000.8439 426.9945,1000.3479 428.4827,998.8597 428.4827,1009.277"/>
    <polyline points="434.4355,1007.2928 435.4276,1008.781 436.9158,1009.277 438.404,1009.277 439.8922,1008.781 440.8843,1007.7888 441.3803,1006.3006 441.3803,1005.3085 440.8843,1003.8203 440.3882,1003.3243 439.3961,1002.8282 437.9079,1002.8282 440.8843,998.8597 435.4276,998.8597"/>
    <polygon points="448.3252,998.8597 447.3331,998.8597 445.8449,999.3558 444.8528,1000.8439 444.3567,1004.8125 444.8528,1007.2928 445.8449,1008.781 447.3331,1009.277 448.3252,1009.277 449.8134,1008.781 450.8055,1007.2928 451.3016,1003.3243 450.8055,1000.8439 449.8134,999.3558"/>
    <line x1="460.1625" x2="437.8986" y1="1010.6061" y2="898.1142"/>
    <line x1="441.4402" x2="441.4402" y1="942.4246" y2="942.4246"/>
    <polygon points="446.7306,951.4385 445.5388,951.8831 444.9106,953.2585 445.5388,954.6339 446.7306,955.0785 447.9224,954.6339 448.5506,953.2585 447.9224,951.8831"/>
    <polygon points="452.7059,956.6536 453.1505,955.4618 452.7059,954.27 451.3305,953.6418 449.9551,954.27 449.5105,955.4618 449.9551,956.6536 451.3305,957.2818"/>
    <line x1="470.7531" x2="423.7854" y1="963.4269" y2="943.8231"/>
    <polygon points="470.7848,935.7942 470.7304,935.5193"/>
    <line x1="475.7448" x2="386.6973" y1="1022.1494" y2="796.1853"/>
    <polyline points="383.837,800.4345 383.837,810.8518 389.7898,810.8518"/>
    <line x1="392.2701" x2="396.2386" y1="805.3951" y2="805.3951"/>
    <polyline points="401.6953,805.3951 406.1599,805.3951 407.6481,804.8991 408.6402,803.4109 408.6402,802.4188 408.1441,801.4266 407.6481,800.9306 406.1599,800.4345 401.6953,800.4345 401.6953,810.8518"/>
    <polyline points="398.7189,810.8518 392.2701,810.8518 392.2701,800.4345 398.7189,800.4345"/>
    <line x1="405.1677" x2="408.6402" y1="805.3951" y2="810.8518"/>
    <line x1="412.1126" x2="421.0418" y1="806.3873" y2="806.3873"/>
    <polyline points="425.0103,802.9148 425.5063,801.4266 426.9945,800.4345 428.9788,800.4345 429.9709,800.9306 430.963,802.4188 430.963,803.4109 429.4748,805.8912 424.5142,810.8518 431.4591,810.8518"/>
    <polygon points="440.8843,808.8676 441.3803,804.8991 440.8843,802.4188 439.8922,800.9306 438.404,800.4345 437.4118,800.4345 435.9237,800.9306 434.9315,802.4188 434.4355,806.3873 434.9315,808.8676 435.9237,810.3558 437.4118,810.8518 438.404,810.8518 439.8922,810.3558"/>
    <polyline points="444.3567,808.8676 445.3488,810.3558 446.837,810.8518 448.3252,810.8518 449.8134,810.3558 450.8055,809.3636 451.3016,807.8754 451.3016,806.8833 450.8055,805.3951 450.3095,804.8991 449.3174,804.403 447.8292,804.403 450.8055,800.4345 445.3488,800.4345"/>
    <line x1="419.1987" x2="381.7116" y1="778.8239" y2="750.5032"/>
    <polygon points="379.8278,746.8173 379.7974,746.6152"/>
    <polygon points="400.8473,752.8044 401.1834,753.0583"/>
    <polygon points="397.426,764.794 397.6477,765.8088 398.3815,766.8756 399.4934,767.539 400.5204,767.6948 401.7791,767.3912 402.622,766.7843 403.2107,765.9285 403.4871,764.6635 403.2107,763.3986 402.622,762.5428 401.5397,761.8321 400.2596,761.6379 399.2498,761.8814 398.199,762.638 397.5597,763.7639"/>
    <polygon points="415.7509,771.2532 416.0139,770.9721 415.7984,770.8712"/>
    <line x1="429.6266" x2="371.2837" y1="748.5526" y2="780.7745"/>
    <polyline points="370.4433,800.4345 363.9945,800.4345 363.9945,810.8518 370.4433,810.8518"/>
    <polyline points="373.4197,810.8518 373.4197,800.4345 377.8843,800.4345 379.3725,800.9306 379.8685,801.4266 380.3646,802.4188 380.3646,803.9069 379.3725,805.3951 377.8843,805.8912 373.4197,805.8912"/>
    <line x1="367.963" x2="363.9945" y1="805.3951" y2="805.3951"/>
    <line x1="360.5221" x2="353.5772" y1="800.4345" y2="807.3794"/>
    <line x1="353.5772" x2="353.5772" y1="810.8518" y2="800.4345"/>
    <line x1="356.0575" x2="360.5221" y1="804.8991" y2="810.8518"/>
    <line x1="380.4653" x2="420.445" y1="815.5056" y2="713.8215"/>
    <line x1="408.6402" x2="405.1677" y1="612.4266" y2="606.9699"/>
    <polyline points="401.6953,606.9699 406.1599,606.9699 407.6481,606.4739 408.6402,604.9857 408.6402,603.9936 408.1441,603.0014 407.6481,602.5054 406.1599,602.0093 401.6953,602.0093 401.6953,612.4266"/>
    <polyline points="398.7189,612.4266 392.2701,612.4266 392.2701,602.0093 398.7189,602.0093"/>
    <line x1="396.2386" x2="392.2701" y1="606.9699" y2="606.9699"/>
    <polyline points="389.7898,612.4266 383.837,612.4266 383.837,602.0093"/>
    <line x1="387.1106" x2="413.7997" y1="599.0559" y2="519.745"/>
    <line x1="397.7525" x2="403.1578" y1="533.8514" y2="584.9495"/>
    <line x1="397.8267" x2="397.8267" y1="580.2142" y2="580.2142"/>
    <line x1="409.7717" x2="409.7717" y1="568.3157" y2="568.3157"/>
    <polygon points="401.3894,558.4662 400.4551,558.0792 399.5209,558.4662 399.1339,559.4005 399.5209,560.3347 400.4551,560.7217 401.3894,560.3347 401.7764,559.4005"/>
    <line x1="370.4735" x2="370.4735" y1="576.9427" y2="576.9427"/>
    <polyline points="370.4433,602.0093 363.9945,602.0093 363.9945,612.4266 370.4433,612.4266"/>
    <polyline points="373.4197,612.4266 373.4197,602.0093 377.8843,602.0093 379.3725,602.5054 379.8685,603.0014 380.3646,603.9936 380.3646,605.4817 379.3725,606.9699 377.8843,607.466 373.4197,607.466"/>
    <line x1="367.963" x2="363.9945" y1="606.9699" y2="606.9699"/>
    <line x1="360.5221" x2="353.5772" y1="602.0093" y2="608.9542"/>
    <line x1="353.5772" x2="353.5772" y1="612.4266" y2="602.0093"/>
    <line x1="356.0575" x2="360.5221" y1="606.4739" y2="612.4266"/>
    <line x1="371.8783" x2="429.032" y1="622.6079" y2="496.193"/>
    <polyline points="434.9315,412.5132 435.4276,413.5054 436.9158,414.0014 437.9079,414.0014 439.3961,413.5054 440.3882,412.0172 440.8843,409.5369 440.8843,407.0565 440.3882,405.0723 439.3961,404.0802 437.9079,403.5841 435.9237,404.0802 434.9315,405.0723 434.4355,407.0565 434.9315,408.5447 435.9237,409.5369 437.9079,410.0329 439.3961,409.5369 440.3882,408.5447 440.8843,407.0565"/>
    <polygon points="450.8055,405.0723 450.3095,404.0802 448.8213,403.5841 446.837,403.5841 445.3488,404.0802 444.8528,405.0723 444.8528,406.0644 445.3488,407.0565 449.8134,408.5447 450.8055,409.5369 451.3016,410.529 451.3016,412.0172 450.8055,413.0093 450.3095,413.5054 448.8213,414.0014 446.837,414.0014 445.3488,413.5054 444.3567,412.0172 444.3567,410.529 444.8528,409.5369 445.8449,408.5447 449.3174,407.5526 450.3095,407.0565 450.8055,406.0644"/>
    <line x1="444.4369" x2="356.4734" y1="396.8902" y2="342.1087"/>
    <line x1="380.7863" x2="420.124" y1="338.3903" y2="400.6086"/>
    <polyline points="425.5063,403.5841 430.963,403.5841 427.9866,407.5526 429.4748,407.5526 430.963,408.5447 431.4591,410.0329 431.4591,411.0251 430.963,412.5132 429.9709,413.5054 428.4827,414.0014 426.9945,414.0014 425.5063,413.5054 424.5142,412.0172"/>
    <line x1="421.0418" x2="412.1126" y1="409.5369" y2="409.5369"/>
    <line x1="408.6402" x2="405.1677" y1="414.0014" y2="408.5447"/>
    <polyline points="401.6953,408.5447 406.1599,408.5447 407.6481,408.0487 408.6402,406.5605 408.6402,405.5684 408.1441,404.5762 407.6481,404.0802 406.1599,403.5841 401.6953,403.5841 401.6953,414.0014"/>
    <polyline points="398.7189,414.0014 392.2701,414.0014 392.2701,403.5841 398.7189,403.5841"/>
    <line x1="396.2386" x2="392.2701" y1="408.5447" y2="408.5447"/>
    <polyline points="389.7898,414.0014 383.837,414.0014 383.837,403.5841"/>
    <polyline points="373.4197,409.0408 377.8843,409.0408 379.3725,408.5447 380.3646,407.0565 380.3646,405.5684 379.8685,404.5762 379.3725,404.0802 377.8843,403.5841 373.4197,403.5841 373.4197,414.0014"/>
    <polyline points="370.4433,414.0014 363.9945,414.0014 363.9945,403.5841 370.4433,403.5841"/>
    <line x1="367.963" x2="363.9945" y1="408.5447" y2="408.5447"/>
    <line x1="360.5221" x2="353.5772" y1="403.5841" y2="410.529"/>
    <line x1="353.5772" x2="353.5772" y1="414.0014" y2="403.5841"/>
    <line x1="356.0575" x2="360.5221" y1="408.0487" y2="414.0014"/>
    <line x1="413.298" x2="387.6123" y1="392.3411" y2="346.6578"/>
    <line x1="398.1859" x2="398.1859" y1="356.6748" y2="356.6748"/>
    <polygon points="398.6387,369.4995 399.2656,370.8722 400.4551,371.3159 401.6447,370.8722 402.2716,369.4995 401.6447,368.1267 400.4551,367.683 399.2656,368.1267"/>
    <line x1="417.8988" x2="417.8988" y1="375.1701" y2="375.1701"/>
    <line x1="403.3934" x2="403.3934" y1="343.721" y2="343.721"/>
    <line x1="417.1433" x2="384.7012" y1="219.4256" y2="123.7707"/>
    <line x1="387.0447" x2="414.8507" y1="133.2007" y2="210.0949"/>
    <line x1="417.0733" x2="426.0024" y1="211.1117" y2="211.1117"/>
    <polyline points="429.9709,212.1038 430.467,210.6156 431.4591,209.6235 433.4433,209.1274 434.9315,209.6235 435.9237,210.6156 436.4197,212.5999 435.9237,214.088 434.9315,215.0802 432.9473,215.5762 431.4591,215.0802 430.467,214.088 429.9709,212.1038 429.9709,209.6235 430.467,207.1432 431.4591,205.655 432.9473,205.1589 433.9394,205.1589 435.4276,205.655 435.9237,206.6471"/>
    <polyline points="439.3961,213.592 440.3882,215.0802 441.8764,215.5762 443.3646,215.5762 444.8528,215.0802 445.8449,214.088 446.341,212.5999 446.341,211.6077 445.8449,210.1195 444.8528,209.1274 443.3646,208.6313 441.8764,208.6313 440.3882,209.1274 439.8922,209.6235 440.3882,205.1589 445.3488,205.1589"/>
    <line x1="413.6008" x2="410.1284" y1="215.5762" y2="210.1195"/>
    <polyline points="406.6559,210.1195 411.1205,210.1195 412.6087,209.6235 413.6008,208.1353 413.6008,207.1432 413.1048,206.151 412.6087,205.655 411.1205,205.1589 406.6559,205.1589 406.6559,215.5762"/>
    <polyline points="403.6796,215.5762 397.2307,215.5762 397.2307,205.1589 403.6796,205.1589"/>
    <line x1="401.1992" x2="397.2307" y1="210.1195" y2="210.1195"/>
    <polyline points="394.7504,215.5762 388.7977,215.5762 388.7977,205.1589"/>
    <polyline points="378.3803,210.6156 382.8449,210.6156 384.3331,210.1195 385.3252,208.6313 385.3252,207.1432 384.8292,206.151 384.3331,205.655 382.8449,205.1589 378.3803,205.1589 378.3803,215.5762"/>
    <polyline points="375.404,215.5762 368.9551,215.5762 368.9551,205.1589 375.404,205.1589"/>
    <line x1="372.9237" x2="368.9551" y1="210.1195" y2="210.1195"/>
    <line x1="365.4827" x2="358.5378" y1="205.1589" y2="212.1038"/>
    <line x1="358.5378" x2="358.5378" y1="215.5762" y2="205.1589"/>
    <line x1="361.0181" x2="365.4827" y1="209.6235" y2="215.5762"/>
    <polygon points="386.8506,186.5896 387.0005,186.4117 386.6923,186.152 386.6215,186.5487"/>
    <polygon points="396.8157,172.6855 397.6092,174.0436 399.0806,175.1337 400.611,175.4974 402.4155,175.1856 403.7351,174.3296 404.6518,173.0513 405.0473,171.2633 404.7555,169.7177 403.9201,168.3849 402.6562,167.4485 400.8746,167.0252 399.0806,167.3929 397.7883,168.2895 396.9118,169.5957 396.572,171.1315"/>
    <polygon points="397.9078,161.5829 397.7902,161.3554"/>
    <line x1="391.283" x2="410.6048" y1="152.8307" y2="190.2194"/>
    <polygon points="392.3153,148.0043 392.2272,147.7447"/>
    <polygon points="242.4591,210.1195 245.9315,209.1274 246.9237,208.6313 247.4197,207.6392 247.4197,206.6471 246.9237,205.655 245.4355,205.1589 243.4512,205.1589 241.963,205.655 241.467,206.6471 241.467,207.6392 241.963,208.6313 246.4276,210.1195 247.4197,211.1117 247.9158,212.1038 247.9158,213.592 247.4197,214.5841 246.9237,215.0802 245.4355,215.5762 243.4512,215.5762 241.963,215.0802 240.9709,213.592 240.9709,212.1038 241.467,211.1117"/>
    <polyline points="238.4906,212.1038 231.0496,212.1038 236.0103,205.1589 236.0103,215.5762"/>
    <line x1="227.5772" x2="218.6481" y1="211.1117" y2="211.1117"/>
    <line x1="215.1756" x2="211.7032" y1="215.5762" y2="210.1195"/>
    <polyline points="208.2307,210.1195 212.6953,210.1195 214.1835,209.6235 215.1756,208.1353 215.1756,207.1432 214.6796,206.151 214.1835,205.655 212.6953,205.1589 208.2307,205.1589 208.2307,215.5762"/>
    <polyline points="205.2544,215.5762 198.8055,215.5762 198.8055,205.1589 205.2544,205.1589"/>
    <line x1="202.774" x2="198.8055" y1="210.1195" y2="210.1195"/>
    <polyline points="196.3252,215.5762 190.3725,215.5762 190.3725,205.1589"/>
    <polyline points="179.9551,210.6156 184.4197,210.6156 185.9079,210.1195 186.9,208.6313 186.9,207.1432 186.404,206.151 185.9079,205.655 184.4197,205.1589 179.9551,205.1589 179.9551,215.5762"/>
    <polyline points="176.9788,215.5762 170.5299,215.5762 170.5299,205.1589 176.9788,205.1589"/>
    <line x1="174.4985" x2="170.5299" y1="210.1195" y2="210.1195"/>
    <line x1="167.0575" x2="160.1126" y1="205.1589" y2="212.1038"/>
    <line x1="160.1126" x2="160.1126" y1="215.5762" y2="205.1589"/>
    <line x1="162.5929" x2="167.0575" y1="209.6235" y2="215.5762"/>
    <line x1="170.0866" x2="233.9733" y1="225.8907" y2="95.1771"/>
    <line x1="201.3452" x2="202.7147" y1="133.5703" y2="187.4975"/>
    <line x1="195.863" x2="208.1969" y1="176.2188" y2="144.849"/>
    <polygon points="203.0797,161.4908 203.4504,160.5339 203.0797,159.577 202.161,159.1195 200.9802,159.577 200.6095,160.5339 200.9802,161.4908 201.8989,161.9483"/>
    <line x1="196.837" x2="196.837" y1="167.2799" y2="167.2799"/>
    <polygon points="192.281,169.7261 192.2875,169.9855"/>
    <line x1="217.0752" x2="217.0752" y1="193.7173" y2="193.7173"/>
    <line x1="215.9082" x2="188.1517" y1="326.1336" y2="405.9666"/>
    <polyline points="185.4118,403.5841 185.4118,414.0014 191.3646,414.0014"/>
    <line x1="193.8449" x2="197.8134" y1="408.5447" y2="408.5447"/>
    <polyline points="203.2701,408.5447 207.7347,408.5447 209.2229,408.0487 210.215,406.5605 210.215,405.5684 209.7189,404.5762 209.2229,404.0802 207.7347,403.5841 203.2701,403.5841 203.2701,414.0014"/>
    <polyline points="200.2937,414.0014 193.8449,414.0014 193.8449,403.5841 200.2937,403.5841"/>
    <line x1="206.7425" x2="210.215" y1="408.5447" y2="414.0014"/>
    <line x1="213.6874" x2="222.6166" y1="409.5369" y2="409.5369"/>
    <polyline points="226.089,412.0172 227.0811,413.5054 228.5693,414.0014 230.0575,414.0014 231.5457,413.5054 232.5378,412.5132 233.0339,411.0251 233.0339,410.0329 232.5378,408.5447 231.0496,407.5526 229.5614,407.5526 232.5378,403.5841 227.0811,403.5841"/>
    <polyline points="236.0103,412.0172 237.0024,413.5054 238.4906,414.0014 239.9788,414.0014 241.467,413.5054 242.4591,412.5132 242.9551,411.0251 242.9551,410.0329 242.4591,408.5447 241.467,407.5526 239.9788,407.0565 238.4906,407.0565 237.0024,407.5526 236.5063,408.0487 237.0024,403.5841 241.963,403.5841"/>
    <polyline points="246.4276,406.0644 246.9237,404.5762 248.4118,403.5841 250.3961,403.5841 251.3882,404.0802 252.3803,405.5684 252.3803,406.5605 250.8922,409.0408 245.9315,414.0014 252.8764,414.0014"/>
    <line x1="259.2131" x2="144.8468" y1="379.1624" y2="352.9379"/>
    <line x1="176.9502" x2="227.1097" y1="345.1219" y2="386.9783"/>
    <line x1="231.2445" x2="231.2445" y1="369.5676" y2="369.5676"/>
    <line x1="212.0324" x2="212.0324" y1="353.1419" y2="353.1419"/>
    <polygon points="203.5517,364.8484 202.224,364.1209 200.7781,364.5694 200.0953,365.9206 200.5919,367.3508 201.9652,367.9881 203.3779,367.4439 203.969,366.0501"/>
    <line x1="198.0069" x2="198.0069" y1="386.8584" y2="386.8584"/>
    <polyline points="172.0181,403.5841 165.5693,403.5841 165.5693,414.0014 172.0181,414.0014"/>
    <polyline points="174.9945,414.0014 174.9945,403.5841 179.4591,403.5841 180.9473,404.0802 181.4433,404.5762 181.9394,405.5684 181.9394,407.0565 180.9473,408.5447 179.4591,409.0408 174.9945,409.0408"/>
    <line x1="169.5378" x2="165.5693" y1="408.5447" y2="408.5447"/>
    <line x1="162.0969" x2="155.152" y1="403.5841" y2="410.529"/>
    <line x1="155.152" x2="155.152" y1="414.0014" y2="403.5841"/>
    <line x1="157.6323" x2="162.0969" y1="408.0487" y2="414.0014"/>
    <line x1="183.8108" x2="220.2491" y1="510.9003" y2="618.9034"/>
    <line x1="211.7032" x2="208.2307" y1="612.4266" y2="606.9699"/>
    <polyline points="204.7583,606.9699 209.2229,606.9699 210.7111,606.4739 211.7032,604.9857 211.7032,603.9936 211.2071,603.0014 210.7111,602.5054 209.2229,602.0093 204.7583,602.0093 204.7583,612.4266"/>
    <polyline points="201.7819,612.4266 195.3331,612.4266 195.3331,602.0093 201.7819,602.0093"/>
    <line x1="199.3016" x2="195.3331" y1="606.9699" y2="606.9699"/>
    <polyline points="192.8528,612.4266 186.9,612.4266 186.9,602.0093"/>
    <polyline points="176.4827,607.466 180.9473,607.466 182.4355,606.9699 183.4276,605.4817 183.4276,603.9936 182.9315,603.0014 182.4355,602.5054 180.9473,602.0093 176.4827,602.0093 176.4827,612.4266"/>
    <polyline points="173.5063,612.4266 167.0575,612.4266 167.0575,602.0093 173.5063,602.0093"/>
    <line x1="171.026" x2="167.0575" y1="606.9699" y2="606.9699"/>
    <line x1="163.5851" x2="156.6402" y1="602.0093" y2="608.9542"/>
    <line x1="156.6402" x2="156.6402" y1="612.4266" y2="602.0093"/>
    <line x1="159.1205" x2="163.5851" y1="606.4739" y2="612.4266"/>
    <line x1="194.8185" x2="209.2414" y1="581.7416" y2="548.0621"/>
    <line x1="201.8852" x2="201.8852" y1="555.8377" y2="555.8377"/>
    <polygon points="203.6258,566.544 204.3198,564.9019 203.6258,563.2597 202.2259,562.6204 200.5304,563.1713 199.7438,564.7711 200.3429,566.4502 201.9646,567.1908"/>
    <line x1="187.3989" x2="187.3989" y1="568.8982" y2="568.8982"/>
    <line x1="171.5083" x2="232.5516" y1="564.1263" y2="565.6775"/>
    <polyline points="228.5693,602.0093 234.026,602.0093 231.0496,605.9778 232.5378,605.9778 233.5299,606.4739 234.026,606.9699 234.5221,608.4581 234.5221,609.4502 234.026,610.9384 233.0339,611.9306 231.5457,612.4266 230.0575,612.4266 228.5693,611.9306 227.5772,610.4424"/>
    <line x1="224.1048" x2="215.1756" y1="607.9621" y2="607.9621"/>
    <polygon points="206.5207,592.9085 206.6061,593.1616"/>
    <polygon points="243.9473,610.4424 244.4433,606.4739 243.9473,603.9936 242.9551,602.5054 241.467,602.0093 240.4748,602.0093 238.9866,602.5054 237.9945,603.9936 237.4985,607.9621 237.9945,610.4424 238.9866,611.9306 240.4748,612.4266 241.467,612.4266 242.9551,611.9306"/>
    <polyline points="251.3882,612.4266 251.3882,602.0093 249.9,603.4975 248.9079,603.9936"/>
    <line x1="189.746" x2="214.3139" y1="734.7576" y2="785.1276"/>
    <polygon points="212.8978,775.1929 212.937,775.3917 213.2234,775.232"/>
    <polygon points="200.7534,758.2521 200.1055,759.0572 199.9156,759.8122 200.3796,761.2706 200.9708,761.7771 201.9647,762.0599 202.734,761.9405 203.5954,761.3697 204.1483,759.9426 203.5954,758.5155 202.2254,757.8333"/>
    <line x1="194.2235" x2="194.2235" y1="748.2319" y2="748.2319"/>
    <line x1="164.9895" x2="239.0704" y1="767.2428" y2="752.6424"/>
    <polygon points="233.3219,760.8825 233.3435,761.0878 233.6486,760.952"/>
    <line x1="264.6077" x2="139.4522" y1="753.3733" y2="766.5118"/>
    <line x1="155.152" x2="155.152" y1="800.4345" y2="810.8518"/>
    <line x1="155.152" x2="162.0969" y1="807.3794" y2="800.4345"/>
    <line x1="165.5693" x2="169.5378" y1="805.3951" y2="805.3951"/>
    <polyline points="174.9945,805.8912 179.4591,805.8912 180.9473,805.3951 181.9394,803.9069 181.9394,802.4188 181.4433,801.4266 180.9473,800.9306 179.4591,800.4345 174.9945,800.4345 174.9945,810.8518"/>
    <polyline points="172.0181,810.8518 165.5693,810.8518 165.5693,800.4345 172.0181,800.4345"/>
    <polyline points="185.4118,800.4345 185.4118,810.8518 191.3646,810.8518"/>
    <line x1="193.8449" x2="197.8134" y1="805.3951" y2="805.3951"/>
    <polyline points="203.2701,805.3951 207.7347,805.3951 209.2229,804.8991 210.215,803.4109 210.215,802.4188 209.7189,801.4266 209.2229,800.9306 207.7347,800.4345 203.2701,800.4345 203.2701,810.8518"/>
    <polyline points="200.2937,810.8518 193.8449,810.8518 193.8449,800.4345 200.2937,800.4345"/>
    <line x1="206.7425" x2="210.215" y1="805.3951" y2="810.8518"/>
    <line x1="213.6874" x2="222.6166" y1="806.3873" y2="806.3873"/>
    <polyline points="227.5772,802.4188 228.5693,801.9227 230.0575,800.4345 230.0575,810.8518"/>
    <polyline points="236.5063,809.3636 237.0024,810.3558 238.4906,810.8518 239.4827,810.8518 240.9709,810.3558 241.963,808.8676 242.4591,806.3873 242.4591,803.9069 241.963,801.9227 240.9709,800.9306 239.4827,800.4345 237.4985,800.9306 236.5063,801.9227 236.0103,803.9069 236.5063,805.3951 237.4985,806.3873 239.4827,806.8833 240.9709,806.3873 241.963,805.3951 242.4591,803.9069"/>
    <polyline points="246.4276,802.9148 246.9237,801.4266 248.4118,800.4345 250.3961,800.4345 251.8843,801.4266 252.3803,802.4188 252.3803,803.4109 250.8922,805.8912 245.9315,810.8518 252.8764,810.8518"/>
    <line x1="162.0969" x2="157.6323" y1="810.8518" y2="804.8991"/>
    <line x1="391.9383" x2="391.9383" y1="876.6145" y2="876.6145"/>
    <line x1="356.0575" x2="360.5221" y1="1003.3243" y2="1009.277"/>
    <line x1="552.2504" x2="552.2504" y1="1009.277" y2="998.8597"/>
    <line x1="554.7307" x2="559.1953" y1="1003.3243" y2="1009.277"/>
    <line x1="562.6677" x2="566.6362" y1="1003.8203" y2="1003.8203"/>
    <polyline points="572.0929,1004.3164 576.5575,1004.3164 578.0457,1003.8203 579.0378,1002.3321 579.0378,1000.8439 578.5418,999.8518 578.0457,999.3558 576.5575,998.8597 572.0929,998.8597 572.0929,1009.277"/>
    <polyline points="569.1166,1009.277 562.6677,1009.277 562.6677,998.8597 569.1166,998.8597"/>
    <line x1="559.1953" x2="552.2504" y1="998.8597" y2="1005.8046"/>
    <polyline points="582.5103,998.8597 582.5103,1009.277 588.463,1009.277"/>
    <line x1="590.9433" x2="594.9118" y1="1003.8203" y2="1003.8203"/>
    <polyline points="600.3685,1003.8203 604.8331,1003.8203 606.3213,1003.3243 607.3134,1001.8361 607.3134,1000.8439 606.8174,999.8518 606.3213,999.3558 604.8331,998.8597 600.3685,998.8597 600.3685,1009.277"/>
    <polyline points="597.3922,1009.277 590.9433,1009.277 590.9433,998.8597 597.3922,998.8597"/>
    <line x1="603.841" x2="607.3134" y1="1003.8203" y2="1009.277"/>
    <line x1="610.7859" x2="619.715" y1="1004.8125" y2="1004.8125"/>
    <polyline points="624.6756,1000.8439 625.6677,1000.3479 627.1559,998.8597 627.1559,1009.277"/>
    <polyline points="633.6048,1005.8046 634.1008,1004.3164 635.0929,1003.3243 637.0772,1002.8282 638.5654,1003.3243 639.5575,1004.3164 640.0536,1006.3006 639.5575,1007.7888 638.5654,1008.781 636.5811,1009.277 635.0929,1008.781 634.1008,1007.7888 633.6048,1005.8046 633.6048,1003.3243 634.1008,1000.8439 635.0929,999.3558 636.5811,998.8597 637.5733,998.8597 639.0614,999.3558 639.5575,1000.3479"/>
    <polyline points="643.526,1007.7888 644.0221,1008.781 645.5103,1009.277 646.5024,1009.277 647.9906,1008.781 648.9827,1007.2928 649.4788,1004.8125 649.4788,1002.3321 648.9827,1000.3479 647.9906,999.3558 646.5024,998.8597 644.5181,999.3558 643.526,1000.3479 643.0299,1002.3321 643.526,1003.8203 644.5181,1004.8125 646.5024,1005.3085 647.9906,1004.8125 648.9827,1003.8203 649.4788,1002.3321"/>
    <line x1="629.4256" x2="568.3351" y1="1025.3756" y2="874.7863"/>
    <line x1="603.883" x2="593.8777" y1="824.1374" y2="691.6767"/>
    <line x1="586.6297" x2="611.131" y1="745.1153" y2="770.6987"/>
    <polygon points="600.1636,758.8713 600.4855,757.907 599.9923,756.7494 598.8157,756.3032 597.6789,756.8426 597.2804,758.0362 597.8652,759.1504 599.0738,759.5004"/>
    <polygon points="596.3623,749.5007 596.0692,749.3433 596.2138,749.6429"/>
    <polygon points="582.5366,753.0832 582.8284,753.3591 583.0325,753.0132"/>
    <line x1="567.509" x2="630.2517" y1="769.8801" y2="745.9339"/>
    <polygon points="609.2279,789.672 609.3198,789.2945 609.0236,789.5459"/>
    <polyline points="597.1441,800.4345 590.6953,800.4345 590.6953,810.8518 597.1441,810.8518"/>
    <polyline points="600.1205,810.8518 600.1205,800.4345 604.5851,800.4345 606.0733,800.9306 606.5693,801.4266 607.0654,802.4188 607.0654,803.4109 606.0733,804.8991 604.5851,805.3951 600.1205,805.3951"/>
    <line x1="603.5929" x2="607.0654" y1="805.3951" y2="810.8518"/>
    <line x1="610.5378" x2="619.467" y1="806.3873" y2="806.3873"/>
    <polyline points="623.4355,802.9148 623.9315,801.4266 625.4197,800.4345 627.404,800.4345 628.8922,801.4266 629.3882,802.4188 629.3882,803.4109 627.9,805.8912 622.9394,810.8518 629.8843,810.8518"/>
    <polyline points="633.3567,802.9148 633.8528,801.4266 635.341,800.4345 637.3252,800.4345 638.8134,801.4266 639.3095,802.4188 639.3095,803.4109 637.8213,805.8912 632.8607,810.8518 639.8055,810.8518"/>
    <polyline points="643.278,802.9148 643.774,801.4266 645.2622,800.4345 647.2465,800.4345 648.7347,801.4266 649.2307,802.4188 649.2307,803.4109 647.7425,805.8912 642.7819,810.8518 649.7268,810.8518"/>
    <line x1="594.6638" x2="590.6953" y1="805.3951" y2="805.3951"/>
    <polyline points="588.215,810.8518 582.2622,810.8518 582.2622,800.4345"/>
    <polyline points="571.8449,805.8912 576.3095,805.8912 577.7977,805.3951 578.7898,803.9069 578.7898,802.4188 578.2937,801.4266 577.7977,800.9306 576.3095,800.4345 571.8449,800.4345 571.8449,810.8518"/>
    <polyline points="568.8685,810.8518 562.4197,810.8518 562.4197,800.4345 568.8685,800.4345"/>
    <line x1="566.3882" x2="562.4197" y1="805.3951" y2="805.3951"/>
    <line x1="558.9473" x2="552.0024" y1="800.4345" y2="807.3794"/>
    <line x1="552.0024" x2="552.0024" y1="810.8518" y2="800.4345"/>
    <line x1="554.4827" x2="558.9473" y1="804.8991" y2="810.8518"/>
    <line x1="605.2744" x2="592.4863" y1="934.356" y2="965.8058"/>
    <line x1="590.208" x2="607.5527" y1="961.1132" y2="939.0487"/>
    <polygon points="599.4166,950.7534 599.7404,950.0809 599.4166,949.4085 598.9446,949.2233 598.2499,949.4959 598.0299,950.2091 598.4503,950.8258 598.9446,950.9386"/>
    <line x1="601.7982" x2="601.7982" y1="953.4957" y2="953.4957"/>
    <line x1="607.0443" x2="590.7164" y1="953.9944" y2="946.1675"/>
    <line x1="591.8894" x2="591.8894" y1="950.0769" y2="950.0769"/>
    <line x1="590.6671" x2="590.6671" y1="952.1198" y2="952.1198"/>
    <line x1="597.0981" x2="597.0981" y1="961.8195" y2="961.8195"/>
    <line x1="575.1228" x2="622.6379" y1="949.4772" y2="950.6846"/>
    <line x1="586.8131" x2="586.8131" y1="988.9456" y2="988.9456"/>
    <line x1="569.7165" x2="631.2054" y1="623.1111" y2="487.1077"/>
    <line x1="603.7786" x2="596.3326" y1="505.5752" y2="605.1894"/>
    <line x1="594.6638" x2="590.6953" y1="606.9699" y2="606.9699"/>
    <polyline points="588.215,612.4266 582.2622,612.4266 582.2622,602.0093"/>
    <polyline points="571.8449,607.466 576.3095,607.466 577.7977,606.9699 578.7898,605.4817 578.7898,603.9936 578.2937,603.0014 577.7977,602.5054 576.3095,602.0093 571.8449,602.0093 571.8449,612.4266"/>
    <polyline points="568.8685,612.4266 562.4197,612.4266 562.4197,602.0093 568.8685,602.0093"/>
    <line x1="566.3882" x2="562.4197" y1="606.9699" y2="606.9699"/>
    <line x1="558.9473" x2="552.0024" y1="602.0093" y2="608.9542"/>
    <line x1="552.0024" x2="552.0024" y1="612.4266" y2="602.0093"/>
    <line x1="554.4827" x2="558.9473" y1="606.4739" y2="612.4266"/>
    <polyline points="597.1441,612.4266 590.6953,612.4266 590.6953,602.0093 597.1441,602.0093"/>
    <polyline points="600.1205,606.9699 604.5851,606.9699 606.0733,606.4739 607.0654,604.9857 607.0654,603.9936 606.5693,603.0014 606.0733,602.5054 604.5851,602.0093 600.1205,602.0093 600.1205,612.4266"/>
    <line x1="603.5929" x2="607.0654" y1="606.9699" y2="612.4266"/>
    <line x1="610.5378" x2="619.467" y1="607.9621" y2="607.9621"/>
    <polyline points="622.9394,610.4424 623.9315,611.9306 625.4197,612.4266 626.9079,612.4266 628.3961,611.9306 629.3882,610.9384 629.8843,609.4502 629.8843,608.4581 629.3882,606.9699 628.8922,606.4739 627.9,605.9778 626.4118,605.9778 629.3882,602.0093 623.9315,602.0093"/>
    <polyline points="633.8528,602.0093 639.3095,602.0093 636.3331,605.9778 637.8213,605.9778 638.8134,606.4739 639.3095,606.9699 639.8055,608.4581 639.8055,609.4502 639.3095,610.9384 638.3174,611.9306 636.8292,612.4266 635.341,612.4266 633.8528,611.9306 632.8607,610.4424"/>
    <polygon points="645.2622,602.0093 643.774,602.5054 643.278,603.4975 643.278,604.4896 643.774,605.4817 648.2386,606.9699 649.2307,607.9621 649.7268,608.9542 649.7268,610.4424 649.2307,611.4345 648.7347,611.9306 647.2465,612.4266 645.2622,612.4266 643.774,611.9306 642.7819,610.4424 642.7819,608.9542 643.278,607.9621 644.2701,606.9699 647.7425,605.9778 648.7347,605.4817 649.2307,604.4896 649.2307,603.4975 648.7347,602.5054 647.2465,602.0093"/>
    <polygon points="637.2274,561.5755 637.1198,561.8136"/>
    <line x1="622.4885" x2="576.3578" y1="544.5756" y2="568.2757"/>
    <line x1="579.5646" x2="579.5646" y1="569.7579" y2="569.7579"/>
    <line x1="589.5198" x2="589.5198" y1="568.7989" y2="568.7989"/>
    <line x1="587.7036" x2="587.7036" y1="551.0019" y2="551.0019"/>
    <polygon points="601.8772,554.439 601.0273,553.8215 599.9998,553.6031 598.3093,554.252 597.6918,555.1018 597.4734,556.1294 597.6918,557.157 598.3093,558.0068 599.9998,558.6557 601.0273,558.4373 601.8772,557.8199 602.5261,556.1294"/>
    <line x1="612.357" x2="588.1271" y1="523.753" y2="587.2361"/>
    <polyline points="451.3016,612.4266 444.3567,612.4266 449.3174,607.466 450.8055,604.9857 450.8055,603.9936 449.8134,602.5054 448.8213,602.0093 446.837,602.0093 445.3488,603.0014 444.8528,604.4896"/>
    <polyline points="435.4276,602.0093 440.8843,602.0093 437.9079,605.9778 439.3961,605.9778 440.3882,606.4739 440.8843,606.9699 441.3803,608.4581 441.3803,609.4502 440.8843,610.9384 439.8922,611.9306 438.404,612.4266 436.9158,612.4266 435.4276,611.9306 434.4355,610.4424"/>
    <polyline points="424.5142,610.4424 425.5063,611.9306 426.9945,612.4266 428.4827,612.4266 429.9709,611.9306 430.963,610.9384 431.4591,609.4502 431.4591,608.4581 430.963,606.9699 430.467,606.4739 429.4748,605.9778 427.9866,605.9778 430.963,602.0093 425.5063,602.0093"/>
    <line x1="421.0418" x2="412.1126" y1="607.9621" y2="607.9621"/>
    <line x1="553.4906" x2="553.4906" y1="414.0014" y2="403.5841"/>
    <line x1="555.9709" x2="560.4355" y1="408.0487" y2="414.0014"/>
    <line x1="563.9079" x2="567.8764" y1="408.5447" y2="408.5447"/>
    <polyline points="573.3331,409.0408 577.7977,409.0408 579.2859,408.5447 580.278,407.0565 580.278,405.5684 579.7819,404.5762 579.2859,404.0802 577.7977,403.5841 573.3331,403.5841 573.3331,414.0014"/>
    <polyline points="570.3567,414.0014 563.9079,414.0014 563.9079,403.5841 570.3567,403.5841"/>
    <line x1="560.4355" x2="553.4906" y1="403.5841" y2="410.529"/>
    <polyline points="583.7504,403.5841 583.7504,414.0014 589.7032,414.0014"/>
    <line x1="592.1835" x2="596.152" y1="408.5447" y2="408.5447"/>
    <polyline points="601.6087,408.5447 606.0733,408.5447 607.5614,408.0487 608.5536,406.5605 608.5536,405.5684 608.0575,404.5762 607.5614,404.0802 606.0733,403.5841 601.6087,403.5841 601.6087,414.0014"/>
    <polyline points="598.6323,414.0014 592.1835,414.0014 592.1835,403.5841 598.6323,403.5841"/>
    <line x1="605.0811" x2="608.5536" y1="408.5447" y2="414.0014"/>
    <line x1="612.026" x2="620.9551" y1="409.5369" y2="409.5369"/>
    <polyline points="629.3882,414.0014 629.3882,403.5841 624.4276,410.529 631.8685,410.529"/>
    <polyline points="635.837,405.5684 636.8292,405.0723 638.3174,403.5841 638.3174,414.0014"/>
    <polyline points="648.2386,414.0014 648.2386,403.5841 646.7504,405.0723 645.7583,405.5684"/>
    <line x1="611.3142" x2="595.2122" y1="428.2286" y2="276.0115"/>
    <polygon points="586.5564,317.5912 586.5851,317.8628"/>
    <line x1="586.7098" x2="619.0981" y1="344.1387" y2="368.5264"/>
    <line x1="608.1172" x2="608.1172" y1="358.8293" y2="358.8293"/>
    <polygon points="603.9044,356.6508 604.3574,355.7487 604.0943,355.0258 603.428,354.6411 602.6704,354.7747 602.1157,355.6181 602.4609,356.5668 603.1674,356.8715"/>
    <polygon points="603.2071,358.3639 603.7618,359.2074 604.5195,359.341 605.1857,358.9563 605.4489,358.2334 605.1857,357.5105 604.2588,357.1106 603.5524,357.4153"/>
    <line x1="594.4538" x2="611.8344" y1="362.897" y2="351.8887"/>
    <polygon points="628.5025,353.4211 628.7717,353.4414"/>
    <line x1="654.2486" x2="552.4943" y1="360.804" y2="353.1166"/>
    <polygon points="593.5021,352.2517 593.4962,352.5977 593.7006,352.5351"/>
    <line x1="587.967" x2="587.967" y1="215.5762" y2="205.1589"/>
    <line x1="591.9355" x2="600.8646" y1="211.1117" y2="211.1117"/>
    <polyline points="605.8252,207.1432 606.8174,206.6471 608.3055,205.1589 608.3055,215.5762"/>
    <polyline points="614.7544,207.6392 615.2504,206.151 616.7386,205.1589 618.7229,205.1589 619.715,205.655 620.7071,207.1432 620.7071,208.1353 619.2189,210.6156 614.2583,215.5762 621.2032,215.5762"/>
    <polyline points="624.1796,213.592 625.1717,215.0802 626.6599,215.5762 628.1481,215.5762 629.6362,215.0802 630.6284,214.088 631.1244,212.5999 631.1244,211.6077 630.6284,210.1195 629.6362,209.1274 628.1481,208.6313 626.6599,208.6313 625.1717,209.1274 624.6756,209.6235 625.1717,205.1589 630.1323,205.1589"/>
    <line x1="641.861" x2="559.2474" y1="207.1432" y2="116.7372"/>
    <line x1="572.4927" x2="633.5407" y1="145.2854" y2="184.8824"/>
    <line x1="616.107" x2="589.3451" y1="182.8284" y2="144.9743"/>
    <polygon points="605.3205,164.349 604.1536,163.8421 602.7274,164.349 602.1244,165.7373 602.7274,167.1256 603.8943,167.6324 605.3205,167.1256 605.9236,165.7373"/>
    <polygon points="603.6656,175.3502 603.318,175.3457 603.5966,175.5536"/>
    <polygon points="605.6902,183.0369 606.0301,183.1277 605.8085,182.8544"/>
    <polygon points="579.5339,205.1589 578.5418,205.655 577.5496,206.6471 577.0536,207.6392 576.5575,209.1274 576.5575,211.6077 577.5496,214.088 578.5418,215.0802 579.5339,215.5762 581.5181,215.5762 582.5103,215.0802 583.5024,214.088 583.9985,213.0959 584.4945,211.6077 584.4945,209.1274 583.5024,206.6471 582.5103,205.655 581.5181,205.1589"/>
    <line x1="574.5733" x2="567.6284" y1="205.1589" y2="205.1589"/>
    <line x1="571.1008" x2="571.1008" y1="205.1589" y2="215.5762"/>
    <polygon points="630.9061,159.389 630.7517,159.0488 630.6767,159.4149"/>
  </g>
</svg>
