<?xml version="1.0" encoding="utf-8" ?>
<svg xmlns="http://www.w3.org/2000/svg" xmlns:cc="http://creativecommons.org/ns#" xmlns:dc="http://purl.org/dc/elements/1.1/" xmlns:ev="http://www.w3.org/2001/xml-events" xmlns:inkscape="http://www.inkscape.org/namespaces/inkscape" xmlns:rdf="http://www.w3.org/1999/02/22-rdf-syntax-ns#" xmlns:sodipodi="http://sodipodi.sourceforge.net/DTD/sodipodi-0.dtd" xmlns:xlink="http://www.w3.org/1999/xlink" baseProfile="tiny" height="29.7cm" version="1.2" viewBox="0 0 793.7007874015749 1122.5196850393702" width="21.0cm">
  <metadata>
    <rdf:RDF>
      <cc:Work>
        <dc:format>image/svg+xml</dc:format>
        <dc:source/>
        <dc:date>2022-05-22T14:26:08.064297</dc:date>
      </cc:Work>
    </rdf:RDF>
  </metadata>
  <defs/>
  <g fill="none" id="layer1" inkscape:groupmode="layer" inkscape:label="1" stroke="#00f" style="display:inline">
    <polyline points="566.1912,376.774 561.012,346.4664 568.1897,385.9386 582.3582,458.8641 584.2445,470.5897 584.5305,473.7927 584.2917,475.1463 583.4709,473.7306 582.4148,470.4332 579.9414,459.7509 577.8274,447.4603 576.1348,434.464 574.9519,422.1831 574.0821,408.9031 573.6096,395.0091 573.6006,380.9685 574.0985,367.3224 574.876,357.0883 576.3185,345.6666 577.8319,338.0015 579.637,331.9505 581.6971,327.7499 582.8086,326.4016 583.9656,325.5769 585.1609,325.2867 586.3869,325.537 588.2655,326.9283 590.1661,329.5266 592.0583,333.3005 593.9109,338.1996 597.3716,351.0896 599.861,364.5535 602.1822,383.2514 603.4377,400.3433 604.0203,421.9102 603.6953,440.2287 602.9072,454.8321 601.2961,472.7682 599.5518,486.7253 596.8881,503.5659 591.1407,532.0656 577.6669,589.1184 574.0903,608.2254 572.9801,618.5536 572.9318,625.4836 573.6957,630.7819 574.5329,633.1538 575.6384,634.9166 576.9932,636.076 578.5733,636.6454 580.35,636.6463 582.9674,635.8125 585.0684,634.6068 587.9763,632.304 593.0657,626.68 597.666,619.6045 600.8066,612.9228 603.13,605.0303 603.7428,598.6528 603.2068,593.8895 602.4284,591.3527 601.3194,589.097 599.8973,587.1502 598.1858,585.5353 596.2147,584.2706 594.0186,583.3697 591.6368,582.8416 589.1122,582.6903 583.822,583.5119 578.5421,585.7793 574.4428,588.6877 571.524,591.608 569.6164,594.1006 567.5268,597.7632 566.3472,600.7151 565.349,604.8434 565.0624,608.0239 565.3282,612.282 566.0259,615.4207 567.6243,619.4287 569.3169,622.2304 571.4182,624.7957 573.9073,627.0709 577.7798,629.5645 581.0523,630.9679 584.5912,631.9235 588.3448,632.3942 594.9182,632.02 601.6227,630.1113 605.5702,628.2045 608.1241,626.6128 611.7823,623.7457 614.0732,621.5173 617.2337,617.7074 619.1264,614.8625 622.3116,608.4665 624.1094,603.078 625.0006,599.2178 625.9993,590.89 625.9135,581.8059 624.7319,572.0281 622.4828,561.6138 618.2745,547.7726 615.0818,539.0538 610.1623,526.9598 587.7118,476.6536 576.9975,450.6342 571.3494,435.2865 567.464,423.6748 562.8651,408.238 559.9199,396.8403 556.7477,382.1286 554.5115,368.2822 553.2675,355.6612 553.0456,344.6302 553.8498,335.5364 554.6315,331.8137 555.6605,328.6852 556.9309,326.1788 558.4352,324.3169 561.1103,322.767 563.157,322.5753 565.3998,323.0589 567.8245,324.2138 570.4154,326.0308 576.0256,331.5921 582.0766,339.581 588.3944,349.7738 594.7885,361.8985 601.0568,375.65 606.9918,390.7069 612.3889,406.7475 615.967,419.238 619.0593,431.9891 621.6004,444.8922 623.5356,457.8519 624.8229,470.7876 625.434,483.6339 625.3557,496.3417 624.9206,504.7197 623.7032,517.131 621.8303,529.35 619.3387,541.3695 616.2767,553.1692 612.703,564.715 608.6855,575.9598 602.7685,590.3804 596.3879,603.9892 589.7449,616.5894 583.0425,627.9672 574.8811,640.1372 568.75,647.9779 561.855,655.119 557.1269,658.5463 555.0665,659.4708 552.3896,659.8617 550.2379,659.0645 548.636,657.1019 547.5997,654.0109 547.1361,649.8421 547.2436,644.6581 547.9128,638.5316 549.1267,631.5438 551.5501,621.0376 555.7615,606.2965 562.2816,586.8 568.6405,569.5029 586.7554,522.3334 595.7934,496.4551 600.2237,481.6539 603.0667,470.6063 605.4297,459.6593 607.2609,448.8744 608.8057,434.8729 609.2565,424.7636 609.0863,415.0919 607.896,403.0465 606.2995,394.7804 603.2846,384.9723 600.4103,378.6481 598.2295,374.9709 595.8567,371.7509 593.3103,369.0071 589.2086,365.8183 584.8315,363.7745 580.2535,362.8943 577.1275,362.954 572.3849,363.9998 567.6464,366.1641 562.9876,369.4002 559.9621,372.1237 555.5962,377.0054 551.4956,382.7709 547.7214,389.3311 544.3288,396.5904 541.3669,404.449 538.8781,412.8053 537.4995,418.6026 535.4539,430.6092 534.3984,442.9798 534.3618,455.5098 535.0074,464.9028 536.7556,477.2961 539.4892,489.424 543.157,501.1889 547.6863,512.5238 552.9822,523.3908 558.9279,533.7696 565.384,543.6313 573.926,555.1637 582.6602,565.7106 591.1994,575.1448 600.6212,584.8078 617.9643,601.7244 612.186,597.7066 601.6048,589.0205 592.5369,580.8871 584.3123,572.8714 575.9168,563.8722 569.3485,556.0477 563.1232,547.7268 558.7874,541.1872 553.5791,532.0954 550.1797,525.0076 547.272,517.6909 544.8987,510.1404 543.0946,502.3491 541.8856,494.3138 541.2892,486.0369 541.3143,477.5263 541.9612,468.7967 543.2229,459.8702 545.0846,450.7766 548.4608,438.4598 551.6229,429.1416 556.6022,416.7231 560.8447,407.5043 567.0667,395.4906 573.7863,383.9866 580.8203,373.2165 587.9665,363.4114 596.726,352.8569 603.3212,346.0274 610.6855,339.7891 615.6208,336.7839 617.7063,335.9668 620.3018,335.6037 622.2111,336.2645 623.0828,337.2606 623.6239,338.6875 623.8073,341.6016 622.8816,346.831 621.332,351.6615 618.1908,359.1447 615.0939,365.4114 610.0994,374.4401 601.1322,388.9042 589.2932,406.1527 575.4496,424.814 550.8337,456.3059 547.5512,460.8887 546.867,462.4294 548.5742,461.4597 552.0617,458.2844 562.6492,447.2277 574.0099,434.1243 585.1788,420.101 594.94,406.7718 602.698,395.2805 610.1238,383.2968 616.9485,371.0902 622.912,358.9701 626.6749,350.1419 630.5791,339.0112 632.5806,331.3473 633.9178,322.3357 633.8868,316.672 633.3698,313.4916 632.4593,310.8281 630.3725,307.8656 627.456,306.2106 625.0776,305.8598 622.375,306.1206 619.3713,306.9952 614.3574,309.4508 610.717,311.8375 602.8588,318.343 596.5873,324.6542 592.2892,329.4943 583.5645,340.5524 574.8928,353.2141 566.534,367.1794 558.731,382.1398 551.704,397.7927 545.6456,413.8553 541.8367,426.0178 537.846,442.2123 535.7267,454.2417 534.1269,470.0113 533.8704,481.5807 534.1524,489.1555 535.252,500.3005 537.1521,511.1843 539.8308,521.8189 542.0337,528.7803 545.9336,539.0432 550.5029,549.0986 555.6808,558.947 565.461,574.8743 571.8765,584.107 578.5792,593.0623 594.6846,612.6654 623.1708,644.3734 630.1429,652.51 635.1784,659.6254 636.1746,662.037 636.1106,663.6669 635.4765,664.3189 634.3741,664.6264 632.8125,664.5944 629.6394,663.9261 623.9594,661.9286 614.8178,657.7958 603.8709,652.0731 591.6925,645.047 578.9007,637.0393 568.6457,630.1562 558.7066,623.0427 549.372,615.8751 540.9034,608.8236 535.2599,603.7081 528.8393,597.2391 523.8323,591.2985 520.3696,586.011 518.8436,582.5406 518.3514,580.4862 518.285,578.6519 518.9885,576.3354 520.6552,574.5673 523.2761,573.3734 528.2212,572.7112 532.978,572.9331 538.5848,573.7841 544.9848,575.2729 552.1072,577.4044 559.8666,580.1798 568.162,583.5962 576.8766,587.6459 585.8778,592.3155 595.0177,597.5859 610.1166,607.6294 621.6074,616.6967 632.1094,626.5528 636.8568,631.7301 641.2012,637.0443 646.861,645.2181 650.0025,650.7624 652.5969,656.3482 655.4005,664.7342 656.5137,670.2797 657.0073,675.7471 656.5777,683.7197 654.7587,691.3024 652.7949,696.0762 650.2535,700.58 645.4171,706.7479 641.5576,710.4161 637.2341,713.6908 629.9728,717.8009 624.6826,719.9691 619.0908,721.6552 613.2495,722.8433 607.2118,723.5221 597.9055,723.5731 588.4617,722.4648 582.1782,721.0914 575.9652,719.2232 566.8861,715.5277 561.0627,712.4979 555.4747,709.0428 547.6237,703.1237 542.7988,698.7312 538.3413,694.0204 532.4101,686.4345 528.9984,681.0846 526.0475,675.5448 523.5769,669.8532 520.8063,661.1156 519.1934,652.2511 518.7745,646.3327 519.1396,637.5306 520.0458,631.7622 522.3932,623.339 524.6091,617.9198 528.8886,610.154 532.3621,605.2556 536.3152,600.6071 540.73,596.2296 545.5858,592.1422 553.6424,586.593 559.487,583.3038 568.8803,579.0188 578.9082,575.5463 589.4196,572.918 600.2423,571.1587 611.184,570.2869 622.0348,570.3153 632.5709,571.2512 642.56,573.0982 648.7998,574.836 657.36,578.2 664.7681,582.4663 670.8277,587.622 674.0351,591.5439 676.5293,595.8449 677.499,598.1347 678.8687,602.9856 679.4662,608.1877 678.9034,616.6154 676.6085,625.7358 674.1436,632.1633 670.961,638.8374 667.0953,645.7278 662.5876,652.8002 651.8412,667.3368 639.1618,682.1016 625.0509,696.6944 617.626,703.7885 606.2191,714.0121 590.8632,726.5488 575.8194,737.3989 561.5746,746.1196 554.8903,749.56 548.5647,752.3329 539.8466,755.1727 534.6066,756.153 529.8658,756.3876 527.6925,756.2237 523.7577,755.3344 520.3924,753.7025 517.6176,751.3412 515.4509,748.2699 513.9056,744.5142 512.9916,740.1054 512.715,735.0797 513.5001,726.4757 515.7226,716.7317 519.3689,706.0175 522.5781,698.4243 526.3975,690.5342 533.2384,678.2623 541.3563,665.6286 550.669,652.8099 561.0718,639.973 576.4095,623.0934 588.803,610.7883 606.1404,595.0789 619.4528,583.9478 632.7395,573.465 649.9155,560.6066 682.7613,536.8473 690.8625,530.6125 697.1069,525.2423 700.1409,522.1449 702.2209,519.4343 703.3183,517.1101 703.4936,516.0927 703.0948,514.3467 701.7028,512.9851 699.3342,512.0067 696.0166,511.4103 691.7881,511.1942 683.8442,511.5788 674.1585,512.808 666.8493,514.0937 646.1687,518.9292 627.8544,524.4568 608.7373,531.4504 589.5217,539.8965 580.0875,544.6571 570.8744,549.7703 557.6291,558.0879 545.274,567.1585 534.0107,576.9448 524.014,587.3978 515.4315,598.4539 508.3843,610.0331 502.9682,622.0372 500.3002,630.2187 499.2552,634.3485 497.7511,642.6593 497.035,650.9998 497.112,659.3199 497.9833,667.5662 498.7168,671.6441 500.7779,679.6722 502.1046,683.6072 505.3466,691.2802 507.2601,695.0023 511.6658,702.1775 514.155,705.6146 519.6969,712.1481 522.7452,715.2288 529.3832,720.9802 532.9668,723.6363 540.6454,728.4747 544.7321,730.644 553.3768,734.4536 557.9242,736.0832 567.4384,738.7689 572.3917,739.8173 582.653,741.3098 587.9441,741.7493 598.8012,742.0083 604.3469,741.8266 615.6177,740.842 621.319,740.0407 632.7899,737.8277 638.5324,736.4203 649.9596,733.0177 655.6144,731.0293 666.7282,726.4978 677.4733,721.2573 682.6664,718.3838 692.611,712.158 701.8567,705.3338 710.2752,697.962 717.7448,690.096 724.1537,681.7913 729.4035,673.1041 733.412,664.0913 736.1159,654.8092 737.4728,645.3134 737.639,640.5021 736.9447,630.7855 734.8911,620.9852 731.5045,611.1486 726.827,601.3198 720.9158,591.5396 713.8425,581.845 705.6912,572.2692 696.5574,562.8414 686.5463,553.5872 675.7706,544.528 664.3488,535.6817 652.4037,527.0624 640.0595,518.6808 627.4412,510.5444 608.2685,498.8148 576.6385,480.6183 535.8012,458.374 465.0514,420.9675"/>
  </g>
  <g fill="none" id="layer2" inkscape:groupmode="layer" inkscape:label="2" stroke="#080" style="display:inline">
    <polyline points="494.3358,601.7616 498.8602,609.0718 505.6055,618.3814 513.5425,628.227 523.4725,639.6242 536.0242,653.0628 547.2158,664.247 556.7101,672.8687 559.5159,674.927 560.0254,675.1026 560.043,674.6879 557.8512,671.7677 552.9228,666.4463 539.2238,653.3492 525.9059,642.0006 513.6236,632.7929 504.6387,627.1537 497.044,623.6537 493.9141,622.8314 491.2889,622.6717 489.201,623.1924 487.6738,624.4003 486.5734,626.868 486.3766,630.3658 487.0682,634.8279 488.6129,640.1568 490.956,646.2223 494.7154,654.2405 502.8246,668.4798 508.4362,676.88 513.305,683.4071 518.1645,689.244 522.8308,694.1749 527.1159,698.0261 531.4949,701.0599 534.7626,702.2918 535.8988,702.2466 536.6673,701.7866 537.076,700.1809 536.3397,697.6867 534.4298,694.5285 531.3556,690.9639 528.0874,688.0046 524.1409,685.1055 519.5661,682.407 515.7584,680.5951 507.2969,677.7385 499.5288,676.3472 494.6204,676.0174 489.5648,676.0977 480.8944,677.1874 473.8152,678.9382 464.8908,682.2118 455.9848,686.6221 447.1918,692.037 440.291,696.9651 431.884,703.6661 408.4811,724.4079 401.339,730.3827 394.5331,735.3185 389.3411,738.3247 385.6039,739.9518 382.0097,741.0007 378.5676,741.4492 376.3625,741.4095 374.2327,741.0993 371.1868,740.1343 368.3299,738.5894 365.674,736.4974 363.2309,733.9025 361.0126,730.8586 357.294,723.6828 355.8138,719.6964 354.2526,714.1449 352.6962,704.3237 352.6738,695.229 353.3519,690.7062 354.1861,687.7446 355.7246,684.461 357.1908,682.5459 359.549,680.7738 361.6098,680.051 364.7306,679.9037 368.258,680.6737 372.1701,682.318 376.4458,684.768 384.7462,690.6996 407.3298,708.5333 415.4166,714.0374 422.2647,717.9942 429.4581,721.3697 435.0805,723.428 442.8748,725.4376 448.9358,726.3378 457.2842,726.6717 465.9049,725.9831 474.749,724.2722 486.017,720.7545 497.3653,715.8434 508.5873,709.7564 519.4393,702.7679 529.6489,695.1914 537.1602,688.9306 545.486,681.137 552.3766,673.6798 557.5963,666.8544 560.447,662.0225 562.26,656.947 562.4313,655.2519 562.0983,653.0947 561.4889,651.9225 560.0103,650.5742 558.661,649.9522 556.1194,649.4359 552.9962,649.4155 549.3426,649.8796 542.2325,651.678 532.3845,655.3677 521.6212,660.4401 508.6521,667.5772 496.042,675.3028 474.7686,689.0942 468.1469,692.9924 464.0482,694.8348 461.7737,695.2535 460.4353,694.6675 460.0615,693.0469 460.9784,689.5679 463.4505,684.5331 467.4799,678.0649 471.8134,671.9735 483.3452,657.8099 496.3489,643.8834 511.6765,629.2195 528.7421,614.425 546.7274,600.0013 581.1017,573.6357 595.0082,562.0856 601.3321,556.0159 606.2519,550.3291 609.6408,545.0141 611.1321,541.2616 611.6198,538.8662 611.7046,536.5524 611.3927,534.3166 610.6939,532.1553 608.1899,528.0409 604.3311,524.1765 599.2991,520.5269 591.6922,516.2102 583.0709,512.095 557.8916,501.0345 550.0221,497.0522 544.6269,493.7894 539.2922,489.5709 536.9471,486.9469 535.7686,485.1531 534.6035,482.389 534.2397,480.4937 534.526,476.5656 536.178,472.438 539.1893,468.0931 543.5257,463.5153 550.7095,457.4475 565.78,446.9133 598.9034,426.1846 613.5448,416.6261 626.9645,406.8931 636.4396,398.8176 643.7601,390.9485 646.9256,386.4028 648.4781,383.4718 649.9329,379.257 650.3075,376.5874 650.2031,374.0454 649.1562,370.4997 647.0689,367.3122 643.9929,364.5224 640.0005,362.1665 633.4114,359.7538 627.6615,358.5232 621.3543,357.8089 612.3048,357.6763 605.2134,358.1935 595.6112,359.6929 588.4713,361.406 581.5248,363.6001 574.8891,366.2474 568.6718,369.3151 562.969,372.7654 557.8644,376.557 553.4287,380.645 549.7192,384.9827 547.672,387.9891 545.2638,392.6344 543.6693,397.3983 543.063,400.616 542.8374,405.4692 543.4208,410.3128 544.7909,415.1013 546.126,418.2417 548.7319,422.8438 552.0185,427.2813 555.9289,431.5178 560.3965,435.5199 565.3457,439.2567 570.6917,442.7002 576.3413,445.8248 584.1709,449.4555 594.0706,453.0665 601.7491,455.1636 610.5936,456.7397 618.1204,457.1051 623.8694,456.2224 626.3084,455.0839 627.475,454.0695 628.2589,452.8505 628.6517,451.4272 628.2498,447.9715 626.2799,443.7149 622.8103,438.6804 617.9625,432.9022 608.4875,422.9502 580.1377,395.1267 567.4205,382.1677 555.6052,369.337 545.4353,357.2559 538.6581,348.2318 532.9601,339.202 531.1998,335.5879 530.1982,332.6529 529.9664,330.4421 530.5049,328.9878 531.8051,328.308 533.8499,328.4057 536.6129,329.269 541.3513,331.5634 552.2094,338.4159 567.6516,349.7294 588.9368,366.7121 606.7168,381.9853 618.6766,393.4917 622.6307,398.0281 624.9823,401.5531 625.6237,403.4617 625.2769,404.6961 623.9415,405.2266 621.6372,405.0332 618.403,404.1051 614.2959,402.4397 605.7179,398.0462 595.3511,391.7103 583.7009,383.5935 571.3178,373.9411 561.2626,365.3358 551.3808,356.1744 541.9393,346.7076 533.1841,337.219 523.5388,325.8009 515.6769,315.4685 509.007,305.386 505.6945,298.7402 505.37,296.9435 505.9529,296.2491 508.1486,297.0912 513.1547,300.9903 528.2163,315.4732 604.4423,393.3909 618.9345,408.6834 631.6852,422.9854 638.1675,430.9287 643.5821,438.3062 647.7962,445.0575 650.7048,451.1319 652.2359,456.4874 652.4719,459.6414 651.6452,463.7274 649.4237,467.0207 645.8605,469.5055 641.0375,471.1719 635.063,472.0151 625.5354,471.8595 617.4168,470.7885 608.6505,468.9078 599.414,466.2273 589.8886,462.7602 580.2554,458.5235 570.6914,453.5388 561.3662,447.8335 555.3612,443.646 546.782,436.8191 541.4077,431.9247 533.957,424.1103 529.4459,418.6136 523.4372,409.9937 519.9742,404.0343 515.6483,394.8475 513.3695,388.6043 511.5917,382.3068 510.3258,375.9926 509.4037,366.578 509.4464,360.4014 510.4989,351.398 511.8572,345.6372 514.8689,337.4756 517.516,332.4221 522.4206,325.5371 526.2936,321.4736 530.6302,317.8782 535.4105,314.7874 543.3614,311.1663 549.1423,309.4671 558.4536,308.0384 565.0334,307.8499 575.3555,308.7233 582.469,310.073 589.7069,312.0272 597.0123,314.5726 607.9633,319.4587 615.1649,323.3942 625.6491,330.2443 632.3245,335.3955 641.691,343.9098 647.4031,350.0552 652.6118,356.5292 657.2544,363.2908 661.2736,370.2981 664.618,377.5097 667.2437,384.8843 669.1153,392.3816 670.2064,399.9624 670.5004,407.5891 670.3462,411.4084 669.435,419.0375 668.6797,422.8391 666.5768,430.3972 663.7002,437.871 660.075,445.2337 655.7338,452.4612 650.7154,459.5316 645.0647,466.4259 638.8319,473.127 632.0713,479.6207 621.0689,488.9457 613.2492,494.8714 600.9508,503.3053 588.1626,511.179 575.0984,518.4828 561.9653,525.2128 548.9583,531.3649 532.1207,538.6558 516.2038,544.8834 501.5257,550.0229 488.3436,554.0533 476.8567,556.961 465.0998,559.0129 457.8907,559.4002 455.0381,559.1833 451.709,558.3557 449.5221,556.9392 448.473,554.9518 448.5497,552.4134 449.7349,549.3458 452.0086,545.7717 455.3477,541.7147 459.7256,537.1985 467.1241,530.502 478.7487,521.1172 492.788,510.6824 553.2186,468.582 576.0746,452.0885 597.3887,435.4323 612.7366,421.8594 620.4521,414.028 624.8529,408.9945 628.5994,404.1441 631.647,399.5055 633.9581,395.1073 635.5027,390.9777 636.2595,387.1439 636.2159,383.6322 635.3679,380.4673 634.643,379.0222 632.5962,376.4201 631.2778,375.2679 626.1707,372.4332 621.8377,371.0796 614.0251,369.8812 604.7527,369.7011 594.1699,370.5463 586.4679,371.6765 574.0739,374.2088 560.8303,377.7191 546.917,382.1677 537.3563,385.6304 527.6261,389.4711 512.8161,395.9005 502.8637,400.6035 487.9162,408.2314 473.0503,416.4838 453.5238,428.3351 439.1971,437.7703 420.6152,450.959 402.6833,464.7232 385.4175,478.9582 368.8515,493.5924 353.0661,508.592 338.1841,523.9659 327.7091,535.7669 317.9061,547.8138 308.8563,560.1057 300.6429,572.6281 293.3477,585.3507 287.047,598.2264 281.8084,611.1901 278.934,619.8409 276.5697,628.4648 273.9998,641.2774 272.9454,649.6829 272.4195,657.9322 272.4189,665.9819 272.9372,673.7862 273.9648,681.2978 275.4896,688.4684 277.4966,695.2494 279.9685,701.5928 282.8857,707.4517 286.2264,712.7818 289.9669,717.5418 294.0821,721.6944 298.5454,725.2073 303.3292,728.0536 311.0437,731.0304 316.5037,732.1358 322.1834,732.5335 328.0542,732.2281 334.0876,731.2305 340.2561,729.5572 346.5329,727.2302 352.8925,724.2766 359.3104,720.7283 365.7637,716.6218 372.2311,711.9971 385.1303,701.3714 397.8699,689.2318 413.4044,672.5511 431.2468,651.3967 450.502,626.8362 471.6268,598.2696 486.9668,575.8577 491.4546,568.4322 494.3153,562.749 495.4448,558.8962 495.3362,557.6766 494.7697,556.9359 493.051,556.7315 491.3213,557.2033 486.4537,559.6134 479.711,563.9826 468.6679,572.189 448.3985,588.6986 405.2384,625.5214 380.8169,645.8766 353.1907,667.7377 328.8023,685.7859 302.5278,703.7973 281.7496,716.9405 260.2495,729.4812 238.2701,741.148 223.4994,748.3059 208.757,754.8762 194.1617,760.7841 179.8436,765.9602 165.9427,770.342 152.6065,773.8751 133.9947,777.4891 122.7394,778.7293 112.5809,779.0139 103.6599,778.3387 99.704,777.6427 92.8736,775.5419 90.0242,774.142 87.5666,772.5133 85.5096,770.6597 83.8606,768.5856 82.6252,766.2957 81.8071,763.7954 81.4086,761.0906 81.4299,758.1874 81.8696,755.0926 83.9937,748.3561 85.6696,744.7297 90.2193,737.0001 93.0777,732.9138 99.9154,724.3414 112.8054,710.6177 128.5386,696.0755 146.7057,680.9616 166.8553,665.5172 188.512,649.9719 218.9006,629.4534 250.006,609.5814 280.8089,590.7348 317.5457,569.0777 357.2371,546.4445 400.0447,522.7211 445.2987,498.3446"/>
  </g>
  <g fill="none" id="layer3" inkscape:groupmode="layer" inkscape:label="3" stroke="#f00" style="display:inline">
    <polyline points="238.4994,565.3985 237.1671,574.4785 236.885,583.5069 237.7021,592.3445 239.5473,600.8356 242.2397,608.8155 245.5093,616.1212 250.0272,624.2881 257.8199,636.5435 258.7824,638.5809 258.9461,639.7505 258.347,640.5925 256.5818,640.9362 242.5448,639.6392 238.475,639.7532 235.362,640.3486 232.8016,641.5235 230.9553,643.361 229.9409,645.9081 229.8248,649.1701 230.4245,652.4067 231.9499,656.8393 233.8402,660.9023 236.7549,666.0718 243.4823,675.6865 247.6277,680.5511 251.1979,684.1537 254.7895,687.1904 257.6306,689.1249 260.4085,690.559 263.0967,691.4504 265.6735,691.7712 268.1231,691.5094 270.4354,690.6689 272.6058,689.2695 276.0683,685.5875 279.5539,679.7933 282.2816,673.779 288.7248,657.6753 292.1161,651.189 294.1621,648.4922 295.9057,646.9038 298.2335,645.7063 300.2208,645.4207 303.4108,646.1591 307.4265,648.7955 311.0757,652.5054 315.4915,658.3302 323.1166,671.0434 337.1704,699.197 339.3973,703.1509 340.685,704.7337 341.1002,704.8596 341.3586,704.5387 341.3974,702.5934 339.5758,694.1434 336.2742,683.9059 331.7494,672.6993 327.1421,663.3482 322.6243,655.9378 318.828,651.3452 317.2573,650.207 316.1893,650.1233 315.6991,651.0824 315.7608,652.5694 317.4595,658.0147 320.7777,664.811 324.9564,671.705 330.1176,678.9009 335.1161,684.8502 340.4369,690.1915 344.9682,693.918 349.4595,696.7938 353.7918,698.6797 357.8497,699.4861 360.8238,699.3292 364.1123,698.1455 366.8306,695.9289 368.885,692.7961 370.1886,688.9073 370.6614,684.4576 370.3927,680.6407 369.5124,676.7238 367.9894,672.8276 365.7959,669.0711 363.6963,666.4143 360.2748,663.1721 357.2343,661.0198 353.783,659.1488 349.92,657.5924 345.6477,656.3792 340.9719,655.533 335.9026,655.0723 330.4539,655.0099 318.4948,656.1015 305.2993,658.7936 288.7431,663.8109 271.5606,670.5337 254.5895,678.474 236.7216,688.2245 228.8626,693.0449 220.4187,698.7294 213.7995,703.7728 209.2417,707.9146 206.8794,710.9328 206.5568,711.786 206.7279,712.6606 207.6593,713.0335 209.3099,712.8966 213.5096,711.5434 220.5408,708.1556 227.6123,704.0236 235.3356,698.9131 243.2748,693.0721 251.0043,686.7857 256.7699,681.6419 261.9659,676.57 267.4211,670.5717 271.4899,665.2254 273.991,660.7952 274.8165,657.5064 274.49,656.1578 273.9315,655.5384 272.5906,655.0463 271.3691,655.0173 268.1743,655.691 262.8781,657.9126 257.7298,660.7742 251.9168,664.555 245.5986,669.1871 238.957,674.5768 232.1922,680.6038 225.5178,687.1222 219.1545,693.9612 213.3222,700.9287 208.23,707.8152 204.0673,714.4004 201.6523,719.0071 199.4767,724.533 198.6769,728.1047 198.7579,731.9603 199.6818,734.0914 201.3307,735.5179 203.6763,736.2088 206.6774,736.1498 210.2808,735.3432 214.4231,733.8064 219.0315,731.5718 229.323,725.2062 240.464,716.7587 253.5775,705.1612 265.7774,692.8304 277.3807,679.4047 282.882,672.0883 287.3655,664.985 289.3319,660.1536 289.3363,658.698 288.6855,657.9204 286.8104,657.9644 283.8167,659.2513 276.0662,664.4237 265.5468,673.0132 251.0566,686.2092 233.3548,703.6492 214.941,723.0682 200.4606,739.6217 196.9586,744.147 195.7586,746.4568 196.8343,745.9868 199.3772,743.9105 209.955,733.8147 274.2599,667.5809 286.6055,655.327 294.8531,647.7872 297.2005,646.0252 298.2906,645.6583 298.2697,646.2993 297.5307,647.7133 294.7295,651.7269 282.1456,667.0309 266.4746,684.4362 247.9637,703.6192 231.2408,719.6629 216.5409,732.3577 207.0865,739.1319 203.6429,740.7977 202.5324,740.9892 201.8523,740.7474 201.6641,739.5757 202.1033,738.2636 205.1852,733.2078 211.0297,725.8389 219.4336,716.5342 230.0779,705.7614 239.9343,696.4379 250.7271,686.791 262.2061,677.1005 283.1886,660.8367 301.2533,648.4259 312.9547,641.2985 321.4182,636.6736 329.5378,632.7297 337.2542,629.5131 344.5157,627.06 351.2784,625.3965 357.5052,624.5393 361.3432,624.4197 366.6109,624.9174 371.2723,626.2213 375.3094,628.3171 378.7079,631.1836 380.613,633.5085 382.9228,637.5904 384.5681,642.3465 385.5433,647.7242 385.8445,653.6608 385.4703,660.0826 384.4199,666.9052 382.6932,674.0331 379.3402,683.8273 374.7904,693.6971 369.0539,703.3405 363.9831,710.2339 356.22,718.7159 349.6689,724.3749 342.5198,729.2945 334.8045,733.3642 326.5636,736.4898 317.8474,738.5968 308.717,739.634 302.4355,739.7168 292.783,738.924 282.9388,737.044 273.0094,734.1117 263.1132,730.1823 253.3797,725.3299 247.0489,721.6264 240.8941,717.583 229.2859,708.6105 223.9189,703.7527 218.9,698.697 214.2695,693.4818 210.0656,688.146 204.636,680.0012 201.6449,674.5332 199.1865,669.0787 196.5399,661.0011 195.1796,653.1523 194.9955,648.1008 195.3867,643.2296 197.0326,636.3219 198.815,632.0203 201.1227,627.989 205.5147,622.4946 209.0203,619.2271 212.949,616.2952 217.264,613.7128 221.9259,611.4921 226.893,609.6433 232.1221,608.1748 240.3592,606.6986 246.0466,606.2049 251.8378,606.106 257.6872,606.4023 263.5504,607.0925 272.2757,608.8609 277.9851,610.5228 283.5619,612.5646 291.596,616.3232 296.6798,619.2796 301.5074,622.5835 308.2031,628.1616 312.2633,632.2722 315.9719,636.6751 320.8281,643.7817 323.5667,648.8196 325.8871,654.0665 328.5537,662.2635 329.7726,667.8982 330.5343,673.6271 330.8069,682.3125 330.0253,690.9837 328.1853,699.4917 325.2904,707.6805 321.3521,715.3907 316.3911,722.4635 310.4385,728.7456 303.5373,734.0948 295.7439,738.3848 287.13,741.5106 277.7838,743.3934 267.8103,743.9848 260.8732,743.6523 250.1384,742.0697 239.148,739.2158 231.7642,736.6343 220.7423,731.8007 209.9634,725.9008 199.6381,719.0503 193.1131,714.0197 186.9496,708.6673 178.5187,700.1325 171.2422,691.1285 165.3008,681.8136 160.8465,672.3459 157.9956,662.8801 156.8225,653.5647 156.8106,650.5174 157.3563,644.5395 157.9123,641.6183 159.5837,635.9341 160.6949,633.1797 163.4544,627.8665 168.8831,620.4422 173.3111,615.8963 178.338,611.7022 186.8981,606.1173 196.5247,601.435 207.0269,597.7061 214.4157,595.7696 222.0434,594.2832 233.7992,592.911 241.7579,592.5735 249.7449,592.6996 261.6547,593.7565 273.3188,595.8474 280.875,597.8089 288.2015,600.2171 298.6691,604.6492 308.3974,610.0331 317.2761,616.3236 325.2128,623.464 332.132,631.385 337.9745,640.0028 341.2489,646.0869 344.0148,652.4036 347.1954,662.233 349.2019,672.3634 350.0308,682.6389 349.9321,689.4859 349.317,696.2675 348.1905,702.9272 346.5587,709.407 343.1797,718.6596 340.319,724.4302 336.9836,729.8143 331.1175,737.0429 326.6521,741.2203 321.7622,744.8282 313.6741,749.0819 307.8124,751.0955 304.7502,751.8454 295.0809,753.0396 284.7731,752.6257 273.9517,750.6027 262.7606,747.0034 251.3622,741.8926 239.9374,735.3645 232.4029,730.2835 225.0055,724.6672 214.3061,715.3385 204.2777,705.0728 195.1388,694.0462 187.0998,682.4407 180.3543,670.4398 176.6605,662.3086 172.4297,650.0454 169.8649,637.8499 169.1151,629.8344 169.0321,625.8774 169.4505,618.0899 170.6435,610.5029 171.527,606.7957 173.8569,599.5745 175.2977,596.0681 178.7132,589.2815 185.1073,579.7149 190.1587,573.7792 198.802,565.5872 208.5667,558.2975 219.2599,551.9548 230.6772,546.5944 238.5873,543.5803 246.6631,541.0215 254.8427,538.923 263.0651,537.2892 271.2712,536.1233 279.4038,535.4278 287.4083,535.2042 295.2331,535.4536 302.8293,536.1767 310.1513,537.3745 317.1571,539.0478 323.8075,541.1973 333.0398,545.3159 338.653,548.658 343.8002,552.4768 350.5936,559.0956 354.4732,564.098 357.812,569.5673 361.7725,578.6326 363.6959,585.237 365.0336,592.2761 365.9254,603.6146 365.4634,615.827 363.636,628.8232 361.6553,637.8676 359.0634,647.1694 354.0298,661.5025 349.9129,671.2333 345.1915,681.0342 336.9899,695.7194 327.4742,710.1632 316.6925,724.0946 304.7123,737.2256 291.6245,749.2597 282.3413,756.5277 277.5477,759.9036 267.6865,766.0893 262.6321,768.8803 252.3126,773.8151 247.0635,775.9432 236.4302,779.4863 225.6809,782.0408 220.2884,782.9361 209.523,783.9476 204.1736,784.0603 193.6026,783.4968 188.4066,782.8217 178.2595,780.6921 168.5293,777.5404 163.8547,775.5898 154.955,770.9619 146.7449,765.4012 142.9312,762.2865 135.9492,755.4238 129.9053,747.7681 127.2618,743.6635 122.779,734.945 119.4206,725.6088 117.2362,715.731 116.2583,705.3894 116.5017,694.6624 117.9654,683.628 119.1508,678.0195 122.414,666.6665 126.8379,655.1924 129.4714,649.4317 135.5479,637.9041 142.6514,626.4199 146.5665,620.7123 155.0747,609.4 169.3742,592.7798 185.2464,576.705 202.3681,561.2947 220.4081,546.6418 239.0378,532.8148 257.9403,519.8605 283.0582,503.9927 307.5052,489.7822 330.7478,477.3136 357.4603,464.3413 371.996,458.038 381.0015,454.4813 397.2707,448.972 407.8877,446.2826 414.1905,445.1903 419.8633,444.6638 424.8968,444.7049 431.2279,445.8302 434.6225,447.2873 437.3465,449.3063 439.3929,451.8833 440.7559,455.0133 441.1799,456.7839 441.4177,462.909 440.1019,470.2374 437.2302,478.7484 432.8004,488.4243 426.8094,499.2534 419.2505,511.2336 410.1109,524.3762 399.368,538.7025 386.9934,554.2225 362.6941,582.6957 345.9138,601.2582 327.5241,620.8109 293.5272,655.165 271.3555,676.4722 255.9659,690.7884 224.1216,719.2092 199.7465,739.8543 183.514,753.0428 167.478,765.6009 151.8105,777.3788 129.4058,793.2556 115.4833,802.4363 102.6024,810.3374 90.9578,816.8403 80.735,821.8442 72.1048,825.2703 65.2162,827.0636 62.4645,827.3381 60.1918,827.196 58.4083,826.6374 57.122,825.6637 56.3387,824.2775 56.0618,822.4822 56.2922,820.2825 57.0294,817.6842 60.0141,811.3195 62.2527,807.5695 68.19,798.9819 76.0138,789.0175 91.0833,771.7065 109.8064,751.8895 131.7231,729.9669 165.0195,698.1774 211.3655,655.6754 250.668,620.5261 369.2531,515.6661 433.384,457.5238 475.6386,418.2536 514.0713,381.976 604.2679,295.1815"/>
  </g>
</svg>
