<?xml version="1.0" encoding="utf-8" ?>
<svg xmlns="http://www.w3.org/2000/svg" xmlns:cc="http://creativecommons.org/ns#" xmlns:dc="http://purl.org/dc/elements/1.1/" xmlns:ev="http://www.w3.org/2001/xml-events" xmlns:inkscape="http://www.inkscape.org/namespaces/inkscape" xmlns:rdf="http://www.w3.org/1999/02/22-rdf-syntax-ns#" xmlns:sodipodi="http://sodipodi.sourceforge.net/DTD/sodipodi-0.dtd" xmlns:xlink="http://www.w3.org/1999/xlink" baseProfile="tiny" height="29.7cm" version="1.2" viewBox="0 0 793.7007874015749 1122.5196850393702" width="21.0cm">
  <metadata>
    <rdf:RDF>
      <cc:Work>
        <dc:format>image/svg+xml</dc:format>
        <dc:source/>
        <dc:date>2022-05-22T14:24:14.621346</dc:date>
      </cc:Work>
    </rdf:RDF>
  </metadata>
  <defs/>
  <g fill="none" id="layer1" inkscape:groupmode="layer" inkscape:label="1" stroke="#00f" style="display:inline">
    <polyline points="279.3645,631.3097 271.3431,635.2202 263.9509,640.218 256.5628,646.5953 249.669,654.1553 243.7556,662.6325 239.895,670.1562 237.2261,677.8515 235.8918,685.4574 235.9603,692.6928 236.6736,696.7359 237.8744,700.4799 238.9342,702.7806 240.8896,705.8972 243.2496,708.5673 245.9689,710.7459 247.9565,711.9067 251.1587,713.1887 254.5737,713.9012 258.1398,714.0334 261.7937,713.585 265.4719,712.5654 269.1114,710.9931 272.651,708.8957 276.032,706.3087 279.1997,703.2751 283.0041,698.6213 285.4849,694.7458 287.6027,690.6062 289.3249,686.2645 290.6246,681.7844 291.4815,677.2295 291.8815,672.6628 291.8174,668.1453 291.288,663.7358 290.298,659.4897 288.8578,655.459 286.9838,651.6913 284.6984,648.2299 282.0296,645.1137 279.0118,642.3769 274.5156,639.368 270.8501,637.6227 265.6734,636.0129 261.651,635.3608 256.2236,635.2468 250.8715,636.0024 247.0074,637.1374 242.1895,639.397 238.9153,641.6377 236.0036,644.3298 233.5123,647.4534 230.9308,652.2466 229.6013,656.2732 228.8231,660.6293 228.6114,665.2723 228.9693,670.1537 229.8886,675.2191 231.35,680.4083 233.3235,685.6557 235.77,690.891 238.6411,696.04 241.8813,701.0257 246.668,707.2842 250.5205,711.5855 255.8729,716.6563 261.3149,720.8207 265.3529,723.2657 270.5474,725.5337 274.2164,726.4492 277.6236,726.6719 280.714,726.1991 282.5737,725.502 285.03,723.8984 287.0527,721.6525 288.6107,718.8048 289.6797,715.4056 290.2431,711.514 290.0362,704.1157 289.2249,699.2483 287.9077,694.1538 284.6329,685.372 280.1105,676.5398 274.5048,668.0022 270.7095,663.1537 266.6569,658.5874 258.0337,650.5207 249.195,644.1824 244.8875,641.7544 240.7616,639.8581 236.8968,638.5147 233.3704,637.7393 229.3188,637.6051 226.851,638.1836 224.9324,639.3426 223.605,641.0759 222.8976,643.3729 222.8254,646.2181 223.3896,649.5907 224.5783,653.4641 226.367,657.8055 229.6213,664.2531 237.3624,677.0131 246.9885,690.9581 262.0635,710.9032 276.0574,727.7347 281.8264,733.8937 285.6088,737.4042 288.5377,739.5132 290.5348,740.1446 291.1663,739.8979 291.547,739.2789 291.3887,736.1482 289.6528,730.9071 287.1644,725.3775 282.7685,717.0917 278.3215,709.6197 267.4216,693.3977 256.4539,679.0075 243.5924,663.885 229.4608,649.0449 221.682,641.6866 218.3058,639.0366 236.7928,660.128 247.8524,673.4984 259.6635,689.0236 271.09,705.6386 281.0897,721.991 289.6722,738.3699 292.5392,744.9415 294.3478,750.0859 295.0515,754.202 294.8412,755.0711 294.3502,755.4805 292.5377,754.9103 289.6505,752.5161 285.7495,748.3886 279.5812,741.0264 262.1273,718.2785 240.6049,688.7917 227.7094,670.1137 220.1442,658.0271 215.1397,648.3044 213.7517,644.4834 213.1558,641.4186 213.3654,639.1449 214.3759,637.6882 215.4845,637.1799 216.9294,637.0455 219.6971,637.5473 224.4151,639.5273 228.6308,641.9856 233.3339,645.2624 238.4316,649.3357 247.5352,657.8098 256.986,668.2134 266.3112,680.265 275.0639,693.583 281.3819,704.8236 288.1308,719.1123 293.3372,733.0304 296.785,745.8358 297.6376,750.4759 298.3332,756.7716 298.32,762.1387 297.9165,765.1349 296.7229,768.6728 295.5402,770.3547 294.0541,771.4719 292.2718,772.0118 289.0628,771.7284 286.5826,770.8138 283.8451,769.3287 279.29,766.0648 272.4744,759.8954 264.9678,751.867 256.9712,742.275 248.7157,731.4607 240.4583,719.7936 232.4749,707.6537 225.0502,695.416 218.4649,683.4363 214.2354,674.8185 209.7283,664.054 207.3016,656.6673 205.7592,649.9749 205.1382,644.0582 205.4528,638.9853 206.6948,634.8124 208.8363,631.5838 210.7412,629.973 213.0069,628.8044 217.0336,627.8916 220.0999,627.8474 223.4387,628.2558 228.8902,629.7161 234.7745,632.1878 240.9744,635.6591 247.3698,640.1112 253.8395,645.5173 260.2645,651.8405 266.5298,659.0326 272.5264,667.0318 278.1531,675.7606 281.6527,681.939 286.4624,691.6633 289.3431,698.3954 291.9397,705.2772 295.2645,715.7767 297.0792,722.8182 299.1685,733.3014 300.4718,743.5071 300.9692,753.2192 300.6521,762.2166 299.9885,767.7092 298.3209,775.0338 296.768,779.2229 293.7942,784.3374 291.3956,786.9049 288.6776,788.759 287.2031,789.4107 284.0328,790.1527 278.7576,789.8494 274.9236,788.7057 270.8625,786.8211 264.4019,782.6489 259.8908,779.0112 255.2531,774.7296 248.1348,767.1934 238.5381,755.3255 229.1159,741.7851 222.3678,730.8204 214.0719,715.5183 208.5602,703.7978 203.8045,692.0891 199.9224,680.5786 197.8691,673.1005 196.2716,665.834 194.7687,655.4245 194.3696,645.7185 195.0835,636.829 196.8928,628.8515 198.688,624.0796 200.9337,619.768 205.0967,614.2001 208.3615,611.1077 211.9813,608.5238 217.9993,605.6198 222.3482,604.3407 226.9195,603.5919 231.6716,603.3757 236.5616,603.6928 244.0608,605.168 249.107,606.8169 254.1411,608.9966 261.5794,613.2566 268.7639,618.6945 275.57,625.2924 281.8831,633.0231 287.6007,641.8478 292.6325,651.7121 296.9013,662.543 300.3432,674.2448 302.9075,686.6956 304.5568,699.7441 305.2668,713.2072 305.0263,726.8689 303.8352,740.4812 301.7032,753.7675 298.6494,766.4285 294.7035,778.1518 289.9064,788.6234 284.3111,797.5431 280.1698,802.4918 275.7263,806.5598 273.3992,808.2447 268.5525,810.8854 266.0406,811.8316 260.8603,812.9578 258.2009,813.1338 252.7673,812.7081 247.2148,811.2501 244.4075,810.1382 238.759,807.1633 233.1055,803.2141 224.7252,795.5562 216.622,785.9789 208.9765,774.6992 201.969,761.9654 197.7382,752.8009 192.1741,738.2484 189.05,728.1323 185.3361,712.5448 183.5528,701.9955 181.972,686.1273 181.6665,675.624 181.9647,665.2586 182.8634,655.0919 184.353,645.1792 186.4175,635.5701 189.0356,626.3086 193.9397,613.1512 197.8115,604.9165 204.4253,593.435 209.3081,586.3911 217.2238,576.781 222.822,571.0286 231.5704,563.4024 240.5818,556.9978 249.6784,551.8354 255.7045,549.0939 264.5631,546.0454 273.0654,544.2854 281.0664,543.8224 288.4346,544.6585 292.9374,545.9379 299.0013,548.9404 302.5448,551.6649 307.0552,556.8388 309.4981,561.0156 312.2792,568.3811 313.5281,574.033 314.475,583.6375 314.4831,590.7978 313.9914,598.5659 312.3205,611.3538 310.5897,620.627 307.0836,635.6271 304.1525,646.3241 298.895,663.34 292.651,681.3929 285.4866,700.2905 277.4849,719.7805 268.7477,739.5466 259.3971,759.2068 249.5766,778.3181 239.4516,796.387 232.6236,807.5953 222.4144,822.7562 215.7234,831.5385 209.2025,839.0935 202.9201,845.2938 196.9453,850.0315 194.0946,851.8245 188.7089,854.2184 186.1902,854.8085 183.798,854.99 181.5399,854.7621 179.4231,854.1252 177.4545,853.0811 175.6405,851.6326 172.4999,847.54 170.0432,841.8936 169.0822,838.5069 167.7111,830.6541 167.0891,821.436 167.5763,805.2711 169.7545,786.6438 172.1217,773.0634 175.1926,758.7036 181.0446,735.9864 185.7163,720.2428 190.9486,704.1631 196.6878,687.8622 206.1193,663.2264 216.3512,638.6461 227.1643,614.3791 238.3349,590.6206 249.6414,567.5017 285.6512,496.0586 303.9943,458.9549 320.4991,424.1872 333.7229,394.9782"/>
  </g>
  <g fill="none" id="layer2" inkscape:groupmode="layer" inkscape:label="2" stroke="#080" style="display:inline">
    <polyline points="297.217,523.9769 292.4531,524.1999 291.0489,523.7278 290.4476,523.1211 290.256,521.9808 290.7556,520.4714 293.7273,516.4039 303.2725,507.2089 337.7827,477.112 346.892,468.6458 350.7145,464.7168 333.4518,478.0951 319.7489,488.0914 271.0373,520.8379 264.6676,526.1999 263.2505,528.0123 262.762,529.4504 263.0088,530.2767 263.7726,530.8829 266.7778,531.4276 272.5042,530.9365 278.938,529.5641 285.0659,527.7699 291.6151,525.41 298.3198,522.517 303.6198,519.8466 309.9568,516.1068 314.653,512.8318 318.9024,509.3447 322.612,505.6875 325.7014,501.9072 328.1038,498.0555 329.7658,494.1887 330.6478,490.367 330.7238,486.6532 329.9811,483.112 328.4186,479.8083 326.0469,476.8057 321.9808,473.5669 317.8931,471.4536 313.1219,469.8154 307.7381,468.6889 301.83,468.1006 295.5037,468.0649 288.8835,468.5849 282.1108,469.6521 275.3421,471.2477 268.7459,473.3427 262.4977,475.8991 256.7737,478.8715 251.7437,482.2076 247.5628,485.8508 244.3634,489.741 242.6704,492.7838 241.4113,496.9581 241.2346,500.1433 241.7161,503.3473 243.3576,507.6071 245.3043,510.7632 248.7801,514.8791 251.9823,517.8713 256.9327,521.7005 262.5143,525.3116 270.1134,529.4682 278.0708,533.1768 286.0291,536.3931 295.0995,539.5542 304.3488,542.2251 311.4898,543.7598 315.9875,544.1381 317.3824,543.6996 317.1823,542.6762 315.3688,541.0771 311.9656,538.9161 303.4005,534.3399 271.3984,518.6998 255.8964,510.6494 243.2332,503.2698 232.6961,495.8788 228.0678,491.776 225.3968,488.8063 223.4741,485.9599 222.3387,483.2652 222.0117,480.7497 222.4958,478.4405 223.7769,476.363 226.6708,473.9939 230.8148,472.1277 237.5153,470.5621 243.8586,469.9571 252.6573,470.0331 261.9932,471.0328 269.5352,472.48 276.8902,474.475 283.8394,476.9817 290.1829,479.9556 295.7436,483.345 300.3696,487.0925 303.15,490.1016 305.858,494.3276 307.357,498.7398 307.6009,503.2748 306.9481,506.7196 305.5796,510.1742 303.5038,513.6149 300.7367,517.0194 297.3024,520.3668 293.2335,523.6378 288.5718,526.8149 283.3687,529.8819 275.6975,533.7753 260.7734,539.9696 244.9899,545.2709 227.7769,550.1233 202.9274,556.3135 211.4041,554.845 224.4112,552.0934 245.4658,546.7134 263.2218,540.9304 271.5821,537.5793 277.4033,534.8791 284.3755,531.0475 288.8987,528.0148 292.733,524.8602 295.8157,521.5985 298.0964,518.2466 299.5367,514.8228 300.111,511.3479 299.8054,507.8441 298.0259,503.1696 295.6727,499.6956 292.4675,496.2797 286.922,491.8656 281.8653,488.6991 274.0364,484.7268 265.1283,481.1046 255.3613,477.9008 245.0025,475.1782 234.364,472.9923 223.7977,471.3893 211.273,470.2563 200.2233,470.1259 192.9402,470.7481 187.3975,472.0048 183.8503,473.8724 182.8797,475.0249 182.4606,476.3164 182.5965,477.7411 183.2841,479.2925 186.2737,482.7477 192.8381,487.6494 200.0716,491.958 208.7399,496.5374 255.4327,518.6989 273.9738,528.3751 283.1217,534.1019 288.7019,538.4438 292.546,542.5381 293.777,544.4841 294.5327,546.3587 294.8059,548.1593 294.5929,549.8837 293.8925,551.5297 292.706,553.0954 288.8915,555.9799 286.278,557.2958 281.5059,559.1086 273.6361,561.2198 261.6195,563.3591 250.5441,564.6651 235.3695,565.7848 219.4108,566.3296 203.5519,566.2951 188.7832,565.6771 178.4424,564.7595 169.9528,563.463 163.7435,561.785 161.6001,560.8023 160.1377,559.7235 159.3749,558.5485 159.3206,557.2773 159.9737,555.9098 162.2577,553.6787 166.0467,551.2327 171.239,548.5739 185.2581,542.632 222.4833,528.4327 242.2183,520.3496 260.4268,511.7915 268.4927,507.3923 275.6546,502.9499 281.7795,498.4956 286.7563,494.0633 290.4959,489.6896 292.9314,485.4131 294.0178,481.2741 293.7319,477.3141 292.0693,473.5747 289.04,470.0975 286.273,467.9449 282.921,465.9382 276.8297,463.2252 269.5235,460.8987 261.0912,458.9884 251.6462,457.519 237.7244,456.278 226.5133,455.9012 210.9387,456.1453 195.1845,457.2344 183.6449,458.5907 169.1934,461.0855 159.4504,463.4414 150.9742,466.1816 144.0336,469.2738 138.8572,472.6827 135.6193,476.3704 134.5944,478.9643 134.4956,481.6524 135.3232,484.4227 138.2744,488.7056 141.3449,491.6281 145.2547,494.5905 149.9555,497.5811 158.3625,502.095 175.4095,509.6031 195.1688,516.957 220.5481,525.3842 271.3466,541.2975 283.4697,545.3782 293.1722,549.0227 301.4513,552.9336 304.7561,555.5272 305.263,556.6413 304.9986,557.6321 303.9625,558.4985 300.9669,559.563 292.1911,560.7043 278.8767,561.0479 261.4043,560.5887 244.8357,559.6408 221.6234,557.728 201.7907,555.6144 181.6597,552.9827 166.9041,550.6705 152.9031,548.0703 140.0885,545.1854 128.8865,542.0205 122.5127,539.7579 114.8556,536.1411 111.1471,533.5856 108.6335,530.9186 107.8395,529.5446 107.1942,526.7185 107.8126,523.7923 109.6869,520.7719 112.7932,517.6637 119.6713,512.8524 125.6506,509.5574 132.6592,506.2032 140.6097,502.7995 154.0862,497.6254 179.7672,488.9199 213.6263,478.6023 341.5237,442.6721"/>
  </g>
  <g fill="none" id="layer3" inkscape:groupmode="layer" inkscape:label="3" stroke="#f00" style="display:inline">
    <polyline points="541.187,444.9807 539.3471,441.888 538.0512,438.3903 537.3223,434.5343 537.1581,431.7911 537.8808,424.461 540.1929,416.7127 542.307,412.0096 544.9291,407.3661 550.3137,399.9899 556.7513,393.4065 563.9364,387.984 571.5066,384.037 576.0658,382.4783 579.0556,381.7989 581.973,381.4149 586.1529,381.3988 590.0157,382.0513 593.4737,383.3562 596.4466,385.284 598.8637,387.7924 600.6665,390.8279 601.5047,393.1132 602.1935,396.8812 602.2664,399.5866 602.0289,402.4186 601.0966,406.8492 600.1,409.8872 598.067,414.5055 595.429,419.1198 592.2436,423.6444 585.9094,430.7643 581.6255,434.6599 577.0873,438.1893 572.3881,441.2921 567.6227,443.9158 562.8858,446.0162 558.2696,447.558 553.8623,448.5147 549.7465,448.8693 545.9979,448.6139 542.6843,447.749 539.8644,446.2833 537.5878,444.2332 535.8936,441.6234 535.1025,439.5886 534.438,436.1238 534.348,433.5593 534.7441,429.371 535.3598,426.378 536.801,421.638 538.8439,416.6655 543.4997,408.0906 549.5406,399.5276 556.6953,391.4314 564.6226,384.2611 572.9183,378.4467 581.1304,374.3519 587.3188,372.4948 592.9042,371.9846 596.5585,372.4991 598.6905,373.2639 601.3743,375.0242 602.7919,376.5897 603.893,378.4512 604.6654,380.5909 605.1919,385.6205 604.6855,389.9552 603.4166,394.6728 600.5887,401.3918 597.6758,406.6224 592.8559,413.6586 588.6397,418.8525 582.386,425.4844 577.3482,430.1222 570.363,435.7033 563.2987,440.4412 556.3986,444.1951 551.4712,446.2975 545.4036,448.0851 540.0859,448.6662 535.683,448.0221 533.0625,446.741 531.6654,445.5145 530.1202,443.133 529.4679,441.1974 529.1235,438.9963 529.1889,435.2265 530.3583,429.4112 533.5136,421.0952 538.4323,411.9626 544.9147,402.4517 551.042,394.9017 559.585,385.9798 568.7186,378.125 577.9637,371.8329 585.0901,368.2078 590.0975,366.4193 593.2116,365.6966 596.1085,365.3597 599.9797,365.5842 603.1989,366.6787 604.9425,367.8803 606.3407,369.4462 607.3774,371.3611 608.041,373.6063 608.3237,376.1602 608.0281,380.5157 606.8761,385.4174 604.0553,392.6244 601.0377,398.3899 595.9386,406.3388 589.7948,414.3351 582.841,422.1117 575.3372,429.4173 567.557,436.0241 559.7762,441.7325 552.2624,446.3755 545.266,449.8211 539.0134,451.9731 533.7007,452.7728 531.4491,452.6571 529.4906,452.1979 527.1337,450.8702 525.9667,449.566 524.8438,446.9988 524.5217,444.8939 524.6846,441.1764 525.2233,438.346 528.0515,430.1686 532.9072,420.6946 539.6096,410.3449 547.8916,399.6232 555.4177,391.1599 565.5834,381.2337 574.0031,374.1971 584.406,367.0147 592.2504,362.8676 597.648,360.8194 600.9435,359.9917 603.9545,359.6063 606.6477,359.6677 608.9928,360.1755 610.9628,361.1246 612.535,362.5058 613.6909,364.3053 614.4171,366.5056 614.7052,369.085 614.3102,373.6091 612.2606,380.7082 608.5522,388.7792 604.771,395.2928 598.559,404.3422 591.2375,413.5205 583.09,422.5205 574.4238,431.0528 565.5563,438.8537 556.8017,445.6917 548.4599,451.3714 540.8064,455.7362 534.0857,458.6693 528.5055,460.0944 525.1711,460.1503 523.3851,459.7034 521.3943,458.3123 520.5397,456.9109 519.9824,454.1153 520.0978,451.803 521.001,447.6924 522.0854,444.5458 525.3852,437.3603 531.5296,426.9405 537.9215,417.7252 547.4947,405.5497 556.166,395.6671 567.8486,383.7084 577.4985,374.9055 587.049,367.1779 596.1342,360.8648 604.3813,356.2562 611.4311,353.571 614.4041,352.9942 616.9609,352.9393 619.0705,353.4072 620.7073,354.3933 621.8511,355.8876 622.4877,357.8752 622.4764,361.7365 621.8245,364.86 620.6645,368.3875 616.8733,376.5135 611.2599,385.8039 604.0539,395.9136 595.5446,406.4798 586.0655,417.1381 575.9772,427.5363 563.0749,439.6719 552.9628,448.3369 541.1422,457.4614 530.7806,464.3359 522.3703,468.6845 519.6417,469.6754 516.2922,470.3389 513.8795,470.0079 512.8103,469.2355 512.0331,467.2569 512.0709,465.3993 513.4794,460.429 517.6954,451.9892 522.9496,443.6213 531.6835,431.4482 540.2048,420.6361 549.8569,409.1955 560.3688,397.4828 571.4163,385.9009 582.6257,374.8863 593.5821,364.8902 603.8448,356.3528 612.9688,349.6732 620.5319,345.1785 623.6098,343.8259 626.1649,343.0953 628.1642,342.996 629.5815,343.5294 630.3982,344.6898 630.6032,346.4652 629.7593,350.2391 626.5225,357.2008 621.0012,366.1038 613.4236,376.5949 604.0986,388.2705 593.3979,400.6979 581.7349,413.4362 569.5442,426.0556 554.2247,441.0517 539.5668,454.5332 526.2949,465.9146 515.0223,474.7355 506.2362,480.6611 503.5024,482.1689 500.2938,483.4777 498.1935,483.6295 497.4234,483.086 497.1627,482.0282 497.4128,480.4595 500.2602,474.3406 504.7803,467.2628 513.1047,455.8755 524.1662,441.9803 534.7433,429.3718 549.7067,412.2699 562.6705,398.0042 589.4749,370.0007 602.3275,357.3754 614.0927,346.4363 624.2255,337.7219 632.2227,331.6872 636.5626,329.1224 638.5884,328.3958 639.886,328.4689 640.4371,329.3414 640.234,331.0039 637.5791,336.6192 633.6793,342.7124 626.1105,353.0713 616.1311,365.5876 604.1503,379.7625 576.1291,410.9093 561.1332,426.7845 542.4962,445.8891 524.8453,463.36 508.991,478.4711 495.5981,490.6549 485.1788,499.4964 478.0985,504.7194 475.554,506.048 474.3244,506.0032 474.242,505.2093 474.7502,503.8053 478.5911,497.6466 486.0433,487.7778 496.9633,474.3637 528.0772,438.2013 563.8121,398.329 597.5173,361.9762 627.7911,330.7927 639.8542,319.1134 648.9755,310.9708 654.6313,306.8558 655.4595,306.4918 656.3878,306.5751 656.3351,307.7383 655.301,309.9686 650.3431,317.5189 641.7297,328.8902 633.0898,339.6327 606.9642,370.4821 570.3832,411.6239 531.7193,453.5277 487.7247,499.6169 450.0368,537.5117 439.3505,547.6434 436.2374,550.3579 434.4524,551.5025 434.8986,550.4987 437.8749,546.6719 451.9674,530.4485 559.3704,410.7131 671.0256,284.5227 686.5066,267.5297 681.1771,274.3779 667.3789,290.8841 618.7667,347.857 465.4741,524.6342 424.474,572.41 399.3342,602.4444 378.0137,628.5803 357.8673,653.8861 336.9241,680.8553"/>
  </g>
  <g fill="none" id="layer4" inkscape:groupmode="layer" inkscape:label="4" stroke="#0cc" style="display:inline">
    <polyline points="439.0287,422.4233 432.6761,417.728 426.4481,413.7149 420.4,410.5881 415.7198,408.8362 410.0933,407.6806 405.7835,407.6215 401.6501,408.3348 396.7352,410.2742 392.1083,413.2836 387.7844,417.2134 383.0251,422.8719 378.7754,429.1905 373.9852,437.9149 369.9238,447.0108 367.0659,455.3719 366.5772,457.7411 366.6743,459.2019 367.0023,459.3398 367.7269,458.9014 370.1405,455.9364 382.1145,437.3437 388.5732,428.0363 394.0231,421.1589 398.9423,415.8664 405.2902,410.4303 410.9525,406.9351 414.5114,405.3759 418.1885,404.2584 424.5668,403.4317 431.2282,403.9294 435.3414,404.8543 439.526,406.2285 448.0429,410.213 458.0444,416.5931 469.1684,425.3943 481.776,437.0714 494.8427,450.9436 498.899,455.9579 499.8415,457.4202 499.9605,458.1829 497.2384,456.498 491.8643,451.8217 458.1195,420.0145 445.1871,409.3797 436.6846,403.6584 429.8194,400.1082 423.2393,397.8743 417.0061,397.0778 413.4527,397.3094 410.0489,398.0678 406.8008,399.337 403.7129,401.0912 400.7885,403.2955 398.0307,405.907 395.443,408.8756 392.2651,413.2917 389.4094,418.0969 386.8888,423.1364 384.2295,429.5238 382.1401,435.7241 380.6438,441.4492 379.6584,447.3304 379.58,451.7835 380.2179,454.1996 381.4989,455.3226 382.9868,455.2521 384.8848,454.3148 387.8307,451.9499 393.017,446.5547 408.2967,428.6491 416.0307,420.164 424.6945,411.7093 434.2464,403.8788 442.8214,398.2558 450.0262,394.5733 459.3679,391.2088 467.019,389.6286 472.8023,389.1325 478.5753,389.238 484.2895,389.9414 489.8923,391.2266 495.3277,393.0664 500.5373,395.4226 505.4611,398.2475 511.4782,402.6443 515.5041,406.3307 519.0515,410.2719 522.0702,414.3935 525.198,420.0369 526.8262,424.2806 527.9945,429.8106 528.1028,433.7683 527.223,438.6642 525.8084,441.971 524.5166,443.971 521.133,447.416 517.9364,449.4662 515.5146,450.5601 510.036,452.0585 505.4319,452.5582 502.1572,452.5883 495.191,451.9184 487.7839,450.2858 478.1131,446.9423 472.1897,444.2834 464.2589,440.0457 458.3483,436.4031 450.6003,431.0246 441.255,423.6654 432.4253,415.9029 408.8252,392.7521 402.0964,386.5786 398.2986,383.6926 395.0638,381.9278 392.4042,381.353 390.7947,381.7168 389.9078,382.3343 388.8603,383.808 388.1558,385.9096 387.7976,388.595 388.1299,395.4854 389.4823,402.4382 391.8176,410.0916 395.1391,418.0424 399.4515,425.8856 403.6209,431.8224 408.438,437.2615 412.4807,440.9161 416.8935,444.1396 421.6753,446.8801 428.6182,449.7087 434.2403,451.1679 440.2038,452.0331 446.4904,452.2905 453.0756,451.9353 459.9284,450.9708 467.0105,449.408 476.7286,446.4271 484.1513,443.5549 494.1022,438.9483 501.5087,434.972 511.1496,429.084 518.0874,424.3151 526.7667,417.6312 534.5837,410.7607 541.3158,403.9228 545.5289,398.9547 549.889,392.7329 552.6838,387.182 553.8212,382.517 553.5627,379.7136 552.3556,377.5799 550.2202,376.166 547.1912,375.5055 543.3166,375.6139 538.6566,376.489 533.2815,378.1122 527.27,380.4494 513.681,387.0575 495.997,397.3847 480.082,407.68 436.6326,437.0483 425.3702,444.0135 417.0671,448.6066 411.2847,451.3954 405.8997,453.5744 397.8331,455.7682 393.5502,456.1908 390.9325,456.0951 387.3697,455.3869 384.2534,454.0093 380.8116,451.1613 379.4034,449.3212 377.6901,446.0696 376.1629,440.8855 375.4912,433.2248 376.2085,424.5476 377.7855,417.1294 381.0087,407.632 384.5842,400.1585 389.0415,393.0802 392.9614,388.1901 398.9579,382.4323 404.0364,378.8141 409.6192,375.8925 415.7115,373.7383 422.3148,372.4052 429.4256,371.9267 437.0338,372.3156 445.1218,373.5651 453.6629,375.6496 465.6889,379.6518 475.1198,383.4906 488.114,389.5774 498.0642,394.7503 511.4087,402.2657 524.579,410.2525 540.2977,420.4987 554.5342,430.5656 564.3698,438.1703 574.1459,446.756 579.5854,452.6583 582.6655,457.5313 583.2775,459.5421 583.2607,461.2518 582.0588,463.2299 580.4829,464.1463 578.3019,464.7346 572.2011,464.9158 563.9515,463.7712 553.8082,461.3252 542.0708,457.628 529.0667,452.757 518.6857,448.3966 496.9162,438.1091 474.6674,426.23 452.8277,413.5008 415.9612,390.9733 401.0869,382.4278 387.5401,375.7134 377.7156,371.966 370.9797,370.2176 364.8214,369.4321 361.0541,369.4547 355.937,370.3089 351.4921,372.1314 347.7532,374.885 344.7513,378.5133 342.5124,382.9423 341.4543,386.2961 340.7493,389.9365 340.4099,397.9473 341.5038,406.7 344.0238,415.9044 347.9492,425.2666 353.248,434.4998 359.8804,443.3342 365.7039,449.5491 374.5674,457.1102 382.0201,462.1313 390.1516,466.5175 398.9584,470.2102 408.4457,473.162 418.6245,475.3359 429.4982,476.7056 441.0568,477.2554 453.2734,476.9795 470.5018,475.3342 484.0316,473.1577 502.6815,469.0394 521.7178,463.6005 535.9926,458.7156 554.6099,451.2343 567.9396,444.9863 580.4279,438.2833 591.7955,431.2205 601.7659,423.9056 610.079,416.4579 616.5053,409.0075 619.6476,404.1073 620.8596,401.6932 622.5454,396.964 623.0136,394.6598 623.1929,390.1997 622.9034,388.0546 621.5696,383.9612 620.5282,382.0234 617.7089,378.3906 613.9299,375.1137 609.2262,372.2285 603.6404,369.767 597.2225,367.7571 590.0283,366.222 582.1193,365.1795 573.5606,364.6419 564.4206,364.6156 554.769,365.1012 544.6765,366.0945 534.2131,367.5861 523.4472,369.5623 512.4447,372.0044 501.2681,374.8898 484.3033,379.9898 461.5777,388.0636 444.6399,394.9168 422.4025,404.8641 390.0913,420.8391 300.7777,468.1938 255.5821,490.9977"/>
  </g>
  <g fill="none" id="layer5" inkscape:groupmode="layer" inkscape:label="5" stroke="#0f0" style="display:inline">
    <polyline points="353.0362,440.2685 353.1612,440.7162 352.7121,441.0003 350.5641,441.0673 340.5101,439.3009 290.3915,426.3031 279.5896,423.7586 291.4157,426.7751 307.7698,430.2194 322.3713,432.6897 333.903,434.0652 344.0375,434.5858 351.2758,434.2255 354.1427,433.7514 356.9508,432.8985 358.5463,432.0255 359.6988,430.729 359.8992,429.2505 359.1438,427.6479 357.442,425.9856 355.4134,424.6589 348.7856,421.8774 339.5871,419.6821 330.9915,418.5747 321.5202,418.0902 311.6312,418.2553 301.8737,419.0347 291.6728,420.5567 283.3855,422.5463 277.8525,424.7383 276.3194,425.8211 275.6743,426.8482 276.1431,428.0038 278.0104,428.9635 281.2056,429.6792 285.6089,430.1147 296.0428,430.1285 310.1645,428.9866 323.7296,427.0678 338.2087,424.2896 351.8216,421.038 368.0715,416.5098 356.4657,420.503 341.641,424.5513 327.3779,427.6438 313.5433,429.9192 300.0414,431.3919 287.1812,431.8665 282.1942,431.6258 278.4612,431.0833 276.1483,430.2689 275.3635,429.2245 275.8655,428.2586 276.8972,427.4783 281.3982,425.5579 288.5511,423.6535 297.8652,421.9569 307.1106,420.8021 317.0852,420.0209 327.3784,419.6789 337.6062,419.8113 345.8327,420.2864 355.0966,421.2697 363.4742,422.6495 370.7815,424.3428 376.8839,426.2458 382.3585,428.5751 385.9763,430.8377 387.1909,432.0286 387.7802,433.1054 387.7442,434.0399 387.3081,434.6328 384.9361,435.6084 380.6937,435.9619 374.6329,435.6756 360.3022,433.8255 319.2514,426.9284 299.0926,424.0117 289.1355,422.9175 281.4312,422.4125 276.6086,422.5473 275.0931,423.1661 275.7643,424.0073 277.556,424.866 285.3976,427.2558 296.1563,429.6716 309.5123,432.0657 322.4947,433.9207 335.9456,435.3756 349.2266,436.2973 360.0668,436.595 370.1212,436.4103 379.1866,435.7473 387.1177,434.6387 393.8171,433.1449 399.9977,431.0297 404.3696,428.6752 406.909,426.2745 407.5312,424.9594 407.5485,423.7317 406.9602,422.6257 405.7656,421.6724 402.2118,420.448 396.784,419.8694 389.4729,419.9753 374.2407,421.4386 323.647,428.4617 296.357,431.5223 281.9729,432.5709 272.2816,432.8076 266.1806,432.3633 264.5393,431.8077 264.2366,431.2548 265.081,430.3493 267.3296,429.2717 275.7725,426.7121 288.7261,423.8398 304.9864,420.9624 320.8564,418.6901 334.9662,417.081 351.3163,415.7398 364.7648,415.1285 375.3291,415.0243 387.0376,415.3814 397.548,416.226 406.7756,417.4847 415.8619,419.3387 423.9273,421.7215 429.8583,424.3505 431.6455,425.6278 432.3271,426.6861 432.2012,427.1915 431.6741,427.587 429.9074,427.9802 422.1719,427.5887 412.0104,426.006 377.3199,419.6127 358.9135,416.6912 335.7836,413.7644 311.3519,411.6362 287.6754,410.6213 267.4491,410.8548 260.3284,411.3485 253.5382,412.2674 249.424,413.4729 248.2171,414.5998 248.3276,415.2045 248.9145,415.8299 250.6782,416.795 257.2632,418.7559 269.5975,420.9312 283.4456,422.5418 299.5273,423.7919 317.0537,424.5888 335.274,424.8719 350.512,424.6961 379.8998,423.2572 393.6472,422.0554 409.1058,420.2829 423.3541,418.2619 440.2397,415.4199 473.2536,408.677"/>
  </g>
</svg>
