<?xml version="1.0" encoding="utf-8" ?>
<svg xmlns="http://www.w3.org/2000/svg" xmlns:cc="http://creativecommons.org/ns#" xmlns:dc="http://purl.org/dc/elements/1.1/" xmlns:ev="http://www.w3.org/2001/xml-events" xmlns:inkscape="http://www.inkscape.org/namespaces/inkscape" xmlns:rdf="http://www.w3.org/1999/02/22-rdf-syntax-ns#" xmlns:sodipodi="http://sodipodi.sourceforge.net/DTD/sodipodi-0.dtd" xmlns:xlink="http://www.w3.org/1999/xlink" baseProfile="tiny" height="29.7cm" version="1.2" viewBox="0 0 793.7007874015749 1122.5196850393702" width="21.0cm">
  <metadata>
    <rdf:RDF>
      <cc:Work>
        <dc:format>image/svg+xml</dc:format>
        <dc:source/>
        <dc:date>2022-05-22T14:25:13.419089</dc:date>
      </cc:Work>
    </rdf:RDF>
  </metadata>
  <defs/>
  <g fill="none" id="layer1" inkscape:groupmode="layer" inkscape:label="1" stroke="#00f" style="display:inline">
    <polyline points="352.3398,760.9331 351.0379,752.4379 348.9542,743.4595 345.9187,733.2444 342.7787,724.5221 338.9869,715.599 335.7065,708.9321 330.742,700.2763 326.5732,694.086 322.0232,688.2532 317.0964,682.8575 311.8009,677.9693 306.1493,673.6488 300.1595,669.9466 293.8556,666.9032 287.2678,664.5492 280.4336,662.9051 273.3973,661.9811 263.7927,661.8692 256.5012,662.6123 246.7947,664.6699 239.6276,666.9776 230.3821,671.0051 223.7966,674.6798 215.6534,680.3469 210.1404,685.0887 203.743,691.924 198.5974,699.1597 194.8476,706.57 193.0124,712.0946 191.9102,719.2083 191.9373,722.5821 192.3445,725.7894 193.1238,728.7976 194.2646,731.575 196.623,735.242 198.6021,737.3131 202.1318,739.7966 204.8262,741.0054 209.3177,742.1046 212.5734,742.3424 216.0057,742.1741 219.5858,741.595 225.1686,739.9541 228.9892,738.3495 236.7341,733.9466 242.5198,729.646 246.3136,726.3323 253.6303,718.7194 258.7837,712.2343 262.0173,707.5868 267.9073,697.6285 272.9072,686.961 276.8939,675.7928 279.7691,664.3236 281.459,652.7365 281.9141,641.1928 281.1087,629.8287 279.6729,621.4896 278.3214,616.0382 275.7095,608.0441 272.4092,600.2873 269.8369,595.2544 265.4409,587.9173 260.4311,580.8344 254.8513,573.9988 248.7549,567.3978 242.206,561.017 228.0617,548.8777 213.1546,537.5459 180.6944,514.4541 168.8513,504.9377 164.1963,500.2037 161.3236,496.0241 160.594,494.1516 160.3465,492.4284 160.8816,490.1295 161.8369,488.7905 163.261,487.6083 167.4594,485.7167 173.3266,484.4531 180.659,483.8051 189.211,483.7485 198.7068,484.2482 208.8539,485.259 222.0032,487.1587 235.149,489.6504 247.7796,492.5966 259.4497,495.8483 269.7917,499.2491 278.5189,502.6397 286.5704,506.4714 291.7721,509.7929 293.2691,511.1829 294.1145,512.6882 293.8934,513.5197 293.3451,513.9178 291.3077,514.3063 287.0593,513.9596 282.374,512.9601 269.9147,508.8848 256.1951,502.9406 242.9531,496.07 229.0063,487.6404 217.3911,479.5447 206.3069,470.6369 198.1694,463.0651 190.9648,455.2406 184.937,447.3198 180.2974,439.4795 177.2115,431.9127 176.287,428.2951 175.7861,424.8223 175.7116,421.5199 176.0625,418.4131 176.8337,415.5262 178.0169,412.8824 179.6002,410.5033 181.5684,408.409 183.9035,406.6172 188.0474,404.5295 191.2022,403.5552 194.6399,402.925 198.3318,402.6441 204.2806,402.881 212.8138,404.4125 217.2659,405.6853 224.085,408.2 233.2733,412.6095 244.5694,419.6205 253.1775,426.2229 263.0689,435.4052 271.6797,445.2508 278.7343,455.362 283.1134,463.3859 284.8524,467.3134 286.8758,473.0403 287.8261,476.7204 288.6433,481.9897 288.7241,486.9108 288.3678,489.9745 287.2201,494.2143 285.3426,497.9963 283.6908,500.2488 280.6247,503.2074 276.8713,505.6461 272.4576,507.5529 267.4179,508.9211 261.7947,509.7496 255.6393,510.0422 249.0132,509.8073 241.9883,509.0575 234.6474,507.8085 224.5324,505.4009 216.8391,503.069 209.1846,500.3168 201.6949,497.1763 194.5017,493.6837 187.739,489.8797 181.54,485.809 177.7839,482.9709 172.804,478.5661 168.7047,474.0336 165.578,469.4323 164.0696,466.3573 162.7081,461.7812 162.4133,458.7833 162.6116,455.8511 163.8249,451.6192 165.2315,448.938 168.2024,445.1747 172.1471,441.7776 176.9818,438.8055 184.6377,435.5947 193.4243,433.3387 203.0406,432.1147 213.1712,431.9684 223.4989,432.912 233.7165,434.9276 243.5363,437.9687 252.6974,441.9633 260.9704,446.8172 268.1597,452.4186 274.1048,458.6429 278.6794,465.3577 281.7905,472.4283 282.7769,476.0554 283.3769,479.7223 283.5878,483.4132 283.4083,487.1133 282.4086,492.6496 280.5381,498.1295 277.8093,503.5115 274.241,508.7586 269.8598,513.8376 264.7006,518.7199 258.808,523.3812 252.2375,527.8012 242.5415,533.2913 234.6764,537.0908 223.5896,541.7169 212.0762,545.8297 200.4614,549.4254 186.3591,553.1967 173.4406,556.1798 158.824,559.0801 147.8496,560.8303 197.7517,551.675 216.8251,547.7559 233.0072,544.0689 248.7455,540.0427 260.6332,536.6077 274.2204,532.0874 283.8428,528.3244 294.084,523.4883 300.7342,519.5561 307.0308,514.625 308.913,512.6644 311.0543,509.7536 312.0303,507.8416 312.8264,505.0314 312.9193,503.2055 312.418,500.5535 311.6671,498.8529 309.9357,496.4186 308.3903,494.8829 305.5093,492.7255 299.2932,489.5702 291.4732,487.0413 282.2739,485.2167 274.1031,484.3071 263.1459,483.8977 254.0193,484.1708 242.5183,485.274 233.5376,486.7647 225.0317,488.789 217.2656,491.3366 210.499,494.3943 204.9735,497.9465 200.8988,501.9767 198.8956,505.3028 198.0904,507.6609 197.7213,510.1293 197.9965,514.0349 199.2681,518.1797 202.4878,524.0716 207.3767,530.3769 213.8126,537.0963 228.2975,549.8802 262.7479,577.5152 280.3069,592.347 298.0149,608.7113 312.5232,623.5338 329.3221,642.617 345.2492,662.7795 360.2244,683.426 389.4597,725.4354 397.5165,736.2214 403.2312,743.2516 410.3742,750.9435 416.9232,756.4537 419.9575,758.3217 422.8224,759.5732 425.5112,760.1974 428.0174,760.1904 430.335,759.5549 432.4585,758.299 434.3831,756.4359 436.1047,753.9841 437.6198,750.9666 438.9262,747.4112 440.9076,738.817 442.0495,728.4961 442.3254,713.6814 441.67,700.7401 439.8441,683.8029 437.6617,670.075 434.1652,653.2244 429.9833,637.2339 425.3119,622.5673 420.3569,609.5934 414.3316,596.6511 408.5519,586.8966 405.8578,583.2894 403.3456,580.5568 400.341,578.3003 398.3896,577.6628 397.2498,577.7448 395.8036,578.6337 395.0267,579.74 393.9561,583.1964 393.5931,589.8732 394.1408,597.1187 395.4786,606.0628 397.6426,616.6929 400.6636,628.9684 404.5656,642.8089 413.5553,670.3548 419.9279,687.5967 425.2851,700.9932 431.1212,714.5872 437.4139,728.1647 446.4614,745.8204 456.1708,762.3769 461.2355,770.0316 466.4156,777.1563 474.3558,786.668 479.7282,792.1114 485.1334,796.7537 493.2405,802.0832 498.6006,804.4767 503.8877,805.9025 509.0684,806.341 511.6082,806.1879 516.5653,805.1387 521.3299,803.1088 525.8679,800.1188 530.1457,796.1988 534.1309,791.3879 537.793,785.7333 541.104,779.2898 545.3576,768.2805 547.6878,760.1435 549.5942,751.4523 551.0655,742.2816 552.0948,732.7076 552.6801,722.8064 552.8245,712.6533 552.5357,702.3216 551.3182,686.6429 548.3242,665.741 543.9374,645.2657 538.3922,625.6019 535.2693,616.1713 530.2497,602.6123 521.3093,581.7605 510.3795,559.8783 497.1018,536.4367 481.4635,511.4071"/>
  </g>
  <g fill="none" id="layer2" inkscape:groupmode="layer" inkscape:label="2" stroke="#080" style="display:inline">
    <polyline points="386.7017,448.0559 395.0145,441.1289 401.9378,436.195 410.8826,430.9935 418.2154,427.7381 425.6401,425.3818 433.0817,423.9833 440.4515,423.5705 449.4086,424.4311 456.2343,426.1742 464.1473,429.5574 471.1543,434.0997 477.0333,439.5623 481.5882,445.6714 484.6626,452.1339 486.1536,458.6516 486.2956,461.2087 486.0219,464.9347 484.7636,469.6095 483.7626,471.7855 481.8159,474.8066 479.3618,477.4961 477.4611,479.0849 473.0786,481.7241 466.6493,483.9232 460.8872,484.736 454.7082,484.6682 448.237,483.7012 441.5964,481.8316 434.9034,479.0712 428.2675,475.4478 421.7884,471.0065 415.5549,465.811 409.6441,459.945 404.1215,453.5129 397.8459,444.8708 393.3791,437.6576 389.4395,430.3621 385.2914,421.4114 382.0336,413.0075 379.6823,405.5385 378.0637,398.3185 377.748,393.4851 378.0715,392.0767 378.7105,391.3731 379.6603,391.3788 380.9153,392.0831 384.3152,395.4736 403.3015,420.383 414.7986,433.829 424.3965,443.0694 432.71,449.3452 438.1243,452.4351 443.3121,454.5263 448.162,455.5458 452.5622,455.4511 456.404,454.2281 459.5865,451.8867 462.0211,448.4603 463.3119,445.2126 464.2743,440.0441 464.4067,435.5968 464.0248,430.7207 463.1275,425.4804 461.1395,418.0552 459.0705,412.2668 456.5264,406.393 453.5312,400.5338 450.1131,394.7939 446.3042,389.2807 439.1845,380.8873 434.5114,376.4959 429.5855,372.7029 424.4463,369.5893 420.9211,367.9244 415.513,366.0818 411.8432,365.3053 408.1342,364.8976 402.5188,364.9794 398.7542,365.4911 393.0971,366.9244 387.451,369.1181 381.8389,372.0142 372.6129,378.1993 361.8338,387.3433 353.1439,395.8373 330.4299,419.3986 320.1774,428.7343 314.743,432.8051 309.6676,435.8013 304.9943,437.6437 301.7793,438.2426 298.8329,438.1667 296.1721,437.4248 293.8127,436.0362 291.7691,434.0302 290.0534,431.4458 288.6757,428.332 287.6436,424.7471 286.8125,419.3529 286.5999,414.9478 286.8601,408.7608 288.388,399.272 290.1344,393.16 291.8067,388.8632 293.7741,384.9244 296.0212,381.4383 298.5315,378.4901 301.2878,376.1535 304.2725,374.4873 307.468,373.5335 309.7068,373.306 313.2156,373.5834 316.8911,374.5965 320.7193,376.3224 326.0398,379.6637 333.005,385.3197 340.2914,392.2969 357.4284,410.2102 365.7735,418.4911 374.5125,426.2329 381.7961,431.7701 391.2574,437.5854 397.111,440.3777 401.0792,441.9193 407.1175,443.7253 411.1909,444.5801 419.4181,445.4309 425.6222,445.3124 431.815,444.5529 437.9547,443.1702 443.9953,441.1918 449.8865,438.6553 455.575,435.6082 461.0051,432.1079 467.7448,426.8536 472.3514,422.5739 477.7929,416.5832 482.3275,410.4794 485.8569,404.5099 488.3079,398.9313 489.6367,393.9991 489.8329,389.9552 489.2493,387.6362 488.5231,386.4743 486.949,385.3553 484.8249,385.0289 482.1936,385.5276 480.182,386.3266 476.8188,388.226 473.0932,390.9537 466.2502,397.2557 458.8806,405.5499 451.296,415.5192 443.8022,426.7778 436.6884,438.9009 430.2194,451.4527 424.6308,464.012 420.1258,476.1911 417.4174,485.4301 415.2688,496.1036 414.6077,503.7914 414.9318,510.6141 416.2688,516.4937 418.6325,521.3731 422.0217,525.2143 426.418,527.9961 431.7844,529.7122 438.062,530.3692 445.1678,529.9855 452.9917,528.5885 461.3945,526.2126 470.2062,522.8998 479.2268,518.7015 488.228,513.6796 496.9585,507.9091 505.1518,501.4802 512.5368,494.5 518.851,487.0946 522.7391,481.3483 526.628,473.5606 528.4844,467.723 529.1897,463.8775 529.4586,460.098 529.0359,454.6086 528.2045,451.107 526.9391,447.7621 524.2475,443.0953 521.9431,440.2543 519.2503,437.6575 514.5272,434.2693 510.9564,432.3782 507.0781,430.8027 500.7454,429.0645 496.2238,428.3403 491.4985,427.9742 484.0987,428.1084 473.8204,429.5696 465.9434,431.6164 458.0392,434.4535 450.2084,438.0463 442.545,442.3492 435.1364,447.3073 428.0619,452.8584 421.393,458.9342 415.1931,465.462 409.5175,472.3673 404.4142,479.5745 399.9242,487.0095 396.082,494.6005 392.9161,502.2793 389.7865,512.5456 388.2809,520.1929 387.5113,527.7394 387.4861,535.1422 388.2105,542.3649 389.6876,549.3773 392.8298,558.3602 396.0639,564.7999 401.5357,572.9693 408.3091,580.6505 416.341,587.8303 425.5643,594.4851 435.8813,600.5822 447.1572,606.0821 459.2155,610.9411 475.047,616.0434 487.9844,619.2932 503.9618,622.2472 519.0496,623.9071 532.4792,624.2244 539.424,623.7582 543.4954,623.172 548.6644,621.8788 551.4349,620.7412 553.6321,619.3839 555.2349,617.8079 556.2289,616.0144 556.6072,614.005 556.3697,611.7812 555.5233,609.3447 554.0804,606.6973 550.8387,602.3342 546.38,597.5049 540.8122,592.2127 501.37,558.7082 489.2864,547.7014 480.2742,538.8621 468.6274,526.3224 460.3598,516.3872 450.212,502.5152 443.4097,491.7224 435.6101,476.9696 430.8215,465.7673 427.0181,454.584 424.2529,443.562 423.0061,436.3809 422.2469,429.3913 422.0343,419.3796 422.9414,410.0949 424.9694,401.7163 426.9415,396.7194 429.405,392.2496 434.0087,386.6276 437.6711,383.6558 439.6762,382.4146 444.026,380.4368 446.3667,379.705 454.0255,378.5564 462.5812,378.9862 471.9437,380.9753 478.5797,383.144 485.4868,385.9619 496.2599,391.3441 503.6451,395.6533 511.1291,400.4943 526.1492,411.5977 537.1982,420.9827 544.3281,427.6494 551.1828,434.5843 560.7855,445.377 569.3523,456.4859 576.6482,467.7459 582.4641,479.0013 585.4319,486.4307 587.6241,493.7548 589.0111,500.9373 589.5743,507.9449 589.3067,514.7475 588.2116,521.3178 587.3573,524.5082 585.0469,530.6858 581.9561,536.576 580.1282,539.4079 575.932,544.8353 571.0533,549.9365 562.5695,556.9507 556.2217,561.1874 545.8224,566.8633 538.4043,570.1849 526.727,574.4603 514.6068,577.8737 506.4008,579.663 498.1766,581.0581 490.0027,582.0549 481.9451,582.6497 474.0664,582.8391 466.426,582.6201 459.0794,581.9897 452.0782,580.9448 445.4699,579.4818 439.298,577.597 433.6018,575.286 428.4169,572.544 421.6662,567.6104 417.8898,563.7657 414.7195,559.4698 412.1748,554.7179 411.1423,552.1695 409.0245,543.8304 408.4032,534.4471 408.8323,527.6134 409.9419,520.3226 412.8896,508.5486 417.3833,495.8113 423.422,482.1814 428.3013,472.6472 433.8558,462.7983 440.0757,452.6802 446.9469,442.346 454.4507,431.8573 462.5628,421.2837 475.8025,405.4363 485.2856,395.0078 495.2366,384.7998 510.9085,370.125 527.256,356.5353 543.9848,344.3955 560.7485,334.0574 571.751,328.3258 577.1534,325.8399 587.6789,321.6731 592.7683,320.0075 602.5155,317.5426 607.1393,316.7522 611.5741,316.2605 619.811,316.1786 627.0995,317.2966 630.3513,318.3016 633.3234,319.6003 636.0035,321.1888 638.3802,323.0626 640.4436,325.2164 642.1848,327.6442 643.5965,330.3391 644.6727,333.2938 645.409,336.5002 645.8022,339.9496 645.8512,343.6328 644.9172,351.6613 643.9375,355.9857 640.9686,365.2002 638.9889,370.0673 634.0705,380.2623 631.1472,385.5662 624.4176,396.5255 612.2759,413.6614 597.9717,431.3465 581.8769,449.2723 564.3941,467.1529 545.9407,484.7315 526.9342,501.784 501.4262,523.3802 476.5347,543.3557 453.0335,561.4597 426.5821,581.2185 366.4355,625.3638"/>
  </g>
  <g fill="none" id="layer3" inkscape:groupmode="layer" inkscape:label="3" stroke="#f00" style="display:inline">
    <polyline points="213.6268,713.9369 200.6844,722.8438 197.8066,725.3841 197.0713,726.3745 197.0871,726.9441 197.8437,727.0854 199.9629,726.6089 206.4557,724.0206 215.8644,719.4466 225.5564,714.2729 248.5148,700.8616 282.212,679.5139 285.9059,677.5023 287.5641,677.1874 287.1849,678.6719 284.2632,682.7043 271.3321,697.6013 250.0641,720.4342 232.9135,737.6493 221.516,748.0776 212.3708,755.2725 208.9822,757.3621 206.527,758.3623 205.0801,758.2646 204.7492,757.8135 204.7503,756.6563 206.0668,753.5454 208.9594,749.1714 213.2878,743.8415 217.6507,739.1268 228.2308,729.3211 238.7544,721.3315 244.9637,717.4009 249.5979,714.8737 258.5461,711.1272 262.7484,709.9891 266.7018,709.3793 270.3612,709.3143 273.6862,709.8004 276.6415,710.8348 279.1965,712.4055 281.3259,714.4912 283.4678,718.0195 284.531,721.1732 285.2044,725.9576 285.0164,731.2697 284.3092,735.4986 282.6188,741.3118 280.8004,745.6909 278.5234,749.9859 275.8041,754.1045 272.663,757.9548 269.1254,761.4482 265.2216,764.5015 260.9872,767.0399 256.4634,768.9995 251.6972,770.3293 246.7414,770.9934 241.6543,770.9721 236.5,770.2623 231.3469,768.8761 226.2679,766.8408 219.742,763.1902 215.1325,759.8226 210.8525,755.9911 206.9764,751.774 202.5566,745.6998 199.1249,739.3078 197.272,734.4392 195.8323,728.0261 195.5542,723.3928 195.9715,719.0065 196.6334,716.2593 198.1896,712.4584 199.5914,710.1664 201.2725,708.0884 204.2897,705.4055 206.6094,703.9251 210.5083,702.1923 213.3591,701.3733 217.9613,700.6612 221.2149,700.5339 226.3165,700.8632 235.2152,702.7699 244.2927,706.2815 253.1958,711.2288 258.3161,714.79 263.1902,718.7207 267.7583,722.9494 271.9667,727.3973 275.767,731.9788 279.1173,736.6025 281.9813,741.1731 284.9921,747.0161 286.6139,751.0842 287.8959,755.9118 288.1502,759.8725 287.6615,762.1689 287.0129,763.3452 286.1079,764.2216 284.2753,764.9526 280.9655,764.8108 275.499,762.8485 270.1384,759.9194 262.3411,754.7379 247.8474,743.6888 200.1894,705.0629 188.1843,696.241 185.1503,694.4667 184.3227,694.4413 184.9419,695.679 187.6975,698.9814 199.0797,710.9862 235.6831,748.5075 252.5551,764.8718 260.8112,771.989 267.8894,777.0318 271.4724,778.8956 273.5587,779.6168 276.2098,779.8911 277.6466,779.5297 279.2899,778.1755 280.306,775.8693 280.6865,772.656 280.4299,768.5998 279.5403,763.7824 278.0271,758.3008 274.1609,747.9884 268.7062,736.6911 261.8108,724.9927 253.675,713.4697 244.5562,702.6595 236.7649,694.8458 226.7169,686.4616 218.6922,681.0641 214.7635,678.8476 209.0594,676.161 201.9653,673.8158 198.7047,673.1861 194.2521,672.9267 190.4052,673.4865 188.2171,674.3096 185.5517,676.2057 184.2109,677.8995 183.2349,679.926 182.6336,682.2734 182.4129,684.9281 182.5753,687.8744 184.0424,694.5689 185.3357,698.2749 187.9474,704.2147 192.6082,712.6989 200.1164,723.8547 207.2457,732.8713 215.1465,741.6305 223.5949,749.8039 232.3618,757.064 241.2217,763.1011 247.7977,766.6609 256.3126,769.9362 262.4085,771.1999 268.1777,771.3948 273.5585,770.5078 276.9029,769.3198 281.5199,766.6646 285.6212,763.0057 289.1728,758.4108 292.1475,752.9656 294.5251,746.7711 296.2916,739.9404 297.439,732.5956 297.9651,724.8641 297.8732,716.876 297.1713,708.7602 295.8712,700.6426 293.9884,692.6427 291.5425,684.8723 288.5573,677.4339 285.0612,670.4193 281.0877,663.9096 278.1925,659.8853 273.5131,654.367 268.4743,649.5156 263.1321,645.3722 257.5495,641.9682 251.7964,639.3255 245.9494,637.4575 240.0911,636.3691 234.3095,636.0577 228.6968,636.5137 223.3473,637.7216 218.3563,639.6616 213.817,642.3087 209.8183,645.6324 206.4426,649.5965 204.5746,652.5742 203.0347,655.8032 201.839,659.2674 201.0006,662.9493 200.5296,666.8297 200.4328,670.8874 201.3732,679.4417 203.8156,688.4075 207.7103,697.5514 212.967,706.6146 217.7288,713.1922 225.0488,721.4379 233.3204,728.8196 242.3578,735.0606 249.5227,738.8412 254.4382,740.8812 259.4373,742.5099 267.0425,744.1413 274.7097,744.7588 282.3698,744.3378 287.4409,743.4776 294.9512,741.3268 302.2998,738.1689 309.441,734.0481 314.0674,730.7949 320.7808,725.2091 327.1989,718.849 333.3003,711.8049 339.0694,704.174 344.4955,696.0569 349.5726,687.5556 355.7961,675.7958 360.0561,666.7813 365.1968,654.6701 369.7226,642.6239 373.6323,630.8002 377.65,616.5217 381.1933,600.3415 383.3498,585.3427 384.1451,571.5381 383.6272,558.828 381.8649,547.097 378.9461,536.2726 377.0853,531.187 374.2202,524.7385 369.1731,515.7715 362.2971,506.3759 354.5417,498.1244 346.088,491.0011 335.8362,484.1903 325.3435,478.6931 315.1232,474.3455 297.1701,467.9111 291.925,465.6653 290.3488,464.6195 289.5506,463.5895 289.576,462.5519 290.4581,461.4861 292.2185,460.3742 295.6704,458.8981 305.3765,455.9494 319.454,452.6125 337.737,448.9722 354.8497,446.0484 374.6419,443.1764 411.3943,439.1096 434.0488,437.2923 457.9291,435.8611 482.1668,434.877 505.5574,434.378 526.6237,434.3755 546.1413,434.9789 556.8896,435.9754 559.8395,436.6231 561.0781,437.3605 560.9446,437.8977 559.3222,438.7656 551.1958,440.6898 537.2964,442.7989 518.8722,445.0113 466.9546,450.1216 375.5255,458.0029"/>
  </g>
</svg>
