<?xml version="1.0" encoding="utf-8" ?>
<svg xmlns="http://www.w3.org/2000/svg" xmlns:cc="http://creativecommons.org/ns#" xmlns:dc="http://purl.org/dc/elements/1.1/" xmlns:ev="http://www.w3.org/2001/xml-events" xmlns:inkscape="http://www.inkscape.org/namespaces/inkscape" xmlns:rdf="http://www.w3.org/1999/02/22-rdf-syntax-ns#" xmlns:sodipodi="http://sodipodi.sourceforge.net/DTD/sodipodi-0.dtd" xmlns:xlink="http://www.w3.org/1999/xlink" baseProfile="tiny" height="29.7cm" version="1.2" viewBox="0 0 793.7007874015749 1122.5196850393702" width="21.0cm">
  <metadata>
    <rdf:RDF>
      <cc:Work>
        <dc:format>image/svg+xml</dc:format>
        <dc:source/>
        <dc:date>2022-05-22T14:20:11.672020</dc:date>
      </cc:Work>
    </rdf:RDF>
  </metadata>
  <defs/>
  <g fill="none" id="layer1" inkscape:groupmode="layer" inkscape:label="1" stroke="#00f" style="display:inline">
    <polyline points="276.8876,610.3941 284.8858,621.2209 292.4979,632.7931 299.4117,644.9999 303.9656,654.458 308.9946,667.2731 311.8726,676.8821 314.3982,689.451 315.2578,698.5304 315.3245,704.3431 314.9807,709.9134 313.6898,717.7161 312.3107,722.4831 310.518,726.85 307.0604,732.5573 304.2515,735.7432 301.0498,738.3936 295.5375,741.3044 289.2222,742.8766 282.1707,743.077 274.461,741.9133 266.183,739.4267 257.4386,735.6862 248.3418,730.7817 239.0184,724.817 226.4725,715.4059 217.1695,707.3978 208.1402,698.7026 199.5701,689.4441 191.6587,679.7521 184.6105,669.7588 180.4897,662.9938 175.3126,652.7857 172.6005,645.9916 169.7392,635.8999 168.6779,629.2823 168.3976,619.587 169.0937,613.3094 171.4524,604.2152 175.3462,595.5461 178.7568,590.0177 185.0147,582.1154 192.5222,574.6889 201.12,567.7391 207.3692,563.3684 217.3749,557.1986 227.9511,551.4733 238.8756,546.1652 264.4572,535.2369 320.3382,513.5476 329.6141,509.2165 331.6806,507.8945 332.6329,506.6531 332.0057,506.133 330.958,505.9952 326.184,506.4559 318.4417,508.207 310.2308,510.6363 288.9905,518.3029 262.8177,529.2892 241.8728,539.2782 231.6415,544.7237 221.9172,550.4153 212.9562,556.3109 207.5252,560.3335 200.3573,566.4684 196.3174,570.5991 191.4918,576.8029 189.1568,580.9096 187.5627,584.9645 186.7289,588.9434 186.6652,592.8233 187.3716,596.5829 188.8411,600.204 192.443,605.3435 195.7431,608.5591 199.7261,611.5937 204.3529,614.4357 212.399,618.3103 224.9085,622.6847 231.7928,624.5053 242.7268,626.748 258.0952,628.7868 265.9711,629.3882 277.8467,629.7667 285.7146,629.6784 297.2892,629.0661 315.4832,626.9305 325.4436,625.1141 334.4945,623.004 342.5105,620.6821 349.3987,618.2164 355.0998,615.6553 359.59,613.0288 362.8794,610.3522 365.0072,607.6292 366.0345,604.8574 366.0367,602.0339 365.094,599.1619 362.4988,595.2839 358.516,591.4216 354.6938,588.5988 348.5636,585.0264 343.2358,582.5537 335.2239,579.6162 328.5858,577.729 321.4657,576.1397 311.3422,574.5014 300.7082,573.4239 292.5841,573.0022 281.8633,572.9938 274.142,573.4331 266.9031,574.279 260.3278,575.5486 254.5804,577.2515 249.8007,579.3888 246.1037,581.9584 243.578,584.9568 242.2848,588.3782 242.1252,590.8903 242.9495,594.9971 245.0485,599.4975 248.4085,604.3725 254.8078,611.4129 260.9949,617.0571 270.9675,624.9904 279.6217,631.1825 292.5201,639.6565 306.7104,648.2528 321.8997,656.8332 337.8052,665.2638 354.1583,673.3974 370.7076,681.0563 383.1169,686.3694 399.5258,692.7131 411.6715,696.8067 427.5834,701.2362 439.2537,703.7058 454.3826,705.7566 465.3509,706.2984 472.459,706.1615 479.3881,705.6139 489.4146,704.0049 495.8313,702.3988 502.0139,700.3621 510.8076,696.4999 516.32,693.3913 521.528,689.8636 528.7278,683.8124 535.1428,676.8993 538.959,671.8462 542.3921,666.4653 546.799,657.8353 549.2272,651.7476 551.237,645.4226 552.82,638.8851 553.9682,632.1578 554.8594,621.7562 554.891,614.6416 554.4679,607.4023 552.9763,596.3409 551.4109,588.8497 549.3919,581.2766 546.9254,573.6291 544.0206,565.9127 536.9531,550.2842 528.3421,534.4082 518.4037,518.3446 507.4102,502.2075 489.6187,478.2324 471.1762,455.217 452.8889,434.1255 438.0692,418.8187 426.4817,408.541 420.7423,404.1696 415.0126,400.3574 409.2687,397.1339 403.4846,394.523 397.6327,392.5413 391.6852,391.1984 385.6159,390.4958 379.4027,390.4267 373.0276,390.9767 363.134,392.9149 356.3065,394.9075 345.7133,398.86 338.4213,402.0794 327.1592,407.6777 315.5463,414.0644 303.6383,421.0895 270.9988,441.8964 234.641,466.7827 208.8933,485.8658 193.168,498.9357 185.1974,506.4691 180.6007,511.3427 176.6328,516.0869 173.3356,520.693 170.7455,525.1526 168.8913,529.458 167.7939,533.6019 167.4652,537.5775 167.9075,541.3789 169.1153,545.0011 171.0755,548.4399 173.7674,551.6919 177.1616,554.7563 181.2184,557.636 185.8891,560.3372 193.9193,564.074 199.8608,566.3703 209.4791,569.5497 219.7244,572.4409 233.9364,575.8897 258.8365,580.8367 272.2807,582.9904 284.6385,584.6015 295.5601,585.6281 304.7589,586.0371 312.0165,585.8107 317.1825,584.949 318.9509,584.2822 320.1664,583.4584 320.9454,581.9273 320.4701,580.038 318.747,577.7825 315.787,575.1491 309.9442,571.0215 299.6739,564.7983 263.1841,544.3475 244.4007,533.2739 224.6871,520.6754 208.9185,509.5737 193.7571,497.6538 183.1343,488.2345 176.5454,481.7539 170.4344,475.1334 162.3136,464.9891 157.6906,458.1227 153.7686,451.2109 150.5993,444.2909 148.2265,437.405 146.6857,430.5993 146.0032,423.9219 146.1955,417.4228 146.6221,414.2562 148.1368,408.1211 150.5278,402.2937 153.7804,396.8257 157.8704,391.7677 162.7644,387.1683 168.4193,383.0731 174.783,379.5244 178.2118,377.9668 185.5219,375.3063 193.3746,373.2758 201.6946,371.8994 210.4047,371.1956 219.4269,371.1768 228.6839,371.8492 242.8437,374.1559 252.3601,376.5522 261.8573,379.623 271.2708,383.3525 280.5406,387.72 294.0572,395.4107 302.7386,401.2529 311.1047,407.6263 322.971,418.0948 330.3684,425.6159 337.3114,433.5168 343.7648,441.7503 349.6965,450.2684 355.0772,459.024 359.8814,467.9718 365.96,481.6602 369.2363,490.9065 371.8778,500.2089 373.8778,509.537 375.2349,518.8639 375.9535,528.1656 376.0431,537.4213 375.5168,546.6136 373.6065,560.2534 371.6097,569.2324 367.5708,582.4987 364.2051,591.1814 358.181,603.9032 351.02,616.1727 345.6315,624.0448 336.6601,635.3019 330.1114,642.386 319.4905,652.2901 311.916,658.3595 299.8912,666.5787 291.486,671.422 278.4009,677.6609 269.4295,681.0999 255.7353,685.127 241.9366,687.7553 228.2512,688.9683 214.9116,688.7841 202.1619,687.252 190.2533,684.4468 179.4379,680.4662 172.9566,677.2167 167.1394,673.5355 162.0505,669.4639 159.7976,667.2952 155.9064,662.7187 154.2787,660.3214 151.6797,655.3337 150.7145,652.7532 149.9748,650.1212 149.1751,644.7209 149.1147,641.9613 149.6665,636.344 150.2744,633.4944 152.1402,627.7319 156.5069,618.9841 160.4101,613.1224 165.0572,607.2666 173.3177,598.5464 182.9656,589.9722 193.7982,581.6242 209.6992,570.9841 222.4151,563.4713 239.9766,554.2059 257.7407,545.9176 275.2137,538.7088 291.9563,532.6608 307.577,527.8623 321.7324,524.4136 334.1324,522.4171 344.5436,521.9649 348.946,522.3419 352.7894,523.1315 356.0601,524.3394 358.7475,525.9673 360.8439,528.0122 362.3438,530.4668 363.2445,533.3206 363.4715,538.3208 362.8764,542.1127 360.8723,548.4526 358.8015,553.0963 354.6072,560.666 349.1286,568.9505 342.3991,577.9487 331.5691,591.0674 318.7748,605.4837 235.5882,694.1491 213.9393,717.8278 194.3902,739.9764 178.3802,759.2003 167.204,774.1563 162.3872,782.2899 161.4484,784.9275 161.3515,785.8719 161.9001,786.997 163.4269,787.0934 165.9103,786.1608 171.3619,782.8573 181.6474,775.0316 195.0442,763.5978 220.0703,740.7104 304.8101,660.702 333.4575,634.7474 356.3233,614.9665 378.9629,596.5494 395.7656,583.8613 412.4389,572.2806 429.0118,561.9033 440.0047,555.6862 450.942,550.0438 461.8057,544.9832 477.906,538.4914 488.4592,534.8969 498.82,531.8849 508.94,529.4479 523.5523,526.8453 532.8319,525.7899 545.9098,525.1782 553.9809,525.3853 564.9747,526.5575 571.4867,527.8763 579.9166,530.595 586.6266,534.1179 588.4629,535.4536 591.5173,538.3443 593.7352,541.5016 594.5279,543.1708 595.4806,546.6714 595.5969,550.3645 594.2413,556.2063 592.3546,560.2668 588.1355,566.5533 582.3782,573.0169 575.2606,579.5935 566.9962,586.2153 557.8275,592.8108 548.0158,599.3054 534.4009,607.6752 520.7569,615.5457 504.5565,624.4077 485.2996,634.4052 467.2604,643.3286"/>
  </g>
  <g fill="none" id="layer2" inkscape:groupmode="layer" inkscape:label="2" stroke="#080" style="display:inline">
    <polyline points="565.0465,449.0451 549.4119,445.4465 540.3349,444.052 531.6494,443.2483 523.4639,443.0495 515.8698,443.4659 508.9458,444.5014 504.7374,445.5333 500.8783,446.8335 495.7879,449.2705 491.5913,452.2582 488.3423,455.7454 486.7243,458.3163 485.1441,462.4882 484.6004,466.9701 485.1044,471.6844 486.6565,476.5584 488.2693,479.8644 490.3383,483.1966 494.2787,488.2141 497.4461,491.5522 502.967,496.5159 514.0352,504.5673 524.3059,510.7094 538.413,517.9077 553.2289,524.5226 578.8596,535.1978 588.6621,539.7127 596.8289,544.298 600.1655,546.66 602.94,549.0864 605.9568,552.8671 607.1533,555.4909 607.6592,559.5953 607.1115,562.4509 605.8436,565.4067 602.5858,570.0353 599.5162,573.2552 593.5952,578.2935 586.1544,583.5925 577.2868,589.1663 555.7528,601.2095 475.7821,642.3436 400.7779,681.5063 379.1028,692.3616 357.5101,702.514 336.181,711.65 320.5134,717.667 300.3191,724.3934 281.2487,729.4744 263.6874,732.789 255.5986,733.7657 244.4752,734.3806 237.8082,734.2339 231.7991,733.6552 226.4969,732.6605 219.9678,730.4313 216.6214,728.4892 214.1153,726.2161 212.4694,723.6453 211.9727,722.2595 211.6334,719.3109 211.7895,717.758 212.7462,714.5201 215.7574,709.4096 220.5793,704.1155 224.7406,700.5486 229.6086,696.9939 238.1255,691.7566 247.9342,686.7176 258.8354,681.9535 274.7144,676.1266 287.3681,672.2028 304.8683,667.6229 322.7178,663.8442 336.1304,661.5752 353.8381,659.3578 366.8846,658.3286 379.6737,657.8569 396.2841,658.0995 408.4073,658.9269 424.1269,660.8595 439.2897,663.6815 453.7853,667.3126 467.4639,671.6825 480.1495,676.7313 491.6486,682.3933 499.3739,686.9885 508.318,693.4766 515.5461,700.2135 520.8974,706.9807 522.8269,710.2999 524.753,715.1071 525.3805,718.1485 525.4793,721.0196 524.6412,724.9324 523.435,727.2299 520.684,730.1301 518.2464,731.6562 515.3496,732.8257 512.0161,733.6159 506.2503,734.0516 499.6434,733.5511 492.2859,732.0929 487.0093,730.5868 481.4669,728.6579 472.712,724.9895 463.5022,720.4279 453.9152,715.0279 437.2975,704.3536 416.6944,689.2493 395.7874,672.3268 367.8426,648.2184 323.7134,609.0161 299.3824,586.6836 283.8291,571.2699 277.1571,564.0108 271.2956,557.0422 264.7963,548.185 260.9336,541.8629 257.9523,535.8258 255.8652,530.0969 254.5026,523.0018 254.5708,518.142 255.5919,513.714 257.578,509.7396 260.5336,506.2324 264.4509,503.2006 269.3059,500.6506 275.055,498.5894 283.9976,496.6198 291.5525,495.7504 299.727,495.4344 308.4184,495.7086 317.5231,496.6106 326.9424,498.1728 336.587,500.4154 343.1041,502.2906 349.6697,504.465 359.579,508.2674 369.5379,512.6781 379.5419,517.6424 392.985,525.0159 410.1003,535.2379 431.3862,548.6659 453.625,563.1635 472.7163,576.0005 491.909,589.3817 510.6301,603.0637 524.8148,614.0138 537.9096,624.7699 546.8067,632.5934 557.1672,642.5395 563.6381,649.5249 570.3096,658.0496 573.72,663.7504 575.683,668.7788 576.1513,673.0736 575.6224,675.5043 574.4236,677.5768 572.5674,679.2858 570.0739,680.6308 566.9706,681.6155 563.2911,682.2482 559.0742,682.5415 551.8348,682.3809 540.7152,681.1541 528.2549,678.9457 511.3124,675.1392 463.6754,663.4872 444.9742,659.8527 430.1438,657.7361 411.9613,656.2823 397.8318,656.185 387.5373,656.7784 380.8382,657.5023 367.8911,659.7547 358.6287,662.1526 352.6915,664.0867 344.1731,667.4813 336.1606,671.4474 331.1255,674.3923 324.0741,679.2274 317.6766,684.5134 311.993,690.1823 307.0825,696.1542 303.0008,702.3377 299.7983,708.6315 297.5142,714.919 296.1673,721.059 295.7545,726.8875 296.2526,732.2268 297.6224,736.8955 299.8135,740.7206 301.7016,742.7254 303.9098,744.2486 306.4189,745.2595 309.2087,745.7345 312.2576,745.6564 315.542,745.0135 319.0373,743.7985 322.7178,742.0093 326.5572,739.6479 334.609,733.2391 342.9921,724.6713 351.5272,714.0957 360.0665,701.7021 368.5024,687.7199 376.7685,672.414 384.8309,656.0594 392.6734,638.9095 402.1469,616.6552 411.1986,593.6962 418.0487,574.8376 424.4428,555.4472 428.8707,540.456 432.9322,525.0051 436.5887,509.0628 439.8136,492.6401 442.5941,475.7966 444.9268,458.6384 446.8108,441.3138 448.6304,418.2943 449.6767,395.9039 449.986,374.8489 449.6146,355.931 448.638,339.9903 447.1483,327.8169 445.2486,320.0529 444.1787,317.9638 443.6196,317.3817 442.4611,317.1493 441.865,317.4984 440.6461,319.1195 438.7721,323.811 436.8723,331.0981 434.345,344.5302 432.4832,357.0871 430.0807,376.6188 425.6596,422.5332 420.5149,491.4511 413.8829,595.864 410.6037,656.8554 410.4631,666.3156 410.6588,668.8559 411.0689,669.9377 411.7223,669.5875 413.0189,666.975 431.0802,614.2856 443.6765,580.1521 456.4347,548.6261 488.8305,472.4941 493.5261,460.4856 494.3454,457.6338 494.1938,457.0036 492.8988,458.2393 489.4479,463.1479 470.7919,492.0946 455.2194,515.5304 397.8857,599.4057 322.807,714.2701 311.0358,731.464 299.3635,747.7474 287.9115,762.7173 280.4682,771.7657 269.707,783.649 262.8769,790.2893 253.2877,798.1042 247.4186,801.7857 242.0386,804.1921 239.5507,804.9097 235.0149,805.3704 231.1104,804.5414 227.8858,802.4466 225.3822,799.1217 223.6316,794.6128 223.046,791.9312 222.4626,785.7515 222.6665,778.5386 223.6541,770.3648 225.4161,761.3091 227.9372,751.4558 233.0964,735.3733 237.4154,723.9152 242.4016,711.974 251.0541,693.3509 260.9982,674.1301 276.0273,648.0307 288.4448,628.4038 306.2611,602.513 320.3872,583.4606 339.9937,558.654 360.2484,534.5195 380.9748,511.0198 402.1053,488.2118 418.2422,471.6557 440.1807,450.5251 456.9346,435.5789 473.8906,421.6036 490.9584,408.7971 508.0064,397.3648 524.8609,387.5072 541.3057,379.4079 557.0861,373.2215 562.1498,371.6061 571.9159,369.0662 576.5954,368.1467 585.489,367.0164 589.68,366.8069 597.4935,367.0974 604.4763,368.326 607.6304,369.2874 613.217,371.892 615.6327,373.5288 619.6728,377.4527 621.2854,379.7313 623.6731,384.8978 624.4423,387.7751 625.1248,394.0894 624.6695,401.1089 624.0198,404.867 621.8925,412.8458 618.691,421.3946 611.9771,435.1608 603.1469,449.8847 592.4392,465.3736 575.7145,486.8996 566.4994,497.9248 551.8639,514.6652 531.3058,537.166 473.9001,598.3899 440.9632,635.1047 424.5807,654.3239 410.4139,671.6052 396.2634,689.5595 380.9074,709.8558"/>
  </g>
  <g fill="none" id="layer3" inkscape:groupmode="layer" inkscape:label="3" stroke="#f00" style="display:inline">
    <polyline points="477.8731,376.2048 482.2866,376.391 484.5878,376.8754 489.3792,378.6127 494.4234,381.3487 502.467,387.2386 511.0863,395.1229 520.2778,404.8052 530.0233,416.0665 540.2821,428.6759 554.633,447.1861 573.2617,472.3283 588.2357,493.4944 599.1777,509.7409 609.5996,526.1761 619.2397,542.719 627.8348,559.322 632.8597,570.4153 637.2402,581.5238 640.9154,592.6368 643.8337,603.7371 644.9958,609.2753 646.7059,620.3094 647.5789,631.2581 647.6975,636.6877 647.2978,647.4291 646.7806,652.7281 645.1184,663.1483 642.6341,673.2818 639.3517,683.0644 637.4205,687.803 633.0,696.9314 627.8676,705.5348 622.0658,713.5413 615.6396,720.8802 612.2065,724.2781 604.9293,730.4904 601.0967,733.29 593.0719,738.242 588.8914,740.3824 580.2226,743.9659 571.182,746.5927 566.5368,747.5397 557.0262,748.6918 547.2617,748.8511 542.2995,748.5598 532.2465,747.2419 522.0641,744.9587 516.9406,743.4622 506.6613,739.7777 501.518,737.5985 491.2537,732.5912 475.9968,723.5459 465.9781,716.5693 451.269,704.8308 437.0329,691.7526 423.3503,677.5559 414.5652,667.5805 406.0629,657.2724 389.9282,635.9068 374.971,613.915 361.242,591.6634 348.8275,569.4132 337.8368,547.3148 328.3877,525.4456 320.5927,503.94 317.3463,493.3935 314.5478,483.0345 312.2053,472.9078 310.3248,463.0634 308.9097,453.5557 307.9599,444.4423 307.472,435.7829 307.5888,423.7771 308.2146,416.515 309.2598,409.9119 310.7041,404.019 313.5666,396.6093 315.9007,392.6792 317.1853,391.0297 319.9723,388.3787 323.0263,386.6093 324.6446,386.06 328.0462,385.6368 331.6447,386.1148 333.5091,386.6904 337.3519,388.5087 341.3245,391.2045 347.4721,396.8492 351.6619,401.6409 358.0276,410.2888 362.2916,416.967 368.6519,428.2252 374.8828,440.7939 380.8822,454.4548 386.5482,468.9847 390.0925,479.0476 394.995,494.5616 397.9552,505.1113 401.889,521.1464 404.1539,531.9343 406.9901,548.2143 408.4979,559.1196 410.5835,581.0516 411.4353,603.1198 411.4058,614.1719 410.8022,630.7026 409.535,647.0654 408.3235,657.8016 405.0202,678.5968 402.9281,688.5228 400.5419,698.0388 397.8612,707.0695 394.8857,715.5394 391.6154,723.3747 388.0514,730.5051 382.1611,739.7404 377.8781,744.8451 375.6322,747.0654 370.9375,750.8219 368.4913,752.3525 365.9815,753.6489 360.7788,755.5374 355.3482,756.4921 349.7124,756.5311 346.8256,756.2161 340.9322,754.9393 334.9051,752.8356 328.7775,749.9526 322.5845,746.3426 316.3622,742.0616 310.1474,737.1673 303.9765,731.7184 297.8856,725.7728 291.9092,719.3873 286.0798,712.6173 277.6758,701.8592 267.2433,686.6547 262.411,678.789 255.7023,666.78 249.7027,654.6313 246.1308,646.5108 240.1082,630.3521 237.6997,622.3658 235.7172,614.4728 233.5682,602.8529 232.4262,591.5514 232.2875,580.621 233.1255,570.1044 234.2049,563.3394 235.6809,556.7797 238.5933,547.3351 240.9665,541.3105 243.6553,535.5118 249.882,524.6238 257.0897,514.732 265.1129,505.8982 269.3814,501.8992 276.051,496.4509 282.98,491.6984 287.7079,488.9392 297.322,484.4711 307.0076,481.4957 311.8321,480.5948 316.6236,480.0948 321.3681,479.9996 326.052,480.3103 330.6623,481.0259 335.1854,482.1429 339.6077,483.6557 343.9142,485.5563 348.0893,487.8351 354.0683,491.9352 361.4186,498.5952 366.3866,504.4061 369.4061,508.6307 374.6677,517.8259 378.7952,527.8737 381.6971,538.6148 383.3162,549.9156 383.6221,561.7013 382.5979,573.9729 380.2345,586.7597 376.5282,600.0764 371.4813,613.8915 365.1043,628.1019 359.4647,638.9204 355.3089,646.1652 346.0904,660.617 335.7467,674.8305 324.3982,688.5576 312.1826,701.5254 299.2513,713.4403 285.7762,723.99 275.4366,730.8092 268.4891,734.7586 261.5389,738.1863 254.6246,741.0578 247.7889,743.3437 241.0783,745.02 234.5428,746.0694 225.1856,746.4487 219.3275,745.9043 213.8418,744.7292 206.4393,741.8084 202.138,739.1114 198.4067,735.8375 195.2945,732.0102 193.9845,729.8974 191.8812,725.2922 190.4942,720.2079 189.849,714.6797 189.9626,708.746 190.8438,702.4471 192.4945,695.826 196.3981,685.3871 199.928,678.1563 204.1694,670.7621 209.0873,663.2499 214.6397,655.6641 220.7792,648.0472 227.454,640.4386 242.188,625.3876 258.3889,610.7504 275.6145,596.69 293.4668,583.3002 316.1683,567.5688 334.3361,555.7791 356.7655,541.9425 439.8397,493.2048 458.1218,481.5033 471.6549,472.01 481.0709,464.8205 489.7989,457.6183 497.7899,450.4801 505.0006,443.5103 513.3387,434.6973 520.1592,426.7293 526.4903,418.4284 530.3677,412.4199 531.768,409.4726 531.7896,408.252 530.6016,408.7452 529.024,410.1997 523.4453,416.9497 499.4872,450.7711 486.8648,467.1524 472.6019,483.614 457.0501,499.5962 435.8727,519.1949 423.765,529.5088 413.9106,537.3512 403.8297,544.7291 396.0499,549.8988 388.0158,554.7153 379.6717,559.1501 367.9958,564.4401 358.7999,567.9322 349.2199,571.0162 339.2583,573.6944 328.9303,575.9707 314.6496,578.3859 303.6332,579.7337 288.7102,580.9053 273.8004,581.3388 262.8603,581.1567 248.9652,580.2026 239.3392,578.927 230.641,577.1468 223.0875,574.8383 216.8793,571.9762 212.1887,568.5342 209.9725,565.9036 209.1492,564.4844 208.0854,561.4333 207.8485,559.7993 207.8094,558.0919 208.325,554.4526 210.5713,548.4201 214.541,541.6846 220.1518,534.2381 227.2886,526.0836 238.928,514.1387 264.0041,490.5287 315.5297,443.8925 347.536,415.2432 370.2506,395.6858 388.0367,381.446 396.7582,375.0095 405.3537,369.1323 417.995,361.5247 430.3002,355.5638 438.2915,352.5964 446.0908,350.4833 453.6758,349.253 457.3803,348.9742 461.0217,348.9208 468.0996,349.4887 471.528,350.1076 478.142,352.0049 481.3184,353.277 487.3859,356.4486 493.0403,360.4238 498.2422,365.1561 500.6614,367.7898 505.113,373.5558 509.0201,379.9349 512.3514,386.8611 516.2123,398.1261 518.0006,406.1175 519.1464,414.413 519.6534,427.2812 519.1907,436.0521 518.1004,444.9092 515.3256,458.2411 512.7473,467.0902 509.6154,475.8576 505.9574,484.5042 501.8024,492.9945 497.1803,501.2957 492.1212,509.3784 483.7784,521.0342 477.7573,528.459 471.4031,535.5843 461.3108,545.6766 454.2494,551.9899 446.9533,557.9617 435.6263,566.2693 419.9405,576.1194 407.8421,582.5827 391.4037,589.9812 374.7672,596.0311 358.1514,600.814 337.8529,605.1793 318.7009,607.9811 298.2227,609.6166 289.345,609.8299 279.2028,609.5553 271.2179,608.6795 266.7565,607.6435 263.665,606.2921 261.9773,604.6358 261.6407,603.3695 262.3195,601.2424 263.5543,599.6841 266.5525,597.1601 270.8748,594.4457 276.4469,591.5829 288.2726,586.6052 306.1265,580.5514 323.6028,575.6716 343.1114,571.1753 360.0277,568.0386 378.0259,565.4771 392.2119,564.0222 412.0415,562.8061 427.596,562.4914 443.6964,562.725 460.2728,563.534 477.2199,564.9413 494.3941,566.9659 511.6112,569.6221 528.6461,572.9201 545.2346,576.8652 561.0788,581.4576 575.8539,586.6884 584.9421,590.519 597.177,596.7522 604.2591,601.2114 610.3749,605.8935 613.0448,608.3123 617.5634,613.2931 620.9374,618.4478 622.1802,621.084 623.7569,626.4612 624.1076,631.9617 623.2308,637.5662 621.1392,643.2562 619.6454,646.1275 615.7845,651.9116 610.7979,657.7355 601.334,666.5048 593.8017,672.3443 580.862,681.0392 571.2629,686.7574 555.6191,695.1482 538.7353,703.2206 520.8813,710.8545 502.3012,717.9192 489.6182,722.2478 470.286,728.075 457.2587,731.4651 437.5969,735.731 424.4445,737.9917 411.2749,739.763 398.0942,741.0322 384.9012,741.793 371.6956,742.0459 358.4871,741.7981 338.7124,740.5179 325.5965,739.0878 306.1199,736.1422 293.3382,733.6891 274.6181,729.3589 256.6522,724.3534 239.7128,718.7896 224.1027,712.7767 214.5932,708.5666 201.9161,702.0112 191.4221,695.239 185.7803,690.642 183.3933,688.3272 179.5256,683.6782 176.906,679.0203 175.5674,674.3727 175.3838,672.0583 175.9884,667.4592 176.7744,665.1783 179.3015,660.6634 183.0772,656.2221 188.0609,651.8669 194.2005,647.6087 201.4346,643.456 209.6939,639.4153 218.9024,635.4908 239.8387,627.9996 263.5577,620.9897 296.0557,612.9048 330.5236,605.5881 365.8741,599.0798 408.3964,592.3565 450.2969,586.7784 490.412,582.2723 537.4177,577.8254 583.7618,574.1206"/>
  </g>
</svg>
