<?xml version="1.0" encoding="utf-8" ?>
<svg xmlns="http://www.w3.org/2000/svg" xmlns:cc="http://creativecommons.org/ns#" xmlns:dc="http://purl.org/dc/elements/1.1/" xmlns:ev="http://www.w3.org/2001/xml-events" xmlns:inkscape="http://www.inkscape.org/namespaces/inkscape" xmlns:rdf="http://www.w3.org/1999/02/22-rdf-syntax-ns#" xmlns:sodipodi="http://sodipodi.sourceforge.net/DTD/sodipodi-0.dtd" xmlns:xlink="http://www.w3.org/1999/xlink" baseProfile="tiny" height="29.7cm" version="1.2" viewBox="0 0 793.7007874015749 1122.5196850393702" width="21.0cm">
  <metadata>
    <rdf:RDF>
      <cc:Work>
        <dc:format>image/svg+xml</dc:format>
        <dc:source/>
        <dc:date>2022-06-01T20:29:21.228930</dc:date>
      </cc:Work>
    </rdf:RDF>
  </metadata>
  <defs/>
  <g fill="none" id="layer1" inkscape:groupmode="layer" inkscape:label="1" stroke="#00f" style="display:inline">
    <polyline points="702.0693,1025.9532 706.5781,1022.2321 705.4489,1018.9985 699.0546,1016.2751 688.6068,1014.0357 675.7529,1012.4571 662.1596,1011.8636 648.5643,1012.4109 635.0628,1014.0963 621.7501,1016.9075 608.6998,1020.7573 583.0668,1029.8939 569.9361,1033.4596 556.4351,1035.1495 542.8458,1034.471 529.5982,1031.3671 517.0121,1026.1978 505.1038,1019.6157 470.9998,997.1888 425.2735,967.6743 414.069,959.9548 403.0882,951.9204 392.3753,943.5319 381.9625,934.7738 371.919,925.5945 362.4026,915.8698 353.5989,905.4955 345.6132,894.4791 338.3727,882.9593 331.6806,871.1125 325.3243,859.0822 313.5064,834.5725 302.6929,809.6006 296.7671,797.3525 289.9982,785.5494 282.4353,774.2386 274.2985,763.3333 265.6327,752.8436 256.4312,742.8204 246.7838,733.2257 227.0606,714.4771 217.7019,704.6005 209.2329,693.9512 201.9472,682.4599 195.9518,670.2457 191.2374,657.4823 187.7289,644.3361 185.3077,630.947 184.0602,618.1746 184.2233,607.5248 185.9886,598.7737 189.6567,591.5222 195.4678,585.4424 203.412,580.5282 213.3213,576.8628 224.9686,574.3168 305.2707,563.0283 332.1343,558.6876 345.5058,556.1709 358.8048,553.2952 371.9958,549.9595 385.0034,545.9678 397.683,541.0323 409.8251,534.8922 421.2161,527.4505 431.7347,518.8198 441.3843,509.2273 450.2108,498.8723 458.1258,487.8051 464.9016,476.0059 469.9103,464.3796 472.6959,454.8005 473.663,447.9228 473.222,444.2764 471.7465,443.9834 469.4777,446.9476 462.5739,461.4589 457.4161,471.5328 450.6653,482.051 442.3438,492.3223 432.7918,502.0121 422.4961,510.9075 411.5409,518.977 399.8803,525.9885 387.4642,531.5538 374.3724,535.26 360.8651,536.8981 347.2622,536.594 333.7854,534.7213 320.5205,531.6926 307.4929,527.7663 294.7296,523.0516 269.8808,511.9643 245.4317,500.0199 233.6687,493.1815 223.311,485.5665 215.2533,477.6469 209.3386,469.6457 205.1398,461.7723 202.1188,454.1043 197.6104,440.1095 193.5658,428.913 192.2671,424.6342 191.9945,421.3759 192.9998,419.0259 195.4378,417.3145 199.406,416.1095 204.9139,415.5271 211.8566,415.7882 220.0879,417.0063 229.4931,419.2264 239.9953,422.613 251.4573,427.2769 263.5546,433.0333 287.6769,445.6271 299.5938,452.1937 358.5814,486.0863 418.1445,518.957 453.537,539.292 465.6014,545.5835 478.0867,550.9916 491.034,555.1747 504.3909,557.7681 517.979,558.4708 531.5063,557.0069 544.5177,553.0274 556.3753,546.3545 566.5655,537.3383 575.0483,526.7 582.09,515.0576 587.9866,502.7954 593.1082,490.1898 611.4394,438.9467 621.6484,413.7235 632.8708,388.934 662.5973,327.7411 668.2437,315.3617 673.2042,302.6918 677.082,289.6498 679.4651,276.2538 680.1322,262.6639 679.2167,249.0884 676.9815,235.667 673.5555,222.4991 668.7715,209.7616 662.4795,197.6975 654.7245,186.5175 645.6128,176.4127 635.1806,167.6777 623.4883,160.719 610.7621,155.9051 597.3778,153.4573 583.7729,153.2646 570.2442,154.7161 556.8463,157.0881 543.5411,159.9349 490.6832,172.8907 477.2757,175.208 463.7237,176.4225 450.1176,176.3642 438.7194,174.9294 430.0943,172.1737 424.4274,168.0819 421.7356,162.6125 421.8443,155.7028 424.4698,147.411 429.2471,138.3022 435.7517,129.2559 443.5436,121.2015 452.2063,115.0973 461.3677,111.7303 470.7167,111.4471 480.0591,113.938 489.3284,118.3468 498.5713,123.4133 507.948,127.6951 517.6177,129.9915 527.5827,129.7172 537.4892,126.8559 546.8189,121.8597 563.1942,109.4468 570.9121,104.6303 578.7044,102.2698 586.5621,102.9838 594.468,106.9707 602.4507,113.8284 628.1429,141.9894 637.7895,150.6834 647.7996,157.6068 657.8838,162.2556 667.7471,164.5122 676.9751,164.298 684.8993,161.5623 690.5698,156.3162 693.0705,148.6446 692.1262,138.7313 688.2595,126.9814 682.461,114.6725 675.5381,103.3572 668.7428,96.293 662.9048,95.0103 658.595,99.4374 655.9407,108.6723 654.8994,121.0841 655.4593,134.6789 657.6378,148.1096 661.5063,161.1544 666.9638,173.6182 673.6731,185.4553 688.0996,208.5267 692.8286,219.3317 694.4516,229.3203 693.3523,238.9872 690.4304,248.8269 683.0886,269.8622 680.404,281.2221 678.8172,293.2655 676.9074,318.9901 675.4713,332.2939 667.3186,386.0805 662.5936,412.8796 660.5822,426.3364 659.6093,439.9078 660.147,453.4039 662.4232,463.779 666.4644,470.6864 672.1417,474.0747 678.9258,474.2602 685.7484,471.7527 691.3396,466.9839 694.7377,460.1902 695.6096,451.4354 694.0738,440.8607 690.3986,428.9308 685.1288,416.4615 666.6969,380.0422 660.8837,367.7403 649.9602,342.8172 639.4555,317.7139 628.2621,292.912 622.1716,280.745 615.6947,268.7792 608.7911,257.0543 601.3302,245.676 593.215,234.7547 584.5236,224.2861 575.4276,214.1671 566.0054,204.3511 556.1412,194.9794 545.7423,186.2047 523.9883,169.8568 513.363,161.3577 503.5217,151.9619 497.0872,143.2445 494.5727,135.6769 495.8186,129.4254 500.5228,124.6307 508.2148,121.4636 518.2003,120.1466 529.8238,120.632 542.5378,122.5742 555.843,125.4207 595.335,135.738 608.6878,138.3522 622.2564,139.3641 635.8217,138.3086 649.0466,135.1094 661.5449,130.0435 672.5969,123.7359 681.714,116.8559 688.2768,110.2753 691.7968,104.995 692.2358,101.8656 690.1602,101.2238 686.5113,102.9372 682.4494,106.6605 679.2464,111.9396 677.9139,118.1706 678.89,124.589 681.9908,130.4309 686.7017,135.0338 692.4859,137.8667 698.6209,138.4346 704.1525,136.4036 708.0554,131.7421 709.7197,124.9475 709.1126,117.0367 706.5137,109.3206 702.5337,103.4296 698.0727,100.9096 694.0628,102.442 691.2297,107.7514 689.9913,115.7313 690.4834,124.8257 692.4612,133.3997 695.1354,140.0062 697.5205,143.7715 698.7395,144.4914 698.0727,142.3525 695.0306,137.6238 689.4371,130.6239 681.5706,121.8931 672.087,112.3517 661.8564,103.3815 650.6453,95.6715 638.9867,91.1218 628.2757,91.659 618.6544,97.2395 610.1995,106.7447 602.9622,118.2666 583.9351,154.3782 577.0716,166.1265 569.6758,177.5472 561.5614,188.4692 552.6137,198.7195 542.8779,208.2245 532.3692,216.8674 521.0125,224.3611 508.7761,230.3112 495.7937,234.3841 482.3685,236.5965 468.7843,237.3709 455.1782,237.2857 414.3816,235.9513 400.7754,236.0035 387.1916,236.7856 373.6956,238.5146 360.3574,241.2024 347.2478,244.8454 334.4576,249.4867 322.0878,255.154 310.1777,261.7329 298.7295,269.086 287.8814,277.2988 277.9157,286.5626 269.2328,297.0382 262.5407,308.6411 258.9057,320.294 258.2518,332.0 260.3631,343.617 264.9775,354.8632 271.7253,365.4807 280.2016,375.349 290.012,384.48 300.7163,392.8793 334.1593,416.2799 344.8043,424.7544 354.9233,433.8504 364.4374,443.5773 373.297,453.9039 380.9744,464.1054 387.6683,474.2022 393.6625,484.3764 399.1086,494.6651 413.8129,524.3429 418.1741,532.5751 422.2146,539.4476 425.9436,544.815 429.2533,548.5252 431.9296,550.4239 433.8186,550.51 434.7832,548.954 434.5681,545.9777 432.9833,541.7491 429.9685,536.3366 425.4606,529.8025 419.4117,522.299 411.8603,514.0973 403.0693,505.4395 393.3458,496.5828 382.9155,487.8455 308.2226,428.7507 286.5313,412.3207 253.5662,388.2498 242.829,379.8924 232.3623,371.1988 222.253,362.092 202.5429,343.3296 192.2476,334.4336 161.2353,310.6747 153.7137,303.7185 147.9319,296.8601 143.8212,289.9864 141.19,283.1007 137.8325,269.5738 135.6382,263.1623 132.3092,256.9818 127.4477,250.8704 120.9022,244.7034 104.5296,232.1873 96.7675,225.8248 91.0255,219.2289 88.383,212.2114 89.3603,204.6536 93.9645,196.5658 101.6725,188.0645 111.4475,179.2992 131.7636,161.9694 139.7628,154.0863 145.4864,146.6139 149.0478,138.8793 150.7133,130.3228 150.708,121.0279 149.3028,111.8199 146.7142,104.0074 143.0397,98.8354 138.3142,97.0885 132.7536,98.791 127.0016,103.3718 122.0599,109.7692 118.9103,116.6272 118.0387,122.5588 119.2509,126.2966 121.8918,127.0149 125.1421,124.5706 128.3207,119.407 130.9889,112.4477 132.8791,104.8748 133.7891,98.2551 133.5657,94.424 132.1463,94.6204 124.9873,107.0291 118.6672,117.2447 110.7551,128.314 93.8374,149.6286 85.8645,160.6542 81.132,170.0533 80.9289,176.8714 85.2022,181.2877 93.1063,183.9094 103.1903,185.3715 113.8493,185.9343 123.9093,185.4629 132.6164,183.7104 139.3074,180.662 143.2937,176.4617 144.1057,171.3029 141.7608,165.3765 136.5898,159.0923 129.085,153.0052 119.7877,147.4685 92.3435,134.8121 88.7941,132.1512 89.4937,130.4904 93.9702,129.8301 109.6212,129.9259 117.4426,129.2999 123.0331,127.6339 125.3389,124.7804 123.9928,120.7302 119.0959,115.5584 94.3581,96.4987 89.1619,91.3731 88.5982,88.4402 93.2026,88.2263 102.3437,90.5615 114.3308,94.7121 152.2592,109.7968 165.2032,113.9902 178.5551,116.6087 192.1465,117.2455 205.6808,115.848 218.8897,112.5833 231.6223,107.7862 256.2447,96.1995 269.0073,91.4827 281.2562,89.7128 290.8557,91.9287 297.3071,97.8392 300.343,106.4884 300.0992,116.4989 297.0969,126.6097 291.9429,135.8892 285.0767,143.7083 276.8308,149.5892 267.5164,153.2595 257.4827,154.7686 246.7885,154.541 235.2587,153.1 222.8407,150.7378 209.8345,147.6449 196.7337,144.0467 158.6508,132.4848 146.4112,129.4523 134.2165,127.4558 122.3315,126.5747 111.505,126.8208 102.7455,128.2687 96.8452,130.8875 94.2475,134.3809 94.9919,138.1917 98.7567,141.8444 104.7884,144.9755 111.8564,147.3015 118.4321,148.6729 123.1776,149.1266 125.3566,148.8929 124.8224,148.2598 121.6911,147.4616 108.4627,145.3835 99.425,143.3443 90.4138,140.166 83.4158,135.8807 80.3243,130.8162 82.0101,125.4632 88.1378,120.3008 97.2537,115.7767 107.3883,112.4371 116.7937,110.7991 124.3074,110.9969 129.2049,112.6765 130.988,115.127 129.4214,117.5942 124.5749,119.2074 117.0895,119.0672 108.2798,116.654 99.8999,111.9283 93.5826,105.4495 90.2736,98.4261 90.0946,92.562 92.6554,89.5255 97.1291,90.2301 102.3752,94.7627 107.2068,102.5471 110.805,112.2053 112.7775,121.917 112.956,130.0917 111.5001,135.6025 108.8598,137.7942 105.5382,136.4542 102.0195,131.7377 98.8095,124.3038 96.415,115.3176 95.2485,106.5353 95.516,100.1662 97.2716,98.0254 100.4105,100.7674 104.6126,108.0962 115.1986,131.1747 121.3983,143.2864 128.4698,154.9107 136.2599,166.0662 152.4218,187.9595 175.7976,221.4218 183.8361,232.3997 217.4955,275.1663 225.6879,286.0299 233.4779,297.1855 240.7031,308.7149 247.2699,320.6316 253.1494,332.902 258.3108,345.4914 262.7199,358.3635 266.4212,371.4567 272.7193,397.9303 276.2482,411.071 280.7618,423.9068 286.8049,436.0975 294.6701,447.2002 304.3076,456.8049 315.3658,464.7325 327.436,471.0127 340.139,475.8877 353.2188,479.636 366.5237,482.4842 379.9683,484.5757 393.1078,485.8139 405.9418,486.0649 418.7158,485.2169 431.4262,483.3751 443.8336,480.8192 455.7496,477.6811 467.2738,473.7796 478.7152,468.7701 490.2379,462.4678 501.6626,455.0782 512.6635,447.0712 523.3044,438.5916 533.5626,429.6529 543.3682,420.2199 552.6422,410.2638 561.3335,399.7951 569.4281,388.8586 576.9153,377.4975 583.732,365.7219 589.7266,353.5074 594.7742,340.872 598.8981,327.9057 602.2808,314.7266 605.1669,301.4299 614.8356,247.8719 617.6239,234.5544 621.0761,221.3933 625.4562,208.5113 630.9431,196.0604 637.576,184.1803 644.8571,173.7342 651.9773,165.6249 658.5398,159.6793 671.2319,150.4828 672.1598,149.0363 671.3893,147.3858 665.7922,139.976 661.9241,133.1177 658.2272,124.0348 655.3015,113.3592 653.486,102.7466 652.9909,94.8729 653.9431,92.1608 656.3981,95.2855 660.2153,103.5123 670.5267,127.4836 682.0459,152.1379 687.2764,164.6986 691.332,177.6865 693.6017,191.1021 693.532,204.7082 690.8581,218.0492 685.8168,230.6871 678.9252,242.419 670.7791,253.3173 653.491,274.3325 645.2542,285.1624 637.405,296.2764 622.4922,319.0372 600.9558,353.7115 593.4084,365.0327 585.5605,376.1476 577.4067,387.0401 568.7983,397.577 559.5062,407.5162 549.4091,416.6366 538.6056,424.8172 527.3317,432.0623 515.4238,438.5307 502.9622,443.9931 490.0149,448.1765 476.6871,450.9152 463.1444,452.2291 449.5382,452.2712 435.9653,451.3182 422.4592,449.6695 409.0247,447.5144 395.6683,444.9185 382.4135,441.8459 369.3131,438.1703 356.4342,433.781 343.8298,428.6565 331.5425,422.8124 319.608,416.2779 308.0315,409.1284 262.6819,379.0385 216.4186,350.3753 205.2676,342.5787 194.6023,334.1299 184.4631,325.0565 174.8574,315.4199 165.8679,305.2062 157.6601,294.3543 150.4009,282.8462 144.1698,270.7506 138.9634,258.1798 134.789,245.2297 131.6939,231.9801 129.68,218.5237 128.7001,204.9527 128.6642,191.3464 129.4142,177.7608 130.7804,164.2233 132.6406,150.7448 135.0883,137.3604 138.3027,124.1393 141.5698,114.4725 144.2548,109.9185 146.0213,110.1332 146.6809,114.1424 146.1694,120.8234 144.4792,129.0583 141.6297,137.843 137.6414,146.2598 132.569,153.5479 126.6254,159.343 120.2934,163.637 114.3392,166.4904 109.671,167.9571 107.0928,168.1899 107.0582,167.602 109.5708,166.5535 120.3296,163.1999 127.048,160.5613 133.718,156.9404 139.948,152.0015 145.6429,145.4507 150.9153,137.1646 155.7674,127.0833 160.146,115.5228 167.5451,93.9171 170.3405,88.6756 172.3214,89.1537 173.5251,95.1665 174.1312,105.6121 174.2364,118.6827 173.1536,145.8711 170.709,172.9718 168.9478,186.4636 166.6663,199.8772 163.6436,213.1435 159.5893,226.1318 154.2527,238.6478 147.5347,250.48 139.5471,261.495 130.5481,271.7003 120.77,281.1618 110.2988,289.85 99.1968,297.7162 77.0077,311.7831 72.0462,317.0808 73.7813,321.0622 81.6909,323.9299 93.8573,325.9549 148.0158,331.3235 175.0308,334.5815 188.4587,336.7772 201.8122,339.3881 215.0714,342.4415 241.369,349.4382 254.6567,352.3656 268.1865,353.8063 281.7732,353.076 292.9212,349.92 301.6992,344.5012 308.0208,336.9564 311.7728,327.4407 313.0886,316.2101 312.5215,303.6919 310.7261,290.4346 308.2614,277.0534 305.4124,263.7487 299.2395,237.2456 295.9172,224.0511 292.1148,210.987 287.4931,198.1896 281.7543,185.8528 274.6895,174.2244 266.27,163.5359 256.7741,153.7912 246.6457,144.7057 236.1513,136.0455 225.3707,127.7443 214.192,119.9874 202.8899,113.7141 191.5217,109.7381 179.8703,108.3038 167.8455,109.1328 155.4573,111.5792 142.7206,114.7639 129.6996,117.5952 116.9779,119.0477 105.8005,118.4616 98.0484,115.5794 95.3129,110.5291 97.8922,103.8513 105.0298,96.4534 115.2779,89.6905 127.1177,85.2842 139.2507,84.7498 150.7241,88.7232 161.0252,96.6841 169.888,107.0079 177.513,118.2769 184.3644,130.0323 197.4388,153.8977 204.6392,165.4426 212.4861,176.5583 229.1839,198.0444 237.8888,208.5018 247.1225,218.4953 257.1251,227.719 267.936,235.9808 279.5734,243.0307 291.9691,248.6413 304.9372,252.7595 318.268,255.4836 331.7904,256.9925 345.3867,257.5146 372.5989,257.3812 386.2035,257.5965 399.7894,258.3413 413.3216,259.7596 426.7456,261.9789 438.4553,264.8748 446.8522,268.0912 451.8126,271.4284 453.7431,274.7802 453.2796,278.1653 450.9621,281.643 447.164,285.1814 442.2512,288.5428 436.4644,291.4225 429.8456,293.6224 422.3486,295.1608 413.9919,296.1743 404.9289,296.7743 395.139,296.9243 384.5239,296.5764 360.8842,295.1592 347.9794,294.9804 334.6184,295.5009 321.0523,296.5453 293.9921,299.4077 280.5701,301.6398 267.4063,305.0816 254.7655,310.1156 242.9207,316.8114 232.0706,325.0215 222.3711,334.5636 213.9062,345.2161 206.5057,356.6338 199.9182,368.5391 193.9694,380.7761 188.608,393.2816 183.7945,406.008 170.5979,444.634 160.7879,470.0166 156.2143,482.8312 152.1773,495.8248 145.2624,522.1427 139.2093,548.6727 134.207,575.4194 128.4732,615.8321 123.8274,656.3849 121.6747,669.8198 110.9055,723.1679 108.6524,736.5863 107.5059,750.1442 108.1408,763.7357 110.8057,776.9141 115.1115,789.7069 125.905,814.6863 131.0161,827.2961 135.2842,840.2156 138.3376,853.4749 139.807,867.0016 139.4337,880.6028 137.1971,894.024 133.4036,907.0908 128.4779,919.7742 111.2423,956.7731 106.6764,969.5904 104.5851,981.5942 105.3094,992.9646 108.629,1003.8178 114.0108,1013.704 120.8437,1021.5743 128.5878,1026.2989 136.7915,1027.1878 145.0876,1024.2166 153.2673,1017.7922 161.2798,1008.7379 169.1245,998.1311 184.1282,975.4306 205.1988,940.4712 212.5406,929.0156 220.2416,917.7984 228.3747,906.8904 237.0209,896.3845 246.3219,886.4536 256.4997,877.4235 267.7859,869.8238 280.2034,864.2618 293.4327,861.0811 307.0077,860.1593 320.5924,860.9271 334.0921,862.6266 374.3948,869.0882 387.7222,871.8291 400.9311,875.0936 413.9952,878.8963 426.8987,883.2127 439.6347,888.0007 452.2058,893.2064 476.9275,904.5764 525.4819,929.1612 537.8628,934.8043 550.5582,939.699 563.5888,943.3387 575.5074,944.8188 586.1217,943.975 595.3784,940.7374 603.4301,935.0308 610.4496,926.9587 616.6013,916.8965 622.1334,905.3986 627.262,893.024 631.9691,880.2579 635.9823,867.2569 639.1086,854.0146 641.4522,840.6117 644.6397,813.5888 648.1024,772.9173 649.7004,760.0294 652.2609,747.6067 656.2937,735.4336 661.9077,723.4205 668.7488,711.6591 683.6342,688.8786 690.5277,677.1478 696.0123,664.7099 698.6557,652.341 697.7421,640.2617 692.919,628.9953 684.4922,619.0847 673.4987,611.0677 661.1163,605.4279 647.8854,602.2538 634.299,601.5173 620.7654,602.9221 607.5252,606.0569 594.6841,610.5557 582.1971,615.9598 569.9664,621.9216 557.9748,628.3506 546.2935,635.3277 535.0478,642.987 524.3364,651.3772 514.1731,660.4238 504.4732,669.9654 467.3477,709.76 429.5493,748.917 419.4633,758.0496 408.6211,766.2702 397.0911,773.4944 385.0288,779.7899 372.5655,785.2486 359.7491,789.8172 346.5651,793.1807 333.0765,794.9667 319.4702,794.9629 306.0017,793.0315 292.9987,789.0248 280.8573,782.8835 269.8278,774.9159 259.9301,765.5796 251.0934,755.2334 243.2332,744.1271 236.2447,732.4527 229.993,720.3677 224.279,708.0193 203.1076,657.8817 186.8037,620.4608 181.7013,607.8475 157.2463,544.3637 146.8052,519.2357 135.1109,494.6664 115.7482,458.7337 109.9626,446.4188 105.3101,433.6326 102.067,420.4185 100.5584,406.8961 101.0063,393.2971 103.3209,379.8891 107.0014,366.7901 115.7039,341.0065 119.3351,327.8937 121.5088,314.4622 121.4975,300.8559 118.935,287.4931 114.1116,274.7704 107.886,262.6719 101.2152,250.8131 95.1078,238.6545 91.0106,225.6798 90.5713,212.0805 94.6363,199.0957 102.5596,188.0344 112.9309,179.2271 124.7284,172.4485 137.4025,167.4989 150.6417,164.3597 164.1748,162.9499 177.7804,162.8147 218.5781,164.1302 232.1655,164.8462 272.8175,168.5238 286.3925,169.4461 313.5837,170.4985 327.19,170.5468 340.776,169.8045 354.2081,167.6344 367.163,163.4748 379.1772,157.0881 388.6216,149.2392 394.8925,140.8559 397.9172,132.7168 397.7792,125.8248 394.636,121.0825 388.7003,118.9006 380.4134,119.13 370.3042,121.2065 346.1644,127.7079 332.8589,130.5529 319.3772,132.39 305.7787,132.8526 292.2253,131.654 278.9255,128.7827 266.0303,124.4415 253.5964,118.9161 217.5599,99.7482 205.1018,94.2779 191.9217,90.8987 178.7565,91.2964 166.9061,95.9364 156.0792,103.7468 136.8199,121.3256 128.2754,127.8704 120.6565,131.595 114.3958,132.109 110.1083,129.4399 108.2583,123.8995 108.8693,116.2024 111.526,107.6425 115.6737,100.2177 120.7212,96.0568 126.0468,96.3924 130.8805,101.4832 134.5348,110.6821 136.7709,122.3468 137.8511,134.3526 138.2238,144.8131 138.0986,152.5379 137.2355,157.1502 135.0884,158.9073 131.1552,158.396 125.3034,156.0829 117.8655,152.0861 109.447,146.4707 100.8391,139.5688 93.2129,132.09 88.0707,124.883 86.7605,118.6799 89.7934,114.1239 96.8805,111.7461 106.9542,111.8379 118.4809,114.0601 148.9496,123.874 156.1687,124.6157 162.3175,122.8211 167.618,118.1181 172.0922,110.5151 175.8226,100.7179 179.1734,90.395 182.645,82.0709 186.4822,78.2433 190.5539,80.0476 194.566,87.2023 198.3499,98.2838 201.8441,111.3381 204.8447,124.6094 207.3644,137.9803 213.3169,175.3289 213.8365,179.2132 213.7571,181.6003 213.0039,182.6422 211.5494,182.5847 209.3559,181.5965 206.3259,179.5758 202.3469,176.2441 197.3465,171.3344 175.9411,147.5187 166.608,137.8167 156.6157,128.5817 145.7604,120.3784 133.9381,114.3274 122.3687,112.2142 111.5385,114.3974 102.5181,120.5436 96.8331,129.7725 95.5699,141.0023 98.7545,153.094 105.4653,164.9303 114.0739,175.467 123.7878,184.9944 134.1814,193.7753 145.0457,201.9666 156.3073,209.6026 168.002,216.5572 180.0828,222.817 192.478,228.4286 205.1792,233.3083 218.1928,237.2806 231.4753,240.2309 244.9252,242.2883 258.4572,243.7086 312.7268,247.7934 326.2367,249.4098 339.6829,251.4908 353.0503,254.0295 366.2877,257.1763 379.2497,261.3138 391.6778,266.8522 403.2564,273.9983 413.7155,282.701 422.7717,292.8557 430.1472,304.2896 435.6934,316.7142 439.5656,329.7579 441.9304,343.1571 442.7144,356.7408 442.025,370.3296 440.1877,383.8113 432.5308,423.9044 430.5852,437.3709 429.1263,450.8987 421.9165,532.2166 419.7152,572.9749 418.5512,586.5313 416.4425,599.9732 413.2103,613.1901 408.9842,624.3567 403.8257,632.4736 397.6177,637.3155 390.2524,638.8275 381.6959,637.1879 372.0629,632.714 361.7157,625.9167 351.2052,617.5062 341.1432,608.3472 331.4784,598.77 303.4879,569.0603 293.9316,559.3749 283.8821,550.2021 272.9955,542.0404 260.9786,535.6587 248.8784,532.2638 236.9006,531.9578 225.1305,534.5836 213.6604,539.8942 202.6245,547.3807 192.2471,556.1808 182.4655,565.6387 173.111,575.5192 164.252,585.8463 156.0603,596.7104 148.6429,608.1172 142.0736,620.0325 136.5058,632.4474 132.1504,645.3378 128.9665,658.5663 126.6703,671.9775 124.9866,685.4792 123.7547,699.0296 121.2749,739.7727 120.0809,753.3265 114.56,793.7685 113.2712,807.3136 112.8335,820.9129 113.3975,834.5075 115.0583,848.012 117.7755,861.3443 124.6887,887.6638 127.7744,900.9156 130.0376,914.3324 131.0288,926.8921 130.5481,938.3231 128.4257,948.8843 124.5358,958.8714 118.9776,968.6231 112.2251,978.3024 98.1076,997.4907 92.3467,1006.8054 88.6608,1015.525 88.0214,1022.7361 90.9792,1027.338 97.4833,1028.5371 106.7283,1026.0893 117.1823,1020.1844 127.0324,1011.4193 134.8295,1000.6442 139.841,988.7498 142.0152,976.4331 141.7575,963.9964 139.7413,951.4595 127.4114,898.8696 122.0289,872.1962 117.3901,845.3821 115.4954,831.9084 114.3538,818.3501 114.3224,804.7438 115.5517,791.1932 117.8753,779.3578 120.8194,770.351 123.8514,764.1974 127.7645,758.6407 124.1596,758.7909 121.347,758.2248 104.1111,752.5931 99.0194,750.1413 94.9294,746.9033 92.7226,742.8616 93.1125,737.9072 96.458,731.9147 102.6883,724.8863 111.3331,717.1218 131.8357,700.0494 141.2323,690.209 148.8882,678.9609 154.3823,666.5132 157.8308,653.3511 159.5331,639.8517 159.6218,626.2457 158.1725,612.7168 155.2743,599.4228 151.0176,586.4995 145.4627,574.0787 138.678,562.2847 130.8102,551.1839 113.2399,530.407 105.0047,520.2225 98.639,510.1003 95.0751,499.8515 94.7354,489.2248 97.4096,478.0367 102.2872,466.3704 114.1368,442.1252 119.5233,429.6305 124.1253,416.8261 127.6078,403.673 129.8346,390.2502 130.8654,376.683 130.8452,363.0767 129.8854,349.5043 128.135,336.0111 119.0159,282.3571 117.1898,268.8739 115.8123,255.3375 115.1303,241.7483 115.2297,228.1424 117.9151,179.4136 118.0044,169.4449 117.5053,159.4902 116.3187,149.2295 114.466,138.6226 112.0702,128.0538 109.2611,118.2837 106.2266,110.4381 103.3188,105.7461 101.281,104.9328 100.918,107.9038 102.6725,113.8887 106.5077,121.5477 112.0098,129.4363 118.6155,136.5244 125.5235,142.2154 131.7989,146.3233 139.4654,150.6913 140.0067,151.4114 109.1954,146.2453 100.0212,144.2619 93.2091,141.7734 89.982,138.6985 90.6747,134.7911 94.8501,129.8407 101.4987,123.9407 109.1915,117.6891 122.5331,107.7438 128.8596,104.114 129.5793,104.3202 129.751,107.2141 130.5649,108.8621 132.2007,109.8789 134.4899,109.9346 137.0941,108.9142 139.6542,107.0055 143.6351,102.4005 145.3159,99.5154 145.1739,99.2112 140.3226,101.0944 136.7536,101.7916 121.2663,103.7797 109.6394,104.6821 101.7437,104.5415 100.4554,104.7477 102.3917,107.7264 104.0134,110.9649 105.1489,115.2386 105.444,119.9605 104.7771,124.2846 103.268,127.4236 101.2858,128.9735 99.3403,128.9141 97.8768,127.328 97.1826,124.2148 97.3963,119.5596 98.5351,113.5655 100.5401,106.741 103.2761,99.8293 106.4581,93.8528 109.6962,89.9346 112.6484,88.8636 114.9174,90.7268 115.994,95.003 115.4042,100.8696 112.9906,107.1924 109.17,112.6393 104.902,116.2914 101.5061,117.7615 100.2451,117.0472 101.7697,114.1415 106.1043,109.2021 112.7903,102.9647 121.2373,96.7793 130.7744,92.1737 140.5135,90.1337 149.4441,90.8619 156.7408,94.0017 162.0338,98.8109 165.1944,104.2413 166.1415,109.1682 164.8468,112.8286 161.3374,114.8681 155.762,115.111 148.2277,113.6069 127.6859,107.1743 115.9085,103.8467 105.177,101.4588 97.8212,100.7172 95.6491,102.0744 98.9853,105.5797 106.9361,110.7108 117.8482,116.6435 130.0662,122.6313 142.5381,128.0703 155.3058,132.7732 168.3647,136.5935 181.6384,139.5835 195.0369,141.9526 208.5092,143.8573 235.5746,146.6699 249.1482,147.613 262.7436,148.1571 276.3496,148.2435 289.9473,147.7589 303.4835,146.3802 316.7752,143.4711 329.388,138.3673 340.6654,130.7547 350.0213,120.8756 356.8151,110.0652 361.0781,99.8722 362.8521,92.1499 362.2161,88.6574 359.4464,90.1822 354.9716,96.5614 349.3571,106.7332 343.2879,118.9109 337.5685,131.2568 332.3405,143.8186 327.8302,156.6556 324.2289,169.7766 321.633,183.133 320.0239,196.6438 319.2935,210.2305 319.342,223.8367 320.2225,237.4145 322.1209,250.8877 325.2739,264.1236 329.9283,276.9091 336.2382,288.9638 344.1904,300.0044 353.6549,309.7796 364.5,317.9964 376.4941,324.1969 389.4019,328.2358 402.8581,330.2514 416.4605,330.5755 430.0299,329.5738 443.4744,327.4818 456.723,324.3823 469.694,320.2732 482.3229,315.2095 494.6278,309.4026 506.6629,303.0553 518.3945,296.1632 529.6936,288.5827 540.4168,280.2076 550.5284,271.1033 560.1915,261.5244 579.0659,241.9216 588.2076,231.8439 596.4971,221.3655 601.8414,212.3423 604.4798,204.5192 604.7346,197.9277 603.0184,192.6138 599.7445,188.453 595.1457,185.2509 589.2975,182.8792 582.2263,181.2728 574.1132,180.1442 524.8773,174.5442 508.2195,173.1326 492.7026,172.6739 486.5574,171.2005 485.0697,170.23 484.4493,168.6783 485.0426,166.4869 487.1283,163.5354 502.37,147.39 509.534,138.5923 525.1156,117.0894 533.6969,106.5305 543.2346,98.1444 552.7714,94.3378 562.0285,95.4063 570.8768,100.9196 579.339,109.9048 587.3925,120.8716 602.4229,143.5567 610.2371,154.6954 635.2896,186.9199 643.4177,197.8316 658.8081,220.2717 665.9764,231.8366 672.3205,243.8734 677.0769,256.6212 679.178,269.4848 678.0499,280.5196 674.1802,289.7307 668.3181,296.971 661.3357,301.9053 653.9954,304.3284 646.8917,304.2282 640.4906,301.6815 635.2757,296.7617 631.6238,289.6272 629.5283,280.623 628.5735,270.3335 628.2319,248.1839 628.6762,236.7456 629.8041,224.9747 631.5768,213.0382 633.7654,201.192 638.706,178.2588 641.455,167.302 644.6323,156.713 648.5892,146.2926 653.7445,136.0165 660.4878,126.379 669.1913,118.1148 680.0388,111.8059 692.5886,107.6235 705.5364,105.3865 716.6578,104.7381 723.2724,105.2356 723.6359,106.4001 717.584,107.7304 706.5043,108.7912 692.911,109.3847 638.4948,110.3307 624.9025,110.9474 611.336,111.9879 597.8315,113.6487 584.4712,116.2245 571.409,120.0337 558.823,125.2032 546.7547,131.4871 523.1263,144.985 510.8715,150.8971 498.0857,155.5505 484.7943,158.461 471.2041,159.1227 457.726,157.2598 446.8333,153.1152 439.8498,147.5875 436.6574,141.4242 436.974,135.3673 440.5292,130.0748 447.1588,125.9188 456.6509,123.0167 468.543,121.3652 481.8914,120.9016 495.4854,121.4805 536.0524,125.9895 549.6315,126.8495 563.2354,127.1032 576.8391,126.8393 590.4247,126.0881 603.9651,124.751 617.4143,122.6895 630.7353,119.9177 657.2162,113.6508 670.6207,111.3158 683.1446,110.3614 693.216,111.0413 699.5024,113.2386 701.0537,116.6329 697.6871,120.867 689.8461,125.5009 678.6478,129.9906 665.6476,133.9242 652.4076,137.0597 639.0256,139.5201 625.5644,141.5022 598.5521,144.7915 584.9884,145.8667 571.3843,146.1102 557.8015,145.3108 544.3271,143.4207 531.0439,140.4732 518.0236,136.5231 505.3276,131.6298 493.0023,125.8664 457.3488,105.9984 444.8423,100.6394 431.5647,97.6667 417.964,98.0559 404.9098,101.8926 392.9219,108.3285 370.7924,124.1619 359.4674,131.7035 347.4808,138.1418 334.7763,143.013 321.5037,146.0078 307.9478,147.178 294.3466,146.8049 280.8539,145.0503 267.5736,142.0899 254.5565,138.1294 241.8277,133.3221 229.3824,127.8225 204.8006,116.1502 192.0569,111.3827 178.6647,108.9786 165.6297,110.2539 154.1519,115.2212 143.5951,122.9847 133.645,132.2653 124.212,142.0708 115.0646,152.1434 106.3153,162.5636 98.5616,173.7444 93.0867,186.2007 93.1299,196.3978 98.6731,203.8838 108.7005,208.6275 121.5109,210.7594 135.117,210.6906 148.5983,208.8501 161.7803,205.4788 174.569,200.8333 186.9759,195.2477 199.1142,189.1 235.0557,169.7511 259.2533,157.3033 271.5861,151.5558 284.1666,146.373 296.979,141.7931 309.9276,137.614 336.0598,130.03 349.3587,127.1541 362.8692,125.5426 376.4754,125.4935 389.9952,127.0254 403.2827,129.9535 416.2464,134.0855 428.7587,139.4309 440.6691,146.0093 451.988,153.56 484.992,177.5765 496.3127,185.1244 507.8341,192.3625 542.8747,213.2971 554.235,220.7855 565.2621,228.7564 575.9226,237.2112 586.1562,246.1781 595.9218,255.6525 614.4386,275.5904 623.2445,285.9627 631.5455,296.7435 638.812,307.5156 644.8112,317.6662 656.3977,338.8161 657.7025,342.6589 657.2614,345.8486 655.1069,348.7584 651.5706,351.3093 647.0739,353.2728 641.8524,354.6772 620.5564,358.1644 611.4706,359.9967 601.6895,362.6125 591.2618,366.1542 580.3242,370.7166 569.3549,376.461 558.8711,383.5353 549.2324,391.9467 540.6678,401.516 533.3055,412.0931 527.2389,423.6524 522.5848,436.1059 519.4418,449.2522 517.8567,462.7659 517.8289,476.3722 519.38,489.8898 522.5454,503.1228 527.1599,515.9227 532.9232,528.2481 539.4919,540.1638 560.2051,575.3354 566.6642,587.3108 572.7471,599.4816 578.3586,611.8769 583.2807,624.5617 587.1423,637.6085 589.5137,651.0066 590.0384,664.6028 588.5834,678.131 585.3412,691.3454 580.8561,704.1912 571.1724,729.6218 558.1497,768.3068 553.3621,781.043 548.1965,793.6307 526.5207,843.553 511.1757,880.9379 506.911,890.6337 503.1146,898.19 499.4708,904.3257 495.8101,909.7281 480.3784,929.7542 477.0953,935.2369 474.7881,941.4502 473.6397,948.3974 473.8129,955.9791 475.3873,964.1787 478.2624,973.194 482.1034,983.3552 491.7538,1007.3685 497.6646,1019.6239 504.5016,1030.0269 512.0239,1036.5652 520.0251,1038.0756 528.2223,1034.527 536.1691,1026.6396 543.1955,1015.6875 548.6826,1003.2367 552.6603,990.2248 555.5553,976.9301 562.1511,936.6483 564.7125,923.2853 567.7487,910.0221 571.3591,896.9035 575.6107,883.9785 580.4411,871.2585 585.6718,858.6978 596.857,833.8914 602.8324,821.6674 615.3771,797.5196 622.031,785.6513 629.0448,773.9921 636.5079,762.6152 644.6126,751.6861 652.0429,743.5931 659.1179,738.1257 666.174,734.9289 673.6793,733.7408 681.8454,734.3129 690.0446,736.2891 696.8877,739.1417 700.7768,742.2657 700.7109,745.1487 696.4216,747.3184 688.2213,748.3722 677.0128,748.1525 664.0747,746.7858 650.651,744.5645 637.3468,741.713 624.1577,738.3695 584.8431,727.3909 571.6497,724.0645 558.2998,721.4353 544.7825,719.8816 531.1818,719.4919 517.5944,720.208 504.117,722.0769 490.864,725.1571 477.9182,729.3451 465.2476,734.3037 415.4698,756.3046 402.8169,761.3081 390.0124,765.9099 377.0694,770.1064 363.9802,773.8216 350.7152,776.8503 337.2669,778.9174 323.6902,779.8154 310.088,779.4809 296.5782,777.8635 283.317,774.8188 270.4485,770.3991 257.9634,764.9904 233.6028,752.8656 221.6358,746.3909 209.9953,739.346 198.9328,731.4243 189.168,722.8421 182.8969,715.2575 180.0342,708.8213 180.2627,703.6684 183.1327,699.8618 188.2037,697.3668 195.123,696.0575 203.3662,695.7809 212.3,696.3589 221.4985,697.5588 240.4784,701.1636 271.8891,708.209 334.5218,718.0514 348.017,719.7864 361.5876,720.7719 375.1934,720.8936 388.786,720.2835 402.3384,719.0744 415.8153,717.2017 428.0684,714.7204 438.6365,711.7823 447.7186,708.6189 455.5458,705.4768 479.3057,695.0178 481.4625,694.3148 482.6197,694.3131 482.7207,695.1035 481.8025,696.4684 479.9039,697.9093 476.926,699.0207 472.5028,699.6816 466.0651,699.9322 457.2422,699.8002 446.1856,699.1702 433.5719,697.8183 420.2803,695.5744 407.046,692.4145 394.09,688.2585 381.5328,683.0194 369.4981,676.6713 358.0181,669.3678 347.0778,661.2782 336.6941,652.4856 326.7596,643.1885 297.7974,614.4249 269.2333,585.2663 260.0083,575.2647 251.1666,564.9228 226.0444,532.7516 208.9902,511.5463 200.9367,500.5795 193.4568,489.2136 186.6171,477.4514 180.4065,465.3452 174.7441,452.9731 169.4644,440.4329 159.5423,415.0944 150.4102,389.4613 146.4399,376.4472 143.0184,363.2781 140.0412,350.0015 129.8234,296.5456 126.8842,283.2605 123.47,270.0895 111.6742,231.0131 108.2061,217.8562 105.867,204.4525 105.4555,190.8524 107.5903,177.4146 112.2222,164.8426 117.9991,154.4793 134.4943,129.9695 122.5894,136.8915 111.5528,142.2795 101.3883,146.2963 98.1168,147.1418 97.1881,146.675 99.2309,144.5748 118.7456,129.3612 137.5539,112.9468 134.4035,115.0106 129.193,117.5958 121.2491,120.4499 110.6469,123.0264 98.2283,124.8662 85.9751,125.6788 76.6645,125.4119 72.8032,124.1614 75.3255,122.1073 83.7037,119.7439 96.0684,117.7451 109.6296,116.639 123.2336,116.3847 136.8351,116.7453 177.5473,119.6716 204.7241,121.0379 272.7167,123.3096 286.3214,123.5194 299.912,122.8656 313.3722,120.877 326.5354,117.4328 339.3437,112.8418 364.5091,102.4867 377.3151,97.8891 390.4835,94.465 404.0137,93.0278 417.5497,94.4091 430.415,98.8381 442.2083,105.6239 453.0693,113.8198 463.3317,122.7536 473.2451,132.0733 482.8793,141.6812 492.154,151.6368 500.9381,162.0276 509.0544,172.9482 516.2811,184.4767 522.2803,196.689 526.5379,209.612 528.4941,223.0769 527.8291,236.667 524.5609,249.8749 519.0345,262.3084 511.5948,273.7006 502.5661,283.5378 492.6286,291.144 481.9515,296.6727 470.6323,300.2832 458.6615,301.9516 446.0185,301.7436 432.81,300.0862 405.9656,295.6282 392.4452,294.1015 378.8676,293.2175 365.2679,292.7968 351.6619,292.8896 338.0781,293.6716 324.5672,295.2808 311.2025,297.833 298.1163,301.5591 285.5379,306.747 273.6713,313.4041 262.6193,321.3402 252.5215,330.4598 243.5375,340.6784 235.6952,351.7973 228.7044,363.4703 209.0002,399.2181 202.1469,410.9724 180.2938,445.4476 173.4922,457.2319 167.1726,469.2815 155.4471,493.8363 150.0637,506.3323 145.0556,518.9834 140.464,531.7916 136.4237,544.7841 133.2585,558.0172 131.5037,571.5098 131.6982,585.1147 134.0881,598.5095 138.478,611.3882 144.3654,623.6548 151.2446,635.394 158.698,646.7772 181.7617,680.4548 189.1162,691.9022 211.0254,726.3429 218.008,738.0209 224.3317,750.0683 229.8923,762.4865 234.783,775.1835 273.4354,891.3772 278.2184,904.1151 283.5928,916.615 289.7898,928.7281 296.9858,940.2758 305.2632,951.0747 314.6319,960.9418 325.0547,969.6881 336.4787,977.0788 348.8116,982.8261 361.9104,986.5076 375.4572,987.7777 389.0185,986.6714 402.2494,983.4975 414.9743,978.6798 427.1516,972.61 462.5633,952.3096 486.7139,939.7712 511.2936,928.0967 523.7925,922.7201 536.4909,917.8333 549.4313,913.6287 562.6225,910.2935 576.0299,907.9758 587.7528,907.0487 597.8603,907.3994 606.8168,908.8148 614.9603,911.0072 622.3999,913.7699 629.1997,917.0969 635.5468,921.1934 641.7195,926.2517 648.0796,932.4258 662.9449,948.0665 671.9728,956.7288 682.0752,965.3204 703.4432,982.17 712.4415,991.0926 717.3654,999.655 717.5323,1007.2968 713.2288,1013.4298 705.5173,1017.6254 696.1399,1019.6374 687.0362,1019.3201 679.6312,1016.6844 674.4786,1012.0401 671.5369,1005.966 670.3261,999.2659 669.862,983.1197 669.9407,979.7863 670.4085,977.1439 671.485,975.3173 673.469,974.625 676.4703,975.3167 680.1719,977.4245 683.9448,980.9485 687.0149,985.937 688.702,992.4714 688.5509,1000.488 686.4703,1009.7181 682.8182,1019.6577 678.2953,1029.3937 673.7486,1037.5124 669.9624,1042.3614 667.5352,1042.7366 666.823,1038.3123 667.933,1029.6106 670.6619,1017.9353 674.471,1004.9302 687.6706,966.3058 691.7719,953.3324 694.9626,940.1055 696.8716,926.6338 697.3709,913.0366 696.5536,899.4549 694.5354,885.9991 691.5277,872.7294 688.0097,859.9483 682.6168,842.7148 680.8628,838.1712 685.6828,854.6089 688.1356,864.9056 690.3142,876.6013 691.9602,888.8694 692.893,900.8565 692.9934,912.1267 692.2973,922.6404 689.9409,941.9558 689.5031,951.216 690.4256,960.3812 693.0663,969.4891 697.2252,978.6241 701.9483,987.9473 705.9217,997.387 708.0438,1006.2871 707.7566,1013.5206 705.0904,1017.9037 700.5937,1018.7525 695.4481,1016.0905 691.1135,1010.363 688.826,1002.2267 689.3648,992.3817 692.9654,981.4772 699.1625,970.0552 706.528,958.6148 713.4159,946.8807 718.1769,934.1346 718.9017,920.9398 714.9752,908.8497 707.1785,898.1177 697.0747,889.0049 685.9309,881.198 674.2414,874.2346 662.2205,867.8606 649.9821,861.9148 637.5745,856.3307 599.7507,840.9857 587.3225,835.4475 575.162,829.3441 563.3088,822.6632 551.7929,815.4164 540.5597,807.7387 518.4496,791.8748 496.4833,775.8127 485.6774,767.5445 475.0846,759.0049 464.7662,750.1357 434.946,722.2637 424.7196,713.2886 414.2147,704.6412 403.4675,696.2967 392.4636,688.294 381.1837,680.6851 358.0687,666.3276 322.4325,646.4242 310.7306,639.4818 299.3308,632.0537 288.2921,624.099 277.6944,615.5656 267.6583,606.3781 258.2588,596.5404 249.455,586.1662 241.1851,575.3615 233.4297,564.1819 226.1717,552.6731 219.3618,540.8936 199.9696,504.9771 192.5595,493.5656 185.6844,486.0013 179.8007,482.8199 175.0989,483.4474 171.6165,487.1739 169.1185,493.4616 167.1944,502.0093 165.5491,512.6036 158.5239,578.8001 156.4779,592.2517 153.9066,605.6128 150.8316,618.8671 147.2978,632.0065 135.0351,670.9388 131.3714,684.0425 128.2537,697.2868 125.7793,710.6663 124.0428,724.1613 123.1348,737.7373 123.1838,751.3435 124.394,764.8958 126.9375,778.2623 130.8699,791.288 136.1891,803.8114 142.8613,815.6695 150.7592,826.7489 159.6876,837.0161 169.3762,846.5693 189.2721,865.1343 198.7812,874.866 207.6473,885.1871 214.7743,895.3485 219.3712,904.8282 221.5663,914.0086 221.7492,923.296 220.411,932.9309 217.8545,942.7254 214.2644,952.2856 209.892,961.4094 205.0066,969.8736 199.8109,977.3318 194.3961,983.4062 188.8999,987.9589 183.5301,991.0354 178.396,992.6062 173.4751,992.6932 168.7337,991.6111 160.189,988.4077 156.5088,987.7133 153.1138,988.4013 149.8501,990.9043 146.5189,995.6132 142.9078,1002.6652 134.1366,1021.9574 128.8159,1031.9487 122.9829,1039.8749 116.8861,1044.0004 110.8702,1043.5017 105.3439,1038.5443 100.9189,1029.7421 98.2239,1018.0462 97.5702,1004.6874 98.7783,991.1349 101.3982,977.7832 108.4689,952.0423 111.2006,939.8516 112.5834,927.8916 112.5609,916.0847 111.4938,904.1768 108.1282,879.0354 106.9815,865.681 106.782,852.0761 107.5269,838.4902 109.1643,824.9828 111.6268,811.6012 114.7871,798.367 125.3504,758.9404 128.0084,745.5963 129.5354,732.0759 129.5672,718.4697 127.7601,704.9839 124.0128,691.9038 118.6971,679.3789 106.6268,654.9904 101.9263,642.2218 99.7998,628.7827 101.5151,615.2849 107.5,604.4715 116.8607,596.9323 128.212,592.2994 140.2477,590.1015 152.1522,589.9324 163.6269,591.3933 174.7111,594.2188 185.4018,598.2693 195.5727,603.4173 205.0626,609.5347 213.8193,616.5793 222.0465,624.8416 230.0137,634.5145 237.8068,645.2898 245.1648,656.735 251.8375,668.5927 257.8439,680.8015 263.331,693.2523 268.42,705.8711 273.0287,718.6731 289.409,770.5735 293.9613,783.3957 299.1076,795.9912 304.9358,808.2861 311.3974,820.2602 318.5309,831.8466 326.4634,842.9013 335.2222,853.3135 344.7875,862.9901 355.1277,871.8339 366.1349,879.8321 377.6874,887.0204 389.7416,893.3313 402.374,898.3865 415.5591,901.7455 429.0784,903.282 442.6827,903.0508 456.1557,901.1505 469.32,897.7107 482.0676,892.9536 494.3548,887.1093 506.122,880.2782 517.4078,872.678 528.3697,864.6177 549.7172,847.7443 559.9834,838.8147 569.7872,829.3798 579.0658,819.428 587.869,809.0533 596.2647,798.3461 604.2487,787.3285 611.7392,775.9697 618.7025,764.2802 625.2305,752.3421 641.8097,720.373 646.5761,713.1142 651.7136,707.7531 657.4499,704.3393 663.9995,702.8676 671.5534,703.2189 680.1219,705.1471 689.0966,708.2397 697.248,711.9991 703.1509,715.9768 705.7229,719.7459 704.6062,722.8542 699.9979,724.8136 692.7789,725.2234 684.3842,723.8444 676.2476,720.5432 669.2179,715.2316 663.4872,707.85 659.0766,698.4454 656.1379,687.2844 654.8419,674.8862 655.1452,661.822 656.7801,648.5108 659.4783,635.1747 669.9134,595.7136 672.6919,582.394 674.5358,568.9132 675.2816,555.3274 674.947,541.7252 673.768,528.1701 668.7641,487.6605 667.8893,474.0823 668.0004,460.4765 669.3344,446.9357 671.9836,433.5898 675.8874,420.5556 680.8669,407.8932 686.7049,395.6029 699.3617,371.5131 704.4024,358.9114 706.082,347.0023 703.8183,335.5686 697.9212,324.5984 689.576,314.1583 670.8145,294.4477 661.6563,284.385 653.1996,273.948 646.6895,264.0466 642.2373,254.4317 639.7811,244.8596 639.218,235.4205 640.1946,226.4134 642.3374,218.1298 645.5645,210.6705 649.9782,204.3016 655.6246,199.4832 662.248,196.6121 669.2275,195.766 675.698,196.7793 680.8031,199.5925 684.0147,204.337 685.2505,211.1548 684.7039,219.9451 682.7655,230.2998 677.3863,253.8135 675.1548,266.4305 673.8549,279.5115 673.8098,292.9623 675.2114,306.4962 678.1447,319.7826 682.5915,332.6417 688.2878,344.9982 701.1276,368.9912 706.6023,381.4475 709.6713,393.8805 709.5902,406.0787 706.3282,418.1325 700.204,429.7808 691.9268,440.5798 682.5126,450.4036 672.7041,459.8335 664.0509,468.6808 657.7188,476.7497 654.2563,483.9771 653.8851,490.396 656.6287,496.2171 662.364,501.7835 670.6963,507.4075 703.5832,525.6995 711.6505,532.0404 714.8206,538.2586 712.5696,544.1511 705.3716,549.55 694.3418,554.3882 681.4222,558.656 668.3578,562.4576 642.0672,569.4773 628.782,572.4162 615.3796,574.7625 574.8831,579.8731 561.6668,581.7354 548.5839,583.9999 535.3006,586.771 496.4399,595.7397 485.7993,597.556 477.2531,598.6024 470.9892,598.9818 467.0221,598.5413 465.1361,596.9582 465.0405,594.1253 466.5121,590.3405 469.3564,585.9036 473.4689,581.0205 478.8637,575.7923 485.4705,570.3234 493.1227,564.691 501.6173,558.9378 510.9617,553.437 521.2221,548.7072 532.2219,545.0052 543.7342,542.183 555.5708,539.9816 567.5185,538.4648 579.2849,537.9309 590.5547,538.6558 601.1288,540.7779 610.8535,544.409 619.4613,549.6972 626.5591,556.596 631.6387,564.6754 634.204,573.2083 634.0751,581.6332 631.4886,589.8896 627.0389,598.3183 615.3624,617.1212 602.5671,639.3734 590.1574,663.589 573.5275,700.8651 567.6034,713.114 561.1035,725.0674 546.9324,748.2971 539.5374,759.7184 531.8167,770.9221 523.559,781.7361 514.6054,791.9812 504.9623,801.5803 494.7767,810.6017 484.1743,819.1293 473.1572,827.114 461.6055,834.3036 449.4123,840.3414 436.5813,844.8688 423.2276,847.4784 409.627,847.8723 396.139,846.0817 383.0115,842.5042 370.3037,837.6417 357.9968,831.839 346.0819,825.2689 334.5586,818.0339 323.3815,810.2748 301.6935,793.8404 238.046,742.7167 217.2878,725.1222 208.0522,716.7862 200.6858,709.5894 194.9331,703.0876 190.3827,696.7381 186.6823,690.157 183.6591,683.2059 181.2226,675.8047 175.1413,651.4327 172.5183,643.5962 169.0768,636.1556 164.4322,628.7607 158.3712,620.9755 134.1657,593.5455 125.4902,583.0638 117.5967,571.9812 111.4737,560.062 108.6362,548.1312 109.2808,536.2902 112.9877,524.639 119.1731,513.245 127.0763,502.1835 152.8845,470.5609 160.8569,459.5349 168.0165,447.9646 174.1594,435.8239 179.1333,423.852 183.0947,412.508 186.203,401.5264 188.2817,390.3254 189.1334,378.3703 188.8515,365.5348 187.7338,352.1175 184.12,325.1483 176.9178,284.9715 174.1448,271.6508 170.8905,258.4394 166.9362,245.4204 162.1861,232.6702 156.6086,220.2595 150.1009,208.3104 142.5487,196.9925 134.0246,186.3872 106.0559,156.6628 98.2303,145.5322 93.1541,132.9082 92.3763,121.2048 95.294,112.0237 100.8813,106.9873 108.1294,106.9982 115.9547,111.9944 123.1151,121.1449 128.6599,133.0662 132.1391,146.2201 133.6733,159.7396 133.3331,173.3417 131.1553,186.7726 127.4347,199.8603 122.7113,212.6204 112.6014,237.8847 108.5204,250.8645 106.2541,264.2808 106.7947,277.8763 110.8262,290.8716 118.2156,302.2965 128.0703,311.6783 139.4747,319.0992 151.8995,324.645 165.0163,328.2618 178.5032,330.0601 192.0988,330.6001 232.9136,330.0946 246.5117,330.5684 260.0455,331.9712 273.4515,334.2969 286.7113,337.3481 299.8068,341.0413 312.7099,345.3588 325.4034,350.2586 337.8981,355.645 350.1915,361.4762 362.258,367.7636 374.1046,374.456 385.7471,381.4976 397.1628,388.9012 408.2803,396.7454 462.4297,437.927 494.5305,463.1398 526.9431,487.9486 537.189,496.9014 546.9145,506.417 556.2086,516.3543 565.2038,526.563 600.0405,568.3777 617.0141,589.6456 632.8363,611.7832 647.8444,634.482 654.7925,646.1805 660.5334,658.5164 664.1619,671.6299 665.2253,685.1946 663.9839,698.7442 660.9004,711.9965 656.3189,724.8082 650.4622,737.0896 643.5046,748.7824 635.5931,759.8522 626.9523,770.3626 617.8215,780.4502 608.3614,790.2296 598.6273,799.7364 568.5801,827.3644 558.8123,836.8366 549.3751,846.6382 540.3772,856.8445 531.9211,867.5041 523.9928,878.5618 508.7182,901.0831 500.8,912.1481 492.4824,922.916 483.6097,933.2314 474.0936,942.9563 463.9326,952.0054 453.1456,960.2984 441.7602,967.7485 429.8879,974.3953 393.5933,993.0728 381.1353,998.5437 368.1626,1002.6473 354.7723,1005.0624 341.194,1005.9336 327.5908,1005.6417 314.0298,1004.5317 260.0325,997.7419 246.4528,996.8927 232.8469,996.9996 219.2886,998.1414 207.6275,1000.1073 198.9849,1002.6131 193.6476,1005.3876 191.6545,1007.9857 192.6859,1009.9678 196.2885,1011.0315 202.0626,1011.0623 209.6115,1010.2064 239.0405,1005.5944 250.2657,1004.5046 261.8601,1004.4856 273.5243,1006.0204 284.9289,1009.208 295.6591,1013.8746 305.2813,1019.6033 326.0083,1035.6003 330.7462,1037.206 334.4798,1035.5087 337.1308,1030.2595 338.7502,1021.8566 339.2967,1011.0515 338.5847,998.666 336.4898,985.5362 333.0976,972.3595 328.6535,959.4995 323.3026,946.9895 317.2053,934.8259 310.6526,922.9014 296.8488,899.4514 289.2877,888.1394 280.9236,877.4076 271.7969,867.3162 252.96,847.6777 243.9536,837.4789 235.3896,826.9059 227.2924,815.9712 219.7115,804.6725 191.1893,758.3204 183.7868,746.904 175.9723,735.7655 167.7482,724.926 159.2313,714.315 150.4144,703.9519 141.0099,694.1189 130.6601,685.2864 119.2857,677.8195 107.1703,671.627 98.3097,667.755 96.4399,666.6353 124.6042,673.0452 137.7702,676.4786 150.7866,680.4415 163.5616,685.1245 176.0173,690.6007 188.0968,696.8631 199.8011,703.8014 211.185,711.2538 233.6348,726.6333 268.1999,748.3432 290.9185,763.3226 302.5094,770.4489 314.5526,776.7807 327.1313,781.968 340.2445,785.5977 353.7452,787.2901 366.0459,786.6555 377.1329,783.7591 387.0902,778.7393 395.8347,771.8371 402.9584,763.3128 408.1369,753.384 411.4974,742.2139 413.5922,730.0336 415.0483,717.1188 418.5087,676.6259 419.5836,663.0621 420.2679,649.473 420.1697,635.8671 419.2524,622.2917 417.6902,608.7754 415.6703,595.3199 410.4699,568.6113 403.9621,542.1906 400.0383,529.1623 395.3831,516.3772 389.9595,503.8985 383.9527,491.6899 358.0169,443.8433 338.9898,407.7304 332.3508,395.8538 311.0853,361.0129 304.3348,349.1993 291.6127,325.1444 279.5957,300.7303 274.0428,288.3087 268.8535,275.7308 264.0896,262.9858 259.9415,250.0272 256.7117,236.8098 255.2833,225.6678 256.1956,219.4965 259.2575,217.968 264.1049,220.2118 270.1857,225.2653 276.9541,232.3548 284.0614,241.0249 291.3953,250.9521 306.2615,273.2466 313.4113,284.8229 327.1629,308.3044 333.6864,320.2449 339.84,332.3802 345.6045,344.705 350.9461,357.2189 355.8112,369.9257 368.8536,408.6036 373.7726,421.2896 379.1341,433.7951 409.8543,501.8775 412.9919,507.3304 415.944,510.3325 418.5147,511.0495 420.2724,509.668 420.9496,506.3158 420.6856,501.0698 415.2781,462.3553 411.2608,436.0527 402.1615,382.3937 399.4108,369.0684 395.8257,355.9429 391.0168,343.2147 384.557,331.2397 375.9278,320.7198 366.3825,314.4293 356.8194,312.6441 347.7451,314.6168 339.6054,319.5948 332.7729,326.9442 327.4471,336.1568 323.4518,346.766 316.4418,370.0135 312.2122,381.9775 307.0796,394.0904 300.9455,406.2335 293.9542,417.9062 286.2556,429.1251 278.0587,439.9852 260.7598,460.9896 242.6676,481.3153 214.9845,511.3119 197.1323,531.849 188.5365,542.3962 180.3175,553.2396 172.5895,564.4382 165.361,575.9656 151.4414,599.3486 143.9837,610.729 136.3757,621.1066 127.6789,631.9721 126.919,633.5941 128.4849,633.088 132.1369,630.5427 137.3979,626.094 143.876,619.8778 169.1464,593.5851 179.1905,584.4065 189.8768,575.9842 201.1397,568.3501 212.8299,561.388 224.864,555.039 237.169,549.2323 249.6632,543.8445 262.3147,538.8376 275.132,534.2715 288.1185,530.2116 301.2524,526.6574 333.896,519.0347 339.375,517.4171 342.3041,516.0824 343.1931,514.8178 342.3551,513.2565 339.8686,511.1522 335.7453,508.4177 330.0876,505.1211 322.9731,501.5131 314.4415,498.0189 304.5229,495.1577 293.2933,493.2418 280.9035,492.3726 267.6035,492.5692 254.0412,493.662 240.5386,495.3389 213.6264,499.3692 186.7922,503.8892 173.4333,506.4721 160.1667,509.4934 147.9774,512.8838 136.8208,516.6657 126.9915,520.868 119.1026,525.4896 113.6785,530.558 110.7599,536.267 110.0315,542.9333 111.0406,550.8631 118.529,582.0481 120.792,594.4904 122.462,607.7168 123.4818,621.2848 123.898,634.8847 123.7453,648.4902 122.9949,662.0758 120.466,689.1701 117.528,716.2229 115.4573,729.6707 112.8807,743.0308 104.3448,782.9472 99.2349,809.6741 97.3768,823.153 96.4959,836.7307 97.1966,850.319 99.9271,863.6485 104.4017,875.2453 110.126,885.2381 122.2034,901.407 126.7194,907.961 129.1562,913.6261 128.9845,918.4877 125.788,922.4701 119.3658,925.4343 110.1089,927.3758 83.1598,930.1468 82.2153,930.7305 86.6681,931.2464 95.6612,931.7147 121.4024,932.169 135.005,931.8502 147.173,930.8525 156.5536,928.735 162.8203,925.1761 166.1231,920.2507 166.9789,914.4217 166.0386,908.1239 163.8409,901.4547 160.7497,894.383 156.975,886.7999 147.6302,869.5799 141.8434,859.9198 134.9319,849.8773 126.6296,839.8266 117.0446,830.1695 97.1942,812.9959 90.8145,806.669 89.3014,802.416 93.0026,799.9533 101.3323,798.7423 113.0032,798.5229 126.3742,799.2785 139.8774,800.9499 153.2442,803.4919 166.4081,806.9332 179.257,811.4096 191.7071,816.8984 203.8013,823.1322 227.3754,836.723 250.4414,851.159 272.705,866.8026 305.2401,891.4526 326.6652,908.2296 358.2279,934.1133 368.9189,942.5296 412.6164,974.972 423.9899,982.4402 435.9086,989.0035 448.2939,994.3458 459.6657,997.7376 470.3287,999.4362 480.1475,999.6642 488.5573,998.9608 502.1607,996.5668 503.4289,996.6697 503.4964,997.7663 502.5068,1000.399 493.9407,1020.5022 489.3004,1030.0577 483.8662,1039.2176 477.8491,1046.3351 471.5276,1049.8247 465.1503,1048.7576 458.9886,1042.9541 453.3181,1033.073 448.2814,1020.6599 439.0592,995.0586 433.6189,982.5872 427.2801,970.5477 420.1218,958.9766 412.3491,947.8089 387.8374,915.1696 371.8891,893.1202 363.6536,882.2893 328.9173,840.3929 320.4833,829.7159 312.541,818.6682 305.102,807.2755 276.9982,760.6689 269.5587,749.2765 261.56,738.2696 252.8512,727.8155 243.3112,718.114 232.9011,709.3526 199.6196,685.7259 189.1005,677.0958 179.1165,667.8517 169.696,658.0341 160.912,647.6431 152.7388,636.7651 145.1114,625.4977 138.0466,613.8694 131.4703,601.9578 125.2749,589.8438 119.487,577.53 108.997,552.4229 104.2585,539.6683 100.2384,526.6695 97.5417,513.3331 96.6123,499.7586 97.665,486.1931 100.7925,472.9511 105.8735,460.3291 112.54,448.4678 120.3467,437.3239 128.9443,426.7782 138.0721,416.6879 175.4934,377.171 193.4309,356.7088 210.6189,335.6127 243.8344,292.4991 252.4628,281.9786 261.6177,271.9128 271.5309,262.593 282.086,254.0069 314.8179,229.6192 325.4385,221.1142 335.5587,212.0195 344.9434,202.1677 353.3842,191.496 359.6604,181.1401 362.784,172.2253 362.8138,164.4188 359.8597,157.3823 354.2314,150.7997 346.5654,144.4939 337.5246,138.3732 327.5065,132.3131 305.0981,119.6147 293.0144,113.3603 280.4894,108.0447 267.3461,104.5256 253.7637,103.7197 240.3564,106.0385 227.7617,111.1867 216.3201,118.5502 206.0314,127.4538 196.6049,137.2656 179.0085,158.0203 170.6916,168.7888 162.8777,179.9276 155.6216,191.4377 148.8499,203.2391 142.4517,215.2473 136.4558,227.4612 131.0484,239.9468 126.3929,252.7319 122.5528,265.7851 119.6189,279.0713 117.6153,292.5293 116.4462,306.0852 115.8907,319.6802 115.6058,346.891 116.111,374.0968 120.1589,428.3692 120.7989,441.9605 121.0063,455.5652 120.8345,469.1704 119.4885,523.5778 119.941,550.7853 121.1781,577.9692 123.2107,605.1046 124.7468,618.6239 126.7595,632.0805 129.2148,645.4635 132.0932,658.7618 135.4495,671.9477 143.414,697.968 147.0805,711.071 150.0327,724.3532 152.2821,737.7723 153.9687,751.2736 155.1044,764.8325 155.5131,778.4326 154.9789,792.0284 153.4528,805.5489 151.1774,818.9636 145.682,845.6148 133.6199,898.6862 131.0115,912.0402 129.4048,923.3367 128.8141,932.6418 129.0493,940.6465 130.6857,956.1282 131.1061,964.7625 130.5755,974.4451 128.9114,985.4683 126.1444,997.8579 122.4738,1010.9597 118.2166,1023.3878 113.8056,1033.0717 109.7207,1038.0976 106.4552,1037.6091 104.5037,1031.9612 104.2158,1022.3646 105.6446,1010.425 108.4044,997.4738 115.1563,971.1122 118.0832,958.0183 120.3232,944.9186 121.7663,931.6003 122.3632,918.0084 122.1484,904.4038 121.256,890.972 118.8428,864.1406 118.2059,850.5492 118.1494,836.9431 118.6573,823.3462 119.7033,809.7802 122.9946,782.7688 127.0597,755.8626 129.7821,742.5314 133.3953,729.4137 137.9629,716.5969 143.3153,704.0876 149.1973,691.8184 155.4262,679.7216 168.5825,655.9017 182.6438,632.6059 190.1883,621.2828 198.2783,610.3428 207.2391,600.1039 217.4392,591.0989 228.9512,583.8461 241.4969,578.5794 254.688,575.2437 268.2023,573.6649 281.8085,573.7363 295.2919,575.5608 308.3825,579.2711 320.8434,584.7354 332.6588,591.4828 344.0098,598.9852 355.0843,606.8901 376.7607,623.3404 408.7634,648.6782 429.9867,665.7102 450.8108,683.2266 501.0126,729.1352 511.4324,737.8851 522.2581,746.1274 533.5359,753.7394 545.2501,760.661 557.3561,766.872 582.2267,777.9115 594.8182,783.0676 607.5849,787.7732 620.6341,791.6268 632.9357,794.0585 641.9401,794.4556 647.6552,793.0102 650.3674,790.0627 650.5737,785.9804 648.96,781.1029 643.2557,770.0458 629.2701,745.1692 625.8388,740.7112 622.0958,737.893 617.7054,736.5602 612.4305,736.4271 606.0836,737.3225 598.4085,739.1926 578.8975,744.825 567.6597,747.6024 556.0362,749.7855 544.3386,751.1619 532.5803,751.3467 520.5986,749.9754 508.2799,746.9587 495.7737,742.4252 483.4608,736.6351 471.6668,729.8504 460.3158,722.348 449.2516,714.4288 427.6946,697.8231 406.7276,680.4781 396.5653,671.4304 386.7958,661.9601 377.6513,651.8848 370.1864,641.7459 365.6293,632.5279 363.7729,623.8238 364.2776,615.4106 366.7796,607.1299 371.0068,598.9197 376.8575,590.8721 384.4237,583.3074 393.7809,576.553 404.7703,570.6996 416.9589,565.506 442.3078,555.6089 454.8406,550.3117 479.4522,538.7068 491.5051,532.3935 503.318,525.6416 514.836,518.3983 525.9765,510.5866 536.5447,502.0166 546.1626,492.3924 554.2572,481.4557 560.1734,469.203 562.814,457.4393 562.2666,447.1868 558.7751,438.9207 552.4709,432.8662 543.6253,428.8599 532.9454,426.5262 521.1813,425.4525 508.7424,425.3235 495.7669,425.9158 482.3724,427.1405 468.8931,428.9954 428.5853,435.4224 415.0664,436.9622 401.5043,438.0575 387.9137,438.7121 374.309,438.9162 360.7054,438.6429 347.121,437.871 333.5819,436.5209 320.1376,434.4274 306.8798,431.3677 293.9256,427.2058 281.3738,421.9538 269.3423,415.5999 258.0774,407.9687 248.0637,398.7569 239.9486,387.8355 234.1901,375.5079 230.6855,362.3607 228.9499,348.8655 228.5636,335.2647 229.2598,321.6762 230.914,308.1708 233.4858,294.8098 237.0283,281.6728 241.5757,268.8489 246.9834,256.3633 253.1487,244.234 260.0218,232.4913 267.5082,221.1297 275.3605,210.0179 319.1768,149.7685 322.9054,145.9382 325.7816,145.0283 327.9141,146.9694 329.2885,151.8506 329.9225,159.573 329.9464,169.7111 328.7111,194.6415 326.0896,221.6701 322.4537,248.6381 320.0884,262.0372 316.8811,275.2601 312.677,288.2006 307.6419,300.841 302.0205,313.2317 295.8584,325.3627 289.2118,337.2351 268.2481,372.2589 261.6847,384.1775 255.7038,396.3988 250.3624,408.9128 231.3969,459.9244 210.1435,510.0245 205.4669,522.8018 201.2516,535.7387 197.4092,548.7912 190.8878,575.2082 172.0485,668.5684 169.6038,681.9533 165.7069,708.8837 163.0701,735.9659 162.024,754.368 161.3402,758.2006 159.8853,759.0031 157.3878,757.2215 153.9087,753.21 149.7982,747.4356 145.457,740.3114 118.9625,688.2828 99.7153,652.2871 93.918,639.9776 89.3238,627.1704 86.5818,613.8432 86.2064,600.2421 88.4772,586.8266 93.4218,574.1506 100.7463,562.684 109.9416,552.6551 120.4747,544.0421 131.8729,536.6116 143.7749,530.0182 155.948,523.9397 180.7085,512.6525 205.703,501.8934 218.4101,497.0294 244.3137,488.6984 283.487,477.2263 309.4508,469.0829 335.0348,459.8136 398.2006,434.5489 410.7055,429.1861 422.9838,423.3233 434.9068,416.7678 446.317,409.3558 457.0627,401.0094 467.0514,391.7705 476.2374,381.7331 484.569,370.976 492.0092,359.5841 498.7733,347.7783 511.7835,323.8773 525.4284,300.3345 532.8197,288.9108 540.7377,277.8458 549.1301,267.136 557.9283,256.757 576.3883,236.7659 585.997,227.1323 615.7535,199.1918 625.3837,189.5798 634.3972,179.7717 642.4584,169.9874 656.2495,151.4223 662.676,143.5055 669.0599,137.1654 675.1371,132.8664 680.4392,130.7584 684.6056,130.6484 687.5802,132.2755 689.3974,135.2276 689.9615,138.778 689.0603,141.8041 686.6863,143.287 683.3459,142.7381 679.9852,139.9141 677.5208,134.632 676.3782,126.7215 676.5353,116.2742 677.7921,104.0515 680.0203,91.9119 683.0692,82.6076 686.5913,78.673 689.9249,81.059 692.1055,89.2229 692.2657,101.3231 690.1346,114.7615 686.0537,127.7414 680.4377,140.1346 673.6961,151.9533 666.1643,163.2849 642.304,196.402 634.8915,207.8119 627.9874,219.5364 621.5812,231.5403 603.432,268.102 597.1495,280.171 577.5829,315.9941 558.6156,352.1382 551.9353,363.9916 544.7632,375.5541 522.4509,409.7332 515.4556,421.4036 508.8745,433.3124 502.8536,445.514 497.4564,458.0041 492.5994,470.6298 481.3214,503.8632 477.1041,513.9282 471.6815,523.3555 464.5954,531.4823 455.5981,537.6879 444.7209,541.873 432.2447,544.4222 418.7564,545.8703 405.168,546.5681 364.3519,546.9029 323.5343,546.6009 309.9286,546.7358 296.3409,547.4472 282.8237,549.0013 269.4469,551.4897 256.2459,554.786 230.1458,562.4871 216.9548,565.8229 203.5136,567.936 189.9121,568.2976 176.4092,566.6235 163.3463,562.8164 151.7367,557.1694 141.7163,550.0982 133.3358,541.9044 126.7355,532.7112 121.6404,522.5347 117.5725,511.3697 114.23,499.2886 105.8328,460.1684 102.6878,447.0231 99.1047,433.897 91.2422,407.8451 88.1903,394.5855 86.8579,381.0446 87.64,367.4607 90.2493,354.107 98.1106,328.0572 101.7292,314.9409 104.1987,301.5606 105.1766,287.9895 104.649,274.3934 102.8754,260.9032 94.5477,220.9456 92.9618,208.0877 93.1517,195.8858 95.5259,184.3827 100.1275,173.4142 106.5166,162.7596 121.1146,140.99 127.3965,129.5182 132.0787,118.5052 134.8603,109.3913 135.7145,103.6837 134.7625,102.3257 132.101,105.524 127.9992,112.8563 123.037,123.2166 117.842,135.2962 113.0224,148.0203 109.1652,161.0684 106.8926,174.4836 106.5733,188.0861 107.9066,201.6269 110.296,215.0218 115.9104,241.6485 117.9175,255.1059 118.9424,268.6735 119.7178,336.6984 119.1163,418.3324 118.27,445.5314 115.9859,499.9086 115.1908,513.4916 113.8541,527.0321 111.4671,540.4274 107.6731,553.494 97.3395,578.6657 92.9274,591.5368 90.6526,604.9516 91.2603,618.5443 94.9119,631.6514 101.3392,643.644 109.7693,654.3241 119.2709,664.0632 158.5166,701.7691 168.0024,711.5236 177.1537,721.5927 185.7991,732.0992 193.7086,743.1704 200.5571,754.9276 205.1484,766.0119 207.1399,775.8871 206.7109,784.6909 204.0712,792.4675 199.4307,799.1774 192.988,804.7411 184.9845,809.0028 175.7746,811.829 165.8824,813.4343 155.762,814.1312 145.5117,814.0759 134.8589,813.3869 123.8065,812.1718 113.2046,810.5168 104.8303,808.4006 100.6018,805.7695 101.3889,802.6666 107.0412,799.2256 116.6503,795.5921 154.8555,784.1186 180.7774,775.8403 206.3346,766.4971 231.6893,756.6156 256.7278,745.9599 306.4849,723.9085 318.7282,717.9728 330.78,711.6573 342.5532,704.8366 352.8104,697.9232 360.8453,691.2152 367.0924,684.7925 372.1086,678.7975 376.1044,673.2051 379.0483,667.7637 380.8606,662.1748 381.5448,656.354 381.2321,650.5826 380.0848,645.3211 378.1649,640.8182 375.4937,637.0431 372.1635,633.8364 368.3109,630.9745 352.2452,620.7303 344.9268,615.5998 337.0895,609.2752 329.0184,601.6883 311.7356,583.5802 292.6647,564.3626 272.732,545.8396 252.3353,527.8259 242.3937,518.5364 232.8136,508.8744 223.6827,498.7869 215.0444,488.2744 206.8363,477.4228 191.1616,455.1789 176.2291,432.4321 169.5926,420.5541 164.0994,408.106 160.0805,395.1068 157.5786,382.0482 156.1612,368.6689 154.5752,327.8825 153.4999,314.3188 151.5364,300.8549 148.354,287.626 143.6429,274.8613 137.2835,262.8326 129.5099,251.9418 120.8579,242.4315 104.9229,226.5869 100.3036,219.8475 99.345,213.6221 102.3821,207.4905 109.1585,200.9881 140.1436,178.1682 150.1137,169.4899 159.2098,160.192 167.6763,150.2292 192.2198,117.9295 201.4065,107.8927 211.0718,100.7943 220.8391,98.2138 230.5275,100.346 240.0612,106.6987 249.2984,116.077 257.853,126.6576 274.3987,148.2621 300.076,179.9919 308.2148,190.8956 331.567,224.3742 339.6144,235.3456 348.012,246.0512 356.9307,256.3269 366.4916,266.0078 376.6545,275.0547 387.3229,283.4997 420.6076,307.1262 452.7932,332.229 463.8648,340.138 475.5057,347.1822 487.8504,352.904 500.8534,356.9108 514.2955,359.0182 527.8977,359.3497 541.4574,358.2241 554.8834,356.0166 568.1612,353.0449 581.2823,349.4435 594.2208,345.2334 606.9211,340.3514 619.2867,334.6747 631.2375,328.1702 642.7177,320.867 653.5995,312.6989 663.6643,303.543 672.6356,293.3133 680.1757,281.9873 685.8039,269.5996 688.8925,256.3485 688.9249,242.8841 686.0491,230.1757 681.042,218.2215 662.8117,185.5216 658.4424,175.2392 655.5913,164.9892 653.8118,154.6392 647.5803,107.6678 646.551,103.3989 645.3052,102.117 643.8728,103.3988 642.4472,106.638 641.2291,111.2135 639.071,125.4597 638.7939,129.947 639.814,129.711 646.3673,124.2383 652.3809,120.1926 660.3999,116.3662 670.5499,113.3266 682.6967,111.3371 696.0152,110.5085 708.6333,110.9329 718.1396,112.5457 722.4768,115.094 720.9167,118.1707 713.7463,121.3291 702.2647,124.172 688.8425,126.4028 675.3276,127.9773 648.1753,129.7495 620.9756,130.5761 552.9465,130.8793 539.3472,130.4449 525.7757,129.4712 512.258,127.921 498.802,125.9042 458.6535,118.5421 445.1757,116.676 431.6014,115.744 417.9957,115.6194 377.1922,116.7277 363.586,116.7528 349.9963,116.0794 336.4789,114.5271 323.0728,112.2014 296.4237,106.6924 282.9966,104.4913 269.4331,103.4133 255.8386,103.9807 242.4618,106.4691 229.5533,110.7705 217.1992,116.4721 181.5817,136.4059 169.5436,141.9275 158.8324,145.2688 149.0281,146.4366 139.4752,145.7437 129.7821,143.4449 120.1397,139.5143 111.3081,133.829 104.3188,126.2845 99.95,116.9294 98.2581,105.9937 98.7454,94.376 100.8883,84.1353 104.3492,77.7885 108.8424,76.8931 113.8843,81.3399 118.778,89.783 122.7921,99.9859 125.3659,109.4514 126.2803,116.1495 125.5998,119.0311 123.3785,118.1497 114.2796,108.6714 107.7457,102.9294 100.5673,98.7267 93.5022,97.4891 87.5923,99.884 84.0208,105.7933 83.5648,114.3473 86.3077,124.2515 91.7139,134.2428 98.8099,143.47 112.6114,157.9402 116.7073,162.7667 118.0082,165.9293 116.3841,167.5083 111.9596,167.5797 105.2843,166.2073 97.6056,163.5153 90.6691,159.6375 86.2256,154.6372 85.4473,148.5163 88.6059,141.4026 95.2381,133.6912 104.2658,126.0064 114.2217,119.1443 123.5614,113.9798 131.1015,111.2407 136.1938,111.252 138.548,113.8746 138.0591,118.5716 134.6399,124.4602 128.4134,130.4416 119.8265,135.5783 109.8386,139.361 100.2201,141.5243 93.2423,141.94 90.7036,140.5317 92.9712,137.2346 99.4201,132.1544 108.9737,125.7934 120.3448,119.1956 132.2608,113.7944 143.6646,110.931 154.0228,111.4253 163.3198,115.5094 171.5707,122.8447 178.5943,132.6305 184.2035,143.8878 188.431,155.7893 191.5323,167.9106 193.7745,180.2004 195.3684,192.6103 197.763,217.5219 199.4032,229.9356 201.611,242.346 204.3949,254.9227 207.7035,267.7981 223.3881,319.9125 227.0003,333.0305 230.126,346.273 232.6662,359.64 234.6737,373.0974 239.08,413.6757 243.1658,467.9456 247.9337,522.161 249.7582,549.3116 250.5312,576.5112 250.1428,590.1119 248.8089,603.6527 246.3103,617.0276 242.5923,630.116 237.7122,642.817 231.7435,655.0443 224.8195,666.7571 217.1096,677.9682 208.7528,688.7058 182.3394,719.8254 174.0375,730.6055 166.332,741.8196 159.3486,753.4945 153.1,765.5811 147.4627,777.9647 142.3837,790.5875 137.9394,803.4475 134.2227,816.5363 131.2977,829.8245 129.2125,843.27 128.1293,856.8332 128.1277,870.4395 130.8759,911.1628 130.8021,924.7689 129.7362,938.3334 127.6171,951.7736 124.2752,964.9632 119.7472,977.1564 114.058,988.8734 107.6115,1000.4064 101.0198,1011.2259 95.005,1020.0733 90.3524,1025.5249 87.746,1026.6255 87.5512,1023.1631 89.7503,1015.3971 103.1502,978.7623 132.4444,888.1357 136.2896,875.084 139.4074,861.8398 141.6276,848.4158 143.1389,834.8937 144.2713,821.3346 145.7093,794.1618 145.8839,780.5566 145.6447,766.9524 144.8616,753.3686 143.3261,739.8493 140.9633,726.4497 137.9036,713.1919 134.3957,700.0455 118.7404,647.9222 115.2802,634.7632 112.7016,621.4035 111.3044,607.8691 111.3203,594.2628 113.1488,580.7799 116.9593,567.7181 122.3164,555.2108 134.905,531.0857 140.8663,518.8549 145.7528,506.1563 148.9003,492.9191 149.8689,479.3473 148.5348,465.8065 144.9331,452.6856 139.0866,440.3994 131.1146,429.3732 121.3625,419.8849 110.4273,411.7884 91.6815,400.1944 88.8327,397.5153 91.6672,396.8313 99.7433,397.779 111.5551,400.0263 124.7571,403.3185 137.6944,407.5324 150.2492,412.7774 162.3525,418.9936 173.9908,426.0421 185.2192,433.7268 207.207,449.7598 218.536,457.2955 230.3307,464.079 242.5649,470.0335 255.1354,475.2407 267.9526,479.8067 280.9658,483.7801 294.1358,487.1982 307.4072,490.1985 414.0732,511.8877 440.8559,516.7055 454.1766,519.479 467.3194,523.0001 480.1924,527.4064 492.709,532.7418 504.7958,538.99 516.3843,546.1201 527.4152,554.0857 537.7649,562.9183 547.1481,572.7716 555.3795,583.6056 562.4273,595.2443 568.3502,607.4938 573.2898,620.1718 585.606,659.0868 590.2381,671.8804 595.6916,684.346 602.2143,696.2869 610.0293,707.425 619.266,717.1203 629.033,723.6733 639.4774,727.0136 650.7159,727.2788 662.7305,724.6933 674.959,719.4588 686.2189,711.8204 695.041,702.1188 699.8347,691.1522 699.9936,679.6234 695.9275,667.976 688.8248,656.6394 680.2841,646.0476 671.2177,635.9021 643.3636,606.0644 614.6923,577.0123 604.8474,567.6203 584.5347,549.5139 563.5656,532.1718 552.7597,523.9035 519.7687,499.8692 509.276,491.2071 499.4958,481.7477 490.8458,471.2449 483.8575,459.5703 479.492,447.7595 477.7467,436.2113 478.3678,424.877 481.1874,413.5685 486.0626,402.1536 492.7883,390.7942 501.0529,379.9855 510.4721,370.1666 520.7897,361.2965 531.6974,353.163 542.9474,345.51 566.0414,331.1202 601.8268,311.4878 613.2128,304.0386 623.5618,295.2051 632.4104,284.8691 639.4552,273.2286 644.4994,260.5918 647.3584,247.2893 647.9294,233.695 646.3248,220.1836 642.7575,207.0533 637.2473,194.6127 629.8856,183.1699 621.0655,172.8096 611.3856,163.3633 560.3657,118.3617 549.6168,110.0195 537.8706,103.1524 524.8886,99.0782 511.2878,98.6919 498.0213,101.7138 485.6051,107.2789 474.1424,114.6094 463.5802,123.1868 453.7801,132.6256 435.2453,152.5496 425.8095,162.3525 416.0958,171.8802 366.1026,218.0186 356.3379,227.494 346.8991,237.294 337.8086,247.418 329.0656,257.8435 320.725,268.5936 305.1803,290.9266 290.6644,313.9423 270.4237,349.3866 251.5198,385.5637 244.9138,397.4587 223.9573,432.4864 216.6622,443.9718 208.8544,455.1149 200.3424,465.7299 191.1597,475.7703 162.0202,504.3532 152.6886,514.2553 144.0053,524.7306 136.441,536.0404 130.4564,548.2599 126.4466,561.262 124.7844,574.7663 125.5717,588.3498 128.5296,601.6307 133.1613,614.4244 139.1746,626.6298 146.4447,638.131 154.6967,648.9493 163.5981,659.2399 172.8893,669.18 182.4824,678.829 221.7197,716.5451 231.9797,725.4818 242.912,733.5764 253.5466,740.0641 263.9038,745.149 274.0926,748.9879 284.4141,751.6801 295.3422,753.4575 307.2539,754.5315 320.1628,754.9413 333.714,754.6465 347.282,753.6272 360.7832,751.9392 374.2064,749.7145 400.8379,744.1309 414.0228,740.771 427.0717,736.9166 452.8957,728.3348 465.9473,724.4894 479.2213,721.5009 492.6927,719.5896 506.2857,718.9884 519.8559,719.9787 533.1589,722.8354 545.8853,727.649 557.7452,734.3179 568.5168,742.6308 578.0724,752.3169 586.2749,763.1729 592.9611,775.023 598.0271,787.651 601.3992,800.8328 602.9341,814.3523 602.5036,827.9518 600.0893,841.3422 595.9243,854.2953 590.6111,866.8213 568.6814,914.5449 563.0224,926.0973 557.0717,937.1416 550.8143,947.1554 544.2297,955.7977 537.3642,963.22 515.7143,983.488 507.72,990.2185 498.9677,996.5238 489.3664,1002.1251 478.9902,1006.8882 467.9702,1010.5698 456.3788,1012.7404 444.2072,1013.2073 431.4373,1012.1101 418.1796,1009.8345 404.9284,1006.7462 391.8264,1003.0763 352.8342,991.0036 339.721,987.374 273.7305,970.8415 260.6552,967.0774 247.7006,962.917 234.9257,958.2336 222.4355,952.8368 210.4103,946.4708 199.1157,938.8837 188.8916,929.9061 180.1113,919.5119 173.1337,907.831 168.2511,895.1309 165.576,881.7902 165.1441,868.1907 166.8644,854.6936 170.5555,841.5975 176.0892,829.1674 183.273,817.9938 191.9115,808.3144 201.863,799.8495 212.8801,792.2351 224.5711,785.2744 236.5539,778.8288 261.0171,766.9138 273.5087,761.52 286.2769,756.8187 299.3743,753.1323 312.7405,750.5875 326.2547,749.0068 339.8336,748.1438 353.4377,747.8976 367.0372,748.3284 379.3244,749.5686 389.6967,751.7208 398.0241,754.8851 404.2278,759.1159 408.2508,764.3858 409.8153,770.542 408.743,777.3693 405.1471,784.7023 399.4203,792.6525 392.0691,801.4254 365.3684,831.2871 347.5989,851.8958 339.1099,862.5291 331.0743,873.5091 323.4715,884.7931 308.9198,907.7874 295.1856,931.2784 277.2847,963.2669 271.7864,972.3536 259.6732,990.5667 253.0687,999.8921 246.1458,1008.9407 239.0615,1016.8304 231.953,1022.4449 224.7857,1024.897 217.3803,1023.9836 209.5631,1020.0293 201.3116,1013.6744 183.2711,997.2182 173.5233,988.7476 163.3921,981.0351 152.8686,974.639 141.9387,969.9352 130.9531,967.2456 120.8517,966.8073 112.959,968.7217 108.5693,972.7716 108.4097,978.3701 112.486,984.9954 120.2282,992.2678 130.5831,999.6212 142.383,1006.3957 154.7845,1011.9934 167.7605,1016.0867 181.1643,1018.425 194.7532,1019.1127 208.3535,1018.7068 262.6528,1015.0281 276.2573,1014.8073 289.8499,1015.4175 303.3678,1016.9662 316.7606,1019.3671 356.3965,1029.1116 369.8179,1031.3465 383.404,1032.0876 396.9693,1031.0312 410.2726,1028.176 423.1709,1023.844 435.6867,1018.5069 447.9249,1012.5605 484.2184,993.8814 496.4956,988.016 533.7392,971.3112 545.9066,965.2213 557.6763,958.3945 568.8636,950.6502 578.6613,942.2344 585.9503,933.695 590.8377,924.4923 593.5237,914.0793 594.2262,902.3719 592.9526,889.764 589.6241,876.8889 584.4777,864.2934 578.1022,852.2732 570.9409,840.704 563.094,829.5884 554.4323,819.3346 544.9933,810.8095 534.4396,804.152 522.7268,799.1702 510.1009,795.2506 496.9739,791.8596 483.7031,788.8565 470.3407,786.2922 443.4846,781.9015 430.1313,779.2898 416.9423,775.9461 404.0006,771.7456 391.3936,766.6274 379.214,760.5621 367.5721,753.5195 356.631,745.4311 346.6085,736.2288 337.7082,725.9373 329.7915,714.8712 314.9376,692.0702 307.152,680.9116 298.634,670.3014 289.0938,660.6001 278.4073,652.1781 266.6143,645.3916 253.8814,640.5953 240.5489,637.8791 226.9805,636.8651 213.378,637.1879 199.872,638.8372 186.6336,641.9798 173.8451,646.6258 161.5609,652.4763 149.7142,659.1688 138.1585,666.3518 126.8315,673.8904 115.8907,681.9794 105.8133,691.1214 97.578,701.9524 92.6529,714.6361 92.4208,728.0089 96.8301,740.4445 104.5574,751.6436 113.8032,761.6259 152.9258,799.4589 162.2624,809.3563 171.2263,819.5926 179.8035,830.1548 187.9034,841.0876 195.264,852.531 201.6049,864.5695 206.7224,877.1767 210.3702,890.2849 212.3906,903.7403 212.8453,917.339 212.0253,930.9206 210.2265,944.4075 207.549,957.7477 203.8296,970.8358 198.9285,983.5287 193.2562,995.3554 187.3184,1006.2765 181.4709,1016.2645 175.8982,1024.7138 170.6078,1030.7855 165.4883,1033.8345 160.3891,1033.6878 155.3917,1030.413 150.7884,1024.2653 146.7713,1015.9651 139.705,998.3002 136.166,991.6682 132.885,987.3707 130.2959,985.2379 128.6114,984.9511 127.6368,986.4155 124.5408,1002.8721 122.2596,1012.4462 119.1982,1023.4066 115.6989,1034.3418 112.3133,1042.8972 109.6886,1046.7447 108.3983,1044.9554 108.7784,1038.0108 110.8621,1027.3885 114.3747,1014.8901 118.9701,1002.0833 130.0075,977.2117 135.017,964.5612 138.15,951.6199 138.8725,938.2905 137.2752,924.7782 133.7666,911.6321 128.862,898.9405 117.6383,874.1505 113.0781,861.3311 111.1527,850.1682 112.0708,841.1079 115.5344,834.2875 120.9537,829.6635 127.3565,827.0875 133.7188,826.3271 139.3381,827.051 144.112,828.7145 148.2032,830.8111 151.6306,833.1602 154.4395,835.7322 156.725,838.5062 158.5602,841.3891 159.9329,844.3504 160.7818,847.4652 161.0782,850.8677 160.6685,854.7958 159.2816,859.536 156.763,865.2614 143.8771,889.0907 138.2389,898.9195 131.6586,908.9135 123.9987,918.6251 107.9813,937.2867 102.3434,946.5626 99.8137,955.775 100.7647,964.8064 105.015,973.6495 111.9544,982.5258 129.8144,1001.8023 138.3542,1012.3949 145.5997,1023.9116 150.5934,1035.3577 152.6425,1043.7743 152.4034,1047.4247 150.7788,1045.8403 148.3594,1039.5103 134.6082,990.8698 125.8594,965.104 115.8714,939.7932 99.3996,902.4456 94.2612,889.8468 89.9658,876.9364 87.784,865.7898 87.9046,856.4227 90.2875,848.7964 94.372,842.4938 104.3337,831.6612 108.7219,826.3269 111.8575,820.5755 113.3517,814.0317 113.315,806.4901 112.1795,797.9543 106.3148,768.2852 105.1133,757.9892 104.7714,747.601 105.2938,737.0732 109.6962,704.3658 110.5479,692.4686 110.6156,679.9386 110.0927,666.9084 108.4087,639.9541 107.3665,626.3877 104.4966,599.3278 101.0279,572.3374 94.8693,531.9862 93.2242,518.4797 92.2715,504.9068 92.2661,491.4372 93.3152,479.1725 95.2859,467.5413 100.5682,443.6687 102.936,431.2159 104.718,418.9756 107.4257,387.6125 108.4399,379.3488 112.1919,359.7037 112.867,353.7114 112.7008,347.3138 111.4975,340.1803 104.601,312.4111 102.593,300.7536 101.4038,288.1371 101.3213,274.8878 102.4152,261.3256 104.7125,247.9146 108.2562,234.7779 112.9536,222.0082 118.5726,209.6163 137.3247,173.3612 142.909,160.9537 147.5851,148.1762 151.0634,135.022 153.1812,121.5815 153.9918,107.9994 153.5236,98.3006 152.1443,95.5446 150.2686,99.6745 148.2633,109.3602 146.3638,122.2633 143.4841,149.3209 142.6096,162.8991 142.1889,176.4989 142.1819,190.1052 143.1932,244.5205 142.9145,271.7305 141.4645,298.9025 138.5551,325.9566 134.6714,352.8902 132.3862,366.3032 129.5503,379.6107 125.7239,392.6679 120.6735,404.2847 115.6605,410.6319 110.8665,412.5403 106.6167,410.9201 103.2956,406.5609 101.2352,400.0519 100.5487,391.7298 100.8312,381.7281 102.9455,343.6099 104.2265,330.064 106.1068,316.5883 111.2643,289.8714 117.1537,263.3039 119.4246,249.8885 120.416,236.3183 119.6709,222.7325 117.0664,209.3778 112.7298,196.481 107.0156,184.1328 94.2251,160.1141 89.3837,147.3983 88.1042,135.7711 90.9753,127.3466 97.4398,122.9469 106.4529,123.026 116.5851,127.5129 126.2534,135.8596 134.2307,146.882 139.8491,159.2742 142.8911,172.2305 143.3164,185.2962 141.2252,198.2273 136.8211,210.8239 130.6435,222.947 109.0952,257.6111 103.1185,269.8345 100.0602,281.389 100.7641,291.5024 104.8872,300.4676 111.6811,308.6347 120.2869,316.2275 129.8559,323.3493 158.6116,343.0862 168.0654,350.0638 177.6563,357.6161 187.2947,365.7728 226.7172,402.154 257.8813,428.5149 297.8217,465.4837 308.129,474.3658 319.1257,482.3785 331.0733,488.8889 343.9151,493.3856 357.3215,495.7094 370.9261,495.9218 384.3878,493.9434 397.235,489.4621 408.8423,482.3627 418.6996,472.9837 426.455,461.8041 431.8402,449.3088 434.7715,436.022 435.6026,422.4411 434.7739,408.8601 432.4608,395.4519 428.8728,382.3271 424.3167,369.5064 419.0845,356.9463 413.2405,344.6589 406.7829,332.6826 378.9154,285.935 372.2985,274.046 366.0442,261.9623 360.2631,249.6453 355.176,237.0257 351.155,224.0271 348.5715,210.6683 347.7153,197.089 348.8031,183.5263 351.9065,170.2786 356.8575,157.6051 363.2072,145.5713 370.6268,134.166 379.1807,123.5847 389.1305,114.3039 400.7661,107.2509 413.9388,103.8435 426.9633,105.129 439.1719,110.5575 449.964,118.8437 459.2606,128.7788 467.381,139.6962 474.6431,151.2024 481.3532,163.0391 500.6037,199.0333 513.8621,222.7971 520.7987,234.5025 528.196,245.9223 536.2277,256.9051 545.0398,267.2723 554.892,276.6566 566.023,284.4818 578.3862,290.1634 591.5894,293.4509 605.1642,294.3761 618.7007,292.9995 631.8486,289.4974 644.3149,284.0456 655.8941,276.9005 666.611,268.5172 676.625,259.3056 686.0496,249.492 694.7029,238.9919 701.9962,227.5054 706.5916,215.3826 707.3653,203.8868 704.5308,193.4653 698.8941,184.3747 691.8111,176.5704 679.3615,164.1861 676.0465,159.6404 675.105,156.2616 676.3066,153.9213 679.258,152.315 693.018,148.7415 696.4845,147.6249 697.967,146.7952 697.1626,146.4133 694.1722,146.4149 683.4401,147.2253 661.7307,150.282 654.662,150.3148 648.5981,148.6924 643.6115,145.1493 639.2964,139.9549 630.5423,127.2922 625.5268,121.1903 620.0661,116.0234 614.1806,112.4923 607.8436,111.2684 601.0495,112.6659 593.826,116.6145 586.1418,122.761 549.0867,158.268 539.4535,167.877 530.3645,178.0023 522.0073,188.7396 514.4432,200.0495 507.6016,211.8106 501.2887,223.8638 489.4097,248.3462 478.3074,273.1888 473.3945,285.8771 468.9365,298.7324 460.3796,324.5646 442.4561,375.9536 438.3031,388.9106 434.7971,402.0574 432.2023,415.414 430.68,428.9348 430.3198,442.5364 432.8624,483.2723 432.7054,496.8777 431.3204,510.4133 428.5399,523.7325 424.1415,536.6082 418.0338,548.7667 410.3333,559.9842 401.3299,570.1858 391.3002,579.3801 380.4655,587.6105 369.0132,594.9574 333.5484,615.1643 322.0323,622.4107 310.8121,630.1075 299.9929,638.3583 289.7194,647.2794 280.0469,656.8488 270.896,666.9182 262.1793,677.3657 253.9328,688.1882 246.1908,699.3772 209.3932,756.5962 202.463,768.3054 196.0721,780.3173 190.1157,792.5506 179.0229,817.3979 174.0871,830.0774 169.9239,843.0311 166.6815,856.2454 164.2592,869.6344 158.5109,910.0451 155.8357,923.3858 152.27,936.5166 147.5194,949.2667 141.6332,960.2676 135.216,967.9691 128.6978,972.345 122.769,973.4962 118.0452,971.6364 114.7336,966.9795 112.5811,959.8135 111.1862,950.4942 110.2761,939.4429 108.5149,900.7363 107.6392,887.1582 106.3194,873.6161 101.2362,833.116 100.2973,819.5422 100.526,805.9378 102.4716,792.4713 106.368,779.4348 111.9766,767.0383 118.7997,755.2664 126.3413,743.9414 141.9531,721.6526 149.3329,710.2215 155.9889,698.3544 161.5938,685.9561 165.7622,673.004 168.0935,659.5989 168.3362,646.4165 166.7106,633.6662 163.5516,621.1021 159.1433,608.7127 153.6537,596.5834 147.1371,584.755 139.8938,573.2369 117.1902,539.3147 109.863,527.8498 103.1857,515.9946 98.1196,503.3667 95.9244,489.9386 97.1988,476.3921 101.3116,463.4223 107.0755,451.0972 120.2106,427.2651 126.5174,415.2087 132.0445,402.7756 136.2165,389.8246 138.3579,376.3879 137.8099,364.221 134.7406,353.5258 129.6701,344.2429 123.3726,336.3465 116.8362,329.8996 107.8747,322.1173 107.1292,320.8306 108.8316,320.7974 124.4713,324.0296 128.592,324.5329 128.577,323.7028 127.3052,321.8734 118.3172,311.8161 114.6208,307.1692 111.1384,301.4915 108.1437,294.6926 105.8285,286.9533 104.2949,278.4424 103.5893,269.2511 103.7309,259.5269 104.6933,249.7721 106.2882,240.4653 111.4549,215.9095 112.3657,208.6711 112.3707,201.8234 111.2524,195.3369 109.0412,189.2609 105.7727,183.6853 101.6651,178.7008 94.0881,170.5503 92.6507,166.9854 93.7086,163.3314 97.5553,159.2112 121.4054,141.7473 129.6241,135.0497 136.4094,128.8999 149.1586,116.5917 142.7313,117.9838 136.1428,118.2456 127.0253,117.6306 115.7453,115.9371 103.5343,113.2148 92.6269,109.7264 85.7009,105.8824 84.7478,102.2491 90.176,99.4198 100.9133,97.8104 114.5167,97.5321 128.0948,98.409 141.5735,100.2675 154.897,103.0275 168.0441,106.5324 194.1748,114.1239 207.6048,116.307 221.195,115.6444 233.608,111.1038 242.3602,103.0525 247.7516,92.5606 250.2473,81.9483 250.5375,74.4679 249.3017,72.695 247.0336,77.215 244.0613,87.1137 227.6636,152.9891 223.9501,166.0788 219.6677,178.9937 214.7995,191.6992 209.4905,204.2271 198.355,229.0569 186.99,253.7824 168.916,290.381 163.1482,302.7043 157.7854,315.2092 148.0291,340.6117 134.237,379.0287 130.1509,392.0069 126.7567,405.1831 124.3819,418.5805 123.2704,432.1413 123.5333,445.7451 125.0359,459.2682 129.6702,486.0828 131.6262,499.5478 132.5506,513.1227 131.7354,526.7045 128.6734,539.9618 123.5279,552.5469 116.9578,564.4619 102.679,587.6266 96.7096,599.8535 93.2126,612.1642 93.0527,623.2221 95.7218,632.7608 100.0183,640.8073 108.8561,653.3436 111.9986,658.6021 113.7786,663.9645 113.9917,670.113 112.6443,677.5531 109.8945,686.5799 101.6145,709.3689 97.2713,722.2634 93.6855,735.3887 91.4204,748.8051 91.0548,762.4065 92.8568,775.8929 96.5156,788.9981 106.1659,814.4413 110.4154,827.3669 113.1105,840.7037 113.4272,854.3063 110.9518,867.6855 105.9962,880.3572 99.6873,891.4153 89.0468,906.1058 87.3862,909.3321 89.1905,910.1267 94.3072,908.7753 101.9441,905.432 110.9557,900.1438 120.1726,892.8486 128.553,883.4869 135.2651,872.1637 139.9489,859.4468 142.7183,846.1253 144.072,832.5865 144.5377,818.9882 144.4743,791.776 144.0244,764.5675 142.6836,737.3893 140.1431,710.2975 138.3727,696.8069 136.1739,683.3794 133.2602,670.0888 129.2285,657.0935 123.8681,644.5876 117.2882,632.6781 94.5909,598.758 90.3897,588.6744 90.658,579.9802 95.455,572.4078 104.096,565.9085 115.5277,560.5049 128.4201,556.1558 141.5534,552.5992 154.8156,549.5588 168.1949,547.0834 181.6877,545.3298 195.1025,544.4518 207.1244,544.6166 217.8096,545.8827 227.211,548.2405 235.3569,551.5887 242.1824,555.9025 247.5679,561.1901 251.4555,567.3878 253.9462,574.4166 255.2504,582.1639 255.5675,590.4252 255.16,598.9713 254.3151,607.75 251.6092,627.561 247.0354,651.6908 243.98,664.768 236.9217,691.0467 232.7031,703.9825 227.9108,716.7169 222.5405,729.2186 216.5949,741.4571 210.0439,753.3825 202.9058,764.9661 195.2572,776.2191 170.8258,808.9177 163.1052,820.1215 156.0001,831.7253 149.7674,843.8201 144.6816,856.4402 141.0657,869.5572 139.2832,883.0462 139.5672,896.6495 141.9084,910.0529 146.0979,922.9982 151.8412,935.3329 158.8352,947.004 166.8767,957.9797 175.7515,968.2932 194.4987,988.0179 203.1432,998.5253 210.769,1009.7938 217.5113,1021.6121 223.1453,1032.2565 227.3317,1039.1011 230.5238,1041.2093 233.3422,1038.7311 236.3364,1032.3503 239.932,1023.2884 244.4337,1013.1481 249.9997,1003.453 256.5529,995.4213 263.8158,989.9251 271.5734,987.4365 279.7923,988.0083 288.5148,991.44 297.7707,997.4237 307.4843,1005.4808 327.3811,1024.0454 337.4226,1032.0679 346.7576,1036.7294 355.0509,1036.987 362.163,1032.7312 368.0554,1024.4004 372.7455,1012.9751 376.2969,999.8645 379.0673,986.5433 384.0245,959.7864 390.6128,919.5029 393.0964,906.1252 398.9106,879.5429 402.3955,866.3904 406.4201,853.393 415.5292,827.7505 419.711,814.8028 423.0198,801.6049 425.3676,788.2027 430.113,747.6614 432.0606,734.1952 434.5625,720.821 437.7003,707.5814 441.342,694.4715 449.3968,668.4792 453.7604,655.5916 463.3949,630.1438 468.7223,617.6238 474.4794,605.2955 480.7377,593.2139 487.4708,581.3903 494.6047,569.8042 502.2002,558.5152 510.4449,547.6914 519.4889,537.5259 529.3247,528.1244 538.059,521.0445 544.4082,516.7307 548.025,514.7897 548.8799,514.7697 547.1468,516.3598 543.0603,519.3035 509.7774,540.5066 486.9312,554.0435 475.0573,560.6874 462.9711,566.9369 450.5609,572.5153 437.8394,577.3418 424.8667,581.4453 411.6887,584.8323 398.3276,587.4037 384.8057,588.9168 371.2008,589.111 357.6527,587.8538 344.3009,585.2341 331.2171,581.4997 318.4549,576.7822 306.1638,570.9459 294.6699,563.6644 284.3893,554.7514 275.5104,544.4414 267.7537,533.2626 260.6761,521.642 254.0766,509.7434 248.0239,497.5574 242.6501,485.0573 237.9146,472.3017 221.7734,424.0416 213.4903,402.6495 208.7191,391.514 203.3297,380.0249 197.2657,368.2887 190.6327,356.4887 183.6161,344.8312 176.2621,333.3835 153.0534,299.8059 144.962,288.867 136.2867,278.3851 126.811,268.6208 116.4923,259.7519 106.797,253.098 99.2886,249.5679 94.7036,249.2077 93.0809,251.5556 93.9598,256.1399 96.8173,262.7923 106.4306,281.8809 111.9618,293.7333 117.0831,306.339 121.3676,319.2531 124.6017,332.4695 126.4073,345.9554 126.4147,359.5617 124.574,373.043 121.0316,386.18 116.0314,398.8343 109.9705,411.0161 103.456,422.9615 97.2806,435.0857 92.3872,447.7816 89.9267,461.1636 91.2215,473.5442 96.3293,483.0652 104.1805,489.7374 112.9967,493.7937 120.977,495.6258 126.9292,495.779 130.4121,495.0545 131.4689,494.1208 130.2588,493.1979 126.7257,492.2524 95.2413,486.7689 95.1677,486.3911 98.9616,486.4846 106.0798,487.09 125.4659,489.7799 135.0009,491.8153 143.1413,494.0936 158.3367,498.9256 154.343,497.4495 151.8099,495.8617 149.2036,493.7063 146.5138,490.7692 143.6669,486.7793 136.9504,475.5179 132.2877,468.8117 113.2587,445.3314 107.5025,436.3166 103.4619,426.7692 101.7402,416.8912 102.546,407.0262 105.8646,397.4179 111.4448,388.1209 118.6349,379.1527 126.6233,370.6694 134.7955,362.9001 150.2965,349.0631 156.9545,342.1209 162.6419,334.6852 167.5421,326.7505 180.8055,301.0569 186.2109,292.1332 192.8446,282.9875 200.7987,273.6597 209.8445,264.172 248.4863,225.8461 257.9391,216.0596 267.0416,205.9464 275.5814,195.3538 283.4878,184.2804 306.1284,150.3174 322.114,128.2971 330.7342,117.7699 340.3292,108.1227 350.838,100.8167 360.0587,98.8316 367.9385,102.2507 374.5254,110.5247 379.8202,122.2529 383.7685,135.2737 386.8627,148.5235 392.0338,175.239 394.0898,188.6891 395.5279,202.2192 396.2726,215.8051 396.494,229.4096 396.2259,256.6202 395.7278,270.2174 394.815,283.793 393.3412,297.3193 391.1476,310.2469 388.1096,321.7628 384.0902,331.8152 378.9394,340.3238 372.3848,347.3972 364.1958,353.1746 354.3504,357.6093 343.0717,360.4237 330.6588,361.4507 317.4416,360.8573 303.9634,358.9946 290.6709,356.0891 277.6938,351.9993 265.2761,346.4377 253.709,339.273 243.1656,330.6724 233.588,321.008 224.8049,310.6163 216.6696,299.7099 209.1024,288.402 202.0661,276.7563 195.5196,264.8285 189.346,252.7033 177.5168,228.1966 166.1889,203.4547 160.909,190.9146 156.0364,178.2107 151.707,165.3115 146.1116,145.1369 143.7359,138.275 140.6113,133.3649 136.4108,130.4583 131.272,129.6957 125.6272,130.8905 120.0388,133.3249 111.8174,137.7128 110.1695,138.0319 110.1241,136.231 112.9252,123.8024 114.7391,113.0289 116.279,100.5641 118.5472,76.62 118.3196,88.5061 117.6666,101.0089 113.0473,155.2359 112.3294,168.8232 112.4441,182.429 113.6871,195.9784 116.0365,209.3804 122.116,235.9051 124.5775,249.2869 125.7194,262.1986 124.7429,271.3678 121.6082,276.7681 116.7037,278.8819 110.7957,278.4076 104.8972,275.8973 100.3417,271.7397 98.3096,266.2613 99.191,259.8347 102.4171,252.9604 111.0094,239.3678 114.364,232.4966 116.547,225.0199 117.3798,216.6552 116.7184,207.3798 114.5763,197.3066 111.2179,186.6107 102.9594,164.2041 99.4671,152.7366 97.5024,140.8309 97.6399,128.3431 100.0212,115.6932 104.3196,104.2418 109.8039,96.0929 115.563,93.0444 120.7449,95.5409 124.6672,103.094 127.0102,114.4618 127.9137,127.9195 127.7682,141.525 126.9636,155.1075 125.6408,168.6494 123.8609,182.1388 121.6791,195.569 111.0834,248.9502 109.1472,262.418 107.8966,275.9667 107.2467,289.5575 107.143,303.1634 107.7444,316.7564 109.1256,330.2924 112.7917,357.2568 114.0288,370.8068 114.595,384.4013 114.4819,398.0071 113.7523,411.5938 108.1999,465.7333 105.9758,492.8537 105.3614,506.4461 105.3593,520.0524 106.2159,533.6317 107.9648,547.1252 112.7195,573.9191 114.7189,587.3777 115.9034,600.9323 115.9259,614.5386 114.5891,628.0791 111.9008,641.4171 108.1052,654.4833 99.0558,680.147 95.2486,693.2098 93.2039,706.6616 93.7325,720.2576 97.2155,733.4105 103.4389,745.5101 110.79,754.6263 120.5771,763.5155 120.4344,764.8172 98.7931,766.766 87.2395,768.4137 76.816,770.5861 70.4503,773.0167 70.0649,775.2025 75.872,776.5613 86.7189,776.8351 100.309,776.1704 113.8568,774.9101 127.353,773.1832 140.7727,770.9374 154.0697,768.0528 167.1796,764.4111 180.0497,759.996 192.7049,754.9984 217.6345,744.0904 229.9531,738.3125 254.2137,725.9889 266.1292,719.4199 277.8528,712.5142 289.3663,705.2636 323.3269,682.6178 364.6533,655.6174"/>
  </g>
</svg>
