<?xml version="1.0" encoding="utf-8" ?>
<svg xmlns="http://www.w3.org/2000/svg" xmlns:cc="http://creativecommons.org/ns#" xmlns:dc="http://purl.org/dc/elements/1.1/" xmlns:ev="http://www.w3.org/2001/xml-events" xmlns:inkscape="http://www.inkscape.org/namespaces/inkscape" xmlns:rdf="http://www.w3.org/1999/02/22-rdf-syntax-ns#" xmlns:sodipodi="http://sodipodi.sourceforge.net/DTD/sodipodi-0.dtd" xmlns:xlink="http://www.w3.org/1999/xlink" baseProfile="tiny" height="29.7cm" version="1.2" viewBox="0 0 793.7007874015749 1122.5196850393702" width="21.0cm">
  <metadata>
    <rdf:RDF>
      <cc:Work>
        <dc:format>image/svg+xml</dc:format>
        <dc:source/>
        <dc:date>2022-05-22T14:21:10.966283</dc:date>
      </cc:Work>
    </rdf:RDF>
  </metadata>
  <defs/>
  <g fill="none" id="layer1" inkscape:groupmode="layer" inkscape:label="1" stroke="#00f" style="display:inline">
    <polyline points="386.4781,604.0695 380.7685,600.6592 378.4383,598.6226 376.4586,596.3578 374.8288,593.8557 373.5472,591.1045 372.6119,588.0917 372.0208,584.8043 371.8657,577.3632 373.0815,568.7241 375.6961,558.8951 379.7623,547.9494 385.3423,536.0001 392.502,523.1993 401.298,509.7404 408.9909,499.3543 417.6266,488.8438 427.1934,478.3357 437.665,467.9728 449.0005,457.9163 461.1393,448.3423 469.6369,442.3188 482.9094,433.9609 492.0481,428.9195 506.0653,422.2806 515.5279,418.5374 525.0034,415.387 534.4134,412.863 548.2169,410.3114 557.0758,409.4644 565.5457,409.3167 573.5265,409.8749 580.9183,411.1392 584.3628,412.0345 590.6909,414.345 596.1992,417.3351 600.8098,420.9825 604.4573,425.2588 605.9034,427.6219 608.0155,432.7736 609.0675,438.4553 609.0506,444.6177 607.9723,451.207 605.8528,458.1659 602.7242,465.4349 596.2346,476.7864 590.7886,484.5647 584.518,492.4434 577.4895,500.3676 565.6778,512.2292 557.0597,520.0557 543.1899,531.5802 533.4145,539.0744 518.1274,549.9673 507.6158,556.9668 491.5237,567.0319 464.3035,582.5643 437.2158,596.4801 421.2576,604.0541 405.6162,611.0547 375.3878,623.4167 346.452,633.8604 314.2993,644.1806 255.2934,661.8375 238.2417,667.5358 229.7913,670.9021 223.9417,673.92 221.3368,675.9568 220.4592,677.2036 220.2652,678.3568 221.2319,679.8977 224.7739,681.5605 230.7016,682.7153 238.7391,683.3003 248.546,683.2685 256.8244,682.8246 268.7342,681.6713 278.0617,680.3959 290.6521,678.178 299.9768,676.1535 317.691,671.2768 325.8772,668.471 333.538,665.4449 340.6541,662.2093 347.2325,658.7704 355.2168,653.8739 362.3961,648.6286 368.8865,643.0504 376.2003,635.6581 381.5412,629.4639 387.7552,621.4562 407.6803,593.1027 416.7321,581.1079 425.6095,570.7022 435.8705,560.3272 447.679,550.2701 458.6909,542.3964 465.7683,537.9879 473.1564,533.8686 486.0305,527.7529 499.3648,522.7135 512.8285,518.9047 526.0586,516.5438 536.2146,515.8702 543.4431,516.1475 548.0247,516.7213 556.4857,518.8096 562.0975,521.1751 565.4293,523.1103 568.3938,525.3139 570.9558,527.768 573.0805,530.4533 574.7346,533.3501 576.2675,538.0483 576.5888,543.1149 575.6416,548.4962 573.3994,554.1521 569.8673,560.0592 565.077,566.2119 559.0797,572.6213 551.9449,579.3139 540.8122,588.7465 498.808,621.6422 478.8991,637.7506 462.5502,651.6452 450.2193,662.5888 437.9395,673.9036 421.7906,689.4039 365.7247,746.2777 355.6632,756.0105 346.0898,764.6695 334.1763,774.1753 325.9396,779.5442 318.3407,783.2613 311.4102,785.2506 307.1786,785.6009 303.2713,785.1726 299.7,783.9764 298.0441,783.0956 294.999,780.7825 292.3182,777.7569 289.0012,771.9551 287.2703,767.3014 285.4075,759.252 284.6578,753.2431 284.2662,743.3943 284.4826,736.3501 285.4928,725.2048 286.6004,717.4693 288.8685,705.5439 291.8087,693.3869 295.3615,681.1598 302.513,661.0062 307.4891,649.2391 311.08,641.5885 316.8691,630.4598 320.9944,623.2989 329.8785,609.6615 337.0902,600.0743 342.154,594.0027 347.4167,588.1937 355.6675,579.9864 364.3161,572.4144 370.2862,567.7393 382.6869,559.3527 392.3789,553.9729 399.0237,550.8523 405.8118,548.1232 412.7383,545.7998 419.7966,543.8931 426.9781,542.411 434.2722,541.3571 441.6659,540.7307 449.1435,540.5269 456.6842,540.738 464.262,541.3542 471.8456,542.3644 486.8823,545.5147 494.2522,547.626 504.9939,551.4188 515.2189,555.9134 521.6709,559.2716 527.7791,562.8999 533.5021,566.7822 538.8017,570.9026 543.6426,575.2463 547.9933,579.7989 551.8264,584.5472 556.5558,592.009 559.0029,597.1932 560.8702,602.5319 562.1497,608.012 562.8371,613.6179 562.9322,619.3311 562.4377,625.1304 561.3587,630.9915 559.7044,636.8878 557.4896,642.7904 554.7349,648.6688 551.4662,654.4909 547.7138,660.2233 543.5124,665.8322 538.8995,671.2832 533.915,676.5422 528.6005,681.5762 522.9982,686.3531 511.0972,695.0182 501.7208,700.6369 495.325,703.9212 488.8519,706.8139 482.3314,709.2992 475.7906,711.3644 469.2542,713.0005 462.745,714.2017 456.2844,714.966 449.8929,715.2952 443.5904,715.1942 437.3969,714.6712 431.3323,713.7367 425.4164,712.4035 419.6658,710.6858 414.094,708.599 408.7108,706.1597 398.5342,700.294 389.1551,693.235 382.6333,687.2492 374.5842,678.4696 367.2255,668.9149 360.5103,658.7172 354.3991,647.9713 348.8545,636.7332 343.8344,625.0276 339.2847,612.8569 332.2343,590.3925 324.1161,558.9284 291.9254,423.5642 288.4778,406.6415 288.1817,402.8324 288.664,402.1604 290.295,404.1759 293.088,409.4144 312.0993,449.6656 324.5494,474.8764 334.1869,493.4173 344.7853,512.9293 359.1733,538.2007 374.5712,563.9872 390.7795,589.9632 407.6736,615.9962 428.6424,647.1564 449.9961,677.6568 471.0365,706.3529 490.7129,731.6261 507.7839,751.6715 519.1469,763.2168 524.4552,767.586 527.308,769.3784 529.5897,770.2617 530.5121,770.3622 531.9148,769.8863 532.7239,768.5194 532.9394,766.2814 532.5647,763.1977 531.6061,759.2989 527.9717,749.2 522.1316,736.3152 516.4018,725.065 507.1507,708.3149 496.3265,690.0048 484.2651,670.6062 461.2749,635.3022 417.6167,570.0094 376.3126,507.1727 361.6402,485.6547 349.2961,469.0361 341.0732,459.5726 337.12,455.9646 334.9071,454.4474 333.035,453.6453 330.8627,453.7751 329.8322,454.7369 328.8949,457.4578 328.6625,460.0975 328.8771,465.2414 330.6572,476.7592 334.123,491.5686 339.245,509.1941 344.5819,525.0019 351.104,542.085 358.9126,560.2619 365.6781,574.5357 373.2715,589.3291 381.733,604.6443 391.0945,620.4937 401.3692,636.8643 412.5424,653.7077 424.5724,670.9357 437.393,688.418 450.9164,705.9798 465.0359,723.4014 479.6269,740.4206 489.5443,751.3969 504.573,767.0701 514.6019,776.8482 529.4785,790.2611 539.1663,798.2256 553.1309,808.478 561.9251,814.0636 570.1936,818.5671 577.8389,821.9318 584.7659,824.1147 587.9313,824.7539 593.6128,825.1187 598.3664,824.266 600.3751,823.3863 602.1294,822.2076 603.6239,820.7334 604.8541,818.9676 606.509,814.5809 606.93,811.9713 606.9571,805.9525 606.5651,802.5579 604.9799,795.0382 602.3461,786.6018 598.6945,777.3214 591.3934,761.9841 582.0409,745.1758 570.8103,727.1481 553.2443,701.6184 543.483,688.3518 527.7854,667.9678 510.9949,647.1176 493.2986,625.8854 409.9203,529.2947 348.6664,457.7761 313.7753,417.911 292.7271,394.8007 278.7387,380.0314 264.8535,365.9652 251.1413,352.7749 237.6816,340.6342 224.5631,329.7129 211.8826,320.1713 205.7389,315.9639 193.9117,308.7573 182.7908,303.2519 172.4885,299.5313 167.6791,298.3578 163.1159,297.6473 158.8119,297.4009 154.78,297.6177 151.0323,298.2952 147.5803,299.4298 144.4348,301.0165 141.6055,303.0494 139.1011,305.5211 136.929,308.4234 135.0955,311.7472 133.6053,315.4821 132.4619,319.6171 131.6672,324.1402 131.222,329.0383 131.3744,339.9048 131.9666,345.8438 134.1621,358.6549 135.7543,365.4942 139.8932,379.9552 142.4236,387.5417 148.3597,403.3371 159.2914,428.3145 172.3665,454.4004 182.0972,472.1734 197.9302,499.0833 209.1388,517.0223 226.6347,543.6821 256.6402,586.8216 337.8871,699.3009 360.8059,732.2089 381.2144,762.4757"/>
  </g>
  <g fill="none" id="layer2" inkscape:groupmode="layer" inkscape:label="2" stroke="#080" style="display:inline">
    <polyline points="580.862,623.2392 578.9046,628.4659 576.283,633.5652 573.0192,638.531 569.141,643.3578 564.6808,648.0407 559.6759,652.5757 554.1669,656.9588 548.1977,661.1866 535.0642,669.1639 527.9956,672.9072 516.9009,678.206 497.488,686.1632 477.5078,692.9752 457.5452,698.5805 438.0788,702.912 419.4906,705.8927 402.0767,707.4418 385.9895,707.5461 376.9667,706.953 368.3853,705.9071 355.009,703.2461 347.5295,701.1382 340.4745,698.6598 331.7756,694.777 325.8241,691.432 318.7137,686.4051 314.0355,682.2239 309.9398,677.709 305.3954,671.2098 301.8753,664.2263 299.3132,656.8332 297.313,647.0909 296.3715,634.7108 296.5788,621.577 298.4956,590.5819 298.9798,575.1529 298.6365,559.0573 297.4659,545.1907 296.2924,536.691 294.7133,528.0575 291.0659,513.3606 286.0093,498.2848 279.4606,482.9274 274.829,473.6787 269.712,464.5082 260.2723,449.6971 254.1978,441.3005 247.9402,433.4382 241.6152,426.2481 235.3452,419.8613 231.2569,416.1083 225.3529,411.3105 219.8261,407.5825 214.7825,404.9844 210.3145,403.5524 206.4997,403.2953 203.3995,404.1945 201.0599,406.2072 199.9383,408.1361 198.9267,411.8482 198.7251,416.4525 199.0405,419.9594 200.1873,425.7752 201.3998,429.9587 203.8857,436.5776 205.9816,441.1504 209.7651,448.1323 212.6968,452.8029 219.4649,461.9935 227.2757,470.7399 231.4973,474.869 238.1335,480.6872 247.3738,487.6436 259.1835,494.9068 270.8297,500.4912 281.8888,504.4042 288.0932,505.9868 293.8862,507.0433 299.1975,507.6295 305.4154,507.7906 310.5183,507.3818 314.396,506.5324 316.9774,505.3272 317.7706,504.6045 318.3309,503.3822 318.1302,502.0084 317.5721,501.0173 315.4378,498.8809 310.8869,495.9873 305.7996,493.5596 292.2359,488.6542 282.0661,485.768 273.4731,483.6988 256.5653,480.5689 248.9195,479.6458 240.6451,479.141 234.0768,479.2685 228.6382,480.0199 226.9393,480.5588 225.7383,481.4016 225.6357,482.1268 226.202,482.9503 229.2131,485.0187 242.5866,492.4843 261.5996,503.7581 275.3736,511.0529 282.8853,514.3958 290.7787,517.3894 298.983,519.9253 307.3976,521.8928 315.9024,523.1907 322.2644,523.6764 330.6292,523.634 336.7575,523.0765 342.7209,522.0764 350.3699,520.0879 357.6351,517.4145 364.4931,514.1378 369.3638,511.3338 375.4952,507.1886 379.8262,503.8031 385.2675,498.9546 394.0619,489.6978 414.4021,465.5342 420.8424,458.9565 426.2764,454.2507 433.4537,449.3459 439.5154,446.3918 445.8673,444.4307 452.4976,443.5423 457.6232,443.6073 461.0939,444.002 464.5924,444.6761 469.8608,446.201 478.5697,450.0446 483.67,453.0658 488.6213,456.5574 496.4477,463.2182 503.6524,470.5389 512.5984,480.92 531.2685,504.144 535.0918,508.1349 536.1949,508.9126 536.9098,509.0376 537.1963,508.4524 537.0096,507.0968 535.4599,502.7735 531.8758,495.0311 528.1363,487.8764 521.2842,476.6604 517.9381,472.0209 513.68,466.8342 507.8822,460.9908 502.5534,456.9221 497.669,454.5219 492.767,453.5646 488.8627,453.6476 484.3086,454.2986 458.9752,459.9705 444.3318,462.343 426.7682,463.8013 406.2369,463.9313 386.0615,462.8872 363.049,460.8267 232.4951,445.7129 196.945,442.0449 169.1616,439.6513 144.9864,438.2509 129.5167,438.0882 120.7559,438.6317 116.4404,439.3424 113.4261,440.3467 111.7602,441.6542 111.4419,442.4237 111.84,444.1964 115.0054,447.4407 121.1624,451.3805 130.1316,455.9967 150.6088,465.1114 212.6647,490.6117 238.1433,501.4472 270.2035,515.9395 295.2396,528.163 319.2032,540.8285 336.2519,550.5538 352.3747,560.4256 367.4742,570.4058 385.893,583.8517 394.3387,590.6434 402.2607,597.497 409.6459,604.4297 416.4802,611.4583 425.6676,622.2123 431.0639,629.5373 435.8647,636.9926 441.9322,648.414 446.6291,660.0894 448.9988,667.9843 450.7624,675.941 452.2832,687.9295 452.4792,699.8811 451.3876,711.6648 449.0512,723.1336 446.8251,730.5266 444.0814,737.6604 439.0284,747.7672 432.8983,757.013 425.7503,765.227 417.6492,772.2383 408.6609,777.8865 402.2072,780.8256 398.8482,782.0344 391.8755,783.9141 384.5733,785.0617 380.8016,785.3576 373.0215,785.3933 360.7736,784.0733 347.8634,781.1616 338.9124,778.3818 329.7085,774.9714 320.276,770.971 310.6443,766.4254 300.8484,761.3836 285.9378,753.0049 275.9239,746.9551 260.9351,737.3262 236.598,720.2762 214.0854,702.7322 201.9465,692.3161 194.572,685.5202 184.7467,675.6568 179.1021,669.3558 174.2377,663.311 170.1918,657.5466 166.9937,652.0807 164.6631,646.9249 163.8265,644.4651 162.8121,639.7824 162.6712,635.4127 163.3903,631.3492 164.9494,627.5813 167.3221,624.0956 170.4758,620.8767 174.3718,617.9078 178.9649,615.1718 184.2041,612.6515 190.0326,610.3312 199.7432,607.1947 210.4101,604.4366 221.7882,602.0304 233.627,599.9629 249.7022,597.7348 265.6006,596.1379 277.1049,595.3827 291.5358,595.0073 301.4807,595.2241 310.5352,595.8846 318.593,597.0051 325.5581,598.6054 331.3448,600.7072 335.8795,603.3318 339.1018,606.4978 340.9676,610.2193 341.4502,614.5035 340.5416,619.3494 338.2519,624.7468 334.6108,630.6757 329.6667,637.1064 323.4853,643.9986 316.1466,651.3022 307.7441,658.9568 295.0686,669.5875 273.4912,686.0504 249.947,702.4768 222.1828,720.5105 176.0821,749.0932 168.6408,753.9799 166.1279,756.0045 170.8068,753.9578 211.6929,732.5215 238.627,719.5712 268.0619,706.6967 285.2505,699.8213 298.1057,695.0485 310.8377,690.6923 323.3873,686.8249 343.7959,681.634 355.7045,679.3545 367.3518,677.7468 378.7346,676.8337 386.1758,676.6163 393.499,676.7125 404.2546,677.4406 414.7134,678.8576 424.843,680.9446 434.6078,683.6767 443.9748,687.0241 452.9149,690.9482 461.4001,695.3947 469.4035,700.2922 479.2811,707.3695 486.062,712.9506 494.2196,720.5262 501.3124,727.966 508.5942,736.5729 514.9484,745.0698 520.1314,752.8806"/>
  </g>
  <g fill="none" id="layer3" inkscape:groupmode="layer" inkscape:label="3" stroke="#f00" style="display:inline">
    <polyline points="271.7352,402.8928 262.5363,408.1137 257.0415,412.0569 252.1019,416.3272 245.8089,423.2677 242.4009,428.1996 239.6508,433.3348 236.7949,441.3417 235.7505,446.8306 235.3953,452.3977 236.1395,460.8119 237.4679,466.4062 239.4408,471.941 243.5588,480.0444 247.0382,485.2583 251.0706,490.2787 255.6246,495.0714 260.6671,499.6041 266.164,503.8472 272.0809,507.7736 278.3832,511.3592 285.0373,514.5828 295.6065,518.7009 306.7902,521.9171 314.5406,523.5446 322.4971,524.7532 330.6375,525.5422 343.152,525.9462 351.6768,525.7063 364.7144,524.61 373.5691,523.409 387.1061,520.9464 410.4325,515.2617 429.8503,509.5196 455.0788,501.1931 577.8135,457.0717 609.0688,446.4514 618.4186,443.5888 621.13,443.0596 619.5612,444.1138 613.9247,446.6897 564.5537,467.5112 532.5384,481.5649 503.9433,494.8897 480.5583,506.4364 454.084,520.2749 422.7349,537.669 393.8351,554.582 356.3463,577.5123 352.2125,579.834 350.788,580.3483 350.8511,579.9154 351.903,578.7707 355.8872,575.2915 372.2067,562.6567 393.117,547.5096 417.1419,531.0053 441.915,514.8117 465.2526,500.2151 490.614,485.0319 511.9438,472.8224 533.7253,460.9273 555.3888,449.73 576.2382,439.627 595.4738,431.0051 612.2387,424.215 625.6873,419.5445 635.0695,417.1946 638.0488,416.9234 639.8168,417.2578 640.2361,417.6504 640.135,418.8798 639.6135,419.7127 636.1747,423.0544 629.9799,427.5916 621.1512,433.2152 609.8674,439.7947 596.3558,447.1827 563.7354,463.7466 525.64,481.622 491.4246,496.6387 456.2611,511.0941 421.0957,524.4561 393.398,534.0953 366.2807,542.6924 339.8432,550.231 314.2883,556.7471 289.9489,562.3018 261.9055,567.988 237.4638,572.3905 199.8963,578.5541 194.8461,579.7072 199.2845,579.7402 212.2246,578.7154 247.9103,574.7716 278.9096,570.4147 306.6151,565.5864 329.265,560.6639 346.6042,556.0625 362.9914,550.8432 381.9242,543.4797 399.0233,535.2725 414.2215,526.3509 427.4314,516.8942 438.572,507.1498 444.2426,501.2976 449.1523,495.5414 453.3117,489.9729 457.7272,483.0089 460.9206,476.7883 463.3449,470.4064 464.2436,465.9401 464.1586,464.3076 463.6883,463.5093 462.9115,463.5579 461.9132,464.4449 459.6003,468.6181 457.7391,474.3226 456.2745,481.7786 455.5317,488.8495 455.2318,496.8189 455.3964,505.6416 456.033,515.2897 457.1534,525.7394 458.7865,536.9607 463.0316,558.2932 468.3044,578.0457 475.3155,598.9784 482.5808,617.3728 491.1542,636.7341 501.0219,657.098 514.4682,682.7352 524.2548,700.3441 537.0954,722.4954 555.2117,752.4452 587.1252,803.6913 592.1216,812.3937 592.7626,814.1108 592.4662,814.2617 590.9204,813.0154 586.8163,808.6966 572.0911,791.8486 553.5135,769.8975 535.1352,747.4495 513.184,718.9875 501.3374,702.3787 493.1121,690.0236 485.633,677.9007 479.0547,666.128 473.5205,654.8102 470.4744,647.5625 466.9505,637.1935 464.7555,627.4801 463.9456,618.4648 464.1877,612.8552 465.0551,607.5697 467.5121,600.2491 469.9003,595.7693 474.5565,589.6365 478.338,585.9286 484.9489,580.9181 492.5812,576.5445 501.1082,572.7774 507.2247,570.5864 516.947,567.7529 527.1994,565.425 537.8235,563.5506 548.6411,562.069 563.0214,560.5873 611.442,557.0063 617.8527,555.7975 619.433,554.882 619.5176,554.1735 618.2023,552.9449 613.8406,550.9628 597.0427,545.6871 571.714,538.8405 517.0561,524.9195 489.7878,517.126 478.8479,513.4848 468.5266,509.6099 458.9067,505.4731 450.0431,501.0588 439.4465,494.7463 430.2383,487.998 422.3408,480.9165 414.1152,471.8203 406.302,461.022 402.1838,454.2138 398.9065,447.9592 396.5075,442.4545 395.0587,437.8784 394.661,434.3791 395.1256,432.5265 396.3078,431.3651 398.269,430.9015 401.0716,431.1235 404.7776,432.0036 413.122,434.821 441.978,445.8159 460.0902,452.3437 481.1988,459.4255 500.0423,465.3051 541.7417,477.0917 615.9895,495.9944 637.3478,501.9301 650.4109,506.3347 657.3148,509.4347 661.4502,512.3611 662.5894,514.2168 662.6651,515.1166 661.828,516.8608 660.9185,517.706 658.1341,519.3448 654.097,520.9183 645.8182,523.1677 635.0979,525.3011 622.2463,527.3376 591.5955,531.1802 539.0452,536.4266 482.0543,541.039 440.4549,543.3506 420.3574,543.9484 401.551,544.1006 426.7125,545.9908 453.3629,548.5414 487.8526,552.4122 522.2685,556.7705 553.1595,561.0953 584.6792,566.0355 609.1992,570.4463 626.4891,574.0452 642.2808,577.9219 651.72,580.678 663.8739,585.1056 670.4424,588.2796 675.6467,591.6561 677.707,593.4276 680.6961,597.1526 681.6109,599.1122 682.1327,601.1406 682.2589,603.2407 681.9885,605.4153 680.2602,609.9975 676.9637,614.9054 672.1326,620.1525 665.818,625.7478 658.0865,631.6947 649.0198,637.9919 638.7128,644.6349 621.1615,655.2282 572.5427,682.5964 428.7413,761.1213 390.0288,781.064 367.501,791.6675 352.7626,798.001 338.2517,803.6585 323.9846,808.5725 303.1074,814.4234 289.6015,817.2444 282.9926,818.318 270.1038,819.7762 263.8417,820.157 257.7139,820.3043 245.902,819.8986 240.2391,819.347 229.4542,817.5538 219.464,814.8562 210.356,811.2791 202.2137,806.8545 198.5288,804.336 191.9748,798.7134 189.1208,795.6207 186.5573,792.3485 182.3224,785.2915 180.6586,781.5203 178.2494,773.5281 177.0678,764.9877 177.1021,755.9641 177.5675,751.292 179.3725,741.6705 182.3066,731.7371 186.317,721.5613 188.7069,716.4039 194.2136,705.9917 200.6276,695.5033 207.8694,684.9998 220.0983,669.3393 229.0323,659.0364 238.4846,648.8954 253.4287,634.0674 274.2855,615.1587 295.5248,597.372 321.5446,576.8405 354.8249,551.5976 409.0143,511.2365"/>
  </g>
</svg>
