<?xml version="1.0" encoding="utf-8" ?>
<svg xmlns="http://www.w3.org/2000/svg" xmlns:cc="http://creativecommons.org/ns#" xmlns:dc="http://purl.org/dc/elements/1.1/" xmlns:ev="http://www.w3.org/2001/xml-events" xmlns:inkscape="http://www.inkscape.org/namespaces/inkscape" xmlns:rdf="http://www.w3.org/1999/02/22-rdf-syntax-ns#" xmlns:sodipodi="http://sodipodi.sourceforge.net/DTD/sodipodi-0.dtd" xmlns:xlink="http://www.w3.org/1999/xlink" baseProfile="tiny" height="29.7cm" version="1.2" viewBox="0 0 793.7007874015749 1122.5196850393702" width="21.0cm">
  <metadata>
    <rdf:RDF>
      <cc:Work>
        <dc:format>image/svg+xml</dc:format>
        <dc:source/>
        <dc:date>2022-05-22T14:23:31.804725</dc:date>
      </cc:Work>
    </rdf:RDF>
  </metadata>
  <defs/>
  <g fill="none" id="layer1" inkscape:groupmode="layer" inkscape:label="1" stroke="#00f" style="display:inline">
    <polyline points="505.878,492.0274 500.9982,497.2074 495.7059,503.6736 491.4063,509.8793 488.176,515.5755 486.0664,520.5408 485.1056,524.5872 485.0842,526.5098 485.4773,528.0207 486.2808,529.0996 487.0418,529.5709 489.0937,529.905 491.8322,529.418 495.2263,528.1122 499.2363,526.004 508.8947,519.5229 521.7822,509.1301 537.3391,494.984 553.7199,478.6574 568.2112,462.7588 572.3874,457.4703 573.3885,455.7963 573.4448,455.234 572.9006,455.2775 571.2517,456.2721 565.9467,460.4625 537.6933,485.0036 523.43,496.9506 512.5859,505.4743 502.0504,513.0592 492.1536,519.2777 483.1625,523.7933 479.0728,525.3343 475.2815,526.3683 471.8056,526.8815 468.6585,526.8668 464.9925,526.0246 463.3923,525.2541 461.2881,523.67 459.0414,520.7834 457.1392,516.0067 456.2452,510.0676 456.3525,503.1582 457.4475,495.5207 459.0227,489.0804 461.8468,480.8949 464.7725,474.4638 468.2707,468.3475 472.3179,462.7416 476.8846,457.8343 481.9341,453.7977 487.4208,450.7777 491.7898,449.2486 496.3462,448.3873 501.0588,448.2119 505.8923,448.7257 510.8077,449.9185 515.7619,451.7675 520.7083,454.2375 525.5967,457.2823 530.3742,460.8454 534.9859,464.8618 539.3752,469.2596 543.4855,473.9613 548.4359,480.5628 551.682,485.6559 555.2952,492.4786 557.4136,497.5151 558.9853,502.3968 559.9833,507.0513 560.3888,511.4114 560.1923,515.416 559.7261,517.8608 558.5283,521.1544 557.4027,523.0821 555.2372,525.5441 553.4859,526.8853 550.4195,528.428 548.097,529.1353 544.2247,529.7041 541.4024,529.7519 533.602,528.7092 524.9163,526.0291 517.4838,522.7496 507.7767,517.3236 499.8104,512.0195 489.7636,504.3593 481.7602,497.5693 471.9166,488.5176 440.9604,458.1294 434.3712,452.331 428.057,447.5009 420.5614,443.0958 414.9002,441.0419 409.56,440.3838 404.5668,441.1449 401.0673,442.6314 396.754,445.7769 393.8013,448.9478 390.2663,454.1407 387.2186,460.273 384.6858,467.1419 382.6907,474.5265 381.2509,482.1975 380.3771,489.9247 380.0852,499.3243 380.6727,508.0601 381.7586,514.3286 383.8524,521.0062 386.0843,525.2647 388.7771,528.4501 391.8955,530.489 394.4908,531.2361 397.2875,531.3007 400.2687,530.6801 403.4176,529.378 406.7176,527.4049 410.1526,524.7775 417.3677,517.6634 423.6671,510.0167 430.1704,501.0571 453.3455,465.5141 461.7669,453.4674 470.1758,443.1452 477.0755,436.4911 481.1257,433.5409 485.0802,431.4589 488.9139,430.2936 492.6001,430.0714 496.1113,430.7966 499.4195,432.453 502.4963,435.0056 506.191,439.7092 509.3617,445.74 511.9502,452.8852 513.9054,460.8993 515.1856,469.5159 515.7597,478.4586 515.609,487.452 514.7264,496.2309 513.1156,504.5483 510.7904,512.1807 507.7741,518.9323 504.0977,524.6374 500.9298,528.1473 496.1918,531.7157 492.2772,533.5145 486.6129,534.6996 482.0557,534.6635 475.6019,533.3788 472.2243,532.2106 466.982,529.8121 457.8055,524.1451 448.114,516.5213 440.0012,509.1552 431.5634,500.8203 399.5098,467.0222 387.2974,454.7442 374.9009,443.3584 362.5396,433.5281 355.252,428.6374 350.4887,425.8715 343.5401,422.5396 339.0717,420.899 332.6739,419.3552 328.6465,418.9541 324.8371,419.0614 321.2691,419.6759 317.9653,420.7917 314.9473,422.398 312.2354,424.4796 308.782,428.4488 306.9128,431.6233 305.4058,435.187 304.2716,439.1072 303.2854,445.5784 303.1106,450.2309 303.573,457.6172 304.895,465.3679 306.2433,470.6673 308.9423,478.7103 311.1748,484.0749 316.6117,494.632 321.4709,502.2522 325.0458,507.1252 332.9053,516.2323 341.5615,524.3018 350.831,531.143 358.0759,535.3744 363.0038,537.7374 367.9853,539.7195 373.0,541.3104 378.0288,542.502 383.0534,543.2883 388.0568,543.6655 393.0232,543.6315 400.3719,542.8096 407.5611,541.0677 414.5535,538.4178 419.0902,536.1561 423.5179,533.507 429.9409,528.8287 436.0865,523.3413 441.942,517.0966 449.2813,507.7044 456.0592,497.2709 462.2381,486.0339 467.7739,474.2816 472.6184,462.3519 477.6274,447.775 481.388,434.3314 484.1414,420.8631 484.7672,415.6096 484.8802,411.5334 484.2242,408.1146 483.5487,407.3182 482.6412,407.1459 481.502,407.5998 480.1319,408.6758 476.7026,412.6458 471.1386,420.7969 452.1308,451.6769 439.6735,470.7236 427.7572,487.0963 417.1954,499.9703 405.7249,512.2577 396.5456,520.8974 386.9023,528.9126 376.8362,536.2014 369.9176,540.6134 362.8563,544.6411 355.6762,548.2648 348.405,551.4673 337.3965,555.4501 330.0417,557.5409 322.7207,559.1697 315.4767,560.3295 308.3562,561.0158 301.4082,561.2259 294.6839,560.9589 288.2358,560.2154 282.1172,558.9968 273.6733,556.2841 268.6089,553.8917 264.0538,551.0387 260.0534,547.7325 256.6485,543.9821 253.8746,539.7987 251.7611,535.1957 250.3302,530.1891 249.5967,524.7978 249.5674,519.0438 250.2418,512.9528 251.613,506.554 253.6683,499.8809 256.3892,492.9711 259.752,485.8666 263.7277,478.614 268.2827,471.2644 276.1187,460.1805 281.9505,452.8398 288.2165,445.613 294.8695,438.568 301.8613,431.7742 309.1431,425.3024 316.666,419.2229 324.3816,413.605 332.243,408.5148 340.2045,404.0146 348.2225,400.161 356.2561,397.0036 364.2665,394.584 372.2184,392.9345 380.0791,392.0772 383.966,391.9497 391.6359,392.2991 395.4128,392.7752 402.8365,394.3243 406.4784,395.3935 413.6112,398.1076 423.9054,403.5636 430.4808,408.0712 439.891,416.0274 448.7403,425.2619 457.0082,435.5797 464.6674,446.7701 473.8744,462.6685 479.9764,475.0386 486.9656,491.7176 492.5587,508.1702 496.6714,523.9639 499.2345,538.724 500.2002,552.1371 499.861,561.1591 498.6075,569.1951 496.4422,576.1759 494.4956,580.2161 490.8285,585.3236 486.2764,589.2582 480.8537,591.9953 476.7625,593.1469 469.922,593.8575 462.2476,593.3455 456.6719,592.3248 447.6209,589.7752 441.1261,587.3973 430.6823,582.8161 419.3824,577.0241 407.2222,570.0339 394.2145,561.8662 375.6155,549.2022 355.7291,534.624 340.1194,522.5424 318.6679,505.109 302.358,491.2273 286.1293,476.8559 270.2683,462.2165 250.25,442.732 236.5336,428.5305 224.3243,415.0446 213.9659,402.6176 205.7699,391.5937 199.9955,382.3005 196.831,375.0309 196.3767,373.1006 196.38,370.0243 196.8378,368.89 197.5984,368.031 198.6599,367.4506 201.6739,367.1333 205.8495,367.9436 214.1963,371.252 221.0698,374.8188 233.1785,382.1164 247.2172,391.5938 262.9054,403.0315 291.9123,425.7395 323.31,451.8302 355.8404,479.8958 439.0791,552.9022 463.2588,573.3385 480.8081,587.6341 508.6676,609.2184 538.989,631.0987 568.1917,650.7133 597.3241,669.0249"/>
  </g>
  <g fill="none" id="layer2" inkscape:groupmode="layer" inkscape:label="2" stroke="#080" style="display:inline">
    <polyline points="430.9087,506.1661 429.6969,508.6683 429.037,509.1984 428.5867,507.2994 427.7987,495.8388 427.0419,491.204 425.7587,487.8382 424.7777,486.7987 423.7856,486.4312 422.1037,486.7071 419.727,488.1114 407.7783,498.5819 400.5633,503.6477 396.5955,505.705 393.1479,507.0545 389.6073,508.0136 386.0132,508.5427 380.9779,508.5197 376.0652,507.6018 371.4271,505.8424 367.2209,503.3555 363.1379,499.8416 360.0184,495.9252 358.0125,491.9849 357.1848,488.0149 357.38,486.2069 358.2018,484.5461 359.3395,483.6521 361.1844,483.2188 363.0602,483.4025 365.6278,484.2548 368.4348,485.7335 371.3638,487.7342 375.7295,491.41 380.1328,495.8441 384.6802,501.2255 386.4972,504.1539 384.8999,502.9802 371.0594,490.3292 365.6693,486.0829 360.733,482.6939 355.8167,479.8949 351.1536,477.912 346.9801,476.9006 343.5194,476.9276 341.5914,477.5699 339.9635,478.9651 339.142,480.9363 339.152,483.337 339.9788,485.9942 341.5697,488.7202 343.8383,491.3253 346.6689,493.629 349.9235,495.4715 353.4494,496.7221 357.0866,497.2861 360.0873,497.192 363.5187,496.3899 366.14,495.1644 368.8882,493.0808 371.0985,490.4251 372.6805,487.3351 373.6426,483.4075 373.6619,479.9842 372.9194,476.7225 371.4218,473.8213 369.1992,471.4602 366.3056,469.7849 363.4378,468.9857 359.537,468.7846 354.5124,469.5802 349.205,471.3774 343.8863,473.9728 337.5033,478.0323 331.7086,482.7138 327.529,487.277 326.808,488.7207 327.0438,489.4396 328.7864,489.1604 331.9663,487.453 336.2537,484.4474 341.2291,480.4206 351.9554,470.4304 361.1444,460.4721 353.2614,466.7707 347.8498,470.6871 342.3327,474.1888 336.3835,477.3747 330.339,479.9115 325.362,481.3627 320.1269,482.0441 316.3859,481.691 313.9432,480.7325 312.2071,479.2005 311.2349,477.1512 311.0516,474.6653 311.6478,471.8461 312.9819,468.8155 314.9821,465.7092 318.1222,462.0838 321.8703,458.8036 325.2858,456.4999 328.8097,454.7083 332.2933,453.5152 335.592,452.9749 338.5704,453.1057 341.1069,453.8889 343.0966,455.2709 344.2365,456.7512 345.0412,458.978 345.1605,460.9803 344.7995,463.1003 343.9552,465.262 342.6336,467.3885 340.8503,469.4048 338.6307,471.24 333.8063,473.8266 328.0147,475.3854 321.5988,475.737 315.9161,475.0259 311.2725,473.7372 306.8991,471.8666 302.9676,469.4919 299.0553,466.1247 296.6234,463.0377 294.8456,459.2147 294.3771,456.1133 295.0371,452.7267 296.5541,450.3544 299.404,448.2323 302.4894,447.1753 306.8121,446.8378 310.7255,447.3406 315.5179,448.8301 320.1149,451.1573 324.217,454.1239 327.56,457.484 330.2153,461.5362 331.3007,465.3113 330.8826,468.0175 329.9034,469.4349 328.8088,470.2579 325.7397,471.2171 321.6111,471.1991 316.6144,470.1916 311.0003,468.2513 305.0718,465.5007 299.1708,462.1232 292.8031,457.7054 288.1915,453.8222 284.2331,449.5874 282.3232,446.5319 281.9291,445.2865 281.999,443.9764 283.0279,442.9648 285.0419,442.698 287.9307,443.1869 291.5427,444.3991 300.1783,448.6653 310.1473,455.1478 315.755,459.4863 320.7049,463.9446 323.5716,467.2863 324.112,468.3887 324.0285,469.0573 322.7339,469.2 320.0919,468.3021 310.4709,463.1603 296.6992,454.5053 276.4456,440.9104"/>
  </g>
  <g fill="none" id="layer3" inkscape:groupmode="layer" inkscape:label="3" stroke="#f00" style="display:inline">
    <polyline points="395.2453,738.9128 397.3166,738.8651 397.8253,739.0692 397.9685,739.5122 397.0857,740.5712 395.2463,741.7302 389.4953,743.9746 385.3682,744.974 380.7275,745.6625 375.7734,745.9405 371.4507,745.8014 363.8926,744.5909 360.2692,743.4327 357.6694,742.2338 355.1798,740.5653 353.7155,739.0318 352.867,737.4177 352.6732,735.7726 353.3316,733.8281 354.9594,731.9955 357.519,730.3524 360.3135,729.1764 364.3768,728.0443 368.275,727.3604 373.4545,726.8717 379.0514,726.751 388.9366,727.3294 399.0149,728.7359 434.4171,736.5305 440.2649,737.1422 445.4736,736.9955 450.5992,735.9421 455.0981,734.0869 459.7444,731.176 467.9985,724.6181 469.8244,723.6545 471.2081,723.4478 472.5372,723.9806 473.6753,725.2795 478.3114,736.3815 479.6465,738.2264 481.2276,739.1663 482.9004,739.156 485.0626,738.2449 493.0743,732.5399 496.943,730.3681 500.2454,729.3076 503.4875,729.1773 505.9479,729.8111 508.2163,731.085 510.2312,732.9217 511.9423,735.1898 513.6023,738.3604 514.7901,741.8229 515.407,745.352 515.3824,746.7079 515.1134,747.182 514.5939,745.9129 514.4308,743.6338 514.6842,741.3801 515.3246,739.4612 516.1325,738.2431 517.2255,737.3977 518.6014,737.0146 519.9933,737.0958 522.9836,738.2497 526.6988,740.8335 530.5657,744.3387 537.8875,751.8356 539.8205,753.3518 540.6638,753.3288 540.86,752.1725 538.8248,742.7177 538.7898,741.3991 539.2475,740.9175 541.3075,742.1346 549.0648,749.2424 553.4746,752.7302 557.2471,754.8555 558.8646,755.3385 560.2349,755.3863 561.3223,754.9967 562.2082,754.0244 562.6383,752.808 562.7818,751.0493 562.0876,746.7415 560.1195,741.2002 565.2461,746.9589 570.2276,751.3898 574.6983,754.1449 576.6346,754.7802 578.2206,754.8245 579.3751,754.2687 580.0536,753.1552 580.2529,751.5737 580.0124,749.6526 578.1431,744.5572 575.1152,739.7375 578.2848,743.9487 583.3339,749.337 587.3894,752.8104 588.7949,753.6154 589.5241,753.6855 589.7381,753.2637 589.5072,752.2439 587.8826,749.1505 580.3925,738.766"/>
  </g>
</svg>
