<?xml version="1.0" encoding="utf-8" ?>
<svg xmlns="http://www.w3.org/2000/svg" xmlns:cc="http://creativecommons.org/ns#" xmlns:dc="http://purl.org/dc/elements/1.1/" xmlns:ev="http://www.w3.org/2001/xml-events" xmlns:inkscape="http://www.inkscape.org/namespaces/inkscape" xmlns:rdf="http://www.w3.org/1999/02/22-rdf-syntax-ns#" xmlns:sodipodi="http://sodipodi.sourceforge.net/DTD/sodipodi-0.dtd" xmlns:xlink="http://www.w3.org/1999/xlink" baseProfile="tiny" height="29.7cm" version="1.2" viewBox="0 0 793.7007874015749 1122.5196850393702" width="21.0cm">
  <metadata>
    <rdf:RDF>
      <cc:Work>
        <dc:format>image/svg+xml</dc:format>
        <dc:source/>
        <dc:date>2021-11-05T22:04:45.553068</dc:date>
      </cc:Work>
    </rdf:RDF>
  </metadata>
  <defs/>
  <g fill="none" id="layer1" inkscape:groupmode="layer" inkscape:label="1" stroke="#00f" style="display:inline">
    <polygon points="245.6693,428.9764 245.6693,391.1811 283.4646,391.1811 283.4646,428.9764"/>
    <polyline points="245.6693,410.0787 255.1181,412.6105 262.0351,419.5276 264.5669,428.9764 262.0351,438.4252 255.1181,445.3422 245.6693,447.874"/>
    <polygon points="245.6693,466.7717 245.6693,428.9764 283.4646,428.9764 283.4646,466.7717"/>
    <polyline points="245.6693,485.6693 255.1181,483.1375 262.0351,476.2205 267.0987,457.3228 274.0157,450.4058 283.4646,447.874 292.9134,450.4058 299.8304,457.3228 304.894,476.2205 311.811,483.1375 330.7087,488.2011 337.6257,495.1181 340.1575,504.5669 337.6257,514.0157 330.7087,520.9328 311.811,525.9964 304.894,532.9134 299.8304,551.811 292.9134,558.728 274.0157,563.7916 267.0987,570.7087 262.0351,589.6063 255.1181,596.5233 245.6693,599.0551"/>
    <polygon points="245.6693,617.9528 283.4646,617.9528 283.4646,655.748 245.6693,655.748"/>
    <polygon points="245.6693,617.9528 245.6693,580.1575 283.4646,580.1575 283.4646,617.9528"/>
    <polyline points="245.6693,636.8504 255.1181,639.3822 262.0351,646.2992 264.5669,655.748 262.0351,665.1969 255.1181,672.1139 245.6693,674.6457"/>
    <polyline points="245.6693,712.4409 255.1181,709.9091 262.0351,702.9921 267.0987,684.0945 274.0157,677.1775 283.4646,674.6457 292.9134,677.1775 299.8304,684.0945 304.894,702.9921 311.811,709.9091 330.7087,714.9727 337.6257,721.8898 340.1575,731.3386"/>
    <polygon points="321.2598,731.3386 321.2598,693.5433 359.0551,693.5433 359.0551,731.3386"/>
    <polyline points="302.3622,731.3386 299.8304,721.8898 292.9134,714.9727 283.4646,712.4409 274.0157,714.9727 267.0987,721.8898 264.5669,731.3386"/>
    <polygon points="245.6693,731.3386 245.6693,693.5433 283.4646,693.5433 283.4646,731.3386"/>
    <polygon points="283.4646,693.5433 321.2598,693.5433 321.2598,731.3386 283.4646,731.3386"/>
    <polygon points="283.4646,655.748 283.4646,693.5433 245.6693,693.5433 245.6693,655.748"/>
    <polygon points="292.9134,639.3822 274.0157,634.3186 267.0987,627.4016 264.5669,617.9528 267.0987,608.5039 274.0157,601.5869 283.4646,599.0551 292.9134,596.5233 299.8304,589.6063 304.894,570.7087 311.811,563.7916 321.2598,561.2598 330.7087,563.7916 337.6257,570.7087 340.1575,580.1575 337.6257,589.6063 330.7087,596.5233 311.811,601.5869 304.894,608.5039 302.3622,617.9528 304.894,627.4016 311.811,634.3186 330.7087,639.3822 337.6257,646.2992 340.1575,655.748 337.6257,665.1969 330.7087,672.1139 321.2598,674.6457 311.811,672.1139 304.894,665.1969 299.8304,646.2992"/>
    <polygon points="283.4646,617.9528 321.2598,617.9528 321.2598,655.748 283.4646,655.748"/>
    <polygon points="283.4646,580.1575 321.2598,580.1575 321.2598,617.9528 283.4646,617.9528"/>
    <polygon points="283.4646,580.1575 245.6693,580.1575 245.6693,542.3622 283.4646,542.3622"/>
    <polygon points="321.2598,580.1575 359.0551,580.1575 359.0551,617.9528 321.2598,617.9528"/>
    <polygon points="359.0551,580.1575 396.8504,580.1575 396.8504,617.9528 359.0551,617.9528"/>
    <polygon points="377.9528,580.1575 380.4846,570.7087 387.4016,563.7916 396.8504,561.2598 406.2992,563.7916 413.2162,570.7087 415.748,580.1575 413.2162,589.6063 406.2992,596.5233 396.8504,599.0551 387.4016,596.5233 380.4846,589.6063"/>
    <polygon points="359.0551,617.9528 396.8504,617.9528 396.8504,655.748 359.0551,655.748"/>
    <polygon points="396.8504,617.9528 434.6457,617.9528 434.6457,655.748 396.8504,655.748"/>
    <polygon points="434.6457,617.9528 472.4409,617.9528 472.4409,655.748 434.6457,655.748"/>
    <polygon points="434.6457,617.9528 396.8504,617.9528 396.8504,580.1575 434.6457,580.1575"/>
    <polygon points="434.6457,580.1575 472.4409,580.1575 472.4409,617.9528 434.6457,617.9528"/>
    <polygon points="472.4409,580.1575 510.2362,580.1575 510.2362,617.9528 472.4409,617.9528"/>
    <polygon points="472.4409,580.1575 434.6457,580.1575 434.6457,542.3622 472.4409,542.3622"/>
    <polygon points="493.8704,570.7087 500.7874,563.7916 510.2362,561.2598 519.685,563.7916 526.6021,570.7087 529.1339,580.1575 526.6021,589.6063 519.685,596.5233 510.2362,599.0551 500.7874,596.5233 493.8704,589.6063 491.3386,580.1575"/>
    <polygon points="510.2362,580.1575 548.0315,580.1575 548.0315,617.9528 510.2362,617.9528"/>
    <polygon points="548.0315,580.1575 510.2362,580.1575 510.2362,542.3622 548.0315,542.3622"/>
    <polyline points="548.0315,599.0551 538.5827,601.5869 531.6657,608.5039 526.6021,627.4016 519.685,634.3186 510.2362,636.8504 500.7874,634.3186 493.8704,627.4016 488.8068,608.5039 481.8898,601.5869 462.9921,596.5233 456.0751,589.6063 453.5433,580.1575 456.0751,570.7087 462.9921,563.7916 481.8898,558.728 488.8068,551.811 493.8704,532.9134 500.7874,525.9964 519.685,520.9328 526.6021,514.0157 531.6657,495.1181 538.5827,488.2011 548.0315,485.6693"/>
    <polygon points="548.0315,466.7717 548.0315,504.5669 510.2362,504.5669 510.2362,466.7717"/>
    <polyline points="548.0315,447.874 538.5827,450.4058 531.6657,457.3228 526.6021,476.2205 519.685,483.1375 510.2362,485.6693 500.7874,483.1375 493.8704,476.2205 491.3386,466.7717 493.8704,457.3228 500.7874,450.4058 519.685,445.3422 526.6021,438.4252 529.1339,428.9764 526.6021,419.5276 519.685,412.6105 510.2362,410.0787 500.7874,412.6105 493.8704,419.5276 488.8068,438.4252 481.8898,445.3422 462.9921,450.4058 456.0751,457.3228 451.0115,476.2205 444.0945,483.1375 425.1969,488.2011 418.2798,495.1181 415.748,504.5669 418.2798,514.0157 425.1969,520.9328 434.6457,523.4646 444.0945,520.9328 451.0115,514.0157 456.0751,495.1181 462.9921,488.2011 472.4409,485.6693 481.8898,488.2011 488.8068,495.1181 491.3386,504.5669 488.8068,514.0157 481.8898,520.9328 462.9921,525.9964 456.0751,532.9134 451.0115,551.811 444.0945,558.728 434.6457,561.2598 425.1969,558.728 418.2798,551.811 413.2162,532.9134 406.2992,525.9964 396.8504,523.4646 387.4016,525.9964 380.4846,532.9134 375.421,551.811 368.5039,558.728 359.0551,561.2598 349.6063,558.728 342.6893,551.811 340.1575,542.3622 342.6893,532.9134 349.6063,525.9964 368.5039,520.9328 375.421,514.0157 377.9528,504.5669 375.421,495.1181 368.5039,488.2011 349.6063,483.1375 342.6893,476.2205 340.1575,466.7717 342.6893,457.3228 349.6063,450.4058 368.5039,445.3422 375.421,438.4252 380.4846,419.5276 387.4016,412.6105 406.2992,407.5469 413.2162,400.6299 415.748,391.1811"/>
    <polygon points="434.6457,391.1811 434.6457,428.9764 396.8504,428.9764 396.8504,391.1811"/>
    <polyline points="453.5433,391.1811 456.0751,400.6299 462.9921,407.5469 472.4409,410.0787 481.8898,407.5469 488.8068,400.6299 491.3386,391.1811"/>
    <polygon points="472.4409,391.1811 472.4409,428.9764 434.6457,428.9764 434.6457,391.1811"/>
    <polygon points="472.4409,428.9764 510.2362,428.9764 510.2362,466.7717 472.4409,466.7717"/>
    <polygon points="472.4409,466.7717 434.6457,466.7717 434.6457,428.9764 472.4409,428.9764"/>
    <polygon points="434.6457,466.7717 396.8504,466.7717 396.8504,428.9764 434.6457,428.9764"/>
    <polygon points="396.8504,466.7717 434.6457,466.7717 434.6457,504.5669 396.8504,504.5669"/>
    <polygon points="396.8504,466.7717 396.8504,504.5669 359.0551,504.5669 359.0551,466.7717"/>
    <polygon points="387.4016,483.1375 380.4846,476.2205 377.9528,466.7717 380.4846,457.3228 387.4016,450.4058 396.8504,447.874 406.2992,445.3422 413.2162,438.4252 418.2798,419.5276 425.1969,412.6105 434.6457,410.0787 444.0945,412.6105 451.0115,419.5276 453.5433,428.9764 451.0115,438.4252 444.0945,445.3422 425.1969,450.4058 418.2798,457.3228 413.2162,476.2205 406.2992,483.1375 396.8504,485.6693"/>
    <polygon points="396.8504,504.5669 396.8504,542.3622 359.0551,542.3622 359.0551,504.5669"/>
    <polygon points="396.8504,542.3622 396.8504,504.5669 434.6457,504.5669 434.6457,542.3622"/>
    <polygon points="396.8504,542.3622 434.6457,542.3622 434.6457,580.1575 396.8504,580.1575"/>
    <polygon points="396.8504,542.3622 396.8504,580.1575 359.0551,580.1575 359.0551,542.3622"/>
    <polygon points="434.6457,504.5669 472.4409,504.5669 472.4409,542.3622 434.6457,542.3622"/>
    <polygon points="472.4409,504.5669 434.6457,504.5669 434.6457,466.7717 472.4409,466.7717"/>
    <polygon points="510.2362,504.5669 510.2362,542.3622 472.4409,542.3622 472.4409,504.5669"/>
    <polygon points="510.2362,542.3622 510.2362,580.1575 472.4409,580.1575 472.4409,542.3622"/>
    <polygon points="510.2362,542.3622 510.2362,504.5669 548.0315,504.5669 548.0315,542.3622"/>
    <polyline points="548.0315,523.4646 538.5827,525.9964 531.6657,532.9134 529.1339,542.3622 531.6657,551.811 538.5827,558.728 548.0315,561.2598"/>
    <polygon points="548.0315,617.9528 548.0315,655.748 510.2362,655.748 510.2362,617.9528"/>
    <polyline points="548.0315,636.8504 538.5827,639.3822 531.6657,646.2992 526.6021,665.1969 519.685,672.1139 510.2362,674.6457 500.7874,672.1139 493.8704,665.1969 488.8068,646.2992 481.8898,639.3822 462.9921,634.3186 456.0751,627.4016 451.0115,608.5039 444.0945,601.5869 434.6457,599.0551 425.1969,601.5869 418.2798,608.5039 413.2162,627.4016 406.2992,634.3186 396.8504,636.8504 387.4016,634.3186 380.4846,627.4016 375.421,608.5039 368.5039,601.5869 359.0551,599.0551 349.6063,601.5869 342.6893,608.5039 340.1575,617.9528 342.6893,627.4016 349.6063,634.3186 368.5039,639.3822 375.421,646.2992 380.4846,665.1969 387.4016,672.1139 406.2992,677.1775 413.2162,684.0945 418.2798,702.9921 425.1969,709.9091 434.6457,712.4409 444.0945,709.9091 451.0115,702.9921 453.5433,693.5433 451.0115,684.0945 444.0945,677.1775 425.1969,672.1139 418.2798,665.1969 415.748,655.748 418.2798,646.2992 425.1969,639.3822 434.6457,636.8504 444.0945,639.3822 451.0115,646.2992 456.0751,665.1969 462.9921,672.1139 481.8898,677.1775 488.8068,684.0945 493.8704,702.9921 500.7874,709.9091 510.2362,712.4409 519.685,709.9091 526.6021,702.9921 531.6657,684.0945 538.5827,677.1775 548.0315,674.6457"/>
    <polyline points="548.0315,712.4409 538.5827,714.9727 531.6657,721.8898 529.1339,731.3386"/>
    <polyline points="491.3386,731.3386 488.8068,721.8898 481.8898,714.9727 472.4409,712.4409 462.9921,714.9727 456.0751,721.8898 453.5433,731.3386"/>
    <polygon points="434.6457,731.3386 396.8504,731.3386 396.8504,693.5433 434.6457,693.5433"/>
    <polygon points="434.6457,731.3386 434.6457,693.5433 472.4409,693.5433 472.4409,731.3386"/>
    <polyline points="415.748,731.3386 413.2162,721.8898 406.2992,714.9727 396.8504,712.4409 387.4016,714.9727 380.4846,721.8898 377.9528,731.3386"/>
    <polygon points="396.8504,731.3386 359.0551,731.3386 359.0551,693.5433 396.8504,693.5433"/>
    <polygon points="396.8504,693.5433 396.8504,655.748 434.6457,655.748 434.6457,693.5433"/>
    <polygon points="359.0551,693.5433 359.0551,655.748 396.8504,655.748 396.8504,693.5433"/>
    <polygon points="359.0551,712.4409 349.6063,709.9091 342.6893,702.9921 340.1575,693.5433 342.6893,684.0945 349.6063,677.1775 359.0551,674.6457 368.5039,677.1775 375.421,684.0945 377.9528,693.5433 375.421,702.9921 368.5039,709.9091"/>
    <polygon points="359.0551,655.748 359.0551,693.5433 321.2598,693.5433 321.2598,655.748"/>
    <polygon points="359.0551,655.748 321.2598,655.748 321.2598,617.9528 359.0551,617.9528"/>
    <polygon points="321.2598,655.748 321.2598,693.5433 283.4646,693.5433 283.4646,655.748"/>
    <polygon points="321.2598,542.3622 321.2598,580.1575 283.4646,580.1575 283.4646,542.3622"/>
    <polygon points="321.2598,542.3622 321.2598,504.5669 359.0551,504.5669 359.0551,542.3622"/>
    <polygon points="321.2598,542.3622 359.0551,542.3622 359.0551,580.1575 321.2598,580.1575"/>
    <polygon points="274.0157,520.9328 267.0987,514.0157 264.5669,504.5669 267.0987,495.1181 274.0157,488.2011 283.4646,485.6693 292.9134,488.2011 299.8304,495.1181 302.3622,504.5669 299.8304,514.0157 292.9134,520.9328 283.4646,523.4646"/>
    <polygon points="283.4646,504.5669 245.6693,504.5669 245.6693,466.7717 283.4646,466.7717"/>
    <polygon points="283.4646,504.5669 321.2598,504.5669 321.2598,542.3622 283.4646,542.3622"/>
    <polygon points="245.6693,504.5669 283.4646,504.5669 283.4646,542.3622 245.6693,542.3622"/>
    <polyline points="245.6693,523.4646 255.1181,525.9964 262.0351,532.9134 264.5669,542.3622 262.0351,551.811 255.1181,558.728 245.6693,561.2598"/>
    <polygon points="321.2598,466.7717 321.2598,504.5669 283.4646,504.5669 283.4646,466.7717"/>
    <polygon points="321.2598,466.7717 283.4646,466.7717 283.4646,428.9764 321.2598,428.9764"/>
    <polygon points="321.2598,428.9764 359.0551,428.9764 359.0551,466.7717 321.2598,466.7717"/>
    <polygon points="321.2598,428.9764 283.4646,428.9764 283.4646,391.1811 321.2598,391.1811"/>
    <polygon points="340.1575,428.9764 337.6257,438.4252 330.7087,445.3422 321.2598,447.874 311.811,445.3422 304.894,438.4252 302.3622,428.9764 304.894,419.5276 311.811,412.6105 321.2598,410.0787 330.7087,412.6105 337.6257,419.5276"/>
    <polygon points="359.0551,428.9764 396.8504,428.9764 396.8504,466.7717 359.0551,466.7717"/>
    <polygon points="359.0551,466.7717 359.0551,504.5669 321.2598,504.5669 321.2598,466.7717"/>
    <polyline points="377.9528,391.1811 375.421,400.6299 368.5039,407.5469 359.0551,410.0787 349.6063,407.5469 342.6893,400.6299 340.1575,391.1811"/>
    <polygon points="321.2598,391.1811 359.0551,391.1811 359.0551,428.9764 321.2598,428.9764"/>
    <polyline points="302.3622,391.1811 299.8304,400.6299 292.9134,407.5469 283.4646,410.0787 274.0157,407.5469 267.0987,400.6299 264.5669,391.1811"/>
    <polygon points="396.8504,391.1811 396.8504,428.9764 359.0551,428.9764 359.0551,391.1811"/>
    <polygon points="510.2362,391.1811 510.2362,428.9764 472.4409,428.9764 472.4409,391.1811"/>
    <polyline points="529.1339,391.1811 531.6657,400.6299 538.5827,407.5469 548.0315,410.0787"/>
    <polygon points="548.0315,391.1811 548.0315,428.9764 510.2362,428.9764 510.2362,391.1811"/>
    <polygon points="510.2362,466.7717 510.2362,428.9764 548.0315,428.9764 548.0315,466.7717"/>
    <polygon points="510.2362,466.7717 510.2362,504.5669 472.4409,504.5669 472.4409,466.7717"/>
    <polygon points="510.2362,655.748 472.4409,655.748 472.4409,617.9528 510.2362,617.9528"/>
    <polygon points="510.2362,693.5433 472.4409,693.5433 472.4409,655.748 510.2362,655.748"/>
    <polygon points="510.2362,693.5433 548.0315,693.5433 548.0315,731.3386 510.2362,731.3386"/>
    <polygon points="510.2362,693.5433 510.2362,655.748 548.0315,655.748 548.0315,693.5433"/>
    <polygon points="472.4409,731.3386 472.4409,693.5433 510.2362,693.5433 510.2362,731.3386"/>
    <polygon points="434.6457,693.5433 434.6457,655.748 472.4409,655.748 472.4409,693.5433"/>
  </g>
</svg>
