<?xml version="1.0" encoding="utf-8" ?>
<svg xmlns="http://www.w3.org/2000/svg" xmlns:cc="http://creativecommons.org/ns#" xmlns:dc="http://purl.org/dc/elements/1.1/" xmlns:ev="http://www.w3.org/2001/xml-events" xmlns:inkscape="http://www.inkscape.org/namespaces/inkscape" xmlns:rdf="http://www.w3.org/1999/02/22-rdf-syntax-ns#" xmlns:sodipodi="http://sodipodi.sourceforge.net/DTD/sodipodi-0.dtd" xmlns:xlink="http://www.w3.org/1999/xlink" baseProfile="tiny" height="29.7cm" version="1.2" viewBox="0 0 793.7007874015749 1122.5196850393702" width="21.0cm">
  <metadata>
    <rdf:RDF>
      <cc:Work>
        <dc:format>image/svg+xml</dc:format>
        <dc:source/>
        <dc:date>2021-11-15T21:01:14.135000</dc:date>
      </cc:Work>
    </rdf:RDF>
  </metadata>
  <defs/>
  <g fill="none" id="layer1" inkscape:groupmode="layer" inkscape:label="1" stroke="#00f" style="display:inline">
    <polyline points="129.6249,1020.7567 132.3302,1019.4978 135.2682,1018.6123 137.7583,1018.3048 139.1634,1018.6505 139.6034,1019.6712 140.0617,1024.4601 140.8261,1026.8071 147.734,1037.3714 149.9097,1039.9404 151.8947,1041.4937 153.9928,1042.2553 156.1036,1041.9965 157.6713,1041.0418 159.2793,1039.0859 160.3779,1036.616 162.1451,1030.4383 165.0841,1026.7667 168.4954,1020.3163 170.4272,1017.8287 172.2632,1016.4149 174.1253,1015.4609 182.6972,1012.6815 185.2296,1011.3093 185.7206,1009.9397 184.5643,1005.3792 184.9692,1003.943 185.7833,1003.0618 188.2126,1001.8424 196.7805,999.0947 200.6375,997.5626 203.3054,995.7589 204.0203,994.268 203.7074,992.1856 201.6078,986.7595 201.3708,984.5091 201.5395,979.1636 200.9921,976.8956 199.802,974.4596 196.9617,970.6929 192.9117,966.6689 189.097,964.1109 185.7349,962.8739 180.5744,962.3847 175.6813,963.1498 169.2996,965.4849 161.0501,969.9589 159.21,970.4576 157.4339,970.4477 155.3967,969.6971 153.621,968.0554 152.0391,965.3956 148.7737,958.2785 147.6482,956.9081 146.856,956.505 146.0352,956.4885 143.912,957.5831 141.4267,959.8267 139.2416,962.477 136.1467,967.1862 134.1742,968.9792 132.2613,969.5033 126.9355,969.3346 124.6295,969.5828 118.9288,971.4501 115.0999,973.476 113.9864,974.6497 113.621,975.5317 113.5763,976.4872 114.0277,978.0389 115.7581,980.8332 120.69,986.9318 121.4875,988.5891 121.2356,989.8063 118.6822,992.2142 117.9274,993.6299 117.9553,995.3512 119.2853,1001.1637 122.2022,1001.6848 122.9874,1002.2434 123.3299,1003.0164 122.599,1004.8941 118.1268,1010.0091 116.6884,1012.3197 116.0524,1014.8365 116.5444,1017.8136 117.6999,1019.412 118.4452,1019.791 119.7021,1019.8384 128.3312,1015.9494 131.2915,1015.2421 132.9654,1015.4346 133.2482,1016.5996 131.9777,1022.1676 132.4855,1025.1687 133.5611,1026.9904 141.4801,1037.5652 143.6243,1039.7927 144.836,1040.3521 146.3334,1040.2108 147.6717,1039.3373 149.1041,1037.5506 151.1606,1032.8748 153.8105,1022.5554 155.2211,1019.8557 156.9951,1017.9736 159.4749,1017.0829 165.3434,1017.1996 168.0518,1016.9758 172.9322,1015.5649 184.0545,1009.3652 193.0473,1004.7848 195.0815,1003.038 195.733,1001.1492 195.5473,999.6421 194.7437,997.5391 189.8089,991.0025 188.8986,988.7793 189.1219,985.9091 191.4399,979.0084 191.5153,977.2842 191.0181,976.1918 190.2537,975.7627 188.7041,975.5376 177.9514,975.8308 172.578,975.2329 168.1672,974.0932 163.4396,972.4478 155.7624,968.802 151.411,968.8279 150.2559,967.2049 144.2985,952.035 143.3315,950.4056 142.2775,949.8439 141.3796,951.1572 139.5893,957.6735 138.2541,959.5851 137.4183,959.9497 136.4771,959.9498 132.7423,958.8077 130.3995,958.6061 127.3891,959.3214 126.1905,960.3689 125.8151,969.154 124.7214,978.7355 125.3005,980.3338 129.7972,987.2872 130.491,989.6033 130.5057,991.9117 129.255,996.1878 128.2173,998.0417 126.8493,999.6911 123.891,1001.8687 117.7492,1005.0273 116.1775,1006.53 115.9658,1007.5488 116.4753,1009.0383 117.9851,1011.0402 120.0162,1012.9994 121.8138,1014.3005 123.713,1015.1271 125.2338,1015.3289 127.4146,1014.9949 129.1443,1014.2972 131.4647,1012.826 136.1741,1008.225 136.9694,1007.9778 137.6,1008.951 140.3233,1017.876 143.4628,1025.0961 146.1125,1030.0278 146.9796,1030.8989 147.8067,1031.035 149.177,1029.9073 152.1449,1024.7448 153.4434,1023.4031 155.3574,1022.9863 158.8705,1023.0704 161.3735,1022.4757 165.103,1020.6992 168.6316,1018.2257 171.362,1015.3768 173.6832,1010.5571 175.3137,1008.4063 178.9963,1005.182 187.607,998.656 190.3642,997.1439 193.0297,996.3949 195.4811,996.3724 198.9228,997.0818"/>
    <polyline points="311.9953,1012.48 308.8963,1020.0007 308.2239,1023.1378 308.446,1024.747 313.0754,1020.6024 317.9258,1015.4655 321.1451,1011.3459 323.2221,1007.7137 324.3855,1003.849 324.5704,999.8004 323.7297,994.1777 323.1269,992.336 322.374,991.442 321.802,991.857 321.4651,992.8932 321.5917,996.1634 322.6996,1000.0113 324.7651,1004.6906 327.7492,1010.0466 331.9318,1016.3952 336.2766,1022.3536 339.3843,1025.7073 341.4131,1026.979 342.8298,1027.3611 344.2957,1027.3878 346.5845,1026.9188 350.583,1025.3414 354.3879,1023.3603 356.4918,1021.5813 357.114,1020.0968 357.0814,1019.0377 356.5229,1017.3679 353.8432,1013.4045 350.5903,1010.0579 344.2986,1005.0013 342.6012,1002.9206 341.9024,1000.3879 342.5438,995.6787 342.2907,994.8311 340.9473,994.8774 336.2679,996.1962 333.8151,996.4062 330.1193,995.8765 326.1444,994.3919 324.424,992.9968 324.1457,991.4686 325.286,989.6405 328.1207,987.2289 325.0385,989.4022 322.1985,992.1102 316.1542,1000.1943 316.5405,996.2685 315.9778,993.8555 315.1769,992.8825 314.1005,992.3828 312.9643,992.4595 312.2763,992.9249 311.8232,994.4633 312.2929,996.7287 313.5526,999.503 314.9134,1000.9524 315.2798,1000.7074 315.2748,999.9571 314.2426,997.5533 312.0574,994.4721 309.4504,991.5998 307.3232,989.6999 305.0942,988.2226 303.333,987.5373 301.3167,987.4046 299.716,987.9873 298.599,989.4298 298.386,991.445 298.8998,993.742 299.8122,995.609 301.1347,997.1708 302.7162,998.2206 305.2718,999.1241 301.3213,1001.2638 300.7184,1001.9994 300.7784,1002.7457 302.2438,1003.7161 304.7055,1003.9625 307.2503,1003.4756 310.8991,1001.9573 308.6952,1004.8526 307.1349,1008.1628 305.2397,1010.0445 304.4587,1012.0996 304.1227,1015.2833 304.2717,1020.0003 304.783,1023.8289 305.5349,1025.6229 306.164,1025.6721 306.9561,1025.1042 312.4161,1019.2367 315.0563,1015.7657 317.5034,1011.6043 319.0937,1007.9183 320.276,1003.9969 322.2203,991.8349 323.7478,999.0088 326.4528,1006.0943 330.2998,1013.3244 334.6658,1018.9862 338.4955,1022.0141 342.2797,1023.3938 345.4603,1023.6255 348.2985,1023.3186 350.1413,1022.6578 350.6738,1021.6508 350.0677,1019.8213 347.5568,1015.0147 340.4806,1004.3514 338.9632,1001.2998 338.425,996.786 339.2586,992.1815 339.3792,989.5645 338.9297,987.1283 338.082,985.6585 337.381,985.2785 336.2418,985.3717 332.1462,987.1949 329.1956,988.0171 326.0819,988.2518 324.3691,987.9117 324.0137,987.5528 324.1001,986.7643 326.6077,982.6664 327.563,980.5117 327.8449,979.0092 327.3818,978.6542 321.8792,981.8123 316.9382,983.6173 316.2699,985.3112 316.0279,989.7098 314.3801,984.7549 313.5018,980.3062 318.4319,988.947 315.7183,984.7406 311.8115,980.5905 305.9046,975.7352 303.5022,974.272 302.2881,973.9083 302.5784,974.7602 308.7881,983.5173 309.4201,985.0065 309.5807,986.6998 309.3069,987.8579 308.6261,988.9101 306.5948,990.0021 301.8527,990.239 299.1346,989.8707 298.5821,989.505 299.9542,989.2736 302.0326,989.4938 305.5066,990.7482 307.7044,992.6525 308.3453,994.078 308.4258,995.0963 308.0515,996.6605 306.7635,998.7175 298.3166,1006.5976 296.023,1009.5858 296.011,1011.0732 298.1862,1013.8667 298.7637,1015.9258 298.5009,1018.3095 296.478,1026.8716 296.2527,1029.3787 296.4543,1030.1172 297.4919,1029.0955 304.9604,1017.7689 310.9152,1007.5408 314.1238,1000.6004 314.4083,998.7311 314.2077,998.1164 313.7645,997.9168 312.5994,998.3683 311.2361,999.5559 310.6063,1000.5524 310.3312,1001.729 310.5089,1003.062 311.1571,1004.5333 313.7511,1007.8298 318.3413,1012.023 328.0604,1019.7704 337.6044,1028.7068 339.0256,1029.4909 341.0564,1029.8895 342.3079,1029.6939 343.9631,1028.8915 345.272,1027.6785 346.1693,1026.2381 346.6352,1024.6941 346.6207,1022.5567 345.3345,1019.1712 340.7441,1012.4665 340.2549,1010.9804 340.3339,1009.1539 341.469,1006.7186 343.6107,1004.2411 346.3204,1002.3375 351.5538,999.5885 352.2832,998.718 351.9048,998.1899 350.4339,997.6682 344.7783,997.0818"/>
    <polyline points="458.0299,1034.2605 459.203,1037.8226 461.1024,1042.0169 465.4312,1048.9806 471.6829,1057.1795 473.7241,1058.7511 475.8633,1059.1667 478.1386,1058.7067 485.6932,1056.2681 496.0247,1053.8447 498.8127,1052.8035 501.0087,1051.599 503.6789,1049.5302 506.6577,1046.3 508.8309,1043.1512 512.4582,1036.5929 513.8725,1035.221 515.1321,1035.0421 521.6358,1035.8664 527.4146,1035.5416 532.4399,1034.4508 533.7909,1033.5296 534.0438,1032.7405 533.3909,1030.6919 528.9847,1023.0635 525.9266,1018.5522 523.0622,1014.985 519.8687,1011.5973 516.3993,1008.4857 508.0727,1002.6016 506.7269,1001.2763 506.6943,1000.8145 507.1708,1000.2895 511.4623,998.3464 512.863,997.2649 513.3098,995.7287 512.592,994.2704 511.5575,993.5702 509.921,993.1633 499.2034,992.6587 496.9917,992.2854 496.3221,991.8647 496.8143,990.8804 502.342,986.2198 506.3816,982.2842 509.1341,979.0509 511.1145,976.064 512.475,973.0035 512.964,970.1932 512.5826,967.9765 511.2722,966.1098 505.4514,962.0528 503.7541,961.4448 501.9852,961.4519 500.1671,962.0194 498.0296,963.2049 492.2443,968.4235 490.5489,969.0976 489.6237,968.7411 488.6625,967.8241 484.5467,961.464 482.6954,959.8411 481.8855,959.85 481.1807,960.3093 478.4642,965.3253 477.7686,965.9575 476.9144,966.1939 474.6083,965.442 468.7753,961.4689 465.834,960.0047 464.2988,959.6083 462.0335,959.5296 460.0322,960.0039 459.0051,960.5722 458.3284,961.3053 458.0304,962.6489 458.4686,964.2052 459.8809,966.4876 463.6809,970.7199 473.1842,979.381 474.3065,980.7922 474.3326,981.43 473.9093,981.9998 470.3332,984.2692 469.0347,985.4844 468.639,986.4549 468.9677,987.7039 470.027,988.7462 471.4585,989.4532 475.496,990.096 474.9323,991.1723 472.726,993.3216 462.6449,1000.3755 460.3604,1002.7966 459.8787,1004.1739 459.7622,1008.3589 459.2648,1011.0249 455.6907,1020.0063 454.7898,1023.4838 454.9868,1027.5711 456.7812,1031.8977 465.978,1044.0676 469.0345,1047.5795 471.7096,1049.516 474.4933,1050.0609 481.4549,1048.4238 488.8496,1048.2476 492.0491,1047.3623 494.5833,1045.7539 497.5049,1043.1789 505.1975,1035.4684 512.218,1027.2886 514.1003,1025.7427 515.4069,1025.1798 516.7662,1025.0376 518.925,1025.4962 525.4262,1028.6577 528.6366,1029.8739 530.9094,1030.1111 531.4811,1029.8354 531.6643,1028.9531 530.8217,1026.335 528.7443,1021.7128 524.2762,1014.4929 519.043,1008.4621 510.6382,1000.6687 508.751,998.3646 507.9813,996.8727 507.6715,994.225 507.9712,993.2043 508.7522,992.2004 510.1861,991.8052 515.175,992.3408 515.7954,991.9247 515.3481,990.9994 512.6135,988.3446 509.9333,987.2907 507.8844,987.2161 504.8711,987.6556 502.275,988.3914 501.0422,989.1849 502.2023,989.366 504.0008,988.8005 508.4967,986.0203 512.2015,982.79 514.8372,979.0974 516.0858,975.3762 516.281,970.7337 515.4718,967.8951 513.2996,965.0073 511.6503,963.6623 509.7429,962.7758 508.0625,962.594 506.2861,962.9157 502.3642,965.0217 500.3557,966.8393 498.108,969.6632 496.6117,970.2488 495.3098,969.9341 493.7022,969.0463 488.7238,964.6812 487.0144,963.7045 485.5273,964.0294 483.0692,966.9536 481.2777,967.4308 478.5714,966.747 470.2628,962.9434 467.1389,962.3643 464.6732,962.6642 463.9752,963.1113 463.6926,963.7178 463.9141,964.8546 464.6592,966.1784 468.6137,971.2075 474.999,977.9912 476.556,980.3494 476.9412,981.9797 476.6705,983.5792 476.0385,984.6612 474.5826,985.8701 474.3368,986.4604 477.6878,992.256 478.1733,993.7379 478.2015,995.3241 477.3709,997.8485 475.5691,1000.4919 467.0338,1008.0121 464.5103,1011.1966 461.1747,1018.7029 456.2192,1027.8366 455.3177,1030.7762 455.1896,1033.8028 456.3825,1038.3012 459.1451,1043.0354 464.8918,1049.7797 470.1651,1054.4076 474.2174,1056.3292 479.2516,1057.0701 485.7417,1056.8176 492.1619,1055.3992 496.5484,1053.1608 499.9192,1049.8763 503.46,1044.7509 509.634,1034.0646 510.9932,1032.2349 512.4301,1031.0061 513.4437,1030.6004 515.0704,1030.5572 521.8424,1032.6033 526.1805,1033.2881 530.5314,1033.1081 532.4041,1032.5369 533.0863,1031.9466 533.2655,1030.7295 532.125,1027.8186 529.1799,1022.2726 525.6894,1016.9899 520.6499,1011.2141 510.818,1002.5796 509.3058,1000.3157 509.0453,998.7151 509.3337,997.1913 510.2954,995.2969 511.4441,994.0352 513.6013,992.7282 515.5422,992.1622 517.4113,992.0175 518.9786,992.4317 519.1013,993.1049 518.4836,993.9789 514.5091,997.0818"/>
    <polyline points="631.4201,1030.7497 632.6799,1034.8087 634.2966,1036.5418 636.0052,1036.807 641.3993,1036.0036 644.5034,1036.5665 647.1952,1038.2197 655.0765,1044.919 657.4666,1046.2097 659.879,1046.7457 661.4806,1046.6167 663.4549,1045.9585 667.2644,1043.5138 675.3454,1036.3908 678.6035,1032.4061 679.299,1030.7209 679.5243,1028.9962 678.3167,1022.9134 678.6018,1020.4047 680.6395,1017.1367 686.8614,1010.5769 687.8133,1008.7024 688.0154,1007.1556 687.733,1005.5443 686.8237,1003.4566 682.3157,996.9246 679.3494,994.4401 673.7081,991.6278 672.9304,990.8377 673.8087,989.7436 679.499,986.6579 682.476,984.5007 684.8481,981.7126 685.6956,979.3137 685.6102,978.144 684.8892,977.1541 683.6399,976.7806 680.4803,976.5326 679.3614,975.7293 679.125,974.4913 679.2877,969.3243 677.5035,959.9325 676.2903,956.1202 675.7705,955.4683 674.8997,955.3529 673.3055,956.927 669.4675,963.4908 667.9992,964.7126 665.8531,964.6371 660.3425,962.4762 659.2384,962.4477 658.5725,962.7967 658.5037,964.0675 660.34,968.5998 660.1774,971.1655 659.0463,972.743 655.102,975.8654 651.2589,979.5324 643.251,990.1473 642.8392,991.6417 643.2314,992.9977 647.7269,997.1921 648.1754,998.0297 648.1941,999.2103 647.4676,1000.7916 645.7189,1003.1691 638.6619,1011.3357 638.0749,1012.7138 638.289,1013.9517 642.7757,1019.1071 643.276,1020.7343 643.5705,1024.6755 644.7515,1026.437 646.6917,1027.052 651.0543,1026.7767 653.0835,1027.1366 654.8245,1028.1496 660.0389,1032.482 663.7827,1034.6809 668.107,1036.2813 671.7595,1036.4658 674.0088,1035.8321 676.8691,1034.2448 685.4837,1027.9734 688.2426,1025.5903 689.1765,1024.1917 689.4718,1022.7015 687.944,1015.052 687.9796,1012.4497 688.582,1010.2568 689.2346,1009.2777 690.4533,1008.4114 696.1206,1007.2638 697.0442,1006.8807 697.4435,1006.3466 696.7341,1004.7822 692.7244,1000.591 688.4946,996.5867 682.7072,991.7071 688.0766,989.7112 690.9293,988.1714 693.0395,986.0579 693.5392,983.9825 693.1286,982.3662 692.2611,981.0894 690.9772,980.1981 688.9149,979.5945 688.4233,978.8498 688.5661,977.5338 689.1445,976.1304 691.9112,972.0913 691.9285,970.4547 684.5427,959.2228 682.2647,956.6908 680.9123,956.3168 679.1329,957.0518 676.986,959.1315 672.2038,964.9718 670.9333,965.9167 670.0011,966.1719 668.7506,965.9073 667.4597,965.0171 662.5305,959.5616 661.4432,959.0435 660.0264,959.2058 658.3413,960.4375 649.0255,970.1826 647.5101,970.7225 642.1466,971.4141 638.9364,972.6874 637.3291,974.4147 637.0929,975.4094 637.2367,976.7773 638.3929,979.3787 641.4614,983.7655 641.8722,984.8953 641.8803,986.1687 641.09,987.6348 637.5693,990.9089 635.6916,993.1908 632.4309,999.5818 630.9806,1003.2302 630.4321,1005.6955 630.4439,1008.0041 631.0636,1011.05 632.356,1014.8178 634.2013,1018.8615 635.9805,1021.8632 637.8275,1024.1107 640.0147,1025.7012 644.0585,1027.2645 646.109,1028.4389 653.1817,1034.4337 656.4224,1036.6859 660.7119,1038.49 665.0051,1038.9509 669.4849,1038.1303 672.8646,1036.2246 674.6259,1034.4207 676.2057,1031.9664 680.4788,1020.8606 685.2206,1012.3393 687.0682,1009.8572 688.7288,1008.1911 693.9921,1004.9752 694.1269,1004.3276 693.8417,1003.5334 690.7336,998.2274 687.1794,990.8935 686.0192,989.463 684.8815,989.5132 683.8143,990.8285 681.5704,997.0818"/>
    <polyline points="646.4312,844.0973 646.8208,848.004 647.4473,850.829 648.5187,853.5767 649.8838,855.6471 652.109,857.3709 656.6692,859.1415 658.8719,860.4683 666.308,867.9418 669.6662,870.5651 673.3657,872.0654 677.5398,872.1509 680.1389,871.5204 682.7956,870.4209 685.2921,868.9057 686.8423,867.5501 688.171,865.5406 688.5156,862.8045 687.8724,859.8092 684.9185,850.1481 683.8999,845.5349 683.4437,839.6324 683.7199,836.1522 684.1873,834.4005 684.6044,833.7844 685.3851,833.5814 690.5801,835.4368 694.8046,835.7493 698.7086,834.9396 699.4566,834.3769 699.741,833.4573 699.4873,829.1923 699.8416,822.6577 699.2284,818.9627 697.4505,815.4428 693.8757,811.4122 692.9735,810.0172 690.764,802.6122 689.2138,799.8746 688.531,799.4652 687.347,799.4449 684.4553,801.1079 669.8244,815.0274 666.6284,818.6289 664.896,821.3191 664.1061,823.8802 664.1318,825.1221 664.4629,825.6716 664.0564,824.7815 662.9925,824.4419 661.7947,824.7504 660.9353,825.5213 660.5485,827.4552 660.9345,828.4648 661.5149,828.682 661.8896,828.1787 662.0216,827.1591 661.3279,824.1687 659.7718,821.3814 657.6396,819.1795 656.5378,818.7261 655.6585,819.3317 655.0763,819.2131 647.6651,813.4463 640.5684,809.5182 634.6278,807.2161 628.7402,805.9146 624.051,805.8519 622.8602,806.1181 621.9405,806.7543 621.8388,807.6133 623.0144,811.4084 622.6083,814.308 621.0055,816.7411 615.9167,821.3441 614.4836,823.5344 614.6852,825.2571 616.3898,827.2528 619.0982,828.9721 625.3471,832.057 627.136,833.5182 627.6591,835.198 626.4425,839.0779 626.4495,840.1934 626.8816,841.1948 628.4038,842.5668 633.2623,844.9857 634.6297,846.0121 635.2829,847.1963 635.9423,851.7278 636.8021,853.4451 638.6003,855.9255 647.7426,866.916 649.7973,868.9912 652.247,870.4959 656.7591,872.0324 659.1215,873.7846 661.2395,876.8608 665.0877,884.8757 666.0433,885.9365 667.3689,886.0998 668.7836,885.1354 670.3008,883.3448 680.5568,868.2161 682.9208,863.9992 684.1161,860.2581 684.3469,857.8764 684.1888,855.3863 683.3924,851.9493 682.3777,849.3957 681.0519,847.0392 679.5121,845.0871 677.4697,843.3902 675.7826,842.655 678.3121,844.1335 680.4596,844.9016 682.2574,844.9511 684.1005,844.4828 688.0683,842.4841 692.7267,839.3404 695.1072,836.9874 696.0984,834.9279 696.0939,832.7527 694.6642,828.0939 694.2848,825.7398 695.1257,820.1268 695.0426,818.5738 694.2314,816.8071 689.8243,810.8944 689.0685,808.5876 688.783,805.0848 688.3599,805.1081 679.4053,810.7004 675.5661,813.352 662.0961,825.2269 660.9169,826.6817 660.2664,828.5181 660.3999,830.7855 660.7508,831.5757 661.3317,831.9376 661.8386,831.5072 662.0873,830.4914 661.6983,828.182 660.7411,826.7588 660.2339,826.514 659.7531,826.7032 659.9574,828.3245 660.6948,829.4374 661.3026,829.8339 661.6677,829.5859 661.6834,828.9931 660.9779,826.997 657.5282,822.0313 655.7837,820.0555 655.6324,820.2433 655.1083,819.9047 649.0452,814.3814 642.4719,810.0371 635.6426,806.913 632.1749,805.8736 628.8358,805.3307 625.6972,805.3008 621.9503,805.9341 619.0799,807.1525 617.861,808.3396 617.5726,810.1619 619.8423,815.488 620.047,818.0978 618.7172,820.565 613.3206,825.9117 612.6805,827.3716 613.0174,829.3137 614.0629,830.6998 616.2468,832.3527 624.9504,836.1416 626.9015,837.5751 627.1938,838.2418 627.1206,839.3669 624.7298,844.4473 624.6184,845.8368 624.9417,847.1039 625.6171,848.2115 626.8837,849.432 633.3962,853.2927 636.0602,855.9253 637.3116,859.0838 639.0796,867.5998 640.2872,870.3861 641.8794,871.6427 645.5916,872.0517 647.8923,873.2626 649.8778,875.3717 655.9061,883.6977 657.466,885.0502 659.0515,885.6878 660.6407,885.6219 662.2148,884.9904 663.7577,883.8903 665.7472,881.8417 678.9906,864.3934 680.9016,861.4208 681.9151,859.1038 682.464,855.0825 681.5971,851.0027 680.493,848.6797 679.0453,846.5826 674.7935,842.2877 674.4674,841.6933 674.5836,840.9449 676.8341,839.6062 688.6489,835.9461 690.9785,834.8215 692.5412,833.6919 693.6773,832.29 694.2198,831.0231 695.3541,823.3288 696.139,821.0251 696.9444,819.972 697.8686,819.6921 698.8255,820.0579 699.9949,821.128 701.453,823.2235"/>
    <polyline points="562.8141,823.2235 563.7925,830.3514 563.5177,832.606 562.9588,834.1011 560.9004,837.0343 555.4169,842.6129 552.6752,845.8489 547.8354,853.9629 545.44,855.6788 542.4263,856.3207 538.7948,856.1461 535.165,855.2628 526.9428,852.3723 523.0161,851.9137 520.2865,852.6675 508.6282,858.8522 505.2539,859.7178 503.0779,859.4333 500.8471,858.4937 498.6397,857.0311 494.7967,853.6978 493.4134,853.0279 491.5976,853.3186 487.545,855.7468 485.442,855.7876 484.2174,855.1083 483.0396,853.9417 478.8369,847.6987 476.972,845.7084 475.1347,845.2059 471.7655,846.3488 470.0334,846.4234 468.5338,845.462 467.2213,843.0051 466.3202,839.1147 466.2555,834.7487 466.9479,830.9075 469.3698,822.4482 469.1651,819.6734 469.905,818.3409 472.6744,815.3146 473.126,814.1992 472.6353,813.7178 471.4211,813.5906 469.1222,814.2301 467.978,813.4258 458.6623,795.8237 457.905,793.2615 458.1788,790.9852 459.2443,789.4938 461.5886,787.8329 464.4076,786.5762 467.933,785.6048 470.5838,785.3476 473.0778,785.6023 477.1229,787.2785 484.0323,792.3249 486.4747,793.0669 488.28,792.3217 492.1479,788.1448 494.5437,786.4209 497.6271,785.6162 500.3925,785.9568 501.8513,786.7078 503.1458,787.9345 504.2344,789.6202 505.2588,792.2285 506.0471,797.4779 505.4141,804.5155 505.6685,805.6148 506.4173,806.4139 508.2556,806.8641 510.767,806.5148 518.1716,803.431 521.3051,802.466 523.6715,802.2434 525.8992,802.5826 528.0394,803.4781 536.9935,808.6227 548.7469,813.2753 553.4184,815.5659 555.8048,817.2259 557.615,819.0098 558.8596,820.9065 559.5419,822.9005 559.4194,826.1046 557.7088,829.6212 555.3197,832.7625 544.3262,845.4212 542.2106,848.8 538.6804,856.1646 537.7862,857.4237 536.7666,858.2136 535.96,858.4357 534.5156,858.3006 528.0103,855.7917 524.7259,855.5931 522.2652,856.5404 516.5367,860.9263 513.935,862.0571 512.1299,862.1229 507.3372,861.0471 504.7949,860.975 502.1704,861.6085 496.9026,863.6701 493.8974,864.1824 491.5504,863.9776 486.9448,862.8502 485.0699,862.885 482.8748,864.0656 477.8494,868.9245 476.7088,869.4691 475.639,869.3401 474.0854,867.3521 471.6259,860.8598 470.4101,858.7268 469.4945,857.9406 468.4589,857.5954 464.8383,858.0758 463.6848,857.8409 462.5381,856.2793 462.0493,853.9389 462.3237,850.2627 464.191,845.7732 466.9044,841.8218 473.6449,833.6229 474.6074,832.0988 474.6007,830.503 471.6,826.4772 471.1378,825.4539 471.0798,824.4573 471.8977,822.8068 476.3006,817.4073 477.1227,815.2613 476.9436,814.0101 476.3793,812.8684 471.4384,806.4603 468.2279,801.261 465.9633,796.4219 464.17,791.3758 463.6036,788.2361 464.0281,786.5513 465.3739,785.2335 468.1168,784.1299 472.6768,783.713 475.1942,784.1731 476.9505,784.8876 480.0503,787.1585 484.9213,793.0329 486.3698,794.0551 487.8034,793.7992 491.1121,791.0903 493.4557,789.9638 495.9534,789.8438 498.4598,790.8729 501.2033,793.3319 503.7892,797.1679 505.3643,800.9666 507.1257,807.8993 507.6083,808.7967 508.2878,809.2992 509.2232,809.3215 510.4384,808.809 516.6572,804.4073 520.4481,802.3334 524.1796,801.028 527.7629,800.4409 531.1461,800.53 533.8781,801.1671 548.7158,806.8874 554.8026,809.8863 558.5296,813.0045 559.663,814.5369 560.7652,816.7705 561.4149,819.202 561.6043,821.777 560.9296,825.689 560.0534,827.5922 558.7692,829.4325 556.5239,831.7825 549.1004,838.4159 541.1485,847.0296 537.3379,850.4145 532.6357,852.9471 522.893,856.237 521.2258,857.2967 517.2969,860.6392 515.9953,860.7734 512.9147,860.1127 511.311,860.1943 509.7666,860.8713 506.4954,863.2914 504.638,864.1661 502.2379,864.3046 497.4915,862.876 495.3808,862.5938 492.7585,862.8788 487.3894,864.3102 485.3253,864.0952 483.438,862.6811 479.3595,857.2574 476.8849,854.5883 466.7004,847.064"/>
    <polyline points="358.0636,823.2235 354.7907,820.592 352.3853,819.0666 350.679,818.4864 349.2243,818.7262 348.4302,819.4256 347.5047,821.1274 345.7834,827.6365 344.9083,829.8695 344.0153,831.1178 341.6019,833.4175 341.5466,834.3613 342.12,835.7062 348.2941,845.8863 348.5223,847.0956 347.8901,848.0766 345.1039,849.1508 340.6117,849.893 337.6631,849.9902 332.9573,849.6339 332.7947,852.3054 331.9547,854.0576 329.7047,856.0623 327.3779,856.9605 326.0228,856.9904 324.3794,856.4241 319.939,852.3465 318.9713,851.9949 318.1874,852.1497 316.1684,853.662 308.059,861.7566 298.2316,870.7946 296.297,871.99 295.5038,871.9908 294.823,871.4703 294.0052,869.7425 293.282,866.4429 292.9737,863.0283 293.0908,859.9509 294.2581,855.4289 297.7608,847.8506 298.258,845.8349 298.3249,843.8929 297.3523,840.7535 293.7378,835.2932 291.5061,831.0689 290.8239,828.9598 290.9688,827.1656 291.8481,825.711 293.5007,824.3355 295.5851,823.3351 298.5355,822.5216 302.1892,822.0035 306.3436,821.8957 309.382,822.3311 310.914,823.1839 309.8755,823.2056 307.917,822.0966 305.8136,820.1114 303.4177,817.1847 291.464,800.7623 289.9348,797.8388 289.463,795.2048 290.0233,793.4261 291.3464,791.8041 299.1325,785.9296 305.1447,780.0826 307.2782,778.6683 309.1571,777.9687 311.6892,777.6209 313.7898,777.8169 317.4621,779.2218 324.1959,783.4733 326.8837,784.2138 329.1001,783.875 334.1587,781.4246 336.8715,780.5037 338.9727,780.2998 341.0232,780.9942 342.9615,782.8433 345.0688,786.1985 346.8607,790.4491 347.5353,793.6977 347.5357,795.4904 347.0783,797.7102 343.5821,804.9961 342.994,807.7016 344.5091,807.9138 353.8153,806.4488 356.1234,806.5324 357.6853,807.0038 359.4756,808.2661 361.0908,810.6769 362.1006,814.0651 362.0986,816.7632 360.9218,819.5647 357.9559,822.9311 350.5695,829.1854 344.5121,833.0767 342.9889,834.76 342.4197,836.2742 342.3162,838.0827 343.8588,844.7593 344.0281,847.1009 343.2945,849.4001 341.5766,851.1522 339.3811,852.4095 336.7953,853.1381 334.6991,853.1547 330.1096,852.3037 328.1278,852.5814 325.8884,853.9549 321.95,857.6756 320.1803,858.4401 319.1336,858.2326 318.1107,857.4953 313.41,852.2106 312.2051,851.6181 311.2647,851.6678 310.024,852.4459 307.9897,854.6829 302.6507,862.8459 299.4812,866.6224 297.2306,868.7401 296.0177,869.4997 294.9547,869.5632 294.3419,869.0784 293.3712,866.8306 292.7703,863.5942 292.5784,860.1946 292.8385,856.9685 294.0477,852.5236 298.1603,843.2571 299.1391,839.0099 298.9398,835.5119 296.9914,829.2462 296.4526,826.4811 296.6564,823.8742 297.4463,821.9674 299.1191,819.8845 301.253,818.193 307.4233,814.3317 310.2913,813.2313 313.4328,812.7421 316.9922,812.8583 320.4331,813.5732 324.2377,814.8612 320.1918,813.1005 315.5967,810.5112 312.3799,808.289 309.3987,805.7052 306.8684,802.8182 305.3492,800.5199 303.8783,797.3738 303.0698,794.224 303.0537,790.3822 304.5153,785.9391 310.4195,775.9224 314.2249,768.6136 315.084,767.4207 315.9953,766.7523 316.9795,766.748 318.04,767.4851 321.5587,771.8944 323.192,773.5023 324.8071,774.4469 325.9769,774.646 327.438,774.1498 328.7395,772.8307 330.0676,770.5009 331.3885,767.251 331.7875,766.9863 334.9662,787.9186 334.4958,791.1407 331.5958,797.9642 331.4688,799.5822 331.7968,800.6618 333.566,802.3552 335.4118,803.0337 337.0456,803.2626 340.0521,803.11 347.4978,801.6587 349.2177,801.7489 350.8287,802.2881 353.2382,804.1729 355.5462,807.324 356.4974,810.0826 356.2581,812.2187 354.5615,814.7354 349.2998,819.1129 347.6277,820.9555 347.1857,822.5965 348.0497,825.4903 347.4688,826.7523 345.0458,827.9958 338.4889,829.8534 337.116,831.0452 337.0764,832.0795 337.4123,832.9098 341.1815,838.0745 342.3577,840.6064 342.2515,842.7347 341.485,843.789 340.2531,844.679 338.1176,845.6199 335.0959,846.3823 330.3197,846.4746 328.1441,845.9389 326.1742,845.0531 321.9556,841.6435 321.656,845.6224 321.2294,847.3738 320.0736,848.7524 318.3071,849.1367 316.6322,848.7483 314.889,847.8098 312.8001,846.1193 308.8775,842.1835 308.1275,841.7357 307.4019,841.7096 305.7836,843.3588 299.6867,853.2665 294.9629,859.0338 292.8311,861.0123 290.0164,863.0118 287.3545,864.2871 284.9899,864.9319 282.669,864.6746 281.984,864.129 281.2438,862.8151 280.7939,859.6535 281.4494,855.2305"/>
    <polyline points="194.6449,823.2235 196.1061,821.0934 197.5425,819.6239 198.6422,819.0628 199.4838,819.3437 199.7372,820.6115 199.3804,821.8673 198.4917,823.2739 197.0921,824.6965 192.3518,827.8415 185.1016,831.141 180.7298,832.3767 177.3,832.7135 173.0119,832.3811 166.6243,831.0418 165.647,831.2462 165.5703,832.9909 166.6781,836.1505 172.2072,845.4588 172.5148,846.8794 172.2944,848.2129 171.2594,849.9271 167.9117,853.8966 166.4188,856.3245 165.3691,858.9838 162.9163,868.154 161.3029,871.4324 159.031,874.6905 155.6466,878.2203 151.2591,881.323 147.4918,882.9523 145.6934,883.0841 144.5452,882.7308 142.401,880.7153 140.0559,876.3561 137.8054,870.2477 136.2647,863.9546 135.5609,858.7858 135.3738,853.9828 135.6589,849.7954 136.712,843.3094 136.5256,840.7648 135.0426,838.3688 130.2405,834.4675 129.1624,832.2628 129.3941,831.0588 130.6982,829.4958 137.487,824.2505 141.1632,821.8212 130.8088,823.5849 127.7779,824.5599 123.0646,826.6372 124.3194,824.4191 124.7721,822.259 124.5299,819.8864 123.7625,817.9394 122.032,815.3953 115.4773,807.9859 111.2451,802.5114 104.4292,792.5294 102.2592,788.0333 102.067,786.0138 102.4264,784.7673 104.3683,782.5331 109.6824,779.473 116.5415,776.7873 121.0115,776.0368 123.1649,776.2378 125.3434,776.8723 129.2109,778.8652 138.049,784.8066 141.1688,786.121 143.6384,786.0501 148.3675,784.1186 150.6199,783.5338 153.0019,783.3769 154.8682,783.879 156.6881,785.1484 158.7582,787.517 165.056,797.8206 166.5645,799.1705 168.0369,799.8436 169.7308,800.0232 171.3362,799.7438 179.9139,796.69 181.6568,796.5749 183.2003,797.0521 184.8754,798.7098 186.1085,801.1178 188.4354,808.8845 190.6907,814.9605 191.365,817.9315 191.5336,820.5763 191.3245,822.7026 189.8825,826.6623 187.7223,829.0868 183.6637,831.1552 177.2363,832.7891 171.1783,833.2534 165.8159,832.6507 158.0975,830.3294 156.7701,830.4423 156.1725,830.9607 155.8041,832.4407 156.1084,834.5192 159.7018,842.4453 160.4394,844.7925 160.5491,846.9122 159.9975,848.8999 158.5211,851.3177 154.6112,856.2349 152.9853,858.9054 148.6162,871.3433 146.7563,874.9831 144.9048,877.8069 141.0724,882.2919 137.4558,885.5583 135.0114,886.8172 133.8081,886.8852 132.6319,886.4146 130.4149,883.7781 128.4759,879.8411 126.6218,874.7071 125.6237,869.7345 125.5244,866.7834 125.8221,863.8629 128.8918,853.138 129.219,850.9761 129.0489,849.7598 128.4949,848.8678 127.5963,848.2669 126.0094,847.8448 121.7198,847.5702 120.8736,847.146 120.5105,846.2728 121.0983,844.3486 122.43,842.4797 132.0605,832.7006 133.465,830.8504 133.722,829.7503 133.2932,829.3552 132.2168,829.159 127.0474,829.3929 123.6338,829.0719 120.667,828.0996 118.7066,826.5383 118.587,825.6653 119.2668,824.8119 124.778,822.2211 125.3254,821.4548 119.0014,817.2521 113.9503,812.6008 107.8101,805.2118 103.0353,797.882 101.3619,793.95 100.9868,791.7289 101.0853,790.3195 102.2375,787.6928 105.044,784.8053 110.2911,781.1405 116.6778,777.7284 121.2564,776.3706 125.7119,776.1821 129.6948,776.8161 133.5365,778.0418 137.6062,779.9377 145.6263,784.574 153.0154,786.5476 155.4044,787.5095 160.257,790.8964 168.4166,798.4086 170.548,801.1909 174.0466,807.841 175.5493,809.6812 177.3251,810.4844 181.4275,810.2348 183.888,810.5976 185.9135,811.5062 188.3044,813.4278 191.7771,817.6017 197.2419,825.5175 199.155,829.2516 199.7689,831.9589 199.6179,833.7298 198.8853,835.4552 197.9233,836.7036 196.1109,838.275 193.7514,839.6908 190.9385,840.8862 184.2826,842.6418 179.5716,843.142 176.1691,842.8638 171.7639,841.5566 164.2998,838.2969 162.4711,838.1023 161.1735,838.7565 160.5411,839.8539 160.2612,841.332 160.4462,847.4928 159.9951,850.8569 153.4464,869.5809 150.8374,875.9458 148.6632,880.0293 146.1562,883.049 144.0141,884.2079 142.5942,883.9942 141.6078,883.2756 139.079,879.6082 134.6603,870.7135 129.8457,859.9097 127.5893,854.0673 125.5585,847.4753 124.7208,846.4111 122.8404,845.3175 122.3233,844.4993"/>
    <polyline points="123.1604,677.6311 122.8756,681.3695 123.2058,682.9836 124.094,684.8694 130.9618,691.9981 135.0308,699.5905 136.1311,700.4075 137.8523,700.3266 146.8263,696.0195 148.8191,695.559 152.1585,695.3263 154.7953,694.3914 157.3115,692.8666 160.76,690.2299 163.6587,686.9356 164.3402,685.3569 164.6657,683.601 164.3978,679.5744 161.691,669.6778 160.5484,666.8668 159.6971,665.8744 160.5402,667.3406 162.0406,668.817 163.2698,669.3853 165.0097,669.3435 175.9523,664.8972 178.0631,663.5038 178.75,662.2634 178.4994,660.9187 177.226,659.0763 169.6455,651.5847 165.6126,649.2748 163.5181,648.7536 161.9844,648.8536 163.3756,649.1129 166.751,648.8686 170.2355,648.4033 171.372,647.9137 164.442,644.8801 162.8464,643.5914 162.1992,642.1558 162.4043,640.8159 163.4608,638.951 171.3271,630.4535 172.8745,628.1832 173.5745,626.3665 173.7488,623.7791 172.9195,620.2847 170.9134,615.9568 168.8491,612.8971 167.5582,611.6631 166.2478,610.983 164.4355,610.7924 162.5293,611.148 159.0774,612.868 153.5139,617.4261 152.2537,617.8532 151.4345,617.7957 150.2208,617.236 149.0033,616.2133 141.6037,607.7481 138.8743,605.4921 137.1946,604.8437 134.9643,604.8078 132.2393,605.6492 130.0883,606.893 126.2793,610.1838 123.2973,613.7126 121.8739,616.9126 121.8495,619.6383 123.0071,623.3253 128.418,634.0258 130.1067,638.4107 130.349,641.888 128.8404,645.8754 128.7689,646.7739 130.0805,647.2843 132.6848,646.9966 136.0814,646.0119 137.0382,645.0982 136.4861,644.1728 134.9718,643.1621 132.9636,642.3091 130.9928,641.8727 129.2294,641.9157 127.638,642.3617 126.2364,643.1224 125.2146,644.1311 124.8941,645.0865 125.0279,645.8774 127.1815,649.563 127.8207,651.7084 127.8256,654.0395 127.0565,656.9992 125.4082,660.4339 122.9095,664.5515 112.365,679.224 110.6653,682.4217 110.4061,685.1753 111.3901,687.4821 119.648,696.5387 120.5714,697.0115 121.9505,696.8552 129.1077,693.0397 131.8065,692.0871 133.9837,691.8946 140.9122,692.172 143.9782,691.7943 146.9126,690.6863 149.4303,688.8479 150.9574,686.76 151.9648,683.9292 152.5008,680.3046 153.44,666.0139 154.0713,663.0953 155.1083,661.7259 156.1235,661.7782 158.0321,662.5297 167.7293,667.5977 171.5478,669.058 174.5166,669.5836 177.4844,669.5579 179.8082,669.0159 180.5636,668.2518 180.1886,667.2311 178.5297,665.6736 170.9215,660.8732 166.3634,659.2974 164.5318,659.1193 163.119,659.3255 170.4559,655.1799 172.4199,653.6923 173.1265,652.6235 172.8685,652.2424 172.175,652.2321 168.3875,653.6913 167.0152,653.7853 165.6025,652.9467 164.8013,651.0097 164.8136,648.1755 165.6559,644.7871 167.2328,641.2278 171.0836,634.3835 171.7836,632.3808 172.0548,630.3715 171.6395,626.9493 170.4754,623.3591 167.2212,615.8401 165.0069,612.1479 163.7596,611.0002 162.4002,610.3967 160.4408,610.2953 158.3873,610.7927 155.343,612.5352 150.5371,617.3748 149.4361,618.0998 148.7408,618.2078 147.0693,617.2681 141.7361,610.4492 138.3045,607.3188 136.7289,606.5876 134.6266,606.3018 132.6032,606.6815 130.6947,607.6995 127.0561,611.3687 121.6567,618.6996 120.386,622.153 120.2712,624.4273 120.6142,626.877 122.9998,633.9047 124.9338,637.7941 126.4733,640.0301 128.3425,641.7619 135.4582,646.3091 140.2669,651.0711 139.1863,650.2808 137.8898,650.1711 136.3358,650.8022 134.6075,652.1675 133.4104,653.7136 133.0147,654.9581 133.1935,655.9213 134.2196,657.4456 134.077,658.0226 127.8573,662.61 123.1534,667.8471 121.2935,671.0259 120.2877,673.7529 119.6401,677.2703 119.5199,681.3279 119.9152,684.6788 120.8797,686.9459 126.2398,691.7361 131.7301,699.8439 133.6186,701.4047 135.1612,701.5968 136.796,701.1353 142.9212,697.9157 145.4451,696.9088 147.4061,696.5335 151.7969,696.3546 154.4532,695.7261 158.042,693.8329 159.942,692.1978 160.8712,690.972 161.5477,688.9818 161.4021,686.7534 157.5139,674.2469 156.2071,668.2713 155.5326,663.5763 157.4646,665.509 159.5618,666.9846 161.7189,667.8822 163.6611,668.1873 166.8948,667.9842 171.5041,666.8757 174.3903,665.6355 175.6753,664.3303 175.8362,662.7746 175.0732,660.6345 173.1998,657.4998 170.8639,654.789 168.5181,653.0811 166.0931,651.9742 157.5693,649.9365 159.5546,649.3652"/>
    <polyline points="294.0912,675.3059 289.7408,683.595 288.7584,686.7134 288.3039,689.8587 288.474,693.842 289.5295,697.8862 291.1132,700.277 293.0191,701.0703 296.0983,700.508 299.5271,698.4534 302.627,695.229 307.9067,687.6993 309.4857,686.3698 310.5359,686.1167 312.6386,686.8329 315.8371,689.5108 318.5652,692.5085 323.542,699.148 325.7438,701.2238 326.8375,701.7621 328.4646,702.008 331.6421,701.3947 334.6935,700.1715 338.6601,697.9848 342.1278,695.6886 344.5266,693.6184 346.7062,691.0146 348.1617,688.5308 349.2437,685.7678 349.8647,682.8504 349.9912,679.8999 349.4714,676.2581 348.4949,673.3739 346.9673,670.5022 344.847,667.7099 342.893,665.78 337.2064,661.8655 336.6497,661.2187 337.2839,660.6022 342.9269,658.4386 345.4665,656.3491 346.1692,654.8851 346.4595,653.3101 346.3173,648.2179 345.5307,646.924 343.8837,645.9878 335.4778,644.2617 332.7849,643.32 330.9521,641.865 329.0915,638.9503 327.9858,635.7299 327.9919,632.7533 329.0338,630.3459 331.4721,627.9578 328.609,627.3436 326.7541,626.6208 325.5756,625.8181 324.8835,624.7565 324.8309,622.8611 326.1732,617.1053 326.6082,613.3828 326.4434,608.7264 325.553,605.4695 324.7609,604.631 323.5159,604.5635 317.2931,607.8456 314.4064,608.5535 311.3673,608.1114 302.6967,605.5223 299.8367,605.4918 299.5582,606.0337 299.9857,606.9113 304.0974,612.0352 307.0266,616.5032 308.0276,619.1981 307.904,621.4582 307.0793,622.6715 305.8099,623.2224 300.7607,622.8452 298.5373,623.3717 295.8788,625.0713 293.5571,627.4067 292.702,629.0602 292.5736,630.5659 293.0107,632.2046 294.7525,635.7506 294.939,636.837 294.747,637.9223 293.6157,639.7432 288.112,645.7835 286.6816,648.4795 286.2221,650.7033 286.3655,652.3979 286.8924,653.981 288.9001,656.81 292.4257,659.4753 300.5365,664.1919 302.1294,665.5402 302.8508,666.9475 302.8223,667.9264 302.1932,669.4894 298.4064,675.3157 296.7322,678.6451 295.3741,682.4669 294.6549,685.6133 294.1846,690.0689 294.2777,694.6158 294.9153,698.8616 296.0802,702.101 297.2578,703.4311 299.1392,703.7798 301.8175,702.8808 305.8611,700.5601 308.8072,698.2543 311.1347,695.8308 317.4762,686.8934 318.4004,686.2167 319.2951,686.0469 321.0373,686.8602 323.7023,689.5993 331.2355,700.1395 333.7204,702.8992 336.2124,704.2562 338.0126,704.3741 339.6995,704.0279 342.1751,702.9894 344.2091,701.6842 345.8552,700.1464 347.4584,697.9229 348.8172,695.1178 350.0001,691.5811 350.7256,688.1202 351.0039,684.3881 350.8252,681.355 350.2579,678.3617 349.2585,675.4275 347.7679,672.5492 344.5036,668.4083 337.7942,662.8833 336.7277,661.3844 336.8246,660.759 337.5649,659.9209 342.9692,656.7178 345.0443,654.4259 345.5531,652.5774 345.6953,648.3053 345.529,646.3487 345.0029,644.802 343.9261,643.3158 342.2329,641.9501 333.363,636.9862 331.3658,636.2799 327.2643,635.668 326.2665,635.0797 326.5886,634.2388 329.6251,630.9009 330.9007,629.0557 331.8041,626.944 332.0824,624.8803 331.8468,623.6873 331.0026,622.9127 327.2865,623.4181 328.455,621.0465 329.1144,618.8479 329.2702,613.6892 328.053,608.2362 325.5116,602.8429 322.8837,599.2711 321.7513,598.4878 320.6479,598.2663 318.8949,598.8882 315.5334,601.6663 313.7029,602.7213 308.1444,603.7849 305.3933,604.7993 303.2794,606.2149 301.9427,607.5739 300.9672,609.1045 300.4169,610.7274 300.3006,613.471 301.4479,620.8767 301.1546,623.4039 300.4605,624.0577 297.7384,624.4899 295.9138,625.6073 290.3566,631.6559 283.8959,637.748 283.1452,639.1474 283.0784,641.0166 286.1608,647.2074 286.4321,648.7274 286.2523,649.7966 285.468,651.1766 284.0028,652.5693 276.9313,657.2848 276.2811,658.1566 276.0656,659.0444 276.7475,660.8553 278.3991,662.7087 284.3847,668.0129 287.9934,670.5168 292.0912,671.9739 299.4252,672.5171 300.4128,672.8682 297.6094,677.5592 295.7968,681.9642 294.5159,687.5766 294.1754,692.7266 294.5838,697.8334 295.796,702.6348 297.7652,707.0024 300.2994,710.2539 301.4193,710.922 303.173,711.101 304.9824,710.4402 306.8151,709.1361 311.5733,703.8389 318.4311,693.7552 320.2893,692.3894 321.8882,692.5664 323.6819,693.8683 325.7141,696.2521 331.7556,704.856 333.7144,706.5496 335.0156,707.0061 336.9305,706.8217 338.7818,705.9816 352.0248,697.5909 354.7163,695.2527 355.6971,693.0756 355.6295,690.564 354.2497,685.4633 352.0009,679.1957 348.789,673.0754 342.1342,664.2377 340.8154,661.406 340.8556,660.5721 341.3936,659.6382 345.2497,657.348 345.8681,656.5495 346.1708,655.5174 345.8752,653.1859 343.3514,647.0452 343.2191,645.5174 343.8737,645.3069 345.1033,645.7735 351.1183,649.3652"/>
    <polyline points="461.5732,675.1351 462.7106,677.6606 462.9483,680.0165 461.1616,689.6957 460.9282,693.7534 461.4503,697.4966 462.0,698.8605 462.7225,699.6929 463.5953,699.9825 464.5927,699.8364 468.6893,697.5642 473.7006,693.6177 479.78,687.5495 481.1435,686.5814 482.3882,686.1728 484.3063,686.5346 486.2365,687.952 491.7776,695.4707 493.8402,697.3173 494.8638,697.576 496.3509,697.2096 498.9951,694.8567 501.0473,691.7515 504.0507,685.2145 505.7054,682.3176 507.6372,679.8156 511.2745,676.0133 512.2927,674.431 512.3936,672.2195 510.3326,667.5285 510.6515,665.7833 512.2539,664.3702 517.0589,661.9667 518.0989,660.658 517.7306,659.6009 516.4441,658.4225 509.5567,654.3371 508.785,653.4523 508.5524,652.549 509.5528,650.3694 515.1595,643.7308 519.3216,638.1555 520.9814,635.0926 521.7458,632.3382 521.8295,629.671 521.2322,626.729 516.6712,613.8343 515.0847,610.1819 513.4406,607.9959 511.9008,607.2036 510.1964,607.1001 503.7995,607.6634 501.1755,607.3238 497.6528,606.3509 493.5686,604.4303 487.145,599.8284 485.7454,599.2605 484.344,599.1668 482.4893,599.7338 480.6572,600.852 473.5721,606.1777 471.3882,608.1581 469.2378,611.606 467.0886,618.1357 465.7683,619.7175 464.327,619.7764 459.4682,618.1134 455.6868,617.2657 451.206,616.9168 447.3038,617.082 442.3793,617.9178 438.6886,619.1428 435.4654,620.8574 433.0276,622.9972 431.6937,625.4612 431.4727,628.7903 432.3584,632.7635 435.2103,640.3442 435.9267,643.0119 436.0874,645.6034 435.5689,650.5717 436.0783,652.9441 438.0348,655.655 445.4354,662.2266 446.7382,664.2218 448.016,667.5478 448.915,668.7357 450.5983,669.9455 458.0429,673.8889 460.3308,675.7898 462.0876,677.9578 462.7328,679.5585 462.8614,680.8799 461.0405,689.7111 461.0833,693.3522 461.6185,696.3965 462.9797,700.672 464.9215,704.4749 466.622,706.1493 468.4289,706.4465 470.8822,705.2756 473.8735,702.4439 477.1955,698.2763 482.5641,690.6058 484.3278,689.055 485.3356,688.9744 486.7092,689.8684 491.603,697.3014 492.5335,698.2442 493.481,698.7101 494.9124,698.5308 496.3206,697.5661 498.4822,695.0522 500.2102,692.2254 503.8814,681.4951 505.4376,678.9263 508.9332,674.5483 510.0008,672.5408 510.26,670.4944 509.6617,665.6388 510.2915,663.041 511.6985,661.1502 516.5417,657.6057 517.6001,656.1034 517.5728,654.9258 516.7327,653.2137 515.0332,651.3141 511.3721,648.0921 510.8567,647.2316 510.9187,646.4886 512.0044,645.4274 521.6497,639.6752 523.4369,638.0039 524.0662,636.7611 524.0051,635.3909 522.2628,630.5219 520.176,620.7396 519.249,613.4438 518.2309,608.7331 516.9262,605.1805 515.5008,603.6548 514.5213,603.5292 511.57,604.268 509.5515,604.2761 507.8705,603.7503 502.5235,601.1815 495.3942,600.5608 492.9249,599.4791 488.6889,596.5029 485.8005,595.7795 482.2407,596.1165 480.0937,597.3016 477.9181,599.7602 471.8409,608.4237 469.3181,610.6526 466.9853,611.6386 464.3004,611.757 461.2116,611.0698 451.7817,607.1618 448.7333,606.2066 445.0165,605.8313 442.283,606.5015 441.0836,607.5319 440.5094,608.8848 440.3626,611.0408 440.7174,614.1147 441.9566,618.7818 446.302,631.2352 447.9107,639.5229 448.9784,642.5381 450.8675,645.4314 455.9356,651.0839 459.1123,657.2375 461.1425,659.071 469.2957,664.805 471.6159,667.3942 472.695,669.5576 473.0628,672.8193 471.8847,681.2767 471.8948,687.7785 473.077,695.4501 473.8922,697.637 474.933,698.7399 476.2012,698.7796 477.6818,698.1348 482.966,694.3538 486.6406,690.4908 491.5758,683.999 493.418,682.6399 494.6602,682.6896 496.1862,683.7106 501.7101,690.4763 504.1764,692.5651 505.8027,693.0926 507.5044,693.0855 511.4473,691.886 513.3794,690.8025 515.1415,689.1792 516.1558,687.5234 517.4936,684.2249 518.8157,682.3896 525.4065,676.8077 526.2001,675.4526 526.2101,673.7505 525.6002,672.4369 523.4973,669.6047 523.2892,668.349 524.1818,667.5205 528.3652,665.7438 530.0016,664.718 530.6739,663.7767 530.6173,662.2812 528.8127,659.5438 524.726,655.8059 520.1772,652.6123 514.339,649.3652"/>
    <polyline points="652.0145,673.8769 653.2887,673.5794 654.6872,672.7577 663.2472,666.1719 665.345,665.0161 666.4483,664.81 666.5975,665.345 665.4804,671.5999 665.5624,677.7576 666.5893,684.3155 667.3226,686.0735 668.2231,686.6866 670.0605,685.8974 674.5561,682.3624 676.6441,680.2579 677.9968,678.0041 678.3362,676.6729 678.3199,675.0327 676.7649,670.2128 676.382,667.2655 676.6195,663.9589 677.4714,662.0574 678.0455,661.8847 679.0002,662.2075 681.943,664.5497 688.8329,673.045 690.1906,673.4639 691.832,672.6839 693.3339,671.1191 697.1657,665.9125 702.7542,659.4858 704.899,655.8694 705.3721,654.2667 705.5317,652.1207 704.3639,646.0407 704.3684,644.1994 704.8603,642.3849 707.3348,637.2839 708.1784,634.773 708.5711,631.9002 708.3889,628.7497 707.8389,626.4499 706.9044,624.6135 705.5622,623.6425 703.8016,623.624 699.9742,625.0664 687.657,631.1783 667.8348,641.7313 665.8245,642.168 664.1128,641.6759 663.1581,640.0299 663.1147,638.7309 663.381,638.1235 663.7812,638.5564 664.2498,640.1327 664.4734,643.8594 663.629,648.0761 663.0619,649.1469 662.495,649.4613 661.9968,648.9652 661.9268,647.8919 663.3153,643.9575 663.5659,642.033 663.0717,639.7802 661.7107,637.0337 658.4812,632.5506 655.1684,629.239 653.4078,628.0437 651.7627,627.3571 650.4173,627.1859 649.3334,627.5642 649.057,628.3772 649.3039,629.4671 651.384,634.0041 653.2429,636.488 656.8622,639.9462 657.4536,641.3032 657.0143,642.4013 655.452,644.0857 645.2354,652.5902 647.5746,651.1749 650.3386,651.0452 654.6752,652.1647 655.5982,652.8086 655.952,653.5986 655.1397,655.5443 652.0451,659.1205 649.183,661.7062 645.5887,664.2071 647.5401,662.8026 651.5462,658.7391 653.2362,657.4323 654.0507,657.1289 655.1927,657.1695 656.1874,657.7198 656.9745,658.6467 657.6128,660.2418 657.6828,662.5327 655.0695,671.441 654.4604,676.7457 654.7387,680.3266 655.2737,682.597 656.0271,684.1416 657.2599,684.8768 659.3096,684.1361 661.3003,682.362 663.1307,679.631 667.5974,671.0816 669.3406,669.0603 671.9151,667.2045 672.0338,666.3148 671.3142,662.6478 671.1829,660.3154 671.5688,657.9753 672.5967,656.3737 673.7666,656.0184 675.7254,656.566 683.8975,661.8907 687.9752,663.8301 689.5624,664.2113 691.4687,664.243 693.0381,663.7893 694.1476,662.9456 694.7856,661.814 695.4969,658.7296 696.3538,656.9001 697.9237,655.0189 703.294,650.0259 704.9414,647.2175 705.1064,645.7872 704.8572,644.3856 702.3636,639.9802 701.9891,638.6139 702.4894,636.8176 704.7348,633.1621 705.7353,630.7612 706.0943,627.9279 705.817,625.5978 704.6903,622.5883 703.8023,621.3754 702.7023,620.5308 700.6731,620.0901 697.3351,620.8184 691.3192,623.6131 679.4792,630.2756 673.2378,634.3115 664.8813,640.5006 662.3661,641.8239 664.9335,637.6473 665.7143,635.4813 662.7851,639.2118 661.7927,639.943 661.3602,638.0967 651.6313,624.5712 650.0036,623.1887 648.8636,622.6676 647.0864,622.5307 645.2549,623.0199 642.833,624.3101 640.7166,625.9919 639.3609,627.8329 639.0235,629.2552 639.3402,631.1971 641.3187,636.6643 641.0362,642.874 642.1595,644.1512 644.8752,645.0967 640.603,646.2404 640.0632,646.7963 639.9975,648.1231 639.4675,648.9884 636.5773,650.3048 640.8232,649.5989 644.033,649.5944 646.9337,650.2999 648.7348,651.7717 649.0265,653.372 648.3672,655.1837 646.9625,657.0624 642.7684,661.2178 642.285,662.0316 642.4772,662.5644 643.6731,662.215 645.456,660.7617 649.9571,655.0944 651.1795,653.9613 652.7157,653.6212 654.0231,654.5595 654.9299,656.4365 655.3109,659.5828 653.9387,669.7752 654.1295,674.1541 654.6129,676.1039 655.6093,678.2917 656.9083,679.8897 658.375,680.8013 660.2215,680.8922 661.8438,679.9768 663.1099,678.3484 665.9138,673.1361 667.1974,671.8318 671.0453,668.957 672.1342,667.6985 672.5609,666.3894 672.127,664.86 670.9176,663.7578 669.4604,663.3361 676.068,666.5531 684.3861,672.0176 687.5762,673.7283 691.3117,674.6731 692.9116,674.5959 694.3404,674.0822 695.899,672.5405 704.4815,661.1628 708.5276,655.099 711.8099,649.3652"/>
    <polyline points="647.9972,487.5847 652.5884,494.6485 654.8138,496.9041 656.9276,497.5295 660.5464,497.0786 661.8609,497.2944 663.0728,498.0055 667.3106,501.8327 669.8993,503.6986 672.3927,504.7564 674.919,504.8699 676.8156,504.0432 678.2293,502.3071 679.0506,500.2891 680.9675,493.4135 681.8795,491.5762 682.8506,490.4952 684.1155,489.8039 685.7505,489.4747 693.8533,489.2515 688.45,486.1136 684.4255,482.4918 682.8473,480.4099 682.1849,478.9277 682.0386,477.6703 682.4879,476.5456 683.1659,476.1685 684.0659,476.1325 691.9584,477.569 700.5114,477.7824 696.656,477.7635 691.6536,479.2115 690.3856,479.1666 689.3127,478.4025 686.7741,474.8038 685.3102,473.3505 683.8741,472.8016 680.5532,472.5902 679.7469,472.0026 679.6652,471.0254 680.0296,469.5467 685.3359,454.5382 686.3942,449.269 686.4877,444.8806 686.0701,441.0576 685.2266,437.5431 684.0305,435.4601 682.9706,435.1624 681.428,435.8903 679.3898,437.8129 675.6941,442.5957 674.8927,443.0968 673.6987,443.0996 672.0992,442.0528 669.6026,439.4336 659.686,427.3813 655.9018,424.1947 653.7452,423.3562 651.0377,423.259 647.7356,424.0613 643.8356,425.8034 639.7311,428.708 637.6537,431.5831 637.1468,433.2182 637.0531,435.5561 638.1671,439.3708 640.7644,443.3763 646.4216,449.9013 652.3714,457.4199 656.3139,460.7828 662.2918,464.3175 663.1493,465.4636 662.3106,466.3713 657.0066,468.992 654.6192,470.7612 654.0273,472.3872 654.8737,475.1424 654.9389,476.6963 654.4654,478.1544 653.4928,479.782 650.4591,482.9977 642.3996,488.5696 640.8913,490.1698 641.0126,491.4074 643.9464,494.1716 644.9292,495.9668 645.1771,497.8108 645.1707,504.4627 645.4885,506.1968 646.0697,507.2986 646.6705,507.6044 647.3908,507.5226 651.1722,505.5721 652.767,505.5416 654.7172,506.9112 662.2472,514.2494 664.647,515.0754 666.8821,514.3171 668.332,512.8553 669.513,510.4513 669.9898,507.8497 670.1977,503.1784 670.6472,501.826 671.2732,501.1085 672.1673,500.6784 673.7494,500.5395 679.5042,501.5086 682.1097,501.4622 684.2434,500.5708 685.5872,498.9111 685.9205,497.1847 685.3607,494.7674 683.746,492.2989 678.7444,487.3209 678.3123,486.1192 678.7723,484.6364 680.4936,482.9813 682.8849,481.5329 694.7678,476.2897 696.1139,475.1256 696.6719,473.4691 696.3583,472.2449 695.6276,471.1519 693.5333,469.8707 691.002,469.3791 682.0548,468.6928 680.3223,468.2662 679.4872,467.6507 679.7631,466.1878 683.5744,460.1896 682.3291,460.4883 680.2251,459.7221 678.6469,458.4787 678.0191,457.2018 678.1379,455.1778 680.0541,448.2112 680.469,444.1906 680.0292,436.2671 679.4759,433.699 678.7015,432.2946 678.0641,432.1054 676.9388,432.6203 669.4224,438.7264 667.7072,439.1795 666.076,438.8995 664.0035,437.8581 661.7343,436.088 652.0249,426.5789 647.7506,422.858 645.0136,421.3088 643.5518,421.0272 642.2099,421.1959 639.675,422.574 633.795,427.4456 625.1645,433.994 623.1967,436.5601 623.0015,438.5506 624.1266,441.2705 626.2145,443.9956 638.9751,457.0175 644.4112,461.227 651.1883,464.888 652.2852,465.7354 652.4024,466.2173 652.0414,466.8897 648.637,469.4309 648.0001,470.3956 648.7039,471.2684 653.0046,473.496 654.3042,475.1672 654.2188,477.0928 652.4031,481.9085 652.0654,483.7805 652.344,485.018 653.1245,485.6133 652.2392,487.6696 652.2889,490.5029 653.0034,492.8053 654.2435,494.6945 655.3306,495.4757 656.5942,495.8101 662.4232,495.3015 668.881,496.281 670.6665,497.0319 674.7912,499.7268 677.1915,500.5538 679.3223,500.6005 682.0173,499.9115 684.1915,498.5806 685.1896,496.8455 685.1116,495.2643 683.5194,490.0512 683.4615,488.6273 683.8291,487.7454 684.9004,487.5427 689.1089,488.6295 692.0864,488.9264 695.5344,488.6413 696.5488,488.2179 696.7881,487.8332 696.5224,487.1127 695.2698,485.927 687.2416,480.2666 686.6323,479.258 686.8996,478.005 688.6895,476.4673 692.132,475.0513 696.939,474.1341 700.8364,474.1039 697.651,475.507"/>
    <polyline points="644.1636,328.4466 650.2547,324.5408 655.7373,319.9359 659.8433,315.0465 662.7741,309.8409 663.0953,315.3032 663.8954,318.911 665.6045,322.8133 668.6897,327.5037 671.1539,329.8814 673.3446,330.628 675.4689,329.981 677.2667,328.0065 678.7547,324.2427 680.7813,313.1327 682.7836,307.2968 683.5636,306.4875 684.624,306.2016 689.1437,306.9334 684.1815,302.5755 680.0469,296.4547 679.2831,295.7904 678.4472,296.1364 675.9433,299.6994 674.5952,300.9684 672.8249,301.4155 671.9685,301.2026 671.5466,300.7307 671.9799,299.6829 673.4111,298.4274 679.6985,294.953 679.1802,294.4407 675.4765,292.9687 674.7027,292.3201 674.453,291.5327 675.1501,289.8767 680.3319,282.9154 682.2314,278.9901 683.218,274.0932 682.7479,269.2437 681.8287,266.9036 680.6335,265.8448 676.7976,266.6589 674.4061,266.8063 671.6481,266.427 669.2555,265.4031 666.6695,262.7929 663.4035,257.2807 662.6431,256.6149 662.1544,256.5589 661.4544,257.0148 660.8031,257.9971 658.191,264.7444 656.594,266.882 655.8091,267.1541 654.9955,267.0409 652.3473,265.267 651.7256,265.1987 649.6232,269.71 648.1323,271.248 646.6152,272.2277 642.1689,273.7305 632.7177,275.12 629.8866,276.4157 628.9914,278.078 629.492,280.1406 631.3443,282.3977 635.6169,285.9391 636.1703,286.7691 636.2889,287.5832 635.3978,289.2145 628.4322,295.7044 625.2034,299.4755 624.0694,301.4639 623.3954,303.4849 623.1804,307.5527 624.3827,313.5126 626.7927,319.0274 630.2522,323.8588 633.775,326.669 636.1135,327.6327 637.9834,327.9874 639.9284,328.0292 642.6098,327.6342 647.4806,325.7629 655.6808,320.6229 658.9025,318.984 662.9198,318.1177 666.1541,318.6004 667.2501,319.344 667.6383,320.3734 666.5814,328.5277 666.6958,331.5942 667.3352,335.2509 668.406,338.6473 669.5175,340.9356 670.8529,342.3145 671.9938,342.5715 673.6602,342.0318 675.3898,340.7809 676.9991,339.1012 678.2766,337.212 679.3686,334.2406 680.4799,327.8516 683.0104,322.182 683.5376,322.0626 686.4,323.1476 688.365,323.5063 690.2482,323.3049 691.0867,322.6249 690.8106,321.1322 688.8067,318.6698 680.2105,311.8589 683.8063,311.9981 681.6381,310.9435 685.1357,308.6896 686.7372,306.6083 686.9963,305.5377 686.8339,304.4125 686.0287,303.6626 684.0298,303.3593 683.7957,302.4635 683.9793,301.018 684.9478,297.7576 686.7855,293.8057 692.1805,285.8771 693.5458,283.4012 693.9795,280.5151 692.8434,277.4332 690.3783,274.4316 687.0872,271.973 684.0198,270.7167 677.4479,269.4018 673.7397,268.0587 670.156,266.0892 661.8397,260.3178 660.1514,259.7613 658.4176,259.6583 656.6955,259.9984 655.0833,260.7125 653.3229,262.0834 652.2022,263.7354 650.7766,270.3544 650.258,271.4397 649.2854,272.5141 647.6314,273.4133 641.5066,275.5804 640.4941,276.5039 638.5583,279.5269 635.9893,281.4212 626.3651,285.226 624.5488,286.4774 624.4913,287.2465 625.0074,288.0258 630.6108,292.4005 631.2923,293.3166 631.4456,294.2836 630.6699,296.0129 629.0372,297.8794 622.4571,302.8753 620.9216,304.6649 620.6256,305.5728 620.6974,306.9419 622.572,310.9441 626.5396,316.4103 629.0934,318.9289 631.6919,320.9156 634.1933,322.287 636.9746,323.2368 639.3848,323.5955 641.9616,323.5567 645.4048,322.9444 648.2846,321.9711 651.1558,320.5056 653.8108,318.4674 655.4939,316.5215 656.7992,314.2354 658.8959,307.4023 661.2153,317.5593 662.4067,320.7133 663.9172,323.6175 666.1427,326.9965 668.3316,329.4804 670.7516,331.0624 672.6976,331.3146 674.011,330.8855 675.0626,329.9515 676.0199,327.3716 676.131,324.5523 675.4962,312.1837 677.7494,315.371 679.6142,316.6678 681.0903,317.0517 682.9546,317.0704 684.3486,316.697 684.773,316.1866 683.9947,314.9671 680.8904,312.728 672.9423,308.4701 674.9459,310.6524 675.5535,310.7327 675.9962,310.4026 677.2295,307.6635 678.7736,301.6487"/>
    <polyline points="524.2951,301.6487 530.3305,303.0589 534.2093,304.7514 536.3516,306.5482 537.0046,307.7372 537.1709,308.9761 536.7517,310.6671 534.7978,315.306 534.3339,319.7579 533.6858,321.7525 528.323,328.9218 524.1278,337.429 522.0469,340.2773 520.1479,341.7289 518.0015,342.7359 515.938,343.0188 514.0782,342.6183 511.0597,340.8408 504.4175,335.3169 500.4005,332.3675 498.1102,331.1097 496.4017,330.9194 494.8476,331.9457 489.1958,340.2033 483.6681,345.9863 478.7955,349.9529 476.036,351.7407 474.0494,352.2539 472.7009,351.7621 470.701,349.2065 467.0225,341.94 461.8082,332.6762 460.7919,329.4017 460.2095,325.5806 460.1362,322.3361 460.5908,316.9804 456.3537,312.418 455.34,310.1923 454.9185,308.2606 455.1261,305.3719 456.6826,302.2211 459.6214,298.9684 465.575,293.9856 466.4985,292.4512 465.9913,290.6349 462.1837,286.2169 460.2677,283.3834 459.2862,281.1135 458.803,278.882 458.8409,276.1395 459.7121,272.936 461.2555,269.9865 463.6186,267.154 465.1557,265.9423 467.1972,264.9053 469.3277,264.391 471.5142,264.3442 475.0933,265.2079 482.4239,268.6519 484.9912,268.8025 486.1914,268.2517 487.3278,267.2808 491.3086,262.0942 493.2005,260.3121 496.0599,259.261 498.9423,259.5053 500.6486,260.3131 502.3168,261.5911 509.7238,269.5992 512.5362,271.893 517.2191,273.8807 528.5561,277.1131 532.3813,279.1071 534.1996,280.8002 539.2558,286.8155 540.0539,288.0997 540.4846,289.6144 540.3049,291.4537 539.3442,293.035 537.4719,294.7289 529.7201,299.8308 526.4577,302.4376 523.1846,306.2949 521.7758,309.5304 521.8438,311.8222 522.9606,314.1035 531.3748,323.1949 532.9639,325.4049 533.3315,327.474 532.7477,328.6307 531.6407,329.7286 521.8904,336.7317 519.3796,337.5652 516.5911,337.6725 514.3787,337.0515 511.9635,335.8243 496.4017,325.03 494.5959,324.1477 493.608,324.1838 492.6755,325.0114 492.0729,326.1005 489.2192,334.1291 487.6618,337.6732 486.3173,339.9501 484.2972,342.4436 480.924,345.1086 477.4233,346.6869 473.5111,347.4076 470.9602,346.9253 469.0794,345.7216 466.8931,343.424 457.7328,331.8737 455.9211,329.0029 455.2473,327.0355 455.0615,324.8245 455.4559,322.4987 457.0936,317.2701 457.0785,315.6595 456.6841,314.6461 454.9223,313.0593 448.9751,310.2925 448.0256,309.3904 447.6131,308.3071 448.0316,306.6149 451.8585,301.2359 453.3186,298.2137 454.0968,295.1962 455.5162,286.7507 455.6157,283.2142 455.3113,280.1173 452.1301,267.3788 451.861,264.9727 452.0852,262.6873 452.968,260.5604 454.496,258.6395 456.4856,256.9866 459.2789,255.4083 462.1237,254.4883 464.3386,254.2706 466.4919,254.5187 468.6337,255.224 473.6313,258.1183 484.4279,266.395 486.5344,267.3507 488.5866,266.9029 492.3744,263.7262 494.1082,262.6622 495.8307,262.2661 497.5011,262.6419 499.0923,263.7799 500.6013,265.5194 505.5617,273.362 507.6695,276.0877 510.0955,278.1317 513.0162,279.5318 514.2734,279.7342 515.5921,279.5325 520.8138,276.9331 523.5702,276.1286 526.3748,276.1344 528.5021,276.87 530.8929,278.629 532.929,281.0117 537.8281,289.3388 542.7534,296.0453 543.8715,298.5748 543.5963,300.1881 541.9931,301.8368 530.4524,307.9781 528.0274,309.6553 526.3342,311.4656 525.8956,313.0328 526.594,314.4612 528.2521,315.8425 534.59,319.9221 536.1459,321.5001 536.613,322.7639 536.3307,323.6786 535.0337,324.8048 528.3524,327.7061 526.9274,328.6966 524.7675,327.8348 522.3117,327.7779 520.6506,328.3214 516.4957,330.8033 515.3016,331.018 514.0364,330.8323 512.2703,329.9018 510.4942,328.3205 503.8537,320.4695 502.3701,319.4579 500.8916,319.338 499.9622,319.9415 498.9652,321.2641 493.6054,331.5152 489.3196,337.1631 486.7101,339.5273 484.1073,341.238 480.9675,342.4657 478.6048,342.7096 476.9466,342.4379 474.9222,341.4746 471.9911,338.5489 469.0596,333.343 466.4082,326.2804"/>
    <polyline points="366.5639,301.6487 371.2394,320.7722 372.2825,326.5857 372.6,330.1162 372.2541,332.6992 371.3293,334.3723 369.7204,335.7177 367.5305,336.6435 364.9654,337.0553 363.1389,336.9958 360.3152,336.3541 357.4563,335.1321 345.6591,328.3064 334.2841,322.5226 323.9271,315.6426 318.4194,313.0088 316.9509,311.7224 316.4455,310.4252 317.1805,311.1194 317.7872,312.3289 318.2357,314.9706 317.727,317.517 316.0969,320.1376 314.7348,321.2825 313.3085,321.7969 311.9467,321.6267 309.5316,320.5873 308.1084,320.7786 306.3141,322.18 301.9619,326.9429 299.043,328.7253 292.5615,330.4918 289.4027,330.7839 287.2049,330.6052 285.2312,329.9666 283.5037,328.8562 280.3489,325.1173 278.4085,321.7032 276.8327,318.1217 276.0392,315.3393 275.8645,312.6505 276.2499,310.8676 277.0999,309.0996 282.2713,302.474 282.4425,300.807 280.7138,298.9851 273.9585,294.7166 270.5452,291.8046 268.7192,289.5505 267.5312,287.5036 267.0437,285.7618 267.3831,284.6885 269.613,283.3459 279.0585,280.8833 281.2679,279.7049 286.3268,276.1073 289.4789,274.957 291.1522,274.9856 293.4931,275.7408 300.2376,279.8413 303.7798,281.3787 307.0792,281.7673 310.1234,281.109 314.3665,279.0816 320.6583,274.9001 326.4399,272.2942 328.9248,270.7026 331.7315,267.5431 336.6786,259.8511 338.6524,258.2605 340.3433,258.5046 343.9353,261.3751 345.831,262.2611 348.0978,262.3655 351.9981,261.2685 353.5973,261.8872 355.3351,264.4264 361.0072,276.5764 368.3974,284.7731 370.0502,287.3313 371.2937,290.1183 371.788,292.982 371.4536,295.2512 366.8539,304.8722 365.6306,309.0867 365.6122,312.8032 366.8044,319.7179 366.6668,322.7649 365.6295,325.635 363.2526,328.8868 359.7122,331.9479 355.9893,333.8411 352.6489,334.3569 349.1393,333.5324 346.4658,332.0481 337.708,325.6399 331.8618,321.8996 325.4148,318.4259 315.6439,313.8848 313.3114,312.4131 313.0137,311.7817 313.3489,311.2382 315.5898,310.2231 316.0632,310.3659 316.2387,310.8014 315.6019,312.2183 309.1383,318.6335 305.0767,318.8919 301.1463,319.9397 281.8757,327.7612 278.8942,328.1065 276.6159,327.3744 274.0262,325.0563 271.5195,321.2616 269.9244,317.4428 269.5782,315.6297 269.6226,313.8706 270.1299,312.146 271.0911,310.4378 276.7578,303.5738 279.0602,300.0814 280.6051,296.5363 280.7457,294.1295 280.2618,292.9074 278.7004,291.0467 271.5654,285.243 268.3894,281.8858 265.2821,277.0894 264.6746,275.0545 264.7147,273.7325 265.6547,271.8368 268.3449,269.5414 278.4457,263.857 283.4079,260.5051 285.2927,259.7032 287.0976,259.679 289.2826,260.4387 299.3527,266.8087 304.4704,269.0505 307.2246,269.6117 309.0502,269.4947 310.2283,268.914 312.6862,266.6184 314.0127,266.3092 315.2336,266.7677 319.0764,269.5786 321.3593,270.1956 323.1537,269.7947 325.4803,268.304 332.4399,261.3711 335.5016,259.1737 337.5411,258.3968 339.6971,258.1529 341.3083,258.4431 343.3644,259.5277 345.7159,261.7048 351.9051,269.2879 358.3324,276.2134 362.8262,282.6084 365.0084,286.4157 365.6702,289.0499 365.4244,291.5079 364.3335,294.1387 360.589,300.1528 359.9946,301.81 359.9595,303.4826 361.027,305.7573 365.8338,311.1312 367.9767,314.2403 369.3015,317.3897 369.8015,321.1178 369.2679,324.0537 368.0972,326.2412 366.1756,328.3071 363.563,330.2711 360.4316,332.0227 356.9636,333.298 353.3132,333.7192 350.5383,333.2319 345.9696,330.8749 328.6242,317.6929 316.096,309.3045 315.1606,308.0105 315.0254,306.6921 315.7825,304.7117 317.1794,302.5358 316.4567,304.3249 314.6357,306.851 306.3384,315.2485 304.8413,315.6995 298.2023,316.0424 295.6242,316.9207 293.3416,318.1423"/>
    <polyline points="215.8332,301.6487 218.964,300.8376 221.0411,300.974 222.0725,301.8721 222.1736,303.5158 221.0031,305.6542 218.7687,307.9693 210.4159,314.8819 205.579,318.3295 195.0365,324.0636 192.122,325.1687 187.5276,325.5322 181.0223,324.6079 179.5896,324.8128 178.7965,325.3162 177.8372,326.672 176.9466,329.3041 175.8573,338.1585 175.15,340.6649 174.0155,342.3618 172.3281,343.8097 170.2027,344.9377 168.417,345.4774 166.5279,345.6508 164.5724,345.3435 162.5758,344.4721 160.5631,343.0682 155.9789,338.4667 148.9009,329.5068 147.1878,327.8933 146.0246,327.2512 144.6086,327.0898 141.5095,328.2649 139.7711,328.2797 136.1805,326.7268 131.2724,325.4843 126.9684,322.973 125.1053,322.4107 122.8126,322.5575 116.0247,324.6444 111.7532,325.3721 108.2599,325.1499 104.4159,323.7257 101.5511,321.8226 98.3656,319.131 92.2542,313.402 88.6693,309.5513 85.3174,305.2495 83.178,301.924 82.1463,299.5361 81.8909,297.1404 82.6585,294.7599 86.5635,289.2122 88.04,286.0366 88.3415,282.7509 87.506,275.8297 87.9499,273.4883 89.1348,271.1138 91.3983,268.162 106.014,251.3466 109.1944,248.8249 112.3981,247.4882 115.8957,247.3592 119.4973,248.8846 123.7808,252.3156 140.761,268.0195 142.8283,269.2574 147.09,270.5957 148.526,271.3673 149.8285,273.3781 150.9032,277.5844 151.9991,278.6759 154.6046,278.8143 157.6467,277.8477 160.2911,276.3634 165.9116,272.2815 167.7092,271.7331 168.9244,272.3521 172.6358,276.8693 174.9278,278.2258 177.1704,278.9474 183.936,279.6354 197.0401,279.0032 199.7875,279.3691 201.4209,279.9644 202.8985,280.8649 204.8343,282.7066 207.759,287.3109 209.6866,292.8223 210.0754,297.3496 209.0723,301.6896 206.7522,305.7846 202.0932,311.3326 196.1578,317.0113 179.8952,328.1202 176.0589,329.5974 170.0073,330.5914 168.2743,331.6103 167.3067,333.1669 166.6329,335.8965 166.2753,347.7517 165.7423,348.829 164.8943,349.2893 162.4621,349.3121 159.8257,348.5905 157.6861,347.5192 154.8653,345.3679 148.837,338.5916 141.5855,328.7454 138.8985,326.3228 137.8095,326.0633 137.0042,326.3158 133.8054,329.1891 131.8631,329.8357 130.8901,329.5225 129.609,328.403 125.2691,322.5869 123.2444,321.4212 120.8321,321.5899 115.4769,323.9536 112.876,324.668 110.3467,324.6964 108.0363,323.8736 106.0443,322.2599 104.025,319.5217 102.4588,316.4366 97.9181,305.3132 96.0723,302.2705 90.3953,294.6882 86.7326,289.2176 85.3938,286.4604 84.9178,283.7299 85.1775,282.1068 85.835,280.4934 89.1529,275.1532 90.7225,271.9547 91.6571,268.7578 92.7227,262.4573 94.4185,258.8758 97.6089,255.4343 106.8357,247.804 109.1076,246.2669 111.0857,245.5648 113.9098,245.6606 117.787,247.3507 123.4316,251.1595 136.0645,260.5004 139.5073,262.5793 141.8308,263.1197 145.9631,261.7643 147.5,262.153 148.694,263.567 150.0549,266.3594 151.7413,271.1795 153.2065,277.1734 154.1391,278.4572 155.9295,278.4649 158.2245,277.6014 161.4737,275.6427 166.7501,271.7596 168.121,271.0294 169.3607,270.7675 170.1136,270.9191 171.1427,271.6688 175.0615,277.02 176.4672,277.9848 178.2674,278.6505 180.5212,279.0094 184.194,279.0204 197.0938,277.4979 199.9893,277.7599 201.7472,278.3442 204.8551,280.4998 208.5738,285.0708 211.9279,291.2353 213.3948,296.2535 213.496,300.3661 212.2823,304.8652 209.7816,308.9791 205.6253,313.7387 200.4877,318.0757 191.6371,324.2467 189.1134,325.6241 186.8243,326.3425 184.3056,326.6298 176.9117,325.8638 175.371,326.176 174.4129,326.7397 173.0566,328.143 171.3596,330.7629 163.4262,345.5572 162.227,347.2351 161.1024,348.0917 160.3969,348.0899 159.5839,347.6479 157.3815,345.5352 145.236,330.2449 142.2967,327.4306 140.4374,326.6484 139.0724,326.7977 134.7683,330.6122 133.609,331.1238 132.5046,331.1387 130.9609,330.2048 126.4132,325.1964 124.4124,323.9116 122.0539,323.1067"/>
    <polyline points="177.6204,475.507 177.1634,478.2033 176.9855,482.9509 176.477,484.3452 175.6768,485.286 172.6711,486.9217 169.1682,487.5306 167.3889,486.908 167.0386,486.0613 167.1696,484.9279 167.7669,483.7979 168.7502,483.158 169.6596,483.3454 170.6413,484.3091 171.9536,486.6182 173.6636,490.8679 174.4222,493.5014 174.6647,495.7437 174.4019,497.1504 173.7365,498.3375 169.3309,501.8084 167.941,503.9485 167.164,507.606 166.3124,518.9723 165.5492,521.3051 164.309,523.2729 162.6444,524.8672 160.0251,526.4242 157.2735,527.3624 153.9645,527.7276 149.7787,526.9082 139.1849,522.4287 137.6099,521.1337 136.0108,519.0907 134.8567,516.7072 134.2708,514.5832 133.9875,511.6364 134.1398,509.0454 136.4883,498.7037 136.736,495.0194 135.9163,491.6576 132.2507,484.4094 131.8369,481.8021 132.3282,480.0204 133.309,478.9188 134.7593,478.2238 136.7956,478.0084 138.4587,478.4254 140.2029,479.5894 141.7538,481.6358 141.7729,482.7604 140.1648,482.7532 138.1563,481.6185 135.1055,478.7829 134.0435,476.8986 134.4029,476.1386 135.4001,475.4856 141.8028,473.1207 143.2478,472.165 136.9473,469.5444 133.544,467.4881 129.4247,463.8366 125.6659,459.4061 120.81,452.0599 117.021,444.1457 115.8759,439.8254 116.0171,438.2352 116.6648,436.7485 118.729,434.3977 122.6321,431.4073 126.1083,429.4527 129.4624,428.2576 134.2024,427.7341 139.4232,428.6508 141.2568,428.6758 143.1322,428.1051 147.566,426.0198 150.53,425.4202 152.8448,425.6586 154.9292,426.7531 156.7422,428.8984 158.2366,432.0362 159.5147,436.6116 160.1374,441.3418 159.9378,446.353 158.3455,452.808 158.0853,455.4444 158.6845,457.9759 161.3124,462.9805 161.6049,465.0743 160.916,467.0711 158.1494,470.3519 157.7824,471.1747 158.8557,471.7356 163.0819,472.1192 164.5789,472.5627 166.6911,475.228 172.9152,479.2403 174.1217,480.6451 174.8138,482.149 174.997,484.1245 174.4868,486.1173 173.4067,487.9663 171.8654,489.4323 169.2344,490.4679 167.3343,490.4603 164.1433,489.8442 163.5316,490.0828 163.3514,490.5582 163.9021,492.2642 165.3296,494.2889 173.6424,503.1708 174.8796,505.1696 175.2735,506.6446 175.2215,507.614 174.6323,509.0444 169.9336,514.0949 168.1847,517.0554 167.7298,519.7602 168.2731,525.4537 167.6436,527.6638 165.8128,529.7087 163.1027,531.5708 157.9572,534.3449 153.9861,535.9227 151.5857,536.4196 148.7486,536.4297 145.4438,535.6834 142.7814,534.5078 140.3642,532.6836 138.3805,530.0334 136.9318,526.714 136.0547,523.0063 135.7658,519.8713 135.9006,515.7948 138.2605,502.7907 138.5034,499.3961 137.9638,495.8578 135.4447,488.8279 135.2064,485.8896 135.8377,483.9036 137.6448,481.3951 147.4458,472.3933 150.8796,468.4814 142.6733,470.7094 141.7207,470.7487 141.7851,470.3231 146.7213,467.6284 152.2621,465.8445 148.9453,465.8419 145.4523,465.1247 142.6175,463.8974 139.9152,462.1373 135.3639,458.1702 127.2859,450.1822 123.9119,446.0072 122.0011,442.5287 121.1797,439.8001 120.9983,437.8011 121.3568,435.1995 122.3613,432.6531 124.7086,428.8911 129.3828,422.839 132.207,419.9269 134.064,418.8455 135.435,418.725 136.334,419.0296 140.4869,422.5616 142.5217,423.3012 143.3762,423.0404 144.1351,422.395 146.8856,418.0047 148.2769,416.4962 149.9698,415.9104 150.9023,416.1974 151.8687,416.9635 154.3151,420.5096 157.882,427.3945 160.3587,433.0869 163.7446,442.1989 165.4452,445.6296 167.4224,447.8433 172.2192,450.2054 173.4585,451.5859 173.7063,453.3029 173.3021,454.8511 172.0869,456.9944 168.9193,461.1715 168.4581,462.1356 168.5317,462.7544 171.4767,464.1596 175.3518,467.1783 181.5325,470.7878 182.9908,472.1099 183.6592,473.5215 183.4747,474.3649 182.7316,475.1704 179.1347,476.6979 173.9835,477.4285 167.9639,476.977 166.9564,477.3052 166.4517,477.9585 166.0358,481.0312 166.8524,484.555 168.48,487.4559 173.1064,493.6879 173.9532,495.4786 174.1342,496.7097 173.328,498.4892 169.3654,501.5521 168.1052,503.4409 167.4949,505.4786 167.1759,508.0317 167.2083,516.6055 166.7884,519.7846 166.2327,521.1101 164.9083,522.7405 161.7532,524.4708 158.9405,524.9544 156.2311,524.6369 154.3359,523.9365 149.7695,521.529 147.5976,520.8994 140.436,521.4485 138.4245,520.5988 136.6542,518.8573 135.1783,516.5239 134.0411,513.9097 133.2866,511.2105 132.9616,508.5276 133.5484,503.9831 136.6137,496.7882 137.2266,494.6426 137.1413,492.1736 135.7912,489.5589"/>
    <polyline points="307.2331,488.8896 304.2463,492.6276 302.2986,495.9712 301.3692,499.3673 301.4056,501.7699 302.0788,502.333 303.248,502.6493 308.8389,503.0975 312.1916,504.7643 316.3224,508.6635 324.997,519.7238 327.0285,521.3176 329.5393,522.0427 332.0048,521.734 334.8672,520.5799 337.9898,518.6067 340.391,516.5339 343.0546,513.2613 348.0989,504.6399 350.7937,500.766 353.9763,497.3451 359.5898,492.4013 361.3957,490.2478 362.1631,487.9437 361.7272,485.4256 360.0695,482.7483 356.1638,478.5611 355.4229,476.7009 356.0569,474.9926 359.2974,471.1619 360.8284,468.2888 361.094,465.7734 360.2663,462.9569 358.8143,461.0407 353.0638,456.3597 349.4113,451.2944 348.0104,449.9145 346.0688,449.3821 342.5071,450.2186 341.535,449.9616 339.08,441.9119 337.8926,440.2287 336.7862,439.9926 335.0534,440.9295 333.1139,442.8794 330.6566,446.0838 328.5582,449.5628 326.6474,454.3894 324.2812,463.9889 323.4775,465.7416 322.7671,466.4449 321.9963,466.5095 320.9436,465.7372 317.3994,459.7803 316.3654,458.9636 315.528,459.4759 313.7127,462.3088 311.7598,463.1255 311.5528,464.5177 306.3474,460.8479 302.2464,459.1896 299.252,458.7981 296.4849,458.9325 293.9223,459.504 292.5688,460.4665 292.6758,461.8691 295.0952,466.6244 296.5894,470.3684 299.6238,474.7642 301.9935,477.1639 304.593,478.2571 307.2748,478.0923 310.2779,476.7864 311.3169,475.8194 311.5974,475.0011 311.091,475.1354 310.4198,475.9769 308.2827,480.1386 307.3649,482.7836 307.0093,485.5865 307.2812,488.5235 308.2416,492.6603 309.7446,497.6047 311.0833,500.6529 312.3956,501.9642 313.9249,501.92 315.6666,500.8889 318.6615,498.0962 319.489,497.745 320.2749,497.8621 321.7674,499.3622 324.7058,504.3682 327.0821,507.7582 329.5272,510.5259 331.8011,512.512 334.6933,514.3705 338.1608,515.8008 341.164,516.3138 344.1167,516.1364 346.4559,515.4871 348.6304,514.4335 350.6122,513.0517 352.7226,511.0657 356.0354,506.8819 362.0576,497.5941 367.6776,491.466 368.5856,490.1404 368.888,488.3366 368.1936,486.4443 361.4953,477.8523 360.7913,476.5096 360.5594,475.2594 361.0824,473.2947 362.2802,471.7287 369.4561,466.2941 370.0996,465.0373 369.6944,463.4291 360.4474,454.3629 359.2046,453.8404 355.3967,453.3495 353.3175,452.5161 350.6508,450.5502 344.5879,444.4311 342.9475,443.7111 341.314,443.7699 339.1554,444.7949 336.9833,446.4899 333.1795,450.109 330.6421,453.0439 327.7656,457.7397 324.845,465.5256 324.0296,466.9887 323.559,467.1761 322.9041,466.9256 319.7126,464.0712 318.3027,463.4281 316.7675,463.6753 315.0485,465.0619 313.9865,467.1835 313.823,469.4563 314.3985,472.7913 314.9101,473.9543 315.4014,474.2183 315.9274,473.1969 315.8371,471.6585 314.2852,468.5961 311.0193,465.6282 306.9625,463.6072 302.6964,462.7355 297.4152,462.9667 294.2017,464.0572 292.0386,466.0463 291.5438,467.8712 292.2895,470.3142 294.1141,473.0409 299.5447,479.8027 299.3027,480.4912 297.1965,482.7997 296.3572,484.7089 296.2844,487.0953 297.1548,489.2931 298.2318,490.0641 300.0046,489.9486 306.2424,486.3647 307.409,486.1357 306.6807,487.412 301.856,492.6895 300.6298,494.8746 300.4587,496.4663 301.1158,500.8068 301.2201,506.6584 301.5285,508.6636 301.7858,508.9468 302.3318,508.8582 305.5626,506.4886 307.5664,505.5526 309.4018,505.3162 311.0739,505.8677 312.4896,507.0435 314.0848,509.0169 321.4833,520.4449 322.9997,521.8452 324.5381,522.4527 326.094,522.3805 328.2032,521.6585 338.8791,516.0687 343.0511,513.2256 345.9388,510.5692 347.6397,508.2345 349.5253,503.8772 351.1689,501.4291 353.3332,499.2677 359.3979,494.2975 361.6338,491.4568 362.0934,489.4795 361.3974,486.9045 359.8944,484.791 355.912,480.7259 355.1634,479.3951 355.0759,478.6005 355.4138,477.5679 357.4823,475.507"/>
    <polyline points="469.1615,505.1936 470.4057,509.7943 471.9383,513.2359 473.4377,514.8346 474.2392,515.1034 475.4408,514.9506 477.5338,513.4912 480.6264,509.736 481.9738,508.9942 485.8244,507.7859 487.1429,506.7003 488.1168,505.3139 489.0891,503.0775 489.6243,500.5376 489.6584,497.691 489.1273,492.344 489.3425,491.513 490.383,491.5952 493.2876,492.8154 501.3664,497.4549 504.1942,498.7799 507.3853,499.4541 511.2748,499.1953 517.261,497.5669 519.3957,496.5026 521.1623,495.0984 522.5824,493.3093 523.7295,491.1521 525.5294,485.2927 525.8309,480.869 524.9214,477.6617 523.97,476.2747 522.5844,475.1373 517.9069,473.3689 516.7766,472.6773 516.7298,471.66 518.9114,469.4563 519.1889,468.4807 518.4928,467.55 515.4921,465.5645 514.6886,464.2044 515.1392,462.0723 519.0408,455.591 520.0978,452.5035 520.2243,450.4996 519.7832,447.7707 518.7713,445.2656 517.7435,443.8329 516.1575,442.8751 514.4587,443.0062 512.3171,444.2496 510.2163,446.2894 507.3557,449.9479 504.6426,454.1119 502.5852,458.0244 500.0966,463.8081 499.5249,464.468 498.8457,461.8368 498.1535,453.8401 497.809,455.452 497.346,456.1917 496.5566,456.3559 495.4187,455.8757 491.8482,452.7968 484.3611,444.5449 482.6827,443.6031 481.1761,443.6542 479.5063,444.6988 477.7152,446.6215 476.0793,448.921 475.6355,450.4568 476.4728,452.8059 480.4847,457.6422 480.8108,458.3886 480.7814,459.3936 479.5353,460.7484 475.1344,463.2813 473.7817,465.1154 473.6139,466.9757 475.2523,472.5787 475.201,475.1807 474.4398,477.2445 471.0033,483.8675 469.818,489.5934 468.9376,492.0431 463.1966,501.812 462.7983,503.7655 463.352,505.3593 464.1129,505.851 465.4664,506.1271 475.7527,505.9548 483.1218,507.1669 484.8855,507.0713 486.1562,506.3137 487.5862,504.3868 489.7267,500.1201 492.7543,492.8099 493.5961,491.4598 494.4879,490.7249 495.4293,490.5599 496.7485,490.8866 502.4955,493.6027 505.1705,494.5248 508.0991,495.0247 510.9859,494.9077 519.6533,493.1825 523.7522,491.763 525.2146,490.8433 526.2688,489.7121 526.8534,488.3721 527.0265,486.4773 526.46,482.5345 524.0398,472.4367 522.9655,471.2948 519.1088,469.5382 518.1945,468.7157 518.2398,467.7564 519.725,465.8196 519.7055,465.1539 515.1347,463.932 514.3198,463.3664 514.0539,462.7917 514.4738,460.9024 518.3469,453.8259 519.2609,450.4845 519.3862,448.3085 519.0644,445.4021 518.2833,442.9598 517.4709,441.8453 516.8497,441.5417 515.8304,441.6853 513.5912,443.4929 510.7651,447.102 500.3756,461.9429 498.6685,463.6583 496.7138,464.5414 495.6515,464.4595 494.6699,463.9619 490.9678,460.1077 490.191,459.8597 488.4717,459.9671 486.8805,459.0732 476.3892,448.835 472.6106,445.7926 469.7345,444.581 468.3459,444.5819 467.3062,445.0045 466.2351,446.6426 466.066,449.4874 466.5499,452.457 468.0758,457.5338 468.2158,459.2011 467.8023,460.427 466.245,461.8482 466.0325,462.5678 466.9963,464.144 472.8512,470.5954 473.3899,471.6592 468.9303,474.5576 467.1681,476.7015 467.056,478.8841 468.7637,485.0213 468.5437,488.4924 467.7972,490.9254 466.5794,493.4797 460.6658,503.0437 460.2767,504.3024 460.5749,505.2562 461.3335,505.4327 462.4584,505.209 464.8875,503.9605 467.6264,501.6427 471.7586,497.288 473.4717,496.2459 474.5859,496.2647 475.5821,496.8051 478.8907,500.3493 480.9435,501.645 483.883,501.8477 487.1278,500.656 489.1239,498.9202 490.4307,496.2735 490.9233,492.1254 490.5458,488.042 491.9682,490.3831 495.0432,492.9906 499.3304,495.5261 503.5571,497.1557 507.7903,498.0339 512.2712,498.2507 516.6352,497.7059 519.8055,496.504 522.6218,494.2984 525.0778,490.9625 528.6764,484.2163 529.1592,482.5208 529.1169,480.8295 527.8389,478.4872 525.2097,476.7391 521.0888,475.7403 515.5018,475.507"/>
    <polyline points="468.7768,152.8785 471.4449,155.6625 478.8436,161.8976 490.7768,169.6431 492.917,170.633 495.2332,170.886 497.6692,170.3227 499.6038,169.2294 503.154,166.365 504.7674,165.6628 506.3473,165.7652 510.5204,167.0525 513.2597,166.8762 516.1922,165.6396 519.2523,163.4765 521.5229,161.1666 522.8889,158.6203 523.0962,157.0412 522.7432,154.8807 519.9355,147.4823 519.8112,146.1142 520.1925,145.3693 528.8255,145.0247 532.0835,144.4784 534.9161,143.5801 544.0309,139.0439 561.4339,131.9893 563.4038,130.8013 564.7062,129.5491 565.2649,127.5786 564.6493,125.5517 563.0236,122.8914 555.3747,113.4277 554.3547,111.4145 552.6656,106.6204 551.5504,104.6541 549.6087,102.5955 545.4097,99.506 543.1446,97.4525 541.4559,95.3657 538.2123,90.3786 536.4593,88.6252 535.0423,88.2283 533.5535,88.5603 526.0881,93.2759 524.3134,93.8372 522.2204,93.7947 519.319,92.4589 516.1836,89.6162 512.7234,85.1098 507.5084,76.7995 505.9226,74.9374 504.8536,74.1941 503.2339,73.837 501.6062,74.1353 491.7306,79.3478 489.715,80.0268 487.6697,80.1911 485.0094,79.6917 482.1391,78.4921 473.3388,72.6657 471.985,72.2936 470.1849,72.461 469.2077,72.9916 468.1358,74.2583 467.176,77.712 466.7787,88.2416 467.4255,94.4255 468.5837,97.6945 470.6249,101.1004 480.2306,111.5769 481.0401,113.2622 481.2153,114.9875 480.8525,116.2638 480.1827,117.0864 476.2765,118.316 474.1295,119.3089 472.0521,120.8161 470.8767,122.3629 470.6753,123.7122 471.2008,125.1044 477.1573,131.5261 477.7713,132.8562 477.7628,134.2372 476.8534,136.4846 475.088,139.1849 464.3493,152.0565 463.1158,154.4763 462.8457,157.0884 464.1329,160.7331 467.4416,165.9075 469.0618,167.0949 473.1055,167.8914 474.8726,169.1465 476.7379,171.5419 480.8144,178.4698 482.9656,180.5741 484.2929,180.9115 486.0688,180.5555 496.6219,175.2415 502.1517,171.4795 506.6429,167.285 508.5175,164.6396 509.6552,161.8507 510.0361,159.0313 509.6978,153.2816 509.8797,150.3439 511.0143,147.0419 512.7755,144.9074 514.1371,144.0796 515.6628,143.601 523.7988,143.041 528.207,142.1189 549.1768,133.665 553.1526,131.6833 556.3701,129.3483 557.8047,127.3719 558.3527,124.5012 557.9822,122.2557 557.3943,120.7652 556.52,119.3175 554.6959,117.2959 551.4942,114.9777 544.5735,111.2191 542.5072,109.3873 541.7458,107.3382 541.4127,103.1033 540.8573,100.5727 539.7741,98.4074 538.6,97.2358 536.6426,96.2855 532.944,95.259 531.2123,94.3705 529.8351,93.0131 525.8777,87.6166 524.3705,86.3966 522.6346,85.6171 520.0328,85.3056 517.2832,85.5998 510.418,87.6304 508.1163,81.1094 505.1895,75.1384 501.0817,68.9775 498.2155,65.8928 496.6496,65.4528 495.1026,66.1394 489.6732,72.6017 488.2694,73.8554 486.8116,74.5581 485.8146,74.6691 484.2909,74.3289 479.1838,71.0914 477.7312,70.956 476.3487,71.6119 474.621,73.4543 473.0323,75.92 470.9887,79.8741 469.4435,83.6859 468.417,87.3043 467.954,90.183 467.8724,92.9681 468.2195,95.6676 469.8621,99.927 472.9633,104.1096 477.4562,108.1643 485.3671,113.6001 486.3894,114.7561 486.5608,115.5663 486.2179,116.3014 485.1214,117.1503 476.861,120.6672 475.0914,121.7574 474.3357,122.7296 474.4416,123.7174 475.3175,124.6989 480.5544,127.5936 482.5804,129.0882 483.4931,130.4343 483.701,131.4189 483.4718,132.9814 482.4436,135.1234 475.5064,144.5235 474.849,146.1867 474.8065,148.1051 475.8608,150.4724 481.9811,159.3632 489.9315,168.4875 492.3886,170.7935 494.6785,171.5653 497.1806,171.0494 499.3069,169.652 503.0174,165.9694 504.6784,165.1342 506.4152,165.1939 510.1805,166.3805 512.1474,166.6537 514.5811,166.302 516.9676,165.1904 519.3255,163.4236 521.5724,161.1699 523.0631,159.1346 523.9808,156.9526 524.1777,155.2164 523.9811,153.3779 521.4665,144.9971 524.3795,145.9594 527.882,146.2045 532.2084,145.7404 536.1876,144.6168 538.2273,143.5213 542.9726,139.8566 547.1959,137.1668 553.2068,134.064 563.7121,129.2584 565.4167,127.9097 564.7061,127.4299 562.1581,127.7904"/>
    <polyline points="642.2606,143.8938 644.8948,145.6355 649.7208,150.1643 651.6352,151.1334 652.7979,151.2234 654.3803,150.8052 659.0807,148.1195 660.1258,148.0452 661.4141,148.5329 663.4557,150.2923 670.2427,157.5825 678.0097,167.0757 679.1246,167.9329 680.1382,168.2791 681.3328,168.0985 682.4009,167.4693 685.2718,164.1266 688.4533,158.3328 689.5129,154.7406 689.4531,151.2832 688.5139,147.8328 686.9865,145.1779 684.7506,143.1029 678.681,139.0121 677.7946,137.847 677.8349,137.0149 679.3328,135.5606 683.8361,133.3657 685.1393,132.3765 685.6142,131.3872 685.92,128.2971 686.4707,126.4131 687.4883,124.6611 689.2675,122.692 692.7232,119.9418 702.4367,113.8876 705.0644,111.7429 705.6435,110.7686 705.7733,109.8676 704.4636,106.3078 704.5172,104.1444 705.638,101.5524 708.8602,96.2478 709.6637,94.0189 709.7988,92.4449 709.5213,90.3693 707.8292,85.1775 706.1608,82.2832 704.7685,81.0114 703.6644,80.4763 701.0943,80.0943 691.6693,80.2333 687.455,79.4258 683.4835,77.5398 675.2134,72.034 671.1938,69.8188 666.2749,67.8876 661.2232,66.6378 656.8912,66.3408 652.6559,66.9625 648.5318,68.3949 643.7432,70.8228 641.0717,72.5807 638.6863,74.7097 637.2696,76.5787 636.2819,78.6769 635.5406,82.5894 635.1194,93.3604 634.5896,95.5634 633.5374,97.6233 631.0288,99.8402 623.2822,103.7612 618.5896,106.6261 616.0698,108.7729 614.6808,111.1561 614.5756,113.7133 615.8651,119.1048 616.0967,121.7954 615.5851,124.9006 613.6603,130.2675 613.6595,133.2061 614.7051,135.7848 616.9804,139.0216 620.3188,142.566 623.2782,144.7593 632.0194,148.2377 645.2872,157.6458 647.2805,158.7757 648.7234,159.1805 650.0494,159.0386 651.6306,158.1475 661.1851,149.0648 662.6842,148.3888 663.8943,148.5338 665.0621,149.4492 666.7025,151.7511 672.3098,160.6156 677.8962,170.3626 679.2898,172.096 680.7123,172.9642 681.6669,173.0224 683.097,172.5073 686.3936,169.806 691.8674,163.7264 694.8198,159.2762 695.6352,156.3965 695.2833,152.6928 693.3596,147.2373 691.0187,142.6258 689.493,140.6171 687.8614,139.2343 685.693,138.168 681.0688,136.5952 680.2146,135.9478 680.1436,135.3992 682.0681,133.3924 687.2939,129.9176 688.7491,128.5939 689.0377,127.1395 687.7234,124.3437 688.0948,123.2397 688.9963,122.1496 692.7694,119.1901 702.2824,113.4113 704.6632,111.4271 705.0772,110.4705 705.2354,107.5409 707.4026,102.6935 707.5253,101.3226 707.2294,99.9577 705.3463,96.7933 699.3074,88.7262 696.6949,85.7876 694.2105,83.8972 688.8132,81.655 686.1879,79.995 676.8868,71.2306 671.784,66.9674 668.5047,64.8365 665.3495,63.5743 662.2585,63.353 659.166,64.105 656.044,65.692 652.4577,68.4208 650.1405,70.9373 648.3453,74.0033 647.6547,76.108 647.2466,79.1688 647.633,89.671 647.1562,91.8341 646.2066,93.5447 643.6064,95.7827 635.8606,99.8277 632.234,102.3095 628.5876,105.9283 626.0841,109.9404 625.1836,113.2898 625.3717,116.73 626.472,120.086 629.0322,125.357 629.6555,127.9561 629.4252,130.6156 627.4957,137.0106 627.6981,139.7835 628.6711,141.2961 630.3667,142.5316 639.3342,145.7425 641.4649,146.8363 642.5732,148.032 643.5581,151.4054 644.7783,152.9782 647.3184,154.6836 656.1091,159.5195 657.2181,159.7825 657.8598,159.6041 661.0038,156.6173 663.5367,155.2746 666.0768,154.8829 667.7147,155.3342 668.6999,156.2274 670.6928,159.3645 672.0148,160.7282 673.1754,161.2003 675.9414,161.4049 677.1593,162.1623 684.3077,173.0478 686.6176,174.8955 688.4083,175.1089 689.5717,174.7639 691.1825,173.7308 693.5934,170.691 696.7242,162.7131 700.4397,155.5765 701.1723,153.0072 701.3,150.3084 700.1154,144.1667 698.0753,139.3304 695.4661,136.5514 688.6406,131.7212 687.5023,130.5517 686.8184,129.3402 686.6412,128.0666 686.9359,126.715 690.0703,121.1606 687.8102,123.7602 685.6063,127.7904"/>
    <polyline points="360.4588,127.7904 356.4799,125.9784 353.9965,125.7793 352.6422,126.3599 351.896,127.0952 351.1609,128.6423 351.0284,129.8829 351.5563,131.9126 352.4414,133.3198 361.0191,141.9196 363.0858,144.7367 364.0893,146.7579 364.6638,149.2503 364.3797,151.4601 362.9484,153.817 360.68,155.7641 356.2343,158.2339 351.3736,160.1442 346.8698,161.3348 339.0576,162.6972 336.2078,163.5949 333.3909,165.4533 327.3025,171.3734 325.6322,172.4524 323.894,172.9712 322.5698,172.6783 321.2445,171.6098 316.5239,164.6415 314.5311,162.3204 312.6554,161.1413 310.8215,161.0882 309.6867,161.6382 308.0751,163.0348 300.1541,171.9643 296.1289,175.7661 292.6834,177.8054 291.0442,178.0498 290.0022,177.827 287.6059,175.9571 282.3385,168.694 278.1877,163.8187 277.1859,162.053 276.7697,160.2602 276.8679,158.139 277.5654,155.8125 279.121,152.8089 284.8571,143.8226 285.8859,141.1473 285.8789,138.9976 285.2292,138.0974 283.8868,137.2767 275.696,134.3386 271.735,132.1949 267.454,128.3716 266.3049,126.6342 266.0338,125.4994 266.3284,124.4022 267.9794,122.8491 277.344,118.156 280.1785,115.9924 280.8714,114.8992 281.1238,113.3631 279.6088,108.5894 279.8931,106.6938 282.1956,104.2426 287.425,101.1433 291.5869,99.6257 293.3061,99.4667 294.7579,99.7152 296.2847,100.495 299.3973,103.0911 307.6568,107.0032 308.5766,106.7359 309.6116,104.7448 310.2085,104.5344 310.7122,104.7696 312.5023,107.7884 314.3043,113.1997 315.0585,116.9156 314.9687,121.6678 315.2862,122.4206 316.1227,121.9438 317.1073,120.807 322.288,113.4834 325.9252,109.0519 329.6428,105.6912 331.5341,104.4405 332.8386,103.9441 333.74,104.0389 334.6224,104.6725 338.2992,109.8283 340.2844,111.8964 342.9341,113.6403 346.3388,114.879 349.4486,115.2783 353.2178,115.0026 357.1036,113.9717 364.4903,111.0709 366.1253,110.9591 367.6128,111.4736 368.8384,112.6929 369.6726,114.4497 369.9933,116.4605 369.8751,117.8228 368.4835,121.0207 363.7995,127.5368 363.0392,129.6202 363.0155,131.6141 364.3396,134.3966 369.0786,140.2002 372.017,144.6116 373.591,147.871 374.0344,150.2988 373.5827,151.9529 372.354,153.4504 369.8468,155.2039 366.2735,157.0297 360.4765,159.4489 356.5677,160.6047 353.3432,161.0427 347.7569,160.9732 345.9264,161.2773 343.7652,162.5464 339.8607,166.3694 337.9536,167.803 335.3275,169.0106 332.4422,169.6679 329.3792,169.6499 326.8722,168.8181 324.3635,167.1707 318.7884,162.3576 315.2006,159.7893 311.3925,157.7845 308.9557,157.5947 306.6914,159.0979 300.2289,166.8124 294.5425,171.8095 292.5961,173.1203 290.6926,173.9343 289.3105,174.0363 287.9777,173.5695 285.8819,171.5759 283.2249,167.5967 279.0256,160.3887 277.9828,157.2132 277.9879,155.3367 278.7001,152.8845 284.2033,142.9414 284.6295,141.0022 284.2745,139.764 283.2201,138.8186 281.9372,138.2874 274.0994,136.7976 270.1735,135.4303 267.2647,133.7005 265.3385,132.1348 264.0038,130.4883 263.6861,129.4094 264.0185,128.3797 265.8836,126.9677 275.8765,123.2619 278.6611,121.7106 279.2327,120.8437 279.3012,119.8547 277.4736,116.0339 277.3933,114.991 278.1278,114.1101 280.4515,113.2623 284.4109,112.824 288.273,113.1429 290.9608,113.8835 296.847,116.3198 297.9357,116.122 300.8425,114.2765 303.4074,113.9378 305.7263,114.5405 309.9564,116.5934 310.9193,116.1654 313.1631,113.9701 314.1028,113.6537 315.1541,113.7352 316.2873,114.2554 317.8543,115.6421 324.1359,125.0323 325.4635,126.3312 326.3797,126.5373 327.2127,125.8939 327.9603,124.4399 331.0845,114.2877 332.9628,109.9441 334.8103,107.7341 335.93,107.3678 336.7792,107.5538 338.3691,109.1414 339.4906,112.0536 339.8822,115.0263 340.035,120.7382 340.3975,122.1024 340.981,121.9785 343.3508,119.4975 345.137,118.3233 347.8029,117.5677 350.218,117.6259 353.4877,118.5311 357.4428,120.5369 360.8659,123.1001 363.5073,125.934 365.6141,129.3469 366.1478,131.2567 366.1579,132.6315 365.3001,135.1827 362.2792,139.9149 361.987,141.1162 362.2317,142.4015 363.1143,143.8516 365.0448,145.9491 374.0016,153.8315 375.1495,155.3338 375.5176,156.3245 375.4606,157.305 374.8973,158.2742 371.5964,160.634 359.6228,166.7545 356.7515,167.8489 354.0497,168.3723 351.0144,168.2623 348.3968,167.5676 346.7009,166.6515 343.907,164.2189 338.0182,163.5824 334.5028,162.3226 330.3146,159.3063 325.4018,153.4692 323.8609,152.4763 323.235,152.6428 322.2454,153.6763 318.6529,159.7389 315.8093,163.1401 312.2536,165.7965 307.4015,167.8108 301.7355,168.716 299.452,168.6046 297.7381,168.1803 296.128,167.3788 294.6434,166.1748 291.56,161.88"/>
    <polyline points="190.496,127.7904 192.4867,125.7582 193.7881,125.0974 193.7568,125.6092 192.9924,126.7758 186.8581,133.8532 185.2206,137.2031 184.8873,139.3234 185.0864,141.3599 187.1653,147.0874 186.7174,149.4914 182.0699,156.0492 178.0558,160.4525 174.13,163.5404 170.6516,165.0563 168.0794,165.245 163.6973,164.3471 162.4364,164.6406 154.6528,172.0075 151.7046,174.0215 148.8702,175.3917 146.9058,175.9355 144.93,176.0015 143.4568,175.6281 141.5177,174.4987 137.7915,170.508 134.5152,164.9397 128.5349,150.6981 127.5103,147.2267 127.2693,144.9841 127.4682,143.3141 128.0808,141.6409 134.3869,132.5386 135.9147,129.2607 136.7685,126.4174 137.148,122.6101 135.0189,124.1003 133.547,124.6242 132.3211,124.3764 132.0857,123.7916 132.288,123.247 134.2529,121.5843 138.4861,119.5006 140.7536,118.8589 141.6102,118.9173 142.0871,119.2781 142.0317,120.2514 141.2066,121.0094 139.7773,121.4891 137.9126,121.5484 134.6756,120.7035 130.7158,118.5253 124.0149,113.3742 111.0233,101.9565 108.1985,98.8321 106.9753,96.1743 106.9735,94.5315 107.3466,93.4211 109.4803,90.6476 120.5932,81.1969 122.6523,79.8201 124.1902,79.2004 125.7367,79.0605 126.7742,79.2887 129.3813,80.9975 132.4732,84.3368 140.8954,94.602 142.4721,96.0443 146.6957,99.0142 149.4148,102.0157 151.3222,105.219 152.3816,108.1343 152.5903,111.2139 151.807,117.3244 152.2399,118.9271 153.0699,119.8303 154.8001,120.4728 156.9521,120.3752 166.9002,116.1482 170.1361,115.6953 173.4614,116.0681 178.6842,118.2425 185.6447,122.7804 188.5438,125.5512 189.5084,127.3141 189.8312,128.7503 189.6982,130.7906 188.9413,132.9026 185.4177,137.993 181.6768,141.7362 175.929,145.424 174.8179,146.5607 175.0617,147.969 179.0335,152.4228 179.6158,153.5625 179.8887,154.9694 179.6059,156.2341 178.5404,157.6908 173.9661,161.1872 171.2182,162.7796 169.2768,163.5192 167.2515,163.7557 165.1609,163.2874 163.0386,162.1345 159.9115,159.7777 153.5735,153.8965 151.9711,153.3134 151.0388,153.6873 150.0808,154.5622 143.2383,163.6379 140.0367,166.6742 138.0529,167.5389 136.5189,167.6882 134.4606,167.1947 132.4484,166.0046 130.0998,163.9548 127.3331,160.9081 126.1627,159.1284 125.4371,157.1333 125.3666,153.6935 127.2899,145.5562 126.4806,141.1723 126.5196,139.4382 127.0653,137.9927 128.101,136.4574 133.6948,130.206 138.4942,123.9326 137.3825,125.1499 135.7087,125.573 134.041,124.9196 133.8295,124.3372 134.0127,123.889 135.25,122.9496 137.1958,122.1039 139.7953,121.3177 141.0425,121.3118 140.2533,121.7878 138.8226,122.0407 135.8788,121.875 133.2111,120.9827 130.1912,119.0433 127.0297,116.0901 114.8469,103.113 111.7057,99.4614 109.6018,96.3905 108.7655,94.5569 108.3902,92.7474 108.6063,90.9801 109.499,89.2737 110.9731,87.6421 113.4472,85.5954 119.6821,81.4612 121.8766,80.4763 123.9357,80.0994 125.9068,80.4855 127.8321,81.6603 131.181,84.9258 136.3551,90.9552 145.2179,103.4006 147.1668,104.985 151.7114,106.9516 153.6158,108.5727 155.0757,111.0522 155.8455,114.4342 155.7718,118.1767 154.7998,122.3496 160.0902,119.0816 164.5186,117.4916 169.0676,117.0863 173.6891,117.8091 183.3339,121.0591 188.8385,123.7969 190.5654,125.2524 192.2039,127.4273 193.3438,129.8785 194.0407,132.3943 194.033,136.1481 193.3915,137.8114 192.2243,139.2918 188.5464,141.6404 180.9898,144.6307 179.121,146.2454 178.9154,147.212 179.2495,148.6226 181.8042,153.0213 182.5765,154.9767 182.5005,156.57 181.6961,157.6986 179.533,159.0754 175.0548,160.7986 171.3947,161.6709 168.3092,161.8462 165.873,161.3739 164.0158,160.4561 162.3969,158.9315 160.6899,156.3983 159.9852,156.1395 159.3132,157.1275 156.5258,163.8292 154.3902,167.1652 151.3985,169.8202 148.3007,171.0338 146.3065,171.1919 144.4015,170.9278 142.1502,170.1609 139.6746,168.8431 138.2584,167.6816 137.3786,166.5212 136.1899,163.2605 135.8182,159.45 136.3697,155.2545 138.6711,148.4513 141.8547,141.5997"/>
  </g>
</svg>
