<?xml version="1.0" encoding="utf-8" ?>
<svg xmlns="http://www.w3.org/2000/svg" xmlns:cc="http://creativecommons.org/ns#" xmlns:dc="http://purl.org/dc/elements/1.1/" xmlns:ev="http://www.w3.org/2001/xml-events" xmlns:inkscape="http://www.inkscape.org/namespaces/inkscape" xmlns:rdf="http://www.w3.org/1999/02/22-rdf-syntax-ns#" xmlns:sodipodi="http://sodipodi.sourceforge.net/DTD/sodipodi-0.dtd" xmlns:xlink="http://www.w3.org/1999/xlink" baseProfile="tiny" height="29.7cm" version="1.2" viewBox="0 0 793.7007874015749 1122.5196850393702" width="21.0cm">
  <metadata>
    <rdf:RDF>
      <cc:Work>
        <dc:format>image/svg+xml</dc:format>
        <dc:source/>
        <dc:date>2021-11-15T21:01:39.579760</dc:date>
      </cc:Work>
    </rdf:RDF>
  </metadata>
  <defs/>
  <g fill="none" id="layer1" inkscape:groupmode="layer" inkscape:label="1" stroke="#00f" style="display:inline">
    <polyline points="92.9707,1038.3198 96.4764,1042.4131 99.9799,1045.578 103.2657,1047.454 106.759,1048.395 110.9028,1048.4148 114.7417,1047.4619 118.2612,1045.6856 124.8131,1041.248 127.7196,1040.176 129.0201,1040.1606 130.6334,1040.6242 136.6089,1044.5117 137.9403,1044.7782 139.3347,1044.6164 141.7735,1043.4409 144.2672,1041.4107 147.1144,1038.3858 149.184,1035.4641 151.1933,1031.4491 153.2899,1025.8517 154.0212,1022.7998 154.068,1020.2 158.6476,1022.0467 160.9492,1022.1704 163.0067,1021.8519 167.0075,1020.5467 171.3082,1018.5222 174.0388,1016.6411 175.0326,1015.1721 175.0505,1013.6654 174.0418,1011.5658 170.9379,1007.6155 167.5871,1004.0697 163.3131,1000.6455 154.1723,995.6699 152.908,994.3854 152.977,993.8044 153.6343,992.9547 159.585,987.9197 160.7999,985.457 160.8251,983.4227 160.39,981.5982 158.1899,978.1753 159.8722,974.3482 160.4912,970.5831 160.1505,966.0266 159.5117,963.7159 158.8419,962.513 157.4645,961.8004 154.7004,962.5657 153.656,962.2636 151.2722,957.0329 149.9746,955.0046 143.9932,949.8688 137.9874,942.6066 135.6593,940.9967 133.7124,940.8842 131.2276,941.6443 120.1382,946.4287 115.7957,948.9762 113.136,951.3239 110.8281,954.1432 103.4147,966.7495 100.9784,969.9113 98.3587,971.5471 92.6253,973.4801 89.8628,974.7961 83.6041,980.0615 73.3085,985.9498 71.8113,987.3896 71.3035,988.3963 71.251,989.9583 71.8304,991.5549 73.1887,993.6737 75.3267,996.1785 78.9641,999.2135 86.3006,1003.6131 87.5666,1004.7599 88.3881,1005.9757 88.9652,1008.1777 89.4967,1017.1134 91.0234,1024.3231 93.3833,1031.8704 94.752,1034.6625 96.0646,1036.4465 98.4953,1038.0506 102.2062,1038.373 106.0904,1037.6398 114.7626,1034.9003 117.1274,1034.5923 119.9135,1034.7483 123.7115,1035.6576 127.3467,1037.0979 136.1779,1042.5033 137.8475,1042.8464 139.6014,1042.6242 141.8782,1041.6195 144.1452,1039.9962 146.281,1037.939 148.2191,1035.3623 150.28,1031.4524 153.8605,1023.0962 154.2216,1021.3345 153.7126,1019.9744 158.0559,1021.2243 160.422,1021.2278 163.3074,1020.7492 167.5508,1019.5063 172.0141,1017.7866 174.7299,1016.2673 175.6143,1015.1088 175.4987,1013.9448 174.3201,1012.3746 168.738,1008.0003 163.1716,1004.9231 153.9345,1001.2063 152.9373,1000.6386 152.3312,999.853 152.5621,999.1317 153.259,998.4492 158.0072,995.3263 159.6246,993.8839 161.5021,991.2507 162.9533,988.2622 164.0997,984.5022 164.3544,980.9399 163.6817,977.9038 162.2149,975.3245 161.1164,974.2856 159.8285,973.6907 154.8268,973.6703 152.8267,972.8892 151.5279,971.324 148.9067,966.4282 147.0974,964.0102 140.9814,959.3064 135.6347,953.2226 132.8237,950.8984 129.7005,949.4657 124.953,948.2065 122.0987,947.9604 119.4416,948.4113 117.5342,949.4163 115.6859,951.4079 109.7011,963.1435 107.1154,966.9683 104.9096,969.4149 102.2234,971.3966 94.4105,975.5749 86.3747,981.3175 76.4194,986.705 74.3499,988.5154 73.5336,990.0034 73.4088,992.1197 74.0458,994.319 75.4869,997.049 77.0764,999.1162 80.3844,1001.9124 89.5538,1007.3294 90.9355,1008.6654 91.4758,1009.5983 91.7463,1011.0648 91.5426,1012.6093 89.2641,1020.359 89.2079,1024.8448 89.9541,1028.4426 91.5409,1033.228 93.7745,1038.5856 95.6983,1041.8971 97.4412,1043.2245 99.4093,1043.1536 111.5423,1037.5024 114.7289,1036.4167 117.1281,1035.9886 120.5551,1036.0144 124.4321,1036.6918 128.4931,1037.9509 134.5918,1040.47 137.4299,1040.9068 140.1778,1040.5506 143.3047,1039.521 146.7208,1037.8242 148.9546,1036.204 150.4252,1034.6543 151.5746,1032.7986 152.5961,1029.1627 152.558,1024.1448 151.301,1018.6722 152.162,1018.2915 159.7237,1017.3786 164.0035,1016.0426 165.7093,1015.1024 166.9348,1013.9672 167.6879,1012.5966 168.0179,1010.9798 167.8133,1008.6458 166.7901,1006.0533 164.8311,1003.3463 162.5089,1001.2206 159.4181,999.2512 156.5421,997.9488 147.3184,995.2969 146.5229,994.8097 148.3077,994.287 152.7193,993.9078"/>
    <polyline points="288.5397,1011.8006 285.3315,1016.1103 284.0529,1018.5671 283.4644,1021.2816 283.8824,1024.8645 286.2278,1030.6915 290.9356,1039.0524 292.3721,1040.8292 293.4645,1041.6953 294.5707,1042.1147 296.0643,1042.0665 297.958,1041.3503 300.6546,1039.7371 306.664,1035.0403 310.8182,1030.8938 316.9253,1023.0276 322.0974,1019.0927 323.4553,1017.7044 323.8823,1016.5765 323.5081,1015.3805 320.261,1013.0516 319.1325,1011.5665 318.7805,1009.9849 319.2278,1008.7332 320.3518,1008.3353 324.6749,1008.7107 328.0008,1008.4029 331.0769,1007.5247 334.9686,1005.708 338.27,1003.4333 340.0952,1001.5137 341.1429,999.0979 341.0645,996.6553 340.254,994.2088 339.0775,992.2897 337.3838,990.45 332.2932,986.1341 331.0595,983.4876 324.9053,983.5259 319.9892,983.2069 316.9217,982.6454 315.364,981.7264 315.3323,980.4065 317.5924,975.2678 318.4022,971.8975 318.5271,967.33 318.1737,965.2377 317.7167,964.4827 317.3251,964.4348 316.6135,964.9355 311.0728,971.9941 308.0242,974.8042 306.9665,975.138 305.8478,974.8487 302.7872,971.4427 301.3265,970.64 300.3331,971.3114 299.6299,973.8953 299.184,974.1633 294.918,970.9202 283.6061,959.7055 280.5783,957.8803 278.0117,957.6369 276.5058,958.203 275.3126,959.1104 272.5201,962.7558 266.4579,974.2517 265.7478,976.0693 265.5085,977.8315 266.2768,980.4762 268.2956,983.1968 271.0883,985.9187 277.3175,991.0207 277.9809,992.3857 277.8719,993.7629 277.0427,995.2267 275.4121,996.8398 265.5435,1003.8849 264.2893,1005.4344 264.0486,1006.7781 264.9481,1008.0473 267.1959,1008.6818 270.5827,1008.4909 280.7725,1006.9865 285.1571,1006.7282 292.0982,1007.3874 294.8078,1008.1594 296.1368,1008.899 296.7941,1009.8018 296.8966,1010.9063 294.3639,1021.0946 294.0651,1024.8546 294.3212,1029.3289 295.0273,1032.7212 296.3971,1036.0216 297.8908,1038.034 300.0066,1039.6903 302.3945,1040.7346 304.9662,1041.3003 307.1734,1041.3945 309.3937,1041.0231 311.1611,1040.2866 312.8957,1039.117 316.8335,1034.8515 322.9627,1025.9491 324.1291,1023.7157 324.3329,1021.5795 322.8504,1017.2493 322.8827,1015.6615 323.8452,1014.1574 327.6082,1010.9282 328.289,1009.3875 327.5731,1007.6118 325.7211,1005.9484 328.9481,1007.8282 332.0524,1008.9521 334.8663,1009.2851 337.7052,1008.954 341.9104,1007.4549 347.5022,1004.4058 349.9219,1002.2865 350.3604,1001.4411 350.4274,1000.1952 349.9406,998.9857 348.7425,997.4363 343.2646,992.1032 341.7409,990.9922 338.8241,990.2346 331.1241,989.8963 328.7131,988.9469 327.2945,987.6724 326.6516,986.4961 326.4317,984.7818 328.4128,978.7685 328.657,975.6251 327.6374,971.8572 326.5321,970.0886 325.5217,969.2253 324.4032,968.8601 323.2169,968.9502 320.3315,970.3604 317.3041,972.9356 311.9286,979.1473 310.6701,980.0383 309.1204,980.2496 307.428,979.4421 303.5743,976.1489 301.7276,975.1883 298.2993,974.9075 296.2123,975.3192 295.241,975.8015 295.4132,975.0722 294.5521,973.4257 289.7984,967.663 283.9137,961.3507 280.3787,958.6781 278.5295,957.8919 276.6654,957.5558 274.8219,957.6138 272.1818,958.2259 269.8125,959.2189 267.2679,960.8418 265.8873,962.2429 264.9198,963.8217 264.0931,966.1601 263.2623,970.5166 262.7549,975.0643 262.904,977.4832 263.9531,980.1316 266.6012,983.2048 272.206,987.7683 279.0124,991.8335 279.8371,992.6813 279.9779,993.4771 279.1851,994.8027 277.4756,996.2554 268.9183,1001.194 266.3134,1003.1304 265.1735,1004.731 264.9928,1007.0827 266.2915,1010.3758 268.4973,1013.8414 270.564,1016.2065 272.817,1017.5354 274.6213,1017.6889 276.4741,1017.268 279.4895,1015.7943 284.7707,1012.4057 286.0384,1012.0171 286.8264,1012.2563 287.0367,1013.08 286.5529,1014.8611 282.0892,1024.9343 281.5242,1027.5551 281.4843,1030.0998 282.3424,1033.6301 284.0695,1036.7026 286.3881,1039.255 289.5296,1041.4276 291.4409,1042.1921 293.8805,1042.6323 296.3308,1042.5212 298.2819,1042.0072 300.2109,1041.0568 302.0903,1039.6473 305.891,1035.2393 308.1394,1031.2972 309.6844,1026.9371 311.7499,1018.0064 313.1086,1008.5939 313.717,1006.7232 314.4649,1006.7027 316.7695,1008.2467 318.2938,1008.0955 341.9774,999.0347 345.8133,997.1827 347.2455,995.8696 347.1712,995.0865 346.4361,994.5222 344.984,994.0974 342.5769,993.9078"/>
    <polyline points="433.7559,1038.2299 436.2859,1037.8001 444.4884,1035.1211 448.8388,1034.8123 451.2031,1035.2986 453.3566,1036.2477 462.1505,1042.9445 464.4675,1044.1427 466.3936,1044.7351 471.4026,1045.2653 476.0518,1045.0677 479.7796,1044.2706 483.6203,1042.5398 487.5528,1039.6677 493.7837,1033.7729 496.5483,1031.5759 499.2458,1030.2146 505.4455,1028.4053 507.4456,1027.1353 507.7817,1026.349 507.6202,1025.1434 505.3584,1020.2041 504.8447,1018.3289 505.0763,1016.7002 506.1468,1015.2103 508.5043,1014.1539 517.4488,1012.0793 519.7491,1010.8422 519.9676,1010.2754 519.6344,1009.3705 513.6569,1003.9202 512.9681,1002.9274 512.7486,1001.812 513.5363,1000.1555 518.0134,995.0851 519.9784,992.3003 520.9774,989.7493 521.1143,987.7284 520.5366,985.0015 519.007,981.7514 517.3694,979.5063 515.301,977.83 513.4289,977.0696 511.305,976.7624 508.1832,976.9535 504.9133,977.6379 498.7865,979.7335 489.5505,983.9595 487.4142,984.5071 483.4192,984.8225 481.0416,986.0581 479.8176,987.8094 479.6638,989.7036 480.2008,990.6565 481.8909,991.572 482.6242,992.7663 483.438,995.8253 483.4711,997.0721 483.1667,997.4376 476.0267,987.3699 470.8659,981.4832 462.9719,974.379 453.0836,966.9301 450.5838,965.6084 448.7366,964.9982 445.0882,964.8098 441.1408,966.047 439.1679,967.3215 437.4404,968.9377 431.5486,977.0207 424.0931,985.834 422.5123,988.8199 421.9411,991.2149 421.9296,992.9907 422.4287,995.2949 424.268,998.496 426.8477,1000.8022 432.4535,1004.1644 433.6848,1005.5363 433.6975,1006.9517 431.9141,1011.256 431.4945,1014.2597 432.0401,1018.4587 433.5066,1022.6069 434.9061,1025.2467 436.6236,1027.5964 438.5932,1029.2982 440.3178,1030.0216 442.1066,1030.1095 443.8723,1029.5734 447.9853,1026.7257 449.582,1025.9339 451.1418,1025.8088 452.6341,1026.3291 455.113,1028.4046 460.7255,1034.9536 464.6454,1038.9614 468.4167,1042.0237 471.354,1043.6222 473.8374,1044.2822 476.8081,1044.2731 479.6609,1043.5343 481.8303,1042.3847 483.3743,1041.1083 485.0737,1039.0539 491.5787,1027.3935 493.6858,1024.3406 495.425,1022.448 496.6281,1021.5389 498.441,1020.7933 503.5135,1020.9143 504.6704,1020.3994 504.6248,1019.2511 504.0115,1017.9273 498.9903,1010.4728 498.2923,1008.1863 498.4551,1006.0379 498.9729,1004.7488 500.1988,1003.1217 502.9017,1001.4008 505.8659,1000.7927 513.397,1000.4959 515.2528,999.979 516.1214,999.1317 515.9542,997.665 514.6622,995.5574 512.4716,993.4786 508.1392,990.3524 507.3412,988.8635 508.2463,987.2829 513.8606,982.0405 516.2704,978.0964 516.8757,976.1027 517.1451,973.2279 516.8273,970.2636 515.9102,967.5482 514.7934,965.9847 513.8431,965.2803 512.126,964.7734 510.0984,964.8246 503.6632,966.4392 493.8786,969.8688 490.6496,971.674 490.0694,972.5097 490.1632,973.4764 489.1201,972.4385 487.9367,972.7961 486.9757,974.0846 485.192,977.7383 484.0969,977.5858 481.8167,981.3988 480.9425,982.1413 479.9626,982.2619 478.2548,981.2776 470.1264,973.3624 459.3892,964.2357 451.7331,958.5434 445.053,954.3294 440.521,952.1324 436.233,951.0574 432.2107,951.2055 427.9809,952.6365 425.3193,954.5728 423.6223,956.9771 420.3881,966.6672 414.2942,978.2975 413.5027,982.1482 413.854,984.7216 414.8464,987.279 421.311,997.4676 424.1909,1004.1875 427.6144,1015.5123 427.9434,1018.2277 427.9435,1025.3795 428.2433,1028.1246 429.0585,1030.3173 430.4479,1031.5832 432.3279,1031.9109 435.1267,1031.4339 438.1501,1030.2429 444.0002,1027.2292 445.5638,1026.8702 447.0229,1026.939 448.8262,1027.6122 450.499,1028.7951 458.8205,1037.5732 461.7396,1039.8213 464.5851,1041.3591 468.2951,1042.5596 472.7894,1043.0388 476.7239,1042.7478 480.435,1041.6067 483.1645,1039.8029 484.9972,1037.684 491.3516,1025.1399 494.7577,1020.4092 496.0143,1019.4078 497.9231,1018.7396 499.7625,1018.8795 503.4901,1020.059 504.2574,1019.8077 503.9519,1018.2863 500.7076,1012.5034 499.554,1009.2421 499.5842,1006.2027 500.6631,1004.0012 501.4602,1003.3452 502.8278,1002.8836 509.8889,1003.2378 515.0227,1002.3235 520.5588,1000.0784 522.2574,998.776 522.8979,997.8408 523.1167,996.891 522.8031,995.539 521.9659,994.4267 520.8197,993.6859 518.6294,993.2988 514.88,993.9078"/>
    <polyline points="626.3818,1017.5034 626.1128,1019.0952 626.8706,1020.5144 628.4316,1021.3466 630.4651,1021.624 632.7306,1021.3463 634.5918,1020.653 636.4372,1019.3991 638.2387,1017.4832 641.6443,1011.8327 644.8629,1004.2183 646.5983,998.429 648.4652,988.8488 648.5902,990.1222 650.735,994.671 655.5327,1002.7251 660.5765,1008.7344 665.5775,1012.9651 668.1258,1014.4438 670.8254,1015.4868 672.8934,1015.926 675.6188,1016.0245 678.1725,1015.5819 680.3319,1014.5907 681.5253,1013.4907 682.4001,1011.6041 682.5571,1009.9589 682.2502,1007.1127 681.5332,1004.0281 680.929,1002.8646 671.5253,1000.2586 669.5123,999.3727 668.8071,998.6143 668.8771,997.7737 669.5577,996.8562 676.3671,991.5339 677.8832,989.7127 677.4692,989.5613 673.8698,990.3774 670.7682,989.9796 668.2635,988.5937 667.1756,987.3166 666.7397,986.3126 666.5738,984.6279 666.9261,982.7948 668.3216,979.5992 672.0404,973.0641 672.5724,971.2315 672.235,969.6782 671.2431,969.0838 667.4679,968.5586 665.6176,967.8893 660.8821,964.1251 659.1416,963.4281 658.0487,963.6306 657.0068,964.2925 653.4216,968.022 652.5815,968.351 651.7079,968.2759 649.8789,967.0216 645.2136,962.0256 643.3487,960.9995 641.3264,960.7154 638.1765,961.3812 634.8552,963.0581 632.9391,964.8053 632.0423,967.0018 632.2463,969.6679 634.3434,977.061 634.7525,980.0195 634.1682,981.3179 631.1798,983.2563 630.075,984.6857 629.976,986.1888 631.0764,990.4046 630.8979,991.0496 630.1081,991.1663 633.4199,991.8696 637.8233,993.8649 639.7344,995.3328 640.1842,996.682 638.8092,1001.2643 637.7111,1003.6612 629.2777,1015.531 627.3223,1019.5391 626.8614,1022.4063 627.1025,1025.5614 628.1997,1029.6924 629.4059,1031.916 630.1446,1032.5297 631.4074,1032.6576 633.8533,1031.1052 637.6876,1026.7572 643.0306,1019.3914 645.608,1015.0562 647.338,1010.9772 648.1128,1006.9464 648.042,1005.0019 647.6518,1003.947 649.0472,1005.286 656.8775,1009.5904 668.3793,1018.3937 671.5073,1020.1907 674.4927,1021.36 678.6949,1021.8289 681.0162,1021.5551 684.118,1020.6968 686.812,1019.4288 688.2803,1018.323 689.1793,1017.1278 689.5784,1015.8219 689.5702,1013.8686 688.9676,1011.1295 687.7402,1008.2072 686.3171,1005.8457 682.9394,1001.9068 675.933,996.4241 674.8527,994.9925 674.9297,994.0283 675.5974,993.1396 681.3038,988.611 682.165,987.3104 682.4817,985.9142 682.0213,983.7404 680.5543,981.7199 678.5128,980.3523 674.4991,978.7272 673.911,978.1784 674.4083,977.5717 677.4969,975.5073 679.2696,973.7619 680.6957,971.5278 681.3041,969.3791 681.2143,966.2134 680.3594,962.4664 678.3956,956.6341 676.9886,954.0038 675.7777,953.0266 674.4372,952.9287 669.5451,954.8201 667.273,955.0445 665.2852,954.4293 660.8711,951.6226 659.4618,951.5539 655.8449,952.5399 653.807,952.5065 651.9992,951.9607 647.414,949.7969 644.9745,949.2316 641.4503,949.4836 637.0767,950.9486 634.6042,952.3285 632.501,954.191 631.4679,956.0738 631.1953,957.7123 631.6981,961.3772 633.1774,965.6364 635.0417,969.3632 637.0843,971.7758 636.5553,975.7561 635.8338,977.8167 634.8914,979.0861 633.8316,979.7215 629.9562,980.9391 629.2779,981.4941 629.0401,982.2101 629.3749,983.3831 630.2724,984.7099 633.3055,987.4644 635.6837,988.5279 640.0135,989.1816 640.7611,989.8881 640.1476,992.3758 637.8254,997.5767 635.8377,1001.1384 631.8878,1006.9817 630.9731,1009.1427 630.7681,1011.245 631.2726,1013.7019 632.6377,1016.7446 634.1444,1018.8646 635.3719,1019.8811 636.8272,1020.4342 638.5398,1020.4132 639.9945,1019.979 643.2258,1017.9187 646.3666,1014.2912 647.993,1011.237 649.3086,1007.1458 650.1319,1002.3787 651.1878,992.8655 651.6632,992.041 652.6666,991.6144 653.8208,991.788 654.9596,992.5735 661.7505,1001.0565 663.8851,1003.0131 666.1461,1004.4858 672.924,1006.89 680.1862,1010.5152 684.5123,1012.1556 689.8297,1012.9685 691.8554,1012.7995 693.0117,1012.2867 693.2402,1011.1521 692.105,1008.8004 681.988,993.8597 680.8494,992.7131 679.945,992.3651 679.1419,992.7102 678.293,993.9078"/>
    <polyline points="637.3067,830.1294 635.1505,836.1617 634.5667,840.6418 635.1916,845.9352 637.149,853.0361 639.4247,858.8778 642.0906,863.3436 646.5157,868.0607 650.3947,870.4621 652.6923,870.9857 655.6045,870.6932 658.5166,869.4912 665.2284,865.4386 666.8088,865.0318 671.1094,864.9215 672.6868,864.5312 674.6562,862.8625 678.2989,856.936 680.5826,854.4539 682.8579,853.4259 689.3923,852.9077 690.7788,852.2773 690.9027,851.7328 690.5071,850.5939 684.1261,839.2102 671.2692,818.2932 669.403,816.2061 665.0131,813.4234 663.8512,811.6023 663.9152,810.9036 664.4771,810.2314 670.9724,806.4276 678.9758,800.1703 682.756,796.6012 684.4347,794.0806 684.8923,791.5244 684.0756,788.2468 680.0878,780.2819 678.031,777.4657 677.1999,776.9511 675.968,776.9298 674.7788,777.6366 673.6511,778.8723 671.5727,782.301 666.9369,791.9679 665.7555,793.8246 664.8251,794.7293 663.8332,795.1568 662.7727,795.1459 657.8704,793.2958 656.5917,793.6506 655.6122,794.8555 654.9349,797.3979 654.9171,800.6312 655.6894,804.772 658.6965,813.9354 658.7646,816.555 658.0117,818.3917 656.6484,819.1478 654.8926,818.7491 648.1171,813.4151 646.6018,812.5524 651.1475,816.8151 651.7642,817.7193 651.167,818.0787 648.9078,817.9528 655.6518,818.907 656.6384,819.2237 656.6925,819.6236 648.8779,823.7303 642.3428,826.2396 639.6106,826.8676 636.0833,827.216 632.8665,826.9748 632.0431,826.3905 632.7286,825.9622 634.4154,825.6669 637.92,825.9527 639.8682,826.9914 640.6014,828.7176 640.392,830.2736 639.6815,832.0312 635.7065,838.3796 634.3238,841.2764 633.6553,844.4157 633.8188,847.8073 634.5583,850.8083 635.813,853.9261 637.8573,857.7196 640.3282,861.3484 643.1866,864.6986 646.3314,867.6077 648.5158,868.9377 650.7286,869.5149 654.0669,869.0088 661.224,865.8932 668.367,864.8639 671.0955,863.2057 675.6224,858.529 678.1884,856.6908 680.5358,856.0364 686.2133,855.7156 689.1242,855.2518 690.7353,854.5843 691.4519,853.5982 691.2847,852.2732 690.1455,849.9836 686.045,843.2619 682.7744,838.598 675.8282,829.9438 670.14,822.1766 669.0328,821.2795 668.2929,821.4552 668.485,822.1723 669.9011,823.9284 669.8081,824.7035 668.8748,824.3955 668.2503,823.1885 668.2236,821.5172 668.7995,819.3959 671.7166,814.3022 676.6624,808.3926 685.2953,799.7858 686.8103,797.7819 687.3882,796.5096 687.5818,795.3124 687.2516,793.6982 686.36,792.3479 685.0898,791.2969 682.0032,790.1146 679.8492,789.9708 678.254,790.1943 676.168,790.9587 674.1648,792.2405 670.595,796.0483 668.1384,800.245 665.4923,807.8124 664.5643,809.2155 663.26,809.2533 659.3826,807.448 657.2007,806.9586 655.0036,807.4675 653.9175,808.8534 653.6707,810.5705 653.9663,812.7936 655.0462,816.1783 656.4451,819.207 658.2499,822.2505 660.2728,824.8572 662.0703,826.3561 662.9923,826.4387 662.496,825.1493 660.6245,823.1914 655.009,818.7808 653.1378,817.7719 654.0986,819.0419 660.6635,824.8327 661.4497,825.9019 661.4645,826.5275 659.7312,826.3993 654.9484,824.3085 656.2409,825.3246 659.6971,826.9239 654.9352,825.8564 652.0154,825.5834 648.5684,825.7945 644.7647,826.5556 640.9859,827.8509 637.6978,829.5851 635.3122,831.5555 633.6897,834.0189 633.5193,834.8284 633.7491,835.0392 635.7997,833.7921 636.2913,833.7006 636.4757,833.9902 633.8618,840.9403 630.9887,855.4509 630.5786,860.7009 631.1227,865.3455 631.854,868.011 633.2074,871.2437 634.8568,874.0845 637.1427,877.159 639.0602,879.1111 640.5241,880.1076 641.9957,880.6276 643.9518,880.6438 645.8852,880.1019 648.7304,878.6881 657.3377,872.8999 661.2671,869.2607 665.0405,863.4864 666.3803,862.0115 668.6753,860.4732 675.1173,857.458 677.7529,855.8675 679.8167,853.8619 680.7058,852.0254 680.9227,850.6334 680.7187,848.3074 679.2347,843.9428 676.2377,838.4477 671.1419,831.2105 666.359,825.5478 659.6465,818.8638 655.0982,815.4817 652.5695,814.2163 651.2226,813.9676 653.1052,815.3276 656.7042,817.1577 664.3268,820.0496"/>
    <polyline points="519.9124,820.0496 525.9346,821.5361 530.0661,823.5043 531.6889,824.7568 532.8045,826.123 533.2479,827.5449 533.0876,828.4982 532.5365,829.4427 531.1181,830.8266 519.5264,839.6703 515.9892,841.5189 508.3055,844.2179 506.9575,845.0023 506.5683,846.3077 509.0322,851.0248 509.2503,852.3932 509.062,853.2998 508.5358,854.1836 507.1256,855.4504 502.3187,857.829 500.2329,858.3378 498.3119,858.3429 496.5811,857.7276 495.0339,856.5255 491.5999,851.8891 482.9655,837.0719 480.8568,835.0504 477.9395,834.1628 477.5425,831.9755 476.4123,830.9792 474.0361,830.5753 470.9867,831.3701 468.5024,832.8403 466.0279,834.8467 462.0382,839.5477 460.7806,839.8095 459.2982,839.0539 457.8421,836.5473 457.1025,833.0182 457.5764,830.645 458.737,829.0162 461.8284,826.7169 466.559,824.4464 470.9978,823.0574 472.7113,822.9473 473.4235,823.2803 471.0334,823.504 467.2041,822.7371 463.7968,821.4145 460.6199,819.667 449.1659,811.9177 447.2439,809.7344 444.7515,805.5078 436.7193,788.8169 435.4688,785.2449 435.0004,781.9605 435.7189,779.0179 437.7278,776.4792 441.2539,773.9345 446.3286,771.4709 449.6566,770.4148 452.1834,769.9775 457.1084,770.2056 461.4388,771.5229 471.4018,775.8529 475.4099,776.6681 477.3101,776.4935 479.6449,775.7149 485.8358,772.161 487.0384,772.005 487.8043,772.2417 488.8913,773.1965 489.8956,774.7654 493.3303,782.296 496.0306,786.1323 496.5082,788.0443 496.3415,792.6728 495.1815,797.6839 493.5573,800.7856 491.2919,802.8881 500.2447,800.2414 502.8511,800.0106 505.0731,800.5459 506.9488,801.8439 511.567,806.8516 516.1921,810.9458 517.3497,812.8543 517.8616,815.7659 517.5184,822.2485 516.9238,826.002 515.8089,828.7449 513.7019,831.2727 511.1439,833.0113 507.9798,834.2321 504.3507,834.8283 496.7004,835.0365 494.9556,835.7362 494.0287,836.7957 493.5374,838.3332 493.6443,840.915 496.8526,849.4545 497.1538,851.0068 496.896,851.5052 496.1,851.333 494.3264,850.215 488.7773,845.5622 484.2132,841.0116 478.0678,833.9005 475.5827,831.7324 474.0064,831.0856 472.5577,831.212 471.2953,831.9871 469.0364,834.1353 470.9218,827.0904 470.1103,829.4504 469.0834,831.2521 467.6611,832.8475 466.0027,833.9882 464.2944,834.5672 463.0594,834.605 461.51,834.102 460.0467,833.004 451.9609,823.5922 451.4102,822.3627 451.6666,821.1144 453.0504,819.8503 455.3775,818.592 466.0407,814.08 470.4367,812.7415 471.8406,812.6734 472.803,812.947 466.9503,810.8806 462.4384,808.6051 457.83,805.2866 453.883,801.3888 452.1835,798.2515 449.4258,790.2281 444.5137,781.6441 442.4495,777.3975 441.0743,773.8334 440.5258,771.0477 440.998,768.3465 441.7527,767.0175 443.4704,765.0418 449.5677,760.2132 452.6041,758.4462 454.7532,757.6222 457.4595,757.3983 460.0358,758.3359 468.6517,765.3378 471.5348,767.1773 473.7121,768.1748 475.7623,768.7288 477.6929,768.8273 483.424,767.8158 485.0558,768.3108 486.2203,769.2456 487.9976,771.674 489.7529,775.2607 492.4168,783.8803 494.8669,789.0693 495.5579,791.7766 495.6814,795.2159 495.317,798.2202 494.1062,802.469 491.699,807.951 491.4896,809.2887 491.8764,810.5141 494.1066,812.204 498.9508,813.5443 502.8599,813.7391 509.6863,813.1385 513.8194,813.8353 515.5235,814.6182 516.9079,815.7894 517.8531,817.3659 518.3226,819.2471 518.255,822.5115 517.2949,827.4177 516.1339,830.5351 514.5567,833.1109 512.0583,835.7684 509.3231,837.6956 506.2397,839.2131 498.3107,842.3111 495.7315,843.8816 494.9068,845.0511 494.6766,846.1277 495.3456,851.057 495.0,853.0774 493.5889,854.6752 490.7119,856.0427 488.3653,856.4337 485.8662,856.1668 483.3414,855.1182 480.8909,853.3836 477.5252,849.9544 474.3614,845.6147 472.1569,841.5869 470.9582,837.8707 470.1795,837.5376 467.3508,837.4072 467.1682,836.9224 467.7513,835.2455 467.461,834.5691 466.145,833.8404 463.8481,833.5156"/>
    <polyline points="346.9954,820.0496 350.005,824.6755 350.3911,826.4196 350.0398,827.7575 348.3842,829.5355 339.9474,834.9003 336.0584,838.254 334.861,840.0459 334.5711,841.5345 335.0707,842.6914 336.3829,843.8119 332.4963,843.0154 329.2448,841.9902 327.2477,840.9772 325.7256,839.6146 327.6597,850.3163 328.3673,856.4886 328.1957,861.2458 326.9572,865.6176 325.3755,868.6272 323.4547,871.4003 317.9569,877.4751 313.3878,880.8066 310.8976,881.7165 309.0709,881.8965 306.6698,881.4115 304.2864,880.1119 297.1691,873.6854 291.3678,867.1872 289.3183,863.9979 287.6751,860.7533 285.6044,855.1869 284.8733,851.0143 285.1707,846.7375 287.2422,839.232 287.7409,836.2407 287.4612,833.5464 286.1637,831.3627 284.4859,830.1131 281.9401,829.2321 274.0383,829.0976 270.1966,828.2506 251.9165,821.3408 249.1774,819.7647 247.2332,817.6815 246.8152,816.1101 247.5303,814.399 257.29,806.1715 259.261,803.9674 260.6321,801.6186 261.1011,799.7845 261.0716,797.9316 259.4215,792.288 259.0977,789.9748 259.5098,788.0122 260.8656,786.3759 263.7394,784.7552 275.6225,780.0237 285.1639,773.856 288.6985,772.1097 292.7701,771.0718 300.5948,770.8283 303.211,770.0789 305.6941,768.2304 312.4506,761.3594 315.3149,759.2769 316.4989,759.0357 317.2745,759.2636 319.1603,761.493 321.2866,766.3448 325.7426,778.783 328.0631,783.2993 329.0714,784.1904 329.9026,784.2946 332.6734,782.7849 333.4694,782.6461 334.1923,783.0954 334.6081,783.8166 335.4033,787.6129 335.3561,792.0545 334.6317,795.1868 332.7563,799.2208 332.8305,799.8959 334.0235,800.4861 341.5961,801.3594 344.9529,802.3682 346.5412,803.4512 347.7039,804.9058 348.4181,806.6414 348.7073,808.5268 348.1481,812.3108 347.0646,814.6717 345.6163,816.8782 336.7495,827.1816 330.0587,833.3965 329.9082,834.4482 331.2703,837.4199 331.1563,838.3285 330.3384,838.9289 328.4578,839.477 322.0978,840.0403 321.2546,840.5107 320.5988,841.5997 319.7985,846.2962 319.6258,853.2551 319.9482,859.2611 321.2852,871.2314 320.6433,874.3499 318.7761,876.9565 315.9907,878.9709 312.8813,880.3306 309.8282,881.0458 306.2674,881.079 303.6073,880.4367 300.4513,878.9586 293.5493,874.0478 290.2589,870.7463 287.6917,867.1648 284.9042,861.8673 283.4804,857.6141 283.2833,854.8663 283.7894,851.9819 287.0428,844.2756 287.6929,842.0487 287.5771,839.4429 286.4918,837.4972 281.9155,833.4958 272.4661,827.3212 268.7188,825.7672 255.4442,821.8202 252.1972,820.1554 250.3167,818.2336 249.8517,816.9568 249.8435,815.6055 250.8931,813.2612 253.1021,810.9071 259.7169,805.3501 261.0741,803.8671 261.9914,802.2882 262.3228,800.6006 262.1869,799.4189 259.4384,793.2798 258.8518,789.8676 259.1755,788.2873 259.9063,786.7891 262.8894,783.5882 266.3077,781.1539 270.6607,778.7227 274.4249,777.0925 278.0905,775.9683 290.7892,773.7699 294.1177,773.6622 299.7449,774.082 302.5104,773.5974 305.2233,771.7902 311.5845,765.6266 314.1719,764.2537 316.7018,763.9025 318.1833,764.1934 319.6313,764.8768 322.402,767.3188 325.3278,771.4731 327.3588,775.7838 329.0385,781.9114 330.8113,794.2018 331.6012,795.26 334.3064,795.931 335.0358,797.1788 334.8746,799.1298 332.9168,804.1563 332.8565,805.5256 333.3793,806.9185 335.766,809.2495 346.5371,815.8209 350.0672,818.9269 351.6904,821.3678 352.5743,823.9443 352.5626,826.0293 351.7107,828.5992 347.8421,834.4976 346.2168,836.2124 344.731,837.2394 341.4822,838.1599 334.709,838.0883 332.9081,838.8579 332.0106,840.3081 331.6096,842.3243 332.2212,848.6145 330.9737,848.7082 326.0279,847.6036 324.8496,847.7164 324.2266,848.1178 323.7963,849.0859 323.8619,850.4873 326.0572,858.0265 326.9014,863.1568 326.6583,867.2921 325.6628,870.2669 324.0243,873.0874 321.9828,875.7243 316.0838,881.6948 308.4374,887.647 305.7682,889.2625 303.12,890.3407 301.1371,890.6519 299.154,890.421 295.8609,888.7554 291.4086,884.6666 286.3526,878.3681 281.4385,870.5168 277.6588,862.6123 274.7379,854.2239 273.9344,848.6115"/>
    <polyline points="157.3896,820.0496 151.7008,823.6021 143.0721,829.9642 140.5853,831.1851 138.6533,831.6152 136.6557,831.4855 133.9129,830.3402 125.2382,823.8832 124.2693,822.7673 125.311,822.5151 127.0874,822.7078 130.7261,823.8327 134.0855,825.9081 136.8458,828.6828 139.91,833.2562 142.3157,838.295 143.9875,843.6049 144.5536,848.1898 144.2132,851.9149 143.1015,855.5013 141.0404,859.5356 138.1325,863.6624 134.4228,867.5678 130.9882,870.1654 128.0639,871.1992 125.7471,870.925 122.8141,868.9701 116.9906,861.9851 114.0388,859.5803 110.0399,857.8231 103.1071,856.5148 102.3333,856.1474 102.1746,855.1668 102.5209,853.8432 105.2409,847.357 105.9092,845.0482 105.8269,843.2824 104.8754,842.062 102.69,841.216 99.841,841.029 91.3799,842.5858 88.878,842.7251 86.7194,842.012 85.4604,840.8127 84.4238,838.5725 84.3386,835.4123 85.169,832.9833 87.7976,827.9193 88.1985,825.5223 87.6471,823.7608 85.1106,819.8874 84.0536,817.3146 83.5809,813.7804 84.0224,810.5279 85.0506,808.4424 86.2896,806.9917 88.454,805.2453 91.5413,803.3684 101.0264,798.8875 104.2491,798.0302 107.3112,797.8142 111.4171,798.7095 115.3309,800.9508 122.3922,807.1656 125.4707,810.3709 126.1851,811.6281 125.1254,811.0062 124.2581,809.8162 123.9467,808.505 124.1568,807.3095 126.1093,804.3791 130.7631,799.8221 131.4267,799.6354 131.7821,799.8724 132.5364,803.657 133.0327,804.2662 133.6976,804.3907 146.0255,798.6542 148.086,798.0453 149.0071,798.5122 148.9728,801.1754 147.1057,806.7673 146.6759,808.9799 146.7749,810.6228 147.8276,815.3205 148.0885,819.8004 148.556,821.1248 149.4977,822.3039 153.7718,825.1851 154.2953,825.9992 152.9349,826.1706 149.8991,825.635 141.7138,823.0297 136.9989,820.702 133.7156,817.8128 145.349,831.3606 151.3998,838.9822 155.74,845.1636 157.801,849.699 158.0887,851.8988 157.7103,854.0258 156.6416,856.0453 155.0626,857.9089 152.6033,860.0498 149.5188,861.9845 147.2351,862.8379 145.141,863.0282 143.6744,862.7056 141.8124,861.6824 137.2715,857.7008 134.9378,856.0314 132.1237,854.6394 128.5899,853.392 126.5754,852.9964 125.0342,853.0847 119.3966,855.5228 116.7728,855.9579 113.878,855.2093 111.7937,853.4527 110.1801,850.6133 108.9288,846.4245 108.4917,842.412 108.7392,837.4752 108.0962,835.7025 105.9955,834.3299 98.5967,832.0335 95.7341,830.7121 92.7851,828.1141 91.0235,825.0037 90.5308,822.7028 90.5291,820.1926 92.0517,809.9938 92.3545,806.0549 92.1282,803.2453 91.0822,797.5932 91.5113,796.3598 92.769,795.3154 96.4916,793.9231 100.5258,793.4915 103.5887,794.0594 107.7677,796.0928 117.3083,803.3206 121.8388,807.192 124.3472,809.7586 125.4255,811.4964 125.5948,812.741 124.8352,814.1894 123.4197,814.9001 123.0022,814.7203 123.019,814.2141 126.1317,809.6911 128.4278,804.2616 130.2426,803.6833 135.2452,802.9822 141.2635,799.6118 148.4007,794.5581 149.6306,794.2459 150.2201,794.8586 150.5564,797.4063 150.1071,800.5893 149.0666,803.3147 146.9657,806.9134 146.7805,808.1789 147.6037,810.7814 148.4541,812.3914 153.5266,817.9505 153.926,819.2866 153.3496,820.4598 151.7922,821.3929 149.0392,822.0662 146.3222,822.1251 143.3371,821.5941 138.1952,819.4954 130.5192,814.5236 129.2969,813.9701 129.0674,814.2363 131.1499,816.8229 143.4951,828.7001 147.136,833.0474 150.3806,837.566 154.745,844.3653 156.771,848.6487 157.1832,851.9724 156.2774,854.3786 154.902,855.9534 152.5292,857.6113 149.9732,858.6016 148.1043,858.8326 145.2157,858.2148 140.3112,855.23 138.5923,854.5584 136.9559,854.5724 133.0656,855.9404 131.2206,855.8159 126.9447,852.8078 125.0124,852.0006 122.9203,852.1071 117.7092,853.9638 115.8713,853.9941 115.2077,853.409 115.11,852.2576 116.6756,844.3972"/>
    <polyline points="107.8836,672.1439 118.2925,661.94 120.5319,660.0999 121.9076,659.4368 122.4202,659.9006 122.498,663.5258 122.8507,665.2575 124.0641,665.8565 124.769,666.7313 127.4163,672.5717 128.1429,673.5801 128.7307,673.7687 129.6197,673.3456 133.7995,669.2921 135.0202,667.3725 135.1014,665.9331 134.4223,664.7396 132.455,662.9965 132.3905,662.1329 133.3573,661.0558 138.4104,657.09 139.4686,655.7267 139.8136,654.4191 139.5798,653.4902 138.9443,652.601 134.0891,649.2965 133.3938,648.5286 133.347,647.7851 134.1615,646.8251 138.2933,644.2925 139.2803,643.2378 139.0124,642.2248 136.9661,641.2857 136.8469,640.9107 143.1791,637.803 147.8865,634.8255 152.7614,631.0221 155.7507,627.7342 157.9121,624.1329 159.4294,619.9608 159.9882,616.0588 159.5314,613.3801 154.9892,608.3923 150.4958,601.2969 148.7666,600.04 147.5982,599.9963 146.3221,600.3936 142.9581,602.4788 140.3313,604.97 135.607,610.8514 134.6061,611.6256 133.625,611.9362 132.1831,611.6279 129.8433,609.8565 127.6501,607.5139 124.3026,602.996 121.505,613.498 120.2365,615.9189 118.9218,617.1643 116.9384,617.7086 110.3441,617.3996 105.9826,618.272 92.0771,624.1404 88.7756,625.8149 86.7199,627.2567 85.7897,628.395 85.4357,629.5792 85.5596,630.8045 86.2793,632.4899 88.5277,635.0833 93.5055,639.0299 94.3608,640.3746 94.4375,641.2885 93.9135,642.6938 92.8418,644.1476 83.5357,653.679 81.3172,656.793 80.9383,658.7056 81.3594,660.4482 82.3474,662.0114 84.1045,663.7214 88.083,666.0924 92.0528,667.245 96.2898,667.3139 100.2167,666.3677 103.7359,664.5968 106.7403,662.3006 110.3389,658.5027 115.3158,652.0758 116.7281,650.8249 117.9504,650.4735 119.2177,651.1323 120.0232,652.53 120.7603,658.286 121.9457,657.8598 124.6387,655.2018 126.2518,658.8669 127.3217,660.4903 129.1245,661.6471 130.9032,661.6824 133.2467,660.5377 134.5613,658.6167 134.5556,656.7236 133.18,651.8832 133.3396,650.4719 134.0754,648.893 135.7302,647.541 137.7065,647.3247 137.3231,646.6624 137.3489,645.9147 138.8032,644.1899 146.3967,640.6199 147.5062,639.5356 147.2778,639.2715 146.7469,639.4383 146.5866,639.8447 150.2519,638.0184 153.4318,635.7866 155.5403,633.8609 165.6646,618.7854 167.4643,615.4282 168.5586,612.1734 168.7982,609.5673 168.4208,607.9874 167.9112,607.3763 165.9319,606.203 164.6681,604.8766 158.8649,594.857 157.3953,593.0497 156.3568,592.4147 154.7279,592.4334 153.0345,593.3902 142.9112,603.9856 140.4841,605.6386 138.0632,606.272 135.6633,605.8293 133.8799,604.78 131.5171,602.4618 125.7423,595.0021 124.1156,594.1259 122.5747,594.2952 119.7745,596.4315 114.0407,603.3255 111.7235,605.5927 109.4555,606.8777 105.2256,607.7761 103.3954,608.6347 95.7085,615.0422 85.3062,622.0701 82.9293,624.5719 82.595,625.5704 82.6943,627.0742 84.2164,630.139 87.2019,633.7979 92.9089,638.9943 93.9995,641.0492 94.0354,642.079 93.5946,643.6335 89.5075,650.605 88.2132,653.9278 87.927,657.231 88.7688,660.4676 91.5273,664.7636 97.1758,670.6525 100.4797,672.8357 102.1232,673.2315 103.7708,673.1371 106.0052,672.403 108.3303,671.1774 117.7139,664.8333 122.5355,660.5096 127.0207,654.9543 127.8306,654.5014 128.5412,655.2422 130.9045,659.7679 132.1408,661.4978 134.8106,663.0909 139.4378,667.902 142.1501,670.3012 143.8793,671.4417 145.3095,671.8929 145.5712,671.3976 144.0236,668.5946 143.3382,666.499 143.1956,664.5452 143.5274,662.0416 144.3617,659.4543 145.7016,656.8789 150.3712,651.017 149.236,651.2346 146.894,652.6231 145.9493,653.5599 145.9708,654.1447 146.9895,654.3314 148.739,653.7164 149.7235,652.8368 149.9877,651.6464 148.8608,649.5547 145.1145,646.1913"/>
    <polyline points="276.0431,673.6359 280.6188,671.0447 287.8767,664.6305 290.271,663.2884 292.1848,663.4182 293.3966,664.4082 293.8556,665.8207 293.7754,669.4038 293.9219,669.7936 294.2476,669.7444 298.8095,665.0526 300.5346,662.8004 301.1395,660.5164 300.8258,659.6846 300.3174,659.3834 299.9683,659.5729 300.1017,660.1535 301.8788,662.119 306.5783,666.2386 310.4301,669.0464 313.7172,670.8598 321.4026,674.0518 329.6775,678.1611 332.94,678.9333 336.4458,678.7092 339.8577,677.5134 342.4465,675.5942 343.5645,673.2898 343.4125,670.8502 341.948,667.0269 339.4558,663.1575 336.6554,660.0778 333.3234,657.227 322.0371,649.5342 320.7849,648.0805 320.3166,646.7036 320.8345,644.4002 324.2727,638.9374 325.1209,634.2613 326.0103,632.0905 336.3133,615.6712 337.0124,612.9426 336.8164,609.6929 335.7843,605.8832 333.9209,602.1528 331.7517,599.991 329.6899,599.2907 327.4544,599.428 324.6673,600.3633 322.2149,601.8333 320.6339,603.3216 318.4943,606.9564 315.7133,615.554 315.038,616.5154 314.3028,616.7916 312.3028,615.5907 308.3278,610.4791 306.7547,609.3892 305.9673,609.3507 304.7923,609.7976 300.8594,612.6587 298.7535,613.7263 296.4546,614.2147 293.9071,614.0659 290.4027,613.0756 286.2432,611.0274 282.1657,608.3367 274.5621,602.6185 270.6325,600.3515 268.7918,599.7699 266.3327,599.6419 264.3317,600.1782 262.3571,601.475 260.3886,603.8686 258.8764,606.7305 257.9635,609.699 256.8371,616.3519 256.0597,619.1807 250.6487,630.2929 249.988,633.6483 250.1887,637.5585 251.2005,641.3976 253.1616,645.0936 255.2702,647.6283 260.3629,652.6165 262.2008,655.2452 266.5731,667.2069 269.5261,673.3165 271.4314,675.8667 273.4194,676.9559 275.476,676.6454 278.4475,674.7775 281.5373,671.9413 286.9112,666.0079 289.2355,664.4239 290.4358,664.3455 291.4589,664.9841 293.0453,668.9876 293.7243,669.9647 294.589,670.2671 295.9193,669.7131 298.7316,666.9923 300.7573,663.8636 301.1879,661.3037 300.7158,660.0379 300.0353,659.6079 299.7865,659.8459 299.9623,660.3152 301.4211,661.9907 307.1661,666.5882 311.0685,668.827 319.535,672.7907 328.2043,677.735 331.1406,678.5242 333.3799,678.4333 335.5391,677.7691 338.0236,676.1632 339.742,674.0411 340.6033,671.7029 340.7043,668.6051 339.967,665.3219 338.3186,661.3639 336.234,657.6899 333.6884,654.1801 329.496,649.7644 328.9778,648.7848 328.9217,647.7959 330.0532,645.6617 334.2155,641.1455 335.623,635.8321 340.9158,626.7111 346.0088,613.2229 346.4973,610.9156 346.4005,608.6297 345.8871,607.0078 344.6391,605.0522 340.7694,601.8218 337.8866,600.1903 334.926,599.018 332.6086,598.6387 330.9323,598.8012 328.2831,600.0195 325.8396,602.2925 322.8069,606.4688 318.0796,614.7787 316.8479,615.808 315.8375,615.9297 314.2974,615.2524 312.5078,613.5709 306.2371,604.6791 304.116,602.947 302.5606,602.8424 301.0351,603.4856 295.0206,608.4469 292.9107,609.7326 290.6562,610.3539 288.835,610.3178 285.4767,609.3207 281.6304,607.1361 271.8374,599.0611 269.275,597.2847 267.7033,596.6444 266.2549,596.4784 263.6813,597.2462 260.7944,599.4175 256.8603,603.3441 254.9134,605.8096 253.7501,608.4351 253.5737,610.5116 254.0898,613.3888 255.399,617.0431 258.3718,623.5159 258.9329,625.6238 259.0115,627.6967 258.661,629.7326 257.7319,632.389 252.562,643.0785 251.8785,646.0705 252.0074,648.9908 252.7306,651.2475 253.6638,652.8677 256.6358,655.8399 260.2459,657.9971 268.4135,661.7016 270.2711,663.1565 270.954,664.7184 271.573,669.9031 272.7723,673.1556 275.6698,677.6374 279.0191,681.0968 280.4786,681.9836 281.8651,682.2756 283.1391,681.9746 284.2811,681.1668 286.2165,678.4408 290.3136,670.4295 291.5416,668.7097 292.7474,667.7004 293.6473,667.519 294.8826,668.0005 298.3314,671.305 299.7737,672.3196 300.8133,672.5389 302.0947,672.0746 303.2252,670.8889 304.1965,669.1979 307.4659,660.5248 308.1494,659.4914 308.9034,659.023 310.7006,659.4237 316.4564,662.8534 326.01,667.6512 329.2916,669.0016 332.5309,669.8834 337.2498,670.3853 342.8246,670.0656 347.381,669.0447 349.7742,667.6682 350.2834,666.8006 350.3625,665.8298 349.291,663.0745 346.7521,659.4704 340.0013,651.2334 336.7185,646.0518 335.9716,645.6789 334.3967,645.5266 325.6822,646.1913"/>
    <polyline points="476.8333,646.9472 478.4959,646.1693 479.9114,645.9463 481.0073,646.1684 481.8894,646.8381 482.1438,647.5386 481.8727,647.9773 481.3869,647.7599 481.0834,647.1246 481.1968,646.6228 481.9453,648.1205 484.2848,657.1588 485.5736,659.9795 487.1543,661.5361 487.5584,661.3366 488.0287,659.7455 492.7289,658.7366 494.0778,657.8431 494.6394,656.8734 494.4619,654.633 493.223,651.7993 491.5806,649.3113 490.9701,648.7584 490.228,648.5726 489.7784,649.0637 489.6708,650.0583 490.459,652.8097 492.0666,655.293 494.4894,657.8038 497.002,659.6479 499.2101,660.7524 501.679,661.4983 505.3277,661.897 512.192,661.4587 517.3929,660.2819 518.2273,659.3659 516.8736,656.6141 517.2914,655.3195 519.6475,653.926 527.0999,651.0407 528.6811,649.7247 528.3764,648.5807 526.4445,647.0772 515.4775,641.9809 512.0412,640.0783 510.0153,638.3419 509.2197,636.7991 509.312,634.6154 510.3635,632.1369 516.6997,623.0479 518.5645,619.5713 519.0233,617.8326 519.0904,616.0975 518.7705,614.3875 517.7882,612.2095 516.2794,610.223 514.4252,608.4467 504.0947,600.5939 499.9082,598.4466 496.7413,598.1306 494.0469,598.9023 491.328,600.8014 489.1858,603.234 485.6578,608.3278 483.7896,609.7882 482.8834,609.7925 481.5416,609.1154 476.1137,604.3981 474.7343,603.7706 473.3663,603.5606 472.0212,603.7802 470.7043,604.413 466.0242,608.7137 463.8904,609.9908 461.7384,610.2444 456.4706,609.5811 455.2259,609.8378 454.3272,610.455 453.8252,611.4426 453.7184,613.1933 455.2256,619.6695 455.1845,621.9391 453.7588,624.3189 449.2084,628.1422 448.7316,629.229 448.8803,630.1335 450.2808,632.1192 452.4175,633.818 455.6897,635.435 462.8007,638.0702 464.021,638.9177 464.2095,639.7945 462.756,641.7501 459.6403,644.486 445.8193,653.9369 443.9435,656.0391 443.5422,656.9951 443.592,658.2251 444.2592,659.1351 445.3457,659.6912 448.1529,659.8872 451.4315,659.171 458.4627,656.681 460.544,656.4053 462.4102,656.5437 464.3548,657.0701 465.7394,657.8335 466.6189,658.9164 467.8756,661.535 468.8566,662.1318 470.4139,661.0546 471.5215,658.8542 470.7674,660.0343 470.3054,662.2223 470.3254,664.8644 470.8418,668.0725 471.83,671.2665 472.8017,673.0991 473.8887,674.0828 475.022,674.2347 476.5139,673.6068 478.2332,672.1845 479.9592,670.1227 481.211,667.9125 482.0639,664.6535 482.4577,658.0569 483.019,654.7573 484.3679,651.0478 485.7206,649.5285 486.6649,649.3453 488.124,649.7987 495.9297,654.3094 501.6144,656.699 507.0572,657.9813 511.9888,658.1463 513.7772,657.8242 515.183,657.0709 515.6814,656.0743 515.9941,653.7017 517.2619,652.1341 524.9544,647.5167 527.5558,645.4786 528.4465,644.1275 528.5063,642.2219 527.458,640.2948 525.0865,638.1114 522.7222,636.7451 520.1857,635.8231 512.1501,634.391 510.8462,633.736 510.358,633.0359 510.5007,631.0506 514.2354,620.6185 518.9296,609.5909 519.437,606.6914 519.3208,604.6173 518.2565,601.5919 515.9132,598.7389 506.2299,589.9282 504.5053,588.9225 502.7732,588.6812 501.6157,588.9445 499.8765,589.8695 491.7231,597.3037 489.4006,598.9081 487.6717,599.6245 484.8325,599.717 482.6139,598.7745 480.451,596.9932 475.8118,591.9544 474.3501,591.0939 472.9365,590.9891 470.6753,592.0016 462.9145,597.6448 459.7108,599.2454 452.8298,601.9698 450.9391,603.4564 450.5925,604.2009 450.5183,605.4968 451.8665,609.2067 453.9408,612.164 458.9488,617.5062 459.8676,619.6956 459.5946,621.1618 458.3401,622.8028 452.3037,626.8771 451.9454,627.9533 452.3399,629.2069 454.0482,630.9481 456.515,632.3809 469.0632,636.9365 470.3061,637.693 470.8668,638.9075 470.5103,639.7775 469.2639,641.173 458.9877,649.5376 454.8144,653.4138 451.8598,657.088 451.2142,658.3886 451.043,659.6616 451.9106,660.4049 453.9245,660.3349 456.9682,659.5686 460.8092,658.0992 471.8827,652.8049 477.3723,650.6895 478.1741,648.3816 478.7035,647.8344 479.3824,647.6544 480.7874,648.7204 481.8878,651.1578 482.5827,654.4646 483.1604,660.9736 483.6501,661.9719 486.2532,657.4293 487.4961,656.1166 488.571,655.6519 489.6987,655.6311 491.0729,656.0228 492.0958,656.7128 490.6598,656.1335 489.1372,654.8446 487.4999,651.917 487.1156,649.7974 487.2263,647.0803 487.7535,645.445 488.6752,644.8151 490.8442,645.6632 498.1972,650.8779 503.9924,654.3397 509.3258,656.7695 512.4125,657.3993 513.6549,656.6467 519.4062,648.7088 520.481,646.4085 520.5069,644.6289 519.9303,644.8798 519.2459,646.1913"/>
    <polyline points="624.4456,671.876 625.7329,675.8039 627.9625,679.9898 629.7803,682.2632 631.9345,683.5934 633.4256,683.8819 635.0546,683.7701 636.7911,683.2258 638.5883,682.2223 641.5398,679.5693 645.4983,674.4902 647.0473,673.5462 647.7597,673.7308 648.8074,674.6653 654.0683,682.293 655.9288,683.7615 657.2674,684.0303 658.8125,683.2627 659.9492,681.3152 660.6755,678.3894 661.7587,669.0045 662.4841,665.3469 663.9631,662.0488 665.81,660.3217 667.8272,659.8946 670.7013,660.5339 674.1451,662.1626 685.5903,668.7173 689.2131,669.9632 692.607,670.3931 695.8332,669.8885 698.5949,668.0816 701.26,664.6582 703.0815,660.3425 704.6529,654.5443 704.7348,651.0143 704.1997,648.9503 703.4441,647.4339 702.2975,646.0459 700.7055,644.7706 696.4232,642.5391 691.9243,641.228 687.5625,640.8316 675.4878,640.9665 672.5637,640.2736 670.8111,638.974 670.1331,637.0055 670.1121,629.9935 669.4727,624.9046 666.8311,611.7188 666.1273,609.5271 665.422,608.4786 664.5277,608.0954 663.4311,608.3057 660.6995,610.096 658.1604,613.0326 654.7144,618.6736 653.4929,619.6792 652.4689,619.0649 649.6033,615.0882 647.6718,613.0799 645.9732,612.1342 644.019,612.1234 643.1498,612.5909 642.4995,613.5422 642.6073,616.194 644.8076,622.8543 648.9184,631.0898 649.2761,632.4788 649.0412,633.7457 648.4039,634.2396 647.1872,634.4456 643.1352,633.6397 641.8594,633.8421 638.1171,637.0861 629.9131,640.8257 626.3652,642.8783 624.0644,645.1103 622.7402,647.7745 622.4616,650.2436 623.0453,653.3153 624.2249,655.6632 626.0513,657.3891 629.1296,658.3105 639.1575,658.3822 641.0105,658.6656 641.3379,659.0479 635.8545,663.0769 632.5274,666.0659 628.5514,670.5127 625.4215,675.094 623.6588,679.4356 623.1632,683.1375 623.6171,687.3582 624.0532,688.5552 624.9054,689.5125 626.3053,689.4169 630.0553,687.1731 632.2957,686.2535 634.087,685.9823 635.8269,686.1971 637.4835,686.9621 638.6672,687.9705 643.1226,694.2302 643.8562,694.6583 644.9573,694.4996 646.781,692.6036 649.6123,687.5557 654.66,674.5435 656.7291,670.0565 658.4571,667.6014 660.185,666.5245 661.4613,666.4965 662.7281,666.9096 669.0017,670.5623 672.5482,672.2456 677.5946,673.5742 681.996,673.808 686.8865,673.4517 691.1967,672.6978 695.0252,671.4109 698.2662,669.2251 701.5023,665.5629 703.2374,662.887 705.077,658.5441 706.4335,656.1316 711.6798,650.4248 712.9476,648.2642 712.95,646.692 712.2144,645.2402 710.9352,643.9841 709.3209,642.9739 705.7298,641.6516 694.4904,639.1967 689.8935,637.8294 685.8903,635.7323 682.4661,632.7612 680.9376,630.5127 680.489,628.4984 680.7243,626.7359 682.4108,621.1763 682.0375,617.4871 680.5434,613.7099 678.2032,609.3445 676.5477,607.172 675.185,606.2337 674.2365,606.0446 672.7838,606.338 671.3309,607.1445 669.4432,608.7612 667.1945,611.6941 663.3623,618.4103 662.528,619.304 661.6943,619.7141 660.0191,619.3316 654.8169,615.3858 652.5024,614.331 651.0371,614.1597 648.9839,614.432 645.163,615.9484 642.3775,617.7533 639.3666,620.3261 637.9778,622.0272 637.4173,623.6675 637.5596,624.9007 638.3425,626.6155 643.0841,633.4524 639.2713,633.2956 637.0346,633.8102 636.3931,634.7585 636.7786,636.8468 636.62,638.1058 635.76,639.6933 634.5056,640.9372 631.3828,642.5333 621.3049,645.5978 619.2191,646.8129 618.3598,648.2424 618.7048,650.7355 620.4489,654.5331 622.5364,657.477 624.8794,659.5179 626.5682,660.3356 629.1413,660.8472 637.7262,660.3124 633.8002,663.2651 629.8137,667.4619 627.1681,671.0837 625.6512,674.5129 625.1561,678.366 625.7691,683.6569 627.5821,690.2346 628.6191,692.3278 629.3918,693.1213 630.2315,693.384 631.6133,692.9796 638.1668,688.101 640.4492,687.1085 642.1038,686.8973 643.684,687.1677 645.1783,687.92 647.0313,689.6388 650.2606,693.9308 651.2988,694.5989 652.2314,694.3548 653.5402,692.4465 654.9031,688.2523 655.9587,682.0917 656.7702,673.2807 657.4631,671.5614 658.6878,671.1552 660.613,671.5708 669.2071,675.8102 672.8976,676.8117 677.033,676.4571 682.4825,674.2853 685.28,672.5463 688.3721,669.8897 691.2008,666.7524 692.6035,664.3495 692.982,662.8334 692.977,661.2431 691.369,655.2373 691.1693,653.2187 691.6953,650.4732 693.1658,647.9154 695.3465,645.9871 697.9535,645.0839 701.3644,645.2107 705.4963,646.1913"/>
    <polyline points="623.6413,497.5327 622.1669,500.6166 621.9851,502.1251 622.2956,503.3118 623.6542,504.6194 628.9568,506.8026 630.4084,508.2327 631.1358,509.8507 632.7435,516.6857 634.1796,520.8473 637.3143,527.7838 642.0328,537.0269 643.9194,540.1041 645.787,542.0233 647.001,542.4382 648.7521,541.99 650.4001,540.6881 652.4211,538.2224 658.9663,527.5112 664.6576,519.6862 666.3585,516.6849 667.2346,514.124 667.6187,511.4681 667.3266,502.1659 668.3812,498.9655 669.1691,497.9901 670.4384,497.1093 676.5328,495.8333 677.9972,495.1005 679.2439,493.9568 680.1981,492.4247 680.9957,490.1283 682.5352,480.9489 684.37,476.9475 690.4226,468.9302 699.9166,460.1626 702.4832,456.7139 703.128,454.231 703.0351,451.0424 702.2745,446.7465 700.8938,441.9417 699.5563,438.521 697.8515,435.3258 695.3252,431.9682 693.0912,429.8808 691.3824,428.9607 689.7705,428.7935 688.2253,429.2162 683.8144,431.2968 681.5414,431.2142 680.3176,430.4876 679.0821,429.2226 674.7393,423.2141 673.4501,422.1193 672.551,421.7626 671.6261,421.7252 670.2039,422.1782 665.4946,425.5137 663.3928,426.4299 661.5499,426.249 658.4897,424.6069 657.0949,424.698 655.6488,425.6655 648.9206,431.5805 647.4365,433.3097 646.7028,434.9451 646.4242,436.7684 647.3645,443.7941 647.145,445.9807 646.0771,447.6072 641.8947,450.2358 640.7647,451.6843 640.7984,452.6068 641.5458,453.8125 643.0189,455.0153 647.1063,457.3527 647.5385,457.911 647.4257,458.483 638.0529,466.0955 635.6755,468.7546 634.2388,471.3655 633.9791,473.4121 634.54,475.2978 636.1434,477.267 639.4737,479.8387 639.8945,480.5206 639.8237,481.1707 626.8505,496.6056 625.2744,499.1186 624.5947,501.3047 624.7994,503.0367 625.6599,504.2832 630.5506,506.8814 631.897,508.5407 632.2381,510.6374 632.2509,518.7591 633.3241,524.4791 635.1032,530.2201 637.0592,535.2127 638.7674,538.4609 639.9864,539.8495 641.2463,540.3932 643.1694,539.8855 645.0729,538.3689 648.0238,534.8884 651.2773,529.656 654.8417,521.1124 656.5327,517.9243 658.7218,514.8649 663.8001,508.8013 665.3686,506.251 666.2296,503.5629 666.3123,500.7454 665.7974,497.8775 663.9822,491.6082 663.8693,490.2966 664.2182,489.0711 664.8324,488.504 666.0569,488.0887 671.9256,487.5292 675.1762,486.8972 677.4393,486.0096 679.0487,484.8205 682.3797,479.8724 696.3438,463.3162 699.8509,458.6491 703.216,452.4415 704.029,449.7511 704.3336,446.7251 703.9984,443.43 703.0677,440.1736 701.7142,437.5899 700.1156,436.2809 697.8598,436.2482 694.4907,437.4139 691.3063,439.0822 686.6135,442.4339 684.161,443.2662 682.628,443.0063 681.1835,442.2085 675.433,436.78 673.9459,436.1206 672.7701,435.978 671.1299,436.2241 667.6853,437.4877 665.9369,437.8282 659.3563,436.6828 657.5934,436.7821 655.4313,437.4258 653.3399,438.615 651.3109,440.2391 646.1725,445.0316 643.6192,447.9644 638.0058,456.9221 634.3263,461.269 633.9243,462.2776 634.2775,463.3632 635.2521,464.6212 638.0788,466.8341 639.2991,467.1418 640.5178,467.0668 642.6202,466.0836 642.3552,465.4107 640.3703,464.6223 637.6901,463.8966 635.5367,463.7133 634.1863,463.9602 633.3609,464.4545 632.7954,465.4968 632.7805,466.6618 633.3193,468.4143 634.2172,469.882 635.5613,471.2005 637.2995,472.1632 639.2771,472.6299 641.2733,472.5972 643.3501,472.0544 644.2929,471.3221 643.094,471.6895 641.3786,473.197 639.8643,475.1053 638.0821,478.1014 635.7915,483.9284 635.2794,486.7008 635.2991,488.7612 637.4244,493.8716 641.5779,508.0129 645.1959,517.6752 648.8322,524.4887 650.9925,527.0041 652.7233,528.2182 654.499,528.8036 656.8434,528.6235 658.5193,527.7906 660.5843,525.8365 663.3096,521.5415 670.377,507.4148 670.8237,505.0996 670.8219,502.0027 670.3496,497.9989 669.4998,494.3435 668.549,491.8727 667.7379,490.6731 666.6532,490.0551 665.3606,490.5002 665.3803,491.0869 666.575,491.8235 671.9573,493.5745 675.7857,493.931 678.2858,493.2803 678.9944,492.311 678.7833,490.9443 675.6951,486.2321 675.0697,484.5942 675.1192,482.9121 675.8688,481.2177 677.8091,478.9968 681.3856,476.4011 685.6126,474.2144 690.6075,472.333"/>
    <polyline points="626.0786,324.1105 625.8989,324.5776 627.1903,324.6669 632.4976,323.769 636.5993,324.5884 638.9816,324.5551 643.2285,323.7903 648.0451,321.4702 650.3847,321.1117 653.5139,321.9033 659.6767,325.0575 661.9571,325.2158 663.2902,324.4482 664.5787,323.084 672.684,312.2266 674.6744,310.6057 676.3443,310.0493 678.1978,310.1093 680.2481,310.6711 690.6169,314.9412 693.5229,315.4693 695.7804,315.2628 697.0066,314.6721 697.9245,313.7617 700.988,308.4701 703.3142,306.0054 706.8356,303.9145 719.957,298.1792 721.921,296.5638 722.4497,295.4198 722.396,294.2366 721.1006,291.8151 718.3541,288.8647 703.1636,276.3905 697.0674,267.8053 695.5367,266.286 693.8697,265.4189 692.1117,265.3255 690.312,265.8635 682.9359,270.6345 680.5491,271.4281 678.4584,270.9987 674.135,267.214 673.0147,266.8139 672.2323,266.8789 670.5799,267.7265 665.0878,272.4273 663.6442,273.0296 662.1927,273.1215 660.2567,272.4658 658.3156,270.9888 656.3668,268.8012 652.3395,263.2596 651.6683,262.6328 650.9333,262.4839 650.5016,263.5357 650.6601,266.1929 653.0356,278.1357 652.0209,274.2106 651.4676,273.3507 650.8157,273.0918 649.5249,274.0438 645.294,279.5026 643.4775,280.6622 641.9051,280.9384 639.4077,280.5317 635.5324,278.9777 619.1032,269.8006 616.8023,268.9576 614.5237,268.853 612.6454,269.9895 609.2396,274.2935 606.3271,277.2755 597.5511,283.8788 595.527,285.7099 594.6217,286.9595 594.1587,288.2232 594.1023,289.493 594.5655,291.392 596.8722,295.6767 599.6718,299.0252 603.3345,301.8704 606.9941,303.6755 612.8681,305.0914 628.7258,305.4817 631.6872,305.9359 633.3928,306.6835 633.7862,307.2789 633.7783,308.0066 631.6015,313.3648 631.129,317.3039 631.4022,319.368 632.0226,321.04 632.9588,322.1761 634.1785,322.7552 638.4516,323.2214 643.4582,324.8509 646.4232,325.1424 652.622,324.2188 658.4046,322.0282 661.7268,321.8804 664.8329,322.7823 667.0119,324.1023 668.2619,325.8266 668.2753,326.6761 667.9888,327.0468 667.6391,326.5907 667.7965,324.9975 669.3633,320.0212 671.4255,315.5117 673.3189,313.1134 674.6328,312.5228 676.09,312.6054 678.2436,313.4895 685.7836,317.7233 687.7931,318.1615 690.0323,317.7886 692.9939,315.7735 698.4013,309.9128 701.676,306.985 704.3158,305.2396 711.6897,301.4332 713.8522,300.0106 714.8253,298.986 715.3255,297.8961 715.1183,295.5312 713.1198,291.6681 710.4371,288.4524 707.0036,285.5442 694.8667,276.5599 692.8083,274.4132 688.555,268.942 687.1256,267.7783 685.516,267.1508 683.0617,267.1354 674.6445,268.5531 668.2631,268.2441 667.0462,269.1957 664.6569,272.9343 662.9742,274.9257 660.9651,276.2442 659.2137,276.6458 656.6706,276.1653 655.6029,275.4425 654.7698,274.3808 654.2177,273.0008 653.9251,270.8471 654.05,268.8551 654.5637,267.739 655.4474,269.1385 656.2375,273.1099 656.3846,276.2485 655.8457,278.4037 655.2165,278.7993 654.4305,278.4778 652.0386,275.2113 651.3788,274.9689 650.7475,275.7209 649.0112,279.7329 647.9061,281.5769 646.1349,283.1378 644.4113,283.5511 642.3811,283.194 639.2363,281.7289 627.6993,273.8889 623.667,271.6418 619.8131,270.6547 618.0479,270.6993 615.7073,271.3016 613.8026,272.3856 612.3178,273.7905 607.55,281.0889 604.5085,284.5205 601.77,286.7696 593.7997,292.3156 592.6242,293.9763 592.5276,295.6226 593.5159,297.7501 595.5281,300.1865 597.8614,302.2715 601.0981,304.2949 604.0613,305.6174 607.6391,306.7277 616.5446,308.0805 619.9746,309.8271 622.1196,311.9669 623.7073,314.5813 624.3522,317.0258 624.6442,321.2966 625.4217,323.2904 627.8859,325.6863 631.7517,327.4867 633.5053,327.77 635.2311,327.4974 636.9415,326.6198 639.95,324.4275 641.5288,324.1012 642.435,324.4473 643.6003,325.4071 647.6264,330.1288 649.981,331.5174 651.7958,331.9033 654.4107,331.9459 657.3884,331.5942 660.3617,330.8295 662.3918,329.8185 663.6036,328.5016 663.8785,327.0452 663.2549,324.4146 664.0947,323.5792 666.9403,322.9356 681.0709,321.3049 684.9846,320.3518 687.5386,319.1523 688.9702,317.5297 689.88,312.8168 691.768,309.8231 698.1932,304.0574 704.3599,299.4292 706.6504,298.3104 708.8679,297.7662 711.5782,297.7803 714.9298,298.4748"/>
    <polyline points="636.5937,146.6694 634.5437,152.5481 633.9648,155.9399 634.1645,157.3038 638.7759,157.1244 642.8119,157.8446 646.3939,159.2588 651.567,162.2368 654.4344,163.1567 659.82,163.2678 664.9525,162.7662 668.2173,161.7113 671.0004,160.1802 673.5142,158.0592 674.3648,156.4024 674.1602,155.23 673.0905,153.7703 667.2148,148.5448 666.8308,147.5978 667.1862,146.9383 668.4117,146.2802 670.8214,145.8013 681.2243,145.4638 686.0882,144.0356 689.5133,142.1369 692.9354,139.3466 694.9252,136.6869 695.6014,134.4278 695.3301,132.245 693.9493,129.8203 681.5307,117.0748 679.8946,115.9519 678.4105,115.4965 676.8816,115.8163 675.1135,117.0704 674.3598,116.767 673.546,114.7054 671.4193,106.1278 669.7575,100.8353 667.9079,96.7204 666.3351,94.6835 664.9103,94.1117 663.4067,94.6554 662.1826,95.8123 659.1436,99.826 658.2078,100.5047 657.2336,100.6271 655.4784,99.725 650.6962,95.2831 647.4296,92.9986 643.9026,91.5907 642.2444,91.3257 640.4616,91.4488 639.4286,92.0698 639.1488,93.3529 640.8202,99.3601 640.9518,103.0793 640.219,105.6685 638.2016,109.4138 638.4722,109.9035 640.1612,110.9413 633.9245,113.2009 630.7328,114.9085 628.6692,116.902 627.9399,119.2014 628.3023,121.5472 629.3723,123.6921 630.778,125.1503 632.9254,126.3176 634.5498,126.6866 636.7919,126.7062 645.3883,125.2717 641.4724,129.0049 638.7965,132.3733 636.0707,136.9131 634.2758,141.1448 633.6411,144.7734 633.9489,148.1343 634.8921,150.4454 636.7967,152.2679 639.1197,153.272 647.272,155.7203 652.5687,159.0948 654.4982,159.922 659.9279,160.6302 666.9024,162.5215 668.7723,162.5383 670.5504,162.1352 672.5755,161.0641 674.3656,159.4685 676.1956,157.0268 677.3596,154.6229 678.4157,149.5887 678.5892,141.4488 681.7478,143.3454 684.8104,144.4312 687.5608,144.5923 690.5853,143.8043 694.7746,141.2678 700.9921,136.0318 703.5817,132.7781 704.294,130.0281 703.7453,127.3576 702.099,124.397 699.2101,121.0314 695.9635,118.4341 693.7315,117.2763 691.3654,116.5288 688.5036,116.1542 682.3081,116.1002 680.5014,115.5582 679.3228,114.6894 677.9195,112.2498 676.3937,105.2858 674.6831,100.4559 672.175,95.339 670.1077,92.8951 668.4624,92.3461 666.2154,92.688 663.6676,93.8247 658.6854,96.8427 657.4033,97.1874 656.187,97.1431 654.664,96.5687 652.8748,95.2886 644.4899,87.4429 641.9704,86.5255 639.4979,86.885 634.4105,89.5576 631.6166,92.0225 631.2299,93.0401 631.2742,94.1035 633.0547,98.5061 632.9563,100.4509 631.924,101.7751 627.8807,104.1231 627.1506,105.0649 627.2449,105.8544 627.8117,106.7121 632.1776,111.1308 632.6868,112.6519 632.4028,113.8014 630.3605,115.6967 623.392,118.8925 621.9364,120.2035 622.3764,121.2016 623.7435,122.1408 639.5386,129.0594 641.1823,130.0633 641.7814,130.9007 641.7256,131.8011 641.0061,133.0646 632.135,144.2163 630.5092,147.1348 629.6662,149.608 629.309,153.1893 629.9493,157.7097 631.5702,161.9579 632.5236,163.2531 633.5448,164.0618 641.4546,166.6062 648.5528,170.8393 650.7483,171.4462 653.9544,170.7222 667.4524,164.4674 669.9252,162.2894 670.91,159.5842 670.7437,152.1183 669.5034,139.9604 670.214,136.2231 671.8717,132.9878 673.0598,131.7929 674.4487,131.1553 675.9991,131.0844 680.2736,131.6515 682.0189,131.3484 683.3123,130.7433 685.8504,128.438 690.6579,121.592 692.5215,120.1758 693.9126,120.1837 695.241,120.9193 698.3285,124.6165"/>
    <polyline points="514.1772,124.6165 519.3986,126.1412 524.322,128.3941 527.284,130.7566 527.8118,131.972 527.6313,132.7662 526.9366,133.5348 525.0128,134.6196 519.6883,136.4744 510.4035,138.8424 503.7128,139.8436 490.7127,138.9763 488.8404,136.8734 485.3918,130.6476 484.4546,129.7954 483.7233,130.5246 481.5474,135.7262 480.228,137.0692 479.1105,136.7356 476.4521,132.7986 475.9476,132.3821 475.5092,132.4238 474.944,133.5956 474.1307,137.7884 473.3206,138.8256 472.1051,138.4987 468.0087,135.2469 465.8711,134.1873 463.7105,133.9977 458.0933,135.1313 456.3639,134.8613 454.3717,133.7938 452.5414,131.8068 450.4049,128.011 447.684,127.0749 446.9822,126.4879 446.773,125.5251 447.0094,121.224 446.1207,117.1032 444.6163,113.8618 440.9712,108.6247 440.2445,106.1729 440.7768,104.1077 444.4006,98.996 445.8805,95.6648 446.755,91.4214 447.3306,82.7375 447.9146,80.0974 449.3428,78.0328 451.652,76.8383 454.9757,76.7333 458.2957,78.0584 461.8995,80.772 468.5703,87.0858 470.9402,88.5666 472.0983,88.8137 473.2069,88.6422 477.4779,86.0525 478.3654,85.9078 478.9018,86.1921 479.6008,87.3268 480.1659,89.1578 482.4874,100.0092 483.812,102.8716 485.4243,104.4261 487.0738,104.4921 489.3113,103.4124 491.45,101.7225 494.991,98.1521 495.7104,97.8851 495.8282,99.5316 494.9644,102.8213 493.2794,106.3068 489.797,111.4274 489.7448,112.3544 490.3209,112.8203 494.0827,113.4993 499.4031,113.5642 510.3364,112.2091 511.5646,112.5865 511.9112,113.4424 511.7708,114.7247 511.1635,116.2555 507.3055,121.7965 506.7764,123.4715 507.435,125.0298 510.7327,128.0641 512.0399,129.9093 512.121,131.5702 510.9167,132.9178 509.0689,133.7339 506.1021,134.4509 496.6903,135.6482 490.7893,136.1015 484.8098,135.8353 484.9509,136.4753 486.0457,137.6165 490.4893,140.1952 490.8986,140.9516 490.3418,142.0645 488.4817,143.8545 486.3433,145.3954 484.9316,145.9575 483.2165,145.5432 478.9015,141.4475 476.1662,140.3912 473.2851,140.8185 468.6707,143.3572 466.1953,144.2358 463.6008,144.3312 461.4071,143.3632 454.9984,136.6079 449.1045,132.8862 447.5938,131.4845 446.8268,129.2289 447.6731,123.495 447.2628,120.9922 445.2559,118.5531 439.4986,114.2947 438.2078,112.5069 438.4401,111.0301 440.7241,107.6247 441.1219,105.2914 440.521,102.4125 438.0625,95.8693 437.9051,93.9918 438.1786,92.8139 438.8117,91.7068 440.3757,90.1913 443.164,88.4574 446.1627,87.0591 449.7231,85.7737 453.5036,84.8713 456.2742,84.6344 458.8234,84.8754 461.7537,85.8404 465.1023,87.9249 467.8224,90.402 471.9104,95.4127 473.1506,96.3776 474.3623,96.3283 477.5243,93.9707 478.4496,93.7588 479.3028,93.9909 480.2825,94.9541 481.2501,96.9659 484.977,109.7221 486.0464,111.6566 487.128,112.0556 488.2525,111.8908 495.6788,107.8904 497.095,107.5817 497.6451,107.92 497.51,109.0862 496.7074,110.553 491.6944,117.2461 491.4216,118.6567 492.2563,119.9476 493.5633,120.697 496.3819,121.5915 501.8035,122.3628 507.4262,122.2532 513.6252,121.1605 512.0716,121.872 510.2195,123.2068 508.431,125.5999 508.2174,127.9044 509.8789,131.832 510.1245,133.2596 509.3848,134.6551 507.5898,135.5713 504.5256,135.9748 501.106,135.4734 498.2321,134.3669 491.0805,130.7037 487.4541,129.58 484.1505,129.4585 479.1719,130.6696 478.6013,130.1651 477.3308,127.7521 476.5592,127.236 476.1192,127.8212 475.8381,129.4088 475.4559,137.467 474.9966,138.8063 474.0343,139.8055 472.7848,140.0915 471.4979,139.7288 470.3952,138.886 468.7954,136.929 467.0892,140.334 465.8355,141.8832 464.2844,142.9 462.2498,143.2954 460.6076,142.9598 459.156,142.1046 457.7849,140.634 456.888,138.9815"/>
    <polyline points="350.0972,124.6165 347.8652,125.0894 346.2182,125.8342 344.8537,127.1135 344.26,128.4246 344.1174,129.9678 344.3886,131.6495 346.4357,137.7721 347.3223,141.5515 347.6568,144.4187 347.564,147.0887 347.1288,148.9865 346.2238,150.9085 341.3353,156.7466 339.9016,159.2667 339.3357,162.1649 339.7494,168.1939 339.3044,170.2741 337.8705,172.1971 334.8624,174.3939 331.3171,176.2528 327.8628,177.3786 325.3269,177.409 322.4686,176.1054 320.3881,174.237 313.4881,166.8298 310.9056,164.8131 307.9435,163.1662 305.532,162.3556 303.3502,162.154 301.7251,162.4957 297.9381,164.2228 296.6982,164.2988 295.3005,163.9652 282.8994,159.4496 278.8329,157.6542 268.9527,152.5567 263.7576,148.6398 262.14,147.754 253.3582,145.1348 249.7855,143.4203 247.6032,141.4789 245.9767,139.0737 244.5004,135.7073 243.7994,132.9674 243.6552,129.0485 244.6287,120.9528 244.3473,118.1707 243.1714,112.5951 243.1784,110.978 243.6504,109.4144 244.6914,107.929 246.2568,106.5511 251.7665,103.5956 257.4773,101.7994 267.2174,99.9678 270.9846,98.2469 273.1581,96.2638 274.8576,93.7765 278.2737,85.1575 279.617,82.7227 282.164,80.3647 285.696,78.6072 290.2112,77.516 298.7185,76.8247 307.8853,74.1861 309.6135,74.1049 310.8271,74.4963 312.3348,75.7554 314.4024,78.7255 317.4069,84.1303 318.7326,87.5329 319.6461,93.5824 319.5714,97.6677 318.9488,103.1252 319.3208,104.4463 320.086,104.8609 321.3423,104.9789 324.3221,104.4748 327.752,103.1587 333.116,100.3555 334.4717,100.0298 335.2595,100.1599 336.6044,101.3538 339.3622,106.6983 340.6844,108.5409 342.8002,110.3794 348.3053,113.9084 349.6868,115.2927 351.036,117.346 352.1604,120.2117 352.7829,123.8025 352.6855,127.4298 351.8614,130.9425 349.8587,134.9071 344.5198,141.4659 338.2449,151.1841 336.8862,155.259 335.0412,164.905 333.6574,168.1922 331.4716,170.1035 328.3258,171.167 324.7406,171.4069 321.256,170.7287 319.1209,169.7268 316.7077,167.9609 314.1957,165.382 309.1749,159.061 307.192,157.4493 305.0725,156.2911 297.2251,153.1576 294.6342,152.4713 291.6182,152.5459 284.5948,153.9776 282.5541,153.8931 280.4751,153.3699 276.6212,151.5042 269.2422,147.0005 266.6121,145.0067 263.3079,141.8653 261.6007,140.7661 249.9992,136.8946 245.7929,134.7493 243.4753,132.475 242.7247,129.9841 244.6022,120.4189 243.9221,110.1052 244.6417,108.1629 245.768,106.8364 249.2775,104.5645 254.2537,102.61 259.8435,101.2346 267.7223,100.2708 270.5144,99.1814 272.7054,96.7365 276.4436,89.0306 278.8459,85.4016 281.8967,82.4709 285.5674,80.3035 288.4547,79.2621 291.4604,78.6982 294.4925,78.6164 300.3639,79.0154 302.6247,78.8002 304.856,78.1592 310.8951,75.6756 315.0513,74.5083 316.5351,74.3949 317.9862,74.6587 320.8328,76.5828 326.6997,83.5722 328.2072,85.8575 329.3389,88.3259 329.9053,91.0227 329.7656,93.8503 328.9582,96.614 326.057,102.88 325.8155,104.0731 326.086,104.8144 327.1577,105.1533 329.0414,104.9045 337.5346,102.3137 339.1294,102.3148 340.7264,102.7382 343.4111,104.2871 355.8208,113.1535 357.7467,115.7049 358.107,117.0771 357.9894,118.4751 357.1421,120.3437 354.359,124.3441 353.2587,126.4638 351.4623,133.9318 350.2197,136.8078 339.5958,149.9814 338.6838,153.2216 337.4278,162.1365 336.482,163.906 334.9143,165.0827 333.3473,165.56 331.53,165.6723 328.1959,165.0099 316.4427,159.3823 307.903,156.576 300.549,155.3158 293.6033,151.4237 290.1039,150.3724 286.2984,150.6288 276.2583,154.4648 268.406,155.8881"/>
    <polyline points="182.5673,124.6165 178.9748,127.4525 176.2642,130.3785 168.0589,142.9418 166.137,145.403 164.1334,147.332 161.793,148.7433 159.3951,149.2877 157.6416,149.0649 153.8708,147.7019 153.5164,147.8552 153.4875,150.4075 154.3718,156.1099 157.5622,167.9446 157.4588,169.4216 156.5722,170.5752 154.905,171.4412 151.9814,172.2022 148.9196,172.5317 146.0734,172.3962 142.9225,171.5463 137.1485,168.7286 131.3481,166.8291 128.9454,164.9029 126.7915,161.9134 124.6861,157.739 123.0787,153.2147 122.0019,148.5122 121.3823,143.1656 121.5726,131.5169 120.5159,129.5808 120.1256,127.7058 120.7218,124.1109 121.0716,123.3855 121.6909,122.9698 123.7425,122.7771 126.702,123.0649 128.7585,123.5916 129.7104,124.3353 129.6967,125.1708 129.089,126.4207 127.138,128.6385 126.2101,128.9271 125.3486,128.8177 123.5325,127.7334 102.4683,104.4455 99.7885,100.8926 98.5203,98.2062 98.4407,95.725 98.9465,94.5749 100.314,92.9683 108.0246,87.5688 110.4082,86.2907 112.556,85.5464 115.0263,85.3678 117.0732,85.8206 119.5357,87.0164 124.731,90.6236 126.6486,91.614 128.552,92.0875 133.0499,92.2834 135.3328,93.3429 136.7969,95.2355 137.6418,97.794 137.8589,100.2426 137.7128,104.9732 137.9855,106.9991 138.8644,108.6909 140.3787,109.7766 142.2816,110.0443 144.2832,109.4101 150.6723,104.7209 154.5496,103.0188 158.9815,102.4529 160.8582,102.6955 162.3346,103.298 163.7098,104.8831 164.8453,109.2499 165.7345,111.0041 167.2487,112.7581 172.3066,117.1553 174.4134,119.4296 176.0332,122.2802 176.5182,124.7776 176.3593,126.8523 175.6435,129.5141 174.1293,133.2722 172.721,135.8803 169.5179,139.7356 164.7802,143.1774 162.5484,144.1702 160.3218,144.7577 158.1338,144.9518 155.5342,144.7104 151.9521,143.4077 147.8638,140.0602 147.9905,142.8703 150.2509,153.6609 150.7807,158.6261 150.502,161.6558 149.8552,163.6588 148.8294,165.3431 147.4733,166.6495 145.279,167.7507 142.1553,168.0712 139.5161,167.5163 133.6165,165.1951 130.5264,164.9221 128.1626,165.8856 123.0262,169.7905 120.7876,170.9633 118.0988,171.4317 115.6951,170.7246 114.1321,169.1559 113.2484,167.3842 112.6569,165.204 112.3615,161.9005 112.9302,156.652 115.5696,145.3275 115.8015,142.5559 115.6172,139.9611 114.9878,137.5003 113.9676,135.2517 112.3489,132.9779 110.0316,130.7749 109.7319,129.992 110.5609,129.0926 115.4763,126.1483 118.4569,123.7698 120.4706,120.9706 120.3507,120.3215 119.6325,120.3627 118.9214,120.892 118.8375,121.4612 120.4263,122.3859 124.4106,123.0669 127.9369,123.0191 126.7549,123.118 125.9826,123.8052 125.942,128.2956 125.6935,129.1213 125.1531,129.6403 124.2885,129.664 123.54,129.3041 121.1886,126.994 112.9092,116.3033 103.0073,104.3183 100.1948,100.2354 99.2232,97.7477 99.2039,96.0472 100.3053,94.0293 102.3735,92.2935 107.5141,89.3604 111.2576,88.2368 113.7257,88.5686 119.1603,91.4199 121.4313,91.9837 123.6854,91.685 129.0297,89.7169 130.5796,89.6332 132.0929,89.9899 133.5202,90.8068 134.8079,92.0158 136.734,95.2211 137.491,98.5369 137.6453,104.4643 138.2372,106.2821 139.9388,108.0753 142.4395,108.9476 144.0697,108.9037 146.2037,108.1606 152.7237,103.5412 156.4061,101.6058 160.4173,100.2695 162.7769,100.299 163.6618,100.9125 164.3652,101.9692 166.3767,107.8404 167.4705,110.0714 169.4283,112.7471 176.2401,120.4363 177.9387,123.4396 178.6392,125.9072 178.5481,129.3162 177.4074,132.6772 175.2312,136.4162 171.9169,140.8061 170.003,142.7788 167.7559,144.4278 159.9875,147.8002 158.6085,148.9905 158.562,149.7926 160.443,154.8877 161.575,160.4433 161.6362,164.4289 160.6562,167.1347 159.2203,168.7874 156.6577,170.4869 153.8301,171.6909 150.4524,172.6629 144.8897,173.2654 138.0887,172.3952 130.7513,172.2246 128.9155,171.7407 127.6637,170.7632 126.5419,169.1048 125.5613,166.8584 123.4767,158.8422 122.5074,151.5191 122.1187,141.12 121.5655,140.0759 120.2527,139.421"/>
    <polyline points="125.2245,300.6069 126.6807,300.1102 128.1764,300.0174 130.1836,300.3445 131.145,300.8305 129.1667,302.9398 127.466,305.3693 126.3575,307.4603 125.8268,309.2584 125.7808,311.0126 126.2025,312.5942 128.341,315.6051 139.8645,327.6926 145.3198,332.3226 147.7177,333.4058 149.6405,333.6597 152.4685,333.1432 154.7673,331.9764 160.2222,327.5254 164.4461,324.9083 165.1978,323.7475 165.0542,322.501 164.0893,320.4629 159.4107,314.0338 159.1977,312.7211 159.802,311.1664 161.5318,309.4625 165.3325,306.941 176.4985,301.2277 178.1239,299.9668 178.6936,299.1009 178.6647,297.3476 177.6566,295.6385 175.4615,293.3207 169.6645,288.3199 168.282,286.4757 167.6885,284.8525 167.7458,282.7006 168.4936,280.6522 172.7937,274.5056 174.0547,272.0916 174.3931,270.2052 174.1474,268.2794 172.2964,264.3889 168.9688,259.9843 164.8532,255.6518 161.6361,253.4057 158.8746,252.3745 151.5594,251.1912 148.3134,250.1694 145.2559,248.4555 139.8367,244.281 137.7746,243.3127 135.6461,242.9027 130.7576,242.7844 128.0311,242.411 124.7151,241.2896 116.6892,237.5253 113.8057,236.9965 110.9065,237.2615 108.5912,238.0977 106.3658,239.5713 104.3106,241.6229 102.4248,244.0675 93.4103,257.4302 92.3028,260.4857 92.2648,263.602 93.5712,267.5312 96.4757,272.0705 99.4049,275.406 105.3504,281.0532 108.9193,284.9939 111.5971,286.7851 123.479,292.5382 125.9339,294.1711 127.2945,295.7832 127.412,297.0452 126.6688,298.2774 125.0878,299.494 122.7352,300.7024 119.0222,302.1129 115.07,303.1873 111.3659,303.7543 110.0835,303.5307 113.8998,301.2613 115.6388,300.7405 117.2486,300.6294 119.5124,300.9004 122.3245,301.7176 124.3291,302.7075 125.3772,303.7371 125.7162,304.6912 125.5596,306.2086 123.9113,309.0629 122.8598,309.9403 121.4719,310.369 120.5156,309.9897 120.2788,309.1592 120.6743,308.3103 121.4226,307.7716 122.1889,307.6975 122.6665,308.1283 122.6728,309.4611 121.6219,315.4331 121.4778,318.3276 121.8031,320.5732 122.753,321.9032 126.9888,325.4204 134.6547,329.7253 137.827,331.8373 147.2544,340.3526 149.593,341.2992 150.7249,341.2676 152.3774,340.7228 156.055,338.1433 160.9504,333.5731 163.8082,330.1934 164.9375,327.6772 164.9713,325.0332 164.0391,322.1734 159.5442,315.5516 158.7528,313.9449 158.6224,312.4993 159.0965,311.2032 160.8231,309.2845 163.6696,307.1718 175.5659,300.1009 177.0319,298.3765 177.2805,296.5906 176.5714,294.3616 174.9082,291.4294 168.8509,283.7764 167.6404,281.7304 167.0409,278.7824 166.7892,268.2758 165.9527,263.1703 163.8927,257.5747 162.2327,254.7881 160.7042,252.9667 159.4591,251.9749 157.68,251.2158 151.3528,250.7883 148.5475,250.0847 146.0233,248.5814 142.1884,244.9076 140.6225,243.7843 138.9802,243.1795 134.0374,242.6051 131.6098,241.9139 122.7357,236.9744 119.3974,236.5509 115.2814,237.6368 112.1575,239.3359 108.2909,242.3137 103.9946,246.4569 101.6201,249.5542 100.7279,251.47 100.2674,254.1156 100.5077,256.8723 101.4866,260.4584 103.885,265.6202 107.0892,269.9224 110.5356,273.1899 119.6628,280.2445 120.8948,281.6972 122.6122,284.7115 124.9174,287.0208 127.6415,288.7731 131.2272,290.0834 134.9653,290.5865 136.5428,290.5038 137.1034,290.1044 135.7304,289.5505 133.1591,289.5103 130.825,290.0686 128.4564,291.1382 125.625,292.9855 123.2557,295.0482 121.6776,296.9373 121.157,298.5224 121.4082,298.9484 122.1243,299.1557 126.5477,298.5252 130.1977,298.7621 134.3345,299.9022 136.5403,301.1755 136.9557,301.9231 136.9028,302.7862 134.1956,308.6259 133.4061,311.9946 136.0262,309.6789 135.7955,313.4895 136.1387,315.2892 138.3552,317.2674 143.4119,325.2223 147.4034,329.648 150.1025,331.5915 153.3428,332.9141 156.9785,333.3526 160.9777,332.8238 162.9157,331.5935 164.2918,327.3196 165.5401,325.8206 167.2739,324.9723 174.21,322.6161 176.5634,321.1352 177.1485,320.2551 177.2873,319.2925 176.5156,317.1852 174.39,314.4447 169.881,309.761 169.1574,308.6398 168.9122,307.6141 169.3316,306.3409 171.0216,304.8121 179.0674,301.2052 180.2255,300.1671 180.034,299.7316 179.0757,299.2092 174.9959,298.4748"/>
    <polyline points="291.9663,313.6543 296.4369,316.049 297.9173,317.2219 298.9179,318.5209 299.3491,320.8142 298.7739,327.19 299.0178,328.7972 299.4331,329.543 300.2994,329.9788 305.9221,330.6619 307.6666,331.3109 309.237,332.3032 312.3529,335.6759 319.6984,346.3106 321.4908,347.8604 323.3932,348.562 325.3928,348.4463 328.1824,347.4375 332.4806,345.0442 335.8067,342.6148 337.8369,340.362 338.9414,337.9698 339.1625,335.6603 338.6269,331.4081 339.1381,330.1174 341.5135,328.5414 351.5546,324.0062 353.8069,322.0594 354.3722,320.4004 353.7844,318.0123 351.6939,314.9588 348.7923,312.0266 344.1376,308.1269 335.6794,302.0298 331.0782,299.462 322.5071,295.3283 321.0953,294.2934 320.0369,293.0176 319.4395,291.7235 320.5964,291.8126 321.3465,291.5318 322.707,289.224 324.1858,284.6262 324.5197,281.1162 323.9653,277.1823 322.6517,272.6781 321.0025,268.8598 319.4569,266.6911 318.3645,265.7719 316.7414,265.0082 309.9448,263.6756 308.2845,263.6134 304.9104,264.3959 303.0489,264.0755 300.2374,261.8777 293.7749,254.1391 292.1939,253.2001 290.9052,253.3455 289.7061,254.578 287.4534,259.1771 286.0289,261.4153 279.6773,268.1893 279.3516,270.063 280.314,275.3808 279.7007,277.4994 278.8723,278.1472 277.6553,278.4724 272.7897,278.3848 271.9751,278.591 280.5261,284.02 288.6334,287.832 283.4504,289.2865 277.0579,291.6867 271.0952,294.4128 266.7616,296.8469 264.3152,298.7924 263.3798,300.2198 263.2779,301.5922 264.1859,303.282 265.9029,304.7657 269.2321,306.605 275.7416,309.2999 279.7187,310.5378 281.8754,310.7938 284.372,310.5527 289.5053,308.5103 289.7695,309.5725 288.8095,316.4065 288.8346,320.4653 289.878,324.234 291.5122,326.6215 293.1867,327.6174 295.5643,327.5511 297.598,326.6477 303.3556,322.767 304.9157,322.412 306.4724,322.6727 308.0362,323.497 310.1587,325.2919 321.4742,337.666 323.3517,339.3556 324.8755,340.1705 326.095,340.036 327.3953,338.7413 332.9125,327.4585 335.3237,324.2929 337.8667,323.0755 344.8686,322.4395 347.9849,321.8015 350.3578,320.6606 351.1746,319.4662 351.1634,318.0248 350.5741,316.4096 348.0355,312.4541 343.7584,307.7345 338.2264,302.9362 334.1332,300.0678 329.2003,297.3123 324.8889,295.4793 317.0291,292.9603 319.8415,292.5621 321.6785,291.788 322.9397,290.4763 323.2978,288.9261 322.6894,286.3699 321.2941,284.1283 319.9169,283.0858 316.5563,281.8989 316.0665,281.3832 318.8018,276.5686 319.3998,274.705 319.6622,272.5802 319.034,267.8559 318.1664,265.5695 316.9583,263.7739 315.0337,262.6994 312.8446,262.7324 308.9582,263.9105 305.2345,266.0484 303.4738,266.0678 302.0099,265.2701 300.6728,264.0766 294.5639,257.2286 292.5186,255.975 291.0156,255.697 289.2059,256.0746 287.4941,257.2923 284.2204,263.3464 279.0128,268.4267 278.171,269.5909 278.0638,271.3468 280.1527,275.6813 280.2167,277.0413 279.8703,277.9578 278.0979,279.3534 273.8836,280.5297 273.1798,281.0859 274.3364,282.1165 278.9148,284.4987 288.9961,288.8152 290.0241,289.8436 290.0358,290.9466 288.2424,293.4936 285.3209,295.9713 272.6925,303.2033 270.1543,304.984 268.9669,306.1783 268.0553,307.9629 267.9968,309.7225 268.6882,312.0077 270.1682,314.7214 272.3434,317.6868 274.4055,319.8326 277.0091,321.8372 279.3879,323.0114 280.7603,323.2631 282.3024,323.0103 287.0801,320.1151 288.1512,320.1634 289.0175,320.6694 290.1562,321.9543 291.3974,324.0774 295.5192,334.4469 296.5184,336.288 297.2106,336.9803 297.9225,337.2271 299.0185,336.9733 303.7258,334.1124 305.1291,333.8649 306.5628,334.0899 308.0709,334.8042 309.6928,336.0357 315.4006,342.0587 317.5124,343.8093 320.1081,344.8548 322.8173,344.6272 324.8413,343.5438 326.3923,341.615 331.7852,329.6031 334.0484,325.7741 335.3266,324.5397 336.7018,323.8682 341.3685,323.553 342.9244,323.0405 343.6016,321.7998 343.6664,319.3673 342.9421,315.2377 341.2822,311.0011 338.6489,307.0766 334.9532,303.339 330.5452,300.3094 326.1265,298.4737 320.0768,297.4189 317.1673,297.3601 315.7195,297.6211 319.0805,298.4748"/>
    <polyline points="447.8923,330.7539 448.4132,331.8838 451.0434,334.6412 453.5167,339.5157 454.2827,340.1428 455.1833,340.185 458.2067,338.2501 462.2313,334.2009 464.8914,330.2278 467.9672,324.2886 469.2433,322.7859 470.1168,322.7613 470.9607,323.4079 475.8643,329.6652 478.2596,331.977 480.3142,333.0554 482.7236,333.2464 485.6859,332.1203 490.5448,327.7741 493.0911,326.2609 502.5803,323.6587 510.935,320.595 520.4004,317.886 523.3725,316.5691 525.0924,315.2271 525.941,313.6206 525.9316,311.7527 525.2241,309.6432 523.8058,307.3551 522.2353,305.5927 515.9209,300.3158 515.3189,299.4596 515.2077,298.2857 516.4967,296.4937 519.7527,293.8791 532.0365,286.3327 533.7983,284.606 534.4024,282.9183 533.7928,280.8097 532.3499,278.9014 520.2613,267.265 516.2444,264.9759 507.2705,261.9882 504.5684,260.2005 501.6629,257.5986 499.2429,254.8703 497.0926,251.8563 489.1759,238.3215 487.6773,236.398 486.1205,235.0884 484.521,234.5376 482.8946,234.6467 476.9006,237.1771 474.1953,237.8092 471.433,237.599 466.0204,235.9609 464.028,235.6697 461.1997,235.9784 458.949,236.7916 453.336,240.2448 447.1374,245.425 445.4975,247.6363 444.7982,249.2311 444.3813,252.7328 444.728,255.6254 445.6973,259.7619 449.5582,271.4643 452.0241,276.4504 457.51,284.4708 458.6216,286.8541 458.7037,288.4618 458.0861,290.2866 456.7371,292.2464 454.4464,294.6079 454.1797,295.6306 455.7416,296.3757 458.5975,296.2962 462.3245,295.2739 465.2341,293.7205 462.9567,300.097 460.6555,304.7416 457.6139,308.9423 450.9074,316.24 449.7464,318.3326 449.4969,319.6302 449.7846,321.3984 451.2853,323.9319 457.6705,330.8213 462.2361,336.5679 463.7501,337.6781 465.8185,337.8275 468.113,336.9612 471.0859,335.0439 474.5522,331.3388 478.7358,324.0247 480.1339,322.468 481.1503,322.4594 482.1863,323.1656 490.941,332.4995 491.4803,327.5715 492.1138,326.146 492.9813,325.4019 514.8016,320.7238 519.6046,318.9006 522.5844,316.9205 523.9222,315.307 524.5271,313.4608 524.3121,311.382 523.5715,309.6864 522.2941,307.9042 520.4703,306.0777 512.5602,300.3006 511.7192,299.2824 511.4722,298.3159 511.7417,297.3942 512.841,296.071 519.849,290.625 523.1941,287.3732 525.2366,283.8505 525.7222,280.4831 525.4463,278.9671 524.6314,277.1145 518.7701,267.5274 516.5791,264.8415 515.2945,263.9004 513.3912,263.1292 507.1293,262.141 504.1704,261.2272 501.1604,259.5612 498.3309,257.0586 496.1472,254.0701 491.6992,245.0605 488.8747,240.038 486.5315,236.9239 484.5333,235.3957 481.9697,234.965 473.7854,237.2469 466.1809,237.3409 463.3492,237.6749 458.6344,239.1182 453.9503,241.5864 451.3063,244.0858 450.6622,245.7756 450.6168,247.6859 452.1266,254.9995 456.7857,271.2055 457.1851,274.2872 457.3818,280.6427 458.5783,288.1754 458.4019,290.0766 457.7542,292.1189 456.7065,293.8199 453.9944,296.835 453.8333,298.6125 454.7186,300.3526 456.8929,303.0843 458.532,304.6354 460.5552,306.0046 464.8105,307.6007 470.3524,308.2628 467.1122,309.4271 463.9898,311.3723 461.0321,314.2044 458.5183,317.5305 456.4044,321.5452 455.3983,324.791 455.15,327.9937 455.9768,329.8274 462.1426,333.5257 463.8173,335.1408 466.4207,338.467 467.8904,339.3003 469.8539,338.5374 473.0166,335.8023 475.7525,332.6636 480.3355,326.2635 481.5239,325.2065 482.2417,324.9696 483.2115,325.2089 484.3524,326.2494 489.1293,333.5445 490.3149,334.5222 491.6147,334.9351 493.996,334.5625 497.5545,332.9443 500.3505,331.1494 503.2924,328.4093 504.0418,328.0511 510.7792,329.8215 522.5612,330.7767 525.4569,330.4805 528.2205,329.7976 531.3382,328.6534 534.4607,327.0546 536.2207,325.5768 536.8335,324.471 536.822,322.655 535.9155,320.6841 533.8002,317.8844 523.0929,306.1063 516.7601,298.4748"/>
    <polyline points="508.2515,472.333 502.7211,472.9886 501.202,473.6319 500.7881,474.3339 501.5334,475.5798 505.7524,478.8895 507.7828,481.1108 508.6779,483.5385 508.0695,485.6106 505.5016,488.0129 493.9862,495.8595 490.8293,497.4602 488.0263,497.9462 485.8138,505.0806 484.7937,506.8819 483.7766,507.5723 482.9097,507.2702 481.9724,506.0334 477.4209,496.2179 475.9313,493.9898 474.9898,493.3019 474.6614,493.5731 474.539,494.3707 474.8427,496.8585 475.2487,497.7577 475.7857,497.7709 476.8572,494.9183 478.2611,487.0931 478.2585,485.5373 477.8176,484.6666 476.382,484.6451 473.943,485.828 471.0008,487.9521 466.2621,492.1303 464.1297,493.0609 462.542,492.6534 459.414,490.4253 457.7647,489.6711 455.545,489.4107 450.39,489.8507 449.0353,489.3745 447.8811,488.3838 447.1333,486.9722 447.035,485.3442 447.4483,484.2399 448.8037,482.6642 452.191,480.4351 461.9658,475.7069 463.2502,474.1737 463.9532,471.3662 464.569,470.3494 469.1875,468.9043 471.3932,467.047 473.4621,464.7165 473.8778,463.4209 473.4321,461.6764 468.6711,453.6103 464.7931,445.9305 465.0068,445.5832 465.6654,445.4886 470.1621,445.9583 471.7809,445.3033 473.1878,443.7554 476.198,438.6052 477.4765,437.6353 478.5828,437.8803 479.7486,439.1059 481.1803,441.7228 482.4334,445.0373 483.8138,450.8132 484.5487,460.1817 485.0386,461.278 486.3296,460.7263 493.0571,454.3884 497.0039,451.851 499.3667,450.9933 500.9022,450.8597 502.1865,451.2068 503.4403,452.4 503.9862,453.7295 504.1473,455.3002 503.4445,458.1775 502.0641,460.5262 497.833,465.808 497.0917,467.7947 497.8273,468.9993 500.8822,470.7444 501.6432,471.5528 501.3759,472.66 498.6145,475.5139 498.2909,476.3659 498.372,477.246 499.4158,478.7626 504.1333,482.9391 506.4034,485.683 507.3301,488.1171 506.7979,490.0262 505.7372,491.1041 503.875,492.1794 497.9867,493.9618 494.3254,494.4344 489.1539,493.7933 487.6659,494.1125 486.3368,495.1954 484.8814,497.0296 481.0225,503.586 480.0282,504.5369 479.162,504.7568 478.2025,504.277 476.8361,502.3639 472.5357,493.072 471.0102,490.5316 470.4339,490.2841 469.6169,490.5537 467.3425,493.0009 467.0502,492.9902 467.1375,490.5651 468.4302,483.455 468.1161,482.1128 467.0829,481.2107 465.4187,480.8597 463.9002,481.0292 460.1777,482.5451 457.4359,484.5841 454.814,488.1771 453.2678,489.2531 451.2232,490.1405 448.8988,490.6535 447.1454,490.6353 445.5484,490.1429 444.2879,489.1515 443.5705,487.7705 443.5033,486.7234 443.8407,485.6385 445.1189,484.0333 449.9279,480.8307 456.8352,477.6418 453.9624,477.2646 452.0409,475.8689 451.2349,474.4489 451.0325,473.2887 451.3544,472.1815 451.9386,471.5247 454.569,470.3114 458.5194,469.7977 461.5888,470.2278 463.2147,471.3109 461.9569,470.5695 461.0807,468.9144 460.9914,467.6138 461.7068,464.2193 461.7636,461.7807 461.1126,458.8541 458.2629,451.3474 458.0993,449.7395 458.498,448.3367 459.5088,447.1555 460.9729,446.1891 466.8616,443.8225 468.2674,442.9605 469.093,441.6109 470.5268,437.1424 471.7,435.208 474.7185,432.2276 477.472,430.661 478.2893,430.6583 479.0316,431.0621 480.5275,433.838 481.8183,439.2721 482.9357,447.7702 483.5023,449.0669 484.3274,449.6448 485.6166,449.801 487.4281,449.5315 492.2222,447.791 497.1896,444.963 501.8131,441.3316 502.4688,441.3819 502.4282,442.9412 501.6429,445.6813 497.4505,454.1041 497.0045,456.5081 497.985,457.9525 502.098,460.2337 503.3459,461.3896 503.344,463.0287 500.6734,467.7287 500.5465,469.8766 501.7244,472.0729 507.6622,478.4585 508.6081,480.3038 508.7092,482.0118 508.1505,483.2243 506.8027,484.5111 504.6065,485.6914 502.1871,486.4593 497.8005,486.8024 493.6652,485.5343 495.1415,489.8325 495.1272,492.0299 494.4151,493.2063 493.1567,494.1923 491.5035,494.83 490.1214,494.9559 487.7557,494.2561 485.1053,491.9657 482.9106,488.7504 480.1366,483.2964 479.7733,483.6161 479.0022,487.9942 478.537,488.3935 478.0755,488.093 476.5053,484.9911 472.9413,474.8534 471.9012,472.8182 471.0461,471.892 470.1128,471.7556 469.0946,472.6279 466.0107,477.8058 463.8959,480.3775"/>
    <polyline points="358.3825,472.333 356.28,471.0406 354.4719,470.5883 352.9528,470.8762 351.3764,471.9358 348.7745,475.0751 341.1256,486.6838 336.9271,491.0231 332.949,494.1806 328.911,495.902 320.0891,497.2008 318.9927,497.6526 318.5085,498.5473 317.8642,504.3364 316.7613,508.747 315.3205,511.9646 313.3815,514.3065 311.4765,515.2881 309.8294,515.308 307.8681,514.4118 305.9835,512.8146 302.7018,508.5947 301.7001,506.4009 301.1582,504.315 300.9053,501.9056 301.0328,498.6834 302.5859,491.4765 302.33,490.6708 300.6181,489.1054 299.9653,487.7571 299.7207,485.4124 300.0636,482.8899 301.5049,479.7943 303.7314,477.865 305.4384,477.4138 311.9267,477.158 308.3848,477.4223 305.5524,477.1864 304.6663,476.8636 304.1014,476.274 304.1523,475.7792 304.6838,475.2941 309.1007,474.0618 315.312,473.633 311.2378,473.7927 307.9143,473.3239 305.1825,472.116 303.2347,470.2475 301.8438,467.6165 300.1408,461.0781 296.5476,452.9616 295.888,450.5267 295.7931,448.9241 296.5351,446.7743 298.2941,445.3045 300.6388,444.4792 305.231,443.8194 306.5781,442.9745 307.7932,440.6948 309.5338,434.3279 310.611,431.7555 312.3321,429.7948 314.784,428.9757 316.2594,429.2807 317.705,430.3111 323.2209,437.6123 324.7536,439.0428 325.6814,439.3641 326.7902,438.6152 329.8229,434.0276 333.1932,429.7828 334.8217,428.5431 335.5714,428.4439 336.269,428.8025 337.2107,430.2091 338.2654,433.0717 340.4818,443.0056 341.0959,444.4768 342.7255,445.7263 348.0747,447.7687 351.0214,449.4664 353.4478,451.8245 355.2491,454.5736 356.9558,458.4101 357.9815,461.9246 358.4199,465.3202 358.2369,468.2268 357.2969,471.0279 355.1464,474.1235 350.7268,478.7641 347.1634,481.4013 344.5466,482.4342 341.5515,482.9484 331.8561,482.8384 329.2653,483.9926 324.9353,488.9323 322.6295,490.1252 322.0442,490.7548 320.1344,498.6963 319.3809,500.334 318.8148,500.3381 316.5029,498.2778 314.8058,497.5567 312.8227,497.9243 308.8344,500.3122 306.5545,501.0531 304.354,500.6343 302.3305,498.9099 299.9376,495.0897 297.9781,489.9601 296.7393,483.985 296.3068,477.9046 297.7062,471.8825 298.5998,469.8618 299.7429,468.297 301.0399,467.3742 302.112,467.1654 303.1767,467.4012 305.9043,468.7381 306.9576,468.8048 308.2443,467.6469 308.6977,465.6457 307.9559,465.1904 306.6137,465.4202 298.3284,468.65 304.3473,467.6279 306.1252,466.9924 306.6925,466.3305 298.8384,461.0432 291.9595,454.6019 288.5602,450.6394 285.5209,446.3746 284.114,443.7643 283.5269,441.3379 283.7747,440.0192 284.547,438.8425 287.2101,437.0629 289.7105,436.2783 291.8927,436.0675 293.6083,436.2382 295.842,437.1363 296.7811,437.1693 301.4478,433.2369 304.3537,431.8257 307.1866,431.7862 309.6443,433.1019 311.673,435.4726 315.8605,442.148 317.4087,443.5386 318.8118,444.0159 319.8738,443.963 321.6452,443.2458 328.284,438.3776 331.3465,436.7814 334.376,436.159 335.6121,436.3849 336.6737,437.0355 338.0852,439.0105 339.0827,441.716 339.772,445.2865 340.3762,451.5813 341.2225,454.2841 343.5873,457.4194 353.0469,464.8255 356.7967,469.2597 358.8162,472.9775 360.2058,476.9858 360.5448,480.1965 359.9086,482.9472 357.7652,486.2333 353.1234,490.8411 348.7849,494.1896 345.347,495.8338 342.2875,496.4179 339.7489,496.3195 337.2007,495.7691 331.007,493.7293 328.8804,493.3497 326.8551,493.5116 325.2682,494.1643 323.4932,495.5369 321.9913,497.4011 319.0799,505.3892 316.6413,509.1512 314.6798,511.0212 312.4861,512.3821 310.5457,513.0012 308.5318,513.0271 306.8873,512.5426 305.2386,511.6163 301.6903,508.3763 298.6793,504.1624 296.5992,499.5965 291.5007,481.1126 291.5927,479.3236 292.0817,478.0084 294.4667,475.0692"/>
    <polyline points="181.8478,472.333 184.7312,481.2517 184.8227,482.8202 184.1672,484.3289 182.5769,485.7659 180.239,487.1363 167.681,492.8234 162.9753,494.2263 157.0072,494.5914 156.0202,494.8975 155.6883,495.4516 155.7619,496.6232 158.0366,501.291 158.2287,502.7987 157.5329,503.7498 153.9566,506.5047 150.7477,510.141 149.5513,510.9337 148.1155,511.1309 146.8847,510.7377 144.1697,508.4285 140.5756,503.5746 135.1333,494.862 134.4337,494.3748 131.3589,495.2455 120.5807,500.5708 113.3886,502.7909 107.6372,503.7153 102.5219,503.9305 99.9406,503.5728 98.0549,502.323 96.6824,499.9511 95.3219,495.7479 94.4009,490.5317 94.4035,487.5393 94.8734,485.7668 95.7686,484.0566 101.7774,476.4129 102.5171,474.7701 102.7999,473.0214 102.1917,470.8768 98.7715,465.4436 98.3489,464.1478 98.4344,462.9246 99.2877,461.8157 101.3919,460.6228 109.3732,457.9877 111.7933,456.9202 113.3501,455.5086 114.0439,453.3376 113.8509,451.6294 113.1349,449.6343 108.3936,440.6017 106.3367,435.4061 104.7815,429.3745 104.6096,427.4928 104.8565,425.841 106.0882,423.975 108.9606,422.0674 113.9056,420.0911 121.1936,418.4567 123.5433,417.6596 131.3183,412.4143 133.3009,412.0811 134.3018,412.4295 135.2922,413.2065 137.1945,415.8443 139.7273,420.8064 141.7323,425.5026 143.0651,429.8787 143.624,433.2491 143.7275,438.5607 143.9987,439.4629 144.9084,439.6922 146.5891,439.2055 153.4143,435.8248 154.8749,435.5687 155.7259,435.7554 157.1047,437.1194 158.1813,440.1176 158.5687,443.3107 158.3867,447.8182 158.8605,448.8125 159.8456,449.2864 161.4859,449.5517 169.9861,449.6702 173.5209,450.1105 176.5708,451.3282 177.828,452.2649 179.315,453.9995 180.5024,456.6601 180.7043,460.0534 179.5596,463.1925 175.477,468.7261 174.1696,471.3188 173.9756,473.9192 174.8013,478.4482 174.4632,481.0343 173.6372,482.4881 172.6156,483.4298 168.761,485.1318 162.0671,486.3413 153.8328,486.76 152.5785,487.4126 151.8405,489.4027 151.8763,492.2277 152.4755,494.7027 154.6442,500.7628 154.9774,504.5406 154.365,506.7679 153.0773,508.9459 150.8098,511.2773 148.8125,512.4267 147.3537,512.6231 146.4299,512.3483 144.725,510.7587 142.8603,507.4666 138.5829,497.9952 137.4539,496.4809 136.4849,496.0633 135.0339,496.4998 133.1166,497.948 125.0672,506.0882 122.2248,508.5653 118.976,510.7302 115.4135,512.289 111.0144,512.965 107.1978,512.2856 103.6134,510.3787 100.1249,507.0196 97.5618,503.0968 95.665,498.5931 94.6818,494.2861 94.6497,489.8117 95.2672,486.7316 96.3239,484.1416 101.0412,476.478 102.8463,472.8657 104.0104,469.4967 104.3644,466.554 104.0773,464.8742 103.1044,463.0575 97.7966,457.9224 97.1235,457.0074 97.0429,456.3969 97.4841,455.863 98.9265,455.284 106.467,454.0991 108.7608,453.349 110.5299,451.7079 111.2064,449.1239 110.9428,446.9664 110.0713,444.2947 102.5319,427.6001 102.077,425.5834 102.3046,423.6874 102.9614,422.4646 104.6806,420.6658 110.3298,416.9262 113.5357,415.4696 115.7391,414.8524 121.7797,414.5584 123.7555,414.0826 125.5962,412.9755 129.686,409.3817 131.122,408.62 132.1041,408.4878 133.1005,408.7768 135.1059,410.7935 141.7976,423.3267 144.7446,430.5042 146.7616,439.7668 147.2602,441.0175 147.7985,441.4065 148.9396,441.5302 155.2116,439.9531 156.4135,439.9413 157.423,440.4062 158.2131,441.4342 158.9203,443.4986 159.8032,450.9467 160.7471,452.3481 162.118,453.1559 166.5902,454.1961 178.1513,455.0845 181.2281,456.194 183.1491,458.4606 184.1341,461.5193 184.3551,464.7116 183.7411,468.2678 182.1303,472.3732 179.3533,477.5445 177.7981,479.5394 176.0055,480.739 172.8254,481.5403 168.6361,481.5899 157.0783,479.4331 155.5596,479.6169 154.3249,480.4301 153.337,481.875 152.34,484.3945 151.2754,489.7483 151.4706,492.3505 153.2345,495.1314 153.3279,497.2 152.6246,498.68 151.6759,499.7546 148.5268,501.6133 146.5547,502.1212 144.6843,502.2185 142.9774,501.894 141.44,501.0726 138.8391,497.9798 134.9376,490.5954 134.2859,489.8517 133.5649,489.5679 132.4497,490.0579 128.1528,494.2702 125.7992,495.5303 118.4038,496.5244 108.3828,499.4982 105.5146,499.6543 103.4157,499.1424"/>
  </g>
</svg>
