<?xml version="1.0" encoding="utf-8" ?>
<svg xmlns="http://www.w3.org/2000/svg" xmlns:cc="http://creativecommons.org/ns#" xmlns:dc="http://purl.org/dc/elements/1.1/" xmlns:ev="http://www.w3.org/2001/xml-events" xmlns:inkscape="http://www.inkscape.org/namespaces/inkscape" xmlns:rdf="http://www.w3.org/1999/02/22-rdf-syntax-ns#" xmlns:sodipodi="http://sodipodi.sourceforge.net/DTD/sodipodi-0.dtd" xmlns:xlink="http://www.w3.org/1999/xlink" baseProfile="tiny" height="29.7cm" version="1.2" viewBox="0 0 793.7007874015749 1122.5196850393702" width="21.0cm">
  <metadata>
    <rdf:RDF>
      <cc:Work>
        <dc:format>image/svg+xml</dc:format>
        <dc:source/>
        <dc:date>2022-03-20T15:05:34.592901</dc:date>
      </cc:Work>
    </rdf:RDF>
  </metadata>
  <defs/>
  <g fill="none" id="layer1" inkscape:groupmode="layer" inkscape:label="1" stroke="#00f" style="display:inline">
    <polygon points="366.5397,608.837 370.2839,606.0513 373.6939,602.7212 376.6871,598.889 379.1787,594.6075 381.0809,589.944 382.3101,584.986 382.8141,579.8413 382.6249,574.6154 381.7215,569.4097 380.0899,564.3363 377.7422,559.5112 374.7191,555.0455 371.0853,551.0369 366.9243,547.5643 362.3321,544.6811 357.4102,542.4089 352.2531,540.7374 346.9354,539.6373 341.5078,539.0853 336.0128,539.1303 330.5197,539.8442 325.1258,541.2762 319.9634,543.4748 315.1996,546.4648 311.0202,550.2197 307.5962,554.6418 305.0433,559.5653 303.395,564.7828 302.5984,570.0869 302.5373,575.3091 303.07,580.341 305.3583,589.6978 306.9575,594.0563 308.9145,598.2017 311.3191,602.0645 314.2366,605.5186 317.6571,608.4225 321.4793,610.6803 325.5409,612.288 329.6778,613.3385 333.7806,613.983 341.8311,614.6053 350.0034,614.4021 354.1918,613.7803 358.3998,612.6869 362.5472,611.0502"/>
    <polygon points="363.7023,610.4337 362.3962,614.2148 361.5896,618.1178 361.272,622.0749 361.9099,629.9526 362.7925,633.8262 364.115,637.6015 365.9399,641.1888 368.3021,644.4637 371.1775,647.2977 374.4747,649.6017 378.0596,651.3566 381.7988,652.6136 385.5983,653.4632 393.26,654.2561 397.1409,654.2154 401.0518,653.8029 404.9496,652.9433 408.7471,651.5549 412.3165,649.5807 415.5117,647.0169 418.202,643.9259 420.3031,640.4246 421.7881,636.6556 422.6781,632.7553 423.0219,628.835 422.8776,624.9758 422.3013,621.2326 421.3368,617.6416 418.4083,610.9988 416.4816,607.9841 414.2479,605.2167 411.7144,602.742 408.9098,600.5983 405.8814,598.8016 399.344,596.1905 392.3211,594.755 388.6425,594.5326 384.8874,594.7318 381.1136,595.4094 377.4078,596.6202 373.8823,598.3985 370.6598,600.7398 367.8483,603.5907 365.5194,606.8583"/>
    <polygon points="369.8177,611.2559 369.2351,614.8922 369.1755,618.4742 370.1992,625.1884 372.0437,631.2695 374.5949,636.9179 378.2182,642.0005 380.461,644.2342 385.6649,648.0621 391.7508,651.0661 395.1428,652.1625 398.7504,652.852 402.5053,653.0028 406.3068,652.5565 410.041,651.491 413.5933,649.8186 416.8564,647.5799 419.7343,644.8367 422.1428,641.6654 424.0112,638.1557 425.287,634.4095 425.9429,630.5386 425.9837,626.6571 425.4394,622.8714 424.2724,619.2889 422.5775,616.0107 418.263,610.4697 411.0756,603.8983 405.7786,600.2093 402.8305,598.6812 399.6625,597.4767 396.3033,596.6774 392.8046,596.2981 389.2051,596.3053 385.5557,596.764 381.9466,597.7556 378.5182,599.3556 375.4483,601.5946 372.9112,604.4227 371.0248,607.705"/>
    <polygon points="346.8307,617.1316 350.9936,617.6433 355.1382,617.6952 359.2233,617.2874 363.1956,616.3843 367.0069,615.0346 374.0693,611.2364 380.4433,606.2593 386.1569,600.0938 388.68,596.4938 390.8927,592.5235 392.7112,588.186 394.0324,583.5083 394.6755,578.5622 394.529,573.4745 393.558,568.391 391.7896,563.4468 389.2991,558.7426 386.1729,554.3436 382.4758,550.3053 378.2439,546.707 373.5077,543.6681 368.3256,541.3349 362.8045,539.8468 357.0987,539.3025 351.3832,539.6635 345.7834,540.7672 340.4012,542.5952 335.3431,545.1253 330.7189,548.3198 326.6385,552.1206 323.206,556.4464 320.5082,561.1891 318.5975,566.2144 317.4731,571.3723 317.0744,576.5194 317.298,581.5449 318.0339,586.3846 319.2172,591.0101 320.8137,595.4043 322.8173,599.5432 325.2359,603.3848 328.0683,606.87 331.2906,609.9343 334.8527,612.5203 338.6842,614.5885 342.7039,616.1227"/>
    <polygon points="348.6128,623.4695 347.6788,619.0019 346.2608,614.6526 344.3631,610.4674 341.9903,606.498 339.1533,602.8004 335.8724,599.4324 332.1763,596.4535 328.0998,593.932 323.6886,591.9507 319.0098,590.6025 314.1612,589.9699 309.263,590.0595 304.411,590.7662 299.6831,592.0792 295.1633,593.995 290.9492,596.5084 287.1517,599.5995 283.8816,603.216 281.2261,607.2654 279.2296,611.6247 277.8892,616.1636 277.1664,620.766 277.0062,625.3428 277.3526,629.8317 278.1591,634.1917 279.394,638.3932 281.0469,642.4059 283.1297,646.1824 285.6592,649.6495 288.6266,652.7193 291.9754,655.3224 295.6086,657.4407 299.4225,659.1162 303.3443,660.4267 311.4533,662.2078 315.6822,662.6542 320.0137,662.6079 324.3835,662.0122 328.7059,660.8226 332.8694,659.0022 336.7414,656.5388 340.1886,653.4661 343.108,649.8699 345.4459,645.8699 347.1941,641.5897 348.3672,637.1343 348.9823,632.5862 349.0543,628.0126"/>
    <polygon points="347.69,634.266 345.3038,639.0436 343.6915,644.0883 342.8044,649.2456 342.5705,654.3992 342.9264,659.4709 343.965,664.3843 345.6773,669.0348 347.97,673.3392 350.7451,677.2432 353.9146,680.7138 357.406,683.7284 361.1597,686.2667 365.1202,688.3097 369.2303,689.8441 373.4302,690.8672 377.6613,691.3896 381.8707,691.4315 386.0132,691.008 390.044,690.1221 393.9227,688.8034 397.6227,687.0938 404.4847,682.6953 410.7085,677.1191 413.5023,673.8166 415.9271,670.1176 417.8108,666.0336 418.987,661.6443 419.3513,657.0906 419.0917,652.5071 418.2892,647.9612 416.93,643.5206 415.0054,639.2641 412.5214,635.28 409.5065,631.6571 406.0163,628.4714 402.1297,625.7702 397.9356,623.5612 393.5129,621.8148 388.912,620.4841 384.1503,619.5369 379.2278,619.01 374.1729,619.0253 369.0575,619.6767 363.9988,621.0574 359.1571,623.2327 354.7159,626.2117 350.8497,629.9322"/>
    <polygon points="367.8505,641.7593 370.6757,645.5105 373.9709,648.8902 377.6897,651.8344 381.7815,654.2718 386.1818,656.1292 390.8071,657.3415 395.5555,657.8638 400.3125,657.6586 404.9333,656.6195 409.2604,654.8067 413.1802,652.3593 416.637,649.4409 419.6263,646.2012 422.1686,642.7477 424.2751,639.1386 425.9247,635.4 427.0651,631.5575 427.6352,627.6618 427.597,623.7958 426.9587,620.062 425.7734,616.5599 424.144,613.3641 420.1197,607.9405 413.5071,601.4355 408.664,597.6544 403.019,594.5099 399.8387,593.3566 396.4446,592.5757 392.8639,592.1347 389.1261,592.1 385.2948,592.5622 381.468,593.596 377.7637,595.2389 374.2979,597.4806 371.1625,600.2678 368.4185,603.5253 366.1076,607.1776 364.2718,611.1582 362.9655,615.403 362.2484,619.8375 362.1465,624.3737 362.6626,628.9226 363.8012,633.3933 365.5432,637.6981"/>
    <polygon points="394.0263,642.5221 393.3338,636.6658 392.0592,630.8373 390.1399,625.0976 387.5161,619.5436 384.158,614.2962 380.0818,609.478 375.3454,605.1918 370.0293,601.5179 364.2193,598.5278 358.0039,596.2996 351.4853,594.917 344.7868,594.4346 338.0218,594.7671 331.289,595.9357 324.7196,598.0042 318.4932,601.0339 312.8359,605.0487 307.9876,609.9929 304.1468,615.7101 301.4173,621.9607 299.7877,628.4739 299.1495,635.0065 299.343,641.3822 300.204,647.5009 301.7446,653.3086 304.0288,658.7117 306.8946,663.643 310.1708,668.0969 313.7097,672.1248 321.2611,679.2479 329.5563,685.4903 334.1628,688.1848 339.1427,690.4074 344.4713,691.9814 350.0546,692.7563 355.7503,692.6427 361.4014,691.633 366.8677,689.7805 372.0368,687.1663 376.8187,683.8726 381.1353,679.9753 384.9164,675.5488 388.1025,670.6721 390.6482,665.4297 392.5216,659.9087 393.7019,654.1956 394.1787,648.3754"/>
    <polygon points="400.5416,631.2181 401.3311,638.0473 402.2943,641.4505 403.7623,644.7222 405.7819,647.7193 408.3264,650.3006 411.2968,652.3718 414.5518,653.9133 417.9537,654.9784 424.8678,656.0675 431.8785,656.2633 439.19,655.4889 442.8969,654.4754 446.492,652.8978 449.8251,650.7153 452.7678,647.9689 455.2564,644.7637 457.3032,641.2242 458.9723,637.4469 461.4125,629.31 462.1028,624.9366 462.1772,620.4149 461.5525,615.859 460.1861,611.4088 458.0883,607.2088 455.3189,603.3876 451.9686,600.05 448.1392,597.2831 443.9366,595.1666 439.4761,593.7734 434.8901,593.159 430.3268,593.3427 425.9386,594.2945 421.866,595.9529 418.2176,598.183 415.0413,600.8038 412.315,603.631 409.9608,606.5183 406.003,612.2481 402.8563,618.1421 401.7025,621.2693 400.9192,624.5184"/>
    <polygon points="439.7584,614.0661 438.0569,609.3027 435.6236,604.9792 432.6857,601.1598 426.1171,594.8813 419.2562,589.8606 411.9226,585.935 407.9782,584.5716 403.8765,583.7447 399.695,583.523 395.5265,583.8758 391.4425,584.7469 387.5019,586.1078 383.7588,587.9324 380.2701,590.201 377.0986,592.8916 374.3034,595.9666 371.9287,599.3702 369.9995,603.0378 368.5311,606.9078 367.5411,610.9242 367.0515,615.0312 367.0399,619.1701 367.9636,627.5064 369.0137,631.6868 370.5734,635.7952 372.7011,639.7264 375.4015,643.3704 378.6255,646.6444 382.2954,649.508 386.3363,651.9515 390.6951,653.9675 395.3362,655.526 400.224,656.5687 405.3052,657.0182 410.4981,656.7932 415.6898,655.8227 420.7396,654.0611 425.4898,651.5019 429.7817,648.1853 433.4735,644.1987 436.4561,639.6679 438.6622,634.7427 440.0691,629.5804 440.6942,624.3306 440.5856,619.1231"/>
    <polygon points="442.0555,610.5378 447.8819,610.8121 453.6877,610.3097 459.3429,608.9616 464.7261,606.8378 469.7476,604.0356 474.349,600.6562 478.4918,596.7863 482.1426,592.4927 485.261,587.828 487.7965,582.8424 489.6951,577.5959 490.9099,572.1636 491.4125,566.6345 491.2524,561.0996 490.6519,555.5896 489.5946,550.0996 487.9935,544.6628 485.7458,539.3683 482.7763,534.3549 479.0755,529.7773 474.7098,525.7597 469.798,522.3632 464.4668,519.5862 458.8146,517.3951 452.8998,515.7637 446.7538,514.7015 440.4082,514.271 433.9233,514.5721 427.4078,515.7216 421.0307,517.8321 415.0146,520.9732 409.605,525.1334 405.0201,530.2015 401.4036,535.981 398.8023,542.2338 397.1777,548.7311 396.4408,555.2892 396.4899,561.7802 397.2475,568.1225 398.6923,574.253 400.7862,580.1121 403.5016,585.6397 406.8166,590.7676 410.7011,595.4196 415.1049,599.5217 419.9541,603.0153 425.1594,605.8672 430.6301,608.0682 436.285,609.6229"/>
    <polygon points="448.8336,602.465 453.9002,600.7642 458.6759,598.2352 462.9764,594.9039 466.6399,590.8629 469.5611,586.2629 471.7028,581.2803 473.0796,576.0811 473.7321,570.8019 473.7115,565.5493 473.0966,560.4021 472.0002,555.3983 470.4737,550.5466 468.5365,545.8492 466.1771,541.319 463.3682,536.9901 460.0878,532.9135 456.3314,529.1461 452.1084,525.7454 447.435,522.7805 442.3362,520.344 436.8605,518.5497 431.0919,517.5038 425.1214,517.1299 419.0157,517.4516 412.888,518.5959 406.9266,520.6985 401.3961,523.8549 396.5973,528.0588 392.7905,533.1646 390.12,538.9058 388.5814,544.9648 388.0474,551.0541 388.3293,556.969 389.2364,562.5988 390.6092,567.9085 392.3365,572.9129 394.3852,577.64 396.7885,582.0911 399.6165,586.2141 402.9205,589.9073 406.6812,593.066 410.7976,595.6455 415.1298,597.6968 424.0716,600.7332 433.4786,602.9686 438.4925,603.5058 443.6494,603.3616"/>
    <polygon points="454.932,588.1047 459.1592,584.6756 462.6748,580.5318 465.3597,575.8427 467.1916,570.8225 468.2348,565.6751 468.6005,560.5543 468.4053,555.5522 467.7329,550.7115 466.569,546.0614 464.9445,541.6361 462.885,537.468 460.3973,533.6015 457.4842,530.0998 454.1664,527.0372 450.4958,524.4808 446.5513,522.4737 442.423,521.0337 438.1978,520.1628 433.9561,519.8555 429.7737,520.096 425.725,520.897 421.8926,522.2427 418.3294,524.0233 415.0391,526.1158 411.9797,528.415 406.2897,533.4508 400.9706,539.2913 398.5839,542.6922 396.5606,546.4708 395.0608,550.6016 394.2142,555.0001 394.0768,559.5475 394.6599,564.1188 395.9297,568.6023 397.8271,572.9103 400.2896,576.9772 403.2631,580.7503 406.7044,584.1795 410.5762,587.2104 414.8405,589.7806 419.4505,591.8192 424.3434,593.2521 429.4363,594.0133 434.6382,594.1395 439.888,593.6821 445.1092,592.5738 450.181,590.7356"/>
    <polygon points="449.8728,584.7286 454.296,583.5702 458.5584,581.9466 462.6024,579.8409 466.3463,577.2382 469.6972,574.1504 472.5778,570.632 474.9536,566.7738 476.8405,562.6752 478.2885,558.4147 479.3495,554.0339 480.0466,549.5429 480.2883,544.9477 479.8983,540.3152 478.8387,535.7503 477.1072,531.3676 474.7401,527.2752 471.8038,523.5632 468.3766,520.304 464.5348,517.5658 460.3526,515.4262 455.9158,513.9741 451.3373,513.2945 446.7619,513.4396 442.3529,514.4002 438.2626,516.0797 434.5968,518.3205 431.3884,520.9196 418.5733,534.2217 413.7247,540.3873 411.7823,544.0556 410.4024,548.0832 409.7112,552.3648 409.7718,556.7623 410.5803,561.1345 412.0801,565.3619 414.1875,569.3592 416.8204,573.0691 419.9185,576.4419 423.4422,579.4135 427.3547,581.898 431.5986,583.8007 436.0859,585.0424 440.7032,585.5794 445.3287,585.4203"/>
    <polygon points="444.8134,574.0657 448.2132,570.6916 451.0903,566.8947 453.4003,562.767 455.1266,558.4069 456.2826,553.9088 456.9031,549.3515 457.029,544.7922 456.7631,540.261 455.2726,531.218 453.8479,526.7511 451.8084,522.4604 449.0885,518.5171 445.7135,515.0919 441.7969,512.3014 437.4998,510.1822 432.9792,508.7031 428.3542,507.8024 423.7012,507.4217 419.0664,507.5331 414.5039,508.2205 410.0887,509.4821 405.8902,511.2823 401.9747,513.5882 398.4124,516.3685 395.2762,519.5831 392.6311,523.1725 390.5213,527.0566 388.9631,531.1455 387.9499,535.3519 387.4615,539.6005 387.4723,543.8292 388.0067,547.9815 389.099,551.9814 390.6714,555.7665 394.8506,562.6498 399.9187,568.9135 402.7932,571.9208 405.9943,574.7976 409.5984,577.4103 413.6313,579.57 418.0422,581.0803 422.7073,581.7955 427.4708,581.7083 432.1846,580.8324 436.716,579.2159 440.9555,576.9336"/>
    <polygon points="443.0032,569.3558 441.3224,562.2474 438.6579,555.3706 436.8446,552.0388 434.6517,548.8344 432.0648,545.8038 429.0895,542.9791 425.7339,540.383 421.9976,538.0473 417.8751,536.0325 413.3725,534.4313 408.508,533.2461 403.2994,532.5602 397.8305,532.5743 392.2696,533.4762 386.8493,535.3864 381.8217,538.3223 377.4042,542.1923 373.7406,546.825 370.8911,552.0171 368.853,557.5777 367.5941,563.3519 367.0794,569.2212 367.295,575.0905 368.2669,580.864 369.9786,586.44 372.3931,591.7216 375.453,596.6232 379.0887,601.0745 383.2306,605.0132 387.816,608.3721 392.7798,611.072 398.0387,613.0305 403.4823,614.1837 408.9784,614.5052 414.3889,614.0113 419.5836,612.7402 424.4465,610.7623 428.8847,608.1728 432.8267,605.0679 436.2136,601.5371 438.9948,597.668 441.1334,593.5569 442.6222,589.3144 443.4998,585.0582 443.8551,580.8927 443.5034,573.0502"/>
    <polygon points="451.8675,562.81 456.9633,562.7515 461.9435,561.7831 466.6303,559.9551 470.9008,557.4394 474.7209,554.4553 478.1458,551.2081 484.1942,544.3218 486.8835,540.6319 489.229,536.6683 491.0467,532.3962 492.1534,527.8681 492.4261,523.2148 491.9467,518.5979 490.9739,514.0974 489.5468,509.7466 487.6824,505.5763 485.3826,501.6259 482.6458,497.9483 479.4845,494.6017 475.9355,491.6305 472.0536,489.047 467.891,486.8282 458.8036,483.3388 453.8469,482.0693 448.5917,481.2359 443.0736,480.9959 437.402,481.5304 431.7698,483.0065 426.4353,485.524 421.674,489.0718 417.7148,493.5165 414.6887,498.6337 412.6144,504.1662 411.4247,509.8835 411.0108,515.6138 411.2641,521.2483 412.1551,526.7197 413.7261,531.9485 415.9025,536.8599 418.5945,541.4065 421.709,545.5711 425.1673,549.3617 428.923,552.7907 432.9655,555.8475 437.3031,558.4785 441.933,560.5893 446.8163,562.0666"/>
    <polygon points="454.5533,562.3815 451.3819,564.6047 445.8534,569.5064 438.3274,577.4659 436.0311,580.5663 434.0404,584.0127 432.5065,587.7961 431.5519,591.8494 431.1678,596.0806 431.3636,600.4082 432.1949,604.7324 433.7022,608.9282 435.8984,612.8492 438.7544,616.3407 442.1895,619.2624 446.0739,621.5162 450.2465,623.068 454.546,623.9533 458.8412,624.261 463.0507,624.1008 467.1399,623.5351 471.0749,622.5188 474.8212,621.0996 481.7001,617.2648 487.8281,612.3537 493.2288,606.3591 495.531,602.8795 497.4256,599.0626 498.787,594.9457 499.506,590.6119 499.5947,586.1674 499.0513,581.7089 497.8408,577.3484 495.9624,573.209 493.4546,569.4092 490.3898,566.0515 486.8601,563.2177 482.9683,560.9706 478.8238,559.352 474.54,558.3785 470.2286,558.0363 465.9896,558.2851 461.9062,559.0965 458.0689,560.497"/>
    <polygon points="453.6946,558.0786 454.5502,554.0359 454.8629,549.8569 454.651,545.6096 453.8602,541.3744 452.4523,537.255 450.4224,533.3672 447.8049,529.8234 444.6668,526.7207 441.0957,524.1362 437.1904,522.1273 433.0554,520.733 428.7976,519.9724 424.5233,519.8426 420.3327,520.3204 416.3211,521.3978 412.574,523.007 409.1415,525.0383 403.1959,529.9037 398.1677,535.3835 393.953,541.573 392.3047,545.024 391.0843,548.7044 390.3669,552.5622 390.1975,556.522 390.5911,560.4988 391.5464,564.4061 393.0373,568.1643 395.0188,571.7086 397.4402,574.9889 400.258,577.9601 403.4382,580.5687 406.9466,582.7466 410.7338,584.419 414.7267,585.522 418.8323,586.0174 422.9489,585.896 426.9695,585.1348 430.7914,583.7878 434.3483,581.9616 437.6205,579.7749 443.4157,574.6832 448.3946,568.7946 450.528,565.489 452.3254,561.9124"/>
    <polygon points="464.9426,553.9338 463.784,550.0778 462.1335,546.4076 459.9848,543.0128 457.357,539.9927 454.3045,537.4403 450.9153,535.4251 447.298,533.9829 443.5655,533.1164 439.8219,532.8023 436.1552,532.9987 432.6354,533.6587 429.3334,534.8302 426.3252,536.4468 421.2608,540.4703 415.2427,547.0563 411.7646,551.8564 409.1471,557.4544 408.4007,560.5497 408.0346,567.0946 408.3909,570.4821 409.2056,573.8681 410.5514,577.1421 412.4627,580.1632 414.9083,582.7948 417.7887,584.9491 420.9666,586.6149 424.3136,587.8509 431.2426,589.3944 438.4677,589.8776 442.1653,589.5088 445.8506,588.6747 449.4506,587.346 452.8781,585.508 456.0406,583.1707 458.8542,580.3738 461.2537,577.1801 463.1908,573.6627 464.6261,569.8966 465.5216,565.9586 465.8459,561.9321 465.6263,557.9037"/>
    <polygon points="468.8142,548.8278 468.5744,544.5243 467.7609,540.1674 466.2782,535.8865 464.0884,531.8356 461.2209,528.1615 457.7615,524.9763 453.8261,522.3458 449.5338,520.2968 444.9899,518.8332 440.2817,517.9539 435.4845,517.6619 430.669,517.9571 425.9084,518.8525 421.2875,520.364 416.9028,522.4935 412.8551,525.2193 409.2416,528.4941 406.1481,532.2472 403.642,536.3885 401.7633,540.8139 400.5189,545.4139 399.8845,550.0871 399.8173,554.7509 400.2833,559.3434 401.2729,563.8096 402.7703,568.0942 404.761,572.1383 407.2229,575.88 410.1211,579.2582 413.4099,582.2147 417.0344,584.6949 420.9295,586.6499 425.0185,588.0441 429.2165,588.8635 433.4377,589.1185 437.6052,588.8381 441.653,588.0461 445.5237,586.7817 449.1728,585.0922 452.5649,583.0197 455.6678,580.5992 458.4504,577.8635 460.8867,574.8498 462.9646,571.6024 464.6928,568.1677 467.2146,560.8636 468.6036,552.9975"/>
    <polygon points="468.8906,532.4006 473.3376,528.9036 477.1627,524.5649 480.059,519.3242 480.998,516.3962 481.5123,513.3236 481.4881,510.187 480.8653,507.1068 479.6898,504.1995 478.0541,501.5491 476.0727,499.1948 473.8483,497.1392 468.8992,493.917 466.2198,492.8089 463.4399,492.1135 460.6196,491.8821 457.8425,492.1327 455.1992,492.8456 452.7725,493.9744 448.7407,497.0421 440.8901,505.0435 437.8247,508.8813 436.6254,511.1926 435.8017,513.7317 435.0265,519.3134 435.1436,522.2982 435.737,525.3075 436.882,528.2065 438.5974,530.8392 440.833,533.0619 443.4772,534.7774 446.3848,535.9562 449.4118,536.6361 452.4474,536.9019 458.3402,536.5406 461.1628,535.9202 463.873,535.0071"/>
    <polygon points="465.8257,527.1078 464.954,522.73 463.404,518.5971 461.2817,514.8055 458.7081,511.4121 455.7954,508.4395 452.6307,505.8924 449.2738,503.7757 445.768,502.1049 442.1563,500.9032 438.4916,500.1891 434.8371,499.9632 431.2573,500.2029 427.8115,500.9012 424.5718,502.0886 421.5968,503.6713 416.4711,507.5861 414.2599,509.7583 410.363,514.4175 407.1916,519.6473 405.9981,522.5316 405.1638,525.5829 404.748,528.7558 404.926,535.3052 405.5559,538.627 406.6229,541.9038 408.174,545.0409 410.2182,547.9299 412.7125,550.4805 415.5723,552.6494 418.7034,554.4461 422.0343,555.9106 429.1854,557.9612 433.0002,558.5222 436.9609,558.6939 441.0244,558.3949 445.1135,557.5465 449.1228,556.0934 452.9324,554.0183 456.4255,551.3448 459.4983,548.1298 462.0619,544.4509 464.0377,540.3988 465.3553,536.0766 465.9597,531.6024"/>
    <polygon points="468.6415,520.7692 465.051,517.2468 461.0945,514.1538 456.7951,511.5614 452.1835,509.5857 447.3336,508.3529 442.3716,507.9566 437.4582,508.4263 432.75,509.6625 428.3589,511.5397 424.3514,513.9268 420.739,516.6761 417.4798,519.6551 411.7566,526.0428 406.9931,533.1466 405.1318,537.0752 403.7504,541.2505 402.9285,545.6174 402.6848,550.0973 402.9561,554.6275 403.7827,559.1451 405.2152,563.5605 407.2892,567.7557 410.0056,571.5942 413.3181,574.9413 417.1315,577.6881 421.3141,579.7734 425.7212,581.1934 430.2214,581.9956 434.7175,582.2575 439.1528,582.0555 443.4892,581.3627 447.6777,580.1838 451.6823,578.5701 455.4869,576.5751 462.5199,571.6116 465.7679,568.6701 468.8146,565.3946 471.5959,561.7497 474.0111,557.7158 475.9402,553.307 477.2626,548.579 477.8507,543.629 477.5668,538.6072 476.4068,533.6862 474.4449,529.0161 471.8093,524.6961"/>
    <polygon points="449.1893,523.1791 444.4951,522.1779 439.799,521.9554 435.2471,522.4246 430.9451,523.479 426.9829,525.1739 423.4712,527.4556 420.466,530.1287 415.8501,535.8991 412.5357,541.5469 410.1435,547.103 408.8757,552.807 408.8949,558.548 409.681,564.2594 411.5074,569.9522 412.9857,572.6534 414.8657,575.1492 417.1118,577.3789 419.6657,579.3149 425.4874,582.3029 432.0648,584.0741 439.2468,584.5004 442.9943,584.0937 446.7599,583.1805 450.4469,581.713 453.9487,579.6779 457.1664,577.1005 460.026,574.0376 462.4858,570.5622 464.531,566.7448 466.1571,562.6408 467.3469,558.2896 468.0545,553.7272 468.2035,549.0066 467.6882,544.2195 466.4114,539.5073 464.3216,535.05 461.4368,531.0397 457.8479,527.6488 453.7042,525.0055"/>
    <polygon points="438.9241,522.7976 438.1062,519.3809 436.8273,516.1857 435.1596,513.2684 433.1807,510.6634 430.9589,508.3886 425.9953,504.871 420.6354,502.7629 415.2427,501.9095 410.01,501.9398 407.4609,502.3552 402.6244,504.029 392.8146,508.9472 386.8699,512.6371 383.928,515.244 381.3312,518.4465 379.3281,522.1913 377.9956,526.3542 377.3143,530.8224 377.3851,535.4658 378.259,540.1333 379.9324,544.6742 382.363,548.9503 385.4913,552.83 389.2485,556.1763 393.5444,558.8462 398.2521,560.7125 403.2068,561.6932 408.2235,561.7696 413.122,560.9829 417.7459,559.4186 421.974,557.1948 425.7286,554.4531 428.9818,551.3446 431.7505,548.007 434.0753,544.5391 435.9887,540.9911 437.4925,537.3786 438.5598,533.7133 439.1582,530.0252 439.2747,526.3661"/>
    <polygon points="437.6413,511.1437 432.1195,511.9631 426.7252,513.4838 421.5746,515.7345 416.8196,518.7388 412.6393,522.483 409.2061,526.8838 406.6375,531.7819 404.9635,536.9706 404.127,542.2438 404.0137,547.4369 404.4907,552.4449 405.4416,557.2183 406.8049,561.741 408.5278,566.0108 410.5864,570.0275 412.9857,573.7758 415.7384,577.2193 418.8364,580.3148 422.2401,583.0389 425.8922,585.4055 433.7956,589.2245 438.0509,590.7111 442.5358,591.8668 447.2534,592.6013 452.1703,592.804 457.2116,592.3688 462.2595,591.2002 467.1578,589.2326 471.7297,586.4517 475.8083,582.9087 479.2658,578.7136 482.0293,574.0104 484.0726,568.9469 485.3973,563.6549 486.016,558.246 485.936,552.8169 485.0992,547.4704 483.5496,542.3136 481.3768,537.4228 478.6761,532.8397 475.5267,528.579 471.9782,524.6471 468.0498,521.0631 463.7422,517.8753 459.0575,515.1672 454.0221,513.0482 448.7009,511.6314 443.1993,511.0065"/>
    <polygon points="453.2809,507.8132 450.7589,510.3971 448.6144,513.4928 447.0559,517.0311 446.1377,520.8902 445.9039,524.9431 446.3893,529.0532 447.5801,533.0897 449.4304,536.939 451.8817,540.5024 454.8758,543.6841 458.351,546.3828 462.2284,548.4965 466.4023,549.9423 470.7441,550.6751 475.1175,550.6948 479.3969,550.0548 483.489,548.8579 487.3266,547.1654 490.8517,545.0265 494.0043,542.4801 496.7194,539.5673 498.9357,536.3476 500.6163,532.9078 501.7671,529.3532 502.4399,525.7858 502.6923,518.8738 501.4611,509.0989 500.6351,505.8958 499.414,502.7792 497.6887,499.8857 495.4254,497.386 492.6903,495.4273 489.6308,494.0818 486.4258,493.3276 480.1408,493.1829 474.3923,494.1723 471.7693,495.1855 469.3695,496.5054"/>
    <polygon points="474.6882,491.1873 472.4009,487.894 467.0479,482.1087 464.0065,479.6328 460.7327,477.4563 457.2378,475.5983 453.5355,474.0813 449.6423,472.934 445.5807,472.1943 441.3815,471.8883 437.0838,472.0578 432.7505,472.7671 428.472,474.0731 424.3609,476.0079 420.5355,478.565 417.0997,481.6954 414.1287,485.3198 411.6688,489.347 409.7505,493.6902 408.4021,498.2707 407.6549,503.0114 407.5511,507.8292 408.1664,512.6181 409.4743,517.2641 411.4005,521.6777 413.8508,525.8059 416.7367,529.6283 419.9986,533.1377 423.6123,536.3128 427.5751,539.0974 431.879,541.3978 436.4849,543.1016 441.3114,544.1048 446.2401,544.3379 451.1432,543.8642 455.9261,542.755 460.5005,541.0263 464.7765,538.7045 468.6648,535.8296 472.0805,532.4592 474.9503,528.6698 477.2201,524.5547 478.8611,520.2184 479.873,515.768 480.282,511.3029 480.1347,506.9068 479.4738,502.644 478.2961,498.5748 476.674,494.7486"/>
    <polygon points="485.0921,479.7365 483.5797,483.0594 482.5499,486.6446 482.1218,490.4062 482.3822,494.2162 483.2886,497.9498 484.7403,501.5247 488.8267,508.1359 494.1354,514.1391 497.3008,516.8383 500.8574,519.1791 504.7901,520.9982 509.0201,522.1439 513.4147,522.5228 517.8361,522.2237 522.1824,521.2971 526.3625,519.7736 530.2952,517.6956 533.9067,515.1101 537.1292,512.0698 539.9036,508.6363 542.1852,504.8814 543.9471,500.8831 545.1788,496.7191 545.8812,492.4618 546.0611,488.177 545.75,483.923 544.9938,479.7406 543.7757,475.6735 542.0667,471.7868 539.8447,468.1713 537.1152,464.9339 533.9265,462.1777 530.3676,459.9796 526.5529,458.3777 522.6008,457.3737 518.6182,456.9441 514.6946,457.0504 510.9023,457.6505 507.3145,458.7904 504.0093,460.4061 501.0202,462.3635 498.3244,464.5249 493.5189,469.0911 489.0518,473.9792 486.9609,476.7149"/>
    <polygon points="464.879,475.6708 462.9585,472.2291 460.6713,468.9293 458.0208,465.7867 454.9912,462.8403 451.5637,460.1588 447.7346,457.8338 443.5274,455.9676 438.9959,454.6615 434.2134,453.9114 429.2259,453.6767 424.113,454.1002 419.0281,455.3346 414.1974,457.4932 409.8874,460.6014 406.3482,464.5668 403.7512,469.1862 402.1487,474.1912 401.4724,479.3119 401.5691,484.3327 402.2542,489.1211 403.3678,493.6249 404.8465,497.837 406.6427,501.7606 408.7326,505.3979 411.1063,508.7425 413.7506,511.783 416.6457,514.5075 419.7714,516.9022 423.1105,518.9439 426.6448,520.5946 430.3453,521.8051 434.1646,522.5257 438.0369,522.72 441.8807,522.3458 445.5962,521.3808 449.0937,519.8876 452.3166,517.9603 457.8993,513.1947 462.4221,507.5901 465.7983,501.2194 466.9729,497.7669 467.7742,494.171 468.1783,490.4634 468.0894,486.6939 467.489,482.934 466.4042,479.2457"/>
    <polygon points="453.8563,460.9562 450.3742,458.2435 446.5054,455.8836 442.266,453.9876 437.7093,452.6636 432.9167,451.9452 427.9462,451.7482 422.8674,452.181 417.8148,453.3821 412.997,455.4693 408.6757,458.4888 405.1119,462.3727 402.4972,466.932 400.9017,471.8963 400.2643,476.9812 400.4267,481.9528 401.1896,486.6637 402.3697,491.0547 403.9106,495.1191 407.8686,502.2784 410.2025,505.3929 415.4874,510.7114 421.4749,514.8324 428.0444,517.7814 431.5315,518.7791 435.1369,519.4065 438.8299,519.6321 442.5762,519.4558 446.3297,518.8327 450.023,517.7206 453.5705,516.0938 456.878,513.9534 459.8546,511.3308 462.4263,508.2855 464.5458,504.8964 466.1952,501.2484 467.3815,497.4194 468.1238,493.4712 468.4353,489.4484 468.2043,485.4038 467.3986,481.4239 466.0775,477.5789 464.3177,473.9062 459.7374,467.0859 456.9671,463.9252"/>
    <polygon points="468.4861,448.3506 470.7707,446.0236 472.6338,443.3881 474.0379,440.5312 474.9885,437.5539 475.5347,434.5495 475.7305,428.6846 475.1362,423.0421 473.758,417.4911 471.2252,412.1577 469.4219,409.7252 467.2723,407.5353 464.8244,405.6177 459.2284,402.5791 452.8456,400.5726 449.3748,400.013 445.7403,399.829 442.002,400.1292 438.2726,401.0221 434.7121,402.5835 431.5018,404.8241 428.8038,407.6739 426.7216,410.9941 425.2826,414.6135 424.4484,418.3692 424.1437,422.1354 424.2867,425.8315 425.6556,432.8625 428.2911,439.3002 430.0943,442.2318 432.2234,444.9138 434.659,447.2995 437.3639,449.3504 440.2905,451.0408 443.3883,452.3562 446.6093,453.2881 449.9086,453.8298 453.2423,453.9744 456.5628,453.7012 459.8131,452.9961 462.9306,451.8625 465.8468,450.3084"/>
    <polygon points="506.2043,445.8095 505.6231,440.9484 504.4096,436.0913 502.4948,431.3617 499.8571,426.9016 496.5317,422.8439 492.6015,419.2877 488.1749,416.285 483.3595,413.8458 478.2411,411.9572 472.8788,410.61 467.3142,409.8209 461.5902,409.6333 455.7755,410.1387 449.9906,411.4513 444.4154,413.6707 439.2766,416.8414 434.8111,420.9206 431.2174,425.7681 428.6105,431.1664 427.001,436.8648 426.3048,442.6307 426.3785,448.2886 427.0667,453.7354 428.2702,458.9272 429.957,463.8388 432.0922,468.4458 434.6737,472.7091 437.7107,476.5619 441.1931,479.9154 445.0676,482.6842 449.234,484.8178 453.5653,486.3235 457.9412,487.2647 462.2764,487.7392 470.7174,487.6525 478.9131,486.2759 482.9069,485.0241 486.7776,483.3343 490.4541,481.172 493.856,478.5327 496.9117,475.4457 499.5711,471.9645 501.8072,468.1513 503.6068,464.0631 504.957,459.7469 505.835,455.2427 506.2462,450.589"/>
    <polygon points="542.5396,476.5322 548.5388,477.1919 554.74,476.8548 557.889,476.2081 561.0014,475.1559 563.9986,473.6623 566.7983,471.7256 569.3278,469.3742 571.5302,466.6561 573.367,463.6291 574.8142,460.3516 575.8564,456.878 576.4765,453.2577 576.5958,449.5471 576.1305,445.8381 575.0934,442.231 573.5285,438.8132 571.5005,435.6502 569.0792,432.7858 566.3248,430.2523 563.2857,428.0818 560.0061,426.3101 556.5356,424.9686 552.9313,424.0748 549.2511,423.6302 545.5491,423.6323 541.8802,424.0987 538.3056,425.0311 534.8915,426.4256 531.7126,428.2749 528.8522,430.5608 526.3953,433.2436 524.415,436.2556 522.9559,439.5033 522.0231,442.8796 521.5826,446.2823 521.5732,449.6303 522.5452,455.9874 524.4065,461.8861 527.3345,467.2641 529.2876,469.6268 531.5532,471.6841 534.0765,473.3969 536.7875,474.76"/>
    <polygon points="529.0078,489.8372 527.6827,485.124 525.6539,480.7016 523.003,476.6754 519.8263,473.1279 516.2238,470.1222 512.2932,467.7083 508.1333,465.9253 503.8483,464.7938 499.5476,464.305 495.3354,464.414 491.2968,465.0466 487.4957,466.1925 484.022,467.9104 480.9444,470.0536 475.9567,474.9796 472.1323,480.1029 469.1122,485.3577 467.0529,490.9918 466.3416,496.9791 466.4751,503.1967 466.8758,506.4425 467.6738,509.724 468.9795,512.9257 470.8355,515.9086 473.2035,518.5596 475.9865,520.8285 479.0764,522.7313 485.913,525.6341 493.556,527.447 497.7072,527.9023 502.0602,527.9108 506.5285,527.3218 510.9669,526.0148 515.1974,523.9334 519.0449,521.0991 522.3705,517.6016 525.0885,513.5718 527.1641,509.1507 528.5967,504.4665 529.3988,499.6255 529.5734,494.7155"/>
    <polygon points="514.2345,499.6213 518.7676,501.6782 523.5473,503.121 528.4896,503.882 533.4887,503.9283 538.4495,503.3613 543.3026,502.2039 547.9668,500.4395 552.343,498.0609 556.3207,495.0854 559.7914,491.5641 562.6631,487.5828 564.8717,483.253 566.3859,478.6995 567.2054,474.0478 567.3583,469.4143 566.8973,464.8993 565.9197,460.5783 564.5469,456.4837 562.8355,452.6219 560.8072,448.9984 558.4526,445.6373 555.7556,442.5894 552.7232,439.916 549.4018,437.658 545.8647,435.8095 542.1813,434.3168 534.4746,432.1067 530.4034,431.3251 526.152,430.9106 521.7534,430.9792 517.2806,431.625 512.8465,432.9301 508.5927,434.9395 504.6645,437.6427 501.1818,440.9724 498.2215,444.8242 495.8218,449.0855 494.0029,453.6552 492.7865,458.4468 492.1994,463.3781 492.2949,468.36 493.1259,473.2792 494.6492,478.0254 496.7899,482.5133 499.4619,486.6879 502.5886,490.5173 506.1145,493.9763 510.0052,497.0295"/>
    <polygon points="515.0524,501.3557 515.2982,504.6577 516.0251,507.9319 518.6972,514.235 522.7027,520.1789 525.2044,522.9982 528.0859,525.642 531.3761,527.9977 535.0677,529.9212 539.1022,531.2676 543.3762,531.9764 547.8102,532.1747 552.3398,531.8089 556.8688,530.8049 561.2677,529.1063 565.3849,526.6947 569.0692,523.6053 572.1985,519.9288 574.6996,515.7939 576.5499,511.3401 577.7628,506.6938 578.3669,501.9573 578.3893,497.2107 577.7802,492.5303 576.5198,488.0143 574.6506,483.7579 572.228,479.8464 569.3171,476.3547 565.9897,473.3484 562.3247,470.884 558.4079,469.0085 554.3332,467.7572 550.202,467.1488 546.1213,467.1785 542.1962,467.8103 538.5215,469.0072 535.1994,470.7864 532.3052,472.9866 529.8379,475.4045 520.4876,486.9793 517.2674,492.068 516.0721,494.9793 515.3141,498.1009"/>
    <polygon points="502.5111,533.7019 506.26,534.3169 510.1228,534.3201 513.9869,533.6934 517.746,532.4572 521.3079,530.6557 524.5943,528.3427 527.5366,525.5753 530.0724,522.4135 532.1477,518.923 533.7211,515.1778 534.7686,511.257 535.2831,507.2402 535.2715,503.2025 534.768,499.2096 533.788,495.3178 532.3338,491.5875 530.4079,488.0892 528.0231,484.9036 525.214,482.1136 522.0427,479.7911 518.5941,477.9852 514.9641,476.7176 511.2475,475.9868 507.5306,475.7738 503.8882,476.0455 500.3852,476.7977 497.098,478.0459 494.0858,479.6963 488.9567,483.8156 484.9718,488.6158 482.1153,493.9034 481.1411,496.6942 480.1853,502.4506 480.459,508.2314 481.5774,514.0074 483.888,519.6741 485.5812,522.3484 487.6296,524.8535 490.0101,527.1603 492.7019,529.2453 495.6927,531.0732 498.971,532.585"/>
    <polygon points="485.2975,540.2127 488.1701,537.8076 490.5671,534.9601 492.4034,531.7651 493.6405,528.3501 494.2875,524.85 494.3869,521.3841 493.9993,518.0469 492.1256,512.001 489.5409,506.8068 486.3172,502.3592 484.3679,500.5044 482.1894,498.9827 479.8394,497.8282 474.9463,496.5104 470.112,496.093 465.3548,496.451 460.7878,497.8693 456.4339,500.0818 452.0891,502.9791 447.765,506.8721 445.8085,509.3367 444.1805,512.1696 443.0287,515.3206 442.3448,518.7066 442.1177,522.2642 442.4199,525.9135 443.3134,529.545 444.8384,533.0203 446.9925,536.1859 449.7131,538.9044 452.8823,541.0889 456.3539,542.7234 459.9933,543.8536 463.7057,544.5572 471.1948,544.9142 474.9247,544.4672 478.5718,543.5422 482.0609,542.1273"/>
    <polygon points="466.3439,574.4982 467.8019,571.4399 468.8618,568.2719 469.4824,565.0337 469.639,561.7846 469.335,558.5951 468.5834,555.5353 467.4339,552.6677 465.9717,550.0275 462.4276,545.4211 458.3359,541.5694 453.7055,538.3949 448.4494,536.0064 442.559,534.6218 436.1454,534.5079 432.8427,535.0727 429.5751,536.119 426.4299,537.6605 423.4871,539.6784 420.8107,542.1317 418.4505,544.9708 416.4514,548.1467 414.8631,551.6114 413.7419,555.3108 413.1426,559.1773 413.0887,563.1309 413.5909,567.0885 414.6535,570.9633 416.2584,574.6708 418.3686,578.1345 420.9373,581.2874 423.9152,584.0657 427.2499,586.404 430.8793,588.237 434.7252,589.5095 438.6942,590.1887 442.6858,590.2702 446.6025,589.7687 450.3501,588.6992 453.8457,587.1225 457.03,585.1209 459.8729,582.7849 462.3692,580.1986"/>
    <polygon points="465.7,580.9242 465.1622,577.6254 464.2174,574.4563 462.9052,571.4606 461.2693,568.6694 457.1774,563.7833 452.1825,559.9373 446.4927,557.2293 440.2968,555.6633 433.7171,555.3471 430.3519,555.7632 426.9983,556.5979 423.7015,557.8489 417.3812,561.5131 414.3916,563.9033 411.5676,566.6838 408.9941,569.878 406.7898,573.4894 405.0868,577.4833 404.0062,581.781 403.6389,586.2672 404.0295,590.8041 405.172,595.2514 407.0185,599.4827 409.4963,603.3935 412.5267,606.8954 416.0351,609.904 419.9442,612.3311 424.1597,614.0942 428.5621,615.1383 433.015,615.456 437.3859,615.0891 441.5648,614.1232 445.482,612.6831 449.0991,610.8463 452.3919,608.6725 455.3452,606.2136 457.951,603.5167 460.2051,600.6227 462.1022,597.5648 463.6302,594.371 464.7703,591.0702 465.5023,587.6982 465.8128,584.2994"/>
    <polygon points="467.9801,581.3245 464.1174,584.821 460.6165,588.552 457.448,592.5011 454.6265,596.6899 452.2126,601.145 450.2938,605.8681 448.9572,610.8237 448.2699,615.9429 448.2477,621.1383 448.866,626.329 450.1353,631.4337 452.058,636.3635 454.6233,641.0238 457.8021,645.3182 461.5436,649.1569 465.7763,652.4652 470.4145,655.1896 475.3672,657.2988 480.5467,658.7788 485.8727,659.6256 491.2722,659.8433 496.6873,659.4867 502.0728,658.5537 507.3678,657.0087 512.4874,654.8148 517.3256,651.953 521.7696,648.4375 525.7194,644.3219 529.1039,639.6894 531.8845,634.6359 534.0449,629.2518 535.5743,623.6142 536.453,617.79 536.5651,611.8558 535.7388,605.9532 534.0035,600.2433 531.4477,594.8595 528.195,589.8901 524.3705,585.3797 520.0691,581.3545 515.3458,577.8571 510.2354,574.9709 504.7877,572.8145 499.0959,571.5117 493.302,571.1515 487.58,571.753 482.0938,573.2048 476.9611,575.3798 472.2514,578.1361"/>
    <polygon points="474.1304,590.3455 474.1518,594.0673 474.6719,597.8819 475.7711,601.6854 477.4909,605.3504 479.8195,608.7523 482.696,611.7963 486.0331,614.4299 489.7447,616.6329 493.762,618.3948 498.033,619.6937 502.5091,620.4816 507.0974,620.4992 511.6268,619.6583 515.9431,618.0403 519.935,615.7641 523.5302,612.95 526.6793,609.6996 529.34,606.0958 531.4709,602.2121 533.0339,598.1237 534.0004,593.9135 534.3592,589.6715 534.1231,585.4902 532.3851,577.5643 529.4625,570.2355 527.4108,566.8871 524.8853,563.8966 521.8996,561.3983 518.5447,559.49 514.9618,558.2018 511.2969,557.4997 507.6673,557.3147 504.1518,557.5711 500.797,558.2031 497.6502,559.2961 494.7817,560.8146 492.2171,562.6159 485.806,568.5036 479.8111,574.8433 477.9552,577.3917 476.3736,580.2537 475.2142,583.4071"/>
    <polygon points="470.3,592.7425 475.7005,594.5501 481.2721,595.4792 486.86,595.4922 492.2992,594.6304 497.4601,593.0602 502.271,590.9168 506.6987,588.3134 510.7407,585.3464 514.4124,582.0863 517.7342,578.5751 520.7206,574.8315 523.3746,570.8589 525.686,566.6539 527.6304,562.2127 529.1684,557.5365 530.2429,552.6373 530.8614,547.5379 531.0466,542.2408 530.6372,536.7899 529.4628,531.3069 527.4007,525.9806 524.4155,521.0287 520.5699,516.6509 516.005,512.9896 510.9007,510.115 505.4365,508.0338 499.7643,506.7155 494.0008,506.1183 488.2349,506.2139 482.5531,507.0432 477.0522,508.5939 471.8167,510.8127 466.9038,513.6197 462.3354,516.9249 458.1103,520.658 454.2356,524.7895 450.7556,529.3232 447.7577,534.2664 445.3517,539.5987 443.6404,545.2603 442.7025,551.158 442.6778,557.1674 443.7109,563.0985 445.7184,568.7627 448.5502,574.0249 452.0327,578.8163 456.0179,583.1172 460.4151,586.9139 465.1848,590.1558"/>
    <polygon points="471.7201,604.8409 476.8879,604.2241 482.0261,603.1214 487.071,601.4374 491.9002,599.0768 496.3483,595.9901 500.2497,592.2083 503.4914,587.8456 506.0451,583.0641 507.9622,578.0212 509.3346,572.8271 510.246,567.532 510.7334,562.1421 510.7648,556.6522 510.2517,551.0827 509.0718,545.5068 507.1079,540.0604 504.2919,534.9274 500.6355,530.3039 496.2356,526.3545 491.2502,523.1803 485.8591,520.8119 480.2279,519.2264 474.4883,518.3749 468.7367,518.2071 463.0489,518.7274 457.518,519.9889 452.238,521.9414 447.2843,524.517 442.712,527.6412 438.5608,531.2448 434.8657,535.2706 431.6671,539.6727 429.0142,544.4059 426.9578,549.4156 425.5387,554.6333 424.7809,559.9797 424.6941,565.3723 425.3011,570.724 426.5937,575.9428 428.5412,580.9412 431.1045,585.6377 434.2379,589.9555 437.888,593.8228 441.991,597.1754 446.4725,599.962 451.25,602.1487 456.239,603.7202 461.3594,604.6768 466.5391,605.0276"/>
    <polygon points="488.6437,585.7502 487.6625,582.694 486.317,579.8024 484.6412,577.1124 482.6667,574.6563 480.4243,572.4641 475.2752,568.965 469.5,566.6738 463.319,565.4768 456.8295,565.5374 453.5569,566.1709 450.3536,567.2573 447.3045,568.8133 444.4976,570.8269 442.0107,573.2565 439.9011,576.0381 438.2035,579.0977 436.9345,582.3616 436.1006,585.7627 435.704,589.2406 435.7362,592.7399 436.1576,596.2169 436.9762,599.6317 438.2115,602.9313 439.8782,606.0464 441.9731,608.8966 444.4663,611.4014 447.2993,613.4943 450.3921,615.1354 453.6568,616.3156 457.012,617.0525 460.3923,617.3788 463.7515,617.3279 467.0486,616.8594 470.2227,615.9508 473.2195,614.6476 478.5761,611.1086 483.1104,606.6836 486.7614,601.4545 488.1019,598.5163 488.9979,595.3968 489.3776,592.1682 489.2278,588.9263"/>
    <polygon points="458.943,571.8635 460.2957,568.3037 461.1546,564.6331 461.6797,557.242 460.8403,549.9436 459.8769,546.3735 458.4973,542.9154 456.6612,539.6502 454.3564,536.6785 451.6162,534.0967 448.5172,531.9703 445.1594,530.3191 441.6392,529.1228 438.03,528.34 430.7042,527.885 427.0474,528.2779 423.4617,529.1253 420.0083,530.4262 416.7566,532.1783 413.7861,534.3704 411.1782,536.9707 409.0019,539.9199 407.2993,543.135 406.0804,546.5242 405.3293,550.0018 405.0165,553.4977 405.1088,556.9592 406.3912,563.6339 409.0289,569.7897 410.8449,572.5889 412.9821,575.1441 415.4138,577.4152 418.0978,579.3781 424.0441,582.3677 430.5603,584.109 437.4945,584.5713 441.0903,584.3178 444.7169,583.6233 448.2713,582.3904 451.6085,580.558 454.5726,578.1309 457.038,575.1884"/>
    <polygon points="456.9498,570.0558 460.0323,568.0367 462.7509,565.5612 465.0223,562.6941 466.7922,559.5287 468.0488,556.1746 468.8268,552.7384 469.2338,545.9127 468.9472,542.5832 468.1259,539.373 466.8073,536.3762 465.0933,533.6535 460.9003,529.0775 456.1225,525.5477 450.8758,523.1017 448.0976,522.3896 445.2669,522.0762 442.4449,522.1783 439.6974,522.6829 434.6317,524.7183 430.2588,527.7037 426.4605,531.2823 423.174,535.4723 420.7225,540.4363 419.9866,543.1891 419.5176,549.0281 420.262,555.1662 421.2405,558.2328 422.6683,561.1971 424.5407,563.9811 426.8309,566.5138 429.499,568.7306 432.4967,570.5704 435.7663,571.9744 439.2386,572.8906 442.8324,573.2794 446.4659,573.1796 450.0778,572.6221 453.6001,571.5857"/>
    <polygon points="434.0645,587.4523 437.1818,588.1359 440.4497,588.3944 443.795,588.1654 447.1258,587.4097 450.3363,586.109 453.3134,584.2726 455.949,581.9417 458.1532,579.1894 459.8625,576.1112 461.0395,572.8115 461.6676,569.3956 461.749,565.9649 461.3082,562.6151 460.3806,559.4314 459.0373,556.4818 457.3732,553.8037 453.4088,549.2739 448.8919,545.7795 443.9426,543.3423 438.6765,542.1492 436.0082,542.0854 430.8543,543.0443 426.2326,545.222 422.2896,548.2634 419.0987,551.992 416.752,556.2942 415.9409,558.6255 415.2002,563.538 415.5041,568.5929 416.8511,573.6565 418.0135,576.0885 419.5288,578.3657 423.5013,582.2613 428.4029,585.2673"/>
    <polygon points="418.9972,559.6339 417.7924,551.7809 415.5805,544.4343 412.2781,537.4762 410.078,534.227 407.4737,531.221 404.4874,528.5084 401.1628,526.106 397.5377,524.0102 393.6293,522.225 389.4418,520.7834 384.9827,519.7401 380.2674,519.1269 375.3387,519.0663 370.3015,519.7079 365.3267,521.1811 360.6317,523.5526 356.4367,526.7952 352.9137,530.7864 350.1532,535.3418 348.1646,540.2642 346.9061,545.3846 346.3199,550.5773 346.3557,555.7538 347.0817,560.835 348.5435,565.7067 350.6494,570.2693 353.2924,574.4582 356.3732,578.2379 359.8124,581.5895 363.55,584.4986 367.5379,586.9494 371.7323,588.9241 376.0889,590.4039 380.5601,591.3704 385.0937,591.8076 389.633,591.7146 394.1304,591.1384 398.5401,590.0648 402.7931,588.4545 406.7848,586.2654 410.3785,583.4799 413.4315,580.136 415.8346,576.3389 417.5444,572.2423 418.5879,568.0093 419.0409,563.7759"/>
    <polygon points="421.1631,553.0548 418.4912,556.8619 416.2747,561.1069 414.6724,565.7399 413.7857,570.6587 413.5736,575.7561 414.0928,580.9252 415.4053,586.0294 417.5476,590.902 420.5143,595.3561 424.2429,599.2038 428.6065,602.2878 433.4236,604.514 438.4863,605.8736 443.5993,606.442 448.6162,606.3514 453.4563,605.7454 458.0791,604.6075 462.4211,602.9197 466.4386,600.7824 470.1232,598.2978 476.6179,592.6184 482.1948,586.1599 484.5988,582.5588 486.6156,578.6599 488.1062,574.4762 488.9417,570.0785 489.0735,565.5832 488.6536,561.0848 487.6762,556.6514 486.1116,552.3697 483.9482,548.3443 481.2059,544.6878 477.9413,541.5048 474.2451,538.8761 470.2317,536.8439 466.0218,535.4058 461.7228,534.5189 457.4127,534.1182 453.1355,534.1428 448.9233,534.6548 444.8425,535.7074 440.9519,537.2436 433.8027,541.4289 427.2544,546.6553"/>
    <polygon points="414.1356,551.1544 409.8571,552.0219 405.7055,553.5179 401.8369,555.6957 398.4347,558.5568 395.6703,562.0239 393.656,565.9426 392.4154,570.1141 391.8871,574.3438 391.9551,578.4808 393.3645,586.1686 395.7814,593.0393 399.1043,599.2248 401.1924,602.0143 403.5803,604.5448 406.2421,606.7859 412.2287,610.384 418.9313,612.8046 422.5191,613.5103 426.222,613.7231 429.9404,613.319 433.569,612.3268 437.0345,610.8251 440.3107,608.9142 446.3388,604.1424 449.0741,601.2958 451.5234,598.0989 453.5465,594.5392 454.9921,590.66 455.7404,586.5637 455.7561,582.3911 455.1991,578.2581 454.1209,574.2358 452.5492,570.3868 450.5134,566.7695 448.0443,563.4409 445.1787,560.456 441.9643,557.8619 438.4604,555.6881 434.7312,553.9391 430.8335,552.5965 422.6667,551.0324 418.4295,550.8455"/>
    <polygon points="402.2787,547.1523 397.6209,551.2355 393.8165,556.2485 392.3085,559.0855 391.1338,562.1255 390.3574,565.3347 390.0255,568.6573 390.1078,572.0358 390.6099,575.4204 391.5429,578.7564 392.9119,581.9834 394.7127,585.0361 396.9252,587.8506 399.5112,590.3752 402.4207,592.5769 405.6041,594.4372 409.0202,595.9397 412.6344,597.0587 416.4098,597.7562 420.297,597.969 424.2221,597.6369 428.0979,596.7428 431.8337,595.2902 435.3397,593.3014 438.5313,590.8164 441.3314,587.89 443.6722,584.5886 445.4933,580.9883 446.7432,577.1749 447.3828,573.2451 447.3961,569.3055 446.8005,565.4655 445.6444,561.8252 444.0191,558.4598 442.0325,555.408 437.3385,550.2494 432.0063,546.2715 426.1632,543.5064 423.0858,542.6372 419.9441,542.1455 416.7816,542.0463 413.6475,542.3505 410.5945,543.0515 407.665,544.1119"/>
    <polygon points="394.9842,540.8991 399.6148,543.1546 404.5568,544.7814 409.7195,545.7264 415.0019,545.9574 420.3025,545.4811 425.5195,544.2909 430.5479,542.3952 435.2842,539.8227 439.6317,536.6219 443.5034,532.8565 446.8226,528.6024 449.5246,523.9454 451.5606,518.9813 452.902,513.8121 453.541,508.5411 453.4851,503.2672 452.5597,498.1104 450.7259,493.2517 448.1559,488.8303 445.0643,484.9037 441.653,481.4495 434.34,475.6945 430.4743,473.3297 426.4251,471.3746 422.1828,469.9496 417.7972,469.1808 413.3759,469.1529 409.0585,469.8651 404.9654,471.2 401.1724,473.0416 397.7052,475.2546 391.6036,480.321 386.1937,485.9382 383.691,489.0386 381.4037,492.4239 379.4525,496.1326 377.974,500.1533 377.0864,504.4223 376.7415,508.8554 376.9193,513.3961 377.6779,517.9745 379.0601,522.5002 381.0828,526.8711 383.7334,530.9845 386.9733,534.7463 390.7459,538.0748"/>
    <polygon points="395.775,533.5829 395.0762,538.1527 394.9386,542.6959 395.9811,551.4975 396.9505,555.7625 398.2938,559.9361 400.1263,563.9438 402.5385,567.6483 405.5482,570.8845 409.0809,573.5115 412.9876,575.4617 417.0916,576.7602 421.2405,577.5092 425.3431,577.8461 433.3624,577.6413 437.2711,576.9051 441.0549,575.7233 444.6953,574.1667 451.6767,570.2282 458.6202,565.2658 462.0442,562.2089 465.2515,558.6312 468.0265,554.4933 470.1476,549.8392 471.4339,544.7918 471.8648,539.5135 471.412,534.1656 470.0596,528.9184 467.8557,523.9297 464.8983,519.3218 461.3036,515.1789 457.1761,511.5648 452.6024,508.5452 447.6666,506.192 442.4674,504.5675 437.1203,503.7033 431.7453,503.5956 426.4557,504.2251 421.3595,505.5706 416.5529,507.5705 412.1125,510.1486 408.095,513.2231 404.5427,516.7169 401.4942,520.5636 398.9917,524.7033 397.0772,529.0698"/>
    <polygon points="385.5908,516.4645 381.6563,520.7134 378.27,525.4889 375.488,530.7118 373.3731,536.3051 371.9967,542.1841 371.4258,548.2459 371.7174,554.3673 372.8771,560.4146 374.8602,566.2657 377.5888,571.8266 380.9731,577.0366 384.9379,581.8558 389.4365,586.2405 394.4455,590.1184 399.9407,593.3798 405.8691,595.8905 412.1325,597.5197 418.5873,598.1695 425.0632,597.8207 431.4004,596.536 437.4555,594.3633 443.1006,591.3748 448.225,587.659 452.734,583.3135 456.5475,578.4432 459.6017,573.1623 461.8553,567.5943 463.2973,561.8694 463.9509,556.1145 463.8703,550.4423 463.1205,544.9418 461.6104,539.7053 459.4121,534.8414 456.7028,530.4012 453.6523,526.369 446.9467,519.2737 439.4887,513.1483 435.3544,510.4991 430.8936,508.2523 426.1142,506.5346 421.0737,505.4643 415.8642,505.0635 410.5549,505.2539 405.2144,506.087 399.9347,507.6122 394.827,509.8589 390.0096,512.8232"/>
    <polygon points="410.0597,516.1984 414.8957,519.6205 417.6125,520.8574 420.4756,521.7394 423.4378,522.2474 426.4494,522.3766 432.4734,521.6475 438.3257,519.6292 443.8048,516.3339 446.3417,514.2132 448.699,511.7742 450.8286,509.0155 452.6712,505.9433 454.1579,502.5777 455.2139,498.9571 455.8306,495.135 456.036,491.148 455.7051,487.0628 454.7149,483.0068 452.9891,479.1559 450.5281,475.7032 447.4157,472.8202 443.8025,470.6232 439.8742,469.1558 435.8161,468.3896 431.7826,468.2415 427.8804,468.6026 424.1672,469.3832 420.7019,470.6926 417.5672,472.4803 414.8048,474.6089 412.4039,476.9382 408.4607,481.8021 405.3379,486.8062 403.1432,492.1763 402.2511,497.9086 402.8018,503.6986 403.6071,506.5062 406.2278,511.7357"/>
    <polygon points="418.3141,500.5341 417.9698,497.1384 417.1893,493.7463 415.9112,490.4493 414.1112,487.3588 411.8126,484.5843 409.0822,482.2107 406.0143,480.2844 402.709,478.8111 399.2524,477.7663 392.1069,476.8297 388.4847,476.9456 384.8871,477.5054 381.3699,478.5125 377.9854,479.9508 374.7707,481.7836 371.7447,483.9692 368.9208,486.4799 366.3265,489.3096 364.0169,492.4621 362.0696,495.9313 360.5686,499.6863 359.5881,503.6693 359.1734,507.8012 359.3026,512.003 360.0057,516.1942 361.3132,520.2763 363.2337,524.1358 365.7462,527.6527 368.7985,530.7087 372.3072,533.1976 376.1596,535.0383 380.2199,536.1918 384.3449,536.6733 388.4067,536.5478 392.3114,535.9091 395.9948,534.7826 399.3931,533.201 402.4682,531.2662 407.6573,526.7202 411.7835,521.6898 415.0449,516.2586 417.3121,510.3072 417.9793,507.14"/>
    <polygon points="436.8743,485.6405 441.1303,483.7083 445.1158,481.2023 448.71,478.1262 451.8146,474.5411 454.3844,470.5522 456.4333,466.2744 458.013,461.7978 459.1768,457.1709 459.9486,452.408 460.283,447.5132 460.0872,442.5173 459.2835,437.4856 457.8025,432.5172 455.6062,427.7363 452.7016,423.2728 449.139,419.2446 444.9988,415.7478 440.3764,412.8574 435.3727,410.6353 430.0928,409.1345 424.6491,408.397 419.1614,408.4373 413.7397,409.1956 408.4771,410.6416 403.4631,412.7483 398.7841,415.4774 394.522,418.78 390.7535,422.5966 387.5484,426.8564 384.9641,431.4758 383.0366,436.3592 381.7741,441.4054 381.1577,446.5184 381.1524,451.6173 381.7326,456.6366 382.8846,461.5159 384.5909,466.1949 386.8417,470.606 389.6254,474.6698 392.9139,478.2987 396.6507,481.4113 400.7496,483.9509 405.106,485.8992 409.6175,487.2762 414.2011,488.127 418.8018,488.5028 423.3894,488.4417 427.9471,487.959 432.4553,487.0392"/>
    <polygon points="443.5816,482.1286 446.5572,486.2655 450.2,489.8726 454.399,492.8361 459.0166,495.0841 463.9047,496.5926 468.9239,497.381 473.9579,497.4962 478.9188,497.0092 483.7548,496.0109 488.4248,494.5082 492.8663,492.4759 496.9837,489.8832 500.6546,486.7257 503.7572,483.0522 506.2088,478.9715 507.9956,474.6311 509.1769,470.1785 509.8615,465.7221 510.1654,456.9469 509.6821,452.628 508.6239,448.4286 507.0221,444.4265 504.9243,440.6877 502.3871,437.2643 499.4678,434.196 496.217,431.5191 492.6801,429.2742 488.9031,427.5109 484.9437,426.2831 480.8769,425.6376 476.794,425.599 472.7937,426.1589 468.9667,427.2705 465.3783,428.8485 462.0509,430.7803 458.9542,432.9487 453.1506,437.7108 447.5342,443.2119 444.9151,446.4595 442.618,450.1247 440.8177,454.1961 439.6615,458.5973 439.1003,463.2282 439.1431,468.0125 439.8717,472.8485 441.3445,477.6044"/>
    <polygon points="404.2801,480.4087 398.1931,485.9643 393.0161,492.3826 390.8564,495.9854 389.1003,499.8687 387.8421,504.0011 387.1567,508.3169 387.1265,512.7235 387.7938,517.1021 389.1214,521.3388 391.0375,525.3456 393.4565,529.0653 396.3025,532.4634 399.5239,535.5076 403.0889,538.1478 406.9668,540.3117 411.1071,541.9186 415.4301,542.902 419.8341,543.2275 424.2108,542.9212 428.4899,542.1423 432.6387,540.9305 436.6206,539.2867 440.3865,537.2045 443.8749,534.6839 447.0212,531.7447 449.7719,528.4303 452.096,524.8016 453.9863,520.9229 455.4504,516.8489 456.4947,512.6191 457.11,508.2619 457.2729,503.8059 456.9337,499.292 456.0177,494.7918 454.4599,490.4138 452.2308,486.2925 449.3517,482.5683 445.896,479.3635 441.9763,476.7643 437.7248,474.814 433.273,473.516 428.7372,472.8446 424.212,472.7585 419.7711,473.229 415.4934,474.3018 411.4593,475.9211 407.7184,477.9917"/>
    <polygon points="378.2792,478.7762 375.318,479.7912 369.8819,482.7215 365.0546,486.5457 360.7668,491.1985 358.8952,493.8939 357.3056,496.8592 356.0968,500.0788 355.3601,503.5009 354.9581,510.7621 355.3435,514.5529 356.2705,518.3468 357.8314,521.9985 360.0557,525.334 362.8892,528.1965 366.2037,530.4923 369.8372,532.2123 373.6442,533.4189 377.5287,534.2057 385.4078,534.7537 389.3456,534.2715 393.1672,533.2062 396.7954,531.6228 400.1894,529.6099 406.2681,524.6062 408.9511,521.6785 411.3302,518.4496 413.2856,514.9059 414.6649,511.078 415.3276,507.0603 415.1904,503.0021 414.2431,499.0793 412.5735,495.456 410.3553,492.24 407.7947,489.4593 405.0759,487.068 396.7534,481.4548 390.8552,478.9068 387.732,478.1854 384.5459,477.9238 381.3718,478.138"/>
    <polygon points="363.6853,473.3394 367.4711,475.1946 371.491,476.5445 375.679,477.3111 379.9416,477.4478 384.175,476.9548 388.2844,475.8706 392.1991,474.2642 395.8808,472.2198 399.3217,469.8136 405.5009,464.0828 408.2129,460.7663 410.6071,457.1328 412.6023,453.1837 414.1086,448.9483 415.0433,444.4856 415.3514,439.88 415.013,435.2266 414.0103,430.6276 412.3555,426.1855 410.0916,421.9901 407.2802,418.112 403.9841,414.6071 400.2569,411.5315 396.1468,408.9542 391.7103,406.958 387.0265,405.6265 382.2018,405.0246 377.3625,405.1769 372.6284,406.008 368.0909,407.4521 363.823,409.4491 359.8789,411.9309 356.2967,414.8309 353.106,418.0922 350.3378,421.6686 348.029,425.5184 346.218,429.5938 344.9341,433.8362 344.189,438.1789 343.9778,442.555 344.3257,446.899 345.2898,451.1234 346.8147,455.143 348.8187,458.9004 351.2138,462.3708 353.9264,465.5548 356.9138,468.4581 360.1651,471.0683"/>
    <polygon points="350.5393,449.6289 347.574,449.7068 341.7828,450.9444 336.3542,453.3995 331.2064,456.7593 326.2044,461.0896 323.8705,463.7548 321.8083,466.8094 320.1697,470.2401 319.0899,473.9789 318.5484,477.9332 318.5607,482.0242 319.1846,486.1557 320.4514,490.2146 322.3609,494.0808 324.8823,497.6362 327.9579,500.7715 331.5068,503.3926 335.4288,505.4278 339.6112,506.8347 343.9383,507.6026 348.3021,507.7464 352.6025,507.2352 356.7003,505.9461 360.4586,503.9904 363.802,501.5402 366.7266,498.777 371.5407,492.8279 375.2326,486.5083 376.5572,483.1444 377.3974,479.6477 377.6621,476.0845 377.3114,472.5606 376.4152,469.1863 375.0661,466.0395 373.3562,463.1662 371.3788,460.5794 366.8929,456.2146 361.8829,452.8472 356.3881,450.5737"/>
    <polygon points="318.6746,456.6731 317.9228,451.5941 316.7269,446.6562 315.0399,441.8926 312.7848,437.3873 309.8952,433.2818 306.3635,429.7526 302.271,426.9629 297.7826,425.0109 293.1059,423.9034 288.4393,423.5648 283.9349,423.8705 279.6851,424.6818 275.7318,425.9225 272.1453,427.7646 269.007,430.0653 259.3826,439.5698 251.0782,446.2344 248.2162,449.2078 245.7225,452.7421 243.8568,456.786 242.6732,461.2157 242.1639,465.9206 242.4049,470.7777 243.4321,475.6507 245.246,480.4014 247.8182,484.8968 251.0951,489.0144 255.0029,492.6463 259.4519,495.7028 264.3415,498.1127 269.5649,499.8229 275.0116,500.7963 280.5685,500.9921 286.0967,500.3054 291.4454,498.7708 296.4933,496.4809 301.155,493.5445 305.3738,490.0637 309.1071,486.1232 312.3134,481.791 314.9441,477.1276 316.9436,472.1974 318.2565,467.0785 318.8395,461.8669"/>
    <polygon points="321.2007,530.1756 324.7748,528.0843 327.9716,525.4034 330.6805,522.2093 332.8322,518.6136 334.3958,514.7383 335.3643,510.6976 335.7433,506.5935 335.5504,502.5183 334.809,498.5552 333.5678,494.7759 331.8964,491.2308 329.8619,487.9487 327.5176,484.9455 324.9002,482.2343 322.0349,479.8324 318.9425,477.7641 315.6463,476.0613 312.1764,474.7612 308.5744,473.902 304.8946,473.5151 301.2006,473.6127 297.5558,474.1789 294.0169,475.1931 290.6355,476.6319 287.462,478.474 284.55,480.6983 281.9532,483.2753 279.7173,486.1615 277.8737,489.3019 276.4401,492.6386 275.4285,496.1168 274.8505,499.6848 274.7148,503.2904 275.5434,510.4615 276.505,513.979 277.8924,517.384 279.7528,520.5834 282.0971,523.4636 284.8771,525.9271 287.9915,527.9312 291.3222,529.5026 298.3155,531.6536 305.681,532.8255 309.534,532.9115 313.4597,532.5451 317.3847,531.6534"/>
    <polygon points="332.2881,531.3062 336.0913,531.2563 339.8303,530.5742 343.4018,529.3234 346.7428,527.6082 352.7026,523.2094 357.8381,517.8846 360.0718,514.8589 361.9842,511.5571 363.4646,507.987 364.4048,504.2008 364.7259,500.2911 364.4704,496.3628 363.6623,492.5036 362.3,488.8051 360.4042,485.3615 358.0201,482.2616 355.2132,479.5824 352.0628,477.387 348.6565,475.726 345.0882,474.6373 341.4589,474.142 337.8748,474.2369 334.4395,474.8875 331.2466,476.0601 328.3928,477.7464 325.9407,479.7846 318.8078,487.9881 313.2282,493.634 311.4524,495.9945 309.9889,498.689 308.982,501.6692 308.4391,504.853 308.376,508.1649 308.8248,511.5218 309.7912,514.8382 311.26,518.0333 313.2028,521.0337 315.5841,523.7701 318.3628,526.1754 321.4894,528.1838 324.9027,529.7363 328.5294,530.7868"/>
    <polygon points="301.3384,536.4313 298.4687,539.2457 287.6015,552.5944 283.7322,558.4057 282.2911,561.7608 281.3591,565.3707 280.6673,573.1327 280.9714,577.2241 281.8842,581.3333 283.4999,585.2994 285.8436,588.9359 288.8599,592.0683 292.4239,594.5697 296.369,596.3837 300.5234,597.5283 304.7438,598.0784 308.9351,598.1333 313.0502,597.7613 317.05,596.9221 320.8922,595.6496 324.5475,593.9869 327.9975,591.9712 331.2312,589.6318 334.2398,586.9878 337.0104,584.0485 339.5244,580.8177 341.7575,577.2981 343.6808,573.4936 345.2546,569.4102 346.4173,565.0606 347.1561,560.4674 347.3974,555.6598 346.9601,550.7327 345.6807,545.8637 343.4702,541.29 340.3481,537.2616 336.4424,533.9894 331.9617,531.6066 327.1507,530.1514 322.2456,529.5737 317.439,529.7597 312.8627,530.566 308.5915,531.9046 304.7179,533.9083"/>
    <polygon points="233.1072,536.1725 231.3911,532.0134 229.0975,528.0473 226.281,524.3204 222.9706,520.89 219.1787,517.8481 214.9294,515.324 210.2855,513.462 205.359,512.3885 200.3022,512.1663 195.2493,512.6273 190.2882,513.734 185.5217,515.5123 181.0798,517.9808 177.1161,521.1309 173.7916,524.9058 171.2446,529.1883 169.5567,533.8055 168.726,538.5537 168.6626,543.2377 169.2122,547.71 170.2011,551.8929 171.5394,555.7694 173.221,559.3285 177.3509,565.4931 182.214,570.4672 187.6156,574.3837 193.5458,577.2109 196.7044,578.1248 199.9567,578.6437 203.2539,578.7418 209.8131,577.8428 216.1085,575.5055 219.0643,573.7942 221.8377,571.7289 224.3913,569.3266 228.7541,563.6165 232.12,556.8439 233.4139,553.064 234.304,549.019 234.5795,544.7803 234.1831,540.4598"/>
    <polygon points="373.0256,561.4415 370.9009,566.282 369.4158,571.3491 368.5867,576.5562 368.4113,581.8182 368.7834,587.0696 369.6726,592.2783 371.1525,597.3847 373.3114,602.275 376.2105,606.783 379.8441,610.7162 384.1184,613.9025 388.8599,616.2389 393.8549,617.7213 398.9008,618.4425 403.8521,618.558 408.6412,618.2331 417.7507,616.5724 422.0973,615.2226 426.2899,613.4792 430.2693,611.2811 433.9414,608.5867 437.204,605.404 439.9848,601.798 442.2673,597.8693 444.0919,593.7179 445.5291,589.4098 447.4405,580.3679 447.8185,575.6082 447.6491,570.7249 446.8389,565.7999 445.3159,560.952 443.0524,556.3201 440.0729,552.0412 436.446,548.2322 432.2674,544.9826 427.6449,542.3546 422.6877,540.3892 417.5017,539.1113 412.1888,538.5351 406.8475,538.6593 401.5691,539.4603 396.4412,540.928 391.5507,543.0392 386.9758,545.7508 382.7813,549.0053 379.0218,552.7425 375.7508,556.9065"/>
    <polygon points="392.3028,583.9218 396.2801,586.8527 400.6191,589.2689 405.2548,591.1168 410.1128,592.349 415.1084,592.9292 420.1472,592.8145 425.1159,591.9624 429.903,590.4122 434.4157,588.2281 438.5798,585.4809 442.3343,582.2392 445.6262,578.5691 448.4112,574.5386 450.6587,570.2206 452.3548,565.69 453.5018,561.0182 454.1111,556.2675 454.1916,551.4905 453.7125,546.741 452.6661,542.0831 451.0631,537.5827 448.921,533.306 446.266,529.3182 443.1335,525.6815 439.5667,522.4547 435.6148,519.6949 431.3327,517.4622 426.7856,515.8203 422.0547,514.8305 417.2402,514.5365 412.4526,514.9303 407.7866,515.9468 403.3182,517.5385 399.1058,519.647 395.1898,522.2115 391.5977,525.178 388.3534,528.5052 385.4864,532.1628 383.037,536.125 381.0559,540.3609 379.5975,544.8264 378.7106,549.4616 378.4289,554.1922 378.7278,558.9427 379.6022,563.6456 381.0558,568.2297 383.081,572.6204 385.6555,576.7444 388.7443,580.5326"/>
    <polygon points="405.3902,561.1295 406.7013,565.086 408.3373,568.78 412.405,575.4036 417.3305,581.1248 423.0669,586.091 426.3047,588.2431 429.8243,590.0699 433.6158,591.4577 437.6251,592.2967 441.7596,592.5084 445.9066,592.0643 449.9579,590.9903 453.831,589.3538 457.4784,587.2395 460.8809,584.7219 464.0263,581.8463 466.8875,578.6292 469.4133,575.0754 471.5369,571.1991 473.192,567.0347 474.3236,562.6357 474.8807,558.0691 474.7526,553.4272 473.9183,548.8278 472.4227,544.3761 470.3428,540.1467 467.7648,536.1786 464.7572,532.4879 461.3539,529.0953 457.5606,526.0519 453.3796,523.4494 448.8381,521.4071 444.0064,520.0436 438.9962,519.4491 433.9396,519.5964 428.9315,520.3759 424.0585,521.7992 419.4266,523.8836 415.1679,526.638 411.4343,530.0401 408.3733,534.014 406.0926,538.4231 404.6303,543.0882 403.9449,547.822 403.9315,552.4667 404.4547,556.9181"/>
    <polygon points="425.9808,537.9202 425.2593,544.434 425.432,550.7963 426.2989,556.8792 427.709,562.635 429.6007,568.0522 431.9201,573.1286 434.6585,577.8517 437.835,582.178 441.4605,586.0338 445.5029,589.3427 449.8794,592.0634 454.4795,594.2142 459.2063,595.8636 468.8683,597.9697 473.815,598.4983 478.852,598.552 483.9325,598.0247 488.9783,596.8588 493.8795,595.0005 498.4945,592.4159 502.6662,589.1164 506.256,585.1757 509.1774,580.7229 511.4116,575.9111 512.9936,570.8802 513.9827,565.7333 514.4344,560.5341 514.3652,555.3197 513.732,550.1306 512.545,545.012 510.8162,540.0047 508.5524,535.1483 505.7561,530.4857 502.4283,526.0643 498.5707,521.9396 494.1856,518.1817 489.2818,514.8836 483.886,512.1645 478.0583,510.1584 471.9003,508.9863 465.5215,508.5534 458.9958,508.8639 452.4446,510.056 446.066,512.2696 440.1316,515.5963 434.946,520.0239 430.7765,525.4058 427.7828,531.4778"/>
    <polygon points="529.6712,568.9366 526.1043,573.7798 523.2819,579.1094 521.219,584.7823 519.9149,590.6755 519.3666,596.6833 519.6347,602.7034 520.8526,608.5874 522.9398,614.1829 525.7586,619.3854 529.1559,624.1481 533.0022,628.4691 537.2191,632.3574 541.7797,635.7951 546.6815,638.7151 551.908,641.009 557.3998,642.5573 563.0491,643.2649 568.7135,643.096 574.2765,642.2788 579.6934,640.906 584.906,638.9421 589.8173,636.3387 594.2924,633.0683 598.182,629.157 601.3604,624.6998 603.7623,619.8484 605.398,614.776 606.3417,609.6376 606.7009,604.5414 606.5817,599.5421 605.9896,594.6582 604.8004,589.942 603.0827,585.452 600.9201,581.2166 598.3817,577.239 595.5095,573.5115 592.3168,570.0314 588.7968,566.8123 584.9346,563.8894 580.7198,561.3191 576.1562,559.1754 571.2692,557.5429 566.1094,556.5043 560.7353,556.0284 555.1986,556.167 549.5927,557.0344 544.0604,558.7287 538.7788,561.3004 533.9308,564.7319"/>
    <polygon points="559.1517,532.019 556.3303,523.7928 554.4493,519.8121 552.1221,516.0015 549.2984,512.4653 545.9974,509.2868 542.285,506.4958 538.2295,504.0759 533.8687,502.0029 529.2091,500.2837 524.2474,498.9697 518.9899,498.1135 513.4692,497.8347 507.7844,498.3082 502.1217,499.7111 496.7473,502.1671 491.9607,505.6886 488.019,510.1476 485.0686,515.3023 483.1222,520.8659 482.0894,526.5812 481.8349,532.2631 482.2278,537.8012 483.2433,543.1337 485.0083,548.1647 487.3951,552.8017 490.2286,557.0169 493.3367,560.8549 496.5946,564.4157 503.4862,571.1064 507.2807,574.272 511.4591,577.1704 516.0791,579.5837 521.104,581.2725 526.401,582.0437 531.778,581.8303 537.0369,580.6518 542.0045,578.5942 546.5508,575.7879 550.5873,572.3706 554.0515,568.4658 556.8934,564.1811 559.0722,559.6187 560.5635,554.8843 561.3704,550.0879 561.5292,545.3349 561.1069,540.7142"/>
    <polygon points="565.0769,536.8529 562.2151,534.4656 559.0136,532.3551 555.4814,530.6082 551.6549,529.309 547.593,528.5083 543.3424,528.1382 538.9544,528.2918 534.5398,529.1042 530.2761,530.6918 526.3893,533.1075 523.1111,536.3071 520.6229,540.1429 519.0105,544.3918 518.2484,548.8072 518.2181,553.1745 518.7522,557.3476 519.6843,561.2586 521.0206,564.8847 522.7799,568.178 524.8595,571.1074 527.1643,573.67 532.159,577.781 537.4167,580.7212 542.8656,582.5521 548.4252,583.1553 553.9074,582.6558 559.3232,581.3744 564.5205,578.9267 566.9084,577.1952 569.0858,575.1373 571.0125,572.7825 572.6582,570.1658 573.998,567.3226 575.0071,564.2872 575.6575,561.095 575.8537,557.7947 575.525,554.4709 574.6983,551.2061 573.4323,548.0576 569.8507,542.1782"/>
    <polygon points="608.1506,578.9758 603.7038,576.5633 598.953,574.7171 593.9729,573.4594 588.8347,572.8163 583.61,572.7892 578.3684,573.3905 573.199,574.67 568.2225,576.6748 563.5904,579.4292 559.4692,582.9104 556.0114,587.0342 553.3229,591.6581 551.4421,596.6059 550.3392,601.7012 549.9355,606.7974 550.133,611.793 550.8379,616.6303 551.9689,621.2864 553.507,625.7494 555.4789,629.9872 557.9312,633.9279 560.8941,637.4613 564.3435,640.4671 568.1863,642.8607 572.2816,644.6298 576.4859,645.8399 584.8736,647.0446 593.1946,647.0863 597.3365,646.4677 601.4071,645.3716 605.349,643.7887 609.0948,641.7153 612.5714,639.1612 615.709,636.1563 618.451,632.7496 620.7568,629.0004 622.596,624.9688 623.9393,620.7127 624.756,616.2908 625.0382,611.766 624.8695,607.181 624.2196,602.5676 623.027,597.9841 621.2366,593.519 618.821,589.2826 615.7941,585.388 612.2103,581.9304"/>
    <polygon points="585.4707,612.6358 579.8833,611.0183 574.0544,610.2619 568.1096,610.2505 562.1312,610.9526 556.2203,612.4268 550.5049,614.713 545.1275,617.8136 540.2281,621.6865 535.9279,626.2496 532.3197,631.3924 529.4636,636.9894 527.3894,642.9131 526.1028,649.0431 525.5955,655.2711 525.8748,661.4986 526.9805,667.6161 528.8869,673.5088 531.5531,679.0665 534.9292,684.1814 538.9536,688.7471 543.5461,692.6627 548.6021,695.8449 553.9938,698.244 559.5824,699.855 565.237,700.7179 570.8526,700.9037 576.3584,700.486 581.6947,699.417 586.784,697.7106 591.5673,695.4459 596.0112,692.7039 600.1033,689.5558 603.8418,686.0534 607.2209,682.2252 610.2162,678.0812 612.7767,673.6259 614.8271,668.8751 616.2812,663.8705 617.0614,658.6845 617.1105,653.4158 616.3997,648.1804 614.9679,643.0888 612.8949,638.222 610.2783,633.6199 607.2031,629.2872 603.7158,625.2179 599.8177,621.4293 595.4836,617.987 590.6949,615.007"/>
    <polygon points="591.5689,634.6412 592.684,630.5298 593.171,626.3466 592.9938,622.1934 592.179,618.1854 590.8376,614.4154 589.0633,610.9409 586.946,607.7906 584.5599,604.9735 581.9561,602.4923 579.1685,600.3529 576.2254,598.5657 569.9997,596.0831 563.5587,595.0546 560.3411,595.0663 557.1703,595.4669 551.152,597.3981 545.625,600.4027 537.57,606.3095 534.9014,608.8308 532.3901,611.7643 530.2101,615.1452 528.5464,618.9423 527.5544,623.0583 527.3341,627.3493 527.8909,631.6609 529.1557,635.8671 531.0178,639.8933 533.37,643.714 536.1475,647.322 539.3397,650.6846 542.9665,653.7123 547.035,656.2599 551.5014,658.1582 556.2574,659.2584 561.1415,659.4689 565.9726,658.8034 570.5893,657.3383 574.8666,655.1856 578.7302,652.489 582.1569,649.3925 585.1566,646.0093 587.7414,642.4063 589.8961,638.6115"/>
    <polygon points="554.001,731.0487 558.8616,730.6876 563.5994,729.6803 568.1227,728.0496 572.3304,725.808 576.1042,722.9715 579.3116,719.5815 581.8288,715.7267 583.5764,711.5517 584.5499,707.2382 584.8298,702.9685 584.562,698.8836 583.0506,691.4933 580.7085,685.0233 577.5348,679.3182 575.5313,676.8184 573.2041,674.6634 570.5847,672.9375 567.7619,671.6779 561.9382,670.3929 556.2868,670.1804 550.8366,670.8949 545.7317,672.8056 538.3729,676.94 533.0825,680.6163 530.4154,683.0011 527.9458,685.8641 525.885,689.213 524.4229,692.9766 523.5361,697.0476 523.2476,701.3366 523.6314,705.7343 524.7232,710.1162 526.5202,714.3573 528.9899,718.3397 532.0822,721.9523 535.7331,725.087 539.8618,727.6404 544.3664,729.5225 549.1243,730.6691"/>
    <polygon points="471.5619,769.0167 476.5492,766.6638 481.1903,763.6782 485.3562,760.0636 488.9296,755.8813 491.8414,751.2465 494.0862,746.2979 495.7099,741.1602 496.7769,735.9197 497.3367,730.6226 497.385,725.2929 496.8215,719.9749 495.6005,714.7469 493.6906,709.7104 491.0832,704.9862 487.8063,700.7016 483.9278,696.9745 479.549,693.9009 474.7921,691.5501 469.7886,689.9657 464.6734,689.1677 459.5806,689.1505 454.6385,689.8764 449.9683,691.3398 445.6865,693.4608 441.8503,696.0485 438.4282,698.8869 426.1782,710.4629 423.061,713.7132 420.1055,717.4027 417.5449,721.6001 415.6076,726.2757 414.4573,731.3179 414.1376,736.5801 414.6843,741.9083 416.087,747.1511 418.298,752.1731 421.2505,756.857 424.872,761.0971 429.0859,764.7927 433.8048,767.8485 438.9234,770.1859 444.3198,771.7555 449.866,772.5439 455.4402,772.5691 460.9466,771.9487 466.3365,770.7676"/>
    <polygon points="462.4408,807.1934 463.0989,803.0852 463.2733,794.9941 462.2364,787.0784 461.1746,783.1917 459.624,779.4375 457.5037,775.9502 454.7957,772.8933 451.5671,770.4129 447.9569,768.595 444.1359,767.4487 440.2628,766.9211 436.4577,766.9283 432.7976,767.3809 429.3269,768.2463 426.1129,769.6221 423.2206,771.3992 420.6589,773.4273 414.3151,779.8889 408.7287,786.9079 407.1821,789.6709 405.9824,792.6889 405.2356,795.9158 404.9538,799.2785 405.1373,802.7095 405.7976,806.1408 406.9259,809.5081 408.5003,812.7563 410.4945,815.839 412.8847,818.7135 415.6514,821.3332 418.7761,823.6401 422.2332,825.5631 425.9802,827.0231 429.952,827.9447 434.0636,828.3002 438.246,828.1597 442.4358,827.4907 446.5444,826.2432 450.4497,824.3722 454.0018,821.8637 457.0502,818.7613 459.4845,815.1762 461.2676,811.2661"/>
    <polygon points="467.9917,841.6507 470.9852,837.447 473.4404,832.8786 475.3194,828.0163 476.5864,822.9315 477.2079,817.7006 477.2127,812.4005 476.6527,807.0833 475.4793,801.8097 473.6388,796.6706 471.0957,791.7855 467.8533,787.2883 463.9648,783.3035 459.5286,779.92 454.6686,777.1754 449.5064,775.0568 444.1371,773.5204 438.6194,772.5217 432.9839,772.0531 427.2702,772.2141 421.5538,773.0735 415.9384,774.6833 410.5544,777.0777 405.5482,780.2547 401.0637,784.166 397.2229,788.7182 394.1101,793.7844 391.7658,799.2228 390.1909,804.8951 389.3596,810.6801 389.2351,816.4796 389.8535,822.2068 391.2766,827.7456 393.4319,832.9846 396.2279,837.8391 399.5717,842.2491 403.38,846.1705 407.5818,849.5646 412.1123,852.3931 416.9046,854.6196 421.8846,856.2177 426.9721,857.1777 432.0873,857.5084 437.1576,857.2426 442.14,856.5034 447.0184,855.3117 451.7608,853.6355 456.3094,851.4373 460.5859,848.6959 464.5053,845.4205"/>
    <polygon points="392.3464,768.1517 396.1747,771.3705 400.2751,774.194 404.6784,776.4991 409.3665,778.1155 414.2418,778.8894 419.1399,778.7383 423.8724,777.7264 428.3249,776.1673 432.4594,774.1734 436.261,771.82 439.7351,769.1764 445.8018,763.2233 450.8134,756.4592 452.8833,752.7351 454.6035,748.771 455.924,744.5779 456.7904,740.1817 456.9698,735.649 456.3184,731.1332 454.9038,726.7828 452.8609,722.6906 450.3481,718.8761 444.3351,711.9351 440.8612,708.7805 437.0154,705.9267 432.77,703.5158 428.1547,701.702 423.2586,700.6128 418.2096,700.2854 413.1065,700.5715 408.0255,701.4947 403.0629,703.092 398.3268,705.3699 393.9212,708.2985 389.9372,711.8212 386.4543,715.8683 383.5424,720.362 381.2588,725.2155 379.6401,730.3336 378.6993,735.6184 378.435,740.978 378.994,746.3057 380.4432,751.4386 382.668,756.2356 385.5027,760.6175 388.7723,764.5767"/>
    <polygon points="398.2431,748.5473 401.7723,753.9549 403.9461,756.2964 406.3634,758.3572 411.7536,761.6453 417.691,763.9755 424.1756,765.3533 431.3248,765.8308 435.1115,765.4502 438.872,764.4289 442.3935,762.6625 445.4515,760.1554 447.8748,757.027 449.5922,753.4739 450.6363,749.7072 451.1092,745.8973 451.1344,742.1496 450.1679,734.9827 447.8715,728.3528 444.3357,722.4111 442.0885,719.793 439.5343,717.479 436.7138,715.5044 430.4908,712.5776 423.7407,710.8913 420.2039,710.5123 416.5826,710.5189 412.9224,710.9661 409.2984,711.9154 405.823,713.4254 402.6409,715.5252 399.9019,718.1855 397.7217,721.3088 396.1509,724.7495 395.1724,728.3523 394.7235,731.9873 394.7267,735.5653 395.1114,739.035 395.8437,742.3684"/>
    <polygon points="359.189,728.8044 355.4375,731.1339 352.0913,733.79 349.0918,736.6158 343.7383,742.4554 338.9428,748.772 336.9041,752.3064 335.2715,756.1334 334.1589,760.2147 333.6554,764.4714 333.8562,768.7895 334.7605,773.0395 336.3077,777.1116 338.4044,780.933 340.9545,784.4682 343.8887,787.6982 347.1755,790.5884 350.804,793.0665 354.7503,795.0274 358.952,796.3637 363.3044,796.9995 367.6775,796.9111 371.9463,796.1809 376.0309,794.9282 379.8839,793.2281 383.4843,791.1552 386.8329,788.7731 392.8256,783.2236 397.8724,776.6411 399.9691,772.932 401.7097,768.9399 403.0249,764.6807 403.8298,760.1923 404.0102,755.5471 403.4871,750.8553 402.2218,746.2499 400.2263,741.8666 397.5601,737.8235 394.3088,734.2132 390.5626,731.1127 386.408,728.5978 381.9363,726.7482 377.257,725.6369 372.5014,725.3102 367.8147,725.7707 363.3384,726.9689"/>
    <polygon points="365.2375,684.9464 364.3743,680.0504 362.9858,675.269 361.1027,670.6359 358.7445,666.1793 355.9198,661.9291 352.6313,657.9204 348.8824,654.1914 344.6793,650.7803 340.0293,647.7261 334.9386,645.0765 329.415,642.9004 323.4792,641.2833 317.1558,640.2269 310.4966,639.9033 303.6533,640.5587 296.8929,642.4176 290.572,645.6077 285.0665,650.0995 280.6797,655.6916 277.5692,662.0562 275.7247,668.8243 275.0045,675.6719 275.2028,682.3713 276.1164,688.7991 277.6032,694.9112 279.5942,700.6974 282.067,706.1482 285.0422,711.2265 288.5485,715.8572 292.5849,719.9388 297.0966,723.375 301.9773,726.1084 307.0946,728.1387 312.3244,729.5165 317.576,730.3187 322.7997,730.618 327.9761,730.4483 333.076,729.7186 338.0392,728.4022 342.7957,726.4999 347.2691,724.0244 351.3826,721.0056 355.0647,717.4904 358.2525,713.5396 360.8948,709.2242 362.9549,704.6228 364.4139,699.8179 365.2714,694.8899 365.5416,689.9117"/>
    <polygon points="402.4932,689.9848 398.9459,690.7816 395.4576,692.0952 392.1169,693.9314 388.9998,696.2646 386.1632,699.0508 383.6535,702.2442 381.5247,705.8048 379.8505,709.6913 378.7179,713.8449 378.2264,718.1793 378.519,722.5606 379.5701,726.8385 381.2704,730.9029 383.4782,734.7063 386.0673,738.256 392.1698,744.6803 395.7136,747.4957 399.6291,749.8995 403.9009,751.7279 408.4466,752.8249 413.1243,753.084 417.7723,752.5698 422.2691,751.3816 426.5095,749.56 430.3968,747.1589 433.8411,744.2418 436.76,740.8841 439.0847,737.1775 440.7701,733.2319 441.8044,729.1684 442.2115,725.1076 442.0482,721.1565 441.396,717.3979 440.3661,713.8824 437.7355,707.5395 434.4498,701.9132 432.4403,699.4056 430.1335,697.1928 427.5554,695.3352 424.7786,693.8405 418.9169,691.7002 412.7341,690.2186 409.4422,689.767 406.0144,689.6666"/>
    <polygon points="436.0439,699.2696 436.8992,702.0096 439.6715,707.2008 441.5548,709.5788 446.2396,713.715 449.0118,715.3742 452.0371,716.6752 455.2687,717.549 458.6398,717.9592 462.0967,717.9832 465.5949,717.5867 469.0626,716.7091 472.3962,715.2995 475.4685,713.3389 478.1506,710.8571 480.3399,707.9373 481.9831,704.7008 483.0813,701.2801 483.6783,697.7915 483.6231,690.9166 482.2855,684.395 481.1697,681.3002 479.6996,678.3701 477.828,675.6926 475.5432,673.382 472.8933,671.5449 469.9851,670.242 466.9558,669.4653 461.002,669.1719 455.5221,669.9139 452.9888,670.7428 448.5145,673.2642 444.7773,676.3879 439.9253,681.687 437.2578,685.97 436.293,688.4085 435.6848,691.0109 435.4438,693.7211"/>
    <polygon points="461.5774,673.2984 455.4966,675.1026 449.7332,677.8736 444.5296,681.6286 440.1262,686.2904 436.7085,691.6824 434.3639,697.5571 433.0665,703.6472 432.6967,709.719 433.0849,715.6092 434.063,721.2328 435.5339,726.5627 437.4463,731.5901 439.7866,736.3013 442.5788,740.6526 445.8502,744.5612 449.5919,747.9213 453.7344,750.6428 458.1539,752.6905 462.7068,754.1021 467.2727,754.9751 476.2287,755.57 485.0328,754.9795 489.4206,754.1494 493.7709,752.8777 498.0236,751.1027 502.0982,748.7891 505.9108,745.935 509.3853,742.5665 512.4558,738.7259 515.0624,734.4633 517.1459,729.8337 518.645,724.9002 519.5008,719.7378 519.722,714.4272 519.2916,709.0423 518.157,703.6749 516.2837,698.4372 513.6682,693.452 510.343,688.8383 506.372,684.6989 501.8423,681.1103 496.8518,678.1171 491.4954,675.7336 485.8529,673.956 479.9844,672.7835 473.9387,672.239 467.7729,672.3792"/>
    <polygon points="453.2201,661.1632 446.3859,668.2222 443.0273,672.0374 439.8558,676.2485 437.0839,680.9432 434.9341,686.1154 433.5926,691.6727 433.2414,697.4546 433.9354,703.2563 435.6063,708.8914 438.1322,714.2212 441.3811,719.155 445.2433,723.63 449.6392,727.5852 454.5057,730.9465 459.7734,733.6304 465.3509,735.5634 471.1258,736.7004 476.9762,737.0338 482.7927,736.6719 488.5541,735.8831 494.2721,734.6353 499.9105,732.8247 505.3689,730.3377 510.4979,727.1017 515.1389,723.1193 519.1687,718.4704 522.5245,713.2811 525.1938,707.6816 527.184,701.7786 528.4917,695.6526 529.0873,689.3733 528.815,683.0356 527.5947,676.7898 525.4476,670.7942 522.4429,665.1918 518.6857,660.0952 514.2935,655.5862 509.3752,651.7305 504.0262,648.5977 498.3426,646.2675 492.4389,644.8179 486.4566,644.3009 480.5557,644.7204 474.8963,646.0404 469.6288,648.1976 464.8564,651.0089 460.596,654.245"/>
    <polygon points="299.5458,767.2667 294.3025,769.397 286.6305,774.2127 281.5804,778.8344 279.3114,781.7518 277.4344,785.0958 276.1192,788.8056 275.3528,792.7836 275.13,796.9542 275.5247,801.2242 276.5907,805.476 278.3542,809.5725 280.8024,813.3699 283.8762,816.7392 287.476,819.5871 291.4809,821.8675 295.7733,823.574 300.2553,824.7218 304.8513,825.327 309.5013,825.4066 314.1617,824.998 318.7808,824.0537 323.2684,822.5017 327.4891,820.2812 331.2766,817.3774 334.4657,813.8452 336.9293,809.81 338.6046,805.4451 339.4959,800.9358 339.6596,796.4493 339.1846,792.1178 338.1756,788.034 336.7357,784.2526 334.962,780.7964 330.6738,774.8618 328.1955,772.4052 325.4936,770.3442 322.5977,768.73 319.5803,767.5807 313.5482,766.4621 305.04,766.244"/>
    <polygon points="402.6214,417.5748 407.6422,422.4057 413.169,426.2764 419.1911,429.4177 425.9182,431.734 429.5868,432.4353 433.4437,432.7651 437.4426,432.6194 441.4888,431.8887 445.4362,430.4799 449.1019,428.3498 452.3059,425.5347 454.9193,422.1523 456.8945,418.3694 458.2588,414.3527 459.0815,410.2318 459.4368,406.0875 459.0538,397.8556 457.4801,389.6275 456.0577,385.5597 454.0808,381.6498 451.5079,378.0364 448.372,374.8442 444.7656,372.1469 440.8023,369.9603 436.5794,368.2666 432.164,367.0463 427.6009,366.2997 422.9292,366.0507 418.1985,366.3442 413.482,367.239 408.8923,368.8069 404.5927,371.1121 400.7852,374.1717 397.6697,377.9177 395.3872,382.1889 393.979,386.7632 393.3835,391.4135 393.469,395.9582 394.0797,400.2855 395.0823,404.3496 396.5026,408.1289 398.2888,411.5933"/>
    <polygon points="397.029,406.8906 400.0067,403.6037 402.5076,399.918 404.4489,395.8983 405.7466,391.6289 406.3324,387.22 406.1763,382.8038 405.36,378.5102 404.0064,374.4245 402.1961,370.5989 400.0042,367.0613 397.4871,363.8267 394.6816,360.9089 391.6134,358.327 388.3061,356.1055 384.7874,354.2714 381.0908,352.8534 377.2563,351.8801 373.3324,351.3765 369.3744,351.3586 365.4418,351.8318 361.5942,352.7884 357.8922,354.2191 354.4041,356.1193 351.2115,358.4811 348.4002,361.2753 346.0415,364.4409 344.1748,367.8909 342.8062,371.5313 341.921,375.2785 341.4993,379.0658 341.5229,382.8393 341.971,386.5534 342.8197,390.1704 344.0473,393.6585 345.6389,396.9878 347.5858,400.124 349.8761,403.0304 352.4861,405.6767 358.5321,410.1464 365.5398,413.4836 369.3867,414.6446 373.4364,415.363 377.621,415.4876 381.8359,414.9698 385.9748,413.8128 389.9407,412.0481 393.65,409.7232"/>
    <polygon points="400.963,405.009 408.1903,410.7425 412.243,413.1788 416.6204,415.2054 421.3038,416.694 426.2253,417.5231 431.2788,417.6235 436.3417,416.9649 441.2904,415.5554 446.0145,413.4398 450.4236,410.6832 454.4435,407.3552 458.0048,403.5195 461.0293,399.2345 463.4239,394.5642 465.0871,389.5941 465.9299,384.4426 465.9049,379.259 465.0668,374.2015 463.5938,369.3805 461.5941,364.8549 459.1647,360.6495 456.3765,356.769 453.2695,353.2153 449.8625,349.999 446.1681,347.1399 442.2016,344.6618 437.9833,342.5903 433.537,340.9544 428.8913,339.7889 424.083,339.1342 419.1579,339.0137 414.1714,339.4712 409.2056,340.571 404.3811,342.3792 399.8574,344.9396 395.8111,348.2408 392.3961,352.1967 389.7046,356.6581 387.7553,361.451 386.5123,366.4167 385.9182,371.434 385.9174,376.4174 386.5145,381.3025 387.7925,385.9986 389.6644,390.419 392.0131,394.5194 394.727,398.298"/>
    <polygon points="331.8829,381.421 337.3044,384.39 342.9833,386.7482 348.8805,388.4223 354.9269,389.3419 361.0261,389.4622 367.0977,388.9817 373.1278,387.9756 379.0662,386.3338 384.7842,383.918 390.0724,380.6198 394.6807,376.4242 398.3912,371.4455 401.0905,365.9093 402.7994,360.0865 403.6489,354.217 403.8222,348.4591 403.4955,342.8801 402.7994,337.4748 400.4848,327.0011 398.7751,321.8715 396.5494,316.861 393.6997,312.0866 390.1847,307.6923 386.0497,303.7909 381.3995,300.4214 376.3427,297.5512 370.9461,295.1193 365.2228,293.0907 359.1547,291.4935 352.7303,290.4287 345.9848,290.0636 339.0331,290.6051 332.0861,292.2522 325.4352,295.1366 319.4019,299.2679 314.2645,304.5145 310.1963,310.6324 307.2447,317.3315 305.3578,324.3432 304.4367,331.4607 304.3795,338.5428 305.1814,345.4908 307.0202,352.1613 309.7822,358.3997 313.2919,364.1094 317.3737,369.255 321.8858,373.844 326.7371,377.8973"/>
    <polygon points="439.5582,279.753 437.4735,283.9178 436.0127,288.3096 435.1532,292.8186 434.8589,297.357 435.0902,301.8583 435.788,306.2769 436.9449,310.577 438.5837,314.7068 440.7338,318.5873 443.4073,322.1141 446.5764,325.1757 450.163,327.6821 454.0499,329.5914 458.108,330.9192 462.2266,331.727 470.3958,332.0967 474.403,331.7092 478.3182,330.8669 482.0932,329.5779 485.6722,327.844 488.9857,325.6656 491.9533,323.0578 494.5001,320.0648 496.5779,316.7632 498.1797,313.2469 499.3362,309.6039 500.097,305.8979 500.5949,298.4101 500.3234,294.6497 499.6717,290.9036 498.6155,287.2052 497.1303,283.6018 495.2011,280.1524 492.8301,276.9204 490.0374,273.9653 486.8553,271.3397 483.3216,269.0941 479.4781,267.2838 475.3756,265.9707 471.0807,265.2163 466.6701,265.0113 462.2024,265.3208 457.7471,266.1982 453.4014,267.6928 449.2864,269.8307 445.5327,272.5992 442.2603,275.9396"/>
    <polygon points="487.2186,390.8732 487.7378,384.5052 487.4307,378.0913 486.1846,371.7726 484.0664,365.6823 481.183,359.913 477.6521,354.5096 473.5664,349.4858 468.9708,344.8597 463.8656,340.6963 458.2395,337.1306 452.1179,334.3576 445.5995,332.588 438.8655,331.9868 432.1469,332.5445 425.6163,334.0066 419.3895,336.2936 413.5645,339.3327 408.2296,343.0544 403.472,347.3921 399.3787,352.2722 396.026,357.6017 393.4642,363.2656 391.7058,369.1363 390.7251,375.0893 390.4691,381.019 390.8752,386.846 391.9073,392.5112 393.5297,397.964 395.7141,403.1572 398.4538,408.0323 401.7493,412.5089 405.5787,416.4943 409.8756,419.9142 414.5355,422.7446 419.4471,425.0198 424.5296,426.8087 429.7483,428.1754 435.1064,429.1473 440.6226,429.7278 446.3248,429.9138 452.2076,429.5669 458.1854,428.4994 464.0769,426.5274 469.6268,423.5364 474.5695,419.5375 478.7102,414.675 481.9765,409.1767 484.4131,403.2746 486.1263,397.1418"/>
    <polygon points="623.8473,454.2935 622.7611,451.6355 621.3686,449.2023 617.9196,445.0712 615.9504,443.383 611.6569,440.7936 607.0644,439.2849 602.3919,438.8047 600.078,438.9288 595.6319,440.038 593.5604,440.9762 589.8158,443.4929 586.7077,446.7558 584.3605,450.6465 582.951,455.0383 582.6769,457.3601 582.9423,462.0864 584.2533,466.7674 586.5668,471.273 589.8626,475.545 594.3089,479.2677 596.9907,480.6857 599.9259,481.6523 603.0258,482.0996 606.2036,482.0885 609.3826,481.6013 612.4754,480.6214 615.3883,479.1537 618.0278,477.2267 620.3086,474.8929 622.1612,472.226 623.5415,469.3173 624.4372,466.2668 624.8706,463.1708 624.8901,460.109 624.5557,457.1363"/>
  </g>
</svg>
