<?xml version="1.0" encoding="utf-8" ?>
<svg xmlns="http://www.w3.org/2000/svg" xmlns:cc="http://creativecommons.org/ns#" xmlns:dc="http://purl.org/dc/elements/1.1/" xmlns:ev="http://www.w3.org/2001/xml-events" xmlns:inkscape="http://www.inkscape.org/namespaces/inkscape" xmlns:rdf="http://www.w3.org/1999/02/22-rdf-syntax-ns#" xmlns:sodipodi="http://sodipodi.sourceforge.net/DTD/sodipodi-0.dtd" xmlns:xlink="http://www.w3.org/1999/xlink" baseProfile="tiny" height="29.7cm" version="1.2" viewBox="0 0 793.7007874015749 1122.5196850393702" width="21.0cm">
  <metadata>
    <rdf:RDF>
      <cc:Work>
        <dc:format>image/svg+xml</dc:format>
        <dc:source/>
        <dc:date>2022-03-21T21:50:23.391681</dc:date>
      </cc:Work>
    </rdf:RDF>
  </metadata>
  <defs/>
  <g fill="none" id="layer1" inkscape:groupmode="layer" inkscape:label="1" stroke="#00f" style="display:inline">
    <polyline points="654.8083,1054.0277 723.3183,1049.3688 716.422,975.1684"/>
    <polyline points="707.417,986.4991 712.4459,1040.6083 658.6297,1044.2679"/>
    <polyline points="663.5278,1031.7584 663.632,1034.4279 701.5735,1031.8478 698.4119,997.8298"/>
    <polyline points="689.4068,1009.1605 690.7011,1023.0872 671.7304,1024.3773 671.2488,1012.0394"/>
    <line x1="673.3246" x2="677.7169" y1="1006.738" y2="1005.7184"/>
    <polyline points="674.5689,1003.5601 649.8967,1066.5716 606.6158,1050.7533"/>
    <polyline points="609.4115,1042.9054 645.5753,1056.1226 667.9365,999.0131"/>
    <polyline points="660.1408,993.6684 687.0545,1012.1202 733.7624,953.3499 712.9624,936.4008"/>
    <polyline points="709.9563,944.2647 722.9757,954.8736 685.6094,1001.8899 663.173,986.5077"/>
    <polyline points="662.3168,976.6812 684.1642,991.6596 712.1889,956.3974 706.9502,952.1286"/>
    <polyline points="701.3628,957.9708 682.7191,981.4293 661.4606,966.8547"/>
    <line x1="660.8188" x2="668.74" y1="959.4885" y2="948.4865"/>
    <polyline points="677.0404,950.8997 668.6544,962.5472 681.2739,971.199 690.6155,959.4449 681.8417,952.2955"/>
    <line x1="660.4396" x2="659.7351" y1="946.0734" y2="947.0518"/>
    <polyline points="659.6294,945.8379 663.7887,993.5739 609.6115,994.9788"/>
    <polyline points="615.8315,994.8175 595.5885,1051.6431 555.042,1038.1785"/>
    <polyline points="548.1104,1046.2302 601.8678,1064.0819 626.6418,994.5372"/>
    <polyline points="626.5248,994.8656 648.3662,1006.0237 636.9325,1035.2247 615.0028,1027.2098"/>
    <polyline points="617.7984,1019.3619 632.6111,1024.7757 638.328,1010.1752 623.728,1002.7165"/>
    <polyline points="643.2058,994.1076 658.4044,1001.8721 641.2539,1045.6737 612.2071,1035.0576"/>
    <polyline points="597.3496,1016.6338 589.3092,1039.2043 561.9736,1030.1267"/>
    <polyline points="568.9052,1022.075 583.03,1026.7655 588.034,1012.7185"/>
    <polyline points="579.9023,1009.3008 532.0459,1064.8907 502.0823,1042.4144"/>
    <polyline points="505.3472,1035.776 530.679,1054.7779 570.8082,1008.1639 563.3885,1002.3601"/>
    <polyline points="561.1806,1001.4321 600.9229,1018.1356 626.471,950.0452"/>
    <polyline points="617.0814,945.3008 647.949,960.8975 678.9595,894.2148"/>
    <polyline points="678.3826,895.4552 693.3382,901.137 685.9669,920.4201 669.0588,915.5045"/>
    <polyline points="664.5424,925.2164 692.1051,933.2295 706.8477,894.6634 702.7502,893.1067"/>
    <polyline points="718.7627,892.3608 698.2433,946.0389 660.0259,934.9282"/>
    <polyline points="655.5095,944.6401 704.3815,958.8484 733.8667,881.7161 721.9474,877.1878"/>
    <polyline points="705.9577,850.9001 708.9505,879.5106 667.3418,881.4487"/>
    <polyline points="667.6035,894.7438 643.0342,947.5758 616.5424,934.1901"/>
    <polyline points="616.0033,923.0793 638.1194,934.2541 655.1116,897.7152 649.5882,895.5829"/>
    <line x1="643.5063" x2="641.3319" y1="893.2351" y2="892.3957"/>
    <polyline points="643.4189,892.2797 643.746,895.855 723.5114,892.1396 715.6684,817.1638"/>
    <polyline points="693.6814,792.0874 695.2711,792.5507 688.8927,817.6697 667.0679,811.1022"/>
    <polyline points="665.8969,824.7975 697.9566,834.4448 710.7135,784.2069 700.5412,781.2418"/>
    <polyline points="707.401,770.3962 726.1559,775.863 707.0206,851.22 664.726,838.4928"/>
    <polyline points="667.6321,839.3672 667.2762,890.9541 589.6804,895.2657 588.9918,886.1293"/>
    <polyline points="578.8009,894.4544 588.9802,895.15 590.2264,920.8364 576.7284,920.428"/>
    <polyline points="578.7323,933.3066 603.7021,934.0621 601.7872,894.593"/>
    <polyline points="614.5993,894.1392 614.7295,893.8738 617.1778,947.2879 549.65,945.2447"/>
    <polyline points="547.7356,946.0305 542.6174,985.6844 511.0813,979.0975"/>
    <polyline points="509.6184,989.3321 551.3202,998.0423 558.102,945.5004"/>
    <polyline points="568.3598,945.8108 560.0231,1010.4002 508.1554,999.5667"/>
    <polyline points="512.1858,1000.4085 487.1071,1051.4 459.1247,1035.2782"/>
    <polyline points="467.3202,1030.2222 482.629,1039.0423 498.4839,1006.805"/>
    <polyline points="515.142,1015.8607 526.5785,1024.4395 536.6108,1012.786 523.9206,1002.8595"/>
    <line x1="523.5345" x2="515.9786" y1="1002.7789" y2="1014.1597"/>
    <polyline points="511.8771,1022.4991 527.9454,1034.5523 548.01,1011.2453 542.1596,1006.6691"/>
    <polyline points="558.9951,1010.1855 529.3122,1044.6651 508.6122,1029.1376"/>
    <polyline points="481.096,1020.6962 486.5179,1009.6719 469.4031,1002.5445 468.4921,1004.8496"/>
    <polyline points="464.271,999.5425 481.6442,1021.3853 416.5319,1061.555 404.1793,1046.2998"/>
    <polyline points="407.496,1036.8591 417.9323,1049.7479 466.7665,1019.6207 448.0599,996.1013"/>
    <polyline points="447.1143,995.9006 506.8664,1008.5844 513.8178,959.9535"/>
    <polyline points="515.7288,959.1691 513.6685,969.0978 533.9145,973.3266 536.5393,952.9914 532.3169,952.3598"/>
    <polyline points="503.1945,964.3144 498.568,996.6805 451.9061,986.7754"/>
    <polyline points="456.6979,977.6502 490.2696,984.7765 494.6092,954.4172"/>
    <polyline points="493.9955,952.9052 499.2785,965.9218 580.9461,932.3978 566.6309,891.7715"/>
    <line x1="567.2993" x2="568.1126" y1="893.6685" y2="893.7241"/>
    <polyline points="557.6086,892.8435 569.7992,927.4404 504.4652,954.2596 499.9098,943.0358"/>
    <polyline points="505.8241,933.1663 509.6518,942.5974 558.6524,922.483 547.9669,892.1578"/>
    <polyline points="538.3252,891.4721 547.5055,917.5255 514.8384,930.9351 511.7383,923.2968"/>
    <polyline points="517.6526,913.4273 520.0251,919.2729 536.3586,912.5681 530.4564,895.8178 527.5649,896.886"/>
    <polyline points="531.1164,890.9594 489.4779,960.4441 452.0928,940.3146"/>
    <polyline points="449.5869,946.8411 456.7818,949.9892 433.0036,995.271 405.73,978.2992"/>
    <polyline points="401.8739,989.6688 438.4386,1012.4222 470.9669,950.4771"/>
    <polyline points="484.1572,957.5793 481.9711,972.8726 462.5197,968.7436 462.919,965.8032"/>
    <polyline points="424.0452,948.7353 439.4578,955.4789 427.5686,978.1198 409.586,966.9296"/>
    <line x1="415.5266" x2="416.921" y1="949.4136" y2="946.6088"/>
    <polyline points="416.5186,946.4887 396.3271,1006.0235 337.2905,992.087"/>
    <polyline points="335.8284,992.3963 360.2289,1003.465 329.297,1053.1481 303.2566,1037.1513"/>
    <polyline points="302.1869,1047.3375 332.7107,1066.0886 373.4662,1000.6268"/>
    <polyline points="395.9514,1005.9348 384.2157,1039.3402 354.9577,1030.3553"/>
    <polyline points="344.0705,1047.8425 397.8368,1064.3538 420.0918,1001.0054"/>
    <line x1="421.4919" x2="418.9189" y1="1001.8767" y2="1004.3439"/>
    <polyline points="429.8343,1007.0679 437.0113,1016.0914 420.7332,1026.1338 414.1292,1017.9779"/>
    <polyline points="410.8126,1027.4185 419.3328,1037.9408 451.8889,1017.856 442.0687,1005.5093"/>
    <polyline points="450.9293,1040.3342 491.5852,1063.7578 521.7584,1002.4079"/>
    <polyline points="562.6194,990.285 594.8799,1003.8439 616.1122,947.2556"/>
    <polyline points="596.4166,946.6597 603.863,949.5047 588.8368,989.5521 564.0582,979.1378"/>
    <polyline points="565.497,967.9907 582.7938,975.2604 590.3068,955.2367 571.2481,947.955 566.7947,957.9365"/>
    <polyline points="615.9629,978.0512 646.0392,977.2713 644.4589,959.134"/>
    <polygon points="623.934,895.8043 615.8918,912.1846 633.2046,920.9324 641.7007,902.6629"/>
    <polyline points="608.6327,870.0844 608.9851,874.7591 647.783,872.6033 647.988,842.8812"/>
    <line x1="667.6164" x2="674.2444" y1="841.6338" y2="841.357"/>
    <polyline points="692.2876,846.7865 694.3896,866.8816 667.8011,868.1201 667.4595,864.3851"/>
    <polyline points="623.9953,819.9249 646.2243,823.0101 648.9417,791.2276"/>
    <polyline points="657.9928,778.7861 686.6683,803.1754 725.403,741.9342 714.8018,734.3869"/>
    <polyline points="713.7065,743.1191 714.0095,743.3348 684.9584,789.2657 661.4983,769.3123"/>
    <polyline points="665.0039,759.8384 683.2485,775.356 702.6159,744.7353 697.475,741.0754"/>
    <polyline points="680.1902,738.2819 691.2223,746.1359 681.5386,761.4462 668.5094,750.3646"/>
    <line x1="670.1914" x2="677.7962" y1="745.8191" y2="737.8949"/>
    <polyline points="673.3872,737.1824 653.0308,792.1959 613.1063,782.7425"/>
    <polyline points="617.2349,783.7201 635.4341,813.4806 565.6152,852.8147 556.7194,840.5643"/>
    <polyline points="560.727,846.0831 560.0593,893.0178 509.078,889.3921"/>
    <polyline points="501.1565,898.1005 502.5892,898.9603 481.5753,934.0274 459.1442,921.9496"/>
    <polyline points="453.5613,899.5796 438.2499,939.4574 410.3916,931.1417"/>
    <polyline points="423.8409,921.6383 430.1918,923.534 439.7235,898.7092 437.258,897.8747"/>
    <polyline points="461.0089,892.0258 507.7677,899.1009 514.8208,846.8397"/>
    <polyline points="513.8724,853.8672 512.7427,865.4614 536.8276,867.1743 537.082,843.5055"/>
    <polyline points="548.9893,841.7221 548.4434,880.0961 510.6949,877.4114"/>
    <polyline points="506.6256,848.0671 500.9487,890.1312 461.7564,884.201"/>
    <polyline points="462.5038,876.3762 494.1297,881.1616 498.4304,849.2946"/>
    <polyline points="496.3195,849.6108 572.759,838.1619 563.5577,780.5028"/>
    <line x1="564.0281" x2="567.8664" y1="783.4506" y2="780.7874"/>
    <polyline points="560.5032,780.301 613.1912,783.782 610.0313,745.1245"/>
    <polyline points="616.5913,751.921 616.0229,754.3323 634.475,758.7014 641.2664,740.3475 636.5231,738.8831"/>
    <polyline points="645.9117,732.7418 713.6352,743.6872 723.5392,664.7299"/>
    <polyline points="710.5354,671.2061 712.6526,671.7651 705.1836,731.31 659.4101,723.9122"/>
    <polyline points="653.9184,734.0359 640.6603,769.8662 611.4891,762.959"/>
    <polyline points="612.2977,772.8508 646.8455,781.031 663.6528,735.6091"/>
    <polyline points="672.9085,715.0825 696.732,718.9328 701.7113,679.2362 696.9407,677.9766"/>
    <polyline points="683.3459,684.7471 690.77,686.7074 688.2804,706.5557 684.3481,705.9201"/>
    <polyline points="674.0304,689.3864 685.0924,707.1127 614.8877,753.0354 600.1426,729.0161"/>
    <polyline points="605.6079,721.7813 617.5681,741.264 673.7318,704.5259 666.595,693.0894"/>
    <polyline points="650.4329,682.8082 662.3713,701.939 620.2485,729.4926 611.0733,714.5465"/>
    <polyline points="616.5386,707.3117 622.9289,717.7212 651.0108,699.3522 646.4187,691.9936"/>
    <polyline points="635.7804,690.5641 639.6503,696.7653 625.6093,705.9499 622.004,700.0769"/>
    <polyline points="631.0517,688.0999 584.1121,750.2367 554.1439,728.2197"/>
    <polyline points="560.6718,733.0156 560.4844,785.5764 488.2887,782.3517"/>
    <polyline points="486.8487,783.5446 501.1631,791.7898 483.0643,829.2511 464.5878,821.1919"/>
    <polyline points="457.2662,842.2583 452.6034,891.0713 397.0255,885.2595"/>
    <polyline points="398.0929,893.7792 411.7329,920.4881 359.6784,942.4837 350.6116,927.8552"/>
    <polyline points="357.9126,922.1395 363.3171,930.8594 398.0202,916.1956 385.9223,892.5066"/>
    <polyline points="385.555,892.4681 460.2209,900.276 465.423,845.8162"/>
    <polyline points="465.9154,846.031 464.9645,860.8728 480.4917,863.2223 481.8724,852.9913"/>
    <polyline points="489.4556,856.299 487.3107,872.1919 463.2513,868.5515"/>
    <polyline points="470.1052,893.4021 446.308,955.3808 391.6439,939.0635"/>
    <polyline points="382.3569,942.9878 396.0276,946.443 383.4609,983.4961 363.2471,978.7243"/>
    <polyline points="355.282,952.8858 365.525,986.1139 297.6831,1000.466 295.2115,992.7091 290.1357,1041.0416 242.9469,1042.2068"/>
    <polyline points="260.9112,1028.1265 278.8262,1027.6841 281.4696,1002.5129 268.7846,1000.6625"/>
    <polyline points="259.9318,1003.3268 272.3678,1019.147 211.4866,1066.8652 192.2482,1045.5373"/>
    <polyline points="199.6414,1034.561 212.9836,1049.3524 253.5711,1017.5402 245.7526,1007.5942"/>
    <polyline points="240.3666,1000.7424 242.8831,1008.4578 316.4083,986.3297 304.5079,944.0574 242.7921,948.9751 246.4545,950.9558 224.4898,986.8777 197.388,972.5134"/>
    <polyline points="193.2451,981.0164 228.7459,999.8323 260.7161,947.5469"/>
    <polyline points="273.517,946.5269 233.002,1012.7868 189.1023,989.5194"/>
    <polyline points="186.9973,993.8397 205.1478,1008.2611 171.0727,1058.8512 149.0624,1044.1023"/>
    <polyline points="141.8104,1052.6026 173.284,1073.6927 218.7176,1006.2393 214.8489,1003.1654"/>
    <polyline points="231.8,1012.1497 234.7744,1015.9335 214.4806,1031.8395 207.0345,1023.5847"/>
    <polyline points="182.5,1003.07 191.5781,1010.283 168.8613,1044.0097 149.862,1031.2784"/>
    <polyline points="150.6616,1018.4546 166.65,1029.1682 178.0084,1012.3049 162.2747,999.8037 150.9806,1013.3386"/>
    <line x1="152.134" x2="153.3489" y1="994.8402" y2="993.3843"/>
    <polyline points="152.2545,992.9069 148.5384,1052.5063 70.806,1053.619 68.685,966.9599 77.6786,967.9896"/>
    <polyline points="88.9703,983.384 83.4232,982.7489 84.8372,1040.5216 136.6588,1039.7797 139.8122,989.2051 133.2195,988.4502"/>
    <polyline points="136.4399,986.0077 181.282,1005.5701 211.6762,943.1879"/>
    <polyline points="225.3017,948.0957 225.3952,950.3614 230.4694,949.9571"/>
    <polyline points="248.5317,928.8206 286.0123,925.834 287.6478,887.1787 285.7837,887.0876"/>
    <polyline points="289.3346,884.0683 294.9432,905.8526 364.714,875.5885 344.1468,831.3091"/>
    <line x1="344.3652" x2="347.8002" y1="831.7792" y2="829.4972"/>
    <polyline points="346.308,828.2751 377.4658,853.7929 428.2993,793.3991 424.5613,790.5669"/>
    <polyline points="427.3952,794.4732 433.6735,802.6984 420.3059,812.5876 416.7563,807.113"/>
    <polyline points="411.4413,813.4275 418.4781,824.2806 445.2133,804.5023 431.2046,786.1494"/>
    <polyline points="437.9459,781.6667 456.7532,806.3061 416.6503,835.9736 406.1264,819.7421"/>
    <polyline points="400.8114,826.0567 414.8225,847.6666 468.293,808.11 444.6872,777.1841"/>
    <polyline points="449.5984,773.9184 467.7163,799.3949 523.4164,753.2501 509.4878,737.8023"/>
    <polyline points="502.0152,739.4058 513.4677,752.1074 468.9075,789.0232 455.415,770.0506"/>
    <polyline points="461.2316,766.1829 470.0988,778.6515 503.5189,750.9647 493.2788,739.6076"/>
    <polyline points="495.9026,736.139 497.1408,740.4518 574.2237,723.9108 562.735,679.6831"/>
    <polyline points="556.6744,673.3098 577.2048,694.8995 627.7295,640.3924 614.0473,627.9543"/>
    <line x1="618.8859" x2="618.7842" y1="632.0995" y2="632.2605"/>
    <polyline points="605.6231,631.989 614.9848,640.4994 577.0913,681.3798 568.1077,671.9327"/>
    <line x1="569.3084" x2="565.753" y1="686.5957" y2="691.3015"/>
    <polyline points="568.1478,700.5206 578.5911,708.193 590.5465,692.3669 584.3269,687.216"/>
    <polyline points="591.2682,679.7277 604.3423,690.5553 580.4314,722.2076 572.2129,716.1696"/>
    <polyline points="567.4831,725.3572 582.2717,736.2222 618.1381,688.7437 598.2094,672.2393"/>
    <polyline points="598.9929,671.3941 644.9542,695.3446 675.0252,626.5364 657.5247,616.9921"/>
    <line x1="659.8559" x2="661.7204" y1="613.9895" y2="619.2803"/>
    <polyline points="669.7198,623.643 719.0672,603.531 703.5958,569.4225"/>
    <polyline points="693.2561,570.1064 705.9877,598.1748 669.3224,613.1181 666.5784,605.3312"/>
    <polyline points="673.3008,596.6728 674.5756,600.2903 692.9082,592.8186 684.8818,575.1233 680.6652,577.0842"/>
    <polyline points="673.2518,571.4294 714.4984,568.7014 713.2471,500.6158 707.6849,500.2993"/>
    <polyline points="699.5027,511.6304 702.1077,511.7787 702.9419,557.1691 658.4172,560.1139"/>
    <line x1="653.6455" x2="653.6545" y1="556.4741" y2="556.0916"/>
    <polyline points="653.439,556.3165 685.5918,580.8422 635.0462,645.9439 608.0889,622.8499"/>
    <polyline points="610.3985,614.2898 633.6949,634.2476 674.1314,582.1663 647.8663,562.1316"/>
    <polyline points="642.2936,567.9467 662.671,583.4903 632.3436,622.5513 612.7081,605.7297"/>
    <polyline points="615.0177,597.1697 630.9923,610.855 651.2106,584.8143 636.7209,573.7618"/>
    <polyline points="631.1482,579.577 639.7501,586.1384 629.641,599.1587 617.45,588.7148 625.3806,578.5234"/>
    <polyline points="621.0651,574.756 629.0707,581.7449 675.4662,533.3311 656.2284,512.9196"/>
    <polyline points="659.2919,509.4144 684.3506,532.6137 724.6243,476.841 706.0106,462.0283"/>
    <polyline points="698.7491,464.1603 715.6652,477.6221 683.4463,522.2402 663.8987,504.1432"/>
    <polyline points="668.5056,498.872 682.5419,511.8668 706.7061,478.4031 691.4875,466.2923"/>
    <polyline points="684.226,468.4243 697.7469,479.1842 681.6375,501.4933 673.1125,493.6009"/>
    <polyline points="677.7193,488.3297 680.7331,491.1198 688.7878,479.9653 686.5712,478.2013"/>
    <polyline points="680.1629,469.6173 728.5154,455.4209 718.38,413.8801"/>
    <polyline points="708.361,415.6948 716.3437,448.4127 670.522,461.8661"/>
    <polyline points="658.0117,451.8078 688.3328,476.1858 632.772,539.7585 614.8219,524.1387"/>
    <line x1="620.3748" x2="618.9505" y1="528.9707" y2="530.4127"/>
    <polyline points="628.9192,545.5614 640.0839,533.9111 638.9417,532.6992"/>
    <polyline points="644.7039,526.106 651.878,533.7177 628.6802,557.9246 622.1383,552.2136"/>
    <line x1="614.3036" x2="622.2698" y1="557.1135" y2="564.068"/>
    <polyline points="623.6287,565.2544 628.8754,569.8348 663.6721,533.5244 650.4662,519.5128"/>
    <polyline points="667.2223,524.5842 667.2924,521.5943 672.7857,521.9069"/>
    <polyline points="690.9773,523.4368 691.3853,545.6367 666.6907,547.27 666.8056,542.3684"/>
    <polyline points="713.9356,568.7387 732.1467,608.8872 672.0309,633.388"/>
    <polyline points="671.15,635.4038 684.0094,629.0326 693.2213,645.5702 674.91,654.6897 669.3773,639.46"/>
    <polyline points="663.9399,651.9017 669.9912,668.5589 706.6139,650.3199 692.5288,625.0339"/>
    <polyline points="701.2872,621.4643 720.0065,655.0697 665.0724,682.4281 658.5025,664.3435"/>
    <polyline points="653.0652,676.7852 660.1536,696.2973 733.3991,659.8194 710.0457,617.8947"/>
    <polyline points="650.2934,626.3058 659.4467,631.2978 639.3994,677.1699 608.5434,661.0908"/>
    <polyline points="618.0939,650.7875 633.8446,658.9952 643.8682,636.0591 643.0622,635.6195"/>
    <polyline points="601.6646,641.2273 576.9778,667.86 564.296,654.5238"/>
    <line x1="559.1829" x2="564.5366" y1="633.7191" y2="628.6446"/>
    <polyline points="557.336,626.2043 568.561,671.8781 496.765,680.5256 495.9565,672.5422"/>
    <line x1="495.7962" x2="495.9857" y1="672.6918" y2="672.8313"/>
    <polyline points="503.3723,665.6191 503.8767,670.5993 557.7237,664.1137 550.0029,632.6981"/>
    <polyline points="553.5157,624.9096 603.0077,641.6825 623.7819,564.6867 610.7321,559.3472"/>
    <polyline points="600.5784,565.6974 612.0241,570.3807 596.4435,628.1274 557.9485,615.0815"/>
    <polyline points="562.3812,605.2533 589.8792,614.5724 600.2663,576.0746 590.4247,572.0477"/>
    <polyline points="580.271,578.398 588.5085,581.7685 583.315,601.0174 566.8139,595.4252"/>
    <polyline points="572.2238,583.4308 545.1349,643.4912 497.7274,620.1566"/>
    <polyline points="493.018,623.5449 508.4985,643.3253 470.9729,678.3574 459.0457,665.9102"/>
    <polyline points="447.466,674.003 469.623,697.1259 525.9114,644.5777 512.4831,627.4196"/>
    <line x1="517.8509" x2="523.983" y1="634.2782" y2="633.08"/>
    <polyline points="533.3746,637.7026 536.049,648.5849 519.4815,650.5803"/>
    <polyline points="510.7881,658.6961 510.9883,660.673 546.8864,656.3493 543.5325,642.7024"/>
    <polyline points="573.7665,631.7726 564.1088,640.9266 576.8642,654.3402 589.4954,640.7134 583.1634,634.9572"/>
    <polyline points="550.9368,674.0008 561.9707,716.4777 504.1585,728.8834 503.3972,726.2316"/>
    <polyline points="510.8918,716.3242 511.1763,717.3151 549.7177,709.0446 540.9278,675.2064"/>
    <polyline points="527.4004,683.3666 532.4391,682.2646 537.4647,701.6116 519.0287,705.5677"/>
    <polyline points="519.7762,677.754 532.8103,687.3492 480.8207,756.0764 447.6835,727.7601"/>
    <polyline points="446.8154,728.848 464.8784,754.829 415.2607,787.8224 406.0587,775.2109"/>
    <polyline points="412.7994,772.0228 416.9789,777.7509 454.1922,753.0059 441.7821,735.1557"/>
    <polyline points="436.7488,741.4634 443.506,751.1828 431.1138,759.423"/>
    <polyline points="427.378,752.9782 432.8199,749.3596 431.7154,747.7711"/>
    <polyline points="420.6944,741.4485 432.9053,762.5135 358.5411,797.6849 348.1104,783.1548"/>
    <polyline points="360.2524,766.5992 364.5679,772.6107 401.75,755.025 394.9623,743.3157"/>
    <polyline points="401.7709,728.2036 431.0031,748.6637 479.4465,687.9551"/>
    <polyline points="480.7145,686.7714 488.4571,692.4712 475.4597,709.653 467.5356,702.8817"/>
    <polyline points="460.9183,711.1745 477.2467,725.1274 503.2415,690.7638 488.2554,679.7316"/>
    <polyline points="505.0775,679.5244 518.0259,689.0565 479.0337,740.6019 454.3009,719.4673"/>
    <polyline points="466.8854,744.1684 475.5646,756.6521 413.5425,797.8938 399.318,778.399"/>
    <line x1="394.5676" x2="408.857" y1="780.6457" y2="791.4724"/>
    <polyline points="412.6717,796.7004 375.748,840.5683 351.6245,820.8115"/>
    <polyline points="356.9411,813.348 374.0303,827.3437 399.447,797.1468 384.1631,785.5666"/>
    <polyline points="373.7586,790.4876 385.0208,799.0207 372.3125,814.1191 362.2577,805.8844"/>
    <polyline points="368.413,793.0158 370.3225,794.5627 325.9646,856.8338 292.3517,831.9633"/>
    <polyline points="285.0419,834.2019 304.2559,855.2585 266.6128,887.266 252.4104,873.4294"/>
    <polyline points="248.7492,886.8095 266.1608,903.7726 322.6255,855.7615 318.6978,851.4571"/>
    <polyline points="329.7211,851.5603 334.2751,861.3646 311.0182,871.4526 309.7885,866.6766"/>
    <polyline points="299.5616,875.3724 302.9807,888.6526 349.4945,868.4765 336.934,841.4347"/>
    <line x1="347.9057" x2="354.5247" y1="839.4017" y2="835.0045"/>
    <line x1="361.2493" x2="351.4463" y1="840.5118" y2="847.0243"/>
    <polyline points="367.9738,846.019 359.0912,851.9201 368.3817,865.1668 382.052,856.5757 379.0109,851.9572"/>
    <polyline points="384.5811,845.3394 393.5093,858.8988 366.1687,876.0811 362.5386,870.9052"/>
    <polyline points="357.9986,878.5014 363.9557,886.9953 404.9666,861.2219 390.1513,838.7217"/>
    <polyline points="395.4964,832.3713 412.9947,859.3596 479.8328,809.9139 470.2203,797.3204"/>
    <polyline points="467.0482,762.3151 471.2901,768.2799 493.5702,749.8219 489.21,744.9862"/>
    <line x1="477.8041" x2="474.9919" y1="753.4986" y2="755.8284"/>
    <line x1="467.1034" x2="467.1034" y1="744.4085" y2="744.4085"/>
    <polyline points="509.1704,765.0522 542.848,766.5565 542.9746,731.0658 541.5283,730.9268"/>
    <polyline points="561.2073,733.409 560.96,763.4122 594.971,765.6593 592.7731,738.7715"/>
    <polyline points="590.8779,782.3078 606.0924,807.1876 571.183,826.8546 570.8902,826.4515"/>
    <polyline points="572.6443,837.4431 620.7633,810.3341 604.1613,783.1854"/>
    <polyline points="622.3329,792.0567 638.9409,792.2569 637.257,811.9523 634.2438,811.5341"/>
    <polyline points="610.0196,827.7984 655.1916,834.0678 659.7876,780.3126"/>
    <polyline points="669.0283,788.1721 664.1589,845.1255 596.0439,835.672"/>
    <polyline points="603.3715,836.689 622.7826,858.5252 572.5449,899.565 560.1976,883.2937"/>
    <polyline points="560.5527,858.3343 574.6478,876.9088 599.7667,856.3889 586.2536,841.1876"/>
    <polyline points="570.8646,838.4457 568.3991,839.8347 567.7312,838.915"/>
    <line x1="561.6962" x2="560.6958" y1="847.4178" y2="848.2789"/>
    <polyline points="567.4514,804.9022 573.9668,813.8746 591.4216,804.0411 580.0605,785.4626 565.9153,795.2767"/>
    <polyline points="543.4458,784.8154 548.9853,819.5282 507.8788,825.685"/>
    <polyline points="527.9585,784.1236 492.4559,857.6077 443.9581,836.4534"/>
    <polyline points="440.543,838.9798 437.3686,872.6619 419.9664,870.8422"/>
    <polyline points="426.0381,863.069 429.7511,863.4573 431.3597,846.6175 430.3043,846.5542"/>
    <polyline points="420.1233,854.086 427.8812,865.8681 359.5297,908.8238 342.8667,885.0651"/>
    <polyline points="335.8899,888.0914 354.3956,909.91 317.0013,939.1846 305.2876,925.6311"/>
    <polyline points="304.6029,941.8143 315.9741,954.9715 372.0655,911.0598 366.4698,904.4623"/>
    <polyline points="365.2136,916.4239 366.9559,919.235 384.3074,911.9031 377.0968,897.7838"/>
    <polyline points="350.4326,881.7832 361.7427,897.9096 416.4239,863.545 413.4475,859.0247"/>
    <polyline points="408.496,878.0509 444.986,881.8666 449.1094,838.7003"/>
    <line x1="411.456" x2="411.0449" y1="895.1766" y2="896.5821"/>
    <polyline points="410.2634,895.0519 425.4457,924.7806 356.0396,954.1081 343.3107,933.5708"/>
    <polyline points="337.7612,937.9153 350.0352,977.7321 316.0105,984.9302"/>
    <polyline points="312.8846,973.9328 334.5454,969.3504 327.3642,946.0546"/>
    <line x1="312.7083" x2="307.0222" y1="951.1928" y2="953.3076"/>
    <line x1="304.5079" x2="306.3334" y1="944.0574" y2="900.9119"/>
    <line x1="306.2107" x2="310.9704" y1="903.8124" y2="898.9006"/>
    <polyline points="305.9723,909.4479 318.0285,923.3976 336.7256,908.7603 323.6852,893.3853"/>
    <line x1="304.7706" x2="304.5918" y1="942.0084" y2="942.0749"/>
    <polyline points="290.8088,945.149 300.1111,977.876 251.0943,992.6281 249.1056,986.4504"/>
    <polyline points="257.823,972.1934 259.3055,976.7984 283.8139,969.4224 277.2222,946.2317"/>
    <polyline points="257.9444,895.7678 241.3921,953.8913 191.5757,935.9479"/>
    <polyline points="184.0076,944.3237 195.9535,949.0674 175.6675,990.7029 146.8339,978.1243"/>
    <polyline points="157.2279,970.2408 170.0531,975.8358 180.196,955.018 175.8897,953.308"/>
    <line x1="154.4236" x2="153.5735" y1="956.0029" y2="957.7425"/>
    <line x1="145.5566" x2="146.0558" y1="948.6879" y2="947.6664"/>
    <polyline points="140.0934,942.5175 161.6619,966.8778 107.1756,1008.2036 68.5901,955.5991 88.5206,940.3641"/>
    <polyline points="98.8018,945.5852 83.36,957.389 109.0836,992.4586 145.4078,964.9081 134.837,952.969"/>
    <polyline points="126.0332,959.414 129.1537,962.9384 110.9916,976.7137 98.1298,959.1788 109.0829,950.8062"/>
    <polyline points="140.3585,941.9903 164.4389,965.9809 217.1805,907.6104 206.1462,897.1333"/>
    <polyline points="184.8459,890.4615 242.7841,908.6092 261.1415,841.521"/>
    <line x1="260.9046" x2="262.0349" y1="842.3867" y2="841.2474"/>
    <polyline points="271.043,838.4888 285.8863,854.7556 267.0647,870.7593 256.0716,860.0493"/>
    <polyline points="231.9366,838.7441 240.0686,842.3719 229.3809,881.4309 196.6149,871.1678"/>
    <polyline points="211.3827,846.9579 175.3617,906.0097 146.1861,887.7832"/>
    <polyline points="135.513,889.8372 148.5607,896.0228 124.6091,943.6462 76.7682,919.3513 88.0707,898.9675"/>
    <polyline points="104.6506,895.7767 94.8339,913.481 118.7544,925.6284 130.7302,901.8167 114.1381,893.9508"/>
    <polygon points="107.2777,863.3218 122.7321,860.3476 118.6588,844.9619 105.2829,849.5311"/>
    <polyline points="97.7107,845.117 101.6558,872.3911 132.5647,866.4427 124.8054,837.1349"/>
    <polyline points="132.4296,834.8888 142.3972,872.5377 96.0339,881.4603 91.0604,847.0762"/>
    <polyline points="84.4101,849.0354 90.412,890.5296 152.2297,878.6328 143.245,844.6961"/>
    <polyline points="133.4445,834.5898 160.8383,862.8383 226.3319,804.492 216.7089,793.1251"/>
    <polyline points="231.5571,797.8653 232.1191,800.617 236.7441,799.5212"/>
    <polyline points="239.7056,800.4666 217.5253,827.7232 209.3342,819.6347"/>
    <polyline points="195.8646,831.6344 219.073,854.5518 265.0403,798.0642 259.863,794.044"/>
    <polyline points="257.6942,807.0916 261.0319,815.7718 284.8877,808.4663 277.787,789.7975"/>
    <polyline points="291.0803,786.6481 302.2587,816.0381 254.5471,830.649 249.4054,817.2773"/>
    <polyline points="241.1167,827.4631 248.0623,845.5263 319.6297,823.6099 304.6157,784.1354"/>
    <line x1="305.4246" x2="307.3172" y1="786.2623" y2="784.0745"/>
    <polyline points="301.3776,784.2084 360.5316,782.8747 359.6673,732.4957"/>
    <polyline points="358.8159,721.8179 391.0581,731.702 402.5689,684.3584"/>
    <line x1="396.0516" x2="394.8461" y1="673.1995" y2="672.8682"/>
    <polyline points="395.3592,672.0138 411.2879,699.2872 479.673,651.4942 470.4663,639.7705"/>
    <polyline points="482.505,631.1089 491.0856,642.0729 472.3228,659.5889 470.6253,657.8175"/>
    <line x1="456.375" x2="445.5964" y1="683.3004" y2="675.3097"/>
    <polyline points="433.0071,684.1081 442.1876,690.914 425.0902,712.3402 408.4581,700.6992"/>
    <polyline points="409.5323,696.2812 397.8792,744.2099 338.8496,726.1138"/>
    <polyline points="339.1244,726.1981 339.7936,765.2056 313.6993,765.794"/>
    <polyline points="315.7034,774.8171 350.1626,774.0402 349.3959,729.3469"/>
    <polyline points="361.1392,712.1134 384.2369,719.1942 393.3342,681.7775 390.0393,680.8721"/>
    <polyline points="402.9625,659.3533 414.9032,679.7983 460.4932,647.9363 443.1323,625.829"/>
    <polyline points="446.0469,620.9812 463.6522,644.6731 529.5628,597.2516 515.5552,576.7742"/>
    <line x1="515.876" x2="515.7372" y1="576.7707" y2="577.0402"/>
    <polyline points="503.3477,576.9071 515.5903,594.8043 466.1573,630.3704 451.9206,611.2117"/>
    <polyline points="457.7943,601.4422 468.6625,616.0678 501.6178,592.357 491.1402,577.0401"/>
    <polyline points="491.8581,568.5193 558.0158,567.7989 556.9336,519.2712"/>
    <polyline points="548.9193,519.2212 549.8148,559.3753 505.3324,559.8597"/>
    <polyline points="518.8066,551.2 541.6137,550.9516 540.905,519.1712"/>
    <polyline points="565.0574,524.2331 593.2985,540.3676 630.8771,465.7237 614.9371,455.5218"/>
    <polyline points="622.4783,452.4351 647.2227,459.2046 659.8013,408.6367 654.1828,407.3107"/>
    <polyline points="667.3967,401.6997 670.3051,402.3861 653.5337,469.81 625.1136,462.0349"/>
    <polyline points="632.369,446.2621 640.9117,448.5992 649.2974,414.8872 640.9688,412.9216"/>
    <polyline points="627.7549,418.5326 638.7936,421.1378 634.6007,437.9937 628.1424,436.2269"/>
    <polyline points="621.7618,421.0774 677.425,397.4415 655.2445,344.2494"/>
    <polyline points="659.2953,342.2179 696.6933,356.7479 711.7299,305.7591 704.4642,303.5454"/>
    <polyline points="710.8909,293.1871 727.6805,298.3025 705.1257,374.7857 660.7959,357.5626"/>
    <polyline points="638.9627,352.4145 652.8573,385.7359 615.0667,401.7827 613.5177,395.9145"/>
    <polyline points="611.6366,397.037 633.1323,448.0743 558.8129,478.4944"/>
    <polyline points="557.9505,461.907 561.6355,468.5863 621.8559,443.9371 604.0175,401.5832"/>
    <polyline points="596.3984,406.1294 610.5796,439.7999 565.4143,458.2868 559.309,447.2206"/>
    <polyline points="557.8276,459.5438 560.9343,519.2961 492.5895,518.8697"/>
    <polyline points="489.9365,521.8973 500.6793,539.7989 468.0502,560.769 457.1798,544.2882"/>
    <polyline points="444.8853,560.8374 462.4278,587.4337 527.6858,545.4935 511.7808,518.9895"/>
    <polyline points="517.5173,528.5488 517.693,526.3816 533.0546,526.4688 533.4127,542.528 525.955,542.6092"/>
    <polyline points="533.0306,576.5839 543.1538,581.0824 531.8528,606.1387 523.1586,601.8593"/>
    <polyline points="510.443,611.008 538.4939,624.8149 558.3574,580.7742"/>
    <polyline points="555.7928,576.336 563.1658,589.0958 630.0433,547.2697 607.2565,512.6422"/>
    <polyline points="600.8085,525.4501 612.2791,542.8812 567.6941,570.7653 566.0309,567.887"/>
    <polyline points="565.4239,540.6693 572.2224,552.4348 592.3676,539.8358"/>
    <polyline points="594.117,538.7417 594.5149,538.4928 594.3605,538.2581"/>
    <line x1="567.0121" x2="565.106" y1="525.3498" y2="526.4109"/>
    <polyline points="564.4908,498.8257 585.0246,510.557 603.8139,473.235 591.2724,465.2082"/>
    <polyline points="615.1831,496.8972 630.5309,510.2524 658.3112,478.4661 644.456,467.3266"/>
    <polyline points="660.933,440.0638 665.1643,452.8574 704.1721,441.4046 698.342,417.5096"/>
    <polyline points="688.323,419.3244 692.0004,434.3965 672.4965,440.1228 666.901,423.2046"/>
    <polyline points="665.0429,423.5412 732.9368,411.2434 718.9917,327.766"/>
    <polyline points="693.6126,320.563 688.261,338.71 674.9239,333.5283"/>
    <line x1="667.0603" x2="672.0828" y1="319.2023" y2="308.5077"/>
    <line x1="661.4263" x2="659.8071" y1="302.5408" y2="305.9885"/>
    <polyline points="656.3564,299.702 693.8303,320.6848 736.1031,252.5509 716.3866,242.4872"/>
    <polyline points="713.8705,252.0747 722.0345,256.2417 690.3299,307.3422 654.8537,287.4779"/>
    <polyline points="651.6714,291.1669 675.2906,334.1963 615.9584,363.9511"/>
    <line x1="613.9336" x2="611.5484" y1="360.5325" y2="356.1105"/>
    <polyline points="611.3372,356.1489 629.3092,386.4919 564.6481,425.0743 562.3766,421.7013"/>
    <polyline points="565.6749,424.4617 572.9719,437.6878 588.027,431.5255 581.1893,415.2906 580.4805,415.6274"/>
    <polyline points="588.7794,410.6756 599.3033,435.6627 569.1931,447.9873 561.0016,433.1398"/>
    <polyline points="563.7846,409.989 567.0687,414.8655 618.7975,383.9996 603.1806,357.6329"/>
    <polyline points="595.0241,359.1168 608.2858,381.5073 569.4892,404.6567 565.1925,398.2766"/>
    <line x1="562.7163" x2="560.0509" y1="394.5996" y2="390.6417"/>
    <polyline points="557.8216,394.61 565.6353,394.5934 556.9851,466.5527 513.681,461.348"/>
    <polyline points="518.1033,464.2687 541.2959,465.8417 543.073,500.0212 509.2911,499.8105"/>
    <polyline points="488.9233,483.2464 493.1982,478.368 492.2945,477.7712"/>
    <polyline points="498.9802,466.9128 512.7237,475.9897 477.9297,515.6955 457.9481,497.84"/>
    <polyline points="450.8642,507.0823 480.0582,533.1701 532.2493,473.6114 505.6659,456.0544"/>
    <polyline points="509.9378,449.1162 546.394,453.4979 552.1607,405.525 551.6894,405.526"/>
    <polyline points="538.131,421.0755 535.8028,440.4431 516.6922,438.1462"/>
    <polyline points="529.6842,417.0456 541.9348,422.8903 579.8971,355.3134 559.7647,346.8199"/>
    <polyline points="567.6956,350.1657 606.803,343.0508 597.8889,306.5085"/>
    <polygon points="586.0131,308.2338 562.9082,310.3643 564.7581,336.7771 591.7768,331.8615"/>
    <polyline points="570.4306,302.7977 614.2848,308.7243 616.6847,231.1182 615.6838,231.1385"/>
    <polyline points="615.8657,226.6743 640.8586,227.6408 642.031,201.3352 618.4429,203.2353 616.3038,215.9231"/>
    <polyline points="616.9711,199.5502 666.1438,198.0946 661.6333,142.3454"/>
    <polyline points="662.6691,138.2506 709.9615,129.0216 701.8041,76.8391 674.1374,80.019"/>
    <polyline points="675.0764,89.2028 694.479,86.9728 699.9173,121.7611 665.1227,128.5511"/>
    <polyline points="662.0576,147.5905 720.0058,136.2822 709.1293,66.7055 655.1147,72.9135"/>
    <polyline points="636.0921,65.8081 716.4544,56.5718 730.05,143.5427 662.7976,156.736"/>
    <polyline points="662.8931,157.9163 676.0761,179.0999 699.6371,164.6158 690.3615,151.2877"/>
    <polyline points="705.3395,148.3648 719.4454,168.6335 672.3234,197.6016 668.8069,191.951"/>
    <polyline points="655.34,198.4144 653.4275,241.3254 616.4133,239.894"/>
    <polyline points="616.0056,253.0768 665.9964,255.0101 669.5137,176.0933 664.3971,176.5055"/>
    <polyline points="656.1429,160.5603 658.573,190.5953 617.2862,191.8175"/>
    <polyline points="617.6013,184.0848 651.0022,183.096 648.9732,158.0188"/>
    <polyline points="641.8035,155.4773 643.4314,175.5967 620.2925,176.2817"/>
    <polyline points="617.8318,178.4292 614.8201,252.3313 568.3115,250.2141"/>
    <polyline points="568.7508,261.1136 568.878,258.6285 586.7342,258.2652 586.1342,277.6667 569.3263,275.3952"/>
    <polyline points="569.6944,284.5294 595.5178,288.0193 596.6469,251.504"/>
    <polyline points="606.337,251.9451 604.9013,298.3718 570.0625,293.6635"/>
    <polyline points="558.983,307.5781 559.9127,354.2511 510.7031,355.4685"/>
    <line x1="513.9454" x2="511.5404" y1="355.3882" y2="360.1663"/>
    <polyline points="509.1754,346.8969 551.2375,345.8564 550.473,307.4797"/>
    <polyline points="541.963,307.3813 542.5622,337.4617 508.542,338.3033"/>
    <polyline points="507.8297,339.3466 519.1153,402.667 464.6325,413.9403"/>
    <polyline points="462.7788,424.6856 471.0782,413.7525 487.7304,424.7135 476.6025,442.7866 461.4662,432.2945"/>
    <polyline points="459.4065,444.2341 479.5324,458.1849 501.7882,422.0387 483.541,410.0278"/>
    <polyline points="497.3283,407.175 515.8459,419.364 482.4623,473.5832 457.3467,456.1738"/>
    <polyline points="455.287,468.1134 485.3921,488.9815 529.9037,416.6892 511.1156,404.3222"/>
    <polyline points="516.9522,390.5305 533.5732,398.4603 552.5544,364.6718 529.6296,355.0002"/>
    <polyline points="516.4896,326.662 516.6765,329.4927 533.887,329.0669 533.5481,312.0572 523.0781,311.5882"/>
    <polyline points="516.8221,307.0906 570.6287,307.7127 567.4397,228.5815"/>
    <polyline points="569.8022,225.8539 589.4405,226.7479 590.4352,202.3387"/>
    <polyline points="581.8486,209.8324 633.1932,165.023 611.9496,139.6406"/>
    <polyline points="613.0585,130.8056 647.3985,142.9783 660.8418,89.8349 620.111,74.6209"/>
    <polyline points="609.5,70.6574 608.5371,70.2977 608.4484,70.6736"/>
    <polyline points="594.1632,70.8935 598.6607,51.8265 677.1179,81.1323 656.9529,160.8474 618.202,147.1111"/>
    <polyline points="623.6113,153.5743 634.7279,154.0985 635.8605,168.0974 629.453,168.2871"/>
    <polyline points="604.1335,190.384 602.1303,239.5396 567.8184,237.9776"/>
    <polyline points="546.5187,252.7359 547.9202,287.5135 516.5274,287.1505"/>
    <polyline points="508.4208,301.0507 525.5617,313.3736 481.6858,377.6411 454.5912,357.2968"/>
    <polyline points="444.0336,348.6358 444.8521,348.6171 451.3625,400.1597 402.6741,404.3419"/>
    <polyline points="405.4644,413.6489 391.0331,466.4672 354.9503,455.2735"/>
    <polyline points="358.3823,439.969 380.8139,446.9277 387.16,423.7009"/>
    <polyline points="399.3119,414.1774 461.1055,408.8694 452.4248,340.146 451.3452,340.1708"/>
    <polyline points="452.5478,338.7785 479.0148,358.6515 508.2653,315.8065 492.0334,304.137"/>
    <polyline points="475.646,307.2233 490.969,318.2394 476.3437,339.6619 461.4464,328.4761"/>
    <line x1="462.6025" x2="467.2864" y1="314.1805" y2="308.7977"/>
    <polyline points="458.7055,310.4138 518.6664,299.1211 505.8979,227.6644"/>
    <polyline points="506.8767,225.427 526.8706,243.7307 554.0512,212.3493 539.0254,199.2276"/>
    <polyline points="554.9984,199.7806 568.471,211.5459 527.7001,258.6179 508.2467,240.809"/>
    <polyline points="496.5947,248.9312 503.6685,288.5188 451.7736,298.2924 451.4058,295.9376"/>
    <polyline points="446.0,298.1332 468.7019,320.076 422.8064,373.2117 415.7505,366.09"/>
    <polyline points="412.9978,374.1425 412.8895,384.371 431.8766,382.7401 429.7065,365.5592 429.4103,365.566"/>
    <polyline points="436.7219,357.1009 437.2793,357.0881 441.6196,391.4499 406.0364,394.5064"/>
    <polyline points="421.3962,412.2804 401.2524,486.0066 351.5182,470.5781"/>
    <polyline points="356.7418,472.1985 364.3314,507.1264 290.3043,530.0919 289.2373,526.6471"/>
    <line x1="288.7816" x2="290.1051" y1="527.4696" y2="529.4486"/>
    <polyline points="290.4956,530.0325 297.381,540.3281 261.7353,561.8459 252.15,546.8339"/>
    <polyline points="258.0289,537.6432 264.626,547.9751 282.4488,537.2162 279.8401,533.3154"/>
    <polyline points="264.9358,526.8456 225.0154,589.2537 202.3,571.8484"/>
    <polyline points="204.5405,573.5651 194.2295,632.342 135.7048,616.3227"/>
    <polyline points="131.4151,618.4208 154.7438,632.5389 121.221,682.866 73.6136,648.5957 88.2477,627.4021"/>
    <polyline points="83.5278,617.8642 60.5183,651.1874 123.9947,696.8812 168.6919,629.7784 155.3373,621.6965"/>
    <polyline points="168.1589,630.5787 178.1617,634.0311 171.0715,654.2273 156.3023,648.3787"/>
    <polyline points="150.6203,656.9089 177.7045,667.6342 190.4568,631.3094"/>
    <polyline points="196.1268,621.5264 231.3637,636.7276 256.4331,589.2982"/>
    <polyline points="259.4536,587.4749 258.9516,595.1099 276.4564,597.4747 276.0764,579.8197 272.424,579.6452"/>
    <polyline points="284.6381,572.272 285.3961,607.487 250.3866,602.7573 250.5383,600.4508"/>
    <polyline points="245.0467,610.8405 294.3358,617.4993 293.2504,567.0731"/>
    <polyline points="296.222,565.2793 304.4867,580.2313 370.5953,550.383 351.7469,511.3261"/>
    <polyline points="351.45,511.1226 384.0535,533.4672 423.4531,469.7268"/>
    <polyline points="422.7706,470.8309 432.9909,479.3452 423.5435,491.6709 414.0188,484.9896"/>
    <polyline points="409.7348,491.9201 424.9534,502.5955 443.8481,477.944 436.8216,472.0904"/>
    <polyline points="452.7387,474.9045 454.7053,476.5428 426.3633,513.5201 405.4509,498.8507"/>
    <polyline points="401.1669,505.7813 427.7731,524.4447 465.5152,475.2034"/>
    <polyline points="471.9041,479.632 429.183,535.3693 396.883,512.7118"/>
    <polyline points="395.7949,514.4722 415.7784,541.1502 362.5958,585.3998 346.1983,561.3983"/>
    <line x1="345.1093" x2="348.7548" y1="561.89" y2="565.1404"/>
    <polyline points="352.7775,558.4278 364.1956,575.1407 406.7417,539.7411 392.1865,520.3099"/>
    <polyline points="388.578,526.1475 397.7049,538.3319 365.7953,564.8816 359.3567,555.4572"/>
    <polyline points="365.9359,552.4867 367.3951,554.6225 388.6682,536.9227 384.9696,531.9852"/>
    <line x1="399.9564" x2="402.6428" y1="520.0279" y2="516.7521"/>
    <line x1="413.3461" x2="408.0052" y1="524.2602" y2="530.773"/>
    <polyline points="413.3709,543.1533 423.9597,550.7659 437.5965,532.4098 434.0283,529.0478"/>
    <polyline points="441.2666,519.6042 453.0594,530.7151 425.7857,567.4274 403.4746,551.3873"/>
    <polyline points="393.5783,559.6213 427.6117,584.0889 468.5222,529.0205 448.5048,510.1605"/>
    <line x1="458.807" x2="462.3595" y1="519.867" y2="517.3546"/>
    <polyline points="465.0321,488.5977 475.8012,498.2209 484.4624,488.3371"/>
    <polyline points="559.7179,495.8996 564.4261,495.9263 566.2168,576.2225 480.9971,577.1505 481.1384,575.4087"/>
    <polyline points="478.7679,576.9322 487.6452,589.9097 471.1676,601.7651 463.668,591.6727"/>
    <polyline points="468.6026,583.4652 435.5642,638.4166 400.9456,619.1913"/>
    <polyline points="402.9834,609.4491 432.2066,625.6781 458.6468,581.7012"/>
    <line x1="451.4297" x2="441.9823" y1="570.7594" y2="564.7451"/>
    <polyline points="436.0386,572.7457 448.3156,580.5614 428.849,612.9395 405.0212,599.7069"/>
    <polyline points="416.7799,576.3016 408.8554,590.9623 425.4913,600.201 435.2247,584.0119 430.0949,580.7462"/>
    <polyline points="410.8142,572.0127 398.1248,632.6767 340.7599,620.0067"/>
    <polyline points="336.6581,624.7946 347.9166,630.9145 329.8478,672.2633 300.1759,659.1647"/>
    <polyline points="291.9479,668.8718 302.8815,712.7489 249.4391,728.6049 249.3341,728.318"/>
    <polyline points="247.9405,736.3152 311.7227,717.3914 300.582,672.6833"/>
    <line x1="301.7699" x2="307.9861" y1="677.4505" y2="675.9518"/>
    <polyline points="323.2932,682.7091 306.8326,686.6776 312.6582,704.6035 329.973,700.8781 327.0162,684.3526"/>
    <polyline points="336.7628,684.5089 340.8904,707.5776 310.8859,714.0334"/>
    <polyline points="298.5167,721.3096 299.8634,725.4535 351.8077,714.2772 343.658,668.7297"/>
    <polyline points="344.1197,667.6731 385.946,687.688 420.5451,630.0758"/>
    <polyline points="436.0271,637.6468 441.3135,644.3784 418.5184,660.3094 410.5658,646.6928"/>
    <polyline points="397.3386,632.5031 378.2703,664.2542 351.2615,651.3299"/>
    <polyline points="354.0367,672.4187 362.7251,720.9768 293.466,735.8785 289.5918,723.9575"/>
    <polyline points="283.7295,725.6968 292.2428,764.0256 251.2257,773.7432"/>
    <polyline points="244.0676,797.7862 316.9689,780.5146 306.4349,733.0881"/>
    <polyline points="310.4681,751.2465 308.8808,738.8674 329.0714,735.7812 329.4246,756.3711 311.6951,756.7708"/>
    <polyline points="327.279,783.6244 344.6891,797.7286 322.5101,828.8642 316.6444,824.5241"/>
    <polyline points="263.7668,731.6196 242.9602,801.5057 186.7058,783.5468"/>
    <polyline points="182.5244,787.5018 195.3853,802.6933 162.6385,831.8664 156.6182,825.6584"/>
    <polyline points="174.7652,850.4312 176.6319,851.6793 167.1694,867.1919 155.4875,859.8939"/>
    <polyline points="154.5503,856.3541 162.0622,884.7278 84.7902,899.5988 74.8163,830.6453 80.2145,828.8013"/>
    <polyline points="102.616,795.5912 105.6071,812.9799 123.965,807.5716 119.19,790.47 118.6089,790.6128"/>
    <polyline points="126.6546,784.2509 135.0304,814.2487 98.3145,825.0652 91.9862,788.275 96.6269,787.1348"/>
    <polyline points="91.2705,779.5719 81.5295,781.9652 91.022,837.1506 146.0958,820.9258 134.1916,778.2912"/>
    <polyline points="134.6222,777.9507 164.2145,804.82 224.5294,747.7716 211.3666,733.491"/>
    <polyline points="194.1916,729.0295 246.8275,742.7025 257.5877,680.9532"/>
    <line x1="257.549" x2="257.7561" y1="681.1753" y2="681.1058"/>
    <polyline points="251.9076,675.8072 269.2202,691.4919 318.9362,639.5733"/>
    <polyline points="329.1781,633.5257 333.4861,635.8675 324.4517,656.5419 309.1541,649.7888"/>
    <polyline points="303.233,625.537 321.8023,642.1352 370.871,584.8594 367.1899,581.5773"/>
    <polyline points="373.2146,576.5646 384.7234,578.8597 379.7714,602.5339 359.5545,598.0686"/>
    <polyline points="350.1572,609.0377 388.9481,617.6053 398.8522,570.257 384.2867,567.3523"/>
    <polyline points="364.5519,537.8602 368.9949,544.3635 379.6314,535.5136 371.9699,525.2854 361.7582,532.0712"/>
    <line x1="358.8696" x2="366.1874" y1="526.0855" y2="521.2228"/>
    <line x1="360.3311" x2="355.981" y1="517.2092" y2="520.0999"/>
    <line x1="353.0924" x2="354.4748" y1="514.1142" y2="513.1956"/>
    <polyline points="338.9577,514.9981 353.4154,544.9568 309.343,564.8557 306.2359,559.2344"/>
    <polyline points="302.1676,576.0357 303.2755,627.5116 240.7031,619.0583"/>
    <polyline points="243.2322,619.3999 244.4445,666.921 199.1742,671.0793"/>
    <polyline points="196.4096,680.905 206.9739,689.184 169.3464,735.9756 144.3463,716.9623"/>
    <polyline points="154.4935,705.6472 166.8925,715.0771 185.2903,692.1986"/>
    <polyline points="195.7019,680.97 253.9335,675.6211 252.5313,620.6562"/>
    <line x1="259.1597" x2="252.7396" y1="621.5517" y2="628.8241"/>
    <polyline points="234.2671,631.2346 234.9556,658.2208 202.6464,661.1886"/>
    <polyline points="206.4169,650.4483 206.3944,651.2725 225.4666,649.5206 225.071,634.0129"/>
    <line x1="219.1857" x2="212.8928" y1="631.474" y2="632.0018"/>
    <polyline points="213.8814,629.1858 190.9703,694.4478 139.2564,673.9693"/>
    <polyline points="140.7355,674.555 156.8029,710.8664 95.0741,741.0746 72.434,678.7973 87.9599,670.9413"/>
    <polyline points="97.71,677.96 85.9225,683.9244 101.016,725.4426 142.1685,705.3038 132.6752,683.8495"/>
    <line x1="140.8798" x2="141.0451" y1="674.8812" y2="674.6776"/>
    <polyline points="144.9383,665.4391 184.3374,681.041 204.0333,624.9373"/>
    <polyline points="199.6028,601.7122 223.6707,612.095 240.7858,579.7145 233.8872,575.3842"/>
    <polyline points="240.392,565.2152 255.9541,589.5874 327.2454,546.5518 311.7814,523.429"/>
    <line x1="311.8945" x2="312.6031" y1="523.598" y2="523.1741"/>
    <polyline points="301.1385,526.7308 312.3132,543.4399 258.8447,575.7167 246.271,556.0245"/>
    <polyline points="212.6633,555.6769 220.4965,561.679 240.7298,530.0481 230.2107,522.482"/>
    <polyline points="244.5582,521.8718 253.1059,528.0199 222.7559,575.4664 214.6241,569.2355"/>
    <polyline points="210.7024,542.1184 218.2371,547.8917 228.3537,532.0762 213.9471,521.7139 208.7495,528.6152"/>
    <polyline points="207.1718,517.706 214.8699,570.9351 144.6738,576.0352"/>
    <polyline points="146.4876,575.9034 157.9709,605.4323 93.0813,637.1699 57.566,565.401 67.3117,561.9667"/>
    <polyline points="98.728,571.6761 85.2328,576.4317 102.9905,612.3161 135.4353,596.4474 129.5006,581.1865"/>
    <line x1="149.1838" x2="150.9675" y1="582.8365" y2="575.5779"/>
    <polyline points="148.6634,562.2471 198.0595,558.6582 191.6722,514.493"/>
    <polyline points="181.7133,512.4285 243.8169,525.3025 255.9465,469.1659"/>
    <polyline points="243.6014,468.5001 234.5372,510.4504 205.6239,504.4568"/>
    <polyline points="211.1068,492.665 225.2574,495.5984 230.4157,471.7252 230.1779,471.6731"/>
    <polyline points="234.4912,468.0088 307.5871,471.9508 310.3958,418.2244"/>
    <polyline points="299.7247,419.5837 297.5695,460.8102 246.2242,458.0412"/>
    <polyline points="257.9573,448.0736 287.5519,449.6696 289.0536,420.943"/>
    <polyline points="282.9891,416.858 283.5935,421.6385 368.4574,410.8284 359.0288,352.2183"/>
    <line x1="360.6101" x2="359.6057" y1="353.1314" y2="355.8047"/>
    <polyline points="350.4304,347.253 386.5968,368.1377 416.3733,305.2389 397.6222,296.3938"/>
    <polyline points="392.1196,303.055 404.9286,309.0972 382.5962,356.2714 357.5159,341.7884"/>
    <polyline points="364.6015,336.3238 378.5957,344.405 393.484,312.9555 386.6169,309.7163"/>
    <polyline points="381.1143,316.3776 382.0393,316.8139 374.5952,332.5386 371.687,330.8593"/>
    <polyline points="371.6296,323.4009 373.6779,325.3798 423.9856,264.4792 398.2947,243.9544"/>
    <polyline points="405.1403,235.505 417.1903,250.0065 458.5241,218.9462 440.2228,194.4707"/>
    <polyline points="454.7113,192.0085 476.7192,221.4412 421.7853,262.7214"/>
    <polyline points="435.5009,252.4147 444.8941,278.3262 409.9365,292.5243 407.3523,284.6149"/>
    <polyline points="413.4854,311.3391 467.6545,289.3382 450.2513,241.3306"/>
    <polyline points="451.3125,244.2581 492.2533,258.8552 520.3438,194.6422 504.3618,187.5473"/>
    <polyline points="504.9809,185.3318 553.7684,187.021 554.4095,145.669"/>
    <polyline points="539.9319,145.3096 539.49,173.8096 513.8101,172.9205 511.893,160.5969"/>
    <line x1="516.0047" x2="531.5409" y1="145.883" y2="145.1013"/>
    <polyline points="516.3287,144.7237 565.5603,145.9457 561.7233,69.1787 490.9313,74.3555 490.9182,75.2231"/>
    <polyline points="466.9196,78.955 511.9144,88.7194 490.7077,142.414 458.9866,130.8461"/>
    <polyline points="457.5886,139.9902 496.386,154.1386 524.6616,82.5458 454.3201,67.2808 453.194,69.9521"/>
    <polyline points="465.5968,87.6078 499.1671,94.8929 485.0293,130.6894 460.3845,121.702"/>
    <polygon points="462.3015,112.7472 479.351,118.9647 486.4199,101.0665 468.8345,97.2503"/>
    <polyline points="463.244,142.0526 460.6562,141.8988 458.9431,153.8941"/>
    <polyline points="449.0845,151.669 454.3276,182.8371 406.0236,191.0457"/>
    <polyline points="402.9745,188.5999 427.3205,208.1285 376.4469,270.9208 360.3547,257.3321"/>
    <polyline points="347.3725,257.4814 338.0251,295.3683 308.1329,286.9748"/>
    <line x1="304.7241" x2="296.4896" y1="297.3815" y2="303.7329"/>
    <polyline points="293.1868,296.5102 314.3117,342.7075 246.9074,364.439 246.1793,361.9589"/>
    <line x1="246.2489" x2="245.9201" y1="362.196" y2="361.9371"/>
    <polyline points="248.461,363.9381 255.004,369.0907 220.6917,411.2748 199.7546,394.8177"/>
    <polyline points="203.9928,381.3795 218.3346,392.6525 235.4908,371.5605 220.5589,359.8015"/>
    <polyline points="211.0508,359.0009 190.8448,423.0678 149.6919,410.7871"/>
    <polyline points="151.7162,411.3912 162.8042,458.9246 84.9615,471.599 64.5555,396.8381 73.6039,394.7159"/>
    <polyline points="81.6827,410.7309 94.2742,456.8621 146.1693,448.4125 137.9407,413.1372"/>
    <polyline points="123.6151,412.5244 129.5345,437.9004 103.5869,442.1252 96.7849,417.2049 117.8014,412.2758"/>
    <polyline points="150.893,397.4264 182.0427,406.722 197.4359,357.9151"/>
    <polyline points="197.7638,357.882 252.9817,362.5317 257.0725,314.6369"/>
    <polyline points="247.8532,303.801 243.7307,352.0669 213.3542,349.509"/>
    <polyline points="211.7783,339.6904 234.4797,341.602 237.3981,307.4336"/>
    <polyline points="244.0888,299.3766 259.7823,317.8218 325.1227,276.1355 296.9424,233.8003"/>
    <polyline points="297.0848,233.5447 340.9702,240.8963 345.5949,194.8635"/>
    <polyline points="354.5722,187.1962 348.2751,249.8763 302.544,242.2156"/>
    <polyline points="308.355,250.9454 355.58,258.8563 363.5495,179.529"/>
    <polyline points="363.1444,183.5615 393.4431,172.0746 385.7737,147.3073"/>
    <polyline points="396.0274,149.2655 404.8674,177.8129 362.0927,194.0296"/>
    <line x1="361.4725" x2="360.9977" y1="204.3341" y2="204.9286"/>
    <polyline points="361.041,204.4977 416.2916,183.5511 402.9903,140.5965"/>
    <polyline points="403.0653,139.7553 449.0087,143.1793 458.6813,79.9101 390.8569,65.4146 389.3685,76.2415"/>
    <polyline points="380.3327,74.6354 383.0377,54.9583 467.8182,73.0776 455.7275,152.1641 405.4112,148.4142"/>
    <polyline points="403.817,131.3273 442.29,134.1945 449.5444,86.7426 398.6761,75.871 398.4044,77.8476"/>
    <polyline points="407.8052,86.6073 440.4075,93.5751 435.5712,125.2097 404.5686,122.8992"/>
    <polygon points="428.8524,116.2249 431.2706,100.4076 414.3145,96.7837 411.8164,114.9553"/>
    <polyline points="427.5006,150.0604 411.9069,153.5336 414.9046,171.0632 432.865,168.0111 429.8751,150.2374"/>
    <polyline points="439.4798,150.9532 443.5963,175.4241 415.2658,180.2385"/>
    <polyline points="415.5257,198.6676 465.0589,190.2501 457.1199,143.0559"/>
    <polyline points="462.3573,174.19 487.3085,180.1873 494.7541,153.5435"/>
    <polyline points="507.2066,126.7411 521.1226,127.5686 500.9444,199.7764 462.8633,190.6232"/>
    <line x1="458.6185" x2="457.0293" y1="191.3446" y2="195.1085"/>
    <polyline points="462.2703,202.1177 465.5546,194.3391 492.3411,206.2306 481.1049,231.9158 468.6768,227.4846"/>
    <polyline points="475.5856,222.2931 477.3888,222.936 483.0069,210.0934 469.6136,204.1477 467.5113,209.1268"/>
    <polyline points="461.7681,232.6762 484.8211,240.8956 501.6753,202.3678 489.8087,197.0998"/>
    <polyline points="502.3713,194.6702 511.0095,198.505 488.5372,249.8754 454.8593,237.8678"/>
    <line x1="452.3685" x2="451.5005" y1="244.6346" y2="244.7767"/>
    <polyline points="460.7835,270.3843 458.6449,256.6908 477.5173,253.6012"/>
    <polyline points="484.789,256.1939 488.6706,277.9165 465.1218,282.3515"/>
    <polyline points="437.694,301.5067 457.0599,320.225 422.6382,360.0768 419.0457,356.4508"/>
    <line x1="407.9937" x2="400.8321" y1="345.2958" y2="338.0674"/>
    <polyline points="399.0535,341.8246 421.1172,350.3912 395.1186,426.4439 354.8432,412.5626"/>
    <polyline points="350.3505,413.1348 339.7424,460.4399 308.5119,454.2603"/>
    <polyline points="309.2611,439.9294 329.399,443.9141 335.3988,417.1593 330.3128,415.6873"/>
    <polyline points="314.223,389.0095 335.5229,386.2963 331.5806,361.7904"/>
    <polyline points="321.0833,369.8862 327.2591,377.3864 264.1681,433.6391 239.8745,409.2112"/>
    <polyline points="234.6682,415.6119 245.4847,430.4953 212.7196,458.3303 200.8684,444.3995"/>
    <polyline points="205.4897,432.4458 214.3486,442.8593 230.7312,428.9418 227.4727,424.4582"/>
    <polyline points="210.3376,419.9058 188.1503,477.2971 149.8913,461.0271"/>
    <line x1="146.0859" x2="142.6675" y1="461.6467" y2="463.4906"/>
    <polyline points="141.5048,462.3926 162.6583,482.3694 111.1286,535.0393 62.5291,479.1033 82.5423,462.7358"/>
    <polyline points="90.2096,470.7445 79.3193,479.651 111.719,516.9417 146.0721,481.8284 127.8463,464.6165"/>
    <polyline points="114.1879,466.8403 129.4858,481.2874 112.3093,498.844 96.1095,480.1987 112.0095,467.195"/>
    <line x1="147.5535" x2="155.9211" y1="468.1049" y2="463.5913"/>
    <line x1="163.4364" x2="152.4395" y1="466.7873" y2="472.7191"/>
    <polyline points="157.3256,477.3334 168.1811,471.4778 174.5966,484.848 160.9446,489.3996 159.5651,485.5311"/>
    <polyline points="154.743,490.4599 157.4505,498.0528 184.7545,488.9497 176.8594,472.4955"/>
    <polyline points="187.1488,476.8712 194.9125,493.0513 153.9564,506.706 149.9208,495.3887"/>
    <polyline points="145.0987,500.3176 150.4623,515.3592 205.0704,497.153 191.4489,468.7647"/>
    <polyline points="191.6259,468.3069 209.4739,489.2618 215.2284,501.2547 146.9683,524.0124 140.2765,505.2464"/>
    <line x1="138.5233" x2="141.2282" y1="507.0385" y2="507.9151"/>
    <polyline points="129.7654,515.9902 139.2086,519.0508 127.4799,559.5863 89.097,547.7238 94.507,515.9085"/>
    <polyline points="103.4919,526.2498 100.9983,540.9141 120.1898,546.8453 126.0541,526.5776 121.0074,524.9419"/>
    <polyline points="148.9398,523.3551 134.7701,572.3272 77.1958,554.5335 85.5221,505.5673"/>
    <polyline points="76.5372,495.226 65.2945,561.3432 142.0602,585.0682 161.0884,519.3048"/>
    <polyline points="161.0261,519.5201 176.9883,516.9204 181.2491,546.3813 154.0283,548.359 153.4101,545.8418"/>
    <polyline points="184.3578,573.152 185.7525,573.3143 179.334,609.9022 157.3714,603.8906"/>
    <polyline points="121.1786,623.4275 140.7958,635.2994 118.4472,668.8508 86.709,646.0039 92.9675,636.94"/>
    <polyline points="109.7408,629.0217 99.8043,643.4122 115.6734,654.8356 126.8477,638.06 110.9421,628.4341"/>
    <polyline points="107.4601,684.9787 99.4111,689.0514 106.9578,709.8105 127.534,699.7411 125.361,694.8301"/>
    <line x1="147.7987" x2="155.8861" y1="690.5175" y2="680.5546"/>
    <polyline points="129.1193,724.4139 171.8003,756.8742 228.2415,686.6868 218.2983,678.8944"/>
    <polyline points="230.8952,677.7373 238.0789,680.1273 231.4026,718.4405 207.6653,712.2744"/>
    <polyline points="193.3036,730.1338 209.5067,747.7129 164.2705,790.4992 143.0826,771.2609"/>
    <polyline points="151.543,764.571 164.3266,776.1783 194.484,747.6541 186.3292,738.8068"/>
    <line x1="179.3548" x2="178.6285" y1="747.4798" y2="748.383"/>
    <polyline points="170.609,755.9682 164.3826,761.8574 160.0034,757.8812"/>
    <polyline points="159.23,747.3141 164.6767,754.1859 106.0971,800.5062 64.1475,741.2756 88.1575,722.0487"/>
    <polyline points="91.3464,730.8204 76.3355,742.8409 107.7977,787.2638 151.7324,752.5236 129.9575,725.0514"/>
    <polyline points="120.9819,728.3961 138.7882,750.8612 109.4983,774.0214 88.5235,744.4061 94.5352,739.592"/>
    <polygon points="125.8439,749.1989 114.5207,734.9131 100.7116,745.9713 111.199,760.779"/>
    <polyline points="146.244,788.5031 157.1611,827.6029 83.7294,849.2359 71.0728,775.6554 85.9141,772.0089"/>
    <polyline points="82.3322,882.6059 58.7024,925.2217 130.4639,961.664 162.4966,897.9727"/>
    <polyline points="159.9327,885.1376 172.6309,893.0704 201.0185,846.5326 188.5209,838.1766"/>
    <line x1="195.3988" x2="198.1429" y1="832.0494" y2="833.8841"/>
    <polyline points="181.6431,844.3039 188.8252,849.1059 169.9001,880.1312 159.0509,873.3534"/>
    <polyline points="180.409,897.7352 190.8095,907.6105 164.4388,936.7957 150.1371,922.5474"/>
    <polyline points="204.2303,921.9427 228.6849,930.751 235.6286,906.3679"/>
    <polygon points="203.5163,965.0627 220.2337,973.9232 231.2161,955.9622 210.9625,945.7039"/>
    <polyline points="117.0658,1000.7022 126.3559,1001.7659 124.7792,1027.0532 98.8684,1027.4241 98.1614,998.5378 100.2621,998.7783"/>
    <polyline points="224.9826,1056.2872 301.4453,1054.399 307.3233,998.4266"/>
    <line x1="309.2035" x2="307.0113" y1="998.0289" y2="1001.3977"/>
    <polyline points="321.0259,995.5278 346.5045,1007.0856 325.8832,1040.2077 304.3263,1026.9651"/>
    <polygon points="306.7072,1017.5843 322.4694,1027.2672 332.7801,1010.7061 316.105,1003.1419"/>
    <polyline points="475.5156,1025.1662 478.1508,1026.6845 480.3707,1022.171"/>
    <line x1="606.37" x2="606.1447" y1="840.062" y2="837.0738"/>
    <line x1="668.4816" x2="670.3261" y1="794.5668" y2="789.2759"/>
    <polyline points="461.4695,688.617 428.0466,730.502 405.1145,714.4514"/>
    <polyline points="359.1672,701.0921 377.4158,706.6863 381.9644,687.978 364.613,683.21 358.8695,699.4282"/>
    <line x1="355.5579" x2="357.9119" y1="680.9202" y2="674.273"/>
    <polyline points="358.6692,623.9623 362.3471,625.9615 335.2439,687.9847 291.1977,668.5407"/>
    <polyline points="285.6299,674.3551 294.0403,708.1063 253.9585,719.9983 251.8075,714.1236"/>
    <polyline points="254.281,699.9292 258.4779,711.3917 285.1991,703.4637 279.5324,680.7229"/>
    <polyline points="273.4348,687.0906 276.3579,698.8211 262.9973,702.7851 258.0202,689.1919 264.3396,687.0703"/>
    <polyline points="253.3448,652.5452 268.3684,666.1562 293.4646,639.9481 277.5051,624.0301"/>
    <polyline points="302.9465,612.2265 321.1156,628.467 357.9172,585.5101 336.0255,565.9914"/>
    <polyline points="326.9417,570.0927 344.9633,586.1609 320.429,614.7988 302.6601,598.916"/>
    <line x1="302.2059" x2="302.8103" y1="577.8158" y2="577.1985"/>
    <polygon points="332.0095,586.8117 318.414,574.6898 305.2281,588.1571 319.7423,601.1306"/>
    <polyline points="325.7239,544.2766 336.2355,539.5306 326.2926,518.9272"/>
    <polyline points="298.6524,509.654 299.8881,513.6434 349.2395,498.333 344.3499,475.8307"/>
    <polyline points="330.5765,473.1054 334.1476,489.5397 309.4719,497.1949 308.0675,492.6609"/>
    <polyline points="307.7628,468.5911 350.0858,476.9657 363.8333,415.6611"/>
    <polyline points="368.0545,408.3237 390.2138,415.9612 411.0127,355.1191 395.5939,349.1324"/>
    <polyline points="392.1344,356.4403 400.9082,359.8469 385.309,405.4785 366.557,399.0154"/>
    <polyline points="365.0596,389.707 380.4042,394.9957 390.8037,364.5747 388.6748,363.7481"/>
    <polyline points="362.2794,372.4251 365.6483,363.4586 380.6992,369.3025 375.4994,384.513 363.5622,380.3987"/>
    <polyline points="344.4749,351.846 351.9901,398.5623 295.428,405.7673"/>
    <polyline points="278.4559,420.8999 277.5343,438.5289 269.6904,438.1059"/>
    <polyline points="270.7522,427.7686 274.9917,433.6023 209.4615,489.2724"/>
    <polyline points="196.2471,456.3532 211.0905,473.8013 260.2382,432.0488 253.8644,423.2785"/>
    <polyline points="246.9189,400.5506 265.0052,418.7369 311.5371,377.2485 290.7218,350.313 291.3249,351.0454"/>
    <polyline points="279.4653,353.9421 297.3879,375.7083 265.8424,403.8347 253.9634,391.89"/>
    <polyline points="261.0079,383.2295 266.6795,388.9325 282.4523,374.8693 268.4264,357.8355 266.0234,359.9321"/>
    <polyline points="264.5312,358.757 274.5171,366.6209 223.0487,429.8971 195.5163,408.2559"/>
    <polyline points="187.9464,422.2029 176.2944,452.3427 159.6142,445.2493"/>
    <polyline points="152.0941,384.0656 173.2407,390.3761 181.2514,364.9768 166.4169,361.0434"/>
    <line x1="154.6782" x2="153.8163" y1="362.2272" y2="364.9081"/>
    <polyline points="154.0517,362.2904 149.4364,413.6289 73.5026,410.381 73.9524,340.8248"/>
    <polyline points="86.9445,350.3875 86.635,398.2641 137.2575,400.4294 140.5638,363.6507"/>
    <polyline points="132.7131,360.4714 133.3776,364.3754 214.4284,356.2014 205.4006,299.9568"/>
    <polyline points="206.792,308.6252 226.951,310.9717 225.2287,331.1371 210.2023,329.8718"/>
    <polyline points="190.8375,296.5538 241.6347,308.4235 258.1961,247.3709"/>
    <polyline points="247.5143,234.3257 279.5098,250.5512 307.1423,200.9698 293.0126,193.4065"/>
    <polyline points="280.2457,195.122 297.2359,204.2164 276.5115,241.4025 253.4298,229.6972"/>
    <polyline points="259.3452,225.0688 273.5132,232.2537 287.3295,207.463 267.4789,196.8375"/>
    <line x1="258.6581" x2="256.4163" y1="198.0227" y2="203.242"/>
    <polyline points="252.5832,198.839 309.5078,191.1901 297.2999,129.3189"/>
    <polyline points="301.9665,121.7801 307.1514,134.4648 347.616,119.7283 331.6824,78.3631 311.3495,86.6689"/>
    <polyline points="288.4221,72.3154 344.3091,49.4861 376.1763,132.2166 303.1212,158.822"/>
    <polyline points="307.1465,179.223 317.4237,190.4578 350.3807,162.3102 336.3137,146.7338"/>
    <polyline points="358.7225,138.5729 381.7057,164.0223 315.7917,220.3175 308.748,212.6174"/>
    <polyline points="311.1896,215.2865 311.1489,220.388 326.3605,222.9362 327.6402,210.198"/>
    <polyline points="336.6176,202.5307 333.6654,231.9162 303.2421,226.8198 303.2771,222.4339"/>
    <polyline points="305.7795,191.6911 317.0487,197.7232 282.5081,259.7 241.5989,238.9541"/>
    <polyline points="237.6269,242.0619 251.426,245.1903 236.5033,300.2017 201.3657,291.9911"/>
    <polyline points="208.6367,286.6673 231.3719,291.9798 242.5639,250.7213 230.1551,247.9081"/>
    <polyline points="222.6833,253.7543 233.7018,256.2522 226.2405,283.7579 206.0196,279.033"/>
    <line x1="201.7417" x2="204.498" y1="266.5541" y2="252.4014"/>
    <line x1="197.1553" x2="198.5889" y1="253.1753" y2="245.8144"/>
    <line x1="192.5689" x2="192.6798" y1="239.7964" y2="239.2274"/>
    <polyline points="199.2088,233.695 213.5278,249.6567 255.6738,216.6802 239.3042,197.8771"/>
    <polyline points="249.1809,194.931 268.9059,217.5882 212.7112,261.5568 192.223,238.7872 209.2852,288.559 140.1889,318.5041 135.6933,305.5557"/>
    <polyline points="132.7571,312.6391 138.1457,316.3255 117.7122,348.6241 86.0231,325.2997 104.7653,301.2021"/>
    <polyline points="96.5053,296.858 72.5848,327.6134 120.1184,362.6 150.7688,314.1522 150.56,314.0094"/>
    <polyline points="160.2325,309.8175 163.3918,311.9788 122.5247,376.5759 59.1465,329.9271 88.2452,292.5138"/>
    <polyline points="86.6683,250.1898 71.2409,283.5709 131.6393,315.3357 154.0773,261.2052"/>
    <polyline points="150.9388,268.7766 156.3554,284.3775 179.3875,274.3958 172.1872,253.3921"/>
    <polyline points="182.2051,246.0897 194.3363,281.4774 148.2721,301.4408 143.316,287.1661"/>
    <polyline points="171.3831,304.985 176.4813,303.7281 181.1019,332.5153 154.0849,335.24 152.9382,328.5024"/>
    <polyline points="142.8257,344.4869 143.7313,349.8077 197.7652,344.3583 190.1405,296.8559"/>
    <polyline points="210.4071,258.9885 207.7905,272.4239 221.109,275.5361 224.8397,261.7832 215.2116,259.6004"/>
    <polyline points="206.1572,228.63 214.3444,237.7565 242.4417,215.7722 229.4275,200.8233"/>
    <polyline points="219.5508,203.7694 229.2097,214.8642 215.161,225.8563 213.1055,223.5651"/>
    <line x1="206.6544" x2="210.9085" y1="210.3594" y2="206.3473"/>
    <polyline points="204.939,208.128 215.4773,221.8362 156.5952,264.7578 144.03,247.0298"/>
    <polyline points="150.9088,236.1124 159.2097,247.8239 198.4644,219.2095 192.7423,211.7662"/>
    <polyline points="178.9778,193.8614 178.7461,193.56 183.9725,214.3821 265.4953,190.0646 253.6305,132.5411 278.4598,145.7162 309.7041,95.2413 254.2258,60.5096 249.9351,69.8177"/>
    <polyline points="242.721,66.5767 250.9031,48.827 320.251,92.2416 281.1956,155.3352 255.5226,141.7144"/>
    <line x1="257.2938" x2="268.7886" y1="150.3017" y2="148.7527"/>
    <polyline points="278.1437,153.716 281.5137,170.7955 262.06,173.4094"/>
    <polyline points="264.4841,185.1618 295.5107,180.9928 288.2118,144.0007"/>
    <polyline points="253.1339,124.112 275.724,136.0972 299.1573,98.241 257.5485,72.1922 250.9219,86.5676"/>
    <polyline points="251.9087,103.3175 260.8712,83.8749 288.6104,101.2407 272.9882,126.4781 252.6371,115.6809"/>
    <polygon points="257.4946,110.0905 270.2524,116.8591 278.0635,104.2404 264.1939,95.5575"/>
    <polyline points="233.4781,140.1412 240.7365,175.3313 199.9751,187.4901 199.1093,183.9333"/>
    <polyline points="167.7492,198.7589 181.4515,216.5828 161.8242,230.89 150.7353,215.2449"/>
    <line x1="150.6874" x2="161.2892" y1="209.4938" y2="201.8129"/>
    <polyline points="150.6653,206.8354 150.9964,246.646 81.5673,250.4709 77.9865,186.0098"/>
    <polyline points="86.6346,191.5539 89.4004,241.3422 141.4722,238.4736 141.0745,190.6494"/>
    <polyline points="139.9586,188.3933 149.3802,207.4429 214.4581,176.6771 193.123,133.2187"/>
    <polyline points="198.2464,143.6547 253.9579,138.0988 249.6949,65.7415 179.5806,74.1383"/>
    <polyline points="197.1756,90.7615 232.8363,86.4908 234.9678,122.6694 200.6617,126.0907 200.3636,123.8954"/>
    <polyline points="184.5196,144.2967 197.7849,171.3174 154.3997,191.828 147.2995,177.472"/>
    <polyline points="154.6403,166.5507 159.4191,176.2131 181.1118,165.9578 175.9162,155.3747"/>
    <polyline points="158.0729,161.4439 122.4159,214.4923 54.4471,170.9194 75.6993,141.1197"/>
    <polygon points="76.8221,148.4416 151.3785,140.9336 148.4187,66.6763 63.9276,64.3584"/>
    <polyline points="80.9956,148.0213 66.1376,168.8551 120.5127,203.7135 152.6881,155.8448"/>
    <polyline points="139.498,142.13 165.337,168.9968 213.8568,106.5212 163.7394,59.172 148.6363,72.1333"/>
    <polyline points="149.5741,95.6625 164.089,83.2061 189.1477,106.8807 164.8878,138.1185 150.6774,123.3427"/>
    <polygon points="125.7259,118.4713 124.7393,93.7188 96.5756,92.9462 100.8738,120.9739"/>
    <polyline points="128.7576,143.2116 144.0407,155.0994 118.6094,192.9346 77.8281,166.7909 92.0046,146.9127"/>
    <polyline points="103.0136,145.804 89.5186,164.7266 116.7061,182.1558 133.6603,156.9323 117.4808,144.3472"/>
    <polygon points="114.8029,171.377 123.28,158.7652 110.8717,149.1135 101.2091,162.6624"/>
    <polyline points="97.5127,198.5275 95.3844,198.9268 97.2335,232.2135 131.948,230.3011 131.7016,200.6776"/>
    <polyline points="122.36,214.4564 122.4238,222.1286 105.0665,223.0848 104.142,206.4415 108.5637,205.612"/>
    <polyline points="109.6656,248.9229 135.9511,258.3187 122.2694,291.325 92.0703,275.4426 104.1871,249.2247"/>
    <polygon points="115.3059,334.6481 125.5227,318.4989 110.7901,308.4201 99.4613,322.986"/>
    <polyline points="99.9795,359.9817 99.7673,386.1472 125.0785,387.2298 126.618,370.1058"/>
    <polyline points="255.2568,335.8959 257.212,342.5556 290.9141,331.6898 278.9738,305.5779"/>
    <polyline points="295.7645,294.8657 347.5098,309.3953 365.6681,235.7961 357.9438,235.3271"/>
    <polyline points="363.8954,242.981 374.4962,251.9326 408.4119,210.071 388.4901,194.0912"/>
    <polyline points="374.0057,199.5825 389.5033,212.0136 372.5454,232.9444 359.3063,221.7649"/>
    <polyline points="387.108,257.762 397.2902,265.8967 372.1363,296.347 354.8495,279.6458"/>
    <polyline points="350.9037,295.639 375.1842,328.1622 311.5024,377.2753"/>
    <polyline points="304.4007,345.9028 314.0201,358.4076 356.4747,325.6655 343.4841,308.2649"/>
    <polyline points="322.1706,302.2803 337.7652,323.1689 316.5379,339.5399 307.4772,327.7614"/>
    <line x1="302.2946" x2="321.0461" y1="316.4278" y2="301.9646"/>
    <polyline points="320.5013,279.0839 328.5404,281.3412 334.5931,256.8082 311.3167,255.3948"/>
    <polyline points="285.1545,254.9515 296.3197,271.7249 263.6495,292.568 250.2181,276.7815"/>
    <polyline points="265.2606,220.4404 270.5149,223.1049 277.4231,210.7096 264.1188,203.5882 261.6736,209.2809"/>
    <polyline points="362.6166,142.8848 402.1135,150.4278 408.4275,79.6293 352.0606,69.61"/>
    <polyline points="356.7933,81.8964 395.8166,88.8329 391.6073,136.0319 374.6121,132.7862"/>
    <polyline points="371.3861,119.7807 381.101,121.636 383.2056,98.0365 361.526,94.1829"/>
    <polyline points="369.6183,150.6379 376.5627,148.7164 381.0918,163.3425"/>
    <polyline points="381.3867,164.2947 382.0189,166.3364 376.5834,168.3971"/>
    <line x1="417.7178" x2="421.6716" y1="200.4259" y2="197.6232"/>
    <polyline points="425.7342,196.9328 440.3289,216.4512 419.662,231.9813 413.7548,224.8723"/>
    <polyline points="429.3879,304.8802 445.4178,320.3741 422.47,346.942 404.9854,329.2943"/>
    <polygon points="422.3019,333.8071 433.7757,320.5232 421.9859,309.1275 409.4492,320.8347"/>
    <line x1="459.2283" x2="459.7672" y1="394.0082" y2="395.551"/>
    <polyline points="459.4149,395.4851 467.5536,397.0074 454.0747,475.1407 406.5184,466.7328"/>
    <polyline points="410.1765,453.3445 443.4277,459.2232 451.9791,409.6534"/>
    <polyline points="460.7223,395.7296 496.394,388.3486 491.8358,362.7738"/>
    <polyline points="564.2784,383.1162 571.9097,394.4479 597.7741,379.0149 586.8675,360.6008"/>
    <polyline points="575.7952,362.6152 621.8291,354.2401 610.6047,308.227"/>
    <line x1="611.4775" x2="620.8315" y1="311.805" y2="305.9493"/>
    <polyline points="614.5508,300.1213 630.878,315.2717 674.3938,264.8259 663.1224,254.8989"/>
    <line x1="664.2964" x2="664.925" y1="255.933" y2="254.9687"/>
    <line x1="666.077" x2="669.613" y1="253.2014" y2="247.7768"/>
    <polyline points="666.333,247.4583 716.3537,252.3158 716.5735,186.5938"/>
    <polyline points="709.2278,191.1096 709.0487,244.6439 666.642,240.5258"/>
    <polyline points="666.9509,233.5932 701.7437,236.9719 701.882,195.6253"/>
    <polyline points="694.5362,200.1411 694.4387,229.3 667.2599,226.6607"/>
    <polyline points="667.7866,214.8434 668.5707,216.1033 739.2537,172.6512 720.3176,145.4419"/>
    <polyline points="670.3071,108.0565 672.069,117.975 689.873,114.5006 687.1539,97.1064 672.6555,98.7728"/>
    <polyline points="618.246,89.4787 618.4134,88.7689 644.5658,98.5375 637.8441,125.1092 614.799,116.9402"/>
    <polyline points="600.3023,146.7288 614.379,163.548 573.7389,199.0155 568.1636,192.6918"/>
    <polyline points="568.0842,197.8123 582.8908,210.7425 528.5295,273.5052 511.2649,257.7"/>
    <polyline points="511.2898,215.339 526.0412,228.8434 539.6315,213.1528 524.4272,199.8752 512.3271,212.9678"/>
    <polyline points="518.6465,198.5221 568.0467,200.2324 569.4017,112.8396 563.9193,113.1154"/>
    <polyline points="567.4788,112.9363 569.2919,98.3353 587.7205,98.0516 585.2878,117.4322 569.3603,115.5086"/>
    <polyline points="569.2185,124.6525 593.8249,127.6244 598.6903,88.8631 562.7348,89.4166"/>
    <polyline points="562.2844,80.4039 609.6602,79.6746 602.3621,137.8165 569.0767,133.7964"/>
    <polyline points="568.935,142.9404 610.8992,148.0086 620.63,70.486 561.8339,71.3912"/>
    <polyline points="521.7989,89.794 543.4675,88.2094 545.386,126.5929 507.6353,125.6559"/>
    <line x1="568.838" x2="575.4387" y1="149.192" y2="143.7258"/>
    <polyline points="580.7458,144.3668 595.5649,162.0731 575.2448,179.8068 568.4823,172.1366"/>
    <line x1="626.3314" x2="615.6339" y1="253.4762" y2="265.097"/>
    <polyline points="615.4638,270.5979 629.1525,283.3001 643.6577,266.4848 629.0047,253.5795"/>
    <polyline points="646.0635,254.2392 659.0258,265.6554 630.0153,299.2859 615.0073,285.3596"/>
    <polyline points="639.578,305.1862 651.7902,327.4343 622.0529,342.3473 616.348,331.771"/>
    <line x1="613.6381" x2="613.6381" y1="360.0101" y2="360.0101"/>
    <polyline points="573.5242,366.6578 579.3337,363.1362 587.2624,376.5226 574.3302,384.2391 568.506,375.5907"/>
    <polyline points="675.6157,398.2097 706.3828,392.6368 703.281,374.069"/>
    <polyline points="661.4746,279.8025 686.8295,293.9995 707.9659,259.9325 687.5666,249.5203"/>
    <polyline points="671.5867,262.3537 676.5356,254.7616 693.8973,263.6234 683.3291,280.6569 668.0956,272.1271"/>
    <polyline points="673.152,213.287 673.1932,220.2743 687.1337,221.6281 687.1828,206.9538 683.4752,206.9409"/>
    <polyline points="420.8734,414.1938 437.2737,417.2613 432.7807,443.3058 413.8345,439.9561"/>
    <polyline points="392.1182,483.173 377.3241,507.1068 362.0529,496.6408"/>
    <polyline points="320.0557,471.0236 284.4371,535.311 245.3231,518.3319"/>
    <polyline points="249.987,496.7467 275.9769,508.0287 295.9837,471.9187 294.8666,471.2648"/>
    <polyline points="239.5081,740.8011 229.4689,774.5211 204.6315,766.5919"/>
    <polygon points="88.8479,134.7077 138.5522,129.7024 136.579,80.1976 80.2516,78.6523"/>
  </g>
</svg>
