<?xml version="1.0" encoding="utf-8" ?>
<svg xmlns="http://www.w3.org/2000/svg" xmlns:cc="http://creativecommons.org/ns#" xmlns:dc="http://purl.org/dc/elements/1.1/" xmlns:ev="http://www.w3.org/2001/xml-events" xmlns:inkscape="http://www.inkscape.org/namespaces/inkscape" xmlns:rdf="http://www.w3.org/1999/02/22-rdf-syntax-ns#" xmlns:sodipodi="http://sodipodi.sourceforge.net/DTD/sodipodi-0.dtd" xmlns:xlink="http://www.w3.org/1999/xlink" baseProfile="tiny" height="29.7cm" version="1.2" viewBox="0 0 793.7007874015749 1122.5196850393702" width="21.0cm">
  <metadata>
    <rdf:RDF>
      <cc:Work>
        <dc:format>image/svg+xml</dc:format>
        <dc:source/>
        <dc:date>2022-03-21T21:50:33.449550</dc:date>
      </cc:Work>
    </rdf:RDF>
  </metadata>
  <defs/>
  <g fill="none" id="layer1" inkscape:groupmode="layer" inkscape:label="1" stroke="#00f" style="display:inline">
    <polyline points="710.2487,977.2442 718.0187,973.7239 701.9407,1070.2009 669.5446,1041.5397"/>
    <polyline points="664.5662,1028.6301 696.9422,1057.2736 706.1213,1002.1939"/>
    <polyline points="699.3779,999.7367 691.9437,1044.3463 659.5877,1015.7205"/>
    <line x1="659.1573" x2="695.2738" y1="1014.6043" y2="998.2412"/>
    <line x1="686.5806" x2="656.8244" y1="995.0736" y2="1008.555"/>
    <line x1="654.4916" x2="677.8874" y1="1002.5057" y2="991.9059"/>
    <polyline points="669.7063,977.6242 700.4988,988.8446 695.6624,938.2162"/>
    <polyline points="700.8428,935.6137 706.6829,996.7483 661.3089,980.2146"/>
    <polyline points="652.9115,982.805 712.8669,1004.6519 706.0233,933.0113"/>
    <line x1="674.9631" x2="659.661" y1="948.6148" y2="960.8696"/>
    <polyline points="656.2958,957.9925 676.7259,975.4589 605.6809,997.3744"/>
    <polyline points="605.6039,998.1009 618.0448,998.7151 603.1927,1020.8672"/>
    <polyline points="602.5097,1021.8859 576.499,1060.6813 559.9375,1028.2087"/>
    <polyline points="565.7737,1024.0399 577.2889,1046.6181 596.8383,1017.4598"/>
    <polyline points="591.1669,1013.0337 578.0788,1032.5549 571.6098,1019.871"/>
    <line x1="583.3616" x2="589.564" y1="1011.4765" y2="1011.7828"/>
    <line x1="579.6649" x2="565.972" y1="1004.0571" y2="1003.3811"/>
    <polyline points="569.7657,996.3315 545.4533,995.1002 584.3254,1010.7881 508.1786,1065.1807 501.8727,1027.6311"/>
    <polyline points="506.4311,1022.6295 512.0088,1055.8429 572.9262,1012.3288 543.1614,1000.3164"/>
    <polyline points="540.8695,1005.5326 561.5271,1013.8695 515.839,1046.5051 510.9896,1017.6279"/>
    <polyline points="515.548,1012.6263 519.6693,1037.1673 550.128,1015.4102 538.5776,1010.7488"/>
    <polyline points="536.2858,1015.965 538.7288,1016.9509 534.5369,1019.9453"/>
    <polyline points="531.3451,1022.2252 523.4995,1027.8294 520.4326,1009.567 523.9272,1010.9773"/>
    <polyline points="521.0403,1006.6 467.4514,1065.3989 456.3318,1035.0516"/>
    <polyline points="461.9947,1033.09 469.5362,1053.6721 514.3264,1004.5273 474.8156,998.9611"/>
    <polyline points="466.9376,1004.3157 501.4812,1009.1821 471.6211,1041.9453 467.6577,1031.1285"/>
    <polyline points="473.3206,1029.167 473.7059,1030.2184 475.284,1028.4869"/>
    <polyline points="480.2493,1023.0389 488.6359,1013.8368 466.5641,1010.7274 467.8191,1014.1524"/>
    <polyline points="460.336,1008.8026 483.7621,1025.5502 396.359,1055.825 397.5126,1038.5423"/>
    <polyline points="404.0758,1035.3502 403.3322,1046.4916 468.8845,1023.7856 453.9747,1013.1264"/>
    <line x1="452.7971" x2="422.9188" y1="1012.2845" y2="990.9241"/>
    <line x1="407.3305" x2="406.3353" y1="986.592" y2="1001.5012"/>
    <polyline points="412.4268,1005.3752 413.2602,992.8906 454.0069,1022.0209 410.3053,1037.1583 410.6391,1032.1582"/>
    <polyline points="425.1663,1025.0928 439.1293,1020.2563 418.7559,1005.6911 418.5184,1009.2492"/>
    <line x1="400.2437" x2="401.0959" y1="997.6273" y2="984.8593"/>
    <polyline points="396.9855,983.717 465.4002,1002.7302 446.1006,948.1274"/>
    <line x1="452.4382" x2="455.6936" y1="946.4704" y2="975.268"/>
    <line x1="449.2232" x2="450.5257" y1="998.2344" y2="1001.7891"/>
    <line x1="451.7061" x2="443.2197" y1="1002.633" y2="996.566"/>
    <polyline points="451.2733,998.8042 452.9695,1013.8095 526.7154,963.6857"/>
    <polyline points="520.6738,967.792 528.6621,979.9047 532.4647,971.2503"/>
    <polyline points="514.8674,971.7385 529.9946,994.6759 549.9848,949.1791 544.4502,949.7393"/>
    <line x1="547.7341" x2="559.1751" y1="942.5762" y2="941.4182"/>
    <polyline points="560.0523,944.0697 531.3271,1009.447 509.0611,975.685"/>
    <polyline points="503.2547,979.6315 532.6595,1024.2182 563.4124,954.2261"/>
    <line x1="563.8537" x2="562.5937" y1="955.5603" y2="956.0893"/>
    <polyline points="557.5244,967.6269 590.9548,993.7171 596.4454,941.8759 578.1659,949.5509"/>
    <polygon points="587.657,953.5047 564.2771,963.3214 584.9118,979.4253"/>
    <polyline points="591.645,935.9525 605.2337,930.247 596.9979,1008.0088 554.3914,974.7574"/>
    <polyline points="551.2584,981.8879 603.0409,1022.3005 611.8083,939.5206"/>
    <line x1="613.1213" x2="610.1359" y1="943.6135" y2="955.3105"/>
    <polyline points="619.4643,963.3862 614.6356,982.3055 653.5668,970.2962 633.1549,952.8454"/>
    <line x1="640.2923" x2="647.9891" y1="944.3107" y2="950.8909"/>
    <polyline points="649.2045,933.6537 647.1649,962.5796 739.4882,916.1997 694.486,883.7084"/>
    <polyline points="685.7103,886.6525 725.1028,915.0937 655.8603,949.8786 657.7226,923.468"/>
    <polyline points="666.2407,913.2822 664.5558,937.1776 710.7175,913.9876 682.6173,893.6995"/>
    <line x1="679.4437" x2="676.9345" y1="891.4082" y2="889.5965"/>
    <polyline points="673.6825,890.6875 684.0515,891.9846 620.816,967.5999 606.0135,921.4569"/>
    <line x1="606.1616" x2="605.1241" y1="921.9185" y2="922.3542"/>
    <polyline points="611.2075,916.2169 623.2139,953.6438 670.6405,896.9323 659.2973,895.5134"/>
    <polyline points="663.9191,893.9629 645.8639,900.02 647.6611,890.5299"/>
    <polyline points="647.0084,893.9762 602.2778,888.3807 602.6231,889.4572"/>
    <polyline points="595.0031,887.1346 592.9012,880.5824 611.6718,882.9305"/>
    <polyline points="592.5842,878.9 669.3942,895.119 651.2339,827.241"/>
    <line x1="660.231" x2="656.1596" y1="824.1517" y2="845.6516"/>
    <line x1="667.0559" x2="661.6646" y1="837.7583" y2="866.2279"/>
    <polyline points="666.2455,883.3499 719.1422,865.6044 692.4865,842.7336"/>
    <polyline points="697.2232,834.4341 737.7399,869.1978 668.6594,892.3726"/>
    <polyline points="677.7783,899.4859 696.3321,912.8816 673.2513,924.4766 674.7588,903.0965"/>
    <polyline points="628.9279,898.3398 657.2296,901.8801 625.6119,939.6878 616.4016,910.9769"/>
    <polyline points="621.5956,905.737 628.0098,925.7317 643.8187,906.8278 623.0851,904.2342"/>
    <polyline points="588.1487,885.0453 629.5861,897.6757 565.9446,961.8804 554.6021,927.5955"/>
    <line x1="556.9885" x2="551.0181" y1="934.8088" y2="935.4131"/>
    <polyline points="560.3139,915.1369 570.2527,945.1788 612.6803,902.3757 582.3196,893.1215"/>
    <polyline points="576.4905,901.1977 595.7745,907.0756 574.5607,928.4772 566.0256,902.6783"/>
    <line x1="567.9043" x2="573.1708" y1="898.5806" y2="900.1859"/>
    <polyline points="570.2973,893.3609 533.7893,972.9931 503.4875,933.1233"/>
    <polyline points="510.1725,931.3754 532.4974,960.7496 566.9917,885.5096"/>
    <line x1="565.4969" x2="515.3348" y1="881.9592" y2="886.7574"/>
    <polyline points="502.5451,894.5221 558.4044,889.179 531.2054,948.5061 516.8575,929.6276"/>
    <polyline points="523.5425,927.8798 529.9135,936.2626 548.0462,896.7112 508.4662,900.4971"/>
    <polyline points="518.2421,910.3621 515.2248,906.392 537.6879,904.2434 529.6193,921.8429"/>
    <line x1="508.4988" x2="492.5786" y1="939.7169" y2="941.3284"/>
    <line x1="485.4359" x2="519.8302" y1="937.843" y2="954.6263"/>
    <line x1="518.14" x2="515.7653" y1="952.4024" y2="952.6428"/>
    <line x1="513.3194" x2="504.172" y1="946.0597" y2="946.9856"/>
    <polygon points="489.7422,963.9422 467.3393,953.0103 470.0854,977.3026"/>
    <line x1="494.7793" x2="496.4851" y1="985.3921" y2="995.5495"/>
    <polyline points="502.0143,996.3284 499.7412,982.7929 507.3701,985.8718"/>
    <polyline points="512.8892,994.2403 506.6383,991.7176 507.5434,997.1073"/>
    <line x1="515.5211" x2="482.6936" y1="998.2312" y2="993.6066"/>
    <polyline points="463.7869,998.1659 517.6452,961.5594 474.762,940.6337"/>
    <polyline points="464.0881,943.4245 503.6937,962.7508 464.3801,989.4716 459.3158,944.6722"/>
    <polyline points="458.5913,926.4689 457.8784,930.7534 504.4554,918.5756 487.1417,901.1042"/>
    <polyline points="491.2014,891.778 575.7408,874.1906 551.8562,848.946"/>
    <polyline points="552.5872,842.5374 637.5521,817.6455 596.6058,779.3053"/>
    <line x1="602.636" x2="616.2389" y1="784.9517" y2="782.1601"/>
    <line x1="619.7343" x2="608.2877" y1="787.8946" y2="790.2436"/>
    <line x1="613.9393" x2="623.2297" y1="795.5356" y2="793.629"/>
    <line x1="626.7251" x2="619.591" y1="799.3635" y2="800.8275"/>
    <polyline points="633.3222,798.0096 641.0589,796.4219 634.1385,814.4492"/>
    <polyline points="626.4307,820.9037 634.7065,832.0777 651.7101,787.7842 638.1843,790.56"/>
    <polyline points="643.0464,783.1104 662.3613,779.1466 636.8559,845.5868 619.9755,822.7949"/>
    <polyline points="613.5203,824.686 639.0053,859.0959 669.744,779.0235"/>
    <line x1="665.1089" x2="647.9086" y1="772.131" y2="775.6608"/>
    <polyline points="657.5493,760.8896 688.7863,807.3403 717.1677,725.1527 700.4056,726.9567"/>
    <polyline points="697.8241,732.9241 708.3625,731.7899 687.0764,793.4306 661.3142,755.1211"/>
    <polyline points="665.0791,749.3527 685.3665,779.5209 699.5572,738.4271 695.2427,738.8914"/>
    <polyline points="677.753,746.4632 671.2507,747.163 683.6566,765.6112 686.1336,758.4383"/>
    <line x1="674.0501" x2="670.1439" y1="741.1722" y2="741.5926"/>
    <polyline points="672.1709,738.4869 629.4842,803.89 601.4271,757.8603"/>
    <polyline points="603.6322,748.0521 629.7151,790.8429 667.8841,732.3616"/>
    <line x1="666.2778" x2="654.0094" y1="730.0663" y2="729.7931"/>
    <polyline points="652.3537,737.2342 656.361,737.3234 650.2506,746.6856"/>
    <polyline points="645.7356,753.6034 629.946,777.7957 605.8373,738.2438"/>
    <line x1="606.2949" x2="627.6941" y1="736.2085" y2="736.6851"/>
    <line x1="619.5257" x2="607.9678" y1="729.0252" y2="728.7678"/>
    <line x1="607.3028" x2="599.8807" y1="721.275" y2="721.1097"/>
    <polyline points="598.8803,723.5494 609.8042,720.5995 591.9514,800.0078 551.6519,756.8218"/>
    <line x1="556.3253" x2="556.1338" y1="761.8299" y2="762.9706"/>
    <line x1="557.0814" x2="549.1223" y1="762.6402" y2="765.4155"/>
    <polyline points="561.1981,767.0518 550.3372,862.2614 504.2651,827.5719"/>
    <line x1="509.391" x2="487.5481" y1="831.4313" y2="833.6515"/>
    <polygon points="493.6858,844.8131 453.1748,848.9308 478.4965,879.7068"/>
    <polyline points="510.9673,832.6182 481.2022,900.9962 456.6949,871.2098"/>
    <polyline points="458.6212,882.5513 482.5551,911.6408 515.476,836.013"/>
    <polyline points="517.5473,837.5725 502.3917,880.8352 559.6038,868.9329 550.6551,859.4747"/>
    <polyline points="563.3145,876.7758 574.6629,903.7299 621.5272,838.7994 573.686,836.3562"/>
    <polyline points="553.4658,834.8354 622.8812,814.499 594.6388,788.0541"/>
    <polyline points="592.6719,796.803 608.2104,811.3525 560.5675,825.3103 568.954,775.3631"/>
    <line x1="562.6396" x2="557.594" y1="768.5965" y2="798.6465"/>
    <polyline points="543.8667,783.2706 544.6112,783.011 538.8335,833.6605 522.122,821.0777"/>
    <line x1="510.1416" x2="527.1344" y1="795.0304" y2="789.1051"/>
    <line x1="515.6892" x2="498.087" y1="777.0735" y2="783.2113"/>
    <polyline points="498.0598,783.6449 533.4214,816.9683 432.5246,853.6624 437.1076,831.5536"/>
    <polyline points="434.1888,845.634 432.5625,836.0585 411.5253,853.5902"/>
    <polyline points="416.0027,857.5753 428.4071,847.238 431.8691,867.6222 423.9387,864.6388"/>
    <polyline points="425.4048,871.5294 439.4865,876.8269 435.3762,852.6254"/>
    <polyline points="441.0781,850.5517 447.104,886.0315 416.3733,874.4709"/>
    <polyline points="407.3418,877.4123 454.7214,895.2362 446.7801,848.478"/>
    <polyline points="452.482,846.4043 462.3388,904.4409 398.3103,880.3538"/>
    <line x1="396.3653" x2="396.1461" y1="880.9872" y2="888.4822"/>
    <line x1="405.6505" x2="405.896" y1="891.6012" y2="883.2075"/>
    <polyline points="415.1549,894.7203 415.1803,893.85 417.7569,895.5742"/>
    <polyline points="426.3275,901.3095 443.5595,912.8409 414.2064,927.1509 414.6774,911.0445"/>
    <polyline points="404.8415,919.2635 404.1611,942.5262 462.8673,913.9062 431.2402,892.7418"/>
    <polyline points="461.8131,901.3455 482.1751,914.9715 394.1159,957.9015 395.0055,927.4825"/>
    <line x1="382.4738" x2="394.4961" y1="937.9542" y2="944.8993"/>
    <polyline points="406.5285,951.8502 429.9862,965.4012 345.0431,1012.5457 345.0233,1006.2746"/>
    <polyline points="345.0369,1010.5872 306.2019,1003.4035 314.081,1044.5577 348.6225,1011.2505 347.6882,1011.0776"/>
    <polyline points="356.0116,1006.458 362.3469,1007.6299 310.5347,1057.5907 298.716,995.8595 340.4632,1003.5819"/>
    <polygon points="334.8981,1014.8711 313.6877,1010.9476 317.6273,1031.5246"/>
    <polyline points="343.6688,1035.254 344.789,1064.1847 435.5163,1020.059 387.0455,989.2338"/>
    <polyline points="370.9355,998.1751 404.1145,1019.2753 358.7508,1041.3382 357.9809,1021.4533"/>
    <polyline points="364.3351,1001.8384 376.0713,1004.0093 306.9884,1070.6237 298.5376,1026.4836"/>
    <polyline points="277.4325,1009.4331 280.9442,1031.8491 265.3664,1027.3494"/>
    <polyline points="251.5737,1033.456 292.2537,1045.2065 284.5938,996.311"/>
    <line x1="292.5978" x2="325.2745" y1="988.5684" y2="994.6129"/>
    <polyline points="295.2092,976.8594 347.2874,1007.6115 345.8757,921.7351"/>
    <polyline points="347.1093,920.0745 358.1576,958.273 428.839,899.211 384.7927,884.7563"/>
    <polyline points="372.9462,888.6146 414.8074,902.3521 361.7964,946.6487 352.1482,913.2912"/>
    <polyline points="357.1872,906.5079 365.4351,935.0243 400.7758,905.4933 366.3366,894.1914"/>
    <polyline points="369.692,889.6744 318.0921,959.1364 301.5675,926.4439"/>
    <line x1="303.5031" x2="305.7048" y1="934.7771" y2="934.6291"/>
    <polyline points="300.8447,947.0038 271.2623,1001.2098 259.5195,982.797"/>
    <polyline points="268.668,980.3798 270.4485,983.1717 272.5288,979.3597"/>
    <polyline points="275.1065,974.6365 286.001,954.6735 255.5383,956.721"/>
    <line x1="246.014" x2="291.1755" y1="948.0011" y2="944.9657"/>
    <line x1="306.6317" x2="313.944" y1="955.9291" y2="950.9298"/>
    <polyline points="311.7399,946.5691 272.0762,1019.2479 250.3711,985.2142"/>
    <line x1="254.4992" x2="243.223" y1="991.6871" y2="1000.4833"/>
    <line x1="251.7448" x2="259.9805" y1="1006.7061" y2="1000.2818"/>
    <line x1="265.4617" x2="260.2667" y1="1008.8764" y2="1012.9289"/>
    <polyline points="237.7809,1039.5626 303.5633,1058.5639 291.755,983.1889"/>
    <polyline points="298.9318,970.0383 338.5828,993.4522 337.6177,934.7442 334.7609,936.6974"/>
    <polyline points="320.31,956.1507 329.3957,949.9389 329.8782,979.2929 306.5819,965.5365 317.5401,958.0445"/>
    <polyline points="358.78,957.7529 358.8779,988.8397 401.3494,965.2674 370.8632,947.6561"/>
    <line x1="411.9419" x2="420.7365" y1="954.9774" y2="944.9236"/>
    <polyline points="433.4849,938.7086 451.684,990.198 407.4551,977.9063"/>
    <polyline points="417.9246,972.0956 437.9678,977.6658 427.8162,948.9445 418.9815,959.044"/>
    <line x1="442.1111" x2="441.4065" y1="936.8402" y2="934.8467"/>
    <polyline points="442.5343,934.2969 439.9662,949.7313 533.1201,925.3757 498.3517,890.2905"/>
    <polygon points="514.8607,869.6264 543.4667,863.6752 524.1118,843.2182"/>
    <polygon points="464.4828,853.6741 477.1436,869.0622 484.7382,851.6153"/>
    <polyline points="454.7687,859.8683 479.8494,890.3515 502.6333,838.0109 465.0599,841.83"/>
    <polyline points="455.1615,824.5182 454.1576,829.361 504.606,811.0139 474.2359,782.3943"/>
    <line x1="465.3638" x2="460.6398" y1="775.301" y2="798.0902"/>
    <line x1="446.2778" x2="451.1276" y1="787.3152" y2="763.9192"/>
    <polyline points="449.488,762.6084 496.9952,800.5903 502.3142,715.9253 501.2046,716.3866"/>
    <polyline points="502.5527,713.1498 526.0967,755.1961 575.4194,671.9522 562.9381,671.4451"/>
    <line x1="572.4533" x2="609.4344" y1="676.9581" y2="673.1577"/>
    <polyline points="608.6218,670.198 617.2917,701.7743 676.9847,630.661 737.9518,584.025 687.0326,565.9776"/>
    <polyline points="662.0774,585.728 659.9967,563.2583 723.9505,585.9256 668.3425,628.4622"/>
    <line x1="665.9789" x2="664.9723" y1="627.8609" y2="616.9906"/>
    <polyline points="671.3594,616.4076 671.4404,617.283 672.7509,616.2806"/>
    <polyline points="680.8669,610.0723 709.9492,587.8262 667.3134,572.7147 669.3965,595.2109"/>
    <polygon points="676.6936,604.4552 695.948,589.7268 674.63,582.171"/>
    <polyline points="684.1227,625.2009 711.9525,619.3827 690.1966,689.6166 660.6961,650.2321"/>
    <polyline points="665.1384,644.957 687.4467,674.7395 701.9506,627.9169 674.6884,633.6164"/>
    <line x1="677.1432" x2="634.2693" y1="630.7014" y2="619.7931"/>
    <polyline points="624.7501,620.662 684.8091,615.1799 655.0476,576.62"/>
    <polyline points="646.5098,574.9444 673.9288,610.4694 622.0178,615.2078"/>
    <polyline points="619.2855,609.7535 663.0486,605.7589 634.4125,568.657"/>
    <line x1="624.46" x2="619.4895" y1="563.4844" y2="575.1342"/>
    <line x1="618.3558" x2="611.419" y1="577.7913" y2="594.0499"/>
    <polyline points="614.6511,600.5021 627.8571,569.55 652.1683,601.0484 616.5533,604.2992"/>
    <polygon points="621.648,598.1306 641.288,596.3379 629.1324,580.5887"/>
    <line x1="608.1868" x2="612.9544" y1="587.5977" y2="576.4234"/>
    <line x1="607.5529" x2="604.9546" y1="575.0556" y2="581.1455"/>
    <polyline points="601.0833,573.4173 626.3439,623.8437 537.2761,619.0192"/>
    <line x1="542.5693" x2="509.4147" y1="619.3059" y2="634.5228"/>
    <polyline points="504.5674,630.8199 528.0294,648.7426 468.3326,679.8167"/>
    <polyline points="473.2737,677.2447 511.5408,671.8052 481.1517,744.7668 453.5084,704.2245"/>
    <polyline points="456.8465,696.2665 479.3647,729.2923 499.6241,680.6513 461.0994,686.1274"/>
    <polyline points="462.4654,682.8707 433.1211,752.8287 411.1862,727.1483"/>
    <line x1="416.9122" x2="399.9455" y1="733.7244" y2="730.7048"/>
    <polyline points="398.9458,726.8497 416.0638,792.862 344.6965,773.7881"/>
    <line x1="342.7119" x2="362.536" y1="782.0801" y2="778.5559"/>
    <line x1="378.4407" x2="342.7543" y1="782.8067" y2="789.1507"/>
    <polyline points="341.4371,787.4064 370.5701,825.9855 283.2936,839.2203"/>
    <polyline points="282.8677,840.0846 302.562,840.5902 268.7307,891.4309 256.5261,870.6348"/>
    <polyline points="248.8328,874.8025 268.2788,907.9376 317.4528,834.0403"/>
    <polyline points="316.213,835.9034 357.554,832.9877 325.914,913.111 296.1198,866.0989"/>
    <polyline points="301.2284,858.4219 324.3339,894.8799 345.4272,841.4643 310.8918,843.9"/>
    <polyline points="278.3254,849.3043 286.0983,849.5039 269.1827,874.9242 264.2194,866.4671"/>
    <line x1="270.8324" x2="254.5861" y1="849.1119" y2="848.6948"/>
    <line x1="264.0351" x2="241.55" y1="839.6011" y2="839.0238"/>
    <polyline points="232.9158,832.6184 272.4974,861.9826 183.4994,910.1956 184.8104,886.1355"/>
    <line x1="183.8335" x2="184.5715" y1="889.3387" y2="890.5194"/>
    <polyline points="178.7016,906.1674 191.0429,925.9126 140.5336,926.9294"/>
    <line x1="140.6378" x2="162.2054" y1="926.4194" y2="893.3978"/>
    <line x1="152.6826" x2="148.088" y1="882.9382" y2="889.9728"/>
    <polyline points="150.1048,880.1068 132.5819,965.8289 61.6791,900.4393 101.0936,887.4497"/>
    <polyline points="104.936,895.8216 79.4586,904.2181 126.7271,947.8111 139.6963,884.3659 129.8502,887.6108"/>
    <polyline points="122.2151,899.7653 127.3569,898.0707 120.8724,929.7933 97.2381,907.9968 108.7784,904.1936"/>
    <polyline points="96.2912,932.3601 87.1969,1002.1744 163.7799,971.0427 135.6125,951.0031"/>
    <polyline points="133.9003,959.3792 147.5258,969.073 96.4705,989.8275 103.1343,938.6711"/>
    <polyline points="137.5306,941.6197 215.5293,940.0496 193.4877,904.7847"/>
    <line x1="194.186" x2="195.5088" y1="905.9019" y2="903.6898"/>
    <line x1="201.1932" x2="215.7893" y1="917.1129" y2="892.7032"/>
    <polyline points="220.0438,890.3984 241.2334,925.8033 205.1665,923.47"/>
    <polyline points="213.3287,936.5289 264.3711,939.831 231.1766,884.3674"/>
    <line x1="239.8411" x2="254.3803" y1="898.8446" y2="884.2553"/>
    <line x1="262.2896" x2="247.8483" y1="897.7323" y2="912.2234"/>
    <polyline points="254.2074,922.8486 288.1303,929.999 279.1957,891.532"/>
    <line x1="291.9025" x2="308.2398" y1="884.8319" y2="885.2231"/>
    <polyline points="313.8691,894.1054 293.9881,893.6295 319.1193,943.3495 354.9693,895.0894 353.1962,895.0469"/>
    <polygon points="362.5022,900.6789 369.0739,923.3999 386.7442,908.6344"/>
    <line x1="336.3509" x2="333.2361" y1="894.6437" y2="894.5691"/>
    <polyline points="329.814,903.2348 338.0715,903.4325 320.1465,927.5625 307.5809,902.7025 319.4983,902.9878"/>
    <line x1="336.6581" x2="338.0049" y1="885.9034" y2="885.9356"/>
    <line x1="337.2298" x2="336.9858" y1="885.9171" y2="885.0735"/>
    <polyline points="339.2651,879.3015 335.1584,900.9216 429.9992,870.0331 402.0956,845.1972"/>
    <line x1="402.5704" x2="403.9397" y1="845.6198" y2="844.4786"/>
    <line x1="407.0478" x2="421.332" y1="849.605" y2="837.7011"/>
    <polyline points="395.9424,847.5951 418.5419,867.71 342.6693,892.4208 350.6259,850.532"/>
    <line x1="347.9333" x2="348.7642" y1="833.6662" y2="829.2922"/>
    <line x1="354.8352" x2="353.9096" y1="828.3716" y2="833.2447"/>
    <polyline points="357.1398,828.0221 379.5838,857.9578 410.2928,791.3196"/>
    <polyline points="409.9549,792.0529 402.022,832.6244 458.8711,810.4711 428.1868,787.4502"/>
    <polyline points="431.7632,783.2795 470.411,812.2749 394.6122,841.8127 400.2046,813.2109"/>
    <polyline points="414.2877,798.6017 409.4319,823.4361 447.3313,808.6672 424.6105,791.621"/>
    <polyline points="421.0342,795.7917 435.7915,806.8633 416.8418,814.2478 420.278,796.6737"/>
    <polyline points="411.527,791.6495 415.6604,802.0588 469.0208,739.8289"/>
    <line x1="471.5639" x2="462.6423" y1="743.5587" y2="747.2677"/>
    <polyline points="459.2359,751.2403 484.2725,771.257 485.3244,754.5136"/>
    <polyline points="480.3481,756.4417 480.0316,761.4792 466.4614,750.6299 474.1936,747.4155"/>
    <polyline points="491.042,740.7861 488.5134,781.0348 455.9866,755.0296"/>
    <polyline points="452.7373,758.819 492.7543,790.8126 496.7595,727.0587"/>
    <line x1="501.3607" x2="511.4694" y1="731.1026" y2="729.0737"/>
    <polyline points="517.9658,740.6753 502.0012,743.8795 532.9654,776.4304 545.0925,735.2308 536.9591,736.8632"/>
    <line x1="545.6378" x2="558.2461" y1="722.2158" y2="719.6852"/>
    <polyline points="561.423,723.6264 538.6011,801.1594 499.5392,760.0959"/>
    <line x1="462.8558" x2="443.7899" y1="730.7871" y2="727.3939"/>
    <polyline points="441.6209,732.5649 464.7952,736.6892 417.3787,791.9873 412.9354,780.7977"/>
    <polyline points="403.3373,789.4607 377.866,844.7332 364.5002,826.906"/>
    <polyline points="360.0583,831.9148 350.1801,883.92 407.0846,865.3868 389.7892,849.9929"/>
    <line x1="387.7536" x2="385.155" y1="848.1812" y2="845.8683"/>
    <line x1="389.0651" x2="387.7284" y1="841.4739" y2="840.2841"/>
    <line x1="390.3391" x2="390.3391" y1="834.7333" y2="834.7333"/>
    <polyline points="390.4543,834.3689 387.2023,851.001 481.9508,814.0788 435.3395,779.1087"/>
    <polyline points="431.6697,751.118 422.5334,761.7729 415.7249,744.627 428.0188,746.8149"/>
    <polyline points="422.4655,740.2697 407.1981,737.5525 420.8152,771.8444 444.5234,744.1953 437.2829,742.9067"/>
    <polyline points="439.4519,737.7358 454.6593,740.4423 419.0969,781.9158 402.1742,739.2992"/>
    <polyline points="382.503,726.4486 394.3882,772.2817 348.0228,759.8899"/>
    <line x1="348.7837" x2="374.4604" y1="756.7107" y2="726.2524"/>
    <polyline points="356.1803,725.8065 338.3904,800.1361 301.706,768.581"/>
    <line x1="305.447" x2="290.934" y1="771.799" y2="774.3608"/>
    <polyline points="307.7245,765.3518 334.0862,788.0274 349.0198,725.6318"/>
    <polyline points="339.2692,718.4273 408.3858,720.1134 379.1735,670.2252"/>
    <polygon points="373.3226,673.2837 348.2575,711.68 396.4947,712.8568"/>
    <polyline points="369.0283,673.4535 319.8482,747.7776 304.3517,721.8982"/>
    <line x1="307.5874" x2="294.4173" y1="727.3019" y2="732.8552"/>
    <line x1="301.101" x2="311.1884" y1="737.569" y2="733.3156"/>
    <line x1="314.7894" x2="307.7847" y1="739.3293" y2="742.2829"/>
    <line x1="314.4684" x2="318.3903" y1="746.9967" y2="745.343"/>
    <polyline points="322.6468,743.5482 331.1894,739.9461 325.4778,763.8101 319.7616,758.8932"/>
    <polyline points="313.7431,762.1225 329.782,775.9188 341.2051,728.1907 329.5595,733.1013"/>
    <polyline points="334.7327,725.2832 420.2768,727.3701 385.6152,668.1755"/>
    <polyline points="390.2226,666.7094 470.0906,684.1482 440.8605,612.1288"/>
    <line x1="447.1195" x2="446.2892" y1="606.1238" y2="625.5045"/>
    <line x1="456.4303" x2="455.4358" y1="624.8262" y2="648.0405"/>
    <polyline points="465.5391,648.2438 464.996,660.9207 493.2036,646.2378 477.5771,634.3006"/>
    <line x1="483.6163" x2="490.1634" y1="626.8647" y2="631.866"/>
    <polyline points="493.8539,634.6852 510.6165,647.4902 464.8759,671.2996"/>
    <polyline points="462.9898,682.5977 443.4067,692.7914 444.0208,678.456"/>
    <polygon points="440.3385,685.2018 405.8979,691.3883 427.2081,716.5052"/>
    <polyline points="448.9371,689.9126 430.1646,734.6669 412.0424,713.3075"/>
    <line x1="394.4125" x2="433.549" y1="683.1995" y2="676.1695"/>
    <polyline points="422.7347,654.3722 439.5313,658.0396 427.3827,628.1069 412.3972,645.1613"/>
    <line x1="405.835" x2="409.0949" y1="639.3142" y2="635.6043"/>
    <polyline points="400.1059,634.2094 424.3818,655.8398 338.4958,683.169 340.4595,673.5528"/>
    <line x1="339.5933" x2="287.2949" y1="677.7945" y2="675.9398"/>
    <polyline points="284.801,671.6543 313.8407,721.5564 247.6067,723.9423"/>
    <polyline points="247.68,725.198 268.6746,726.4138 214.4185,812.9319 192.4471,766.0208"/>
    <line x1="184.8135" x2="204.7726" y1="778.5797" y2="792.3368"/>
    <line x1="200.7979" x2="193.2701" y1="783.8507" y2="784.4085"/>
    <polyline points="176.4468,792.3446 197.5032,806.8582 148.6132,832.3482 150.5183,795.2279"/>
    <polyline points="153.8565,789.1373 113.9165,862.0076 73.1908,779.8203 99.5592,780.2596"/>
    <polyline points="101.7477,786.4316 83.6475,786.1301 114.1918,847.7705 147.3947,787.192 122.0476,786.7698"/>
    <line x1="126.7284" x2="148.7916" y1="780.7121" y2="781.0796"/>
    <line x1="134.7135" x2="135.2889" y1="780.8451" y2="769.6336"/>
    <polyline points="138.7672,765.1322 166.3325,808.985 214.9216,729.0453"/>
    <polyline points="208.8569,725.8685 248.9455,746.8674 244.1368,664.5241"/>
    <polyline points="249.8771,662.5383 271.3381,695.6569 306.1056,633.6708"/>
    <line x1="302.2494" x2="312.9734" y1="640.5458" y2="629.0863"/>
    <polygon points="324.2189,629.4004 304.1739,650.8202 333.0998,655.3731"/>
    <polyline points="328.8598,618.4817 345.0259,665.7609 292.7239,657.5286"/>
    <polyline points="288.3376,665.3488 356.952,676.1487 335.6778,613.9305"/>
    <polyline points="345.9248,607.0904 400.2428,636.8417 395.9726,554.73"/>
    <line x1="398.9152" x2="402.6346" y1="553.4663" y2="554.6324"/>
    <polyline points="400.9803,552.5795 429.7296,588.2538 462.6787,511.8782"/>
    <polyline points="466.5849,511.6136 457.5533,558.5903 502.7972,543.9639 467.7212,511.5366"/>
    <polyline points="487.1449,510.2209 529.8038,549.6584 439.3159,578.9113 443.7824,555.6797"/>
    <line x1="442.5404" x2="441.125" y1="562.1396" y2="561.8395"/>
    <line x1="440.5328" x2="441.7383" y1="563.2123" y2="566.3116"/>
    <line x1="441.6332" x2="439.2783" y1="566.8583" y2="566.1201"/>
    <line x1="436.4075" x2="440.2633" y1="572.7746" y2="573.9834"/>
    <polyline points="447.5212,576.2587 463.5246,581.2757 414.1778,628.6192 397.0557,575.557"/>
    <line x1="396.2564" x2="410.7808" y1="560.1873" y2="564.7407"/>
    <polyline points="418.9269,574.849 402.5025,569.7 417.5357,616.2886 450.4336,584.7263 433.5367,579.4291"/>
    <polyline points="430.6659,586.0837 437.3426,588.1768 420.8937,603.958 413.3771,580.6637 427.073,584.9573"/>
    <polyline points="448.6023,604.7012 465.7702,648.838 524.0171,577.1204"/>
    <polyline points="519.6145,582.5412 514.6303,606.5359 546.2859,595.1151 543.002,592.4197"/>
    <polyline points="545.5473,582.4375 565.2421,598.6028 501.9308,621.4444 506.7119,598.4278"/>
    <polyline points="493.8093,614.3144 489.2314,636.3529 584.1983,602.0905 548.0926,572.4552"/>
    <line x1="553.7342" x2="563.3394" y1="577.0858" y2="563.8593"/>
    <line x1="570.877" x2="559.3252" y1="565.768" y2="581.6749"/>
    <line x1="564.9163" x2="578.4145" y1="586.264" y2="567.6768"/>
    <polyline points="583.1385,568.873 602.6063,607.7355 572.9971,606.1317"/>
    <polyline points="580.5939,599.132 590.7375,599.6814 579.8621,577.9714 570.5073,590.853"/>
    <polyline points="555.1366,612.5755 614.4751,615.7896 592.1109,571.1452"/>
    <line x1="616.8792" x2="619.5612" y1="567.2246" y2="560.9384"/>
    <line x1="614.6624" x2="614.2688" y1="558.3924" y2="559.315"/>
    <polyline points="613.8197,557.9544 655.0527,579.3844 654.9624,530.4121"/>
    <polyline points="648.8145,527.3623 648.8915,569.1056 611.0007,549.4127"/>
    <polyline points="608.1817,540.871 642.7302,558.8269 642.6666,524.3125"/>
    <polygon points="636.5297,527.2526 617.2081,538.4857 636.569,548.5481"/>
    <line x1="635.1624" x2="622.7489" y1="520.5899" y2="527.8068"/>
    <line x1="622.4308" x2="606.9093" y1="527.9918" y2="537.0156"/>
    <line x1="604.8443" x2="613.5657" y1="530.7585" y2="525.6881"/>
    <line x1="620.9103" x2="628.2409" y1="521.4182" y2="517.1564"/>
    <line x1="621.3193" x2="619.0716" y1="513.7228" y2="515.0296"/>
    <polyline points="618.2586,512.2045 664.8475,535.3157 657.2451,455.8748"/>
    <polyline points="659.5033,455.8745 659.9501,469.7568 723.9742,431.5035 710.5212,422.9353"/>
    <polyline points="709.728,431.3691 709.965,431.5201 709.6989,431.6791"/>
    <line x1="705.5074" x2="672.5974" y1="434.1835" y2="453.8466"/>
    <polyline points="669.2054,455.8733 667.2823,457.0223 667.2453,455.8735"/>
    <line x1="666.8809" x2="665.665" y1="444.5506" y2="406.7679"/>
    <polyline points="659.7342,402.687 709.2229,436.7401 716.7511,356.6943"/>
    <polyline points="700.4955,355.2531 695.5848,407.4677 657.0976,380.9846"/>
    <line x1="656.0009" x2="693.4282" y1="371.9579" y2="354.6266"/>
    <polyline points="718.5567,337.4954 719.8112,324.1576 713.2128,327.213"/>
    <polyline points="690.826,303.3996 713.3849,346.8054 652.287,341.3887"/>
    <polyline points="651.7441,336.9202 662.4109,424.7186 599.5983,394.9148"/>
    <polyline points="594.4259,400.3224 635.2502,452.2392 546.5804,465.3996"/>
    <polyline points="544.7792,459.0504 563.0523,523.461 513.5419,508.4328"/>
    <line x1="521.8935" x2="495.0309" y1="510.9678" y2="517.5114"/>
    <line x1="499.9322" x2="532.3574" y1="522.0426" y2="514.144"/>
    <line x1="542.8214" x2="504.8336" y1="517.3202" y2="526.5738"/>
    <polyline points="509.7349,531.105 543.0155,522.9981 533.2102,561.4529 523.8926,551.5694"/>
    <polyline points="517.7705,553.5485 536.1504,573.0447 549.8177,519.4438"/>
    <polyline points="555.2901,521.1049 539.0907,584.6365 511.6485,555.5277"/>
    <line x1="513.4633" x2="512.712" y1="565.9257" y2="569.5423"/>
    <line x1="517.9125" x2="485.8915" y1="570.6451" y2="563.8544"/>
    <polyline points="471.9216,568.3706 514.6525,577.4325 468.2753,634.5354 454.478,599.064"/>
    <polyline points="460.3538,593.4269 470.7804,620.2327 501.6986,582.1641 466.949,574.7948"/>
    <polyline points="459.3849,572.4234 476.6156,577.8252 410.8198,640.9499 398.4653,602.6626"/>
    <line x1="405.9524" x2="400.0229" y1="625.8655" y2="632.6136"/>
    <polyline points="408.3347,660.946 454.811,671.0939 433.6765,619.0211"/>
    <polyline points="466.2295,587.7897 473.2856,605.93 488.7446,586.8957 471.0685,583.1471"/>
    <polyline points="503.5146,567.5918 505.5264,557.5068 542.0309,596.2283 560.7624,522.766"/>
    <polyline points="561.753,518.8811 566.5441,500.0912 557.0766,502.3974"/>
    <line x1="558.5958" x2="558.6479" y1="507.7525" y2="507.9359"/>
    <polyline points="563.3449,512.6378 622.8321,528.0961 602.4036,457.1143"/>
    <polyline points="610.7155,455.8806 673.8433,455.8727 651.5025,419.5427"/>
    <line x1="658.44" x2="658.7113" y1="422.8345" y2="431.2655"/>
    <polygon points="674.6145,444.2878 695.9559,431.5367 673.749,417.393"/>
    <polyline points="697.0494,455.9443 705.1737,518.1044 661.1297,496.4667"/>
    <polyline points="661.6765,502.181 710.9805,526.4026 701.4296,453.3272"/>
    <polyline points="711.3144,414.5014 737.9834,431.487 659.4042,478.4366"/>
    <polyline points="659.8667,483.27 693.0138,461.1968 699.367,509.8061 660.5828,490.7525"/>
    <line x1="675.8558" x2="663.4442" y1="509.1469" y2="520.6527"/>
    <line x1="664.463" x2="684.0273" y1="531.2979" y2="513.1613"/>
    <polygon points="686.0554,522.8708 664.3319,543.009 693.5033,549.8017"/>
    <polyline points="692.9497,517.5446 705.0599,561.334 654.998,549.6769"/>
    <polyline points="655.0143,558.522 716.6164,572.8664 702.6324,522.3015"/>
    <polygon points="693.5602,501.5078 689.3248,469.1016 663.1187,486.5527"/>
    <polygon points="687.7535,493.2095 685.6357,477.0064 672.5327,485.732"/>
    <line x1="661.7737" x2="654.9803" y1="533.7909" y2="540.0885"/>
    <line x1="604.7007" x2="602.7794" y1="523.3845" y2="524.5015"/>
    <polyline points="602.1959,522.7336 620.5498,578.3468 551.0763,560.7538"/>
    <polyline points="553.4333,551.5099 606.6561,564.9877 591.8214,520.0376"/>
    <polygon points="582.9291,521.833 560.7228,543.515 592.7624,551.6285"/>
    <line x1="576.1621" x2="557.9655" y1="515.9684" y2="533.7354"/>
    <line x1="562.1997" x2="566.0737" y1="517.1294" y2="513.3469"/>
    <polyline points="554.8504,494.5501 600.8504,506.5037 587.2821,459.3586"/>
    <line x1="582.2766" x2="553.3088" y1="460.1015" y2="489.1164"/>
    <line x1="548.5819" x2="557.199" y1="472.4546" y2="463.8236"/>
    <polyline points="547.1462,452.8385 545.001,459.8232 623.9739,448.102 590.0227,404.9257"/>
    <polyline points="585.6194,409.5291 612.6976,443.9648 553.4679,452.7557 563.6037,419.7546"/>
    <polyline points="561.8065,414.3646 566.7661,429.2392 630.3202,362.7967 587.5438,351.551"/>
    <polyline points="579.7959,355.2991 620.0299,365.8764 569.1866,419.0304 564.9128,406.2126"/>
    <polyline points="564.7435,406.6568 567.7533,398.7583 562.5336,399.8673"/>
    <polyline points="562.7797,399.815 552.3488,368.5766 630.3216,330.8573 582.3485,296.5253"/>
    <polyline points="570.7738,298.5093 613.1706,328.8506 554.8835,357.0469 560.9701,323.3356"/>
    <line x1="563.4209" x2="563.4209" y1="309.7615" y2="309.7615"/>
    <polyline points="560.9055,309.0848 571.3808,312.2543 515.6174,371.6096 502.389,330.5987"/>
    <polyline points="505.9363,320.8251 518.5454,359.9165 560.3681,315.4 513.0964,301.097"/>
    <polyline points="514.1959,298.0676 572.7467,311.8777 549.9371,238.1647"/>
    <polyline points="555.5149,234.4659 565.286,268.0131 635.1236,203.2886 604.3085,195.1763"/>
    <polyline points="604.3368,194.8969 668.8625,174.8716 658.1947,164.4574"/>
    <polyline points="659.1572,158.539 678.4762,177.3987 613.444,197.5812"/>
    <line x1="619.0378" x2="620.359" y1="199.0539" y2="195.4352"/>
    <polyline points="629.2147,192.6869 665.8878,229.2627 602.8285,243.4517 608.4748,227.9863"/>
    <line x1="594.6219" x2="592.0687" y1="240.825" y2="247.8184"/>
    <polyline points="589.7154,245.3723 630.9162,288.2007 568.719,298.8615"/>
    <polyline points="566.8352,292.7737 617.9043,284.0203 584.9626,249.7772"/>
    <polyline points="580.2097,254.1821 604.8924,279.8399 564.9514,286.6859"/>
    <line x1="563.2729" x2="568.1482" y1="281.2617" y2="265.3605"/>
    <line x1="563.2158" x2="560.1093" y1="260.9055" y2="271.0379"/>
    <line x1="556.9457" x2="560.1475" y1="260.8141" y2="250.3709"/>
    <polygon points="576.2654,259.4275 570.1466,279.3848 591.8806,275.6595"/>
    <polyline points="598.0922,254.0799 683.6279,234.8335 638.4846,189.81"/>
    <line x1="649.227" x2="653.5575" y1="186.4761" y2="204.843"/>
    <polyline points="660.1624,211.4303 655.0895,189.9148 673.042,194.8408"/>
    <line x1="665.1636" x2="655.0059" y1="187.4699" y2="184.6827"/>
    <polyline points="660.3965,183.0097 700.7089,220.7259 715.9966,146.5023"/>
    <polyline points="706.053,145.7611 694.4548,202.0716 670.6722,179.8207"/>
    <polygon points="688.2008,183.4173 695.1115,149.865 664.4746,161.2192"/>
    <polyline points="680.9203,202.2118 661.8038,196.9664 666.7672,218.0176"/>
    <polyline points="673.3721,224.6049 668.5181,204.018 688.7987,209.5828"/>
    <polygon points="692.0372,215.6806 675.2324,211.0695 679.1417,227.6497"/>
    <line x1="697.3989" x2="681.331" y1="217.6291" y2="232.5427"/>
    <polyline points="677.3381,236.2488 676.3366,237.1783 676.179,236.5096"/>
    <polyline points="671.3818,237.589 673.5316,246.7069 712.2181,210.7996 703.2597,208.3415"/>
    <polyline points="704.2752,203.4109 722.3085,208.3591 670.7265,256.2356 668.8903,248.4478"/>
    <line x1="668.2099" x2="666.5846" y1="245.562" y2="238.6684"/>
    <line x1="661.7874" x2="663.2446" y1="239.7478" y2="245.9284"/>
    <polyline points="660.1533,246.1565 655.9651,245.224 656.2268,246.4463"/>
    <line x1="649.5455" x2="648.6392" y1="246.9393" y2="242.7063"/>
    <polygon points="643.7493,262.7854 617.147,264.7485 631.2705,287.465"/>
    <line x1="660.2949" x2="665.6526" y1="265.4471" y2="290.4707"/>
    <polyline points="665.8681,291.4773 670.5252,313.2291 724.1525,260.4066 683.4564,251.3452"/>
    <polyline points="677.5273,256.8484 710.0839,264.0975 674.3324,299.3124 665.0628,256.0176"/>
    <polyline points="665.4452,255.2614 667.9215,265.7642 732.399,205.9186 705.2908,198.4804"/>
    <polyline points="689.3855,245.842 738.221,256.7158 666.7181,327.1457 661.8496,304.4067"/>
    <line x1="662.3475" x2="660.2818" y1="306.7324" y2="309.4509"/>
    <line x1="664.7917" x2="652.5865" y1="318.1482" y2="334.2101"/>
    <polyline points="653.4648,351.0836 729.104,357.7895 697.447,296.8779"/>
    <polyline points="684.205,309.9212 697.6658,335.8213 664.7018,332.8988 676.0832,317.9212"/>
    <line x1="659.2563" x2="655.527" y1="292.2946" y2="274.8766"/>
    <polygon points="673.2862,262.7274 678.1396,285.3958 696.0153,267.7883"/>
    <polyline points="644.6079,296.4716 666.2324,290.3053 641.5523,369.7116 612.962,339.255"/>
    <polyline points="623.6146,334.1018 635.98,347.2744 648.32,307.5712 637.4246,310.6781"/>
    <line x1="629.0375" x2="612.1825" y1="313.0697" y2="317.876"/>
    <line x1="600.0341" x2="622.6168" y1="309.182" y2="302.7425"/>
    <polyline points="623.4477,289.4808 632.1332,303.4508 657.0909,254.0917 603.8863,258.0178 607.5514,263.9128"/>
    <polyline points="620.2044,249.1044 670.4324,245.398 632.996,319.4367 615.2457,290.8866"/>
    <polyline points="572.3532,310.6061 572.465,309.987 596.0197,326.8439 566.8761,340.942 572.1491,311.7367"/>
    <line x1="549.724" x2="546.7967" y1="335.3061" y2="351.519"/>
    <line x1="547.6405" x2="545.0542" y1="346.8455" y2="346.1656"/>
    <polyline points="543.6306,341.7919 566.6452,412.4992 519.6224,403.4189"/>
    <line x1="520.5319" x2="553.2401" y1="416.8599" y2="409.9106"/>
    <polyline points="554.1292,410.0823 532.8188,466.0084 512.7562,438.4156"/>
    <polyline points="506.8736,443.7779 535.5634,483.236 562.8003,411.7567"/>
    <polyline points="576.3654,419.2037 570.4018,438.6207 590.145,435.6904 576.8129,418.7358"/>
    <polyline points="581.2162,414.1325 601.4213,439.8276 561.9348,445.6882 567.0913,428.8993"/>
    <polyline points="529.6851,422.984 540.8042,420.6216 530.0742,448.7808 518.6388,433.0533"/>
    <line x1="506.1258" x2="533.345" y1="411.8518" y2="406.0688"/>
    <polyline points="512.6865,388.7235 546.9874,395.3472 533.1773,352.9185"/>
    <line x1="544.9759" x2="548.6377" y1="340.36" y2="341.3227"/>
    <polyline points="562.3927,363.7178 574.0277,398.6128 599.4493,372.0358 564.3,362.7952"/>
    <polyline points="557.3772,366.1441 571.6072,408.8216 609.7396,368.9561 572.0479,359.0471"/>
    <polygon points="589.159,375.1155 570.3705,370.1761 576.4482,388.404"/>
    <polyline points="609.9074,384.1372 646.4093,401.4569 642.2714,367.398"/>
    <line x1="633.2992" x2="630.3051" y1="360.9197" y2="362.7928"/>
    <line x1="624.152" x2="612.8969" y1="351.1754" y2="358.2162"/>
    <line x1="653.9016" x2="660.3465" y1="354.6781" y2="351.6937"/>
    <polyline points="631.3953,410.0021 652.1255,443.713 628.5481,443.7159"/>
    <polyline points="633.3295,449.7966 662.9844,449.7928 641.4489,414.7724"/>
    <line x1="629.4316" x2="617.71" y1="409.0704" y2="429.933"/>
    <polyline points="621.6785,434.9798 630.2516,419.7209 641.2666,437.6331 623.7666,437.6353"/>
    <line x1="613.7415" x2="624.0597" y1="424.8862" y2="406.5214"/>
    <line x1="618.6877" x2="609.773" y1="403.9725" y2="419.8394"/>
    <line x1="621.856" x2="605.263" y1="455.8792" y2="467.0496"/>
    <polyline points="609.4566,481.6209 642.7556,459.2042 647.6276,510.1135 612.6653,492.7698"/>
    <polyline points="537.6752,477.6938 545.191,504.1862 519.7275,496.457"/>
    <line x1="509.5663" x2="526.1592" y1="483.9855" y2="470.3022"/>
    <line x1="519.08" x2="501.9765" y1="460.5658" y2="474.67"/>
    <polyline points="489.6207,459.5049 528.6509,507.4093 437.6808,513.5715 440.0625,507.737"/>
    <line x1="438.8644" x2="436.0733" y1="510.6721" y2="510.83"/>
    <polyline points="423.6584,520.4558 450.6224,518.9305 427.9036,571.5923 409.5989,548.8784"/>
    <polyline points="404.8797,535.0158 417.8964,545.3152 340.1199,578.7151 343.8935,560.1242"/>
    <polyline points="348.9695,559.142 346.6385,570.6259 408.8597,543.906 366.3785,510.2932"/>
    <line x1="359.3689" x2="354.1014" y1="507.9085" y2="533.8592"/>
    <polyline points="358.0803,538.282 363.1196,513.4557 399.8229,542.4968 372.4477,554.2527"/>
    <polyline points="370.9788,554.8835 353.157,562.5368 354.0454,558.1599"/>
    <line x1="358.5327" x2="348.7526" y1="570.808" y2="576.3961"/>
    <polyline points="347.292,575.6351 372.989,589.0243 296.2752,640.2328 294.6169,601.0719"/>
    <polyline points="301.1061,595.1687 302.4998,628.0814 360.0352,589.6751 314.307,565.8488"/>
    <line x1="324.6638" x2="341.3713" y1="563.8449" y2="572.5502"/>
    <polyline points="357.5775,580.9943 388.0403,563.5885 391.0661,621.7702 354.1907,601.5727"/>
    <line x1="353.2158" x2="346.2943" y1="611.0839" y2="644.9792"/>
    <polygon points="355.6042,664.0772 398.5472,650.4126 364.5757,620.1432"/>
    <polyline points="353.8024,678.2984 357.8805,678.443 320.1796,735.4191 311.9201,721.6256"/>
    <polyline points="280.1192,722.7711 326.3352,755.3661 234.2371,804.7819 236.1441,778.2877"/>
    <line x1="235.9311" x2="234.2083" y1="781.247" y2="781.3747"/>
    <line x1="235.1173" x2="226.8125" y1="792.5527" y2="793.1681"/>
    <polyline points="234.698,798.3777 219.6433,831.8881 211.4053,817.5435"/>
    <polyline points="200.7391,823.1046 221.191,858.7167 248.9739,796.8748"/>
    <polyline points="246.8976,801.4963 273.4274,838.6175 301.5879,781.4599 265.9932,787.7429"/>
    <polygon points="285.6113,793.2597 254.9716,798.6681 271.531,821.8385"/>
    <polyline points="313.2176,778.4831 275.3238,855.3965 243.0011,810.1696"/>
    <line x1="234.316" x2="257.2379" y1="829.5017" y2="830.0902"/>
    <polyline points="226.7169,846.4165 245.2965,860.2001 200.7975,884.3066 203.7888,829.4069 204.7813,830.1432"/>
    <polyline points="202.8896,826.8493 177.4797,910.1746 140.9089,870.0063"/>
    <line x1="143.9354" x2="137.4853" y1="873.3306" y2="875.4563"/>
    <polyline points="144.6036,864.1246 174.7489,897.2354 194.1373,833.6559 173.0995,837.5152"/>
    <polyline points="155.5814,846.6487 113.2767,913.9946 76.9343,834.8102 100.0212,833.9659"/>
    <polyline points="102.4548,838.8769 84.5509,839.5317 113.6249,902.8792 145.7162,851.7922"/>
    <polyline points="148.2983,858.2429 172.0181,884.2961 184.9438,841.9098 155.1217,847.3805"/>
    <polygon points="153.6786,854.2126 169.2874,871.3568 175.7502,850.1636"/>
    <polyline points="135.8511,856.9356 113.973,891.7638 92.1676,844.2532 104.8883,843.788"/>
    <polyline points="107.3218,848.699 99.7843,848.9746 114.3212,880.6484 130.9501,854.1765"/>
    <line x1="131.2761" x2="121.495" y1="847.8229" y2="848.1806"/>
    <polyline points="118.6985,853.2829 125.0225,853.0516 114.6694,869.5329 107.4009,853.6961 109.7553,853.61"/>
    <line x1="124.2916" x2="131.5332" y1="843.0784" y2="842.8135"/>
    <line x1="131.7903" x2="127.0881" y1="837.8041" y2="837.9761"/>
    <line x1="129.8846" x2="132.0474" y1="832.8738" y2="832.7947"/>
    <polyline points="132.2664,828.5284 130.6698,859.637 228.4499,808.6569 220.5249,803.1944"/>
    <line x1="202.1797" x2="192.5336" y1="825.6132" y2="827.3827"/>
    <polyline points="201.5841,750.9885 216.2571,782.3167 241.0734,742.7439"/>
    <line x1="232.8739" x2="210.0106" y1="738.4489" y2="737.1249"/>
    <polyline points="219.3761,715.1964 233.5205,722.6054 230.6936,674.1977 201.8995,691.9425"/>
    <polyline points="194.2605,681.7783 225.9307,723.9177 127.85,735.1245"/>
    <polyline points="132.7087,734.5693 152.8223,735.9014 109.9157,791.4287 88.7216,731.6562 111.9734,733.1961"/>
    <polyline points="116.7543,739.614 97.4869,738.3379 111.6163,778.1863 140.2207,741.1681 125.966,740.224"/>
    <polyline points="123.7658,746.1796 127.6191,746.4348 113.317,764.9439 106.2523,745.0197 121.5353,746.0318"/>
    <polyline points="107.1924,726.7782 79.9563,724.9744 108.2151,804.6711 165.2572,730.8503"/>
    <polyline points="161.524,735.6816 193.0762,736.5284 166.4445,780.3432 148.7568,752.2043"/>
    <polyline points="143.762,758.6683 166.3885,794.6641 206.3359,728.9419 186.5959,728.4121"/>
    <polyline points="155.5115,743.4626 179.8164,744.1149 166.5006,766.0223 153.7516,745.7403"/>
    <polyline points="157.6428,692.1408 149.4638,711.0826 186.348,706.8682 172.5073,688.4523"/>
    <line x1="181.0064" x2="178.9282" y1="681.9518" y2="679.1867"/>
    <polyline points="183.3587,672.7934 179.7628,686.7935 268.3602,656.1443 230.0808,621.4013"/>
    <polyline points="220.1514,619.7002 162.8701,702.3592 141.1774,659.9537"/>
    <polyline points="146.8772,654.9507 163.7917,688.0158 207.7258,624.6172 128.9664,619.9381 129.8904,621.7445"/>
    <polyline points="121.6876,619.2991 170.8099,633.9434 96.5945,699.0871 82.2423,607.5397 89.4985,609.7029"/>
    <polyline points="90.8162,617.0144 90.4361,616.9011 101.2003,685.5616 156.8618,636.7039 115.565,624.3925"/>
    <polyline points="109.4424,629.4859 142.9137,639.4644 105.806,672.0362 100.3244,637.0712"/>
    <polygon points="128.9657,642.2249 106.8238,635.624 110.4118,658.5108"/>
    <polyline points="152.5769,649.9476 164.7133,673.6723 194.0028,631.4066 154.4106,629.0544"/>
    <polyline points="166.8725,637.3995 180.2797,638.196 165.635,659.3288 158.2767,644.9446"/>
    <line x1="145.0707" x2="144.3689" y1="667.5644" y2="669.1895"/>
    <line x1="145.7615" x2="126.6801" y1="668.9148" y2="672.6789"/>
    <polyline points="115.2356,682.7245 140.2229,677.7953 120.3811,731.5027 88.0405,688.0893 94.6655,686.7824"/>
    <polyline points="93.4811,679.2281 74.552,682.9622 123.0628,748.0824 149.5643,676.3487"/>
    <polyline points="151.3567,679.8526 132.3709,723.8218 206.1393,715.3929 183.6378,685.4531"/>
    <polyline points="194.32,656.9759 189.346,676.3415 255.7941,653.3546 219.5964,620.5011"/>
    <polyline points="215.9313,625.79 243.2279,650.5648 198.9292,665.8895 205.2812,641.1584"/>
    <polygon points="214.2956,632.921 208.5124,655.4374 230.6618,647.7751"/>
    <line x1="202.7319" x2="191.6693" y1="616.7159" y2="616.0586"/>
    <polyline points="197.8365,616.425 197.9933,615.904 255.0553,625.68 237.2274,561.6103"/>
    <line x1="240.1832" x2="246.5404" y1="561.117" y2="595.0792"/>
    <polyline points="258.072,593.7523 327.7635,519.1259 320.4273,517.8348"/>
    <polyline points="324.9837,515.1629 355.5334,549.1217 296.9321,560.4604 300.2182,548.6217"/>
    <polyline points="294.8211,532.8501 263.8533,566.0108 261.1728,557.6144"/>
    <polyline points="254.2241,558.774 260.9627,579.8816 313.2313,523.9117 310.7952,523.483"/>
    <polyline points="321.8994,525.4052 338.3535,543.6955 309.0529,549.3648 313.0829,534.8461"/>
    <line x1="292.3026" x2="274.5534" y1="527.5719" y2="524.4482"/>
    <polyline points="268.7962,530.7784 284.1668,533.4834 266.744,552.1401 262.2294,537.9988"/>
    <line x1="256.8121" x2="257.2023" y1="543.9552" y2="545.1776"/>
    <polyline points="256.4828,544.3173 266.8162,556.6727 177.6278,571.5559"/>
    <polyline points="182.1062,570.8085 214.5937,615.4982 127.3836,617.6302 129.9879,612.3941"/>
    <polyline points="152.4677,593.6931 146.9701,604.6287 190.5751,603.5628 172.2551,578.3618"/>
    <line x1="188.9214" x2="200.9242" y1="580.1835" y2="567.6683"/>
    <polyline points="190.9302,554.7045 187.5652,563.2642 254.6361,552.0719 222.9323,514.1646"/>
    <polyline points="223.8806,512.8846 160.6627,593.047 142.6084,556.1355"/>
    <polyline points="151.3005,551.6304 162.6273,574.7878 197.9133,530.088"/>
    <polyline points="204.6782,537.2887 197.742,554.9326 242.4559,547.471 218.8865,519.2898"/>
    <line x1="227.9431" x2="255.5385" y1="510.1932" y2="543.1882"/>
    <polyline points="245.3648,531.0239 238.919,510.8335 245.1785,511.9351"/>
    <line x1="242.5934" x2="238.241" y1="504.1368" y2="503.3708"/>
    <polyline points="241.6015,501.1445 256.065,544.7766 315.2877,479.6598"/>
    <polyline points="311.2802,484.0662 311.5899,501.3598 339.5159,484.9841 329.9615,478.9921"/>
    <polyline points="334.4116,470.3525 357.8582,485.0568 302.0061,517.8083 301.5926,494.7179"/>
    <polyline points="291.905,505.3697 292.4223,534.2568 366.0151,491.1023"/>
    <line x1="360.2965" x2="369.4037" y1="494.4557" y2="497.554"/>
    <polyline points="370.3167,497.8646 392.8482,505.5299 384.4103,474.3655"/>
    <line x1="398.1396" x2="395.6346" y1="471.3236" y2="455.6504"/>
    <polyline points="394.4367,457.6477 412.9838,526.1486 345.4374,503.169"/>
    <line x1="354.8073" x2="350.1226" y1="506.3567" y2="529.4363"/>
    <polyline points="362.0591,542.7049 366.3173,521.7269 390.7862,541.0876 369.015,550.4369"/>
    <polygon points="369.515,529.9981 366.1941,546.3585 381.7494,539.6785"/>
    <line x1="379.1071" x2="401.9658" y1="514.6236" y2="532.7103"/>
    <polyline points="408.0485,532.5589 426.0777,554.9308 437.437,528.5999 411.2435,530.0816"/>
    <polyline points="409.0098,524.7966 406.9423,526.3996 406.5525,523.9606"/>
    <line x1="411.9918" x2="454.7778" y1="522.4845" y2="489.3106"/>
    <polyline points="453.7743,483.0717 411.2697,516.0275 401.5408,455.1568 406.6644,457.5248"/>
    <polyline points="412.4314,466.6096 409.1111,465.0749 415.597,505.6554 445.9661,482.1089 434.8602,476.9759"/>
    <polyline points="432.4285,482.2712 435.1089,483.5101 430.0628,487.4225"/>
    <polyline points="427.1013,489.7187 419.9243,495.2834 416.6814,474.9931 418.1985,475.6943"/>
    <line x1="437.292" x2="453.1187" y1="471.6806" y2="478.9955"/>
    <line x1="452.0033" x2="439.7238" y1="472.0608" y2="466.3853"/>
    <line x1="442.1556" x2="450.8879" y1="461.09" y2="465.126"/>
    <polyline points="448.142,448.0541 455.0521,491.016 532.0217,420.8541 487.9381,405.5292"/>
    <polyline points="468.0285,404.7503 521.2333,406.8319 494.9399,351.1231"/>
    <line x1="510.6638" x2="502.1046" y1="356.2524" y2="366.3033"/>
    <line x1="515.5197" x2="508.4078" y1="371.3068" y2="379.6582"/>
    <polyline points="488.0006,370.2427 498.512,392.5136 454.846,390.8051"/>
    <line x1="453.7133" x2="468.5951" y1="387.7994" y2="361.6878"/>
    <line x1="459.1284" x2="447.1043" y1="349.1652" y2="370.2626"/>
    <polyline points="432.7233,349.2458 453.4805,404.3246 404.2276,394.6035"/>
    <line x1="405.0661" x2="391.8224" y1="401.5559" y2="400.6468"/>
    <polyline points="394.313,399.4335 463.2234,413.0344 437.9027,345.8463"/>
    <polyline points="450.4123,337.6355 483.8038,381.806 515.8389,293.5406 492.4449,296.3621"/>
    <line x1="494.4714" x2="502.0523" y1="293.4153" y2="295.2034"/>
    <polyline points="503.2548,280.6439 550.0382,291.6784 536.2812,247.2204"/>
    <polyline points="521.4012,248.329 570.589,215.7108 534.0637,197.2356"/>
    <polyline points="528.5195,202.5284 556.1692,216.5143 514.0142,244.4688 511.986,203.7077"/>
    <line x1="504.3788" x2="506.8232" y1="197.7994" y2="246.9274"/>
    <line x1="499.4748" x2="498.8563" y1="246.2208" y2="233.7903"/>
    <polyline points="496.9857,245.9815 525.2258,248.6968 470.575,328.162 469.2682,325.2593"/>
    <line x1="468.1349" x2="450.6078" y1="322.7419" y2="283.8114"/>
    <line x1="452.1125" x2="458.122" y1="301.2264" y2="300.5016"/>
    <line x1="461.8893" x2="452.8668" y1="308.8694" y2="309.9575"/>
    <polyline points="450.574,312.9384 470.8199,324.2409 405.7955,366.92"/>
    <line x1="407.9241" x2="416.3296" y1="368.451" y2="360.0059"/>
    <polyline points="412.9801,372.0875 428.8586,356.134 443.7376,395.6148 414.1422,389.7735"/>
    <polyline points="424.0567,384.9435 433.9946,386.905 426.5552,367.1646 418.036,375.724"/>
    <line x1="398.0475" x2="398.6849" y1="361.3473" y2="342.1795"/>
    <polyline points="404.9918,340.3931 404.3268,360.3918 459.1778,324.39 406.5019,294.983 405.6629,320.2128"/>
    <polyline points="411.7437,325.2263 412.4185,304.9344 447.5358,324.539 410.9684,348.5402 411.2987,338.6067"/>
    <polyline points="417.8245,330.2398 418.3351,314.8858 435.8937,324.6881 422.0844,333.7519"/>
    <line x1="399.5821" x2="400.417" y1="315.1993" y2="290.0919"/>
    <polyline points="394.7735,287.5212 453.2288,314.1477 446.6723,238.2601"/>
    <line x1="446.9235" x2="466.754" y1="241.168" y2="243.0747"/>
    <polyline points="461.0003,232.6233 490.6552,254.0403 500.8382,187.6758"/>
    <polyline points="505.9144,187.7913 516.07,214.4135 587.672,146.0579 541.1638,135.4185"/>
    <polyline points="532.4999,144.2729 567.5579,152.293 519.8232,197.8633 515.8094,187.3415"/>
    <polyline points="505.9497,187.5616 494.3713,263.0201 455.3568,234.8435"/>
    <polyline points="466.6438,230.4031 486.939,245.0605 494.8891,193.2483 457.8281,208.2244"/>
    <line x1="453.1844" x2="494.1591" y1="204.3825" y2="187.8249"/>
    <line x1="479.1803" x2="448.5407" y1="188.1593" y2="200.5406"/>
    <polyline points="437.5454,191.4438 478.8372,225.6061 410.6134,252.446"/>
    <polyline points="406.875,260.7241 414.2049,244.4931 405.0761,244.9713 460.642,223.1111 431.9532,199.3757"/>
    <polyline points="426.3609,207.3076 442.4469,220.6161 413.471,232.0155 415.7985,206.9285"/>
    <line x1="407.8976" x2="403.8078" y1="189.7839" y2="233.8653"/>
    <polygon points="384.3103,234.1629 380.4948,200.7518 354.4044,220.002"/>
    <line x1="366.9155" x2="339.4689" y1="247.0263" y2="248.4966"/>
    <polyline points="338.3823,251.2438 370.0064,295.2274 294.0175,295.5334"/>
    <polyline points="292.6498,302.3506 357.1509,310.009 316.1381,362.5725 309.9366,347.1704"/>
    <polyline points="300.0055,347.6263 313.6204,381.4402 375.1395,302.5949 314.9554,295.4491"/>
    <line x1="292.3972" x2="302.7776" y1="303.6097" y2="329.3904"/>
    <line x1="295.3518" x2="294.2299" y1="347.8399" y2="356.9128"/>
    <line x1="304.0076" x2="303.302" y1="357.5659" y2="363.2724"/>
    <line x1="307.4863" x2="282.1516" y1="366.2057" y2="348.4458"/>
    <line x1="269.2572" x2="312.8891" y1="349.0377" y2="379.624"/>
    <polyline points="313.5186,381.1875 244.3547,416.8045 245.1154,393.3885"/>
    <polyline points="236.9158,399.2684 235.9281,429.6742 329.3771,381.5513 319.1355,374.3718"/>
    <polyline points="314.2778,380.5975 314.4415,380.7123 314.0183,380.9302"/>
    <polyline points="309.6437,391.7133 309.3529,394.0646 340.9411,380.5109 324.0168,368.1157"/>
    <polyline points="330.0553,360.3765 360.7086,382.8265 297.5322,409.934 299.1148,397.1353"/>
    <polyline points="288.5859,402.5573 285.7115,425.8034 380.476,385.1422 336.0939,352.6373"/>
    <line x1="345.1671" x2="345.0065" y1="357.3381" y2="359.1648"/>
    <line x1="350.5269" x2="351.1931" y1="363.2078" y2="355.6313"/>
    <line x1="357.219" x2="356.0473" y1="353.9245" y2="367.2509"/>
    <polyline points="361.5677,371.294 362.8199,357.0519 394.8714,380.1048 359.268,397.4494 359.5611,394.1163"/>
    <polyline points="353.4548,396.7364 352.5457,407.0765 405.9507,381.0596 365.1143,351.6882"/>
    <polyline points="372.1108,349.7065 417.0301,382.0144 345.8234,416.7035 347.3486,399.3564"/>
    <polyline points="341.2423,401.9764 339.101,426.3306 428.1094,382.9692 379.1074,347.7247"/>
    <polyline points="379.1239,322.1753 385.4618,327.4008 365.4675,333.064 368.4263,316.9615"/>
    <polyline points="366.4984,313.6697 375.7958,329.5447 404.9316,265.0275"/>
    <polyline points="402.9635,269.3857 434.981,249.3029 438.7403,292.8134 400.2924,275.3004"/>
    <polyline points="392.8602,259.3116 374.2542,300.5119 350.6901,260.2772 390.4064,258.1496"/>
    <polyline points="386.9701,304.8009 423.7092,335.0916 343.732,357.7446 347.3124,338.2592"/>
    <line x1="346.7852" x2="346.4154" y1="338.9348" y2="343.1409"/>
    <polyline points="354.812,328.6474 350.9772,349.5177 410.96,332.528 384.3547,310.5924"/>
    <polyline points="381.7393,316.3838 398.2109,329.9644 358.2223,341.2909 362.3117,319.0356"/>
    <line x1="358.8817" x2="355.731" y1="300.6646" y2="295.2849"/>
    <line x1="355.2084" x2="354.3198" y1="295.287" y2="300.123"/>
    <polygon points="339.1623,317.4231 306.5129,313.5465 318.6559,343.7048"/>
    <polyline points="330.8688,270.2402 337.4512,279.3952 309.2988,279.5086 318.3681,258.8808"/>
    <polyline points="312.8869,252.368 297.4239,287.5381 353.7288,287.3113 334.6256,260.742"/>
    <polyline points="344.2882,236.312 407.5056,266.2464 397.6328,179.7926"/>
    <line x1="399.4503" x2="398.5708" y1="178.5282" y2="188.0071"/>
    <polyline points="388.5858,186.0866 395.908,250.2046 347.8028,227.4261"/>
    <polyline points="354.8784,209.5367 423.4828,161.8088 377.8764,136.6333"/>
    <polyline points="385.2893,140.7254 383.3444,136.505 409.8627,138.111"/>
    <polyline points="414.06,133.2708 451.1267,147.3442 442.921,67.8696 395.9533,101.0734"/>
    <polyline points="399.7789,105.9531 438.2536,78.7535 444.4079,138.3594 417.0384,127.9678"/>
    <polyline points="409.8565,118.8071 437.6892,129.3746 433.5863,89.6373 403.6046,110.8328"/>
    <polyline points="392.1276,96.1937 447.5883,56.9857 457.8455,156.329 400.4466,134.5359"/>
    <polyline points="394.639,145.8865 393.5712,143.5695 430.0595,145.7793"/>
    <polyline points="416.2849,157.8354 436.3072,159.048 423.2085,177.6266 417.7553,165.7934"/>
    <polyline points="412.4765,169.4658 422.1654,190.4902 448.3627,153.3329 403.798,150.634 403.9886,151.0477"/>
    <polyline points="407.1977,173.1383 421.1223,203.3537 455.0301,155.26"/>
    <polyline points="457.3896,151.9135 460.4182,147.6178 456.9242,147.4062"/>
    <polyline points="456.2545,140.9204 472.4737,141.9027 420.0792,216.2173 401.919,176.8107"/>
    <polyline points="381.5313,166.7195 385.4052,164.0245 364.7164,152.604 364.966,156.1141"/>
    <polyline points="357.4942,151.3305 356.7202,140.4449 398.0977,163.2859 363.7091,187.21"/>
    <line x1="359.7265" x2="359.5445" y1="182.7281" y2="180.1679"/>
    <polyline points="366.4345,176.768 366.4653,177.201 368.6812,175.6593"/>
    <line x1="352.6545" x2="352.6731" y1="183.5678" y2="183.8296"/>
    <polyline points="351.8697,183.9551 365.8607,181.7701 329.9287,272.6172 304.6424,242.5718"/>
    <line x1="307.4057" x2="301.1118" y1="245.8552" y2="260.1705"/>
    <polyline points="288.4966,247.4204 289.1161,247.1676 279.2762,296.2164 246.6872,271.6852"/>
    <line x1="251.966" x2="272.9564" y1="262.3288" y2="253.7625"/>
    <polyline points="262.1009,244.365 219.7445,319.4403 203.1374,293.7106"/>
    <line x1="203.9215" x2="201.2585" y1="294.9254" y2="293.9349"/>
    <polyline points="200.4451,294.032 191.024,378.2846 138.4887,338.1801"/>
    <line x1="140.7231" x2="139.7979" y1="339.8858" y2="362.3007"/>
    <polyline points="133.05,354.8978 169.8592,395.2796 75.6206,414.5459 95.5074,344.3338"/>
    <polyline points="102.672,353.2866 88.7529,402.429 151.5787,389.5848 129.6072,365.4808"/>
    <polygon points="122.2364,366.7649 143.621,301.0319 77.6672,311.072"/>
    <polyline points="126.1643,376.0637 133.2981,383.89 101.8853,390.3121 109.8366,362.2393"/>
    <line x1="148.5403" x2="149.5812" y1="371.8916" y2="346.6711"/>
    <polyline points="141.5091,328.896 182.8682,360.4688 190.1599,295.2598"/>
    <line x1="180.0542" x2="146.3448" y1="296.4661" y2="314.0317"/>
    <line x1="150.5241" x2="153.4962" y1="301.1851" y2="299.6364"/>
    <polyline points="150.9282,299.9429 124.6427,380.7408 65.2171,306.4836 86.7095,303.2118"/>
    <polygon points="90.1173,315.6604 119.8301,352.789 134.0865,308.967"/>
    <line x1="107.5317" x2="123.0469" y1="300.0421" y2="297.6802"/>
    <polyline points="125.0504,293.7133 120.0419,303.6299 211.4032,292.7239 187.0053,256.4746"/>
    <line x1="187.5743" x2="207.3525" y1="252.2342" y2="251.3711"/>
    <polyline points="209.973,256.4009 191.3049,257.2156 219.0849,300.2558 244.6819,254.8862 221.9028,255.8803"/>
    <polyline points="218.0856,261.1911 235.8198,260.4172 218.7552,290.6636 200.2351,261.9701 212.5936,261.4308"/>
    <polygon points="209.1654,266.7246 218.4254,281.0714 226.9577,265.9481"/>
    <line x1="204.732" x2="188.2687" y1="246.3412" y2="247.0597"/>
    <polyline points="181.9557,264.1009 196.4543,285.6423 135.5468,292.913 137.3949,289.2538"/>
    <polyline points="159.8335,281.1477 181.5055,278.5607 165.1562,254.2698 155.9966,272.4054"/>
    <line x1="148.6066" x2="159.5002" y1="267.0553" y2="245.4863"/>
    <line x1="152.3864" x2="141.2165" y1="239.5893" y2="261.7051"/>
    <polyline points="122.4369,248.1093 165.3297,279.1622 85.8886,307.8607 97.7421,240.7276"/>
    <polyline points="114.4211,256.6767 140.1736,275.3207 100.4531,289.6699 105.1926,262.8274"/>
    <polyline points="140.0084,229.3284 185.5789,267.1044 196.145,188.3656"/>
    <line x1="195.8753" x2="197.3206" y1="190.3748" y2="190.4655"/>
    <line x1="194.9986" x2="201.1434" y1="196.9081" y2="197.2934"/>
    <polyline points="204.9661,204.1213 196.4919,203.59 216.4624,241.9214 241.9642,206.4412 229.6423,205.6686"/>
    <polyline points="233.4761,199.3208 253.8985,200.6013 215.6458,253.8216 193.1544,210.6515"/>
    <polyline points="191.7173,221.3607 214.8291,265.7218 265.8328,194.7614 237.3099,192.9729"/>
    <line x1="241.6329" x2="242.6088" y1="193.244" y2="184.1992"/>
    <polyline points="252.7258,167.448 250.1263,191.5406 301.7128,168.1768 267.5258,142.9429"/>
    <polyline points="270.3466,138.2723 306.6208,147.2765 284.138,53.7647 251.5553,90.0179"/>
    <polyline points="258.1141,91.0209 281.2373,65.2927 299.2236,140.1022 239.7809,125.3471"/>
    <polyline points="243.5194,120.9369 291.8263,132.9279 278.3366,76.8208 264.6729,92.0238"/>
    <polygon points="249.5906,117.1058 284.4291,125.7536 275.436,88.3489"/>
    <line x1="248.1584" x2="248.0326" y1="132.7647" y2="133.9306"/>
    <line x1="252.988" x2="236.0425" y1="133.9635" y2="129.7572"/>
    <polyline points="232.5914,133.8283 272.8694,134.0952 217.2864,226.127 189.8206,177.0694"/>
    <line x1="192.4307" x2="187.4526" y1="181.7314" y2="183.6393"/>
    <polyline points="183.7623,193.8781 187.0421,192.6211 179.2381,250.7766 145.8424,223.093"/>
    <polyline points="151.6763,216.8575 172.8974,234.4488 175.9467,211.7248"/>
    <line x1="171.9446" x2="154.3863" y1="207.2317" y2="213.9611"/>
    <line x1="151.5366" x2="160.2254" y1="197.4044" y2="194.0744"/>
    <line x1="164.7253" x2="116.1445" y1="199.1265" y2="192.7834"/>
    <polyline points="96.8212,196.6316 154.6646,204.1841 108.339,253.6979 89.586,198.0725"/>
    <polyline points="83.7534,199.234 106.1128,265.5568 166.452,201.065"/>
    <polyline points="161.7914,183.6928 173.4731,196.8079 193.9786,139.9159 181.1027,143.2856"/>
    <polyline points="176.5186,153.3206 180.2676,152.3395 170.0149,180.7855 151.4055,159.8927 159.1185,157.8742"/>
    <line x1="154.9022" x2="141.7419" y1="150.1422" y2="153.5862"/>
    <line x1="135.9146" x2="150.6858" y1="146.2758" y2="142.4102"/>
    <polyline points="143.3502,128.958 167.4549,173.1618 206.5791,87.5152 128.0598,85.3456"/>
    <polyline points="145.1168,102.1429 142.9973,98.2562 186.5679,99.4601 167.0058,142.2834 157.0053,123.9444"/>
    <polyline points="185.6868,133.2505 207.6896,127.4924 176.9314,212.8303 152.6075,185.5218"/>
    <polygon points="135.0903,172.0635 110.9618,141.7939 97.3745,179.5745"/>
    <polygon points="112.9897,153.2785 106.1961,172.1688 125.054,168.4133"/>
    <polyline points="104.2581,143.3108 88.553,186.9803 145.1267,175.7137 115.8927,139.0391"/>
    <polyline points="121.4059,137.0149 155.163,179.3639 79.7315,194.386 97.1631,145.9158"/>
    <polyline points="90.0681,148.5208 70.91,201.7918 165.1994,183.0141 126.919,134.9907"/>
    <polygon points="102.9918,125.1388 131.5023,114.671 108.3805,91.9013"/>
    <polygon points="78.9401,152.6065 164.4717,121.2031 95.1062,52.8937"/>
    <polygon points="97.5024,203.0917 110.5652,241.8389 141.4489,208.8297"/>
    <polygon points="106.26,210.6064 112.7914,229.98 128.2333,213.4754"/>
    <polyline points="208.7889,210.9493 207.2938,210.8555 217.279,230.0213 230.0299,212.2812 225.8085,212.0165"/>
    <polyline points="245.327,223.2907 281.6278,254.7161 297.5847,186.9206 263.1584,198.4822"/>
    <polyline points="263.1888,194.5956 317.7519,169.8837 277.2444,139.9845"/>
    <line x1="284.2638" x2="294.3292" y1="145.1657" y2="144.2254"/>
    <line x1="291.8648" x2="291.5437" y1="144.4556" y2="150.539"/>
    <polyline points="305.6334,143.1694 378.2943,136.3815 314.1923,48.99 294.4672,96.7267"/>
    <polyline points="300.4945,121.7955 317.6829,80.1975 349.734,123.8932 302.0694,128.346"/>
    <line x1="307.1304" x2="306.1644" y1="143.0295" y2="161.3308"/>
    <polyline points="305.4182,175.4697 304.6466,190.088 352.4987,166.4751 314.7636,142.3164"/>
    <polyline points="339.7662,139.9807 383.8237,168.1872 297.0696,210.9966"/>
    <polyline points="299.3761,209.8584 324.6757,239.9195 339.0485,203.5807 299.6196,209.7382"/>
    <line x1="296.161" x2="304.3516" y1="214.8569" y2="224.589"/>
    <polyline points="307.4996,228.3295 326.4267,250.8187 347.9859,196.3105 317.0363,201.1438"/>
    <polygon points="310.2443,213.9534 322.9246,229.0203 330.1111,210.8509"/>
    <line x1="298.8272" x2="294.539" y1="226.8435" y2="221.7483"/>
    <line x1="292.917" x2="293.3028" y1="228.6396" y2="229.098"/>
    <polyline points="292.7566,229.3209 308.5976,222.8561 288.9178,320.9537 239.7652,283.9543"/>
    <polyline points="232.2616,297.2542 275.2292,313.2372 201.5069,374.3492 194.3976,348.1145"/>
    <line x1="194.0585" x2="196.1296" y1="351.1473" y2="363.3576"/>
    <line x1="198.9844" x2="192.9057" y1="365.0408" y2="361.4568"/>
    <polyline points="191.7771,371.5493 204.9814,379.3343 146.9712,409.909 147.3854,399.8742"/>
    <polyline points="138.1694,401.7583 137.1785,425.766 224.1937,379.9039 207.0205,369.7787"/>
    <polyline points="212.8938,364.9101 237.6088,375.7254 211.1682,394.6858 209.9355,387.4188"/>
    <polyline points="201.009,392.1236 204.2408,411.1765 257.122,373.2556 221.5858,357.7049"/>
    <polyline points="230.2777,350.4997 276.6351,370.7859 197.3133,427.6671 192.0824,396.8284"/>
    <line x1="195.9429" x2="190.2683" y1="419.5877" y2="481.4621"/>
    <line x1="191.7553" x2="191.7172" y1="475.4685" y2="465.6638"/>
    <polyline points="190.9088,474.4778 217.3464,505.4196 131.9862,511.9321 135.2388,503.2537"/>
    <polyline points="141.4922,499.714 138.9003,506.5279 207.1884,501.3179 190.2683,481.4621 140.8446,444.2778"/>
    <polyline points="147.8872,433.5418 178.4124,456.5076 182.871,407.8933 154.7135,423.1356"/>
    <polyline points="143.9314,422.2068 113.5385,468.5386 83.7034,412.8934"/>
    <line x1="90.8158" x2="137.7089" y1="411.4393" y2="412.9167"/>
    <line x1="138.1077" x2="131.8237" y1="403.2536" y2="403.0556"/>
    <polygon points="132.3969,422.4251 98.9029,421.3698 114.278,450.0459"/>
    <polyline points="161.3425,413.0301 112.799,487.0313 66.6735,401.003 79.3434,401.4022"/>
    <polyline points="94.0134,451.9945 86.444,530.8734 164.7763,486.5343 127.1562,465.1447"/>
    <polyline points="122.909,471.6193 148.19,485.9933 95.9685,515.5527 100.845,464.7361"/>
    <polyline points="107.6766,477.4776 105.493,500.232 131.6038,485.4523 118.6618,478.0938"/>
    <line x1="145.76" x2="153.966" y1="475.7223" y2="454.1498"/>
    <line x1="157.7433" x2="149.7545" y1="456.9917" y2="477.9934"/>
    <line x1="153.749" x2="161.5207" y1="480.2646" y2="459.8336"/>
    <polyline points="171.5132,467.3516 197.0305,497.2163 145.8143,501.1237 147.6837,496.2094"/>
    <polyline points="153.8752,492.7047 152.7284,495.7196 186.8725,493.1146 163.9323,466.266 157.7434,482.5357"/>
    <polyline points="161.7379,484.8068 165.2444,475.5886 176.7146,489.0129 159.6425,490.3154 160.0668,489.2001"/>
    <line x1="180.8215" x2="191.8875" y1="508.2062" y2="509.4085"/>
    <polyline points="191.8795,507.3625 191.9833,534.0166 268.7726,483.1436 232.8699,464.2513"/>
    <polyline points="227.8737,471.1004 251.8802,483.7328 200.6874,517.6481 200.6448,506.6938"/>
    <polyline points="212.2124,499.4109 234.9879,484.3221 222.8775,477.9494"/>
    <line x1="209.3422" x2="209.3713" y1="488.6111" y2="496.0858"/>
    <line x1="200.5633" x2="200.5001" y1="485.7771" y2="469.537"/>
    <polyline points="192.8712,453.0802 211.5795,493.4373 271.4293,411.3924"/>
    <polyline points="279.9264,407.0166 289.6699,453.8345 249.7101,441.166"/>
    <polyline points="244.9913,447.6347 299.6875,464.9751 291.0579,423.5094"/>
    <polyline points="298.1259,420.4767 309.7051,476.1157 240.2725,454.1035"/>
    <polyline points="248.8699,472.6707 245.5383,462.6202 298.1017,476.0837 262.8498,514.8439 255.3002,492.0691"/>
    <line x1="230.793" x2="233.5273" y1="508.3052" y2="516.8701"/>
    <polygon points="230.2758,542.8702 216.0651,525.8789 207.9188,546.6009"/>
    <line x1="246.2639" x2="247.4494" y1="560.1023" y2="560.4786"/>
    <polyline points="247.2754,559.9335 258.1472,593.6719 262.0644,614.5993 292.5647,586.8534 270.9288,579.9851"/>
    <polyline points="266.5878,584.6336 281.0997,589.2403 265.8495,603.1133 263.0913,588.3777"/>
    <polyline points="275.2699,575.3367 304.0298,584.4664 258.2793,626.0853 247.1065,566.3963 249.5903,567.1848"/>
    <polyline points="279.611,570.6882 315.4948,582.0794 254.4942,637.5713 252.176,625.1867"/>
    <polyline points="253.4543,632.0157 245.8468,632.2974 251.2172,640.5851"/>
    <polyline points="260.9046,631.7398 292.7886,630.559 270.4864,670.3211 262.5926,658.1395"/>
    <line x1="254.2643" x2="245.4958" y1="669.3086" y2="687.7966"/>
    <line x1="246.1348" x2="257.6295" y1="698.7379" y2="674.5017"/>
    <line x1="260.9947" x2="246.7737" y1="679.6949" y2="709.6792"/>
    <polyline points="247.0285,714.041 296.1583,712.2712 278.7745,682.3988"/>
    <polyline points="275.7612,687.771 287.317,707.6286 252.988,708.8652 264.3599,684.888"/>
    <polyline points="267.7251,690.0812 261.3113,703.6043 278.4758,702.986 272.748,693.1432"/>
    <polyline points="281.7877,677.0265 304.9995,716.9138 247.3176,718.9917"/>
    <polyline points="255.7204,725.6637 255.8532,723.8193 258.7141,725.837"/>
    <polyline points="265.871,730.8846 297.9849,753.5338 251.9359,778.2417 253.9797,749.8466"/>
    <polyline points="316.5658,781.363 297.6121,822.8407 345.8719,815.5225 326.5834,789.98"/>
    <polygon points="384.7747,795.837 360.7968,800.0996 374.4304,818.2841"/>
    <polyline points="394.3454,787.0574 348.8809,795.1398 376.1482,831.5086 396.3819,787.6017"/>
    <polyline points="364.7626,838.1894 357.691,875.4192 395.6273,863.0637 382.5817,851.4524"/>
    <polyline points="380.0084,857.0366 384.17,860.7406 365.2018,866.9183 368.9486,847.1927 376.6562,854.0529"/>
    <polygon points="322.7538,876.6487 333.3004,849.9409 307.003,851.7956"/>
    <polyline points="289.7684,875.6437 306.6259,948.2224 264.0183,939.2415"/>
    <line x1="245.9961" x2="236.4896" y1="938.6423" y2="939.2812"/>
    <polyline points="235.0159,937.9319 278.5328,977.7734 184.5858,1002.5958 187.1414,983.8756"/>
    <polyline points="194.6297,981.023 192.9633,993.2302 263.4235,974.6134 222.4717,937.1204"/>
    <polyline points="214.0459,940.0795 248.3142,971.4535 201.3407,983.8647 202.118,978.1705"/>
    <polyline points="210.4312,969.2758 213.0805,949.8689 233.2049,968.2935 215.229,973.0431"/>
    <line x1="204.0196" x2="207.2994" y1="964.2413" y2="940.2153"/>
    <line x1="200.1809" x2="197.6079" y1="940.3586" y2="959.2068"/>
    <line x1="191.1963" x2="193.0625" y1="954.1722" y2="940.5019"/>
    <polyline points="174.2683,940.8802 215.343,973.1326 134.9222,1003.7676 139.1959,981.0363"/>
    <line x1="139.0589" x2="138.2728" y1="981.7649" y2="981.4116"/>
    <line x1="136.6683" x2="137.0243" y1="982.0638" y2="984.2803"/>
    <line x1="138.6436" x2="126.1666" y1="983.9742" y2="986.3329"/>
    <line x1="129.2483" x2="129.1472" y1="985.7503" y2="985.1212"/>
    <polyline points="136.6909,994.3604 74.4809,1006.1205 122.9516,1052.7793 139.1194,1002.1687"/>
    <polyline points="148.1286,1003.5289 155.1698,1047.3611 193.6961,1014.4479 153.8759,996.5475"/>
    <polyline points="149.8716,998.0729 126.9186,1069.9232 54.2126,999.935 88.3287,993.4857"/>
    <polygon points="128.4739,1005.9308 94.7493,1012.3061 118.9846,1035.6355"/>
    <polyline points="142.7973,1020.2177 149.4764,1061.7959 207.2658,1012.426 185.0973,1002.4606"/>
    <line x1="184.6328" x2="163.6558" y1="1002.2518" y2="992.822"/>
    <line x1="173.4358" x2="185.6774" y1="989.0965" y2="994.5995"/>
    <polyline points="196.4765,999.454 220.8356,1010.4042 143.783,1076.2307 137.466,1036.9064"/>
    <polygon points="160.8632,1032.9264 180.1263,1016.4698 156.5145,1005.8555"/>
    <polyline points="189.0628,1037.5479 188.0533,1061.5791 274.4858,1023.3119 229.7676,990.658"/>
    <polyline points="217.5808,993.8779 255.6891,1021.7051 198.0674,1047.2166 198.8239,1029.2089"/>
    <polyline points="208.5849,1020.87 208.0815,1032.8541 236.8923,1020.0984 209.4589,1000.0661 209.2435,1005.1932"/>
    <line x1="200.0071" x2="200.1142" y1="1001.0412" y2="998.4929"/>
    <polyline points="156.7876,973.8851 156.0118,978.0116 182.8187,967.7999 161.1331,950.7721 158.0839,966.9903"/>
    <line x1="150.9187" x2="154.7955" y1="961.8927" y2="941.2722"/>
    <polyline points="161.7235,941.1327 199.0809,970.4663 145.467,990.8896 147.9918,977.4607"/>
    <polygon points="131.2717,967.1033 109.1463,951.3622 105.744,977.4805"/>
    <line x1="143.7535" x2="146.6411" y1="956.795" y2="941.4364"/>
    <polyline points="112.686,798.885 125.81,799.1037 114.7423,819.2965 104.5609,798.7497 106.1247,798.7757"/>
    <polyline points="103.9362,792.6037 94.1042,792.4399 114.4671,833.5335 136.6024,793.1478 117.3668,792.8274"/>
    <polyline points="102.2224,694.1471 117.6993,714.9231 127.6202,688.0694 103.7911,692.7701"/>
    <polyline points="98.3655,579.0666 105.1084,616.4811 139.2069,588.1145 108.6326,573.7452"/>
    <line x1="123.6904" x2="154.4829" y1="565.9407" y2="580.4126"/>
    <line x1="147.697" x2="150.3458" y1="577.2233" y2="571.9543"/>
    <polyline points="158.5172,588.6605 95.1993,641.3348 77.7175,544.3343 85.9908,548.2226"/>
    <polyline points="92.1538,527.6414 94.8853,572.8287 161.2177,538.4488 118.921,512.4902"/>
    <polyline points="110.9605,516.9962 145.8177,538.3889 101.5961,561.3089 99.3159,523.5874"/>
    <line x1="126.8816" x2="132.2375" y1="507.9842" y2="511.2713"/>
    <polyline points="133.1674,511.8419 176.6178,538.5086 88.1746,584.3485 81.8893,480.3713 90.7674,485.82"/>
    <line x1="136.5814" x2="191.9286" y1="513.9372" y2="519.9506"/>
    <polyline points="157.4449,526.7417 185.6837,529.8098 164.592,556.5285 159.9926,547.1253"/>
    <polygon points="130.4176,538.3291 106.7355,523.7948 108.3068,549.7891"/>
    <polyline points="197.577,592.0901 224.2327,564.2965 236.5754,608.6537 205.783,603.3783"/>
    <line x1="276.4535" x2="295.2871" y1="617.5951" y2="616.8976"/>
    <polyline points="307.5953,589.2655 308.7244,615.9301 347.0813,590.3258 306.7503,569.3117 307.1792,579.4396"/>
    <line x1="300.3482" x2="299.9819" y1="577.2711" y2="568.6206"/>
    <line x1="293.2974" x2="293.5172" y1="569.914" y2="575.1027"/>
    <polyline points="287.3535,562.3974 284.8114,571.5559 372.7132,554.5479 333.0349,510.4418"/>
    <line x1="292.0388" x2="286.0678" y1="512.8387" y2="511.7878"/>
    <line x1="280.3106" x2="292.1707" y1="518.118" y2="520.2053"/>
    <polyline points="308.2006,468.8864 323.3246,491.877 363.1116,414.6336"/>
    <polyline points="360.3647,419.9664 390.8644,422.0598 371.7807,453.8792 357.1981,426.1143"/>
    <polyline points="348.3275,421.8358 322.6076,471.7691 302.4111,441.0676"/>
    <polygon points="301.9513,421.3507 321.8906,451.6611 337.5168,421.3242"/>
    <line x1="287.8821" x2="286.8803" y1="408.2494" y2="403.4356"/>
    <polyline points="261.5145,381.6288 261.208,391.065 284.5702,379.0342 274.7412,372.144"/>
    <polyline points="266.4388,366.3239 262.1102,363.2895 262.0737,364.4137"/>
    <line x1="254.1774" x2="254.5426" y1="360.9583" y2="349.7131"/>
    <polyline points="256.3628,349.6296 299.5058,379.8732 252.7814,403.9347 253.3149,387.5086"/>
    <line x1="236.8426" x2="234.2099" y1="401.5224" y2="401.2088"/>
    <line x1="236.5816" x2="224.5641" y1="409.5574" y2="408.1257"/>
    <line x1="214.9184" x2="236.3206" y1="415.0426" y2="417.5923"/>
    <polyline points="240.4954,427.3222 214.8375,462.4953 198.3483,426.9249"/>
    <line x1="196.5176" x2="195.7784" y1="422.9757" y2="421.3812"/>
    <polyline points="204.9535,422.1884 216.4666,447.0242 232.3937,425.1906 205.2726,421.9595"/>
    <polyline points="194.3248,437.2307 213.2085,477.9663 255.9624,419.3573"/>
    <polygon points="279.6522,442.6939 274.3319,417.1292 254.5753,434.7437"/>
    <line x1="319.9315" x2="340.4397" y1="411.1204" y2="411.1051"/>
    <polyline points="350.9307,438.2818 370.8488,476.2052 409.0161,412.5663 372.5,410.0599"/>
    <polyline points="376.8872,382.5138 383.792,379.15 367.7663,367.6236 367.0881,375.337"/>
    <polyline points="425.642,405.6169 369.9169,498.5312 344.6634,450.4493"/>
    <line x1="338.8617" x2="356.3346" y1="461.713" y2="472.671"/>
    <line x1="351.8569" x2="353.7873" y1="469.8628" y2="467.8209"/>
    <line x1="400.1626" x2="400.8973" y1="448.1005" y2="448.4401"/>
    <polyline points="400.4148,447.68 428.2078,491.4619 469.6716,401.1723 459.0054,401.8419"/>
    <polyline points="467.4664,405.9743 517.9639,423.5289 460.2368,476.1503 453.7526,435.8367"/>
    <polyline points="459.3632,423.6194 465.4214,461.2846 503.9062,426.2037 464.4719,412.495"/>
    <polygon points="470.606,446.4189 489.8484,428.8784 466.4781,420.7542"/>
    <polyline points="483.016,465.5254 511.0308,499.91 450.3841,504.0181 452.9426,497.7505"/>
    <polyline points="465.8226,487.764 463.0874,494.4647 493.4108,492.4106 476.4112,471.546"/>
    <polyline points="472.4974,475.1136 478.5377,477.9054 402.615,536.7717 400.2233,521.8074 388.9589,522.4187"/>
    <polyline points="366.4024,585.5924 380.3765,577.6079 381.8894,606.6988 362.4566,596.055"/>
    <polyline points="314.0845,583.3624 314.949,603.7787 334.1275,590.9766 313.962,580.4695 314.0102,581.6081"/>
    <line x1="317.5382" x2="286.3795" y1="669.945" y2="668.84"/>
    <polygon points="333.4092,691.7099 308.9506,690.8426 320.8423,710.702"/>
    <polygon points="345.6448,685.0765 296.7275,683.3417 320.5109,723.0605"/>
    <polygon points="373.0176,685.8135 360.4851,705.0117 384.6037,705.6001"/>
    <line x1="388.9808" x2="407.7885" y1="673.9232" y2="670.5448"/>
    <polyline points="450.1704,712.1824 482.9387,760.2413 520.2284,670.7119"/>
    <line x1="517.7365" x2="528.2275" y1="676.6949" y2="677.1211"/>
    <line x1="537.5438" x2="514.8341" y1="684.5859" y2="683.6633"/>
    <polyline points="509.6052,696.2173 526.7132,726.7698 547.1479,692.2812"/>
    <polyline points="550.0237,687.4276 551.3745,685.1478 550.1379,685.0976"/>
    <polyline points="550.4846,678.0254 563.3969,678.55 526.405,740.9829 506.079,704.6836"/>
    <polygon points="527.0214,712.5566 539.3521,691.7456 514.8099,690.7485"/>
    <polyline points="551.8435,711.7422 586.23,754.4016 613.4884,687.9225"/>
    <line x1="614.3187" x2="611.9472" y1="690.9463" y2="691.6814"/>
    <polyline points="610.2575,695.8021 637.5237,721.3709 646.5139,680.9673 630.6809,685.8748"/>
    <polyline points="623.6248,694.2538 638.4608,689.6553 633.9657,709.8572 620.8457,697.554"/>
    <polyline points="607.8358,701.7084 641.0817,732.8847 654.5669,672.2792 637.7371,677.4957"/>
    <line x1="644.7932" x2="662.3677" y1="669.1167" y2="663.6694"/>
    <polyline points="662.5488,663.9112 644.6396,744.3985 605.414,707.6147"/>
    <polyline points="602.9923,713.521 648.1976,755.9122 667.2671,670.2103"/>
    <line x1="665.729" x2="672.3247" y1="677.1228" y2="676.9624"/>
    <line x1="677.6249" x2="664.1171" y1="684.0385" y2="684.3671"/>
    <polyline points="661.4908,696.1701 684.242,728.6792 703.8293,683.4011 699.4473,683.5077"/>
    <polyline points="701.6961,676.248 714.7706,675.93 685.3896,743.8471 659.2068,706.4346"/>
    <polyline points="656.9229,716.6991 686.5372,759.015 725.7118,668.4589 703.9449,668.9883"/>
    <polyline points="682.9252,691.1146 667.6798,691.4854 683.0943,713.5113 689.1742,699.4572"/>
    <line x1="660.9615" x2="655.6651" y1="722.4699" y2="722.352"/>
    <polyline points="635.8625,744.3449 617.4905,743.9358 630.1768,764.7486 640.5964,748.7841"/>
    <line x1="611.3573" x2="609.6406" y1="721.3653" y2="721.3271"/>
    <polyline points="593.636,736.3396 594.3364,736.1505 585.41,775.8546 557.6137,746.0673 575.5973,741.2109"/>
    <line x1="568.068" x2="558.2131" y1="731.8701" y2="734.5314"/>
    <polyline points="555.8497,704.9808 584.3897,740.3871 610.4456,676.8406"/>
    <polyline points="618.1201,669.9387 621.6637,682.8446 661.5647,635.4627 613.0718,623.1248"/>
    <line x1="605.1484" x2="614.348" y1="622.6956" y2="656.2004"/>
    <polygon points="589.831,651.1923 578.7698,633.2026 567.2774,651.808"/>
    <line x1="597.057" x2="595.7474" y1="628.079" y2="623.3093"/>
    <polyline points="594.2106,623.4496 622.718,669.8132 550.7909,671.7767"/>
    <polyline points="551.1102,665.2618 611.7557,663.6063 587.4444,624.0672"/>
    <line x1="586.9705" x2="585.9621" y1="623.2965" y2="621.6564"/>
    <polyline points="587.6317,621.7468 586.6092,624.1434 603.4678,622.6046"/>
    <polygon points="578.6708,621.4199 555.6862,658.6306 600.7933,657.3993"/>
    <line x1="571.6274" x2="551.7047" y1="620.8799" y2="653.1334"/>
    <line x1="552.3406" x2="564.4892" y1="640.161" y2="620.4933"/>
    <polyline points="553.3343,619.889 549.6861,694.3149 506.6796,659.8559"/>
    <polyline points="512.6216,656.7629 544.097,681.9825 547.1571,619.5544"/>
    <polyline points="519.6011,642.3042 533.9782,635.7056 532.9188,657.3178 524.5057,650.5768"/>
    <polyline points="518.5637,653.6698 538.5079,669.6501 540.6267,626.4258 514.5079,638.4135"/>
    <line x1="512.497" x2="492.1755" y1="664.5171" y2="667.4057"/>
    <polygon points="487.7074,689.4973 463.3553,692.9589 477.5777,713.8179"/>
    <line x1="492.3236" x2="489.6556" y1="621.4668" y2="619.4287"/>
    <polygon points="530.2699,549.8611 535.1726,530.6337 516.4443,535.1958"/>
    <polyline points="567.8172,684.7827 601.0006,681.3726 582.5494,726.3725 559.8559,698.2194"/>
    <polygon points="580.709,712.358 589.9347,689.858 564.6656,692.4548"/>
    <line x1="651.8493" x2="658.6035" y1="660.7376" y2="658.6441"/>
    <polyline points="656.2539,655.5072 692.9466,704.4936 721.9545,610.8485 695.7138,616.3344"/>
    <polygon points="670.5169,640.9317 684.6967,659.8624 691.9487,636.4512"/>
    <line x1="659.3825" x2="658.5853" y1="626.1826" y2="617.5736"/>
    <line x1="659.1779" x2="654.5222" y1="623.9727" y2="624.946"/>
    <polygon points="645.9862,640.224 617.5439,632.9876 626.0357,663.915"/>
    <line x1="666.7039" x2="675.2475" y1="786.9428" y2="787.2075"/>
    <polyline points="681.3064,796.2174 666.8563,795.7697 681.391,824.747 697.3891,796.7156 692.5075,796.5644"/>
    <polyline points="695.5218,787.8355 712.8315,788.3718 680.8354,844.4346 660.3284,803.5505"/>
    <polyline points="655.8063,815.3304 680.2797,864.1221 728.2739,780.028 698.5361,779.1067"/>
    <polyline points="687.7499,851.0331 700.5445,862.011 669.9191,872.285 673.8807,851.3648"/>
    <polyline points="642.6398,849.6282 649.901,876.7683 602.591,866.7784 626.0088,841.548"/>
    <line x1="617.1074" x2="609.0928" y1="829.5293" y2="838.1643"/>
    <polygon points="593.5395,808.206 573.9671,789.8792 569.7181,815.1849"/>
    <polyline points="572.3661,870.6237 562.2818,846.6721 600.198,848.6084 576.7658,881.0737 574.0187,874.5489"/>
    <line x1="464.6746" x2="462.6756" y1="889.9087" y2="901.9227"/>
    <polyline points="458.5838,1000.8358 458.6748,1001.6405 459.4887,1001.0873"/>
    <line x1="548.5521" x2="559.8665" y1="988.0473" y2="988.6059"/>
    <polyline points="554.1013,1032.3776 575.7091,1074.7445 631.1035,992.1229 623.8638,991.7655"/>
    <line x1="628.3045" x2="629.9611" y1="991.9847" y2="989.8846"/>
    <polygon points="633.4968,995.1268 607.6375,1027.9087 647.6005,1031.6991"/>
    <polyline points="636.7208,987.7994 656.1969,1038.3028 603.4932,1033.3041"/>
    <polyline points="599.8443,1038.7464 664.7933,1044.9066 642.1274,986.1316"/>
    <polyline points="647.5339,984.4638 673.3897,1051.5103 596.1955,1044.1887"/>
    <line x1="604.8134" x2="604.8414" y1="1005.5648" y2="1005.3001"/>
    <polygon points="639.0041,1025.0954 631.9522,1006.8092 619.0226,1023.2002"/>
    <polygon points="670.2771,1016.6725 686.9452,1031.419 690.9647,1007.2997"/>
    <polyline points="674.8359,973.8431 694.3148,980.9409 690.725,943.3622 664.1124,964.6752"/>
    <polygon points="688.1308,973.0373 686.3359,954.2479 670.7724,966.7121"/>
    <polyline points="405.9326,438.4799 426.8891,471.4923 454.5234,411.3172 420.9704,413.4063"/>
    <polyline points="415.2515,422.9418 439.3916,421.4263 425.5704,451.5228 411.4503,429.2797"/>
    <polyline points="458.2218,332.5097 481.1328,362.8164 502.4895,303.9728 485.8288,305.9822"/>
    <polyline points="479.2128,315.6023 489.1401,314.405 478.4617,343.8268 466.0314,327.3839"/>
    <line x1="465.6566" x2="459.5859" y1="317.2372" y2="317.9694"/>
    <polygon points="474.0521,290.3734 492.269,263.885 460.7629,260.8557"/>
    <line x1="481.4149" x2="447.7232" y1="253.6629" y2="250.4234"/>
    <polyline points="448.1749,255.6515 472.3136,309.2677 508.7474,256.2909 495.5978,255.0266"/>
    <polyline points="517.5887,259.8016 585.0088,214.9074 539.608,191.9427"/>
    <line x1="542.3632" x2="543.7377" y1="189.3124" y2="194.0317"/>
    <polyline points="554.7285,199.591 552.3353,191.3746 577.856,198.0931"/>
    <polyline points="565.7193,205.1504 565.602,204.7478 597.6203,213.1769 574.3411,234.7518 571.2237,224.0488"/>
    <polyline points="563.3693,229.2573 569.8136,251.3824 616.372,208.2327 603.3336,204.8003"/>
    <polyline points="622.3277,215.1476 616.6181,230.7864 648.1478,223.6919 631.2706,206.8595"/>
    <polygon points="614.6446,180.6765 649.6351,169.8173 625.3016,146.0624"/>
    <line x1="606.7565" x2="616.8387" y1="171.012" y2="138.2648"/>
    <polyline points="621.3842,141.1436 606.7631,188.6332 659.2488,172.3445 638.1935,151.7898"/>
    <polygon points="640.0214,167.2902 627.8547,155.4127 622.5262,172.7198"/>
    <line x1="659.2291" x2="683.6551" y1="153.1441" y2="144.0917"/>
    <line x1="661.1474" x2="659.3633" y1="142.4141" y2="143.0753"/>
    <polyline points="659.3739,142.2819 732.168,147.7076 688.6314,46.289 660.1411,84.7138"/>
    <polyline points="659.9888,96.1392 687.2945,59.3122 722.1237,140.4471 659.4606,135.7765"/>
    <polyline points="659.5473,129.2711 712.0795,133.1866 685.9576,72.3354 659.8365,107.5647"/>
    <polyline points="659.6843,118.9901 684.6206,85.3586 702.0352,125.926 659.634,122.7657"/>
    <polygon points="669.4878,116.9883 691.991,118.6655 683.2837,98.3818"/>
    <polyline points="629.9972,100.7327 640.4148,95.3074 639.9621,129.2741 617.1941,114.8541"/>
    <polyline points="612.0276,118.98 602.3964,214.0513 551.273,180.8066"/>
    <line x1="550.9383" x2="552.3263" y1="181.1261" y2="181.4916"/>
    <polyline points="558.3321,174.0675 594.5538,197.6219 601.1722,132.2901 586.8619,139.0765"/>
    <polyline points="580.2466,144.3593 633.5187,101.8178 549.0334,75.7858 551.189,90.4572"/>
    <polyline points="557.5308,91.7593 556.4922,84.6906 619.8562,104.2146 571.9595,142.4635"/>
    <line x1="564.7377" x2="560.9712" y1="140.8114" y2="115.1755"/>
    <line x1="555.6237" x2="558.3733" y1="120.6406" y2="139.3554"/>
    <polyline points="580.2154,153.1764 590.0205,148.5266 586.7113,181.1925 565.3913,167.3284"/>
    <polyline points="523.836,153.1274 547.4438,158.528 523.5764,181.3132 515.9132,161.2244"/>
    <polyline points="506.7112,163.4909 496.2135,135.9719 508.7003,138.8285"/>
    <line x1="505.7105" x2="498.9892" y1="127.3081" y2="125.7705"/>
    <polyline points="503.6217,119.2594 514.8061,162.3559 579.475,96.2647 493.0493,78.5204 495.2506,87.0027"/>
    <polygon points="488.5379,105.2314 466.9866,105.4311 474.8396,124.4845"/>
    <polyline points="513.0543,106.0018 521.0679,136.8804 553.4023,103.8349 519.5422,96.8829"/>
    <polyline points="566.3187,109.7103 570.0985,135.436 606.1937,106.6114 577.8857,97.889"/>
    <polyline points="572.9188,102.9651 592.5312,109.0082 574.4836,123.4205 571.6663,104.2452"/>
    <polyline points="603.7309,92.6394 660.429,63.1121 659.0709,165.0124 610.4818,134.2387"/>
    <line x1="612.2932" x2="609.4202" y1="135.3859" y2="144.7173"/>
    <polyline points="611.6068,123.1333 649.5165,147.1432 650.4219,79.2097 616.864,96.6861"/>
    <polyline points="720.4595,120.4327 721.4411,120.0689 721.0722,121.8599"/>
    <polyline points="522.9753,207.8213 541.7495,217.3177 520.6719,231.2949 519.6614,210.9849"/>
    <polyline points="477.9308,225.9627 479.5068,227.1009 482.1568,209.8302 467.1155,215.9083"/>
    <polyline points="462.4718,212.0663 488.523,201.5392 483.2229,236.0807 472.2873,228.1829"/>
    <polyline points="443.2496,183.3532 440.9537,189.0129 523.4972,187.1698 489.4629,139.1599"/>
    <polyline points="481.4928,150.3619 499.6439,175.9664 458.3722,176.888 467.8168,153.6063"/>
    <polyline points="466.4907,150.3888 471.9866,163.7231 526.7796,86.7107 450.7301,87.4151"/>
    <polyline points="451.3548,93.4648 514.0323,92.8843 472.9376,150.6436 470.4929,144.7122"/>
    <line x1="469.2546" x2="452.0178" y1="141.7077" y2="99.8868"/>
    <line x1="454.1375" x2="462.7504" y1="120.4167" y2="141.3138"/>
    <line x1="460.3623" x2="461.5173" y1="141.1692" y2="138.3221"/>
    <polygon points="473.8886,137.5641 501.2851,99.0579 458.1826,99.4571"/>
    <polygon points="430.9704,120.3898 428.919,100.5212 411.3511,112.9408"/>
    <polyline points="372.556,128.5584 404.7118,125.5701 369.4009,80.5306 356.9214,107.2435"/>
    <polyline points="351.504,99.8579 367.7451,65.0934 420.7114,132.6527 340.0311,140.1503"/>
    <line x1="342.4201" x2="342.5505" y1="139.9283" y2="141.7633"/>
    <line x1="349.505" x2="350.0224" y1="139.2699" y2="146.5469"/>
    <polyline points="365.8676,137.7493 410.7903,162.5474 359.2938,198.3734"/>
    <polyline points="334.453,192.5494 356.9233,189.0403 328.1777,261.718 306.071,235.4506"/>
    <line x1="261.5209" x2="229.5372" y1="243.8628" y2="245.2587"/>
    <polyline points="225.72,250.5695 253.5439,249.3552 219.4147,309.848 208.5796,293.0609"/>
    <line x1="199.6063" x2="210.8975" y1="301.5334" y2="305.7334"/>
    <polyline points="198.78,308.9228 209.8013,349.5932 246.6624,319.0372 224.6017,310.8311"/>
    <polyline points="228.4316,304.0426 260.9458,316.1372 205.6541,361.9712 196.5888,328.5187"/>
    <polyline points="217.8735,316.5414 207.278,312.6002 213.9484,337.2152 232.379,321.9372 220.7717,317.6195"/>
    <polyline points="233.9895,347.4228 232.3565,350.7315 316.4296,346.8724 290.404,313.5455"/>
    <polyline points="270.6673,307.2158 293.0321,335.8548 250.9955,337.7843 254.7201,330.2382"/>
    <line x1="246.5221" x2="246.281" y1="350.0813" y2="357.5028"/>
    <line x1="238.3847" x2="238.5016" y1="354.0473" y2="350.4494"/>
    <line x1="254.6423" x2="258.3944" y1="305.5793" y2="297.9773"/>
    <line x1="267.3251" x2="264.991" y1="304.6999" y2="309.4288"/>
    <line x1="256.5974" x2="260.1122" y1="244.0777" y2="242.6433"/>
    <polyline points="242.4235,227.3303 284.6261,263.8649 304.5722,179.1205 276.6605,188.4942"/>
    <line x1="289.7728" x2="289.8558" y1="184.0906" y2="182.518"/>
    <polyline points="257.9914,205.6709 290.5971,194.7207 278.6295,245.5674 248.2305,219.2511"/>
    <polyline points="251.134,215.2115 275.6312,236.4186 283.6096,202.5208 252.8244,212.8596"/>
    <polygon points="259.6419,216.0235 272.6329,227.2699 276.6221,210.321"/>
    <polyline points="262.8428,150.6969 259.8805,178.1518 285.6737,166.47 263.2934,149.9507"/>
    <polygon points="277.0319,118.5793 272.5353,99.8769 259.6126,114.2554"/>
    <polyline points="219.5126,149.257 245.4825,149.4291 217.691,195.445 196.7067,157.9642"/>
    <line x1="199.8918" x2="205.9345" y1="149.127" y2="149.1671"/>
    <polyline points="202.756,141.1804 210.297,160.1285 267.6437,92.4781 177.9126,78.7566 181.1183,86.8117"/>
    <polyline points="202.7888,95.8125 242.8696,101.9416 214.1963,135.7668 200.3874,101.0694"/>
    <line x1="193.1222" x2="198.2877" y1="116.9737" y2="129.9529"/>
    <polygon points="101.7433,72.3975 90.9659,138.8727 147.987,117.9371"/>
    <polygon points="124.552,316.9021 102.5675,320.2488 117.4239,338.8131"/>
    <polygon points="174.7124,342.653 178.5992,307.8931 149.2276,323.1983"/>
    <polyline points="157.2827,381.4824 158.0689,362.4332 185.769,378.7648 164.8537,389.7883"/>
    <polyline points="366.6714,120.5358 388.7122,118.4876 371.0568,95.9678 362.3388,114.6291"/>
    <polyline points="510.978,306.9339 549.3553,318.5457 521.4735,348.2234 509.4835,311.0515"/>
    <polygon points="517.5899,315.4123 524.4016,336.5303 538.3425,321.6914"/>
  </g>
</svg>
