<?xml version="1.0" encoding="utf-8" ?>
<svg xmlns="http://www.w3.org/2000/svg" xmlns:cc="http://creativecommons.org/ns#" xmlns:dc="http://purl.org/dc/elements/1.1/" xmlns:ev="http://www.w3.org/2001/xml-events" xmlns:inkscape="http://www.inkscape.org/namespaces/inkscape" xmlns:rdf="http://www.w3.org/1999/02/22-rdf-syntax-ns#" xmlns:sodipodi="http://sodipodi.sourceforge.net/DTD/sodipodi-0.dtd" xmlns:xlink="http://www.w3.org/1999/xlink" baseProfile="tiny" height="29.7cm" version="1.2" viewBox="0 0 793.7007874015749 1122.5196850393702" width="21.0cm">
  <metadata>
    <rdf:RDF>
      <cc:Work>
        <dc:format>image/svg+xml</dc:format>
        <dc:source/>
        <dc:date>2021-12-10T22:37:30.222807</dc:date>
      </cc:Work>
    </rdf:RDF>
  </metadata>
  <defs/>
  <g fill="none" id="layer1" inkscape:groupmode="layer" inkscape:label="1" stroke="#00f" style="display:inline">
    <polyline points="519.924,595.9384 511.7947,600.6319 511.7947,621.8571 519.924,617.1637"/>
    <line x1="519.924" x2="519.924" y1="626.5274" y2="588.7553"/>
    <polyline points="512.3143,581.0566 484.6354,565.0762 467.4229,575.0138 467.4229,577.3723"/>
    <line x1="467.4229" x2="511.7947" y1="575.0138" y2="600.6319"/>
    <polyline points="499.8554,596.0973 479.063,608.1017 479.063,640.7548 499.8554,628.7503 499.8554,596.0973 462.6704,574.6285"/>
    <line x1="446.3313" x2="413.5997" y1="584.0618" y2="565.1642"/>
    <line x1="412.921" x2="403.0121" y1="576.9978" y2="571.2769"/>
    <polyline points="398.1473,576.2626 380.868,586.2388 380.868,659.6524 413.5997,640.7548"/>
    <polyline points="427.6371,648.8593 413.5997,656.9637 413.5997,666.5222"/>
    <line x1="413.5997" x2="399.5623" y1="656.9637" y2="648.8593"/>
    <polyline points="387.0086,656.1071 387.0086,663.1977 391.6572,665.8815"/>
    <polyline points="380.868,659.6524 341.5886,636.9744 341.5886,599.1791"/>
    <polyline points="340.0037,598.2641 309.1873,580.4722 309.1873,542.677"/>
    <polyline points="309.1873,546.8684 303.2491,550.2968 303.2491,577.0439 309.1873,580.4722"/>
    <line x1="315.4047" x2="279.7562" y1="590.88" y2="570.2983"/>
    <polyline points="303.2491,556.7346 279.7562,570.2983 279.7562,601.2754 315.4047,621.8571"/>
    <line x1="325.3909" x2="325.3909" y1="616.0916" y2="630.1375"/>
    <line x1="327.93" x2="282.673" y1="631.6035" y2="657.7327"/>
    <polyline points="282.673,678.55 327.93,652.4209 327.93,631.6035 286.437,607.6475 241.1799,633.7766 241.1799,654.594 282.673,678.55 282.673,657.7327 241.1799,633.7766"/>
    <line x1="238.1591" x2="282.673" y1="666.2054" y2="691.9055"/>
    <polyline points="292.4942,686.2352 282.673,691.9055 282.673,716.3453 238.1591,690.6452 238.1591,666.2054 247.9804,660.5351 292.4942,686.2352 292.4942,710.675 249.9413,735.243 249.9413,717.5407 208.1524,693.4138"/>
    <polyline points="184.478,697.4477 202.3138,687.1502 202.3138,656.3271 176.8202,641.6084 158.9844,651.9059 158.9844,682.729 184.478,697.4477 184.478,666.6246 202.3138,656.3271"/>
    <line x1="184.478" x2="158.9844" y1="666.6246" y2="651.9059"/>
    <polyline points="238.1591,676.0894 208.1524,693.4138 208.1524,711.1161 249.9413,735.243"/>
    <line x1="249.9413" x2="267.3424" y1="717.5407" y2="707.4942"/>
    <polyline points="325.3909,653.8868 325.3909,665.418 348.1363,678.55"/>
    <polyline points="354.3228,680.1398 380.868,695.4657 380.868,735.243 354.3228,719.9171 354.3228,680.1398 365.1306,673.8998 391.6759,689.2257 391.6759,729.003 380.868,735.243"/>
    <line x1="369.0013" x2="413.5997" y1="728.3917" y2="754.1406"/>
    <line x1="404.8296" x2="413.5997" y1="770.7259" y2="775.7893"/>
    <polyline points="417.3696,779.5629 446.3313,796.284 446.3313,810.8335 417.3696,794.1124 417.3696,779.5629 437.405,767.9955 466.3667,784.7165 466.3667,799.2661 446.3313,810.8335"/>
    <line x1="446.3313" x2="466.3667" y1="796.284" y2="784.7165"/>
    <polyline points="444.8246,772.2792 444.8246,757.7616 436.0546,752.6982 404.8296,770.7259 404.8296,786.8725 413.5997,791.9359"/>
    <polyline points="417.3696,789.7593 413.5997,791.9359 413.5997,775.7893 444.8246,757.7616"/>
    <line x1="413.5997" x2="446.672" y1="704.7108" y2="685.6165"/>
    <polyline points="424.0161,672.5361 469.8722,646.0611 469.8722,600.2756 421.2375,572.1963 398.1473,585.5274"/>
    <line x1="398.1473" x2="446.3313" y1="586.0478" y2="613.8669"/>
    <line x1="469.8722" x2="479.063" y1="602.7955" y2="608.1017"/>
    <polyline points="469.8722,600.2756 446.3313,613.8669 446.3313,659.6524 397.6966,631.5731 397.6966,612.1411"/>
    <line x1="380.868" x2="340.0037" y1="586.2388" y2="562.6458"/>
    <polyline points="348.1363,557.9504 348.1363,546.6815 352.8998,543.9312"/>
    <line x1="348.1363" x2="331.4112" y1="546.6815" y2="537.0252"/>
    <line x1="341.0482" x2="352.8998" y1="530.7442" y2="537.5868"/>
    <polyline points="352.8998,555.2002 340.0037,562.6458 340.0037,598.2641 380.868,621.8571 398.1473,611.881 398.1473,576.2626 396.262,575.1741"/>
    <polyline points="380.868,584.0618 426.3923,557.7784 426.3923,501.2954 398.4242,485.148 352.8998,511.4314 352.8998,567.9144 380.868,584.0618 380.868,527.5789 352.8998,511.4314"/>
    <line x1="341.0482" x2="315.4047" y1="507.9267" y2="522.732"/>
    <polyline points="315.4047,546.2666 341.0482,531.4613 341.0482,507.9267 294.9136,481.2908 269.27,496.0961 269.27,519.6307 315.4047,546.2666 315.4047,522.732 269.27,496.0961"/>
    <line x1="269.27" x2="249.0981" y1="503.7207" y2="492.0744"/>
    <polyline points="239.0122,502.4264 217.2097,515.0141 217.2097,565.1642 179.2623,543.2553 179.2623,493.1051 201.0648,480.5175 239.0122,502.4264 239.0122,552.5765 217.2097,565.1642"/>
    <line x1="217.2097" x2="179.2623" y1="515.0141" y2="493.1051"/>
    <polyline points="233.6217,436.9643 282.673,465.2841 282.673,488.3579"/>
    <polyline points="281.6201,488.9658 233.6217,461.2539 233.6217,436.9643 256.2107,423.9225 305.262,452.2423 305.262,476.5319 295.9664,481.8987 300.9395,479.0275"/>
    <polyline points="303.7053,486.3668 324.1934,474.538 339.0157,483.0956 339.0157,494.8394 328.6981,500.7963"/>
    <line x1="318.5276" x2="339.0157" y1="494.9244" y2="483.0956"/>
    <line x1="339.0157" x2="348.1363" y1="484.3079" y2="489.5737"/>
    <line x1="348.1363" x2="330.6396" y1="471.9819" y2="461.8801"/>
    <polyline points="336.8939,458.2692 342.3081,455.1433 342.3081,425.7456 336.8939,422.6197"/>
    <line x1="342.3081" x2="336.8939" y1="425.7456" y2="428.8715"/>
    <polyline points="342.3081,444.6459 354.2895,437.7284 380.8773,453.0789 380.8773,470.6707 348.1363,489.5737 348.1363,471.9819 380.8773,453.0789"/>
    <line x1="397.3795" x2="413.5997" y1="447.8232" y2="457.1879"/>
    <polyline points="430.0142,447.7109 413.5997,457.1879 413.5997,489.5737 397.3795,480.2089 397.3795,447.8232 413.794,438.3462 430.0142,447.7109 430.0142,480.0967 413.5997,489.5737"/>
    <polyline points="415.1219,494.7884 444.7213,477.6992 491.5351,504.7271 491.5351,557.9634 446.3313,584.0618 446.3313,530.8255 426.3923,519.3137"/>
    <line x1="426.3923" x2="380.868" y1="501.2954" y2="527.5789"/>
    <line x1="446.3313" x2="491.5351" y1="530.8255" y2="504.7271"/>
    <line x1="489.8027" x2="492.841" y1="503.7269" y2="501.9727"/>
    <polyline points="492.841,497.5284 492.841,535.3237 511.7947,546.2666"/>
    <polyline points="512.3143,552.8158 544.5264,571.4134 544.5264,602.9595 512.3143,584.3619 512.3143,552.8158 550.6785,530.6662 555.3148,533.343"/>
    <polyline points="544.5264,527.3689 569.631,512.8748 569.631,488.0186 537.0477,469.2066 511.943,483.7007 511.943,508.557 544.5264,527.3689 544.5264,502.5127 511.943,483.7007"/>
    <line x1="511.7947" x2="471.6976" y1="469.481" y2="446.331"/>
    <polyline points="471.6976,447.526 450.9977,435.5748 450.9977,409.8376 474.5126,396.2612 502.578,412.4648 502.578,435.9565"/>
    <line x1="502.578" x2="479.063" y1="412.4648" y2="426.0411"/>
    <polyline points="479.063,442.0786 479.063,426.0411 450.9977,409.8376"/>
    <polyline points="425.3706,407.1872 413.5997,413.9831 413.5997,378.4747 377.3411,357.5408"/>
    <line x1="378.9571" x2="333.6313" y1="356.6078" y2="330.439"/>
    <polyline points="303.1739,387.4654 307.803,384.7928 332.0192,398.7741 332.0192,404.1193"/>
    <line x1="332.0192" x2="327.3901" y1="398.7741" y2="401.4467"/>
    <polyline points="336.8939,406.9337 315.4047,419.3405 315.4047,470.676 336.8939,458.2692 336.8939,406.9337 298.1278,384.5521 276.6386,396.9589 276.6386,435.7166"/>
    <line x1="282.673" x2="305.262" y1="465.2841" y2="452.2423"/>
    <line x1="305.262" x2="315.4047" y1="464.8202" y2="470.676"/>
    <polyline points="321.5486,467.1288 321.5486,474.2232 323.1436,475.1441"/>
    <line x1="317.2382" x2="305.262" y1="478.5536" y2="471.6391"/>
    <polyline points="268.0513,481.1318 249.0981,492.0744 249.0981,507.9845 269.27,519.6307"/>
    <line x1="303.2491" x2="309.1873" y1="550.2968" y2="553.7251"/>
    <polyline points="321.3094,587.4709 315.4047,590.88 315.4047,621.8571 341.5886,606.7398"/>
    <line x1="331.0697" x2="341.5886" y1="612.8129" y2="618.886"/>
    <polyline points="348.1363,640.7548 348.1363,678.55 360.9972,671.1248 360.9972,648.18"/>
    <polyline points="371.4498,677.5482 402.0736,659.8676 446.672,685.6165 446.672,735.0463 413.5997,754.1406 413.5997,704.7108 391.6759,692.0531"/>
    <line x1="391.6759" x2="380.868" y1="689.2257" y2="695.4657"/>
    <line x1="469.8722" x2="479.063" y1="635.4485" y2="640.7548"/>
    <polyline points="485.669,637.5503 511.7947,652.634 511.7947,697.4477 538.4683,682.0477 538.4683,675.0524"/>
    <polyline points="544.5264,678.55 560.0882,669.5654 560.0882,645.5171 534.6887,630.8528 519.1269,639.8374 519.1269,663.8857 544.5264,678.55 544.5264,654.5017 519.1269,639.8374"/>
    <line x1="519.1269" x2="511.7947" y1="648.4007" y2="652.634"/>
    <polyline points="531.0522,632.9523 512.3426,622.1503 485.669,637.5503 485.669,682.364 511.7947,697.4477"/>
    <line x1="544.5264" x2="560.0882" y1="654.5017" y2="645.5171"/>
    <polyline points="548.1829,638.6436 568.5311,626.8956 568.5311,589.1003"/>
    <line x1="569.0437" x2="587.5893" y1="588.8044" y2="578.0971"/>
    <polyline points="577.258,584.0618 592.4263,575.3044 592.4263,537.5092"/>
    <line x1="582.8905" x2="544.5264" y1="549.2639" y2="571.4134"/>
    <polyline points="577.258,546.2666 620.0829,521.5416 620.0829,500.5578 605.5238,492.1521"/>
    <polyline points="620.0829,500.5578 577.258,525.2827 577.258,546.2666 555.3148,533.5976 555.3148,521.1403 511.7947,546.2666 511.7947,469.481 536.2195,455.3794"/>
    <polyline points="539.2234,464.0923 538.4873,463.6674 536.2195,464.9767"/>
    <polyline points="536.2195,465.8267 574.7341,443.5902 588.4574,451.5133 588.4574,464.2101 558.4254,481.549"/>
    <line x1="547.4297" x2="588.4574" y1="475.2007" y2="451.5133"/>
    <polyline points="575.7941,444.2022 594.2859,433.526 620.7937,448.8303 620.7937,483.3359 577.258,508.4713 577.258,473.9656 574.4092,472.3208"/>
    <line x1="577.258" x2="620.7937" y1="473.9656" y2="448.8303"/>
    <line x1="569.631" x2="544.5264" y1="488.0186" y2="502.5127"/>
    <line x1="562.6989" x2="577.258" y1="516.877" y2="525.2827"/>
    <line x1="577.258" x2="569.631" y1="508.4713" y2="504.0678"/>
    <line x1="569.631" x2="569.8739" y1="504.3483" y2="504.2081"/>
    <polyline points="577.4785,546.1393 582.8905,549.2639 582.8905,580.8099 544.5264,602.9595 544.5264,636.5325"/>
    <line x1="511.7947" x2="499.8554" y1="621.8571" y2="614.964"/>
    <line x1="443.9488" x2="441.6777" y1="582.6863" y2="583.9975"/>
    <line x1="491.5351" x2="492.841" y1="520.1682" y2="519.4142"/>
    <polyline points="511.7947,508.4713 471.6976,485.3212 471.6976,446.331 496.1224,432.2293 536.2195,455.3794 536.2195,469.6847"/>
    <line x1="471.6976" x2="463.4704" y1="483.7739" y2="488.5239"/>
    <polygon points="482.2414,374.3528 446.3313,395.0855 400.7981,368.7968 400.7981,332.4189 436.7082,311.6862 482.2414,337.9748"/>
    <polyline points="482.2414,337.9748 446.3313,358.7075 446.3313,395.0855 413.5997,413.9831 377.3411,393.0492 377.3411,357.5408 400.7981,343.9979"/>
    <polyline points="400.7981,339.0192 359.7841,315.3397 333.6313,330.439 333.6313,367.8134 377.3411,393.0492"/>
    <line x1="413.5997" x2="415.5802" y1="378.4747" y2="377.3313"/>
    <line x1="446.3313" x2="400.7981" y1="358.7075" y2="332.4189"/>
    <line x1="315.4047" x2="276.6386" y1="419.3405" y2="396.9589"/>
    <polyline points="583.9622,603.8586 609.9897,618.8856 609.9897,640.7548 583.9622,625.7278 583.9622,603.8586 608.6888,589.5826 634.7164,604.6096 634.7164,626.4788 609.9897,640.7548"/>
    <line x1="609.9897" x2="634.7164" y1="618.8856" y2="604.6096"/>
  </g>
</svg>
