<?xml version="1.0" encoding="utf-8" ?>
<svg xmlns="http://www.w3.org/2000/svg" xmlns:cc="http://creativecommons.org/ns#" xmlns:dc="http://purl.org/dc/elements/1.1/" xmlns:ev="http://www.w3.org/2001/xml-events" xmlns:inkscape="http://www.inkscape.org/namespaces/inkscape" xmlns:rdf="http://www.w3.org/1999/02/22-rdf-syntax-ns#" xmlns:sodipodi="http://sodipodi.sourceforge.net/DTD/sodipodi-0.dtd" xmlns:xlink="http://www.w3.org/1999/xlink" baseProfile="tiny" height="29.7cm" version="1.2" viewBox="0 0 793.7007874015749 1122.5196850393702" width="21.0cm">
  <metadata>
    <rdf:RDF>
      <cc:Work>
        <dc:format>image/svg+xml</dc:format>
        <dc:source/>
        <dc:date>2021-12-10T22:37:18.485807</dc:date>
      </cc:Work>
    </rdf:RDF>
  </metadata>
  <defs/>
  <g fill="none" id="layer1" inkscape:groupmode="layer" inkscape:label="1" stroke="#00f" style="display:inline">
    <line x1="402.1401" x2="425.8022" y1="520.2459" y2="506.5845"/>
    <polyline points="425.8022,514.2503 419.4878,510.6047 401.4415,521.0237"/>
    <polyline points="402.1401,520.6204 402.1401,518.4869 395.4442,514.6211"/>
    <polyline points="395.4442,517.5612 395.4442,479.3067 374.674,467.315 359.9689,475.805 359.9689,518.7007 364.5463,521.4938 349.5759,512.8506"/>
    <polyline points="359.9689,506.8502 349.5759,512.8506 349.5759,527.9678"/>
    <polyline points="357.5113,532.5493 315.2758,556.9339 315.2758,606.283 357.5113,581.8983 357.5113,532.5493 327.7437,515.3629"/>
    <line x1="327.7437" x2="315.2758" y1="509.3077" y2="516.5061"/>
    <polyline points="315.2758,530.6924 282.5441,511.7948 282.5441,466.275 256.5021,451.2396"/>
    <polyline points="249.8125,455.1019 217.0808,436.2042 217.0808,424.801 191.0885,409.7943"/>
    <polygon points="191.0885,421.1976 191.0885,409.7943 223.898,390.8518 249.8903,405.8584 249.8903,417.2617 217.0808,436.2042"/>
    <line x1="217.0808" x2="249.8903" y1="424.801" y2="405.8584"/>
    <polyline points="249.8903,410.1713 275.2865,424.8338 275.2865,440.3944 249.8125,455.1019 249.8125,439.5412 275.2865,424.8338"/>
    <polyline points="273.5554,423.8344 273.5554,413.536 260.4519,405.9707 251.5333,411.1199"/>
    <line x1="264.6368" x2="273.5554" y1="418.6852" y2="413.536"/>
    <polyline points="272.5498,412.9554 272.5498,382.7864 290.659,372.3311 300.6533,378.1013 300.6533,425.7489 282.5441,436.2042 282.5441,388.5566 272.5498,382.7864"/>
    <line x1="282.5441" x2="300.6533" y1="388.5566" y2="378.1013"/>
    <line x1="300.6533" x2="321.5745" y1="399.5364" y2="411.6152"/>
    <line x1="310.5636" x2="306.2134" y1="422.9956" y2="420.484"/>
    <polyline points="306.2134,425.5072 306.2134,420.484 341.0523,400.3697 382.8464,424.4995 382.8464,448.4836"/>
    <line x1="382.8464" x2="394.4957" y1="439.289" y2="432.5633"/>
    <polyline points="399.8753,430.4971 446.2025,457.2441 446.2025,469.797"/>
    <line x1="446.2025" x2="478.9278" y1="457.2441" y2="438.3501"/>
    <polyline points="478.9341,436.2042 496.3783,426.1328 496.3783,393.8899 486.8816,388.4069 469.4374,398.4783 469.4374,430.7213 478.9341,436.2042 478.9341,403.9613 496.3783,393.8899"/>
    <line x1="478.9341" x2="469.4374" y1="403.9613" y2="398.4783"/>
    <polyline points="478.9278,442.9796 515.8487,464.2959 515.8487,474.7283"/>
    <polyline points="512.4327,476.7006 499.6736,469.3341 486.5341,476.9202"/>
    <line x1="486.5341" x2="446.2025" y1="470.0677" y2="493.3532"/>
    <line x1="426.1972" x2="401.7761" y1="481.3471" y2="467.2475"/>
    <line x1="401.7761" x2="381.3814" y1="459.4127" y2="471.1875"/>
    <line x1="374.0318" x2="361.2411" y1="467.6858" y2="460.3011"/>
    <line x1="359.9689" x2="380.7391" y1="475.805" y2="487.7967"/>
    <polyline points="395.4442,484.4071 401.7761,480.7514 401.7761,459.4127 361.2411,436.0098"/>
    <line x1="362.0756" x2="382.8464" y1="436.4916" y2="424.4995"/>
    <polyline points="382.8464,425.8376 394.4957,432.5633 394.4957,455.2093"/>
    <polyline points="399.8753,458.3152 399.8753,430.4971 432.6006,411.6031 478.9278,438.3501 478.9278,465.6761"/>
    <line x1="503.398" x2="515.8487" y1="471.4844" y2="464.2959"/>
    <line x1="535.5344" x2="544.3975" y1="475.8457" y2="480.9628"/>
    <polyline points="535.5344,478.533 522.3966,470.9478 486.5341,491.6531"/>
    <polyline points="486.5341,504.921 511.6658,519.4307 511.6658,568.4877 559.0187,541.1485 559.0187,503.3532"/>
    <polyline points="561.6909,518.3269 609.8608,546.1378 609.8608,587.3853 645.6011,566.7507 645.6011,517.4401 618.8084,501.9713 589.3452,518.9819"/>
    <line x1="616.1379" x2="645.6011" y1="534.4507" y2="517.4401"/>
    <polygon points="623.1208,538.4822 623.1208,579.7297 609.8608,587.3853 561.6909,559.5744 561.6909,518.3269 574.9508,510.6713"/>
    <line x1="623.1208" x2="609.8608" y1="538.4822" y2="546.1378"/>
    <polyline points="594.4794,578.5049 585.175,583.8768 585.175,610.9282 609.8608,625.1806 609.8608,598.1292 585.175,583.8768"/>
    <polyline points="579.0016,569.5687 579.0016,605.2019 544.3975,625.1806 544.3975,574.1079 523.1644,561.849"/>
    <line x1="511.6658" x2="480.3886" y1="568.4877" y2="550.4298"/>
    <line x1="480.3886" x2="453.9029" y1="532.13" y2="547.4215"/>
    <line x1="453.9029" x2="428.9455" y1="530.4743" y2="544.8834"/>
    <polyline points="428.9455,536.9032 413.4708,545.8375 413.4708,587.3853 364.5463,559.1388 364.5463,517.5909 380.021,508.6566 428.9455,536.9032 428.9455,578.451 413.4708,587.3853"/>
    <line x1="413.4708" x2="381.4066" y1="593.582" y2="575.0697"/>
    <polyline points="386.7731,571.9714 381.4066,575.0697 381.4066,606.6683 394.9832,614.5068"/>
    <polyline points="413.4708,610.3745 413.4708,593.582 418.8373,590.4837"/>
    <polyline points="432.1568,598.1737 432.1568,614.3922 423.8404,619.1937"/>
    <polyline points="423.8404,616.3614 380.7391,641.2459 380.7391,681.8735 364.7044,672.6158 364.7044,631.9882 407.8056,607.1037 423.8404,616.3614 423.8404,656.989 380.7391,681.8735"/>
    <polyline points="371.4641,676.5186 340.5012,694.395 340.5012,734.2327 380.7391,757.4641"/>
    <line x1="380.7391" x2="340.5012" y1="717.6264" y2="694.395"/>
    <polyline points="340.5012,696.4374 322.8597,686.2521 322.8597,672.6496 348.7075,657.7263 364.7044,666.9622"/>
    <polyline points="368.959,675.0723 348.0075,687.1687 348.0075,690.0612"/>
    <line x1="348.0075" x2="322.8597" y1="687.1687" y2="672.6496"/>
    <polyline points="343.8112,660.5532 320.0382,646.8278 320.0382,625.1633 342.6048,612.1345 370.574,628.2826 370.574,628.5994"/>
    <line x1="370.574" x2="348.0075" y1="628.2826" y2="641.3114"/>
    <polyline points="348.0075,658.1305 348.0075,641.3114 320.0382,625.1633"/>
    <polyline points="315.2758,606.283 274.5499,582.7698 274.5499,533.4208 297.2757,520.3"/>
    <polyline points="294.8299,504.7016 315.2758,516.5061 315.2758,530.6924 327.7437,523.494 327.7437,509.3077 305.3811,496.3967"/>
    <polyline points="305.3811,487.1845 305.3811,498.6098 282.5441,511.7948 234.2039,483.8855 234.2039,446.0903"/>
    <line x1="249.8125" x2="230.5567" y1="439.5412" y2="428.4239"/>
    <line x1="234.8878" x2="249.8125" y1="468.0305" y2="476.6473"/>
    <polyline points="249.8125,492.8971 267.2768,482.8141 267.2768,466.5642 252.3521,457.9475 234.8878,468.0305 234.8878,484.2804 249.8125,492.8971 249.8125,476.6473 267.2768,466.5642"/>
    <line x1="282.5441" x2="298.5098" y1="466.275" y2="457.0573"/>
    <line x1="298.5098" x2="275.2865" y1="449.1229" y2="435.7149"/>
    <line x1="275.2865" x2="282.5441" y1="432.014" y2="436.2042"/>
    <line x1="282.7903" x2="298.5098" y1="440.0472" y2="430.9716"/>
    <line x1="298.5098" x2="315.2758" y1="429.9549" y2="439.6347"/>
    <line x1="335.179" x2="348.0075" y1="481.406" y2="488.8125"/>
    <polyline points="359.9689,481.9065 348.0075,488.8125 348.0075,511.7948 359.9689,504.8888 348.0075,511.7948 320.0112,495.6311 320.0112,490.1631"/>
    <polyline points="315.2758,492.8971 361.2411,466.3591 361.2411,413.0967 344.475,403.4168 298.5098,429.9549 298.5098,483.2173 315.2758,492.8971 315.2758,439.6347 361.2411,413.0967"/>
    <polygon points="359.7473,405.1869 359.7473,379.7639 377.7129,369.3915 398.7048,381.5111 398.7048,406.9341 380.7391,417.3066"/>
    <line x1="380.7391" x2="359.7473" y1="391.8836" y2="379.7639"/>
    <line x1="377.4383" x2="350.9412" y1="369.55" y2="354.2519"/>
    <line x1="381.0138" x2="427.4899" y1="371.2972" y2="344.4642"/>
    <polyline points="398.7048,381.5111 380.7391,391.8836 380.7391,417.3066 350.9412,400.1027 350.9412,354.2519 397.692,327.2603 427.4899,344.4642 427.4899,390.315 398.7048,406.9341"/>
    <polyline points="395.4442,479.3067 380.7391,487.7967 380.7391,509.0712"/>
    <line x1="364.5463" x2="413.4708" y1="517.5909" y2="545.8375"/>
    <line x1="399.5938" x2="402.1401" y1="519.957" y2="518.4869"/>
    <polyline points="425.8022,481.5751 446.2025,493.3532 446.2025,530.6924 425.8022,518.9143 425.8022,481.5751 466.1339,458.2896 486.5341,470.0677 486.5341,507.4069 446.2025,530.6924"/>
    <polyline points="450.2416,528.3604 453.9029,530.4743 453.9029,564.0418 413.4708,587.3853 446.2025,606.283"/>
    <line x1="452.1002" x2="478.9341" y1="615.6377" y2="631.1303"/>
    <polyline points="478.9341,642.0425 478.9341,631.1303 516.8184,609.2578"/>
    <polyline points="524.0766,613.4483 524.0766,636.9129 487.5728,657.9883"/>
    <polyline points="478.9341,662.9759 487.5728,657.9883 487.5728,647.0301 443.2446,621.4371 434.6059,626.4247 434.6059,637.3829 478.9341,662.9759 478.9341,652.0176 434.6059,626.4247"/>
    <polyline points="452.1002,626.5499 452.1002,615.6377 497.2426,589.5747 507.0154,595.217"/>
    <polyline points="507.0154,565.8028 507.0154,603.598 544.3975,625.1806"/>
    <line x1="536.65" x2="511.6658" y1="643.957" y2="658.3816"/>
    <polyline points="511.6658,663.8091 511.6658,658.3816 499.2787,651.2299"/>
    <line x1="498.9951" x2="498.9951" y1="651.3937" y2="671.1245"/>
    <polyline points="515.7237,664.7172 515.7237,663.7313 540.024,649.7016 568.6978,666.2564 568.6978,686.7414 557.188,693.3866"/>
    <line x1="557.188" x2="511.6658" y1="688.6566" y2="714.9388"/>
    <polyline points="495.0671,747.8808 495.0671,767.0473 446.2025,795.2593 446.2025,748.96 436.8024,743.5329"/>
    <line x1="446.2025" x2="471.5694" y1="748.96" y2="734.3144"/>
    <polyline points="467.3862,725.8753 436.8024,743.5329 436.8024,789.8322 446.2025,795.2593"/>
    <polyline points="424.1708,732.3888 453.9952,715.1697 453.9952,665.026 441.938,658.0647 403.1884,680.4368"/>
    <line x1="406.7368" x2="396.7564" y1="678.3881" y2="672.6259"/>
    <polyline points="393.208,674.6746 424.1708,692.5511 424.1708,732.3888 380.7391,757.4641 380.7391,717.6264 424.1708,692.5511"/>
    <line x1="415.2456" x2="453.9952" y1="687.3981" y2="665.026"/>
    <line x1="448.672" x2="423.8404" y1="661.9526" y2="647.5381"/>
    <line x1="380.7391" x2="364.7044" y1="641.2459" y2="631.9882"/>
    <line x1="364.7044" x2="352.9037" y1="653.3359" y2="660.149"/>
    <line x1="380.7391" x2="357.5113" y1="568.4877" y2="555.0771"/>
    <line x1="315.2758" x2="274.5499" y1="556.9339" y2="533.4208"/>
    <line x1="262.1209" x2="217.0808" y1="579.7914" y2="605.7954"/>
    <polyline points="211.0935,621.7238 211.0935,628.6374 184.3491,644.0782 184.3491,589.794 185.6793,589.026"/>
    <polyline points="185.6793,587.6657 217.0808,605.7954 217.0808,625.1806 185.6793,607.0509 185.6793,587.6657 230.7194,561.6618 262.1209,579.7914 262.1209,599.1767 217.0808,625.1806"/>
    <polyline points="184.3491,644.0782 147.8301,622.994 147.8301,568.7097 174.5744,553.2689 209.9154,573.673"/>
    <line x1="184.3491" x2="147.8301" y1="589.794" y2="568.7097"/>
    <line x1="348.0075" x2="359.9689" y1="473.9995" y2="480.9055"/>
    <polyline points="462.0506,521.5425 480.3886,532.13 480.3886,586.5456 446.2025,606.283 446.2025,568.4877"/>
    <line x1="475.0438" x2="475.0438" y1="529.0441" y2="514.0409"/>
    <line x1="511.6658" x2="535.5344" y1="519.4307" y2="505.6502"/>
    <polyline points="544.3975,511.7948 589.1084,485.9809 589.1084,455.1489 580.2454,450.0318 535.5344,475.8457 535.5344,506.6777 544.3975,511.7948 544.3975,480.9628 589.1084,455.1489"/>
    <line x1="557.7684" x2="561.6909" y1="541.8703" y2="544.1349"/>
    <line x1="565.6306" x2="544.3975" y1="561.849" y2="574.1079"/>
    <line x1="569.4861" x2="601.4459" y1="612.2252" y2="630.6772"/>
    <polyline points="601.4459,620.3222 601.4459,658.1175 609.8608,662.9759 609.8608,625.1806 619.7542,619.4686 619.7542,592.4172 610.4498,587.0453"/>
    <line x1="619.7542" x2="609.8608" y1="592.4172" y2="598.1292"/>
    <polyline points="619.7542,598.9914 629.3849,593.4311 637.7998,598.2895 637.7998,646.8453 609.8608,662.9759 645.8707,642.1856 645.8707,614.7453 637.7998,610.0856"/>
    <line x1="645.8707" x2="637.7998" y1="614.7453" y2="619.4049"/>
    <line x1="619.7542" x2="637.7998" y1="608.7081" y2="598.2895"/>
    <polyline points="585.175,603.1673 569.4861,612.2252 569.4861,639.6655 601.4459,658.1175"/>
    <line x1="568.6978" x2="544.3975" y1="666.2564" y2="680.2862"/>
    <polyline points="544.3975,681.272 544.3975,680.2862 515.7237,663.7313"/>
    <polyline points="536.65,651.6495 536.65,643.957 524.0766,636.6978"/>
    <line x1="487.5728" x2="478.9341" y1="647.0301" y2="652.0176"/>
    <polyline points="467.3862,689.374 511.6658,714.9388 511.6658,757.4641 467.3862,731.8992 467.3862,689.374 512.9084,663.0917 557.188,688.6566 557.188,731.1818 511.6658,757.4641"/>
  </g>
</svg>
