<?xml version="1.0" encoding="utf-8" ?>
<svg xmlns="http://www.w3.org/2000/svg" xmlns:cc="http://creativecommons.org/ns#" xmlns:dc="http://purl.org/dc/elements/1.1/" xmlns:ev="http://www.w3.org/2001/xml-events" xmlns:inkscape="http://www.inkscape.org/namespaces/inkscape" xmlns:rdf="http://www.w3.org/1999/02/22-rdf-syntax-ns#" xmlns:sodipodi="http://sodipodi.sourceforge.net/DTD/sodipodi-0.dtd" xmlns:xlink="http://www.w3.org/1999/xlink" baseProfile="tiny" height="29.7cm" version="1.2" viewBox="0 0 793.7007874015749 1122.5196850393702" width="21.0cm">
  <metadata>
    <rdf:RDF>
      <cc:Work>
        <dc:format>image/svg+xml</dc:format>
        <dc:source/>
        <dc:date>2021-12-10T23:12:55.813539</dc:date>
      </cc:Work>
    </rdf:RDF>
  </metadata>
  <defs/>
  <g fill="none" id="layer1" inkscape:groupmode="layer" inkscape:label="1" stroke="#00f" style="display:inline">
    <line x1="316.3357" x2="347.5787" y1="548.7019" y2="530.6638"/>
    <line x1="341.8177" x2="341.8177" y1="517.7627" y2="491.211"/>
    <polyline points="346.5018,488.5066 318.397,504.7329 318.397,531.2847 262.3793,498.9428 262.3793,472.3911 290.4841,456.1648 346.5018,488.5066 346.5018,515.0583 318.397,531.2847"/>
    <line x1="316.3357" x2="316.3357" y1="530.0946" y2="578.896"/>
    <line x1="311.9133" x2="311.9133" y1="576.3427" y2="527.5413"/>
    <line x1="311.0903" x2="311.0903" y1="527.0662" y2="500.5144"/>
    <line x1="308.6548" x2="308.6548" y1="499.1083" y2="525.66"/>
    <line x1="307.4908" x2="307.4908" y1="524.988" y2="573.7894"/>
    <line x1="305.0936" x2="305.0936" y1="572.4053" y2="523.6039"/>
    <line x1="306.2192" x2="306.2192" y1="524.2538" y2="497.7021"/>
    <line x1="303.7837" x2="303.7837" y1="496.2959" y2="522.8477"/>
    <line x1="302.6963" x2="302.6963" y1="522.2199" y2="571.0213"/>
    <line x1="300.299" x2="300.299" y1="569.6372" y2="520.8358"/>
    <line x1="301.3481" x2="301.3481" y1="521.4415" y2="494.8898"/>
    <line x1="298.9126" x2="298.9126" y1="493.4836" y2="520.0353"/>
    <line x1="297.9017" x2="297.9017" y1="519.4517" y2="568.2531"/>
    <line x1="295.5044" x2="295.5044" y1="566.869" y2="518.0676"/>
    <line x1="296.477" x2="296.477" y1="518.6292" y2="492.0774"/>
    <line x1="294.0415" x2="294.0415" y1="490.6713" y2="517.223"/>
    <line x1="293.1071" x2="293.1071" y1="516.6836" y2="565.485"/>
    <line x1="290.7098" x2="290.7098" y1="564.1009" y2="515.2995"/>
    <line x1="291.6059" x2="291.6059" y1="515.8168" y2="489.2651"/>
    <line x1="289.1704" x2="289.1704" y1="487.8589" y2="514.4107"/>
    <line x1="288.3125" x2="288.3125" y1="513.9154" y2="562.7168"/>
    <line x1="285.9152" x2="285.9152" y1="561.3327" y2="512.5313"/>
    <line x1="286.7348" x2="286.7348" y1="513.0045" y2="486.4528"/>
    <line x1="284.2993" x2="284.2993" y1="485.0466" y2="511.5983"/>
    <line x1="283.5179" x2="283.5179" y1="511.1473" y2="559.9487"/>
    <line x1="281.1207" x2="281.1207" y1="558.5646" y2="509.7632"/>
    <line x1="281.8637" x2="281.8637" y1="510.1922" y2="483.6404"/>
    <line x1="279.4282" x2="279.4282" y1="482.2343" y2="508.786"/>
    <line x1="278.7234" x2="278.7234" y1="508.3791" y2="557.1805"/>
    <line x1="276.3261" x2="276.3261" y1="555.7964" y2="506.995"/>
    <line x1="276.9926" x2="276.9926" y1="507.3798" y2="480.8281"/>
    <line x1="274.557" x2="274.557" y1="479.4219" y2="505.9737"/>
    <line x1="273.9288" x2="273.9288" y1="505.6109" y2="556.5688"/>
    <line x1="271.5315" x2="271.5315" y1="557.9529" y2="504.2269"/>
    <line x1="272.1215" x2="272.1215" y1="504.5675" y2="478.0158"/>
    <line x1="269.6859" x2="269.6859" y1="476.6096" y2="503.1613"/>
    <line x1="269.1342" x2="269.1342" y1="502.8428" y2="559.337"/>
    <line x1="258.1932" x2="258.1932" y1="579.691" y2="667.6461"/>
    <line x1="255.7619" x2="255.7619" y1="666.2424" y2="578.2873"/>
    <line x1="253.3305" x2="253.3305" y1="576.8836" y2="664.8387"/>
    <line x1="250.8992" x2="250.8992" y1="663.4349" y2="575.4799"/>
    <line x1="248.4679" x2="248.4679" y1="574.0761" y2="662.0312"/>
    <line x1="260.6245" x2="260.6245" y1="669.0498" y2="581.0948"/>
    <line x1="263.0558" x2="263.0558" y1="582.4985" y2="670.4536"/>
    <line x1="265.4872" x2="265.4872" y1="671.8573" y2="583.9022"/>
    <line x1="267.9185" x2="267.9185" y1="585.306" y2="673.261"/>
    <line x1="270.3498" x2="270.3498" y1="674.6647" y2="586.7097"/>
    <line x1="272.7811" x2="272.7811" y1="588.1134" y2="676.0685"/>
    <line x1="275.2125" x2="275.2125" y1="677.4722" y2="589.5171"/>
    <line x1="277.6438" x2="277.6438" y1="590.9209" y2="678.8759"/>
    <line x1="280.0751" x2="280.0751" y1="680.2796" y2="592.3246"/>
    <line x1="282.5064" x2="282.5064" y1="593.7283" y2="681.6834"/>
    <line x1="284.9378" x2="284.9378" y1="683.0871" y2="595.132"/>
    <line x1="287.3691" x2="287.3691" y1="596.5358" y2="684.4908"/>
    <line x1="289.8004" x2="289.8004" y1="685.8945" y2="597.9395"/>
    <line x1="292.2317" x2="292.2317" y1="599.3432" y2="687.2983"/>
    <line x1="294.6631" x2="294.6631" y1="688.702" y2="600.7469"/>
    <line x1="297.0944" x2="297.0944" y1="602.1507" y2="690.1057"/>
    <line x1="299.5257" x2="299.5257" y1="691.5094" y2="603.5544"/>
    <line x1="301.957" x2="301.957" y1="604.9581" y2="692.9132"/>
    <line x1="304.3884" x2="304.3884" y1="694.3169" y2="606.3618"/>
    <line x1="306.8197" x2="306.8197" y1="607.7656" y2="695.7206"/>
    <polyline points="308.2031,696.5193 276.0447,715.0859 276.0447,747.4134 345.6562,787.6037"/>
    <line x1="343.2558" x2="343.2558" y1="786.2178" y2="757.3382"/>
    <line x1="343.8244" x2="343.8244" y1="757.6665" y2="711.6778"/>
    <polyline points="341.4171,710.2879 382.3412,733.9155 423.9315,710.0839"/>
    <line x1="423.6663" x2="423.6663" y1="709.9308" y2="654.8451"/>
    <polyline points="421.4531,656.1229 452.535,638.1777 452.535,601.0807 439.0551,593.2981 407.9732,611.2432 407.9732,648.3402 421.4531,656.1229 421.4531,619.0259 407.9732,611.2432"/>
    <line x1="410.2199" x2="410.2199" y1="612.5403" y2="649.6373"/>
    <line x1="409.4003" x2="409.4003" y1="649.1642" y2="701.6943"/>
    <line x1="411.778" x2="411.778" y1="703.0671" y2="650.5369"/>
    <line x1="412.4665" x2="412.4665" y1="650.9344" y2="613.8374"/>
    <line x1="414.7132" x2="414.7132" y1="615.1345" y2="652.2315"/>
    <line x1="414.1556" x2="414.1556" y1="651.9097" y2="704.4398"/>
    <line x1="416.5333" x2="416.5333" y1="705.8126" y2="653.2824"/>
    <line x1="416.9598" x2="416.9598" y1="653.5286" y2="616.4316"/>
    <line x1="419.2065" x2="419.2065" y1="617.7288" y2="654.8258"/>
    <line x1="418.911" x2="418.911" y1="654.6551" y2="707.1853"/>
    <line x1="421.2886" x2="421.2886" y1="708.5581" y2="656.0279"/>
    <line x1="428.4216" x2="428.4216" y1="652.0996" y2="742.5081"/>
    <line x1="430.7993" x2="430.7993" y1="743.8809" y2="650.7269"/>
    <line x1="430.3337" x2="430.3337" y1="650.9957" y2="613.8987"/>
    <line x1="425.8934" x2="426.044" y1="616.4623" y2="741.1354"/>
    <line x1="423.9315" x2="437.9323" y1="739.9157" y2="747.9991"/>
    <line x1="435.5546" x2="435.5546" y1="746.6263" y2="647.9814"/>
    <line x1="434.7739" x2="434.7739" y1="648.4321" y2="611.3351"/>
    <line x1="439.2142" x2="439.2142" y1="608.7715" y2="645.8685"/>
    <polyline points="437.9323,646.6086 437.9323,747.9991 462.6582,733.7236"/>
    <line x1="462.3627" x2="462.3627" y1="733.553" y2="681.9032"/>
    <line x1="464.661" x2="464.661" y1="683.2301" y2="734.8799"/>
    <line x1="466.9592" x2="466.9592" y1="736.2068" y2="684.557"/>
    <line x1="469.2575" x2="469.2575" y1="685.8839" y2="737.5337"/>
    <line x1="471.5557" x2="471.5557" y1="738.8606" y2="687.2108"/>
    <line x1="473.854" x2="473.854" y1="688.5376" y2="740.1875"/>
    <line x1="476.1522" x2="476.1522" y1="741.5143" y2="689.8645"/>
    <line x1="478.4504" x2="478.4504" y1="691.1914" y2="742.8412"/>
    <line x1="480.7487" x2="480.7487" y1="744.1681" y2="692.5183"/>
    <line x1="483.0469" x2="483.0469" y1="693.8452" y2="745.495"/>
    <polyline points="485.3452,746.8219 569.0723,698.482 569.0723,646.8322 543.7916,632.2364 460.0645,680.5763 460.0645,732.2261 485.3452,746.8219 485.3452,695.1721 569.0723,646.8322"/>
    <polyline points="567.8153,646.1065 567.8153,559.4707 542.3785,544.7848"/>
    <line x1="544.691" x2="544.691" y1="546.1198" y2="632.7557"/>
    <polyline points="542.3785,633.0523 542.3785,544.7848 559.8825,534.6788 585.3193,549.3648 585.3193,631.8601"/>
    <line x1="580.9433" x2="580.9433" y1="634.3866" y2="551.8913"/>
    <line x1="576.5673" x2="576.5673" y1="554.4177" y2="663.7749"/>
    <line x1="574.3423" x2="574.3423" y1="665.0595" y2="706.5832"/>
    <line x1="573.3269" x2="573.3269" y1="708.0702" y2="729.5329"/>
    <polyline points="571.2626,730.7247 587.6826,740.2048 587.6826,830.105 571.2626,820.6249 571.2626,730.7247 623.4758,700.5794 639.8958,710.0595 639.8958,799.9597 587.5791,830.0452 587.5791,936.4136"/>
    <line x1="585.1605" x2="585.1605" y1="935.0172" y2="828.6488"/>
    <line x1="585.3369" x2="585.3369" y1="828.7507" y2="738.8505"/>
    <line x1="582.9912" x2="582.9912" y1="737.4962" y2="827.3964"/>
    <line x1="582.7418" x2="582.7418" y1="827.2524" y2="933.6207"/>
    <line x1="580.3231" x2="580.3231" y1="932.2243" y2="825.8559"/>
    <line x1="580.6454" x2="580.6454" y1="826.0421" y2="736.1419"/>
    <line x1="578.2997" x2="578.2997" y1="734.7876" y2="824.6878"/>
    <line x1="577.9044" x2="577.9044" y1="824.4595" y2="930.8279"/>
    <line x1="575.4857" x2="575.4857" y1="929.4315" y2="823.0631"/>
    <line x1="575.954" x2="575.954" y1="823.3335" y2="733.4333"/>
    <line x1="573.6083" x2="573.6083" y1="732.079" y2="821.9792"/>
    <line x1="573.067" x2="573.067" y1="821.6667" y2="928.035"/>
    <line x1="570.6483" x2="570.6483" y1="926.6386" y2="819.9594"/>
    <line x1="571.2626" x2="522.2746" y1="820.314" y2="792.0308"/>
    <line x1="523.1309" x2="523.1309" y1="791.5364" y2="771.3955"/>
    <line x1="520.7084" x2="520.7084" y1="769.9969" y2="817.7539"/>
    <polyline points="522.2746,818.6581 522.2746,792.0308 553.8664,773.7912 571.2626,783.8349"/>
    <line x1="540.5734" x2="486.7935" y1="781.4659" y2="750.4161"/>
    <line x1="489.216" x2="489.216" y1="751.8147" y2="799.5717"/>
    <polyline points="486.7935,798.1731 486.7935,750.4161 539.2333,720.14 571.2626,738.6321"/>
    <line x1="570.8862" x2="570.8862" y1="738.4148" y2="708.5786"/>
    <line x1="569.7773" x2="569.7773" y1="709.2188" y2="667.6951"/>
    <polyline points="569.0723,668.1022 585.3193,658.722 585.2398,640.0437"/>
    <line x1="582.8907" x2="582.8907" y1="638.6874" y2="650.8807"/>
    <line x1="580.9433" x2="580.9433" y1="649.7564" y2="661.2484"/>
    <line x1="578.9073" x2="578.9073" y1="662.4239" y2="703.9476"/>
    <line x1="583.4723" x2="583.4723" y1="701.312" y2="659.7883"/>
    <line x1="585.3193" x2="586.0042" y1="653.0737" y2="652.6783"/>
    <line x1="587.589" x2="587.589" y1="653.5933" y2="641.4"/>
    <line x1="589.9381" x2="589.9381" y1="642.7563" y2="654.9496"/>
    <line x1="588.0373" x2="588.0373" y1="653.8521" y2="698.6764"/>
    <line x1="592.6023" x2="592.6023" y1="696.0408" y2="656.4878"/>
    <line x1="592.2873" x2="592.2873" y1="656.3059" y2="644.1125"/>
    <line x1="594.6365" x2="578.1923" y1="645.4688" y2="635.9748"/>
    <line x1="580.5415" x2="580.5415" y1="637.3311" y2="649.5244"/>
    <line x1="565.5029" x2="565.5029" y1="644.7714" y2="558.1356"/>
    <line x1="563.1905" x2="563.1905" y1="556.8005" y2="643.4364"/>
    <line x1="560.878" x2="560.878" y1="642.1013" y2="555.4654"/>
    <line x1="558.5656" x2="558.5656" y1="554.1304" y2="640.7662"/>
    <line x1="556.2532" x2="556.2532" y1="639.4311" y2="552.7953"/>
    <line x1="553.9407" x2="553.9407" y1="551.4602" y2="638.096"/>
    <line x1="551.6283" x2="551.6283" y1="636.7609" y2="550.1251"/>
    <line x1="549.3158" x2="549.3158" y1="548.79" y2="635.4258"/>
    <line x1="547.0034" x2="547.0034" y1="634.0908" y2="547.4549"/>
    <line x1="527.3559" x2="490.0465" y1="542.9781" y2="564.5187"/>
    <line x1="487.6337" x2="487.6337" y1="563.1257" y2="579.6"/>
    <line x1="485.221" x2="485.221" y1="578.207" y2="561.7326"/>
    <line x1="482.8082" x2="482.8082" y1="560.3396" y2="576.814"/>
    <line x1="481.2246" x2="445.0725" y1="575.8997" y2="596.7722"/>
    <line x1="445.3713" x2="445.3713" y1="596.5997" y2="555.1998"/>
    <line x1="446.6162" x2="446.6162" y1="555.9186" y2="539.4442"/>
    <line x1="444.2035" x2="440.56" y1="539.0104" y2="541.114"/>
    <line x1="438.1131" x2="438.1131" y1="539.7013" y2="593.8419"/>
    <polyline points="440.56,594.1669 440.56,541.114 347.5787,487.4312"/>
    <line x1="350.0256" x2="350.0256" y1="488.8439" y2="547.1074"/>
    <line x1="352.4725" x2="352.4725" y1="548.5201" y2="490.2566"/>
    <line x1="354.9194" x2="354.9194" y1="491.6693" y2="549.9328"/>
    <line x1="357.3662" x2="357.3662" y1="551.3455" y2="493.082"/>
    <line x1="359.8131" x2="359.8131" y1="494.4947" y2="552.7582"/>
    <line x1="362.26" x2="362.26" y1="554.1709" y2="495.9074"/>
    <line x1="364.7069" x2="364.7069" y1="497.3201" y2="555.5836"/>
    <line x1="367.1537" x2="367.1537" y1="556.9963" y2="498.7328"/>
    <line x1="369.6006" x2="369.6006" y1="500.1455" y2="558.409"/>
    <line x1="372.0475" x2="372.0475" y1="559.8217" y2="501.5582"/>
    <line x1="374.4944" x2="374.4944" y1="502.9709" y2="561.2344"/>
    <line x1="376.9412" x2="376.9412" y1="562.6471" y2="504.3836"/>
    <line x1="379.3881" x2="379.3881" y1="505.7963" y2="564.0598"/>
    <line x1="381.835" x2="381.835" y1="565.4725" y2="507.2091"/>
    <line x1="384.2819" x2="384.2819" y1="508.6218" y2="566.8853"/>
    <line x1="386.7287" x2="386.7287" y1="568.298" y2="510.0345"/>
    <line x1="389.1756" x2="389.1756" y1="511.4472" y2="569.7107"/>
    <line x1="391.6225" x2="391.6225" y1="571.1234" y2="512.8599"/>
    <line x1="394.0694" x2="394.0694" y1="514.2726" y2="572.5361"/>
    <line x1="396.5163" x2="396.5163" y1="573.9488" y2="515.6853"/>
    <line x1="398.9631" x2="398.9631" y1="517.098" y2="575.3615"/>
    <line x1="401.41" x2="401.41" y1="576.7742" y2="518.5107"/>
    <line x1="403.8569" x2="403.8569" y1="519.9234" y2="578.1869"/>
    <line x1="406.3038" x2="406.3038" y1="579.5996" y2="521.3361"/>
    <line x1="408.7506" x2="408.7506" y1="522.7488" y2="581.0123"/>
    <line x1="411.1975" x2="411.1975" y1="582.425" y2="524.1615"/>
    <line x1="413.6444" x2="413.6444" y1="525.5742" y2="583.8377"/>
    <line x1="416.0913" x2="416.0913" y1="585.2504" y2="526.9869"/>
    <line x1="418.5381" x2="418.5381" y1="528.3996" y2="586.6631"/>
    <line x1="420.985" x2="420.985" y1="588.0758" y2="529.8123"/>
    <polyline points="423.4319,531.225 423.4326,589.489 390.379,608.5725 390.379,690.7124"/>
    <line x1="389.1466" x2="389.1466" y1="690.0009" y2="618.8011"/>
    <line x1="390.379" x2="365.4637" y1="618.0896" y2="632.4744"/>
    <line x1="363.0359" x2="363.0359" y1="631.0727" y2="674.9258"/>
    <line x1="360.6081" x2="360.6081" y1="673.5241" y2="629.671"/>
    <line x1="358.1803" x2="358.1803" y1="628.2693" y2="672.1224"/>
    <line x1="355.7524" x2="355.7524" y1="670.7207" y2="626.8676"/>
    <line x1="353.3246" x2="353.3246" y1="625.4659" y2="670.4684"/>
    <line x1="350.8968" x2="350.8968" y1="671.8701" y2="624.0642"/>
    <polyline points="348.7361,622.8167 365.4637,632.4744 365.4637,676.3275"/>
    <line x1="370.2003" x2="370.2003" y1="679.0622" y2="629.7398"/>
    <line x1="374.9369" x2="374.9369" y1="627.0051" y2="681.7969"/>
    <line x1="379.6735" x2="379.6735" y1="684.5315" y2="624.2704"/>
    <line x1="384.4101" x2="384.4101" y1="621.5358" y2="687.2662"/>
    <line x1="392.7567" x2="392.7567" y1="692.0851" y2="609.9452"/>
    <line x1="395.1344" x2="395.1344" y1="611.3179" y2="693.4579"/>
    <line x1="397.512" x2="397.512" y1="694.8306" y2="612.6907"/>
    <line x1="399.8897" x2="399.8897" y1="614.0634" y2="696.2034"/>
    <line x1="402.2673" x2="402.2673" y1="697.5761" y2="615.4362"/>
    <line x1="404.645" x2="404.645" y1="616.8089" y2="698.9489"/>
    <line x1="407.0227" x2="407.0227" y1="700.3216" y2="618.1817"/>
    <line x1="407.9732" x2="390.379" y1="618.7305" y2="608.5725"/>
    <line x1="421.4531" x2="452.535" y1="619.0259" y2="601.0807"/>
    <line x1="448.0948" x2="448.0948" y1="603.6443" y2="640.7413"/>
    <line x1="446.7271" x2="446.7271" y1="641.5309" y2="742.9214"/>
    <line x1="442.3297" x2="442.3297" y1="745.4602" y2="644.0698"/>
    <line x1="443.6545" x2="443.6545" y1="643.3049" y2="606.2079"/>
    <polyline points="447.0833,595.6112 477.5091,613.1776 477.5091,670.5046"/>
    <polyline points="478.2297,670.0886 478.2297,646.0905 537.5749,611.8275 542.3785,614.6009"/>
    <line x1="522.1733" x2="497.4658" y1="611.3723" y2="625.6371"/>
    <line x1="495.0948" x2="495.0948" y1="624.2682" y2="636.3534"/>
    <line x1="492.7239" x2="492.7239" y1="637.7223" y2="622.8993"/>
    <line x1="490.3529" x2="490.3529" y1="621.5304" y2="639.0912"/>
    <line x1="487.9819" x2="487.9819" y1="640.46" y2="620.1615"/>
    <line x1="485.6109" x2="485.6109" y1="618.7926" y2="641.8289"/>
    <line x1="483.2399" x2="483.2399" y1="643.1978" y2="617.4238"/>
    <line x1="480.8689" x2="480.8689" y1="616.0549" y2="644.5667"/>
    <line x1="478.4979" x2="478.4979" y1="645.9356" y2="614.686"/>
    <polyline points="477.5091,614.1151 497.4658,625.6371 497.4658,634.9845"/>
    <line x1="501.5837" x2="501.5837" y1="632.607" y2="623.2596"/>
    <line x1="505.7016" x2="505.7016" y1="620.8822" y2="630.2295"/>
    <line x1="509.8195" x2="509.8195" y1="627.8521" y2="618.5047"/>
    <line x1="513.9375" x2="513.9375" y1="616.1272" y2="625.4746"/>
    <line x1="518.0554" x2="518.0554" y1="623.0971" y2="613.7498"/>
    <polyline points="522.1733,620.7196 522.1733,611.3723 470.9788,581.8152"/>
    <line x1="469.4277" x2="469.4277" y1="582.7107" y2="569.0887"/>
    <line x1="468.3314" x2="468.3314" y1="568.4558" y2="551.9814"/>
    <line x1="465.9186" x2="465.9186" y1="550.5884" y2="567.0628"/>
    <line x1="464.6164" x2="464.6164" y1="566.311" y2="585.4885"/>
    <line x1="459.8051" x2="459.8051" y1="588.2663" y2="563.5332"/>
    <line x1="458.6802" x2="458.6802" y1="562.8837" y2="546.4093"/>
    <line x1="456.2674" x2="456.2674" y1="545.0163" y2="561.4907"/>
    <line x1="454.9938" x2="454.9938" y1="560.7554" y2="591.0441"/>
    <line x1="450.1826" x2="450.1826" y1="593.8219" y2="557.9776"/>
    <line x1="449.029" x2="449.029" y1="557.3116" y2="540.8372"/>
    <line x1="451.4418" x2="451.4418" y1="542.2303" y2="558.7046"/>
    <line x1="453.8546" x2="453.8546" y1="560.0977" y2="543.6233"/>
    <line x1="461.093" x2="461.093" y1="547.8024" y2="564.2767"/>
    <line x1="463.5058" x2="463.5058" y1="565.6698" y2="549.1954"/>
    <line x1="470.7442" x2="470.7442" y1="553.3745" y2="569.8488"/>
    <line x1="473.157" x2="473.157" y1="571.2419" y2="554.7675"/>
    <line x1="475.5698" x2="475.5698" y1="556.1605" y2="572.6349"/>
    <line x1="474.2389" x2="474.2389" y1="571.8665" y2="579.9329"/>
    <line x1="479.0502" x2="479.0502" y1="577.1551" y2="574.6443"/>
    <line x1="477.9826" x2="477.9826" y1="574.0279" y2="557.5536"/>
    <line x1="480.3954" x2="480.3954" y1="558.9466" y2="575.421"/>
    <polyline points="490.0465,580.9931 527.3559,559.4525 527.3559,542.9781 481.5128,516.5106 444.2035,538.0512 444.2035,554.5255 490.0465,580.9931 490.0465,564.5187 444.2035,538.0512"/>
    <line x1="435.6663" x2="435.6663" y1="538.2885" y2="595.2546"/>
    <polyline points="434.5427,595.9033 347.5787,545.6947 347.5787,487.4312 379.5783,468.9562"/>
    <polyline points="379.5783,464.611 365.3692,456.4074 365.3692,380.4151 395.7738,362.861"/>
    <line x1="392.4771" x2="392.4771" y1="356.4311" y2="345.3584"/>
    <line x1="397.3806" x2="397.3806" y1="342.5274" y2="353.6"/>
    <line x1="398.2148" x2="398.2148" y1="353.1184" y2="427.0947"/>
    <line x1="399.1424" x2="399.1424" y1="427.6303" y2="448.6256"/>
    <polyline points="394.2621,451.4433 394.2621,397.0965 365.3692,380.4151"/>
    <line x1="367.7769" x2="367.7769" y1="381.8053" y2="457.7975"/>
    <line x1="370.1847" x2="370.1847" y1="459.1876" y2="383.1954"/>
    <line x1="372.5924" x2="372.5924" y1="384.5855" y2="460.5777"/>
    <line x1="375.0002" x2="375.0002" y1="461.9678" y2="385.9756"/>
    <line x1="377.4079" x2="377.4079" y1="387.3657" y2="463.3579"/>
    <line x1="379.5783" x2="442.7512" y1="459.921" y2="496.3939"/>
    <line x1="440.3214" x2="440.3214" y1="494.9911" y2="523.3321"/>
    <polyline points="442.7512,524.7349 471.3175,508.2422 471.3175,479.9011 408.1446,443.4282 379.5783,459.921 379.5783,488.2621 442.7512,524.7349 442.7512,496.3939 471.3175,479.9011"/>
    <line x1="466.5564" x2="466.5564" y1="482.6499" y2="510.991"/>
    <line x1="461.7954" x2="461.7954" y1="513.7398" y2="485.3987"/>
    <line x1="457.0343" x2="457.0343" y1="488.1475" y2="516.4886"/>
    <line x1="452.2733" x2="452.2733" y1="519.2374" y2="490.8963"/>
    <line x1="447.5122" x2="447.5122" y1="493.6451" y2="521.9861"/>
    <line x1="437.8917" x2="437.8917" y1="521.9293" y2="493.5883"/>
    <line x1="435.462" x2="435.462" y1="492.1855" y2="520.5265"/>
    <line x1="433.0323" x2="433.0323" y1="519.1237" y2="490.7827"/>
    <line x1="430.6025" x2="430.6025" y1="489.3799" y2="517.7209"/>
    <line x1="428.1728" x2="428.1728" y1="516.3181" y2="487.977"/>
    <line x1="425.7431" x2="425.7431" y1="486.5742" y2="514.9153"/>
    <line x1="423.3134" x2="423.3134" y1="513.5125" y2="485.1714"/>
    <line x1="420.8836" x2="420.8836" y1="483.7686" y2="512.1097"/>
    <line x1="418.4539" x2="418.4539" y1="510.7069" y2="482.3658"/>
    <line x1="416.0242" x2="416.0242" y1="480.963" y2="509.3041"/>
    <line x1="413.5945" x2="413.5945" y1="507.9013" y2="479.5602"/>
    <line x1="411.1647" x2="411.1647" y1="478.1574" y2="506.4985"/>
    <line x1="408.735" x2="408.735" y1="505.0957" y2="476.7546"/>
    <line x1="406.3053" x2="406.3053" y1="475.3518" y2="503.6929"/>
    <line x1="403.8756" x2="403.8756" y1="502.2901" y2="473.949"/>
    <line x1="401.4458" x2="401.4458" y1="472.5462" y2="500.8873"/>
    <line x1="399.0161" x2="399.0161" y1="499.4845" y2="471.1434"/>
    <line x1="396.5864" x2="396.5864" y1="469.7406" y2="498.0817"/>
    <line x1="394.1567" x2="394.1567" y1="496.6789" y2="468.3378"/>
    <line x1="391.7269" x2="391.7269" y1="466.935" y2="495.2761"/>
    <line x1="389.2972" x2="389.2972" y1="493.8733" y2="465.5322"/>
    <line x1="386.8675" x2="386.8675" y1="464.1294" y2="492.4705"/>
    <line x1="384.4378" x2="384.4378" y1="491.0677" y2="462.7266"/>
    <line x1="382.008" x2="382.008" y1="461.3238" y2="489.6649"/>
    <line x1="379.8156" x2="379.8156" y1="459.784" y2="388.7558"/>
    <line x1="382.2234" x2="382.2234" y1="390.1459" y2="458.3939"/>
    <line x1="384.6311" x2="384.6311" y1="457.0038" y2="391.536"/>
    <line x1="387.0389" x2="387.0389" y1="392.9261" y2="455.6136"/>
    <line x1="389.4466" x2="389.4466" y1="454.2235" y2="394.3162"/>
    <line x1="391.8543" x2="391.8543" y1="395.7063" y2="452.8334"/>
    <line x1="404.0228" x2="404.0228" y1="445.808" y2="430.448"/>
    <line x1="403.0967" x2="403.0967" y1="429.9133" y2="350.2998"/>
    <line x1="402.2841" x2="402.2841" y1="350.769" y2="339.6963"/>
    <line x1="407.1876" x2="407.1876" y1="336.8653" y2="347.9379"/>
    <line x1="407.9786" x2="407.9786" y1="347.4812" y2="432.7319"/>
    <line x1="408.9031" x2="408.9031" y1="433.2657" y2="443.8662"/>
    <line x1="413.7834" x2="413.7834" y1="446.6838" y2="436.0833"/>
    <line x1="412.8606" x2="412.8606" y1="435.5505" y2="346.7103"/>
    <line x1="412.0912" x2="412.0912" y1="345.1069" y2="334.0342"/>
    <line x1="416.9947" x2="416.9947" y1="331.2032" y2="342.2758"/>
    <line x1="421.8982" x2="421.8982" y1="339.4448" y2="328.3721"/>
    <line x1="426.8017" x2="426.8017" y1="325.5411" y2="336.6137"/>
    <line x1="431.7052" x2="431.7052" y1="333.7827" y2="322.71"/>
    <line x1="436.6088" x2="436.6088" y1="319.879" y2="330.9516"/>
    <line x1="441.5123" x2="441.5123" y1="328.1206" y2="317.0479"/>
    <line x1="446.4158" x2="446.4158" y1="314.2169" y2="325.2895"/>
    <line x1="446.927" x2="446.927" y1="324.9944" y2="327.3055"/>
    <line x1="444.9255" x2="476.8348" y1="326.1499" y2="344.5727"/>
    <line x1="476.3163" x2="476.3163" y1="344.2734" y2="306.439"/>
    <line x1="476.8348" x2="422.436" y1="306.7383" y2="275.3311"/>
    <line x1="424.8851" x2="424.8851" y1="276.7451" y2="295.12"/>
    <line x1="427.3342" x2="427.3342" y1="293.706" y2="278.1591"/>
    <line x1="429.7833" x2="429.7833" y1="279.5731" y2="292.292"/>
    <line x1="432.2324" x2="432.2324" y1="290.878" y2="280.9871"/>
    <line x1="434.6815" x2="434.6815" y1="282.4011" y2="289.464"/>
    <line x1="437.1306" x2="437.1306" y1="288.05" y2="283.8151"/>
    <line x1="439.5797" x2="439.5797" y1="285.2291" y2="287.6217"/>
    <line x1="442.0288" x2="442.0288" y1="286.6431" y2="289.0357"/>
    <line x1="444.4779" x2="444.4779" y1="288.0571" y2="290.4497"/>
    <line x1="446.927" x2="446.927" y1="289.4711" y2="291.8637"/>
    <line x1="449.3761" x2="449.3761" y1="290.8851" y2="293.2777"/>
    <line x1="451.8253" x2="451.8253" y1="292.2991" y2="294.6917"/>
    <line x1="454.2744" x2="454.2744" y1="293.7131" y2="296.1057"/>
    <line x1="456.7235" x2="456.7235" y1="295.127" y2="297.5197"/>
    <line x1="459.1726" x2="459.1726" y1="296.541" y2="298.9336"/>
    <line x1="461.6217" x2="461.6217" y1="297.955" y2="300.3476"/>
    <line x1="464.0708" x2="464.0708" y1="299.369" y2="301.7616"/>
    <line x1="466.0299" x2="387.5736" y1="302.8927" y2="348.1895"/>
    <line x1="385.2983" x2="385.2983" y1="346.8758" y2="357.9484"/>
    <line x1="383.0229" x2="383.0229" y1="356.6348" y2="345.5622"/>
    <line x1="380.7476" x2="380.7476" y1="344.2485" y2="355.3211"/>
    <line x1="378.4723" x2="378.4723" y1="354.0075" y2="342.9349"/>
    <line x1="376.197" x2="376.197" y1="341.6212" y2="352.6938"/>
    <line x1="373.9217" x2="373.9217" y1="351.3802" y2="340.3075"/>
    <line x1="371.6464" x2="371.6464" y1="338.9939" y2="350.0665"/>
    <line x1="369.3711" x2="369.3711" y1="348.7529" y2="337.6802"/>
    <line x1="367.0957" x2="367.0957" y1="336.3666" y2="347.4392"/>
    <line x1="364.8204" x2="364.8204" y1="346.1256" y2="335.0529"/>
    <line x1="362.5451" x2="362.5451" y1="333.7393" y2="344.8119"/>
    <polyline points="360.2698,332.4256 387.5736,348.1895 387.5736,359.2621 360.2698,343.4983 360.2698,332.4256 438.7261,287.1289 466.0299,302.8927 466.0299,313.9653 387.5736,359.2621"/>
    <polyline points="395.7738,354.5277 395.7738,425.6854 488.5306,479.2386"/>
    <line x1="486.0896" x2="486.0896" y1="477.8293" y2="388.9891"/>
    <line x1="483.6487" x2="483.6487" y1="387.5798" y2="476.42"/>
    <line x1="481.2077" x2="481.2077" y1="475.0107" y2="386.1706"/>
    <line x1="478.7667" x2="478.7667" y1="384.7613" y2="473.6014"/>
    <line x1="476.3258" x2="476.3258" y1="472.1922" y2="383.352"/>
    <line x1="473.8848" x2="473.8848" y1="381.9427" y2="470.7829"/>
    <line x1="471.4438" x2="471.4438" y1="469.3736" y2="380.5334"/>
    <line x1="469.0029" x2="469.0029" y1="379.1241" y2="467.9643"/>
    <line x1="466.5619" x2="466.5619" y1="466.555" y2="377.7148"/>
    <line x1="464.1209" x2="464.1209" y1="376.3055" y2="465.1457"/>
    <line x1="461.68" x2="461.68" y1="463.7364" y2="374.8962"/>
    <line x1="459.239" x2="459.239" y1="373.4869" y2="462.3271"/>
    <line x1="456.798" x2="456.798" y1="460.9178" y2="372.0776"/>
    <line x1="454.357" x2="454.357" y1="370.6683" y2="459.5085"/>
    <line x1="451.9161" x2="451.9161" y1="458.0992" y2="369.259"/>
    <line x1="449.4751" x2="449.4751" y1="367.8497" y2="456.6899"/>
    <line x1="447.0341" x2="447.0341" y1="455.2806" y2="366.4404"/>
    <line x1="444.5932" x2="444.5932" y1="365.0311" y2="453.8713"/>
    <line x1="442.1522" x2="442.1522" y1="452.462" y2="363.6218"/>
    <line x1="439.7112" x2="439.7112" y1="362.2126" y2="451.0527"/>
    <line x1="437.2703" x2="437.2703" y1="449.6434" y2="360.8033"/>
    <line x1="434.8293" x2="434.8293" y1="359.394" y2="448.2342"/>
    <line x1="436.0703" x2="426.89" y1="448.9507" y2="454.2509"/>
    <line x1="428.4245" x2="428.4245" y1="453.365" y2="444.5363"/>
    <line x1="427.5064" x2="427.5064" y1="444.0063" y2="355.1661"/>
    <line x1="429.9474" x2="429.9474" y1="356.5754" y2="445.4156"/>
    <line x1="432.3883" x2="432.3883" y1="446.8249" y2="357.9847"/>
    <line x1="425.0654" x2="425.0654" y1="353.7568" y2="442.597"/>
    <line x1="423.5441" x2="423.5441" y1="441.7187" y2="452.3192"/>
    <line x1="418.6638" x2="418.6638" y1="449.5015" y2="438.901"/>
    <line x1="417.7425" x2="417.7425" y1="438.3691" y2="349.5289"/>
    <line x1="415.3015" x2="415.3015" y1="348.1196" y2="436.9598"/>
    <line x1="420.1835" x2="420.1835" y1="439.7784" y2="350.9382"/>
    <line x1="422.6244" x2="422.6244" y1="352.3475" y2="441.1877"/>
    <line x1="433.3048" x2="433.3048" y1="447.354" y2="450.5473"/>
    <line x1="410.4196" x2="410.4196" y1="434.1412" y2="346.0719"/>
    <line x1="411.0872" x2="488.5306" y1="345.6865" y2="390.3984"/>
    <line x1="493.3647" x2="493.3647" y1="387.6075" y2="476.4477"/>
    <polyline points="492.7513,476.8018 522.3517,493.8915 522.3517,540.0889"/>
    <line x1="517.5404" x2="517.5404" y1="537.3111" y2="496.6693"/>
    <line x1="512.7291" x2="512.7291" y1="499.4471" y2="534.5333"/>
    <line x1="507.9178" x2="507.9178" y1="531.7556" y2="502.2249"/>
    <line x1="503.1066" x2="503.1066" y1="505.0027" y2="528.9778"/>
    <line x1="498.2953" x2="498.2953" y1="526.2" y2="507.7805"/>
    <line x1="493.484" x2="493.484" y1="510.5583" y2="523.4222"/>
    <line x1="488.6727" x2="488.6727" y1="520.6444" y2="513.3361"/>
    <line x1="483.8615" x2="483.8615" y1="516.1138" y2="517.8666"/>
    <line x1="482.3435" x2="522.3517" y1="516.9902" y2="493.8915"/>
    <line x1="507.8668" x2="507.8668" y1="468.0749" y2="386.7991"/>
    <line x1="508.0388" x2="508.0388" y1="386.8984" y2="313.4155"/>
    <line x1="507.4184" x2="507.4184" y1="313.0572" y2="297.6687"/>
    <line x1="504.9996" x2="504.9996" y1="296.2722" y2="311.6608"/>
    <line x1="505.6385" x2="505.6385" y1="312.0296" y2="385.5126"/>
    <line x1="503.2382" x2="503.2382" y1="384.1268" y2="310.6438"/>
    <line x1="502.5809" x2="502.5809" y1="310.2643" y2="294.8758"/>
    <line x1="500.1621" x2="500.1621" y1="293.4793" y2="308.8679"/>
    <line x1="500.8379" x2="500.8379" y1="309.258" y2="382.741"/>
    <polyline points="501.3158,383.0169 488.5306,390.3984 488.5306,479.2386 522.3689,459.7021 522.4406,321.7304"/>
    <line x1="521.9308" x2="521.9308" y1="321.436" y2="315.8391"/>
    <line x1="521.0321" x2="521.0321" y1="315.3203" y2="241.047"/>
    <polyline points="518.7498,242.17 479.6759,264.7292 479.6759,240.3737 554.0548,197.4311"/>
    <line x1="549.4061" x2="549.4061" y1="200.115" y2="222.0299"/>
    <line x1="544.7574" x2="544.7574" y1="224.7138" y2="202.7989"/>
    <line x1="540.1088" x2="540.1088" y1="205.4828" y2="227.3977"/>
    <line x1="535.4601" x2="535.4601" y1="230.0816" y2="208.1667"/>
    <line x1="530.8114" x2="530.8114" y1="210.8507" y2="232.7655"/>
    <line x1="526.1627" x2="526.1627" y1="235.4494" y2="213.5346"/>
    <line x1="521.514" x2="521.514" y1="216.2185" y2="238.1334"/>
    <polyline points="518.7498,239.7293 537.0084,250.271 537.0084,324.5442 518.7498,314.0026 518.7498,239.7293 555.3002,218.6269 573.5588,229.1685 573.5588,303.4418 537.0084,324.5442"/>
    <line x1="536.8425" x2="536.8425" y1="324.4484" y2="403.5282"/>
    <line x1="534.4422" x2="534.4422" y1="402.1424" y2="323.0626"/>
    <line x1="534.7261" x2="534.7261" y1="323.2265" y2="248.9533"/>
    <line x1="537.0084" x2="573.5588" y1="250.271" y2="229.1685"/>
    <line x1="568.99" x2="568.99" y1="231.8063" y2="306.0796"/>
    <line x1="571.3555" x2="571.3555" y1="310.2798" y2="391.9171"/>
    <line x1="575.9075" x2="575.9075" y1="389.2889" y2="307.6517"/>
    <line x1="580.4595" x2="580.4595" y1="305.0236" y2="386.6608"/>
    <line x1="585.0115" x2="585.0115" y1="384.0327" y2="302.3955"/>
    <line x1="589.5635" x2="589.5635" y1="299.7674" y2="381.4046"/>
    <line x1="594.1155" x2="594.1155" y1="378.7765" y2="297.1393"/>
    <line x1="598.6675" x2="598.6675" y1="294.5112" y2="376.1484"/>
    <line x1="619.4945" x2="619.4945" y1="346.3424" y2="330.4208"/>
    <line x1="621.7465" x2="621.7465" y1="331.721" y2="347.6426"/>
    <line x1="623.9986" x2="623.9986" y1="348.9429" y2="333.0212"/>
    <line x1="626.2506" x2="626.2506" y1="334.3215" y2="350.2431"/>
    <line x1="628.5027" x2="628.5027" y1="351.5433" y2="335.6217"/>
    <line x1="630.7547" x2="630.7547" y1="336.9219" y2="352.8435"/>
    <line x1="633.0068" x2="633.0068" y1="354.1438" y2="338.2221"/>
    <line x1="635.2588" x2="635.2588" y1="339.5223" y2="355.444"/>
    <line x1="637.5109" x2="637.5109" y1="356.7442" y2="340.8226"/>
    <line x1="639.7629" x2="639.7629" y1="342.1228" y2="358.0444"/>
    <line x1="642.015" x2="642.015" y1="359.3447" y2="343.423"/>
    <line x1="644.2671" x2="617.2424" y1="344.7232" y2="329.1206"/>
    <line x1="649.0622" x2="649.0622" y1="341.9547" y2="357.8764"/>
    <line x1="653.8574" x2="653.8574" y1="355.1079" y2="339.1863"/>
    <line x1="658.6526" x2="658.6526" y1="336.4178" y2="352.3394"/>
    <line x1="663.4477" x2="663.4477" y1="349.5709" y2="333.6493"/>
    <line x1="668.2429" x2="668.2429" y1="330.8808" y2="346.8024"/>
    <line x1="673.0381" x2="673.0381" y1="344.0339" y2="328.1123"/>
    <line x1="677.8333" x2="677.8333" y1="325.3438" y2="341.2654"/>
    <line x1="682.6284" x2="682.6284" y1="338.4969" y2="322.5753"/>
    <line x1="687.4236" x2="687.4236" y1="319.8068" y2="335.7284"/>
    <line x1="692.2188" x2="692.2188" y1="332.9599" y2="317.0383"/>
    <line x1="697.014" x2="697.014" y1="314.2698" y2="330.1914"/>
    <polyline points="701.8091,311.5013 644.2671,344.7232 644.2671,360.6449 617.2424,345.0422 617.2424,329.1206 674.7845,295.8986 701.8091,311.5013 701.8091,327.423 644.2671,360.6449"/>
    <polyline points="603.2196,291.8831 544.0434,326.0485 544.0434,407.6857 603.2196,373.5203 603.2196,291.8831 595.425,287.3829"/>
    <line x1="596.4115" x2="596.4115" y1="286.8134" y2="271.4248"/>
    <line x1="591.6098" x2="591.6098" y1="274.1971" y2="289.5856"/>
    <line x1="586.808" x2="586.808" y1="292.3579" y2="276.9694"/>
    <line x1="582.0063" x2="582.0063" y1="279.7417" y2="295.1302"/>
    <line x1="577.2045" x2="577.2045" y1="297.9025" y2="282.514"/>
    <line x1="573.5588" x2="601.2132" y1="284.6188" y2="268.6525"/>
    <polyline points="573.5588,252.6862 601.2132,268.6525 601.2132,284.0411 573.5588,300.0073"/>
    <line x1="564.4212" x2="564.4212" y1="308.7174" y2="234.4441"/>
    <line x1="559.8524" x2="559.8524" y1="237.0819" y2="311.3552"/>
    <line x1="562.2514" x2="562.2514" y1="315.536" y2="397.1733"/>
    <line x1="566.8035" x2="566.8035" y1="394.5452" y2="312.9079"/>
    <line x1="557.6994" x2="557.6994" y1="318.1641" y2="399.8014"/>
    <line x1="553.1474" x2="553.1474" y1="402.4295" y2="320.7922"/>
    <line x1="550.7148" x2="550.7148" y1="316.6308" y2="242.3576"/>
    <line x1="555.2836" x2="555.2836" y1="239.7197" y2="313.993"/>
    <line x1="546.146" x2="546.146" y1="319.2686" y2="244.9954"/>
    <line x1="541.5772" x2="541.5772" y1="247.6332" y2="321.9064"/>
    <line x1="541.6431" x2="541.6431" y1="324.6626" y2="406.2999"/>
    <polyline points="539.2428,404.9141 539.2232,323.2655 544.0434,326.0485"/>
    <line x1="548.5954" x2="548.5954" y1="323.4204" y2="405.0576"/>
    <polyline points="544.0434,407.6857 476.8348,368.8828 476.8348,295.3998"/>
    <line x1="475.9747" x2="475.9747" y1="294.9032" y2="279.5147"/>
    <line x1="478.3934" x2="478.3934" y1="280.9112" y2="296.2997"/>
    <line x1="479.2351" x2="479.2351" y1="296.7857" y2="370.2686"/>
    <line x1="481.6354" x2="481.6354" y1="371.6544" y2="298.1715"/>
    <line x1="480.8122" x2="480.8122" y1="297.6962" y2="282.3076"/>
    <line x1="483.2309" x2="483.2309" y1="283.7041" y2="299.0926"/>
    <line x1="484.0357" x2="484.0357" y1="299.5573" y2="373.0403"/>
    <line x1="486.436" x2="486.436" y1="374.4261" y2="300.9431"/>
    <line x1="485.6497" x2="485.6497" y1="300.4891" y2="285.1005"/>
    <line x1="488.0684" x2="488.0684" y1="286.497" y2="301.8855"/>
    <line x1="488.8364" x2="488.8364" y1="302.3289" y2="375.8119"/>
    <line x1="491.2367" x2="491.2367" y1="377.1977" y2="303.7147"/>
    <line x1="490.4871" x2="490.4871" y1="303.282" y2="287.8935"/>
    <line x1="492.9059" x2="492.9059" y1="289.2899" y2="304.6785"/>
    <line x1="493.637" x2="493.637" y1="305.1006" y2="378.5835"/>
    <line x1="496.0373" x2="496.0373" y1="379.9693" y2="306.4864"/>
    <line x1="495.3246" x2="495.3246" y1="306.0749" y2="290.6864"/>
    <line x1="497.7434" x2="497.7434" y1="292.0829" y2="307.4714"/>
    <line x1="498.4376" x2="498.4376" y1="307.8722" y2="381.3552"/>
    <line x1="498.1987" x2="498.1987" y1="384.8166" y2="473.6567"/>
    <line x1="503.0327" x2="503.0327" y1="470.8658" y2="384.0082"/>
    <line x1="510.4391" x2="510.4391" y1="388.2842" y2="314.8013"/>
    <line x1="509.8371" x2="509.8371" y1="314.4537" y2="299.0652"/>
    <line x1="512.2558" x2="512.2558" y1="300.4616" y2="315.8502"/>
    <line x1="512.8394" x2="512.7008" y1="316.1871" y2="465.2839"/>
    <line x1="517.5349" x2="517.64" y1="462.493" y2="318.9587"/>
    <line x1="517.0933" x2="517.0933" y1="318.6431" y2="303.2546"/>
    <line x1="518.7498" x2="439.6935" y1="304.2109" y2="258.5678"/>
    <line x1="442.1123" x2="442.1123" y1="259.9642" y2="275.3528"/>
    <line x1="444.531" x2="444.531" y1="276.7492" y2="261.3607"/>
    <line x1="446.9498" x2="446.9498" y1="262.7571" y2="278.1457"/>
    <line x1="449.3685" x2="449.3685" y1="279.5421" y2="264.1536"/>
    <line x1="451.7872" x2="451.7872" y1="265.5501" y2="280.9386"/>
    <line x1="454.206" x2="454.206" y1="282.3351" y2="266.9465"/>
    <line x1="456.6247" x2="456.6247" y1="268.343" y2="283.7315"/>
    <line x1="459.0435" x2="459.0435" y1="285.128" y2="269.7395"/>
    <line x1="461.4622" x2="461.4622" y1="271.1359" y2="286.5245"/>
    <line x1="463.881" x2="463.881" y1="287.9209" y2="272.5324"/>
    <line x1="466.2997" x2="466.2997" y1="273.9288" y2="289.3174"/>
    <line x1="468.7184" x2="468.7184" y1="290.7138" y2="275.3253"/>
    <line x1="471.1372" x2="471.1372" y1="276.7218" y2="292.1103"/>
    <line x1="473.5559" x2="473.5559" y1="293.5068" y2="278.1182"/>
    <polyline points="479.6759,264.7292 439.4704,241.5166 439.4704,217.1611 513.8493,174.2184 554.0548,197.4311 554.0548,219.3459"/>
    <line x1="532.4437" x2="532.4437" y1="247.6355" y2="321.9088"/>
    <polyline points="533.9888,322.8008 529.187,325.6254 529.187,320.0285"/>
    <line x1="530.1614" x2="530.1614" y1="320.5911" y2="246.3178"/>
    <line x1="527.8791" x2="527.8791" y1="245.0001" y2="319.2734"/>
    <line x1="526.7683" x2="526.7683" y1="318.6321" y2="324.2289"/>
    <line x1="527.2412" x2="527.2412" y1="324.502" y2="397.985"/>
    <line x1="529.6416" x2="529.6416" y1="399.3708" y2="325.363"/>
    <polyline points="529.187,325.6254 439.6935,273.9563 439.6935,258.5678 454.3487,250.1066"/>
    <line x1="453.6606" x2="453.6606" y1="249.7093" y2="225.3538"/>
    <line x1="456.0256" x2="456.0256" y1="226.7192" y2="251.0747"/>
    <line x1="458.3907" x2="458.3907" y1="252.4402" y2="228.0847"/>
    <line x1="460.7557" x2="460.7557" y1="229.4501" y2="253.8056"/>
    <line x1="463.1207" x2="463.1207" y1="255.1711" y2="230.8156"/>
    <line x1="465.4857" x2="465.4857" y1="232.181" y2="256.5365"/>
    <line x1="467.8508" x2="467.8508" y1="257.902" y2="233.5465"/>
    <line x1="470.2158" x2="470.2158" y1="234.9119" y2="259.2674"/>
    <line x1="472.5808" x2="472.5808" y1="260.6329" y2="236.2774"/>
    <line x1="474.9459" x2="474.9459" y1="237.6428" y2="261.9983"/>
    <line x1="477.3109" x2="477.3109" y1="263.3638" y2="239.0083"/>
    <line x1="479.6759" x2="439.4704" y1="240.3737" y2="217.1611"/>
    <line x1="441.8354" x2="441.8354" y1="218.5265" y2="242.882"/>
    <line x1="444.2005" x2="444.2005" y1="244.2475" y2="219.892"/>
    <line x1="446.5655" x2="446.5655" y1="221.2574" y2="245.6129"/>
    <line x1="448.9305" x2="448.9305" y1="246.9784" y2="222.6229"/>
    <line x1="451.2956" x2="451.2956" y1="223.9883" y2="248.3438"/>
    <polyline points="439.6935,265.3675 422.436,275.3311 422.436,296.534"/>
    <line x1="451.3193" x2="451.3193" y1="311.3858" y2="322.4585"/>
    <line x1="451.8253" x2="451.8253" y1="322.1664" y2="330.1335"/>
    <line x1="449.3761" x2="449.3761" y1="328.7195" y2="323.5804"/>
    <line x1="454.2744" x2="454.2744" y1="320.7524" y2="331.5475"/>
    <line x1="456.7235" x2="456.7235" y1="332.9615" y2="319.3384"/>
    <line x1="456.2228" x2="456.2228" y1="319.6274" y2="308.5548"/>
    <line x1="461.1263" x2="461.1263" y1="305.7238" y2="316.7964"/>
    <line x1="461.6217" x2="461.6217" y1="316.5104" y2="335.7894"/>
    <line x1="459.1726" x2="459.1726" y1="334.3754" y2="317.9244"/>
    <line x1="464.0708" x2="464.0708" y1="315.0964" y2="337.2034"/>
    <line x1="466.5199" x2="466.5199" y1="338.6174" y2="300.783"/>
    <line x1="468.969" x2="468.969" y1="302.197" y2="340.0314"/>
    <line x1="471.4181" x2="471.4181" y1="341.4454" y2="303.611"/>
    <line x1="473.8672" x2="473.8672" y1="305.025" y2="342.8594"/>
    <line x1="514.6746" x2="514.6746" y1="317.2466" y2="301.8581"/>
    <line x1="519.5121" x2="519.5121" y1="314.4427" y2="320.0396"/>
    <line x1="520.0403" x2="520.0403" y1="320.3445" y2="393.8275"/>
    <line x1="522.3689" x2="523.6409" y1="396.6407" y2="395.9063"/>
    <line x1="524.8409" x2="524.8409" y1="396.5991" y2="323.1162"/>
    <line x1="524.3496" x2="524.3496" y1="322.8325" y2="317.2356"/>
    <line x1="523.3144" x2="523.3144" y1="316.638" y2="242.3647"/>
    <line x1="525.5967" x2="525.5967" y1="243.6824" y2="317.9557"/>
    <line x1="532.0419" x2="532.0419" y1="323.9772" y2="400.7566"/>
    <line x1="515.2397" x2="515.2397" y1="391.0559" y2="317.5729"/>
    <line x1="484.3246" x2="484.3246" y1="262.0453" y2="237.6898"/>
    <line x1="488.9733" x2="488.9733" y1="235.0059" y2="259.3614"/>
    <line x1="493.622" x2="493.622" y1="256.6775" y2="232.322"/>
    <line x1="498.2706" x2="498.2706" y1="229.6381" y2="253.9936"/>
    <line x1="502.9193" x2="502.9193" y1="251.3097" y2="226.9542"/>
    <line x1="507.568" x2="507.568" y1="224.2702" y2="248.6257"/>
    <line x1="512.2167" x2="512.2167" y1="245.9418" y2="221.5863"/>
    <line x1="516.8654" x2="516.8654" y1="218.9024" y2="243.2579"/>
    <line x1="464.1705" x2="464.1705" y1="147.6267" y2="84.7906"/>
    <line x1="459.2729" x2="459.2729" y1="87.6182" y2="150.4543"/>
    <line x1="454.3753" x2="454.3753" y1="153.2819" y2="90.4458"/>
    <line x1="449.4778" x2="449.4778" y1="93.2734" y2="156.1096"/>
    <polyline points="444.5802,158.9372 522.9415,113.6952 522.9415,50.8591 467.9051,19.0838 389.5438,64.3258 389.5438,127.1619 444.5802,158.9372 444.5802,96.1011 522.9415,50.8591"/>
    <line x1="518.044" x2="518.044" y1="53.6867" y2="116.5228"/>
    <line x1="513.1464" x2="513.1464" y1="119.3505" y2="56.5144"/>
    <line x1="508.2488" x2="508.2488" y1="59.342" y2="122.1781"/>
    <line x1="503.3512" x2="503.3512" y1="125.0057" y2="62.1696"/>
    <line x1="498.4536" x2="498.4536" y1="64.9972" y2="127.8333"/>
    <line x1="493.556" x2="493.556" y1="130.661" y2="67.8248"/>
    <line x1="488.6584" x2="488.6584" y1="70.6525" y2="133.4886"/>
    <line x1="483.7609" x2="483.7609" y1="136.3162" y2="73.4801"/>
    <line x1="478.8633" x2="478.8633" y1="76.3077" y2="139.1438"/>
    <line x1="473.9657" x2="473.9657" y1="141.9714" y2="79.1353"/>
    <line x1="469.0681" x2="469.0681" y1="81.963" y2="144.7991"/>
    <line x1="442.1873" x2="442.1873" y1="157.5556" y2="94.7195"/>
    <line x1="444.5802" x2="389.5438" y1="96.1011" y2="64.3258"/>
    <line x1="391.9367" x2="391.9367" y1="65.7073" y2="128.5434"/>
    <line x1="394.3295" x2="394.3295" y1="129.925" y2="67.0889"/>
    <line x1="396.7224" x2="396.7224" y1="68.4704" y2="131.3065"/>
    <line x1="399.1153" x2="399.1153" y1="132.688" y2="69.8519"/>
    <line x1="401.5082" x2="401.5082" y1="71.2335" y2="134.0696"/>
    <line x1="403.9011" x2="403.9011" y1="135.4511" y2="72.615"/>
    <line x1="406.294" x2="406.294" y1="73.9965" y2="136.8326"/>
    <line x1="408.6869" x2="408.6869" y1="138.2142" y2="75.3781"/>
    <line x1="411.0798" x2="411.0798" y1="76.7596" y2="139.5957"/>
    <line x1="413.4726" x2="413.4726" y1="140.9772" y2="78.1411"/>
    <line x1="415.8655" x2="415.8655" y1="79.5227" y2="142.3588"/>
    <line x1="418.2584" x2="418.2584" y1="143.7403" y2="80.9042"/>
    <line x1="420.6513" x2="420.6513" y1="82.2857" y2="145.1218"/>
    <line x1="423.0442" x2="423.0442" y1="146.5034" y2="83.6673"/>
    <line x1="425.4371" x2="425.4371" y1="85.0488" y2="147.8849"/>
    <line x1="427.83" x2="427.83" y1="149.2664" y2="86.4303"/>
    <line x1="430.2228" x2="430.2228" y1="87.8119" y2="150.648"/>
    <line x1="432.6157" x2="432.6157" y1="152.0295" y2="89.1934"/>
    <line x1="435.0086" x2="435.0086" y1="90.5749" y2="153.411"/>
    <line x1="437.4015" x2="437.4015" y1="154.7926" y2="91.9565"/>
    <line x1="439.7944" x2="439.7944" y1="93.338" y2="156.1741"/>
    <line x1="323.5352" x2="296.5428" y1="162.5358" y2="178.1198"/>
    <line x1="294.138" x2="294.138" y1="176.7314" y2="264.2548"/>
    <line x1="291.7332" x2="291.7332" y1="262.8664" y2="175.343"/>
    <line x1="289.3284" x2="289.3284" y1="173.9545" y2="261.4779"/>
    <line x1="286.9235" x2="286.9235" y1="260.0895" y2="172.5661"/>
    <line x1="284.5187" x2="284.5187" y1="171.1777" y2="258.7011"/>
    <line x1="282.1139" x2="282.1139" y1="257.3127" y2="169.7893"/>
    <line x1="279.7091" x2="279.7091" y1="168.4008" y2="255.9243"/>
    <line x1="277.3043" x2="277.3043" y1="254.5358" y2="167.0124"/>
    <line x1="274.8994" x2="274.8994" y1="165.624" y2="253.1474"/>
    <line x1="272.4946" x2="272.4946" y1="251.759" y2="164.2356"/>
    <line x1="270.0898" x2="270.0898" y1="162.8471" y2="250.3706"/>
    <line x1="267.685" x2="267.685" y1="248.9821" y2="161.4587"/>
    <line x1="265.2802" x2="265.2802" y1="160.0703" y2="247.5937"/>
    <line x1="262.8753" x2="262.8753" y1="246.2053" y2="158.6819"/>
    <line x1="260.4705" x2="260.4705" y1="157.2934" y2="244.8169"/>
    <line x1="258.0657" x2="258.0657" y1="243.4284" y2="155.905"/>
    <line x1="255.6609" x2="255.6609" y1="154.5166" y2="242.04"/>
    <line x1="253.2561" x2="253.2561" y1="240.6516" y2="153.1282"/>
    <line x1="250.8513" x2="250.8513" y1="151.7398" y2="239.2632"/>
    <line x1="248.4464" x2="248.4464" y1="237.8747" y2="150.3513"/>
    <line x1="246.0416" x2="246.0416" y1="148.9629" y2="236.4863"/>
    <polyline points="296.5428,265.6432 323.5352,250.0592 323.5352,162.5358 270.6291,131.9904 243.6368,147.5745 243.6368,235.0979 296.5428,265.6432 296.5428,178.1198 243.6368,147.5745"/>
    <line x1="301.0416" x2="301.0416" y1="175.5225" y2="263.0459"/>
    <line x1="305.5403" x2="305.5403" y1="260.4485" y2="172.9251"/>
    <line x1="310.039" x2="310.039" y1="170.3278" y2="257.8512"/>
    <line x1="314.5377" x2="314.5377" y1="255.2539" y2="167.7304"/>
    <line x1="319.0365" x2="319.0365" y1="165.1331" y2="252.6565"/>
    <line x1="307.978" x2="246.2909" y1="283.6828" y2="319.2978"/>
    <line x1="244.0426" x2="244.0426" y1="317.9997" y2="426.696"/>
    <line x1="241.7942" x2="241.7942" y1="425.3979" y2="316.7016"/>
    <line x1="239.5458" x2="239.5458" y1="315.4035" y2="424.0998"/>
    <line x1="237.2975" x2="237.2975" y1="422.8017" y2="314.1054"/>
    <line x1="235.0491" x2="235.0491" y1="312.8073" y2="421.5036"/>
    <line x1="232.8007" x2="232.8007" y1="420.2055" y2="311.5092"/>
    <line x1="230.5523" x2="230.5523" y1="310.2111" y2="418.9074"/>
    <line x1="228.304" x2="228.304" y1="417.6093" y2="308.913"/>
    <polyline points="226.0556,307.6149 246.2909,319.2978 246.2909,427.9941 226.0556,416.3112 226.0556,307.6149 287.7426,271.9999 307.978,283.6828 307.978,392.379 246.2909,427.9941"/>
    <line x1="251.0361" x2="251.0361" y1="425.2544" y2="316.5582"/>
    <line x1="255.7813" x2="255.7813" y1="313.8186" y2="422.5148"/>
    <line x1="260.5264" x2="260.5264" y1="419.7752" y2="311.079"/>
    <line x1="265.2716" x2="265.2716" y1="308.3394" y2="417.0356"/>
    <line x1="270.0167" x2="270.0167" y1="414.296" y2="305.5997"/>
    <line x1="274.7619" x2="274.7619" y1="302.8601" y2="411.5564"/>
    <line x1="279.5071" x2="279.5071" y1="408.8167" y2="300.1205"/>
    <line x1="284.2522" x2="284.2522" y1="297.3809" y2="406.0771"/>
    <line x1="288.9974" x2="288.9974" y1="403.3375" y2="294.6413"/>
    <line x1="293.7425" x2="293.7425" y1="291.9016" y2="400.5979"/>
    <line x1="298.4877" x2="298.4877" y1="397.8583" y2="289.162"/>
    <line x1="303.2328" x2="303.2328" y1="286.4224" y2="395.1186"/>
    <line x1="262.3793" x2="318.397" y1="472.3911" y2="504.7329"/>
    <line x1="315.9614" x2="315.9614" y1="503.3268" y2="529.8785"/>
    <line x1="313.5259" x2="313.5259" y1="528.4723" y2="501.9206"/>
    <line x1="323.0811" x2="323.0811" y1="502.0285" y2="528.5803"/>
    <line x1="327.7652" x2="327.7652" y1="525.8759" y2="499.3241"/>
    <line x1="332.4494" x2="332.4494" y1="496.6198" y2="523.1715"/>
    <line x1="337.1335" x2="337.1335" y1="520.4671" y2="493.9154"/>
    <line x1="267.2504" x2="267.2504" y1="501.7552" y2="475.2034"/>
    <line x1="264.8148" x2="264.8148" y1="473.7973" y2="500.349"/>
    <polyline points="246.0366,572.6724 318.9763,614.7842 318.9763,702.7393 246.0366,660.6275 246.0366,572.6724 275.7964,555.4906 348.7361,597.6024 348.7361,685.5574 318.9763,702.7393"/>
    <line x1="316.545" x2="316.545" y1="701.3355" y2="613.3805"/>
    <line x1="314.1137" x2="314.1137" y1="611.9767" y2="699.9318"/>
    <line x1="311.6823" x2="311.6823" y1="698.5281" y2="610.573"/>
    <line x1="309.251" x2="309.251" y1="609.1693" y2="697.1244"/>
    <line x1="323.2277" x2="323.2277" y1="700.2847" y2="612.3297"/>
    <line x1="318.9763" x2="348.7361" y1="614.7842" y2="597.6024"/>
    <line x1="344.4847" x2="344.4847" y1="600.0569" y2="688.012"/>
    <line x1="340.2333" x2="340.2333" y1="690.4665" y2="602.5115"/>
    <line x1="335.9819" x2="335.9819" y1="604.966" y2="692.9211"/>
    <line x1="331.7305" x2="331.7305" y1="695.3756" y2="607.4206"/>
    <line x1="327.4791" x2="327.4791" y1="609.8751" y2="697.8302"/>
    <line x1="346.2317" x2="346.2317" y1="713.0676" y2="759.0564"/>
    <polyline points="345.6562,758.7241 345.6562,787.6037 370.6666,773.1639"/>
    <line x1="370.3047" x2="370.3047" y1="772.9549" y2="726.9662"/>
    <line x1="372.712" x2="372.6878" y1="728.356" y2="778.1015"/>
    <line x1="374.8696" x2="374.8696" y1="779.3611" y2="775.5905"/>
    <line x1="375.1193" x2="375.1193" y1="775.7347" y2="729.7459"/>
    <line x1="377.5266" x2="377.5266" y1="731.1357" y2="777.1245"/>
    <line x1="377.0513" x2="377.0513" y1="776.8501" y2="780.6208"/>
    <line x1="379.233" x2="379.233" y1="781.8804" y2="778.1097"/>
    <line x1="379.9339" x2="379.9339" y1="778.5144" y2="732.5256"/>
    <polyline points="382.3412,733.9155 382.3412,779.9042 341.4171,756.2767 341.4171,710.2879 371.0016,693.2073 411.9257,716.8348 411.9257,762.8236 382.3412,779.9042"/>
    <line x1="381.4148" x2="381.4148" y1="779.3693" y2="783.14"/>
    <line x1="383.5965" x2="383.5965" y1="784.3996" y2="779.1795"/>
    <line x1="386.5676" x2="386.5676" y1="777.4641" y2="731.4754"/>
    <line x1="390.7939" x2="390.7939" y1="729.0353" y2="775.024"/>
    <line x1="391.1002" x2="391.1002" y1="774.8472" y2="788.7319"/>
    <line x1="394.852" x2="394.852" y1="790.898" y2="772.6811"/>
    <line x1="395.0203" x2="395.0203" y1="772.5839" y2="726.5952"/>
    <line x1="399.2466" x2="399.2466" y1="724.1551" y2="770.1439"/>
    <line x1="403.473" x2="403.473" y1="767.7038" y2="721.715"/>
    <line x1="407.6994" x2="407.6994" y1="719.2749" y2="765.2637"/>
    <polyline points="411.9257,749.3429 423.9315,742.4114 423.9315,710.0839 354.32,669.8937 348.7361,673.1175"/>
    <line x1="348.639" x2="348.639" y1="714.4575" y2="760.4462"/>
    <line x1="350.5484" x2="350.5484" y1="761.5486" y2="784.7791"/>
    <polyline points="349.3729,785.4578 349.3729,850.2294 405.7173,882.7599"/>
    <line x1="406.1364" x2="406.1364" y1="882.518" y2="933.2232"/>
    <line x1="403.6992" x2="403.6992" y1="931.816" y2="881.5947"/>
    <line x1="403.2676" x2="403.2676" y1="881.3455" y2="812.5829"/>
    <line x1="400.8178" x2="400.8178" y1="811.1685" y2="879.9312"/>
    <polyline points="401.262,880.1876 401.1731,930.3576 423.1966,943.0729"/>
    <line x1="420.7595" x2="420.7595" y1="941.6658" y2="870.0302"/>
    <line x1="420.2892" x2="423.1966" y1="869.7587" y2="871.4373"/>
    <line x1="427.9708" x2="427.9708" y1="868.681" y2="940.3165"/>
    <line x1="432.745" x2="432.745" y1="937.5601" y2="865.9246"/>
    <line x1="437.5192" x2="437.5192" y1="863.1682" y2="934.8038"/>
    <line x1="442.2934" x2="442.2934" y1="932.0474" y2="860.4118"/>
    <line x1="447.0676" x2="447.0676" y1="857.6555" y2="929.291"/>
    <line x1="451.8417" x2="451.8417" y1="926.5346" y2="856.6256"/>
    <line x1="450.7935" x2="450.7935" y1="856.0204" y2="837.6693"/>
    <line x1="448.4138" x2="448.4138" y1="836.2955" y2="854.6465"/>
    <polyline points="450.3465,855.7624 423.1966,871.4373 423.1966,943.0729 494.8094,901.7272 494.8094,890.596"/>
    <line x1="494.0675" x2="494.0675" y1="890.1676" y2="858.5141"/>
    <line x1="493.8887" x2="493.8887" y1="858.6173" y2="840.2663"/>
    <line x1="498.7134" x2="498.8448" y1="837.4807" y2="892.9258"/>
    <line x1="501.2335" x2="501.2335" y1="894.305" y2="854.3768"/>
    <line x1="506.0109" x2="506.0109" y1="851.6186" y2="897.0632"/>
    <line x1="508.3996" x2="508.3627" y1="898.4423" y2="831.9097"/>
    <line x1="513.1873" x2="513.1769" y1="829.1242" y2="901.2005"/>
    <line x1="515.5656" x2="515.5656" y1="902.5796" y2="846.1022"/>
    <line x1="520.343" x2="520.343" y1="843.3439" y2="905.3378"/>
    <line x1="522.7317" x2="522.7317" y1="906.7169" y2="841.9648"/>
    <polyline points="522.8366,841.5992 541.8411,852.5715 541.8411,917.7498 561.4277,906.4415 561.4277,841.2632 477.8238,792.9944 473.8656,795.2797"/>
    <line x1="491.6385" x2="491.6385" y1="800.9704" y2="753.2134"/>
    <line x1="494.061" x2="494.061" y1="754.612" y2="802.369"/>
    <line x1="496.4835" x2="496.4835" y1="803.7676" y2="756.0106"/>
    <line x1="498.906" x2="498.906" y1="757.4093" y2="805.1663"/>
    <line x1="501.3285" x2="501.3285" y1="806.5649" y2="758.8079"/>
    <line x1="503.751" x2="503.751" y1="760.2065" y2="807.9635"/>
    <line x1="506.1735" x2="506.1735" y1="809.3621" y2="761.6051"/>
    <line x1="508.596" x2="508.596" y1="763.0038" y2="810.7608"/>
    <line x1="511.0185" x2="511.0185" y1="812.1594" y2="764.4024"/>
    <line x1="513.4409" x2="513.4409" y1="765.801" y2="813.558"/>
    <line x1="515.8634" x2="515.8634" y1="814.9566" y2="767.1996"/>
    <line x1="518.2859" x2="518.2859" y1="768.5983" y2="816.3553"/>
    <line x1="524.6933" x2="524.6933" y1="820.0546" y2="793.4272"/>
    <line x1="527.112" x2="527.112" y1="794.8236" y2="821.451"/>
    <line x1="529.5306" x2="529.5306" y1="822.8474" y2="796.2201"/>
    <line x1="531.9493" x2="531.9493" y1="797.6165" y2="824.2438"/>
    <line x1="534.368" x2="534.368" y1="825.6403" y2="799.0129"/>
    <line x1="536.7867" x2="536.7867" y1="800.4094" y2="827.0367"/>
    <line x1="539.2054" x2="539.2054" y1="828.4331" y2="801.8058"/>
    <line x1="541.6241" x2="541.6241" y1="803.2022" y2="829.8296"/>
    <line x1="544.0428" x2="544.0428" y1="831.226" y2="804.5986"/>
    <line x1="546.4615" x2="546.4615" y1="805.9951" y2="832.6224"/>
    <line x1="548.8801" x2="548.8801" y1="834.0188" y2="807.3915"/>
    <line x1="551.2988" x2="551.2988" y1="808.7879" y2="835.4153"/>
    <line x1="553.7175" x2="553.7175" y1="836.8117" y2="810.1844"/>
    <line x1="556.1362" x2="556.1362" y1="811.5808" y2="838.2081"/>
    <line x1="558.5549" x2="558.5549" y1="839.6046" y2="812.9772"/>
    <line x1="560.9736" x2="560.9736" y1="814.3737" y2="841.001"/>
    <line x1="561.4277" x2="541.8411" y1="841.2632" y2="852.5715"/>
    <line x1="539.4524" x2="539.4524" y1="851.1924" y2="916.3707"/>
    <polyline points="541.8411,917.7498 458.2372,869.481 458.2372,860.3181"/>
    <line x1="457.9325" x2="457.9325" y1="860.1421" y2="841.791"/>
    <line x1="455.5528" x2="455.5528" y1="840.4171" y2="858.7682"/>
    <line x1="456.6159" x2="456.6159" y1="859.382" y2="923.7783"/>
    <line x1="461.3901" x2="461.3901" y1="921.0219" y2="871.3013"/>
    <line x1="460.6259" x2="460.6259" y1="870.8601" y2="861.6972"/>
    <line x1="460.3121" x2="460.3121" y1="861.516" y2="843.1649"/>
    <line x1="462.6918" x2="462.6918" y1="844.5388" y2="862.8899"/>
    <line x1="463.0146" x2="463.0146" y1="863.0763" y2="872.2392"/>
    <line x1="465.4033" x2="465.4033" y1="873.6184" y2="864.4554"/>
    <line x1="465.0714" x2="465.0714" y1="864.2638" y2="845.9127"/>
    <line x1="467.4511" x2="467.4511" y1="847.2866" y2="865.6377"/>
    <line x1="467.792" x2="467.792" y1="865.8345" y2="874.9975"/>
    <line x1="466.1643" x2="466.1643" y1="874.0577" y2="918.2655"/>
    <line x1="470.9385" x2="470.9385" y1="915.5091" y2="876.8141"/>
    <line x1="470.1806" x2="470.1806" y1="876.3766" y2="867.2136"/>
    <line x1="469.8308" x2="469.8308" y1="867.0116" y2="848.6605"/>
    <line x1="472.2104" x2="472.2104" y1="850.0344" y2="868.3855"/>
    <line x1="472.5693" x2="472.5693" y1="868.5927" y2="877.7557"/>
    <line x1="474.958" x2="474.958" y1="879.1348" y2="869.547"/>
    <polyline points="474.5901,869.7594 522.8366,841.9042 522.8366,823.5532 465.7248,790.5796 417.4782,818.4348 417.4782,836.7859 474.5901,869.7594 474.5901,851.4083 417.4782,818.4348"/>
    <line x1="419.8579" x2="419.8579" y1="819.8087" y2="838.1598"/>
    <polyline points="420.2892,838.4088 420.2892,874.3468 405.7173,882.7599 405.7173,813.9972 352.8293,783.4623"/>
    <line x1="351.8227" x2="351.8227" y1="784.0434" y2="851.6438"/>
    <line x1="354.2725" x2="354.2725" y1="853.0582" y2="784.2955"/>
    <line x1="355.4406" x2="355.4406" y1="781.9546" y2="764.3731"/>
    <line x1="355.8609" x2="355.8609" y1="764.6158" y2="718.6271"/>
    <line x1="358.2682" x2="358.2682" y1="720.0169" y2="766.0057"/>
    <line x1="360.3328" x2="360.3328" y1="767.1977" y2="779.1301"/>
    <line x1="365.225" x2="365.225" y1="776.3056" y2="770.0222"/>
    <line x1="365.4901" x2="365.4901" y1="770.1752" y2="724.1865"/>
    <line x1="367.8974" x2="367.8974" y1="725.5763" y2="771.5651"/>
    <line x1="370.1172" x2="370.1172" y1="772.8467" y2="773.4811"/>
    <polyline points="367.4011,775.0492 420.2892,805.5842 420.2892,816.8119"/>
    <line x1="422.2376" x2="422.2376" y1="821.1826" y2="839.5337"/>
    <line x1="424.6172" x2="424.6172" y1="840.9076" y2="822.5565"/>
    <line x1="426.9969" x2="426.9969" y1="823.9304" y2="842.2815"/>
    <line x1="429.3765" x2="429.3765" y1="843.6554" y2="825.3043"/>
    <line x1="431.7562" x2="431.7562" y1="826.6782" y2="845.0293"/>
    <line x1="434.1359" x2="434.1359" y1="846.4031" y2="828.0521"/>
    <line x1="436.5155" x2="436.5155" y1="829.426" y2="847.777"/>
    <line x1="438.8952" x2="438.8952" y1="849.1509" y2="830.7999"/>
    <line x1="441.2748" x2="441.2748" y1="832.1738" y2="850.5248"/>
    <line x1="443.6545" x2="443.6545" y1="851.8987" y2="833.5477"/>
    <line x1="446.0342" x2="446.0342" y1="834.9216" y2="853.2726"/>
    <line x1="453.1731" x2="453.1731" y1="857.3943" y2="839.0432"/>
    <line x1="474.5901" x2="522.8366" y1="851.4083" y2="823.5532"/>
    <line x1="518.012" x2="517.9543" y1="826.3387" y2="903.9587"/>
    <line x1="510.7883" x2="510.7883" y1="899.8214" y2="848.8604"/>
    <line x1="525.1203" x2="525.1203" y1="842.9177" y2="908.096"/>
    <line x1="527.509" x2="527.509" y1="909.4751" y2="844.2968"/>
    <line x1="529.8977" x2="529.8977" y1="845.6759" y2="910.8542"/>
    <line x1="532.2864" x2="532.2864" y1="912.2333" y2="847.055"/>
    <line x1="534.6751" x2="534.6751" y1="848.4341" y2="913.6124"/>
    <line x1="537.0638" x2="537.0638" y1="914.9916" y2="849.8132"/>
    <line x1="546.7378" x2="546.7378" y1="849.7444" y2="914.9227"/>
    <line x1="548.5468" x2="614.1847" y1="913.8783" y2="951.7743"/>
    <line x1="611.766" x2="611.766" y1="950.3779" y2="843.6987"/>
    <line x1="609.3473" x2="609.3473" y1="842.3023" y2="948.9815"/>
    <line x1="606.9286" x2="606.9286" y1="947.585" y2="840.9058"/>
    <line x1="604.51" x2="604.51" y1="839.5094" y2="946.1886"/>
    <line x1="602.0913" x2="602.0913" y1="944.7922" y2="838.113"/>
    <line x1="599.6726" x2="599.6726" y1="836.7165" y2="943.3958"/>
    <line x1="597.2539" x2="597.2539" y1="941.9993" y2="835.3201"/>
    <line x1="594.8352" x2="594.8352" y1="833.9237" y2="940.6029"/>
    <line x1="592.4165" x2="592.4165" y1="939.2065" y2="832.5272"/>
    <line x1="589.9978" x2="589.9978" y1="831.1308" y2="937.81"/>
    <line x1="568.2296" x2="568.2296" y1="925.2422" y2="818.5629"/>
    <line x1="565.811" x2="565.811" y1="817.1665" y2="923.8457"/>
    <line x1="563.3923" x2="563.3923" y1="922.4493" y2="815.7701"/>
    <line x1="587.9518" x2="614.1847" y1="829.9495" y2="845.0951"/>
    <line x1="618.6978" x2="618.6978" y1="842.4895" y2="949.1687"/>
    <line x1="623.2109" x2="623.2109" y1="946.563" y2="839.8838"/>
    <line x1="627.7241" x2="627.7241" y1="837.2782" y2="943.9574"/>
    <line x1="632.2372" x2="632.2372" y1="941.3517" y2="834.6725"/>
    <line x1="636.7503" x2="636.7503" y1="832.0669" y2="938.7461"/>
    <line x1="641.2634" x2="641.2634" y1="936.1404" y2="829.4612"/>
    <polyline points="645.7765,826.8556 614.1847,845.0951 614.1847,951.7743 645.7765,933.5348 645.7765,826.8556 619.5436,811.71"/>
    <line x1="620.9091" x2="620.9091" y1="810.9216" y2="721.0214"/>
    <line x1="616.1625" x2="616.1625" y1="723.7619" y2="813.6621"/>
    <line x1="611.4158" x2="611.4158" y1="816.4025" y2="726.5023"/>
    <line x1="606.6692" x2="606.6692" y1="729.2428" y2="819.143"/>
    <line x1="601.9225" x2="601.9225" y1="821.8835" y2="731.9833"/>
    <line x1="597.1759" x2="597.1759" y1="734.7238" y2="824.624"/>
    <line x1="592.4292" x2="592.4292" y1="827.3645" y2="737.4643"/>
    <line x1="587.6826" x2="639.8958" y1="740.2048" y2="710.0595"/>
    <line x1="635.1491" x2="635.1491" y1="712.7999" y2="802.7001"/>
    <line x1="630.4024" x2="630.4024" y1="805.4406" y2="715.5404"/>
    <line x1="625.6558" x2="625.6558" y1="718.2809" y2="808.1811"/>
    <line x1="556.531" x2="556.531" y1="844.0902" y2="909.2685"/>
    <line x1="556.1362" x2="556.1362" y1="909.4965" y2="918.26"/>
    <line x1="553.7175" x2="553.7175" y1="916.8636" y2="910.8929"/>
    <line x1="551.6344" x2="551.6344" y1="912.0956" y2="846.9173"/>
    <line x1="503.538" x2="503.6222" y1="834.6952" y2="895.6841"/>
    <line x1="496.4562" x2="496.4562" y1="891.5467" y2="857.135"/>
    <line x1="491.6788" x2="491.6788" y1="859.8932" y2="888.7885"/>
    <line x1="490.0352" x2="490.0352" y1="887.8396" y2="904.4836"/>
    <line x1="485.261" x2="485.261" y1="907.24" y2="885.0832"/>
    <line x1="484.5127" x2="484.5127" y1="884.6512" y2="864.0305"/>
    <line x1="484.2394" x2="484.2394" y1="864.1884" y2="845.8373"/>
    <line x1="479.4147" x2="479.4147" y1="848.6228" y2="866.9739"/>
    <line x1="479.7354" x2="479.7354" y1="866.7888" y2="881.893"/>
    <line x1="480.4868" x2="480.4868" y1="882.3269" y2="909.9964"/>
    <line x1="475.7127" x2="475.7127" y1="912.7527" y2="879.5705"/>
    <line x1="477.3467" x2="477.3467" y1="880.5139" y2="868.1679"/>
    <line x1="482.1241" x2="482.1241" y1="865.4097" y2="883.2721"/>
    <line x1="486.9014" x2="486.9014" y1="886.0303" y2="862.6514"/>
    <line x1="489.064" x2="489.064" y1="861.4029" y2="843.0518"/>
    <line x1="489.2901" x2="489.2901" y1="861.2723" y2="887.4094"/>
    <line x1="548.8801" x2="548.8801" y1="913.6858" y2="914.0707"/>
    <line x1="551.2988" x2="551.2988" y1="915.4672" y2="912.2894"/>
    <line x1="558.5549" x2="558.5549" y1="908.1001" y2="919.6564"/>
    <line x1="560.9736" x2="560.9736" y1="921.0529" y2="906.7036"/>
    <line x1="525.5534" x2="525.5534" y1="790.1377" y2="772.7942"/>
    <line x1="527.9759" x2="527.9759" y1="774.1928" y2="788.7391"/>
    <line x1="530.3984" x2="530.3984" y1="787.3405" y2="775.5914"/>
    <line x1="532.8209" x2="532.8209" y1="776.99" y2="785.9419"/>
    <line x1="535.2434" x2="535.2434" y1="784.5432" y2="778.3887"/>
    <line x1="537.6659" x2="537.6659" y1="779.7873" y2="783.1446"/>
    <line x1="540.0884" x2="540.0884" y1="781.746" y2="781.1859"/>
    <line x1="566.0049" x2="566.0049" y1="735.5965" y2="711.3968"/>
    <line x1="565.2123" x2="565.2123" y1="711.8544" y2="700.7106"/>
    <line x1="564.4208" x2="564.4208" y1="701.1676" y2="649.5178"/>
    <line x1="559.7693" x2="559.7693" y1="652.2033" y2="703.8531"/>
    <line x1="560.6472" x2="560.6472" y1="703.3462" y2="714.49"/>
    <line x1="561.1235" x2="561.1235" y1="714.215" y2="732.7783"/>
    <line x1="563.5642" x2="563.5642" y1="734.1874" y2="712.8059"/>
    <line x1="558.6829" x2="558.6829" y1="715.6242" y2="731.3691"/>
    <line x1="556.2422" x2="556.0822" y1="729.96" y2="705.9819"/>
    <line x1="555.1178" x2="555.1178" y1="706.5387" y2="654.8889"/>
    <line x1="550.4663" x2="550.4663" y1="657.5744" y2="709.2242"/>
    <line x1="551.5172" x2="551.3609" y1="708.6175" y2="727.1418"/>
    <line x1="548.9202" x2="548.9202" y1="725.7327" y2="721.2607"/>
    <line x1="546.9522" x2="546.9522" y1="722.3969" y2="711.2531"/>
    <line x1="545.8148" x2="545.8148" y1="711.9098" y2="660.26"/>
    <line x1="541.1632" x2="541.1632" y1="662.9455" y2="714.5953"/>
    <line x1="542.3872" x2="542.3872" y1="713.8887" y2="721.9608"/>
    <polyline points="545.0473,723.4967 597.1673,693.4052 597.1673,656.2009"/>
    <line x1="599.3055" x2="599.3055" y1="654.9665" y2="642.7731"/>
    <line x1="603.9746" x2="603.9746" y1="640.0774" y2="652.2708"/>
    <line x1="608.6437" x2="608.6437" y1="649.5751" y2="637.3818"/>
    <line x1="613.3127" x2="613.3127" y1="634.6861" y2="646.8794"/>
    <line x1="617.9818" x2="617.9818" y1="644.1837" y2="631.9904"/>
    <line x1="622.6509" x2="622.6509" y1="629.2947" y2="641.488"/>
    <line x1="627.3199" x2="627.3199" y1="638.7923" y2="626.599"/>
    <line x1="631.989" x2="631.989" y1="623.9033" y2="636.0966"/>
    <line x1="636.6581" x2="636.6581" y1="633.401" y2="621.2076"/>
    <line x1="641.3271" x2="641.3271" y1="618.5119" y2="630.7053"/>
    <line x1="645.9962" x2="645.9962" y1="628.0096" y2="615.8163"/>
    <line x1="650.6653" x2="650.6653" y1="613.1206" y2="625.3139"/>
    <line x1="655.3344" x2="655.3344" y1="622.6182" y2="610.4249"/>
    <line x1="660.0034" x2="660.0034" y1="607.7292" y2="619.9225"/>
    <polyline points="664.6725,605.0335 594.6365,645.4688 594.6365,657.6622 578.1923,648.1681 578.1923,635.9748 648.2284,595.5395 664.6725,605.0335 664.6725,617.2268 594.6365,657.6622"/>
    <line x1="572.1913" x2="572.1913" y1="666.3014" y2="556.9442"/>
    <line x1="567.8153" x2="585.3193" y1="559.4707" y2="549.3648"/>
    <line x1="522.6922" x2="522.6922" y1="545.6707" y2="562.1451"/>
    <line x1="518.0286" x2="518.0286" y1="564.8376" y2="548.3633"/>
    <line x1="513.3649" x2="513.3649" y1="551.0558" y2="567.5302"/>
    <line x1="508.7012" x2="508.7012" y1="570.2228" y2="553.7484"/>
    <line x1="504.0376" x2="504.0376" y1="556.441" y2="572.9154"/>
    <line x1="499.3739" x2="499.3739" y1="575.6079" y2="559.1336"/>
    <line x1="494.7102" x2="494.7102" y1="561.8261" y2="578.3005"/>
    <line x1="477.5091" x2="452.535" y1="613.1776" y2="627.5964"/>
    <line x1="455.522" x2="455.522" y1="625.8719" y2="737.8437"/>
    <line x1="451.1245" x2="451.1245" y1="740.3825" y2="638.9921"/>
    <line x1="459.9194" x2="459.9194" y1="623.333" y2="735.3048"/>
    <line x1="433.1769" x2="433.1769" y1="745.2536" y2="649.3541"/>
    <line x1="460.0645" x2="485.3452" y1="680.5763" y2="695.1721"/>
    <polyline points="489.9967,692.4866 489.9967,744.1364 493.9457,746.2868"/>
    <line x1="491.7737" x2="491.7737" y1="747.5408" y2="745.0328"/>
    <line x1="489.4" x2="489.4" y1="744.4809" y2="748.9113"/>
    <line x1="494.6482" x2="494.6482" y1="741.4508" y2="689.801"/>
    <line x1="499.2997" x2="499.2997" y1="687.1155" y2="738.7653"/>
    <line x1="498.8961" x2="498.8961" y1="738.9983" y2="743.4287"/>
    <line x1="501.2538" x2="501.2538" y1="742.0674" y2="739.6187"/>
    <line x1="502.5474" x2="502.5474" y1="740.3655" y2="736.8902"/>
    <line x1="503.9512" x2="503.9512" y1="736.0797" y2="684.4299"/>
    <line x1="508.6027" x2="508.6027" y1="681.7444" y2="733.3942"/>
    <line x1="507.4288" x2="507.4288" y1="734.0719" y2="738.5023"/>
    <line x1="504.9881" x2="504.9881" y1="739.9115" y2="735.4811"/>
    <line x1="509.8694" x2="509.8694" y1="737.0932" y2="732.6628"/>
    <line x1="512.3101" x2="512.3101" y1="731.2537" y2="735.6841"/>
    <line x1="514.7508" x2="514.7508" y1="734.275" y2="729.8446"/>
    <line x1="513.2542" x2="513.2542" y1="730.7086" y2="679.0588"/>
    <line x1="517.9057" x2="517.9057" y1="676.3733" y2="728.0231"/>
    <line x1="517.1915" x2="517.1915" y1="728.4355" y2="732.8658"/>
    <line x1="519.6321" x2="519.6321" y1="731.4567" y2="727.0263"/>
    <line x1="522.0728" x2="522.0728" y1="725.6172" y2="730.0476"/>
    <line x1="524.5135" x2="524.5135" y1="728.6385" y2="724.2081"/>
    <line x1="522.5572" x2="522.5572" y1="725.3375" y2="673.6877"/>
    <line x1="527.2087" x2="527.2087" y1="671.0022" y2="722.652"/>
    <line x1="526.9541" x2="526.9541" y1="722.799" y2="727.2294"/>
    <line x1="529.3948" x2="529.3948" y1="725.8202" y2="722.8025"/>
    <line x1="528.2874" x2="532.0082" y1="722.0292" y2="724.3114"/>
    <line x1="531.8355" x2="531.8355" y1="724.2117" y2="724.4111"/>
    <line x1="533.0548" x2="533.0548" y1="723.7071" y2="719.2768"/>
    <line x1="531.8602" x2="531.8602" y1="719.9664" y2="668.3166"/>
    <line x1="536.5117" x2="536.5117" y1="665.6311" y2="717.2809"/>
    <line x1="535.4385" x2="535.4385" y1="717.9005" y2="722.3309"/>
    <line x1="537.8222" x2="537.8222" y1="720.9547" y2="716.5243"/>
    <line x1="530.6711" x2="530.6711" y1="720.653" y2="723.5394"/>
    <line x1="546.4795" x2="546.4795" y1="724.3235" y2="722.6698"/>
    <line x1="553.8015" x2="553.8015" y1="718.4424" y2="728.5509"/>
    <line x1="568.4456" x2="568.4456" y1="737.0056" y2="709.9877"/>
    <polyline points="572.5468,707.6198 580.6489,712.2976 580.6489,725.3055"/>
    <line x1="578.2082" x2="578.2082" y1="726.7146" y2="710.8885"/>
    <line x1="575.7676" x2="575.7676" y1="709.4794" y2="728.1237"/>
    <line x1="585.5494" x2="585.5494" y1="722.4762" y2="709.4683"/>
    <line x1="590.4499" x2="590.4499" y1="706.639" y2="719.6469"/>
    <line x1="595.3503" x2="595.3503" y1="716.8176" y2="703.8097"/>
    <line x1="600.2508" x2="600.2508" y1="700.9804" y2="713.9883"/>
    <line x1="605.1513" x2="605.1513" y1="711.159" y2="698.1512"/>
    <line x1="610.0518" x2="580.6489" y1="695.3219" y2="712.2976"/>
    <polyline points="597.1673,687.883 610.0518,695.3219 610.0518,708.3297"/>
    <line x1="610.0518" x2="613.419" y1="706.2648" y2="704.3207"/>
    <polyline points="613.419,706.3857 613.419,704.3207 610.0518,702.3766"/>
    <line x1="610.0518" x2="615.4365" y1="702.1119" y2="705.2208"/>
    <polyline points="503.3745,740.8431 500.1068,738.9564 500.1068,738.2993"/>
    <line x1="464.3168" x2="464.3168" y1="678.1212" y2="620.7942"/>
    <line x1="468.7143" x2="468.7143" y1="618.2553" y2="675.5824"/>
    <line x1="473.1117" x2="473.1117" y1="673.0435" y2="615.7165"/>
    <line x1="478.2297" x2="499.0127" y1="646.0905" y2="658.0895"/>
    <line x1="497.2993" x2="497.2993" y1="657.1003" y2="659.0788"/>
    <line x1="494.9156" x2="494.9156" y1="660.455" y2="655.7241"/>
    <line x1="492.5319" x2="492.5319" y1="654.3478" y2="661.8312"/>
    <line x1="490.1482" x2="490.1482" y1="663.2075" y2="652.9716"/>
    <line x1="487.7645" x2="487.7645" y1="651.5954" y2="664.5837"/>
    <line x1="485.3808" x2="485.3808" y1="665.9599" y2="650.2191"/>
    <line x1="482.9971" x2="482.9971" y1="648.8429" y2="667.3361"/>
    <line x1="480.6134" x2="480.6134" y1="668.7124" y2="647.4667"/>
    <line x1="433.2194" x2="433.2194" y1="595.1393" y2="536.8758"/>
    <line x1="430.7725" x2="430.7725" y1="535.4631" y2="593.7266"/>
    <line x1="428.3256" x2="428.3256" y1="592.3139" y2="534.0504"/>
    <line x1="425.8788" x2="425.8788" y1="532.6377" y2="590.9012"/>
    <line x1="419.0393" x2="419.0393" y1="712.9084" y2="745.2359"/>
    <line x1="414.1471" x2="414.1471" y1="748.0604" y2="715.7329"/>
    <line x1="363.0828" x2="363.0828" y1="722.7966" y2="768.7854"/>
    <line x1="360.6755" x2="360.6755" y1="767.3955" y2="721.4068"/>
    <line x1="353.4536" x2="353.4536" y1="717.2372" y2="763.226"/>
    <line x1="351.0463" x2="351.0463" y1="761.8361" y2="715.8473"/>
    <line x1="333.6542" x2="333.6542" y1="748.3468" y2="780.6743"/>
    <line x1="336.0546" x2="336.0546" y1="782.0602" y2="749.7327"/>
    <line x1="338.455" x2="338.455" y1="751.1186" y2="783.4461"/>
    <line x1="340.8554" x2="340.8554" y1="784.8319" y2="752.5044"/>
    <line x1="341.4171" x2="276.0447" y1="752.8287" y2="715.0859"/>
    <line x1="278.4451" x2="278.4451" y1="716.4718" y2="748.7993"/>
    <line x1="278.2774" x2="278.2774" y1="748.7025" y2="764.1504"/>
    <polyline points="275.9651,762.8154 276.0447,741.385 271.3406,738.6691"/>
    <line x1="273.6529" x2="273.6529" y1="740.0041" y2="761.4804"/>
    <line x1="280.5896" x2="280.5896" y1="765.4854" y2="750.0375"/>
    <line x1="280.8455" x2="280.8455" y1="750.1852" y2="717.8577"/>
    <line x1="283.2459" x2="283.2459" y1="719.2436" y2="751.5711"/>
    <line x1="282.9019" x2="282.9019" y1="751.3724" y2="766.8204"/>
    <line x1="285.2141" x2="285.2141" y1="768.1553" y2="752.7074"/>
    <line x1="285.6463" x2="285.6463" y1="752.9569" y2="720.6294"/>
    <line x1="288.0467" x2="288.0467" y1="722.0153" y2="754.3428"/>
    <line x1="287.5264" x2="287.5264" y1="754.0424" y2="769.4903"/>
    <polyline points="289.8386,770.8253 271.3406,760.1454 271.3406,738.6691 276.0447,735.9532"/>
    <line x1="290.4471" x2="290.4471" y1="723.4012" y2="755.7287"/>
    <polyline points="289.8386,755.3774 289.8386,770.8253 303.2169,763.1013"/>
    <line x1="302.4491" x2="302.4491" y1="762.658" y2="730.3305"/>
    <line x1="304.8495" x2="304.8495" y1="731.7164" y2="764.0439"/>
    <line x1="307.2499" x2="307.2499" y1="765.4297" y2="733.1023"/>
    <line x1="309.6503" x2="309.6503" y1="734.4881" y2="766.8156"/>
    <line x1="312.0506" x2="312.0506" y1="768.2015" y2="735.874"/>
    <line x1="314.451" x2="314.451" y1="737.2599" y2="769.5874"/>
    <line x1="316.8514" x2="316.8514" y1="770.9732" y2="738.6457"/>
    <line x1="319.2518" x2="319.2518" y1="740.0316" y2="772.3591"/>
    <line x1="321.6522" x2="321.6522" y1="773.745" y2="741.4175"/>
    <line x1="324.0526" x2="324.0526" y1="742.8033" y2="775.1308"/>
    <line x1="326.453" x2="326.453" y1="776.5167" y2="744.1892"/>
    <line x1="328.8534" x2="328.8534" y1="745.5751" y2="777.9026"/>
    <line x1="331.2538" x2="331.2538" y1="779.2884" y2="746.9609"/>
    <line x1="300.0487" x2="300.0487" y1="761.2721" y2="728.9446"/>
    <line x1="297.6483" x2="297.6483" y1="727.5588" y2="759.8863"/>
    <line x1="299.3939" x2="299.3939" y1="760.8941" y2="765.3086"/>
    <line x1="294.6163" x2="294.6163" y1="768.0669" y2="758.1357"/>
    <line x1="295.2479" x2="295.2479" y1="758.5004" y2="726.1729"/>
    <line x1="292.8475" x2="292.8475" y1="724.787" y2="757.1145"/>
    <line x1="324.0456" x2="324.0456" y1="814.1639" y2="866.1625"/>
    <line x1="319.1881" x2="319.1881" y1="868.967" y2="816.9684"/>
    <line x1="314.3305" x2="314.3305" y1="819.7729" y2="871.7715"/>
    <line x1="309.473" x2="309.473" y1="874.576" y2="822.5774"/>
    <line x1="304.6154" x2="304.6154" y1="825.3819" y2="877.3805"/>
    <line x1="299.7579" x2="299.7579" y1="880.1851" y2="828.1864"/>
    <line x1="294.9003" x2="294.9003" y1="830.9909" y2="882.9896"/>
    <line x1="290.0427" x2="290.0427" y1="885.7941" y2="833.7954"/>
    <line x1="285.1852" x2="285.1852" y1="836.6" y2="888.5986"/>
    <line x1="280.3276" x2="280.3276" y1="891.4031" y2="839.4045"/>
    <line x1="275.4701" x2="275.4701" y1="842.209" y2="894.2076"/>
    <line x1="270.6125" x2="270.6125" y1="897.0121" y2="845.0135"/>
    <line x1="265.7549" x2="265.7549" y1="847.818" y2="913.5878"/>
    <polyline points="268.9826,911.7243 231.752,933.2194 231.752,867.4496 328.9032,811.3593"/>
    <line x1="356.7222" x2="356.7222" y1="785.7099" y2="854.4725"/>
    <line x1="359.172" x2="359.172" y1="855.8869" y2="787.1242"/>
    <line x1="361.6217" x2="361.6217" y1="788.5386" y2="857.3013"/>
    <line x1="364.0715" x2="364.0715" y1="858.7156" y2="789.953"/>
    <line x1="366.5212" x2="366.5212" y1="791.3673" y2="860.13"/>
    <line x1="368.971" x2="368.971" y1="861.5444" y2="792.7817"/>
    <line x1="371.4208" x2="371.4208" y1="794.1961" y2="862.9587"/>
    <line x1="373.8705" x2="373.8705" y1="864.3731" y2="795.6104"/>
    <line x1="376.3203" x2="376.3203" y1="797.0248" y2="865.7875"/>
    <line x1="378.77" x2="378.77" y1="867.2018" y2="798.4392"/>
    <line x1="381.2198" x2="381.2198" y1="799.8535" y2="868.6162"/>
    <line x1="383.6695" x2="383.6695" y1="870.0306" y2="801.2679"/>
    <line x1="386.1193" x2="386.1193" y1="802.6823" y2="871.4449"/>
    <line x1="386.639" x2="386.639" y1="871.745" y2="885.2543"/>
    <line x1="384.2018" x2="384.2018" y1="883.8472" y2="870.3379"/>
    <line x1="388.569" x2="388.569" y1="872.8593" y2="804.0966"/>
    <line x1="391.0188" x2="391.0188" y1="805.511" y2="874.2737"/>
    <line x1="391.5133" x2="391.5133" y1="874.5592" y2="888.0685"/>
    <line x1="393.9505" x2="393.9505" y1="889.4756" y2="875.9663"/>
    <line x1="393.4686" x2="393.4686" y1="875.6881" y2="806.9254"/>
    <line x1="395.9183" x2="395.9183" y1="808.3398" y2="877.1024"/>
    <line x1="396.3877" x2="396.3877" y1="877.3734" y2="890.8827"/>
    <line x1="398.8248" x2="398.8248" y1="892.2898" y2="878.7805"/>
    <line x1="398.3681" x2="398.3681" y1="878.5168" y2="809.7541"/>
    <line x1="405.7173" x2="420.2892" y1="813.9972" y2="805.5842"/>
    <line x1="415.4319" x2="415.4319" y1="808.3885" y2="877.1512"/>
    <line x1="415.8851" x2="415.8851" y1="876.8895" y2="938.8516"/>
    <line x1="413.4479" x2="413.4479" y1="937.4445" y2="878.2966"/>
    <line x1="411.0107" x2="411.0107" y1="879.7038" y2="936.0374"/>
    <line x1="408.5736" x2="408.5736" y1="934.6303" y2="881.1109"/>
    <line x1="410.5746" x2="410.5746" y1="879.9555" y2="811.1929"/>
    <line x1="387.3483" x2="387.3483" y1="786.5658" y2="777.0133"/>
    <line x1="389.0761" x2="389.0761" y1="873.1521" y2="886.6614"/>
    <line x1="396.5181" x2="396.5181" y1="896.3332" y2="940.5565"/>
    <polyline points="398.1881,939.5923 413.6707,948.5312 413.6707,1003.461 397.7441,1012.6562 397.7441,957.7264 382.1796,948.8348 382.1796,1003.6701 397.7441,1012.6562"/>
    <line x1="395.5206" x2="395.5206" y1="1011.3725" y2="956.4426"/>
    <line x1="393.2971" x2="393.2971" y1="955.1589" y2="1010.0888"/>
    <line x1="391.0736" x2="391.0736" y1="1008.805" y2="953.8752"/>
    <line x1="388.8501" x2="388.8501" y1="952.5914" y2="1007.5213"/>
    <line x1="386.6266" x2="386.6266" y1="1006.2375" y2="951.3077"/>
    <line x1="384.4031" x2="384.4031" y1="950.024" y2="1004.9538"/>
    <line x1="401.7258" x2="401.7258" y1="1010.3574" y2="955.4276"/>
    <line x1="397.7441" x2="413.6707" y1="957.7264" y2="948.5312"/>
    <line x1="409.689" x2="409.689" y1="950.83" y2="1005.7598"/>
    <line x1="405.7074" x2="405.7074" y1="1008.0586" y2="953.1288"/>
    <line x1="391.863" x2="391.863" y1="943.2441" y2="899.0208"/>
    <line x1="387.208" x2="387.208" y1="901.7084" y2="945.9317"/>
    <line x1="382.5529" x2="382.5529" y1="948.6193" y2="904.396"/>
    <line x1="377.8979" x2="377.8979" y1="907.0836" y2="951.3069"/>
    <polyline points="376.1751,951.0426 300.9153,994.4939 300.9153,1103.4359 224.1778,1059.1315 224.1778,950.1895 299.4377,906.7383 376.1751,951.0426 376.1751,1059.9846 300.9153,1103.4359"/>
    <line x1="298.5172" x2="298.5172" y1="1102.0513" y2="993.1094"/>
    <line x1="296.1192" x2="296.1192" y1="991.7249" y2="1100.6668"/>
    <line x1="293.7211" x2="293.7211" y1="1099.2823" y2="990.3404"/>
    <line x1="291.3231" x2="291.3231" y1="988.9559" y2="1097.8978"/>
    <line x1="288.925" x2="288.925" y1="1096.5133" y2="987.5714"/>
    <line x1="286.527" x2="286.527" y1="986.1869" y2="1095.1288"/>
    <line x1="284.1289" x2="284.1289" y1="1093.7443" y2="984.8023"/>
    <line x1="281.7309" x2="281.7309" y1="983.4178" y2="1092.3598"/>
    <line x1="279.3328" x2="279.3328" y1="1090.9752" y2="982.0333"/>
    <line x1="276.9348" x2="276.9348" y1="980.6488" y2="1089.5907"/>
    <line x1="274.5368" x2="274.5368" y1="1088.2062" y2="979.2643"/>
    <line x1="272.1387" x2="272.1387" y1="977.8798" y2="1086.8217"/>
    <line x1="269.7407" x2="269.7407" y1="1085.4372" y2="976.4953"/>
    <line x1="267.3426" x2="267.3426" y1="975.1108" y2="1084.0527"/>
    <line x1="264.9446" x2="264.9446" y1="1082.6682" y2="973.7262"/>
    <line x1="262.5465" x2="262.5465" y1="972.3417" y2="1081.2837"/>
    <line x1="260.1485" x2="260.1485" y1="1079.8992" y2="970.9572"/>
    <line x1="257.7504" x2="257.7504" y1="969.5727" y2="1078.5146"/>
    <line x1="255.3524" x2="255.3524" y1="1077.1301" y2="968.1882"/>
    <line x1="252.9544" x2="252.9544" y1="966.8037" y2="1075.7456"/>
    <line x1="250.5563" x2="250.5563" y1="1074.3611" y2="965.4192"/>
    <line x1="248.1583" x2="248.1583" y1="964.0347" y2="1072.9766"/>
    <line x1="245.7602" x2="245.7602" y1="1071.5921" y2="962.6502"/>
    <line x1="243.3622" x2="243.3622" y1="961.2656" y2="1070.2076"/>
    <line x1="240.9641" x2="240.9641" y1="1068.8231" y2="959.8811"/>
    <line x1="238.5661" x2="238.5661" y1="958.4966" y2="1067.4385"/>
    <line x1="236.168" x2="236.168" y1="1066.054" y2="957.1121"/>
    <line x1="233.77" x2="233.77" y1="955.7276" y2="1064.6695"/>
    <line x1="231.372" x2="231.372" y1="1063.285" y2="954.3431"/>
    <line x1="228.9739" x2="228.9739" y1="952.9586" y2="1061.9005"/>
    <line x1="226.5759" x2="226.5759" y1="1060.516" y2="951.5741"/>
    <line x1="224.1778" x2="300.9153" y1="950.1895" y2="994.4939"/>
    <line x1="305.619" x2="305.619" y1="991.7782" y2="1100.7201"/>
    <line x1="310.3227" x2="310.3227" y1="1098.0044" y2="989.0625"/>
    <line x1="315.0265" x2="315.0265" y1="986.3468" y2="1095.2887"/>
    <line x1="319.7302" x2="319.7302" y1="1092.573" y2="983.6311"/>
    <line x1="324.434" x2="324.434" y1="980.9154" y2="1089.8573"/>
    <line x1="329.1377" x2="329.1377" y1="1087.1416" y2="978.1997"/>
    <line x1="333.8414" x2="333.8414" y1="975.484" y2="1084.4259"/>
    <line x1="338.5452" x2="338.5452" y1="1081.7102" y2="972.7683"/>
    <line x1="343.2489" x2="343.2489" y1="970.0526" y2="1078.9945"/>
    <line x1="347.9526" x2="347.9526" y1="1076.2788" y2="967.3369"/>
    <line x1="352.6564" x2="352.6564" y1="964.6212" y2="1073.5631"/>
    <line x1="357.3601" x2="357.3601" y1="1070.8474" y2="961.9055"/>
    <line x1="362.0639" x2="362.0639" y1="959.1898" y2="1068.1317"/>
    <line x1="366.7676" x2="366.7676" y1="1065.416" y2="956.474"/>
    <line x1="371.4713" x2="371.4713" y1="953.7583" y2="1062.7003"/>
    <polyline points="376.1751,952.3015 401.1731,937.8689 401.1731,893.6456 338.8083,857.6393 268.9826,897.9532 268.9826,924.3215"/>
    <line x1="271.3812" x2="271.3812" y1="922.9366" y2="899.338"/>
    <line x1="273.7799" x2="273.7799" y1="900.7229" y2="921.5518"/>
    <line x1="276.1785" x2="276.1785" y1="920.1669" y2="902.1078"/>
    <line x1="278.5772" x2="278.5772" y1="903.4926" y2="918.7821"/>
    <line x1="280.9758" x2="280.9758" y1="917.3972" y2="904.8775"/>
    <line x1="283.3745" x2="283.3745" y1="906.2623" y2="916.0124"/>
    <line x1="285.7731" x2="285.7731" y1="914.6275" y2="907.6472"/>
    <line x1="288.1717" x2="288.1717" y1="909.032" y2="913.2426"/>
    <line x1="290.5704" x2="290.5704" y1="911.8578" y2="910.4169"/>
    <line x1="291.8182" x2="268.9826" y1="911.1373" y2="897.9532"/>
    <line x1="260.8974" x2="260.8974" y1="916.3923" y2="850.6225"/>
    <line x1="256.0398" x2="256.0398" y1="853.427" y2="919.1968"/>
    <line x1="251.1823" x2="251.1823" y1="922.0013" y2="856.2315"/>
    <line x1="246.3247" x2="246.3247" y1="859.0361" y2="924.8059"/>
    <line x1="241.4672" x2="241.4672" y1="927.6104" y2="861.8406"/>
    <line x1="236.6096" x2="236.6096" y1="864.6451" y2="930.4149"/>
    <polyline points="231.752,933.2194 170.026,897.5818 170.026,831.812 267.1771,775.7218 328.9032,811.3593 328.9032,863.358"/>
    <line x1="359.2777" x2="359.2777" y1="917.8339" y2="941.2869"/>
    <line x1="354.6226" x2="354.6226" y1="938.5993" y2="920.5215"/>
    <line x1="349.9676" x2="349.9676" y1="923.2091" y2="935.9117"/>
    <line x1="345.3125" x2="345.3125" y1="933.2241" y2="925.8967"/>
    <line x1="340.6575" x2="340.6575" y1="928.5843" y2="930.5365"/>
    <line x1="338.9668" x2="401.1731" y1="929.5604" y2="893.6456"/>
    <line x1="418.3223" x2="418.3223" y1="875.4824" y2="940.2587"/>
    <line x1="373.2428" x2="373.2428" y1="949.3497" y2="909.7712"/>
    <line x1="368.5878" x2="368.5878" y1="912.4587" y2="946.6621"/>
    <line x1="363.9327" x2="363.9327" y1="943.9745" y2="915.1463"/>
    <line x1="229.378" x2="229.378" y1="931.8487" y2="866.0789"/>
    <line x1="231.752" x2="170.026" y1="867.4496" y2="831.812"/>
    <line x1="172.4001" x2="172.4001" y1="833.1827" y2="898.9525"/>
    <line x1="174.7741" x2="174.7741" y1="900.3232" y2="834.5534"/>
    <line x1="177.1482" x2="177.1482" y1="835.9241" y2="901.6939"/>
    <line x1="179.5223" x2="179.5223" y1="903.0645" y2="837.2947"/>
    <line x1="181.8964" x2="181.8964" y1="838.6654" y2="904.4352"/>
    <line x1="184.2705" x2="184.2705" y1="905.8059" y2="840.0361"/>
    <line x1="186.6445" x2="186.6445" y1="841.4068" y2="907.1766"/>
    <line x1="189.0186" x2="189.0186" y1="908.5472" y2="842.7774"/>
    <line x1="191.3927" x2="191.3927" y1="844.1481" y2="909.9179"/>
    <line x1="193.7668" x2="193.7668" y1="911.2886" y2="845.5188"/>
    <line x1="196.1409" x2="196.1409" y1="846.8895" y2="912.6593"/>
    <line x1="198.5149" x2="198.5149" y1="914.0299" y2="848.2601"/>
    <line x1="200.889" x2="200.889" y1="849.6308" y2="915.4006"/>
    <line x1="203.2631" x2="203.2631" y1="916.7713" y2="851.0015"/>
    <line x1="205.6372" x2="205.6372" y1="852.3722" y2="918.142"/>
    <line x1="208.0113" x2="208.0113" y1="919.5126" y2="853.7428"/>
    <line x1="210.3853" x2="210.3853" y1="855.1135" y2="920.8833"/>
    <line x1="212.7594" x2="212.7594" y1="922.254" y2="856.4842"/>
    <line x1="215.1335" x2="215.1335" y1="857.8549" y2="923.6247"/>
    <line x1="217.5076" x2="217.5076" y1="924.9953" y2="859.2255"/>
    <line x1="219.8816" x2="219.8816" y1="860.5962" y2="926.366"/>
    <line x1="222.2557" x2="222.2557" y1="927.7367" y2="861.9669"/>
    <line x1="224.6298" x2="224.6298" y1="863.3376" y2="929.1074"/>
    <line x1="227.0039" x2="227.0039" y1="930.478" y2="864.7082"/>
    <polyline points="165.6483,854.0792 151.9351,861.9965 151.9351,890.9087 106.2855,864.5529 106.2855,835.6407 119.9987,827.7234 165.6483,854.0792 165.6483,882.9915 151.9351,890.9087"/>
    <line x1="149.5325" x2="149.5325" y1="889.5216" y2="860.6094"/>
    <line x1="147.1299" x2="147.1299" y1="859.2222" y2="888.1344"/>
    <line x1="144.7273" x2="144.7273" y1="886.7473" y2="857.8351"/>
    <line x1="142.3247" x2="142.3247" y1="856.4479" y2="885.3601"/>
    <line x1="139.9221" x2="139.9221" y1="883.973" y2="855.0608"/>
    <line x1="137.5195" x2="137.5195" y1="853.6736" y2="882.5859"/>
    <line x1="135.1169" x2="135.1169" y1="881.1987" y2="852.2865"/>
    <line x1="132.7143" x2="132.7143" y1="850.8993" y2="879.8116"/>
    <line x1="130.3117" x2="130.3117" y1="878.4244" y2="849.5122"/>
    <line x1="127.909" x2="127.909" y1="848.125" y2="877.0373"/>
    <line x1="125.5064" x2="125.5064" y1="875.6501" y2="846.7379"/>
    <line x1="123.1038" x2="123.1038" y1="845.3507" y2="874.263"/>
    <line x1="120.7012" x2="120.7012" y1="872.8758" y2="843.9636"/>
    <line x1="118.2986" x2="118.2986" y1="842.5764" y2="871.4887"/>
    <line x1="115.896" x2="115.896" y1="870.1015" y2="841.1893"/>
    <line x1="113.4934" x2="113.4934" y1="839.8021" y2="868.7144"/>
    <line x1="111.0908" x2="111.0908" y1="867.3272" y2="838.415"/>
    <line x1="108.6882" x2="108.6882" y1="837.0278" y2="865.9401"/>
    <line x1="106.2855" x2="151.9351" y1="835.6407" y2="861.9965"/>
    <line x1="156.5062" x2="156.5062" y1="859.3574" y2="888.2696"/>
    <line x1="161.0772" x2="161.0772" y1="885.6306" y2="856.7183"/>
    <polyline points="198.6939,734.1494 222.2393,720.5555 222.2393,612.3424 193.2699,595.6169 169.7245,609.2109 169.7245,717.424 198.6939,734.1494 198.6939,625.9364 222.2393,612.3424"/>
    <line x1="222.2393" x2="233.0263" y1="614.6073" y2="608.3794"/>
    <line x1="228.8508" x2="228.8508" y1="610.7902" y2="696.7693"/>
    <line x1="224.6752" x2="224.6752" y1="699.18" y2="613.2009"/>
    <line x1="217.5303" x2="217.5303" y1="615.0612" y2="723.2743"/>
    <line x1="212.8212" x2="212.8212" y1="725.9931" y2="617.78"/>
    <line x1="208.1121" x2="208.1121" y1="620.4988" y2="728.7119"/>
    <line x1="203.403" x2="203.403" y1="731.4306" y2="623.2176"/>
    <line x1="198.6939" x2="169.7245" y1="625.9364" y2="609.2109"/>
    <line x1="170.5638" x2="170.5638" y1="608.7263" y2="601.2455"/>
    <line x1="172.9019" x2="172.9019" y1="602.5954" y2="607.3764"/>
    <line x1="175.24" x2="175.24" y1="606.0265" y2="603.9453"/>
    <line x1="177.0424" x2="163.5496" y1="604.9859" y2="597.1958"/>
    <line x1="165.8876" x2="165.8876" y1="598.5457" y2="684.5249"/>
    <line x1="168.2257" x2="168.2257" y1="685.8748" y2="599.8956"/>
    <line x1="172.1386" x2="172.1386" y1="610.6047" y2="718.8177"/>
    <line x1="174.5527" x2="174.5527" y1="720.2115" y2="611.9985"/>
    <line x1="176.9669" x2="176.9669" y1="613.3923" y2="721.6053"/>
    <line x1="179.381" x2="179.381" y1="722.9991" y2="614.7861"/>
    <line x1="181.7951" x2="181.7951" y1="616.1799" y2="724.3929"/>
    <line x1="184.2092" x2="184.2092" y1="725.7867" y2="617.5737"/>
    <line x1="186.6233" x2="186.6233" y1="618.9674" y2="727.1805"/>
    <line x1="189.0374" x2="189.0374" y1="728.5743" y2="620.3612"/>
    <line x1="191.4516" x2="191.4516" y1="621.755" y2="729.9681"/>
    <line x1="193.8657" x2="193.8657" y1="731.3619" y2="623.1488"/>
    <line x1="196.2798" x2="196.2798" y1="624.5426" y2="732.7557"/>
    <polyline points="222.2393,700.5864 233.0263,694.3586 233.0263,608.3794 188.6026,582.7314 163.5496,597.1958 163.5496,683.175 169.7245,686.7401"/>
    <polyline points="152.4606,443.0141 172.0336,431.7136 172.0336,319.7047 111.4647,284.7352 91.8917,296.0357 91.8917,408.0446 152.4606,443.0141 152.4606,331.0052 91.8917,296.0357"/>
    <line x1="94.3144" x2="94.3144" y1="297.4345" y2="409.4434"/>
    <line x1="96.7372" x2="96.7372" y1="410.8422" y2="394.0562"/>
    <line x1="98.0316" x2="98.0316" y1="394.8035" y2="331.1057"/>
    <line x1="96.7372" x2="96.7372" y1="329.238" y2="298.8333"/>
    <line x1="99.1599" x2="99.1599" y1="300.232" y2="327.8392"/>
    <line x1="101.5827" x2="101.5827" y1="326.4404" y2="301.6308"/>
    <line x1="104.0054" x2="104.0054" y1="303.0296" y2="325.0416"/>
    <line x1="106.4282" x2="106.4282" y1="323.6428" y2="304.4284"/>
    <line x1="108.851" x2="108.851" y1="305.8272" y2="324.4289"/>
    <line x1="111.2737" x2="111.2737" y1="325.8277" y2="307.2259"/>
    <line x1="113.6965" x2="113.6965" y1="308.6247" y2="327.2265"/>
    <line x1="116.1192" x2="116.1192" y1="328.6252" y2="310.0235"/>
    <line x1="118.542" x2="118.542" y1="311.4223" y2="330.024"/>
    <line x1="120.9647" x2="120.9647" y1="331.4228" y2="312.8211"/>
    <line x1="123.3875" x2="123.3875" y1="314.2198" y2="332.8216"/>
    <line x1="125.8102" x2="125.8102" y1="334.2204" y2="315.6186"/>
    <line x1="128.233" x2="128.233" y1="317.0174" y2="335.6191"/>
    <line x1="130.6558" x2="130.6558" y1="337.0179" y2="318.4162"/>
    <line x1="133.0785" x2="133.0785" y1="319.8149" y2="338.4167"/>
    <line x1="134.1357" x2="122.9437" y1="339.0271" y2="345.4887"/>
    <line x1="120.679" x2="120.679" y1="344.1812" y2="407.879"/>
    <line x1="120.9647" x2="120.9647" y1="408.044" y2="424.83"/>
    <line x1="118.542" x2="118.4143" y1="423.4312" y2="342.8736"/>
    <line x1="116.1495" x2="116.1192" y1="341.5661" y2="422.0324"/>
    <line x1="113.6965" x2="113.6965" y1="420.6337" y2="403.8477"/>
    <line x1="113.8848" x2="113.8848" y1="403.9564" y2="340.2585"/>
    <line x1="111.62" x2="111.62" y1="338.951" y2="402.6488"/>
    <line x1="111.2737" x2="111.2737" y1="402.4489" y2="419.2349"/>
    <line x1="108.851" x2="108.851" y1="417.8361" y2="401.0501"/>
    <line x1="109.3553" x2="109.3553" y1="401.3413" y2="337.6435"/>
    <line x1="107.0906" x2="107.0906" y1="336.3359" y2="400.0337"/>
    <line x1="106.4282" x2="106.4282" y1="399.6513" y2="416.4373"/>
    <line x1="104.0054" x2="104.0054" y1="415.0385" y2="398.2525"/>
    <line x1="104.8258" x2="104.8258" y1="398.7262" y2="335.0284"/>
    <line x1="102.5611" x2="102.5611" y1="333.7208" y2="397.4186"/>
    <line x1="101.5827" x2="101.5827" y1="396.8538" y2="413.6398"/>
    <line x1="99.1599" x2="99.1599" y1="412.241" y2="395.455"/>
    <line x1="100.2963" x2="100.2963" y1="396.1111" y2="332.4133"/>
    <polyline points="95.7669,329.7982 122.9437,345.4887 122.9437,409.1866 95.7669,393.496 95.7669,329.7982 106.9588,323.3365 134.1357,339.0271 134.1357,402.7249 122.9437,409.1866"/>
    <line x1="123.3875" x2="123.3875" y1="408.9304" y2="426.2288"/>
    <line x1="125.8102" x2="125.8102" y1="427.6275" y2="407.5316"/>
    <line x1="126.6744" x2="126.6744" y1="407.0327" y2="343.3348"/>
    <line x1="130.405" x2="130.405" y1="341.181" y2="404.8788"/>
    <line x1="130.6558" x2="130.6558" y1="404.734" y2="430.4251"/>
    <line x1="133.0785" x2="133.0785" y1="431.8239" y2="403.3352"/>
    <line x1="128.233" x2="128.233" y1="406.1328" y2="429.0263"/>
    <line x1="135.5013" x2="135.5013" y1="433.2227" y2="321.2137"/>
    <line x1="137.924" x2="137.924" y1="322.6125" y2="434.6214"/>
    <line x1="140.3468" x2="140.3468" y1="436.0202" y2="324.0113"/>
    <line x1="142.7695" x2="142.7695" y1="325.4101" y2="437.419"/>
    <line x1="145.1923" x2="145.1923" y1="438.8178" y2="326.8088"/>
    <line x1="147.6151" x2="147.6151" y1="328.2076" y2="440.2166"/>
    <line x1="150.0378" x2="150.0378" y1="441.6153" y2="329.6064"/>
    <line x1="152.4606" x2="172.0336" y1="331.0052" y2="319.7047"/>
    <line x1="167.1404" x2="167.1404" y1="322.5298" y2="434.5387"/>
    <line x1="162.2471" x2="162.2471" y1="437.3639" y2="325.3549"/>
    <line x1="157.3538" x2="157.3538" y1="328.1801" y2="440.189"/>
    <line x1="394.2621" x2="395.7738" y1="397.0965" y2="396.2237"/>
    <line x1="400.6557" x2="400.6557" y1="428.504" y2="351.7091"/>
    <line x1="405.5377" x2="405.5377" y1="348.8905" y2="431.3226"/>
  </g>
</svg>
