<?xml version="1.0" encoding="utf-8" ?>
<svg xmlns="http://www.w3.org/2000/svg" xmlns:cc="http://creativecommons.org/ns#" xmlns:dc="http://purl.org/dc/elements/1.1/" xmlns:ev="http://www.w3.org/2001/xml-events" xmlns:inkscape="http://www.inkscape.org/namespaces/inkscape" xmlns:rdf="http://www.w3.org/1999/02/22-rdf-syntax-ns#" xmlns:sodipodi="http://sodipodi.sourceforge.net/DTD/sodipodi-0.dtd" xmlns:xlink="http://www.w3.org/1999/xlink" baseProfile="tiny" height="29.7cm" version="1.2" viewBox="0 0 793.7007874015749 1122.5196850393702" width="21.0cm">
  <metadata>
    <rdf:RDF>
      <cc:Work>
        <dc:format>image/svg+xml</dc:format>
        <dc:source/>
        <dc:date>2021-12-10T22:43:16.132896</dc:date>
      </cc:Work>
    </rdf:RDF>
  </metadata>
  <defs/>
  <g fill="none" id="layer1" inkscape:groupmode="layer" inkscape:label="1" stroke="#00f" style="display:inline">
    <polyline points="305.6576,559.8502 313.3755,555.3943 313.3755,518.1236 315.7837,519.6031 315.7837,547.8165 313.3755,549.2069"/>
    <polyline points="311.8682,556.2646 337.4673,571.0442 337.4673,613.9131 323.6588,621.8854"/>
    <polyline points="323.6588,610.4986 323.6722,570.2509 290.8841,551.3207 279.189,558.0729 279.189,587.6235"/>
    <line x1="273.5125" x2="273.5125" y1="590.9009" y2="576.0745"/>
    <line x1="274.4253" x2="279.189" y1="575.5474" y2="578.2978"/>
    <line x1="277.6785" x2="279.189" y1="572.6151" y2="571.743"/>
    <line x1="279.189" x2="262.615" y1="565.7903" y2="556.2213"/>
    <polyline points="269.4553,560.1705 269.4553,580.7977 241.1934,597.1147 241.1934,568.589"/>
    <line x1="230.7552" x2="195.8823" y1="577.4165" y2="597.5503"/>
    <polyline points="195.8823,614.2248 230.7552,594.0909 230.7552,577.4165 200.1575,559.7509 165.2846,579.8847 165.2846,596.5592 195.8823,614.2248 195.8823,597.5503 165.2846,579.8847"/>
    <line x1="195.9914" x2="195.9914" y1="562.1561" y2="557.0511"/>
    <polyline points="190.6626,543.0458 190.6626,553.9745 228.5845,575.8688"/>
    <line x1="218.9425" x2="218.9425" y1="570.5964" y2="570.3019"/>
    <polyline points="226.5363,563.7575 244.2199,553.5479 244.2199,541.0872 202.1356,516.7898 184.452,526.9995 184.452,539.4601 226.5363,563.7575 226.5363,551.2969 244.2199,541.0872"/>
    <polyline points="228.5845,532.0601 228.5845,524.93 267.7706,502.3058"/>
    <polyline points="260.9488,493.7013 260.9488,452.3706 302.2148,428.5457 347.8022,454.8655 347.8022,498.2474 306.5362,522.0723 306.5362,478.6905 347.8022,454.8655"/>
    <line x1="347.8022" x2="363.2065" y1="458.3435" y2="467.2372"/>
    <line x1="363.2065" x2="399.1788" y1="463.2272" y2="483.9958"/>
    <polyline points="411.5327,480.1131 413.3284,479.0763 454.0835,502.6063 454.0835,543.6617"/>
    <line x1="454.0835" x2="460.0702" y1="536.6397" y2="533.1833"/>
    <line x1="460.0702" x2="454.0835" y1="531.4769" y2="534.9333"/>
    <line x1="454.0835" x2="460.0702" y1="516.5679" y2="513.1115"/>
    <line x1="460.0702" x2="473.6598" y1="511.4192" y2="519.2652"/>
    <line x1="464.8187" x2="464.7132" y1="508.6777" y2="497.594"/>
    <polyline points="466.4151,498.5766 495.3698,481.8596 495.3698,443.2184 462.6366,424.3198 433.6818,441.0368 433.6818,479.6781 466.4151,498.5766 466.4151,459.9354 495.3698,443.2184"/>
    <polyline points="489.7309,439.9628 502.4138,432.6403 525.0708,445.7213"/>
    <polyline points="539.1212,440.7912 554.4162,431.9606 560.5514,435.5028"/>
    <line x1="557.3115" x2="583.4519" y1="450.7127" y2="435.6206"/>
    <polyline points="583.4519,438.4079 589.8615,442.1085 589.8615,473.0959 574.8592,481.7574 574.8592,477.7537"/>
    <line x1="574.8592" x2="571.3919" y1="481.7574" y2="479.7556"/>
    <polyline points="562.7118,484.767 562.7118,490.8988 530.1018,509.7262 530.1018,473.2387 503.7555,458.0277"/>
    <line x1="503.7555" x2="501.2271" y1="474.0284" y2="475.4881"/>
    <polyline points="495.3698,472.1064 501.2271,475.4881 501.2271,493.9071"/>
    <polyline points="509.4042,498.6282 473.6598,519.2652 473.6598,554.3968 460.0702,546.5508 460.0702,511.4192 495.8146,490.7822 509.4042,498.6282 509.4042,533.7597 473.6598,554.3968"/>
    <line x1="469.079" x2="466.7413" y1="551.752" y2="553.1017"/>
    <line x1="466.7413" x2="454.6413" y1="550.9696" y2="557.9555"/>
    <polyline points="426.3164,561.8999 408.4949,572.1891 408.4949,528.9269 367.7398,505.3969"/>
    <polyline points="373.8091,501.8928 348.178,487.0947 347.8022,487.3117"/>
    <polyline points="333.0901,506.7414 360.6829,522.6721 360.6829,544.6501 367.7398,540.5757"/>
    <polyline points="360.6829,544.6501 323.6195,523.2515 323.6195,512.2092"/>
    <line x1="315.7837" x2="313.3755" y1="519.6031" y2="520.9935"/>
    <line x1="306.5362" x2="286.6421" y1="522.0723" y2="510.5864"/>
    <line x1="286.6421" x2="267.7706" y1="508.5353" y2="519.4307"/>
    <line x1="286.6421" x2="287.2791" y1="531.2439" y2="531.6116"/>
    <polyline points="305.1689,521.2829 287.2791,531.6116 287.2791,553.4021"/>
    <polyline points="279.189,558.0729 311.9771,577.0031 311.9771,588.4821"/>
    <line x1="311.9771" x2="323.6722" y1="577.0031" y2="570.2509"/>
    <line x1="323.6722" x2="337.4673" y1="579.0088" y2="571.0442"/>
    <line x1="340.4339" x2="376.2767" y1="569.0523" y2="589.7462"/>
    <polyline points="376.2767,598.3032 355.4322,610.3378 355.4322,627.5715 363.4586,632.2055"/>
    <line x1="378.3834" x2="355.4322" y1="623.5887" y2="610.3378"/>
    <polyline points="359.7423,607.8493 340.4339,596.7016 340.4339,569.0523 348.7454,564.2537 376.2767,580.1489"/>
    <polyline points="376.2767,564.3786 419.0683,589.0844 419.0683,631.9927 452.3317,612.788"/>
    <polyline points="454.6413,614.1215 466.7413,607.1356 466.7413,550.9696 438.4163,534.6162 426.3164,541.6021 426.3164,597.7681 454.6413,614.1215 454.6413,557.9555 426.3164,541.6021"/>
    <line x1="408.4949" x2="454.0835" y1="528.9269" y2="502.6063"/>
    <polyline points="460.5879,495.2123 460.5879,507.7375 463.5175,509.4289"/>
    <line x1="434.8433" x2="425.1878" y1="480.3487" y2="485.9233"/>
    <line x1="422.6813" x2="433.6818" y1="484.4762" y2="478.1251"/>
    <polyline points="412.825,479.3669 412.825,467.0515 433.6818,455.0098"/>
    <line x1="433.6818" x2="466.4151" y1="441.0368" y2="459.9354"/>
    <polyline points="438.2042,438.4259 427.2152,432.0814 392.0371,452.3914"/>
    <line x1="401.5885" x2="390.1429" y1="457.9059" y2="464.514"/>
    <line x1="401.5885" x2="412.825" y1="460.564" y2="467.0515"/>
    <polyline points="411.5327,476.8633 399.1788,483.9958 399.1788,498.8483 363.2065,478.0797 363.2065,463.2272 375.5603,456.0947 411.5327,476.8633 411.5327,491.7158 399.1788,498.8483"/>
    <polyline points="389.1305,493.0469 367.7398,505.3969 367.7398,548.6592 408.4949,572.1891"/>
    <line x1="419.0683" x2="426.3164" y1="589.0844" y2="584.8997"/>
    <polyline points="466.7413,590.8015 490.494,577.0878 490.494,544.6775"/>
    <line x1="493.1102" x2="521.7937" y1="543.1671" y2="559.7275"/>
    <polyline points="536.5646,550.1576 543.2327,546.3078 575.7125,565.06 575.7125,578.9624 549.0965,594.3291 549.0965,580.4268 575.7125,565.06"/>
    <polyline points="573.8318,563.9742 607.573,544.4938 607.573,521.1618 594.6674,513.7108 558.5007,534.5917 558.5007,555.1228"/>
    <polyline points="571.4063,562.5738 571.4063,542.0427 607.573,521.1618"/>
    <line x1="571.4063" x2="558.5007" y1="542.0427" y2="534.5917"/>
    <polyline points="537.4669,550.6786 521.7937,559.7275 521.7937,600.1995 537.4669,591.1506 537.4669,550.6786 508.7834,534.1181"/>
    <polyline points="509.4042,524.9771 538.9278,507.9316 538.9278,504.6305"/>
    <polyline points="530.1018,509.7262 503.7555,494.5151 503.7555,458.0277 536.3655,439.2003 545.7593,444.6237"/>
    <polyline points="545.7593,444.0431 557.3115,450.7127 557.3115,487.8849 545.7593,481.2152 545.7593,444.0431 571.8996,428.9509 583.4519,435.6206 583.4519,472.7927 557.3115,487.8849"/>
    <line x1="545.7593" x2="530.1018" y1="464.1988" y2="473.2387"/>
    <line x1="583.4519" x2="589.8615" y1="445.8091" y2="442.1085"/>
    <polyline points="600.7155,405.9799 634.7866,386.3089 634.7866,369.2828 618.6279,359.9536 584.5568,379.6245 584.5568,396.6507 600.7155,405.9799 600.7155,388.9538 584.5568,379.6245"/>
    <line x1="600.7155" x2="634.7866" y1="388.9538" y2="369.2828"/>
    <polyline points="621.9727,283.861 668.3696,257.0737 668.3696,241.2846 652.2792,231.9948 605.8823,258.782 605.8823,274.5712 621.9727,283.861 621.9727,268.0718 668.3696,241.2846"/>
    <line x1="621.9727" x2="605.8823" y1="268.0718" y2="258.782"/>
    <polyline points="598.2009,232.4567 642.3382,206.974 642.3382,172.129 633.7275,167.1576 589.5903,192.6403 589.5903,227.4853 598.2009,232.4567 598.2009,197.6117 589.5903,192.6403"/>
    <line x1="598.2009" x2="642.3382" y1="197.6117" y2="172.129"/>
    <line x1="551.6126" x2="543.4262" y1="200.428" y2="205.1545"/>
    <polyline points="551.6126,233.6395 574.5705,246.8942 574.5705,289.5483 563.5375,295.9182 563.5375,253.2641 574.5705,246.8942"/>
    <line x1="563.5375" x2="551.6126" y1="253.2641" y2="246.3793"/>
    <polyline points="543.4262,261.0731 551.6126,256.3466 551.6126,200.428 521.8871,183.266 513.7007,187.9925 513.7007,243.9111 543.4262,261.0731 543.4262,205.1545 513.7007,187.9925"/>
    <polyline points="513.7007,204.9366 500.3374,197.2213 461.4149,219.6932 461.4149,263.1841 468.0467,267.0129"/>
    <polyline points="468.0467,272.1257 455.226,279.5277 455.226,296.5361 468.0467,303.9381"/>
    <polyline points="463.1685,301.1217 463.1685,314.8438 425.0085,336.8755"/>
    <polyline points="425.0085,353.2083 425.0085,316.5371 413.8095,310.0713 368.7262,336.1002 368.7262,392.7003 379.9252,399.166"/>
    <polyline points="380.825,398.6465 379.9252,399.166 379.9252,342.5659 368.7262,336.1002"/>
    <polyline points="376.2801,331.7389 376.2801,325.7191 387.2883,319.3635 392.5017,322.3734"/>
    <polyline points="385.9472,320.1378 371.2515,311.6532 371.2515,270.3264 414.4469,245.3875 463.1685,273.5169 463.1685,274.9421"/>
    <polyline points="463.1685,273.5169 419.9731,298.4558 419.9731,313.6299"/>
    <line x1="425.0085" x2="379.9252" y1="316.5371" y2="342.5659"/>
    <line x1="381.4935" x2="376.2801" y1="328.729" y2="325.7191"/>
    <polyline points="383.2947,318.6063 351.7611,336.8122 351.7611,296.0998 317.5681,276.3585"/>
    <polyline points="312.9242,282.1653 312.9242,259.8568 342.1553,242.9803"/>
    <line x1="340.7715" x2="358.6641" y1="232.7358" y2="243.0661"/>
    <polyline points="342.1553,262.163 342.1553,242.9803 332.5914,237.4586"/>
    <polyline points="329.2111,239.4102 350.7676,226.9646 350.7676,181.4324 334.8525,172.2439 313.2961,184.6895 313.2961,230.2217 329.2111,239.4102 329.2111,193.878 313.2961,184.6895"/>
    <polyline points="314.0046,184.2804 314.0046,181.8513 341.3915,166.0395 386.051,191.8236 386.051,227.2543 358.6641,243.0661 358.6641,207.6354 386.051,191.8236"/>
    <line x1="413.2951" x2="425.5094" y1="184.4624" y2="191.5143"/>
    <polyline points="425.5094,210.7221 425.5094,191.5143 458.9412,172.2124"/>
    <polyline points="447.7929,160.2648 485.8318,138.3031 485.8318,115.3021 458.9602,99.7877 420.9213,121.7495 420.9213,144.7505 447.7929,160.2648 447.7929,137.2638 485.8318,115.3021"/>
    <line x1="447.7929" x2="420.9213" y1="137.2638" y2="121.7495"/>
    <polyline points="443.2036,210.8036 421.5862,223.2844 421.5862,240.3745"/>
    <polyline points="425.8134,242.815 443.2036,232.7748 443.2036,210.8036 434.286,205.655 412.6685,218.1358 412.6685,235.2581"/>
    <line x1="421.5862" x2="412.6685" y1="223.2844" y2="218.1358"/>
    <polyline points="414.6068,217.0167 413.2951,216.2594 413.2951,184.4624 446.7269,165.1605 458.9412,172.2124 458.9412,204.0095 443.2036,213.0956"/>
    <polyline points="461.4149,219.6932 493.6713,238.3165 493.6713,244.5943"/>
    <line x1="493.6713" x2="513.7007" y1="238.3165" y2="226.7525"/>
    <polyline points="530.0569,253.3543 530.0569,276.5881 563.5375,295.9182"/>
    <polyline points="565.6692,300.4419 529.6411,321.2428 529.6411,356.5019 565.6692,335.7011 565.6692,300.4419 551.9203,292.504 527.2416,306.7523"/>
    <line x1="517.6046" x2="529.6411" y1="314.2935" y2="321.2428"/>
    <polyline points="515.8922,315.2821 515.8922,348.564 529.6411,356.5019"/>
    <polyline points="494.8378,327.4379 527.2416,308.7295 527.2416,256.1483 500.4504,240.6804 468.0467,259.3887 468.0467,311.97 494.8378,327.4379 494.8378,274.8566 468.0467,259.3887"/>
    <line x1="459.5115" x2="451.6005" y1="262.2707" y2="266.8381"/>
    <polyline points="459.5115,271.4055 459.5115,262.2707 412.6964,235.242 383.8954,251.8702 383.8954,263.0264"/>
    <polyline points="383.8954,258.5321 366.1699,248.2982 317.5681,276.3585 317.5681,284.8465"/>
    <line x1="327.1261" x2="291.8157" y1="290.3648" y2="310.7513"/>
    <polyline points="291.8157,329.9303 327.1261,309.5439 327.1261,290.3648 296.3304,272.5849 261.0201,292.9714 261.0201,312.1504 291.8157,329.9303 291.8157,310.7513 261.0201,292.9714"/>
    <polyline points="275.3423,284.7024 270.846,282.1065 270.846,235.563 300.0771,218.6864 313.2961,226.3184"/>
    <line x1="312.9242" x2="270.846" y1="259.8568" y2="235.563"/>
    <polyline points="223.2594,226.3263 223.2594,239.5376 176.5196,266.5228 176.5196,232.7525"/>
    <line x1="194.3242" x2="167.8611" y1="224.0139" y2="208.7354"/>
    <line x1="167.8611" x2="149.6647" y1="209.1507" y2="198.645"/>
    <polyline points="149.6647,187.6413 121.5882,203.8512 121.5882,236.9449 112.4461,231.6666 112.4461,198.573 140.5226,182.3631 149.6647,187.6413 149.6647,220.7349 121.5882,236.9449"/>
    <polyline points="137.9663,227.489 137.9663,244.264 176.5196,266.5228"/>
    <polyline points="194.3242,243.032 224.1554,225.8089 224.1554,206.7908 197.6923,191.5123 167.8611,208.7354 167.8611,227.7535 194.3242,243.032 194.3242,224.0139 224.1554,206.7908"/>
    <polyline points="223.2594,206.2735 223.2594,187.1644 184.7061,164.9056 147.4957,186.389"/>
    <line x1="121.5882" x2="112.4461" y1="203.8512" y2="198.573"/>
    <line x1="206.7105" x2="223.2594" y1="196.719" y2="187.1644"/>
    <line x1="314.0046" x2="316.1083" y1="181.8513" y2="183.0658"/>
    <line x1="329.2111" x2="350.7676" y1="193.878" y2="181.4324"/>
    <line x1="350.7676" x2="358.6641" y1="203.0764" y2="207.6354"/>
    <line x1="383.8954" x2="393.557" y1="251.8702" y2="257.4483"/>
    <line x1="371.2515" x2="419.9731" y1="270.3264" y2="298.4558"/>
    <line x1="455.226" x2="468.0467" y1="279.5277" y2="286.9297"/>
    <line x1="494.8378" x2="527.2416" y1="274.8566" y2="256.1483"/>
    <line x1="530.0569" x2="527.2416" y1="260.8002" y2="262.4256"/>
    <line x1="432.3117" x2="394.5112" y1="357.4248" y2="379.2489"/>
    <polyline points="380.825,371.3472 394.5112,379.2489 394.5112,412.5077 380.825,404.606 380.825,371.3472 418.6255,349.5231 432.3117,357.4248 432.3117,390.6836 394.5112,412.5077"/>
    <polyline points="359.4668,392.0475 338.7474,404.0098 338.7474,448.8146 329.707,443.5951 329.707,398.7903 350.4264,386.828 359.4668,392.0475 359.4668,436.8522 338.7474,448.8146"/>
    <line x1="333.9898" x2="333.2769" y1="446.0677" y2="446.4794"/>
    <polyline points="329.707,425.3865 305.9854,411.6908 286.7264,422.81 286.7264,437.4879"/>
    <line x1="286.7264" x2="299.4379" y1="422.81" y2="430.1489"/>
    <polyline points="286.3142,402.3812 257.3464,385.6567 257.3464,368.9767 287.052,351.8262 301.3002,360.0524"/>
    <line x1="301.8028" x2="287.8569" y1="359.7621" y2="351.7105"/>
    <polyline points="287.8569,352.2909 287.8569,351.7105 315.5147,335.7422 343.0724,351.6527 343.0724,381.9915 315.4146,397.9597 315.4146,385.5801"/>
    <polyline points="308.946,377.2318 324.785,368.0871 324.785,358.0388 314.7864,352.2661 298.9474,361.4108 298.9474,371.4591 308.946,377.2318 308.946,367.1835 298.9474,361.4108"/>
    <line x1="308.946" x2="324.785" y1="367.1835" y2="358.0388"/>
    <line x1="324.785" x2="343.0724" y1="362.2109" y2="351.6527"/>
    <line x1="337.6409" x2="337.6409" y1="348.5168" y2="328.6599"/>
    <polyline points="351.7611,336.8122 317.5681,317.0709 317.5681,315.0622"/>
    <line x1="351.7611" x2="371.2515" y1="296.0998" y2="284.8471"/>
    <line x1="385.5867" x2="385.5867" y1="319.9297" y2="320.3459"/>
    <polyline points="356.5452,334.0502 356.5452,374.8639 368.7262,367.8311"/>
    <line x1="356.5452" x2="343.0724" y1="374.8639" y2="367.0854"/>
    <polyline points="316.0197,373.1478 316.0197,385.2307 286.3142,402.3812 286.3142,385.7012 304.9648,374.9333"/>
    <line x1="304.6936" x2="315.4146" y1="391.7699" y2="397.9597"/>
    <line x1="329.707" x2="338.7474" y1="398.7903" y2="404.0098"/>
    <polyline points="359.4668,433.5869 401.5885,457.9059 401.5885,471.1221"/>
    <line x1="374.3163" x2="374.3163" y1="484.494" y2="501.5999"/>
    <line x1="367.7398" x2="360.6829" y1="518.5977" y2="522.6721"/>
    <polyline points="345.0341,535.6152 343.9611,536.2347 343.9611,567.0159"/>
    <polyline points="343.9611,536.2347 379.173,556.5643 379.173,562.7064"/>
    <line x1="379.173" x2="380.3025" y1="556.5643" y2="555.9122"/>
    <polyline points="385.6217,558.9833 376.2767,564.3786 376.2767,607.2869 419.0683,631.9927"/>
    <polyline points="420.7804,631.0042 420.7804,635.1457 408.0593,642.4903"/>
    <polyline points="408.0593,638.9517 374.5602,658.2924 374.5602,712.5851 346.4175,696.3369 346.4175,642.0442 379.9166,622.7035 408.0593,638.9517 408.0593,693.2444 374.5602,712.5851"/>
    <line x1="356.2372" x2="339.1731" y1="718.1825" y2="728.0344"/>
    <polyline points="339.1731,719.7805 330.6343,724.7104 330.6343,780.9624 315.871,772.4388 315.871,716.1869 324.4099,711.257 339.1731,719.7805 339.1731,776.0325 330.6343,780.9624"/>
    <polyline points="330.0634,780.6328 315.7465,788.8987 315.7465,741.5598 290.7336,727.1185"/>
    <polyline points="290.7336,735.8706 272.9556,725.6065 225.021,753.2815 225.021,783.3189"/>
    <polyline points="246.7246,795.8495 204.6833,820.1221 204.6833,841.7279 172.8327,823.339 172.8327,801.7331 214.874,777.4606 246.7246,795.8495 246.7246,817.4553 204.6833,841.7279"/>
    <polyline points="195.9795,836.7028 192.4323,838.7508 192.4323,867.6642 221.6855,884.5535"/>
    <polyline points="234.989,876.8727 234.989,893.6812 256.7624,881.1103 256.7624,864.3018"/>
    <polyline points="259.4648,833.8283 221.6855,855.6402 221.6855,884.5535 259.4648,862.7416 259.4648,833.8283 238.9154,821.964"/>
    <line x1="246.7246" x2="278.9361" y1="815.8915" y2="834.4889"/>
    <polyline points="290.1725,828.0015 290.1725,860.6354 309.8659,872.0054"/>
    <polyline points="324.8481,886.3581 347.0384,899.1697 347.0384,935.4649 384.3332,913.9327 384.3332,877.6375 368.2712,868.3641"/>
    <polyline points="366.7894,869.2196 395.4114,852.6947 395.4114,801.7132 379.39,792.4632 350.768,808.9882 350.768,859.9697 366.7894,869.2196 366.7894,818.2381 350.768,808.9882"/>
    <polyline points="352.2197,808.15 333.1945,797.1657 308.3881,811.4877"/>
    <line x1="314.8093" x2="314.8093" y1="807.7804" y2="788.3576"/>
    <polyline points="315.7465,788.8987 290.7336,774.4574 290.7336,727.1185 331.2242,703.7412 356.2372,718.1825 356.2372,765.5214 339.1731,775.3733"/>
    <line x1="336.7145" x2="349.5334" y1="777.4519" y2="784.8529"/>
    <polyline points="349.5334,806.599 349.5334,784.8529 372.2775,771.7216"/>
    <polyline points="372.2775,775.0032 372.2775,771.7216 356.2372,762.4607"/>
    <polyline points="370.0974,776.2618 406.7075,797.3987 406.7075,817.6271 449.255,793.0623 449.255,772.8339 412.6449,751.6971 370.0974,776.2618 370.0974,796.4903 371.2562,797.1593 354.2494,806.9782"/>
    <line x1="350.768" x2="313.7446" y1="814.2383" y2="835.6138"/>
    <polyline points="313.7446,847.0523 313.7446,835.6138 295.3661,825.003"/>
    <line x1="278.9361" x2="308.3881" y1="820.7372" y2="803.7331"/>
    <polyline points="298.9168,779.182 256.8349,803.478 256.8349,771.6493 290.7336,752.0779"/>
    <line x1="315.8088" x2="315.8088" y1="741.5238" y2="741.5238"/>
    <line x1="330.6343" x2="315.871" y1="724.7104" y2="716.1869"/>
    <polyline points="274.5519,693.7545 242.293,675.1298 242.293,629.2001 256.3999,621.0555"/>
    <line x1="242.293" x2="256.3999" y1="629.2001" y2="637.3448"/>
    <polyline points="282.0288,637.7319 282.0288,662.6463 292.7097,656.4797 292.7097,643.8985"/>
    <polyline points="296.1727,645.8979 323.6588,630.0288 323.6588,595.2265 294.8395,578.5877 267.3535,594.4568 267.3535,629.2591 296.1727,645.8979 296.1727,611.0956 267.3535,594.4568"/>
    <polyline points="270.7106,592.5186 267.0808,590.4229 256.3999,596.5896 256.3999,647.8495 282.0288,662.6463"/>
    <polyline points="274.5519,658.3295 274.5519,693.7545 310.8214,672.8143 310.8214,637.4404"/>
    <line x1="296.1727" x2="323.6588" y1="611.0956" y2="595.2265"/>
    <line x1="346.4175" x2="374.5602" y1="642.0442" y2="658.2924"/>
    <line x1="396.1989" x2="407.7302" y1="632.1041" y2="625.4466"/>
    <line x1="409.9475" x2="420.9118" y1="657.4506" y2="663.7808"/>
    <polyline points="409.9475,670.111 409.9475,657.4506 431.1071,645.2341 452.8568,657.7913"/>
    <polyline points="454.299,656.9587 454.299,639.7556 472.4779,629.2601 505.4814,648.3147 505.4814,668.8061 499.9642,671.9915"/>
    <line x1="499.9642" x2="480.7512" y1="668.6466" y2="679.7392"/>
    <polyline points="486.3579,682.9763 454.798,701.1974 454.798,732.8535 434.5405,721.1578 434.5405,689.5017 466.1004,671.2806 486.3579,682.9763 486.3579,714.6323 454.798,732.8535"/>
    <polyline points="453.2143,731.9391 453.2143,738.4312 474.3738,726.2147 474.3738,721.5514"/>
    <polyline points="466.0947,730.9947 466.0947,738.7895 431.0717,759.01 431.0717,740.5214 443.9531,733.0843"/>
    <polyline points="439.2709,725.0768 409.0712,707.6411 409.0712,670.6169 433.303,656.6267 462.3923,673.4214"/>
    <polyline points="444.0885,662.8537 467.0095,649.6202 499.9642,668.6466 499.9642,690.3404 486.3579,698.196"/>
    <line x1="454.798" x2="434.5405" y1="701.1974" y2="689.5017"/>
    <line x1="438.1606" x2="409.0712" y1="687.4117" y2="670.6169"/>
    <polyline points="409.9475,708.147 409.9475,713.4511 453.2143,738.4312"/>
    <polyline points="446.4397,750.1373 466.3596,761.638 466.3596,779.5936"/>
    <polyline points="468.6167,778.2904 468.6167,777.6977 477.2772,772.6976"/>
    <polyline points="483.9594,776.5555 483.9594,791.7565 525.7493,815.8839 525.7493,795.6913"/>
    <polyline points="532.3871,799.5236 546.2324,791.5301 546.2324,738.2249 527.8531,727.6136 514.0079,735.6071 514.0079,788.9123 532.3871,799.5236 532.3871,746.2184 514.0079,735.6071"/>
    <line x1="514.0079" x2="511.3303" y1="737.7407" y2="739.2866"/>
    <polyline points="514.0079,740.8325 499.636,732.5349 471.4058,748.8335 471.4058,769.3077 507.1672,789.9546"/>
    <polyline points="514.0079,786.0051 507.1672,789.9546 507.1672,769.4804 471.4058,748.8335"/>
    <line x1="466.3596" x2="448.1114" y1="761.638" y2="772.1736"/>
    <line x1="449.255" x2="406.7075" y1="772.8339" y2="797.3987"/>
    <line x1="395.4114" x2="366.7894" y1="801.7132" y2="818.2381"/>
    <line x1="395.4114" x2="405.7705" y1="823.0669" y2="817.0861"/>
    <line x1="406.7075" x2="395.4114" y1="817.6271" y2="811.1053"/>
    <line x1="414.655" x2="425.1779" y1="813.0386" y2="819.114"/>
    <polyline points="425.1779,806.9633 425.1779,819.478 451.3749,834.6028"/>
    <polyline points="454.7225,831.0226 443.668,824.6402 443.668,796.288"/>
    <polyline points="446.78,794.4913 454.7225,799.0769 480.1878,784.3744 483.9594,786.5558"/>
    <line x1="469.1299" x2="468.6167" y1="777.9941" y2="777.6977"/>
    <line x1="455.0304" x2="449.255" y1="786.1345" y2="782.8"/>
    <polyline points="449.255,789.4689 469.1333,777.9921 480.1878,784.3744 480.1878,816.3201 454.7225,831.0226 454.7225,799.0769"/>
    <line x1="443.668" x2="435.1721" y1="806.0981" y2="801.1931"/>
    <polyline points="451.3749,829.0898 451.3749,834.6028 474.3451,821.3409 474.3451,819.6934"/>
    <line x1="476.2435" x2="496.5077" y1="818.5974" y2="830.2969"/>
    <polyline points="496.5077,799.0013 496.5077,830.2969 523.6105,814.6491"/>
    <polyline points="544.6401,804.9773 544.6401,826.7455 558.6698,818.6455 558.6698,796.8773"/>
    <line x1="573.2571" x2="577.5223" y1="775.0701" y2="777.5326"/>
    <line x1="573.2571" x2="546.2324" y1="751.788" y2="767.3908"/>
    <line x1="532.3871" x2="546.2324" y1="746.2184" y2="738.2249"/>
    <polyline points="529.7009,728.6804 531.4672,727.6606 573.2571,751.788 573.2571,788.4553 525.7493,815.8839 544.6401,826.7455"/>
    <line x1="508.8427" x2="472.4744" y1="881.6493" y2="902.6466"/>
    <polyline points="461.9566,896.5741 472.4744,902.6466 472.4744,954.4651 508.8427,933.4679 508.8427,881.6493 466.6136,857.2683 461.4005,860.278"/>
    <line x1="461.9566" x2="441.9154" y1="860.5991" y2="872.1699"/>
    <polyline points="430.8107,865.7586 441.9154,872.1699 441.9154,922.092 461.9566,910.5212 461.9566,860.5991 435.182,845.1407 424.575,851.2647"/>
    <polyline points="430.8107,854.8648 409.626,867.0958 409.626,901.9989 430.8107,889.768 430.8107,854.8648 409.9599,842.8266 395.4114,851.2262"/>
    <line x1="390.047" x2="409.626" y1="855.7918" y2="867.0958"/>
    <polyline points="388.7753,856.5261 388.7753,889.9607 409.626,901.9989"/>
    <polyline points="415.1407,898.815 415.1407,906.6337 441.9154,922.092"/>
    <polyline points="430.2453,915.3543 430.2453,930.0841 472.4744,954.4651"/>
    <line x1="459.4869" x2="446.784" y1="955.3883" y2="962.7223"/>
    <polyline points="446.784,995.3667 459.4869,988.0327 459.4869,955.3883 427.3161,936.8145 414.6133,944.1485 414.6133,976.7929 446.784,995.3667 446.784,962.7223 414.6133,944.1485"/>
    <line x1="378.4318" x2="370.1614" y1="973.2896" y2="978.0646"/>
    <polyline points="367.5398,967.0011 367.5398,938.7336 354.4584,931.181"/>
    <line x1="347.0384" x2="341.7211" y1="935.4649" y2="932.395"/>
    <polyline points="331.3361,941.5261 347.0195,950.5809 347.0195,982.6092 357.5744,976.5153"/>
    <polyline points="357.5744,970.7975 370.1614,978.0646 370.1614,1022.732 357.5744,1015.4649 357.5744,970.7975 365.8448,966.0225 378.4318,973.2896 378.4318,1017.957 370.1614,1022.732"/>
    <line x1="347.0195" x2="303.5988" y1="982.6092" y2="957.5402"/>
    <polyline points="293.793,963.2016 341.7211,935.5303 341.7211,909.7553 323.0086,898.9516 275.0805,926.623 275.0805,952.398 293.793,963.2016 293.793,937.4267 341.7211,909.7553"/>
    <line x1="347.0384" x2="384.3332" y1="899.1697" y2="877.6375"/>
    <polyline points="360.6611,865.6815 324.8481,886.3581 324.8481,900.0137"/>
    <polyline points="322.8808,899.0254 309.8659,891.5113 309.8659,849.2917 332.8102,836.0447 350.768,846.4126"/>
    <line x1="351.568" x2="340.3644" y1="860.4316" y2="866.9"/>
    <polyline points="340.3644,877.3998 340.3644,866.9 309.8659,849.2917"/>
    <polyline points="282.3906,788.7234 308.3881,803.7331 308.3881,817.4848 278.9361,834.4889 278.9361,820.7372 246.7246,802.1399"/>
    <line x1="246.7246" x2="256.8349" y1="797.6408" y2="803.478"/>
    <line x1="256.8349" x2="225.021" y1="771.6493" y2="753.2815"/>
    <line x1="204.6833" x2="172.8327" y1="820.1221" y2="801.7331"/>
    <line x1="192.4323" x2="221.6855" y1="838.7508" y2="855.6402"/>
    <polyline points="200.5787,872.3675 200.5787,873.8144 234.989,893.6812"/>
    <line x1="275.0805" x2="293.793" y1="926.623" y2="937.4267"/>
    <line x1="347.0195" x2="367.5398" y1="950.5809" y2="938.7336"/>
    <polyline points="398.7802,759.7018 398.7802,750.109 408.9675,744.2273"/>
    <line x1="407.0879" x2="398.7802" y1="754.9054" y2="750.109"/>
    <line x1="408.9675" x2="431.0717" y1="727.7595" y2="740.5214"/>
    <polyline points="431.0717,759.01 408.9675,746.2481 408.9675,727.7595 421.8489,720.3224"/>
    <polyline points="439.2709,723.8889 439.2709,725.0768 440.2997,724.4828"/>
    <polyline points="487.3025,661.3364 487.3025,658.8103 505.4814,648.3147"/>
    <polyline points="506.948,655.9633 521.4445,664.3329 521.4445,690.5417 506.948,682.1722 506.948,655.9633 542.0228,635.713 556.5192,644.0825 556.5192,670.2913 521.4445,690.5417"/>
    <line x1="539.3214" x2="567.0413" y1="680.2205" y2="696.3909"/>
    <polyline points="568.6236,716.0156 577.5223,721.1533 577.5223,777.5326 592.719,768.7588 592.719,712.3795 583.8203,707.2418 568.6236,716.0156 568.6236,749.1128"/>
    <line x1="577.5223" x2="592.719" y1="721.1533" y2="712.3795"/>
    <polyline points="594.556,678.2305 640.059,704.5016 640.059,723.9208 594.556,697.6497 594.556,678.2305 635.7517,654.4461 681.2547,680.7173 681.2547,700.1365 640.059,723.9208"/>
    <line x1="640.059" x2="681.2547" y1="704.5016" y2="680.7173"/>
    <line x1="640.9698" x2="632.4621" y1="614.5893" y2="609.6773"/>
    <polyline points="629.8717,611.1729 676.2008,584.4247 676.2008,549.9413 667.2899,544.7965 620.9608,571.5446 620.9608,606.0281 629.8717,611.1729 629.8717,576.6894 676.2008,549.9413"/>
    <line x1="629.8717" x2="620.9608" y1="576.6894" y2="571.5446"/>
    <polyline points="620.9608,582.8687 617.7517,581.016 609.0743,586.0259 609.0743,596.1744 620.9608,603.037"/>
    <line x1="620.9608" x2="609.0743" y1="592.8885" y2="586.0259"/>
    <polyline points="640.9698,604.7654 640.9698,614.5893 649.6472,609.5794 649.6472,599.7555"/>
    <polyline points="592.1156,643.517 567.0413,657.9937 567.0413,696.3909 592.1156,681.9142 592.1156,643.517 564.3958,627.5129 546.1078,638.0715"/>
    <line x1="556.5192" x2="521.4445" y1="644.0825" y2="664.3329"/>
    <line x1="487.3025" x2="454.299" y1="658.8103" y2="639.7556"/>
    <line x1="486.1286" x2="521.7937" y1="579.6082" y2="600.1995"/>
    <line x1="537.4669" x2="549.0965" y1="587.6148" y2="594.3291"/>
    <line x1="549.0965" x2="537.4669" y1="580.4268" y2="573.7125"/>
    <line x1="556.5192" x2="567.0413" y1="651.9187" y2="657.9937"/>
    <line x1="514.0079" x2="507.1672" y1="765.5309" y2="769.4804"/>
    <line x1="611.2698" x2="630.4106" y1="812.1535" y2="823.2045"/>
    <polyline points="642.1748,816.4124 630.4106,823.2045 630.4106,868.9993 611.2698,857.9484 611.2698,812.1535 623.0341,805.3614 642.1748,816.4124 642.1748,862.2072 630.4106,868.9993"/>
    <line x1="642.1748" x2="650.8765" y1="860.2092" y2="865.2331"/>
    <polyline points="673.3174,852.2769 650.8765,865.2331 650.8765,899.2583 673.3174,886.302 673.3174,852.2769 642.1748,834.2967"/>
    <polyline points="615.2391,860.24 615.2391,878.683 650.8765,899.2583"/>
    <line x1="267.3535" x2="256.3999" y1="602.9136" y2="596.5896"/>
    <line x1="241.1934" x2="230.7552" y1="597.1147" y2="591.0882"/>
    <polyline points="232.6698,592.1936 232.6698,599.655 239.1316,595.9243"/>
    <line x1="232.6698" x2="226.8939" y1="599.655" y2="596.3203"/>
    <polyline points="228.5845,562.575 228.5845,575.8688 267.7706,553.2447 267.7706,502.3058 229.8487,480.4116 190.6626,503.0357 190.6626,523.4137"/>
    <line x1="184.452" x2="226.5363" y1="526.9995" y2="551.2969"/>
    <line x1="228.5845" x2="190.6626" y1="524.93" y2="503.0357"/>
    <line x1="209.4447" x2="182.8308" y1="492.1919" y2="476.8263"/>
    <line x1="200.3363" x2="200.3363" y1="471.8703" y2="467.1504"/>
    <polyline points="200.634,467.3223 191.0824,461.8077 191.0824,420.3762 224.107,401.3094"/>
    <polyline points="222.1997,400.2083 200.7181,412.6107 200.7181,414.813"/>
    <line x1="202.6254" x2="200.7181" y1="413.7118" y2="412.6107"/>
    <polyline points="199.9685,420.342 241.5087,444.3253 241.5087,466.0396 199.9685,442.0563 199.9685,420.342 211.9709,413.4124 253.5112,437.3957 253.5112,459.1099 241.5087,466.0396"/>
    <line x1="244.5352" x2="244.5352" y1="464.2922" y2="488.8909"/>
    <polyline points="252.0281,493.2169 256.0689,490.8839 286.6421,508.5353 286.6421,535.9347 267.7706,546.8301"/>
    <polyline points="277.6785,564.9182 277.6785,573.6692 269.4553,578.4169"/>
    <polyline points="184.452,528.1138 182.8308,527.1778 182.8308,476.8263 195.8756,469.2949 222.4895,484.6605"/>
    <line x1="229.6694" x2="229.6694" y1="480.5151" y2="459.2041"/>
    <polyline points="226.5085,457.3792 223.6123,459.0513 223.6123,455.707"/>
    <polyline points="222.1823,454.8814 200.634,467.3223 200.634,442.4405"/>
    <line x1="199.9685" x2="191.0824" y1="425.5066" y2="420.3762"/>
    <line x1="217.1091" x2="233.6586" y1="416.379" y2="406.8241"/>
    <line x1="234.6838" x2="234.6838" y1="407.416" y2="426.5257"/>
    <line x1="234.6838" x2="265.5094" y1="419.4365" y2="401.6393"/>
    <polyline points="247.4911,391.2365 265.5094,401.6393 265.5094,434.862 253.5112,441.7892"/>
    <line x1="253.5112" x2="241.5087" y1="437.3957" y2="444.3253"/>
    <line x1="260.9488" x2="306.5362" y1="452.3706" y2="478.6905"/>
    <line x1="223.6123" x2="219.2861" y1="459.0513" y2="456.5536"/>
    <polyline points="237.0453,408.7794 247.4911,402.7485 247.4911,364.3856 214.5605,345.3732 204.1147,351.4041 204.1147,389.7669 237.0453,408.7794 237.0453,370.4166 247.4911,364.3856"/>
    <line x1="257.3464" x2="286.3142" y1="368.9767" y2="385.7012"/>
    <line x1="237.0453" x2="204.1147" y1="370.4166" y2="351.4041"/>
  </g>
</svg>
