<?xml version="1.0" encoding="utf-8" ?>
<svg xmlns="http://www.w3.org/2000/svg" xmlns:cc="http://creativecommons.org/ns#" xmlns:dc="http://purl.org/dc/elements/1.1/" xmlns:ev="http://www.w3.org/2001/xml-events" xmlns:inkscape="http://www.inkscape.org/namespaces/inkscape" xmlns:rdf="http://www.w3.org/1999/02/22-rdf-syntax-ns#" xmlns:sodipodi="http://sodipodi.sourceforge.net/DTD/sodipodi-0.dtd" xmlns:xlink="http://www.w3.org/1999/xlink" baseProfile="tiny" height="29.7cm" version="1.2" viewBox="0 0 793.7007874015749 1122.5196850393702" width="21.0cm">
  <metadata>
    <rdf:RDF>
      <cc:Work>
        <dc:format>image/svg+xml</dc:format>
        <dc:source/>
        <dc:date>2021-12-10T22:42:57.106282</dc:date>
      </cc:Work>
    </rdf:RDF>
  </metadata>
  <defs/>
  <g fill="none" id="layer1" inkscape:groupmode="layer" inkscape:label="1" stroke="#00f" style="display:inline">
    <polyline points="487.7092,494.3338 499.8043,501.3169 499.8043,522.8806 475.9358,536.6611"/>
    <line x1="475.9358" x2="499.8043" y1="515.0974" y2="501.3169"/>
    <polyline points="483.9912,495.8105 462.5764,483.4467 462.5764,462.5678 469.2068,458.7398"/>
    <line x1="462.5764" x2="483.9912" y1="462.5678" y2="474.9316"/>
    <polyline points="490.6215,471.1036 483.9912,474.9316 483.9912,495.8105 511.8049,479.7522"/>
    <polyline points="509.1861,481.2642 509.1861,481.9341 463.6621,508.1555"/>
    <polyline points="463.6621,500.5007 463.6621,530.6362 419.4816,556.1438 419.4816,523.3907 425.8096,519.7372"/>
    <polyline points="428.0766,521.046 464.5751,499.9736 464.5751,486.5806 421.0656,461.4603 384.5671,482.5327 384.5671,495.9258 428.0766,521.046 428.0766,507.653 464.5751,486.5806"/>
    <line x1="469.8727" x2="469.8727" y1="487.6592" y2="497.5687"/>
    <polyline points="464.5751,494.5102 475.9358,501.0693 475.9358,538.8058 441.6814,558.5825 441.6814,551.2714"/>
    <line x1="435.3498" x2="441.6814" y1="554.9269" y2="558.5825"/>
    <polyline points="443.4234,542.321 443.4234,550.2657 408.3348,570.524 408.3348,549.7081"/>
    <polyline points="419.4816,556.1438 386.9145,537.3411 386.9145,504.588 393.2425,500.9345"/>
    <line x1="386.9145" x2="419.4816" y1="504.588" y2="523.3907"/>
    <line x1="428.0766" x2="384.5671" y1="507.653" y2="482.5327"/>
    <line x1="397.9553" x2="369.9178" y1="474.803" y2="458.6156"/>
    <line x1="369.9178" x2="338.5476" y1="456.764" y2="474.8756"/>
    <line x1="329.6422" x2="326.3043" y1="491.6932" y2="493.6203"/>
    <polyline points="323.2279,491.8442 326.3043,493.6203 326.3043,520.0253 359.8062,500.683 359.8062,484.5611"/>
    <polyline points="366.2137,480.8617 366.2137,494.952 359.8062,498.6514"/>
    <line x1="373.7479" x2="386.9145" y1="514.4774" y2="522.0791"/>
    <polyline points="386.9145,506.8757 373.7479,514.4774 373.7479,550.5553 408.3348,570.524"/>
    <polyline points="415.3234,582.2685 447.9706,563.4197 483.5947,583.9873 483.5947,590.7789"/>
    <line x1="483.5947" x2="440.9029" y1="583.9873" y2="608.6354"/>
    <polyline points="427.6193,600.9661 440.9029,608.6354 440.9029,664.0906 470.494,647.0062"/>
    <polyline points="471.9941,647.8722 471.9941,656.3933 485.6539,664.2798"/>
    <line x1="488.9201" x2="536.5352" y1="666.9275" y2="694.4181"/>
    <polyline points="537.9364,693.6091 536.5352,694.4181 536.5352,736.2234 547.309,730.0032 547.309,728.5446"/>
    <polyline points="547.2366,730.045 547.2366,749.1296 566.1181,738.2284 566.1181,720.1296"/>
    <polyline points="549.4259,729.7668 566.8835,719.6877 566.8835,680.8559 555.3939,674.2224 537.9364,684.3015 537.9364,723.1334 549.4259,729.7668 549.4259,690.935 566.8835,680.8559"/>
    <line x1="552.8116" x2="548.0052" y1="675.7133" y2="672.9384"/>
    <line x1="539.2484" x2="534.4421" y1="683.544" y2="680.7691"/>
    <line x1="537.9364" x2="549.4259" y1="684.3015" y2="690.935"/>
    <polyline points="528.211,684.3666 482.4234,657.9311 482.4234,653.8936"/>
    <polyline points="485.6539,659.7963 485.6539,664.2798 489.5368,662.0381"/>
    <polyline points="493.4628,664.3048 488.9201,666.9275 488.9201,708.7329 536.5352,736.2234"/>
    <polyline points="547.2366,749.1296 499.5708,721.6098 499.5708,714.8821"/>
    <line x1="480.501" x2="509.4425" y1="753.7148" y2="770.4242"/>
    <polyline points="509.4425,771.7302 509.4425,770.4242 527.8101,759.8197"/>
    <polyline points="527.8101,761.1256 527.8101,759.8197 498.8685,743.1102 480.501,753.7148 480.501,804.8519 484.5377,807.1825"/>
    <line x1="493.6869" x2="484.5377" y1="795.0279" y2="789.7456"/>
    <polyline points="493.6869,784.4634 484.5377,789.7456 484.5377,835.9188 532.7485,863.7533"/>
    <polyline points="551.1696,853.1178 551.1696,869.0425 564.1255,876.5225"/>
    <line x1="575.4389" x2="594.9421" y1="868.7458" y2="880.0059"/>
    <line x1="594.9421" x2="611.4438" y1="861.6851" y2="852.1578"/>
    <polyline points="630.4984,854.5178 604.3883,839.4431 604.3883,801.6236"/>
    <line x1="623.5397" x2="585.7883" y1="793.3921" y2="771.5963"/>
    <polyline points="551.3547,759.6731 504.2013,786.8972 504.2013,817.4029 493.6869,811.3324 493.6869,780.8267 540.8403,753.6026 551.3547,759.6731 551.3547,790.1789 504.2013,817.4029"/>
    <line x1="518.3214" x2="532.7485" y1="809.2507" y2="817.5801"/>
    <polyline points="545.1304,793.7725 559.5575,802.102 559.5575,848.2751 532.7485,863.7533 532.7485,817.5801 559.5575,802.102"/>
    <polyline points="559.5575,811.3064 562.483,809.6173 575.4389,817.0974 575.4389,869.9908 564.1255,876.5225 564.1255,823.6292 559.5575,820.9919"/>
    <line x1="564.1255" x2="575.4389" y1="823.6292" y2="817.0974"/>
    <polyline points="575.4389,842.0513 584.6889,836.7108 611.4438,852.1578 611.4438,870.4786 594.9421,880.0059 594.9421,861.6851 575.4389,850.4249"/>
    <polyline points="623.5397,812.6807 668.2256,786.8813 668.2256,767.5927 630.4742,745.7969 585.7883,771.5963 585.7883,790.8849 623.5397,812.6807 623.5397,793.3921 668.2256,767.5927"/>
    <polyline points="668.2256,784.5999 669.9933,785.6205 669.9933,831.7155 630.4984,854.5178 630.4984,808.6631"/>
    <line x1="668.2256" x2="669.9933" y1="786.6411" y2="785.6205"/>
    <polyline points="608.091,709.3486 618.6061,703.2777 618.6061,692.29 602.2962,682.8734 591.7811,688.9443 591.7811,699.9321 608.091,709.3486 608.091,698.3609 591.7811,688.9443"/>
    <line x1="608.091" x2="618.6061" y1="698.3609" y2="692.29"/>
    <line x1="562.268" x2="553.8845" y1="613.1966" y2="618.0368"/>
    <polyline points="553.8845,608.3564 562.268,613.1966 562.268,664.7038 528.211,684.3666 528.211,653.4168"/>
    <polyline points="504.9043,666.8729 553.8845,638.5942 553.8845,599.9836 510.7681,575.0904 461.7878,603.3691 461.7878,641.9796 504.9043,666.8729 504.9043,628.2624 553.8845,599.9836"/>
    <line x1="504.9043" x2="461.7878" y1="628.2624" y2="603.3691"/>
    <polyline points="427.6193,589.3676 415.1184,596.5849 415.1184,625.0343 427.6193,617.8169 427.6193,589.3676 383.5095,563.9008 371.0086,571.1181 371.0086,587.4614"/>
    <polyline points="368.184,585.8306 404.1568,606.5995 404.1568,652.5039 387.4495,662.1499 387.4495,639.9419"/>
    <line x1="387.4495" x2="368.2168" y1="662.1499" y2="651.0459"/>
    <line x1="356.6903" x2="337.4578" y1="657.7008" y2="646.5969"/>
    <polyline points="326.8108,652.7439 368.184,628.8571 368.184,583.095 352.8179,574.2234 311.4448,598.1102 311.4448,643.8723 326.8108,652.7439 326.8108,606.9818 368.184,583.095"/>
    <line x1="371.0086" x2="415.1184" y1="571.1181" y2="596.5849"/>
    <line x1="404.1568" x2="390.7722" y1="606.5995" y2="614.3271"/>
    <polyline points="393.9687,616.1726 356.6903,637.6953 356.6903,657.7008 393.9687,636.178 393.9687,616.1726 368.184,601.2858"/>
    <polyline points="338.9467,582.232 338.9467,580.6637 325.9778,573.1762 288.075,595.0594 288.075,617.4284 295.4473,621.6848"/>
    <polyline points="301.0438,618.4537 301.0438,602.547 288.075,595.0594"/>
    <polyline points="288.7356,587.4796 269.4471,576.3434 269.4471,557.2396 269.9136,556.9703"/>
    <line x1="269.4471" x2="288.7356" y1="557.2396" y2="568.3758"/>
    <polyline points="289.202,568.1065 288.7356,568.3758 288.7356,587.4796 305.5391,577.7781 305.5391,568.2799"/>
    <polyline points="297.5208,572.9093 252.6447,547.0001 252.6447,517.7548 283.2005,500.1133"/>
    <polyline points="283.2005,495.1393 277.3288,491.7493 277.3288,465.3443 310.8307,446.002 322.8959,452.9678"/>
    <polyline points="311.749,459.4034 338.5476,474.8756 338.5476,496.8347 311.749,481.3626 311.749,459.4034 343.1192,441.2918 369.9178,456.764 369.9178,478.7231 338.5476,496.8347"/>
    <line x1="323.2279" x2="304.5331" y1="490.8552" y2="501.6487"/>
    <line x1="301.0389" x2="277.3288" y1="479.0334" y2="465.3443"/>
    <line x1="270.6307" x2="254.2745" y1="453.5885" y2="463.0317"/>
    <polyline points="227.9451,447.8304 254.2745,463.0317 254.2745,496.4325 270.6307,486.9892 270.6307,453.5885 233.7276,432.2824 227.9451,435.6209"/>
    <polyline points="217.3714,456.7036 217.3714,475.1264 254.2745,496.4325"/>
    <polyline points="268.8738,508.3849 246.2872,495.3445 229.2319,505.1913 229.2319,523.2152"/>
    <line x1="229.2319" x2="252.6447" y1="505.1913" y2="518.7087"/>
    <line x1="252.6447" x2="283.2005" y1="517.7548" y2="535.3962"/>
    <polyline points="297.5208,545.5409 297.5208,572.9093 338.2678,549.384 338.2678,520.1387 332.1879,516.6284"/>
    <line x1="326.3043" x2="323.2279" y1="520.0253" y2="518.2492"/>
    <line x1="323.2279" x2="338.2678" y1="528.8219" y2="520.1387"/>
    <polyline points="304.5331,549.5894 323.2279,538.796 323.2279,490.8552 301.8954,478.5389 283.2005,489.3324 283.2005,537.2731 304.5331,549.5894 304.5331,501.6487 283.2005,489.3324"/>
    <line x1="245.4502" x2="217.6895" y1="532.5788" y2="548.6064"/>
    <polyline points="217.6895,558.606 245.4502,542.5784 245.4502,532.5788 221.0135,518.4703 193.2528,534.4979 193.2528,544.4975 217.6895,558.606 217.6895,548.6064 193.2528,534.4979"/>
    <polyline points="214.205,571.215 192.9923,583.4622 192.9923,593.058 152.319,569.5752 152.319,559.9794 173.5317,547.7322 214.205,571.215 214.205,580.8108 192.9923,593.058"/>
    <line x1="192.9923" x2="152.319" y1="583.4622" y2="559.9794"/>
    <polyline points="130.6705,539.5059 111.7668,550.42 111.7668,571.9445 97.8285,563.8972 97.8285,542.3727 116.7322,531.4586 130.6705,539.5059 130.6705,561.0304 111.7668,571.9445"/>
    <line x1="111.7668" x2="97.8285" y1="550.42" y2="542.3727"/>
    <polyline points="148.0208,489.1893 120.8353,473.4937 120.8353,435.636"/>
    <polyline points="123.4873,437.1671 131.9111,432.3036 131.9111,401.5754 121.0272,395.2915 112.6034,400.155 112.6034,430.8833 123.4873,437.1671 123.4873,406.4388 112.6034,400.155"/>
    <line x1="123.4873" x2="131.9111" y1="406.4388" y2="401.5754"/>
    <polyline points="131.9111,413.2073 150.8806,402.2552 155.1149,404.6999"/>
    <polyline points="167.8504,402.4149 201.9748,382.7131 227.9451,397.707 227.9451,450.5989 193.6275,470.4121 193.6275,463.3564"/>
    <line x1="193.6275" x2="187.5171" y1="470.4121" y2="466.8843"/>
    <polyline points="171.4773,476.1448 196.3749,461.7702 196.3749,418.8835 163.4616,399.881 138.5639,414.2556 138.5639,457.1423 171.4773,476.1448 171.4773,433.2581 138.5639,414.2556"/>
    <line x1="131.9111" x2="138.5639" y1="425.9965" y2="429.8376"/>
    <line x1="171.4773" x2="196.3749" y1="433.2581" y2="418.8835"/>
    <line x1="193.8206" x2="227.9451" y1="417.4088" y2="397.707"/>
    <polyline points="234.1061,345.5698 210.3435,331.8504 210.3435,311.1717 227.4242,301.3101"/>
    <line x1="227.4242" x2="257.0365" y1="292.6276" y2="309.7243"/>
    <line x1="280.7033" x2="311.4647" y1="314.4541" y2="332.2143"/>
    <line x1="301.9115" x2="334.5001" y1="339.6139" y2="358.4289"/>
    <polyline points="334.5001,373.6516 334.5001,358.4289 383.2811,330.2652"/>
    <polyline points="379.1342,327.871 393.1356,319.7873 432.4675,342.4955 432.4675,371.1019 393.3704,393.6746 393.3704,365.0682 432.4675,342.4955"/>
    <polyline points="431.5941,341.9913 431.5941,324.6539 444.078,317.4463"/>
    <polyline points="444.078,306.866 423.4552,294.9594 410.4463,302.4701"/>
    <line x1="415.8581" x2="383.5938" y1="305.5946" y2="324.2223"/>
    <polyline points="383.5938,325.2962 383.5938,324.2223 349.001,304.2501"/>
    <polyline points="349.001,312.4268 349.001,304.2501 381.2652,285.6224 415.8581,305.5946 415.8581,321.6691 406.1266,327.2876"/>
    <line x1="415.8581" x2="431.5941" y1="315.5687" y2="324.6539"/>
    <polyline points="444.078,301.1399 463.1994,312.1796 463.1994,363.4946 444.078,352.4548 444.078,301.1399 470.2748,286.0152 489.3962,297.0549 489.3962,348.3699 463.1994,363.4946"/>
    <polyline points="468.7339,360.2993 468.7339,379.4179 495.8453,395.0706"/>
    <polyline points="495.8453,400.5045 495.8453,377.7011 520.5376,363.445 545.7169,377.9823 545.7169,432.7489 539.1345,436.5493"/>
    <polyline points="522.1433,431.0091 525.841,428.8743 572.3136,455.7052 572.3136,471.307 534.7455,492.997 534.7455,477.3952 491.3833,452.36"/>
    <polyline points="488.2729,454.1558 488.2729,466.166 534.7455,492.997"/>
    <line x1="534.7455" x2="572.3136" y1="477.3952" y2="455.7052"/>
    <line x1="572.3136" x2="608.2874" y1="461.9242" y2="482.6937"/>
    <line x1="608.2874" x2="633.1546" y1="464.1866" y2="449.8295"/>
    <polyline points="625.4159,419.1867 612.4761,411.7159 612.4761,386.1325 613.9221,385.2976"/>
    <line x1="612.4761" x2="625.4159" y1="386.1325" y2="393.6033"/>
    <polyline points="626.8619,392.7684 625.4159,393.6033 625.4159,419.1867 656.6733,401.1402"/>
    <polyline points="656.6733,396.5322 645.0271,403.2561 645.0271,346.7862 656.0324,340.4323"/>
    <line x1="645.0271" x2="602.3714" y1="346.7862" y2="322.1589"/>
    <polyline points="625.0367,309.0731 602.3714,322.1589 602.3714,378.6288 645.0271,403.2561"/>
    <polyline points="670.6199,422.137 656.6733,414.085 656.6733,357.807 671.3998,349.3046"/>
    <polyline points="675.973,351.945 630.5093,325.6965 630.5093,320.9432"/>
    <polyline points="637.8386,325.1748 653.3807,316.2015 653.3807,268.9396 640.5788,261.5484 625.0367,270.5216 625.0367,317.7836 637.8386,325.1748 637.8386,277.9128 653.3807,268.9396"/>
    <polyline points="641.2847,261.9559 641.2847,257.7227 628.8547,250.5463"/>
    <line x1="641.2847" x2="666.7992" y1="257.7227" y2="242.9919"/>
    <line x1="637.8386" x2="625.0367" y1="277.9128" y2="270.5216"/>
    <polyline points="628.8547,268.3173 628.8547,250.5463 654.3692,235.8155 666.7992,242.9919 666.7992,283.321 653.3807,291.0681"/>
    <polyline points="653.3807,295.7298 685.9203,314.5166 685.9203,346.2019 675.973,351.945 675.973,320.2596 653.3807,307.216"/>
    <line x1="675.973" x2="685.9203" y1="320.2596" y2="314.5166"/>
    <polyline points="685.9203,317.7732 690.5997,320.4749 690.5997,348.2353"/>
    <polyline points="685.9203,345.5337 695.8723,351.2795 695.8723,407.5575 670.6199,422.137 670.6199,365.859 656.6733,357.807"/>
    <line x1="670.6199" x2="695.8723" y1="365.859" y2="351.2795"/>
    <line x1="685.9203" x2="690.5997" y1="323.1765" y2="320.4749"/>
    <line x1="602.9428" x2="590.3972" y1="383.0107" y2="390.2539"/>
    <polyline points="559.989,372.6977 590.3972,390.2539 590.3972,444.7127 559.989,427.1565 559.989,372.6977 572.5346,365.4545 602.9428,383.0107 602.9428,437.4694 590.3972,444.7127"/>
    <polyline points="602.9428,432.3868 633.1546,449.8295 633.1546,468.3366 608.2874,482.6937 608.2874,464.1866 560.2023,436.4247"/>
    <polyline points="568.1221,431.8522 560.2023,436.4247 560.2023,448.7128"/>
    <polyline points="522.1433,404.4353 487.3332,424.5329 462.8503,410.2657"/>
    <line x1="459.9323" x2="418.3215" y1="397.1465" y2="421.1705"/>
    <polyline points="418.3215,433.6688 459.9323,409.6447 459.9323,397.1465 439.9284,385.5972 398.3176,409.6212 398.3176,422.1195 418.3215,433.6688 418.3215,421.1705 398.3176,409.6212"/>
    <polyline points="398.3176,415.3329 376.1124,428.1531 376.1124,387.0932 379.0418,385.4019"/>
    <line x1="377.2782" x2="393.3704" y1="384.3837" y2="393.6746"/>
    <line x1="404.2956" x2="404.2956" y1="387.3669" y2="406.1698"/>
    <line x1="398.3176" x2="395.2309" y1="418.8972" y2="417.1151"/>
    <line x1="400.3003" x2="400.3003" y1="423.2642" y2="473.4492"/>
    <polyline points="423.4105,462.8142 447.9937,448.6211 447.9937,416.5375"/>
    <line x1="462.8503" x2="447.9937" y1="439.4198" y2="447.9972"/>
    <line x1="445.3917" x2="445.3917" y1="450.1234" y2="475.505"/>
    <line x1="462.5764" x2="445.3917" y1="463.8187" y2="453.897"/>
    <polyline points="487.3332,454.6983 522.1433,434.6007 522.1433,404.4353 505.5901,394.8783 470.78,414.9759 470.78,445.1413 487.3332,454.6983 487.3332,424.5329"/>
    <polyline points="486.9555,405.637 478.9114,400.9928 462.8503,410.2657 462.8503,455.0698 503.6138,478.6047"/>
    <polyline points="503.6138,475.0231 503.6138,478.6047 506.7156,476.8139"/>
    <polyline points="521.0245,403.7894 521.0245,392.2384 545.7169,377.9823"/>
    <polyline points="534.2489,371.3612 534.2489,345.7547 506.0765,329.4893 489.3962,339.1197"/>
    <polyline points="476.7448,355.6742 496.9063,367.3144 496.9063,377.0885"/>
    <line x1="495.8453" x2="521.0245" y1="377.7011" y2="392.2384"/>
    <line x1="496.9063" x2="534.2489" y1="367.3144" y2="345.7547"/>
    <line x1="489.3962" x2="463.1994" y1="297.0549" y2="312.1796"/>
    <line x1="445.327" x2="432.4675" y1="353.1759" y2="360.6004"/>
    <line x1="421.6939" x2="437.9778" y1="377.322" y2="386.7234"/>
    <line x1="393.3704" x2="383.2811" y1="365.0682" y2="359.2432"/>
    <line x1="374.3488" x2="376.1124" y1="386.075" y2="387.0932"/>
    <polyline points="366.2177,390.7695 383.2811,380.9179 383.2811,330.2652 350.6926,311.4502 301.9115,339.6139 301.9115,390.2667 326.9857,404.7433"/>
    <line x1="326.9857" x2="350.8163" y1="377.99" y2="391.7486"/>
    <polyline points="366.2177,382.8566 350.8163,391.7486 350.8163,433.3296 326.9857,419.571 326.9857,377.99 342.3872,369.098 366.2177,382.8566 366.2177,424.4376 350.8163,433.3296"/>
    <polyline points="343.4658,441.4919 350.0528,437.6889 365.1018,446.3774"/>
    <line x1="365.1018" x2="359.6267" y1="447.6613" y2="450.8224"/>
    <line x1="365.1018" x2="365.1018" y1="453.9834" y2="425.0819"/>
    <line x1="366.2177" x2="376.1124" y1="422.4404" y2="428.1531"/>
    <line x1="311.4647" x2="338.3433" y1="296.3589" y2="280.8405"/>
    <polyline points="385.2614,245.7556 350.9487,225.9451 350.9487,200.9965 361.1311,195.1176"/>
    <polyline points="350.9487,200.9965 385.2614,220.8069 385.2614,245.7556 398.571,238.0713 398.571,216.7335"/>
    <line x1="395.4439" x2="385.2614" y1="214.9281" y2="220.8069"/>
    <polyline points="406.1436,221.1056 424.8887,210.2831 424.8887,156.6778 378.7348,130.0309 359.9898,140.8533 359.9898,194.4586 406.1436,221.1056 406.1436,167.5003 424.8887,156.6778"/>
    <polyline points="424.3064,155.5189 437.1518,148.1026 437.1518,106.6832 406.1561,88.7878 393.3107,96.2041 393.3107,137.6235 424.3064,155.5189 424.3064,114.0994 393.3107,96.2041"/>
    <line x1="424.3064" x2="437.1518" y1="114.0994" y2="106.6832"/>
    <polyline points="424.8887,173.4995 450.5258,158.6979 474.2032,172.368 474.2032,197.1267 435.7537,219.3255 435.7537,194.5668 474.2032,172.368"/>
    <line x1="435.7537" x2="424.8887" y1="194.5668" y2="188.2939"/>
    <line x1="422.4903" x2="435.7537" y1="211.6678" y2="219.3255"/>
    <polyline points="435.5266,219.1944 435.5266,241.9613 414.7332,253.9663 414.7332,223.5747 408.3,219.8606"/>
    <line x1="414.7332" x2="428.9234" y1="223.5747" y2="215.382"/>
    <line x1="414.7332" x2="392.8866" y1="253.9663" y2="241.3532"/>
    <polyline points="350.9487,216.6116 347.0937,214.3859 347.0937,160.8086 359.9898,153.363"/>
    <line x1="359.9898" x2="406.1436" y1="140.8533" y2="167.5003"/>
    <line x1="359.9898" x2="347.0937" y1="168.2541" y2="160.8086"/>
    <polyline points="273.4945,251.9137 261.0502,259.0983 261.0502,284.7136"/>
    <polyline points="273.1313,291.5504 273.4945,291.3407 273.4945,251.9137 225.7327,224.3384 213.2884,231.523 213.2884,270.9501 239.1296,285.8695"/>
    <line x1="261.0502" x2="213.2884" y1="259.0983" y2="231.523"/>
    <polyline points="156.9401,266.3693 130.0672,281.8843 130.0672,305.69 116.4694,297.8394 116.4694,274.0337 143.3423,258.5186 156.9401,266.3693 156.9401,290.175 130.0672,305.69"/>
    <line x1="130.0672" x2="116.4694" y1="281.8843" y2="274.0337"/>
    <line x1="210.3435" x2="234.1061" y1="311.1717" y2="324.8911"/>
    <polyline points="236.46,323.5321 234.1061,324.8911 234.1061,345.5698 254.3683,333.8714"/>
    <polyline points="257.0365,335.4119 280.7033,321.7479 280.7033,296.0603 251.091,278.9636 227.4242,292.6276 227.4242,318.3153 257.0365,335.4119 257.0365,309.7243 280.7033,296.0603"/>
    <polyline points="273.4945,274.4368 311.4647,296.3589 311.4647,332.2143 338.3433,316.6959 338.3433,280.8405 300.0099,258.7087 273.4945,274.0174"/>
    <polyline points="171.0458,475.8957 148.0208,489.1893 148.0208,462.6022"/>
    <line x1="235.8558" x2="258.694" y1="548.1177" y2="561.3033"/>
    <polyline points="258.694,550.4927 258.694,561.3033 268.0563,555.898"/>
    <line x1="301.0438" x2="338.9467" y1="602.547" y2="580.6637"/>
    <line x1="326.8108" x2="311.4448" y1="606.9818" y2="598.1102"/>
    <line x1="311.4448" x2="310.1027" y1="618.9109" y2="619.6858"/>
    <polyline points="311.4448,620.4607 304.5062,616.4547 275.3446,633.2911"/>
    <line x1="292.0464" x2="311.4448" y1="642.9339" y2="631.7342"/>
    <line x1="301.6769" x2="279.2471" y1="648.494" y2="661.4439"/>
    <polyline points="301.6769,683.085 321.2079,671.8087 321.2079,649.5091"/>
    <polyline points="321.2079,658.6235 330.7481,653.1155 376.1903,679.3516 376.1903,704.6962 358.0525,715.168 358.0525,689.8235 321.2079,668.5513"/>
    <polyline points="312.6103,676.7726 312.6103,688.9319 358.0525,715.168"/>
    <line x1="358.0525" x2="376.1903" y1="689.8235" y2="679.3516"/>
    <polyline points="376.1903,680.0118 383.8645,684.4425 383.8645,695.2714 417.3628,675.9312 417.3628,665.1023 401.017,655.665 368.0904,674.6751"/>
    <line x1="376.1903" x2="383.8645" y1="690.8407" y2="695.2714"/>
    <line x1="383.8645" x2="417.3628" y1="684.4425" y2="665.1023"/>
    <polyline points="440.9029,664.0906 405.2788,643.523 405.2788,619.3534"/>
    <line x1="404.1568" x2="415.1184" y1="618.7056" y2="625.0343"/>
    <line x1="356.6903" x2="354.783" y1="637.6953" y2="636.5942"/>
    <polyline points="288.075,613.7285 285.499,612.2413 249.9137,632.7865 249.9137,638.1007"/>
    <line x1="254.516" x2="249.9137" y1="635.4436" y2="632.7865"/>
    <polyline points="244.3646,641.3045 279.2471,661.4439 279.2471,714.7619 301.6769,701.8121 301.6769,648.494 266.7944,628.3546 244.3646,641.3045 244.3646,663.7648"/>
    <polyline points="245.6909,664.5306 209.9231,685.1811 209.9231,704.1497 180.0101,686.8794 180.0101,667.9108 215.7779,647.2603 245.6909,664.5306 245.6909,683.4991 209.9231,704.1497"/>
    <polyline points="206.1096,701.9479 206.1096,713.1786 158.2309,740.8214 158.2309,707.3698 186.8657,690.8375"/>
    <line x1="209.9231" x2="180.0101" y1="685.1811" y2="667.9108"/>
    <polyline points="182.8267,666.2847 174.3345,661.3817 126.4558,689.0244 126.4558,722.476 158.2309,740.8214"/>
    <polyline points="150.9301,736.6063 142.1081,741.6997 142.1081,752.1425 190.9108,780.3188"/>
    <line x1="192.0692" x2="229.4513" y1="783.361" y2="804.9436"/>
    <polyline points="262.2596,799.4587 280.2656,809.8544 280.2656,825.3265 262.2596,814.9308 262.2596,799.4587 300.2771,777.5093 318.2831,787.9051 318.2831,803.3771 280.2656,825.3265"/>
    <polyline points="283.2946,823.5777 302.5221,834.6787 302.5221,853.3535 283.0875,864.574 283.0875,845.8992 262.9147,834.2525"/>
    <polyline points="265.7717,816.9584 265.7717,832.603 229.4513,853.5726 229.4513,804.9436 258.5091,788.178 230.5093,772.0123 230.5093,756.1525 276.4759,729.6136 311.8532,750.0387 311.8532,765.8985 296.9359,774.511"/>
    <polyline points="296.9359,771.4357 271.045,786.3838 271.045,794.3864"/>
    <line x1="271.045" x2="258.5091" y1="786.3838" y2="779.1462"/>
    <line x1="264.4223" x2="230.5093" y1="775.7322" y2="756.1525"/>
    <polyline points="230.5093,763.6153 228.3896,762.3915 192.0692,783.361 192.0692,831.99 229.4513,853.5726"/>
    <line x1="242.3407" x2="262.5146" y1="846.1309" y2="857.7783"/>
    <polyline points="262.5146,852.6963 262.5146,903.3558 291.7453,920.2322"/>
    <polyline points="296.4192,917.6737 296.4192,869.5203 285.4697,863.1987"/>
    <line x1="283.0875" x2="246.7419" y1="864.574" y2="843.5899"/>
    <polyline points="262.2596,814.7363 258.5091,812.571 258.5091,779.1462 284.4,764.1981 296.9359,771.4357 296.9359,779.4383"/>
    <line x1="285.8643" x2="311.8532" y1="765.0434" y2="750.0387"/>
    <line x1="318.2831" x2="280.2656" y1="787.9051" y2="809.8544"/>
    <polyline points="291.6769,818.7382 305.2032,826.5476 305.2032,839.7488 302.5221,841.2968"/>
    <polyline points="302.5221,844.7851 320.892,855.391 320.892,908.8013 300.9718,920.3022"/>
    <polyline points="320.5506,931.606 296.2133,945.6572 296.2133,968.5384"/>
    <line x1="296.2133" x2="271.9606" y1="945.6572" y2="931.6549"/>
    <line x1="271.9606" x2="264.8437" y1="936.129" y2="940.2379"/>
    <polyline points="271.9606,951.9829 264.8437,956.0918 264.8437,940.2379 230.5953,920.4646"/>
    <polyline points="278.958,927.615 248.5842,910.0787 230.5953,920.4646 230.5953,936.3185 264.8437,956.0918"/>
    <polyline points="275.1924,980.6748 271.9606,978.809 271.9606,931.6549 296.298,917.6037 320.5506,931.606 320.5506,972.2213"/>
    <line x1="338.044" x2="293.9068" y1="982.3211" y2="1007.8037"/>
    <polyline points="293.9068,1033.7319 338.044,1008.2493 338.044,982.3211 305.1924,963.3543 261.0553,988.8368 261.0553,1014.765 293.9068,1033.7319 293.9068,1007.8037 261.0553,988.8368"/>
    <polyline points="169.3582,953.5041 178.7067,948.1067 178.7067,927.2487 168.906,921.5902 159.5574,926.9876 159.5574,947.8456 169.3582,953.5041 169.3582,932.6461 159.5574,926.9876"/>
    <line x1="169.3582" x2="178.7067" y1="932.6461" y2="927.2487"/>
    <polyline points="140.6769,817.8217 113.2618,801.9936 113.2618,756.504 149.328,735.6813"/>
    <line x1="142.1081" x2="190.9108" y1="741.6997" y2="769.876"/>
    <polyline points="185.0004,776.9064 185.0004,792.2316 140.6769,817.8217 140.6769,772.3322 158.8773,761.8242"/>
    <line x1="140.6769" x2="113.2618" y1="772.3322" y2="756.504"/>
    <line x1="158.2309" x2="126.4558" y1="707.3698" y2="689.0244"/>
    <polyline points="175.2785,730.9789 216.7804,754.9401 216.7804,765.383 190.9108,780.3188 190.9108,769.876 216.7804,754.9401"/>
    <line x1="214.4068" x2="182.3535" y1="745.4001" y2="726.8941"/>
    <line x1="206.1096" x2="214.4068" y1="708.476" y2="713.2665"/>
    <polyline points="216.8882,700.1283 227.0254,705.9811 227.0254,738.1147 214.4068,745.4001 214.4068,713.2665 227.0254,705.9811"/>
    <polyline points="244.3646,684.2648 244.3646,694.6225 279.2471,714.7619"/>
    <line x1="388.5423" x2="409.8168" y1="745.0152" y2="757.298"/>
    <polyline points="424.3172,748.9262 409.8168,757.298 409.8168,803.4767 388.5423,791.1938 388.5423,745.0152 403.0427,736.6434 424.3172,748.9262 424.3172,795.1049 409.8168,803.4767"/>
    <line x1="401.0576" x2="376.5162" y1="830.1755" y2="816.0065"/>
    <line x1="387.6337" x2="407.5934" y1="837.9258" y2="849.4495"/>
    <line x1="407.5934" x2="416.0905" y1="842.0406" y2="846.9464"/>
    <line x1="416.0905" x2="427.5777" y1="841.2726" y2="847.9048"/>
    <polyline points="437.0136,842.4569 427.5777,847.9048 427.5777,865.494 416.0905,858.8619 416.0905,841.2726 425.5265,835.8248 437.0136,842.4569 437.0136,860.0462 427.5777,865.494"/>
    <polyline points="430.8569,875.386 430.8569,888.4742 442.1915,881.9301"/>
    <polyline points="443.9176,882.9267 469.5426,868.1321 469.5426,848.2178 433.2184,827.246 407.5934,842.0406 407.5934,861.9549 443.9176,882.9267 443.9176,863.0124 437.0136,859.0264"/>
    <line x1="443.9176" x2="469.5426" y1="863.0124" y2="848.2178"/>
    <line x1="469.5426" x2="475.2057" y1="850.5544" y2="847.2847"/>
    <polyline points="450.0528,836.9654 453.6924,834.864 475.2057,847.2847 475.2057,872.9445 462.4764,880.2938 462.4764,872.2118"/>
    <line x1="462.4764" x2="455.4771" y1="880.2938" y2="876.2528"/>
    <polyline points="430.8569,888.4742 387.6337,863.5193 387.6337,837.9258 416.637,821.1807 430.1804,829.0"/>
    <polyline points="431.6586,828.1466 393.5737,806.1583 376.5162,816.0065 376.5162,870.6985 416.4671,893.7642"/>
    <polyline points="416.4671,880.1663 416.4671,893.7642 428.2433,886.9653"/>
    <polyline points="405.0108,901.3158 378.2822,916.7476 378.2822,926.6889 365.3538,919.2247 365.3538,909.2833 392.0824,893.8516 405.0108,901.3158 405.0108,911.2572 378.2822,926.6889"/>
    <line x1="378.2822" x2="365.3538" y1="916.7476" y2="909.2833"/>
    <line x1="403.4538" x2="418.3366" y1="939.6121" y2="948.2047"/>
    <line x1="425.9799" x2="429.9383" y1="955.424" y2="957.7094"/>
    <polyline points="429.9383,953.1386 429.9383,957.7094 476.0559,931.0833 476.0559,898.9003 461.3358,890.4016 415.2182,917.0276 415.2182,932.82"/>
    <line x1="415.2182" x2="428.8947" y1="917.0276" y2="924.9238"/>
    <line x1="444.2491" x2="476.0559" y1="917.264" y2="898.9003"/>
    <polyline points="458.0883,925.2541 418.3366,948.2047 418.3366,959.8368 403.4538,951.2443 403.4538,939.6121 443.2055,916.6615 458.0883,925.2541 458.0883,936.8862 418.3366,959.8368"/>
    <polyline points="415.1758,977.7865 403.0318,984.7979 403.0318,1010.7993 364.3651,988.4751 364.3651,962.4737 376.5092,955.4624 415.1758,977.7865 415.1758,1003.7879 403.0318,1010.7993"/>
    <line x1="403.0318" x2="364.3651" y1="984.7979" y2="962.4737"/>
    <polyline points="470.1184,978.8913 487.4362,988.8897 487.4362,1029.0348 470.1184,1019.0364 470.1184,978.8913 479.9979,973.1874 497.3156,983.1858 497.3156,1023.3309 487.4362,1029.0348"/>
    <line x1="487.4362" x2="497.3156" y1="988.8897" y2="983.1858"/>
    <polyline points="558.2673,987.8404 599.9113,963.7972 599.9113,928.9104 587.3352,921.6496 545.6912,945.6927 545.6912,980.5796 558.2673,987.8404 558.2673,952.9536 599.9113,928.9104"/>
    <polyline points="597.5961,927.5737 630.5423,908.5522 649.5718,919.5389 649.5718,946.9331 606.1283,972.0152 606.1283,944.621 599.9113,941.0316"/>
    <line x1="606.1283" x2="649.5718" y1="944.621" y2="919.5389"/>
    <line x1="606.1283" x2="595.9028" y1="972.0152" y2="966.1115"/>
    <line x1="558.2673" x2="545.6912" y1="952.9536" y2="945.6927"/>
    <line x1="504.2013" x2="493.6869" y1="786.8972" y2="780.8267"/>
    <polyline points="431.9455,742.2998 442.9447,735.9494 442.9447,704.0613 431.1328,697.2417 420.1336,703.5921 420.1336,735.4802 431.9455,742.2998 431.9455,710.4117 442.9447,704.0613"/>
    <line x1="431.9455" x2="420.1336" y1="710.4117" y2="703.5921"/>
    <line x1="305.2032" x2="296.821" y1="826.5476" y2="831.3872"/>
    <line x1="302.5221" x2="283.0875" y1="834.6787" y2="845.8992"/>
    <line x1="296.4192" x2="320.892" y1="869.5203" y2="855.391"/>
    <polyline points="601.4799,562.3809 616.6215,553.6389 616.6215,512.9759 597.6165,502.0034 582.4748,510.7454 582.4748,551.4084 601.4799,562.3809 601.4799,521.718 582.4748,510.7454"/>
    <line x1="601.4799" x2="616.6215" y1="521.718" y2="512.9759"/>
    <polyline points="616.6215,548.4496 634.6222,538.0568 651.3288,547.7024 651.3288,572.1931 628.548,585.3456 628.548,560.8549 616.3355,553.804"/>
    <polyline points="611.8414,556.3987 611.8414,575.7001 628.548,585.3456"/>
    <line x1="628.548" x2="651.3288" y1="560.8549" y2="547.7024"/>
  </g>
</svg>
