<?xml version="1.0" encoding="utf-8" ?>
<svg xmlns="http://www.w3.org/2000/svg" xmlns:cc="http://creativecommons.org/ns#" xmlns:dc="http://purl.org/dc/elements/1.1/" xmlns:ev="http://www.w3.org/2001/xml-events" xmlns:inkscape="http://www.inkscape.org/namespaces/inkscape" xmlns:rdf="http://www.w3.org/1999/02/22-rdf-syntax-ns#" xmlns:sodipodi="http://sodipodi.sourceforge.net/DTD/sodipodi-0.dtd" xmlns:xlink="http://www.w3.org/1999/xlink" baseProfile="tiny" height="29.7cm" version="1.2" viewBox="0 0 793.7007874015749 1122.5196850393702" width="21.0cm">
  <metadata>
    <rdf:RDF>
      <cc:Work>
        <dc:format>image/svg+xml</dc:format>
        <dc:source/>
        <dc:date>2021-12-10T23:13:04.351980</dc:date>
      </cc:Work>
    </rdf:RDF>
  </metadata>
  <defs/>
  <g fill="none" id="layer1" inkscape:groupmode="layer" inkscape:label="1" stroke="#00f" style="display:inline">
    <polyline points="350.4997,720.9993 350.4997,669.622 353.9139,667.6508"/>
    <line x1="352.7568" x2="352.7568" y1="670.9251" y2="719.6961"/>
    <line x1="355.0139" x2="355.0139" y1="718.393" y2="689.5084"/>
    <line x1="356.2998" x2="356.2998" y1="690.2508" y2="650.6973"/>
    <line x1="353.9139" x2="415.9454" y1="649.3199" y2="685.1337"/>
    <line x1="413.5596" x2="413.5596" y1="683.7563" y2="723.3098"/>
    <line x1="413.8995" x2="413.8995" y1="723.5061" y2="723.7087"/>
    <polyline points="415.9454,724.6872 353.9139,688.8734 353.9139,649.3199 382.1834,632.9985 414.3987,651.598"/>
    <line x1="413.8995" x2="413.8995" y1="651.3098" y2="613.8267"/>
    <line x1="416.2773" x2="416.2773" y1="615.1995" y2="649.1076"/>
    <line x1="414.3987" x2="436.24" y1="650.1922" y2="662.8022"/>
    <line x1="436.0058" x2="436.0058" y1="662.667" y2="662.9375"/>
    <line x1="434.2364" x2="500.7856" y1="663.959" y2="702.3812"/>
    <line x1="499.5095" x2="499.5095" y1="701.6444" y2="703.118"/>
    <line x1="497.092" x2="497.092" y1="704.5137" y2="700.2487"/>
    <line x1="494.6745" x2="494.6745" y1="698.8529" y2="705.9095"/>
    <line x1="492.2569" x2="492.2569" y1="707.3053" y2="697.4571"/>
    <line x1="489.8394" x2="489.8394" y1="696.0614" y2="708.701"/>
    <line x1="487.4219" x2="487.4219" y1="710.0968" y2="694.6656"/>
    <line x1="485.0044" x2="485.0044" y1="693.2699" y2="711.4925"/>
    <line x1="482.5868" x2="482.5868" y1="712.8883" y2="691.8741"/>
    <line x1="480.1693" x2="480.1693" y1="690.4784" y2="742.4805"/>
    <polyline points="480.9722,742.944 434.2364,715.9611 434.2364,663.959 463.605,647.0031 550.6357,697.2503 550.6357,749.2524 521.2672,766.2083 521.2672,755.5488"/>
    <line x1="521.9081" x2="521.9081" y1="755.1788" y2="704.7816"/>
    <line x1="526.624" x2="526.624" y1="702.0588" y2="752.4561"/>
    <line x1="526.1619" x2="526.1619" y1="752.7229" y2="763.3824"/>
    <line x1="521.2672" x2="512.0358" y1="766.2083" y2="760.8786"/>
    <line x1="512.4761" x2="512.4761" y1="760.6244" y2="710.2271"/>
    <line x1="517.1921" x2="517.1921" y1="707.5043" y2="757.9016"/>
    <line x1="516.4321" x2="516.4321" y1="758.3404" y2="763.4168"/>
    <line x1="518.8497" x2="518.8497" y1="764.8126" y2="756.9446"/>
    <line x1="514.0146" x2="514.0146" y1="759.7361" y2="762.0211"/>
    <line x1="507.7601" x2="507.7601" y1="763.3472" y2="712.9499"/>
    <line x1="503.0441" x2="503.0441" y1="715.6727" y2="766.0699"/>
    <line x1="498.3281" x2="498.3281" y1="768.7927" y2="718.3954"/>
    <line x1="493.6121" x2="536.056" y1="721.1182" y2="696.6132"/>
    <line x1="531.34" x2="531.34" y1="699.336" y2="749.7333"/>
    <line x1="531.0567" x2="531.0567" y1="749.8969" y2="760.5564"/>
    <line x1="535.9515" x2="535.9515" y1="757.7304" y2="747.0709"/>
    <line x1="540.8462" x2="540.8462" y1="754.9044" y2="702.9023"/>
    <line x1="536.056" x2="550.6357" y1="705.6679" y2="697.2503"/>
    <line x1="545.741" x2="545.741" y1="700.0763" y2="752.0784"/>
    <polyline points="541.5733,754.4846 556.9573,763.3666 556.9573,774.8311 487.9486,814.6733"/>
    <line x1="488.924" x2="488.924" y1="814.1102" y2="802.6457"/>
    <line x1="484.0644" x2="443.8697" y1="805.4513" y2="782.2449"/>
    <line x1="446.2341" x2="446.2341" y1="783.61" y2="790.5895"/>
    <polyline points="443.8697,789.2244 443.8697,782.2449 480.9722,760.8238"/>
    <line x1="483.0788" x2="483.0788" y1="765.4341" y2="715.0368"/>
    <line x1="485.1855" x2="485.1855" y1="716.2531" y2="766.6504"/>
    <line x1="487.2921" x2="487.2921" y1="767.8666" y2="717.4694"/>
    <line x1="489.3988" x2="489.3988" y1="718.6857" y2="769.0829"/>
    <line x1="491.5055" x2="491.5055" y1="770.2992" y2="719.9019"/>
    <polyline points="480.9722,713.8205 493.6121,721.1182 493.6121,771.5155 480.9722,764.2178 480.9722,713.8205 523.4161,689.3155 536.056,696.6132 536.056,747.0105 493.6121,771.5155"/>
    <line x1="503.5026" x2="503.5026" y1="794.2287" y2="805.6932"/>
    <line x1="498.643" x2="498.643" y1="808.4989" y2="797.0344"/>
    <line x1="493.7835" x2="493.7835" y1="799.84" y2="811.3045"/>
    <polyline points="484.0644,812.4308 484.0644,805.4513 556.9573,763.3666"/>
    <line x1="552.0978" x2="552.0978" y1="766.1722" y2="777.6367"/>
    <line x1="547.2383" x2="547.2383" y1="780.4424" y2="768.9779"/>
    <line x1="542.3788" x2="542.3788" y1="771.7835" y2="783.248"/>
    <line x1="537.5192" x2="537.5192" y1="786.0537" y2="774.5892"/>
    <line x1="532.6597" x2="532.6597" y1="777.3948" y2="788.8593"/>
    <line x1="527.8002" x2="527.8002" y1="791.665" y2="780.2005"/>
    <line x1="522.9407" x2="522.9407" y1="783.0061" y2="794.4706"/>
    <polyline points="525.6059,792.9318 549.65,806.8137 549.65,886.495"/>
    <line x1="550.7085" x2="550.7085" y1="887.1062" y2="831.4503"/>
    <line x1="549.65" x2="615.454" y1="830.8392" y2="868.8311"/>
    <line x1="613.056" x2="613.056" y1="867.4467" y2="978.4805"/>
    <line x1="615.454" x2="558.4685" y1="979.865" y2="946.9644"/>
    <line x1="560.3004" x2="560.3004" y1="948.0221" y2="836.9882"/>
    <line x1="562.6984" x2="562.6984" y1="838.3727" y2="949.4065"/>
    <line x1="565.0964" x2="565.0964" y1="950.791" y2="839.7572"/>
    <line x1="567.4944" x2="567.4944" y1="841.1417" y2="952.1755"/>
    <line x1="569.8924" x2="569.8924" y1="953.56" y2="842.5261"/>
    <line x1="572.2903" x2="572.2903" y1="843.9106" y2="954.9444"/>
    <line x1="574.6883" x2="574.6883" y1="956.3289" y2="845.2951"/>
    <line x1="577.0863" x2="577.0863" y1="846.6796" y2="957.7134"/>
    <line x1="579.4843" x2="579.4843" y1="959.0979" y2="848.064"/>
    <line x1="581.8823" x2="581.8823" y1="849.4485" y2="960.4823"/>
    <line x1="584.2802" x2="584.2802" y1="961.8668" y2="850.833"/>
    <line x1="586.6782" x2="586.6782" y1="852.2175" y2="963.2513"/>
    <line x1="589.0762" x2="589.0762" y1="964.6358" y2="853.6019"/>
    <line x1="591.4742" x2="591.4742" y1="854.9864" y2="966.0202"/>
    <line x1="593.8722" x2="593.8722" y1="967.4047" y2="856.3709"/>
    <line x1="596.2701" x2="596.2701" y1="857.7553" y2="968.7892"/>
    <line x1="598.6681" x2="598.6681" y1="970.1737" y2="859.1398"/>
    <line x1="601.0661" x2="601.0661" y1="860.5243" y2="971.5581"/>
    <line x1="603.4641" x2="603.4641" y1="972.9426" y2="861.9088"/>
    <line x1="605.862" x2="605.862" y1="863.2932" y2="974.3271"/>
    <line x1="608.26" x2="608.26" y1="975.7116" y2="864.6777"/>
    <line x1="610.658" x2="610.658" y1="866.0622" y2="977.096"/>
    <line x1="620.1231" x2="620.1231" y1="977.1692" y2="866.1354"/>
    <line x1="624.7923" x2="624.7923" y1="863.4396" y2="974.4735"/>
    <line x1="629.4615" x2="646.909" y1="966.3181" y2="976.3914"/>
    <line x1="644.4879" x2="644.4879" y1="974.9936" y2="905.5833"/>
    <line x1="642.0668" x2="642.0668" y1="904.1855" y2="973.5957"/>
    <line x1="639.6456" x2="639.6456" y1="972.1979" y2="902.7876"/>
    <line x1="637.2245" x2="637.2245" y1="901.3898" y2="970.8"/>
    <line x1="634.8033" x2="634.8033" y1="969.4022" y2="899.9919"/>
    <line x1="632.3822" x2="632.3822" y1="898.5941" y2="968.0043"/>
    <line x1="629.961" x2="629.961" y1="966.6065" y2="897.1962"/>
    <line x1="629.4615" x2="646.909" y1="896.9078" y2="906.9812"/>
    <line x1="651.5487" x2="651.5487" y1="904.3025" y2="973.7128"/>
    <line x1="656.1883" x2="656.1883" y1="971.0341" y2="901.6238"/>
    <line x1="660.8279" x2="660.8279" y1="898.9451" y2="968.3554"/>
    <line x1="665.4675" x2="665.4675" y1="965.6767" y2="896.2665"/>
    <line x1="670.1071" x2="670.1071" y1="893.5878" y2="962.9981"/>
    <line x1="674.7467" x2="674.7467" y1="960.3194" y2="890.9091"/>
    <line x1="679.3863" x2="679.3863" y1="888.2304" y2="957.6407"/>
    <line x1="684.0259" x2="684.0259" y1="954.962" y2="885.5518"/>
    <line x1="688.6655" x2="688.6655" y1="882.8731" y2="952.2834"/>
    <line x1="693.3051" x2="693.3051" y1="949.6047" y2="880.1944"/>
    <line x1="697.9447" x2="697.9447" y1="877.5157" y2="946.926"/>
    <line x1="702.5843" x2="702.5843" y1="944.2473" y2="874.8371"/>
    <line x1="707.2239" x2="707.2239" y1="872.1584" y2="941.5687"/>
    <line x1="711.8635" x2="711.8635" y1="938.89" y2="869.4797"/>
    <line x1="716.5031" x2="716.5031" y1="866.801" y2="936.2113"/>
    <line x1="721.1427" x2="721.1427" y1="933.5326" y2="864.1224"/>
    <line x1="725.7823" x2="725.7823" y1="861.4437" y2="930.854"/>
    <polyline points="730.4219,858.765 646.909,906.9812 646.909,976.3914 730.4219,928.1753 730.4219,858.765 645.6818,809.8403 593.4878,839.9745"/>
    <line x1="557.9025" x2="557.9025" y1="835.6038" y2="891.2596"/>
    <line x1="558.4685" x2="492.6047" y1="891.5864" y2="929.6129"/>
    <line x1="490.188" x2="490.188" y1="928.2176" y2="1040.2536"/>
    <line x1="487.7712" x2="487.7712" y1="1038.8583" y2="926.8223"/>
    <line x1="485.3545" x2="485.3545" y1="925.427" y2="1037.463"/>
    <line x1="482.9378" x2="482.9378" y1="1036.0677" y2="924.0317"/>
    <line x1="480.5211" x2="480.5211" y1="922.6364" y2="1034.6724"/>
    <line x1="478.1044" x2="478.1044" y1="1033.2771" y2="921.2411"/>
    <line x1="475.6876" x2="475.6876" y1="919.8458" y2="1031.8818"/>
    <line x1="473.2709" x2="473.2709" y1="1030.4865" y2="918.4505"/>
    <line x1="470.8542" x2="470.8542" y1="917.0552" y2="1029.0912"/>
    <line x1="468.4375" x2="468.4375" y1="1027.6959" y2="915.6599"/>
    <line x1="466.0208" x2="466.0208" y1="914.2647" y2="1026.3006"/>
    <line x1="463.604" x2="463.604" y1="1024.9053" y2="912.8694"/>
    <line x1="461.1873" x2="461.1873" y1="911.4741" y2="1023.51"/>
    <line x1="458.7706" x2="458.7706" y1="1022.1148" y2="910.4854"/>
    <line x1="458.4406" x2="458.4406" y1="910.676" y2="845.3968"/>
    <line x1="463.0363" x2="463.0363" y1="842.7435" y2="908.0226"/>
    <polyline points="459.1228,910.2821 492.6047,929.6129 492.6047,1041.6489 558.4685,1003.6224 558.4685,891.5864 514.9675,866.4711 499.8019,875.227 499.8019,835.5935 549.65,806.8137"/>
    <line x1="545.1191" x2="545.1191" y1="809.4296" y2="883.8791"/>
    <line x1="540.5882" x2="540.5882" y1="881.2632" y2="812.0455"/>
    <line x1="536.0573" x2="536.0573" y1="814.6614" y2="878.6473"/>
    <line x1="531.5265" x2="531.5265" y1="876.0314" y2="817.2773"/>
    <line x1="526.9956" x2="526.9956" y1="819.8932" y2="873.4155"/>
    <line x1="522.4647" x2="522.4647" y1="870.7996" y2="822.5091"/>
    <line x1="517.9338" x2="517.9338" y1="825.125" y2="868.1837"/>
    <line x1="513.4029" x2="513.4029" y1="867.3744" y2="827.7409"/>
    <line x1="508.872" x2="508.872" y1="830.3569" y2="869.9903"/>
    <line x1="504.3412" x2="504.3412" y1="872.6062" y2="832.9728"/>
    <polyline points="499.8019,821.5168 435.4621,858.6635 435.4621,923.9426 358.2357,879.356 358.2357,814.0768 422.5756,776.9302 499.8019,821.5168 499.8019,886.796 435.4621,923.9426"/>
    <line x1="433.0487" x2="433.0487" y1="922.5493" y2="857.2701"/>
    <line x1="430.6354" x2="430.6354" y1="855.8768" y2="921.1559"/>
    <line x1="428.2221" x2="428.2221" y1="919.7626" y2="854.4835"/>
    <line x1="425.8088" x2="425.8088" y1="853.0901" y2="918.3693"/>
    <line x1="423.3954" x2="423.3954" y1="916.9759" y2="851.6968"/>
    <line x1="420.9821" x2="420.9821" y1="850.3035" y2="915.5826"/>
    <line x1="418.5688" x2="418.5688" y1="914.1893" y2="848.9101"/>
    <line x1="416.1555" x2="416.1555" y1="847.5168" y2="912.7959"/>
    <line x1="413.7422" x2="413.7422" y1="911.4026" y2="846.1235"/>
    <line x1="411.3288" x2="411.3288" y1="844.7301" y2="910.0093"/>
    <line x1="408.9155" x2="408.9155" y1="908.6159" y2="843.3368"/>
    <line x1="406.5022" x2="406.5022" y1="841.9435" y2="907.2226"/>
    <line x1="404.0889" x2="404.0889" y1="905.8293" y2="840.5501"/>
    <line x1="401.6755" x2="401.6755" y1="839.1568" y2="904.436"/>
    <line x1="397.6627" x2="397.6627" y1="904.051" y2="902.1191"/>
    <line x1="396.8489" x2="396.8489" y1="901.6493" y2="836.3701"/>
    <polyline points="399.2622,837.7635 399.3358,903.0851 352.5902,930.0736 352.5902,941.3407 412.8605,976.1377"/>
    <line x1="411.6806" x2="411.6806" y1="975.4566" y2="984.2249"/>
    <polyline points="406.9253,986.9705 393.0314,978.9488 393.0314,964.6894"/>
    <line x1="393.574" x2="393.574" y1="965.0027" y2="953.7356"/>
    <line x1="395.9848" x2="395.9848" y1="955.1275" y2="966.3946"/>
    <line x1="395.347" x2="395.347" y1="966.0264" y2="980.2858"/>
    <line x1="397.6627" x2="397.6627" y1="981.6227" y2="967.3633"/>
    <line x1="398.3956" x2="398.3956" y1="967.7865" y2="956.5194"/>
    <line x1="400.8064" x2="400.8064" y1="957.9113" y2="969.1783"/>
    <line x1="399.9783" x2="399.9783" y1="968.7002" y2="982.9596"/>
    <line x1="402.294" x2="402.294" y1="984.2966" y2="970.0372"/>
    <line x1="403.2172" x2="403.2172" y1="970.5702" y2="959.3031"/>
    <line x1="405.628" x2="405.628" y1="960.695" y2="971.9621"/>
    <line x1="404.6096" x2="404.6096" y1="971.3741" y2="985.6335"/>
    <line x1="410.4497" x2="410.4497" y1="974.7459" y2="963.4788"/>
    <line x1="412.8605" x2="449.1037" y1="964.8707" y2="943.9456"/>
    <line x1="447.224" x2="447.224" y1="945.0309" y2="956.2979"/>
    <polyline points="449.1037,955.2127 412.8605,976.1377 412.8605,964.8707 352.5902,930.0736"/>
    <line x1="355.001" x2="355.001" y1="931.4655" y2="942.7326"/>
    <line x1="357.4118" x2="357.4118" y1="944.1245" y2="932.8574"/>
    <line x1="359.8226" x2="359.8226" y1="934.2493" y2="945.5163"/>
    <line x1="362.2334" x2="362.2334" y1="946.9082" y2="935.6412"/>
    <line x1="364.6443" x2="364.6443" y1="937.033" y2="948.3001"/>
    <line x1="367.0551" x2="367.0551" y1="949.692" y2="938.4249"/>
    <line x1="369.4659" x2="369.4659" y1="939.8168" y2="951.0839"/>
    <line x1="371.8767" x2="371.8767" y1="952.4757" y2="941.2087"/>
    <line x1="374.2875" x2="374.2875" y1="942.6006" y2="953.8676"/>
    <line x1="376.6983" x2="376.6983" y1="955.2595" y2="943.9924"/>
    <line x1="379.1091" x2="379.1091" y1="945.3843" y2="956.6514"/>
    <line x1="381.5199" x2="381.5199" y1="958.0433" y2="946.7762"/>
    <line x1="383.9307" x2="383.9307" y1="948.1681" y2="959.4352"/>
    <line x1="386.3415" x2="386.3415" y1="960.827" y2="949.56"/>
    <line x1="388.7524" x2="388.7524" y1="950.9519" y2="962.2189"/>
    <line x1="391.1632" x2="391.1632" y1="963.6108" y2="952.3437"/>
    <line x1="408.0388" x2="408.0388" y1="962.0869" y2="973.354"/>
    <polyline points="406.9253,972.7111 406.9253,986.9705 449.1037,962.6187"/>
    <line x1="444.9683" x2="444.9683" y1="965.0063" y2="957.6003"/>
    <line x1="442.3149" x2="442.3149" y1="959.1322" y2="947.8651"/>
    <line x1="437.4058" x2="437.4058" y1="950.6994" y2="961.9665"/>
    <line x1="435.4575" x2="435.4575" y1="963.0913" y2="970.4973"/>
    <line x1="430.7022" x2="430.7022" y1="973.2429" y2="965.8368"/>
    <line x1="432.4968" x2="432.4968" y1="964.8007" y2="953.5336"/>
    <line x1="427.5877" x2="427.5877" y1="956.3679" y2="967.635"/>
    <line x1="425.9468" x2="425.9468" y1="968.5824" y2="975.9884"/>
    <line x1="421.1914" x2="421.1914" y1="978.7339" y2="971.3279"/>
    <line x1="422.6786" x2="422.6786" y1="970.4692" y2="959.2022"/>
    <line x1="417.7695" x2="417.7695" y1="962.0364" y2="973.3035"/>
    <line x1="416.436" x2="416.436" y1="974.0734" y2="981.4794"/>
    <line x1="440.2129" x2="440.2129" y1="967.7518" y2="960.3458"/>
    <line x1="440.0578" x2="440.0578" y1="921.2893" y2="856.0101"/>
    <line x1="435.4621" x2="358.2357" y1="858.6635" y2="814.0768"/>
    <line x1="358.6416" x2="358.6416" y1="813.8425" y2="782.0136"/>
    <line x1="359.2926" x2="301.7307" y1="782.3895" y2="749.1561"/>
    <line x1="304.1019" x2="304.1019" y1="750.5251" y2="791.8587"/>
    <polyline points="301.7307,790.4897 301.7307,749.1561 380.158,704.0254 380.158,664.4719"/>
    <line x1="382.5438" x2="382.5438" y1="665.8493" y2="705.4029"/>
    <line x1="382.9887" x2="382.9887" y1="705.6597" y2="705.8624"/>
    <line x1="384.9297" x2="384.9297" y1="706.7803" y2="667.2268"/>
    <line x1="387.3155" x2="387.3155" y1="668.6043" y2="708.1578"/>
    <line x1="387.7442" x2="387.7442" y1="708.4053" y2="708.608"/>
    <line x1="389.7013" x2="389.7013" y1="709.5352" y2="669.9817"/>
    <line x1="392.0871" x2="392.0871" y1="671.3592" y2="710.9127"/>
    <line x1="392.4997" x2="392.4997" y1="711.1509" y2="711.3536"/>
    <line x1="394.473" x2="394.473" y1="712.2901" y2="672.7366"/>
    <line x1="396.8588" x2="396.8588" y1="674.1141" y2="713.6676"/>
    <line x1="397.2552" x2="397.2552" y1="713.8965" y2="714.0991"/>
    <line x1="399.2446" x2="399.2446" y1="715.0451" y2="675.4915"/>
    <line x1="401.6304" x2="401.6304" y1="676.869" y2="716.4225"/>
    <line x1="402.0107" x2="402.0107" y1="716.6421" y2="716.8447"/>
    <line x1="404.0163" x2="404.0163" y1="717.8" y2="678.2465"/>
    <line x1="406.4021" x2="406.4021" y1="679.6239" y2="719.1774"/>
    <line x1="406.7662" x2="406.7662" y1="719.3877" y2="719.5903"/>
    <line x1="408.7879" x2="408.7879" y1="720.5549" y2="681.0014"/>
    <line x1="411.1737" x2="411.1737" y1="682.3788" y2="721.9323"/>
    <line x1="411.5218" x2="411.5218" y1="722.1333" y2="722.3359"/>
    <line x1="409.144" x2="409.144" y1="720.9631" y2="720.7605"/>
    <line x1="404.3885" x2="404.3885" y1="718.2175" y2="718.0149"/>
    <line x1="399.633" x2="399.633" y1="715.4719" y2="715.2693"/>
    <line x1="394.8775" x2="394.8775" y1="712.7263" y2="712.5237"/>
    <line x1="390.1219" x2="390.1219" y1="709.9808" y2="709.7781"/>
    <line x1="385.3664" x2="385.3664" y1="707.2352" y2="707.0325"/>
    <line x1="380.6109" x2="430.5438" y1="704.2869" y2="733.3183"/>
    <line x1="428.1661" x2="428.1661" y1="731.9455" y2="717.6316"/>
    <line x1="430.0801" x2="430.0801" y1="716.5266" y2="681.9089"/>
    <line x1="431.2042" x2="431.2042" y1="682.5579" y2="659.8948"/>
    <line x1="428.8034" x2="428.8034" y1="658.5087" y2="681.1718"/>
    <line x1="426.4027" x2="426.4027" y1="679.7857" y2="657.1226"/>
    <line x1="424.0019" x2="424.0019" y1="655.7365" y2="678.3996"/>
    <line x1="425.3685" x2="425.3685" y1="679.6933" y2="719.2468"/>
    <line x1="425.7883" x2="425.7883" y1="719.0044" y2="730.5727"/>
    <line x1="423.4105" x2="423.4105" y1="729.1999" y2="720.3772"/>
    <line x1="421.0328" x2="421.0328" y1="721.75" y2="727.8271"/>
    <line x1="418.655" x2="418.655" y1="726.4543" y2="723.1228"/>
    <line x1="420.657" x2="420.657" y1="721.967" y2="682.4135"/>
    <line x1="421.6011" x2="421.6011" y1="677.0135" y2="654.3504"/>
    <line x1="419.2003" x2="419.2003" y1="652.9643" y2="675.6274"/>
    <line x1="416.7995" x2="416.7995" y1="674.2413" y2="651.5782"/>
    <line x1="418.655" x2="418.655" y1="647.7348" y2="616.5723"/>
    <line x1="421.0328" x2="421.0328" y1="617.9451" y2="646.362"/>
    <line x1="423.4105" x2="423.4105" y1="644.9892" y2="619.3179"/>
    <line x1="425.7883" x2="425.7883" y1="620.6907" y2="643.6164"/>
    <line x1="428.1661" x2="428.1661" y1="642.2436" y2="622.0635"/>
    <line x1="430.5438" x2="511.6901" y1="623.4363" y2="576.5864"/>
    <line x1="506.9168" x2="506.9168" y1="579.3423" y2="672.0091"/>
    <polyline points="511.6901,674.765 511.6901,576.5864 461.7572,547.7577 380.6109,594.6075 380.6109,633.9063"/>
    <line x1="382.9887" x2="382.9887" y1="633.4634" y2="595.9803"/>
    <line x1="385.3664" x2="385.3664" y1="597.3531" y2="634.8362"/>
    <line x1="387.7442" x2="387.7442" y1="636.209" y2="598.7259"/>
    <line x1="390.1219" x2="390.1219" y1="600.0987" y2="637.5818"/>
    <line x1="392.4997" x2="392.4997" y1="638.9546" y2="601.4715"/>
    <line x1="394.8775" x2="394.8775" y1="602.8443" y2="640.3274"/>
    <line x1="397.2552" x2="397.2552" y1="641.7002" y2="604.2171"/>
    <line x1="399.633" x2="399.633" y1="605.5899" y2="643.073"/>
    <line x1="402.0107" x2="402.0107" y1="644.4458" y2="606.9627"/>
    <line x1="404.3885" x2="404.3885" y1="608.3355" y2="645.8186"/>
    <line x1="406.7662" x2="406.7662" y1="647.1914" y2="609.7083"/>
    <line x1="409.144" x2="409.144" y1="611.0811" y2="648.5642"/>
    <line x1="411.5218" x2="411.5218" y1="649.937" y2="612.4539"/>
    <line x1="435.3171" x2="435.3171" y1="620.6804" y2="638.1149"/>
    <polyline points="430.5438,640.8708 430.5438,623.4363 380.6109,594.6075"/>
    <line x1="348.3489" x2="348.3489" y1="583.3821" y2="516.8938"/>
    <line x1="351.9014" x2="351.9014" y1="513.4337" y2="416.7907"/>
    <line x1="354.3076" x2="354.3076" y1="418.18" y2="525.771"/>
    <line x1="354.7558" x2="354.7558" y1="526.0297" y2="532.1829"/>
    <line x1="353.9486" x2="353.9486" y1="531.7169" y2="550.2586"/>
    <line x1="353.1217" x2="365.9613" y1="549.7811" y2="557.1941"/>
    <line x1="363.5588" x2="363.5588" y1="555.807" y2="537.2653"/>
    <line x1="364.199" x2="364.199" y1="537.635" y2="531.4818"/>
    <line x1="363.9326" x2="363.9326" y1="531.3279" y2="423.7369"/>
    <line x1="366.3388" x2="366.3388" y1="425.1262" y2="532.7172"/>
    <polyline points="366.5598,532.8448 366.5598,538.998 440.4608,496.3312 440.4608,431.9643 416.8527,418.3342 400.158,427.9729"/>
    <line x1="401.7166" x2="401.7166" y1="422.7701" y2="397.9325"/>
    <line x1="403.9037" x2="403.9037" y1="399.1952" y2="314.4573"/>
    <line x1="406.3543" x2="406.3543" y1="315.8721" y2="400.6101"/>
    <line x1="404.1653" x2="404.1653" y1="399.3462" y2="424.1839"/>
    <line x1="405.4431" x2="400.158" y1="424.9216" y2="421.8703"/>
    <line x1="409.0475" x2="409.0475" y1="422.8406" y2="402.165"/>
    <line x1="408.8048" x2="408.8048" y1="402.0249" y2="317.2869"/>
    <line x1="411.2554" x2="411.2554" y1="318.7018" y2="403.4397"/>
    <line x1="413.706" x2="413.706" y1="404.8546" y2="320.1166"/>
    <line x1="416.1566" x2="416.1566" y1="321.5314" y2="406.2694"/>
    <line x1="413.9298" x2="413.9298" y1="404.9838" y2="420.0218"/>
    <line x1="418.812" x2="418.812" y1="419.4654" y2="407.8025"/>
    <line x1="418.6071" x2="418.6071" y1="407.6842" y2="322.9463"/>
    <line x1="421.0577" x2="421.0577" y1="324.3611" y2="409.0991"/>
    <line x1="423.5083" x2="423.5083" y1="410.5139" y2="325.7759"/>
    <line x1="425.9588" x2="425.9588" y1="327.1908" y2="411.9287"/>
    <line x1="423.6943" x2="423.6943" y1="410.6213" y2="422.2842"/>
    <line x1="428.5765" x2="428.5765" y1="425.103" y2="413.4401"/>
    <line x1="428.4094" x2="428.4094" y1="413.3436" y2="328.6056"/>
    <line x1="430.86" x2="430.86" y1="330.0205" y2="414.7584"/>
    <line x1="438.0176" x2="438.0176" y1="413.4557" y2="328.7177"/>
    <polyline points="440.1298,324.502 450.4188,318.5617 480.8826,336.15"/>
    <line x1="477.2353" x2="477.2353" y1="343.625" y2="401.5396"/>
    <line x1="477.3991" x2="477.3991" y1="401.6342" y2="436.9325"/>
    <polyline points="472.5168,439.7512 472.5854,353.8306 442.7246,371.0707"/>
    <line x1="443.2233" x2="443.2233" y1="370.7828" y2="446.734"/>
    <polyline points="440.4608,445.1391 457.4776,454.9637 457.4776,487.0609"/>
    <line x1="452.6609" x2="452.6609" y1="489.8418" y2="457.7446"/>
    <line x1="457.4776" x2="440.4608" y1="454.9637" y2="464.7884"/>
    <line x1="443.0276" x2="443.0276" y1="463.3064" y2="495.4035"/>
    <line x1="438.211" x2="438.211" y1="497.6301" y2="498.1844"/>
    <line x1="435.842" x2="435.842" y1="498.9979" y2="434.631"/>
    <line x1="438.3411" x2="438.3411" y1="430.7405" y2="413.2689"/>
    <polyline points="433.4588,427.9218 433.3105,416.1733 442.7246,410.7381 442.7246,326.0001 410.8672,307.6072 401.4531,313.0424 401.4531,397.7804 433.3105,416.1733 433.3105,331.4353 442.7246,326.0001"/>
    <line x1="433.3105" x2="401.4531" y1="331.4353" y2="313.0424"/>
    <polyline points="401.4531,346.832 362.5382,369.2995 362.5382,386.3989"/>
    <line x1="364.9869" x2="364.9869" y1="387.8126" y2="370.7133"/>
    <line x1="367.4355" x2="367.4355" y1="372.127" y2="389.2263"/>
    <line x1="369.8842" x2="369.8842" y1="390.6401" y2="373.5407"/>
    <line x1="372.3328" x2="372.3328" y1="374.9545" y2="392.0538"/>
    <line x1="374.7815" x2="374.7815" y1="393.4675" y2="376.3682"/>
    <line x1="377.2301" x2="377.2301" y1="377.7819" y2="395.1417"/>
    <polyline points="376.6199,394.7893 376.6199,394.5289 358.9977,384.3548"/>
    <polyline points="358.9977,384.6152 358.9977,367.3151 320.9604,345.3543"/>
    <line x1="316.4624" x2="316.4624" y1="332.7982" y2="395.9983"/>
    <line x1="316.1751" x2="368.7451" y1="396.1642" y2="426.5154"/>
    <line x1="373.2326" x2="373.2326" y1="423.9245" y2="531.5155"/>
    <line x1="371.1786" x2="371.1786" y1="532.7014" y2="536.3313"/>
    <line x1="370.778" x2="370.778" y1="536.5626" y2="554.4132"/>
    <line x1="375.5946" x2="375.5946" y1="551.6323" y2="533.7817"/>
    <line x1="375.7974" x2="375.7974" y1="533.6646" y2="530.0347"/>
    <line x1="377.7202" x2="377.7202" y1="528.9246" y2="421.3336"/>
    <line x1="382.2078" x2="382.2078" y1="418.7427" y2="526.3337"/>
    <line x1="380.4162" x2="380.4112" y1="527.3681" y2="548.8514"/>
    <line x1="385.2279" x2="385.2279" y1="546.0705" y2="528.2199"/>
    <line x1="385.0351" x2="385.0351" y1="528.3313" y2="524.7014"/>
    <line x1="386.6953" x2="386.6953" y1="523.7428" y2="416.1518"/>
    <line x1="391.1829" x2="391.1829" y1="413.5609" y2="521.1519"/>
    <line x1="389.6539" x2="389.6539" y1="522.0347" y2="525.6646"/>
    <line x1="390.0445" x2="390.0445" y1="525.4391" y2="543.2896"/>
    <line x1="394.8612" x2="394.8612" y1="540.5087" y2="522.6582"/>
    <line x1="394.2727" x2="394.2727" y1="522.9979" y2="519.368"/>
    <line x1="395.6705" x2="395.6705" y1="518.561" y2="410.97"/>
    <line x1="396.8193" x2="396.8193" y1="406.4515" y2="389.0917"/>
    <line x1="394.3707" x2="394.3707" y1="387.678" y2="405.0378"/>
    <line x1="391.922" x2="391.922" y1="403.6241" y2="386.2643"/>
    <line x1="389.4734" x2="389.4734" y1="384.8506" y2="402.2103"/>
    <line x1="387.0247" x2="387.0247" y1="400.7966" y2="383.4368"/>
    <line x1="384.5761" x2="384.5761" y1="382.0231" y2="399.3829"/>
    <line x1="382.1274" x2="382.1274" y1="397.9691" y2="380.6094"/>
    <line x1="379.6788" x2="379.6788" y1="379.1956" y2="396.5554"/>
    <line x1="376.6199" x2="376.3943" y1="394.5289" y2="394.6591"/>
    <line x1="399.268" x2="399.268" y1="390.5055" y2="407.8652"/>
    <polyline points="400.158,408.3791 368.7451,426.5154 368.7451,534.1064 400.158,515.9701 400.158,408.3791 320.9604,362.6544"/>
    <line x1="344.0154" x2="358.9977" y1="375.9652" y2="367.3151"/>
    <line x1="362.5382" x2="401.4531" y1="369.2995" y2="391.7671"/>
    <line x1="354.5847" x2="354.5847" y1="382.0673" y2="369.863"/>
    <line x1="350.1716" x2="350.1716" y1="372.4109" y2="379.5195"/>
    <line x1="345.7586" x2="345.7586" y1="376.9716" y2="374.9588"/>
    <line x1="330.2452" x2="330.2452" y1="404.2875" y2="500.9305"/>
    <line x1="327.839" x2="327.839" y1="499.5413" y2="402.8983"/>
    <line x1="325.4328" x2="325.4328" y1="401.5091" y2="498.152"/>
    <line x1="323.0265" x2="323.0265" y1="496.7628" y2="400.1198"/>
    <line x1="320.6203" x2="320.6203" y1="398.7306" y2="495.3735"/>
    <line x1="318.2141" x2="318.2141" y1="493.9843" y2="397.3413"/>
    <line x1="315.8078" x2="315.8078" y1="396.3762" y2="492.5951"/>
    <line x1="313.4016" x2="313.4016" y1="491.2058" y2="397.7655"/>
    <line x1="311.9644" x2="311.9644" y1="398.5953" y2="335.3952"/>
    <line x1="307.4663" x2="307.4663" y1="337.9921" y2="401.1922"/>
    <line x1="308.5891" x2="308.5891" y1="400.544" y2="488.4273"/>
    <line x1="306.1829" x2="306.1829" y1="488.0415" y2="401.9332"/>
    <line x1="303.7766" x2="303.7766" y1="403.3225" y2="489.4308"/>
    <line x1="301.3704" x2="301.3704" y1="490.82" y2="404.7117"/>
    <line x1="302.9683" x2="302.9683" y1="403.7891" y2="340.589"/>
    <line x1="298.4703" x2="298.4703" y1="343.186" y2="406.3861"/>
    <line x1="298.9641" x2="298.9641" y1="406.1009" y2="492.2093"/>
    <polyline points="297.5706,493.0138 282.1205,484.0937 282.1205,415.8256"/>
    <line x1="280.4782" x2="280.4782" y1="416.7738" y2="353.5737"/>
    <line x1="284.9762" x2="284.9762" y1="350.9768" y2="414.1769"/>
    <line x1="284.5267" x2="284.5267" y1="414.4364" y2="485.4829"/>
    <line x1="286.6775" x2="286.6775" y1="486.7247" y2="499.303"/>
    <line x1="289.08" x2="289.08" y1="497.9159" y2="488.1118"/>
    <line x1="289.3392" x2="289.4742" y1="488.2614" y2="348.3798"/>
    <line x1="293.9723" x2="293.9723" y1="345.7829" y2="408.983"/>
    <line x1="294.1517" x2="294.1517" y1="408.8794" y2="491.0399"/>
    <line x1="293.8851" x2="293.8851" y1="490.886" y2="495.1417"/>
    <line x1="296.2876" x2="296.2876" y1="493.7545" y2="492.2731"/>
    <line x1="296.5579" x2="296.5579" y1="492.4291" y2="407.4902"/>
    <line x1="291.7454" x2="291.7454" y1="410.2687" y2="489.6507"/>
    <line x1="291.4826" x2="291.4826" y1="489.4989" y2="496.5288"/>
    <line x1="286.9329" x2="286.9329" y1="486.8722" y2="413.0472"/>
    <line x1="275.9802" x2="275.9802" y1="419.3707" y2="356.1707"/>
    <line x1="271.4821" x2="224.7309" y1="358.7676" y2="331.7758"/>
    <line x1="227.0685" x2="227.0685" y1="333.1253" y2="396.3254"/>
    <line x1="229.406" x2="229.406" y1="397.675" y2="334.4749"/>
    <line x1="231.7436" x2="231.7436" y1="335.8245" y2="399.0246"/>
    <line x1="234.0812" x2="234.0812" y1="400.3742" y2="337.1741"/>
    <line x1="236.4187" x2="236.4187" y1="338.5237" y2="401.7238"/>
    <line x1="238.7563" x2="238.7563" y1="403.0734" y2="339.8733"/>
    <line x1="241.0938" x2="241.0938" y1="341.2229" y2="404.423"/>
    <line x1="243.4314" x2="243.4314" y1="405.7726" y2="342.5725"/>
    <line x1="245.769" x2="245.769" y1="343.9221" y2="407.1222"/>
    <line x1="248.1065" x2="248.1065" y1="408.4718" y2="345.2717"/>
    <line x1="250.4441" x2="250.4441" y1="346.6213" y2="409.8214"/>
    <line x1="252.7816" x2="252.7816" y1="411.1709" y2="347.9709"/>
    <line x1="255.1192" x2="255.1192" y1="349.3204" y2="412.5205"/>
    <line x1="257.4568" x2="257.4568" y1="413.8701" y2="350.67"/>
    <line x1="259.7943" x2="259.7943" y1="352.0196" y2="415.2197"/>
    <line x1="262.1319" x2="262.1319" y1="416.5693" y2="353.3692"/>
    <line x1="264.4695" x2="264.4695" y1="354.7188" y2="417.9189"/>
    <line x1="266.807" x2="266.807" y1="419.2685" y2="356.0684"/>
    <line x1="269.1446" x2="269.1446" y1="357.418" y2="420.6181"/>
    <polyline points="271.4821,421.9677 320.9604,393.4014 320.9604,330.2013 274.2092,303.2095 224.7309,331.7758 224.7309,394.9758 271.4821,421.9677 271.4821,358.7676 320.9604,330.2013"/>
    <line x1="298.2872" x2="298.2872" y1="295.04" y2="236.0063"/>
    <line x1="303.0825" x2="303.0825" y1="233.2377" y2="292.2714"/>
    <line x1="307.8778" x2="307.8778" y1="289.5029" y2="230.4691"/>
    <line x1="312.6731" x2="312.6731" y1="227.7006" y2="286.7343"/>
    <line x1="317.4684" x2="317.4684" y1="283.9657" y2="224.932"/>
    <line x1="322.2637" x2="322.2637" y1="222.1634" y2="281.1971"/>
    <line x1="327.059" x2="327.059" y1="278.4286" y2="219.3948"/>
    <line x1="331.8543" x2="331.8543" y1="216.6263" y2="275.66"/>
    <line x1="336.6496" x2="357.7" y1="251.6897" y2="239.5363"/>
    <line x1="358.7329" x2="358.7329" y1="240.1326" y2="217.2989"/>
    <line x1="361.0359" x2="361.0359" y1="218.6285" y2="241.4623"/>
    <line x1="363.3389" x2="363.3389" y1="242.7919" y2="219.9582"/>
    <line x1="365.642" x2="365.642" y1="221.2878" y2="244.1215"/>
    <line x1="367.945" x2="367.945" y1="245.4512" y2="222.6175"/>
    <line x1="370.248" x2="370.248" y1="223.9471" y2="246.7808"/>
    <line x1="372.551" x2="372.551" y1="248.1105" y2="225.2768"/>
    <line x1="374.854" x2="374.854" y1="226.6064" y2="249.4401"/>
    <polyline points="377.157,250.7698 405.7384,234.2683 405.7384,211.4346 380.4053,196.8085 351.8239,213.31 351.8239,236.1437 377.157,250.7698 377.157,227.9361 351.8239,213.31"/>
    <line x1="354.1269" x2="354.1269" y1="214.6396" y2="237.4733"/>
    <line x1="355.5601" x2="355.5601" y1="238.3008" y2="240.7717"/>
    <line x1="356.4299" x2="356.4299" y1="238.803" y2="215.9693"/>
    <line x1="355.5601" x2="355.5601" y1="211.1529" y2="170.7249"/>
    <line x1="360.4162" x2="360.4162" y1="167.9212" y2="208.3492"/>
    <polyline points="365.2723,205.5455 365.2723,165.1176 271.8337,111.1708 223.2728,139.2075 223.2728,209.2543 243.4117,220.8815"/>
    <line x1="242.4397" x2="242.4397" y1="220.3203" y2="150.2735"/>
    <line x1="240.0438" x2="240.0438" y1="148.8902" y2="218.9371"/>
    <line x1="237.6479" x2="237.6479" y1="217.5538" y2="147.507"/>
    <line x1="235.2521" x2="235.2521" y1="146.1237" y2="216.1706"/>
    <line x1="232.8562" x2="232.8562" y1="214.7873" y2="144.7405"/>
    <line x1="230.4604" x2="230.4604" y1="143.3572" y2="213.4041"/>
    <line x1="228.0645" x2="228.0645" y1="212.0208" y2="141.974"/>
    <line x1="225.6686" x2="225.6686" y1="140.5907" y2="210.6376"/>
    <line x1="244.8355" x2="244.8355" y1="220.0595" y2="151.6567"/>
    <line x1="247.2314" x2="247.2314" y1="153.04" y2="218.6762"/>
    <line x1="249.6272" x2="249.6272" y1="217.293" y2="154.4232"/>
    <line x1="252.0231" x2="252.0231" y1="155.8065" y2="215.9097"/>
    <line x1="254.419" x2="254.419" y1="214.5265" y2="157.1897"/>
    <line x1="256.8148" x2="256.8148" y1="158.573" y2="213.1432"/>
    <line x1="259.2107" x2="259.2107" y1="211.76" y2="159.9562"/>
    <line x1="261.6065" x2="261.6065" y1="161.3395" y2="210.3767"/>
    <line x1="264.0024" x2="264.0024" y1="208.9935" y2="162.7227"/>
    <line x1="266.3983" x2="266.3983" y1="164.106" y2="207.6102"/>
    <line x1="268.7941" x2="268.7941" y1="206.227" y2="165.4892"/>
    <line x1="271.19" x2="271.19" y1="166.8725" y2="204.8437"/>
    <line x1="273.5858" x2="273.5858" y1="203.4605" y2="168.2557"/>
    <line x1="275.9817" x2="275.9817" y1="169.639" y2="202.0772"/>
    <line x1="278.3776" x2="278.3776" y1="200.694" y2="171.0222"/>
    <line x1="280.7734" x2="280.7734" y1="172.4055" y2="199.3107"/>
    <line x1="283.1693" x2="283.1693" y1="197.9275" y2="173.7887"/>
    <line x1="285.5651" x2="285.5651" y1="175.172" y2="196.5442"/>
    <line x1="287.961" x2="287.961" y1="195.161" y2="176.5552"/>
    <line x1="290.3569" x2="290.3569" y1="177.9385" y2="193.7777"/>
    <line x1="292.7527" x2="292.7527" y1="192.3945" y2="179.3217"/>
    <line x1="295.1486" x2="295.1486" y1="180.705" y2="191.0112"/>
    <line x1="297.5444" x2="297.5444" y1="191.2803" y2="182.0882"/>
    <line x1="299.9403" x2="299.9403" y1="183.4715" y2="192.6636"/>
    <line x1="302.3362" x2="302.3362" y1="194.0468" y2="184.8548"/>
    <line x1="304.732" x2="304.732" y1="186.238" y2="195.4301"/>
    <line x1="307.1279" x2="307.1279" y1="196.8133" y2="187.6213"/>
    <line x1="309.5237" x2="309.5237" y1="189.0045" y2="198.1966"/>
    <line x1="311.9196" x2="311.9196" y1="199.5798" y2="190.3878"/>
    <line x1="314.3155" x2="314.3155" y1="191.771" y2="200.9631"/>
    <polyline points="316.7113,202.3463 316.7113,193.1543 365.2723,165.1176"/>
    <line x1="350.704" x2="350.704" y1="173.5286" y2="243.5754"/>
    <line x1="345.8479" x2="345.8479" y1="246.3791" y2="176.3322"/>
    <line x1="340.9918" x2="340.9918" y1="179.1359" y2="249.1827"/>
    <polyline points="336.6496,213.8577 264.72,255.3863 264.72,308.688"/>
    <line x1="262.3355" x2="262.3355" y1="310.0647" y2="254.0096"/>
    <line x1="264.72" x2="224.1839" y1="255.3863" y2="231.9827"/>
    <polyline points="226.5684,233.3594 226.7036,292.4712 194.9935,310.7791"/>
    <line x1="192.5651" x2="192.5651" y1="309.3771" y2="326.5271"/>
    <line x1="190.1368" x2="190.1368" y1="325.1251" y2="307.9751"/>
    <line x1="187.7084" x2="187.7084" y1="306.5731" y2="323.7231"/>
    <line x1="185.2801" x2="185.2801" y1="322.3211" y2="305.171"/>
    <polyline points="185.0354,305.0298 194.9935,310.7791 194.9935,327.9291 227.1402,309.3692 227.1402,292.7233"/>
    <line x1="228.9528" x2="228.9528" y1="293.7698" y2="234.7361"/>
    <line x1="231.3373" x2="231.3373" y1="236.1128" y2="295.1465"/>
    <line x1="233.7218" x2="233.7218" y1="296.5232" y2="237.4894"/>
    <line x1="236.1063" x2="236.1063" y1="238.8661" y2="297.8998"/>
    <line x1="238.4907" x2="238.4907" y1="299.2765" y2="240.2428"/>
    <line x1="240.8752" x2="240.8752" y1="241.6195" y2="300.6532"/>
    <line x1="243.2597" x2="243.2597" y1="302.0299" y2="242.9962"/>
    <line x1="245.6442" x2="245.6442" y1="244.3728" y2="303.4066"/>
    <line x1="248.0287" x2="248.0287" y1="304.7832" y2="245.7495"/>
    <line x1="250.4131" x2="250.4131" y1="247.1262" y2="306.1599"/>
    <line x1="252.7976" x2="252.7976" y1="307.5366" y2="248.5029"/>
    <line x1="255.1821" x2="255.1821" y1="249.8796" y2="308.9133"/>
    <line x1="257.5666" x2="257.5666" y1="310.29" y2="251.2562"/>
    <line x1="259.9511" x2="259.9511" y1="252.6329" y2="311.4414"/>
    <polyline points="259.756,311.554 224.1839,291.0165 224.1839,231.9827 296.1135,190.4541 336.6496,213.8577 336.6496,272.8914 279.1732,306.0754 279.1059,247.0806"/>
    <line x1="283.9012" x2="283.9012" y1="244.312" y2="303.3457"/>
    <line x1="288.6966" x2="288.6966" y1="300.5771" y2="241.5434"/>
    <line x1="293.4919" x2="293.4919" y1="238.7748" y2="297.8086"/>
    <line x1="274.3106" x2="274.3106" y1="303.268" y2="249.8491"/>
    <line x1="269.5153" x2="269.5153" y1="252.6177" y2="305.9195"/>
    <line x1="222.5478" x2="222.5478" y1="312.0206" y2="294.8706"/>
    <polyline points="224.1839,290.5123 183.4298,266.9829 178.3575,269.9114"/>
    <line x1="180.3961" x2="180.3961" y1="276.4454" y2="336.4581"/>
    <line x1="175.7568" x2="175.7568" y1="339.1366" y2="279.1239"/>
    <line x1="171.1175" x2="171.1175" y1="281.8023" y2="341.8151"/>
    <line x1="166.4783" x2="166.4783" y1="344.4936" y2="284.4808"/>
    <line x1="161.839" x2="161.839" y1="287.1593" y2="347.1721"/>
    <line x1="157.1997" x2="157.1997" y1="349.8506" y2="289.8378"/>
    <line x1="152.5604" x2="152.5604" y1="292.5163" y2="352.5291"/>
    <line x1="147.9211" x2="147.9211" y1="355.2075" y2="295.1948"/>
    <line x1="143.2819" x2="143.2819" y1="297.8733" y2="357.886"/>
    <polyline points="138.6426,360.5645 185.0354,333.7796 185.0354,273.7669 155.3032,256.601 108.9104,283.3859 108.9104,343.3986 138.6426,360.5645 138.6426,300.5518 185.0354,273.7669"/>
    <line x1="204.1783" x2="204.1783" y1="305.4763" y2="322.6263"/>
    <line x1="208.7707" x2="208.7707" y1="319.9749" y2="302.8248"/>
    <line x1="213.3631" x2="213.3631" y1="300.1734" y2="317.3234"/>
    <line x1="217.9554" x2="217.9554" y1="314.672" y2="297.522"/>
    <line x1="199.5859" x2="199.5859" y1="308.1277" y2="325.2777"/>
    <line x1="194.9935" x2="185.0354" y1="327.9291" y2="322.1798"/>
    <line x1="138.6426" x2="108.9104" y1="300.5518" y2="283.3859"/>
    <line x1="111.1975" x2="111.1975" y1="284.7063" y2="344.7191"/>
    <line x1="113.4846" x2="113.4846" y1="346.0396" y2="286.0268"/>
    <line x1="115.7717" x2="115.7717" y1="287.3472" y2="347.36"/>
    <line x1="118.0588" x2="118.0588" y1="348.6805" y2="288.6677"/>
    <line x1="120.3459" x2="120.3459" y1="289.9882" y2="350.0009"/>
    <line x1="122.633" x2="122.633" y1="351.3214" y2="291.3086"/>
    <line x1="124.9201" x2="124.9201" y1="292.6291" y2="352.6418"/>
    <line x1="127.2071" x2="127.2071" y1="353.9623" y2="293.9495"/>
    <line x1="129.4942" x2="129.4942" y1="295.27" y2="355.2827"/>
    <line x1="131.7813" x2="131.7813" y1="356.6032" y2="296.5904"/>
    <line x1="134.0684" x2="134.0684" y1="297.9109" y2="357.9236"/>
    <line x1="136.3555" x2="136.3555" y1="359.2441" y2="299.2313"/>
    <polyline points="117.984,476.769 154.4989,497.8509 154.4989,591.4472 117.984,570.3654 117.984,476.769 139.4914,464.3517 176.0063,485.4336 176.0063,579.0299 154.4989,591.4472"/>
    <line x1="152.0646" x2="152.0646" y1="590.0418" y2="496.4454"/>
    <line x1="149.6303" x2="149.6303" y1="495.04" y2="588.6363"/>
    <line x1="147.1959" x2="147.1959" y1="587.2309" y2="493.6345"/>
    <line x1="144.7616" x2="144.7616" y1="492.2291" y2="585.8254"/>
    <line x1="142.3273" x2="142.3273" y1="584.42" y2="490.8236"/>
    <line x1="139.893" x2="139.893" y1="489.4182" y2="583.0145"/>
    <line x1="137.4586" x2="137.4586" y1="581.609" y2="488.0127"/>
    <line x1="135.0243" x2="135.0243" y1="486.6072" y2="580.2036"/>
    <line x1="132.59" x2="132.59" y1="578.7981" y2="485.2018"/>
    <line x1="130.1557" x2="130.1557" y1="483.7963" y2="577.3927"/>
    <line x1="127.7213" x2="127.7213" y1="575.9872" y2="482.3909"/>
    <line x1="125.287" x2="125.287" y1="480.9854" y2="574.5817"/>
    <line x1="122.8527" x2="122.8527" y1="573.1763" y2="479.5799"/>
    <line x1="120.4184" x2="120.4184" y1="478.1745" y2="571.7708"/>
    <line x1="158.8004" x2="158.8004" y1="588.9638" y2="495.3674"/>
    <line x1="154.4989" x2="176.0063" y1="497.8509" y2="485.4336"/>
    <line x1="171.7048" x2="171.7048" y1="487.9171" y2="581.5134"/>
    <line x1="172.6787" x2="172.6787" y1="580.9512" y2="614.4269"/>
    <line x1="175.1081" x2="175.1081" y1="615.8295" y2="579.5485"/>
    <line x1="170.2493" x2="170.2493" y1="582.3538" y2="613.0242"/>
    <line x1="167.8199" x2="167.8199" y1="611.6216" y2="583.7564"/>
    <line x1="167.4034" x2="167.4034" y1="583.9969" y2="490.4005"/>
    <line x1="163.1019" x2="162.9611" y1="492.884" y2="608.8164"/>
    <line x1="165.3905" x2="165.3905" y1="610.219" y2="585.159"/>
    <polyline points="160.5317,587.9642 160.5317,607.4138 228.555,646.6871"/>
    <line x1="226.1256" x2="226.1256" y1="645.2844" y2="538.8685"/>
    <line x1="228.555" x2="261.7005" y1="540.2711" y2="521.1345"/>
    <line x1="256.9654" x2="256.9654" y1="523.8683" y2="630.2843"/>
    <line x1="252.2303" x2="252.2303" y1="633.0181" y2="526.6021"/>
    <line x1="247.4953" x2="247.4953" y1="529.3359" y2="635.7519"/>
    <line x1="242.7602" x2="242.7602" y1="638.4857" y2="532.0697"/>
    <line x1="238.0251" x2="238.0251" y1="534.8035" y2="641.2195"/>
    <line x1="233.29" x2="233.29" y1="643.9533" y2="537.5373"/>
    <line x1="223.6962" x2="223.6962" y1="537.4659" y2="643.8818"/>
    <line x1="221.2668" x2="221.2668" y1="642.4792" y2="536.0632"/>
    <line x1="218.8374" x2="218.8374" y1="534.6606" y2="641.0766"/>
    <line x1="216.408" x2="216.408" y1="639.674" y2="533.258"/>
    <line x1="213.9785" x2="213.9785" y1="531.8554" y2="638.2714"/>
    <line x1="211.5491" x2="211.5491" y1="636.8687" y2="530.4528"/>
    <line x1="209.1197" x2="209.1197" y1="529.0502" y2="635.4661"/>
    <line x1="206.6903" x2="206.6903" y1="634.0635" y2="527.6475"/>
    <line x1="204.2609" x2="204.2609" y1="526.2449" y2="632.6609"/>
    <line x1="201.8315" x2="201.8315" y1="631.2583" y2="524.8423"/>
    <line x1="199.4021" x2="199.4021" y1="523.4397" y2="629.8556"/>
    <line x1="196.9727" x2="196.9727" y1="628.453" y2="522.0371"/>
    <line x1="194.5433" x2="194.5433" y1="520.6345" y2="627.0504"/>
    <line x1="192.1139" x2="192.1139" y1="625.6478" y2="519.2318"/>
    <line x1="189.6845" x2="189.6845" y1="517.8292" y2="624.2452"/>
    <line x1="187.2551" x2="187.2551" y1="622.8426" y2="516.4266"/>
    <line x1="184.8257" x2="184.8257" y1="515.024" y2="621.4399"/>
    <line x1="182.3963" x2="182.3963" y1="620.0373" y2="513.6214"/>
    <line x1="179.9669" x2="179.9669" y1="512.2188" y2="618.6347"/>
    <line x1="177.5375" x2="177.5375" y1="617.2321" y2="510.8161"/>
    <polyline points="176.0063,509.9321 228.555,540.2711 228.555,646.6871 261.7005,627.5505 261.7005,521.1345 193.6771,481.8613 176.0063,492.0635"/>
    <line x1="264.0971" x2="310.1669" y1="512.3398" y2="538.9382"/>
    <line x1="307.7422" x2="307.7422" y1="537.5382" y2="604.0266"/>
    <polyline points="310.1669,605.4265 353.1217,580.6266 353.1217,514.1382 307.0519,487.5398 264.0971,512.3398 264.0971,578.8281 310.1669,605.4265 310.1669,538.9382 353.1217,514.1382"/>
    <line x1="349.4952" x2="349.4952" y1="512.0445" y2="415.4015"/>
    <line x1="347.0889" x2="347.0889" y1="414.0122" y2="510.6552"/>
    <line x1="344.6827" x2="344.6827" y1="509.266" y2="412.623"/>
    <line x1="342.2764" x2="342.2764" y1="411.2338" y2="507.8767"/>
    <line x1="339.8702" x2="339.8702" y1="506.4875" y2="409.8445"/>
    <line x1="337.464" x2="337.464" y1="408.4553" y2="505.0982"/>
    <line x1="335.0577" x2="335.0577" y1="503.709" y2="407.066"/>
    <line x1="332.6515" x2="332.6515" y1="405.6768" y2="502.3198"/>
    <line x1="343.5762" x2="343.5762" y1="519.6493" y2="586.1377"/>
    <line x1="338.8034" x2="338.8034" y1="588.8932" y2="522.4049"/>
    <line x1="334.0306" x2="334.0306" y1="525.1604" y2="591.6488"/>
    <line x1="329.2579" x2="329.2579" y1="594.4043" y2="527.916"/>
    <line x1="324.4851" x2="324.4851" y1="530.6715" y2="597.1599"/>
    <line x1="319.7124" x2="319.7124" y1="599.9154" y2="533.4271"/>
    <line x1="314.9396" x2="314.9396" y1="536.1826" y2="602.671"/>
    <line x1="305.3174" x2="305.3174" y1="602.6267" y2="536.1383"/>
    <line x1="302.8927" x2="302.8927" y1="534.7384" y2="601.2268"/>
    <line x1="300.468" x2="300.468" y1="599.8269" y2="533.3385"/>
    <line x1="298.0433" x2="298.0433" y1="531.9386" y2="598.4269"/>
    <line x1="295.6185" x2="295.6185" y1="597.027" y2="530.5387"/>
    <line x1="293.1938" x2="293.1938" y1="529.1388" y2="595.6271"/>
    <line x1="290.7691" x2="290.7691" y1="594.2272" y2="527.7388"/>
    <line x1="288.3444" x2="288.3444" y1="526.3389" y2="592.8273"/>
    <line x1="285.9196" x2="285.9196" y1="591.4274" y2="524.939"/>
    <line x1="283.4949" x2="283.4949" y1="523.5391" y2="590.0274"/>
    <line x1="281.0702" x2="281.0702" y1="588.6275" y2="522.1392"/>
    <line x1="278.6455" x2="278.6455" y1="520.7393" y2="587.2276"/>
    <line x1="276.2207" x2="276.2207" y1="585.8277" y2="519.3393"/>
    <line x1="273.796" x2="273.796" y1="517.9394" y2="584.4278"/>
    <line x1="271.3713" x2="271.3713" y1="583.0279" y2="516.5395"/>
    <line x1="268.9466" x2="268.9466" y1="515.1396" y2="581.6279"/>
    <line x1="266.5218" x2="266.5218" y1="580.228" y2="513.7397"/>
    <line x1="310.9953" x2="310.9953" y1="489.8166" y2="399.1547"/>
    <line x1="356.7139" x2="356.7139" y1="419.5692" y2="527.1602"/>
    <line x1="357.1166" x2="357.1166" y1="527.3927" y2="533.5459"/>
    <line x1="356.3511" x2="356.3511" y1="533.104" y2="551.6457"/>
    <line x1="358.7537" x2="358.7537" y1="553.0328" y2="534.4911"/>
    <line x1="359.4774" x2="359.4774" y1="534.9089" y2="528.7557"/>
    <line x1="359.1201" x2="359.1201" y1="528.5495" y2="420.9584"/>
    <line x1="361.5263" x2="361.5263" y1="422.3477" y2="529.9387"/>
    <line x1="361.8382" x2="361.8382" y1="530.1188" y2="536.2719"/>
    <line x1="361.1562" x2="361.1562" y1="535.8782" y2="554.4199"/>
    <line x1="366.5598" x2="353.1217" y1="538.998" y2="531.2394"/>
    <line x1="353.1217" x2="368.7451" y1="525.0862" y2="534.1064"/>
    <polyline points="365.9613,538.6524 365.9613,557.1941 410.1595,531.6762"/>
    <line x1="409.3111" x2="409.3111" y1="532.1661" y2="514.3155"/>
    <polyline points="410.1595,514.38 436.5115,529.5943 436.5115,553.7418 410.1595,538.5275 410.1595,514.38 475.5157,476.6466 501.8677,491.8609 501.8677,516.0084 436.5115,553.7418"/>
    <line x1="434.1159" x2="434.1159" y1="552.3587" y2="528.2112"/>
    <line x1="436.5115" x2="501.8677" y1="529.5943" y2="491.8609"/>
    <line x1="501.0699" x2="501.0699" y1="491.4003" y2="468.4691"/>
    <line x1="503.421" x2="503.421" y1="469.8265" y2="527.2022"/>
    <line x1="505.7721" x2="505.7721" y1="528.5596" y2="471.1839"/>
    <line x1="508.1231" x2="508.1231" y1="472.5413" y2="529.917"/>
    <line x1="510.4742" x2="510.4742" y1="531.2744" y2="473.8987"/>
    <line x1="512.8253" x2="512.8253" y1="475.2561" y2="532.6318"/>
    <line x1="515.1764" x2="515.1764" y1="533.9892" y2="476.6135"/>
    <line x1="517.5275" x2="608.7912" y1="477.9709" y2="425.2798"/>
    <line x1="603.9878" x2="603.9878" y1="428.053" y2="485.4287"/>
    <line x1="600.8457" x2="600.8457" y1="488.3054" y2="519.3936"/>
    <line x1="598.4605" x2="598.4605" y1="518.0165" y2="488.6199"/>
    <line x1="599.1845" x2="599.1845" y1="488.2019" y2="430.8262"/>
    <line x1="594.3811" x2="594.3811" y1="433.5994" y2="490.9751"/>
    <line x1="593.6899" x2="593.6899" y1="491.3742" y2="515.2622"/>
    <line x1="596.0752" x2="596.0752" y1="516.6394" y2="489.9971"/>
    <line x1="599.9255" x2="608.0015" y1="487.7741" y2="492.4368"/>
    <line x1="605.6163" x2="605.6163" y1="491.0596" y2="522.1479"/>
    <line x1="608.0015" x2="573.0023" y1="523.525" y2="503.3182"/>
    <line x1="574.6078" x2="574.6078" y1="504.2451" y2="502.3913"/>
    <line x1="575.1677" x2="575.1677" y1="502.068" y2="444.6923"/>
    <line x1="579.9711" x2="579.9711" y1="441.9191" y2="499.2948"/>
    <line x1="579.3783" x2="579.3783" y1="499.637" y2="506.9994"/>
    <line x1="576.993" x2="576.993" y1="505.6223" y2="501.0141"/>
    <line x1="581.7636" x2="581.7636" y1="498.2599" y2="508.3765"/>
    <line x1="584.1488" x2="584.1488" y1="509.7537" y2="496.8827"/>
    <line x1="584.7744" x2="584.7744" y1="496.5216" y2="439.1458"/>
    <line x1="589.5778" x2="589.5778" y1="436.3726" y2="493.7484"/>
    <line x1="588.9194" x2="588.9194" y1="494.1285" y2="512.508"/>
    <line x1="591.3047" x2="591.3047" y1="513.8851" y2="492.7513"/>
    <line x1="586.5341" x2="586.5341" y1="495.5056" y2="511.1308"/>
    <line x1="570.3644" x2="570.3644" y1="504.8412" y2="447.4655"/>
    <line x1="565.561" x2="565.561" y1="450.2387" y2="507.6144"/>
    <line x1="560.7577" x2="560.7577" y1="510.3877" y2="453.0119"/>
    <line x1="555.9543" x2="555.9543" y1="455.7851" y2="513.1609"/>
    <line x1="551.151" x2="551.151" y1="515.9341" y2="458.5584"/>
    <line x1="546.3476" x2="546.3476" y1="461.3316" y2="518.7073"/>
    <line x1="541.5442" x2="541.5442" y1="521.4805" y2="464.1048"/>
    <line x1="536.7409" x2="536.7409" y1="466.878" y2="524.2537"/>
    <line x1="531.9375" x2="531.9375" y1="527.027" y2="469.6512"/>
    <line x1="527.1342" x2="527.1342" y1="472.4244" y2="529.8002"/>
    <line x1="522.3308" x2="522.3308" y1="532.5734" y2="475.1977"/>
    <line x1="498.7188" x2="498.7188" y1="467.1117" y2="490.0429"/>
    <line x1="496.3677" x2="496.3677" y1="488.6855" y2="465.7543"/>
    <line x1="494.0166" x2="494.0166" y1="464.3969" y2="487.3281"/>
    <line x1="491.6656" x2="491.6656" y1="485.9707" y2="463.0395"/>
    <line x1="489.3145" x2="489.3145" y1="461.6821" y2="484.6133"/>
    <line x1="486.9634" x2="486.9634" y1="483.2559" y2="460.3247"/>
    <line x1="484.6123" x2="484.6123" y1="458.9673" y2="481.8985"/>
    <polyline points="482.2612,480.5411 482.2612,457.6099 573.5249,404.9188 608.7912,425.2798 608.7912,482.6555 517.5275,535.3466 517.5275,477.9709 482.2612,457.6099"/>
    <line x1="467.6346" x2="467.6346" y1="442.57" y2="356.6889"/>
    <line x1="462.7523" x2="462.7523" y1="359.5077" y2="445.3888"/>
    <line x1="457.8701" x2="457.8701" y1="448.2075" y2="362.3265"/>
    <line x1="452.9878" x2="452.9878" y1="365.1452" y2="451.0263"/>
    <polyline points="451.8228,451.6989 492.0458,428.4761 492.0458,410.0905"/>
    <line x1="491.185" x2="491.185" y1="409.5935" y2="351.6788"/>
    <line x1="493.5099" x2="493.5099" y1="353.0211" y2="410.9358"/>
    <line x1="495.8349" x2="495.8349" y1="412.2781" y2="354.3634"/>
    <line x1="498.1598" x2="498.1598" y1="355.7057" y2="413.6204"/>
    <line x1="500.4848" x2="500.4848" y1="414.9627" y2="357.0481"/>
    <line x1="502.8097" x2="502.8097" y1="358.3904" y2="416.305"/>
    <line x1="505.1347" x2="505.1347" y1="417.6473" y2="359.7327"/>
    <line x1="507.4596" x2="507.4596" y1="361.075" y2="418.9897"/>
    <line x1="509.7846" x2="509.7846" y1="420.332" y2="362.4173"/>
    <line x1="512.1095" x2="472.5854" y1="363.7596" y2="340.9403"/>
    <line x1="474.9103" x2="474.9103" y1="342.2826" y2="400.1973"/>
    <line x1="479.5602" x2="479.5602" y1="402.8819" y2="344.9673"/>
    <line x1="481.8852" x2="481.8852" y1="346.3096" y2="404.2242"/>
    <line x1="482.2813" x2="482.2813" y1="404.453" y2="434.1137"/>
    <line x1="487.1636" x2="487.1636" y1="431.2949" y2="407.2717"/>
    <line x1="486.5351" x2="486.5351" y1="406.9089" y2="348.9942"/>
    <line x1="488.86" x2="488.86" y1="350.3365" y2="408.2512"/>
    <line x1="484.2101" x2="484.2101" y1="405.5666" y2="347.6519"/>
    <line x1="516.7721" x2="516.7721" y1="361.0677" y2="418.9823"/>
    <line x1="521.4347" x2="521.4347" y1="416.2904" y2="358.3757"/>
    <line x1="526.0973" x2="526.0973" y1="355.6838" y2="413.5984"/>
    <line x1="530.7599" x2="530.7599" y1="410.9065" y2="352.9918"/>
    <line x1="535.4225" x2="535.4225" y1="350.2999" y2="408.2145"/>
    <line x1="540.085" x2="540.085" y1="405.5226" y2="347.6079"/>
    <polyline points="544.7476,344.916 512.1095,363.7596 512.1095,421.6743 472.5854,398.855 472.5854,340.9403 505.2235,322.0967 544.7476,344.916 544.7476,402.8306 512.1095,421.6743"/>
    <line x1="448.1056" x2="448.1056" y1="449.5528" y2="367.964"/>
    <line x1="440.4608" x2="400.158" y1="431.9643" y2="455.2331"/>
    <line x1="403.5103" x2="403.5103" y1="453.2977" y2="517.6646"/>
    <line x1="404.4945" x2="404.4945" y1="517.0964" y2="534.947"/>
    <line x1="399.6778" x2="399.6778" y1="537.7278" y2="519.8773"/>
    <line x1="398.8915" x2="398.8915" y1="520.3313" y2="516.7014"/>
    <line x1="408.1291" x2="408.1291" y1="514.9979" y2="450.631"/>
    <line x1="412.7479" x2="412.7479" y1="447.9644" y2="512.3313"/>
    <line x1="414.1278" x2="414.1278" y1="512.0889" y2="511.5346"/>
    <line x1="417.3667" x2="417.3667" y1="509.6646" y2="445.2977"/>
    <line x1="421.9855" x2="421.9855" y1="442.631" y2="506.9979"/>
    <line x1="423.7611" x2="423.7611" y1="506.5271" y2="505.9728"/>
    <line x1="426.6043" x2="426.6043" y1="504.3312" y2="439.9644"/>
    <line x1="431.2231" x2="431.2231" y1="437.2977" y2="501.6646"/>
    <line x1="433.3943" x2="433.3943" y1="500.9653" y2="500.411"/>
    <line x1="428.5777" x2="428.5777" y1="503.1919" y2="503.7462"/>
    <line x1="418.9444" x2="418.9444" y1="508.7537" y2="509.308"/>
    <line x1="414.9508" x2="414.9508" y1="517.1462" y2="541.2937"/>
    <line x1="417.3464" x2="417.3464" y1="542.6768" y2="518.5293"/>
    <line x1="419.7421" x2="419.7421" y1="519.9124" y2="544.06"/>
    <line x1="422.1377" x2="422.1377" y1="545.4431" y2="521.2956"/>
    <line x1="424.5333" x2="424.5333" y1="522.6787" y2="546.8262"/>
    <line x1="426.929" x2="426.929" y1="548.2093" y2="524.0618"/>
    <line x1="429.3246" x2="429.3246" y1="525.4449" y2="549.5924"/>
    <line x1="431.7202" x2="431.7202" y1="550.9756" y2="526.828"/>
    <line x1="441.1798" x2="441.1798" y1="526.899" y2="551.0466"/>
    <line x1="445.8481" x2="445.8481" y1="548.3513" y2="524.2038"/>
    <line x1="450.5164" x2="450.5164" y1="521.5085" y2="545.6561"/>
    <line x1="455.1847" x2="455.1847" y1="542.9608" y2="518.8133"/>
    <line x1="459.853" x2="459.853" y1="516.1181" y2="540.2656"/>
    <line x1="464.5213" x2="464.5213" y1="537.5703" y2="513.4228"/>
    <line x1="469.1896" x2="469.1896" y1="510.7276" y2="534.8751"/>
    <line x1="473.8579" x2="473.8579" y1="532.1799" y2="508.0323"/>
    <line x1="478.5262" x2="478.5262" y1="505.3371" y2="529.4846"/>
    <line x1="483.1945" x2="483.1945" y1="526.7894" y2="502.6418"/>
    <line x1="487.8628" x2="487.8628" y1="499.9466" y2="524.0941"/>
    <line x1="492.5311" x2="492.5311" y1="521.3989" y2="497.2514"/>
    <line x1="497.1994" x2="497.1994" y1="494.5561" y2="518.7036"/>
    <line x1="496.3677" x2="496.3677" y1="519.1838" y2="523.13"/>
    <line x1="498.7188" x2="498.7188" y1="524.4874" y2="517.8264"/>
    <line x1="501.0699" x2="501.0699" y1="516.469" y2="525.8448"/>
    <line x1="494.0166" x2="494.0166" y1="521.7726" y2="520.5412"/>
    <line x1="492.9502" x2="517.5275" y1="521.1569" y2="535.3466"/>
    <line x1="528.0165" x2="532.7037" y1="579.6598" y2="582.366"/>
    <line x1="530.4293" x2="530.4293" y1="581.0529" y2="583.6791"/>
    <polyline points="528.0165,585.0721 528.0165,579.6598 570.3026,555.2459 625.7988,587.2866 625.7988,629.7844 583.5126,654.1983 583.5126,643.4223"/>
    <line x1="582.1118" x2="582.1118" y1="644.2311" y2="595.2996"/>
    <line x1="577.6532" x2="577.6532" y1="597.8738" y2="646.8052"/>
    <line x1="578.6869" x2="578.6869" y1="646.2085" y2="651.4122"/>
    <line x1="580.4346" x2="580.4346" y1="652.4213" y2="692.435"/>
    <polyline points="575.8677,695.0717 539.3117,673.9661 539.3117,650.4107"/>
    <line x1="538.6044" x2="538.6044" y1="650.0023" y2="601.0709"/>
    <line x1="540.9981" x2="540.9981" y1="602.4529" y2="651.3843"/>
    <line x1="541.7488" x2="541.7488" y1="651.8177" y2="675.3731"/>
    <line x1="544.1859" x2="544.1859" y1="676.7802" y2="653.2248"/>
    <line x1="543.3918" x2="543.3918" y1="652.7663" y2="603.8349"/>
    <line x1="545.7854" x2="545.7854" y1="605.2168" y2="654.1483"/>
    <line x1="546.6229" x2="546.6229" y1="654.6318" y2="678.1872"/>
    <line x1="549.06" x2="549.06" y1="679.5943" y2="656.0389"/>
    <line x1="548.1791" x2="548.1791" y1="655.5302" y2="606.5988"/>
    <line x1="550.5727" x2="550.5727" y1="607.9808" y2="656.9122"/>
    <line x1="551.4971" x2="551.4971" y1="657.4459" y2="681.0013"/>
    <line x1="553.9341" x2="553.9341" y1="682.4083" y2="658.8529"/>
    <line x1="552.9664" x2="552.9664" y1="658.2942" y2="609.3628"/>
    <line x1="555.3601" x2="591.0291" y1="610.7448" y2="590.1512"/>
    <line x1="586.5704" x2="586.5704" y1="592.7254" y2="641.6569"/>
    <line x1="588.2111" x2="588.2111" y1="640.7096" y2="651.4857"/>
    <line x1="589.5684" x2="589.5684" y1="650.702" y2="687.1616"/>
    <line x1="585.0015" x2="585.0015" y1="689.7983" y2="653.3387"/>
    <line x1="583.5126" x2="574.1803" y1="654.1983" y2="648.8103"/>
    <line x1="573.4307" x2="573.4307" y1="649.2431" y2="693.6647"/>
    <line x1="570.9936" x2="570.9936" y1="692.2576" y2="650.6502"/>
    <line x1="573.1946" x2="573.1946" y1="649.3794" y2="600.448"/>
    <line x1="568.7359" x2="568.7359" y1="603.0222" y2="651.9536"/>
    <line x1="568.5565" x2="568.5565" y1="652.0572" y2="690.8506"/>
    <line x1="566.1195" x2="566.1195" y1="689.4436" y2="653.4642"/>
    <line x1="564.2773" x2="564.2773" y1="654.5278" y2="605.5964"/>
    <line x1="559.8187" x2="559.8187" y1="608.1706" y2="657.102"/>
    <line x1="558.8083" x2="558.8083" y1="657.6854" y2="685.2224"/>
    <line x1="561.2453" x2="561.2453" y1="686.6295" y2="656.2783"/>
    <line x1="563.6824" x2="563.6824" y1="654.8713" y2="688.0365"/>
    <line x1="556.3712" x2="556.3712" y1="683.8154" y2="659.0924"/>
    <polyline points="555.3601,659.6762 591.0291,639.0827 591.0291,590.1512 555.1241,569.4215 519.4551,590.015 519.4551,638.9465 555.3601,659.6762 555.3601,610.7448 519.4551,590.015"/>
    <line x1="521.8488" x2="521.8488" y1="591.397" y2="640.3285"/>
    <line x1="524.2425" x2="524.2425" y1="641.7104" y2="592.779"/>
    <line x1="526.6361" x2="526.6361" y1="594.161" y2="643.0924"/>
    <line x1="529.0298" x2="529.0298" y1="644.4744" y2="595.543"/>
    <line x1="531.4234" x2="531.4234" y1="596.9249" y2="645.8564"/>
    <line x1="533.8171" x2="533.8171" y1="647.2384" y2="598.3069"/>
    <line x1="536.2108" x2="536.2108" y1="599.6889" y2="648.6203"/>
    <polyline points="575.8677,649.7846 575.8677,695.0717 630.6704,663.4314 630.6704,583.5359 594.1144,562.4303 588.4304,565.7119"/>
    <line x1="607.0049" x2="607.0049" y1="598.1372" y2="640.635"/>
    <line x1="607.8359" x2="607.8359" y1="640.1553" y2="676.6149"/>
    <line x1="612.4028" x2="612.4028" y1="673.9782" y2="637.5186"/>
    <line x1="611.7034" x2="611.7034" y1="637.9224" y2="595.4246"/>
    <line x1="616.4019" x2="616.4019" y1="592.7119" y2="635.2097"/>
    <line x1="616.9697" x2="616.9697" y1="634.8819" y2="671.3415"/>
    <line x1="621.5366" x2="621.5366" y1="668.7048" y2="632.2452"/>
    <line x1="621.1003" x2="621.1003" y1="632.4971" y2="589.9993"/>
    <line x1="624.9864" x2="630.6704" y1="586.8176" y2="583.5359"/>
    <line x1="626.1035" x2="626.1035" y1="586.1726" y2="666.0681"/>
    <line x1="603.2691" x2="603.2691" y1="679.2516" y2="642.792"/>
    <line x1="602.3065" x2="602.3065" y1="643.3477" y2="600.8499"/>
    <line x1="597.608" x2="597.608" y1="603.5625" y2="646.0604"/>
    <line x1="598.7022" x2="598.7022" y1="645.4287" y2="681.8883"/>
    <line x1="594.1353" x2="594.1353" y1="684.5249" y2="648.0653"/>
    <line x1="592.9095" x2="592.9095" y1="648.773" y2="606.2752"/>
    <line x1="591.0291" x2="625.7988" y1="607.3609" y2="587.2866"/>
    <polyline points="647.8642,599.5152 659.0792,605.9902 659.0792,715.6025 647.8642,709.1275 647.8642,599.5152 715.695,560.3531 726.91,566.8281 726.91,676.4404 659.0792,715.6025"/>
    <line x1="656.8362" x2="656.8362" y1="714.3075" y2="604.6952"/>
    <line x1="659.0792" x2="726.91" y1="605.9902" y2="566.8281"/>
    <line x1="722.0649" x2="722.0649" y1="569.6254" y2="679.2377"/>
    <line x1="717.2199" x2="717.2199" y1="682.035" y2="572.4227"/>
    <line x1="712.3748" x2="712.3748" y1="575.22" y2="684.8323"/>
    <line x1="707.5298" x2="707.5298" y1="687.6296" y2="578.0173"/>
    <line x1="702.6847" x2="702.6847" y1="580.8146" y2="690.4268"/>
    <line x1="697.8397" x2="697.8397" y1="693.2241" y2="583.6119"/>
    <line x1="692.9946" x2="692.9946" y1="586.4092" y2="696.0214"/>
    <line x1="688.1496" x2="688.1496" y1="698.8187" y2="589.2065"/>
    <line x1="683.3045" x2="683.3045" y1="592.0037" y2="701.616"/>
    <line x1="678.4594" x2="678.4594" y1="704.4133" y2="594.801"/>
    <line x1="673.6144" x2="673.6144" y1="597.5983" y2="707.2106"/>
    <line x1="668.7693" x2="668.7693" y1="710.0079" y2="600.3956"/>
    <line x1="663.9243" x2="663.9243" y1="603.1929" y2="712.8052"/>
    <line x1="654.5932" x2="654.5932" y1="713.0125" y2="603.4002"/>
    <line x1="652.3502" x2="652.3502" y1="602.1052" y2="711.7175"/>
    <line x1="650.1072" x2="650.1072" y1="710.4225" y2="600.8102"/>
    <line x1="581.0997" x2="581.0997" y1="644.8154" y2="652.8053"/>
    <line x1="576.274" x2="576.274" y1="650.0191" y2="647.6015"/>
    <line x1="502.1435" x2="502.1435" y1="669.2533" y2="582.0982"/>
    <line x1="497.3702" x2="497.3702" y1="584.8541" y2="664.9715"/>
    <line x1="499.3825" x2="500.704" y1="667.6592" y2="666.8963"/>
    <polyline points="500.704,668.4222 500.704,666.8963 443.0852,633.6301 414.3987,650.1922 414.3987,672.8553 434.2364,684.3085"/>
    <line x1="433.605" x2="433.605" y1="683.944" y2="661.2809"/>
    <line x1="436.654" x2="436.654" y1="665.3548" y2="717.3569"/>
    <line x1="435.3171" x2="435.3171" y1="716.5851" y2="730.5625"/>
    <line x1="440.0904" x2="440.0904" y1="727.8066" y2="719.3409"/>
    <line x1="439.0715" x2="439.0715" y1="718.7526" y2="666.7505"/>
    <line x1="441.489" x2="441.489" y1="668.1463" y2="720.1484"/>
    <line x1="443.9065" x2="443.9065" y1="721.5441" y2="669.542"/>
    <line x1="446.324" x2="446.324" y1="670.9378" y2="722.9399"/>
    <polyline points="447.4219,723.5738 430.5438,733.3183 430.5438,716.2588"/>
    <polyline points="434.2364,714.1269 415.9454,724.6872 415.9454,685.1337 425.8056,679.441"/>
    <line x1="448.7416" x2="448.7416" y1="672.3335" y2="724.3357"/>
    <line x1="451.1591" x2="451.1591" y1="725.7314" y2="673.7293"/>
    <line x1="453.5766" x2="453.5766" y1="675.125" y2="727.1272"/>
    <line x1="455.9941" x2="455.9941" y1="728.5229" y2="676.5208"/>
    <line x1="458.4116" x2="458.4116" y1="677.9166" y2="729.9187"/>
    <line x1="460.756" x2="421.3207" y1="731.2722" y2="754.0402"/>
    <line x1="422.8614" x2="422.8614" y1="753.1507" y2="754.9297"/>
    <line x1="427.6202" x2="427.6202" y1="757.6772" y2="750.4031"/>
    <line x1="432.3791" x2="432.3791" y1="747.6556" y2="760.4247"/>
    <line x1="437.1379" x2="437.1379" y1="763.1722" y2="744.9081"/>
    <line x1="441.8967" x2="441.8967" y1="742.1606" y2="765.9197"/>
    <line x1="446.6555" x2="446.6555" y1="768.6672" y2="739.4131"/>
    <line x1="451.4144" x2="451.4144" y1="736.6656" y2="771.4147"/>
    <line x1="456.1732" x2="456.1732" y1="774.1622" y2="733.9181"/>
    <line x1="463.2467" x2="463.2467" y1="732.7102" y2="680.7081"/>
    <line x1="465.6642" x2="465.6642" y1="682.1038" y2="734.106"/>
    <line x1="468.0817" x2="468.0817" y1="735.5017" y2="683.4996"/>
    <line x1="470.4992" x2="470.4992" y1="684.8953" y2="736.8975"/>
    <line x1="472.9168" x2="472.9168" y1="738.2932" y2="686.2911"/>
    <line x1="475.3343" x2="475.3343" y1="687.6869" y2="739.689"/>
    <line x1="477.7518" x2="477.7518" y1="741.0847" y2="689.0826"/>
    <line x1="460.8292" x2="460.932" y1="679.3123" y2="772.394"/>
    <polyline points="457.0213,774.6519 413.2597,749.3861 359.2926,780.544 359.2926,813.4667"/>
    <line x1="360.6491" x2="360.6491" y1="815.4702" y2="880.7493"/>
    <line x1="363.0624" x2="363.0624" y1="882.1426" y2="816.8635"/>
    <line x1="365.4757" x2="365.4757" y1="818.2568" y2="883.536"/>
    <line x1="367.889" x2="367.889" y1="884.9293" y2="819.6502"/>
    <line x1="370.3024" x2="370.3024" y1="821.0435" y2="886.3226"/>
    <line x1="372.7157" x2="372.7157" y1="887.716" y2="822.4368"/>
    <line x1="375.129" x2="375.129" y1="823.8302" y2="889.1093"/>
    <line x1="377.5423" x2="377.5423" y1="890.5026" y2="825.2235"/>
    <line x1="379.9556" x2="379.9556" y1="826.6168" y2="891.896"/>
    <line x1="382.369" x2="382.369" y1="893.2893" y2="828.0102"/>
    <line x1="384.7823" x2="384.7823" y1="829.4035" y2="894.6826"/>
    <line x1="387.1956" x2="387.1956" y1="896.076" y2="830.7968"/>
    <line x1="389.6089" x2="389.6089" y1="832.1902" y2="897.4693"/>
    <line x1="392.0223" x2="392.0223" y1="898.8626" y2="833.5835"/>
    <line x1="394.4356" x2="394.4356" y1="834.9768" y2="900.256"/>
    <line x1="395.347" x2="395.347" y1="900.7822" y2="905.388"/>
    <line x1="393.0314" x2="393.0314" y1="906.7249" y2="899.4452"/>
    <line x1="358.2357" x2="313.104" y1="861.9879" y2="835.931"/>
    <line x1="313.5871" x2="313.5871" y1="836.21" y2="756.0014"/>
    <line x1="311.2158" x2="311.2158" y1="754.6323" y2="795.9659"/>
    <line x1="313.104" x2="294.3365" y1="797.056" y2="807.8914"/>
    <line x1="294.6572" x2="294.6572" y1="807.7062" y2="893.8563"/>
    <line x1="299.2689" x2="299.2689" y1="891.1938" y2="805.0437"/>
    <line x1="303.8806" x2="303.8806" y1="802.3811" y2="888.5312"/>
    <line x1="308.4923" x2="308.4923" y1="885.8687" y2="799.7186"/>
    <line x1="308.8445" x2="308.8445" y1="794.5968" y2="753.2633"/>
    <line x1="306.4732" x2="306.4732" y1="751.8942" y2="793.2278"/>
    <polyline points="294.3365,786.2206 313.104,797.056 313.104,883.2061 239.317,925.807 239.317,839.6569 268.2629,822.945"/>
    <line x1="268.5959" x2="268.5959" y1="823.1372" y2="752.656"/>
    <line x1="271.0499" x2="271.0499" y1="754.0728" y2="824.5541"/>
    <line x1="271.5988" x2="271.5988" y1="824.871" y2="907.1691"/>
    <line x1="276.2105" x2="276.2105" y1="904.5065" y2="827.5335"/>
    <line x1="275.958" x2="275.958" y1="827.3877" y2="756.9065"/>
    <line x1="278.4121" x2="278.4121" y1="758.3233" y2="828.8046"/>
    <line x1="273.504" x2="273.504" y1="825.9709" y2="755.4896"/>
    <line x1="266.1418" x2="266.1418" y1="751.2391" y2="821.7204"/>
    <line x1="266.9871" x2="266.9871" y1="823.6816" y2="909.8317"/>
    <line x1="262.3754" x2="262.3754" y1="912.4942" y2="826.3441"/>
    <line x1="257.7638" x2="257.7638" y1="829.0067" y2="915.1568"/>
    <line x1="253.1521" x2="253.1521" y1="917.8193" y2="831.6692"/>
    <line x1="248.5404" x2="248.5404" y1="834.3318" y2="920.4819"/>
    <line x1="243.9287" x2="243.9287" y1="923.1444" y2="836.9944"/>
    <line x1="239.317" x2="147.3594" y1="839.6569" y2="786.5651"/>
    <line x1="149.7793" x2="149.7793" y1="787.9623" y2="874.1124"/>
    <line x1="152.1993" x2="152.1993" y1="875.5095" y2="789.3594"/>
    <line x1="154.6192" x2="154.6192" y1="790.7566" y2="876.9067"/>
    <line x1="157.0391" x2="157.0391" y1="878.3038" y2="792.1537"/>
    <line x1="159.4591" x2="159.4591" y1="793.5509" y2="879.701"/>
    <line x1="161.879" x2="161.879" y1="881.0981" y2="794.948"/>
    <line x1="164.2989" x2="164.2989" y1="796.3452" y2="882.4953"/>
    <line x1="166.7189" x2="166.7189" y1="883.8924" y2="797.7424"/>
    <line x1="169.1388" x2="169.1388" y1="799.1395" y2="885.2896"/>
    <line x1="170.3709" x2="170.3709" y1="886.0009" y2="904.9502"/>
    <line x1="175.1199" x2="175.1199" y1="902.2084" y2="888.7428"/>
    <line x1="173.9787" x2="173.9787" y1="888.0839" y2="801.9338"/>
    <line x1="171.5588" x2="171.5588" y1="800.5367" y2="886.6867"/>
    <polyline points="167.4085,884.2906 122.881,909.9985 122.881,932.3685 186.7815,895.4756"/>
    <line x1="186.0784" x2="186.0784" y1="895.0696" y2="808.9196"/>
    <line x1="183.6585" x2="183.6585" y1="807.5224" y2="893.6725"/>
    <line x1="184.6179" x2="184.6179" y1="894.2264" y2="896.7247"/>
    <line x1="188.4983" x2="188.4983" y1="896.4668" y2="810.3167"/>
    <line x1="190.9183" x2="190.9183" y1="811.7139" y2="897.864"/>
    <line x1="193.3382" x2="193.3382" y1="899.2611" y2="813.111"/>
    <line x1="195.7581" x2="195.7581" y1="814.5082" y2="900.6583"/>
    <line x1="198.1781" x2="198.1781" y1="902.0554" y2="815.9053"/>
    <line x1="200.598" x2="200.598" y1="817.3025" y2="903.4526"/>
    <line x1="203.018" x2="203.018" y1="904.8497" y2="818.6996"/>
    <line x1="205.4379" x2="205.4379" y1="820.0968" y2="906.2469"/>
    <line x1="207.8578" x2="207.8578" y1="907.644" y2="821.4939"/>
    <line x1="210.2778" x2="210.2778" y1="822.8911" y2="909.0412"/>
    <line x1="212.6977" x2="212.6977" y1="910.4383" y2="824.2882"/>
    <line x1="215.1177" x2="215.1177" y1="825.6854" y2="911.8355"/>
    <line x1="217.5376" x2="217.5376" y1="913.2326" y2="827.0825"/>
    <line x1="219.9575" x2="219.9575" y1="828.4797" y2="914.6298"/>
    <line x1="222.3775" x2="222.3775" y1="916.0269" y2="829.8769"/>
    <line x1="224.7974" x2="224.7974" y1="831.274" y2="917.4241"/>
    <line x1="227.2173" x2="227.2173" y1="918.8212" y2="832.6712"/>
    <line x1="229.6373" x2="229.6373" y1="834.0683" y2="920.2184"/>
    <line x1="232.0572" x2="232.0572" y1="921.6155" y2="835.4655"/>
    <line x1="234.4772" x2="234.4772" y1="836.8626" y2="923.0127"/>
    <line x1="236.8971" x2="236.8971" y1="924.4098" y2="838.2598"/>
    <line x1="251.4175" x2="251.4175" y1="813.2193" y2="742.738"/>
    <line x1="253.8716" x2="253.8716" y1="744.1549" y2="814.6361"/>
    <line x1="256.3256" x2="256.3256" y1="816.053" y2="745.5717"/>
    <line x1="258.7797" x2="258.7797" y1="746.9886" y2="817.4698"/>
    <line x1="261.2337" x2="261.2337" y1="818.8867" y2="748.4054"/>
    <line x1="263.6878" x2="263.6878" y1="749.8223" y2="820.3035"/>
    <line x1="289.8464" x2="289.8464" y1="825.0367" y2="754.5554"/>
    <polyline points="294.3365,751.9631 280.8661,759.7402 280.8661,830.2214 248.9635,811.8024 248.9635,741.3212 262.4338,733.544 294.3365,751.9631 294.3365,822.4443 280.8222,830.1961 280.8222,901.844"/>
    <line x1="285.4339" x2="285.3563" y1="899.1814" y2="757.1478"/>
    <line x1="280.8661" x2="248.9635" y1="759.7402" y2="741.3212"/>
    <polyline points="248.9635,760.0245 221.1463,743.9642 147.3594,786.5651 147.3594,872.7152 239.317,925.807"/>
    <line x1="226.7757" x2="226.7757" y1="947.1116" y2="980.2395"/>
    <line x1="229.2244" x2="229.2244" y1="981.6533" y2="948.5254"/>
    <line x1="231.6732" x2="231.6732" y1="949.9392" y2="983.067"/>
    <line x1="232.851" x2="232.851" y1="983.747" y2="988.2809"/>
    <line x1="235.2847" x2="235.2847" y1="989.686" y2="985.1522"/>
    <line x1="234.122" x2="234.122" y1="984.4808" y2="951.353"/>
    <line x1="236.5707" x2="236.5707" y1="952.7668" y2="985.8946"/>
    <line x1="237.7185" x2="237.7185" y1="986.5573" y2="991.0911"/>
    <line x1="240.1522" x2="240.1522" y1="992.4963" y2="987.9624"/>
    <line x1="239.0195" x2="239.0195" y1="987.3084" y2="954.1806"/>
    <line x1="241.4682" x2="241.4682" y1="955.5944" y2="988.7222"/>
    <line x1="242.586" x2="242.586" y1="989.3675" y2="993.9014"/>
    <line x1="245.0197" x2="245.0197" y1="995.3065" y2="990.7727"/>
    <line x1="243.917" x2="243.917" y1="990.136" y2="957.0082"/>
    <line x1="246.3658" x2="246.3658" y1="958.422" y2="991.5498"/>
    <line x1="247.4534" x2="247.4534" y1="992.1778" y2="996.7116"/>
    <line x1="249.8872" x2="249.8872" y1="998.1167" y2="993.5829"/>
    <line x1="248.8145" x2="248.8145" y1="992.9636" y2="959.8358"/>
    <line x1="251.2633" x2="251.2633" y1="961.2496" y2="994.3774"/>
    <line x1="252.3209" x2="252.3209" y1="994.988" y2="999.5219"/>
    <line x1="254.7547" x2="254.7547" y1="1000.927" y2="996.3931"/>
    <line x1="253.7121" x2="253.7121" y1="995.7912" y2="962.6634"/>
    <line x1="256.1608" x2="256.1608" y1="964.0772" y2="997.205"/>
    <line x1="257.1884" x2="257.1884" y1="997.7983" y2="1002.3321"/>
    <line x1="259.6221" x2="259.6221" y1="1003.7372" y2="999.2034"/>
    <line x1="258.6096" x2="258.6096" y1="998.6188" y2="965.491"/>
    <line x1="261.0584" x2="261.0584" y1="966.9048" y2="1000.0326"/>
    <line x1="262.0559" x2="262.0559" y1="1000.6085" y2="1005.1424"/>
    <line x1="264.4896" x2="264.4896" y1="1006.5475" y2="1002.0136"/>
    <line x1="263.5071" x2="263.5071" y1="1001.4464" y2="968.3186"/>
    <line x1="265.9559" x2="265.9559" y1="969.7324" y2="1002.8602"/>
    <line x1="266.9234" x2="266.9234" y1="1003.4187" y2="1007.9526"/>
    <polyline points="269.3571,1009.3577 230.4172,986.8758 230.4172,982.3419"/>
    <line x1="224.3269" x2="278.1997" y1="945.6979" y2="976.8013"/>
    <line x1="275.7509" x2="275.7509" y1="975.3875" y2="1008.5154"/>
    <polyline points="278.1997,1009.9291 310.5484,991.2526 310.5484,958.1248 256.6756,927.0213 224.3269,945.6979 224.3269,978.8257 278.1997,1009.9291 278.1997,976.8013 310.5484,958.1248"/>
    <line x1="306.0087" x2="306.0087" y1="955.5037" y2="951.5553"/>
    <line x1="302.5893" x2="333.4974" y1="953.5295" y2="935.6847"/>
    <line x1="328.9159" x2="328.9159" y1="938.3298" y2="974.9714"/>
    <line x1="324.3345" x2="324.3345" y1="977.6165" y2="940.9749"/>
    <line x1="319.753" x2="319.753" y1="943.62" y2="980.2616"/>
    <line x1="315.1716" x2="315.1716" y1="982.9067" y2="946.2651"/>
    <polyline points="310.5901,948.9102 310.5484,985.5759 333.4974,972.3263 333.4974,935.6847 294.5575,913.2028 263.6494,931.0476"/>
    <line x1="268.4047" x2="268.4047" y1="971.1462" y2="1004.274"/>
    <polyline points="269.3571,1004.8239 269.3571,1009.3577 273.3022,1007.1016 273.3022,973.9737"/>
    <line x1="270.8534" x2="270.8534" y1="972.5599" y2="1005.6878"/>
    <line x1="282.821" x2="282.821" y1="1007.2611" y2="974.1333"/>
    <line x1="287.4422" x2="287.4422" y1="971.4652" y2="1004.593"/>
    <line x1="292.0635" x2="292.0635" y1="1001.9249" y2="968.7971"/>
    <line x1="296.6847" x2="296.6847" y1="966.129" y2="999.2568"/>
    <line x1="301.3059" x2="301.3059" y1="996.5888" y2="963.4609"/>
    <line x1="305.9272" x2="305.9272" y1="960.7929" y2="993.9207"/>
    <line x1="290.0455" x2="290.0455" y1="896.5189" y2="824.9217"/>
    <line x1="315.9584" x2="315.9584" y1="837.579" y2="757.3704"/>
    <line x1="318.3297" x2="318.3297" y1="758.7395" y2="838.9481"/>
    <line x1="320.701" x2="320.701" y1="840.3172" y2="760.1086"/>
    <line x1="323.0723" x2="323.0723" y1="761.4776" y2="841.6862"/>
    <line x1="325.4435" x2="325.4435" y1="843.0553" y2="762.8467"/>
    <line x1="327.8148" x2="327.8148" y1="764.2158" y2="844.4243"/>
    <line x1="330.1861" x2="330.1861" y1="845.7934" y2="765.5848"/>
    <line x1="332.5574" x2="332.5574" y1="766.9539" y2="847.1625"/>
    <line x1="334.9287" x2="334.9287" y1="848.5315" y2="768.323"/>
    <line x1="337.3" x2="337.3" y1="769.692" y2="849.9006"/>
    <line x1="339.6713" x2="339.6713" y1="851.2697" y2="771.0611"/>
    <line x1="342.0426" x2="342.0426" y1="772.4302" y2="852.6387"/>
    <line x1="344.4139" x2="344.4139" y1="854.0078" y2="773.7992"/>
    <line x1="346.7851" x2="346.7851" y1="775.1683" y2="855.3769"/>
    <line x1="349.1564" x2="349.1564" y1="856.7459" y2="776.5373"/>
    <line x1="351.5277" x2="351.5277" y1="777.9064" y2="858.115"/>
    <line x1="353.899" x2="353.899" y1="859.4841" y2="779.2755"/>
    <line x1="356.2703" x2="356.2703" y1="780.6445" y2="860.8531"/>
    <line x1="361.693" x2="361.693" y1="812.0808" y2="781.9299"/>
    <line x1="364.0934" x2="364.0934" y1="783.3157" y2="810.6949"/>
    <line x1="366.4938" x2="366.4938" y1="809.3091" y2="784.7016"/>
    <line x1="368.8942" x2="368.8942" y1="786.0875" y2="807.9232"/>
    <line x1="371.2946" x2="371.2946" y1="806.5373" y2="787.4733"/>
    <line x1="373.6949" x2="373.6949" y1="788.8592" y2="805.1515"/>
    <line x1="376.0953" x2="376.0953" y1="803.7656" y2="790.2451"/>
    <line x1="378.4957" x2="378.4957" y1="791.6309" y2="802.3797"/>
    <line x1="380.8961" x2="380.8961" y1="800.9939" y2="793.0168"/>
    <line x1="383.2965" x2="383.2965" y1="794.4026" y2="799.608"/>
    <line x1="385.6969" x2="385.6969" y1="798.2221" y2="795.7885"/>
    <line x1="387.8045" x2="359.2926" y1="797.0053" y2="780.544"/>
    <line x1="357.271" x2="357.271" y1="717.0898" y2="690.8116"/>
    <line x1="358.6856" x2="358.6856" y1="691.6283" y2="652.0748"/>
    <line x1="361.0714" x2="361.0714" y1="653.4522" y2="693.0057"/>
    <line x1="361.7853" x2="361.7853" y1="693.4179" y2="714.4835"/>
    <line x1="364.0424" x2="364.0424" y1="713.1804" y2="694.721"/>
    <line x1="363.4572" x2="363.4572" y1="694.3832" y2="654.8297"/>
    <line x1="365.8431" x2="365.8431" y1="656.2071" y2="695.7607"/>
    <line x1="366.2995" x2="366.2995" y1="696.0242" y2="711.8772"/>
    <line x1="368.5566" x2="368.5566" y1="710.5741" y2="697.3273"/>
    <line x1="368.2289" x2="368.2289" y1="697.1381" y2="657.5846"/>
    <line x1="370.6147" x2="370.6147" y1="658.9621" y2="698.5156"/>
    <line x1="370.8137" x2="370.8137" y1="698.6305" y2="709.2709"/>
    <line x1="373.0709" x2="373.0005" y1="707.9678" y2="660.3395"/>
    <line x1="375.3864" x2="375.3864" y1="661.717" y2="701.2705"/>
    <line x1="377.7722" x2="377.7722" y1="702.6479" y2="663.0944"/>
    <line x1="353.9139" x2="350.4997" y1="671.5932" y2="669.622"/>
    <line x1="359.5282" x2="359.5282" y1="692.1147" y2="715.7867"/>
    <line x1="377.9718" x2="377.9718" y1="705.1382" y2="702.7632"/>
    <line x1="416.2773" x2="416.2773" y1="724.4956" y2="725.0815"/>
    <line x1="444.8638" x2="444.8638" y1="725.0507" y2="722.0968"/>
    <line x1="448.5985" x2="448.5985" y1="784.9751" y2="791.9546"/>
    <line x1="450.9629" x2="450.9629" y1="793.3196" y2="786.3401"/>
    <line x1="453.3273" x2="453.3273" y1="787.7052" y2="794.6847"/>
    <line x1="455.6917" x2="455.6917" y1="796.0498" y2="789.0703"/>
    <line x1="458.0561" x2="458.0561" y1="790.4354" y2="797.4149"/>
    <line x1="460.4205" x2="460.4205" y1="798.78" y2="791.8005"/>
    <line x1="462.7849" x2="462.7849" y1="793.1656" y2="800.1451"/>
    <line x1="465.1493" x2="465.1493" y1="801.5101" y2="794.5306"/>
    <line x1="467.5137" x2="467.5137" y1="795.8957" y2="802.8752"/>
    <line x1="469.8781" x2="469.8781" y1="804.2403" y2="797.2608"/>
    <line x1="472.2425" x2="472.2425" y1="798.6259" y2="805.6054"/>
    <line x1="474.6069" x2="474.6069" y1="806.9705" y2="799.991"/>
    <line x1="476.9713" x2="476.9713" y1="801.3561" y2="808.3356"/>
    <line x1="479.3357" x2="479.3357" y1="809.7007" y2="802.7212"/>
    <line x1="481.7001" x2="481.7001" y1="804.0862" y2="811.0657"/>
    <line x1="490.6105" x2="490.6105" y1="826.8235" y2="892.1026"/>
    <line x1="495.2062" x2="495.2062" y1="889.4493" y2="824.1702"/>
    <line x1="486.0148" x2="486.0148" y1="829.4768" y2="894.756"/>
    <line x1="481.4191" x2="481.4191" y1="897.4093" y2="832.1302"/>
    <line x1="476.8234" x2="476.8234" y1="834.7835" y2="900.0626"/>
    <line x1="472.2277" x2="472.2277" y1="902.716" y2="837.4368"/>
    <line x1="467.632" x2="467.632" y1="840.0902" y2="905.3693"/>
    <line x1="456.3539" x2="456.3539" y1="911.8807" y2="1020.7195"/>
    <line x1="453.9372" x2="453.8449" y1="1019.3242" y2="848.0501"/>
    <polyline points="449.2492,850.7035 449.1037,1016.5336 492.6047,1041.6489"/>
    <line x1="497.3092" x2="497.3092" y1="1038.9327" y2="926.8967"/>
    <line x1="502.0138" x2="502.0138" y1="924.1805" y2="1036.2165"/>
    <line x1="506.7184" x2="506.7184" y1="1033.5003" y2="921.4644"/>
    <line x1="511.4229" x2="511.4229" y1="918.7482" y2="1030.7842"/>
    <line x1="516.1275" x2="516.1275" y1="1028.068" y2="916.032"/>
    <line x1="520.832" x2="520.832" y1="913.3158" y2="1025.3518"/>
    <line x1="525.5366" x2="525.5366" y1="1022.6356" y2="910.5996"/>
    <line x1="530.2411" x2="530.2411" y1="907.8835" y2="1019.9194"/>
    <line x1="534.9457" x2="534.9457" y1="1017.2033" y2="905.1673"/>
    <line x1="539.6503" x2="539.6503" y1="902.4511" y2="1014.4871"/>
    <line x1="544.3548" x2="544.3548" y1="1011.7709" y2="899.7349"/>
    <line x1="549.0594" x2="549.0594" y1="897.0188" y2="1009.0547"/>
    <line x1="553.7639" x2="553.7639" y1="1006.3386" y2="894.3026"/>
    <line x1="555.5045" x2="555.5045" y1="889.8751" y2="834.2193"/>
    <line x1="553.1065" x2="553.1065" y1="832.8348" y2="888.4906"/>
    <polyline points="549.65,814.6647 629.4615,860.7439 629.4615,971.7777 615.454,979.865 615.454,868.8311 629.4615,860.7439"/>
    <line x1="518.0811" x2="518.0811" y1="797.2763" y2="785.8118"/>
    <line x1="513.2216" x2="513.2216" y1="788.6174" y2="800.0819"/>
    <line x1="508.3621" x2="508.3621" y1="802.8876" y2="791.4231"/>
    <line x1="443.8697" x2="443.1462" y1="788.3889" y2="788.8067"/>
    <line x1="444.6535" x2="444.6535" y1="853.3568" y2="918.6359"/>
    <line x1="451.5204" x2="451.5204" y1="914.6713" y2="1017.9289"/>
    <line x1="179.8689" x2="179.8689" y1="899.4666" y2="891.4846"/>
    <line x1="178.8186" x2="178.8186" y1="890.8782" y2="804.7281"/>
    <line x1="176.3986" x2="176.3986" y1="803.331" y2="889.481"/>
    <line x1="181.2385" x2="181.2385" y1="892.2753" y2="806.1253"/>
    <polyline points="147.3594,847.3599 129.7647,837.2016 63.2789,875.5872 63.2789,897.9572 122.881,932.3685"/>
    <line x1="120.4969" x2="120.4969" y1="930.9921" y2="908.6221"/>
    <line x1="122.881" x2="63.2789" y1="909.9985" y2="875.5872"/>
    <line x1="65.663" x2="65.663" y1="876.9637" y2="899.3337"/>
    <line x1="68.0471" x2="68.0471" y1="900.7101" y2="878.3401"/>
    <line x1="70.4311" x2="70.4311" y1="879.7166" y2="902.0866"/>
    <line x1="72.8152" x2="72.8152" y1="903.463" y2="881.093"/>
    <line x1="75.1993" x2="75.1993" y1="882.4695" y2="904.8395"/>
    <line x1="77.5834" x2="77.5834" y1="906.2159" y2="883.8459"/>
    <line x1="79.9675" x2="79.9675" y1="885.2224" y2="907.5924"/>
    <line x1="82.3516" x2="82.3516" y1="908.9688" y2="886.5988"/>
    <line x1="84.7357" x2="84.7357" y1="887.9753" y2="910.3453"/>
    <line x1="87.1197" x2="87.1197" y1="911.7217" y2="889.3517"/>
    <line x1="89.5038" x2="89.5038" y1="890.7282" y2="913.0982"/>
    <line x1="91.8879" x2="91.8879" y1="914.4747" y2="892.1046"/>
    <line x1="94.272" x2="94.272" y1="893.4811" y2="915.8511"/>
    <line x1="96.6561" x2="96.6561" y1="917.2276" y2="894.8575"/>
    <line x1="99.0402" x2="99.0402" y1="896.234" y2="918.604"/>
    <line x1="101.4243" x2="101.4243" y1="919.9805" y2="897.6105"/>
    <line x1="103.8083" x2="103.8083" y1="898.9869" y2="921.3569"/>
    <line x1="106.1924" x2="106.1924" y1="922.7334" y2="900.3634"/>
    <line x1="108.5765" x2="108.5765" y1="901.7398" y2="924.1098"/>
    <line x1="110.9606" x2="110.9606" y1="925.4863" y2="903.1163"/>
    <line x1="113.3447" x2="113.3447" y1="904.4927" y2="926.8627"/>
    <line x1="115.7288" x2="115.7288" y1="928.2392" y2="905.8692"/>
    <line x1="118.1129" x2="118.1129" y1="907.2456" y2="929.6156"/>
    <line x1="127.63" x2="127.63" y1="929.6267" y2="907.2567"/>
    <line x1="132.379" x2="132.379" y1="904.5149" y2="926.8849"/>
    <line x1="137.128" x2="137.128" y1="924.143" y2="901.773"/>
    <line x1="141.877" x2="141.877" y1="899.0312" y2="921.4012"/>
    <line x1="146.626" x2="146.626" y1="918.6594" y2="896.2894"/>
    <line x1="151.375" x2="151.375" y1="893.5475" y2="915.9176"/>
    <line x1="156.124" x2="156.124" y1="913.1757" y2="890.8057"/>
    <line x1="160.8729" x2="160.8729" y1="888.0639" y2="910.4339"/>
    <line x1="165.6219" x2="165.6219" y1="907.6921" y2="885.3221"/>
    <line x1="440.0904" x2="440.0904" y1="635.3591" y2="617.9245"/>
    <line x1="444.8638" x2="444.8638" y1="615.1687" y2="634.6569"/>
    <line x1="449.6371" x2="449.6371" y1="637.4128" y2="612.4128"/>
    <line x1="454.4104" x2="454.4104" y1="609.6569" y2="640.1687"/>
    <line x1="459.1837" x2="459.1837" y1="642.9245" y2="606.901"/>
    <line x1="463.957" x2="463.957" y1="604.1452" y2="645.6804"/>
    <line x1="468.7303" x2="468.7303" y1="648.4363" y2="601.3893"/>
    <line x1="473.5036" x2="473.5036" y1="598.6334" y2="651.1922"/>
    <line x1="478.2769" x2="478.2769" y1="653.948" y2="595.8775"/>
    <line x1="483.0502" x2="483.0502" y1="593.1217" y2="656.7039"/>
    <line x1="487.8236" x2="487.8236" y1="659.4598" y2="590.3658"/>
    <line x1="492.5969" x2="492.5969" y1="587.6099" y2="662.2157"/>
    <line x1="412.5552" x2="412.5552" y1="539.9106" y2="515.7631"/>
    <line x1="447.8443" x2="447.8443" y1="492.6227" y2="460.5255"/>
    <line x1="569.3429" x2="569.3429" y1="376.4742" y2="338.1755"/>
    <line x1="566.916" x2="642.1519" y1="336.7743" y2="380.2117"/>
    <line x1="639.7249" x2="639.7249" y1="378.8105" y2="417.1093"/>
    <polyline points="642.1519,418.5105 666.3271,404.5529 666.3271,366.2542 591.0912,322.8167 566.916,336.7743 566.916,375.073 642.1519,418.5105 642.1519,380.2117 666.3271,366.2542"/>
    <line x1="661.4921" x2="661.4921" y1="369.0457" y2="407.3444"/>
    <line x1="656.657" x2="656.657" y1="410.136" y2="371.8372"/>
    <line x1="651.822" x2="651.822" y1="374.6287" y2="412.9275"/>
    <line x1="646.9869" x2="646.9869" y1="415.719" y2="377.4202"/>
    <line x1="637.298" x2="637.298" y1="377.4093" y2="415.7081"/>
    <line x1="634.871" x2="634.871" y1="414.3069" y2="376.0081"/>
    <line x1="632.444" x2="632.444" y1="374.6069" y2="412.9057"/>
    <line x1="630.0171" x2="630.0171" y1="411.5045" y2="373.2057"/>
    <line x1="627.5901" x2="627.5901" y1="371.8045" y2="410.1033"/>
    <line x1="625.1631" x2="625.1631" y1="408.702" y2="370.4033"/>
    <line x1="622.7362" x2="622.7362" y1="369.0021" y2="407.3008"/>
    <line x1="622.3113" x2="599.7686" y1="407.0555" y2="420.0705"/>
    <line x1="610.6014" x2="610.6014" y1="400.2948" y2="361.996"/>
    <line x1="608.1744" x2="608.1744" y1="360.5948" y2="398.8936"/>
    <line x1="605.7474" x2="605.7474" y1="397.4924" y2="359.1936"/>
    <line x1="603.3205" x2="603.3205" y1="357.7924" y2="396.0912"/>
    <line x1="600.8935" x2="600.8935" y1="394.69" y2="356.3912"/>
    <line x1="598.4665" x2="598.4665" y1="354.99" y2="393.2887"/>
    <line x1="596.0396" x2="596.0396" y1="391.8875" y2="353.5888"/>
    <line x1="593.6126" x2="593.6126" y1="352.1876" y2="390.4863"/>
    <line x1="591.1856" x2="591.1856" y1="389.0851" y2="350.7864"/>
    <line x1="588.7587" x2="588.7587" y1="349.3851" y2="387.6839"/>
    <line x1="586.3317" x2="586.3317" y1="386.2827" y2="347.9839"/>
    <line x1="583.9047" x2="583.9047" y1="346.5827" y2="384.8815"/>
    <line x1="581.4778" x2="581.4778" y1="383.4803" y2="345.1815"/>
    <line x1="579.0508" x2="579.0508" y1="343.7803" y2="382.0791"/>
    <line x1="576.6238" x2="576.6238" y1="380.6779" y2="342.3791"/>
    <line x1="574.1969" x2="574.1969" y1="340.9779" y2="379.2767"/>
    <line x1="571.7699" x2="571.7699" y1="377.8754" y2="339.5767"/>
    <line x1="613.0283" x2="613.0283" y1="363.3972" y2="401.696"/>
    <line x1="615.4553" x2="615.4553" y1="403.0972" y2="364.7984"/>
    <line x1="617.8822" x2="617.8822" y1="366.1997" y2="404.4984"/>
    <line x1="620.3092" x2="620.3092" y1="405.8996" y2="367.6009"/>
    <polyline points="642.6018,418.2508 689.5486,445.3556 689.5486,476.4438 608.0015,523.525 608.0015,492.4368 689.5486,445.3556"/>
    <line x1="684.7517" x2="684.7517" y1="448.125" y2="479.2133"/>
    <line x1="679.9548" x2="679.9548" y1="481.9828" y2="450.8945"/>
    <line x1="675.1579" x2="675.1579" y1="453.664" y2="484.7522"/>
    <line x1="670.3611" x2="670.3611" y1="487.5217" y2="456.4335"/>
    <line x1="665.5642" x2="665.5642" y1="459.203" y2="490.2912"/>
    <line x1="660.7673" x2="660.7673" y1="493.0607" y2="461.9725"/>
    <line x1="655.9704" x2="655.9704" y1="464.7419" y2="495.8302"/>
    <line x1="651.1735" x2="651.1735" y1="498.5997" y2="467.5114"/>
    <line x1="646.3766" x2="646.3766" y1="470.2809" y2="501.3692"/>
    <line x1="641.5797" x2="641.5797" y1="504.1386" y2="473.0504"/>
    <line x1="636.7828" x2="636.7828" y1="475.8199" y2="506.9081"/>
    <line x1="631.986" x2="631.986" y1="509.6776" y2="478.5894"/>
    <line x1="627.1891" x2="627.1891" y1="481.3588" y2="512.4471"/>
    <line x1="622.3922" x2="622.3922" y1="515.2166" y2="484.1283"/>
    <line x1="617.5953" x2="617.5953" y1="486.8978" y2="517.9861"/>
    <line x1="612.7984" x2="612.7984" y1="520.7555" y2="489.6673"/>
    <line x1="603.231" x2="603.231" y1="489.6825" y2="520.7708"/>
    <polyline points="485.4275,234.7838 520.355,214.6183 520.355,122.3407 461.9808,88.6383 427.0532,108.8037 427.0532,201.0814 485.4275,234.7838 485.4275,142.5061 520.355,122.3407"/>
    <line x1="515.9891" x2="515.9891" y1="124.8613" y2="217.139"/>
    <line x1="511.6231" x2="511.6231" y1="219.6597" y2="127.382"/>
    <line x1="507.2572" x2="507.2572" y1="129.9027" y2="222.1804"/>
    <line x1="502.8912" x2="502.8912" y1="224.7011" y2="132.4234"/>
    <line x1="498.5253" x2="498.4774" y1="134.9441" y2="227.7707"/>
    <line x1="494.9229" x2="494.9229" y1="229.3016" y2="229.8228"/>
    <line x1="494.1593" x2="494.1593" y1="229.7424" y2="137.4647"/>
    <line x1="489.7934" x2="489.7934" y1="139.9854" y2="232.2631"/>
    <line x1="490.917" x2="491.3684" y1="231.6144" y2="231.875"/>
    <polyline points="491.3684,231.3537 491.3684,231.875 502.0319,225.7185 502.0319,225.1972"/>
    <line x1="482.9952" x2="482.9952" y1="233.3795" y2="141.1018"/>
    <line x1="480.5629" x2="480.5629" y1="139.6976" y2="231.9752"/>
    <line x1="478.1307" x2="478.1307" y1="230.571" y2="138.2933"/>
    <line x1="475.6984" x2="475.6984" y1="136.889" y2="229.1667"/>
    <line x1="473.2662" x2="473.2662" y1="227.7624" y2="135.4848"/>
    <line x1="470.8339" x2="470.8339" y1="134.0805" y2="226.3582"/>
    <line x1="468.4016" x2="468.4016" y1="224.9539" y2="132.6762"/>
    <line x1="465.9694" x2="465.9694" y1="131.272" y2="223.5496"/>
    <line x1="463.5371" x2="463.5371" y1="222.1454" y2="129.8677"/>
    <line x1="461.1049" x2="461.1049" y1="128.4634" y2="220.7411"/>
    <line x1="458.6726" x2="458.6726" y1="219.3368" y2="127.0592"/>
    <line x1="456.2403" x2="456.2403" y1="125.6549" y2="217.9326"/>
    <line x1="453.8081" x2="453.8081" y1="216.5283" y2="124.2506"/>
    <line x1="451.3758" x2="451.3758" y1="122.8464" y2="215.1241"/>
    <line x1="448.9436" x2="448.9436" y1="213.7198" y2="121.4421"/>
    <line x1="446.5113" x2="446.5113" y1="120.0378" y2="212.3155"/>
    <line x1="444.0791" x2="444.0791" y1="210.9113" y2="118.6336"/>
    <line x1="441.6468" x2="441.6468" y1="117.2293" y2="209.507"/>
    <line x1="439.2145" x2="439.2145" y1="208.1027" y2="115.825"/>
    <line x1="436.7823" x2="436.7823" y1="114.4208" y2="206.6985"/>
    <line x1="434.35" x2="434.35" y1="205.2942" y2="113.0165"/>
    <line x1="431.9178" x2="431.9178" y1="111.6123" y2="203.8899"/>
    <line x1="429.4855" x2="429.4855" y1="202.4857" y2="110.208"/>
    <line x1="427.9146" x2="427.9146" y1="108.3064" y2="101.1178"/>
    <line x1="430.3552" x2="430.3552" y1="102.5268" y2="106.8974"/>
    <line x1="432.7957" x2="432.7957" y1="105.4883" y2="103.9359"/>
    <line x1="434.1402" x2="403.5093" y1="104.7121" y2="87.0274"/>
    <line x1="405.9499" x2="405.9499" y1="88.4364" y2="182.5586"/>
    <line x1="408.3904" x2="408.3904" y1="183.9676" y2="89.8455"/>
    <line x1="410.8309" x2="410.8309" y1="91.2545" y2="185.3767"/>
    <line x1="413.2714" x2="413.2714" y1="186.7857" y2="92.6635"/>
    <line x1="415.712" x2="415.712" y1="94.0726" y2="188.1948"/>
    <line x1="418.1525" x2="418.1525" y1="189.6038" y2="95.4816"/>
    <line x1="420.593" x2="420.593" y1="96.8907" y2="191.0128"/>
    <line x1="423.0336" x2="423.0336" y1="192.4219" y2="98.2997"/>
    <line x1="425.4741" x2="425.4741" y1="99.7087" y2="193.8309"/>
    <polyline points="427.0532,194.7426 403.5093,181.1496 403.5093,87.0274 414.1728,80.8708 444.8036,98.5555"/>
    <line x1="427.0532" x2="485.4275" y1="108.8037" y2="142.5061"/>
    <line x1="405.7384" x2="377.157" y1="211.4346" y2="227.9361"/>
    <line x1="381.9206" x2="381.9206" y1="225.1858" y2="248.0195"/>
    <line x1="386.6842" x2="386.6842" y1="245.2693" y2="222.4356"/>
    <line x1="391.4477" x2="391.4477" y1="219.6853" y2="242.519"/>
    <line x1="396.2113" x2="396.2113" y1="239.7688" y2="216.9351"/>
    <line x1="400.9749" x2="400.9749" y1="214.1848" y2="237.0185"/>
    <line x1="336.1357" x2="336.1357" y1="213.561" y2="181.9396"/>
    <line x1="331.2796" x2="331.2796" y1="184.7432" y2="210.7573"/>
    <line x1="326.4235" x2="326.4235" y1="207.9536" y2="187.5469"/>
    <line x1="321.5674" x2="321.5674" y1="190.3506" y2="205.15"/>
    <line x1="316.7113" x2="223.2728" y1="193.1543" y2="139.2075"/>
  </g>
</svg>
