<?xml version="1.0" encoding="utf-8" ?>
<svg xmlns="http://www.w3.org/2000/svg" xmlns:cc="http://creativecommons.org/ns#" xmlns:dc="http://purl.org/dc/elements/1.1/" xmlns:ev="http://www.w3.org/2001/xml-events" xmlns:inkscape="http://www.inkscape.org/namespaces/inkscape" xmlns:rdf="http://www.w3.org/1999/02/22-rdf-syntax-ns#" xmlns:sodipodi="http://sodipodi.sourceforge.net/DTD/sodipodi-0.dtd" xmlns:xlink="http://www.w3.org/1999/xlink" baseProfile="tiny" height="29.7cm" version="1.2" viewBox="0 0 793.7007874015749 1122.5196850393702" width="21.0cm">
  <metadata>
    <rdf:RDF>
      <cc:Work>
        <dc:format>image/svg+xml</dc:format>
        <dc:source/>
        <dc:date>2021-12-10T23:13:44.364105</dc:date>
      </cc:Work>
    </rdf:RDF>
  </metadata>
  <defs/>
  <g fill="none" id="layer1" inkscape:groupmode="layer" inkscape:label="1" stroke="#00f" style="display:inline">
    <polyline points="425.4932,789.151 441.4472,798.362 441.4472,902.6113 494.3838,872.0483 494.3838,767.7991 425.4932,728.0251"/>
    <line x1="419.8686" x2="419.8686" y1="740.3072" y2="669.7981"/>
    <line x1="415.1514" x2="415.1514" y1="672.5216" y2="737.5837"/>
    <line x1="410.4341" x2="410.4341" y1="734.8602" y2="675.2451"/>
    <line x1="405.7169" x2="405.7169" y1="677.9686" y2="732.1367"/>
    <line x1="400.9997" x2="400.9997" y1="729.4133" y2="680.6921"/>
    <line x1="396.2824" x2="396.2824" y1="683.4156" y2="726.6898"/>
    <line x1="391.5652" x2="391.5652" y1="723.9663" y2="686.1391"/>
    <line x1="386.8479" x2="386.8479" y1="688.8626" y2="721.2428"/>
    <polyline points="382.1307,718.5193 382.1307,691.5861 369.4317,684.2544"/>
    <line x1="371.5482" x2="371.5482" y1="685.4763" y2="724.0751"/>
    <polyline points="369.4317,725.2971 369.4317,684.2544 411.8868,659.7429 424.5858,667.0747 424.5858,743.0307"/>
    <polyline points="425.4932,743.5546 425.4932,693.6326 424.5858,693.1087"/>
    <line x1="424.5858" x2="425.4932" y1="694.1565" y2="693.6326"/>
    <line x1="424.5858" x2="382.1307" y1="667.0747" y2="691.5861"/>
    <line x1="380.0142" x2="380.0142" y1="690.3642" y2="719.1873"/>
    <line x1="377.8977" x2="377.8977" y1="720.4092" y2="689.1422"/>
    <line x1="375.7812" x2="375.7812" y1="687.9202" y2="721.6312"/>
    <line x1="373.6647" x2="373.6647" y1="722.8531" y2="686.6983"/>
    <line x1="373.7527" x2="373.7527" y1="681.7597" y2="668.5094"/>
    <line x1="374.1724" x2="374.1724" y1="668.267" y2="634.536"/>
    <polyline points="369.3495,637.3205 369.4317,690.9136 342.768,706.3079 342.768,672.4117"/>
    <line x1="343.0251" x2="343.0251" y1="672.5601" y2="638.8291"/>
    <line x1="340.654" x2="340.654" y1="637.4601" y2="671.1911"/>
    <line x1="340.4248" x2="340.4248" y1="671.0588" y2="704.955"/>
    <polyline points="342.768,706.3079 307.6199,686.0151 307.458,648.9008"/>
    <line x1="305.4776" x2="305.4776" y1="650.0442" y2="620.0793"/>
    <line x1="310.3306" x2="310.3306" y1="617.2774" y2="647.2423"/>
    <line x1="309.8291" x2="309.9631" y1="647.5318" y2="687.368"/>
    <line x1="312.3063" x2="312.2002" y1="688.7208" y2="646.1629"/>
    <line x1="314.5714" x2="314.6495" y1="644.7939" y2="690.0737"/>
    <line x1="316.9927" x2="316.9425" y1="691.4265" y2="643.4249"/>
    <line x1="315.1836" x2="315.1836" y1="644.4404" y2="614.4756"/>
    <line x1="320.0365" x2="320.0365" y1="611.6737" y2="641.6386"/>
    <line x1="319.3137" x2="319.3359" y1="642.0559" y2="692.7794"/>
    <line x1="321.6791" x2="321.6848" y1="694.1322" y2="640.6869"/>
    <line x1="324.056" x2="324.0223" y1="639.318" y2="695.4851"/>
    <line x1="326.3656" x2="326.4271" y1="696.8379" y2="637.949"/>
    <line x1="324.8895" x2="324.8895" y1="638.8367" y2="608.8719"/>
    <line x1="329.7425" x2="329.7425" y1="606.07" y2="636.0349"/>
    <line x1="328.7982" x2="328.7088" y1="636.58" y2="698.1908"/>
    <line x1="331.052" x2="331.1694" y1="699.5436" y2="635.211"/>
    <line x1="333.5405" x2="333.3952" y1="633.842" y2="700.8965"/>
    <line x1="335.7384" x2="335.7384" y1="702.2493" y2="668.3531"/>
    <line x1="335.9117" x2="335.9117" y1="668.4532" y2="634.7222"/>
    <line x1="334.5954" x2="334.5954" y1="633.233" y2="603.2681"/>
    <line x1="339.4484" x2="339.4484" y1="600.4663" y2="630.4311"/>
    <line x1="344.3014" x2="344.3014" y1="627.6293" y2="597.6644"/>
    <line x1="349.1543" x2="349.1543" y1="594.8626" y2="624.8274"/>
    <line x1="354.0073" x2="354.0073" y1="622.0256" y2="592.0607"/>
    <line x1="358.8603" x2="358.8603" y1="589.2588" y2="619.2237"/>
    <line x1="363.7132" x2="363.7132" y1="616.4218" y2="586.457"/>
    <line x1="368.5662" x2="368.5662" y1="583.6551" y2="613.62"/>
    <line x1="373.4191" x2="373.4191" y1="610.8181" y2="580.8533"/>
    <line x1="378.2721" x2="378.2721" y1="578.0514" y2="608.0163"/>
    <line x1="388.641" x2="388.641" y1="626.1825" y2="659.9136"/>
    <line x1="389.2526" x2="389.2526" y1="659.5605" y2="662.5412"/>
    <polyline points="387.0318,663.8234 413.5654,648.5042 413.5654,645.5235"/>
    <line x1="412.7555" x2="412.7555" y1="645.9911" y2="612.2601"/>
    <line x1="407.9326" x2="407.9326" y1="615.0446" y2="648.7756"/>
    <line x1="408.7028" x2="408.7028" y1="648.3309" y2="651.3116"/>
    <line x1="403.8403" x2="403.8403" y1="651.1383" y2="654.119"/>
    <line x1="403.1097" x2="403.1097" y1="651.5601" y2="617.829"/>
    <line x1="398.2868" x2="398.2868" y1="620.6135" y2="654.3446"/>
    <line x1="398.9777" x2="398.9777" y1="653.9457" y2="656.9264"/>
    <line x1="394.1152" x2="394.1152" y1="656.7531" y2="659.7338"/>
    <line x1="393.4639" x2="393.4639" y1="657.1291" y2="623.398"/>
    <line x1="383.8181" x2="383.8181" y1="628.967" y2="662.6981"/>
    <line x1="382.6054" x2="382.6054" y1="663.3982" y2="676.6485"/>
    <line x1="387.0318" x2="387.0318" y1="674.0929" y2="660.8426"/>
    <line x1="378.9953" x2="378.9953" y1="665.4826" y2="631.7515"/>
    <line x1="364.5266" x2="364.5266" y1="640.105" y2="673.836"/>
    <line x1="364.8999" x2="364.8999" y1="673.6205" y2="693.53"/>
    <line x1="360.4735" x2="360.4735" y1="696.0856" y2="676.1761"/>
    <line x1="359.7037" x2="359.7037" y1="676.6205" y2="642.8895"/>
    <line x1="354.8808" x2="446.5157" y1="645.674" y2="592.7686"/>
    <line x1="441.6928" x2="441.6928" y1="595.5531" y2="629.2841"/>
    <line x1="436.8699" x2="436.8699" y1="632.0686" y2="598.3376"/>
    <line x1="432.047" x2="432.047" y1="601.1221" y2="634.8531"/>
    <line x1="427.2241" x2="427.2241" y1="637.6376" y2="603.9066"/>
    <line x1="422.4012" x2="422.4012" y1="606.6911" y2="640.4221"/>
    <line x1="417.5783" x2="417.5783" y1="643.2066" y2="609.4756"/>
    <line x1="383.1251" x2="286.0658" y1="575.2495" y2="631.2867"/>
    <line x1="283.6362" x2="283.6362" y1="629.884" y2="659.8489"/>
    <line x1="281.2066" x2="281.2066" y1="658.4461" y2="628.4813"/>
    <line x1="278.777" x2="278.777" y1="627.0786" y2="657.0434"/>
    <line x1="276.3474" x2="276.3474" y1="655.6407" y2="636.0002"/>
    <line x1="273.9178" x2="273.9178" y1="637.4029" y2="654.238"/>
    <line x1="271.4882" x2="271.4882" y1="652.8352" y2="638.8057"/>
    <line x1="273.1726" x2="273.1726" y1="637.8332" y2="614.7788"/>
    <line x1="274.78" x2="274.78" y1="613.4562" y2="556.833"/>
    <line x1="273.588" x2="273.588" y1="556.1448" y2="463.2453"/>
    <line x1="271.1707" x2="271.1707" y1="461.8497" y2="554.7492"/>
    <polyline points="272.9295,555.7647 247.4178,570.4938 247.4178,629.2538 306.7025,595.0257 306.7025,575.2635"/>
    <line x1="307.4292" x2="307.4292" y1="575.6831" y2="512.6592"/>
    <line x1="306.5328" x2="306.5328" y1="512.1417" y2="430.1129"/>
    <line x1="304.0957" x2="304.0957" y1="428.7058" y2="510.7346"/>
    <line x1="305.012" x2="305.012" y1="511.2636" y2="574.2875"/>
    <line x1="302.5948" x2="302.5948" y1="572.8919" y2="509.8681"/>
    <line x1="301.6586" x2="301.6586" y1="509.3275" y2="427.2988"/>
    <line x1="299.2214" x2="299.2214" y1="425.8917" y2="507.9205"/>
    <line x1="300.1775" x2="300.1775" y1="508.4725" y2="571.4963"/>
    <line x1="302.1422" x2="302.1422" y1="572.6306" y2="597.6587"/>
    <line x1="297.5818" x2="297.5818" y1="600.2916" y2="569.9977"/>
    <line x1="297.7603" x2="297.7603" y1="570.1007" y2="507.0769"/>
    <line x1="296.7843" x2="296.7843" y1="506.5134" y2="424.4846"/>
    <line x1="294.3472" x2="294.3472" y1="423.0775" y2="505.1063"/>
    <line x1="295.3431" x2="295.3431" y1="505.6813" y2="568.7051"/>
    <line x1="290.5086" x2="290.5086" y1="565.9139" y2="502.8901"/>
    <line x1="289.4729" x2="289.4729" y1="502.2922" y2="420.2634"/>
    <line x1="287.0358" x2="287.0358" y1="418.8563" y2="500.8851"/>
    <line x1="288.0914" x2="288.0914" y1="501.4945" y2="564.5183"/>
    <line x1="288.4611" x2="288.4611" y1="564.7318" y2="605.5574"/>
    <line x1="293.0214" x2="292.9258" y1="602.9245" y2="504.2857"/>
    <line x1="291.9101" x2="291.9101" y1="503.6992" y2="421.6705"/>
    <line x1="284.5987" x2="284.5987" y1="417.4492" y2="499.478"/>
    <line x1="285.6741" x2="285.6741" y1="500.0989" y2="563.1228"/>
    <line x1="283.9007" x2="283.9007" y1="562.0989" y2="608.1904"/>
    <line x1="279.3404" x2="279.3404" y1="610.8233" y2="559.466"/>
    <line x1="278.4224" x2="278.4224" y1="558.936" y2="466.0365"/>
    <line x1="276.0052" x2="276.0052" y1="464.6409" y2="557.5404"/>
    <line x1="280.8397" x2="280.8397" y1="560.3316" y2="467.4321"/>
    <line x1="282.1615" x2="244.5812" y1="468.1953" y2="446.4982"/>
    <line x1="246.9984" x2="246.9984" y1="447.8938" y2="540.7933"/>
    <line x1="249.4156" x2="249.4156" y1="542.1889" y2="449.2894"/>
    <line x1="251.8329" x2="251.8329" y1="450.685" y2="543.5845"/>
    <line x1="254.2501" x2="254.2501" y1="544.9801" y2="452.0806"/>
    <line x1="256.6673" x2="256.6673" y1="453.4762" y2="546.3757"/>
    <line x1="259.0846" x2="259.0846" y1="547.7713" y2="454.8718"/>
    <line x1="261.5018" x2="261.5018" y1="456.2673" y2="549.1669"/>
    <line x1="263.919" x2="263.919" y1="550.5624" y2="457.6629"/>
    <line x1="266.3363" x2="266.3363" y1="459.0585" y2="551.958"/>
    <line x1="268.7535" x2="268.7535" y1="553.3536" y2="460.4541"/>
    <line x1="244.5812" x2="228.9899" y1="456.9686" y2="465.9702"/>
    <line x1="226.7407" x2="226.7407" y1="464.6716" y2="483.9109"/>
    <line x1="224.4915" x2="224.4915" y1="482.6123" y2="463.3731"/>
    <line x1="222.2423" x2="222.2423" y1="462.0745" y2="481.3138"/>
    <line x1="219.9931" x2="219.9931" y1="480.0152" y2="460.7759"/>
    <line x1="217.7439" x2="217.7439" y1="459.4773" y2="478.7166"/>
    <line x1="215.4947" x2="215.4947" y1="477.418" y2="458.1788"/>
    <line x1="213.2456" x2="213.2456" y1="456.8802" y2="476.1195"/>
    <line x1="210.9964" x2="210.9964" y1="474.8209" y2="455.5816"/>
    <polyline points="208.7472,454.2831 228.9899,465.9702 228.9899,485.2095 244.5812,476.2078"/>
    <line x1="241.7997" x2="241.7997" y1="477.8137" y2="458.5744"/>
    <line x1="237.5297" x2="237.5297" y1="461.0397" y2="480.279"/>
    <line x1="233.2598" x2="233.2598" y1="482.7442" y2="463.5049"/>
    <polyline points="244.5812,450.3193 230.0968,441.9568 208.7472,454.2831 208.7472,473.5223 228.9899,485.2095"/>
    <line x1="228.6155" x2="213.3897" y1="498.6082" y2="489.8176"/>
    <polyline points="213.3897,485.9016 187.0362,501.1167 187.0362,522.614"/>
    <line x1="184.5877" x2="184.5877" y1="524.0277" y2="499.7031"/>
    <line x1="187.0362" x2="130.7196" y1="501.1167" y2="468.6024"/>
    <line x1="133.1682" x2="133.1682" y1="470.016" y2="527.2246"/>
    <line x1="135.6167" x2="135.6167" y1="528.6383" y2="471.4297"/>
    <line x1="138.0653" x2="138.0653" y1="472.8434" y2="530.052"/>
    <line x1="140.5138" x2="140.5138" y1="531.4656" y2="474.257"/>
    <line x1="142.9624" x2="142.9624" y1="475.6707" y2="532.8793"/>
    <line x1="145.4109" x2="145.4109" y1="534.293" y2="477.0844"/>
    <line x1="147.8595" x2="147.8595" y1="478.498" y2="535.7066"/>
    <line x1="150.308" x2="150.308" y1="537.1203" y2="479.9117"/>
    <line x1="152.7566" x2="152.7566" y1="481.3254" y2="538.534"/>
    <line x1="155.2051" x2="155.2051" y1="539.9477" y2="482.739"/>
    <line x1="157.6536" x2="157.6536" y1="484.1527" y2="541.3613"/>
    <line x1="160.1022" x2="160.1022" y1="542.775" y2="485.5664"/>
    <line x1="162.5507" x2="162.5507" y1="486.98" y2="544.1887"/>
    <line x1="164.9993" x2="164.9993" y1="545.6023" y2="488.3937"/>
    <line x1="167.4478" x2="167.4478" y1="489.8074" y2="547.016"/>
    <line x1="169.8964" x2="169.8964" y1="548.4297" y2="491.2211"/>
    <line x1="172.3449" x2="172.3449" y1="492.6347" y2="549.8433"/>
    <line x1="174.7935" x2="174.7935" y1="551.257" y2="494.0484"/>
    <line x1="177.242" x2="177.242" y1="495.4621" y2="528.2687"/>
    <line x1="175.7619" x2="247.4178" y1="529.1233" y2="570.4938"/>
    <line x1="245.0293" x2="245.0293" y1="569.1148" y2="627.8748"/>
    <polyline points="247.4178,629.2538 175.7619,587.8832 175.7619,529.1233 235.0466,494.8952 244.5812,500.4"/>
    <polyline points="213.3897,507.3989 213.3897,485.9016 157.0731,453.3872 130.7196,468.6024 130.7196,525.811 175.7619,551.8161"/>
    <line x1="169.0653" x2="169.0653" y1="561.8998" y2="564.4761"/>
    <line x1="171.4702" x2="171.4702" y1="563.2883" y2="565.8646"/>
    <line x1="173.8752" x2="173.8752" y1="564.6768" y2="567.2531"/>
    <polyline points="175.7619,568.3424 142.2928,549.019 46.0181,604.6032 46.0181,642.71 126.1885,688.9964"/>
    <line x1="123.7591" x2="123.7591" y1="687.5938" y2="649.487"/>
    <line x1="121.3297" x2="121.3297" y1="648.0844" y2="686.1912"/>
    <line x1="118.9003" x2="118.9003" y1="684.7886" y2="646.6817"/>
    <line x1="116.4709" x2="116.4709" y1="645.2791" y2="683.386"/>
    <line x1="114.0415" x2="114.0415" y1="681.9833" y2="643.8765"/>
    <line x1="111.6121" x2="111.6121" y1="642.4739" y2="680.5807"/>
    <line x1="109.1827" x2="109.1827" y1="679.1781" y2="641.0713"/>
    <line x1="106.7533" x2="106.7533" y1="639.6687" y2="677.7755"/>
    <line x1="104.3239" x2="104.3239" y1="676.3729" y2="638.266"/>
    <line x1="101.8945" x2="101.8945" y1="636.8634" y2="674.9702"/>
    <line x1="99.465" x2="99.465" y1="673.5676" y2="635.4608"/>
    <line x1="97.0356" x2="97.0356" y1="634.0582" y2="672.165"/>
    <line x1="94.6062" x2="94.6062" y1="670.7624" y2="632.6556"/>
    <line x1="92.1768" x2="92.1768" y1="631.2529" y2="669.3598"/>
    <line x1="89.7474" x2="89.7474" y1="667.9572" y2="629.8503"/>
    <line x1="87.318" x2="87.318" y1="628.4477" y2="666.5545"/>
    <line x1="84.8886" x2="84.8886" y1="665.1519" y2="627.0451"/>
    <line x1="82.4592" x2="82.4592" y1="625.6425" y2="663.7493"/>
    <line x1="80.0298" x2="80.0298" y1="662.3467" y2="624.2399"/>
    <line x1="77.6004" x2="77.6004" y1="622.8372" y2="660.9441"/>
    <line x1="75.171" x2="75.171" y1="659.5415" y2="621.4346"/>
    <line x1="72.7416" x2="72.7416" y1="620.032" y2="658.1388"/>
    <line x1="70.3122" x2="70.3122" y1="656.7362" y2="618.6294"/>
    <line x1="67.8828" x2="67.8828" y1="617.2268" y2="655.3336"/>
    <line x1="65.4534" x2="65.4534" y1="653.931" y2="615.8242"/>
    <line x1="63.024" x2="63.024" y1="614.4215" y2="652.5284"/>
    <line x1="60.5946" x2="60.5946" y1="651.1257" y2="613.0189"/>
    <line x1="58.1652" x2="58.1652" y1="611.6163" y2="649.7231"/>
    <line x1="55.7358" x2="55.7358" y1="648.3205" y2="610.2137"/>
    <line x1="53.3064" x2="53.3064" y1="608.8111" y2="646.9179"/>
    <line x1="50.8769" x2="50.8769" y1="645.5153" y2="607.4084"/>
    <line x1="48.4475" x2="48.4475" y1="606.0058" y2="644.1127"/>
    <polyline points="46.0181,604.6032 126.1885,650.8896 126.1885,688.9964 222.4632,633.4122 222.4632,614.8462"/>
    <line x1="223.5325" x2="223.5325" y1="615.4636" y2="556.7036"/>
    <line x1="225.921" x2="225.921" y1="558.0827" y2="616.8426"/>
    <line x1="228.3096" x2="228.3096" y1="618.2216" y2="559.4617"/>
    <line x1="230.6981" x2="230.6981" y1="560.8407" y2="619.6006"/>
    <line x1="233.0866" x2="233.0866" y1="620.9797" y2="562.2197"/>
    <line x1="235.4752" x2="235.4752" y1="563.5987" y2="622.3587"/>
    <line x1="237.8637" x2="237.8637" y1="623.7377" y2="564.9778"/>
    <line x1="240.2522" x2="240.2522" y1="566.3568" y2="625.1167"/>
    <line x1="242.6408" x2="242.6408" y1="626.4957" y2="567.7358"/>
    <line x1="251.9782" x2="251.9782" y1="567.8609" y2="626.6209"/>
    <line x1="254.3421" x2="254.3421" y1="625.6506" y2="648.705"/>
    <line x1="249.6344" x2="249.6344" y1="651.423" y2="628.3686"/>
    <line x1="244.9268" x2="244.9268" y1="631.0865" y2="654.1409"/>
    <line x1="240.2191" x2="240.2191" y1="656.8589" y2="633.8045"/>
    <line x1="235.5115" x2="235.5115" y1="636.5225" y2="659.5768"/>
    <line x1="230.8038" x2="230.8038" y1="662.2948" y2="639.2404"/>
    <line x1="226.0962" x2="226.0962" y1="641.9584" y2="665.0128"/>
    <line x1="221.3885" x2="221.3885" y1="667.7307" y2="644.6763"/>
    <line x1="216.6809" x2="216.6809" y1="647.3943" y2="670.4487"/>
    <line x1="211.9732" x2="211.9732" y1="673.1666" y2="650.1123"/>
    <line x1="207.2656" x2="207.2656" y1="652.8302" y2="675.8846"/>
    <line x1="202.5579" x2="202.5579" y1="678.6026" y2="655.5482"/>
    <line x1="197.8503" x2="197.8503" y1="658.2661" y2="681.3205"/>
    <line x1="193.1427" x2="193.1427" y1="684.0385" y2="660.9841"/>
    <line x1="188.435" x2="277.8803" y1="663.7021" y2="612.0608"/>
    <polyline points="277.5386,611.8635 277.8803,612.0608 277.8803,635.1152 188.435,686.7565 188.435,663.7021 179.1396,658.4251 179.1396,620.3183"/>
    <line x1="174.3258" x2="174.3258" y1="623.0975" y2="661.2043"/>
    <line x1="173.7867" x2="173.7867" y1="661.5156" y2="678.2992"/>
    <line x1="171.3453" x2="171.3453" y1="676.8897" y2="662.9252"/>
    <line x1="169.5121" x2="169.5121" y1="663.9835" y2="625.8767"/>
    <line x1="164.6984" x2="164.6984" y1="628.6559" y2="666.7627"/>
    <line x1="164.0211" x2="164.0211" y1="667.1538" y2="672.6611"/>
    <line x1="166.4625" x2="166.4625" y1="674.0706" y2="665.7442"/>
    <line x1="168.9039" x2="168.9039" y1="664.3347" y2="675.4801"/>
    <line x1="161.5797" x2="161.5797" y1="671.2515" y2="668.5633"/>
    <line x1="159.8846" x2="159.8846" y1="669.542" y2="631.4351"/>
    <line x1="155.0709" x2="155.0709" y1="634.2143" y2="672.3212"/>
    <line x1="159.2516" x2="188.435" y1="669.9074" y2="686.7565"/>
    <line x1="185.9936" x2="185.9936" y1="685.3469" y2="662.2925"/>
    <line x1="183.5522" x2="183.5522" y1="660.883" y2="683.9374"/>
    <line x1="181.1108" x2="181.1108" y1="682.5278" y2="659.4734"/>
    <line x1="178.6694" x2="178.6694" y1="658.6965" y2="681.1183"/>
    <line x1="176.2281" x2="176.2281" y1="679.7088" y2="660.1061"/>
    <line x1="183.9533" x2="183.9533" y1="655.6459" y2="617.5391"/>
    <line x1="188.767" x2="188.767" y1="614.7599" y2="652.8667"/>
    <line x1="193.5808" x2="193.5808" y1="650.0875" y2="611.9806"/>
    <line x1="198.3945" x2="198.3945" y1="609.2014" y2="647.3083"/>
    <line x1="203.2082" x2="203.2082" y1="644.5291" y2="606.4222"/>
    <line x1="204.4243" x2="204.4243" y1="604.4314" y2="545.6715"/>
    <line x1="202.0357" x2="202.0357" y1="544.2925" y2="603.0524"/>
    <line x1="199.6472" x2="199.6472" y1="601.6734" y2="542.9135"/>
    <line x1="197.2587" x2="197.2587" y1="541.5344" y2="600.2944"/>
    <line x1="194.8701" x2="194.8701" y1="598.9154" y2="540.1554"/>
    <line x1="192.4816" x2="192.4816" y1="538.7764" y2="597.5363"/>
    <line x1="190.0931" x2="190.0931" y1="596.1573" y2="537.3974"/>
    <line x1="187.7045" x2="187.7045" y1="536.0184" y2="594.7783"/>
    <line x1="185.316" x2="185.316" y1="593.3993" y2="534.6393"/>
    <line x1="182.9275" x2="182.9275" y1="533.2603" y2="592.0203"/>
    <line x1="180.539" x2="180.539" y1="590.6412" y2="531.8813"/>
    <line x1="178.1504" x2="178.1504" y1="530.5023" y2="589.2622"/>
    <line x1="175.7619" x2="108.9419" y1="565.7661" y2="527.1876"/>
    <line x1="111.3468" x2="111.3468" y1="528.5761" y2="546.2686"/>
    <line x1="113.7518" x2="113.7518" y1="547.6571" y2="529.9646"/>
    <line x1="116.1567" x2="116.1567" y1="531.3531" y2="549.0456"/>
    <line x1="118.5616" x2="118.5616" y1="550.4341" y2="532.7416"/>
    <line x1="120.9666" x2="120.9666" y1="534.13" y2="551.8226"/>
    <line x1="123.3715" x2="123.3715" y1="553.2111" y2="535.5185"/>
    <line x1="125.7764" x2="125.7764" y1="536.907" y2="554.5996"/>
    <line x1="128.1814" x2="128.1814" y1="555.9881" y2="538.2955"/>
    <line x1="130.5863" x2="130.5863" y1="539.684" y2="555.7778"/>
    <polyline points="129.2017,556.5772 108.9419,544.8801 108.9419,527.1876 130.7196,514.6142"/>
    <line x1="132.9912" x2="132.9912" y1="541.0725" y2="554.3893"/>
    <line x1="135.3962" x2="135.3962" y1="553.0008" y2="542.461"/>
    <line x1="137.8011" x2="137.8011" y1="543.8495" y2="551.6123"/>
    <line x1="140.2061" x2="140.2061" y1="550.2238" y2="545.238"/>
    <line x1="142.611" x2="142.611" y1="546.6265" y2="549.2027"/>
    <line x1="145.0159" x2="145.0159" y1="548.0149" y2="550.5912"/>
    <line x1="147.4209" x2="147.4209" y1="549.4034" y2="551.9797"/>
    <line x1="149.8258" x2="149.8258" y1="550.7919" y2="553.3682"/>
    <line x1="152.2307" x2="152.2307" y1="552.1804" y2="554.7567"/>
    <line x1="154.6357" x2="154.6357" y1="553.5689" y2="556.1452"/>
    <line x1="157.0406" x2="157.0406" y1="554.9574" y2="557.5336"/>
    <line x1="159.4455" x2="159.4455" y1="556.3459" y2="558.9221"/>
    <line x1="161.8505" x2="161.8505" y1="557.7344" y2="560.3106"/>
    <line x1="164.2554" x2="164.2554" y1="559.1229" y2="561.6991"/>
    <line x1="166.6604" x2="166.6604" y1="560.5114" y2="563.0876"/>
    <line x1="179.6906" x2="179.6906" y1="526.855" y2="496.8757"/>
    <line x1="182.1391" x2="182.1391" y1="498.2894" y2="525.4414"/>
    <line x1="191.4285" x2="191.4285" y1="520.0782" y2="498.5809"/>
    <line x1="195.8207" x2="195.8207" y1="496.045" y2="517.5423"/>
    <line x1="200.2129" x2="200.2129" y1="515.0064" y2="493.5091"/>
    <line x1="204.6052" x2="204.6052" y1="490.9733" y2="512.4706"/>
    <line x1="208.9974" x2="208.9974" y1="509.9347" y2="488.4374"/>
    <line x1="191.4456" x2="191.4456" y1="456.941" y2="376.9684"/>
    <line x1="192.4386" x2="192.4386" y1="376.3951" y2="353.3548"/>
    <line x1="187.9055" x2="187.9055" y1="355.972" y2="379.0123"/>
    <polyline points="186.8295,379.6335 186.8295,459.6061 251.4548,422.2947 251.4548,346.7658"/>
    <line x1="250.4228" x2="250.4228" y1="346.17" y2="258.7946"/>
    <line x1="252.8219" x2="252.8219" y1="260.1797" y2="347.555"/>
    <line x1="255.2209" x2="255.2209" y1="348.9401" y2="261.5648"/>
    <line x1="257.62" x2="257.62" y1="262.9498" y2="350.3252"/>
    <line x1="260.019" x2="260.019" y1="351.7103" y2="264.3349"/>
    <line x1="262.4181" x2="262.4181" y1="265.72" y2="353.0954"/>
    <line x1="264.8171" x2="264.8171" y1="354.4805" y2="267.1051"/>
    <line x1="267.2162" x2="267.2162" y1="268.4902" y2="355.8656"/>
    <line x1="269.6152" x2="269.6152" y1="357.2507" y2="269.8753"/>
    <line x1="272.0143" x2="272.0143" y1="271.2604" y2="358.6358"/>
    <line x1="274.4133" x2="274.4133" y1="360.0209" y2="272.6455"/>
    <line x1="276.8123" x2="276.8123" y1="274.0306" y2="361.406"/>
    <line x1="279.2114" x2="279.2114" y1="362.791" y2="275.4157"/>
    <line x1="281.6104" x2="281.6104" y1="276.8008" y2="364.1761"/>
    <line x1="284.0095" x2="284.0095" y1="365.5612" y2="278.1858"/>
    <line x1="286.4085" x2="286.4085" y1="279.5709" y2="366.9463"/>
    <polyline points="288.8076,368.3314 375.7122,318.157 375.7122,230.7816 296.5437,185.0736 209.639,235.248 209.639,322.6234 288.8076,368.3314 288.8076,280.956 375.7122,230.7816"/>
    <line x1="370.8842" x2="370.8842" y1="233.5691" y2="320.9445"/>
    <line x1="372.0251" x2="372.0251" y1="320.2858" y2="337.2632"/>
    <line x1="372.2921" x2="372.2921" y1="337.109" y2="364.0053"/>
    <line x1="369.9111" x2="369.9111" y1="365.3799" y2="338.4836"/>
    <line x1="365.1493" x2="365.1493" y1="341.2329" y2="368.1292"/>
    <line x1="362.7683" x2="362.7683" y1="369.5038" y2="342.6075"/>
    <line x1="363.1375" x2="363.1375" y1="342.3944" y2="325.417"/>
    <line x1="361.2281" x2="361.2281" y1="326.5194" y2="239.144"/>
    <line x1="356.4001" x2="356.3427" y1="241.9315" y2="343.6026"/>
    <line x1="357.3132" x2="357.3132" y1="344.1629" y2="357.1076"/>
    <polyline points="358.0065,357.5079 354.9344,355.7342 354.9344,342.7895"/>
    <line x1="353.9917" x2="353.9917" y1="342.2452" y2="330.6973"/>
    <polyline points="358.6938,327.9826 358.6938,344.96 398.6876,321.8695 398.6876,263.1365 375.7122,249.8716"/>
    <polyline points="375.7122,247.2084 416.8278,223.4703 483.4343,261.9256 483.4343,358.4553 463.7585,369.8151"/>
    <line x1="464.3901" x2="464.3901" y1="369.4504" y2="328.0326"/>
    <line x1="464.5891" x2="464.5891" y1="327.9177" y2="281.8498"/>
    <line x1="469.1512" x2="469.1512" y1="278.8683" y2="270.172"/>
    <line x1="473.9122" x2="473.9122" y1="267.4232" y2="363.9529"/>
    <line x1="474.4159" x2="474.4159" y1="363.662" y2="375.9682"/>
    <line x1="472.0091" x2="472.0091" y1="374.5786" y2="365.0516"/>
    <line x1="469.6023" x2="469.6023" y1="366.4412" y2="373.189"/>
    <line x1="467.1954" x2="467.1954" y1="371.7994" y2="367.8308"/>
    <line x1="469.1512" x2="469.1512" y1="366.7016" y2="325.2838"/>
    <polyline points="483.4343,321.6527 497.033,313.8015 545.1695,341.5931 545.1695,394.0476 515.3319,411.2743 515.3319,358.8198 545.1695,341.5931"/>
    <line x1="543.1965" x2="543.1965" y1="340.454" y2="271.2198"/>
    <line x1="545.6116" x2="545.6116" y1="272.6142" y2="367.2313"/>
    <line x1="545.1695" x2="579.4241" y1="366.976" y2="386.7529"/>
    <line x1="577.0089" x2="577.0089" y1="385.3585" y2="290.7415"/>
    <line x1="574.5938" x2="574.5938" y1="289.3471" y2="383.9641"/>
    <line x1="572.1786" x2="572.1786" y1="382.5697" y2="287.9527"/>
    <line x1="569.7634" x2="569.7634" y1="286.5583" y2="381.1753"/>
    <line x1="567.3482" x2="567.3482" y1="379.7809" y2="285.1639"/>
    <line x1="564.9331" x2="564.9331" y1="283.7695" y2="378.3865"/>
    <line x1="562.5179" x2="562.5179" y1="376.9921" y2="282.3751"/>
    <line x1="560.1027" x2="560.1027" y1="280.9806" y2="375.5977"/>
    <line x1="557.6875" x2="557.6875" y1="374.2033" y2="279.5862"/>
    <line x1="555.2724" x2="555.2724" y1="278.1918" y2="372.8089"/>
    <line x1="552.8572" x2="552.8572" y1="371.4145" y2="276.7974"/>
    <line x1="550.442" x2="550.442" y1="275.403" y2="370.0201"/>
    <line x1="548.0268" x2="548.0268" y1="368.6257" y2="274.0086"/>
    <line x1="540.7813" x2="540.7813" y1="269.8254" y2="339.0596"/>
    <line x1="538.3661" x2="538.3661" y1="337.6652" y2="268.431"/>
    <line x1="535.9509" x2="535.9509" y1="267.0366" y2="336.2708"/>
    <line x1="533.5358" x2="533.5358" y1="334.8764" y2="265.6422"/>
    <line x1="531.1206" x2="531.1206" y1="264.2478" y2="333.482"/>
    <line x1="528.7054" x2="528.7054" y1="332.0876" y2="262.8534"/>
    <line x1="526.2902" x2="526.2902" y1="261.459" y2="330.6932"/>
    <line x1="523.8751" x2="523.8751" y1="329.2988" y2="260.0646"/>
    <line x1="521.4599" x2="521.4599" y1="258.6702" y2="327.9044"/>
    <line x1="519.0447" x2="519.0447" y1="326.5099" y2="257.2758"/>
    <line x1="516.6295" x2="516.6295" y1="255.8814" y2="325.1155"/>
    <line x1="514.2143" x2="514.2143" y1="323.7211" y2="254.487"/>
    <line x1="511.7992" x2="511.7992" y1="253.0926" y2="322.3267"/>
    <line x1="509.384" x2="509.384" y1="320.9323" y2="251.6982"/>
    <line x1="506.9688" x2="506.9688" y1="250.3038" y2="319.5379"/>
    <line x1="504.5536" x2="504.5536" y1="318.1435" y2="248.9094"/>
    <line x1="502.1385" x2="502.1385" y1="247.515" y2="316.7491"/>
    <line x1="499.7233" x2="499.7233" y1="315.3547" y2="246.1206"/>
    <line x1="497.3081" x2="497.3081" y1="244.7262" y2="313.9603"/>
    <line x1="494.8929" x2="494.8929" y1="315.0371" y2="243.3318"/>
    <polyline points="492.4778,241.9374 579.4241,292.1359 579.4241,386.7529 632.8078,355.9318 632.8078,261.3148 545.8614,211.1163 492.4778,241.9374 492.4778,316.4315"/>
    <line x1="491.8398" x2="491.8398" y1="316.7998" y2="224.9442"/>
    <polyline points="496.2407,222.4033 469.8352,237.6486 469.8352,254.0742"/>
    <line x1="467.434" x2="467.434" y1="252.6878" y2="236.2622"/>
    <line x1="465.0328" x2="465.0328" y1="234.8759" y2="251.3015"/>
    <line x1="462.6316" x2="462.6316" y1="249.9152" y2="233.4896"/>
    <line x1="460.2304" x2="460.2304" y1="232.1032" y2="248.5288"/>
    <line x1="457.8292" x2="457.8292" y1="247.1425" y2="230.7169"/>
    <line x1="455.428" x2="455.428" y1="229.3306" y2="245.7562"/>
    <line x1="453.0268" x2="453.0268" y1="244.3698" y2="227.9442"/>
    <line x1="450.6256" x2="450.6256" y1="226.5579" y2="242.9835"/>
    <line x1="448.2244" x2="448.2244" y1="241.5972" y2="225.1716"/>
    <line x1="445.8232" x2="445.8232" y1="223.7852" y2="240.2109"/>
    <line x1="443.422" x2="443.422" y1="238.8245" y2="222.3989"/>
    <line x1="441.0208" x2="441.0208" y1="221.0126" y2="237.4382"/>
    <line x1="438.6196" x2="438.6196" y1="236.0519" y2="219.6262"/>
    <line x1="436.2184" x2="436.2184" y1="218.2399" y2="234.6655"/>
    <line x1="433.8172" x2="433.8172" y1="233.2792" y2="216.8536"/>
    <line x1="431.416" x2="431.416" y1="215.4673" y2="231.8929"/>
    <line x1="429.0148" x2="429.0148" y1="230.5065" y2="214.0809"/>
    <line x1="426.6136" x2="426.6136" y1="212.6946" y2="229.1202"/>
    <line x1="424.2124" x2="424.2124" y1="227.7339" y2="211.3083"/>
    <line x1="421.8112" x2="421.8112" y1="209.9219" y2="226.3475"/>
    <line x1="419.4101" x2="419.4101" y1="224.9612" y2="208.5356"/>
    <line x1="417.0089" x2="417.0089" y1="207.1493" y2="223.5749"/>
    <line x1="414.6077" x2="414.6077" y1="224.7521" y2="205.7629"/>
    <line x1="412.2065" x2="412.2065" y1="204.3766" y2="226.1385"/>
    <line x1="409.8053" x2="409.8053" y1="227.5248" y2="202.9903"/>
    <line x1="407.4041" x2="407.4041" y1="201.6039" y2="228.9111"/>
    <line x1="405.0029" x2="405.0029" y1="230.2975" y2="200.2176"/>
    <line x1="402.6017" x2="402.6017" y1="198.8313" y2="231.6838"/>
    <line x1="400.2005" x2="400.2005" y1="233.0701" y2="197.4449"/>
    <line x1="397.7993" x2="397.7993" y1="196.0586" y2="234.4565"/>
    <line x1="395.3981" x2="395.3981" y1="235.8428" y2="194.6723"/>
    <line x1="392.9969" x2="392.9969" y1="193.286" y2="237.2291"/>
    <line x1="390.5957" x2="390.5957" y1="238.6154" y2="191.8996"/>
    <line x1="388.1945" x2="388.1945" y1="190.5133" y2="240.0018"/>
    <line x1="385.7933" x2="385.7933" y1="241.3881" y2="189.127"/>
    <line x1="383.3921" x2="383.3921" y1="187.7406" y2="242.7744"/>
    <line x1="380.9909" x2="380.9909" y1="244.1608" y2="186.3543"/>
    <line x1="378.5897" x2="469.8352" y1="184.968" y2="237.6486"/>
    <line x1="474.2361" x2="474.2361" y1="235.1077" y2="256.615"/>
    <line x1="478.637" x2="478.637" y1="259.1559" y2="232.5668"/>
    <line x1="483.0379" x2="483.0379" y1="230.0259" y2="261.6968"/>
    <line x1="483.4343" x2="461.6199" y1="261.9256" y2="274.5201"/>
    <line x1="464.3901" x2="464.3901" y1="272.9207" y2="276.1195"/>
    <line x1="469.4522" x2="398.6876" y1="279.0421" y2="319.8981"/>
    <line x1="401.3693" x2="401.3693" y1="318.3498" y2="364.4177"/>
    <line x1="402.5104" x2="402.5104" y1="363.7588" y2="374.8635"/>
    <line x1="404.8892" x2="404.8892" y1="376.2369" y2="362.3854"/>
    <line x1="406.2323" x2="406.2323" y1="361.61" y2="315.5421"/>
    <line x1="411.0954" x2="411.0954" y1="312.7344" y2="358.8023"/>
    <line x1="412.0256" x2="412.0256" y1="358.2652" y2="380.3571"/>
    <line x1="409.6468" x2="409.6468" y1="378.9837" y2="359.6386"/>
    <line x1="407.268" x2="407.268" y1="361.012" y2="377.6103"/>
    <line x1="400.1316" x2="400.1316" y1="373.4901" y2="365.1322"/>
    <line x1="397.7528" x2="397.7528" y1="366.5056" y2="372.1167"/>
    <line x1="395.374" x2="395.374" y1="370.7433" y2="367.879"/>
    <line x1="396.5062" x2="396.5062" y1="367.2254" y2="323.129"/>
    <line x1="394.2439" x2="394.2439" y1="324.4351" y2="265.7021"/>
    <line x1="398.6876" x2="375.7122" y1="263.1365" y2="276.4013"/>
    <line x1="376.4688" x2="376.4688" y1="275.9645" y2="334.6976"/>
    <line x1="377.0539" x2="377.0539" y1="334.3597" y2="361.256"/>
    <line x1="374.673" x2="374.673" y1="362.6306" y2="335.7344"/>
    <line x1="380.9126" x2="380.9126" y1="332.132" y2="273.3989"/>
    <line x1="385.3563" x2="385.3563" y1="270.8333" y2="329.5663"/>
    <line x1="386.7801" x2="386.7801" y1="328.7444" y2="365.7816"/>
    <line x1="381.917" x2="381.917" y1="362.9739" y2="331.5521"/>
    <line x1="389.8001" x2="389.8001" y1="327.0007" y2="268.2677"/>
    <line x1="398.6876" x2="410.3257" y1="284.4655" y2="291.1847"/>
    <line x1="409.6468" x2="409.6468" y1="290.7928" y2="291.5767"/>
    <line x1="407.268" x2="407.268" y1="292.9501" y2="289.4194"/>
    <line x1="404.8892" x2="404.8892" y1="288.046" y2="294.3235"/>
    <line x1="402.5104" x2="402.5104" y1="295.6969" y2="286.6726"/>
    <line x1="400.1316" x2="400.1316" y1="285.2992" y2="297.0703"/>
    <polyline points="398.6876,297.904 450.4047,268.0451 469.4522,279.0421 469.4522,325.11 392.9952,369.3699"/>
    <line x1="391.6431" x2="391.6431" y1="368.5893" y2="325.9367"/>
    <line x1="367.5813" x2="367.5302" y1="322.8514" y2="366.7545"/>
    <polyline points="362.1582,369.8561 358.0065,367.4591 358.0065,344.5632"/>
    <line x1="358.6938" x2="343.9909" y1="344.96" y2="336.4713"/>
    <line x1="344.2048" x2="344.2048" y1="336.5948" y2="337.8496"/>
    <line x1="344.5876" x2="344.5876" y1="336.8157" y2="336.1268"/>
    <line x1="342.9042" x2="354.9344" y1="337.0987" y2="344.0443"/>
    <line x1="353.619" x2="353.619" y1="343.2849" y2="342.03"/>
    <line x1="351.6407" x2="351.5721" y1="340.8879" y2="244.7189"/>
    <line x1="346.744" x2="346.744" y1="247.5064" y2="334.8818"/>
    <line x1="346.9386" x2="346.9386" y1="334.7695" y2="338.1731"/>
    <line x1="346.5584" x2="346.5584" y1="337.9536" y2="339.2084"/>
    <line x1="348.9119" x2="348.9119" y1="339.3124" y2="340.5672"/>
    <line x1="349.2896" x2="349.2896" y1="339.5305" y2="333.4121"/>
    <line x1="351.2654" x2="351.2654" y1="340.6712" y2="341.926"/>
    <line x1="360.3874" x2="360.3874" y1="343.9822" y2="368.8337"/>
    <line x1="341.916" x2="341.916" y1="337.6693" y2="250.2939"/>
    <line x1="337.0879" x2="337.0879" y1="253.0813" y2="340.4567"/>
    <line x1="332.2599" x2="332.2599" y1="343.2442" y2="255.8688"/>
    <line x1="327.4319" x2="327.4319" y1="258.6563" y2="346.0317"/>
    <line x1="322.6038" x2="322.6038" y1="348.8191" y2="261.4437"/>
    <line x1="317.7758" x2="317.7758" y1="264.2312" y2="351.6066"/>
    <line x1="312.9478" x2="312.9478" y1="354.3941" y2="267.0187"/>
    <line x1="308.1197" x2="308.1197" y1="269.8062" y2="357.1815"/>
    <line x1="303.2917" x2="303.2917" y1="359.969" y2="272.5936"/>
    <line x1="298.4637" x2="298.4637" y1="275.3811" y2="362.7565"/>
    <line x1="293.6356" x2="293.6356" y1="365.5439" y2="278.1686"/>
    <line x1="288.8076" x2="209.639" y1="280.956" y2="235.248"/>
    <line x1="212.0381" x2="212.0381" y1="236.6331" y2="324.0085"/>
    <line x1="214.4371" x2="214.4371" y1="325.3936" y2="238.0182"/>
    <line x1="216.8362" x2="216.8362" y1="239.4033" y2="326.7787"/>
    <line x1="219.2352" x2="219.2352" y1="328.1638" y2="240.7884"/>
    <line x1="221.6343" x2="221.6343" y1="242.1735" y2="329.5489"/>
    <line x1="224.0333" x2="224.0333" y1="330.934" y2="243.5586"/>
    <line x1="226.4324" x2="226.4324" y1="244.9437" y2="332.3191"/>
    <line x1="228.3743" x2="228.3743" y1="333.4403" y2="435.6202"/>
    <polyline points="223.7582,438.2853 223.7582,330.7752 202.032,343.1904"/>
    <line x1="205.2939" x2="205.2939" y1="341.3072" y2="345.0737"/>
    <line x1="206.0379" x2="156.1737" y1="345.5032" y2="374.2923"/>
    <line x1="153.7318" x2="153.7318" y1="372.8825" y2="395.9228"/>
    <line x1="153.2703" x2="153.2703" y1="395.6563" y2="440.2307"/>
    <line x1="150.8732" x2="150.8732" y1="438.8467" y2="394.2723"/>
    <line x1="151.2899" x2="151.2899" y1="394.5129" y2="371.4726"/>
    <line x1="148.848" x2="148.848" y1="370.0628" y2="393.1031"/>
    <line x1="148.4761" x2="148.4761" y1="392.8884" y2="437.4628"/>
    <line x1="155.6674" x2="155.6674" y1="441.6147" y2="397.0403"/>
    <polyline points="156.1737,397.3326 206.0379,368.5436 206.0379,345.5032 113.2449,291.9292 63.3808,320.7183 63.3808,343.7586 156.1737,397.3326 156.1737,374.2923 63.3808,320.7183"/>
    <line x1="65.8227" x2="65.8227" y1="322.1281" y2="345.1684"/>
    <line x1="68.2646" x2="68.2646" y1="346.5783" y2="323.538"/>
    <line x1="70.7065" x2="70.7065" y1="324.9478" y2="347.9881"/>
    <line x1="73.1485" x2="73.1485" y1="349.398" y2="326.3576"/>
    <line x1="75.5904" x2="75.5904" y1="327.7675" y2="350.8078"/>
    <line x1="78.0323" x2="78.0323" y1="352.2176" y2="329.1773"/>
    <line x1="80.4742" x2="80.4742" y1="330.5872" y2="353.6275"/>
    <line x1="82.9161" x2="82.9161" y1="355.0373" y2="331.997"/>
    <line x1="85.3581" x2="85.3581" y1="333.4069" y2="356.4472"/>
    <line x1="87.8" x2="87.8" y1="357.857" y2="334.8167"/>
    <line x1="90.2419" x2="90.2419" y1="336.2266" y2="359.2669"/>
    <line x1="92.6838" x2="92.6838" y1="360.6767" y2="337.6364"/>
    <line x1="95.1257" x2="95.1257" y1="339.0462" y2="362.0865"/>
    <line x1="97.5677" x2="97.5677" y1="363.4964" y2="340.4561"/>
    <line x1="100.0096" x2="100.0096" y1="341.8659" y2="364.9062"/>
    <line x1="102.4515" x2="102.4515" y1="366.3161" y2="343.2758"/>
    <line x1="104.8934" x2="104.8934" y1="344.6856" y2="367.7259"/>
    <line x1="107.3353" x2="107.3353" y1="369.1358" y2="346.0955"/>
    <line x1="109.7773" x2="109.7773" y1="347.5053" y2="370.5456"/>
    <line x1="112.2192" x2="112.2192" y1="371.9554" y2="348.9151"/>
    <line x1="114.6611" x2="114.6611" y1="350.325" y2="373.3653"/>
    <line x1="117.103" x2="117.103" y1="374.7751" y2="351.7348"/>
    <line x1="119.5449" x2="119.5449" y1="353.1447" y2="376.185"/>
    <line x1="121.9869" x2="121.9869" y1="377.5948" y2="354.5545"/>
    <line x1="124.4288" x2="124.4288" y1="355.9644" y2="379.0047"/>
    <line x1="126.8707" x2="126.8707" y1="380.4145" y2="357.3742"/>
    <line x1="129.3126" x2="129.3126" y1="358.784" y2="381.8244"/>
    <line x1="131.7545" x2="131.7545" y1="383.2342" y2="360.1939"/>
    <line x1="134.1965" x2="134.1965" y1="361.6037" y2="384.644"/>
    <line x1="136.6384" x2="136.6384" y1="386.0539" y2="363.0136"/>
    <line x1="139.0803" x2="139.0803" y1="364.4234" y2="387.4637"/>
    <line x1="141.5222" x2="141.5222" y1="388.8736" y2="365.8333"/>
    <line x1="143.9641" x2="143.9641" y1="367.2431" y2="390.2834"/>
    <polyline points="146.079,391.5044 146.079,436.0788 186.8295,459.6061"/>
    <line x1="184.4324" x2="184.4324" y1="458.2222" y2="381.0175"/>
    <line x1="183.3724" x2="183.3724" y1="381.6295" y2="358.5892"/>
    <line x1="178.8393" x2="178.8393" y1="361.2064" y2="384.2467"/>
    <line x1="179.6383" x2="179.6383" y1="383.7854" y2="455.4543"/>
    <line x1="182.0354" x2="182.0354" y1="456.8382" y2="382.4014"/>
    <line x1="177.2412" x2="177.2412" y1="385.1693" y2="454.0703"/>
    <line x1="174.8441" x2="174.8441" y1="452.6863" y2="386.5533"/>
    <line x1="174.3062" x2="174.3062" y1="386.8639" y2="363.8236"/>
    <line x1="169.7731" x2="169.7731" y1="366.4408" y2="389.4811"/>
    <line x1="170.0499" x2="170.0499" y1="389.3212" y2="449.9184"/>
    <line x1="167.6528" x2="167.6528" y1="448.5345" y2="390.7052"/>
    <line x1="162.8586" x2="162.8586" y1="393.4731" y2="445.7665"/>
    <line x1="165.2557" x2="165.2399" y1="447.1505" y2="369.0579"/>
    <line x1="160.7068" x2="160.7068" y1="371.6751" y2="394.7154"/>
    <line x1="160.4615" x2="160.4615" y1="394.8571" y2="444.3826"/>
    <line x1="158.0645" x2="158.0645" y1="442.9986" y2="396.241"/>
    <line x1="146.4061" x2="146.4061" y1="391.6933" y2="368.6529"/>
    <line x1="172.447" x2="172.447" y1="387.9373" y2="451.3024"/>
    <line x1="196.0617" x2="196.0617" y1="454.2759" y2="374.3033"/>
    <line x1="196.9717" x2="196.9717" y1="373.7779" y2="350.7376"/>
    <line x1="201.5048" x2="201.5048" y1="348.1204" y2="371.1607"/>
    <line x1="200.6778" x2="200.6778" y1="371.6382" y2="451.6108"/>
    <line x1="205.2939" x2="205.2939" y1="448.9457" y2="368.9731"/>
    <line x1="209.91" x2="209.91" y1="338.6421" y2="446.2806"/>
    <line x1="214.5261" x2="214.5261" y1="443.6155" y2="335.977"/>
    <line x1="219.1422" x2="219.1422" y1="333.3119" y2="440.9504"/>
    <line x1="232.9904" x2="232.9904" y1="432.9551" y2="336.1054"/>
    <line x1="233.6295" x2="233.6295" y1="336.4743" y2="249.0989"/>
    <line x1="236.0285" x2="236.0285" y1="250.484" y2="337.8594"/>
    <line x1="237.6065" x2="237.6065" y1="338.7705" y2="430.29"/>
    <line x1="242.2226" x2="242.2226" y1="427.6249" y2="341.4356"/>
    <line x1="243.2257" x2="243.2257" y1="342.0147" y2="254.6393"/>
    <line x1="240.8266" x2="240.8266" y1="253.2542" y2="340.6296"/>
    <line x1="238.4276" x2="238.4276" y1="339.2445" y2="251.8691"/>
    <line x1="231.2304" x2="231.2304" y1="247.7138" y2="335.0892"/>
    <line x1="228.8314" x2="228.8314" y1="333.7041" y2="246.3288"/>
    <line x1="245.6247" x2="245.6247" y1="256.0244" y2="343.3998"/>
    <line x1="246.8387" x2="246.8387" y1="344.1007" y2="424.9598"/>
    <polyline points="282.1615,424.8012 244.5812,446.4982 244.5812,539.3977 329.1843,588.2434"/>
    <line x1="326.7671" x2="326.7671" y1="586.8478" y2="522.9727"/>
    <polyline points="326.0299,523.3983 282.1615,498.0709 282.1615,416.0422 377.9977,360.7111 421.8661,386.0385 421.8661,386.582"/>
    <polyline points="421.8661,386.0385 326.0299,441.3695 326.0299,523.3983 421.8661,468.0673 421.8661,445.733"/>
    <line x1="422.1627" x2="422.1627" y1="445.9043" y2="407.7059"/>
    <line x1="424.4679" x2="424.4679" y1="409.0369" y2="447.2352"/>
    <line x1="426.7732" x2="426.7732" y1="448.5662" y2="410.3678"/>
    <line x1="429.0785" x2="429.0785" y1="411.6988" y2="449.8971"/>
    <line x1="431.3837" x2="431.3837" y1="451.2281" y2="413.0297"/>
    <line x1="433.689" x2="433.689" y1="414.3607" y2="452.559"/>
    <line x1="435.9943" x2="435.9943" y1="453.8899" y2="415.6916"/>
    <line x1="438.2995" x2="438.2995" y1="417.0225" y2="455.2209"/>
    <polyline points="440.6048,456.5518 494.2171,425.5987 494.2171,387.4004 457.3329,366.1053 403.7205,397.0584 403.7205,435.2567 440.6048,456.5518 440.6048,418.3535 494.2171,387.4004"/>
    <line x1="493.6705" x2="493.6705" y1="387.0848" y2="346.3136"/>
    <line x1="491.2637" x2="491.2637" y1="344.924" y2="385.6952"/>
    <line x1="488.8569" x2="488.8569" y1="384.3056" y2="343.5345"/>
    <line x1="486.45" x2="486.45" y1="342.1449" y2="382.9161"/>
    <line x1="484.0432" x2="484.0432" y1="381.5265" y2="340.7553"/>
    <line x1="483.4343" x2="515.3319" y1="340.4037" y2="358.8198"/>
    <line x1="512.9251" x2="512.9251" y1="357.4303" y2="409.8847"/>
    <line x1="515.3319" x2="494.2171" y1="411.2743" y2="399.0837"/>
    <line x1="496.0773" x2="496.0773" y1="400.1577" y2="347.7032"/>
    <line x1="498.4842" x2="498.4842" y1="349.0928" y2="401.5473"/>
    <line x1="500.891" x2="500.891" y1="402.9368" y2="350.4824"/>
    <line x1="503.2978" x2="503.2978" y1="351.8719" y2="404.3264"/>
    <line x1="505.7046" x2="505.7046" y1="405.716" y2="353.2615"/>
    <line x1="508.1115" x2="508.1115" y1="354.6511" y2="407.1056"/>
    <line x1="510.5183" x2="510.5183" y1="408.4952" y2="356.0407"/>
    <line x1="519.5944" x2="519.5944" y1="356.3589" y2="408.8134"/>
    <line x1="523.8569" x2="523.8569" y1="406.3524" y2="353.8979"/>
    <line x1="528.1195" x2="528.1195" y1="351.437" y2="403.8914"/>
    <line x1="532.382" x2="532.382" y1="401.4305" y2="348.976"/>
    <line x1="536.6445" x2="536.6445" y1="346.515" y2="398.9695"/>
    <line x1="540.907" x2="540.907" y1="396.5086" y2="344.0541"/>
    <line x1="487.4388" x2="487.4388" y1="319.3407" y2="227.4851"/>
    <polyline points="496.2407,239.7649 496.2407,222.4033 428.3563,183.2103"/>
    <line x1="429.4266" x2="429.4266" y1="182.5924" y2="148.5074"/>
    <line x1="428.1024" x2="428.1024" y1="149.2719" y2="63.6339"/>
    <line x1="431.5873" x2="431.5873" y1="61.6219" y2="147.2599"/>
    <polyline points="434.1022,145.8079 434.1022,179.8929 406.0485,196.0897 406.0485,155.1119 336.2132,114.7924"/>
    <line x1="338.6213" x2="338.6213" y1="116.1827" y2="157.1606"/>
    <line x1="341.0294" x2="341.0294" y1="158.5509" y2="117.5731"/>
    <line x1="343.4375" x2="343.4375" y1="118.9634" y2="159.9412"/>
    <line x1="345.8456" x2="345.8456" y1="161.3315" y2="120.3537"/>
    <line x1="348.2537" x2="348.2537" y1="121.744" y2="162.7219"/>
    <line x1="350.6619" x2="350.6619" y1="164.1122" y2="123.1344"/>
    <line x1="353.07" x2="353.07" y1="124.5247" y2="165.5025"/>
    <line x1="355.4781" x2="355.4781" y1="166.8929" y2="125.915"/>
    <line x1="357.8862" x2="357.8862" y1="127.3054" y2="168.2832"/>
    <line x1="360.2943" x2="360.2943" y1="169.6735" y2="128.6957"/>
    <line x1="362.7024" x2="362.7024" y1="130.086" y2="171.0638"/>
    <line x1="365.1105" x2="365.1105" y1="172.4542" y2="131.4763"/>
    <line x1="367.5187" x2="367.5187" y1="132.8667" y2="173.8445"/>
    <line x1="369.9268" x2="369.9268" y1="175.2348" y2="134.257"/>
    <line x1="372.3349" x2="372.3349" y1="135.6473" y2="176.6251"/>
    <line x1="374.743" x2="374.743" y1="178.0155" y2="137.0376"/>
    <line x1="377.1511" x2="377.1511" y1="138.428" y2="179.4058"/>
    <line x1="379.5592" x2="379.5592" y1="180.7961" y2="139.8183"/>
    <line x1="381.9674" x2="381.9674" y1="141.2086" y2="182.1864"/>
    <polyline points="382.6874,182.6022 378.5897,184.968 378.5897,245.5471"/>
    <line x1="366.0562" x2="366.0562" y1="236.3565" y2="323.7319"/>
    <line x1="415.9585" x2="415.9585" y1="309.9267" y2="355.9946"/>
    <line x1="416.7832" x2="416.7832" y1="355.5184" y2="383.1039"/>
    <line x1="414.4044" x2="414.4044" y1="381.7305" y2="356.8918"/>
    <line x1="419.162" x2="419.162" y1="354.145" y2="384.4773"/>
    <line x1="421.5408" x2="421.5408" y1="385.8507" y2="352.7716"/>
    <line x1="420.8215" x2="420.8215" y1="353.1869" y2="307.119"/>
    <line x1="425.6846" x2="425.6846" y1="304.3113" y2="350.3792"/>
    <line x1="426.3019" x2="426.3019" y1="350.0228" y2="384.021"/>
    <line x1="431.0629" x2="431.0629" y1="381.2722" y2="347.2741"/>
    <line x1="430.5477" x2="430.5477" y1="347.5715" y2="301.5037"/>
    <line x1="435.4107" x2="435.4107" y1="298.696" y2="344.7638"/>
    <line x1="435.8239" x2="435.8239" y1="344.5253" y2="378.5234"/>
    <line x1="440.585" x2="440.585" y1="375.7747" y2="341.7765"/>
    <line x1="440.2738" x2="440.2738" y1="341.9561" y2="295.8883"/>
    <line x1="445.1369" x2="445.1369" y1="293.0806" y2="339.1485"/>
    <line x1="445.346" x2="445.346" y1="339.0277" y2="373.0259"/>
    <line x1="450.107" x2="449.9999" y1="370.2771" y2="290.2729"/>
    <line x1="454.863" x2="454.8681" y1="287.4652" y2="367.5283"/>
    <line x1="459.6291" x2="459.7261" y1="367.431" y2="284.6575"/>
    <line x1="478.6732" x2="478.6732" y1="264.6744" y2="361.2041"/>
    <line x1="479.2296" x2="479.2296" y1="360.8829" y2="378.7473"/>
    <line x1="481.6364" x2="481.6364" y1="380.1369" y2="359.4933"/>
    <line x1="476.8227" x2="476.8227" y1="362.2725" y2="377.3577"/>
    <line x1="484.4694" x2="484.4694" y1="393.0282" y2="431.2266"/>
    <line x1="479.5956" x2="479.5956" y1="434.0405" y2="395.8421"/>
    <line x1="474.7217" x2="474.7217" y1="398.6561" y2="436.8544"/>
    <line x1="469.8479" x2="469.8479" y1="439.6683" y2="401.47"/>
    <line x1="464.974" x2="464.974" y1="404.2839" y2="442.4822"/>
    <line x1="460.1002" x2="460.1002" y1="445.2962" y2="407.0978"/>
    <line x1="455.2263" x2="455.2263" y1="409.9117" y2="448.1101"/>
    <line x1="450.3525" x2="450.3525" y1="450.924" y2="412.7257"/>
    <line x1="445.4786" x2="445.4786" y1="415.5396" y2="453.7379"/>
    <line x1="419.8574" x2="419.8574" y1="444.5733" y2="406.375"/>
    <line x1="417.5521" x2="417.5521" y1="405.044" y2="443.2424"/>
    <line x1="417.0743" x2="417.0743" y1="442.9665" y2="470.8338"/>
    <polyline points="413.781,472.7352 413.781,539.4015 329.1843,588.2434 329.1843,521.5771"/>
    <line x1="330.8217" x2="330.8217" y1="520.6318" y2="438.603"/>
    <line x1="326.0299" x2="282.1615" y1="441.3695" y2="416.0422"/>
    <line x1="308.97" x2="308.97" y1="431.52" y2="513.5488"/>
    <line x1="309.8465" x2="309.8465" y1="514.0548" y2="577.0787"/>
    <line x1="312.2637" x2="312.2637" y1="578.4742" y2="515.4504"/>
    <line x1="311.4071" x2="311.4071" y1="514.9559" y2="432.9271"/>
    <line x1="313.8442" x2="313.8442" y1="434.3342" y2="516.3629"/>
    <line x1="314.6809" x2="314.6809" y1="516.846" y2="579.8698"/>
    <line x1="317.0982" x2="317.0982" y1="581.2654" y2="518.2416"/>
    <line x1="316.2813" x2="316.2813" y1="517.77" y2="435.7412"/>
    <line x1="318.7185" x2="318.7185" y1="437.1483" y2="519.1771"/>
    <line x1="319.5154" x2="319.5154" y1="519.6372" y2="582.661"/>
    <line x1="321.9326" x2="321.9326" y1="584.0566" y2="521.0328"/>
    <line x1="321.1556" x2="321.1556" y1="520.5842" y2="438.5554"/>
    <line x1="323.5927" x2="323.5927" y1="439.9625" y2="521.9912"/>
    <line x1="324.3499" x2="324.3499" y1="522.4284" y2="585.4522"/>
    <line x1="333.8841" x2="333.8841" y1="585.5299" y2="518.8637"/>
    <line x1="335.6135" x2="335.6135" y1="517.8652" y2="435.8364"/>
    <line x1="340.4053" x2="340.4053" y1="433.0699" y2="515.0987"/>
    <line x1="338.584" x2="338.584" y1="516.1502" y2="582.8165"/>
    <line x1="343.2838" x2="343.2838" y1="580.1031" y2="513.4368"/>
    <line x1="345.1971" x2="345.1971" y1="512.3321" y2="430.3033"/>
    <line x1="349.9889" x2="349.9889" y1="427.5368" y2="509.5656"/>
    <line x1="347.9836" x2="347.9836" y1="510.7233" y2="577.3896"/>
    <line x1="352.6834" x2="352.6834" y1="574.6762" y2="508.0099"/>
    <line x1="354.7807" x2="354.7807" y1="506.799" y2="424.7702"/>
    <line x1="359.5725" x2="359.5725" y1="422.0037" y2="504.0324"/>
    <line x1="357.3832" x2="357.3832" y1="505.2965" y2="571.9627"/>
    <line x1="362.083" x2="362.083" y1="569.2493" y2="502.583"/>
    <line x1="364.3643" x2="364.3643" y1="501.2659" y2="419.2371"/>
    <line x1="369.1562" x2="369.1562" y1="416.4706" y2="498.4993"/>
    <line x1="371.4827" x2="371.4827" y1="497.1561" y2="563.8224"/>
    <polyline points="368.3426,566.7149 384.8659,557.1751 446.5157,592.7686 446.5157,626.4996 354.8808,679.405 354.8808,645.674 333.9639,633.5976"/>
    <line x1="338.2828" x2="338.2828" y1="636.0911" y2="669.8222"/>
    <line x1="338.0816" x2="338.0816" y1="669.706" y2="703.6022"/>
    <line x1="347.1944" x2="347.1944" y1="703.7523" y2="674.9673"/>
    <line x1="347.7674" x2="347.7674" y1="675.2981" y2="641.5671"/>
    <line x1="345.3962" x2="345.3962" y1="640.1981" y2="673.9291"/>
    <line x1="350.1385" x2="350.1385" y1="676.6671" y2="642.936"/>
    <line x1="352.5097" x2="352.5097" y1="644.305" y2="678.036"/>
    <line x1="351.6208" x2="351.6208" y1="677.5228" y2="701.1968"/>
    <line x1="356.0471" x2="356.0471" y1="698.6412" y2="678.7317"/>
    <line x1="354.8808" x2="304.752" y1="679.405" y2="650.4631"/>
    <line x1="305.0868" x2="305.0868" y1="650.2698" y2="650.6564"/>
    <line x1="304.1589" x2="304.1589" y1="650.8055" y2="680.79"/>
    <line x1="301.7278" x2="301.7278" y1="679.3864" y2="652.2092"/>
    <line x1="300.6247" x2="300.6247" y1="652.846" y2="622.8812"/>
    <line x1="295.7717" x2="295.7717" y1="625.683" y2="655.6479"/>
    <line x1="296.8654" x2="296.8654" y1="655.0164" y2="676.5791"/>
    <line x1="299.2966" x2="299.2966" y1="677.9827" y2="653.6128"/>
    <line x1="294.4342" x2="294.4342" y1="656.4201" y2="675.1755"/>
    <line x1="306.5901" x2="306.5901" y1="682.1936" y2="651.5244"/>
    <polyline points="292.0031,657.8237 292.0031,673.7718 252.8192,696.2969 252.8192,798.4571 336.8489,846.9716"/>
    <line x1="334.448" x2="334.448" y1="845.5855" y2="785.0206"/>
    <line x1="334.268" x2="334.268" y1="784.9166" y2="770.2432"/>
    <line x1="331.8965" x2="332.0472" y1="768.8741" y2="844.1994"/>
    <line x1="329.6463" x2="329.5251" y1="842.8132" y2="767.505"/>
    <line x1="327.1537" x2="327.2455" y1="766.1358" y2="841.4271"/>
    <line x1="324.8446" x2="324.7823" y1="840.041" y2="764.7667"/>
    <line x1="322.4109" x2="322.4438" y1="763.3976" y2="838.6549"/>
    <line x1="320.0429" x2="320.0395" y1="837.2687" y2="762.0285"/>
    <line x1="317.6681" x2="317.6421" y1="760.6593" y2="835.8826"/>
    <line x1="315.2413" x2="315.2967" y1="834.4965" y2="759.2902"/>
    <line x1="315.2413" x2="315.2413" y1="756.5839" y2="732.3363"/>
    <line x1="317.6421" x2="317.6421" y1="733.7224" y2="755.1978"/>
    <line x1="320.0429" x2="320.0429" y1="753.8117" y2="735.1085"/>
    <line x1="322.4438" x2="322.4438" y1="736.4947" y2="752.4256"/>
    <line x1="324.8446" x2="324.8446" y1="751.0394" y2="737.8808"/>
    <line x1="327.2455" x2="327.2455" y1="739.2669" y2="749.6533"/>
    <line x1="329.6463" x2="329.6463" y1="748.2672" y2="740.6531"/>
    <line x1="332.0472" x2="332.0472" y1="742.0392" y2="746.881"/>
    <line x1="334.448" x2="334.448" y1="745.4949" y2="743.4253"/>
    <line x1="336.2403" x2="252.8192" y1="744.4601" y2="696.2969"/>
    <line x1="255.2201" x2="255.2201" y1="697.683" y2="799.8432"/>
    <line x1="254.1921" x2="254.1921" y1="799.2497" y2="824.1287"/>
    <line x1="256.5964" x2="256.5964" y1="825.5167" y2="800.6378"/>
    <line x1="257.6209" x2="257.6209" y1="801.2294" y2="699.0692"/>
    <line x1="260.0218" x2="260.0218" y1="700.4553" y2="802.6155"/>
    <line x1="259.0006" x2="259.0006" y1="802.0259" y2="826.9048"/>
    <line x1="261.4048" x2="261.4048" y1="828.2929" y2="803.414"/>
    <line x1="262.4226" x2="262.4226" y1="804.0016" y2="701.8414"/>
    <line x1="264.8235" x2="264.8235" y1="703.2276" y2="805.3877"/>
    <line x1="263.809" x2="263.809" y1="804.802" y2="829.681"/>
    <line x1="266.2132" x2="266.2132" y1="831.0691" y2="806.1901"/>
    <line x1="267.2243" x2="267.2243" y1="806.7739" y2="704.6137"/>
    <line x1="269.6252" x2="269.6252" y1="705.9998" y2="808.16"/>
    <line x1="268.6175" x2="268.6175" y1="807.5782" y2="832.4571"/>
    <line x1="271.0217" x2="271.0217" y1="833.8452" y2="808.9663"/>
    <line x1="272.026" x2="272.026" y1="809.5461" y2="707.3859"/>
    <line x1="274.4269" x2="274.4269" y1="708.7721" y2="810.9323"/>
    <line x1="273.4259" x2="273.4259" y1="810.3544" y2="835.2333"/>
    <line x1="275.8301" x2="275.8301" y1="836.6214" y2="811.7424"/>
    <line x1="276.8277" x2="276.8277" y1="812.3184" y2="710.1582"/>
    <line x1="279.2286" x2="279.2286" y1="711.5443" y2="813.7045"/>
    <line x1="278.2343" x2="278.2343" y1="813.1305" y2="838.0094"/>
    <line x1="280.6385" x2="280.6385" y1="839.3975" y2="814.5186"/>
    <line x1="281.6294" x2="281.6294" y1="815.0907" y2="712.9305"/>
    <line x1="284.0303" x2="284.0303" y1="714.3166" y2="816.4768"/>
    <line x1="283.0428" x2="283.0428" y1="815.9067" y2="840.7856"/>
    <polyline points="285.447,842.1737 203.7036,794.9791 203.7036,714.5907 238.4873,694.5083 252.8192,702.7829"/>
    <line x1="234.9584" x2="234.9584" y1="732.6357" y2="813.0241"/>
    <line x1="232.5542" x2="232.5542" y1="811.636" y2="731.2476"/>
    <line x1="230.15" x2="230.15" y1="729.8595" y2="810.2479"/>
    <line x1="227.7457" x2="227.7457" y1="808.8598" y2="728.4714"/>
    <line x1="225.3415" x2="225.3415" y1="727.0834" y2="807.4718"/>
    <line x1="222.9373" x2="222.9373" y1="806.0837" y2="725.6953"/>
    <line x1="220.5331" x2="220.5331" y1="724.3072" y2="804.6956"/>
    <line x1="218.1289" x2="218.1289" y1="803.3075" y2="722.9191"/>
    <line x1="215.7247" x2="215.7247" y1="721.5311" y2="801.9195"/>
    <line x1="213.3204" x2="213.3204" y1="800.5314" y2="720.143"/>
    <line x1="210.9162" x2="210.9162" y1="718.7549" y2="799.1433"/>
    <line x1="208.512" x2="208.512" y1="797.7552" y2="717.3668"/>
    <line x1="206.1078" x2="206.1078" y1="715.9788" y2="796.3672"/>
    <line x1="237.3626" x2="237.3626" y1="814.4121" y2="734.0237"/>
    <line x1="239.7668" x2="239.7668" y1="735.4118" y2="815.8002"/>
    <line x1="242.1711" x2="242.1711" y1="817.1883" y2="736.7999"/>
    <line x1="244.5753" x2="244.5753" y1="738.188" y2="818.5764"/>
    <line x1="246.9795" x2="246.9795" y1="819.9644" y2="739.576"/>
    <line x1="249.3837" x2="249.3837" y1="740.9641" y2="821.3525"/>
    <line x1="251.7879" x2="251.7879" y1="822.7406" y2="742.3522"/>
    <line x1="252.8192" x2="203.7036" y1="742.9476" y2="714.5907"/>
    <line x1="150.2572" x2="150.2572" y1="675.1004" y2="636.9935"/>
    <line x1="145.4434" x2="145.4434" y1="639.7728" y2="677.8796"/>
    <line x1="140.6297" x2="140.6297" y1="680.6588" y2="642.552"/>
    <line x1="135.816" x2="135.816" y1="645.3312" y2="683.438"/>
    <line x1="131.0022" x2="131.0022" y1="686.2172" y2="648.1104"/>
    <line x1="126.1885" x2="205.5403" y1="650.8896" y2="605.0758"/>
    <line x1="206.8128" x2="206.8128" y1="605.8105" y2="547.0505"/>
    <line x1="209.2013" x2="209.2013" y1="548.4295" y2="607.1895"/>
    <line x1="208.022" x2="208.022" y1="606.5086" y2="641.7498"/>
    <line x1="212.8357" x2="212.8357" y1="638.9706" y2="609.2878"/>
    <line x1="213.9784" x2="213.9784" y1="609.9475" y2="551.1876"/>
    <line x1="216.3669" x2="216.3669" y1="552.5666" y2="611.3265"/>
    <line x1="217.6495" x2="217.6495" y1="612.067" y2="636.1914"/>
    <line x1="221.144" x2="221.144" y1="614.0846" y2="555.3246"/>
    <line x1="218.7555" x2="218.7555" y1="553.9456" y2="612.7056"/>
    <line x1="211.5899" x2="211.5899" y1="608.5685" y2="549.8085"/>
    <line x1="256.5385" x2="256.5385" y1="565.228" y2="623.9879"/>
    <line x1="259.0497" x2="259.0497" y1="622.9327" y2="645.987"/>
    <line x1="259.3403" x2="286.0658" y1="645.8193" y2="661.2516"/>
    <polyline points="289.5719,659.2273 289.5719,672.3682 307.6199,682.7882"/>
    <line x1="290.9188" x2="290.9188" y1="658.4497" y2="628.4849"/>
    <polyline points="277.8803,626.5608 286.0658,631.2867 286.0658,661.2516 383.1251,605.2144 383.1251,575.2495 367.4077,566.1751"/>
    <line x1="366.7828" x2="366.7828" y1="566.5359" y2="499.8696"/>
    <line x1="373.948" x2="373.948" y1="495.7328" y2="413.704"/>
    <line x1="378.7398" x2="378.7398" y1="410.9375" y2="492.9662"/>
    <line x1="380.8823" x2="380.8823" y1="491.7293" y2="558.3955"/>
    <line x1="385.5821" x2="385.5821" y1="555.6821" y2="489.0158"/>
    <line x1="383.5316" x2="383.5316" y1="490.1997" y2="408.1709"/>
    <line x1="388.3234" x2="388.3234" y1="405.4044" y2="487.4331"/>
    <line x1="390.2819" x2="390.2819" y1="486.3024" y2="552.9687"/>
    <line x1="394.9817" x2="394.9817" y1="550.2552" y2="483.5889"/>
    <line x1="393.1152" x2="393.1152" y1="484.6666" y2="402.6378"/>
    <line x1="397.907" x2="397.907" y1="399.8712" y2="481.9"/>
    <line x1="399.6815" x2="399.6815" y1="480.8755" y2="547.5418"/>
    <line x1="404.3814" x2="404.3814" y1="544.8283" y2="478.1621"/>
    <line x1="402.6988" x2="402.6988" y1="479.1335" y2="397.1047"/>
    <line x1="403.7205" x2="440.6048" y1="397.0584" y2="418.3535"/>
    <line x1="415.2469" x2="415.2469" y1="403.7131" y2="441.9114"/>
    <line x1="412.9416" x2="412.9416" y1="440.5805" y2="402.3821"/>
    <line x1="410.6363" x2="410.6363" y1="401.0512" y2="439.2495"/>
    <line x1="412.2824" x2="412.2824" y1="440.1999" y2="473.6004"/>
    <line x1="409.0812" x2="409.0812" y1="475.4486" y2="542.1149"/>
    <line x1="376.1825" x2="376.1825" y1="561.109" y2="494.4427"/>
    <line x1="407.4906" x2="407.4906" y1="476.3669" y2="437.4334"/>
    <line x1="408.3311" x2="408.3311" y1="437.9186" y2="399.7202"/>
    <line x1="406.0258" x2="406.0258" y1="398.3893" y2="436.5876"/>
    <line x1="407.4906" x2="407.4906" y1="394.8817" y2="394.3381"/>
    <line x1="412.2824" x2="412.2824" y1="392.1151" y2="391.5716"/>
    <line x1="417.0743" x2="417.0743" y1="389.3486" y2="388.805"/>
    <line x1="489.3433" x2="489.3433" y1="390.2143" y2="428.4127"/>
    <polyline points="472.6046,473.6622 493.7698,485.882 493.7698,524.3353 504.0057,518.4256"/>
    <line x1="504.0057" x2="527.6256" y1="517.9134" y2="531.5504"/>
    <line x1="525.2636" x2="525.2636" y1="530.1867" y2="588.3255"/>
    <polyline points="527.6256,589.6892 574.9432,562.3703 574.9432,504.2315 551.3233,490.5946 504.0057,517.9134 504.0057,576.0522 527.6256,589.6892 527.6256,531.5504 574.9432,504.2315"/>
    <line x1="570.2115" x2="570.2115" y1="506.9634" y2="565.1022"/>
    <line x1="565.4797" x2="565.4797" y1="567.8341" y2="509.6953"/>
    <line x1="560.7479" x2="560.7479" y1="512.4272" y2="570.566"/>
    <line x1="556.0162" x2="556.0162" y1="573.2979" y2="515.1591"/>
    <line x1="551.2844" x2="551.2844" y1="517.8909" y2="576.0298"/>
    <line x1="546.5526" x2="546.5526" y1="578.7617" y2="520.6228"/>
    <line x1="541.8209" x2="541.8209" y1="523.3547" y2="581.4935"/>
    <line x1="537.0891" x2="537.0891" y1="584.2254" y2="526.0866"/>
    <line x1="532.3574" x2="532.3574" y1="528.8185" y2="586.9573"/>
    <line x1="522.9016" x2="522.9016" y1="586.9618" y2="528.823"/>
    <line x1="520.5396" x2="520.5396" y1="527.4593" y2="585.5981"/>
    <line x1="518.1776" x2="518.1776" y1="584.2344" y2="526.0956"/>
    <line x1="515.8156" x2="515.8156" y1="524.7319" y2="582.8707"/>
    <line x1="513.4537" x2="513.4537" y1="581.507" y2="523.3682"/>
    <line x1="511.0917" x2="511.0917" y1="522.0045" y2="580.1433"/>
    <line x1="508.7297" x2="508.7297" y1="578.7796" y2="520.6408"/>
    <line x1="506.3677" x2="506.3677" y1="519.2771" y2="577.4159"/>
    <polyline points="493.7698,524.3353 472.6046,512.1155 472.6046,473.6622 550.8853,428.4668 572.0505,440.6866 572.0505,479.1399 551.7669,490.8507"/>
    <line x1="552.4803" x2="552.4803" y1="490.4388" y2="451.9854"/>
    <line x1="557.3729" x2="557.3729" y1="449.1607" y2="487.6141"/>
    <line x1="562.2654" x2="562.2654" y1="484.7894" y2="446.336"/>
    <line x1="567.158" x2="567.158" y1="443.5113" y2="481.9647"/>
    <line x1="547.5878" x2="547.5878" y1="492.7513" y2="454.8102"/>
    <line x1="542.6953" x2="542.6953" y1="457.6349" y2="495.576"/>
    <line x1="537.8027" x2="537.8027" y1="498.4007" y2="460.4596"/>
    <line x1="532.9102" x2="532.9102" y1="463.2843" y2="501.2254"/>
    <line x1="528.0176" x2="528.0176" y1="504.0501" y2="466.109"/>
    <line x1="523.1251" x2="523.1251" y1="468.9337" y2="506.8748"/>
    <line x1="518.2325" x2="518.2325" y1="509.6995" y2="471.7584"/>
    <line x1="513.34" x2="513.34" y1="474.5831" y2="512.5243"/>
    <line x1="508.4475" x2="508.4475" y1="515.349" y2="477.4078"/>
    <line x1="503.5549" x2="503.5549" y1="480.2326" y2="518.6859"/>
    <line x1="498.6624" x2="498.6624" y1="521.5106" y2="483.0573"/>
    <line x1="493.7698" x2="572.0505" y1="485.882" y2="440.6866"/>
    <line x1="584.2772" x2="584.2772" y1="383.951" y2="289.334"/>
    <line x1="579.4241" x2="632.8078" y1="292.1359" y2="261.3148"/>
    <line x1="627.9547" x2="627.9547" y1="264.1167" y2="358.7338"/>
    <line x1="623.1016" x2="623.1016" y1="361.5357" y2="266.9186"/>
    <line x1="618.2486" x2="618.2486" y1="269.7206" y2="364.3376"/>
    <line x1="613.3955" x2="613.3955" y1="367.1395" y2="272.5225"/>
    <line x1="608.5425" x2="608.5425" y1="275.3244" y2="369.9414"/>
    <line x1="603.6894" x2="603.6894" y1="372.7433" y2="278.1263"/>
    <line x1="598.8364" x2="598.8364" y1="280.9282" y2="375.5452"/>
    <line x1="593.9833" x2="593.9833" y1="378.3472" y2="283.7301"/>
    <line x1="589.1302" x2="589.1302" y1="286.532" y2="381.1491"/>
    <line x1="658.0533" x2="658.0533" y1="269.5715" y2="206.8354"/>
    <line x1="660.3116" x2="660.3116" y1="208.1392" y2="270.8753"/>
    <line x1="662.5699" x2="662.5699" y1="272.1791" y2="209.443"/>
    <line x1="664.8282" x2="664.8282" y1="210.7468" y2="273.4829"/>
    <line x1="667.0865" x2="667.0865" y1="274.7868" y2="212.0507"/>
    <line x1="669.3448" x2="669.3448" y1="213.3545" y2="276.0906"/>
    <line x1="671.6031" x2="671.6031" y1="277.3944" y2="214.6583"/>
    <line x1="673.8614" x2="673.8614" y1="215.9622" y2="278.6983"/>
    <polyline points="676.1197,280.0021 747.6827,238.6852 747.6827,175.9491 727.358,164.2146 655.795,205.5315 655.795,268.2676 676.1197,280.0021 676.1197,217.266 747.6827,175.9491"/>
    <line x1="742.9118" x2="742.9118" y1="178.7035" y2="241.4396"/>
    <line x1="738.1409" x2="738.1409" y1="244.1941" y2="181.458"/>
    <line x1="733.3701" x2="733.3701" y1="184.2125" y2="246.9486"/>
    <line x1="728.5992" x2="728.5992" y1="249.703" y2="186.9669"/>
    <line x1="723.8283" x2="723.8283" y1="189.7214" y2="252.4575"/>
    <line x1="719.0575" x2="719.0575" y1="255.2119" y2="192.4758"/>
    <line x1="714.2866" x2="714.2866" y1="195.2303" y2="257.9664"/>
    <line x1="709.5157" x2="709.5157" y1="260.7209" y2="197.9848"/>
    <line x1="704.7449" x2="704.7449" y1="200.7392" y2="263.4753"/>
    <line x1="699.974" x2="699.974" y1="266.2298" y2="203.4937"/>
    <line x1="695.2031" x2="695.2031" y1="206.2481" y2="268.9842"/>
    <line x1="690.4323" x2="690.4323" y1="271.7387" y2="209.0026"/>
    <line x1="685.6614" x2="685.6614" y1="211.7571" y2="274.4932"/>
    <line x1="680.8905" x2="680.8905" y1="277.2476" y2="214.5115"/>
    <line x1="676.1197" x2="655.795" y1="217.266" y2="205.5315"/>
    <polyline points="424.751,185.2918 424.6174,65.6459 396.8395,49.6084"/>
    <line x1="399.1544" x2="399.1544" y1="50.9448" y2="136.5828"/>
    <line x1="401.4692" x2="401.4692" y1="137.9193" y2="52.2813"/>
    <line x1="403.784" x2="403.784" y1="53.6177" y2="139.2557"/>
    <line x1="406.0988" x2="406.0988" y1="140.5922" y2="54.9542"/>
    <line x1="408.4137" x2="408.4137" y1="56.2907" y2="141.9287"/>
    <line x1="410.7285" x2="410.7285" y1="143.2651" y2="57.6271"/>
    <line x1="413.0433" x2="413.0433" y1="58.9636" y2="144.6016"/>
    <line x1="415.3581" x2="415.3581" y1="145.9381" y2="60.3001"/>
    <line x1="417.673" x2="417.673" y1="61.6365" y2="147.2745"/>
    <line x1="418.6481" x2="406.0485" y1="147.8375" y2="155.1119"/>
    <line x1="403.6404" x2="403.6404" y1="153.7215" y2="194.6994"/>
    <polyline points="406.0485,196.0897 336.2132,155.7702 336.2132,114.7924 364.2668,98.5956 396.8395,117.4015"/>
    <polygon points="396.8395,135.2464 396.8395,49.6084 407.2943,43.5723 435.0722,59.6099 435.0722,145.2479 424.6174,151.2839"/>
    <line x1="391.5998" x2="391.5998" y1="146.7699" y2="187.7477"/>
    <line x1="394.0079" x2="394.0079" y1="189.1381" y2="148.1602"/>
    <line x1="396.416" x2="396.416" y1="149.5506" y2="190.5284"/>
    <line x1="398.8242" x2="398.8242" y1="191.9187" y2="150.9409"/>
    <line x1="401.2323" x2="401.2323" y1="152.3312" y2="193.309"/>
    <line x1="410.7241" x2="410.7241" y1="193.3902" y2="152.4124"/>
    <line x1="415.3997" x2="415.3997" y1="149.7129" y2="190.6908"/>
    <line x1="420.0753" x2="419.9878" y1="187.9913" y2="62.973"/>
    <line x1="422.3026" x2="422.3026" y1="64.3095" y2="149.9475"/>
    <line x1="389.1917" x2="389.1917" y1="145.3796" y2="186.3574"/>
    <line x1="386.7836" x2="386.7836" y1="184.9671" y2="143.9893"/>
    <line x1="384.3755" x2="384.3755" y1="142.5989" y2="183.5768"/>
    <polyline points="274.852,197.5973 262.9684,190.7362 233.8847,207.5277 233.8847,221.2498"/>
    <line x1="236.1361" x2="236.1361" y1="219.95" y2="208.8276"/>
    <line x1="238.3875" x2="238.3875" y1="210.1274" y2="218.6501"/>
    <line x1="240.6389" x2="240.6389" y1="217.3502" y2="211.4273"/>
    <line x1="242.8903" x2="242.8903" y1="212.7271" y2="216.0504"/>
    <line x1="245.1417" x2="245.1417" y1="214.7505" y2="214.027"/>
    <line x1="245.7683" x2="233.8847" y1="214.3888" y2="207.5277"/>
    <line x1="248.0238" x2="248.0238" y1="257.4095" y2="344.7849"/>
    <line x1="209.639" x2="161.2814" y1="291.7439" y2="319.6631"/>
    <line x1="283.2569" x2="283.2569" y1="498.7033" y2="561.7272"/>
    <line x1="270.2196" x2="270.2196" y1="557.3292" y2="616.0891"/>
    <line x1="268.465" x2="268.465" y1="617.4967" y2="640.5511"/>
    <line x1="269.0586" x2="269.0586" y1="640.2084" y2="651.4325"/>
    <line x1="266.629" x2="266.629" y1="650.0298" y2="641.6111"/>
    <line x1="264.1994" x2="264.1994" y1="643.0138" y2="648.6271"/>
    <line x1="261.7698" x2="261.7698" y1="647.2243" y2="644.4166"/>
    <line x1="263.7573" x2="263.7573" y1="643.2691" y2="620.2147"/>
    <line x1="265.6593" x2="265.6593" y1="618.7221" y2="559.9621"/>
    <line x1="261.0989" x2="261.0989" y1="562.5951" y2="621.355"/>
    <line x1="286.4311" x2="286.4311" y1="715.7027" y2="817.8629"/>
    <polyline points="285.447,817.2947 285.447,842.1737 306.9928,829.7342"/>
    <line x1="308.0387" x2="308.0387" y1="830.3381" y2="728.1779"/>
    <line x1="310.4396" x2="310.4396" y1="729.564" y2="831.7242"/>
    <line x1="312.8404" x2="312.8404" y1="833.1103" y2="730.9501"/>
    <line x1="305.6379" x2="305.6379" y1="726.7918" y2="828.9519"/>
    <line x1="303.237" x2="303.237" y1="827.5658" y2="725.4056"/>
    <line x1="300.8362" x2="300.8362" y1="724.0195" y2="826.1797"/>
    <line x1="302.8388" x2="302.8388" y1="827.3359" y2="832.1325"/>
    <line x1="298.4909" x2="298.4353" y1="834.6428" y2="722.6334"/>
    <line x1="296.0345" x2="296.0345" y1="721.2472" y2="823.4074"/>
    <line x1="294.1429" x2="294.1429" y1="822.3153" y2="837.1531"/>
    <line x1="289.7949" x2="289.7949" y1="839.6634" y2="819.805"/>
    <line x1="288.8319" x2="288.8319" y1="819.249" y2="717.0889"/>
    <line x1="291.2328" x2="291.2328" y1="718.475" y2="820.6352"/>
    <line x1="293.6336" x2="293.6336" y1="822.0213" y2="719.8611"/>
    <polyline points="312.9253,757.9211 360.3534,785.3037 360.3534,799.9771 312.9253,772.5944 312.9253,757.9211 381.651,718.2423 429.0791,745.6249 429.0791,760.2983 360.3534,799.9771"/>
    <line x1="360.1763" x2="360.1763" y1="799.8748" y2="833.5035"/>
    <line x1="359.6889" x2="359.6889" y1="833.7849" y2="855.4081"/>
    <line x1="357.2843" x2="357.2843" y1="854.0198" y2="835.1732"/>
    <line x1="355.5108" x2="355.6106" y1="836.1971" y2="782.5654"/>
    <line x1="353.2392" x2="353.2392" y1="781.1963" y2="795.8697"/>
    <line x1="348.4964" x2="348.4964" y1="793.1314" y2="778.458"/>
    <line x1="350.8678" x2="350.8453" y1="779.8272" y2="838.8908"/>
    <line x1="350.0703" x2="350.0703" y1="839.3382" y2="849.8548"/>
    <line x1="352.475" x2="352.475" y1="851.2432" y2="837.9499"/>
    <line x1="354.8796" x2="354.8796" y1="836.5616" y2="852.6315"/>
    <line x1="362.0936" x2="362.0936" y1="856.7965" y2="832.3966"/>
    <line x1="364.4982" x2="364.4982" y1="831.0083" y2="858.1848"/>
    <line x1="366.9029" x2="366.9029" y1="859.5731" y2="829.6199"/>
    <line x1="364.8418" x2="364.8418" y1="830.8099" y2="797.3857"/>
    <line x1="365.2624" x2="365.2624" y1="797.1429" y2="782.4695"/>
    <line x1="370.1714" x2="370.1714" y1="779.6353" y2="794.3087"/>
    <line x1="369.5073" x2="369.5073" y1="794.6921" y2="828.1163"/>
    <line x1="369.3075" x2="369.3075" y1="828.2316" y2="860.9615"/>
    <line x1="371.7122" x2="371.7122" y1="862.3498" y2="826.8433"/>
    <line x1="376.5215" x2="376.5215" y1="824.0666" y2="865.1264"/>
    <line x1="374.1169" x2="374.1728" y1="863.7381" y2="791.9985"/>
    <line x1="375.0803" x2="375.0803" y1="791.4745" y2="776.8011"/>
    <line x1="379.9893" x2="379.9893" y1="773.9669" y2="788.6403"/>
    <line x1="378.8383" x2="378.9262" y1="789.3048" y2="866.5148"/>
    <line x1="381.3308" x2="381.3308" y1="867.9031" y2="821.29"/>
    <line x1="383.5038" x2="383.5038" y1="820.0354" y2="786.6112"/>
    <line x1="384.8983" x2="384.8983" y1="785.8061" y2="771.1327"/>
    <line x1="389.8073" x2="389.8073" y1="768.2985" y2="782.9719"/>
    <line x1="388.1693" x2="388.1693" y1="783.9176" y2="817.3418"/>
    <line x1="388.5448" x2="388.5448" y1="817.125" y2="872.0681"/>
    <line x1="386.1401" x2="386.1401" y1="870.6797" y2="818.5133"/>
    <line x1="383.7355" x2="383.7355" y1="819.9016" y2="869.2914"/>
    <line x1="390.9494" x2="390.9494" y1="873.4564" y2="815.7367"/>
    <line x1="392.8348" x2="392.8348" y1="814.6482" y2="781.224"/>
    <line x1="394.7163" x2="394.7163" y1="780.1377" y2="765.4643"/>
    <line x1="399.6252" x2="399.6252" y1="762.6301" y2="777.3035"/>
    <line x1="397.5003" x2="397.5003" y1="778.5303" y2="811.9545"/>
    <line x1="398.1634" x2="398.1634" y1="811.5717" y2="877.6214"/>
    <line x1="395.7587" x2="395.7587" y1="876.2331" y2="812.96"/>
    <line x1="393.3541" x2="393.3541" y1="814.3483" y2="874.8447"/>
    <line x1="400.5681" x2="400.5681" y1="879.0097" y2="810.1833"/>
    <line x1="402.1657" x2="402.1657" y1="809.2609" y2="775.8367"/>
    <line x1="404.5342" x2="404.5342" y1="774.4693" y2="759.7959"/>
    <line x1="409.4432" x2="409.4432" y1="756.9617" y2="771.6351"/>
    <line x1="411.4967" x2="411.4967" y1="770.4495" y2="803.8737"/>
    <line x1="412.5913" x2="412.5913" y1="803.2417" y2="885.9514"/>
    <line x1="410.1867" x2="410.1867" y1="884.563" y2="804.63"/>
    <line x1="407.782" x2="407.782" y1="806.0184" y2="883.1747"/>
    <line x1="405.3774" x2="405.3774" y1="881.7864" y2="807.4067"/>
    <line x1="406.8312" x2="406.8312" y1="806.5673" y2="773.1431"/>
    <line x1="414.3522" x2="414.3522" y1="768.8009" y2="754.1275"/>
    <line x1="419.2611" x2="419.2611" y1="751.2933" y2="765.9667"/>
    <line x1="420.8277" x2="420.8277" y1="765.0622" y2="798.4864"/>
    <line x1="419.8053" x2="419.8053" y1="799.0767" y2="890.1163"/>
    <line x1="422.2099" x2="422.2099" y1="891.5047" y2="797.6884"/>
    <line x1="424.6146" x2="424.6146" y1="796.3001" y2="892.893"/>
    <line x1="427.0192" x2="427.0192" y1="894.2813" y2="790.0321"/>
    <line x1="429.4239" x2="429.4239" y1="791.4204" y2="895.6696"/>
    <line x1="431.8286" x2="431.8286" y1="897.058" y2="792.8087"/>
    <line x1="434.2332" x2="434.2332" y1="794.197" y2="898.4463"/>
    <line x1="436.6379" x2="436.6379" y1="899.8346" y2="795.5854"/>
    <line x1="439.0425" x2="439.0425" y1="796.9737" y2="901.223"/>
    <polyline points="441.4472,902.6113 347.6657,848.4665 347.6657,840.7266"/>
    <line x1="346.1799" x2="346.125" y1="841.5844" y2="777.0889"/>
    <line x1="343.7536" x2="343.7536" y1="775.7198" y2="790.3932"/>
    <line x1="339.0108" x2="339.0108" y1="787.6549" y2="772.9815"/>
    <line x1="336.6394" x2="336.6394" y1="771.6124" y2="786.2858"/>
    <polyline points="336.8489,786.4067 336.8489,846.9716 425.4932,795.7928 425.4932,762.3686"/>
    <line x1="424.1701" x2="424.1701" y1="763.1325" y2="748.4591"/>
    <line x1="429.0791" x2="360.3534" y1="745.6249" y2="785.3037"/>
    <line x1="357.982" x2="357.982" y1="783.9346" y2="798.6079"/>
    <line x1="341.3822" x2="341.5144" y1="774.3506" y2="844.278"/>
    <line x1="402.9727" x2="402.9727" y1="808.795" y2="880.398"/>
    <line x1="414.996" x2="414.996" y1="887.3397" y2="801.8534"/>
    <line x1="416.1622" x2="416.1622" y1="801.18" y2="767.7559"/>
    <line x1="417.4006" x2="417.4006" y1="800.4651" y2="888.728"/>
    <line x1="446.2596" x2="446.2596" y1="899.8328" y2="795.5836"/>
    <line x1="441.4472" x2="494.3838" y1="798.362" y2="767.7991"/>
    <line x1="489.5714" x2="489.5714" y1="770.5775" y2="874.8268"/>
    <line x1="484.7589" x2="484.7589" y1="877.6052" y2="773.356"/>
    <line x1="479.9465" x2="479.9465" y1="776.1344" y2="880.3837"/>
    <line x1="475.1341" x2="475.1341" y1="883.1621" y2="778.9129"/>
    <line x1="470.3217" x2="470.3217" y1="781.6913" y2="885.9406"/>
    <line x1="465.5093" x2="465.5093" y1="888.719" y2="784.4698"/>
    <line x1="460.6969" x2="460.6969" y1="787.2482" y2="891.4975"/>
    <line x1="455.8844" x2="455.8844" y1="894.2759" y2="790.0267"/>
    <line x1="451.072" x2="451.072" y1="792.8051" y2="897.0544"/>
    <line x1="483.1629" x2="483.1629" y1="953.87" y2="995.4503"/>
    <line x1="485.804" x2="485.804" y1="998.459" y2="1029.2004"/>
    <line x1="490.1563" x2="490.1563" y1="1026.6876" y2="995.9462"/>
    <line x1="494.5087" x2="494.5087" y1="993.4334" y2="1024.1748"/>
    <line x1="498.861" x2="498.861" y1="1021.662" y2="990.9206"/>
    <line x1="503.2133" x2="503.2133" y1="988.4078" y2="1019.1492"/>
    <line x1="481.4517" x2="450.9027" y1="1031.7132" y2="1014.0758"/>
    <line x1="450.2207" x2="450.2207" y1="1014.4695" y2="972.8891"/>
    <line x1="454.9268" x2="455.0518" y1="970.1721" y2="1016.4712"/>
    <line x1="452.6518" x2="452.6518" y1="1015.0856" y2="1013.0659"/>
    <line x1="457.4518" x2="457.4518" y1="1010.2946" y2="1017.8569"/>
    <line x1="459.8518" x2="459.8518" y1="1019.2425" y2="1008.909"/>
    <line x1="459.6328" x2="459.6328" y1="1009.0354" y2="967.4551"/>
    <line x1="464.3388" x2="464.3388" y1="964.7381" y2="1006.3184"/>
    <line x1="464.6518" x2="464.6518" y1="1006.1377" y2="1022.0138"/>
    <line x1="462.2518" x2="462.2518" y1="1020.6282" y2="1007.5234"/>
    <line x1="467.0518" x2="467.0518" y1="1004.7521" y2="1023.3994"/>
    <line x1="469.4517" x2="469.4517" y1="1024.7851" y2="1003.3665"/>
    <line x1="469.0448" x2="469.0448" y1="1003.6014" y2="962.021"/>
    <line x1="473.7509" x2="473.7509" y1="959.304" y2="1000.8844"/>
    <line x1="474.2517" x2="474.2517" y1="1000.5952" y2="1027.5563"/>
    <line x1="476.6517" x2="476.6517" y1="1028.942" y2="999.2096"/>
    <polyline points="477.5255,998.7051 481.4517,1000.9718 481.4517,1031.7132 507.5656,1016.6364 507.5656,985.8949 487.869,974.5231"/>
    <line x1="478.4569" x2="478.4569" y1="956.587" y2="998.1673"/>
    <line x1="479.0517" x2="479.0517" y1="999.5862" y2="1030.3276"/>
    <line x1="471.8517" x2="471.8517" y1="1026.1707" y2="1001.9808"/>
    <line x1="481.4517" x2="507.5656" y1="1000.9718" y2="985.8949"/>
    <line x1="487.869" x2="417.2785" y1="951.1529" y2="991.9083"/>
    <line x1="414.923" x2="414.923" y1="990.5484" y2="1032.1287"/>
    <polyline points="417.2785,1033.4887 487.869,992.7333 487.869,951.1529 447.8252,928.0337 377.2348,968.7891 377.2348,1010.3694 417.2785,1033.4887 417.2785,991.9083 377.2348,968.7891"/>
    <line x1="379.5903" x2="379.5903" y1="970.149" y2="1011.7294"/>
    <line x1="381.9458" x2="381.9458" y1="1013.0893" y2="971.509"/>
    <line x1="384.3013" x2="384.3013" y1="972.869" y2="1014.4493"/>
    <line x1="386.6568" x2="386.6568" y1="1015.8093" y2="974.2289"/>
    <line x1="389.0123" x2="389.0123" y1="975.5889" y2="1017.1692"/>
    <line x1="391.3679" x2="391.3679" y1="1018.5292" y2="976.9488"/>
    <line x1="393.7234" x2="393.7234" y1="978.3088" y2="1019.8891"/>
    <line x1="396.0789" x2="396.0789" y1="1021.2491" y2="979.6687"/>
    <line x1="398.4344" x2="398.4344" y1="981.0287" y2="1022.609"/>
    <line x1="400.7899" x2="400.7899" y1="1023.969" y2="982.3887"/>
    <line x1="403.1454" x2="403.1454" y1="983.7486" y2="1025.329"/>
    <line x1="405.5009" x2="405.5009" y1="1026.6889" y2="985.1086"/>
    <line x1="407.8565" x2="407.8565" y1="986.4685" y2="1028.0489"/>
    <line x1="410.212" x2="410.212" y1="1029.4088" y2="987.8285"/>
    <line x1="412.5675" x2="412.5675" y1="989.1884" y2="1030.7688"/>
    <line x1="421.9845" x2="421.9845" y1="1030.7717" y2="989.1913"/>
    <line x1="426.6906" x2="426.6906" y1="986.4743" y2="1028.0546"/>
    <line x1="431.3966" x2="431.3966" y1="1025.3376" y2="983.7573"/>
    <line x1="436.1026" x2="436.1026" y1="981.0402" y2="1022.6206"/>
    <line x1="440.8087" x2="440.8087" y1="1019.9036" y2="978.3232"/>
    <line x1="445.5147" x2="445.5147" y1="975.6062" y2="1017.1865"/>
    <polyline points="364.724,982.0817 333.3079,1000.2198 333.3079,1078.9474 249.9079,1030.7963 249.9079,952.0688 281.3239,933.9307 364.724,982.0817 364.724,1060.8093 333.3079,1078.9474"/>
    <line x1="330.855" x2="330.855" y1="1077.5312" y2="998.8036"/>
    <line x1="328.4021" x2="328.4021" y1="997.3874" y2="1076.115"/>
    <line x1="325.9491" x2="325.9491" y1="1074.6988" y2="995.9712"/>
    <line x1="323.4962" x2="323.4962" y1="994.555" y2="1073.2826"/>
    <line x1="321.0432" x2="321.0432" y1="1071.8663" y2="993.1388"/>
    <line x1="318.5903" x2="318.5903" y1="991.7226" y2="1070.4501"/>
    <line x1="316.1373" x2="316.1373" y1="1069.0339" y2="990.3064"/>
    <line x1="313.6844" x2="313.6844" y1="988.8902" y2="1067.6177"/>
    <line x1="311.2315" x2="311.2315" y1="1066.2015" y2="987.4739"/>
    <line x1="308.7785" x2="308.7785" y1="986.0577" y2="1064.7853"/>
    <line x1="306.3256" x2="306.3256" y1="1063.3691" y2="984.6415"/>
    <line x1="303.8726" x2="303.8726" y1="983.2253" y2="1061.9529"/>
    <line x1="301.4197" x2="301.4197" y1="1060.5367" y2="981.8091"/>
    <line x1="298.9667" x2="298.9667" y1="980.3929" y2="1059.1205"/>
    <line x1="296.5138" x2="296.5138" y1="1057.7043" y2="978.9767"/>
    <line x1="294.0609" x2="294.0609" y1="977.5605" y2="1056.2881"/>
    <line x1="291.6079" x2="291.6079" y1="1054.8719" y2="976.1443"/>
    <line x1="289.155" x2="289.155" y1="974.7281" y2="1053.4557"/>
    <line x1="286.702" x2="286.702" y1="1052.0394" y2="973.3119"/>
    <line x1="284.2491" x2="284.2491" y1="971.8957" y2="1050.6232"/>
    <line x1="281.7961" x2="281.7961" y1="1049.207" y2="970.4795"/>
    <line x1="279.3432" x2="279.3432" y1="969.0633" y2="1047.7908"/>
    <line x1="276.8903" x2="276.8903" y1="1046.3746" y2="967.647"/>
    <line x1="274.4373" x2="274.4373" y1="966.2308" y2="1044.9584"/>
    <line x1="271.9844" x2="271.9844" y1="1043.5422" y2="964.8146"/>
    <line x1="269.5314" x2="269.5314" y1="963.3984" y2="1042.126"/>
    <line x1="267.0785" x2="267.0785" y1="1040.7098" y2="961.9822"/>
    <line x1="264.6256" x2="264.6256" y1="960.566" y2="1039.2936"/>
    <line x1="262.1726" x2="262.1726" y1="1037.8774" y2="959.1498"/>
    <line x1="259.7197" x2="259.7197" y1="957.7336" y2="1036.4612"/>
    <line x1="257.2667" x2="257.2667" y1="1035.045" y2="956.3174"/>
    <line x1="254.8138" x2="254.8138" y1="954.9012" y2="1033.6288"/>
    <line x1="252.3608" x2="252.3608" y1="1032.2125" y2="953.485"/>
    <line x1="249.9079" x2="333.3079" y1="952.0688" y2="1000.2198"/>
    <line x1="337.796" x2="337.796" y1="997.6287" y2="1076.3562"/>
    <line x1="342.284" x2="342.284" y1="1073.7651" y2="995.0375"/>
    <line x1="346.772" x2="346.772" y1="992.4464" y2="1071.1739"/>
    <line x1="351.26" x2="351.26" y1="1068.5828" y2="989.8552"/>
    <line x1="355.748" x2="355.748" y1="987.264" y2="1065.9916"/>
    <line x1="360.236" x2="360.236" y1="1063.4005" y2="984.6729"/>
    <line x1="558.3488" x2="558.3488" y1="935.0356" y2="870.5684"/>
    <line x1="556.0367" x2="586.0941" y1="869.2335" y2="886.5872"/>
    <line x1="583.782" x2="583.782" y1="885.2523" y2="949.7195"/>
    <polyline points="586.0941,951.0544 650.2132,914.0352 650.2132,849.568 620.1558,832.2143 556.0367,869.2335 556.0367,933.7007 586.0941,951.0544 586.0941,886.5872 650.2132,849.568"/>
    <line x1="650.5099" x2="650.5099" y1="853.1069" y2="807.2515"/>
    <line x1="650.1097" x2="650.1097" y1="807.0205" y2="768.9505"/>
    <line x1="647.6806" x2="647.6806" y1="767.548" y2="805.6181"/>
    <line x1="645.6751" x2="645.6751" y1="804.4602" y2="846.9479"/>
    <line x1="645.6333" x2="645.6333" y1="852.2122" y2="916.6794"/>
    <line x1="641.0533" x2="641.0533" y1="919.3236" y2="854.8564"/>
    <line x1="636.4734" x2="636.4734" y1="857.5007" y2="921.9679"/>
    <line x1="631.8935" x2="631.8935" y1="924.6121" y2="860.1449"/>
    <line x1="627.3135" x2="627.3135" y1="862.7891" y2="927.2563"/>
    <line x1="626.4941" x2="626.4941" y1="931.1193" y2="962.3247"/>
    <line x1="628.9324" x2="628.9324" y1="963.7324" y2="932.527"/>
    <line x1="631.3707" x2="631.3707" y1="933.9347" y2="965.1401"/>
    <line x1="633.8089" x2="633.8089" y1="966.5479" y2="935.3425"/>
    <line x1="636.2472" x2="636.2472" y1="936.7502" y2="967.9556"/>
    <line x1="638.6855" x2="638.6855" y1="969.3634" y2="938.158"/>
    <line x1="641.1238" x2="641.1238" y1="939.5657" y2="970.7711"/>
    <line x1="643.562" x2="643.562" y1="972.1788" y2="940.9734"/>
    <line x1="646.0003" x2="683.104" y1="942.3812" y2="920.9594"/>
    <line x1="678.466" x2="678.466" y1="923.6371" y2="954.8425"/>
    <line x1="673.828" x2="673.828" y1="957.5202" y2="926.3148"/>
    <line x1="669.1901" x2="669.1901" y1="928.9925" y2="960.1979"/>
    <line x1="664.5521" x2="664.5521" y1="962.8757" y2="931.6703"/>
    <line x1="659.9142" x2="659.9142" y1="934.348" y2="965.5534"/>
    <line x1="655.2762" x2="655.2762" y1="968.2311" y2="937.0257"/>
    <line x1="650.6383" x2="650.6383" y1="939.7034" y2="970.9088"/>
    <polyline points="646.0003,973.5866 609.4262,952.4705 609.4262,937.5836"/>
    <line x1="608.9938" x2="608.9938" y1="937.8332" y2="873.366"/>
    <line x1="613.5737" x2="613.5737" y1="870.7218" y2="935.189"/>
    <line x1="614.3027" x2="614.3027" y1="934.7681" y2="955.286"/>
    <line x1="611.8644" x2="611.8644" y1="953.8782" y2="936.1758"/>
    <line x1="616.741" x2="616.741" y1="933.3604" y2="956.6937"/>
    <line x1="619.1793" x2="619.1793" y1="958.1014" y2="931.9526"/>
    <line x1="618.1537" x2="618.1537" y1="932.5448" y2="868.0776"/>
    <line x1="622.7336" x2="622.7336" y1="865.4333" y2="929.9005"/>
    <polyline points="623.5584,929.4243 646.0003,942.3812 646.0003,973.5866 683.104,952.1648 683.104,920.9594 650.2132,901.9699"/>
    <line x1="624.0558" x2="624.0558" y1="929.7115" y2="960.9169"/>
    <line x1="621.6176" x2="621.6176" y1="959.5092" y2="930.5449"/>
    <line x1="604.4139" x2="604.4139" y1="940.4774" y2="876.0103"/>
    <line x1="599.8339" x2="599.8339" y1="878.6545" y2="943.1217"/>
    <line x1="595.254" x2="595.254" y1="945.7659" y2="881.2987"/>
    <line x1="590.674" x2="590.674" y1="883.9429" y2="948.4101"/>
    <line x1="581.4699" x2="581.4699" y1="948.3846" y2="883.9174"/>
    <line x1="579.1578" x2="579.1578" y1="882.5825" y2="947.0497"/>
    <line x1="576.8457" x2="576.8457" y1="945.7148" y2="881.2476"/>
    <line x1="574.5336" x2="574.5336" y1="879.9127" y2="944.3799"/>
    <line x1="572.2215" x2="572.2215" y1="943.045" y2="878.5778"/>
    <line x1="569.9094" x2="569.9094" y1="877.2429" y2="941.7101"/>
    <line x1="567.5973" x2="567.5973" y1="940.3752" y2="875.908"/>
    <line x1="565.2852" x2="565.2852" y1="874.5731" y2="939.0403"/>
    <line x1="562.9731" x2="562.9731" y1="937.7054" y2="873.2382"/>
    <line x1="560.6609" x2="560.6609" y1="871.9033" y2="936.3705"/>
    <polyline points="597.9003,845.0636 538.7476,810.9118 538.7476,750.8782 601.5995,714.5907 694.0227,767.9513 694.0227,780.1308"/>
    <line x1="694.7292" x2="694.7292" y1="785.263" y2="823.333"/>
    <polyline points="694.0227,823.7409 694.0227,827.9848 650.2132,853.2782"/>
    <line x1="655.3446" x2="655.3446" y1="850.3156" y2="810.0429"/>
    <line x1="654.968" x2="654.968" y1="809.8254" y2="771.7554"/>
    <line x1="652.5388" x2="652.5388" y1="770.3529" y2="808.423"/>
    <line x1="657.3971" x2="657.3971" y1="811.2279" y2="773.1578"/>
    <line x1="659.8262" x2="659.8262" y1="774.5603" y2="812.6303"/>
    <line x1="660.1794" x2="660.1794" y1="812.8342" y2="847.5242"/>
    <line x1="665.0142" x2="665.0142" y1="844.7329" y2="815.6256"/>
    <line x1="664.6844" x2="664.6844" y1="815.4352" y2="777.3652"/>
    <line x1="667.1135" x2="667.1135" y1="778.7676" y2="816.8377"/>
    <line x1="669.5427" x2="669.5427" y1="818.2401" y2="780.1701"/>
    <line x1="671.9718" x2="671.9718" y1="781.5725" y2="819.6426"/>
    <line x1="669.8489" x2="669.8489" y1="818.4169" y2="841.9415"/>
    <line x1="674.6837" x2="674.6837" y1="839.1502" y2="821.2083"/>
    <line x1="674.4009" x2="674.4009" y1="821.045" y2="782.975"/>
    <line x1="676.83" x2="676.83" y1="784.3775" y2="822.4475"/>
    <line x1="679.2591" x2="679.2591" y1="823.8499" y2="785.7799"/>
    <line x1="681.6882" x2="681.6882" y1="787.1824" y2="825.2524"/>
    <line x1="679.5184" x2="679.5184" y1="823.9996" y2="836.3588"/>
    <line x1="684.3532" x2="684.3532" y1="833.5675" y2="826.791"/>
    <line x1="684.1174" x2="684.1174" y1="826.6548" y2="788.5848"/>
    <line x1="686.5465" x2="698.8205" y1="789.9873" y2="782.9008"/>
    <line x1="690.6378" x2="690.6378" y1="787.6251" y2="825.6951"/>
    <line x1="689.1879" x2="689.1879" y1="826.5322" y2="830.7761"/>
    <polyline points="686.5465,828.0573 698.8205,820.9709 698.8205,782.9008 650.2382,754.8518 637.9642,761.9382 637.9642,800.0083 686.5465,828.0573 686.5465,789.9873 637.9642,761.9382"/>
    <line x1="640.3933" x2="640.3933" y1="763.3407" y2="801.4107"/>
    <line x1="640.8404" x2="640.8404" y1="801.6688" y2="844.1566"/>
    <line x1="636.0056" x2="636.0056" y1="841.3652" y2="801.4474"/>
    <line x1="638.2313" x2="631.1709" y1="800.1625" y2="804.2388"/>
    <line x1="628.7387" x2="628.7387" y1="802.8346" y2="837.1697"/>
    <line x1="626.3065" x2="626.3065" y1="835.7654" y2="801.4303"/>
    <line x1="623.8743" x2="623.8743" y1="800.0261" y2="834.3612"/>
    <line x1="621.4421" x2="621.4421" y1="832.957" y2="798.6219"/>
    <line x1="619.0099" x2="619.0099" y1="797.2177" y2="832.8759"/>
    <line x1="616.5777" x2="616.5777" y1="834.2802" y2="795.8134"/>
    <line x1="614.1455" x2="614.1455" y1="794.4092" y2="835.6844"/>
    <line x1="611.7133" x2="611.7133" y1="837.0886" y2="793.005"/>
    <line x1="609.2812" x2="609.2812" y1="791.6008" y2="838.4928"/>
    <line x1="606.849" x2="606.849" y1="839.8971" y2="790.1965"/>
    <line x1="604.4168" x2="604.4168" y1="788.7923" y2="841.3013"/>
    <line x1="601.9846" x2="601.9846" y1="842.7055" y2="787.3881"/>
    <line x1="599.5524" x2="599.5524" y1="785.9839" y2="844.1098"/>
    <line x1="597.1202" x2="597.1202" y1="844.6132" y2="784.5796"/>
    <line x1="594.688" x2="594.688" y1="783.1754" y2="843.2089"/>
    <line x1="592.2558" x2="592.2558" y1="841.8047" y2="781.7712"/>
    <line x1="589.8236" x2="589.8236" y1="780.367" y2="840.4005"/>
    <line x1="587.3914" x2="587.3914" y1="838.9963" y2="778.9627"/>
    <line x1="584.9593" x2="584.9593" y1="777.5585" y2="837.592"/>
    <line x1="582.5271" x2="582.5271" y1="836.1878" y2="776.1543"/>
    <line x1="580.0949" x2="580.0949" y1="774.7501" y2="834.7836"/>
    <line x1="577.6627" x2="577.6627" y1="833.3794" y2="773.3458"/>
    <line x1="575.2305" x2="575.2305" y1="771.9416" y2="831.9751"/>
    <line x1="572.7983" x2="572.7983" y1="830.5709" y2="770.5374"/>
    <line x1="570.3661" x2="570.3661" y1="769.1332" y2="829.1667"/>
    <line x1="567.9339" x2="567.9339" y1="827.7625" y2="767.7289"/>
    <line x1="565.5017" x2="565.5017" y1="766.3247" y2="826.3582"/>
    <line x1="563.0695" x2="563.0695" y1="824.954" y2="764.9205"/>
    <line x1="560.6374" x2="560.6374" y1="763.5162" y2="823.5498"/>
    <line x1="558.2052" x2="558.2052" y1="822.1456" y2="762.112"/>
    <line x1="555.773" x2="555.773" y1="760.7078" y2="820.7413"/>
    <line x1="553.3408" x2="553.3408" y1="819.3371" y2="759.3036"/>
    <line x1="550.9086" x2="550.9086" y1="757.8993" y2="817.9329"/>
    <line x1="548.4764" x2="548.4764" y1="816.5287" y2="756.4951"/>
    <line x1="546.0442" x2="546.0442" y1="755.0909" y2="815.1244"/>
    <line x1="543.612" x2="543.612" y1="813.7202" y2="753.6867"/>
    <line x1="541.1798" x2="541.1798" y1="752.2824" y2="812.316"/>
    <line x1="531.573" x2="531.573" y1="811.2024" y2="788.1748"/>
    <line x1="527.7644" x2="527.7644" y1="790.3737" y2="813.4013"/>
    <polyline points="523.9559,815.6002 535.3816,809.0036 535.3816,785.9759 520.7142,777.5077 509.2885,784.1043 509.2885,807.132 523.9559,815.6002 523.9559,792.5725 509.2885,784.1043"/>
    <line x1="511.733" x2="511.733" y1="785.5157" y2="808.5433"/>
    <line x1="514.1776" x2="514.1776" y1="809.9547" y2="786.9271"/>
    <line x1="516.6222" x2="516.6222" y1="788.3384" y2="811.3661"/>
    <line x1="519.0667" x2="519.0667" y1="812.7774" y2="789.7498"/>
    <line x1="521.5113" x2="521.5113" y1="791.1612" y2="814.1888"/>
    <line x1="523.9559" x2="535.3816" y1="792.5725" y2="785.9759"/>
    <polyline points="538.7476,750.8782 631.1709,804.2388 631.1709,838.5739"/>
    <line x1="645.2515" x2="645.2515" y1="804.2156" y2="766.1456"/>
    <line x1="642.8224" x2="642.8224" y1="764.7431" y2="802.8132"/>
    <line x1="662.2553" x2="662.2553" y1="814.0328" y2="775.9627"/>
    <line x1="683.4749" x2="694.0227" y1="774.041" y2="767.9513"/>
    <line x1="689.1879" x2="689.1879" y1="770.7426" y2="777.3395"/>
    <line x1="684.3532" x2="684.3532" y1="774.5481" y2="773.534"/>
    <line x1="628.1301" x2="628.1301" y1="687.4029" y2="631.6514"/>
    <line x1="632.847" x2="576.2441" y1="628.9281" y2="661.6078"/>
    <line x1="573.9473" x2="573.9473" y1="660.2817" y2="716.0332"/>
    <line x1="571.6504" x2="571.6504" y1="714.7071" y2="658.9556"/>
    <line x1="569.3536" x2="569.3536" y1="657.6295" y2="713.381"/>
    <line x1="567.0567" x2="567.0567" y1="712.0549" y2="656.3034"/>
    <line x1="564.7599" x2="564.7599" y1="654.9773" y2="710.7289"/>
    <line x1="562.463" x2="562.463" y1="709.4028" y2="653.6512"/>
    <line x1="560.1662" x2="560.1662" y1="652.3252" y2="708.0767"/>
    <line x1="557.8693" x2="557.8693" y1="706.7506" y2="650.9991"/>
    <line x1="555.5725" x2="555.5725" y1="649.673" y2="705.4245"/>
    <line x1="553.2756" x2="553.2756" y1="704.0984" y2="648.3469"/>
    <polyline points="550.9788,647.0208 576.2441,661.6078 576.2441,717.3593 550.9788,702.7723 550.9788,647.0208 607.5816,614.3411 632.847,628.9281 632.847,684.6796 576.2441,717.3593"/>
    <line x1="580.961" x2="580.961" y1="714.636" y2="658.8844"/>
    <line x1="585.6779" x2="585.6779" y1="656.1611" y2="711.9127"/>
    <line x1="590.3948" x2="590.3948" y1="709.1894" y2="653.4378"/>
    <line x1="595.1117" x2="595.1117" y1="650.7145" y2="706.4661"/>
    <line x1="599.8286" x2="599.8286" y1="703.7428" y2="647.9912"/>
    <line x1="604.5455" x2="604.5455" y1="645.2679" y2="701.0194"/>
    <line x1="609.2625" x2="609.2625" y1="698.2961" y2="642.5446"/>
    <line x1="613.9794" x2="613.9794" y1="639.8213" y2="695.5728"/>
    <line x1="618.6963" x2="618.6963" y1="692.8495" y2="637.098"/>
    <line x1="623.4132" x2="623.4132" y1="634.3747" y2="690.1262"/>
    <line x1="657.4581" x2="657.4581" y1="628.7288" y2="617.5142"/>
    <line x1="655.3105" x2="655.3105" y1="616.2743" y2="627.4889"/>
    <line x1="653.1629" x2="653.1629" y1="626.249" y2="615.0344"/>
    <line x1="651.0153" x2="663.9008" y1="613.7945" y2="621.2339"/>
    <line x1="661.7532" x2="661.7532" y1="619.994" y2="631.2086"/>
    <polyline points="663.9008,632.4485 675.7822,625.5888 675.7822,614.3742 662.8967,606.9348 651.0153,613.7945 651.0153,625.0091 663.9008,632.4485 663.9008,621.2339 675.7822,614.3742"/>
    <line x1="671.8217" x2="671.8217" y1="616.6608" y2="627.8754"/>
    <line x1="667.8612" x2="667.8612" y1="630.1619" y2="618.9473"/>
    <line x1="659.6056" x2="659.6056" y1="618.7541" y2="629.9687"/>
    <polyline points="562.346,640.4579 518.543,615.1682 484.8589,634.6158 484.8589,669.3561 537.6146,699.8146"/>
    <line x1="535.2166" x2="535.2166" y1="698.4301" y2="663.6898"/>
    <line x1="532.8186" x2="532.8186" y1="662.3053" y2="697.0456"/>
    <line x1="530.4206" x2="530.4206" y1="695.6611" y2="660.9208"/>
    <line x1="528.0226" x2="528.0226" y1="659.5364" y2="694.2767"/>
    <line x1="525.6246" x2="525.6246" y1="692.8922" y2="658.1519"/>
    <line x1="523.2267" x2="523.2267" y1="656.7674" y2="691.5077"/>
    <line x1="520.8287" x2="520.8287" y1="690.1232" y2="655.3829"/>
    <line x1="518.4307" x2="518.4307" y1="653.9985" y2="688.7387"/>
    <line x1="516.0327" x2="516.0327" y1="687.3543" y2="652.614"/>
    <line x1="513.6347" x2="513.6347" y1="651.2295" y2="685.9698"/>
    <line x1="511.2367" x2="511.2367" y1="684.5853" y2="649.845"/>
    <line x1="508.8387" x2="508.8387" y1="648.4605" y2="683.2008"/>
    <line x1="506.4408" x2="506.4408" y1="681.8164" y2="647.0761"/>
    <line x1="504.0428" x2="504.0428" y1="645.6916" y2="680.4319"/>
    <line x1="501.6448" x2="501.6448" y1="679.0474" y2="644.3071"/>
    <line x1="499.2468" x2="499.2468" y1="642.9226" y2="677.6629"/>
    <line x1="496.8488" x2="496.8488" y1="676.2784" y2="641.5382"/>
    <line x1="494.4508" x2="494.4508" y1="640.1537" y2="674.894"/>
    <line x1="492.0528" x2="492.0528" y1="673.5095" y2="638.7692"/>
    <line x1="489.6548" x2="489.6548" y1="637.3847" y2="672.125"/>
    <line x1="487.2569" x2="487.2569" y1="670.7405" y2="636.0002"/>
    <line x1="484.8589" x2="537.6146" y1="634.6158" y2="665.0743"/>
    <line x1="542.4266" x2="542.4266" y1="662.2961" y2="697.0363"/>
    <line x1="547.2386" x2="547.2386" y1="694.2581" y2="659.5178"/>
    <polyline points="550.9788,657.3585 537.6146,665.0743 537.6146,699.8146 550.9788,692.0987"/>
    <line x1="389.3407" x2="387.0318" y1="672.7599" y2="671.4269"/>
    <line x1="378.179" x2="378.179" y1="665.9538" y2="679.2041"/>
    <line x1="474.9563" x2="474.9563" y1="513.4733" y2="475.02"/>
    <line x1="477.308" x2="477.308" y1="476.3777" y2="514.8311"/>
    <line x1="479.6597" x2="479.6597" y1="516.1888" y2="477.7355"/>
    <line x1="482.0114" x2="482.0114" y1="479.0932" y2="517.5466"/>
    <line x1="484.3631" x2="484.3631" y1="518.9043" y2="480.451"/>
    <line x1="486.7147" x2="486.7147" y1="481.8087" y2="520.2621"/>
    <line x1="489.0664" x2="489.0664" y1="521.6198" y2="483.1665"/>
    <line x1="491.4181" x2="491.4181" y1="484.5242" y2="522.9776"/>
    <line x1="424.6174" x2="435.0722" y1="65.6459" y2="59.6099"/>
  </g>
</svg>
