<?xml version="1.0" encoding="utf-8" ?>
<svg xmlns="http://www.w3.org/2000/svg" xmlns:cc="http://creativecommons.org/ns#" xmlns:dc="http://purl.org/dc/elements/1.1/" xmlns:ev="http://www.w3.org/2001/xml-events" xmlns:inkscape="http://www.inkscape.org/namespaces/inkscape" xmlns:rdf="http://www.w3.org/1999/02/22-rdf-syntax-ns#" xmlns:sodipodi="http://sodipodi.sourceforge.net/DTD/sodipodi-0.dtd" xmlns:xlink="http://www.w3.org/1999/xlink" baseProfile="tiny" height="29.7cm" version="1.2" viewBox="0 0 793.7007874015749 1122.5196850393702" width="21.0cm">
  <metadata>
    <rdf:RDF>
      <cc:Work>
        <dc:format>image/svg+xml</dc:format>
        <dc:source/>
        <dc:date>2021-12-10T23:13:15.270441</dc:date>
      </cc:Work>
    </rdf:RDF>
  </metadata>
  <defs/>
  <g fill="none" id="layer1" inkscape:groupmode="layer" inkscape:label="1" stroke="#00f" style="display:inline">
    <polyline points="374.4111,482.2124 374.4111,483.991 341.1897,503.1713"/>
    <line x1="340.989" x2="341.124" y1="503.0554" y2="352.0766"/>
    <line x1="340.4525" x2="332.0724" y1="350.1614" y2="345.3232"/>
    <polyline points="332.0724,346.8506 345.9492,354.8624 345.9492,430.8799 332.0724,422.8682"/>
    <line x1="334.0324" x2="333.8862" y1="425.7621" y2="347.8978"/>
    <line x1="334.0383" x2="334.0383" y1="346.4582" y2="289.4217"/>
    <line x1="336.1764" x2="336.1764" y1="290.6561" y2="347.6926"/>
    <line x1="336.2988" x2="336.2988" y1="349.2908" y2="425.3083"/>
    <polyline points="336.0899,425.1877 336.0899,464.8495 370.2872,484.5933"/>
    <line x1="369.6365" x2="369.6365" y1="484.2176" y2="486.7476"/>
    <line x1="367.8445" x2="367.8445" y1="483.183" y2="418.2386"/>
    <line x1="362.9592" x2="362.9592" y1="421.0592" y2="480.3625"/>
    <line x1="364.8619" x2="364.8619" y1="481.461" y2="489.5042"/>
    <line x1="360.0873" x2="360.0873" y1="492.2608" y2="478.7044"/>
    <line x1="360.5166" x2="360.4589" y1="478.9522" y2="346.4852"/>
    <line x1="355.6224" x2="355.6312" y1="349.2776" y2="476.1316"/>
    <line x1="355.3127" x2="355.3127" y1="475.9478" y2="495.0174"/>
    <line x1="350.5382" x2="350.5382" y1="497.774" y2="473.1912"/>
    <line x1="350.7459" x2="350.7858" y1="473.3111" y2="352.07"/>
    <line x1="345.9492" x2="442.6807" y1="354.8624" y2="299.0145"/>
    <line x1="446.8082" x2="446.8082" y1="297.8029" y2="283.3024"/>
    <line x1="449.2318" x2="449.2318" y1="284.7016" y2="299.2021"/>
    <line x1="448.216" x2="448.1197" y1="298.6157" y2="367.3261"/>
    <polyline points="448.538,367.0847 448.538,388.1362 456.6682,383.4422"/>
    <line x1="452.8904" x2="452.9085" y1="385.6233" y2="301.3249"/>
    <line x1="454.0788" x2="454.0788" y1="302.0006" y2="287.5"/>
    <line x1="451.6553" x2="451.6553" y1="286.1008" y2="300.6014"/>
    <line x1="456.5023" x2="456.5023" y1="303.3998" y2="288.8992"/>
    <line x1="458.9258" x2="458.9258" y1="290.2985" y2="304.799"/>
    <line x1="457.6011" x2="457.6011" y1="304.0342" y2="358.4378"/>
    <polyline points="456.6682,358.9764 456.6682,424.118 462.4114,427.4339 401.3764,462.6458"/>
    <line x1="396.9351" x2="396.9351" y1="469.2081" y2="401.4432"/>
    <line x1="399.1515" x2="399.1515" y1="400.1636" y2="324.1461"/>
    <line x1="394.3149" x2="394.3149" y1="326.9385" y2="402.956"/>
    <line x1="392.4938" x2="392.4938" y1="404.0074" y2="471.7723"/>
    <line x1="388.0525" x2="388.0525" y1="474.3365" y2="406.5716"/>
    <line x1="389.4784" x2="389.4784" y1="405.7484" y2="329.7309"/>
    <line x1="388.8733" x2="388.8733" y1="329.3868" y2="320.2627"/>
    <line x1="387.2056" x2="387.2056" y1="321.2255" y2="256.5254"/>
    <line x1="391.5708" x2="391.5708" y1="254.0052" y2="318.7053"/>
    <line x1="393.2155" x2="393.2155" y1="317.7557" y2="326.8798"/>
    <line x1="384.531" x2="384.531" y1="322.7697" y2="331.8938"/>
    <line x1="384.6418" x2="384.6418" y1="332.5232" y2="408.5408"/>
    <line x1="383.6112" x2="383.6112" y1="409.1358" y2="476.9007"/>
    <polyline points="384.8624,476.3176 434.6615,505.0692 434.6615,590.3326 495.8822,554.9868 495.8822,481.6037"/>
    <line x1="496.8268" x2="496.8268" y1="482.149" y2="470.9935"/>
    <line x1="494.4385" x2="494.4385" y1="469.6146" y2="480.7701"/>
    <line x1="492.0501" x2="492.0501" y1="479.3912" y2="468.2357"/>
    <line x1="489.6618" x2="489.6618" y1="466.8568" y2="478.0123"/>
    <line x1="491.1729" x2="491.1729" y1="478.8848" y2="557.7057"/>
    <line x1="491.7276" x2="491.7909" y1="557.3855" y2="604.8377"/>
    <line x1="489.3505" x2="489.2814" y1="603.4287" y2="558.7978"/>
    <line x1="486.8352" x2="486.91" y1="560.2101" y2="602.0197"/>
    <line x1="484.4696" x2="484.389" y1="600.6107" y2="561.6225"/>
    <line x1="486.4637" x2="486.4637" y1="560.4246" y2="476.1659"/>
    <line x1="487.2735" x2="487.2735" y1="476.6334" y2="465.4779"/>
    <line x1="484.8852" x2="484.8852" y1="464.099" y2="475.2545"/>
    <line x1="485.5936" x2="434.6615" y1="475.6635" y2="505.0692"/>
    <line x1="432.2902" x2="432.2902" y1="503.7" y2="588.9635"/>
    <line x1="434.6615" x2="404.3205" y1="590.3326" y2="572.8152"/>
    <line x1="406.2049" x2="406.2049" y1="573.9032" y2="488.6397"/>
    <line x1="408.5763" x2="408.5763" y1="490.0088" y2="575.2723"/>
    <line x1="410.9477" x2="410.9477" y1="576.6414" y2="491.378"/>
    <line x1="413.3191" x2="413.3191" y1="492.7471" y2="578.0105"/>
    <line x1="415.6904" x2="415.6904" y1="579.3796" y2="494.1162"/>
    <line x1="418.0618" x2="418.0618" y1="495.4853" y2="580.7488"/>
    <line x1="420.4332" x2="420.4332" y1="582.1179" y2="496.8544"/>
    <line x1="422.8046" x2="422.8046" y1="498.2236" y2="583.487"/>
    <line x1="425.176" x2="425.176" y1="584.8561" y2="499.5927"/>
    <line x1="427.5474" x2="427.5474" y1="500.9618" y2="586.2252"/>
    <line x1="429.9188" x2="429.9188" y1="587.5944" y2="502.3309"/>
    <line x1="439.3708" x2="439.3708" y1="502.3503" y2="587.6137"/>
    <line x1="444.0801" x2="444.0801" y1="584.8948" y2="499.6314"/>
    <line x1="448.7894" x2="448.7894" y1="496.9124" y2="582.1759"/>
    <line x1="450.6645" x2="523.5166" y1="581.0933" y2="623.1545"/>
    <line x1="521.0762" x2="521.0819" y1="621.7455" y2="501.3326"/>
    <line x1="518.6357" x2="518.6357" y1="499.9203" y2="620.3365"/>
    <line x1="516.1953" x2="516.1895" y1="618.9275" y2="498.5079"/>
    <line x1="513.7433" x2="513.7549" y1="497.0956" y2="617.5186"/>
    <line x1="511.3144" x2="511.2971" y1="616.1096" y2="495.6833"/>
    <line x1="508.8509" x2="508.874" y1="494.271" y2="614.7006"/>
    <line x1="506.4335" x2="506.4047" y1="613.2916" y2="492.8587"/>
    <line x1="503.9585" x2="503.9931" y1="491.4464" y2="611.8826"/>
    <line x1="503.3658" x2="503.3658" y1="611.5204" y2="656.1478"/>
    <line x1="500.5587" x2="500.5587" y1="660.5568" y2="680.4739"/>
    <line x1="498.7775" x2="498.7775" y1="679.4455" y2="687.5131"/>
    <line x1="494.1891" x2="494.1891" y1="690.1622" y2="613.9079"/>
    <line x1="498.7775" x2="498.7775" y1="611.2588" y2="658.7968"/>
    <polyline points="498.144,659.1626 570.5869,700.9875 570.5869,720.9047 646.8409,676.8794 646.8409,671.8206"/>
    <polyline points="646.1989,671.9421 646.1989,672.1913 737.3685,619.5545 737.3685,579.7167 677.9816,545.4296 586.8119,598.0664 586.8119,637.9042 594.7312,642.4764"/>
    <line x1="593.9384" x2="593.9384" y1="642.0187" y2="602.1808"/>
    <line x1="591.5629" x2="591.5629" y1="600.8094" y2="640.6472"/>
    <line x1="589.1874" x2="589.1874" y1="639.2757" y2="599.4379"/>
    <line x1="586.8119" x2="646.1989" y1="598.0664" y2="632.3535"/>
    <line x1="643.8234" x2="643.8234" y1="630.982" y2="634.4989"/>
    <line x1="641.4479" x2="641.4479" y1="633.1274" y2="629.6105"/>
    <line x1="639.0724" x2="639.0724" y1="628.239" y2="631.7559"/>
    <line x1="636.697" x2="636.697" y1="630.3844" y2="626.8675"/>
    <line x1="634.3215" x2="634.3215" y1="625.496" y2="629.0129"/>
    <line x1="631.946" x2="631.946" y1="627.6414" y2="624.1246"/>
    <line x1="629.5705" x2="629.5705" y1="622.7531" y2="626.27"/>
    <line x1="627.1951" x2="627.1951" y1="624.8985" y2="621.3816"/>
    <line x1="624.8196" x2="624.8196" y1="620.0101" y2="625.1049"/>
    <line x1="622.4441" x2="622.4441" y1="626.4764" y2="618.6386"/>
    <line x1="620.0686" x2="620.0686" y1="617.2672" y2="627.8478"/>
    <line x1="617.6931" x2="617.6931" y1="629.2193" y2="615.8957"/>
    <line x1="615.3177" x2="615.3177" y1="614.5242" y2="630.5908"/>
    <line x1="612.9422" x2="612.9422" y1="631.9623" y2="613.1527"/>
    <line x1="610.5667" x2="610.5667" y1="611.7812" y2="633.3338"/>
    <line x1="608.1912" x2="608.1912" y1="634.7053" y2="610.4097"/>
    <line x1="605.8158" x2="605.8158" y1="609.0383" y2="636.0767"/>
    <line x1="603.4403" x2="603.4403" y1="637.4482" y2="607.6668"/>
    <line x1="601.0648" x2="601.0648" y1="606.2953" y2="638.8197"/>
    <line x1="598.6893" x2="598.6893" y1="640.1912" y2="604.9238"/>
    <line x1="596.3138" x2="596.3138" y1="603.5523" y2="641.5627"/>
    <polyline points="586.8119,622.3044 574.398,615.1373 498.144,659.1626 498.144,679.0798 570.5869,720.9047"/>
    <line x1="568.1721" x2="568.1721" y1="719.5105" y2="699.5933"/>
    <line x1="570.5869" x2="584.3599" y1="700.9875" y2="693.0357"/>
    <line x1="584.8845" x2="584.8845" y1="693.3385" y2="712.65"/>
    <line x1="580.1186" x2="580.1186" y1="715.4015" y2="695.4843"/>
    <line x1="582.825" x2="582.825" y1="692.1495" y2="665.7319"/>
    <line x1="585.1895" x2="585.1895" y1="667.0971" y2="693.5146"/>
    <line x1="587.5539" x2="587.5539" y1="694.8797" y2="668.4622"/>
    <line x1="589.9184" x2="589.9184" y1="669.8273" y2="696.2449"/>
    <line x1="589.6504" x2="589.6504" y1="696.0901" y2="709.8984"/>
    <line x1="594.4163" x2="594.4163" y1="707.1468" y2="698.8417"/>
    <line x1="594.6473" x2="594.6473" y1="698.9751" y2="672.5576"/>
    <line x1="597.0118" x2="654.5596" y1="673.9227" y2="640.6974"/>
    <line x1="650.9973" x2="650.9973" y1="638.6407" y2="629.5831"/>
    <line x1="655.7957" x2="655.7957" y1="626.8127" y2="666.6506"/>
    <line x1="650.9973" x2="650.9973" y1="669.1717" y2="669.421"/>
    <line x1="649.764" x2="649.764" y1="669.8837" y2="643.4662"/>
    <line x1="644.9683" x2="644.9683" y1="646.235" y2="672.6525"/>
    <line x1="645.983" x2="646.1989" y1="672.0667" y2="672.1913"/>
    <line x1="642.0751" x2="642.0751" y1="674.323" y2="679.631"/>
    <line x1="640.1727" x2="640.1727" y1="675.4213" y2="649.0037"/>
    <line x1="635.377" x2="635.377" y1="651.7725" y2="678.1901"/>
    <line x1="637.3092" x2="637.3092" y1="677.0745" y2="682.3826"/>
    <line x1="632.5433" x2="632.5433" y1="679.8261" y2="685.1341"/>
    <line x1="630.5814" x2="630.5814" y1="680.9588" y2="654.5413"/>
    <line x1="625.7857" x2="625.7857" y1="657.3101" y2="683.7276"/>
    <line x1="627.7774" x2="627.7774" y1="682.5777" y2="687.8857"/>
    <line x1="623.0115" x2="623.0115" y1="685.3293" y2="690.6373"/>
    <line x1="620.9901" x2="620.9901" y1="686.4964" y2="660.0788"/>
    <line x1="616.1944" x2="616.1944" y1="662.8476" y2="689.2652"/>
    <line x1="618.2457" x2="618.2457" y1="688.0809" y2="693.3889"/>
    <line x1="613.4798" x2="613.4798" y1="690.8324" y2="696.1405"/>
    <line x1="611.3988" x2="611.3988" y1="692.0339" y2="665.6164"/>
    <line x1="606.6031" x2="606.6031" y1="668.3852" y2="694.8027"/>
    <line x1="608.7139" x2="608.7139" y1="693.584" y2="698.892"/>
    <line x1="603.948" x2="603.948" y1="696.3356" y2="701.6436"/>
    <line x1="601.8075" x2="601.8075" y1="697.5715" y2="671.1539"/>
    <line x1="592.2829" x2="592.2829" y1="671.1924" y2="697.61"/>
    <polyline points="597.0118,700.3402 654.5596,667.115 654.5596,640.6974 626.1861,624.3159 568.6382,657.5412 568.6382,683.9587 597.0118,700.3402 597.0118,673.9227 568.6382,657.5412"/>
    <line x1="571.0027" x2="571.0027" y1="658.9063" y2="685.3239"/>
    <line x1="573.3671" x2="573.3671" y1="686.689" y2="660.2715"/>
    <line x1="575.7316" x2="575.7316" y1="661.6366" y2="688.0541"/>
    <line x1="578.0961" x2="578.0961" y1="689.4192" y2="663.0017"/>
    <line x1="580.4605" x2="580.4605" y1="664.3668" y2="690.7844"/>
    <line x1="575.3527" x2="575.3527" y1="698.2359" y2="718.1531"/>
    <line x1="565.7573" x2="565.7573" y1="718.1164" y2="698.1992"/>
    <line x1="563.3426" x2="563.3426" y1="696.805" y2="716.7222"/>
    <line x1="560.9278" x2="560.9278" y1="715.328" y2="695.4109"/>
    <line x1="558.5131" x2="558.5131" y1="694.0167" y2="713.9339"/>
    <line x1="556.0983" x2="556.0983" y1="712.5397" y2="692.6225"/>
    <line x1="553.6835" x2="553.6835" y1="691.2284" y2="711.1456"/>
    <line x1="551.2688" x2="551.2688" y1="709.7514" y2="689.8342"/>
    <line x1="548.854" x2="548.854" y1="688.44" y2="708.3572"/>
    <line x1="546.4392" x2="546.4392" y1="706.9631" y2="687.0459"/>
    <line x1="544.0245" x2="544.0245" y1="685.6517" y2="705.5689"/>
    <line x1="541.6097" x2="541.6097" y1="704.1747" y2="684.2575"/>
    <line x1="539.1949" x2="539.1949" y1="682.8634" y2="702.7806"/>
    <line x1="536.7802" x2="536.7802" y1="701.3864" y2="681.4692"/>
    <line x1="534.3654" x2="534.3654" y1="680.075" y2="699.9922"/>
    <line x1="531.9507" x2="531.9507" y1="698.5981" y2="678.6809"/>
    <line x1="529.5359" x2="529.5359" y1="677.2867" y2="697.2039"/>
    <line x1="527.1211" x2="527.1211" y1="695.8097" y2="675.8926"/>
    <line x1="524.7064" x2="524.7064" y1="674.4984" y2="694.4156"/>
    <line x1="522.2916" x2="522.2916" y1="693.0214" y2="673.1042"/>
    <line x1="519.8768" x2="519.8768" y1="671.7101" y2="691.6273"/>
    <line x1="517.4621" x2="517.4621" y1="690.2331" y2="670.3159"/>
    <line x1="515.0473" x2="515.0473" y1="668.9217" y2="688.8389"/>
    <line x1="512.6326" x2="512.6326" y1="687.4448" y2="667.5276"/>
    <line x1="510.2178" x2="510.2178" y1="666.1334" y2="686.0506"/>
    <line x1="507.803" x2="507.803" y1="684.6564" y2="664.7392"/>
    <line x1="505.3883" x2="505.3883" y1="663.3451" y2="683.2623"/>
    <polyline points="503.3658,682.0946 503.3658,684.864 471.2473,703.4076 471.2473,627.1533 500.8451,610.0651"/>
    <line x1="501.5527" x2="501.5123" y1="610.4736" y2="490.0341"/>
    <line x1="499.0661" x2="499.1122" y1="488.6218" y2="609.0646"/>
    <line x1="496.6718" x2="496.6199" y1="607.6556" y2="487.2095"/>
    <polyline points="495.8822,486.7835 545.5438,515.4557 545.5438,617.4329 641.9258,561.7867 641.9258,459.8095 583.8484,426.2785"/>
    <line x1="583.8484" x2="650.7929" y1="423.8568" y2="385.2064"/>
    <line x1="646.0102" x2="646.0102" y1="387.9676" y2="466.7446"/>
    <polyline points="641.9258,469.1028 650.7929,463.9834 650.7929,385.2064 633.3573,375.1399"/>
    <line x1="635.3445" x2="635.3445" y1="373.9926" y2="293.0906"/>
    <line x1="639.7674" x2="639.7674" y1="290.5371" y2="371.439"/>
    <line x1="644.1902" x2="644.1902" y1="368.8855" y2="287.9836"/>
    <line x1="648.6131" x2="648.6131" y1="285.43" y2="366.3319"/>
    <line x1="653.0359" x2="653.0359" y1="363.7784" y2="282.8765"/>
    <line x1="657.4588" x2="657.4588" y1="280.323" y2="361.2249"/>
    <line x1="661.8817" x2="661.8817" y1="358.6713" y2="277.7694"/>
    <line x1="666.3045" x2="666.3045" y1="275.2159" y2="356.1178"/>
    <polyline points="630.9217,376.5461 600.1371,358.7726 600.1371,288.9474"/>
    <line x1="601.0166" x2="601.0166" y1="288.4396" y2="206.8696"/>
    <line x1="605.6759" x2="605.6759" y1="204.1796" y2="285.7496"/>
    <line x1="604.8732" x2="604.8732" y1="286.213" y2="361.507"/>
    <line x1="607.2412" x2="607.2412" y1="362.8742" y2="284.8458"/>
    <line x1="610.3352" x2="610.3352" y1="283.0596" y2="201.4895"/>
    <line x1="612.2102" x2="612.2102" y1="197.192" y2="169.9982"/>
    <line x1="609.7787" x2="609.7787" y1="168.5943" y2="195.7882"/>
    <line x1="607.3472" x2="607.3472" y1="194.3844" y2="167.1905"/>
    <line x1="604.9157" x2="604.9157" y1="165.7867" y2="192.9805"/>
    <line x1="602.4842" x2="602.4842" y1="191.5767" y2="164.3829"/>
    <line x1="600.0528" x2="600.0528" y1="162.9791" y2="190.1729"/>
    <line x1="597.6213" x2="597.6213" y1="188.7691" y2="161.5753"/>
    <line x1="595.1898" x2="595.1898" y1="160.1714" y2="187.3653"/>
    <line x1="592.7583" x2="592.7583" y1="185.9614" y2="158.7676"/>
    <line x1="590.3268" x2="590.3268" y1="157.3638" y2="184.5576"/>
    <line x1="587.8953" x2="587.8953" y1="183.1538" y2="155.96"/>
    <line x1="585.4639" x2="585.4639" y1="154.5562" y2="181.75"/>
    <line x1="583.0324" x2="583.0324" y1="180.3462" y2="153.1523"/>
    <line x1="580.6009" x2="580.6009" y1="151.7485" y2="178.9424"/>
    <line x1="578.1694" x2="578.1694" y1="177.5385" y2="150.3447"/>
    <line x1="575.7379" x2="575.7379" y1="148.9409" y2="176.1347"/>
    <polyline points="573.3064,174.7309 573.3064,147.5371 589.9025,137.9554 636.1007,164.6279 636.1007,261.9126 619.5046,271.4943 619.5046,174.2096 636.1007,164.6279"/>
    <line x1="631.9517" x2="631.9517" y1="167.0233" y2="264.308"/>
    <line x1="627.8026" x2="627.8026" y1="266.7034" y2="169.4188"/>
    <line x1="623.6536" x2="623.6536" y1="171.8142" y2="269.0989"/>
    <line x1="619.5046" x2="614.9945" y1="271.4943" y2="268.8903"/>
    <line x1="614.9945" x2="615.343" y1="269.2928" y2="269.0915"/>
    <line x1="617.0732" x2="617.0732" y1="270.0905" y2="172.8058"/>
    <line x1="619.5046" x2="573.3064" y1="174.2096" y2="147.5371"/>
    <polyline points="573.3064,153.5132 536.1382,132.0541 503.7873,150.7319"/>
    <polyline points="507.3459,152.7865 425.9915,199.7565 425.9915,246.5298 477.0267,217.0646"/>
    <line x1="476.3813" x2="476.3813" y1="217.4372" y2="236.6793"/>
    <polyline points="477.0267,237.0519 474.0143,235.3127 474.0143,218.8038"/>
    <line x1="473.847" x2="473.847" y1="218.9004" y2="172.1271"/>
    <polyline points="477.0267,172.9447 568.4015,225.7 568.4015,307.27 477.0267,254.5147 477.0267,172.9447 523.6197,146.0442 614.9945,198.7995 614.9945,280.3695 568.4015,307.27"/>
    <line x1="565.9969" x2="565.9969" y1="305.8817" y2="224.3117"/>
    <line x1="563.5923" x2="563.5923" y1="222.9234" y2="304.4934"/>
    <line x1="561.1877" x2="561.1877" y1="303.1051" y2="221.5351"/>
    <line x1="558.7831" x2="558.7831" y1="220.1468" y2="301.7168"/>
    <line x1="556.3785" x2="556.3785" y1="300.3285" y2="218.7585"/>
    <line x1="553.9739" x2="553.9739" y1="217.3702" y2="298.9402"/>
    <line x1="551.5693" x2="551.5693" y1="297.5519" y2="215.9819"/>
    <line x1="549.1647" x2="549.1647" y1="214.5936" y2="296.1636"/>
    <line x1="546.7601" x2="546.7601" y1="294.7753" y2="213.2053"/>
    <line x1="544.3555" x2="544.3555" y1="211.817" y2="293.387"/>
    <line x1="541.9509" x2="541.9509" y1="291.9987" y2="210.4287"/>
    <line x1="539.5463" x2="539.5463" y1="209.0404" y2="290.6104"/>
    <line x1="537.1417" x2="537.1417" y1="289.2221" y2="207.6521"/>
    <line x1="534.7371" x2="534.7371" y1="206.2638" y2="287.8338"/>
    <line x1="532.3325" x2="532.3325" y1="286.4455" y2="204.8755"/>
    <line x1="529.9279" x2="529.9279" y1="203.4872" y2="285.0572"/>
    <line x1="527.5233" x2="527.5233" y1="283.6689" y2="202.0989"/>
    <line x1="525.1187" x2="525.1187" y1="200.7106" y2="282.2806"/>
    <line x1="522.7141" x2="522.7141" y1="280.8923" y2="199.3223"/>
    <line x1="520.3095" x2="520.3095" y1="197.934" y2="279.5041"/>
    <polyline points="518.604,278.5194 518.604,323.2178 442.6807,367.0522"/>
    <line x1="443.2628" x2="443.2628" y1="366.716" y2="370.1303"/>
    <line x1="443.6722" x2="443.6722" y1="369.8939" y2="385.3269"/>
    <line x1="446.1051" x2="446.1051" y1="386.7316" y2="368.4893"/>
    <line x1="443.5235" x2="443.5235" y1="366.5656" y2="280.2618"/>
    <polyline points="444.3847,281.9032 488.008,307.089 488.008,321.5896 444.3847,296.4037 444.3847,281.9032 458.3233,273.8557 501.9465,299.0416 501.9465,313.5421 488.008,321.5896"/>
    <line x1="485.7563" x2="485.7563" y1="320.2896" y2="342.1824"/>
    <line x1="486.1116" x2="486.1116" y1="341.9773" y2="415.7922"/>
    <line x1="483.658" x2="483.658" y1="415.1671" y2="343.3939"/>
    <line x1="488.5653" x2="488.5653" y1="340.5607" y2="417.2088"/>
    <line x1="491.0189" x2="491.0189" y1="418.6254" y2="339.1441"/>
    <line x1="490.4488" x2="490.4488" y1="339.4732" y2="320.1804"/>
    <line x1="492.6542" x2="492.6542" y1="318.9071" y2="304.4066"/>
    <line x1="497.3003" x2="497.3003" y1="301.7241" y2="316.2246"/>
    <line x1="495.1413" x2="495.1413" y1="317.4711" y2="336.764"/>
    <line x1="495.9261" x2="495.9261" y1="336.3109" y2="421.4586"/>
    <line x1="498.3797" x2="498.3797" y1="422.8752" y2="337.3688"/>
    <polyline points="496.2367,336.1316 532.7303,357.2012 532.7303,424.3258"/>
    <line x1="530.2767" x2="530.2767" y1="425.7424" y2="355.7846"/>
    <line x1="527.8231" x2="527.8231" y1="354.368" y2="427.159"/>
    <line x1="525.3695" x2="525.3695" y1="428.5756" y2="352.9514"/>
    <line x1="522.9159" x2="522.9159" y1="351.5348" y2="429.9922"/>
    <line x1="520.4623" x2="520.4623" y1="431.4088" y2="350.1182"/>
    <line x1="518.0086" x2="518.0086" y1="348.7016" y2="432.8254"/>
    <polyline points="516.8113,433.5167 539.8284,420.2277 568.9158,437.0214 568.9158,465.6132 541.906,481.2073 541.906,472.6693"/>
    <line x1="544.1719" x2="544.1719" y1="471.3611" y2="460.2055"/>
    <line x1="539.4555" x2="539.482" y1="462.9286" y2="479.8078"/>
    <polyline points="541.906,481.2073 534.5119,476.9383 534.739,476.8072 534.739,465.6516"/>
    <line x1="530.0226" x2="530.0226" y1="468.3747" y2="479.5302"/>
    <line x1="525.3061" x2="525.3061" y1="482.2533" y2="471.0977"/>
    <line x1="520.5896" x2="520.5896" y1="473.8208" y2="484.9763"/>
    <line x1="515.8732" x2="515.8732" y1="487.6994" y2="476.5438"/>
    <line x1="511.1567" x2="553.6049" y1="479.2669" y2="454.7594"/>
    <line x1="550.9093" x2="550.9093" y1="453.2031" y2="447.4175"/>
    <line x1="555.4109" x2="555.4109" y1="444.8184" y2="473.4102"/>
    <line x1="550.9093" x2="550.9093" y1="476.0093" y2="467.4713"/>
    <line x1="548.8884" x2="548.8884" y1="468.638" y2="457.4825"/>
    <line x1="546.4076" x2="546.4076" y1="450.6041" y2="450.0165"/>
    <line x1="545.8987" x2="568.9158" y1="450.3103" y2="437.0214"/>
    <line x1="565.26" x2="565.26" y1="434.9107" y2="338.4202"/>
    <line x1="560.6129" x2="560.6129" y1="341.1032" y2="432.2277"/>
    <line x1="555.9658" x2="555.9658" y1="429.5447" y2="343.7862"/>
    <line x1="551.3187" x2="551.3187" y1="346.4692" y2="426.8617"/>
    <line x1="546.6716" x2="546.6716" y1="424.1787" y2="349.1522"/>
    <line x1="542.0245" x2="542.0245" y1="351.8352" y2="421.4957"/>
    <line x1="537.3774" x2="537.3774" y1="421.6428" y2="354.5182"/>
    <line x1="532.7303" x2="583.8484" y1="357.2012" y2="327.6882"/>
    <line x1="579.2013" x2="579.2013" y1="330.3712" y2="441.2025"/>
    <line x1="574.5542" x2="574.5542" y1="443.8855" y2="333.0542"/>
    <line x1="569.9071" x2="569.9071" y1="335.7372" y2="446.5685"/>
    <polyline points="568.9158,447.1408 583.8484,438.5195 583.8484,327.6882 518.604,290.0193"/>
    <line x1="517.9049" x2="517.9049" y1="278.1158" y2="196.5458"/>
    <line x1="515.5003" x2="515.5003" y1="195.1575" y2="276.7275"/>
    <line x1="513.9115" x2="513.9115" y1="275.8102" y2="325.927"/>
    <line x1="509.2189" x2="509.2189" y1="328.6363" y2="273.1009"/>
    <line x1="508.2865" x2="508.2865" y1="272.5626" y2="190.9926"/>
    <line x1="505.8819" x2="505.8819" y1="189.6043" y2="271.1743"/>
    <line x1="504.5264" x2="504.5264" y1="270.3917" y2="331.3455"/>
    <line x1="499.8339" x2="499.8339" y1="334.0547" y2="314.7619"/>
    <line x1="488.008" x2="501.9465" y1="307.089" y2="299.0416"/>
    <line x1="499.8339" x2="499.8339" y1="297.8219" y2="267.6825"/>
    <line x1="498.6681" x2="498.6681" y1="267.0094" y2="185.4394"/>
    <line x1="496.2635" x2="496.2635" y1="184.0511" y2="265.6211"/>
    <line x1="495.1413" x2="495.1413" y1="264.9732" y2="295.1126"/>
    <line x1="490.4488" x2="490.4488" y1="292.4034" y2="262.264"/>
    <line x1="491.4543" x2="491.4543" y1="262.8445" y2="181.2745"/>
    <line x1="489.0497" x2="489.0497" y1="179.8862" y2="261.4562"/>
    <line x1="486.6451" x2="486.6451" y1="260.0679" y2="178.4979"/>
    <line x1="484.2405" x2="484.2405" y1="177.1096" y2="258.6796"/>
    <line x1="485.7563" x2="485.7563" y1="259.5548" y2="289.6941"/>
    <line x1="481.0637" x2="481.0637" y1="286.9849" y2="258.5879"/>
    <line x1="481.8359" x2="481.8359" y1="257.2913" y2="175.7213"/>
    <line x1="479.4313" x2="479.4313" y1="174.333" y2="255.903"/>
    <polyline points="482.5727,257.7167 429.4459,288.3895 429.4459,291.3734"/>
    <line x1="427.0134" x2="427.0134" y1="289.969" y2="286.9851"/>
    <line x1="424.581" x2="424.581" y1="285.5807" y2="288.5647"/>
    <line x1="422.1486" x2="422.1486" y1="287.1603" y2="284.1764"/>
    <line x1="419.7162" x2="419.7162" y1="282.772" y2="285.7559"/>
    <line x1="417.2837" x2="417.2837" y1="284.3516" y2="281.3676"/>
    <line x1="414.8513" x2="414.8513" y1="279.9633" y2="282.9472"/>
    <line x1="412.4189" x2="412.4189" y1="281.5428" y2="278.5589"/>
    <line x1="409.9864" x2="409.9864" y1="277.1545" y2="280.1385"/>
    <line x1="407.554" x2="407.554" y1="278.7341" y2="275.7502"/>
    <line x1="405.1216" x2="405.1216" y1="274.3458" y2="277.3297"/>
    <line x1="402.6891" x2="402.6891" y1="275.9254" y2="272.9414"/>
    <line x1="400.3012" x2="429.4459" y1="271.5628" y2="288.3895"/>
    <line x1="434.1384" x2="434.1384" y1="285.6802" y2="294.0826"/>
    <line x1="438.8309" x2="438.8309" y1="296.7919" y2="282.971"/>
    <line x1="448.216" x2="448.216" y1="279.6912" y2="277.5525"/>
    <line x1="452.9085" x2="452.9085" y1="276.9819" y2="274.8433"/>
    <line x1="457.6011" x2="457.6011" y1="274.2727" y2="272.134"/>
    <line x1="462.2936" x2="462.2936" y1="269.4248" y2="276.148"/>
    <line x1="466.9861" x2="466.9861" y1="278.8572" y2="266.7156"/>
    <line x1="471.6787" x2="471.6787" y1="264.0063" y2="281.5664"/>
    <line x1="476.3712" x2="476.3712" y1="284.2757" y2="261.2971"/>
    <line x1="493.8589" x2="493.8589" y1="264.2328" y2="182.6628"/>
    <line x1="501.0727" x2="501.0727" y1="186.8277" y2="268.3977"/>
    <line x1="503.4773" x2="503.4773" y1="269.786" y2="188.216"/>
    <line x1="510.6911" x2="510.6911" y1="192.3809" y2="273.9509"/>
    <line x1="513.0957" x2="513.0957" y1="275.3392" y2="193.7692"/>
    <line x1="492.9893" x2="492.9893" y1="163.7287" y2="161.0753"/>
    <line x1="497.7748" x2="497.7748" y1="160.9658" y2="158.3124"/>
    <line x1="502.5604" x2="502.5604" y1="158.2028" y2="155.5495"/>
    <polyline points="507.3459,155.4399 507.3459,152.7865 457.0536,123.7502 375.6992,170.7203 375.6992,217.4935 425.9915,246.5298"/>
    <line x1="423.5966" x2="423.5966" y1="245.1471" y2="198.3739"/>
    <line x1="421.2017" x2="421.2017" y1="196.9912" y2="243.7645"/>
    <line x1="418.8068" x2="418.8068" y1="242.3818" y2="195.6085"/>
    <line x1="416.412" x2="416.412" y1="194.2258" y2="240.9991"/>
    <line x1="414.0171" x2="414.0171" y1="239.6164" y2="192.8431"/>
    <line x1="411.6222" x2="411.6222" y1="191.4605" y2="238.2337"/>
    <line x1="410.4567" x2="395.5029" y1="237.5608" y2="246.1944"/>
    <line x1="395.936" x2="395.936" y1="251.4849" y2="316.185"/>
    <polyline points="397.5578,315.2487 397.5578,324.3728 367.1621,341.9218 367.1621,334.7407"/>
    <line x1="366.6084" x2="366.6084" y1="335.0603" y2="278.0239"/>
    <line x1="362.2491" x2="362.2491" y1="280.5407" y2="337.5772"/>
    <line x1="362.6367" x2="362.6367" y1="337.3534" y2="339.309"/>
    <line x1="360.9431" x2="367.1621" y1="338.3312" y2="341.9218"/>
    <line x1="365.2955" x2="365.4019" y1="343.6928" y2="481.7727"/>
    <line x1="358.0739" x2="358.0739" y1="477.5419" y2="423.8797"/>
    <line x1="353.1886" x2="353.1886" y1="426.7003" y2="474.7214"/>
    <line x1="348.3032" x2="348.3032" y1="471.9008" y2="429.5208"/>
    <line x1="338.7114" x2="338.7114" y1="426.7012" y2="350.6837"/>
    <line x1="338.3145" x2="338.3145" y1="348.927" y2="291.8906"/>
    <line x1="340.4525" x2="325.4861" y1="293.125" y2="284.4841"/>
    <line x1="327.6241" x2="327.6241" y1="285.7185" y2="320.4484"/>
    <polyline points="325.4861,319.214 325.4861,284.4841 360.3606,264.3493 375.3271,272.9902 375.3271,330.0266 340.4525,350.1614 340.4525,293.125 375.3271,272.9902"/>
    <line x1="374.11" x2="374.11" y1="272.2875" y2="264.0862"/>
    <line x1="369.7448" x2="361.5014" y1="266.6064" y2="261.8471"/>
    <line x1="363.5623" x2="363.5623" y1="263.0369" y2="266.1978"/>
    <polyline points="361.5014,265.0079 361.5014,261.8471 392.0578,244.2053 400.3012,248.9647 400.3012,313.6648 375.3271,328.0836"/>
    <line x1="375.8466" x2="375.8466" y1="327.7837" y2="336.9078"/>
    <line x1="374.9686" x2="374.9686" y1="338.108" y2="414.1255"/>
    <line x1="374.7285" x2="374.7285" y1="414.2642" y2="482.0291"/>
    <line x1="375.4221" x2="375.4221" y1="481.6286" y2="514.1447"/>
    <line x1="377.6656" x2="377.6656" y1="512.8494" y2="480.3334"/>
    <line x1="378.8846" x2="384.8624" y1="479.6296" y2="483.0809"/>
    <line x1="384.3961" x2="384.3961" y1="482.8117" y2="508.9635"/>
    <line x1="384.8624" x2="367.8091" y1="508.6943" y2="518.54"/>
    <line x1="379.9091" x2="379.9091" y1="511.5541" y2="480.2211"/>
    <line x1="379.1698" x2="379.1698" y1="479.4649" y2="411.7"/>
    <line x1="379.8052" x2="379.8052" y1="411.3331" y2="335.3156"/>
    <line x1="380.1888" x2="380.1888" y1="334.4008" y2="325.2767"/>
    <line x1="378.4752" x2="378.4752" y1="326.266" y2="261.5659"/>
    <line x1="382.8404" x2="382.8404" y1="259.0457" y2="323.7458"/>
    <line x1="371.5043" x2="371.5043" y1="332.2337" y2="339.4148"/>
    <polyline points="370.1321,340.9004 370.2872,484.5933 401.3764,466.6439 401.3764,398.879"/>
    <line x1="403.9881" x2="403.9881" y1="397.3712" y2="321.3537"/>
    <line x1="408.8247" x2="408.8247" y1="318.5613" y2="394.5788"/>
    <line x1="413.6612" x2="413.6612" y1="391.7864" y2="315.7689"/>
    <line x1="418.4978" x2="418.4978" y1="312.9765" y2="388.994"/>
    <line x1="423.3344" x2="423.3344" y1="386.2016" y2="310.1841"/>
    <line x1="428.1709" x2="428.1709" y1="307.3917" y2="383.4092"/>
    <line x1="433.0075" x2="433.0075" y1="380.6168" y2="304.5993"/>
    <line x1="437.8441" x2="437.8441" y1="301.8069" y2="377.8244"/>
    <line x1="438.8064" x2="438.8064" y1="377.2688" y2="382.5177"/>
    <line x1="436.3735" x2="436.3735" y1="381.113" y2="378.6734"/>
    <line x1="434.2607" x2="448.538" y1="379.8932" y2="388.1362"/>
    <line x1="441.2393" x2="441.2393" y1="383.9223" y2="375.8642"/>
    <line x1="442.6807" x2="456.6682" y1="370.4664" y2="362.3906"/>
    <line x1="459.1219" x2="459.1219" y1="357.5598" y2="425.5346"/>
    <line x1="461.5755" x2="461.5755" y1="426.9512" y2="356.1432"/>
    <line x1="462.2936" x2="462.2936" y1="355.7286" y2="306.7434"/>
    <line x1="461.3493" x2="461.3493" y1="306.1982" y2="291.6977"/>
    <line x1="463.7728" x2="463.7728" y1="293.0969" y2="307.5974"/>
    <line x1="466.1963" x2="466.1963" y1="308.9967" y2="294.4961"/>
    <line x1="468.6199" x2="468.6199" y1="295.8953" y2="310.3959"/>
    <line x1="466.9861" x2="466.9861" y1="309.4526" y2="353.0194"/>
    <line x1="466.4827" x2="466.4827" y1="353.31" y2="425.0833"/>
    <line x1="468.9363" x2="468.9363" y1="423.6667" y2="351.8934"/>
    <line x1="471.3899" x2="471.3899" y1="350.4768" y2="422.2501"/>
    <line x1="473.8436" x2="473.8436" y1="420.8335" y2="349.0603"/>
    <line x1="471.6787" x2="471.6787" y1="350.3101" y2="312.1619"/>
    <line x1="471.0434" x2="471.0434" y1="311.7951" y2="297.2945"/>
    <line x1="473.4669" x2="473.4669" y1="298.6938" y2="313.1943"/>
    <line x1="475.8904" x2="475.8904" y1="314.5935" y2="300.093"/>
    <line x1="478.3139" x2="478.3139" y1="301.4922" y2="315.9927"/>
    <line x1="476.3712" x2="476.2972" y1="314.8711" y2="419.4169"/>
    <line x1="478.7508" x2="478.7508" y1="418.0003" y2="346.2271"/>
    <line x1="464.0291" x2="464.0291" y1="354.7266" y2="426.4999"/>
    <line x1="481.2044" x2="481.0637" y1="416.5837" y2="317.5804"/>
    <line x1="480.7374" x2="480.7374" y1="317.3919" y2="302.8914"/>
    <line x1="483.1609" x2="483.1609" y1="304.2906" y2="318.7912"/>
    <line x1="485.5844" x2="485.5844" y1="320.1904" y2="305.6898"/>
    <line x1="493.4725" x2="493.4725" y1="337.7275" y2="420.042"/>
    <line x1="500.8333" x2="500.8333" y1="424.2918" y2="338.7854"/>
    <line x1="503.287" x2="503.287" y1="340.202" y2="425.7084"/>
    <line x1="505.7406" x2="505.7406" y1="427.125" y2="341.6186"/>
    <line x1="508.1942" x2="508.1942" y1="343.0352" y2="428.5416"/>
    <line x1="510.6478" x2="510.6478" y1="429.9582" y2="344.4518"/>
    <line x1="513.1014" x2="513.1014" y1="345.8684" y2="431.3748"/>
    <line x1="515.555" x2="515.555" y1="432.7914" y2="347.285"/>
    <line x1="573.0608" x2="573.0608" y1="304.5799" y2="223.0099"/>
    <line x1="577.7201" x2="577.7201" y1="220.3199" y2="301.8899"/>
    <line x1="582.3794" x2="582.3794" y1="299.1998" y2="217.6298"/>
    <line x1="587.0387" x2="587.0387" y1="214.9398" y2="296.5098"/>
    <line x1="591.698" x2="591.698" y1="293.8197" y2="212.2497"/>
    <line x1="596.3573" x2="596.3573" y1="209.5597" y2="291.1297"/>
    <line x1="602.5051" x2="602.5051" y1="287.5802" y2="360.1398"/>
    <polyline points="609.6093,364.2414 609.6093,283.4787 630.9217,295.6442"/>
    <line x1="628.5536" x2="628.5536" y1="294.277" y2="375.1789"/>
    <line x1="626.1856" x2="626.1856" y1="373.8117" y2="292.9098"/>
    <line x1="623.8175" x2="623.8175" y1="291.5426" y2="372.4445"/>
    <line x1="623.6402" x2="583.8484" y1="372.3421" y2="395.316"/>
    <line x1="598.1835" x2="598.1835" y1="415.5804" y2="434.5548"/>
    <line x1="593.4008" x2="593.4008" y1="431.7936" y2="418.3417"/>
    <line x1="588.6181" x2="588.6181" y1="421.103" y2="429.0323"/>
    <line x1="602.9661" x2="602.9661" y1="437.3161" y2="412.8192"/>
    <line x1="607.7488" x2="607.7488" y1="410.0579" y2="440.0774"/>
    <line x1="612.5315" x2="612.5315" y1="442.8387" y2="407.2966"/>
    <line x1="617.3142" x2="617.3142" y1="404.5353" y2="445.6"/>
    <line x1="622.0968" x2="622.0968" y1="448.3612" y2="401.774"/>
    <line x1="626.8795" x2="626.8795" y1="399.0128" y2="451.1225"/>
    <line x1="631.6622" x2="631.6622" y1="453.8838" y2="396.2515"/>
    <line x1="636.4449" x2="636.4449" y1="393.4902" y2="456.6451"/>
    <line x1="641.2276" x2="641.2276" y1="459.4064" y2="390.7289"/>
    <line x1="621.4495" x2="621.4495" y1="371.0773" y2="290.1754"/>
    <line x1="619.0814" x2="619.0814" y1="288.8082" y2="369.7101"/>
    <line x1="616.7134" x2="616.7134" y1="368.3429" y2="287.441"/>
    <line x1="614.3454" x2="614.3454" y1="286.0738" y2="366.9757"/>
    <line x1="611.9773" x2="611.9773" y1="365.6086" y2="284.7066"/>
    <polyline points="636.1007,257.1071 639.9428,254.8889 670.7274,272.6623 670.7274,353.5643 630.9217,376.5461 630.9217,295.6442 670.7274,272.6623"/>
    <line x1="614.9945" x2="568.4015" y1="198.7995" y2="225.7"/>
    <line x1="614.6417" x2="614.6417" y1="198.5958" y2="171.402"/>
    <line x1="488.2037" x2="488.2037" y1="166.4917" y2="163.8383"/>
    <line x1="483.4181" x2="483.4181" y1="166.6012" y2="169.2546"/>
    <line x1="478.6326" x2="478.6326" y1="169.3642" y2="172.0176"/>
    <line x1="469.0615" x2="469.0615" y1="174.8901" y2="221.6633"/>
    <line x1="464.2759" x2="464.2759" y1="224.4263" y2="177.653"/>
    <line x1="459.4904" x2="459.4904" y1="180.4159" y2="227.1892"/>
    <line x1="454.7048" x2="454.7048" y1="229.9522" y2="183.1789"/>
    <line x1="449.9192" x2="449.9192" y1="185.9418" y2="232.7151"/>
    <line x1="445.1337" x2="445.1337" y1="235.478" y2="188.7048"/>
    <line x1="440.3481" x2="440.3481" y1="191.4677" y2="238.241"/>
    <line x1="435.5626" x2="435.5626" y1="241.0039" y2="194.2307"/>
    <line x1="430.777" x2="430.777" y1="196.9936" y2="243.7669"/>
    <line x1="409.2274" x2="409.2274" y1="236.8511" y2="190.0778"/>
    <line x1="406.8325" x2="406.8325" y1="188.6951" y2="235.4684"/>
    <line x1="404.4376" x2="404.4376" y1="234.0857" y2="187.3124"/>
    <line x1="402.0427" x2="402.0427" y1="185.9298" y2="232.703"/>
    <line x1="399.6479" x2="399.6479" y1="231.3203" y2="184.5471"/>
    <line x1="397.253" x2="397.253" y1="183.1644" y2="229.9377"/>
    <polyline points="397.9389,230.3337 375.5511,243.2593 375.5511,252.484"/>
    <polyline points="376.6349,253.1098 372.6681,250.8195 342.2724,268.3685 342.2724,274.7925"/>
    <line x1="344.5351" x2="344.5351" y1="273.4861" y2="269.6749"/>
    <polyline points="343.4654,267.6797 335.4807,263.0697 290.1777,289.2255 290.1777,298.8287"/>
    <line x1="291.7995" x2="342.2724" y1="299.7651" y2="270.6245"/>
    <line x1="342.2724" x2="347.8357" y1="268.3685" y2="271.5805"/>
    <line x1="346.7978" x2="346.7978" y1="272.1797" y2="270.9812"/>
    <line x1="353.5305" x2="353.5305" y1="285.5744" y2="342.6109"/>
    <line x1="357.8898" x2="357.8898" y1="340.094" y2="283.0576"/>
    <line x1="349.1712" x2="349.1712" y1="288.0913" y2="345.1277"/>
    <line x1="344.8118" x2="344.8118" y1="347.6446" y2="290.6081"/>
    <line x1="331.9003" x2="331.9003" y1="288.1873" y2="322.9173"/>
    <line x1="332.0724" x2="321.1193" y1="323.0167" y2="329.3404"/>
    <line x1="318.7502" x2="318.7502" y1="327.9727" y2="432.0182"/>
    <polyline points="319.7942,432.6209 319.7942,433.9825 332.0724,427.0621 332.0724,323.0167 270.4773,287.4547 259.5242,293.7785 259.5242,397.824 321.1193,433.3859 321.1193,329.3404 259.5242,293.7785"/>
    <polyline points="259.5242,296.1234 255.6412,293.8815 204.1223,323.6259 204.1223,346.2587 259.5242,378.245 259.5242,355.6122 204.1223,323.6259 204.2167,308.986"/>
    <line x1="201.7741" x2="201.7741" y1="307.5757" y2="332.2623"/>
    <polyline points="204.1223,333.618 170.0204,313.9293 170.0204,289.2427 219.5804,260.6293 268.2604,288.7347"/>
    <line x1="264.2623" x2="264.2623" y1="296.514" y2="400.5595"/>
    <line x1="261.8932" x2="261.8932" y1="399.1918" y2="295.1463"/>
    <line x1="266.6313" x2="266.6313" y1="297.8818" y2="401.9273"/>
    <line x1="269.0004" x2="269.0004" y1="403.2951" y2="299.2496"/>
    <line x1="271.3694" x2="271.3694" y1="300.6173" y2="404.6628"/>
    <line x1="273.7384" x2="273.7384" y1="406.0306" y2="301.9851"/>
    <line x1="276.1075" x2="276.1075" y1="303.3529" y2="407.3984"/>
    <line x1="275.3585" x2="275.3585" y1="406.9659" y2="431.6799"/>
    <line x1="273.3868" x2="273.3868" y1="435.629" y2="508.3627"/>
    <line x1="274.013" x2="254.0204" y1="508.7243" y2="497.1815"/>
    <line x1="256.2336" x2="256.2348" y1="498.4593" y2="417.7143"/>
    <line x1="251.4538" x2="251.4538" y1="420.4746" y2="434.2016"/>
    <polyline points="254.0204,435.6834 197.7916,468.1472 197.7916,576.6904 233.7684,555.9192"/>
    <line x1="230.5918" x2="230.5918" y1="557.7533" y2="449.21"/>
    <line x1="225.906" x2="225.906" y1="451.9153" y2="560.4586"/>
    <line x1="221.2203" x2="221.2203" y1="563.1639" y2="454.6206"/>
    <line x1="216.5346" x2="216.5346" y1="457.3259" y2="565.8692"/>
    <line x1="211.8488" x2="211.8488" y1="568.5745" y2="460.0312"/>
    <line x1="207.1631" x2="207.1631" y1="462.7365" y2="571.2798"/>
    <line x1="202.4774" x2="202.4774" y1="573.9851" y2="465.4418"/>
    <line x1="197.7916" x2="111.2319" y1="468.1472" y2="418.1719"/>
    <line x1="113.6364" x2="113.6364" y1="419.5601" y2="528.1034"/>
    <line x1="116.0408" x2="116.0408" y1="529.4916" y2="420.9483"/>
    <line x1="118.4452" x2="118.4452" y1="422.3365" y2="530.8798"/>
    <line x1="120.8497" x2="120.8497" y1="532.268" y2="423.7247"/>
    <line x1="123.2541" x2="123.2541" y1="425.1129" y2="533.6562"/>
    <line x1="125.6586" x2="125.6586" y1="535.0444" y2="426.5011"/>
    <line x1="128.063" x2="128.063" y1="427.8893" y2="536.4326"/>
    <line x1="130.4674" x2="130.4674" y1="537.8208" y2="429.2775"/>
    <line x1="132.8719" x2="132.8719" y1="430.6657" y2="539.209"/>
    <line x1="135.2763" x2="135.2763" y1="540.5972" y2="432.0539"/>
    <line x1="137.6807" x2="137.6807" y1="433.4421" y2="541.9854"/>
    <line x1="140.0852" x2="140.0852" y1="543.3736" y2="434.8303"/>
    <line x1="142.4896" x2="142.4896" y1="436.2185" y2="544.7618"/>
    <line x1="144.894" x2="144.894" y1="546.15" y2="437.6067"/>
    <line x1="147.2985" x2="147.2985" y1="438.9949" y2="547.5382"/>
    <line x1="149.7029" x2="149.7029" y1="548.9264" y2="440.3831"/>
    <line x1="152.1074" x2="152.1074" y1="441.7713" y2="550.3146"/>
    <line x1="154.5118" x2="154.5118" y1="551.7028" y2="443.1595"/>
    <line x1="156.9162" x2="156.9162" y1="444.5477" y2="553.091"/>
    <line x1="159.3207" x2="159.3207" y1="554.4792" y2="445.9359"/>
    <line x1="161.7251" x2="161.7251" y1="447.3241" y2="555.8674"/>
    <line x1="164.1295" x2="164.1295" y1="557.2556" y2="448.7123"/>
    <line x1="166.534" x2="166.534" y1="450.1005" y2="558.6438"/>
    <line x1="168.9384" x2="168.9384" y1="560.032" y2="451.4887"/>
    <line x1="171.3428" x2="171.3428" y1="452.8769" y2="561.4202"/>
    <line x1="173.7473" x2="173.7473" y1="562.8084" y2="454.2651"/>
    <line x1="176.1517" x2="176.1517" y1="455.6533" y2="564.1966"/>
    <line x1="178.5561" x2="178.5561" y1="565.5848" y2="457.0415"/>
    <line x1="180.9606" x2="180.9606" y1="458.4297" y2="566.973"/>
    <line x1="183.365" x2="183.365" y1="568.3612" y2="459.8179"/>
    <line x1="185.7695" x2="185.7695" y1="461.2061" y2="569.7494"/>
    <line x1="184.1965" x2="184.1965" y1="568.8413" y2="608.6624"/>
    <line x1="189.0667" x2="189.0667" y1="605.8507" y2="571.6531"/>
    <line x1="188.1739" x2="188.1739" y1="571.1376" y2="462.5944"/>
    <line x1="190.5783" x2="190.5783" y1="463.9826" y2="572.5258"/>
    <line x1="192.9828" x2="192.9828" y1="573.914" y2="465.3708"/>
    <line x1="195.3872" x2="195.3872" y1="466.759" y2="575.3022"/>
    <line x1="193.9368" x2="193.9368" y1="574.4649" y2="603.0389"/>
    <line x1="179.3264" x2="179.3264" y1="611.4742" y2="571.169"/>
    <polyline points="183.7773,568.5993 145.2354,590.8515 145.2354,631.1567 198.807,600.2271 198.807,576.1042"/>
    <polyline points="197.7916,576.6904 111.2319,526.7152 111.2319,418.1719 167.4607,385.7082 254.0204,435.6834 254.0204,520.267"/>
    <line x1="249.3347" x2="249.3347" y1="522.9723" y2="438.3888"/>
    <line x1="244.649" x2="244.649" y1="441.0941" y2="525.6776"/>
    <line x1="239.9632" x2="239.9632" y1="528.3829" y2="443.7994"/>
    <line x1="235.2775" x2="235.2775" y1="446.5047" y2="531.0882"/>
    <polyline points="233.7684,531.9595 325.6785,585.0238 325.6785,660.8244 233.7684,607.7601 233.7684,531.9595 312.4104,486.5555 404.3205,539.6198 404.3205,615.4205 325.6785,660.8244"/>
    <line x1="323.2598" x2="323.2598" y1="659.428" y2="583.6274"/>
    <line x1="325.6785" x2="404.3205" y1="585.0238" y2="539.6198"/>
    <line x1="403.8335" x2="403.8335" y1="539.3387" y2="487.2706"/>
    <line x1="401.4621" x2="401.4621" y1="485.9015" y2="537.9696"/>
    <line x1="399.0907" x2="399.0907" y1="536.6005" y2="484.5324"/>
    <line x1="396.7193" x2="396.7193" y1="483.1632" y2="535.2313"/>
    <line x1="394.348" x2="394.348" y1="533.8622" y2="481.7941"/>
    <line x1="391.9766" x2="391.9766" y1="480.425" y2="532.4931"/>
    <line x1="389.6052" x2="389.6052" y1="531.124" y2="479.0559"/>
    <line x1="387.2338" x2="387.2338" y1="477.6867" y2="529.7549"/>
    <polyline points="384.8624,528.3857 384.8624,476.3176 441.8954,443.3896"/>
    <line x1="444.2837" x2="444.2837" y1="440.6577" y2="451.8132"/>
    <line x1="446.672" x2="446.672" y1="453.1921" y2="442.0366"/>
    <line x1="449.0603" x2="449.0603" y1="443.4155" y2="454.571"/>
    <line x1="451.4487" x2="451.4487" y1="455.9499" y2="444.7944"/>
    <line x1="453.837" x2="453.837" y1="446.1733" y2="457.3288"/>
    <line x1="456.2253" x2="456.2253" y1="458.7077" y2="447.5522"/>
    <line x1="458.6136" x2="458.6136" y1="448.9311" y2="460.0866"/>
    <line x1="461.0019" x2="461.0019" y1="461.4655" y2="450.31"/>
    <line x1="463.3903" x2="463.3903" y1="451.6889" y2="462.8444"/>
    <line x1="465.7786" x2="465.7786" y1="464.2233" y2="453.0678"/>
    <line x1="468.1669" x2="468.1669" y1="454.4467" y2="465.6022"/>
    <line x1="470.5552" x2="470.5552" y1="466.9811" y2="455.8256"/>
    <line x1="472.9436" x2="472.9436" y1="457.2045" y2="468.36"/>
    <line x1="475.3319" x2="475.3319" y1="469.7389" y2="458.5834"/>
    <line x1="477.7202" x2="477.7202" y1="459.9623" y2="471.1178"/>
    <line x1="480.1085" x2="480.1085" y1="472.4967" y2="461.3412"/>
    <line x1="482.4969" x2="482.4969" y1="462.7201" y2="473.8756"/>
    <line x1="481.7544" x2="481.7544" y1="477.8801" y2="563.1436"/>
    <line x1="481.9428" x2="482.0291" y1="563.0348" y2="599.2017"/>
    <line x1="479.5887" x2="479.4966" y1="597.7927" y2="564.4471"/>
    <line x1="474.6042" x2="474.7078" y1="567.2717" y2="594.9747"/>
    <line x1="472.2674" x2="472.158" y1="593.5657" y2="568.684"/>
    <line x1="472.3358" x2="472.3358" y1="568.5814" y2="483.3179"/>
    <line x1="477.0451" x2="477.1483" y1="480.599" y2="596.3837"/>
    <line x1="469.8269" x2="469.7118" y1="592.1568" y2="570.0963"/>
    <line x1="467.6265" x2="467.6265" y1="571.3003" y2="486.0368"/>
    <line x1="462.9172" x2="462.9172" y1="488.7557" y2="574.0192"/>
    <line x1="462.5056" x2="462.5056" y1="574.2568" y2="587.9298"/>
    <line x1="464.9461" x2="464.9461" y1="589.3388" y2="572.8478"/>
    <line x1="466.6331" x2="545.5438" y1="571.8738" y2="617.4329"/>
    <line x1="543.0976" x2="543.0976" y1="616.0206" y2="514.0433"/>
    <line x1="545.5438" x2="641.9258" y1="515.4557" y2="459.8095"/>
    <line x1="637.1067" x2="637.1067" y1="462.5918" y2="564.569"/>
    <line x1="632.2876" x2="632.2876" y1="567.3513" y2="465.3741"/>
    <line x1="627.4685" x2="627.4685" y1="468.1564" y2="570.1336"/>
    <line x1="622.6494" x2="622.6494" y1="572.9159" y2="470.9387"/>
    <line x1="617.8303" x2="617.8303" y1="473.721" y2="575.6982"/>
    <line x1="613.0112" x2="613.0112" y1="578.4805" y2="476.5033"/>
    <line x1="608.1921" x2="608.1921" y1="479.2856" y2="581.2628"/>
    <line x1="603.373" x2="603.373" y1="584.0452" y2="482.0679"/>
    <line x1="598.5539" x2="598.5539" y1="484.8503" y2="586.8275"/>
    <line x1="593.7348" x2="593.7348" y1="589.6098" y2="487.6326"/>
    <line x1="588.9157" x2="588.9157" y1="490.4149" y2="592.3921"/>
    <line x1="584.0966" x2="584.0966" y1="595.1744" y2="493.1972"/>
    <line x1="579.2775" x2="579.2775" y1="495.9795" y2="597.9567"/>
    <line x1="574.4584" x2="574.4584" y1="600.739" y2="498.7618"/>
    <line x1="569.6393" x2="569.6393" y1="501.5441" y2="603.5213"/>
    <line x1="564.8202" x2="564.8202" y1="606.3036" y2="504.3264"/>
    <line x1="560.0011" x2="560.0011" y1="507.1087" y2="609.0859"/>
    <line x1="555.182" x2="555.182" y1="611.8682" y2="509.891"/>
    <line x1="550.3629" x2="550.3629" y1="512.6733" y2="614.6506"/>
    <line x1="540.6514" x2="540.6514" y1="614.6082" y2="512.631"/>
    <line x1="538.2052" x2="538.2052" y1="511.2187" y2="613.1959"/>
    <polyline points="538.9344,613.617 538.9344,614.253 523.5166,623.1545 523.528,502.7449"/>
    <line x1="525.9742" x2="525.9742" y1="504.1572" y2="606.1344"/>
    <line x1="527.3711" x2="527.3711" y1="606.9409" y2="620.9291"/>
    <line x1="531.2255" x2="531.2255" y1="618.7038" y2="609.1662"/>
    <line x1="530.8666" x2="530.8666" y1="608.959" y2="506.9818"/>
    <line x1="533.3128" x2="533.3128" y1="508.3941" y2="610.3713"/>
    <line x1="535.08" x2="535.08" y1="611.3916" y2="616.4784"/>
    <line x1="535.759" x2="535.759" y1="611.7836" y2="509.8064"/>
    <line x1="528.4204" x2="528.4204" y1="505.5695" y2="607.5467"/>
    <line x1="494.2313" x2="494.1738" y1="606.2466" y2="555.9732"/>
    <line x1="467.2656" x2="467.3865" y1="571.5086" y2="590.7478"/>
    <line x1="460.0652" x2="460.0652" y1="586.5208" y2="575.6658"/>
    <line x1="458.208" x2="458.208" y1="576.7381" y2="491.4746"/>
    <line x1="453.4987" x2="453.4987" y1="494.1935" y2="579.457"/>
    <line x1="452.7439" x2="452.7439" y1="579.8928" y2="582.2938"/>
    <line x1="455.1843" x2="455.1843" y1="583.7028" y2="578.4838"/>
    <line x1="457.6247" x2="457.6247" y1="577.0748" y2="585.1118"/>
    <line x1="441.9266" x2="441.9266" y1="610.225" y2="686.4793"/>
    <line x1="439.4832" x2="439.4832" y1="685.0686" y2="608.8143"/>
    <line x1="437.0398" x2="437.0398" y1="607.4036" y2="683.6579"/>
    <line x1="434.5964" x2="434.5964" y1="682.2472" y2="605.9929"/>
    <line x1="432.153" x2="432.153" y1="604.5823" y2="680.8365"/>
    <line x1="429.7096" x2="429.7096" y1="679.4259" y2="603.1716"/>
    <line x1="427.2663" x2="427.2663" y1="601.7609" y2="678.0152"/>
    <line x1="424.8229" x2="424.8229" y1="676.6045" y2="600.3502"/>
    <line x1="422.3795" x2="422.3795" y1="598.9395" y2="675.1938"/>
    <line x1="419.9361" x2="419.9361" y1="673.7831" y2="597.5288"/>
    <line x1="417.4927" x2="417.4927" y1="596.1181" y2="672.3724"/>
    <line x1="415.0493" x2="415.0493" y1="670.9617" y2="594.7074"/>
    <line x1="412.6059" x2="412.6059" y1="593.2967" y2="669.551"/>
    <line x1="410.1625" x2="410.1625" y1="668.1403" y2="591.886"/>
    <line x1="407.7191" x2="407.7191" y1="590.4753" y2="666.7296"/>
    <line x1="405.2757" x2="405.2757" y1="665.3189" y2="589.0646"/>
    <line x1="404.3205" x2="471.2473" y1="588.5131" y2="627.1533"/>
    <line x1="468.8039" x2="468.8039" y1="625.7427" y2="701.9969"/>
    <line x1="466.3605" x2="466.3605" y1="700.5862" y2="624.332"/>
    <line x1="463.9171" x2="463.9171" y1="622.9213" y2="699.1756"/>
    <line x1="461.4737" x2="461.4737" y1="697.7649" y2="621.5106"/>
    <line x1="459.0304" x2="459.0304" y1="620.0999" y2="696.3542"/>
    <line x1="456.587" x2="456.587" y1="694.9435" y2="618.6892"/>
    <line x1="454.1436" x2="454.1436" y1="617.2785" y2="693.5328"/>
    <line x1="451.7002" x2="451.7002" y1="692.1221" y2="615.8678"/>
    <line x1="449.2568" x2="449.2568" y1="614.4571" y2="690.7114"/>
    <line x1="446.8134" x2="446.8134" y1="689.3007" y2="613.0464"/>
    <line x1="444.37" x2="444.37" y1="611.6357" y2="687.89"/>
    <polyline points="471.2473,703.4076 390.6154,656.8548 390.6154,623.3331"/>
    <line x1="390.4425" x2="390.4425" y1="623.433" y2="547.6323"/>
    <line x1="385.8165" x2="385.8165" y1="550.3031" y2="626.1038"/>
    <line x1="381.1905" x2="381.1905" y1="628.7746" y2="552.9739"/>
    <line x1="376.5645" x2="376.5645" y1="555.6448" y2="631.4454"/>
    <line x1="371.9385" x2="371.9385" y1="634.1162" y2="558.3156"/>
    <line x1="367.3125" x2="367.3125" y1="560.9864" y2="636.7871"/>
    <line x1="362.6865" x2="362.6865" y1="639.4579" y2="563.6572"/>
    <line x1="358.0605" x2="358.0605" y1="566.3281" y2="642.1287"/>
    <line x1="353.4345" x2="353.4345" y1="644.7995" y2="568.9989"/>
    <line x1="348.8085" x2="348.8085" y1="571.6697" y2="647.4703"/>
    <line x1="344.1825" x2="344.1825" y1="650.1412" y2="574.3405"/>
    <line x1="339.5565" x2="339.5565" y1="577.0113" y2="652.812"/>
    <line x1="334.9305" x2="334.9305" y1="655.4828" y2="579.6822"/>
    <line x1="330.3045" x2="330.3045" y1="582.353" y2="658.1536"/>
    <line x1="320.8412" x2="320.8412" y1="658.0316" y2="582.2309"/>
    <line x1="318.4225" x2="318.4225" y1="580.8345" y2="656.6352"/>
    <line x1="316.0038" x2="316.0038" y1="655.2387" y2="579.4381"/>
    <line x1="313.5851" x2="313.5851" y1="578.0416" y2="653.8423"/>
    <line x1="311.1664" x2="311.1664" y1="652.4459" y2="576.6452"/>
    <line x1="308.7477" x2="308.7477" y1="575.2488" y2="651.0494"/>
    <line x1="306.329" x2="306.329" y1="649.653" y2="573.8524"/>
    <line x1="303.9103" x2="303.9103" y1="572.4559" y2="648.2566"/>
    <line x1="301.4917" x2="301.4917" y1="646.8601" y2="571.0595"/>
    <line x1="299.073" x2="299.073" y1="569.6631" y2="645.4637"/>
    <line x1="296.6543" x2="296.6543" y1="644.0673" y2="568.2666"/>
    <line x1="294.2356" x2="294.2356" y1="566.8702" y2="642.6709"/>
    <line x1="291.8169" x2="291.8169" y1="641.2744" y2="565.4738"/>
    <line x1="289.3982" x2="289.3982" y1="564.0774" y2="639.878"/>
    <line x1="286.9795" x2="286.9795" y1="638.4816" y2="562.6809"/>
    <line x1="284.5609" x2="284.5609" y1="561.2845" y2="637.0851"/>
    <line x1="282.1422" x2="282.1422" y1="635.6887" y2="559.8881"/>
    <line x1="279.7235" x2="279.7235" y1="558.4916" y2="634.2923"/>
    <line x1="277.3048" x2="277.3048" y1="632.8959" y2="557.0952"/>
    <line x1="274.8861" x2="274.8861" y1="555.6988" y2="631.4994"/>
    <line x1="272.4674" x2="272.4674" y1="630.103" y2="554.3023"/>
    <line x1="270.0487" x2="270.0487" y1="552.9059" y2="628.7066"/>
    <line x1="267.63" x2="267.63" y1="627.3101" y2="551.5095"/>
    <line x1="265.2114" x2="265.2114" y1="550.1131" y2="625.9137"/>
    <line x1="262.7927" x2="262.7927" y1="624.5173" y2="548.7166"/>
    <line x1="260.374" x2="260.374" y1="547.3202" y2="623.1208"/>
    <line x1="257.9553" x2="257.9553" y1="621.7244" y2="545.9238"/>
    <line x1="255.5366" x2="255.5366" y1="544.5273" y2="620.328"/>
    <line x1="253.1179" x2="253.1179" y1="618.9316" y2="543.1309"/>
    <line x1="250.6992" x2="250.6992" y1="541.7345" y2="617.5351"/>
    <line x1="248.2805" x2="248.2805" y1="616.1387" y2="540.338"/>
    <line x1="245.8619" x2="245.8619" y1="538.9416" y2="614.7423"/>
    <line x1="243.4432" x2="243.4432" y1="613.3458" y2="537.5452"/>
    <line x1="241.0245" x2="241.0245" y1="536.1488" y2="611.9494"/>
    <line x1="238.6058" x2="238.6058" y1="610.553" y2="534.7523"/>
    <line x1="236.1871" x2="236.1871" y1="533.3559" y2="609.1566"/>
    <line x1="174.4563" x2="174.4563" y1="614.286" y2="573.9808"/>
    <line x1="169.5861" x2="169.5861" y1="576.7926" y2="617.0978"/>
    <line x1="164.716" x2="164.716" y1="619.9096" y2="579.6043"/>
    <line x1="159.8458" x2="159.8458" y1="582.4161" y2="622.7213"/>
    <line x1="154.9757" x2="154.9757" y1="625.5331" y2="585.2279"/>
    <line x1="150.1055" x2="150.1055" y1="588.0397" y2="628.3449"/>
    <polyline points="145.2354,631.1567 56.3323,579.8285 56.3323,539.5232 109.9039,508.5937 111.2319,509.3604"/>
    <line x1="85.1657" x2="85.1657" y1="556.1702" y2="596.4755"/>
    <line x1="87.5685" x2="87.5685" y1="597.8627" y2="557.5575"/>
    <line x1="89.9713" x2="89.9713" y1="558.9447" y2="599.25"/>
    <line x1="92.3741" x2="92.3741" y1="600.6372" y2="560.332"/>
    <line x1="94.7769" x2="94.7769" y1="561.7192" y2="602.0245"/>
    <line x1="97.1796" x2="97.1796" y1="603.4117" y2="563.1065"/>
    <line x1="99.5824" x2="99.5824" y1="564.4937" y2="604.799"/>
    <line x1="101.9852" x2="101.9852" y1="606.1862" y2="565.881"/>
    <line x1="104.388" x2="104.388" y1="567.2682" y2="607.5735"/>
    <line x1="106.7908" x2="106.7908" y1="608.9607" y2="568.6555"/>
    <line x1="109.1936" x2="109.1936" y1="570.0427" y2="610.348"/>
    <line x1="111.5964" x2="111.5964" y1="611.7352" y2="571.43"/>
    <line x1="113.9991" x2="113.9991" y1="572.8172" y2="613.1225"/>
    <line x1="116.4019" x2="116.4019" y1="614.5097" y2="574.2045"/>
    <line x1="118.8047" x2="118.8047" y1="575.5917" y2="615.897"/>
    <line x1="121.2075" x2="121.2075" y1="617.2842" y2="576.979"/>
    <line x1="123.6103" x2="123.6103" y1="578.3662" y2="618.6715"/>
    <line x1="126.0131" x2="126.0131" y1="620.0587" y2="579.7535"/>
    <line x1="128.4159" x2="128.4159" y1="581.1407" y2="621.4459"/>
    <line x1="130.8186" x2="130.8186" y1="622.8332" y2="582.528"/>
    <line x1="133.2214" x2="133.2214" y1="583.9152" y2="624.2204"/>
    <line x1="135.6242" x2="135.6242" y1="625.6077" y2="585.3025"/>
    <line x1="138.027" x2="138.027" y1="586.6897" y2="626.9949"/>
    <line x1="140.4298" x2="140.4298" y1="628.3822" y2="588.077"/>
    <line x1="142.8326" x2="142.8326" y1="589.4642" y2="629.7694"/>
    <line x1="145.2354" x2="56.3323" y1="590.8515" y2="539.5232"/>
    <line x1="58.7351" x2="58.7351" y1="540.9105" y2="581.2157"/>
    <line x1="61.1378" x2="61.1378" y1="582.603" y2="542.2977"/>
    <line x1="63.5406" x2="63.5406" y1="543.685" y2="583.9902"/>
    <line x1="65.9434" x2="65.9434" y1="585.3775" y2="545.0722"/>
    <line x1="68.3462" x2="68.3462" y1="546.4595" y2="586.7647"/>
    <line x1="70.749" x2="70.749" y1="588.152" y2="547.8467"/>
    <line x1="73.1518" x2="73.1518" y1="549.234" y2="589.5392"/>
    <line x1="75.5546" x2="75.5546" y1="590.9265" y2="550.6212"/>
    <line x1="77.9573" x2="77.9573" y1="552.0085" y2="592.3137"/>
    <line x1="80.3601" x2="80.3601" y1="593.701" y2="553.3957"/>
    <line x1="82.7629" x2="82.7629" y1="554.783" y2="595.0882"/>
    <polyline points="101.5244,686.6914 192.3173,739.1107 192.3173,843.8458 101.5244,791.4264 101.5244,686.6914 112.957,680.0908 203.7499,732.5101 203.7499,837.2451 192.3173,843.8458"/>
    <line x1="189.8634" x2="189.8634" y1="842.429" y2="737.694"/>
    <line x1="187.4096" x2="187.4096" y1="736.2772" y2="841.0123"/>
    <line x1="184.9557" x2="184.9557" y1="839.5955" y2="734.8605"/>
    <line x1="182.5018" x2="182.5018" y1="733.4437" y2="838.1788"/>
    <line x1="180.048" x2="180.048" y1="836.7621" y2="732.027"/>
    <line x1="177.5941" x2="177.5941" y1="730.6103" y2="835.3453"/>
    <line x1="175.1402" x2="175.1402" y1="833.9286" y2="729.1935"/>
    <line x1="172.6864" x2="172.6864" y1="727.7768" y2="832.5118"/>
    <line x1="170.2325" x2="170.2325" y1="831.0951" y2="726.3601"/>
    <line x1="167.7787" x2="167.7787" y1="724.9433" y2="829.6784"/>
    <line x1="165.3248" x2="165.3248" y1="828.2616" y2="723.5266"/>
    <line x1="162.8709" x2="162.8709" y1="722.1098" y2="826.8449"/>
    <line x1="160.4171" x2="160.4171" y1="825.4282" y2="720.6931"/>
    <line x1="157.9632" x2="157.9632" y1="719.2764" y2="824.0114"/>
    <line x1="155.5093" x2="155.5093" y1="822.5947" y2="717.8596"/>
    <line x1="153.0555" x2="153.0555" y1="716.4429" y2="821.1779"/>
    <line x1="150.6016" x2="150.6016" y1="819.7612" y2="715.0261"/>
    <line x1="148.1478" x2="148.1478" y1="713.6094" y2="818.3445"/>
    <line x1="145.6939" x2="145.6939" y1="816.9277" y2="712.1927"/>
    <line x1="143.24" x2="143.24" y1="710.7759" y2="815.511"/>
    <line x1="140.7862" x2="140.7862" y1="814.0942" y2="709.3592"/>
    <line x1="138.3323" x2="138.3323" y1="707.9425" y2="812.6775"/>
    <line x1="135.8784" x2="135.8784" y1="811.2608" y2="706.5257"/>
    <line x1="133.4246" x2="133.4246" y1="705.109" y2="809.844"/>
    <line x1="130.9707" x2="130.9707" y1="808.4273" y2="703.6922"/>
    <line x1="128.5168" x2="128.5168" y1="702.2755" y2="807.0106"/>
    <line x1="126.063" x2="126.063" y1="805.5938" y2="700.8588"/>
    <line x1="123.6091" x2="123.6091" y1="699.442" y2="804.1771"/>
    <line x1="121.1553" x2="121.1553" y1="802.7603" y2="698.0253"/>
    <line x1="118.7014" x2="118.7014" y1="696.6085" y2="801.3436"/>
    <line x1="116.2475" x2="116.2475" y1="799.9269" y2="695.1918"/>
    <line x1="113.7937" x2="113.7937" y1="693.7751" y2="798.5101"/>
    <line x1="111.3398" x2="111.3398" y1="797.0934" y2="692.3583"/>
    <line x1="108.8859" x2="108.8859" y1="690.9416" y2="795.6766"/>
    <line x1="106.4321" x2="106.4321" y1="794.2599" y2="689.5249"/>
    <line x1="103.9782" x2="103.9782" y1="688.1081" y2="792.8432"/>
    <line x1="192.3173" x2="203.7499" y1="739.1107" y2="732.5101"/>
    <line x1="199.939" x2="199.939" y1="734.7103" y2="839.4453"/>
    <line x1="196.1282" x2="196.1282" y1="841.6455" y2="736.9105"/>
    <line x1="276.6974" x2="300.0182" y1="805.5631" y2="819.0274"/>
    <line x1="298.6711" x2="298.6711" y1="818.2496" y2="863.5872"/>
    <polyline points="300.0182,864.365 276.6974,850.9007 276.6974,805.5631 355.9112,759.829 414.5077,793.6597 414.5077,817.3503"/>
    <line x1="409.8481" x2="409.8481" y1="814.6601" y2="796.3499"/>
    <line x1="405.1884" x2="405.1884" y1="799.0401" y2="811.9699"/>
    <line x1="400.5288" x2="400.5288" y1="809.2796" y2="801.7304"/>
    <line x1="395.8692" x2="395.8692" y1="804.4206" y2="806.5894"/>
    <line x1="393.991" x2="414.5077" y1="805.505" y2="793.6597"/>
    <line x1="429.7816" x2="374.6624" y1="826.1687" y2="857.9918"/>
    <line x1="372.2546" x2="372.2546" y1="856.6016" y2="969.387"/>
    <polyline points="374.6624,970.7772 429.7816,938.9541 429.7816,826.1687 355.1374,783.0729 300.0182,814.8959 300.0182,927.6813 374.6624,970.7772 374.6624,857.9918 300.0182,814.8959"/>
    <line x1="302.4261" x2="302.4261" y1="816.2861" y2="929.0715"/>
    <line x1="304.834" x2="304.834" y1="930.4617" y2="817.6763"/>
    <line x1="307.2419" x2="307.2419" y1="819.0665" y2="931.8519"/>
    <line x1="309.6497" x2="309.6497" y1="933.2421" y2="820.4567"/>
    <line x1="312.0576" x2="312.0576" y1="821.8468" y2="934.6323"/>
    <line x1="314.4655" x2="314.4655" y1="936.0225" y2="823.237"/>
    <line x1="316.8734" x2="316.8734" y1="824.6272" y2="937.4127"/>
    <line x1="319.2812" x2="319.2812" y1="938.8028" y2="826.0174"/>
    <line x1="321.6891" x2="321.6891" y1="827.4076" y2="940.193"/>
    <line x1="324.097" x2="324.097" y1="941.5832" y2="828.7978"/>
    <line x1="326.5049" x2="326.5049" y1="830.188" y2="942.9734"/>
    <line x1="328.9128" x2="328.9128" y1="944.3636" y2="831.5782"/>
    <line x1="331.3206" x2="331.3206" y1="832.9684" y2="945.7538"/>
    <line x1="333.7285" x2="333.7285" y1="947.144" y2="834.3585"/>
    <line x1="336.1364" x2="336.1364" y1="835.7487" y2="948.5342"/>
    <line x1="338.5443" x2="338.5443" y1="949.9244" y2="837.1389"/>
    <line x1="340.9521" x2="340.9521" y1="838.5291" y2="951.3145"/>
    <line x1="343.36" x2="343.36" y1="952.7047" y2="839.9193"/>
    <line x1="345.7679" x2="345.7679" y1="841.3095" y2="954.0949"/>
    <line x1="348.1758" x2="348.1758" y1="955.4851" y2="842.6997"/>
    <line x1="350.5837" x2="350.5837" y1="844.0899" y2="956.8753"/>
    <line x1="352.9915" x2="352.9915" y1="958.2655" y2="845.4801"/>
    <line x1="355.3994" x2="355.3994" y1="846.8702" y2="959.6557"/>
    <line x1="357.8073" x2="357.8073" y1="961.0459" y2="848.2604"/>
    <line x1="360.2152" x2="360.2152" y1="849.6506" y2="962.4361"/>
    <line x1="362.623" x2="362.623" y1="963.8262" y2="851.0408"/>
    <line x1="365.0309" x2="365.0309" y1="852.431" y2="965.2164"/>
    <line x1="367.4388" x2="367.4388" y1="966.6066" y2="853.8212"/>
    <line x1="369.8467" x2="369.8467" y1="855.2114" y2="967.9968"/>
    <line x1="379.2557" x2="379.2557" y1="968.1253" y2="855.3398"/>
    <line x1="383.849" x2="383.849" y1="852.6879" y2="965.4733"/>
    <line x1="388.4422" x2="388.4422" y1="962.8214" y2="850.036"/>
    <line x1="393.0355" x2="393.0355" y1="847.3841" y2="960.1695"/>
    <line x1="397.6287" x2="397.6287" y1="957.5176" y2="844.7322"/>
    <line x1="402.222" x2="402.222" y1="842.0802" y2="954.8657"/>
    <line x1="406.8153" x2="406.8153" y1="952.2137" y2="839.4283"/>
    <line x1="411.4085" x2="411.4085" y1="836.7764" y2="949.5618"/>
    <line x1="416.0018" x2="416.0018" y1="946.9099" y2="834.1245"/>
    <line x1="420.595" x2="420.595" y1="831.4726" y2="944.258"/>
    <line x1="425.1883" x2="425.1883" y1="941.6061" y2="828.8206"/>
    <line x1="451.4452" x2="451.4452" y1="829.3518" y2="753.024"/>
    <line x1="449.0737" x2="468.0457" y1="751.6548" y2="762.6083"/>
    <line x1="465.6742" x2="465.6742" y1="761.2391" y2="837.5669"/>
    <line x1="463.3027" x2="463.3027" y1="836.1978" y2="759.8699"/>
    <line x1="460.9312" x2="460.9312" y1="758.5007" y2="834.8286"/>
    <line x1="458.5597" x2="458.5597" y1="833.4594" y2="757.1315"/>
    <line x1="456.1882" x2="456.1882" y1="755.7623" y2="832.0902"/>
    <line x1="453.8167" x2="453.8167" y1="830.721" y2="754.3932"/>
    <line x1="472.8371" x2="472.8371" y1="759.842" y2="836.1698"/>
    <line x1="477.6285" x2="477.6285" y1="833.4035" y2="757.0756"/>
    <line x1="482.4199" x2="482.4199" y1="754.3093" y2="830.6371"/>
    <line x1="487.2114" x2="487.2114" y1="827.8708" y2="751.543"/>
    <line x1="492.0028" x2="492.0028" y1="748.7766" y2="825.1045"/>
    <line x1="496.7942" x2="496.7942" y1="822.3382" y2="746.0103"/>
    <line x1="501.5856" x2="501.5856" y1="743.244" y2="819.5718"/>
    <line x1="506.3771" x2="506.3771" y1="816.8055" y2="740.4777"/>
    <line x1="511.1685" x2="511.1685" y1="737.7113" y2="814.0392"/>
    <line x1="515.9599" x2="515.9599" y1="811.2728" y2="734.945"/>
    <line x1="520.7513" x2="520.7513" y1="732.1787" y2="808.5065"/>
    <line x1="525.5427" x2="525.5427" y1="805.7402" y2="729.4123"/>
    <polyline points="530.3342,726.646 468.0457,762.6083 468.0457,838.9361 449.0737,827.9826 449.0737,751.6548 511.3621,715.6925 530.3342,726.646 530.3342,802.9739 468.0457,838.9361"/>
    <line x1="434.2739" x2="468.7689" y1="897.0063" y2="916.9219"/>
    <line x1="466.4692" x2="466.4692" y1="915.5942" y2="937.4272"/>
    <polyline points="468.7689,938.7549 478.6124,933.0718 478.6124,911.2388 444.1174,891.3231 434.2739,897.0063 434.2739,918.8392 468.7689,938.7549 468.7689,916.9219 478.6124,911.2388"/>
    <line x1="475.3312" x2="475.3312" y1="913.1332" y2="934.9662"/>
    <line x1="472.05" x2="472.05" y1="936.8605" y2="915.0276"/>
    <line x1="464.1696" x2="464.1696" y1="914.2665" y2="936.0995"/>
    <polyline points="462.3836,935.0684 420.7,959.1344 420.7,988.2383 477.1202,1020.8125"/>
    <line x1="474.6672" x2="474.6672" y1="1019.3962" y2="990.2924"/>
    <line x1="477.1202" x2="420.7" y1="991.7086" y2="959.1344"/>
    <line x1="423.1531" x2="423.1531" y1="960.5507" y2="989.6546"/>
    <line x1="425.6062" x2="425.6062" y1="991.0708" y2="961.967"/>
    <line x1="428.0592" x2="428.0592" y1="963.3832" y2="992.4871"/>
    <line x1="430.5123" x2="430.5123" y1="993.9034" y2="964.7995"/>
    <line x1="432.9653" x2="432.9653" y1="966.2158" y2="995.3196"/>
    <line x1="435.4184" x2="435.4184" y1="996.7359" y2="967.632"/>
    <line x1="437.8714" x2="437.8714" y1="969.0483" y2="998.1522"/>
    <line x1="440.3245" x2="440.3245" y1="999.5684" y2="970.4646"/>
    <line x1="442.7775" x2="442.7775" y1="971.8808" y2="1000.9847"/>
    <line x1="445.2306" x2="445.2306" y1="1002.401" y2="973.2971"/>
    <line x1="447.6836" x2="447.6836" y1="974.7134" y2="1003.8173"/>
    <line x1="450.1367" x2="450.1367" y1="1005.2335" y2="976.1297"/>
    <line x1="452.5897" x2="452.5897" y1="977.5459" y2="1006.6498"/>
    <line x1="455.0428" x2="455.0428" y1="1008.0661" y2="978.9622"/>
    <line x1="457.4958" x2="457.4958" y1="980.3785" y2="1009.4823"/>
    <line x1="459.9489" x2="459.9489" y1="1010.8986" y2="981.7947"/>
    <line x1="462.4019" x2="462.4019" y1="983.211" y2="1012.3149"/>
    <line x1="464.855" x2="464.855" y1="1013.7311" y2="984.6273"/>
    <line x1="467.308" x2="467.308" y1="986.0436" y2="1015.1474"/>
    <line x1="469.7611" x2="469.7611" y1="1016.5637" y2="987.4598"/>
    <line x1="472.2141" x2="472.2141" y1="988.8761" y2="1017.98"/>
    <line x1="481.9885" x2="481.9885" y1="1018.0018" y2="988.8979"/>
    <line x1="486.8568" x2="486.8568" y1="986.0872" y2="1015.1911"/>
    <line x1="491.7251" x2="491.7251" y1="1012.3804" y2="983.2765"/>
    <line x1="496.5934" x2="496.5934" y1="980.4658" y2="1009.5696"/>
    <line x1="501.4617" x2="501.4617" y1="1006.7589" y2="977.6551"/>
    <line x1="506.33" x2="506.33" y1="974.8444" y2="1003.9482"/>
    <line x1="511.1983" x2="511.1983" y1="1001.1375" y2="972.0336"/>
    <line x1="516.0666" x2="516.0666" y1="969.2229" y2="998.3268"/>
    <line x1="520.9349" x2="520.9349" y1="995.5161" y2="966.4122"/>
    <line x1="525.8032" x2="525.8032" y1="963.6015" y2="992.7054"/>
    <line x1="530.6715" x2="530.6715" y1="989.8946" y2="960.7908"/>
    <line x1="535.5398" x2="535.5398" y1="957.9801" y2="987.0839"/>
    <polyline points="540.4081,955.1694 477.1202,991.7086 477.1202,1020.8125 540.4081,984.2732 540.4081,955.1694 483.9879,922.5951 478.6124,925.6987"/>
    <line x1="461.8699" x2="461.8699" y1="934.7718" y2="912.9388"/>
    <line x1="459.5702" x2="459.5702" y1="911.6111" y2="933.4441"/>
    <line x1="457.2706" x2="457.2706" y1="932.1164" y2="910.2834"/>
    <line x1="454.9709" x2="454.9709" y1="908.9557" y2="930.7886"/>
    <line x1="452.6713" x2="452.6713" y1="929.4609" y2="907.628"/>
    <line x1="450.3716" x2="450.3716" y1="906.3002" y2="928.1332"/>
    <line x1="448.0719" x2="448.0719" y1="926.8055" y2="904.9725"/>
    <line x1="445.7723" x2="445.7723" y1="903.6448" y2="925.4778"/>
    <line x1="443.4726" x2="443.4726" y1="924.1501" y2="902.3171"/>
    <line x1="441.1729" x2="441.1729" y1="900.9894" y2="922.8224"/>
    <line x1="438.8733" x2="438.8733" y1="921.4947" y2="899.6617"/>
    <line x1="436.5736" x2="436.5736" y1="898.334" y2="920.167"/>
    <line x1="296.2296" x2="296.2296" y1="862.1776" y2="816.84"/>
    <line x1="293.7881" x2="293.7881" y1="815.4304" y2="860.768"/>
    <line x1="291.3465" x2="291.3465" y1="859.3584" y2="814.0208"/>
    <line x1="288.905" x2="288.905" y1="812.6112" y2="857.9488"/>
    <line x1="286.4635" x2="286.4635" y1="856.5392" y2="811.2015"/>
    <line x1="284.022" x2="284.022" y1="809.7919" y2="855.1296"/>
    <line x1="281.5805" x2="281.5805" y1="853.72" y2="808.3823"/>
    <line x1="279.1389" x2="279.1389" y1="806.9727" y2="852.3103"/>
    <line x1="393.0588" x2="393.0588" y1="658.2655" y2="621.9224"/>
    <line x1="395.0685" x2="395.0685" y1="620.7621" y2="544.9615"/>
    <line x1="399.6945" x2="399.6945" y1="542.2907" y2="618.0913"/>
    <line x1="400.3889" x2="400.3889" y1="617.6904" y2="662.4975"/>
    <line x1="402.8323" x2="402.8323" y1="663.9082" y2="616.2797"/>
    <line x1="397.9456" x2="397.9456" y1="619.1011" y2="661.0868"/>
    <line x1="395.5022" x2="395.5022" y1="659.6761" y2="620.5118"/>
    <line x1="475.8357" x2="475.8357" y1="624.5043" y2="700.7585"/>
    <line x1="480.424" x2="480.424" y1="698.1095" y2="621.8552"/>
    <line x1="485.0124" x2="485.0124" y1="619.2061" y2="695.4604"/>
    <line x1="489.6007" x2="489.6007" y1="692.8113" y2="616.557"/>
    <line x1="502.9735" x2="502.9735" y1="661.9509" y2="681.8681"/>
    <line x1="585.5137" x2="646.9305" y1="724.6302" y2="760.0892"/>
    <line x1="644.5683" x2="644.5683" y1="758.7254" y2="770.3532"/>
    <polyline points="646.9305,771.717 669.4188,758.7333 669.4188,747.1055 608.002,711.6465 585.5137,724.6302 585.5137,736.258 646.9305,771.717 646.9305,760.0892 669.4188,747.1055"/>
    <line x1="664.9212" x2="664.9212" y1="749.7022" y2="761.3301"/>
    <line x1="660.4235" x2="660.4235" y1="763.9268" y2="752.299"/>
    <line x1="655.9258" x2="655.9258" y1="754.8957" y2="766.5235"/>
    <line x1="651.4282" x2="651.4282" y1="769.1203" y2="757.4924"/>
    <line x1="642.2061" x2="642.2061" y1="757.3616" y2="768.9894"/>
    <line x1="639.8439" x2="639.8439" y1="767.6256" y2="755.9977"/>
    <line x1="637.4818" x2="637.4818" y1="754.6339" y2="766.2618"/>
    <line x1="635.1196" x2="635.1196" y1="764.898" y2="753.2701"/>
    <line x1="632.7574" x2="632.7574" y1="751.9063" y2="763.5341"/>
    <line x1="630.3952" x2="630.3952" y1="762.1703" y2="750.5425"/>
    <line x1="628.033" x2="628.033" y1="749.1787" y2="760.8065"/>
    <line x1="625.6708" x2="625.6708" y1="759.4427" y2="747.8149"/>
    <line x1="623.3086" x2="623.3086" y1="746.4511" y2="758.0789"/>
    <line x1="620.9465" x2="620.9465" y1="756.7151" y2="745.0873"/>
    <line x1="618.5843" x2="618.5843" y1="743.7235" y2="755.3513"/>
    <line x1="616.2221" x2="616.2221" y1="753.9875" y2="742.3597"/>
    <line x1="613.8599" x2="613.8599" y1="740.9959" y2="752.6237"/>
    <line x1="611.4977" x2="611.4977" y1="751.2599" y2="739.632"/>
    <line x1="609.1355" x2="609.1355" y1="738.2682" y2="749.8961"/>
    <line x1="606.7733" x2="606.7733" y1="748.5323" y2="736.9044"/>
    <line x1="604.4112" x2="604.4112" y1="735.5406" y2="747.1684"/>
    <line x1="602.049" x2="602.049" y1="745.8046" y2="734.1768"/>
    <line x1="599.6868" x2="599.6868" y1="732.813" y2="744.4408"/>
    <line x1="597.3246" x2="597.3246" y1="743.077" y2="731.4492"/>
    <line x1="594.9624" x2="594.9624" y1="730.0854" y2="741.7132"/>
    <line x1="592.6002" x2="592.6002" y1="740.3494" y2="728.7216"/>
    <line x1="590.238" x2="590.238" y1="727.3578" y2="738.9856"/>
    <line x1="587.8759" x2="587.8759" y1="737.6218" y2="725.994"/>
    <line x1="599.1821" x2="599.1821" y1="704.3952" y2="699.0872"/>
    <line x1="660.5941" x2="660.5941" y1="663.8802" y2="624.0424"/>
    <line x1="665.3925" x2="665.3925" y1="621.272" y2="661.1099"/>
    <line x1="670.1909" x2="670.1909" y1="658.3395" y2="618.5017"/>
    <line x1="674.9893" x2="674.9893" y1="615.7313" y2="655.5692"/>
    <line x1="679.7877" x2="679.7877" y1="652.7988" y2="612.961"/>
    <line x1="684.5861" x2="684.5861" y1="610.1906" y2="650.0284"/>
    <line x1="689.3845" x2="689.3845" y1="647.2581" y2="607.4202"/>
    <line x1="694.1829" x2="694.1829" y1="604.6499" y2="644.4877"/>
    <line x1="698.9813" x2="698.9813" y1="641.7174" y2="601.8795"/>
    <line x1="703.7797" x2="703.7797" y1="599.1092" y2="638.947"/>
    <line x1="708.5781" x2="708.5781" y1="636.1766" y2="596.3388"/>
    <line x1="713.3765" x2="713.3765" y1="593.5684" y2="633.4063"/>
    <line x1="718.1749" x2="718.1749" y1="630.6359" y2="590.7981"/>
    <line x1="722.9733" x2="722.9733" y1="588.0277" y2="627.8656"/>
    <line x1="727.7717" x2="727.7717" y1="625.0952" y2="585.2574"/>
    <line x1="732.5701" x2="732.5701" y1="582.487" y2="622.3249"/>
    <polyline points="737.3685,579.7167 646.1989,632.3535 646.1989,635.8703"/>
    <line x1="546.4076" x2="546.4076" y1="478.6083" y2="470.0703"/>
    <line x1="537.0581" x2="537.0581" y1="475.4682" y2="478.4084"/>
    <line x1="559.9125" x2="559.9125" y1="470.8112" y2="442.2194"/>
    <line x1="564.4142" x2="564.4142" y1="439.6204" y2="468.2122"/>
    <line x1="508.7684" x2="508.7684" y1="477.888" y2="489.0435"/>
    <line x1="506.3801" x2="506.3801" y1="487.6646" y2="476.5091"/>
    <line x1="503.9918" x2="503.9918" y1="475.1302" y2="486.2857"/>
    <line x1="501.6034" x2="501.6034" y1="484.9068" y2="473.7513"/>
    <line x1="499.2151" x2="499.2151" y1="472.3724" y2="483.5279"/>
    <polyline points="511.1567,490.4224 553.6049,465.915 553.6049,454.7594 484.3435,414.7714 441.8954,439.2788 441.8954,450.4343 511.1567,490.4224 511.1567,479.2669 441.8954,439.2788"/>
    <line x1="382.1526" x2="382.1526" y1="481.5164" y2="510.2588"/>
    <polyline points="345.7636,500.5306 345.8606,430.8288 442.6807,375.032 442.6807,299.0145 400.3012,274.5467"/>
    <polyline points="400.3012,248.9647 369.7448,266.6064 369.7448,269.7673"/>
    <line x1="367.684" x2="367.684" y1="268.5774" y2="265.4166"/>
    <line x1="365.6231" x2="365.6231" y1="264.2267" y2="267.3876"/>
    <line x1="370.9677" x2="370.9677" y1="275.507" y2="332.5434"/>
    <line x1="364.8994" x2="364.8994" y1="336.047" y2="340.6154"/>
    <line x1="343.5366" x2="343.4179" y1="353.4695" y2="469.0803"/>
    <line x1="338.5326" x2="338.5326" y1="466.2597" y2="426.5979"/>
    <line x1="335.5586" x2="332.0724" y1="424.8809" y2="426.8937"/>
    <line x1="328.4214" x2="328.4214" y1="429.1701" y2="325.1246"/>
    <line x1="329.7622" x2="329.7622" y1="321.6829" y2="286.9529"/>
    <line x1="300.1162" x2="290.1777" y1="294.9634" y2="289.2255"/>
    <line x1="292.4541" x2="292.4541" y1="290.5397" y2="299.3872"/>
    <line x1="294.7305" x2="294.7305" y1="298.0729" y2="291.854"/>
    <line x1="297.0069" x2="297.0069" y1="293.1683" y2="296.7586"/>
    <line x1="299.2833" x2="299.2833" y1="295.4443" y2="294.4826"/>
    <line x1="290.3217" x2="290.3217" y1="311.5595" y2="415.605"/>
    <line x1="289.7013" x2="289.7013" y1="415.2468" y2="423.3991"/>
    <line x1="294.4823" x2="294.4823" y1="420.6388" y2="418.0071"/>
    <line x1="295.0598" x2="295.0598" y1="418.3405" y2="314.295"/>
    <line x1="297.4289" x2="297.4289" y1="315.6628" y2="419.7083"/>
    <line x1="296.7614" x2="254.0204" y1="419.3229" y2="443.9994"/>
    <line x1="258.684" x2="258.684" y1="441.3069" y2="499.8741"/>
    <line x1="261.1345" x2="261.0157" y1="501.2889" y2="414.954"/>
    <line x1="265.7966" x2="265.7966" y1="412.1937" y2="437.2005"/>
    <line x1="266.0354" x2="266.0354" y1="437.0626" y2="504.1184"/>
    <line x1="268.4859" x2="268.4859" y1="505.5332" y2="435.6478"/>
    <line x1="270.5776" x2="270.5776" y1="434.4402" y2="409.4335"/>
    <line x1="275.105" x2="239.5659" y1="406.8196" y2="427.3381"/>
    <line x1="241.8919" x2="241.8919" y1="425.9951" y2="428.6811"/>
    <line x1="246.6729" x2="246.6729" y1="431.4413" y2="423.2349"/>
    <line x1="263.585" x2="263.585" y1="438.4774" y2="502.7036"/>
    <polyline points="270.9364,506.948 270.9527,434.2236 302.7924,452.6063 302.7924,492.1085"/>
    <line x1="300.3419" x2="300.3419" y1="493.5233" y2="451.1915"/>
    <line x1="302.7924" x2="336.0899" y1="452.6063" y2="433.3819"/>
    <line x1="331.4398" x2="331.4398" y1="436.0666" y2="497.5422"/>
    <line x1="336.2144" x2="336.2144" y1="500.2988" y2="464.9213"/>
    <line x1="321.8907" x2="321.8907" y1="441.5798" y2="492.029"/>
    <line x1="317.1161" x2="317.1161" y1="489.2724" y2="444.3364"/>
    <line x1="312.3415" x2="312.3415" y1="447.0931" y2="486.5953"/>
    <line x1="307.5669" x2="307.5669" y1="489.3519" y2="449.8497"/>
    <line x1="297.8914" x2="297.8914" y1="449.7767" y2="494.938"/>
    <line x1="295.441" x2="295.441" y1="496.3528" y2="448.3619"/>
    <line x1="292.9905" x2="292.9905" y1="446.9472" y2="497.7676"/>
    <line x1="290.54" x2="290.54" y1="499.1824" y2="445.5324"/>
    <line x1="288.0896" x2="288.0896" y1="444.1176" y2="500.5971"/>
    <line x1="285.6391" x2="285.6391" y1="502.0119" y2="442.7028"/>
    <line x1="283.1887" x2="283.1887" y1="441.2881" y2="503.4267"/>
    <line x1="280.7382" x2="280.7382" y1="504.8415" y2="439.8733"/>
    <line x1="278.2877" x2="278.2877" y1="438.4585" y2="506.2562"/>
    <line x1="275.8373" x2="275.8373" y1="507.671" y2="437.0437"/>
    <line x1="280.1395" x2="280.1395" y1="428.9196" y2="409.7262"/>
    <line x1="280.8456" x2="280.8456" y1="410.1339" y2="306.0884"/>
    <line x1="283.2146" x2="283.2146" y1="307.4562" y2="411.5017"/>
    <line x1="284.9204" x2="284.9204" y1="412.4865" y2="426.1593"/>
    <line x1="292.6908" x2="292.6908" y1="416.9727" y2="312.9272"/>
    <line x1="287.9527" x2="287.9527" y1="310.1917" y2="414.2372"/>
    <line x1="285.5837" x2="285.5837" y1="412.8694" y2="308.8239"/>
    <line x1="278.4765" x2="278.4765" y1="304.7206" y2="408.7661"/>
    <line x1="299.7979" x2="299.7979" y1="421.076" y2="317.0305"/>
    <line x1="302.1669" x2="302.1669" y1="318.3983" y2="422.4438"/>
    <line x1="304.536" x2="304.536" y1="423.8116" y2="319.7661"/>
    <line x1="306.905" x2="306.905" y1="321.1338" y2="425.1793"/>
    <polyline points="309.0964,426.4445 309.0964,427.8061 319.7942,433.9825"/>
    <line x1="317.6547" x2="317.6547" y1="432.7472" y2="431.3856"/>
    <line x1="316.3812" x2="316.3812" y1="430.6504" y2="326.6049"/>
    <line x1="314.0122" x2="314.0122" y1="325.2371" y2="429.2826"/>
    <line x1="313.3755" x2="313.3755" y1="428.9151" y2="430.2767"/>
    <line x1="315.5151" x2="315.5151" y1="430.1503" y2="431.5119"/>
    <line x1="311.2359" x2="311.2359" y1="429.0414" y2="427.6798"/>
    <line x1="311.6431" x2="311.6431" y1="427.9149" y2="323.8694"/>
    <line x1="309.2741" x2="309.2741" y1="322.5016" y2="426.5471"/>
    <line x1="324.7703" x2="324.7703" y1="431.278" y2="327.2325"/>
    <line x1="257.039" x2="257.039" y1="354.1774" y2="376.8101"/>
    <line x1="254.6337" x2="254.6337" y1="375.4214" y2="352.7887"/>
    <line x1="252.2284" x2="252.2284" y1="351.4" y2="374.0327"/>
    <line x1="249.8231" x2="249.8231" y1="372.644" y2="350.0113"/>
    <line x1="247.4178" x2="247.4178" y1="348.6226" y2="371.2553"/>
    <line x1="245.0125" x2="245.0125" y1="369.8666" y2="347.2339"/>
    <line x1="242.6072" x2="242.6072" y1="345.8452" y2="368.4779"/>
    <line x1="240.2019" x2="240.2019" y1="367.0892" y2="344.4565"/>
    <line x1="237.7966" x2="237.7966" y1="343.0678" y2="365.7005"/>
    <line x1="235.3913" x2="235.3913" y1="364.3118" y2="341.6791"/>
    <line x1="232.986" x2="232.986" y1="340.2904" y2="362.9231"/>
    <line x1="230.5807" x2="230.5807" y1="361.5344" y2="338.9017"/>
    <line x1="228.1754" x2="228.1754" y1="337.513" y2="360.1457"/>
    <line x1="225.7701" x2="225.7701" y1="358.757" y2="336.1243"/>
    <line x1="223.3648" x2="223.3648" y1="334.7356" y2="357.3683"/>
    <line x1="220.9595" x2="220.9595" y1="355.9796" y2="333.3469"/>
    <line x1="218.5542" x2="218.5542" y1="331.9582" y2="354.5909"/>
    <line x1="216.1488" x2="216.1488" y1="353.2022" y2="330.5694"/>
    <line x1="213.7435" x2="213.7435" y1="329.1807" y2="351.8135"/>
    <line x1="211.3382" x2="211.3382" y1="350.4248" y2="327.792"/>
    <line x1="208.9329" x2="208.9329" y1="326.4033" y2="349.0361"/>
    <line x1="206.5276" x2="206.5276" y1="347.6474" y2="325.0146"/>
    <line x1="206.6593" x2="206.6593" y1="322.1612" y2="310.3962"/>
    <line x1="209.1019" x2="209.1019" y1="311.8064" y2="320.751"/>
    <line x1="211.5445" x2="211.5445" y1="319.3408" y2="313.2166"/>
    <line x1="213.987" x2="213.987" y1="314.6269" y2="317.9305"/>
    <line x1="216.4296" x2="216.4296" y1="316.5203" y2="316.0371"/>
    <line x1="216.8481" x2="170.0204" y1="316.2787" y2="289.2427"/>
    <line x1="172.463" x2="172.463" y1="290.653" y2="315.3395"/>
    <line x1="174.9056" x2="174.9056" y1="316.7497" y2="292.0632"/>
    <line x1="177.3482" x2="177.3482" y1="293.4734" y2="318.16"/>
    <line x1="179.7908" x2="179.7908" y1="319.5702" y2="294.8837"/>
    <line x1="182.2334" x2="182.2334" y1="296.2939" y2="320.9804"/>
    <line x1="184.676" x2="184.676" y1="322.3907" y2="297.7041"/>
    <line x1="187.1186" x2="187.1186" y1="299.1143" y2="323.8009"/>
    <line x1="189.5611" x2="189.5611" y1="325.2111" y2="300.5246"/>
    <line x1="192.0037" x2="192.0037" y1="301.9348" y2="326.6214"/>
    <line x1="194.4463" x2="194.4463" y1="328.0316" y2="303.345"/>
    <line x1="196.8889" x2="196.8889" y1="304.7553" y2="329.4418"/>
    <line x1="199.3315" x2="199.3315" y1="330.852" y2="306.1655"/>
    <polyline points="204.1223,337.9422 202.3411,336.9138 135.4079,375.5577 135.4079,400.5644 138.5685,402.3891"/>
    <line x1="137.831" x2="137.831" y1="401.9633" y2="376.9566"/>
    <line x1="135.4079" x2="160.2249" y1="375.5577" y2="389.8858"/>
    <line x1="159.6385" x2="159.6385" y1="389.5472" y2="390.2244"/>
    <line x1="157.2154" x2="157.2154" y1="391.6233" y2="388.1482"/>
    <line x1="154.7924" x2="154.7924" y1="386.7493" y2="393.0223"/>
    <line x1="152.3693" x2="152.3693" y1="394.4212" y2="385.3503"/>
    <line x1="149.9463" x2="149.9463" y1="383.9514" y2="395.8202"/>
    <line x1="147.5232" x2="147.5232" y1="397.2191" y2="382.5524"/>
    <line x1="145.1002" x2="145.1002" y1="381.1535" y2="398.6181"/>
    <line x1="142.6771" x2="142.6771" y1="400.017" y2="379.7545"/>
    <line x1="140.2541" x2="140.2541" y1="378.3556" y2="401.416"/>
    <line x1="326.6653" x2="326.6653" y1="438.8232" y2="494.7856"/>
    <line x1="377.984" x2="377.984" y1="252.3309" y2="244.6639"/>
    <line x1="375.5511" x2="384.6238" y1="243.2593" y2="248.4974"/>
    <line x1="382.8498" x2="382.8498" y1="247.4732" y2="249.5216"/>
    <line x1="380.4169" x2="380.4169" y1="250.9262" y2="246.0685"/>
    <line x1="386.3048" x2="386.3048" y1="237.0506" y2="223.6167"/>
    <line x1="385.2786" x2="385.2786" y1="223.0243" y2="176.251"/>
    <line x1="382.8838" x2="382.8838" y1="174.8683" y2="221.6416"/>
    <line x1="380.4889" x2="380.4889" y1="220.2589" y2="173.4856"/>
    <line x1="378.094" x2="378.094" y1="172.103" y2="218.8762"/>
    <line x1="387.6735" x2="387.6735" y1="224.4069" y2="177.6337"/>
    <line x1="390.0684" x2="390.0684" y1="179.0164" y2="225.7896"/>
    <line x1="391.0423" x2="391.0423" y1="226.3519" y2="234.3154"/>
    <line x1="393.411" x2="393.411" y1="232.9479" y2="227.7195"/>
    <line x1="392.4633" x2="392.4633" y1="227.1723" y2="180.399"/>
    <line x1="394.8581" x2="394.8581" y1="181.7817" y2="228.555"/>
    <line x1="395.7797" x2="395.7797" y1="229.0871" y2="231.5803"/>
    <line x1="388.6735" x2="388.6735" y1="235.683" y2="224.9843"/>
    <line x1="425.9915" x2="375.6992" y1="199.7565" y2="170.7203"/>
    <polyline points="388.4902,163.3353 388.4902,158.0917 430.6032,133.7778 435.1443,136.3996"/>
    <line x1="393.0314" x2="388.4902" y1="160.7135" y2="158.0917"/>
    <line x1="390.9242" x2="390.9242" y1="159.4969" y2="161.9301"/>
    <polyline points="339.4576,145.461 292.2512,172.7157 292.2512,215.1746 216.4673,171.4208 216.4673,128.9618 263.6737,101.7072 339.4576,145.461 339.4576,187.92 292.2512,215.1746"/>
    <line x1="289.8065" x2="289.8065" y1="213.7632" y2="171.3042"/>
    <line x1="292.2512" x2="216.4673" y1="172.7157" y2="128.9618"/>
    <line x1="218.9119" x2="218.9119" y1="130.3732" y2="172.8322"/>
    <line x1="221.3566" x2="221.3566" y1="174.2436" y2="131.7846"/>
    <line x1="223.8012" x2="223.8012" y1="133.1961" y2="175.655"/>
    <line x1="226.2459" x2="226.2459" y1="177.0664" y2="134.6075"/>
    <line x1="228.6905" x2="228.6905" y1="136.0189" y2="178.4779"/>
    <line x1="231.1352" x2="231.1352" y1="179.8893" y2="137.4303"/>
    <line x1="233.5798" x2="233.5798" y1="138.8417" y2="181.3007"/>
    <line x1="236.0244" x2="236.0244" y1="182.7121" y2="140.2531"/>
    <line x1="238.4691" x2="238.4691" y1="141.6645" y2="184.1235"/>
    <line x1="240.9137" x2="240.9137" y1="185.5349" y2="143.076"/>
    <line x1="243.3584" x2="243.3584" y1="144.4874" y2="186.9463"/>
    <line x1="245.803" x2="245.803" y1="188.3578" y2="145.8988"/>
    <line x1="248.2476" x2="248.2476" y1="147.3102" y2="189.7692"/>
    <line x1="250.6923" x2="250.6923" y1="191.1806" y2="148.7216"/>
    <line x1="253.1369" x2="253.1369" y1="150.133" y2="192.592"/>
    <line x1="255.5816" x2="255.5816" y1="194.0034" y2="151.5444"/>
    <line x1="258.0262" x2="258.0262" y1="152.9559" y2="195.4148"/>
    <line x1="260.4708" x2="260.4708" y1="196.8262" y2="154.3673"/>
    <line x1="262.9155" x2="262.9155" y1="155.7787" y2="198.2377"/>
    <line x1="265.3601" x2="265.3601" y1="199.6491" y2="157.1901"/>
    <line x1="267.8048" x2="267.8048" y1="158.6015" y2="201.0605"/>
    <line x1="270.2494" x2="270.2494" y1="202.4719" y2="160.0129"/>
    <line x1="272.6941" x2="272.6941" y1="161.4243" y2="203.8833"/>
    <line x1="275.1387" x2="275.1387" y1="205.2947" y2="162.8358"/>
    <line x1="277.5833" x2="277.5833" y1="164.2472" y2="206.7061"/>
    <line x1="280.028" x2="280.028" y1="208.1176" y2="165.6586"/>
    <line x1="282.4726" x2="282.4726" y1="167.07" y2="209.529"/>
    <line x1="284.9173" x2="284.9173" y1="210.9404" y2="168.4814"/>
    <line x1="287.3619" x2="287.3619" y1="169.8928" y2="212.3518"/>
    <line x1="296.9718" x2="296.9718" y1="212.4492" y2="169.9902"/>
    <line x1="301.6925" x2="301.6925" y1="167.2647" y2="209.7237"/>
    <line x1="306.4131" x2="306.4131" y1="206.9982" y2="164.5393"/>
    <line x1="311.1337" x2="311.1337" y1="161.8138" y2="204.2728"/>
    <line x1="315.8544" x2="315.8544" y1="201.5473" y2="159.0883"/>
    <line x1="320.575" x2="320.575" y1="156.3629" y2="198.8218"/>
    <line x1="325.2957" x2="325.2957" y1="196.0964" y2="153.6374"/>
    <line x1="330.0163" x2="330.0163" y1="150.912" y2="193.3709"/>
    <line x1="334.7369" x2="334.7369" y1="190.6455" y2="148.1865"/>
    <line x1="602.8141" x2="615.175" y1="851.7493" y2="858.8859"/>
    <line x1="613.1149" x2="613.1149" y1="857.6964" y2="934.1078"/>
    <polyline points="615.175,935.2972 679.9907,897.8759 679.9907,821.4645 667.6298,814.3279 602.8141,851.7493 602.8141,928.1607 615.175,935.2972 615.175,858.8859 679.9907,821.4645"/>
    <line x1="675.361" x2="675.361" y1="824.1375" y2="900.5488"/>
    <line x1="670.7313" x2="670.7313" y1="903.2218" y2="826.8104"/>
    <line x1="666.1017" x2="666.1017" y1="829.4834" y2="905.8947"/>
    <line x1="661.472" x2="661.472" y1="908.5677" y2="832.1563"/>
    <line x1="656.8423" x2="656.8423" y1="834.8293" y2="911.2407"/>
    <line x1="652.2126" x2="652.2126" y1="913.9136" y2="837.5022"/>
    <line x1="647.5829" x2="647.5829" y1="840.1752" y2="916.5866"/>
    <line x1="642.9532" x2="642.9532" y1="919.2595" y2="842.8481"/>
    <line x1="638.3235" x2="638.3235" y1="845.5211" y2="921.9325"/>
    <line x1="633.6938" x2="633.6938" y1="924.6054" y2="848.194"/>
    <line x1="629.0641" x2="629.0641" y1="850.867" y2="927.2784"/>
    <line x1="624.4344" x2="624.4344" y1="929.9513" y2="853.5399"/>
    <line x1="619.8047" x2="619.8047" y1="856.2129" y2="932.6243"/>
    <line x1="611.0547" x2="611.0547" y1="932.9184" y2="856.507"/>
    <line x1="608.9946" x2="608.9946" y1="855.3176" y2="931.729"/>
    <line x1="606.9344" x2="606.9344" y1="930.5395" y2="854.1281"/>
    <line x1="604.8743" x2="604.8743" y1="852.9387" y2="929.3501"/>
  </g>
</svg>
