<?xml version="1.0" encoding="utf-8" ?>
<svg xmlns="http://www.w3.org/2000/svg" xmlns:cc="http://creativecommons.org/ns#" xmlns:dc="http://purl.org/dc/elements/1.1/" xmlns:ev="http://www.w3.org/2001/xml-events" xmlns:inkscape="http://www.inkscape.org/namespaces/inkscape" xmlns:rdf="http://www.w3.org/1999/02/22-rdf-syntax-ns#" xmlns:sodipodi="http://sodipodi.sourceforge.net/DTD/sodipodi-0.dtd" xmlns:xlink="http://www.w3.org/1999/xlink" baseProfile="tiny" height="29.7cm" version="1.2" viewBox="0 0 793.7007874015749 1122.5196850393702" width="21.0cm">
  <metadata>
    <rdf:RDF>
      <cc:Work>
        <dc:format>image/svg+xml</dc:format>
        <dc:source/>
        <dc:date>2021-12-10T22:43:38.391409</dc:date>
      </cc:Work>
    </rdf:RDF>
  </metadata>
  <defs/>
  <g fill="none" id="layer1" inkscape:groupmode="layer" inkscape:label="1" stroke="#00f" style="display:inline">
    <polyline points="465.3422,682.0182 477.3652,675.0767 488.5914,681.5582"/>
    <line x1="483.8245" x2="508.8869" y1="684.3104" y2="698.7802"/>
    <polyline points="497.5348,722.6418 487.2373,728.587 487.2373,777.8317 478.1365,772.5774 478.1365,723.3327 488.434,717.3875 497.5348,722.6418 497.5348,771.8865 487.2373,777.8317"/>
    <polyline points="491.1352,775.5813 491.1352,802.6758 449.7091,826.5932 449.7091,791.9318 443.3478,788.2591"/>
    <line x1="449.7091" x2="480.6842" y1="791.9318" y2="774.0483"/>
    <polyline points="493.1006,774.4465 510.9814,784.77 510.9814,798.7455 502.7474,803.4994 502.7474,789.524 510.9814,784.77"/>
    <line x1="502.7474" x2="491.1352" y1="789.524" y2="782.8197"/>
    <line x1="494.3294" x2="539.2798" y1="773.7371" y2="799.6892"/>
    <line x1="502.7474" x2="491.1352" y1="803.4994" y2="796.7951"/>
    <line x1="478.1365" x2="465.413" y1="760.5096" y2="753.1637"/>
    <line x1="465.413" x2="478.1365" y1="751.6396" y2="744.2937"/>
    <line x1="487.2373" x2="478.1365" y1="728.587" y2="723.3327"/>
    <polyline points="483.5707,720.1953 465.7833,709.9257 465.3422,710.1804"/>
    <polyline points="474.4224,714.9135 474.4224,687.6211 465.3422,682.3787"/>
    <polyline points="465.3422,680.8919 427.5591,702.706 427.5591,740.4358"/>
    <polyline points="426.8035,740.872 438.0177,747.3466 465.413,731.5299 465.3422,680.8919 444.9076,669.0939 410.6066,688.8976"/>
    <line x1="410.6066" x2="427.5591" y1="692.9185" y2="702.706"/>
    <polyline points="410.6066,681.246 378.5465,699.7559 378.5465,748.1613 337.9542,724.7253 337.9542,676.3199 370.0143,657.81 410.6066,681.246 410.6066,729.6514 378.5465,748.1613"/>
    <polyline points="392.0037,740.3918 392.0037,773.4083 418.2406,758.2604"/>
    <polyline points="418.2406,760.2538 406.5409,767.0086 406.5409,796.2796"/>
    <line x1="406.5409" x2="398.4271" y1="774.3842" y2="769.6997"/>
    <polyline points="392.0037,773.4083 355.4008,752.2756 355.4008,734.7981"/>
    <polyline points="337.9542,718.9575 325.4074,726.2014 325.4074,677.6441 282.4771,652.8582"/>
    <line x1="311.9791" x2="338.5156" y1="644.6609" y2="659.9817"/>
    <polyline points="338.5156,675.9958 338.5156,659.9817 362.7967,645.963"/>
    <polyline points="362.7967,661.9771 362.7967,645.963 336.2602,630.6422 311.9791,644.6609 311.9791,664.9529 337.9542,679.9496"/>
    <line x1="337.9542" x2="378.5465" y1="676.3199" y2="699.7559"/>
    <polyline points="406.6117,678.9395 432.9986,663.705 443.62,669.8373"/>
    <line x1="465.3422" x2="474.4224" y1="692.8635" y2="687.6211"/>
    <line x1="474.4224" x2="483.8245" y1="694.2019" y2="688.7736"/>
    <polyline points="499.8274,669.8196 462.115,648.0463 462.115,621.2192"/>
    <polyline points="459.6654,604.5038 498.8327,627.117 498.8327,642.4182 459.6654,619.805 459.6654,604.5038 507.1246,577.1033 546.2919,599.7165 546.2919,615.0176 498.8327,642.4182"/>
    <polyline points="499.8274,641.8439 499.8274,669.8196 543.9938,644.32 543.9938,616.3444"/>
    <polyline points="546.2919,612.797 548.1142,611.7448 589.7087,635.7594 589.7087,654.8096"/>
    <line x1="599.682" x2="589.7087" y1="649.0516" y2="643.2935"/>
    <line x1="589.7087" x2="553.6099" y1="635.7594" y2="656.6011"/>
    <polyline points="553.6099,664.9489 553.6099,656.6011 538.1661,647.6847"/>
    <line x1="555.1662" x2="535.3809" y1="665.8475" y2="677.2705"/>
    <polyline points="540.7619,680.3771 508.8869,698.7802 508.8869,747.3183 540.7619,728.9153 540.7619,680.3771 515.6995,665.9074 483.8245,684.3104 483.8245,720.0487"/>
    <line x1="497.5348" x2="508.8869" y1="740.7642" y2="747.3183"/>
    <line x1="524.1436" x2="539.2798" y1="738.5098" y2="747.2487"/>
    <polyline points="551.3227,740.2958 539.2798,747.2487 539.2798,799.6892 551.3227,792.7362 551.3227,740.2958 536.1865,731.5569"/>
    <line x1="540.7619" x2="577.0177" y1="717.9744" y2="738.9067"/>
    <polyline points="613.4495,717.8728 577.0177,738.9067 577.0177,689.0209 577.2227,688.9026"/>
    <line x1="577.0177" x2="569.7933" y1="689.0209" y2="684.8499"/>
    <polyline points="577.2227,680.5605 553.6099,694.1934 553.6099,685.6432"/>
    <line x1="553.6099" x2="546.2052" y1="694.1934" y2="689.9183"/>
    <polyline points="540.7619,693.061 555.1662,684.7447 555.1662,665.8475 545.9974,660.5538 526.2121,671.9768"/>
    <line x1="512.0153" x2="512.0153" y1="668.0344" y2="662.7828"/>
    <line x1="498.8327" x2="546.2919" y1="627.117" y2="599.7165"/>
    <polyline points="574.9012,608.7971 607.5599,589.9416 607.5599,553.9189 589.7773,543.6521 557.1186,562.5076 557.1186,598.5303 574.9012,608.7971 574.9012,572.7745 607.5599,553.9189"/>
    <polyline points="600.6317,549.9189 609.988,544.5171 609.988,530.0145 565.0564,504.0733 533.8379,522.0973 533.8379,536.5998 567.9151,556.2743"/>
    <line x1="557.1186" x2="574.9012" y1="562.5076" y2="572.7745"/>
    <polyline points="578.7695,550.0075 578.7695,548.0385 533.8379,522.0973"/>
    <line x1="531.1633" x2="505.1172" y1="497.3758" y2="482.3381"/>
    <polyline points="512.5934,486.6544 512.5934,501.1398 503.3588,506.4713"/>
    <line x1="503.3588" x2="462.3834" y1="504.1203" y2="527.7775"/>
    <polyline points="469.6962,538.0607 489.2163,549.3307 489.2163,587.4426"/>
    <polyline points="478.7829,593.4664 478.7829,555.3544 430.1752,527.2908"/>
    <line x1="431.8415" x2="404.3672" y1="524.6494" y2="540.5117"/>
    <polyline points="404.3672,546.5942 404.3672,540.5117 391.0503,532.8232"/>
    <line x1="391.0503" x2="375.0829" y1="518.8518" y2="528.0706"/>
    <line x1="361.242" x2="320.3663" y1="539.5152" y2="563.1148"/>
    <line x1="305.2772" x2="293.0146" y1="533.3423" y2="526.2625"/>
    <line x1="283.5509" x2="261.8978" y1="531.7263" y2="519.2249"/>
    <polyline points="251.7151,525.1039 266.8493,516.3661 266.8493,473.7909 255.0155,466.9586 239.8813,475.6964 239.8813,518.2716 251.7151,525.1039 251.7151,482.5287 266.8493,473.7909"/>
    <polyline points="264.557,472.4674 264.557,455.6416 250.2752,447.396 221.6644,463.9144 221.6644,506.155 235.9462,514.4007"/>
    <polyline points="239.8813,512.1288 235.9462,514.4007 235.9462,472.1601 221.6644,463.9144"/>
    <line x1="235.9462" x2="264.557" y1="472.1601" y2="455.6416"/>
    <polyline points="268.2651,447.0056 283.2251,455.6428 283.2251,458.3575"/>
    <line x1="283.2251" x2="313.5397" y1="455.6428" y2="438.1406"/>
    <line x1="313.5397" x2="330.5144" y1="443.1343" y2="452.7692"/>
    <polyline points="330.5144,451.2159 376.0641,477.5141 376.0641,505.925 423.3458,478.6269 423.3458,450.216 414.5521,445.1389"/>
    <line x1="423.3458" x2="376.0641" y1="450.216" y2="477.5141"/>
    <polyline points="383.4488,501.6614 383.4488,506.2897 402.8882,517.513"/>
    <line x1="413.1133" x2="424.5964" y1="511.6095" y2="518.2393"/>
    <polyline points="433.2959,525.4891 430.1752,527.2908 430.1752,566.7373 477.6272,594.1336"/>
    <polyline points="464.9951,586.8405 434.0079,604.731 434.0079,596.6624"/>
    <line x1="434.0079" x2="427.0203" y1="604.731" y2="600.6967"/>
    <line x1="416.1827" x2="404.0791" y1="606.9537" y2="599.9657"/>
    <polyline points="416.1827,592.9777 416.1827,606.9537 435.1258,596.017 435.1258,569.5955"/>
    <line x1="430.5854" x2="420.8392" y1="566.9741" y2="572.6011"/>
    <line x1="420.8392" x2="401.6995" y1="565.314" y2="576.3643"/>
    <line x1="408.3799" x2="385.1724" y1="580.2213" y2="593.6201"/>
    <polyline points="377.1934,603.7417 377.1934,615.4882 420.8392,590.2892 420.8392,565.314 411.7463,560.0642 392.6066,571.1145"/>
    <line x1="400.779" x2="379.0751" y1="566.3961" y2="553.8654"/>
    <line x1="381.3656" x2="381.3656" y1="552.543" y2="547.114"/>
    <line x1="375.0829" x2="361.242" y1="550.7413" y2="542.7502"/>
    <line x1="361.9778" x2="361.9778" y1="543.175" y2="557.1457"/>
    <line x1="361.242" x2="379.2683" y1="556.7209" y2="567.1284"/>
    <polyline points="379.0751,567.0169 379.0751,553.8654 398.0182,542.9286 430.1752,561.4945"/>
    <line x1="430.1752" x2="410.7787" y1="539.0973" y2="550.2959"/>
    <line x1="435.1258" x2="448.6745" y1="585.2402" y2="577.4178"/>
    <line x1="478.7829" x2="489.2163" y1="555.3544" y2="549.3307"/>
    <polyline points="462.3834,542.2828 503.3588,518.6256 503.3588,504.1203 465.5719,482.304 424.5964,505.9612 424.5964,520.4665 462.3834,542.2828 462.3834,527.7775 424.5964,505.9612"/>
    <line x1="442.0445" x2="442.0445" y1="495.8875" y2="454.4372"/>
    <line x1="433.8712" x2="423.3458" y1="464.9209" y2="470.9978"/>
    <polyline points="423.3458,458.8441 433.8712,464.9209 433.8712,499.6249 402.8882,517.513 402.8882,490.4381"/>
    <polyline points="376.0641,505.925 330.5144,479.6269 330.5144,451.2159 363.2889,432.2936"/>
    <polyline points="357.6618,429.0448 349.9621,433.4902 349.9621,386.7114 398.5519,358.6581"/>
    <line x1="398.5519" x2="418.7472" y1="365.211" y2="353.5513"/>
    <polyline points="418.7472,360.0642 420.3164,360.9702 420.3164,378.5831 400.9313,389.7751 400.9313,375.9647"/>
    <polyline points="398.5519,377.3384 418.7472,365.6787 418.7472,353.5513 374.5511,328.0346 344.0656,345.6355 344.0656,357.7629 363.896,369.212"/>
    <line x1="374.3987" x2="344.0656" y1="363.1483" y2="345.6355"/>
    <polyline points="347.4324,343.6916 347.4324,340.4683 328.5137,329.5456"/>
    <polyline points="323.8329,325.0266 323.8329,342.2717 275.5926,370.1232 275.5926,325.0435 261.427,316.8649"/>
    <line x1="275.5926" x2="295.0455" y1="325.0435" y2="313.8124"/>
    <polyline points="280.8798,305.6338 261.427,316.8649 261.427,361.9446 275.5926,370.1232"/>
    <line x1="255.4666" x2="244.7792" y1="378.1796" y2="384.35"/>
    <polyline points="244.7792,400.9538 255.4666,394.7834 255.4666,378.1796 214.968,354.7977 204.2806,360.9681 204.2806,377.5719 244.7792,400.9538 244.7792,384.35 204.2806,360.9681"/>
    <line x1="206.9816" x2="199.3146" y1="379.1313" y2="383.5578"/>
    <polyline points="199.3146,381.9291 162.563,403.1477 162.563,423.6264 115.3516,396.3689 115.3516,375.8902 152.1033,354.6717 199.3146,381.9291 199.3146,402.4079 162.563,423.6264"/>
    <polyline points="152.5709,417.8575 136.3527,427.221 136.3527,463.8027 150.0257,471.6968"/>
    <line x1="150.0257" x2="196.6228" y1="435.1151" y2="408.2123"/>
    <polyline points="192.9419,406.0871 196.6228,408.2123 196.6228,444.7939 150.0257,471.6968 150.0257,435.1151 136.3527,427.221"/>
    <line x1="162.563" x2="115.3516" y1="403.1477" y2="375.8902"/>
    <polyline points="159.0642,358.6906 159.0642,318.8491 174.1577,310.1348"/>
    <line x1="174.1577" x2="135.8726" y1="306.6399" y2="284.5359"/>
    <line x1="174.1577" x2="198.3847" y1="298.5779" y2="312.5654"/>
    <polyline points="206.9309,307.6312 198.3847,312.5654 198.3847,324.5147 174.1577,310.5273 174.1577,298.5779 182.7039,293.6438 206.9309,307.6312 206.9309,319.5806 198.3847,324.5147"/>
    <line x1="187.2292" x2="159.0642" y1="335.1101" y2="318.8491"/>
    <polyline points="159.0642,342.49 135.8726,329.1003 135.8726,284.5359 150.6097,276.0274 181.913,294.1004"/>
    <polyline points="192.7125,299.4222 196.2234,297.3952 224.3884,313.6563 224.3884,360.2366"/>
    <polyline points="187.2292,374.9516 187.2292,335.1101 224.3884,313.6563"/>
    <polyline points="277.8971,271.1702 277.8971,303.9118 319.1509,327.7297"/>
    <line x1="347.4324" x2="389.0838" y1="340.4683" y2="316.4208"/>
    <polyline points="381.9802,312.3196 389.0838,316.4208 389.0742,336.4195"/>
    <polyline points="367.1043,320.9082 411.4401,295.3109 411.4401,281.1088 379.241,262.5186 334.9052,288.1159 334.9052,302.318 367.1043,320.9082 367.1043,306.7061 334.9052,288.1159"/>
    <line x1="319.1509" x2="366.8641" y1="283.3071" y2="255.7599"/>
    <polyline points="366.8641,269.6644 366.8641,255.7599 325.6103,231.942 317.6272,236.551"/>
    <polyline points="317.6272,219.3128 300.1682,229.3928 300.1682,284.0285 271.4683,267.4586 271.4683,212.8229 288.9273,202.7429 317.6272,219.3128 317.6272,273.9485 300.1682,284.0285"/>
    <polyline points="310.2843,278.1879 319.1509,283.3071 319.1509,327.7297 349.0352,310.476"/>
    <polyline points="355.2892,314.0868 328.5137,329.5456 328.5137,349.5387 347.4324,360.4614"/>
    <polyline points="347.4324,359.7067 347.4324,360.4614 348.086,360.0841"/>
    <line x1="341.7742" x2="349.9621" y1="381.984" y2="386.7114"/>
    <line x1="354.4114" x2="400.0449" y1="387.9652" y2="414.3118"/>
    <line x1="417.839" x2="421.7687" y1="417.7122" y2="415.4433"/>
    <polyline points="421.7687,410.4391 456.404,430.4358 456.404,462.7277 421.7687,442.731 421.7687,410.4391 446.4192,396.2071 481.0544,416.2038 481.0544,448.4957 456.404,462.7277"/>
    <line x1="459.8528" x2="468.0763" y1="460.7364" y2="465.4843"/>
    <line x1="468.0763" x2="483.0325" y1="456.7044" y2="465.3394"/>
    <polyline points="468.0763,483.7499 468.0763,456.7044 500.4515,438.0125 515.4078,446.6475 515.4078,476.3968 485.3741,493.7368"/>
    <polyline points="483.0325,492.3849 483.0325,465.3394 515.4078,446.6475"/>
    <polyline points="504.3809,440.2812 504.3809,428.5374 542.4883,406.5361 569.2707,421.9989 569.2707,475.3745 531.1633,497.3758 531.1633,444.0002 569.2707,421.9989"/>
    <polyline points="587.3095,392.2283 633.9842,365.2807 633.9842,329.5874 601.9373,311.0851 555.2627,338.0327 555.2627,373.726 587.3095,392.2283 587.3095,356.535 555.2627,338.0327"/>
    <polyline points="555.7416,319.4282 579.1753,305.8988 579.1753,293.0802 567.5863,286.3893 544.1526,299.9187 544.1526,312.7373 555.7416,319.4282 555.7416,306.6096 579.1753,293.0802"/>
    <line x1="555.7416" x2="544.1526" y1="306.6096" y2="299.9187"/>
    <polyline points="544.7143,272.0061 564.8097,260.404 564.8097,214.226 538.8501,199.2383 518.7547,210.8404 518.7547,257.0183 544.7143,272.0061 544.7143,225.8281 564.8097,214.226"/>
    <line x1="544.7143" x2="518.7547" y1="225.8281" y2="210.8404"/>
    <line x1="508.3737" x2="500.0496" y1="186.0474" y2="190.8533"/>
    <line x1="500.0496" x2="470.6547" y1="181.594" y2="198.5652"/>
    <polyline points="474.698,166.9573 475.0033,166.781 508.3737,186.0474 508.3737,232.1677 500.0496,236.9736"/>
    <polyline points="475.7747,252.0305 475.7747,256.7205 461.6587,264.8704 461.6587,249.7927"/>
    <polyline points="470.6547,254.9865 500.0496,238.0154 500.0496,181.594 465.4186,161.5998 436.0236,178.571 436.0236,234.9923 470.6547,254.9865 470.6547,198.5652 436.0236,178.571"/>
    <polyline points="436.0236,199.6042 427.5986,194.74 413.9244,202.6348"/>
    <line x1="413.9244" x2="436.0236" y1="203.1451" y2="215.904"/>
    <polyline points="413.4825,209.1438 413.4825,237.0559 461.6587,264.8704"/>
    <line x1="411.4401" x2="367.1043" y1="281.1088" y2="306.7061"/>
    <polyline points="374.1191,231.8703 413.9244,208.8887 413.9244,155.6591 388.7255,141.1105 348.9201,164.0921 348.9201,217.3217 374.1191,231.8703 374.1191,178.6407 348.9201,164.0921"/>
    <polyline points="343.5528,165.6735 299.6503,140.3263 299.6503,119.0167 343.7907,93.5322 387.6933,118.8794 387.6933,121.9527"/>
    <polyline points="387.6933,118.8794 343.5528,144.3639 343.5528,165.6735 356.2394,158.3489"/>
    <polyline points="357.5535,159.1076 348.3347,153.7851 348.3347,143.4404 386.6229,121.3347 411.4278,135.6559"/>
    <line x1="423.6824" x2="406.1901" y1="141.0945" y2="151.1937"/>
    <line x1="413.9244" x2="374.1191" y1="155.6591" y2="178.6407"/>
    <line x1="366.5123" x2="348.3347" y1="153.9352" y2="143.4404"/>
    <line x1="343.5528" x2="299.6503" y1="144.3639" y2="119.0167"/>
    <line x1="315.6796" x2="356.2728" y1="61.6663" y2="85.1028"/>
    <polyline points="356.2728,96.3818 379.0354,83.2398 379.0354,71.9608 338.4422,48.5243 315.6796,61.6663 315.6796,72.9453 356.2728,96.3818 356.2728,85.1028 379.0354,71.9608"/>
    <line x1="408.5096" x2="426.3086" y1="100.5469" y2="110.8231"/>
    <line x1="431.8484" x2="447.1477" y1="122.1432" y2="130.9763"/>
    <polyline points="431.8484,125.1816 426.3086,128.38 426.3086,110.8231 458.6171,92.1698"/>
    <polyline points="458.6171,107.272 458.6171,92.1698 440.8182,81.8936 408.5096,100.5469 408.5096,118.1038 426.3086,128.38"/>
    <polyline points="447.1477,148.4329 473.411,133.2698 473.411,115.8133 458.1116,106.9802 431.8484,122.1432 431.8484,139.5998 447.1477,148.4329 447.1477,130.9763 473.411,115.8133"/>
    <line x1="516.9813" x2="542.9471" y1="99.2058" y2="114.1972"/>
    <polyline points="578.2382,93.8219 542.9471,114.1972 542.9471,168.3192 516.9813,153.3278 516.9813,99.2058 552.2724,78.8305 578.2382,93.8219 578.2382,147.9439 542.9471,168.3192"/>
    <polyline points="413.9244,163.6278 423.6824,157.994 423.6824,141.0945 412.8451,134.8376 395.3528,144.9367"/>
    <line x1="300.1682" x2="271.4683" y1="229.3928" y2="212.8229"/>
    <line x1="202.703" x2="196.518" y1="208.5916" y2="205.0207"/>
    <polyline points="184.7258,212.6579 196.518,205.8497 196.518,154.6188 169.1319,138.8074 157.3396,145.6157 157.3396,196.8465 184.7258,212.6579 184.7258,161.4271 157.3396,145.6157"/>
    <polyline points="183.0477,146.8418 214.3029,128.7966 243.5035,145.6556 243.5035,185.0354 202.703,208.5916 202.703,169.2117 243.5035,145.6556"/>
    <line x1="202.703" x2="196.518" y1="169.2117" y2="165.6408"/>
    <line x1="196.518" x2="184.7258" y1="154.6188" y2="161.4271"/>
    <line x1="335.2533" x2="341.7742" y1="416.4211" y2="420.1859"/>
    <polyline points="341.7742,412.6563 335.2533,416.4211 335.2533,445.9245 337.4664,447.2022"/>
    <polyline points="349.9621,433.4902 341.7742,428.7629 341.7742,381.984 390.3639,353.9307 398.5519,358.6581 398.5519,392.903"/>
    <polyline points="401.8593,394.8125 420.1924,384.2279 434.2323,392.3339 434.2323,403.2432"/>
    <polyline points="441.0362,399.315 441.0362,390.7539 454.3981,383.0394 462.9052,387.9509 462.9052,405.7254"/>
    <polyline points="449.5433,398.0108 449.5433,395.6654 462.9052,387.9509"/>
    <line x1="463.7724" x2="485.1273" y1="383.7955" y2="396.1248"/>
    <polyline points="485.1273,408.2953 518.6516,388.9401 518.6516,376.7695 497.2966,364.4403 463.7724,383.7955 463.7724,395.9661 485.1273,408.2953 485.1273,396.1248 518.6516,376.7695"/>
    <line x1="504.3809" x2="531.1633" y1="428.5374" y2="444.0002"/>
    <polyline points="499.7091,438.4412 481.2809,427.8017 481.0544,427.9324"/>
    <line x1="481.0544" x2="456.404" y1="416.2038" y2="430.4358"/>
    <line x1="449.5433" x2="441.0362" y1="395.6654" y2="390.7539"/>
    <line x1="434.2323" x2="415.8992" y1="392.3339" y2="402.9185"/>
    <polyline points="417.839,404.0384 400.0449,414.3118 400.0449,453.5147 354.4114,427.1681 354.4114,387.9652 372.2054,377.6918 417.839,404.0384 417.839,443.2413 400.0449,453.5147"/>
    <line x1="356.8105" x2="356.8105" y1="436.0339" y2="429.5363"/>
    <line x1="328.4554" x2="317.7158" y1="475.1648" y2="481.3654"/>
    <line x1="328.4554" x2="335.2825" y1="486.3214" y2="482.3797"/>
    <polyline points="333.0752,503.8174 375.0829,528.0706 375.0829,550.7413 391.0503,541.5225 391.0503,518.8518 349.0426,494.5987 333.0752,503.8174 333.0752,523.2531"/>
    <line x1="328.4554" x2="333.0752" y1="514.1776" y2="511.5103"/>
    <polyline points="317.7158,522.4822 328.4554,516.2817 328.4554,475.1648 291.2846,453.7043 280.545,459.9048 280.545,501.0217 317.7158,522.4822 317.7158,481.3654 280.545,459.9048"/>
    <polyline points="280.545,487.7139 268.2651,480.624 268.2651,447.0056 298.5796,429.5035 313.5397,438.1406 313.5397,466.5533"/>
    <line x1="280.545" x2="266.8493" y1="492.6573" y2="484.7501"/>
    <line x1="251.7151" x2="239.8813" y1="482.5287" y2="475.6964"/>
    <polyline points="266.8493,505.1917 283.5509,514.8343 283.5509,531.7263 301.2538,521.5056 301.2538,512.9779"/>
    <line x1="301.2538" x2="317.0794" y1="517.3913" y2="526.5282"/>
    <line x1="294.0101" x2="283.5509" y1="508.7957" y2="514.8343"/>
    <line x1="272.1381" x2="272.1381" y1="525.1371" y2="557.7487"/>
    <line x1="285.332" x2="253.3675" y1="565.3662" y2="583.8209"/>
    <polyline points="230.4985,602.812 191.2444,625.4753 191.2444,664.328 220.7426,681.3588"/>
    <line x1="219.5055" x2="194.484" y1="680.6445" y2="695.0906"/>
    <polyline points="186.8668,690.6929 194.484,695.0906 194.484,740.4046 234.9382,717.0483 234.9382,673.1629"/>
    <polyline points="211.8883,676.2467 178.2749,695.6534 178.2749,672.0891"/>
    <polyline points="190.8088,679.3255 146.6476,653.829 146.6476,620.8319 190.2861,595.6372 216.6058,610.8329"/>
    <line x1="191.2444" x2="220.7426" y1="625.4753" y2="642.5061"/>
    <line x1="191.2444" x2="190.8088" y1="646.0769" y2="646.3284"/>
    <polyline points="204.0149,671.701 190.8088,679.3255 190.8088,646.3284 146.6476,620.8319"/>
    <line x1="146.6476" x2="134.6485" y1="629.4865" y2="622.5588"/>
    <polyline points="134.6485,618.8875 174.221,596.0403 181.9044,600.4763"/>
    <polyline points="134.6485,604.649 112.3604,617.5171 112.3604,635.8949 76.974,615.4646 76.974,597.0867 99.2621,584.2187 134.6485,604.649 134.6485,623.0269 112.3604,635.8949"/>
    <line x1="112.3604" x2="76.974" y1="617.5171" y2="597.0867"/>
    <polyline points="120.9515,558.5013 155.2469,538.7009 155.2469,522.38 142.4896,515.0146 108.1943,534.815 108.1943,551.1359 120.9515,558.5013 120.9515,542.1804 108.1943,534.815"/>
    <line x1="120.9515" x2="155.2469" y1="542.1804" y2="522.38"/>
    <polyline points="211.6765,559.7506 253.3675,583.8209 253.3675,616.0154 211.6765,591.9451 211.6765,559.7506 243.641,541.2959 285.332,565.3662 285.332,597.5607 253.3675,616.0154"/>
    <polyline points="258.1382,613.2611 264.7673,617.0884 264.7673,655.9411 220.7426,681.3588 220.7426,642.5061 264.7673,617.0884"/>
    <polyline points="291.4179,594.6741 291.4179,596.312 322.7459,614.3992"/>
    <polyline points="320.3663,611.3875 361.242,587.7879 361.242,539.5152 327.9137,520.2731 287.038,543.8727 287.038,592.1454 320.3663,611.3875 320.3663,563.1148 287.038,543.8727"/>
    <line x1="285.332" x2="287.038" y1="575.7402" y2="576.7251"/>
    <polyline points="322.7459,610.0137 322.7459,614.3992 359.2778,593.3075"/>
    <polyline points="359.2778,588.922 359.2778,593.3981 385.1724,608.3484"/>
    <polyline points="377.1934,615.4882 368.1005,610.2384 368.1005,598.4919"/>
    <polyline points="361.242,579.8039 385.1724,593.6201 385.1724,608.3484 408.3799,594.9495 408.3799,580.2213 382.4854,565.271 361.242,577.5359"/>
    <line x1="361.242" x2="366.9502" y1="572.9738" y2="569.6782"/>
    <line x1="366.9502" x2="368.3879" y1="572.5802" y2="573.4102"/>
    <polyline points="366.9502,574.2403 366.9502,569.6782 361.242,566.3826"/>
    <line x1="369.116" x2="372.8179" y1="506.1881" y2="504.0508"/>
    <polyline points="358.5419,495.8085 358.5419,496.8071 355.7048,498.4451"/>
    <line x1="400.9313" x2="398.5519" y1="389.7751" y2="388.4014"/>
    <line x1="418.7472" x2="420.3164" y1="361.8761" y2="360.9702"/>
    <line x1="587.3095" x2="633.9842" y1="356.535" y2="329.5874"/>
    <polyline points="633.9842,353.1141 662.5773,369.6224 662.5773,417.0137 619.3326,441.981 619.3326,394.5897 662.5773,369.6224"/>
    <line x1="619.3326" x2="601.2761" y1="394.5897" y2="384.1647"/>
    <polyline points="588.5297,391.5239 588.5297,424.1969 619.3326,441.981"/>
    <line x1="637.6665" x2="681.9743" y1="447.8291" y2="473.4102"/>
    <polyline points="681.9743,489.0886 719.1904,467.6018 719.1904,451.9235 674.8826,426.3424 637.6665,447.8291 637.6665,463.5075 681.9743,489.0886 681.9743,473.4102 719.1904,451.9235"/>
    <polyline points="716.7459,533.4403 668.1204,561.5143 668.1204,573.1793 654.7176,565.4412 654.7176,553.7762 703.3432,525.7022 716.7459,533.4403 716.7459,545.1053 668.1204,573.1793"/>
    <line x1="668.1204" x2="654.7176" y1="561.5143" y2="553.7762"/>
    <polyline points="660.0884,595.1115 623.6759,616.1342 623.6759,630.6744 660.0884,609.6516 660.0884,595.1115 615.4668,569.3492 607.5599,573.9142"/>
    <line x1="592.9344" x2="623.6759" y1="598.3857" y2="616.1342"/>
    <polyline points="625.6686,629.5239 625.6686,633.2058 602.8121,646.402 602.8121,618.6287"/>
    <polyline points="589.7544,611.0898 589.7544,638.8632 602.8121,646.402"/>
    <polyline points="626.1985,636.9619 657.4241,654.99 657.4241,694.2873 706.3436,666.0436 706.3436,626.7463 675.118,608.7182 626.1985,636.9619 626.1985,656.6341"/>
    <line x1="648.7793" x2="619.6286" y1="669.6712" y2="686.5014"/>
    <line x1="648.7793" x2="657.4241" y1="689.2963" y2="694.2873"/>
    <line x1="657.4241" x2="706.3436" y1="654.99" y2="626.7463"/>
    <line x1="623.6759" x2="580.3422" y1="630.6744" y2="605.6557"/>
    <polyline points="577.2227,662.0184 619.6286,686.5014 619.6286,721.4403 577.2227,696.9573 577.2227,662.0184 606.3735,645.1882 648.7793,669.6712 648.7793,704.6101 619.6286,721.4403"/>
    <polyline points="667.6597,832.5275 621.3967,859.2375 621.3967,880.3095 610.6781,874.1212 610.6781,853.0492 656.9412,826.3392 667.6597,832.5275 667.6597,853.5995 621.3967,880.3095"/>
    <line x1="621.3967" x2="610.6781" y1="859.2375" y2="853.0492"/>
    <line x1="590.0977" x2="559.0564" y1="857.7037" y2="875.6254"/>
    <line x1="525.9456" x2="514.482" y1="875.689" y2="882.3074"/>
    <polyline points="525.9564,901.4157 513.7382,908.4699 513.7382,954.2902"/>
    <polyline points="517.6632,956.5563 536.7675,945.5264 536.7675,912.9401"/>
    <line x1="513.7382" x2="465.1553" y1="908.4699" y2="880.4206"/>
    <line x1="465.1553" x2="449.4594" y1="893.5152" y2="884.4532"/>
    <polyline points="432.554,900.7621 461.9333,917.7243 461.9333,942.4661"/>
    <line x1="452.1208" x2="493.2073" y1="948.1313" y2="971.8526"/>
    <polyline points="493.2073,997.4666 518.6823,982.7586 518.6823,957.1446 477.5958,933.4233 452.1208,948.1313 452.1208,973.7453 493.2073,997.4666 493.2073,971.8526 518.6823,957.1446"/>
    <polyline points="473.6708,935.6894 465.1553,930.773 465.1553,880.4206 488.1846,867.1246 525.9564,888.9322 525.9456,875.689 495.2925,857.9914 449.4594,884.4532 449.4594,910.5225"/>
    <polyline points="461.9333,917.7243 447.4852,926.0659 447.4852,958.4366 452.1208,955.7602"/>
    <line x1="447.4852" x2="440.3198" y1="958.4366" y2="954.2996"/>
    <line x1="440.3198" x2="420.8615" y1="946.4311" y2="957.6653"/>
    <polyline points="432.9435,942.1724 432.9435,920.5793 385.0627,892.9353 361.3909,906.6023"/>
    <polyline points="354.2452,902.4767 359.7506,899.2982 359.7506,884.1209 335.8863,870.3429 300.7226,890.6446 300.7226,905.8219 319.4376,916.627"/>
    <line x1="319.4376" x2="300.7226" y1="901.4498" y2="890.6446"/>
    <polyline points="319.4376,898.9111 366.1347,925.8717 366.1347,945.6825 319.4376,918.7219 319.4376,898.9111 333.7535,890.6458 380.4506,917.6064 380.4506,937.4172 366.1347,945.6825"/>
    <polyline points="349.3907,936.0153 349.3907,954.9977 397.2715,982.6417"/>
    <polyline points="397.2715,972.3408 397.2715,982.6417 406.1924,977.4912"/>
    <polyline points="420.8615,985.9605 440.3198,974.7263 440.3198,946.4311 403.5144,925.1815 384.0562,936.4158 384.0562,964.7109 420.8615,985.9605 420.8615,957.6653 384.0562,936.4158"/>
    <line x1="386.5426" x2="380.4506" y1="934.9802" y2="931.463"/>
    <line x1="380.4506" x2="366.1347" y1="917.6064" y2="925.8717"/>
    <line x1="341.1013" x2="359.7506" y1="894.8881" y2="884.1209"/>
    <polyline points="331.3131,855.8728 352.6684,843.5433 352.6684,822.266 333.8359,811.3931 312.4806,823.7225 312.4806,844.9998 331.3131,855.8728 331.3131,834.5955 352.6684,822.266"/>
    <polyline points="346.0062,818.4196 358.9572,810.9423 358.9572,772.3188 328.9756,755.0089 286.0823,779.7733 286.0823,818.3969 312.4806,833.638"/>
    <line x1="312.4806" x2="331.3131" y1="823.7225" y2="834.5955"/>
    <polyline points="316.0639,821.6537 316.0639,797.0832 358.9572,772.3188"/>
    <polyline points="364.7307,757.6622 364.7307,789.7098 374.5606,795.3852"/>
    <line x1="367.6985" x2="411.593" y1="799.347" y2="824.6895"/>
    <polyline points="411.593,836.9541 411.593,824.6895 433.6706,811.9429"/>
    <line x1="433.6706" x2="449.7091" y1="817.3334" y2="826.5932"/>
    <polyline points="441.6767,844.0651 417.1069,858.2505 417.1069,909.6805 395.9067,897.4406 395.9067,846.0106 420.4766,831.8252 441.6767,844.0651 441.6767,895.4951 417.1069,909.6805"/>
    <line x1="418.1059" x2="447.4852" y1="909.1037" y2="926.0659"/>
    <line x1="432.9435" x2="414.2433" y1="920.5793" y2="931.3759"/>
    <line x1="406.6148" x2="406.6148" y1="905.3784" y2="903.6229"/>
    <polyline points="395.9067,861.557 367.6985,845.2709 367.6985,799.347 389.7761,786.6005 433.6706,811.9429 433.6706,839.4428"/>
    <line x1="417.1069" x2="395.9067" y1="858.2505" y2="846.0106"/>
    <polyline points="429.124,796.4712 418.2406,790.1877 418.2406,752.6829"/>
    <line x1="416.2438" x2="417.9702" y1="759.4132" y2="760.4099"/>
    <polyline points="426.8035,757.6267 407.1244,746.265 407.1244,731.6619"/>
    <polyline points="438.0177,747.3466 438.0177,777.7107 426.8035,771.2362 426.8035,740.872 454.1988,725.0554 465.413,731.5299 465.413,761.894 438.0177,777.7107"/>
    <polyline points="446.7112,772.6915 446.7112,786.3172 429.124,796.4712 429.124,772.5759"/>
    <line x1="418.2406" x2="406.5409" y1="773.7635" y2="767.0086"/>
    <polyline points="325.4074,726.2014 282.4771,701.4156 282.4771,652.8582 312.9102,635.2876 320.5621,639.7055"/>
    <line x1="329.6842" x2="325.4074" y1="675.1749" y2="677.6441"/>
    <line x1="286.2911" x2="255.7374" y1="728.0492" y2="745.6894"/>
    <polyline points="234.9382,714.4243 248.8152,706.4125 286.2911,728.0492 286.2911,768.294 255.7374,785.9342 255.7374,745.6894 220.534,725.3646"/>
    <polyline points="218.2615,726.6766 218.2615,764.2975 255.7374,785.9342"/>
    <line x1="286.0823" x2="316.0639" y1="779.7733" y2="797.0832"/>
    <polyline points="194.484,740.4046 150.4854,715.002 150.4854,679.6091"/>
    <polyline points="178.2749,695.6534 131.4691,668.63 131.4691,624.8625"/>
    <polyline points="98.1146,759.1925 141.0555,783.9844 141.0555,830.2931 98.1146,805.5012 98.1146,759.1925 135.579,737.5625 178.5199,762.3544 178.5199,808.663 141.0555,830.2931 144.5579,832.1628 144.5579,876.6461 95.9807,904.6921 95.9807,860.2089 74.5104,847.813"/>
    <line x1="95.9807" x2="144.5579" y1="860.2089" y2="832.1628"/>
    <polyline points="122.9556,819.8431 74.5104,847.813 74.5104,892.2962 95.9807,904.6921"/>
    <line x1="141.0555" x2="178.5199" y1="783.9844" y2="762.3544"/>
    <polyline points="355.2925,1025.02 363.5063,1029.7622 363.5063,1073.9954 355.2925,1069.2531 355.2925,1025.02 374.9767,1013.6553 383.1905,1018.3975 383.1905,1062.6307 363.5063,1073.9954"/>
    <line x1="363.5063" x2="383.1905" y1="1029.7622" y2="1018.3975"/>
    <line x1="461.9333" x2="465.1553" y1="918.6064" y2="920.4666"/>
    <polyline points="525.9564,856.5151 559.0564,875.6254 559.0564,925.8086 525.9564,906.6983 525.9564,856.5151 556.9977,838.5934 590.0977,857.7037 590.0977,907.8869 559.0564,925.8086"/>
    <line x1="578.7695" x2="609.988" y1="548.0385" y2="530.0145"/>
  </g>
</svg>
