<?xml version="1.0" encoding="utf-8" ?>
<svg xmlns="http://www.w3.org/2000/svg" xmlns:cc="http://creativecommons.org/ns#" xmlns:dc="http://purl.org/dc/elements/1.1/" xmlns:ev="http://www.w3.org/2001/xml-events" xmlns:inkscape="http://www.inkscape.org/namespaces/inkscape" xmlns:rdf="http://www.w3.org/1999/02/22-rdf-syntax-ns#" xmlns:sodipodi="http://sodipodi.sourceforge.net/DTD/sodipodi-0.dtd" xmlns:xlink="http://www.w3.org/1999/xlink" baseProfile="tiny" height="29.7cm" version="1.2" viewBox="0 0 793.7007874015749 1122.5196850393702" width="21.0cm">
  <metadata>
    <rdf:RDF>
      <cc:Work>
        <dc:format>image/svg+xml</dc:format>
        <dc:source/>
        <dc:date>2021-12-10T22:39:53.144157</dc:date>
      </cc:Work>
    </rdf:RDF>
  </metadata>
  <defs/>
  <g fill="none" id="layer1" inkscape:groupmode="layer" inkscape:label="1" stroke="#00f" style="display:inline">
    <polyline points="498.5826,507.9151 498.7247,520.8157 492.0606,524.6633"/>
    <polyline points="492.0606,518.5504 448.3502,543.7866 448.3502,586.8931 492.0606,561.6569 492.0606,518.5504 486.1112,515.1155"/>
    <polyline points="488.5978,513.6799 498.5826,519.4446 524.9738,504.2076"/>
    <polyline points="524.9738,496.4419 517.6214,500.6868 517.6214,446.2814 502.8603,437.759"/>
    <line x1="517.6214" x2="544.8494" y1="446.2814" y2="430.5613"/>
    <line x1="547.6545" x2="547.6545" y1="432.1808" y2="475.0433"/>
    <polyline points="557.1358,469.5692 557.1358,467.1065 582.6417,452.3807"/>
    <polyline points="584.1544,453.254 540.1925,427.8726 540.1925,413.1508"/>
    <line x1="531.4003" x2="528.9296" y1="416.7045" y2="418.1309"/>
    <polyline points="531.4003,419.5574 531.4003,416.7045 503.4471,400.5657"/>
    <polyline points="502.8603,400.9045 502.8603,438.7356 487.0222,447.8797"/>
    <polyline points="479.7552,443.6841 479.7552,401.6401 455.8138,387.8175"/>
    <polyline points="453.795,385.5442 490.551,364.3231 490.551,319.2671 463.1685,303.4578 426.4125,324.6789 426.4125,369.7348 453.795,385.5442 453.795,340.4882 490.551,319.2671"/>
    <polyline points="508.5482,321.3544 527.9274,310.1658 527.9274,286.519 510.7375,276.5944"/>
    <line x1="508.5482" x2="470.1951" y1="285.3714" y2="307.5146"/>
    <line x1="460.2628" x2="457.0087" y1="305.1354" y2="303.2566"/>
    <polyline points="457.0087,307.0142 457.0087,303.2566 498.2675,279.4359 508.5482,285.3714 508.5482,328.9818 490.551,339.3725"/>
    <line x1="490.551" x2="490.7616" y1="341.9164" y2="342.038"/>
    <polyline points="490.551,342.1595 503.1772,334.8698 538.4433,355.2307 538.4433,380.3606 502.5691,401.0726 502.5691,375.9427 486.4972,366.6636"/>
    <line x1="502.5691" x2="538.4433" y1="375.9427" y2="355.2307"/>
    <line x1="534.2848" x2="540.2287" y1="352.8298" y2="349.398"/>
    <line x1="538.5088" x2="538.5088" y1="348.405" y2="347.3342"/>
    <polyline points="537.5814,347.8696 540.2287,349.398 540.2287,363.8991"/>
    <polyline points="538.4433,364.9298 571.2424,345.9933 603.6202,364.6867 603.6202,396.7273 557.6832,423.2491 557.6832,391.2084 603.6202,364.6867"/>
    <polyline points="603.6202,388.5089 621.1538,398.632 621.1538,431.8924 584.1544,453.254 584.1544,419.9936 573.7381,413.9798"/>
    <line x1="584.1544" x2="621.1538" y1="419.9936" y2="398.632"/>
    <polyline points="654.7366,363.8496 663.8743,358.574 663.8743,320.976 645.7996,310.5406 636.6619,315.8163 636.6619,353.4142 654.7366,363.8496 654.7366,326.2517 636.6619,315.8163"/>
    <polyline points="636.6619,320.5213 632.4617,322.9463 632.4617,269.4117 623.3916,264.1751"/>
    <polyline points="629.3878,260.7131 623.3916,264.1751 623.3916,317.7097 632.4617,322.9463"/>
    <polyline points="649.8743,312.8931 663.7736,304.8684 663.7736,251.3337 654.7035,246.0971 654.3395,246.3073"/>
    <line x1="654.3395" x2="663.7736" y1="256.7805" y2="251.3337"/>
    <polyline points="641.0225,267.4304 654.3395,259.7418 654.3395,225.0349 608.6848,198.6762 595.3678,206.3648 595.3678,241.0717 641.0225,267.4304 641.0225,232.7235 654.3395,225.0349"/>
    <line x1="641.0225" x2="595.3678" y1="232.7235" y2="206.3648"/>
    <line x1="545.849" x2="497.4763" y1="207.1665" y2="235.0945"/>
    <polyline points="481.4857,225.8624 497.4763,235.0945 497.4763,279.8927"/>
    <polyline points="493.702,282.0717 481.4857,275.0187 481.4857,225.8624 529.8585,197.9343 545.849,207.1665 545.849,256.3228 502.0417,281.6149"/>
    <line x1="508.5482" x2="527.9274" y1="297.7076" y2="286.519"/>
    <polyline points="516.2284,316.9202 538.5088,329.7838 538.5088,331.173"/>
    <line x1="538.5088" x2="537.3057" y1="329.7838" y2="330.4784"/>
    <line x1="542.766" x2="523.6843" y1="333.631" y2="344.6478"/>
    <polyline points="523.6843,346.7096 523.6843,344.6478 511.9207,337.856"/>
    <polyline points="511.9207,339.9178 511.9207,337.856 531.0024,326.8392 542.766,333.631 542.766,344.8763 531.6375,351.3013"/>
    <line x1="542.766" x2="564.3135" y1="344.1692" y2="331.7288"/>
    <polyline points="564.3135,349.9937 564.3135,331.7288 543.3446,319.6224 532.1266,326.0991"/>
    <line x1="538.4433" x2="557.6832" y1="380.1003" y2="391.2084"/>
    <polyline points="557.6832,423.2491 525.3053,404.5557 525.3053,387.9459"/>
    <polyline points="519.2936,392.8807 519.2936,405.4029 525.3053,401.932"/>
    <line x1="525.3053" x2="518.0258" y1="396.3516" y2="392.1487"/>
    <line x1="507.1812" x2="519.2936" y1="398.4098" y2="405.4029"/>
    <polyline points="502.5691,401.0726 467.303,380.7117 467.303,377.7454"/>
    <polyline points="467.7121,380.9479 455.8138,387.8175 455.8138,438.2527 469.4579,446.1301"/>
    <polyline points="464.1589,443.0707 442.4646,455.596 442.4646,438.9287 400.6701,414.7986"/>
    <polyline points="418.8801,404.2851 400.6701,414.7986 400.6701,431.4659 442.4646,455.596"/>
    <line x1="455.7159" x2="461.015" y1="447.9453" y2="451.0047"/>
    <line x1="455.8138" x2="442.4646" y1="431.2215" y2="438.9287"/>
    <polyline points="419.0617,442.0843 419.0617,477.5109 429.7053,483.6559"/>
    <line x1="429.7053" x2="398.3484" y1="490.6824" y2="472.5785"/>
    <polyline points="419.0617,460.6197 398.3484,472.5785 398.3484,512.7044 417.5744,523.8046"/>
    <polyline points="419.578,522.6478 408.9574,528.7796 408.9574,539.5718 419.3489,545.5714"/>
    <line x1="419.3489" x2="408.9574" y1="534.7792" y2="528.7796"/>
    <line x1="419.3489" x2="448.3502" y1="527.0426" y2="543.7866"/>
    <polyline points="457.7487,531.4906 504.7684,504.3438 504.7684,458.1254 476.725,441.9345 429.7053,469.0814 429.7053,515.2997 457.7487,531.4906 457.7487,485.2723 504.7684,458.1254"/>
    <line x1="504.7684" x2="517.6214" y1="493.2661" y2="500.6868"/>
    <polyline points="524.9738,488.138 535.701,494.3314 535.701,510.5159 524.9738,504.3225 524.9738,488.138 565.5119,464.7333 576.2391,470.9267 576.2391,487.1112 535.701,510.5159"/>
    <polyline points="535.5331,510.419 514.6326,522.4859 514.6326,576.3258 558.9261,601.8986"/>
    <polyline points="543.217,616.9212 528.4298,625.4586 528.4298,657.4123 543.217,648.8749 543.217,616.9212 524.7625,606.2665"/>
    <polyline points="524.7625,589.2102 484.677,612.3536 484.677,667.7085 524.7625,644.5651 524.7625,589.2102 513.283,582.5825 477.5098,603.2362"/>
    <line x1="477.5098" x2="484.677" y1="608.2156" y2="612.3536"/>
    <line x1="477.5098" x2="435.2334" y1="596.9445" y2="621.3528"/>
    <polyline points="434.8495,633.5343 434.8495,654.0726 477.5098,629.4426 477.5098,596.9445 462.6306,588.354 435.2334,604.1718"/>
    <line x1="435.2334" x2="420.9386" y1="602.7251" y2="610.9782"/>
    <polyline points="410.0937,604.7168 420.9386,610.9782 420.9386,641.5657 410.0937,635.3044 410.0937,604.7168 424.3884,596.4638 435.2334,602.7251 435.2334,633.3127 420.9386,641.5657"/>
    <polyline points="419.9703,641.0067 419.9703,645.482 434.8495,654.0726"/>
    <polyline points="430.2121,651.3951 430.2121,668.9126 458.4969,685.2428"/>
    <polyline points="466.5929,680.5686 474.1088,684.9079 474.1088,715.0258 486.6316,707.7958 486.6316,677.6779 479.1156,673.3386"/>
    <polyline points="484.677,667.7085 473.1975,661.0808 473.1975,631.9323"/>
    <polyline points="473.1975,639.215 458.4969,647.7024 458.4969,685.2428 507.1755,657.1382 507.1755,654.719"/>
    <line x1="515.4702" x2="528.4298" y1="649.93" y2="657.4123"/>
    <line x1="528.4298" x2="524.7625" y1="625.4586" y2="623.3413"/>
    <line x1="486.6316" x2="474.1088" y1="677.6779" y2="684.9079"/>
    <line x1="461.7121" x2="459.7742" y1="707.8686" y2="708.9875"/>
    <polyline points="448.8322,702.6701 459.7742,708.9875 459.7742,725.963"/>
    <polyline points="448.8322,727.5119 455.6445,723.5787 487.4916,741.9656 487.4916,754.4068 478.513,759.5906"/>
    <polyline points="485.0085,763.3408 471.1292,771.354 471.1292,793.6141 425.2324,767.1156 425.2324,744.8554 439.1117,736.8422 485.0085,763.3408 485.0085,785.6009 471.1292,793.6141"/>
    <line x1="471.721" x2="458.6155" y1="797.3615" y2="789.795"/>
    <polyline points="458.6155,793.1701 458.6155,789.795 461.5649,788.0922"/>
    <line x1="451.7951" x2="451.7951" y1="789.2323" y2="782.4516"/>
    <line x1="437.6388" x2="437.6388" y1="790.1357" y2="774.2785"/>
    <line x1="425.2324" x2="414.712" y1="764.2159" y2="758.142"/>
    <polyline points="412.4827,759.429 412.4827,803.891 423.5363,810.2728"/>
    <polyline points="423.5363,813.0113 419.7022,810.7977 419.7022,808.0592"/>
    <line x1="423.5363" x2="443.8256" y1="798.2778" y2="809.9919"/>
    <polyline points="435.7575,814.65 461.0068,829.2277 461.0068,855.0454"/>
    <line x1="458.1416" x2="483.4237" y1="856.6997" y2="871.2963"/>
    <polyline points="499.0115,851.6292 515.3836,842.1767 527.5414,849.1961 527.5414,889.002 484.4864,913.8598 484.4864,912.6209"/>
    <polyline points="483.4237,913.2344 508.2499,898.901 508.2499,856.963 482.9677,842.3663 458.1416,856.6997 458.1416,898.6377 483.4237,913.2344 483.4237,871.2963 508.2499,856.963"/>
    <line x1="508.2499" x2="527.5414" y1="860.334" y2="849.1961"/>
    <polyline points="567.9598,823.4352 579.9404,830.3522 579.9404,857.4732 567.9598,850.5562 567.9598,823.4352 589.0808,811.241 601.0613,818.158 601.0613,845.2791 579.9404,857.4732"/>
    <line x1="579.9404" x2="601.0613" y1="830.3522" y2="818.158"/>
    <polyline points="660.4784,813.4981 684.2529,827.2243 684.2529,876.1704 660.4784,862.4441 660.4784,813.4981 685.7343,798.9167 709.5088,812.6429 709.5088,861.5889 684.2529,876.1704"/>
    <line x1="684.2529" x2="709.5088" y1="827.2243" y2="812.6429"/>
    <polyline points="641.3186,754.1427 664.7455,740.6172 664.7455,695.2774 618.0162,668.2982 594.5893,681.8237 594.5893,727.1635 641.3186,754.1427 641.3186,708.8029 594.5893,681.8237"/>
    <line x1="641.3186" x2="664.7455" y1="708.8029" y2="695.2774"/>
    <polyline points="711.0897,654.8502 667.2865,629.5604 667.2865,620.5386"/>
    <polyline points="652.1349,629.2864 687.0041,609.1546 687.0041,572.8276 673.1152,564.8088 638.246,584.9406 638.246,621.2676 652.1349,629.2864 652.1349,592.9593 638.246,584.9406"/>
    <line x1="652.1349" x2="687.0041" y1="592.9593" y2="572.8276"/>
    <polyline points="687.0041,589.1394 692.5742,585.9235 736.3773,611.2133 736.3773,640.2504 711.0897,654.8502 711.0897,625.8131 684.6202,610.5309"/>
    <line x1="711.0897" x2="736.3773" y1="625.8131" y2="611.2133"/>
    <line x1="635.4708" x2="618.0757" y1="496.8593" y2="486.8162"/>
    <polyline points="618.0757,471.0943 635.4708,481.1374 635.4708,496.8593 666.4673,478.9634 666.4673,463.2416 637.0787,446.274 617.8897,457.3528"/>
    <polyline points="618.0757,457.4601 579.2517,479.8752 579.2517,510.924"/>
    <polyline points="591.2869,517.8726 618.0757,502.4061 618.0757,457.4601 597.4724,445.5648"/>
    <line x1="576.2391" x2="535.701" y1="470.9267" y2="494.3314"/>
    <polyline points="557.1358,498.1406 601.2486,523.6239 601.2486,577.4638 558.9261,601.8986 558.9261,548.0588 601.2486,523.6239"/>
    <line x1="558.9261" x2="514.6326" y1="548.0588" y2="522.4859"/>
    <line x1="457.7487" x2="429.7053" y1="485.2723" y2="469.0814"/>
    <polyline points="429.7053,504.5553 419.578,510.4023 419.578,526.9104"/>
    <line x1="419.578" x2="433.8744" y1="510.4023" y2="518.6563"/>
    <polyline points="434.6967,518.1815 419.3489,527.0426 419.3489,570.1492 448.3502,586.8931"/>
    <line x1="408.6221" x2="383.6292" y1="579.0265" y2="593.4562"/>
    <polyline points="376.7996,602.9363 376.7996,606.8797 408.6221,588.507 408.6221,579.0265 384.3702,565.0247 372.7936,571.7085"/>
    <polyline points="382.6072,566.0426 372.6096,560.2705 362.7959,565.9364"/>
    <line x1="374.1571" x2="383.6292" y1="583.4332" y2="577.9645"/>
    <polyline points="395.9331,595.8329 395.9331,614.7644 372.691,628.1833 372.691,604.5076"/>
    <polyline points="374.1571,604.4619 383.6292,598.9932 383.6292,577.9645 349.7797,558.4215 340.3077,563.8902 340.3077,584.9189 374.1571,604.4619 374.1571,583.4332 340.3077,563.8902"/>
    <line x1="332.4556" x2="310.1533" y1="559.3297" y2="572.2059"/>
    <line x1="310.1533" x2="271.9237" y1="570.6421" y2="592.714"/>
    <polyline points="272.7983,593.2189 234.401,615.3876 234.401,663.0479 223.8563,656.9599 223.8563,609.2996 262.2536,587.1309 272.7983,593.2189 272.7983,640.8792 234.401,663.0479"/>
    <line x1="231.1473" x2="221.8854" y1="661.1694" y2="666.5167"/>
    <polyline points="225.9119,675.7296 261.6667,696.3726 261.6667,713.5918 280.4725,702.7342"/>
    <line x1="276.1003" x2="261.6667" y1="688.0393" y2="696.3726"/>
    <line x1="255.1501" x2="241.6193" y1="709.8294" y2="717.6415"/>
    <polyline points="241.6193,722.6328 241.6193,717.6415 230.642,711.3037"/>
    <line x1="230.642" x2="240.9632" y1="707.5975" y2="701.6386"/>
    <polyline points="230.642,695.6796 230.642,724.8184 213.3956,734.7756 213.3956,681.5295 196.3925,671.7128"/>
    <line x1="212.3006" x2="178.4138" y1="662.5283" y2="642.9637"/>
    <polyline points="213.8279,622.5174 178.4138,642.9637 178.4138,689.1001 196.3925,699.4801"/>
    <line x1="213.3956" x2="230.642" y1="681.5295" y2="671.5723"/>
    <polyline points="230.642,672.9987 230.642,671.5723 213.6389,661.7556 196.3925,671.7128 196.3925,724.9588 213.3956,734.7756"/>
    <polyline points="226.405,727.2646 226.405,752.9097 241.6193,761.6936"/>
    <polyline points="247.0142,758.5789 241.6193,761.6936 241.6193,752.3011"/>
    <polyline points="247.0142,755.4158 247.0142,770.4351 262.191,779.1974"/>
    <line x1="273.5891" x2="262.191" y1="769.21" y2="762.6293"/>
    <line x1="268.6132" x2="260.704" y1="758.9215" y2="754.3551"/>
    <polyline points="252.9404,758.8374 264.6017,752.1047 264.6017,722.8965 252.8821,716.1302 241.2209,722.8628 241.2209,752.0711 252.9404,758.8374 252.9404,729.6291 264.6017,722.8965"/>
    <line x1="264.4228" x2="264.4228" y1="722.7932" y2="712.0005"/>
    <polyline points="261.6667,713.5918 225.9119,692.9487 225.9119,675.7296 246.1216,664.0615 276.1003,681.3697"/>
    <polyline points="276.1003,665.6719 295.4091,676.8198 295.4091,711.3579 276.1003,700.21 276.1003,665.6719 312.4733,644.672 331.782,655.8199 331.782,690.3579 295.4091,711.3579"/>
    <polyline points="294.52,743.9642 272.921,731.494 264.6017,736.2971"/>
    <line x1="252.9404" x2="241.2209" y1="729.6291" y2="722.8628"/>
    <line x1="218.945" x2="175.0813" y1="750.2416" y2="775.5663"/>
    <polyline points="164.6949,769.5698 175.0813,775.5663 175.0813,831.4613 164.6949,825.4647 164.6949,769.5698 208.5586,744.245 218.945,750.2416 218.945,806.1366 175.0813,831.4613"/>
    <polyline points="227.2684,833.7518 248.6921,846.1208 248.6921,866.2587 279.7768,848.312 279.7768,828.174 273.771,824.7065"/>
    <polyline points="273.5891,824.8116 309.7002,803.9628 309.7002,748.3612 298.3022,741.7805 262.191,762.6293 262.191,818.2309 273.5891,824.8116 273.5891,769.21 309.7002,748.3612"/>
    <polyline points="327.8465,717.2299 327.8465,723.9629 368.4356,747.3679 393.3826,732.9647"/>
    <line x1="397.317" x2="443.4705" y1="729.8793" y2="703.2326"/>
    <polyline points="448.8322,700.4324 448.8322,738.4426 445.358,740.4485"/>
    <line x1="425.2324" x2="471.1292" y1="744.8554" y2="771.354"/>
    <line x1="485.0085" x2="500.0511" y1="769.6331" y2="760.9483"/>
    <polyline points="487.4916,753.6971 500.0511,760.9483 500.0511,815.2365 479.1877,827.282"/>
    <line x1="479.1877" x2="461.0068" y1="818.7309" y2="829.2277"/>
    <polyline points="474.2999,815.9089 474.2999,802.2255 445.4994,785.5974 423.5363,798.2778 423.5363,826.3644 435.7575,833.4203"/>
    <polyline points="423.5363,823.4311 403.0402,835.2646 403.0402,877.3147"/>
    <polyline points="402.1367,877.8364 402.1367,846.3209 368.6948,827.0132 356.7317,833.9201 356.7317,865.8175 390.1736,885.1252"/>
    <line x1="391.2733" x2="400.6919" y1="884.4904" y2="889.9282"/>
    <polyline points="400.6919,895.1542 395.5147,898.1433 395.5147,943.0776 405.2177,937.4755 405.2177,929.5591"/>
    <line x1="395.5147" x2="373.3743" y1="943.0776" y2="930.2948"/>
    <line x1="373.3743" x2="354.4996" y1="920.9495" y2="931.8468"/>
    <line x1="354.4996" x2="343.5903" y1="943.5765" y2="937.2781"/>
    <polyline points="343.5903,925.5483 354.4996,931.8468 354.4996,943.5765 373.3743,932.6792 373.3743,920.9495 341.2171,902.3835 322.3424,913.2809 322.3424,925.0106 323.2795,925.5516"/>
    <polyline points="323.2795,918.5682 332.5591,923.9257 332.5591,950.3059 323.2795,944.9484 323.2795,918.5682 334.3108,912.1993 343.5903,917.5568 343.5903,943.937 332.5591,950.3059"/>
    <line x1="332.5591" x2="343.5903" y1="923.9257" y2="917.5568"/>
    <polyline points="351.2104,908.1531 351.2104,872.5642 359.8138,867.597"/>
    <polyline points="354.2336,870.8187 354.2336,858.1104 356.7317,856.6681"/>
    <line x1="354.2336" x2="334.0169" y1="858.1104" y2="846.4382"/>
    <polyline points="310.9578,842.4191 298.735,835.3623 298.735,810.2935"/>
    <line x1="303.0008" x2="310.9578" y1="807.8307" y2="812.4247"/>
    <polyline points="309.7002,799.0371 321.0215,792.5007 333.2443,799.5576 333.2443,829.552 310.9578,842.4191 310.9578,812.4247 333.2443,799.5576"/>
    <polyline points="349.5222,785.5159 340.2278,780.1498 340.2278,773.9657"/>
    <polyline points="349.5222,779.3318 349.5222,785.5159 354.8778,782.4238"/>
    <polyline points="368.4356,790.2515 393.3826,775.8483 393.3826,732.9647 361.9634,714.8248 337.0164,729.2279 337.0164,772.1116 368.4356,790.2515 368.4356,747.3679"/>
    <line x1="393.3826" x2="397.317" y1="747.9875" y2="750.259"/>
    <line x1="393.3826" x2="408.9646" y1="752.4639" y2="761.4602"/>
    <polyline points="418.9375,755.7023 418.9375,757.2127 425.2324,760.8471"/>
    <polyline points="425.2324,752.068 408.9646,761.4602 408.9646,743.5343"/>
    <polyline points="415.0602,717.9902 427.2358,710.9606 427.2358,677.9375 393.738,658.5975 381.5624,665.6271 381.5624,698.6502 415.0602,717.9902 415.0602,684.9671"/>
    <line x1="427.2358" x2="430.0292" y1="680.91" y2="682.5227"/>
    <line x1="427.167" x2="430.0292" y1="671.655" y2="670.0025"/>
    <line x1="427.167" x2="416.7683" y1="665.8904" y2="671.8941"/>
    <line x1="430.0292" x2="430.2121" y1="659.4585" y2="659.5642"/>
    <polyline points="430.2121,659.3529 430.0292,689.5764 474.1088,715.0258"/>
    <polyline points="484.4593,709.05 484.4593,735.3335 480.2318,737.7742"/>
    <line x1="487.4916" x2="467.7387" y1="741.9656" y2="753.37"/>
    <polyline points="476.5951,790.4584 480.1362,792.5029 480.1362,816.8132 478.0013,818.0459"/>
    <line x1="474.2999" x2="462.4497" y1="802.2255" y2="809.0672"/>
    <polyline points="471.721,800.7365 471.721,797.3615 480.1362,792.5029"/>
    <polyline points="479.1877,844.5486 479.1877,818.7309 453.9385,804.1532 435.7575,814.65 435.7575,858.4254"/>
    <line x1="435.7575" x2="403.0402" y1="854.1539" y2="835.2646"/>
    <line x1="402.3234" x2="388.3951" y1="830.3457" y2="838.3872"/>
    <line x1="390.1736" x2="356.7317" y1="853.2278" y2="833.9201"/>
    <line x1="351.2104" x2="395.5147" y1="872.5642" y2="898.1433"/>
    <polyline points="400.6919,879.0526 390.1736,885.1252 390.1736,853.2278 402.1367,846.3209"/>
    <polyline points="402.1367,868.8211 402.3234,830.3457 382.1067,818.6735 334.0169,846.4382 334.0169,884.8059 351.2104,894.7326"/>
    <line x1="327.3899" x2="322.3424" y1="916.195" y2="913.2809"/>
    <line x1="268.5152" x2="248.1795" y1="876.242" y2="887.9828"/>
    <polyline points="248.6983,888.2823 225.8687,901.4631 225.8687,932.7503 202.7227,919.3869 202.7227,888.0997 225.5524,874.919 248.6983,888.2823 248.6983,919.5696 225.8687,932.7503"/>
    <line x1="230.2081" x2="239.4493" y1="930.2449" y2="935.5803"/>
    <polyline points="239.4493,924.9095 239.4493,935.5803 268.5152,918.7991 268.5152,876.242 249.9579,865.5279"/>
    <polyline points="248.6921,866.2587 227.2684,853.8897 227.2684,833.7518 258.3531,815.805 262.191,818.0208"/>
    <line x1="279.7768" x2="248.6921" y1="828.174" y2="846.1208"/>
    <line x1="246.2259" x2="227.1561" y1="864.8349" y2="875.8449"/>
    <line x1="225.8687" x2="202.7227" y1="901.4631" y2="888.0997"/>
    <line x1="128.2149" x2="86.7278" y1="868.0782" y2="892.0308"/>
    <polyline points="86.7278,906.5094 128.2149,882.5568 128.2149,868.0782 109.2243,857.114 67.7372,881.0666 67.7372,895.5452 86.7278,906.5094 86.7278,892.0308 67.7372,881.0666"/>
    <line x1="256.8079" x2="256.8079" y1="670.2312" y2="650.1113"/>
    <line x1="256.8079" x2="282.7091" y1="663.1243" y2="648.1703"/>
    <polyline points="271.4394,641.6638 282.7091,648.1703 282.7091,661.8564"/>
    <line x1="295.4091" x2="331.782" y1="676.8198" y2="655.8199"/>
    <polyline points="343.0248,666.3501 373.6441,648.672 392.2867,659.4354"/>
    <polyline points="399.5286,661.9407 409.9273,655.937 427.167,665.8904 427.2358,677.9375 415.0602,684.9671 381.5624,665.6271 380.1169,666.4897"/>
    <line x1="380.1169" x2="339.6163" y1="660.0846" y2="683.4676"/>
    <polyline points="331.782,678.9445 339.6163,683.4676 339.6163,724.0252 380.1169,700.6422 380.1169,660.0846 367.0984,652.5684 331.782,672.9583"/>
    <polyline points="326.5978,693.351 326.5978,716.509 339.6163,724.0252"/>
    <line x1="349.6075" x2="349.6075" y1="721.9585" y2="718.2568"/>
    <line x1="361.845" x2="361.845" y1="714.8931" y2="711.1915"/>
    <line x1="365.4771" x2="365.4771" y1="709.0945" y2="716.8534"/>
    <polyline points="368.6982,718.7131 368.6982,713.3562 387.866,702.2896"/>
    <line x1="383.8523" x2="383.8523" y1="699.9723" y2="704.607"/>
    <line x1="380.1169" x2="381.5624" y1="691.5877" y2="690.7531"/>
    <line x1="371.7486" x2="366.6126" y1="711.595" y2="708.4389"/>
    <polyline points="368.6982,713.3562 397.317,729.8793 397.317,750.259 443.4705,723.6123 443.4705,703.2326 427.2358,693.8595"/>
    <line x1="437.6176" x2="442.7235" y1="699.8534" y2="696.9055"/>
    <line x1="458.4969" x2="452.19" y1="647.7024" y2="644.061"/>
    <polyline points="372.691,628.1833 349.3674,614.7174 349.3674,590.1496"/>
    <polyline points="352.5478,591.9857 352.5478,592.8779 376.7996,606.8797"/>
    <line x1="299.6748" x2="289.2192" y1="605.3852" y2="599.3486"/>
    <polyline points="299.6748,593.312 299.6748,605.3852 332.4556,586.4592 332.4556,559.3297 308.6806,545.6032"/>
    <polyline points="308.2683,569.5538 310.1533,570.6421 310.1533,587.2623 272.7983,608.8292"/>
    <line x1="262.8533" x2="272.582" y1="587.4772" y2="581.8604"/>
    <polyline points="265.7553,585.8017 254.8384,579.4988 254.8384,571.6161"/>
    <polyline points="279.7674,586.0088 308.6806,569.3157 308.6806,520.4895 260.5143,492.6807 231.6011,509.3738 231.6011,558.2 279.7674,586.0088 279.7674,537.1826 308.6806,520.4895"/>
    <line x1="279.7674" x2="231.6011" y1="537.1826" y2="509.3738"/>
    <polyline points="202.2912,470.8395 240.2764,448.9088 240.2764,428.0726 217.905,415.1564 179.9198,437.0872 179.9198,457.9234 202.2912,470.8395 202.2912,450.0033 179.9198,437.0872"/>
    <line x1="202.2912" x2="240.2764" y1="450.0033" y2="428.0726"/>
    <line x1="240.2764" x2="256.1597" y1="436.5392" y2="445.7095"/>
    <polyline points="252.9337,443.8469 252.9337,451.4637 292.0893,428.8572 292.0893,400.4395 283.8122,395.6607"/>
    <polyline points="287.9111,398.0272 287.9111,345.2488 308.3501,333.4484"/>
    <line x1="303.9882" x2="329.7213" y1="312.1318" y2="326.9888"/>
    <polyline points="333.5411,343.5817 333.5411,345.7396 348.3817,354.3077"/>
    <line x1="346.6015" x2="366.7332" y1="355.3355" y2="366.9586"/>
    <line x1="368.2811" x2="368.2811" y1="354.613" y2="344.9931"/>
    <polyline points="359.95,349.803 396.0271,328.9739 396.0271,284.878 379.3036,275.2227 349.0496,292.6899"/>
    <line x1="365.7731" x2="396.0271" y1="302.3452" y2="284.878"/>
    <line x1="416.9717" x2="437.8735" y1="292.1276" y2="304.1952"/>
    <polyline points="437.8735,318.0619 437.8735,304.1952 469.3629,286.0148"/>
    <polyline points="469.3629,296.124 469.3629,286.0148 448.4612,273.9472 416.9717,292.1276 416.9717,330.9434 426.4125,336.394"/>
    <line x1="426.4125" x2="453.795" y1="324.6789" y2="340.4882"/>
    <polyline points="426.4125,356.603 415.3393,350.2099 415.3393,307.0424 416.9717,306.1"/>
    <line x1="416.9717" x2="415.3393" y1="307.9849" y2="307.0424"/>
    <line x1="383.6988" x2="383.6988" y1="336.0916" y2="379.9943"/>
    <polyline points="378.1988,376.8188 396.3051,387.2725 396.3051,421.9823 367.1651,438.8063"/>
    <polyline points="364.3724,437.1939 364.3724,405.7088 341.6159,392.5703"/>
    <polyline points="341.6159,394.6835 310.4557,412.6738 310.4557,358.265 287.9111,345.2488"/>
    <line x1="310.4557" x2="333.5411" y1="358.265" y2="344.9366"/>
    <polyline points="329.7213,345.7871 369.0892,323.058 369.0892,304.2598 343.3561,289.4027 303.9882,312.1318 303.9882,330.9301 329.7213,345.7871 329.7213,326.9888 369.0892,304.2598"/>
    <line x1="350.2646" x2="350.2646" y1="333.9264" y2="353.2206"/>
    <polyline points="342.0721,350.6649 342.0721,375.6507 356.4969,383.9788"/>
    <line x1="353.7579" x2="353.7579" y1="385.5602" y2="382.3975"/>
    <polyline points="359.3737,382.3179 341.6159,392.5703 341.6159,427.2802 359.1027,437.3762"/>
    <line x1="356.4504" x2="344.0208" y1="453.2599" y2="446.0837"/>
    <polyline points="374.325,442.94 356.4504,453.2599 356.4504,485.3249 344.0208,478.1487 344.0208,446.0837 361.8954,435.7638 374.325,442.94 374.325,475.005 356.4504,485.3249"/>
    <line x1="364.3724" x2="396.3051" y1="405.7088" y2="387.2725"/>
    <line x1="403.9358" x2="427.0061" y1="363.1804" y2="376.5001"/>
    <polyline points="432.5682,373.2888 427.0061,376.5001 427.0061,408.9766 438.9378,402.0878 438.9378,376.9663"/>
    <polyline points="426.4125,362.3798 415.8675,356.2917 403.9358,363.1804 403.9358,395.6569 427.0061,408.9766"/>
    <line x1="436.8972" x2="455.8138" y1="403.266" y2="414.1874"/>
    <line x1="479.7552" x2="491.6536" y1="401.6401" y2="394.7706"/>
    <polyline points="502.8603,413.525 511.906,408.3024 540.1925,424.6336"/>
    <line x1="557.1358" x2="559.2686" y1="467.1065" y2="468.3379"/>
    <line x1="576.2391" x2="579.2517" y1="478.1358" y2="479.8752"/>
    <line x1="635.4708" x2="666.4673" y1="481.1374" y2="463.2416"/>
    <line x1="654.7366" x2="663.8743" y1="326.2517" y2="320.976"/>
    <line x1="632.4617" x2="638.4579" y1="269.4117" y2="265.9498"/>
    <line x1="478.3001" x2="460.5616" y1="290.964" y2="280.9334"/>
    <polyline points="385.744,232.6399 417.4342,214.3436 417.4342,197.4864 388.8577,180.9877 357.1676,199.2841 357.1676,216.1413 385.744,232.6399 385.744,215.7827 357.1676,199.2841"/>
    <line x1="385.744" x2="417.4342" y1="215.7827" y2="197.4864"/>
    <polyline points="397.0749,162.8065 440.9195,137.4928 440.9195,114.8613 409.4672,96.7023 365.6226,122.016 365.6226,144.6475 397.0749,162.8065 397.0749,140.175 440.9195,114.8613"/>
    <line x1="397.0749" x2="365.6226" y1="140.175" y2="122.016"/>
    <line x1="244.6638" x2="226.1385" y1="257.5837" y2="268.2793"/>
    <polyline points="210.3537,259.1659 226.1385,268.2793 226.1385,306.3906 210.3537,297.2773 210.3537,259.1659 228.879,248.4704 244.6638,257.5837 244.6638,295.6951 226.1385,306.3906"/>
    <polyline points="248.909,320.8049 219.9411,337.5296 219.9411,384.8879 228.4713,379.963"/>
    <polyline points="228.4713,375.7044 256.1597,391.6903 256.1597,445.7095 283.8122,429.7443 283.8122,375.7251 256.1238,359.7392 228.4713,375.7044 228.4713,421.2569"/>
    <polyline points="218.7865,415.6653 218.7865,403.3311 228.4713,397.7396"/>
    <line x1="228.4713" x2="218.7865" y1="408.9227" y2="403.3311"/>
    <polyline points="219.9411,384.8879 189.6407,367.3939 189.6407,320.0356 218.6086,303.311 248.909,320.8049 248.909,363.9047"/>
    <line x1="256.1597" x2="283.8122" y1="391.6903" y2="375.7251"/>
    <line x1="292.0893" x2="283.8122" y1="400.4395" y2="405.2183"/>
    <line x1="292.0893" x2="310.4557" y1="402.07" y2="412.6738"/>
    <polyline points="366.7332,386.5669 378.1988,379.9473 378.1988,360.339 358.067,348.7159 346.6015,355.3355 346.6015,374.9439 366.7332,386.5669 366.7332,366.9586 378.1988,360.339"/>
    <line x1="252.9337" x2="240.2764" y1="451.4637" y2="444.156"/>
    <line x1="219.9411" x2="189.6407" y1="337.5296" y2="320.0356"/>
    <line x1="172.6551" x2="160.5318" y1="314.1513" y2="321.1507"/>
    <polyline points="168.6491,311.8385 184.0563,302.9431 184.0563,264.5511 151.9496,246.0143 113.267,268.3477 113.267,292.2557"/>
    <polyline points="111.8756,293.059 160.5318,321.1507 160.5318,369.4839 111.8756,341.3921 111.8756,293.059 123.9989,286.0596 172.6551,314.1513 172.6551,362.4845 160.5318,369.4839"/>
    <polyline points="145.3737,298.4004 145.3737,286.8845 113.267,268.3477"/>
    <line x1="145.3737" x2="184.0563" y1="286.8845" y2="264.5511"/>
    <line x1="116.2116" x2="93.7568" y1="503.6363" y2="516.6006"/>
    <polyline points="93.7568,531.0839 116.2116,518.1196 116.2116,503.6363 79.7783,482.6015 57.3234,495.5659 57.3234,510.0491 93.7568,531.0839 93.7568,516.6006 57.3234,495.5659"/>
    <line x1="182.4428" x2="225.8643" y1="578.1262" y2="603.1956"/>
    <polyline points="225.8643,608.1403 225.8643,603.1956 238.6884,595.7916"/>
    <polyline points="238.6884,600.7363 238.6884,595.7916 195.2669,570.7222 182.4428,578.1262 182.4428,604.3972 223.8563,628.3073"/>
    <line x1="234.401" x2="223.8563" y1="615.3876" y2="609.2996"/>
    <line x1="400.6919" x2="419.8492" y1="878.6706" y2="889.7311"/>
    <line x1="455.1886" x2="470.2054" y1="903.9166" y2="912.5866"/>
    <line x1="472.3286" x2="484.4864" y1="906.8286" y2="913.8598"/>
    <polyline points="476.2433,909.1007 470.2054,912.5866 470.2054,905.6028"/>
    <line x1="458.1416" x2="455.1886" y1="872.3889" y2="870.684"/>
    <polyline points="455.1886,869.3279 419.8492,889.7311 419.8492,938.0066 400.6919,926.9461 400.6919,878.6706 436.0312,858.2674 455.1886,869.3279 455.1886,917.6034 419.8492,938.0066"/>
    <polyline points="429.5505,957.241 430.4304,956.733 438.6192,961.4608"/>
    <polyline points="437.7393,961.9688 423.7047,953.8659 393.0361,971.5724 393.0361,1001.8325 434.5791,1025.8174"/>
    <polyline points="432.8969,1008.0585 444.7511,1001.2145 444.7511,980.6558 416.7979,964.517 404.9438,971.361 404.9438,991.9197 432.8969,1008.0585 432.8969,987.4998 444.7511,980.6558"/>
    <line x1="441.0402" x2="481.736" y1="978.5133" y2="955.0175"/>
    <polyline points="465.2477,989.3689 465.2477,1008.1109 434.5791,1025.8174 434.5791,1007.0872"/>
    <polyline points="444.7511,1001.2027 481.736,979.8494 481.736,955.0175 465.7576,945.7924 425.0618,969.2882"/>
    <line x1="432.8969" x2="404.9438" y1="987.4998" y2="971.361"/>
    <line x1="404.9438" x2="393.0361" y1="978.4473" y2="971.5724"/>
  </g>
</svg>
