<?xml version="1.0" encoding="utf-8" ?>
<svg xmlns="http://www.w3.org/2000/svg" xmlns:cc="http://creativecommons.org/ns#" xmlns:dc="http://purl.org/dc/elements/1.1/" xmlns:ev="http://www.w3.org/2001/xml-events" xmlns:inkscape="http://www.inkscape.org/namespaces/inkscape" xmlns:rdf="http://www.w3.org/1999/02/22-rdf-syntax-ns#" xmlns:sodipodi="http://sodipodi.sourceforge.net/DTD/sodipodi-0.dtd" xmlns:xlink="http://www.w3.org/1999/xlink" baseProfile="tiny" height="29.7cm" version="1.2" viewBox="0 0 793.7007874015749 1122.5196850393702" width="21.0cm">
  <metadata>
    <rdf:RDF>
      <cc:Work>
        <dc:format>image/svg+xml</dc:format>
        <dc:source/>
        <dc:date>2021-12-10T23:12:41.284815</dc:date>
      </cc:Work>
    </rdf:RDF>
  </metadata>
  <defs/>
  <g fill="none" id="layer1" inkscape:groupmode="layer" inkscape:label="1" stroke="#00f" style="display:inline">
    <polyline points="350.8396,976.4651 280.9724,936.1272 280.9724,914.833 373.0361,861.6801"/>
    <line x1="374.182" x2="374.182" y1="862.3417" y2="788.3746"/>
    <line x1="376.606" x2="376.606" y1="789.7741" y2="863.7412"/>
    <polyline points="378.4265,864.7922 318.4281,899.4323 318.4281,951.456 403.9813,1000.8502"/>
    <line x1="401.537" x2="401.537" y1="999.4389" y2="947.4153"/>
    <line x1="399.0926" x2="399.0926" y1="946.004" y2="998.0277"/>
    <line x1="396.6482" x2="396.6482" y1="996.6164" y2="944.5928"/>
    <line x1="394.2038" x2="394.2038" y1="943.1815" y2="995.2051"/>
    <polyline points="393.286,994.6752 373.8659,1005.8874 373.8659,983.463"/>
    <line x1="374.6488" x2="374.6488" y1="983.915" y2="931.8914"/>
    <line x1="372.2044" x2="372.2044" y1="930.4801" y2="982.5038"/>
    <line x1="371.5632" x2="371.5632" y1="982.1336" y2="1004.558"/>
    <polyline points="373.8659,1005.8874 350.8396,992.5932 350.8396,970.1688"/>
    <line x1="350.205" x2="350.205" y1="969.8024" y2="917.7787"/>
    <line x1="347.7606" x2="347.7606" y1="916.3675" y2="968.3911"/>
    <line x1="348.8659" x2="348.8659" y1="969.0293" y2="975.3255"/>
    <line x1="346.4411" x2="346.4411" y1="973.9256" y2="967.6293"/>
    <line x1="345.3162" x2="345.3162" y1="966.9799" y2="914.9562"/>
    <line x1="342.8718" x2="342.8718" y1="913.545" y2="965.5686"/>
    <line x1="344.0163" x2="344.0163" y1="966.2294" y2="972.5256"/>
    <line x1="341.5916" x2="341.5916" y1="971.1257" y2="964.8295"/>
    <line x1="340.4275" x2="340.4275" y1="964.1574" y2="912.1337"/>
    <line x1="337.9831" x2="337.9831" y1="910.7224" y2="962.7461"/>
    <line x1="339.1668" x2="339.1668" y1="963.4295" y2="969.7258"/>
    <line x1="336.742" x2="336.742" y1="968.3258" y2="962.0296"/>
    <line x1="335.5387" x2="335.5387" y1="961.3348" y2="909.3112"/>
    <line x1="333.0943" x2="333.0943" y1="907.8999" y2="959.9236"/>
    <line x1="331.8925" x2="331.8925" y1="959.2297" y2="965.5259"/>
    <line x1="329.4677" x2="329.4677" y1="964.126" y2="957.8298"/>
    <line x1="330.65" x2="330.65" y1="958.5123" y2="906.4886"/>
    <line x1="328.2056" x2="328.2056" y1="905.0774" y2="957.101"/>
    <line x1="327.043" x2="327.043" y1="956.4298" y2="962.7261"/>
    <line x1="324.6182" x2="324.6182" y1="961.3261" y2="955.0299"/>
    <line x1="325.7612" x2="325.7612" y1="955.6898" y2="903.6661"/>
    <line x1="323.3168" x2="323.3168" y1="902.2549" y2="954.2785"/>
    <line x1="322.1934" x2="322.1934" y1="953.6299" y2="959.9262"/>
    <line x1="319.7687" x2="319.7687" y1="958.5262" y2="952.23"/>
    <line x1="320.8724" x2="320.8724" y1="952.8672" y2="900.8436"/>
    <line x1="318.4281" x2="403.9813" y1="899.4323" y2="948.8265"/>
    <line x1="408.784" x2="408.784" y1="946.0537" y2="998.0774"/>
    <line x1="413.5867" x2="413.5867" y1="995.3046" y2="943.2809"/>
    <line x1="418.3893" x2="418.3893" y1="940.5081" y2="992.5317"/>
    <line x1="423.192" x2="423.192" y1="989.7589" y2="937.7353"/>
    <line x1="427.9946" x2="427.9946" y1="934.9625" y2="986.9861"/>
    <line x1="432.7973" x2="432.7973" y1="984.2133" y2="932.1896"/>
    <line x1="437.6" x2="437.6" y1="929.4168" y2="981.4405"/>
    <line x1="442.4026" x2="442.4026" y1="978.6677" y2="926.644"/>
    <line x1="447.2053" x2="447.2053" y1="923.8712" y2="975.8948"/>
    <line x1="452.008" x2="452.008" y1="973.122" y2="921.0984"/>
    <line x1="456.8106" x2="456.8106" y1="918.3255" y2="970.3492"/>
    <line x1="461.6133" x2="461.6133" y1="967.5764" y2="915.5527"/>
    <line x1="466.4159" x2="466.4159" y1="912.7799" y2="964.8036"/>
    <line x1="471.2186" x2="471.2186" y1="962.0308" y2="910.0071"/>
    <line x1="476.0213" x2="476.0213" y1="907.2343" y2="959.2579"/>
    <line x1="480.8239" x2="480.8239" y1="956.4851" y2="904.4615"/>
    <polyline points="485.6266,901.6886 403.9813,948.8265 403.9813,1000.8502 485.6266,953.7123 485.6266,901.6886 458.9195,886.2693"/>
    <line x1="454.5196" x2="454.5196" y1="891.3464" y2="853.9968"/>
    <line x1="458.4009" x2="458.4009" y1="851.1571" y2="801.4947"/>
    <polyline points="457.2809,802.1413 384.1362,759.9112 384.1362,730.3986 418.1089,710.7844 426.5801,715.6753"/>
    <line x1="425.1652" x2="425.1652" y1="714.8584" y2="705.8065"/>
    <line x1="425.4641" x2="425.4641" y1="705.634" y2="711.4358"/>
    <line x1="425.1652" x2="426.5801" y1="711.2633" y2="712.0802"/>
    <line x1="420.525" x2="420.525" y1="712.1794" y2="708.4856"/>
    <line x1="422.6437" x2="422.6437" y1="707.2623" y2="622.7017"/>
    <line x1="422.0849" x2="422.0849" y1="622.3791" y2="575.5283"/>
    <line x1="419.7539" x2="419.7539" y1="574.1825" y2="621.0333"/>
    <polyline points="417.9065,619.9667 417.9065,709.9973 507.9128,658.0321 507.9128,632.543"/>
    <line x1="507.2014" x2="507.2014" y1="632.9537" y2="605.7428"/>
    <line x1="505.5631" x2="529.4881" y1="606.6887" y2="592.8755"/>
    <line x1="526.1283" x2="526.1283" y1="594.8153" y2="622.0263"/>
    <polyline points="529.4881,620.0865 488.2745,643.8812 488.2745,619.156"/>
    <line x1="486.2268" x2="486.2268" y1="620.3382" y2="573.4875"/>
    <line x1="491.0609" x2="491.0609" y1="570.6965" y2="617.5472"/>
    <line x1="493.0062" x2="493.0062" y1="616.4241" y2="641.1493"/>
    <line x1="493.7013" x2="493.7013" y1="640.748" y2="666.2372"/>
    <line x1="495.6101" x2="495.6101" y1="665.1351" y2="757.7156"/>
    <polyline points="494.212,758.5228 506.105,765.3892 506.105,839.3563 458.9195,866.5989"/>
    <line x1="463.1713" x2="463.1713" y1="864.1441" y2="798.7405"/>
    <line x1="462.1341" x2="462.1341" y1="799.3393" y2="777.043"/>
    <line x1="462.6712" x2="462.6712" y1="776.7329" y2="684.1524"/>
    <line x1="460.5411" x2="460.5411" y1="685.3822" y2="635.1679"/>
    <line x1="462.0565" x2="462.0565" y1="634.2929" y2="587.4422"/>
    <line x1="457.2225" x2="457.2225" y1="590.2331" y2="637.0839"/>
    <line x1="455.8039" x2="455.8039" y1="637.9029" y2="688.1172"/>
    <line x1="455.5514" x2="455.5514" y1="688.263" y2="778.0558"/>
    <line x1="454.8427" x2="454.8427" y1="777.6466" y2="800.7337"/>
    <line x1="453.6305" x2="453.6305" y1="800.0338" y2="848.4029"/>
    <line x1="448.8601" x2="448.8601" y1="845.6487" y2="798.4396"/>
    <line x1="447.5283" x2="447.5283" y1="796.5106" y2="773.4236"/>
    <line x1="448.3086" x2="448.3086" y1="773.8741" y2="692.4447"/>
    <line x1="446.3296" x2="446.3296" y1="693.5873" y2="636.3767"/>
    <line x1="445.3953" x2="445.3953" y1="635.8373" y2="588.9866"/>
    <line x1="443.0643" x2="443.0643" y1="587.6408" y2="634.4915"/>
    <line x1="441.5924" x2="441.5924" y1="633.6417" y2="696.3223"/>
    <line x1="441.0657" x2="441.0657" y1="696.6263" y2="769.6925"/>
    <line x1="440.2138" x2="440.2138" y1="769.2006" y2="792.2876"/>
    <line x1="437.7756" x2="437.7756" y1="790.88" y2="767.7929"/>
    <line x1="438.6515" x2="438.6515" y1="768.2986" y2="698.0202"/>
    <line x1="436.8552" x2="436.8552" y1="699.0573" y2="630.9067"/>
    <line x1="436.0712" x2="436.0712" y1="630.454" y2="583.6033"/>
    <line x1="438.4022" x2="438.4022" y1="584.9491" y2="631.7999"/>
    <line x1="440.7332" x2="440.7332" y1="633.1457" y2="586.2949"/>
    <line x1="433.7401" x2="433.7401" y1="582.2575" y2="629.1082"/>
    <line x1="432.118" x2="432.118" y1="628.1717" y2="701.7923"/>
    <line x1="431.4086" x2="431.4086" y1="702.2019" y2="764.117"/>
    <line x1="430.4612" x2="430.4612" y1="763.5699" y2="786.657"/>
    <line x1="432.8993" x2="432.8993" y1="788.0646" y2="764.9776"/>
    <line x1="433.8229" x2="433.8229" y1="765.5108" y2="700.808"/>
    <line x1="436.2372" x2="436.2372" y1="699.4141" y2="766.9047"/>
    <line x1="435.3375" x2="435.3375" y1="766.3853" y2="789.4723"/>
    <line x1="442.6519" x2="442.6519" y1="793.6953" y2="770.6083"/>
    <line x1="443.48" x2="443.48" y1="771.0864" y2="695.2325"/>
    <line x1="445.8943" x2="445.8943" y1="693.8386" y2="772.4802"/>
    <line x1="445.0901" x2="445.0901" y1="772.016" y2="795.103"/>
    <line x1="444.0897" x2="444.0897" y1="801.1938" y2="842.8945"/>
    <line x1="439.3193" x2="439.3193" y1="840.1403" y2="803.948"/>
    <line x1="434.5489" x2="434.5489" y1="806.7022" y2="837.3861"/>
    <line x1="429.7784" x2="429.7784" y1="834.6319" y2="809.4564"/>
    <line x1="425.008" x2="425.008" y1="812.2106" y2="831.8777"/>
    <polyline points="420.2376,829.1235 420.2376,814.9648 449.9664,797.9183 449.9664,774.8313"/>
    <line x1="450.7228" x2="450.7228" y1="775.268" y2="691.0508"/>
    <line x1="451.0667" x2="451.0667" y1="690.8523" y2="639.1117"/>
    <line x1="450.0574" x2="450.0574" y1="638.529" y2="591.6782"/>
    <line x1="447.7263" x2="447.7263" y1="590.3324" y2="637.1831"/>
    <polyline points="452.3884,639.8748 415.0918,618.3416 415.0918,571.4909 444.6229,554.4411"/>
    <line x1="443.8074" x2="443.8074" y1="553.9703" y2="535.3376"/>
    <line x1="444.1038" x2="444.1038" y1="535.5087" y2="424.0788"/>
    <line x1="441.6653" x2="441.6653" y1="422.6709" y2="534.1008"/>
    <line x1="441.3949" x2="441.3949" y1="533.9448" y2="552.5775"/>
    <line x1="438.9825" x2="438.9825" y1="551.1846" y2="532.5519"/>
    <line x1="439.2268" x2="439.2268" y1="532.693" y2="421.263"/>
    <line x1="436.7882" x2="436.7882" y1="419.8552" y2="531.2851"/>
    <line x1="436.57" x2="436.57" y1="531.1591" y2="549.7918"/>
    <line x1="434.1575" x2="434.1575" y1="548.3989" y2="529.7662"/>
    <line x1="434.3497" x2="434.3497" y1="529.8772" y2="418.4473"/>
    <line x1="431.9112" x2="431.9112" y1="417.0394" y2="528.4693"/>
    <line x1="431.745" x2="431.745" y1="528.3734" y2="547.0061"/>
    <line x1="429.3325" x2="429.4727" y1="545.6132" y2="415.6315"/>
    <line x1="427.0342" x2="426.92" y1="414.2237" y2="544.2204"/>
    <polyline points="428.6924,545.2437 396.6263,563.7571 396.6263,580.234"/>
    <line x1="399.0381" x2="399.0381" y1="581.6264" y2="565.1495"/>
    <line x1="396.6263" x2="415.0918" y1="563.7571" y2="574.4182"/>
    <line x1="413.5089" x2="413.5089" y1="573.5042" y2="600.7152"/>
    <line x1="415.0918" x2="401.0332" y1="601.6291" y2="593.5124"/>
    <line x1="401.4499" x2="401.4499" y1="593.753" y2="566.542"/>
    <line x1="403.8617" x2="403.8617" y1="567.9344" y2="595.1454"/>
    <line x1="406.2735" x2="406.2735" y1="596.5379" y2="569.3269"/>
    <line x1="408.6853" x2="408.6853" y1="570.7193" y2="597.9303"/>
    <line x1="411.0971" x2="411.0971" y1="599.3228" y2="572.1118"/>
    <polyline points="415.0918,571.4909 452.3884,593.0241 452.3884,639.8748 505.5631,609.1744 505.5631,562.3237 481.9259,548.6768"/>
    <line x1="482.257" x2="482.257" y1="548.4856" y2="530.3755"/>
    <line x1="482.5955" x2="482.5955" y1="530.1801" y2="418.7501"/>
    <line x1="487.3676" x2="487.3676" y1="415.995" y2="527.4249"/>
    <line x1="487.0519" x2="487.0519" y1="527.6071" y2="545.7173"/>
    <line x1="491.8469" x2="491.8469" y1="542.9489" y2="524.8388"/>
    <line x1="492.1397" x2="492.1397" y1="524.6697" y2="413.2398"/>
    <line x1="496.9118" x2="496.9118" y1="410.4846" y2="521.9145"/>
    <line x1="496.6418" x2="496.6418" y1="522.0704" y2="540.1805"/>
    <line x1="501.4367" x2="501.4367" y1="537.4122" y2="519.302"/>
    <line x1="501.6839" x2="501.6839" y1="519.1593" y2="407.7294"/>
    <line x1="506.456" x2="506.456" y1="404.9742" y2="516.4042"/>
    <line x1="506.2317" x2="506.2317" y1="516.5337" y2="534.6438"/>
    <line x1="506.6555" x2="541.5805" y1="534.3991" y2="554.5631"/>
    <line x1="553.0122" x2="565.8665" y1="554.3975" y2="546.9761"/>
    <line x1="561.5817" x2="561.5817" y1="549.4499" y2="559.3563"/>
    <polyline points="565.8665,561.8301 565.8665,546.9761 525.3691,523.5949 525.5445,393.9535"/>
    <line x1="530.3166" x2="458.7349" y1="391.1983" y2="432.5261"/>
    <line x1="456.2964" x2="456.2964" y1="431.1182" y2="542.5481"/>
    <line x1="455.8698" x2="455.8698" y1="542.3018" y2="560.9346"/>
    <line x1="453.4573" x2="453.4573" y1="559.5417" y2="540.909"/>
    <line x1="453.8579" x2="453.8579" y1="541.1402" y2="429.7103"/>
    <line x1="451.4193" x2="451.4193" y1="428.3024" y2="539.7323"/>
    <line x1="451.0449" x2="451.0449" y1="539.5161" y2="558.1489"/>
    <line x1="448.6324" x2="448.6324" y1="556.756" y2="538.1233"/>
    <line x1="448.9808" x2="448.9808" y1="538.3245" y2="426.8946"/>
    <line x1="446.5423" x2="446.5423" y1="425.4867" y2="536.9166"/>
    <line x1="446.2199" x2="446.2199" y1="536.7304" y2="555.3632"/>
    <polyline points="458.2823,562.3274 378.6704,516.3635 378.6704,497.7307"/>
    <line x1="380.7024" x2="380.7024" y1="498.9039" y2="488.5665"/>
    <line x1="380.1787" x2="380.1787" y1="488.2641" y2="391.5948"/>
    <line x1="382.2279" x2="382.2279" y1="392.7778" y2="489.4472"/>
    <line x1="383.1409" x2="383.1409" y1="489.9744" y2="500.3118"/>
    <line x1="383.4954" x2="383.4954" y1="500.5164" y2="519.1491"/>
    <line x1="384.3005" x2="384.3005" y1="519.614" y2="536.1036"/>
    <line x1="381.8963" x2="381.8963" y1="537.4916" y2="518.2259"/>
    <line x1="381.0829" x2="381.0829" y1="517.7563" y2="499.1236"/>
    <line x1="385.5794" x2="385.5794" y1="501.7197" y2="491.3823"/>
    <line x1="386.3262" x2="386.3262" y1="491.8134" y2="395.144"/>
    <polyline points="388.3753,396.3271 388.3753,492.9965 378.1295,487.0811 378.1295,390.4117 405.1038,374.8381 415.3496,380.7535 415.3496,477.4229 388.3753,492.9965"/>
    <line x1="388.018" x2="388.018" y1="492.7901" y2="503.1275"/>
    <line x1="388.3203" x2="388.3203" y1="503.3021" y2="521.9348"/>
    <line x1="389.1088" x2="389.1088" y1="522.3901" y2="533.3275"/>
    <line x1="391.5129" x2="391.5129" y1="531.9394" y2="523.7781"/>
    <line x1="390.7328" x2="390.7328" y1="523.3277" y2="504.695"/>
    <line x1="390.4565" x2="390.4565" y1="504.5354" y2="491.7949"/>
    <line x1="395.3335" x2="395.3335" y1="488.9792" y2="507.3512"/>
    <line x1="395.5578" x2="395.5578" y1="507.4807" y2="526.1134"/>
    <line x1="396.3213" x2="396.3213" y1="526.5542" y2="529.1634"/>
    <line x1="397.9703" x2="397.9703" y1="527.5062" y2="508.8735"/>
    <line x1="397.772" x2="397.772" y1="508.7591" y2="487.5713"/>
    <line x1="397.3667" x2="397.3667" y1="487.8053" y2="391.1359"/>
    <line x1="392.871" x2="392.895" y1="393.7315" y2="505.9433"/>
    <line x1="393.1453" x2="393.1453" y1="506.0878" y2="524.7205"/>
    <line x1="393.9171" x2="393.9171" y1="525.1661" y2="530.5514"/>
    <polyline points="398.5809,527.8588 332.0319,566.2808 332.0319,570.2012"/>
    <line x1="334.4854" x2="334.4854" y1="568.7847" y2="567.6974"/>
    <line x1="335.427" x2="332.0319" y1="568.241" y2="566.2808"/>
    <line x1="315.3021" x2="315.3021" y1="542.0945" y2="498.1559"/>
    <line x1="317.6498" x2="317.6498" y1="496.8005" y2="425.5667"/>
    <line x1="318.9319" x2="318.9319" y1="420.8465" y2="393.2892"/>
    <line x1="318.3787" x2="318.3787" y1="393.6086" y2="351.424"/>
    <polyline points="317.9068,351.6964 374.9746,318.7483 374.9746,243.6329 339.9787,223.428 282.9108,256.3761 282.9108,331.4915 317.9068,351.6964 317.9068,276.5811 374.9746,243.6329"/>
    <line x1="370.219" x2="370.219" y1="246.3786" y2="321.494"/>
    <line x1="365.4633" x2="365.4633" y1="324.2396" y2="249.1243"/>
    <line x1="360.7077" x2="360.7077" y1="251.87" y2="326.9853"/>
    <line x1="359.84" x2="375.1564" y1="327.4863" y2="336.3293"/>
    <line x1="355.952" x2="355.952" y1="329.731" y2="254.6157"/>
    <line x1="351.1964" x2="351.1964" y1="257.3613" y2="332.4767"/>
    <line x1="346.4407" x2="346.4407" y1="335.2223" y2="260.107"/>
    <line x1="341.6851" x2="341.6851" y1="262.8527" y2="337.968"/>
    <line x1="336.9294" x2="336.9294" y1="340.7137" y2="265.5984"/>
    <line x1="332.1738" x2="332.1738" y1="268.344" y2="343.4594"/>
    <line x1="327.4181" x2="327.4181" y1="346.2051" y2="271.0897"/>
    <line x1="322.6625" x2="322.6625" y1="273.8354" y2="348.9507"/>
    <polyline points="323.1056,348.6949 323.1056,390.8795 295.0666,407.0678"/>
    <line x1="294.7445" x2="294.7445" y1="406.8819" y2="357.6024"/>
    <line x1="299.4713" x2="299.4713" y1="354.8734" y2="404.5247"/>
    <line x1="299.7716" x2="299.7716" y1="404.3514" y2="409.7843"/>
    <line x1="297.3766" x2="297.3766" y1="408.4015" y2="405.7342"/>
    <line x1="302.1666" x2="302.1666" y1="402.9686" y2="411.167"/>
    <line x1="304.5617" x2="304.5617" y1="412.5498" y2="401.5858"/>
    <line x1="304.1982" x2="304.1982" y1="401.7957" y2="352.1443"/>
    <line x1="308.925" x2="308.925" y1="349.4153" y2="399.0666"/>
    <line x1="309.3517" x2="309.3517" y1="398.8203" y2="415.3154"/>
    <line x1="311.7468" x2="311.7468" y1="416.6981" y2="397.4375"/>
    <line x1="313.6519" x2="313.6519" y1="396.3376" y2="349.2398"/>
    <line x1="313.2407" x2="313.2407" y1="349.0024" y2="273.8871"/>
    <line x1="310.9076" x2="310.9076" y1="272.5401" y2="347.6554"/>
    <line x1="311.4404" x2="252.2029" y1="347.963" y2="382.1638"/>
    <line x1="256.9297" x2="256.9297" y1="379.4348" y2="385.0495"/>
    <line x1="261.6566" x2="261.6566" y1="387.7785" y2="376.7057"/>
    <line x1="266.3834" x2="266.3834" y1="373.9767" y2="390.5076"/>
    <line x1="271.1103" x2="271.1103" y1="393.2366" y2="371.2477"/>
    <line x1="275.8371" x2="275.8371" y1="368.5186" y2="395.9657"/>
    <line x1="280.5639" x2="280.5639" y1="398.6947" y2="365.7896"/>
    <line x1="285.2908" x2="285.2908" y1="363.0605" y2="401.4238"/>
    <line x1="290.0176" x2="290.0176" y1="404.1528" y2="360.3315"/>
    <polyline points="291.4375,348.5017 268.9178,335.5 268.9178,318.9493 282.9108,310.8704"/>
    <line x1="278.4466" x2="278.4466" y1="299.3781" y2="223.2694"/>
    <line x1="273.7899" x2="273.7899" y1="225.9579" y2="302.0666"/>
    <line x1="269.1332" x2="269.1332" y1="304.7552" y2="228.6465"/>
    <line x1="264.4765" x2="287.76" y1="231.335" y2="217.8923"/>
    <line x1="286.3923" x2="286.3923" y1="217.1027" y2="175.4973"/>
    <line x1="288.7739" x2="288.7739" y1="176.8723" y2="252.9911"/>
    <polyline points="287.76,253.5765 287.76,217.8923 235.9268,187.9664 212.6433,201.4091 212.6433,277.5178 264.4765,307.4437"/>
    <line x1="262.1205" x2="262.1205" y1="306.0835" y2="229.9748"/>
    <line x1="259.7644" x2="259.7644" y1="228.6145" y2="304.7232"/>
    <line x1="257.4084" x2="257.4084" y1="303.3629" y2="227.2542"/>
    <line x1="255.0523" x2="255.0523" y1="225.894" y2="302.0027"/>
    <line x1="252.6962" x2="252.6962" y1="300.6424" y2="224.5337"/>
    <line x1="250.3402" x2="250.3402" y1="223.1734" y2="299.2821"/>
    <line x1="247.9841" x2="247.9841" y1="297.9219" y2="221.8132"/>
    <line x1="245.6281" x2="245.6281" y1="220.4529" y2="296.5616"/>
    <line x1="243.272" x2="243.272" y1="295.2013" y2="219.0926"/>
    <line x1="240.916" x2="240.916" y1="217.7324" y2="293.8411"/>
    <line x1="238.5599" x2="238.5599" y1="292.4808" y2="216.3721"/>
    <line x1="236.2039" x2="236.2039" y1="215.0118" y2="291.1205"/>
    <line x1="233.8478" x2="233.8478" y1="289.7603" y2="213.6515"/>
    <line x1="231.4918" x2="231.4918" y1="212.2913" y2="288.4"/>
    <line x1="229.1357" x2="229.1357" y1="287.0397" y2="210.931"/>
    <line x1="226.7797" x2="226.7797" y1="209.5707" y2="285.6794"/>
    <line x1="224.4236" x2="224.4236" y1="284.3192" y2="208.2105"/>
    <line x1="222.0675" x2="222.0675" y1="206.8502" y2="282.9589"/>
    <line x1="219.7115" x2="219.7115" y1="281.5986" y2="205.4899"/>
    <line x1="217.3554" x2="217.3554" y1="204.1297" y2="280.2384"/>
    <line x1="214.9994" x2="214.9994" y1="278.8781" y2="202.7694"/>
    <polyline points="212.6433,201.4091 264.4765,231.335 264.4765,307.4437 282.9108,296.8007"/>
    <line x1="268.9178" x2="282.9108" y1="318.9493" y2="327.0282"/>
    <line x1="282.4296" x2="282.4296" y1="326.7503" y2="343.301"/>
    <line x1="280.1777" x2="280.1777" y1="342.0009" y2="325.4502"/>
    <line x1="277.9257" x2="277.9257" y1="324.15" y2="340.7007"/>
    <line x1="275.6737" x2="275.6737" y1="339.4005" y2="322.8498"/>
    <line x1="273.4218" x2="273.4218" y1="321.5496" y2="338.1003"/>
    <polyline points="275.3072,339.1889 217.084,372.8041 217.084,403.7134"/>
    <line x1="219.4172" x2="219.4172" y1="405.0604" y2="374.1512"/>
    <line x1="221.7504" x2="221.7504" y1="375.4983" y2="406.4075"/>
    <line x1="224.0836" x2="224.0836" y1="407.7546" y2="376.8453"/>
    <line x1="226.4168" x2="226.4168" y1="378.1924" y2="409.1017"/>
    <polyline points="228.1074,410.0777 202.3499,395.2066 116.3012,444.8869 116.3012,540.5805 210.7342,595.1014"/>
    <line x1="208.3128" x2="208.3128" y1="593.7034" y2="498.0098"/>
    <line x1="205.8915" x2="205.8915" y1="496.6119" y2="592.3055"/>
    <line x1="203.4701" x2="203.4701" y1="590.9075" y2="495.2139"/>
    <line x1="201.0488" x2="201.0488" y1="493.8159" y2="589.5095"/>
    <line x1="198.6274" x2="198.6274" y1="588.1116" y2="492.4179"/>
    <line x1="196.206" x2="196.206" y1="491.02" y2="586.7136"/>
    <line x1="193.7847" x2="193.7847" y1="585.3156" y2="489.622"/>
    <line x1="191.3633" x2="191.3633" y1="488.224" y2="583.9176"/>
    <line x1="188.942" x2="188.942" y1="582.5197" y2="486.826"/>
    <line x1="186.5206" x2="186.5206" y1="485.4281" y2="581.1217"/>
    <line x1="184.0992" x2="184.0992" y1="579.7237" y2="484.0301"/>
    <line x1="181.6779" x2="181.6779" y1="482.6321" y2="578.3257"/>
    <line x1="179.2565" x2="179.2565" y1="576.9278" y2="481.2342"/>
    <line x1="176.8352" x2="176.8352" y1="479.8362" y2="575.5298"/>
    <line x1="174.4138" x2="174.4138" y1="574.1318" y2="478.4382"/>
    <line x1="171.9924" x2="171.9924" y1="477.0402" y2="572.7339"/>
    <line x1="169.5711" x2="169.5711" y1="571.3359" y2="475.6423"/>
    <line x1="167.1497" x2="167.1497" y1="474.2443" y2="569.9379"/>
    <line x1="164.7284" x2="164.7284" y1="568.5399" y2="472.8463"/>
    <line x1="162.307" x2="162.307" y1="471.4484" y2="567.142"/>
    <line x1="159.8857" x2="159.8857" y1="565.744" y2="470.0504"/>
    <line x1="157.4643" x2="157.4643" y1="468.6524" y2="564.346"/>
    <line x1="155.0429" x2="155.0429" y1="562.9481" y2="467.2544"/>
    <line x1="152.6216" x2="152.6216" y1="465.8565" y2="561.5501"/>
    <line x1="150.2002" x2="150.2002" y1="560.1521" y2="464.4585"/>
    <line x1="147.7789" x2="147.7789" y1="463.0605" y2="558.7541"/>
    <line x1="145.3575" x2="145.3575" y1="557.3562" y2="461.6625"/>
    <line x1="142.9361" x2="142.9361" y1="460.2646" y2="555.9582"/>
    <line x1="140.5148" x2="140.5148" y1="554.5602" y2="458.8666"/>
    <line x1="138.0934" x2="138.0934" y1="457.4686" y2="553.1622"/>
    <line x1="135.6721" x2="135.6721" y1="551.7643" y2="456.0707"/>
    <line x1="133.2507" x2="133.2507" y1="454.6727" y2="550.3663"/>
    <line x1="130.8293" x2="130.8293" y1="548.9683" y2="453.2747"/>
    <line x1="128.408" x2="128.408" y1="451.8767" y2="547.5704"/>
    <line x1="125.9866" x2="125.9866" y1="546.1724" y2="450.4788"/>
    <line x1="123.5653" x2="123.5653" y1="449.0808" y2="544.7744"/>
    <line x1="121.1439" x2="121.1439" y1="543.3764" y2="447.6828"/>
    <line x1="118.7226" x2="118.7226" y1="446.2849" y2="541.9785"/>
    <line x1="116.3012" x2="210.7342" y1="444.8869" y2="499.4078"/>
    <line x1="215.5147" x2="215.5147" y1="496.6478" y2="592.3414"/>
    <line x1="220.2952" x2="220.2952" y1="589.5814" y2="493.8878"/>
    <line x1="225.0756" x2="225.0756" y1="491.1278" y2="586.8214"/>
    <line x1="229.8561" x2="229.8561" y1="584.0614" y2="488.3677"/>
    <line x1="234.6366" x2="234.6366" y1="485.6077" y2="581.3013"/>
    <line x1="239.4171" x2="239.4171" y1="578.5413" y2="482.8477"/>
    <line x1="244.1976" x2="244.1976" y1="480.0877" y2="575.7813"/>
    <line x1="248.9781" x2="248.9781" y1="573.0213" y2="478.9947"/>
    <line x1="250.026" x2="250.026" y1="479.5997" y2="408.366"/>
    <line x1="252.4615" x2="252.4615" y1="409.7721" y2="481.0058"/>
    <line x1="253.7585" x2="253.7585" y1="481.7547" y2="570.2613"/>
    <line x1="258.539" x2="258.539" y1="567.5013" y2="484.5147"/>
    <line x1="257.3323" x2="257.3323" y1="483.818" y2="412.5842"/>
    <line x1="259.7677" x2="259.7677" y1="413.9903" y2="485.2241"/>
    <line x1="262.2031" x2="262.2031" y1="486.6302" y2="415.3964"/>
    <line x1="264.6385" x2="264.6385" y1="416.8025" y2="488.0362"/>
    <line x1="263.3195" x2="263.3195" y1="487.2747" y2="564.7413"/>
    <line x1="268.1" x2="268.1" y1="561.9813" y2="490.0347"/>
    <line x1="267.0739" x2="267.0739" y1="489.4423" y2="418.2086"/>
    <line x1="269.5093" x2="269.5093" y1="419.6146" y2="490.8484"/>
    <line x1="271.9447" x2="271.9447" y1="492.2545" y2="421.0207"/>
    <line x1="274.3801" x2="274.3801" y1="422.4268" y2="493.6606"/>
    <line x1="272.8805" x2="272.8805" y1="492.7948" y2="559.2212"/>
    <line x1="277.661" x2="277.661" y1="556.4612" y2="495.5548"/>
    <line x1="276.8155" x2="276.8155" y1="495.0667" y2="423.8329"/>
    <line x1="279.2509" x2="279.2509" y1="425.239" y2="496.4728"/>
    <line x1="281.6864" x2="281.6864" y1="497.8788" y2="426.6451"/>
    <line x1="284.1218" x2="284.1218" y1="428.0511" y2="499.2849"/>
    <line x1="282.4414" x2="282.4414" y1="498.3148" y2="553.7012"/>
    <line x1="287.2219" x2="287.2219" y1="550.9412" y2="501.0748"/>
    <line x1="286.5572" x2="286.5572" y1="500.691" y2="429.4572"/>
    <line x1="288.9926" x2="288.9926" y1="430.8633" y2="502.0971"/>
    <line x1="291.428" x2="291.428" y1="503.5032" y2="432.2694"/>
    <line x1="293.8634" x2="293.8634" y1="433.6755" y2="504.9093"/>
    <line x1="292.0024" x2="292.0024" y1="503.8348" y2="548.1812"/>
    <line x1="291.1713" x2="291.1713" y1="548.661" y2="550.5254"/>
    <line x1="289.5567" x2="295.9354" y1="549.5932" y2="553.2759"/>
    <line x1="293.5534" x2="293.5534" y1="551.9007" y2="547.2857"/>
    <polyline points="295.9354,545.9105 295.9354,553.2759 354.0357,519.7317 354.0357,475.5851"/>
    <line x1="354.8846" x2="354.8846" y1="475.0949" y2="380.0148"/>
    <line x1="350.0878" x2="350.0878" y1="382.7843" y2="477.8644"/>
    <line x1="349.194" x2="349.194" y1="478.3805" y2="522.5271"/>
    <line x1="344.3523" x2="344.3523" y1="525.3224" y2="481.1758"/>
    <line x1="345.2909" x2="345.2909" y1="480.6339" y2="385.5538"/>
    <line x1="340.494" x2="340.494" y1="388.3232" y2="483.4034"/>
    <line x1="339.5106" x2="339.5106" y1="483.9712" y2="528.1178"/>
    <line x1="334.6689" x2="334.6689" y1="530.9131" y2="485.5792"/>
    <line x1="335.6971" x2="322.3787" y1="486.1728" y2="478.4834"/>
    <line x1="323.722" x2="323.722" y1="479.259" y2="384.1788"/>
    <line x1="323.1056" x2="335.6971" y1="383.823" y2="391.0927"/>
    <line x1="333.3021" x2="333.3021" y1="389.7099" y2="484.7901"/>
    <line x1="330.9071" x2="330.9071" y1="483.4073" y2="388.3272"/>
    <line x1="328.512" x2="328.512" y1="386.9444" y2="482.0245"/>
    <line x1="329.8272" x2="329.8272" y1="482.7838" y2="533.7085"/>
    <line x1="324.9855" x2="324.9855" y1="536.5038" y2="479.9885"/>
    <line x1="326.117" x2="326.117" y1="480.6417" y2="385.5616"/>
    <line x1="321.3269" x2="321.3269" y1="391.9064" y2="422.2292"/>
    <line x1="322.3787" x2="298.7342" y1="422.8365" y2="436.4876"/>
    <line x1="296.2988" x2="296.2988" y1="435.0816" y2="506.3153"/>
    <polyline points="296.7829,506.5948 296.7829,545.4212 210.7342,595.1014 210.7342,499.4078 247.5906,478.1937 247.5906,406.9599"/>
    <line x1="245.1552" x2="245.1552" y1="405.5538" y2="476.7876"/>
    <line x1="242.7198" x2="242.7198" y1="475.3815" y2="404.1477"/>
    <line x1="240.2844" x2="240.2844" y1="402.7416" y2="473.9754"/>
    <line x1="237.849" x2="237.849" y1="472.5693" y2="401.3355"/>
    <line x1="235.4136" x2="235.4136" y1="399.9295" y2="471.1632"/>
    <line x1="232.9782" x2="232.9782" y1="469.7572" y2="398.5234"/>
    <line x1="230.5428" x2="230.5428" y1="397.1173" y2="468.3511"/>
    <line x1="254.8969" x2="254.8969" y1="482.4119" y2="411.1781"/>
    <line x1="242.4338" x2="217.084" y1="387.4398" y2="372.8041"/>
    <line x1="228.75" x2="228.75" y1="379.5395" y2="395.3402"/>
    <polyline points="228.1074,395.7112 298.7342,436.4876 298.7342,507.7214 228.1074,466.945 228.1074,395.7112 251.7519,382.0601 322.3787,422.8365 322.3787,494.0703 298.7342,507.7214"/>
    <line x1="300.7771" x2="300.7771" y1="506.542" y2="550.4806"/>
    <line x1="305.6187" x2="305.6187" y1="547.6852" y2="503.7466"/>
    <line x1="303.4631" x2="303.4631" y1="504.9912" y2="433.7574"/>
    <line x1="308.192" x2="308.192" y1="431.0272" y2="502.261"/>
    <line x1="310.4604" x2="310.4604" y1="500.9513" y2="544.8899"/>
    <line x1="320.1438" x2="320.1438" y1="539.2992" y2="495.3606"/>
    <line x1="312.9209" x2="312.9209" y1="499.5307" y2="428.297"/>
    <line x1="316.5369" x2="316.5369" y1="419.4637" y2="394.672"/>
    <line x1="314.1418" x2="314.1418" y1="396.0547" y2="418.0809"/>
    <line x1="306.9567" x2="306.9567" y1="413.9326" y2="400.2031"/>
    <line x1="315.5738" x2="315.5738" y1="350.3494" y2="275.2341"/>
    <line x1="317.9068" x2="282.9108" y1="276.5811" y2="256.3761"/>
    <line x1="283.1033" x2="283.1033" y1="256.265" y2="220.5808"/>
    <line x1="284.0108" x2="284.0108" y1="215.7277" y2="174.1223"/>
    <line x1="281.6292" x2="281.6292" y1="172.7473" y2="214.3527"/>
    <line x1="279.2477" x2="279.2477" y1="212.9777" y2="171.3723"/>
    <line x1="276.8661" x2="276.8661" y1="169.9973" y2="211.6027"/>
    <line x1="274.4846" x2="274.4846" y1="210.2277" y2="168.6223"/>
    <line x1="272.103" x2="272.103" y1="167.2473" y2="208.8527"/>
    <line x1="269.7215" x2="269.7215" y1="207.4778" y2="165.8723"/>
    <line x1="267.3399" x2="267.3399" y1="164.4973" y2="206.1028"/>
    <line x1="264.9584" x2="264.9584" y1="204.7278" y2="163.1224"/>
    <polyline points="262.5768,161.7474 307.8263,187.8722 307.8263,241.9912"/>
    <line x1="305.4448" x2="305.4448" y1="243.3662" y2="186.4972"/>
    <line x1="307.8263" x2="343.8967" y1="187.8722" y2="167.0469"/>
    <line x1="339.3879" x2="339.3879" y1="169.6501" y2="223.7691"/>
    <polyline points="343.8967,225.6901 343.8967,167.0469 298.6472,140.9221 262.5768,161.7474 262.5768,203.3528"/>
    <line x1="291.1555" x2="291.1555" y1="178.2472" y2="251.6161"/>
    <line x1="293.537" x2="293.537" y1="250.2411" y2="179.6222"/>
    <line x1="295.9186" x2="295.9186" y1="180.9972" y2="248.8661"/>
    <line x1="298.3001" x2="298.3001" y1="247.4911" y2="182.3722"/>
    <line x1="300.6817" x2="300.6817" y1="183.7472" y2="246.1161"/>
    <line x1="303.0632" x2="303.0632" y1="244.7411" y2="185.1222"/>
    <line x1="312.3351" x2="312.3351" y1="185.269" y2="239.388"/>
    <line x1="316.8439" x2="316.8439" y1="236.7849" y2="182.6659"/>
    <line x1="321.3527" x2="321.3527" y1="180.0627" y2="234.1817"/>
    <line x1="325.8615" x2="325.8615" y1="231.5786" y2="177.4596"/>
    <line x1="330.3703" x2="330.3703" y1="174.8564" y2="228.9754"/>
    <line x1="334.8791" x2="334.8791" y1="226.3722" y2="172.2532"/>
    <line x1="354.9635" x2="354.9635" y1="179.9301" y2="131.0759"/>
    <polyline points="352.577,129.698 376.442,143.4765 376.442,192.3307 352.577,178.5523 352.577,129.698 375.2076,116.6322 399.0726,130.4107 399.0726,179.2649 376.442,192.3307"/>
    <line x1="374.0555" x2="374.0555" y1="190.9529" y2="142.0986"/>
    <line x1="376.442" x2="399.0726" y1="143.4765" y2="130.4107"/>
    <line x1="394.5465" x2="394.5465" y1="133.0239" y2="181.8781"/>
    <line x1="390.0204" x2="390.0204" y1="184.4913" y2="135.637"/>
    <line x1="385.4942" x2="385.4942" y1="138.2502" y2="187.1044"/>
    <line x1="380.9681" x2="380.9681" y1="189.7176" y2="140.8633"/>
    <line x1="371.669" x2="371.669" y1="140.7208" y2="189.575"/>
    <line x1="369.2825" x2="369.2825" y1="188.1972" y2="139.3429"/>
    <line x1="366.896" x2="366.896" y1="137.9651" y2="186.8194"/>
    <line x1="364.5095" x2="364.5095" y1="185.4415" y2="136.5873"/>
    <line x1="362.123" x2="362.123" y1="135.2094" y2="184.0637"/>
    <line x1="359.7365" x2="359.7365" y1="182.6858" y2="133.8316"/>
    <line x1="357.35" x2="357.35" y1="132.4537" y2="181.308"/>
    <polyline points="408.1778,207.2527 480.3712,248.9335 515.2552,228.7932 515.2169,205.1109 544.9489,187.9451 592.1335,215.1872 592.1335,325.2307 562.4015,342.3965 562.4015,232.3529 592.1335,215.1872"/>
    <line x1="587.8861" x2="587.8861" y1="217.6394" y2="327.6829"/>
    <line x1="583.6386" x2="583.6386" y1="330.1352" y2="220.0917"/>
    <line x1="579.3912" x2="579.3912" y1="222.5439" y2="332.5874"/>
    <line x1="575.1438" x2="575.1438" y1="335.0397" y2="224.9962"/>
    <line x1="570.8964" x2="570.8964" y1="227.4484" y2="337.4919"/>
    <line x1="566.6489" x2="566.6489" y1="339.9442" y2="229.9007"/>
    <line x1="562.4015" x2="515.2169" y1="232.3529" y2="205.1109"/>
    <line x1="517.5761" x2="517.5761" y1="206.473" y2="316.5165"/>
    <line x1="516.1642" x2="516.1642" y1="315.7013" y2="342.6738"/>
    <line x1="514.4306" x2="514.4306" y1="343.6746" y2="356.1504"/>
    <line x1="512.0161" x2="512.0161" y1="354.7563" y2="345.0687"/>
    <line x1="511.5287" x2="511.5287" y1="345.3501" y2="344.0874"/>
    <line x1="510.8947" x2="510.8947" y1="344.4534" y2="231.3108"/>
    <line x1="506.5342" x2="506.5342" y1="233.8283" y2="346.9709"/>
    <line x1="506.8932" x2="506.8932" y1="346.7637" y2="348.0264"/>
    <line x1="507.187" x2="507.187" y1="347.8568" y2="351.9683"/>
    <line x1="509.6015" x2="509.6015" y1="353.3623" y2="346.4627"/>
    <line x1="504.7724" x2="504.7724" y1="349.2508" y2="350.5742"/>
    <polyline points="503.6263,349.9125 526.2384,362.9676 526.2384,379.919"/>
    <line x1="521.397" x2="521.397" y1="377.1238" y2="365.7628"/>
    <line x1="523.0705" x2="558.9672" y1="361.1386" y2="340.4136"/>
    <line x1="560.0423" x2="560.0423" y1="341.0344" y2="230.9908"/>
    <line x1="557.683" x2="557.7872" y1="229.6287" y2="341.0949"/>
    <line x1="555.3238" x2="555.3238" y1="338.3101" y2="228.2666"/>
    <line x1="552.9646" x2="552.9698" y1="226.9045" y2="343.8762"/>
    <line x1="548.1524" x2="548.2461" y1="346.6575" y2="224.1803"/>
    <line x1="545.8869" x2="545.8869" y1="222.8182" y2="332.8617"/>
    <line x1="543.5277" x2="543.5277" y1="331.4996" y2="221.4561"/>
    <line x1="541.1684" x2="541.1684" y1="220.094" y2="330.1375"/>
    <polyline points="539.523,329.1875 502.2577,350.7027 502.1737,236.3458"/>
    <line x1="497.8132" x2="497.8132" y1="238.8634" y2="352.006"/>
    <line x1="501.1642" x2="502.2577" y1="350.0713" y2="350.7027"/>
    <line x1="493.4527" x2="493.4527" y1="354.5236" y2="241.3809"/>
    <line x1="489.0922" x2="489.0922" y1="243.8985" y2="357.0411"/>
    <line x1="488.3753" x2="488.3753" y1="357.455" y2="366.9835"/>
    <line x1="483.8386" x2="483.8386" y1="364.3643" y2="360.0742"/>
    <line x1="484.7317" x2="484.7317" y1="359.5586" y2="246.416"/>
    <polyline points="480.3712,248.9335 480.3712,362.0762 408.1778,320.3953 408.1778,207.2527 443.0618,187.1124 515.2552,228.7932 515.2552,341.9359 480.3712,362.0762"/>
    <line x1="479.302" x2="479.302" y1="361.7451" y2="361.4589"/>
    <line x1="477.9647" x2="477.9647" y1="360.6868" y2="247.5442"/>
    <line x1="475.5583" x2="475.5583" y1="246.1548" y2="359.2974"/>
    <line x1="474.7654" x2="474.7654" y1="359.1258" y2="358.8397"/>
    <line x1="473.1518" x2="473.1518" y1="357.9081" y2="244.7654"/>
    <line x1="470.7454" x2="470.7454" y1="243.3761" y2="356.5187"/>
    <line x1="470.2288" x2="470.2288" y1="356.5066" y2="356.2205"/>
    <line x1="468.339" x2="468.339" y1="355.1294" y2="241.9867"/>
    <line x1="465.9325" x2="465.9325" y1="240.5974" y2="353.74"/>
    <line x1="465.6922" x2="465.6922" y1="353.6012" y2="353.8874"/>
    <line x1="463.5261" x2="463.5261" y1="352.3506" y2="239.208"/>
    <line x1="461.1196" x2="461.1555" y1="237.8186" y2="351.2682"/>
    <line x1="458.7132" x2="458.7132" y1="349.5719" y2="236.4293"/>
    <line x1="456.3067" x2="456.3067" y1="235.0399" y2="348.1826"/>
    <line x1="456.6189" x2="456.6189" y1="348.3628" y2="348.649"/>
    <line x1="453.9003" x2="453.9003" y1="346.7932" y2="233.6506"/>
    <line x1="451.4938" x2="451.4938" y1="232.2612" y2="345.4038"/>
    <line x1="452.0823" x2="452.0823" y1="345.7436" y2="346.0297"/>
    <line x1="449.0874" x2="449.0874" y1="344.0145" y2="230.8718"/>
    <line x1="446.6809" x2="446.6809" y1="229.4825" y2="342.6251"/>
    <line x1="447.5457" x2="447.5457" y1="343.1244" y2="346.0663"/>
    <line x1="443.0091" x2="443.0091" y1="348.6855" y2="340.5051"/>
    <line x1="441.8681" x2="441.8681" y1="339.8464" y2="226.7037"/>
    <line x1="439.4616" x2="439.4616" y1="225.3144" y2="338.457"/>
    <line x1="438.4724" x2="438.4724" y1="337.8859" y2="351.3047"/>
    <line x1="433.9358" x2="433.9358" y1="353.9239" y2="335.2667"/>
    <line x1="434.6487" x2="434.6487" y1="335.6783" y2="222.5357"/>
    <line x1="432.2423" x2="432.2423" y1="221.1463" y2="334.2889"/>
    <line x1="431.4867" x2="431.4867" y1="333.8527" y2="355.3379"/>
    <line x1="429.0375" x2="429.0375" y1="356.7519" y2="332.4387"/>
    <line x1="429.8358" x2="429.8358" y1="332.8996" y2="219.7569"/>
    <line x1="427.4294" x2="427.4294" y1="218.3676" y2="331.5102"/>
    <line x1="426.5884" x2="426.5884" y1="331.0247" y2="358.166"/>
    <line x1="424.1393" x2="424.1393" y1="359.58" y2="329.6106"/>
    <line x1="425.0229" x2="425.0229" y1="330.1208" y2="216.9782"/>
    <line x1="422.6165" x2="422.6165" y1="215.5888" y2="328.7315"/>
    <line x1="421.6901" x2="421.6901" y1="328.1966" y2="360.994"/>
    <line x1="419.241" x2="419.241" y1="362.408" y2="326.7826"/>
    <line x1="420.2101" x2="420.2101" y1="327.3421" y2="214.1995"/>
    <line x1="417.8036" x2="417.8036" y1="212.8101" y2="325.9528"/>
    <line x1="416.7918" x2="416.7918" y1="325.3686" y2="363.822"/>
    <line x1="414.3427" x2="414.3427" y1="365.236" y2="323.9546"/>
    <line x1="415.3972" x2="415.3972" y1="324.5634" y2="211.4208"/>
    <line x1="412.9907" x2="412.9907" y1="210.0314" y2="323.174"/>
    <line x1="411.8935" x2="411.8935" y1="322.5406" y2="366.65"/>
    <line x1="409.4444" x2="409.4444" y1="368.0641" y2="321.1266"/>
    <line x1="410.5843" x2="410.5843" y1="321.7847" y2="208.642"/>
    <polyline points="408.1778,220.2285 383.4089,234.5289 383.4089,277.9035"/>
    <line x1="385.779" x2="385.779" y1="276.5351" y2="235.8973"/>
    <line x1="383.4089" x2="408.1778" y1="234.5289" y2="248.8292"/>
    <line x1="407.11" x2="407.11" y1="248.2127" y2="264.2197"/>
    <polyline points="408.1778,263.6031 375.1564,282.6681 375.1564,374.6948 386.558,381.2775"/>
    <line x1="387.4021" x2="387.4021" y1="380.7902" y2="289.7381"/>
    <line x1="389.8513" x2="389.8513" y1="291.1522" y2="379.3762"/>
    <line x1="392.3004" x2="392.3004" y1="377.9621" y2="292.5662"/>
    <line x1="394.7495" x2="394.7495" y1="293.9802" y2="376.5481"/>
    <line x1="397.1987" x2="397.1987" y1="375.1341" y2="295.3942"/>
    <line x1="399.6478" x2="399.6478" y1="296.8082" y2="373.7201"/>
    <line x1="402.097" x2="402.097" y1="372.3061" y2="298.2222"/>
    <line x1="404.5461" x2="404.5461" y1="299.6362" y2="370.8921"/>
    <line x1="406.9953" x2="406.9953" y1="369.4781" y2="301.0503"/>
    <line x1="408.1778" x2="375.1564" y1="301.733" y2="282.6681"/>
    <line x1="377.6055" x2="377.6055" y1="284.0821" y2="376.1088"/>
    <line x1="378.869" x2="378.869" y1="376.8382" y2="385.7168"/>
    <line x1="378.2639" x2="381.9601" y1="386.0661" y2="388.2001"/>
    <line x1="380.7024" x2="380.7024" y1="387.474" y2="388.9262"/>
    <line x1="384.277" x2="384.277" y1="393.9609" y2="490.6303"/>
    <polyline points="378.2639,487.1586 378.2639,497.496 458.7349,543.956"/>
    <polyline points="458.2823,543.6947 458.2823,562.3274 554.181,506.9603 554.181,426.8976 530.3166,413.1194"/>
    <line x1="532.3556" x2="532.3556" y1="414.2967" y2="406.1076"/>
    <line x1="530.3166" x2="551.977" y1="407.2848" y2="394.7792"/>
    <line x1="547.0717" x2="547.0717" y1="397.6113" y2="422.793"/>
    <line x1="542.1663" x2="542.1663" y1="419.9609" y2="400.4434"/>
    <line x1="537.261" x2="537.261" y1="403.2755" y2="417.1288"/>
    <line x1="544.5912" x2="544.5912" y1="432.4343" y2="512.497"/>
    <line x1="549.3861" x2="549.3861" y1="509.7286" y2="429.6659"/>
    <polyline points="551.977,425.6251 551.977,394.7792 509.2325,370.1006 501.5034,374.563"/>
    <line x1="511.7141" x2="526.2384" y1="371.3533" y2="362.9676"/>
    <line x1="524.0654" x2="524.0654" y1="360.5642" y2="338.112"/>
    <line x1="525.4351" x2="525.4351" y1="337.3212" y2="321.0539"/>
    <line x1="524.6538" x2="524.6538" y1="320.6028" y2="210.5593"/>
    <line x1="522.2946" x2="522.2946" y1="209.1972" y2="319.2407"/>
    <line x1="520.7996" x2="520.7996" y1="318.3776" y2="339.9975"/>
    <line x1="519.248" x2="519.248" y1="340.8933" y2="358.9317"/>
    <line x1="528.8828" x2="528.8828" y1="357.7828" y2="335.3307"/>
    <line x1="530.0706" x2="530.0706" y1="334.6449" y2="323.7302"/>
    <line x1="529.3723" x2="529.3723" y1="323.327" y2="213.2835"/>
    <line x1="531.7315" x2="531.7315" y1="214.6456" y2="324.6891"/>
    <line x1="534.0907" x2="534.0907" y1="326.0512" y2="216.0077"/>
    <line x1="536.45" x2="536.45" y1="217.3698" y2="327.4133"/>
    <line x1="534.7061" x2="534.7061" y1="326.4065" y2="331.9686"/>
    <line x1="533.7002" x2="533.7002" y1="332.5493" y2="355.0015"/>
    <line x1="538.5176" x2="538.5176" y1="352.2202" y2="329.768"/>
    <line x1="539.3416" x2="539.3416" y1="329.2922" y2="329.0828"/>
    <line x1="538.8092" x2="538.8092" y1="328.7754" y2="218.7319"/>
    <line x1="550.6053" x2="550.6053" y1="225.5424" y2="335.5859"/>
    <line x1="543.335" x2="543.335" y1="331.3884" y2="349.4389"/>
    <line x1="562.4015" x2="515.2552" y1="342.3965" y2="315.1765"/>
    <line x1="519.9354" x2="519.9354" y1="317.8786" y2="207.8351"/>
    <line x1="527.013" x2="527.013" y1="211.9214" y2="321.9649"/>
    <line x1="516.5555" x2="516.5555" y1="368.558" y2="374.3286"/>
    <line x1="520.7724" x2="520.6165" y1="396.7087" y2="526.3388"/>
    <line x1="515.8216" x2="515.8216" y1="529.1071" y2="510.997"/>
    <line x1="516.0003" x2="516.0003" y1="510.8938" y2="399.4639"/>
    <line x1="511.2281" x2="511.2281" y1="402.2191" y2="513.649"/>
    <line x1="511.0266" x2="511.0266" y1="513.7653" y2="531.8755"/>
    <line x1="530.2064" x2="530.2064" y1="520.802" y2="502.6919"/>
    <line x1="539.7962" x2="539.7962" y1="515.2653" y2="435.2026"/>
    <line x1="535.0013" x2="535.0013" y1="437.971" y2="518.0337"/>
    <line x1="557.2969" x2="557.2969" y1="551.9237" y2="556.8825"/>
    <line x1="564.7961" x2="564.7961" y1="571.5709" y2="654.1001"/>
    <line x1="566.0182" x2="566.0182" y1="653.3946" y2="696.9315"/>
    <line x1="570.891" x2="570.891" y1="694.1182" y2="650.5812"/>
    <line x1="569.2816" x2="569.2816" y1="651.5104" y2="568.9812"/>
    <line x1="573.7671" x2="555.8252" y1="566.3915" y2="576.7503"/>
    <line x1="553.4309" x2="553.4309" y1="575.3679" y2="657.8972"/>
    <line x1="551.3997" x2="551.3997" y1="656.7244" y2="705.3715"/>
    <line x1="546.5268" x2="546.5268" y1="708.1848" y2="653.9111"/>
    <line x1="546.2481" x2="546.2481" y1="653.7502" y2="571.2209"/>
    <line x1="543.8538" x2="543.8538" y1="569.8386" y2="652.3678"/>
    <polyline points="542.6656,651.6818 542.6656,730.5481 457.9657,779.4497 457.9657,686.8692"/>
    <line x1="453.1371" x2="453.1371" y1="689.6569" y2="776.6619"/>
    <line x1="452.4046" x2="452.4046" y1="776.239" y2="799.326"/>
    <line x1="466.9874" x2="466.9874" y1="796.5373" y2="774.241"/>
    <line x1="467.3768" x2="467.3768" y1="774.0161" y2="681.4357"/>
    <line x1="465.2783" x2="465.2783" y1="682.6472" y2="632.4328"/>
    <line x1="468.9801" x2="468.9801" y1="632.7416" y2="630.2956"/>
    <line x1="471.3919" x2="471.3919" y1="628.9031" y2="634.134"/>
    <line x1="470.0154" x2="470.0154" y1="633.3393" y2="679.9122"/>
    <line x1="472.0823" x2="472.0823" y1="678.7189" y2="771.2994"/>
    <line x1="471.8406" x2="471.8406" y1="771.4389" y2="793.7353"/>
    <line x1="472.7122" x2="472.7122" y1="793.2321" y2="858.6357"/>
    <line x1="477.4826" x2="477.4826" y1="855.8815" y2="790.4779"/>
    <line x1="476.6939" x2="476.7879" y1="790.9332" y2="676.0022"/>
    <line x1="474.7526" x2="474.7526" y1="677.1772" y2="636.0743"/>
    <line x1="473.8037" x2="473.8037" y1="635.5265" y2="627.5107"/>
    <line x1="471.7247" x2="471.7247" y1="628.711" y2="581.8603"/>
    <line x1="476.5587" x2="476.5587" y1="579.0693" y2="625.9201"/>
    <line x1="476.2155" x2="476.2155" y1="626.1182" y2="636.9189"/>
    <line x1="478.6273" x2="478.6273" y1="638.3114" y2="624.7258"/>
    <line x1="481.0391" x2="481.0391" y1="623.3333" y2="639.7038"/>
    <line x1="479.4898" x2="479.4898" y1="638.8093" y2="674.4422"/>
    <line x1="481.4934" x2="481.5471" y1="673.2854" y2="788.1312"/>
    <line x1="482.253" x2="482.253" y1="787.7237" y2="853.1273"/>
    <line x1="487.0234" x2="487.0234" y1="850.3731" y2="784.9695"/>
    <line x1="486.4004" x2="486.4004" y1="785.3292" y2="763.0329"/>
    <line x1="486.199" x2="486.199" y1="763.1491" y2="670.5686"/>
    <line x1="484.227" x2="484.227" y1="671.7072" y2="641.5443"/>
    <line x1="483.4509" x2="483.4509" y1="641.0963" y2="621.9409"/>
    <line x1="481.3928" x2="481.3928" y1="623.1291" y2="576.2784"/>
    <line x1="495.895" x2="495.895" y1="567.9056" y2="614.7563"/>
    <line x1="497.738" x2="497.738" y1="613.6922" y2="638.4174"/>
    <line x1="498.4385" x2="498.4385" y1="638.013" y2="663.5022"/>
    <line x1="500.3156" x2="500.3156" y1="662.4184" y2="754.9989"/>
    <line x1="500.4808" x2="500.4808" y1="754.9035" y2="762.1421"/>
    <line x1="502.9151" x2="502.9151" y1="763.5475" y2="753.4981"/>
    <polyline points="503.4512,755.4982 572.3496,795.2766 572.3496,891.0046 611.3152,868.5078"/>
    <line x1="610.0412" x2="610.0412" y1="867.7722" y2="779.1723"/>
    <line x1="612.4009" x2="612.3828" y1="780.5347" y2="887.0585"/>
    <line x1="607.5337" x2="607.5337" y1="889.8581" y2="870.691"/>
    <line x1="609.7255" x2="609.7255" y1="869.4256" y2="867.5899"/>
    <line x1="607.6814" x2="607.6814" y1="866.4098" y2="777.8099"/>
    <line x1="605.3217" x2="605.3217" y1="776.4475" y2="865.0474"/>
    <line x1="605.0535" x2="605.0535" y1="864.8926" y2="872.123"/>
    <line x1="602.6846" x2="602.6846" y1="873.4906" y2="892.6577"/>
    <line x1="597.8355" x2="597.8355" y1="895.4574" y2="876.2903"/>
    <line x1="595.7095" x2="595.7095" y1="877.5177" y2="859.4978"/>
    <line x1="595.8827" x2="595.8827" y1="859.5978" y2="770.998"/>
    <line x1="598.2425" x2="598.2425" y1="772.3603" y2="860.9602"/>
    <line x1="600.3815" x2="600.3815" y1="862.1952" y2="874.8203"/>
    <polyline points="592.9864,879.0899 592.9864,898.257 627.9144,878.0913"/>
    <line x1="626.9301" x2="626.9301" y1="877.523" y2="878.6596"/>
    <line x1="626.5594" x2="626.5594" y1="877.309" y2="788.7091"/>
    <line x1="628.9191" x2="677.3996" y1="790.0715" y2="762.0813"/>
    <line x1="672.5515" x2="672.5515" y1="764.8803" y2="853.4801"/>
    <line x1="667.7035" x2="667.7035" y1="856.2792" y2="767.6793"/>
    <line x1="662.8554" x2="662.8554" y1="770.4783" y2="859.0782"/>
    <line x1="658.0074" x2="658.0074" y1="861.8772" y2="773.2774"/>
    <line x1="653.1593" x2="653.1593" y1="776.0764" y2="864.6762"/>
    <line x1="648.3113" x2="648.3113" y1="867.4753" y2="778.8754"/>
    <line x1="643.4632" x2="643.4632" y1="781.6744" y2="870.2743"/>
    <line x1="638.6152" x2="638.6152" y1="873.0733" y2="784.4735"/>
    <line x1="633.7671" x2="633.7671" y1="787.2725" y2="875.8723"/>
    <polyline points="628.9191,878.6714 677.3996,850.6811 677.3996,762.0813 637.284,738.9205 588.8035,766.9108 588.8035,855.5106 628.9191,878.6714 628.9191,790.0715 588.8035,766.9108"/>
    <line x1="591.1633" x2="591.0375" y1="768.2732" y2="880.2151"/>
    <line x1="590.5521" x2="590.5521" y1="880.4954" y2="896.8515"/>
    <line x1="588.1177" x2="588.1177" y1="895.446" y2="881.9008"/>
    <line x1="586.3656" x2="586.3656" y1="882.9125" y2="787.1845"/>
    <line x1="588.8035" x2="572.3496" y1="785.777" y2="795.2766"/>
    <line x1="569.9738" x2="569.9738" y1="793.905" y2="889.6329"/>
    <line x1="567.598" x2="567.598" y1="888.2612" y2="792.5333"/>
    <line x1="565.2222" x2="565.2222" y1="791.1616" y2="886.8896"/>
    <line x1="562.8464" x2="562.8464" y1="885.5179" y2="789.79"/>
    <line x1="560.4706" x2="560.4706" y1="788.4183" y2="884.1462"/>
    <line x1="558.0948" x2="558.0948" y1="882.7745" y2="787.0466"/>
    <line x1="555.7189" x2="555.7189" y1="785.6749" y2="881.4029"/>
    <line x1="553.3431" x2="553.3431" y1="880.0312" y2="784.3033"/>
    <line x1="550.9673" x2="550.9673" y1="782.9316" y2="878.6595"/>
    <line x1="548.5915" x2="548.5915" y1="877.2879" y2="781.5599"/>
    <line x1="546.2157" x2="546.2157" y1="780.1883" y2="875.9162"/>
    <line x1="543.8399" x2="543.8399" y1="874.5445" y2="778.8166"/>
    <line x1="541.4641" x2="541.4641" y1="777.4449" y2="873.1728"/>
    <line x1="539.0883" x2="539.0883" y1="871.8012" y2="776.0732"/>
    <line x1="536.7125" x2="536.7125" y1="774.7016" y2="870.4295"/>
    <line x1="534.3367" x2="534.3367" y1="869.0578" y2="773.3299"/>
    <line x1="531.9609" x2="531.9609" y1="771.9582" y2="867.6862"/>
    <line x1="529.5851" x2="529.5851" y1="866.3145" y2="770.5866"/>
    <line x1="527.2093" x2="527.2093" y1="769.2149" y2="864.9428"/>
    <line x1="524.8335" x2="524.8335" y1="863.5711" y2="767.8432"/>
    <line x1="522.4577" x2="522.4577" y1="766.4715" y2="862.1995"/>
    <line x1="520.0819" x2="520.0819" y1="860.8278" y2="765.0999"/>
    <line x1="517.7061" x2="517.7061" y1="763.7282" y2="859.4561"/>
    <line x1="515.3303" x2="515.3303" y1="858.0845" y2="762.3565"/>
    <line x1="512.9544" x2="512.9544" y1="760.9848" y2="856.7128"/>
    <line x1="510.5786" x2="510.5786" y1="855.3411" y2="759.6132"/>
    <line x1="508.2028" x2="508.2028" y1="758.2415" y2="853.9694"/>
    <line x1="505.827" x2="505.827" y1="852.5978" y2="839.5168"/>
    <polyline points="503.4512,840.8885 503.4512,851.2261 572.3496,891.0046"/>
    <line x1="576.3872" x2="592.9864" y1="888.6734" y2="898.257"/>
    <line x1="585.6834" x2="585.6834" y1="894.0405" y2="883.3063"/>
    <line x1="583.249" x2="583.249" y1="884.7118" y2="892.6351"/>
    <line x1="580.8146" x2="580.8146" y1="891.2296" y2="886.1173"/>
    <line x1="581.6936" x2="581.6936" y1="885.6098" y2="789.8819"/>
    <line x1="577.0216" x2="577.0216" y1="792.5793" y2="888.3072"/>
    <line x1="578.3803" x2="578.3803" y1="887.5228" y2="889.8241"/>
    <line x1="593.523" x2="593.523" y1="858.2354" y2="769.6356"/>
    <line x1="600.6022" x2="600.6022" y1="773.7227" y2="862.3226"/>
    <line x1="602.962" x2="602.962" y1="863.685" y2="775.0851"/>
    <line x1="614.7607" x2="614.7607" y1="781.8971" y2="870.497"/>
    <line x1="619.4801" x2="619.4801" y1="873.2218" y2="784.6219"/>
    <line x1="621.8399" x2="621.8399" y1="785.9843" y2="874.5842"/>
    <line x1="622.081" x2="622.081" y1="874.7234" y2="881.4592"/>
    <line x1="617.2319" x2="617.1204" y1="884.2588" y2="783.2595"/>
    <line x1="624.1996" x2="624.1996" y1="787.3467" y2="875.9466"/>
    <line x1="503.4512" x2="498.5363" y1="846.5638" y2="843.7261"/>
    <line x1="500.4808" x2="500.4808" y1="844.8488" y2="842.6035"/>
    <line x1="501.3346" x2="501.3346" y1="842.1105" y2="768.1434"/>
    <polyline points="503.4512,763.857 503.4512,755.4982 564.1871,720.4323 616.7469,750.7777"/>
    <polyline points="611.9792,713.9556 635.887,700.1524 635.887,631.832 606.7563,615.0134 582.8485,628.8166 582.8485,697.137 611.9792,713.9556 611.9792,645.6352 582.8485,628.8166"/>
    <line x1="585.276" x2="585.276" y1="630.2181" y2="698.5386"/>
    <line x1="587.7036" x2="587.7036" y1="699.9401" y2="631.6197"/>
    <line x1="590.1312" x2="590.1312" y1="633.0212" y2="701.3417"/>
    <line x1="592.5587" x2="592.5587" y1="702.7432" y2="634.4228"/>
    <line x1="594.9863" x2="594.9863" y1="635.8243" y2="704.1448"/>
    <line x1="597.4138" x2="597.4138" y1="705.5463" y2="637.2259"/>
    <line x1="599.8414" x2="599.8414" y1="638.6274" y2="706.9479"/>
    <line x1="602.269" x2="602.269" y1="708.3494" y2="640.029"/>
    <line x1="604.6965" x2="604.6965" y1="641.4305" y2="709.751"/>
    <line x1="607.1241" x2="607.1241" y1="711.1525" y2="642.8321"/>
    <line x1="609.5516" x2="609.5516" y1="644.2336" y2="712.5541"/>
    <line x1="616.7608" x2="616.7608" y1="711.195" y2="642.8746"/>
    <line x1="611.9792" x2="635.887" y1="645.6352" y2="631.832"/>
    <line x1="631.1055" x2="631.1055" y1="634.5926" y2="702.9131"/>
    <line x1="626.3239" x2="626.3239" y1="705.6737" y2="637.3533"/>
    <line x1="621.5423" x2="621.5423" y1="640.1139" y2="708.4344"/>
    <polyline points="563.2324,720.9835 551.3865,714.1442 542.6656,719.1793"/>
    <polyline points="542.6656,710.4141 575.7638,691.3048 575.7638,583.7614 573.7671,582.6086"/>
    <line x1="575.7638" x2="573.7671" y1="583.7614" y2="584.9143"/>
    <line x1="560.3106" x2="560.3106" y1="574.1606" y2="656.6898"/>
    <line x1="561.1453" x2="561.1453" y1="656.2079" y2="699.7448"/>
    <line x1="556.2725" x2="556.2725" y1="702.5582" y2="659.0212"/>
    <polyline points="555.8252,659.2795 573.7671,648.9207 573.7671,566.3915 547.4301,551.1858 529.4881,561.5446 529.4881,644.0738 555.8252,659.2795 555.8252,576.7503 529.4881,561.5446"/>
    <line x1="531.8824" x2="531.8824" y1="562.9269" y2="645.4561"/>
    <line x1="533.2545" x2="533.2545" y1="646.2483" y2="735.9816"/>
    <line x1="528.549" x2="528.549" y1="738.6984" y2="631.9665"/>
    <line x1="529.4881" x2="507.9128" y1="631.4243" y2="643.8808"/>
    <line x1="509.7267" x2="509.7267" y1="642.8335" y2="749.5654"/>
    <polyline points="509.8923,751.7794 507.7839,750.6871 507.7839,752.9967"/>
    <line x1="505.3495" x2="505.3495" y1="752.0926" y2="754.4022"/>
    <line x1="505.0212" x2="505.0212" y1="752.2821" y2="659.7016"/>
    <line x1="503.1757" x2="503.1757" y1="660.7671" y2="635.278"/>
    <line x1="502.4697" x2="502.4697" y1="635.6856" y2="610.9604"/>
    <line x1="500.729" x2="500.729" y1="611.9653" y2="565.1146"/>
    <line x1="505.5631" x2="452.3884" y1="562.3237" y2="593.0241"/>
    <polyline points="466.8906,584.6512 466.8618,631.5186 488.2745,643.8812"/>
    <line x1="488.9641" x2="488.9641" y1="643.483" y2="668.9722"/>
    <line x1="490.9045" x2="490.9045" y1="667.8519" y2="760.4324"/>
    <polyline points="491.2536,760.2308 491.2536,782.5272 457.2809,802.1413 457.2809,779.0543"/>
    <polyline points="457.9657,779.4497 426.5801,761.3292 426.5801,704.9896"/>
    <line x1="427.3809" x2="427.3809" y1="704.5273" y2="625.4367"/>
    <line x1="426.747" x2="426.747" y1="625.0707" y2="578.22"/>
    <line x1="429.078" x2="429.078" y1="579.5658" y2="626.4166"/>
    <line x1="431.4091" x2="431.4091" y1="627.7624" y2="580.9116"/>
    <line x1="424.416" x2="424.416" y1="576.8742" y2="623.7249"/>
    <line x1="417.4229" x2="417.4229" y1="619.6874" y2="572.8367"/>
    <polyline points="401.0332,582.7783 332.681,622.2415 332.681,696.077 287.2882,669.8695 287.2882,596.034 355.6405,556.5708 401.0332,582.7783 401.0332,656.6139 332.681,696.077"/>
    <line x1="330.2919" x2="330.2919" y1="694.6977" y2="620.8622"/>
    <line x1="332.681" x2="287.2882" y1="622.2415" y2="596.034"/>
    <line x1="289.6773" x2="289.6773" y1="597.4133" y2="671.2489"/>
    <line x1="292.0664" x2="292.0664" y1="672.6282" y2="598.7927"/>
    <line x1="294.4555" x2="294.4555" y1="600.172" y2="674.0076"/>
    <line x1="296.8446" x2="296.8446" y1="675.3869" y2="601.5514"/>
    <line x1="299.2337" x2="299.2337" y1="602.9307" y2="676.7662"/>
    <line x1="301.6228" x2="301.6228" y1="678.1456" y2="604.31"/>
    <line x1="304.0119" x2="304.0119" y1="605.6894" y2="679.5249"/>
    <line x1="306.401" x2="306.401" y1="680.9043" y2="607.0687"/>
    <line x1="308.7901" x2="308.7901" y1="608.4481" y2="682.2836"/>
    <line x1="311.1792" x2="311.1792" y1="683.663" y2="609.8274"/>
    <line x1="313.5683" x2="313.5683" y1="611.2068" y2="685.0423"/>
    <line x1="315.9574" x2="315.9574" y1="686.4216" y2="612.5861"/>
    <line x1="318.3464" x2="318.3464" y1="613.9654" y2="687.801"/>
    <line x1="320.7355" x2="320.7355" y1="689.1803" y2="615.3448"/>
    <line x1="323.1246" x2="323.1246" y1="616.7241" y2="690.5597"/>
    <line x1="325.5137" x2="325.5137" y1="691.939" y2="618.1035"/>
    <line x1="327.9028" x2="327.9028" y1="619.4828" y2="693.3184"/>
    <line x1="337.5633" x2="337.5633" y1="693.2582" y2="619.4227"/>
    <line x1="342.4456" x2="342.4456" y1="616.6039" y2="690.4394"/>
    <line x1="347.3279" x2="347.3279" y1="687.6206" y2="613.7851"/>
    <line x1="352.2102" x2="352.2102" y1="610.9663" y2="684.8018"/>
    <line x1="357.0925" x2="357.0925" y1="681.983" y2="608.1475"/>
    <line x1="361.9748" x2="361.9748" y1="605.3287" y2="679.1642"/>
    <polyline points="361.1382,679.6473 361.1382,713.3667 387.3872,728.5216 387.4607,692.4195"/>
    <line x1="388.4638" x2="388.4638" y1="692.9986" y2="663.8708"/>
    <line x1="386.3863" x2="386.3863" y1="665.0703" y2="591.2347"/>
    <line x1="381.504" x2="381.504" y1="594.0535" y2="667.8891"/>
    <line x1="381.1031" x2="381.1031" y1="668.1205" y2="688.7489"/>
    <line x1="380.2819" x2="380.2819" y1="688.2747" y2="724.4193"/>
    <line x1="377.8889" x2="377.8889" y1="723.0377" y2="686.8932"/>
    <line x1="378.6495" x2="378.6495" y1="687.3323" y2="669.5371"/>
    <line x1="376.6217" x2="376.6217" y1="670.7079" y2="596.8723"/>
    <line x1="371.7394" x2="371.7394" y1="599.6911" y2="673.5267"/>
    <line x1="371.2889" x2="371.2889" y1="673.7868" y2="683.0826"/>
    <line x1="370.71" x2="370.71" y1="682.7484" y2="718.893"/>
    <line x1="368.3171" x2="368.3171" y1="717.5114" y2="681.3669"/>
    <line x1="368.8353" x2="368.8353" y1="681.6661" y2="675.2034"/>
    <line x1="366.8571" x2="366.8571" y1="676.3455" y2="602.5099"/>
    <line x1="391.2686" x2="391.2686" y1="588.4159" y2="662.2515"/>
    <line x1="390.9173" x2="390.9173" y1="662.4543" y2="694.4151"/>
    <line x1="389.8537" x2="389.8537" y1="693.801" y2="727.0976"/>
    <line x1="392.2467" x2="392.2467" y1="725.716" y2="695.1826"/>
    <line x1="393.3709" x2="393.3709" y1="695.8317" y2="661.0377"/>
    <line x1="395.8245" x2="395.8245" y1="659.6212" y2="697.2483"/>
    <line x1="394.6396" x2="394.6396" y1="696.5642" y2="724.3344"/>
    <line x1="397.0326" x2="397.0326" y1="722.9529" y2="697.9458"/>
    <line x1="398.278" x2="398.278" y1="698.6648" y2="658.2046"/>
    <line x1="396.1509" x2="396.1509" y1="659.4327" y2="585.5971"/>
    <line x1="401.0332" x2="415.0918" y1="606.1188" y2="614.2355"/>
    <line x1="412.9994" x2="412.9994" y1="613.0274" y2="707.1642"/>
    <line x1="411.2446" x2="411.2446" y1="706.1511" y2="714.7476"/>
    <line x1="406.6044" x2="406.6044" y1="717.4266" y2="703.4721"/>
    <line x1="405.6387" x2="405.6387" y1="702.9145" y2="608.7778"/>
    <line x1="403.1851" x2="403.1851" y1="607.3612" y2="701.4979"/>
    <line x1="404.2114" x2="404.2114" y1="702.0905" y2="718.8081"/>
    <line x1="401.8185" x2="401.8185" y1="720.1897" y2="700.7089"/>
    <line x1="400.7316" x2="400.7316" y1="700.0814" y2="656.788"/>
    <line x1="386.0102" x2="386.0102" y1="665.2874" y2="691.582"/>
    <line x1="385.0678" x2="385.0678" y1="691.0379" y2="727.1825"/>
    <line x1="382.6748" x2="382.6748" y1="725.8009" y2="689.6563"/>
    <line x1="383.5567" x2="383.5567" y1="690.1654" y2="666.704"/>
    <line x1="376.196" x2="376.196" y1="670.9537" y2="685.9157"/>
    <line x1="375.496" x2="375.496" y1="685.5116" y2="721.6562"/>
    <line x1="373.103" x2="373.103" y1="720.2746" y2="684.13"/>
    <line x1="373.7424" x2="373.7424" y1="684.4992" y2="672.3702"/>
    <line x1="366.3817" x2="366.3817" y1="676.6199" y2="680.2495"/>
    <line x1="365.9241" x2="365.9241" y1="679.9853" y2="716.1299"/>
    <line x1="363.5312" x2="363.5312" y1="714.7483" y2="678.6037"/>
    <line x1="363.2384" x2="417.9065" y1="678.4347" y2="709.9973"/>
    <line x1="415.8848" x2="415.8848" y1="708.8301" y2="712.0685"/>
    <line x1="415.4529" x2="415.4529" y1="708.5808" y2="618.5501"/>
    <line x1="410.5458" x2="410.5458" y1="611.6109" y2="705.7476"/>
    <line x1="408.0923" x2="408.0923" y1="704.3311" y2="610.1943"/>
    <line x1="424.5076" x2="424.5957" y1="542.8276" y2="412.8158"/>
    <line x1="422.1572" x2="422.0951" y1="411.4079" y2="541.4347"/>
    <line x1="419.6826" x2="419.7186" y1="540.0419" y2="410.0"/>
    <line x1="417.2801" x2="417.2701" y1="408.5921" y2="538.649"/>
    <line x1="414.8576" x2="414.8416" y1="537.2562" y2="477.7162"/>
    <line x1="412.4031" x2="412.4452" y1="479.124" y2="535.8633"/>
    <line x1="410.0327" x2="409.9646" y1="534.4705" y2="480.5319"/>
    <line x1="410.8539" x2="410.8539" y1="480.0185" y2="383.3491"/>
    <line x1="406.3582" x2="406.3582" y1="385.9447" y2="482.6141"/>
    <line x1="407.5261" x2="407.6202" y1="481.9398" y2="533.0776"/>
    <line x1="405.2077" x2="405.0876" y1="531.6848" y2="483.3477"/>
    <line x1="402.649" x2="402.7952" y1="484.7555" y2="530.2919"/>
    <line x1="400.3827" x2="400.3827" y1="528.8991" y2="510.2664"/>
    <line x1="400.2105" x2="400.2105" y1="510.1669" y2="486.1634"/>
    <line x1="401.8625" x2="401.8625" y1="485.2097" y2="388.5403"/>
    <polyline points="415.3496,380.7535 388.3753,396.3271 378.1295,390.4117 378.2639,386.0661 449.8456,344.7384 530.3166,391.1983 530.3166,502.6282 458.7349,543.956 458.7349,432.5261 415.3496,407.4775"/>
    <line x1="383.6658" x2="383.6658" y1="382.9473" y2="379.6077"/>
    <line x1="382.5038" x2="382.5038" y1="378.9368" y2="286.9101"/>
    <line x1="380.0547" x2="380.0547" y1="285.4961" y2="377.5228"/>
    <line x1="384.953" x2="384.953" y1="380.3508" y2="288.3241"/>
    <line x1="388.1491" x2="388.1491" y1="275.1667" y2="237.2656"/>
    <line x1="390.5192" x2="390.5192" y1="238.634" y2="273.7984"/>
    <line x1="392.8893" x2="392.8893" y1="272.43" y2="240.0024"/>
    <line x1="395.2594" x2="395.2594" y1="241.3708" y2="271.0616"/>
    <line x1="397.6295" x2="397.6295" y1="269.6932" y2="242.7392"/>
    <line x1="399.9996" x2="399.9996" y1="244.1076" y2="268.3248"/>
    <line x1="402.3697" x2="402.3697" y1="266.9564" y2="245.4759"/>
    <line x1="404.7398" x2="404.7398" y1="246.8443" y2="265.5881"/>
    <line x1="437.0552" x2="437.0552" y1="223.925" y2="337.0677"/>
    <line x1="444.2745" x2="444.2745" y1="341.2357" y2="228.0931"/>
    <line x1="461.7919" x2="461.7919" y1="197.9262" y2="151.9571"/>
    <line x1="459.3846" x2="459.3846" y1="150.5672" y2="196.5363"/>
    <line x1="456.9773" x2="456.9773" y1="195.1465" y2="149.1774"/>
    <line x1="454.57" x2="454.57" y1="147.7875" y2="193.7566"/>
    <line x1="452.1627" x2="452.1627" y1="192.3668" y2="146.3977"/>
    <line x1="449.7554" x2="449.7554" y1="145.0078" y2="190.9769"/>
    <line x1="447.3481" x2="447.3481" y1="189.5871" y2="143.618"/>
    <line x1="444.9408" x2="444.9408" y1="142.2281" y2="188.1972"/>
    <line x1="442.5336" x2="442.5336" y1="187.4174" y2="140.8383"/>
    <line x1="440.1263" x2="440.1263" y1="139.4485" y2="188.8072"/>
    <line x1="437.719" x2="437.719" y1="190.1971" y2="138.0586"/>
    <line x1="435.3117" x2="435.3117" y1="136.6688" y2="191.5869"/>
    <line x1="432.9044" x2="432.9044" y1="192.9768" y2="135.2789"/>
    <line x1="430.4971" x2="430.4971" y1="133.8891" y2="194.3666"/>
    <polyline points="428.0898,195.7565 428.0898,132.4992 442.2465,124.3258 493.8753,154.1337"/>
    <line x1="496.7704" x2="496.7704" y1="163.5575" y2="194.5854"/>
    <line x1="497.8055" x2="497.8055" y1="193.9878" y2="218.7186"/>
    <line x1="493.0866" x2="493.0866" y1="215.9942" y2="196.7123"/>
    <line x1="492.2996" x2="492.2996" y1="197.1666" y2="166.1387"/>
    <line x1="487.8289" x2="519.1241" y1="168.7199" y2="150.6516"/>
    <line x1="514.6534" x2="514.6534" y1="153.2328" y2="184.2607"/>
    <line x1="510.1826" x2="510.1826" y1="186.8419" y2="155.814"/>
    <line x1="505.7119" x2="505.7119" y1="158.3952" y2="189.4231"/>
    <line x1="507.2433" x2="507.2433" y1="188.5389" y2="224.1676"/>
    <line x1="502.5244" x2="502.5244" y1="221.4431" y2="191.2633"/>
    <line x1="501.2411" x2="501.2411" y1="192.0042" y2="160.9764"/>
    <line x1="485.4267" x2="485.4267" y1="167.333" y2="198.3609"/>
    <line x1="485.8647" x2="485.8647" y1="198.6138" y2="211.8246"/>
    <line x1="483.4574" x2="483.4574" y1="210.4348" y2="197.2239"/>
    <line x1="483.0245" x2="483.0245" y1="196.974" y2="165.9461"/>
    <line x1="480.6223" x2="480.6223" y1="164.5592" y2="195.5871"/>
    <line x1="481.0502" x2="481.0502" y1="195.8341" y2="209.0449"/>
    <line x1="478.6429" x2="478.6429" y1="207.6551" y2="194.4442"/>
    <polyline points="487.8289,199.7478 519.1241,181.6795 519.1241,150.6516 509.5153,145.104 478.2201,163.1723 478.2201,194.2002 487.8289,199.7478 487.8289,168.7199 478.2201,163.1723"/>
    <line x1="478.6429" x2="478.6429" y1="162.9282" y2="161.686"/>
    <line x1="479.7186" x2="428.0898" y1="162.3071" y2="132.4992"/>
    <line x1="464.1991" x2="464.1991" y1="153.3469" y2="199.316"/>
    <line x1="466.6064" x2="466.6064" y1="200.7059" y2="154.7368"/>
    <line x1="469.0137" x2="469.0137" y1="156.1266" y2="202.0957"/>
    <line x1="471.421" x2="471.421" y1="203.4856" y2="157.5165"/>
    <line x1="473.8283" x2="473.8283" y1="158.9063" y2="204.8754"/>
    <line x1="476.2356" x2="476.2356" y1="206.2653" y2="160.2962"/>
    <line x1="490.6793" x2="490.6793" y1="198.1021" y2="214.6043"/>
    <line x1="488.272" x2="488.272" y1="213.2145" y2="199.492"/>
    <polyline points="507.2433,194.166 531.1453,180.3662 544.6107,188.1404"/>
    <line x1="554.181" x2="530.3166" y1="426.8976" y2="440.6757"/>
    <line x1="477.8233" x2="477.8233" y1="421.5053" y2="532.9352"/>
    <line x1="477.4621" x2="477.4621" y1="533.1438" y2="551.254"/>
    <line x1="472.6671" x2="472.6671" y1="554.0223" y2="535.9122"/>
    <line x1="473.0512" x2="473.0512" y1="535.6904" y2="424.2605"/>
    <line x1="468.2791" x2="468.2791" y1="427.0157" y2="538.4456"/>
    <line x1="467.8722" x2="467.8722" y1="538.6806" y2="556.7907"/>
    <line x1="463.0772" x2="463.0772" y1="559.5591" y2="541.4489"/>
    <line x1="463.507" x2="463.507" y1="541.2008" y2="429.7709"/>
    <polyline points="378.1295,461.6745 335.6971,486.1728 335.6971,391.0927 375.1564,368.3109"/>
    <line x1="374.0721" x2="374.0721" y1="368.9369" y2="464.0171"/>
    <line x1="369.2752" x2="369.2752" y1="466.7865" y2="371.7064"/>
    <line x1="364.4784" x2="364.4784" y1="374.4759" y2="469.556"/>
    <line x1="359.6815" x2="359.6815" y1="472.3255" y2="377.2453"/>
    <line x1="308.5746" x2="308.5746" y1="346.3084" y2="271.1931"/>
    <line x1="306.2415" x2="306.2415" y1="269.8461" y2="344.9614"/>
    <line x1="303.9084" x2="303.9084" y1="343.6144" y2="268.4991"/>
    <line x1="301.5754" x2="301.5754" y1="267.1521" y2="342.2674"/>
    <polyline points="301.9055,342.458 291.4375,348.5017 291.4375,336.4143"/>
    <line x1="292.2431" x2="292.2431" y1="336.8794" y2="261.7641"/>
    <line x1="294.5762" x2="294.5762" y1="263.1111" y2="338.2264"/>
    <line x1="296.1712" x2="296.1712" y1="339.1473" y2="345.7687"/>
    <line x1="300.9048" x2="300.9048" y1="343.0357" y2="341.8803"/>
    <line x1="299.2423" x2="299.2423" y1="340.9204" y2="265.8051"/>
    <line x1="296.9092" x2="296.9092" y1="264.4581" y2="339.5734"/>
    <line x1="289.91" x2="289.91" y1="335.5325" y2="260.4171"/>
    <line x1="287.577" x2="287.577" y1="259.0701" y2="334.1855"/>
    <line x1="286.9336" x2="286.9336" y1="333.814" y2="345.9014"/>
    <line x1="284.6816" x2="284.6816" y1="344.6012" y2="332.5138"/>
    <line x1="285.2439" x2="285.2439" y1="332.8385" y2="257.7231"/>
    <line x1="271.1698" x2="271.1698" y1="320.2495" y2="336.8002"/>
    <line x1="289.1855" x2="289.1855" y1="335.1142" y2="347.2015"/>
    <line x1="240.416" x2="240.416" y1="386.2749" y2="388.6048"/>
    <line x1="238.0828" x2="238.0828" y1="389.9519" y2="384.9278"/>
    <line x1="235.7496" x2="235.7496" y1="383.5807" y2="391.299"/>
    <line x1="233.4164" x2="233.4164" y1="392.6461" y2="382.2336"/>
    <line x1="231.0832" x2="231.0832" y1="380.8866" y2="393.9931"/>
    <line x1="367.4714" x2="378.1295" y1="477.4227" y2="483.5762"/>
    <line x1="377.088" x2="377.088" y1="482.9748" y2="540.2677"/>
    <line x1="374.6838" x2="374.6838" y1="541.6557" y2="481.5868"/>
    <line x1="372.2797" x2="372.2797" y1="480.1987" y2="543.0438"/>
    <line x1="369.8755" x2="369.8755" y1="544.4318" y2="478.8107"/>
    <polyline points="378.1295,471.2692 367.4714,477.4227 367.4714,545.8198"/>
    <line x1="379.4922" x2="379.4922" y1="538.8796" y2="516.8379"/>
    <line x1="385.9078" x2="385.9078" y1="520.542" y2="501.9093"/>
    <line x1="386.7046" x2="386.7046" y1="521.002" y2="534.7155"/>
    <polyline points="300.1332,588.6179 296.4913,586.5152 271.7469,600.8014 271.7469,615.7562 287.2882,624.729"/>
    <line x1="286.1897" x2="286.1897" y1="624.0948" y2="609.14"/>
    <line x1="287.2882" x2="271.7469" y1="609.7742" y2="600.8014"/>
    <line x1="274.1541" x2="274.1541" y1="602.1912" y2="617.146"/>
    <line x1="276.5612" x2="276.5612" y1="618.5357" y2="603.5809"/>
    <line x1="278.9683" x2="278.9683" y1="604.9707" y2="619.9255"/>
    <line x1="281.3755" x2="281.3755" y1="621.3152" y2="606.3604"/>
    <line x1="283.7826" x2="283.7826" y1="607.7502" y2="622.705"/>
    <line x1="363.9282" x2="363.9282" y1="678.0365" y2="678.8329"/>
    <line x1="399.4255" x2="399.4255" y1="699.3273" y2="721.5713"/>
    <line x1="391.4507" x2="391.4507" y1="734.6216" y2="764.1342"/>
    <line x1="393.8888" x2="393.8888" y1="765.5419" y2="736.0293"/>
    <line x1="396.327" x2="396.327" y1="737.437" y2="766.9496"/>
    <line x1="398.7651" x2="398.7651" y1="768.3572" y2="738.8446"/>
    <line x1="401.2033" x2="401.2033" y1="740.2523" y2="769.7649"/>
    <polyline points="398.9612,768.4704 369.3341,785.5756 369.3341,859.5427 382.8582,867.3509"/>
    <line x1="381.454" x2="381.454" y1="866.5401" y2="792.5731"/>
    <line x1="383.8779" x2="383.8779" y1="793.9725" y2="837.4371"/>
    <polyline points="382.8582,838.0258 432.5202,866.6981 432.5202,904.0478 382.8582,875.3754 382.8582,838.0258 409.2575,822.7841 458.9195,851.4565 458.9195,888.8061 432.5202,904.0478"/>
    <line x1="430.1554" x2="430.1554" y1="902.6824" y2="865.3328"/>
    <line x1="427.7905" x2="427.7905" y1="863.9674" y2="901.3171"/>
    <line x1="425.4257" x2="425.4257" y1="899.9517" y2="862.6021"/>
    <line x1="423.0608" x2="423.0608" y1="861.2367" y2="898.5864"/>
    <line x1="420.6959" x2="420.6959" y1="897.221" y2="859.8714"/>
    <line x1="418.3311" x2="418.3311" y1="858.506" y2="895.8557"/>
    <line x1="415.9662" x2="415.9662" y1="894.4903" y2="857.1407"/>
    <line x1="413.6014" x2="413.6014" y1="855.7753" y2="893.125"/>
    <line x1="411.2365" x2="411.2365" y1="891.7596" y2="854.41"/>
    <line x1="408.8717" x2="408.8717" y1="853.0446" y2="890.3943"/>
    <line x1="406.5068" x2="406.5068" y1="889.0289" y2="851.6793"/>
    <line x1="404.1419" x2="404.1419" y1="850.3139" y2="887.6636"/>
    <line x1="401.7771" x2="401.7771" y1="886.2982" y2="848.9486"/>
    <line x1="399.4122" x2="399.4122" y1="847.5832" y2="884.9329"/>
    <line x1="397.0474" x2="397.0474" y1="883.5675" y2="846.2179"/>
    <line x1="394.6825" x2="394.6825" y1="844.8525" y2="882.2022"/>
    <line x1="392.3177" x2="392.3177" y1="880.8368" y2="843.4872"/>
    <line x1="389.9528" x2="389.9528" y1="842.1218" y2="879.4715"/>
    <line x1="387.5879" x2="387.5879" y1="878.1061" y2="840.7565"/>
    <line x1="385.2231" x2="385.2231" y1="839.3911" y2="876.7408"/>
    <line x1="379.03" x2="379.03" y1="865.1406" y2="791.1736"/>
    <line x1="371.758" x2="371.758" y1="786.9751" y2="860.9422"/>
    <line x1="386.3019" x2="386.3019" y1="836.0376" y2="795.372"/>
    <line x1="388.7259" x2="388.7259" y1="796.7715" y2="834.6381"/>
    <line x1="391.1499" x2="391.1499" y1="833.2386" y2="798.171"/>
    <line x1="393.5738" x2="393.5738" y1="799.5705" y2="831.8391"/>
    <line x1="395.9978" x2="395.9978" y1="830.4396" y2="800.97"/>
    <line x1="398.4218" x2="398.4218" y1="802.3694" y2="829.0401"/>
    <line x1="400.8458" x2="400.8458" y1="827.6407" y2="803.7689"/>
    <line x1="403.2698" x2="403.2698" y1="805.1684" y2="826.2412"/>
    <line x1="405.6937" x2="405.6937" y1="824.8417" y2="806.5679"/>
    <line x1="408.1177" x2="408.1177" y1="807.9674" y2="823.4422"/>
    <line x1="410.5417" x2="410.5417" y1="823.5255" y2="809.3669"/>
    <line x1="412.9657" x2="412.9657" y1="810.7664" y2="824.925"/>
    <line x1="415.3897" x2="415.3897" y1="826.3245" y2="812.1658"/>
    <line x1="417.8136" x2="417.8136" y1="813.5653" y2="827.724"/>
    <line x1="420.2376" x2="369.3341" y1="814.9648" y2="785.5756"/>
    <line x1="386.5743" x2="386.5743" y1="761.3189" y2="731.8063"/>
    <line x1="384.1362" x2="426.5801" y1="730.3986" y2="754.9036"/>
    <line x1="425.5848" x2="425.5848" y1="754.329" y2="783.8416"/>
    <line x1="423.1467" x2="423.1467" y1="782.4339" y2="752.9213"/>
    <line x1="420.7085" x2="420.7085" y1="751.5137" y2="781.0263"/>
    <line x1="418.2704" x2="418.2704" y1="779.6186" y2="750.106"/>
    <line x1="415.8322" x2="415.8322" y1="748.6983" y2="778.2109"/>
    <line x1="413.3941" x2="413.3941" y1="776.8033" y2="747.2906"/>
    <line x1="410.9559" x2="410.9559" y1="745.883" y2="775.3956"/>
    <line x1="408.5177" x2="408.5177" y1="773.9879" y2="744.4753"/>
    <line x1="406.0796" x2="406.0796" y1="743.0676" y2="772.5802"/>
    <line x1="403.6414" x2="403.6414" y1="771.1726" y2="741.66"/>
    <line x1="389.0125" x2="389.0125" y1="733.2139" y2="762.7266"/>
    <line x1="428.023" x2="428.023" y1="762.1623" y2="785.2493"/>
    <line x1="428.9944" x2="428.9944" y1="762.7231" y2="703.5957"/>
    <line x1="485.8627" x2="485.8627" y1="642.4887" y2="620.5484"/>
    <line x1="511.9331" x2="511.9331" y1="630.2219" y2="603.0109"/>
    <line x1="516.6649" x2="516.6649" y1="600.279" y2="627.49"/>
    <line x1="521.3966" x2="521.3966" y1="624.7581" y2="597.5472"/>
    <line x1="539.0652" x2="539.0652" y1="567.0739" y2="649.6032"/>
    <line x1="537.9601" x2="537.9601" y1="648.9651" y2="733.2649"/>
    <line x1="523.8434" x2="523.8434" y1="741.4151" y2="634.6833"/>
    <line x1="519.1379" x2="519.1379" y1="637.4" y2="744.1319"/>
    <line x1="514.4323" x2="514.4323" y1="746.8486" y2="640.1168"/>
    <line x1="534.2767" x2="534.2767" y1="646.8385" y2="564.3093"/>
    <line x1="536.671" x2="536.671" y1="565.6916" y2="648.2208"/>
    <line x1="541.4595" x2="541.4595" y1="650.9855" y2="568.4563"/>
    <line x1="548.6423" x2="548.6423" y1="572.6033" y2="655.1325"/>
    <line x1="551.0366" x2="551.0366" y1="656.5148" y2="573.9856"/>
    <line x1="505.827" x2="505.827" y1="756.8698" y2="765.2287"/>
    <line x1="506.105" x2="491.2536" y1="765.3892" y2="773.9637"/>
    <line x1="491.7938" x2="491.7938" y1="773.6518" y2="847.6189"/>
    <line x1="496.5642" x2="496.5642" y1="844.8647" y2="770.8976"/>
    <line x1="498.0464" x2="498.0464" y1="760.7366" y2="756.309"/>
    <line x1="467.9417" x2="467.9417" y1="795.9863" y2="861.3899"/>
    <line x1="458.9195" x2="432.5202" y1="851.4565" y2="866.6981"/>
    <line x1="436.9201" x2="436.9201" y1="864.1579" y2="901.5075"/>
    <line x1="441.32" x2="441.32" y1="898.9672" y2="861.6176"/>
    <line x1="445.7199" x2="445.7199" y1="859.0773" y2="896.427"/>
    <line x1="450.1198" x2="450.1198" y1="893.8867" y2="856.537"/>
    <line x1="502.9151" x2="502.9151" y1="846.2543" y2="841.198"/>
    <line x1="391.7594" x2="391.6036" y1="941.7702" y2="995.6465"/>
    <line x1="389.3151" x2="389.3151" y1="992.3826" y2="940.359"/>
    <line x1="386.8707" x2="386.8707" y1="938.9477" y2="990.9714"/>
    <line x1="387.1692" x2="387.1692" y1="991.1437" y2="998.2068"/>
    <line x1="382.7347" x2="382.7347" y1="1000.767" y2="988.5835"/>
    <line x1="381.9819" x2="381.9819" y1="988.1488" y2="936.1252"/>
    <line x1="384.4263" x2="384.4263" y1="937.5364" y2="989.5601"/>
    <line x1="379.5375" x2="379.5375" y1="986.7376" y2="934.7139"/>
    <line x1="377.0932" x2="377.0932" y1="933.3026" y2="985.3263"/>
    <line x1="378.3003" x2="378.3003" y1="986.0232" y2="1003.3272"/>
    <line x1="369.2606" x2="369.2606" y1="1003.2286" y2="980.8042"/>
    <line x1="369.76" x2="369.76" y1="981.0925" y2="929.0689"/>
    <line x1="367.3156" x2="367.3156" y1="927.6576" y2="979.6813"/>
    <line x1="366.958" x2="366.958" y1="979.4748" y2="1001.8992"/>
    <line x1="364.6554" x2="364.6554" y1="1000.5698" y2="978.1453"/>
    <line x1="364.8713" x2="364.8713" y1="978.27" y2="926.2463"/>
    <line x1="362.4269" x2="362.3527" y1="924.8351" y2="999.2403"/>
    <line x1="360.0501" x2="359.9825" y1="997.9109" y2="923.4238"/>
    <line x1="357.5381" x2="357.5381" y1="922.0125" y2="974.0362"/>
    <line x1="357.7475" x2="357.7475" y1="974.1571" y2="996.5815"/>
    <line x1="355.4449" x2="355.4449" y1="995.2521" y2="972.8276"/>
    <line x1="355.0937" x2="355.0937" y1="972.6249" y2="920.6013"/>
    <line x1="352.6494" x2="352.6494" y1="919.19" y2="971.2137"/>
    <line x1="353.1422" x2="353.1422" y1="971.4982" y2="993.9227"/>
    <line x1="334.3173" x2="334.3173" y1="966.9259" y2="960.6296"/>
    <line x1="317.3439" x2="317.3439" y1="957.1263" y2="935.8321"/>
    <line x1="318.4281" x2="280.9724" y1="936.4581" y2="914.833"/>
    <line x1="283.3972" x2="283.3972" y1="916.233" y2="937.5271"/>
    <line x1="285.8219" x2="285.8219" y1="938.9271" y2="917.6329"/>
    <line x1="288.2467" x2="288.2467" y1="919.0329" y2="940.327"/>
    <line x1="290.6715" x2="290.6715" y1="941.727" y2="920.4328"/>
    <line x1="293.0962" x2="293.0962" y1="921.8327" y2="943.1269"/>
    <line x1="295.521" x2="295.521" y1="944.5268" y2="923.2327"/>
    <line x1="297.9458" x2="297.9458" y1="924.6326" y2="945.9268"/>
    <line x1="300.3705" x2="300.3705" y1="947.3267" y2="926.0326"/>
    <line x1="302.7953" x2="302.7953" y1="927.4325" y2="948.7267"/>
    <line x1="305.2201" x2="305.2201" y1="950.1266" y2="928.8324"/>
    <line x1="307.6448" x2="307.6448" y1="930.2324" y2="951.5265"/>
    <line x1="310.0696" x2="310.0696" y1="952.9265" y2="931.6323"/>
    <line x1="312.4944" x2="312.4944" y1="933.0323" y2="954.3264"/>
    <line x1="314.9191" x2="314.9191" y1="955.7264" y2="934.4322"/>
    <polyline points="282.3777,829.4306 314.6265,810.8117 314.6265,720.7317 249.5259,683.1458 217.277,701.7647 217.277,791.8447 282.3777,829.4306 282.3777,739.3506 217.277,701.7647"/>
    <line x1="219.6882" x2="219.6882" y1="703.1568" y2="793.2368"/>
    <line x1="222.0993" x2="222.0993" y1="794.6289" y2="704.5488"/>
    <line x1="224.5105" x2="224.5105" y1="705.9409" y2="796.0209"/>
    <line x1="226.9216" x2="226.9216" y1="797.413" y2="707.333"/>
    <line x1="229.3327" x2="229.3327" y1="708.725" y2="798.8051"/>
    <line x1="231.7439" x2="231.7439" y1="800.1972" y2="710.1171"/>
    <line x1="234.155" x2="234.155" y1="711.5092" y2="801.5892"/>
    <line x1="236.5661" x2="236.5661" y1="802.9813" y2="712.9013"/>
    <line x1="238.9773" x2="238.9773" y1="714.2933" y2="804.3734"/>
    <line x1="241.3884" x2="241.3884" y1="805.7654" y2="715.6854"/>
    <line x1="243.7995" x2="243.7995" y1="717.0775" y2="807.1575"/>
    <line x1="246.2107" x2="246.2107" y1="808.5496" y2="718.4695"/>
    <line x1="248.6218" x2="248.6218" y1="719.8616" y2="809.9416"/>
    <line x1="251.0329" x2="251.0329" y1="811.3337" y2="721.2537"/>
    <line x1="253.4441" x2="253.4441" y1="722.6457" y2="812.7258"/>
    <line x1="255.8552" x2="255.8552" y1="814.1178" y2="724.0378"/>
    <line x1="258.2663" x2="258.2663" y1="725.4299" y2="815.5099"/>
    <line x1="260.6775" x2="260.6775" y1="816.902" y2="726.8219"/>
    <line x1="263.0886" x2="263.0886" y1="728.214" y2="818.2941"/>
    <line x1="265.4997" x2="265.4997" y1="819.6861" y2="729.6061"/>
    <line x1="267.9109" x2="267.9109" y1="730.9982" y2="821.0782"/>
    <line x1="270.322" x2="270.322" y1="822.4703" y2="732.3902"/>
    <line x1="272.7332" x2="272.7332" y1="733.7823" y2="823.8623"/>
    <line x1="275.1443" x2="275.1443" y1="825.2544" y2="735.1744"/>
    <line x1="277.5554" x2="277.5554" y1="736.5664" y2="826.6465"/>
    <line x1="279.9666" x2="279.9666" y1="828.0385" y2="737.9585"/>
    <line x1="282.3777" x2="314.6265" y1="739.3506" y2="720.7317"/>
    <line x1="310.0196" x2="310.0196" y1="723.3915" y2="813.4716"/>
    <line x1="305.4126" x2="305.4126" y1="816.1314" y2="726.0514"/>
    <line x1="300.8056" x2="300.8056" y1="728.7112" y2="818.7913"/>
    <line x1="296.1986" x2="296.1986" y1="821.4511" y2="731.3711"/>
    <line x1="291.5916" x2="291.5916" y1="734.0309" y2="824.1109"/>
    <line x1="286.9847" x2="286.9847" y1="826.7708" y2="736.6907"/>
  </g>
</svg>
