<?xml version="1.0" encoding="utf-8" ?>
<svg xmlns="http://www.w3.org/2000/svg" xmlns:cc="http://creativecommons.org/ns#" xmlns:dc="http://purl.org/dc/elements/1.1/" xmlns:ev="http://www.w3.org/2001/xml-events" xmlns:inkscape="http://www.inkscape.org/namespaces/inkscape" xmlns:rdf="http://www.w3.org/1999/02/22-rdf-syntax-ns#" xmlns:sodipodi="http://sodipodi.sourceforge.net/DTD/sodipodi-0.dtd" xmlns:xlink="http://www.w3.org/1999/xlink" baseProfile="tiny" height="29.7cm" version="1.2" viewBox="0 0 793.7007874015749 1122.5196850393702" width="21.0cm">
  <metadata>
    <rdf:RDF>
      <cc:Work>
        <dc:format>image/svg+xml</dc:format>
        <dc:source/>
        <dc:date>2021-12-10T23:12:33.539748</dc:date>
      </cc:Work>
    </rdf:RDF>
  </metadata>
  <defs/>
  <g fill="none" id="layer1" inkscape:groupmode="layer" inkscape:label="1" stroke="#00f" style="display:inline">
    <line x1="519.5907" x2="519.5907" y1="478.6561" y2="516.1703"/>
    <line x1="514.8984" x2="514.8984" y1="513.4612" y2="480.0778"/>
    <polyline points="515.4637,479.7515 515.4637,467.4177 515.5039,476.2966 550.0429,496.2377 596.1325,469.6279 596.1325,459.0337"/>
    <line x1="597.1662" x2="597.1662" y1="458.4369" y2="441.9008"/>
    <line x1="597.444" x2="597.444" y1="441.7404" y2="384.1342"/>
    <line x1="602.3076" x2="602.3076" y1="381.3262" y2="438.9324"/>
    <line x1="602.0166" x2="602.0166" y1="439.1004" y2="455.6365"/>
    <line x1="606.867" x2="606.867" y1="452.8361" y2="436.3"/>
    <line x1="607.1712" x2="607.1712" y1="436.1244" y2="378.5181"/>
    <line x1="612.0349" x2="612.0349" y1="375.7101" y2="433.3164"/>
    <line x1="612.7616" x2="612.7616" y1="432.8968" y2="438.9485"/>
    <line x1="611.7175" x2="611.7175" y1="438.3457" y2="450.0357"/>
    <line x1="616.5679" x2="616.5679" y1="447.2353" y2="441.1461"/>
    <line x1="617.5721" x2="607.5207" y1="441.7258" y2="435.9226"/>
    <line x1="607.9512" x2="607.9512" y1="435.6741" y2="436.1712"/>
    <line x1="610.3564" x2="610.3564" y1="437.5598" y2="434.2854"/>
    <line x1="615.1668" x2="615.1668" y1="431.5081" y2="440.3371"/>
    <line x1="621.4184" x2="621.4184" y1="439.5051" y2="444.4349"/>
    <line x1="624.9288" x2="624.9288" y1="442.4082" y2="462.9475"/>
    <line x1="627.2883" x2="627.2883" y1="464.3098" y2="441.0459"/>
    <line x1="626.2688" x2="626.2688" y1="441.6345" y2="436.7047"/>
    <line x1="627.0777" x2="627.0777" y1="436.2377" y2="367.7039"/>
    <line x1="626.6258" x2="648.8701" y1="367.9648" y2="355.1221"/>
    <line x1="646.0889" x2="646.0889" y1="356.7278" y2="425.2616"/>
    <line x1="645.6706" x2="645.6706" y1="425.5031" y2="430.4329"/>
    <line x1="646.1646" x2="646.1646" y1="430.1477" y2="475.208"/>
    <line x1="643.8051" x2="643.8051" y1="473.8458" y2="431.5099"/>
    <line x1="641.4455" x2="641.4455" y1="432.8722" y2="472.4835"/>
    <line x1="639.086" x2="639.086" y1="471.1212" y2="434.2345"/>
    <line x1="640.8201" x2="640.8201" y1="433.2333" y2="428.3035"/>
    <line x1="641.3361" x2="641.3361" y1="428.0056" y2="359.4718"/>
    <line x1="636.5833" x2="636.5833" y1="362.2159" y2="430.7497"/>
    <line x1="635.9697" x2="635.9697" y1="431.1039" y2="436.0337"/>
    <line x1="636.7265" x2="636.7265" y1="435.5968" y2="469.7589"/>
    <line x1="634.3669" x2="634.3669" y1="468.3966" y2="436.959"/>
    <line x1="632.0074" x2="632.0074" y1="438.3213" y2="467.0344"/>
    <line x1="629.6479" x2="629.6479" y1="465.6721" y2="439.6836"/>
    <line x1="631.1192" x2="631.1192" y1="438.8341" y2="433.9043"/>
    <line x1="631.8305" x2="631.8305" y1="433.4937" y2="364.9599"/>
    <polyline points="626.6258,367.286 534.2166,420.6385 534.2166,478.2447 626.6258,424.8923 626.6258,367.286 603.9033,354.1672"/>
    <line x1="601.4871" x2="601.4871" y1="355.5622" y2="291.8672"/>
    <line x1="596.7167" x2="596.7167" y1="294.6214" y2="358.3164"/>
    <line x1="591.9464" x2="591.9464" y1="361.0705" y2="297.3755"/>
    <line x1="587.1761" x2="587.1761" y1="300.1297" y2="363.8247"/>
    <line x1="582.4058" x2="582.4058" y1="366.5788" y2="302.8838"/>
    <line x1="577.6354" x2="577.6354" y1="305.638" y2="369.333"/>
    <line x1="572.8651" x2="572.8651" y1="372.0871" y2="308.3921"/>
    <line x1="568.0948" x2="568.0948" y1="311.1463" y2="374.8413"/>
    <line x1="563.3245" x2="563.3245" y1="377.5954" y2="313.9004"/>
    <line x1="558.5541" x2="558.5541" y1="316.6546" y2="380.3496"/>
    <line x1="553.7838" x2="553.7838" y1="383.1037" y2="319.4087"/>
    <line x1="549.0135" x2="549.0135" y1="322.1629" y2="385.8579"/>
    <line x1="544.2431" x2="544.2431" y1="388.612" y2="324.917"/>
    <line x1="539.4728" x2="539.4728" y1="327.6712" y2="391.3662"/>
    <line x1="534.7025" x2="534.7025" y1="394.1203" y2="330.4253"/>
    <line x1="529.9322" x2="529.9322" y1="333.1795" y2="396.8745"/>
    <line x1="525.1618" x2="525.1618" y1="399.6286" y2="335.9336"/>
    <line x1="520.3915" x2="520.3915" y1="338.6878" y2="402.3828"/>
    <polyline points="515.6212,405.1369 606.2574,352.8081 606.2574,289.1131 584.8764,276.7687 494.2402,329.0976 494.2402,392.7926 515.6212,405.1369 515.6212,341.4419 606.2574,289.1131"/>
    <polyline points="606.2574,299.1824 628.6182,286.2724 648.8701,297.9648"/>
    <line x1="655.5078" x2="655.5945" y1="284.0395" y2="419.7735"/>
    <line x1="655.3714" x2="655.3714" y1="419.9023" y2="424.8321"/>
    <line x1="655.6028" x2="655.6028" y1="424.6985" y2="480.6572"/>
    <line x1="657.9623" x2="657.9623" y1="482.0194" y2="423.3363"/>
    <line x1="662.6814" x2="662.6814" y1="420.6117" y2="484.744"/>
    <line x1="660.3218" x2="660.3473" y1="483.3817" y2="380.1448"/>
    <line x1="662.6271" x2="662.6271" y1="378.8286" y2="282.4841"/>
    <line x1="667.5337" x2="667.5337" y1="279.6512" y2="375.9957"/>
    <line x1="669.8529" x2="669.9228" y1="374.6567" y2="416.4309"/>
    <line x1="667.4004" x2="667.4004" y1="418.1303" y2="487.4685"/>
    <line x1="669.76" x2="669.76" y1="488.8308" y2="419.4926"/>
    <line x1="672.1195" x2="667.1898" y1="420.8549" y2="418.0087"/>
    <line x1="674.7732" x2="674.7732" y1="413.6305" y2="408.7007"/>
    <line x1="674.6057" x2="674.6057" y1="408.7974" y2="371.9127"/>
    <line x1="672.4404" x2="672.4404" y1="373.1629" y2="276.8184"/>
    <line x1="677.347" x2="677.347" y1="273.9855" y2="370.33"/>
    <line x1="679.3585" x2="679.3585" y1="369.1687" y2="406.0534"/>
    <polyline points="679.6236,405.9003 679.6236,410.8301 582.6148,466.8381 582.6148,450.302"/>
    <line x1="582.853" x2="582.853" y1="450.1645" y2="392.5583"/>
    <line x1="577.9894" x2="577.9894" y1="395.3663" y2="452.9725"/>
    <line x1="577.7729" x2="577.6966" y1="453.0975" y2="480.2718"/>
    <line x1="582.3056" x2="582.3056" y1="477.6108" y2="466.6596"/>
    <polyline points="582.6148,466.8381 568.2621,458.5886 568.2621,400.9823"/>
    <line x1="573.1258" x2="573.1258" y1="398.1743" y2="455.7806"/>
    <line x1="572.9311" x2="573.0877" y1="455.893" y2="482.9328"/>
    <line x1="568.4787" x2="568.4787" y1="485.5938" y2="458.6766"/>
    <line x1="570.5101" x2="570.5101" y1="459.8495" y2="457.2907"/>
    <line x1="575.352" x2="575.352" y1="454.4952" y2="462.6449"/>
    <line x1="580.1939" x2="580.1939" y1="465.4404" y2="451.6998"/>
    <line x1="587.4653" x2="587.4653" y1="447.5016" y2="464.0377"/>
    <line x1="586.9145" x2="586.9145" y1="464.3557" y2="474.9498"/>
    <line x1="591.5235" x2="591.5235" y1="472.2888" y2="461.6947"/>
    <line x1="592.3157" x2="592.3157" y1="461.2373" y2="444.7012"/>
    <line x1="592.5803" x2="592.5803" y1="444.5485" y2="386.9422"/>
    <line x1="587.7167" x2="587.7167" y1="389.7502" y2="447.3565"/>
    <line x1="563.8698" x2="563.8698" y1="461.1245" y2="488.2547"/>
    <line x1="559.2608" x2="559.2608" y1="490.9157" y2="463.7855"/>
    <line x1="558.5348" x2="558.5348" y1="464.2046" y2="406.5984"/>
    <line x1="563.3985" x2="563.3985" y1="403.7904" y2="461.3966"/>
    <line x1="554.6518" x2="554.6518" y1="466.4465" y2="493.5767"/>
    <line x1="550.0429" x2="550.0429" y1="496.2377" y2="469.1075"/>
    <line x1="548.8076" x2="548.8076" y1="469.8207" y2="412.2144"/>
    <line x1="553.6712" x2="553.6712" y1="409.4064" y2="467.0127"/>
    <line x1="547.7403" x2="547.7403" y1="470.4369" y2="494.9083"/>
    <line x1="545.4377" x2="545.4377" y1="493.5789" y2="471.7663"/>
    <line x1="543.9439" x2="543.9439" y1="472.6287" y2="415.0225"/>
    <line x1="539.0803" x2="539.0803" y1="417.8305" y2="475.4367"/>
    <line x1="538.5299" x2="538.5299" y1="475.7545" y2="489.5907"/>
    <line x1="540.8325" x2="540.8325" y1="490.9201" y2="474.4251"/>
    <line x1="543.1351" x2="543.1351" y1="473.0957" y2="492.2495"/>
    <line x1="536.2273" x2="536.2273" y1="488.2612" y2="477.0839"/>
    <polyline points="534.2166,478.2447 446.5389,427.624 446.5389,370.0177 494.2402,342.4774"/>
    <polyline points="492.9986,343.1942 492.9986,308.9107 509.576,299.3398"/>
    <line x1="510.1506" x2="510.1506" y1="299.6716" y2="203.5952"/>
    <line x1="507.7332" x2="507.7332" y1="202.1995" y2="298.2759"/>
    <line x1="505.3158" x2="505.3158" y1="296.8802" y2="200.8038"/>
    <line x1="502.8983" x2="502.8983" y1="199.4081" y2="295.4845"/>
    <line x1="500.4809" x2="500.4809" y1="294.0888" y2="198.0124"/>
    <line x1="498.0634" x2="498.0634" y1="196.6167" y2="292.6931"/>
    <line x1="495.646" x2="495.646" y1="291.2973" y2="195.2209"/>
    <line x1="493.8321" x2="493.8321" y1="193.4768" y2="146.1392"/>
    <line x1="496.2791" x2="496.2791" y1="147.552" y2="192.064"/>
    <line x1="498.7261" x2="498.7261" y1="190.6512" y2="148.9648"/>
    <line x1="501.1732" x2="501.1732" y1="150.3776" y2="189.2384"/>
    <line x1="503.6202" x2="503.6202" y1="187.8256" y2="151.7904"/>
    <line x1="506.0672" x2="506.0672" y1="153.2031" y2="186.4129"/>
    <line x1="508.5142" x2="508.5142" y1="185.0001" y2="154.6159"/>
    <line x1="510.9612" x2="510.9612" y1="156.0287" y2="183.5873"/>
    <line x1="513.4083" x2="513.4083" y1="182.1745" y2="157.4415"/>
    <line x1="515.8553" x2="515.8553" y1="158.8543" y2="180.7617"/>
    <line x1="518.3023" x2="518.3023" y1="179.3489" y2="160.2671"/>
    <line x1="520.7493" x2="520.7493" y1="161.6799" y2="177.9361"/>
    <line x1="523.1963" x2="523.1963" y1="176.5233" y2="163.0927"/>
    <line x1="525.6434" x2="525.6434" y1="164.5055" y2="175.1105"/>
    <line x1="528.0904" x2="528.0904" y1="173.6978" y2="165.9182"/>
    <line x1="530.5374" x2="530.5374" y1="167.331" y2="172.285"/>
    <line x1="532.9844" x2="532.9844" y1="170.8722" y2="168.7438"/>
    <line x1="534.8277" x2="481.597" y1="169.808" y2="139.0753"/>
    <line x1="484.044" x2="484.044" y1="140.488" y2="211.0681"/>
    <line x1="486.491" x2="486.491" y1="212.4809" y2="141.9008"/>
    <line x1="488.938" x2="488.938" y1="143.3136" y2="213.8937"/>
    <line x1="491.3851" x2="491.3851" y1="215.3065" y2="144.7264"/>
    <line x1="481.597" x2="443.7716" y1="181.6009" y2="203.4394"/>
    <line x1="461.3041" x2="461.3041" y1="235.1186" y2="320.6563"/>
    <line x1="465.9713" x2="465.9713" y1="317.9617" y2="232.424"/>
    <line x1="470.6384" x2="470.6384" y1="229.7294" y2="315.2671"/>
    <line x1="475.3056" x2="475.3056" y1="312.5725" y2="227.0348"/>
    <line x1="479.9728" x2="386.6293" y1="224.3402" y2="278.2321"/>
    <line x1="384.2466" x2="384.2466" y1="276.8564" y2="319.3553"/>
    <polyline points="386.6293,320.731 386.6293,278.2321 336.5919,249.343"/>
    <polyline points="338.2794,248.3687 338.2794,220.3035 301.3499,198.9822 292.4201,204.1378 292.4201,239.3581"/>
    <line x1="294.7282" x2="294.7282" y1="240.6907" y2="205.4704"/>
    <polyline points="292.4201,204.1378 329.3496,225.4591 329.3496,297.195"/>
    <line x1="327.0415" x2="327.0415" y1="298.5275" y2="224.1265"/>
    <line x1="329.3496" x2="338.2794" y1="225.4591" y2="220.3035"/>
    <line x1="338.2794" x2="358.7948" y1="224.6795" y2="236.5241"/>
    <line x1="348.5056" x2="348.5056" y1="256.2213" y2="298.7203"/>
    <line x1="346.1229" x2="346.1229" y1="297.3446" y2="254.8456"/>
    <line x1="343.7401" x2="343.7401" y1="253.47" y2="295.9689"/>
    <line x1="341.3574" x2="341.3574" y1="294.5933" y2="252.0943"/>
    <line x1="338.9747" x2="338.9747" y1="250.7186" y2="293.2176"/>
    <polyline points="336.5919,293.0136 336.5919,249.343 429.9354,195.4511 479.9728,224.3402 479.9728,309.8779 386.6293,363.7698 386.6293,360.717"/>
    <line x1="386.1413" x2="386.1413" y1="360.9987" y2="325.9683"/>
    <polyline points="390.9209,323.2088 309.6678,370.1203 309.6678,405.1507 256.3535,374.3697 256.3535,339.3393 337.6067,292.4278 390.9209,323.2088 390.9209,358.2392 309.6678,405.1507"/>
    <line x1="307.2444" x2="307.2444" y1="403.7516" y2="368.7212"/>
    <line x1="304.8211" x2="304.8211" y1="367.322" y2="402.3525"/>
    <line x1="302.3977" x2="302.3977" y1="400.9533" y2="365.9229"/>
    <line x1="299.9743" x2="299.9743" y1="364.5238" y2="399.5542"/>
    <line x1="297.5509" x2="297.5509" y1="398.155" y2="363.1246"/>
    <line x1="295.1275" x2="295.1275" y1="361.7255" y2="396.7559"/>
    <line x1="292.7042" x2="292.7042" y1="395.3568" y2="360.3263"/>
    <line x1="290.2808" x2="290.2808" y1="358.9272" y2="393.9576"/>
    <line x1="287.8574" x2="287.8574" y1="392.5585" y2="357.5281"/>
    <line x1="285.434" x2="285.434" y1="356.1289" y2="391.1594"/>
    <line x1="283.0107" x2="283.0107" y1="389.7602" y2="354.7298"/>
    <line x1="280.5873" x2="280.5873" y1="353.3307" y2="388.3611"/>
    <line x1="278.1639" x2="278.1639" y1="386.9619" y2="351.9315"/>
    <line x1="275.7405" x2="275.7405" y1="350.5324" y2="385.5628"/>
    <line x1="273.3172" x2="273.3172" y1="384.1637" y2="349.1332"/>
    <line x1="270.8938" x2="270.8938" y1="347.7341" y2="382.7645"/>
    <line x1="268.4704" x2="268.4704" y1="381.3654" y2="346.335"/>
    <line x1="266.047" x2="266.047" y1="344.9358" y2="379.9663"/>
    <line x1="263.6237" x2="263.6237" y1="378.5671" y2="343.5367"/>
    <line x1="261.2003" x2="261.2003" y1="342.1376" y2="377.168"/>
    <line x1="258.7769" x2="258.7769" y1="375.7689" y2="340.7384"/>
    <line x1="256.3535" x2="309.6678" y1="339.3393" y2="370.1203"/>
    <line x1="314.4474" x2="314.4474" y1="367.3608" y2="402.3912"/>
    <line x1="319.227" x2="319.227" y1="399.6317" y2="364.6013"/>
    <line x1="324.0066" x2="324.0066" y1="361.8418" y2="396.8722"/>
    <line x1="328.7862" x2="328.7862" y1="394.1127" y2="359.0823"/>
    <line x1="333.5658" x2="333.5658" y1="356.3228" y2="391.3532"/>
    <line x1="334.0125" x2="363.3611" y1="391.0953" y2="408.0397"/>
    <line x1="360.9633" x2="360.9633" y1="406.6554" y2="375.5353"/>
    <line x1="362.2434" x2="362.2434" y1="374.7962" y2="339.7658"/>
    <line x1="367.023" x2="367.023" y1="337.0063" y2="372.0367"/>
    <line x1="368.2446" x2="368.2446" y1="371.3314" y2="405.2203"/>
    <line x1="373.1281" x2="373.1281" y1="402.4008" y2="368.5119"/>
    <line x1="371.8026" x2="371.8026" y1="369.2772" y2="334.2468"/>
    <line x1="376.5822" x2="376.5822" y1="331.4873" y2="366.5177"/>
    <line x1="378.0116" x2="378.0116" y1="365.6924" y2="399.5813"/>
    <line x1="382.895" x2="382.895" y1="396.7618" y2="362.873"/>
    <line x1="383.9855" x2="386.6293" y1="362.2434" y2="363.7698"/>
    <line x1="387.7785" x2="387.7785" y1="363.1063" y2="393.9424"/>
    <line x1="392.662" x2="392.662" y1="391.1229" y2="360.2869"/>
    <line x1="391.2965" x2="391.2965" y1="361.0752" y2="275.5375"/>
    <line x1="395.9637" x2="395.9637" y1="272.8429" y2="358.3806"/>
    <line x1="397.5455" x2="397.5455" y1="357.4674" y2="388.3034"/>
    <line x1="402.4289" x2="402.4289" y1="385.4839" y2="354.6479"/>
    <line x1="400.6308" x2="400.6308" y1="355.686" y2="270.1483"/>
    <line x1="405.298" x2="405.298" y1="267.4537" y2="352.9914"/>
    <line x1="407.3124" x2="407.3124" y1="351.8284" y2="382.6644"/>
    <line x1="412.1959" x2="412.1959" y1="379.845" y2="349.0089"/>
    <line x1="409.9652" x2="409.9652" y1="350.2968" y2="264.7591"/>
    <line x1="414.6324" x2="414.6324" y1="262.0645" y2="347.6023"/>
    <line x1="417.0794" x2="417.0794" y1="346.1895" y2="377.0255"/>
    <line x1="431.9415" x2="446.5389" y1="395.4963" y2="403.9241"/>
    <line x1="444.1693" x2="444.1693" y1="402.556" y2="421.7097"/>
    <polyline points="446.5389,423.0778 431.9415,414.65 431.9415,395.4963 446.5389,387.0685"/>
    <line x1="439.2782" x2="439.2782" y1="399.7321" y2="418.8858"/>
    <line x1="436.8326" x2="436.8326" y1="417.4739" y2="398.3202"/>
    <line x1="434.3871" x2="434.3871" y1="396.9083" y2="416.062"/>
    <polyline points="431.9415,409.0463 423.7623,404.3241 353.3785,444.9602 353.3785,527.2671 438.3706,576.3373"/>
    <line x1="437.2284" x2="437.2284" y1="575.6779" y2="493.3709"/>
    <line x1="439.6241" x2="439.6241" y1="494.754" y2="536.3352"/>
    <line x1="438.3706" x2="520.1505" y1="537.0589" y2="584.2746"/>
    <line x1="517.7452" x2="517.7452" y1="582.8859" y2="648.9376"/>
    <line x1="515.3399" x2="515.3399" y1="647.5489" y2="581.4972"/>
    <line x1="512.9346" x2="512.9346" y1="580.1085" y2="646.1602"/>
    <line x1="510.5293" x2="510.5293" y1="644.7715" y2="578.7198"/>
    <line x1="508.1241" x2="508.1241" y1="577.3311" y2="643.3828"/>
    <line x1="505.7188" x2="505.7188" y1="641.9941" y2="575.9424"/>
    <line x1="503.3135" x2="503.3135" y1="574.5537" y2="640.6054"/>
    <line x1="500.9082" x2="500.9082" y1="639.2167" y2="573.165"/>
    <line x1="498.5029" x2="498.5029" y1="571.7763" y2="637.828"/>
    <line x1="496.0976" x2="496.0976" y1="636.4393" y2="570.3876"/>
    <line x1="493.6923" x2="493.6923" y1="568.9989" y2="635.0506"/>
    <line x1="491.287" x2="491.287" y1="633.6619" y2="567.6102"/>
    <line x1="488.8817" x2="488.8817" y1="566.2215" y2="632.2732"/>
    <line x1="486.4764" x2="486.4764" y1="630.8845" y2="564.8328"/>
    <line x1="484.0711" x2="484.0711" y1="563.4441" y2="629.4958"/>
    <line x1="481.6658" x2="481.6658" y1="628.1072" y2="562.0554"/>
    <line x1="479.2605" x2="479.2605" y1="560.6667" y2="616.4324"/>
    <line x1="480.5019" x2="468.7441" y1="617.1491" y2="623.9375"/>
    <line x1="466.304" x2="466.304" y1="622.5287" y2="667.9659"/>
    <line x1="468.7441" x2="436.8354" y1="669.3746" y2="650.9522"/>
    <line x1="437.0239" x2="437.0239" y1="651.061" y2="605.6238"/>
    <line x1="434.5839" x2="434.5839" y1="604.2151" y2="642.7002"/>
    <line x1="436.8354" x2="381.3385" y1="644.0002" y2="676.0413"/>
    <line x1="378.9284" x2="378.9284" y1="674.6499" y2="774.7788"/>
    <line x1="376.5183" x2="376.5183" y1="773.3873" y2="673.2584"/>
    <line x1="374.1082" x2="374.1082" y1="671.8669" y2="771.9959"/>
    <line x1="371.6981" x2="371.6981" y1="770.6044" y2="670.4755"/>
    <line x1="369.288" x2="369.288" y1="669.084" y2="769.2129"/>
    <line x1="366.878" x2="366.878" y1="767.8215" y2="667.6925"/>
    <line x1="364.4679" x2="364.4679" y1="666.3011" y2="766.43"/>
    <line x1="362.0578" x2="362.0578" y1="765.0385" y2="664.9096"/>
    <line x1="359.6477" x2="359.6477" y1="663.5181" y2="763.6471"/>
    <line x1="357.2376" x2="357.2376" y1="762.2556" y2="662.1267"/>
    <line x1="354.8275" x2="354.8275" y1="660.7352" y2="760.8641"/>
    <line x1="352.4174" x2="352.4174" y1="759.4727" y2="659.3437"/>
    <line x1="350.0073" x2="350.0073" y1="657.9523" y2="758.0812"/>
    <line x1="347.5972" x2="347.5972" y1="756.6898" y2="656.5608"/>
    <line x1="345.1871" x2="345.1871" y1="655.1693" y2="755.2983"/>
    <line x1="342.7771" x2="342.7771" y1="753.9068" y2="653.7779"/>
    <line x1="340.367" x2="340.367" y1="652.3864" y2="752.5154"/>
    <line x1="337.9569" x2="337.9569" y1="751.1239" y2="650.9949"/>
    <line x1="337.413" x2="337.413" y1="648.526" y2="611.2862"/>
    <line x1="335.0724" x2="335.0724" y1="609.9348" y2="653.8464"/>
    <line x1="335.3047" x2="335.3047" y1="653.9805" y2="691.6241"/>
    <polyline points="335.5468,691.7638 298.6606,670.4676 298.6606,656.1127"/>
    <polyline points="299.3106,656.488 236.651,620.3115 236.651,551.0824 255.8748,539.9836 296.0538,563.1809"/>
    <line x1="288.0444" x2="288.0444" y1="578.4822" y2="596.8781"/>
    <line x1="287.2607" x2="287.2607" y1="596.4256" y2="649.531"/>
    <line x1="284.8507" x2="284.8507" y1="648.1396" y2="595.0342"/>
    <line x1="285.7328" x2="285.7328" y1="595.5435" y2="577.1476"/>
    <line x1="283.4211" x2="283.4211" y1="575.813" y2="594.2088"/>
    <line x1="282.4407" x2="282.4407" y1="593.6428" y2="646.7482"/>
    <line x1="280.0307" x2="280.0307" y1="645.3568" y2="592.2514"/>
    <line x1="281.1094" x2="281.1094" y1="592.8742" y2="574.4783"/>
    <line x1="278.7978" x2="236.651" y1="575.4158" y2="551.0824"/>
    <line x1="239.061" x2="239.061" y1="552.4738" y2="621.7029"/>
    <line x1="241.471" x2="241.471" y1="623.0943" y2="553.8652"/>
    <line x1="243.881" x2="243.881" y1="555.2566" y2="624.4857"/>
    <line x1="246.291" x2="246.291" y1="625.8771" y2="556.648"/>
    <line x1="248.701" x2="248.701" y1="558.0394" y2="627.2685"/>
    <line x1="251.1109" x2="251.1109" y1="628.6599" y2="559.4308"/>
    <line x1="253.5209" x2="253.5209" y1="560.8222" y2="630.0513"/>
    <line x1="255.9309" x2="255.9309" y1="631.4427" y2="562.2136"/>
    <line x1="258.3409" x2="258.3409" y1="563.605" y2="632.8342"/>
    <line x1="260.7509" x2="260.7509" y1="634.2256" y2="564.9964"/>
    <line x1="263.1609" x2="263.1609" y1="566.3878" y2="635.617"/>
    <line x1="265.5708" x2="265.5708" y1="637.0084" y2="567.7792"/>
    <line x1="267.9808" x2="267.9808" y1="569.1706" y2="638.3998"/>
    <line x1="270.3908" x2="270.3908" y1="639.7912" y2="570.562"/>
    <line x1="272.8008" x2="272.8008" y1="571.9534" y2="641.1826"/>
    <line x1="275.2108" x2="275.2108" y1="642.574" y2="573.3449"/>
    <line x1="277.6208" x2="277.6208" y1="574.7363" y2="643.9654"/>
    <line x1="289.6707" x2="289.6707" y1="650.9224" y2="597.817"/>
    <line x1="290.3561" x2="290.3561" y1="598.2128" y2="579.8169"/>
    <line x1="292.6678" x2="292.6678" y1="581.1515" y2="599.5474"/>
    <line x1="292.0807" x2="292.0807" y1="599.2084" y2="652.3138"/>
    <line x1="294.4906" x2="294.4906" y1="653.7052" y2="600.5998"/>
    <line x1="294.9794" x2="294.9794" y1="600.8821" y2="582.4862"/>
    <line x1="297.2911" x2="297.2911" y1="583.8208" y2="602.2167"/>
    <line x1="296.9006" x2="296.9006" y1="601.9912" y2="655.0966"/>
    <line x1="301.1035" x2="301.1035" y1="655.4529" y2="671.878"/>
    <line x1="303.5465" x2="303.5465" y1="673.2884" y2="654.0424"/>
    <line x1="304.1165" x2="304.2261" y1="653.7133" y2="587.8247"/>
    <line x1="301.9144" x2="301.9144" y1="586.4901" y2="604.886"/>
    <line x1="299.6028" x2="299.6028" y1="603.5513" y2="585.1554"/>
    <line x1="306.5378" x2="306.5378" y1="589.1594" y2="607.5553"/>
    <polyline points="299.3106,603.3826 299.3106,656.488 318.5343,645.3892 318.5381,584.9003"/>
    <line x1="313.6938" x2="313.7284" y1="587.6971" y2="648.1639"/>
    <line x1="313.3182" x2="313.3182" y1="648.4007" y2="678.9302"/>
    <line x1="310.8753" x2="310.8753" y1="677.5197" y2="649.8111"/>
    <polyline points="308.9225,650.9386 308.8494,590.494 342.7597,570.9159"/>
    <line x1="337.9154" x2="337.9154" y1="573.7128" y2="592.1087"/>
    <line x1="333.0711" x2="333.0711" y1="594.9055" y2="576.5096"/>
    <line x1="328.2267" x2="328.2267" y1="579.3065" y2="597.7024"/>
    <line x1="327.9759" x2="327.9759" y1="597.8472" y2="687.3928"/>
    <line x1="325.533" x2="325.533" y1="685.9823" y2="599.2577"/>
    <line x1="323.3824" x2="323.3824" y1="600.4993" y2="582.1034"/>
    <line x1="329.4694" x2="338.8045" y1="596.9849" y2="602.3745"/>
    <line x1="337.7477" x2="337.7477" y1="602.9847" y2="601.7644"/>
    <line x1="335.3047" x2="335.3047" y1="600.354" y2="604.3951"/>
    <line x1="332.8618" x2="332.8618" y1="605.8056" y2="598.9435"/>
    <polyline points="330.4188,597.5331 330.3911,607.232 346.7756,616.6917 376.0236,599.8053"/>
    <line x1="373.1962" x2="373.1962" y1="601.4377" y2="627.8666"/>
    <line x1="368.7928" x2="368.7928" y1="630.4089" y2="603.98"/>
    <line x1="364.3893" x2="364.3893" y1="606.5224" y2="632.9512"/>
    <line x1="359.9859" x2="359.9859" y1="635.4935" y2="609.0647"/>
    <line x1="355.5825" x2="355.5825" y1="611.607" y2="638.0359"/>
    <line x1="351.179" x2="351.179" y1="640.5782" y2="614.1493"/>
    <line x1="346.7756" x2="346.7756" y1="616.6917" y2="643.1205"/>
    <line x1="344.4349" x2="344.4349" y1="644.4719" y2="615.3403"/>
    <line x1="342.0943" x2="342.0943" y1="613.9889" y2="645.8233"/>
    <line x1="339.7536" x2="339.7536" y1="647.1746" y2="612.6375"/>
    <line x1="332.7317" x2="332.8618" y1="608.5834" y2="690.2136"/>
    <line x1="330.4188" x2="330.4188" y1="688.8032" y2="651.1597"/>
    <polyline points="335.5468,649.6035 381.3385,676.0413 381.3385,776.1703 335.5468,749.7324 335.5468,649.6035 391.0437,617.5623 436.8354,644.0002 436.8354,744.1291 381.3385,776.1703"/>
    <line x1="379.4218" x2="379.4218" y1="778.2977" y2="801.5547"/>
    <line x1="381.818" x2="381.818" y1="802.9382" y2="779.6811"/>
    <line x1="384.2143" x2="384.2143" y1="781.0646" y2="804.3217"/>
    <polyline points="386.0981,805.4093 373.6344,812.6053 373.6344,916.6029 342.4186,898.5805 342.4186,794.5828 354.8823,787.3869 386.0981,805.4093 386.0981,909.407 373.6344,916.6029"/>
    <line x1="371.2331" x2="371.2331" y1="915.2166" y2="811.2189"/>
    <line x1="373.6344" x2="342.4186" y1="812.6053" y2="794.5828"/>
    <polyline points="342.4186,795.1357 333.8928,790.2133 333.8928,752.0115 336.6936,750.3945"/>
    <line x1="336.2891" x2="336.2891" y1="753.395" y2="791.5968"/>
    <line x1="336.7272" x2="336.7272" y1="791.8498" y2="817.6504"/>
    <line x1="331.8313" x2="331.8313" y1="820.477" y2="776.811"/>
    <line x1="333.8928" x2="322.0395" y1="775.6208" y2="782.4643"/>
    <line x1="319.6019" x2="319.6019" y1="781.0569" y2="827.5377"/>
    <line x1="317.1643" x2="317.1643" y1="828.945" y2="779.6496"/>
    <line x1="314.7267" x2="314.7267" y1="778.2422" y2="830.3524"/>
    <line x1="312.2891" x2="312.2891" y1="831.7597" y2="776.8349"/>
    <line x1="309.8515" x2="309.8515" y1="775.4275" y2="833.1671"/>
    <line x1="307.4139" x2="307.4139" y1="834.5744" y2="774.0202"/>
    <line x1="304.9763" x2="304.9763" y1="772.6129" y2="835.9818"/>
    <line x1="302.5387" x2="302.5387" y1="837.3891" y2="771.2055"/>
    <line x1="300.1011" x2="300.1011" y1="769.7982" y2="847.0189"/>
    <polyline points="302.1871,848.2233 263.5372,825.9087 263.5372,748.6879 312.4962,720.4214 335.5468,733.7297"/>
    <line x1="333.8928" x2="410.5732" y1="752.0115" y2="796.2829"/>
    <line x1="408.1769" x2="408.1769" y1="794.8994" y2="833.1013"/>
    <line x1="407.3262" x2="407.3262" y1="832.6101" y2="920.8754"/>
    <line x1="409.6682" x2="409.6682" y1="922.2275" y2="833.9623"/>
    <polyline points="410.5732,834.4848 507.9836,778.2448 507.9836,740.043 436.8354,698.9656"/>
    <line x1="456.544" x2="456.544" y1="662.3309" y2="616.8938"/>
    <line x1="454.104" x2="454.104" y1="615.485" y2="660.9222"/>
    <line x1="451.664" x2="451.664" y1="659.5134" y2="614.0763"/>
    <line x1="449.224" x2="449.224" y1="612.6675" y2="658.1047"/>
    <line x1="446.7839" x2="446.7839" y1="656.6959" y2="611.2588"/>
    <line x1="444.3439" x2="444.3439" y1="609.8501" y2="655.2872"/>
    <line x1="441.9039" x2="441.9039" y1="653.8785" y2="608.4413"/>
    <line x1="439.4639" x2="439.4639" y1="607.0326" y2="652.4697"/>
    <line x1="432.2107" x2="432.2107" y1="646.6703" y2="746.7992"/>
    <line x1="427.5859" x2="427.5859" y1="749.4693" y2="649.3404"/>
    <line x1="422.9612" x2="422.9612" y1="652.0105" y2="752.1394"/>
    <line x1="418.3364" x2="418.3364" y1="754.8095" y2="654.6806"/>
    <line x1="413.7117" x2="413.7117" y1="657.3506" y2="757.4796"/>
    <line x1="409.087" x2="409.087" y1="760.1497" y2="660.0207"/>
    <line x1="404.4622" x2="404.4622" y1="662.6908" y2="762.8198"/>
    <line x1="399.8375" x2="399.8375" y1="765.4899" y2="665.3609"/>
    <line x1="395.2127" x2="395.2127" y1="668.031" y2="768.16"/>
    <line x1="390.588" x2="390.588" y1="770.8301" y2="670.7011"/>
    <line x1="385.9632" x2="385.9632" y1="673.3712" y2="773.5002"/>
    <line x1="386.6106" x2="386.6106" y1="782.4481" y2="820.6499"/>
    <line x1="388.59" x2="388.59" y1="821.7928" y2="910.058"/>
    <line x1="390.932" x2="390.932" y1="911.4102" y2="823.1449"/>
    <line x1="391.4031" x2="391.4031" y1="823.4169" y2="785.2151"/>
    <line x1="389.0068" x2="389.0068" y1="783.8316" y2="822.0334"/>
    <line x1="393.274" x2="393.274" y1="824.4971" y2="912.7624"/>
    <line x1="395.616" x2="395.616" y1="914.1145" y2="825.8493"/>
    <line x1="396.1956" x2="396.1956" y1="826.1839" y2="787.982"/>
    <line x1="393.7993" x2="393.7993" y1="786.5985" y2="824.8004"/>
    <line x1="397.9581" x2="397.9581" y1="827.2014" y2="915.4667"/>
    <line x1="400.3001" x2="400.3001" y1="916.8189" y2="828.5536"/>
    <line x1="400.9881" x2="400.9881" y1="828.9508" y2="790.749"/>
    <line x1="403.3844" x2="403.3844" y1="792.1325" y2="830.3343"/>
    <line x1="402.6421" x2="402.6421" y1="829.9058" y2="918.171"/>
    <line x1="404.9841" x2="404.9841" y1="919.5232" y2="831.2579"/>
    <line x1="405.7806" x2="405.7806" y1="831.7178" y2="793.5159"/>
    <line x1="398.5919" x2="398.5919" y1="789.3655" y2="827.5673"/>
    <line x1="412.0102" x2="412.0102" y1="833.6551" y2="923.5797"/>
    <line x1="414.3522" x2="414.3522" y1="924.9319" y2="832.3029"/>
    <line x1="415.4437" x2="415.4437" y1="831.6728" y2="793.4709"/>
    <line x1="420.3142" x2="420.3142" y1="790.6589" y2="828.8608"/>
    <polyline points="421.3783,828.2464 421.3783,928.9884 448.0401,913.5952 448.0401,812.8532"/>
    <polyline points="449.0552,812.2671 454.6676,815.5075 454.6676,852.4876 448.0401,856.314"/>
    <line x1="450.0747" x2="450.0747" y1="855.1393" y2="818.1592"/>
    <line x1="448.0401" x2="454.6676" y1="819.3338" y2="815.5075"/>
    <line x1="454.4147" x2="454.4078" y1="815.3614" y2="770.9749"/>
    <line x1="459.2784" x2="459.2613" y1="768.1629" y2="829.3523"/>
    <line x1="456.838" x2="456.838" y1="827.9531" y2="807.7737"/>
    <line x1="461.4799" x2="505.3049" y1="805.0937" y2="830.3961"/>
    <line x1="502.8816" x2="502.8816" y1="828.997" y2="856.9096"/>
    <line x1="500.4582" x2="500.4582" y1="858.3087" y2="827.5978"/>
    <line x1="498.0349" x2="498.0349" y1="826.1987" y2="859.7078"/>
    <line x1="495.6115" x2="495.6115" y1="861.1069" y2="824.7996"/>
    <line x1="493.1882" x2="493.1882" y1="823.4005" y2="862.5061"/>
    <line x1="490.7648" x2="490.7648" y1="863.9052" y2="822.0014"/>
    <line x1="488.3415" x2="488.3415" y1="820.6022" y2="865.3043"/>
    <line x1="485.9181" x2="485.9181" y1="866.7034" y2="819.2031"/>
    <polyline points="483.4948,817.804 483.4948,868.1025 461.8531,855.6533"/>
    <line x1="464.108" x2="464.108" y1="856.9552" y2="806.6111"/>
    <line x1="466.5314" x2="466.5314" y1="808.0102" y2="858.3543"/>
    <line x1="468.9547" x2="468.9547" y1="859.7534" y2="809.4093"/>
    <line x1="471.3781" x2="471.3781" y1="810.8084" y2="861.1525"/>
    <line x1="473.8014" x2="473.8014" y1="862.5517" y2="812.2075"/>
    <line x1="476.2248" x2="476.2248" y1="813.6066" y2="863.9508"/>
    <line x1="478.6481" x2="478.6481" y1="865.3499" y2="815.0058"/>
    <line x1="481.0715" x2="481.0715" y1="816.4049" y2="866.749"/>
    <line x1="478.2521" x2="478.2521" y1="873.9107" y2="962.472"/>
    <line x1="480.6608" x2="480.6608" y1="963.8626" y2="875.3013"/>
    <line x1="483.0694" x2="483.0694" y1="876.6919" y2="965.2533"/>
    <line x1="485.4781" x2="485.4781" y1="966.6439" y2="878.0825"/>
    <line x1="487.8867" x2="487.8867" y1="879.4732" y2="968.0345"/>
    <line x1="490.2953" x2="490.2953" y1="969.4252" y2="880.8638"/>
    <line x1="492.704" x2="492.704" y1="882.2544" y2="970.8158"/>
    <line x1="495.1126" x2="495.1126" y1="972.2064" y2="883.6451"/>
    <line x1="497.5213" x2="497.5213" y1="885.0357" y2="973.597"/>
    <line x1="499.9299" x2="499.9299" y1="974.9877" y2="886.4263"/>
    <line x1="502.3386" x2="502.3386" y1="887.817" y2="976.3783"/>
    <line x1="504.7472" x2="504.7472" y1="977.7689" y2="889.2076"/>
    <line x1="507.1558" x2="507.1558" y1="890.5982" y2="979.1596"/>
    <line x1="509.5645" x2="509.5645" y1="980.5502" y2="891.9888"/>
    <line x1="511.9731" x2="511.9731" y1="893.3795" y2="981.9408"/>
    <line x1="514.3818" x2="514.3818" y1="983.3315" y2="894.7701"/>
    <line x1="516.7904" x2="516.7904" y1="896.1607" y2="984.7221"/>
    <line x1="519.199" x2="519.199" y1="986.1127" y2="897.5514"/>
    <line x1="521.6077" x2="521.6077" y1="898.942" y2="987.5033"/>
    <line x1="524.0163" x2="524.0163" y1="988.894" y2="900.3326"/>
    <line x1="526.425" x2="526.425" y1="901.7233" y2="990.2846"/>
    <line x1="528.8336" x2="528.8336" y1="991.6752" y2="903.1139"/>
    <line x1="531.2423" x2="531.2423" y1="904.5045" y2="993.0659"/>
    <line x1="533.6509" x2="533.6509" y1="994.4565" y2="905.8951"/>
    <line x1="536.0595" x2="536.0595" y1="907.2858" y2="995.8471"/>
    <line x1="538.4682" x2="538.4682" y1="997.2378" y2="908.6764"/>
    <line x1="540.8768" x2="540.8768" y1="910.067" y2="998.6284"/>
    <line x1="543.2855" x2="543.2855" y1="1000.019" y2="911.4577"/>
    <line x1="545.6941" x2="545.6941" y1="912.8483" y2="1001.4096"/>
    <line x1="548.1027" x2="548.1027" y1="1002.8003" y2="914.2389"/>
    <line x1="550.5114" x2="550.5114" y1="915.6296" y2="1004.1909"/>
    <line x1="552.92" x2="552.92" y1="1005.5815" y2="917.0202"/>
    <line x1="555.3287" x2="555.3287" y1="918.4108" y2="1006.9722"/>
    <polyline points="557.7373,1008.3628 591.5272,988.8542 591.5272,900.2928 509.6334,853.0114 475.8435,872.52 475.8435,961.0814 557.7373,1008.3628 557.7373,919.8014 591.5272,900.2928"/>
    <polyline points="590.3479,899.6119 590.3479,836.3173 541.1293,807.9009"/>
    <polyline points="541.1293,809.7128 505.3049,830.3961 505.3049,855.5105"/>
    <line x1="510.125" x2="510.125" y1="853.2952" y2="827.6132"/>
    <line x1="514.9451" x2="514.9451" y1="824.8303" y2="856.0781"/>
    <line x1="519.7651" x2="519.7651" y1="858.861" y2="822.0475"/>
    <line x1="524.5852" x2="524.5852" y1="819.2646" y2="861.6438"/>
    <line x1="529.4053" x2="529.4053" y1="864.4267" y2="816.4817"/>
    <line x1="534.2254" x2="534.2254" y1="813.6988" y2="864.043"/>
    <line x1="531.483" x2="541.1293" y1="865.6263" y2="860.057"/>
    <line x1="539.0454" x2="539.0454" y1="861.2601" y2="810.916"/>
    <line x1="543.4731" x2="543.4731" y1="809.2541" y2="872.5487"/>
    <polyline points="541.1293,871.1956 541.1293,807.9009 552.4359,801.373 601.6545,829.7894 601.6545,922.8103 591.5272,928.6573"/>
    <line x1="594.1168" x2="594.1168" y1="927.1622" y2="834.1413"/>
    <line x1="590.3479" x2="601.6545" y1="836.3173" y2="829.7894"/>
    <line x1="597.8857" x2="597.8857" y1="831.9654" y2="924.9862"/>
    <line x1="586.7001" x2="586.7001" y1="903.0798" y2="991.6411"/>
    <line x1="581.873" x2="581.873" y1="994.4281" y2="905.8667"/>
    <line x1="577.0458" x2="577.0458" y1="908.6537" y2="997.215"/>
    <line x1="572.2187" x2="572.2187" y1="1000.002" y2="911.4406"/>
    <line x1="567.3916" x2="567.3916" y1="914.2276" y2="1002.7889"/>
    <line x1="562.5644" x2="562.5644" y1="1005.5758" y2="917.0145"/>
    <line x1="557.7373" x2="475.8435" y1="919.8014" y2="872.52"/>
    <line x1="452.5496" x2="452.5496" y1="853.7104" y2="920.1322"/>
    <line x1="457.2013" x2="457.2013" y1="917.4466" y2="833.5342"/>
    <line x1="454.6676" x2="461.8531" y1="834.9971" y2="830.8486"/>
    <line x1="461.6847" x2="461.6847" y1="830.7514" y2="805.2119"/>
    <line x1="464.1489" x2="464.1489" y1="803.5528" y2="765.3509"/>
    <line x1="469.0194" x2="469.0194" y1="762.5389" y2="800.7408"/>
    <line x1="473.8899" x2="473.8899" y1="797.9288" y2="759.727"/>
    <line x1="478.7605" x2="478.7605" y1="756.915" y2="795.1168"/>
    <line x1="483.631" x2="483.631" y1="792.3048" y2="754.103"/>
    <line x1="488.5015" x2="488.5015" y1="751.291" y2="789.4928"/>
    <line x1="493.372" x2="493.372" y1="786.6808" y2="748.479"/>
    <line x1="498.2425" x2="498.2425" y1="745.667" y2="783.8688"/>
    <line x1="503.1131" x2="503.1131" y1="781.0568" y2="742.855"/>
    <polyline points="507.9836,740.043 410.5732,796.2829 410.5732,834.4848 386.0981,820.3541 386.0981,908.6193 421.3783,928.9884"/>
    <line x1="419.0363" x2="419.0363" y1="927.6362" y2="829.5986"/>
    <line x1="416.6942" x2="416.6942" y1="830.9507" y2="926.284"/>
    <line x1="425.8219" x2="425.8219" y1="926.4228" y2="825.6809"/>
    <line x1="425.1847" x2="425.1847" y1="826.0488" y2="787.8469"/>
    <line x1="430.0552" x2="430.0552" y1="785.0349" y2="823.2368"/>
    <line x1="430.2656" x2="430.2656" y1="823.1153" y2="923.8573"/>
    <line x1="429.0571" x2="429.0571" y1="924.555" y2="928.0541"/>
    <line x1="431.4999" x2="431.4999" y1="929.4645" y2="923.1446"/>
    <polyline points="433.9428,921.7342 433.9428,930.8749 461.8531,914.7609 461.8531,830.8486 454.6676,826.7"/>
    <line x1="451.9913" x2="451.9913" y1="813.9623" y2="810.572"/>
    <line x1="449.568" x2="449.5373" y1="812.5632" y2="773.7869"/>
    <line x1="444.6668" x2="444.6668" y1="776.5989" y2="814.8008"/>
    <line x1="443.5965" x2="443.5965" y1="815.4187" y2="916.1607"/>
    <line x1="443.2462" x2="443.2462" y1="916.3629" y2="925.5036"/>
    <line x1="438.5945" x2="438.5945" y1="928.1892" y2="919.0486"/>
    <line x1="439.1528" x2="439.1528" y1="918.7262" y2="817.9843"/>
    <line x1="439.7963" x2="439.7963" y1="817.6128" y2="779.4109"/>
    <line x1="434.9258" x2="434.9258" y1="782.2229" y2="820.4248"/>
    <line x1="434.7092" x2="434.7092" y1="820.5498" y2="921.2918"/>
    <line x1="426.6142" x2="426.6142" y1="925.9654" y2="926.6437"/>
    <line x1="426.0268" x2="433.9428" y1="926.3046" y2="930.8749"/>
    <line x1="447.8979" x2="447.8979" y1="922.8179" y2="913.6772"/>
    <line x1="460.2902" x2="420.5399" y1="958.4274" y2="981.3773"/>
    <line x1="418.0871" x2="418.0871" y1="979.9611" y2="1003.9055"/>
    <line x1="415.6343" x2="415.6343" y1="1002.4894" y2="978.545"/>
    <line x1="413.1815" x2="413.1815" y1="977.1289" y2="1001.0732"/>
    <polyline points="420.5399,1005.3217 460.2902,982.3718 460.2902,958.4274 450.4789,952.7629 410.7286,975.7127 410.7286,999.6571 420.5399,1005.3217 420.5399,981.3773 410.7286,975.7127"/>
    <line x1="424.9566" x2="424.9566" y1="978.8273" y2="1002.7717"/>
    <line x1="429.3733" x2="429.3733" y1="1000.2217" y2="976.2773"/>
    <line x1="433.79" x2="433.79" y1="973.7273" y2="997.6717"/>
    <line x1="438.2067" x2="438.2067" y1="995.1217" y2="971.1774"/>
    <line x1="442.6234" x2="442.6234" y1="968.6274" y2="992.5718"/>
    <line x1="447.0401" x2="447.0401" y1="990.0218" y2="966.0774"/>
    <line x1="451.4568" x2="451.4568" y1="963.5274" y2="987.4718"/>
    <line x1="455.8735" x2="455.8735" y1="984.9218" y2="960.9774"/>
    <line x1="381.9435" x2="381.9435" y1="911.8056" y2="807.808"/>
    <line x1="377.7889" x2="377.7889" y1="810.2066" y2="914.2043"/>
    <line x1="368.8319" x2="368.8319" y1="913.8302" y2="809.8326"/>
    <line x1="366.4307" x2="366.4307" y1="808.4462" y2="912.4439"/>
    <line x1="364.0295" x2="364.0295" y1="911.0576" y2="807.0599"/>
    <line x1="361.6283" x2="361.6283" y1="805.6735" y2="909.6712"/>
    <line x1="359.2271" x2="359.2271" y1="908.2849" y2="804.2872"/>
    <line x1="356.8259" x2="356.8259" y1="802.9009" y2="906.8985"/>
    <line x1="354.4246" x2="354.4246" y1="905.5122" y2="801.5145"/>
    <line x1="352.0234" x2="352.0234" y1="800.1282" y2="904.1258"/>
    <line x1="349.6222" x2="349.6222" y1="902.7395" y2="798.7418"/>
    <line x1="347.221" x2="347.221" y1="797.3555" y2="901.3532"/>
    <line x1="344.8198" x2="344.8198" y1="899.9668" y2="795.9691"/>
    <line x1="343.4779" x2="343.4779" y1="793.9712" y2="757.5454"/>
    <line x1="341.0816" x2="341.0816" y1="756.1619" y2="794.3638"/>
    <line x1="341.6231" x2="341.6231" y1="794.6764" y2="814.8237"/>
    <polyline points="342.4186,814.3645 302.1871,837.5921 302.1871,865.8896 342.4186,889.1173"/>
    <line x1="342.1991" x2="342.1991" y1="888.9905" y2="860.693"/>
    <line x1="342.4186" x2="302.1871" y1="860.8198" y2="837.5921"/>
    <line x1="304.5408" x2="304.5408" y1="838.951" y2="867.2485"/>
    <line x1="306.8944" x2="306.8944" y1="868.6074" y2="840.3099"/>
    <line x1="309.248" x2="309.248" y1="841.6688" y2="869.9663"/>
    <line x1="311.6017" x2="311.6017" y1="871.3251" y2="843.0276"/>
    <line x1="313.9553" x2="313.9553" y1="844.3865" y2="872.684"/>
    <line x1="316.309" x2="316.309" y1="874.0429" y2="845.7454"/>
    <line x1="318.6626" x2="318.6626" y1="847.1043" y2="875.4018"/>
    <line x1="321.0163" x2="321.0163" y1="876.7606" y2="848.4631"/>
    <line x1="323.3699" x2="323.3699" y1="849.822" y2="878.1195"/>
    <line x1="325.7236" x2="325.7236" y1="879.4784" y2="851.1809"/>
    <line x1="328.0772" x2="328.0772" y1="852.5398" y2="880.8373"/>
    <line x1="330.4308" x2="330.4308" y1="882.1962" y2="853.8987"/>
    <line x1="332.7845" x2="332.7845" y1="855.2575" y2="883.555"/>
    <line x1="335.1381" x2="335.1381" y1="884.9139" y2="856.6164"/>
    <line x1="337.4918" x2="337.4918" y1="857.9753" y2="886.2728"/>
    <line x1="339.8454" x2="339.8454" y1="887.6317" y2="859.3342"/>
    <polyline points="322.0395,826.1304 322.0395,782.4643 263.5372,748.6879"/>
    <line x1="265.9748" x2="265.9748" y1="750.0953" y2="827.3161"/>
    <line x1="268.4123" x2="268.4123" y1="828.7234" y2="751.5026"/>
    <line x1="270.8499" x2="270.8499" y1="752.91" y2="830.1308"/>
    <line x1="273.2875" x2="273.2875" y1="831.5381" y2="754.3173"/>
    <line x1="275.7251" x2="275.7251" y1="755.7247" y2="832.9455"/>
    <line x1="278.1627" x2="278.1627" y1="834.3528" y2="757.132"/>
    <line x1="280.6003" x2="280.6003" y1="758.5394" y2="835.7602"/>
    <line x1="283.0379" x2="283.0379" y1="837.1675" y2="759.9467"/>
    <line x1="285.4755" x2="285.4755" y1="761.3541" y2="838.5748"/>
    <line x1="287.9131" x2="287.9131" y1="839.9822" y2="762.7614"/>
    <line x1="290.3507" x2="290.3507" y1="764.1688" y2="841.3895"/>
    <line x1="292.7883" x2="292.7883" y1="842.7969" y2="765.5761"/>
    <line x1="295.2259" x2="295.2259" y1="766.9835" y2="844.2042"/>
    <line x1="297.6635" x2="297.6635" y1="845.6116" y2="768.3908"/>
    <line x1="326.9354" x2="326.9354" y1="779.6376" y2="823.3037"/>
    <line x1="338.6854" x2="338.6854" y1="792.9803" y2="754.7785"/>
    <line x1="345.8741" x2="345.8741" y1="758.9289" y2="792.5877"/>
    <line x1="348.2704" x2="348.2704" y1="791.2043" y2="760.3124"/>
    <line x1="350.6667" x2="350.6667" y1="761.6959" y2="789.8208"/>
    <line x1="353.0629" x2="353.0629" y1="788.4373" y2="763.0794"/>
    <line x1="355.4592" x2="355.4592" y1="764.4628" y2="787.7199"/>
    <line x1="357.8554" x2="357.8554" y1="789.1034" y2="765.8463"/>
    <line x1="360.2517" x2="360.2517" y1="767.2298" y2="790.4869"/>
    <line x1="362.648" x2="362.648" y1="791.8704" y2="768.6133"/>
    <line x1="365.0442" x2="365.0442" y1="769.9968" y2="793.2538"/>
    <line x1="367.4405" x2="367.4405" y1="794.6373" y2="771.3802"/>
    <line x1="369.8367" x2="369.8367" y1="772.7637" y2="796.0208"/>
    <line x1="372.233" x2="372.233" y1="797.4043" y2="774.1472"/>
    <line x1="374.6293" x2="374.6293" y1="775.5307" y2="798.7878"/>
    <line x1="377.0255" x2="377.0255" y1="800.1712" y2="776.9142"/>
    <line x1="323.09" x2="323.09" y1="684.5719" y2="600.6681"/>
    <line x1="320.6471" x2="320.6471" y1="602.0785" y2="683.1615"/>
    <line x1="318.2041" x2="318.2041" y1="681.751" y2="645.5798"/>
    <line x1="315.7612" x2="315.7612" y1="646.9903" y2="680.3406"/>
    <line x1="308.4324" x2="308.4324" y1="676.1093" y2="651.2216"/>
    <line x1="305.9894" x2="305.9894" y1="652.632" y2="674.6989"/>
    <polyline points="335.5468,654.1203 330.3911,651.1436 330.3911,607.232 365.6186,586.8934 376.0236,592.9008"/>
    <polyline points="376.0236,578.0131 338.3677,556.2725 327.8822,562.3264"/>
    <polygon points="312.708,553.5656 342.7597,570.9159 342.7597,589.3118 308.8494,608.8899 278.7978,591.5396 278.7978,573.1437"/>
    <line x1="308.8494" x2="278.7978" y1="590.494" y2="573.1437"/>
    <line x1="355.7742" x2="355.7742" y1="528.6503" y2="446.3433"/>
    <line x1="353.3785" x2="449.2069" y1="444.9602" y2="500.2867"/>
    <line x1="446.8112" x2="446.8112" y1="498.9035" y2="532.1857"/>
    <polyline points="449.2069,530.8025 449.2069,500.2867 458.0771,495.1655"/>
    <line x1="458.5914" x2="458.5914" y1="495.4625" y2="525.3844"/>
    <line x1="463.2837" x2="463.2837" y1="522.6753" y2="498.1716"/>
    <line x1="463.8455" x2="463.8455" y1="498.4959" y2="469.4195"/>
    <line x1="466.2395" x2="466.2395" y1="470.8017" y2="499.8781"/>
    <line x1="467.9759" x2="467.9759" y1="500.8806" y2="519.9663"/>
    <line x1="472.6682" x2="472.6682" y1="517.2572" y2="503.5897"/>
    <polyline points="473.4214,504.0246 423.148,474.9992 423.148,445.9228 450.6907,430.021"/>
    <line x1="451.4099" x2="451.4099" y1="430.4362" y2="372.83"/>
    <line x1="448.9744" x2="448.9744" y1="371.4239" y2="429.0301"/>
    <line x1="453.8454" x2="453.8454" y1="431.8424" y2="374.2361"/>
    <line x1="456.2809" x2="456.2809" y1="375.6423" y2="433.2485"/>
    <line x1="458.7164" x2="458.7164" y1="434.6546" y2="377.0484"/>
    <line x1="461.1519" x2="461.1519" y1="378.4545" y2="436.0608"/>
    <line x1="463.5873" x2="463.5873" y1="437.4669" y2="379.8607"/>
    <line x1="466.0228" x2="466.0228" y1="381.2668" y2="438.873"/>
    <line x1="468.4583" x2="468.4583" y1="440.2792" y2="382.6729"/>
    <line x1="470.8938" x2="470.8938" y1="384.0791" y2="441.6853"/>
    <line x1="473.3293" x2="473.3293" y1="443.0914" y2="385.4852"/>
    <line x1="475.7648" x2="475.7648" y1="386.8913" y2="444.4976"/>
    <line x1="478.2003" x2="478.2003" y1="445.9037" y2="388.2975"/>
    <line x1="480.6358" x2="480.6358" y1="389.7036" y2="447.3098"/>
    <line x1="483.0713" x2="483.0713" y1="448.716" y2="391.1097"/>
    <line x1="485.5068" x2="485.5068" y1="392.5159" y2="450.1221"/>
    <line x1="487.9423" x2="487.9423" y1="451.5282" y2="393.922"/>
    <line x1="490.3778" x2="490.3778" y1="395.3281" y2="452.9344"/>
    <line x1="492.8133" x2="492.8133" y1="454.3405" y2="396.7342"/>
    <line x1="495.2487" x2="495.2487" y1="398.1404" y2="455.7466"/>
    <line x1="497.6842" x2="497.6842" y1="457.1528" y2="399.5465"/>
    <line x1="500.1197" x2="500.1197" y1="400.9526" y2="458.5589"/>
    <polyline points="500.9641,459.0464 473.4214,474.9481 473.4214,504.0246 518.4758,478.0124"/>
    <line x1="517.8065" x2="517.8065" y1="477.626" y2="468.7703"/>
    <line x1="517.1682" x2="517.1682" y1="468.4018" y2="410.7956"/>
    <line x1="519.6037" x2="519.6037" y1="412.2017" y2="469.808"/>
    <line x1="520.1091" x2="520.1091" y1="470.0997" y2="478.9554"/>
    <line x1="522.4117" x2="522.4117" y1="480.2848" y2="471.4292"/>
    <line x1="522.0392" x2="522.0392" y1="471.2141" y2="413.6078"/>
    <line x1="524.4747" x2="524.4747" y1="415.014" y2="472.6202"/>
    <line x1="524.7143" x2="524.7143" y1="472.7586" y2="481.6142"/>
    <line x1="527.0169" x2="526.9102" y1="482.9436" y2="416.4201"/>
    <line x1="529.3456" x2="529.3195" y1="417.8262" y2="484.273"/>
    <line x1="531.6221" x2="531.7811" y1="485.6024" y2="419.2324"/>
    <line x1="534.2166" x2="446.5389" y1="420.6385" y2="370.0177"/>
    <line x1="441.7237" x2="441.7237" y1="401.1441" y2="420.2978"/>
    <line x1="425.542" x2="425.542" y1="447.3049" y2="476.3814"/>
    <line x1="427.9359" x2="427.9359" y1="477.7635" y2="448.6871"/>
    <line x1="430.3299" x2="430.3299" y1="450.0693" y2="479.1457"/>
    <line x1="432.7239" x2="432.7239" y1="480.5279" y2="451.4514"/>
    <line x1="435.1179" x2="435.1179" y1="452.8336" y2="481.91"/>
    <line x1="437.5118" x2="437.5118" y1="483.2922" y2="454.2157"/>
    <line x1="439.9058" x2="439.9058" y1="455.5979" y2="484.6743"/>
    <line x1="442.2998" x2="442.2998" y1="486.0565" y2="456.9801"/>
    <line x1="444.6937" x2="444.6937" y1="458.3622" y2="487.4387"/>
    <line x1="447.0877" x2="447.0877" y1="488.8208" y2="459.7444"/>
    <line x1="449.4817" x2="449.4817" y1="461.1265" y2="490.203"/>
    <line x1="451.8757" x2="451.8757" y1="491.5851" y2="462.5087"/>
    <line x1="454.2696" x2="454.2696" y1="463.8909" y2="492.9673"/>
    <line x1="456.6636" x2="456.6636" y1="494.3494" y2="465.273"/>
    <line x1="459.0576" x2="459.0576" y1="466.6552" y2="495.7316"/>
    <line x1="461.4515" x2="461.4515" y1="497.1138" y2="468.0373"/>
    <line x1="468.6334" x2="468.6334" y1="472.1838" y2="501.2602"/>
    <line x1="471.0274" x2="471.0274" y1="502.6424" y2="473.566"/>
    <line x1="473.4214" x2="423.148" y1="474.9481" y2="445.9228"/>
    <line x1="406.0841" x2="406.0841" y1="475.3898" y2="557.6967"/>
    <line x1="408.4798" x2="408.4798" y1="559.0799" y2="476.7729"/>
    <line x1="410.8756" x2="410.8756" y1="478.1561" y2="560.4631"/>
    <line x1="413.2713" x2="413.2713" y1="561.8462" y2="479.5392"/>
    <line x1="415.667" x2="415.667" y1="480.9224" y2="563.2294"/>
    <line x1="418.0627" x2="418.0627" y1="564.6126" y2="482.3056"/>
    <line x1="420.4584" x2="420.4584" y1="483.6887" y2="565.9957"/>
    <line x1="422.8541" x2="422.8541" y1="567.3789" y2="485.0719"/>
    <line x1="425.2498" x2="425.2498" y1="486.4551" y2="568.7621"/>
    <line x1="427.6455" x2="427.6455" y1="570.1452" y2="487.8382"/>
    <line x1="430.0412" x2="430.0412" y1="489.2214" y2="571.5284"/>
    <line x1="432.4369" x2="432.4369" y1="572.9115" y2="490.6046"/>
    <line x1="434.8327" x2="434.8327" y1="491.9877" y2="574.2947"/>
    <polyline points="438.3706,592.8246 438.3706,537.0589 497.0707,503.1684 578.8506,550.3841 578.8506,616.4358 520.1505,650.3263 520.1505,584.2746 578.8506,550.3841"/>
    <line x1="573.9589" x2="573.9589" y1="553.2083" y2="619.26"/>
    <line x1="569.0673" x2="569.0673" y1="622.0842" y2="556.0325"/>
    <line x1="564.1756" x2="564.1756" y1="558.8567" y2="624.9084"/>
    <line x1="559.2839" x2="559.2839" y1="627.7326" y2="561.6809"/>
    <line x1="554.3922" x2="554.3922" y1="564.5051" y2="630.5568"/>
    <line x1="549.5006" x2="549.5006" y1="633.381" y2="567.3293"/>
    <line x1="544.6089" x2="544.6089" y1="570.1535" y2="636.2052"/>
    <line x1="539.7172" x2="539.7172" y1="639.0294" y2="572.9777"/>
    <line x1="534.8255" x2="534.8255" y1="575.8019" y2="641.8537"/>
    <line x1="529.9339" x2="529.9339" y1="644.6779" y2="578.6262"/>
    <line x1="525.0422" x2="525.0422" y1="581.4504" y2="647.5021"/>
    <line x1="520.1505" x2="480.5019" y1="650.3263" y2="627.4351"/>
    <line x1="476.5826" x2="476.5826" y1="619.4119" y2="664.849"/>
    <line x1="472.6633" x2="472.6633" y1="667.1118" y2="621.6747"/>
    <line x1="476.8553" x2="476.8553" y1="615.0437" y2="559.278"/>
    <line x1="474.45" x2="474.45" y1="557.8893" y2="613.655"/>
    <line x1="472.0447" x2="472.0447" y1="612.2663" y2="556.5007"/>
    <line x1="469.6394" x2="469.6394" y1="555.112" y2="610.8777"/>
    <line x1="467.2341" x2="467.2341" y1="609.489" y2="553.7233"/>
    <line x1="464.8288" x2="464.8288" y1="552.3346" y2="608.1003"/>
    <line x1="462.4235" x2="462.4235" y1="606.7116" y2="550.9459"/>
    <line x1="460.0182" x2="460.0182" y1="549.5572" y2="605.3229"/>
    <line x1="457.6129" x2="457.6129" y1="603.9342" y2="548.1685"/>
    <line x1="455.2076" x2="455.2076" y1="546.7798" y2="602.5455"/>
    <line x1="452.8023" x2="452.8023" y1="601.1568" y2="545.3911"/>
    <line x1="450.397" x2="450.397" y1="544.0024" y2="599.7681"/>
    <line x1="447.9917" x2="447.9917" y1="598.3794" y2="542.6137"/>
    <line x1="445.5865" x2="445.5865" y1="541.225" y2="596.9907"/>
    <line x1="443.1812" x2="443.1812" y1="595.602" y2="539.8363"/>
    <line x1="440.7759" x2="440.7759" y1="538.4476" y2="594.2133"/>
    <line x1="432.1439" x2="432.1439" y1="602.8063" y2="641.2915"/>
    <line x1="429.7039" x2="429.7039" y1="639.8828" y2="601.3976"/>
    <line x1="427.2639" x2="427.2639" y1="599.9889" y2="638.474"/>
    <line x1="424.8238" x2="424.8238" y1="637.0653" y2="598.5801"/>
    <line x1="422.3838" x2="422.3838" y1="597.1714" y2="635.6565"/>
    <line x1="419.9438" x2="419.9438" y1="634.2478" y2="595.7626"/>
    <line x1="417.5038" x2="417.5038" y1="594.3539" y2="632.839"/>
    <line x1="415.0638" x2="415.0638" y1="631.4303" y2="592.9452"/>
    <line x1="412.6238" x2="412.6238" y1="591.5364" y2="630.0216"/>
    <line x1="410.1838" x2="410.1838" y1="628.6128" y2="590.1277"/>
    <line x1="407.7438" x2="407.7438" y1="588.7189" y2="627.2041"/>
    <line x1="405.3037" x2="405.3037" y1="625.7953" y2="587.3102"/>
    <line x1="402.8637" x2="402.8637" y1="585.9014" y2="624.3866"/>
    <line x1="400.4237" x2="400.4237" y1="622.9779" y2="584.4927"/>
    <line x1="397.9837" x2="397.9837" y1="583.084" y2="621.5691"/>
    <line x1="395.5437" x2="395.5437" y1="620.1604" y2="581.6752"/>
    <line x1="393.1037" x2="393.1037" y1="580.2665" y2="618.7516"/>
    <line x1="390.6637" x2="390.6637" y1="617.7817" y2="578.8577"/>
    <line x1="388.2237" x2="388.2237" y1="577.449" y2="619.1905"/>
    <line x1="385.7836" x2="385.7836" y1="620.5992" y2="576.0403"/>
    <line x1="383.3436" x2="383.3436" y1="574.6315" y2="620.0687"/>
    <line x1="382.0031" x2="382.0031" y1="619.2947" y2="622.7819"/>
    <polyline points="385.0231,621.0383 376.0236,615.8424 376.0236,570.4053 387.7814,563.6169 480.5019,617.1491 480.5019,662.5863 468.7441,669.3746 468.7441,623.9375 376.0236,570.4053"/>
    <line x1="378.4636" x2="378.4636" y1="571.814" y2="617.2512"/>
    <line x1="377.5997" x2="377.5997" y1="616.7524" y2="625.3242"/>
    <line x1="380.9036" x2="380.9036" y1="618.6599" y2="573.2228"/>
    <line x1="394.1056" x2="394.1056" y1="550.7809" y2="468.4739"/>
    <line x1="391.7099" x2="391.7099" y1="467.0908" y2="549.3978"/>
    <line x1="389.3142" x2="389.3142" y1="548.0146" y2="465.7076"/>
    <line x1="386.9185" x2="386.9185" y1="464.3244" y2="546.6314"/>
    <line x1="384.5227" x2="384.5227" y1="545.2483" y2="462.9413"/>
    <line x1="382.127" x2="382.127" y1="461.5581" y2="543.8651"/>
    <line x1="379.7313" x2="379.7313" y1="542.4819" y2="460.175"/>
    <line x1="377.3356" x2="377.3356" y1="458.7918" y2="541.0988"/>
    <line x1="374.9399" x2="374.9399" y1="539.7156" y2="457.4086"/>
    <line x1="372.5442" x2="372.5442" y1="456.0255" y2="538.3324"/>
    <line x1="370.1485" x2="370.1485" y1="536.9493" y2="454.6423"/>
    <line x1="367.7528" x2="367.7528" y1="453.2591" y2="535.5661"/>
    <line x1="365.3571" x2="365.3571" y1="534.183" y2="451.876"/>
    <line x1="362.9614" x2="362.9614" y1="450.4928" y2="532.7998"/>
    <line x1="360.5656" x2="360.5656" y1="531.4166" y2="449.1096"/>
    <line x1="358.1699" x2="358.1699" y1="447.7265" y2="530.0335"/>
    <line x1="396.5013" x2="396.5013" y1="552.1641" y2="469.8571"/>
    <line x1="398.897" x2="398.897" y1="471.2403" y2="553.5472"/>
    <line x1="401.2927" x2="401.2927" y1="554.9304" y2="472.6234"/>
    <line x1="403.6884" x2="403.6884" y1="474.0066" y2="556.3136"/>
    <line x1="442.0198" x2="442.0198" y1="534.952" y2="496.1372"/>
    <line x1="444.4155" x2="444.4155" y1="497.5204" y2="533.5689"/>
    <line x1="453.8992" x2="453.8992" y1="528.0935" y2="497.5776"/>
    <line x1="477.3604" x2="477.3604" y1="501.7504" y2="514.5481"/>
    <line x1="482.0527" x2="482.0527" y1="511.839" y2="499.0413"/>
    <line x1="482.7641" x2="482.7641" y1="498.6305" y2="469.5541"/>
    <line x1="487.4355" x2="487.4355" y1="466.8571" y2="495.9335"/>
    <line x1="486.7449" x2="486.7449" y1="496.3322" y2="509.13"/>
    <line x1="491.4372" x2="491.4372" y1="506.4209" y2="493.6231"/>
    <line x1="492.1068" x2="492.1068" y1="493.2365" y2="464.1601"/>
    <line x1="496.7782" x2="496.7782" y1="461.4631" y2="490.5395"/>
    <line x1="496.1294" x2="496.1294" y1="490.9141" y2="503.7118"/>
    <line x1="500.8217" x2="500.8217" y1="505.334" y2="488.205"/>
    <line x1="501.4496" x2="501.4496" y1="487.8425" y2="459.3267"/>
    <line x1="502.5552" x2="502.5552" y1="459.965" y2="402.3588"/>
    <line x1="504.9907" x2="504.9907" y1="403.7649" y2="461.3712"/>
    <line x1="506.1209" x2="506.1209" y1="462.0237" y2="485.1455"/>
    <line x1="505.5139" x2="505.5139" y1="485.4959" y2="508.0431"/>
    <line x1="510.2062" x2="510.2062" y1="510.7522" y2="482.7869"/>
    <line x1="510.7923" x2="510.7923" y1="482.4485" y2="464.7207"/>
    <line x1="509.8617" x2="509.8617" y1="464.1834" y2="406.5772"/>
    <line x1="512.2972" x2="512.2972" y1="407.9833" y2="465.5896"/>
    <line x1="514.7327" x2="514.7327" y1="466.9957" y2="409.3894"/>
    <line x1="513.2455" x2="513.2455" y1="403.7653" y2="340.0703"/>
    <line x1="510.8698" x2="510.8698" y1="338.6987" y2="402.3937"/>
    <line x1="508.4942" x2="508.4942" y1="401.0221" y2="337.3271"/>
    <line x1="506.1185" x2="506.1185" y1="335.9555" y2="399.6505"/>
    <line x1="503.7428" x2="503.7428" y1="398.2789" y2="334.584"/>
    <line x1="501.3672" x2="501.3672" y1="333.2124" y2="396.9073"/>
    <line x1="498.9915" x2="498.9915" y1="395.5358" y2="331.8408"/>
    <line x1="496.6158" x2="496.6158" y1="330.4692" y2="394.1642"/>
    <line x1="507.4262" x2="507.4262" y1="405.171" y2="462.7773"/>
    <line x1="533.9247" x2="533.9247" y1="478.0762" y2="486.9318"/>
    <line x1="553.5164" x2="607.0586" y1="499.1778" y2="530.0904"/>
    <line x1="604.6248" x2="604.6248" y1="528.6852" y2="552.1842"/>
    <polyline points="607.0586,553.5893 674.1411,514.8592 674.1411,491.3603 620.5989,460.4477 553.5164,499.1778 553.5164,522.6767 607.0586,553.5893 607.0586,530.0904 674.1411,491.3603"/>
    <polyline points="673.1866,490.8092 704.1317,472.943 704.1317,402.3726 694.9327,397.0616"/>
    <line x1="693.6169" x2="693.6169" y1="397.8213" y2="360.9366"/>
    <line x1="692.067" x2="692.067" y1="361.8314" y2="265.4869"/>
    <line x1="696.9737" x2="696.9737" y1="262.6541" y2="358.9985"/>
    <polyline points="698.3697,358.1925 698.3697,395.0772 617.5721,441.7258 617.5721,430.1195"/>
    <line x1="616.8985" x2="616.8985" y1="430.5083" y2="372.9021"/>
    <line x1="621.7622" x2="621.7622" y1="370.0941" y2="427.7003"/>
    <line x1="622.3249" x2="622.3249" y1="427.3754" y2="438.9818"/>
    <line x1="648.5242" x2="648.5242" y1="428.7854" y2="476.5703"/>
    <line x1="650.8837" x2="650.8837" y1="477.9326" y2="427.4231"/>
    <line x1="650.521" x2="650.521" y1="427.6325" y2="422.7027"/>
    <line x1="650.8417" x2="650.8417" y1="422.5176" y2="377.69"/>
    <line x1="651.0827" x2="651.0827" y1="377.8291" y2="281.4846"/>
    <line x1="653.2953" x2="653.2953" y1="282.7621" y2="379.1066"/>
    <polyline points="657.7204,381.6614 755.8536,325.0042 755.8536,228.6597 747.0033,223.55 648.8701,280.2072 648.8701,376.5517 657.7204,381.6614 657.7204,285.3169 755.8536,228.6597"/>
    <line x1="750.9469" x2="750.9469" y1="231.4926" y2="327.8371"/>
    <line x1="746.0402" x2="746.0402" y1="330.6699" y2="234.3254"/>
    <line x1="741.1336" x2="741.1336" y1="237.1583" y2="333.5028"/>
    <line x1="736.2269" x2="736.2269" y1="336.3357" y2="239.9912"/>
    <line x1="731.3203" x2="731.3203" y1="242.824" y2="339.1685"/>
    <line x1="726.4136" x2="726.4136" y1="342.0014" y2="245.6569"/>
    <line x1="721.5069" x2="721.5069" y1="248.4897" y2="344.8342"/>
    <line x1="716.6003" x2="716.6003" y1="347.6671" y2="251.3226"/>
    <line x1="711.6936" x2="711.6936" y1="254.1555" y2="350.5"/>
    <line x1="706.787" x2="706.787" y1="353.3328" y2="256.9883"/>
    <line x1="701.8803" x2="701.8803" y1="259.8212" y2="356.1657"/>
    <line x1="688.8641" x2="688.8641" y1="363.6806" y2="400.5653"/>
    <line x1="684.1113" x2="684.1113" y1="403.3093" y2="366.4246"/>
    <line x1="682.2537" x2="682.2537" y1="367.4971" y2="271.1526"/>
    <line x1="687.1603" x2="687.1603" y1="268.3198" y2="364.6643"/>
    <line x1="665.1001" x2="665.0409" y1="377.4008" y2="486.1063"/>
    <polyline points="672.1195,490.1931 672.1195,420.8549 704.1317,402.3726"/>
    <line x1="699.5585" x2="699.5585" y1="405.013" y2="475.5833"/>
    <line x1="694.9854" x2="694.9854" y1="478.2237" y2="407.6533"/>
    <line x1="690.4122" x2="690.4122" y1="410.2936" y2="480.864"/>
    <line x1="685.839" x2="685.839" y1="483.5043" y2="412.9339"/>
    <line x1="681.2659" x2="681.2659" y1="415.5742" y2="486.1446"/>
    <line x1="676.6927" x2="676.6927" y1="488.7849" y2="418.2146"/>
    <line x1="653.2432" x2="653.2432" y1="426.0608" y2="479.2949"/>
    <line x1="664.5579" x2="664.5579" y1="496.8931" y2="520.3921"/>
    <line x1="669.3495" x2="669.3495" y1="517.6257" y2="494.1267"/>
    <line x1="659.7663" x2="659.7663" y1="499.6596" y2="523.1586"/>
    <line x1="654.9746" x2="654.9746" y1="525.925" y2="502.426"/>
    <line x1="650.183" x2="650.183" y1="505.1924" y2="528.6914"/>
    <line x1="645.3914" x2="645.3914" y1="531.4579" y2="507.9589"/>
    <line x1="640.5998" x2="640.5998" y1="510.7253" y2="534.2243"/>
    <line x1="635.8082" x2="635.8082" y1="536.9907" y2="513.4917"/>
    <line x1="631.0166" x2="631.0166" y1="516.2582" y2="539.7572"/>
    <line x1="626.225" x2="626.225" y1="542.5236" y2="519.0246"/>
    <line x1="621.4334" x2="621.4334" y1="521.791" y2="545.29"/>
    <line x1="616.6418" x2="616.6418" y1="548.0565" y2="524.5575"/>
    <line x1="611.8502" x2="611.8502" y1="527.3239" y2="550.8229"/>
    <line x1="602.1911" x2="602.1911" y1="550.7791" y2="527.2801"/>
    <line x1="599.7574" x2="599.7574" y1="525.875" y2="549.374"/>
    <line x1="597.3236" x2="597.3236" y1="547.9689" y2="524.4699"/>
    <line x1="594.8899" x2="594.8899" y1="523.0648" y2="546.5638"/>
    <line x1="592.4562" x2="592.4562" y1="545.1586" y2="521.6596"/>
    <line x1="590.0224" x2="590.0224" y1="520.2545" y2="543.7535"/>
    <line x1="587.5887" x2="587.5887" y1="542.3484" y2="518.8494"/>
    <line x1="585.155" x2="585.155" y1="517.4443" y2="540.9433"/>
    <line x1="582.7212" x2="582.7212" y1="539.5382" y2="516.0392"/>
    <line x1="580.2875" x2="580.2875" y1="514.6341" y2="538.133"/>
    <line x1="577.8537" x2="577.8537" y1="536.7279" y2="513.2289"/>
    <line x1="575.42" x2="575.42" y1="511.8238" y2="535.3228"/>
    <line x1="572.9863" x2="572.9863" y1="533.9177" y2="510.4187"/>
    <line x1="570.5525" x2="570.5525" y1="509.0136" y2="532.5126"/>
    <line x1="568.1188" x2="568.1188" y1="531.1075" y2="507.6085"/>
    <line x1="565.6851" x2="565.6851" y1="506.2033" y2="529.7023"/>
    <line x1="563.2513" x2="563.2513" y1="528.2972" y2="504.7982"/>
    <line x1="560.8176" x2="560.8176" y1="503.3931" y2="526.8921"/>
    <line x1="558.3839" x2="558.3839" y1="525.487" y2="501.988"/>
    <line x1="555.9501" x2="555.9501" y1="500.5829" y2="524.0819"/>
    <line x1="478.0928" x2="478.0928" y1="501.3276" y2="472.2511"/>
    <line x1="515.6212" x2="494.2402" y1="341.4419" y2="329.0976"/>
    <line x1="495.4517" x2="495.4517" y1="328.3981" y2="310.3271"/>
    <line x1="497.9048" x2="497.9048" y1="311.7434" y2="326.9818"/>
    <line x1="500.3579" x2="500.3579" y1="325.5655" y2="313.1597"/>
    <line x1="502.811" x2="502.811" y1="314.576" y2="324.1492"/>
    <line x1="505.2641" x2="505.2641" y1="322.7329" y2="315.9923"/>
    <line x1="507.7172" x2="507.7172" y1="317.4086" y2="321.3166"/>
    <line x1="510.1704" x2="510.1704" y1="319.9003" y2="318.8249"/>
    <line x1="511.1017" x2="492.9986" y1="319.3626" y2="308.9107"/>
    <line x1="512.5681" x2="512.5681" y1="301.0673" y2="204.9909"/>
    <line x1="514.9855" x2="514.9855" y1="206.3866" y2="302.463"/>
    <line x1="517.4029" x2="517.4029" y1="303.8587" y2="207.7823"/>
    <line x1="519.8204" x2="519.8204" y1="209.178" y2="305.2544"/>
    <line x1="522.2378" x2="522.2378" y1="306.6501" y2="210.5737"/>
    <line x1="524.6552" x2="524.6552" y1="211.9694" y2="308.0458"/>
    <line x1="527.0727" x2="527.0727" y1="309.4415" y2="213.3651"/>
    <line x1="529.4901" x2="529.4901" y1="214.7609" y2="308.746"/>
    <polyline points="527.679,309.7916 493.2286,289.9016 493.2286,193.8252 570.4918,149.2173 611.5882,172.9443 611.5882,269.0207 591.5223,280.6058"/>
    <line x1="592.2724" x2="592.2724" y1="280.1727" y2="184.0963"/>
    <line x1="597.1013" x2="597.1013" y1="181.3083" y2="277.3847"/>
    <line x1="601.9303" x2="601.9303" y1="274.5967" y2="178.5203"/>
    <line x1="606.7592" x2="606.7592" y1="175.7323" y2="271.8087"/>
    <polyline points="592.8555,281.3755 604.5743,274.6096 626.6965,287.3818"/>
    <line x1="648.8701" x2="657.7204" y1="280.2072" y2="285.3169"/>
    <line x1="632.0186" x2="632.0186" y1="236.6177" y2="183.08"/>
    <line x1="627.2094" x2="627.2094" y1="185.8566" y2="239.3943"/>
    <line x1="622.4002" x2="622.4002" y1="242.1709" y2="188.6332"/>
    <line x1="617.7437" x2="636.8278" y1="191.3217" y2="180.3034"/>
    <polyline points="617.7437,169.2852 636.8278,180.3034 636.8278,233.8411 611.5882,248.4132"/>
    <line x1="612.7818" x2="612.7818" y1="247.7241" y2="241.2877"/>
    <line x1="612.9481" x2="612.9481" y1="241.1916" y2="170.6116"/>
    <line x1="611.5882" x2="534.325" y1="172.9443" y2="217.5523"/>
    <line x1="531.9076" x2="531.9076" y1="216.1566" y2="307.3503"/>
    <polyline points="534.325,305.9546 534.325,217.5523 493.2286,193.8252"/>
    <polyline points="493.2286,216.3708 481.597,209.6553 481.597,139.0753 524.7568,114.1569 617.7437,167.8429 617.7437,238.4229 611.5882,241.9768"/>
    <line x1="617.591" x2="617.591" y1="244.9475" y2="238.5111"/>
    <line x1="587.4434" x2="587.4434" y1="278.2508" y2="186.8843"/>
    <line x1="582.6145" x2="582.6145" y1="189.6723" y2="278.0746"/>
    <line x1="577.7855" x2="577.7855" y1="280.8626" y2="192.4603"/>
    <line x1="572.9566" x2="572.9566" y1="195.2483" y2="283.6506"/>
    <line x1="568.1276" x2="568.1276" y1="286.4386" y2="198.0363"/>
    <line x1="563.2987" x2="563.2987" y1="200.8243" y2="289.2266"/>
    <line x1="558.4697" x2="558.4697" y1="292.0146" y2="203.6123"/>
    <line x1="553.6408" x2="553.6408" y1="206.4003" y2="294.8026"/>
    <line x1="548.8118" x2="548.8118" y1="297.5906" y2="209.1883"/>
    <line x1="543.9829" x2="543.9829" y1="211.9763" y2="300.3786"/>
    <line x1="539.1539" x2="539.1539" y1="303.1666" y2="214.7643"/>
    <line x1="493.2286" x2="479.9728" y1="258.1257" y2="250.4724"/>
    <line x1="482.035" x2="482.035" y1="251.6631" y2="263.4981"/>
    <line x1="479.9728" x2="493.2286" y1="262.3074" y2="269.9607"/>
    <line x1="491.7781" x2="491.7781" y1="269.1233" y2="257.2883"/>
    <line x1="489.3424" x2="489.3424" y1="255.882" y2="267.717"/>
    <line x1="486.9066" x2="486.9066" y1="266.3107" y2="254.4757"/>
    <line x1="484.4708" x2="484.4708" y1="253.0694" y2="264.9044"/>
    <line x1="456.6369" x2="456.6369" y1="237.8131" y2="323.3509"/>
    <line x1="451.9697" x2="451.9697" y1="326.0455" y2="240.5077"/>
    <line x1="447.3026" x2="447.3026" y1="243.2023" y2="328.7401"/>
    <line x1="442.6354" x2="442.6354" y1="331.4347" y2="245.8969"/>
    <line x1="437.9682" x2="437.9682" y1="248.5915" y2="334.1293"/>
    <line x1="433.3011" x2="433.3011" y1="336.8239" y2="251.2861"/>
    <line x1="428.6339" x2="428.6339" y1="253.9807" y2="339.5185"/>
    <line x1="423.9667" x2="423.9667" y1="342.2131" y2="256.6753"/>
    <line x1="419.2995" x2="419.2995" y1="259.3699" y2="344.9077"/>
    <polyline points="421.9629,343.37 421.9629,374.206 363.3611,408.0397 363.3611,374.1509"/>
    <line x1="358.5655" x2="358.5655" y1="376.9196" y2="405.271"/>
    <line x1="356.1677" x2="356.1677" y1="403.8866" y2="378.304"/>
    <line x1="357.4638" x2="357.4638" y1="377.5557" y2="342.5253"/>
    <line x1="352.6842" x2="352.6842" y1="345.2848" y2="380.3152"/>
    <line x1="353.7699" x2="353.7699" y1="379.6884" y2="402.5022"/>
    <line x1="351.3721" x2="351.3721" y1="401.1179" y2="381.0727"/>
    <line x1="348.9743" x2="348.9743" y1="382.4571" y2="399.7335"/>
    <line x1="346.5765" x2="346.5765" y1="398.3491" y2="383.8415"/>
    <line x1="347.9046" x2="347.9046" y1="383.0747" y2="348.0443"/>
    <line x1="343.125" x2="343.125" y1="350.8038" y2="385.8342"/>
    <line x1="344.1787" x2="344.1787" y1="385.2259" y2="396.9647"/>
    <line x1="341.7808" x2="341.7808" y1="395.5804" y2="386.6102"/>
    <line x1="339.383" x2="339.383" y1="387.9946" y2="394.196"/>
    <line x1="336.9852" x2="336.9852" y1="392.8116" y2="389.379"/>
    <line x1="338.3454" x2="338.3454" y1="388.5937" y2="353.5633"/>
    <line x1="334.5874" x2="334.5874" y1="390.7634" y2="391.4272"/>
    <line x1="381.3617" x2="381.3617" y1="363.7582" y2="328.7278"/>
    <line x1="381.8639" x2="381.8639" y1="317.9797" y2="275.4807"/>
    <line x1="379.4811" x2="379.4811" y1="274.105" y2="316.604"/>
    <line x1="377.0984" x2="377.0984" y1="315.2283" y2="272.7294"/>
    <line x1="374.7157" x2="374.7157" y1="271.3537" y2="313.8527"/>
    <line x1="372.3329" x2="372.3329" y1="312.477" y2="269.978"/>
    <line x1="369.9502" x2="369.9502" y1="268.6024" y2="311.1013"/>
    <line x1="367.5675" x2="367.5675" y1="309.7256" y2="267.2267"/>
    <line x1="365.1847" x2="365.1847" y1="265.851" y2="308.35"/>
    <line x1="362.802" x2="362.802" y1="306.9743" y2="264.4753"/>
    <line x1="360.4193" x2="360.4193" y1="263.0997" y2="305.5986"/>
    <line x1="358.0365" x2="358.0365" y1="304.223" y2="261.724"/>
    <line x1="355.6538" x2="355.6538" y1="260.3483" y2="302.8473"/>
    <line x1="353.2711" x2="353.2711" y1="301.4716" y2="258.9727"/>
    <line x1="350.8883" x2="350.8883" y1="257.597" y2="300.0959"/>
    <line x1="333.8145" x2="333.8145" y1="294.6172" y2="222.8813"/>
    <line x1="324.7334" x2="324.7334" y1="222.7939" y2="299.8601"/>
    <line x1="322.4254" x2="322.4254" y1="301.1927" y2="221.4614"/>
    <line x1="320.1173" x2="320.1173" y1="220.1288" y2="302.5253"/>
    <line x1="317.8092" x2="317.8092" y1="303.8579" y2="218.7962"/>
    <line x1="315.5011" x2="315.5011" y1="217.4636" y2="305.1904"/>
    <line x1="313.193" x2="313.193" y1="306.523" y2="216.131"/>
    <line x1="310.8849" x2="310.8849" y1="214.7985" y2="307.004"/>
    <line x1="310.6094" x2="310.6094" y1="306.845" y2="308.0147"/>
    <line x1="311.6223" x2="305.5455" y1="307.4298" y2="303.9214"/>
    <line x1="305.8137" x2="305.8137" y1="304.0762" y2="310.7834"/>
    <polyline points="305.5455,310.9383 305.5455,246.9361 225.4696,200.7042 187.8876,222.4022 187.8876,290.082 264.7787,334.475"/>
    <line x1="265.537" x2="265.537" y1="334.0372" y2="267.2331"/>
    <line x1="267.9636" x2="305.5455" y1="268.6341" y2="246.9361"/>
    <line x1="303.9606" x2="303.9606" y1="246.021" y2="210.8007"/>
    <line x1="301.6525" x2="301.6525" y1="209.4681" y2="244.6884"/>
    <line x1="299.3444" x2="299.3444" y1="243.3558" y2="208.1356"/>
    <line x1="297.0363" x2="297.0363" y1="206.803" y2="242.0233"/>
    <polyline points="292.4201,235.1521 260.1034,216.4941 256.4609,218.5971"/>
    <line x1="238.845" x2="238.845" y1="251.8225" y2="319.5022"/>
    <line x1="239.9555" x2="239.9555" y1="320.1434" y2="333.2525"/>
    <polyline points="242.7088,334.8421 244.5993,333.7506 244.5993,322.8245"/>
    <line x1="243.6981" x2="243.6981" y1="322.3042" y2="254.6244"/>
    <line x1="241.2716" x2="241.2716" y1="253.2234" y2="320.9032"/>
    <line x1="236.4185" x2="236.4185" y1="318.1013" y2="250.4215"/>
    <line x1="233.9919" x2="233.9919" y1="249.0205" y2="316.7003"/>
    <line x1="235.3117" x2="235.3117" y1="317.4623" y2="330.5714"/>
    <line x1="230.6679" x2="230.6679" y1="327.8903" y2="314.7812"/>
    <line x1="231.5654" x2="231.5654" y1="315.2993" y2="247.6196"/>
    <line x1="229.1389" x2="229.1389" y1="246.2186" y2="313.8984"/>
    <line x1="226.7123" x2="226.7123" y1="312.4974" y2="244.8177"/>
    <line x1="224.2858" x2="224.2858" y1="243.4167" y2="311.0964"/>
    <line x1="226.0241" x2="226.0241" y1="312.1001" y2="325.2092"/>
    <line x1="221.3803" x2="221.3803" y1="322.5281" y2="309.419"/>
    <line x1="221.8592" x2="221.8592" y1="309.6955" y2="242.0157"/>
    <line x1="219.4327" x2="219.4327" y1="240.6148" y2="308.2945"/>
    <line x1="217.0061" x2="217.0061" y1="306.8936" y2="239.2138"/>
    <line x1="214.5796" x2="214.5796" y1="237.8128" y2="305.4926"/>
    <line x1="216.7365" x2="216.7365" y1="306.7379" y2="319.847"/>
    <line x1="212.0928" x2="212.1531" y1="320.3886" y2="236.4119"/>
    <line x1="209.7265" x2="209.7265" y1="235.0109" y2="302.6907"/>
    <line x1="204.8734" x2="204.8734" y1="299.8887" y2="232.209"/>
    <line x1="202.4469" x2="202.4469" y1="230.808" y2="298.4878"/>
    <line x1="202.8052" x2="202.8052" y1="298.6946" y2="357.8805"/>
    <line x1="207.449" x2="207.449" y1="355.1994" y2="344.5635"/>
    <line x1="208.1213" x2="208.1213" y1="344.9516" y2="328.21"/>
    <line x1="205.7274" x2="205.7274" y1="326.8279" y2="343.5695"/>
    <line x1="210.5151" x2="210.5151" y1="346.3337" y2="329.5921"/>
    <line x1="212.909" x2="212.909" y1="330.9742" y2="347.7158"/>
    <line x1="212.0928" x2="212.0928" y1="347.2445" y2="352.5183"/>
    <line x1="215.3029" x2="215.3029" y1="349.0979" y2="332.3563"/>
    <line x1="217.6968" x2="217.6968" y1="333.7384" y2="350.48"/>
    <polyline points="216.6599,349.8814 184.23,368.6049 184.23,306.7101 99.7788,257.9522"/>
    <line x1="102.1917" x2="102.1917" y1="259.3453" y2="321.24"/>
    <line x1="101.2345" x2="101.2345" y1="323.503" y2="360.0968"/>
    <line x1="98.7965" x2="98.7965" y1="358.6892" y2="322.0954"/>
    <line x1="96.3586" x2="96.3586" y1="320.6879" y2="357.2816"/>
    <line x1="93.9206" x2="93.9206" y1="355.8741" y2="319.2803"/>
    <line x1="91.4826" x2="91.4826" y1="317.8727" y2="354.4665"/>
    <line x1="89.0447" x2="89.0447" y1="353.0589" y2="316.4652"/>
    <line x1="86.6067" x2="86.6067" y1="315.0576" y2="351.6514"/>
    <line x1="84.1687" x2="84.1687" y1="350.2438" y2="313.65"/>
    <line x1="81.7307" x2="81.7307" y1="312.2425" y2="348.8362"/>
    <line x1="79.2928" x2="79.2928" y1="347.4287" y2="310.8349"/>
    <line x1="76.8548" x2="76.8548" y1="309.4273" y2="346.0211"/>
    <line x1="74.4168" x2="74.4168" y1="344.6136" y2="308.0198"/>
    <line x1="71.9788" x2="71.9788" y1="306.6122" y2="343.206"/>
    <line x1="69.5409" x2="69.5409" y1="341.7984" y2="305.2046"/>
    <line x1="67.1029" x2="67.1029" y1="303.7971" y2="340.3909"/>
    <line x1="64.6649" x2="64.6649" y1="338.9833" y2="302.3895"/>
    <line x1="62.227" x2="62.227" y1="300.982" y2="337.5757"/>
    <line x1="59.789" x2="59.789" y1="336.1682" y2="299.5744"/>
    <line x1="57.351" x2="57.351" y1="298.1668" y2="334.7606"/>
    <line x1="54.913" x2="54.913" y1="333.353" y2="296.7593"/>
    <line x1="52.4751" x2="52.4751" y1="295.3517" y2="331.9455"/>
    <line x1="50.0371" x2="50.0371" y1="330.5379" y2="293.9441"/>
    <line x1="47.5991" x2="47.5991" y1="292.5366" y2="329.1303"/>
    <line x1="45.1611" x2="45.1611" y1="327.7228" y2="291.129"/>
    <line x1="42.7232" x2="42.7232" y1="289.7214" y2="326.3152"/>
    <line x1="40.2852" x2="40.2852" y1="324.9077" y2="288.3139"/>
    <polyline points="37.8472,286.9063 110.9864,329.1332 110.9864,365.727 145.1159,346.0223"/>
    <line x1="145.6238" x2="145.6238" y1="346.3155" y2="284.4208"/>
    <line x1="143.2109" x2="143.2109" y1="283.0277" y2="344.9224"/>
    <line x1="140.798" x2="140.798" y1="343.5294" y2="281.6346"/>
    <line x1="138.3851" x2="138.3851" y1="280.2415" y2="342.1363"/>
    <line x1="140.2942" x2="140.2942" y1="343.2385" y2="348.8062"/>
    <line x1="135.4095" x2="135.4095" y1="351.6263" y2="340.4183"/>
    <line x1="135.9722" x2="135.9722" y1="340.7432" y2="278.8484"/>
    <line x1="133.5593" x2="133.5593" y1="277.4554" y2="339.3501"/>
    <line x1="131.1464" x2="131.1464" y1="337.957" y2="276.0623"/>
    <line x1="128.7335" x2="128.7335" y1="274.6692" y2="336.5639"/>
    <line x1="130.5249" x2="130.5249" y1="337.5982" y2="354.4465"/>
    <line x1="125.6403" x2="125.6403" y1="357.2666" y2="334.7781"/>
    <line x1="126.3206" x2="126.3206" y1="335.1709" y2="273.2761"/>
    <line x1="123.9077" x2="123.9077" y1="271.883" y2="333.7778"/>
    <line x1="121.4949" x2="121.4949" y1="332.3847" y2="270.4899"/>
    <line x1="119.082" x2="119.082" y1="269.0969" y2="330.9916"/>
    <line x1="120.7557" x2="120.7557" y1="331.9579" y2="360.0867"/>
    <line x1="115.871" x2="115.871" y1="362.9069" y2="329.1378"/>
    <line x1="116.6691" x2="116.6691" y1="329.5985" y2="267.7038"/>
    <line x1="114.2562" x2="114.2562" y1="266.3107" y2="328.2055"/>
    <line x1="113.4248" x2="110.9864" y1="327.7254" y2="329.1332"/>
    <line x1="111.8433" x2="111.8433" y1="326.8124" y2="264.9176"/>
    <line x1="109.4304" x2="109.4304" y1="263.5245" y2="325.4193"/>
    <line x1="108.5484" x2="108.5484" y1="327.7257" y2="364.3194"/>
    <polyline points="110.9864,365.727 37.8472,323.5001 37.8472,286.9063 135.5397,230.5035 141.4305,233.9046"/>
    <line x1="107.0175" x2="107.0175" y1="262.1314" y2="324.0262"/>
    <line x1="106.1105" x2="106.1105" y1="326.3181" y2="362.9119"/>
    <line x1="103.6725" x2="103.6725" y1="361.5043" y2="324.9105"/>
    <line x1="104.6046" x2="104.6046" y1="322.6331" y2="260.7384"/>
    <line x1="148.0366" x2="148.0366" y1="285.8139" y2="347.7086"/>
    <line x1="150.4495" x2="150.4495" y1="349.1017" y2="287.2069"/>
    <line x1="152.8624" x2="152.8624" y1="288.6" y2="350.4948"/>
    <line x1="155.2753" x2="155.2753" y1="351.8879" y2="289.9931"/>
    <line x1="157.6882" x2="157.6882" y1="291.3862" y2="353.2809"/>
    <line x1="160.1011" x2="160.1011" y1="354.674" y2="292.7793"/>
    <line x1="162.514" x2="162.514" y1="294.1724" y2="356.0671"/>
    <line x1="164.9269" x2="164.9269" y1="357.4602" y2="295.5654"/>
    <line x1="167.3398" x2="167.3398" y1="296.9585" y2="358.8533"/>
    <line x1="169.7527" x2="169.7527" y1="360.2464" y2="298.3516"/>
    <line x1="172.1655" x2="172.1655" y1="299.7447" y2="361.6394"/>
    <line x1="174.5784" x2="174.5784" y1="363.0325" y2="301.1378"/>
    <line x1="176.9913" x2="176.9913" y1="302.5308" y2="364.4256"/>
    <line x1="179.4042" x2="179.4042" y1="365.8187" y2="303.9239"/>
    <line x1="181.8171" x2="181.8171" y1="305.317" y2="367.2118"/>
    <polyline points="184.23,368.6049 99.7788,319.847 99.7788,257.9522 160.1481,223.098 187.8876,239.1134"/>
    <line x1="195.1673" x2="195.1673" y1="226.6051" y2="294.2849"/>
    <line x1="192.7407" x2="192.7407" y1="292.8839" y2="225.2041"/>
    <line x1="190.3142" x2="190.3142" y1="223.8032" y2="291.4829"/>
    <line x1="197.5938" x2="197.5938" y1="295.6858" y2="228.0061"/>
    <line x1="200.0203" x2="200.0203" y1="229.407" y2="297.0868"/>
    <line x1="200.4592" x2="184.23" y1="297.3402" y2="306.7101"/>
    <line x1="188.8738" x2="188.8738" y1="304.029" y2="365.9238"/>
    <line x1="193.5176" x2="193.5176" y1="363.2427" y2="301.3479"/>
    <line x1="198.1614" x2="198.1614" y1="298.6668" y2="360.5616"/>
    <line x1="220.0906" x2="220.0906" y1="351.8621" y2="335.1205"/>
    <line x1="222.4845" x2="222.4845" y1="336.5026" y2="353.2442"/>
    <line x1="224.8784" x2="224.8784" y1="354.6263" y2="337.8847"/>
    <line x1="227.2723" x2="227.2723" y1="339.2668" y2="356.0085"/>
    <line x1="229.6662" x2="229.6662" y1="357.3906" y2="340.6489"/>
    <line x1="232.06" x2="232.06" y1="342.031" y2="358.7727"/>
    <line x1="234.4539" x2="234.4539" y1="360.1548" y2="343.4131"/>
    <line x1="236.8478" x2="236.8478" y1="344.7952" y2="361.5369"/>
    <line x1="239.2417" x2="239.2417" y1="362.919" y2="346.1774"/>
    <line x1="241.6356" x2="241.6356" y1="347.5595" y2="364.3011"/>
    <line x1="244.0294" x2="244.0294" y1="365.6832" y2="348.9416"/>
    <line x1="246.4233" x2="246.4233" y1="350.3237" y2="367.0653"/>
    <line x1="248.8172" x2="248.8172" y1="368.4474" y2="351.7058"/>
    <line x1="251.2111" x2="251.2111" y1="353.0879" y2="369.8295"/>
    <polyline points="253.605,371.2116 203.3335,342.1874 203.3335,325.4458 214.8837,318.7773 256.3535,342.7199"/>
    <polyline points="256.3535,352.8831 253.605,354.47 253.605,371.2116 256.3535,369.6247"/>
    <line x1="253.605" x2="203.3335" y1="354.47" y2="325.4458"/>
    <line x1="207.449" x2="207.3" y1="323.0697" y2="233.6099"/>
    <polyline points="187.8876,222.4022 267.9636,268.6341 267.9636,332.6362"/>
    <line x1="263.1105" x2="263.1105" y1="333.5119" y2="265.8321"/>
    <line x1="260.6839" x2="260.6839" y1="264.4312" y2="332.1109"/>
    <line x1="258.2574" x2="258.2574" y1="330.71" y2="263.0302"/>
    <line x1="255.8308" x2="255.8308" y1="261.6292" y2="329.309"/>
    <line x1="253.4043" x2="253.4043" y1="327.908" y2="260.2283"/>
    <line x1="250.9777" x2="250.9777" y1="258.8273" y2="326.5071"/>
    <line x1="248.5512" x2="248.5512" y1="325.1061" y2="257.4263"/>
    <line x1="246.1247" x2="246.1247" y1="256.0254" y2="323.7051"/>
    <line x1="272.6613" x2="272.6613" y1="329.924" y2="265.9218"/>
    <line x1="277.359" x2="277.359" y1="263.2096" y2="327.2118"/>
    <line x1="282.0568" x2="282.0568" y1="324.4995" y2="260.4973"/>
    <line x1="286.7545" x2="286.7545" y1="257.7851" y2="321.7873"/>
    <line x1="291.4523" x2="291.4523" y1="319.075" y2="255.0728"/>
    <line x1="296.15" x2="296.15" y1="252.3606" y2="316.3628"/>
    <line x1="300.8478" x2="300.8478" y1="313.6505" y2="249.6483"/>
    <line x1="308.5768" x2="308.5768" y1="213.4659" y2="305.6715"/>
    <line x1="308.2115" x2="308.2115" y1="305.4606" y2="309.3991"/>
    <line x1="306.2687" x2="306.2687" y1="304.3389" y2="212.1333"/>
    <line x1="384.2466" x2="384.2466" y1="362.0926" y2="362.3941"/>
    <polyline points="190.9951,515.6135 159.218,533.9601 159.218,607.1633 98.8227,572.2941 98.8227,499.0909 130.5999,480.7443 190.9951,515.6135 190.9951,588.8168 159.218,607.1633"/>
    <line x1="156.8022" x2="156.8022" y1="605.7686" y2="532.5653"/>
    <line x1="159.218" x2="98.8227" y1="533.9601" y2="499.0909"/>
    <line x1="101.2385" x2="101.2385" y1="500.4856" y2="573.6889"/>
    <line x1="103.6544" x2="103.6544" y1="575.0837" y2="501.8804"/>
    <line x1="106.0702" x2="106.0702" y1="503.2752" y2="576.4784"/>
    <line x1="108.486" x2="108.486" y1="577.8732" y2="504.67"/>
    <line x1="110.9018" x2="110.9018" y1="506.0647" y2="579.268"/>
    <line x1="113.3176" x2="113.3176" y1="580.6627" y2="507.4595"/>
    <line x1="115.7334" x2="115.7334" y1="508.8543" y2="582.0575"/>
    <line x1="118.1492" x2="118.1492" y1="583.4523" y2="510.249"/>
    <line x1="120.565" x2="120.565" y1="511.6438" y2="584.847"/>
    <line x1="122.9808" x2="122.9808" y1="586.2418" y2="513.0386"/>
    <line x1="125.3966" x2="125.3966" y1="514.4333" y2="587.6366"/>
    <line x1="127.8124" x2="127.8124" y1="589.0313" y2="515.8281"/>
    <line x1="130.2283" x2="130.2283" y1="517.2229" y2="590.4261"/>
    <line x1="132.6441" x2="132.6441" y1="591.8209" y2="518.6176"/>
    <line x1="135.0599" x2="135.0599" y1="520.0124" y2="593.2156"/>
    <line x1="137.4757" x2="137.4757" y1="594.6104" y2="521.4072"/>
    <line x1="139.8915" x2="139.8915" y1="522.8019" y2="596.0052"/>
    <line x1="142.3073" x2="142.3073" y1="597.3999" y2="524.1967"/>
    <line x1="144.7231" x2="144.7231" y1="525.5915" y2="598.7947"/>
    <line x1="147.1389" x2="147.1389" y1="600.1895" y2="526.9862"/>
    <line x1="149.5547" x2="149.5547" y1="528.381" y2="601.5843"/>
    <line x1="151.9705" x2="151.9705" y1="602.979" y2="529.7758"/>
    <line x1="154.3863" x2="154.3863" y1="531.1705" y2="604.3738"/>
    <line x1="163.7576" x2="163.7576" y1="604.5424" y2="531.3391"/>
    <line x1="168.2972" x2="168.2972" y1="528.7182" y2="601.9215"/>
    <line x1="172.8368" x2="172.8368" y1="599.3005" y2="526.0973"/>
    <line x1="177.3763" x2="177.3763" y1="523.4763" y2="596.6796"/>
    <line x1="181.9159" x2="181.9159" y1="594.0586" y2="520.8554"/>
    <line x1="186.4555" x2="186.4555" y1="518.2345" y2="591.4377"/>
    <polyline points="199.9296,722.2463 222.9792,735.554 222.9792,797.306 199.9296,783.9983 199.9296,722.2463 211.8493,715.3645 234.8989,728.6722 234.8989,790.4241 222.9792,797.306"/>
    <line x1="220.6742" x2="220.6742" y1="795.9752" y2="734.2232"/>
    <line x1="222.9792" x2="234.8989" y1="735.554" y2="728.6722"/>
    <line x1="230.9257" x2="230.9257" y1="730.9661" y2="792.7181"/>
    <line x1="226.9524" x2="226.9524" y1="795.012" y2="733.2601"/>
    <line x1="218.3693" x2="218.3693" y1="732.8925" y2="794.6444"/>
    <line x1="216.0643" x2="216.0643" y1="793.3137" y2="731.5617"/>
    <line x1="213.7594" x2="213.7594" y1="730.2309" y2="791.9829"/>
    <line x1="211.4544" x2="211.4544" y1="790.6521" y2="728.9002"/>
    <line x1="209.1494" x2="209.1494" y1="727.5694" y2="789.3214"/>
    <line x1="206.8445" x2="206.8445" y1="787.9906" y2="726.2386"/>
    <line x1="204.5395" x2="204.5395" y1="724.9079" y2="786.6598"/>
    <line x1="202.2346" x2="202.2346" y1="785.3291" y2="723.5771"/>
    <polyline points="139.8424,723.3124 104.227,743.875 104.227,803.9142 94.8322,798.4902 94.8322,738.4509 130.4476,717.8884 139.8424,723.3124 139.8424,783.3516 104.227,803.9142"/>
    <line x1="101.8783" x2="101.8783" y1="802.5582" y2="742.519"/>
    <line x1="104.227" x2="94.8322" y1="743.875" y2="738.4509"/>
    <line x1="97.1809" x2="97.1809" y1="739.807" y2="799.8462"/>
    <line x1="99.5296" x2="99.5296" y1="801.2022" y2="741.163"/>
    <line x1="108.6789" x2="108.6789" y1="741.3047" y2="801.3439"/>
    <line x1="113.1308" x2="113.1308" y1="798.7736" y2="738.7344"/>
    <line x1="117.5828" x2="117.5828" y1="736.164" y2="796.2033"/>
    <line x1="122.0347" x2="122.0347" y1="793.6329" y2="733.5937"/>
    <line x1="126.4866" x2="126.4866" y1="731.0234" y2="791.0626"/>
    <line x1="130.9386" x2="130.9386" y1="788.4923" y2="728.4531"/>
    <line x1="135.3905" x2="135.3905" y1="725.8828" y2="785.922"/>
    <polyline points="221.8727,892.9143 256.1849,912.7244 256.1849,972.7991 221.8727,952.989 221.8727,892.9143 266.6692,867.051 300.9814,886.8612 300.9814,946.9359 256.1849,972.7991"/>
    <line x1="253.734" x2="253.734" y1="971.3841" y2="911.3094"/>
    <line x1="256.1849" x2="300.9814" y1="912.7244" y2="886.8612"/>
    <line x1="296.5018" x2="296.5018" y1="889.4475" y2="949.5222"/>
    <line x1="292.0221" x2="292.0221" y1="952.1085" y2="892.0338"/>
    <line x1="287.5425" x2="287.5425" y1="894.6201" y2="954.6948"/>
    <line x1="283.0628" x2="283.0628" y1="957.2812" y2="897.2065"/>
    <line x1="278.5832" x2="278.5832" y1="899.7928" y2="959.8675"/>
    <line x1="274.1035" x2="274.1035" y1="962.4538" y2="902.3791"/>
    <line x1="269.6239" x2="269.6239" y1="904.9655" y2="965.0402"/>
    <line x1="265.1442" x2="265.1442" y1="967.6265" y2="907.5518"/>
    <line x1="260.6646" x2="260.6646" y1="910.1381" y2="970.2128"/>
    <line x1="251.2832" x2="251.2832" y1="969.9691" y2="909.8944"/>
    <line x1="248.8323" x2="248.8323" y1="908.4794" y2="968.5541"/>
    <line x1="246.3814" x2="246.3814" y1="967.1391" y2="907.0644"/>
    <line x1="243.9306" x2="243.9306" y1="905.6494" y2="965.7241"/>
    <line x1="241.4797" x2="241.4797" y1="964.3091" y2="904.2344"/>
    <line x1="239.0288" x2="239.0288" y1="902.8194" y2="962.8941"/>
    <line x1="236.578" x2="236.578" y1="961.479" y2="901.4043"/>
    <line x1="234.1271" x2="234.1271" y1="899.9893" y2="960.064"/>
    <line x1="231.6762" x2="231.6762" y1="958.649" y2="898.5743"/>
    <line x1="229.2253" x2="229.2253" y1="897.1593" y2="957.234"/>
    <line x1="226.7745" x2="226.7745" y1="955.819" y2="895.7443"/>
    <line x1="224.3236" x2="224.3236" y1="894.3293" y2="954.404"/>
    <line x1="545.8168" x2="545.8168" y1="873.9019" y2="810.6072"/>
    <line x1="548.1605" x2="548.1605" y1="811.9604" y2="875.2551"/>
    <line x1="550.5043" x2="550.5043" y1="876.6082" y2="813.3136"/>
    <line x1="552.848" x2="552.848" y1="814.6667" y2="877.9614"/>
    <line x1="555.1918" x2="555.1918" y1="879.3145" y2="816.0199"/>
    <line x1="557.5355" x2="557.5355" y1="817.373" y2="880.6677"/>
    <line x1="559.8793" x2="559.8793" y1="882.0209" y2="818.7262"/>
    <line x1="562.223" x2="562.223" y1="820.0794" y2="883.374"/>
    <line x1="564.5667" x2="564.5667" y1="884.7272" y2="821.4325"/>
    <line x1="566.9105" x2="566.9105" y1="822.7857" y2="886.0803"/>
    <line x1="569.2542" x2="569.2542" y1="887.4335" y2="824.1388"/>
    <line x1="571.598" x2="571.598" y1="825.492" y2="888.7867"/>
    <line x1="573.9417" x2="573.9417" y1="890.1398" y2="826.8452"/>
    <line x1="576.2855" x2="576.2855" y1="828.1983" y2="891.493"/>
    <line x1="578.6292" x2="578.6292" y1="892.8461" y2="829.5515"/>
    <line x1="580.9729" x2="580.9729" y1="830.9046" y2="894.1993"/>
    <line x1="583.3167" x2="583.3167" y1="895.5525" y2="832.2578"/>
    <line x1="585.6604" x2="585.6604" y1="833.611" y2="896.9056"/>
    <line x1="588.0042" x2="588.0042" y1="898.2588" y2="834.9641"/>
    <line x1="592.0663" x2="592.0663" y1="824.2536" y2="780.3044"/>
    <line x1="596.8863" x2="554.0051" y1="777.5215" y2="802.279"/>
    <line x1="558.3257" x2="558.3257" y1="799.7845" y2="804.7735"/>
    <line x1="563.1458" x2="563.1458" y1="807.5564" y2="797.0016"/>
    <line x1="567.9659" x2="567.9659" y1="794.2187" y2="810.3392"/>
    <line x1="572.786" x2="572.786" y1="813.1221" y2="791.4359"/>
    <line x1="577.606" x2="577.606" y1="788.653" y2="815.905"/>
    <line x1="582.4261" x2="582.4261" y1="818.6879" y2="785.8701"/>
    <line x1="587.2462" x2="587.2462" y1="783.0873" y2="821.4707"/>
    <polyline points="596.8863,827.0365 596.8863,777.5215 514.4926,729.9515 502.4986,736.8762"/>
    <line x1="463.864" x2="463.864" y1="666.5571" y2="621.12"/>
    <line x1="461.424" x2="461.424" y1="619.7112" y2="665.1484"/>
    <line x1="458.984" x2="458.984" y1="663.7397" y2="618.3025"/>
    <line x1="610.2479" x2="617.7437" y1="172.1705" y2="167.8429"/>
  </g>
</svg>
