<?xml version="1.0" encoding="utf-8" ?>
<svg xmlns="http://www.w3.org/2000/svg" xmlns:cc="http://creativecommons.org/ns" xmlns:dc="http://purl.org/dc/elements/1.1/" xmlns:ev="http://www.w3.org/2001/xml-events" xmlns:inkscape="http://www.inkscape.org/namespaces/inkscape" xmlns:rdf="http://www.w3.org/1999/02/22-rdf-syntax-ns" xmlns:sodipodi="http://sodipodi.sourceforge.net/DTD/sodipodi-0.dtd" xmlns:xlink="http://www.w3.org/1999/xlink" baseProfile="tiny" height="29.7cm" version="1.2" viewBox="0 0 793.7007874015749 1122.5196850393702" width="21.0cm">
  <metadata>
    <rdf:RDF>
      <cc:Work>
        <dc:format>image/svg+xml</dc:format>
        <dc:source>Vsketch with params {'__seed__': 1900842293, 'draw_modules': True, 'debug': False, 'occult': False, 'scale': 1.0, 'num_tries': 40, 'num_consec_fails_max': 50, 'n_x': 1, 'n_y': 1, 'grid_dist_x': 8.0, 'grid_dist_y': 8.0, 'weight_continue_same_dir': 6.0, 'prob_connector_parallel_match_height': 0.9, 'prob_capsule_variation_1': 1.0, 'prob_capsule_multi_window': 0.5, 'prob_capsule_3d': 0.5, 'prob_capsule_parallel_lines': 0.5, 'prob_capsule_normal_lines': 0.5, 'prob_capsule_square': 0.2, 'prob_connector_variation_1': 1.0, 'prob_solar_single': 1.0, 'prob_solar_double': 1.0, 'prob_decoration_antenna': 0.5, 'prob_decoration_dock_simple': 1.0, 'prob_decoration_dock': 2.0, 'prob_decoration_inflatable': 1.0, 'prob_capsule_capsule_parallel': 1.0, 'prob_capsule_connector_parallel': 2.0, 'prob_capsule_solar_parallel': 0.4, 'prob_capsule_dock_parallel': 1.0, 'prob_capsule_capsule_normal': 1.0, 'prob_capsule_connector_normal': 3.0, 'prob_capsule_solar_normal': 1.0, 'prob_capsule_dock_normal': 1.0, 'capsule_height_min': 1.0, 'capsule_height_max': 2.0, 'capsule_width_gain_min': 1.0, 'capsule_width_gain_max': 3.0, 'capsule_multi_window_circle_prob': 1.0, 'capsule_multi_window_square_prob': 1.0, 'capsule_multi_window_square_rounded_prob': 1.5, 'capsule_multi_window_window_size_gain_min': 0.18, 'capsule_multi_window_window_size_gain_max': 0.4, 'capsule_multi_window_windows_size_gain_min': 0.2, 'capsule_multi_window_windows_size_gain_max': 0.6, 'capsule_multi_window_window_dist_gain_min': 0.05, 'capsule_multi_window_window_dist_gain_max': 0.2, 'capsule_multi_window_rounded_radius_gain_min': 0.05, 'capsule_multi_window_rounded_radius_gain_max': 0.3, 'capsule_multi_window_no_lines_prob': 2.0, 'capsule_multi_window_parallel_lines_prob': 1.0, 'capsule_multi_window_parallel_line_dist_gain_min': 0.1, 'capsule_multi_window_parallel_line_dist_gain_max': 0.2, 'capsule_multi_window_normal_lines_prob': 0.75, 'capsule_multi_window_box_prob': 0.75, 'capsule_normal_lines_prob_random': 0.3, 'capsule_normal_lines_prob_double_thin': 0.15, 'capsule_normal_lines_prob_double_flat': 0.1, 'capsule_normal_lines_prob_double_multi': 0.1, 'capsule_normal_lines_prob_double_multi_random': 0.1, 'capsule_normal_lines_prob_double_shaded': 0.2, 'capsule_normal_lines_prob_double_black': 0.15, 'capsule_normal_lines_num_lines_rand_min': 1, 'capsule_normal_lines_num_lines_rand_max': 9, 'capsule_normal_lines_double_offset_gain_min': 0.1, 'capsule_normal_lines_double_offset_gain_max': 0.3, 'capsule_normal_lines_double_dist_gain_min': 0.02, 'capsule_normal_lines_double_dist_gain_max': 0.2, 'capsule_normal_lines_num_lines_multi_min': 3, 'capsule_normal_lines_num_lines_multi_max': 6, 'capsule_normal_lines_double_multi_dist_gain_min': 0.1, 'capsule_normal_lines_double_multi_dist_gain_max': 0.3, 'capsule_normal_lines_double_shaded_dist_min': 0.02, 'capsule_normal_lines_double_shaded_dist_max': 0.2, 'capsule_square_height_min': 0.6, 'capsule_square_height_max': 1.6, 'capsule_square_border_prob': 0.6, 'capsule_square_border_gain_min': 0.95, 'capsule_square_border_gain_max': 0.8, 'capsule_square_rounded_corners_prob': 0.3, 'capsule_square_cross_prob': 0.5, 'capsule_square_shaded_circle_prob': 0.5, 'capsule_square_corner_radius_gain_min': 0.05, 'capsule_square_corner_radius_gain_max': 0.2, 'capsule_square_outer_circle_gain_min': 0.5, 'capsule_square_outer_circle_gain_max': 0.7, 'capsule_square_inner_circle_gain_min': 0.6, 'capsule_square_inner_circle_gain_max': 0.95, 'capsule_square_num_lines_shaded_circle_min': 6, 'capsule_square_num_lines_shaded_circle_max': 20, 'capsule_3d_num_lines_min': 5, 'capsule_3d_num_lines_max': 20, 'capsule_parallel_lines_num_lines_min': 1, 'capsule_parallel_lines_num_lines_max': 5, 'connector_height_min': 1.0, 'connector_height_max': 2.0, 'connector_from_height_gain_min': 0.833, 'connector_from_height_gain_max': 1.2, 'connector_width_gain_min': 0.2, 'connector_width_gain_max': 0.4, 'solar_height_min': 1.4, 'solar_height_max': 1.9, 'solar_width_gain_min': 4.0, 'solar_width_gain_max': 7.0, 'solar_panel_dist_x_min': 0.1, 'solar_panel_dist_x_max': 0.2, 'solar_panel_num_y_min': 2, 'solar_panel_num_y_max': 4, 'solar_panel_double_connector_width_min': 0.12, 'solar_panel_double_connector_width_max': 0.3, 'solar_panel_double_connector_height_min': 0.05, 'solar_panel_double_connector_height_max': 0.2, 'solar_panel_double_panel_dist_min': 0.1, 'solar_panel_double_panel_dist_max': 0.3, 'solar_panel_double_inset_min': 0.0, 'solar_panel_double_inset_max': 0.1, 'solar_panel_double_multi_beam_prob': 0.3, 'solar_panel_double_n_beams_extra_min': 1, 'solar_panel_double_n_beams_extra_max': 5, 'antenna_height_min': 0.1, 'antenna_height_max': 0.15, 'antenna_width_gain_min': 1.0, 'antenna_width_gain_max': 3.0, 'antenna_empty_prob': 0.5, 'antenna_dot_prob': 0.5, 'antenna_square_prob': 0.5, 'antenna_dot_radius_min': 0.01, 'antenna_dot_radius_max': 0.03, 'dock_simple_height_min': 0.3, 'dock_simple_height_max': 1.0, 'dock_simple_width_gain_min': 0.07, 'dock_simple_width_gain_max': 0.15, 'dock_simple_black_prob': 0.5, 'dock_simple_shaded_dist_min': 0.02, 'dock_simple_shaded_dist_max': 0.1, 'dock_height_min': 1.0, 'dock_height_max': 2.0, 'dock_width_gain_min': 0.4, 'dock_width_gain_max': 0.7, 'dock_union_middle_prob': 0.5, 'dock_flat_end_height_gain_min': 0.45, 'dock_flat_end_height_gain_max': 0.6, 'dock_end_height_gain_min': 0.7, 'dock_end_height_gain_max': 0.9, 'dock_start_frac_min': 0.03, 'dock_start_frac_max': 0.15, 'dock_end_frac_min': 0.05, 'dock_end_frac_max': 0.12, 'dock_flat_start_frac_min': 0.2, 'dock_flat_start_frac_max': 0.3, 'dock_flat_end_frac_min': 0.1, 'dock_flat_end_frac_max': 0.2, 'inflatable_height_min': 1.7, 'inflatable_height_max': 2.5, 'inflatable_width_gain_min': 1.5, 'inflatable_width_gain_max': 2.0, 'inflatable_corner_radius_gain_min': 0.35, 'inflatable_corner_radius_gain_max': 0.5}</dc:source>
        <dc:date>2023-12-16T15:57:52.173645</dc:date>
      </cc:Work>
    </rdf:RDF>
  </metadata>
  <defs/>
  <g fill="none" id="layer1" inkscape:groupmode="layer" inkscape:label="1" stroke="#0000ff" style="display:inline">
    <polygon points="437.9383,592.0885 515.019,592.0885 515.019,518.7546 437.9383,518.7546"/>
    <line x1="437.9383" x2="515.019" y1="591.6371" y2="591.6371"/>
    <polyline points="515.019,590.1877 437.9383,590.1815 412.5628,591.9219 412.5628,518.9212 437.9383,520.6617 515.019,520.6554"/>
    <line x1="515.019" x2="437.9383" y1="519.2061" y2="519.2061"/>
    <polyline points="438.8797,518.7546 449.1506,496.4187 503.8067,496.4187 514.0776,518.7546"/>
    <line x1="515.019" x2="437.9383" y1="523.0643" y2="523.0643"/>
    <line x1="437.9383" x2="515.019" y1="526.3662" y2="526.3662"/>
    <line x1="515.019" x2="437.9383" y1="530.4699" y2="530.4699"/>
    <line x1="437.9383" x2="515.019" y1="535.2623" y2="535.2623"/>
    <line x1="515.019" x2="437.9383" y1="540.611" y2="540.611"/>
    <line x1="437.9383" x2="515.019" y1="546.3685" y2="546.3685"/>
    <line x1="515.019" x2="437.9383" y1="552.3759" y2="552.3759"/>
    <line x1="437.9383" x2="515.019" y1="558.4673" y2="558.4673"/>
    <line x1="515.019" x2="437.9383" y1="564.4746" y2="564.4746"/>
    <line x1="437.9383" x2="515.019" y1="570.2321" y2="570.2321"/>
    <line x1="515.019" x2="437.9383" y1="575.5809" y2="575.5809"/>
    <line x1="437.9383" x2="515.019" y1="580.3732" y2="580.3732"/>
    <line x1="515.019" x2="437.9383" y1="584.477" y2="584.477"/>
    <line x1="437.9383" x2="515.019" y1="587.7788" y2="587.7788"/>
    <line x1="519.0485" x2="519.0485" y1="591.0951" y2="519.748"/>
    <line x1="541.8239" x2="541.8239" y1="519.748" y2="591.0951"/>
    <polyline points="594.6233,591.0951 591.2598,606.738 650.1998,606.738 646.8364,591.0951"/>
    <line x1="639.8636" x2="639.9684" y1="591.0951" y2="518.3859"/>
    <line x1="640.3456" x2="640.3456" y1="518.3859" y2="519.748"/>
    <line x1="640.7229" x2="640.7229" y1="519.748" y2="518.3859"/>
    <line x1="641.1001" x2="641.1001" y1="518.3859" y2="519.748"/>
    <line x1="641.4773" x2="641.4773" y1="519.748" y2="518.3859"/>
    <line x1="641.8545" x2="641.8545" y1="518.3859" y2="519.748"/>
    <line x1="642.2318" x2="642.2318" y1="519.748" y2="518.3859"/>
    <line x1="642.609" x2="642.609" y1="518.3859" y2="519.748"/>
    <line x1="642.9862" x2="642.9862" y1="519.748" y2="518.3859"/>
    <line x1="643.3634" x2="643.3634" y1="518.3859" y2="519.748"/>
    <line x1="643.7407" x2="643.7407" y1="519.748" y2="518.3859"/>
    <line x1="644.1179" x2="644.1179" y1="518.3859" y2="519.748"/>
    <line x1="644.4951" x2="644.4951" y1="519.748" y2="518.3859"/>
    <line x1="644.8724" x2="644.8724" y1="518.3859" y2="519.748"/>
    <line x1="645.2496" x2="645.2496" y1="519.748" y2="518.3859"/>
    <polygon points="645.6268,519.748 645.6268,518.3859 595.8328,518.3859 595.8328,519.748"/>
    <line x1="639.5912" x2="639.5912" y1="519.748" y2="518.3859"/>
    <line x1="639.2139" x2="639.2139" y1="518.3859" y2="519.748"/>
    <line x1="638.8367" x2="638.8367" y1="519.748" y2="518.3859"/>
    <line x1="638.4595" x2="638.4595" y1="518.3859" y2="519.748"/>
    <line x1="638.0823" x2="638.0823" y1="519.748" y2="518.3859"/>
    <line x1="637.705" x2="637.705" y1="518.3859" y2="519.748"/>
    <line x1="637.3278" x2="637.3278" y1="519.748" y2="518.3859"/>
    <line x1="636.9506" x2="636.9506" y1="518.3859" y2="519.748"/>
    <line x1="636.5734" x2="636.5734" y1="519.748" y2="518.3859"/>
    <line x1="636.1961" x2="636.1961" y1="518.3859" y2="519.748"/>
    <line x1="635.8189" x2="635.8189" y1="519.748" y2="518.3859"/>
    <line x1="635.4417" x2="635.4417" y1="518.3859" y2="519.748"/>
    <line x1="635.0644" x2="635.0644" y1="519.748" y2="518.3859"/>
    <line x1="634.6872" x2="634.6872" y1="518.3859" y2="519.748"/>
    <line x1="634.31" x2="634.31" y1="519.748" y2="518.3859"/>
    <line x1="633.9328" x2="633.9328" y1="518.3859" y2="519.748"/>
    <line x1="633.5555" x2="633.5555" y1="519.748" y2="518.3859"/>
    <line x1="633.1783" x2="633.1783" y1="518.3859" y2="519.748"/>
    <line x1="632.8011" x2="632.8011" y1="519.748" y2="518.3859"/>
    <line x1="632.4239" x2="632.4239" y1="518.3859" y2="519.748"/>
    <line x1="632.0466" x2="632.0466" y1="519.748" y2="518.3859"/>
    <line x1="631.6694" x2="631.6694" y1="518.3859" y2="519.748"/>
    <line x1="631.2922" x2="631.2922" y1="519.748" y2="518.3859"/>
    <line x1="630.9149" x2="630.9149" y1="518.3859" y2="519.748"/>
    <line x1="630.5377" x2="630.5377" y1="519.748" y2="518.3859"/>
    <line x1="630.1605" x2="630.1605" y1="518.3859" y2="519.748"/>
    <line x1="629.7833" x2="629.7833" y1="519.748" y2="518.3859"/>
    <line x1="629.406" x2="629.406" y1="518.3859" y2="519.748"/>
    <line x1="629.0288" x2="629.0288" y1="519.748" y2="518.3859"/>
    <line x1="628.6516" x2="628.6516" y1="518.3859" y2="519.748"/>
    <line x1="628.2744" x2="628.2744" y1="519.748" y2="518.3859"/>
    <line x1="627.8971" x2="627.8971" y1="518.3859" y2="519.748"/>
    <line x1="627.5199" x2="627.5199" y1="519.748" y2="518.3859"/>
    <line x1="627.1427" x2="627.1427" y1="518.3859" y2="519.748"/>
    <line x1="626.7654" x2="626.7654" y1="519.748" y2="518.3859"/>
    <line x1="626.3882" x2="626.3882" y1="518.3859" y2="519.748"/>
    <line x1="626.011" x2="626.011" y1="519.748" y2="518.3859"/>
    <line x1="625.6338" x2="625.6338" y1="518.3859" y2="519.748"/>
    <line x1="625.2565" x2="625.2565" y1="519.748" y2="518.3859"/>
    <line x1="624.8793" x2="624.8793" y1="518.3859" y2="519.748"/>
    <line x1="624.5021" x2="624.5021" y1="519.748" y2="518.3859"/>
    <line x1="624.1249" x2="624.1249" y1="518.3859" y2="519.748"/>
    <line x1="623.7476" x2="623.7476" y1="519.748" y2="518.3859"/>
    <line x1="623.3704" x2="623.3704" y1="518.3859" y2="519.748"/>
    <line x1="622.9932" x2="622.9932" y1="519.748" y2="518.3859"/>
    <line x1="622.6159" x2="622.6159" y1="518.3859" y2="519.748"/>
    <line x1="622.2387" x2="622.2387" y1="519.748" y2="518.3859"/>
    <line x1="621.8615" x2="621.8615" y1="518.3859" y2="519.748"/>
    <line x1="621.4843" x2="621.4843" y1="519.748" y2="518.3859"/>
    <line x1="621.107" x2="621.107" y1="518.3859" y2="519.748"/>
    <line x1="620.7298" x2="620.7298" y1="519.748" y2="518.3859"/>
    <line x1="620.3526" x2="620.3526" y1="518.3859" y2="519.748"/>
    <line x1="619.9754" x2="619.9754" y1="519.748" y2="518.3859"/>
    <line x1="619.5981" x2="619.5981" y1="518.3859" y2="519.748"/>
    <line x1="619.2209" x2="619.2209" y1="519.748" y2="518.3859"/>
    <line x1="618.8437" x2="618.8437" y1="518.3859" y2="519.748"/>
    <line x1="618.4664" x2="618.4664" y1="519.748" y2="518.3859"/>
    <line x1="618.0892" x2="618.0892" y1="518.3859" y2="519.748"/>
    <line x1="617.712" x2="617.712" y1="519.748" y2="518.3859"/>
    <line x1="617.3348" x2="617.3348" y1="518.3859" y2="519.748"/>
    <line x1="616.9575" x2="616.9575" y1="519.748" y2="518.3859"/>
    <line x1="616.5803" x2="616.5803" y1="518.3859" y2="519.748"/>
    <line x1="616.2031" x2="616.2031" y1="519.748" y2="518.3859"/>
    <line x1="615.8259" x2="615.8259" y1="518.3859" y2="519.748"/>
    <line x1="615.4486" x2="615.4486" y1="519.748" y2="518.3859"/>
    <line x1="615.0714" x2="615.0714" y1="518.3859" y2="519.748"/>
    <line x1="614.6942" x2="614.6942" y1="519.748" y2="518.3859"/>
    <line x1="614.3169" x2="614.3169" y1="518.3859" y2="519.748"/>
    <line x1="613.9397" x2="613.9397" y1="519.748" y2="518.3859"/>
    <line x1="613.5625" x2="613.5625" y1="518.3859" y2="519.748"/>
    <line x1="613.1853" x2="613.1853" y1="519.748" y2="518.3859"/>
    <line x1="612.808" x2="612.808" y1="518.3859" y2="519.748"/>
    <line x1="612.4308" x2="612.4308" y1="519.748" y2="518.3859"/>
    <line x1="612.0536" x2="612.0536" y1="518.3859" y2="519.748"/>
    <line x1="611.6764" x2="611.6764" y1="519.748" y2="518.3859"/>
    <line x1="611.2991" x2="611.2991" y1="518.3859" y2="519.748"/>
    <line x1="610.9219" x2="610.9219" y1="519.748" y2="518.3859"/>
    <line x1="610.5447" x2="610.5447" y1="518.3859" y2="519.748"/>
    <line x1="610.1674" x2="610.1674" y1="519.748" y2="518.3859"/>
    <line x1="609.7902" x2="609.7902" y1="518.3859" y2="519.748"/>
    <line x1="609.413" x2="609.413" y1="519.748" y2="518.3859"/>
    <line x1="609.0358" x2="609.0358" y1="518.3859" y2="519.748"/>
    <line x1="608.6585" x2="608.6585" y1="519.748" y2="518.3859"/>
    <line x1="608.2813" x2="608.2813" y1="518.3859" y2="519.748"/>
    <line x1="607.9041" x2="607.9041" y1="519.748" y2="518.3859"/>
    <line x1="607.5269" x2="607.5269" y1="518.3859" y2="519.748"/>
    <line x1="607.1496" x2="607.1496" y1="519.748" y2="518.3859"/>
    <line x1="606.7724" x2="606.7724" y1="518.3859" y2="519.748"/>
    <line x1="606.3952" x2="606.3952" y1="519.748" y2="518.3859"/>
    <line x1="606.0179" x2="606.0179" y1="518.3859" y2="519.748"/>
    <line x1="605.6407" x2="605.6407" y1="519.748" y2="518.3859"/>
    <line x1="605.2635" x2="605.2635" y1="518.3859" y2="519.748"/>
    <line x1="604.8863" x2="604.8863" y1="519.748" y2="518.3859"/>
    <line x1="604.509" x2="604.509" y1="518.3859" y2="519.748"/>
    <line x1="604.1318" x2="604.1318" y1="519.748" y2="518.3859"/>
    <line x1="603.7546" x2="603.7546" y1="518.3859" y2="519.748"/>
    <line x1="603.3774" x2="603.3774" y1="519.748" y2="518.3859"/>
    <line x1="603.0001" x2="603.0001" y1="518.3859" y2="519.748"/>
    <line x1="602.6229" x2="602.6229" y1="519.748" y2="518.3859"/>
    <line x1="602.2457" x2="602.2457" y1="518.3859" y2="519.748"/>
    <line x1="601.8684" x2="601.8684" y1="519.748" y2="518.3859"/>
    <line x1="601.4912" x2="601.4912" y1="518.3859" y2="519.748"/>
    <line x1="601.114" x2="601.114" y1="519.748" y2="518.3859"/>
    <line x1="600.7368" x2="600.7368" y1="518.3859" y2="519.748"/>
    <line x1="600.3595" x2="600.3595" y1="519.748" y2="518.3859"/>
    <line x1="599.9823" x2="599.9823" y1="518.3859" y2="519.748"/>
    <line x1="599.6051" x2="599.6051" y1="519.748" y2="518.3859"/>
    <line x1="599.2279" x2="599.2279" y1="518.3859" y2="519.748"/>
    <line x1="598.8506" x2="598.8506" y1="519.748" y2="518.3859"/>
    <line x1="598.4734" x2="598.4734" y1="518.3859" y2="519.748"/>
    <line x1="597.7189" x2="597.7189" y1="519.748" y2="518.3859"/>
    <line x1="598.0962" x2="598.2322" y1="518.3859" y2="591.0951"/>
    <line x1="591.2598" x2="650.1998" y1="611.4088" y2="611.4088"/>
    <polyline points="650.1998,655.7244 660.25,653.3652 660.25,704.2528 650.1998,701.8936"/>
    <line x1="663.9062" x2="666.403" y1="700.3384" y2="700.3384"/>
    <line x1="666.403" x2="663.9062" y1="696.424" y2="696.424"/>
    <line x1="663.9062" x2="666.403" y1="692.5095" y2="692.5095"/>
    <line x1="666.403" x2="663.9062" y1="688.5951" y2="688.5951"/>
    <line x1="663.9062" x2="666.403" y1="684.6806" y2="684.6806"/>
    <line x1="666.403" x2="663.9062" y1="680.7662" y2="680.7662"/>
    <line x1="663.9062" x2="666.403" y1="676.8518" y2="676.8518"/>
    <line x1="666.403" x2="663.9062" y1="672.9373" y2="672.9373"/>
    <line x1="663.9062" x2="666.403" y1="669.0229" y2="669.0229"/>
    <line x1="666.403" x2="663.9062" y1="665.1085" y2="665.1085"/>
    <line x1="663.9062" x2="666.403" y1="661.194" y2="661.194"/>
    <line x1="666.403" x2="663.9062" y1="657.2796" y2="657.2796"/>
    <line x1="650.1998" x2="591.2598" y1="661.131" y2="661.131"/>
    <polygon points="663.9062,704.2528 666.403,704.2528 666.403,653.3652 663.9062,653.3652"/>
    <polygon points="650.1998,750.88 650.1998,606.738 591.2598,606.738 591.2598,750.88"/>
    <line x1="628.0557" x2="628.0557" y1="750.88" y2="843.8803"/>
    <polyline points="642.7074,843.8803 645.1882,854.9817 596.2714,854.9817 598.7522,843.8803"/>
    <line x1="601.4734" x2="601.4734" y1="854.9817" y2="917.7502"/>
    <line x1="639.9862" x2="639.9862" y1="917.7502" y2="854.9817"/>
    <line x1="613.4039" x2="613.4039" y1="843.8803" y2="750.88"/>
    <polygon points="598.7522,750.88 598.7522,843.8803 642.7074,843.8803 642.7074,750.88"/>
    <polyline points="598.7522,769.2564 578.705,775.3359 578.705,819.4244 598.7522,825.5039"/>
    <polygon points="614.9866,874.188 614.9866,885.6744 626.4731,885.6744 626.4731,874.188"/>
    <polygon points="626.4731,887.0574 614.9866,887.0574 614.9866,898.5439 626.4731,898.5439"/>
    <polygon points="645.1882,917.7502 645.1882,854.9817 596.2714,854.9817 596.2714,917.7502"/>
    <line x1="722.6032" x2="725.1" y1="700.3384" y2="700.3384"/>
    <line x1="725.1" x2="722.6032" y1="696.424" y2="696.424"/>
    <line x1="722.6032" x2="725.1" y1="692.5095" y2="692.5095"/>
    <line x1="725.1" x2="722.6032" y1="688.5951" y2="688.5951"/>
    <line x1="722.6032" x2="725.1" y1="684.6806" y2="684.6806"/>
    <line x1="725.1" x2="722.6032" y1="680.7662" y2="680.7662"/>
    <line x1="722.6032" x2="725.1" y1="676.8518" y2="676.8518"/>
    <line x1="725.1" x2="722.6032" y1="672.9373" y2="672.9373"/>
    <line x1="722.6032" x2="725.1" y1="669.0229" y2="669.0229"/>
    <line x1="725.1" x2="722.6032" y1="665.1085" y2="665.1085"/>
    <line x1="722.6032" x2="725.1" y1="661.194" y2="661.194"/>
    <line x1="725.1" x2="722.6032" y1="657.2796" y2="657.2796"/>
    <polygon points="722.6032,653.3652 722.6032,704.2528 725.1,704.2528 725.1,653.3652"/>
    <polygon points="728.7561,653.3652 660.25,653.3652 660.25,704.2528 728.7561,704.2528"/>
    <polygon points="726.4406,591.0951 726.4406,519.748 515.019,519.748 515.019,591.0951"/>
    <line x1="726.4406" x2="731.9" y1="555.4216" y2="555.4216"/>
    <polygon points="731.9,554.6011 731.9,556.242 733.5408,556.242 733.5408,554.6011"/>
    <line x1="631.8698" x2="631.8698" y1="498.4053" y2="496.6254"/>
    <line x1="631.4922" x2="631.4922" y1="496.6254" y2="498.4053"/>
    <line x1="631.1146" x2="631.1146" y1="498.4053" y2="496.6254"/>
    <line x1="630.7369" x2="630.7369" y1="496.6254" y2="498.4053"/>
    <line x1="630.3593" x2="630.3593" y1="498.4053" y2="496.6254"/>
    <line x1="629.9817" x2="629.9817" y1="496.6254" y2="498.4053"/>
    <line x1="629.6041" x2="629.6041" y1="498.4053" y2="496.6254"/>
    <line x1="629.2264" x2="629.2264" y1="496.6254" y2="498.4053"/>
    <line x1="628.8488" x2="628.8488" y1="498.4053" y2="496.6254"/>
    <line x1="628.4712" x2="628.4712" y1="496.6254" y2="498.4053"/>
    <line x1="628.0935" x2="628.0935" y1="498.4053" y2="496.6254"/>
    <line x1="627.7159" x2="627.7159" y1="496.6254" y2="498.4053"/>
    <line x1="627.3383" x2="627.3383" y1="498.4053" y2="496.6254"/>
    <line x1="626.9607" x2="626.9607" y1="496.6254" y2="498.4053"/>
    <line x1="626.583" x2="626.583" y1="498.4053" y2="496.6254"/>
    <line x1="626.2054" x2="626.2054" y1="496.6254" y2="498.4053"/>
    <line x1="625.8278" x2="625.8278" y1="498.4053" y2="496.6254"/>
    <line x1="625.4502" x2="625.4502" y1="496.6254" y2="498.4053"/>
    <line x1="625.0725" x2="625.0725" y1="498.4053" y2="496.6254"/>
    <line x1="624.6949" x2="624.6949" y1="496.6254" y2="498.4053"/>
    <line x1="624.3173" x2="624.3173" y1="498.4053" y2="496.6254"/>
    <line x1="623.9396" x2="623.9396" y1="496.6254" y2="498.4053"/>
    <line x1="623.562" x2="623.562" y1="498.4053" y2="496.6254"/>
    <line x1="623.1844" x2="623.1844" y1="496.6254" y2="498.4053"/>
    <line x1="622.8068" x2="622.8068" y1="498.4053" y2="496.6254"/>
    <line x1="622.4291" x2="622.4291" y1="496.6254" y2="498.4053"/>
    <line x1="622.0515" x2="622.0515" y1="498.4053" y2="496.6254"/>
    <line x1="621.6739" x2="621.6739" y1="496.6254" y2="498.4053"/>
    <line x1="621.2963" x2="621.2963" y1="498.4053" y2="496.6254"/>
    <line x1="620.9186" x2="620.9186" y1="496.6254" y2="498.4053"/>
    <line x1="620.541" x2="620.541" y1="498.4053" y2="496.6254"/>
    <line x1="620.1634" x2="620.1634" y1="496.6254" y2="498.4053"/>
    <line x1="619.7857" x2="619.7857" y1="498.4053" y2="496.6254"/>
    <line x1="619.4081" x2="619.4081" y1="496.6254" y2="498.4053"/>
    <line x1="619.0305" x2="619.0305" y1="498.4053" y2="496.6254"/>
    <line x1="618.6529" x2="618.6529" y1="496.6254" y2="498.4053"/>
    <line x1="618.2752" x2="618.2752" y1="498.4053" y2="496.6254"/>
    <line x1="617.8976" x2="617.8976" y1="496.6254" y2="498.4053"/>
    <line x1="617.52" x2="617.52" y1="498.4053" y2="496.6254"/>
    <line x1="617.1424" x2="617.1424" y1="496.6254" y2="498.4053"/>
    <line x1="616.7647" x2="616.7647" y1="498.4053" y2="496.6254"/>
    <line x1="616.3871" x2="616.3871" y1="496.6254" y2="498.4053"/>
    <line x1="616.0095" x2="616.0095" y1="498.4053" y2="496.6254"/>
    <line x1="615.6318" x2="615.6318" y1="496.6254" y2="498.4053"/>
    <line x1="615.2542" x2="615.2542" y1="498.4053" y2="496.6254"/>
    <line x1="614.8766" x2="614.8766" y1="496.6254" y2="498.4053"/>
    <line x1="614.499" x2="614.499" y1="498.4053" y2="496.6254"/>
    <line x1="614.1213" x2="614.1213" y1="496.6254" y2="498.4053"/>
    <line x1="613.7437" x2="613.7437" y1="498.4053" y2="496.6254"/>
    <line x1="613.3661" x2="613.3661" y1="496.6254" y2="498.4053"/>
    <line x1="612.9885" x2="612.9885" y1="498.4053" y2="496.6254"/>
    <line x1="612.6108" x2="612.6108" y1="496.6254" y2="498.4053"/>
    <line x1="612.2332" x2="612.2332" y1="498.4053" y2="496.6254"/>
    <line x1="611.8556" x2="611.8556" y1="496.6254" y2="498.4053"/>
    <line x1="611.4779" x2="611.4779" y1="498.4053" y2="496.6254"/>
    <line x1="611.1003" x2="611.1003" y1="496.6254" y2="498.4053"/>
    <line x1="610.7227" x2="610.7227" y1="498.4053" y2="496.6254"/>
    <line x1="610.3451" x2="610.3451" y1="496.6254" y2="498.4053"/>
    <line x1="609.9674" x2="609.9674" y1="498.4053" y2="496.6254"/>
    <line x1="609.5898" x2="609.5898" y1="496.6254" y2="498.4053"/>
    <polygon points="609.2122,498.4053 632.2474,498.4053 632.2474,496.6254 609.2122,496.6254"/>
    <polygon points="606.534,501.3078 595.8328,513.1875 595.8328,518.3958 645.6268,518.3958 645.6268,513.1975 634.9256,501.3078 634.9256,498.4253 606.534,498.4253"/>
    <line x1="597.3417" x2="597.3417" y1="518.3859" y2="519.748"/>
    <line x1="596.9645" x2="596.9645" y1="519.748" y2="518.3859"/>
    <line x1="596.5873" x2="596.5873" y1="518.3859" y2="519.748"/>
    <line x1="596.21" x2="596.21" y1="519.748" y2="518.3859"/>
    <line x1="501.204" x2="501.204" y1="493.8874" y2="490.3938"/>
    <line x1="498.6013" x2="498.6013" y1="490.3938" y2="493.8874"/>
    <line x1="495.9987" x2="495.9987" y1="493.8874" y2="490.3938"/>
    <line x1="493.396" x2="493.396" y1="490.3938" y2="493.8874"/>
    <line x1="490.7933" x2="490.7933" y1="493.8874" y2="490.3938"/>
    <line x1="488.1907" x2="488.1907" y1="490.3938" y2="493.8874"/>
    <line x1="485.588" x2="485.588" y1="493.8874" y2="490.3938"/>
    <line x1="482.9853" x2="482.9853" y1="490.3938" y2="493.8874"/>
    <line x1="480.3827" x2="480.3827" y1="493.8874" y2="490.3938"/>
    <line x1="477.78" x2="477.78" y1="490.3938" y2="493.8874"/>
    <line x1="475.1773" x2="475.1773" y1="493.8874" y2="490.3938"/>
    <line x1="472.5746" x2="472.5746" y1="490.3938" y2="493.8874"/>
    <line x1="469.972" x2="469.972" y1="493.8874" y2="490.3938"/>
    <line x1="467.3693" x2="467.3693" y1="490.3938" y2="493.8874"/>
    <line x1="464.7666" x2="464.7666" y1="493.8874" y2="490.3938"/>
    <line x1="462.164" x2="462.164" y1="490.3938" y2="493.8874"/>
    <line x1="459.5613" x2="459.5613" y1="493.8874" y2="490.3938"/>
    <line x1="456.9586" x2="456.9586" y1="490.3938" y2="493.8874"/>
    <line x1="454.356" x2="454.356" y1="493.8874" y2="490.3938"/>
    <line x1="451.7533" x2="451.7533" y1="490.3938" y2="493.8874"/>
    <polygon points="449.1506,493.8874 503.8067,493.8874 503.8067,490.3938 449.1506,490.3938"/>
    <polygon points="449.1506,429.3724 503.8067,429.3724 503.8067,425.8788 449.1506,425.8788"/>
    <line x1="451.7533" x2="451.7533" y1="429.3724" y2="425.8788"/>
    <line x1="454.356" x2="454.356" y1="425.8788" y2="429.3724"/>
    <line x1="456.9586" x2="456.9586" y1="429.3724" y2="425.8788"/>
    <line x1="459.5613" x2="459.5613" y1="425.8788" y2="429.3724"/>
    <line x1="462.164" x2="462.164" y1="429.3724" y2="425.8788"/>
    <line x1="464.7666" x2="464.7666" y1="425.8788" y2="429.3724"/>
    <line x1="467.3693" x2="467.3693" y1="429.3724" y2="425.8788"/>
    <line x1="469.972" x2="469.972" y1="425.8788" y2="429.3724"/>
    <line x1="472.5746" x2="472.5746" y1="429.3724" y2="425.8788"/>
    <line x1="475.1773" x2="475.1773" y1="425.8788" y2="429.3724"/>
    <line x1="477.78" x2="477.78" y1="429.3724" y2="425.8788"/>
    <line x1="480.3827" x2="480.3827" y1="425.8788" y2="429.3724"/>
    <line x1="482.9853" x2="482.9853" y1="429.3724" y2="425.8788"/>
    <line x1="485.588" x2="485.588" y1="425.8788" y2="429.3724"/>
    <line x1="488.1907" x2="488.1907" y1="429.3724" y2="425.8788"/>
    <line x1="490.7933" x2="490.7933" y1="425.8788" y2="429.3724"/>
    <line x1="493.396" x2="493.396" y1="429.3724" y2="425.8788"/>
    <line x1="495.9987" x2="495.9987" y1="425.8788" y2="429.3724"/>
    <line x1="498.6013" x2="498.6013" y1="429.3724" y2="425.8788"/>
    <line x1="501.204" x2="501.204" y1="425.8788" y2="429.3724"/>
    <polygon points="503.8067,423.3474 449.1506,423.3474 449.1506,496.4187 503.8067,496.4187"/>
    <polyline points="503.8067,423.3474 505.3813,411.2067 447.576,411.2067 449.1506,423.3474"/>
    <line x1="450.0191" x2="450.0191" y1="411.2067" y2="333.4695"/>
    <line x1="447.9318" x2="447.9318" y1="333.4695" y2="411.2067"/>
    <line x1="453.8449" x2="453.8449" y1="411.2067" y2="333.4695"/>
    <line x1="459.1579" x2="459.1579" y1="333.4695" y2="411.2067"/>
    <line x1="465.609" x2="465.609" y1="411.2067" y2="333.4695"/>
    <line x1="472.7743" x2="472.7743" y1="333.4695" y2="411.2067"/>
    <line x1="480.183" x2="480.183" y1="411.2067" y2="333.4695"/>
    <line x1="487.3483" x2="487.3483" y1="333.4695" y2="411.2067"/>
    <line x1="493.7994" x2="493.7994" y1="411.2067" y2="333.4695"/>
    <line x1="499.1124" x2="499.1124" y1="333.4695" y2="411.2067"/>
    <line x1="502.9382" x2="502.9382" y1="411.2067" y2="333.4695"/>
    <line x1="505.0255" x2="505.0255" y1="333.4695" y2="411.2067"/>
    <polygon points="505.3813,333.4695 447.576,333.4695 447.576,411.2067 505.3813,411.2067"/>
    <polygon points="511.2743,212.0883 510.103,209.3189 508.4047,206.394 504.4856,201.8464 501.8435,199.7348 499.2773,198.1675 494.4069,196.1923 489.234,195.2626 465.2259,195.1957 461.1127,195.5932 455.7165,197.1974 450.5027,200.1733 446.3772,204.0039 443.1977,208.6498 441.0242,214.2458 440.2343,219.8197 440.2232,308.0906 440.5596,312.2093 441.683,316.5741 443.5609,320.6713 446.1338,324.3718 449.3208,327.5588 453.0213,330.1318 457.1185,332.0096 461.4834,333.133 465.2259,333.4667 487.7314,333.4667 490.73,333.2441 494.0448,332.572 498.944,330.6691 503.3462,327.7979 506.8235,324.3718 509.7596,320.0126 511.8366,314.7802 512.723,308.8427 512.6339,218.3183 512.1097,214.9769"/>
    <polygon points="376.0518,241.4391 376.0518,238.6035 320.518,238.6035 320.518,241.4391"/>
    <line x1="372.7224" x2="353.6168" y1="245.2801" y2="245.2801"/>
    <line x1="353.6168" x2="372.7224" y1="249.1212" y2="249.1212"/>
    <line x1="372.7224" x2="353.6168" y1="252.9622" y2="252.9622"/>
    <line x1="353.6168" x2="372.7224" y1="256.8032" y2="256.8032"/>
    <line x1="372.7224" x2="353.6168" y1="260.6443" y2="260.6443"/>
    <line x1="353.6168" x2="372.7224" y1="264.4853" y2="264.4853"/>
    <line x1="372.7224" x2="353.6168" y1="268.3263" y2="268.3263"/>
    <line x1="353.6168" x2="372.7224" y1="272.1673" y2="272.1673"/>
    <line x1="372.7224" x2="353.6168" y1="276.0084" y2="276.0084"/>
    <line x1="353.6168" x2="372.7224" y1="279.8494" y2="279.8494"/>
    <line x1="372.7224" x2="353.6168" y1="283.6904" y2="283.6904"/>
    <line x1="353.6168" x2="372.7224" y1="287.5314" y2="287.5314"/>
    <line x1="372.7224" x2="353.6168" y1="291.3725" y2="291.3725"/>
    <line x1="353.6168" x2="372.7224" y1="295.2135" y2="295.2135"/>
    <line x1="372.7224" x2="353.6168" y1="299.0545" y2="299.0545"/>
    <line x1="353.6168" x2="372.7224" y1="302.8955" y2="302.8955"/>
    <line x1="372.7224" x2="353.6168" y1="306.7366" y2="306.7366"/>
    <line x1="353.6168" x2="372.7224" y1="310.5776" y2="310.5776"/>
    <line x1="372.7224" x2="353.6168" y1="314.4186" y2="314.4186"/>
    <line x1="353.6168" x2="372.7224" y1="318.2596" y2="318.2596"/>
    <line x1="372.7224" x2="353.6168" y1="322.1007" y2="322.1007"/>
    <line x1="353.6168" x2="372.7224" y1="325.9417" y2="325.9417"/>
    <line x1="372.7224" x2="353.6168" y1="329.7827" y2="329.7827"/>
    <line x1="353.6168" x2="372.7224" y1="333.6238" y2="333.6238"/>
    <line x1="372.7224" x2="353.6168" y1="337.4648" y2="337.4648"/>
    <line x1="353.6168" x2="372.7224" y1="341.3058" y2="341.3058"/>
    <line x1="372.7224" x2="353.6168" y1="345.1468" y2="345.1468"/>
    <line x1="353.6168" x2="372.7224" y1="348.9879" y2="348.9879"/>
    <line x1="372.7224" x2="353.6168" y1="352.8289" y2="352.8289"/>
    <line x1="353.6168" x2="372.7224" y1="356.6699" y2="356.6699"/>
    <line x1="372.7224" x2="353.6168" y1="360.5109" y2="360.5109"/>
    <line x1="353.6168" x2="372.7224" y1="364.352" y2="364.352"/>
    <line x1="372.7224" x2="353.6168" y1="368.193" y2="368.193"/>
    <line x1="353.6168" x2="372.7224" y1="372.034" y2="372.034"/>
    <line x1="372.7224" x2="353.6168" y1="375.875" y2="375.875"/>
    <line x1="353.6168" x2="372.7224" y1="379.7161" y2="379.7161"/>
    <line x1="372.7224" x2="353.6168" y1="383.5571" y2="383.5571"/>
    <line x1="353.6168" x2="372.7224" y1="387.3981" y2="387.3981"/>
    <line x1="372.7224" x2="353.6168" y1="391.2391" y2="391.2391"/>
    <line x1="353.6168" x2="372.7224" y1="395.0802" y2="395.0802"/>
    <line x1="372.7224" x2="353.6168" y1="398.9212" y2="398.9212"/>
    <line x1="353.6168" x2="372.7224" y1="402.7622" y2="402.7622"/>
    <line x1="372.7224" x2="353.6168" y1="406.6033" y2="406.6033"/>
    <line x1="353.6168" x2="372.7224" y1="410.4443" y2="410.4443"/>
    <line x1="372.7224" x2="353.6168" y1="414.2853" y2="414.2853"/>
    <line x1="353.6168" x2="372.7224" y1="418.1263" y2="418.1263"/>
    <line x1="372.7224" x2="353.6168" y1="421.9674" y2="421.9674"/>
    <line x1="353.6168" x2="372.7224" y1="425.8084" y2="425.8084"/>
    <line x1="372.7224" x2="353.6168" y1="429.6494" y2="429.6494"/>
    <line x1="353.6168" x2="372.7224" y1="433.4904" y2="433.4904"/>
    <line x1="372.7224" x2="353.6168" y1="437.3315" y2="437.3315"/>
    <line x1="353.6168" x2="372.7224" y1="441.1725" y2="441.1725"/>
    <line x1="372.7224" x2="353.6168" y1="445.0135" y2="445.0135"/>
    <line x1="353.6168" x2="372.7224" y1="448.8545" y2="448.8545"/>
    <line x1="372.7224" x2="353.6168" y1="452.6956" y2="452.6956"/>
    <line x1="353.6168" x2="372.7224" y1="456.5366" y2="456.5366"/>
    <line x1="372.7224" x2="353.6168" y1="460.3776" y2="460.3776"/>
    <line x1="353.6168" x2="372.7224" y1="464.2186" y2="464.2186"/>
    <line x1="372.7224" x2="353.6168" y1="468.0597" y2="468.0597"/>
    <line x1="353.6168" x2="372.7224" y1="471.9007" y2="471.9007"/>
    <line x1="372.7224" x2="353.6168" y1="475.7417" y2="475.7417"/>
    <line x1="353.6168" x2="372.7224" y1="479.5827" y2="479.5827"/>
    <line x1="372.7224" x2="353.6168" y1="483.4238" y2="483.4238"/>
    <line x1="353.6168" x2="372.7224" y1="487.2648" y2="487.2648"/>
    <line x1="372.7224" x2="353.6168" y1="491.1058" y2="491.1058"/>
    <line x1="353.6168" x2="372.7224" y1="494.9469" y2="494.9469"/>
    <line x1="372.7224" x2="353.6168" y1="498.7879" y2="498.7879"/>
    <line x1="353.6168" x2="372.7224" y1="502.6289" y2="502.6289"/>
    <polygon points="376.0518,506.4699 320.518,506.4699 320.518,509.3055 376.0518,509.3055"/>
    <line x1="366.3538" x2="366.3538" y1="506.4699" y2="241.4391"/>
    <line x1="359.9853" x2="359.9853" y1="241.4391" y2="506.4699"/>
    <line x1="342.953" x2="323.8474" y1="502.6289" y2="502.6289"/>
    <line x1="323.8474" x2="342.953" y1="498.7879" y2="498.7879"/>
    <line x1="342.953" x2="323.8474" y1="494.9469" y2="494.9469"/>
    <line x1="323.8474" x2="342.953" y1="491.1058" y2="491.1058"/>
    <line x1="342.953" x2="323.8474" y1="487.2648" y2="487.2648"/>
    <line x1="323.8474" x2="342.953" y1="483.4238" y2="483.4238"/>
    <line x1="342.953" x2="323.8474" y1="479.5827" y2="479.5827"/>
    <line x1="323.8474" x2="342.953" y1="475.7417" y2="475.7417"/>
    <line x1="342.953" x2="323.8474" y1="471.9007" y2="471.9007"/>
    <line x1="323.8474" x2="342.953" y1="468.0597" y2="468.0597"/>
    <line x1="342.953" x2="323.8474" y1="464.2186" y2="464.2186"/>
    <line x1="323.8474" x2="342.953" y1="460.3776" y2="460.3776"/>
    <line x1="342.953" x2="323.8474" y1="456.5366" y2="456.5366"/>
    <line x1="323.8474" x2="342.953" y1="452.6956" y2="452.6956"/>
    <line x1="342.953" x2="323.8474" y1="448.8545" y2="448.8545"/>
    <line x1="323.8474" x2="342.953" y1="445.0135" y2="445.0135"/>
    <line x1="342.953" x2="323.8474" y1="441.1725" y2="441.1725"/>
    <line x1="323.8474" x2="342.953" y1="437.3315" y2="437.3315"/>
    <line x1="342.953" x2="323.8474" y1="433.4904" y2="433.4904"/>
    <line x1="323.8474" x2="342.953" y1="429.6494" y2="429.6494"/>
    <line x1="342.953" x2="323.8474" y1="425.8084" y2="425.8084"/>
    <line x1="323.8474" x2="342.953" y1="421.9674" y2="421.9674"/>
    <line x1="342.953" x2="323.8474" y1="418.1263" y2="418.1263"/>
    <line x1="323.8474" x2="342.953" y1="414.2853" y2="414.2853"/>
    <line x1="342.953" x2="323.8474" y1="410.4443" y2="410.4443"/>
    <line x1="323.8474" x2="342.953" y1="406.6033" y2="406.6033"/>
    <line x1="342.953" x2="323.8474" y1="402.7622" y2="402.7622"/>
    <line x1="323.8474" x2="342.953" y1="398.9212" y2="398.9212"/>
    <line x1="342.953" x2="323.8474" y1="395.0802" y2="395.0802"/>
    <line x1="323.8474" x2="342.953" y1="391.2391" y2="391.2391"/>
    <line x1="342.953" x2="323.8474" y1="387.3981" y2="387.3981"/>
    <line x1="323.8474" x2="342.953" y1="383.5571" y2="383.5571"/>
    <line x1="342.953" x2="323.8474" y1="379.7161" y2="379.7161"/>
    <line x1="323.8474" x2="342.953" y1="375.875" y2="375.875"/>
    <line x1="342.953" x2="323.8474" y1="372.034" y2="372.034"/>
    <line x1="323.8474" x2="342.953" y1="368.193" y2="368.193"/>
    <line x1="342.953" x2="323.8474" y1="364.352" y2="364.352"/>
    <line x1="323.8474" x2="342.953" y1="360.5109" y2="360.5109"/>
    <line x1="342.953" x2="323.8474" y1="356.6699" y2="356.6699"/>
    <line x1="323.8474" x2="342.953" y1="352.8289" y2="352.8289"/>
    <line x1="342.953" x2="323.8474" y1="348.9879" y2="348.9879"/>
    <line x1="323.8474" x2="342.953" y1="345.1468" y2="345.1468"/>
    <line x1="342.953" x2="323.8474" y1="341.3058" y2="341.3058"/>
    <line x1="323.8474" x2="342.953" y1="337.4648" y2="337.4648"/>
    <line x1="342.953" x2="323.8474" y1="333.6238" y2="333.6238"/>
    <line x1="323.8474" x2="342.953" y1="329.7827" y2="329.7827"/>
    <line x1="342.953" x2="323.8474" y1="325.9417" y2="325.9417"/>
    <line x1="323.8474" x2="342.953" y1="322.1007" y2="322.1007"/>
    <line x1="342.953" x2="323.8474" y1="318.2596" y2="318.2596"/>
    <line x1="323.8474" x2="342.953" y1="314.4186" y2="314.4186"/>
    <line x1="342.953" x2="323.8474" y1="310.5776" y2="310.5776"/>
    <line x1="323.8474" x2="342.953" y1="306.7366" y2="306.7366"/>
    <line x1="342.953" x2="323.8474" y1="302.8955" y2="302.8955"/>
    <line x1="323.8474" x2="342.953" y1="299.0545" y2="299.0545"/>
    <line x1="342.953" x2="323.8474" y1="295.2135" y2="295.2135"/>
    <line x1="323.8474" x2="342.953" y1="291.3725" y2="291.3725"/>
    <line x1="342.953" x2="323.8474" y1="287.5314" y2="287.5314"/>
    <line x1="323.8474" x2="342.953" y1="283.6904" y2="283.6904"/>
    <line x1="342.953" x2="323.8474" y1="279.8494" y2="279.8494"/>
    <line x1="323.8474" x2="342.953" y1="276.0084" y2="276.0084"/>
    <line x1="342.953" x2="323.8474" y1="272.1673" y2="272.1673"/>
    <line x1="323.8474" x2="342.953" y1="268.3263" y2="268.3263"/>
    <line x1="342.953" x2="323.8474" y1="264.4853" y2="264.4853"/>
    <line x1="323.8474" x2="342.953" y1="260.6443" y2="260.6443"/>
    <line x1="342.953" x2="323.8474" y1="256.8032" y2="256.8032"/>
    <line x1="323.8474" x2="342.953" y1="252.9622" y2="252.9622"/>
    <line x1="342.953" x2="323.8474" y1="249.1212" y2="249.1212"/>
    <line x1="323.8474" x2="342.953" y1="245.2801" y2="245.2801"/>
    <line x1="336.5845" x2="336.5845" y1="241.4391" y2="506.4699"/>
    <line x1="330.2159" x2="330.2159" y1="506.4699" y2="241.4391"/>
    <polygon points="323.8474,241.4391 323.8474,506.4699 342.953,506.4699 342.953,241.4391"/>
    <polygon points="353.6168,241.4391 372.7224,241.4391 372.7224,506.4699 353.6168,506.4699"/>
    <line x1="227.19" x2="159.1049" y1="239.4666" y2="239.4666"/>
    <line x1="159.1049" x2="227.19" y1="244.8401" y2="244.8401"/>
    <line x1="227.19" x2="159.1049" y1="250.2136" y2="250.2136"/>
    <line x1="159.1049" x2="227.19" y1="255.5871" y2="255.5871"/>
    <line x1="227.19" x2="159.1049" y1="260.9606" y2="260.9606"/>
    <line x1="159.1049" x2="227.19" y1="266.3341" y2="266.3341"/>
    <line x1="227.19" x2="159.1049" y1="271.7076" y2="271.7076"/>
    <line x1="159.1049" x2="227.19" y1="277.0811" y2="277.0811"/>
    <line x1="227.19" x2="159.1049" y1="282.4546" y2="282.4546"/>
    <line x1="159.1049" x2="227.19" y1="287.8281" y2="287.8281"/>
    <line x1="227.19" x2="159.1049" y1="293.2016" y2="293.2016"/>
    <line x1="159.1049" x2="227.19" y1="298.5751" y2="298.5751"/>
    <line x1="227.19" x2="159.1049" y1="303.9486" y2="303.9486"/>
    <line x1="159.1049" x2="227.19" y1="309.3221" y2="309.3221"/>
    <line x1="227.19" x2="159.1049" y1="314.6956" y2="314.6956"/>
    <line x1="159.1049" x2="227.19" y1="320.0691" y2="320.0691"/>
    <line x1="227.19" x2="159.1049" y1="325.4426" y2="325.4426"/>
    <line x1="159.1049" x2="227.19" y1="330.8161" y2="330.8161"/>
    <line x1="227.19" x2="159.1049" y1="336.1896" y2="336.1896"/>
    <line x1="159.1049" x2="227.19" y1="341.5631" y2="341.5631"/>
    <line x1="227.19" x2="159.1049" y1="346.9366" y2="346.9366"/>
    <line x1="159.1049" x2="227.19" y1="352.3101" y2="352.3101"/>
    <line x1="227.19" x2="159.1049" y1="357.6836" y2="357.6836"/>
    <line x1="159.1049" x2="227.19" y1="363.0571" y2="363.0571"/>
    <line x1="227.19" x2="159.1049" y1="368.4306" y2="368.4306"/>
    <line x1="159.1049" x2="227.19" y1="373.8041" y2="373.8041"/>
    <line x1="227.19" x2="159.1049" y1="379.1776" y2="379.1776"/>
    <line x1="159.1049" x2="227.19" y1="384.5511" y2="384.5511"/>
    <line x1="227.19" x2="159.1049" y1="389.9246" y2="389.9246"/>
    <line x1="159.1049" x2="227.19" y1="395.2981" y2="395.2981"/>
    <line x1="227.19" x2="159.1049" y1="400.6716" y2="400.6716"/>
    <line x1="159.1049" x2="227.19" y1="406.0451" y2="406.0451"/>
    <line x1="227.19" x2="159.1049" y1="411.4186" y2="411.4186"/>
    <line x1="159.1049" x2="227.19" y1="416.7921" y2="416.7921"/>
    <line x1="227.19" x2="159.1049" y1="422.1656" y2="422.1656"/>
    <line x1="159.1049" x2="227.19" y1="427.5391" y2="427.5391"/>
    <line x1="227.19" x2="159.1049" y1="432.9126" y2="432.9126"/>
    <line x1="159.1049" x2="227.19" y1="438.2861" y2="438.2861"/>
    <line x1="227.19" x2="159.1049" y1="443.6596" y2="443.6596"/>
    <line x1="159.1049" x2="227.19" y1="449.0331" y2="449.0331"/>
    <line x1="227.19" x2="159.1049" y1="454.4066" y2="454.4066"/>
    <line x1="159.1049" x2="227.19" y1="459.7801" y2="459.7801"/>
    <line x1="227.19" x2="159.1049" y1="465.1536" y2="465.1536"/>
    <line x1="159.1049" x2="227.19" y1="470.5271" y2="470.5271"/>
    <line x1="227.19" x2="159.1049" y1="475.9006" y2="475.9006"/>
    <line x1="159.1049" x2="227.19" y1="481.2741" y2="481.2741"/>
    <line x1="227.19" x2="159.1049" y1="486.6476" y2="486.6476"/>
    <line x1="159.1049" x2="227.19" y1="492.0211" y2="492.0211"/>
    <line x1="227.19" x2="159.1049" y1="497.3946" y2="497.3946"/>
    <line x1="159.1049" x2="227.19" y1="502.7681" y2="502.7681"/>
    <line x1="227.19" x2="159.1049" y1="508.1416" y2="508.1416"/>
    <line x1="159.1049" x2="227.19" y1="513.5151" y2="513.5151"/>
    <polygon points="227.19,518.8886 159.1049,518.8886 159.1049,174.9846 227.19,174.9846"/>
    <line x1="210.1687" x2="210.1687" y1="518.8886" y2="174.9846"/>
    <line x1="193.1475" x2="193.1475" y1="174.9846" y2="518.8886"/>
    <line x1="176.1262" x2="176.1262" y1="518.8886" y2="174.9846"/>
    <line x1="159.1049" x2="227.19" y1="180.3581" y2="180.3581"/>
    <line x1="227.19" x2="159.1049" y1="185.7316" y2="185.7316"/>
    <line x1="159.1049" x2="227.19" y1="191.1051" y2="191.1051"/>
    <line x1="227.19" x2="159.1049" y1="196.4786" y2="196.4786"/>
    <line x1="159.1049" x2="227.19" y1="201.8521" y2="201.8521"/>
    <line x1="227.19" x2="159.1049" y1="207.2256" y2="207.2256"/>
    <line x1="159.1049" x2="227.19" y1="212.5991" y2="212.5991"/>
    <line x1="227.19" x2="159.1049" y1="217.9726" y2="217.9726"/>
    <line x1="159.1049" x2="227.19" y1="223.3461" y2="223.3461"/>
    <line x1="227.19" x2="159.1049" y1="228.7196" y2="228.7196"/>
    <line x1="159.1049" x2="227.19" y1="234.0931" y2="234.0931"/>
    <polygon points="122.2194,342.3631 78.1766,342.3631 77.1228,342.5728 76.2294,343.1697 75.6325,344.0631 75.4229,345.1169 75.4229,389.1597 75.6325,390.2135 76.2294,391.1069 77.1228,391.7039 78.1766,391.9135 122.2194,391.9135 123.2732,391.7039 124.1666,391.1069 124.7636,390.2135 124.9732,389.1597 124.9732,345.1169 124.7636,344.0631 124.1666,343.1697 123.2732,342.5728"/>
    <polygon points="106.1395,358.4795 104.1513,357.4096 101.9803,356.7894 100.1038,356.6375 96.4201,357.3402 94.7313,358.1723 92.941,359.5481 91.7024,360.9658 90.5793,362.9246 89.9009,365.0781 89.6985,366.9498 89.9009,369.1986 90.4342,371.0041 91.4863,373.0018 92.6732,374.4632 94.1021,375.689 96.0708,376.7945 98.2303,377.4535 100.1038,377.6391 101.9803,377.4872 104.1513,376.867 105.8249,376.0048 107.5901,374.5971 108.8031,373.1573 109.8909,371.1787 110.5305,369.0134 110.6993,367.1383 110.5305,365.2632 109.8909,363.0979 109.0136,361.4321 107.5901,359.6796"/>
    <polygon points="102.3581,379.8719 104.8998,379.1675 107.2455,377.9616 109.2972,376.3042 110.9695,374.2647 112.1926,371.9279 112.9155,369.3914 113.1135,367.1383 112.9155,364.8852 112.1926,362.3487 111.1731,360.3298 109.5612,358.2422 107.5587,356.5256 105.5945,355.4043 103.0983,354.5527 100.4811,354.2259 98.2242,354.3746 95.6725,355.0417 93.3095,356.2132 91.2337,357.8404 89.7492,359.5468 88.4249,361.8277 87.5915,364.3301 87.2839,366.9496 87.449,369.2053 88.1348,371.7521 89.3236,374.1065 90.9659,376.1703 92.683,377.6423 94.9736,378.9499 97.482,379.765 100.1037,380.0534"/>
    <polygon points="120.1581,387.0984 120.8298,385.4769 120.8298,348.7998 120.1581,347.1782 118.5366,346.5065 81.8595,346.5065 80.2379,347.1782 79.5662,348.7998 79.5662,385.4769 80.2379,387.0984 81.8595,387.7701 118.5366,387.7701"/>
    <polyline points="122.2321,406.0757 124.9732,391.9135 75.4229,391.9135 78.164,406.0757"/>
    <polygon points="96.0181,448.311 96.0181,456.6709 104.378,456.6709 104.378,448.311"/>
    <polygon points="96.0181,459.623 96.0181,467.9829 104.378,467.9829 104.378,459.623"/>
    <polygon points="104.378,470.935 96.0181,470.935 96.0181,479.2949 104.378,479.2949"/>
    <polygon points="104.378,482.247 96.0181,482.247 96.0181,490.6069 104.378,490.6069"/>
    <polygon points="116.5084,511.7246 116.5084,427.1934 83.8877,427.1934 83.8877,511.7246"/>
    <polygon points="125.0333,518.8886 125.0333,591.9545 261.2616,591.9545 261.2616,518.8886"/>
    <line x1="125.0333" x2="261.2616" y1="519.3384" y2="519.3384"/>
    <line x1="261.2616" x2="125.0333" y1="521.9767" y2="521.9767"/>
    <line x1="125.0333" x2="261.2616" y1="526.8126" y2="526.8126"/>
    <line x1="261.2616" x2="125.0333" y1="533.5282" y2="533.5282"/>
    <polygon points="122.2321,532.8422 122.2321,406.0757 78.164,406.0757 78.164,532.8422"/>
    <line x1="125.0333" x2="261.2616" y1="541.6824" y2="541.6824"/>
    <line x1="261.2616" x2="125.0333" y1="550.7393" y2="550.7393"/>
    <line x1="125.0333" x2="261.2616" y1="560.1039" y2="560.1039"/>
    <line x1="261.2616" x2="125.0333" y1="569.1608" y2="569.1608"/>
    <line x1="125.0333" x2="261.2616" y1="577.3149" y2="577.3149"/>
    <line x1="261.2616" x2="125.0333" y1="584.0306" y2="584.0306"/>
    <line x1="125.0333" x2="261.2616" y1="588.8664" y2="588.8664"/>
    <line x1="261.2616" x2="125.0333" y1="591.5047" y2="591.5047"/>
    <polygon points="118.868,580.9723 118.868,578.0009 81.528,578.0009 81.528,580.9723"/>
    <line x1="118.4909" x2="118.4909" y1="580.9723" y2="578.0009"/>
    <line x1="118.1137" x2="118.1137" y1="578.0009" y2="580.9723"/>
    <line x1="117.7365" x2="117.7365" y1="580.9723" y2="578.0009"/>
    <line x1="117.3594" x2="117.3594" y1="578.0009" y2="580.9723"/>
    <line x1="116.9822" x2="116.9822" y1="580.9723" y2="578.0009"/>
    <line x1="116.605" x2="116.605" y1="578.0009" y2="580.9723"/>
    <line x1="116.2278" x2="116.2278" y1="580.9723" y2="578.0009"/>
    <line x1="115.8507" x2="115.8507" y1="578.0009" y2="580.9723"/>
    <line x1="115.4735" x2="115.4735" y1="580.9723" y2="578.0009"/>
    <line x1="115.0963" x2="115.0963" y1="578.0009" y2="580.9723"/>
    <line x1="114.7191" x2="114.7191" y1="580.9723" y2="578.0009"/>
    <line x1="114.342" x2="114.342" y1="578.0009" y2="580.9723"/>
    <line x1="113.9648" x2="113.9648" y1="580.9723" y2="578.0009"/>
    <line x1="113.5876" x2="113.5876" y1="578.0009" y2="580.9723"/>
    <line x1="113.2105" x2="113.2105" y1="580.9723" y2="578.0009"/>
    <line x1="112.8333" x2="112.8333" y1="578.0009" y2="580.9723"/>
    <line x1="112.4561" x2="112.4561" y1="580.9723" y2="578.0009"/>
    <line x1="112.0789" x2="112.0789" y1="578.0009" y2="580.9723"/>
    <line x1="111.7018" x2="111.7018" y1="580.9723" y2="578.0009"/>
    <line x1="111.3246" x2="111.3246" y1="578.0009" y2="580.9723"/>
    <line x1="110.9474" x2="110.9474" y1="580.9723" y2="578.0009"/>
    <line x1="110.5703" x2="110.5703" y1="578.0009" y2="580.9723"/>
    <line x1="110.1931" x2="110.1931" y1="580.9723" y2="578.0009"/>
    <line x1="109.8159" x2="109.8159" y1="578.0009" y2="580.9723"/>
    <line x1="109.4387" x2="109.4387" y1="580.9723" y2="578.0009"/>
    <line x1="109.0616" x2="109.0616" y1="578.0009" y2="580.9723"/>
    <line x1="108.6844" x2="108.6844" y1="580.9723" y2="578.0009"/>
    <line x1="108.3072" x2="108.3072" y1="578.0009" y2="580.9723"/>
    <line x1="107.9301" x2="107.9301" y1="580.9723" y2="578.0009"/>
    <line x1="107.5529" x2="107.5529" y1="578.0009" y2="580.9723"/>
    <line x1="107.1757" x2="107.1757" y1="580.9723" y2="578.0009"/>
    <line x1="106.7985" x2="106.7985" y1="578.0009" y2="580.9723"/>
    <line x1="106.4214" x2="106.4214" y1="580.9723" y2="578.0009"/>
    <line x1="106.0442" x2="106.0442" y1="578.0009" y2="580.9723"/>
    <line x1="105.667" x2="105.667" y1="580.9723" y2="578.0009"/>
    <line x1="105.2898" x2="105.2898" y1="578.0009" y2="580.9723"/>
    <line x1="104.9127" x2="104.9127" y1="580.9723" y2="578.0009"/>
    <line x1="104.5355" x2="104.5355" y1="578.0009" y2="580.9723"/>
    <line x1="104.1583" x2="104.1583" y1="580.9723" y2="578.0009"/>
    <line x1="103.7812" x2="103.7812" y1="578.0009" y2="580.9723"/>
    <line x1="103.404" x2="103.404" y1="580.9723" y2="578.0009"/>
    <line x1="103.0268" x2="103.0268" y1="578.0009" y2="580.9723"/>
    <line x1="102.6496" x2="102.6496" y1="580.9723" y2="578.0009"/>
    <line x1="102.2725" x2="102.2725" y1="578.0009" y2="580.9723"/>
    <line x1="101.8953" x2="101.8953" y1="580.9723" y2="578.0009"/>
    <line x1="101.5181" x2="101.5181" y1="578.0009" y2="580.9723"/>
    <line x1="101.141" x2="101.141" y1="580.9723" y2="578.0009"/>
    <line x1="100.7638" x2="100.7638" y1="578.0009" y2="580.9723"/>
    <line x1="100.3866" x2="100.3866" y1="580.9723" y2="578.0009"/>
    <line x1="100.0094" x2="100.0094" y1="578.0009" y2="580.9723"/>
    <line x1="99.6323" x2="99.6323" y1="580.9723" y2="578.0009"/>
    <line x1="99.2551" x2="99.2551" y1="578.0009" y2="580.9723"/>
    <line x1="98.8779" x2="98.8779" y1="580.9723" y2="578.0009"/>
    <line x1="98.5008" x2="98.5008" y1="578.0009" y2="580.9723"/>
    <line x1="98.1236" x2="98.1236" y1="580.9723" y2="578.0009"/>
    <line x1="97.7464" x2="97.7464" y1="578.0009" y2="580.9723"/>
    <line x1="97.3692" x2="97.3692" y1="580.9723" y2="578.0009"/>
    <line x1="96.9921" x2="96.9921" y1="578.0009" y2="580.9723"/>
    <line x1="96.6149" x2="96.6149" y1="580.9723" y2="578.0009"/>
    <line x1="96.2377" x2="96.2377" y1="578.0009" y2="580.9723"/>
    <line x1="95.8605" x2="95.8605" y1="580.9723" y2="578.0009"/>
    <line x1="95.4834" x2="95.4834" y1="578.0009" y2="580.9723"/>
    <line x1="95.1062" x2="95.1062" y1="580.9723" y2="578.0009"/>
    <line x1="94.729" x2="94.729" y1="578.0009" y2="580.9723"/>
    <line x1="94.3519" x2="94.3519" y1="580.9723" y2="578.0009"/>
    <line x1="93.9747" x2="93.9747" y1="578.0009" y2="580.9723"/>
    <line x1="93.5975" x2="93.5975" y1="580.9723" y2="578.0009"/>
    <line x1="93.2203" x2="93.2203" y1="578.0009" y2="580.9723"/>
    <line x1="92.8432" x2="92.8432" y1="580.9723" y2="578.0009"/>
    <line x1="92.466" x2="92.466" y1="578.0009" y2="580.9723"/>
    <line x1="92.0888" x2="92.0888" y1="580.9723" y2="578.0009"/>
    <line x1="91.7117" x2="91.7117" y1="578.0009" y2="580.9723"/>
    <line x1="91.3345" x2="91.3345" y1="580.9723" y2="578.0009"/>
    <line x1="90.9573" x2="90.9573" y1="578.0009" y2="580.9723"/>
    <line x1="90.5801" x2="90.5801" y1="580.9723" y2="578.0009"/>
    <line x1="90.203" x2="90.203" y1="578.0009" y2="580.9723"/>
    <line x1="89.8258" x2="89.8258" y1="580.9723" y2="578.0009"/>
    <line x1="89.4486" x2="89.4486" y1="578.0009" y2="580.9723"/>
    <line x1="89.0715" x2="89.0715" y1="580.9723" y2="578.0009"/>
    <line x1="88.6943" x2="88.6943" y1="578.0009" y2="580.9723"/>
    <line x1="88.3171" x2="88.3171" y1="580.9723" y2="578.0009"/>
    <line x1="87.9399" x2="87.9399" y1="578.0009" y2="580.9723"/>
    <line x1="87.5628" x2="87.5628" y1="580.9723" y2="578.0009"/>
    <line x1="87.1856" x2="87.1856" y1="578.0009" y2="580.9723"/>
    <line x1="86.8084" x2="86.8084" y1="580.9723" y2="578.0009"/>
    <line x1="86.4312" x2="86.4312" y1="578.0009" y2="580.9723"/>
    <line x1="86.0541" x2="86.0541" y1="580.9723" y2="578.0009"/>
    <line x1="85.6769" x2="85.6769" y1="578.0009" y2="580.9723"/>
    <line x1="85.2997" x2="85.2997" y1="580.9723" y2="578.0009"/>
    <line x1="84.9226" x2="84.9226" y1="578.0009" y2="580.9723"/>
    <line x1="84.5454" x2="84.5454" y1="580.9723" y2="578.0009"/>
    <line x1="84.1682" x2="84.1682" y1="578.0009" y2="580.9723"/>
    <line x1="83.791" x2="83.791" y1="580.9723" y2="578.0009"/>
    <line x1="83.4139" x2="83.4139" y1="578.0009" y2="580.9723"/>
    <line x1="83.0367" x2="83.0367" y1="580.9723" y2="578.0009"/>
    <line x1="82.6595" x2="82.6595" y1="578.0009" y2="580.9723"/>
    <line x1="82.2824" x2="82.2824" y1="580.9723" y2="578.0009"/>
    <line x1="81.9052" x2="81.9052" y1="578.0009" y2="580.9723"/>
    <polyline points="75.3628,578.0009 60.16,580.4701 60.16,530.373 75.3628,532.8422 125.0333,532.8422 125.0333,578.0009 75.3628,578.0009 75.3628,532.8422"/>
    <polyline points="163.6098,591.9545 162.8549,609.383 223.44,609.383 222.6852,591.9545"/>
    <line x1="223.0671" x2="223.0671" y1="609.383" y2="788.3662"/>
    <line x1="219.5776" x2="219.5776" y1="788.3662" y2="609.383"/>
    <polygon points="223.44,609.383 162.8549,609.383 162.8549,788.3662 223.44,788.3662"/>
    <line x1="212.8209" x2="212.8209" y1="609.383" y2="788.3662"/>
    <line x1="203.6322" x2="203.6322" y1="788.3662" y2="609.383"/>
    <line x1="193.1475" x2="193.1475" y1="609.383" y2="788.3662"/>
    <line x1="182.6627" x2="182.6627" y1="788.3662" y2="609.383"/>
    <line x1="173.474" x2="173.474" y1="609.383" y2="788.3662"/>
    <line x1="166.7173" x2="166.7173" y1="788.3662" y2="609.383"/>
    <line x1="163.2278" x2="163.2278" y1="609.383" y2="788.3662"/>
    <polygon points="150.9542,813.633 150.6204,817.3876 150.7278,920.3987 151.2203,923.7556 152.2113,927.3924 153.6538,930.8748 155.3191,933.8309 157.5501,936.8691 160.1471,939.6011 162.763,941.7618 165.9363,943.7961 171.8333,946.2826 178.1255,947.4515 206.2856,947.5351 211.1615,947.0704 217.3031,945.2709 220.3586,943.7961 223.2265,941.9831 228.0024,937.723 230.1298,935.0799 231.9427,932.212 233.5597,928.8071 234.6367,925.5897 235.3407,922.2707 235.6626,918.8931 235.6841,818.1419 235.2171,812.8889 233.8306,807.8006 231.7576,803.3631 228.7448,799.0346 225.0158,795.3055 220.6873,792.2928 216.2497,790.2197 211.1615,788.8333 206.2856,788.3686 180.0093,788.3686 176.6247,788.6048 172.9231,789.3168 167.2735,791.4092 162.1606,794.596 157.794,798.7468 154.3522,803.6917 152.8774,806.7472 151.6582,810.314"/>
    <line x1="223.44" x2="227.2055" y1="726.7338" y2="726.7338"/>
    <line x1="227.2055" x2="223.44" y1="726.3548" y2="726.3548"/>
    <line x1="223.44" x2="227.2055" y1="725.9758" y2="725.9758"/>
    <line x1="227.2055" x2="223.44" y1="725.5967" y2="725.5967"/>
    <line x1="223.44" x2="227.2055" y1="725.2177" y2="725.2177"/>
    <line x1="227.2055" x2="223.44" y1="724.8386" y2="724.8386"/>
    <line x1="223.44" x2="227.2055" y1="724.4596" y2="724.4596"/>
    <line x1="227.2055" x2="223.44" y1="724.0806" y2="724.0806"/>
    <line x1="223.44" x2="227.2055" y1="723.7015" y2="723.7015"/>
    <line x1="227.2055" x2="223.44" y1="723.3225" y2="723.3225"/>
    <line x1="223.44" x2="227.2055" y1="722.9435" y2="722.9435"/>
    <line x1="227.2055" x2="223.44" y1="722.5644" y2="722.5644"/>
    <line x1="223.44" x2="227.2055" y1="722.1854" y2="722.1854"/>
    <line x1="227.2055" x2="223.44" y1="721.8063" y2="721.8063"/>
    <line x1="223.44" x2="227.2055" y1="721.4273" y2="721.4273"/>
    <line x1="227.2055" x2="223.44" y1="721.0483" y2="721.0483"/>
    <line x1="223.44" x2="227.2055" y1="720.6692" y2="720.6692"/>
    <line x1="227.2055" x2="223.44" y1="720.2902" y2="720.2902"/>
    <line x1="223.44" x2="227.2055" y1="719.9112" y2="719.9112"/>
    <line x1="227.2055" x2="223.44" y1="719.5321" y2="719.5321"/>
    <line x1="223.44" x2="227.2055" y1="719.1531" y2="719.1531"/>
    <line x1="227.2055" x2="223.44" y1="718.7741" y2="718.7741"/>
    <line x1="223.44" x2="227.2055" y1="718.395" y2="718.395"/>
    <line x1="227.2055" x2="223.44" y1="718.016" y2="718.016"/>
    <line x1="223.44" x2="227.2055" y1="717.6369" y2="717.6369"/>
    <line x1="227.2055" x2="223.44" y1="717.2579" y2="717.2579"/>
    <line x1="223.44" x2="227.2055" y1="716.8789" y2="716.8789"/>
    <line x1="227.2055" x2="223.44" y1="716.4998" y2="716.4998"/>
    <line x1="223.44" x2="227.2055" y1="716.1208" y2="716.1208"/>
    <line x1="227.2055" x2="223.44" y1="715.7418" y2="715.7418"/>
    <line x1="223.44" x2="227.2055" y1="715.3627" y2="715.3627"/>
    <line x1="227.2055" x2="223.44" y1="714.9837" y2="714.9837"/>
    <line x1="223.44" x2="227.2055" y1="714.6046" y2="714.6046"/>
    <line x1="227.2055" x2="223.44" y1="714.2256" y2="714.2256"/>
    <line x1="223.44" x2="227.2055" y1="713.8466" y2="713.8466"/>
    <line x1="227.2055" x2="223.44" y1="713.4675" y2="713.4675"/>
    <line x1="223.44" x2="227.2055" y1="713.0885" y2="713.0885"/>
    <line x1="227.2055" x2="223.44" y1="712.7095" y2="712.7095"/>
    <line x1="223.44" x2="227.2055" y1="712.3304" y2="712.3304"/>
    <line x1="227.2055" x2="223.44" y1="711.9514" y2="711.9514"/>
    <line x1="223.44" x2="227.2055" y1="711.5724" y2="711.5724"/>
    <line x1="227.2055" x2="223.44" y1="711.1933" y2="711.1933"/>
    <line x1="223.44" x2="227.2055" y1="710.8143" y2="710.8143"/>
    <line x1="227.2055" x2="223.44" y1="710.4352" y2="710.4352"/>
    <line x1="223.44" x2="227.2055" y1="710.0562" y2="710.0562"/>
    <line x1="227.2055" x2="223.44" y1="709.6772" y2="709.6772"/>
    <line x1="223.44" x2="227.2055" y1="709.2981" y2="709.2981"/>
    <line x1="227.2055" x2="223.44" y1="708.9191" y2="708.9191"/>
    <line x1="223.44" x2="227.2055" y1="708.5401" y2="708.5401"/>
    <line x1="227.2055" x2="223.44" y1="708.161" y2="708.161"/>
    <line x1="223.44" x2="227.2055" y1="707.782" y2="707.782"/>
    <line x1="227.2055" x2="223.44" y1="707.403" y2="707.403"/>
    <line x1="223.44" x2="227.2055" y1="707.0239" y2="707.0239"/>
    <line x1="227.2055" x2="223.44" y1="706.6449" y2="706.6449"/>
    <line x1="223.44" x2="227.2055" y1="706.2658" y2="706.2658"/>
    <line x1="227.2055" x2="223.44" y1="705.8868" y2="705.8868"/>
    <line x1="223.44" x2="227.2055" y1="705.5078" y2="705.5078"/>
    <line x1="227.2055" x2="223.44" y1="705.1287" y2="705.1287"/>
    <line x1="223.44" x2="227.2055" y1="704.7497" y2="704.7497"/>
    <line x1="227.2055" x2="223.44" y1="704.3707" y2="704.3707"/>
    <line x1="223.44" x2="227.2055" y1="703.9916" y2="703.9916"/>
    <line x1="227.2055" x2="223.44" y1="703.6126" y2="703.6126"/>
    <line x1="223.44" x2="227.2055" y1="703.2335" y2="703.2335"/>
    <line x1="227.2055" x2="223.44" y1="702.8545" y2="702.8545"/>
    <line x1="223.44" x2="227.2055" y1="702.4755" y2="702.4755"/>
    <line x1="227.2055" x2="223.44" y1="702.0964" y2="702.0964"/>
    <line x1="223.44" x2="227.2055" y1="701.7174" y2="701.7174"/>
    <line x1="227.2055" x2="223.44" y1="701.3384" y2="701.3384"/>
    <line x1="223.44" x2="227.2055" y1="700.9593" y2="700.9593"/>
    <line x1="227.2055" x2="223.44" y1="700.5803" y2="700.5803"/>
    <line x1="223.44" x2="227.2055" y1="700.2013" y2="700.2013"/>
    <line x1="227.2055" x2="223.44" y1="699.8222" y2="699.8222"/>
    <line x1="223.44" x2="227.2055" y1="699.4432" y2="699.4432"/>
    <line x1="227.2055" x2="223.44" y1="699.0641" y2="699.0641"/>
    <line x1="223.44" x2="227.2055" y1="698.6851" y2="698.6851"/>
    <line x1="227.2055" x2="223.44" y1="698.3061" y2="698.3061"/>
    <line x1="223.44" x2="227.2055" y1="697.927" y2="697.927"/>
    <line x1="227.2055" x2="223.44" y1="697.548" y2="697.548"/>
    <line x1="223.44" x2="227.2055" y1="697.169" y2="697.169"/>
    <line x1="227.2055" x2="223.44" y1="696.7899" y2="696.7899"/>
    <line x1="223.44" x2="227.2055" y1="696.4109" y2="696.4109"/>
    <line x1="227.2055" x2="223.44" y1="696.0318" y2="696.0318"/>
    <line x1="223.44" x2="227.2055" y1="695.6528" y2="695.6528"/>
    <line x1="227.2055" x2="223.44" y1="695.2738" y2="695.2738"/>
    <line x1="223.44" x2="227.2055" y1="694.8947" y2="694.8947"/>
    <line x1="227.2055" x2="223.44" y1="694.5157" y2="694.5157"/>
    <line x1="223.44" x2="227.2055" y1="694.1367" y2="694.1367"/>
    <line x1="227.2055" x2="223.44" y1="693.7576" y2="693.7576"/>
    <line x1="223.44" x2="227.2055" y1="693.3786" y2="693.3786"/>
    <line x1="227.2055" x2="223.44" y1="692.9996" y2="692.9996"/>
    <line x1="223.44" x2="227.2055" y1="692.6205" y2="692.6205"/>
    <line x1="227.2055" x2="223.44" y1="692.2415" y2="692.2415"/>
    <line x1="223.44" x2="227.2055" y1="691.8624" y2="691.8624"/>
    <line x1="227.2055" x2="223.44" y1="691.4834" y2="691.4834"/>
    <line x1="223.44" x2="227.2055" y1="691.1044" y2="691.1044"/>
    <line x1="227.2055" x2="223.44" y1="690.7253" y2="690.7253"/>
    <line x1="223.44" x2="227.2055" y1="690.3463" y2="690.3463"/>
    <line x1="227.2055" x2="223.44" y1="689.9673" y2="689.9673"/>
    <line x1="223.44" x2="227.2055" y1="689.5882" y2="689.5882"/>
    <line x1="227.2055" x2="223.44" y1="689.2092" y2="689.2092"/>
    <line x1="223.44" x2="227.2055" y1="688.8302" y2="688.8302"/>
    <line x1="227.2055" x2="223.44" y1="688.4511" y2="688.4511"/>
    <line x1="223.44" x2="227.2055" y1="688.0721" y2="688.0721"/>
    <line x1="227.2055" x2="223.44" y1="687.693" y2="687.693"/>
    <line x1="223.44" x2="227.2055" y1="687.314" y2="687.314"/>
    <line x1="227.2055" x2="223.44" y1="686.935" y2="686.935"/>
    <line x1="223.44" x2="227.2055" y1="686.5559" y2="686.5559"/>
    <line x1="227.2055" x2="223.44" y1="686.1769" y2="686.1769"/>
    <line x1="223.44" x2="227.2055" y1="685.7979" y2="685.7979"/>
    <line x1="227.2055" x2="223.44" y1="685.4188" y2="685.4188"/>
    <line x1="223.44" x2="227.2055" y1="685.0398" y2="685.0398"/>
    <line x1="227.2055" x2="223.44" y1="684.6607" y2="684.6607"/>
    <line x1="223.44" x2="227.2055" y1="684.2817" y2="684.2817"/>
    <line x1="227.2055" x2="223.44" y1="683.9027" y2="683.9027"/>
    <line x1="223.44" x2="227.2055" y1="683.5236" y2="683.5236"/>
    <line x1="227.2055" x2="223.44" y1="683.1446" y2="683.1446"/>
    <line x1="223.44" x2="227.2055" y1="682.7656" y2="682.7656"/>
    <line x1="227.2055" x2="223.44" y1="682.3865" y2="682.3865"/>
    <line x1="223.44" x2="227.2055" y1="682.0075" y2="682.0075"/>
    <line x1="227.2055" x2="223.44" y1="681.6285" y2="681.6285"/>
    <line x1="223.44" x2="227.2055" y1="681.2494" y2="681.2494"/>
    <line x1="227.2055" x2="223.44" y1="680.8704" y2="680.8704"/>
    <line x1="223.44" x2="227.2055" y1="680.4913" y2="680.4913"/>
    <line x1="227.2055" x2="223.44" y1="680.1123" y2="680.1123"/>
    <line x1="223.44" x2="227.2055" y1="679.7333" y2="679.7333"/>
    <line x1="227.2055" x2="223.44" y1="679.3542" y2="679.3542"/>
    <line x1="223.44" x2="227.2055" y1="678.9752" y2="678.9752"/>
    <line x1="227.2055" x2="223.44" y1="678.5962" y2="678.5962"/>
    <line x1="223.44" x2="227.2055" y1="678.2171" y2="678.2171"/>
    <line x1="227.2055" x2="223.44" y1="677.8381" y2="677.8381"/>
    <line x1="223.44" x2="227.2055" y1="677.459" y2="677.459"/>
    <line x1="227.2055" x2="223.44" y1="677.08" y2="677.08"/>
    <line x1="223.44" x2="227.2055" y1="676.701" y2="676.701"/>
    <line x1="227.2055" x2="223.44" y1="676.3219" y2="676.3219"/>
    <line x1="223.44" x2="227.2055" y1="675.9429" y2="675.9429"/>
    <line x1="227.2055" x2="223.44" y1="675.5639" y2="675.5639"/>
    <line x1="223.44" x2="227.2055" y1="675.1848" y2="675.1848"/>
    <line x1="227.2055" x2="223.44" y1="674.8058" y2="674.8058"/>
    <line x1="223.44" x2="227.2055" y1="674.4268" y2="674.4268"/>
    <line x1="227.2055" x2="223.44" y1="674.0477" y2="674.0477"/>
    <line x1="223.44" x2="227.2055" y1="673.6687" y2="673.6687"/>
    <line x1="227.2055" x2="223.44" y1="673.2896" y2="673.2896"/>
    <line x1="223.44" x2="227.2055" y1="672.9106" y2="672.9106"/>
    <line x1="227.2055" x2="223.44" y1="672.5316" y2="672.5316"/>
    <line x1="223.44" x2="227.2055" y1="672.1525" y2="672.1525"/>
    <line x1="227.2055" x2="223.44" y1="671.7735" y2="671.7735"/>
    <line x1="223.44" x2="227.2055" y1="671.3945" y2="671.3945"/>
    <line x1="227.2055" x2="223.44" y1="671.0154" y2="671.0154"/>
    <polygon points="223.44,670.6364 223.44,727.1129 227.2055,727.1129 227.2055,670.6364"/>
    <polygon points="227.1949,670.6364 227.1949,727.1129 232.8417,727.1129 232.8417,670.6364"/>
    <polygon points="246.1624,683.0679 232.8311,670.6364 232.8311,727.1129 246.1624,714.6813"/>
    <line x1="248.3726" x2="251.6666" y1="685.3816" y2="685.3816"/>
    <line x1="251.6666" x2="248.3726" y1="685.7617" y2="685.7617"/>
    <line x1="248.3726" x2="251.6666" y1="686.1418" y2="686.1418"/>
    <line x1="251.6666" x2="248.3726" y1="686.5219" y2="686.5219"/>
    <line x1="248.3726" x2="251.6666" y1="686.902" y2="686.902"/>
    <line x1="251.6666" x2="248.3726" y1="687.2821" y2="687.2821"/>
    <line x1="248.3726" x2="251.6666" y1="687.6621" y2="687.6621"/>
    <line x1="251.6666" x2="248.3726" y1="688.0422" y2="688.0422"/>
    <line x1="248.3726" x2="251.6666" y1="688.4223" y2="688.4223"/>
    <line x1="251.6666" x2="248.3726" y1="688.8024" y2="688.8024"/>
    <line x1="248.3726" x2="251.6666" y1="689.1825" y2="689.1825"/>
    <line x1="251.6666" x2="248.3726" y1="689.5626" y2="689.5626"/>
    <line x1="248.3726" x2="251.6666" y1="689.9426" y2="689.9426"/>
    <line x1="251.6666" x2="248.3726" y1="690.3227" y2="690.3227"/>
    <line x1="248.3726" x2="251.6666" y1="690.7028" y2="690.7028"/>
    <line x1="251.6666" x2="248.3726" y1="691.0829" y2="691.0829"/>
    <line x1="248.3726" x2="251.6666" y1="691.463" y2="691.463"/>
    <line x1="251.6666" x2="248.3726" y1="691.8431" y2="691.8431"/>
    <line x1="248.3726" x2="251.6666" y1="692.2231" y2="692.2231"/>
    <line x1="251.6666" x2="248.3726" y1="692.6032" y2="692.6032"/>
    <line x1="248.3726" x2="251.6666" y1="692.9833" y2="692.9833"/>
    <line x1="251.6666" x2="248.3726" y1="693.3634" y2="693.3634"/>
    <line x1="248.3726" x2="251.6666" y1="693.7435" y2="693.7435"/>
    <line x1="251.6666" x2="248.3726" y1="694.1236" y2="694.1236"/>
    <line x1="248.3726" x2="251.6666" y1="694.5037" y2="694.5037"/>
    <line x1="251.6666" x2="248.3726" y1="694.8837" y2="694.8837"/>
    <line x1="248.3726" x2="251.6666" y1="695.2638" y2="695.2638"/>
    <line x1="251.6666" x2="248.3726" y1="695.6439" y2="695.6439"/>
    <line x1="248.3726" x2="251.6666" y1="696.024" y2="696.024"/>
    <line x1="251.6666" x2="248.3726" y1="696.4041" y2="696.4041"/>
    <line x1="248.3726" x2="251.6666" y1="696.7842" y2="696.7842"/>
    <line x1="251.6666" x2="248.3726" y1="697.1642" y2="697.1642"/>
    <line x1="248.3726" x2="251.6666" y1="697.5443" y2="697.5443"/>
    <line x1="251.6666" x2="248.3726" y1="697.9244" y2="697.9244"/>
    <line x1="248.3726" x2="251.6666" y1="698.3045" y2="698.3045"/>
    <line x1="251.6666" x2="248.3726" y1="698.6846" y2="698.6846"/>
    <line x1="248.3726" x2="251.6666" y1="699.0647" y2="699.0647"/>
    <line x1="251.6666" x2="248.3726" y1="699.4448" y2="699.4448"/>
    <line x1="248.3726" x2="251.6666" y1="699.8248" y2="699.8248"/>
    <line x1="251.6666" x2="248.3726" y1="700.2049" y2="700.2049"/>
    <line x1="248.3726" x2="251.6666" y1="700.585" y2="700.585"/>
    <line x1="251.6666" x2="248.3726" y1="700.9651" y2="700.9651"/>
    <line x1="248.3726" x2="251.6666" y1="701.3452" y2="701.3452"/>
    <line x1="251.6666" x2="248.3726" y1="701.7253" y2="701.7253"/>
    <line x1="248.3726" x2="251.6666" y1="702.1053" y2="702.1053"/>
    <line x1="251.6666" x2="248.3726" y1="702.4854" y2="702.4854"/>
    <line x1="248.3726" x2="251.6666" y1="702.8655" y2="702.8655"/>
    <line x1="251.6666" x2="248.3726" y1="703.2456" y2="703.2456"/>
    <line x1="248.3726" x2="251.6666" y1="703.6257" y2="703.6257"/>
    <line x1="251.6666" x2="248.3726" y1="704.0058" y2="704.0058"/>
    <line x1="248.3726" x2="251.6666" y1="704.3858" y2="704.3858"/>
    <line x1="251.6666" x2="248.3726" y1="704.7659" y2="704.7659"/>
    <line x1="248.3726" x2="251.6666" y1="705.146" y2="705.146"/>
    <line x1="251.6666" x2="248.3726" y1="705.5261" y2="705.5261"/>
    <line x1="248.3726" x2="251.6666" y1="705.9062" y2="705.9062"/>
    <line x1="251.6666" x2="248.3726" y1="706.2863" y2="706.2863"/>
    <line x1="248.3726" x2="251.6666" y1="706.6664" y2="706.6664"/>
    <line x1="251.6666" x2="248.3726" y1="707.0464" y2="707.0464"/>
    <line x1="248.3726" x2="251.6666" y1="707.4265" y2="707.4265"/>
    <line x1="251.6666" x2="248.3726" y1="707.8066" y2="707.8066"/>
    <line x1="248.3726" x2="251.6666" y1="708.1867" y2="708.1867"/>
    <line x1="251.6666" x2="248.3726" y1="708.5668" y2="708.5668"/>
    <line x1="248.3726" x2="251.6666" y1="708.9469" y2="708.9469"/>
    <line x1="251.6666" x2="248.3726" y1="709.3269" y2="709.3269"/>
    <line x1="248.3726" x2="251.6666" y1="709.707" y2="709.707"/>
    <line x1="251.6666" x2="248.3726" y1="710.0871" y2="710.0871"/>
    <line x1="248.3726" x2="251.6666" y1="710.4672" y2="710.4672"/>
    <line x1="251.6666" x2="248.3726" y1="710.8473" y2="710.8473"/>
    <line x1="248.3726" x2="251.6666" y1="711.2274" y2="711.2274"/>
    <line x1="251.6666" x2="248.3726" y1="711.6075" y2="711.6075"/>
    <line x1="248.3726" x2="251.6666" y1="711.9875" y2="711.9875"/>
    <line x1="251.6666" x2="248.3726" y1="712.3676" y2="712.3676"/>
    <polygon points="248.3514,714.6813 248.3514,683.0679 246.1413,683.0679 246.1413,714.6813"/>
    <polygon points="251.6666,685.0015 248.3726,685.0015 248.3726,712.7477 251.6666,712.7477"/>
    <polygon points="284.007,591.9219 412.5628,591.9219 412.5628,518.9212 284.007,518.9212"/>
    <polyline points="284.007,591.9219 261.2616,591.9545 261.2616,518.8886 284.007,518.9212"/>
    <polygon points="346.8671,518.9212 349.7027,518.9212 349.7027,509.3055 346.8671,509.3055"/>
    <polygon points="346.2304,551.2372 345.6399,549.6542 344.8172,549.0384 343.8131,548.8199 335.4444,548.8199 333.8614,549.4104 333.2455,550.233 333.0271,551.2372 333.0271,559.6059 333.6175,561.1889 335.1003,561.9986 343.8131,562.0232 345.3961,561.4328 346.2057,559.9499"/>
    <polygon points="350.3394,551.2372 350.3394,559.6059 350.9298,561.1889 352.4127,561.9986 361.1254,562.0232 362.7084,561.4328 363.5181,559.9499 363.5427,551.2372 362.9523,549.6542 362.1296,549.0384 361.1254,548.8199 352.7567,548.8199 351.1737,549.4104 350.5579,550.233"/>
    <line x1="476.4786" x2="476.4786" y1="592.0885" y2="596.7855"/>
    <polygon points="477.0076,597.1698 476.4786,596.7855 475.9497,597.1698 475.9497,597.5135 476.4786,597.8978 477.0076,597.5135"/>
  </g>
</svg>
