<?xml version="1.0" encoding="utf-8" ?>
<svg xmlns="http://www.w3.org/2000/svg" xmlns:cc="http://creativecommons.org/ns" xmlns:dc="http://purl.org/dc/elements/1.1/" xmlns:ev="http://www.w3.org/2001/xml-events" xmlns:inkscape="http://www.inkscape.org/namespaces/inkscape" xmlns:rdf="http://www.w3.org/1999/02/22-rdf-syntax-ns" xmlns:sodipodi="http://sodipodi.sourceforge.net/DTD/sodipodi-0.dtd" xmlns:xlink="http://www.w3.org/1999/xlink" baseProfile="tiny" height="21.0cm" version="1.2" viewBox="0 0 1122.5196850393702 793.7007874015749" width="29.7cm">
  <metadata>
    <rdf:RDF>
      <cc:Work>
        <dc:format>image/svg+xml</dc:format>
        <dc:source>Vsketch with params {'__seed__': 311308318, 'debug_grid': False, 'debug_tile_indices': False, 'debug_cell_indices': False, 'debug_valid_dirs': False, 'debug_tiles_order': False, 'debug_print': False, 'n_rows': 18, 'n_cols': 28, 'tile_size': 1.0, 'width': 0.1, 'radius_circles': 0.15, 'radius_turns': 0.5, 'connected_edge': True, 'tileset': 'metro', 'use_custom_init': True}</dc:source>
        <dc:date>2025-02-02T21:33:56.320937</dc:date>
      </cc:Work>
    </rdf:RDF>
  </metadata>
  <defs/>
  <g fill="none" id="layer1" inkscape:groupmode="layer" inkscape:label="1" stroke="#0000ff" style="display:inline">
    <polyline points="233.8023,76.9743 133.9135,76.9743 131.224,77.1666 128.5894,77.7398 126.0631,78.682 122.5885,80.7436 56.0302,147.0299 54.2646,149.0676 52.8068,151.3358 51.2607,155.0684 50.6876,157.7031 50.4953,160.3925 50.5914,182.256 51.3491,184.8365 51.9952,186.0197 53.7564,188.0522 54.8357,188.8602 57.282,189.9774 59.9441,190.3601 88.2905,190.3601"/>
    <line x1="88.2905" x2="88.2905" y1="180.9113" y2="199.8089"/>
    <line x1="50.4953" x2="50.4953" y1="218.7066" y2="237.6042"/>
    <polyline points="50.4953,228.1554 81.811,228.1073 85.787,227.3899 88.3132,226.4477 90.6797,225.1555 93.8255,222.6204 159.8723,156.5736"/>
    <polygon points="160.2673,148.1966 158.6099,150.4778 158.2565,153.2754 159.2945,155.8972 160.2673,156.9331 162.8188,158.1337 164.2371,158.223 166.9188,157.3516 168.0138,156.4457 169.3723,153.9747 169.5504,152.5648 169.3723,151.155 168.0138,148.684 165.633,147.173 164.2371,146.9067 161.4672,147.4351"/>
    <polyline points="167.8899,148.5561 197.1287,119.3853 200.4473,117.0812 204.1799,115.5351 206.8146,114.9619 209.504,114.7696 271.5976,114.7696"/>
    <polygon points="282.925,114.4136 282.0536,111.7318 281.1478,110.6368 278.6768,109.2784 277.2669,109.1003 275.857,109.2784 273.386,110.6368 271.8751,113.0177 271.6088,114.4136 272.1372,117.1834 272.8986,118.3833 275.1799,120.0407 277.9775,120.3942 279.3539,120.0407 281.6352,118.3833 282.8358,115.8319"/>
    <line x1="282.9362" x2="309.3929" y1="114.7696" y2="114.7696"/>
    <polygon points="314.3516,120.3942 317.1492,120.0407 318.3945,119.3561 320.1919,117.1834 320.7203,114.4136 320.454,113.0177 318.9431,110.6368 316.4721,109.2784 315.0622,109.1003 313.6523,109.2784 311.1813,110.6368 309.6704,113.0177 309.4041,114.4136 309.9325,117.1834 310.6939,118.3833 312.9752,120.0407"/>
    <line x1="320.7315" x2="347.1882" y1="114.7696" y2="114.7696"/>
    <polygon points="351.4476,109.2784 348.9766,110.6368 347.4656,113.0177 347.1994,114.4136 347.7277,117.1834 348.4892,118.3833 350.7705,120.0407 352.1469,120.3942 354.9445,120.0407 356.1898,119.3561 357.9872,117.1834 358.5156,114.4136 358.2493,113.0177 356.7384,110.6368 354.2674,109.2784 352.8575,109.1003"/>
    <line x1="358.5267" x2="390.6527" y1="114.7696" y2="114.7696"/>
    <line x1="390.6527" x2="390.6527" y1="105.3208" y2="124.2184"/>
    <line x1="352.8575" x2="352.8575" y1="86.4231" y2="67.5255"/>
    <line x1="352.8575" x2="320.7315" y1="76.9743" y2="76.9743"/>
    <polygon points="311.1813,72.8416 309.6704,75.2224 309.4041,76.6183 309.9325,79.3882 310.6939,80.588 312.9752,82.2455 314.3516,82.5989 317.1492,82.2455 318.3945,81.5609 320.1919,79.3882 320.7203,76.6183 320.454,75.2224 318.9431,72.8416 317.7934,72.0063 315.0622,71.305 312.331,72.0063"/>
    <line x1="309.3929" x2="282.9362" y1="76.9743" y2="76.9743"/>
    <polygon points="279.9981,72.0063 277.2669,71.305 274.5357,72.0063 273.386,72.8416 271.8751,75.2224 271.6088,76.6183 272.1372,79.3882 272.8986,80.588 275.1799,82.2455 277.9775,82.5989 279.3539,82.2455 281.6352,80.588 282.8358,78.0366 282.925,76.6183 282.0536,73.9365 281.1478,72.8416"/>
    <line x1="271.5976" x2="245.1409" y1="76.9743" y2="76.9743"/>
    <polygon points="235.5907,72.8416 234.6849,73.9365 233.8135,76.6183 233.9028,78.0366 235.1034,80.588 237.3846,82.2455 238.7611,82.5989 240.1822,82.5989 242.804,81.5609 243.8399,80.588 245.0405,78.0366 245.1297,76.6183 244.2584,73.9365 242.2028,72.0063 239.4716,71.305 236.7404,72.0063"/>
    <line x1="173.3299" x2="154.4323" y1="190.3601" y2="190.3601"/>
    <polyline points="163.8811,190.3601 163.8329,221.6759 163.1156,225.6518 162.1733,228.1781 160.8811,230.5446 158.3461,233.6904 130.7016,261.403 128.3974,264.7217 126.8513,268.4543 126.2782,271.0889 126.0858,273.7783 126.0858,298.0767 124.6759,298.2548 122.2049,299.6132 120.694,301.994 120.4277,303.39 120.9561,306.1598 121.7175,307.3597 123.9988,309.0171 125.3753,309.3705 128.1728,309.0171 129.4181,308.3325 130.4541,307.3597 131.6547,304.8083 131.4776,301.994 129.9667,299.6132 127.4957,298.2548 126.0858,298.0767"/>
    <polyline points="120.4165,303.746 96.3946,303.8421 93.8142,304.5998 91.5517,306.0538 90.5984,307.0071 89.1444,309.2696 88.3867,311.8501 88.2905,332.0924 88.3867,333.4371 89.1444,336.0176 90.5984,338.2801 91.5517,339.2333 93.8142,340.6874 96.3946,341.4451 97.7393,341.5412 158.2118,341.5412"/>
    <polygon points="159.0943,338.5035 158.223,341.1853 158.7514,343.9551 159.5128,345.155 160.5488,346.1278 163.1705,347.1658 164.5916,347.1658 167.2134,346.1278 168.2493,345.155 169.45,342.6035 169.5392,341.1853 168.6678,338.5035 166.6123,336.5732 163.8811,335.8719 162.4712,336.05 160.0002,337.4085"/>
    <line x1="169.5504" x2="196.0071" y1="341.5412" y2="341.5412"/>
    <polygon points="196.1075,342.6035 197.3081,345.155 198.344,346.1278 200.9658,347.1658 202.3869,347.1658 205.0087,346.1278 206.0446,345.155 207.2452,342.6035 207.3345,341.1853 206.4631,338.5035 204.4076,336.5732 201.6764,335.8719 200.2665,336.05 197.7955,337.4085 196.8896,338.5035 196.0183,341.1853"/>
    <polyline points="207.3456,341.5412 233.8023,341.5412 233.9805,342.9511 235.3389,345.4221 237.7197,346.933 239.1157,347.1993 241.8855,346.671 243.0854,345.9095 244.7428,343.6282 245.0962,342.2518 244.7428,339.4542 244.0582,338.2089 241.8855,336.4115 239.1157,335.8831 237.7197,336.1494 235.3389,337.6603 233.9805,340.1313 233.8023,341.5412"/>
    <line x1="239.4716" x2="239.4716" y1="335.8719" y2="309.4152"/>
    <polygon points="239.8276,309.4041 242.5094,308.5327 243.6044,307.6268 244.9628,305.1558 245.1409,303.746 244.9628,302.3361 243.6044,299.8651 241.2235,298.3541 239.8276,298.0878 237.0578,298.6162 234.8851,300.4136 234.2005,301.6589 233.847,304.4565 234.2005,305.833 235.8579,308.1142 238.4093,309.3148"/>
    <polyline points="239.4716,298.0767 239.5678,274.0548 240.3255,271.4743 241.7795,269.2118 242.7328,268.2586 244.9953,266.8045 247.5757,266.0469 267.8181,265.9507 270.4801,265.5679 272.9265,264.4507 274.0057,263.6428 275.7669,261.6103 276.8842,259.1639 277.2669,256.5019 277.1707,198.4642 276.413,195.8838 274.959,193.6213 272.9265,191.8601 270.4801,190.7429 267.8181,190.3601 244.6099,190.5525 241.9752,191.1256 239.4489,192.0679 237.0825,193.3601 234.924,194.9759 167.6504,262.4534 165.5888,265.928 164.6466,268.4543 164.0734,271.0889 163.7849,295.6418 163.0272,298.2223 161.5732,300.4848 159.5407,302.246 157.0943,303.3632 155.777,303.6498 131.7551,303.746"/>
    <line x1="131.7551" x2="158.2118" y1="379.3365" y2="379.3365"/>
    <polygon points="169.45,380.3988 169.5392,378.9805 168.6678,376.2987 166.6123,374.3685 163.8811,373.6672 162.4712,373.8453 160.0002,375.2038 159.0943,376.2987 158.223,378.9805 158.7514,381.7504 159.5128,382.9502 160.5488,383.9231 163.1705,384.9611 164.5916,384.9611 167.2134,383.9231 168.2493,382.9502"/>
    <line x1="169.5504" x2="233.8023" y1="379.3365" y2="379.3365"/>
    <polyline points="239.4716,373.6672 240.8815,373.8453 243.3525,375.2038 244.2584,376.2987 245.1297,378.9805 245.0405,380.3988 243.8399,382.9502 242.804,383.9231 240.1822,384.9611 237.3846,384.6077 235.1034,382.9502 233.9028,380.3988 233.8135,378.9805 234.6849,376.2987 235.5907,375.2038 238.0617,373.8453 239.4716,373.6672 239.4716,347.2105"/>
    <line x1="245.1409" x2="271.5976" y1="379.3365" y2="379.3365"/>
    <polyline points="277.2669,385.0058 277.1707,409.0277 276.413,411.6081 274.959,413.8706 274.0057,414.8239 271.7433,416.2779 269.1628,417.0356 248.9205,417.1318 246.2584,417.5145 244.9953,417.9856 242.7328,419.4397 240.9716,421.4722 240.3255,422.6554 239.5678,425.2359 239.4716,426.5806 239.4716,454.9271"/>
    <line x1="248.9205" x2="230.0228" y1="454.9271" y2="454.9271"/>
    <polyline points="273.2581,458.9358 245.0066,487.1873 242.9689,488.953 240.7006,490.4108 236.9681,491.9568 232.9921,492.6742 207.3456,492.7223"/>
    <polygon points="202.3869,498.3469 205.0087,497.3089 206.0446,496.3361 207.2452,493.7846 207.3345,492.3664 206.4631,489.6846 204.4076,487.7543 201.6764,487.053 200.2665,487.2312 197.7955,488.5896 196.8896,489.6846 196.0183,492.3664 196.1075,493.7846 197.3081,496.3361 198.344,497.3089 200.9658,498.3469"/>
    <line x1="196.0071" x2="169.5504" y1="492.7223" y2="492.7223"/>
    <polyline points="163.8811,487.053 165.291,487.2312 167.762,488.5896 168.6678,489.6846 169.5392,492.3664 169.45,493.7846 168.2493,496.3361 167.2134,497.3089 164.5916,498.3469 163.1705,498.3469 160.5488,497.3089 158.7514,495.1362 158.223,492.3664 159.0943,489.6846 160.0002,488.5896 162.4712,487.2312 163.8811,487.053 163.8811,460.5963"/>
    <polyline points="158.2118,454.9271 158.3899,453.5172 159.7483,451.0462 162.1292,449.5352 163.5251,449.269 166.2949,449.7973 168.4676,451.5947 169.1523,452.84 169.5057,455.6376 169.1523,457.0141 167.4948,459.2953 166.2949,460.0568 163.5251,460.5852 162.1292,460.3189 159.7483,458.808 158.3899,456.337 158.2118,454.9271 131.7551,454.9271 131.0538,457.6583 130.2185,458.808 127.8377,460.3189 126.4418,460.5852 123.6719,460.0568 121.4993,458.2594 120.8146,457.0141 120.4612,454.2165 121.4993,451.5947 122.4721,450.5588 123.6719,449.7973 126.4418,449.269 127.8377,449.5352 130.2185,451.0462 131.0538,452.1959 131.7551,454.9271"/>
    <line x1="126.0858" x2="126.0858" y1="460.5963" y2="487.053"/>
    <polyline points="120.4165,492.7223 96.3946,492.6262 93.8142,491.8685 91.5517,490.4145 90.5984,489.4612 89.1444,487.1987 88.3867,484.6182 88.2905,483.2735 88.2905,417.1318"/>
    <line x1="78.8417" x2="97.7393" y1="417.1318" y2="417.1318"/>
    <polyline points="126.0858,449.2578 126.182,425.2359 126.9397,422.6554 128.3937,420.3929 129.347,419.4397 131.6094,417.9856 134.1899,417.228 154.4323,417.1318 157.0943,417.5145 159.5407,418.6317 161.5732,420.3929 162.3811,421.4722 163.4983,423.9186 163.8811,426.5806 163.8811,449.2578"/>
    <polyline points="158.2118,492.7223 131.7551,492.7223 131.0538,495.4535 130.2185,496.6032 127.8377,498.1141 126.4418,498.3804 123.6719,497.8521 121.4993,496.0547 120.8146,494.8093 120.4612,492.0118 121.4993,489.39 122.4721,488.3541 123.6719,487.5926 126.4418,487.0642 127.8377,487.3305 130.2185,488.8414 131.0538,489.9911 131.7551,492.7223"/>
    <polyline points="126.0858,498.3916 126.0858,521.0688 125.7031,523.7308 124.5858,526.1772 122.8246,528.2097 120.5622,529.6637 119.299,530.1349 116.637,530.5176 96.3946,530.6138 93.8142,531.3715 92.6309,532.0176 90.5984,533.7788 89.1444,536.0412 88.3867,538.6217 88.2905,562.6436"/>
    <polygon points="83.704,564.9806 83.0194,566.2259 82.6659,569.0234 83.0194,570.3999 84.6768,572.6811 85.8767,573.4426 88.6465,573.971 90.0424,573.7047 92.4233,572.1938 93.2586,571.0441 93.9598,568.3129 93.7817,566.903 92.4233,564.432 90.0424,562.9211 87.2282,562.744 85.8767,563.1832"/>
    <polyline points="88.2905,573.9822 88.3867,598.004 89.1444,600.5845 90.5984,602.847 91.5517,603.8003 93.8142,605.2543 96.3946,606.012 120.4165,606.1082"/>
    <polygon points="125.3753,611.7327 128.1728,611.3793 130.4541,609.7219 131.2155,608.522 131.7439,605.7522 131.4776,604.3562 129.9667,601.9754 127.4957,600.617 126.0858,600.4389 124.6759,600.617 122.2049,601.9754 120.694,604.3562 120.4277,605.7522 120.9561,608.522 121.7175,609.7219 123.9988,611.3793"/>
    <polyline points="131.7551,606.1082 155.777,606.012 157.0943,605.7254 159.5407,604.6082 161.5732,602.847 163.0272,600.5845 163.7849,598.004 163.9292,574.7924 164.6466,570.8165 166.1927,567.0839 167.6504,564.8156 169.4161,562.7779 198.1791,534.2869 200.4473,532.8292 202.9,531.7091 206.8146,530.71 232.9921,530.4695 235.661,530.0857 239.4943,528.8099 242.9689,526.7483 245.0066,524.9826 273.2581,496.7311"/>
    <polygon points="271.9957,494.8093 272.6804,496.0547 274.853,497.8521 277.6229,498.3804 279.0188,498.1141 281.3996,496.6032 282.7581,494.1322 282.9362,492.7223 282.7581,491.3124 281.3996,488.8414 279.0188,487.3305 277.6229,487.0642 274.853,487.5926 273.6532,488.3541 272.6804,489.39 271.6423,492.0118"/>
    <line x1="281.2757" x2="311.0534" y1="488.7135" y2="458.9358"/>
    <polygon points="310.4756,458.2594 312.6483,460.0568 315.4182,460.5852 318.0999,459.7138 319.1949,458.808 320.5534,456.337 320.7315,454.9271 320.5534,453.5172 319.1949,451.0462 318.0999,450.1403 315.4182,449.269 312.6483,449.7973 311.4484,450.5588 310.4756,451.5947 309.4376,454.2165 309.4376,455.6376"/>
    <line x1="319.071" x2="348.8487" y1="450.9183" y2="421.1406"/>
    <polygon points="348.2709,420.4641 350.4436,422.2615 353.2134,422.7899 355.8952,421.9185 356.9902,421.0127 358.3486,418.5417 358.5267,417.1318 358.3486,415.7219 356.9902,413.2509 355.8952,412.345 353.2134,411.4737 350.4436,412.0021 349.2437,412.7635 348.2709,413.7995 347.2329,416.4212 347.2329,417.8423"/>
    <line x1="356.8663" x2="386.6439" y1="413.123" y2="383.3453"/>
    <polygon points="388.2389,374.2068 387.039,374.9682 386.0662,376.0042 385.0281,378.626 385.0281,380.0471 386.0662,382.6688 388.2389,384.4662 391.0087,384.9946 393.6905,384.1232 394.7855,383.2174 396.1439,380.7464 396.322,379.3365 396.1439,377.9266 394.7855,375.4556 393.6905,374.5498 391.0087,373.6784"/>
    <line x1="394.6615" x2="424.4392" y1="375.3277" y2="345.55"/>
    <polygon points="433.9392,340.1313 432.5807,337.6603 431.4858,336.7545 428.804,335.8831 426.0341,336.4115 424.8343,337.173 423.8615,338.2089 422.8234,340.8307 422.8234,342.2518 423.8615,344.8736 426.0341,346.671 428.804,347.1993 431.4858,346.328 432.5807,345.4221 433.9392,342.9511 434.1173,341.5412"/>
    <polyline points="432.4568,337.5324 498.5036,271.4857 500.5413,269.72 502.8095,268.2623 506.5421,266.7162 509.1768,266.143 511.8662,265.9507 570.1803,265.9507 572.8423,266.3334 574.1055,266.8045 576.368,268.2586 578.1291,270.2911 579.2464,272.7375 579.6291,275.3995 579.6773,297.2664 580.061,299.9353 580.8206,302.5223 582.629,306.1351 585.1641,309.2809 612.8767,336.9255 615.0352,338.5413 617.4017,339.8335 619.928,340.7757 622.5626,341.3489 647.392,341.5412 651.409,341.1094 653.9961,340.3497 656.4487,339.2296 659.7673,336.9255 687.4799,309.2809 690.015,306.1351 691.8234,302.5223 692.5831,299.9353 692.9668,297.2664 693.0149,271.62"/>
    <polygon points="687.7438,268.0377 689.4012,270.3189 691.9526,271.5195 693.3709,271.6088 696.0527,270.7374 697.1477,269.8316 698.5061,267.3606 698.6842,265.9507 698.5061,264.5408 697.1477,262.0698 694.7668,260.5589 693.3709,260.2926 690.6011,260.8209 689.4012,261.5824 687.7438,263.8637 687.3904,266.6612"/>
    <line x1="693.0149" x2="693.0149" y1="260.2814" y2="233.8247"/>
    <polygon points="698.5061,226.7455 697.1477,224.2745 694.7668,222.7636 693.3709,222.4973 690.6011,223.0257 689.4012,223.7871 687.7438,226.0684 687.3904,228.866 687.7438,230.2424 689.4012,232.5237 691.9526,233.7243 693.3709,233.8135 696.0527,232.9421 697.1477,232.0363 698.5061,229.5653 698.6842,228.1554"/>
    <polyline points="693.0149,222.4861 693.0149,162.0137 693.1111,160.669 693.8688,158.0885 694.5149,156.9053 696.2761,154.8727 698.5386,153.4187 701.1191,152.661 721.3614,152.5648 724.0234,152.9476 726.4698,154.0648 728.5023,155.826 729.9563,158.0885 730.714,160.669 730.8102,218.7066 731.193,221.3686 731.6641,222.6318 732.3102,223.815 734.0714,225.8475 735.1506,226.6554 737.597,227.7727 740.259,228.1554 760.5014,228.2516 763.0819,229.0093 765.3443,230.4633 766.2976,231.4166 767.7516,233.679 768.5093,236.2595 768.7017,257.8466 769.4594,260.427 770.1055,261.6103 771.8666,263.6428 774.1291,265.0968 775.3923,265.5679 778.0543,265.9507 838.5267,265.9507"/>
    <polygon points="840.3151,261.8179 839.4093,262.9129 838.5379,265.5947 839.0663,268.3645 839.8278,269.5644 840.8637,270.5372 843.4855,271.5753 846.283,271.2219 847.5284,270.5372 849.3258,268.3645 849.7649,267.013 849.8541,265.5947 848.9828,262.9129 846.9272,260.9826 844.196,260.2814 841.4648,260.9826"/>
    <polyline points="849.8653,265.9507 948.133,265.9507 950.7951,265.5679 953.2415,264.4507 955.274,262.6895 956.728,260.427 957.4857,257.8466 957.5819,233.8247"/>
    <polyline points="963.2512,228.1554 963.073,226.7455 961.7146,224.2745 959.3338,222.7636 957.9378,222.4973 955.168,223.0257 953.9681,223.7871 952.3107,226.0684 951.9573,228.866 952.3107,230.2424 953.9681,232.5237 956.5195,233.7243 957.9378,233.8135 960.6196,232.9421 961.7146,232.0363 963.073,229.5653 963.2512,228.1554 1023.7236,228.1554 1026.3856,228.5381 1027.6488,229.0093 1029.9113,230.4633 1031.6725,232.4958 1032.3185,233.679 1033.0762,236.2595 1033.1724,237.6042 1033.1724,298.0767"/>
    <polygon points="1030.7586,298.6162 1029.5587,299.3777 1027.9012,301.6589 1027.5478,304.4565 1027.9012,305.833 1029.5587,308.1142 1032.1101,309.3148 1033.5284,309.4041 1036.2102,308.5327 1037.3052,307.6268 1038.1405,306.4772 1038.8417,303.746 1038.1405,301.0148 1037.3052,299.8651 1034.9243,298.3541 1033.5284,298.0878"/>
    <line x1="1033.1724" x2="1033.1724" y1="309.4152" y2="335.8719"/>
    <polygon points="1037.3052,345.4221 1038.1405,344.2724 1038.8417,341.5412 1038.1405,338.81 1037.3052,337.6603 1034.9243,336.1494 1033.5284,335.8831 1030.7586,336.4115 1029.5587,337.173 1027.9012,339.4542 1027.5478,340.8307 1027.9012,343.6282 1028.5859,344.8736 1030.7586,346.671 1033.5284,347.1993 1034.9243,346.933"/>
    <polyline points="1033.1724,347.2105 1033.2686,371.2324 1034.0263,373.8129 1035.4803,376.0753 1037.5128,377.8365 1038.6961,378.4826 1041.2765,379.2403 1061.5189,379.3365 1064.1809,379.7192 1065.4441,380.1904 1067.7065,381.6444 1069.4677,383.6769 1070.585,386.1233 1070.9677,388.7853 1070.9677,409.3041 1070.5358,413.3211 1069.7762,415.9082 1068.6561,418.3608 1067.1984,420.6291 1065.4327,422.6668 999.3859,488.7135"/>
    <polygon points="997.1291,498.1141 999.5099,496.6032 1000.8683,494.1322 1001.0464,492.7223 1000.8683,491.3124 999.5099,488.8414 997.1291,487.3305 995.7331,487.0642 992.9633,487.5926 991.7634,488.3541 990.106,490.6353 989.7526,492.0118 990.106,494.8093 991.7634,497.0906 992.9633,497.8521 995.7331,498.3804"/>
    <line x1="991.3683" x2="961.5907" y1="496.7311" y2="526.5088"/>
    <polygon points="963.073,529.1077 961.7146,526.6367 959.3338,525.1258 957.9378,524.8595 955.168,525.3879 953.9681,526.1493 952.3107,528.4306 951.9573,529.8071 952.3107,532.6046 952.9953,533.8499 955.168,535.6473 956.5195,536.0865 959.3338,535.9094 961.7146,534.3985 963.073,531.9275 963.2512,530.5176"/>
    <line x1="953.5731" x2="886.0001" y1="534.5264" y2="602.0994"/>
    <polygon points="881.6353,600.4501 878.9536,601.3214 877.0233,603.377 876.322,606.1082 877.0233,608.8394 877.8586,609.9891 878.9536,610.8949 881.6353,611.7663 884.4052,611.2379 885.6051,610.4764 887.2625,608.1952 887.6159,606.8187 887.2625,604.0212 886.5779,602.7758 884.4052,600.9784 883.0536,600.5393"/>
    <line x1="877.9825" x2="848.2048" y1="602.0994" y2="572.3217"/>
    <polyline points="848.2048,564.3041 877.3756,535.0653 879.6797,531.7466 881.2258,528.014 881.799,525.3794 881.9913,522.6899 881.9913,464.3759 881.8951,463.0312 881.1374,460.4507 879.6834,458.1882 878.7302,457.2349 876.4677,455.7809 875.2045,455.3098 872.5425,454.9271 852.3002,455.0232 849.7197,455.7809 847.4572,457.2349 845.696,459.2675 845.0499,460.4507 844.2922,463.0312 844.196,487.053"/>
    <polygon points="841.7822,487.5926 840.5823,488.3541 838.9249,490.6353 838.5715,492.0118 838.9249,494.8093 840.5823,497.0906 841.7822,497.8521 844.552,498.3804 845.9479,498.1141 848.3288,496.6032 849.6872,494.1322 849.8653,492.7223 849.6872,491.3124 848.3288,488.8414 845.9479,487.3305 844.552,487.0642"/>
    <line x1="844.196" x2="844.196" y1="498.3916" y2="530.5176"/>
    <line x1="853.6449" x2="834.7472" y1="530.5176" y2="530.5176"/>
    <polygon points="838.9249,566.2259 838.5715,569.0234 838.9249,570.3999 840.5823,572.6811 841.7822,573.4426 844.552,573.971 845.9479,573.7047 848.3288,572.1938 849.6872,569.7228 849.8653,568.3129 849.6872,566.903 848.3288,564.432 845.9479,562.9211 843.1337,562.744 841.7822,563.1832 839.6095,564.9806"/>
    <polyline points="840.1872,572.3217 811.9358,600.5732 810.1701,602.6109 808.1085,606.0855 806.8326,609.9188 806.4489,612.5877 806.4008,643.9034"/>
    <line x1="815.8496" x2="796.9519" y1="643.9034" y2="643.9034"/>
    <polyline points="840.1872,647.9122 811.9358,676.1637 810.1701,678.2014 808.1085,681.676 806.8326,685.5094 806.4489,688.1782 806.4008,719.494"/>
    <line x1="815.8496" x2="796.9519" y1="719.494" y2="719.494"/>
    <line x1="837.5147" x2="850.8774" y1="712.8127" y2="726.1753"/>
    <line x1="844.196" x2="877.9825" y1="719.494" y2="685.7075"/>
    <polygon points="877.0233,684.4299 877.8586,685.5796 878.9536,686.4854 881.6353,687.3568 884.4052,686.8284 885.6051,686.067 887.2625,683.7857 887.6159,682.4093 887.2625,679.6117 886.5779,678.3664 884.4052,676.569 883.0536,676.1298 881.6353,676.0406 878.9536,676.912 877.0233,678.9675 876.322,681.6987"/>
    <line x1="877.9825" x2="848.2048" y1="677.6899" y2="647.9122"/>
    <polygon points="841.7822,649.0332 843.1337,649.4723 844.552,649.5615 847.2338,648.6902 849.1641,646.6346 849.8653,643.9034 849.1641,641.1722 848.3288,640.0225 847.2338,639.1167 844.552,638.2453 841.7822,638.7737 840.5823,639.5352 838.9249,641.8164 838.5715,643.1929 838.9249,645.9904 839.6095,647.2358"/>
    <line x1="848.2048" x2="877.9825" y1="639.8946" y2="610.117"/>
    <polyline points="886.0001,677.6899 914.2516,649.4384 916.2893,647.6727 918.5576,646.215 922.2902,644.6689 926.2661,643.9516 949.4778,643.8073 952.0582,643.0496 953.2415,642.4035 955.274,640.6423 956.728,638.3798 957.4857,635.7993 957.7742,611.2464 958.7734,607.3318 959.8934,604.8791 961.3512,602.6109 963.1169,600.5732 1070.9677,492.7223"/>
    <line x1="1077.649" x2="1064.2864" y1="499.4037" y2="486.041"/>
    <polyline points="919.7866,347.2105 919.6904,371.2324 918.9327,373.8129 917.4787,376.0753 916.5254,377.0286 914.263,378.4826 911.6825,379.2403 887.6606,379.3365"/>
    <polygon points="876.3332,378.9805 876.8616,381.7504 877.6231,382.9502 878.659,383.9231 881.2808,384.9611 882.7019,384.9611 885.3236,383.9231 887.121,381.7504 887.5602,380.3988 887.6494,378.9805 886.7781,376.2987 884.7225,374.3685 881.9913,373.6672 879.2601,374.3685 878.1104,375.2038 877.2046,376.2987"/>
    <polyline points="876.322,379.3365 815.8496,379.3365 813.1875,379.7192 811.9244,380.1904 809.6619,381.6444 807.9007,383.6769 807.2546,384.8601 806.4969,387.4406 806.3526,410.6523 805.6353,414.6282 804.0892,418.3608 802.6315,420.6291 800.8658,422.6668 774.1405,449.3921 772.1028,451.1578 769.8345,452.6155 766.1019,454.1616 763.4672,454.7347 736.4795,454.9271"/>
    <polygon points="736.4683,454.5711 735.597,451.8893 733.5414,449.959 730.8102,449.2578 728.079,449.959 726.9293,450.7943 726.0235,451.8893 725.1521,454.5711 725.6805,457.3409 726.442,458.5408 727.4779,459.5136 730.0997,460.5516 731.5208,460.5516 734.1425,459.5136 735.9399,457.3409 736.3791,455.9894"/>
    <line x1="725.1409" x2="698.6842" y1="454.9271" y2="454.9271"/>
    <polygon points="698.5838,455.9894 698.673,454.5711 697.8017,451.8893 695.7461,449.959 693.0149,449.2578 690.2837,449.959 689.134,450.7943 688.2282,451.8893 687.3568,454.5711 687.8852,457.3409 688.6467,458.5408 689.6826,459.5136 692.3044,460.5516 693.7255,460.5516 696.3473,459.5136 698.1447,457.3409"/>
    <polyline points="687.3456,454.9271 661.6992,454.8789 657.7232,454.1616 653.9906,452.6155 651.7224,451.1578 649.6847,449.3921 621.4332,421.1406"/>
    <polyline points="621.4332,413.123 689.5177,345.3105 692.9922,343.249 695.5185,342.3067 698.1532,341.7336 722.7061,341.4451 725.2866,340.6874 727.5491,339.2333 729.3102,337.2008 729.9563,336.0176 730.714,333.4371 730.8102,313.1948 731.193,310.5327 732.3102,308.0864 734.0714,306.0538 735.1506,305.2459 737.597,304.1287 740.259,303.746 800.7315,303.746"/>
    <polygon points="806.4008,298.0767 803.6696,298.7779 802.5199,299.6132 801.614,300.7082 800.7427,303.39 801.271,306.1598 802.0325,307.3597 803.0684,308.3325 805.6902,309.3705 808.4878,309.0171 809.7331,308.3325 811.5305,306.1598 811.9696,304.8083 812.0589,303.39 811.1875,300.7082 809.132,298.7779"/>
    <line x1="812.0701" x2="838.5267" y1="303.746" y2="303.746"/>
    <polygon points="849.8541,303.39 848.9828,300.7082 846.9272,298.7779 844.196,298.0767 841.4648,298.7779 840.3151,299.6132 839.4093,300.7082 838.5379,303.39 839.0663,306.1598 839.8278,307.3597 840.8637,308.3325 843.4855,309.3705 846.283,309.0171 847.5284,308.3325 849.3258,306.1598 849.7649,304.8083"/>
    <polyline points="849.8653,303.746 910.3378,303.746 912.9998,304.1287 914.263,304.5998 916.5254,306.0538 918.2866,308.0864 918.9327,309.2696 919.6904,311.8501 919.7866,335.8719"/>
    <polygon points="914.162,340.8307 914.5154,343.6282 916.1729,345.9095 917.3727,346.671 920.1426,347.1993 921.5385,346.933 923.9193,345.4221 925.2778,342.9511 925.4559,341.5412 925.2778,340.1313 923.9193,337.6603 921.5385,336.1494 920.1426,335.8831 917.3727,336.4115 916.1729,337.173 914.5154,339.4542"/>
    <line x1="951.9126" x2="849.8653" y1="228.1554" y2="228.1554"/>
    <polygon points="844.196,222.4861 841.4648,223.1874 840.3151,224.0227 839.4093,225.1176 838.5379,227.7994 839.0663,230.5693 839.8278,231.7691 840.8637,232.742 843.4855,233.78 846.283,233.4266 847.5284,232.742 849.3258,230.5693 849.7649,229.2177 849.8541,227.7994 848.9828,225.1176 846.9272,223.1874"/>
    <polyline points="838.5267,228.1554 814.5049,228.0592 813.1875,227.7727 810.7412,226.6554 808.7086,224.8942 807.2546,222.6318 806.4969,220.0513 806.4008,199.8089 806.4969,198.4642 807.2546,195.8838 807.9007,194.7005 809.6619,192.668 811.9244,191.214 813.1875,190.7429 815.8496,190.3601 876.322,190.3601"/>
    <polyline points="881.9913,184.6908 884.7225,185.3921 886.7781,187.3224 887.6494,190.0041 887.5602,191.4224 887.121,192.774 885.3236,194.9467 884.0783,195.6313 881.2808,195.9847 878.659,194.9467 877.6231,193.9739 876.8616,192.774 876.3332,190.0041 877.2046,187.3224 878.1104,186.2274 879.2601,185.3921 881.9913,184.6908 881.8951,160.669 881.6086,159.3516 880.4914,156.9053 878.7302,154.8727 876.4677,153.4187 873.8872,152.661 850.6756,152.5167 846.6996,151.7994 842.967,150.2533 840.6988,148.7956 838.6611,147.0299 810.9484,119.3853 808.7899,117.7695 806.4235,116.4773 802.5901,115.2014 798.5731,114.7696 736.4795,114.7696"/>
    <polygon points="735.597,111.7318 733.5414,109.8015 730.8102,109.1003 728.079,109.8015 726.9293,110.6368 726.0235,111.7318 725.1521,114.4136 725.6805,117.1834 726.442,118.3833 727.4779,119.3561 730.0997,120.3942 731.5208,120.3942 734.1425,119.3561 735.9399,117.1834 736.3791,115.8319 736.4683,114.4136"/>
    <polyline points="725.1409,114.7696 699.4945,114.8177 695.5185,115.5351 691.7859,117.0812 689.5177,118.5389 687.4799,120.3046 659.2285,148.5561"/>
    <polygon points="651.6059,148.1966 649.9485,150.4778 649.5951,153.2754 649.9485,154.6519 651.6059,156.9331 652.8058,157.6946 655.5756,158.223 656.9716,157.9567 659.3524,156.4457 660.7108,153.9747 660.889,152.5648 660.7108,151.155 659.3524,148.684 656.9716,147.173 655.5756,146.9067 652.8058,147.4351"/>
    <polyline points="651.2109,156.5736 622.9594,184.8251 621.1937,186.8629 619.1321,190.3374 617.8563,194.1708 617.4725,196.8396 617.4244,228.1554"/>
    <line x1="626.8732" x2="607.9756" y1="228.1554" y2="228.1554"/>
    <polyline points="541.8338,228.1554 570.1803,228.1554 572.8423,227.7727 574.1055,227.3015 576.368,225.8475 578.1291,223.815 578.7752,222.6318 579.5329,220.0513 579.6773,196.8396 580.3946,192.8637 581.9407,189.1311 583.3984,186.8629 585.1641,184.8251 613.4156,156.5736"/>
    <polygon points="617.7804,158.223 619.1763,157.9567 621.5571,156.4457 622.9156,153.9747 623.0937,152.5648 622.9156,151.155 621.5571,148.684 619.1763,147.173 617.7804,146.9067 615.0105,147.4351 613.8106,148.1966 612.1532,150.4778 611.7998,153.2754 612.1532,154.6519 613.8106,156.9331 615.0105,157.6946"/>
    <polyline points="621.4332,148.5561 650.6039,119.3172 652.9081,115.9986 654.0282,113.546 654.7878,110.9589 655.2197,106.9419 655.1235,85.0784 654.3658,82.4979 653.7197,81.3147 651.9585,79.2822 649.696,77.8282 647.1156,77.0705 623.0937,76.9743"/>
    <polygon points="614.0921,81.5609 616.7138,82.5989 618.1349,82.5989 620.7567,81.5609 622.5541,79.3882 622.9933,78.0366 623.0825,76.6183 622.2111,73.9365 620.1556,72.0063 617.4244,71.305 614.6932,72.0063 613.5435,72.8416 612.6376,73.9365 611.7663,76.6183 612.2947,79.3882 613.0561,80.588"/>
    <line x1="611.7551" x2="585.2984" y1="76.9743" y2="76.9743"/>
    <polygon points="584.7588,79.3882 585.198,78.0366 585.2872,76.6183 584.4159,73.9365 582.3603,72.0063 579.6291,71.305 576.8979,72.0063 575.7482,72.8416 574.8424,73.9365 573.971,76.6183 574.4994,79.3882 575.2608,80.588 576.2968,81.5609 578.9186,82.5989 580.3397,82.5989 582.9614,81.5609"/>
    <line x1="573.9598" x2="509.7079" y1="76.9743" y2="76.9743"/>
    <polygon points="500.1577,72.8416 498.6467,75.2224 498.3805,76.6183 498.9088,79.3882 499.6703,80.588 501.9516,82.2455 503.328,82.5989 506.1256,82.2455 507.3709,81.5609 509.1683,79.3882 509.6967,76.6183 509.4304,75.2224 507.9195,72.8416 506.7698,72.0063 504.0386,71.305 501.3074,72.0063"/>
    <line x1="498.3693" x2="466.2433" y1="76.9743" y2="76.9743"/>
    <line x1="466.2433" x2="466.2433" y1="86.4231" y2="67.5255"/>
    <polygon points="460.8515,150.8129 460.5852,152.2089 461.1136,154.9787 461.875,156.1786 462.911,157.1514 465.5327,158.1894 468.3303,157.836 469.5756,157.1514 471.373,154.9787 471.9014,152.2089 471.6351,150.8129 470.1242,148.4321 467.6532,147.0737 466.2433,146.8956 464.8334,147.0737 462.3624,148.4321"/>
    <polyline points="460.574,152.5648 434.9275,152.613 430.9516,153.3303 428.4253,154.2726 426.0588,155.5648 422.913,158.0998 356.8663,224.1466"/>
    <polygon points="348.2709,231.4877 349.2437,232.5237 351.7951,233.7243 353.2134,233.8135 355.8952,232.9421 356.9902,232.0363 358.3486,229.5653 358.5267,228.1554 358.3486,226.7455 356.9902,224.2745 355.8952,223.3687 353.2134,222.4973 350.4436,223.0257 348.2709,224.8231 347.2329,227.4449 347.2329,228.866"/>
    <polyline points="348.8487,232.1642 282.8019,298.211 280.2668,301.3568 278.4584,304.9696 277.6988,307.5566 277.3151,310.2255 277.2669,335.8719"/>
    <polygon points="282.7581,340.1313 281.3996,337.6603 279.0188,336.1494 277.6229,335.8831 274.853,336.4115 273.6532,337.173 272.6804,338.2089 271.6423,340.8307 271.9957,343.6282 272.6804,344.8736 274.853,346.671 277.6229,347.1993 279.0188,346.933 281.3996,345.4221 282.7581,342.9511 282.9362,341.5412"/>
    <line x1="277.2669" x2="277.2669" y1="347.2105" y2="373.6672"/>
    <polyline points="282.9362,379.3365 282.7581,380.7464 281.3996,383.2174 279.0188,384.7283 277.6229,384.9946 274.853,384.4662 273.6532,383.7048 272.6804,382.6688 271.6423,380.0471 271.9957,377.2495 272.6804,376.0042 274.853,374.2068 276.2046,373.7676 279.0188,373.9447 281.3996,375.4556 282.7581,377.9266 282.9362,379.3365 306.9581,379.2403 309.5385,378.4826 311.801,377.0286 312.7543,376.0753 314.2083,373.8129 314.966,371.2324 315.2545,346.6795 316.2537,342.7648 317.3738,340.3122 318.8315,338.044 424.4392,232.1642"/>
    <polygon points="423.8615,224.8231 422.8234,227.4449 422.8234,228.866 423.8615,231.4877 424.8343,232.5237 427.3857,233.7243 428.804,233.8135 431.4858,232.9421 432.5807,232.0363 433.9392,229.5653 434.1173,228.1554 433.9392,226.7455 432.5807,224.2745 431.4858,223.3687 428.804,222.4973 426.0341,223.0257"/>
    <polyline points="432.4568,224.1466 460.7083,195.8951 462.746,194.1294 465.0143,192.6717 468.7469,191.1256 472.7228,190.4083 498.3693,190.3601 498.5474,191.77 499.9058,194.241 501.0008,195.1469 503.6826,196.0182 505.1009,195.929 507.6523,194.7284 508.6251,193.6925 509.6631,191.0707 509.6631,189.6496 508.6251,187.0278 506.4524,185.2304 503.6826,184.702 501.0008,185.5734 499.9058,186.4792 498.5474,188.9502 498.3693,190.3601"/>
    <polyline points="504.0386,184.6908 503.9424,160.669 503.1847,158.0885 501.7307,155.826 500.7774,154.8727 498.5149,153.4187 495.9344,152.661 471.9126,152.5648"/>
    <polyline points="504.0386,196.0294 503.8462,223.0172 503.2731,225.6518 502.3308,228.1781 501.0386,230.5446 499.4228,232.7031 356.8663,375.3277"/>
    <polygon points="358.3486,380.7464 358.5267,379.3365 358.3486,377.9266 356.9902,375.4556 355.8952,374.5498 353.2134,373.6784 350.4436,374.2068 349.2437,374.9682 348.2709,376.0042 347.2329,378.626 347.2329,380.0471 348.2709,382.6688 350.4436,384.4662 353.2134,384.9946 355.8952,384.1232 356.9902,383.2174"/>
    <line x1="348.8487" x2="281.2757" y1="383.3453" y2="450.9183"/>
    <polygon points="273.6532,450.5588 272.6804,451.5947 271.6423,454.2165 271.9957,457.0141 272.6804,458.2594 274.853,460.0568 277.6229,460.5852 279.0188,460.3189 281.3996,458.808 282.7581,456.337 282.9362,454.9271 282.7581,453.5172 281.3996,451.0462 279.0188,449.5352 277.6229,449.269 274.853,449.7973"/>
    <polyline points="348.8487,496.7311 320.5972,524.9826 318.8315,527.0203 317.3738,529.2886 315.8277,533.0212 315.1103,536.9971 315.0622,562.6436"/>
    <polygon points="318.0999,563.5261 316.8141,562.9211 313.9999,562.744 312.6483,563.1832 310.4756,564.9806 309.4376,567.6023 309.4376,569.0234 309.791,570.3999 311.4484,572.6811 312.6483,573.4426 315.4182,573.971 318.0999,573.0996 319.1949,572.1938 320.0302,571.0441 320.7315,568.3129 320.0302,565.5817"/>
    <line x1="315.0622" x2="315.0622" y1="573.9822" y2="638.2341"/>
    <polygon points="315.4182,649.5615 318.0999,648.6902 320.0302,646.6346 320.7315,643.9034 320.0302,641.1722 319.1949,640.0225 318.0999,639.1167 315.4182,638.2453 312.6483,638.7737 311.4484,639.5352 310.4756,640.5711 309.4376,643.1929 309.4376,644.614 310.4756,647.2358 312.6483,649.0332 313.9999,649.4723"/>
    <line x1="315.0622" x2="315.0622" y1="649.5727" y2="676.0294"/>
    <polygon points="310.4756,678.3664 309.4376,680.9882 309.4376,682.4093 310.4756,685.031 312.6483,686.8284 313.9999,687.2676 315.4182,687.3568 318.0999,686.4854 320.0302,684.4299 320.7315,681.6987 320.0302,678.9675 319.1949,677.8178 318.0999,676.912 315.4182,676.0406 312.6483,676.569 311.4484,677.3304"/>
    <polyline points="315.0622,687.368 314.966,711.3899 314.2083,713.9703 312.7543,716.2328 310.7218,717.994 309.5385,718.6401 306.9581,719.3978 282.9362,719.494"/>
    <polygon points="282.925,719.138 282.0536,716.4562 281.1478,715.3612 278.6768,714.0028 277.2669,713.8247 275.857,714.0028 273.386,715.3612 271.8751,717.7421 271.6088,719.138 272.1372,721.9079 272.8986,723.1077 275.1799,724.7652 277.9775,725.1186 279.3539,724.7652 281.6352,723.1077 282.8358,720.5563"/>
    <line x1="271.5976" x2="245.1409" y1="719.494" y2="719.494"/>
    <polygon points="238.0617,714.0028 235.5907,715.3612 234.0798,717.7421 233.8135,719.138 234.3419,721.9079 235.1034,723.1077 237.3846,724.7652 238.7611,725.1186 241.5586,724.7652 243.8399,723.1077 244.6014,721.9079 245.1297,719.138 244.8634,717.7421 243.3525,715.3612 240.8815,714.0028 239.4716,713.8247"/>
    <line x1="233.8023" x2="207.3456" y1="719.494" y2="719.494"/>
    <polygon points="205.5573,715.3612 203.0863,714.0028 201.6764,713.8247 200.2665,714.0028 197.7955,715.3612 196.2845,717.7421 196.0183,719.138 196.5466,721.9079 197.3081,723.1077 199.5894,724.7652 200.9658,725.1186 203.7634,724.7652 206.0446,723.1077 206.8061,721.9079 207.3345,719.138 207.0682,717.7421"/>
    <polyline points="196.0071,719.494 171.9852,719.3978 169.4047,718.6401 167.1422,717.1861 165.381,715.1536 164.735,713.9703 163.9773,711.3899 163.7849,689.8028 163.0272,687.2223 162.3811,686.0391 160.6199,684.0066 158.3574,682.5526 155.777,681.7949 131.224,681.5064 127.3094,680.5072 124.8568,679.3871 122.5885,677.9294 56.0302,611.6431 54.2646,609.6054 52.8068,607.3372 51.6868,604.8845 50.9271,602.2975 50.5434,599.6286 50.4953,536.1869"/>
    <polygon points="55.4633,527.7864 54.628,526.6367 52.2472,525.1258 50.8512,524.8595 48.0814,525.3879 46.8815,526.1493 45.2241,528.4306 44.8707,529.8071 45.2241,532.6046 45.9087,533.8499 48.0814,535.6473 49.4329,536.0865 52.2472,535.9094 54.628,534.3985 55.9864,531.9275 56.1645,530.5176"/>
    <line x1="50.4953" x2="50.4953" y1="524.8483" y2="498.3916"/>
    <polygon points="50.8512,498.3804 52.2472,498.1141 54.628,496.6032 55.9864,494.1322 56.1645,492.7223 55.9864,491.3124 54.628,488.8414 52.2472,487.3305 50.8512,487.0642 48.0814,487.5926 46.8815,488.3541 45.2241,490.6353 44.8707,492.0118 45.2241,494.8093 45.9087,496.0547 48.0814,497.8521"/>
    <line x1="50.4953" x2="50.4953" y1="487.053" y2="460.5963"/>
    <polygon points="48.0814,460.0568 50.8512,460.5852 52.2472,460.3189 54.628,458.808 55.9864,456.337 56.1645,454.9271 55.9864,453.5172 54.628,451.0462 52.2472,449.5352 50.8512,449.269 48.0814,449.7973 46.8815,450.5588 45.2241,452.84 44.8707,454.2165 45.2241,457.0141 45.9087,458.2594"/>
    <polyline points="50.4953,449.2578 50.5434,423.6113 51.2607,419.6354 52.8068,415.9028 54.2646,413.6345 56.0302,411.5968 82.7555,384.8715 84.7933,383.1058 88.2678,381.0442 90.7941,380.102 93.4288,379.5289 120.4165,379.3365"/>
    <polygon points="131.6547,380.3988 131.7439,378.9805 130.8725,376.2987 128.817,374.3685 126.0858,373.6672 124.6759,373.8453 122.2049,375.2038 121.2991,376.2987 120.4277,378.9805 120.9561,381.7504 121.7175,382.9502 122.7535,383.9231 125.3753,384.9611 126.7964,384.9611 129.4181,383.9231 130.4541,382.9502"/>
    <polyline points="356.8663,488.7135 385.1177,460.462 387.1555,458.6964 389.4237,457.2386 393.1563,455.6925 397.1322,454.9752 422.7787,454.9271"/>
    <polygon points="423.6613,451.8893 422.7899,454.5711 423.3183,457.3409 424.0797,458.5408 425.1157,459.5136 427.7375,460.5516 429.1586,460.5516 431.7803,459.5136 433.5777,457.3409 434.1061,454.5711 433.2348,451.8893 432.3289,450.7943 429.8579,449.4359 428.448,449.2578 427.0381,449.4359 424.5671,450.7943"/>
    <line x1="434.1173" x2="460.574" y1="454.9271" y2="454.9271"/>
    <polygon points="461.875,458.5408 462.911,459.5136 465.5327,460.5516 466.9538,460.5516 469.5756,459.5136 471.373,457.3409 471.9014,454.5711 471.03,451.8893 470.1242,450.7943 467.6532,449.4359 466.2433,449.2578 464.8334,449.4359 462.3624,450.7943 461.4565,451.8893 460.5852,454.5711 461.1136,457.3409"/>
    <line x1="471.9126" x2="498.3693" y1="454.9271" y2="454.9271"/>
    <polygon points="504.7491,460.5516 507.3709,459.5136 509.1683,457.3409 509.6967,454.5711 508.8253,451.8893 507.9195,450.7943 505.4485,449.4359 504.0386,449.2578 502.6287,449.4359 500.1577,450.7943 499.2518,451.8893 498.3805,454.5711 498.9088,457.3409 499.6703,458.5408 500.7062,459.5136 503.328,460.5516"/>
    <line x1="509.7079" x2="536.1645" y1="454.9271" y2="454.9271"/>
    <polygon points="547.4027,455.9894 547.2257,453.1751 546.6206,451.8893 544.565,449.959 541.8338,449.2578 539.1026,449.959 537.9529,450.7943 537.0471,451.8893 536.1757,454.5711 536.7041,457.3409 537.4656,458.5408 538.5015,459.5136 541.1233,460.5516 542.5444,460.5516 545.1662,459.5136 546.2021,458.5408"/>
    <polyline points="547.5031,454.9271 573.1496,454.8789 577.1255,454.1616 580.8581,452.6155 583.1264,451.1578 585.1641,449.3921 613.4156,421.1406"/>
    <polygon points="619.1763,411.74 617.7804,411.4737 615.0105,412.0021 613.8106,412.7635 612.1532,415.0448 611.7998,416.4212 612.1532,419.2188 613.8106,421.5 615.0105,422.2615 617.7804,422.7899 619.1763,422.5236 621.5571,421.0127 622.9156,418.5417 623.0937,417.1318 622.9156,415.7219 621.5571,413.2509"/>
    <polyline points="547.5031,492.7223 610.9449,492.7705 613.6137,493.1542 617.4471,494.4301 619.8136,495.7223 621.9721,497.3381 689.2456,564.8156 690.7034,567.0839 691.8234,569.5365 692.8226,573.4511 693.0631,599.6286 693.7804,603.6046 695.3265,607.3372 696.7842,609.6054 698.5499,611.6431 730.8102,643.9034"/>
    <line x1="724.1289" x2="737.4915" y1="650.5848" y2="637.2221"/>
    <polyline points="693.0149,676.0294 692.9668,650.3829 692.5831,647.7141 691.8234,645.127 690.7034,642.6744 689.2456,640.4062 585.1641,536.0526 583.1264,534.2869 580.8581,532.8292 578.4055,531.7091 574.4909,530.71 551.2827,530.5176 549.9379,530.6138 547.3575,531.3715 546.1742,532.0176 544.1417,533.7788 542.6877,536.0412 541.93,538.6217 541.93,560.2088 542.6877,562.7892 544.1417,565.0517 546.1742,566.8129 547.3575,567.459 549.9379,568.2167 570.1803,568.3129 572.8423,568.6956 575.2887,569.8128 576.368,570.6208 578.1291,572.6533 578.7752,573.8365 579.5329,576.417 579.7253,598.004 580.483,600.5845 581.937,602.847 583.9695,604.6082 585.1527,605.2543 587.7332,606.012 607.9756,606.1082 610.6376,606.4909 611.9007,606.962 614.1632,608.416 615.9244,610.4486 616.5705,611.6318 617.3282,614.2123 617.4244,615.557 617.4244,676.0294"/>
    <polyline points="611.7551,681.6987 612.4563,678.9675 614.3866,676.912 617.0684,676.0406 618.4867,676.1298 619.8383,676.569 622.0109,678.3664 622.6956,679.6117 623.049,682.4093 622.6956,683.7857 621.0381,686.067 619.8383,686.8284 617.0684,687.3568 614.3866,686.4854 613.2917,685.5796 612.4563,684.4299 611.7551,681.6987 547.5031,681.6987"/>
    <polygon points="545.7147,677.566 543.2437,676.2075 541.8338,676.0294 540.4239,676.2075 537.9529,677.566 536.442,679.9468 536.1757,681.3427 536.7041,684.1126 537.4656,685.3125 539.7468,686.9699 541.1233,687.3233 543.9208,686.9699 545.1662,686.2853 546.2021,685.3125 547.4027,682.761 547.2257,679.9468"/>
    <polyline points="536.1645,681.6987 512.1427,681.6025 509.5622,680.8448 508.379,680.1987 506.3464,678.4375 504.8924,676.1751 504.4213,674.9119 504.0386,672.2499 504.0386,611.7774"/>
    <polygon points="507.0763,610.8949 509.0066,608.8394 509.7079,606.1082 509.0066,603.377 508.1713,602.2273 507.0763,601.3214 504.3945,600.4501 501.6247,600.9784 500.4248,601.7399 499.452,602.7758 498.414,605.3976 498.414,606.8187 499.452,609.4405 501.6247,611.2379 502.9762,611.677 504.3945,611.7663"/>
    <line x1="504.0386" x2="504.0386" y1="600.4389" y2="573.9822"/>
    <polygon points="505.7905,562.9211 502.9762,562.744 501.6247,563.1832 499.452,564.9806 498.414,567.6023 498.414,569.0234 498.7674,570.3999 500.4248,572.6811 501.6247,573.4426 504.3945,573.971 507.0763,573.0996 508.1713,572.1938 509.0066,571.0441 509.7079,568.3129 509.0066,565.5817 507.0763,563.5261"/>
    <polyline points="504.0386,562.6436 504.0386,502.1711 504.1347,500.8264 504.8924,498.246 506.3464,495.9835 507.2997,495.0302 509.5622,493.5762 512.1427,492.8185 536.1645,492.7223"/>
    <polygon points="537.4656,496.3361 538.5015,497.3089 541.1233,498.3469 542.5444,498.3469 545.1662,497.3089 546.2021,496.3361 547.4027,493.7846 547.2257,490.9704 546.6206,489.6846 544.565,487.7543 541.8338,487.053 539.1026,487.7543 537.9529,488.5896 537.0471,489.6846 536.1757,492.3664 536.7041,495.1362"/>
    <line x1="475.6921" x2="456.7945" y1="568.3129" y2="568.3129"/>
    <line x1="466.2433" x2="466.2433" y1="568.3129" y2="600.4389"/>
    <polygon points="461.6567,609.4405 463.8294,611.2379 465.181,611.677 466.5993,611.7663 469.281,610.8949 471.2113,608.8394 471.9126,606.1082 471.2113,603.377 470.376,602.2273 469.281,601.3214 466.5993,600.4501 463.8294,600.9784 462.6295,601.7399 461.6567,602.7758 460.6187,605.3976 460.6187,606.8187"/>
    <polyline points="466.2433,611.7774 466.1471,635.7993 465.3894,638.3798 463.9354,640.6423 461.9029,642.4035 460.7196,643.0496 458.1392,643.8073 434.1173,643.9034"/>
    <polygon points="423.3183,646.3173 424.0797,647.5172 426.361,649.1746 427.7375,649.528 430.535,649.1746 432.8163,647.5172 433.5777,646.3173 434.1061,643.5475 433.8398,642.1515 432.3289,639.7707 429.8579,638.4123 428.448,638.2341 427.0381,638.4123 424.5671,639.7707 423.0562,642.1515 422.7899,643.5475"/>
    <polyline points="422.7787,643.9034 398.7568,643.8073 396.1764,643.0496 393.9139,641.5956 392.9606,640.6423 391.5066,638.3798 390.7489,635.7993 390.6527,613.9358 391.0846,609.9188 391.8442,607.3318 392.9643,604.8791 395.2685,601.5605 424.4392,572.3217"/>
    <polygon points="423.48,565.5817 422.7787,568.3129 423.48,571.0441 424.3153,572.1938 425.4103,573.0996 428.092,573.971 429.5103,573.8818 432.0618,572.6811 433.7192,570.3999 434.0726,569.0234 434.0726,567.6023 433.0346,564.9806 430.8619,563.1832 429.5103,562.744 426.6961,562.9211 425.4103,563.5261"/>
    <polyline points="424.4392,564.3041 396.1877,536.0526 394.422,534.0149 392.3605,530.5403 391.0846,526.7069 390.6527,522.6899 390.6527,502.1711 390.7489,500.8264 391.5066,498.246 392.9606,495.9835 394.9931,494.2223 397.4395,493.1051 400.1016,492.7223 456.7945,492.7223 458.1392,492.8185 460.7196,493.5762 462.9821,495.0302 463.9354,495.9835 465.3894,498.246 466.1471,500.8264 466.1951,524.0381 465.8114,526.7069 465.0518,529.294 463.2434,532.9068 461.6275,535.0653 432.4568,564.3041"/>
    <polygon points="355.8952,497.5091 356.9902,496.6032 358.3486,494.1322 358.5267,492.7223 358.3486,491.3124 356.9902,488.8414 355.8952,487.9356 353.2134,487.0642 350.4436,487.5926 349.2437,488.3541 348.2709,489.39 347.2329,492.0118 347.2329,493.4329 348.2709,496.0547 350.4436,497.8521 353.2134,498.3804"/>
    <line x1="541.8338" x2="541.8338" y1="237.6042" y2="218.7066"/>
    <line x1="887.6606" x2="914.1173" y1="190.3601" y2="190.3601"/>
    <polygon points="915.9057,186.2274 914.9999,187.3224 914.1285,190.0041 914.6569,192.774 915.4183,193.9739 916.4543,194.9467 919.076,195.9847 921.8736,195.6313 923.1189,194.9467 924.9163,192.774 925.3555,191.4224 925.4447,190.0041 924.5733,187.3224 922.5178,185.3921 919.7866,184.6908 917.0554,185.3921"/>
    <polyline points="925.4559,190.3601 949.4778,190.4563 952.0582,191.214 954.3207,192.668 956.0819,194.7005 956.728,195.8838 957.4857,198.4642 957.5819,222.4861"/>
    <polygon points="925.3555,78.0366 925.4447,76.6183 924.5733,73.9365 922.5178,72.0063 919.7866,71.305 917.0554,72.0063 915.9057,72.8416 914.9999,73.9365 914.1285,76.6183 914.6569,79.3882 915.4183,80.588 916.4543,81.5609 919.076,82.5989 920.4971,82.5989 923.1189,81.5609 924.9163,79.3882"/>
    <polyline points="925.4559,76.9743 951.1024,77.0224 955.0783,77.7398 958.8109,79.2859 961.0791,80.7436 963.1169,82.5093 990.7614,110.2219 993.0656,113.5406 994.1856,115.9932 994.9453,118.5803 995.3771,122.5972 995.281,144.4607 994.5233,147.0412 993.8772,148.2244 992.116,150.257 989.8535,151.711 988.5904,152.1821 985.9283,152.5648 964.0614,152.5167 961.3925,152.133 957.5592,150.8571 954.0846,148.7956 952.0469,147.0299 924.3343,119.3853 921.0156,117.0812 917.283,115.5351 914.6483,114.9619 911.9589,114.7696 852.3002,114.6734 850.9828,114.3868 848.5364,113.2696 846.5039,111.5084 845.0499,109.2459 844.5788,107.9828 844.196,105.3208 844.2922,85.0784 845.0499,82.4979 845.696,81.3147 847.4572,79.2822 849.7197,77.8282 850.9828,77.357 853.6449,76.9743 914.1173,76.9743"/>
    <polyline points="693.0149,687.368 693.0149,710.0452 692.6322,712.7072 691.515,715.1536 689.7538,717.1861 688.6745,717.994 686.2282,719.1112 683.5661,719.494 626.8732,719.494 625.5285,719.3978 622.948,718.6401 620.6855,717.1861 618.9244,715.1536 617.8071,712.7072 617.5206,711.3899 617.4244,687.368"/>
    <polygon points="690.6011,686.8284 691.9526,687.2676 693.3709,687.3568 696.0527,686.4854 697.983,684.4299 698.6842,681.6987 697.983,678.9675 697.1477,677.8178 696.0527,676.912 693.3709,676.0406 690.6011,676.569 689.4012,677.3304 687.7438,679.6117 687.3904,680.9882 687.7438,683.7857 688.4284,685.031"/>
  </g>
</svg>
