<?xml version="1.0" encoding="utf-8" ?>
<svg xmlns="http://www.w3.org/2000/svg" xmlns:cc="http://creativecommons.org/ns" xmlns:dc="http://purl.org/dc/elements/1.1/" xmlns:ev="http://www.w3.org/2001/xml-events" xmlns:inkscape="http://www.inkscape.org/namespaces/inkscape" xmlns:rdf="http://www.w3.org/1999/02/22-rdf-syntax-ns" xmlns:sodipodi="http://sodipodi.sourceforge.net/DTD/sodipodi-0.dtd" xmlns:xlink="http://www.w3.org/1999/xlink" baseProfile="tiny" height="29.7cm" version="1.2" viewBox="0 0 793.7007874015749 1122.5196850393702" width="21.0cm">
  <metadata>
    <rdf:RDF>
      <cc:Work>
        <dc:format>image/svg+xml</dc:format>
        <dc:source/>
        <dc:date>2022-10-12T21:21:29.037869</dc:date>
      </cc:Work>
    </rdf:RDF>
  </metadata>
  <defs/>
  <g fill="none" id="layer1" inkscape:groupmode="layer" inkscape:label="1" stroke="#0000ff" style="display:inline">
    <polyline points="304.252,475.6724 315.7606,475.6724 315.7606,487.1811"/>
    <polyline points="315.086,487.1811 315.086,505.7008 314.4326,509.4062 312.5513,512.6648 310.4661,514.5755 307.056,516.1656 304.252,516.5348"/>
    <polyline points="304.252,513.3865 306.0913,513.1631 308.6179,512.026 310.5772,510.0667 311.7143,507.5401 311.9376,505.7008 311.9376,487.1811"/>
    <polyline points="311.263,487.1811 311.263,480.1701 304.252,480.1701"/>
    <polyline points="329.7827,468.6614 329.7827,480.1701 341.2913,480.1701"/>
    <line x1="341.2913" x2="345.7615" y1="479.4954" y2="479.4954"/>
    <line x1="345.7615" x2="341.2913" y1="476.3471" y2="476.3471"/>
    <polyline points="341.2913,475.6724 334.2803,475.6724 334.2803,468.6614"/>
    <line x1="348.977" x2="348.977" y1="468.6614" y2="473.1316"/>
    <line x1="352.1254" x2="352.1254" y1="473.1316" y2="468.6614"/>
    <polygon points="354.4615,474.3565 355.7524,476.949 355.4852,479.8327 353.7399,482.1438 351.0394,483.19 348.1926,482.6579 346.6408,481.486 345.6172,479.8327 345.3499,476.949 346.6408,474.3565 349.1031,472.8319 351.9992,472.8319 354.4615,474.3565 355.4852,476.0098 355.8425,477.9213 355.4852,479.8327 354.4615,481.486 352.9097,482.6579 351.0394,483.19 348.1926,482.6579 346.6408,481.486 345.6172,479.8327 345.2598,477.9213 345.6172,476.0098 346.6408,474.3565 349.1031,472.8319 351.9992,472.8319"/>
    <line x1="355.3409" x2="359.811" y1="476.3471" y2="476.3471"/>
    <polyline points="359.811,475.6724 366.822,475.6724 366.822,468.6614"/>
    <polyline points="371.3197,468.6614 371.3197,480.1701 359.811,480.1701"/>
    <line x1="359.811" x2="355.3409" y1="479.4954" y2="479.4954"/>
    <polyline points="352.1254,482.7109 352.1814,488.1075 352.6248,489.9065 353.4858,491.5471 354.7145,492.9339 356.2393,493.9864 357.9717,494.6434 359.811,494.8668"/>
    <line x1="359.811" x2="378.3307" y1="494.1921" y2="494.1921"/>
    <polyline points="378.3307,494.8668 381.0561,494.3673 382.6967,493.5063 384.0835,492.2776 385.5169,489.9065 386.0164,487.1811"/>
    <line x1="385.3417" x2="385.3417" y1="487.1811" y2="468.6614"/>
    <line x1="389.8394" x2="389.8394" y1="468.6614" y2="475.6724"/>
    <polyline points="389.8394,476.3471 397.7768,476.291 400.4221,475.4667 402.6032,473.758 403.6557,472.2331 404.3127,470.5007 404.5361,468.6614"/>
    <polyline points="407.6844,468.6614 407.3152,471.4655 406.2329,474.0784 404.5112,476.3222 402.2674,478.044 400.5558,478.8421 397.7946,479.4542 389.8394,479.4954"/>
    <line x1="389.8394" x2="389.8394" y1="480.1701" y2="487.1811"/>
    <polyline points="389.1647,487.1811 388.5114,490.8866 387.2054,493.3952 385.9915,494.8419 384.5448,496.0558 382.0362,497.3617 378.3307,498.0151"/>
    <line x1="378.3307" x2="371.3197" y1="498.6898" y2="498.6898"/>
    <polyline points="370.645,498.6898 370.6038,506.645 369.63,510.2794 368.6857,511.9149 366.775,514.0001 364.3897,515.5197 361.6923,516.3702 359.811,516.5348 357.007,516.1656 354.394,515.0833 352.1502,513.3616 350.9363,511.9149 349.6304,509.4062 349.1416,507.5821 348.7537,503.8615 348.0967,502.1291 346.3879,499.948 344.0167,498.5146 342.2177,498.0712 340.3649,498.0712 338.566,498.5146 336.9254,499.3756 335.5385,500.6042 334.486,502.1291 333.829,503.8615 333.6057,505.7008"/>
    <polyline points="334.2803,505.7008 334.2803,517.2094 322.7717,517.2094"/>
    <polyline points="322.7717,516.5348 320.9324,516.7581 319.1999,517.4152 317.6751,518.4677 316.4465,519.8545 315.3093,522.3812 314.9214,526.1018 314.4326,527.9259 313.6345,529.6375 311.9128,531.8813 308.8306,534.0394 307.056,534.6853 304.252,535.0545"/>
    <polyline points="304.252,531.9061 306.0913,531.6828 307.8237,531.0258 309.3485,529.9733 310.5772,528.5864 311.7143,526.0598 312.1022,522.3392 312.591,520.515 313.3891,518.8035 315.1108,516.5597 317.3546,514.8379 319.0662,514.0398 322.7717,513.3865"/>
    <polyline points="322.7717,512.7118 329.7827,512.7118 329.7827,505.7008"/>
    <polyline points="330.4573,505.7008 330.8265,502.8967 331.4724,501.1221 332.992,498.7368 335.0772,496.8261 336.7127,495.8818 339.41,495.0314 341.2913,494.8668 344.0954,495.2359 347.5055,496.8261 350.166,499.4867 351.7562,502.8967 352.6248,508.4262 354.0582,510.7973 355.4451,512.026 357.9717,513.1631 359.811,513.3865 361.6503,513.1631 363.3827,512.5061 364.9076,511.4536 366.1362,510.0667 366.9972,508.4262 367.4967,505.7008 367.4967,498.6898"/>
    <line x1="366.822" x2="359.811" y1="498.6898" y2="498.6898"/>
    <polyline points="359.811,498.0151 357.9297,497.8505 355.2324,497.0001 352.8471,495.4804 350.9363,493.3952 349.9921,491.7598 349.1416,489.0624 348.977,482.7109"/>
    <polyline points="334.2803,535.7291 348.3024,535.7291 348.3024,542.7402"/>
    <line x1="348.977" x2="348.977" y1="542.7402" y2="547.2103"/>
    <polygon points="348.1926,547.2634 350.063,546.7312 352.9097,547.2634 354.4615,548.4352 355.7524,551.0277 355.4852,553.9115 354.4615,555.5648 351.9992,557.0893 349.1031,557.0893 346.6408,555.5648 345.6172,553.9115 345.3499,551.0277 346.0524,549.2145 348.1926,547.2634 350.063,546.7312 352.9097,547.2634 355.05,549.2145 355.8425,552.0 355.4852,553.9115 354.4615,555.5648 352.9097,556.7366 351.0394,557.2688 348.1926,556.7366 346.6408,555.5648 345.6172,553.9115 345.2598,552.0 345.6172,550.0885 346.6408,548.4352"/>
    <line x1="352.1254" x2="352.1254" y1="547.2103" y2="542.7402"/>
    <polyline points="352.8,542.7402 352.8,531.2315 322.7717,531.2315"/>
    <polyline points="322.7717,531.9061 319.0662,532.5595 316.5575,533.8655 315.1108,535.0794 313.8969,536.526 312.591,539.0347 312.1022,540.8589 311.7143,544.5795 310.5772,547.1061 309.3485,548.493 307.8237,549.5455 306.0913,550.2025 304.252,550.4258"/>
    <polyline points="304.252,553.5742 307.056,553.205 308.8306,552.5591 311.9128,550.401 313.6345,548.1572 314.4326,546.4456 314.9214,544.6215 315.3093,540.9009 316.4465,538.3742 317.6751,536.9874 319.1999,535.9348 320.9324,535.2778 322.7717,535.0545"/>
    <line x1="322.7717" x2="329.7827" y1="535.7291" y2="535.7291"/>
    <line x1="330.4573" x2="330.4573" y1="535.7291" y2="547.2103"/>
    <line x1="333.6057" x2="333.6057" y1="547.2103" y2="535.7291"/>
    <line x1="336.8212" x2="345.7615" y1="550.4258" y2="550.4258"/>
    <line x1="345.7615" x2="336.8212" y1="553.5742" y2="553.5742"/>
    <polygon points="336.9655,553.9115 335.9418,555.5648 334.39,556.7366 332.5197,557.2688 329.6729,556.7366 328.1211,555.5648 327.0975,553.9115 326.7402,552.0 327.0975,550.0885 328.1211,548.4352 329.6729,547.2634 331.5433,546.7312 334.39,547.2634 335.9418,548.4352 337.2327,551.0277 336.9655,553.9115 335.9418,555.5648 333.4795,557.0893 330.5835,557.0893 328.1211,555.5648 327.0975,553.9115 326.8303,551.0277 327.5327,549.2145 329.6729,547.2634 331.5433,546.7312 334.39,547.2634 336.5303,549.2145 337.3228,552.0"/>
    <line x1="333.6057" x2="333.6057" y1="556.7897" y2="568.2709"/>
    <polyline points="334.2803,568.9455 342.2177,568.8895 344.863,568.0652 346.3879,567.0126 348.0967,564.8316 348.7537,563.0991 348.977,556.7897"/>
    <polyline points="352.1254,556.7897 352.0841,562.2041 351.7562,564.0639 350.6739,566.6769 348.2553,569.5592 345.87,571.0788 343.1726,571.9293 334.2803,572.0939"/>
    <line x1="333.6057" x2="333.6057" y1="572.7685" y2="586.7906"/>
    <polyline points="334.2803,587.4652 341.2913,587.4652 344.0954,587.8344 347.5055,589.4245 350.166,592.0851 351.472,594.5938 352.0841,597.355 352.1254,616.8189 352.3487,618.6582 353.4858,621.1849 354.7145,622.5717 357.0856,624.0051 359.811,624.5046"/>
    <line x1="359.811" x2="378.3307" y1="623.8299" y2="623.8299"/>
    <polyline points="378.3307,624.5046 381.0561,624.0051 383.4273,622.5717 384.6559,621.1849 385.5169,619.5443 386.0164,616.8189 385.5169,614.0935 384.0835,611.7224 382.6967,610.4937 381.0561,609.6327 378.3307,609.1332"/>
    <polyline points="378.3307,609.8079 366.822,609.8079 366.822,598.2992"/>
    <polyline points="367.4967,598.2992 367.8659,595.4952 368.9482,592.8822 370.6699,590.6384 372.1166,589.4245 373.7521,588.4803 376.4494,587.6298 382.8009,587.4652"/>
    <polygon points="382.6565,587.1279 383.6802,585.4746 385.232,584.3028 387.1023,583.7706 389.9491,584.3028 391.5009,585.4746 392.7918,588.0671 392.5246,590.9508 391.5009,592.6041 389.0386,594.1287 386.1425,594.1287 383.6802,592.6041 382.3893,590.0117 382.3893,588.0671 383.6802,585.4746 385.232,584.3028 387.1023,583.7706 389.9491,584.3028 392.0893,586.2538 392.8819,589.0394 392.5246,590.9508 391.5009,592.6041 389.9491,593.776 388.0788,594.3081 385.232,593.776 383.6802,592.6041 382.6565,590.9508 382.2992,589.0394"/>
    <polyline points="382.8009,590.6135 377.4043,590.6696 375.6053,591.113 373.9648,591.974 372.5779,593.2027 371.5254,594.7275 370.8684,596.4599 370.645,598.2992"/>
    <polyline points="371.3197,598.2992 371.3197,605.3102 378.3307,605.3102"/>
    <polyline points="378.3307,605.9849 382.0362,606.6383 384.5448,607.9442 385.9915,609.1581 387.7132,611.4019 388.5114,613.1134 389.1647,616.8189 388.5114,620.5243 387.7132,622.2359 385.9915,624.4797 383.7477,626.2014 382.0362,626.9995 378.3307,627.6529"/>
    <line x1="378.3307" x2="371.3197" y1="628.3276" y2="628.3276"/>
    <line x1="370.645" x2="370.645" y1="628.3276" y2="639.8087"/>
    <line x1="367.4967" x2="367.4967" y1="639.8087" y2="628.3276"/>
    <line x1="366.822" x2="359.811" y1="628.3276" y2="628.3276"/>
    <polyline points="359.811,627.6529 357.007,627.2838 353.5969,625.6936 351.5117,623.7829 349.6304,620.5243 348.977,616.8189 348.921,597.3728 348.4776,595.5738 347.6165,593.9333 345.6573,591.974 343.1306,590.8369 334.2803,590.6135"/>
    <line x1="333.6057" x2="333.6057" y1="591.2882" y2="598.2992"/>
    <line x1="334.2803" x2="334.2803" y1="598.2992" y2="616.8189"/>
    <polyline points="333.6057,616.8189 333.4411,618.7002 332.5906,621.3976 331.071,623.7829 328.9858,625.6936 326.4771,626.9995 324.653,627.4883 318.3015,627.6529"/>
    <polyline points="318.3015,624.5046 323.6981,624.4485 325.497,624.0051 327.1376,623.1441 328.5245,621.9154 329.577,620.3906 330.234,618.6582 330.4573,616.8189"/>
    <line x1="329.7827" x2="329.7827" y1="616.8189" y2="609.8079"/>
    <line x1="329.7827" x2="315.7606" y1="609.1332" y2="609.1332"/>
    <line x1="315.086" x2="315.086" y1="609.8079" y2="621.2891"/>
    <line x1="311.9376" x2="311.9376" y1="621.2891" y2="609.8079"/>
    <line x1="311.263" x2="304.252" y1="609.1332" y2="609.1332"/>
    <line x1="304.252" x2="311.263" y1="605.9849" y2="605.9849"/>
    <polyline points="311.9376,605.3102 311.8816,597.3728 311.0573,594.7275 310.0048,593.2027 307.8237,591.4939 306.0913,590.8369 304.252,590.6135"/>
    <polyline points="304.252,587.4652 307.056,587.8344 309.669,588.9167 311.9128,590.6384 313.6345,592.8822 314.4326,594.5938 315.0448,597.355 315.086,605.3102"/>
    <line x1="315.7606" x2="329.7827" y1="605.9849" y2="605.9849"/>
    <line x1="329.7827" x2="329.7827" y1="605.3102" y2="598.2992"/>
    <line x1="330.4573" x2="330.4573" y1="598.2992" y2="591.2882"/>
    <polyline points="329.7827,590.6135 320.8903,590.449 319.0662,589.9602 316.5575,588.6542 314.4723,586.7435 312.9527,584.3582 312.1022,581.6608 311.7143,577.9402 310.5772,575.4136 309.3485,574.0267 307.8237,572.9742 306.0913,572.3172 304.252,572.0939"/>
    <polyline points="304.252,568.9455 306.1333,569.1101 308.8306,569.9606 310.4661,570.9048 312.5513,572.8156 314.0709,575.2009 314.7168,576.9755 315.5854,582.5049 316.4465,584.1455 318.4057,586.1047 320.0463,586.9658 321.8452,587.4092 329.7827,587.4652"/>
    <line x1="330.4573" x2="330.4573" y1="586.7906" y2="572.7685"/>
    <polyline points="329.7827,572.0939 321.8274,572.0526 319.9676,571.7247 317.3546,570.6424 315.1108,568.9206 313.3891,566.6769 312.3068,564.0639 311.9789,562.2041 312.1022,559.3785 312.9527,556.6812 313.8969,555.0457 315.8077,552.9605 318.193,551.4409 320.8903,550.5904 327.2418,550.4258"/>
    <polyline points="327.2418,553.5742 321.8452,553.6302 320.0463,554.0736 318.4057,554.9347 317.0188,556.1633 315.9663,557.6881 315.142,560.3334 315.142,562.1862 315.5854,563.9852 316.4465,565.6258 317.6751,567.0126 319.1999,568.0652 321.8452,568.8895 329.7827,568.9455"/>
    <line x1="330.4573" x2="330.4573" y1="568.2709" y2="556.7897"/>
    <line x1="355.3409" x2="366.822" y1="553.5742" y2="553.5742"/>
    <polyline points="367.4967,554.2488 367.5379,562.2041 367.8659,564.0639 368.9482,566.6769 370.6699,568.9206 372.9137,570.6424 375.5267,571.7247 378.3307,572.0939 381.1348,571.7247 383.7477,570.6424 385.9915,568.9206 387.7132,566.6769 388.7956,564.0639 389.1235,562.2041 389.1647,554.2488"/>
    <line x1="389.8394" x2="396.8504" y1="553.5742" y2="553.5742"/>
    <line x1="396.8504" x2="415.3701" y1="554.2488" y2="554.2488"/>
    <polyline points="415.3701,553.5742 418.0955,554.0736 419.736,554.9347 421.6953,556.8939 422.8324,559.4205 423.0557,561.2598 423.097,580.7238 423.4249,582.5836 424.5072,585.1965 426.9258,588.0789 429.3111,589.5985 432.0085,590.449 435.7291,590.8369 438.2557,591.974 440.2149,593.9333 441.3521,596.4599 441.5754,598.2992 441.076,601.0246 439.6426,603.3958 438.2557,604.6244 436.6151,605.4854 434.8162,605.9288 426.8787,605.9849"/>
    <polyline points="426.2041,605.3102 426.0395,596.4179 425.5507,594.5938 424.2448,592.0851 422.334,589.9999 419.9487,588.4803 417.2514,587.6298 413.5308,587.2419 411.7984,586.5848 410.2735,585.5323 409.0449,584.1455 408.1839,582.5049 407.3152,576.9755 406.2329,574.3625 404.5112,572.1187 402.2674,570.397 399.6544,569.3147 395.9061,568.9867 393.1449,569.5989 389.8864,571.4802 387.9757,573.5654 386.3855,576.9755 386.0576,578.8353 386.0164,584.2497"/>
    <polyline points="389.1647,584.2497 389.3881,577.9402 390.0451,576.2078 391.7539,574.0267 394.125,572.5933 395.924,572.1499 398.6897,572.3172 401.2164,573.4543 402.6032,574.683 403.6557,576.2078 404.3127,577.9402 404.7007,581.6608 405.1894,583.485 405.9875,585.1965 407.7093,587.4403 409.9531,589.1621 411.6646,589.9602 413.4888,590.449 417.2094,590.8369 418.9418,591.4939 420.4666,592.5464 421.6953,593.9333 422.5563,595.5738 422.9997,597.3728 423.0557,605.3102"/>
    <line x1="422.3811" x2="410.8999" y1="605.9849" y2="605.9849"/>
    <line x1="410.8999" x2="422.3811" y1="609.1332" y2="609.1332"/>
    <line x1="423.0557" x2="423.0557" y1="609.8079" y2="623.8299"/>
    <line x1="422.3811" x2="415.3701" y1="624.5046" y2="624.5046"/>
    <polyline points="415.3701,623.8299 408.3591,623.8299 408.3591,616.8189"/>
    <line x1="407.6844" x2="407.6844" y1="616.8189" y2="612.3487"/>
    <line x1="404.5361" x2="404.5361" y1="612.3487" y2="616.8189"/>
    <polyline points="403.8614,616.8189 403.8614,628.3276 415.3701,628.3276"/>
    <line x1="415.3701" x2="422.3811" y1="627.6529" y2="627.6529"/>
    <line x1="423.0557" x2="423.0557" y1="628.3276" y2="642.3496"/>
    <line x1="422.3811" x2="378.3307" y1="642.3496" y2="642.3496"/>
    <line x1="378.3307" x2="373.8606" y1="643.0243" y2="643.0243"/>
    <line x1="373.8606" x2="378.3307" y1="646.1726" y2="646.1726"/>
    <line x1="378.3307" x2="385.3417" y1="646.8472" y2="646.8472"/>
    <line x1="386.0164" x2="386.0164" y1="646.8472" y2="653.8583"/>
    <line x1="389.1647" x2="389.1647" y1="653.8583" y2="646.8472"/>
    <line x1="389.8394" x2="403.8614" y1="646.8472" y2="646.8472"/>
    <line x1="404.5361" x2="404.5361" y1="646.8472" y2="653.8583"/>
    <line x1="407.6844" x2="407.6844" y1="653.8583" y2="646.8472"/>
    <line x1="408.3591" x2="433.8898" y1="646.8472" y2="646.8472"/>
    <line x1="433.8898" x2="440.9008" y1="646.1726" y2="646.1726"/>
    <line x1="440.9008" x2="440.9008" y1="646.8472" y2="653.8583"/>
    <polyline points="445.3984,653.8583 445.3984,623.8299 433.8898,623.8299"/>
    <line x1="433.8898" x2="426.8787" y1="624.5046" y2="624.5046"/>
    <line x1="426.2041" x2="426.2041" y1="623.8299" y2="609.8079"/>
    <polyline points="426.8787,609.1332 435.7711,608.9686 437.5952,608.4799 440.1039,607.1739 442.1891,605.2632 444.0704,602.0047 444.6826,599.2435 444.5592,596.4179 443.2723,592.8822 441.5506,590.6384 440.1039,589.4245 436.6938,587.8344 431.1644,586.9658 428.7932,585.5323 427.5646,584.1455 426.7035,582.5049 426.2601,580.7059 426.2041,561.2598 425.5507,557.5544 424.2448,555.0457 421.5842,552.3851 418.1741,550.795 415.3701,550.4258"/>
    <line x1="415.3701" x2="408.3591" y1="549.7512" y2="549.7512"/>
    <polyline points="407.6844,549.7512 407.6844,542.7402 408.1839,540.0148 409.0449,538.3742 410.2735,536.9874 412.6447,535.5539 415.3701,535.0545 452.4094,535.0545"/>
    <line x1="452.4094" x2="459.4205" y1="535.7291" y2="535.7291"/>
    <polyline points="460.0951,535.7291 460.2597,544.6215 461.1102,547.3188 462.6298,549.7041 465.5121,552.1227 468.1251,553.205 469.9849,553.5329 475.3993,553.5742"/>
    <polyline points="475.3993,550.4258 469.0898,550.2025 466.5632,549.0653 465.1763,547.8367 463.7429,545.4655 463.2995,543.6666 463.2435,535.7291"/>
    <line x1="463.9181" x2="470.9291" y1="535.7291" y2="535.7291"/>
    <line x1="470.9291" x2="475.3993" y1="535.0545" y2="535.0545"/>
    <polygon points="477.0002,537.7029 475.255,535.3918 474.8976,533.4803 475.6902,530.6948 477.8304,528.7437 480.6772,528.2115 483.3777,529.2577 484.6878,530.6948 485.4803,533.4803 485.123,535.3918 484.0993,537.0451 482.5475,538.2169 480.6772,538.7491 478.7409,538.5697 477.0002,537.7029 475.255,535.3918 474.8976,533.4803 475.255,531.5689 476.2786,529.9156 477.8304,528.7437 479.7008,528.2115 481.637,528.391 484.0993,529.9156 485.3902,532.508 485.123,535.3918 483.3777,537.7029 481.637,538.5697 479.7008,538.7491"/>
    <line x1="478.6148" x2="478.6148" y1="538.27" y2="547.2103"/>
    <line x1="481.7631" x2="481.7631" y1="547.2103" y2="538.27"/>
    <line x1="484.9787" x2="489.4488" y1="535.0545" y2="535.0545"/>
    <line x1="489.4488" x2="484.9787" y1="531.9061" y2="531.9061"/>
    <polyline points="481.7631,528.6906 481.8192,523.2941 482.2626,521.4951 483.1236,519.8545 484.3523,518.4677 485.8771,517.4152 487.6095,516.7581 489.4488,516.5348"/>
    <polyline points="489.4488,513.3865 486.6448,513.7556 484.0318,514.8379 481.788,516.5597 480.5741,518.0063 479.6299,519.6418 478.7794,522.3392 478.6148,528.6906"/>
    <line x1="475.3993" x2="470.9291" y1="531.9061" y2="531.9061"/>
    <line x1="470.9291" x2="452.4094" y1="531.2315" y2="531.2315"/>
    <polyline points="452.4094,531.9061 415.3701,531.9061 411.6646,532.5595 409.1559,533.8655 407.7093,535.0794 405.5511,538.1615 404.5773,541.7959 404.5361,549.7512"/>
    <line x1="403.8614" x2="396.8504" y1="549.7512" y2="549.7512"/>
    <line x1="396.8504" x2="389.8394" y1="550.4258" y2="550.4258"/>
    <line x1="389.1647" x2="389.1647" y1="549.7512" y2="535.7291"/>
    <polyline points="389.8394,535.0545 398.7317,534.8899 400.5558,534.4011 403.0645,533.0952 405.1497,531.1844 406.6693,528.7991 407.5198,526.1018 407.9077,522.3812 408.5648,520.6488 409.6173,519.1239 411.0041,517.8953 412.6447,517.0342 418.1741,516.1656 420.7871,515.0833 423.6694,512.6648 425.189,510.2794 426.1629,506.645 425.8349,502.8967 424.2448,499.4867 422.334,497.4014 419.9487,495.8818 417.2514,495.0314 408.3591,494.8668"/>
    <line x1="408.3591" x2="408.3591" y1="494.1921" y2="487.1811"/>
    <polyline points="407.6844,487.1811 407.9077,485.3418 408.5648,483.6094 410.2735,481.4283 412.6447,479.9949 415.3701,479.4954"/>
    <line x1="415.3701" x2="433.8898" y1="480.1701" y2="480.1701"/>
    <line x1="433.8898" x2="440.9008" y1="479.4954" y2="479.4954"/>
    <line x1="441.5754" x2="441.5754" y1="480.1701" y2="487.1811"/>
    <polyline points="440.9008,487.1811 440.9008,517.2094 470.9291,517.2094"/>
    <polyline points="470.9291,516.5348 474.6346,515.8814 476.3461,515.0833 478.5899,513.3616 480.3117,511.1178 481.1098,509.4062 481.7631,505.7008"/>
    <line x1="482.4378" x2="482.4378" y1="505.7008" y2="487.1811"/>
    <line x1="481.7631" x2="481.7631" y1="487.1811" y2="482.7109"/>
    <polygon points="480.6772,483.19 477.8304,482.6579 476.2786,481.486 475.255,479.8327 474.9877,476.949 476.2786,474.3565 478.7409,472.8319 481.637,472.8319 483.3777,473.6987 484.6878,475.1357 485.4803,477.9213 485.123,479.8327 484.0993,481.486 482.5475,482.6579 480.6772,483.19 477.8304,482.6579 476.2786,481.486 475.255,479.8327 474.8976,477.9213 475.255,476.0098 476.2786,474.3565 478.7409,472.8319 481.637,472.8319 484.0993,474.3565 485.3902,476.949 485.123,479.8327 483.3777,482.1438"/>
    <line x1="478.6148" x2="478.6148" y1="482.7109" y2="487.1811"/>
    <line x1="477.9402" x2="477.9402" y1="487.1811" y2="494.1921"/>
    <polyline points="477.9402,494.8668 469.0478,495.0314 466.3505,495.8818 463.2683,498.04 461.1102,501.1221 460.2597,503.8195 460.0951,512.7118"/>
    <polyline points="459.4205,512.7118 445.3984,512.7118 445.3984,498.6898"/>
    <polyline points="445.3984,498.0151 454.2908,497.8505 456.9881,497.0001 459.3734,495.4804 461.792,492.5981 462.8743,489.9852 463.2022,488.1253 463.2435,482.7109"/>
    <polyline points="460.0951,482.7109 459.8718,489.0204 458.7346,491.5471 457.506,492.9339 455.9812,493.9864 453.3359,494.8107 445.3984,494.8668"/>
    <line x1="445.3984" x2="445.3984" y1="494.1921" y2="487.1811"/>
    <line x1="444.7238" x2="444.7238" y1="487.1811" y2="480.1701"/>
    <line x1="445.3984" x2="456.8796" y1="479.4954" y2="479.4954"/>
    <line x1="456.8796" x2="445.3984" y1="476.3471" y2="476.3471"/>
    <line x1="444.7238" x2="444.7238" y1="475.6724" y2="468.6614"/>
    <line x1="441.5754" x2="441.5754" y1="468.6614" y2="475.6724"/>
    <line x1="440.9008" x2="433.8898" y1="476.3471" y2="476.3471"/>
    <line x1="433.8898" x2="426.8787" y1="475.6724" y2="475.6724"/>
    <line x1="426.2041" x2="426.2041" y1="475.6724" y2="468.6614"/>
    <line x1="423.0557" x2="423.0557" y1="468.6614" y2="475.6724"/>
    <line x1="422.3811" x2="415.3701" y1="475.6724" y2="475.6724"/>
    <polyline points="415.3701,476.3471 413.4888,476.5117 410.7914,477.3621 407.7093,479.5203 405.9875,481.7641 405.1894,483.4757 404.5361,487.1811"/>
    <line x1="403.8614" x2="403.8614" y1="487.1811" y2="505.7008"/>
    <polyline points="404.5361,505.7008 404.3127,507.5401 403.6557,509.2725 402.6032,510.7973 401.2164,512.026 398.6897,513.1631 394.9691,513.551 392.2717,514.4015 389.8864,515.9211 387.9757,518.0063 386.6697,520.515 386.181,522.3392 386.0164,531.2315"/>
    <polyline points="385.3417,531.9061 376.4494,532.0707 373.7521,532.9212 370.6699,535.0794 368.9482,537.3231 367.6613,540.8589 367.4967,549.7512"/>
    <line x1="366.822" x2="355.3409" y1="550.4258" y2="550.4258"/>
    <polyline points="370.645,549.7512 370.8684,540.9009 372.0055,538.3742 373.2342,536.9874 375.6053,535.5539 377.4043,535.1105 385.3417,535.0545"/>
    <line x1="386.0164" x2="386.0164" y1="535.7291" y2="549.7512"/>
    <line x1="385.3417" x2="371.3197" y1="550.4258" y2="550.4258"/>
    <line x1="371.3197" x2="385.3417" y1="553.5742" y2="553.5742"/>
    <polyline points="386.0164,554.2488 385.9603,562.1862 385.136,564.8316 383.4273,567.0126 381.9024,568.0652 380.17,568.7222 378.3307,568.9455 376.4914,568.7222 374.759,568.0652 373.2342,567.0126 371.5254,564.8316 370.7011,562.1862 370.645,554.2488"/>
    <polyline points="389.8394,531.9061 397.7768,531.8501 399.5758,531.4067 401.2164,530.5457 402.6032,529.317 403.6557,527.7922 404.3127,526.0598 404.7007,522.3392 405.1894,520.515 405.9875,518.8035 407.7093,516.5597 409.9531,514.8379 411.6646,514.0398 413.4888,513.551 417.2094,513.1631 418.9418,512.5061 421.1229,510.7973 422.1754,509.2725 422.9997,506.6272 422.8324,503.8615 421.6953,501.3348 420.4666,499.948 418.9418,498.8955 416.2965,498.0712 408.3591,498.0151"/>
    <line x1="408.3591" x2="408.3591" y1="498.6898" y2="505.7008"/>
    <polyline points="407.6844,505.7008 407.3152,508.5048 406.6693,510.2794 405.7251,511.9149 403.8144,514.0001 402.2674,515.0833 399.6544,516.1656 394.125,517.0342 391.7539,518.4677 390.5252,519.8545 389.6642,521.4951 389.2208,523.2941 389.1647,531.2315"/>
    <polyline points="392.3802,587.4652 397.7946,587.5064 399.6544,587.8344 402.2674,588.9167 404.5112,590.6384 406.2329,592.8822 407.3152,595.4952 407.6432,597.355 407.6844,602.7694"/>
    <polyline points="404.5361,602.7694 404.3127,596.4599 403.6557,594.7275 402.6032,593.2027 400.4221,591.4939 398.6897,590.8369 392.3802,590.6135"/>
    <polyline points="389.1647,593.8291 389.3881,600.1385 390.0451,601.8709 391.7539,604.052 393.2787,605.1045 395.0111,605.7616 401.3206,605.9849"/>
    <polygon points="400.8189,607.5591 401.6114,604.7735 403.7517,602.8224 406.5985,602.2903 409.299,603.3365 411.0443,605.6476 411.4016,607.5591 411.0443,609.4705 410.0206,611.1238 408.4688,612.2957 406.5985,612.8278 404.6622,612.6484 402.9215,611.7816 401.6114,610.3446 400.8189,607.5591 401.1762,605.6476 402.1999,603.9943 403.7517,602.8224 405.622,602.2903 407.5583,602.4697 410.0206,603.9943 411.3115,606.5868 411.0443,609.4705 409.299,611.7816 407.5583,612.6484 405.622,612.8278 402.9215,611.7816 401.6114,610.3446"/>
    <polyline points="401.3206,609.1332 395.9061,609.092 394.0463,608.7641 391.4334,607.6817 389.1896,605.96 387.4679,603.7162 386.3855,601.1033 386.0576,599.2435 386.0164,593.8291"/>
    <polygon points="367.4718,587.4403 365.228,589.1621 363.5165,589.9602 359.811,590.6135 356.1056,589.9602 354.394,589.1621 352.1502,587.4403 349.9921,584.3582 349.3462,582.5836 348.977,579.7795 349.3462,576.9755 349.9921,575.2009 352.1502,572.1187 353.5969,570.9048 356.1056,569.5989 359.811,568.9455 363.5165,569.5989 366.0252,570.9048 367.4718,572.1187 368.6857,573.5654 369.9917,576.0741 370.645,579.7795 370.2759,582.5836 369.63,584.3582"/>
    <polygon points="353.4858,584.1455 352.6248,582.5049 352.1254,579.7795 352.6248,577.0542 354.0582,574.683 355.4451,573.4543 357.0856,572.5933 359.811,572.0939 362.5364,572.5933 364.177,573.4543 365.5638,574.683 366.9972,577.0542 367.4967,579.7795 366.9972,582.5049 365.5638,584.8761 363.3827,586.5848 361.6503,587.2419 359.811,587.4652 357.0856,586.9658 354.7145,585.5323"/>
    <polygon points="332.5197,639.3297 335.2202,640.3758 336.9655,642.687 337.3228,644.5984 336.9655,646.5099 335.9418,648.1632 334.39,649.335 332.5197,649.8672 330.5835,649.6878 328.8428,648.821 327.0975,646.5099 326.7402,644.5984 327.0975,642.687 328.1211,641.0337 329.6729,639.8618 331.5433,639.3297 333.4795,639.5091 335.9418,641.0337 337.2327,643.6261 336.9655,646.5099 335.2202,648.821 333.4795,649.6878 331.5433,649.8672 328.8428,648.821 327.0975,646.5099 326.7402,644.5984 327.5327,641.8129 329.6729,639.8618"/>
    <polyline points="333.6057,639.8087 333.829,633.4993 334.486,631.7669 335.5385,630.242 336.9254,629.0134 338.566,628.1524 340.3649,627.709 343.1306,627.8762 345.6573,629.0134 347.6165,630.9726 348.7537,633.4993 349.1416,637.2199 349.6304,639.044 350.9363,641.5527 352.8471,643.6379 355.2324,645.1575 357.9297,646.008 364.2812,646.1726"/>
    <polyline points="364.2812,643.0243 357.9717,642.8009 356.2393,642.1439 354.7145,641.0914 353.4858,639.7045 352.6248,638.064 351.7562,632.5345 350.166,629.1244 348.9521,627.6778 346.7083,625.956 344.0954,624.8737 342.2356,624.5458 339.41,624.6692 336.7127,625.5196 335.0772,626.4639 332.992,628.3746 331.4724,630.7599 330.6219,633.4573 330.4573,639.8087"/>
    <line x1="327.2418" x2="315.7606" y1="643.0243" y2="643.0243"/>
    <line x1="315.086" x2="315.086" y1="642.3496" y2="630.8684"/>
    <line x1="311.9376" x2="311.9376" y1="630.8684" y2="642.3496"/>
    <line x1="311.263" x2="304.252" y1="643.0243" y2="643.0243"/>
    <line x1="304.252" x2="311.263" y1="646.1726" y2="646.1726"/>
    <line x1="311.9376" x2="311.9376" y1="646.8472" y2="653.8583"/>
    <line x1="315.086" x2="315.086" y1="653.8583" y2="646.8472"/>
    <line x1="315.7606" x2="327.2418" y1="646.1726" y2="646.1726"/>
    <line x1="330.4573" x2="330.4573" y1="649.3881" y2="653.8583"/>
    <line x1="333.6057" x2="333.6057" y1="653.8583" y2="649.3881"/>
    <polyline points="336.8212,646.1726 342.2177,646.2286 344.0167,646.672 345.6573,647.5331 347.0441,648.7617 348.0967,650.2866 348.7537,652.019 348.977,653.8583"/>
    <polyline points="352.1254,653.8583 351.7562,651.0542 350.6739,648.4413 348.9521,646.1975 347.5055,644.9836 344.9968,643.6776 343.1726,643.1888 336.8212,643.0243"/>
    <line x1="367.4967" x2="367.4967" y1="649.3881" y2="653.8583"/>
    <line x1="370.645" x2="370.645" y1="653.8583" y2="649.3881"/>
    <polygon points="367.6228,649.6878 365.8821,648.821 364.5721,647.384 363.7795,644.5984 364.1368,642.687 365.1605,641.0337 366.7123,639.8618 368.5826,639.3297 370.5189,639.5091 372.9812,641.0337 374.2721,643.6261 374.0049,646.5099 372.2596,648.821 370.5189,649.6878 368.5826,649.8672 365.8821,648.821 364.5721,647.384 363.7795,644.5984 364.5721,641.8129 366.7123,639.8618 369.5591,639.3297 372.2596,640.3758 374.0049,642.687 374.3622,644.5984 374.0049,646.5099 372.9812,648.1632 371.4294,649.335 369.5591,649.8672"/>
    <line x1="426.2041" x2="426.2041" y1="642.3496" y2="628.3276"/>
    <line x1="426.8787" x2="433.8898" y1="627.6529" y2="627.6529"/>
    <polyline points="433.8898,628.3276 440.9008,628.3276 440.9008,642.3496"/>
    <line x1="440.9008" x2="433.8898" y1="643.0243" y2="643.0243"/>
    <line x1="433.8898" x2="426.8787" y1="642.3496" y2="642.3496"/>
    <polyline points="459.4205,635.3386 459.4205,623.8299 477.9402,623.8299 477.9402,616.8189"/>
    <polyline points="478.6148,616.8189 478.1154,614.0935 476.6819,611.7224 475.2951,610.4937 473.6545,609.6327 470.9291,609.1332"/>
    <polyline points="470.9291,609.8079 459.4205,609.8079 459.4205,598.2992"/>
    <polyline points="460.0951,598.2992 459.8718,596.4599 459.2148,594.7275 458.1623,593.2027 456.7754,591.974 454.2487,590.8369 450.5281,590.449 448.704,589.9602 446.9924,589.1621 444.7486,587.4403 442.5905,584.3582 441.74,581.6608 441.5754,579.7795"/>
    <line x1="440.9008" x2="440.9008" y1="579.7795" y2="561.2598"/>
    <polyline points="441.5754,561.2598 441.74,559.3785 442.5905,556.6812 443.5347,555.0457 445.4455,552.9605 447.8308,551.4409 449.6054,550.795 451.4652,550.4671 454.2908,550.5904 456.9881,551.4409 458.6236,552.3851 460.0703,553.599 461.792,555.8428 463.0789,559.3785 463.2435,565.73"/>
    <polyline points="460.0951,565.73 460.0391,560.3334 459.2148,557.6881 458.1623,556.1633 456.7754,554.9347 454.2487,553.7975 452.4094,553.5742 450.5701,553.7975 448.8377,554.4545 447.3129,555.507 446.0843,556.8939 445.2232,558.5345 444.7238,561.2598"/>
    <line x1="445.3984" x2="445.3984" y1="561.2598" y2="568.2709"/>
    <line x1="445.3984" x2="456.8796" y1="568.9455" y2="568.9455"/>
    <line x1="456.8796" x2="445.3984" y1="572.0939" y2="572.0939"/>
    <line x1="445.3984" x2="445.3984" y1="572.7685" y2="579.7795"/>
    <polyline points="444.7238,579.7795 444.9471,581.6188 445.6041,583.3512 446.6566,584.8761 448.0435,586.1047 450.5701,587.2419 454.2908,587.6298 456.1149,588.1186 458.6236,589.4245 460.0703,590.6384 461.792,592.8822 462.5901,594.5938 463.2435,598.2992"/>
    <polyline points="463.9181,598.2992 463.9181,605.3102 470.9291,605.3102"/>
    <polyline points="470.9291,605.9849 474.6346,606.6383 477.1433,607.9442 478.5899,609.1581 480.3117,611.4019 481.1098,613.1134 481.7631,616.8189"/>
    <polyline points="482.4378,616.8189 482.4378,628.3276 463.9181,628.3276 463.9181,635.3386"/>
    <polyline points="463.2435,635.3386 463.7429,638.064 465.1763,640.4351 466.5632,641.6638 469.0898,642.8009 470.9291,643.0243 489.4488,643.0243"/>
    <polyline points="489.4488,646.1726 470.9291,646.1726 467.2237,645.5192 463.9652,643.6379 462.0544,641.5527 460.4643,638.1426 460.0951,635.3386"/>
    <polyline points="489.4488,609.1332 486.6448,608.7641 484.0318,607.6817 482.4848,606.5986 480.5741,604.5133 479.6299,602.8779 478.7794,600.1805 478.6148,593.8291"/>
    <polyline points="481.7631,593.8291 481.8192,599.2256 482.2626,601.0246 483.1236,602.6652 484.3523,604.052 485.8771,605.1045 487.6095,605.7616 489.4488,605.9849"/>
    <line x1="489.4488" x2="484.9787" y1="590.6135" y2="590.6135"/>
    <line x1="484.9787" x2="489.4488" y1="587.4652" y2="587.4652"/>
    <polygon points="484.0993,585.4746 485.3902,588.0671 485.123,590.9508 484.0993,592.6041 481.637,594.1287 478.7409,594.1287 476.2786,592.6041 474.9877,590.0117 474.9877,588.0671 476.2786,585.4746 477.8304,584.3028 479.7008,583.7706 482.5475,584.3028 484.6878,586.2538 485.4803,589.0394 485.123,590.9508 484.0993,592.6041 482.5475,593.776 480.6772,594.3081 477.8304,593.776 476.2786,592.6041 475.255,590.9508 474.8976,589.0394 475.255,587.1279 476.2786,585.4746 477.8304,584.3028 479.7008,583.7706 482.5475,584.3028"/>
    <polyline points="481.7631,584.2497 481.7219,578.8353 481.394,576.9755 480.3117,574.3625 478.5899,572.1187 476.3461,570.397 473.7332,569.3147 471.8734,568.9867 466.459,568.9455"/>
    <polyline points="466.459,572.0939 472.7684,572.3172 474.5008,572.9742 476.6819,574.683 477.7345,576.2078 478.3915,577.9402 478.6148,584.2497"/>
    <polyline points="475.3993,587.4652 469.0898,587.2419 467.3574,586.5848 465.8326,585.5323 464.604,584.1455 463.4668,581.6188 463.2435,575.3094"/>
    <polygon points="460.2212,575.609 458.4805,574.7423 456.7353,572.4311 456.378,570.5197 456.7353,568.6082 457.7589,566.9549 459.3107,565.7831 461.1811,565.2509 463.1173,565.4303 465.5796,566.9549 466.8705,569.5474 466.6033,572.4311 464.858,574.7423 463.1173,575.609 461.1811,575.7885 458.4805,574.7423 456.7353,572.4311 456.378,570.5197 457.1705,567.7342 459.3107,565.7831 462.1575,565.2509 464.858,566.2971 466.1681,567.7342 466.9606,570.5197 466.6033,572.4311 465.5796,574.0844 464.0278,575.2563 462.1575,575.7885"/>
    <polyline points="460.0951,575.3094 460.1363,580.7238 460.4643,582.5836 461.5466,585.1965 463.2683,587.4403 465.5121,589.1621 468.1251,590.2444 469.9849,590.5723 475.3993,590.6135"/>
    <polyline points="489.4488,572.0939 486.6448,571.7247 484.0318,570.6424 482.4848,569.5592 480.5741,567.474 479.6299,565.8385 478.7794,563.1411 478.6148,556.7897"/>
    <polygon points="480.6772,557.2688 477.8304,556.7366 476.2786,555.5648 475.255,553.9115 474.8976,552.0 475.255,550.0885 476.2786,548.4352 477.8304,547.2634 479.7008,546.7312 482.5475,547.2634 484.0993,548.4352 485.3902,551.0277 485.123,553.9115 484.0993,555.5648 481.637,557.0893 478.7409,557.0893 476.2786,555.5648 474.9877,552.9723 474.9877,551.0277 476.2786,548.4352 477.8304,547.2634 479.7008,546.7312 482.5475,547.2634 484.6878,549.2145 485.4803,552.0 485.123,553.9115 484.0993,555.5648 482.5475,556.7366"/>
    <polyline points="481.7631,556.7897 481.8192,562.1862 482.2626,563.9852 483.1236,565.6258 484.3523,567.0126 485.8771,568.0652 487.6095,568.7222 489.4488,568.9455"/>
    <line x1="489.4488" x2="484.9787" y1="553.5742" y2="553.5742"/>
    <line x1="484.9787" x2="489.4488" y1="550.4258" y2="550.4258"/>
    <polyline points="470.9291,513.3865 472.7684,513.1631 474.5008,512.5061 476.6819,510.7973 478.1154,508.4262 478.6148,505.7008"/>
    <line x1="477.9402" x2="477.9402" y1="505.7008" y2="498.6898"/>
    <polyline points="477.9402,498.0151 470.0027,498.0712 467.3574,498.8955 465.8326,499.948 464.1238,502.1291 463.4668,503.8615 463.2435,512.7118"/>
    <line x1="463.9181" x2="470.9291" y1="512.7118" y2="512.7118"/>
    <polygon points="466.6033,479.8327 465.5796,481.486 464.0278,482.6579 462.1575,483.19 459.3107,482.6579 457.7589,481.486 456.7353,479.8327 456.378,477.9213 456.7353,476.0098 457.7589,474.3565 460.2212,472.8319 463.1173,472.8319 465.5796,474.3565 466.8705,476.949 466.6033,479.8327 464.858,482.1438 462.1575,483.19 459.3107,482.6579 457.7589,481.486 456.7353,479.8327 456.468,476.949 457.7589,474.3565 460.2212,472.8319 463.1173,472.8319 464.858,473.6987 466.1681,475.1357 466.9606,477.9213"/>
    <line x1="466.459" x2="475.3993" y1="479.4954" y2="479.4954"/>
    <line x1="475.3993" x2="466.459" y1="476.3471" y2="476.3471"/>
    <line x1="463.2435" x2="463.2435" y1="473.1316" y2="468.6614"/>
    <line x1="460.0951" x2="460.0951" y1="468.6614" y2="473.1316"/>
    <line x1="478.6148" x2="478.6148" y1="473.1316" y2="468.6614"/>
    <line x1="481.7631" x2="481.7631" y1="468.6614" y2="473.1316"/>
    <line x1="484.9787" x2="489.4488" y1="476.3471" y2="476.3471"/>
    <line x1="489.4488" x2="484.9787" y1="479.4954" y2="479.4954"/>
    <polygon points="308.5778,624.1673 309.6015,622.514 311.1533,621.3421 313.0236,620.81 315.8704,621.3421 317.4222,622.514 318.7131,625.1065 318.4458,627.9902 317.4222,629.6435 314.9599,631.1681 312.0638,631.1681 309.6015,629.6435 308.5778,627.9902 308.3106,625.1065 309.013,623.2932 311.1533,621.3421 313.0236,620.81 315.8704,621.3421 318.0106,623.2932 318.8031,626.0787 318.4458,627.9902 317.4222,629.6435 315.8704,630.8154 314.0,631.3475 311.1533,630.8154 309.6015,629.6435 308.5778,627.9902 308.2205,626.0787"/>
    <line x1="308.7221" x2="304.252" y1="624.5046" y2="624.5046"/>
    <line x1="304.252" x2="308.7221" y1="627.6529" y2="627.6529"/>
  </g>
</svg>
