<?xml version="1.0" encoding="utf-8" ?>
<svg xmlns="http://www.w3.org/2000/svg" xmlns:cc="http://creativecommons.org/ns" xmlns:dc="http://purl.org/dc/elements/1.1/" xmlns:ev="http://www.w3.org/2001/xml-events" xmlns:inkscape="http://www.inkscape.org/namespaces/inkscape" xmlns:rdf="http://www.w3.org/1999/02/22-rdf-syntax-ns" xmlns:sodipodi="http://sodipodi.sourceforge.net/DTD/sodipodi-0.dtd" xmlns:xlink="http://www.w3.org/1999/xlink" baseProfile="tiny" height="21.0cm" version="1.2" viewBox="0 0 1122.5196850393702 793.7007874015749" width="29.7cm">
  <metadata>
    <rdf:RDF>
      <cc:Work>
        <dc:format>image/svg+xml</dc:format>
        <dc:source>Vsketch with params {'__seed__': 311308318, 'debug_grid': False, 'debug_tile_indices': False, 'debug_cell_indices': False, 'debug_valid_dirs': False, 'debug_tiles_order': False, 'debug_print': False, 'n_rows': 18, 'n_cols': 28, 'tile_size': 1.0, 'width': 0.1, 'radius_circles': 0.15, 'radius_turns': 0.5, 'connected_edge': True, 'tileset': 'metro', 'use_custom_init': True}</dc:source>
        <dc:date>2025-02-02T14:13:39.190702</dc:date>
      </cc:Work>
    </rdf:RDF>
  </metadata>
  <defs/>
  <g fill="none" id="layer1" inkscape:groupmode="layer" inkscape:label="1" stroke="#0000ff" style="display:inline">
    <polyline points="167.0345,109.377 181.9233,94.4882 166.523,79.3599 164.2547,77.9021 161.8021,76.7821 159.215,76.0224 155.198,75.5906 131.7099,75.6387 127.734,76.356 124.0014,77.9021 121.7332,79.3599 119.6954,81.1255 92.9701,107.8508 90.4351,110.9967 89.1429,113.3631 87.867,117.1965 87.4833,119.8653 87.4352,151.1811"/>
    <line x1="96.884" x2="77.9863" y1="151.1811" y2="151.1811"/>
    <polyline points="121.2216,155.1899 55.1749,221.2367 52.6398,224.3825 50.8314,227.9953 50.0717,230.5823 49.688,233.2512 49.6399,258.8976"/>
    <polygon points="49.9959,258.9088 47.226,259.4372 46.0261,260.1987 44.3687,262.4799 44.0153,265.2775 44.3687,266.6539 46.0261,268.9352 48.5776,270.1358 49.9959,270.225 52.6776,269.3537 53.7726,268.4478 55.1311,265.9768 55.3092,264.5669 55.1311,263.157 53.7726,260.686 51.3918,259.1751"/>
    <polyline points="49.6399,270.2362 49.688,295.8827 50.0717,298.5515 50.8314,301.1386 52.6398,304.7514 54.2556,306.9099 68.5375,321.2598 82.8875,335.5417 85.046,337.1575 88.6588,338.966 91.2458,339.7256 93.9147,340.1093 119.5611,340.1575"/>
    <polyline points="125.2304,334.4882 127.9616,335.1894 130.0172,337.1197 130.8885,339.8015 130.7993,341.2198 129.5987,343.7712 128.5628,344.744 125.941,345.7821 124.5199,345.7821 121.8981,344.744 120.8622,343.7712 120.1007,342.5713 119.5723,339.8015 120.4437,337.1197 121.3495,336.0247 123.8205,334.6663 125.2304,334.4882 125.2304,302.3622"/>
    <line x1="115.7816" x2="134.6792" y1="302.3622" y2="302.3622"/>
    <polyline points="130.8997,340.1575 154.9216,340.0613 157.5021,339.3036 158.6853,338.6575 160.7178,336.8963 162.1718,334.6338 162.9295,332.0534 163.0739,308.8417 163.7912,304.8658 165.3373,301.1332 166.795,298.8649 168.5607,296.8272 196.2052,269.1146 197.821,266.9561 199.6295,263.3433 200.3891,260.7563 200.7728,258.0874 201.0133,231.9099 202.0125,227.9953 203.8209,224.3825 206.356,221.2367 310.198,117.3946"/>
    <polygon points="308.5822,114.0964 309.6203,116.7182 311.7929,118.5156 313.1445,118.9547 314.5628,119.0439 317.2446,118.1726 319.1748,116.117 319.8761,113.3858 319.698,111.9759 318.3395,109.5049 317.2446,108.5991 314.5628,107.7277 313.1445,107.817 310.5931,109.0176 309.6203,110.0535 308.5822,112.6753"/>
    <polyline points="318.2156,109.377 347.4544,80.2063 350.7731,77.9021 354.5057,76.356 357.1403,75.7829 359.8297,75.5906 419.765,75.5906 423.782,76.0224 427.6153,77.2983 429.9818,78.5905 432.1403,80.2063 446.4903,94.4882 395.3323,145.6461 392.1865,148.1812 389.8201,149.4734 387.2938,150.4156 383.3178,151.133 360.1062,151.2773 357.5257,152.035 355.2632,153.489 354.31,154.4423 352.856,156.7047 352.3848,157.9679 352.0021,160.6299 352.0502,182.4969 352.4339,185.1657 353.7098,188.9991 355.002,191.3656 356.6178,193.524 370.8997,207.874 423.5838,155.1899"/>
    <polygon points="425.1788,146.0514 423.0061,147.8488 421.968,150.4706 421.968,151.8917 423.0061,154.5134 423.9789,155.5494 426.5303,156.75 427.9486,156.8392 430.6304,155.9678 431.7254,155.062 433.0838,152.591 433.2619,151.1811 433.0838,149.7712 431.7254,147.3002 430.6304,146.3944 427.9486,145.523"/>
    <line x1="431.6014" x2="461.3791" y1="147.1723" y2="117.3946"/>
    <polygon points="468.4257,118.1726 470.3559,116.117 471.0572,113.3858 470.8791,111.9759 469.5206,109.5049 468.4257,108.5991 465.7439,107.7277 464.3256,107.817 461.7742,109.0176 460.8014,110.0535 459.7633,112.6753 459.7633,114.0964 460.8014,116.7182 462.974,118.5156 464.3256,118.9547 465.7439,119.0439"/>
    <polyline points="469.3967,117.3946 484.2855,132.2835 469.3967,147.1723"/>
    <polygon points="469.5206,155.062 470.8791,152.591 471.0572,151.1811 470.8791,149.7712 469.5206,147.3002 468.4257,146.3944 465.7439,145.523 462.974,146.0514 460.8014,147.8488 459.7633,150.4706 459.7633,151.8917 460.8014,154.5134 461.7742,155.5494 464.3256,156.75 465.7439,156.8392 468.4257,155.9678"/>
    <line x1="461.3791" x2="431.6014" y1="155.1899" y2="184.9676"/>
    <polygon points="431.7254,185.0955 430.6304,184.1896 427.9486,183.3183 425.1788,183.8466 423.0061,185.6441 421.968,188.2658 421.968,189.6869 423.0061,192.3087 423.9789,193.3446 426.5303,194.5453 427.9486,194.6345 430.6304,193.7631 431.7254,192.8573 433.0838,190.3863 433.2619,188.9764 433.0838,187.5665"/>
    <line x1="423.5838" x2="393.8061" y1="192.9852" y2="222.7629"/>
    <polyline points="385.7886,222.7629 370.8997,207.874 333.1044,245.6693 347.9933,260.5581"/>
    <polygon points="347.4155,267.8993 348.3883,268.9352 350.9398,270.1358 352.3581,270.225 355.0398,269.3537 356.1348,268.4478 357.4933,265.9768 357.6714,264.5669 357.4933,263.157 356.1348,260.686 355.0398,259.7802 352.3581,258.9088 349.5882,259.4372 347.4155,261.2346 346.3775,263.8564 346.3775,265.2775"/>
    <polyline points="347.9933,268.5757 319.7418,296.8272 317.9761,298.8649 316.5184,301.1332 314.9723,304.8658 314.255,308.8417 314.1587,333.678 313.7749,336.3468 312.4991,340.1802 311.2069,342.5467 309.591,344.7051 281.9465,372.4178 280.1808,374.4555 278.7231,376.7237 277.177,380.4563 276.4597,384.4323 276.3634,409.2685 275.9797,411.9374 275.22,414.5244 274.0999,416.977 271.7958,420.2957 257.5139,434.6457 308.6718,485.8036 311.2069,488.9494 312.4991,491.3159 313.4413,493.8422 314.1587,497.8181 314.2068,523.4646"/>
    <polyline points="308.5375,529.1339 309.2388,526.4027 310.0741,525.253 311.169,524.3471 313.8508,523.4758 316.6207,524.0041 317.8205,524.7656 318.7934,525.8015 319.8314,528.4233 319.8314,529.8444 318.7934,532.4662 316.6207,534.2636 315.2691,534.7027 312.4549,534.5257 311.169,533.9206 309.2388,531.8651 308.5375,529.1339 282.891,529.182 280.2222,529.5657 277.6351,530.3254 274.0224,532.1338 270.8765,534.6688 204.8298,600.7156"/>
    <polygon points="195.1964,605.435 196.2344,608.0567 198.4071,609.8541 199.7587,610.2933 201.177,610.3825 203.8587,609.5112 205.789,607.4556 206.4903,604.7244 205.789,601.9932 204.9537,600.8435 203.8587,599.9377 201.177,599.0663 198.4071,599.5947 197.2072,600.3561 196.2344,601.3921 195.1964,604.0139"/>
    <line x1="196.8122" x2="167.0345" y1="608.7332" y2="638.5109"/>
    <polygon points="163.3817,636.8616 160.6118,637.39 159.412,638.1514 158.4391,639.1874 157.4011,641.8091 157.4011,643.2302 158.4391,645.852 160.6118,647.6494 161.9634,648.0886 163.3817,648.1778 166.0635,647.3064 167.9937,645.2509 168.695,642.5197 167.9937,639.7885 167.1584,638.6388 166.0635,637.7329"/>
    <polyline points="159.0169,646.5285 130.7654,674.78 128.7277,676.5457 125.2531,678.6072 121.4197,679.8831 117.4028,680.315 96.884,680.315 95.5393,680.2188 92.9588,679.4611 90.6963,678.0071 88.9351,675.9746 87.8179,673.5282 87.5313,672.2108 87.387,648.9992 86.6697,645.0233 85.7274,642.497 84.4352,640.1305 82.8194,637.972 68.5375,623.622 83.4264,608.7332"/>
    <polygon points="85.0213,609.8541 86.3728,610.2933 87.7911,610.3825 90.4729,609.5112 92.4032,607.4556 93.1044,604.7244 92.4032,601.9932 91.5679,600.8435 90.4729,599.9377 87.7911,599.0663 85.0213,599.5947 83.8214,600.3561 82.8486,601.3921 81.8106,604.0139 81.8106,605.435 82.8486,608.0567"/>
    <line x1="91.4439" x2="163.0257" y1="608.7332" y2="680.315"/>
    <line x1="156.3444" x2="169.707" y1="686.9963" y2="673.6336"/>
    <line x1="172.4745" x2="153.5769" y1="604.7244" y2="604.7244"/>
    <polyline points="163.0257,604.7244 163.2181,572.0674 163.7912,569.4327 164.7334,566.9064 166.0256,564.54 167.6415,562.3815 195.286,534.6688 197.3237,532.9032 199.592,531.4454 203.3246,529.8993 207.3005,529.182 230.5121,529.0377 233.0926,528.28 234.2759,527.6339 235.3551,526.826 237.1163,524.7935 238.2335,522.3471 238.6163,519.685 238.5201,499.4427 237.7624,496.8622 237.1163,495.679 235.3551,493.6465 234.2759,492.8385 231.8295,491.7213 229.1674,491.3386 207.3005,491.3867 204.6317,491.7705 202.0446,492.5301 199.592,493.6502 197.3237,495.1079 91.4439,600.7156"/>
    <polyline points="49.6399,642.5197 68.5375,623.622 54.2556,609.2721 51.9515,605.9534 50.4054,602.2208 49.8322,599.5862 49.6399,596.8968 49.6399,574.7568 50.0717,570.7398 51.3476,566.9064 53.4092,563.4319 55.1749,561.3941 121.2216,495.3474"/>
    <polygon points="130.1985,488.6074 129.3632,487.4577 126.9823,485.9468 125.5864,485.6805 122.8166,486.2089 121.6167,486.9703 119.9593,489.2516 119.6058,490.628 119.9593,493.4256 120.6439,494.6709 122.8166,496.4683 125.5864,496.9967 126.9823,496.7304 129.3632,495.2195 130.1985,494.0698 130.8997,491.3386"/>
    <polyline points="129.2392,487.3298 158.478,458.1591 160.6365,456.5432 164.2493,454.7348 166.8364,453.9752 170.8534,453.5433 232.1367,453.4952 234.8056,453.1114 238.639,451.8356 241.0054,450.5434 244.1512,448.0083 257.5139,434.6457 243.232,420.2957 241.6162,418.1372 239.8078,414.5244 239.0481,411.9374 238.6644,409.2685 238.6163,383.622"/>
    <polygon points="242.749,374.0719 240.3682,372.5609 238.9722,372.2947 236.2024,372.823 235.0025,373.5845 233.3451,375.8658 232.9917,377.2422 233.3451,380.0398 234.0297,381.2851 236.2024,383.0825 238.9722,383.6109 240.3682,383.3446 242.749,381.8337 244.1074,379.3627 244.2855,377.9528 244.1074,376.5429"/>
    <line x1="238.6163" x2="238.6163" y1="372.2835" y2="345.8268"/>
    <polygon points="240.3682,334.7657 238.9722,334.4994 236.2024,335.0278 235.0025,335.7892 233.3451,338.0705 232.9917,339.4469 233.3451,342.2445 234.0297,343.4898 236.2024,345.2872 238.9722,345.8156 240.3682,345.5493 242.749,344.0384 244.1074,341.5674 244.2855,340.1575 244.1074,338.7476 242.749,336.2766"/>
    <line x1="238.6163" x2="238.6163" y1="334.4882" y2="308.0315"/>
    <polyline points="244.2855,302.3622 244.1074,303.7721 242.749,306.2431 241.654,307.1489 238.9722,308.0203 237.5539,307.9311 235.0025,306.7305 233.3451,304.4492 232.9917,303.0728 233.3451,300.2752 234.0297,299.0299 236.2024,297.2325 237.5539,296.7933 240.3682,296.9704 242.749,298.4813 244.1074,300.9523 244.2855,302.3622 269.932,302.3141 273.908,301.5967 276.4342,300.6545 278.8007,299.3623 281.9465,296.8272 333.1044,245.6693 318.7545,231.3874 315.4358,229.0832 312.9832,227.9632 310.3961,227.2035 306.3791,226.7717 246.7204,226.8678 244.1399,227.6255 241.8774,229.0795 240.1162,231.1121 238.999,233.5584 238.6163,236.2205 238.6163,258.8976"/>
    <polygon points="241.654,269.3537 242.749,268.4478 244.1074,265.9768 244.2855,264.5669 244.1074,263.157 242.749,260.686 240.3682,259.1751 238.9722,258.9088 236.2024,259.4372 234.0297,261.2346 233.3451,262.4799 232.9917,265.2775 233.3451,266.6539 235.0025,268.9352 237.5539,270.1358 238.9722,270.225"/>
    <line x1="238.6163" x2="238.6163" y1="270.2362" y2="296.6929"/>
    <polyline points="232.947,302.3622 208.9251,302.4584 206.3446,303.2161 204.0821,304.6701 202.3209,306.7026 201.6748,307.8858 200.9172,310.4663 200.821,334.4882"/>
    <polygon points="201.177,334.4994 198.4071,335.0278 197.2072,335.7892 195.5498,338.0705 195.1964,339.4469 195.5498,342.2445 196.2344,343.4898 198.4071,345.2872 201.177,345.8156 202.5729,345.5493 204.9537,344.0384 206.3122,341.5674 206.4903,340.1575 206.3122,338.7476 204.9537,336.2766 202.5729,334.7657"/>
    <polyline points="200.821,345.8268 200.7248,369.8486 199.9671,372.4291 199.321,373.6124 197.5598,375.6449 195.2973,377.0989 192.7169,377.8566 169.5052,378.0009 165.5293,378.7182 161.7967,380.2643 159.5284,381.7221 157.4907,383.4877 125.2304,415.748"/>
    <line x1="118.5491" x2="131.9117" y1="409.0667" y2="422.4294"/>
    <polyline points="314.2068,534.8031 314.1106,558.825 313.3529,561.4055 311.8989,563.668 309.8664,565.4292 308.6832,566.0753 306.1027,566.833 285.8603,566.9291 283.1983,567.3119 281.9352,567.783 279.6727,569.237 277.9115,571.2695 276.7943,573.7159 276.4115,576.378 276.4597,598.2449 276.8434,600.9137 277.603,603.5008 278.7231,605.9534 281.0273,609.2721 295.3092,623.622 310.198,608.7332"/>
    <polygon points="311.7929,609.8541 313.1445,610.2933 314.5628,610.3825 317.2446,609.5112 319.1748,607.4556 319.8761,604.7244 319.1748,601.9932 318.3395,600.8435 317.2446,599.9377 314.5628,599.0663 311.7929,599.5947 310.5931,600.3561 309.6203,601.3921 308.5822,604.0139 308.5822,605.435 309.6203,608.0567"/>
    <polyline points="318.2156,600.7156 446.4903,472.4409 461.3791,487.3298"/>
    <polygon points="468.7202,495.9251 470.5176,493.7524 471.046,490.9826 470.1746,488.3008 469.2688,487.2058 466.7978,485.8474 465.3879,485.6693 463.978,485.8474 461.507,487.2058 460.6012,488.3008 459.7298,490.9826 460.2582,493.7524 461.0196,494.9523 462.0556,495.9251 464.6774,496.9632 466.0985,496.9632"/>
    <polyline points="469.3967,495.3474 484.2855,510.2362 432.2084,562.3815 430.5926,564.54 428.7841,568.1527 428.0245,570.7398 427.6408,573.4086 427.6888,596.6203 428.4465,599.2008 429.9005,601.4633 430.8538,602.4165 433.1163,603.8705 435.6967,604.6282 459.7186,604.7244"/>
    <polygon points="459.7298,604.3684 460.2582,607.1383 461.0196,608.3382 463.3009,609.9956 464.6774,610.349 467.4749,609.9956 469.7562,608.3382 470.5176,607.1383 471.046,604.3684 470.7797,602.9725 469.2688,600.5917 466.7978,599.2332 465.3879,599.0551 463.978,599.2332 461.507,600.5917 459.9961,602.9725"/>
    <line x1="471.0572" x2="497.5139" y1="604.7244" y2="604.7244"/>
    <polygon points="498.0535,607.1383 498.8149,608.3382 501.0962,609.9956 502.4726,610.349 505.2702,609.9956 507.5514,608.3382 508.3129,607.1383 508.8413,604.3684 508.575,602.9725 507.0641,600.5917 504.5931,599.2332 503.1832,599.0551 501.7733,599.2332 499.3023,600.5917 497.7914,602.9725 497.5251,604.3684"/>
    <polyline points="508.8525,604.7244 532.8743,604.8206 535.4548,605.5783 537.7173,607.0323 538.6706,607.9856 540.1246,610.248 540.8823,612.8285 540.9785,633.0709 541.3612,635.7329 542.4784,638.1793 543.2863,639.2585 545.3189,641.0197 546.5021,641.6658 549.0826,642.4235 570.6696,642.6159 573.2501,643.3736 575.5126,644.8276 577.2738,646.8601 577.9199,648.0433 578.6776,650.6238 578.7737,670.8661 579.1565,673.5282 579.6276,674.7913 581.0816,677.0538 583.1141,678.815 585.5605,679.9322 588.2226,680.315 610.0895,680.2668 614.0654,679.5495 617.798,678.0034 620.0663,676.5457 622.104,674.78 650.3555,646.5285"/>
    <polygon points="660.0336,642.5197 659.3323,639.7885 658.497,638.6388 657.402,637.7329 654.7203,636.8616 651.9504,637.39 650.7505,638.1514 649.0931,640.4327 648.7397,641.8091 649.0931,644.6067 649.7777,645.852 651.9504,647.6494 653.302,648.0886 654.7203,648.1778 657.402,647.3064 659.3323,645.2509"/>
    <polyline points="658.3731,638.5109 786.6477,510.2362 801.5366,525.1251"/>
    <polygon points="806.2559,534.7584 808.8777,533.7204 810.6751,531.5477 811.1143,530.1962 811.2035,528.7779 810.3321,526.0961 808.2766,524.1658 805.5454,523.4646 802.8142,524.1658 801.6645,525.0011 800.7586,526.0961 799.8873,528.7779 800.4157,531.5477 801.1771,532.7476 802.2131,533.7204 804.8348,534.7584"/>
    <line x1="809.5542" x2="839.3319" y1="533.1427" y2="562.9203"/>
    <polyline points="847.3495,562.9203 900.0336,510.2362 1032.317,642.5197"/>
    <line x1="1038.9984" x2="1025.6357" y1="635.8384" y2="649.201"/>
    <polyline points="1070.1123,648.189 1070.0642,673.8354 1069.3468,677.8114 1067.8007,681.544 1066.343,683.8122 1064.5773,685.85 1037.852,712.5752 1035.8143,714.3409 1033.5461,715.7987 1029.8135,717.3447 1027.1788,717.9179 1024.4894,718.1102 1002.3494,718.1102 998.3324,717.6784 994.4991,716.4025 991.0245,714.3409 988.9868,712.5752 960.7353,684.3238"/>
    <polygon points="960.6074,684.4477 961.5132,683.3527 962.3846,680.6709 961.8562,677.9011 961.0948,676.7012 958.8135,675.0438 957.437,674.6904 954.6395,675.0438 953.3942,675.7284 951.5968,677.9011 951.1576,679.2526 951.0684,680.6709 951.9397,683.3527 953.9953,685.283 956.7265,685.9843 959.4577,685.283"/>
    <line x1="952.7177" x2="918.9312" y1="684.3238" y2="718.1102"/>
    <line x1="912.2499" x2="925.6125" y1="711.4289" y2="724.7916"/>
    <line x1="952.7177" x2="922.94" y1="676.3062" y2="646.5285"/>
    <polygon points="924.5001,643.582 924.5893,642.1637 923.718,639.4819 921.6624,637.5516 918.9312,636.8504 916.2,637.5516 915.0503,638.3869 914.1445,639.4819 913.2731,642.1637 913.8015,644.9336 914.5629,646.1334 916.8442,647.7909 918.2207,648.1443 921.0182,647.7909 922.2635,647.1062 924.0609,644.9336"/>
    <line x1="914.9224" x2="847.3495" y1="638.5109" y2="570.9379"/>
    <polygon points="847.7089,570.5429 848.9095,567.9915 848.9988,566.5732 848.1274,563.8914 846.0719,561.9611 843.3407,561.2598 840.6095,561.9611 839.4598,562.7964 838.5539,563.8914 837.6826,566.5732 837.7718,567.9915 838.9724,570.5429 840.0083,571.5157 842.6301,572.5537 844.0512,572.5537 846.673,571.5157"/>
    <line x1="843.3407" x2="843.3407" y1="633.0709" y2="651.9685"/>
    <polyline points="843.3407,642.5197 812.0249,642.5678 809.3561,642.9516 805.5227,644.2274 802.0481,646.289 800.0104,648.0547 771.7589,676.3062"/>
    <polygon points="765.3362,675.1852 764.1364,675.9467 762.4789,678.228 762.1255,679.6044 762.4789,682.402 763.1636,683.6473 765.3362,685.4447 766.6878,685.8838 768.1061,685.9731 770.7879,685.1017 772.7181,683.0462 773.4194,680.315 772.7181,677.5838 771.8828,676.4341 770.7879,675.5282 768.1061,674.6569"/>
    <polyline points="763.7413,684.3238 734.5025,713.4945 731.1839,715.7987 727.4513,717.3447 724.8166,717.9179 722.1272,718.1102 660.0336,718.1102"/>
    <polyline points="654.3643,712.4409 657.0955,713.1422 659.151,715.0725 660.0224,717.7543 659.9332,719.1726 659.494,720.5241 657.6966,722.6968 656.4513,723.3814 653.6537,723.7348 652.2773,723.3814 649.996,721.724 649.2346,720.5241 648.7062,717.7543 649.5775,715.0725 650.4834,713.9775 651.6331,713.1422 654.3643,712.4409 654.3643,680.315"/>
    <line x1="644.9155" x2="663.8131" y1="680.315" y2="680.315"/>
    <line x1="648.695" x2="584.443" y1="718.1102" y2="718.1102"/>
    <polygon points="583.5605,715.0725 581.5049,713.1422 578.7737,712.4409 576.0425,713.1422 574.8928,713.9775 573.987,715.0725 573.1156,717.7543 573.644,720.5241 574.4055,721.724 576.6867,723.3814 578.0632,723.7348 580.8607,723.3814 582.1061,722.6968 583.9035,720.5241 584.3426,719.1726 584.4318,717.7543"/>
    <line x1="573.1044" x2="546.6477" y1="718.1102" y2="718.1102"/>
    <polygon points="535.8487,720.5241 536.6102,721.724 538.8915,723.3814 540.2679,723.7348 543.0655,723.3814 544.3108,722.6968 545.3467,721.724 546.5473,719.1726 546.3703,716.3583 544.8594,713.9775 542.3884,712.6191 540.9785,712.4409 539.5686,712.6191 537.0976,713.9775 535.5866,716.3583 535.3204,717.7543"/>
    <polyline points="535.3092,718.1102 473.2156,718.1102 470.5261,717.9179 467.8915,717.3447 464.1589,715.7987 460.8402,713.4945 431.0899,684.0843 428.8216,682.6265 426.369,681.5065 423.782,680.7468 419.765,680.315 397.9015,680.4111 395.321,681.1688 394.1378,681.8149 392.1052,683.5761 390.6512,685.8386 389.8935,688.4191 389.7974,708.6614 389.4146,711.3235 388.9435,712.5866 387.4895,714.8491 385.457,716.6103 383.0106,717.7275 380.3485,718.1102 276.4115,718.1102"/>
    <line x1="276.4115" x2="276.4115" y1="727.5591" y2="708.6614"/>
    <polyline points="272.4027,646.5285 243.1639,675.6992 239.8453,678.0034 237.3926,679.1235 234.8056,679.8831 232.1367,680.2668 208.9251,680.2188 206.3446,679.4611 205.1614,678.815 203.1289,677.0538 201.6748,674.7913 201.2037,673.5282 200.821,670.8661 200.821,651.9685 201.2037,649.3065 201.6748,648.0433 203.1289,645.7808 205.1614,644.0197 206.3446,643.3736 208.9251,642.6159 230.7886,642.5197 234.8056,642.9516 237.3926,643.7112 239.8453,644.8313 242.1135,646.289 270.8765,674.78 272.9143,676.5457 276.3888,678.6072 280.2222,679.8831 282.891,680.2668 304.758,680.315 306.1027,680.2188 308.6832,679.4611 310.9456,678.0071 311.8989,677.0538 313.3529,674.7913 314.1106,672.2108 314.2068,650.3473 314.0145,647.6579 313.4413,645.0233 311.8952,641.2907 310.4375,639.0224 295.3092,623.622 280.4203,638.5109"/>
    <polygon points="271.1404,644.6067 271.825,645.852 273.9977,647.6494 275.3492,648.0886 276.7675,648.1778 279.4493,647.3064 281.3796,645.2509 282.0808,642.5197 281.3796,639.7885 280.5443,638.6388 279.4493,637.7329 276.7675,636.8616 273.9977,637.39 272.7978,638.1514 271.825,639.1874 270.7869,641.8091"/>
    <line x1="56.3212" x2="42.9586" y1="649.201" y2="635.8384"/>
    <polyline points="384.1281,415.748 360.1062,415.6519 357.5257,414.8942 355.2632,413.4402 354.31,412.4869 352.856,410.2244 352.0983,407.6439 352.0021,385.7804 352.4339,381.7634 353.1936,379.1764 355.002,375.5636 356.6178,373.4051 385.7886,344.1663"/>
    <polygon points="395.2885,338.7476 393.9301,336.2766 392.8351,335.3707 390.1533,334.4994 387.3835,335.0278 386.1836,335.7892 385.2108,336.8252 384.1728,339.4469 384.1728,340.868 385.2108,343.4898 387.3835,345.2872 390.1533,345.8156 392.8351,344.9442 393.9301,344.0384 395.2885,341.5674 395.4666,340.1575"/>
    <polyline points="393.8061,336.1487 408.695,321.2598 423.5838,336.1487"/>
    <polygon points="433.2507,339.8015 432.3794,337.1197 431.4735,336.0247 429.0025,334.6663 427.5926,334.4882 426.1827,334.6663 423.7117,336.0247 422.8059,337.1197 421.9345,339.8015 422.4629,342.5713 423.2244,343.7712 424.2603,344.744 426.8821,345.7821 428.3032,345.7821 430.925,344.744 432.7224,342.5713"/>
    <polyline points="431.6014,344.1663 446.4903,359.0551 432.2084,373.4051 430.5926,375.5636 428.7841,379.1764 428.0245,381.7634 427.6408,384.4323 427.5926,410.0787"/>
    <polyline points="421.9233,415.748 422.1015,414.3381 423.4599,411.8671 424.5549,410.9613 427.2367,410.0899 430.0065,410.6183 432.1792,412.4157 433.2172,415.0375 433.2172,416.4586 432.1792,419.0804 431.2064,420.1163 430.0065,420.8778 427.2367,421.4061 424.5549,420.5348 423.4599,419.6289 422.1015,417.1579 421.9233,415.748 395.4666,415.748"/>
    <polygon points="384.1393,415.3921 384.6676,418.1619 385.4291,419.3618 386.465,420.3346 389.0868,421.3726 390.5079,421.3726 393.1297,420.3346 394.9271,418.1619 395.4555,415.3921 394.5841,412.7103 393.6783,411.6153 391.2073,410.2569 389.7974,410.0787 388.3875,410.2569 385.9165,411.6153 385.0106,412.7103"/>
    <polyline points="427.5926,421.4173 427.6408,447.0638 428.0245,449.7326 428.7841,452.3197 430.5926,455.9325 432.2084,458.091 446.4903,472.4409 499.1744,419.7568"/>
    <polygon points="500.1454,420.5348 502.8272,421.4061 505.597,420.8778 506.7969,420.1163 507.7697,419.0804 508.8078,416.4586 508.8078,415.0375 507.7697,412.4157 505.597,410.6183 502.8272,410.0899 500.1454,410.9613 499.0504,411.8671 497.692,414.3381 497.5139,415.748 497.692,417.1579 499.0504,419.6289"/>
    <polyline points="499.1744,411.7392 446.4903,359.0551 460.7721,344.7051 463.0763,341.3865 464.6224,337.6539 465.1956,335.0192 465.3879,332.3298 465.3879,311.811 465.0052,309.149 464.534,307.8858 463.08,305.6234 462.1267,304.6701 459.8643,303.2161 457.2838,302.4584 435.4203,302.3622 432.7309,302.5546 430.0962,303.1277 426.3636,304.6738 423.045,306.978 408.695,321.2598 356.0109,268.5757"/>
    <line x1="356.0109" x2="385.7886" y1="260.5581" y2="230.7804"/>
    <polygon points="384.3062,228.1815 385.6646,230.6526 386.7596,231.5584 389.4414,232.4298 390.8597,232.3405 393.4111,231.1399 394.3839,230.104 395.4219,227.4822 395.4219,226.0611 394.3839,223.4393 392.2112,221.6419 389.4414,221.1135 386.7596,221.9849 385.6646,222.8908 384.3062,225.3618 384.1281,226.7717"/>
    <line x1="389.7974" x2="389.7974" y1="122.8346" y2="103.937"/>
    <polyline points="389.7974,113.3858 357.1403,113.5782 354.5057,114.1513 351.9794,115.0936 349.6129,116.3858 347.4544,118.0016 319.7418,145.6461 317.9761,147.6838 316.5184,149.9521 314.9723,153.6847 314.255,157.6606 314.2068,179.5276 313.8241,182.1896 313.3529,183.4527 311.8989,185.7152 309.8664,187.4764 307.42,188.5936 304.758,188.9764 282.891,188.9282 278.9151,188.2109 275.1825,186.6648 272.9143,185.2071 270.8765,183.4414 242.625,155.1899"/>
    <polygon points="241.9486,155.7677 242.9845,154.7948 244.1851,152.2434 244.2744,150.8251 243.403,148.1433 241.3475,146.2131 238.6163,145.5118 237.2064,145.6899 234.7354,147.0484 233.8295,148.1433 232.9581,150.8251 233.0474,152.2434 234.248,154.7948 235.2839,155.7677 237.9057,156.8057 239.3268,156.8057"/>
    <polyline points="234.6075,147.1723 181.9233,94.4882 196.2733,80.2063 198.4318,78.5905 200.7983,77.2983 204.6317,76.0224 208.6486,75.5906 270.7422,75.5906"/>
    <polygon points="276.4115,69.9213 273.6803,70.6225 272.5306,71.4578 271.6248,72.5528 270.7534,75.2346 270.8427,76.6529 272.0433,79.2043 274.3245,80.8617 275.701,81.2151 278.4985,80.8617 280.7798,79.2043 281.5413,78.0044 282.0696,75.2346 281.8033,73.8386 280.2924,71.4578 279.1427,70.6225"/>
    <line x1="282.0808" x2="314.2068" y1="75.5906" y2="75.5906"/>
    <line x1="314.2068" x2="314.2068" y1="66.1417" y2="85.0394"/>
    <line x1="458.7066" x2="472.0692" y1="68.9092" y2="82.2719"/>
    <polyline points="465.3879,75.5906 446.4903,94.4882 461.3791,109.377"/>
    <polyline points="469.3967,109.377 497.6482,81.1255 500.794,78.5905 503.1605,77.2983 506.9939,76.0224 509.6627,75.6387 540.9785,75.5906"/>
    <line x1="540.9785" x2="540.9785" y1="66.1417" y2="85.0394"/>
    <polyline points="499.1744,147.1723 484.2855,132.2835 498.6355,118.0016 500.794,116.3858 504.4068,114.5773 506.9939,113.8177 509.6627,113.434 531.5296,113.3858 534.1917,113.7686 536.6381,114.8858 538.6706,116.647 540.1246,118.9095 540.5957,120.1726 540.9785,122.8346 541.0746,143.077 541.8323,145.6575 543.2863,147.9199 544.2396,148.8732 546.5021,150.3272 549.0826,151.0849 550.4273,151.1811 569.3249,151.1811 571.987,150.7984 573.2501,150.3272 575.5126,148.8732 577.2738,146.8407 578.391,144.3943 578.6776,143.077 578.8219,119.8653 579.5392,115.8894 581.0853,112.1568 582.543,109.8886 584.3087,107.8508 611.034,81.1255 613.0717,79.3599 615.34,77.9021 619.0726,76.356 621.7073,75.7829 648.695,75.5906"/>
    <polygon points="659.494,78.0044 659.9332,76.6529 660.0224,75.2346 659.151,72.5528 657.0955,70.6225 654.3643,69.9213 651.6331,70.6225 650.4834,71.4578 649.5775,72.5528 648.7062,75.2346 649.2346,78.0044 649.996,79.2043 651.032,80.1771 653.6537,81.2151 655.0748,81.2151 657.6966,80.1771"/>
    <line x1="660.0336" x2="686.4903" y1="75.5906" y2="75.5906"/>
    <polygon points="692.8701,81.2151 695.4919,80.1771 697.2893,78.0044 697.7284,76.6529 697.8177,75.2346 696.9463,72.5528 694.8908,70.6225 692.1596,69.9213 689.4284,70.6225 688.2787,71.4578 687.3728,72.5528 686.5015,75.2346 687.0298,78.0044 687.7913,79.2043 688.8272,80.1771 691.449,81.2151"/>
    <polyline points="697.8289,75.5906 723.4753,75.6387 727.4513,76.356 731.1839,77.9021 733.4521,79.3599 735.4898,81.1255 763.7413,109.377"/>
    <polygon points="765.9982,107.994 763.6174,109.5049 762.2589,111.9759 762.0808,113.3858 762.2589,114.7957 763.6174,117.2667 765.9982,118.7776 767.3941,119.0439 770.164,118.5156 771.3639,117.7541 773.0213,115.4728 773.3747,114.0964 773.0213,111.2988 771.3639,109.0176 770.164,108.2561 767.3941,107.7277"/>
    <polyline points="771.7589,109.377 800.0104,81.1255 802.0481,79.3599 804.3164,77.9021 808.049,76.356 812.0249,75.6387 838.2024,75.7829 840.8371,76.356 843.3634,77.2983 845.7298,78.5905 847.8883,80.2063 900.0336,132.2835 914.3155,117.9335 916.6196,114.6148 917.7397,112.1622 918.4993,109.5752 918.8831,106.9063 919.0274,83.6947 919.7851,81.1142 921.2391,78.8517 922.1924,77.8984 924.4549,76.4444 927.0353,75.6867 951.0572,75.5906"/>
    <polygon points="960.0588,80.1771 961.8562,78.0044 962.2954,76.6529 962.3846,75.2346 961.5132,72.5528 959.4577,70.6225 956.7265,69.9213 953.9953,70.6225 952.8456,71.4578 951.9397,72.5528 951.0684,75.2346 951.5968,78.0044 952.3582,79.2043 953.3942,80.1771 956.0159,81.2151 957.437,81.2151"/>
    <polyline points="962.3958,75.5906 986.4177,75.6867 988.9981,76.4444 991.2606,77.8984 993.0218,79.931 993.6679,81.1142 994.4256,83.6947 994.5218,107.7165"/>
    <polygon points="1000.0129,114.7957 1000.1911,113.3858 1000.0129,111.9759 998.6545,109.5049 996.2737,107.994 994.8777,107.7277 992.1079,108.2561 990.908,109.0176 989.2506,111.2988 988.8972,112.6753 989.2506,115.4728 990.908,117.7541 992.1079,118.5156 994.8777,119.0439 996.2737,118.7776 998.6545,117.2667"/>
    <polyline points="994.5218,119.0551 994.6179,143.077 995.3756,145.6575 996.8296,147.9199 998.8622,149.6811 1000.0454,150.3272 1002.6259,151.0849 1026.6477,151.1811"/>
    <polygon points="1033.0276,156.8057 1035.6494,155.7677 1037.4468,153.595 1037.9751,150.8251 1037.1038,148.1433 1036.1979,147.0484 1033.7269,145.6899 1032.317,145.5118 1029.5858,146.2131 1028.4361,147.0484 1027.5303,148.1433 1026.6589,150.8251 1026.7482,152.2434 1027.9488,154.7948 1030.23,156.4523 1031.6065,156.8057"/>
    <line x1="1037.9863" x2="1070.1123" y1="151.1811" y2="151.1811"/>
    <line x1="1070.1123" x2="1070.1123" y1="141.7323" y2="160.6299"/>
    <polyline points="1032.317,258.8976 1032.317,236.2205 1031.9343,233.5584 1030.8171,231.1121 1029.0559,229.0795 1026.7934,227.6255 1025.5303,227.1544 1022.8682,226.7717 1002.6259,226.8678 1000.0454,227.6255 997.7829,229.0795 996.8296,230.0328 995.3756,232.2953 994.6179,234.8758 994.5218,258.8976"/>
    <polygon points="990.908,268.9352 993.4594,270.1358 994.8777,270.225 997.5595,269.3537 998.6545,268.4478 1000.0129,265.9768 1000.1911,264.5669 1000.0129,263.157 998.6545,260.686 996.2737,259.1751 994.8777,258.9088 992.1079,259.4372 990.908,260.1987 989.2506,262.4799 988.8972,265.2775 989.2506,266.6539"/>
    <polyline points="994.5218,270.2362 994.4736,295.8827 994.0899,298.5515 993.3303,301.1386 992.2102,303.5912 989.906,306.9099 975.6241,321.2598 1064.5773,410.213 1066.343,412.2508 1067.8007,414.519 1069.3468,418.2516 1069.92,420.8863 1070.1123,423.5757 1070.1123,483.5109 1069.92,486.2003 1069.3468,488.835 1067.8007,492.5676 1065.4966,495.8862 1037.852,523.5989 1035.317,526.7447 1034.0248,529.1112 1033.0825,531.6374 1032.3652,535.6134 1032.317,557.4803 1031.9343,560.1424 1030.8171,562.5887 1029.0559,564.6213 1027.9766,565.4292 1025.5303,566.5464 1022.8682,566.9291 999.66,566.7368 995.7454,565.7376 993.2927,564.6176 991.0245,563.1598 922.94,495.3474"/>
    <polygon points="924.6005,491.3386 924.4224,489.9287 923.0639,487.4577 920.6831,485.9468 919.2872,485.6805 916.5173,486.2089 915.3175,486.9703 913.66,489.2516 913.3066,490.628 913.66,493.4256 915.3175,495.7068 916.5173,496.4683 919.2872,496.9967 920.6831,496.7304 923.0639,495.2195 924.4224,492.7485"/>
    <polyline points="922.94,487.3298 952.1107,458.091 954.4149,454.7723 955.535,452.3197 956.2946,449.7326 956.7265,445.7156 956.6783,422.2275 955.961,418.2516 954.4149,414.519 952.9572,412.2508 951.1915,410.213 922.94,381.9616"/>
    <polygon points="924.6005,377.9528 924.4224,376.5429 923.0639,374.0719 920.6831,372.5609 919.2872,372.2947 916.5173,372.823 915.3175,373.5845 913.66,375.8658 913.3066,377.2422 913.66,380.0398 915.3175,382.321 916.5173,383.0825 919.2872,383.6109 920.6831,383.3446 923.0639,381.8337 924.4224,379.3627"/>
    <line x1="922.94" x2="952.7177" y1="373.944" y2="344.1663"/>
    <line x1="960.7353" x2="990.513" y1="344.1663" y2="373.944"/>
    <polygon points="989.392,380.3666 990.1535,381.5665 991.1894,382.5393 993.8112,383.5773 995.2323,383.5773 997.8541,382.5393 999.6515,380.3666 1000.0906,379.0151 1000.1799,377.5968 999.3085,374.915 997.253,372.9847 994.5218,372.2835 991.7906,372.9847 990.6409,373.82 989.735,374.915 988.8637,377.5968"/>
    <polyline points="998.5306,381.9616 1026.782,410.213 1029.3171,413.3589 1030.6093,415.7253 1031.8852,419.5587 1032.317,423.5757 1032.2689,447.0638 1031.8852,449.7326 1031.1255,452.3197 1029.3171,455.9325 1026.782,459.0783 1000.0568,485.8036 998.019,487.5693 995.7508,489.027 992.0182,490.5731 988.0422,491.2904 956.7265,491.3386"/>
    <line x1="956.7265" x2="956.7265" y1="500.7874" y2="481.8898"/>
    <polyline points="914.9224,495.3474 900.0336,510.2362 847.3495,457.5521"/>
    <polygon points="847.4734,449.6624 845.0926,448.1515 843.6966,447.8852 840.9268,448.4136 839.7269,449.175 838.0695,451.4563 837.7161,452.8328 838.0695,455.6303 839.7269,457.9116 840.9268,458.673 843.6966,459.2014 845.0926,458.9351 847.4734,457.4242 848.8318,454.9532 849.01,453.5433 848.8318,452.1334"/>
    <polyline points="847.3495,449.5345 862.2383,434.6457 876.5883,448.9276 879.9069,451.2317 882.3595,452.3518 884.9466,453.1114 888.9636,453.5433 909.4824,453.5433 912.1444,453.1606 913.4076,452.6894 915.6701,451.2354 917.4312,449.2029 918.5485,446.7565 918.835,445.4392 918.9312,415.748"/>
    <line x1="909.4824" x2="928.38" y1="415.748" y2="415.748"/>
    <line x1="914.9224" x2="885.1447" y1="381.9616" y2="411.7392"/>
    <polygon points="886.6271,417.1579 886.8052,415.748 886.6271,414.3381 885.2687,411.8671 882.8878,410.3562 881.4919,410.0899 878.7221,410.6183 877.5222,411.3798 875.8648,413.661 875.5114,415.0375 875.8648,417.835 877.5222,420.1163 878.7221,420.8778 881.4919,421.4061 882.8878,421.1398 885.2687,419.6289"/>
    <polyline points="877.1271,419.7568 862.2383,434.6457 847.9564,420.2957 846.3406,418.1372 845.0484,415.7707 844.1061,413.2445 843.533,410.6098 843.3407,377.9528"/>
    <line x1="833.8918" x2="852.7895" y1="377.9528" y2="377.9528"/>
    <polygon points="877.8036,344.744 880.4254,345.7821 881.8465,345.7821 884.4683,344.744 886.2657,342.5713 886.7048,341.2198 886.794,339.8015 885.9227,337.1197 883.8671,335.1894 881.1359,334.4882 878.4047,335.1894 877.255,336.0247 876.3492,337.1197 875.4778,339.8015 876.0062,342.5713 876.7677,343.7712"/>
    <line x1="885.1447" x2="914.9224" y1="344.1663" y2="373.944"/>
    <polyline points="877.1271,336.1487 848.8757,307.8972 846.8379,306.1315 844.5697,304.6738 840.8371,303.1277 836.8611,302.4104 814.9942,302.3622 812.3322,302.7449 811.069,303.2161 808.8065,304.6701 807.0454,306.7026 805.9281,309.149 805.5454,311.811 805.4492,332.0534 804.6915,334.6338 804.0454,335.8171 802.2842,337.8496 800.0217,339.3036 798.7586,339.7747 796.0966,340.1575 777.1989,340.1575 774.5369,339.7747 772.0905,338.6575 770.058,336.8963 768.604,334.6338 767.8463,332.0534 767.7501,308.0315"/>
    <polygon points="766.6878,307.9311 768.1061,308.0203 770.7879,307.1489 771.8828,306.2431 773.2413,303.7721 773.4194,302.3622 773.2413,300.9523 771.8828,298.4813 769.502,296.9704 768.1061,296.7041 765.3362,297.2325 764.1364,297.9939 762.4789,300.2752 762.1255,303.0728 762.4789,304.4492 764.1364,306.7305"/>
    <polyline points="767.7501,296.6929 767.6539,272.671 766.8962,270.0906 766.2501,268.9073 764.489,266.8748 762.2265,265.4208 759.646,264.6631 735.0931,264.3746 731.1784,263.3754 727.5657,261.567 724.4198,259.0319 696.7753,231.3193 694.4711,228.0007 692.925,224.2681 692.3519,221.6334 692.1596,218.944 692.1596,196.804 692.5914,192.7871 693.8673,188.9537 695.9289,185.4791 697.6945,183.4414 725.946,155.1899"/>
    <polygon points="724.3302,151.8917 724.6837,153.2681 726.3411,155.5494 727.541,156.3108 730.3108,156.8392 731.7067,156.5729 734.0876,155.062 735.446,152.591 735.6241,151.1811 735.446,149.7712 734.0876,147.3002 731.7067,145.7893 730.3108,145.523 727.541,146.0514 726.3411,146.8128 724.6837,149.0941"/>
    <line x1="733.9636" x2="763.7413" y1="147.1723" y2="117.3946"/>
    <line x1="623.2503" x2="609.8877" y1="157.8624" y2="144.4998"/>
    <polyline points="616.569,151.1811 584.3087,183.4414 581.7737,186.5872 579.9652,190.2 579.2056,192.7871 578.7737,196.804 578.7737,255.1181 578.391,257.7802 577.2738,260.2265 575.5126,262.2591 574.4333,263.067 571.987,264.1842 570.6696,264.4708 546.6477,264.5669"/>
    <polygon points="542.3884,259.0757 540.9785,258.8976 539.5686,259.0757 537.0976,260.4342 535.5866,262.815 535.3204,264.211 535.8487,266.9808 536.6102,268.1807 538.8915,269.8381 540.2679,270.1915 543.0655,269.8381 544.3108,269.1535 545.3467,268.1807 546.5473,265.6292 546.3703,262.815 544.8594,260.4342"/>
    <polyline points="535.3092,264.5669 511.2873,264.4708 508.7068,263.7131 506.4443,262.2591 504.6831,260.2265 503.5659,257.7802 503.1832,255.1181 503.1832,236.2205 503.2794,234.8758 504.0371,232.2953 505.4911,230.0328 506.4443,229.0795 508.7068,227.6255 511.2873,226.8678 531.5296,226.7717 534.1917,226.3889 536.6381,225.2717 538.6706,223.5105 540.1246,221.248 540.5957,219.9849 540.9785,217.3228 540.9303,195.4559 540.213,191.48 538.6669,187.7474 537.2092,185.4791 535.4435,183.4414 507.192,155.1899"/>
    <polygon points="497.7914,149.4292 497.5251,150.8251 498.0535,153.595 498.8149,154.7948 499.8509,155.7677 502.4726,156.8057 505.2702,156.4523 506.5155,155.7677 508.3129,153.595 508.8413,150.8251 508.575,149.4292 507.0641,147.0484 504.5931,145.6899 503.1832,145.5118 501.7733,145.6899 499.3023,147.0484"/>
    <line x1="540.9785" x2="540.9785" y1="406.2992" y2="425.1969"/>
    <polyline points="540.9785,415.748 572.2942,415.7962 576.2702,416.5135 578.7964,417.4558 581.1629,418.748 584.3087,421.283 611.9533,448.9956 614.2574,452.3143 615.3775,454.7669 616.1371,457.354 616.569,461.371 616.4728,483.2345 615.7151,485.8149 615.069,486.9982 613.3078,489.0307 611.0454,490.4847 608.4649,491.2424 585.2532,491.2904 582.5844,490.9067 578.751,489.6308 576.3846,488.3386 574.2261,486.7228 546.5134,459.0783 543.3676,456.5432 541.0012,455.251 538.4749,454.3088 534.4989,453.5915 512.632,453.5433 509.97,453.9261 508.7068,454.3972 506.4443,455.8512 504.6831,457.8837 503.5659,460.3301 503.1832,462.9921 503.135,484.8591 502.7513,487.5279 501.4754,491.3613 500.1832,493.7278 498.5674,495.8862 484.2855,510.2362 498.6355,524.5181 501.9542,526.8223 504.4068,527.9424 506.9939,528.702 511.0108,529.1339 531.5296,529.1339 534.1917,528.7511 536.6381,527.6339 538.6706,525.8727 540.1246,523.6102 540.8823,521.0297 540.9785,491.3386"/>
    <line x1="550.4273" x2="531.5296" y1="491.3386" y2="491.3386"/>
    <polyline points="507.192,411.7392 536.4308,382.5685 539.7494,380.2643 543.482,378.7182 546.1167,378.1451 548.8061,377.9528 608.7414,377.9528 612.7583,378.3846 615.3454,379.1443 617.798,380.2643 621.1167,382.5685 650.595,412.2508 652.0527,414.519 653.1728,416.9716 653.9324,419.5587 654.3643,423.5757 654.3643,483.5109 653.9324,487.5279 653.1728,490.115 651.3644,493.7278 648.8293,496.8736 584.3087,561.3941 581.7737,564.54 579.9652,568.1527 579.2056,570.7398 578.8219,573.4086 578.7737,595.2756 579.1565,597.9376 579.6276,599.2008 580.2737,600.384 582.0349,602.4165 584.2974,603.8705 586.8778,604.6282 607.1202,604.7244 608.4649,604.6282 611.0454,603.8705 612.2286,603.2244 614.2611,601.4633 615.7151,599.2008 616.1863,597.9376 616.569,595.2756 616.569,566.9291"/>
    <line x1="607.1202" x2="626.0178" y1="566.9291" y2="566.9291"/>
    <polygon points="762.9634,488.3008 762.092,490.9826 762.6204,493.7524 763.3818,494.9523 764.4178,495.9251 767.0396,496.9632 768.4607,496.9632 771.0824,495.9251 772.8798,493.7524 773.319,492.4009 773.4082,490.9826 772.5369,488.3008 770.4813,486.3705 767.7501,485.6693 765.0189,486.3705 763.8692,487.2058"/>
    <line x1="763.7413" x2="696.1684" y1="487.3298" y2="419.7568"/>
    <polygon points="697.7284,416.8104 697.8177,415.3921 696.9463,412.7103 694.8908,410.78 692.1596,410.0787 689.4284,410.78 688.2787,411.6153 687.3728,412.7103 686.5015,415.3921 687.0298,418.1619 687.7913,419.3618 688.8272,420.3346 691.449,421.3726 692.8701,421.3726 695.4919,420.3346 697.2893,418.1619"/>
    <polyline points="688.1508,411.7392 622.104,345.6925 619.5689,342.5467 617.7605,338.9339 617.0009,336.3468 616.6172,333.678 616.569,311.811 616.6652,310.4663 617.4229,307.8858 618.8769,305.6234 620.9094,303.8622 623.3558,302.7449 626.0178,302.3622 646.5366,302.3622 650.5536,302.7941 654.387,304.0699 657.8616,306.1315 659.8993,307.8972 686.6246,334.6225 688.3903,336.6602 689.848,338.9285 690.9681,341.3811 691.7277,343.9682 692.1596,347.9851 692.3519,372.8145 693.3511,376.7291 694.4711,379.1818 695.9289,381.45 801.5366,487.3298"/>
    <polygon points="801.4127,495.2195 803.7935,496.7304 805.1894,496.9967 807.9593,496.4683 809.1591,495.7068 810.8166,493.4256 811.17,492.0491 810.8166,489.2516 809.1591,486.9703 807.9593,486.2089 805.1894,485.6805 803.7935,485.9468 801.4127,487.4577 800.0542,489.9287 799.8761,491.3386 800.0542,492.7485"/>
    <polyline points="801.5366,495.3474 786.6477,510.2362 771.7589,495.3474"/>
    <line x1="809.5542" x2="839.3319" y1="487.3298" y2="457.5521"/>
    <line x1="839.3319" x2="805.5454" y1="449.5345" y2="415.748"/>
    <line x1="812.2267" x2="798.8641" y1="409.0667" y2="422.4294"/>
    <polyline points="913.2619,302.3622 889.24,302.266 887.9227,301.9795 885.4763,300.8622 883.4438,299.101 881.9898,296.8386 881.2321,294.2581 881.1359,270.2362"/>
    <polygon points="875.8648,262.4799 875.5114,265.2775 875.8648,266.6539 877.5222,268.9352 880.0736,270.1358 881.4919,270.225 884.1737,269.3537 885.2687,268.4478 886.6271,265.9768 886.8052,264.5669 886.6271,263.157 885.2687,260.686 882.8878,259.1751 881.4919,258.9088 878.7221,259.4372 877.5222,260.1987"/>
    <polyline points="881.1359,258.8976 881.0398,234.8758 880.2821,232.2953 879.636,231.1121 877.8748,229.0795 875.6123,227.6255 873.0318,226.8678 849.8202,226.7235 845.8442,226.0062 842.1116,224.4601 839.8434,223.0024 837.8057,221.2367 810.093,193.5921 807.9346,191.9763 805.5681,190.6841 801.7347,189.4082 797.7177,188.9764 739.4037,188.9764 736.7416,189.3591 734.2952,190.4763 732.2627,192.2375 730.8087,194.5 730.051,197.0805 729.9548,198.4252 730.051,218.6675 730.3376,219.9849 731.4548,222.4313 733.216,224.4638 735.4785,225.9178 736.7416,226.3889 739.4037,226.7717 797.7177,226.7717 801.7347,226.3398 804.3218,225.5802 807.9346,223.7717 811.0804,221.2367 837.8057,194.5114 839.5714,192.4737 841.0291,190.2054 842.5752,186.4728 843.2925,182.4969 843.4368,159.2852 843.7234,157.9679 844.8406,155.5215 846.6018,153.489 848.8643,152.035 851.4448,151.2773 874.6564,151.133 877.3253,150.7492 879.9123,149.9896 882.365,148.8695 885.6836,146.5653 900.0336,132.2835 951.1915,183.4414 953.7266,186.5872 955.535,190.2 956.2946,192.7871 956.6783,195.4559 956.7265,226.7717"/>
    <line x1="966.1753" x2="947.2777" y1="226.7717" y2="226.7717"/>
    <polyline points="924.6005,302.3622 951.5882,302.5546 954.2229,303.1277 957.9555,304.6738 960.2238,306.1315 962.2615,307.8972 975.6241,321.2598 960.7353,336.1487"/>
    <polygon points="960.8592,336.2766 958.4784,334.7657 957.0825,334.4994 954.3126,335.0278 953.1127,335.7892 951.4553,338.0705 951.1019,339.4469 951.4553,342.2445 953.1127,344.5257 954.3126,345.2872 957.0825,345.8156 958.4784,345.5493 960.8592,344.0384 962.2177,341.5674 962.3958,340.1575 962.2177,338.7476"/>
    <polygon points="924.0609,304.7761 924.5001,303.4245 924.5893,302.0062 923.718,299.3244 921.6624,297.3942 918.9312,296.6929 916.2,297.3942 915.0503,298.2295 914.1445,299.3244 913.2731,302.0062 913.8015,304.7761 914.5629,305.9759 915.5989,306.9488 918.2207,307.9868 921.0182,307.6334 922.2635,306.9488"/>
    <polyline points="998.5306,373.944 1027.7013,344.7051 1030.0055,341.3865 1031.5516,337.6539 1032.1247,335.0192 1032.317,332.3298 1032.317,270.2362"/>
    <polygon points="1032.673,270.225 1035.3548,269.3537 1036.4498,268.4478 1037.2851,267.2981 1037.9863,264.5669 1037.2851,261.8357 1036.4498,260.686 1034.0689,259.1751 1032.673,258.9088 1029.9032,259.4372 1028.7033,260.1987 1027.0459,262.4799 1026.6925,265.2775 1027.0459,266.6539 1028.7033,268.9352 1031.2547,270.1358"/>
    <line x1="1060.6635" x2="1079.5611" y1="566.9291" y2="566.9291"/>
    <line x1="1070.1123" x2="1070.1123" y1="566.9291" y2="636.8504"/>
    <polygon points="1073.1501,647.3064 1075.0804,645.2509 1075.7816,642.5197 1075.0804,639.7885 1074.2451,638.6388 1073.1501,637.7329 1070.4683,636.8616 1069.05,636.9508 1066.4986,638.1514 1065.5258,639.1874 1064.4877,641.8091 1064.4877,643.2302 1065.5258,645.852 1066.4986,646.8879 1069.05,648.0886 1070.4683,648.1778"/>
    <line x1="159.0169" x2="129.2392" y1="117.3946" y2="147.1723"/>
    <polygon points="121.6167,155.5494 124.1681,156.75 125.5864,156.8392 128.2682,155.9678 129.3632,155.062 130.1985,153.9123 130.8997,151.1811 130.1985,148.4499 129.3632,147.3002 126.9823,145.7893 125.5864,145.523 122.8166,146.0514 121.6167,146.8128 119.9593,149.0941 119.6058,151.8917 120.6439,154.5134"/>
    <polygon points="157.7545,111.2988 157.4011,112.6753 157.4011,114.0964 158.4391,116.7182 159.412,117.7541 161.9634,118.9547 164.7776,118.7776 167.1584,117.2667 168.5169,114.7957 168.695,113.3858 168.5169,111.9759 167.1584,109.5049 166.0635,108.5991 163.3817,107.7277 161.9634,107.817 159.412,109.0176"/>
  </g>
</svg>
