<?xml version="1.0" encoding="utf-8" ?>
<svg xmlns="http://www.w3.org/2000/svg" xmlns:cc="http://creativecommons.org/ns" xmlns:dc="http://purl.org/dc/elements/1.1/" xmlns:ev="http://www.w3.org/2001/xml-events" xmlns:inkscape="http://www.inkscape.org/namespaces/inkscape" xmlns:rdf="http://www.w3.org/1999/02/22-rdf-syntax-ns" xmlns:sodipodi="http://sodipodi.sourceforge.net/DTD/sodipodi-0.dtd" xmlns:xlink="http://www.w3.org/1999/xlink" baseProfile="tiny" height="29.7cm" version="1.2" viewBox="0 0 1587.4015748031497 1122.5196850393702" width="42.0cm">
  <metadata>
    <rdf:RDF>
      <cc:Work>
        <dc:format>image/svg+xml</dc:format>
        <dc:source>vsk save -s 14 -c C:\Users\marti\Documents\git\putti-plotter-plot\wfc\config\frame_1_smaller_ready.json C:\Users\marti\Documents\git\putti-plotter-plot\wfc\sketch_wfc.py</dc:source>
        <dc:date>2025-05-01T14:48:16.685437</dc:date>
      </cc:Work>
    </rdf:RDF>
  </metadata>
  <defs/>
  <g fill="none" id="layer1" inkscape:groupmode="layer" inkscape:label="1" stroke="#0000ff" style="display:inline">
    <polygon points="565.5477,346.4799 567.3657,346.4799 569.1101,345.9677 570.6396,344.9848 571.8301,343.6108 572.5854,341.957 572.8441,340.1575 572.5854,338.3579 571.8301,336.7042 570.6396,335.3302 569.1101,334.3473 567.3657,333.8351 565.5477,333.8351 563.8033,334.3473 562.2738,335.3302 561.0833,336.7042 560.328,338.3579 560.0693,340.1575 560.328,341.957 561.0833,343.6108 562.2738,344.9848 563.8033,345.9677"/>
    <polygon points="621.9129,339.2485 621.4007,337.5041 620.4178,335.9746 619.0438,334.7841 617.3901,334.0288 615.5906,333.7701 613.791,334.0288 612.1373,334.7841 610.7633,335.9746 609.7804,337.5041 609.2682,339.2485 609.2682,341.0665 609.7804,342.8109 610.7633,344.3403 612.1373,345.5309 613.791,346.2861 615.5906,346.5449 617.3901,346.2861 619.0438,345.5309 620.4178,344.3403 621.4007,342.8109 621.9129,341.0665"/>
    <polygon points="663.8154,333.8351 662.071,334.3473 660.5416,335.3302 659.351,336.7042 658.5957,338.3579 658.337,340.1575 658.5957,341.957 659.351,343.6108 660.5416,344.9848 662.071,345.9677 663.8154,346.4799 665.6334,346.4799 667.3778,345.9677 668.9073,344.9848 670.0978,343.6108 670.8531,341.957 671.1118,340.1575 670.8531,338.3579 670.0978,336.7042 668.9073,335.3302 667.3778,334.3473 665.6334,333.8351"/>
    <polygon points="712.0587,334.0288 710.405,334.7841 709.031,335.9746 708.0481,337.5041 707.5359,339.2485 707.5359,341.0665 708.0481,342.8109 709.031,344.3403 710.405,345.5309 712.0587,346.2861 713.8583,346.5449 715.6578,346.2861 717.3116,345.5309 718.6855,344.3403 719.6685,342.8109 720.1807,341.0665 720.1807,339.2485 719.6685,337.5041 718.6855,335.9746 717.3116,334.7841 715.6578,334.0288 713.8583,333.7701"/>
    <polygon points="759.5388,345.5309 761.1926,346.2861 762.9921,346.5449 764.7917,346.2861 766.4454,345.5309 767.8194,344.3403 768.8023,342.8109 769.3145,341.0665 769.3145,339.2485 768.8023,337.5041 767.8194,335.9746 766.4454,334.7841 764.7917,334.0288 762.9921,333.7701 761.1926,334.0288 759.5388,334.7841 758.1648,335.9746 757.1819,337.5041 756.6697,339.2485 756.6697,341.0665 757.1819,342.8109 758.1648,344.3403"/>
    <polygon points="759.5388,394.6648 761.1926,395.42 762.9921,395.6787 764.7917,395.42 766.4454,394.6648 767.8194,393.4742 768.8023,391.9448 769.3145,390.2004 769.3145,388.3823 768.8023,386.6379 767.8194,385.1085 766.4454,383.9179 764.7917,383.1627 762.9921,382.9039 761.1926,383.1627 759.5388,383.9179 758.1648,385.1085 757.1819,386.6379 756.6697,388.3823 756.6697,390.2004 757.1819,391.9448 758.1648,393.4742"/>
    <polygon points="717.3116,394.6648 718.6855,393.4742 719.6685,391.9448 720.1807,390.2004 720.1807,388.3823 719.6685,386.6379 718.6855,385.1085 717.3116,383.9179 715.6578,383.1627 713.8583,382.9039 712.0587,383.1627 710.405,383.9179 709.031,385.1085 708.0481,386.6379 707.5359,388.3823 707.5359,390.2004 708.0481,391.9448 709.031,393.4742 710.405,394.6648 712.0587,395.42 713.8583,395.6787 715.6578,395.42"/>
    <polygon points="818.5134,487.5591 818.2547,485.7595 817.4994,484.1058 816.3088,482.7318 814.7794,481.7489 813.035,481.2367 811.217,481.2367 809.4726,481.7489 807.9431,482.7318 806.7526,484.1058 805.9973,485.7595 805.7386,487.5591 805.9973,489.3586 806.7526,491.0123 807.9431,492.3863 809.4726,493.3692 811.217,493.8814 813.035,493.8814 814.7794,493.3692 816.3088,492.3863 817.4994,491.0123 818.2547,489.3586"/>
    <polygon points="863.9133,580.0166 862.1689,579.5044 860.3508,579.5044 858.6064,580.0166 857.077,580.9995 855.8864,582.3735 855.1312,584.0272 854.8724,585.8268 855.1312,587.6263 855.8864,589.2801 857.077,590.654 858.6064,591.637 860.3508,592.1492 862.1689,592.1492 863.9133,591.637 865.4427,590.654 866.6333,589.2801 867.3885,587.6263 867.6472,585.8268 867.3885,584.0272 866.6333,582.3735 865.4427,580.9995"/>
    <polygon points="914.5766,580.9995 913.0471,580.0166 911.3027,579.5044 909.4847,579.5044 907.7403,580.0166 906.2108,580.9995 905.0203,582.3735 904.265,584.0272 904.0063,585.8268 904.265,587.6263 905.0203,589.2801 906.2108,590.654 907.7403,591.637 909.4847,592.1492 911.3027,592.1492 913.0471,591.637 914.5766,590.654 915.7671,589.2801 916.5224,587.6263 916.7811,585.8268 916.5224,584.0272 915.7671,582.3735"/>
    <polygon points="907.7403,629.1504 906.2108,630.1334 905.0203,631.5073 904.265,633.1611 904.0063,634.9606 904.265,636.7602 905.0203,638.4139 906.2108,639.7879 907.7403,640.7708 909.4847,641.283 911.3027,641.283 913.0471,640.7708 914.5766,639.7879 915.7671,638.4139 916.5224,636.7602 916.7811,634.9606 916.5224,633.1611 915.7671,631.5073 914.5766,630.1334 913.0471,629.1504 911.3027,628.6382 909.4847,628.6382"/>
    <polygon points="1002.5328,538.4925 1003.288,540.1462 1004.4786,541.5202 1006.008,542.5031 1007.7524,543.0153 1009.5704,543.0153 1011.3148,542.5031 1012.8443,541.5202 1014.0348,540.1462 1014.7901,538.4925 1015.0488,536.6929 1014.7901,534.8934 1014.0348,533.2396 1012.8443,531.8656 1011.3148,530.8827 1009.5704,530.3705 1007.7524,530.3705 1006.008,530.8827 1004.4786,531.8656 1003.288,533.2396 1002.5328,534.8934 1002.274,536.6929"/>
    <polygon points="1055.1419,493.3692 1056.8863,493.8814 1058.7043,493.8814 1060.4487,493.3692 1061.9781,492.3863 1063.1687,491.0123 1063.9239,489.3586 1064.1827,487.5591 1063.9239,485.7595 1063.1687,484.1058 1061.9781,482.7318 1060.4487,481.7489 1058.7043,481.2367 1056.8863,481.2367 1055.1419,481.7489 1053.6124,482.7318 1052.4219,484.1058 1051.6666,485.7595 1051.4079,487.5591 1051.6666,489.3586 1052.4219,491.0123 1053.6124,492.3863"/>
    <polygon points="1112.3026,434.9719 1111.112,433.5979 1109.5826,432.615 1107.8382,432.1028 1106.0201,432.1028 1104.2757,432.615 1102.7463,433.5979 1101.5557,434.9719 1100.8005,436.6257 1100.5417,438.4252 1100.8005,440.2247 1101.5557,441.8785 1102.7463,443.2525 1104.2757,444.2354 1106.0201,444.7476 1107.8382,444.7476 1109.5826,444.2354 1111.112,443.2525 1112.3026,441.8785 1113.0578,440.2247 1113.3165,438.4252 1113.0578,436.6257"/>
    <polygon points="1051.9851,386.6379 1051.4729,388.3823 1051.4729,390.2004 1051.9851,391.9448 1052.968,393.4742 1054.342,394.6648 1055.9957,395.42 1057.7953,395.6787 1059.5948,395.42 1061.2486,394.6648 1062.6226,393.4742 1063.6055,391.9448 1064.1177,390.2004 1064.1177,388.3823 1063.6055,386.6379 1062.6226,385.1085 1061.2486,383.9179 1059.5948,383.1627 1057.7953,382.9039 1055.9957,383.1627 1054.342,383.9179 1052.968,385.1085"/>
    <polyline points="1156.063,592.2142 1157.8625,591.9554 1159.5163,591.2002 1160.8903,590.0096 1161.8732,588.4802 1162.3854,586.7358 1162.3854,584.9177 1161.8732,583.1733 1160.8903,581.6439 1159.5163,580.4533 1157.8625,579.6981 1156.063,579.4394 1154.2635,579.6981 1152.6097,580.4533 1151.2357,581.6439 1150.2528,583.1733 1149.7406,584.9177 1149.7406,586.7358 1150.2528,588.4802 1151.2357,590.0096 1152.6097,591.2002 1154.2635,591.9554 1156.063,592.2142 1156.063,628.5732 1154.2635,628.832 1152.6097,629.5872 1151.2357,630.7778 1150.2528,632.3072 1149.7406,634.0516 1149.7406,635.8697 1150.2528,637.6141 1151.2357,639.1435 1152.6097,640.3341 1154.2635,641.0893 1156.063,641.348 1157.8625,641.0893 1159.5163,640.3341 1160.8903,639.1435 1161.8732,637.6141 1162.3854,635.8697 1162.3854,634.0516 1161.8732,632.3072 1160.8903,630.7778 1159.5163,629.5872 1157.8625,628.832 1156.063,628.5732"/>
    <polygon points="1205.1969,641.348 1206.9964,641.0893 1208.6501,640.3341 1210.0241,639.1435 1211.007,637.6141 1211.5192,635.8697 1211.5192,634.0516 1211.007,632.3072 1210.0241,630.7778 1208.6501,629.5872 1206.9964,628.832 1205.1969,628.5732 1203.3973,628.832 1201.7436,629.5872 1200.3696,630.7778 1199.3867,632.3072 1198.8745,634.0516 1198.8745,635.8697 1199.3867,637.6141 1200.3696,639.1435 1201.7436,640.3341 1203.3973,641.0893"/>
    <polygon points="1249.5034,639.1435 1250.8774,640.3341 1252.5312,641.0893 1254.3307,641.348 1256.1302,641.0893 1257.784,640.3341 1259.158,639.1435 1260.1409,637.6141 1260.6531,635.8697 1260.6531,634.0516 1260.1409,632.3072 1259.158,630.7778 1257.784,629.5872 1256.1302,628.832 1254.3307,628.5732 1252.5312,628.832 1250.8774,629.5872 1249.5034,630.7778 1248.5205,632.3072 1248.0083,634.0516 1248.0083,635.8697 1248.5205,637.6141"/>
    <polygon points="1300.0113,591.2002 1301.665,591.9554 1303.4646,592.2142 1305.2641,591.9554 1306.9179,591.2002 1308.2918,590.0096 1309.2748,588.4802 1309.787,586.7358 1309.787,584.9177 1309.2748,583.1733 1308.2918,581.6439 1306.9179,580.4533 1305.2641,579.6981 1303.4646,579.4394 1301.665,579.6981 1300.0113,580.4533 1298.6373,581.6439 1297.6544,583.1733 1297.1422,584.9177 1297.1422,586.7358 1297.6544,588.4802 1298.6373,590.0096"/>
    <polygon points="1346.276,584.9177 1346.276,586.7358 1346.7882,588.4802 1347.7711,590.0096 1349.1451,591.2002 1350.7989,591.9554 1352.5984,592.2142 1354.398,591.9554 1356.0517,591.2002 1357.4257,590.0096 1358.4086,588.4802 1358.9208,586.7358 1358.9208,584.9177 1358.4086,583.1733 1357.4257,581.6439 1356.0517,580.4533 1354.398,579.6981 1352.5984,579.4394 1350.7989,579.6981 1349.1451,580.4533 1347.7711,581.6439 1346.7882,583.1733"/>
    <polygon points="1403.5318,677.9658 1401.7323,677.7071 1399.9327,677.9658 1398.279,678.7211 1396.905,679.9116 1395.9221,681.4411 1395.4099,683.1855 1395.4099,685.0035 1395.9221,686.7479 1396.905,688.2773 1398.279,689.4679 1399.9327,690.2232 1401.7323,690.4819 1403.5318,690.2232 1405.1856,689.4679 1406.5596,688.2773 1407.5425,686.7479 1408.0547,685.0035 1408.0547,683.1855 1407.5425,681.4411 1406.5596,679.9116 1405.1856,678.7211"/>
    <polygon points="1505.3734,638.4139 1506.1287,636.7602 1506.3874,634.9606 1506.1287,633.1611 1505.3734,631.5073 1504.1829,630.1334 1502.6534,629.1504 1500.909,628.6382 1499.091,628.6382 1497.3466,629.1504 1495.8171,630.1334 1494.6266,631.5073 1493.8713,633.1611 1493.6126,634.9606 1493.8713,636.7602 1494.6266,638.4139 1495.8171,639.7879 1497.3466,640.7708 1499.091,641.283 1500.909,641.283 1502.6534,640.7708 1504.1829,639.7879"/>
    <polygon points="1493.6126,585.8268 1493.8713,587.6263 1494.6266,589.2801 1495.8171,590.654 1497.3466,591.637 1499.091,592.1492 1500.909,592.1492 1502.6534,591.637 1504.1829,590.654 1505.3734,589.2801 1506.1287,587.6263 1506.3874,585.8268 1506.1287,584.0272 1505.3734,582.3735 1504.1829,580.9995 1502.6534,580.0166 1500.909,579.5044 1499.091,579.5044 1497.3466,580.0166 1495.8171,580.9995 1494.6266,582.3735 1493.8713,584.0272"/>
    <polygon points="1455.049,384.4641 1453.5196,383.4812 1451.7752,382.969 1449.9571,382.969 1448.2127,383.4812 1446.6833,384.4641 1445.4927,385.838 1444.7375,387.4918 1444.4787,389.2913 1444.7375,391.0909 1445.4927,392.7446 1446.6833,394.1186 1448.2127,395.1015 1449.9571,395.6137 1451.7752,395.6137 1453.5196,395.1015 1455.049,394.1186 1456.2396,392.7446 1456.9948,391.0909 1457.2535,389.2913 1456.9948,387.4918 1456.2396,385.838"/>
    <polygon points="1451.7752,346.4799 1453.5196,345.9677 1455.049,344.9848 1456.2396,343.6108 1456.9948,341.957 1457.2535,340.1575 1456.9948,338.3579 1456.2396,336.7042 1455.049,335.3302 1453.5196,334.3473 1451.7752,333.8351 1449.9571,333.8351 1448.2127,334.3473 1446.6833,335.3302 1445.4927,336.7042 1444.7375,338.3579 1444.4787,340.1575 1444.7375,341.957 1445.4927,343.6108 1446.6833,344.9848 1448.2127,345.9677 1449.9571,346.4799"/>
    <polygon points="1206.9964,579.6981 1205.1969,579.4394 1203.3973,579.6981 1201.7436,580.4533 1200.3696,581.6439 1199.3867,583.1733 1198.8745,584.9177 1198.8745,586.7358 1199.3867,588.4802 1200.3696,590.0096 1201.7436,591.2002 1203.3973,591.9554 1205.1969,592.2142 1206.9964,591.9554 1208.6501,591.2002 1210.0241,590.0096 1211.007,588.4802 1211.5192,586.7358 1211.5192,584.9177 1211.007,583.1733 1210.0241,581.6439 1208.6501,580.4533"/>
    <polygon points="1100.6067,634.0516 1100.6067,635.8697 1101.1189,637.6141 1102.1019,639.1435 1103.4758,640.3341 1105.1296,641.0893 1106.9291,641.348 1108.7287,641.0893 1110.3824,640.3341 1111.7564,639.1435 1112.7393,637.6141 1113.2515,635.8697 1113.2515,634.0516 1112.7393,632.3072 1111.7564,630.7778 1110.3824,629.5872 1108.7287,628.832 1106.9291,628.5732 1105.1296,628.832 1103.4758,629.5872 1102.1019,630.7778 1101.1189,632.3072"/>
    <polygon points="1159.5163,738.6018 1160.8903,737.4112 1161.8732,735.8818 1162.3854,734.1374 1162.3854,732.3193 1161.8732,730.5749 1160.8903,729.0455 1159.5163,727.8549 1157.8625,727.0997 1156.063,726.8409 1154.2635,727.0997 1152.6097,727.8549 1151.2357,729.0455 1150.2528,730.5749 1149.7406,732.3193 1149.7406,734.1374 1150.2528,735.8818 1151.2357,737.4112 1152.6097,738.6018 1154.2635,739.357 1156.063,739.6157 1157.8625,739.357"/>
    <polygon points="1198.8745,783.2712 1199.3867,785.0156 1200.3696,786.5451 1201.7436,787.7356 1203.3973,788.4909 1205.1969,788.7496 1206.9964,788.4909 1208.6501,787.7356 1210.0241,786.5451 1211.007,785.0156 1211.5192,783.2712 1211.5192,781.4532 1211.007,779.7088 1210.0241,778.1793 1208.6501,776.9888 1206.9964,776.2335 1205.1969,775.9748 1203.3973,776.2335 1201.7436,776.9888 1200.3696,778.1793 1199.3867,779.7088 1198.8745,781.4532"/>
    <polygon points="1249.5034,786.5451 1250.8774,787.7356 1252.5312,788.4909 1254.3307,788.7496 1256.1302,788.4909 1257.784,787.7356 1259.158,786.5451 1260.1409,785.0156 1260.6531,783.2712 1260.6531,781.4532 1260.1409,779.7088 1259.158,778.1793 1257.784,776.9888 1256.1302,776.2335 1254.3307,775.9748 1252.5312,776.2335 1250.8774,776.9888 1249.5034,778.1793 1248.5205,779.7088 1248.0083,781.4532 1248.0083,783.2712 1248.5205,785.0156"/>
    <polygon points="1297.1422,781.4532 1297.1422,783.2712 1297.6544,785.0156 1298.6373,786.5451 1300.0113,787.7356 1301.665,788.4909 1303.4646,788.7496 1305.2641,788.4909 1306.9179,787.7356 1308.2918,786.5451 1309.2748,785.0156 1309.787,783.2712 1309.787,781.4532 1309.2748,779.7088 1308.2918,778.1793 1306.9179,776.9888 1305.2641,776.2335 1303.4646,775.9748 1301.665,776.2335 1300.0113,776.9888 1298.6373,778.1793 1297.6544,779.7088"/>
    <polygon points="1305.2641,739.357 1306.9179,738.6018 1308.2918,737.4112 1309.2748,735.8818 1309.787,734.1374 1309.787,732.3193 1309.2748,730.5749 1308.2918,729.0455 1306.9179,727.8549 1305.2641,727.0997 1303.4646,726.8409 1301.665,727.0997 1300.0113,727.8549 1298.6373,729.0455 1297.6544,730.5749 1297.1422,732.3193 1297.1422,734.1374 1297.6544,735.8818 1298.6373,737.4112 1300.0113,738.6018 1301.665,739.357 1303.4646,739.6157"/>
    <polygon points="1256.1302,727.0997 1254.3307,726.8409 1252.5312,727.0997 1250.8774,727.8549 1249.5034,729.0455 1248.5205,730.5749 1248.0083,732.3193 1248.0083,734.1374 1248.5205,735.8818 1249.5034,737.4112 1250.8774,738.6018 1252.5312,739.357 1254.3307,739.6157 1256.1302,739.357 1257.784,738.6018 1259.158,737.4112 1260.1409,735.8818 1260.6531,734.1374 1260.6531,732.3193 1260.1409,730.5749 1259.158,729.0455 1257.784,727.8549"/>
    <polygon points="816.3088,728.4011 814.7794,727.4182 813.035,726.906 811.217,726.906 809.4726,727.4182 807.9431,728.4011 806.7526,729.7751 805.9973,731.4288 805.7386,733.2283 805.9973,735.0279 806.7526,736.6816 807.9431,738.0556 809.4726,739.0385 811.217,739.5507 813.035,739.5507 814.7794,739.0385 816.3088,738.0556 817.4994,736.6816 818.2547,735.0279 818.5134,733.2283 818.2547,731.4288 817.4994,729.7751"/>
    <polygon points="668.1777,542.0663 669.5517,540.8758 670.5346,539.3463 671.0468,537.6019 671.0468,535.7839 670.5346,534.0395 669.5517,532.5101 668.1777,531.3195 666.5239,530.5642 664.7244,530.3055 662.9249,530.5642 661.2711,531.3195 659.8971,532.5101 658.9142,534.0395 658.402,535.7839 658.402,537.6019 658.9142,539.3463 659.8971,540.8758 661.2711,542.0663 662.9249,542.8216 664.7244,543.0803 666.5239,542.8216"/>
    <polygon points="560.6465,588.4802 561.6294,590.0096 563.0034,591.2002 564.6572,591.9554 566.4567,592.2142 568.2562,591.9554 569.91,591.2002 571.284,590.0096 572.2669,588.4802 572.7791,586.7358 572.7791,584.9177 572.2669,583.1733 571.284,581.6439 569.91,580.4533 568.2562,579.6981 566.4567,579.4394 564.6572,579.6981 563.0034,580.4533 561.6294,581.6439 560.6465,583.1733 560.1343,584.9177 560.1343,586.7358"/>
    <polygon points="519.9763,591.637 521.5057,590.654 522.6963,589.2801 523.4515,587.6263 523.7102,585.8268 523.4515,584.0272 522.6963,582.3735 521.5057,580.9995 519.9763,580.0166 518.2319,579.5044 516.4138,579.5044 514.6694,580.0166 513.14,580.9995 511.9494,582.3735 511.1942,584.0272 510.9354,585.8268 511.1942,587.6263 511.9494,589.2801 513.14,590.654 514.6694,591.637 516.4138,592.1492 518.2319,592.1492"/>
    <polygon points="466.3894,579.6981 464.7357,580.4533 463.3617,581.6439 462.3788,583.1733 461.8666,584.9177 461.8666,586.7358 462.3788,588.4802 463.3617,590.0096 464.7357,591.2002 466.3894,591.9554 468.189,592.2142 469.9885,591.9554 471.6423,591.2002 473.0163,590.0096 473.9992,588.4802 474.5114,586.7358 474.5114,584.9177 473.9992,583.1733 473.0163,581.6439 471.6423,580.4533 469.9885,579.6981 468.189,579.4394"/>
    <polygon points="413.2449,637.6141 414.2278,639.1435 415.6018,640.3341 417.2556,641.0893 419.0551,641.348 420.8547,641.0893 422.5084,640.3341 423.8824,639.1435 424.8653,637.6141 425.3775,635.8697 425.3775,634.0516 424.8653,632.3072 423.8824,630.7778 422.5084,629.5872 420.8547,628.832 419.0551,628.5732 417.2556,628.832 415.6018,629.5872 414.2278,630.7778 413.2449,632.3072 412.7327,634.0516 412.7327,635.8697"/>
    <polygon points="373.3745,591.2002 374.7485,590.0096 375.7314,588.4802 376.2436,586.7358 376.2436,584.9177 375.7314,583.1733 374.7485,581.6439 373.3745,580.4533 371.7208,579.6981 369.9213,579.4394 368.1217,579.6981 366.468,580.4533 365.094,581.6439 364.1111,583.1733 363.5989,584.9177 363.5989,586.7358 364.1111,588.4802 365.094,590.0096 366.468,591.2002 368.1217,591.9554 369.9213,592.2142 371.7208,591.9554"/>
    <polygon points="371.7208,530.5642 369.9213,530.3055 368.1217,530.5642 366.468,531.3195 365.094,532.5101 364.1111,534.0395 363.5989,535.7839 363.5989,537.6019 364.1111,539.3463 365.094,540.8758 366.468,542.0663 368.1217,542.8216 369.9213,543.0803 371.7208,542.8216 373.3745,542.0663 374.7485,540.8758 375.7314,539.3463 376.2436,537.6019 376.2436,535.7839 375.7314,534.0395 374.7485,532.5101 373.3745,531.3195"/>
    <polygon points="473.5624,491.0123 474.3176,489.3586 474.5764,487.5591 474.3176,485.7595 473.5624,484.1058 472.3718,482.7318 470.8424,481.7489 469.098,481.2367 467.28,481.2367 465.5356,481.7489 464.0061,482.7318 462.8156,484.1058 462.0603,485.7595 461.8016,487.5591 462.0603,489.3586 462.8156,491.0123 464.0061,492.3863 465.5356,493.3692 467.28,493.8814 469.098,493.8814 470.8424,493.3692 472.3718,492.3863"/>
    <polygon points="513.14,433.5979 511.9494,434.9719 511.1942,436.6257 510.9354,438.4252 511.1942,440.2247 511.9494,441.8785 513.14,443.2525 514.6694,444.2354 516.4138,444.7476 518.2319,444.7476 519.9763,444.2354 521.5057,443.2525 522.6963,441.8785 523.4515,440.2247 523.7102,438.4252 523.4515,436.6257 522.6963,434.9719 521.5057,433.5979 519.9763,432.615 518.2319,432.1028 516.4138,432.1028 514.6694,432.615"/>
    <polygon points="277.9759,439.3342 277.9759,437.5162 277.4637,435.7718 276.4808,434.2423 275.1068,433.0518 273.4531,432.2965 271.6535,432.0378 269.854,432.2965 268.2003,433.0518 266.8263,434.2423 265.8434,435.7718 265.3312,437.5162 265.3312,439.3342 265.8434,441.0786 266.8263,442.6081 268.2003,443.7986 269.854,444.5539 271.6535,444.8126 273.4531,444.5539 275.1068,443.7986 276.4808,442.6081 277.4637,441.0786"/>
    <polygon points="174.2948,481.2367 172.4768,481.2367 170.7324,481.7489 169.203,482.7318 168.0124,484.1058 167.2572,485.7595 166.9984,487.5591 167.2572,489.3586 168.0124,491.0123 169.203,492.3863 170.7324,493.3692 172.4768,493.8814 174.2948,493.8814 176.0392,493.3692 177.5687,492.3863 178.7593,491.0123 179.5145,489.3586 179.7732,487.5591 179.5145,485.7595 178.7593,484.1058 177.5687,482.7318 176.0392,481.7489"/>
    <polygon points="216.7095,534.0395 216.1973,535.7839 216.1973,537.6019 216.7095,539.3463 217.6924,540.8758 219.0664,542.0663 220.7201,542.8216 222.5197,543.0803 224.3192,542.8216 225.973,542.0663 227.347,540.8758 228.3299,539.3463 228.8421,537.6019 228.8421,535.7839 228.3299,534.0395 227.347,532.5101 225.973,531.3195 224.3192,530.5642 222.5197,530.3055 220.7201,530.5642 219.0664,531.3195 217.6924,532.5101"/>
    <polygon points="326.9161,636.7602 327.1748,634.9606 326.9161,633.1611 326.1608,631.5073 324.9703,630.1334 323.4408,629.1504 321.6964,628.6382 319.8784,628.6382 318.134,629.1504 316.6045,630.1334 315.414,631.5073 314.6587,633.1611 314.4,634.9606 314.6587,636.7602 315.414,638.4139 316.6045,639.7879 318.134,640.7708 319.8784,641.283 321.6964,641.283 323.4408,640.7708 324.9703,639.7879 326.1608,638.4139"/>
    <polygon points="326.5976,828.8426 325.6147,827.3132 324.2407,826.1226 322.5869,825.3674 320.7874,825.1087 318.9879,825.3674 317.3341,826.1226 315.9601,827.3132 314.9772,828.8426 314.465,830.587 314.465,832.4051 314.9772,834.1495 315.9601,835.6789 317.3341,836.8695 318.9879,837.6247 320.7874,837.8835 322.5869,837.6247 324.2407,836.8695 325.6147,835.6789 326.5976,834.1495 327.1098,832.4051 327.1098,830.587"/>
    <polygon points="375.7314,828.8426 374.7485,827.3132 373.3745,826.1226 371.7208,825.3674 369.9213,825.1087 368.1217,825.3674 366.468,826.1226 365.094,827.3132 364.1111,828.8426 363.5989,830.587 363.5989,832.4051 364.1111,834.1495 365.094,835.6789 366.468,836.8695 368.1217,837.6247 369.9213,837.8835 371.7208,837.6247 373.3745,836.8695 374.7485,835.6789 375.7314,834.1495 376.2436,832.4051 376.2436,830.587"/>
    <polygon points="462.3788,828.8426 461.8666,830.587 461.8666,832.4051 462.3788,834.1495 463.3617,835.6789 464.7357,836.8695 466.3894,837.6247 468.189,837.8835 469.9885,837.6247 471.6423,836.8695 473.0163,835.6789 473.9992,834.1495 474.5114,832.4051 474.5114,830.587 473.9992,828.8426 473.0163,827.3132 471.6423,826.1226 469.9885,825.3674 468.189,825.1087 466.3894,825.3674 464.7357,826.1226 463.3617,827.3132"/>
    <polygon points="523.133,686.7479 523.6452,685.0035 523.6452,683.1855 523.133,681.4411 522.1501,679.9116 520.7761,678.7211 519.1224,677.9658 517.3228,677.7071 515.5233,677.9658 513.8695,678.7211 512.4956,679.9116 511.5126,681.4411 511.0004,683.1855 511.0004,685.0035 511.5126,686.7479 512.4956,688.2773 513.8695,689.4679 515.5233,690.2232 517.3228,690.4819 519.1224,690.2232 520.7761,689.4679 522.1501,688.2773"/>
    <polygon points="571.8301,687.5478 572.5854,685.894 572.8441,684.0945 572.5854,682.2949 571.8301,680.6412 570.6396,679.2672 569.1101,678.2843 567.3657,677.7721 565.5477,677.7721 563.8033,678.2843 562.2738,679.2672 561.0833,680.6412 560.328,682.2949 560.0693,684.0945 560.328,685.894 561.0833,687.5478 562.2738,688.9218 563.8033,689.9047 565.5477,690.4169 567.3657,690.4169 569.1101,689.9047 570.6396,688.9218"/>
    <polygon points="228.3299,828.8426 227.347,827.3132 225.973,826.1226 224.3192,825.3674 222.5197,825.1087 220.7201,825.3674 219.0664,826.1226 217.6924,827.3132 216.7095,828.8426 216.1973,830.587 216.1973,832.4051 216.7095,834.1495 217.6924,835.6789 219.0664,836.8695 220.7201,837.6247 222.5197,837.8835 224.3192,837.6247 225.973,836.8695 227.347,835.6789 228.3299,834.1495 228.8421,832.4051 228.8421,830.587"/>
    <polygon points="173.3858,825.1087 171.5863,825.3674 169.9325,826.1226 168.5586,827.3132 167.5756,828.8426 167.0634,830.587 167.0634,832.4051 167.5756,834.1495 168.5586,835.6789 169.9325,836.8695 171.5863,837.6247 173.3858,837.8835 175.1854,837.6247 176.8391,836.8695 178.2131,835.6789 179.196,834.1495 179.7082,832.4051 179.7082,830.587 179.196,828.8426 178.2131,827.3132 176.8391,826.1226 175.1854,825.3674"/>
    <polygon points="126.0515,825.3674 124.252,825.1087 122.4524,825.3674 120.7987,826.1226 119.4247,827.3132 118.4418,828.8426 117.9296,830.587 117.9296,832.4051 118.4418,834.1495 119.4247,835.6789 120.7987,836.8695 122.4524,837.6247 124.252,837.8835 126.0515,837.6247 127.7053,836.8695 129.0792,835.6789 130.0622,834.1495 130.5744,832.4051 130.5744,830.587 130.0622,828.8426 129.0792,827.3132 127.7053,826.1226"/>
  </g>
  <g fill="none" id="layer2" inkscape:groupmode="layer" inkscape:label="2" stroke="#008800" style="display:inline">
    <polyline points="910.3937,579.4394 910.4563,545.1163 910.9551,541.6468 911.9427,538.2836 913.3988,535.0952 915.2938,532.1465 917.5892,529.4974 1053.2787,393.8079"/>
    <line x1="910.3937" x2="910.3937" y1="592.2142" y2="628.5732"/>
    <polyline points="910.3937,641.348 910.3937,723.0524 910.6438,726.5486 911.3888,729.9737 913.3988,734.8261 916.3942,739.1403 952.3321,775.1667 955.6276,779.2563 957.3075,782.3327 958.5324,785.6169 959.465,790.7856 959.5276,831.4961"/>
    <line x1="971.811" x2="947.2441" y1="831.4961" y2="831.4961"/>
  </g>
  <g fill="none" id="layer3" inkscape:groupmode="layer" inkscape:label="3" stroke="#ff0000" style="display:inline">
    <line x1="566.4567" x2="566.4567" y1="677.7071" y2="592.2142"/>
    <polyline points="566.4567,690.4819 566.5193,724.805 567.4518,729.9737 569.4617,734.8261 571.3568,737.7748 573.6522,740.4238 609.5901,776.4502 611.6906,779.2563 614.0416,783.9529 615.0291,787.3161 615.528,790.7856 615.5906,819.2126 615.093,822.6733 613.6406,825.8535 612.5903,827.2566 609.948,829.5461 606.7677,830.9985 603.3071,831.4961 474.5764,831.4961"/>
    <line x1="461.8016" x2="376.3087" y1="831.4961" y2="831.4961"/>
    <line x1="363.5339" x2="327.1748" y1="831.4961" y2="831.4961"/>
    <line x1="314.4" x2="228.9071" y1="831.4961" y2="831.4961"/>
    <line x1="216.1323" x2="179.7732" y1="831.4961" y2="831.4961"/>
    <line x1="166.9984" x2="130.6394" y1="831.4961" y2="831.4961"/>
    <line x1="117.8646" x2="75.1181" y1="831.4961" y2="831.4961"/>
    <line x1="75.1181" x2="75.1181" y1="843.7795" y2="819.2126"/>
  </g>
  <g fill="none" id="layer4" inkscape:groupmode="layer" inkscape:label="4" stroke="#00cccc" style="display:inline">
    <line x1="1057.7953" x2="1198.8094" y1="782.3622" y2="782.3622"/>
    <line x1="1057.7953" x2="1057.7953" y1="794.6457" y2="770.0787"/>
    <line x1="1211.5843" x2="1247.9433" y1="782.3622" y2="782.3622"/>
    <line x1="1260.7181" x2="1297.0772" y1="782.3622" y2="782.3622"/>
    <line x1="1309.852" x2="1401.7323" y1="782.3622" y2="782.3622"/>
    <line x1="1401.7323" x2="1401.7323" y1="770.0787" y2="794.6457"/>
  </g>
  <g fill="none" id="layer5" inkscape:groupmode="layer" inkscape:label="5" stroke="#00ff00" style="display:inline">
    <polyline points="1106.9291,291.0236 1150.0625,334.2455 1153.0579,338.5598 1154.514,341.7482 1155.8129,346.8372 1156.063,350.3334 1156.0004,380.868 1155.0679,386.0367 1153.0579,390.8891 1151.1629,393.8378 1148.8675,396.4868 1111.4457,433.9086"/>
    <line x1="1102.4126" x2="1062.3119" y1="442.9418" y2="483.0425"/>
    <line x1="1053.2787" x2="1013.178" y1="492.0756" y2="532.1763"/>
    <polyline points="1004.1448,541.2095 966.723,578.6313 964.074,580.9267 961.1253,582.8217 956.2729,584.8316 951.1042,585.7642 916.7811,585.8268"/>
    <line x1="904.0063" x2="867.6472" y1="585.8268" y2="585.8268"/>
    <polyline points="861.2598,579.4394 861.1348,547.2283 860.7623,545.5157 859.3099,542.3354 857.0203,539.6932 855.6173,538.6429 852.437,537.1905 848.9764,536.6929 822.6613,536.8179 819.3067,537.8029 816.3655,539.6932 814.0759,542.3354 813.236,543.8736 812.251,547.2283 812.126,548.9764 812.251,575.2914 813.236,578.646 815.1262,581.5873 817.7685,583.8768 820.9488,585.3292 822.6613,585.7017 854.8724,585.8268"/>
    <polyline points="861.2598,592.2142 861.2598,673.9185 861.0098,677.4148 860.2647,680.8398 858.2548,685.6922 855.2594,690.0065 816.6426,728.7118"/>
    <polyline points="807.6094,737.7449 768.9041,776.3617 764.5898,779.3572 759.7375,781.3671 756.3124,782.1121 752.8162,782.3622 677.0079,782.3622 673.5472,781.8646 670.3669,780.4122 668.9639,779.362 666.6744,776.7197 665.222,773.5394 664.7244,770.0787 664.6618,741.6517 663.7293,736.483 661.7194,731.6306 659.8243,728.6819 657.5289,726.0329 622.786,691.29 620.137,688.9946 617.1883,687.0995 613.9999,685.6434 608.9108,684.3445 605.4146,684.0945 572.8441,684.0945"/>
    <line x1="560.0693" x2="523.7102" y1="684.0945" y2="684.0945"/>
    <polyline points="510.9354,684.0945 476.6123,684.0319 471.4436,683.0994 466.5913,681.0894 463.6425,679.1944 460.9935,676.899 423.5717,639.4772"/>
    <line x1="414.5385" x2="374.4378" y1="630.4441" y2="590.3433"/>
    <polyline points="365.4047,581.3102 327.9829,543.8884 323.8933,540.5928 320.8169,538.913 315.8335,537.2543 312.364,536.7555 271.6535,536.6929"/>
    <line x1="271.6535" x2="271.6535" y1="548.9764" y2="524.4094"/>
    <line x1="1098.2434" x2="1115.6149" y1="299.7093" y2="282.3379"/>
  </g>
  <g fill="none" id="layer6" inkscape:groupmode="layer" inkscape:label="6" stroke="#cc00cc" style="display:inline">
    <line x1="325.304" x2="365.4047" y1="630.4441" y2="590.3433"/>
    <polyline points="316.2708,639.4772 278.849,676.899 274.7595,680.1946 270.0628,682.5455 264.9738,683.8444 261.4776,684.0945 230.9431,684.1571 227.4736,684.6559 222.4902,686.3146 219.4138,687.9944 215.3242,691.29 180.5813,726.0329 177.2857,730.1224 175.6059,733.1988 174.381,736.483 173.6359,739.9081 173.3858,743.4043 173.3858,782.3622"/>
    <line x1="185.6693" x2="161.1024" y1="782.3622" y2="782.3622"/>
  </g>
  <g fill="none" id="layer7" inkscape:groupmode="layer" inkscape:label="7" stroke="#cccc00" style="display:inline">
    <line x1="1500.0" x2="1500.0" y1="487.5591" y2="579.4394"/>
    <line x1="1487.7165" x2="1512.2835" y1="487.5591" y2="487.5591"/>
    <line x1="1500.0" x2="1500.0" y1="592.2142" y2="628.5732"/>
    <polyline points="1500.0,641.348 1499.9374,675.6711 1499.0049,680.8398 1496.9949,685.6922 1495.0999,688.6409 1492.8045,691.29 1450.8661,733.2283"/>
    <line x1="1442.1804" x2="1459.5519" y1="724.5426" y2="741.9141"/>
  </g>
  <g fill="none" id="layer8" inkscape:groupmode="layer" inkscape:label="8" stroke="#000000" style="display:inline">
    <line x1="1450.8661" x2="1450.8661" y1="291.0236" y2="333.7701"/>
    <line x1="1450.8661" x2="1450.8661" y1="346.5449" y2="382.9039"/>
    <polyline points="1450.8661,395.6787 1450.7411,673.5591 1449.7561,676.9138 1447.8659,679.855 1445.2236,682.1445 1442.0433,683.5969 1438.5827,684.0945 1408.1197,684.0945"/>
    <polyline points="1395.3449,684.0945 1364.8819,684.0945 1361.4212,684.5921 1358.2409,686.0444 1355.5987,688.334 1353.7085,691.2752 1353.096,692.9173 1352.5984,696.378 1352.4734,722.693 1351.4884,726.0476 1349.5982,728.9888 1348.3589,730.2281 1345.4177,732.1183 1342.0631,733.1033 1309.852,733.2283"/>
    <line x1="1297.0772" x2="1260.7181" y1="733.2283" y2="733.2283"/>
    <line x1="1247.9433" x2="1162.4504" y1="733.2283" y2="733.2283"/>
    <polyline points="1149.6756,733.2283 1117.4645,733.1033 1115.7519,732.7308 1112.5717,731.2784 1109.9294,728.9888 1108.0392,726.0476 1107.4267,724.4055 1106.9291,720.9449 1106.9291,641.348"/>
    <line x1="1438.5827" x2="1463.1496" y1="291.0236" y2="291.0236"/>
  </g>
  <g fill="none" id="layer9" inkscape:groupmode="layer" inkscape:label="9" stroke="#0000ff" style="display:inline">
    <polyline points="265.2661,438.4252 230.9431,438.4878 225.7743,439.4203 220.922,441.4302 217.9732,443.3253 215.3242,445.6207 177.9024,483.0425"/>
    <polyline points="168.8693,492.0756 82.3136,578.6313 80.0182,581.2803 78.1232,584.2291 76.6671,587.4175 75.3682,592.5065 75.1181,596.0027 75.1181,622.6772 75.6157,626.1378 76.2281,627.7799 78.1184,630.7211 80.7606,633.0107 83.9409,634.4631 87.4016,634.9606 115.8286,635.0232 119.2981,635.5221 122.6613,636.5096 127.3579,638.8605 131.4475,642.1561 173.3858,684.0945"/>
    <line x1="164.7001" x2="182.0715" y1="692.7802" y2="675.4088"/>
    <line x1="278.0409" x2="320.7874" y1="438.4252" y2="438.4252"/>
    <line x1="320.7874" x2="320.7874" y1="426.1417" y2="450.7087"/>
  </g>
  <g fill="none" id="layer10" inkscape:groupmode="layer" inkscape:label="10" stroke="#008800" style="display:inline">
    <polyline points="1260.7181,634.9606 1292.9292,634.8356 1296.2838,633.8506 1299.2251,631.9604 1300.4643,630.7211 1302.3545,627.7799 1303.3395,624.4253 1303.4646,592.2142"/>
    <line x1="1247.9433" x2="1211.5843" y1="634.9606" y2="634.9606"/>
    <line x1="1198.8094" x2="1162.4504" y1="634.9606" y2="634.9606"/>
    <line x1="1149.6756" x2="1113.3165" y1="634.9606" y2="634.9606"/>
    <line x1="1100.5417" x2="1057.7953" y1="634.9606" y2="634.9606"/>
    <line x1="1057.7953" x2="1057.7953" y1="647.2441" y2="622.6772"/>
  </g>
  <g fill="none" id="layer11" inkscape:groupmode="layer" inkscape:label="11" stroke="#ff0000" style="display:inline">
    <line x1="517.3228" x2="517.3228" y1="536.6929" y2="579.4394"/>
    <line x1="505.0394" x2="529.6063" y1="536.6929" y2="536.6929"/>
    <line x1="517.3228" x2="517.3228" y1="592.2142" y2="677.7071"/>
  </g>
  <g fill="none" id="layer12" inkscape:groupmode="layer" inkscape:label="12" stroke="#00cccc" style="display:inline">
    <polyline points="1358.9858,585.8268 1391.1969,585.7017 1392.9095,585.3292 1396.0898,583.8768 1398.732,581.5873 1400.6223,578.646 1401.2347,577.004 1401.7323,573.5433 1401.7323,499.8425 1401.2347,496.3819 1400.6223,494.7398 1398.732,491.7986 1397.4928,490.5593 1396.0898,489.509 1392.9095,488.0566 1389.4488,487.5591 1361.0218,487.6216 1357.5523,488.1205 1352.5689,489.7791 1349.4925,491.459 1345.4029,494.7545 1303.4646,536.6929"/>
    <line x1="1294.7788" x2="1312.1503" y1="528.0072" y2="545.3786"/>
    <line x1="1309.852" x2="1346.211" y1="585.8268" y2="585.8268"/>
    <line x1="1297.0772" x2="1211.5843" y1="585.8268" y2="585.8268"/>
    <line x1="1198.8094" x2="1162.4504" y1="585.8268" y2="585.8268"/>
    <line x1="1149.6756" x2="1106.9291" y1="585.8268" y2="585.8268"/>
    <line x1="1106.9291" x2="1106.9291" y1="598.1102" y2="573.5433"/>
  </g>
  <g fill="none" id="layer13" inkscape:groupmode="layer" inkscape:label="13" stroke="#00ff00" style="display:inline">
    <line x1="664.7244" x2="664.7244" y1="291.0236" y2="333.7701"/>
    <polyline points="664.7244,346.5449 664.8494,378.756 665.222,380.4685 666.6744,383.6488 668.9639,386.2911 671.9051,388.1813 675.2598,389.1663 707.4709,389.2913"/>
    <line x1="720.2457" x2="756.6047" y1="389.2913" y2="389.2913"/>
    <polyline points="769.3795,389.2913 850.7245,389.4164 854.0791,390.4014 857.0203,392.2916 859.3099,394.9339 860.1498,396.4721 861.1348,399.8267 861.2598,401.5748 861.1972,430.0018 860.2647,435.1705 858.2548,440.0229 856.3598,442.9717 854.0644,445.6207 816.6426,483.0425"/>
    <polyline points="807.6094,492.0756 768.9041,530.6924 764.5898,533.6879 759.7375,535.6978 756.3124,536.4429 752.8162,536.6929 671.1118,536.6929"/>
    <polyline points="658.337,536.6929 627.874,536.6929 624.4134,537.1905 621.2331,538.6429 619.8301,539.6932 617.5405,542.3354 616.0881,545.5157 615.5906,548.9764 615.4655,575.2914 615.093,577.004 613.6406,580.1842 611.351,582.8265 608.4098,584.7167 605.0552,585.7017 572.8441,585.8268"/>
    <line x1="560.0693" x2="523.7102" y1="585.8268" y2="585.8268"/>
    <line x1="510.9354" x2="474.5764" y1="585.8268" y2="585.8268"/>
    <polyline points="461.8016,585.8268 427.4785,585.7642 422.3098,584.8316 417.4574,582.8217 414.5087,580.9267 411.8596,578.6313 374.4378,541.2095"/>
    <line x1="365.4047" x2="320.7874" y1="532.1763" y2="487.5591"/>
    <line x1="329.4731" x2="312.1017" y1="478.8733" y2="496.2448"/>
    <line x1="652.4409" x2="677.0079" y1="291.0236" y2="291.0236"/>
  </g>
  <g fill="none" id="layer14" inkscape:groupmode="layer" inkscape:label="14" stroke="#cc00cc" style="display:inline">
    <line x1="124.252" x2="168.8693" y1="438.4252" y2="483.0425"/>
    <line x1="177.9024" x2="218.0031" y1="492.0756" y2="532.1763"/>
    <polyline points="227.0363,541.2095 264.4581,578.6313 268.5476,581.9269 271.624,583.6067 276.6074,585.2653 280.0769,585.7642 320.7874,585.8268"/>
    <line x1="320.7874" x2="320.7874" y1="573.5433" y2="598.1102"/>
    <line x1="132.9377" x2="115.5662" y1="429.7395" y2="447.1109"/>
  </g>
  <g fill="none" id="layer15" inkscape:groupmode="layer" inkscape:label="15" stroke="#cccc00" style="display:inline">
    <line x1="566.4567" x2="566.4567" y1="291.0236" y2="333.7701"/>
    <polyline points="566.4567,346.5449 566.3941,380.868 565.4616,386.0367 563.4516,390.8891 561.5566,393.8378 559.2612,396.4868 521.8394,433.9086"/>
    <line x1="512.8063" x2="472.7056" y1="442.9418" y2="483.0425"/>
    <line x1="463.6724" x2="419.0551" y1="492.0756" y2="536.6929"/>
    <line x1="410.3694" x2="427.7408" y1="528.0072" y2="545.3786"/>
    <line x1="554.1732" x2="578.7402" y1="291.0236" y2="291.0236"/>
  </g>
  <g fill="none" id="layer16" inkscape:groupmode="layer" inkscape:label="16" stroke="#000000" style="display:inline">
    <polyline points="1444.4787,389.2913 1362.7744,389.2913 1359.2781,389.5414 1354.1891,390.8403 1349.4925,393.1913 1345.4029,396.4868 1303.4646,438.4252"/>
    <line x1="1294.7788" x2="1312.1503" y1="429.7395" y2="447.1109"/>
    <line x1="1457.2535" x2="1500.0" y1="389.2913" y2="389.2913"/>
    <line x1="1500.0" x2="1500.0" y1="377.0079" y2="401.5748"/>
  </g>
  <g fill="none" id="layer17" inkscape:groupmode="layer" inkscape:label="17" stroke="#0000ff" style="display:inline">
    <polyline points="1053.2787,384.7748 1015.8569,347.353 1013.2079,345.0576 1010.2591,343.1625 1005.4068,341.1526 1000.238,340.2201 967.9509,340.0949 962.7822,339.1623 959.498,337.9374 956.4216,336.2576 952.3321,332.962 916.3057,297.0241 911.9914,294.0287 908.803,292.5726 903.714,291.2737 900.2177,291.0236 873.5433,291.0236 871.7952,291.1487 868.4406,292.1337 865.4993,294.0239 863.2098,296.6661 861.7574,299.8464 861.3849,301.559 861.3224,331.7341 862.255,336.9028 863.4799,340.187 865.1598,343.2634 868.4553,347.353 910.3937,389.2913"/>
    <line x1="919.0794" x2="901.708" y1="380.6056" y2="397.9771"/>
    <line x1="1062.3119" x2="1102.4126" y1="393.8079" y2="433.9086"/>
  </g>
  <g fill="none" id="layer18" inkscape:groupmode="layer" inkscape:label="18" stroke="#008800" style="display:inline">
    <polygon points="75.1181,329.9815 75.3682,333.4778 76.1132,336.9028 77.3382,340.187 79.018,343.2634 81.1186,346.0694 117.0565,382.0959 121.146,385.3914 124.2225,387.0713 129.2058,388.7299 132.6753,389.2287 161.1024,389.2913 164.563,388.7938 167.7433,387.3414 169.1463,386.2911 170.3856,385.0518 172.2758,382.1106 173.2608,378.756 173.3858,350.3334 172.8244,345.1114 171.8369,341.7482 169.4859,337.0516 167.3853,334.2455 131.4475,298.2191 128.7984,295.9237 125.8497,294.0287 120.9973,292.0188 115.8286,291.0862 87.4016,291.0236 83.9409,291.5212 82.2988,292.1337 79.3576,294.0239 77.0681,296.6661 75.6157,299.8464 75.2431,301.559"/>
  </g>
  <g fill="none" id="layer19" inkscape:groupmode="layer" inkscape:label="19" stroke="#ff0000" style="display:inline">
    <polyline points="419.0551,291.0236 458.013,291.0236 461.5093,291.2737 466.5983,292.5726 471.2949,294.9235 474.1009,297.0241 510.1273,332.962 512.7764,335.2574 515.7251,337.1524 520.5775,339.1623 525.7462,340.0949 560.0693,340.1575"/>
    <line x1="572.8441" x2="609.2031" y1="340.1575" y2="340.1575"/>
    <line x1="621.978" x2="658.337" y1="340.1575" y2="340.1575"/>
    <line x1="671.1118" x2="707.4709" y1="340.1575" y2="340.1575"/>
    <line x1="720.2457" x2="756.6047" y1="340.1575" y2="340.1575"/>
    <line x1="769.3795" x2="812.126" y1="340.1575" y2="340.1575"/>
    <line x1="812.126" x2="812.126" y1="352.4409" y2="327.874"/>
    <line x1="419.0551" x2="419.0551" y1="303.3071" y2="278.7402"/>
  </g>
</svg>
