<?xml version="1.0" encoding="utf-8" ?>
<svg xmlns="http://www.w3.org/2000/svg" xmlns:cc="http://creativecommons.org/ns" xmlns:dc="http://purl.org/dc/elements/1.1/" xmlns:ev="http://www.w3.org/2001/xml-events" xmlns:inkscape="http://www.inkscape.org/namespaces/inkscape" xmlns:rdf="http://www.w3.org/1999/02/22-rdf-syntax-ns" xmlns:sodipodi="http://sodipodi.sourceforge.net/DTD/sodipodi-0.dtd" xmlns:xlink="http://www.w3.org/1999/xlink" baseProfile="tiny" height="21.0cm" version="1.2" viewBox="0 0 1122.5196850393702 793.7007874015749" width="29.7cm">
  <metadata>
    <rdf:RDF>
      <cc:Work>
        <dc:format>image/svg+xml</dc:format>
        <dc:source>Vsketch with params {'__seed__': 1205249941, 'debug_grid': False, 'debug_tile_indices': False, 'debug_cell_indices': False, 'debug_valid_dirs': False, 'debug_tiles_order': False, 'debug_print': False, 'n_rows': 16, 'n_cols': 24, 'tile_size': 1.0, 'width': 0.1, 'radius_circles': 0.09, 'radius_turns': 0.5, 'connected_edge': True, 'tileset': 'metro', 'use_custom_init': True, 'n_ends': 5, 'erase_islands': True, 'n_erase': 5}</dc:source>
        <dc:date>2025-02-10T19:36:27.952387</dc:date>
      </cc:Work>
    </rdf:RDF>
  </metadata>
  <defs/>
  <g fill="none" id="layer1" inkscape:groupmode="layer" inkscape:label="1" stroke="#0000ff" style="display:inline">
    <polygon points="768.8166,187.2526 767.4331,186.9586 766.0495,187.2526 764.9052,188.084 764.198,189.309 764.0501,190.7157 764.4872,192.0609 765.4337,193.1121 766.7258,193.6874 768.1403,193.6874 769.4325,193.1121 770.3789,192.0609 770.816,190.7157 770.6682,189.309 769.9609,188.084"/>
    <polygon points="803.229,230.9073 804.5211,231.4826 805.9356,231.4826 807.2277,230.9073 808.1742,229.8562 808.6113,228.511 808.4634,227.1043 807.7562,225.8793 806.6119,225.0479 805.2283,224.7538 803.8448,225.0479 802.7005,225.8793 801.9933,227.1043 801.8454,228.511 802.2825,229.8562"/>
    <polygon points="841.6401,262.8432 840.4958,263.6746 839.7885,264.8995 839.6407,266.3062 840.0778,267.6515 841.0242,268.7026 842.3164,269.2779 843.7308,269.2779 845.023,268.7026 845.9695,267.6515 846.4066,266.3062 846.2587,264.8995 845.5515,263.6746 844.4072,262.8432 843.0236,262.5491"/>
    <polygon points="882.5197,300.8001 881.1745,300.363 879.7678,300.5109 878.5428,301.2181 877.7114,302.3624 877.4173,303.746 877.7114,305.1295 878.5428,306.2738 879.7678,306.981 881.1745,307.1289 882.5197,306.6918 883.5708,305.7453 884.1461,304.4532 884.1461,303.0387 883.5708,301.7466"/>
    <polygon points="839.6964,342.2485 840.2717,343.5406 841.3228,344.4871 842.6681,344.9242 844.0748,344.7763 845.2997,344.0691 846.1311,342.9248 846.4252,341.5412 846.1311,340.1577 845.2997,339.0134 844.0748,338.3061 842.6681,338.1583 841.3228,338.5954 840.2717,339.5418 839.6964,340.834"/>
    <polygon points="804.8728,375.9536 803.5276,376.3907 802.4764,377.3371 801.9011,378.6293 801.9011,380.0437 802.4764,381.3359 803.5276,382.2824 804.8728,382.7194 806.2795,382.5716 807.5044,381.8644 808.3358,380.72 808.6299,379.3365 808.3358,377.953 807.5044,376.8086 806.2795,376.1014"/>
    <polygon points="765.7323,344.4871 767.0775,344.9242 768.4842,344.7763 769.7092,344.0691 770.5406,342.9248 770.8346,341.5412 770.5406,340.1577 769.7092,339.0134 768.4842,338.3061 767.0775,338.1583 765.7323,338.5954 764.6811,339.5418 764.1058,340.834 764.1058,342.2485 764.6811,343.5406"/>
    <polygon points="731.9139,376.8086 730.6889,376.1014 729.2822,375.9536 727.937,376.3907 726.8859,377.3371 726.3106,378.6293 726.3106,380.0437 726.8859,381.3359 727.937,382.2824 729.2822,382.7194 730.6889,382.5716 731.9139,381.8644 732.7453,380.72 733.0394,379.3365 732.7453,377.953"/>
    <polygon points="694.5945,377.3371 693.5433,376.3907 692.1981,375.9536 690.7914,376.1014 689.5664,376.8086 688.735,377.953 688.4409,379.3365 688.735,380.72 689.5664,381.8644 690.7914,382.5716 692.1981,382.7194 693.5433,382.2824 694.5945,381.3359 695.1698,380.0437 695.1698,378.6293"/>
    <polygon points="651.2953,452.9277 650.72,454.2198 650.72,455.6343 651.2953,456.9265 652.3465,457.8729 653.6917,458.31 655.0984,458.1621 656.3233,457.4549 657.1547,456.3106 657.4488,454.9271 657.1547,453.5435 656.3233,452.3992 655.0984,451.692 653.6917,451.5441 652.3465,451.9812"/>
    <polygon points="695.2255,493.0779 695.0776,491.6712 694.3704,490.4462 693.2261,489.6148 691.8425,489.3208 690.459,489.6148 689.3147,490.4462 688.6074,491.6712 688.4596,493.0779 688.8967,494.4231 689.8431,495.4743 691.1353,496.0496 692.5497,496.0496 693.8419,495.4743 694.7884,494.4231"/>
    <polygon points="726.2549,530.8732 726.6919,532.2184 727.6384,533.2695 728.9306,533.8448 730.345,533.8448 731.6372,533.2695 732.5836,532.2184 733.0207,530.8732 732.8729,529.4665 732.1657,528.2415 731.0213,527.4101 729.6378,527.116 728.2543,527.4101 727.1099,528.2415 726.4027,529.4665"/>
    <polygon points="770.5406,566.9293 769.7092,565.785 768.4842,565.0778 767.0775,564.9299 765.7323,565.367 764.6811,566.3135 764.1058,567.6057 764.1058,569.0201 764.6811,570.3123 765.7323,571.2587 767.0775,571.6958 768.4842,571.548 769.7092,570.8407 770.5406,569.6964 770.8346,568.3129"/>
    <polygon points="806.2795,527.2825 804.8728,527.1347 803.5276,527.5718 802.4764,528.5182 801.9011,529.8104 801.9011,531.2248 802.4764,532.517 803.5276,533.4635 804.8728,533.9005 806.2795,533.7527 807.5044,533.0455 808.3358,531.9012 808.6299,530.5176 808.3358,529.1341 807.5044,527.9897"/>
    <polygon points="807.2277,608.8601 808.1742,607.8089 808.6113,606.4637 808.4634,605.057 807.7562,603.8321 806.6119,603.0007 805.2283,602.7066 803.8448,603.0007 802.7005,603.8321 801.9933,605.057 801.8454,606.4637 802.2825,607.8089 803.229,608.8601 804.5211,609.4354 805.9356,609.4354"/>
    <polygon points="840.0778,645.6042 841.0242,646.6554 842.3164,647.2307 843.7308,647.2307 845.023,646.6554 845.9695,645.6042 846.4066,644.259 846.2587,642.8523 845.5515,641.6273 844.4072,640.7959 843.0236,640.5019 841.6401,640.7959 840.4958,641.6273 839.7885,642.8523 839.6407,644.259"/>
    <polygon points="916.9134,646.8493 918.2586,647.2864 919.6653,647.1385 920.8903,646.4313 921.7217,645.287 922.0157,643.9034 921.7217,642.5199 920.8903,641.3756 919.6653,640.6683 918.2586,640.5205 916.9134,640.9576 915.8622,641.904 915.2869,643.1962 915.2869,644.6107 915.8622,645.9028"/>
    <polygon points="920.8903,608.636 921.7217,607.4917 922.0157,606.1082 921.7217,604.7246 920.8903,603.5803 919.6653,602.8731 918.2586,602.7252 916.9134,603.1623 915.8622,604.1088 915.2869,605.4009 915.2869,606.8154 915.8622,608.1076 916.9134,609.054 918.2586,609.4911 919.6653,609.3432"/>
    <polygon points="958.9373,641.6273 957.793,640.7959 956.4094,640.5019 955.0259,640.7959 953.8816,641.6273 953.1744,642.8523 953.0265,644.259 953.4636,645.6042 954.4101,646.6554 955.7022,647.2307 957.1167,647.2307 958.4088,646.6554 959.3553,645.6042 959.7924,644.259 959.6445,642.8523"/>
    <polygon points="990.8775,605.4009 990.8775,606.8154 991.4528,608.1076 992.5039,609.054 993.8492,609.4911 995.2559,609.3432 996.4808,608.636 997.3122,607.4917 997.6063,606.1082 997.3122,604.7246 996.4808,603.5803 995.2559,602.8731 993.8492,602.7252 992.5039,603.1623 991.4528,604.1088"/>
    <polygon points="957.1167,571.6401 958.4088,571.0648 959.3553,570.0137 959.7924,568.6684 959.6445,567.2617 958.9373,566.0368 957.793,565.2054 956.4094,564.9113 955.0259,565.2054 953.8816,566.0368 953.1744,567.2617 953.0265,568.6684 953.4636,570.0137 954.4101,571.0648 955.7022,571.6401"/>
    <polygon points="954.7087,489.7765 953.6575,490.7229 953.0822,492.0151 953.0822,493.4296 953.6575,494.7217 954.7087,495.6682 956.0539,496.1053 957.4606,495.9574 958.6855,495.2502 959.5169,494.1059 959.811,492.7223 959.5169,491.3388 958.6855,490.1945 957.4606,489.4872 956.0539,489.3394"/>
    <polygon points="954.7087,457.8729 956.0539,458.31 957.4606,458.1621 958.6855,457.4549 959.5169,456.3106 959.811,454.9271 959.5169,453.5435 958.6855,452.3992 957.4606,451.692 956.0539,451.5441 954.7087,451.9812 953.6575,452.9277 953.0822,454.2198 953.0822,455.6343 953.6575,456.9265"/>
    <polygon points="953.0079,417.1318 953.302,418.5153 954.1334,419.6596 955.3583,420.3669 956.765,420.5147 958.1102,420.0776 959.1614,419.1312 959.7367,417.839 959.7367,416.4246 959.1614,415.1324 958.1102,414.1859 956.765,413.7488 955.3583,413.8967 954.1334,414.6039 953.302,415.7482"/>
    <polygon points="883.095,452.3992 881.87,451.692 880.4633,451.5441 879.1181,451.9812 878.067,452.9277 877.4917,454.2198 877.4917,455.6343 878.067,456.9265 879.1181,457.8729 880.4633,458.31 881.87,458.1621 883.095,457.4549 883.9264,456.3106 884.2205,454.9271 883.9264,453.5435"/>
    <polygon points="732.7453,607.4917 733.0394,606.1082 732.7453,604.7246 731.9139,603.5803 730.6889,602.8731 729.2822,602.7252 727.937,603.1623 726.8859,604.1088 726.3106,605.4009 726.3106,606.8154 726.8859,608.1076 727.937,609.054 729.2822,609.4911 730.6889,609.3432 731.9139,608.636"/>
    <polygon points="614.8684,565.2054 613.7241,566.0368 613.0169,567.2617 612.869,568.6684 613.3061,570.0137 614.2526,571.0648 615.5447,571.6401 616.9592,571.6401 618.2514,571.0648 619.1978,570.0137 619.6349,568.6684 619.4871,567.2617 618.7798,566.0368 617.6355,565.2054 616.252,564.9113"/>
    <polygon points="579.8402,527.4101 578.4567,527.116 577.0731,527.4101 575.9288,528.2415 575.2216,529.4665 575.0738,530.8732 575.5108,532.2184 576.4573,533.2695 577.7495,533.8448 579.1639,533.8448 580.4561,533.2695 581.4025,532.2184 581.8396,530.8732 581.6918,529.4665 580.9846,528.2415"/>
    <polygon points="543.6073,494.4231 544.0444,493.0779 543.8965,491.6712 543.1893,490.4462 542.045,489.6148 540.6614,489.3208 539.2779,489.6148 538.1336,490.4462 537.4263,491.6712 537.2785,493.0779 537.7156,494.4231 538.662,495.4743 539.9542,496.0496 541.3686,496.0496 542.6608,495.4743"/>
    <polygon points="463.3701,495.6682 464.7153,496.1053 466.122,495.9574 467.347,495.2502 468.1784,494.1059 468.4724,492.7223 468.1784,491.3388 467.347,490.1945 466.122,489.4872 464.7153,489.3394 463.3701,489.7765 462.3189,490.7229 461.7436,492.0151 461.7436,493.4296 462.3189,494.7217"/>
    <polygon points="430.6585,455.2826 430.5107,453.8759 429.8035,452.651 428.6591,451.8196 427.2756,451.5255 425.892,451.8196 424.7477,452.651 424.0405,453.8759 423.8926,455.2826 424.3297,456.6278 425.2762,457.679 426.5684,458.2543 427.9828,458.2543 429.275,457.679 430.2214,456.6278"/>
    <polygon points="467.5987,414.8557 466.4544,414.0243 465.0709,413.7302 463.6873,414.0243 462.543,414.8557 461.8358,416.0806 461.6879,417.4873 462.125,418.8326 463.0715,419.8837 464.3636,420.459 465.7781,420.459 467.0703,419.8837 468.0167,418.8326 468.4538,417.4873 468.306,416.0806"/>
    <polygon points="429.5517,339.0134 428.3267,338.3061 426.92,338.1583 425.5748,338.5954 424.5237,339.5418 423.9483,340.834 423.9483,342.2485 424.5237,343.5406 425.5748,344.4871 426.92,344.9242 428.3267,344.7763 429.5517,344.0691 430.3831,342.9248 430.6772,341.5412 430.3831,340.1577"/>
    <polygon points="430.6772,303.746 430.3831,302.3624 429.5517,301.2181 428.3267,300.5109 426.92,300.363 425.5748,300.8001 424.5237,301.7466 423.9483,303.0387 423.9483,304.4532 424.5237,305.7453 425.5748,306.6918 426.92,307.1289 428.3267,306.981 429.5517,306.2738 430.3831,305.1295"/>
    <polygon points="464.7153,307.1289 466.122,306.981 467.347,306.2738 468.1784,305.1295 468.4724,303.746 468.1784,302.3624 467.347,301.2181 466.122,300.5109 464.7153,300.363 463.3701,300.8001 462.3189,301.7466 461.7436,303.0387 461.7436,304.4532 462.3189,305.7453 463.3701,306.6918"/>
    <polygon points="467.0703,263.1987 465.7781,262.6234 464.3636,262.6234 463.0715,263.1987 462.125,264.2499 461.6879,265.5951 461.8358,267.0018 462.543,268.2268 463.6873,269.0582 465.0709,269.3523 466.4544,269.0582 467.5987,268.2268 468.306,267.0018 468.4538,265.5951 468.0167,264.2499"/>
    <polygon points="428.3267,262.7156 426.92,262.5677 425.5748,263.0048 424.5237,263.9513 423.9483,265.2434 423.9483,266.6579 424.5237,267.9501 425.5748,268.8965 426.92,269.3336 428.3267,269.1858 429.5517,268.4785 430.3831,267.3342 430.6772,265.9507 430.3831,264.5671 429.5517,263.4228"/>
    <polygon points="390.5315,262.7156 389.1248,262.5677 387.7795,263.0048 386.7284,263.9513 386.1531,265.2434 386.1531,266.6579 386.7284,267.9501 387.7795,268.8965 389.1248,269.3336 390.5315,269.1858 391.7564,268.4785 392.5878,267.3342 392.8819,265.9507 392.5878,264.5671 391.7564,263.4228"/>
    <polygon points="387.7795,225.2096 386.7284,226.156 386.1531,227.4482 386.1531,228.8626 386.7284,230.1548 387.7795,231.1013 389.1248,231.5383 390.5315,231.3905 391.7564,230.6833 392.5878,229.5389 392.8819,228.1554 392.5878,226.7719 391.7564,225.6275 390.5315,224.9203 389.1248,224.7725"/>
    <polygon points="428.3267,224.9203 426.92,224.7725 425.5748,225.2096 424.5237,226.156 423.9483,227.4482 423.9483,228.8626 424.5237,230.1548 425.5748,231.1013 426.92,231.5383 428.3267,231.3905 429.5517,230.6833 430.3831,229.5389 430.6772,228.1554 430.3831,226.7719 429.5517,225.6275"/>
    <polygon points="544.0444,304.1015 543.8965,302.6948 543.1893,301.4699 542.045,300.6385 540.6614,300.3444 539.2779,300.6385 538.1336,301.4699 537.4263,302.6948 537.2785,304.1015 537.7156,305.4467 538.662,306.4979 539.9542,307.0732 541.3686,307.0732 542.6608,306.4979 543.6073,305.4467"/>
    <polygon points="581.6918,340.4901 580.9846,339.2651 579.8402,338.4337 578.4567,338.1397 577.0731,338.4337 575.9288,339.2651 575.2216,340.4901 575.0738,341.8968 575.5108,343.242 576.4573,344.2932 577.7495,344.8685 579.1639,344.8685 580.4561,344.2932 581.4025,343.242 581.8396,341.8968"/>
    <polygon points="728.9306,231.4826 730.345,231.4826 731.6372,230.9073 732.5836,229.8562 733.0207,228.511 732.8729,227.1043 732.1657,225.8793 731.0213,225.0479 729.6378,224.7538 728.2543,225.0479 727.1099,225.8793 726.4027,227.1043 726.2549,228.511 726.6919,229.8562 727.6384,230.9073"/>
    <polygon points="915.5067,226.7719 915.2126,228.1554 915.5067,229.5389 916.3381,230.6833 917.563,231.3905 918.9697,231.5383 920.315,231.1013 921.3661,230.1548 921.9414,228.8626 921.9414,227.4482 921.3661,226.156 920.315,225.2096 918.9697,224.7725 917.563,224.9203 916.3381,225.6275"/>
    <polygon points="537.7156,607.8089 538.662,608.8601 539.9542,609.4354 541.3686,609.4354 542.6608,608.8601 543.6073,607.8089 544.0444,606.4637 543.8965,605.057 543.1893,603.8321 542.045,603.0007 540.6614,602.7066 539.2779,603.0007 538.1336,603.8321 537.4263,605.057 537.2785,606.4637"/>
    <polygon points="424.7477,641.6273 424.0405,642.8523 423.8926,644.259 424.3297,645.6042 425.2762,646.6554 426.5684,647.2307 427.9828,647.2307 429.275,646.6554 430.2214,645.6042 430.6585,644.259 430.5107,642.8523 429.8035,641.6273 428.6591,640.7959 427.2756,640.5019 425.892,640.7959"/>
    <polygon points="390.8639,603.0007 389.4803,602.7066 388.0968,603.0007 386.9525,603.8321 386.2452,605.057 386.0974,606.4637 386.5345,607.8089 387.4809,608.8601 388.7731,609.4354 390.1875,609.4354 391.4797,608.8601 392.4262,607.8089 392.8633,606.4637 392.7154,605.057 392.0082,603.8321"/>
    <polygon points="350.9778,571.6401 352.3923,571.6401 353.6844,571.0648 354.6309,570.0137 355.068,568.6684 354.9201,567.2617 354.2129,566.0368 353.0686,565.2054 351.685,564.9113 350.3015,565.2054 349.1572,566.0368 348.4499,567.2617 348.3021,568.6684 348.7392,570.0137 349.6856,571.0648"/>
    <polygon points="315.2733,458.0345 316.4176,457.2032 317.1249,455.9782 317.2727,454.5715 316.8356,453.2263 315.8892,452.1751 314.597,451.5998 313.1825,451.5998 311.8904,452.1751 310.9439,453.2263 310.5068,454.5715 310.6547,455.9782 311.3619,457.2032 312.5062,458.0345 313.8898,458.3286"/>
    <polygon points="353.0686,414.0243 351.685,413.7302 350.3015,414.0243 349.1572,414.8557 348.4499,416.0806 348.3021,417.4873 348.7392,418.8326 349.6856,419.8837 350.9778,420.459 352.3923,420.459 353.6844,419.8837 354.6309,418.8326 355.068,417.4873 354.9201,416.0806 354.2129,414.8557"/>
    <polygon points="311.8904,382.0884 313.1825,382.6637 314.597,382.6637 315.8892,382.0884 316.8356,381.0373 317.2727,379.6921 317.1249,378.2854 316.4176,377.0604 315.2733,376.229 313.8898,375.9349 312.5062,376.229 311.3619,377.0604 310.6547,378.2854 310.5068,379.6921 310.9439,381.0373"/>
    <polygon points="277.478,338.4337 276.0945,338.1397 274.7109,338.4337 273.5666,339.2651 272.8594,340.4901 272.7115,341.8968 273.1486,343.242 274.0951,344.2932 275.3873,344.8685 276.8017,344.8685 278.0939,344.2932 279.0403,343.242 279.4774,341.8968 279.3296,340.4901 278.6224,339.2651"/>
    <polygon points="240.2986,306.4979 241.2451,305.4467 241.6822,304.1015 241.5343,302.6948 240.8271,301.4699 239.6828,300.6385 238.2992,300.3444 236.9157,300.6385 235.7713,301.4699 235.0641,302.6948 234.9163,304.1015 235.3534,305.4467 236.2998,306.4979 237.592,307.0732 239.0064,307.0732"/>
    <polygon points="241.2451,229.8562 241.6822,228.511 241.5343,227.1043 240.8271,225.8793 239.6828,225.0479 238.2992,224.7538 236.9157,225.0479 235.7713,225.8793 235.0641,227.1043 234.9163,228.511 235.3534,229.8562 236.2998,230.9073 237.592,231.4826 239.0064,231.4826 240.2986,230.9073"/>
    <polygon points="164.9848,419.6596 165.8162,418.5153 166.1102,417.1318 165.8162,415.7482 164.9848,414.6039 163.7598,413.8967 162.3531,413.7488 161.0079,414.1859 159.9567,415.1324 159.3814,416.4246 159.3814,417.839 159.9567,419.1312 161.0079,420.0776 162.3531,420.5147 163.7598,420.3669"/>
  </g>
  <g fill="none" id="layer2" inkscape:groupmode="layer" inkscape:label="2" stroke="#008800" style="display:inline">
    <line x1="689.4372" x2="656.4525" y1="490.3171" y2="457.3323"/>
    <line x1="694.2478" x2="727.2325" y1="495.1276" y2="528.1123"/>
    <line x1="732.0431" x2="765.0278" y1="532.9229" y2="565.9076"/>
    <line x1="769.8383" x2="802.8231" y1="570.7182" y2="603.7029"/>
    <line x1="807.6336" x2="840.6183" y1="608.5134" y2="641.4982"/>
    <polyline points="845.4289,646.3087 876.2712,677.083 879.5899,679.3871 882.0425,680.5072 884.6296,681.2668 888.6466,681.6987 910.5101,681.6025 913.0905,680.8448 914.2738,680.1987 916.3063,678.4375 917.7603,676.1751 918.518,673.5946 918.6142,647.305"/>
    <line x1="922.0157" x2="953.0079" y1="643.9034" y2="643.9034"/>
    <polyline points="959.811,643.9034 986.1006,643.8073 988.6811,643.0496 989.8643,642.4035 991.8968,640.6423 993.3509,638.3798 994.1085,635.7993 994.2047,609.5097"/>
    <polyline points="994.2047,602.7066 994.1085,576.417 993.3509,573.8365 992.7048,572.6533 990.9436,570.6208 988.6811,569.1668 986.1006,568.4091 959.811,568.3129"/>
    <polyline points="953.0079,568.3129 926.7183,568.4091 924.1378,569.1668 921.8753,570.6208 920.1141,572.6533 919.468,573.8365 918.7103,576.417 918.6142,602.7066"/>
    <line x1="918.6142" x2="918.6142" y1="609.5097" y2="640.5019"/>
  </g>
  <g fill="none" id="layer3" inkscape:groupmode="layer" inkscape:label="3" stroke="#ff0000" style="display:inline">
    <polyline points="349.2798,565.9076 318.5055,535.0653 316.2013,531.7466 314.6553,528.014 314.0821,525.3794 313.8898,522.6899 313.8898,458.3286"/>
    <line x1="354.0903" x2="387.075" y1="570.7182" y2="603.7029"/>
    <line x1="391.8856" x2="424.8703" y1="608.5134" y2="641.4982"/>
    <line x1="429.6809" x2="465.0709" y1="646.3087" y2="681.6987"/>
    <line x1="458.3895" x2="471.7522" y1="688.38" y2="675.0174"/>
  </g>
  <g fill="none" id="layer4" inkscape:groupmode="layer" inkscape:label="4" stroke="#00cccc" style="display:inline">
    <polyline points="465.0709,228.1554 464.9747,198.4642 464.217,195.8838 462.763,193.6213 461.8097,192.668 459.5472,191.214 456.9668,190.4563 435.3797,190.4563 432.7992,191.214 430.5367,192.668 429.5835,193.6213 428.1295,195.8838 427.3718,198.4642 427.2756,224.7538"/>
    <line x1="427.2756" x2="427.2756" y1="231.557" y2="262.5491"/>
    <line x1="427.2756" x2="427.2756" y1="269.3523" y2="300.3444"/>
    <line x1="427.2756" x2="427.2756" y1="307.1475" y2="338.1397"/>
    <polyline points="427.2756,344.9428 427.3237,372.857 428.0411,376.8329 429.5872,380.5655 431.0449,382.8338 432.8106,384.8715 462.6656,414.7265"/>
    <line x1="467.4761" x2="538.2561" y1="419.5371" y2="490.3171"/>
    <line x1="543.0667" x2="576.0514" y1="495.1276" y2="528.1123"/>
    <line x1="580.862" x2="613.8467" y1="532.9229" y2="565.9076"/>
    <polyline points="618.6572,570.7182 648.5123,600.5732 650.2779,602.6109 651.7357,604.8791 653.2818,608.6117 653.9991,612.5877 654.0472,634.4546 654.43,637.1167 654.9011,638.3798 656.3551,640.6423 658.3876,642.4035 660.834,643.5207 663.4961,643.9034 685.363,643.8553 689.3389,643.1379 693.0715,641.5919 695.3398,640.1341 697.3775,638.3684 727.2325,608.5134"/>
    <line x1="732.0431" x2="765.0278" y1="603.7029" y2="570.7182"/>
    <line x1="769.8383" x2="802.8231" y1="565.9076" y2="532.9229"/>
    <line x1="807.6336" x2="878.4136" y1="528.1123" y2="457.3323"/>
    <polyline points="883.2242,452.5218 913.0792,422.6668 915.1169,420.9011 917.3852,419.4434 921.1178,417.8973 925.0937,417.1799 953.0079,417.1318"/>
    <line x1="474.5197" x2="455.622" y1="228.1554" y2="228.1554"/>
  </g>
  <g fill="none" id="layer5" inkscape:groupmode="layer" inkscape:label="5" stroke="#00ff00" style="display:inline">
    <polyline points="389.4803,224.7538 389.4803,162.0137 389.0976,159.3516 388.6264,158.0885 387.1724,155.826 385.1399,154.0648 382.6935,152.9476 381.3762,152.661 359.5127,152.5648 355.4957,152.9967 352.9086,153.7564 349.2959,155.5648 347.1374,157.1806 281.6295,222.6204 278.4837,225.1555 276.1172,226.4477 273.5909,227.3899 269.615,228.1073 241.7008,228.1554"/>
    <polyline points="234.8976,228.1554 208.608,228.2516 206.0276,229.0093 203.7651,230.4633 202.0039,232.4958 201.3578,233.679 200.6001,236.2595 200.5039,258.123 200.6963,260.8124 201.6954,264.7271 202.8155,267.1797 205.1197,270.4983 235.8939,301.3407"/>
    <line x1="240.7045" x2="273.6892" y1="306.1512" y2="339.136"/>
    <line x1="278.4998" x2="311.4845" y1="343.9465" y2="376.9312"/>
    <line x1="316.295" x2="349.2798" y1="381.7418" y2="414.7265"/>
    <polyline points="354.0903,419.5371 383.9453,449.3921 385.983,451.1578 388.2513,452.6155 391.9839,454.1616 395.9598,454.8789 423.874,454.9271"/>
    <polyline points="430.6772,454.9271 456.9668,455.0232 459.5472,455.7809 461.8097,457.2349 462.763,458.1882 464.217,460.4507 464.9747,463.0312 465.0709,489.3208"/>
    <polyline points="465.0709,496.1239 465.119,524.0381 465.5027,526.7069 466.2624,529.294 468.0708,532.9068 470.6059,536.0526 538.2561,603.7029"/>
    <line x1="543.0667" x2="578.4567" y1="608.5134" y2="643.9034"/>
    <line x1="571.7754" x2="585.138" y1="650.5848" y2="637.2221"/>
    <polyline points="430.6772,341.5412 456.9668,341.4451 458.2841,341.1585 460.7305,340.0413 462.763,338.2801 464.217,336.0176 464.9747,333.4371 465.0709,307.1475"/>
    <line x1="465.0709" x2="465.0709" y1="300.3444" y2="269.3523"/>
    <polyline points="389.4803,269.3523 389.4803,332.0924 389.5765,333.4371 390.3342,336.0176 391.7882,338.2801 393.8207,340.0413 396.2671,341.1585 397.5844,341.4451 423.874,341.5412"/>
    <line x1="389.4803" x2="389.4803" y1="262.5491" y2="231.557"/>
  </g>
  <g fill="none" id="layer6" inkscape:groupmode="layer" inkscape:label="6" stroke="#cc00cc" style="display:inline">
    <line x1="238.2992" x2="165.1139" y1="341.5412" y2="414.7265"/>
    <polyline points="160.3034,419.5371 130.4484,449.3921 127.9133,452.5379 126.6211,454.9043 125.3453,458.7377 124.9134,462.7547 124.9134,484.8947 125.1057,487.5841 125.6789,490.2188 126.6211,492.745 127.9133,495.1115 130.4484,498.2573 195.8882,563.7652 198.1924,567.0839 199.3124,569.5365 200.3116,573.4511 200.5039,576.1405 200.4558,599.6286 199.7384,603.6046 198.1924,607.3372 196.7346,609.6054 194.9689,611.6431 162.7087,643.9034"/>
    <line x1="156.0273" x2="169.39" y1="637.2221" y2="650.5848"/>
    <line x1="244.9805" x2="231.6179" y1="348.2226" y2="334.8599"/>
  </g>
  <g fill="none" id="layer7" inkscape:groupmode="layer" inkscape:label="7" stroke="#cccc00" style="display:inline">
    <polyline points="994.2047,341.5412 964.5136,341.6374 961.9331,342.3951 959.6706,343.8491 957.9094,345.8816 957.2633,347.0649 956.5056,349.6453 956.4094,350.99 956.4094,413.7302"/>
    <line x1="956.4094" x2="956.4094" y1="420.5334" y2="451.5255"/>
    <line x1="956.4094" x2="956.4094" y1="458.3286" y2="489.3208"/>
    <line x1="956.4094" x2="956.4094" y1="496.1239" y2="564.9113"/>
    <line x1="994.2047" x2="994.2047" y1="350.99" y2="332.0924"/>
  </g>
  <g fill="none" id="layer8" inkscape:groupmode="layer" inkscape:label="8" stroke="#000000" style="display:inline">
    <polyline points="843.0236,303.746 811.7079,303.7941 807.7319,304.5114 805.2056,305.4537 801.7311,307.5153 799.6934,309.2809 769.8383,339.136"/>
    <line x1="765.0278" x2="732.0431" y1="343.9465" y2="376.9312"/>
    <line x1="727.2325" x2="656.4525" y1="381.7418" y2="452.5218"/>
    <line x1="651.642" x2="580.862" y1="457.3323" y2="528.1123"/>
    <line x1="843.0236" x2="843.0236" y1="313.1948" y2="294.2971"/>
  </g>
  <g fill="none" id="layer9" inkscape:groupmode="layer" inkscape:label="9" stroke="#0000ff" style="display:inline">
    <line x1="918.6142" x2="953.0079" y1="454.9271" y2="454.9271"/>
    <line x1="959.811" x2="994.2047" y1="454.9271" y2="454.9271"/>
    <line x1="994.2047" x2="994.2047" y1="445.4782" y2="464.3759"/>
    <line x1="918.6142" x2="918.6142" y1="464.3759" y2="445.4782"/>
  </g>
  <g fill="none" id="layer10" inkscape:groupmode="layer" inkscape:label="10" stroke="#008800" style="display:inline">
    <polyline points="805.2283,114.7696 837.8854,114.9619 840.52,115.5351 844.2526,117.0812 846.5209,118.5389 848.5586,120.3046 913.0792,184.8251 915.6142,187.9709 917.4227,191.5837 918.1823,194.1708 918.566,196.8396 918.6142,224.7538"/>
    <polyline points="918.6142,231.557 918.566,259.4712 917.8487,263.4471 916.3026,267.1797 914.8449,269.448 913.0792,271.4857 883.2242,301.3407"/>
    <line x1="878.4136" x2="845.4289" y1="306.1512" y2="339.136"/>
    <line x1="840.6183" x2="807.6336" y1="343.9465" y2="376.9312"/>
    <polyline points="802.8231,381.7418 772.9681,411.5968 770.9303,413.3625 768.6621,414.8202 764.9295,416.3663 760.9536,417.0836 737.7419,417.228 735.1614,417.9856 732.899,419.4397 731.9457,420.3929 730.4917,422.6554 729.734,425.2359 729.6378,426.5806 729.6378,454.9271"/>
    <line x1="739.0866" x2="720.189" y1="454.9271" y2="454.9271"/>
    <line x1="805.2283" x2="805.2283" y1="124.2184" y2="105.3208"/>
  </g>
  <g fill="none" id="layer11" inkscape:groupmode="layer" inkscape:label="11" stroke="#ff0000" style="display:inline">
    <polyline points="276.0945,417.1318 276.0945,445.4782 276.4772,448.1403 276.9484,449.4034 278.4024,451.6659 279.3556,452.6192 281.6181,454.0732 284.1986,454.8309 310.4882,454.9271"/>
    <line x1="317.2913" x2="351.685" y1="454.9271" y2="454.9271"/>
    <line x1="351.685" x2="351.685" y1="445.4782" y2="464.3759"/>
    <line x1="285.5433" x2="266.6457" y1="417.1318" y2="417.1318"/>
  </g>
  <g fill="none" id="layer12" inkscape:groupmode="layer" inkscape:label="12" stroke="#00cccc" style="display:inline">
    <polyline points="765.0278,187.9548 735.1728,158.0998 732.027,155.5648 729.6605,154.2726 725.8271,152.9967 723.1583,152.613 701.2913,152.5648 698.6293,152.9476 697.3662,153.4187 695.1037,154.8727 693.3425,156.9053 692.6964,158.0885 691.9387,160.669 691.8425,162.0137 691.8907,183.8806 692.2744,186.5494 693.5503,190.3828 695.6118,193.8574 697.3775,195.8951 727.2325,225.7501"/>
    <polyline points="732.0431,230.5607 761.8981,260.4157 763.6638,262.4534 765.7253,265.928 767.0012,269.7614 767.4331,273.7783 767.4331,295.9183 767.2407,298.6077 766.6676,301.2424 765.1215,304.975 763.6638,307.2432 761.8981,309.2809 694.2478,376.9312"/>
    <polyline points="689.4372,381.7418 659.5822,411.5968 657.5445,413.3625 655.2763,414.8202 651.5437,416.3663 647.5677,417.0836 625.7008,417.1318 623.0387,416.749 620.5924,415.6318 619.5131,414.8239 617.7519,412.7914 616.6347,410.345 616.252,407.683 616.2038,385.816 615.4865,381.8401 613.9404,378.1075 612.4827,375.8392 610.717,373.8015 580.862,343.9465"/>
    <line x1="576.0514" x2="543.0667" y1="339.136" y2="306.1512"/>
    <polyline points="538.2561,301.3407 508.4011,271.4857 506.3634,269.72 504.0952,268.2623 500.3626,266.7162 496.3866,265.9988 468.4724,265.9507"/>
    <line x1="461.6693" x2="430.6772" y1="265.9507" y2="265.9507"/>
    <line x1="423.874" x2="392.8819" y1="265.9507" y2="265.9507"/>
    <line x1="769.8383" x2="802.8231" y1="192.7654" y2="225.7501"/>
    <line x1="807.6336" x2="840.6183" y1="230.5607" y2="263.5454"/>
    <line x1="845.4289" x2="878.4136" y1="268.356" y2="301.3407"/>
  </g>
  <g fill="none" id="layer13" inkscape:groupmode="layer" inkscape:label="13" stroke="#00ff00" style="display:inline">
    <polyline points="616.252,341.5412 647.5677,341.5894 651.5437,342.3067 654.0699,343.249 657.5445,345.3105 659.5822,347.0762 689.4372,376.9312"/>
    <line x1="616.252" x2="616.252" y1="350.99" y2="332.0924"/>
  </g>
  <g fill="none" id="layer14" inkscape:groupmode="layer" inkscape:label="14" stroke="#cc00cc" style="display:inline">
    <polyline points="915.2126,228.1554 888.923,228.2516 886.3425,229.0093 884.0801,230.4633 883.1268,231.4166 881.6728,233.679 880.9151,236.2595 880.8189,237.6042 880.8189,265.9507"/>
    <line x1="890.2677" x2="871.3701" y1="265.9507" y2="265.9507"/>
  </g>
</svg>
