<?xml version="1.0" encoding="utf-8" ?>
<svg xmlns="http://www.w3.org/2000/svg" xmlns:cc="http://creativecommons.org/ns" xmlns:dc="http://purl.org/dc/elements/1.1/" xmlns:ev="http://www.w3.org/2001/xml-events" xmlns:inkscape="http://www.inkscape.org/namespaces/inkscape" xmlns:rdf="http://www.w3.org/1999/02/22-rdf-syntax-ns" xmlns:sodipodi="http://sodipodi.sourceforge.net/DTD/sodipodi-0.dtd" xmlns:xlink="http://www.w3.org/1999/xlink" baseProfile="tiny" height="29.7cm" version="1.2" viewBox="0 0 1587.4015748031497 1122.5196850393702" width="42.0cm">
  <metadata>
    <rdf:RDF>
      <cc:Work>
        <dc:format>image/svg+xml</dc:format>
        <dc:source>vsk save -s 9 -c C:\Users\marti\Documents\git\putti-plotter-plot\wfc\config\frame_1_smaller_ready.json C:\Users\marti\Documents\git\putti-plotter-plot\wfc\sketch_wfc.py</dc:source>
        <dc:date>2025-05-01T14:41:53.280243</dc:date>
      </cc:Work>
    </rdf:RDF>
  </metadata>
  <defs/>
  <g fill="none" id="layer1" inkscape:groupmode="layer" inkscape:label="1" stroke="#0000ff" style="display:inline">
    <polygon points="623.6912,344.9848 625.2206,345.9677 626.965,346.4799 628.783,346.4799 630.5274,345.9677 632.0569,344.9848 633.2474,343.6108 634.0027,341.957 634.2614,340.1575 634.0027,338.3579 633.2474,336.7042 632.0569,335.3302 630.5274,334.3473 628.783,333.8351 626.965,333.8351 625.2206,334.3473 623.6912,335.3302 622.5006,336.7042 621.7453,338.3579 621.4866,340.1575 621.7453,341.957 622.5006,343.6108"/>
    <polygon points="574.5573,394.1186 576.0867,395.1015 577.8311,395.6137 579.6492,395.6137 581.3936,395.1015 582.923,394.1186 584.1136,392.7446 584.8688,391.0909 585.1276,389.2913 584.8688,387.4918 584.1136,385.838 582.923,384.4641 581.3936,383.4812 579.6492,382.969 577.8311,382.969 576.0867,383.4812 574.5573,384.4641 573.3667,385.838 572.6115,387.4918 572.3528,389.2913 572.6115,391.0909 573.3667,392.7446"/>
    <polygon points="622.5006,491.0123 623.6912,492.3863 625.2206,493.3692 626.965,493.8814 628.783,493.8814 630.5274,493.3692 632.0569,492.3863 633.2474,491.0123 634.0027,489.3586 634.2614,487.5591 634.0027,485.7595 633.2474,484.1058 632.0569,482.7318 630.5274,481.7489 628.783,481.2367 626.965,481.2367 625.2206,481.7489 623.6912,482.7318 622.5006,484.1058 621.7453,485.7595 621.4866,487.5591 621.7453,489.3586"/>
    <polygon points="585.1276,536.6929 584.8688,534.8934 584.1136,533.2396 582.923,531.8656 581.3936,530.8827 579.6492,530.3705 577.8311,530.3705 576.0867,530.8827 574.5573,531.8656 573.3667,533.2396 572.6115,534.8934 572.3528,536.6929 572.6115,538.4925 573.3667,540.1462 574.5573,541.5202 576.0867,542.5031 577.8311,543.0153 579.6492,543.0153 581.3936,542.5031 582.923,541.5202 584.1136,540.1462 584.8688,538.4925"/>
    <polygon points="622.0638,632.3072 621.5516,634.0516 621.5516,635.8697 622.0638,637.6141 623.0467,639.1435 624.4207,640.3341 626.0745,641.0893 627.874,641.348 629.6736,641.0893 631.3273,640.3341 632.7013,639.1435 633.6842,637.6141 634.1964,635.8697 634.1964,634.0516 633.6842,632.3072 632.7013,630.7778 631.3273,629.5872 629.6736,628.832 627.874,628.5732 626.0745,628.832 624.4207,629.5872 623.0467,630.7778"/>
    <polygon points="528.6973,641.283 530.5153,641.283 532.2597,640.7708 533.7892,639.7879 534.9797,638.4139 535.735,636.7602 535.9937,634.9606 535.735,633.1611 534.9797,631.5073 533.7892,630.1334 532.2597,629.1504 530.5153,628.6382 528.6973,628.6382 526.9529,629.1504 525.4234,630.1334 524.2329,631.5073 523.4776,633.1611 523.2189,634.9606 523.4776,636.7602 524.2329,638.4139 525.4234,639.7879 526.9529,640.7708"/>
    <polygon points="531.4058,739.357 533.0596,738.6018 534.4336,737.4112 535.4165,735.8818 535.9287,734.1374 535.9287,732.3193 535.4165,730.5749 534.4336,729.0455 533.0596,727.8549 531.4058,727.0997 529.6063,726.8409 527.8068,727.0997 526.153,727.8549 524.779,729.0455 523.7961,730.5749 523.2839,732.3193 523.2839,734.1374 523.7961,735.8818 524.779,737.4112 526.153,738.6018 527.8068,739.357 529.6063,739.6157"/>
    <polygon points="535.4165,779.7088 534.4336,778.1793 533.0596,776.9888 531.4058,776.2335 529.6063,775.9748 527.8068,776.2335 526.153,776.9888 524.779,778.1793 523.7961,779.7088 523.2839,781.4532 523.2839,783.2712 523.7961,785.0156 524.779,786.5451 526.153,787.7356 527.8068,788.4909 529.6063,788.7496 531.4058,788.4909 533.0596,787.7356 534.4336,786.5451 535.4165,785.0156 535.9287,783.2712 535.9287,781.4532"/>
    <polygon points="576.0867,788.1724 577.8311,788.6846 579.6492,788.6846 581.3936,788.1724 582.923,787.1895 584.1136,785.8155 584.8688,784.1617 585.1276,782.3622 584.8688,780.5627 584.1136,778.9089 582.923,777.5349 581.3936,776.552 579.6492,776.0398 577.8311,776.0398 576.0867,776.552 574.5573,777.5349 573.3667,778.9089 572.6115,780.5627 572.3528,782.3622 572.6115,784.1617 573.3667,785.8155 574.5573,787.1895"/>
    <polygon points="585.0625,734.1374 585.0625,732.3193 584.5503,730.5749 583.5674,729.0455 582.1934,727.8549 580.5397,727.0997 578.7402,726.8409 576.9406,727.0997 575.2869,727.8549 573.9129,729.0455 572.93,730.5749 572.4178,732.3193 572.4178,734.1374 572.93,735.8818 573.9129,737.4112 575.2869,738.6018 576.9406,739.357 578.7402,739.6157 580.5397,739.357 582.1934,738.6018 583.5674,737.4112 584.5503,735.8818"/>
    <polygon points="634.1964,732.3193 633.6842,730.5749 632.7013,729.0455 631.3273,727.8549 629.6736,727.0997 627.874,726.8409 626.0745,727.0997 624.4207,727.8549 623.0467,729.0455 622.0638,730.5749 621.5516,732.3193 621.5516,734.1374 622.0638,735.8818 623.0467,737.4112 624.4207,738.6018 626.0745,739.357 627.874,739.6157 629.6736,739.357 631.3273,738.6018 632.7013,737.4112 633.6842,735.8818 634.1964,734.1374"/>
    <polygon points="681.8352,737.4112 682.8181,735.8818 683.3303,734.1374 683.3303,732.3193 682.8181,730.5749 681.8352,729.0455 680.4612,727.8549 678.8074,727.0997 677.0079,726.8409 675.2083,727.0997 673.5546,727.8549 672.1806,729.0455 671.1977,730.5749 670.6855,732.3193 670.6855,734.1374 671.1977,735.8818 672.1806,737.4112 673.5546,738.6018 675.2083,739.357 677.0079,739.6157 678.8074,739.357 680.4612,738.6018"/>
    <polygon points="682.3813,778.9089 681.1907,777.5349 679.6613,776.552 677.9169,776.0398 676.0989,776.0398 674.3545,776.552 672.825,777.5349 671.6344,778.9089 670.8792,780.5627 670.6205,782.3622 670.8792,784.1617 671.6344,785.8155 672.825,787.1895 674.3545,788.1724 676.0989,788.6846 677.9169,788.6846 679.6613,788.1724 681.1907,787.1895 682.3813,785.8155 683.1365,784.1617 683.3953,782.3622 683.1365,780.5627"/>
    <polygon points="818.2808,731.4288 818.022,733.2283 818.2808,735.0279 819.036,736.6816 820.2266,738.0556 821.756,739.0385 823.5004,739.5507 825.3185,739.5507 827.0629,739.0385 828.5923,738.0556 829.7829,736.6816 830.5381,735.0279 830.7969,733.2283 830.5381,731.4288 829.7829,729.7751 828.5923,728.4011 827.0629,727.4182 825.3185,726.906 823.5004,726.906 821.756,727.4182 820.2266,728.4011 819.036,729.7751"/>
    <polygon points="917.3037,729.7751 916.5485,731.4288 916.2898,733.2283 916.5485,735.0279 917.3037,736.6816 918.4943,738.0556 920.0237,739.0385 921.7681,739.5507 923.5862,739.5507 925.3306,739.0385 926.86,738.0556 928.0506,736.6816 928.8058,735.0279 929.0646,733.2283 928.8058,731.4288 928.0506,729.7751 926.86,728.4011 925.3306,727.4182 923.5862,726.906 921.7681,726.906 920.0237,727.4182 918.4943,728.4011"/>
    <polygon points="928.8058,685.894 929.0646,684.0945 928.8058,682.2949 928.0506,680.6412 926.86,679.2672 925.3306,678.2843 923.5862,677.7721 921.7681,677.7721 920.0237,678.2843 918.4943,679.2672 917.3037,680.6412 916.5485,682.2949 916.2898,684.0945 916.5485,685.894 917.3037,687.5478 918.4943,688.9218 920.0237,689.9047 921.7681,690.4169 923.5862,690.4169 925.3306,689.9047 926.86,688.9218 928.0506,687.5478"/>
    <polygon points="926.86,630.1334 925.3306,629.1504 923.5862,628.6382 921.7681,628.6382 920.0237,629.1504 918.4943,630.1334 917.3037,631.5073 916.5485,633.1611 916.2898,634.9606 916.5485,636.7602 917.3037,638.4139 918.4943,639.7879 920.0237,640.7708 921.7681,641.283 923.5862,641.283 925.3306,640.7708 926.86,639.7879 928.0506,638.4139 928.8058,636.7602 929.0646,634.9606 928.8058,633.1611 928.0506,631.5073"/>
    <polygon points="920.0237,591.637 921.7681,592.1492 923.5862,592.1492 925.3306,591.637 926.86,590.654 928.0506,589.2801 928.8058,587.6263 929.0646,585.8268 928.8058,584.0272 928.0506,582.3735 926.86,580.9995 925.3306,580.0166 923.5862,579.5044 921.7681,579.5044 920.0237,580.0166 918.4943,580.9995 917.3037,582.3735 916.5485,584.0272 916.2898,585.8268 916.5485,587.6263 917.3037,589.2801 918.4943,590.654"/>
    <polygon points="974.4644,542.5031 975.9939,541.5202 977.1844,540.1462 977.9397,538.4925 978.1984,536.6929 977.9397,534.8934 977.1844,533.2396 975.9939,531.8656 974.4644,530.8827 972.72,530.3705 970.902,530.3705 969.1576,530.8827 967.6282,531.8656 966.4376,533.2396 965.6824,534.8934 965.4236,536.6929 965.6824,538.4925 966.4376,540.1462 967.6282,541.5202 969.1576,542.5031 970.902,543.0153 972.72,543.0153"/>
    <polygon points="1026.3183,441.8785 1027.0735,440.2247 1027.3323,438.4252 1027.0735,436.6257 1026.3183,434.9719 1025.1277,433.5979 1023.5983,432.615 1021.8539,432.1028 1020.0359,432.1028 1018.2915,432.615 1016.762,433.5979 1015.5715,434.9719 1014.8162,436.6257 1014.5575,438.4252 1014.8162,440.2247 1015.5715,441.8785 1016.762,443.2525 1018.2915,444.2354 1020.0359,444.7476 1021.8539,444.7476 1023.5983,444.2354 1025.1277,443.2525"/>
    <polygon points="1167.4374,395.6137 1169.2555,395.6137 1170.9999,395.1015 1172.5293,394.1186 1173.7199,392.7446 1174.4751,391.0909 1174.7339,389.2913 1174.4751,387.4918 1173.7199,385.838 1172.5293,384.4641 1170.9999,383.4812 1169.2555,382.969 1167.4374,382.969 1165.693,383.4812 1164.1636,384.4641 1162.973,385.838 1162.2178,387.4918 1161.9591,389.2913 1162.2178,391.0909 1162.973,392.7446 1164.1636,394.1186 1165.693,395.1015"/>
    <polygon points="1165.693,334.3473 1164.1636,335.3302 1162.973,336.7042 1162.2178,338.3579 1161.9591,340.1575 1162.2178,341.957 1162.973,343.6108 1164.1636,344.9848 1165.693,345.9677 1167.4374,346.4799 1169.2555,346.4799 1170.9999,345.9677 1172.5293,344.9848 1173.7199,343.6108 1174.4751,341.957 1174.7339,340.1575 1174.4751,338.3579 1173.7199,336.7042 1172.5293,335.3302 1170.9999,334.3473 1169.2555,333.8351 1167.4374,333.8351"/>
    <polygon points="1264.8146,383.1627 1263.1609,383.9179 1261.7869,385.1085 1260.804,386.6379 1260.2918,388.3823 1260.2918,390.2004 1260.804,391.9448 1261.7869,393.4742 1263.1609,394.6648 1264.8146,395.42 1266.6142,395.6787 1268.4137,395.42 1270.0675,394.6648 1271.4414,393.4742 1272.4244,391.9448 1272.9366,390.2004 1272.9366,388.3823 1272.4244,386.6379 1271.4414,385.1085 1270.0675,383.9179 1268.4137,383.1627 1266.6142,382.9039"/>
    <polygon points="1315.748,444.8126 1317.5476,444.5539 1319.2013,443.7986 1320.5753,442.6081 1321.5582,441.0786 1322.0704,439.3342 1322.0704,437.5162 1321.5582,435.7718 1320.5753,434.2423 1319.2013,433.0518 1317.5476,432.2965 1315.748,432.0378 1313.9485,432.2965 1312.2947,433.0518 1310.9208,434.2423 1309.9378,435.7718 1309.4256,437.5162 1309.4256,439.3342 1309.9378,441.0786 1310.9208,442.6081 1312.2947,443.7986 1313.9485,444.5539"/>
    <polygon points="1360.0546,483.3762 1359.0717,484.9056 1358.5595,486.65 1358.5595,488.4681 1359.0717,490.2125 1360.0546,491.7419 1361.4286,492.9325 1363.0824,493.6877 1364.8819,493.9465 1366.6814,493.6877 1368.3352,492.9325 1369.7092,491.7419 1370.6921,490.2125 1371.2043,488.4681 1371.2043,486.65 1370.6921,484.9056 1369.7092,483.3762 1368.3352,482.1856 1366.6814,481.4304 1364.8819,481.1717 1363.0824,481.4304 1361.4286,482.1856"/>
    <polygon points="1409.8329,590.654 1411.3623,591.637 1413.1067,592.1492 1414.9248,592.1492 1416.6692,591.637 1418.1986,590.654 1419.3892,589.2801 1420.1444,587.6263 1420.4031,585.8268 1420.1444,584.0272 1419.3892,582.3735 1418.1986,580.9995 1416.6692,580.0166 1414.9248,579.5044 1413.1067,579.5044 1411.3623,580.0166 1409.8329,580.9995 1408.6423,582.3735 1407.8871,584.0272 1407.6283,585.8268 1407.8871,587.6263 1408.6423,589.2801"/>
    <polygon points="1411.3623,640.7708 1413.1067,641.283 1414.9248,641.283 1416.6692,640.7708 1418.1986,639.7879 1419.3892,638.4139 1420.1444,636.7602 1420.4031,634.9606 1420.1444,633.1611 1419.3892,631.5073 1418.1986,630.1334 1416.6692,629.1504 1414.9248,628.6382 1413.1067,628.6382 1411.3623,629.1504 1409.8329,630.1334 1408.6423,631.5073 1407.8871,633.1611 1407.6283,634.9606 1407.8871,636.7602 1408.6423,638.4139 1409.8329,639.7879"/>
    <polygon points="1363.9729,726.906 1362.2285,727.4182 1360.699,728.4011 1359.5085,729.7751 1358.7532,731.4288 1358.4945,733.2283 1358.7532,735.0279 1359.5085,736.6816 1360.699,738.0556 1362.2285,739.0385 1363.9729,739.5507 1365.7909,739.5507 1367.5353,739.0385 1369.0647,738.0556 1370.2553,736.6816 1371.0106,735.0279 1371.2693,733.2283 1371.0106,731.4288 1370.2553,729.7751 1369.0647,728.4011 1367.5353,727.4182 1365.7909,726.906"/>
    <polygon points="1457.3394,785.0156 1458.3223,786.5451 1459.6963,787.7356 1461.3501,788.4909 1463.1496,788.7496 1464.9491,788.4909 1466.6029,787.7356 1467.9769,786.5451 1468.9598,785.0156 1469.472,783.2712 1469.472,781.4532 1468.9598,779.7088 1467.9769,778.1793 1466.6029,776.9888 1464.9491,776.2335 1463.1496,775.9748 1461.3501,776.2335 1459.6963,776.9888 1458.3223,778.1793 1457.3394,779.7088 1456.8272,781.4532 1456.8272,783.2712"/>
    <polygon points="1261.7869,639.1435 1263.1609,640.3341 1264.8146,641.0893 1266.6142,641.348 1268.4137,641.0893 1270.0675,640.3341 1271.4414,639.1435 1272.4244,637.6141 1272.9366,635.8697 1272.9366,634.0516 1272.4244,632.3072 1271.4414,630.7778 1270.0675,629.5872 1268.4137,628.832 1266.6142,628.5732 1264.8146,628.832 1263.1609,629.5872 1261.7869,630.7778 1260.804,632.3072 1260.2918,634.0516 1260.2918,635.8697 1260.804,637.6141"/>
    <polygon points="1125.3413,633.1611 1124.586,631.5073 1123.3955,630.1334 1121.866,629.1504 1120.1216,628.6382 1118.3036,628.6382 1116.5592,629.1504 1115.0297,630.1334 1113.8392,631.5073 1113.0839,633.1611 1112.8252,634.9606 1113.0839,636.7602 1113.8392,638.4139 1115.0297,639.7879 1116.5592,640.7708 1118.3036,641.283 1120.1216,641.283 1121.866,640.7708 1123.3955,639.7879 1124.586,638.4139 1125.3413,636.7602 1125.6,634.9606"/>
    <polygon points="1174.4751,489.3586 1174.7339,487.5591 1174.4751,485.7595 1173.7199,484.1058 1172.5293,482.7318 1170.9999,481.7489 1169.2555,481.2367 1167.4374,481.2367 1165.693,481.7489 1164.1636,482.7318 1162.973,484.1058 1162.2178,485.7595 1161.9591,487.5591 1162.2178,489.3586 1162.973,491.0123 1164.1636,492.3863 1165.693,493.3692 1167.4374,493.8814 1169.2555,493.8814 1170.9999,493.3692 1172.5293,492.3863 1173.7199,491.0123"/>
    <polygon points="976.6383,737.4112 977.6212,735.8818 978.1334,734.1374 978.1334,732.3193 977.6212,730.5749 976.6383,729.0455 975.2643,727.8549 973.6106,727.0997 971.811,726.8409 970.0115,727.0997 968.3577,727.8549 966.9837,729.0455 966.0008,730.5749 965.4886,732.3193 965.4886,734.1374 966.0008,735.8818 966.9837,737.4112 968.3577,738.6018 970.0115,739.357 971.811,739.6157 973.6106,739.357 975.2643,738.6018"/>
    <polygon points="929.0646,782.3622 928.8058,780.5627 928.0506,778.9089 926.86,777.5349 925.3306,776.552 923.5862,776.0398 921.7681,776.0398 920.0237,776.552 918.4943,777.5349 917.3037,778.9089 916.5485,780.5627 916.2898,782.3622 916.5485,784.1617 917.3037,785.8155 918.4943,787.1895 920.0237,788.1724 921.7681,788.6846 923.5862,788.6846 925.3306,788.1724 926.86,787.1895 928.0506,785.8155 928.8058,784.1617"/>
    <polygon points="679.6613,444.2354 681.1907,443.2525 682.3813,441.8785 683.1365,440.2247 683.3953,438.4252 683.1365,436.6257 682.3813,434.9719 681.1907,433.5979 679.6613,432.615 677.9169,432.1028 676.0989,432.1028 674.3545,432.615 672.825,433.5979 671.6344,434.9719 670.8792,436.6257 670.6205,438.4252 670.8792,440.2247 671.6344,441.8785 672.825,443.2525 674.3545,444.2354 676.0989,444.7476 677.9169,444.7476"/>
    <polygon points="731.5152,392.7446 732.2704,391.0909 732.5291,389.2913 732.2704,387.4918 731.5152,385.838 730.3246,384.4641 728.7952,383.4812 727.0508,382.969 725.2327,382.969 723.4883,383.4812 721.9589,384.4641 720.7683,385.838 720.0131,387.4918 719.7543,389.2913 720.0131,391.0909 720.7683,392.7446 721.9589,394.1186 723.4883,395.1015 725.2327,395.6137 727.0508,395.6137 728.7952,395.1015 730.3246,394.1186"/>
    <polygon points="477.819,481.7489 476.2896,482.7318 475.099,484.1058 474.3438,485.7595 474.085,487.5591 474.3438,489.3586 475.099,491.0123 476.2896,492.3863 477.819,493.3692 479.5634,493.8814 481.3815,493.8814 483.1259,493.3692 484.6553,492.3863 485.8459,491.0123 486.6011,489.3586 486.8598,487.5591 486.6011,485.7595 485.8459,484.1058 484.6553,482.7318 483.1259,481.7489 481.3815,481.2367 479.5634,481.2367"/>
    <polygon points="425.2099,534.8934 424.9512,536.6929 425.2099,538.4925 425.9652,540.1462 427.1557,541.5202 428.6852,542.5031 430.4296,543.0153 432.2476,543.0153 433.992,542.5031 435.5214,541.5202 436.712,540.1462 437.4672,538.4925 437.726,536.6929 437.4672,534.8934 436.712,533.2396 435.5214,531.8656 433.992,530.8827 432.2476,530.3705 430.4296,530.3705 428.6852,530.8827 427.1557,531.8656 425.9652,533.2396"/>
    <polygon points="436.712,582.3735 435.5214,580.9995 433.992,580.0166 432.2476,579.5044 430.4296,579.5044 428.6852,580.0166 427.1557,580.9995 425.9652,582.3735 425.2099,584.0272 424.9512,585.8268 425.2099,587.6263 425.9652,589.2801 427.1557,590.654 428.6852,591.637 430.4296,592.1492 432.2476,592.1492 433.992,591.637 435.5214,590.654 436.712,589.2801 437.4672,587.6263 437.726,585.8268 437.4672,584.0272"/>
    <polygon points="375.8173,585.8268 376.0761,587.6263 376.8313,589.2801 378.0219,590.654 379.5513,591.637 381.2957,592.1492 383.1137,592.1492 384.8581,591.637 386.3876,590.654 387.5781,589.2801 388.3334,587.6263 388.5921,585.8268 388.3334,584.0272 387.5781,582.3735 386.3876,580.9995 384.8581,580.0166 383.1137,579.5044 381.2957,579.5044 379.5513,580.0166 378.0219,580.9995 376.8313,582.3735 376.0761,584.0272"/>
    <polygon points="433.992,689.9047 435.5214,688.9218 436.712,687.5478 437.4672,685.894 437.726,684.0945 437.4672,682.2949 436.712,680.6412 435.5214,679.2672 433.992,678.2843 432.2476,677.7721 430.4296,677.7721 428.6852,678.2843 427.1557,679.2672 425.9652,680.6412 425.2099,682.2949 424.9512,684.0945 425.2099,685.894 425.9652,687.5478 427.1557,688.9218 428.6852,689.9047 430.4296,690.4169 432.2476,690.4169"/>
    <polygon points="238.986,679.2672 237.4566,678.2843 235.7122,677.7721 233.8941,677.7721 232.1497,678.2843 230.6203,679.2672 229.4297,680.6412 228.6745,682.2949 228.4157,684.0945 228.6745,685.894 229.4297,687.5478 230.6203,688.9218 232.1497,689.9047 233.8941,690.4169 235.7122,690.4169 237.4566,689.9047 238.986,688.9218 240.1766,687.5478 240.9318,685.894 241.1906,684.0945 240.9318,682.2949 240.1766,680.6412"/>
    <polygon points="179.2819,634.9606 179.5406,636.7602 180.2959,638.4139 181.4864,639.7879 183.0159,640.7708 184.7603,641.283 186.5783,641.283 188.3227,640.7708 189.8521,639.7879 191.0427,638.4139 191.798,636.7602 192.0567,634.9606 191.798,633.1611 191.0427,631.5073 189.8521,630.1334 188.3227,629.1504 186.5783,628.6382 184.7603,628.6382 183.0159,629.1504 181.4864,630.1334 180.2959,631.5073 179.5406,633.1611"/>
    <polygon points="141.9089,680.6412 140.7183,679.2672 139.1889,678.2843 137.4445,677.7721 135.6264,677.7721 133.882,678.2843 132.3526,679.2672 131.162,680.6412 130.4068,682.2949 130.148,684.0945 130.4068,685.894 131.162,687.5478 132.3526,688.9218 133.882,689.9047 135.6264,690.4169 137.4445,690.4169 139.1889,689.9047 140.7183,688.9218 141.9089,687.5478 142.6641,685.894 142.9228,684.0945 142.6641,682.2949"/>
    <polygon points="229.4297,491.0123 230.6203,492.3863 232.1497,493.3692 233.8941,493.8814 235.7122,493.8814 237.4566,493.3692 238.986,492.3863 240.1766,491.0123 240.9318,489.3586 241.1906,487.5591 240.9318,485.7595 240.1766,484.1058 238.986,482.7318 237.4566,481.7489 235.7122,481.2367 233.8941,481.2367 232.1497,481.7489 230.6203,482.7318 229.4297,484.1058 228.6745,485.7595 228.4157,487.5591 228.6745,489.3586"/>
  </g>
  <g fill="none" id="layer2" inkscape:groupmode="layer" inkscape:label="2" stroke="#008800" style="display:inline">
    <polyline points="1512.2835,831.4961 1475.4331,831.4961 1471.9724,830.9985 1468.7921,829.5461 1467.3891,828.4958 1466.1498,827.2566 1464.2596,824.3153 1463.2746,820.9607 1463.1496,788.7496"/>
    <line x1="1512.2835" x2="1512.2835" y1="819.2126" y2="843.7795"/>
  </g>
  <g fill="none" id="layer3" inkscape:groupmode="layer" inkscape:label="3" stroke="#ff0000" style="display:inline">
    <polyline points="1161.9591,340.1575 1127.636,340.2201 1124.1665,340.7189 1120.8033,341.7064 1116.1067,344.0574 1112.0171,347.353 1025.4615,433.9086"/>
    <polyline points="1016.4283,442.9418 979.0065,480.3636 976.7111,483.0126 974.8161,485.9613 972.8062,490.8137 971.8736,495.9824 971.811,530.3055"/>
    <polyline points="971.811,543.0803 971.686,575.2914 971.3135,577.004 969.8611,580.1842 967.5715,582.8265 964.6303,584.7167 961.2757,585.7017 929.0646,585.8268"/>
    <polyline points="916.2898,585.8268 881.9667,585.8894 878.4972,586.3882 875.134,587.3757 870.4374,589.7267 866.3478,593.0223 781.1876,678.094 778.3815,680.1946 775.3051,681.8744 772.0209,683.0994 768.5959,683.8444 765.0996,684.0945 689.2913,684.0945 685.8307,683.5969 682.6504,682.1445 681.2474,681.0942 678.9578,678.452 677.5054,675.2717 677.0079,671.811 676.8828,645.496 676.5103,643.7834 675.0579,640.6032 672.7684,637.9609 669.8271,636.0707 666.4725,635.0857 634.2614,634.9606"/>
    <line x1="621.4866" x2="578.7402" y1="634.9606" y2="634.9606"/>
    <line x1="578.7402" x2="578.7402" y1="647.2441" y2="622.6772"/>
    <polyline points="1174.7339,340.1575 1209.0569,340.2201 1214.2257,341.1526 1219.078,343.1625 1222.0268,345.0576 1224.6758,347.353 1262.0976,384.7748"/>
    <line x1="1271.1307" x2="1311.2315" y1="393.8079" y2="433.9086"/>
    <line x1="1320.2646" x2="1360.3653" y1="442.9418" y2="483.0425"/>
    <polyline points="1369.3985,492.0756 1406.8203,529.4974 1409.1157,532.1465 1411.0107,535.0952 1413.0206,539.9476 1413.9532,545.1163 1414.0157,579.4394"/>
    <line x1="1414.0157" x2="1414.0157" y1="592.2142" y2="628.5732"/>
    <polyline points="1414.0157,641.348 1413.9532,675.6711 1413.0206,680.8398 1411.0107,685.6922 1409.1157,688.6409 1406.8203,691.29 1369.3985,728.7118"/>
    <polyline points="1360.3653,737.7449 1322.9435,775.1667 1320.6481,777.8157 1317.9681,782.3327 1316.7432,785.6169 1315.8106,790.7856 1315.748,831.4961"/>
    <line x1="1328.0315" x2="1303.4646" y1="831.4961" y2="831.4961"/>
  </g>
  <g fill="none" id="layer4" inkscape:groupmode="layer" inkscape:label="4" stroke="#00cccc" style="display:inline">
    <line x1="922.6772" x2="922.6772" y1="536.6929" y2="579.4394"/>
    <line x1="910.3937" x2="934.9606" y1="536.6929" y2="536.6929"/>
    <line x1="922.6772" x2="922.6772" y1="592.2142" y2="628.5732"/>
    <line x1="922.6772" x2="922.6772" y1="641.348" y2="677.7071"/>
    <line x1="922.6772" x2="922.6772" y1="690.4819" y2="726.8409"/>
    <line x1="922.6772" x2="922.6772" y1="739.6157" y2="775.9748"/>
    <line x1="922.6772" x2="922.6772" y1="788.7496" y2="831.4961"/>
    <line x1="934.9606" x2="910.3937" y1="831.4961" y2="831.4961"/>
  </g>
  <g fill="none" id="layer5" inkscape:groupmode="layer" inkscape:label="5" stroke="#00ff00" style="display:inline">
    <polyline points="916.2898,684.0945 881.9667,684.1571 876.798,685.0896 871.9456,687.0995 868.9969,688.9946 866.3478,691.29 828.926,728.7118"/>
    <polyline points="819.8929,737.7449 782.4711,775.1667 779.1755,779.2563 777.4957,782.3327 776.2707,785.6169 775.3382,790.7856 775.2756,831.4961"/>
    <line x1="787.5591" x2="762.9921" y1="831.4961" y2="831.4961"/>
    <line x1="929.0646" x2="971.811" y1="684.0945" y2="684.0945"/>
    <line x1="971.811" x2="971.811" y1="671.811" y2="696.378"/>
  </g>
  <g fill="none" id="layer6" inkscape:groupmode="layer" inkscape:label="6" stroke="#cc00cc" style="display:inline">
    <line x1="677.0079" x2="677.0079" y1="775.9748" y2="739.6157"/>
    <line x1="677.0079" x2="677.0079" y1="788.7496" y2="831.4961"/>
    <line x1="689.2913" x2="664.7244" y1="831.4961" y2="831.4961"/>
  </g>
  <g fill="none" id="layer7" inkscape:groupmode="layer" inkscape:label="7" stroke="#cccc00" style="display:inline">
    <line x1="578.7402" x2="578.7402" y1="775.9748" y2="739.6157"/>
    <line x1="578.7402" x2="578.7402" y1="788.7496" y2="831.4961"/>
    <line x1="566.4567" x2="591.0236" y1="831.4961" y2="831.4961"/>
  </g>
  <g fill="none" id="layer8" inkscape:groupmode="layer" inkscape:label="8" stroke="#000000" style="display:inline">
    <polyline points="730.6583,384.7748 768.0801,347.353 771.3757,343.2634 773.7266,338.5668 774.7142,335.2036 775.213,331.7341 775.1506,301.559 774.778,299.8464 773.3256,296.6661 771.0361,294.0239 768.0949,292.1337 764.7402,291.1487 762.9921,291.0236 687.1838,291.0236 683.6876,291.2737 680.2625,292.0188 675.4102,294.0287 671.0959,297.0241 632.3906,335.6409"/>
    <line x1="623.3574" x2="583.2567" y1="344.6741" y2="384.7748"/>
    <line x1="574.2236" x2="484.989" y1="393.8079" y2="483.0425"/>
    <line x1="475.9559" x2="435.8552" y1="492.0756" y2="532.1763"/>
    <line x1="426.822" x2="386.7213" y1="541.2095" y2="581.3102"/>
    <polyline points="377.6881,590.3433 291.1325,676.899 287.0429,680.1946 282.3463,682.5455 278.9831,683.5331 275.5136,684.0319 241.1906,684.0945"/>
    <polyline points="228.4157,684.0945 196.2046,683.9695 192.85,682.9845 189.9088,681.0942 187.6192,678.452 186.7793,676.9138 185.7943,673.5591 185.6693,641.348"/>
    <line x1="185.6693" x2="185.6693" y1="628.5732" y2="585.8268"/>
    <line x1="173.3858" x2="197.9528" y1="585.8268" y2="585.8268"/>
    <polyline points="426.822,688.6111 389.4002,726.0329 386.7512,728.3283 383.8024,730.2233 378.9501,732.2332 373.7814,733.1658 343.6062,733.3534 341.8937,733.7259 338.7134,735.1783 337.3104,736.2286 335.0208,738.8709 333.5684,742.0512 333.0709,745.5118 333.0709,819.2126 333.5684,822.6733 335.0208,825.8535 336.0711,827.2566 338.7134,829.5461 341.8937,830.9985 345.3543,831.4961 369.9213,831.4961 371.6694,831.371 375.024,830.386 376.5622,829.5461 379.2045,827.2566 381.0947,824.3153 382.0797,820.9607 382.2047,792.5382 382.4548,789.0419 383.7537,783.9529 385.2098,780.7645 387.1048,777.8157 389.4002,775.1667 525.0897,639.4772"/>
    <line x1="534.1229" x2="578.7402" y1="630.4441" y2="585.8268"/>
    <line x1="587.4259" x2="570.0544" y1="594.5125" y2="577.1411"/>
    <line x1="574.2236" x2="435.8552" y1="541.2095" y2="679.5779"/>
    <line x1="583.2567" x2="623.3574" y1="532.1763" y2="492.0756"/>
    <line x1="632.3906" x2="672.4913" y1="483.0425" y2="442.9418"/>
    <line x1="681.5244" x2="721.6252" y1="433.9086" y2="393.8079"/>
  </g>
  <g fill="none" id="layer9" inkscape:groupmode="layer" inkscape:label="9" stroke="#0000ff" style="display:inline">
    <polyline points="1456.7622,782.3622 1422.4391,782.2996 1417.2704,781.3671 1412.418,779.3572 1409.4693,777.4621 1406.8203,775.1667 1369.3985,737.7449"/>
    <line x1="1469.537" x2="1512.2835" y1="782.3622" y2="782.3622"/>
    <line x1="1512.2835" x2="1512.2835" y1="770.0787" y2="794.6457"/>
  </g>
  <g fill="none" id="layer10" inkscape:groupmode="layer" inkscape:label="10" stroke="#008800" style="display:inline">
    <polyline points="1119.2126,782.3622 1161.151,740.4238 1163.8,738.1284 1166.7487,736.2334 1171.6011,734.2235 1176.7698,733.2909 1207.3044,733.2283 1210.8006,732.9783 1214.2257,732.2332 1217.5098,731.0083 1220.5862,729.3284 1224.6758,726.0329 1259.4187,691.29 1261.7141,688.6409 1264.3941,684.124 1265.619,680.8398 1266.5516,675.6711 1266.6142,641.348"/>
    <line x1="1127.8983" x2="1110.5269" y1="791.0479" y2="773.6765"/>
  </g>
  <g fill="none" id="layer11" inkscape:groupmode="layer" inkscape:label="11" stroke="#ff0000" style="display:inline">
    <polyline points="929.0646,782.3622 961.2757,782.2372 964.6303,781.2522 967.5715,779.362 969.8611,776.7197 971.3135,773.5394 971.686,771.8269 971.811,739.6157"/>
  </g>
  <g fill="none" id="layer12" inkscape:groupmode="layer" inkscape:label="12" stroke="#00cccc" style="display:inline">
    <polyline points="523.2189,733.2283 492.7559,733.2283 489.2953,733.7259 486.115,735.1783 484.7119,736.2286 482.4224,738.8709 480.97,742.0512 480.4724,745.5118 480.5975,771.8269 480.97,773.5394 482.4224,776.7197 484.7119,779.362 487.6532,781.2522 491.0078,782.2372 523.2189,782.3622"/>
    <line x1="535.9937" x2="572.3528" y1="782.3622" y2="782.3622"/>
    <line x1="572.3528" x2="535.9937" y1="733.2283" y2="733.2283"/>
    <line x1="585.1276" x2="621.4866" y1="733.2283" y2="733.2283"/>
    <line x1="634.2614" x2="670.6205" y1="733.2283" y2="733.2283"/>
    <line x1="683.3953" x2="726.1417" y1="733.2283" y2="733.2283"/>
    <line x1="726.1417" x2="726.1417" y1="720.9449" y2="745.5118"/>
  </g>
  <g fill="none" id="layer13" inkscape:groupmode="layer" inkscape:label="13" stroke="#00ff00" style="display:inline">
    <polyline points="578.7402,291.0236 538.0297,291.0862 532.861,292.0188 529.5768,293.2437 526.5004,294.9235 522.4108,298.2191 437.2505,383.2909 434.4445,385.3914 431.3681,387.0713 428.0839,388.2962 424.6589,389.0413 421.1626,389.2913 390.6281,389.2287 387.1586,388.7299 382.1752,387.0713 377.6583,384.3912 375.0092,382.0959 338.9828,346.158 336.1768,344.0574 333.1004,342.3775 328.117,340.7189 322.8949,340.1575 247.0866,340.1575 243.626,340.655 240.4457,342.1074 237.8034,344.397 235.9132,347.3382 234.9282,350.6928 234.8031,352.4409 234.9282,378.756 235.9132,382.1106 237.8034,385.0518 239.0427,386.2911 241.9839,388.1813 245.3385,389.1663 247.0866,389.2913 320.7874,389.2913 322.5355,389.4164 325.8901,390.4014 327.4283,391.2413 330.0706,393.5308 331.9608,396.4721 332.9458,399.8267 333.0709,426.1417 332.5733,429.6024 331.1209,432.7827 330.0706,434.1857 327.4283,436.4752 324.2481,437.9276 320.7874,438.4252 292.3604,438.4878 287.1917,439.4203 283.9075,440.6453 280.8311,442.3251 276.7415,445.6207 239.3197,483.0425"/>
    <polyline points="230.2866,492.0756 143.7309,578.6313 141.4355,581.2803 139.5405,584.2291 138.0844,587.4175 137.0969,590.7807 136.5354,596.0027 136.5354,677.7071"/>
    <polyline points="136.5354,690.4819 136.4728,724.805 135.5403,729.9737 133.5304,734.8261 131.6353,737.7748 129.3399,740.4238 87.4016,782.3622"/>
    <line x1="96.0873" x2="78.7159" y1="791.0479" y2="773.6765"/>
    <line x1="578.7402" x2="578.7402" y1="303.3071" y2="278.7402"/>
  </g>
  <g fill="none" id="layer14" inkscape:groupmode="layer" inkscape:label="14" stroke="#cc00cc" style="display:inline">
    <line x1="1168.3465" x2="1168.3465" y1="291.0236" y2="333.7701"/>
    <line x1="1168.3465" x2="1168.3465" y1="346.5449" y2="382.9039"/>
    <line x1="1168.3465" x2="1168.3465" y1="395.6787" y2="481.1717"/>
    <polyline points="1168.3465,493.9465 1168.3465,575.6508 1168.0964,579.1471 1167.3513,582.5721 1165.3414,587.4245 1162.346,591.7387 1123.7292,630.4441"/>
    <polyline points="1114.696,639.4772 1028.1404,726.0329 1024.0508,729.3284 1019.3542,731.6794 1015.991,732.6669 1012.5215,733.1658 978.1984,733.2283"/>
    <line x1="965.4236" x2="929.0646" y1="733.2283" y2="733.2283"/>
    <line x1="916.2898" x2="873.5433" y1="733.2283" y2="733.2283"/>
    <line x1="873.5433" x2="873.5433" y1="745.5118" y2="720.9449"/>
    <line x1="1156.063" x2="1180.6299" y1="291.0236" y2="291.0236"/>
  </g>
  <g fill="none" id="layer15" inkscape:groupmode="layer" inkscape:label="15" stroke="#cccc00" style="display:inline">
    <line x1="529.6063" x2="435.8552" y1="487.5591" y2="581.3102"/>
    <polyline points="426.822,590.3433 291.1325,726.0329 288.4835,728.3283 285.5347,730.2233 280.6824,732.2332 277.2573,732.9783 273.7611,733.2283 245.3385,733.1033 241.9839,732.1183 239.0427,730.2281 237.8034,728.9888 235.9132,726.0476 234.9282,722.693 234.8031,690.4819"/>
    <polyline points="234.8031,677.7071 234.6781,645.496 233.6931,642.1414 232.8532,640.6032 230.5636,637.9609 227.6224,636.0707 224.2678,635.0857 192.0567,634.9606"/>
    <line x1="520.9206" x2="538.292" y1="478.8733" y2="496.2448"/>
  </g>
  <g fill="none" id="layer16" inkscape:groupmode="layer" inkscape:label="16" stroke="#000000" style="display:inline">
    <polyline points="1512.2835,438.4252 1424.5511,438.5502 1421.1965,439.5352 1419.6583,440.3752 1417.016,442.6647 1415.1258,445.6059 1414.5133,447.248 1414.0157,450.7087 1414.0783,479.1357 1415.0109,484.3044 1417.0208,489.1568 1418.9158,492.1055 1421.2112,494.7545 1455.9541,529.4974 1460.0437,532.793 1463.1201,534.4728 1466.4043,535.6978 1469.8293,536.4429 1473.3256,536.6929 1500.0,536.6929 1503.4607,537.1905 1506.6409,538.6429 1508.044,539.6932 1509.2832,540.9324 1511.1734,543.8736 1511.7859,545.5157 1512.2835,548.9764 1512.2835,575.6508 1512.0334,579.1471 1510.7345,584.2361 1509.2784,587.4245 1506.283,591.7387 1470.3451,627.7651 1468.0497,630.4142 1466.1547,633.3629 1464.1447,638.2153 1463.2122,643.384 1463.1496,671.811 1463.6472,675.2717 1464.2596,676.9138 1466.1498,679.855 1468.7921,682.1445 1471.9724,683.5969 1475.4331,684.0945 1512.2835,684.0945"/>
    <line x1="1512.2835" x2="1512.2835" y1="671.811" y2="696.378"/>
    <line x1="1512.2835" x2="1512.2835" y1="450.7087" y2="426.1417"/>
  </g>
  <g fill="none" id="layer17" inkscape:groupmode="layer" inkscape:label="17" stroke="#0000ff" style="display:inline">
    <line x1="1168.3465" x2="1260.2268" y1="634.9606" y2="634.9606"/>
    <polyline points="1273.0016,634.9606 1307.3247,635.0232 1312.4934,635.9558 1317.3458,637.9657 1320.2945,639.8607 1322.9435,642.1561 1364.8819,684.0945"/>
    <line x1="1356.1962" x2="1373.5676" y1="692.7802" y2="675.4088"/>
    <line x1="1168.3465" x2="1168.3465" y1="647.2441" y2="622.6772"/>
  </g>
  <g fill="none" id="layer18" inkscape:groupmode="layer" inkscape:label="18" stroke="#008800" style="display:inline">
    <polyline points="87.4016,291.0236 87.4642,331.7341 88.3967,336.9028 89.6216,340.187 91.3015,343.2634 94.5971,347.353 129.3399,382.0959 131.6353,384.7449 133.5304,387.6936 134.9865,390.882 135.974,394.2452 136.5354,399.4673 136.4728,430.0018 135.5403,435.1705 133.5304,440.0229 131.6353,442.9717 129.3399,445.6207 93.4021,481.6471 90.4066,485.9613 88.3967,490.8137 87.6516,494.2388 87.4016,497.735 87.4016,585.8268"/>
    <line x1="99.685" x2="75.1181" y1="585.8268" y2="585.8268"/>
    <line x1="75.1181" x2="99.685" y1="291.0236" y2="291.0236"/>
  </g>
  <g fill="none" id="layer19" inkscape:groupmode="layer" inkscape:label="19" stroke="#ff0000" style="display:inline">
    <line x1="627.874" x2="583.2567" y1="438.4252" y2="393.8079"/>
    <line x1="636.5597" x2="619.1883" y1="429.7395" y2="447.1109"/>
  </g>
  <g fill="none" id="layer20" inkscape:groupmode="layer" inkscape:label="20" stroke="#00cccc" style="display:inline">
    <polyline points="873.5433,389.2913 961.6351,389.2913 965.1313,389.5414 968.5564,390.2865 973.4087,392.2964 977.723,395.2918 1016.4283,433.9086"/>
    <line x1="873.5433" x2="873.5433" y1="401.5748" y2="377.0079"/>
  </g>
</svg>
