<?xml version="1.0" encoding="utf-8" ?>
<svg xmlns="http://www.w3.org/2000/svg" xmlns:cc="http://creativecommons.org/ns" xmlns:dc="http://purl.org/dc/elements/1.1/" xmlns:ev="http://www.w3.org/2001/xml-events" xmlns:inkscape="http://www.inkscape.org/namespaces/inkscape" xmlns:rdf="http://www.w3.org/1999/02/22-rdf-syntax-ns" xmlns:sodipodi="http://sodipodi.sourceforge.net/DTD/sodipodi-0.dtd" xmlns:xlink="http://www.w3.org/1999/xlink" baseProfile="tiny" height="21.0cm" version="1.2" viewBox="0 0 1122.5196850393702 793.7007874015749" width="29.7cm">
  <metadata>
    <rdf:RDF>
      <cc:Work>
        <dc:format>image/svg+xml</dc:format>
        <dc:source>Vsketch with params {'__seed__': 311308318, 'debug_grid': False, 'debug_tile_indices': False, 'debug_cell_indices': False, 'debug_valid_dirs': False, 'debug_tiles_order': False, 'debug_print': False, 'n_rows': 10, 'n_cols': 18, 'tile_size': 1.0, 'width': 0.1, 'radius_circles': 0.15, 'radius_turns': 0.5, 'connected_edge': True, 'tileset': 'metro', 'use_custom_init': True}</dc:source>
        <dc:date>2025-02-02T14:09:50.482746</dc:date>
      </cc:Work>
    </rdf:RDF>
  </metadata>
  <defs/>
  <g fill="none" id="layer1" inkscape:groupmode="layer" inkscape:label="1" stroke="#0000ff" style="display:inline">
    <polyline points="418.5827,224.8819 282.5197,224.8819 279.8576,225.2646 277.4113,226.3819 275.3787,228.143 273.9247,230.4055 273.167,232.986 273.0709,234.3307 273.0709,368.2353 272.639,372.2523 271.8794,374.8394 270.7593,377.292 268.4551,380.6107 240.8106,408.3233 239.0449,410.361 237.5872,412.6293 236.0411,416.3618 235.3237,420.3378 235.2756,442.2047 235.3718,443.5494 236.1295,446.1299 237.5835,448.3924 238.5367,449.3457 240.7992,450.7997 243.3797,451.5574 301.4173,451.6535 304.0794,452.0363 305.3425,452.5074 307.605,453.9614 308.5583,454.9147 310.0123,457.1772 310.77,459.7577 310.8661,461.1024 310.77,481.3447 310.0123,483.9252 308.5583,486.1877 307.605,487.1409 305.3425,488.5949 302.762,489.3526 278.7402,489.4488"/>
    <polygon points="273.7814,495.0734 276.4032,494.0354 277.4391,493.0626 278.6397,490.5111 278.729,489.0928 277.8576,486.4111 276.9518,485.3161 274.4808,483.9576 273.0709,483.7795 271.661,483.9576 269.19,485.3161 268.2841,486.4111 267.4128,489.0928 267.9411,491.8627 269.7385,494.0354 272.3603,495.0734"/>
    <polyline points="267.4016,489.4488 243.3797,489.545 240.7992,490.3027 238.5367,491.7567 237.5835,492.71 236.1295,494.9725 235.3718,497.5529 235.4679,522.1059 236.0411,524.7405 236.9833,527.2668 238.2755,529.6333 240.8106,532.7791 268.5232,560.4236 270.6817,562.0394 273.0482,563.3316 275.5744,564.2739 278.2091,564.847 302.762,564.9432 305.3425,564.1855 307.605,562.7315 309.3662,560.699 310.0123,559.5157 310.77,556.9353 310.8661,536.6929 311.2489,534.0309 312.3661,531.5845 314.1273,529.552 316.3898,528.098 318.9703,527.3403 340.5573,527.3403 343.1378,528.098 344.321,528.7441 346.3535,530.5053 347.8075,532.7677 348.5652,535.3482 348.6614,555.5906 349.0442,558.2526 349.5153,559.5157 350.9693,561.7782 351.9226,562.7315 354.1851,564.1855 356.7655,564.9432 358.1102,565.0394 416.4243,565.0394 419.1137,564.847 423.0284,563.8479 425.481,562.7278 427.7492,561.2701 456.5123,532.7791 458.55,531.0134 462.0245,528.9518 464.5508,528.0096 468.5268,527.2922 494.1732,527.2441 494.8745,529.9753 495.7098,531.125 496.8048,532.0308 499.4865,532.9022 502.2564,532.3738 503.4563,531.6124 505.1137,529.3311 505.4671,527.9546 505.4671,526.5335 504.4291,523.9118 502.2564,522.1144 499.4865,521.586 496.8048,522.4574 495.7098,523.3632 494.8745,524.5129 494.1732,527.2441"/>
    <polyline points="499.8425,521.5748 499.9387,497.5529 500.6964,494.9725 502.1504,492.71 503.1037,491.7567 505.3662,490.3027 507.9466,489.545 528.189,489.4488 530.851,489.0661 532.1142,488.5949 534.3766,487.1409 536.1378,485.1084 537.2551,482.662 537.6378,480.0 537.6378,423.3071 537.5416,421.9624 536.7839,419.3819 535.3299,417.1194 533.2974,415.3582 530.851,414.241 529.5337,413.9544 504.9808,413.6659 501.0661,412.6668 498.6135,411.5467 496.3452,410.089 429.787,343.8027 427.7492,342.037 424.2747,339.9755 420.4413,338.6996 416.4243,338.2677 354.3307,338.2677 354.1526,339.6776 352.7942,342.1486 351.6992,343.0545 349.0174,343.9258 346.2476,343.3974 344.0749,341.6 343.3902,340.3547 343.0368,337.5572 344.0749,334.9354 345.0477,333.8995 346.2476,333.138 349.0174,332.6096 350.4133,332.8759 352.7942,334.3868 354.1526,336.8578 354.3307,338.2677"/>
    <line x1="348.6614" x2="348.6614" y1="343.937" y2="370.3937"/>
    <polygon points="345.0477,371.6947 343.3902,373.976 343.0368,375.3524 343.3902,378.15 344.0749,379.3953 345.0477,380.4313 347.5991,381.6319 350.4133,381.4548 352.7942,379.9439 354.1526,377.4729 354.3307,376.063 354.1526,374.6531 352.7942,372.1821 350.4133,370.6712 349.0174,370.4049 347.5991,370.4941"/>
    <polyline points="348.6614,381.7323 348.6614,408.189 347.2515,408.3671 344.7805,409.7255 343.2696,412.1064 343.0033,413.5023 343.0925,414.9206 344.2932,417.472 346.5744,419.1294 347.9509,419.4829 350.7484,419.1294 351.9937,418.4448 353.7911,416.2721 354.2303,414.9206 354.0532,412.1064 353.4482,410.8205 351.3926,408.8902 348.6614,408.189"/>
    <line x1="354.3307" x2="380.7874" y1="413.8583" y2="413.8583"/>
    <polygon points="387.1672,419.4829 388.5437,419.1294 390.825,417.472 392.0256,414.9206 392.1148,413.5023 391.8485,412.1064 390.3376,409.7255 387.8666,408.3671 386.4567,408.189 383.7255,408.8902 381.67,410.8205 381.0649,412.1064 380.8878,414.9206 381.327,416.2721 383.1244,418.4448 384.3697,419.1294"/>
    <line x1="392.126" x2="418.5827" y1="413.8583" y2="413.8583"/>
    <polygon points="418.5939,413.5023 418.6831,414.9206 419.8837,417.472 422.165,419.1294 423.5414,419.4829 426.339,419.1294 427.5843,418.4448 429.3817,416.2721 429.8208,414.9206 429.6438,412.1064 429.0387,410.8205 426.9832,408.8902 424.252,408.189 422.8421,408.3671 420.3711,409.7255 418.8602,412.1064"/>
    <line x1="429.9213" x2="462.0472" y1="413.8583" y2="413.8583"/>
    <line x1="462.0472" x2="462.0472" y1="404.4094" y2="423.3071"/>
    <line x1="348.6614" x2="348.6614" y1="442.2047" y2="461.1024"/>
    <polyline points="348.6614,451.6535 378.3526,451.7497 380.9331,452.5074 383.1955,453.9614 384.9567,455.9939 385.6028,457.1772 386.3605,459.7577 386.4567,461.1024 386.4567,527.2441"/>
    <line x1="395.9055" x2="377.0079" y1="527.2441" y2="527.2441"/>
    <polyline points="342.9921,413.8583 318.9703,413.7621 317.6529,413.4755 315.2065,412.3583 313.174,410.5971 311.72,408.3346 310.9623,405.7542 310.8661,381.7323"/>
    <polygon points="314.9989,372.1821 312.618,370.6712 311.2221,370.4049 309.8038,370.4941 307.2524,371.6947 305.595,373.976 305.2416,375.3524 305.595,378.15 306.2796,379.3953 307.2524,380.4313 309.8038,381.6319 312.618,381.4548 314.9989,379.9439 315.8342,378.7942 316.5354,376.063 315.8342,373.3318"/>
    <polyline points="310.8661,370.3937 310.9623,346.3718 311.2489,345.0545 312.3661,342.6081 314.1273,340.5756 316.3898,339.1216 318.9703,338.3639 342.9921,338.2677"/>
    <polyline points="348.6614,332.5984 348.6614,272.126 348.7576,270.7813 349.5153,268.2008 350.9693,265.9383 353.0018,264.1771 355.4482,263.0599 358.1102,262.6772 456.378,262.6772"/>
    <polygon points="467.4391,260.9253 465.9281,258.5444 463.4571,257.186 462.0472,257.0079 459.316,257.7091 457.2605,259.6394 456.3891,262.3212 456.4784,263.7395 456.9175,265.091 458.7149,267.2637 459.9602,267.9483 462.7578,268.3018 464.1342,267.9483 466.4155,266.2909 467.6161,263.7395 467.7053,262.3212"/>
    <line x1="467.7165" x2="569.7638" y1="262.6772" y2="262.6772"/>
    <polygon points="574.7225,268.3018 577.5201,267.9483 578.7654,267.2637 580.5628,265.091 581.0019,263.7395 580.8249,260.9253 579.314,258.5444 576.843,257.186 575.4331,257.0079 574.0232,257.186 571.5522,258.5444 570.0413,260.9253 569.775,262.3212 570.3033,265.091 571.0648,266.2909 573.3461,267.9483"/>
    <line x1="581.1024" x2="607.5591" y1="262.6772" y2="262.6772"/>
    <polygon points="618.6202,260.9253 617.1092,258.5444 614.6382,257.186 613.2283,257.0079 611.8185,257.186 609.3474,258.5444 607.8365,260.9253 607.6595,263.7395 608.0986,265.091 609.896,267.2637 611.1413,267.9483 613.9389,268.3018 615.3154,267.9483 617.5966,266.2909 618.3581,265.091 618.8865,262.3212"/>
    <line x1="618.8976" x2="645.3543" y1="262.6772" y2="262.6772"/>
    <polygon points="650.3131,268.3018 653.1106,267.9483 654.3559,267.2637 656.1534,265.091 656.5925,263.7395 656.4154,260.9253 654.9045,258.5444 652.4335,257.186 651.0236,257.0079 649.6137,257.186 647.1427,258.5444 645.6318,260.9253 645.3655,262.3212 645.8939,265.091 646.6554,266.2909 648.9366,267.9483"/>
    <line x1="656.6929" x2="683.1496" y1="262.6772" y2="262.6772"/>
    <polygon points="688.8189,257.0079 687.409,257.186 684.938,258.5444 683.4271,260.9253 683.25,263.7395 683.6892,265.091 685.4866,267.2637 686.7319,267.9483 689.5294,268.3018 690.9059,267.9483 693.1872,266.2909 693.9486,265.091 694.477,262.3212 694.2107,260.9253 692.6998,258.5444 690.2288,257.186"/>
    <polyline points="694.4882,262.6772 792.7559,262.6772 795.4179,263.0599 796.6811,263.531 798.9436,264.985 800.7048,267.0176 801.3509,268.2008 802.1085,270.7813 802.2047,328.8189 802.5875,331.4809 803.0586,332.7441 804.5126,335.0066 806.5451,336.7677 808.9915,337.885 810.3088,338.1715 834.3307,338.2677"/>
    <polyline points="840.0,332.5984 842.7312,333.2997 844.7867,335.23 845.6581,337.9117 845.5689,339.33 845.1297,340.6816 843.3323,342.8543 842.087,343.5389 839.2894,343.8923 836.6677,342.8543 835.6317,341.8815 834.8703,340.6816 834.3419,337.9117 835.2133,335.23 836.1191,334.135 837.2688,333.2997 840.0,332.5984 840.0,270.5048 839.8076,267.8154 839.2345,265.1807 837.6884,261.4481 835.3842,258.1295 807.7397,230.4169 805.702,228.6512 802.2274,226.5896 798.394,225.3138 795.7252,224.93 732.2835,224.8819"/>
    <polygon points="721.4844,227.2958 722.2459,228.4956 724.5272,230.1531 725.9036,230.5065 728.7012,230.1531 729.9465,229.4684 730.9824,228.4956 732.183,225.9442 732.006,223.13 730.4951,220.7492 728.0241,219.3907 726.6142,219.2126 725.2043,219.3907 722.7333,220.7492 721.2224,223.13 720.9561,224.5259"/>
    <line x1="720.9449" x2="694.4882" y1="224.8819" y2="224.8819"/>
    <polygon points="694.2107,223.13 692.6998,220.7492 690.2288,219.3907 688.8189,219.2126 687.409,219.3907 684.938,220.7492 683.4271,223.13 683.25,225.9442 683.6892,227.2958 685.4866,229.4684 686.7319,230.1531 689.5294,230.5065 690.9059,230.1531 693.1872,228.4956 693.9486,227.2958 694.477,224.5259"/>
    <line x1="683.1496" x2="505.5118" y1="224.8819" y2="224.8819"/>
    <polygon points="503.7234,220.7492 501.2524,219.3907 499.8425,219.2126 498.4326,219.3907 495.9616,220.7492 494.4507,223.13 494.1844,224.5259 494.7128,227.2958 495.4743,228.4956 497.7555,230.1531 499.132,230.5065 501.9295,230.1531 503.1748,229.4684 504.9722,227.2958 505.4114,225.9442 505.2343,223.13"/>
    <line x1="494.1732" x2="429.9213" y1="224.8819" y2="224.8819"/>
    <polygon points="429.3817,227.2958 429.8208,225.9442 429.9101,224.5259 429.0387,221.8441 426.9832,219.9139 424.252,219.2126 422.8421,219.3907 420.3711,220.7492 418.8602,223.13 418.5939,224.5259 418.6831,225.9442 419.8837,228.4956 422.165,230.1531 423.5414,230.5065 426.339,230.1531 427.5843,229.4684"/>
    <polyline points="575.4331,332.5984 575.5292,308.5766 575.8158,307.2592 576.933,304.8128 578.6942,302.7803 580.9567,301.3263 583.5372,300.5686 607.5591,300.4724"/>
    <polygon points="613.9389,306.097 616.5607,305.059 617.5966,304.0862 618.3581,302.8863 618.8865,300.1165 618.0151,297.4347 617.1092,296.3397 615.9595,295.5044 613.2283,294.8031 610.4971,295.5044 608.4416,297.4347 607.8365,298.7205 607.6595,301.5348 608.0986,302.8863 609.896,305.059 612.5178,306.097"/>
    <line x1="618.8976" x2="683.1496" y1="300.4724" y2="300.4724"/>
    <polygon points="688.8189,294.8031 686.0877,295.5044 684.0322,297.4347 683.4271,298.7205 683.25,301.5348 683.6892,302.8863 685.4866,305.059 688.1083,306.097 689.5294,306.097 692.1512,305.059 693.1872,304.0862 693.9486,302.8863 694.477,300.1165 693.6056,297.4347 692.6998,296.3397 691.5501,295.5044"/>
    <polyline points="694.4882,300.4724 720.1347,300.5206 724.1106,301.2379 727.8432,302.784 730.1114,304.2417 732.1492,306.0074 760.4007,334.2589"/>
    <polygon points="760.5286,334.135 759.6227,335.23 758.7513,337.9117 759.2797,340.6816 760.0412,341.8815 761.0771,342.8543 763.6989,343.8923 766.4965,343.5389 767.7418,342.8543 769.5392,340.6816 769.9783,339.33 770.0676,337.9117 769.1962,335.23 767.1407,333.2997 764.4094,332.5984 761.6782,333.2997"/>
    <line x1="768.4182" x2="798.1959" y1="342.2765" y2="372.0542"/>
    <polygon points="807.8628,375.707 806.9915,373.0252 804.9359,371.095 802.2047,370.3937 799.4735,371.095 798.3238,371.9303 797.418,373.0252 796.5466,375.707 797.075,378.4769 797.8365,379.6767 798.8724,380.6495 801.4942,381.6876 802.9153,381.6876 805.5371,380.6495 807.3345,378.4769 807.7736,377.1253"/>
    <polyline points="806.2135,380.0718 835.3842,409.3106 837.6884,412.6293 839.2345,416.3618 839.8076,418.9965 840.0,421.6859 840.0,480.0 839.6173,482.662 839.1461,483.9252 838.5,485.1084 836.7388,487.1409 834.4764,488.5949 833.2132,489.0661 830.5512,489.4488 810.3088,489.545 807.7284,490.3027 805.4659,491.7567 804.5126,492.71 803.0586,494.9725 802.3009,497.5529 802.2047,517.7953 801.822,520.4573 801.3509,521.7205 799.8968,523.9829 798.9436,524.9362 796.6811,526.3902 794.1006,527.1479 792.7559,527.2441 732.2835,527.2441 731.5822,524.5129 730.7469,523.3632 728.3661,521.8523 726.9702,521.586 724.2003,522.1144 722.0276,523.9118 721.343,525.1571 720.9896,527.9546 721.343,529.3311 723.0004,531.6124 725.5519,532.813 726.9702,532.9022 728.3661,532.6359 730.7469,531.125 731.5822,529.9753 732.2835,527.2441"/>
    <polyline points="726.6142,521.5748 726.7103,497.5529 727.468,494.9725 728.9221,492.71 730.9546,490.9488 732.1378,490.3027 734.7183,489.545 754.9606,489.4488 757.6227,489.0661 758.8858,488.5949 761.1483,487.1409 762.9095,485.1084 764.0267,482.662 764.4094,480.0 764.4094,457.3228"/>
    <polygon points="769.9006,453.0634 770.0787,451.6535 769.9006,450.2436 768.5422,447.7726 766.1614,446.2617 764.7654,445.9954 763.3471,446.0847 760.7957,447.2853 759.1383,449.5665 758.7849,450.943 759.1383,453.7405 759.8229,454.9859 760.7957,456.0218 763.3471,457.2224 766.1614,457.0454 768.5422,455.5344"/>
    <line x1="764.4094" x2="764.4094" y1="445.9843" y2="419.5276"/>
    <polygon points="761.9956,408.7285 760.7957,409.49 759.1383,411.7713 758.7849,413.1477 759.1383,415.9453 759.8229,417.1906 761.9956,418.988 764.7654,419.5164 767.4472,418.645 768.5422,417.7392 769.9006,415.2682 770.0787,413.8583 769.9006,412.4484 768.5422,409.9774 767.4472,409.0715 764.7654,408.2002"/>
    <line x1="764.4094" x2="764.4094" y1="408.189" y2="376.063"/>
    <line x1="754.9606" x2="773.8583" y1="376.063" y2="376.063"/>
    <polyline points="845.6693,338.2677 868.3465,338.2677 871.0085,338.6505 873.4549,339.7677 875.4874,341.5289 876.9414,343.7914 877.6991,346.3718 877.7953,521.5748"/>
    <polygon points="872.5241,525.1571 872.1707,527.9546 872.5241,529.3311 874.1815,531.6124 875.3814,532.3738 878.1513,532.9022 879.5472,532.6359 881.928,531.125 883.2865,528.654 883.4646,527.2441 883.2865,525.8342 881.928,523.3632 879.5472,521.8523 878.1513,521.586 875.3814,522.1144 873.2087,523.9118"/>
    <line x1="877.7953" x2="877.7953" y1="532.9134" y2="565.0394"/>
    <line x1="887.2441" x2="868.3465" y1="565.0394" y2="565.0394"/>
    <polyline points="726.6142,532.9134 726.518,556.9353 725.7603,559.5157 724.3063,561.7782 723.353,562.7315 721.0905,564.1855 718.5101,564.9432 717.1654,565.0394 660.4724,565.0394 659.1277,564.9432 656.5473,564.1855 654.2848,562.7315 652.5236,560.699 651.4064,558.2526 651.0236,555.5906 651.1198,459.7577 651.8775,457.1772 653.3315,454.9147 655.364,453.1535 657.8104,452.0363 660.4724,451.6535 680.7148,451.5574 683.2953,450.7997 685.5577,449.3457 687.3189,447.3131 687.965,446.1299 688.7227,443.5494 688.8189,442.2047 688.7227,384.1671 687.965,381.5866 686.511,379.3242 684.4785,377.563 682.0321,376.4457 679.3701,376.063 659.1277,375.9668 656.5473,375.2091 654.2848,373.7551 653.3315,372.8018 651.8775,370.5394 651.1198,367.9589 650.9274,346.3718 650.1698,343.7914 649.5237,342.6081 648.7157,341.5289 646.6832,339.7677 644.2368,338.6505 641.5748,338.2677 618.8976,338.2677"/>
    <polygon points="608.0986,340.6816 609.896,342.8543 611.1413,343.5389 613.9389,343.8923 615.3154,343.5389 617.5966,341.8815 618.3581,340.6816 618.8865,337.9117 618.6202,336.5158 617.1092,334.135 615.9595,333.2997 613.2283,332.5984 611.8185,332.7765 609.3474,334.135 607.8365,336.5158 607.6595,339.33"/>
    <polyline points="607.5591,338.2677 581.1024,338.2677 580.9243,339.6776 579.5658,342.1486 578.4708,343.0545 575.789,343.9258 573.0192,343.3974 570.8465,341.6 569.8085,338.9783 569.8085,337.5572 570.8465,334.9354 571.8193,333.8995 573.0192,333.138 575.789,332.6096 577.185,332.8759 579.5658,334.3868 580.9243,336.8578 581.1024,338.2677"/>
    <polyline points="575.4331,343.937 575.5292,367.9589 576.2869,370.5394 577.7409,372.8018 578.6942,373.7551 580.9567,375.2091 583.5372,375.9668 603.7795,376.063 606.4416,376.4457 607.7047,376.9169 609.9672,378.3709 611.7284,380.4034 612.8456,382.8498 613.2283,385.5118 613.1322,481.3447 612.3745,483.9252 610.9205,486.1877 608.8879,487.9489 606.4416,489.0661 603.7795,489.4488 583.5372,489.545 580.9567,490.3027 578.6942,491.7567 576.933,493.7892 576.2869,494.9725 575.5292,497.5529 575.4331,498.8976 575.4331,555.5906 575.0503,558.2526 574.5792,559.5157 573.1252,561.7782 572.1719,562.7315 569.9094,564.1855 567.329,564.9432 537.6378,565.0394"/>
    <line x1="537.6378" x2="537.6378" y1="574.4882" y2="555.5906"/>
    <line x1="509.2913" x2="490.3937" y1="565.0394" y2="565.0394"/>
    <line x1="499.8425" x2="499.8425" y1="565.0394" y2="532.9134"/>
  </g>
</svg>
