<?xml version="1.0" encoding="utf-8" ?>
<svg xmlns="http://www.w3.org/2000/svg" xmlns:cc="http://creativecommons.org/ns" xmlns:dc="http://purl.org/dc/elements/1.1/" xmlns:ev="http://www.w3.org/2001/xml-events" xmlns:inkscape="http://www.inkscape.org/namespaces/inkscape" xmlns:rdf="http://www.w3.org/1999/02/22-rdf-syntax-ns" xmlns:sodipodi="http://sodipodi.sourceforge.net/DTD/sodipodi-0.dtd" xmlns:xlink="http://www.w3.org/1999/xlink" baseProfile="tiny" height="29.7cm" version="1.2" viewBox="0 0 793.7007874015749 1122.5196850393702" width="21.0cm">
  <metadata>
    <rdf:RDF>
      <cc:Work>
        <dc:format>image/svg+xml</dc:format>
        <dc:source/>
        <dc:date>2022-10-06T22:12:56.385534</dc:date>
      </cc:Work>
    </rdf:RDF>
  </metadata>
  <defs/>
  <g fill="none" id="layer1" inkscape:groupmode="layer" inkscape:label="1" stroke="#0000ff" style="display:inline">
    <polyline points="146.8346,190.8661 146.3814,193.7276 145.0662,196.3089 143.0176,198.3575 140.4363,199.6728 137.5748,200.126 119.0551,200.126"/>
    <polyline points="119.0551,218.6457 174.6142,218.6457 176.5394,218.4433 178.3805,217.8451 180.057,216.8772 181.4956,215.5819 182.6334,214.0157 183.6717,211.3111 184.3272,206.5244 185.1146,204.7559 186.2525,203.1898 187.6911,201.8945 189.3675,200.9265 191.2086,200.3283 193.1339,200.126 195.9953,200.5792 197.7638,201.3666 199.3299,202.5044 200.6252,203.943 201.9405,206.5244 202.5961,211.3111 203.1943,213.1521 204.1622,214.8286 205.4575,216.2672 207.0236,217.4051 209.7283,218.4433 212.6215,218.5949 214.515,218.1925 216.2835,217.4051 218.5349,215.5819 219.6728,214.0157 220.711,211.3111 220.9134,190.8661"/>
    <polyline points="220.9134,200.126 248.6929,200.126 250.6181,199.9236 252.4592,199.3254 254.1357,198.3575 256.1843,196.3089 257.4995,193.7276 257.9528,190.8661"/>
    <polyline points="276.4724,190.8661 276.4217,210.3537 276.0192,212.2473 274.704,214.8286 272.6554,216.8772 270.9789,217.8451 269.1378,218.4433 257.9528,218.6457"/>
    <polyline points="257.9528,255.685 257.9528,264.9449 257.4995,267.8063 256.7122,269.5748 255.5743,271.1409 254.1357,272.4363 252.4592,273.4042 250.6181,274.0024 248.6929,274.2047 229.2053,274.154 227.3118,273.7515 225.5433,272.9641 223.2918,271.1409 221.7139,268.7112 220.9641,265.9128 220.9134,227.9055 221.1157,225.9803 221.7139,224.1392 222.6819,222.4627 223.9772,221.0241 226.4069,219.4462 229.2053,218.6964 232.0985,218.848 234.8031,219.8863 236.3693,221.0241 238.1925,223.2756 239.2307,225.9803 239.8863,230.767 240.6737,232.5354 242.4969,234.7869 244.063,235.9248 246.7677,236.963 249.6608,237.1146 252.4592,236.3648 254.1357,235.3969 256.1843,233.3483 257.1522,231.6718 257.7504,229.8307 257.9528,209.3858 258.1551,207.4606 258.7533,205.6195 260.3312,203.1898 261.7698,201.8945 264.3511,200.5792 267.2126,200.126 304.252,200.126 306.1772,200.3283 308.0183,200.9265 309.6948,201.8945 311.1334,203.1898 312.2712,204.7559 313.0586,206.5244 313.5118,209.3858 313.5118,218.6457"/>
    <line x1="294.9921" x2="294.9921" y1="237.1654" y2="274.2047"/>
    <polyline points="276.4724,255.685 276.4724,264.9449 276.9256,267.8063 277.713,269.5748 278.8509,271.1409 280.2895,272.4363 282.8708,273.7515 285.7323,274.2047 306.1772,274.0024 308.8819,272.9641 310.448,271.8263 311.7433,270.3877 313.0586,267.8063 313.4611,265.9128 313.4611,263.977 313.0586,262.0834 312.2712,260.315 311.1334,258.7488 309.6948,257.4535 307.1134,256.1382 305.2199,255.7358 174.6142,255.685 172.6889,255.8874 170.8479,256.4856 169.1714,257.4535 167.7328,258.7488 166.5949,260.315 165.8075,262.0834 165.152,266.8701 164.1137,269.5748 162.2905,271.8263 160.7244,272.9641 158.9559,273.7515 156.0945,274.2047 119.0551,274.2047"/>
    <line x1="128.315" x2="128.315" y1="274.2047" y2="255.685"/>
    <line x1="119.0551" x2="146.8346" y1="255.685" y2="255.685"/>
    <polyline points="146.8346,274.2047 146.7839,245.4573 146.0341,242.6589 145.0662,240.9824 143.7708,239.5438 142.2047,238.4059 140.4363,237.6186 138.5427,237.2161 119.0551,237.1654"/>
    <polyline points="119.0551,292.7244 120.9803,292.9268 123.685,293.965 125.9365,295.7882 127.5144,298.2179 128.1126,300.059 128.315,301.9843 128.5173,322.4292 129.1155,324.2703 130.0834,325.9467 131.3788,327.3853 132.9449,328.5232 134.7134,329.3106 137.5748,329.7638 183.874,329.7638"/>
    <polyline points="202.3937,329.7638 213.5788,329.9661 216.2835,331.0044 218.5349,332.8276 219.6728,334.3937 220.4602,336.1622 220.9134,339.0236 220.711,340.9489 220.1128,342.7899 219.1449,344.4664 217.8496,345.905 216.2835,347.0429 214.515,347.8303 212.6215,348.2327 209.7283,348.0811 207.0236,347.0429 205.4575,345.905 204.1622,344.4664 203.1943,342.7899 202.5961,340.9489 202.3937,339.0236 202.3937,301.9843 202.1914,300.059 201.1531,297.3543 199.3299,295.1028 197.7638,293.965 195.0591,292.9268 193.1339,292.7244 156.0945,292.7244 154.1693,292.9268 151.4646,293.965 149.8984,295.1028 148.6031,296.5415 147.2879,299.1228 146.6323,303.9095 146.0341,305.7506 144.4562,308.1803 142.2047,310.0035 140.4363,310.7909 138.5427,311.1934 119.0551,311.2441"/>
    <polyline points="119.0551,348.2835 193.1339,348.2835 195.9953,348.7367 197.7638,349.524 199.3299,350.6619 200.6252,352.1005 201.9405,354.6819 202.3937,357.5433 202.3937,459.4016"/>
    <polyline points="220.9134,440.8819 286.7002,440.8312 288.5937,440.4287 290.3622,439.6413 291.9283,438.5035 293.2237,437.0648 294.1916,435.3884 294.7898,433.5473 294.9921,431.622 294.7898,429.6968 294.1916,427.8557 293.2237,426.1792 291.9283,424.7406 290.3622,423.6028 288.5937,422.8154 286.7002,422.4129 265.2874,422.1599 262.5827,421.1216 261.0166,419.9838 259.1933,417.7323 258.1551,415.0276 257.9528,394.5827 258.406,391.7212 259.7212,389.1399 261.0166,387.7013 262.5827,386.5634 265.2874,385.5252 269.1378,385.1205 270.9789,384.5223 272.6554,383.5544 274.704,381.5058 276.0192,378.9244 276.4217,377.0309 276.4724,366.8031"/>
    <polyline points="276.4724,348.2835 276.6748,337.0984 277.273,335.2573 278.2409,333.5808 280.2895,331.5323 282.8708,330.217 284.7644,329.8145 304.252,329.7638 306.1772,329.5614 308.0183,328.9632 310.448,327.3853 312.2712,325.1339 313.0586,323.3654 313.4611,321.4719 313.3095,318.5787 312.2712,315.874 310.448,313.6225 308.8819,312.4847 306.1772,311.4464 284.7644,311.1934 282.8708,310.7909 281.1024,310.0035 278.8509,308.1803 277.273,305.7506 276.6748,303.9095 276.0192,299.1228 274.704,296.5415 273.4086,295.1028 271.8425,293.965 269.1378,292.9268 267.2126,292.7244 264.3511,293.1776 261.7698,294.4929 259.7212,296.5415 258.7533,298.2179 258.1551,300.059 257.9528,301.9843 257.9528,348.2835"/>
    <line x1="257.9528" x2="239.4331" y1="329.7638" y2="329.7638"/>
    <line x1="239.4331" x2="350.5512" y1="348.2835" y2="348.2835"/>
    <polyline points="350.5512,366.8031 340.3234,366.8539 337.525,367.6037 335.0953,369.1816 333.8,370.6202 332.8321,372.2967 332.2338,374.1378 331.5783,378.9244 330.7909,380.6929 329.6531,382.259 328.2145,383.5544 325.6331,384.8696 320.8464,385.5252 318.1417,386.5634 316.5756,387.7013 314.7524,389.9528 313.965,391.7212 313.5625,393.6148 313.5118,403.8425"/>
    <line x1="313.5118" x2="313.5118" y1="366.8031" y2="348.2835"/>
    <line x1="294.9921" x2="294.9921" y1="348.2835" y2="329.7638"/>
    <polyline points="294.9921,311.2441 294.9921,301.9843 295.4453,299.1228 296.2327,297.3543 297.3706,295.7882 298.8092,294.4929 300.4857,293.525 302.3267,292.9268 304.252,292.7244 323.7396,292.7751 325.6331,293.1776 327.4016,293.965 328.9677,295.1028 330.263,296.5415 331.5783,299.1228 332.0315,301.9843 332.0315,357.5433 331.5783,360.4048 330.7909,362.1732 329.6531,363.7394 328.2145,365.0347 326.538,366.0026 324.6969,366.6008 322.7717,366.8031 248.6929,366.8031 245.8315,366.3499 243.2501,365.0347 241.8115,363.7394 240.6737,362.1732 239.8863,360.4048 239.4838,358.5112 239.4331,301.9843 239.2307,300.059 238.6325,298.2179 237.6646,296.5415 236.3693,295.1028 234.8031,293.965 232.0985,292.9268 210.6856,292.6737 208.7921,292.2712 207.0236,291.4838 205.4575,290.346 203.6343,288.0945 202.5961,285.3898 201.9405,280.6031 201.1531,278.8346 199.3299,276.5832 197.7638,275.4453 195.9953,274.6579 191.2086,274.0024 189.3675,273.4042 187.6911,272.4363 186.2525,271.1409 184.6746,268.7112 183.9247,265.9128 183.874,237.1654"/>
    <polyline points="220.9134,237.1654 173.6463,237.1146 171.7527,236.7121 169.9843,235.9248 168.4181,234.7869 167.1228,233.3483 165.8075,230.767 165.3543,227.9055 165.3543,209.3858 165.5567,207.4606 166.1549,205.6195 167.7328,203.1898 169.9843,201.3666 172.6889,200.3283 177.4756,199.6728 179.2441,198.8854 180.8102,197.7475 182.1055,196.3089 183.0735,194.6325 183.6717,192.7914 183.874,190.8661"/>
    <polyline points="183.874,292.7244 184.0764,303.9095 185.1146,306.6142 186.9378,308.8657 189.3675,310.4435 192.1659,311.1934 202.3937,311.2441"/>
    <polyline points="220.9134,292.7244 220.9134,301.9843 221.3666,304.8457 222.154,306.6142 223.2918,308.1803 224.7304,309.4756 226.4069,310.4435 228.248,311.0417 230.1732,311.2441 257.9528,311.2441"/>
    <polyline points="313.5118,292.7244 313.7142,281.5393 314.7524,278.8346 316.5756,276.5832 319.0053,275.0053 321.8037,274.2555 341.2913,274.2047 343.2166,274.0024 345.0577,273.4042 347.4874,271.8263 349.3106,269.5748 350.3488,266.8701 351.0044,262.0834 352.3197,259.5021 354.3682,257.4535 356.9496,256.1382 359.811,255.685 378.3307,255.685 380.2559,255.8874 382.097,256.4856 384.5268,258.0635 386.35,260.315 387.3882,263.0197 388.0438,267.8063 388.8311,269.5748 389.969,271.1409 391.4076,272.4363 393.0841,273.4042 394.9252,274.0024 397.8183,274.154 399.7118,273.7515 401.4803,272.9641 403.0464,271.8263 404.3418,270.3877 405.657,267.8063 406.3126,263.0197 406.9108,261.1786 407.8787,259.5021 409.174,258.0635 410.7402,256.9256 412.5086,256.1382 417.2953,255.4827 419.1364,254.8845 420.8129,253.9166 422.2515,252.6212 423.3893,251.0551 424.1767,249.2866 424.6299,246.4252 424.6299,209.3858 424.4276,207.4606 423.8294,205.6195 422.8614,203.943 421.5661,202.5044 420.0,201.3666 417.2953,200.3283 412.5086,199.6728 410.7402,198.8854 409.174,197.7475 407.8787,196.3089 406.9108,194.6325 406.3126,192.7914 406.1102,190.8661"/>
    <polyline points="387.5906,190.8661 387.3882,211.3111 386.79,213.1521 385.8221,214.8286 383.7735,216.8772 382.097,217.8451 379.2986,218.5949 376.4055,218.4433 374.5644,217.8451 372.1347,216.2672 370.3114,214.0157 369.5241,212.2473 368.8685,207.4606 367.8303,204.7559 366.6924,203.1898 365.2538,201.8945 362.6725,200.5792 359.811,200.126 357.8858,200.3283 356.0447,200.9265 354.3682,201.8945 352.9296,203.1898 351.7918,204.7559 351.0044,206.5244 350.6019,208.4179 350.7535,211.3111 351.7918,214.0157 352.9296,215.5819 354.3682,216.8772 356.9496,218.1925 361.7363,218.848 364.4409,219.8863 366.6924,221.7095 367.8303,223.2756 368.6177,225.0441 369.0709,227.9055 369.0709,255.685"/>
    <polyline points="332.0315,255.685 321.8037,255.6343 319.0053,254.8845 316.5756,253.3066 314.7524,251.0551 313.7142,248.3504 313.3095,244.5 312.7113,242.6589 311.1334,240.2292 308.8819,238.4059 307.1134,237.6186 305.2199,237.2161 285.7323,237.1654 282.8708,236.7121 280.2895,235.3969 278.2409,233.3483 276.9256,230.767 276.4724,227.9055 276.9256,225.0441 277.713,223.2756 278.8509,221.7095 281.1024,219.8863 283.8071,218.848 285.7323,218.6457 322.7717,218.6457 325.6331,218.1925 328.2145,216.8772 329.6531,215.5819 330.7909,214.0157 331.5783,212.2473 331.9808,210.3537 332.0315,190.8661"/>
    <polyline points="369.0709,190.8661 369.5241,193.7276 370.3114,195.4961 372.1347,197.7475 374.5644,199.3254 377.3628,200.0753 387.5906,200.126"/>
    <polyline points="424.6299,190.8661 424.8323,192.7914 425.8705,195.4961 427.0084,197.0622 428.447,198.3575 431.0283,199.6728 435.815,200.3283 437.6561,200.9265 439.3326,201.8945 440.7712,203.1898 441.909,204.7559 442.6964,206.5244 443.352,211.3111 443.9502,213.1521 445.528,215.5819 447.7795,217.4051 449.548,218.1925 451.4415,218.5949 470.9291,218.6457 473.7906,218.1925 476.3719,216.8772 478.4205,214.8286 479.7358,212.2473 480.189,209.3858 480.189,190.8661"/>
    <polyline points="461.6693,190.8661 462.1225,193.7276 462.9099,195.4961 464.0477,197.0622 466.2992,198.8854 469.0039,199.9236 470.9291,200.126 517.2283,200.126"/>
    <polyline points="517.2283,190.8661 517.2283,209.3858 517.6816,212.2473 518.9968,214.8286 521.0454,216.8772 523.6267,218.1925 526.4882,218.6457 529.3496,218.1925 531.931,216.8772 533.9796,214.8286 535.2948,212.2473 535.748,209.3858 535.748,190.8661"/>
    <polyline points="554.2677,218.6457 554.3184,208.4179 554.7209,206.5244 556.0362,203.943 558.0848,201.8945 559.7612,200.9265 561.6023,200.3283 566.389,199.6728 568.9704,198.3575 570.409,197.0622 571.5468,195.4961 572.3342,193.7276 572.7874,190.8661"/>
    <polyline points="609.8268,190.8661 609.8268,227.9055 610.0291,229.8307 611.0674,232.5354 612.8906,234.7869 615.3203,236.3648 618.1187,237.1146 621.0118,236.963 623.7165,235.9248 625.968,234.1016 627.5459,231.6718 628.1441,229.8307 628.3465,227.9055 628.3972,208.4179 628.7997,206.5244 629.587,204.7559 630.7249,203.1898 632.1635,201.8945 634.7449,200.5792 637.6063,200.126 674.6457,200.126"/>
    <polyline points="665.3858,200.126 665.3351,228.8734 664.5853,231.6718 663.6174,233.3483 662.322,234.7869 660.7559,235.9248 658.9874,236.7121 657.0939,237.1146 637.6063,237.1654 635.6811,237.3677 633.84,237.9659 631.4103,239.5438 629.587,241.7953 628.7997,243.5637 628.3972,245.4573 628.5488,248.3504 629.147,250.1915 630.1149,251.868 632.1635,253.9166 634.7449,255.2318 639.5315,255.8874 641.3726,256.4856 643.0491,257.4535 644.4877,258.7488 645.6256,260.315 646.4129,262.0834 647.0685,266.8701 647.6667,268.7112 648.6346,270.3877 649.9299,271.8263 651.4961,272.9641 654.2008,274.0024 656.126,274.2047 658.0512,274.0024 660.7559,272.9641 662.322,271.8263 664.1452,269.5748 665.1835,266.8701 665.3858,246.4252 665.5882,244.5 666.1864,242.6589 667.7643,240.2292 670.0157,238.4059 672.7204,237.3677 674.6457,237.1654"/>
    <line x1="674.6457" x2="665.3858" y1="255.685" y2="255.685"/>
    <line x1="665.3858" x2="628.3465" y1="218.6457" y2="218.6457"/>
    <polyline points="609.8268,218.6457 598.6417,218.848 596.8006,219.4462 595.1241,220.4141 593.6855,221.7095 592.5477,223.2756 591.7603,225.0441 591.3071,227.9055 591.5094,248.3504 592.1076,250.1915 593.0756,251.868 595.1241,253.9166 597.7055,255.2318 602.4922,255.8874 604.3332,256.4856 606.0097,257.4535 607.4483,258.7488 608.5862,260.315 609.3736,262.0834 610.0291,266.8701 610.6273,268.7112 611.5952,270.3877 612.8906,271.8263 614.4567,272.9641 616.2252,273.7515 621.0118,274.4071 622.8529,275.0053 625.2827,276.5832 626.578,278.0218 627.5459,279.6982 628.1441,281.5393 628.3465,283.4646 628.1441,285.3898 627.1059,288.0945 625.968,289.6606 624.5294,290.9559 622.8529,291.9239 621.0118,292.5221 619.0866,292.7244 582.0472,292.7244 580.122,292.5221 578.2809,291.9239 576.6044,290.9559 575.1658,289.6606 573.588,287.2309 572.9898,285.3898 572.7874,283.4646 572.7874,237.1654"/>
    <polyline points="591.3071,237.1654 562.5596,237.2161 560.6661,237.6186 558.0848,238.9338 556.0362,240.9824 555.0683,242.6589 554.4701,244.5 554.2677,246.4252 554.7209,249.2866 555.5083,251.0551 556.6462,252.6212 558.0848,253.9166 559.7612,254.8845 561.6023,255.4827 563.5276,255.685 583.9725,255.8874 585.8136,256.4856 587.49,257.4535 588.9286,258.7488 590.0665,260.315 591.1047,263.0197 591.3071,264.9449 591.1047,266.8701 590.0665,269.5748 588.9286,271.1409 587.49,272.4363 585.8136,273.4042 583.0152,274.154 572.7874,274.2047"/>
    <polyline points="591.3071,292.7244 591.3578,282.4966 592.1076,279.6982 593.6855,277.2685 595.937,275.4453 597.7055,274.6579 599.599,274.2555 601.5348,274.2555 603.4284,274.6579 605.1969,275.4453 606.763,276.5832 608.5862,278.8346 609.3736,280.6031 609.776,282.4966 609.8268,311.2441"/>
    <polyline points="591.3071,329.7638 591.3071,320.5039 591.7603,317.6425 592.5477,315.874 593.6855,314.3079 595.1241,313.0126 596.8006,312.0446 598.6417,311.4464 600.5669,311.2441 620.0545,311.2948 621.9481,311.6973 623.7165,312.4847 625.2827,313.6225 626.578,315.0611 627.5459,316.7376 628.2957,319.536 628.3465,339.0236 628.5488,340.9489 629.147,342.7899 630.7249,345.2197 632.9764,347.0429 635.6811,348.0811 640.4677,348.7367 643.0491,350.0519 645.0977,352.1005 646.0656,353.777 646.6638,355.6181 646.8661,357.5433 646.8661,403.8425"/>
    <polyline points="628.3465,403.8425 628.2957,393.6148 627.5459,390.8164 625.968,388.3866 623.7165,386.5634 621.0118,385.5252 609.8268,385.3228"/>
    <polygon points="616.2252,404.2957 619.0866,403.8425 656.126,403.8425 658.0512,404.0449 660.7559,405.0831 662.322,406.221 663.6174,407.6596 664.5853,409.336 665.1835,411.1771 665.3858,413.1024 665.1835,415.0276 664.1452,417.7323 662.322,419.9838 659.8923,421.5616 657.0939,422.3115 619.0866,422.3622 617.1614,422.1599 614.4567,421.1216 612.8906,419.9838 611.5952,418.5452 610.6273,416.8687 610.0291,415.0276 609.8775,412.1344 610.28,410.2409 611.0674,408.4724 612.8906,406.221 614.4567,405.0831"/>
    <polyline points="628.3465,422.3622 628.2957,451.1096 627.5459,453.908 625.968,456.3378 623.7165,458.161 621.9481,458.9484 620.0545,459.3508 600.5669,459.4016 598.6417,459.1992 596.8006,458.601 595.1241,457.6331 593.0756,455.5845 591.7603,453.0032 591.3578,451.1096 591.3071,403.8425"/>
    <polyline points="572.7874,403.8425 572.7367,375.0951 571.9868,372.2967 570.409,369.8669 568.9704,368.5716 567.2939,367.6037 565.4528,367.0055 563.5276,366.8031 544.04,366.8539 541.2416,367.6037 538.8118,369.1816 537.5165,370.6202 536.5486,372.2967 535.9504,374.1378 535.748,376.063 535.7988,414.0703 536.2012,415.9638 536.9886,417.7323 538.8118,419.9838 540.378,421.1216 542.1464,421.909 545.0079,422.3622 601.5348,422.4129 603.4284,422.8154 606.0097,424.1307 607.4483,425.426 608.5862,426.9921 609.3736,428.7606 609.8268,431.622 609.8268,487.1811 609.3736,490.0426 608.5862,491.811 607.4483,493.3771 606.0097,494.6725 603.4284,495.9877 601.5348,496.3902 563.5276,496.4409 561.6023,496.2386 558.8976,495.2004 557.3315,494.0625 556.0362,492.6239 554.7209,490.0426 554.3184,488.149 554.2677,450.1417 554.4701,448.2165 555.5083,445.5118 557.3315,443.2603 558.8976,442.1225 561.6023,441.0842 564.4955,440.9326 566.389,441.3351 568.9704,442.6504 570.409,443.9457 571.5468,445.5118 572.3342,447.2803 572.7874,450.1417 572.5851,452.067 571.9868,453.908 571.0189,455.5845 569.7236,457.0231 567.2939,458.601 564.4955,459.3508 554.2677,459.4016"/>
    <line x1="535.748" x2="498.7087" y1="459.4016" y2="459.4016"/>
    <polyline points="517.2283,459.4016 517.2283,487.1811 516.7751,490.0426 515.9878,491.811 514.8499,493.3771 512.5984,495.2004 510.83,495.9877 508.9364,496.3902 507.0006,496.3902 505.1071,495.9877 503.3386,495.2004 501.0871,493.3771 499.5092,490.9474 498.7594,488.149 498.7087,450.1417 498.2555,447.2803 496.9402,444.6989 495.6449,443.2603 494.0787,442.1225 491.374,441.0842 487.5236,440.6795 485.6825,440.0813 483.2528,438.5035 481.9574,437.0648 480.9895,435.3884 480.3913,433.5473 480.2397,430.6541 480.6422,428.7606 481.4296,426.9921 483.2528,424.7406 485.6825,423.1628 488.4809,422.4129 490.4167,422.4129 492.3103,422.8154 494.8916,424.1307 496.9402,426.1792 497.9081,427.8557 498.5063,429.6968 498.911,433.5473 499.9492,436.252 501.7725,438.5035 503.3386,439.6413 505.1071,440.4287 507.9685,440.8819 527.4561,440.9326 529.3496,441.3351 531.931,442.6504 533.9796,444.6989 534.9475,446.3754 535.5457,448.2165 535.7988,469.6293 536.2012,471.5229 536.9886,473.2913 538.1265,474.8575 539.5651,476.1528 541.2416,477.1207 543.0826,477.7189 554.2677,477.9213"/>
    <line x1="535.748" x2="535.748" y1="496.4409" y2="514.9606"/>
    <polyline points="535.748,552.0 535.9504,540.8149 536.5486,538.9738 537.5165,537.2974 538.8118,535.8588 540.378,534.7209 542.1464,533.9335 544.04,533.531 564.4955,533.4296 567.2939,532.6798 569.7236,531.1019 571.5468,528.8504 572.5851,526.1457 572.7874,514.9606"/>
    <polyline points="572.7874,496.4409 572.8381,486.2132 573.588,483.4148 575.1658,480.9851 577.4173,479.1618 580.122,478.1236 582.0472,477.9213 583.9725,478.1236 586.6772,479.1618 588.9286,480.9851 590.5065,483.4148 591.2564,486.2132 591.3071,496.4409"/>
    <polyline points="609.8268,514.9606 609.8268,542.7402 609.6244,544.6654 609.0262,546.5065 607.4483,548.9362 605.1969,550.7594 602.4922,551.7977 597.7055,552.4532 595.1241,553.7685 593.0756,555.817 592.1076,557.4935 591.5094,559.3346 591.3578,580.7474 591.7603,582.641 592.5477,584.4094 594.3709,586.6609 595.937,587.7988 597.7055,588.5862 599.599,588.9886 601.5348,588.9886 603.4284,588.5862 605.1969,587.7988 607.4483,585.9756 609.0262,583.5458 609.776,580.7474 609.8268,570.5197"/>
    <line x1="628.3465" x2="498.7087" y1="570.5197" y2="570.5197"/>
    <line x1="461.6693" x2="461.6693" y1="570.5197" y2="552.0"/>
    <polyline points="443.1496,533.4803 443.1496,524.2205 442.6964,521.359 441.909,519.5906 440.7712,518.0244 439.3326,516.7291 436.7512,515.4138 433.8898,514.9606 387.5906,514.9606"/>
    <polyline points="387.5906,496.4409 358.8431,496.3902 356.9496,495.9877 355.1811,495.2004 353.615,494.0625 352.3197,492.6239 351.0044,490.0426 350.5512,487.1811 350.5005,449.1738 350.098,447.2803 348.7827,444.6989 347.4874,443.2603 345.9213,442.1225 344.1528,441.3351 341.2913,440.8819 303.2841,440.9326 301.3905,441.3351 299.622,442.1225 297.3706,443.9457 295.7927,446.3754 295.0429,449.1738 295.0429,451.1096 295.7927,453.908 297.3706,456.3378 298.8092,457.6331 301.3905,458.9484 303.2841,459.3508 306.1772,459.1992 308.8819,458.161 310.448,457.0231 311.7433,455.5845 312.7113,453.908 313.3095,452.067 313.5625,430.6541 314.3124,427.8557 315.8902,425.426 318.1417,423.6028 319.9102,422.8154 321.8037,422.4129 343.2166,422.1599 345.0577,421.5616 346.7341,420.5937 348.7827,418.5452 349.7506,416.8687 350.3488,415.0276 350.5512,413.1024 350.5512,320.5039 351.0044,317.6425 351.7918,315.874 352.9296,314.3079 355.1811,312.4847 356.9496,311.6973 358.8431,311.2948 361.7363,311.4464 364.4409,312.4847 366.6924,314.3079 367.8303,315.874 368.8685,318.5787 369.5241,323.3654 370.8393,325.9467 372.1347,327.3853 373.7008,328.5232 375.4693,329.3106 380.2559,329.9661 382.097,330.5643 384.5268,332.1422 385.8221,333.5808 387.1373,336.1622 387.5398,338.0557 387.7929,359.4685 388.8311,362.1732 389.969,363.7394 392.2205,365.5626 393.9889,366.3499 395.8825,366.7524 397.8183,366.7524 399.7118,366.3499 401.4803,365.5626 403.0464,364.4247 404.3418,362.9861 405.657,360.4048 406.1102,357.5433 406.1102,329.7638"/>
    <polyline points="406.1102,311.2441 406.0595,301.0163 405.3097,298.2179 404.3418,296.5415 403.0464,295.1028 400.6167,293.525 398.7756,292.9268 393.9889,292.2712 392.2205,291.4838 390.6543,290.346 389.359,288.9074 388.3911,287.2309 387.7929,285.3898 387.1373,280.6031 385.8221,278.0218 384.5268,276.5832 382.9606,275.4453 380.2559,274.4071 378.3307,274.2047 358.8431,274.2555 356.9496,274.6579 354.3682,275.9732 352.3197,278.0218 351.3517,279.6982 350.7535,281.5393 350.5005,302.9522 350.098,304.8457 349.3106,306.6142 348.1727,308.1803 346.7341,309.4756 345.0577,310.4435 343.2166,311.0417 332.0315,311.2441"/>
    <polyline points="332.0315,329.7638 360.7789,329.8145 362.6725,330.217 365.2538,331.5323 367.3024,333.5808 368.2703,335.2573 368.8685,337.0984 369.1216,358.5112 369.5241,360.4048 370.3114,362.1732 372.1347,364.4247 374.5644,366.0026 376.4055,366.6008 380.2559,367.0055 382.9606,368.0437 385.2121,369.8669 386.79,372.2967 387.3882,374.1378 387.5398,377.0309 386.79,379.8293 385.2121,382.259 382.9606,384.0823 381.1922,384.8696 376.4055,385.5252 373.7008,386.5634 371.4493,388.3866 370.3114,389.9528 369.5241,391.7212 369.1216,393.6148 369.0709,403.8425"/>
    <polyline points="350.5512,403.8425 396.8504,403.8425 398.7756,403.6402 401.4803,402.6019 403.0464,401.4641 404.3418,400.0255 405.657,397.4441 406.3126,392.6574 406.9108,390.8164 407.8787,389.1399 409.9273,387.0913 411.6038,386.1234 414.4022,385.3736 424.6299,385.3228"/>
    <polyline points="443.1496,366.8031 453.3774,366.7524 456.1758,366.0026 458.6055,364.4247 459.9008,362.9861 461.2161,360.4048 461.6693,357.5433 461.2161,354.6819 459.9008,352.1005 458.6055,350.6619 456.1758,349.084 453.3774,348.3342 443.1496,348.2835"/>
    <polyline points="461.6693,329.7638 461.6693,301.9843 461.2161,299.1228 459.9008,296.5415 457.8522,294.4929 455.2709,293.1776 450.4842,292.5221 448.6431,291.9239 446.2134,290.346 444.3902,288.0945 443.352,285.3898 443.1496,283.4646 443.2003,263.977 443.6028,262.0834 444.9181,259.5021 446.9666,257.4535 449.548,256.1382 452.4094,255.685 471.8971,255.6343 474.6955,254.8845 477.1252,253.3066 478.9484,251.0551 479.9866,248.3504 480.1382,245.4573 479.7358,243.5637 478.9484,241.7953 477.1252,239.5438 474.6955,237.9659 471.8971,237.2161 452.4094,237.1654 450.4842,237.3677 447.7795,238.4059 445.528,240.2292 443.9502,242.6589 443.352,244.5 442.6964,249.2866 441.909,251.0551 440.7712,252.6212 439.3326,253.9166 437.6561,254.8845 435.815,255.4827 431.0283,256.1382 428.447,257.4535 427.0084,258.7488 425.8705,260.315 425.0831,262.0834 424.6806,263.977 424.6806,284.4325 425.4305,287.2309 426.3984,288.9074 427.6937,290.346 430.1234,291.9239 431.9645,292.5221 436.7512,293.1776 438.5197,293.965 440.0858,295.1028 441.909,297.3543 442.6964,299.1228 443.352,303.9095 444.3902,306.6142 446.2134,308.8657 447.7795,310.0035 449.548,310.7909 451.4415,311.1934 461.6693,311.2441"/>
    <polyline points="461.6693,274.2047 489.4488,274.2047 491.374,274.0024 493.2151,273.4042 494.8916,272.4363 496.3302,271.1409 497.4681,269.5748 498.2555,267.8063 498.7087,264.9449 498.7087,255.685"/>
    <polyline points="517.2283,255.685 489.4488,255.685 487.5236,255.8874 485.6825,256.4856 484.006,257.4535 482.5674,258.7488 481.4296,260.315 480.6422,262.0834 480.189,264.9449 480.189,274.2047"/>
    <polyline points="498.7087,237.1654 498.6579,226.9376 497.9081,224.1392 496.3302,221.7095 494.0787,219.8863 492.3103,219.0989 490.4167,218.6964 488.4809,218.6964 486.5874,219.0989 484.8189,219.8863 483.2528,221.0241 481.4296,223.2756 480.6422,225.0441 480.2397,226.9376 480.2397,228.8734 480.6422,230.767 481.4296,232.5354 483.2528,234.7869 484.8189,235.9248 486.5874,236.7121 488.4809,237.1146 509.8937,237.3677 511.7348,237.9659 513.4113,238.9338 514.8499,240.2292 515.9878,241.7953 517.026,244.5 517.2283,246.4252 517.1776,284.4325 516.7751,286.326 515.9878,288.0945 514.8499,289.6606 513.4113,290.9559 511.7348,291.9239 509.8937,292.5221 505.1071,293.1776 503.3386,293.965 501.7725,295.1028 500.4771,296.5415 499.5092,298.2179 498.911,300.059 498.2555,304.8457 496.9402,307.4271 495.6449,308.8657 494.0787,310.0035 491.374,311.0417 489.4488,311.2441 487.5236,311.0417 484.8189,310.0035 483.2528,308.8657 481.9574,307.4271 480.6422,304.8457 479.9866,300.059 479.3884,298.2179 478.4205,296.5415 477.1252,295.1028 475.5591,293.965 473.7906,293.1776 469.0039,292.5221 466.2992,291.4838 464.7331,290.346 463.4378,288.9074 462.1225,286.326 461.6693,283.4646 461.6693,237.1654"/>
    <line x1="498.7087" x2="498.7087" y1="200.126" y2="190.8661"/>
    <polyline points="535.748,255.685 546.9331,255.8874 548.7742,256.4856 550.4507,257.4535 551.8893,258.7488 553.0271,260.315 554.0654,263.0197 554.2677,264.9449 554.217,284.4325 553.4672,287.2309 551.8893,289.6606 549.6378,291.4838 547.8693,292.2712 545.0079,292.7244 524.563,292.9268 522.7219,293.525 521.0454,294.4929 519.6068,295.7882 518.4689,297.3543 517.6816,299.1228 517.2283,301.9843 517.4307,322.4292 518.4689,325.1339 520.2921,327.3853 522.7219,328.9632 525.5203,329.7131 527.4561,329.7131 529.3496,329.3106 531.931,327.9953 533.3696,326.7 534.5074,325.1339 535.2948,323.3654 535.6973,321.4719 535.748,227.9055 536.2012,225.0441 537.5165,222.4627 538.8118,221.0241 540.378,219.8863 543.0826,218.848 564.4955,218.5949 566.389,218.1925 568.1575,217.4051 570.409,215.5819 571.9868,213.1521 572.5851,211.3111 573.2406,206.5244 574.5559,203.943 576.6044,201.8945 579.1858,200.5792 582.0472,200.126 619.0866,200.126 621.0118,199.9236 623.7165,198.8854 625.968,197.0622 627.5459,194.6325 628.1441,192.7914 628.3465,190.8661"/>
    <line x1="646.8661" x2="646.8661" y1="190.8661" y2="200.126"/>
    <line x1="665.3858" x2="665.3858" y1="292.7244" y2="329.7638"/>
    <polyline points="674.6457,329.7638 655.1581,329.7131 653.2645,329.3106 651.4961,328.5232 649.2446,326.7 647.6667,324.2703 647.0685,322.4292 646.4129,317.6425 645.6256,315.874 644.4877,314.3079 643.0491,313.0126 641.3726,312.0446 639.5315,311.4464 634.7449,310.7909 632.1635,309.4756 630.7249,308.1803 629.587,306.6142 628.7997,304.8457 628.3465,301.9843 628.7997,299.1228 630.1149,296.5415 632.1635,294.4929 633.84,293.525 635.6811,292.9268 637.6063,292.7244 674.6457,292.7244"/>
    <line x1="674.6457" x2="665.3858" y1="311.2441" y2="311.2441"/>
    <polyline points="674.6457,348.2835 671.7842,348.7367 669.2029,350.0519 667.1543,352.1005 665.839,354.6819 665.3858,357.5433 665.3858,376.063 665.5882,377.9882 666.1864,379.8293 667.1543,381.5058 668.4496,382.9444 670.0157,384.0823 671.7842,384.8696 674.6457,385.3228"/>
    <polyline points="665.3858,366.8031 636.6384,366.8539 634.7449,367.2564 632.9764,368.0437 630.7249,369.8669 629.587,371.4331 628.7997,373.2015 628.3465,376.063 628.5488,377.9882 629.147,379.8293 630.1149,381.5058 631.4103,382.9444 633.84,384.5223 636.6384,385.2721 646.8661,385.3228"/>
    <polyline points="674.6457,422.3622 671.7842,422.8154 670.0157,423.6028 668.4496,424.7406 667.1543,426.1792 666.1864,427.8557 665.5882,429.6968 665.3858,431.622 665.3858,450.1417 665.839,453.0032 667.1543,455.5845 669.2029,457.6331 671.7842,458.9484 674.6457,459.4016"/>
    <line x1="674.6457" x2="609.8268" y1="440.8819" y2="440.8819"/>
    <polyline points="646.8661,459.4016 646.9169,469.6293 647.6667,472.4277 648.6346,474.1042 649.9299,475.5428 652.3597,477.1207 654.2008,477.7189 658.9874,478.3745 660.7559,479.1618 662.322,480.2997 663.6174,481.7383 664.5853,483.4148 665.1835,485.2559 665.839,490.0426 667.1543,492.6239 668.4496,494.0625 670.0157,495.2004 672.7204,496.2386 674.6457,496.4409"/>
    <polyline points="674.6457,514.9606 655.1581,514.9099 652.3597,514.1601 650.6832,513.1922 648.6346,511.1436 647.6667,509.4671 647.0685,507.626 646.8154,486.2132 646.4129,484.3197 645.6256,482.5512 643.8023,480.2997 642.2362,479.1618 640.4677,478.3745 637.6063,477.9213 628.3465,477.9213"/>
    <polyline points="674.6457,477.9213 672.7204,477.7189 670.8794,477.1207 669.2029,476.1528 667.7643,474.8575 666.6264,473.2913 665.839,471.5229 665.1835,466.7362 664.1452,464.0315 662.322,461.78 659.8923,460.2021 658.0512,459.6039 656.126,459.4016 637.6063,459.4016 634.7449,459.8548 632.1635,461.17 630.7249,462.4654 629.587,464.0315 628.7997,465.8 628.3972,467.6935 628.3465,505.7008 628.1441,507.626 627.1059,510.3307 625.2827,512.5822 622.8529,514.1601 620.0545,514.9099 526.4882,514.9606 524.563,514.7583 521.8583,513.72 520.2921,512.5822 518.9968,511.1436 517.6816,508.5622 517.2283,505.7008 517.6816,502.8393 518.9968,500.258 520.2921,498.8194 522.7219,497.2415 525.5203,496.4917 545.0079,496.4409 546.9331,496.6433 549.6378,497.6815 551.2039,498.8194 552.4992,500.258 553.8145,502.8393 554.2677,505.7008 554.2677,542.7402 554.7209,545.6016 556.0362,548.183 557.3315,549.6216 558.8976,550.7594 561.6023,551.7977 565.4528,552.2023 567.2939,552.8006 568.9704,553.7685 571.0189,555.817 572.3342,558.3984 572.7367,560.2919 572.7874,570.5197"/>
    <polyline points="554.2677,570.5197 554.0654,559.3346 553.4672,557.4935 552.4992,555.817 551.2039,554.3784 549.6378,553.2406 547.8693,552.4532 545.9758,552.0507 524.563,551.7977 521.8583,550.7594 520.2921,549.6216 518.9968,548.183 517.6816,545.6016 517.2791,543.7081 517.026,522.2952 515.9878,519.5906 514.8499,518.0244 513.4113,516.7291 510.83,515.4138 507.9685,514.9606 469.9612,514.9099 468.0677,514.5074 466.2992,513.72 464.7331,512.5822 463.4378,511.1436 462.1225,508.5622 461.6693,505.7008 461.6693,468.6614 462.1225,465.8 462.9099,464.0315 464.7331,461.78 466.2992,460.6422 468.0677,459.8548 470.9291,459.4016 480.189,459.4016"/>
    <polyline points="461.6693,440.8819 461.6186,451.1096 460.8687,453.908 459.9008,455.5845 457.8522,457.6331 456.1758,458.601 453.3774,459.3508 451.4415,459.3508 449.548,458.9484 447.7795,458.161 445.528,456.3378 444.3902,454.7717 443.6028,453.0032 442.9473,448.2165 441.909,445.5118 440.0858,443.2603 438.5197,442.1225 436.7512,441.3351 433.8898,440.8819 414.4022,440.9326 412.5086,441.3351 410.7402,442.1225 409.174,443.2603 407.3508,445.5118 406.3126,448.2165 406.1102,450.1417 406.1102,524.2205 406.3126,526.1457 406.9108,527.9868 407.8787,529.6633 409.9273,531.7118 412.5086,533.0271 414.4022,533.4296 489.4488,533.4803 491.374,533.6827 493.2151,534.2809 495.6449,535.8588 496.9402,537.2974 497.9081,538.9738 498.5063,540.8149 498.7087,542.7402 498.7594,617.7868 499.5092,620.5852 500.4771,622.2617 501.7725,623.7003 504.2022,625.2782 506.0433,625.8764 507.9685,626.0787 527.4561,626.028 529.3496,625.6255 531.1181,624.8382 533.3696,623.0149 534.9475,620.5852 535.6973,617.7868 535.748,589.0394"/>
    <polyline points="554.2677,589.0394 554.2677,616.8189 553.8145,619.6803 552.4992,622.2617 550.4507,624.3103 547.8693,625.6255 543.0826,626.2811 541.2416,626.8793 538.8118,628.4572 536.9886,630.7087 536.2012,632.4771 535.7988,634.3707 535.748,653.8583 535.2948,656.7197 533.9796,659.3011 531.931,661.3496 529.3496,662.6649 526.4882,663.1181 507.0006,663.0674 505.1071,662.6649 503.3386,661.8775 501.0871,660.0543 499.5092,657.6246 498.7594,654.8262 498.5063,633.4134 497.4681,630.7087 496.3302,629.1425 494.8916,627.8472 492.3103,626.5319 489.4488,626.0787 486.5874,626.5319 484.006,627.8472 482.5674,629.1425 481.4296,630.7087 480.6422,632.4771 479.9866,637.2638 479.3884,639.1049 477.8105,641.5346 475.5591,643.3578 472.8544,644.3961 469.9612,644.5477 468.0677,644.1452 466.2992,643.3578 464.0477,641.5346 462.9099,639.9685 462.1225,638.2 461.6693,635.3386 461.6693,589.0394"/>
    <polyline points="443.1496,607.5591 433.8898,607.5591 431.0283,607.1058 428.447,605.7906 427.0084,604.4953 425.8705,602.9291 425.0831,601.1607 424.6806,599.2671 424.5792,578.8116 424.1767,576.9181 423.3893,575.1496 421.5661,572.8981 419.1364,571.3202 416.338,570.5704 406.1102,570.5197"/>
    <polyline points="406.1102,589.0394 406.161,560.2919 406.5634,558.3984 407.3508,556.6299 408.4887,555.0638 409.9273,553.7685 412.5086,552.4532 415.3701,552.0 470.9291,552.0 473.7906,551.5468 475.5591,550.7594 477.1252,549.6216 478.9484,547.3701 479.7358,545.6016 480.189,542.7402 480.189,533.4803"/>
    <polyline points="480.189,514.9606 480.189,450.1417 479.7358,447.2803 478.4205,444.6989 477.1252,443.2603 475.5591,442.1225 473.7906,441.3351 470.9291,440.8819 451.4415,440.8312 449.548,440.4287 447.7795,439.6413 445.528,437.8181 443.9502,435.3884 443.2003,432.59 443.1496,413.1024 443.6028,410.2409 444.9181,407.6596 446.2134,406.221 448.6431,404.6431 451.4415,403.8932 517.2283,403.8425"/>
    <polyline points="498.7087,403.8425 498.7594,414.0703 499.1619,415.9638 499.9492,417.7323 501.7725,419.9838 504.2022,421.5616 507.0006,422.3115 509.8937,422.1599 512.5984,421.1216 514.1645,419.9838 515.9878,417.7323 516.7751,415.9638 517.2283,413.1024 517.4307,392.6574 518.0289,390.8164 518.9968,389.1399 521.0454,387.0913 522.7219,386.1234 524.563,385.5252 526.4882,385.3228 582.0472,385.3228 584.9087,384.8696 586.6772,384.0823 588.9286,382.259 590.0665,380.6929 590.8539,378.9244 591.2564,377.0309 591.3071,348.2835"/>
    <polyline points="609.8268,348.2835 582.0472,348.2835 580.122,348.0811 578.2809,347.4829 576.6044,346.515 575.1658,345.2197 574.028,343.6535 572.9898,340.9489 572.7367,319.536 572.3342,317.6425 571.5468,315.874 569.7236,313.6225 567.2939,312.0446 564.4955,311.2948 535.748,311.2441"/>
    <polyline points="554.2677,311.2441 554.2677,320.5039 554.7209,323.3654 555.5083,325.1339 556.6462,326.7 558.0848,327.9953 559.7612,328.9632 561.6023,329.5614 563.5276,329.7638 601.5348,329.8145 603.4284,330.217 606.0097,331.5323 607.4483,332.8276 608.5862,334.3937 609.3736,336.1622 609.8268,339.0236 609.8268,394.5827 609.6244,396.5079 608.5862,399.2126 606.763,401.4641 604.3332,403.042 601.5348,403.7918 535.748,403.8425"/>
    <polyline points="554.2677,366.8031 554.2677,357.5433 553.8145,354.6819 553.0271,352.9134 551.8893,351.3473 549.6378,349.524 547.8693,348.7367 545.9758,348.3342 544.04,348.3342 541.2416,349.084 539.5651,350.0519 538.1265,351.3473 536.5486,353.777 535.9504,355.6181 535.2948,360.4048 534.5074,362.1732 533.3696,363.7394 531.931,365.0347 529.3496,366.3499 527.4561,366.7524 524.563,366.6008 522.7219,366.0026 521.0454,365.0347 518.9968,362.9861 517.6816,360.4048 517.026,355.6181 515.9878,352.9134 514.1645,350.6619 511.7348,349.084 509.8937,348.4858 507.9685,348.2835 488.4809,348.2327 486.5874,347.8303 484.006,346.515 481.9574,344.4664 480.9895,342.7899 480.3913,340.9489 479.9866,337.0984 478.9484,334.3937 477.1252,332.1422 474.6955,330.5643 472.8544,329.9661 470.9291,329.7638 396.8504,329.7638 394.9252,329.5614 392.2205,328.5232 390.6543,327.3853 389.359,325.9467 388.3911,324.2703 387.6413,321.4719 387.5906,311.2441"/>
    <polyline points="406.1102,348.2835 416.338,348.3342 419.1364,349.084 421.5661,350.6619 422.8614,352.1005 424.1767,354.6819 424.5792,356.5754 424.6299,514.9606"/>
    <line x1="424.6299" x2="424.6299" y1="533.4803" y2="552.0"/>
    <polyline points="387.5906,570.5197 359.811,570.5197 356.9496,570.9729 355.1811,571.7603 353.615,572.8981 351.7918,575.1496 351.0044,576.9181 350.6019,578.8116 350.6019,580.7474 351.0044,582.641 351.7918,584.4094 353.615,586.6609 356.0447,588.2388 358.8431,588.9886 434.8577,588.9886 436.7512,588.5862 438.5197,587.7988 440.0858,586.6609 441.3811,585.2223 442.3491,583.5458 442.9473,581.7048 443.6028,576.9181 444.3902,575.1496 445.528,573.5835 446.9666,572.2882 448.6431,571.3202 450.4842,570.722 452.4094,570.5197 470.9291,570.5197 473.7906,570.9729 475.5591,571.7603 477.1252,572.8981 478.9484,575.1496 479.9866,577.8543 480.1382,580.7474 479.3884,583.5458 477.8105,585.9756 475.5591,587.7988 473.7906,588.5862 470.9291,589.0394 451.4415,589.0901 449.548,589.4926 447.7795,590.28 446.2134,591.4178 444.9181,592.8564 443.6028,595.4378 443.1496,598.2992 443.0989,636.3065 442.6964,638.2 441.909,639.9685 440.7712,641.5346 439.3326,642.83 436.7512,644.1452 434.8577,644.5477 396.8504,644.5984 394.9252,644.8008 393.0841,645.399 390.6543,646.9769 388.8311,649.2283 387.7929,651.933 387.3882,655.7835 386.35,658.4882 384.5268,660.7397 382.097,662.3176 380.2559,662.9158 378.3307,663.1181 358.8431,663.1688 356.0447,663.9187 353.615,665.4965 351.7918,667.748 350.7535,670.4527 350.5512,681.6378"/>
    <line x1="332.0315" x2="332.0315" y1="681.6378" y2="700.1575"/>
    <polyline points="313.5118,681.6378 313.4611,652.8904 313.0586,650.9968 312.2712,649.2283 310.448,646.9769 308.0183,645.399 306.1772,644.8008 304.252,644.5984 248.6929,644.5984 246.7677,644.3961 244.9266,643.7979 243.2501,642.83 241.2015,640.7814 240.2336,639.1049 239.6354,637.2638 239.4331,616.8189 238.9799,613.9574 238.1925,612.189 236.3693,609.9375 234.8031,608.7996 233.0347,608.0123 231.1411,607.6098 229.2053,607.6098 227.3118,608.0123 225.5433,608.7996 223.2918,610.6229 222.154,612.189 221.3666,613.9574 220.9134,616.8189 220.9134,644.5984"/>
    <polyline points="220.9134,663.1181 220.9134,709.4173 221.3666,712.2788 222.6819,714.8601 224.7304,716.9087 226.4069,717.8766 229.2053,718.6264 232.0985,718.4748 233.9395,717.8766 236.3693,716.2987 238.1925,714.0472 239.2307,711.3426 239.4331,709.4173 239.3823,689.9297 238.9799,688.0362 238.1925,686.2677 237.0546,684.7016 235.616,683.4063 233.0347,682.091 230.1732,681.6378 192.1659,681.6885 189.3675,682.4384 186.9378,684.0162 185.1146,686.2677 184.3272,688.0362 183.874,690.8976 183.8233,710.3852 183.4208,712.2788 182.6334,714.0472 180.8102,716.2987 178.3805,717.8766 175.5821,718.6264 154.1693,718.8795 151.4646,719.9177 149.2131,721.741 148.0752,723.3071 147.2879,725.0756 146.8346,727.937 146.8346,820.5354 146.6323,822.4607 146.0341,824.3018 145.0662,825.9782 143.7708,827.4168 142.2047,828.5547 139.5,829.5929 134.7134,830.2485 132.9449,831.0359 131.3788,832.1737 130.0834,833.6123 129.1155,835.2888 128.5173,837.1299 127.8618,841.9166 126.5465,844.4979 124.4979,846.5465 122.8214,847.5144 120.9803,848.1126 119.0551,848.315"/>
    <polyline points="119.0551,829.7953 120.9803,829.5929 122.8214,828.9947 124.4979,828.0268 125.9365,826.7315 127.5144,824.3018 128.1126,822.4607 128.315,820.5354 128.315,802.0157 127.8618,799.1543 126.5465,796.5729 124.4979,794.5244 121.9166,793.2091 119.0551,792.7559"/>
    <line x1="119.0551" x2="128.315" y1="811.2756" y2="811.2756"/>
    <line x1="146.8346" x2="165.3543" y1="811.2756" y2="811.2756"/>
    <polyline points="165.3543,829.7953 155.1266,829.846 152.3282,830.5958 150.6517,831.5637 149.2131,832.8591 148.0752,834.4252 147.037,837.1299 146.8346,839.0551 146.8346,931.6535"/>
    <polyline points="165.3543,931.6535 165.3543,876.0945 164.9011,873.233 164.1137,871.4646 162.9759,869.8984 161.5373,868.6031 158.9559,867.2879 156.0945,866.8346 146.8346,866.8346"/>
    <polyline points="146.8346,848.315 136.6069,848.3657 133.8085,849.1155 131.3788,850.6934 129.5555,852.9449 128.5173,855.6496 128.315,857.5748 128.3657,877.0624 129.1155,879.8608 130.0834,881.5373 132.132,883.5859 133.8085,884.5538 135.6496,885.152 146.8346,885.3543"/>
    <line x1="146.8346" x2="119.0551" y1="903.874" y2="903.874"/>
    <polyline points="128.315,903.874 128.315,913.1339 128.7682,915.9953 129.5555,917.7638 130.6934,919.3299 132.132,920.6252 134.7134,921.9405 137.5748,922.3937 174.6142,922.3937 176.5394,922.1914 178.3805,921.5931 180.8102,920.0153 182.1055,918.5767 183.0735,916.9002 183.6717,915.0591 183.874,913.1339 183.874,857.5748 184.0764,855.6496 184.6746,853.8085 185.6425,852.132 186.9378,850.6934 188.5039,849.5555 190.2724,848.7682 192.1659,848.3657 194.1018,848.3657 195.9953,848.7682 198.5767,850.0834 200.0153,851.3788 201.1531,852.9449 202.1914,855.6496 202.3937,876.0945 201.9405,878.9559 201.1531,880.7244 200.0153,882.2905 198.5767,883.5859 195.9953,884.9011 193.1339,885.3543 183.874,885.3543"/>
    <line x1="183.874" x2="165.3543" y1="903.874" y2="903.874"/>
    <polyline points="183.874,931.6535 184.0764,929.7283 185.1146,927.0236 186.9378,924.7721 189.3675,923.1943 191.2086,922.5961 193.1339,922.3937 213.5788,922.1914 215.4199,921.5931 217.8496,920.0153 219.6728,917.7638 220.4602,915.9953 220.9134,913.1339 220.711,911.2086 219.6728,908.5039 218.5349,906.9378 217.0963,905.6425 215.4199,904.6746 213.5788,904.0764 208.7921,903.4208 206.2107,902.1055 204.7721,900.8102 203.6343,899.2441 202.5961,896.5394 202.3937,894.6142 202.5961,892.6889 203.1943,890.8479 204.1622,889.1714 205.4575,887.7328 207.0236,886.5949 208.7921,885.8075 213.5788,885.152 216.2835,884.1137 218.5349,882.2905 219.6728,880.7244 220.4602,878.9559 220.9134,876.0945 220.9134,829.7953"/>
    <polyline points="202.3937,829.7953 202.343,819.5675 201.9405,817.674 200.6252,815.0926 198.5767,813.0441 196.9002,812.0761 195.0591,811.4779 191.2086,811.0732 188.5039,810.035 186.2525,808.2118 184.6746,805.7821 183.9247,802.9837 184.0764,800.0905 185.1146,797.3858 186.2525,795.8197 187.6911,794.5244 190.2724,793.2091 193.1339,792.7559 211.6535,792.7559 214.515,793.2091 217.0963,794.5244 218.5349,795.8197 219.6728,797.3858 220.711,800.0905 221.3666,804.8772 222.154,806.6457 223.9772,808.8972 226.4069,810.475 228.248,811.0732 230.1732,811.2756 233.0347,810.8224 235.616,809.5071 237.0546,808.2118 238.1925,806.6457 239.2307,803.941 239.4331,783.4961 239.6354,781.5708 240.2336,779.7297 241.8115,777.3 243.2501,776.0047 245.8315,774.6894 248.6929,774.2362 251.5544,774.6894 254.1357,776.0047 255.5743,777.3 257.1522,779.7297 257.902,782.5281 257.9528,792.7559"/>
    <polyline points="257.9528,811.2756 257.7504,822.4607 256.7122,825.1654 254.889,827.4168 252.4592,828.9947 250.6181,829.5929 248.6929,829.7953 246.7677,829.5929 244.9266,828.9947 243.2501,828.0268 241.8115,826.7315 240.6737,825.1654 239.8863,823.3969 239.4331,820.5354 239.6354,818.6102 240.2336,816.7691 241.2015,815.0926 242.4969,813.654 244.9266,812.0761 247.725,811.3263 268.1805,811.2249 270.074,810.8224 271.8425,810.035 274.094,808.2118 275.2319,806.6457 276.0192,804.8772 276.4217,802.9837 276.4217,801.0478 276.0192,799.1543 275.2319,797.3858 274.094,795.8197 272.6554,794.5244 270.9789,793.5565 268.1805,792.8066 230.1732,792.7559 228.248,792.5536 226.4069,791.9554 223.9772,790.3775 222.154,788.126 221.3666,786.3575 220.9134,783.4961 221.1157,781.5708 222.154,778.8661 223.9772,776.6147 225.5433,775.4768 227.3118,774.6894 232.0985,774.0339 233.9395,773.4357 236.3693,771.8578 238.1925,769.6063 238.9799,767.8378 239.3823,765.9443 239.4331,755.7165"/>
    <polyline points="220.9134,755.7165 221.1157,744.5315 222.154,741.8268 223.9772,739.5753 226.4069,737.9974 229.2053,737.2476 249.6608,737.1461 251.5544,736.7436 253.3228,735.9563 255.5743,734.1331 256.7122,732.5669 257.4995,730.7985 257.902,728.9049 257.902,726.9691 257.4995,725.0756 256.7122,723.3071 255.5743,721.741 254.1357,720.4456 252.4592,719.4777 250.6181,718.8795 248.6929,718.6772 246.7677,718.8795 244.9266,719.4777 242.4969,721.0556 240.6737,723.3071 239.6354,726.0118 239.4331,737.1969"/>
    <polyline points="257.9528,755.7165 258.1551,766.9016 259.1933,769.6063 261.0166,771.8578 263.4463,773.4357 266.2447,774.1855 286.7002,774.2869 288.5937,774.6894 290.3622,775.4768 292.6137,777.3 294.1916,779.7297 294.7898,781.5708 295.4453,786.3575 296.2327,788.126 297.3706,789.6921 298.8092,790.9874 300.4857,791.9554 302.3267,792.5536 307.1134,793.2091 308.8819,793.9965 310.448,795.1343 312.2712,797.3858 313.0586,799.1543 313.7142,803.941 314.3124,805.7821 315.8902,808.2118 317.3289,809.5071 319.0053,810.475 320.8464,811.0732 322.7717,811.2756 325.6331,810.8224 328.2145,809.5071 329.6531,808.2118 330.7909,806.6457 331.5783,804.8772 331.9808,802.9837 331.8291,800.0905 330.7909,797.3858 329.6531,795.8197 328.2145,794.5244 325.6331,793.2091 320.8464,792.5536 318.1417,791.5153 315.8902,789.6921 314.3124,787.2624 313.7142,785.4213 313.5118,783.4961 313.4611,764.0085 313.0586,762.1149 312.2712,760.3465 311.1334,758.7803 309.6948,757.485 308.0183,756.5171 306.1772,755.9189 284.7644,755.6658 281.966,754.916 279.5362,753.3381 277.713,751.0866 276.9256,749.3181 276.5232,747.4246 276.4724,727.937 276.9256,725.0756 278.2409,722.4942 280.2895,720.4456 281.966,719.4777 284.7644,718.7279 322.7717,718.6772 324.6969,718.8795 327.4016,719.9177 329.6531,721.741 330.7909,723.3071 331.5783,725.0756 331.9808,726.9691 331.9808,747.4246 331.2309,750.223 329.6531,752.6527 328.2145,753.9481 326.538,754.916 324.6969,755.5142 322.7717,755.7165 320.8464,755.5142 319.0053,754.916 316.5756,753.3381 314.7524,751.0866 313.7142,748.3819 313.5118,737.1969"/>
    <line x1="332.0315" x2="276.4724" y1="737.1969" y2="737.1969"/>
    <polyline points="276.4724,774.2362 276.4217,764.0085 275.6719,761.2101 274.094,758.7803 272.6554,757.485 270.074,756.1697 267.2126,755.7165 211.6535,755.7165 209.7283,755.9189 207.8872,756.5171 206.2107,757.485 204.1622,759.5336 202.8469,762.1149 202.1914,766.9016 201.5931,768.7427 200.0153,771.1724 198.5767,772.4677 196.9002,773.4357 195.0591,774.0339 192.1659,774.1855 189.3675,773.4357 187.6911,772.4677 186.2525,771.1724 184.6746,768.7427 183.9247,765.9443 183.9247,764.0085 184.3272,762.1149 185.6425,759.5336 187.6911,757.485 189.3675,756.5171 191.2086,755.9189 195.9953,755.2633 198.5767,753.9481 200.0153,752.6527 201.1531,751.0866 202.1914,748.3819 202.3937,746.4567 202.3937,700.1575"/>
    <polyline points="202.3937,681.6378 202.3937,653.8583 202.5961,651.933 203.6343,649.2283 205.4575,646.9769 207.0236,645.839 209.7283,644.8008 231.1411,644.6492 233.0347,645.0516 234.8031,645.839 237.0546,647.6622 238.6325,650.092 239.3823,652.8904 239.6354,674.3032 240.6737,677.0079 241.8115,678.574 243.2501,679.8693 245.8315,681.1846 248.6929,681.6378 267.2126,681.6378 270.074,681.1846 271.8425,680.3972 273.4086,679.2594 274.704,677.8208 276.0192,675.2394 276.4724,672.378 276.4724,663.1181"/>
    <polyline points="276.4724,644.5984 276.4217,504.7329 276.0192,502.8393 275.2319,501.0709 273.4086,498.8194 270.9789,497.2415 269.1378,496.6433 267.2126,496.4409 265.2874,496.6433 263.4463,497.2415 261.0166,498.8194 259.1933,501.0709 258.406,502.8393 258.0035,504.7329 258.1551,507.626 259.1933,510.3307 261.0166,512.5822 262.5827,513.72 264.3511,514.5074 267.2126,514.9606 285.7323,514.9606 287.6575,514.7583 290.3622,513.72 291.9283,512.5822 293.7515,510.3307 294.5389,508.5622 294.9414,506.6687 294.7898,485.2559 293.7515,482.5512 292.6137,480.9851 291.1751,479.6897 288.5937,478.3745 283.8071,477.7189 281.966,477.1207 280.2895,476.1528 278.8509,474.8575 277.713,473.2913 276.9256,471.5229 276.2701,466.7362 275.6719,464.8951 274.704,463.2186 273.4086,461.78 271.8425,460.6422 270.074,459.8548 265.2874,459.1992 263.4463,458.601 261.7698,457.6331 259.7212,455.5845 258.7533,453.908 258.0035,451.1096 257.902,430.6541 257.4995,428.7606 256.7122,426.9921 254.889,424.7406 252.4592,423.1628 249.6608,422.4129 220.9134,422.3622"/>
    <polyline points="202.3937,422.3622 173.6463,422.3115 170.8479,421.5616 168.4181,419.9838 167.1228,418.5452 166.1549,416.8687 165.5567,415.0276 165.3543,413.1024 165.4051,393.6148 165.8075,391.7212 167.1228,389.1399 168.4181,387.7013 169.9843,386.5634 171.7527,385.776 173.6463,385.3736 230.1732,385.3228 232.0985,385.1205 233.9395,384.5223 235.616,383.5544 237.0546,382.259 238.1925,380.6929 239.2307,377.9882 239.4331,376.063 239.2307,374.1378 238.6325,372.2967 237.6646,370.6202 235.616,368.5716 233.0347,367.2564 231.1411,366.8539 193.1339,366.8031 190.2724,366.3499 187.6911,365.0347 186.2525,363.7394 185.1146,362.1732 184.3272,360.4048 183.9247,358.5112 183.874,320.5039 183.4208,317.6425 182.1055,315.0611 180.8102,313.6225 179.2441,312.4847 177.4756,311.6973 175.5821,311.2948 156.0945,311.2441 154.1693,311.4464 152.3282,312.0446 150.6517,313.0126 148.6031,315.0611 147.2879,317.6425 146.8854,319.536 146.8346,357.5433 147.037,359.4685 147.6352,361.3096 148.6031,362.9861 149.8984,364.4247 151.4646,365.5626 154.1693,366.6008 175.5821,366.8539 177.4756,367.2564 180.057,368.5716 182.1055,370.6202 183.0735,372.2967 183.6717,374.1378 183.874,385.3228"/>
    <polyline points="202.3937,403.8425 231.1411,403.8932 233.0347,404.2957 234.8031,405.0831 236.3693,406.221 237.6646,407.6596 238.9799,410.2409 239.4331,413.1024 239.4331,450.1417 239.2307,452.067 238.1925,454.7717 236.3693,457.0231 234.8031,458.161 232.0985,459.1992 230.1732,459.4016 193.1339,459.4016 190.2724,459.8548 187.6911,461.17 186.2525,462.4654 185.1146,464.0315 184.3272,465.8 183.9247,467.6935 183.874,487.1811 184.0764,489.1063 184.6746,490.9474 186.2525,493.3771 188.5039,495.2004 191.2086,496.2386 195.9953,496.8942 197.7638,497.6815 200.0153,499.5047 201.1531,501.0709 201.9405,502.8393 202.5961,507.626 203.1943,509.4671 204.7721,511.8968 206.2107,513.1922 208.7921,514.5074 213.5788,515.163 215.4199,515.7612 217.0963,516.7291 218.5349,518.0244 219.6728,519.5906 220.4602,521.359 221.1157,526.1457 221.7139,527.9868 223.2918,530.4165 225.5433,532.2397 227.3118,533.0271 230.1732,533.4803 257.9528,533.4803"/>
    <polyline points="276.4724,533.4803 322.7717,533.4803 324.6969,533.278 326.538,532.6798 328.2145,531.7118 330.263,529.6633 331.5783,527.0819 332.0315,524.2205 331.8291,522.2952 331.2309,520.4542 330.263,518.7777 328.9677,517.3391 327.4016,516.2012 325.6331,515.4138 320.8464,514.7583 318.1417,513.72 315.8902,511.8968 314.3124,509.4671 313.7142,507.626 313.5118,505.7008 313.4611,486.2132 312.7113,483.4148 311.7433,481.7383 309.6948,479.6897 308.0183,478.7218 306.1772,478.1236 301.3905,477.4681 298.8092,476.1528 297.3706,474.8575 296.2327,473.2913 295.4453,471.5229 294.7898,466.7362 294.1916,464.8951 292.6137,462.4654 291.1751,461.17 288.5937,459.8548 283.8071,459.1992 281.966,458.601 280.2895,457.6331 278.2409,455.5845 277.273,453.908 276.5232,451.1096 276.4724,440.8819"/>
    <polyline points="276.4724,422.3622 276.5232,393.6148 277.273,390.8164 278.2409,389.1399 280.2895,387.0913 281.966,386.1234 284.7644,385.3736 286.7002,385.3736 289.4986,386.1234 291.9283,387.7013 293.2237,389.1399 294.5389,391.7212 295.1945,396.5079 296.2327,399.2126 298.0559,401.4641 300.4857,403.042 302.3267,403.6402 304.252,403.8425 322.7717,403.8425 325.6331,403.3893 327.4016,402.6019 328.9677,401.4641 330.263,400.0255 331.5783,397.4441 332.2338,392.6574 332.8321,390.8164 333.8,389.1399 335.8485,387.0913 338.4299,385.776 340.3234,385.3736 350.5512,385.3228"/>
    <polyline points="387.5906,422.3622 387.3882,433.5473 386.35,436.252 384.5268,438.5035 382.097,440.0813 379.2986,440.8312 369.0709,440.8819"/>
    <polyline points="369.0709,459.4016 369.1216,430.6541 369.5241,428.7606 370.3114,426.9921 371.4493,425.426 372.8879,424.1307 375.4693,422.8154 378.3307,422.3622 424.6299,422.3622"/>
    <polyline points="424.6299,459.4016 341.2913,459.4016 338.4299,459.8548 335.8485,461.17 334.4099,462.4654 333.2721,464.0315 332.4847,465.8 332.0822,467.6935 332.0315,505.7008 332.4847,508.5622 333.2721,510.3307 335.0953,512.5822 336.6614,513.72 338.4299,514.5074 341.2913,514.9606 350.5512,514.9606"/>
    <polyline points="332.0315,496.4409 343.2166,496.6433 345.0577,497.2415 346.7341,498.2094 348.1727,499.5047 349.3106,501.0709 350.098,502.8393 350.5512,505.7008 350.5512,524.2205 350.3488,526.1457 349.7506,527.9868 348.1727,530.4165 345.9213,532.2397 343.2166,533.278 339.3661,533.6827 337.525,534.2809 335.0953,535.8588 333.2721,538.1102 332.4847,539.8787 332.0822,541.7722 331.8291,563.1851 331.2309,565.0262 330.263,566.7026 328.2145,568.7512 325.6331,570.0665 323.7396,570.469 294.9921,570.5197"/>
    <line x1="276.4724" x2="257.9528" y1="570.5197" y2="570.5197"/>
    <polyline points="257.9528,589.0394 247.725,588.9886 244.9266,588.2388 243.2501,587.2709 241.8115,585.9756 240.2336,583.5458 239.6354,581.7048 239.2307,577.8543 238.1925,575.1496 236.3693,572.8981 234.8031,571.7603 233.0347,570.9729 231.1411,570.5704 229.2053,570.5704 227.3118,570.9729 225.5433,571.7603 223.2918,573.5835 222.154,575.1496 221.3666,576.9181 220.9641,578.8116 221.1157,581.7048 221.7139,583.5458 222.6819,585.2223 223.9772,586.6609 226.4069,588.2388 228.248,588.837 233.0347,589.4926 235.616,590.8078 237.0546,592.1032 238.1925,593.6693 238.9799,595.4378 239.6354,600.2244 240.2336,602.0655 241.2015,603.742 242.4969,605.1806 244.9266,606.7585 247.725,607.5083 257.9528,607.5591"/>
    <polyline points="276.4724,607.5591 305.2199,607.5083 308.0183,606.7585 310.448,605.1806 312.2712,602.9291 313.0586,601.1607 313.4611,599.2671 313.5118,570.5197"/>
    <polyline points="313.5118,589.0394 323.7396,589.0901 325.6331,589.4926 328.2145,590.8078 330.263,592.8564 331.2309,594.5329 331.8291,596.374 332.2338,600.2244 333.2721,602.9291 335.0953,605.1806 337.525,606.7585 340.3234,607.5083 350.5512,607.5591"/>
    <polyline points="332.0315,626.0787 332.0822,654.8262 332.4847,656.7197 333.2721,658.4882 335.0953,660.7397 336.6614,661.8775 338.4299,662.6649 340.3234,663.0674 342.2593,663.0674 344.1528,662.6649 345.9213,661.8775 348.1727,660.0543 349.7506,657.6246 350.5005,654.8262 350.5512,644.5984"/>
    <polyline points="332.0315,644.5984 378.3307,644.5984 381.1922,644.1452 383.7735,642.83 385.2121,641.5346 386.35,639.9685 387.3882,637.2638 388.0438,632.4771 388.8311,630.7087 389.969,629.1425 391.4076,627.8472 393.9889,626.5319 398.7756,625.8764 401.4803,624.8382 403.7318,623.0149 404.8697,621.4488 405.657,619.6803 406.0595,617.7868 406.0595,615.851 405.3097,613.0526 404.3418,611.3761 403.0464,609.9375 401.4803,608.7996 398.7756,607.7614 396.8504,607.5591 378.3307,607.5591 375.4693,608.0123 373.7008,608.7996 372.1347,609.9375 370.3114,612.189 369.2732,614.8937 369.1216,617.7868 369.5241,619.6803 370.3114,621.4488 372.1347,623.7003 374.5644,625.2782 376.4055,625.8764 378.3307,626.0787 380.2559,625.8764 382.097,625.2782 384.5268,623.7003 386.35,621.4488 387.1373,619.6803 387.5398,617.7868 387.5906,477.9213"/>
    <polyline points="369.0709,477.9213 369.0709,542.7402 368.8685,544.6654 367.8303,547.3701 366.6924,548.9362 365.2538,550.2315 363.5773,551.1994 360.7789,551.9493 350.5512,552.0"/>
    <line x1="332.0315" x2="294.9921" y1="552.0" y2="552.0"/>
    <polyline points="294.9921,533.4803 294.9921,579.7795 294.5389,582.641 293.7515,584.4094 291.9283,586.6609 290.3622,587.7988 288.5937,588.5862 285.7323,589.0394 276.4724,589.0394"/>
    <polyline points="276.4724,552.0 267.2126,552.0 264.3511,552.4532 261.7698,553.7685 260.3312,555.0638 259.1933,556.6299 258.406,558.3984 257.9528,561.2598 257.9528,616.8189 257.7504,618.7441 257.1522,620.5852 256.1843,622.2617 254.889,623.7003 253.3228,624.8382 251.5544,625.6255 248.6929,626.0787 239.4331,626.0787"/>
    <polyline points="220.9134,626.0787 210.6856,626.028 207.8872,625.2782 206.2107,624.3103 204.7721,623.0149 203.1943,620.5852 202.5961,618.7441 202.1914,614.8937 201.1531,612.189 199.3299,609.9375 196.9002,608.3596 194.1018,607.6098 191.2086,607.7614 188.5039,608.7996 186.9378,609.9375 185.1146,612.189 184.3272,613.9574 183.9247,615.851 183.874,672.378 183.6717,674.3032 183.0735,676.1443 182.1055,677.8208 180.057,679.8693 178.3805,680.8372 176.5394,681.4354 156.0945,681.6378 153.233,681.1846 150.6517,679.8693 149.2131,678.574 148.0752,677.0079 147.037,674.3032 146.8346,672.378 147.037,670.4527 147.6352,668.6116 148.6031,666.9352 150.6517,664.8866 153.233,663.5713 158.0197,662.9158 160.7244,661.8775 162.9759,660.0543 164.1137,658.4882 164.9011,656.7197 165.3543,653.8583 165.3543,607.5591"/>
    <polyline points="165.3543,626.0787 155.1266,626.1295 153.233,626.5319 150.6517,627.8472 148.6031,629.8958 147.6352,631.5723 147.037,633.4134 146.6323,637.2638 145.5941,639.9685 143.7708,642.22 141.3411,643.7979 139.5,644.3961 137.5748,644.5984 119.0551,644.5984"/>
    <polyline points="119.0551,663.1181 137.5748,663.1181 139.5,662.9158 141.3411,662.3176 143.7708,660.7397 145.5941,658.4882 146.6323,655.7835 147.037,651.933 147.6352,650.092 149.2131,647.6622 150.6517,646.3669 152.3282,645.399 155.1266,644.6492 165.3543,644.5984"/>
    <polyline points="202.3937,663.1181 285.7323,663.1181 287.6575,663.3205 289.4986,663.9187 291.1751,664.8866 293.2237,666.9352 294.5389,669.5165 294.9414,671.41 294.9921,700.1575"/>
    <polyline points="294.9921,681.6378 360.7789,681.6885 362.6725,682.091 364.4409,682.8784 366.6924,684.7016 367.8303,686.2677 368.6177,688.0362 369.2732,692.8229 370.3114,695.5276 371.4493,697.0937 372.8879,698.389 374.5644,699.3569 376.4055,699.9551 378.3307,700.1575 434.8577,700.1068 437.6561,699.3569 440.0858,697.779 441.909,695.5276 442.9473,692.8229 443.1496,690.8976 443.1496,663.1181"/>
    <line x1="424.6299" x2="424.6299" y1="663.1181" y2="700.1575"/>
    <polyline points="443.1496,681.6378 453.3774,681.6885 455.2709,682.091 457.0394,682.8784 458.6055,684.0162 460.4287,686.2677 461.4669,688.9724 462.1225,693.7591 462.9099,695.5276 464.7331,697.779 466.2992,698.9169 469.0039,699.9551 471.8971,700.1068 474.6955,699.3569 477.1252,697.779 478.4205,696.3404 479.7358,693.7591 480.1382,691.8656 480.189,663.1181"/>
    <polyline points="498.7087,644.5984 545.0079,644.5984 546.9331,644.3961 549.6378,643.3578 551.2039,642.22 552.4992,640.7814 553.8145,638.2 554.4701,633.4134 555.5083,630.7087 556.6462,629.1425 558.0848,627.8472 560.6661,626.5319 563.5276,626.0787 600.5669,626.0787 603.4284,626.5319 606.0097,627.8472 608.0583,629.8958 609.0262,631.5723 609.776,634.3707 609.8268,644.5984"/>
    <polyline points="591.3071,644.5984 591.3578,654.8262 591.7603,656.7197 593.0756,659.3011 594.3709,660.7397 596.8006,662.3176 598.6417,662.9158 602.4922,663.3205 605.1969,664.3587 607.4483,666.1819 609.0262,668.6116 609.776,671.41 609.8268,681.6378"/>
    <polyline points="591.3071,681.6378 619.0866,681.6378 621.0118,681.8401 622.8529,682.4384 624.5294,683.4063 625.968,684.7016 627.1059,686.2677 627.8932,688.0362 628.3465,690.8976 628.3465,700.1575"/>
    <polyline points="628.3465,718.6772 628.3465,746.4567 628.7997,749.3181 629.587,751.0866 630.7249,752.6527 632.1635,753.9481 633.84,754.916 635.6811,755.5142 657.0939,755.7673 659.8923,756.5171 662.322,758.095 663.6174,759.5336 664.5853,761.2101 665.3351,764.0085 665.3858,783.4961 665.839,786.3575 667.1543,788.9389 669.2029,790.9874 671.7842,792.3027 674.6457,792.7559"/>
    <line x1="674.6457" x2="646.8661" y1="811.2756" y2="811.2756"/>
    <polyline points="665.3858,811.2756 665.3351,821.5034 664.5853,824.3018 663.0074,826.7315 661.5688,828.0268 658.9874,829.3421 656.126,829.7953 525.5203,829.7445 523.6267,829.3421 521.8583,828.5547 520.2921,827.4168 518.9968,825.9782 517.6816,823.3969 517.026,818.6102 516.4278,816.7691 515.4599,815.0926 514.1645,813.654 511.7348,812.0761 509.8937,811.4779 507.0006,811.3263 504.2022,812.0761 502.5257,813.0441 500.4771,815.0926 499.5092,816.7691 498.7594,819.5675 498.7087,876.0945 498.5063,878.0197 497.4681,880.7244 496.3302,882.2905 494.0787,884.1137 491.374,885.152 489.4488,885.3543 487.5236,885.152 484.8189,884.1137 482.5674,882.2905 481.4296,880.7244 480.6422,878.9559 480.189,876.0945 480.189,848.315"/>
    <polyline points="461.6693,848.315 508.9364,848.2642 511.7348,847.5144 513.4113,846.5465 514.8499,845.2512 515.9878,843.685 516.7751,841.9166 517.1776,840.023 517.1776,838.0872 516.7751,836.1937 515.9878,834.4252 514.1645,832.1737 511.7348,830.5958 508.9364,829.846 498.7087,829.7953"/>
    <polyline points="498.7087,792.7559 498.7087,802.0157 498.2555,804.8772 497.4681,806.6457 496.3302,808.2118 494.8916,809.5071 492.3103,810.8224 489.4488,811.2756 452.4094,811.2756 450.4842,811.0732 448.6431,810.475 446.2134,808.8972 444.3902,806.6457 443.352,803.941 442.9473,800.0905 442.3491,798.2494 440.7712,795.8197 438.5197,793.9965 436.7512,793.2091 434.8577,792.8066 413.4448,792.5536 411.6038,791.9554 409.9273,790.9874 407.8787,788.9389 406.9108,787.2624 406.161,784.464 406.1102,755.7165"/>
    <polyline points="424.6299,755.7165 424.6299,746.4567 424.1767,743.5952 423.3893,741.8268 422.2515,740.2606 420.8129,738.9653 419.1364,737.9974 417.2953,737.3992 415.3701,737.1969 387.5906,737.1969"/>
    <polyline points="387.5906,718.6772 387.5906,820.5354 387.7929,822.4607 388.8311,825.1654 389.969,826.7315 391.4076,828.0268 393.0841,828.9947 395.8825,829.7445 406.1102,829.7953"/>
    <polyline points="424.6299,829.7953 435.815,829.9976 437.6561,830.5958 439.3326,831.5637 440.7712,832.8591 441.909,834.4252 442.6964,836.1937 443.0989,838.0872 443.352,859.5 444.3902,862.2047 445.528,863.7708 446.9666,865.0662 448.6431,866.0341 451.4415,866.7839 480.189,866.8346"/>
    <polyline points="461.6693,866.8346 461.6693,839.0551 461.8716,837.1299 462.9099,834.4252 464.0477,832.8591 465.4863,831.5637 468.0677,830.2485 472.8544,829.5929 475.5591,828.5547 477.8105,826.7315 479.3884,824.3018 479.9866,822.4607 480.189,820.5354 480.189,792.7559"/>
    <line x1="461.6693" x2="461.6693" y1="811.2756" y2="774.2362"/>
    <polyline points="461.6693,737.1969 461.6693,709.4173 461.4669,707.4921 460.4287,704.7874 459.2909,703.2213 457.8522,701.926 455.2709,700.6107 452.4094,700.1575 450.4842,700.3598 448.6431,700.958 446.9666,701.926 445.528,703.2213 443.9502,705.651 443.352,707.4921 443.1496,709.4173 443.0989,728.9049 442.6964,730.7985 441.909,732.5669 440.0858,734.8184 437.6561,736.3963 435.815,736.9945 433.8898,737.1969 431.0283,736.7436 428.447,735.4284 426.3984,733.3798 425.0831,730.7985 424.6299,727.937 425.0831,725.0756 426.3984,722.4942 428.447,720.4456 430.1234,719.4777 432.9218,718.7279 470.9291,718.6772 472.8544,718.4748 474.6955,717.8766 477.1252,716.2987 478.9484,714.0472 479.9866,711.3426 480.6422,706.5559 481.9574,703.9745 484.006,701.926 486.5874,700.6107 489.4488,700.1575 507.9685,700.1575 509.8937,700.3598 511.7348,700.958 513.4113,701.926 515.4599,703.9745 516.4278,705.651 517.1776,708.4494 517.1776,728.9049 516.4278,731.7033 515.4599,733.3798 514.1645,734.8184 512.5984,735.9563 510.83,736.7436 508.9364,737.1461 489.4488,737.1969 486.5874,737.6501 484.006,738.9653 482.5674,740.2606 481.4296,741.8268 480.3913,744.5315 480.2397,747.4246 480.9895,750.223 482.5674,752.6527 484.8189,754.476 486.5874,755.2633 488.4809,755.6658 498.7087,755.7165"/>
    <polyline points="498.7087,737.1969 498.7594,765.9443 499.5092,768.7427 501.0871,771.1724 502.5257,772.4677 504.2022,773.4357 507.0006,774.1855 535.748,774.2362"/>
    <polyline points="517.2283,774.2362 517.2791,764.0085 517.6816,762.1149 518.9968,759.5336 521.0454,757.485 522.7219,756.5171 524.563,755.9189 529.3496,755.2633 531.931,753.9481 533.3696,752.6527 534.5074,751.0866 535.5457,748.3819 535.748,746.4567 535.748,700.1575"/>
    <polyline points="554.2677,700.1575 554.3184,747.4246 554.7209,749.3181 555.5083,751.0866 557.3315,753.3381 559.7612,754.916 561.6023,755.5142 563.5276,755.7165 619.0866,755.7165 621.0118,755.9189 623.7165,756.9571 625.2827,758.095 626.578,759.5336 627.8932,762.1149 628.5488,766.9016 629.147,768.7427 630.1149,770.4192 631.4103,771.8578 633.84,773.4357 635.6811,774.0339 637.6063,774.2362 639.5315,774.0339 642.2362,772.9956 644.4877,771.1724 646.0656,768.7427 646.8154,765.9443 646.8661,681.6378"/>
    <polyline points="674.6457,681.6378 636.6384,681.5871 633.84,680.8372 631.4103,679.2594 629.587,677.0079 628.7997,675.2394 628.3972,673.3459 628.3465,635.3386 627.8932,632.4771 627.1059,630.7087 625.968,629.1425 623.7165,627.3193 621.0118,626.2811 616.2252,625.6255 614.4567,624.8382 612.8906,623.7003 611.0674,621.4488 610.28,619.6803 609.8775,617.7868 610.0291,614.8937 610.6273,613.0526 611.5952,611.3761 612.8906,609.9375 614.4567,608.7996 616.2252,608.0123 621.0118,607.3567 623.7165,606.3185 625.2827,605.1806 626.578,603.742 627.5459,602.0655 628.1441,600.2244 628.3465,598.2992 628.3465,542.7402 628.7997,539.8787 630.1149,537.2974 631.4103,535.8588 632.9764,534.7209 634.7449,533.9335 636.6384,533.531 665.3858,533.4803"/>
    <polyline points="646.8661,533.4803 646.6638,544.6654 645.6256,547.3701 643.8023,549.6216 641.3726,551.1994 638.5742,551.9493 628.3465,552.0"/>
    <polyline points="628.3465,589.0394 618.1187,589.0901 616.2252,589.4926 613.6438,590.8078 612.2052,592.1032 610.6273,594.5329 610.0291,596.374 609.3736,601.1607 608.0583,603.742 606.0097,605.7906 604.3332,606.7585 602.4922,607.3567 600.5669,607.5591 526.4882,607.5591 523.6267,608.0123 521.8583,608.7996 520.2921,609.9375 518.4689,612.189 517.6816,613.9574 517.2283,616.8189 517.2283,626.0787"/>
    <polyline points="554.2677,663.1181 543.0826,663.3205 540.378,664.3587 538.1265,666.1819 536.5486,668.6116 535.7988,671.41 535.748,681.6378"/>
    <polyline points="517.2283,681.6378 517.2791,691.8656 518.0289,694.664 518.9968,696.3404 520.2921,697.779 521.8583,698.9169 524.563,699.9551 526.4882,700.1575 591.3071,700.1575"/>
    <polyline points="591.3071,718.6772 591.3071,672.378 590.8539,669.5165 590.0665,667.748 588.9286,666.1819 586.6772,664.3587 584.9087,663.5713 582.0472,663.1181 572.7874,663.1181"/>
    <polyline points="572.7874,626.0787 572.7874,709.4173 572.9898,711.3426 573.588,713.1836 574.5559,714.8601 575.8512,716.2987 578.2809,717.8766 580.122,718.4748 582.0472,718.6772 674.6457,718.6772"/>
    <polyline points="674.6457,737.1969 672.7204,736.9945 670.8794,736.3963 668.4496,734.8184 667.1543,733.3798 666.1864,731.7033 665.5882,729.8622 665.3858,727.937 665.3858,709.4173 665.839,706.5559 667.1543,703.9745 669.2029,701.926 671.7842,700.6107 674.6457,700.1575"/>
    <polyline points="674.6457,663.1181 671.7842,663.5713 669.2029,664.8866 667.1543,666.9352 665.839,669.5165 665.3858,672.378 665.3351,691.8656 664.5853,694.664 663.6174,696.3404 662.322,697.779 659.8923,699.3569 657.0939,700.1068 619.0866,700.1575 617.1614,700.3598 615.3203,700.958 613.6438,701.926 612.2052,703.2213 611.0674,704.7874 610.28,706.5559 609.8268,709.4173 609.8268,718.6772"/>
    <polyline points="591.3071,755.7165 591.2564,765.9443 590.5065,768.7427 588.9286,771.1724 586.6772,772.9956 583.9725,774.0339 572.7874,774.2362"/>
    <polyline points="572.7874,792.7559 620.0545,792.7052 622.8529,791.9554 624.5294,790.9874 625.968,789.6921 627.1059,788.126 627.8932,786.3575 628.2957,784.464 628.2957,782.5281 627.8932,780.6346 627.1059,778.8661 625.2827,776.6147 622.8529,775.0368 620.0545,774.2869 609.8268,774.2362"/>
    <line x1="591.3071" x2="591.3071" y1="792.7559" y2="811.2756"/>
    <polyline points="572.7874,811.2756 572.7874,746.4567 573.2406,743.5952 574.028,741.8268 575.8512,739.5753 578.2809,737.9974 580.122,737.3992 600.5669,737.1969 602.4922,737.3992 604.3332,737.9974 606.763,739.5753 608.5862,741.8268 609.3736,743.5952 609.776,745.4888 609.8268,811.2756"/>
    <polyline points="628.3465,829.7953 628.3972,858.5427 628.7997,860.4363 630.1149,863.0176 632.1635,865.0662 633.84,866.0341 635.6811,866.6323 637.6063,866.8346 656.126,866.8346 658.9874,866.3814 660.7559,865.5941 662.322,864.4562 663.6174,863.0176 664.5853,861.3411 665.1835,859.5 665.3858,848.315"/>
    <polyline points="674.6457,848.315 600.5669,848.315 598.6417,848.5173 596.8006,849.1155 594.3709,850.6934 592.5477,852.9449 591.7603,854.7134 591.3578,856.6069 591.3071,876.0945 591.7603,878.9559 592.5477,880.7244 593.6855,882.2905 595.937,884.1137 598.6417,885.152 603.4284,885.8075 605.1969,886.5949 606.763,887.7328 608.0583,889.1714 609.0262,890.8479 609.6244,892.6889 609.8268,894.6142 609.3736,897.4756 608.5862,899.2441 607.4483,900.8102 606.0097,902.1055 603.4284,903.4208 598.6417,904.0764 596.8006,904.6746 595.1241,905.6425 593.0756,907.6911 591.7603,910.2724 591.3578,912.1659 591.3071,922.3937"/>
    <polyline points="572.7874,931.6535 572.5851,911.2086 571.9868,909.3675 570.409,906.9378 568.9704,905.6425 566.389,904.3272 563.5276,903.874 561.6023,904.0764 559.7612,904.6746 558.0848,905.6425 556.0362,907.6911 555.0683,909.3675 554.4701,911.2086 553.8145,915.9953 553.0271,917.7638 551.8893,919.3299 549.6378,921.1531 547.8693,921.9405 545.0079,922.3937 543.0826,922.1914 540.378,921.1531 538.8118,920.0153 537.5165,918.5767 536.2012,915.9953 535.5457,911.2086 534.5074,908.5039 532.6842,906.2525 530.2545,904.6746 528.4134,904.0764 526.4882,903.874 489.4488,903.874 487.5236,903.6717 485.6825,903.0735 484.006,902.1055 481.9574,900.057 480.6422,897.4756 479.9866,892.6889 478.9484,889.9843 477.1252,887.7328 474.6955,886.1549 472.8544,885.5567 470.9291,885.3543 451.4415,885.3036 449.548,884.9011 447.7795,884.1137 445.528,882.2905 443.9502,879.8608 443.352,878.0197 442.6964,873.233 441.3811,870.6517 439.3326,868.6031 436.7512,867.2879 433.8898,866.8346 387.5906,866.8346"/>
    <polyline points="387.5906,848.315 358.8431,848.3657 356.0447,849.1155 354.3682,850.0834 352.9296,851.3788 351.7918,852.9449 351.0044,854.7134 350.6019,856.6069 350.6019,858.5427 351.0044,860.4363 351.7918,862.2047 353.615,864.4562 356.0447,866.0341 358.8431,866.7839 369.0709,866.8346"/>
    <polyline points="369.0709,848.315 369.0201,877.0624 368.6177,878.9559 367.8303,880.7244 366.6924,882.2905 365.2538,883.5859 362.6725,884.9011 359.811,885.3543 313.5118,885.3543"/>
    <polyline points="313.5118,903.874 359.811,903.874 361.7363,904.0764 363.5773,904.6746 365.2538,905.6425 366.6924,906.9378 367.8303,908.5039 368.8685,911.2086 369.0709,931.6535"/>
    <polyline points="369.0709,922.3937 322.7717,922.3937 319.9102,921.9405 317.3289,920.6252 315.8902,919.3299 314.7524,917.7638 313.965,915.9953 313.5625,914.1018 313.5118,876.0945 313.3095,874.1693 312.7113,872.3282 311.7433,870.6517 310.448,869.2131 308.8819,868.0752 307.1134,867.2879 304.252,866.8346 294.9921,866.8346"/>
    <polyline points="276.4724,848.315 287.6575,848.5173 289.4986,849.1155 291.1751,850.0834 292.6137,851.3788 293.7515,852.9449 294.7898,855.6496 294.9921,857.5748 294.9921,876.0945 294.5389,878.9559 293.7515,880.7244 291.9283,882.9759 289.4986,884.5538 287.6575,885.152 267.2126,885.3543 265.2874,885.5567 263.4463,886.1549 261.0166,887.7328 259.1933,889.9843 258.406,891.7527 258.0035,893.6463 258.1551,896.5394 258.7533,898.3805 260.3312,900.8102 261.7698,902.1055 264.3511,903.4208 267.2126,903.874 286.7002,903.9247 289.4986,904.6746 291.9283,906.2525 293.7515,908.5039 294.5389,910.2724 294.9414,912.1659 294.9921,931.6535"/>
    <polyline points="313.5118,931.6535 313.0586,928.7921 312.2712,927.0236 311.1334,925.4575 309.6948,924.1622 308.0183,923.1943 306.1772,922.5961 304.252,922.3937 267.2126,922.3937 265.2874,922.5961 262.5827,923.6343 260.3312,925.4575 259.1933,927.0236 258.406,928.7921 257.9528,931.6535"/>
    <polyline points="220.9134,931.6535 221.1157,929.7283 221.7139,927.8872 222.6819,926.2107 223.9772,924.7721 225.5433,923.6343 227.3118,922.8469 232.0985,922.1914 234.8031,921.1531 237.0546,919.3299 238.6325,916.9002 239.2307,915.0591 239.4331,913.1339 239.4838,893.6463 239.8863,891.7527 241.2015,889.1714 243.2501,887.1228 244.9266,886.1549 246.7677,885.5567 251.5544,884.9011 254.1357,883.5859 255.5743,882.2905 257.1522,879.8608 257.7504,878.0197 258.406,873.233 259.1933,871.4646 260.3312,869.8984 261.7698,868.6031 264.3511,867.2879 269.1378,866.6323 271.8425,865.5941 274.094,863.7708 275.6719,861.3411 276.2701,859.5 276.4724,857.5748 276.5232,819.5675 277.273,816.7691 278.8509,814.3394 280.2895,813.0441 281.966,812.0761 284.7644,811.3263 304.252,811.2756 307.1134,811.7288 309.6948,813.0441 311.1334,814.3394 312.2712,815.9055 313.0586,817.674 313.4611,819.5675 313.4611,821.5034 313.0586,823.3969 312.2712,825.1654 311.1334,826.7315 309.6948,828.0268 308.0183,828.9947 306.1772,829.5929 304.252,829.7953 302.3267,829.5929 300.4857,828.9947 298.8092,828.0268 297.3706,826.7315 296.2327,825.1654 295.1945,822.4607 294.9921,811.2756"/>
    <line x1="332.0315" x2="332.0315" y1="848.315" y2="931.6535"/>
    <polyline points="387.5906,931.6535 387.5906,839.0551 387.3882,837.1299 386.79,835.2888 385.2121,832.8591 383.7735,831.5637 382.097,830.5958 379.2986,829.846 359.811,829.7953 356.9496,830.2485 354.3682,831.5637 352.9296,832.8591 351.7918,834.4252 350.7535,837.1299 350.098,841.9166 349.3106,843.685 348.1727,845.2512 346.7341,846.5465 345.0577,847.5144 342.2593,848.2642 320.8464,848.1126 319.0053,847.5144 316.5756,845.9365 314.7524,843.685 313.965,841.9166 313.5118,839.0551 313.965,836.1937 314.7524,834.4252 315.8902,832.8591 318.1417,831.0359 319.9102,830.2485 321.8037,829.846 343.2166,829.5929 345.0577,828.9947 347.4874,827.4168 349.3106,825.1654 350.098,823.3969 350.5512,820.5354 350.5512,802.0157 350.3488,800.0905 349.7506,798.2494 348.1727,795.8197 345.9213,793.9965 343.2166,792.9583 338.4299,792.3027 335.8485,790.9874 334.4099,789.6921 333.2721,788.126 332.2338,785.4213 332.0315,764.9764 332.2338,763.0511 332.8321,761.2101 334.4099,758.7803 335.8485,757.485 338.4299,756.1697 341.2913,755.7165 433.8898,755.7165 435.815,755.9189 438.5197,756.9571 440.7712,758.7803 441.909,760.3465 442.9473,763.0511 443.0989,765.9443 442.3491,768.7427 441.3811,770.4192 439.3326,772.4677 437.6561,773.4357 435.815,774.0339 431.0283,774.6894 428.447,776.0047 427.0084,777.3 425.8705,778.8661 425.0831,780.6346 424.6806,782.5281 424.6299,876.0945 424.8323,878.0197 425.4305,879.8608 426.3984,881.5373 427.6937,882.9759 429.2598,884.1137 431.0283,884.9011 435.815,885.5567 438.5197,886.5949 440.7712,888.4181 442.3491,890.8479 442.9473,892.6889 443.1496,894.6142 443.0989,914.1018 442.3491,916.9002 441.3811,918.5767 439.3326,920.6252 437.6561,921.5931 434.8577,922.343 424.6299,922.3937"/>
    <polyline points="424.6299,931.6535 424.6299,894.6142 424.1767,891.7527 423.3893,889.9843 422.2515,888.4181 420.0,886.5949 417.2953,885.5567 412.5086,884.9011 409.9273,883.5859 408.4887,882.2905 407.3508,880.7244 406.3126,878.0197 406.1102,876.0945 406.1102,820.5354 406.3126,818.6102 407.3508,815.9055 409.174,813.654 411.6038,812.0761 414.4022,811.3263 424.6299,811.2756"/>
    <polyline points="387.5906,811.2756 378.3307,811.2756 375.4693,810.8224 373.7008,810.035 372.1347,808.8972 370.8393,807.4585 369.8714,805.7821 369.2732,803.941 369.0709,802.0157 369.0709,746.4567 368.8685,744.5315 367.8303,741.8268 366.6924,740.2606 365.2538,738.9653 363.5773,737.9974 361.7363,737.3992 359.811,737.1969 357.8858,737.3992 355.1811,738.4374 352.9296,740.2606 351.3517,742.6904 350.6019,745.4888 350.5512,783.4961 350.7535,785.4213 351.3517,787.2624 352.9296,789.6921 354.3682,790.9874 356.0447,791.9554 358.8431,792.7052 369.0709,792.7559"/>
    <line x1="387.5906" x2="424.6299" y1="903.874" y2="903.874"/>
    <polyline points="443.1496,903.874 454.3347,904.0764 456.1758,904.6746 457.8522,905.6425 459.9008,907.6911 460.8687,909.3675 461.6186,912.1659 461.6693,931.6535"/>
    <polyline points="461.6693,922.3937 489.4488,922.3937 491.374,922.5961 494.0787,923.6343 496.3302,925.4575 497.4681,927.0236 498.2555,928.7921 498.7087,931.6535"/>
    <line x1="517.2283" x2="517.2283" y1="931.6535" y2="903.874"/>
    <polyline points="498.7087,903.874 498.7087,894.6142 499.1619,891.7527 499.9492,889.9843 501.0871,888.4181 503.3386,886.5949 505.1071,885.8075 507.0006,885.4051 528.4134,885.152 530.2545,884.5538 531.931,883.5859 533.9796,881.5373 535.2948,878.9559 535.6973,877.0624 535.9504,855.6496 536.9886,852.9449 538.1265,851.3788 540.378,849.5555 542.1464,848.7682 545.0079,848.315 546.9331,848.5173 548.7742,849.1155 550.4507,850.0834 551.8893,851.3788 553.4672,853.8085 554.0654,855.6496 554.2677,857.5748 554.3184,877.0624 555.0683,879.8608 556.6462,882.2905 558.0848,883.5859 559.7612,884.5538 561.6023,885.152 563.5276,885.3543 565.4528,885.152 567.2939,884.5538 568.9704,883.5859 570.409,882.2905 571.5468,880.7244 572.3342,878.9559 572.7874,876.0945 572.5851,874.1693 571.9868,872.3282 571.0189,870.6517 569.7236,869.2131 567.2939,867.6352 564.4955,866.8854 554.2677,866.8346"/>
    <line x1="535.748" x2="498.7087" y1="866.8346" y2="866.8346"/>
    <line x1="517.2283" x2="517.2283" y1="866.8346" y2="885.3543"/>
    <line x1="480.189" x2="480.189" y1="922.3937" y2="931.6535"/>
    <polyline points="554.2677,931.6535 554.7209,928.7921 556.0362,926.2107 558.0848,924.1622 559.7612,923.1943 561.6023,922.5961 563.5276,922.3937 600.5669,922.3937 602.4922,922.5961 604.3332,923.1943 606.0097,924.1622 607.4483,925.4575 608.5862,927.0236 609.3736,928.7921 609.8268,931.6535"/>
    <polyline points="628.3465,931.6535 628.7997,928.7921 630.1149,926.2107 632.1635,924.1622 634.7449,922.8469 637.6063,922.3937 656.126,922.3937 658.0512,922.5961 659.8923,923.1943 661.5688,924.1622 663.0074,925.4575 664.5853,927.8872 665.1835,929.7283 665.3858,931.6535"/>
    <polyline points="674.6457,922.3937 671.7842,921.9405 669.2029,920.6252 667.7643,919.3299 666.1864,916.9002 665.5882,915.0591 665.3858,913.1339 665.1835,892.6889 664.5853,890.8479 663.6174,889.1714 662.322,887.7328 660.7559,886.5949 658.9874,885.8075 656.126,885.3543 653.2645,885.8075 650.6832,887.1228 649.2446,888.4181 647.6667,890.8479 647.0685,892.6889 646.4129,897.4756 645.6256,899.2441 644.4877,900.8102 643.0491,902.1055 640.4677,903.4208 637.6063,903.874 635.6811,903.6717 633.84,903.0735 631.4103,901.4956 630.1149,900.057 628.7997,897.4756 628.3465,894.6142 628.2957,875.1266 627.8932,873.233 627.1059,871.4646 625.968,869.8984 624.5294,868.6031 621.9481,867.2879 619.0866,866.8346 581.0793,866.7839 578.2809,866.0341 575.8512,864.4562 574.028,862.2047 573.2406,860.4363 572.8381,858.5427 572.7874,829.7953"/>
    <polyline points="535.748,829.7953 535.6973,801.0478 535.2948,799.1543 533.9796,796.5729 531.931,794.5244 530.2545,793.5565 528.4134,792.9583 526.4882,792.7559 452.4094,792.7559 450.4842,792.5536 448.6431,791.9554 446.2134,790.3775 444.9181,788.9389 443.9502,787.2624 443.2003,784.464 443.2003,782.5281 443.6028,780.6346 444.3902,778.8661 445.528,777.3 446.9666,776.0047 448.6431,775.0368 451.4415,774.2869 470.9291,774.2362 473.7906,773.783 476.3719,772.4677 477.8105,771.1724 478.9484,769.6063 479.9866,766.9016 480.1382,764.0085 479.3884,761.2101 477.8105,758.7803 476.3719,757.485 473.7906,756.1697 470.9291,755.7165 451.4415,755.6658 449.548,755.2633 447.7795,754.476 445.528,752.6527 443.9502,750.223 443.2003,747.4246 443.352,744.5315 444.3902,741.8268 445.528,740.2606 447.7795,738.4374 450.4842,737.3992 471.8971,737.1461 473.7906,736.7436 475.5591,735.9563 477.8105,734.1331 479.3884,731.7033 479.9866,729.8622 480.6422,725.0756 481.9574,722.4942 484.006,720.4456 485.6825,719.4777 487.5236,718.8795 489.4488,718.6772 554.2677,718.6772"/>
    <line x1="554.2677" x2="535.748" y1="737.1969" y2="737.1969"/>
    <line x1="498.7087" x2="498.7087" y1="718.6772" y2="700.1575"/>
    <polyline points="461.6693,626.0787 472.8544,625.8764 475.5591,624.8382 477.1252,623.7003 478.4205,622.2617 479.7358,619.6803 480.1382,617.7868 480.3913,596.374 481.4296,593.6693 482.5674,592.1032 484.006,590.8078 486.5874,589.4926 489.4488,589.0394 582.0472,589.0394 584.9087,589.4926 587.49,590.8078 588.9286,592.1032 590.0665,593.6693 591.1047,596.374 591.3071,598.2992 591.3071,626.0787"/>
    <polyline points="646.8661,626.0787 636.6384,626.028 633.84,625.2782 631.4103,623.7003 629.587,621.4488 628.7997,619.6803 628.3972,617.7868 628.3972,615.851 628.7997,613.9574 630.1149,611.3761 631.4103,609.9375 632.9764,608.7996 634.7449,608.0123 636.6384,607.6098 656.126,607.5591 658.0512,607.3567 659.8923,606.7585 662.322,605.1806 664.1452,602.9291 665.1835,600.2244 665.839,595.4378 666.6264,593.6693 667.7643,592.1032 669.2029,590.8078 670.8794,589.8399 672.7204,589.2417 674.6457,589.0394"/>
    <polyline points="674.6457,570.5197 654.2008,570.722 651.4961,571.7603 649.9299,572.8981 648.6346,574.3367 647.6667,576.0132 647.0685,577.8543 646.8661,579.7795 646.8154,636.3065 646.0656,639.1049 645.0977,640.7814 643.8023,642.22 642.2362,643.3578 640.4677,644.1452 637.6063,644.5984 563.5276,644.5984 561.6023,644.8008 559.7612,645.399 557.3315,646.9769 556.0362,648.4155 555.0683,650.092 554.4701,651.933 554.2677,672.378 553.8145,675.2394 553.0271,677.0079 551.8893,678.574 549.6378,680.3972 547.8693,681.1846 545.0079,681.6378 507.9685,681.6378 505.1071,681.1846 502.5257,679.8693 501.0871,678.574 499.9492,677.0079 498.911,674.3032 498.2555,669.5165 497.4681,667.748 496.3302,666.1819 494.0787,664.3587 492.3103,663.5713 490.4167,663.1688 396.8504,663.1181 394.9252,663.3205 393.0841,663.9187 391.4076,664.8866 389.969,666.1819 388.8311,667.748 388.0438,669.5165 387.6413,671.41 387.7929,674.3032 388.3911,676.1443 389.969,678.574 392.2205,680.3972 394.9252,681.4354 399.7118,682.091 401.4803,682.8784 403.0464,684.0162 404.3418,685.4548 405.3097,687.1313 405.9079,688.9724 406.1102,690.8976 406.1102,709.4173 405.657,712.2788 404.3418,714.8601 402.2932,716.9087 400.6167,717.8766 397.8183,718.6264 359.811,718.6772 356.9496,718.224 354.3682,716.9087 352.9296,715.6134 351.7918,714.0472 350.7535,711.3426 350.098,706.5559 349.3106,704.7874 348.1727,703.2213 345.9213,701.3981 344.1528,700.6107 342.2593,700.2082 239.4331,700.1575"/>
    <polyline points="220.9134,700.1575 156.0945,700.1575 154.1693,699.9551 151.4646,698.9169 149.8984,697.779 148.6031,696.3404 147.2879,693.7591 146.6323,688.9724 146.0341,687.1313 144.4562,684.7016 143.0176,683.4063 141.3411,682.4384 138.5427,681.6885 128.315,681.6378"/>
    <line x1="128.315" x2="119.0551" y1="700.1575" y2="700.1575"/>
    <polyline points="119.0551,737.1969 120.9803,736.9945 122.8214,736.3963 125.2512,734.8184 126.5465,733.3798 127.5144,731.7033 128.2642,728.9049 128.315,663.1181"/>
    <polyline points="119.0551,589.0394 120.9803,588.837 123.685,587.7988 125.9365,585.9756 127.5144,583.5458 128.2642,580.7474 128.315,570.5197"/>
    <line x1="119.0551" x2="165.3543" y1="570.5197" y2="570.5197"/>
    <polyline points="183.874,589.0394 195.0591,588.837 197.7638,587.7988 200.0153,585.9756 201.1531,584.4094 201.9405,582.641 202.343,580.7474 202.343,578.8116 201.9405,576.9181 201.1531,575.1496 199.3299,572.8981 197.7638,571.7603 195.0591,570.722 193.1339,570.5197 191.2086,570.722 189.3675,571.3202 187.6911,572.2882 186.2525,573.5835 185.1146,575.1496 184.3272,576.9181 183.9247,578.8116 183.6717,600.2244 183.0735,602.0655 182.1055,603.742 180.057,605.7906 177.4756,607.1058 175.5821,607.5083 156.0945,607.5591 154.1693,607.7614 152.3282,608.3596 149.8984,609.9375 148.0752,612.189 147.037,614.8937 146.3814,619.6803 145.0662,622.2617 143.0176,624.3103 140.4363,625.6255 137.5748,626.0787 135.6496,625.8764 133.8085,625.2782 131.3788,623.7003 129.5555,621.4488 128.7682,619.6803 128.3657,617.7868 128.315,598.2992 128.7682,595.4378 129.5555,593.6693 130.6934,592.1032 132.9449,590.28 134.7134,589.4926 136.6069,589.0901 156.0945,589.0394 158.9559,588.5862 160.7244,587.7988 162.2905,586.6609 164.1137,584.4094 164.9011,582.641 165.3543,579.7795 165.3543,505.7008 165.8075,502.8393 167.1228,500.258 168.4181,498.8194 170.8479,497.2415 173.6463,496.4917 175.5821,496.4917 177.4756,496.8942 179.2441,497.6815 181.4956,499.5047 182.6334,501.0709 183.4208,502.8393 183.8233,504.7329 183.874,524.2205 184.0764,526.1457 184.6746,527.9868 186.2525,530.4165 188.5039,532.2397 191.2086,533.278 195.0591,533.6827 196.9002,534.2809 199.3299,535.8588 201.1531,538.1102 201.9405,539.8787 202.343,541.7722 202.5961,563.1851 203.6343,565.8898 204.7721,567.4559 207.0236,569.2791 209.7283,570.3173 211.6535,570.5197 214.515,570.0665 217.0963,568.7512 218.5349,567.4559 219.6728,565.8898 220.4602,564.1213 221.1157,559.3346 222.154,556.6299 223.9772,554.3784 226.4069,552.8006 228.248,552.2023 230.1732,552.0 250.6181,551.7977 252.4592,551.1994 254.1357,550.2315 255.5743,548.9362 256.7122,547.3701 257.4995,545.6016 257.902,543.7081 257.9528,524.2205 257.4995,521.359 256.7122,519.5906 255.5743,518.0244 254.1357,516.7291 251.5544,515.4138 248.6929,514.9606 239.4331,514.9606"/>
    <polyline points="239.4331,533.4803 239.4331,468.6614 239.6354,466.7362 240.6737,464.0315 241.8115,462.4654 244.063,460.6422 246.7677,459.6039 249.6608,459.4523 251.5544,459.8548 253.3228,460.6422 255.5743,462.4654 257.1522,464.8951 257.902,467.6935 257.902,488.149 257.4995,490.0426 256.1843,492.6239 254.889,494.0625 252.4592,495.6404 250.6181,496.2386 248.6929,496.4409 210.6856,496.3902 208.7921,495.9877 207.0236,495.2004 204.7721,493.3771 203.1943,490.9474 202.4444,488.149 202.4444,486.2132 202.8469,484.3197 203.6343,482.5512 205.4575,480.2997 207.0236,479.1618 208.7921,478.3745 213.5788,477.7189 216.2835,476.6807 217.8496,475.5428 219.1449,474.1042 220.1128,472.4277 220.711,470.5866 220.9134,468.6614 220.9134,403.8425"/>
    <polyline points="183.874,422.3622 183.874,413.1024 183.4208,410.2409 182.6334,408.4724 181.4956,406.9063 180.057,405.611 178.3805,404.6431 176.5394,404.0449 174.6142,403.8425 146.8346,403.8425"/>
    <polyline points="146.8346,422.3622 157.0624,422.4129 158.9559,422.8154 160.7244,423.6028 162.2905,424.7406 164.1137,426.9921 165.152,429.6968 165.8075,434.4835 167.1228,437.0648 168.4181,438.5035 169.9843,439.6413 171.7527,440.4287 176.5394,441.0842 178.3805,441.6824 180.057,442.6504 181.4956,443.9457 182.6334,445.5118 183.4208,447.2803 183.874,450.1417 183.6717,452.067 183.0735,453.908 182.1055,455.5845 180.8102,457.0231 178.3805,458.601 175.5821,459.3508 172.6889,459.1992 170.8479,458.601 169.1714,457.6331 167.1228,455.5845 166.1549,453.908 165.5567,452.067 164.9011,447.2803 164.1137,445.5118 162.9759,443.9457 160.7244,442.1225 158.9559,441.3351 154.1693,440.6795 151.4646,439.6413 149.2131,437.8181 147.6352,435.3884 147.037,433.5473 146.8346,431.622 146.8346,376.063 146.6323,374.1378 146.0341,372.2967 145.0662,370.6202 143.0176,368.5716 140.4363,367.2564 135.6496,366.6008 133.8085,366.0026 132.132,365.0347 130.0834,362.9861 128.7682,360.4048 128.3657,358.5112 128.315,348.2835"/>
    <polyline points="119.0551,366.8031 121.9166,367.2564 123.685,368.0437 125.2512,369.1816 126.5465,370.6202 127.5144,372.2967 128.2642,375.0951 128.315,459.4016"/>
    <polyline points="119.0551,459.4016 156.0945,459.4016 158.9559,459.8548 161.5373,461.17 162.9759,462.4654 164.1137,464.0315 165.152,466.7362 165.5567,470.5866 166.1549,472.4277 167.1228,474.1042 169.1714,476.1528 171.7527,477.4681 173.6463,477.8705 183.874,477.9213"/>
    <polyline points="183.874,514.9606 155.1266,515.0114 153.233,515.4138 151.4646,516.2012 149.2131,518.0244 147.6352,520.4542 146.8854,523.2526 146.8346,552.0"/>
    <polyline points="165.3543,533.4803 176.5394,533.6827 179.2441,534.7209 181.4956,536.5441 182.6334,538.1102 183.4208,539.8787 183.8233,541.7722 183.8233,543.7081 183.4208,545.6016 182.6334,547.3701 180.8102,549.6216 178.3805,551.1994 176.5394,551.7977 174.6142,552.0 137.5748,552.0 135.6496,551.7977 133.8085,551.1994 132.132,550.2315 130.6934,548.9362 129.5555,547.3701 128.5173,544.6654 127.8618,539.8787 127.0744,538.1102 125.9365,536.5441 124.4979,535.2488 122.8214,534.2809 120.9803,533.6827 119.0551,533.4803"/>
    <polyline points="119.0551,514.9606 139.5,514.7583 142.2047,513.72 143.7708,512.5822 145.0662,511.1436 146.0341,509.4671 146.6323,507.626 146.8346,505.7008 146.8346,459.4016"/>
    <line x1="128.315" x2="119.0551" y1="440.8819" y2="440.8819"/>
    <polyline points="119.0551,477.9213 120.9803,478.1236 122.8214,478.7218 124.4979,479.6897 125.9365,480.9851 127.5144,483.4148 128.1126,485.2559 128.315,487.1811 128.1126,489.1063 127.5144,490.9474 126.5465,492.6239 125.2512,494.0625 123.685,495.2004 121.9166,495.9877 119.0551,496.4409"/>
    <line x1="128.315" x2="146.8346" y1="385.3228" y2="385.3228"/>
    <line x1="165.3543" x2="165.3543" y1="329.7638" y2="311.2441"/>
    <polyline points="332.0315,274.2047 332.0822,245.4573 332.4847,243.5637 333.8,240.9824 335.8485,238.9338 337.525,237.9659 339.3661,237.3677 341.2913,237.1654 434.8577,237.1146 436.7512,236.7121 438.5197,235.9248 440.0858,234.7869 441.909,232.5354 442.6964,230.767 443.0989,228.8734 443.0989,226.9376 442.6964,225.0441 441.909,223.2756 440.0858,221.0241 438.5197,219.8863 435.815,218.848 415.3701,218.6457 412.5086,219.0989 410.7402,219.8863 409.174,221.0241 407.3508,223.2756 406.5634,225.0441 406.1102,227.9055 406.1102,237.1654"/>
    <polyline points="350.5512,292.7244 360.7789,292.7751 362.6725,293.1776 365.2538,294.4929 366.6924,295.7882 368.2703,298.2179 368.8685,300.059 369.5241,304.8457 370.8393,307.4271 372.8879,309.4756 374.5644,310.4435 376.4055,311.0417 378.3307,311.2441 433.8898,311.2441 435.815,311.4464 437.6561,312.0446 439.3326,313.0126 440.7712,314.3079 442.3491,316.7376 443.0989,319.536 443.1496,376.063 443.6028,378.9244 444.9181,381.5058 446.2134,382.9444 447.7795,384.0823 450.4842,385.1205 453.3774,385.2721 455.2709,384.8696 457.0394,384.0823 459.2909,382.259 460.8687,379.8293 461.4669,377.9882 462.1225,373.2015 463.4378,370.6202 464.7331,369.1816 466.2992,368.0437 469.0039,367.0055 471.8971,366.8539 473.7906,367.2564 475.5591,368.0437 477.1252,369.1816 478.4205,370.6202 479.3884,372.2967 479.9866,374.1378 480.189,376.063 480.189,413.1024 479.9866,415.0276 479.3884,416.8687 478.4205,418.5452 477.1252,419.9838 475.5591,421.1216 473.7906,421.909 471.8971,422.3115 469.9612,422.3115 468.0677,421.909 466.2992,421.1216 464.0477,419.2984 462.9099,417.7323 461.8716,415.0276 461.6693,394.5827 462.1225,391.7212 463.4378,389.1399 464.7331,387.7013 466.2992,386.5634 468.0677,385.776 470.9291,385.3228 480.189,385.3228"/>
    <polyline points="498.7087,366.8031 509.8937,367.0055 512.5984,368.0437 514.8499,369.8669 515.9878,371.4331 516.7751,373.2015 517.1776,375.0951 517.1776,377.0309 516.7751,378.9244 515.9878,380.6929 514.1645,382.9444 512.5984,384.0823 509.8937,385.1205 507.0006,385.2721 505.1071,384.8696 503.3386,384.0823 501.0871,382.259 499.9492,380.6929 498.911,377.9882 498.7087,376.063 498.7087,320.5039 499.1619,317.6425 500.4771,315.0611 501.7725,313.6225 504.2022,312.0446 507.0006,311.2948 517.2283,311.2441"/>
    <polyline points="406.1102,496.4409 433.8898,496.4409 436.7512,495.9877 438.5197,495.2004 440.0858,494.0625 441.909,491.811 442.6964,490.0426 443.0989,488.149 443.0989,486.2132 442.6964,484.3197 441.3811,481.7383 439.3326,479.6897 436.7512,478.3745 434.8577,477.972 332.0315,477.9213"/>
    <polyline points="369.0709,533.4803 357.8858,533.6827 355.1811,534.7209 352.9296,536.5441 351.3517,538.9738 350.6019,541.7722 350.5512,561.2598 350.3488,563.1851 349.7506,565.0262 348.1727,567.4559 345.9213,569.2791 343.2166,570.3173 338.4299,570.9729 335.8485,572.2882 334.4099,573.5835 333.2721,575.1496 332.2338,577.8543 332.0822,580.7474 332.4847,582.641 333.2721,584.4094 335.0953,586.6609 336.6614,587.7988 338.4299,588.5862 343.2166,589.2417 345.9213,590.28 347.4874,591.4178 348.7827,592.8564 350.098,595.4378 350.5512,598.2992 350.5005,617.7868 350.098,619.6803 349.3106,621.4488 347.4874,623.7003 345.0577,625.2782 343.2166,625.8764 341.2913,626.0787 276.4724,626.0787"/>
    <line x1="202.3937" x2="146.8346" y1="737.1969" y2="737.1969"/>
    <polyline points="165.3543,737.1969 165.3543,764.9764 165.152,766.9016 164.5538,768.7427 163.5859,770.4192 162.2905,771.8578 160.7244,772.9956 158.9559,773.783 156.0945,774.2362 146.8346,774.2362"/>
    <polyline points="146.8346,792.7559 136.6069,792.7052 133.8085,791.9554 132.132,790.9874 130.6934,789.6921 129.1155,787.2624 128.5173,785.4213 127.8618,780.6346 126.5465,778.0533 124.4979,776.0047 122.8214,775.0368 120.9803,774.4386 119.0551,774.2362"/>
    <line x1="119.0551" x2="165.3543" y1="755.7165" y2="755.7165"/>
    <polyline points="165.3543,792.7559 175.5821,792.7052 178.3805,791.9554 180.8102,790.3775 182.1055,788.9389 183.0735,787.2624 183.6717,785.4213 183.874,783.4961 183.4208,780.6346 182.6334,778.8661 181.4956,777.3 180.057,776.0047 177.4756,774.6894 174.6142,774.2362 172.6889,774.4386 169.9843,775.4768 167.7328,777.3 166.5949,778.8661 165.5567,781.5708 165.3543,783.4961 165.4051,840.023 165.8075,841.9166 166.5949,843.685 167.7328,845.2512 169.1714,846.5465 171.7527,847.8618 174.6142,848.315 177.4756,847.8618 180.057,846.5465 181.4956,845.2512 183.0735,842.8214 183.6717,840.9803 184.0764,837.1299 185.1146,834.4252 186.2525,832.8591 187.6911,831.5637 190.2724,830.2485 193.1339,829.7953 231.1411,829.846 233.0347,830.2485 234.8031,831.0359 236.3693,832.1737 237.6646,833.6123 238.9799,836.1937 239.6354,840.9803 240.2336,842.8214 241.2015,844.4979 242.4969,845.9365 244.063,847.0744 245.8315,847.8618 250.6181,848.5173 253.3228,849.5555 255.5743,851.3788 256.7122,852.9449 257.4995,854.7134 257.902,856.6069 257.902,858.5427 257.4995,860.4363 256.7122,862.2047 255.5743,863.7708 254.1357,865.0662 251.5544,866.3814 248.6929,866.8346 220.9134,866.8346"/>
    <line x1="202.3937" x2="202.3937" y1="922.3937" y2="931.6535"/>
    <polyline points="387.5906,922.3937 397.8183,922.4444 400.6167,923.1943 403.0464,924.7721 404.8697,927.0236 405.9079,929.7283 406.1102,931.6535"/>
    <polyline points="554.2677,792.7559 545.0079,792.7559 542.1464,792.3027 540.378,791.5153 538.1265,789.6921 536.9886,788.126 536.2012,786.3575 535.748,783.4961 535.9504,763.0511 536.9886,760.3465 538.1265,758.7803 540.378,756.9571 542.1464,756.1697 545.0079,755.7165 546.9331,755.9189 548.7742,756.5171 550.4507,757.485 551.8893,758.7803 553.0271,760.3465 553.8145,762.1149 554.2677,764.9764 554.3184,802.9837 554.7209,804.8772 555.5083,806.6457 556.6462,808.2118 558.0848,809.5071 560.6661,810.8224 563.5276,811.2756 619.0866,811.2756 621.0118,811.0732 623.7165,810.035 625.2827,808.8972 626.578,807.4585 627.8932,804.8772 628.5488,800.0905 629.147,798.2494 630.1149,796.5729 631.4103,795.1343 633.84,793.5565 635.6811,792.9583 637.6063,792.7559 639.5315,792.9583 642.2362,793.9965 644.4877,795.8197 646.0656,798.2494 646.6638,800.0905 646.8661,802.0157 646.8661,829.7953"/>
    <polyline points="646.8661,848.315 646.8661,876.0945 646.6638,878.0197 646.0656,879.8608 645.0977,881.5373 643.8023,882.9759 642.2362,884.1137 640.4677,884.9011 637.6063,885.3543 628.3465,885.3543"/>
    <line x1="646.8661" x2="646.8661" y1="922.3937" y2="931.6535"/>
    <line x1="665.3858" x2="674.6457" y1="903.874" y2="903.874"/>
    <polyline points="674.6457,644.5984 672.7204,644.8008 670.8794,645.399 669.2029,646.3669 667.7643,647.6622 666.6264,649.2283 665.839,650.9968 665.1835,655.7835 664.1452,658.4882 662.322,660.7397 659.8923,662.3176 658.0512,662.9158 656.126,663.1181 654.2008,662.9158 652.3597,662.3176 649.9299,660.7397 648.6346,659.3011 647.6667,657.6246 646.9169,654.8262 647.0685,651.933 647.6667,650.092 649.2446,647.6622 651.4961,645.839 653.2645,645.0516 658.0512,644.3961 660.7559,643.3578 662.322,642.22 664.1452,639.9685 664.9326,638.2 665.3351,636.3065 665.3858,616.8189 665.839,613.9574 667.1543,611.3761 669.2029,609.3275 671.7842,608.0123 674.6457,607.5591"/>
    <line x1="674.6457" x2="665.3858" y1="626.0787" y2="626.0787"/>
    <polyline points="674.6457,552.0 672.7204,551.7977 670.8794,551.1994 668.4496,549.6216 666.6264,547.3701 665.5882,544.6654 665.3858,542.7402 665.3858,514.9606"/>
    <polygon points="580.122,533.6827 582.0472,533.4803 584.9087,533.9335 586.6772,534.7209 588.2433,535.8588 589.5386,537.2974 590.5065,538.9738 591.1047,540.8149 591.3071,542.7402 590.8539,545.6016 590.0665,547.3701 588.9286,548.9362 587.49,550.2315 585.8136,551.1994 583.9725,551.7977 582.0472,552.0 580.122,551.7977 578.2809,551.1994 575.8512,549.6216 574.5559,548.183 573.588,546.5065 572.9898,544.6654 572.7874,542.7402 572.9898,540.8149 573.588,538.9738 575.1658,536.5441 576.6044,535.2488 578.2809,534.2809"/>
    <polyline points="443.1496,626.0787 432.9218,626.1295 430.1234,626.8793 427.6937,628.4572 425.8705,630.7087 424.8323,633.4134 424.6299,644.5984"/>
    <line x1="257.9528" x2="239.4331" y1="477.9213" y2="477.9213"/>
  </g>
</svg>
