<?xml version="1.0" encoding="utf-8" ?>
<svg xmlns="http://www.w3.org/2000/svg" xmlns:cc="http://creativecommons.org/ns" xmlns:dc="http://purl.org/dc/elements/1.1/" xmlns:ev="http://www.w3.org/2001/xml-events" xmlns:inkscape="http://www.inkscape.org/namespaces/inkscape" xmlns:rdf="http://www.w3.org/1999/02/22-rdf-syntax-ns" xmlns:sodipodi="http://sodipodi.sourceforge.net/DTD/sodipodi-0.dtd" xmlns:xlink="http://www.w3.org/1999/xlink" baseProfile="tiny" height="21.0cm" version="1.2" viewBox="0 0 1122.5196850393702 793.7007874015749" width="29.7cm">
  <metadata>
    <rdf:RDF>
      <cc:Work>
        <dc:format>image/svg+xml</dc:format>
        <dc:source>Vsketch with params {'__seed__': 311308318, 'debug_grid': False, 'debug_indices': False, 'debug_tiles_order': False, 'debug_print': False, 'n_rows': 10, 'n_cols': 18, 'tile_size': 1.0, 'width': 0.1, 'radius': 0.3, 'connected_edge': True, 'tileset': 'metro'}</dc:source>
        <dc:date>2025-01-30T21:48:53.033799</dc:date>
      </cc:Work>
    </rdf:RDF>
  </metadata>
  <defs/>
  <g fill="none" id="layer1" inkscape:groupmode="layer" inkscape:label="1" stroke="#0000ff" style="display:inline">
    <polyline points="538.5827,228.6614 509.2635,228.6614 505.5186,229.2977 503.231,230.3993 501.2459,231.9824 485.6693,247.5591 470.0926,263.1357 468.5096,265.1208 467.4079,267.4084 466.7717,271.1533 466.7717,300.4724"/>
    <polyline points="462.9921,304.252 463.2473,302.8866 463.9785,301.7057 465.087,300.8687 466.4229,300.4886 467.806,300.6167 469.0493,301.2358 469.9851,302.2623 470.4868,303.5575 470.4868,304.9465 469.9851,306.2416 469.0493,307.2681 467.806,307.8872 466.4229,308.0154 465.087,307.6353 463.9785,306.7982 463.2473,305.6173 462.9921,304.252 432.7559,304.252 432.5007,305.6173 431.7695,306.7982 430.6611,307.6353 429.3251,308.0154 427.9421,307.8872 426.6987,307.2681 425.763,306.2416 425.2612,304.9465 425.2612,303.5575 425.763,302.2623 426.6987,301.2358 427.9421,300.6167 429.3251,300.4886 430.6611,300.8687 431.7695,301.7057 432.5007,302.8866 432.7559,304.252"/>
    <polyline points="428.9764,300.4724 428.8342,270.8644 427.7395,268.5912 426.8418,267.6936 425.7669,267.0181 423.3071,266.4567 396.8504,266.4567 394.3906,267.0181 392.418,268.5912 391.7425,269.6662 391.1811,272.126 391.1811,300.4724"/>
    <polyline points="394.9606,304.252 394.7054,302.8866 393.9742,301.7057 392.8658,300.8687 391.5298,300.4886 390.1468,300.6167 388.9034,301.2358 387.9677,302.2623 387.4659,303.5575 387.4659,304.9465 387.9677,306.2416 388.9034,307.2681 390.1468,307.8872 391.5298,308.0154 392.8658,307.6353 393.9742,306.7982 394.7054,305.6173 394.9606,304.252 425.1969,304.252"/>
    <line x1="428.9764" x2="428.9764" y1="308.0315" y2="338.2677"/>
    <polyline points="425.1969,342.0472 425.4521,340.6819 426.1833,339.501 427.2917,338.6639 428.6276,338.2838 430.0107,338.412 431.2541,339.0311 432.1898,340.0576 432.6916,341.3528 432.6916,342.7417 432.1898,344.0369 431.2541,345.0634 430.0107,345.6825 428.6276,345.8106 427.2917,345.4305 426.1833,344.5935 425.4521,343.4126 425.1969,342.0472 396.8504,342.0472 394.3906,341.4858 392.418,339.9127 391.7425,338.8378 391.1811,336.378 391.1811,308.0315"/>
    <polyline points="428.9764,345.8268 428.9051,376.4154 427.8535,380.0656 426.5027,382.2154 318.9115,489.9074 316.9264,491.4904 314.6389,492.5921 310.894,493.2283 283.4646,493.2283 281.0048,492.6669 279.0321,491.0938 277.9374,488.8206 277.7953,487.5591 277.7953,461.1024 278.3567,458.6425 279.9298,456.6699 282.203,455.5752 283.4646,455.4331 315.5906,455.4331"/>
    <line x1="315.5906" x2="315.5906" y1="445.9843" y2="464.8819"/>
    <line x1="384.4998" x2="397.8624" y1="486.547" y2="499.9097"/>
    <polyline points="391.1811,493.2283 463.4507,420.9588 465.0337,418.9737 466.4874,415.4643 466.7717,412.9412 466.7717,383.622"/>
    <polygon points="470.296,381.2078 470.5512,379.8425 470.296,378.4772 469.5648,377.2963 468.4563,376.4592 467.1204,376.0791 465.7373,376.2073 464.494,376.8264 463.5582,377.8529 463.0565,379.148 463.0565,380.537 463.5582,381.8322 464.494,382.8586 465.7373,383.4778 467.1204,383.6059 468.4563,383.2258 469.5648,382.3888"/>
    <line x1="466.7717" x2="466.7717" y1="376.063" y2="308.0315"/>
    <polyline points="542.3622,376.063 542.3622,347.7165 542.9236,345.2567 544.4968,343.2841 546.77,342.1894 548.0315,342.0472 575.4609,342.0472 577.984,341.763 580.3805,340.9244 583.4785,338.7263 614.6318,307.573 616.6169,305.9899 618.9045,304.8883 622.6494,304.252 651.9685,304.252"/>
    <polyline points="655.748,308.0315 654.3827,307.7763 653.2018,307.0451 652.3647,305.9366 651.9846,304.6007 652.1128,303.2177 652.7319,301.9743 653.7584,301.0385 655.0535,300.5368 656.4425,300.5368 657.7377,301.0385 658.7642,301.9743 659.3833,303.2177 659.5114,304.6007 659.1313,305.9366 658.2943,307.0451 657.1134,307.7763 655.748,308.0315 655.748,337.3506 656.0323,339.8737 656.8709,342.2703 659.069,345.3682 690.2223,376.5215 691.8054,378.5066 693.259,382.016 693.5433,384.5391 693.5433,450.7365 694.1796,454.4814 695.2812,456.769 696.8643,458.7541 728.9657,490.7546 732.2903,492.5921 736.0352,493.2283 802.2325,493.2283 805.9774,492.5921 808.265,491.4904 810.2501,489.9074 842.2507,457.806 844.0881,454.4814 844.7244,450.7365 844.7244,385.5118 844.163,383.052 842.5899,381.0794 840.3167,379.9847 839.0551,379.8425 811.6257,379.8425 809.1027,379.5582 806.7061,378.7196 803.6081,376.5215 772.4549,345.3682 770.4698,343.7852 768.1822,342.6835 764.4373,342.0472 736.0352,342.0472 733.5121,341.763 731.1156,340.9244 728.0176,338.7263 696.8643,307.573 693.7663,305.3748 691.3698,304.5363 688.8467,304.252 659.5276,304.252"/>
    <line x1="659.5276" x2="689.7638" y1="266.4567" y2="266.4567"/>
    <polygon points="696.5594,268.7344 697.1786,267.491 697.3067,266.108 696.9266,264.772 696.0896,263.6636 694.9086,262.9324 693.5433,262.6772 692.178,262.9324 690.9971,263.6636 690.16,264.772 689.7799,266.108 689.9081,267.491 690.5272,268.7344 691.5536,269.6701 692.8488,270.1719 694.2378,270.1719 695.533,269.6701"/>
    <line x1="697.3228" x2="727.5591" y1="266.4567" y2="266.4567"/>
    <polyline points="731.3386,270.2362 732.7039,269.981 733.8848,269.2498 734.7219,268.1414 735.102,266.8054 734.9738,265.4224 734.3547,264.179 733.3282,263.2433 732.0331,262.7415 730.6441,262.7415 729.3489,263.2433 728.3225,264.179 727.7033,265.4224 727.5752,266.8054 727.9553,268.1414 728.7923,269.2498 729.9733,269.981 731.3386,270.2362 731.4807,299.8442 731.9,301.0425 733.4731,303.0151 734.5481,303.6905 737.0079,304.252 763.4646,304.252 765.9244,303.6905 767.897,302.1174 768.5724,301.0425 769.1339,298.5827 769.1339,270.2362"/>
    <polyline points="765.3543,266.4567 765.6096,265.0914 766.3408,263.9104 767.4492,263.0734 768.7851,262.6933 770.1682,262.8214 771.4115,263.4406 772.3473,264.467 772.849,265.7622 772.849,267.1512 772.3473,268.4464 771.4115,269.4728 770.1682,270.0919 768.7851,270.2201 767.4492,269.84 766.3408,269.0029 765.6096,267.822 765.3543,266.4567 735.1181,266.4567"/>
    <line x1="769.1339" x2="769.1339" y1="262.6772" y2="228.6614"/>
    <line x1="759.685" x2="778.5827" y1="228.6614" y2="228.6614"/>
    <polygon points="655.748,262.6772 654.3827,262.9324 653.2018,263.6636 652.3647,264.772 651.9846,266.108 652.1128,267.491 652.7319,268.7344 653.7584,269.6701 655.0535,270.1719 656.4425,270.1719 657.7377,269.6701 658.7642,268.7344 659.3833,267.491 659.5114,266.108 659.1313,264.772 658.2943,263.6636 657.1134,262.9324"/>
    <polyline points="651.9685,266.4567 622.6494,266.4567 620.1263,266.1724 617.7297,265.3338 614.6318,263.1357 583.4785,231.9824 581.4934,230.3993 579.2058,229.2977 575.4609,228.6614 546.1417,228.6614"/>
    <polygon points="543.7275,225.1371 542.3622,224.8819 540.9969,225.1371 539.816,225.8683 538.9789,226.9767 538.5988,228.3127 538.727,229.6957 539.3461,230.9391 540.3725,231.8748 541.6677,232.3766 543.0567,232.3766 544.3519,231.8748 545.3783,230.9391 545.9975,229.6957 546.1256,228.3127 545.7455,226.9767 544.9085,225.8683"/>
    <polygon points="542.7109,376.0791 541.3279,376.2073 540.0845,376.8264 539.1488,377.8529 538.647,379.148 538.647,380.537 539.1488,381.8322 540.0845,382.8586 541.3279,383.4778 542.7109,383.6059 544.0469,383.2258 545.1553,382.3888 545.8865,381.2078 546.1417,379.8425 545.8865,378.4772 545.1553,377.2963 544.0469,376.4592"/>
    <polyline points="542.3622,383.622 542.2909,414.2107 541.2393,417.8608 539.0412,420.9588 507.8879,452.1121 504.79,454.3102 502.3934,455.1488 499.8703,455.4331 471.1794,455.5752 468.9062,456.6699 467.3331,458.6425 466.9138,459.8408 466.7717,525.3543 467.3331,527.8141 468.9062,529.7868 471.1794,530.8815 472.4409,531.0236 500.7874,531.0236"/>
    <polyline points="504.5669,534.8031 503.2016,534.5479 502.0207,533.8167 501.1836,532.7083 500.8035,531.3724 500.9317,529.9893 501.5508,528.7459 502.5773,527.8102 503.8724,527.3084 505.2614,527.3084 506.5566,527.8102 507.5831,528.7459 508.2022,529.9893 508.3303,531.3724 507.9502,532.7083 507.1132,533.8167 505.9323,534.5479 504.5669,534.8031 504.5669,563.1496 505.1284,565.6094 506.7015,567.582 508.9747,568.6768 510.2362,568.8189 537.6656,568.8189 540.1887,568.5346 542.5852,567.696 545.6832,565.4979 576.8365,534.3446 579.0346,531.2467 579.8732,528.8501 580.1575,526.327 580.1575,497.0079"/>
    <polygon points="576.4423,492.5339 576.4423,493.9228 576.9441,495.218 577.8798,496.2445 579.1232,496.8636 580.5062,496.9918 581.8422,496.6116 582.9506,495.7746 583.6818,494.5937 583.937,493.2283 583.6818,491.863 582.9506,490.6821 581.8422,489.8451 580.5062,489.4649 579.1232,489.5931 577.8798,490.2122 576.9441,491.2387"/>
    <polyline points="580.1575,489.4488 580.1575,461.1024 579.596,458.6425 578.0229,456.6699 575.7497,455.5752 574.4882,455.4331 548.0315,455.4331 545.5717,455.9945 543.5991,457.5676 542.9236,458.6425 542.3622,461.1024 542.3622,525.3543 541.8008,527.8141 540.2277,529.7868 537.9544,530.8815 536.6929,531.0236 508.3465,531.0236"/>
    <line x1="611.2714" x2="624.6341" y1="462.1144" y2="448.7517"/>
    <line x1="617.9528" x2="580.1575" y1="455.4331" y2="417.6378"/>
    <line x1="586.8388" x2="573.4762" y1="410.9565" y2="424.3191"/>
  </g>
</svg>
