<?xml version="1.0" encoding="utf-8" ?>
<svg xmlns="http://www.w3.org/2000/svg" xmlns:cc="http://creativecommons.org/ns" xmlns:dc="http://purl.org/dc/elements/1.1/" xmlns:ev="http://www.w3.org/2001/xml-events" xmlns:inkscape="http://www.inkscape.org/namespaces/inkscape" xmlns:rdf="http://www.w3.org/1999/02/22-rdf-syntax-ns" xmlns:sodipodi="http://sodipodi.sourceforge.net/DTD/sodipodi-0.dtd" xmlns:xlink="http://www.w3.org/1999/xlink" baseProfile="tiny" height="21.0cm" version="1.2" viewBox="0 0 1122.5196850393702 793.7007874015749" width="29.7cm">
  <metadata>
    <rdf:RDF>
      <cc:Work>
        <dc:format>image/svg+xml</dc:format>
        <dc:source>Vsketch with params {'__seed__': 1895821611, 'debug_grid': False, 'debug_indices': False, 'debug_tiles_order': False, 'debug_print': False, 'n_rows': 10, 'n_cols': 18, 'tile_size': 1.0, 'width': 0.1, 'radius': 0.4, 'connected_edge': True, 'tileset': 'metro'}</dc:source>
        <dc:date>2025-01-30T21:47:16.491397</dc:date>
      </cc:Work>
    </rdf:RDF>
  </metadata>
  <defs/>
  <g fill="none" id="layer1" inkscape:groupmode="layer" inkscape:label="1" stroke="#0000ff" style="display:inline">
    <polyline points="449.3571,223.937 436.7216,223.937 434.0963,224.1667 430.3324,225.3535 427.0038,227.474 396.2011,258.2767 394.6896,260.4354 393.5759,262.8237 392.8939,265.3692 392.6642,267.9944 392.6642,331.0607 393.1793,334.9736 394.0806,337.4499 395.3983,339.7321 397.0922,341.7508 449.3571,394.0157"/>
    <line x1="449.3571" x2="434.239" y1="412.9134" y2="412.9134"/>
    <polygon points="429.0941,409.3891 427.9132,410.1203 427.0762,411.2287 426.696,412.5647 426.8242,413.9477 427.4433,415.1911 428.4698,416.1268 429.765,416.6286 431.1539,416.6286 432.4491,416.1268 433.4756,415.1911 434.0947,413.9477 434.2229,412.5647 433.8427,411.2287 433.0057,410.1203 431.8248,409.3891 430.4595,409.1339"/>
    <polyline points="426.6799,412.9134 400.2232,412.9134 397.6379,413.3693 395.3644,414.6819 393.6769,416.6929 392.779,419.1598 392.6642,443.1496 393.12,445.735 393.6769,446.9291 395.3644,448.9402 397.6379,450.2528 400.2232,450.7087 424.213,450.8235 426.6799,451.7214 428.691,453.4088 430.0036,455.6824 430.4595,458.2677 430.4595,484.7244"/>
    <polygon points="429.4251,492.1392 430.8082,492.2673 432.1441,491.8872 433.2526,491.0502 433.9838,489.8693 434.239,488.5039 433.9838,487.1386 433.2526,485.9577 432.1441,485.1206 430.8082,484.7405 429.4251,484.8687 428.1818,485.4878 427.246,486.5143 426.7443,487.8095 426.7443,489.1984 427.246,490.4936 428.1818,491.5201"/>
    <polyline points="430.4595,492.2835 430.4595,522.5197 429.0941,522.7749 427.9132,523.5061 427.0762,524.6145 426.696,525.9505 426.8242,527.3335 427.4433,528.5769 428.4698,529.5126 429.765,530.0144 431.1539,530.0144 432.4491,529.5126 433.4756,528.5769 434.0947,527.3335 434.2229,525.9505 433.8427,524.6145 433.0057,523.5061 431.8248,522.7749 430.4595,522.5197"/>
    <line x1="426.6799" x2="396.4437" y1="526.2992" y2="526.2992"/>
    <polyline points="392.6642,522.5197 394.0295,522.7749 395.2104,523.5061 396.0475,524.6145 396.4276,525.9505 396.2994,527.3335 395.6803,528.5769 394.6538,529.5126 393.3587,530.0144 391.9697,530.0144 390.6745,529.5126 389.648,528.5769 389.0289,527.3335 388.9008,525.9505 389.2809,524.6145 390.1179,523.5061 391.2989,522.7749 392.6642,522.5197 392.6642,492.2835"/>
    <polyline points="388.8846,488.5039 389.1399,487.1386 389.8711,485.9577 390.9795,485.1206 392.3154,484.7405 393.6985,484.8687 394.9419,485.4878 395.8776,486.5143 396.3794,487.8095 396.3794,489.1984 395.8776,490.4936 394.9419,491.5201 393.6985,492.1392 392.3154,492.2673 390.9795,491.8872 389.8711,491.0502 389.1399,489.8693 388.8846,488.5039 359.8134,488.4464 357.2182,487.9888 354.7418,487.0875 352.4596,485.7699 350.4409,484.0759 321.5016,455.1367 319.8077,453.1179 318.4901,450.8357 317.3033,447.0718 317.0736,444.4465 317.0736,416.6929"/>
    <polyline points="320.8532,412.9134 320.5979,414.2787 319.8667,415.4596 318.7583,416.2967 317.4224,416.6768 316.0393,416.5486 314.796,415.9295 313.8602,414.9031 313.3585,413.6079 313.3585,412.2189 313.8602,410.9237 314.796,409.8973 316.0393,409.2781 317.4224,409.15 318.7583,409.5301 319.8667,410.3671 320.5979,411.5481 320.8532,412.9134 349.9244,412.8559 353.7775,412.0017 357.2782,410.1793 359.2969,408.4854 449.3571,318.4252 433.9964,302.9832 432.4849,300.8245 431.3712,298.4361 430.6891,295.8907 430.4595,293.2654 430.4595,267.9944 430.9746,264.0816 431.8759,261.6052 433.1935,259.323 434.8874,257.3043 449.3571,242.8346"/>
    <polyline points="468.2547,371.3386 468.2547,343.585 468.0251,340.9597 467.343,338.4143 466.2293,336.0259 464.7178,333.8672 449.3571,318.4252 463.8267,303.9556 465.8455,302.2616 469.3462,300.4393 471.8916,299.7572 474.5169,299.5276 537.5832,299.5276 540.2084,299.7572 543.9723,300.944 546.2545,302.2616 548.2733,303.9556 562.7429,318.4252 547.3822,333.8672 545.8707,336.0259 544.757,338.4143 544.075,340.9597 543.8453,343.585 543.8453,367.5591 543.3894,370.1444 542.0768,372.4179 541.1451,373.3496 540.0658,374.1054 537.5988,375.0033 509.8295,375.1181"/>
    <polygon points="505.3555,378.8333 506.7445,378.8333 508.0397,378.3315 509.0661,377.3958 509.6853,376.1524 509.8134,374.7694 509.4333,373.4334 508.5963,372.325 507.4153,371.5938 506.05,371.3386 504.6847,371.5938 503.5038,372.325 502.6667,373.4334 502.2866,374.7694 502.4148,376.1524 503.0339,377.3958 504.0603,378.3315"/>
    <polyline points="502.2705,375.1181 472.0343,375.1181 471.779,373.7528 471.0478,372.5719 469.9394,371.7348 468.6035,371.3547 467.2204,371.4829 465.9771,372.102 465.0413,373.1284 464.5396,374.4236 464.5396,375.8126 465.0413,377.1078 465.9771,378.1342 467.2204,378.7534 468.6035,378.8815 469.9394,378.5014 471.0478,377.6644 471.779,376.4834 472.0343,375.1181"/>
    <line x1="581.6406" x2="653.4516" y1="375.1181" y2="375.1181"/>
    <polygon points="660.2472,377.3958 660.8664,376.1524 660.9945,374.7694 660.6144,373.4334 659.7774,372.325 658.5964,371.5938 657.2311,371.3386 655.8658,371.5938 654.6849,372.325 653.8478,373.4334 653.4677,374.7694 653.5959,376.1524 654.215,377.3958 655.2414,378.3315 656.5366,378.8333 657.9256,378.8333 659.2208,378.3315"/>
    <line x1="661.0106" x2="729.0421" y1="375.1181" y2="375.1181"/>
    <polyline points="732.8217,371.3386 734.187,371.5938 735.3679,372.325 736.205,373.4334 736.5851,374.7694 736.4569,376.1524 735.8378,377.3958 734.8113,378.3315 733.5161,378.8333 732.1272,378.8333 730.832,378.3315 729.8055,377.3958 729.1864,376.1524 729.0583,374.7694 729.4384,373.4334 730.2754,372.325 731.4563,371.5938 732.8217,371.3386 732.8217,341.1024 734.187,340.8471 735.3679,340.1159 736.205,339.0075 736.5851,337.6716 736.4569,336.2885 735.8378,335.0452 734.8113,334.1094 733.5161,333.6077 732.1272,333.6077 730.832,334.1094 729.8055,335.0452 729.1864,336.2885 729.0583,337.6716 729.4384,339.0075 730.2754,340.1159 731.4563,340.8471 732.8217,341.1024"/>
    <polyline points="736.6012,337.3228 763.0579,337.3228 765.6432,336.867 767.9167,335.5544 768.8485,334.6226 770.1611,332.3491 770.6169,329.7638 770.6169,303.3071"/>
    <polyline points="766.8374,299.5276 767.0926,298.1622 767.8238,296.9813 768.9323,296.1443 770.2682,295.7642 771.6513,295.8923 772.8946,296.5114 773.8304,297.5379 774.3321,298.8331 774.3321,300.222 773.8304,301.5172 772.8946,302.5437 771.6513,303.1628 770.2682,303.291 768.9323,302.9109 767.8238,302.0738 767.0926,300.8929 766.8374,299.5276 661.0106,299.5276"/>
    <polygon points="655.2414,302.741 656.5366,303.2427 657.9256,303.2427 659.2208,302.741 660.2472,301.8052 660.8664,300.5619 660.9945,299.1788 660.6144,297.8429 659.7774,296.7345 658.5964,296.0033 657.2311,295.748 655.8658,296.0033 654.6849,296.7345 653.8478,297.8429 653.4677,299.1788 653.5959,300.5619 654.215,301.8052"/>
    <line x1="653.4516" x2="623.2154" y1="299.5276" y2="299.5276"/>
    <polygon points="620.1303,303.2427 621.4255,302.741 622.452,301.8052 623.0711,300.5619 623.1992,299.1788 622.8191,297.8429 621.9821,296.7345 620.8012,296.0033 619.4358,295.748 618.0705,296.0033 616.8896,296.7345 616.0525,297.8429 615.6724,299.1788 615.8006,300.5619 616.4197,301.8052 617.4462,302.741 618.7413,303.2427"/>
    <polyline points="615.6563,299.5276 587.9027,299.5276 585.2774,299.7572 582.732,300.4393 580.3436,301.553 578.1849,303.0645 562.7429,318.4252 578.1849,333.7859 580.3436,335.2974 582.732,336.4111 585.2774,337.0932 587.9027,337.3228 619.4358,337.3228"/>
    <line x1="619.4358" x2="619.4358" y1="327.874" y2="346.7717"/>
    <line x1="581.6406" x2="581.6406" y1="365.6693" y2="384.5669"/>
    <line x1="543.8453" x2="543.8453" y1="479.0551" y2="497.9528"/>
    <polyline points="543.8453,488.5039 574.0815,488.5039 576.6668,488.9598 578.9404,490.2724 580.6278,492.2835 581.5257,494.7504 581.6406,496.063 581.6406,522.5197 580.2752,522.7749 579.0943,523.5061 578.2573,524.6145 577.8772,525.9505 578.0053,527.3335 578.6244,528.5769 579.6509,529.5126 580.9461,530.0144 582.335,530.0144 583.6302,529.5126 584.6567,528.5769 585.2758,527.3335 585.404,525.9505 585.0238,524.6145 584.1868,523.5061 583.0059,522.7749 581.6406,522.5197"/>
    <line x1="577.861" x2="547.6248" y1="526.2992" y2="526.2992"/>
    <polyline points="543.8453,530.0787 545.2106,529.8235 546.3915,529.0923 547.2286,527.9839 547.6087,526.6479 547.4805,525.2649 546.8614,524.0215 545.8349,523.0858 544.5398,522.584 543.1508,522.584 541.8556,523.0858 540.8292,524.0215 540.21,525.2649 540.0819,526.6479 540.462,527.9839 541.299,529.0923 542.48,529.8235 543.8453,530.0787 543.8453,556.5354 543.3894,559.1208 542.0768,561.3943 541.1451,562.326 538.8716,563.6386 536.2862,564.0945 506.05,564.0945"/>
    <line x1="506.05" x2="506.05" y1="573.5433" y2="554.6457"/>
    <polyline points="509.8295,526.2992 509.5743,527.6645 508.8431,528.8455 507.7347,529.6825 506.3987,530.0626 505.0157,529.9345 503.7723,529.3153 502.8366,528.2889 502.3348,526.9937 502.3348,525.6047 502.8366,524.3095 503.7723,523.2831 505.0157,522.664 506.3987,522.5358 507.7347,522.9159 508.8431,523.753 509.5743,524.9339 509.8295,526.2992 540.0658,526.2992"/>
    <polyline points="506.05,522.5197 506.1075,493.4484 506.9617,489.5954 508.0754,487.207 510.478,484.0759 539.4173,455.1367 542.5484,452.7341 546.1946,451.2238 550.1074,450.7087 613.1737,450.7087 617.0866,450.1935 620.7328,448.6832 622.8914,447.1717 652.8031,417.3414 654.8218,415.6475 657.104,414.3298 659.5804,413.4285 663.4932,412.9134 691.2469,412.9134"/>
    <polygon points="693.0367,416.1268 694.3319,416.6286 695.7209,416.6286 697.016,416.1268 698.0425,415.1911 698.6616,413.9477 698.7898,412.5647 698.4097,411.2287 697.5726,410.1203 696.3917,409.3891 695.0264,409.1339 693.6611,409.3891 692.4801,410.1203 691.6431,411.2287 691.263,412.5647 691.3911,413.9477 692.0103,415.1911"/>
    <line x1="698.8059" x2="729.0421" y1="412.9134" y2="412.9134"/>
    <polygon points="730.832,416.1268 732.1272,416.6286 733.5161,416.6286 734.8113,416.1268 735.8378,415.1911 736.4569,413.9477 736.5851,412.5647 736.205,411.2287 735.3679,410.1203 734.187,409.3891 732.8217,409.1339 731.4563,409.3891 730.2754,410.1203 729.4384,411.2287 729.0583,412.5647 729.1864,413.9477 729.8055,415.1911"/>
    <line x1="736.6012" x2="766.8374" y1="412.9134" y2="412.9134"/>
    <polyline points="770.6169,409.1339 771.9823,409.3891 773.1632,410.1203 774.0002,411.2287 774.3803,412.5647 774.2522,413.9477 773.6331,415.1911 772.6066,416.1268 771.3114,416.6286 769.9224,416.6286 768.6273,416.1268 767.6008,415.1911 766.9817,413.9477 766.8535,412.5647 767.2336,411.2287 768.0707,410.1203 769.2516,409.3891 770.6169,409.1339 770.6169,378.8976 769.2516,378.6424 768.0707,377.9112 767.2336,376.8028 766.8535,375.4668 766.9817,374.0838 767.6008,372.8404 768.6273,371.9047 769.9224,371.4029 771.3114,371.4029 772.6066,371.9047 773.6331,372.8404 774.2522,374.0838 774.3803,375.4668 774.0002,376.8028 773.1632,377.9112 771.9823,378.6424 770.6169,378.8976"/>
    <line x1="774.3965" x2="804.6327" y1="375.1181" y2="375.1181"/>
    <line x1="808.4122" x2="808.4122" y1="378.8976" y2="409.1339"/>
    <polygon points="805.1988,414.9031 806.1345,415.9295 807.3779,416.5486 808.7609,416.6768 810.0969,416.2967 811.2053,415.4596 811.9365,414.2787 812.1917,412.9134 811.9365,411.5481 811.2053,410.3671 810.0969,409.5301 808.7609,409.15 807.3779,409.2781 806.1345,409.8973 805.1988,410.9237 804.697,412.2189 804.697,413.6079"/>
    <polyline points="808.4122,416.6929 808.4122,484.7244 807.0469,484.9796 805.866,485.7108 805.0289,486.8193 804.6488,488.1552 804.777,489.5383 805.3961,490.7816 806.4225,491.7174 807.7177,492.2191 809.1067,492.2191 810.4019,491.7174 811.4283,490.7816 812.0475,489.5383 812.1756,488.1552 811.7955,486.8193 810.9585,485.7108 809.7775,484.9796 808.4122,484.7244"/>
    <polyline points="804.6327,488.5039 776.8791,488.5039 774.2538,488.2743 771.7084,487.5922 769.32,486.4785 767.1613,484.967 751.7193,469.6063"/>
    <polyline points="732.8217,469.6063 732.8792,483.5594 733.7334,487.4125 735.5557,490.9132 737.2496,492.9319 767.1613,522.7622 770.4899,524.8828 774.2538,526.0695 776.8791,526.2992 838.6484,526.2992 839.961,526.1844 842.428,525.2865 844.439,523.599 845.1948,522.5197 846.0926,520.0528 846.2075,492.2835"/>
    <polygon points="849.7318,487.1386 849.0006,485.9577 847.8922,485.1206 846.5562,484.7405 845.1732,484.8687 843.9298,485.4878 842.9941,486.5143 842.4923,487.8095 842.4923,489.1984 842.9941,490.4936 843.9298,491.5201 845.1732,492.1392 846.5562,492.2673 847.8922,491.8872 849.0006,491.0502 849.7318,489.8693 849.987,488.5039"/>
    <polyline points="846.2075,484.7244 846.2075,458.2677 846.6634,455.6824 847.976,453.4088 849.987,451.7214 852.4539,450.8235 877.7563,450.5938 879.0291,450.2528 881.3026,448.9402 882.99,446.9291 883.8879,444.4622 884.0028,341.1024"/>
    <polyline points="880.2232,337.3228 880.4785,335.9575 881.2097,334.7766 882.3181,333.9395 883.654,333.5594 885.0371,333.6876 886.2804,334.3067 887.2162,335.3332 887.7179,336.6283 887.7179,338.0173 887.2162,339.3125 886.2804,340.339 885.0371,340.9581 883.654,341.0862 882.3181,340.7061 881.2097,339.8691 880.4785,338.6882 880.2232,337.3228 853.7665,337.3228 851.1812,337.7787 848.9077,339.0913 847.976,340.023 846.6634,342.2965 846.2075,344.8819 846.2075,371.3386 844.8422,371.5938 843.6612,372.325 842.8242,373.4334 842.4441,374.7694 842.5722,376.1524 843.1914,377.3958 844.2178,378.3315 845.513,378.8333 846.902,378.8333 848.1971,378.3315 849.2236,377.3958 849.8427,376.1524 849.9709,374.7694 849.5908,373.4334 848.7537,372.325 847.5728,371.5938 846.2075,371.3386"/>
    <polyline points="842.428,375.1181 812.1917,375.1181 811.9365,376.4834 811.2053,377.6644 810.0969,378.5014 808.7609,378.8815 807.3779,378.7534 806.1345,378.1342 805.1988,377.1078 804.697,375.8126 804.697,374.4236 805.1988,373.1284 806.1345,372.102 807.3779,371.4829 808.7609,371.3547 810.0969,371.7348 811.2053,372.5719 811.9365,373.7528 812.1917,375.1181"/>
    <line x1="808.4122" x2="808.4122" y1="371.3386" y2="303.3071"/>
    <polyline points="812.1917,299.5276 811.9365,298.1622 811.2053,296.9813 810.0969,296.1443 808.7609,295.7642 807.3779,295.8923 806.1345,296.5114 805.1988,297.5379 804.697,298.8331 804.697,300.222 805.1988,301.5172 806.1345,302.5437 807.3779,303.1628 808.7609,303.291 810.0969,302.9109 811.2053,302.0738 811.9365,300.8929 812.1917,299.5276 884.0028,299.5276"/>
    <line x1="884.0028" x2="884.0028" y1="290.0787" y2="308.9764"/>
    <polyline points="808.4122,295.748 808.4122,267.9944 808.1825,265.3692 806.9958,261.6052 805.6781,259.323 803.9842,257.3043 775.0449,228.365 773.0262,226.6711 770.744,225.3535 768.2677,224.4521 764.3548,223.937 698.8059,223.937"/>
    <polygon points="693.6611,220.4127 692.4801,221.1439 691.6431,222.2523 691.263,223.5883 691.3911,224.9713 692.0103,226.2147 693.0367,227.1504 694.3319,227.6522 695.7209,227.6522 697.016,227.1504 698.0425,226.2147 698.6616,224.9713 698.7898,223.5883 698.4097,222.2523 697.5726,221.1439 696.3917,220.4127 695.0264,220.1575"/>
    <line x1="691.2469" x2="661.0106" y1="223.937" y2="223.937"/>
    <polyline points="657.2311,227.7165 658.5964,227.4613 659.7774,226.7301 660.6144,225.6217 660.9945,224.2857 660.8664,222.9027 660.2472,221.6593 659.2208,220.7236 657.9256,220.2218 656.5366,220.2218 655.2414,220.7236 654.215,221.6593 653.5959,222.9027 653.4677,224.2857 653.8478,225.6217 654.6849,226.7301 655.8658,227.4613 657.2311,227.7165 657.2311,254.1732 657.1163,255.4858 656.2184,257.9528 655.4626,259.0321 653.4516,260.7196 652.2574,261.2764 649.6721,261.7323 585.4201,261.7323 585.1649,260.367 584.4337,259.186 583.3252,258.349 581.9893,257.9689 580.6062,258.097 579.3629,258.7162 578.4271,259.7426 577.9254,261.0378 577.9254,262.4268 578.4271,263.7219 579.3629,264.7484 580.6062,265.3675 581.9893,265.4957 583.3252,265.1156 584.4337,264.2785 585.1649,263.0976 585.4201,261.7323"/>
    <polyline points="581.6406,257.9528 581.6406,231.4961 582.0964,228.9107 583.409,226.6372 584.3407,225.7055 586.6143,224.3929 589.1996,223.937 615.6563,223.937"/>
    <polygon points="621.9821,221.1439 620.8012,220.4127 619.4358,220.1575 618.0705,220.4127 616.8896,221.1439 616.0525,222.2523 615.6724,223.5883 615.8006,224.9713 616.4197,226.2147 617.4462,227.1504 618.7413,227.6522 620.1303,227.6522 621.4255,227.1504 622.452,226.2147 623.0711,224.9713 623.1992,223.5883 622.8191,222.2523"/>
    <line x1="623.2154" x2="653.4516" y1="223.937" y2="223.937"/>
    <line x1="736.6012" x2="766.8374" y1="375.1181" y2="375.1181"/>
    <polyline points="388.8846,526.2992 359.8134,526.2417 355.9603,525.3875 353.572,524.2738 351.4133,522.7622 241.4831,412.9134"/>
    <line x1="248.1644" x2="234.8018" y1="406.2321" y2="419.5947"/>
    <polyline points="317.0736,409.1339 317.0736,381.3802 316.8439,378.755 316.1619,376.2095 315.0482,373.8212 313.5367,371.6625 283.7063,341.7508 282.0124,339.7321 280.6948,337.4499 279.7935,334.9736 279.3359,332.3783 279.2208,304.4721 278.7632,301.8768 277.8619,299.4005 276.5443,297.1183 274.8504,295.0996 241.4831,261.7323"/>
    <line x1="234.8018" x2="248.1644" y1="268.4136" y2="255.051"/>
  </g>
</svg>
