<?xml version="1.0" encoding="utf-8" ?>
<svg xmlns="http://www.w3.org/2000/svg" xmlns:cc="http://creativecommons.org/ns#" xmlns:dc="http://purl.org/dc/elements/1.1/" xmlns:ev="http://www.w3.org/2001/xml-events" xmlns:inkscape="http://www.inkscape.org/namespaces/inkscape" xmlns:rdf="http://www.w3.org/1999/02/22-rdf-syntax-ns#" xmlns:sodipodi="http://sodipodi.sourceforge.net/DTD/sodipodi-0.dtd" xmlns:xlink="http://www.w3.org/1999/xlink" baseProfile="tiny" height="29.7cm" version="1.2" viewBox="0 0 793.7007874015749 1122.5196850393702" width="21.0cm">
  <metadata>
    <rdf:RDF>
      <cc:Work>
        <dc:format>image/svg+xml</dc:format>
        <dc:source/>
        <dc:date>2022-01-28T21:52:49.659776</dc:date>
      </cc:Work>
    </rdf:RDF>
  </metadata>
  <defs/>
  <g fill="none" id="layer1" inkscape:groupmode="layer" inkscape:label="1" stroke="#00f" style="display:inline">
    <polyline points="245.6693,372.2835 548.0315,372.2835 548.0315,750.2362 245.6693,750.2362 245.6693,372.2835 246.1454,373.29 245.8621,374.3686"/>
    <polyline points="261.5831,372.2835 261.4632,373.97 262.0369,374.9288 263.0105,375.4886 264.7036,375.4453"/>
    <polyline points="265.3947,388.0199 259.1171,394.5111 258.1033,394.9772 256.9704,394.9653"/>
    <polyline points="250.9923,390.5315 248.9889,391.5825 245.6693,392.1757"/>
    <polyline points="247.2532,406.7007 246.6193,407.6388 245.6693,412.068"/>
    <polyline points="256.09,413.1948 257.6548,412.5981 263.2817,412.0796 265.2963,413.0501 266.1879,414.4587"/>
    <polyline points="276.9259,417.0837 276.3498,413.7568 276.5605,412.6669 276.9766,412.2876 278.0582,411.9992 279.176,412.1523 281.9387,414.8821"/>
    <polyline points="289.6346,416.1199 291.5363,414.0327 292.9373,413.0857 294.4639,409.4588 296.7924,407.8758"/>
    <polyline points="303.919,410.8522 305.3977,411.6336 311.5654,412.3192 312.633,411.9944 314.0767,410.2536"/>
    <polyline points="320.0976,409.8956 322.2793,410.4402 325.7418,412.324 327.8246,414.206 330.0009,414.7645"/>
    <polyline points="339.3975,407.1632 340.3015,407.8406 340.8398,408.833 340.6712,411.0576 341.5713,412.4474 344.2803,413.2304 346.4212,412.5846"/>
    <polyline points="352.9116,415.0246 353.8597,412.9832 354.3103,412.6501 356.5411,412.2759 357.9898,411.4138 360.3757,407.5831"/>
    <polyline points="369.0757,416.1008 370.0031,415.4724 372.6484,412.527 373.8672,410.6232 374.0831,408.9464 373.7419,406.709"/>
    <polyline points="385.3612,407.7879 386.2058,408.5404 387.9668,411.4256 390.8764,413.1469 393.3366,415.4933"/>
    <polyline points="400.0205,411.8139 401.2427,410.6681 402.3578,410.6764 403.897,411.3928 406.644,413.388 409.9052,414.3029"/>
    <polyline points="417.6871,407.4729 419.7285,409.4254 421.6718,414.1105 422.8657,415.3093 424.3931,416.036"/>
    <polyline points="424.0232,427.7574 421.6901,429.3195 420.5592,432.5018 419.9391,433.4487 417.7395,435.2207 416.6483,435.4812"/>
    <polyline points="408.0695,436.1812 406.5878,435.3548 405.4127,434.1414 404.172,430.4041 403.1786,429.9134 400.3991,430.3987"/>
    <polyline points="394.019,429.7628 393.1373,430.4684 387.9371,432.5374 386.6769,435.0653 386.3675,436.7301"/>
    <polyline points="377.7647,433.4018 376.7997,433.989 375.152,433.7279 373.4541,432.2699 370.4003,430.8081 368.1788,429.0526"/>
    <polyline points="359.8407,427.295 359.3322,429.5003 358.4068,430.9159 356.1482,432.6255 354.5754,434.2548 352.6804,435.4556"/>
    <polyline points="343.983,436.2394 343.4016,433.4722 342.7152,432.5923 338.4135,431.2628 336.2159,429.4993"/>
    <polyline points="328.0914,427.2639 327.1953,427.9547 325.6301,430.31 325.1616,432.5216 325.0364,435.3523 324.0386,437.35"/>
    <polyline points="313.4846,435.5394 312.6586,434.7805 310.6335,433.7853 308.8673,431.6266 306.778,430.7897 304.9368,428.682"/>
    <polyline points="298.8374,430.8372 297.711,430.873 296.1389,431.5111 294.4443,431.5525 293.4107,431.9602 290.1624,436.571"/>
    <polyline points="289.1072,448.2658 291.0687,449.3958 293.8143,452.2491 295.3164,453.0386 297.0841,454.4535 297.7539,455.3606"/>
    <polyline points="305.4285,447.7734 310.5309,453.0475 312.2817,456.5858"/>
    <polyline points="319.636,451.8273 321.3114,451.5948 324.1121,451.9471 327.4972,451.6764 329.7544,451.8439 330.8199,451.4813"/>
    <polyline points="335.6318,451.8654 339.5429,451.3245 342.7503,452.4248 345.0033,452.4805 346.4722,453.2965"/>
    <polyline points="352.5604,448.4939 353.738,449.7174 357.5807,452.082 358.7041,452.0523 360.3094,451.515 361.7973,449.838"/>
    <polyline points="367.505,452.6785 368.4931,452.1648 372.421,451.7659 374.9759,452.9167 376.3318,453.9287 376.8893,454.0043 377.8894,453.5181"/>
    <polyline points="383.824,454.2838 389.2873,451.4489 390.7937,449.0618 391.084,446.8154"/>
    <polyline points="407.5682,447.4417 405.7702,448.7557 404.724,450.7225 405.0821,452.951 406.2761,454.8727 407.1093,456.9772"/>
    <polyline points="409.9403,469.4405 407.3034,470.4712 405.8859,471.3981 403.2142,472.3274 400.4681,475.1161"/>
    <polyline points="390.8346,476.8874 390.7786,475.2078 389.5274,473.3198 388.1268,470.2285 386.4551,468.7579 385.538,467.3352"/>
    <polyline points="378.5113,472.3237 375.6917,472.454 371.3588,471.2779 369.6925,471.5638 367.9839,473.0254"/>
    <polyline points="360.9328,467.7825 358.6581,469.4643 357.8703,470.964 357.0659,471.7447 355.4088,472.0776 353.168,471.7752 351.5033,472.0852"/>
    <polyline points="346.702,470.7495 342.2223,471.3765 340.7402,472.1243 340.2063,474.8944 340.6904,477.0974"/>
    <polyline points="330.3778,470.2419 329.5949,471.0367 325.7721,471.927 322.0866,469.3393 320.8922,468.1308"/>
    <polyline points="312.4792,469.1921 312.0936,471.415 311.3625,472.2703 310.2719,472.356 308.9494,471.3209 307.5362,468.8933 305.4367,468.1002"/>
    <polyline points="298.6211,473.0689 296.9746,472.6973 295.0491,471.5542 293.9282,471.5162 290.6763,473.7476 288.5818,474.5911"/>
    <polyline points="282.8159,471.8891 280.6279,472.4631 278.3886,472.4385 275.0974,469.3365 272.9843,468.569"/>
    <polyline points="265.7033,475.248 263.6876,472.5404 261.5831,471.7447 259.8789,470.2543 258.285,469.7129 256.6352,470.0552"/>
    <polyline points="250.9054,473.7258 248.9385,472.6128 245.6693,471.7447"/>
    <polyline points="245.6693,451.8525 247.0258,452.859 248.1094,453.1541 249.1858,452.8872 250.3356,451.6412"/>
    <polyline points="256.0037,452.6971 260.5026,452.1924 262.1147,451.6573 263.8283,450.1962 265.0664,447.6547"/>
    <polyline points="272.3404,453.17 274.7158,451.6539 276.3723,451.9547 278.0338,451.6732 280.4607,449.4173 282.1227,449.6702"/>
    <polyline points="272.9011,434.5483 276.6772,433.4377 279.1318,429.6507 280.3382,427.1255"/>
    <polyline points="266.0881,430.288 265.0745,429.7972 263.9522,429.7288 262.5096,430.5525 260.9725,432.9136 259.5122,437.1972"/>
    <polyline points="249.6065,430.1551 248.4997,432.1272 247.6356,432.8335 246.5622,432.6577 245.6693,431.9602"/>
    <polyline points="271.8686,391.9686 274.6739,392.2655 278.6096,392.0647 280.4783,390.8062 281.5651,388.8192"/>
    <polyline points="290.4178,396.7073 291.2993,396.0416 291.9621,393.8832 292.9682,392.5301 294.3504,391.551 298.5239,389.8487"/>
    <polyline points="304.2438,389.9262 308.7595,392.2177 312.127,391.8903 314.4623,390.3053"/>
    <polyline points="319.9426,393.7526 321.0171,393.4371 322.4428,392.5197 324.1326,392.4256 326.2839,391.753 327.1949,390.3537 327.6869,387.5671"/>
    <polyline points="336.1577,389.9177 338.4124,391.5862 341.1521,392.1757 342.1975,391.7854 343.058,391.0511 345.1041,388.3545"/>
    <polyline points="353.2434,395.8872 354.5186,393.3691 357.5754,391.9273 358.4202,391.1914 359.1252,389.0487 358.9627,387.3593"/>
    <polyline points="368.4822,394.7472 370.1686,394.66 371.7376,394.0584 372.7379,392.6875 375.1299,386.941"/>
    <polyline points="385.9183,396.8027 386.9951,394.191 387.9381,392.7811 390.8798,391.1115 394.2498,390.7182"/>
    <polyline points="400.1124,389.0453 405.262,392.5133 406.8283,394.8472 408.6967,396.1128"/>
    <polyline points="415.3388,392.813 416.9559,393.2696 420.1551,392.2026 421.848,392.0885 423.869,390.1591 425.4948,389.8144"/>
    <polyline points="431.2602,393.5896 433.515,393.52 436.6349,392.1757 438.2905,391.8688 439.9473,392.2359 441.5372,393.8238"/>
    <polyline points="447.5702,389.9422 451.3928,390.9543 453.2187,393.0876 455.7573,395.3403 456.3386,396.312"/>
    <polyline points="464.147,395.5705 465.6023,394.7005 467.3872,392.5248 469.5004,391.7228 471.8516,390.1495 472.7764,388.7294"/>
    <polyline points="480.9229,395.629 481.5439,393.4546 482.7181,392.2616 486.0662,392.0046 489.8107,390.7072"/>
    <polyline points="495.106,393.9762 496.7963,394.0249 497.8465,393.6042 501.2848,391.6328 503.2832,389.6501 504.8712,389.0607"/>
    <polyline points="510.9552,392.6287 512.9799,391.6228 514.6728,391.5378 515.7577,391.8282 516.7828,393.1276 517.8374,397.5145"/>
    <polyline points="526.7344,393.6555 529.3479,392.6029 531.5931,392.3849 533.9549,390.8647 535.0475,390.5687 537.1407,391.3301"/>
    <polyline points="542.9728,391.1708 545.7199,390.5785 548.0315,392.1757"/>
    <polyline points="542.6009,411.0276 543.7067,411.1868 545.2092,411.9582 548.0315,412.068"/>
    <polyline points="537.4968,413.6929 533.7845,412.3493 532.1177,412.068 529.3702,410.0936 528.1268,408.2056"/>
    <polyline points="521.0433,414.6203 519.9093,413.398 516.2039,412.068 514.3383,407.9501 513.4405,407.2836"/>
    <polyline points="502.3738,406.9215 501.9709,409.1383 499.8918,412.4611 496.5291,412.7505 494.9772,413.436"/>
    <polyline points="484.4038,406.8691 483.3762,408.8532 484.2902,411.5084 484.3847,413.1982 482.7508,415.4824 481.1587,415.9588"/>
    <polyline points="472.9769,415.3372 470.9203,413.3977 468.4625,412.068 467.227,409.5308 466.7596,406.7527"/>
    <polyline points="455.7946,407.6686 453.9464,411.1627 452.5487,412.068 451.4475,411.9355 448.556,410.1722 447.4293,410.2051"/>
    <polyline points="442.0261,413.1816 438.6553,412.9605 437.0515,412.4511 436.1058,411.0816 435.7663,408.8776 434.9981,408.059 433.9352,407.6701"/>
    <polyline points="441.2855,429.1193 439.8842,430.0589 437.2429,431.0104 434.9954,434.257 432.519,435.6152"/>
    <polyline points="432.113,448.617 435.1325,450.163 437.3288,452.7481 438.7103,453.7161 439.8027,453.5347 441.1709,452.5554"/>
    <polyline points="451.6632,457.2581 451.9474,456.1784 451.7334,453.9252 452.5487,451.8525 453.5843,451.4958 456.4102,451.713 458.0461,451.3036"/>
    <polyline points="463.0785,452.7872 467.0417,452.7432 469.7604,450.7818 473.5021,451.9368"/>
    <polyline points="478.8507,451.1076 481.5689,451.8825 483.8231,451.9761 486.0601,451.6697 489.4786,449.7007"/>
    <polyline points="495.44,450.4494 497.6502,450.0093 498.7497,450.2765 499.6853,450.9021 501.0329,453.3813 501.9948,457.2275"/>
    <polyline points="510.9547,449.9398 513.4451,451.2659 515.6378,451.8291 517.3372,451.836 521.7434,450.8168"/>
    <polyline points="526.5111,451.981 530.4448,451.5544 532.6823,451.9037 534.9294,451.8146 535.7486,452.543 536.4172,454.1062"/>
    <polyline points="543.3457,449.0615 545.5186,449.5668 548.0315,451.8525"/>
    <polyline points="544.3599,468.5296 545.4696,468.3347 546.4961,468.771 547.2178,469.6324 548.0315,471.7447"/>
    <polyline points="535.4396,475.8188 533.8966,475.2373 532.756,472.6817 531.3518,470.9162 528.9075,469.504 527.2539,469.5648"/>
    <polyline points="518.2464,466.7122 517.3852,467.438 516.8316,468.4186 516.2039,471.7447 516.4489,472.2499 518.6029,474.0523 519.3844,476.1565"/>
    <polyline points="520.8801,488.5412 518.3386,489.7891 516.6628,491.3056 514.7236,492.4642 512.1526,495.4787"/>
    <polyline points="501.8866,496.9584 501.1477,493.0837 500.2901,491.637 499.2119,491.5091 498.203,492.0223 496.8998,493.1115 495.898,494.4796"/>
    <polyline points="489.5566,489.4931 484.9166,491.4716 483.8109,491.6361 481.6799,490.978 479.731,488.9386"/>
    <polyline points="472.7194,488.2528 469.6656,489.729 466.9975,494.0589 465.2415,496.2611"/>
    <polyline points="455.3581,486.7992 454.2514,489.3955 452.8165,491.1376 449.6192,496.4369"/>
    <polyline points="440.5747,494.6112 439.659,492.5654 438.3034,491.6046 435.5177,491.7805 432.7177,491.3647 431.0996,491.8278"/>
    <polyline points="426.1063,490.1999 421.8473,491.7033 418.4857,491.2974 416.2718,491.6589 415.2148,491.2625"/>
    <polyline points="407.8502,486.8913 405.0315,491.1165 403.4521,495.3458 402.1388,496.3606"/>
    <polyline points="405.7022,506.3302 405.4391,507.4129 405.7363,510.2193 405.2895,511.2444 401.4898,512.22 399.2373,512.3499"/>
    <polyline points="393.6997,509.2498 391.9993,509.2236 390.9473,509.5926 388.1332,512.3683 386.696,513.2436 385.5906,513.1846 384.045,512.4823"/>
    <polyline points="378.3693,512.8295 375.8055,511.6699 371.8573,511.3811 370.272,511.9506 367.8528,513.4072"/>
    <polyline points="361.5967,514.6178 360.4744,513.3473 358.3284,512.6403 357.4273,511.9658 356.7568,511.0549 356.1312,508.8917 353.7802,507.3577"/>
    <polyline points="346.6781,512.4172 341.6507,511.7978 338.3697,509.5753 336.2385,508.8398"/>
    <polyline points="329.7846,512.5303 327.5246,510.828 326.4632,510.4624 325.9371,510.6501 324.1931,512.8678 323.3518,514.9631 322.3688,516.3457"/>
    <polyline points="313.627,514.6014 312.4044,512.7031 311.5338,511.9906 305.4551,510.6985 303.7577,510.7598"/>
    <polyline points="298.8091,512.2562 295.6281,511.1567 289.4719,511.9225 287.8441,512.3866"/>
    <polyline points="283.0016,511.5812 280.8497,511.0112 276.3749,511.691 274.2118,512.3396 273.1327,512.0654 272.2097,511.408"/>
    <polyline points="265.4485,507.4236 260.0843,513.2269 257.0837,514.7662"/>
    <polyline points="251.0537,510.7329 247.6791,510.5561 245.6693,511.5292"/>
    <polyline points="249.7094,495.509 247.4156,493.865 245.6693,491.637"/>
    <polyline points="256.552,491.3854 258.5494,490.3429 259.6628,490.4445 266.4443,494.4721"/>
    <polyline points="277.2571,497.2734 277.4969,491.637 278.5379,490.3071 281.6969,487.9126"/>
    <polyline points="290.4919,495.0841 292.1712,495.0323 293.089,494.4104 293.236,492.1758 293.972,490.655 295.4659,488.9633 297.5264,488.0801"/>
    <polyline points="306.0387,487.098 307.6568,488.6819 309.3245,491.637 311.2534,493.6985 311.7845,494.6947 312.0942,496.3643"/>
    <polyline points="326.4595,497.0771 326.3648,494.8191 325.3009,492.1993 325.3203,491.0788 326.5951,490.0471 329.9515,489.8525"/>
    <polyline points="336.8031,495.0829 338.8546,494.1365 342.4401,490.5267 345.8284,488.4997"/>
    <polyline points="352.734,490.8093 353.6398,492.2364 354.6226,492.7365 355.7465,492.6788 357.0659,491.637 357.4669,490.0463 356.8143,488.485 356.5475,486.2344"/>
    <polyline points="367.8656,492.0154 369.2858,491.1003 370.9458,490.7713 372.0474,490.9942 375.3691,493.1251 377.0202,492.9829 377.8277,492.2052"/>
    <polyline points="385.5876,496.21 388.4882,492.0326 393.1368,487.9408"/>
    <polyline points="417.4098,475.7693 419.8204,474.2844 420.5297,473.4113 420.7852,470.6194 421.5922,468.5316 422.6387,468.2173 423.6632,468.6906"/>
    <polyline points="432.9428,475.2999 434.6115,474.9908 435.5022,474.3388 436.6349,471.7447 436.8606,470.0615 437.4941,469.1446 438.4778,468.6034 440.1569,468.3594"/>
    <polyline points="447.9812,474.704 451.1382,473.504 452.8704,471.2781 454.5777,468.3468 456.0215,467.4696"/>
    <polyline points="464.7613,468.0455 466.8122,471.3936 469.5598,472.0204 473.7309,473.7604"/>
    <polyline points="478.8583,471.488 480.5266,471.1687 482.6887,471.8205 484.3763,471.7447 485.269,471.0777 486.5376,469.2117 488.2631,467.7513"/>
    <polyline points="495.3584,473.472 496.0034,472.5463 497.4912,471.7389 499.177,471.543 501.4148,471.8313 505.841,471.0098"/>
    <polyline points="535.7928,488.3963 533.5702,488.817 532.7102,489.5042 532.0845,491.0719 532.195,492.7648 531.8602,495.5726 530.8757,496.9369"/>
    <polyline points="532.6544,506.1405 531.9272,507.6705 531.6596,509.3486 532.1903,512.0893 532.1006,514.9142 530.8439,516.7713"/>
    <polyline points="527.0559,529.1648 530.3125,530.104 532.1177,531.4215 534.9207,531.8251 537.5823,532.7304"/>
    <polyline points="544.1922,528.2159 545.3079,528.2546 546.8657,528.9005 547.5524,529.7961 548.0315,531.4215"/>
    <polyline points="548.0315,551.3137 546.6405,550.3452 546.0807,550.2838 544.3999,550.4402 542.9753,551.3592"/>
    <polyline points="532.5453,556.2806 532.0891,554.6804 533.0083,552.6325 532.5865,551.63 528.9277,550.1592 527.8076,550.0789 526.7183,550.3904"/>
    <polyline points="521.8139,551.1325 517.8761,551.5365 515.0748,551.2231 513.3978,551.4771 511.9831,552.3626 511.6936,553.4485"/>
    <polyline points="505.6074,553.1842 503.4188,552.5978 500.8432,551.4237 499.744,551.444 499.0465,552.3056 497.7625,556.0458"/>
    <polyline points="490.0185,551.1747 487.7604,551.0297 480.986,551.4065 479.331,549.9058"/>
    <polyline points="471.889,555.732 469.7448,552.4176 467.0845,550.3305 465.8495,548.4485 464.5175,547.3998"/>
    <polyline points="455.5523,547.0404 454.7767,549.7359 453.6108,550.9299 449.1994,551.829 447.0568,551.2026"/>
    <polyline points="439.3096,546.4433 437.2585,549.1391 435.8077,555.1772 434.8213,556.544"/>
    <polyline points="425.9989,550.4847 422.6139,550.354 421.0236,550.8402 420.6274,551.8709 420.445,555.2481 419.4795,556.6298"/>
    <polyline points="409.2456,553.7784 407.4345,551.6166 405.8933,550.9981 403.717,551.6159 401.4658,551.7887 399.4312,552.77"/>
    <polyline points="391.7222,555.8844 390.3535,554.9195 389.4589,553.4748 388.6275,550.2142 387.6142,548.1931 386.7897,547.4329 385.6752,547.3223"/>
    <polyline points="378.3197,552.1641 374.939,552.3797 373.515,551.4916 372.4142,551.296 369.0309,551.5943 367.6671,552.5365"/>
    <polyline points="361.8264,548.9442 359.5775,549.0711 357.0659,551.3137 356.713,552.3801 357.1414,554.6007 357.0526,556.8492"/>
    <polyline points="346.5604,549.687 340.6143,551.4902 338.3526,551.5173 335.561,551.053"/>
    <polyline points="329.3452,555.0366 327.1651,552.4384 325.7808,551.4774 323.6908,550.6341 319.7337,550.8125"/>
    <polyline points="312.9367,547.3462 310.8729,550.7058 309.3245,551.3137 307.1683,550.6712 305.2213,547.9308"/>
    <polyline points="298.435,552.6219 297.665,551.7914 296.667,551.2675 295.0123,550.9078 293.8879,551.021 293.4107,551.3137 291.8521,554.3204 290.3846,556.0383"/>
    <polyline points="291.0576,566.2761 291.8685,567.7603 292.2597,569.9759 294.203,572.0152 295.6489,572.8682 298.4743,572.7647"/>
    <polyline points="304.5544,568.1868 307.5242,569.8333 311.1697,572.4547 314.2753,571.1649"/>
    <polyline points="321.2145,568.3685 323.1198,571.1569 323.6017,571.448 324.7171,571.4268 325.7036,570.8845 327.2678,569.2456 328.4681,566.7143"/>
    <polyline points="336.5154,569.1546 338.1961,568.9018 339.2865,569.1427 340.2049,569.7977 341.5515,571.6057 345.0797,573.4033 346.189,573.5767"/>
    <polyline points="352.674,574.4811 354.2761,573.9864 356.1447,571.8665 358.05,570.6588 362.5617,570.7567"/>
    <polyline points="370.5379,566.6649 371.1986,568.2071 371.2942,569.8953 372.43,571.0705 375.7567,571.7113 378.2761,570.4775"/>
    <polyline points="384.7158,574.5759 386.3744,572.3012 387.7876,571.3866 388.8935,571.206 390.0014,571.425 392.7603,570.8237 394.4435,570.9985"/>
    <polyline points="401.4955,566.7515 401.7847,567.8417 402.4484,568.7567 404.8073,571.206 406.2117,572.1621 407.8218,572.4525 409.8201,571.4022"/>
    <polyline points="415.3827,570.9495 417.5213,570.2788 418.6432,570.4337 420.1559,571.18 424.1057,571.2939 425.156,570.914 426.0333,570.1978"/>
    <polyline points="431.2641,570.4287 434.0559,570.0959 435.5446,570.8955 437.7517,571.3741 439.9632,570.9316 442.1964,571.1163"/>
    <polyline points="448.7835,566.9889 452.9555,571.5998 457.6928,573.372"/>
    <polyline points="464.0363,572.1212 466.1094,572.9505 467.7309,572.7073 469.7845,567.4675 470.8756,566.1704"/>
    <polyline points="483.6463,565.9284 484.5804,567.2775 484.2635,570.651 484.9428,572.1676 486.4872,572.7649 489.2403,572.1255"/>
    <polyline points="495.9448,573.307 497.5321,573.867 498.544,573.4374 501.233,569.7908 502.1082,567.7111 503.4132,566.6544"/>
    <polyline points="512.0911,567.8221 514.1518,570.5181 515.6397,571.2476 517.8521,570.794 518.8311,570.2401 520.324,567.8543"/>
    <polyline points="527.3425,569.6611 528.3433,569.159 529.9964,569.3744 534.801,573.2416 535.9041,573.1453 536.8921,572.59"/>
    <polyline points="543.141,568.7887 546.4139,569.6511 548.0315,571.206"/>
    <polyline points="548.0315,591.0982 546.6949,592.1247 545.4052,593.9557 543.8552,594.6493"/>
    <polyline points="535.4533,594.9713 533.8261,594.4857 532.9487,593.7911 531.787,590.0194 530.9353,589.2968 529.2759,589.3456 527.817,590.2161"/>
    <polyline points="519.9123,587.031 518.0161,588.2601 515.4624,591.9352 514.3657,592.1305 511.113,591.1817"/>
    <polyline points="503.0213,595.9879 500.991,592.6457 498.8666,588.024 497.3275,586.3665"/>
    <polyline points="489.5453,589.1142 486.7664,589.5826 482.9649,592.0437 482.3644,592.9842 482.0702,594.6474 481.2782,595.4394"/>
    <polyline points="473.774,592.0578 471.2034,590.9031 470.0951,590.67 468.9868,590.8847 467.5456,591.7594 466.455,593.726 464.9282,595.3936"/>
    <polyline points="456.4704,594.5188 455.0854,592.0468 454.2244,591.3381 452.5487,591.0982 450.297,591.2547 447.0263,590.3803"/>
    <polyline points="440.379,588.0138 438.7144,587.9834 437.0731,589.5027 436.6308,590.5324 436.8282,592.787 436.6103,593.8924 435.6859,595.3021 434.6916,595.8301"/>
    <polyline points="423.7112,587.1964 422.0777,587.658 420.9017,588.8539 420.0287,594.4264 419.3522,595.3196 418.3587,595.8551"/>
    <polyline points="410.2821,591.469 409.1931,591.1792 406.4415,591.5653 403.7332,590.739 401.4773,590.5574 399.4672,589.5418"/>
    <polyline points="390.3151,586.2547 389.7697,586.3956 389.094,587.2704 388.5203,590.0404 390.0489,592.9878 389.6432,594.0285 388.1767,595.7555"/>
    <polyline points="376.1352,586.7207 374.6562,587.5561 373.97,588.4447 372.8434,591.6484 372.5892,594.4426 371.1104,596.1439"/>
    <polyline points="362.6292,591.9477 359.8021,591.8238 355.4401,590.6564 354.77,589.759 353.8242,587.0881"/>
    <polyline points="346.1758,593.6242 342.7622,591.6409 339.4946,590.7387 338.9363,590.8156 338.1005,591.5542 337.4059,593.6997"/>
    <polyline points="329.9189,588.1728 328.908,588.6717 327.3237,590.2913 325.2383,591.0982 323.0816,590.4492 320.7755,587.9635"/>
    <polyline points="312.8869,586.8193 310.0413,589.5633 308.6245,592.6425 306.338,595.8622"/>
    <polyline points="298.9057,590.2371 296.7873,591.0289 294.5334,591.2507 292.3029,590.8608 289.6329,589.9263 287.9607,589.9408"/>
    <polyline points="282.9906,592.179 280.8641,591.4221 277.4969,591.0982 275.285,589.3597 272.7912,588.0667"/>
    <polyline points="265.3046,587.1116 263.364,588.2081 260.29,592.9541 257.2992,594.5428"/>
    <polyline points="250.7296,593.4365 249.0652,593.1374 245.6693,591.0982"/>
    <polyline points="249.4081,606.9179 248.4257,607.413 245.6693,610.9905"/>
    <polyline points="258.203,606.8104 259.2326,609.4238 262.8515,612.12 263.9159,613.4411 264.8133,615.5056"/>
    <polyline points="272.3027,612.4345 274.6937,610.9289 278.0634,610.9827 279.1288,611.3167 280.5056,613.0997 281.9758,613.898"/>
    <polyline points="289.2757,607.294 291.6639,608.7757 292.9985,610.6021 295.6729,612.6868 296.6962,613.1613 298.373,613.0893"/>
    <polyline points="303.813,610.0177 304.8339,610.5039 308.7843,610.8234 314.7377,612.614"/>
    <polyline points="326.1065,616.3293 325.4104,615.4494 324.9465,612.6586 326.3697,607.7953 326.5493,605.5367"/>
    <polyline points="335.6198,610.1385 337.8736,610.2361 338.9069,610.6974 341.1521,610.9905 346.7766,610.3775"/>
    <polyline points="355.2685,605.6432 356.3434,609.4522 357.0659,610.9905 358.851,613.1838 361.3042,614.592"/>
    <polyline points="368.6143,612.2152 370.663,610.2653 371.164,610.0069 372.2597,610.1435 373.1243,611.5371 373.0965,614.3597 373.8135,616.4971"/>
    <polyline points="384.9672,614.8843 386.0205,614.4809 389.3499,610.6571 390.9281,610.0354 394.2996,609.6792"/>
    <polyline points="399.4808,610.3143 401.0819,609.7703 402.753,610.0419 404.8073,610.9905 407.9649,613.3857 409.6229,613.4702"/>
    <polyline points="415.227,611.4019 417.4482,611.8104 420.2106,611.2365 421.7626,610.5483 424.4632,611.2559 426.0822,610.7645"/>
    <polyline points="431.1402,611.158 433.3415,611.6797 435.035,611.5419 436.6349,610.9905 439.4531,611.1885 440.5509,610.929 441.846,609.8493"/>
    <polyline points="447.278,608.9374 452.5487,610.9905 454.6892,610.3191 457.498,608.4095"/>
    <polyline points="463.9406,614.1352 465.4064,613.2798 466.8914,611.5733 468.4625,610.9905 470.6635,611.4053 473.6512,613.017"/>
    <polyline points="480.8123,609.0538 481.5618,611.1615 483.0085,611.9372 483.9847,611.4001 486.3769,608.9924 488.1288,606.7715"/>
    <polyline points="498.7373,605.5609 499.8416,609.9498 500.6259,611.4445 502.6252,612.4886 505.4425,612.6881"/>
    <polyline points="510.6752,610.301 515.1943,610.4828 517.2427,611.437 520.6303,611.4387 521.485,612.1192"/>
    <polyline points="532.2785,616.3203 531.8848,615.2884 532.6241,612.6123 531.3651,608.2603 531.5186,605.4374"/>
    <polyline points="543.152,608.7745 545.2301,610.6239 548.0315,610.9905"/>
    <polyline points="548.0315,630.8827 546.7548,634.0067 546.5341,636.2604"/>
    <polyline points="537.6765,650.4995 534.9214,651.133 532.1177,650.775 528.7246,650.8252 526.5963,651.5526"/>
    <polyline points="521.3052,652.8771 520.5239,652.0811 516.2039,650.775 511.3893,647.8158"/>
    <polyline points="502.8462,655.6785 500.8813,652.9294 500.5224,651.2912 499.9585,650.318 497.8888,649.44 495.0651,649.4588"/>
    <polyline points="489.8304,650.7124 488.1524,650.7015 486.5583,651.2826 485.4459,651.1471 484.3763,650.775 479.5996,647.7633"/>
    <polyline points="473.9199,651.5808 472.8727,651.2001 471.1759,651.1795 469.5844,650.6321 468.4625,650.775 467.5313,651.3967 466.8549,652.3021 466.1717,654.4558 465.5293,655.3655"/>
    <polyline points="456.6297,647.8525 454.9346,647.8959 453.9011,648.2963 452.129,651.1475 448.7837,650.9054 447.1208,651.2539"/>
    <polyline points="439.6794,646.3233 439.4374,647.9892 437.9233,649.6673 436.1376,651.0462 435.0632,651.3893 433.3687,651.4383 431.2878,650.5647"/>
    <polyline points="425.3927,653.6749 422.8506,651.4607 421.2848,650.8108 418.4795,651.0704 415.5625,652.7857"/>
    <polyline points="407.1805,646.5264 407.002,649.3433 406.4005,650.2695 405.3707,650.7299 403.6774,650.7002 402.0282,651.066 400.6906,652.1134 400.0969,653.0659"/>
    <polyline points="393.766,648.1379 392.6779,648.4439 389.2358,650.3272 388.2154,652.3344 387.6203,654.5171 386.7258,655.9506"/>
    <polyline points="377.6842,653.2304 375.756,651.2216 372.9797,650.775 369.9798,649.2398 367.7474,649.3841"/>
    <polyline points="362.6033,651.2189 359.8781,650.5149 356.5036,650.8405 354.8414,650.5223 353.964,649.8277 353.1797,647.7084"/>
    <polyline points="344.8641,654.9656 343.5153,653.932 341.5672,651.1603 340.3313,649.9934 336.6393,647.4033"/>
    <polyline points="330.6827,649.554 328.4362,649.7019 325.8028,650.7388 321.8574,651.0572 319.6266,650.6617"/>
    <polyline points="313.0582,646.9349 312.2115,649.0166 309.7584,650.4121 308.6554,651.6812 308.2515,653.3273 308.1284,656.1577"/>
    <polyline points="297.4836,654.5984 296.0823,652.8233 293.4107,650.775 290.608,651.1143 288.0148,652.2413"/>
    <polyline points="282.0783,647.9389 280.1832,649.9947 278.5157,650.2781 274.9106,651.9149 273.8495,651.6182 272.6066,650.4622"/>
    <polyline points="264.3926,655.5602 263.5405,654.8541 260.626,648.7553 259.1981,647.8398 257.532,647.5376"/>
    <polyline points="251.2199,650.4901 248.4092,650.5645 246.78,650.9962 245.6693,650.775"/>
    <polyline points="250.2062,667.436 247.7649,668.7948 245.6693,670.6672"/>
    <polyline points="257.4711,666.8468 261.3021,670.1758 263.9075,673.863 264.3993,675.4862"/>
    <polyline points="272.807,673.4136 275.0088,672.9595 277.9484,670.3285 279.5043,669.6427 280.6156,669.5205 282.6416,670.5122"/>
    <polyline points="288.237,672.3424 290.469,672.1981 292.847,670.7261 296.8045,670.5672 298.9354,669.8429"/>
    <polyline points="303.8687,671.3415 308.3831,671.2746 312.0376,668.6433 312.596,668.5898 314.1597,669.2426"/>
    <polyline points="319.5884,670.6569 326.929,670.7775 328.197,671.8424 329.0996,673.9156"/>
    <polyline points="335.9074,671.1311 338.6505,671.8181 340.7678,671.0795 341.1521,670.6672 341.7566,668.4916 342.2498,665.1385"/>
    <polyline points="351.8342,669.7388 353.4572,669.3214 355.6687,669.7047 357.5221,671.0016 359.3743,673.8364 360.8436,674.6814"/>
    <polyline points="367.7862,672.511 370.7745,670.8915 372.9797,670.6672 374.0683,671.9353 374.6125,673.5333 373.806,675.6136"/>
    <polyline points="385.0862,674.5553 386.5468,673.7484 387.9731,671.3248 390.1143,669.5362 390.4567,668.4597 390.5721,665.6786"/>
    <polyline points="399.3853,671.3266 402.5982,670.2656 406.4901,670.8226 408.3659,669.6172 410.013,669.3156"/>
    <polyline points="418.3354,665.6711 419.0613,668.3915 420.3069,670.2853 421.2586,670.829 422.3012,670.4524 424.9822,667.569"/>
    <polyline points="433.8127,665.8857 434.2946,667.5102 436.6349,670.6672 438.6761,671.6389 442.0725,671.6615"/>
    <polyline points="447.0512,670.3072 448.6823,669.9881 451.9848,670.7216 455.7202,669.5253 457.8938,670.1239"/>
    <polyline points="464.8354,674.8774 466.166,673.8346 467.2393,671.8472 470.3048,669.3573 471.9784,666.4082"/>
    <polyline points="479.2519,670.0811 481.7195,671.3864 482.8415,671.3805 484.3763,670.6672 487.6358,668.4277 489.2979,668.0848"/>
    <polyline points="495.8278,667.5331 497.3082,669.233 499.7255,670.6554 500.8408,670.5352 504.0175,669.3251 505.2286,668.2156"/>
    <polyline points="511.5332,673.3382 513.5113,671.316 515.6426,670.5965 518.9807,671.2225 521.6767,672.08"/>
    <polyline points="526.4876,670.3769 532.6824,670.6202 537.5356,669.1127"/>
    <polyline points="543.33,673.4228 545.3084,671.4159 548.0315,670.6672"/>
    <polyline points="548.0315,690.5595 546.9349,689.2653 545.8788,688.934 544.9104,689.4562 544.2095,690.9991"/>
    <polyline points="536.7219,691.4411 535.8971,692.1689 533.6672,692.1683 530.6613,688.8362 527.7017,687.1925"/>
    <polyline points="517.1003,685.461 517.7473,687.0319 517.4382,688.6606 513.8764,693.7575 512.2842,694.2188"/>
    <polyline points="504.1167,686.6994 502.6396,687.398 500.2901,690.5595 497.0393,692.8106 495.4185,693.2484"/>
    <polyline points="488.0391,686.4245 486.2611,689.3017 483.0831,691.6586 482.0176,691.9776 480.9258,691.6863 480.1461,690.9234 480.1888,690.3675"/>
    <polyline points="472.0732,693.0628 471.9331,691.9446 471.391,690.9559 470.5658,690.1853 469.4874,690.0751 467.9931,690.8758 464.3611,694.4539"/>
    <polyline points="456.6171,694.4104 455.6019,693.0626 452.0835,690.2355 450.1642,688.1651 448.1513,687.128"/>
    <polyline points="440.5908,693.6396 438.9612,693.1991 436.974,692.1238 436.6451,691.6676 437.0651,687.7735 436.6468,684.9879"/>
    <polyline points="424.8303,688.7583 423.0692,690.9622 422.0278,691.3884 420.9879,691.0527 420.6643,689.997 420.7202,688.3 419.6726,685.0891"/>
    <polyline points="408.1706,694.8102 404.9751,691.6724 404.509,688.3633 401.5064,686.815"/>
    <polyline points="392.336,686.0649 389.6396,689.7071 387.3541,692.2234 385.8568,692.9897 384.2752,692.5258"/>
    <polyline points="377.8727,692.897 373.5853,691.4848 373.1917,691.0824 372.6707,689.4711 371.829,688.771 370.1449,688.7833 368.7657,689.7621"/>
    <polyline points="361.7749,687.5001 354.2413,692.4435 353.1296,692.5788 352.041,692.2692"/>
    <polyline points="344.6587,694.7794 343.902,693.9437 342.5495,691.4574 341.1521,690.5595 339.5341,690.96 337.1387,694.1046"/>
    <polyline points="330.5628,692.1966 328.3121,691.9742 326.2144,691.1345 320.8331,687.0281"/>
    <polyline points="311.9921,685.89 310.6384,686.849 309.5999,690.065 308.925,690.9571 308.3916,691.1217 307.3559,690.7018 305.0928,688.1741"/>
    <polyline points="296.7714,686.1467 295.6759,687.4419 294.3305,689.9227 293.4107,690.5595 292.3457,690.3014 290.6207,688.0828 289.1115,687.3271"/>
    <polyline points="281.4914,694.5207 279.2524,691.9864 277.4969,690.5595 275.4777,685.3076"/>
    <polyline points="266.3878,689.248 265.2986,690.5305 263.7416,691.152 262.6326,690.9884 260.1008,689.7325 257.9279,689.0853 256.2901,689.3471"/>
    <polyline points="248.7304,686.018 248.0252,687.5441 246.6419,688.5194 245.6693,690.5595"/>
    <polyline points="245.6693,710.4517 246.6407,711.7748 246.5832,714.602 247.0321,715.625"/>
    <polyline points="259.5364,715.6995 261.7936,709.9256 263.4713,707.0043 264.3441,706.3161 264.9033,706.2446"/>
    <polyline points="272.534,708.7286 275.3317,708.649 277.1084,710.0396 278.3883,711.8895 279.3922,715.7238"/>
    <polyline points="287.8425,710.8968 291.1741,710.2298 293.4107,710.4517 295.6055,709.9382 297.808,710.4471 298.7792,711.0221"/>
    <polyline points="304.4127,713.1296 306.2278,711.7716 309.3245,710.4517 310.97,708.1526 311.8176,705.4623"/>
    <polyline points="322.2482,706.4689 322.2064,707.5956 322.9032,709.1392 323.6759,709.962 324.673,710.464 326.3441,710.2158 328.8169,708.8479 330.4789,708.5101"/>
    <polyline points="335.9539,708.3383 338.681,709.0817 342.1947,710.8893 346.7064,711.2008"/>
    <polyline points="351.6754,711.7017 354.811,710.4348 357.6316,710.4838 362.6215,711.4563"/>
    <polyline points="369.2604,714.6173 372.4816,711.4594 374.5121,708.0815 376.5269,706.1074"/>
    <polyline points="384.5118,709.5865 385.9737,708.784 387.0991,708.6557 388.1608,708.9619 388.768,709.8991 389.7007,713.1445 390.9197,714.3208 391.9138,714.8448"/>
    <polyline points="401.6618,706.3342 403.6529,707.3206 404.1989,709.4964 405.6599,711.1784 406.7317,711.5264 407.8395,711.358 409.4697,709.7967"/>
    <polyline points="416.1555,707.3494 418.2738,708.1247 420.2419,710.1492 421.7383,710.9471 422.8584,710.9241 425.0368,710.303 425.8879,709.5935"/>
    <polyline points="431.8309,707.9338 433.4911,708.1573 434.4842,708.703 436.0996,710.2717 437.7589,710.5967 438.8834,710.5275 441.8297,708.8509"/>
    <polyline points="449.3246,705.835 451.4467,709.1596 453.02,710.7642 454.6409,711.2545 457.8158,710.1916"/>
    <polyline points="463.9479,707.4396 466.8759,710.1093 467.9049,710.5382 469.3946,709.8237 472.4571,706.4957"/>
    <polyline points="480.3799,713.9755 481.5298,712.0259 482.7327,710.8342 484.3763,710.4517 486.7664,708.9645 489.5026,708.3562"/>
    <polyline points="494.7781,710.1037 496.4141,710.5641 499.2252,710.7706 502.3144,709.4778 505.6952,709.4151"/>
    <polyline points="511.4222,708.4187 512.501,708.0799 513.5887,708.3035 516.2039,710.4517 516.9993,711.922 516.7849,713.032 517.0005,714.1243 518.3854,715.0534"/>
    <polyline points="512.0671,726.7715 513.6698,729.0833 516.2039,730.344 519.4843,731.1879 521.3776,732.4318"/>
    <polyline points="526.6373,731.5714 530.5266,730.9408 533.6048,729.6071 533.7309,727.9555 532.5915,726.0032"/>
    <polyline points="535.268,714.875 533.9032,713.9581 532.4277,711.5414 531.7595,709.3762 530.7148,707.3644 530.063,706.4403 529.0621,705.9597"/>
    <polyline points="543.3507,713.2684 545.3453,711.2974 548.0315,710.4517"/>
    <polyline points="548.0315,730.344 544.7678,731.2304 543.1812,732.8127"/>
    <polyline points="532.1177,750.2362 529.8798,750.0245 527.7145,748.2154 527.1652,748.0869"/>
    <polyline points="520.5767,747.6111 517.2881,748.419 516.4315,749.1352 516.2039,750.2362"/>
    <polyline points="503.7191,746.8816 502.0355,747.1005 500.6467,748.0495 500.2644,749.1056 500.2901,750.2362"/>
    <polyline points="497.5887,734.8115 497.7855,732.5871 499.7971,730.6231 500.8188,730.1412 502.5082,730.0172 505.1663,729.0925 505.7212,729.1763"/>
    <polyline points="489.5472,731.9454 487.8652,731.808 485.9957,730.5568 484.9269,730.2244 482.4271,731.4331 481.0417,730.5133 480.0982,729.1005"/>
    <polyline points="469.7152,725.0649 469.3802,726.7256 469.4448,728.9801 468.4625,730.344 466.3974,731.2464 463.0143,731.4633"/>
    <polyline points="457.9885,730.3724 455.2636,731.0552 453.6058,730.7523 451.5626,729.7888 447.9591,727.0527"/>
    <polyline points="440.7935,733.7871 440.4702,732.7124 440.0538,732.3318 435.7082,729.6913 433.0754,728.6604 431.9714,727.4275"/>
    <polyline points="426.135,730.6 423.9915,729.9996 421.8271,730.5809 418.4819,730.2725 417.5918,729.5853 416.372,727.6852"/>
    <polyline points="408.2712,734.482 407.6206,733.5713 407.3668,732.4715 406.6544,731.6026 405.6332,731.1167 400.326,726.8863"/>
    <polyline points="393.9471,728.1893 393.3895,728.1071 391.2254,728.7676 388.8935,730.344 386.7707,731.1376 383.3913,731.4128"/>
    <polyline points="377.7731,732.3209 376.1147,732.6137 375.0379,732.2635 372.9797,730.344 371.9624,729.9036 369.3647,730.9355 368.2576,730.8502 367.8007,730.5209"/>
    <polyline points="358.4125,724.877 357.9756,727.6626 356.7714,730.8277 355.041,732.2795 352.2774,732.703"/>
    <polyline points="346.5033,731.6366 344.8111,731.7307 341.5791,730.7118 340.7499,729.9465 338.2014,728.7191 337.0889,728.527 335.9782,728.7435"/>
    <polyline points="330.4683,731.3606 328.4889,730.2556 326.8467,729.869 323.1003,731.0703 319.71,731.0485"/>
    <polyline points="314.481,728.8919 312.2494,728.6788 309.3245,730.344 305.528,731.4741 303.8398,731.5436"/>
    <polyline points="297.1698,726.5787 295.4805,729.5005 294.5111,730.0769 292.8541,730.4508 291.1638,730.4949 290.1429,730.0349 289.5965,729.0679 289.434,727.946"/>
    <polyline points="282.2308,727.7938 279.5097,728.526 277.6727,729.8101 277.6018,732.0348 276.9312,735.9371"/>
    <polyline points="266.1968,733.1322 265.2738,732.4854 263.0747,731.9721 262.1923,731.2998 261.191,729.284 260.7203,725.9335 259.7984,725.329"/>
    <polyline points="250.4689,732.9569 247.328,730.5533 245.6693,730.344"/>
    <polyline points="247.7384,745.1472 246.1215,747.4486 245.6693,750.2362"/>
    <polyline points="256.8865,747.4949 258.2908,748.4458 259.4291,749.7062 260.4522,750.1586 262.1486,750.212 263.2436,749.9276 267.2006,750.1358"/>
    <polyline points="273.3066,746.8215 274.9151,747.2592 277.4969,750.2362"/>
    <polyline points="288.9971,746.8928 290.5947,747.4647 293.4107,750.2362"/>
    <line x1="309.3245" x2="311.0148" y1="750.2362" y2="750.2"/>
    <polyline points="319.9193,748.9931 323.8623,749.2855 325.2383,750.2362"/>
    <polyline points="341.1521,750.2362 343.4938,748.6736 346.2602,748.1222"/>
    <line x1="357.0659" x2="358.7494" y1="750.2362" y2="750.2082"/>
    <polyline points="372.9797,750.2362 374.7114,748.0127 377.1038,746.5576"/>
    <polyline points="388.8935,750.2362 389.2317,749.1762 389.6486,748.7951 393.1994,747.0446"/>
    <polyline points="404.8073,750.2362 405.3234,747.4525 406.3284,744.806"/>
    <polyline points="416.1518,747.0298 417.7154,747.6527 420.7211,750.2362"/>
    <polyline points="432.3632,746.567 433.9167,748.2129 436.6349,750.2362"/>
    <line x1="452.5487" x2="454.7777" y1="750.2362" y2="750.1622"/>
    <line x1="467.3668" x2="468.4625" y1="750.1132" y2="750.2362"/>
    <line x1="482.698" x2="484.3763" y1="750.2058" y2="750.2362"/>
    <polyline points="473.4876,633.424 470.0774,631.4054 467.498,630.3029 466.6147,628.2329 465.2824,626.4014"/>
    <polyline points="457.9144,629.3357 454.7636,630.6121 452.5487,630.8827 449.9647,634.5611 449.0141,635.155"/>
    <polyline points="442.1252,631.0351 438.7938,631.5179 431.2146,629.4198"/>
    <polyline points="425.5654,633.7975 420.2289,630.6016 417.6212,629.5095 415.8725,628.0694"/>
    <polyline points="408.8017,626.9893 407.7828,627.4727 404.8073,630.8827 403.189,633.867 401.356,635.1935"/>
    <polyline points="394.0929,632.7001 392.9938,632.7321 389.3252,631.2491 388.5393,630.4414 387.1416,627.364 385.9562,626.1521"/>
    <polyline points="378.2359,631.7255 376.8952,630.7058 375.7805,630.5275 371.3032,631.1681 369.0554,631.0441 367.4091,631.4288"/>
    <polyline points="362.2332,628.7012 359.547,629.5951 357.0659,630.8827 351.4169,630.6245"/>
    <polyline points="346.6893,629.9213 344.4303,630.008 341.1521,630.8827 338.991,630.4028 336.1696,632.2542"/>
    <polyline points="329.7063,634.2403 326.284,631.3166 324.6871,630.7531 323.0212,630.9048 320.0067,632.449"/>
    <polyline points="314.4743,632.484 313.2066,631.3627 312.1411,630.9884 309.8853,630.8014 308.7767,631.0255 307.8834,631.6935 306.6354,635.4438"/>
    <polyline points="297.2924,634.9845 293.4107,630.8827 292.6598,629.3638 290.2688,626.243"/>
    <polyline points="282.4045,632.1553 281.4082,632.6959 280.3102,632.7368 275.5342,629.7555 273.8764,628.2157 272.8117,627.8684"/>
    <polyline points="265.6528,627.1711 262.8135,628.9829 260.7034,632.2985 258.7335,633.3771 257.0453,633.2474"/>
    <polyline points="249.1021,626.7871 247.2148,630.2494 245.6693,630.8827"/>
    <polyline points="258.9662,576.2084 261.1787,572.2636 261.7007,570.6519 261.502,569.5531 260.2297,567.0333 260.1989,565.9086"/>
    <polyline points="260.5832,556.2619 261.5354,555.6749 261.9641,554.6467 261.4769,551.868 261.887,550.8404 262.9149,550.4165 265.1625,550.1305 266.7758,550.5775"/>
    <polyline points="276.9217,556.8378 276.7006,554.0286 277.4969,551.3137 278.169,550.4166 281.1681,548.8634 281.6819,547.8627"/>
    <polyline points="282.6286,533.383 280.827,532.0746 275.841,531.05 273.0272,530.7429 271.9342,530.944"/>
    <polyline points="266.2071,529.2133 264.2846,531.2904 262.6711,531.7205 259.4668,530.6118 257.705,529.2156 256.6774,528.7704"/>
    <polyline points="250.2885,528.421 248.2928,530.3907 245.6693,531.4215"/>
    <polyline points="245.6693,551.3137 247.2704,552.9083 250.0024,554.9064"/>
    <polyline points="245.6693,571.206 248.9003,573.4787 250.0381,574.72"/>
    <polyline points="274.6661,566.5609 275.6493,567.0798 275.9346,567.566 277.4969,571.206 279.2581,576.5696"/>
    <polyline points="288.4687,528.6818 292.3911,530.926 294.4857,531.7618 296.1132,531.4309 297.7865,529.1635"/>
    <polyline points="305.0668,527.9459 307.0639,528.9765 308.413,530.7936 309.3245,531.4215 314.927,530.7088"/>
    <polyline points="320.2933,528.721 323.3987,530.1046 326.7351,532.2199 329.5235,532.5712 330.4902,533.0766"/>
    <polyline points="335.7074,530.5856 337.8264,531.3919 340.0694,531.7063 341.6921,531.2529 346.7856,531.0175"/>
    <polyline points="352.4661,531.4177 352.989,530.4253 353.4658,530.1266 355.1326,530.2531 357.0659,531.4215 357.9273,532.1586 359.1887,534.0204 361.07,535.2766"/>
    <polyline points="368.8702,531.6588 369.8216,530.2764 371.4426,529.864 372.3642,530.4718 373.4344,532.4569 374.2129,533.2782 377.3728,534.4533"/>
    <polyline points="383.2713,531.3671 384.3743,531.1282 391.7181,531.5606 394.1712,532.9312"/>
    <polyline points="399.3371,531.1921 401.4658,531.9486 405.9253,531.2332 407.6135,531.273 409.8506,532.9928"/>
    <polyline points="416.9987,527.6354 419.1,528.4746 420.9859,531.9225 422.2163,533.0809 423.7812,533.7041 425.476,533.6274"/>
    <polyline points="432.9419,527.5885 435.0121,528.4673 436.6349,531.4215 437.4423,532.1954 438.8838,533.0922 441.6364,533.6353"/>
    <polyline points="446.9866,532.1483 452.5487,531.4215 455.7133,532.6342 457.1793,534.3406"/>
    <polyline points="462.8354,531.1084 469.5904,531.5349 471.8378,531.4128 472.9568,531.5864 473.8722,532.2335"/>
    <polyline points="480.3541,528.9353 481.8401,531.34 482.8014,531.9078 483.3644,531.9154 484.7848,531.0309 485.8697,528.4368 487.5421,526.9194"/>
    <polyline points="495.2424,529.0546 499.1884,531.2693 500.2901,531.4215 501.1829,530.7599 502.6819,528.3755 504.21,527.6842"/>
    <polyline points="510.65,531.9813 514.5161,531.2476 516.2039,531.4215 517.2736,531.7932 519.6266,533.3471 520.8583,534.5086"/>
    <polyline points="517.8458,516.8764 517.1795,514.133 516.3558,512.651 515.9904,511.007 515.2654,510.1413 511.9854,507.9399"/>
    <polyline points="503.9816,515.5484 502.7047,514.4337 501.7311,512.4197 499.9272,511.0965 499.0712,509.6337 497.8662,508.4483 497.1504,506.9085"/>
    <polyline points="488.902,508.2116 487.2299,509.7301 483.4004,512.0893 480.6191,511.878 478.9304,512.0624"/>
    <polyline points="473.9823,512.4646 471.8458,511.7243 467.8978,511.5575 465.0838,513.4037 463.5106,514.0396"/>
    <polyline points="457.5743,509.3859 455.8897,509.433 453.0693,511.3053 451.4888,511.9283 448.6689,511.8421 447.0575,512.3657"/>
    <polyline points="439.1063,506.7332 438.176,507.3579 437.4995,508.2641 436.6349,511.5292 436.0057,512.4626 434.2488,513.886 432.0363,514.2369"/>
    <polyline points="425.9148,509.7143 422.5983,510.2935 421.1353,511.1422 417.7864,514.1749 416.1429,514.1395"/>
    <polyline points="424.953,454.8393 422.7458,454.5643 421.106,452.2682 417.6181,448.563 417.3101,447.4779"/>
    <polyline points="447.6332,429.6243 449.288,429.8172 451.4731,431.6043 454.2251,432.19 457.8016,433.8389"/>
    <polyline points="464.898,436.2213 466.5916,434.7642 468.4625,431.9602 470.7171,430.2642 472.2943,427.9184"/>
    <polyline points="479.2077,430.2341 482.5671,430.6941 483.5973,431.1575 484.3763,431.9602 486.0327,435.5481 487.5164,436.2983"/>
    <polyline points="496.6479,436.1081 499.2492,433.9497 500.13,432.5031 501.0665,429.2369 501.4638,426.4386"/>
    <polyline points="511.1817,429.6766 512.4228,430.7711 516.7048,432.2245 519.0379,434.6259 520.7207,434.6164"/>
    <polyline points="531.7853,437.3824 532.6154,435.3107 532.0114,430.2723 534.0259,426.8914"/>
    <polyline points="542.8342,430.763 546.7886,430.8657 548.0315,431.9602"/>
    <polyline points="544.7326,487.61 545.8305,487.8858 546.7647,488.5026 548.0315,491.637"/>
    <polyline points="542.6536,510.0886 544.7993,510.7702 547.5964,511.1712 548.0315,511.5292"/>
    <polyline points="532.1183,625.3505 532.5209,628.7045 532.1177,630.8827 530.6094,631.6404 528.9483,631.9687 527.8325,631.8198 527.0627,631.0177"/>
    <polyline points="519.7351,626.4768 517.3962,629.6746 515.789,631.2678 514.7165,631.4531 513.2037,630.7218 510.9746,631.0948"/>
    <polyline points="505.9183,631.0525 503.6736,630.7841 496.9008,630.8349 495.8599,631.254 495.1896,632.1618"/>
    <polyline points="489.9038,631.1924 486.5811,630.4869 484.9419,630.8672 482.6886,630.7957 480.484,631.3008 479.2545,632.4392"/>
    <polyline points="489.051,375.3018 488.1845,374.5781 485.5783,373.4696 484.3763,372.2835"/>
    <polyline points="500.2901,372.2835 503.0185,374.285 505.2678,374.1837"/>
    <polyline points="515.7986,377.6715 515.3533,374.3304 515.5897,373.2312 516.2039,372.2835"/>
    <polyline points="532.1177,372.2835 532.4569,373.9177 533.6535,375.8392 535.1763,376.5189"/>
    <polyline points="468.4625,372.2835 467.4404,372.696 462.9306,372.4449"/>
    <line x1="452.5487" x2="451.9884" y1="372.2835" y2="372.3518"/>
    <polyline points="436.6349,372.2835 435.1527,373.0919 433.4915,373.4522 431.2625,373.3645"/>
    <line x1="420.7211" x2="415.3856" y1="372.2835" y2="374.1137"/>
    <line x1="407.0485" x2="404.8073" y1="372.3031" y2="372.2835"/>
    <polyline points="362.2033,374.6153 360.5904,374.0916 357.0659,372.2835"/>
    <polyline points="341.1521,372.2835 341.082,376.2398 340.6318,377.8527"/>
    <line x1="326.362" x2="325.2383" y1="372.3551" y2="372.2835"/>
    <polyline points="312.4968,372.4946 310.8934,372.9004 309.3245,372.2835"/>
    <line x1="294.4834" x2="293.4107" y1="372.4806" y2="372.2835"/>
  </g>
</svg>
