<?xml version="1.0" encoding="utf-8" ?>
<svg xmlns="http://www.w3.org/2000/svg" xmlns:cc="http://creativecommons.org/ns#" xmlns:dc="http://purl.org/dc/elements/1.1/" xmlns:ev="http://www.w3.org/2001/xml-events" xmlns:inkscape="http://www.inkscape.org/namespaces/inkscape" xmlns:rdf="http://www.w3.org/1999/02/22-rdf-syntax-ns#" xmlns:sodipodi="http://sodipodi.sourceforge.net/DTD/sodipodi-0.dtd" xmlns:xlink="http://www.w3.org/1999/xlink" baseProfile="tiny" height="29.7cm" version="1.2" viewBox="0 0 793.7007874015749 1122.5196850393702" width="21.0cm">
  <metadata>
    <rdf:RDF>
      <cc:Work>
        <dc:format>image/svg+xml</dc:format>
        <dc:source/>
        <dc:date>2022-01-28T21:06:28.401462</dc:date>
      </cc:Work>
    </rdf:RDF>
  </metadata>
  <defs/>
  <g fill="none" id="layer1" inkscape:groupmode="layer" inkscape:label="1" stroke="#00f" style="display:inline">
    <polyline points="255.6695,416.7714 258.9743,421.3768 267.2666,431.676"/>
    <polyline points="270.8319,426.0931 284.1017,430.4791 288.8639,431.676"/>
    <polyline points="292.3659,433.814 297.9514,434.7546 303.2334,434.7137 306.8801,433.7705 310.4612,431.676"/>
    <polyline points="321.01,424.9805 324.5456,422.15 327.7804,418.4586 330.1724,414.612 332.0585,410.0787"/>
    <polyline points="332.0585,431.676 329.5093,433.9229 323.0355,438.5086 317.4533,443.6023"/>
    <polyline points="310.4612,453.2733 307.4907,452.7374 304.6654,451.669 293.4219,445.4547"/>
    <polyline points="288.8639,453.2733 282.52,443.8878 277.7185,438.0517"/>
    <polyline points="267.2666,453.2733 265.0267,449.7727 256.3371,437.8738"/>
    <polyline points="272.6849,418.429 276.4514,418.3068 280.021,417.1089 284.0989,414.383 288.8639,410.0787"/>
    <line x1="294.2737" x2="310.4612" y1="419.8189" y2="410.0787"/>
    <polyline points="353.6558,410.0787 353.5707,416.124 352.9846,420.999 351.9912,424.6411 350.2038,428.3892"/>
    <polyline points="353.6558,431.676 348.4028,441.2893 346.0813,444.2679 343.0972,447.1582"/>
    <polyline points="353.6558,453.2733 350.3933,455.8407 346.0886,458.1993 342.1852,459.6203 336.6557,460.8634"/>
    <polyline points="332.0585,453.2733 328.4157,455.2713 324.8566,456.5271 318.8933,457.5071 313.9907,457.7726"/>
    <polyline points="314.0479,469.6716 324.2224,473.7231 327.5444,474.4421 332.0585,474.8706"/>
    <polyline points="334.8648,473.3316 347.9981,474.9022 353.6558,474.8706"/>
    <polyline points="357.0854,479.9306 361.8644,478.8063 370.4481,475.8813 375.2531,474.8706"/>
    <polyline points="378.2741,472.1844 384.3179,472.3541 389.5837,472.8583 393.279,473.6384 396.8504,474.8706"/>
    <polyline points="399.931,471.1666 413.3234,473.5625 418.4477,474.8706"/>
    <polyline points="422.7641,488.9043 425.5015,490.1828 432.607,492.7555 440.045,496.4679"/>
    <polyline points="443.647,490.8241 452.4814,494.1652 461.6423,496.4679"/>
    <polyline points="464.9516,491.8901 477.273,495.5299 483.2396,496.4679"/>
    <polyline points="486.3353,492.9481 498.6893,494.6419 504.8369,496.4679"/>
    <polyline points="508.2547,492.4424 512.6618,494.6101 515.8979,495.6448 519.2616,496.1296 526.4342,496.4679"/>
    <line x1="529.1947" x2="548.0315" y1="495.066" y2="496.4679"/>
    <polyline points="548.0315,518.0652 539.7235,527.3593 537.0314,529.4305 534.3318,530.7825"/>
    <polyline points="526.4342,539.6625 521.5517,540.0919 517.1012,539.2989 513.0732,537.2523 509.5407,533.8581"/>
    <polyline points="504.8369,539.6625 501.2764,535.7565 493.3477,524.7054"/>
    <polyline points="483.2396,518.0652 470.1499,512.1672 465.835,510.7919"/>
    <polyline points="461.6423,518.0652 457.5839,517.1724 443.0158,514.9515"/>
    <polyline points="440.045,518.0652 436.6742,518.4987 433.0294,519.4895 422.2829,524.1427"/>
    <polyline points="418.4477,518.0652 415.9983,519.8337 413.7893,521.8964 408.3959,527.7189 405.2893,531.5242"/>
    <line x1="396.8504" x2="381.2061" y1="539.6625" y2="550.2518"/>
    <polyline points="375.2531,539.6625 371.3945,544.3152 362.4085,553.4993"/>
    <polyline points="353.6558,561.2598 345.3553,565.7664 337.8869,571.5444"/>
    <line x1="332.0585" x2="315.5022" y1="561.2598" y2="570.3621"/>
    <polyline points="310.4612,561.2598 307.3004,565.0205 305.143,568.1209 300.828,577.358"/>
    <polyline points="310.4612,582.8571 307.4822,586.2715 299.1002,597.928"/>
    <polyline points="288.8639,604.4544 284.6738,607.674 276.8255,612.2158 273.2685,615.0227"/>
    <polyline points="267.2666,604.4544 263.271,606.5925 260.2828,608.8984 257.4859,611.9689 253.7163,617.1698"/>
    <polyline points="267.2666,626.0517 265.0014,628.5866 263.0367,631.3615 257.2024,641.9518"/>
    <polyline points="267.2666,647.649 263.3685,649.9594 260.4915,652.4031 257.7964,655.5647 254.1217,660.8337"/>
    <polyline points="249.4194,673.3423 257.2983,669.6943 259.7977,668.8377 263.1745,668.5463 267.2666,669.2463"/>
    <line x1="270.177" x2="288.8639" y1="666.4715" y2="669.2463"/>
    <polyline points="291.6341,667.7083 301.0282,668.7103 310.4612,669.2463"/>
    <polyline points="313.2671,668.0841 325.3603,668.117 332.0585,669.2463"/>
    <polyline points="335.6054,665.0401 342.0269,665.1931 346.1344,665.8054 349.7043,667.0292 353.6558,669.2463"/>
    <line x1="358.8552" x2="375.2531" y1="659.8623" y2="669.2463"/>
    <polyline points="378.2393,666.2949 384.4622,667.8628 396.8504,669.2463"/>
    <polyline points="401.1638,662.43 407.8503,663.6714 411.0994,664.6657 414.4655,666.3742 418.4477,669.2463"/>
    <polyline points="423.0329,661.0505 433.4621,666.3851 440.045,669.2463"/>
    <polyline points="445.3652,677.9778 448.7346,677.5828 452.2479,676.2164 455.7426,673.9708 461.6423,669.2463"/>
    <polyline points="467.6656,679.8127 476.9243,672.6375 483.2396,669.2463"/>
    <polyline points="486.0055,669.462 493.1379,668.7506 504.8369,669.2463"/>
    <polyline points="507.6149,668.1176 516.6773,668.1059 526.4342,669.2463"/>
    <polyline points="531.0665,661.6094 534.8101,662.0935 538.377,663.3218 542.0219,665.3165 548.0315,669.2463"/>
    <polyline points="548.0315,690.8436 540.6173,693.6483 529.8121,695.4594"/>
    <polyline points="526.4342,690.8436 521.1799,691.4369 516.8109,692.6332 512.7057,694.5481 509.0204,697.1792"/>
    <polyline points="504.8369,690.8436 498.4354,696.1357 490.9055,703.566"/>
    <polyline points="483.2396,690.8436 477.4857,692.6888 468.8902,693.9554 464.9081,695.128"/>
    <polyline points="461.6423,690.8436 451.508,696.7054 447.9389,697.9327 444.57,698.3477"/>
    <polyline points="440.045,690.8436 436.9249,689.5127 429.2867,684.6317 423.2873,682.3586"/>
    <polyline points="418.4477,690.8436 409.6209,695.136 401.2358,698.5934"/>
    <polyline points="396.8504,690.8436 390.3997,693.9974 386.5005,695.4296 382.7781,696.0329 379.0198,695.7272"/>
    <polyline points="375.2531,690.8436 370.9189,689.5109 368.1471,688.3089 358.6799,682.0778"/>
    <polyline points="353.6558,690.8436 345.9102,680.5985 343.7947,678.4416 341.3794,676.6274"/>
    <polyline points="332.0585,690.8436 330.6033,686.5512 328.5759,682.4985 326.1823,679.1034 322.4453,674.8422"/>
    <polyline points="321.8945,663.2251 325.1962,660.1236 327.9807,656.5495 330.3505,652.2508 332.0585,647.649"/>
    <polyline points="333.162,644.803 333.4139,640.6618 331.9595,631.3338 332.0585,626.0517"/>
    <polyline points="321.8586,620.3492 326.7357,613.1568 332.0585,604.4544"/>
    <polyline points="339.8204,595.6899 344.2363,591.0301 353.6558,582.8571"/>
    <polyline points="359.6034,593.2592 364.1127,589.8326 372.1049,585.5591 375.2531,582.8571"/>
    <polyline points="379.0352,587.1957 383.5675,584.4708 387.4617,583.04 391.5752,582.4996 396.8504,582.8571"/>
    <polyline points="400.3149,588.0569 409.1517,586.0308 418.4477,582.8571"/>
    <polyline points="421.6223,586.4398 432.1543,583.4338 436.2694,582.8588 440.045,582.8571"/>
    <polyline points="447.6443,571.0675 452.2106,572.8578 455.9857,575.3542 458.8124,578.3912 461.6423,582.8571"/>
    <polyline points="465.0712,599.4452 476.5527,603.2417 483.2396,604.4544"/>
    <polyline points="488.546,613.3216 493.6453,611.9274 497.7932,610.105 501.2515,607.8072 504.8369,604.4544"/>
    <polyline points="509.2934,611.8884 519.5048,606.1591 523.0714,604.9225 526.4342,604.4544"/>
    <polyline points="531.1724,596.7642 534.9198,597.1901 539.1918,598.69 543.164,600.8703 548.0315,604.4544"/>
    <polyline points="536.4064,611.5112 539.2432,613.3771 541.6038,615.8172 548.0315,626.0517"/>
    <polyline points="532.1463,638.1398 535.4766,638.7615 539.1938,640.6067 544.1667,644.0401 548.0315,647.649"/>
    <polyline points="526.4342,647.649 521.2128,648.4964 515.7026,649.8264 511.7312,651.0516 508.2774,652.5808"/>
    <polyline points="504.8369,647.649 497.3361,651.2173 487.1223,653.9659"/>
    <polyline points="483.2396,647.649 475.0299,651.4877 467.1196,657.3086"/>
    <polyline points="461.6423,647.649 457.542,648.3272 453.7713,648.5508 442.8554,647.6469"/>
    <polyline points="440.045,647.649 437.1065,645.9622 434.5673,643.1824 433.1212,640.5314 430.9832,634.8765 429.7433,632.5434"/>
    <polyline points="440.045,626.0517 431.8237,624.8366 421.6877,621.8071"/>
    <polyline points="418.4477,626.0517 408.7531,622.8876 405.3804,621.1865 401.2601,618.5124"/>
    <polyline points="396.8504,626.0517 393.3604,622.5952 390.0747,620.054 386.7875,618.1944 381.2636,615.7345"/>
    <polyline points="375.2531,626.0517 370.7469,624.1257 365.9051,623.3705 361.4138,623.8865 357.2176,625.5749"/>
    <polyline points="353.6558,626.0517 351.6118,628.2763 349.6516,631.054 343.7101,642.017"/>
    <polyline points="353.6558,647.649 349.6279,648.6722 346.8336,649.8185 336.962,656.1202"/>
    <polyline points="356.4167,647.5982 360.1628,647.1112 364.3183,647.0152 375.2531,647.649"/>
    <polyline points="382.3774,635.8029 390.3371,643.8681 393.1218,645.8149 396.8504,647.649"/>
    <polyline points="402.8879,636.9597 407.3813,640.4124 418.4477,647.649"/>
    <polyline points="443.2102,628.0222 447.6723,628.8021 451.8228,628.7316 455.9017,627.9475 461.6423,626.0517"/>
    <polyline points="466.3546,634.4969 478.3172,628.8616 483.2396,626.0517"/>
    <polyline points="492.4233,640.1204 495.0655,635.9787 497.1688,633.3083 501.893,628.4148 504.8369,626.0517"/>
    <polyline points="508.2662,630.7303 512.078,629.0811 518.235,627.2498 522.6674,626.2991 526.4342,626.0517"/>
    <polyline points="511.1419,593.145 514.6185,589.1617 518.065,586.2233 521.3901,584.4417 526.4342,582.8571"/>
    <polyline points="529.7182,586.6518 541.3654,585.4457 544.6252,584.4878 548.0315,582.8571"/>
    <polyline points="532.6406,572.1223 539.1749,568.3368 548.0315,561.2598"/>
    <polyline points="533.0583,551.1395 543.5324,543.6969 548.0315,539.6625"/>
    <polyline points="526.4342,561.2598 521.001,562.8688 516.5111,563.4613 512.3669,563.222 507.9975,562.0347"/>
    <polyline points="504.8369,561.2598 492.5967,557.3529 487.1011,554.8488"/>
    <polyline points="483.2396,561.2598 479.9992,559.3176 477.0028,557.0176 469.0009,548.993"/>
    <polyline points="461.6423,539.6625 451.3945,533.2528 448.2351,532.0059 444.8884,531.4327"/>
    <polyline points="440.045,539.6625 434.7902,540.1253 421.6401,543.6135"/>
    <polyline points="418.4477,539.6625 414.2367,541.3426 401.2332,547.4311"/>
    <polyline points="396.8504,561.2598 385.5157,565.4685 378.9276,567.1525"/>
    <polyline points="375.2531,561.2598 365.6425,564.6839 357.8751,568.5763"/>
    <polyline points="342.2658,554.5991 345.3171,551.2622 350.0772,543.5507 353.6558,539.6625"/>
    <polyline points="357.2447,523.7476 362.5676,521.8003 375.2531,518.0652"/>
    <polyline points="378.6264,501.3505 382.2991,500.4649 390.5623,497.7723 396.8504,496.4679"/>
    <polyline points="402.0253,487.195 409.1833,490.6158 418.4477,496.4679"/>
    <polyline points="396.8504,518.0652 395.8185,520.4982 393.4901,528.0742 389.0035,535.061"/>
    <polyline points="399.7633,562.1531 404.1514,561.0146 407.8992,560.554 411.6764,560.6068 418.4477,561.2598"/>
    <polyline points="422.3051,556.1588 427.9726,556.2502 431.3214,556.8147 434.831,558.2002 440.045,561.2598"/>
    <polyline points="443.8534,555.026 449.5571,557.034 457.19,559.2035 461.6423,561.2598"/>
    <polyline points="472.3176,567.485 475.3148,571.3746 480.7958,579.9805 483.2396,582.8571"/>
    <polyline points="487.3595,578.0284 491.6728,581.0839 495.4933,582.6976 500.3451,583.3739 504.8369,582.8571"/>
    <polyline points="483.2396,539.6625 479.2738,536.7652 472.3816,530.8702 468.2956,528.147"/>
    <polyline points="488.9407,508.7602 493.7228,509.8642 497.4898,511.6048 501.1435,514.2803 504.8369,518.0652"/>
    <polyline points="509.3592,510.1028 519.0132,515.2729 526.4342,518.0652"/>
    <polyline points="526.4342,474.8706 520.3536,476.9436 516.663,477.7363 513.2682,477.7374 508.0589,476.8195"/>
    <polyline points="504.8369,474.8706 495.4095,474.3314 486.2466,472.0587"/>
    <polyline points="483.2396,474.8706 478.2191,473.2024 465.078,469.7052"/>
    <polyline points="461.6423,474.8706 458.6423,473.2858 456.4288,471.2381 454.9164,469.0711 451.682,463.0881 449.9381,460.6205"/>
    <polyline points="440.045,453.2733 434.674,449.099 430.8353,446.69 427.3565,445.2266 423.6602,444.4643"/>
    <polyline points="418.4477,453.2733 412.7812,453.322 404.5134,454.1693 399.6274,453.7502"/>
    <polyline points="396.8504,453.2733 391.0016,451.7549 387.2347,451.7074 383.2533,452.8487 379.0298,455.3465"/>
    <line x1="375.2531" x2="361.0194" y1="453.2733" y2="465.6931"/>
    <polyline points="361.6204,444.5069 364.8328,440.3041 367.9317,436.9963 371.4387,434.125 375.2531,431.676"/>
    <polyline points="378.4221,433.9256 382.6463,432.2976 388.2117,431.2432 392.3601,431.0655 396.8504,431.676"/>
    <polyline points="400.0709,433.6029 405.292,434.441 409.4427,434.4474 412.3991,433.8345 418.4477,431.676"/>
    <polyline points="424.6273,421.8424 428.3538,422.3891 431.7627,423.9939 435.9124,427.2661 440.045,431.676"/>
    <polyline points="446.2514,420.8908 451.657,424.3546 457.6468,429.5526 461.6423,431.676"/>
    <polyline points="472.4727,416.9083 473.179,420.609 474.788,423.5911 477.6125,426.635 483.2396,431.676"/>
    <polyline points="486.1979,450.263 489.9573,450.6022 504.8369,453.2733"/>
    <polyline points="507.8823,450.2879 518.8003,451.1879 522.8705,452.0266 526.4342,453.2733"/>
    <polyline points="530.3946,470.2792 534.8822,469.7208 539.3574,470.3878 543.5782,472.0195 548.0315,474.8706"/>
    <polyline points="548.0315,453.2733 545.2643,447.8986 542.1938,440.1759 539.6089,436.4663"/>
    <line x1="548.0315" x2="532.2301" y1="431.676" y2="421.3295"/>
    <polyline points="526.4342,431.676 522.6455,428.5638 519.8987,424.966 517.9527,420.8784 516.8654,416.0963"/>
    <polyline points="504.8369,431.676 500.9158,428.1268 498.504,425.2232 496.649,421.9349 494.3524,416.3427"/>
    <polyline points="483.2396,453.2733 476.075,453.7473 464.359,453.8151"/>
    <polyline points="461.6423,453.2733 458.6331,452.9965 455.3089,452.2833 443.4367,448.489"/>
    <polyline points="427.6415,460.8375 430.1149,462.5707 432.0,464.4229 436.7213,471.2577 440.045,474.8706"/>
    <polyline points="375.2531,496.4679 370.012,497.1826 365.4822,497.3023 362.1232,496.7942 356.6903,495.1785"/>
    <polyline points="353.6558,496.4679 343.8428,496.2816 334.8692,494.9751"/>
    <polyline points="332.0585,496.4679 325.6422,496.1391 317.3287,496.2032 313.1997,495.7521"/>
    <polyline points="310.4612,496.4679 305.9283,494.606 302.6636,492.0548 300.2362,488.694 297.9153,483.5252"/>
    <polyline points="288.8639,474.8706 285.5564,466.4293 280.9994,457.7266"/>
    <polyline points="299.1151,459.9767 306.0575,470.7805 308.0626,473.0392 310.4612,474.8706"/>
    <polyline points="283.0334,478.6662 283.9286,483.4953 285.8125,490.4234 287.082,493.5761 288.8639,496.4679"/>
    <polyline points="288.8639,518.0652 282.913,516.9964 278.182,515.6815 274.7256,514.1619 271.2698,511.8599"/>
    <polyline points="267.2666,518.0652 264.1812,515.8858 261.3932,513.3385 254.43,504.4047"/>
    <polyline points="267.2666,496.4679 264.7348,491.8233 262.2579,488.4905 258.7331,485.0734 255.0469,482.4408"/>
    <polyline points="267.2666,474.8706 264.2652,471.9972 261.2065,469.7831 251.2961,465.1275"/>
    <polygon points="245.6693,410.0787 245.6693,712.4409 548.0315,712.4409 548.0315,410.0787"/>
    <polyline points="252.922,527.9278 255.2524,531.3651 258.1579,534.329 261.904,536.8765 267.2666,539.6625"/>
    <polyline points="272.7061,549.0199 276.3498,548.0348 279.4251,546.5902 288.8639,539.6625"/>
    <polyline points="293.9234,526.9453 296.8336,526.1322 299.5927,524.9032 310.4612,518.0652"/>
    <polyline points="314.1268,523.7272 316.4338,522.4374 319.2584,521.3644 326.8837,519.1633 332.0585,518.0652"/>
    <polyline points="334.9798,520.381 344.2206,518.4467 353.6558,518.0652"/>
    <polyline points="332.0585,539.6625 329.2094,544.9929 326.556,548.6643 323.7582,551.1933 319.8814,553.5423"/>
    <polyline points="310.4612,539.6625 304.6563,546.6283 299.3324,554.8838"/>
    <polyline points="288.8639,561.2598 286.6411,562.6878 283.8483,563.8377 274.7333,566.3236 271.0271,567.0521"/>
    <line x1="267.2666" x2="249.5063" y1="561.2598" y2="554.8492"/>
    <polyline points="267.2666,582.8571 255.528,588.0813 250.214,590.9605"/>
    <polyline points="271.5008,589.6849 278.1247,588.1367 282.4372,586.7395 286.1718,584.9243 288.8639,582.8571"/>
    <polyline points="310.4612,604.4544 308.4325,607.1785 306.5979,610.9039 305.2843,614.8463 303.5627,621.8156"/>
    <polyline points="310.4612,626.0517 310.1272,633.2245 309.55,638.1027 308.752,641.794 307.6195,644.5921"/>
    <polyline points="310.4612,647.649 308.5641,650.8938 305.6277,653.244 301.7849,654.8061 294.7807,656.3802"/>
    <polyline points="288.8639,647.649 285.5039,648.1552 277.2048,648.5608 273.88,649.2686 270.2926,650.4539"/>
    <polyline points="274.5498,638.3629 283.8248,630.0364 288.8639,626.0517"/>
    <polyline points="317.2577,594.5924 320.938,591.9449 332.0585,582.8571"/>
    <polyline points="353.6558,604.4544 349.8863,607.6013 347.1481,610.7205 345.1515,614.3591 343.1799,619.6723"/>
    <polyline points="357.3076,609.3419 361.6723,607.0974 367.0174,605.2196 371.1007,604.467 375.2531,604.4544"/>
    <polyline points="378.1663,601.9986 388.5525,604.0151 396.8504,604.4544"/>
    <polyline points="399.5831,603.9013 405.6288,603.8723 414.2934,604.5487 418.4477,604.4544"/>
    <polyline points="422.863,612.2784 426.0537,611.1091 440.045,604.4544"/>
    <polyline points="443.0701,606.5481 447.4257,605.295 453.3585,604.1389 457.1317,604.0018 461.6423,604.4544"/>
    <polyline points="423.0342,704.7325 426.0233,705.1492 428.8778,706.1332 436.9701,710.9948 440.045,712.4409"/>
    <polyline points="375.2531,712.4409 367.1853,706.205 364.6172,703.4354 361.668,699.5069"/>
    <polyline points="353.6558,712.4409 349.9399,705.8728 345.9655,695.2573"/>
    <line x1="325.3958" x2="332.0585" y1="694.767" y2="712.4409"/>
    <polyline points="310.4612,712.4409 309.3027,708.4491 307.8701,704.954 302.3886,695.4684"/>
    <polyline points="310.4612,690.8436 307.8812,688.0845 305.2937,685.879 295.5122,679.436"/>
    <polyline points="288.8639,690.8436 280.1094,681.967 275.1344,677.9184"/>
    <polyline points="267.2666,690.8436 263.8372,685.4137 261.1321,682.8015 259.4538,681.9404 257.6362,681.4335 252.7368,681.1975"/>
    <polyline points="258.3339,695.9614 260.5952,701.975 262.2044,705.3928 264.2219,708.5859 267.2666,712.4409"/>
    <polyline points="275.7148,698.8874 279.9881,703.6829 288.8639,712.4409"/>
    <polyline points="363.7206,424.626 366.8722,418.5973 368.9457,415.4421 371.3059,412.9998 375.2531,410.0787"/>
    <polyline points="380.4345,419.1175 384.4008,417.8838 388.1434,416.0798 396.8504,410.0787"/>
    <polyline points="401.2624,417.5562 405.025,415.0255 408.3836,413.299 414.4247,411.1166 418.4477,410.0787"/>
  </g>
</svg>
