<?xml version="1.0" encoding="utf-8" ?>
<svg xmlns="http://www.w3.org/2000/svg" xmlns:cc="http://creativecommons.org/ns#" xmlns:dc="http://purl.org/dc/elements/1.1/" xmlns:ev="http://www.w3.org/2001/xml-events" xmlns:inkscape="http://www.inkscape.org/namespaces/inkscape" xmlns:rdf="http://www.w3.org/1999/02/22-rdf-syntax-ns#" xmlns:sodipodi="http://sodipodi.sourceforge.net/DTD/sodipodi-0.dtd" xmlns:xlink="http://www.w3.org/1999/xlink" baseProfile="tiny" height="29.7cm" version="1.2" viewBox="0 0 793.7007874015749 1122.5196850393702" width="21.0cm">
  <metadata>
    <rdf:RDF>
      <cc:Work>
        <dc:format>image/svg+xml</dc:format>
        <dc:source/>
        <dc:date>2022-01-28T21:15:21.140222</dc:date>
      </cc:Work>
    </rdf:RDF>
  </metadata>
  <defs/>
  <g fill="none" id="layer1" inkscape:groupmode="layer" inkscape:label="1" stroke="#00f" style="display:inline">
    <polyline points="245.6693,410.0787 245.6693,712.4409 548.0315,712.4409 548.0315,410.0787 245.6693,410.0787 249.4086,412.644"/>
    <polyline points="267.2666,410.0787 269.4714,410.5903 271.7338,410.5879"/>
    <line x1="285.555" x2="288.8639" y1="413.1785" y2="410.0787"/>
    <line x1="306.6338" x2="310.4612" y1="412.5118" y2="410.0787"/>
    <polyline points="314.052,428.906 309.5284,432.3206 306.5298,433.9125"/>
    <polyline points="293.3671,432.1799 288.8639,431.676 284.4629,430.5904"/>
    <polyline points="270.3304,435.0196 267.0221,431.3878 264.5034,428.0811"/>
    <line x1="248.5442" x2="245.6693" y1="435.1839" y2="431.676"/>
    <line x1="245.6693" x2="249.3246" y1="453.2733" y2="455.9568"/>
    <line x1="264.807" x2="269.5461" y1="449.4651" y2="457.1939"/>
    <polyline points="263.9743,471.7559 267.0063,474.5966 270.2452,478.2892"/>
    <line x1="265.1256" x2="269.5311" y1="492.4703" y2="500.3947"/>
    <polyline points="263.5957,515.4077 267.2666,518.0652 271.2583,520.2116"/>
    <line x1="284.3934" x2="293.3679" y1="517.3026" y2="518.5892"/>
    <polyline points="306.5378,520.337 310.4612,518.0652 314.5998,516.2152"/>
    <line x1="327.6167" x2="336.4958" y1="518.9786" y2="517.1308"/>
    <line x1="349.1207" x2="358.1909" y1="518.1169" y2="518.0168"/>
    <line x1="370.9434" x2="379.4315" y1="519.4767" y2="516.3087"/>
    <polyline points="395.2873,522.3114 396.8504,518.0652 399.4678,514.3752"/>
    <polyline points="414.8682,520.8375 418.4477,518.0652 422.5082,516.0576"/>
    <polyline points="435.5678,518.7465 440.045,518.0652 444.5687,518.2707"/>
    <polyline points="457.2109,517.1111 461.6423,518.0652 465.922,519.5587"/>
    <polyline points="479.0702,516.2825 483.9151,518.4044 487.0595,520.4867"/>
    <polyline points="501.701,514.7908 504.8369,518.0652 507.6758,521.6002"/>
    <polyline points="522.1399,516.611 526.7981,518.1675 530.8693,518.9867"/>
    <line x1="545.0956" x2="548.0315" y1="521.5221" y2="518.0652"/>
    <line x1="548.0315" x2="543.5217" y1="496.4679" y2="495.9866"/>
    <line x1="530.9498" x2="521.9038" y1="496.8896" y2="496.2614"/>
    <polyline points="508.9032,498.4729 504.4878,496.323 500.535,495.0469"/>
    <line x1="487.76" x2="478.7479" y1="496.8347" y2="495.8616"/>
    <line x1="466.0288" x2="457.2217" y1="497.6185" y2="495.4539"/>
    <line x1="444.2133" x2="435.999" y1="498.2545" y2="494.4202"/>
    <polyline points="422.6576,498.1248 418.7818,496.6447 414.6062,494.0596"/>
    <polyline points="401.3635,496.1138 397.9718,496.3007 392.3954,497.3132"/>
    <line x1="379.7139" x2="370.7645" y1="495.6486" y2="497.1111"/>
    <polyline points="357.9913,497.7624 353.6558,496.4679 349.1311,496.2908"/>
    <line x1="336.5835" x2="327.5307" y1="496.7699" y2="496.2054"/>
    <polyline points="314.9043,497.3588 310.0981,496.3631 306.2576,494.7915"/>
    <polyline points="291.9425,499.7876 288.8639,496.4679 286.6078,492.5464"/>
    <line x1="290.1449" x2="287.3272" y1="479.2207" y2="470.604"/>
    <line x1="291.7817" x2="286.174" y1="456.7455" y2="449.6241"/>
    <polyline points="306.0574,452.258 310.4612,453.2733 314.9715,452.9791"/>
    <line x1="328.0707" x2="335.9033" y1="455.4258" y2="450.8676"/>
    <polyline points="350.0754,456.0452 353.3797,453.5314 356.6792,449.8979"/>
    <line x1="351.5728" x2="355.5275" y1="435.7048" y2="427.5464"/>
    <line x1="353.6386" x2="353.6558" y1="414.6138" y2="410.0787"/>
    <line x1="371.5942" x2="375.2531" y1="412.7555" y2="410.0787"/>
    <line x1="393.1984" x2="396.8504" y1="412.7682" y2="410.0787"/>
    <line x1="414.0649" x2="418.4477" y1="411.2325" y2="410.0787"/>
    <line x1="440.045" x2="444.1593" y1="410.0787" y2="411.984"/>
    <line x1="461.6423" x2="462.7864" y1="410.0787" y2="414.4651"/>
    <polyline points="457.6468,429.5526 460.6003,431.2292 465.9012,433.2329"/>
    <polyline points="479.8115,428.7101 483.2396,431.676 487.0232,434.1725"/>
    <polyline points="501.4501,428.6616 505.1303,431.9143 508.4958,434.3515"/>
    <polyline points="522.9097,428.834 525.5021,431.0305 530.2654,434.103"/>
    <line x1="544.3155" x2="548.0315" y1="429.0799" y2="431.676"/>
    <line x1="545.9068" x2="548.0315" y1="449.267" y2="453.2733"/>
    <polyline points="530.4179,455.4347 526.0876,453.1226 522.1378,451.8407"/>
    <line x1="509.3468" x2="500.366" y1="453.7439" y2="452.5128"/>
    <polyline points="487.7655,453.4277 484.3727,453.2341 478.7171,453.6144"/>
    <polyline points="466.1766,453.2298 460.8873,453.2364 457.1461,452.725"/>
    <line x1="443.5447" x2="436.4893" y1="456.1577" y2="450.4579"/>
    <polyline points="422.9452,453.8162 419.2024,453.3157 413.9135,453.2625"/>
    <polyline points="401.2929,454.1632 397.9481,453.5574 392.4846,452.0461"/>
    <line x1="378.3348" x2="371.9263" y1="449.9465" y2="456.3543"/>
    <polyline points="370.8128,475.7823 374.8794,474.9271 379.7648,474.4214"/>
    <line x1="392.549" x2="401.0452" y1="473.4423" y2="476.5946"/>
    <line x1="414.0639" x2="422.7957" y1="473.7143" y2="476.1609"/>
    <polyline points="436.9558,471.554 439.7739,474.6073 443.4379,477.8776"/>
    <polyline points="457.7513,472.5853 460.9443,474.5806 465.9825,476.176"/>
    <line x1="478.9441" x2="487.5751" y1="473.4162" y2="476.1966"/>
    <line x1="500.304" x2="509.3521" y1="474.7264" y2="475.2897"/>
    <line x1="522.1565" x2="530.7619" y1="476.3776" y2="473.5181"/>
    <line x1="544.2409" x2="548.0315" y1="472.3832" y2="474.8706"/>
    <line x1="527.4875" x2="526.4342" y1="414.4832" y2="410.0787"/>
    <line x1="505.3924" x2="504.8369" y1="414.58" y2="410.0787"/>
    <line x1="484.1919" x2="483.2396" y1="414.5109" y2="410.0787"/>
    <polyline points="443.3446,434.7707 441.3297,433.0615 436.9998,428.3163"/>
    <polyline points="422.9391,431.4172 419.183,431.501 414.1852,433.2184"/>
    <line x1="401.31" x2="392.3601" y1="432.5014" y2="431.0655"/>
    <polyline points="379.3402,429.717 375.2531,431.676 371.4387,434.125"/>
    <polyline points="334.9902,428.2185 331.793,431.9451 328.59,434.5864"/>
    <line x1="330.3408" x2="332.0585" y1="414.2736" y2="410.0787"/>
    <line x1="327.5444" x2="336.5668" y1="474.4421" y2="475.355"/>
    <polyline points="349.1291,474.9829 353.6558,474.8706 358.0326,473.7208"/>
    <polyline points="314.6102,476.6736 310.4612,474.8706 307.0138,471.9511"/>
    <line x1="249.8092" x2="245.6693" y1="476.7217" y2="474.8706"/>
    <line x1="245.6693" x2="249.7316" y1="496.4679" y2="498.4843"/>
    <line x1="245.6693" x2="247.1846" y1="518.0652" y2="522.33"/>
    <line x1="245.6693" x2="249.6232" y1="539.6625" y2="541.8825"/>
    <polyline points="263.2174,537.6251 267.972,539.934 271.6604,540.6954"/>
    <line x1="285.2435" x2="292.6451" y1="542.3935" y2="537.1592"/>
    <line x1="307.4812" x2="313.4254" y1="543.0816" y2="536.2299"/>
    <line x1="329.9797" x2="334.0622" y1="543.6921" y2="535.5953"/>
    <polyline points="350.5448,542.9568 353.6558,539.6625 357.2564,536.914"/>
    <line x1="372.408" x2="378.1543" y1="543.1934" y2="536.1785"/>
    <polyline points="393.0077,542.0715 397.7886,539.0259 400.4395,536.8983"/>
    <line x1="414.2367" x2="422.7576" y1="541.3426" y2="538.2505"/>
    <polyline points="435.5318,539.9794 440.045,539.6625 444.4744,540.5679"/>
    <line x1="457.8634" x2="465.3874" y1="537.1546" y2="542.2177"/>
    <line x1="479.5677" x2="486.9891" y1="537.0028" y2="542.2137"/>
    <polyline points="501.7449,536.3497 504.8369,539.6625 508.3532,542.5217"/>
    <polyline points="521.9295,540.1029 526.0634,539.7356 530.7858,538.3988"/>
    <line x1="544.7107" x2="548.0315" y1="542.7498" y2="539.6625"/>
    <line x1="548.0315" x2="544.5083" y1="561.2598" y2="564.1158"/>
    <line x1="530.6546" x2="522.1028" y1="559.6036" y2="562.601"/>
    <line x1="509.1171" x2="500.4968" y1="562.7594" y2="559.9442"/>
    <polyline points="487.3432,563.1866 483.2396,561.2598 479.3781,558.8868"/>
    <polyline points="465.3365,563.8831 461.3162,561.0687 457.5466,559.3289"/>
    <line x1="444.0175" x2="436.1624" y1="563.4436" y2="558.916"/>
    <line x1="422.9715" x2="413.9361" y1="561.579" y2="560.7959"/>
    <line x1="401.1785" x2="392.5684" y1="559.9053" y2="562.7531"/>
    <line x1="379.5469" x2="370.9664" y1="559.8012" y2="562.7406"/>
    <line x1="357.4997" x2="349.6359" y1="558.8557" y2="563.359"/>
    <line x1="336.0793" x2="328.032" y1="559.1618" y2="563.3472"/>
    <line x1="313.6502" x2="307.534" y1="558.037" y2="564.7233"/>
    <polyline points="313.9272,579.9376 310.4612,582.8571 307.4822,586.2715"/>
    <polyline points="313.8631,601.4681 310.4612,604.4544 307.8691,608.1623"/>
    <polyline points="311.0339,621.556 310.5179,625.298 310.2749,630.5831"/>
    <polyline points="311.4363,643.2315 310.324,648.0012 309.2578,649.9977 308.0464,651.4443"/>
    <polyline points="293.1188,646.1058 288.8639,647.649 284.3718,648.2184"/>
    <line x1="271.3255" x2="263.3685" y1="645.6253" y2="649.9594"/>
    <line x1="247.4544" x2="245.6693" y1="643.4817" y2="647.649"/>
    <line x1="249.4738" x2="245.6693" y1="666.7947" y2="669.2463"/>
    <polyline points="262.7969,668.5307 265.4217,668.8377 271.6801,670.29"/>
    <line x1="284.3603" x2="293.353" y1="668.711" y2="669.8931"/>
    <polyline points="305.9326,669.0022 311.2143,669.3115 314.951,669.8646"/>
    <line x1="327.6163" x2="336.4269" y1="668.3411" y2="670.4637"/>
    <polyline points="349.7043,667.0292 353.6558,669.2463 357.2614,671.991"/>
    <line x1="371.244" x2="379.4024" y1="667.1266" y2="671.0733"/>
    <line x1="392.3634" x2="401.3542" y1="668.5885" y2="669.7654"/>
    <polyline points="414.7861,666.5743 418.7391,669.487 421.747,672.3519"/>
    <polyline points="435.8563,667.5107 440.7607,669.4894 444.4453,670.2972"/>
    <line x1="458.1206" x2="465.327" y1="672.1039" y2="666.6036"/>
    <polyline points="479.1703,671.2402 483.2396,669.2463 487.5861,667.974"/>
    <polyline points="500.3055,669.1371 504.4592,669.2594 509.357,668.8815"/>
    <line x1="521.9417" x2="530.9308" y1="668.6237" y2="669.8381"/>
    <line x1="544.2579" x2="548.0315" y1="666.7305" y2="669.2463"/>
    <line x1="548.0315" x2="543.8542" y1="690.8436" y2="692.6092"/>
    <line x1="530.9676" x2="521.9247" y1="690.7181" y2="691.3077"/>
    <polyline points="508.859,688.7627 504.8369,690.8436 501.2537,693.6175"/>
    <line x1="487.4249" x2="478.9491" y1="689.0984" y2="692.3102"/>
    <line x1="465.681" x2="457.7622" y1="688.7839" y2="693.1913"/>
    <polyline points="444.5429,691.0731 442.2815,691.1904 440.045,690.8436 435.955,688.9256"/>
    <polyline points="422.9009,690.081 418.8081,690.73 414.3233,692.7141"/>
    <line x1="400.9868" x2="392.7939" y1="688.9865" y2="692.8722"/>
    <polyline points="379.6817,691.8017 376.3484,691.1368 370.9189,689.5109"/>
    <line x1="356.4399" x2="350.84" y1="694.4226" y2="687.2894"/>
    <polyline points="333.0891,695.2596 331.957,690.4796 330.6033,686.5512"/>
    <polyline points="313.1312,694.5061 310.4612,690.8436 307.3272,687.5703"/>
    <line x1="292.0918" x2="285.784" y1="694.0286" y2="687.5144"/>
    <line x1="269.6209" x2="264.912" y1="694.7201" y2="686.9675"/>
    <line x1="248.2832" x2="245.6693" y1="694.5318" y2="690.8436"/>
    <line x1="264.4442" x2="267.2666" y1="708.8915" y2="712.4409"/>
    <line x1="285.6839" x2="288.8639" y1="709.2094" y2="712.4409"/>
    <line x1="309.1784" x2="310.4612" y1="708.0922" y2="712.4409"/>
    <line x1="330.5357" x2="332.0585" y1="708.1697" y2="712.4409"/>
    <line x1="351.2715" x2="353.6558" y1="708.5868" y2="712.4409"/>
    <line x1="371.5815" x2="375.2531" y1="709.7783" y2="712.4409"/>
    <line x1="396.8504" x2="401.0769" y1="712.4409" y2="710.7962"/>
    <polyline points="418.4477,712.4409 420.6696,712.0001 422.9337,711.9529"/>
    <line x1="435.9924" x2="440.045" y1="710.4207" y2="712.4409"/>
    <line x1="461.6423" x2="465.884" y1="712.4409" y2="710.8407"/>
    <line x1="483.2396" x2="486.883" y1="712.4409" y2="709.7456"/>
    <line x1="504.8369" x2="508.223" y1="712.4409" y2="709.4283"/>
    <line x1="526.4342" x2="530.5705" y1="712.4409" y2="710.5833"/>
    <polyline points="521.9543,648.3497 526.8099,647.6076 530.96,647.4327"/>
    <line x1="544.7495" x2="548.0315" y1="644.5215" y2="647.649"/>
    <line x1="548.0315" x2="545.6051" y1="626.0517" y2="622.2222"/>
    <polyline points="530.9239,626.6329 526.4342,626.0517 521.9214,626.4204"/>
    <polyline points="508.8428,623.9409 504.8369,626.0517 501.3479,628.9385"/>
    <line x1="487.2632" x2="479.322" y1="623.9622" y2="628.3365"/>
    <line x1="465.9812" x2="457.3535" y1="624.739" y2="627.5262"/>
    <line x1="444.5364" x2="435.5444" y1="626.6792" y2="625.4916"/>
    <polyline points="422.5484,627.9704 419.156,626.3157 414.1113,624.7262"/>
    <line x1="400.0704" x2="393.641" y1="629.2444" y2="622.8484"/>
    <polyline points="378.955,628.6642 374.9247,625.8646 371.1093,624.2331"/>
    <polyline points="357.3494,623.4462 353.9344,625.7964 350.701,629.4827"/>
    <line x1="358.0916" x2="349.2691" y1="646.7041" y2="648.791"/>
    <polyline points="332.8737,643.1957 332.1584,647.2845 330.5061,651.9063"/>
    <polyline points="331.9051,630.5799 332.0216,626.4279 332.7397,621.5694"/>
    <polyline points="329.6217,608.2779 332.0585,604.4544 334.8161,600.8548"/>
    <line x1="328.5574" x2="335.5404" y1="585.74" y2="579.9509"/>
    <line x1="350.2398" x2="356.9529" y1="585.8398" y2="579.7428"/>
    <polyline points="371.79,585.7682 374.7259,583.3988 378.1829,579.3961"/>
    <line x1="392.3311" x2="401.3737" y1="582.4975" y2="583.1506"/>
    <line x1="414.1968" x2="422.7654" y1="584.4379" y2="581.4761"/>
    <polyline points="435.5166,582.9262 440.045,582.8571 444.4982,583.6773"/>
    <line x1="459.2583" x2="463.7883" y1="579.0015" y2="586.8527"/>
    <polyline points="480.3638,579.3602 483.2396,582.8571 486.7739,585.687"/>
    <polyline points="500.3451,583.3739 504.8369,582.8571 508.994,581.0781"/>
    <line x1="522.0939" x2="530.8556" y1="584.1661" y2="581.8492"/>
    <line x1="543.9154" x2="548.0315" y1="584.7477" y2="582.8571"/>
    <line x1="544.4177" x2="548.0315" y1="601.7151" y2="604.4544"/>
    <polyline points="530.9264,604.9627 526.4342,604.4544 521.9794,605.227"/>
    <polyline points="507.6211,600.8808 505.0911,604.1747 501.5454,607.5695"/>
    <polyline points="487.7636,604.7437 483.6153,604.4956 478.7576,603.77"/>
    <line x1="466.1137" x2="457.1317" y1="605.209" y2="604.0018"/>
    <polyline points="444.3309,602.9885 440.7423,604.1626 435.9369,606.3755"/>
    <polyline points="422.9108,603.6825 418.8241,604.4202 413.9157,604.5361"/>
    <line x1="401.3849" x2="392.3166" y1="604.5399" y2="604.3449"/>
    <polyline points="379.743,605.0801 374.8761,604.4274 370.7247,604.5048"/>
    <polyline points="357.4419,601.9622 353.6558,604.4544 350.1614,607.3422"/>
    <line x1="370.7392" x2="379.7431" y1="647.2123" y2="648.2852"/>
    <line x1="392.797" x2="400.9709" y1="645.6217" y2="649.5439"/>
    <line x1="414.7363" x2="422.0191" y1="645.0446" y2="650.4446"/>
    <polyline points="436.2564,645.2126 438.0265,646.6242 439.6948,647.5069 444.4596,648.6303"/>
    <polyline points="457.1663,648.3689 461.6423,647.649 466.0317,646.5146"/>
    <line x1="479.0738" x2="487.2887" y1="649.4423" y2="645.6099"/>
    <line x1="500.8149" x2="508.9587" y1="649.7446" y2="645.7632"/>
    <line x1="292.4141" x2="285.2775" y1="623.2304" y2="628.8278"/>
    <polyline points="270.6749,623.0627 267.0,626.3197 264.3141,629.4883"/>
    <line x1="247.1748" x2="245.6693" y1="621.7776" y2="626.0517"/>
    <line x1="245.6693" x2="248.0882" y1="604.4544" y2="600.6197"/>
    <polyline points="263.271,606.5925 266.5813,604.7735 271.4549,602.7156"/>
    <polyline points="285.3058,607.2594 288.8639,604.4544 291.9366,601.1239"/>
    <polyline points="285.1864,585.485 288.8639,582.8571 291.6305,579.2775"/>
    <polyline points="284.9168,563.4586 288.5629,561.4884 292.0623,558.057"/>
    <polyline points="271.7736,561.5975 267.6365,561.3372 262.9619,559.8488"/>
    <line x1="249.9323" x2="245.6693" y1="562.808" y2="561.2598"/>
    <line x1="250.1095" x2="245.6693" y1="581.9361" y2="582.8571"/>
    <line x1="263.1538" x2="271.3984" y1="584.7681" y2="580.9881"/>
  </g>
</svg>
