<?xml version="1.0" encoding="utf-8" ?>
<svg xmlns="http://www.w3.org/2000/svg" xmlns:cc="http://creativecommons.org/ns#" xmlns:dc="http://purl.org/dc/elements/1.1/" xmlns:ev="http://www.w3.org/2001/xml-events" xmlns:inkscape="http://www.inkscape.org/namespaces/inkscape" xmlns:rdf="http://www.w3.org/1999/02/22-rdf-syntax-ns#" xmlns:sodipodi="http://sodipodi.sourceforge.net/DTD/sodipodi-0.dtd" xmlns:xlink="http://www.w3.org/1999/xlink" baseProfile="tiny" height="29.7cm" version="1.2" viewBox="0 0 793.7007874015749 1122.5196850393702" width="21.0cm">
  <metadata>
    <rdf:RDF>
      <cc:Work>
        <dc:format>image/svg+xml</dc:format>
        <dc:source/>
        <dc:date>2022-01-27T21:59:52.129517</dc:date>
      </cc:Work>
    </rdf:RDF>
  </metadata>
  <defs/>
  <g fill="none" id="layer1" inkscape:groupmode="layer" inkscape:label="1" stroke="#00f" style="display:inline">
    <polygon points="319.541,399.3935 320.2058,400.1439 319.541,400.8943 318.7159,400.3248 318.884,399.6426"/>
    <polyline points="313.128,395.9998 319.4499,400.1439 314.569,396.5815 310.0357,392.5794 301.5912,383.9347 299.295,381.9685 289.6621,374.6697 284.215,372.0658 278.4242,370.3315 272.5248,369.0147 266.4959,368.6474 257.4456,369.2167 251.4734,370.1509 239.9711,373.8532 234.0563,375.0962 221.9899,375.5779 219.0512,376.2724 216.2725,377.4565 213.6777,379.0054 209.0234,382.8538 202.6991,389.3529 200.3273,391.2249 187.6419,399.4436"/>
    <polyline points="205.1935,386.9003 209.3964,382.5541 214.1143,378.7853 216.7428,377.2944 219.5559,376.1956 222.5166,375.6008 231.58,375.5296 234.5873,375.2253 240.5203,374.0674 249.2074,371.4697 255.1882,370.6321 258.2104,370.5691 264.2247,371.1473 270.0922,372.5837 272.9195,373.6534 278.4017,376.2022 281.0102,377.7287 283.4362,379.5308 287.7005,383.8077 291.0274,388.8405 296.9013,402.7623 303.0366,413.1738 306.217,421.6619 307.7744,424.2487 309.7612,426.5234 312.0539,428.4921 319.4499,433.7397 313.0599,429.7015"/>
    <polygon points="318.884,433.2384 319.541,432.9893 320.2058,433.7397 319.541,434.4901 318.7159,433.9206"/>
    <polyline points="337.418,413.6833 341.7437,417.9083 351.5206,424.9922 365.0366,437.0723 370.161,440.2815 380.0377,447.2429 382.8096,448.4416 388.7378,449.561 397.802,449.8463 400.814,449.6086 403.7579,448.9315 415.0798,444.6857 420.3138,441.6838 424.8111,437.6524 426.7894,435.3672 430.1939,430.3733 433.2081,425.1324 437.3097,417.0429 442.0044,409.2843 443.8657,406.9045 446.1006,404.8742 453.8331,400.1439 447.1753,403.7235"/>
    <polygon points="453.9242,399.3935 454.589,400.1439 453.9242,400.8943 453.0991,400.3248 453.2673,399.6426"/>
    <polyline points="480.2664,402.5601 487.4289,400.1439 479.001,403.4701 471.478,408.5271 466.1506,411.367 451.8893,416.3707 446.5953,419.2796 441.8155,422.9705 439.7111,425.1402 436.0053,429.9149 430.9085,437.4178 427.002,442.0238 422.1933,445.6688 419.53,447.0973 413.8369,449.1085 405.0227,451.2488 402.0305,451.6685 399.0092,451.6699 389.9956,450.6596 384.0608,449.5362 381.2397,448.4571 378.6161,446.9591 371.3928,441.4762 363.8415,436.4594 359.4919,432.2637"/>
    <polyline points="357.7365,431.2188 364.1706,437.6006 371.5761,442.8329 378.4828,448.7111 383.6217,451.8708 400.6797,458.0165 403.6491,458.5758 412.705,459.0458 418.7465,458.9458 421.7265,458.4464 427.3895,456.3667 429.9926,454.8322 434.5168,450.8424 450.5898,432.7818 452.7542,430.674 455.283,429.0313 458.1707,428.1757 461.1875,428.1368 467.0732,429.4605 475.4649,432.8958 478.3844,433.6701 481.3898,433.9774 487.4289,433.7397 479.8946,434.3511"/>
    <polyline points="481.8395,432.8742 484.8607,432.7984 493.8655,431.7244 496.8872,431.6834 499.8851,432.0532 502.7675,432.9497 505.4418,434.3543 515.382,441.2353 523.2104,445.8133 527.8875,449.6311 532.0533,454.0136 534.3525,455.9731 536.9408,457.5293 542.6096,459.6108 554.3117,462.6618 562.995,465.2755 568.9444,466.3411 577.9985,466.8487 586.9095,468.5067 589.9232,468.6886 595.8433,467.5385 604.4802,464.7725 610.4461,463.8752 613.4647,464.0061 616.4174,464.6327 621.8121,467.3355 615.2443,463.5934"/>
    <polygon points="621.2463,466.8343 621.9032,466.5851 622.568,467.3355 621.9032,468.0859 621.0781,467.5164"/>
    <polygon points="587.4823,467.5164 587.6505,466.8343 588.3074,466.5851 588.9722,467.3355 588.3074,468.0859"/>
    <polyline points="580.6575,467.2631 588.2163,467.3355 579.2341,466.1299 570.1769,465.678 567.1817,465.2707 543.798,459.1212 538.0683,457.2005 535.3767,455.8284 532.9319,454.0547 526.3536,447.8154 523.9301,446.0092 513.4995,439.8965 506.1178,434.6274 503.5007,433.1174 500.6692,432.071 497.6899,431.5766 494.6688,431.5289 485.6679,432.6242 479.6344,432.5961 476.675,431.9898 465.2994,427.9067 462.3382,427.305 459.3236,427.122 456.3477,427.6026 453.6234,428.8919 451.2685,430.7816 449.1881,432.9742"/>
    <polygon points="453.0991,433.9206 453.2673,433.2384 453.9242,432.9893 454.589,433.7397 453.9242,434.4901"/>
    <polyline points="448.1224,438.6923 453.8331,433.7397 445.8776,442.8318 435.1296,453.4622 430.2495,457.014 427.5479,458.3678 424.6995,459.3761 418.7421,460.3365 406.6613,459.888 400.6831,459.049 383.7736,452.5078 378.6778,449.277 371.843,443.3153 364.4797,438.0245 358.0512,431.6417 349.1483,423.4603 341.7968,418.1653 335.3373,411.798 331.4099,407.2058"/>
    <polyline points="329.9896,405.6533 333.7868,410.3586 340.1094,416.8606 342.2677,418.977 349.4517,424.5008 355.7527,431.0239 361.5362,438.0025 368.1301,444.2193 372.3049,448.5888 381.0749,460.881 383.3152,462.9052 385.9009,464.4639 388.7053,465.5883 394.5571,467.1013 409.5231,469.1177 418.223,471.6775 424.1981,472.5193 433.2368,471.9124 436.1954,471.2942 444.8671,468.6447 453.8331,467.3355 446.2885,467.803"/>
    <polyline points="444.7088,460.4088 447.6549,459.7531 450.6743,459.6989 465.7596,460.6019 471.6818,461.8039 483.378,464.8808 489.1195,466.7706 500.1109,471.8056 525.5996,481.3041 537.3674,484.0814 554.7496,489.2553 560.6977,490.321 569.7358,491.0394 572.6748,491.7385 578.1563,494.2576 585.5578,499.4932 588.2163,500.9313 581.4187,497.6249"/>
    <polygon points="588.9722,500.9313 588.3074,501.6817 587.4823,501.1122 587.6505,500.4301 588.3074,500.1809"/>
    <polyline points="614.8512,503.8785 621.8121,500.9313 619.1171,502.2972 611.4329,507.1045 608.5936,508.1256 605.5929,508.4264 599.6503,507.3919 593.949,505.3877 585.8025,501.4052 578.3557,496.2396 573.0328,493.401 570.1297,492.5689 561.0893,491.9698 558.1079,491.4788 537.8525,485.3511 526.104,482.4913 500.6563,472.8891 489.811,467.5524 481.2496,464.5826"/>
    <polyline points="480.4655,464.3941 487.4289,467.3355 478.8544,464.3878 467.1858,461.2244 464.1914,460.8129 452.1175,460.1476 449.0974,460.0322 446.1013,460.3986 443.2265,461.3251 432.137,466.1286 429.2057,466.8598 426.1967,467.1197 423.1806,466.9343 411.2521,464.9452 402.2298,464.032 399.2594,463.477 390.7876,460.262 385.3598,457.6025 382.822,455.9615 378.3353,451.9194 372.0727,445.359 362.7432,437.678 358.7242,433.1629 352.2896,426.7729"/>
    <polyline points="348.7698,427.5062 353.0457,433.7397 347.912,426.2627 345.9073,424.003 341.486,419.8803 333.4291,410.8636 329.7419,406.0717 327.6701,403.8725 325.3393,401.9488 315.405,395.0561 310.7505,391.1963 308.5506,389.1232 302.6823,382.2142 300.4205,380.2099 293.1521,374.7858 287.879,371.8399 282.181,369.8339 276.2862,368.4912 273.2977,368.0359 267.259,367.9218 258.233,368.8094 252.2655,369.7791 237.8618,374.308 231.9026,375.3045 228.8817,375.4049"/>
    <polyline points="224.0832,376.3812 239.1631,377.383 245.1516,378.1967 251.0116,379.678 253.8199,380.7901 256.2813,382.5241 258.0131,384.9851 259.0144,387.8322 259.5241,390.8099 259.601,393.8301 259.28,396.8347 257.13,405.6422 256.8374,408.6478 257.0817,411.6576 258.8685,417.4205 261.6428,422.7863 277.4791,444.9081 279.4067,447.2363 283.8417,451.3368 291.3217,456.454 296.7158,459.1806 305.0984,462.6426 313.8116,465.1545 319.4499,467.3355 312.4629,464.4509"/>
    <polygon points="318.7159,467.5164 318.884,466.8343 319.541,466.5851 320.2058,467.3355 319.541,468.0859"/>
    <polyline points="313.5134,496.2518 319.4499,500.9313 314.3431,497.7141 308.6641,495.667 302.7519,494.4019 293.7754,493.111 287.9678,491.4623 285.2653,490.1113 280.1368,486.9081 271.9906,482.9295 269.4949,481.2318 267.424,479.0367 265.7782,476.5032 263.2166,471.0307 261.0796,465.374 258.3218,460.0036 256.4639,457.6217 254.2932,455.5195 249.4531,451.9017 246.8352,450.3914 238.5291,446.7633 214.7628,433.5328 209.1457,431.3135 206.203,430.6272 203.1919,430.4094 200.2056,430.8402 197.3696,431.8768 194.7215,433.3318"/>
    <polyline points="218.9174,437.4686 231.9986,445.0452 241.9221,451.9466 246.5434,455.8234 250.363,460.5023 251.833,463.1411 253.5443,468.9245 254.7746,477.9105 255.3363,486.9613 256.5129,492.8806 258.698,498.514 260.1102,501.1866 263.6528,506.0709 265.9256,508.0593 268.4587,509.7078 279.2889,515.0737 285.0088,517.0131 293.9044,518.7712 296.7699,519.7303 299.4928,521.0403 302.0352,522.6737 311.4711,530.2247 319.4499,534.5271 312.6281,531.2708"/>
    <polygon points="320.2058,534.5271 319.541,535.2775 318.7159,534.708 319.1818,533.8203 319.8793,533.905"/>
    <polyline points="322.0498,510.0255 323.8861,515.7856 325.1747,518.5175 328.7731,523.3624 330.9614,525.4457 335.9359,528.8756 341.2369,531.7647 344.1703,532.4619 347.1877,532.4204 350.1606,531.8811 353.037,530.9553 369.5569,523.4626 374.8181,520.4889 384.0815,512.7324 386.6018,511.0644 389.2958,509.6957 397.8631,506.7258 400.8077,506.0481 409.7911,504.8673 418.4789,502.2977 421.4914,502.0873 427.4758,502.8785 436.309,504.9028 439.3286,504.9564 445.2719,503.8874 451.0479,502.1054 453.8331,500.9313 447.0279,504.2221"/>
    <polygon points="454.589,500.9313 453.9242,501.6817 453.0991,501.1122 453.2673,500.4301 453.9242,500.1809"/>
    <polyline points="453.6556,485.4412 459.6037,484.3506 465.6089,483.6783 474.6696,483.8877 477.6207,484.5316 488.9388,488.7889 494.7122,490.5735 509.664,492.7518 524.2252,496.7507 536.2721,497.7836 542.2191,498.8573 556.5012,503.7882 562.0233,506.2137 564.4048,508.0682 566.3757,510.3558 576.4286,525.4521 578.327,527.8039 582.8358,531.8141 585.4268,533.3676 588.2163,534.5271 581.0415,532.1476"/>
    <polygon points="587.9482,533.8203 588.6457,533.905 588.9722,534.5271 588.3074,535.2775 587.4823,534.708"/>
    <polyline points="616.2009,539.5921 621.8121,534.5271 614.9996,540.5133 610.7287,544.7937 605.9075,548.4191 600.3603,550.8078 594.5633,552.5171 591.5781,552.9851 588.5577,553.057 585.5587,552.6949 568.3845,546.8847 562.8729,544.4074 560.2882,542.8405 553.3087,537.0652 551.2056,534.8937 545.4915,527.8515 538.8666,521.6716 533.8396,518.3219 531.1394,516.9627 522.7166,513.6073 519.7892,512.8574 516.7906,512.4882 513.7702,512.5506 510.7854,513.0205 505.0317,514.8588 491.2215,520.9976"/>
    <polygon points="487.1608,533.8203 487.8583,533.905 488.1848,534.5271 487.52,535.2775 486.6949,534.708"/>
    <polyline points="480.2916,537.0168 487.4289,534.5271 467.5299,541.7367 455.9201,545.1035 447.5751,548.6567 439.071,551.8077 433.6721,554.524 428.5226,557.6911 426.138,559.5475 417.2677,567.7634 398.6856,583.243 388.3884,589.5687 383.6274,593.2759 381.6977,595.5988 380.1746,598.2075 378.991,600.9883 375.6876,612.6095 374.2103,615.2412 370.2179,619.7736"/>
    <polyline points="382.9299,608.3038 386.6415,601.7187 384.1966,607.2406 381.4996,619.021 379.3959,624.6781 376.1534,629.7671 374.0539,631.9391 371.68,633.8091 366.4361,636.801 363.5883,637.8091 360.6206,638.3718 351.562,638.7094 348.5864,639.2357 342.8525,641.1364 340.1193,642.427 337.5346,643.9928 332.8931,647.8581 326.952,654.7038 324.8373,656.862 322.4193,658.6713 314.2171,662.5242 306.3901,667.0918 300.624,668.8674 294.6019,669.212 282.6771,667.2464 273.6847,666.1197 259.0526,662.7102 253.036,662.1536 250.0165,662.2654"/>
    <polyline points="256.8741,662.6611 262.8216,663.738 274.5218,666.796 283.4916,668.1155 292.344,670.0868 298.3605,670.5779 301.3703,670.3073 307.2704,669.001 315.8224,665.9956 324.6856,664.1154 330.284,661.8335 333.1774,660.9686 336.1851,660.7432 339.1699,661.1958 350.7646,664.6331 356.4674,666.6423 361.9737,669.1297 364.5286,670.7438 371.3527,676.7086 375.3591,681.2213 383.2628,694.1043 384.5883,696.8211 386.6415,702.5061 384.2318,695.3414"/>
    <polygon points="386.3734,701.7993 387.0709,701.884 387.3974,702.5061 386.7326,703.2565 385.9075,702.687"/>
    <polyline points="418.3436,695.1881 420.2373,702.5061 415.6591,684.9561 412.3317,676.5195 411.0218,673.7957 409.378,671.2614 407.3597,669.014 405.0483,667.0676 400.0539,663.6591 394.81,660.6745 391.9252,659.7782 385.9429,658.9389 370.8501,658.134 355.8518,656.2473 346.9029,654.7776 337.8558,654.2031 334.873,654.6559 332.0886,655.8162 324.5254,660.8101 321.7548,662.0141 315.9612,663.742 307.7907,667.659 302.015,669.4189 299.0252,669.8584"/>
    <polyline points="308.2433,667.4321 313.6144,664.6571 322.2031,661.7756 324.9388,660.4948 332.4689,655.4513 335.2818,654.3628 338.2739,653.9696 347.325,654.5015 356.2726,655.9812 371.2729,657.8481 377.3063,658.2478 392.4191,658.5568 398.4366,659.1233 404.2844,660.6407 412.7369,663.9171 417.9844,666.8979 420.2373,668.9103 414.966,663.4924"/>
    <polyline points="421.0856,667.7639 427.1312,674.5227 438.5227,684.4455 441.0852,686.0475 449.1619,690.1724 451.9978,691.2158 457.9339,692.3111 460.955,692.3632 463.949,691.9665 466.8426,691.0988 483.4831,683.8906 488.8766,681.1584 491.6633,679.9917 494.6034,679.3049 497.6202,679.1948 500.6022,679.6657 503.4289,680.7241 511.0793,685.5817 513.8716,686.7271 516.8493,687.2088 519.8595,686.9972 522.7738,686.2048 525.5568,685.0264 538.6271,677.4389 551.8618,670.1444 554.6205,668.9103 547.5547,671.5963"/>
    <polygon points="554.7116,668.1599 555.3764,668.9103 554.7116,669.6607 553.8865,669.0912 554.0547,668.4091"/>
    <polyline points="580.6885,669.5979 588.2163,668.9103 567.4477,672.9453 541.261,680.3238 535.7151,682.7088 527.9036,687.3158 525.1503,688.5613 522.2518,689.4098 519.2479,689.7073 516.2428,689.4165 513.3436,688.573 510.6293,687.2476 502.9308,682.4716 500.0585,681.5457 497.0556,681.2411 494.0568,681.5783 491.1862,682.5144 483.117,686.6489 469.2336,692.6265 466.4134,693.7134 463.478,694.4258 460.4664,694.6513 457.456,694.3985 454.4998,693.7704 451.6219,692.8469 446.2196,690.1504"/>
    <polyline points="446.8745,699.5534 453.8331,702.5061 448.6649,699.3904 443.9567,695.6016 441.8049,693.478 437.6933,689.044 431.8816,682.0811 425.6832,675.4634 421.9054,670.7419 419.8634,668.5133 417.5559,666.5644 412.2511,663.6808 403.7737,660.4687 397.906,659.0348 394.9001,658.714 376.7692,658.2259 370.7375,657.8001 355.741,655.9013 346.7902,654.4474 337.7371,653.9948 334.7635,654.5045 331.9981,655.7102 324.4673,660.7525 321.6985,661.9605"/>
    <polygon points="319.541,669.6607 318.7159,669.0912 318.884,668.4091 319.541,668.1599 320.2058,668.9103"/>
    <polyline points="311.8953,669.1707 319.4499,668.9103 313.4294,669.4247 301.4777,671.2652 295.4434,671.2314 283.653,668.5808 274.7055,667.1162 260.0679,663.3517 254.074,662.5851 251.0519,662.5533 248.0552,662.9311 236.4401,666.2592 230.4643,667.1769 215.3777,668.0769 200.4106,670.1353 194.3712,670.4417 185.3059,670.3617 182.3355,670.9009 174.016,674.4891 171.1328,675.3921"/>
    <polyline points="184.5819,670.8728 193.6435,670.9156 202.7035,670.4904 214.683,668.8556 229.767,667.9029 238.7245,666.5053 247.4181,663.9311 250.4038,663.4766 253.4253,663.4903 259.412,664.3073 282.7153,670.7464 302.3896,678.5469 305.0912,679.8998 307.5511,681.6519 309.6851,683.789 311.4534,686.2381 316.5996,697.1744 319.4499,702.5061 315.7033,695.9408"/>
    <polygon points="319.541,703.2565 318.7159,702.687 319.1818,701.7993 319.8793,701.884 320.2058,702.5061"/>
    <polyline points="347.5349,697.3321 353.0457,702.5061 348.6973,698.3043 344.7975,693.6906 338.839,683.1755 335.3152,678.2666 333.1272,676.1902 330.4487,674.8116 327.5167,674.0854 312.534,672.112 306.49,671.9827 300.4514,672.2963 294.436,671.7887 282.7267,668.7794 273.8047,667.1677 262.1381,663.9835 256.1867,662.9298 253.1725,662.7015 250.1516,662.7636 247.1755,663.2791 238.5086,665.9424 232.5607,667.0236 226.5438,667.6067 217.4827,668.0058"/>
    <polyline points="214.3118,667.8097 232.4,666.5591 238.3416,665.4447 246.9944,662.7346 249.9635,662.1783 252.9826,662.0539 259.0015,662.5846 273.7074,666.0626 282.7033,667.1603 291.6301,668.7616 297.6592,669.0581 300.6565,668.676 306.4003,666.8332 314.1637,662.1569 322.2597,658.0877 324.6139,656.1962 326.6437,653.9584 330.2639,649.115 334.2577,644.5793 336.5243,642.5808 339.0267,640.8875 344.4823,638.2907 353.0457,635.3145 345.7817,637.4061"/>
    <polyline points="345.2973,635.5606 353.1873,631.1012 355.4334,629.0848 361.0769,621.9947 369.8146,613.6465 371.5901,611.2031 372.9242,608.4933 377.0825,597.1429 378.5417,594.4972 380.3563,592.082 382.492,589.9446 394.7092,581.06 413.4439,565.7618 422.4749,557.7217 432.6173,551.1453 443.0459,545.0256 445.4776,543.2301 449.9218,539.1354 453.8331,534.5271 449.2253,540.5194"/>
    <polygon points="454.589,534.5271 453.9242,535.2775 453.0991,534.708 453.565,533.8203 454.2625,533.905"/>
    <polyline points="454.0765,547.4053 465.6702,543.9766 477.1177,540.0783 482.9464,538.4734 494.8559,536.3799 509.6256,533.1737 512.6419,533.0223 515.6331,533.4302 518.5064,534.3621 523.8344,537.203 531.2232,542.4619 538.8466,547.3691 545.6376,553.3749 558.4188,566.2408 563.1273,570.0328 565.6779,571.6523 568.4534,572.8416 571.3966,573.517 574.412,573.6948 577.4182,573.4067 580.3135,572.5534 588.2163,568.1229 581.3673,571.3215"/>
    <polygon points="588.3074,567.3725 588.9722,568.1229 588.3074,568.8733 587.4823,568.3038 587.6505,567.6217"/>
    <polyline points="615.8254,572.738 621.8121,568.1229 619.3581,569.8876 616.6883,571.2985 613.8052,572.1963 601.8519,573.9844 596.0753,575.7433 593.4176,577.1767 591.049,579.051 588.9397,581.2153 587.0655,583.5864 580.6579,593.831 576.45,598.1613 571.4681,601.5687 568.749,602.8891 563.0728,604.9631 560.1157,605.5798 557.0979,605.6944 554.0918,605.384 548.2386,603.8962 542.542,601.8721 539.575,601.3113 536.555,601.2888 533.5668,601.7303 530.6749,602.6059 516.8345,608.6801 511.0881,610.5436 508.1168,611.0958 505.101,611.2776 502.0875,611.0553 493.1392,609.5805 487.121,608.9911"/>
    <polyline points="486.207,611.0099 492.1516,612.1175 497.9543,613.7967 509.0287,618.6546 511.7263,620.018 516.7979,623.3089 519.4603,624.7375 522.2884,625.8013 528.2198,626.9137 531.2404,626.9057 534.2194,626.4074 537.1086,625.52 553.6001,617.9894 558.8605,615.0082 566.9733,610.9571 585.0139,599.8904 592.5362,594.8224 597.9361,592.1358 600.8851,591.491 603.9039,591.4157 606.8857,591.8879 609.7385,592.881 615.074,595.7142 617.5425,597.4581 621.8121,601.7187 617.1794,595.7456"/>
    <polygon points="622.568,601.7187 621.9032,602.4691 621.0781,601.8996 621.2463,601.2175 621.9032,600.9683"/>
    <polyline points="616.3042,630.1374 621.8121,635.3145 617.0704,631.5738 611.9588,628.3447 609.2202,627.0731 606.2642,626.4851 603.2528,626.6764 597.4344,628.2886 580.5591,634.9275 572.613,639.2972 569.8384,640.496 555.3262,644.7137 552.5127,645.8162 542.3701,652.3778 526.78,661.653 524.0491,662.9455 521.1243,663.6803 518.1106,663.6148 515.1961,662.8304 509.8209,660.0771 494.1728,650.9146 491.8521,648.9792 487.6275,644.6535"/>
    <polyline points="481.0133,631.317 487.4289,635.3145 482.2525,632.1883 477.3112,628.7091 461.5782,614.5593 456.5616,611.1936 451.2292,608.3457 445.5319,606.3487 442.5516,605.852 439.5316,605.7868 436.5359,606.1757 433.6282,606.9959 430.8499,608.1836 428.2858,609.7789 426.044,611.8021 424.1461,614.1528 421.1215,619.3821 415.9378,630.3088 412.4808,638.6891 410.8422,641.2262 408.8788,643.5241 404.6372,647.8333 400.0113,651.7228 394.9536,655.023 392.1455,656.1339 389.1962,656.7899 380.1602,657.5257 371.0989,657.2142"/>
    <polyline points="372.1269,657.2501 381.1906,657.4385 390.2035,656.4913 393.1008,655.6382 395.805,654.2944 398.2893,652.5734 402.8585,648.6182 406.8818,644.1075 410.2865,639.1237 411.4438,636.3334 414.1372,627.6771 416.3792,622.062 419.0298,613.389 421.4315,607.8434 422.9068,605.2056 424.7344,602.8013 426.9252,600.7212 431.8868,597.2757 434.5837,595.9118 440.2687,593.8649 443.2194,593.2126 446.2286,592.9421 449.2479,593.0646 455.2056,594.0815 469.9482,597.419 481.428,601.2081 484.4081,601.7012 487.4289,601.7187 479.8855,602.206"/>
    <polygon points="487.52,602.4691 486.6949,601.8996 486.8631,601.2175 487.52,600.9683 488.1848,601.7187"/>
    <polyline points="514.1505,604.8629 521.0247,601.7187 512.8965,605.7426 507.2871,607.9763 504.3199,608.5413 501.3008,608.6591 489.2311,607.9294 483.2278,607.2716 480.3259,606.431 477.5566,605.2211 466.9333,599.4561 461.2286,597.4587 455.4075,595.8271 449.4424,594.8595 446.4222,594.7574 443.4138,595.0373 437.5964,596.6536 432.0952,599.1479 429.5404,600.7635 427.1487,602.6108 425.0328,604.7662 423.2784,607.2258 420.4577,612.5694 419.3348,615.3762 417.4186,621.1115 413.9871,629.5053 411.1486,638.1145 409.7,640.7647 407.9083,643.1988 403.9188,647.7409"/>
    <polyline points="408.9716,642.1673 410.6626,639.6635 411.946,636.9293 413.7984,631.1738 420.525,614.3342 423.3599,608.9997 425.1013,606.5295 427.1548,604.3145 429.5198,602.4342 434.7856,599.4801 440.4513,597.3769 443.3911,596.6776 446.3959,596.3608 452.4204,596.7646 455.3897,597.3307 461.1449,599.1701 466.6622,601.6353 479.5089,609.5901 485.1499,611.7386 493.9698,613.8454 499.5209,616.2153 504.4818,619.6579 506.5983,621.8111 508.2105,624.362 510.8187,629.8122 512.7018,632.167 515.1803,633.8776 518.0401,634.8378 521.0247,635.3145 513.5206,634.4039"/>
    <polygon points="521.1158,634.5641 521.7806,635.3145 521.1158,636.0649 520.2907,635.4954 520.4589,634.8133"/>
    <polyline points="547.8512,638.6785 554.6205,635.3145 546.4201,639.1892 535.7984,644.9673 530.1247,647.0257 527.1492,647.5532 521.1115,647.7933 509.0652,646.7653 506.1001,646.1822 503.2336,645.2275 500.517,643.9041 497.9409,642.3224 490.7242,636.8313 488.1848,635.3145 487.52,634.5641 486.6949,635.1336 487.1608,636.0213 487.8583,635.9366 488.2192,635.1387 478.121,628.499 471.2613,622.5661 462.4148,614.3221 457.3955,610.9638 449.2686,606.9566 443.4107,605.5131 440.3927,605.3788 437.3869,605.6813 434.4544,606.4077 431.6402,607.5084 429.006,608.9863 426.6639,610.8923 424.6671,613.159 422.9767,615.6642"/>
    <polyline points="418.7891,616.4666 421.0359,610.8571 422.4397,608.1797 424.0432,605.6179 425.9875,603.3068 428.2659,601.3225 433.3696,598.0942 436.1271,596.856 441.8724,594.9884 444.8555,594.5085 450.8866,594.6938 459.7336,596.6538 468.3291,599.528 479.0674,605.0778 481.9282,606.0492 487.9141,606.7994 500.0071,606.6864 503.0113,606.3609 508.762,604.5402 516.9046,600.5454 522.5347,598.3429 528.3022,596.5458 531.2998,596.1708 534.3218,596.1889 540.316,596.9474 543.2202,597.7812 551.671,601.0598 554.6205,601.7187 547.1662,600.4643"/>
    <polygon points="554.0547,601.2175 554.7116,600.9683 555.3764,601.7187 554.7116,602.4691 553.8865,601.8996"/>
    <polyline points="581.2861,604.7374 588.2163,601.7187 580.0468,605.6568 574.8305,608.7136 567.2243,613.6546 561.9803,616.6653 554.6984,622.0629 541.8956,630.0871 539.1231,631.2886 533.2714,632.7781 527.2425,633.0595 521.2641,632.1858 518.3717,631.3159 515.7306,629.8608 513.5431,627.7838 510.0015,622.8854 507.9096,620.7078 505.5014,618.8828 500.3045,615.7959 494.7276,613.4796 485.8838,611.4818 480.1679,609.5403 467.2559,601.6982 461.7551,599.1984 456.0158,597.3055"/>
    <polygon points="454.589,601.7187 453.9242,602.4691 453.0991,601.8996 453.2673,601.2175 453.9242,600.9683"/>
    <polyline points="446.5159,599.8218 453.8331,601.7187 447.87,600.7711 444.8482,600.7815 438.9005,601.8176 433.1931,603.7956 430.5106,605.1872 428.0384,606.9229 425.8609,609.0169 423.9836,611.3846 421.0032,616.6376 414.8964,630.4644 411.6743,638.934 410.043,641.4761 406.0656,646.0275 401.6927,650.1991 396.8625,653.8321 394.2228,655.3005 391.3743,656.3034 388.4069,656.8748 379.3639,657.5254 367.2969,656.8328 349.3627,654.1249 343.3396,653.6251 337.2989,653.6277 334.3565,654.2936 331.6483,655.6249"/>
    <polyline points="342.1564,653.8086 348.1862,654.2519 357.1311,655.7512 369.1242,657.3066 381.1988,657.8523 390.2575,657.4088 393.2523,656.9994 401.9957,654.6028 407.9256,653.4205 413.9045,652.5193 419.9338,652.1581 422.9336,652.5116 425.8417,653.3299 431.3989,655.7067 436.5098,658.919 446.0732,666.3107 448.7229,667.7631 454.4725,669.589 460.4655,670.3475 463.4868,670.2787 481.4735,667.9991 484.4847,668.229 487.4289,668.9103 480.1557,666.8509"/>
    <polygon points="486.6949,669.0912 486.8631,668.4091 487.52,668.1599 488.1848,668.9103 487.52,669.6607"/>
    <polyline points="480.7539,678.5674 489.4546,676.007 492.438,675.5312 495.4588,675.4707 498.4601,675.8177 501.3815,676.5852 504.135,677.8259 511.7674,682.7099 514.6365,683.6334 517.6495,683.7087 520.6051,683.0909 526.2231,680.867 534.1895,676.5429 541.6773,671.4245 548.9319,665.9795 554.0744,662.8152 556.8745,661.6795 559.8019,660.9332 562.8045,660.5949 577.8948,661.2579 586.9023,660.244 592.9302,660.6095 607.8083,663.2735 613.5331,665.2071 621.8121,668.9103 614.8192,666.04"/>
    <polygon points="621.9032,669.6607 621.0781,669.0912 621.2463,668.4091 621.9032,668.1599 622.568,668.9103"/>
    <polygon points="622.568,702.5061 621.9032,703.2565 621.0781,702.687 621.544,701.7993 622.2415,701.884"/>
    <polyline points="614.4361,704.1596 621.8121,702.5061 609.9214,704.6773 604.2143,706.6613 598.8585,709.4579 591.2939,714.4607 583.951,719.7862 579.3419,723.6917 577.3675,725.9788 575.6978,728.4976 571.0311,736.2636 565.3165,743.3022 563.0053,745.2463 555.5664,750.4273 546.3692,758.2719 541.2338,761.4587 535.6715,763.7993 526.8505,765.8952 518.3388,769.0277 515.6325,770.3701 513.1815,772.135 506.6521,778.4275 504.8168,780.8255 502.3324,786.3235"/>
    <polyline points="489.0167,808.6788 494.061,805.3604 496.2638,803.2937 498.0238,800.8432 499.1923,798.0603 502.0406,786.3163 504.4316,780.7741 506.1911,778.3198 512.5445,771.8486 514.8998,769.9575 517.5353,768.4817 525.9483,765.0932 534.6214,762.4524 537.3802,761.222 539.9451,759.6239 544.648,755.8318 546.6644,753.5824 548.3582,751.0797 554.4724,740.645 557.8681,735.6458 565.9691,726.6742 578.5085,709.6338 583.0855,705.7034 588.2163,702.5061 581.641,706.2351"/>
    <polygon points="587.4823,702.687 587.9482,701.7993 588.6457,701.884 588.9722,702.5061 588.3074,703.2565"/>
    <polygon points="553.8865,702.687 554.3524,701.7993 555.0499,701.884 555.3764,702.5061 554.7116,703.2565"/>
    <polyline points="547.998,706.1506 554.6205,702.5061 549.3607,705.4869 544.4429,709.0013 535.4763,717.111 531.2961,721.4733 528.0237,726.5464 523.9206,734.6274 518.533,741.9213 516.9898,744.5201 512.9725,752.6463 506.148,762.6278 504.6713,765.2654 502.3401,770.8406 500.6622,776.6465 498.8141,785.5255 496.5237,794.302 495.4987,797.1443 494.0048,799.7672 489.8205,804.1121 482.7398,809.7812 475.1141,814.681 470.2187,818.2289 467.5425,819.6258"/>
    <polyline points="480.51,705.5506 487.4289,702.5061 476.0949,706.7102 473.3689,708.0141 465.9479,713.2174 457.8283,717.2362 454.9236,718.0619 451.9165,718.3346 448.9053,718.1058 446.0033,717.2803 443.3706,715.8071 441.0927,713.8245 437.1221,709.2651 428.744,700.5525 427.0061,698.08 424.1533,692.7523 420.6571,684.3833 415.3676,673.5123 413.6224,671.0465 411.5285,668.8691 409.1558,666.998 406.6013,665.3819 398.5444,661.2187 395.7224,660.1388 392.7862,659.424 386.7819,658.7371 377.7151,658.4882 368.6728,657.7881"/>
    <polyline points="380.6543,664.2958 386.6415,668.9103 381.461,665.8208 372.7767,663.2383 337.0264,657.1431 334.0288,657.464 331.2049,658.5275 325.934,661.4893 323.1673,662.7032 314.4364,665.1298 306.1117,668.7078 300.2159,670.0187 297.1999,670.2033 291.194,669.5768 282.3201,667.7055 276.3164,666.989 261.6432,663.3723 255.6709,662.4473 249.6346,662.4444 246.6743,663.0459 240.9322,664.9401"/>
    <polyline points="236.8185,665.4078 248.4115,661.9991 251.4115,661.6428 254.4342,661.6377 260.444,662.2711 275.1986,665.5434 284.239,666.2236 293.2407,667.3061 299.2557,666.8461 302.1685,666.0436 304.9328,664.826 317.2757,656.1138 319.4917,654.0598 321.3252,651.6626 322.5927,648.9235 324.9106,640.1614 326.1118,637.3884 336.1202,618.7456 339.7416,613.9087 345.9006,607.2513 350.476,603.3098 353.0457,601.7187 346.445,605.4025"/>
    <polygon points="353.8016,601.7187 353.1368,602.4691 352.3117,601.8996 352.4799,601.2175 353.1368,600.9683"/>
    <polyline points="377.048,600.3327 379.674,594.9006 381.5288,592.5169 383.7263,590.4436 396.1681,581.8762 414.8494,566.5121 423.7662,558.3433 426.1579,556.4952 433.8261,551.6519 447.1671,544.5654 451.9799,540.91 456.4807,536.8714 460.7856,532.6274 470.9389,521.4315 472.5711,518.8904 476.1132,510.5501 477.7894,508.0375 479.828,505.8082 482.1725,503.9028 487.4289,500.9313 480.5238,504.007"/>
    <polygon points="487.52,500.1809 488.1848,500.9313 487.52,501.6817 486.6949,501.1122 486.8631,500.4301"/>
    <polyline points="513.6157,499.4324 521.0247,500.9313 512.1066,499.3228 509.0855,499.2296 503.067,499.7698 494.149,501.4134 491.274,502.3427 488.561,503.6712 486.047,505.3484 481.5283,509.3562 479.5582,511.6483 477.8297,514.1275 474.8554,519.3917 471.1763,524.175 457.9249,536.5577 448.4793,544.1026 443.2642,547.1536 435.1114,551.1261 424.9331,557.6436 416.0054,565.7982 399.6922,579.2808"/>
    <polyline points="414.4004,572.926 420.2373,568.1229 408.4841,577.6276 401.7596,583.7126 396.7909,587.1448 388.8879,591.589 386.4911,593.4286 384.3943,595.6026 382.6801,598.0894 381.3276,600.7916 379.4265,606.5257 377.9805,612.3948 376.739,615.146 373.0052,619.8862 361.9885,630.2329 359.6766,632.1777 357.0549,633.6736 345.648,637.6774 340.1285,640.1416 337.5399,641.7005 333.0389,645.719 325.5344,655.1937 323.3308,657.2592 320.814,658.9289 315.3528,661.522 310.1745,664.6333"/>
    <polyline points="311.1227,665.9286 313.7969,664.5188 322.383,661.6253 325.1,660.3051 332.596,655.2118 335.4113,654.1293 338.4027,653.727 347.4588,654.1632 368.3957,657.2272 380.4667,657.8591 392.5296,657.1045 401.2709,654.7134 407.1787,653.4268 413.1406,652.4186 419.1576,651.8649 422.1725,652.0567 425.1193,652.7194 430.7344,654.9529 435.9622,657.973 445.5524,665.3361 448.1572,666.8683 453.8331,668.9103 446.4802,667.1566"/>
    <polygon points="453.9242,669.6607 453.0991,669.0912 453.2673,668.4091 453.9242,668.1599 454.589,668.9103"/>
    <polygon points="453.0991,702.687 453.565,701.7993 454.2625,701.884 454.589,702.5061 453.9242,703.2565"/>
    <polygon points="420.6667,701.884 420.9932,702.5061 420.3284,703.2565 419.5033,702.687 419.9692,701.7993"/>
    <polygon points="420.3284,669.6607 419.5033,669.0912 419.6715,668.4091 420.3284,668.1599 420.9932,668.9103"/>
    <polyline points="397.7249,653.862 405.2149,648.7532 412.2821,643.0675 414.4663,640.9789 426.5239,627.4477 428.6158,625.2676 431.0055,623.4203 433.6554,621.9704 436.504,620.9682 439.49,620.5277 442.503,620.7076 445.4185,621.4892 448.126,622.8256 450.5972,624.5645 461.7963,634.7152 466.7217,638.2013 474.8592,642.2075 483.2597,645.6177 485.8521,647.168 492.9014,652.8718 500.5279,657.7756 507.368,663.7228 512.2899,667.2194 515.0505,668.4416 518.0092,669.0275 521.0247,668.9103 513.5426,669.9865"/>
    <polygon points="521.1158,669.6607 520.2907,669.0912 520.4589,668.4091 521.1158,668.1599 521.7806,668.9103"/>
    <polygon points="521.4541,701.884 521.7806,702.5061 521.1158,703.2565 520.2907,702.687 520.7566,701.7993"/>
    <polyline points="513.4777,702.078 521.0247,702.5061 515.0596,701.6019 512.2434,700.5104 504.5182,695.7683 501.7987,694.4539 498.8911,693.6408 495.8814,693.4443 492.9265,694.0419 484.7953,698.0428 462.1327,706.4539 459.1362,706.8148 456.1375,706.4897 453.2924,705.4833 450.6706,703.9822 443.3099,698.6827 438.8688,694.5933 429.9603,682.389 426.016,677.8058 420.4992,670.6086 418.404,668.4312 416.0127,666.5861 413.3946,665.0759 407.9051,662.5453 399.3204,659.6359 393.3446,658.7525"/>
    <polyline points="385.6495,657.0452 391.5932,655.9895 394.3845,654.8386 396.9282,653.2097 401.4575,649.2114 403.475,646.9605 407.0126,642.0606 408.4884,639.4235 410.357,633.6886 412.9332,621.8757 414.0755,612.8803 416.4677,604.1414 418.8797,598.6076 420.6009,596.125 424.825,591.8067 429.5643,588.0563 437.1318,583.0579 448.2301,578.3054 457.8733,571.0441 460.6482,569.8582 463.6061,569.2539 466.6256,569.2125 475.6141,570.3818 478.633,570.2681 481.6151,569.7771 487.4289,568.1229 480.2382,570.4539"/>
    <polygon points="486.6949,568.3038 486.8631,567.6217 487.52,567.3725 488.1848,568.1229 487.52,568.8733"/>
    <polyline points="514.592,564.1529 521.0247,568.1229 518.3718,566.6764 515.5234,565.6728 512.5631,565.064 506.5402,564.6018 500.4984,564.8368 494.4993,565.5655 479.891,569.4104 476.882,569.6837 473.864,569.5402 467.888,568.6209 464.8712,568.4652 461.8744,568.8319 459.0028,569.7622 456.3954,571.2819 449.4736,577.1338 446.8823,578.6868 438.4859,582.1012 433.362,585.3035 428.399,588.7579 423.7695,592.6431 419.7375,597.136 418.1886,599.7296 415.9989,605.3604 414.3508,611.176 413.1822,620.166 410.0527,634.9506"/>
    <polyline points="414.5661,640.3123 420.2373,635.3145 413.9838,641.8766 404.5243,649.4064 396.9353,654.3676 394.2164,655.6847 391.3267,656.5642 382.3163,657.5236 373.2513,657.4289 367.2285,656.8945 346.2895,653.8567 337.2305,653.6812 334.2902,654.356 331.5865,655.6965 324.0992,660.7992 321.3157,661.9731 315.5378,663.7524 307.4,667.7406 301.6079,669.4455 295.5907,669.8693 292.5835,669.5658 280.7002,667.3523"/>
    <polyline points="284.0853,666.3106 293.0811,667.445 299.1015,667.0566 302.0248,666.2935 304.808,665.1195 307.3918,663.553 317.2264,656.5169 319.4984,654.5248 321.4294,652.2045 322.8235,649.5278 325.3279,640.8168 326.5174,638.0389 335.1395,622.0815 338.4672,617.0401 342.5493,612.5846 349.1476,606.3623 351.5785,604.5678 359.5439,600.2396 364.3231,596.5473 366.4494,594.399 373.926,584.896 382.3175,572.3327 386.6415,568.1229 380.7142,572.814"/>
    <polygon points="387.3974,568.1229 386.7326,568.8733 385.9075,568.3038 386.0757,567.6217 386.7326,567.3725"/>
    <polyline points="386.4483,591.5493 399.2928,583.6054 420.1451,566.1307 426.7523,559.9187 431.7213,556.4874 437.036,553.6055 456.8334,546.1498 465.5726,543.7236 479.9022,538.9132 485.7655,537.4395 494.6677,535.6994 509.3842,532.2554 512.3965,532.0353 515.3966,532.3699 518.2854,533.2511 521.0247,534.5271 514.3585,530.9632"/>
    <polygon points="521.7806,534.5271 521.1158,535.2775 520.2907,534.708 520.7566,533.8203 521.4541,533.905"/>
    <polyline points="548.7669,529.7443 554.6205,534.5271 541.6388,521.8853 536.7308,518.3592 534.1075,516.8572 525.7782,513.2776 519.9918,511.5472 516.9958,511.1561 513.9748,511.1817 510.9851,511.6193 508.0654,512.4 502.4364,514.602 486.0243,522.3221 483.5149,524.0054 476.6916,529.9777 474.2225,531.7191 457.9811,539.7816 447.6564,546.0716 434.0036,552.5377 428.8526,555.705 424.044,559.3581"/>
    <polyline points="421.4088,566.1351 428.0878,560.0031 433.1915,556.7718 441.3994,552.9318 452.8188,548.9507 475.8411,541.5419 481.6919,540.0248 487.6839,539.2391 493.7193,538.8662 505.6762,537.0836 508.6966,536.9736 514.6837,537.7356 520.4318,539.5907 536.3892,548.1985 541.1909,551.8661 545.5551,556.0487 549.4437,560.6752 554.6205,568.1229 550.141,562.0341"/>
    <polygon points="554.7116,567.3725 555.3764,568.1229 554.7116,568.8733 553.8865,568.3038 554.0547,567.6217"/>
    <polygon points="554.7116,535.2775 553.8865,534.708 554.3524,533.8203 555.0499,533.905 555.3764,534.5271"/>
    <polygon points="553.8865,501.1122 554.0547,500.4301 554.7116,500.1809 555.3764,500.9313 554.7116,501.6817"/>
    <polyline points="547.4038,498.6821 554.6205,500.9313 545.9874,498.1554 540.0886,496.831 525.0752,495.1144 522.1235,494.4668 507.8395,489.5312 496.0493,486.8779 493.2665,485.7059 483.2735,478.9088 480.5918,477.5143 475.0964,474.9922 467.0985,470.7225 461.2756,469.1466 455.2581,468.652 449.2407,469.2178 443.3269,470.4586 434.6234,472.9818 425.5919,473.7525 419.571,473.3464 410.8999,470.7065"/>
    <polyline points="412.8098,465.9311 420.2373,467.3355 411.3376,465.5822 399.3399,464.1359 390.8086,461.0853 385.3777,458.4349 382.861,456.7622 380.5628,454.7999 372.3224,445.9511 363.0643,438.1847 356.9867,431.4581 350.5318,425.0865 341.0378,417.6303 334.6453,411.1956 328.7809,404.2828 326.5082,402.2911 316.5698,395.4031 309.619,389.5824 303.8905,382.5626 301.7723,380.4081"/>
    <polyline points="299.1411,377.9602 303.6404,381.9867 307.305,386.7942 311.4945,391.1403 316.1808,394.961 326.1222,401.8455 328.4432,403.7812 334.3769,410.632 343.1198,418.9799 350.635,424.0451 364.2487,436.0238 379.3923,445.9877 382.1613,447.192 385.1025,447.8768 388.1142,448.122 394.1477,447.7875 400.0959,446.7457 405.5987,444.2736 413.413,439.6686 418.155,435.9302 420.2373,433.7397 415.3288,439.4883"/>
    <polyline points="408.511,442.4873 413.6979,439.3801 416.1319,437.5882 420.439,433.3574 422.2284,430.9221 427.9471,420.2708 430.1845,414.6579 431.6723,408.8003 433.4208,399.9009 435.0637,394.0862 436.3732,391.3654 438.2186,388.9785 440.5573,387.0726 443.2541,385.7157 449.0472,383.9972 455.0133,383.0569 464.0788,382.9643 476.1116,384.1139 499.8639,388.6702 502.7576,389.5341 505.4313,390.9359 510.3897,394.3951 521.0247,400.1439 514.6477,396.0851"/>
    <polygon points="521.1158,400.8943 520.2907,400.3248 520.4589,399.6426 521.1158,399.3935 521.7806,400.1439"/>
    <polyline points="513.7752,431.5985 521.0247,433.7397 515.3905,431.573 512.8688,429.9124 506.5544,423.4148 504.2227,421.4917 499.0605,418.3712 496.1422,417.6225 493.1366,417.807 484.7038,421.0984 481.722,421.5665 475.6912,421.2523 466.7061,420.0368 460.697,420.5744 454.8395,422.0552 452.0491,423.2144 446.9581,426.4602 440.25,432.5479 428.8484,446.6422 426.5479,448.5998 421.2612,451.511 415.4663,453.1897 403.4329,454.2998 400.4211,454.0561 388.5912,451.5551"/>
    <polyline points="390.0679,455.9958 398.4143,459.5449 401.31,460.4072 404.2938,460.8865 419.3756,461.8731 425.3868,461.3087 428.2956,460.493 433.6988,457.8029 448.1376,446.8378 455.1537,441.0918 457.7323,439.5214 460.5926,438.566 463.6004,438.3637 466.5463,439.0021 472.0537,441.4929 474.9343,442.4003 477.9283,442.794 486.9729,442.2026 493.0169,442.2945 498.9671,443.291 501.7556,444.449 504.2899,446.0912 506.5313,448.1166 508.4929,450.4153 514.9767,460.6178 518.788,465.3032 521.0247,467.3355 515.1554,462.572"/>
    <polygon points="521.7806,467.3355 521.1158,468.0859 520.2907,467.5164 520.4589,466.8343 521.1158,466.5851"/>
    <polyline points="547.5135,464.7605 554.6205,467.3355 548.8547,465.5257 540.0022,463.5532 537.1281,462.6187 534.4225,461.2794 532.087,459.3708 530.209,457.0059 526.9182,451.9337 522.8184,447.5091 507.9973,437.0613 502.7837,434.0208 499.9046,433.1112 496.9119,432.7 493.8898,432.6637 484.854,433.4407 478.8228,433.2419 475.8876,432.5289 467.4594,429.1829 461.5881,427.7892 458.5702,427.7367 455.6433,428.4498 453.0393,429.9692 450.807,432.004 432.6598,452.2618 430.3434,454.2016 427.7898,455.8168"/>
    <polyline points="421.9368,451.5246 427.1507,448.489 429.386,446.457 440.8059,432.3754 447.5673,426.3445 452.7049,423.1769 455.5247,422.0914 461.4164,420.7522 464.4188,420.4057 467.4394,420.453 476.4078,421.8003 482.44,422.0138 485.4004,421.4253 490.9701,419.081 493.8742,418.2671 496.8831,418.3431 499.7358,419.3196 502.3572,420.8222 507.0832,424.5783 511.1751,429.0289 513.4785,430.9824 516.0818,432.5133 518.8797,433.6549 527.6411,435.9797 533.6513,436.5207 542.6742,435.622 554.6205,433.7397 547.1422,434.8419"/>
    <polygon points="554.7116,434.4901 553.8865,433.9206 554.0547,433.2384 554.7116,432.9893 555.3764,433.7397"/>
    <polyline points="580.867,431.971 588.2163,433.7397 579.3743,431.734 570.8752,428.5706 565.4073,425.9962 560.3285,422.7209 557.9988,420.7957 552.0031,414.0007 550.3829,411.4528 549.3824,408.6082 549.0179,405.6101 549.4822,390.5051 548.9523,384.4925 548.0918,381.5981 546.6662,378.9393 544.6311,376.7146 542.1127,375.0525 539.3363,373.8607 533.5212,372.2151 524.5907,370.632 512.7781,368.0563 503.7688,367.0488 498.0789,365.041 492.8655,361.9944 490.5253,360.0822 486.5048,355.577 483.1234,350.5657"/>
    <polyline points="501.3155,330.6012 504.1247,331.7158 509.9693,333.2497 515.9757,333.8914 525.0392,334.1531 531.0482,334.8285 542.886,337.2867 560.8837,339.5112 569.7563,341.3885 575.385,343.5588 577.9171,345.2056 580.1707,347.2178 585.8225,354.2987 588.8709,359.5172 591.5776,364.9248 598.8213,381.5484 602.2809,386.4925 608.753,392.8422 613.5047,396.5666 616.1572,398.0147 621.8121,400.1439 614.6214,397.8128"/>
    <polygon points="621.0781,400.3248 621.2463,399.6426 621.9032,399.3935 622.568,400.1439 621.9032,400.8943"/>
    <polyline points="619.53,426.5334 621.8121,433.7397 619.9707,427.9851 618.4248,425.3941 616.3923,423.16 611.8291,419.193 602.2422,411.841 600.2925,409.5355 598.8321,406.8943 597.333,401.0509 593.4596,377.1761 592.0375,371.3022 589.8851,365.6548 586.02,357.4525 582.6646,352.4281 578.7286,347.8435 576.4253,345.8892 573.8374,344.332 568.1332,342.3674 553.2085,339.9957 541.1222,339.8606 538.1271,339.4571 529.2799,337.4588"/>
    <polyline points="488.8064,321.4443 491.4186,326.8972 494.7312,331.9385 496.9274,334.0104 499.4396,335.6887 502.1176,337.0905 507.7234,339.3509 513.5557,340.9278 522.5089,342.3661 534.2813,345.106 540.309,345.3843 549.2201,343.7309 552.2317,343.4913 555.2495,343.6509 567.1936,345.5086 570.0669,346.4428 572.766,347.7977 575.1851,349.6048 577.2851,351.7771 580.9379,356.593 583.8274,361.8945 588.4625,373.0583 589.1043,376.0103 589.3374,379.023 589.1351,385.0653 588.3367,394.1004 588.2163,400.1439 588.0958,392.5858"/>
    <polygon points="588.9722,400.1439 588.3074,400.8943 587.4823,400.3248 587.6505,399.6426 588.3074,399.3935"/>
    <polygon points="555.3764,400.1439 554.7116,400.8943 553.8865,400.3248 554.0547,399.6426 554.7116,399.3935"/>
    <polyline points="554.0115,392.6094 554.6205,400.1439 553.7955,391.1116 552.026,382.226 550.7919,379.4719 548.9357,377.0964 546.5288,375.2786 543.8016,373.981 540.9241,373.0567 535.0258,371.7286 523.089,369.7933 514.218,367.9054 505.1965,366.9926 502.2406,366.3688 499.3954,365.3507 494.0549,362.5318 489.4108,358.6781 485.6116,353.9814 482.3654,348.8821 477.4946,337.8189 475.6366,332.0721 472.5631,317.2746 471.6283,314.4004 470.3331,311.6714 468.6326,309.1748 466.6106,306.9289 462.1084,302.8939"/>
    <polygon points="487.52,400.8943 486.6949,400.3248 486.8631,399.6426 487.52,399.3935 488.1848,400.1439"/>
    <polygon points="487.52,432.9893 488.1848,433.7397 487.52,434.4901 486.6949,433.9206 486.8631,433.2384"/>
    <polygon points="520.2907,433.9206 520.4589,433.2384 521.1158,432.9893 521.7806,433.7397 521.1158,434.4901"/>
    <polygon points="488.1848,467.3355 487.52,468.0859 486.6949,467.5164 486.8631,466.8343 487.52,466.5851"/>
    <polygon points="453.9242,466.5851 454.589,467.3355 453.9242,468.0859 453.0991,467.5164 453.2673,466.8343"/>
    <polygon points="420.9932,467.3355 420.3284,468.0859 419.5033,467.5164 419.6715,466.8343 420.3284,466.5851"/>
    <polygon points="419.5033,501.1122 419.6715,500.4301 420.3284,500.1809 420.9932,500.9313 420.3284,501.6817"/>
    <polyline points="412.6909,501.3693 420.2373,500.9313 417.2478,501.3604 408.585,504.0234 399.5766,505.0104 390.9546,507.8049 385.4761,510.345 382.9416,511.9918 375.9705,517.7893 373.4594,519.4704 370.7795,520.8682 365.1661,523.1093 356.3823,525.3395 350.3735,525.9459 347.3592,525.7413 344.3986,525.1359 338.6509,523.2662 335.915,521.9843 333.4262,520.275 331.2982,518.1329 329.5452,515.6724 324.0515,504.9125 322.1572,502.5607 317.3922,498.8633 314.7351,497.4232 309.0448,495.4061 303.1269,494.1672 294.1431,492.9276 288.3043,491.3886"/>
    <polygon points="320.2058,500.9313 319.541,501.6817 318.7159,501.1122 318.884,500.4301 319.541,500.1809"/>
    <polyline points="346.3344,497.453 353.0457,500.9313 347.908,497.7521 345.5741,495.8329 343.5342,493.6049 341.8179,491.1177 337.3598,483.2215 335.526,480.8205 331.0528,476.7656 325.9522,473.532 320.4306,471.0714 314.7423,469.0312 311.7819,468.4251 302.7655,467.4902 296.8989,466.0278 287.9392,464.6439 285.0197,463.8636 279.4457,461.5313 276.8334,460.0127 272.3043,456.0263 260.382,442.3542 256.2125,437.9761 251.4688,434.2451 246.2107,431.2605 243.7845,429.4613 241.6577,427.3152 238.1122,422.4301 235.9401,416.8019"/>
    <polyline points="242.2229,451.0544 244.7794,452.6661 249.31,456.66 253.1982,461.2782 254.6417,463.931 256.373,469.7131 259.3157,484.5354 260.3941,487.3577 261.8312,490.0159 263.5589,492.4955 265.5852,494.736 267.9438,496.6223 283.4585,505.9995 286.2455,507.1664 295.0501,509.3237 297.8769,510.3904 300.543,511.813 305.4783,515.302 314.4947,523.3517 316.9624,525.0967 324.7534,529.7413 335.64,535.0042 338.4393,536.1428 341.3758,536.8459 344.3914,536.9922 347.3858,536.5987 350.2896,535.7647 353.0457,534.5271 346.3723,538.0776"/>
    <polygon points="353.1368,535.2775 352.3117,534.708 352.7776,533.8203 353.4751,533.905 353.8016,534.5271"/>
    <polyline points="381.7311,540.2741 386.6415,534.5271 384.7508,536.8859 379.905,544.5504 369.7018,559.5429 361.4346,568.3618 359.0912,570.269 353.7894,573.1519 333.7827,580.0402 328.2916,582.55 325.8082,584.271 323.5813,586.3128 321.6317,588.6219 313.3426,601.2545 303.5859,612.7998 299.3289,617.0879 294.6491,620.9131 289.4751,624.028 278.1577,628.2725 275.4401,629.5954"/>
    <polyline points="267.8894,664.7371 273.7463,666.2405 282.7339,667.41 291.6401,669.1225 297.6641,669.5136 300.6678,669.1849 306.4658,667.5088 314.4165,663.161 322.7951,659.7077 325.3145,658.042 331.9133,651.8271 334.3511,650.042 336.9797,648.5501 342.5367,646.1763 348.3984,644.7394 351.4162,644.684 354.3755,645.2769 360.0604,647.333 363.0141,647.9634 366.0316,648.0959 372.0386,647.4272 377.9757,646.3065 380.7837,645.1984 383.2595,643.4783 385.1269,641.1161 386.2107,638.3037 386.6415,635.3145 386.1341,642.8565"/>
    <polygon points="386.7326,634.5641 387.3974,635.3145 386.7326,636.0649 385.9075,635.4954 386.0757,634.8133"/>
    <polygon points="386.7326,602.4691 385.9075,601.8996 386.0757,601.2175 386.7326,600.9683 387.3974,601.7187"/>
    <polyline points="416.3332,608.1916 420.2373,601.7187 418.8686,604.4123 416.792,610.0892 414.3085,621.9156 412.5083,627.6875 410.2912,636.4801 409.1657,639.2834 405.9077,644.3675 401.9932,648.9708 397.4551,652.9603 394.94,654.6343 392.182,655.863 389.2537,656.6049 383.2471,657.283 374.1829,657.3505 365.1563,656.4912 347.2198,653.8035 338.1589,653.5162 335.1802,654.0022 332.3945,655.1596 324.9364,660.3096 322.2134,661.6172 316.4416,663.4145 313.6401,664.5461 308.2433,667.4321 302.5005,669.2946 299.5198,669.7925 293.4866,669.7105 281.6077,667.4664 275.6032,666.7633"/>
    <polyline points="312.5001,665.149 315.2381,663.8707 323.8133,660.9492 326.4194,659.4207 331.3189,655.878 333.994,654.4801 336.9171,653.7358 339.934,653.5794 345.9743,653.8592 366.915,656.8796 372.936,657.4339 382.0007,657.5729 391.0233,656.7113 393.9378,655.9168 396.699,654.691 401.9195,651.6407 414.4493,643.1854 419.2549,639.5158 421.8594,637.9861 433.2081,633.8193 439.1137,632.5609 442.1322,632.4343 445.1348,632.764 448.0713,633.4793 453.8331,635.3145 446.6949,632.8273"/>
    <polygon points="453.2673,634.8133 453.9242,634.5641 454.589,635.3145 453.9242,636.0649 453.0991,635.4954"/>
    <polyline points="457.1468,625.666 463.3875,632.2458 465.717,634.1701 468.2961,635.7432 481.9791,642.1703 484.605,643.6652 493.6858,651.6279 504.0146,657.9065 511.4652,663.0788 514.1084,664.5428 516.9525,665.5542 519.9486,665.8962 522.929,665.443 525.7172,664.2871 538.3069,655.9303 551.1646,647.9868 553.8889,646.6818 559.6766,644.9425 571.406,642.0112 582.434,637.0724 588.2163,635.3145 580.9159,637.275"/>
    <polygon points="587.6505,634.8133 588.3074,634.5641 588.9722,635.3145 588.3074,636.0649 587.4823,635.4954"/>
    <polygon points="554.7116,634.5641 555.3764,635.3145 554.7116,636.0649 553.8865,635.4954 554.0547,634.8133"/>
    <polygon points="521.7806,601.7187 521.1158,602.4691 520.2907,601.8996 520.4589,601.2175 521.1158,600.9683"/>
    <polygon points="521.1158,568.8733 520.2907,568.3038 520.4589,567.6217 521.1158,567.3725 521.7806,568.1229"/>
    <polygon points="453.9242,568.8733 453.0991,568.3038 453.2673,567.6217 453.9242,567.3725 454.589,568.1229"/>
    <polyline points="448.313,573.2871 453.8331,568.1229 447.6919,574.7825 445.2262,576.5267 437.181,580.6994 427.6171,588.098 423.1,592.1142 419.182,596.7067 416.5455,602.1316 413.962,610.8213 412.3862,622.8035 409.9713,634.6515 409.1194,637.5507 407.8871,640.3091 404.6085,645.3841 402.7219,647.746 398.4143,651.9818 396.0181,653.8236 393.3844,655.3004 390.525,656.2711 381.5311,657.3578 375.486,657.3869 369.4527,656.9854 354.4723,654.9664"/>
    <polyline points="346.6926,664.8143 353.0457,668.9103 350.4454,667.3689 344.9077,664.9516 339.2206,662.9006 336.2585,662.3173 333.2425,662.3881 330.3038,663.0835 324.6015,665.0925 315.6825,666.697 304.0759,670.0548 298.0808,670.77 292.0722,670.1808 283.2307,668.1603 274.2667,666.8033 259.6102,663.1163 253.6063,662.4343 250.5845,662.4618 247.5984,662.9161 238.9386,665.6027 233.003,666.7471 226.991,667.3773 214.9175,668.026 205.9645,669.4628"/>
    <polyline points="197.8773,666.6721 203.8579,665.8026 209.7036,664.2587 215.6384,663.1192 227.6823,662.0546 233.6632,661.172 239.5824,659.9401 248.3517,657.6249 263.1835,654.6992 271.9714,652.4567 277.9345,651.4772 286.9712,650.7515 289.8743,649.9245 292.5405,648.511 294.8432,646.5598 296.7563,644.222 301.663,636.5938 306.21,628.7462 308.8749,623.3194 313.0823,611.9895 319.4499,601.7187 315.6178,608.2345"/>
    <polygon points="319.541,602.4691 318.7159,601.8996 318.884,601.2175 319.541,600.9683 320.2058,601.7187"/>
    <polygon points="318.884,634.8133 319.541,634.5641 320.2058,635.3145 319.541,636.0649 318.7159,635.4954"/>
    <polyline points="316.4254,642.2421 319.4499,635.3145 317.4992,641.0283 316.3392,646.9617 315.2977,649.7945 313.6763,652.3405 309.3759,656.5723 304.5559,660.2229 301.9826,661.8069 299.2107,663.0073 296.2921,663.7877 290.2735,664.225 275.1732,663.6915 260.2928,661.049 254.2617,660.6625 251.2406,660.765 248.2473,661.1781 236.6576,664.6051 230.7058,665.6659 215.6217,666.5762 200.7173,669.0309 194.6842,669.4405 185.6185,669.3769"/>
    <polyline points="232.1233,654.6388 237.9855,653.1646 240.8147,652.102 246.0451,649.0887 250.8576,645.4276 253.1613,643.4708 255.1974,641.2393 258.7918,636.3781 260.8451,634.1603 267.4328,627.9253 272.1875,624.1948 284.8913,616.0158 289.2422,611.8342 292.8154,606.9571 296.9553,602.567 311.8632,592.2457 314.144,590.2622 320.4356,583.7362 322.8316,581.8944 330.7828,577.5546 344.5888,571.3996 353.0457,568.1229 346.0969,571.0986"/>
    <polygon points="352.3117,568.3038 352.4799,567.6217 353.1368,567.3725 353.8016,568.1229 353.1368,568.8733"/>
    <polygon points="318.7159,568.3038 318.884,567.6217 319.541,567.3725 320.2058,568.1229 319.541,568.8733"/>
    <polyline points="311.8933,568.3169 319.4499,568.1229 307.3856,568.9259 304.3656,568.8354 298.4393,567.6624 292.7112,565.7459 290.0478,564.3199 287.6128,562.5317 285.4516,560.4208 281.9027,555.5325 278.7683,550.3613 273.5439,539.4637 266.3492,526.1732 263.151,521.0444 259.5488,516.1879 258.0183,513.5837 256.8875,510.7814 254.0047,502.1816 252.8123,496.2601 252.3227,490.2354 252.7026,478.1561 251.9197,469.1204 251.3785,466.1469 250.467,463.267 249.1047,460.5713 245.4171,455.7903"/>
    <polyline points="274.273,417.3358 278.7575,428.565 281.616,433.8897 288.3796,443.9107 292.1915,448.6023 294.372,450.6939 299.413,454.0158 310.0169,459.8264 320.862,465.175 329.1926,468.7611 331.8467,470.2053 334.2608,472.0208 336.4024,474.1528 340.0157,478.9923 344.403,486.9291 346.0991,489.4299 350.3745,493.6877 357.6437,499.1012 360.3128,500.5189 365.9395,502.7244 368.8565,503.5146 371.8554,503.8673 377.8411,503.1271 386.6415,500.9313 379.2597,502.5588"/>
    <polygon points="386.7326,500.1809 387.3974,500.9313 386.7326,501.6817 385.9075,501.1122 386.0757,500.4301"/>
    <polygon points="385.9075,467.5164 386.0757,466.8343 386.7326,466.5851 387.3974,467.3355 386.7326,468.0859"/>
    <polyline points="379.5493,464.72 386.6415,467.3355 383.9219,466.0258 381.5505,464.1601 379.5959,461.8579 373.4016,451.4777 371.6056,449.0465 367.5081,444.604 363.1283,440.435 355.4689,431.0916 349.2437,424.4964 342.1018,418.9182 339.9616,416.7833 333.6595,410.2618 329.868,405.5519 327.7402,403.4067 313.0913,392.7282 308.6217,388.6613 302.8952,381.6356 298.2697,377.7487 293.3626,374.2171 288.0486,371.3446 285.231,370.25 276.4289,368.0946"/>
    <polyline points="259.9749,366.9049 271.5873,363.5387 277.5898,362.9153 280.6059,363.1085 286.54,364.2415 292.2827,366.1303 297.8484,368.4853 300.4278,370.0576 302.6957,372.0502 304.5668,374.4214 306.1236,377.0119 309.9362,385.237 311.6546,387.7201 313.7336,389.913 318.3621,393.8003 328.1645,400.8841 337.2076,408.9 342.3389,412.0856 345.1187,413.2693 348.0355,414.0575 354.0375,414.7332 360.0536,414.2777 362.9603,413.4542 365.7357,412.2588 379.0156,405.0424 386.6415,400.1439 380.6844,404.7972"/>
    <polygon points="386.7326,399.3935 387.3974,400.1439 386.7326,400.8943 385.9075,400.3248 386.0757,399.6426"/>
    <polygon points="353.1368,400.8943 352.3117,400.3248 352.4799,399.6426 353.1368,399.3935 353.8016,400.1439"/>
    <polyline points="346.5854,404.0688 353.0457,400.1439 350.4318,401.663 347.65,402.8335 344.664,403.2322 341.6875,402.7583 338.9069,401.5836 333.916,398.1831 329.4633,394.0995 325.6805,389.3858 322.4377,384.2898 320.2724,378.6535 319.7066,375.6864 319.7953,369.6507 321.0878,357.629 319.8019,342.577 318.9933,339.6701 317.5027,337.0484 313.2546,332.7651 310.8062,330.9941 308.1399,329.5736 305.3156,328.4978 293.7319,325.0249 287.7763,324.0122 284.7563,323.8941 281.7433,324.1206 278.7993,324.7938 276.0176,325.9696 265.7656,332.381 261.0422,336.1365"/>
    <polyline points="258.2634,368.4252 270.2433,366.7924 276.2789,366.9787 285.1391,368.8689 287.9885,369.8782 293.4353,372.494 298.4429,375.8755 303.005,379.8368 308.3784,387.129 312.632,391.4122 317.3641,395.1751 327.2842,402.0904 329.5587,404.0803 335.6875,410.7604 342.6499,416.5686 345.2461,418.1125 353.5671,421.716 361.6699,425.7928 369.3941,430.5416 374.8669,433.1041 377.7329,434.0626 380.7073,434.5829 383.7239,434.5056 386.6415,433.7397 379.6199,436.5393"/>
    <polygon points="386.0757,433.2384 386.7326,432.9893 387.3974,433.7397 386.7326,434.4901 385.9075,433.9206"/>
    <polygon points="353.1368,434.4901 352.3117,433.9206 352.4799,433.2384 353.1368,432.9893 353.8016,433.7397"/>
    <polyline points="350.6588,460.1632 353.0457,467.3355 351.8751,464.551 347.3465,456.6925 342.1412,449.27 337.4353,441.52 324.849,424.507 317.2843,415.0733 303.3951,395.2804 293.5903,383.7748 289.335,379.4863 284.3933,376.0175 281.6866,374.6724 276.0474,372.4918 270.2687,370.7274 264.2785,369.9414 258.2345,369.8522 252.2212,370.4569 249.2652,371.0864"/>
    <polyline points="310.4291,389.9429 317.4481,395.6811 327.3629,402.6012 329.5867,404.6471 335.5746,411.4531 342.2559,417.5863 352.5416,423.9125 367.1335,434.6691 377.789,440.3855 380.607,441.4757 383.5601,442.1041 386.5786,442.1584 389.5386,441.5778 392.2446,440.2504 394.5471,438.2984 400.8933,431.8292 408.2411,426.5175 412.4625,422.2003 416.0223,417.3155 418.9564,412.0388 419.8789,409.1624 420.3688,406.1816 420.2373,400.1439 420.8439,407.6786"/>
    <polygon points="420.9932,400.1439 420.3284,400.8943 419.5033,400.3248 419.6715,399.6426 420.3284,399.3935"/>
    <polygon points="419.6715,433.2384 420.3284,432.9893 420.9932,433.7397 420.3284,434.4901 419.5033,433.9206"/>
    <polygon points="352.4799,466.8343 353.1368,466.5851 353.8016,467.3355 353.1368,468.0859 352.3117,467.5164"/>
    <polygon points="352.4799,500.4301 353.1368,500.1809 353.8016,500.9313 353.1368,501.6817 352.3117,501.1122"/>
    <polygon points="387.3974,534.5271 386.7326,535.2775 385.9075,534.708 386.3734,533.8203 387.0709,533.905"/>
    <polyline points="416.71,541.2127 420.2373,534.5271 417.4419,539.8859 415.5984,542.2776 413.3927,544.3421 408.4336,547.7943 389.9361,558.0727 385.079,561.6626 382.9518,563.8089 379.507,568.7647 374.0083,579.5299 372.2629,581.997 364.4675,591.24 360.1149,595.4214 349.8183,601.7459 347.4139,603.5774 343.1187,607.8255 337.4175,614.8769 334.1798,619.9788 325.84,636.0881 324.5739,638.8328 323.0035,644.6606"/>
    <polygon points="353.1368,636.0649 352.3117,635.4954 352.4799,634.8133 353.1368,634.5641 353.8016,635.3145"/>
    <polygon points="353.1368,669.6607 352.3117,669.0912 352.4799,668.4091 353.1368,668.1599 353.8016,668.9103"/>
    <polygon points="352.3117,702.687 352.7776,701.7993 353.4751,701.884 353.8016,702.5061 353.1368,703.2565"/>
    <polygon points="386.7326,668.1599 387.3974,668.9103 386.7326,669.6607 385.9075,669.0912 386.0757,668.4091"/>
    <polygon points="420.3284,636.0649 419.5033,635.4954 419.6715,634.8133 420.3284,634.5641 420.9932,635.3145"/>
    <polygon points="420.9932,601.7187 420.3284,602.4691 419.5033,601.8996 419.6715,601.2175 420.3284,600.9683"/>
    <polygon points="420.9932,568.1229 420.3284,568.8733 419.5033,568.3038 419.6715,567.6217 420.3284,567.3725"/>
    <polygon points="419.9692,533.8203 420.6667,533.905 420.9932,534.5271 420.3284,535.2775 419.5033,534.708"/>
    <polygon points="520.2907,501.1122 520.4589,500.4301 521.1158,500.1809 521.7806,500.9313 521.1158,501.6817"/>
    <polygon points="554.0547,466.8343 554.7116,466.5851 555.3764,467.3355 554.7116,468.0859 553.8865,467.5164"/>
    <polygon points="588.3074,434.4901 587.4823,433.9206 587.6505,433.2384 588.3074,432.9893 588.9722,433.7397"/>
    <polygon points="621.9032,432.9893 622.568,433.7397 621.9032,434.4901 621.0781,433.9206 621.2463,433.2384"/>
    <polygon points="622.568,500.9313 621.9032,501.6817 621.0781,501.1122 621.2463,500.4301 621.9032,500.1809"/>
    <polygon points="621.9032,535.2775 621.0781,534.708 621.544,533.8203 622.2415,533.905 622.568,534.5271"/>
    <polygon points="622.568,568.1229 621.9032,568.8733 621.0781,568.3038 621.2463,567.6217 621.9032,567.3725"/>
    <polygon points="588.9722,601.7187 588.3074,602.4691 587.4823,601.8996 587.6505,601.2175 588.3074,600.9683"/>
    <polygon points="621.9032,634.5641 622.568,635.3145 621.9032,636.0649 621.0781,635.4954 621.2463,634.8133"/>
    <polygon points="588.3074,668.1599 588.9722,668.9103 588.3074,669.6607 587.4823,669.0912 587.6505,668.4091"/>
    <polygon points="487.8583,701.884 488.1848,702.5061 487.52,703.2565 486.6949,702.687 487.1608,701.7993"/>
  </g>
</svg>
