<?xml version="1.0" encoding="utf-8" ?>
<svg xmlns="http://www.w3.org/2000/svg" xmlns:cc="http://creativecommons.org/ns#" xmlns:dc="http://purl.org/dc/elements/1.1/" xmlns:ev="http://www.w3.org/2001/xml-events" xmlns:inkscape="http://www.inkscape.org/namespaces/inkscape" xmlns:rdf="http://www.w3.org/1999/02/22-rdf-syntax-ns#" xmlns:sodipodi="http://sodipodi.sourceforge.net/DTD/sodipodi-0.dtd" xmlns:xlink="http://www.w3.org/1999/xlink" baseProfile="tiny" height="29.7cm" version="1.2" viewBox="0 0 793.7007874015749 1122.5196850393702" width="21.0cm">
  <metadata>
    <rdf:RDF>
      <cc:Work>
        <dc:format>image/svg+xml</dc:format>
        <dc:source/>
        <dc:date>2022-01-28T21:07:10.556702</dc:date>
      </cc:Work>
    </rdf:RDF>
  </metadata>
  <defs/>
  <g fill="none" id="layer1" inkscape:groupmode="layer" inkscape:label="1" stroke="#00f" style="display:inline">
    <line x1="247.9173" x2="245.6693" y1="577.2714" y2="582.8571"/>
    <line x1="250.3636" x2="245.6693" y1="596.5271" y2="604.4544"/>
    <line x1="252.8099" x2="245.6693" y1="615.7872" y2="626.0517"/>
    <line x1="255.2565" x2="245.6693" y1="635.0514" y2="647.649"/>
    <line x1="257.7031" x2="245.6693" y1="654.3195" y2="669.2463"/>
    <line x1="260.1499" x2="245.6693" y1="673.5912" y2="690.8436"/>
    <polyline points="262.5968,692.8664 245.6693,712.4409 548.0315,712.4409 548.0315,410.0787 531.104,429.6533"/>
    <line x1="526.4342" x2="511.8206" y1="431.676" y2="446.6933"/>
    <line x1="504.8369" x2="492.525" y1="453.2733" y2="463.6209"/>
    <line x1="483.2396" x2="470.8136" y1="453.2733" y2="461.846"/>
    <line x1="461.6423" x2="449.1706" y1="453.2733" y2="461.2314"/>
    <line x1="440.045" x2="427.6104" y1="453.2733" y2="461.9682"/>
    <line x1="418.4477" x2="406.1211" y1="453.2733" y2="463.8184"/>
    <line x1="396.8504" x2="384.6684" y1="453.2733" y2="466.1952"/>
    <line x1="375.2531" x2="365.6444" y1="474.8706" y2="487.3997"/>
    <line x1="375.2531" x2="368.0821" y1="496.4679" y2="506.4474"/>
    <line x1="375.2531" x2="370.5196" y1="518.0652" y2="525.491"/>
    <line x1="375.2531" x2="372.9571" y1="539.6625" y2="544.5306"/>
    <line x1="375.2531" x2="375.3944" y1="561.2598" y2="563.5666"/>
    <line x1="377.8316" x2="375.2531" y1="582.5993" y2="582.8571"/>
    <line x1="356.3333" x2="353.6558" y1="584.2367" y2="582.8571"/>
    <line x1="353.8936" x2="353.6558" y1="565.1444" y2="561.2598"/>
    <line x1="351.4538" x2="353.6558" y1="546.0464" y2="539.6625"/>
    <line x1="349.0137" x2="353.6558" y1="526.9426" y2="518.0652"/>
    <line x1="346.5735" x2="353.6558" y1="507.8328" y2="496.4679"/>
    <line x1="344.1331" x2="353.6558" y1="488.717" y2="474.8706"/>
    <line x1="363.2066" x2="375.2531" y1="468.3477" y2="453.2733"/>
    <line x1="382.232" x2="396.8504" y1="447.1789" y2="431.676"/>
    <line x1="401.2476" x2="418.4477" y1="425.7806" y2="410.0787"/>
    <line x1="422.7328" x2="440.045" y1="423.8409" y2="410.0787"/>
    <line x1="444.2868" x2="461.6423" y1="422.9565" y2="410.0787"/>
    <line x1="465.9234" x2="483.2396" y1="423.4119" y2="410.0787"/>
    <polyline points="487.6303,425.0666 496.0091,418.0207 504.8369,410.0787"/>
    <line x1="509.3725" x2="526.4342" y1="427.3951" y2="410.0787"/>
    <polyline points="548.0315,410.0787 245.6693,410.0787 245.6693,712.4409"/>
    <line x1="267.2666" x2="284.3282" y1="712.4409" y2="695.1246"/>
    <line x1="288.8639" x2="303.6232" y1="690.8436" y2="678.1777"/>
    <line x1="310.4612" x2="322.8872" y1="669.2463" y2="660.6736"/>
    <line x1="332.0585" x2="344.5302" y1="669.2463" y2="661.2883"/>
    <line x1="353.6558" x2="366.0904" y1="669.2463" y2="660.5515"/>
    <line x1="375.2531" x2="387.5797" y1="669.2463" y2="658.7012"/>
    <line x1="396.8504" x2="409.0323" y1="669.2463" y2="656.3245"/>
    <line x1="418.4477" x2="428.0564" y1="647.649" y2="635.1199"/>
    <line x1="418.4477" x2="425.6187" y1="626.0517" y2="616.0723"/>
    <line x1="418.4477" x2="423.1812" y1="604.4544" y2="597.0287"/>
    <line x1="418.4477" x2="420.7437" y1="582.8571" y2="577.9891"/>
    <line x1="418.4477" x2="418.3064" y1="561.2598" y2="558.9531"/>
    <line x1="415.8691" x2="418.4477" y1="539.9204" y2="539.6625"/>
    <line x1="437.3675" x2="440.045" y1="538.283" y2="539.6625"/>
    <line x1="439.8071" x2="440.045" y1="557.3753" y2="561.2598"/>
    <line x1="442.247" x2="440.045" y1="576.4732" y2="582.8571"/>
    <line x1="444.687" x2="440.045" y1="595.5771" y2="604.4544"/>
    <line x1="447.1273" x2="440.045" y1="614.6869" y2="626.0517"/>
    <line x1="449.5677" x2="440.045" y1="633.8027" y2="647.649"/>
    <line x1="430.4942" x2="418.4477" y1="654.172" y2="669.2463"/>
    <line x1="411.4688" x2="396.8504" y1="675.3408" y2="690.8436"/>
    <line x1="392.4532" x2="375.2531" y1="696.7391" y2="712.4409"/>
    <line x1="370.968" x2="353.6558" y1="698.6788" y2="712.4409"/>
    <line x1="349.414" x2="332.0585" y1="699.5632" y2="712.4409"/>
    <line x1="327.7774" x2="310.4612" y1="699.1078" y2="712.4409"/>
    <polyline points="306.0705,697.4531 297.6917,704.499 288.8639,712.4409"/>
    <line x1="267.2666" x2="281.8802" y1="690.8436" y2="675.8264"/>
    <line x1="288.8639" x2="301.1757" y1="669.2463" y2="658.8988"/>
    <line x1="310.4612" x2="320.4418" y1="647.649" y2="641.448"/>
    <line x1="332.0585" x2="342.088" y1="647.649" y2="642.1415"/>
    <line x1="353.6558" x2="363.6514" y1="647.649" y2="641.4806"/>
    <line x1="375.2531" x2="385.1428" y1="647.649" y2="639.6795"/>
    <line x1="396.8504" x2="406.5959" y1="647.649" y2="637.3097"/>
    <line x1="396.8504" x2="404.1595" y1="626.0517" y2="618.2962"/>
    <line x1="396.8504" x2="401.7231" y1="604.4544" y2="599.2836"/>
    <line x1="396.8504" x2="399.2868" y1="582.8571" y2="580.2716"/>
    <line x1="396.8504" x2="396.8504" y1="561.2598" y2="561.2598"/>
    <line x1="394.414" x2="396.8504" y1="542.2481" y2="539.6625"/>
    <line x1="391.9777" x2="396.8504" y1="523.2361" y2="518.0652"/>
    <line x1="389.5413" x2="396.8504" y1="504.2235" y2="496.4679"/>
    <line x1="387.1049" x2="396.8504" y1="485.2099" y2="474.8706"/>
    <line x1="408.558" x2="418.4477" y1="482.8402" y2="474.8706"/>
    <line x1="430.0494" x2="440.045" y1="481.0391" y2="474.8706"/>
    <line x1="451.6128" x2="461.6423" y1="480.3782" y2="474.8706"/>
    <line x1="473.259" x2="483.2396" y1="481.0717" y2="474.8706"/>
    <line x1="494.9726" x2="504.8369" y1="482.9029" y2="474.8706"/>
    <line x1="514.2686" x2="526.4342" y1="465.9915" y2="453.2733"/>
    <line x1="533.5509" x2="548.0315" y1="448.9285" y2="431.676"/>
    <line x1="548.0315" x2="535.9977" y1="453.2733" y2="468.2002"/>
    <line x1="526.4342" x2="516.7166" y1="474.8706" y2="485.2895"/>
    <line x1="526.4342" x2="519.1646" y1="496.4679" y2="504.5868"/>
    <line x1="526.4342" x2="521.6125" y1="518.0652" y2="523.8833"/>
    <line x1="526.4342" x2="524.0605" y1="539.6625" y2="543.1786"/>
    <line x1="526.4342" x2="526.5083" y1="561.2598" y2="562.4724"/>
    <line x1="528.9561" x2="526.4342" y1="581.7644" y2="582.8571"/>
    <line x1="531.4039" x2="526.4342" y1="601.0543" y2="604.4544"/>
    <line x1="533.8515" x2="526.4342" y1="620.3418" y2="626.0517"/>
    <line x1="514.5551" x2="504.8369" y1="637.2409" y2="647.649"/>
    <line x1="495.2739" x2="483.2396" y1="654.3278" y2="669.2463"/>
    <line x1="476.045" x2="461.6423" y1="672.1894" y2="690.8436"/>
    <line x1="456.89" x2="440.045" y1="691.1871" y2="712.4409"/>
    <line x1="435.3703" x2="418.4477" y1="692.2899" y2="712.4409"/>
    <line x1="413.9053" x2="396.8504" y1="694.3589" y2="712.4409"/>
    <line x1="375.2531" x2="390.0165" y1="690.8436" y2="677.721"/>
    <line x1="368.5292" x2="353.6558" y1="679.6175" y2="690.8436"/>
    <line x1="346.9722" x2="332.0585" y1="680.4288" y2="690.8436"/>
    <line x1="325.3324" x2="310.4612" y1="679.8936" y2="690.8436"/>
    <line x1="279.4322" x2="267.2666" y1="656.5282" y2="669.2463"/>
    <line x1="267.2666" x2="276.9842" y1="647.649" y2="637.2302"/>
    <line x1="267.2666" x2="274.5362" y1="626.0517" y2="617.9329"/>
    <line x1="267.2666" x2="272.0882" y1="604.4544" y2="598.6364"/>
    <line x1="267.2666" x2="269.6403" y1="582.8571" y2="579.3411"/>
    <line x1="267.2666" x2="267.1925" y1="561.2598" y2="560.0473"/>
    <line x1="264.7447" x2="267.2666" y1="540.7553" y2="539.6625"/>
    <line x1="262.2969" x2="267.2666" y1="521.4654" y2="518.0652"/>
    <line x1="259.8492" x2="267.2666" y1="502.1779" y2="496.4679"/>
    <line x1="279.1457" x2="288.8639" y1="485.2788" y2="474.8706"/>
    <line x1="298.4269" x2="310.4612" y1="468.1919" y2="453.2733"/>
    <line x1="317.6558" x2="332.0585" y1="450.3303" y2="431.676"/>
    <line x1="336.8108" x2="353.6558" y1="431.3326" y2="410.0787"/>
    <line x1="358.3305" x2="375.2531" y1="430.2298" y2="410.0787"/>
    <line x1="379.7955" x2="396.8504" y1="428.1608" y2="410.0787"/>
    <line x1="375.2531" x2="360.7686" y1="431.676" y2="449.2911"/>
    <line x1="353.6558" x2="341.6925" y1="453.2733" y2="469.5951"/>
    <line x1="332.0585" x2="322.5437" y1="474.8706" y2="488.7413"/>
    <line x1="332.0585" x2="324.9874" y1="496.4679" y2="507.9379"/>
    <line x1="332.0585" x2="327.4309" y1="518.0652" y2="527.1285"/>
    <line x1="332.0585" x2="329.8743" y1="539.6625" y2="546.313"/>
    <line x1="332.0585" x2="332.3174" y1="561.2598" y2="565.4912"/>
    <line x1="332.0585" x2="334.7604" y1="582.8571" y2="584.6632"/>
    <line x1="337.2031" x2="332.0585" y1="603.8289" y2="604.4544"/>
    <line x1="315.5507" x2="310.4612" y1="602.9805" y2="604.4544"/>
    <line x1="293.8329" x2="288.8639" y1="601.0441" y2="604.4544"/>
    <line x1="296.2806" x2="288.8639" y1="620.3317" y2="626.0517"/>
    <line x1="298.7282" x2="288.8639" y1="639.6167" y2="647.649"/>
    <line x1="310.4612" x2="317.9963" y1="626.0517" y2="622.2169"/>
    <line x1="332.0585" x2="339.6457" y1="626.0517" y2="622.9883"/>
    <line x1="353.6558" x2="361.2122" y1="626.0517" y2="622.4046"/>
    <line x1="375.2531" x2="382.7058" y1="626.0517" y2="620.6554"/>
    <line x1="375.2531" x2="380.2688" y1="604.4544" y2="601.6288"/>
    <line x1="358.7728" x2="353.6558" y1="603.3234" y2="604.4544"/>
    <line x1="313.1048" x2="310.4612" y1="583.7389" y2="582.8571"/>
    <line x1="310.6589" x2="310.4612" y1="564.4923" y2="561.2598"/>
    <line x1="308.2127" x2="310.4612" y1="545.2409" y2="539.6625"/>
    <line x1="305.7665" x2="310.4612" y1="525.985" y2="518.0652"/>
    <line x1="303.3201" x2="310.4612" y1="506.7247" y2="496.4679"/>
    <line x1="300.8735" x2="310.4612" y1="487.4602" y2="474.8706"/>
    <line x1="320.0998" x2="332.0585" y1="469.5387" y2="453.2733"/>
    <line x1="339.2517" x2="353.6558" y1="450.4669" y2="431.676"/>
    <line x1="332.0585" x2="315.2115" y1="410.0787" y2="431.1161"/>
    <line x1="310.4612" x2="295.9801" y1="431.676" y2="448.92"/>
    <line x1="288.8639" x2="276.6976" y1="453.2733" y2="465.9808"/>
    <line x1="267.2666" x2="257.4016" y1="474.8706" y2="482.8931"/>
    <line x1="254.9541" x2="267.2666" y1="463.6112" y2="453.2733"/>
    <line x1="274.2496" x2="288.8639" y1="446.6826" y2="431.676"/>
    <line x1="293.5332" x2="310.4612" y1="429.6446" y2="410.0787"/>
    <line x1="288.8639" x2="271.8016" y1="410.0787" y2="427.3844"/>
    <line x1="267.2666" x2="252.5067" y1="431.676" y2="444.3325"/>
    <polyline points="250.0594,425.0573 258.4386,418.0156 267.2666,410.0787"/>
    <line x1="288.8639" x2="281.5936" y1="496.4679" y2="504.5762"/>
    <line x1="288.8639" x2="284.0416" y1="518.0652" y2="523.8727"/>
    <line x1="288.8639" x2="286.4895" y1="539.6625" y2="543.1681"/>
    <line x1="288.8639" x2="288.9374" y1="561.2598" y2="562.462"/>
    <line x1="291.3852" x2="288.8639" y1="581.7541" y2="582.8571"/>
    <line x1="413.432" x2="418.4477" y1="520.8909" y2="518.0652"/>
    <line x1="434.9279" x2="440.045" y1="519.1963" y2="518.0652"/>
    <line x1="456.4977" x2="461.6423" y1="518.6907" y2="518.0652"/>
    <line x1="478.1501" x2="483.2396" y1="519.5392" y2="518.0652"/>
    <line x1="499.8678" x2="504.8369" y1="521.4756" y2="518.0652"/>
    <line x1="497.4202" x2="504.8369" y1="502.1879" y2="496.4679"/>
    <line x1="483.2396" x2="475.7045" y1="496.4679" y2="500.3027"/>
    <line x1="461.6423" x2="454.0551" y1="496.4679" y2="499.5313"/>
    <line x1="440.045" x2="432.4886" y1="496.4679" y2="500.1151"/>
    <line x1="418.4477" x2="410.995" y1="496.4679" y2="501.8643"/>
    <line x1="403.6843" x2="418.4477" y1="444.7987" y2="431.676"/>
    <line x1="425.1715" x2="440.045" y1="442.9022" y2="431.676"/>
    <line x1="446.7286" x2="461.6423" y1="442.0909" y2="431.676"/>
    <line x1="468.3684" x2="483.2396" y1="442.6261" y2="431.676"/>
    <line x1="490.0776" x2="504.8369" y1="444.342" y2="431.676"/>
    <line x1="548.0315" x2="538.4443" y1="474.8706" y2="487.4683"/>
    <line x1="548.0315" x2="540.8908" y1="496.4679" y2="506.7325"/>
    <line x1="548.0315" x2="543.3372" y1="518.0652" y2="525.9926"/>
    <line x1="548.0315" x2="545.7835" y1="539.6625" y2="545.2483"/>
    <line x1="504.8369" x2="502.3156" y1="539.6625" y2="540.7656"/>
    <line x1="483.2396" x2="480.5959" y1="539.6625" y2="538.7808"/>
    <line x1="461.6423" x2="458.9404" y1="539.6625" y2="537.8565"/>
    <line x1="461.3834" x2="461.6423" y1="557.0285" y2="561.2598"/>
    <line x1="463.8265" x2="461.6423" y1="576.2067" y2="582.8571"/>
    <line x1="466.2698" x2="461.6423" y1="595.3912" y2="604.4544"/>
    <line x1="468.7134" x2="461.6423" y1="614.5817" y2="626.0517"/>
    <line x1="471.1571" x2="461.6423" y1="633.7784" y2="647.649"/>
    <line x1="452.0083" x2="440.045" y1="652.9246" y2="669.2463"/>
    <line x1="432.9322" x2="418.4477" y1="673.2286" y2="690.8436"/>
    <line x1="440.045" x2="454.449" y1="690.8436" y2="672.0528"/>
    <line x1="461.6423" x2="473.6009" y1="669.2463" y2="652.981"/>
    <line x1="483.2396" x2="492.8272" y1="647.649" y2="635.0594"/>
    <line x1="483.2396" x2="490.3807" y1="626.0517" y2="615.795"/>
    <line x1="483.2396" x2="487.9343" y1="604.4544" y2="596.5347"/>
    <line x1="483.2396" x2="485.488" y1="582.8571" y2="577.2787"/>
    <line x1="483.2396" x2="483.0419" y1="561.2598" y2="558.0274"/>
    <line x1="504.7634" x2="504.8369" y1="560.0577" y2="561.2598"/>
    <line x1="507.2113" x2="504.8369" y1="579.3516" y2="582.8571"/>
    <line x1="509.6592" x2="504.8369" y1="598.647" y2="604.4544"/>
    <line x1="512.1071" x2="504.8369" y1="617.9435" y2="626.0517"/>
    <line x1="526.4342" x2="536.2991" y1="647.649" y2="639.6266"/>
    <line x1="538.7467" x2="526.4342" y1="658.9085" y2="669.2463"/>
    <line x1="519.4512" x2="504.8369" y1="675.8371" y2="690.8436"/>
    <line x1="500.1676" x2="483.2396" y1="692.8751" y2="712.4409"/>
    <line x1="478.4893" x2="461.6423" y1="691.4035" y2="712.4409"/>
    <line x1="483.2396" x2="497.7207" y1="690.8436" y2="673.5997"/>
    <line x1="504.8369" x2="517.0031" y1="669.2463" y2="656.5389"/>
    <line x1="541.1941" x2="526.4342" y1="678.1872" y2="690.8436"/>
    <line x1="521.8992" x2="504.8369" y1="695.1353" y2="712.4409"/>
    <polyline points="526.4342,712.4409 535.2621,704.5041 543.6414,697.4624"/>
  </g>
</svg>
