<?xml version="1.0" encoding="utf-8" ?>
<svg xmlns="http://www.w3.org/2000/svg" xmlns:cc="http://creativecommons.org/ns#" xmlns:dc="http://purl.org/dc/elements/1.1/" xmlns:ev="http://www.w3.org/2001/xml-events" xmlns:inkscape="http://www.inkscape.org/namespaces/inkscape" xmlns:rdf="http://www.w3.org/1999/02/22-rdf-syntax-ns#" xmlns:sodipodi="http://sodipodi.sourceforge.net/DTD/sodipodi-0.dtd" xmlns:xlink="http://www.w3.org/1999/xlink" baseProfile="tiny" height="29.7cm" version="1.2" viewBox="0 0 793.7007874015749 1122.5196850393702" width="21.0cm">
  <metadata>
    <rdf:RDF>
      <cc:Work>
        <dc:format>image/svg+xml</dc:format>
        <dc:source/>
        <dc:date>2022-02-07T22:15:06.195523</dc:date>
      </cc:Work>
    </rdf:RDF>
  </metadata>
  <defs/>
  <g fill="none" id="layer1" inkscape:groupmode="layer" inkscape:label="1" stroke="#00f" style="display:inline">
    <polyline points="294.3048,711.8275 304.1063,700.985 311.9229,691.5604 318.1986,683.2044 324.1342,674.2477 328.6939,666.1832 332.6451,657.6306 335.429,649.7858 337.2856,642.4915 338.3993,635.6367 338.949,628.2399 338.8545,620.3791 338.1022,612.1277 335.5615,597.6669 328.1155,565.9927 326.9156,559.356 326.2381,553.6012 326.1458,548.9789 326.6668,545.6776 327.3091,544.4809 328.0807,544.1698 328.901,544.8419 329.1967,546.0875 329.616,546.1464 329.9655,544.9197 329.8194,542.7686 328.1712,537.517 325.2431,532.7174 323.5095,530.8329 321.5988,529.3044 319.6008,528.2274 317.6156,527.6399 314.0676,527.7582 312.3006,528.3976 310.4556,529.5139 306.9987,533.0152 303.8709,538.1298 300.4129,546.6714 297.4534,557.169 294.9141,568.8606 289.1681,599.8639 285.7378,616.4282 281.9202,631.8306 276.7577,648.8094 271.2531,663.6705 264.0761,679.8684 254.6607,697.7061 245.6693,712.4409 245.6693,410.0787 254.4209,412.3732 262.5382,415.4738 270.0356,419.178 276.9357,423.3195 283.2671,427.7629 291.7687,434.7623 299.1788,441.9241 305.6135,449.0563 311.1839,456.0295 317.4438,464.94 322.5671,473.3093 327.6546,482.9401 332.218,493.2711 335.4813,502.333 338.0553,511.4499 339.8103,520.1845 340.6014,526.556 340.9064,532.5988 340.7232,538.0587 340.0191,543.1437 338.8116,547.354 337.2163,550.3599 335.3064,552.0821 333.2407,552.3757 331.6677,551.6147 330.2431,550.0536 329.156,547.8419 328.8425,545.8581 329.0421,545.6235 328.8483,546.2938 329.1909,547.8063 330.2679,549.8949 331.6573,551.3118 333.176,551.9226 334.5779,551.7311 335.9364,550.8031 337.1442,549.2093 338.2194,546.8944 339.524,541.6026 340.0515,535.0942 339.7693,527.5654 338.7156,519.6858 335.828,507.4729 331.4559,494.9523 325.2835,481.6323 318.6793,470.2275 311.4753,459.8685 302.3347,448.9381 293.3416,440.059 285.4618,433.5603 276.4983,427.4641 266.3605,422.1108 258.9137,419.177 254.9782,417.9627 246.6792,416.1626"/>
    <polyline points="245.6693,410.0787 548.0315,410.0787 548.0315,712.4409 245.6693,712.4409"/>
    <polyline points="248.0629,709.653 256.6732,695.2707 265.7046,677.8199 272.5996,661.9433 277.8947,647.3581 281.9925,633.8864 285.8952,618.4484 289.377,601.8223 296.8688,561.8527 299.3646,551.6708 302.3159,542.7075 305.745,535.6139 307.6613,532.8439 309.93,530.4496 312.1281,528.9129 314.5597,527.9983 316.8117,527.8212 319.1351,528.2825 321.1774,529.2329 323.3389,530.8391 325.2474,532.8618 326.8363,535.117 328.3006,537.9136 329.3866,540.9338 329.9251,543.7726 329.8043,545.7905 329.4567,546.2166 329.0967,545.8958 329.4617,546.017 329.6881,545.2929 329.4033,542.7169 328.4297,539.9176 327.0181,537.3798 324.153,534.2816 322.4981,533.2848 320.9647,532.787 318.0925,532.9144 315.3565,534.4081 312.7245,537.3694 310.3401,541.7568 307.7939,549.0154 305.6698,558.0801 303.9049,568.4012 299.7988,598.0666 297.2858,613.5047 293.5826,630.948 289.7788,644.7437 286.851,653.6174 283.3102,662.9924 275.6797,679.9144 267.5524,694.8843 257.0167,711.5152"/>
    <polyline points="256.644,710.2834 267.0856,693.4987 275.1272,678.3743 282.6643,661.266 288.1427,645.7511 292.1379,631.566 296.0313,613.661 298.6835,597.8472 302.828,569.0663 304.9491,557.1427 307.2127,548.0209 309.6316,541.3856 312.1336,536.862 314.8892,533.8331 317.7467,532.3359 320.7377,532.2611 323.887,533.7509 326.7116,536.7046 328.2776,539.3926 329.3725,542.3992 329.7235,545.1727 329.5275,545.9696 329.2572,546.0725 329.0795,545.7306 329.1198,546.0495 329.7369,546.5124 330.2977,545.7206 330.4812,542.7869 329.7695,538.6916 328.3567,534.4793 326.3644,530.386 323.9927,526.7659 321.35,523.7104 318.3648,521.1645 315.1788,519.3194 311.4696,518.1894 307.804,518.1149 304.3779,519.0119 300.7334,521.0783 297.5721,523.9125 294.3413,527.96 291.0828,533.4158 288.4797,538.9234 284.5992,549.3032 281.363,560.0645 269.3568,608.7166 262.621,632.9539 254.8165,655.9446 246.3432,676.4433"/>
    <polyline points="247.5025,675.7934 251.9563,665.4327 257.5655,650.8182 264.7586,628.645 270.1178,608.9236 280.6134,565.5608 284.4346,552.0014 288.8639,539.6625 291.4131,534.1507 293.9688,529.6493 298.4057,523.9163 300.8851,521.6986 303.2977,520.1316 305.6253,519.125 308.3922,518.5278 310.9804,518.5276 313.376,518.9953 316.7938,520.4472 320.3581,523.0141 323.442,526.2641 326.1209,530.145 328.3918,534.7301 329.9431,539.5785 330.4386,542.6302 330.4096,545.1054 329.8208,546.4582 329.3937,546.4224 329.0182,545.8715 329.3886,546.892 330.0917,547.4967 331.0077,547.2839 331.7696,546.0229 332.2336,543.9457 332.3694,541.1068 332.0719,537.26 331.251,532.7904 329.9306,528.0596 328.2496,523.492 323.743,514.5119 321.1522,510.5208 317.9945,506.4011 312.007,500.2732 308.7989,497.7272 305.222,495.4155 301.259,493.4584 298.0267,492.3123 294.5704,491.5255 290.8929,491.1855 287.0018,491.3927 284.295,491.8901 278.6343,493.9132 272.6895,497.5773 266.526,503.2309 260.2127,511.2374 255.4135,519.0027 250.5704,528.4353 245.6693,539.6625"/>
    <polyline points="245.866,551.5791 251.9803,535.8807 256.4811,526.0948 262.4216,515.4994 268.2885,507.4426 274.0382,501.6099 276.8503,499.4265 280.968,496.9552 284.9436,495.3335 288.7561,494.4395 292.3889,494.1606 295.8302,494.3952 300.1083,495.3515 304.026,496.8751 307.5868,498.8126 311.5532,501.6283 315.0126,504.7064 318.552,508.5492 321.9344,513.0257 324.6266,517.3297 327.2523,522.4498 329.4597,527.9469 331.0317,533.3228 331.9041,538.12 332.1074,543.0422 331.4156,546.4022 330.8439,547.1996 330.1736,547.4113 329.3171,546.7315 328.8901,545.2863 328.512,545.3231 328.2294,545.9596 328.1956,548.4903 328.8604,551.9688 330.3625,556.473 332.5549,561.1155 335.243,565.3871 338.1087,568.8323 341.2929,571.6185 344.6841,573.5436 347.8962,574.4523 351.3702,574.4692 354.7616,573.5159 357.9875,571.6819 360.9733,569.1028 363.9899,565.4948 367.291,560.0596 370.0955,553.6267 372.3146,546.4161 373.8987,538.7029 374.8529,530.8264 375.2697,521.5312 375.0485,512.4745 374.123,501.9716 372.713,492.3212 370.5263,481.3454 367.3361,468.7947 364.1044,458.1656 356.6041,437.6689 350.4489,423.3979 345.4629,412.9315"/>
    <polyline points="344.178,411.3301 349.2868,421.8923 355.5964,436.2964 360.5776,449.1637 365.5985,464.2632 369.1866,477.372 371.6809,488.817 373.635,501.1836 374.7241,513.7065 374.8354,524.1991 374.2571,533.0549 372.9768,541.7046 370.9822,549.7857 368.3249,557.013 365.1029,563.1655 361.441,568.0734 357.4747,571.6109 355.221,572.9374 353.0303,573.7939 350.6169,574.2634 348.3103,574.2568 346.1188,573.8386 343.7986,572.9514 339.4344,569.9779 335.0121,564.9703 331.2072,558.3696 329.4094,553.791 328.3519,549.5637 328.2157,546.0529 328.616,545.2532 329.1058,545.6203 328.6526,545.1694 328.2093,545.7166 328.0148,547.4471 328.2641,550.0157 329.9664,556.3155 332.8001,562.7222 336.5505,568.7254 340.4141,573.1752 344.5127,576.4182 348.5994,578.3214 352.7821,578.9794 355.6442,578.6942 358.2913,577.8953 361.0236,576.516 363.8241,574.484 366.3116,572.1052 368.8095,569.0972 371.2852,565.3808 373.3561,561.5586 376.891,552.7509 379.3165,543.4209 380.989,531.613 381.4533,520.2105 380.9691,508.4418 379.6832,496.8616 377.2871,483.2674 374.2936,470.6082 370.0211,456.0091 365.7311,443.5414 360.2529,429.5422 353.2777,413.7689"/>
    <polyline points="353.8936,415.3937 360.7089,430.9742 366.0611,444.8079 370.251,457.1334 374.4199,471.5734 377.3351,484.1014 379.6587,497.5624 381.0344,511.1262 381.3168,522.455 380.6911,533.4527 378.8873,544.859 376.3855,553.8778 372.8034,562.3858 370.721,566.0709 368.2406,569.6452 365.7451,572.5267 363.265,574.7918 360.8222,576.5045 358.0963,577.8559 355.4561,578.6295 352.6025,578.8896 348.4343,578.199 344.3645,576.2701 340.2866,573.0097 336.4477,568.5547 332.7286,562.5641 329.9275,556.1903 328.2359,549.8216 328.0165,547.2616 328.2545,545.5986 328.6923,545.1692 329.1091,545.6353 328.6274,545.2208 328.2066,545.9424 328.2601,549.3274 329.2278,553.5131 330.9382,558.1304 334.6313,564.943 336.8281,567.9325 339.1817,570.512 341.3774,572.4181 343.78,574.0023 346.1128,575.0697 348.3164,575.669 350.6366,575.8798 353.0666,575.6419 355.2757,575.0148 357.5536,573.9475 361.9245,570.6157 365.6883,566.1732 369.3802,559.9068 372.2027,553.1198 374.4063,545.5437 376.121,536.1713 376.9138,527.6871 377.0878,517.6597 376.3859,505.7238 374.8667,493.9662 372.8228,483.1063 369.8092,470.6879 365.5296,456.402 361.2494,444.2361 355.8027,430.6167 348.8934,415.3271"/>
    <polyline points="348.1859,414.7115 355.1656,430.0429 362.231,447.9217 368.3799,466.8416 372.3833,482.6917 375.2024,498.5246 376.5069,511.6284 376.6649,525.8398 375.4515,538.443 374.1191,545.2946 372.2235,552.0206 369.7679,558.3096 367.136,563.3478 364.0821,567.7557 360.6783,571.328 357.0126,573.8979 353.4921,575.2692 349.5719,575.6098 345.9489,574.8274 342.4091,573.0161 338.853,570.0753 336.5432,567.4866 334.2437,564.2726 330.5422,557.1425 329.1573,553.2325 328.3094,549.5952 328.1995,545.996 328.6422,545.22 329.1254,545.7197 328.6156,544.9999 328.1205,545.3151 327.7966,546.3299 327.8118,549.8772 328.4749,553.7292 329.721,558.2763 333.4161,567.5969 338.3138,576.5352 344.155,584.5351 350.1067,590.4852 353.0084,592.6662 356.0139,594.4464 359.1142,595.7798 361.981,596.5628 364.9183,596.9207 367.925,596.8252 371.3461,596.1525 374.8485,594.8429 378.0641,593.0809 381.3289,590.7244 384.6256,587.7236 387.5614,584.4646 390.4747,580.5889 393.3287,576.0206 397.704,566.8438 400.9367,556.9424 403.2167,545.6586 404.3937,532.9659 404.4225,520.8312 403.2789,506.0052 401.4267,493.2387 398.3464,478.0988 394.672,463.8205 389.5285,447.1126 382.3834,427.3612 375.2531,410.0787"/>
    <polyline points="374.6744,410.433 379.5985,422.1655 385.618,437.911 392.8738,460.0721 395.98,471.3809 399.043,484.5989 401.1507,496.061 402.5255,506.0861 403.4567,516.9709 403.7233,526.3698 403.391,536.0784 402.5318,544.4113 401.0463,552.7444 398.8977,560.8044 396.0933,568.3848 392.6764,575.3263 388.3508,581.989 383.5625,587.5121 378.4277,591.7917 373.4024,594.563 368.1888,596.0437 363.1712,596.1397 358.0433,594.8759 352.8627,592.1774 347.1734,587.5223 341.5512,581.0606 336.3996,573.2041 331.9523,564.2153 328.9843,555.704 327.724,548.6828 327.7908,546.4167 328.2517,545.1522 328.8901,545.1677 329.1961,546.2951 329.7441,546.7763 330.3005,546.528 330.7344,545.597 330.9855,542.6526 330.4994,538.6703 329.4707,534.6916 327.9603,530.6526 326.0181,526.6959 323.8422,523.1676 321.0171,519.5124 317.8653,516.3372 314.549,513.8184 311.2589,512.0434 307.5414,510.8399 304.1194,510.464 300.4181,510.8582 297.2746,511.876 293.9914,513.6565 291.4531,515.576 287.9918,519.0326 285.3556,522.3812 282.6992,526.4496 280.0332,531.301 275.5831,541.289 272.0066,551.1342 268.3664,562.7442 254.3471,613.5776 246.5184,638.8275"/>
    <polyline points="246.6106,633.24 252.8358,612.9076 266.3049,564.4854 271.963,546.8992 275.6614,537.4398 280.2691,527.9566 283.9408,522.071 288.475,516.5861 291.1424,514.1731 294.6081,511.8413 297.9421,510.3823 301.1191,509.6541 304.8408,509.577 308.2633,510.2214 311.9614,511.6884 315.2163,513.6704 318.4793,516.3708 321.9032,520.1107 324.8265,524.2634 327.34,528.9011 329.696,535.0429 330.9463,541.0859 331.0337,543.9463 330.6617,545.9802 329.8483,546.8189 329.2884,546.4579 329.0741,545.7198 329.0581,545.9745 329.858,546.9805 330.7569,546.3695 331.3734,542.9624 330.8693,537.8067 329.3929,532.1794 327.0576,526.4147 324.374,521.5042 320.9843,516.708 316.9777,512.3813 313.1319,509.2691 308.5811,506.6942 304.0924,505.2279 299.0641,504.8133 294.4874,505.5894 289.6037,507.7122 285.5169,510.6151 281.312,514.7992 278.1054,518.8995 273.7888,525.8115 270.5341,532.185 267.2666,539.6625 263.9743,548.3114 257.172,569.3453 246.6562,605.6245"/>
    <polyline points="245.6693,604.4544 256.3658,567.8646 263.3214,546.7504 266.6943,538.1035 270.0431,530.6516 273.378,524.3236 276.6967,519.0403 281.0766,513.4738 285.37,509.4044 289.5347,506.6234 294.5002,504.6543 299.1417,504.0265 304.2271,504.6049 308.7537,506.2152 313.3297,508.9319 317.1851,512.1588 320.7928,516.101 324.2712,521.006 327.0211,526.0271 329.2896,531.5626 330.8157,537.1451 331.422,542.1679 331.0059,545.9029 330.0916,547.0163 329.5363,546.8293 329.1125,546.1782 329.072,545.7192 329.3252,546.2892 329.7716,546.2671 330.1774,545.1767 329.8631,540.9873 328.4034,536.3446 326.0547,531.8091 324.0848,529.0859 321.7697,526.6631 319.5105,524.9271 316.862,523.566 314.2181,522.8762 311.7163,522.8255 309.478,523.2883 307.1173,524.3266 304.6567,526.0627 302.635,528.0433 300.5835,530.6274 298.519,533.8888 295.9439,539.0297 293.9029,544.0802 289.8822,556.955 286.8572,569.2483 276.9439,614.0833 273.2688,628.2003 268.6228,643.5898 264.272,656.039 258.9506,669.3542 252.3977,683.657 247.1844,693.8253"/>
    <polyline points="246.8614,694.6545 252.1283,684.4584 258.7476,670.1213 264.1216,656.7771 269.7973,640.3221 274.2057,625.2286 277.7124,611.3856 289.3631,559.299 292.3565,548.8537 295.3886,540.544 297.4359,536.0896 300.0084,531.6221 302.5686,528.2452 305.5793,525.431 308.4725,523.7419 311.2041,522.9569 314.1447,522.9226 317.146,523.7254 319.751,525.1244 322.2211,527.1132 324.6325,529.8008 326.604,532.7371 328.3785,536.307 329.6066,539.9268 330.2125,543.4559 330.0085,545.8697 329.5248,546.3691 329.0691,545.8173 329.3266,546.238 329.677,546.1952 330.0654,544.8824 329.4467,540.3533 328.2997,537.1181 326.6785,533.9678 324.9024,531.409 322.7535,529.0983 320.3044,527.2506 317.9791,526.1496 316.018,525.6786 313.8768,525.634 311.5699,526.149 309.5376,527.1164 307.4254,528.6796 305.2568,530.9472 301.7364,536.3284 297.8177,545.4861 294.4373,556.8802 291.5057,569.6648 282.756,612.6732 278.7807,628.756 274.6468,642.8548 269.3169,658.1605 262.364,674.8483 255.7475,688.4367 247.5842,703.1402"/>
    <polyline points="248.5326,705.4045 256.7936,690.9584 265.4473,673.3842 272.047,657.3676 277.1172,642.6476 281.0528,629.0618 284.8321,613.5279 295.7446,559.081 298.0696,550.2779 300.8561,542.1526 304.5348,534.7032 306.5859,531.8167 309.0097,529.3438 311.3531,527.7818 313.9389,526.8878 316.6502,526.8025 319.0682,527.4329 321.1811,528.5406 323.4028,530.3205 325.35,532.502 326.9581,534.893 328.4242,537.8185 329.4923,540.9389 329.9957,543.8336 329.8398,545.8287 329.4475,546.2502 329.0749,545.8136 329.2977,546.1336 329.5697,546.0479 329.8383,544.8805 329.2103,541.1135 328.2107,538.516 326.8505,536.0489 325.2564,533.9328 323.4942,532.2335 321.5243,530.9512 319.6836,530.2669 317.8821,530.0527 316.2048,530.2603 314.4189,530.9332 312.8619,531.9307 309.9544,534.9714 307.0066,540.0065 304.1337,547.5124 301.41,557.9371 299.3724,568.3032 294.1331,600.0969 291.3103,615.0806 288.1582,628.9225 283.903,644.0906 278.0664,660.748 271.8276,675.3336 263.7118,691.2921 253.1052,708.9947"/>
    <polyline points="254.1394,712.1607 264.977,694.8752 273.3022,679.33 279.7245,665.141 285.7467,648.9389 290.1315,634.163 294.3967,615.5478 297.2927,599.1309 302.2681,566.3074 305.0761,552.478 306.9835,545.8834 309.2678,540.1957 311.6049,536.2075 314.2051,533.3874 317.2072,531.7794 318.9616,531.535 320.57,531.7291 322.2165,532.3396 323.8212,533.356 326.8187,536.6131 328.7374,540.2581 329.7235,544.0774 329.5461,545.9825 329.1741,546.0083 328.784,545.0214 328.2743,544.9776 327.808,545.7258 327.558,547.2074 327.7834,551.324 328.9055,556.7728 332.3496,566.9277 337.5349,577.848 344.1751,588.6557 348.03,593.8552 351.7737,598.2785 355.5883,602.1918 359.4208,605.5328 363.2365,608.2642 366.7488,610.2379 369.9622,611.5739 372.8878,612.3882 376.0662,612.8299 378.9775,612.8263 382.1632,612.3768 385.1019,611.5545 391.059,608.7139 397.406,603.9657 403.5218,597.5474 408.705,590.2525 413.0935,581.9606 415.9198,574.7723 417.9993,567.6538 419.7065,559.1751 420.6867,551.0989 421.1466,542.7929 421.0879,532.9806 420.4645,523.0158 419.0989,511.1793 417.1743,499.4699 414.9334,488.5678 411.8614,475.9645 408.8511,465.1533 405.0649,452.9384 400.2955,439.0504 394.265,423.1561 389.3627,411.245"/>
    <polyline points="389.2058,412.1798 394.0459,423.9991 399.9992,439.779 404.7056,453.5749 408.4388,465.7155 412.2486,479.7799 415.0392,491.8647 417.4657,504.7562 419.0201,515.6979 420.0511,526.8239 420.4194,536.2447 420.1795,546.7826 419.3494,555.5645 417.9262,563.8697 415.7032,572.325 412.8734,579.9631 409.5038,586.8345 404.8243,594.1414 399.149,600.8286 392.8959,606.2223 386.7434,609.8016 383.714,610.951 380.7115,611.6849 377.7283,612.0081 374.7555,611.9231 371.7835,611.4311 368.8037,610.5327 362.7997,607.5228 359.224,604.9951 355.3675,601.6746 351.5394,597.7742 347.7922,593.3602 340.8211,583.4083 334.7085,572.2012 330.2231,561.1404 328.7278,556.0301 327.7917,551.3255 327.5394,547.7589 327.9092,545.4717 328.2896,544.9731 328.7207,544.979 329.2144,546.2547 329.7206,546.5811 330.1923,546.192 330.5057,545.2228 330.5849,542.579 330.058,539.1708 327.9347,532.8312 324.4974,526.6837 321.8931,523.3888 319.28,520.8462 316.5616,518.856 313.4128,517.2815 310.3632,516.4531 307.5796,516.2832 304.5895,516.736 301.4153,517.9754 298.7649,519.6566 296.7257,521.3869 293.9566,524.4062 291.8553,527.2654 287.6305,534.7154 283.4178,544.7716 280.6148,553.0823 277.7835,562.7709 266.2633,608.3362 260.4151,629.2742 254.3321,647.9593 246.3835,668.5623"/>
    <polyline points="245.6693,669.2463 253.7286,648.4715 259.8908,629.6384 265.81,608.5422 278.176,560.0953 281.7321,548.5743 285.9802,537.5247 288.8229,531.7024 292.3738,525.9816 295.8857,521.7896 299.3119,518.9071 303.2476,516.8784 306.9314,516.0917 310.8533,516.3505 314.3369,517.5064 317.7748,519.5334 320.9819,522.3102 323.8062,525.6221 326.3249,529.5224 328.4232,533.9054 329.9425,538.5882 330.6223,542.9482 330.3123,545.9662 329.6853,546.5899 329.0805,545.9491 329.0798,545.729 329.2932,546.3158 329.7462,546.4527 330.3039,545.4279 330.4302,543.4674 330.1352,540.9049 328.6892,535.8245 326.3993,530.9959 324.1305,527.5687 321.6136,524.6884 318.7809,522.2994 315.7668,520.5773 313.1876,519.7105 310.3378,519.3807 307.7674,519.6538 305.0368,520.5638 302.1711,522.2585 299.8027,524.2882 297.3877,527.013 294.9463,530.5245 291.8868,536.1599 289.4508,541.7734 284.6183,556.2887 280.939,570.3116 270.4215,614.41 263.5168,638.527 258.9864,651.8903 255.4203,661.3322 246.5969,681.6584"/>
    <polyline points="245.6693,690.8436 250.8262,680.4287 257.3007,665.7756 262.556,652.1376 266.8575,639.3981 270.4172,627.4792 274.3001,612.7773 283.7935,571.2347 287.6728,555.9154 292.0627,542.4909 294.2842,537.2715 296.5199,532.9518 298.7566,529.453 300.9773,526.6938 303.1636,524.5924 305.8212,522.7692 308.3668,521.7014 310.7758,521.2536 313.462,521.365 315.9083,522.0149 318.7871,523.4641 321.238,525.3283 323.7431,527.9363 326.0315,531.1288 328.4768,535.9574 329.9693,540.8518 330.2422,545.2641 329.7723,546.3513 329.3198,546.3119 329.0744,545.7223 329.0961,546.0887 329.9458,546.8823 330.777,545.9419 331.1621,542.2759 330.4395,537.1254 328.8586,531.8309 326.3852,526.2605 323.6093,521.611 320.1619,517.1782 316.1474,513.3143 312.3437,510.671 307.8967,508.6729 303.5625,507.7901 298.7639,508.0351 294.4447,509.4061 289.8837,512.1434 286.1018,515.5312 282.2402,520.1714 278.3332,526.2395 275.389,531.8305 272.4382,538.3883 266.4829,554.6416 262.3805,567.9589 251.766,605.6723 245.6693,626.0517"/>
    <polyline points="245.6693,647.649 250.9939,631.8514 255.4246,617.2405 269.2104,566.4956 274.43,549.5388 277.8393,540.3318 281.2412,532.685 284.6404,526.477 288.8619,520.5344 291.3605,517.8315 294.6258,515.1084 297.7889,513.2638 301.56,511.9925 305.0922,511.6515 308.3592,512.034 311.3473,512.9637 314.5613,514.5969 317.8123,516.9639 321.2592,520.3769 324.2381,524.2749 326.655,528.3656 329.2375,534.4416 330.716,540.5744 330.9155,543.5499 330.6454,545.6808 329.9134,546.7282 329.3316,546.4816 329.0706,545.7159 329.0663,546.0657 329.4461,546.811 329.9946,547.1601 330.5386,547.0168 331.0259,546.392 331.677,543.1234 331.3959,538.4604 330.2531,533.0972 328.389,527.6188 326.0278,522.4943 322.9498,517.2982 319.6799,512.9153 316.1132,509.0885 311.7924,505.5062 306.6397,502.513 301.5239,500.7897 296.767,500.2666 291.5846,500.902 287.1634,502.4922 282.536,505.2771 277.7474,509.4919 272.8466,515.3839 269.1248,521.0532 265.3784,527.9068 261.6103,536.039 257.8075,545.534 253.9342,556.4641 245.6693,582.8571"/>
    <polyline points="246.7871,567.3313 252.4513,550.4759 257.905,536.432 261.9356,527.6396 267.2666,518.0652 272.5401,510.7195 277.717,505.3345 282.745,501.6357 285.1865,500.3344 288.7414,498.9773 292.1522,498.2436 295.4053,498.0393 298.4908,498.2792 302.3341,499.1593 305.8629,500.5377 309.0798,502.2837 311.9937,504.2898 315.2309,507.0325 319.5531,511.6693 323.3207,516.8697 326.397,522.2847 329.0606,528.4565 330.9593,534.8925 331.8117,540.7006 331.7472,544.126 331.1109,546.5019 330.5444,547.1526 329.9255,547.2151 329.3098,546.6605 329.0163,545.7661 329.3831,546.9892 330.2405,547.7665 331.3281,547.503 332.2043,546.0134 332.7301,543.5803 332.8674,540.264 331.8712,532.3013 329.2419,523.3142 325.1839,514.2927 320.1042,506.0859 314.2599,498.9804 307.4693,492.8757 301.2344,488.8969 297.7206,487.269 293.9345,485.9882 289.8752,485.1527 287.0191,484.8987 280.9606,485.2905 274.4746,487.175 271.0896,488.799 267.6221,490.9482 262.2896,495.2799 256.8324,501.114 251.2846,508.6462 245.6693,518.0652"/>
    <polyline points="246.8765,521.9153 252.2463,512.374 257.5579,504.6596 262.7937,498.5994 266.2277,495.3893 269.6047,492.7803 272.9142,490.7189 276.1467,489.1535 282.3459,487.3128 288.1449,486.8902 294.7769,487.8709 298.415,489.0624 301.7967,490.5905 304.9263,492.3765 308.7201,495.046 315.1023,500.9288 320.6066,507.736 324.2764,513.5241 327.3136,519.4883 329.825,525.8411 331.6645,532.415 332.6319,538.9105 332.4683,544.3997 331.9443,546.3254 331.2009,547.4527 330.5133,547.7359 329.8146,547.4589 329.1963,546.6017 329.0294,545.6652 329.2036,547.1386 330.5742,549.0518 331.447,549.4445 332.3003,549.3778 333.8212,548.0137 335.0035,545.1007 335.5758,541.9096 335.7885,538.1538 335.1096,529.3171 332.9888,519.5097 329.6363,509.5964 325.2114,499.883 319.4922,490.0569 313.7583,482.0817 306.4789,473.8415 299.0102,467.0919 291.9881,462.0716 283.9467,457.74 277.2101,455.2117 269.8552,453.5718 261.8877,453.1238 253.3342,454.231 247.3304,456.0401"/>
    <polyline points="245.6693,453.2733 251.9045,451.4949 254.9277,450.9566 260.774,450.4944 269.019,451.0988 276.6136,452.9245 281.3127,454.6601 285.7244,456.7161 293.713,461.5255 300.6534,466.9167 307.997,474.0092 315.1134,482.5264 321.4846,491.9791 327.3037,502.9238 331.4833,513.2961 333.5937,520.2809 335.1546,527.5318 335.955,534.3576 335.9512,540.5421 334.9471,546.0779 334.1328,547.9155 333.0995,549.1559 331.8544,549.6243 330.6318,549.1848 329.3254,547.4741 329.0349,545.6526 328.9183,546.1247 329.5906,548.1495 330.9173,549.6715 332.3789,550.0862 333.7962,549.3916 335.1637,547.3737 336.1407,544.3737 336.7338,540.3932 336.8696,535.7404 336.5694,530.8606 335.841,525.5656 333.2521,514.685 329.4639,504.0845 324.0295,492.7076 317.9533,482.6783 311.0538,473.4171 303.8307,465.4639 296.9179,459.184 288.8639,453.2733 284.3731,450.5776 279.5567,448.1391 271.702,445.1373 263.0771,443.213 256.901,442.7221 253.6879,442.7647 247.02,443.5209"/>
    <polyline points="248.8341,447.9522 255.1654,447.0244 264.1075,447.1567 272.3527,448.7261 279.8904,451.3602 288.8617,456.0137 296.664,461.4767 303.3932,467.3536 310.4612,474.8706 317.2543,483.7025 323.2799,493.3428 328.2201,503.2151 332.2569,513.743 334.4521,521.5949 335.7974,528.7235 336.4027,535.3915 336.2263,541.3841 335.0642,546.6718 334.1917,548.3851 333.1107,549.496 331.8863,549.8359 330.6726,549.3423 329.3232,547.5353 329.0222,545.6318 328.8813,546.2246 329.6938,548.6715 331.2916,550.5329 333.0479,551.0762 334.7541,550.3138 336.2393,548.3471 337.3932,545.3852 338.1814,541.5462 338.5664,536.6786 338.4754,531.5146 337.9266,525.8562 335.5714,514.0691 331.8377,502.3816 327.0016,491.1297 320.8633,479.818 313.7134,469.1024 306.0643,459.6305 298.6085,451.9104 289.7719,444.355 282.1307,439.0479 273.544,434.3292 263.9575,430.5429 256.9947,428.7534 253.3407,428.1377 245.6912,427.578"/>
    <polyline points="245.6693,431.676 253.0782,431.8432 256.6259,432.2664 263.4022,433.6825 272.768,436.9464 281.1945,441.1953 288.7249,446.0878 297.4736,453.1732 304.8922,460.5088 312.5431,469.602 319.7387,479.9818 325.9614,491.0224 330.9092,502.0742 334.7824,513.6174 337.3007,525.3206 338.1161,535.6084 337.9034,540.2283 337.2482,544.3336 336.1156,547.7321 334.7027,549.8597 333.0496,550.7813 331.3787,550.4181 329.7863,548.7355 328.9048,546.3408 329.0218,545.6368 329.3951,547.5128 330.7378,549.0414 331.8919,549.2619 333.0152,548.6241 333.9639,547.2224 334.682,545.2402 335.4314,539.7909 335.2496,533.5921 334.2694,526.8156 332.5386,519.6749 330.2833,512.8482 325.9249,502.8066 320.752,493.5731 314.5837,484.7604 307.7618,476.9106 300.7816,470.4568 294.2315,465.6198 286.7406,461.3824 282.6236,459.6086 278.2524,458.1446 271.2156,456.6879 263.6106,456.3736 255.4638,457.5384 249.7545,459.3274 246.8233,460.5727"/>
    <polyline points="245.6693,474.8706 253.4683,469.9128 260.9385,466.9039 268.0234,465.5008 274.6809,465.394 278.8685,465.9071 282.8502,466.8041 290.1932,469.5039 296.7238,473.071 303.8062,478.2655 310.8661,484.9982 314.8002,489.5489 318.1913,494.0306 324.1458,503.5551 328.6302,512.9023 332.1163,522.9395 333.3486,527.9931 334.2191,533.2387 334.577,537.8097 334.4567,542.1157 333.8813,545.3974 332.8444,547.7736 331.8376,548.6695 330.7245,548.6865 329.6497,547.7645 328.9927,546.2113 329.0481,545.6799 329.4659,547.3279 330.6852,548.3464 331.7022,548.1438 332.5898,547.0924 333.6591,543.2804 333.798,537.609 333.1289,531.9259 331.6932,525.5362 329.5714,518.9831 327.0251,512.8798 322.3989,504.1967 316.4149,495.5697 309.2178,487.6589 302.412,482.0129 295.6921,477.9003 291.1707,475.8821 287.9467,474.7975 280.9929,473.4512 277.2668,473.2914 273.3804,473.551 267.2666,474.8706 260.8425,477.5236 254.153,481.7765 247.25,487.9135"/>
    <polyline points="246.0522,488.6557 253.0144,482.223 259.7687,477.7245 266.2619,474.8719 272.4477,473.3938 278.2907,473.0426 285.5084,473.9516 292.0494,476.0349 299.2809,479.7565 306.6447,485.1866 313.6082,492.0809 319.7453,499.966 325.2462,509.1426 329.4985,518.6697 332.3955,528.1622 333.3501,533.1213 333.8151,537.4819 333.8477,541.3831 333.4404,544.6856 332.7515,546.8178 331.8133,548.0852 330.702,548.3613 329.66,547.6137 329.0204,545.708 329.7172,547.3465 330.3345,547.675 330.9781,547.5351 331.9282,546.1752 332.5025,543.5857 332.4847,538.3157 331.4495,532.0359 329.6965,525.9559 327.192,519.6984 324.1751,513.8376 320.5408,508.1642 314.3999,500.777 307.9273,495.1221 304.0954,492.6109 300.9428,490.9672 297.5444,489.6041 293.8977,488.6023 290.0042,488.0561 287.2743,487.998 281.5083,488.7793 275.37,491.0299 272.1793,492.8187 268.9195,495.1143 265.6001,497.9673 262.2311,501.4292 257.105,507.877 251.9144,515.9826 246.6705,525.9076"/>
    <polyline points="245.6693,496.4679 250.0729,491.3543 256.5574,485.3509 262.8543,481.1142 268.9159,478.3874 274.7004,476.9281 278.3865,476.5491 281.9276,476.5747 288.557,477.6247 295.9762,480.3377 299.9699,482.4854 303.6321,484.8987 310.0213,490.2131 316.0584,496.7352 321.9439,504.9448 326.5377,513.2863 330.2938,522.5142 332.7376,531.8102 333.5793,539.8879 333.3609,543.6011 332.7084,546.2961 331.6671,547.9087 330.4305,548.1394 329.4278,547.2071 329.0,545.7782 329.3444,546.7469 329.9989,547.3068 330.66,547.2108 331.2318,546.5306 331.8996,544.0025 331.9581,540.3645 331.0312,534.1982 329.1446,527.8204 326.3672,521.3545 323.142,515.6657 319.1749,510.1907 315.2376,505.9032 311.9004,502.9737 308.8868,500.8097 305.5501,498.9017 301.8792,497.3616 298.9037,496.5296 295.7389,496.0497 292.3895,495.9998 288.8639,496.4679 285.1748,497.552 282.6327,498.6696 277.3772,502.0059 271.9401,507.0516 266.3792,514.1058 260.7427,523.4646 256.4781,532.1635 252.1693,542.4186 246.2801,558.6634"/>
    <polyline points="245.6693,561.2598 250.1149,548.5142 254.441,537.4447 258.7062,527.9715 264.3398,517.657 268.5254,511.5151 274.0249,505.2213 278.059,501.7598 283.2708,498.5857 285.7898,497.5362 289.443,496.5393 295.1603,496.1632 298.3504,496.5575 301.353,497.3176 306.7906,499.6647 312.2029,503.3113 317.8099,508.6742 322.5102,514.7726 326.7211,522.1434 329.9209,530.1837 331.6728,537.7385 331.9866,541.2822 331.8513,544.2985 331.2692,546.4375 330.3199,547.3314 329.4967,546.9466 329.0267,545.8458 329.4146,546.5418 329.9409,546.653 330.6933,545.1251 330.7893,542.3835 330.2872,538.8549 328.6752,533.4389 326.3286,528.3462 323.3395,523.6604 320.1799,519.9659 316.5716,516.87 312.6861,514.6279 309.3325,513.5112 305.6046,513.1286 302.2285,513.5737 298.6342,514.9194 295.6269,516.7921 292.5288,519.5055 289.367,523.1894 286.1694,527.9766 282.9595,533.998 280.5529,539.3988 275.7329,552.6804 270.7892,569.5272 257.5127,619.3006 251.5757,638.5252 246.0246,654.2818"/>
    <polyline points="265.8026,709.3964 275.4354,694.6831 284.5773,678.2694 291.3148,663.5182 296.2706,650.0643 301.0571,632.9907 304.4608,615.603 306.7334,598.4548 310.1493,564.2728 311.2958,556.3847 312.5855,550.0758 314.7531,543.2324 317.2582,538.7411 318.7884,537.157 320.2569,536.2639 321.9578,535.8892 323.6138,536.1509 325.7931,537.4571 327.7418,539.7904 329.15,542.8705 329.5049,545.6074 329.1658,545.9435 329.4332,544.8062 328.8137,542.5053 327.09,539.6753 324.9903,538.0554 322.6822,537.7543 320.8169,538.618 318.9738,540.6478 317.2822,543.9383 315.9765,547.9181 314.5704,554.6761 313.528,562.8937 311.0484,597.9152 309.2283,615.0184 306.119,632.6552 302.0515,648.0304 296.833,662.5936 293.4232,670.4534 289.3486,678.7731 280.7289,693.8814 269.1265,711.0153"/>
    <polyline points="267.039,711.266 272.201,703.8938 278.8546,693.58 287.593,677.9877 291.709,669.4026 295.1451,661.2935 300.3881,646.2766 304.4656,630.4455 307.3367,614.2396 309.2064,598.1712 311.8738,565.7376 313.4308,554.0818 314.5778,548.7407 316.008,544.1913 317.6971,540.6839 319.5706,538.3434 321.8214,537.0645 322.9885,536.9417 324.2964,537.209 326.6314,538.8091 328.5053,541.5596 329.2755,543.6656 329.4781,545.491 329.1901,545.9475 328.963,545.2279 328.5201,544.9216 327.9358,545.442 327.5907,547.0332 327.6077,549.4579 328.314,554.1178 329.8416,559.8272 332.0674,566.0058 335.0242,572.6532 338.5479,579.3038 342.4246,585.5612 348.2877,593.4507 354.2866,599.8776 360.4398,604.8552 366.3438,608.077 369.4376,609.1384 372.5363,609.76 375.6466,609.9366 378.4913,609.7064 381.6471,609.0176 384.5455,607.9888 390.7332,604.5375 396.7287,599.5182 402.4256,592.9811 407.3784,585.3716 411.459,576.8794 413.9091,569.9986 415.8273,562.711 417.207,555.1132 418.0649,547.3563 418.4724,538.2694 418.3308,529.1249 417.7441,520.2905 416.588,510.0699 414.6683,498.107 412.3972,486.9648 409.2541,474.079 406.1553,463.0213 399.0739,441.2576 393.2799,425.7134 388.5671,414.0841"/>
    <polyline points="388.9685,413.2469 397.8003,435.6292 405.5566,458.487 411.6493,480.3328 415.9151,500.3077 417.4257,509.7469 418.6396,519.9927 419.4929,536.5695 419.3098,544.6446 418.6455,552.75 417.4513,560.6559 415.9205,567.4314 412.6918,577.2455 408.4697,586.1301 403.0754,594.3524 396.9393,601.1989 393.7235,603.9933 390.2417,606.4781 387.0835,608.2643 383.6778,609.696 380.5894,610.5461 377.2492,610.9778 373.9286,610.8983 370.616,610.3116 367.0245,609.108 363.4226,607.3197 359.8106,604.9576 356.1997,602.0414 352.6139,598.6036 348.8235,594.3761 341.9589,585.0408 335.5752,573.8823 332.9178,568.1437 330.6246,562.2509 328.9139,556.6965 327.873,551.8067 327.5522,548.5953 327.7043,546.1639 328.3767,544.938 328.8496,545.0844 329.1326,545.7 328.6544,544.8925 327.9941,545.1153 327.5124,546.5491 327.4078,548.8978 328.3341,555.4792 330.6045,563.536 333.9417,572.2402 338.5225,581.9567 344.2628,592.303 350.1789,601.7483 361.8741,619.1456 366.0052,626.1746 367.9204,630.4272 369.1159,634.3629 369.6413,638.0891 369.5203,641.9676 368.1376,647.6876 365.4247,653.539 361.1883,660.0529 355.1691,667.5314 346.9563,676.381 336.912,686.2328 323.9066,698.2119 309.0007,711.3814"/>
    <polyline points="310.1737,711.9727 343.9743,682.9476 355.911,672.1693 365.1424,663.3241 371.7596,656.3496 376.5036,650.4822 379.4393,645.6118 380.786,641.3675 380.8639,639.0259 380.4284,636.7938 379.4445,634.4634 377.9392,632.0646 374.2402,627.5907 361.6537,614.0883 355.4159,606.6921 348.0501,596.78 341.6532,586.7292 336.4725,577.1115 332.264,567.6173 329.2258,558.6569 327.6165,550.8962 327.5519,546.556 327.9394,545.2614 328.5235,544.8689 329.1311,545.7114 328.5834,545.1656 328.0936,546.0645 328.2423,550.1479 329.2049,554.2382 330.8428,558.8414 332.7547,562.9646 335.123,567.0813 337.6599,570.6628 340.3974,573.7793 344.2492,577.0548 348.3139,579.2549 352.1669,580.2278 356.3028,580.1041 360.3458,578.8126 364.5649,576.1749 368.167,572.7669 371.778,568.0637 374.9492,562.5242 377.6077,556.3628 379.7115,549.8316 381.4857,542.0206 382.4613,535.5052 383.1021,528.0602 383.1431,513.7664 381.7104,498.1593 378.8215,481.7081 374.6986,465.1647 368.3316,445.2997 360.9707,426.397 353.6558,410.0787"/>
    <polyline points="354.3169,412.141 361.4273,428.2035 367.006,442.439 371.3715,455.1009 375.7176,469.909 378.7633,482.7343 381.2046,496.4927 382.5205,508.2036 383.0274,520.0996 382.6954,530.112 381.5692,539.8973 379.6254,549.0872 376.9117,557.4049 373.5267,564.6415 369.2384,571.0883 364.9143,575.5492 362.4302,577.3755 359.9959,578.6994 357.623,579.5685 354.9969,580.0599 352.4707,580.0721 349.7565,579.5811 347.1851,578.6269 344.7635,577.2807 339.9521,573.2319 335.1258,567.0255 331.0425,559.278 329.5085,555.1825 328.4525,551.2398 328.0393,546.4299 328.5057,545.2071 328.8752,545.234 329.1204,545.6976 328.6897,545.1212 328.1977,545.5433 327.92,547.4242 328.1638,550.2319 330.0003,557.1931 333.1371,564.4159 337.313,571.2533 341.6352,576.3895 346.2141,580.1761 350.7822,582.4573 355.4541,583.3374 358.4246,583.1518 361.5102,582.3462 364.3397,581.0483 367.2371,579.1411 370.1829,576.556 372.7782,573.6744 375.3618,570.1455 377.5393,566.5441 379.6498,562.3438 381.6525,557.4653 384.5963,547.5425 386.5511,536.2121 387.335,525.3508 387.237,514.2007 386.1161,500.8791 384.0836,487.671 381.4731,475.378 377.6945,461.1977 372.3656,444.7125 367.0344,430.5239 360.2214,414.4762"/>
    <polyline points="358.2504,411.2545 365.3882,427.6558 370.9757,442.1506 375.3398,455.0135 379.6765,470.0244 382.7098,483.0009 385.1358,496.9017 386.5921,510.8757 386.9246,522.5348 386.3298,533.8598 384.5314,545.6425 381.6902,555.9399 377.9954,564.6717 375.8454,568.5052 373.2793,572.2713 370.6904,575.3608 367.742,578.1546 364.8352,580.2451 361.642,581.8465 358.5498,582.7383 355.5724,582.9987 351.19,582.3163 347.1343,580.5311 342.9324,577.4525 339.0184,573.3502 335.2004,567.9776 331.9063,561.8194 329.4625,555.5279 328.1041,549.7604 327.9799,546.476 328.2409,545.4649 328.6786,545.1231 329.1204,545.7169 328.689,545.3346 328.3377,546.1145 328.5541,549.3859 329.4529,552.7156 330.813,556.0853 334.3564,561.9465 336.37,564.2432 338.5348,566.1062 341.6491,567.8319 344.9471,568.5341 348.3178,568.0925 351.3658,566.6533 354.2493,564.294 357.1779,560.7207 359.7735,556.2558 361.9589,551.0953 363.6853,545.4846 365.1242,538.6562 366.0118,531.6507 366.4055,524.8504 366.209,513.5605 364.7516,499.716 362.0204,485.2647 358.2439,470.9301 353.8784,457.6327 347.9237,442.3994 339.8759,424.9005 332.0585,410.0787"/>
    <polyline points="330.4522,414.4864 335.6011,424.0138 342.0485,437.1592 347.2249,449.0414 352.5513,463.1384 356.4643,475.4974 359.2846,486.3669 361.6345,498.1788 363.1741,510.1895 363.7227,521.787 363.3525,531.2968 362.1889,540.1173 360.0519,548.6952 356.9623,556.1746 353.3782,561.5928 351.4438,563.5804 349.2748,565.1878 347.1762,566.1842 344.9232,566.6852 342.1267,566.5177 339.3931,565.5053 336.6457,563.5907 334.0706,560.8604 331.6595,557.2318 329.7333,553.0865 328.5539,548.9515 328.4317,545.8654 328.7093,545.3648 329.0538,545.5332 329.1013,545.7576 328.8934,545.3798 328.5893,545.5417 328.3811,546.7118 328.9851,550.4726 331.3017,556.1351 334.5549,560.8046 338.2603,563.8886 341.8599,565.1615 343.6448,565.2143 345.5325,564.8548 349.0434,562.9946 352.1875,559.8306 354.8094,555.793 357.0667,550.8177 358.8789,545.1019 360.3592,537.9101 361.2162,530.149 361.4625,522.1763 361.1852,514.421 360.3152,505.4697 358.6562,495.1036 355.9407,483.0502 352.7633,471.9679 348.4193,459.3842 342.5686,445.0619 336.9231,433.0239 329.9282,419.7525 324.3642,410.1707"/>
    <polyline points="322.0225,414.1174 327.3863,423.1614 334.1629,435.741 339.6644,447.2031 345.4041,460.9012 349.7005,472.9884 352.8724,483.6705 355.6193,495.3247 357.3365,505.3738 358.4872,517.2127 358.6105,526.9251 357.9155,535.9322 356.2642,544.6882 353.6586,552.3252 350.5189,557.878 348.7999,559.9331 346.8613,561.6199 344.7499,562.7997 342.7403,563.3448 340.451,563.3144 338.0101,562.522 335.7228,561.0301 333.55,558.8498 331.4743,555.8745 329.773,552.3839 328.6958,548.865 328.4773,546.0741 328.6679,545.4998 328.9583,545.4381 329.1056,545.7501 328.714,545.5375 328.5176,546.5578 328.9372,549.2894 329.9961,552.2725 331.5502,555.1703 334.5286,558.69 337.7914,560.6072 339.358,560.9307 341.0493,560.8631 344.1066,559.6082 346.9208,556.9969 349.5354,552.9253 351.5939,547.9798 353.0415,542.7646 354.0514,537.0929 354.688,530.1861 354.8003,523.0989 354.3462,514.7302 353.3789,506.6024 352.0991,499.2216 349.6795,488.7237 346.9057,479.1561 343.1754,468.3946 338.2328,456.2808 331.7444,442.6501 325.6061,431.3394 318.1237,419.0439 312.2512,410.2927"/>
    <polyline points="310.4612,410.0787 321.6164,426.9412 330.2143,442.1144 338.2148,458.8169 343.9196,473.2574 348.5582,488.0214 350.6512,496.5334 352.1319,504.1274 353.8157,518.392 354.0392,524.9056 353.8428,531.6229 352.5963,541.3689 351.427,546.1515 350.0884,550.0264 348.441,553.5092 346.7391,556.135 344.8239,558.2281 342.7537,559.6682 340.788,560.3513 338.6075,560.3888 336.4962,559.7146 334.5338,558.4278 331.8346,555.4187 329.7365,551.5312 328.6182,547.6261 328.6169,545.7875 328.8471,545.4503 329.1861,545.6473 328.7387,544.3703 327.9921,543.694 327.1707,543.6798 326.4546,544.3034 325.8467,545.5395 325.3078,547.8854 325.0487,551.118 325.4684,560.0058 326.7217,569.5423 331.2176,597.4184 332.7071,612.9032 332.8695,619.8833 332.6061,627.2523 331.9358,633.9129 330.7438,640.9366 328.5216,649.6731 325.7199,657.7274 321.8715,666.4376 317.669,674.327 312.3396,682.946 305.6023,692.5007 298.944,701.0111 290.8712,710.5139"/>
    <polyline points="292.7371,710.701 300.7225,701.5534 308.8121,691.4553 315.2473,682.4931 320.375,674.4016 325.1551,665.5791 328.7382,657.5096 331.3634,650.0314 333.4572,641.902 334.5835,635.3511 335.2136,629.1237 335.4466,622.2118 335.203,614.723 334.4637,606.7698 333.2768,598.4818 327.7044,569.5153 326.0544,558.8527 325.6062,553.4439 325.6218,549.3241 326.0848,546.146 326.9976,544.2409 327.5711,543.8943 328.2015,543.9901 329.1447,545.3831 329.1236,545.792 328.8875,545.1155 328.3736,544.9117 327.7588,545.8106 327.5063,547.7827 327.6371,550.4302 328.8275,556.6978 331.1997,564.2406 336.1984,575.7115 342.7536,587.2127 350.1512,597.5007 357.8671,605.9472 361.8043,609.4268 365.6491,612.2725 369.3856,614.4895 373.0154,616.0937 376.086,617.004 379.3325,617.5016 382.538,617.5125 385.7253,617.0476 388.9155,616.1136 392.356,614.5946 395.6,612.6894 398.8794,610.3032 405.5128,603.9967 411.3974,596.3806 416.3461,587.6592 420.0259,578.5266 422.1532,571.0006 423.6149,563.5008 424.5778,555.4664 425.0316,546.9649 424.9884,538.1418 424.4952,529.243 423.4178,518.7518 421.9079,508.4553 419.6322,496.3521 417.0682,485.034 413.6157,471.895 410.2657,460.5807 402.7014,438.215 396.5539,422.1679 391.5644,410.125"/>
    <polyline points="390.5993,410.329 395.5692,422.3423 401.6882,438.3579 409.2039,460.6958 412.5229,472.0038 415.9313,485.1427 420.286,506.3213 421.8619,516.9662 422.8321,526.1166 423.4045,535.536 423.4757,544.8417 422.9959,553.7764 422.0908,561.3279 420.7115,568.5623 418.6601,576.0265 414.9743,585.3933 410.1745,594.0321 404.3734,601.6974 397.9984,607.9 394.7111,610.3647 391.4567,612.343 388.2355,613.8484 384.7961,614.9489 381.6169,615.4891 378.4355,615.5634 375.2343,615.1662 371.9962,614.2899 368.1956,612.6718 364.5755,610.5643 360.8854,607.8745 357.1402,604.6073 349.6282,596.447 342.4958,586.5597 335.9937,575.1477 331.0791,563.8076 328.8337,556.6346 327.6478,550.4049 327.5169,547.773 327.7672,545.8121 328.3778,544.9175 328.8885,545.1194 329.1218,545.7893 329.1432,545.4142 328.2345,544.0868 327.6365,544.0149 327.0958,544.3655 326.2442,546.2196 325.8167,549.4696 325.8703,553.7862 326.398,559.1376 328.1634,569.5754 334.2966,599.056 335.5601,607.0724 336.3825,614.7329 336.7224,621.9216 336.6014,628.5374 335.9706,635.5015 334.9208,641.7944 332.9546,649.5904 329.9908,657.9916 326.4523,665.8045 321.7548,674.345 315.5909,683.8352 309.0285,692.6983 300.802,702.7124 292.6968,711.8077"/>
    <polyline points="298.0932,711.2636 307.5788,701.2169 316.5708,690.8953 323.5846,681.9648 329.0782,674.0655 333.9888,665.8262 338.0569,657.3718 340.838,649.6817 342.765,641.7116 343.5616,635.897 343.8689,629.5759 343.5989,622.7977 342.8245,616.307 341.5305,609.3781 339.5826,601.4121 331.1359,573.1223 328.1658,561.4439 327.067,555.2796 326.6301,550.3981 326.8203,546.7431 327.6316,544.6705 328.4867,544.5212 329.1362,545.5262 329.1142,545.7789 328.8989,545.1208 328.4036,544.882 327.7337,545.7962 327.4714,547.7941 327.6149,550.6405 328.8585,557.1119 331.3033,564.8711 333.8883,571.2757 336.9887,577.816 340.6416,584.5356 344.4606,590.7614 352.9102,602.4504 357.5247,607.8672 362.2048,612.7546 366.8138,616.9962 371.4442,620.6796 375.9617,623.6738 380.1258,625.8354 383.2623,627.0162 386.2678,627.7209 389.1834,627.9444 391.9488,627.6921 394.7554,626.9533 397.6718,625.6827 403.7314,621.5915 407.2126,618.4758 410.7145,614.8131 417.0273,606.6535 422.1041,597.8519 425.9772,588.3705 428.0218,581.2028 429.4712,573.9297 430.5022,565.5777 430.9909,556.7988 430.9441,546.886 430.382,537.116 429.3102,526.7393 427.7621,516.0423 425.8431,505.4774 423.126,492.9854 420.1684,481.2401 416.2641,467.5361 407.8599,442.1832 397.3201,415.1028"/>
    <polyline points="397.5088,415.4778 407.9994,442.4793 416.3675,467.7641 422.5404,490.3829 425.4408,503.2917 427.493,514.1824 429.1566,525.1832 430.323,535.8283 430.9601,545.826 431.0853,555.0288 430.6875,564.1447 429.8152,572.1756 428.4395,579.7681 426.4562,587.2013 422.6522,596.9625 417.7713,605.7483 411.4966,614.1327 408.0063,617.9046 404.4103,621.2373 398.2811,625.564 395.4067,626.9124 392.539,627.7622 389.7179,628.0975 386.8742,627.9499 383.8116,627.2972 380.599,626.1363 376.3438,623.9695 371.8893,621.0548 367.316,617.4628 362.5162,613.087 357.8567,608.2541 353.2528,602.8893 348.8513,597.1601 344.5421,590.8954 340.4888,584.2774 336.8553,577.5577 333.7787,571.0294 331.101,564.3171 329.0912,557.9923 327.8643,552.4582 327.4837,548.9682 327.6136,546.2956 328.3124,544.9007 328.8147,545.0261 329.1375,545.6894 328.6501,544.8145 327.9509,544.9258 327.4581,545.9488 327.2051,547.7603 327.5428,553.0123 328.8756,559.5449 331.1377,567.1904 336.5605,581.3116 349.2148,609.6851 353.2877,621.3242 354.5313,626.7385 355.1963,631.7729 355.3217,636.9788 354.8822,641.8767 353.3035,648.8558 350.2999,656.5724 346.3859,663.8189 340.7756,672.1349 333.7812,680.9281 325.4456,690.2438 315.8967,700.0518 303.3924,712.0933"/>
    <polyline points="304.2949,710.8811 316.5118,698.9704 325.8414,689.2293 333.976,679.9403 340.7819,671.1351 345.7506,663.5547 349.6469,656.1473 352.4154,648.8737 354.0313,641.6663 354.4758,636.6112 354.3406,631.2411 353.6558,626.0517 352.3851,620.4764 348.4616,609.0203 336.1505,580.7072 330.9871,566.9727 328.848,559.6401 327.5464,553.2686 327.1684,548.1 327.7942,545.0935 328.5226,544.7427 329.1281,545.5811 329.1097,545.7722 328.9335,545.2015 328.5034,544.9606 327.9001,545.6798 327.7065,549.6345 328.6305,554.9289 330.5538,561.3238 334.9927,571.6413 340.7079,581.4492 346.6947,589.3069 353.0736,595.548 356.2772,597.9143 359.2555,599.6616 362.5957,601.1031 365.6874,601.9491 368.8317,602.3296 371.7082,602.2561 374.9584,601.6924 377.9333,600.733 380.9543,599.3257 384.0174,597.4479 389.8845,592.5146 395.4101,586.0011 400.1021,578.5107 404.1505,569.6623 407.1409,560.3089 408.509,554.2761 409.6159,547.4194 410.3775,539.5581 410.6655,532.0675 410.5412,523.5287 410.0613,515.7841 409.1503,507.0593 407.6925,497.1567 405.532,485.8248 403.3245,476.197 398.1605,457.4865 390.4129,434.5202 381.5078,412.1234"/>
    <polyline points="380.4088,410.5312 387.4997,427.9001 394.6228,447.6988 399.7771,464.4064 404.2396,481.8952 407.5615,499.0763 409.3603,513.1428 410.1506,526.6318 409.8856,539.1967 408.409,551.8094 407.109,558.1355 405.5891,563.7256 401.7751,573.8279 399.1957,578.9448 396.5105,583.3769 393.4148,587.6527 390.2823,591.2634 386.7974,594.5755 383.337,597.2151 379.5817,599.4007 375.8934,600.8825 372.2773,601.7006 368.7334,601.8887 365.5719,601.5389 362.1584,600.6093 359.1136,599.2949 355.8323,597.3657 352.6316,594.97 349.5274,592.1562 343.2021,584.8585 337.1305,575.5586 332.1339,565.3744 328.7696,555.4506 327.8743,551.0135 327.6363,547.47 327.9639,545.523 328.685,544.9945 329.1158,545.7608 328.9122,545.1973 328.477,545.0229 327.8577,546.1314 327.793,549.3313 328.5097,553.6513 329.9169,558.6368 331.7844,563.6186 334.049,568.5583 336.6967,573.4245 339.6038,577.9722 344.4061,584.0838 349.5601,589.0144 354.8735,592.4994 360.2182,594.4388 365.1753,594.8651 370.3483,593.9228 375.3562,591.66 380.5016,587.8935 384.9645,583.3034 389.3857,577.2501 393.2814,570.1666 396.2363,563.036 398.2962,556.4714 400.0468,548.8149 401.2033,541.1906 401.8392,533.9243 402.0824,525.6519 401.914,518.1658 401.335,509.7567 400.2371,500.2473 398.4762,489.4135 396.6052,480.2503 394.144,470.034 390.9529,458.5842 383.4928,436.1429 374.8704,414.3935"/>
    <polyline points="371.2646,415.5359 377.8941,431.9166 383.0707,446.323 388.2404,462.9813 391.9091,477.2517 394.9448,492.4126 396.7197,505.2148 397.716,520.0914 397.5115,532.2591 396.2969,543.6764 393.8276,555.1502 390.3736,565.0847 388.2933,569.566 385.761,574.0941 383.1604,577.9578 380.1501,581.6532 377.136,584.6609 373.7749,587.3046 370.4705,589.2369 367.2398,590.5197 364.0931,591.206 360.7029,591.3268 358.0747,590.9767 355.2105,590.1492 350.0838,587.484 344.841,583.1241 339.9753,577.4595 335.1859,570.0212 331.2119,561.6932 328.6098,553.6495 327.9367,550.0361 327.7838,547.2006 328.0902,545.5095 328.727,545.0693 329.1133,545.76 328.9265,545.236 328.5223,545.0684 327.9427,546.083 327.8735,549.0385 328.5343,553.0455 329.8501,557.6839 333.6194,566.6365 338.7112,575.0764 343.1049,580.4523 347.8763,584.7351 352.5511,587.5223 357.5905,589.0494 362.2758,589.1334 367.1985,587.8493 371.9533,585.2477 376.4532,581.4609 380.6052,576.6375 384.3176,570.9382 387.5102,564.5376 390.4309,556.6768 392.1366,550.4532 393.5599,543.2766 394.4542,536.4296 394.996,528.64 395.075,519.7186 394.7059,511.6032 392.7918,494.7737 389.3176,476.8937 386.6845,466.4099 383.264,454.6654 377.1308,436.6609 368.5959,415.3765"/>
    <polyline points="368.007,413.6136 376.7558,435.1857 383.0437,453.4192 386.5531,465.3049 389.2578,475.9088 392.8385,493.9799 394.8359,510.973 395.2456,526.4587 394.8143,534.5239 394.0048,541.6021 392.6581,549.0114 391.0084,555.4309 388.1437,563.5353 384.9835,570.1372 381.2881,576.0263 377.1392,581.0302 372.6308,584.9903 367.8582,587.7588 362.9106,589.203 358.1965,589.2605 353.1202,587.8719 348.4029,585.1962 343.5755,581.0025 338.8971,575.3785 333.7501,566.9213 329.8369,557.6647 328.5258,553.0274 327.8694,549.0246 327.9422,546.0756 328.5231,545.0667 328.9271,545.2362 329.1138,545.7598 328.7229,545.0608 328.0657,545.5329 327.7639,547.2929 327.9381,550.2213 328.6459,553.9351 331.4488,562.4412 335.5743,570.9452 340.7145,578.776 345.961,584.6838 351.3092,588.9126 356.5021,591.4186 359.3918,592.1528 362.038,592.418 365.445,592.1916 368.6016,591.4139 371.8376,590.0459 375.1429,588.0373 378.5004,585.329 381.5076,582.2757 384.5079,578.5479 387.0974,574.6683 391.6865,565.6662 393.6319,560.5727 395.4037,554.7597 397.7835,543.111 398.9032,531.522 399.0003,519.1631 397.8622,504.0332 395.9536,490.9925 392.7427,475.5226 388.8891,460.9353 383.4756,443.8755 378.0608,429.096 371.1265,412.264"/>
    <polyline points="370.4813,415.5547 378.9824,436.9002 386.3259,459.0096 389.4544,470.3217 391.8548,480.432 394.993,497.7069 396.1576,507.4561 396.7695,516.0679 396.9451,523.7239 396.6848,532.1683 396.0114,539.5668 394.7929,547.303 393.2419,554.0039 391.1316,560.7367 388.0991,567.9753 384.4804,574.4801 380.3598,580.0897 375.8357,584.6548 371.0095,588.0323 366.3285,589.9901 361.4904,590.7059 356.884,590.1556 351.9231,588.1963 347.0402,584.8381 342.3671,580.2107 337.8752,574.2834 332.8748,565.3956 329.3749,556.3916 328.2454,551.8684 327.7898,548.0866 328.0574,545.6103 328.6425,545.0489 329.1466,545.7946 329.0328,544.9124 328.4474,543.979 327.7086,543.5462 326.9794,543.6728 326.3101,544.3357 325.4724,546.4347 324.9945,549.6778 325.1903,558.9393 326.3755,568.8392 330.8128,597.7386 332.1813,613.5547 332.2661,620.7001 331.8996,628.2544 331.1141,635.0928 329.7748,642.3161 327.7442,649.9909 324.8516,658.2118 320.8785,667.1123 316.5369,675.1847 311.0247,684.0168 305.5761,691.7735 298.9888,700.3068 288.8639,712.4409 297.2588,702.6654 305.7023,691.8866 312.365,682.324 318.5406,672.0538 323.1677,662.7806 326.5818,654.273 329.3608,645.1045 331.1251,636.5878 332.0051,629.7169 332.4254,623.1878 332.4638,615.956 332.0685,608.1555 330.4598,593.9394 325.9173,564.9142 324.9506,553.4313 325.186,548.236 326.0975,544.7758 326.9202,543.7498 327.8955,543.621 328.8281,544.4958 329.2813,545.993 329.4894,544.3533 328.8647,542.0265 327.6721,539.6613 326.1735,537.786 324.3877,536.4507 322.7046,535.8885 320.9116,535.9823 319.1066,536.8373 317.5798,538.2448 315.8279,540.8207 314.108,544.6965 312.6663,549.4473 311.5083,554.7588 309.7748,566.6817 306.5815,598.8351 304.586,614.0491 301.326,631.2807 297.5272,645.6658 291.9914,661.5175 288.3526,670.0961 283.981,679.1928 274.6555,695.7567 264.8239,710.626"/>
    <polyline points="267.2666,712.4409 277.1017,698.2169 286.4982,682.4091 290.9328,673.7413 294.642,665.5728 300.3203,650.4801 304.7563,634.5911 306.5255,626.2186 308.1683,616.4046 310.1907,598.7979 312.8575,563.8085 314.7257,551.0374 316.4751,544.7425 318.7136,540.2386 320.0011,538.7426 321.3978,537.7762 322.8397,537.3826 324.2529,537.5368 326.2189,538.6475 327.8876,540.6061 329.1134,543.2318 329.4437,545.6061 329.163,545.9207 329.3849,544.8997 328.8278,542.8728 327.2469,540.3388 325.2875,538.9368 323.2354,538.8235 321.4666,539.851 319.8639,541.9152 318.5473,544.7655 317.3283,548.9025 316.1897,555.2275 315.3924,562.8257 313.6402,597.6609 312.2618,613.5578 309.7596,629.8417 308.0367,637.7365 305.8004,646.0826 302.9279,654.9316 300.267,661.941 297.0885,669.3144 293.3019,677.1046 288.7977,685.3798 283.4422,694.2283 272.1518,710.5809"/>
    <polyline points="273.7503,712.4023 285.1408,696.5978 290.574,688.0686 295.164,680.1058 299.041,672.6201 303.2822,663.2641 306.6456,654.5115 309.2925,646.2729 311.3537,638.4833 313.2694,629.3079 315.5178,612.6139 316.522,596.5612 317.2923,564.2288 318.2832,552.8385 319.454,547.0126 320.9568,543.0049 322.8614,540.5116 323.9241,539.9134 325.0839,539.7717 326.3878,540.209 327.5605,541.1912 328.555,542.6434 329.2184,544.3676 329.2554,545.8636 328.8947,545.1156 328.4487,544.8767 327.6807,545.9495 327.5889,550.5382 328.9318,557.4931 331.4528,565.3956 336.6437,577.3155 343.5358,589.6216 350.602,599.996 358.2044,609.4376 368.5316,620.1163 384.545,634.0326 386.6338,636.8951 387.1433,639.6321 386.1115,642.872 383.4129,646.8815 378.715,652.1788 371.5545,659.2461 348.1208,680.232 311.513,711.2568"/>
    <polyline points="310.9561,710.9299 343.2028,682.8291 353.9613,672.8312 362.6757,664.1136 369.0439,656.9308 373.3014,651.1092 375.9948,645.974 377.1931,641.2705 377.1896,638.5346 376.6574,635.9009 375.5551,633.1211 373.93,630.2667 370.6376,625.7335 358.1198,610.687 350.9419,601.2689 343.917,590.7306 337.9853,580.2653 333.0658,569.7131 329.5009,559.7012 327.6355,551.1617 327.4416,547.7881 327.7874,545.5645"/>
    <polyline points="335.7266,413.7677 340.8179,423.6619 347.1576,437.2499 352.2124,449.4747 357.369,463.9154 361.1133,476.5269 363.771,487.5864 365.9294,499.5771 367.2568,511.7481 367.5797,523.4895 367.003,533.1184 365.4093,543.0448 362.966,551.5207 359.5655,558.9288 355.6881,564.3041 353.608,566.2739 351.28,567.86 349.0286,568.8299 346.6093,569.2909 343.5983,569.0472 340.4271,567.8008 337.4636,565.6598 334.8125,562.8322 332.1222,558.831 329.9947,554.3697 328.6111,549.8431 328.2914,546.3227 328.5197,545.482 328.8966,545.3373 329.1097,545.7481 328.9282,545.4335 328.675,545.5424 328.4786,546.7069 328.9561,549.6483 330.1197,552.8757 331.8064,555.9885 334.8691,559.6222 336.6395,560.9279 338.3091,561.7171 339.9581,562.1022 341.7378,562.0886 344.9572,560.905 347.9295,558.3368 350.7085,554.2908 352.9216,549.3576 354.5075,544.1468 355.7896,537.5685 356.5117,530.4607 356.688,523.163 356.2834,514.5371 355.3399,506.1477 354.0624,498.5175 351.6152,487.6426 348.7841,477.7067 344.9521,466.5005 339.8444,453.8455 334.9637,443.2894 328.972,431.7337 321.6313,419.1123 315.8458,410.0859"/>
    <polyline points="312.7815,413.7757 318.4123,422.2209 325.6008,434.0998 331.5111,445.043 337.7732,458.253 342.5556,470.0143 346.1735,480.4799 349.4235,491.9641 351.5889,501.9142 353.1229,512.1398 353.8529,522.0979 353.7286,531.3534 352.6584,540.374 350.8057,547.7221 347.974,554.0835 346.2757,556.5337 344.5842,558.2866 342.7309,559.559 340.7711,560.2573 338.7694,560.3338 336.7961,559.792 334.7912,558.5871 332.8983,556.7657 331.1056,554.2531 329.6964,551.4103 328.7773,548.4835 328.56,546.1044 328.9649,545.4752 329.1042,545.7488 328.7396,545.5892 328.5855,546.5949 329.04,549.1749 330.0891,551.9192 331.5961,554.5174 334.4471,557.5191 336.0407,558.4455 337.5384,558.8978 340.412,558.6742 343.2237,556.9908 345.7662,553.9531 348.0581,549.4226 349.613,544.6431 350.7506,539.1677 351.4358,533.2386 351.6805,527.1551 351.479,519.9847 350.8499,513.0426 349.6646,505.0802 348.2027,497.8694 345.5483,487.6493 342.5847,478.3756 338.6699,467.996 333.5584,456.3836 326.9353,443.4177 320.7361,432.7483 313.2486,421.2524 307.4176,413.1416"/>
    <polyline points="293.0243,410.6477 299.5065,417.834 307.9525,428.2959 315.0656,438.2538 321.0442,447.634 327.5422,459.1991 332.6595,469.7007 337.5189,481.4195 341.0457,491.7149 343.9475,502.415 345.9846,512.9411 347.0649,522.8176 347.1839,532.5465 346.2428,541.2044 344.2216,548.5263 342.8115,551.484 341.359,553.5927 339.7609,555.121 337.9314,556.0556 336.5163,556.2535 334.9768,555.9746 333.5214,555.2269 332.1229,554.0175 329.7059,550.2986 328.9452,548.1308 328.6809,546.2859 328.9737,545.5329 328.7281,546.7807 329.3476,549.2533 330.4863,551.6045 331.9306,553.5242 334.5187,555.3404 335.9651,555.6418 337.2986,555.4929 339.7788,554.0549 342.0744,551.0553 343.8354,547.048 345.2142,541.7326 345.9351,536.6359 346.2613,530.2745 346.1256,524.5208 345.5331,517.7801 344.576,511.2961 343.0693,503.9117 339.1058,489.9163 335.3107,479.5923 330.1379,467.8852 324.7331,457.4416 317.9132,446.0032 311.6711,436.7842 304.2781,427.0672 295.5413,416.9543 288.8639,410.0787"/>
    <polyline points="287.3853,411.6414 294.0183,418.2264 302.7237,427.9695 310.1164,437.3847 316.3794,446.3583 323.2484,457.5393 328.7165,467.7878 333.9776,479.3154 337.8636,489.5118 341.1434,500.1689 343.557,510.7066 344.9971,520.6404 345.4823,530.4728 344.8888,539.2742 343.2018,546.7855 341.9532,549.8591 340.4924,552.2859 338.8855,553.986 337.208,554.9347 335.9079,555.1711 334.4926,554.9628 333.1547,554.3135 331.8703,553.234 329.6227,549.7985 328.9351,547.8028 328.7239,546.1259 328.9923,545.5565 328.8259,546.3265 329.125,547.7666 330.6084,550.5834 332.1678,551.9997 333.7998,552.51 335.3544,552.1585 336.8447,550.9731 338.1532,549.0448 339.1983,546.5997 340.5589,540.6139 341.0304,533.2889 340.5646,524.8253 339.2022,515.96 336.4703,504.9628 332.3391,493.0689 326.8359,480.8011 320.1913,468.8161 312.8724,457.83 305.5625,448.4985 296.6966,438.8816 288.8639,431.676 279.8851,424.715 269.6446,418.3152 262.0658,414.5729 258.0415,412.9195 249.5124,410.171"/>
    <polyline points="259.1741,411.44 267.1031,415.1767 277.8124,421.6539 287.195,428.7591 295.372,436.1466 302.4688,443.5757 310.4612,453.2733 318.4592,464.7519 324.6588,475.3178 330.237,486.704 334.7958,498.2559 338.1405,509.3857 340.4049,520.6341 341.236,528.6546 341.2744,536.2664 340.4998,542.7914 338.8376,548.2738 337.6167,550.4368 336.2805,551.868 334.8046,552.615 333.3025,552.6159 331.6951,551.7885 330.2865,550.2198 329.0221,547.4728 328.8123,546.1403 329.0264,545.6011 328.8053,545.9174 329.5284,549.0365 331.4495,551.885 333.7542,553.2204 334.9567,553.2631 336.0552,552.9162 337.7005,551.6286 339.2656,549.3096 340.5229,546.2321 341.4156,542.7557 342.0191,538.7862 342.3379,533.8311 341.8542,523.1904 340.0912,512.272 337.2787,501.3972 333.3126,490.0269 328.3604,478.7196 322.7799,468.1134 315.4976,456.4265 308.1464,446.3698 301.5645,438.507 293.9218,430.4944 285.0765,422.5132 274.8824,414.8367 267.2666,410.0787"/>
    <polyline points="383.9303,412.7267 392.777,435.085 400.4932,457.9859 405.6613,476.6245 407.8846,486.2093 410.0784,497.4854 412.5458,516.0101 413.2958,532.196 413.0989,539.6415 412.4526,547.4581 411.4647,554.2808 409.9882,561.2242 406.8899,571.1397 403.021,579.733 398.2006,587.5645 392.5496,594.3277 389.545,597.1396 386.2263,599.7036 383.2699,601.5383 380.0272,603.0786 376.8325,604.1172 373.6853,604.6732 370.5829,604.7632 367.5214,604.4021 364.197,603.5018 360.9158,602.095 357.68,600.2063 354.211,597.6313 350.8242,594.5669 347.5477,591.0746 341.2394,582.7742 335.2128,572.4189 330.5597,561.5721 328.6155,555.0729 327.6811,549.6931 327.6157,547.2845 327.8936,545.6383 328.5181,544.9458 329.1252,545.6101 328.6047,544.8706 327.9552,545.1717 327.4983,546.6539 327.4162,549.085 328.3594,555.5831 330.6556,563.675 334.0168,572.3986 338.6182,582.1185 344.3727,592.4503 350.5421,602.2424 362.1826,619.4672 366.2714,626.4171 368.1602,630.623 369.3333,634.5171 369.8415,638.2057 369.7079,642.0469 368.3179,647.7145 365.4011,653.8851 361.0692,660.418 354.9369,667.9397 346.5792,676.8666 336.3536,686.8348 323.0936,698.9954 307.8601,712.4123"/>
    <polyline points="310.4612,712.4409 380.1386,653.8168 386.5844,648.6477 391.0862,645.5125 394.9312,643.5506 398.6427,642.5408 415.6949,641.8762 420.9004,641.117 425.8787,639.8785 431.0467,638.0148 435.9647,635.6704 441.0769,632.6389 446.3487,628.8998 453.4144,623.0125 461.0799,615.7368 491.4221,584.1396 509.4524,566.2107 526.8864,549.7662 546.358,532.1325"/>
    <polyline points="547.88,532.5265 530.2314,548.879 513.4891,565.0964 495.2068,583.8828 463.761,617.8888 455.0622,626.3189 447.421,632.6704 442.1165,636.3702 437.21,639.2378 432.3326,641.5577 427.2403,643.4339 422.3556,644.7451 417.0057,645.6973 401.8366,646.9013 397.1345,647.5886 391.8562,649.1762 386.3181,651.9234 378.7069,656.992 368.1,665.1829 311.1538,712.1181"/>
    <polyline points="312.226,711.594 361.5882,671.7001 373.6228,662.8112 382.4483,657.2735 388.935,654.2306 395.3911,652.3381 401.0584,651.4809 417.8924,649.9761 423.4006,648.98 428.407,647.6557 433.8719,645.682 438.9415,643.3117 443.9181,640.4526 449.2321,636.8074 457.0965,630.329 465.2512,622.4216 474.5539,612.3624 498.9646,584.671 510.8881,571.7476 526.5427,555.6646 545.5294,537.2457"/>
    <polyline points="546.0851,537.6566 526.9957,556.4006 511.2573,572.8157 466.9482,622.677 458.3517,631.1153 450.0654,637.9754 444.4663,641.7996 439.2233,644.7701 433.8845,647.2029 428.5282,649.0784 423.2313,650.4288 417.7329,651.3773 400.9521,652.8349 394.9802,653.7094 388.3651,655.5832 381.5396,658.6909 372.2681,664.398 360.278,673.1334 342.506,687.1328 312.7974,711.2568"/>
    <polyline points="313.0765,711.3193 340.8278,689.0063 357.7221,675.937 370.1929,667.1045 379.7696,661.4481 386.886,658.3561 393.8765,656.4602 400.3387,655.5579 418.0953,654.1228 423.9511,653.1533 429.0681,651.8999 435.0774,649.8562 440.5587,647.3926 445.8703,644.4203 451.5118,640.6115 460.0283,633.6068 469.4534,624.2885 477.7777,615.0532 501.3908,587.2942 513.986,573.0394 530.5905,555.3324 547.9821,537.9097"/>
    <polyline points="547.1255,538.466 529.9344,555.6655 513.493,573.1612 501.0056,587.2537 477.5803,614.7195 469.3268,623.8724 459.9887,633.1259 451.5556,640.1035 445.9705,643.9107 440.7116,646.892 435.2835,649.3735 429.3304,651.444 423.8544,652.8076 418.0874,653.7696 400.3277,655.2253 393.9892,656.1222 386.8624,658.0858 379.8544,661.1755 369.9879,667.0741 357.4965,675.9956 340.5176,689.1829 312.5405,711.7159 342.698,687.8496 357.127,676.861 369.1261,668.5112 378.9734,662.8251 386.0153,659.8405 393.2944,657.9089 399.9841,657.0066 418.3652,655.6024 424.1927,654.6691 429.6376,653.3641 435.5273,651.3947 441.3345,648.8181 446.9657,645.6717 452.3342,642.0551 461.3134,634.6712 471.2545,624.7523 480.0514,614.8588 502.6625,587.9417 515.6179,573.0765 530.5687,556.8801 547.877,539.2507"/>
    <polyline points="548.0315,539.6625 532.8973,555.1203 517.4028,571.904 504.051,587.2572 480.8832,614.9663 471.8955,625.118 461.7413,635.2643 452.5683,642.781 447.0839,646.4431 441.3323,649.6123 435.9256,651.9892 429.877,654.0063 424.2879,655.3313 418.3093,656.2672 399.7605,657.6369 393.1543,658.5104 385.9438,660.373 378.7001,663.3822 368.5705,669.1774 356.187,677.7633 339.1059,690.799 313.5264,711.2048"/>
    <polyline points="313.6359,712.0197 336.1693,694.5324 351.8895,683.0566 364.9284,674.6072 375.2531,669.2463 383.0581,666.3683 391.0616,664.6023 398.6541,663.8381 419.305,662.8865 425.9143,662.0368 431.8776,660.799 438.9468,658.6337 445.141,656.0309 450.9633,652.9284 457.0908,648.9389 462.7155,644.6086 468.6104,639.3948 473.9116,634.1511 480.4528,627.0448 490.7102,614.8477 522.6741,575.125 534.9244,560.8831 547.4735,547.0475"/>
    <polyline points="547.7268,548.2281 535.1688,562.272 524.7713,574.4895 491.7949,615.767 481.2251,628.3579 475.4156,634.6848 469.0049,641.0158 462.9161,646.3138 457.1054,650.6819 450.7769,654.6691 444.7681,657.7334 438.3826,660.2651 431.7444,662.1755 425.5711,663.3727 419.2847,664.1155 398.6643,664.9369 391.1269,665.6213 383.1914,667.2453 375.0995,670.0867 364.4312,675.4891 351.7886,683.5485 335.8612,695.054 314.9186,711.1968"/>
    <polyline points="314.9154,711.6546 336.0297,695.6197 351.3193,684.8602 363.8449,677.1897 374.165,672.2406 382.0462,669.627 390.3323,668.0497 398.1788,667.4428 419.8098,666.8603 426.7282,666.1119 432.8376,664.9809 439.3759,663.183 446.3562,660.5 452.9369,657.1746 458.9893,653.3877 465.3261,648.6488 471.0014,643.733 477.9492,636.8915 484.2464,629.9903 495.7212,616.1278 526.0159,577.4384 546.6072,553.0469"/>
    <polyline points="547.5145,554.7809 528.726,577.42 498.4523,616.5317 486.3187,631.3135 479.6653,638.6207 473.3491,644.8688 467.3102,650.1456 460.5717,655.1938 454.1404,659.1871 447.1551,662.6465 440.5554,665.1306 433.5868,667.0044 427.0876,668.144 419.7439,668.8495 397.8535,669.2131 389.969,669.7379 381.6284,671.2041 373.2535,673.8618 368.0472,676.1009 362.2643,679.0405 349.7375,686.631 334.7897,697.0417 314.7288,712.1436"/>
    <polyline points="314.9008,712.27 334.9958,697.2741 350.015,686.9835 361.9686,679.9116 372.7127,674.9775 380.9133,672.4343 389.6384,670.955 397.8921,670.4758 419.5898,670.2849 426.5131,669.713 433.2371,668.6539 440.459,666.8418 447.3093,664.3803 454.5694,660.8946 461.2599,656.8221 468.274,651.6266 474.5618,646.1581 481.1395,639.6486 488.0707,632.0019 500.7278,616.4597 530.472,577.7094 547.0523,557.4299"/>
    <polyline points="546.6674,556.24 530.1466,576.2035 498.01,617.7398 487.0226,631.1206 480.2893,638.5541 472.864,645.8671 466.8003,651.0729 460.0327,656.0353 453.5745,659.9433 446.5627,663.3096 439.9417,665.7088 432.9549,667.4996 426.4422,668.5709 419.7287,669.1776 397.6382,669.5088 390.1686,669.9874 381.748,671.4185 373.3105,674.0482 368.0723,676.2752 362.2581,679.2063 349.672,686.7943 334.6574,697.2239 314.5008,712.3777"/>
    <polyline points="315.1769,712.4289 334.0201,698.5087 349.4975,688.062 361.8243,680.9783 372.3548,676.3574 380.4218,673.9896 389.125,672.6157 397.3287,672.2079 420.3671,672.1994 427.7558,671.6148 434.1224,670.6342 440.9185,668.9991 448.1562,666.4934 454.8543,663.3958 461.8935,659.2687 469.2798,653.9293 475.9037,648.2489 482.8334,641.4316 490.1354,633.3687 500.6611,620.4905 530.778,580.8481 547.3912,560.0708"/>
    <polyline points="548.0315,561.2598 531.2967,582.4386 502.2368,620.9461 491.3733,634.2842 483.8386,642.6005 476.6878,649.6013 469.8528,655.4035 463.2992,660.1282 455.9908,664.4451 449.0407,667.6634 441.5367,670.2415 434.498,671.8984 427.9119,672.8673 420.2785,673.4109 397.0988,673.2714 389.1633,673.606 380.1561,674.9395 371.8171,677.3237 366.6194,679.3718 360.9199,682.0575 349.0831,688.7927 334.6,698.4404 315.901,712.1198"/>
    <polyline points="316.421,712.2347 333.8031,699.7051 348.7238,689.9807 360.9502,683.3016 371.6305,678.9527 379.8414,676.7979 388.8651,675.6243 397.3793,675.4009 420.1391,675.8348 427.4308,675.4557 434.4101,674.5908 441.889,672.9966 449.8828,670.4071 457.3023,667.0863 463.976,663.2797 470.9413,658.433 478.2101,652.4002 485.8155,645.0394 493.8285,636.2146 506.9231,619.9375 534.2728,583.2105 546.3279,567.5634"/>
    <polyline points="545.8382,571.1537 509.5909,619.871 501.7821,629.91 494.4717,638.6819 487.5356,646.2747 479.5995,653.9485 472.0173,660.1958 464.7555,665.1735 457.8033,669.0434 450.0831,672.3728 442.7868,674.658 434.9646,676.2778 428.5597,677.0479 420.8918,677.4288 397.0645,676.8112 388.8036,676.9542 380.0213,677.9633 371.5062,680.0449 365.8457,682.053 360.4666,684.3842 348.8488,690.5691 335.0955,699.3142 318.0679,711.3736"/>
    <polyline points="318.2623,711.5958 334.002,700.5452 348.1675,691.6248 360.1205,685.3835 370.7891,681.295 378.9853,679.3155 388.1395,678.2807 396.7408,678.1797 420.7691,678.9984 428.7388,678.6833 435.407,677.9427 443.5637,676.3129 451.183,673.9595 458.0735,671.0586 465.293,667.1637 472.8406,662.0978 480.7253,655.6826 488.9801,647.7449 496.1957,639.8481 503.8031,630.6873 511.9356,620.1673 547.253,572.3056"/>
    <polyline points="547.1237,576.0958 513.3272,622.3388 504.9061,633.2007 498.5586,640.8367 490.9926,649.1523 482.3413,657.4623 474.0819,664.1257 466.1811,669.336 458.6313,673.2926 451.4354,676.1925 443.4921,678.4898 436.0333,679.875 429.0455,680.5847 420.7104,680.8236 396.3661,679.769 388.0459,679.7864 379.1554,680.6489 370.6292,682.5468 365.3069,684.2907 359.567,686.6205 348.2386,692.3654 333.8618,701.2258 317.9141,712.2864"/>
    <polyline points="319.5108,711.8674 335.2521,701.2844 348.5311,693.4615 360.168,687.936 370.1053,684.5776 378.4355,682.8793 387.9541,682.1225 396.14,682.2376 421.4694,683.6638 429.424,683.5453 436.9144,682.9011 444.9323,681.5108 453.4932,679.0973 461.2644,675.9727 468.0417,672.4556 476.5317,666.9374 483.9079,661.0974 493.1483,652.4004 501.2284,643.5978 508.0059,635.4518 516.9997,623.7888 547.7994,581.0828"/>
    <polyline points="548.0315,582.8571 517.0162,625.9683 507.9093,637.6807 501.0328,645.8311 492.8232,654.5992 484.9612,661.9081 477.4012,667.8913 468.7029,673.5198 461.7628,677.0868 453.81,680.2324 445.0568,682.632 436.8675,683.9822 429.2251,684.5729 421.1174,684.6262 396.1019,683.0832 387.7239,682.9264 378.7405,683.5667 370.2552,685.1894 360.1636,688.4884 348.3708,693.9884 336.2934,700.9764 320.7978,711.2282"/>
    <polyline points="321.5825,712.2835 335.9273,703.2697 348.606,696.4769 359.1828,692.043 369.4089,689.1262 378.0493,687.8099 387.3542,687.4664 396.0037,687.8857 421.4634,690.1247 430.6658,690.3134 438.1065,689.9478 446.0419,688.9297 454.488,687.0219 461.9191,684.5547 469.7023,681.1015 477.8301,676.4723 486.2975,670.4711 495.1122,662.9026 504.3096,653.5803 511.998,644.7422 522.1526,631.8305 545.4618,599.108"/>
    <polyline points="546.7295,599.4981 531.8858,620.7116 523.0101,632.851 512.672,645.9626 504.8413,654.9113 495.4713,664.3172 486.4909,671.9172 477.8668,677.9087 469.5935,682.497 461.677,685.888 454.1257,688.2799 445.5519,690.0899 437.5057,691.0105 429.9685,691.2854 421.7759,691.0589 395.7875,688.6734 386.9708,688.2209 378.3472,688.4858 369.5622,689.7274 359.1921,692.5828 348.486,696.9867 337.0756,702.9701 322.9562,711.663"/>
    <polyline points="322.6937,711.8483 336.8725,703.1038 348.3214,697.0859 359.0559,692.6557 369.4462,689.7809 378.243,688.5276 386.8743,688.2552 395.6957,688.704 422.8219,691.1571 431.1043,691.3222 438.7255,690.9635 446.8602,689.9231 455.525,687.9507 463.1525,685.386 471.1443,681.7846 479.492,676.9457 488.1907,670.6626 497.2498,662.7302 504.7823,655.0651 512.6161,646.1256 522.9568,633.024 531.8327,620.8911 546.6724,599.6855"/>
    <polyline points="547.7325,603.8363 534.9187,622.2338 523.378,637.9368 514.7614,648.7095 506.5411,657.9992 498.635,665.9061 489.128,674.0084 480.0063,680.3404 471.2646,685.135 462.9113,688.6256 454.9563,691.036 447.4047,692.5736 438.8712,693.5269 430.895,693.7669 422.2466,693.4496 395.8969,690.7534 386.6183,690.1672 377.5601,690.3564 369.2746,691.423 359.487,693.9026 348.4839,698.1713 336.8012,704.0912 324.1548,711.6575"/>
    <polyline points="324.0648,711.8562 336.7593,704.2904 348.4905,698.3838 359.547,694.1413 369.3931,691.6971 377.7392,690.6685 386.8776,690.5258 396.2545,691.1593 421.7611,693.84 430.4459,694.2083 438.4587,694.0219 447.0354,693.1301 454.6292,691.6479 462.6329,689.2944 471.0416,685.8593 479.8453,681.1146 489.0348,674.822 498.6138,666.7431 506.5794,658.8395 514.8596,649.5364 523.5353,638.7311 535.1479,622.9575 548.0315,604.4544"/>
    <polyline points="545.8304,607.5378 533.1971,625.5759 523.9662,638.0618 513.1677,651.4225 504.9619,660.4365 497.0594,668.0741 487.5516,675.8547 480.2242,680.8098 471.4116,685.6175 462.9928,689.1067 454.978,691.5056 447.3722,693.025 438.7808,693.9516 430.7536,694.1634 422.0532,693.8148 396.5119,691.144 387.1327,690.4963 378.0012,690.6159 369.6713,691.6156 359.8579,694.016 348.8561,698.1975 337.2033,704.0262 324.6155,711.4929"/>
    <polyline points="325.0264,711.5622 337.6094,704.2095 349.2909,698.5017 359.3177,694.7692 369.3205,692.3482 377.8093,691.3646 387.1204,691.2912 395.7166,691.9072 422.8622,694.8284 430.4809,695.1638 438.6436,695.0176 447.3887,694.1499 455.1378,692.667 463.3106,690.2851 471.9018,686.7837 480.9007,681.9238 488.3863,676.8901 498.1026,668.9549 506.1807,661.1409 514.5712,651.8977 523.3501,641.1165 532.6466,628.6924 545.3166,610.6783"/>
    <polyline points="545.6156,618.7469 535.0588,633.652 525.2318,646.6028 515.9253,657.7252 507.0126,667.143 498.4243,674.9878 490.1282,681.401 482.115,686.5321 472.5009,691.3762 465.1408,694.1795 456.3659,696.5792 448.0686,697.9911 438.7348,698.7003 430.0525,698.6474 421.9738,698.1034 396.4289,694.9274 387.1975,694.0853 378.2388,693.9386 369.2193,694.7283 359.7456,696.7208 349.3148,700.2636 338.68,705.1198 326.0145,712.1495"/>
    <polyline points="327.6966,711.564 338.7208,705.5923 349.4545,700.7945 360.0057,697.337 369.6182,695.447 377.7908,694.7969 386.9363,694.975 396.3643,695.8758 422.5137,699.235 430.8054,699.8091 438.1941,699.9016 447.6793,699.3049 456.1213,697.9844 465.0596,695.6653 472.5643,692.9114 482.3759,688.0989 490.5597,682.9594 499.0361,676.4986 507.8133,668.5581 516.9227,658.988 526.4342,647.649 536.4776,634.4108 547.2697,619.1413"/>
    <polyline points="548.0315,626.0517 536.8577,641.6049 526.394,654.9474 518.8877,663.5927 509.2375,673.4274 499.939,681.4796 490.9664,687.9269 482.3171,692.9556 473.9993,696.7535 466.0236,699.5038 456.5472,701.7304 447.6228,702.8949 439.2408,703.263 431.3782,703.0595 422.5796,702.32 396.1097,698.5642 387.2062,697.5777 378.5795,697.204 369.9593,697.6366 361.0361,699.0818 351.431,701.7951 340.6442,706.1297 329.6849,711.6614"/>
    <polyline points="328.5659,711.8637 339.6109,706.1121 350.4263,701.5589 360.0011,698.6467 369.9154,696.8861 378.3815,696.3863 386.8361,696.6781 395.541,697.5747 422.6774,701.2937 431.313,701.9702 439.0227,702.1272 447.2342,701.7257 455.9692,700.5505 465.237,698.348 473.0321,695.6515 481.1577,691.9474 489.604,687.0616 498.3632,680.8155 507.4377,673.0319 516.851,663.5414 524.1679,655.2081 534.3552,642.3589 545.2089,627.3934"/>
    <polyline points="545.9444,641.2907 537.1504,652.9344 528.7238,663.1695 520.5878,672.074 510.1157,682.0213 502.5152,688.1549 492.7069,694.7464 483.276,699.74 474.2362,703.3696 465.6011,705.8589 457.3791,707.4156 449.571,708.2267 440.3812,708.4407 431.7968,708.018 423.774,707.1805 396.1341,702.7415 386.4203,701.4743 378.2015,700.9409 370.0215,701.1017 360.4118,702.3371 351.4525,704.5508 341.5954,708.0865 332.0585,712.4409"/>
    <polyline points="334.296,712.0627 343.6912,708.0696 353.4878,704.9042 362.4794,703.0261 371.0249,702.1918 379.4122,702.2141 387.8874,702.9326 422.1279,708.491 430.2555,709.4749 438.9605,710.0755 448.2928,710.0681 456.2345,709.4393 464.6104,708.0746 473.4217,705.7799 482.6611,702.3376 492.3144,697.5108 502.366,691.0504 510.1604,684.9809 520.902,675.058 529.2449,666.1159 537.8799,655.787 546.8817,643.9871"/>
    <polyline points="547.3649,645.6058 538.2441,657.4843 529.4896,667.8558 521.0278,676.8083 510.1318,686.7031 502.2268,692.7262 492.0371,699.1 484.6634,702.7817 475.2038,706.434 466.183,708.8773 457.6097,710.3402 449.4838,711.0272 439.9405,711.0649 431.0456,710.4611 422.7483,709.4521 387.889,703.679 379.2829,702.9147 370.7706,702.863 362.0987,703.6885 352.9708,705.5832 344.5062,708.2459 335.1342,712.0921"/>
    <polyline points="336.1415,712.2554 345.5081,708.5945 355.3602,705.791 364.4929,704.2604 373.263,703.7659 380.7138,704.0245 388.2741,704.8019 422.501,710.6701 430.9635,711.7591 440.045,712.4409"/>
    <polyline points="461.6423,712.4409 473.0942,710.0335 480.3228,707.7265 485.2874,705.7618 495.5558,700.6526 506.2606,693.7308 517.3916,684.7068 526.0284,676.3903 537.9805,663.027 547.3491,651.1676"/>
    <polyline points="548.0315,647.649 538.7522,659.6337 529.839,670.0635 521.2202,679.0321 512.8561,686.6404 504.7284,692.9968 494.2533,699.7225 484.2019,704.7027 474.592,708.2103 465.4392,710.504 456.7513,711.8201 448.5264,712.3689 438.8782,712.2509 423.1498,710.6416 387.5729,704.6055 378.8039,703.8042 371.3712,703.7003 362.5659,704.4085 354.6866,705.866 346.2592,708.2698 336.9918,711.8249"/>
    <polyline points="339.8757,711.9873 347.6093,709.3451 356.1851,707.2195 364.2656,706.0464 373.3779,705.6791 381.1426,706.0807 389.0486,707.0252 418.4477,712.4409"/>
    <polyline points="396.8504,712.4409 382.318,710.0191 369.772,709.2086 364.1753,709.3829 358.4727,709.9435 352.5895,710.9376 346.4402,712.421"/>
    <polyline points="353.6558,712.4409 361.1758,711.4837 368.4786,711.1977 375.7102,711.4934 383.0016,712.2911"/>
    <polyline points="375.2531,712.4409 367.8875,712.128 360.4456,712.4175"/>
    <polyline points="313.4748,712.3647 334.9397,695.7966 351.1786,684.0409 364.0154,675.8325 374.8119,670.3434 382.9821,667.4621 390.9828,665.8194 398.5763,665.1318 419.3496,664.3226 425.6854,663.5769 431.9087,662.3696 438.6019,660.4379 445.041,657.874 451.1008,654.7678 457.4833,650.7234 463.3442,646.2908 469.4868,640.9132 475.9563,634.486 481.8225,628.0623 492.5087,615.2769 524.1143,575.6116 534.383,563.475 546.7583,549.5469"/>
    <polyline points="545.6938,535.7021 526.5849,553.8542 507.9467,572.6112 495.5488,585.8261 472.0662,611.9524 463.4392,621.1184 455.877,628.3949 448.5951,634.4406 443.2496,638.1769 438.2739,641.0924 433.2685,643.4809 427.9607,645.4422 422.818,646.8256 417.6225,647.7727 401.4178,649.2024 396.2554,649.9905 390.477,651.7107 384.4586,654.596 375.9663,660.0741 364.3601,668.8434 312.4131,711.2466"/>
    <polyline points="282.274,711.6877 288.9851,703.2451 296.4293,693.027 301.0797,685.9954 306.2573,677.3008 310.4612,669.2463 314.6002,659.9079 317.7348,651.2326 320.0631,643.1065 322.7061,629.6223 324.0032,616.0804 324.2424,607.3941 324.1027,598.2147 322.3315,567.7943 322.0873,557.6669 322.3158,552.3835 322.8627,548.1861 323.7421,544.9871 324.9987,542.8464 326.016,542.1803 327.1028,542.2178 328.1615,542.9823 328.9768,544.3277 329.1966,545.8099 328.4885,544.914 327.771,545.8693 327.5773,549.2461 328.3127,554.2254 329.9483,560.2824 332.2384,566.5735 335.0783,572.9485 338.4032,579.2899 342.0194,585.2598 348.3504,593.9959 355.1312,601.3606 358.7178,604.4835 362.0288,606.8914 365.3265,608.8262 368.607,610.2787 371.873,611.2446 374.861,611.7008 378.1245,611.7286 381.1299,611.3216 384.434,610.4017 387.4932,609.1159 393.7076,605.233 400.012,599.4763 405.7053,592.3727 410.6226,584.0823 414.381,575.3445 416.5907,568.2698 418.271,560.7631 419.416,552.9125 420.043,544.8665 420.2005,536.8529 419.8828,527.5282 419.1317,518.4968 417.7872,508.0211 416.1485,498.3514 413.8525,487.2669 410.6961,474.4435 407.5969,463.436 400.5383,441.7627 394.776,426.2764 390.0938,414.6866"/>
    <polyline points="395.6621,411.1863 406.7315,439.0966 411.6126,452.9805 416.6633,468.888 420.4684,482.3938 423.3517,493.9798 426.0005,506.3138 428.1701,518.6527 429.5645,528.9269 430.6007,540.2132 431.0162,550.4739 430.8387,560.5137 430.1096,569.2545 428.7255,577.9468 426.7828,585.7585 424.3435,592.766 420.0631,601.6842 414.526,610.1232 407.9078,617.7511 404.3862,621.0053 401.0233,623.6029 395.4473,626.6593 392.7579,627.4938 390.0146,627.8857 387.2731,627.8243 384.3453,627.2983 378.1352,624.8644 374.0795,622.4908 369.9476,619.5453 365.6128,615.9388 361.1514,611.701 352.5543,602.0037 344.6155,590.9981 340.3287,583.9915 336.3256,576.4928 333.0387,569.2925 330.3541,562.1553 328.4724,555.5287 327.537,549.822 327.4945,547.2862 327.8177,545.4897 328.5153,544.8631 328.9695,545.2143 329.133,545.8549 329.3167,545.6795 328.8485,543.4049 327.7142,541.5699 326.3061,540.4632 324.7691,540.2184 323.3264,540.8768 321.7753,542.7795 320.5595,545.5773 319.5622,549.4368 318.8283,554.2377 318.1181,564.9081 317.7596,596.2278 316.8581,613.1561 314.7743,629.3266 312.9735,638.1916 311.0295,645.7064 308.5308,653.6435 305.3562,662.063 301.3575,671.047 297.7077,678.2217 293.3944,685.8391 288.2996,693.9796 282.2771,702.7469 275.1426,712.2762"/>
    <polyline points="483.2396,712.4409 491.3277,709.1844 499.702,704.9114 508.3522,699.4776 514.2685,695.138 523.3665,687.4463 529.5857,681.47 539.1667,671.1353 545.7461,663.2787"/>
    <polyline points="548.0315,669.2463 541.0732,677.309 534.2766,684.5179 527.6252,690.9158 521.1096,696.5484 514.7258,701.4632 508.4732,705.7096 502.3536,709.3377 496.3705,712.3979"/>
    <polyline points="495.5465,711.9085 501.4602,708.9049 507.5082,705.3456 513.6875,701.1816 519.996,696.3637 526.4342,690.8436 533.0057,684.5748 539.7194,677.5125 546.5908,669.6147"/>
    <polyline points="545.5642,678.5889 534.8875,689.773 524.551,699.0234 514.5339,706.5173 504.8369,712.4409"/>
    <polyline points="524.9324,711.1309 536.2912,702.0884 548.0315,690.8436"/>
    <polyline points="546.0103,695.7488 538.0495,703.179 526.4342,712.4409"/>
    <polyline points="546.2883,592.9988 529.5204,616.8074 519.0543,631.0868 509.3835,643.3177 502.0563,651.7311 493.288,660.6584 484.8812,667.9651 476.8004,673.817 469.0357,678.3878 461.5898,681.8525 454.4689,684.3818 446.3589,686.4079 437.4945,687.6951 430.393,688.1232 421.5908,688.0498 396.3062,686.0817 387.2274,685.7439 378.3349,686.1969 370.0598,687.5551 360.2646,690.4287 349.053,695.2453 336.7358,701.9839 320.8983,711.9876 335.2069,702.7271 347.7733,695.6632 359.1248,690.5791 364.6265,688.6871 369.8116,687.2921 378.8272,685.7895 387.6277,685.3576 396.6233,685.6928 421.6857,687.5858 430.4049,687.6297 437.436,687.1829 446.2083,685.8828 454.2303,683.8589 462.7182,680.7374 470.1419,677.1016 477.8781,672.3469 485.9259,666.3025 494.2988,658.8003 503.0382,649.6805 510.3518,641.1189 520.0272,628.7134 547.4696,590.2413"/>
    <polyline points="546.3084,529.8966 524.6596,548.7932 506.3176,565.2763 487.4405,582.9028 458.0939,611.2656 451.1017,617.562 445.1823,622.3872 440.2988,625.8838 435.7529,628.6621 431.1496,630.946 426.8357,632.555 422.4978,633.5983 418.3876,633.9547 414.9237,633.5617 412.5389,632.4762 411.6771,631.4983 411.2789,630.2729 411.3506,628.7674 411.8776,626.9916 413.795,623.1314 420.9994,610.9702 424.4051,604.2386 427.8029,595.6782 430.3288,586.6954 432.082,576.9242 433.0495,566.5179 433.278,555.7165 432.7728,543.5225 431.4655,530.2357 429.0928,514.6567 425.9483,499.0979 421.8099,482.3705 416.817,465.1686 411.3525,448.5872 404.032,428.7631 396.8706,411.2201"/>
    <polyline points="398.1384,411.3279 409.2508,439.2229 418.1497,465.2175 422.3209,479.2113 425.5175,491.168 430.6967,514.519 434.0118,535.6681 435.64,554.2617 435.935,565.0356 435.7176,575.2532 433.4895,602.0179 433.9137,606.002 434.5098,607.3506 435.3453,608.2656 436.7685,608.9056 438.6988,608.9895 441.0998,608.488 443.8386,607.4595 450.7592,603.6993 459.9831,597.373 483.0496,579.2158 546.8956,526.4541"/>
    <polyline points="546.2471,525.7645 496.8841,565.2441 481.9074,576.6414 469.9086,585.1414 460.4504,590.9857 453.1108,594.3955 450.2563,595.196 447.7348,595.4524 445.6865,595.1426 443.9299,594.216 442.8025,593.0331 441.8205,591.2877 440.4634,586.1414 439.7611,579.5621 438.1015,554.3916 436.2399,537.7409 432.9791,517.8778 428.183,496.0679 422.5807,475.4352 415.2383,452.4989 408.3153,433.4818 398.9799,410.4913"/>
    <polyline points="400.7011,410.35 408.0047,428.0309 415.5164,447.9543 421.1836,464.5662 426.454,481.7388 431.5768,500.7913 435.8016,519.2924 438.7387,534.5404 443.2369,561.9404 444.9265,570.3349 446.1547,574.602 447.4044,577.6468 448.9903,580.2141 450.6772,581.9128 452.6503,583.0465 454.967,583.6274 457.6967,583.6428 460.5782,583.1412 467.9112,580.4417 477.585,575.1939 489.6692,567.3168 504.6326,556.554 522.8704,542.6915 547.3077,523.513"/>
    <polyline points="546.5285,523.9298 522.3325,542.827 504.2411,556.4663 489.3786,567.0105 478.0459,574.2523 468.7212,579.1906 461.5246,581.7567 458.5132,582.2436 455.666,582.1701 453.4766,581.5829 451.3883,580.3623 449.601,578.5285 448.0576,576.0363 446.7026,572.8059 445.3582,568.2502 443.5927,559.8784 438.455,530.5517 435.458,515.8609 431.3913,498.6862 425.9737,479.0258 420.3888,461.2456 414.3682,443.9969 408.5914,428.8169 401.3636,411.2618"/>
    <polyline points="401.4943,411.6594 408.6865,429.1594 414.4359,444.2945 420.429,461.4953 425.9889,479.2303 431.3822,498.8459 435.8272,517.8259 438.6728,532.0521 443.5028,559.9526 445.2429,568.3274 446.5657,572.8905 447.8978,576.1312 449.5788,578.8512 451.362,580.6413 453.4464,581.8262 455.632,582.387 458.474,582.4366 461.4795,581.9325 468.66,579.3445 477.9596,574.3994 489.256,567.1671 504.0615,556.6531 522.0695,543.0699 546.1299,524.2739"/>
    <polyline points="546.7028,524.9147 500.5754,561.3992 485.1642,572.9075 473.2345,581.1325 463.5388,586.8909 456.1427,590.103 453.086,590.8469 450.5504,590.9996 448.4454,590.611 446.5706,589.604 445.1553,588.1288 443.9942,586.0986 442.2603,580.0963 441.2296,572.9416 438.4863,547.0863 436.246,531.4583 432.7787,512.9019 427.8346,491.9231 422.6704,473.5571 416.5188,454.4431 409.8015,435.8234 400.7725,413.3364"/>
    <polyline points="399.9576,414.8882 408.781,437.0992 417.9708,463.5831 424.8325,487.0951 430.1216,509.5186 433.633,529.2686 435.7274,546.9463 436.4638,557.9549 436.7218,568.3059 435.9904,596.7655 436.6781,601.1934 437.3845,602.6812 438.3743,603.7366 439.8625,604.4144 441.818,604.5433 444.182,604.11 447.1511,603.0523 454.4452,599.1789 463.6769,592.9877 474.8438,584.6235 489.3112,573.1712 547.8828,525.2726"/>
    <polyline points="546.931,527.8158 510.8324,558.6112 461.1896,602.4968 448.7353,612.8753 440.3762,618.7777 433.3737,622.4801 430.1709,623.5973 427.4347,624.1118 425.1605,624.0265 423.5097,623.3264 422.7566,622.4781 422.3361,621.3142 422.524,617.9861 423.6595,614.1119 428.0902,601.8517 430.1609,594.8872 432.14,585.905 433.4785,576.2772 434.1395,566.5963 434.212,556.0104 433.6977,545.1777 432.6247,533.9042 430.8624,521.2959 428.3327,507.4774 425.0333,492.7869 421.0944,477.8461 416.8307,463.5908 411.1879,446.7183 405.7354,431.9256 398.8887,414.8768"/>
    <polyline points="399.1263,415.8928 405.8823,432.8035 411.2638,447.4835 416.8336,464.2364 421.9253,481.5998 425.5592,495.9055 428.6015,510.0238 431.1759,525.0386 432.7959,538.2252 433.6373,549.6789 433.8559,561.1438 433.4322,571.1689 432.3779,580.7042 430.6169,589.9191 428.0506,598.9021 425.5026,605.6731 419.9877,617.9342 418.5445,621.8452 418.1983,625.1652 418.6145,626.3855 419.4241,627.3038 421.2765,628.1179 423.8997,628.2979 427.013,627.8346 430.5398,626.7509 434.3305,625.0869 438.2317,622.9329 446.7846,616.9867 459.008,606.6347 506.4818,563.361 546.9048,528.3857"/>
    <polyline points="545.9513,528.6557 510.3187,559.0791 461.0488,602.6758 448.6316,613.0234 440.2835,618.9116 433.146,622.6605 429.9678,623.7472 427.2537,624.2366 425.0005,624.1305 423.3692,623.4142 422.6287,622.5568 422.2203,621.3855 422.4141,618.1228 423.5474,614.2677 428.1025,601.7216 430.2526,594.4465 432.2332,585.2745 433.5509,575.3967 434.1673,565.4151 434.1622,554.4448 433.535,543.1602 432.3061,531.3559 430.3204,518.0837 427.4829,503.456 423.7797,487.8166 419.3453,471.8223 414.5252,456.4838 408.1133,438.2379 401.8837,422.1665 396.6959,410.1799 403.9541,427.8668 409.7192,443.1872 415.6697,460.6293 421.0943,478.6555 424.9574,493.4645 428.1874,508.0393 430.9215,523.4927 432.6493,537.0226 433.5606,548.7413 433.8279,560.4391 433.3861,571.2275 432.3193,580.7565 430.5409,589.9702 427.9471,598.9592 425.2958,605.9098 419.6568,618.2334 418.1878,622.1281 417.81,625.4456 418.209,626.6716 419.0006,627.6008 420.8888,628.4562 423.5087,628.6575 426.7359,628.197 430.285,627.1219 434.0959,625.466 438.0136,623.3183 446.5854,617.3805 458.7902,607.0408 505.7891,564.0697 545.4486,529.6775"/>
    <polyline points="545.2664,524.3898 523.4243,541.2609 504.9454,554.9652 490.8014,564.7454 479.7448,571.556 470.9723,575.9731 466.9783,577.488 463.549,578.4007 460.5847,578.7777 457.71,578.6145 455.4963,577.9729 453.3257,576.6994 451.4353,574.8254 449.5971,571.9852 447.963,568.2445 446.4513,563.4367 444.496,555.159 439.0171,527.5145 435.1195,509.9714 430.2502,491.0038 424.8258,472.5448 415.232,444.2969 409.4661,429.1685 402.2613,411.6693"/>
    <polyline points="406.5362,412.3461 417.7726,439.9864 428.2543,469.2072 435.1489,490.8652 446.907,531.7291 451.0137,544.361 453.5712,550.5363 455.8475,554.793 458.2494,558.1386 460.8518,560.6744 463.297,562.252 465.9903,563.3016 468.9842,563.8277 471.7523,563.8579 475.4636,563.38 478.9395,562.5221 488.1522,558.942 499.0884,553.1567 512.0457,545.0816 527.3217,534.5889 545.1459,521.5831"/>
    <polyline points="546.0332,522.3039 525.9152,537.4086 509.5213,549.1028 496.1286,557.9013 485.1431,564.2002 476.0968,568.2645 472.3998,569.4464 468.6254,570.2196 465.7767,570.4091 462.83,570.114 460.2236,569.2821 457.8995,567.9156 455.5237,565.677 453.3792,562.6616 451.3944,558.7739 449.2532,553.1744 446.0396,542.1445 435.2312,499.6885 427.6685,474.1378 418.2305,446.583 412.6172,431.8256 405.6393,414.7575"/>
    <polyline points="407.8158,415.5709 418.63,442.508 428.7578,471.055 435.4468,492.2661 446.9292,532.4263 450.9697,544.8818 453.4931,550.979 455.7422,555.1854 458.4711,558.8998 461.0797,561.3017 463.5363,562.7775 466.2465,563.7341 469.2628,564.1732 472.054,564.1338 475.799,563.5741 479.3091,562.6475 488.6224,558.907 499.6959,552.9488 512.8406,544.672 528.3729,533.9307 546.5453,520.6088"/>
    <polyline points="545.8627,519.2733 527.7199,532.0306 513.8981,541.0268 501.6387,548.1217 491.9897,552.7435 483.3233,555.6995 480.0365,556.3774 476.32,556.7341 472.9733,556.5777 469.9373,555.9286 467.161,554.7938 464.5993,553.1678 461.2943,550.0289 458.2169,545.7934 455.2487,540.3024 452.2503,533.314 448.0489,521.5352 436.6672,485.973 428.8425,462.9393 419.0178,436.6608 409.867,414.4217"/>
    <polyline points="411.3314,414.6311 420.5052,436.8121 428.9971,459.1148 436.374,480.0249 448.5879,516.3459 453.3941,529.1352 456.8081,536.63 459.6985,541.7057 463.1789,546.3031 466.359,549.2434 469.2136,551.0455 471.6676,552.0802 474.9936,552.8717 477.8991,553.0995 481.8949,552.86 485.4339,552.2256 493.647,549.6453 503.8489,544.9883 515.059,538.7181 529.3258,529.6671 545.0802,518.8147"/>
    <polyline points="545.1709,516.1644 529.2106,526.5265 516.5967,533.8782 506.3596,538.991 496.5926,542.7634 488.5453,544.6215 481.7656,544.8424 479.164,544.4744 475.9266,543.5651 472.9126,542.1783 470.081,540.3052 466.09,536.538 462.2896,531.5153 458.5361,525.0512 454.6568,516.8683 448.8823,502.5581 429.7595,451.2128 422.1996,432.2814 415.0588,415.3871"/>
    <polyline points="416.1072,412.6053 429.6316,444.6762 449.0096,494.3653 455.7757,510.4121 460.2732,519.458 463.8864,525.4569 468.2509,531.104 472.0366,534.6739 475.2322,536.8503 477.7587,538.1044 481.3413,539.2835 484.2187,539.7991 488.3578,539.9868 491.7266,539.7402 499.2939,538.179 508.2596,535.0165 519.0994,529.9202 532.5154,522.3574 546.4338,513.5627"/>
    <polyline points="546.7166,514.2577 532.8012,523.2469 519.3989,531.0639 508.5819,536.4441 498.3064,540.3505 489.8669,542.1945 486.6834,542.4335 482.7676,542.2748 480.0435,541.8094 476.6511,540.7347 474.2597,539.5876 471.2382,537.5944 467.6679,534.3248 463.5731,529.16 459.533,522.4514 455.3551,513.8989 449.116,498.8341 428.1365,444.008 414.5416,411.6401"/>
    <polyline points="411.4011,412.1713 420.8764,434.7849 428.108,453.349 436.182,475.5144 448.1785,510.0241 453.6097,524.26 457.3983,532.5234 460.5739,538.0811 464.3743,543.0805 467.8362,546.251 470.9418,548.1734 473.6131,549.26 476.4855,549.9506 479.5947,550.2417 482.981,550.122 486.6912,549.5715 495.3154,547.0463 506.0672,542.2691 517.9429,535.7012 530.7279,527.6895 546.962,516.639"/>
    <polyline points="548.0315,518.0652 529.367,531.3807 515.2051,540.801 502.6861,548.2952 491.7803,553.7526 483.2003,556.8655 479.1787,557.7688 475.5804,558.1508 472.3384,558.0455 469.3971,557.473 466.7086,556.441 463.757,554.5903 460.6081,551.5486 457.6786,547.4691 454.86,542.2041 452.0247,535.5303 448.0814,524.3362 435.8289,485.3598 427.9571,462.0603 418.0161,435.4714 408.7243,412.9603"/>
    <polyline points="418.1415,414.8434 429.5359,441.6789 448.8024,490.1674 456.0724,507.1716 460.8688,516.6973 464.7083,522.9834 469.3382,528.8673 473.3527,532.5579 476.7439,534.7852 479.4277,536.0519 485.2613,537.5677 489.5816,537.8183 493.0999,537.5928 501.0141,536.0015 510.4173,532.6976 521.8316,527.3171 533.4297,520.8307 547.6313,511.9667"/>
    <polyline points="546.2048,510.9517 534.7285,517.7954 522.7654,524.1319 512.7993,528.5096 502.7998,531.6789 498.4265,532.5305 494.3938,532.9396 490.6542,532.9293 487.1668,532.5154 483.8951,531.7065 480.8063,530.505 477.8699,528.9073 475.0572,526.9032 470.5672,522.6129 466.2083,517.0262 461.832,509.9587 457.2595,501.1427 450.0686,485.1097 430.5661,437.914 418.4477,410.0787"/>
    <polyline points="422.5085,413.0381 450.4654,477.5383 458.6647,495.0976 463.8511,504.6333 468.8115,512.1878 473.7622,518.0683 477.8373,521.709 481.016,523.8667 484.3384,525.555 490.2939,527.351 496.9321,527.8702 504.4698,527.0494 513.1819,524.7517 523.4347,520.7441 535.7401,514.6589 547.5537,507.9188"/>
    <polyline points="545.9084,507.7395 534.2858,514.0813 522.1448,519.6931 513.8925,522.6686 504.9704,524.7987 497.2452,525.377 490.4289,524.5371 484.2924,522.3326 478.6403,518.7468 474.3457,514.8283 469.107,508.4881 464.8939,502.1154 459.3974,492.2391 450.6901,473.9415 423.5648,412.2996"/>
    <polyline points="424.9398,411.8288 451.1005,470.3112 460.3606,489.3401 466.2023,499.5411 470.6851,506.0824 475.146,511.3869 479.6998,515.586 485.6826,519.4135 489.5043,520.9909 492.1766,521.7489 496.4074,522.4449 499.399,522.6109 505.8713,522.2017 515.0936,520.1975 523.6303,517.2487 533.4955,512.8987 545.0672,506.8667"/>
    <polyline points="545.4965,508.1388 533.9473,514.4424 521.8772,520.0272 513.6702,522.994 504.795,525.1262 497.1093,525.7195 490.3282,524.9067 484.2247,522.742 478.6055,519.2101 474.3388,515.3466 469.1393,509.0933 464.9633,502.808 459.5245,493.0702 450.9335,475.0426 424.3525,414.4548"/>
    <polyline points="427.435,411.3956 451.1075,462.9908 457.2476,475.6521 462.7536,486.0565 467.8836,494.5946 472.8336,501.5521 477.7612,507.136 482.8012,511.4924 486.7297,514.0141 489.4478,515.3553 495.1924,517.2399 501.4602,518.0618 508.4036,517.7871 516.2061,516.3377 525.0985,513.5823 535.3824,509.3192 547.4659,503.2505"/>
    <polyline points="545.6633,501.5125 536.5009,505.7551 525.8753,509.762 518.8641,511.6966 510.5282,513.0192 503.1133,513.0319 496.4111,511.8144 490.2478,509.3938 484.4692,505.7491 480.2998,502.1725 474.841,496.1878 469.3486,488.6563 463.6342,479.3373 459.0628,470.9769 452.3437,457.6442 432.3139,415.1984"/>
    <polyline points="434.5137,411.9449 453.7185,451.3266 461.1451,465.4786 466.2013,474.2849 472.5382,484.0148 477.1361,490.0052 481.7072,495.0056 486.3348,499.1018 492.7251,503.2606 499.5302,506.0087 506.9361,507.3744 513.01,507.4748 521.9988,506.3053 529.5727,504.3653 538.0363,501.405 547.5924,497.2837"/>
    <polyline points="548.0315,496.4679 538.3916,500.5764 529.855,503.5063 522.2156,505.3998 513.147,506.4831 507.016,506.2996 503.1878,505.7253 499.5342,504.7964 494.3252,502.7403 487.7617,498.7388 483.0249,494.748 478.3598,489.845 473.682,483.9463 467.2587,474.3335 462.1525,465.614 454.6794,451.5805 435.4639,412.4697"/>
    <polyline points="439.2789,410.1975 455.1224,441.2782 461.6423,453.2733 467.5994,463.4097 473.1907,471.9573 478.5723,479.1234 483.8735,485.0651 489.2059,489.8998 494.6711,493.7113 500.3665,496.5545 506.3909,498.4579 512.8492,499.4246 519.8588,499.4317 527.5562,498.4273 536.1052,496.3267 545.7096,493.0037"/>
    <polyline points="545.687,492.245 539.129,494.5458 530.2139,496.9388 522.2122,498.1837 514.9466,498.3764 508.2711,497.5768 502.061,495.8141 496.2055,493.09 490.6017,489.3798 485.1486,484.6313 479.7422,478.7632 474.2685,471.6597 468.5968,463.1649 462.5692,453.0726 455.9879,441.1133 440.045,410.0787"/>
    <polyline points="440.7903,411.226 456.6054,441.9083 463.1568,453.731 469.1705,463.7045 474.8416,472.0937 480.3261,479.101 485.7537,484.8792 491.2381,489.5412 496.8835,493.1662 502.7914,495.8036 509.0662,497.4759 515.8204,498.1785 523.1814,497.8791 531.299,496.514 540.3558,493.9821 547.026,491.5753"/>
    <polyline points="547.9901,490.4499 541.2146,492.8862 532.0198,495.4373 523.7823,496.7952 516.3145,497.0632 509.4623,496.3059 503.0946,494.5556 497.0957,491.8156 491.3577,488.0612 487.6256,484.9697 482.0877,479.3915 476.5196,472.5864 470.7916,464.4077 464.7498,454.6596 458.2027,443.0853 442.5221,413.0107"/>
    <polyline points="446.6255,415.3687 462.3414,444.4303 469.0243,455.5522 473.2241,461.9441 479.286,470.1862 483.2396,474.8706 489.1446,480.7981 493.1199,484.0685 499.2303,488.0169 505.6224,490.8659 512.4171,492.6414 517.2347,493.2268 524.9999,493.183 530.6075,492.5114 539.8091,490.4675 546.5711,488.3533"/>
    <polyline points="545.9559,483.1474 539.0275,484.792 532.6073,485.7818 526.6204,486.1571 518.3124,485.6291 513.1406,484.5745 508.2041,482.9663 503.4567,480.8024 496.5944,476.4907 492.1292,472.876 487.7002,468.6344 483.2609,463.7249 476.4706,454.9928 471.7716,448.1614 464.2919,436.1836 449.9125,410.6189"/>
    <polyline points="455.866,413.5819 464.8873,429.0752 470.3847,437.8915 480.5937,452.4687 485.4646,458.4242 490.2687,463.5913 495.0636,468.0269 499.9027,471.7756 504.8369,474.8706 509.9158,477.3353 515.1898,479.183 520.7113,480.4179 526.5363,481.0345 532.7264,481.0174 539.3507,480.3399 546.4884,478.9634"/>
    <polyline points="544.513,478.0504 534.1282,479.3981 527.7847,479.4349 521.8189,478.8169 516.1666,477.5604 510.7689,475.6715 505.5713,473.1458 500.521,469.9691 495.566,466.1171 490.6533,461.5548 485.7268,456.2353 480.7257,450.0985 475.5823,443.0696 470.2189,435.0559 458.449,415.5972"/>
    <polyline points="461.0826,415.5202 473.0818,434.7395 478.5879,442.6191 483.8937,449.5024 489.0785,455.4803 494.212,460.6254 501.9529,466.9039 507.2255,470.1895 512.6537,472.787 518.2945,474.7111 524.2073,475.9656 530.4558,476.5434 537.1106,476.4255 548.0315,474.8706"/>
    <polyline points="547.1663,473.9547 536.2645,475.2422 529.609,475.172 523.3491,474.3952 514.5478,471.9372 508.9801,469.4386 503.5827,466.2389 495.6781,460.068 490.4486,454.982 485.1769,449.0543 479.7922,442.2126 474.2141,434.3666 462.088,415.1906"/>
    <polyline points="461.6423,410.0787 474.3759,430.1799 483.0415,442.075 488.5894,448.7182 494.0506,454.4366 502.2371,461.427 507.7878,465.1011 513.4865,468.0259 519.3964,470.2206 522.4508,471.0468 528.8013,472.1556 535.5355,472.5283 546.5368,471.6468"/>
    <polyline points="544.7535,465.6088 537.1166,465.6733 533.4843,465.3857 526.5334,464.1873 523.1932,463.2802 516.7326,460.8519 513.5928,459.3285 507.4473,455.6505 498.4237,448.4893 489.3994,439.1915 480.0801,427.4849 470.1105,412.9797"/>
    <polyline points="470.3746,412.7971 480.38,427.3045 489.7379,439.005 498.8055,448.2886 507.8786,455.4272 514.0614,459.0849 517.2215,460.5966 523.7263,462.9977 527.0907,463.8891 534.0946,465.0518 537.7561,465.3191 545.4577,465.2082"/>
    <polyline points="546.0093,456.5795 537.8327,455.9865 530.136,454.4183 522.8135,451.888 519.2618,450.2608 512.3185,446.2688 505.5107,441.261 498.7427,435.1801 491.9129,427.946 481.3026,414.6937"/>
    <polyline points="484.3953,413.6212 495.3504,426.7052 502.4431,433.7897 509.5056,439.6888 516.6451,444.479 523.9635,448.2131 531.5625,450.9212 539.5473,452.6124 548.0315,453.2733"/>
    <polyline points="547.7457,451.953 539.2079,451.1354 531.1622,449.2685 523.4934,446.3625 516.0937,442.4049 508.8589,437.361 501.6831,431.1728 494.4546,423.757 483.2396,410.0787"/>
    <polyline points="486.1722,411.3665 493.7753,420.5223 501.1735,428.2814 508.4967,434.7643 515.8625,440.0613 523.3812,444.236 531.1612,447.3273 539.3134,449.351 547.9564,450.2991"/>
    <polyline points="544.2896,438.078 535.1632,435.5131 530.7579,433.7546 522.1749,429.2729 513.7807,423.4658 509.6108,420.0429 501.2343,412.0956"/>
    <polyline points="504.8369,410.0787 513.5648,417.9136 517.9241,421.2601 526.7306,426.8724 535.7792,431.0982 545.2206,433.9731"/>
    <polyline points="548.0315,431.676 538.2651,428.8914 528.923,424.7049 519.8458,419.083 510.8747,411.9557"/>
    <polyline points="526.4342,410.0787 531.4742,413.1805 536.5766,415.8651 541.7654,418.14 547.065,420.0099"/>
    <polyline points="545.6125,501.2267 536.4409,505.4304 525.8023,509.379 518.7803,511.2646 510.4281,512.5135 502.9939,512.4414 496.2685,511.1257 490.0763,508.5904 484.2615,504.8105 480.0584,501.116 474.5431,494.9465 468.9763,487.1907 463.162,477.5956 458.4926,468.9843 451.5995,455.2406 430.855,411.3741"/>
  </g>
</svg>
