<?xml version="1.0" encoding="utf-8" ?>
<svg xmlns="http://www.w3.org/2000/svg" xmlns:cc="http://creativecommons.org/ns#" xmlns:dc="http://purl.org/dc/elements/1.1/" xmlns:ev="http://www.w3.org/2001/xml-events" xmlns:inkscape="http://www.inkscape.org/namespaces/inkscape" xmlns:rdf="http://www.w3.org/1999/02/22-rdf-syntax-ns#" xmlns:sodipodi="http://sodipodi.sourceforge.net/DTD/sodipodi-0.dtd" xmlns:xlink="http://www.w3.org/1999/xlink" baseProfile="tiny" height="29.7cm" version="1.2" viewBox="0 0 793.7007874015749 1122.5196850393702" width="21.0cm">
  <metadata>
    <rdf:RDF>
      <cc:Work>
        <dc:format>image/svg+xml</dc:format>
        <dc:source/>
        <dc:date>2022-01-28T21:55:16.254935</dc:date>
      </cc:Work>
    </rdf:RDF>
  </metadata>
  <defs/>
  <g fill="none" id="layer1" inkscape:groupmode="layer" inkscape:label="1" stroke="#00f" style="display:inline">
    <polyline points="249.9409,708.2039 247.9909,710.5092 245.6693,712.4409 548.0315,712.4409 548.0315,410.0787 245.6693,410.0787 249.7916,414.4888"/>
    <line x1="245.6693" x2="245.6693" y1="410.0787" y2="712.4409"/>
    <line x1="245.6693" x2="248.1495" y1="696.5271" y2="691.0249"/>
    <line x1="245.6693" x2="247.7529" y1="680.6133" y2="674.9412"/>
    <line x1="245.6693" x2="247.1464" y1="664.6995" y2="658.837"/>
    <line x1="245.6693" x2="247.7747" y1="648.7857" y2="643.12"/>
    <line x1="245.6693" x2="249.6064" y1="632.8719" y2="628.2937"/>
    <line x1="256.5549" x2="266.5491" y1="620.3174" y2="613.509"/>
    <polyline points="272.3866,620.1865 277.4969,616.9581 282.2637,613.2399"/>
    <line x1="288.8328" x2="298.1319" y1="604.9949" y2="597.2658"/>
    <line x1="304.6011" x2="313.9886" y1="604.8201" y2="597.1953"/>
    <line x1="320.7543" x2="329.5357" y1="605.1004" y2="596.7899"/>
    <polyline points="336.2009,588.5971 339.8797,585.947 346.3562,582.0513"/>
    <line x1="352.1926" x2="362.0719" y1="588.7103" y2="581.7449"/>
    <polyline points="368.1046,588.6816 370.4298,586.752 372.9797,585.1305 378.5024,582.6843"/>
    <polyline points="382.8928,585.8015 388.8935,585.1305 394.928,585.4544"/>
    <polyline points="398.7719,584.7958 404.8073,585.1305 410.8311,584.6639"/>
    <line x1="414.8307" x2="426.5983" y1="586.4965" y2="583.7068"/>
    <polyline points="430.7627,586.567 436.6349,585.1305 442.6148,584.2443"/>
    <line x1="446.5157" x2="458.5937" y1="585.5397" y2="585.0124"/>
    <polyline points="462.4759,584.2951 468.4625,585.1305 474.2837,586.7416"/>
    <polyline points="478.8941,582.5935 484.3763,585.1305 489.497,588.3429"/>
    <polyline points="495.9427,580.9488 500.2901,585.1305 503.6769,590.132"/>
    <polyline points="496.1566,596.6365 500.2901,601.0443 503.9653,605.8455"/>
    <polyline points="511.6828,612.9523 516.2039,616.9581 521.2362,620.3057"/>
    <polyline points="527.4045,613.1961 529.6395,615.2294 532.1177,616.9581 537.5899,619.5067"/>
    <line x1="542.3749" x2="548.0315" y1="614.8399" y2="616.9581"/>
    <line x1="548.0315" x2="541.9957" y1="632.8719" y2="632.5317"/>
    <polyline points="538.0592,633.9874 532.1177,632.8719 526.309,631.1975"/>
    <polyline points="521.9148,634.8547 516.2039,632.8719 510.3331,631.4293"/>
    <polyline points="506.2897,633.6218 500.2901,632.8719 494.2496,632.6947"/>
    <line x1="490.3462" x2="478.46" y1="631.9179" y2="634.1211"/>
    <polyline points="474.1344,630.7864 469.8564,632.2868 462.9815,635.426"/>
    <line x1="458.0192" x2="447.1692" y1="630.2949" y2="635.6336"/>
    <polyline points="442.495,631.4008 436.6349,632.8719 430.6249,633.5009"/>
    <line x1="426.7569" x2="414.701" y1="633.2223" y2="632.3007"/>
    <line x1="410.8506" x2="398.7601" y1="633.0681" y2="632.884"/>
    <polyline points="394.939,632.9905 388.8935,632.8719 382.87,632.3566"/>
    <line x1="378.862" x2="367.0627" y1="634.2746" y2="631.626"/>
    <polyline points="363.0976,633.2406 357.0659,632.8719 351.0484,633.4011"/>
    <polyline points="346.9198,631.0614 341.1521,632.8719 335.5598,635.1675"/>
    <polyline points="330.2707,629.5228 325.2383,632.8719 320.5099,636.6391"/>
    <polyline points="311.9919,643.3652 309.9174,647.3951 307.2309,654.458"/>
    <polyline points="311.3615,659.0075 309.3245,664.6995 307.7243,670.5303"/>
    <line x1="311.6114" x2="306.8169" y1="675.0154" y2="686.1157"/>
    <line x1="312.4304" x2="306.2746" y1="691.339" y2="701.7483"/>
    <line x1="309.3245" x2="314.6782" y1="712.4409" y2="709.6417"/>
    <line x1="322.216" x2="325.2383" y1="712.4193" y2="712.4409"/>
    <line x1="335.4057" x2="341.1521" y1="710.5666" y2="712.4409"/>
    <line x1="351.074" x2="357.0659" y1="711.6361" y2="712.4409"/>
    <line x1="366.9915" x2="372.9797" y1="711.639" y2="712.4409"/>
    <line x1="383.6109" x2="388.8935" y1="709.4983" y2="712.4409"/>
    <line x1="399.361" x2="404.8073" y1="709.8132" y2="712.4409"/>
    <line x1="415.5396" x2="420.7211" y1="709.3298" y2="712.4409"/>
    <line x1="432.1204" x2="436.6349" y1="708.4176" y2="712.4409"/>
    <line x1="447.3431" x2="452.5487" y1="709.3689" y2="712.4409"/>
    <line x1="462.6237" x2="468.4625" y1="710.8942" y2="712.4409"/>
    <line x1="478.3357" x2="484.3763" y1="712.1624" y2="712.4409"/>
    <line x1="500.2901" x2="506.062" y1="712.4409" y2="710.6407"/>
    <line x1="516.2039" x2="521.4039" y1="712.4409" y2="709.3543"/>
    <line x1="532.1177" x2="537.6856" y1="712.4409" y2="710.0865"/>
    <line x1="543.105" x2="548.0315" y1="700.0212" y2="696.5271"/>
    <line x1="537.4353" x2="526.696" y1="693.649" y2="699.2051"/>
    <polyline points="521.5573,693.7218 516.2039,696.5271 510.5385,698.6296"/>
    <polyline points="506.2147,695.3346 500.2901,696.5271 494.2617,696.9438"/>
    <polyline points="490.3703,697.3135 484.3763,696.5271 478.4875,695.1706"/>
    <polyline points="473.7871,699.3283 471.0012,698.1615 468.4625,696.5271 466.267,694.4541 464.4419,692.0469"/>
    <polyline points="455.0664,686.099 452.5487,680.6133 448.7928,675.8917"/>
    <polyline points="442.315,666.7653 436.6349,664.6995 430.7703,663.2324"/>
    <polyline points="426.5288,666.3814 420.7211,664.6995 415.0908,662.5018"/>
    <line x1="409.5387" x2="400.2195" y1="668.4633" y2="660.7599"/>
    <polyline points="394.006,652.013 388.8935,648.7857 383.5351,645.9866"/>
    <polyline points="378.5838,651.0567 371.5609,648.2638 367.2376,646.8966"/>
    <polyline points="362.9605,650.1143 357.0659,648.7857 351.042,648.3253"/>
    <polyline points="347.092,647.6704 341.1521,648.7857 335.3966,650.6272"/>
    <polyline points="330.1147,645.218 325.2383,648.7857 321.0449,653.1301"/>
    <polyline points="330.2438,661.3314 325.2383,664.6995 321.0795,669.0769"/>
    <polyline points="329.8807,676.7525 325.2383,680.6133 321.3291,685.2196"/>
    <line x1="330.3201" x2="320.0514" y1="693.2496" y2="699.634"/>
    <polyline points="335.2878,697.9899 341.1521,696.5271 347.1541,695.8385"/>
    <polyline points="351.1437,695.3428 355.6052,696.1375 362.8052,698.4287"/>
    <line x1="368.0771" x2="377.792" y1="692.9868" y2="700.1885"/>
    <polyline points="384.4146,692.4699 388.8935,696.5271 393.9475,699.8342"/>
    <polyline points="399.8425,693.0775 404.8073,696.5271 409.9864,699.648"/>
    <line x1="415.6391" x2="425.8547" y1="693.2503" y2="699.7233"/>
    <line x1="431.9091" x2="441.4263" y1="692.7542" y2="700.2165"/>
    <polyline points="449.4714,691.3226 452.5487,696.5271 456.0873,701.4267"/>
    <polyline points="440.9813,684.8105 436.6349,680.6133 431.6675,677.1786"/>
    <line x1="425.6886" x2="415.5986" y1="684.0592" y2="677.3995"/>
    <line x1="409.469" x2="400.2787" y1="684.4651" y2="676.6064"/>
    <polyline points="393.2357,668.9064 388.8935,664.6995 384.1307,660.9805"/>
    <polyline points="377.8464,668.2864 372.9797,664.6995 367.8766,661.4567"/>
    <polyline points="362.4616,667.416 357.0659,664.6995 351.3064,662.8777"/>
    <polyline points="347.1869,664.61 341.1521,664.6995 335.2826,666.1049"/>
    <polyline points="335.4322,682.5424 341.1521,680.6133 347.1555,680.0261"/>
    <polyline points="351.3719,678.6225 357.0659,680.6133 362.1974,683.7968"/>
    <line x1="368.5255" x2="377.1867" y1="676.5243" y2="684.9562"/>
    <line x1="384.4917" x2="393.3199" y1="676.467" y2="684.7334"/>
    <line x1="410.1948" x2="399.571" y1="651.528" y2="645.761"/>
    <polyline points="414.7602,647.8233 420.7211,648.7857 426.7625,648.7029"/>
    <polyline points="430.6383,649.561 436.6349,648.7857 442.5531,647.5577"/>
    <polyline points="446.7228,650.3903 452.5487,648.7857 458.1885,646.6068"/>
    <line x1="463.0493" x2="473.8492" y1="651.4803" y2="646.0378"/>
    <line x1="478.9403" x2="489.8314" y1="651.4349" y2="646.1761"/>
    <polyline points="494.6193,650.8845 501.7308,648.3277 506.1448,647.2999"/>
    <polyline points="510.1949,648.2656 513.2155,648.337 516.2039,648.7857 522.0142,650.4495"/>
    <polyline points="526.3498,646.9785 532.1177,648.7857 538.0559,649.9091"/>
    <line x1="542.0019" x2="548.0315" y1="649.1088" y2="648.7857"/>
    <line x1="548.0315" x2="542.5464" y1="664.6995" y2="667.2445"/>
    <polyline points="538.0501,663.5338 532.1177,664.6995 526.1071,665.346"/>
    <polyline points="522.2407,664.3824 516.2039,664.6995 510.2658,665.8107"/>
    <line x1="505.8857" x2="494.6439" y1="662.407" y2="666.863"/>
    <polyline points="490.1772,662.9955 484.3763,664.6995 478.444,665.855"/>
    <line x1="474.478" x2="462.4256" y1="664.0912" y2="665.0455"/>
    <polyline points="458.5434,665.4596 452.5487,664.6995 446.6734,663.2741"/>
    <line x1="463.7619" x2="473.097" y1="676.8144" y2="684.4948"/>
    <polyline points="478.5348,679.07 484.3763,680.6133 490.3746,681.3477"/>
    <polyline points="494.2947,681.3407 500.2901,680.6133 506.1035,678.9613"/>
    <line x1="510.706" x2="521.6582" y1="683.129" y2="678.0026"/>
    <line x1="526.905" x2="537.2543" y1="683.6778" y2="677.4259"/>
    <line x1="543.8446" x2="548.0315" y1="684.9728" y2="680.6133"/>
    <line x1="505.5682" x2="495.0363" y1="619.9079" y2="613.9646"/>
    <polyline points="490.3334,617.9758 484.3763,616.9581 478.3386,616.7534"/>
    <polyline points="474.2836,615.3404 468.4625,616.9581 462.8468,619.1979"/>
    <line x1="458.0237" x2="447.0131" y1="614.3904" y2="619.3912"/>
    <polyline points="442.5134,615.5546 436.6349,616.9581 430.6378,617.7176"/>
    <polyline points="426.7549,616.5597 419.2167,617.1071 414.7305,617.7664"/>
    <polyline points="410.5653,615.1148 404.8073,616.9581 399.18,619.1705"/>
    <polyline points="394.6468,615.1013 388.8935,616.9581 382.9597,618.094"/>
    <line x1="379.0251" x2="366.9361" y1="616.8179" y2="617.1575"/>
    <line x1="363.0476" x2="351.1378" y1="616.0718" y2="618.1451"/>
    <polyline points="346.6938,614.5488 342.5076,616.2888 335.8548,619.8738"/>
    <line x1="329.6571" x2="320.7375" y1="612.8318" y2="620.9964"/>
    <polyline points="312.9789,628.0578 309.3245,632.8719 306.394,638.1539"/>
    <line x1="295.2079" x2="291.6745" y1="643.0118" y2="654.5783"/>
    <polyline points="294.3912,658.7337 293.4107,664.6995 292.8303,670.718"/>
    <line x1="293.4957" x2="293.5372" y1="674.5673" y2="686.6592"/>
    <polyline points="293.6819,690.4887 293.4107,696.5271 292.3437,702.4735"/>
    <line x1="296.5848" x2="293.4107" y1="707.3021" y2="712.4409"/>
    <polyline points="277.4969,712.4409 277.6954,709.426 277.5006,706.4108"/>
    <polyline points="279.1235,702.3426 278.0012,697.9523 275.1297,690.9637"/>
    <polyline points="279.759,686.2186 277.4969,680.6133 276.1513,674.7285"/>
    <polyline points="276.585,670.6638 277.4969,664.6995 279.5744,659.0265"/>
    <line x1="273.8074" x2="280.9323" y1="653.5768" y2="643.8105"/>
    <line x1="272.6885" x2="282.1659" y1="636.539" y2="629.0297"/>
    <line x1="289.3221" x2="297.6496" y1="621.4136" y2="612.6479"/>
    <polyline points="305.5859,621.709 309.3245,616.9581 313.4826,612.5702"/>
    <polyline points="296.858,627.9054 293.4107,632.8719 290.4605,638.1475"/>
    <polyline points="266.5698,629.4599 261.5831,632.8719 257.2828,637.1085"/>
    <polyline points="265.2362,643.9741 261.5831,648.7857 258.7186,654.1046"/>
    <polyline points="263.3949,658.9468 262.3076,661.7661 261.5831,664.6995 261.1984,670.7222"/>
    <polyline points="260.4162,674.6822 261.5831,680.6133 263.2551,686.4233"/>
    <line x1="260.2202" x2="262.9072" y1="690.6355" y2="702.4273"/>
    <polyline points="262.1673,706.4457 262.1051,709.4664 261.5831,712.4409"/>
    <line x1="245.6693" x2="249.8037" y1="616.9581" y2="612.546"/>
    <line x1="256.7876" x2="266.5101" y1="604.7275" y2="597.5386"/>
    <line x1="272.7354" x2="282.3182" y1="604.7717" y2="597.3941"/>
    <line x1="288.712" x2="298.0899" y1="588.9373" y2="581.3"/>
    <line x1="304.7593" x2="313.7655" y1="589.0961" y2="581.0265"/>
    <polyline points="320.389,572.8245 323.99,570.0695 330.3405,565.9711"/>
    <line x1="335.7436" x2="346.6936" y1="571.9208" y2="566.7984"/>
    <line x1="351.3921" x2="362.8153" y1="571.3069" y2="567.3427"/>
    <line x1="367.0892" x2="378.7738" y1="570.5837" y2="567.4913"/>
    <line x1="383.1321" x2="394.693" y1="571.0538" y2="567.5041"/>
    <line x1="398.9245" x2="410.7074" y1="570.6167" y2="567.895"/>
    <polyline points="414.6897,569.6003 420.7211,569.2167 426.7642,569.4112"/>
    <line x1="430.6001" x2="442.6671" y1="568.8294" y2="569.642"/>
    <polyline points="446.5705,568.3194 452.5487,569.2167 458.4281,570.6254"/>
    <polyline points="462.9821,566.6642 468.4625,569.2167 474.1765,571.1869"/>
    <line x1="478.5828" x2="490.2423" y1="567.4923" y2="570.6854"/>
    <polyline points="494.6773,566.9971 500.2901,569.2167 505.2234,572.6875"/>
    <polyline points="511.7889,565.0881 516.2039,569.2167 520.198,573.7541"/>
    <polyline points="513.4968,579.7258 515.5736,583.7564 518.5797,590.6913"/>
    <line x1="514.0173" x2="518.6423" y1="595.4064" y2="606.5761"/>
    <polyline points="529.3899,595.6489 532.8865,602.346 535.5448,606.015"/>
    <line x1="543.1589" x2="548.0315" y1="597.473" y2="601.0443"/>
    <line x1="548.0315" x2="543.1824" y1="585.1305" y2="581.5175"/>
    <line x1="536.795" x2="527.5829" y1="573.0492" y2="565.2166"/>
    <line x1="520.6409" x2="511.5922" y1="557.4114" y2="549.3925"/>
    <line x1="505.5901" x2="494.855" y1="556.21" y2="550.6519"/>
    <line x1="490.1631" x2="478.6716" y1="555.0561" y2="551.297"/>
    <line x1="473.9076" x2="463.0126" y1="555.9334" y2="550.6826"/>
    <polyline points="458.2964,555.145 452.5487,553.3029 446.541,552.6865"/>
    <line x1="442.6803" x2="430.6066" y1="553.4322" y2="552.8349"/>
    <polyline points="426.75,553.7586 420.7211,553.3029 414.679,553.4339"/>
    <polyline points="410.6869,551.8989 404.8073,553.3029 399.0371,555.1108"/>
    <line x1="394.6206" x2="383.1869" y1="551.3614" y2="555.3036"/>
    <line x1="378.7734" x2="367.2798" y1="551.5735" y2="555.3221"/>
    <polyline points="362.3287,550.3265 357.0659,553.3029 351.5963,555.879"/>
    <line x1="346.0568" x2="336.0983" y1="549.7674" y2="556.6237"/>
    <polyline points="329.5932,549.1129 325.2383,553.3029 320.3022,556.7845"/>
    <polyline points="313.8368,549.2942 310.5282,552.3885 304.2536,556.594"/>
    <polyline points="298.2457,549.6742 293.4107,553.3029 288.2957,556.5261"/>
    <polyline points="282.502,549.9192 278.7919,552.523 272.2133,556.2441"/>
    <polyline points="266.5258,549.8262 261.5831,553.3029 257.0474,557.2999"/>
    <line x1="249.3773" x2="245.6693" y1="564.4414" y2="569.2167"/>
    <line x1="249.0751" x2="245.6693" y1="580.1387" y2="585.1305"/>
    <line x1="249.13" x2="245.6693" y1="596.0882" y2="601.0443"/>
    <polyline points="256.6932,588.6853 261.5831,585.1305 266.7164,581.9358"/>
    <line x1="272.3892" x2="282.5237" y1="588.3678" y2="581.7694"/>
    <line x1="288.2809" x2="298.6317" y1="572.4186" y2="566.1658"/>
    <polyline points="304.4353,572.7734 309.3245,569.2167 314.5078,566.1065"/>
    <line x1="329.9316" x2="320.6855" y1="581.3214" y2="589.1104"/>
    <polyline points="336.5557,604.9657 341.1521,601.0443 346.2084,597.7308"/>
    <polyline points="351.9326,604.2273 357.0659,601.0443 361.5069,596.9531"/>
    <polyline points="367.8223,604.1999 374.3149,600.3355 378.4876,598.568"/>
    <polyline points="382.873,601.5827 388.8935,601.0443 394.9396,600.9627"/>
    <polyline points="398.7665,601.2905 404.8073,601.0443 410.7947,600.2164"/>
    <line x1="414.9134" x2="426.4516" y1="602.7281" y2="599.1145"/>
    <line x1="430.9065" x2="442.4" y1="602.9819" y2="599.2206"/>
    <polyline points="446.7898,602.888 452.5487,601.0443 458.4109,599.5667"/>
    <polyline points="462.4892,601.9511 468.4625,601.0443 474.5011,601.1322"/>
    <polyline points="478.7312,598.8779 484.3763,601.0443 489.8343,603.6412"/>
    <line x1="528.9119" x2="535.3191" y1="580.0032" y2="590.2606"/>
    <line x1="548.0315" x2="542.6098" y1="569.2167" y2="566.5393"/>
    <polyline points="536.972,556.903 532.1177,553.3029 527.6486,549.2313"/>
    <line x1="520.1473" x2="512.0278" y1="541.9736" y2="533.0208"/>
    <line x1="505.3146" x2="495.2484" y1="524.8403" y2="518.1368"/>
    <polyline points="489.6182,524.4845 484.3763,521.4753 478.7203,519.368"/>
    <polyline points="474.4805,521.9427 468.4625,521.4753 462.4658,522.1929"/>
    <line x1="458.2337" x2="446.8296" y1="519.4141" y2="523.4396"/>
    <line x1="442.3486" x2="430.885" y1="519.4968" y2="523.3477"/>
    <polyline points="426.152,518.8317 420.7211,521.4753 415.693,524.8311"/>
    <polyline points="409.028,517.1479 404.8073,521.4753 400.08,525.2376"/>
    <line x1="393.0933" x2="384.7331" y1="517.1244" y2="525.8638"/>
    <line x1="377.3699" x2="368.4979" y1="533.2312" y2="541.4491"/>
    <line x1="360.9228" x2="352.9639" y1="532.733" y2="541.8318"/>
    <line x1="345.5734" x2="336.9549" y1="533.264" y2="541.7413"/>
    <polyline points="329.3069,532.922 325.2383,537.3891 321.7554,542.33"/>
    <polyline points="311.8384,531.8895 308.6717,538.7527 306.3979,542.6725"/>
    <polyline points="295.5637,531.7442 293.4107,537.3891 290.4138,542.6351"/>
    <polyline points="281.186,532.6034 277.4969,537.3891 273.0837,541.5118"/>
    <polyline points="265.5933,532.8629 260.6075,538.544 257.8562,542.1482"/>
    <line x1="249.0153" x2="245.6693" y1="548.2665" y2="553.3029"/>
    <line x1="245.6693" x2="249.3863" y1="537.3891" y2="532.6212"/>
    <polyline points="257.8123,526.202 261.5831,521.4753 265.0266,516.5058"/>
    <polyline points="273.1158,509.7135 277.4969,505.5615 282.4932,502.1601"/>
    <polyline points="288.7747,509.4249 293.4107,505.5615 298.7673,502.7763"/>
    <line x1="303.7424" x2="315.0012" y1="507.8843" y2="503.4779"/>
    <line x1="319.7401" x2="330.8327" y1="508.0749" y2="503.2655"/>
    <line x1="335.5363" x2="346.786" y1="507.8046" y2="503.3647"/>
    <line x1="351.6042" x2="362.5001" y1="508.1575" y2="502.9096"/>
    <polyline points="368.3878,509.4909 372.9797,505.5615 376.995,501.0466"/>
    <polyline points="386.3698,495.142 389.6079,488.3155 392.0811,484.5179"/>
    <polyline points="384.7098,478.0965 388.8935,473.7339 393.4336,469.741"/>
    <polyline points="400.1669,477.6042 404.8073,473.7339 407.3695,472.1318 410.1116,470.8627"/>
    <polyline points="415.0895,475.9287 420.7211,473.7339 426.5295,472.0581"/>
    <polyline points="430.6903,474.8219 435.1371,473.9393 442.6539,473.155"/>
    <line x1="446.5484" x2="458.5777" y1="474.4845" y2="473.2811"/>
    <polyline points="462.4401,473.2213 468.4625,473.7339 474.4075,474.8323"/>
    <polyline points="478.4737,472.4313 484.3763,473.7339 490.3876,474.3674"/>
    <line x1="494.2516" x2="506.3116" y1="473.4104" y2="474.2829"/>
    <polyline points="510.2833,472.5113 516.2039,473.7339 521.9937,475.4727"/>
    <line x1="526.3505" x2="537.8402" y1="471.9197" y2="475.6881"/>
    <line x1="542.1386" x2="548.0315" y1="472.3864" y2="473.7339"/>
    <line x1="542.8299" x2="548.0315" y1="486.5851" y2="489.6477"/>
    <line x1="537.6552" x2="526.569" y1="492.0764" y2="487.2442"/>
    <line x1="521.8384" x2="510.5164" y1="491.8429" y2="487.5986"/>
    <polyline points="506.0853,491.3654 500.2901,489.6477 494.3603,488.4686"/>
    <line x1="490.2744" x2="478.4486" y1="490.9817" y2="488.4528"/>
    <polyline points="474.5027,489.7308 468.4625,489.6477 462.485,490.5239"/>
    <polyline points="458.2815,487.7313 452.5487,489.6477 446.9775,491.998"/>
    <polyline points="442.1527,487.1787 436.6349,489.6477 431.4902,492.8137"/>
    <polyline points="425.3386,485.7474 420.7211,489.6477 416.4654,493.942"/>
    <polyline points="407.6548,500.227 404.0824,506.8882 401.6733,510.7283"/>
    <line x1="416.3857" x2="425.0994" y1="509.7762" y2="501.3906"/>
    <line x1="431.1883" x2="442.0767" y1="508.1887" y2="502.9246"/>
    <line x1="447.106" x2="458.1067" y1="508.1971" y2="503.1833"/>
    <polyline points="462.589,506.9683 468.4625,505.5615 474.4924,505.2347"/>
    <polyline points="478.5175,504.0885 484.3763,505.5615 489.9891,507.8048"/>
    <polyline points="494.8084,503.011 500.2901,505.5615 505.5229,508.5872"/>
    <line x1="510.9431" x2="521.3554" y1="502.5794" y2="508.7259"/>
    <polyline points="526.7027,502.8783 532.1177,505.5615 537.1892,508.8508"/>
    <line x1="543.3909" x2="548.0315" y1="501.6884" y2="505.5615"/>
    <line x1="543.0651" x2="548.0315" y1="518.0262" y2="521.4753"/>
    <polyline points="536.8534,525.232 533.2668,522.4578 527.6621,517.3872"/>
    <polyline points="520.274,525.9427 517.2711,522.5461 511.7484,517.3877"/>
    <polyline points="528.221,532.7682 532.1177,537.3891 536.4004,541.657"/>
    <line x1="543.2065" x2="548.0315" y1="533.7438" y2="537.3891"/>
    <line x1="542.7961" x2="548.0315" y1="550.2844" y2="553.3029"/>
    <line x1="505.0965" x2="495.505" y1="541.059" y2="533.6916"/>
    <polyline points="489.379,540.7839 484.3763,537.3891 479.0791,534.4783"/>
    <polyline points="474.3283,538.8448 468.4625,537.3891 462.4569,536.7264"/>
    <polyline points="458.5679,536.8308 452.5487,537.3891 446.5847,538.385"/>
    <line x1="442.574" x2="430.6502" y1="536.253" y2="538.2539"/>
    <line x1="426.5938" x2="414.8915" y1="535.947" y2="538.9958"/>
    <line x1="410.318" x2="399.1574" y1="534.9023" y2="539.5442"/>
    <line x1="394.4667" x2="383.3896" y1="535.0437" y2="539.8942"/>
    <line x1="369.5394" x2="376.5778" y1="526.4481" y2="516.6151"/>
    <polyline points="385.9333,510.8298 388.8935,505.5615 391.0016,499.9"/>
    <polyline points="402.1599,495.0714 404.8073,489.6477 408.5339,484.8969"/>
    <polyline points="410.8417,457.8477 404.8073,457.8201 398.9493,459.2648"/>
    <polyline points="394.6921,456.1078 388.8935,457.8201 383.2183,459.9058"/>
    <line x1="378.7567" x2="367.1038" y1="456.0335" y2="459.2431"/>
    <polyline points="363.0312,456.832 357.0659,457.8201 351.0497,458.4148"/>
    <polyline points="347.138,458.6046 341.1521,457.8201 335.3981,455.9756"/>
    <polyline points="330.865,460.0123 325.2383,457.8201 319.2716,456.9157"/>
    <line x1="315.3715" x2="303.2778" y1="457.766" y2="457.7558"/>
    <line x1="299.4566" x2="287.3708" y1="457.7335" y2="458.1168"/>
    <line x1="283.5411" x2="271.4562" y1="458.0024" y2="457.5389"/>
    <polyline points="267.6074,458.3392 261.5831,457.8201 255.6065,456.9084"/>
    <line x1="251.5044" x2="245.6693" y1="459.3913" y2="457.8201"/>
    <polyline points="250.7608,445.1308 248.0993,443.701 245.6693,441.9063"/>
    <polyline points="255.5869,441.2195 261.5831,441.9063 267.6122,441.5041"/>
    <polyline points="271.4853,442.5395 277.4969,441.9063 283.5321,442.1443"/>
    <line x1="287.5707" x2="299.1777" y1="440.3403" y2="443.7253"/>
    <polyline points="303.5321,440.1829 309.3245,441.9063 315.3148,442.6737"/>
    <line x1="319.1932" x2="331.285" y1="442.0667" y2="441.9542"/>
    <polyline points="335.1259,442.3379 341.1521,441.9063 347.0421,440.556"/>
    <line x1="351.1394" x2="363.0342" y1="443.1078" y2="440.9355"/>
    <line x1="366.9639" x2="379.0156" y1="442.5201" y2="441.5504"/>
    <polyline points="382.8931,441.2153 388.8935,441.9063 394.7532,443.3951"/>
    <line x1="399.2615" x2="410.3967" y1="439.4992" y2="444.2133"/>
    <polyline points="415.5163,438.8349 420.7211,441.9063 425.6287,445.4385"/>
    <polyline points="431.9726,438.0649 436.6349,441.9063 441.9527,444.761"/>
    <line x1="446.8793" x2="458.1896" y1="439.8041" y2="444.082"/>
    <line x1="462.9536" x2="473.9716" y1="439.4128" y2="444.3998"/>
    <line x1="478.6571" x2="490.1685" y1="439.9424" y2="443.6419"/>
    <line x1="494.347" x2="506.2294" y1="440.7896" y2="443.0429"/>
    <line x1="510.3248" x2="522.063" y1="440.4906" y2="443.403"/>
    <line x1="526.2318" x2="538.0512" y1="440.519" y2="443.0668"/>
    <line x1="542.0285" x2="548.0315" y1="441.1764" y2="441.9063"/>
    <line x1="548.0315" x2="542.1331" y1="425.9925" y2="424.6676"/>
    <line x1="537.9113" x2="526.2887" y1="427.725" y2="424.385"/>
    <line x1="522.098" x2="510.3112" y1="427.3449" y2="424.6343"/>
    <polyline points="506.1627,427.4296 498.8486,425.5372 494.6709,423.7828"/>
    <polyline points="489.8694,428.5104 484.3763,425.9925 479.2677,422.7651"/>
    <line x1="473.7753" x2="463.2352" y1="428.8787" y2="422.952"/>
    <line x1="458.2191" x2="446.863" y1="428.0939" y2="423.9331"/>
    <line x1="442.0443" x2="431.3344" y1="428.6935" y2="423.0817"/>
    <polyline points="425.7764,429.3003 420.7211,425.9925 415.3112,423.2937"/>
    <line x1="410.2795" x2="399.3704" y1="428.566" y2="423.345"/>
    <polyline points="394.4211,428.4299 388.8935,425.9925 383.0471,424.4681"/>
    <polyline points="379.015,426.3189 372.9797,425.9925 366.945,426.3405"/>
    <polyline points="363.0353,425.0326 357.0659,425.9925 351.1921,427.4225"/>
    <polyline points="346.8839,424.066 339.7025,426.4216 335.2931,427.4778"/>
    <polyline points="331.2433,425.3169 325.2383,425.9925 319.1969,425.863"/>
    <polyline points="315.2424,427.2232 310.7922,426.3548 303.4995,424.369"/>
    <polyline points="299.2161,427.6788 293.4107,425.9925 287.4587,424.9423"/>
    <line x1="283.5289" x2="271.4585" y1="426.4154" y2="425.666"/>
    <polyline points="267.6095,426.4661 261.5831,425.9925 255.699,424.6431"/>
    <polyline points="250.2718,429.8731 247.8112,428.1225 245.6693,425.9925"/>
    <line x1="261.5831" x2="267.1575" y1="410.0787" y2="412.4218"/>
    <line x1="277.4969" x2="283.3679" y1="410.0787" y2="411.4997"/>
    <line x1="293.4107" x2="299.4445" y1="410.0787" y2="410.4811"/>
    <line x1="306.3011" x2="309.3245" y1="410.0792" y2="410.0787"/>
    <line x1="319.3609" x2="325.2383" y1="411.4719" y2="410.0787"/>
    <line x1="335.8027" x2="341.1521" y1="412.8955" y2="410.0787"/>
    <line x1="351.2748" x2="357.0659" y1="411.7862" y2="410.0787"/>
    <line x1="372.9797" x2="379.0219" y1="410.0787" y2="410.3221"/>
    <line x1="388.8935" x2="394.8427" y1="410.0787" y2="411.1499"/>
    <line x1="404.8073" x2="410.8052" y1="410.0787" y2="410.8448"/>
    <line x1="420.7211" x2="426.7604" y1="410.0787" y2="410.3778"/>
    <line x1="436.6349" x2="442.6265" y1="410.0787" y2="410.8808"/>
    <line x1="452.5487" x2="457.193" y1="410.0787" y2="413.9505"/>
    <line x1="468.4625" x2="472.139" y1="410.0787" y2="414.8769"/>
    <line x1="484.3763" x2="487.8069" y1="410.0787" y2="415.0527"/>
    <polyline points="500.2901,410.0787 502.708,411.8894 505.3591,413.3389"/>
    <line x1="516.2039" x2="522.0621" y1="410.0787" y2="411.5775"/>
    <line x1="532.1177" x2="537.9951" y1="410.0787" y2="411.5009"/>
    <line x1="542.0245" x2="548.0315" y1="457.1282" y2="457.8201"/>
    <line x1="537.9254" x2="526.3242" y1="459.505" y2="456.0869"/>
    <line x1="522.0177" x2="510.3854" y1="459.4841" y2="456.1729"/>
    <line x1="506.219" x2="494.3761" y1="459.0104" y2="456.5593"/>
    <polyline points="490.1827,459.5014 484.3763,457.8201 478.7232,455.675"/>
    <line x1="474.0753" x2="462.8775" y1="460.0709" y2="455.5016"/>
    <line x1="458.4407" x2="446.5902" y1="459.1774" y2="456.7903"/>
    <polyline points="442.5224,459.1861 436.6349,457.8201 430.9901,455.6662"/>
    <line x1="426.5959" x2="414.8534" y1="459.2538" y2="456.3578"/>
    <polyline points="378.0279,470.4071 372.9797,473.7339 367.5975,476.481"/>
    <polyline points="362.9231,472.2321 357.0659,473.7339 351.1267,474.8616"/>
    <polyline points="347.1533,474.3435 341.1521,473.7339 335.4424,471.7703"/>
    <polyline points="330.9019,475.8496 325.2383,473.7339 319.3541,472.373"/>
    <polyline points="315.3482,473.298 309.3245,473.7339 303.4391,475.1042"/>
    <line x1="299.2244" x2="287.5264" y1="472.0699" y2="475.1169"/>
    <line x1="283.4857" x2="271.5114" y1="472.8975" y2="474.5944"/>
    <line x1="267.5853" x2="255.5932" y1="472.9978" y2="474.5643"/>
    <line x1="251.6934" x2="245.6693" y1="473.2128" y2="473.7339"/>
    <line x1="251.0819" x2="245.6693" y1="486.9524" y2="489.6477"/>
    <polyline points="256.1224,492.2377 261.5831,489.6477 267.252,487.5444"/>
    <polyline points="271.6941,491.3487 278.9618,489.2742 283.407,488.3799"/>
    <line x1="287.5108" x2="299.2792" y1="490.9744" y2="488.1901"/>
    <polyline points="303.358,490.6239 309.3245,489.6477 315.3525,489.1906"/>
    <line x1="319.1925" x2="331.2836" y1="489.7796" y2="489.4956"/>
    <line x1="335.1333" x2="347.1237" y1="490.23" y2="488.7043"/>
    <line x1="351.269" x2="362.7835" y1="491.3685" y2="487.6806"/>
    <polyline points="368.0683,493.1655 372.9797,489.6477 377.2863,485.4101"/>
    <line x1="361.4658" x2="352.808" y1="517.3288" y2="525.7694"/>
    <line x1="346.1861" x2="336.1109" y1="518.1247" y2="524.815"/>
    <polyline points="330.2049,518.0368 325.2383,521.4753 320.8435,525.6226"/>
    <polyline points="313.1911,516.8374 309.3245,521.4753 307.817,524.0937 306.673,526.8904"/>
    <polyline points="296.5951,516.352 294.0955,520.1277 291.0072,527.0237"/>
    <line x1="280.4902" x2="274.234" y1="516.2211" y2="526.5636"/>
    <polyline points="257.0194,509.528 262.7744,504.6309 266.5722,502.1587"/>
    <line x1="250.0917" x2="245.6693" y1="501.4372" y2="505.5615"/>
    <line x1="249.8185" x2="245.6693" y1="517.0762" y2="521.4753"/>
    <polyline points="266.698,565.9925 261.5831,569.2167 256.7054,572.7886"/>
    <line x1="272.2001" x2="282.78" y1="572.1342" y2="566.2744"/>
  </g>
</svg>
