<?xml version="1.0" encoding="utf-8" ?>
<svg xmlns="http://www.w3.org/2000/svg" xmlns:cc="http://creativecommons.org/ns#" xmlns:dc="http://purl.org/dc/elements/1.1/" xmlns:ev="http://www.w3.org/2001/xml-events" xmlns:inkscape="http://www.inkscape.org/namespaces/inkscape" xmlns:rdf="http://www.w3.org/1999/02/22-rdf-syntax-ns#" xmlns:sodipodi="http://sodipodi.sourceforge.net/DTD/sodipodi-0.dtd" xmlns:xlink="http://www.w3.org/1999/xlink" baseProfile="tiny" height="29.7cm" version="1.2" viewBox="0 0 793.7007874015749 1122.5196850393702" width="21.0cm">
  <metadata>
    <rdf:RDF>
      <cc:Work>
        <dc:format>image/svg+xml</dc:format>
        <dc:source/>
        <dc:date>2022-02-10T21:06:54.275224</dc:date>
      </cc:Work>
    </rdf:RDF>
  </metadata>
  <defs/>
  <g fill="none" id="layer1" inkscape:groupmode="layer" inkscape:label="1" stroke="#00f" style="display:inline">
    <line x1="89.2713" x2="100.1568" y1="80.4865" y2="83.6594"/>
    <line x1="110.4484" x2="121.0094" y1="79.5327" y2="83.6594"/>
    <line x1="131.5608" x2="141.8619" y1="78.9212" y2="83.6594"/>
    <line x1="152.4417" x2="162.7145" y1="78.8602" y2="83.6594"/>
    <line x1="173.0851" x2="183.5671" y1="79.3362" y2="83.6594"/>
    <line x1="193.7749" x2="204.4196" y1="79.7538" y2="83.6594"/>
    <line x1="214.0063" x2="225.2722" y1="82.3779" y2="83.6594"/>
    <line x1="235.1293" x2="246.1248" y1="86.4275" y2="83.6594"/>
    <line x1="256.3992" x2="266.9773" y1="87.7419" y2="83.6594"/>
    <line x1="277.2542" x2="287.8299" y1="87.7483" y2="83.6594"/>
    <line x1="297.7691" x2="308.6825" y1="86.7354" y2="83.6594"/>
    <line x1="318.61" x2="329.535" y1="86.6936" y2="83.6594"/>
    <line x1="339.1412" x2="350.3876" y1="85.1026" y2="83.6594"/>
    <line x1="359.9808" x2="371.2402" y1="82.3215" y2="83.6594"/>
    <line x1="381.315" x2="392.0927" y1="80.1377" y2="83.6594"/>
    <line x1="402.217" x2="412.9453" y1="79.9897" y2="83.6594"/>
    <line x1="422.9063" x2="433.7979" y1="80.5071" y2="83.6594"/>
    <line x1="444.0973" x2="454.6504" y1="79.5129" y2="83.6594"/>
    <line x1="464.5316" x2="475.503" y1="80.7973" y2="83.6594"/>
    <line x1="485.1027" x2="496.3556" y1="85.0507" y2="83.6594"/>
    <line x1="506.2733" x2="517.2081" y1="86.6581" y2="83.6594"/>
    <line x1="527.2815" x2="538.0607" y1="87.1768" y2="83.6594"/>
    <line x1="547.7755" x2="558.9133" y1="85.7841" y2="83.6594"/>
    <line x1="568.5548" x2="579.7658" y1="85.3551" y2="83.6594"/>
    <line x1="589.3468" x2="600.6184" y1="84.8905" y2="83.6594"/>
    <line x1="610.1425" x2="621.471" y1="83.1797" y2="83.6594"/>
    <line x1="630.993" x2="642.3235" y1="83.2318" y2="83.6594"/>
    <line x1="651.8438" x2="663.1761" y1="83.2808" y2="83.6594"/>
    <line x1="672.7013" x2="684.0287" y1="84.1642" y2="83.6594"/>
    <line x1="693.9116" x2="704.8812" y1="86.5285" y2="83.6594"/>
    <line x1="704.8812" x2="693.878" y1="105.4776" y2="108.215"/>
    <line x1="684.0287" x2="672.7402" y1="105.4776" y2="104.4129"/>
    <line x1="663.1761" x2="651.8392" y1="105.4776" y2="105.2798"/>
    <line x1="642.3235" x2="630.9918" y1="105.4776" y2="105.0848"/>
    <line x1="621.471" x2="610.2239" y1="105.4776" y2="104.0395"/>
    <line x1="600.6184" x2="589.2842" y1="105.4776" y2="105.7913"/>
    <line x1="579.7658" x2="568.4501" y1="105.4776" y2="106.1977"/>
    <line x1="558.9133" x2="547.6078" y1="105.4776" y2="106.3432"/>
    <line x1="538.0607" x2="527.096" y1="105.4776" y2="108.3654"/>
    <line x1="517.2081" x2="506.1885" y1="105.4776" y2="108.1481"/>
    <line x1="496.3556" x2="485.11" y1="105.4776" y2="106.9269"/>
    <line x1="475.503" x2="464.3914" y1="105.4776" y2="103.2201"/>
    <line x1="454.6504" x2="444.0163" y1="105.4776" y2="101.5434"/>
    <line x1="433.7979" x2="423.3728" y1="105.4776" y2="101.0188"/>
    <line x1="412.9453" x2="402.665" y1="105.4776" y2="100.6944"/>
    <line x1="392.0927" x2="381.4689" y1="105.4776" y2="101.5155"/>
    <line x1="371.2402" x2="359.91" y1="105.4776" y2="105.9134"/>
    <line x1="350.3876" x2="339.3699" y1="105.4776" y2="108.1561"/>
    <line x1="329.535" x2="318.8531" y1="105.4776" y2="109.2803"/>
    <line x1="308.6825" x2="297.7828" y1="105.4776" y2="108.6017"/>
    <line x1="287.8299" x2="277.4071" y1="105.4776" y2="109.9417"/>
    <line x1="266.9773" x2="256.6205" y1="105.4776" y2="110.0927"/>
    <line x1="246.1248" x2="235.2382" y1="105.4776" y2="108.647"/>
    <line x1="225.2722" x2="214.0005" y1="105.4776" y2="104.2482"/>
    <line x1="204.4196" x2="193.7382" y1="105.4776" y2="101.6738"/>
    <line x1="183.5671" x2="172.7817" y1="105.4776" y2="101.9792"/>
    <line x1="162.7145" x2="152.3851" y1="105.4776" y2="100.8015"/>
    <line x1="141.8619" x2="131.6568" y1="105.4776" y2="100.5361"/>
    <line x1="121.0094" x2="110.4231" y1="105.4776" y2="101.4164"/>
    <line x1="100.1568" x2="89.1137" y1="105.4776" y2="102.9062"/>
    <line x1="88.9035" x2="100.1568" y1="125.9083" y2="127.2958"/>
    <line x1="110.5659" x2="121.0094" y1="122.8802" y2="127.2958"/>
    <line x1="131.2695" x2="141.8619" y1="123.2505" y2="127.2958"/>
    <line x1="152.2064" x2="162.7145" y1="123.0363" y2="127.2958"/>
    <line x1="173.0411" x2="183.5671" y1="123.0807" y2="127.2958"/>
    <line x1="193.0867" x2="204.4196" y1="127.6544" y2="127.2958"/>
    <line x1="214.2079" x2="225.2722" y1="129.7747" y2="127.2958"/>
    <line x1="235.2243" x2="246.1248" y1="130.4171" y2="127.2958"/>
    <line x1="256.1294" x2="266.9773" y1="130.5951" y2="127.2958"/>
    <line x1="277.1206" x2="287.8299" y1="131.0207" y2="127.2958"/>
    <line x1="298.1779" x2="308.6825" y1="131.5641" y2="127.2958"/>
    <line x1="319.2349" x2="329.535" y1="132.0361" y2="127.2958"/>
    <line x1="339.3797" x2="350.3876" y1="130.0141" y2="127.2958"/>
    <line x1="360.1027" x2="371.2402" y1="125.1696" y2="127.2958"/>
    <line x1="381.0949" x2="392.0927" y1="124.5369" y2="127.2958"/>
    <line x1="401.9511" x2="412.9453" y1="124.5224" y2="127.2958"/>
    <line x1="422.863" x2="433.7979" y1="124.297" y2="127.2958"/>
    <line x1="443.3515" x2="454.6504" y1="126.3481" y2="127.2958"/>
    <line x1="464.1792" x2="475.503" y1="127.8741" y2="127.2958"/>
    <line x1="485.2021" x2="496.3556" y1="129.3365" y2="127.2958"/>
    <line x1="506.0975" x2="517.2081" y1="129.5578" y2="127.2958"/>
    <line x1="526.9541" x2="538.0607" y1="129.5779" y2="127.2958"/>
    <line x1="547.605" x2="558.9133" y1="128.125" y2="127.2958"/>
    <line x1="568.4281" x2="579.7658" y1="127.1546" y2="127.2958"/>
    <line x1="589.2823" x2="600.6184" y1="127.0573" y2="127.2958"/>
    <line x1="610.2118" x2="621.471" y1="128.6351" y2="127.2958"/>
    <line x1="631.1645" x2="642.3235" y1="129.3058" y2="127.2958"/>
    <line x1="652.037" x2="663.1761" y1="129.4135" y2="127.2958"/>
    <line x1="672.8568" x2="684.0287" y1="129.233" y2="127.2958"/>
    <line x1="694.6971" x2="704.8812" y1="132.2804" y2="127.2958"/>
    <line x1="704.8812" x2="696.1224" y1="149.114" y2="156.3145"/>
    <line x1="684.0287" x2="673.2145" y1="149.114" y2="152.5224"/>
    <line x1="663.1761" x2="651.9702" y1="149.114" y2="150.8438"/>
    <line x1="642.3235" x2="631.1215" y1="149.114" y2="150.8681"/>
    <line x1="621.471" x2="610.3403" y1="149.114" y2="151.2754"/>
    <line x1="600.6184" x2="589.725" y1="149.114" y2="152.26"/>
    <line x1="579.7658" x2="569.0627" y1="149.114" y2="152.8565"/>
    <line x1="558.9133" x2="548.2947" y1="149.114" y2="153.0901"/>
    <line x1="538.0607" x2="528.1768" y1="149.114" y2="154.6702"/>
    <line x1="517.2081" x2="507.1433" y1="149.114" y2="154.3354"/>
    <line x1="496.3556" x2="485.8048" y1="149.114" y2="153.2667"/>
    <line x1="475.503" x2="464.759" y1="149.114" y2="152.7374"/>
    <line x1="454.6504" x2="443.4816" y1="149.114" y2="151.0685"/>
    <line x1="433.7979" x2="422.5873" y1="149.114" y2="147.4149"/>
    <line x1="412.9453" x2="401.8814" y1="149.114" y2="146.6332"/>
    <line x1="392.0927" x2="380.9928" y1="149.114" y2="146.7999"/>
    <line x1="371.2402" x2="359.9368" y1="149.114" y2="148.2216"/>
    <line x1="350.3876" x2="339.2854" y1="149.114" y2="151.4171"/>
    <line x1="329.535" x2="319.0266" y1="149.114" y2="153.3728"/>
    <line x1="308.6825" x2="298.7734" y1="149.114" y2="154.6252"/>
    <line x1="287.8299" x2="278.1163" y1="149.114" y2="154.9629"/>
    <line x1="266.9773" x2="256.9825" y1="149.114" y2="154.4681"/>
    <line x1="246.1248" x2="235.5802" y1="149.114" y2="153.2823"/>
    <line x1="225.2722" x2="214.9743" y1="149.114" y2="153.8592"/>
    <line x1="204.4196" x2="193.6214" y1="149.114" y2="152.5725"/>
    <line x1="183.5671" x2="172.2705" y1="149.114" y2="148.1393"/>
    <line x1="162.7145" x2="151.6035" y1="149.114" y2="146.8539"/>
    <line x1="141.8619" x2="130.7167" y1="149.114" y2="147.0292"/>
    <line x1="121.0094" x2="109.7284" y1="149.114" y2="147.9721"/>
    <line x1="100.1568" x2="88.836" y1="149.114" y2="149.7482"/>
    <line x1="88.9147" x2="100.1568" y1="172.4081" y2="170.9322"/>
    <line x1="109.7908" x2="121.0094" y1="172.5775" y2="170.9322"/>
    <line x1="130.5608" x2="141.8619" y1="171.8529" y2="170.9322"/>
    <line x1="151.404" x2="162.7145" y1="171.7291" y2="170.9322"/>
    <line x1="172.4288" x2="183.5671" y1="173.0538" y2="170.9322"/>
    <line x1="194.4052" x2="204.4196" y1="176.2495" y2="170.9322"/>
    <line x1="215.5728" x2="225.2722" y1="176.8046" y2="170.9322"/>
    <line x1="235.8464" x2="246.1248" y1="175.7196" y2="170.9322"/>
    <line x1="257.7488" x2="266.9773" y1="177.5198" y2="170.9322"/>
    <line x1="278.9266" x2="287.8299" y1="177.9532" y2="170.9322"/>
    <line x1="299.1904" x2="308.6825" y1="177.1341" y2="170.9322"/>
    <line x1="319.1442" x2="329.535" y1="175.4703" y2="170.9322"/>
    <line x1="339.3772" x2="350.3876" y1="173.6403" y2="170.9322"/>
    <line x1="359.9022" x2="371.2402" y1="171.0527" y2="170.9322"/>
    <line x1="380.9153" x2="392.0927" y1="169.0274" y2="170.9322"/>
    <line x1="401.8045" x2="412.9453" y1="168.8236" y2="170.9322"/>
    <line x1="422.476" x2="433.7979" y1="170.3167" y2="170.9322"/>
    <line x1="443.753" x2="454.6504" y1="174.0642" y2="170.9322"/>
    <line x1="465.2391" x2="475.503" y1="175.7505" y2="170.9322"/>
    <line x1="486.4107" x2="496.3556" y1="176.3785" y2="170.9322"/>
    <line x1="508.4247" x2="517.2081" y1="178.1026" y2="170.9322"/>
    <line x1="529.6909" x2="538.0607" y1="178.5813" y2="170.9322"/>
    <line x1="549.1954" x2="558.9133" y1="176.774" y2="170.9322"/>
    <line x1="569.8166" x2="579.7658" y1="176.3705" y2="170.9322"/>
    <line x1="590.1082" x2="600.6184" y1="175.1865" y2="170.9322"/>
    <line x1="610.2518" x2="621.471" y1="172.5734" y2="170.9322"/>
    <line x1="631.0503" x2="642.3235" y1="172.1481" y2="170.9322"/>
    <line x1="651.9133" x2="663.1761" y1="172.241" y2="170.9322"/>
    <line x1="673.2263" x2="684.0287" y1="174.3778" y2="170.9322"/>
    <line x1="696.4405" x2="704.8812" y1="178.503" y2="170.9322"/>
    <line x1="704.8812" x2="697.0925" y1="192.7504" y2="200.9905"/>
    <line x1="684.0287" x2="673.461" y1="192.7504" y2="196.8598"/>
    <line x1="663.1761" x2="652.3421" y1="192.7504" y2="196.0951"/>
    <line x1="642.3235" x2="631.2086" y1="192.7504" y2="194.9913"/>
    <line x1="621.471" x2="610.1445" y1="192.7504" y2="192.2265"/>
    <line x1="600.6184" x2="589.4981" y1="192.7504" y2="194.9647"/>
    <line x1="579.7658" x2="569.3116" y1="192.7504" y2="197.1405"/>
    <line x1="558.9133" x2="549.8446" y1="192.7504" y2="199.5564"/>
    <line x1="538.0607" x2="531.6905" y1="192.7504" y2="202.1303"/>
    <line x1="538.0607" x2="530.6363" y1="214.5685" y2="223.1384"/>
    <line x1="538.0607" x2="528.7758" y1="236.3867" y2="242.8947"/>
    <line x1="517.2081" x2="507.7379" y1="236.3867" y2="242.6219"/>
    <line x1="496.3556" x2="486.8085" y1="236.3867" y2="242.5036"/>
    <line x1="475.503" x2="464.6183" y1="236.3867" y2="239.5627"/>
    <line x1="454.6504" x2="443.4053" y1="236.3867" y2="237.839"/>
    <line x1="433.7979" x2="422.4954" y1="236.3867" y2="235.482"/>
    <line x1="412.9453" x2="402.7754" y1="236.3867" y2="231.3731"/>
    <line x1="392.0927" x2="381.9247" y1="236.3867" y2="231.3692"/>
    <line x1="371.2402" x2="359.9999" y1="236.3867" y2="234.8966"/>
    <line x1="350.3876" x2="339.1001" y1="236.3867" y2="237.462"/>
    <line x1="329.535" x2="318.4381" y1="236.3867" y2="238.7152"/>
    <line x1="308.6825" x2="297.4509" y1="236.3867" y2="237.941"/>
    <line x1="287.8299" x2="276.498" y1="236.3867" y2="235.9973"/>
    <line x1="266.9773" x2="255.6388" y1="236.3867" y2="236.3798"/>
    <line x1="246.1248" x2="235.5111" y1="236.3867" y2="240.3757"/>
    <line x1="225.2722" x2="215.1129" y1="236.3867" y2="241.4218"/>
    <line x1="204.4196" x2="194.4042" y1="236.3867" y2="241.7023"/>
    <line x1="183.5671" x2="173.8854" y1="236.3867" y2="242.2884"/>
    <line x1="162.7145" x2="154.861" y1="236.3867" y2="244.5651"/>
    <line x1="141.8619" x2="133.9871" y1="236.3867" y2="244.5445"/>
    <line x1="121.0094" x2="110.073" y1="236.3867" y2="239.3798"/>
    <line x1="100.1568" x2="88.8434" y1="236.3867" y2="235.6323"/>
    <line x1="88.8196" x2="100.1568" y1="214.7419" y2="214.5685"/>
    <line x1="110.1453" x2="121.0094" y1="217.8144" y2="214.5685"/>
    <line x1="133.5469" x2="141.8619" y1="222.2772" y2="214.5685"/>
    <line x1="154.3175" x2="162.7145" y1="222.1878" y2="214.5685"/>
    <line x1="173.5699" x2="183.5671" y1="219.9182" y2="214.5685"/>
    <line x1="194.2789" x2="204.4196" y1="219.6409" y2="214.5685"/>
    <line x1="215.0969" x2="225.2722" y1="219.5712" y2="214.5685"/>
    <line x1="235.6079" x2="246.1248" y1="218.8062" y2="214.5685"/>
    <line x1="255.764" x2="266.9773" y1="216.2494" y2="214.5685"/>
    <line x1="276.5632" x2="287.8299" y1="215.8435" y2="214.5685"/>
    <line x1="297.5418" x2="308.6825" y1="216.6779" y2="214.5685"/>
    <line x1="318.6714" x2="329.535" y1="217.8159" y2="214.5685"/>
    <line x1="339.2245" x2="350.3876" y1="216.5554" y2="214.5685"/>
    <line x1="359.9524" x2="371.2402" y1="213.496" y2="214.5685"/>
    <line x1="381.5907" x2="392.0927" y1="210.2942" y2="214.5685"/>
    <line x1="402.3765" x2="412.9453" y1="210.4619" y2="214.5685"/>
    <line x1="422.4618" x2="433.7979" y1="214.8077" y2="214.5685"/>
    <line x1="443.6666" x2="454.6504" y1="217.3825" y2="214.5685"/>
    <line x1="465.1616" x2="475.503" y1="219.2182" y2="214.5685"/>
    <line x1="487.9593" x2="496.3556" y1="222.1887" y2="214.5685"/>
    <line x1="509.4462" x2="517.2081" y1="222.8339" y2="214.5685"/>
    <line x1="510.1651" x2="517.2081" y1="201.6362" y2="192.7504"/>
    <line x1="496.3556" x2="487.0504" y1="192.7504" y2="199.2293"/>
    <line x1="475.503" x2="464.9135" y1="192.7504" y2="196.8032"/>
    <line x1="454.6504" x2="443.5595" y1="192.7504" y2="195.1074"/>
    <line x1="433.7979" x2="422.4593" y1="192.7504" y2="192.7591"/>
    <line x1="412.9453" x2="402.19" y1="192.7504" y2="189.1606"/>
    <line x1="392.0927" x2="381.4348" y1="192.7504" y2="188.8811"/>
    <line x1="371.2402" x2="360.0069" y1="192.7504" y2="191.2084"/>
    <line x1="350.3876" x2="339.2901" y1="192.7504" y2="195.0762"/>
    <line x1="329.535" x2="318.9779" y1="192.7504" y2="196.8869"/>
    <line x1="308.6825" x2="298.1515" y1="192.7504" y2="196.9529"/>
    <line x1="287.8299" x2="277.948" y1="192.7504" y2="198.3101"/>
    <line x1="266.9773" x2="257.0208" y1="192.7504" y2="198.1753"/>
    <line x1="246.1248" x2="235.3292" y1="192.7504" y2="196.2171"/>
    <line x1="225.2722" x2="215.0239" y1="192.7504" y2="197.6016"/>
    <line x1="204.4196" x2="194.1672" y1="192.7504" y2="197.593"/>
    <line x1="183.5671" x2="172.7804" y1="192.7504" y2="196.2448"/>
    <line x1="162.7145" x2="151.8338" y1="192.7504" y2="195.9399"/>
    <line x1="141.8619" x2="130.9938" y1="192.7504" y2="195.9825"/>
    <line x1="121.0094" x2="110.0567" y1="192.7504" y2="195.6835"/>
    <line x1="100.1568" x2="88.9991" y1="192.7504" y2="194.7672"/>
    <line x1="88.9221" x2="100.1568" y1="256.6733" y2="258.2049"/>
    <line x1="110.0295" x2="121.0094" y1="261.0344" y2="258.2049"/>
    <line x1="133.1742" x2="141.8619" y1="265.491" y2="258.2049"/>
    <line x1="154.3289" x2="162.7145" y1="265.8368" y2="258.2049"/>
    <line x1="174.4385" x2="183.5671" y1="264.9304" y2="258.2049"/>
    <line x1="195.0001" x2="204.4196" y1="264.5165" y2="258.2049"/>
    <line x1="215.2765" x2="225.2722" y1="263.5574" y2="258.2049"/>
    <line x1="235.1021" x2="246.1248" y1="260.8628" y2="258.2049"/>
    <line x1="255.7616" x2="266.9773" y1="256.5407" y2="258.2049"/>
    <line x1="276.5996" x2="287.8299" y1="256.6415" y2="258.2049"/>
    <line x1="297.4274" x2="308.6825" y1="259.5787" y2="258.2049"/>
    <line x1="318.2141" x2="329.535" y1="258.8378" y2="258.2049"/>
    <line x1="339.0637" x2="350.3876" y1="257.6289" y2="258.2049"/>
    <line x1="360.0305" x2="371.2402" y1="256.5001" y2="258.2049"/>
    <line x1="381.8132" x2="392.0927" y1="253.4202" y2="258.2049"/>
    <line x1="402.7988" x2="412.9453" y1="253.144" y2="258.2049"/>
    <line x1="422.7389" x2="433.7979" y1="255.7024" y2="258.2049"/>
    <line x1="443.4302" x2="454.6504" y1="256.5711" y2="258.2049"/>
    <line x1="464.201" x2="475.503" y1="257.2951" y2="258.2049"/>
    <line x1="485.0188" x2="496.3556" y1="258.4093" y2="258.2049"/>
    <line x1="505.8753" x2="517.2081" y1="257.8453" y2="258.2049"/>
    <line x1="526.7223" x2="538.0607" y1="258.1367" y2="258.2049"/>
    <line x1="547.5934" x2="558.9133" y1="257.5545" y2="258.2049"/>
    <line x1="568.7899" x2="579.7658" y1="255.3601" y2="258.2049"/>
    <line x1="589.9834" x2="600.6184" y1="254.2729" y2="258.2049"/>
    <line x1="610.3485" x2="621.471" y1="256.0018" y2="258.2049"/>
    <line x1="631.3299" x2="642.3235" y1="255.4293" y2="258.2049"/>
    <line x1="652.1712" x2="663.1761" y1="255.4745" y2="258.2049"/>
    <line x1="672.8933" x2="684.0287" y1="260.3419" y2="258.2049"/>
    <line x1="694.9808" x2="704.8812" y1="263.7317" y2="258.2049"/>
    <line x1="695.9901" x2="704.8812" y1="243.4231" y2="236.3867"/>
    <line x1="696.8504" x2="704.8812" y1="222.5729" y2="214.5685"/>
    <line x1="684.0287" x2="673.5428" y1="214.5685" y2="218.8825"/>
    <line x1="663.1761" x2="652.153" y1="214.5685" y2="217.2247"/>
    <line x1="642.3235" x2="631.056" y1="214.5685" y2="215.8357"/>
    <line x1="621.471" x2="610.3367" y1="214.5685" y2="212.4259"/>
    <line x1="600.6184" x2="589.4878" y1="214.5685" y2="212.407"/>
    <line x1="579.7658" x2="568.4738" y1="214.5685" y2="215.595"/>
    <line x1="558.9133" x2="550.1229" y1="214.5685" y2="221.7304"/>
    <line x1="558.9133" x2="548.934" y1="236.3867" y2="241.7697"/>
    <line x1="568.4561" x2="579.7658" y1="235.578" y2="236.3867"/>
    <line x1="589.876" x2="600.6184" y1="232.7586" y2="236.3867"/>
    <line x1="610.4582" x2="621.471" y1="233.6882" y2="236.3867"/>
    <line x1="630.9981" x2="642.3235" y1="235.8398" y2="236.3867"/>
    <line x1="651.8479" x2="663.1761" y1="236.8726" y2="236.3867"/>
    <line x1="673.2125" x2="684.0287" y1="239.7889" y2="236.3867"/>
    <line x1="673.0672" x2="684.0287" y1="277.123" y2="280.0231"/>
    <line x1="693.6037" x2="704.8812" y1="281.1985" y2="280.0231"/>
    <line x1="704.8812" x2="693.5428" y1="301.8413" y2="301.8951"/>
    <line x1="684.0287" x2="673.5865" y1="301.8413" y2="297.4227"/>
    <line x1="663.1761" x2="652.9209" y1="301.8413" y2="297.0044"/>
    <line x1="642.3235" x2="632.2477" y1="301.8413" y2="296.6412"/>
    <line x1="621.471" x2="612.7486" y1="301.8413" y2="294.5967"/>
    <line x1="600.6184" x2="594.0565" y1="301.8413" y2="292.5944"/>
    <line x1="600.6184" x2="592.6529" y1="280.0231" y2="271.9538"/>
    <line x1="579.7658" x2="571.5667" y1="280.0231" y2="272.1912"/>
    <line x1="558.9133" x2="550.086" y1="280.0231" y2="272.9067"/>
    <line x1="538.0607" x2="528.7339" y1="280.0231" y2="273.5753"/>
    <line x1="517.2081" x2="507.5936" y1="280.0231" y2="274.0127"/>
    <line x1="496.3556" x2="485.6174" y1="280.0231" y2="276.3823"/>
    <line x1="475.503" x2="464.3744" y1="280.0231" y2="277.851"/>
    <line x1="454.6504" x2="443.5233" y1="280.0231" y2="277.8434"/>
    <line x1="433.7979" x2="422.9846" y1="280.0231" y2="276.6119"/>
    <line x1="412.9453" x2="402.3162" y1="280.0231" y2="276.0753"/>
    <line x1="392.0927" x2="381.4234" y1="280.0231" y2="276.1854"/>
    <line x1="371.2402" x2="360.3615" y1="280.0231" y2="276.8267"/>
    <line x1="350.3876" x2="340.0103" y1="280.0231" y2="275.4542"/>
    <line x1="329.535" x2="319.1653" y1="280.0231" y2="275.4371"/>
    <line x1="308.6825" x2="298.2504" y1="280.0231" y2="275.5807"/>
    <line x1="287.8299" x2="276.8675" y1="280.0231" y2="277.1266"/>
    <line x1="266.9773" x2="255.7484" y1="280.0231" y2="278.4503"/>
    <line x1="246.1248" x2="234.932" y1="280.0231" y2="281.8355"/>
    <line x1="225.2722" x2="215.451" y1="280.0231" y2="285.6893"/>
    <line x1="204.4196" x2="195.5822" y1="280.0231" y2="287.1269"/>
    <line x1="183.5671" x2="174.8816" y1="280.0231" y2="287.3118"/>
    <line x1="162.7145" x2="152.9082" y1="280.0231" y2="285.7152"/>
    <line x1="141.8619" x2="131.7346" y1="280.0231" y2="285.1222"/>
    <line x1="121.0094" x2="111.0317" y1="280.0231" y2="285.4091"/>
    <line x1="100.1568" x2="88.9948" y1="280.0231" y2="282.0164"/>
    <line x1="89.0559" x2="100.1568" y1="304.1507" y2="301.8413"/>
    <line x1="111.0561" x2="121.0094" y1="307.2722" y2="301.8413"/>
    <line x1="131.7567" x2="141.8619" y1="306.984" y2="301.8413"/>
    <line x1="152.6648" x2="162.7145" y1="307.0916" y2="301.8413"/>
    <line x1="173.8414" x2="183.5671" y1="307.67" y2="301.8413"/>
    <line x1="194.6635" x2="204.4196" y1="307.6189" y2="301.8413"/>
    <line x1="214.7472" x2="225.2722" y1="306.0589" y2="301.8413"/>
    <line x1="234.8029" x2="246.1248" y1="302.4563" y2="301.8413"/>
    <line x1="256.2527" x2="266.9773" y1="298.1607" y2="301.8413"/>
    <line x1="277.5126" x2="287.8299" y1="297.1386" y2="301.8413"/>
    <line x1="298.412" x2="308.6825" y1="297.037" y2="301.8413"/>
    <line x1="319.5024" x2="329.535" y1="296.5584" y2="301.8413"/>
    <line x1="340.3175" x2="350.3876" y1="296.6301" y2="301.8413"/>
    <line x1="360.6331" x2="371.2402" y1="297.8346" y2="301.8413"/>
    <line x1="381.0995" x2="392.0927" y1="299.0643" y2="301.8413"/>
    <line x1="401.9086" x2="412.9453" y1="299.2423" y2="301.8413"/>
    <line x1="422.9749" x2="433.7979" y1="298.461" y2="301.8413"/>
    <line x1="443.8771" x2="454.6504" y1="298.3059" y2="301.8413"/>
    <line x1="465.2729" x2="475.503" y1="296.9516" y2="301.8413"/>
    <line x1="487.9157" x2="496.3556" y1="294.2694" y2="301.8413"/>
    <line x1="490.5728" x2="496.3556" y1="313.9064" y2="323.6594"/>
    <line x1="489.2473" x2="496.3556" y1="336.6438" y2="345.4776"/>
    <line x1="490.143" x2="496.3556" y1="357.8107" y2="367.2958"/>
    <line x1="490.287" x2="496.3556" y1="379.5361" y2="389.114"/>
    <line x1="488.9726" x2="496.3556" y1="402.3267" y2="410.9322"/>
    <line x1="509.4244" x2="517.2081" y1="402.6874" y2="410.9322"/>
    <line x1="529.8455" x2="538.0607" y1="403.1172" y2="410.9322"/>
    <line x1="550.9005" x2="558.9133" y1="402.9097" y2="410.9322"/>
    <line x1="549.4145" x2="558.9133" y1="426.5587" y2="432.7504"/>
    <line x1="572.8023" x2="579.7658" y1="423.802" y2="432.7504"/>
    <line x1="570.4994" x2="579.7658" y1="448.0343" y2="454.5685"/>
    <line x1="592.8433" x2="600.6184" y1="446.3156" y2="454.5685"/>
    <line x1="593.2702" x2="600.6184" y1="467.7515" y2="476.3867"/>
    <line x1="594.7677" x2="600.6184" y1="488.4924" y2="498.2049"/>
    <line x1="597.0579" x2="600.6184" y1="509.258" y2="520.0231"/>
    <line x1="597.1266" x2="600.6184" y1="531.0537" y2="541.8413"/>
    <line x1="596.0611" x2="600.6184" y1="553.277" y2="563.6594"/>
    <line x1="592.841" x2="600.6184" y1="577.2268" y2="585.4776"/>
    <line x1="591.3525" x2="600.6184" y1="600.7608" y2="607.2958"/>
    <line x1="592.8642" x2="600.6184" y1="620.8414" y2="629.114"/>
    <line x1="595.1308" x2="600.6184" y1="641.01" y2="650.9322"/>
    <line x1="595.2465" x2="600.6184" y1="662.765" y2="672.7504"/>
    <line x1="614.5878" x2="621.471" y1="685.5582" y2="694.5685"/>
    <line x1="613.0781" x2="621.471" y1="708.7629" y2="716.3867"/>
    <line x1="635.4006" x2="642.3235" y1="729.2251" y2="738.2049"/>
    <line x1="656.8262" x2="663.1761" y1="728.8112" y2="738.2049"/>
    <line x1="675.3345" x2="684.0287" y1="730.9265" y2="738.2049"/>
    <line x1="694.2616" x2="704.8812" y1="734.2316" y2="738.2049"/>
    <line x1="704.8812" x2="695.7954" y1="716.3867" y2="709.6035"/>
    <line x1="684.0287" x2="677.8171" y1="716.3867" y2="706.9009"/>
    <line x1="684.0287" x2="678.1158" y1="694.5685" y2="684.8937"/>
    <line x1="684.0287" x2="681.3881" y1="672.7504" y2="661.7235"/>
    <line x1="684.0287" x2="681.5466" y1="650.9322" y2="639.8686"/>
    <line x1="684.0287" x2="681.5271" y1="629.114" y2="618.0548"/>
    <line x1="684.0287" x2="680.6231" y1="607.2958" y2="596.4808"/>
    <line x1="684.0287" x2="679.9452" y1="585.4776" y2="574.8999"/>
    <line x1="684.0287" x2="680.1148" y1="563.6594" y2="553.0178"/>
    <line x1="684.0287" x2="683.2833" y1="541.8413" y2="530.5272"/>
    <line x1="684.0287" x2="681.0399" y1="520.0231" y2="509.0855"/>
    <line x1="684.0287" x2="678.2268" y1="498.2049" y2="488.4632"/>
    <line x1="684.0287" x2="676.6194" y1="476.3867" y2="467.8038"/>
    <line x1="684.0287" x2="677.4648" y1="454.5685" y2="445.3231"/>
    <line x1="684.0287" x2="677.3964" y1="432.7504" y2="423.5538"/>
    <line x1="684.0287" x2="676.1908" y1="410.9322" y2="402.7388"/>
    <line x1="663.1761" x2="656.3546" y1="410.9322" y2="401.8751"/>
    <line x1="663.1761" x2="655.7223" y1="389.114" y2="380.5698"/>
    <line x1="663.1761" x2="653.9661" y1="367.2958" y2="360.6823"/>
    <line x1="642.3235" x2="633.0826" y1="367.2958" y2="360.7255"/>
    <line x1="621.471" x2="611.984" y1="367.2958" y2="361.086"/>
    <line x1="600.6184" x2="591.6309" y1="367.2958" y2="360.3829"/>
    <line x1="579.7658" x2="571.1482" y1="367.2958" y2="359.927"/>
    <line x1="558.9133" x2="550.5841" y1="367.2958" y2="359.6024"/>
    <line x1="538.0607" x2="529.9201" y1="367.2958" y2="359.4032"/>
    <line x1="517.2081" x2="509.6764" y1="367.2958" y2="358.8201"/>
    <line x1="517.2081" x2="508.9181" y1="345.4776" y2="337.7421"/>
    <line x1="517.2081" x2="511.9819" y1="323.6594" y2="313.5971"/>
    <line x1="517.2081" x2="510.6998" y1="301.8413" y2="292.5566"/>
    <line x1="531.6116" x2="538.0607" y1="292.5154" y2="301.8413"/>
    <line x1="532.0022" x2="538.0607" y1="314.0752" y2="323.6594"/>
    <line x1="550.3844" x2="558.9133" y1="316.1881" y2="323.6594"/>
    <line x1="571.5707" x2="579.7658" y1="315.8234" y2="323.6594"/>
    <line x1="592.4748" x2="600.6184" y1="315.7699" y2="323.6594"/>
    <line x1="612.7528" x2="621.471" y1="316.4098" y2="323.6594"/>
    <line x1="632.7265" x2="642.3235" y1="317.6212" y2="323.6594"/>
    <line x1="653.3625" x2="663.1761" y1="317.9799" y2="323.6594"/>
    <line x1="673.7826" x2="684.0287" y1="318.8033" y2="323.6594"/>
    <line x1="693.5474" x2="704.8812" y1="323.3312" y2="323.6594"/>
    <line x1="704.8812" x2="693.5755" y1="345.4776" y2="344.6157"/>
    <line x1="684.0287" x2="673.4404" y1="345.4776" y2="341.4214"/>
    <line x1="663.1761" x2="653.2728" y1="345.4776" y2="339.956"/>
    <line x1="642.3235" x2="632.4292" y1="345.4776" y2="339.94"/>
    <line x1="621.471" x2="611.4382" y1="345.4776" y2="340.1948"/>
    <line x1="600.6184" x2="590.7425" y1="345.4776" y2="339.9072"/>
    <line x1="579.7658" x2="570.6767" y1="345.4776" y2="338.6989"/>
    <line x1="558.9133" x2="551.7208" y1="345.4776" y2="336.7123"/>
    <line x1="538.0607" x2="529.6237" y1="345.4776" y2="337.9027"/>
    <line x1="530.2403" x2="538.0607" y1="380.9039" y2="389.114"/>
    <line x1="550.2474" x2="558.9133" y1="381.8019" y2="389.114"/>
    <line x1="573.2573" x2="579.7658" y1="379.8294" y2="389.114"/>
    <line x1="575.4363" x2="579.7658" y1="400.4527" y2="410.9322"/>
    <line x1="595.3719" x2="600.6184" y1="422.6986" y2="432.7504"/>
    <line x1="614.8204" x2="621.471" y1="445.3852" y2="454.5685"/>
    <line x1="614.192" x2="621.471" y1="467.693" y2="476.3867"/>
    <line x1="615.752" x2="621.471" y1="488.4143" y2="498.2049"/>
    <line x1="618.1007" x2="621.471" y1="509.197" y2="520.0231"/>
    <line x1="618.5202" x2="621.471" y1="530.8934" y2="541.8413"/>
    <line x1="618.3542" x2="621.471" y1="552.7576" y2="563.6594"/>
    <line x1="615.9233" x2="621.471" y1="575.5889" y2="585.4776"/>
    <line x1="614.5249" x2="621.471" y1="598.3339" y2="607.2958"/>
    <line x1="614.9005" x2="621.471" y1="619.8732" y2="629.114"/>
    <line x1="617.6457" x2="621.471" y1="640.2583" y2="650.9322"/>
    <line x1="618.7948" x2="621.471" y1="661.7321" y2="672.7504"/>
    <line x1="642.3235" x2="641.8348" y1="672.7504" y2="661.4223"/>
    <line x1="642.3235" x2="640.5683" y1="650.9322" y2="639.7303"/>
    <line x1="642.3235" x2="638.6472" y1="629.114" y2="618.3879"/>
    <line x1="642.3235" x2="639.8543" y1="607.2958" y2="596.2294"/>
    <line x1="642.3235" x2="640.3342" y1="585.4776" y2="574.3149"/>
    <line x1="642.3235" x2="641.4286" y1="563.6594" y2="552.3562"/>
    <line x1="642.3235" x2="642.1997" y1="541.8413" y2="530.5034"/>
    <line x1="642.3235" x2="642.0864" y1="520.0231" y2="508.687"/>
    <line x1="642.3235" x2="639.359" y1="498.2049" y2="487.2607"/>
    <line x1="642.3235" x2="636.2388" y1="476.3867" y2="466.8191"/>
    <line x1="642.3235" x2="636.3849" y1="454.5685" y2="444.9096"/>
    <line x1="642.3235" x2="636.8002" y1="432.7504" y2="422.848"/>
    <line x1="642.3235" x2="636.4349" y1="410.9322" y2="401.2426"/>
    <line x1="642.3235" x2="634.9737" y1="389.114" y2="380.4801"/>
    <line x1="621.471" x2="614.3164" y1="389.114" y2="380.3176"/>
    <line x1="600.6184" x2="594.6862" y1="389.114" y2="379.4511"/>
    <line x1="597.8685" x2="600.6184" y1="399.9321" y2="410.9322"/>
    <line x1="616.7345" x2="621.471" y1="422.4485" y2="432.7504"/>
    <line x1="621.471" x2="618.0689" y1="410.9322" y2="400.116"/>
    <line x1="657.3308" x2="663.1761" y1="423.0346" y2="432.7504"/>
    <line x1="657.3568" x2="663.1761" y1="444.8372" y2="454.5685"/>
    <line x1="657.1641" x2="663.1761" y1="466.7732" y2="476.3867"/>
    <line x1="660.6511" x2="663.1761" y1="487.151" y2="498.2049"/>
    <line x1="663.5907" x2="663.1761" y1="508.6921" y2="520.0231"/>
    <line x1="663.9985" x2="663.1761" y1="530.5326" y2="541.8413"/>
    <line x1="662.3796" x2="663.1761" y1="552.3489" y2="563.6594"/>
    <line x1="661.7622" x2="663.1761" y1="574.2275" y2="585.4776"/>
    <line x1="661.8646" x2="663.1761" y1="596.0333" y2="607.2958"/>
    <line x1="660.5105" x2="663.1761" y1="618.0932" y2="629.114"/>
    <line x1="661.8758" x2="663.1761" y1="639.6684" y2="650.9322"/>
    <line x1="662.8791" x2="663.1761" y1="661.4157" y2="672.7504"/>
    <line x1="661.9858" x2="663.1761" y1="683.2926" y2="694.5685"/>
    <line x1="660.8328" x2="663.1761" y1="705.2929" y2="716.3867"/>
    <line x1="642.3235" x2="639.1714" y1="716.3867" y2="705.4951"/>
    <line x1="642.3235" x2="640.4049" y1="694.5685" y2="683.3935"/>
    <line x1="600.6184" x2="590.7156" y1="694.5685" y2="689.0461"/>
    <line x1="579.7658" x2="568.9544" y1="694.5685" y2="691.1514"/>
    <line x1="558.9133" x2="548.4102" y1="694.5685" y2="690.2966"/>
    <line x1="538.0607" x2="527.0733" y1="694.5685" y2="691.7683"/>
    <line x1="517.2081" x2="505.9695" y1="694.5685" y2="693.0661"/>
    <line x1="496.3556" x2="485.1225" y1="694.5685" y2="696.1115"/>
    <line x1="475.503" x2="464.4217" y1="694.5685" y2="696.97"/>
    <line x1="454.6504" x2="443.3498" y1="694.5685" y2="695.4951"/>
    <line x1="433.7979" x2="422.7362" y1="694.5685" y2="692.0782"/>
    <line x1="412.9453" x2="403.243" y1="694.5685" y2="688.701"/>
    <line x1="392.0927" x2="382.5454" y1="694.5685" y2="688.4521"/>
    <line x1="371.2402" x2="361.2035" y1="694.5685" y2="689.2933"/>
    <line x1="350.3876" x2="340.8316" y1="694.5685" y2="688.4656"/>
    <line x1="329.535" x2="320.4397" y1="694.5685" y2="687.7981"/>
    <line x1="308.6825" x2="300.1254" y1="694.5685" y2="687.1294"/>
    <line x1="287.8299" x2="278.9331" y1="694.5685" y2="687.5393"/>
    <line x1="266.9773" x2="256.9845" y1="694.5685" y2="689.2106"/>
    <line x1="246.1248" x2="234.7973" y1="694.5685" y2="694.0659"/>
    <line x1="225.2722" x2="214.0475" y1="694.5685" y2="696.1716"/>
    <line x1="204.4196" x2="194.0709" y1="694.5685" y2="699.2019"/>
    <line x1="183.5671" x2="175.6375" y1="694.5685" y2="702.6732"/>
    <line x1="162.7145" x2="157.1191" y1="694.5685" y2="704.4303"/>
    <line x1="162.7145" x2="155.7262" y1="716.3867" y2="725.3157"/>
    <line x1="162.7145" x2="155.1679" y1="738.2049" y2="746.6673"/>
    <line x1="162.7145" x2="154.0908" y1="760.0231" y2="767.3848"/>
    <line x1="141.8619" x2="133.2113" y1="760.0231" y2="767.3532"/>
    <line x1="121.0094" x2="112.8552" y1="760.0231" y2="767.9018"/>
    <line x1="100.1568" x2="93.0318" y1="760.0231" y2="768.8434"/>
    <line x1="100.1568" x2="94.4658" y1="781.8413" y2="791.6482"/>
    <line x1="100.1568" x2="93.0396" y1="803.6594" y2="812.4861"/>
    <line x1="100.1568" x2="90.0316" y1="825.4776" y2="830.581"/>
    <line x1="100.1568" x2="89.2272" y1="847.2958" y2="850.3136"/>
    <line x1="110.0343" x2="121.0094" y1="850.1439" y2="847.2958"/>
    <line x1="131.6623" x2="141.8619" y1="852.2487" y2="847.2958"/>
    <line x1="152.6733" x2="162.7145" y1="852.5624" y2="847.2958"/>
    <line x1="173.8129" x2="183.5671" y1="853.0768" y2="847.2958"/>
    <line x1="195.0084" x2="204.4196" y1="853.6198" y2="847.2958"/>
    <line x1="215.4167" x2="225.2722" y1="852.9023" y2="847.2958"/>
    <line x1="235.3364" x2="246.1248" y1="850.785" y2="847.2958"/>
    <line x1="255.6728" x2="266.9773" y1="848.1739" y2="847.2958"/>
    <line x1="276.5978" x2="287.8299" y1="845.7459" y2="847.2958"/>
    <line x1="298.3111" x2="308.6825" y1="842.7135" y2="847.2958"/>
    <line x1="323.0146" x2="329.535" y1="838.0197" y2="847.2958"/>
    <line x1="322.8989" x2="329.535" y1="859.9203" y2="869.114"/>
    <line x1="322.5733" x2="329.535" y1="881.9824" y2="890.9322"/>
    <line x1="323.9918" x2="329.535" y1="902.8591" y2="912.7504"/>
    <line x1="323.9043" x2="329.535" y1="924.7269" y2="934.5685"/>
    <line x1="323.7645" x2="329.535" y1="946.6264" y2="956.3867"/>
    <line x1="324.49" x2="329.535" y1="968.0505" y2="978.2049"/>
    <line x1="324.2442" x2="329.535" y1="989.9946" y2="1000.0231"/>
    <line x1="323.9671" x2="329.535" y1="1011.9639" y2="1021.8413"/>
    <line x1="325.0215" x2="329.535" y1="1033.2579" y2="1043.6594"/>
    <line x1="308.6825" x2="301.5342" y1="1043.6594" y2="1034.858"/>
    <line x1="308.6825" x2="298.4435" y1="1021.8413" y2="1016.9702"/>
    <line x1="287.8299" x2="276.5624" y1="1021.8413" y2="1020.5735"/>
    <line x1="266.9773" x2="255.655" y1="1021.8413" y2="1022.4472"/>
    <line x1="246.1248" x2="234.8553" y1="1021.8413" y2="1023.0909"/>
    <line x1="225.2722" x2="213.9932" y1="1021.8413" y2="1020.6808"/>
    <line x1="204.4196" x2="193.5328" y1="1021.8413" y2="1018.6726"/>
    <line x1="183.5671" x2="173.7206" y1="1021.8413" y2="1016.2189"/>
    <line x1="162.7145" x2="153.3715" y1="1021.8413" y2="1015.417"/>
    <line x1="141.8619" x2="132.4274" y1="1021.8413" y2="1015.5521"/>
    <line x1="121.0094" x2="110.8894" y1="1021.8413" y2="1016.7276"/>
    <line x1="100.1568" x2="89.2371" y1="1021.8413" y2="1018.788"/>
    <line x1="89.4014" x2="100.1568" y1="1040.0701" y2="1043.6594"/>
    <line x1="111.6595" x2="121.0094" y1="1037.2452" y2="1043.6594"/>
    <line x1="135.3641" x2="141.8619" y1="1034.3675" y2="1043.6594"/>
    <line x1="155.2571" x2="162.7145" y1="1035.1184" y2="1043.6594"/>
    <line x1="173.0315" x2="183.5671" y1="1039.4684" y2="1043.6594"/>
    <line x1="193.9624" x2="204.4196" y1="1039.2766" y2="1043.6594"/>
    <line x1="214.4553" x2="225.2722" y1="1040.2598" y2="1043.6594"/>
    <line x1="234.8454" x2="246.1248" y1="1042.5024" y2="1043.6594"/>
    <line x1="256.3254" x2="266.9773" y1="1039.7737" y2="1043.6594"/>
    <line x1="278.274" x2="287.8299" y1="1037.5563" y2="1043.6594"/>
    <line x1="276.6092" x2="287.8299" y1="1001.6537" y2="1000.0231"/>
    <line x1="297.9998" x2="308.6825" y1="996.2226" y2="1000.0231"/>
    <line x1="308.6825" x2="298.6175" y1="978.2049" y2="972.9839"/>
    <line x1="287.8299" x2="276.6316" y1="978.2049" y2="979.9831"/>
    <line x1="266.9773" x2="256.3583" y1="978.2049" y2="982.1798"/>
    <line x1="246.1248" x2="234.8325" y1="978.2049" y2="979.2285"/>
    <line x1="225.2722" x2="214.1876" y1="978.2049" y2="975.8187"/>
    <line x1="204.4196" x2="193.8312" y1="978.2049" y2="974.1494"/>
    <line x1="183.5671" x2="172.744" y1="978.2049" y2="974.8248"/>
    <line x1="162.7145" x2="151.4754" y1="978.2049" y2="976.7062"/>
    <line x1="141.8619" x2="130.5624" y1="978.2049" y2="977.2649"/>
    <line x1="121.0094" x2="109.6801" y1="978.2049" y2="977.7468"/>
    <line x1="100.1568" x2="89.268" y1="978.2049" y2="975.0432"/>
    <line x1="88.8756" x2="100.1568" y1="955.2476" y2="956.3867"/>
    <line x1="109.7091" x2="121.0094" y1="955.4558" y2="956.3867"/>
    <line x1="130.8226" x2="141.8619" y1="953.7989" y2="956.3867"/>
    <line x1="151.8176" x2="162.7145" y1="953.253" y2="956.3867"/>
    <line x1="172.8296" x2="183.5671" y1="952.7438" y2="956.3867"/>
    <line x1="193.1955" x2="204.4196" y1="954.7798" y2="956.3867"/>
    <line x1="213.9336" x2="225.2722" y1="956.3889" y2="956.3867"/>
    <line x1="234.8401" x2="246.1248" y1="957.4907" y2="956.3867"/>
    <line x1="256.2751" x2="266.9773" y1="960.1319" y2="956.3867"/>
    <line x1="276.6618" x2="287.8299" y1="958.3453" y2="956.3867"/>
    <line x1="297.9743" x2="308.6825" y1="952.6586" y2="956.3867"/>
    <line x1="308.6825" x2="298.5751" y1="934.5685" y2="929.43"/>
    <line x1="287.8299" x2="276.6986" y1="934.5685" y2="932.4106"/>
    <line x1="266.9773" x2="255.64" y1="934.5685" y2="934.3993"/>
    <line x1="246.1248" x2="234.8498" y1="934.5685" y2="935.7677"/>
    <line x1="225.2722" x2="214.6265" y1="934.5685" y2="938.4714"/>
    <line x1="204.4196" x2="193.4954" y1="934.5685" y2="937.6058"/>
    <line x1="183.5671" x2="172.3849" y1="934.5685" y2="932.6916"/>
    <line x1="162.7145" x2="151.9737" y1="934.5685" y2="930.9354"/>
    <line x1="141.8619" x2="131.0615" y1="934.5685" y2="931.1169"/>
    <line x1="121.0094" x2="109.7332" y1="934.5685" y2="933.3802"/>
    <line x1="100.1568" x2="88.8304" y1="934.5685" y2="935.0936"/>
    <line x1="88.9827" x2="100.1568" y1="914.6748" y2="912.7504"/>
    <line x1="109.6793" x2="121.0094" y1="912.3106" y2="912.7504"/>
    <line x1="130.7054" x2="141.8619" y1="910.7265" y2="912.7504"/>
    <line x1="151.5738" x2="162.7145" y1="910.6413" y2="912.7504"/>
    <line x1="172.2299" x2="183.5671" y1="912.5696" y2="912.7504"/>
    <line x1="194.3418" x2="204.4196" y1="917.9466" y2="912.7504"/>
    <line x1="215.315" x2="225.2722" y1="918.1741" y2="912.7504"/>
    <line x1="234.8532" x2="246.1248" y1="913.9815" y2="912.7504"/>
    <line x1="255.928" x2="266.9773" y1="910.2056" y2="912.7504"/>
    <line x1="277.4649" x2="287.8299" y1="908.1536" y2="912.7504"/>
    <line x1="299.0482" x2="308.6825" y1="906.7716" y2="912.7504"/>
    <line x1="308.6825" x2="299.9199" y1="890.9322" y2="883.7363"/>
    <line x1="287.8299" x2="277.2275" y1="890.9322" y2="886.9133"/>
    <line x1="266.9773" x2="255.7289" y1="890.9322" y2="889.5051"/>
    <line x1="246.1248" x2="234.8335" y1="890.9322" y2="891.9665"/>
    <line x1="225.2722" x2="214.5337" y1="890.9322" y2="894.5719"/>
    <line x1="204.4196" x2="193.7237" y1="890.9322" y2="894.6951"/>
    <line x1="183.5671" x2="172.324" y1="890.9322" y2="892.4003"/>
    <line x1="162.7145" x2="151.4222" y1="890.9322" y2="891.9559"/>
    <line x1="141.8619" x2="130.5874" y1="890.9322" y2="892.1359"/>
    <line x1="121.0094" x2="109.6818" y1="890.9322" y2="891.4321"/>
    <line x1="100.1568" x2="89.0132" y1="890.9322" y2="893.0256"/>
    <line x1="89.0516" x2="100.1568" y1="871.4024" y2="869.114"/>
    <line x1="109.8516" x2="121.0094" y1="871.1307" y2="869.114"/>
    <line x1="131.3128" x2="141.8619" y1="873.2708" y2="869.114"/>
    <line x1="152.2342" x2="162.7145" y1="873.4414" y2="869.114"/>
    <line x1="173.2246" x2="183.5671" y1="873.7613" y2="869.114"/>
    <line x1="194.5002" x2="204.4196" y1="874.6066" y2="869.114"/>
    <line x1="215.0541" x2="225.2722" y1="874.0285" y2="869.114"/>
    <line x1="235.1314" x2="246.1248" y1="871.8906" y2="869.114"/>
    <line x1="255.6543" x2="266.9773" y1="869.708" y2="869.114"/>
    <line x1="276.6679" x2="287.8299" y1="867.1206" y2="869.114"/>
    <line x1="298.8345" x2="308.6825" y1="863.4944" y2="869.114"/>
    <line x1="343.9894" x2="350.3876" y1="859.7531" y2="869.114"/>
    <line x1="361.9376" x2="371.2402" y1="862.6313" y2="869.114"/>
    <line x1="382.4624" x2="392.0927" y1="863.129" y2="869.114"/>
    <line x1="403.5929" x2="412.9453" y1="862.7033" y2="869.114"/>
    <line x1="424.9825" x2="433.7979" y1="861.9828" y2="869.114"/>
    <line x1="445.0485" x2="454.6504" y1="863.0836" y2="869.114"/>
    <line x1="464.9852" x2="475.503" y1="864.8784" y2="869.114"/>
    <line x1="485.1443" x2="496.3556" y1="867.4197" y2="869.114"/>
    <line x1="506.3424" x2="517.2081" y1="872.3544" y2="869.114"/>
    <line x1="528.9885" x2="538.0607" y1="875.9154" y2="869.114"/>
    <line x1="551.0422" x2="558.9133" y1="877.2754" y2="869.114"/>
    <line x1="551.9452" x2="558.9133" y1="856.2407" y2="847.2958"/>
    <line x1="551.3066" x2="558.9133" y1="833.8861" y2="825.4776"/>
    <line x1="550.9537" x2="558.9133" y1="811.7346" y2="803.6594"/>
    <line x1="550.1746" x2="558.9133" y1="789.0662" y2="781.8413"/>
    <line x1="571.9356" x2="579.7658" y1="790.0419" y2="781.8413"/>
    <line x1="592.2211" x2="600.6184" y1="789.4603" y2="781.8413"/>
    <line x1="612.4177" x2="621.471" y1="788.6678" y2="781.8413"/>
    <line x1="633.404" x2="642.3235" y1="788.8416" y2="781.8413"/>
    <line x1="654.1251" x2="663.1761" y1="788.6709" y2="781.8413"/>
    <line x1="673.7832" x2="684.0287" y1="786.6987" y2="781.8413"/>
    <line x1="694.7475" x2="704.8812" y1="786.9276" y2="781.8413"/>
    <line x1="704.8812" x2="697.2698" y1="803.6594" y2="812.0636"/>
    <line x1="704.8812" x2="699.3932" y1="825.4776" y2="835.3996"/>
    <line x1="704.8812" x2="697.8825" y1="847.2958" y2="856.2166"/>
    <line x1="704.8812" x2="698.4355" y1="869.114" y2="878.4422"/>
    <line x1="704.8812" x2="699.5356" y1="890.9322" y2="900.9316"/>
    <line x1="704.8812" x2="698.5595" y1="912.7504" y2="922.1631"/>
    <line x1="704.8812" x2="697.7491" y1="934.5685" y2="943.3831"/>
    <line x1="704.8812" x2="696.0651" y1="956.3867" y2="963.5169"/>
    <line x1="684.0287" x2="676.5154" y1="956.3867" y2="964.8788"/>
    <line x1="684.0287" x2="673.8528" y1="978.2049" y2="983.2065"/>
    <line x1="663.1761" x2="655.4265" y1="978.2049" y2="986.4818"/>
    <line x1="642.3235" x2="634.4426" y1="978.2049" y2="986.3568"/>
    <line x1="621.471" x2="611.1857" y1="978.2049" y2="982.9774"/>
    <line x1="600.6184" x2="589.2799" y1="978.2049" y2="978.1546"/>
    <line x1="579.7658" x2="569.7234" y1="978.2049" y2="972.9406"/>
    <line x1="558.9133" x2="553.533" y1="978.2049" y2="968.2241"/>
    <line x1="558.9133" x2="549.5889" y1="956.3867" y2="949.9354"/>
    <line x1="538.0607" x2="531.7293" y1="956.3867" y2="946.9805"/>
    <line x1="538.0607" x2="529.6529" y1="934.5685" y2="926.9612"/>
    <line x1="517.2081" x2="511.3107" y1="934.5685" y2="924.8843"/>
    <line x1="517.2081" x2="508.71" y1="912.7504" y2="905.244"/>
    <line x1="496.3556" x2="488.4928" y1="912.7504" y2="904.5809"/>
    <line x1="475.503" x2="468.0677" y1="912.7504" y2="904.19"/>
    <line x1="475.503" x2="465.299" y1="890.9322" y2="885.9882"/>
    <line x1="454.6504" x2="445.2945" y1="890.9322" y2="884.5267"/>
    <line x1="433.7979" x2="426.021" y1="890.9322" y2="882.6809"/>
    <line x1="412.9453" x2="406.0041" y1="890.9322" y2="881.9665"/>
    <line x1="392.0927" x2="384.9688" y1="890.9322" y2="882.1111"/>
    <line x1="371.2402" x2="363.5999" y1="890.9322" y2="882.5542"/>
    <line x1="350.3876" x2="344.1423" y1="890.9322" y2="881.4686"/>
    <line x1="347.4803" x2="350.3876" y1="901.7908" y2="912.7504"/>
    <line x1="348.7312" x2="350.3876" y1="923.3516" y2="934.5685"/>
    <line x1="349.543" x2="350.3876" y1="945.0796" y2="956.3867"/>
    <line x1="350.0453" x2="350.3876" y1="966.8715" y2="978.2049"/>
    <line x1="350.2924" x2="350.3876" y1="988.6849" y2="1000.0231"/>
    <line x1="349.1889" x2="350.3876" y1="1010.5662" y2="1021.8413"/>
    <line x1="348.0747" x2="350.3876" y1="1032.5593" y2="1043.6594"/>
    <line x1="371.2402" x2="371.099" y1="1043.6594" y2="1032.3217"/>
    <line x1="371.2402" x2="373.3331" y1="1021.8413" y2="1010.6975"/>
    <line x1="371.2402" x2="373.5517" y1="1000.0231" y2="988.9226"/>
    <line x1="371.2402" x2="372.2149" y1="978.2049" y2="966.9083"/>
    <line x1="371.2402" x2="372.1886" y1="956.3867" y2="945.0879"/>
    <line x1="371.2402" x2="370.6507" y1="934.5685" y2="923.2453"/>
    <line x1="371.2402" x2="367.7662" y1="912.7504" y2="901.9571"/>
    <line x1="387.0223" x2="392.0927" y1="902.6087" y2="912.7504"/>
    <line x1="390.6587" x2="392.0927" y1="923.321" y2="934.5685"/>
    <line x1="392.5959" x2="392.0927" y1="945.0593" y2="956.3867"/>
    <line x1="392.7994" x2="392.0927" y1="966.8884" y2="978.2049"/>
    <line x1="394.9073" x2="392.0927" y1="989.0394" y2="1000.0231"/>
    <line x1="395.9146" x2="392.0927" y1="1011.1662" y2="1021.8413"/>
    <line x1="394.0069" x2="392.0927" y1="1032.4836" y2="1043.6594"/>
    <line x1="412.9453" x2="414.9127" y1="1043.6594" y2="1032.4929"/>
    <line x1="412.9453" x2="416.7245" y1="1021.8413" y2="1011.151"/>
    <line x1="412.9453" x2="415.7519" y1="1000.0231" y2="989.0373"/>
    <line x1="412.9453" x2="414.106" y1="978.2049" y2="966.9259"/>
    <line x1="412.9453" x2="413.0372" y1="956.3867" y2="945.0485"/>
    <line x1="412.9453" x2="410.9232" y1="934.5685" y2="923.4117"/>
    <line x1="412.9453" x2="407.2946" y1="912.7504" y2="902.9202"/>
    <line x1="427.1887" x2="433.7979" y1="903.5372" y2="912.7504"/>
    <line x1="430.3093" x2="433.7979" y1="923.78" y2="934.5685"/>
    <line x1="432.6406" x2="433.7979" y1="945.1074" y2="956.3867"/>
    <line x1="436.1877" x2="433.7979" y1="967.121" y2="978.2049"/>
    <line x1="436.0367" x2="433.7979" y1="988.9077" y2="1000.0231"/>
    <line x1="436.4082" x2="433.7979" y1="1010.8072" y2="1021.8413"/>
    <line x1="434.7263" x2="433.7979" y1="1032.3589" y2="1043.6594"/>
    <line x1="454.6504" x2="455.4661" y1="1043.6594" y2="1032.3502"/>
    <line x1="454.6504" x2="456.2162" y1="1021.8413" y2="1010.6113"/>
    <line x1="454.6504" x2="454.7537" y1="1000.0231" y2="988.685"/>
    <line x1="454.6504" x2="453.7337" y1="978.2049" y2="966.9034"/>
    <line x1="454.6504" x2="452.2756" y1="956.3867" y2="945.2996"/>
    <line x1="454.6504" x2="450.6622" y1="934.5685" y2="923.9545"/>
    <line x1="454.6504" x2="448.1102" y1="912.7504" y2="903.4882"/>
    <line x1="470.4957" x2="475.503" y1="924.3955" y2="934.5685"/>
    <line x1="472.0861" x2="475.503" y1="945.5752" y2="956.3867"/>
    <line x1="473.1493" x2="475.503" y1="967.1133" y2="978.2049"/>
    <line x1="474.0281" x2="475.503" y1="988.7808" y2="1000.0231"/>
    <line x1="475.5108" x2="475.503" y1="1010.5027" y2="1021.8413"/>
    <line x1="475.1862" x2="475.503" y1="1032.3253" y2="1043.6594"/>
    <line x1="493.2103" x2="496.3556" y1="1032.7659" y2="1043.6594"/>
    <line x1="512.9683" x2="517.2081" y1="1033.1434" y2="1043.6594"/>
    <line x1="532.761" x2="538.0607" y1="1033.6356" y2="1043.6594"/>
    <line x1="552.1549" x2="558.9133" y1="1034.5552" y2="1043.6594"/>
    <line x1="572.8287" x2="579.7658" y1="1034.6907" y2="1043.6594"/>
    <line x1="592.6405" x2="600.6184" y1="1035.6024" y2="1043.6594"/>
    <line x1="611.2376" x2="621.471" y1="1038.7767" y2="1043.6594"/>
    <line x1="631.4977" x2="642.3235" y1="1040.2883" y2="1043.6594"/>
    <line x1="652.3466" x2="663.1761" y1="1040.3" y2="1043.6594"/>
    <line x1="673.5346" x2="684.0287" y1="1039.3656" y2="1043.6594"/>
    <line x1="696.267" x2="704.8812" y1="1036.2866" y2="1043.6594"/>
    <line x1="704.8812" x2="694.1658" y1="1021.8413" y2="1018.1341"/>
    <line x1="684.0287" x2="672.7274" y1="1021.8413" y2="1022.7609"/>
    <line x1="663.1761" x2="651.8475" y1="1021.8413" y2="1022.317"/>
    <line x1="642.3235" x2="630.9874" y1="1021.8413" y2="1022.0761"/>
    <line x1="621.471" x2="610.2431" y1="1021.8413" y2="1020.2609"/>
    <line x1="600.6184" x2="590.879" y1="1021.8413" y2="1016.0355"/>
    <line x1="579.7658" x2="571.7405" y1="1021.8413" y2="1013.8314"/>
    <line x1="558.9133" x2="552.487" y1="1021.8413" y2="1012.4996"/>
    <line x1="558.9133" x2="553.1853" y1="1000.0231" y2="990.2377"/>
    <line x1="536.4625" x2="538.0607" y1="988.7977" y2="1000.0231"/>
    <line x1="535.1001" x2="538.0607" y1="1010.896" y2="1021.8413"/>
    <line x1="517.2081" x2="515.4509" y1="1021.8413" y2="1010.6397"/>
    <line x1="517.2081" x2="517.1027" y1="1000.0231" y2="988.685"/>
    <line x1="517.2081" x2="517.1924" y1="978.2049" y2="966.8663"/>
    <line x1="517.2081" x2="513.654" y1="956.3867" y2="945.6196"/>
    <line x1="494.2429" x2="496.3556" y1="945.2467" y2="956.3867"/>
    <line x1="496.4575" x2="496.3556" y1="966.8668" y2="978.2049"/>
    <line x1="494.8036" x2="496.3556" y1="988.7912" y2="1000.0231"/>
    <line x1="493.9524" x2="496.3556" y1="1010.7603" y2="1021.8413"/>
    <line x1="538.0607" x2="535.9104" y1="978.2049" y2="967.0721"/>
    <line x1="569.0693" x2="579.7658" y1="952.6255" y2="956.3867"/>
    <line x1="589.2941" x2="600.6184" y1="956.9565" y2="956.3867"/>
    <line x1="613.0667" x2="621.471" y1="963.998" y2="956.3867"/>
    <line x1="614.1548" x2="621.471" y1="943.2309" y2="934.5685"/>
    <line x1="615.1089" x2="621.471" y1="922.1358" y2="912.7504"/>
    <line x1="615.985" x2="621.471" y1="900.8552" y2="890.9322"/>
    <line x1="617.1334" x2="621.471" y1="879.5901" y2="869.114"/>
    <line x1="617.3865" x2="621.471" y1="857.8732" y2="847.2958"/>
    <line x1="617.9145" x2="621.471" y1="836.244" y2="825.4776"/>
    <line x1="615.6802" x2="621.471" y1="813.4078" y2="803.6594"/>
    <line x1="637.6758" x2="642.3235" y1="814.0017" y2="803.6594"/>
    <line x1="658.5512" x2="663.1761" y1="814.0119" y2="803.6594"/>
    <line x1="677.0771" x2="684.0287" y1="812.6171" y2="803.6594"/>
    <line x1="684.0287" x2="680.8995" y1="825.4776" y2="836.3759"/>
    <line x1="684.0287" x2="679.1566" y1="847.2958" y2="857.5343"/>
    <line x1="684.0287" x2="678.8773" y1="869.114" y2="879.2148"/>
    <line x1="684.0287" x2="678.8045" y1="890.9322" y2="900.9956"/>
    <line x1="684.0287" x2="678.0619" y1="912.7504" y2="922.392"/>
    <line x1="684.0287" x2="677.8198" y1="934.5685" y2="944.0561"/>
    <line x1="663.1761" x2="658.5525" y1="934.5685" y2="944.9216"/>
    <line x1="663.1761" x2="657.4022" y1="956.3867" y2="966.1451"/>
    <line x1="642.3235" x2="636.4682" y1="956.3867" y2="966.0965"/>
    <line x1="637.6689" x2="642.3235" y1="944.9077" y2="934.5685"/>
    <line x1="638.3723" x2="642.3235" y1="923.3782" y2="912.7504"/>
    <line x1="639.8923" x2="642.3235" y1="902.007" y2="890.9322"/>
    <line x1="640.7271" x2="642.3235" y1="880.3396" y2="869.114"/>
    <line x1="641.1262" x2="642.3235" y1="858.571" y2="847.2958"/>
    <line x1="641.1023" x2="642.3235" y1="836.7503" y2="825.4776"/>
    <line x1="663.1761" x2="662.4533" y1="825.4776" y2="836.7932"/>
    <line x1="663.1761" x2="662.3164" y1="847.2958" y2="858.6018"/>
    <line x1="663.1761" x2="661.8087" y1="869.114" y2="880.3698"/>
    <line x1="663.1761" x2="660.9887" y1="890.9322" y2="902.0578"/>
    <line x1="663.1761" x2="659.1092" y1="912.7504" y2="923.3345"/>
    <line x1="600.6184" x2="590.8328" y1="912.7504" y2="918.4779"/>
    <line x1="579.7658" x2="568.7361" y1="912.7504" y2="915.3788"/>
    <line x1="558.9133" x2="547.6212" y1="912.7504" y2="911.7246"/>
    <line x1="538.0607" x2="527.7874" y1="912.7504" y2="907.9521"/>
    <line x1="526.915" x2="538.0607" y1="893.0149" y2="890.9322"/>
    <line x1="548.2735" x2="558.9133" y1="894.8512" y2="890.9322"/>
    <line x1="569.9632" x2="579.7658" y1="896.6306" y2="890.9322"/>
    <line x1="592.0729" x2="600.6184" y1="898.3846" y2="890.9322"/>
    <line x1="594.2044" x2="600.6184" y1="878.4641" y2="869.114"/>
    <line x1="595.0312" x2="600.6184" y1="857.1622" y2="847.2958"/>
    <line x1="596.6658" x2="600.6184" y1="836.105" y2="825.4776"/>
    <line x1="594.6979" x2="600.6184" y1="813.3296" y2="803.6594"/>
    <line x1="579.7658" x2="573.5679" y1="803.6594" y2="813.1541"/>
    <line x1="579.7658" x2="574.5976" y1="825.4776" y2="835.5699"/>
    <line x1="579.7658" x2="573.3031" y1="847.2958" y2="856.6123"/>
    <line x1="579.7658" x2="572.3773" y1="869.114" y2="877.7148"/>
    <line x1="538.0607" x2="529.4615" y1="847.2958" y2="854.6861"/>
    <line x1="517.2081" x2="506.5826" y1="847.2958" y2="851.2532"/>
    <line x1="496.3556" x2="485.0475" y1="847.2958" y2="846.4651"/>
    <line x1="475.503" x2="465.175" y1="847.2958" y2="842.6165"/>
    <line x1="454.6504" x2="445.3862" y1="847.2958" y2="840.7584"/>
    <line x1="433.7979" x2="424.9396" y1="847.2958" y2="840.218"/>
    <line x1="412.9453" x2="403.0385" y1="847.2958" y2="841.7805"/>
    <line x1="392.0927" x2="381.8927" y1="847.2958" y2="842.3439"/>
    <line x1="371.2402" x2="361.6036" y1="847.2958" y2="841.3209"/>
    <line x1="350.3876" x2="344.1141" y1="847.2958" y2="837.8509"/>
    <line x1="350.3876" x2="342.0847" y1="825.4776" y2="817.7559"/>
    <line x1="329.535" x2="320.9317" y1="825.4776" y2="818.0921"/>
    <line x1="308.6825" x2="298.1991" y1="825.4776" y2="821.1576"/>
    <line x1="287.8299" x2="277.0228" y1="825.4776" y2="822.0468"/>
    <line x1="266.9773" x2="255.7192" y1="825.4776" y2="824.1295"/>
    <line x1="246.1248" x2="235.034" y1="825.4776" y2="827.8354"/>
    <line x1="225.2722" x2="214.569" y1="825.4776" y2="829.22"/>
    <line x1="204.4196" x2="193.9287" y1="825.4776" y2="829.7792"/>
    <line x1="183.5671" x2="172.6447" y1="825.4776" y2="828.5216"/>
    <line x1="162.7145" x2="152.0967" y1="825.4776" y2="829.4557"/>
    <line x1="141.8619" x2="131.425" y1="825.4776" y2="829.9085"/>
    <line x1="121.0094" x2="110.5266" y1="825.4776" y2="829.799"/>
    <line x1="112.0287" x2="121.0094" y1="810.5812" y2="803.6594"/>
    <line x1="132.2351" x2="141.8619" y1="809.6501" y2="803.6594"/>
    <line x1="152.7711" x2="162.7145" y1="809.1084" y2="803.6594"/>
    <line x1="172.908" x2="183.5671" y1="807.5257" y2="803.6594"/>
    <line x1="193.4824" x2="204.4196" y1="806.6496" y2="803.6594"/>
    <line x1="214.0014" x2="225.2722" y1="804.8974" y2="803.6594"/>
    <line x1="234.7954" x2="246.1248" y1="803.2031" y2="803.6594"/>
    <line x1="255.9175" x2="266.9773" y1="801.1608" y2="803.6594"/>
    <line x1="277.459" x2="287.8299" y1="799.0761" y2="803.6594"/>
    <line x1="298.9725" x2="308.6825" y1="797.8046" y2="803.6594"/>
    <line x1="319.8711" x2="329.535" y1="797.7289" y2="803.6594"/>
    <line x1="340.8196" x2="350.3876" y1="797.5754" y2="803.6594"/>
    <line x1="362.1654" x2="371.2402" y1="796.8615" y2="803.6594"/>
    <line x1="383.256" x2="392.0927" y1="796.5548" y2="803.6594"/>
    <line x1="404.3625" x2="412.9453" y1="796.2501" y2="803.6594"/>
    <line x1="425.6758" x2="433.7979" y1="795.7477" y2="803.6594"/>
    <line x1="445.2069" x2="454.6504" y1="797.3839" y2="803.6594"/>
    <line x1="464.915" x2="475.503" y1="799.6027" y2="803.6594"/>
    <line x1="485.1085" x2="496.3556" y1="802.2218" y2="803.6594"/>
    <line x1="506.2979" x2="517.2081" y1="806.7466" y2="803.6594"/>
    <line x1="528.6342" x2="538.0607" y1="809.9606" y2="803.6594"/>
    <line x1="528.422" x2="538.0607" y1="787.8127" y2="781.8413"/>
    <line x1="548.9438" x2="558.9133" y1="765.4243" y2="760.0231"/>
    <line x1="571.071" x2="579.7658" y1="767.3007" y2="760.0231"/>
    <line x1="590.9375" x2="600.6184" y1="765.9259" y2="760.0231"/>
    <line x1="610.221" x2="621.471" y1="761.4381" y2="760.0231"/>
    <line x1="631.0217" x2="642.3235" y1="759.1108" y2="760.0231"/>
    <line x1="651.9072" x2="663.1761" y1="758.7681" y2="760.0231"/>
    <line x1="672.7361" x2="684.0287" y1="759.0027" y2="760.0231"/>
    <line x1="693.5738" x2="704.8812" y1="760.8635" y2="760.0231"/>
    <line x1="704.8812" x2="696.3585" y1="694.5685" y2="687.0902"/>
    <line x1="704.8812" x2="699.517" y1="672.7504" y2="662.761"/>
    <line x1="704.8812" x2="700.2676" y1="650.9322" y2="640.5747"/>
    <line x1="704.8812" x2="701.6267" y1="629.114" y2="618.2525"/>
    <line x1="704.8812" x2="702.9405" y1="607.2958" y2="596.1246"/>
    <line x1="704.8812" x2="701.9454" y1="585.4776" y2="574.5257"/>
    <line x1="704.8812" x2="700.8431" y1="563.6594" y2="553.0643"/>
    <line x1="704.8812" x2="700.6964" y1="541.8413" y2="531.3032"/>
    <line x1="704.8812" x2="699.1575" y1="520.0231" y2="510.2352"/>
    <line x1="704.8812" x2="697.5527" y1="498.2049" y2="489.553"/>
    <line x1="704.8812" x2="697.7067" y1="476.3867" y2="467.6066"/>
    <line x1="704.8812" x2="696.2928" y1="454.5685" y2="447.1657"/>
    <line x1="704.8812" x2="695.998" y1="432.7504" y2="425.7039"/>
    <line x1="704.8812" x2="695.5998" y1="410.9322" y2="404.4192"/>
    <line x1="704.8812" x2="694.1407" y1="389.114" y2="385.4803"/>
    <line x1="684.0287" x2="675.1547" y1="389.114" y2="382.0559"/>
    <line x1="684.0287" x2="673.8655" y1="367.2958" y2="362.2686"/>
    <line x1="693.6517" x2="704.8812" y1="365.7272" y2="367.2958"/>
    <line x1="663.1761" x2="652.3915" y1="280.0231" y2="276.5223"/>
    <line x1="642.3235" x2="631.5951" y1="280.0231" y2="276.3536"/>
    <line x1="621.471" x2="611.4928" y1="280.0231" y2="274.638"/>
    <line x1="579.7658" x2="573.1723" y1="301.8413" y2="292.6169"/>
    <line x1="558.9133" x2="551.7409" y1="301.8413" y2="293.0595"/>
    <line x1="475.503" x2="467.1406" y1="323.6594" y2="316.0022"/>
    <line x1="454.6504" x2="444.6203" y1="323.6594" y2="318.3718"/>
    <line x1="433.7979" x2="422.7213" y1="323.6594" y2="321.236"/>
    <line x1="412.9453" x2="401.6267" y1="323.6594" y2="324.3328"/>
    <line x1="392.0927" x2="380.7586" y1="323.6594" y2="323.976"/>
    <line x1="371.2402" x2="360.2808" y1="323.6594" y2="320.7516"/>
    <line x1="350.3876" x2="339.602" y1="323.6594" y2="320.1616"/>
    <line x1="329.535" x2="318.6957" y1="323.6594" y2="320.3318"/>
    <line x1="308.6825" x2="297.6132" y1="323.6594" y2="321.2029"/>
    <line x1="287.8299" x2="277.891" y1="323.6594" y2="318.2022"/>
    <line x1="266.9773" x2="256.8618" y1="323.6594" y2="318.537"/>
    <line x1="246.1248" x2="234.7977" y1="323.6594" y2="324.1693"/>
    <line x1="225.2722" x2="214.4252" y1="323.6594" y2="326.9618"/>
    <line x1="204.4196" x2="194.0523" y1="323.6594" y2="328.251"/>
    <line x1="183.5671" x2="172.9091" y1="323.6594" y2="327.5288"/>
    <line x1="162.7145" x2="152.5424" y1="323.6594" y2="328.6686"/>
    <line x1="141.8619" x2="131.9512" y1="323.6594" y2="329.1676"/>
    <line x1="121.0094" x2="110.6801" y1="323.6594" y2="328.3359"/>
    <line x1="100.1568" x2="88.9443" y1="323.6594" y2="325.3454"/>
    <line x1="89.0627" x2="100.1568" y1="347.8192" y2="345.4776"/>
    <line x1="110.2484" x2="121.0094" y1="349.0503" y2="345.4776"/>
    <line x1="131.5752" x2="141.8619" y1="350.247" y2="345.4776"/>
    <line x1="152.4521" x2="162.7145" y1="350.2992" y2="345.4776"/>
    <line x1="173.3107" x2="183.5671" y1="350.3119" y2="345.4776"/>
    <line x1="195.0805" x2="204.4196" y1="351.9076" y2="345.4776"/>
    <line x1="214.977" x2="225.2722" y1="350.2286" y2="345.4776"/>
    <line x1="234.7964" x2="246.1248" y1="345.9588" y2="345.4776"/>
    <line x1="256.3562" x2="266.9773" y1="341.5083" y2="345.4776"/>
    <line x1="277.7113" x2="287.8299" y1="340.3613" y2="345.4776"/>
    <line x1="298.336" x2="308.6825" y1="340.8393" y2="345.4776"/>
    <line x1="318.6921" x2="329.535" y1="342.1618" y2="345.4776"/>
    <line x1="339.1749" x2="350.3876" y1="343.7929" y2="345.4776"/>
    <line x1="360.0939" x2="371.2402" y1="347.557" y2="345.4776"/>
    <line x1="380.8924" x2="392.0927" y1="347.2431" y2="345.4776"/>
    <line x1="401.6297" x2="412.9453" y1="346.1992" y2="345.4776"/>
    <line x1="423.071" x2="433.7979" y1="341.8037" y2="345.4776"/>
    <line x1="446.9883" x2="454.6504" y1="337.1197" y2="345.4776"/>
    <line x1="446.0701" x2="454.6504" y1="359.8836" y2="367.2958"/>
    <line x1="469.2007" x2="475.503" y1="357.8701" y2="367.2958"/>
    <line x1="467.5122" x2="475.503" y1="381.0697" y2="389.114"/>
    <line x1="465.9176" x2="475.503" y1="404.8755" y2="410.9322"/>
    <line x1="486.1457" x2="496.3556" y1="427.8187" y2="432.7504"/>
    <line x1="507.6013" x2="517.2081" y1="426.7277" y2="432.7504"/>
    <line x1="528.5268" x2="538.0607" y1="426.6129" y2="432.7504"/>
    <line x1="527.9531" x2="538.0607" y1="449.4304" y2="454.5685"/>
    <line x1="548.391" x2="558.9133" y1="450.3441" y2="454.5685"/>
    <line x1="570.7796" x2="579.7658" y1="469.4722" y2="476.3867"/>
    <line x1="571.89" x2="579.7658" y1="490.0481" y2="498.2049"/>
    <line x1="573.8423" x2="579.7658" y1="510.3548" y2="520.0231"/>
    <line x1="574.2497" x2="579.7658" y1="531.9349" y2="541.8413"/>
    <line x1="573.83" x2="579.7658" y1="553.9987" y2="563.6594"/>
    <line x1="571.1888" x2="579.7658" y1="578.0616" y2="585.4776"/>
    <line x1="569.8764" x2="579.7658" y1="601.7494" y2="607.2958"/>
    <line x1="571.3174" x2="579.7658" y1="621.5517" y2="629.114"/>
    <line x1="572.6801" x2="579.7658" y1="642.0803" y2="650.9322"/>
    <line x1="572.1472" x2="579.7658" y1="664.3527" y2="672.7504"/>
    <line x1="558.9133" x2="549.8033" y1="672.7504" y2="665.9997"/>
    <line x1="538.0607" x2="527.4391" y1="672.7504" y2="668.7825"/>
    <line x1="517.2081" x2="506.1904" y1="672.7504" y2="670.0721"/>
    <line x1="496.3556" x2="485.0502" y1="672.7504" y2="671.8836"/>
    <line x1="475.503" x2="464.1737" y1="672.7504" y2="673.2079"/>
    <line x1="454.6504" x2="443.3192" y1="672.7504" y2="672.3415"/>
    <line x1="433.7979" x2="422.7954" y1="672.7504" y2="670.0101"/>
    <line x1="412.9453" x2="403.09" y1="672.7504" y2="667.1436"/>
    <line x1="392.0927" x2="382.2387" y1="672.7504" y2="667.1414"/>
    <line x1="371.2402" x2="360.7783" y1="672.7504" y2="668.3785"/>
    <line x1="350.3876" x2="340.4692" y1="672.7504" y2="667.2559"/>
    <line x1="329.535" x2="319.3958" y1="672.7504" y2="667.6749"/>
    <line x1="308.6825" x2="297.8583" y1="672.7504" y2="669.3738"/>
    <line x1="287.8299" x2="277.1775" y1="672.7504" y2="668.8657"/>
    <line x1="266.9773" x2="256.0405" y1="672.7504" y2="669.7587"/>
    <line x1="246.1248" x2="234.7898" y1="672.7504" y2="672.4635"/>
    <line x1="225.2722" x2="214.0852" y1="672.7504" y2="674.5982"/>
    <line x1="204.4196" x2="194.0031" y1="672.7504" y2="677.2292"/>
    <line x1="183.5671" x2="175.9556" y1="672.7504" y2="681.1545"/>
    <line x1="162.7145" x2="159.3718" y1="672.7504" y2="683.585"/>
    <line x1="139.8046" x2="141.8619" y1="683.9007" y2="672.7504"/>
    <line x1="137.5882" x2="141.8619" y1="661.4345" y2="650.9322"/>
    <line x1="134.4541" x2="141.8619" y1="637.6981" y2="629.114"/>
    <line x1="133.5546" x2="141.8619" y1="615.0127" y2="607.2958"/>
    <line x1="155.4027" x2="162.7145" y1="615.9618" y2="607.2958"/>
    <line x1="154.8127" x2="162.7145" y1="593.6094" y2="585.4776"/>
    <line x1="153.7924" x2="162.7145" y1="570.6565" y2="563.6594"/>
    <line x1="175.1146" x2="183.5671" y1="571.2171" y2="563.6594"/>
    <line x1="197.6485" x2="204.4196" y1="572.7542" y2="563.6594"/>
    <line x1="195.9388" x2="204.4196" y1="549.3671" y2="541.8413"/>
    <line x1="217.1235" x2="225.2722" y1="549.7255" y2="541.8413"/>
    <line x1="237.8784" x2="246.1248" y1="549.6234" y2="541.8413"/>
    <line x1="258.2393" x2="266.9773" y1="549.0669" y2="541.8413"/>
    <line x1="278.1397" x2="287.8299" y1="547.7288" y2="541.8413"/>
    <line x1="297.6573" x2="308.6825" y1="544.4888" y2="541.8413"/>
    <line x1="318.2391" x2="329.535" y1="540.8594" y2="541.8413"/>
    <line x1="339.2698" x2="350.3876" y1="539.6146" y2="541.8413"/>
    <line x1="359.9086" x2="371.2402" y1="541.4437" y2="541.8413"/>
    <line x1="380.7543" x2="392.0927" y1="541.8909" y2="541.8413"/>
    <line x1="401.6136" x2="412.9453" y1="542.2359" y2="541.8413"/>
    <line x1="422.5795" x2="433.7979" y1="543.4879" y2="541.8413"/>
    <line x1="443.3359" x2="454.6504" y1="541.1039" y2="541.8413"/>
    <line x1="464.3087" x2="475.503" y1="540.038" y2="541.8413"/>
    <line x1="485.1055" x2="496.3556" y1="540.4276" y2="541.8413"/>
    <line x1="506.1443" x2="517.2081" y1="539.3604" y2="541.8413"/>
    <line x1="527.4563" x2="538.0607" y1="537.8275" y2="541.8413"/>
    <line x1="549.8446" x2="558.9133" y1="535.0352" y2="541.8413"/>
    <line x1="551.0324" x2="558.9133" y1="555.5074" y2="563.6594"/>
    <line x1="550.2641" x2="558.9133" y1="578.1458" y2="585.4776"/>
    <line x1="549.263" x2="558.9133" y1="601.343" y2="607.2958"/>
    <line x1="550.4335" x2="558.9133" y1="621.5869" y2="629.114"/>
    <line x1="550.6122" x2="558.9133" y1="643.2084" y2="650.9322"/>
    <line x1="538.0607" x2="528.4618" y1="650.9322" y2="644.8969"/>
    <line x1="517.2081" x2="506.7222" y1="650.9322" y2="646.6185"/>
    <line x1="496.3556" x2="485.0878" y1="650.9322" y2="649.6666"/>
    <line x1="475.503" x2="464.176" y1="650.9322" y2="651.4451"/>
    <line x1="454.6504" x2="443.3121" y1="650.9322" y2="650.8551"/>
    <line x1="433.7979" x2="422.6681" y1="650.9322" y2="648.7662"/>
    <line x1="412.9453" x2="402.9461" y1="650.9322" y2="645.5862"/>
    <line x1="392.0927" x2="382.2584" y1="650.9322" y2="645.2886"/>
    <line x1="371.2402" x2="360.8066" y1="650.9322" y2="646.4931"/>
    <line x1="350.3876" x2="339.5399" y1="650.9322" y2="647.6321"/>
    <line x1="329.535" x2="318.2782" y1="650.9322" y2="649.5731"/>
    <line x1="308.6825" x2="297.367" y1="650.9322" y2="651.6552"/>
    <line x1="287.8299" x2="276.6291" y1="650.9322" y2="652.6943"/>
    <line x1="266.9773" x2="255.9845" y1="650.9322" y2="653.7108"/>
    <line x1="246.1248" x2="235.439" y1="650.9322" y2="654.724"/>
    <line x1="225.2722" x2="214.9005" y1="650.9322" y2="655.5138"/>
    <line x1="204.4196" x2="194.677" y1="650.9322" y2="656.7326"/>
    <line x1="183.5671" x2="176.461" y1="650.9322" y2="659.7677"/>
    <line x1="162.7145" x2="157.7743" y1="650.9322" y2="661.138"/>
    <line x1="155.646" x2="162.7145" y1="637.9796" y2="629.114"/>
    <line x1="177.8922" x2="183.5671" y1="638.9303" y2="629.114"/>
    <line x1="179.5193" x2="183.5671" y1="617.8873" y2="607.2958"/>
    <line x1="177.5039" x2="183.5671" y1="595.0589" y2="585.4776"/>
    <line x1="200.0042" x2="204.4196" y1="595.9212" y2="585.4776"/>
    <line x1="218.5817" x2="225.2722" y1="572.8137" y2="563.6594"/>
    <line x1="237.6978" x2="246.1248" y1="571.2455" y2="563.6594"/>
    <line x1="258.1062" x2="266.9773" y1="570.7211" y2="563.6594"/>
    <line x1="278.4855" x2="287.8299" y1="570.0818" y2="563.6594"/>
    <line x1="298.6775" x2="308.6825" y1="568.9947" y2="563.6594"/>
    <line x1="318.2005" x2="329.535" y1="563.9625" y2="563.6594"/>
    <line x1="339.3608" x2="350.3876" y1="561.0186" y2="563.6594"/>
    <line x1="360.3352" x2="371.2402" y1="560.5538" y2="563.6594"/>
    <line x1="380.7655" x2="392.0927" y1="563.1518" y2="563.6594"/>
    <line x1="401.6068" x2="412.9453" y1="563.6922" y2="563.6594"/>
    <line x1="422.5061" x2="433.7979" y1="562.6304" y2="563.6594"/>
    <line x1="443.3798" x2="454.6504" y1="562.4204" y2="563.6594"/>
    <line x1="464.2216" x2="475.503" y1="562.5218" y2="563.6594"/>
    <line x1="485.0402" x2="496.3556" y1="562.9344" y2="563.6594"/>
    <line x1="505.9977" x2="517.2081" y1="561.9594" y2="563.6594"/>
    <line x1="527.4344" x2="538.0607" y1="559.704" y2="563.6594"/>
    <line x1="528.1918" x2="538.0607" y1="579.8948" y2="585.4776"/>
    <line x1="528.5774" x2="538.0607" y1="601.0805" y2="607.2958"/>
    <line x1="529.5212" x2="538.0607" y1="621.6547" y2="629.114"/>
    <line x1="517.2081" x2="507.3689" y1="629.114" y2="623.4791"/>
    <line x1="496.3556" x2="485.169" y1="629.114" y2="627.2637"/>
    <line x1="475.503" x2="464.1659" y1="629.114" y2="628.928"/>
    <line x1="454.6504" x2="443.3236" y1="629.114" y2="628.599"/>
    <line x1="433.7979" x2="422.5668" y1="629.114" y2="627.5561"/>
    <line x1="412.9453" x2="402.4746" y1="629.114" y2="624.7634"/>
    <line x1="392.0927" x2="381.8703" y1="629.114" y2="624.2084"/>
    <line x1="371.2402" x2="360.4476" y1="629.114" y2="625.6377"/>
    <line x1="350.3876" x2="339.0812" y1="629.114" y2="629.967"/>
    <line x1="329.535" x2="318.9329" y1="629.114" y2="633.1338"/>
    <line x1="308.6825" x2="298.513" y1="629.114" y2="634.1285"/>
    <line x1="287.8299" x2="278.874" y1="629.114" y2="636.0678"/>
    <line x1="266.9773" x2="258.9213" y1="629.114" y2="637.0929"/>
    <line x1="246.1248" x2="238.3497" y1="629.114" y2="637.367"/>
    <line x1="225.2722" x2="217.7274" y1="629.114" y2="637.578"/>
    <line x1="204.4196" x2="196.9908" y1="629.114" y2="637.68"/>
    <line x1="200.3484" x2="204.4196" y1="617.8783" y2="607.2958"/>
    <line x1="220.9453" x2="225.2722" y1="595.9582" y2="585.4776"/>
    <line x1="239.6466" x2="246.1248" y1="594.7834" y2="585.4776"/>
    <line x1="258.8803" x2="266.9773" y1="593.415" y2="585.4776"/>
    <line x1="278.9908" x2="287.8299" y1="592.5792" y2="585.4776"/>
    <line x1="299.4672" x2="308.6825" y1="592.0839" y2="585.4776"/>
    <line x1="318.7323" x2="329.535" y1="588.9221" y2="585.4776"/>
    <line x1="339.049" x2="350.3876" y1="585.4968" y2="585.4776"/>
    <line x1="360.1974" x2="371.2402" y1="582.9046" y2="585.4776"/>
    <line x1="380.9241" x2="392.0927" y1="583.5216" y2="585.4776"/>
    <line x1="401.7151" x2="412.9453" y1="583.9134" y2="585.4776"/>
    <line x1="422.6631" x2="433.7979" y1="583.3375" y2="585.4776"/>
    <line x1="443.622" x2="454.6504" y1="582.8437" y2="585.4776"/>
    <line x1="464.4686" x2="475.503" y1="582.8691" y2="585.4776"/>
    <line x1="485.5071" x2="496.3556" y1="582.18" y2="585.4776"/>
    <line x1="506.607" x2="517.2081" y1="581.4552" y2="585.4776"/>
    <line x1="507.247" x2="517.2081" y1="601.8793" y2="607.2958"/>
    <line x1="496.3556" x2="486.2775" y1="607.2958" y2="602.1"/>
    <line x1="475.503" x2="464.6921" y1="607.2958" y2="603.877"/>
    <line x1="454.6504" x2="443.7034" y1="607.2958" y2="604.3418"/>
    <line x1="433.7979" x2="422.5972" y1="607.2958" y2="605.5329"/>
    <line x1="412.9453" x2="401.9011" y1="607.2958" y2="604.7289"/>
    <line x1="392.0927" x2="381.1555" y1="607.2958" y2="604.3058"/>
    <line x1="371.2402" x2="360.0854" y1="607.2958" y2="605.2623"/>
    <line x1="350.3876" x2="339.1144" y1="607.2958" y2="608.5118"/>
    <line x1="329.535" x2="319.0827" y1="607.2958" y2="611.6904"/>
    <line x1="308.6825" x2="299.1366" y1="607.2958" y2="613.4146"/>
    <line x1="287.8299" x2="279.2224" y1="607.2958" y2="614.6764"/>
    <line x1="266.9773" x2="259.6466" y1="607.2958" y2="615.9459"/>
    <line x1="246.1248" x2="241.3032" y1="607.2958" y2="617.5582"/>
    <line x1="225.2722" x2="221.4642" y1="607.2958" y2="617.9758"/>
    <line x1="174.9707" x2="183.5671" y1="549.2348" y2="541.8413"/>
    <line x1="172.9651" x2="183.5671" y1="524.0431" y2="520.0231"/>
    <line x1="193.2748" x2="204.4196" y1="522.11" y2="520.0231"/>
    <line x1="214.3384" x2="225.2722" y1="523.0255" y2="520.0231"/>
    <line x1="235.8722" x2="246.1248" y1="524.8654" y2="520.0231"/>
    <line x1="256.2878" x2="266.9773" y1="523.8044" y2="520.0231"/>
    <line x1="276.8015" x2="287.8299" y1="522.657" y2="520.0231"/>
    <line x1="297.3919" x2="308.6825" y1="521.0654" y2="520.0231"/>
    <line x1="318.4974" x2="329.535" y1="517.4283" y2="520.0231"/>
    <line x1="339.4595" x2="350.3876" y1="516.9998" y2="520.0231"/>
    <line x1="359.9022" x2="371.2402" y1="520.1447" y2="520.0231"/>
    <line x1="380.8667" x2="392.0927" y1="521.6167" y2="520.0231"/>
    <line x1="401.7314" x2="412.9453" y1="521.7002" y2="520.0231"/>
    <line x1="422.5353" x2="433.7979" y1="521.3342" y2="520.0231"/>
    <line x1="443.3153" x2="454.6504" y1="519.7453" y2="520.0231"/>
    <line x1="464.2276" x2="475.503" y1="518.8274" y2="520.0231"/>
    <line x1="485.0306" x2="496.3556" y1="519.4686" y2="520.0231"/>
    <line x1="506.0537" x2="517.2081" y1="517.9881" y2="520.0231"/>
    <line x1="527.2672" x2="538.0607" y1="516.5497" y2="520.0231"/>
    <line x1="549.3683" x2="558.9133" y1="513.9029" y2="520.0231"/>
    <line x1="558.9133" x2="548.7808" y1="498.2049" y2="493.116"/>
    <line x1="538.0607" x2="527.542" y1="498.2049" y2="493.9717"/>
    <line x1="517.2081" x2="506.3098" y1="498.2049" y2="495.0761"/>
    <line x1="496.3556" x2="485.0378" y1="498.2049" y2="497.5181"/>
    <line x1="475.503" x2="464.1661" y1="498.2049" y2="498.0091"/>
    <line x1="454.6504" x2="443.3555" y1="498.2049" y2="499.1986"/>
    <line x1="433.7979" x2="422.6924" y1="498.2049" y2="500.4922"/>
    <line x1="412.9453" x2="402.15" y1="498.2049" y2="501.6725"/>
    <line x1="392.0927" x2="381.2735" y1="498.2049" y2="501.5973"/>
    <line x1="371.2402" x2="359.9327" y1="498.2049" y2="499.0436"/>
    <line x1="350.3876" x2="339.3869" y1="498.2049" y2="495.4576"/>
    <line x1="329.535" x2="318.6487" y1="498.2049" y2="495.0345"/>
    <line x1="308.6825" x2="297.4699" y1="498.2049" y2="496.519"/>
    <line x1="287.8299" x2="276.6058" y1="498.2049" y2="496.5975"/>
    <line x1="266.9773" x2="255.6693" y1="498.2049" y2="497.3728"/>
    <line x1="246.1248" x2="234.7868" y1="498.2049" y2="498.0868"/>
    <line x1="225.2722" x2="214.1442" y1="498.2049" y2="496.03"/>
    <line x1="204.4196" x2="193.5503" y1="498.2049" y2="494.9769"/>
    <line x1="183.5671" x2="172.3081" y1="498.2049" y2="496.8635"/>
    <line x1="162.7145" x2="151.4412" y1="498.2049" y2="496.9905"/>
    <line x1="141.8619" x2="130.5809" y1="498.2049" y2="497.0638"/>
    <line x1="121.0094" x2="109.6734" y1="498.2049" y2="497.9629"/>
    <line x1="100.1568" x2="88.8237" y1="498.2049" y2="498.5565"/>
    <line x1="88.9984" x2="100.1568" y1="474.3737" y2="476.3867"/>
    <line x1="110.4494" x2="121.0094" y1="472.2575" y2="476.3867"/>
    <line x1="131.6233" x2="141.8619" y1="471.5151" y2="476.3867"/>
    <line x1="152.6556" x2="162.7145" y1="471.154" y2="476.3867"/>
    <line x1="173.9147" x2="183.5671" y1="470.4374" y2="476.3867"/>
    <line x1="193.998" x2="204.4196" y1="471.92" y2="476.3867"/>
    <line x1="214.5343" x2="225.2722" y1="472.7452" y2="476.3867"/>
    <line x1="235.548" x2="246.1248" y1="472.3008" y2="476.3867"/>
    <line x1="255.9483" x2="266.9773" y1="473.7555" y2="476.3867"/>
    <line x1="276.9709" x2="287.8299" y1="473.124" y2="476.3867"/>
    <line x1="298.1362" x2="308.6825" y1="472.2226" y2="476.3867"/>
    <line x1="318.3475" x2="329.535" y1="474.5421" y2="476.3867"/>
    <line x1="339.0873" x2="350.3876" y1="475.4554" y2="476.3867"/>
    <line x1="359.9263" x2="371.2402" y1="477.1348" y2="476.3867"/>
    <line x1="381.6066" x2="392.0927" y1="480.7" y2="476.3867"/>
    <line x1="402.5772" x2="412.9453" y1="480.9765" y2="476.3867"/>
    <line x1="422.9323" x2="433.7979" y1="479.6274" y2="476.3867"/>
    <line x1="443.4874" x2="454.6504" y1="478.3742" y2="476.3867"/>
    <line x1="464.1681" x2="475.503" y1="476.6749" y2="476.3867"/>
    <line x1="485.2259" x2="496.3556" y1="474.2199" y2="476.3867"/>
    <line x1="507.1041" x2="517.2081" y1="471.2416" y2="476.3867"/>
    <line x1="528.2658" x2="538.0607" y1="470.6751" y2="476.3867"/>
    <line x1="548.4419" x2="558.9133" y1="472.0377" y2="476.3867"/>
    <line x1="517.2081" x2="506.8409" y1="454.5685" y2="449.9767"/>
    <line x1="496.3556" x2="485.157" y1="454.5685" y2="452.7922"/>
    <line x1="475.503" x2="464.2556" y1="454.5685" y2="453.1335"/>
    <line x1="454.6504" x2="443.3125" y1="454.5685" y2="454.6924"/>
    <line x1="433.7979" x2="422.7253" y1="454.5685" y2="457.01"/>
    <line x1="412.9453" x2="402.1417" y1="454.5685" y2="458.0102"/>
    <line x1="392.0927" x2="381.1973" y1="454.5685" y2="457.7074"/>
    <line x1="371.2402" x2="359.9085" y1="454.5685" y2="454.9653"/>
    <line x1="350.3876" x2="339.0641" y1="454.5685" y2="453.9836"/>
    <line x1="329.535" x2="318.2829" y1="454.5685" y2="453.1708"/>
    <line x1="308.6825" x2="297.8067" y1="454.5685" y2="451.362"/>
    <line x1="287.8299" x2="277.171" y1="454.5685" y2="450.7018"/>
    <line x1="266.9773" x2="256.1147" y1="454.5685" y2="451.3179"/>
    <line x1="246.1248" x2="234.9816" y1="454.5685" y2="452.4726"/>
    <line x1="225.2722" x2="214.6168" y1="454.5685" y2="450.6924"/>
    <line x1="204.4196" x2="194.2444" y1="454.5685" y2="449.5658"/>
    <line x1="183.5671" x2="173.1869" y1="454.5685" y2="450.0061"/>
    <line x1="162.7145" x2="152.0117" y1="454.5685" y2="450.8251"/>
    <line x1="141.8619" x2="131.1677" y1="454.5685" y2="450.8006"/>
    <line x1="121.0094" x2="110.6651" y1="454.5685" y2="449.9254"/>
    <line x1="100.1568" x2="89.2144" y1="454.5685" y2="451.5976"/>
    <line x1="88.838" x2="100.1568" y1="433.4194" y2="432.7504"/>
    <line x1="109.682" x2="121.0094" y1="432.2474" y2="432.7504"/>
    <line x1="130.525" x2="141.8619" y1="432.5587" y2="432.7504"/>
    <line x1="151.379" x2="162.7145" y1="432.4862" y2="432.7504"/>
    <line x1="172.3158" x2="183.5671" y1="431.3458" y2="432.7504"/>
    <line x1="193.3252" x2="204.4196" y1="430.4099" y2="432.7504"/>
    <line x1="214.0726" x2="225.2722" y1="430.9804" y2="432.7504"/>
    <line x1="234.788" x2="246.1248" y1="432.5465" y2="432.7504"/>
    <line x1="255.6773" x2="266.9773" y1="431.8161" y2="432.7504"/>
    <line x1="276.5972" x2="287.8299" y1="431.2042" y2="432.7504"/>
    <line x1="297.4269" x2="308.6825" y1="431.3813" y2="432.7504"/>
    <line x1="318.1971" x2="329.535" y1="432.8669" y2="432.7504"/>
    <line x1="339.0596" x2="350.3876" y1="433.2401" y2="432.7504"/>
    <line x1="359.9458" x2="371.2402" y1="431.7496" y2="432.7504"/>
    <line x1="380.7584" x2="392.0927" y1="432.4416" y2="432.7504"/>
    <line x1="401.6122" x2="412.9453" y1="432.3993" y2="432.7504"/>
    <line x1="422.5579" x2="433.7979" y1="431.2583" y2="432.7504"/>
    <line x1="443.6793" x2="454.6504" y1="429.8871" y2="432.7504"/>
    <line x1="465.0494" x2="475.503" y1="428.3589" y2="432.7504"/>
    <line x1="454.6504" x2="444.1387" y1="410.9322" y2="406.6817"/>
    <line x1="433.7979" x2="423.4409" y1="410.9322" y2="406.3175"/>
    <line x1="412.9453" x2="401.9384" y1="410.9322" y2="408.2097"/>
    <line x1="392.0927" x2="381.0063" y1="410.9322" y2="408.5541"/>
    <line x1="371.2402" x2="360.1688" y1="410.9322" y2="408.4849"/>
    <line x1="350.3876" x2="339.0538" y1="410.9322" y2="411.2609"/>
    <line x1="329.535" x2="318.1979" y1="410.9322" y2="411.1145"/>
    <line x1="308.6825" x2="297.4274" y1="410.9322" y2="409.5588"/>
    <line x1="287.8299" x2="276.4955" y1="410.9322" y2="410.6244"/>
    <line x1="266.9773" x2="255.642" y1="410.9322" y2="411.2052"/>
    <line x1="246.1248" x2="234.7998" y1="410.9322" y2="410.3767"/>
    <line x1="225.2722" x2="213.9346" y1="410.9322" y2="411.0799"/>
    <line x1="204.4196" x2="193.113" y1="410.9322" y2="411.7825"/>
    <line x1="183.5671" x2="172.2883" y1="410.9322" y2="412.0955"/>
    <line x1="162.7145" x2="151.6233" y1="410.9322" y2="413.2879"/>
    <line x1="141.8619" x2="130.8489" y1="410.9322" y2="413.6295"/>
    <line x1="121.0094" x2="110.4144" y1="410.9322" y2="414.9707"/>
    <line x1="100.1568" x2="89.5421" y1="410.9322" y2="414.9186"/>
    <line x1="89.9133" x2="100.1568" y1="393.9755" y2="389.114"/>
    <line x1="111.0093" x2="121.0094" y1="394.4582" y2="389.114"/>
    <line x1="131.7038" x2="141.8619" y1="394.1514" y2="389.114"/>
    <line x1="152.5052" x2="162.7145" y1="394.0469" y2="389.114"/>
    <line x1="173.0512" x2="183.5671" y1="393.3542" y2="389.114"/>
    <line x1="193.6073" x2="204.4196" y1="392.5281" y2="389.114"/>
    <line x1="213.9939" x2="225.2722" y1="390.2819" y2="389.114"/>
    <line x1="235.0449" x2="246.1248" y1="386.7058" y2="389.114"/>
    <line x1="256.0471" x2="266.9773" y1="386.0985" y2="389.114"/>
    <line x1="276.9842" x2="287.8299" y1="385.8074" y2="389.114"/>
    <line x1="297.7251" x2="308.6825" y1="386.1985" y2="389.114"/>
    <line x1="318.4581" x2="329.535" y1="386.6923" y2="389.114"/>
    <line x1="339.12" x2="350.3876" y1="387.8476" y2="389.114"/>
    <line x1="359.9072" x2="371.2402" y1="389.4718" y2="389.114"/>
    <line x1="380.7964" x2="392.0927" y1="388.1357" y2="389.114"/>
    <line x1="401.6902" x2="412.9453" y1="387.7405" y2="389.114"/>
    <line x1="422.7115" x2="433.7979" y1="386.7356" y2="389.114"/>
    <line x1="444.7659" x2="454.6504" y1="383.5588" y2="389.114"/>
    <line x1="433.7979" x2="422.7587" y1="367.2958" y2="364.7075"/>
    <line x1="412.9453" x2="401.6227" y1="367.2958" y2="367.8974"/>
    <line x1="392.0927" x2="380.8384" y1="367.2958" y2="368.6758"/>
    <line x1="371.2402" x2="360.0869" y1="367.2958" y2="369.3375"/>
    <line x1="350.3876" x2="339.1372" y1="367.2958" y2="365.8843"/>
    <line x1="329.535" x2="318.6118" y1="367.2958" y2="364.2551"/>
    <line x1="308.6825" x2="298.1846" y1="367.2958" y2="363.0111"/>
    <line x1="287.8299" x2="277.6941" y1="367.2958" y2="362.2137"/>
    <line x1="266.9773" x2="256.5231" y1="367.2958" y2="362.9057"/>
    <line x1="246.1248" x2="234.8652" y1="367.2958" y2="365.9598"/>
    <line x1="225.2722" x2="214.5309" y1="367.2958" y2="370.9273"/>
    <line x1="204.4196" x2="194.7371" y1="367.2958" y2="373.196"/>
    <line x1="183.5671" x2="173.5284" y1="367.2958" y2="372.5673"/>
    <line x1="162.7145" x2="152.6122" y1="367.2958" y2="372.4443"/>
    <line x1="141.8619" x2="131.7088" y1="367.2958" y2="372.3432"/>
    <line x1="121.0094" x2="110.5866" y1="367.2958" y2="371.76"/>
    <line x1="100.1568" x2="89.3522" y1="367.2958" y2="370.7345"/>
    <line x1="100.1568" x2="89.9048" y1="520.0231" y2="524.8666"/>
    <line x1="100.1568" x2="92.0267" y1="541.8413" y2="549.7447"/>
    <line x1="100.1568" x2="92.4862" y1="563.6594" y2="572.0096"/>
    <line x1="100.1568" x2="91.0838" y1="585.4776" y2="592.2779"/>
    <line x1="100.1568" x2="90.3682" y1="607.2958" y2="613.0182"/>
    <line x1="100.1568" x2="93.1756" y1="629.114" y2="638.0485"/>
    <line x1="100.1568" x2="95.6923" y1="650.9322" y2="661.3548"/>
    <line x1="100.1568" x2="95.9755" y1="672.7504" y2="683.2898"/>
    <line x1="100.1568" x2="92.7292" y1="694.5685" y2="703.1356"/>
    <line x1="100.1568" x2="92.1312" y1="716.3867" y2="724.3963"/>
    <line x1="100.1568" x2="92.108" y1="738.2049" y2="746.1912"/>
    <line x1="113.8808" x2="121.0094" y1="747.0223" y2="738.2049"/>
    <line x1="114.2296" x2="121.0094" y1="725.4751" y2="716.3867"/>
    <line x1="114.9476" x2="121.0094" y1="704.1507" y2="694.5685"/>
    <line x1="118.9438" x2="121.0094" y1="683.8992" y2="672.7504"/>
    <line x1="117.7224" x2="121.0094" y1="661.7839" y2="650.9322"/>
    <line x1="114.707" x2="121.0094" y1="638.5397" y2="629.114"/>
    <line x1="112.2121" x2="121.0094" y1="614.4492" y2="607.2958"/>
    <line x1="113.0341" x2="121.0094" y1="593.5373" y2="585.4776"/>
    <line x1="133.591" x2="141.8619" y1="593.2336" y2="585.4776"/>
    <line x1="133.0966" x2="141.8619" y1="570.852" y2="563.6594"/>
    <line x1="131.9761" x2="141.8619" y1="547.394" y2="541.8413"/>
    <line x1="153.0106" x2="162.7145" y1="547.7061" y2="541.8413"/>
    <line x1="151.8924" x2="162.7145" y1="523.4062" y2="520.0231"/>
    <line x1="141.8619" x2="131.0012" y1="520.0231" y2="523.2801"/>
    <line x1="121.0094" x2="110.7459" y1="520.0231" y2="524.8421"/>
    <line x1="121.0094" x2="113.0568" y1="541.8413" y2="549.9233"/>
    <line x1="121.0094" x2="113.8318" y1="563.6594" y2="572.437"/>
    <line x1="141.8619" x2="136.7338" y1="694.5685" y2="704.6812"/>
    <line x1="141.8619" x2="134.6224" y1="716.3867" y2="725.1133"/>
    <line x1="141.8619" x2="133.9297" y1="738.2049" y2="746.3069"/>
    <line x1="141.8619" x2="133.4366" y1="781.8413" y2="789.4292"/>
    <line x1="121.0094" x2="113.3358" y1="781.8413" y2="790.1887"/>
    <line x1="153.9557" x2="162.7145" y1="789.0417" y2="781.8413"/>
    <line x1="173.7457" x2="183.5671" y1="787.5073" y2="781.8413"/>
    <line x1="193.6373" x2="204.4196" y1="785.3491" y2="781.8413"/>
    <line x1="213.9456" x2="225.2722" y1="782.3624" y2="781.8413"/>
    <line x1="234.9752" x2="246.1248" y1="779.7797" y2="781.8413"/>
    <line x1="256.4177" x2="266.9773" y1="777.7113" y2="781.8413"/>
    <line x1="278.2521" x2="287.8299" y1="775.7725" y2="781.8413"/>
    <line x1="299.947" x2="308.6825" y1="774.6125" y2="781.8413"/>
    <line x1="320.5753" x2="329.535" y1="774.8925" y2="781.8413"/>
    <line x1="341.2892" x2="350.3876" y1="775.075" y2="781.8413"/>
    <line x1="362.5491" x2="371.2402" y1="774.5592" y2="781.8413"/>
    <line x1="383.8933" x2="392.0927" y1="774.0097" y2="781.8413"/>
    <line x1="405.0297" x2="412.9453" y1="773.723" y2="781.8413"/>
    <line x1="426.0352" x2="433.7979" y1="773.5766" y2="781.8413"/>
    <line x1="445.0683" x2="454.6504" y1="775.7795" y2="781.8413"/>
    <line x1="464.7307" x2="475.503" y1="778.3028" y2="781.8413"/>
    <line x1="485.0691" x2="496.3556" y1="780.7557" y2="781.8413"/>
    <line x1="506.3304" x2="517.2081" y1="785.041" y2="781.8413"/>
    <line x1="527.4129" x2="538.0607" y1="763.9203" y2="760.0231"/>
    <line x1="517.2081" x2="505.9678" y1="760.0231" y2="761.5123"/>
    <line x1="496.3556" x2="485.1539" y1="760.0231" y2="758.2661"/>
    <line x1="475.503" x2="465.0392" y1="760.0231" y2="755.6558"/>
    <line x1="454.6504" x2="445.481" y1="760.0231" y2="753.3533"/>
    <line x1="433.7979" x2="426.2226" y1="760.0231" y2="751.5864"/>
    <line x1="433.7979" x2="424.765" y1="738.2049" y2="731.3514"/>
    <line x1="412.9453" x2="405.9751" y1="738.2049" y2="729.2617"/>
    <line x1="412.9453" x2="404.5402" y1="716.3867" y2="708.7764"/>
    <line x1="392.0927" x2="384.0125" y1="716.3867" y2="708.4323"/>
    <line x1="371.2402" x2="363.0978" y1="716.3867" y2="708.4959"/>
    <line x1="350.3876" x2="342.9926" y1="716.3867" y2="707.7916"/>
    <line x1="329.535" x2="322.7681" y1="716.3867" y2="707.2888"/>
    <line x1="308.6825" x2="301.4444" y1="716.3867" y2="707.6589"/>
    <line x1="287.8299" x2="279.8157" y1="716.3867" y2="708.3657"/>
    <line x1="266.9773" x2="257.7514" y1="716.3867" y2="709.7954"/>
    <line x1="246.1248" x2="235.2053" y1="716.3867" y2="713.3324"/>
    <line x1="225.2722" x2="214.4513" y1="716.3867" y2="719.7737"/>
    <line x1="204.4196" x2="196.1361" y1="716.3867" y2="724.1292"/>
    <line x1="183.5671" x2="177.2303" y1="716.3867" y2="725.7893"/>
    <line x1="183.5671" x2="177.2849" y1="738.2049" y2="747.644"/>
    <line x1="183.5671" x2="174.7697" y1="760.0231" y2="767.1764"/>
    <line x1="194.3391" x2="204.4196" y1="765.214" y2="760.0231"/>
    <line x1="214.0269" x2="225.2722" y1="761.4744" y2="760.0231"/>
    <line x1="235.0714" x2="246.1248" y1="757.4961" y2="760.0231"/>
    <line x1="257.7816" x2="266.9773" y1="753.3897" y2="760.0231"/>
    <line x1="279.8387" x2="287.8299" y1="751.9792" y2="760.0231"/>
    <line x1="300.5185" x2="308.6825" y1="752.1546" y2="760.0231"/>
    <line x1="323.758" x2="329.535" y1="750.2666" y2="760.0231"/>
    <line x1="344.0868" x2="350.3876" y1="750.5963" y2="760.0231"/>
    <line x1="362.8515" x2="371.2402" y1="752.3946" y2="760.0231"/>
    <line x1="385.5037" x2="392.0927" y1="750.7955" y2="760.0231"/>
    <line x1="406.8001" x2="412.9453" y1="750.4942" y2="760.0231"/>
    <line x1="392.0927" x2="385.4208" y1="738.2049" y2="729.0371"/>
    <line x1="371.2402" x2="364.4469" y1="738.2049" y2="729.1267"/>
    <line x1="350.3876" x2="344.7888" y1="738.2049" y2="728.345"/>
    <line x1="329.535" x2="324.453" y1="738.2049" y2="728.069"/>
    <line x1="308.6825" x2="301.9794" y1="738.2049" y2="729.0598"/>
    <line x1="287.8299" x2="280.2596" y1="738.2049" y2="729.7637"/>
    <line x1="266.9773" x2="258.137" y1="738.2049" y2="731.1048"/>
    <line x1="246.1248" x2="235.5513" y1="738.2049" y2="734.1104"/>
    <line x1="225.2722" x2="214.4353" y1="738.2049" y2="741.5403"/>
    <line x1="204.4196" x2="196.4193" y1="738.2049" y2="746.2397"/>
    <line x1="361.7435" x2="371.2402" y1="819.2827" y2="825.4776"/>
    <line x1="382.4308" x2="392.0927" y1="819.5438" y2="825.4776"/>
    <line x1="403.4805" x2="412.9453" y1="819.2341" y2="825.4776"/>
    <line x1="424.7612" x2="433.7979" y1="818.6291" y2="825.4776"/>
    <line x1="445.6396" x2="454.6504" y1="818.5952" y2="825.4776"/>
    <line x1="465.4578" x2="475.503" y1="820.2186" y2="825.4776"/>
    <line x1="485.1341" x2="496.3556" y1="823.8519" y2="825.4776"/>
    <line x1="506.3169" x2="517.2081" y1="828.6312" y2="825.4776"/>
    <line x1="528.8669" x2="538.0607" y1="832.1137" y2="825.4776"/>
    <line x1="517.2081" x2="505.991" y1="890.9322" y2="889.2768"/>
    <line x1="496.3556" x2="486.269" y1="890.9322" y2="885.7529"/>
    <line x1="491.6331" x2="496.3556" y1="924.2602" y2="934.5685"/>
    <line x1="548.3226" x2="558.9133" y1="930.5187" y2="934.5685"/>
    <line x1="568.4803" x2="579.7658" y1="933.4734" y2="934.5685"/>
    <line x1="589.6342" x2="600.6184" y1="937.3811" y2="934.5685"/>
    <line x1="589.7416" x2="600.6184" y1="996.8201" y2="1000.0231"/>
    <line x1="610.2584" x2="621.471" y1="1001.7087" y2="1000.0231"/>
    <line x1="631.8272" x2="642.3235" y1="1004.3116" y2="1000.0231"/>
    <line x1="652.7932" x2="663.1761" y1="1004.5794" y2="1000.0231"/>
    <line x1="673.4016" x2="684.0287" y1="1003.9764" y2="1000.0231"/>
    <line x1="693.5492" x2="704.8812" y1="1000.4088" y2="1000.0231"/>
    <line x1="694.2394" x2="704.8812" y1="982.1184" y2="978.2049"/>
    <line x1="579.7658" x2="570.7943" y1="1000.0231" y2="993.0895"/>
    <line x1="569.734" x2="579.7658" y1="743.4894" y2="738.2049"/>
    <line x1="589.7031" x2="600.6184" y1="741.2741" y2="738.2049"/>
    <line x1="611.1687" x2="621.471" y1="733.4692" y2="738.2049"/>
    <line x1="600.6184" x2="589.2979" y1="716.3867" y2="715.7468"/>
    <line x1="579.7658" x2="568.6041" y1="716.3867" y2="718.3815"/>
    <line x1="558.9133" x2="547.5901" y1="716.3867" y2="715.7948"/>
    <line x1="538.0607" x2="526.7949" y1="716.3867" y2="715.1041"/>
    <line x1="517.2081" x2="506.0037" y1="716.3867" y2="714.6477"/>
    <line x1="496.3556" x2="485.1262" y1="716.3867" y2="714.8165"/>
    <line x1="475.503" x2="464.1828" y1="716.3867" y2="715.7422"/>
    <line x1="454.6504" x2="443.5066" y1="716.3867" y2="714.2944"/>
    <line x1="433.7979" x2="423.5958" y1="716.3867" y2="711.4389"/>
    <line x1="444.154" x2="454.6504" y1="733.9168" y2="738.2049"/>
    <line x1="464.4487" x2="475.503" y1="735.6818" y2="738.2049"/>
    <line x1="485.3435" x2="496.3556" y1="735.5033" y2="738.2049"/>
    <line x1="505.9167" x2="517.2081" y1="737.1723" y2="738.2049"/>
    <line x1="526.7414" x2="538.0607" y1="738.8658" y2="738.2049"/>
    <line x1="547.8218" x2="558.9133" y1="740.5591" y2="738.2049"/>
    <line x1="517.2081" x2="510.2428" y1="389.114" y2="380.1671"/>
    <line x1="475.503" x2="469.8572" y1="345.4776" y2="335.6446"/>
    <line x1="266.9773" x2="256.1877" y1="1000.0231" y2="1003.5084"/>
    <line x1="246.1248" x2="234.9255" y1="1000.0231" y2="1001.7951"/>
    <line x1="225.2722" x2="214.0984" y1="1000.0231" y2="998.0973"/>
    <line x1="204.4196" x2="193.8704" y1="1000.0231" y2="995.8666"/>
    <line x1="183.5671" x2="173.477" y1="1000.0231" y2="994.8506"/>
    <line x1="162.7145" x2="151.8858" y1="1000.0231" y2="996.6613"/>
    <line x1="141.8619" x2="130.8414" y1="1000.0231" y2="997.3563"/>
    <line x1="121.0094" x2="109.9784" y1="1000.0231" y2="997.4001"/>
    <line x1="100.1568" x2="89.1814" y1="1000.0231" y2="997.1765"/>
  </g>
</svg>
