<?xml version="1.0" encoding="utf-8" ?>
<svg xmlns="http://www.w3.org/2000/svg" xmlns:cc="http://creativecommons.org/ns#" xmlns:dc="http://purl.org/dc/elements/1.1/" xmlns:ev="http://www.w3.org/2001/xml-events" xmlns:inkscape="http://www.inkscape.org/namespaces/inkscape" xmlns:rdf="http://www.w3.org/1999/02/22-rdf-syntax-ns#" xmlns:sodipodi="http://sodipodi.sourceforge.net/DTD/sodipodi-0.dtd" xmlns:xlink="http://www.w3.org/1999/xlink" baseProfile="tiny" height="29.7cm" version="1.2" viewBox="0 0 793.7007874015749 1122.5196850393702" width="21.0cm">
  <metadata>
    <rdf:RDF>
      <cc:Work>
        <dc:format>image/svg+xml</dc:format>
        <dc:source/>
        <dc:date>2021-11-14T16:55:33.078817</dc:date>
      </cc:Work>
    </rdf:RDF>
  </metadata>
  <defs/>
  <g fill="none" id="layer1" inkscape:groupmode="layer" inkscape:label="1" stroke="#00f" style="display:inline">
    <polyline points="221.3339,589.2725 215.8929,585.5712 222.2066,589.4294"/>
    <line x1="222.0494" x2="215.6795" y1="589.1154" y2="585.4202"/>
    <line x1="216.0382" x2="221.4787" y1="585.269" y2="588.958"/>
    <line x1="221.7973" x2="216.3573" y1="588.2812" y2="584.6192"/>
    <line x1="216.5104" x2="221.9502" y1="584.3138" y2="587.9632"/>
    <line x1="221.5727" x2="215.2508" y1="588.1223" y2="584.4666"/>
    <line x1="214.846" x2="221.1214" y1="583.5032" y2="587.1185"/>
    <line x1="220.6953" x2="214.4649" y1="586.1044" y2="582.5303"/>
    <line x1="214.1073" x2="220.2942" y1="581.5484" y2="585.0803"/>
    <line x1="219.9177" x2="213.7729" y1="584.0467" y2="580.5578"/>
    <line x1="213.4616" x2="219.5658" y1="579.5589" y2="583.004"/>
    <line x1="219.2381" x2="213.1732" y1="581.9526" y2="578.5522"/>
    <line x1="212.9075" x2="218.9345" y1="577.538" y2="580.8929"/>
    <line x1="218.4626" x2="223.9087" y1="580.7161" y2="584.2119"/>
    <line x1="224.0948" x2="218.6475" y1="583.8812" y2="580.3992"/>
    <line x1="218.6548" x2="212.6643" y1="579.8253" y2="576.5168"/>
    <line x1="212.4434" x2="218.3988" y1="575.4889" y2="578.7503"/>
    <line x1="219.2451" x2="224.6969" y1="579.3991" y2="582.8371"/>
    <line x1="224.5022" x2="219.052" y1="583.1706" y2="579.7185"/>
    <line x1="219.6671" x2="225.1227" y1="578.713" y2="582.1206"/>
    <line x1="225.326" x2="219.8685" y1="581.7843" y2="578.3912"/>
    <line x1="220.3083" x2="225.7702" y1="577.7" y2="581.0622"/>
    <line x1="225.9822" x2="220.518" y1="580.7233" y2="577.3758"/>
    <line x1="220.9758" x2="226.4451" y1="576.6799" y2="579.9958"/>
    <line x1="226.6659" x2="221.1939" y1="579.6546" y2="576.3535"/>
    <line x1="221.6698" x2="227.1477" y1="575.6531" y2="578.922"/>
    <line x1="227.3774" x2="221.8965" y1="578.5785" y2="575.3246"/>
    <line x1="222.3907" x2="227.8783" y1="574.6199" y2="577.8411"/>
    <line x1="228.1169" x2="222.6261" y1="577.4954" y2="574.2896"/>
    <line x1="223.1388" x2="228.6372" y1="573.5809" y2="576.7536"/>
    <line x1="228.8849" x2="223.3829" y1="576.4059" y2="573.2487"/>
    <line x1="223.9144" x2="229.4246" y1="572.5364" y2="575.6599"/>
    <line x1="229.6815" x2="224.1672" y1="575.3103" y2="572.2026"/>
    <line x1="224.7177" x2="230.241" y1="571.4868" y2="574.5604"/>
    <line x1="230.5072" x2="224.9795" y1="574.209" y2="571.1515"/>
    <line x1="225.5491" x2="231.0866" y1="570.4326" y2="573.4556"/>
    <line x1="231.3622" x2="225.8199" y1="573.1026" y2="570.0959"/>
    <line x1="226.4089" x2="231.9618" y1="569.3742" y2="572.3459"/>
    <line x1="232.2468" x2="226.6888" y1="571.9915" y2="569.0363"/>
    <line x1="227.2974" x2="232.8668" y1="568.312" y2="571.2318"/>
    <line x1="233.1614" x2="227.5865" y1="570.8761" y2="567.9729"/>
    <line x1="228.2149" x2="233.8021" y1="567.2465" y2="570.1137"/>
    <line x1="234.1064" x2="228.5133" y1="569.7568" y2="566.9064"/>
    <line x1="229.1618" x2="234.7679" y1="566.178" y2="568.9921"/>
    <line x1="235.082" x2="229.4696" y1="568.6341" y2="565.8371"/>
    <line x1="230.1384" x2="235.7646" y1="565.107" y2="567.8673"/>
    <line x1="236.0886" x2="230.4557" y1="567.5085" y2="564.7653"/>
    <line x1="231.145" x2="236.7926" y1="564.0339" y2="566.74"/>
    <line x1="237.1266" x2="231.472" y1="566.3804" y2="563.6917"/>
    <line x1="232.1819" x2="237.8522" y1="562.9591" y2="565.6104"/>
    <line x1="238.1964" x2="232.5187" y1="565.2502" y2="562.6165"/>
    <line x1="233.2496" x2="238.9437" y1="561.8831" y2="564.4791"/>
    <line x1="239.2981" x2="233.5962" y1="564.1184" y2="561.5402"/>
    <line x1="234.3483" x2="240.0675" y1="560.8064" y2="563.3465"/>
    <line x1="240.4324" x2="234.7048" y1="562.9855" y2="560.4633"/>
    <line x1="235.4784" x2="241.2241" y1="559.7293" y2="562.2131"/>
    <line x1="241.5994" x2="235.845" y1="561.8519" y2="559.3862"/>
    <line x1="236.6402" x2="242.4136" y1="558.6522" y2="561.0792"/>
    <line x1="242.7995" x2="237.017" y1="560.7181" y2="558.3092"/>
    <line x1="237.8341" x2="243.6366" y1="557.5757" y2="559.9455"/>
    <line x1="244.0332" x2="238.2212" y1="559.5845" y2="557.2329"/>
    <line x1="239.0605" x2="244.8934" y1="556.5" y2="558.8123"/>
    <line x1="245.3008" x2="239.458" y1="558.4515" y2="556.1577"/>
    <line x1="240.3197" x2="246.1843" y1="555.4258" y2="557.68"/>
    <line x1="246.6027" x2="240.7277" y1="557.3197" y2="555.0839"/>
    <line x1="241.612" x2="247.5097" y1="554.3533" y2="556.5492"/>
    <line x1="247.9392" x2="242.0306" y1="556.1894" y2="554.0121"/>
    <line x1="242.9378" x2="248.87" y1="553.283" y2="555.4203"/>
    <line x1="249.3107" x2="243.3672" y1="555.0612" y2="552.9427"/>
    <line x1="244.2974" x2="250.2656" y1="552.2154" y2="554.2937"/>
    <line x1="250.7176" x2="244.7377" y1="553.9354" y2="551.876"/>
    <line x1="245.6913" x2="251.6968" y1="551.1509" y2="553.1699"/>
    <line x1="252.1603" x2="246.1425" y1="552.8126" y2="550.8125"/>
    <line x1="247.1197" x2="253.1641" y1="550.0899" y2="552.0494"/>
    <line x1="253.639" x2="247.582" y1="551.6932" y2="549.7527"/>
    <line x1="248.583" x2="254.6677" y1="549.0328" y2="550.9325"/>
    <line x1="255.1543" x2="249.0565" y1="550.5776" y2="548.6969"/>
    <line x1="250.0816" x2="256.208" y1="547.98" y2="549.8198"/>
    <line x1="256.7064" x2="250.5664" y1="549.4662" y2="547.6456"/>
    <line x1="251.6157" x2="257.7854" y1="546.932" y2="548.7116"/>
    <line x1="258.2957" x2="252.1119" y1="548.3596" y2="546.5992"/>
    <line x1="253.1858" x2="259.4003" y1="545.8892" y2="547.6084"/>
    <line x1="259.9226" x2="253.6935" y1="547.2582" y2="545.5582"/>
    <line x1="254.7921" x2="261.053" y1="544.852" y2="546.5107"/>
    <line x1="261.5874" x2="255.3114" y1="546.1623" y2="544.5228"/>
    <line x1="256.435" x2="262.7438" y1="543.8208" y2="545.4189"/>
    <line x1="263.2905" x2="256.966" y1="545.0725" y2="543.4937"/>
    <line x1="258.1147" x2="264.4732" y1="542.7961" y2="544.3335"/>
    <line x1="265.0322" x2="258.6576" y1="543.9891" y2="542.4711"/>
    <line x1="259.8317" x2="266.2414" y1="541.7781" y2="543.2548"/>
    <line x1="266.8128" x2="260.3865" y1="542.9127" y2="541.4554"/>
    <line x1="261.5862" x2="268.0487" y1="540.7675" y2="542.1833"/>
    <line x1="268.6327" x2="262.153" y1="541.8436" y2="540.4471"/>
    <line x1="263.3785" x2="269.8956" y1="539.7645" y2="541.1195"/>
    <line x1="270.4922" x2="263.9574" y1="540.7823" y2="539.4467"/>
    <line x1="265.2089" x2="271.7822" y1="538.7695" y2="540.0637"/>
    <line x1="272.3915" x2="265.7999" y1="539.7291" y2="538.4544"/>
    <line x1="267.0776" x2="273.7089" y1="537.783" y2="539.0163"/>
    <line x1="274.3311" x2="267.681" y1="538.6846" y2="537.4706"/>
    <line x1="268.985" x2="275.676" y1="536.8054" y2="537.9779"/>
    <line x1="276.3111" x2="269.6007" y1="537.6491" y2="536.4959"/>
    <line x1="270.9312" x2="277.6837" y1="535.8369" y2="536.9488"/>
    <line x1="278.3318" x2="271.5593" y1="536.623" y2="535.5305"/>
    <line x1="272.9165" x2="279.7324" y1="534.8782" y2="535.9294"/>
    <line x1="280.3936" x2="273.5571" y1="535.6068" y2="534.5748"/>
    <line x1="274.9411" x2="281.8222" y1="533.9294" y2="534.9202"/>
    <line x1="282.4965" x2="275.5943" y1="534.6009" y2="533.6293"/>
    <line x1="277.0053" x2="283.9534" y1="532.991" y2="533.9215"/>
    <line x1="284.641" x2="277.6711" y1="533.6056" y2="532.6943"/>
    <line x1="279.1092" x2="286.1262" y1="532.0633" y2="532.9337"/>
    <line x1="286.8271" x2="279.7877" y1="532.6214" y2="531.7702"/>
    <line x1="281.2529" x2="288.3408" y1="531.1468" y2="531.9572"/>
    <line x1="289.055" x2="281.9442" y1="531.6486" y2="530.8573"/>
    <line x1="283.4367" x2="290.5974" y1="530.2419" y2="530.9925"/>
    <line x1="291.325" x2="284.1408" y1="530.6877" y2="529.9561"/>
    <line x1="285.6607" x2="292.8961" y1="529.3487" y2="530.0399"/>
    <line x1="293.6372" x2="286.3775" y1="529.739" y2="529.0668"/>
    <line x1="287.9249" x2="295.2371" y1="528.4678" y2="529.0997"/>
    <line x1="295.9917" x2="288.6546" y1="528.8029" y2="528.1898"/>
    <line x1="290.2294" x2="297.6205" y1="527.5995" y2="528.1724"/>
    <line x1="298.3886" x2="290.972" y1="527.8798" y2="527.3256"/>
    <line x1="292.5744" x2="300.0463" y1="526.744" y2="527.2584"/>
    <line x1="300.8279" x2="293.3298" y1="526.9701" y2="526.4743"/>
    <line x1="294.9598" x2="302.5147" y1="525.9019" y2="526.358"/>
    <line x1="303.3099" x2="295.7281" y1="526.0741" y2="525.6365"/>
    <line x1="297.3856" x2="305.0256" y1="525.0733" y2="525.4715"/>
    <line x1="305.8344" x2="298.1668" y1="525.1921" y2="524.8123"/>
    <line x1="299.8519" x2="307.5792" y1="524.2587" y2="524.5993"/>
    <line x1="308.4015" x2="300.646" y1="524.3246" y2="524.0022"/>
    <line x1="302.3586" x2="310.1752" y1="523.4583" y2="523.7418"/>
    <line x1="311.0111" x2="303.1655" y1="523.4718" y2="523.2064"/>
    <line x1="304.9055" x2="312.8138" y1="522.6725" y2="522.8993"/>
    <line x1="313.6632" x2="305.7252" y1="522.6342" y2="522.4254"/>
    <line x1="305.3638" x2="315.5335" y1="522.9837" y2="521.5819"/>
    <line x1="315.4948" x2="307.4926" y1="522.0722" y2="521.9016"/>
    <line x1="308.3251" x2="316.3577" y1="521.6593" y2="521.812"/>
    <line x1="315.9772" x2="305.7551" y1="522.3996" y2="523.7753"/>
    <line x1="306.1158" x2="316.3891" y1="524.5814" y2="523.2329"/>
    <line x1="316.7688" x2="306.4456" y1="524.0815" y2="525.4016"/>
    <line x1="306.7442" x2="317.1159" y1="526.2356" y2="524.9448"/>
    <line x1="317.4302" x2="307.0113" y1="525.8227" y2="527.0831"/>
    <line x1="307.2466" x2="317.7114" y1="527.9437" y2="526.7148"/>
    <line x1="317.9591" x2="307.45" y1="527.6207" y2="528.8171"/>
    <line x1="307.6212" x2="318.1732" y1="529.7029" y2="528.5401"/>
    <line x1="318.3534" x2="307.76" y1="529.4725" y2="530.6008"/>
    <line x1="307.8664" x2="318.4996" y1="531.5104" y2="530.4177"/>
    <line x1="318.6116" x2="307.9403" y1="531.3752" y2="532.4314"/>
    <line x1="307.9815" x2="318.6893" y1="533.3633" y2="532.3446"/>
    <line x1="318.7327" x2="307.99" y1="533.3256" y2="534.3059"/>
    <line x1="307.9659" x2="318.7417" y1="535.2587" y2="534.3178"/>
    <line x1="318.7162" x2="307.9091" y1="535.3208" y2="536.2214"/>
    <line x1="307.8196" x2="318.6564" y1="537.1935" y2="536.3341"/>
    <line x1="318.5623" x2="307.6977" y1="537.3574" y2="538.1748"/>
    <line x1="307.5434" x2="318.434" y1="539.1647" y2="538.3903"/>
    <line x1="318.2715" x2="307.3568" y1="539.4323" y2="540.1629"/>
    <line x1="307.1381" x2="318.0751" y1="541.169" y2="540.4831"/>
    <line x1="317.8449" x2="306.8876" y1="541.5421" y2="542.1826"/>
    <line x1="306.6054" x2="317.5812" y1="543.2033" y2="542.6091"/>
    <line x1="317.2842" x2="306.2919" y1="543.6835" y2="544.2306"/>
    <line x1="305.9473" x2="316.9541" y1="545.2643" y2="544.7649"/>
    <line x1="316.5914" x2="305.5719" y1="545.8529" y2="546.3037"/>
    <line x1="305.1661" x2="316.1963" y1="547.3487" y2="546.9471"/>
    <line x1="315.7692" x2="304.7304" y1="548.047" y2="548.3986"/>
    <line x1="304.265" x2="315.3105" y1="549.4532" y2="549.1522"/>
    <line x1="314.8206" x2="303.7704" y1="550.2623" y2="550.5119"/>
    <line x1="303.2471" x2="314.3" y1="551.5744" y2="551.3767"/>
    <line x1="313.7491" x2="302.6956" y1="552.4951" y2="552.6402"/>
    <line x1="302.1163" x2="313.1686" y1="553.7089" y2="553.617"/>
    <line x1="312.5588" x2="301.5098" y1="554.742" y2="554.7801"/>
    <line x1="300.8766" x2="311.9204" y1="555.8533" y2="555.8696"/>
    <line x1="311.2539" x2="300.2173" y1="556.9993" y2="556.9282"/>
    <line x1="299.5325" x2="310.5599" y1="558.0042" y2="558.1307"/>
    <line x1="309.8391" x2="298.8229" y1="559.2634" y2="559.081"/>
    <line x1="298.0889" x2="309.092" y1="560.1582" y2="560.3969"/>
    <line x1="308.3194" x2="297.3313" y1="561.5307" y2="561.2352"/>
    <line x1="296.5507" x2="307.522" y1="562.3117" y2="562.6644"/>
    <line x1="306.7003" x2="295.7479" y1="563.7976" y2="563.3872"/>
    <line x1="294.9234" x2="305.8552" y1="564.4613" y2="564.9297"/>
    <line x1="304.9873" x2="294.078" y1="566.0604" y2="565.5337"/>
    <line x1="293.2123" x2="304.0974" y1="566.6037" y2="567.1891"/>
    <line x1="303.1862" x2="292.3272" y1="568.3155" y2="567.6711"/>
    <line x1="291.4234" x2="302.2545" y1="568.7354" y2="569.4391"/>
    <line x1="301.3031" x2="290.5015" y1="570.5593" y2="569.7961"/>
    <line x1="289.5624" x2="300.3327" y1="570.8529" y2="571.6759"/>
    <line x1="299.3442" x2="288.6068" y1="572.7883" y2="571.9053"/>
    <line x1="287.6354" x2="298.3383" y1="572.9529" y2="573.8961"/>
    <line x1="297.3158" x2="286.6491" y1="574.9988" y2="573.9953"/>
    <line x1="285.6485" x2="296.2775" y1="575.032" y2="576.0961"/>
    <line x1="295.2243" x2="284.6345" y1="577.1874" y2="576.0627"/>
    <line x1="283.6078" x2="294.1569" y1="577.0869" y2="578.2723"/>
    <line x1="293.0762" x2="282.5692" y1="579.3504" y2="578.1043"/>
    <line x1="281.5195" x2="291.9829" y1="579.1143" y2="580.4213"/>
    <line x1="290.878" x2="280.4595" y1="581.4846" y2="580.1167"/>
    <line x1="279.3898" x2="289.7621" y1="581.111" y2="582.5397"/>
    <line x1="288.6362" x2="278.3113" y1="583.5863" y2="582.0968"/>
    <line x1="277.2248" x2="287.5009" y1="583.0737" y2="584.624"/>
    <line x1="286.3572" x2="276.131" y1="585.6524" y2="584.0414"/>
    <line x1="275.0306" x2="285.2058" y1="584.9994" y2="586.671"/>
    <line x1="284.0475" x2="273.9244" y1="587.6794" y2="585.9474"/>
    <line x1="272.8131" x2="282.8831" y1="586.8849" y2="588.6773"/>
    <line x1="281.7134" x2="271.6975" y1="589.6642" y2="587.8117"/>
    <line x1="270.5783" x2="280.5391" y1="588.7273" y2="590.6397"/>
    <line x1="279.361" x2="269.4562" y1="591.6035" y2="589.6314"/>
    <line x1="268.3319" x2="278.1798" y1="590.5235" y2="592.5551"/>
    <line x1="276.9963" x2="267.2061" y1="593.4942" y2="591.4034"/>
    <line x1="266.0795" x2="275.8113" y1="592.2708" y2="594.4205"/>
    <line x1="274.6254" x2="264.9528" y1="595.3335" y2="593.1251"/>
    <line x1="263.8266" x2="273.4393" y1="593.9662" y2="596.2328"/>
    <line x1="272.2538" x2="262.7015" y1="597.1181" y2="594.7937"/>
    <line x1="261.5782" x2="271.0695" y1="595.6072" y2="597.9892"/>
    <line x1="269.8872" x2="260.4574" y1="598.8455" y2="596.4064"/>
    <line x1="259.3397" x2="268.7074" y1="597.191" y2="599.6868"/>
    <line x1="267.5308" x2="258.2255" y1="600.5127" y2="597.9607"/>
    <line x1="257.1156" x2="266.358" y1="598.7152" y2="601.3229"/>
    <line x1="265.1897" x2="256.0105" y1="602.1171" y2="599.4542"/>
    <line x1="254.9108" x2="264.0264" y1="600.1773" y2="602.8949"/>
    <line x1="262.8688" x2="253.817" y1="603.6561" y2="600.8843"/>
    <line x1="252.7296" x2="261.7175" y1="601.575" y2="604.4004"/>
    <line x1="260.5729" x2="251.6492" y1="605.1273" y2="602.2489"/>
    <line x1="250.5763" x2="259.4356" y1="602.906" y2="605.8368"/>
    <line x1="258.3062" x2="249.5113" y1="606.5284" y2="603.5458"/>
    <line x1="248.4547" x2="257.1851" y1="604.1681" y2="607.2019"/>
    <line x1="256.0729" x2="247.407" y1="607.857" y2="604.7728"/>
    <line x1="246.3687" x2="254.9701" y1="605.3595" y2="608.4935"/>
    <line x1="253.8771" x2="245.3401" y1="609.1111" y2="605.928"/>
    <line x1="244.3218" x2="252.7944" y1="606.4782" y2="609.7095"/>
    <line x1="251.7224" x2="243.314" y1="610.2886" y2="607.0096"/>
    <line x1="242.3172" x2="250.6616" y1="607.5223" y2="610.8481"/>
    <line x1="250.8783" x2="260.2586" y1="610.7266" y2="615.1251"/>
    <line x1="260.7872" x2="251.369" y1="615.2366" y2="610.8391"/>
    <line x1="252.4311" x2="261.9312" y1="611.0728" y2="615.4679"/>
    <line x1="262.472" x2="252.9333" y1="615.5725" y2="611.1788"/>
    <line x1="254.0201" x2="263.6421" y1="611.3985" y2="615.789"/>
    <line x1="264.1952" x2="254.5338" y1="615.8867" y2="611.4979"/>
    <line x1="255.6454" x2="265.3917" y1="611.7036" y2="616.0884"/>
    <line x1="265.9572" x2="256.1709" y1="616.1791" y2="611.7964"/>
    <line x1="257.3075" x2="267.1803" y1="611.9879" y2="616.3658"/>
    <line x1="267.7582" x2="257.8447" y1="616.4495" y2="612.0741"/>
    <line x1="259.0067" x2="269.0082" y1="612.2515" y2="616.6211"/>
    <line x1="269.5988" x2="259.5558" y1="616.6978" y2="612.331"/>
    <line x1="260.7432" x2="270.8758" y1="612.4941" y2="616.8543"/>
    <line x1="271.479" x2="261.3043" y1="616.924" y2="612.5669"/>
    <line x1="262.5174" x2="272.7833" y1="612.7156" y2="617.0653"/>
    <line x1="273.3993" x2="263.0905" y1="617.1278" y2="612.7818"/>
    <line x1="264.3296" x2="274.7311" y1="612.916" y2="617.254"/>
    <line x1="275.36" x2="264.9148" y1="617.3094" y2="612.9754"/>
    <line x1="266.1799" x2="276.7193" y1="613.0953" y2="617.4202"/>
    <line x1="277.3612" x2="266.7774" y1="617.4685" y2="613.1479"/>
    <line x1="268.0688" x2="278.7484" y1="613.2532" y2="617.564"/>
    <line x1="279.4033" x2="268.6786" y1="617.6051" y2="613.2991"/>
    <line x1="269.9964" x2="280.8185" y1="613.3898" y2="617.6853"/>
    <line x1="281.4866" x2="270.6186" y1="617.7192" y2="613.4288"/>
    <line x1="271.963" x2="282.9299" y1="613.505" y2="617.784"/>
    <line x1="283.6112" x2="272.5977" y1="617.8107" y2="613.5372"/>
    <line x1="273.9689" x2="285.0828" y1="613.5988" y2="617.8601"/>
    <line x1="285.7773" x2="274.616" y1="617.8796" y2="613.6242"/>
    <line x1="276.0141" x2="287.2774" y1="613.6711" y2="617.9136"/>
    <line x1="287.9853" x2="276.6739" y1="617.9259" y2="613.6896"/>
    <line x1="278.099" x2="289.5139" y1="613.7219" y2="617.9444"/>
    <line x1="290.2352" x2="278.7714" y1="617.9494" y2="613.7336"/>
    <line x1="280.2237" x2="291.7925" y1="613.7512" y2="617.9525"/>
    <line x1="292.5272" x2="280.9088" y1="617.9503" y2="613.7559"/>
    <line x1="282.3883" x2="294.1133" y1="613.7589" y2="617.938"/>
    <line x1="294.8614" x2="283.0862" y1="617.9286" y2="613.7568"/>
    <line x1="284.5931" x2="296.4764" y1="613.745" y2="617.9007"/>
    <line x1="297.238" x2="285.3038" y1="617.8841" y2="613.7361"/>
    <line x1="286.838" x2="298.8819" y1="613.7097" y2="617.8409"/>
    <line x1="299.6571" x2="287.5616" y1="617.817" y2="613.6939"/>
    <line x1="289.1233" x2="301.33" y1="613.6528" y2="617.7584"/>
    <line x1="302.1187" x2="289.8597" y1="617.7273" y2="613.6302"/>
    <line x1="291.4489" x2="303.8206" y1="613.5744" y2="617.6532"/>
    <line x1="304.6229" x2="292.1982" y1="617.615" y2="613.5449"/>
    <line x1="293.815" x2="306.3538" y1="613.4746" y2="617.5256"/>
    <line x1="307.1696" x2="294.5772" y1="617.4802" y2="613.4383"/>
    <line x1="296.2215" x2="308.9295" y1="613.3533" y2="617.3754"/>
    <line x1="309.7589" x2="296.9966" y1="617.3229" y2="613.3102"/>
    <line x1="298.6685" x2="311.5478" y1="613.2106" y2="617.2028"/>
    <line x1="312.3908" x2="299.4564" y1="617.1431" y2="613.1607"/>
    <line x1="301.1559" x2="314.2086" y1="613.0466" y2="617.0078"/>
    <line x1="315.065" x2="301.9566" y1="616.941" y2="612.9899"/>
    <line x1="303.6836" x2="316.9117" y1="612.8614" y2="616.7905"/>
    <line x1="317.7816" x2="304.4972" y1="616.7166" y2="612.798"/>
    <line x1="306.2515" x2="319.657" y1="612.655" y2="616.551"/>
    <line x1="320.5403" x2="307.0779" y1="616.4701" y2="612.5848"/>
    <line x1="308.8596" x2="322.4444" y1="612.4275" y2="616.2894"/>
    <line x1="323.341" x2="309.6987" y1="616.2014" y2="612.3506"/>
    <line x1="311.5076" x2="325.2736" y1="612.1789" y2="616.0058"/>
    <line x1="326.1835" x2="312.3594" y1="615.9108" y2="612.0954"/>
    <line x1="314.1953" x2="328.1444" y1="611.9095" y2="615.7002"/>
    <line x1="329.0675" x2="315.0598" y1="615.5984" y2="611.8193"/>
    <line x1="316.9226" x2="331.0565" y1="611.6192" y2="615.3729"/>
    <line x1="331.9927" x2="317.7996" y1="615.2641" y2="611.5224"/>
    <line x1="319.6891" x2="334.0095" y1="611.3083" y2="615.024"/>
    <line x1="334.9587" x2="320.5785" y1="614.9083" y2="611.2049"/>
    <line x1="322.4945" x2="337.0032" y1="610.9768" y2="614.6536"/>
    <line x1="337.9652" x2="323.3962" y1="614.5311" y2="610.8669"/>
    <line x1="325.3385" x2="340.037" y1="610.6249" y2="614.2617"/>
    <line x1="341.0117" x2="326.2524" y1="614.1325" y2="610.5085"/>
    <line x1="328.2206" x2="343.1105" y1="610.2526" y2="613.8487"/>
    <line x1="344.0978" x2="329.1466" y1="613.7128" y2="610.1299"/>
    <line x1="331.1404" x2="346.2233" y1="609.8603" y2="613.4147"/>
    <line x1="347.2229" x2="332.0784" y1="613.2721" y2="609.7311"/>
    <line x1="334.0975" x2="349.3746" y1="609.448" y2="612.9598"/>
    <line x1="350.3865" x2="335.0472" y1="612.8105" y2="609.3124"/>
    <line x1="337.0913" x2="352.564" y1="609.0158" y2="612.4842"/>
    <line x1="353.5878" x2="338.0526" y1="612.3284" y2="608.874"/>
    <line x1="340.1213" x2="355.7908" y1="608.564" y2="611.9881"/>
    <line x1="356.8263" x2="341.0939" y1="611.8259" y2="608.416"/>
    <line x1="343.1867" x2="359.0542" y1="608.0927" y2="611.4718"/>
    <line x1="360.1013" x2="344.1704" y1="611.3031" y2="607.9386"/>
    <line x1="346.2869" x2="362.3535" y1="607.6022" y2="610.9353"/>
    <line x1="363.4118" x2="347.2816" y1="610.7603" y2="607.4419"/>
    <line x1="349.4212" x2="365.6878" y1="607.0926" y2="610.379"/>
    <line x1="366.7571" x2="350.4266" y1="610.1977" y2="606.9263"/>
    <line x1="352.5889" x2="369.0564" y1="606.5641" y2="609.8031"/>
    <line x1="370.1364" x2="353.6047" y1="609.6155" y2="606.3918"/>
    <line x1="355.789" x2="372.4581" y1="606.0169" y2="609.2077"/>
    <line x1="373.5485" x2="356.815" y1="609.014" y2="605.8387"/>
    <line x1="359.0207" x2="375.8922" y1="605.4513" y2="608.5931"/>
    <line x1="376.9926" x2="360.0565" y1="608.3934" y2="605.2673"/>
    <line x1="362.283" x2="379.3574" y1="604.8675" y2="607.9596"/>
    <line x1="380.4676" x2="363.3284" y1="607.7539" y2="604.6777"/>
    <line x1="365.575" x2="382.8528" y1="604.2656" y2="607.3075"/>
    <line x1="383.9723" x2="366.6296" y1="607.0958" y2="604.0702"/>
    <line x1="368.8955" x2="386.377" y1="603.6461" y2="606.6369"/>
    <line x1="387.5055" x2="369.9591" y1="606.4194" y2="603.445"/>
    <line x1="372.2436" x2="389.929" y1="603.009" y2="605.9481"/>
    <line x1="391.066" x2="373.3156" y1="605.725" y2="602.8025"/>
    <line x1="375.6179" x2="393.5073" y1="602.3547" y2="605.2415"/>
    <line x1="394.6525" x2="376.6981" y1="605.0127" y2="602.1427"/>
    <line x1="379.0174" x2="397.1107" y1="601.6834" y2="604.5173"/>
    <line x1="398.2636" x2="380.1053" y1="604.283" y2="601.4661"/>
    <line x1="382.4406" x2="400.7378" y1="600.9954" y2="603.7758"/>
    <line x1="401.8978" x2="383.5358" y1="603.536" y2="600.7728"/>
    <line x1="385.8863" x2="404.3869" y1="600.291" y2="603.0173"/>
    <line x1="405.5537" x2="386.9883" y1="602.7722" y2="600.0632"/>
    <line x1="389.353" x2="408.0567" y1="599.5704" y2="602.2421"/>
    <line x1="409.2297" x2="390.4615" y1="601.9917" y2="599.3375"/>
    <line x1="392.8393" x2="411.7455" y1="598.834" y2="601.4505"/>
    <line x1="412.9242" x2="393.9537" y1="601.1949" y2="598.5961"/>
    <line x1="396.3437" x2="415.4516" y1="598.0819" y2="600.6428"/>
    <line x1="416.6355" x2="397.4635" y1="600.3822" y2="597.8392"/>
    <line x1="399.8645" x2="419.1734" y1="597.3146" y2="599.8193"/>
    <line x1="420.3619" x2="400.9892" y1="599.5538" y2="597.0671"/>
    <line x1="403.4001" x2="422.9089" y1="596.5324" y2="598.9805"/>
    <line x1="424.1014" x2="404.5292" y1="598.7101" y2="596.2801"/>
    <line x1="406.9489" x2="426.6565" y1="595.7354" y2="598.1265"/>
    <line x1="427.8524" x2="408.0818" y1="597.8514" y2="595.4786"/>
    <line x1="410.5091" x2="430.414" y1="594.9242" y2="597.2578"/>
    <line x1="431.6127" x2="411.6452" y1="596.9781" y2="594.6628"/>
    <line x1="414.0787" x2="434.1797" y1="594.0989" y2="596.3747"/>
    <line x1="435.3805" x2="415.2175" y1="596.0905" y2="593.8332"/>
    <line x1="417.6561" x2="437.9513" y1="593.26" y2="595.4776"/>
    <line x1="439.1537" x2="418.7969" y1="595.189" y2="592.99"/>
    <line x1="421.2392" x2="441.727" y1="592.4077" y2="594.5668"/>
    <line x1="442.9301" x2="422.3814" y1="594.2738" y2="592.1335"/>
    <line x1="424.826" x2="445.5044" y1="591.5424" y2="593.6426"/>
    <line x1="446.7076" x2="425.969" y1="593.3455" y2="591.2641"/>
    <line x1="428.4146" x2="449.2814" y1="590.6645" y2="592.7055"/>
    <line x1="450.4841" x2="429.5577" y1="592.4044" y2="590.3822"/>
    <line x1="432.0028" x2="453.0558" y1="589.7742" y2="591.7559"/>
    <line x1="454.2571" x2="433.1453" y1="591.4508" y2="589.4882"/>
    <line x1="435.5884" x2="456.8252" y1="588.8721" y2="590.794"/>
    <line x1="458.0244" x2="436.7297" y1="590.4851" y2="588.5822"/>
    <line x1="439.1694" x2="460.5873" y1="587.9583" y2="589.8203"/>
    <line x1="461.7837" x2="440.3086" y1="589.5077" y2="587.6648"/>
    <line x1="442.7433" x2="464.3396" y1="587.0333" y2="588.8352"/>
    <line x1="465.5324" x2="443.8799" y1="588.5191" y2="586.7363"/>
    <line x1="446.308" x2="468.0797" y1="586.0974" y2="587.839"/>
    <line x1="469.2681" x2="447.4412" y1="587.5195" y2="585.7971"/>
    <line x1="449.8612" x2="471.8052" y1="585.1511" y2="586.8323"/>
    <line x1="472.9883" x2="450.9901" y1="586.5094" y2="584.8475"/>
    <line x1="453.4003" x2="475.5134" y1="584.1946" y2="585.8153"/>
    <line x1="476.6905" x2="454.5243" y1="585.4892" y2="583.8879"/>
    <line x1="456.9231" x2="479.2017" y1="583.2285" y2="584.7884"/>
    <line x1="480.372" x2="458.0414" y1="584.4594" y2="582.9188"/>
    <line x1="460.4271" x2="482.8677" y1="582.253" y2="583.7522"/>
    <line x1="484.0303" x2="461.5388" y1="583.4202" y2="581.9404"/>
    <line x1="463.9097" x2="486.5085" y1="581.2686" y2="582.707"/>
    <line x1="487.6626" x2="465.0142" y1="582.3722" y2="580.9532"/>
    <line x1="467.3685" x2="490.1216" y1="580.2756" y2="581.6532"/>
    <line x1="491.2662" x2="468.4649" y1="581.3158" y2="579.9576"/>
    <line x1="470.801" x2="493.7043" y1="579.2745" y2="580.5912"/>
    <line x1="494.8386" x2="471.8884" y1="580.2513" y2="578.954"/>
    <line x1="474.2045" x2="497.2537" y1="578.2656" y2="579.5215"/>
    <line x1="498.3769" x2="475.2821" y1="579.1792" y2="577.9427"/>
    <line x1="477.5764" x2="500.7671" y1="577.2494" y2="578.4445"/>
    <line x1="501.8783" x2="478.6434" y1="578.1" y2="576.9242"/>
    <line x1="480.9142" x2="504.2419" y1="576.2263" y2="577.3606"/>
    <line x1="505.3401" x2="481.9698" y1="577.014" y2="575.899"/>
    <line x1="484.2152" x2="507.6751" y1="575.1966" y2="576.2703"/>
    <line x1="508.7596" x2="485.2585" y1="575.9217" y2="574.8673"/>
    <line x1="487.4768" x2="511.0641" y1="574.1608" y2="575.174"/>
    <line x1="512.1338" x2="488.507" y1="574.8236" y2="573.8296"/>
    <line x1="490.6963" x2="514.406" y1="573.1193" y2="574.0721"/>
    <line x1="515.4601" x2="491.7126" y1="573.72" y2="572.7864"/>
    <line x1="493.8711" x2="517.698" y1="572.0725" y2="572.9651"/>
    <line x1="518.7357" x2="494.8726" y1="572.6114" y2="571.738"/>
    <line x1="496.9985" x2="520.9373" y1="571.0208" y2="571.8534"/>
    <line x1="521.9576" x2="497.9843" y1="571.4984" y2="570.6849"/>
    <line x1="500.0759" x2="524.1212" y1="569.9647" y2="570.7374"/>
    <line x1="525.1233" x2="501.0452" y1="570.3812" y2="569.6274"/>
    <line x1="503.1006" x2="527.2469" y1="568.9046" y2="569.6177"/>
    <line x1="528.2298" x2="504.0526" y1="569.2603" y2="568.5661"/>
    <line x1="506.07" x2="530.3116" y1="567.8408" y2="568.4947"/>
    <line x1="531.2745" x2="507.0038" y1="568.1363" y2="567.5013"/>
    <line x1="508.9814" x2="533.3126" y1="566.7739" y2="567.3687"/>
    <line x1="534.2547" x2="509.8962" y1="567.0095" y2="566.4335"/>
    <line x1="511.8324" x2="536.2472" y1="565.7042" y2="566.2403"/>
    <line x1="537.1676" x2="512.7274" y1="565.8804" y2="565.363"/>
    <line x1="514.6203" x2="539.1127" y1="564.6323" y2="565.1099"/>
    <line x1="540.0105" x2="515.4946" y1="564.7495" y2="564.2904"/>
    <line x1="517.3425" x2="541.9065" y1="563.5584" y2="563.978"/>
    <line x1="542.7809" x2="518.1954" y1="563.6172" y2="563.216"/>
    <line x1="519.9966" x2="544.6259" y1="562.483" y2="562.8449"/>
    <line x1="545.4761" x2="520.8273" y1="562.4839" y2="562.1403"/>
    <line x1="522.58" x2="547.2685" y1="561.4067" y2="561.7113"/>
    <line x1="548.0936" x2="523.3877" y1="561.3501" y2="561.0637"/>
    <line x1="525.0905" x2="549.8316" y1="560.3297" y2="560.5774"/>
    <line x1="550.631" x2="525.8744" y1="560.2163" y2="559.9866"/>
    <line x1="527.5255" x2="552.3129" y1="559.2526" y2="559.4439"/>
    <line x1="553.0857" x2="528.2848" y1="559.0829" y2="558.9095"/>
    <line x1="529.8827" x2="554.7099" y1="558.1757" y2="558.311"/>
    <line x1="555.4554" x2="530.6168" y1="557.9504" y2="557.8328"/>
    <line x1="532.1599" x2="557.0204" y1="557.0995" y2="557.1794"/>
    <line x1="557.7378" x2="532.868" y1="556.8192" y2="556.7569"/>
    <line x1="534.3548" x2="559.2419" y1="556.0244" y2="556.0494"/>
    <line x1="559.9305" x2="535.0363" y1="555.6898" y2="555.6823"/>
    <line x1="536.4653" x2="561.3724" y1="554.9509" y2="554.9214"/>
    <line x1="562.0316" x2="537.1194" y1="554.5626" y2="554.6093"/>
    <line x1="538.4892" x2="563.4097" y1="553.8793" y2="553.796"/>
    <line x1="564.0388" x2="539.1154" y1="553.4381" y2="553.5385"/>
    <line x1="540.4247" x2="565.3518" y1="552.8102" y2="552.6736"/>
    <line x1="565.9501" x2="541.0223" y1="552.3168" y2="552.4702"/>
    <line x1="542.2696" x2="567.1967" y1="551.7439" y2="551.5546"/>
    <line x1="567.7636" x2="542.838" y1="551.199" y2="551.4049"/>
    <line x1="544.0223" x2="568.9424" y1="550.6809" y2="550.4395"/>
    <line x1="569.4774" x2="544.5608" y1="550.0852" y2="550.343"/>
    <line x1="545.6807" x2="570.5873" y1="549.6215" y2="549.3287"/>
    <line x1="571.0898" x2="546.189" y1="548.9759" y2="549.2849"/>
    <line x1="547.2434" x2="572.1297" y1="548.5663" y2="548.2227"/>
    <line x1="572.5992" x2="547.7208" y1="547.8715" y2="548.2311"/>
    <line x1="548.7086" x2="573.5679" y1="547.5156" y2="547.1219"/>
    <line x1="574.0038" x2="549.1546" y1="546.7725" y2="547.1819"/>
    <line x1="550.0749" x2="574.9004" y1="546.4698" y2="546.0268"/>
    <line x1="575.3024" x2="550.4891" y1="545.6792" y2="546.1378"/>
    <line x1="551.3408" x2="576.1259" y1="545.4294" y2="544.9377"/>
    <line x1="576.4935" x2="551.7227" y1="544.5922" y2="545.0992"/>
    <line x1="552.505" x2="577.243" y1="544.3948" y2="543.8552"/>
    <line x1="577.5759" x2="552.8543" y1="543.5119" y2="544.0666"/>
    <line x1="553.5663" x2="578.2507" y1="543.3665" y2="542.7797"/>
    <line x1="578.5485" x2="553.8826" y1="542.4386" y2="543.0403"/>
    <line x1="554.5236" x2="579.1478" y1="542.3447" y2="541.7115"/>
    <line x1="579.4101" x2="554.8065" y1="541.3729" y2="542.0207"/>
    <line x1="555.3758" x2="579.9333" y1="541.3299" y2="540.6512"/>
    <line x1="580.16" x2="555.6251" y1="540.3151" y2="541.0082"/>
    <line x1="556.1221" x2="580.6066" y1="540.3226" y2="539.5991"/>
    <line x1="580.7973" x2="556.3374" y1="539.2658" y2="540.0034"/>
    <line x1="556.7617" x2="581.1667" y1="539.3231" y2="538.5556"/>
    <line x1="581.3213" x2="556.9428" y1="538.2252" y2="539.0065"/>
    <line x1="557.2938" x2="581.6132" y1="538.3319" y2="537.5213"/>
    <line x1="581.7315" x2="557.4407" y1="537.1938" y2="538.0179"/>
    <line x1="557.718" x2="581.9456" y1="537.3492" y2="536.4964"/>
    <line x1="582.0274" x2="557.8303" y1="536.172" y2="537.0381"/>
    <line x1="558.0337" x2="582.1634" y1="536.3756" y2="535.4815"/>
    <line x1="582.2087" x2="558.1115" y1="535.1603" y2="536.0674"/>
    <line x1="558.2407" x2="582.2666" y1="535.4114" y2="534.4768"/>
    <line x1="582.2753" x2="558.2837" y1="534.1591" y2="535.1063"/>
    <line x1="558.3387" x2="582.2549" y1="534.457" y2="533.4829"/>
    <line x1="582.227" x2="558.347" y1="533.1686" y2="534.1551"/>
    <line x1="558.3276" x2="582.1284" y1="533.5128" y2="532.5001"/>
    <line x1="582.064" x2="558.3011" y1="532.1894" y2="533.2142"/>
    <line x1="558.2074" x2="581.8872" y1="532.5791" y2="531.5288"/>
    <line x1="581.7863" x2="558.1462" y1="531.2219" y2="532.284"/>
    <line x1="557.9782" x2="581.5315" y1="531.6563" y2="530.5694"/>
    <line x1="581.3943" x2="557.8824" y1="530.2663" y2="531.3648"/>
    <line x1="557.6404" x2="581.0618" y1="530.7449" y2="529.6222"/>
    <line x1="580.8883" x2="557.51" y1="529.3232" y2="530.457"/>
    <line x1="557.1942" x2="580.4786" y1="529.8451" y2="528.6877"/>
    <line x1="580.2691" x2="557.0294" y1="528.3928" y2="529.561"/>
    <line x1="556.6401" x2="579.7824" y1="528.9573" y2="527.7663"/>
    <line x1="579.5371" x2="556.441" y1="527.4755" y2="528.6771"/>
    <line x1="555.9787" x2="578.9741" y1="528.0819" y2="526.8582"/>
    <line x1="578.6932" x2="555.7456" y1="526.5718" y2="527.8058"/>
    <line x1="555.2108" x2="578.0544" y1="527.2193" y2="525.9639"/>
    <line x1="577.7382" x2="554.9439" y1="525.682" y2="526.9472"/>
    <line x1="554.3371" x2="577.0243" y1="526.3697" y2="525.0837"/>
    <line x1="576.6732" x2="554.0367" y1="524.8064" y2="526.1019"/>
    <line x1="553.3585" x2="575.885" y1="525.5335" y2="524.218"/>
    <line x1="575.4993" x2="553.025" y1="523.9453" y2="525.27"/>
    <line x1="552.2762" x2="574.6376" y1="524.7111" y2="523.3671"/>
    <line x1="574.2178" x2="551.9098" y1="523.0992" y2="524.452"/>
    <line x1="551.0912" x2="573.2835" y1="523.9027" y2="522.5313"/>
    <line x1="572.8299" x2="550.6923" y1="522.2684" y2="523.6482"/>
    <line x1="549.8047" x2="571.8239" y1="523.1088" y2="521.7111"/>
    <line x1="571.3372" x2="549.3739" y1="521.4531" y2="522.8589"/>
    <line x1="548.4182" x2="570.2606" y1="522.3295" y2="520.9066"/>
    <line x1="569.741" x2="547.9557" y1="520.6538" y2="522.0844"/>
    <line x1="546.933" x2="568.595" y1="521.5653" y2="520.1183"/>
    <line x1="568.0433" x2="546.4394" y1="519.8707" y2="521.3251"/>
    <line x1="545.3507" x2="566.8289" y1="520.8164" y2="519.3465"/>
    <line x1="566.2455" x2="544.8265" y1="519.1042" y2="520.5811"/>
    <line x1="543.6729" x2="564.9641" y1="520.0832" y2="518.5914"/>
    <line x1="564.3497" x2="543.1187" y1="518.3545" y2="519.8529"/>
    <line x1="541.9013" x2="563.0024" y1="519.3658" y2="517.8534"/>
    <line x1="562.3576" x2="541.3176" y1="517.622" y2="519.1407"/>
    <line x1="540.0378" x2="560.946" y1="518.6647" y2="517.1328"/>
    <line x1="560.2714" x2="539.4252" y1="516.9069" y2="518.4449"/>
    <line x1="538.0841" x2="558.7968" y1="517.9801" y2="516.4298"/>
    <line x1="558.093" x2="537.4432" y1="516.2096" y2="517.7656"/>
    <line x1="536.0424" x2="556.5569" y1="517.3123" y2="515.7447"/>
    <line x1="555.8248" x2="535.3738" y1="515.5303" y2="517.1031"/>
    <line x1="533.9145" x2="554.2287" y1="516.6615" y2="515.0779"/>
    <line x1="553.4688" x2="533.219" y1="514.8693" y2="516.4578"/>
    <line x1="531.7027" x2="551.8143" y1="516.028" y2="514.4295"/>
    <line x1="551.0275" x2="530.9808" y1="514.2269" y2="515.8298"/>
    <line x1="529.409" x2="549.3161" y1="515.412" y2="513.7998"/>
    <line x1="548.5032" x2="528.6616" y1="513.6032" y2="515.2195"/>
    <line x1="527.0357" x2="546.7366" y1="514.8138" y2="513.1891"/>
    <line x1="545.8982" x2="526.2634" y1="512.9987" y2="514.6271"/>
    <line x1="524.5852" x2="544.0782" y1="514.2337" y2="512.5977"/>
    <line x1="543.2152" x2="523.7888" y1="512.4134" y2="514.0527"/>
    <line x1="522.0597" x2="541.3434" y1="513.6718" y2="512.0257"/>
    <line x1="540.4566" x2="521.2399" y1="511.8477" y2="513.4967"/>
    <line x1="519.4616" x2="538.5348" y1="513.1284" y2="511.4734"/>
    <line x1="537.6251" x2="518.6192" y1="511.3017" y2="512.9593"/>
    <line x1="516.7935" x2="535.655" y1="512.6038" y2="510.9411"/>
    <line x1="534.7232" x2="515.9293" y1="510.7757" y2="512.4406"/>
    <line x1="514.0577" x2="532.7067" y1="512.098" y2="510.4288"/>
    <line x1="531.7536" x2="513.1724" y1="510.2699" y2="511.9409"/>
    <line x1="511.2568" x2="529.6925" y1="511.6114" y2="509.9369"/>
    <line x1="528.719" x2="510.3513" y1="509.7845" y2="511.4604"/>
    <line x1="508.3933" x2="526.6151" y1="511.144" y2="509.4655"/>
    <line x1="525.6221" x2="507.4684" y1="509.3197" y2="510.9993"/>
    <line x1="505.4698" x2="523.4774" y1="510.6962" y2="509.0148"/>
    <line x1="522.4657" x2="504.5264" y1="508.8757" y2="510.5577"/>
    <line x1="502.4889" x2="520.282" y1="510.2681" y2="508.5851"/>
    <line x1="519.2525" x2="501.5278" y1="508.4526" y2="510.1359"/>
    <line x1="499.4533" x2="517.0317" y1="509.8598" y2="508.1764"/>
    <line x1="515.9853" x2="498.4753" y1="508.0506" y2="509.734"/>
    <line x1="496.3655" x2="513.7293" y1="509.4715" y2="507.7889"/>
    <line x1="512.6669" x2="495.3714" y1="507.67" y2="509.3521"/>
    <line x1="493.2282" x2="510.3776" y1="509.1034" y2="507.4228"/>
    <line x1="509.3001" x2="492.219" y1="507.3107" y2="508.9905"/>
    <line x1="490.0441" x2="506.9794" y1="508.7557" y2="507.0783"/>
    <line x1="505.8876" x2="489.0205" y1="506.9731" y2="508.6492"/>
    <line x1="486.8158" x2="503.5375" y1="508.4283" y2="506.7554"/>
    <line x1="502.4324" x2="485.7787" y1="506.6571" y2="508.3284"/>
    <line x1="483.546" x2="500.0546" y1="508.1216" y2="506.4543"/>
    <line x1="498.9371" x2="482.4962" y1="506.363" y2="508.0283"/>
    <line x1="480.2373" x2="496.5336" y1="507.8356" y2="506.1752"/>
    <line x1="495.4045" x2="479.1756" y1="506.0909" y2="507.7489"/>
    <line x1="476.8923" x2="492.9772" y1="507.5704" y2="505.918"/>
    <line x1="491.8374" x2="475.8197" y1="505.8408" y2="507.4903"/>
    <line x1="473.5137" x2="489.3881" y1="507.3261" y2="505.6831"/>
    <line x1="488.2385" x2="472.4309" y1="505.6129" y2="507.2527"/>
    <line x1="470.1042" x2="485.7692" y1="507.1029" y2="505.4703"/>
    <line x1="484.6106" x2="469.012" y1="505.4072" y2="507.0362"/>
    <line x1="466.6661" x2="482.123" y1="506.9008" y2="505.2799"/>
    <line x1="480.9563" x2="465.5655" y1="505.2239" y2="506.8409"/>
    <line x1="466.1283" x2="451.5541" y1="504.7154" y2="506.2722"/>
    <line x1="452.6807" x2="467.3191" y1="506.305" y2="504.7427"/>
    <line x1="469.8617" x2="455.0857" y1="504.8087" y2="506.3823"/>
    <line x1="456.2071" x2="471.0477" y1="506.4219" y2="504.8432"/>
    <line x1="473.5792" x2="458.5998" y1="504.9246" y2="506.5138"/>
    <line x1="459.7151" x2="474.7596" y1="506.5602" y2="504.9662"/>
    <line x1="477.2783" x2="462.0939" y1="505.063" y2="506.6667"/>
    <line x1="463.2023" x2="478.4522" y1="506.7199" y2="505.1118"/>
    <line x1="463.5763" x2="449.1385" y1="504.6648" y2="506.2095"/>
    <line x1="448.0073" x2="462.3815" y1="506.1836" y2="504.6447"/>
    <line x1="459.8217" x2="445.5829" y1="504.6095" y2="506.1355"/>
    <line x1="444.4478" x2="458.6238" y1="506.1164" y2="504.5966"/>
    <line x1="456.058" x2="442.0161" y1="504.5769" y2="506.083"/>
    <line x1="440.878" x2="454.8576" y1="506.0708" y2="504.5713"/>
    <line x1="452.2874" x2="438.4405" y1="504.567" y2="506.052"/>
    <line x1="437.3001" x2="451.0853" y1="506.0467" y2="504.5686"/>
    <line x1="448.5123" x2="434.8584" y1="504.5797" y2="506.0426"/>
    <line x1="433.7164" x2="447.3092" y1="506.0441" y2="504.5885"/>
    <line x1="444.735" x2="431.2721" y1="504.6151" y2="506.0547"/>
    <line x1="430.1292" x2="443.5317" y1="506.0631" y2="504.6312"/>
    <line x1="440.9578" x2="427.6837" y1="504.6732" y2="506.0883"/>
    <line x1="426.5406" x2="439.755" y1="506.1036" y2="504.6964"/>
    <line x1="437.1828" x2="424.0953" y1="504.7539" y2="506.1435"/>
    <line x1="424.6981" x2="412.2136" y1="505.1834" y2="506.4805"/>
    <line x1="413.351" x2="425.8923" y1="506.4379" y2="505.1314"/>
    <line x1="428.4507" x2="415.7872" y1="505.0279" y2="506.3541"/>
    <line x1="416.927" x2="429.648" y1="506.3183" y2="504.9831"/>
    <line x1="432.2123" x2="419.3675" y1="504.8948" y2="506.2491"/>
    <line x1="420.509" x2="433.4121" y1="506.2202" y2="504.8572"/>
    <line x1="435.9811" x2="422.9526" y1="504.7843" y2="506.1656"/>
    <line x1="422.1471" x2="409.7831" y1="505.3023" y2="506.5789"/>
    <line x1="409.8169" x2="398.024" y1="506.0291" y2="507.1991"/>
    <line x1="398.8408" x2="387.5401" y1="506.8956" y2="507.9596"/>
    <line x1="388.0707" x2="377.2391" y1="507.9578" y2="508.9071"/>
    <line x1="377.544" x2="367.158" y1="509.2117" y2="510.038"/>
    <line x1="367.2931" x2="357.3292" y1="510.653" y2="511.3485"/>
    <line x1="357.3455" x2="347.7803" y1="512.2764" y2="512.8336"/>
    <line x1="348.7801" x2="358.3866" y1="512.6678" y2="512.0956"/>
    <line x1="358.3599" x2="368.3675" y1="511.201" y2="510.4913"/>
    <line x1="368.217" x2="378.6492" y1="509.9094" y2="509.0696"/>
    <line x1="378.323" x2="389.2033" y1="508.7977" y2="507.8358"/>
    <line x1="388.6453" x2="399.9972" y1="507.8699" y2="506.7943"/>
    <line x1="399.1461" x2="410.9928" y1="507.1294" y2="505.9487"/>
    <line x1="408.6486" x2="420.9566" y1="506.6282" y2="505.3614"/>
    <line x1="418.4142" x2="406.2252" y1="505.4955" y2="506.7412"/>
    <line x1="406.1379" x2="394.5115" y1="506.296" y2="507.4317"/>
    <line x1="395.226" x2="384.0842" y1="507.2281" y2="508.2548"/>
    <line x1="384.5331" x2="373.8526" y1="508.3546" y2="509.2639"/>
    <line x1="374.0949" x2="363.8523" y1="509.6716" y2="510.4551"/>
    <line x1="363.9423" x2="354.1139" y1="511.1742" y2="511.8244"/>
    <line x1="355.1346" x2="365.0059" y1="511.6707" y2="511.006"/>
    <line x1="364.9021" x2="375.1902" y1="510.3201" y2="509.5229"/>
    <line x1="374.9286" x2="385.6569" y1="509.148" y2="508.2259"/>
    <line x1="385.1828" x2="396.3748" y1="508.1585" y2="507.1198"/>
    <line x1="395.6285" x2="407.3077" y1="507.3553" y2="506.2086"/>
    <line x1="405.0942" x2="417.228" y1="506.7973" y2="505.5617"/>
    <line x1="414.6955" x2="402.6789" y1="505.711" y2="506.9247"/>
    <line x1="402.4787" x2="391.0164" y1="506.5849" y2="507.6852"/>
    <line x1="391.6355" x2="380.6501" y1="507.5822" y2="508.5707"/>
    <line x1="381.0238" x2="370.4919" y1="508.7727" y2="509.6409"/>
    <line x1="370.6776" x2="360.5756" y1="510.1521" y2="510.892"/>
    <line x1="360.6261" x2="350.9306" y1="511.7154" y2="512.3195"/>
    <line x1="351.941" x2="361.6786" y1="512.1597" y2="511.5409"/>
    <line x1="361.6161" x2="371.7626" y1="510.7507" y2="509.9968"/>
    <line x1="371.5595" x2="382.1385" y1="509.5186" y2="508.6372"/>
    <line x1="381.7415" x2="392.7764" y1="508.4678" y2="507.4671"/>
    <line x1="392.1277" x2="403.642" y1="507.6022" y2="506.4905"/>
    <line x1="401.5521" x2="413.5142" y1="506.9876" y2="505.7843"/>
    <line x1="355.1306" x2="345.6527" y1="512.67" y2="513.1948"/>
    <line x1="344.6637" x2="354.1011" y1="513.3666" y2="512.8571"/>
    <line x1="351.9114" x2="342.5595" y1="513.2639" y2="513.7405"/>
    <line x1="341.5815" x2="350.8938" y1="513.9182" y2="513.4571"/>
    <line x1="348.7297" x2="339.5012" y1="513.8769" y2="514.3046"/>
    <line x1="338.5346" x2="347.7242" y1="514.4882" y2="514.0762"/>
    <line x1="345.5861" x2="336.4786" y1="514.5089" y2="514.887"/>
    <line x1="335.5234" x2="344.5929" y1="515.0763" y2="514.7141"/>
    <line x1="342.4813" x2="333.4923" y1="515.1596" y2="515.4874"/>
    <line x1="332.5487" x2="341.5006" y1="515.6824" y2="515.3707"/>
    <line x1="339.4159" x2="330.5427" y1="515.8287" y2="516.1056"/>
    <line x1="329.611" x2="338.4477" y1="516.3062" y2="516.0457"/>
    <line x1="336.3902" x2="327.6305" y1="516.516" y2="516.7413"/>
    <line x1="326.7108" x2="335.4348" y1="516.9474" y2="516.7387"/>
    <line x1="333.4048" x2="324.7561" y1="517.2212" y2="517.3942"/>
    <line x1="323.8485" x2="332.4623" y1="517.6058" y2="517.4496"/>
    <line x1="330.46" x2="321.92" y1="517.944" y2="518.0641"/>
    <line x1="321.0247" x2="329.5306" y1="518.2811" y2="518.1779"/>
    <line x1="327.5563" x2="319.1225" y1="518.6842" y2="518.7508"/>
    <line x1="318.2395" x2="326.6401" y1="518.973" y2="518.9235"/>
    <line x1="324.694" x2="316.3639" y1="519.4413" y2="519.4539"/>
    <line x1="315.4935" x2="323.791" y1="519.6813" y2="519.686"/>
    <line x1="321.8733" x2="313.6447" y1="520.2152" y2="520.1733"/>
    <line x1="312.7868" x2="320.9836" y1="520.4057" y2="520.4652"/>
    <line x1="319.0944" x2="310.965" y1="521.0055" y2="520.9085"/>
    <line x1="310.1198" x2="318.2181" y1="521.1459" y2="521.2607"/>
    <line x1="315.0585" x2="304.9423" y1="520.78" y2="522.2068"/>
    <line x1="304.491" x2="314.5525" y1="521.445" y2="519.9943"/>
    <line x1="314.0161" x2="304.0103" y1="519.2251" y2="520.6986"/>
    <line x1="303.5007" x2="313.4496" y1="519.9678" y2="518.4727"/>
    <line x1="312.8537" x2="302.9626" y1="517.7375" y2="519.2531"/>
    <line x1="302.3965" x2="312.2289" y1="518.5546" y2="517.0196"/>
    <line x1="311.5758" x2="301.8029" y1="516.3195" y2="517.8726"/>
    <line x1="301.1824" x2="310.8949" y1="517.2075" y2="515.6373"/>
    <line x1="310.1868" x2="300.5355" y1="514.9733" y2="516.5594"/>
    <line x1="299.8629" x2="309.4522" y1="515.9287" y2="514.3279"/>
    <line x1="308.6917" x2="299.165" y1="513.7013" y2="515.3155"/>
    <line x1="298.4426" x2="307.9061" y1="514.7202" y2="513.0937"/>
    <line x1="307.0959" x2="297.6962" y1="512.5053" y2="514.143"/>
    <line x1="296.9265" x2="306.2619" y1="513.584" y2="511.9364"/>
    <line x1="305.4048" x2="296.1342" y1="511.3873" y2="513.0436"/>
    <line x1="295.32" x2="304.5253" y1="512.5219" y2="510.8581"/>
    <line x1="303.6242" x2="294.4844" y1="510.3491" y2="512.0192"/>
    <line x1="293.6284" x2="302.7022" y1="511.5356" y2="509.8604"/>
    <line x1="301.7601" x2="292.7525" y1="509.3923" y2="511.0714"/>
    <line x1="291.8575" x2="300.7987" y1="510.6267" y2="508.945"/>
    <line x1="299.8187" x2="290.9442" y1="508.5186" y2="510.2017"/>
    <line x1="290.0132" x2="298.821" y1="509.7966" y2="508.1132"/>
    <line x1="297.8063" x2="289.0654" y1="507.7292" y2="509.4116"/>
    <line x1="288.1015" x2="296.7755" y1="509.0467" y2="507.3665"/>
    <line x1="295.7293" x2="287.1222" y1="507.0254" y2="508.7022"/>
    <line x1="286.1283" x2="294.6686" y1="508.3781" y2="506.706"/>
    <line x1="293.5942" x2="285.1206" y1="506.4084" y2="508.0747"/>
    <line x1="284.0999" x2="292.5068" y1="507.792" y2="506.1327"/>
    <line x1="291.4073" x2="283.0669" y1="505.8791" y2="507.5301"/>
    <line x1="282.0224" x2="290.2966" y1="507.2892" y2="505.6477"/>
    <line x1="289.1754" x2="280.9672" y1="505.4385" y2="507.0693"/>
    <line x1="279.902" x2="288.0445" y1="506.8705" y2="505.2516"/>
    <line x1="286.9047" x2="278.8277" y1="505.0871" y2="506.693"/>
    <line x1="277.7449" x2="285.7569" y1="506.5368" y2="504.9451"/>
    <line x1="284.6018" x2="276.6545" y1="504.8256" y2="506.4019"/>
    <line x1="275.5571" x2="283.4402" y1="506.2883" y2="504.7287"/>
    <line x1="282.2729" x2="274.4536" y1="504.6544" y2="506.1963"/>
    <line x1="273.3447" x2="281.1007" y1="506.1257" y2="504.6028"/>
    <line x1="279.9243" x2="272.2311" y1="504.5738" y2="506.0766"/>
    <line x1="271.1135" x2="278.7445" y1="506.0491" y2="504.5675"/>
    <line x1="277.562" x2="269.9927" y1="504.5838" y2="506.0431"/>
    <line x1="270.4518" x2="263.2389" y1="505.1572" y2="506.4589"/>
    <line x1="263.4212" x2="256.5379" y1="506.5374" y2="507.6434"/>
    <line x1="256.6032" x2="250.0191" y1="508.7047" y2="509.5795"/>
    <line x1="248.9585" x2="255.4958" y1="509.9735" y2="509.1404"/>
    <line x1="254.3981" x2="247.9065" y1="509.597" y2="510.3874"/>
    <line x1="246.8636" x2="253.3104" y1="510.8211" y2="510.0742"/>
    <line x1="252.2333" x2="245.8303" y1="510.5719" y2="511.2745"/>
    <line x1="244.807" x2="251.1671" y1="511.7473" y2="511.0899"/>
    <line x1="250.1122" x2="243.7941" y1="511.6279" y2="512.2393"/>
    <line x1="242.792" x2="249.0692" y1="512.7505" y2="512.1858"/>
    <line x1="248.0383" x2="241.8011" y1="512.7633" y2="513.2805"/>
    <line x1="240.8218" x2="247.0199" y1="513.8291" y2="513.3602"/>
    <line x1="246.0145" x2="239.8544" y1="513.9763" y2="514.3962"/>
    <line x1="238.8992" x2="245.0223" y1="514.9815" y2="514.6113"/>
    <line x1="244.0437" x2="237.9566" y1="515.2649" y2="515.5847"/>
    <line x1="237.027" x2="243.0791" y1="516.2057" y2="515.937"/>
    <line x1="242.1287" x2="236.1106" y1="516.6271" y2="516.8441"/>
    <line x1="235.2077" x2="241.1928" y1="517.4998" y2="517.3352"/>
    <line x1="240.2718" x2="234.3186" y1="518.0608" y2="518.1724"/>
    <line x1="233.4436" x2="239.3658" y1="518.8617" y2="518.8036"/>
    <line x1="238.4752" x2="232.583" y1="519.5635" y2="519.5674"/>
    <line x1="231.7369" x2="237.6003" y1="520.2893" y2="520.34"/>
    <line x1="236.7412" x2="230.9057" y1="521.1329" y2="521.027"/>
    <line x1="230.0896" x2="235.8982" y1="521.7803" y2="521.9419"/>
    <line x1="235.0716" x2="229.2887" y1="522.7665" y2="522.5488"/>
    <line x1="228.5034" x2="234.2614" y1="523.3322" y2="523.6066"/>
    <line x1="233.4681" x2="227.7338" y1="524.4618" y2="524.1303"/>
    <line x1="226.9801" x2="232.6916" y1="524.9427" y2="525.3316"/>
    <line x1="231.9323" x2="226.2425" y1="526.2158" y2="525.769"/>
    <line x1="225.5212" x2="231.1903" y1="526.609" y2="527.1141"/>
    <line x1="230.4658" x2="224.8163" y1="528.026" y2="527.4624"/>
    <line x1="224.128" x2="229.759" y1="528.3287" y2="528.9512"/>
    <line x1="229.0699" x2="223.4565" y1="529.8893" y2="529.2076"/>
    <line x1="222.8018" x2="228.3988" y1="530.0988" y2="530.8399"/>
    <line x1="227.7458" x2="222.1643" y1="531.8028" y2="531.0019"/>
    <line x1="221.5439" x2="227.1111" y1="531.9166" y2="532.7774"/>
    <line x1="226.4947" x2="220.9409" y1="533.7634" y2="532.8425"/>
    <line x1="220.3554" x2="225.8968" y1="533.7792" y2="534.7604"/>
    <line x1="225.3176" x2="219.7874" y1="535.768" y2="534.7264"/>
    <line x1="219.2371" x2="224.7571" y1="535.6836" y2="536.7858"/>
    <line x1="224.2155" x2="218.7046" y1="537.8134" y2="536.6505"/>
    <line x1="218.1901" x2="223.6928" y1="537.6267" y2="538.8504"/>
    <line x1="223.1893" x2="217.6936" y1="539.8963" y2="538.6118"/>
    <line x1="217.2152" x2="222.7049" y1="539.6055" y2="540.9508"/>
    <line x1="222.2399" x2="216.7551" y1="542.0134" y2="540.6072"/>
    <line x1="216.3133" x2="221.7942" y1="541.6167" y2="543.0837"/>
    <line x1="221.3681" x2="215.89" y1="544.1612" y2="542.6335"/>
    <line x1="215.4851" x2="220.9616" y1="543.6572" y2="545.2456"/>
    <line x1="220.5748" x2="215.0989" y1="546.3364" y2="544.6873"/>
    <line x1="214.7315" x2="220.2078" y1="545.7236" y2="547.4332"/>
    <line x1="219.8606" x2="214.3828" y1="548.5355" y2="546.7656"/>
    <line x1="214.053" x2="219.5335" y1="547.8128" y2="549.6429"/>
    <line x1="219.2265" x2="213.7423" y1="550.755" y2="548.8648"/>
    <line x1="213.4506" x2="218.9397" y1="549.9212" y2="551.8712"/>
    <line x1="218.6731" x2="213.1781" y1="552.9912" y2="550.9817"/>
    <line x1="212.9249" x2="218.4269" y1="552.0457" y2="554.1146"/>
    <line x1="218.2013" x2="212.691" y1="555.2407" y2="553.1128"/>
    <line x1="212.4766" x2="217.9962" y1="554.1827" y2="556.3693"/>
    <line x1="217.8118" x2="212.2818" y1="557.4998" y2="555.2548"/>
    <line x1="212.1066" x2="217.6482" y1="556.3288" y2="558.6319"/>
    <line x1="217.5055" x2="211.9512" y1="559.765" y2="557.4043"/>
    <line x1="211.8157" x2="217.3838" y1="558.4807" y2="560.8987"/>
    <line x1="217.2833" x2="211.7001" y1="562.0325" y2="559.5577"/>
    <line x1="211.6045" x2="217.204" y1="560.6349" y2="563.166"/>
    <line x1="217.1461" x2="211.5292" y1="564.2988" y2="561.7117"/>
    <line x1="211.4742" x2="217.1096" y1="562.7878" y2="565.4303"/>
    <line x1="217.0948" x2="211.4396" y1="566.5602" y2="563.8628"/>
    <line x1="211.4255" x2="217.1017" y1="564.9362" y2="567.6879"/>
    <line x1="217.1305" x2="211.432" y1="568.8131" y2="566.0075"/>
    <line x1="211.4594" x2="217.1813" y1="567.0765" y2="569.9353"/>
    <line x1="217.2543" x2="211.5077" y1="571.054" y2="568.1425"/>
    <line x1="211.577" x2="217.3496" y1="569.2053" y2="572.1688"/>
    <line x1="217.4674" x2="211.6675" y1="573.2792" y2="570.2643"/>
    <line x1="211.7794" x2="217.6077" y1="571.3192" y2="574.3848"/>
    <line x1="217.7709" x2="211.9128" y1="575.4851" y2="572.3695"/>
    <line x1="212.0678" x2="217.957" y1="573.4149" y2="576.5798"/>
    <line x1="218.1663" x2="212.2446" y1="577.6683" y2="574.4548"/>
    <line x1="218.0755" x2="223.5194" y1="581.3912" y2="584.9163"/>
    <line x1="223.3416" x2="217.8987" y1="585.2441" y2="581.7053"/>
    <line x1="217.5288" x2="222.9703" y1="582.3745" y2="585.942"/>
    <line x1="222.8009" x2="217.36" y1="586.2666" y2="582.6859"/>
    <line x1="217.0072" x2="222.4473" y1="583.3488" y2="586.9577"/>
    <line x1="222.2862" x2="216.8463" y1="587.2791" y2="583.6573"/>
    <line x1="216.1324" x2="222.5518" y1="586.3636" y2="590.0973"/>
    <line x1="222.7172" x2="216.2817" y1="590.4077" y2="586.6619"/>
    <line x1="216.6096" x2="223.08" y1="587.2964" y2="591.0677"/>
    <line x1="223.2538" x2="216.7668" y1="591.3743" y2="587.5913"/>
    <line x1="217.1114" x2="223.6344" y1="588.2183" y2="592.0262"/>
    <line x1="223.8166" x2="217.2765" y1="592.3289" y2="588.5096"/>
    <line x1="217.6382" x2="224.2153" y1="589.1288" y2="592.9723"/>
    <line x1="224.4059" x2="217.8112" y1="593.271" y2="589.4164"/>
    <line x1="218.19" x2="224.8229" y1="590.0277" y2="593.9058"/>
    <line x1="225.022" x2="218.3711" y1="594.2004" y2="590.3115"/>
    <line x1="218.7672" x2="225.4574" y1="590.9145" y2="594.8262"/>
    <line x1="225.6652" x2="218.9564" y1="595.1166" y2="591.1944"/>
    <line x1="219.37" x2="226.1192" y1="591.7889" y2="595.7332"/>
    <line x1="226.3358" x2="219.5674" y1="596.0192" y2="592.0647"/>
    <line x1="220.0945" x2="214.644" y1="592.1777" y2="588.3641"/>
    <line x1="214.7665" x2="220.2155" y1="588.0722" y2="591.8743"/>
    <line x1="220.4827" x2="215.0364" y1="591.2212" y2="587.444"/>
    <line x1="215.1664" x2="220.6116" y1="587.1486" y2="590.9139"/>
    <line x1="220.8958" x2="215.4526" y1="590.2527" y2="586.5129"/>
    <line x1="215.5902" x2="221.0326" y1="586.2141" y2="589.9417"/>
    <line x1="219.9987" x2="226.8085" y1="592.6505" y2="596.6264"/>
    <line x1="227.0339" x2="220.2044" y1="596.9079" y2="592.9222"/>
    <line x1="219.8441" x2="214.3902" y1="592.8225" y2="588.9846"/>
    <line x1="214.2752" x2="219.7309" y1="589.2728" y2="593.1218"/>
    <line x1="219.4971" x2="214.0373" y1="593.758" y2="589.8853"/>
    <line x1="213.9298" x2="219.3917" y1="590.1697" y2="594.0533"/>
    <line x1="219.1743" x2="213.7077" y1="594.6805" y2="590.7741"/>
    <line x1="213.6075" x2="219.0766" y1="591.0546" y2="594.9716"/>
    <line x1="218.8756" x2="213.4011" y1="595.5896" y2="591.6505"/>
    <line x1="213.3082" x2="218.7855" y1="591.927" y2="595.8764"/>
    <line x1="218.6008" x2="213.1173" y1="596.4851" y2="592.5141"/>
    <line x1="213.0317" x2="218.5182" y1="592.7865" y2="596.7673"/>
    <line x1="218.3495" x2="212.8562" y1="597.3664" y2="593.3648"/>
    <line x1="212.7777" x2="218.2744" y1="593.633" y2="597.6441"/>
    <line x1="218.1218" x2="212.6175" y1="598.2333" y2="594.2021"/>
    <line x1="212.5461" x2="218.0541" y1="594.4659" y2="598.5063"/>
    <line x1="217.9172" x2="212.4011" y1="599.0854" y2="595.0256"/>
    <line x1="212.3368" x2="217.8569" y1="595.285" y2="599.3536"/>
    <line x1="217.7358" x2="212.2068" y1="599.9223" y2="595.8351"/>
    <line x1="212.1495" x2="217.6828" y1="596.0899" y2="600.1857"/>
    <line x1="217.5773" x2="212.0344" y1="600.7438" y2="596.6302"/>
    <line x1="211.9841" x2="217.5316" y1="596.8804" y2="601.0022"/>
    <line x1="217.4415" x2="211.8839" y1="601.5495" y2="597.4106"/>
    <line x1="211.8404" x2="217.4031" y1="597.6561" y2="601.8028"/>
    <line x1="217.3284" x2="211.7549" y1="602.3391" y2="598.176"/>
    <line x1="211.7183" x2="217.297" y1="598.4167" y2="602.5872"/>
    <line x1="217.2376" x2="211.6474" y1="603.1123" y2="598.9262"/>
    <line x1="211.6176" x2="217.2134" y1="599.1618" y2="603.3551"/>
    <line x1="217.1692" x2="211.5612" y1="603.8687" y2="599.6607"/>
    <line x1="211.5382" x2="217.152" y1="599.8913" y2="604.1061"/>
    <line x1="217.1229" x2="211.4961" y1="604.6081" y2="600.3793"/>
    <line x1="211.4799" x2="217.1127" y1="600.6048" y2="604.84"/>
    <line x1="217.0985" x2="211.4521" y1="605.3301" y2="601.0817"/>
    <line x1="211.4425" x2="217.0954" y1="601.302" y2="605.5564"/>
    <line x1="217.096" x2="211.429" y1="606.0345" y2="601.7676"/>
    <line x1="211.426" x2="217.0998" y1="601.9826" y2="606.2552"/>
    <line x1="217.1153" x2="211.4267" y1="606.721" y2="602.4368"/>
    <line x1="211.4303" x2="217.126" y1="602.6464" y2="606.9359"/>
    <line x1="217.1561" x2="211.4449" y1="607.3894" y2="603.089"/>
    <line x1="211.4551" x2="217.1736" y1="603.2931" y2="607.5984"/>
    <line x1="217.2184" x2="211.4837" y1="608.0392" y2="603.7239"/>
    <line x1="211.5004" x2="217.2427" y1="603.9224" y2="608.2423"/>
    <line x1="217.302" x2="211.5429" y1="608.6704" y2="604.3413"/>
    <line x1="211.566" x2="217.3331" y1="604.5342" y2="608.8675"/>
    <line x1="217.4069" x2="211.6224" y1="609.2826" y2="604.9409"/>
    <line x1="211.6519" x2="217.4447" y1="605.1281" y2="609.4736"/>
    <polyline points="217.5329,609.8756 211.722,605.5224 217.5774,610.0604"/>
    <polygon points="217.9055,611.1752 212.0056,606.7154"/>
    <polygon points="216.0417,612.2512 222.4803,616.6597"/>
    <polygon points="219.3843,614.0341 213.275,609.5665"/>
    <polygon points="219.7018,614.4378 213.5545,609.9732"/>
    <polygon points="220.0394,614.8201 213.8531,610.3599"/>
    <polygon points="220.3969,615.1811 214.1708,610.7264"/>
    <polygon points="220.7743,615.5205 214.5074,611.0725"/>
    <polygon points="221.1714,615.8382 214.8629,611.3982"/>
    <polygon points="221.5882,616.134 215.2372,611.7033"/>
    <polygon points="222.0245,616.4079 215.6301,611.9877"/>
    <polygon points="222.9554,616.8894 216.4718,612.4938"/>
    <polygon points="223.4498,617.0969 216.9202,612.7153"/>
    <polygon points="223.9634,617.282 217.387,612.9158"/>
    <polygon points="224.4959,617.4446 217.8719,613.095"/>
    <polygon points="225.0474,617.5849 218.375,613.2529"/>
    <polygon points="225.6177,617.7025 218.8961,613.3896"/>
    <polyline points="226.0171,617.7698 219.3477,613.4881 226.2067,617.7977"/>
    <polyline points="226.6187,617.8495 219.9016,613.5853 226.8142,617.8702"/>
    <polyline points="227.2389,617.9066 220.4732,613.661 227.4402,617.92"/>
    <line x1="227.8773" x2="221.0623" y1="617.941" y2="613.7152"/>
    <line x1="221.2537" x2="228.0845" y1="613.728" y2="617.9472"/>
    <line x1="228.534" x2="221.6689" y1="617.9527" y2="613.7479"/>
    <line x1="221.8657" x2="228.747" y1="613.7538" y2="617.9517"/>
    <line x1="229.2088" x2="222.2928" y1="617.9418" y2="613.7591"/>
    <line x1="222.4951" x2="229.4275" y1="613.7581" y2="617.9335"/>
    <line x1="229.9015" x2="222.9338" y1="617.9082" y2="613.7487"/>
    <line x1="223.1416" x2="230.1259" y1="613.7409" y2="617.8927"/>
    <line x1="230.612" x2="223.5919" y1="617.8519" y2="613.7168"/>
    <line x1="223.805" x2="230.842" y1="613.7021" y2="617.8292"/>
    <line x1="231.3401" x2="224.2668" y1="617.773" y2="613.6633"/>
    <line x1="224.4853" x2="231.5756" y1="613.6418" y2="617.7431"/>
    <line x1="232.3267" x2="225.1823" y1="617.6344" y2="613.56"/>
    <line x1="225.8958" x2="233.095" y1="613.4567" y2="617.5032"/>
    <line x1="233.8803" x2="226.6257" y1="617.3494" y2="613.332"/>
    <line x1="227.3717" x2="234.6824" y1="613.1859" y2="617.1732"/>
    <line x1="235.5012" x2="228.1337" y1="616.9747" y2="613.0186"/>
    <line x1="228.9116" x2="236.3364" y1="612.8299" y2="616.7539"/>
    <line x1="237.1878" x2="229.705" y1="616.5108" y2="612.6202"/>
    <line x1="230.5139" x2="238.0552" y1="612.3893" y2="616.2457"/>
    <line x1="238.9384" x2="231.3379" y1="615.9586" y2="612.1374"/>
    <line x1="232.1769" x2="239.837" y1="611.8646" y2="615.6496"/>
    <line x1="240.7509" x2="233.0306" y1="615.3188" y2="611.5711"/>
    <line x1="233.8988" x2="241.6797" y1="611.2569" y2="614.9664"/>
    <line x1="242.6232" x2="234.7811" y1="614.5926" y2="610.9221"/>
    <line x1="235.6775" x2="243.5811" y1="610.5669" y2="614.1974"/>
    <line x1="244.553" x2="236.5875" y1="613.781" y2="610.1915"/>
    <line x1="237.5108" x2="245.5388" y1="609.796" y2="613.3436"/>
    <line x1="246.5379" x2="238.4473" y1="612.8854" y2="609.3804"/>
    <line x1="239.3964" x2="247.5501" y1="608.9451" y2="612.4066"/>
    <line x1="248.2157" x2="239.7139" y1="611.6201" y2="607.2389"/>
    <line x1="239.5265" x2="231.6827" y1="607.4941" y2="603.1913"/>
    <line x1="232.0147" x2="239.8864" y1="603.3945" y2="607.7022"/>
    <polyline points="240.1169,607.4015 248.651,611.785 240.358,608.4902"/>
    <line x1="240.6674" x2="232.7356" y1="608.141" y2="603.8234"/>
    <line x1="233.0775" x2="241.0377" y1="604.0211" y2="608.3431"/>
    <line x1="240.9903" x2="249.5944" y1="607.7431" y2="612.1307"/>
    <polyline points="250.041,612.2891 241.3317,608.0159 249.6124,611.3877"/>
    <line x1="249.8405" x2="259.1406" y1="610.4791" y2="614.8791"/>
    <line x1="258.624" x2="249.3612" y1="614.7607" y2="610.3602"/>
    <line x1="248.3476" x2="257.5317" y1="610.0988" y2="614.5001"/>
    <line x1="257.0271" x2="247.8795" y1="614.3749" y2="609.9735"/>
    <line x1="246.8899" x2="255.9602" y1="609.6985" y2="614.0998"/>
    <line x1="255.4674" x2="246.4329" y1="613.9679" y2="609.5668"/>
    <line x1="245.467" x2="254.4257" y1="609.2782" y2="613.6784"/>
    <line x1="253.9447" x2="245.021" y1="613.5398" y2="609.1402"/>
    <line x1="244.0786" x2="252.928" y1="608.8382" y2="613.2361"/>
    <line x1="252.4585" x2="243.6435" y1="613.0908" y2="608.694"/>
    <line x1="243.4396" x2="235.2963" y1="609.5683" y2="605.221"/>
    <line x1="235.6038" x2="228.0668" y1="604.9553" y2="600.7169"/>
    <line x1="227.7729" x2="235.2845" y1="600.4922" y2="604.7243"/>
    <line x1="234.9345" x2="243.0481" y1="605.0347" y2="609.3783"/>
    <line x1="242.2219" x2="234.1712" y1="608.9653" y2="604.63"/>
    <line x1="233.8194" x2="241.8411" y1="604.4379" y2="608.7692"/>
    <line x1="242.3001" x2="251.0085" y1="608.2282" y2="612.621"/>
    <line x1="251.4665" x2="242.7244" y1="612.7729" y2="608.3787"/>
    <line x1="244.2887" x2="236.0811" y1="609.9682" y2="605.6134"/>
    <line x1="236.2975" x2="228.7057" y1="605.4435" y2="601.192"/>
    <line x1="229.009" x2="236.6268" y1="601.4115" y2="605.6689"/>
    <line x1="236.453" x2="244.6909" y1="605.7939" y2="610.152"/>
    <line x1="245.5632" x2="229.6681" y1="610.5386" y2="601.8753"/>
    <line x1="229.9808" x2="245.9764" y1="602.0895" y2="610.7162"/>
    <line x1="246.8721" x2="230.6603" y1="611.0893" y2="602.5418"/>
    <polyline points="230.9826,602.7505 238.7677,607.0426 247.2963,611.2606"/>
    <line x1="234.612" x2="227.154" y1="604.2241" y2="600.006"/>
    <line x1="226.8693" x2="234.3026" y1="599.7762" y2="603.9876"/>
    <line x1="233.6511" x2="226.2701" y1="603.4758" y2="599.2791"/>
    <line x1="225.9945" x2="233.3514" y1="599.0442" y2="603.2339"/>
    <line x1="232.7207" x2="225.4148" y1="602.7106" y2="598.5364"/>
    <line x1="225.1484" x2="232.4306" y1="598.2965" y2="602.4634"/>
    <line x1="231.8204" x2="224.5879" y1="601.9288" y2="597.7782"/>
    <line x1="224.3304" x2="231.5399" y1="597.5335" y2="601.6764"/>
    <line x1="230.95" x2="223.789" y1="601.1308" y2="597.0049"/>
    <line x1="223.5404" x2="230.6789" y1="596.7555" y2="600.8732"/>
    <line x1="230.109" x2="223.0179" y1="600.3168" y2="596.2168"/>
    <line x1="222.778" x2="229.8473" y1="595.9627" y2="600.0542"/>
    <line x1="229.2973" x2="222.2741" y1="599.4872" y2="595.4141"/>
    <line x1="222.0429" x2="229.0448" y1="595.1555" y2="599.2197"/>
    <line x1="228.5144" x2="221.5575" y1="598.6423" y2="594.5973"/>
    <line x1="221.3349" x2="228.271" y1="594.3341" y2="598.37"/>
    <line x1="227.7601" x2="220.8677" y1="597.7824" y2="593.7665"/>
    <line x1="220.6535" x2="227.5257" y1="593.499" y2="597.5054"/>
    <polygon points="211.8628,606.1736 217.731,610.6277"/>
    <polygon points="212.1682,607.2386 218.1007,611.7028"/>
    <polygon points="212.3505,607.7429 218.3166,612.2102"/>
    <polygon points="212.5524,608.228 218.5529,612.6972"/>
    <polygon points="212.7739,608.6937 218.8098,613.1637"/>
    <polygon points="213.0148,609.14 219.0869,613.6094"/>
    <line x1="251.088" x2="257.7197" y1="509.2057" y2="508.29"/>
    <line x1="257.6454" x2="264.5816" y1="507.3932" y2="506.252"/>
    <line x1="264.3646" x2="271.6352" y1="506.3359" y2="505.0052"/>
    <line x1="272.8201" x2="265.4911" y1="504.8757" y2="506.2344"/>
    <line x1="265.7473" x2="258.7574" y1="505.9886" y2="507.164"/>
    <line x1="258.8448" x2="252.1645" y1="507.8965" y2="508.8521"/>
    <line x1="253.2483" x2="259.978" y1="508.519" y2="507.5244"/>
    <line x1="259.8733" x2="266.9178" y1="506.9559" y2="505.7474"/>
    <line x1="266.6179" x2="274.006" y1="506.1543" y2="504.7688"/>
    <line x1="275.1921" x2="267.7442" y1="504.6845" y2="506.0957"/>
    <line x1="268.0925" x2="260.9926" y1="505.5283" y2="506.769"/>
    <line x1="261.1189" x2="254.3389" y1="507.1737" y2="508.2064"/>
    <line x1="255.4356" x2="262.2668" y1="507.9145" y2="506.8447"/>
    <line x1="262.1147" x2="269.2707" y1="506.6033" y2="505.3316"/>
    <line x1="268.8694" x2="276.3776" y1="506.0586" y2="504.6228"/>
  </g>
</svg>
