<?xml version="1.0" encoding="utf-8" ?>
<svg xmlns="http://www.w3.org/2000/svg" xmlns:cc="http://creativecommons.org/ns#" xmlns:dc="http://purl.org/dc/elements/1.1/" xmlns:ev="http://www.w3.org/2001/xml-events" xmlns:inkscape="http://www.inkscape.org/namespaces/inkscape" xmlns:rdf="http://www.w3.org/1999/02/22-rdf-syntax-ns#" xmlns:sodipodi="http://sodipodi.sourceforge.net/DTD/sodipodi-0.dtd" xmlns:xlink="http://www.w3.org/1999/xlink" baseProfile="tiny" height="29.7cm" version="1.2" viewBox="0 0 793.7007874015749 1122.5196850393702" width="21.0cm">
  <metadata>
    <rdf:RDF>
      <cc:Work>
        <dc:format>image/svg+xml</dc:format>
        <dc:source/>
        <dc:date>2021-11-14T21:35:55.473559</dc:date>
      </cc:Work>
    </rdf:RDF>
  </metadata>
  <defs/>
  <g fill="none" id="layer1" inkscape:groupmode="layer" inkscape:label="1" stroke="#00f" style="display:inline">
    <polyline points="114.2055,1025.2662 109.9173,1024.7387 108.0225,1024.8183 104.8174,1025.5925 103.547,1026.242 101.7494,1027.924 100.9797,1029.8766 101.1911,1031.7586 102.2759,1033.232 103.1047,1033.7298 105.2291,1034.1416 106.4771,1034.037 109.2243,1033.2062 113.6109,1030.5839 117.7498,1026.8867 121.9927,1021.532 124.3849,1017.0011 124.7904,1015.3881 124.3692,1013.9494 123.435,1013.7513 122.0394,1014.2985 120.2556,1015.6745 118.1691,1017.8904 114.6804,1022.7883 108.0728,1034.4666 104.7725,1039.4553 100.9326,1043.7142 98.8392,1045.3409 96.6701,1046.5259 94.4674,1047.2137 92.28,1047.3767 90.1603,1047.0164 88.16,1046.1578 86.3284,1044.8472 84.713,1043.1489 83.3596,1041.1407 81.6107,1036.5393 81.2867,1034.1154 81.358,1031.7076 81.8276,1029.3755 82.6817,1027.1675 85.3914,1023.274 89.0211,1020.2624 90.9989,1019.1357 94.9351,1017.6856 98.5047,1017.2905 100.0762,1017.459 102.7488,1018.4425 104.8036,1020.1992 106.2362,1022.703 106.9611,1026.0019 106.8631,1030.1174 105.902,1034.9082 104.1305,1040.0152 101.6662,1044.8443 98.6677,1048.5988 97.0294,1049.8249 95.3397,1050.5205 93.6364,1050.6512 91.9639,1050.2146 90.3717,1049.2338 88.9128,1047.755 87.6387,1045.8444 85.8251,1041.0592 85.1941,1035.5949 85.8202,1030.133 87.6482,1025.204 90.5115,1021.1541 92.2419,1019.523 96.0709,1017.0868 98.0761,1016.2678 102.0593,1015.3778 105.7912,1015.4574 109.0391,1016.521 111.5722,1018.5915 112.514,1019.9974 113.6804,1023.4704 113.8867,1025.481 113.5186,1029.8586 112.9386,1032.1362 110.9896,1036.6198 109.6422,1038.7044 106.3138,1042.2173 104.3952,1043.5114 102.3557,1044.4218 100.2362,1044.9124 98.0821,1044.9685 95.9439,1044.5956 93.8783,1043.8144 91.9482,1042.6582 90.2202,1041.1702 88.7607,1039.4009 87.6287,1037.4064 86.8714,1035.2446 86.5193,1032.9718 86.5838,1030.6399 87.0596,1028.2939 87.9291,1025.9694 90.7419,1021.465 94.7541,1017.1798 102.2965,1011.0329 110.6139,1005.3308 118.9839,1000.6566 124.5571,998.4131 127.3027,997.6035 132.4945,996.6555 136.7997,996.6207 138.4115,996.9431 139.5646,997.4847 140.2119,998.2341 140.3371,999.1737 139.0886,1001.5265 134.1221,1005.7828 124.6231,1011.4251 112.7338,1017.2424"/>
    <polyline points="226.1196,1017.2424 220.802,1011.0436 214.1497,1002.417 207.763,993.3259 204.7423,988.1414 213.8272,998.1656 220.7325,1005.0039 228.2094,1010.882 233.3969,1013.782 236.0112,1014.8678 241.1029,1016.2704 245.6693,1016.6352 249.2474,1015.9645 250.5318,1015.2466 251.4259,1014.2821 251.9062,1013.0823 251.9629,1011.6664 250.8364,1008.3072 248.2678,1004.503 244.6886,1000.5895 240.6064,996.9023 236.4745,993.7732 232.6136,991.5088 229.2145,990.3283 227.7217,990.1725 225.1704,990.7109 223.1816,992.2766 221.1615,996.1253 220.3929,999.3503 220.0628,1004.5164 220.3839,1007.7914 221.5377,1012.0461 224.5556,1018.2677 225.7812,1020.1738 226.7002,1021.0284 227.8315,1020.8347 229.2718,1019.5875 230.3495,1018.0551 231.6155,1015.1867 233.5142,1008.3403 234.5784,998.3902 235.0489,997.1707 235.5648,997.6149 236.6996,1000.0422 238.7587,1006.6124 239.4487,1011.886 239.2075,1016.8918 238.795,1018.0524 237.8923,1018.5861 237.2655,1017.9564 236.7657,1016.3783 236.3759,1012.1773 235.9412,995.0129 235.6406,991.8105 235.0867,989.9797 234.7699,991.0418 234.5579,995.5764 235.0706,1009.0552 235.9912,1014.9708 237.8658,1019.2495 239.7644,1021.2315 243.4789,1023.0113 247.6189,1023.3136 250.089,1022.5726 251.9098,1020.9811 252.7747,1018.5114 252.7931,1016.9571 251.9931,1013.2439"/>
    <polyline points="339.5055,1017.2424 345.8903,1020.2404 350.665,1022.8803 355.9989,1026.2711 361.2654,1030.2639 365.7194,1034.5561 368.5989,1038.6716 369.2561,1040.486 369.3303,1042.0431 368.8083,1043.2793 367.7086,1044.1419 366.0829,1044.5942 364.0075,1044.6167 361.5739,1044.207 356.0103,1042.1715 353.0502,1040.625 347.0963,1036.718 338.5935,1029.4434 333.2801,1024.0308 328.2492,1018.357 321.5914,1009.3175 318.239,1002.9809 317.037,999.8381 315.7723,993.9811 315.7543,991.4423 316.155,989.2767 316.9668,987.5557 318.1687,986.3337 319.7267,985.6456 321.5952,985.5059 323.7188,985.9096 328.4817,988.2259 330.9988,990.0286 336.0582,994.5569 350.2475,1009.9101 359.2858,1018.7871 361.4635,1021.8261 361.4367,1022.4281 360.2469,1022.9104 357.7789,1022.3195 356.2032,1021.5972 352.674,1019.3108 348.9762,1015.9525 345.3961,1011.5857 342.1399,1006.3819 338.1846,997.851 335.6175,990.1916 334.8196,986.635 334.8601,984.9411 335.2269,984.8755 335.8424,985.3256 341.1375,991.1292 345.6627,995.1896 351.2831,999.1023 354.3709,1000.833 360.6876,1003.5997 366.4892,1005.2577 370.8503,1005.7174 372.2229,1005.4951 372.9549,1004.9805 373.0101,1004.19 372.3892,1003.1489 369.3364,1000.4816 364.5871,997.42 359.154,994.5068 353.8565,992.2805 351.4221,991.572 347.1487,991.1679 345.3415,991.5103 343.7638,992.2136 341.2967,994.5908 339.7011,997.9474 338.6403,1003.8173 338.5762,1009.4875 339.3215,1024.2135 338.8849,1029.3923 338.5174,1030.8222 337.9775,1031.6632 337.1802,1031.8436 335.2726,1031.0 324.9196,1024.2088 321.7493,1021.6572 320.2263,1019.2391 320.3203,1017.6188 321.9527,1014.9425 328.7379,1007.3745 337.7552,996.5877 341.5109,993.05 343.5898,991.4973 348.1116,989.091 350.5038,988.3284"/>
    <polyline points="339.5055,903.8566 344.1627,905.6426 351.2793,908.9744 359.466,913.6176 364.3337,916.9963 367.7938,920.2425 368.7683,921.714 369.1505,923.0266 368.9053,924.1363 368.0274,925.0009 366.5504,925.5815 364.5441,925.844 359.3348,925.3156 353.2193,923.3508 346.8399,920.1579 316.2818,900.2858 312.0519,896.9439 310.5933,895.3976 309.6566,893.9637 309.2841,892.6696 309.4978,891.5423 310.2972,890.606 311.6516,889.8786 313.5041,889.3753 318.3907,889.0869 321.2458,889.3137 327.3317,890.4912 333.4231,892.5281 339.1462,895.2378 344.3575,898.4145 348.9335,901.8805 352.5873,905.5225 354.9916,909.2933 355.6545,911.206 355.8698,914.9737 354.6911,918.408 352.3246,921.1528 349.0129,922.873 347.0791,923.2585 342.8043,922.9613 340.5207,922.2627 335.7741,919.8256 333.3488,918.1441 328.5518,914.0344 324.144,909.1444 322.2303,906.4637 319.2855,900.6705 318.3637,897.554 317.8678,894.3052 317.828,890.9549 318.2652,887.5535 319.1877,884.171 320.5856,880.8936 322.4325,877.8189 324.6875,875.05 327.3006,872.6878 330.2167,870.8255 333.3827,869.5414 336.7528,868.8918 340.295,868.9053 343.994,869.5797 347.8251,870.8747 355.6853,874.9877 359.5679,877.5848 366.7334,883.2809 372.2767,889.0039 374.1308,891.6974 375.2378,894.2152 375.5325,896.528 374.9869,898.6201 373.6177,900.4879 371.5,902.1384 368.7553,903.5886 365.5323,904.8627 358.2564,906.9872 339.7671,910.6868 310.8139,914.7677 335.6886,915.6076 340.2844,915.4306 340.4709,915.1194 339.6704,914.5977 335.1245,912.9176 314.6014,907.2613 312.1066,906.2407 311.3222,905.3609 311.6439,904.9763 313.6754,904.303 329.6135,901.417 340.2895,898.158 345.6728,895.9787 353.7084,892.1682 360.7696,888.2428 365.3041,885.1044"/>
    <polyline points="452.8913,903.8566 455.324,892.1442 457.3037,885.4711 458.9134,881.3897 460.7312,878.0909 462.6981,875.8925 464.6967,875.0323 465.6639,875.1473 466.5875,875.6265 468.2404,877.5808 470.0097,882.2333 470.6467,887.4535 470.3844,890.5084 469.6284,892.7967 468.4933,894.0211 467.8223,894.1819 467.0991,894.0389 465.5247,892.8704 462.9153,889.1749 456.9078,877.6296 455.4553,875.8415 454.8196,875.4096 453.793,875.4823 452.9348,877.7023 452.9185,881.6091 453.776,885.8753 455.3971,889.4302 456.802,891.1837 458.4153,892.4641 461.0257,893.717 465.1613,894.9844 465.5325,895.5924 456.6816,902.4355 449.2412,909.5877 442.7094,916.8764 428.0223,934.483 432.3508,929.1509 441.6217,918.825 454.4118,905.4767 464.2657,897.153 476.8959,888.6536 468.8802,894.75 453.9696,904.9867 445.8237,912.3099 443.0316,915.8779 441.6174,919.2361 441.4217,920.8883 441.717,923.3055 442.2672,924.6424 443.1029,925.4931 444.2084,925.711 445.492,925.2606 446.8031,924.181 448.0267,922.5731 452.3786,913.6777 453.3543,910.688 453.5329,908.9931"/>
    <polyline points="452.8913,1017.2424 485.0346,1020.3838 489.4885,1021.1244 485.2547,1021.1711 479.662,1020.7781 469.8904,1019.2728 463.7907,1017.5793 461.0588,1016.5189 456.3359,1013.9718 454.3461,1012.4956 451.0497,1009.1983 447.5308,1003.7077 445.9818,1000.0172 445.034,996.6544 444.8292,993.0741 445.5468,992.1323 446.1539,992.1564 447.8247,993.1786 457.4316,1002.8313 462.6096,1006.3186 465.9351,1007.6144 467.4452,1007.9291 469.9644,1007.8926 471.6007,1006.9756 472.1774,1005.2224 471.5888,1002.7825 469.7842,999.9561 466.7982,997.1662 464.9077,995.9304 460.4957,994.0459 458.0536,993.4926 452.8793,993.3648 447.4689,994.7132 442.0077,997.5676 436.8562,1001.7417 432.4987,1006.9302 430.769,1009.8135 429.4041,1012.8572 428.4375,1016.0532 427.8894,1019.4067 427.7677,1022.9287 428.0694,1026.6074 428.7805,1030.4042 431.2872,1038.0819 434.8643,1045.2283 438.999,1050.895 441.1332,1052.8715 443.2597,1054.1395 445.3545,1054.6273 447.4022,1054.2975 449.3913,1053.1534 451.3116,1051.255 454.9126,1045.6661 459.5975,1034.9848 463.0721,1024.3725 464.4434,1018.1289 464.7765,1015.3017 464.6625,1010.2281 463.4776,1006.0195 461.2538,1002.8546 459.785,1001.7241 458.1044,1000.9229 454.1938,1000.3538 449.6654,1001.1419 444.6548,1003.1296 439.4293,1006.0445 434.4149,1009.5848 430.1225,1013.5067 427.022,1017.6828 426.0279,1019.864 425.437,1022.1125 425.2539,1024.4231 426.0484,1029.1592 428.1381,1033.8423 431.0856,1038.1407 434.4057,1041.6398 436.0645,1042.9514 439.1527,1044.4857 440.5183,1044.6625 441.7396,1044.4411 443.7344,1042.8889 445.1786,1040.1463 446.1756,1036.6755 448.2627,1023.3045 449.0072,1021.8919 450.7853,1020.7372 452.4829,1020.502 455.8329,1020.8476 459.9788,1022.0446 462.8776,1023.3745 465.5708,1025.1258 467.8593,1027.1515 470.2122,1030.0977 470.9227,1031.9845 470.427,1032.208 469.2713,1031.413"/>
    <polyline points="563.0351,1018.8057 557.8776,1021.0393 553.8693,1023.171 549.8059,1025.8166 546.0931,1028.8362 543.147,1031.9396 541.3438,1034.7588 540.9569,1035.9557 541.2464,1037.7931 541.8816,1038.4161 543.9337,1039.0868 548.1678,1038.7846 552.4723,1037.1604 555.719,1034.6388 557.4408,1031.8053 557.6645,1029.144 556.5426,1026.959 555.1754,1025.8917 553.493,1025.2077 549.9951,1025.0364 548.0683,1025.6985 547.4621,1026.5231 548.4158,1027.2915 559.4707,1031.7842 564.6842,1035.1489 566.8634,1037.331 569.3086,1040.9417 570.5702,1044.1323 570.6563,1045.7043 569.6876,1044.6839 567.9157,1041.0807 558.653,1018.8582 558.1246,1016.8492 558.1152,1015.4038 558.6243,1014.5267 559.6122,1014.2037 561.7971,1014.7181 564.3504,1016.262 566.777,1018.6768 568.2598,1020.8522 570.3224,1025.0897 572.1587,1030.1851 573.5195,1035.0737 574.0984,1038.8866 573.9894,1039.1049 573.4228,1038.5545 568.1463,1029.6108 563.3565,1022.2366 544.7793,996.8905 541.3665,991.0618 541.0648,989.4658 542.4198,989.9189 545.2827,992.2342 562.3725,1008.0557 573.117,1016.9925 578.3582,1020.5896 583.2692,1023.4404 587.4424,1025.4582 591.6655,1027.0761 579.1063,1022.571 566.2771,1017.2424"/>
    <polyline points="677.2712,1025.111 676.2079,1023.5012 675.6446,1023.0852 674.5136,1022.9631 672.9506,1024.1692 670.4664,1027.4405 668.7867,1028.3647 667.3895,1027.826 666.7842,1025.7298 666.9811,1023.5063 667.716,1020.6686 671.3269,1010.4332 672.9607,1004.813 677.3582,984.0791 678.4072,981.0597 678.9103,982.564 679.3016,986.5417 679.562,1001.6981 678.811,1012.6285 677.5892,1018.498 675.4274,1023.6814 673.1943,1026.5437 672.0276,1027.2117 670.7687,1027.4901 665.626,1027.4297 663.1147,1027.9427 662.4022,1028.4635 662.2817,1029.1471 663.3768,1030.51 665.9199,1032.1088 668.3439,1033.0644 672.8355,1034.1222 677.9508,1034.8014 683.3939,1035.148 688.974,1035.0525 694.1019,1034.4197 696.8452,1033.6421 698.7702,1032.5537 699.3674,1031.9078 699.7496,1030.5 699.0103,1029.108 697.2212,1027.9297 694.6105,1027.0816 689.9157,1026.4252 678.2945,1026.4255 677.4787,1025.4427 678.0609,1023.4749 680.3543,1020.972 684.6569,1018.4684 691.1053,1016.0645 709.2798,1010.6965 712.0646,1009.2916 712.5665,1008.6218 712.4179,1007.9824 711.6159,1007.3819 710.185,1006.8296 705.6584,1005.9086 695.9331,1005.1481 684.7152,1005.2801 673.3209,1006.2098 658.6327,1008.3519 650.4653,1010.3105 647.9699,1011.5869 647.8026,1012.1966 648.3531,1012.789 651.4064,1013.9331 659.4523,1015.511 668.7487,1016.6607 679.6629,1017.2424"/>
    <polyline points="702.1859,916.2988 687.2782,913.752 677.216,910.851 671.4005,908.608 665.8855,905.98 661.2453,902.9737 659.0415,900.7683 657.7943,898.382 657.5652,897.1093 657.599,895.7819 658.4007,892.9798 660.0111,890.0271 662.1491,886.9918 671.1586,875.9039 666.6993,880.9235 663.0524,884.3746 659.2948,887.2991 654.6615,890.2344 660.9891,889.7159 667.9145,890.2897 671.3059,891.0417 675.3696,892.3864 677.7161,893.5832 678.3592,894.4607 677.922,894.8985 676.0184,895.4493 656.599,898.411 653.33,899.4639 653.4016,899.9866 654.5497,900.4693 658.9118,901.1234 663.3637,901.145 665.2749,900.5115 665.6126,899.6781 665.1311,898.5682 663.83,897.2823 653.1441,890.4252 651.765,889.0567 651.4176,888.1422 651.6634,887.9227 653.9676,888.4726 656.508,889.961 659.4357,892.2958 662.3296,895.2757 664.7745,898.6271 666.4234,902.0885 667.0338,905.4777 666.9073,907.1116 666.4868,908.6858 664.7964,911.5755 663.5646,912.8514 660.4854,915.003 656.9013,916.5763 653.3157,917.529 650.3593,917.8536 649.3211,917.7945 648.4362,917.2872 648.6481,916.8623 650.345,915.6993 659.8052,911.296 666.5673,908.5146 677.436,904.8571 679.6629,903.8566"/>
    <polyline points="580.9512,891.7616 581.8725,881.6087 582.2692,880.3981 583.0456,885.4401 583.7216,897.9257 583.6934,904.1628 583.21,908.1189 581.556,913.6666 579.8459,916.8324 577.6996,919.296 576.4772,920.2049 573.7639,921.3203 570.7244,921.5071 567.3635,920.834 563.6448,919.3905 559.5441,917.2938 545.8615,909.1066 539.9384,905.1067 537.5702,902.6979 537.0615,901.5817 537.0463,900.5264 537.5262,899.5324 538.4808,898.5995 539.8689,897.7307 543.6988,896.2059 550.9541,894.4871 565.0398,892.1835 568.8746,891.1862 572.34,889.7615 575.4589,887.8137 579.177,884.1901 581.0401,880.7731 580.9913,879.2776 580.5691,878.886 578.9766,878.93 576.5468,880.0967 573.5675,882.2573 570.352,885.142 561.3332,895.1005 557.0508,900.5466 555.5515,903.0992 555.6152,903.9567 557.2864,904.2552 563.2841,903.5324 569.6842,902.3025 578.0697,899.7851 584.8263,896.5848 580.5782,900.6806 576.8772,905.2857 573.2051,910.9883 571.207,915.1321 569.8126,919.3429 569.0681,925.0834 569.5071,927.8046 570.0069,928.6372 570.6878,929.0568 571.5399,929.0452 573.6957,927.7565 576.3163,924.9634 580.6868,918.8106 584.8784,911.747 587.082,907.2218 588.4967,903.1275 589.0023,899.5713 588.6282,896.6613 587.4547,894.5176 585.5676,893.2385 583.0922,892.8738 580.2365,893.3808 577.2733,894.6014 573.1667,897.195 569.0464,900.7465 566.2771,903.8566"/>
    <polyline points="566.2771,790.4708 574.8325,786.5441 586.2695,780.0347 590.1952,777.3333 592.8913,774.9905 593.8881,773.2885 593.6598,772.75 591.7339,772.3692 585.8124,773.4638 580.6763,775.1286 575.2549,777.3864 567.3082,781.5992 550.8065,792.0805 547.1666,794.6701 544.4705,797.1046 543.5561,798.2583 542.6905,800.351 543.1198,801.9689 544.7121,802.889 547.1954,802.9964 550.2126,802.326 554.9264,800.2484 558.9996,797.631 562.5838,794.4316 563.385,793.1765 563.382,792.2101 562.492,791.5104 560.7064,790.9978 552.8041,790.1658 540.7893,789.9067 537.9067,790.0791 536.2832,790.4972 536.0141,790.8224 536.1164,791.234 537.3699,792.3181 544.3088,796.3511 547.316,798.4264 549.9222,800.7354 551.8969,803.1713 553.0209,805.5252 553.1138,807.5401 552.1118,808.9973 550.1024,809.7709 545.702,809.544 542.3805,808.4247 540.7838,807.5848 538.0546,805.4262 537.0467,804.1508 535.984,801.3158 536.3505,798.2023 538.099,794.8937 540.8961,791.4827 547.4343,784.7108 550.1044,781.5404 551.9008,778.6733 552.4165,777.3955 552.6444,775.269 551.8352,773.9343 550.1607,773.676 547.9154,774.698 545.4396,777.0022 543.1013,780.3975 542.0997,782.419 540.6266,786.9412 540.0278,791.955 540.3766,797.4171 542.4756,806.1113 545.7704,813.9801 548.1532,817.621 549.297,818.7296 550.3654,819.295 551.3264,819.2869 552.1509,818.6949 552.8146,817.5352 553.5981,813.72 553.6024,808.4526 552.7917,802.4621 550.1697,793.3953 540.5516,771.5577 546.5374,783.4088 550.2426,791.5856"/>
    <polyline points="452.8913,790.4708 434.1535,786.8393 425.7537,784.9065 420.0398,782.9718 419.1193,782.3444 418.7753,781.7247 419.025,781.1135 421.2318,779.9259 427.7222,778.3211 435.5398,777.1999 440.2908,776.9738 444.1722,777.3586 445.7114,777.8085 447.8935,779.2154 448.807,781.2245 448.43,783.7309 445.6264,788.3355 430.67,805.3789 425.7938,811.6742 424.0864,814.7139 423.8437,815.7171 424.034,816.3306 424.6496,816.5423 427.0189,815.77 430.506,813.5583 436.5284,808.3951 440.2339,804.4203 443.1718,800.4911 445.0846,796.8567 445.6185,795.1987 445.8232,792.2626 445.4989,790.996 444.0404,788.8633 441.648,787.2724 436.9728,786.0089 432.2185,786.1969 429.7605,787.1239 428.8948,787.8071 428.0455,789.5428 428.0858,790.5576 429.0576,792.7799 432.2613,796.2825 436.302,799.392 440.6285,801.8524 441.9526,802.2873 442.9197,802.1082 442.7093,800.2915 438.1919,787.9111 435.1952,776.4758 434.3537,774.778 433.6707,774.8441 433.2832,775.2843 432.41,777.0001 430.1331,783.6203 428.1927,790.9014 427.1903,796.6672 426.6833,803.004 426.7558,809.4857 427.8268,817.9646 429.022,821.6712 429.732,822.7015 430.5076,823.1142 431.3414,822.889 432.223,822.0353 434.0634,818.6776 437.599,808.3037 440.3832,798.1988 441.5845,792.5922 441.7634,788.9271 441.2178,787.5889 440.0821,787.1571 438.3927,787.5625 436.2969,788.6383 432.871,791.056 430.7118,792.9608 428.0734,795.8927 426.4534,798.3934 425.9639,799.9635"/>
    <polyline points="339.5055,790.4708 333.5861,793.3865 327.0091,797.6631 322.4139,801.3958 318.3621,805.5807 315.4941,809.8801 314.6732,811.933 314.3228,813.8349 314.4682,815.5196 315.1176,816.9246 316.2572,817.995 317.8493,818.6846 319.8375,818.959 322.1541,818.7978 327.4971,817.1798 333.4158,814.0716 365.9014,792.4526 369.8962,788.807 371.0261,787.0635 371.513,785.3547 371.339,783.6732 370.5121,782.0153 369.075,780.3799 367.1032,778.7682 361.972,775.6263 350.037,769.9818 344.5418,767.9231 339.815,766.7452 337.7792,766.5437 334.4038,766.9341 333.0899,767.4969 331.2747,769.2036 330.5843,771.4075 330.9771,773.7643 332.2937,775.9425 334.271,777.6635 336.603,778.7456 338.9885,779.1001 341.1874,778.6935 342.1696,778.2007 343.8461,776.6345 344.5251,775.5657 345.8328,771.3562 345.791,766.3281 344.8039,763.2266 343.9859,761.9307 341.6824,760.0959 340.1963,759.6353 336.556,759.7504 334.409,760.3372 329.5538,762.4755 324.2571,765.5943 319.0692,769.1973 314.6062,772.7623 311.421,775.8643 309.9329,778.2378 309.9093,779.1099 310.3864,779.7658 312.7944,780.4339 319.3241,779.9436 327.6294,778.1159 344.0331,773.7334 353.3523,772.0807 356.8999,771.9756 359.3078,772.4798 360.0015,772.9754 360.3176,773.6313 359.732,775.3765 357.4748,777.5501 355.7519,778.7286 351.2909,781.1416 342.7021,784.63 336.048,786.7239 328.7232,788.5438 317.1394,790.599 307.0928,791.7044 302.9189,791.8907 301.6808,791.6144 318.1225,786.8234 324.9085,784.3222 330.9124,781.2992 335.7279,777.8354 337.6322,775.9923 340.3965,772.2701 341.7596,768.8483 341.6994,766.173 341.1257,765.2337 340.1848,764.6025 338.8744,764.2967 335.1486,764.681 330.0464,766.3456 320.4771,770.8159 310.4626,776.664 305.1546,780.7001 303.3218,782.6319 302.186,784.462 301.8185,786.1655 302.2494,787.7243 303.467,789.1261 305.4066,790.363 307.9567,791.4313 314.3004,793.0536"/>
    <polyline points="226.1196,790.4708 229.6276,783.9857 234.7309,776.1194 239.1533,770.1901 243.9635,764.5847 248.7022,760.1887 250.8842,758.7019 252.8486,757.7936 254.5248,757.5106 255.845,757.8699 256.7484,758.8562 257.1862,760.4116 257.1262,762.4423 256.5577,764.8323 254.0002,770.2103 250.018,775.7212 237.0515,789.9155 234.1235,793.9196 232.165,797.6748 230.908,802.7368 231.3095,806.8102 232.2249,808.6984 233.4449,809.6497 234.8225,809.454 235.5348,808.8982 236.9507,806.9424 238.9805,802.4175 242.7885,790.1941 243.3696,786.2141 243.1841,784.1863 242.4606,782.7319 241.1613,781.9406 239.2868,781.8889 236.8737,782.6185 233.9769,784.138 230.6356,786.3832 198.2438,811.0187 192.8575,815.4514 191.9904,816.2993 191.6519,816.7856 191.8455,816.8982 197.1556,813.8279 205.9491,807.3665 216.356,799.0223 219.7479,795.56 219.8238,795.2152 219.3817,794.7602 214.7633,793.5446 211.0951,791.5427 208.9873,789.1088 208.2103,786.902 208.077,785.5721 208.8171,780.5577 211.0314,774.2646 214.0124,767.7357 217.139,762.6682 219.161,761.0155 220.1303,760.8417 221.0557,761.1157 221.9197,761.8202 223.3878,764.3369 224.4076,767.875 224.9302,771.8218 224.7971,777.288 224.1004,780.1464 222.8689,782.3456 221.0309,784.0854 208.7089,790.7832 203.9684,794.2957 201.5082,797.1553 200.591,798.7426 199.5407,802.1645 199.4574,803.9522 200.2253,807.517 202.1283,810.7928 204.8271,813.4142 207.8751,815.0255 210.8346,815.3498 212.163,814.9792 213.3357,814.2489 214.318,813.1746 215.6117,810.1351"/>
    <polyline points="133.4396,798.1114 132.8636,800.4848 131.7057,802.0215 130.1358,802.7034 128.3194,802.595 126.3999,801.8318 123.6542,799.9019 120.7959,796.9619 118.996,794.3431 121.089,795.9518 123.1026,798.2029 124.7418,800.8597 125.2218,802.5544 125.0322,803.9694 124.679,804.5154 123.5093,805.211 121.8635,805.3501 118.9616,804.589 117.0092,803.4653 115.1808,801.8788 113.5498,799.9237 112.2295,797.6992 111.0483,793.9697 110.8081,791.2071 110.9424,788.1579 112.3635,781.0197 113.7822,777.0677 115.728,773.1512 118.1814,769.6495 119.5873,768.204 122.7117,766.2154 124.3947,765.7575 126.1215,765.6823 129.5426,766.6277 132.5937,768.8065 134.8875,771.8635 136.1241,775.4684 136.2899,777.391 135.7029,781.3187 133.99,785.1218 132.785,786.8772 129.8895,789.8968 126.6583,792.0567 123.4486,793.1918 120.5675,793.1863 118.2378,791.9839 117.3214,790.9313 116.0135,787.9631 115.3955,783.9576 115.7093,776.5079 116.7514,771.0897 118.4779,765.939 120.8424,761.8119 122.2133,760.3708 123.6661,759.4415 125.1616,759.0628 126.6607,759.2414 128.126,759.9576 130.8347,762.8437 133.0897,767.2803 134.709,772.6709 135.4966,778.3624 135.3488,783.8117 134.3189,788.6766 132.6026,792.8171 129.2536,797.5761 126.8536,799.6417 125.6984,800.3019 123.6326,800.8632 122.0693,800.4716 121.1631,799.2464 120.9889,798.356 121.2362,796.066 123.1062,791.4602 132.384,776.1452 136.1735,768.7475 137.9862,762.9029 138.0133,761.653 137.7484,760.8393 137.2055,760.4832 136.4053,760.5843 134.1395,762.0798 129.6311,766.9383 112.5697,790.6593 112.7338,790.4708"/>
    <polyline points="127.4848,898.6689 120.296,908.3861 111.7742,921.7149 108.8885,925.4095 105.9355,927.9185 104.5035,928.5924 103.1568,928.8354 101.9401,928.64 100.8935,928.016 100.0476,926.9896 99.0239,923.8859 98.8941,919.6947 99.5667,914.8065 101.7868,906.8946 107.085,893.3683 109.8608,885.2008 111.7675,876.2607 111.8159,873.8774 111.6246,873.4026 111.2998,873.4247 110.2825,874.8753 103.6166,888.6275 99.8216,894.8138 97.2152,898.1403 94.6892,900.6614 92.4341,902.3727 89.4546,903.867 96.365,903.1071 101.4526,903.2145 103.9834,904.2419 104.689,905.5782 104.7161,906.4767 103.5264,910.1736 99.5131,916.9553 94.2404,923.8602 91.0982,927.4943 89.8187,928.5265 90.6418,926.3699 92.2812,923.4064 96.0835,917.8047 100.7714,912.2146 109.1909,903.3714 110.6833,901.1427 109.9817,901.3701 104.9212,905.6946 100.0038,910.7007 96.4787,915.1821 94.6095,918.2896 93.4372,921.2845 93.1631,923.9966 93.8544,926.2044 95.4597,927.5878 97.8735,927.8048 99.3345,927.4076 100.9279,926.6686 104.3825,924.2595 108.0039,920.9012 117.1232,911.0086 122.6035,905.6525 129.1371,900.5922 133.6044,898.1903 129.9799,899.7066 122.4788,902.0253 116.7823,903.391 112.7338,903.8566"/>
    <polyline points="216.7984,902.1048 215.8476,901.0725 213.9126,899.8161 209.3484,897.6379 195.1922,892.6884 204.6376,897.8147 209.3684,901.5796 211.6562,904.5391 212.4488,906.1621 213.2277,909.7058 213.1864,911.6204 212.2209,915.686 210.1145,919.9143 207.0029,923.9908 205.1389,925.8464 203.1232,927.5088 198.8876,930.0513 194.9701,931.2821 193.3964,931.3529 192.2197,931.0636 191.5231,930.4323 191.3576,929.4872 191.7371,928.2647 192.6456,926.8059 195.8634,923.3484 203.0484,917.4272 220.986,904.0128 223.2536,901.9842 224.817,899.7327 224.783,898.6892 223.5125,897.7767 221.2428,897.6004 218.4018,898.1828 215.5192,899.6261 213.9211,901.0892 212.8085,902.9436 212.302,905.1626 212.4366,907.7232 213.1794,910.5751 214.4592,913.6057 216.1769,916.5993 218.2174,919.2555 220.47,921.2773 222.8487,922.4052 224.0668,922.5671 225.297,922.4394 227.7768,921.2995 231.4262,917.5722 234.6508,912.1037 236.3571,907.9159 237.9419,901.3118 238.2238,896.8265 237.4971,890.3863 235.639,885.2799 234.8342,884.0781 233.0735,882.5656 232.1712,882.2652 230.4717,882.5541 229.0998,883.9311 228.2432,886.1806 228.061,888.9989 228.2687,890.5207 229.367,893.6356 230.2849,895.1819 232.8901,898.1481 236.4877,900.8191 243.3785,904.0506 248.4222,905.6179 253.0832,906.6498 256.53,907.058 258.0133,906.8185 257.1536,905.9953 254.0103,904.6901 218.8808,893.074 212.7717,892.182 210.0226,892.4903 208.5181,893.3825 208.2474,893.9974 208.6311,895.4635 210.1544,897.1143 212.6144,898.8074 218.8909,901.8072 223.194,903.2298 226.1196,903.8566"/>
    <polyline points="226.1196,677.085 233.3888,678.9903 241.5216,680.5341 251.8962,682.1089 255.6457,682.1954 255.1272,681.7019 248.3047,678.804 244.716,676.8923 241.3919,674.4972 238.6249,671.6208 236.5589,668.3308 235.8124,666.5779 234.9203,663.016 234.7707,661.2978 235.0298,658.2562 235.983,656.0935 236.7038,655.45 238.5924,655.1666 240.9783,656.25 243.6581,658.5453 247.583,663.4638 249.6639,667.1381 251.0002,670.8426 251.4723,674.5466 251.0761,678.315 249.8488,682.1763 247.8487,686.0011 245.1943,689.5386 240.4848,693.7764 237.2401,695.6232 234.1609,696.5286 231.3901,696.4102 230.1486,695.9758 227.9725,694.4441 225.3848,690.8499 222.708,684.5972 220.6853,677.8518 219.6961,671.1338 219.9913,666.1794 221.4034,661.6957 223.8358,658.406 225.9278,657.2067 228.3474,656.9276 232.4454,658.1638 235.336,659.8325 244.8659,666.3384 247.6532,667.6388 248.715,667.6597 247.5042,666.6818 245.3133,665.7582 238.2372,664.0882 231.5447,663.7063 226.8363,664.1554 222.0827,665.2546 215.0704,668.0877 210.7301,670.6662 206.9705,673.6907 204.1351,677.0693 202.5804,680.7364 202.3728,682.6561 202.569,684.6118 203.1666,686.5812 204.1422,688.5374 207.0531,692.2801 210.8524,695.5376 215.0408,697.9498 219.1873,699.1281 221.1414,699.1408 222.9775,698.727 224.6768,697.877 226.2281,696.6053 228.8659,692.9601 229.9431,690.7036 231.5905,685.6309 232.7818,677.2543 232.7986,671.3702 232.3049,665.3995 231.3786,659.72 230.0415,654.8292 228.307,651.2464 227.3115,650.0939 226.2502,649.4286 225.1405,649.2774 224.0012,649.6488 221.7172,651.8737 218.5701,657.9659 216.1131,665.3801"/>
    <polyline points="226.1196,563.6991 214.9523,568.1432 195.3162,575.3287 191.6988,577.0829 190.7003,577.8419 190.3043,578.5084 190.5182,579.0748 192.6418,579.8929 196.4767,580.2856 203.4964,580.0842 207.9127,579.4339 211.5657,578.3892 214.1914,576.9745 215.6228,575.2241 215.8567,574.2426 215.7602,573.2077 214.5816,571.0485 212.1798,568.8878 208.7789,566.8534 200.514,563.5799 192.7855,561.6488 202.1766,563.236 211.9013,564.3725 220.7435,564.9024 222.495,564.7747 223.234,564.3109 222.5756,562.7396 218.6531,558.8015 210.2271,551.2455 197.7053,540.7866 202.5303,544.6597 208.5613,550.5688 212.6397,555.1409 215.7593,559.5658 217.2632,562.575 218.3652,565.7063 220.8368,578.73 221.5351,581.1347 222.4399,582.708 222.9821,583.1447 224.2353,583.311 226.4339,581.9724 233.2032,573.7818 237.7792,566.8967 240.4919,560.7446 241.1419,558.2209 241.5652,554.6834 241.4866,552.6861 240.8547,550.5236 240.1434,549.7363 238.8264,549.498 237.3698,550.1332 232.419,553.4458 229.4719,554.8592 226.4262,555.5477 223.7099,555.1492 222.2849,554.2192 220.7938,551.9212 219.1438,545.4779 217.9289,542.991"/>
    <polyline points="240.4978,460.533 239.3805,467.796 238.3848,471.598 237.0911,474.8485 235.5023,477.0023 234.6028,477.5333 233.636,477.657 232.602,477.361 231.4978,476.6459 229.0307,474.0401 222.4781,465.3632 218.1066,460.1342 202.0606,443.5784 197.2163,437.8776 193.7131,432.3523 192.6688,429.7856 192.1687,427.4403 192.2294,425.3927 192.8399,423.7177 193.9642,422.4818 195.5435,421.7352 197.5001,421.5051 199.745,421.7905 202.1836,422.5677 207.2598,425.4056 209.7133,427.3325 214.0398,431.8056 217.1838,436.57 218.8381,441.0743 219.0604,443.1005 218.8724,444.929 218.2736,446.5358 217.2671,447.9058 215.863,449.0329 214.0816,449.9201 209.5442,451.0304 204.1588,451.4238 198.7428,451.3487 192.8136,450.716 191.898,450.3725 191.6402,449.9414 192.0599,449.4057 194.8579,447.9705 213.8726,440.4259 238.4008,429.1245 245.9659,426.783 247.7414,426.6249 249.0548,426.7916 249.87,427.2713 250.1736,428.0415 249.9762,429.07 248.2016,431.7406 244.8994,434.9274 240.5289,438.277 235.5807,441.4945 230.4603,444.3578 225.3916,446.7088 220.3956,448.4358 213.1187,449.6719 208.7176,449.4728 206.7808,449.0307 203.6926,447.409 202.6383,446.2198 201.9584,444.783 201.6685,443.1123 201.7671,441.2295 203.0594,436.9536 205.5986,432.2838 209.0195,427.6905 212.9031,423.7839 216.8842,421.2188 218.8381,420.6013 220.7525,420.4686 222.627,420.8192 224.466,421.6318 228.0618,424.4733 233.2993,430.9162 238.1786,438.4816 243.3873,447.9308 245.7399,453.8674 246.5171,458.6064 246.4236,459.8123 245.7317,461.5222 245.1429,462.008 243.5061,462.271 240.0422,461.1 234.136,457.101 229.2768,452.6591 224.4728,447.0828 220.0063,440.216 216.4098,432.6572 214.3638,426.0526 213.9557,423.1835 214.206,422.0576 214.9882,422.7999 216.2044,425.2653 226.1196,450.3133"/>
    <polyline points="135.8067,469.886 137.5869,473.1717 138.3592,475.6764 137.3994,475.1801 135.2518,472.9231 121.2686,456.1396 112.1661,444.3221 99.3354,426.1791 97.2806,423.901 96.1672,423.4424 95.9982,424.6285 97.3721,428.7251 100.1894,434.2011 102.427,437.7055 104.5786,440.473 106.3489,442.1137 107.5297,442.4234 107.867,442.0592 107.8332,438.9243 106.2231,433.0658 103.0331,425.7648 100.1374,421.2605 96.8482,418.0023 95.1534,417.0587 93.4916,416.6516 91.9197,416.8077 90.497,417.527 89.2815,418.7841 88.3268,420.5298 87.6783,422.6946 87.3694,425.194 87.8323,430.8252 88.5992,433.7855 89.6989,436.7477 92.7661,442.4733 96.7287,447.7122 101.295,452.338 108.885,458.1435 114.3957,461.3545 120.4348,464.2073 127.0722,466.8429 137.506,470.3432 146.2779,472.6742 150.1314,473.1832 147.5629,471.8081 139.7964,468.9916 119.0976,462.4586 104.0479,458.6432 100.2409,458.0868 99.597,458.0994 99.2149,458.4382 111.5221,468.7899 115.7321,471.7099 118.4925,472.8089 119.8385,473.017 121.1532,472.9847 123.6752,472.2183 127.1426,469.5405 130.1162,465.4938 132.4479,460.6454 133.6543,455.7378 133.5229,452.7847 132.5155,450.1977 130.5958,447.9565 126.0203,445.1801 121.987,443.7156 114.8311,442.0933 109.4365,441.4104 103.5822,441.0857 97.5454,441.1077 89.3648,441.6953 84.2446,442.8133 83.5376,443.2698 83.378,443.7496 84.6457,444.7339 89.8835,446.2064 112.7338,450.3133"/>
    <polyline points="113.7769,359.5404 114.3392,354.9191 115.9683,349.4233 118.6792,343.6427 122.4689,337.9912 127.233,332.6433 132.6604,327.7118 140.7617,321.6344 147.1543,317.5825 133.4149,325.4756 124.6846,330.9196 115.9807,337.2131 112.891,340.4436 112.55,341.7438 113.5243,342.259 115.7175,341.9561 119.0391,340.8807 125.9288,338.0651 134.3602,334.1095 139.9089,330.8889 142.3557,329.1027 144.4343,327.2017 146.0383,325.1923 147.0774,323.0871 147.4893,320.9076 147.2503,318.6874 146.3682,316.473 144.879,314.3225 142.843,312.303 140.3399,310.487 137.4615,308.9461 134.3009,307.7437 130.9464,306.929 127.4766,306.533 123.9574,306.5661 120.4413,307.0211 116.9657,307.8765 110.2035,310.6152 100.6031,316.3205 94.9158,320.3915 90.3307,324.1741 87.3361,327.3912 86.5484,328.7302 86.2598,329.868 86.4621,330.794 87.1307,331.5019 88.2265,331.9902 91.4873,332.3273 95.7558,331.8946 100.5336,330.8481 105.4191,329.3742 119.0382,324.196 124.9865,322.3009 129.5677,321.407 131.4712,321.4221 132.2669,321.8593 131.9292,322.5647 129.6092,323.8032 118.5451,327.3038 116.9431,328.3137 115.9932,329.8767 116.5404,330.5491 118.1376,330.6047 122.4846,329.1887 126.4932,327.1405 131.0552,324.2014 135.6305,320.4919 139.48,316.3135 141.8794,312.155 142.3814,310.269 142.3892,308.6139 141.9116,307.2621 140.9742,306.2776 139.6153,305.7111 137.8883,305.5947 135.8631,305.9399 133.6216,306.7393 128.8407,309.5742 124.2252,313.666 120.3272,318.4196 117.5234,323.2768 116.0673,327.8079 115.901,329.8577 116.1262,331.7302 116.7512,333.4108 117.7812,334.8938 119.2169,336.1826 123.2759,338.2221 128.7757,339.5973 135.3246,340.3334 142.1596,340.4806 148.1484,340.1752 152.8838,339.2907 152.9179,338.9579 152.1395,338.6288 145.4606,337.7935 112.7338,336.9275"/>
    <polyline points="99.1635,234.0594 92.8071,221.5723 89.9874,213.943 88.9699,209.229 88.8438,205.1787 89.6578,202.2066 90.3958,201.2606 91.3321,200.7325 92.4465,200.6462 93.7171,201.0066 96.6424,203.0018 101.6361,208.5326 108.3064,218.2539 112.6776,226.0709 115.1749,231.523 118.2399,239.9532 121.6297,251.6811 122.5364,253.7813 122.933,254.015 123.6816,252.8285 126.978,240.0742 131.6299,225.7085 132.3437,221.9784 132.1881,218.6797 131.7333,217.1448 130.0479,214.2678 128.8408,212.9332 125.8232,210.5173 120.233,207.6903 113.8658,206.0615 106.9359,205.9141 99.6108,207.1868 94.8783,208.6444 90.7672,210.4102 87.7929,212.296 86.8645,213.2213 86.3541,214.1057 86.2763,214.9334 86.6306,215.6937 88.5736,216.9768 91.9391,217.8935 96.3116,218.3979 101.1844,218.4522 108.4586,217.5978 114.8756,215.6096 119.892,212.7859 122.8916,209.6348 123.6347,207.5705 123.4311,205.679 122.3377,204.1337 121.4701,203.5504 119.1329,202.8657 117.6909,202.7956 112.5248,203.7874 108.5941,205.5077 104.4431,208.0461 98.1176,213.0881 92.2877,219.1468 89.2042,223.5769 87.1904,228.2789 86.6743,230.7264 86.5107,233.2293 87.2336,238.3533 89.2171,243.4649 92.1439,248.1875 95.5883,251.9481 99.0954,254.1403 100.7425,254.5114 102.2619,254.37 103.6213,253.7215 104.7957,252.5884 106.5163,249.0348 107.0389,246.7292 107.3838,241.4137 106.8169,235.6649 105.4419,230.0243 104.496,227.3664 102.1623,222.485 97.7277,216.2263 94.3479,212.7766 90.9568,210.0258 86.7729,207.5059 84.9486,207.0839 86.3073,208.5264 90.5641,211.2743 112.7338,223.5416"/>
    <polyline points="223.7952,214.6333 230.5455,201.866 233.5366,197.469 235.073,195.7642 236.6074,194.5017 238.1092,193.7433 239.543,193.5239 240.8724,193.8497 242.063,194.7055 243.0855,196.0565 243.917,197.8513 244.9512,202.5064 245.12,208.0669 244.8884,210.9874 243.8543,216.7632 241.229,224.6115 237.99,231.0729 234.7093,235.8186 232.666,237.8272 230.8234,238.8594 229.2212,239.0018 227.9077,238.3833 226.9565,237.1039 226.447,235.2456 226.464,232.9161 227.0846,230.2561 229.2318,225.8825 232.8467,221.2324 237.8449,216.4586 243.7471,211.9657 251.83,206.7077 252.9533,205.7107 252.917,205.4396 243.0397,205.4327 235.7642,204.8791 228.347,203.5651 210.152,199.1354 205.3189,198.4465 203.1656,198.7521 203.5573,199.5126 205.4313,200.6184 212.8369,203.2011 222.9958,205.2877 231.4212,206.1022 240.3755,206.0596 246.2163,205.5693 251.2828,204.752 254.8069,203.6295 255.7816,202.9685 256.17,202.2589 255.9694,201.524 255.2049,200.795 252.1971,199.5002 250.1009,199.0058 245.1531,198.4579 237.1652,198.9037 232.3414,200.0368 228.3777,201.7725 225.4658,204.0042 223.693,206.5927 223.2546,207.9781 223.2804,210.8664 224.461,213.8602 226.7351,216.9198 230.099,219.9926 232.1988,221.5054 240.0839,225.8269 258.0245,233.441 261.4779,235.5932 262.1981,236.5091 262.1777,237.2794 261.4154,237.8784 259.9415,238.2873 255.121,238.499 248.4347,237.8986 240.7359,236.5614 232.758,234.6611 200.1943,225.739 196.3072,224.5644 195.1666,223.7868 198.5873,223.1891 206.359,222.9873 226.1196,223.5416"/>
    <polyline points="223.0087,317.2429 223.8926,315.6557 222.4341,318.8332 220.4512,321.6544 210.0407,332.2678 207.9956,335.4969 206.7122,339.2519 206.334,343.6225 206.4885,346.0387 207.429,351.2208 210.0951,359.042 212.3526,363.3359 213.526,364.9363 214.6892,366.0741 215.8108,366.6963 216.8579,366.7734 217.7981,366.3022 218.6024,365.3042 219.7133,361.9411 220.0207,354.7908 219.3939,349.7762 218.1736,345.294 216.3479,341.6858 215.1957,340.2583 212.4373,338.156 210.8764,337.4568 207.5973,336.6831 204.4873,336.6436 202.0251,337.2415 200.6157,338.38 200.5286,339.9283 201.013,340.82 203.0022,342.8055 208.0715,346.2543 216.9432,351.3926 221.7316,353.7807 226.6461,355.7091 234.273,357.4083 241.9175,357.6983 248.4464,356.895 251.3341,355.9649 252.5454,354.8815 252.4662,354.3196 250.9723,353.2132 245.883,351.746 238.6459,350.7935 230.8055,350.7033 223.2867,351.582 216.3501,353.1233 207.7299,355.9868 206.0743,356.9286 205.7005,357.6355 206.5506,358.0801 208.4315,358.2346 212.5926,357.7423 217.4323,356.0679 220.5663,354.3146 225.9463,350.1718 231.5709,344.8027 233.2073,342.6364 234.1037,340.8317 234.3005,339.4898 233.7177,339.0412 231.5304,340.8229 224.3834,349.0688 220.6726,352.7624 213.8215,358.0247 208.7612,360.7482 203.859,362.4543 199.7663,362.908 198.2338,362.6268 197.1368,362.0067 196.5206,361.0618 196.4043,359.8184 197.6273,356.603 200.562,352.791 204.7754,348.8839 209.6949,345.31 214.6871,342.3264 226.1196,336.9275"/>
    <polyline points="339.5055,336.9275 314.3524,317.0855 307.363,310.9964 304.7572,307.8902 306.0844,308.1268 309.6766,310.293 314.798,314.0837 320.4978,318.9306 328.4426,326.8574 334.4163,334.3287 337.9673,340.8272 338.6349,342.7735 339.2828,346.3037 339.2917,347.8599 338.7231,350.4477 337.4222,352.1926 335.4843,352.9886 334.3147,353.0175 331.657,352.3404 327.1772,349.6693 322.8029,345.6654 319.5779,341.2414 318.5045,338.3483 318.3383,336.9526 318.7497,334.2671 320.0932,331.6775 323.5845,327.67 338.6564,313.6866 342.157,311.4061 343.9565,310.6421 347.6574,310.0554 349.5355,310.2676 353.2485,311.6582 355.0327,312.7644 358.3105,315.5311 362.0436,320.1733 363.4311,322.9489 363.786,325.054 363.1112,326.2372 361.5628,326.3344 358.2063,324.3549 354.4591,320.4122 347.9857,311.8801 355.0255,326.7346 356.564,331.5135 356.8161,334.0671 356.7077,335.104 356.0519,336.6296 354.8731,337.3305 354.1179,337.3335 352.3469,336.5713 349.2798,333.3611 347.1598,329.79 345.0791,325.1892 340.0147,312.0619 338.0073,307.9308 335.9685,305.4479 334.9178,304.9778 333.8414,305.0669 332.7433,305.7211 331.6343,306.9161 329.4438,310.674 326.4765,318.3398 324.177,326.3751 322.6773,333.511 322.0938,339.3167 322.6217,343.4938 323.0524,344.4559 324.2391,345.688 324.9687,345.955 326.6258,345.7975 329.34,343.86 331.8235,340.0122 333.108,336.4513 334.0343,331.9983 334.8275,323.3633 335.0145,312.9944 334.6983,303.4282"/>
    <polyline points="339.5055,223.5416 337.1155,218.1929 333.6251,212.8015 330.2524,208.9783 326.1095,205.5599 321.4354,202.9704 319.0234,202.0814 314.373,201.2419 312.2743,201.3281 310.4226,201.7699 308.89,202.5729 307.7408,203.7318 307.0244,205.2298 306.769,207.0378 306.9784,209.116 307.6311,211.4204 310.0559,216.5514 318.8854,231.6203 321.8653,238.4005 323.8224,245.0964 324.5254,251.0354 324.3822,253.4904 323.916,255.4863 323.1456,256.9491 322.1013,257.8203 320.8243,258.0607 319.3702,257.6556 317.8077,256.6193 316.2137,255.0047 314.6661,252.8982 311.9873,247.6665 310.2154,241.887 309.764,239.0571 309.8135,233.8965 311.0785,229.7145 312.0838,228.0557 314.5499,225.6353 315.8831,224.865 318.4777,224.1546 320.723,224.4746 322.4074,225.7283 323.3793,227.7589 323.5543,228.9908 323.1941,231.6936 321.8298,234.4385 319.5675,236.9296 316.7155,238.9 315.2035,239.6095 312.3275,240.3493 311.0966,240.3491 309.3582,239.6236 308.9508,238.9374 308.8966,238.07 309.8882,235.8783 312.2599,233.1716 334.995,213.596 339.7365,208.8491 344.3742,203.5113 343.412,206.2466 341.8584,208.8608 339.4625,211.8533 336.1733,214.9792 329.6322,219.6294 314.9217,228.3571 311.7328,231.0329 310.7842,232.3037 310.3128,233.521 310.3274,234.6778 310.8173,235.7671 311.7511,236.7812 313.0768,237.7124 316.6165,239.3024 320.7824,240.5036 326.7727,241.5351 329.8271,241.6839 332.2272,241.0889 332.2512,240.209 330.1199,238.3469 320.8025,233.2271 317.5843,231.0361 315.0493,228.5735 314.14,227.2645 313.1876,224.5334 313.5432,221.6173 314.2463,220.044 316.6694,216.5616 324.5306,208.1955 331.686,201.5118 336.7129,197.5776 339.3044,195.9377 344.7294,193.5794 347.5864,192.9466 350.5311,192.7168 353.5367,192.9027 356.5559,193.5027 362.3582,195.8424 364.9789,197.4866 369.2622,201.3883 370.7936,203.4932 371.8508,205.5997 372.4027,207.6401 372.4368,209.5566 371.9601,211.3036"/>
    <polyline points="452.8913,223.5416 464.0399,223.2647 477.9218,224.0742 484.6804,225.1499 487.0055,226.2948 487.3318,227.0281 487.0761,227.8816 484.9128,229.9983 471.3718,239.4592 465.4283,244.4616 461.2023,248.7373 479.718,228.2482 481.3746,225.9047 481.7141,224.9291 481.3211,223.3176 479.5903,222.1071 476.8262,221.2678 473.4544,220.8011 468.2172,220.8389 465.1404,221.3807 462.6597,222.375 460.8507,223.9025 460.1992,224.9029 459.7125,226.0782 459.2206,228.9627 459.3536,232.4713 460.0739,236.3712 461.2855,240.3587 463.6132,245.8579 465.8431,249.8704 467.3629,251.5098 467.668,251.4546 467.9904,250.494 467.8903,247.4595 467.266,243.6946 466.2783,240.4371 465.5266,238.923 464.3769,237.7716 463.272,237.7377 462.0254,238.7574 461.9128,238.5692 461.5711,200.6935 461.3195,192.7876 460.8651,188.9742 460.6513,188.9116 460.109,190.6383 456.2221,211.5646 454.706,215.6739 453.6291,216.5596 453.0464,216.4229 451.7038,215.0216 444.8058,203.9825 439.5673,197.7144 435.7831,194.8172 433.9435,193.9476 432.2229,193.5119 430.6879,193.5253 429.4016,193.9887 428.4185,194.8881 427.7796,196.1933 427.5105,197.8585 427.6213,199.8264 428.9537,204.4083 431.5998,209.403 435.2491,214.3501 439.5223,218.9684 446.3011,225.1116 454.7492,232.0283"/>
    <polyline points="452.8913,336.9275 446.2131,339.1039 442.678,340.713 440.0857,342.6464 439.2707,343.9075 439.3564,344.907 440.4458,345.4373 441.378,345.4753 443.9793,345.0322 447.4669,343.8559 451.7208,341.9291 456.6574,339.2261 462.1816,335.7145 470.9061,328.8969 476.2542,323.4513 478.5551,320.5586 482.058,314.7436 483.1558,311.9943 483.7755,309.4823 483.9065,307.3061 483.5544,305.5534 482.7414,304.2931 481.5107,303.5723 479.9237,303.4146 478.0544,303.8181 475.9838,304.7547 471.5673,307.9704 467.2679,312.3823 463.4962,317.259 460.4743,322.0097 458.3032,326.2451 457.059,329.7811 456.7839,332.5854 457.4311,334.7007 458.0638,335.5083 459.8429,336.62 463.4211,337.0701 466.0755,336.6901 468.6374,335.9384 470.8553,334.956 472.5233,333.8197 473.5029,332.5557 473.7459,331.2117 473.2813,329.89 471.4588,328.2343 468.7555,327.2964 465.8171,327.2199 463.1288,328.0289 461.5901,329.0797 460.304,330.5245 459.3125,332.312 458.1722,336.8784 458.101,344.4434 458.7436,349.4152 459.988,354.8354 461.019,356.7291 461.7287,356.6314 462.3883,355.4532 463.087,352.0852 463.2679,347.7203 462.9607,344.8556 462.1783,342.441 460.8429,340.7338 459.9605,340.1829 457.7589,339.6975 454.948,340.0087 451.4976,341.0522 432.6627,349.1533 426.8116,352.3456 424.8784,354.249 424.6357,355.0852 424.8844,355.8196 426.7595,356.9231 432.2365,357.6056 439.3354,357.4485 457.9603,356.3465 461.9738,356.3819 464.3644,357.0525 464.8931,357.8744 464.5159,358.8333 463.2311,359.738 461.0549,360.4279 456.139,360.7779 449.3786,360.0539 441.1753,358.3233"/>
    <polyline points="458.2071,433.5473 456.403,432.6467 449.2645,427.0777 444.8194,424.2959 440.2692,422.7115 437.5173,422.6317 435.3199,423.3991 434.5168,424.0845 433.6139,425.9768 433.5303,427.1385 434.0682,429.753 436.3405,433.8826 439.6226,437.3279 443.0021,439.2644 446.033,439.4996 447.8328,438.811 449.3973,437.5513 450.5733,435.7926 451.1623,433.603 451.0099,431.1018 450.0639,428.533 448.3492,426.256 447.2167,425.3441 444.4179,424.1711 442.7583,423.9695 440.9381,424.0463 436.9229,425.0285 434.8194,425.8995 430.7451,428.2314 427.3632,431.0394 426.1203,432.4999 424.8086,435.3131 424.7952,436.5863 425.2128,437.725 426.0416,438.7025 427.247,439.4995 430.5877,440.5143 436.979,440.6479 443.6469,439.3494 447.8315,437.7291 451.7976,435.4804 461.8514,428.0861 466.3259,425.3994 470.9879,423.5755 473.286,423.1187 475.479,423.016 477.4937,423.2857 479.2547,423.9303 480.6919,424.935 481.7453,426.2689 482.371,427.8865 482.5453,429.7322 482.2658,431.7448 481.5465,433.862 478.9174,438.1817 475.0327,442.3044 470.3832,445.9682 463.0227,450.2796 456.1982,452.9515 452.1462,453.747 448.4286,453.7206 446.6878,453.3956 443.4748,452.1331 440.6729,450.1042 437.2644,445.7468 434.7963,440.0338 433.443,433.666 433.2032,429.7145 433.3903,426.5144 433.8319,424.4447 434.3706,423.7629 434.6526,423.9779 437.9373,435.7707 439.8848,441.4994 441.9319,445.9883 444.3309,449.4588 439.6861,444.7719 425.9107,433.9846 423.7901,431.8473 424.5294,431.6601 428.4011,433.1175 436.3134,437.5334 446.1133,444.4463 452.8913,450.3133"/>
    <polyline points="439.2931,531.0344 439.0854,533.2247 439.5695,538.9557 441.4091,548.3459 444.2824,558.0465 445.9033,561.7406 447.0776,563.4048 448.464,564.5659 451.2807,565.6197 468.6488,567.5613 476.3957,569.3229 480.7653,571.1355 482.4268,572.2515 483.6275,573.5115 484.3103,574.9166 484.4486,576.4633 484.0459,578.1401 483.1298,579.924 479.97,583.6559 475.5381,587.2356 470.5184,590.1269 465.556,591.8225 463.2505,592.1121 461.1137,592.0055 459.1671,591.5051 457.4225,590.6268 455.8846,589.3981 453.4167,586.0455 451.6741,581.8135 450.5279,577.1107 449.7152,570.0064 449.6718,565.641 450.1741,559.9386 451.871,551.7552 452.9624,548.8727 453.6402,548.9543 454.5511,550.7039 455.3242,553.6219 455.2583,554.33 454.892,554.5703 453.7248,553.9492 451.7728,552.1858 445.3216,545.7502 437.6645,537.4898 436.3642,536.6531 436.4686,537.7075 437.3943,540.1399 443.8966,553.7365 447.5243,562.5314 449.4147,568.9015 450.6469,575.7678 451.0718,582.9856 450.9455,586.5821 449.9695,593.2238 449.108,595.9989 447.9929,598.2253 446.6242,599.786 445.0033,600.599 443.1351,600.6287 441.0309,599.8825 438.7126,598.4009 436.2166,596.2546 430.9315,590.3696 425.8474,583.1804 421.8722,575.6748 420.5912,572.0517 419.9027,568.6025 419.8555,565.3632 420.4623,562.3483 421.7066,559.5558 423.5443,556.9909 425.908,554.6671 428.7123,552.6035 435.2357,549.3294 438.7429,548.1447 445.7797,546.6971 452.4302,546.414 455.5377,546.6511 461.2805,547.7128 468.3386,550.2912 471.5889,552.3896 473.4028,554.6235 473.7367,555.7468 473.2753,557.9044 472.5133,558.8967 470.0804,560.6146 466.7614,561.8925 463.036,562.7174 452.8913,563.6991"/>
    <polyline points="454.5772,674.9497 464.6168,674.4602 470.351,674.9034 472.7935,675.3468 476.5257,676.6107 477.6953,677.3898 478.3402,678.2366 478.4417,679.1293 478.0053,680.0495 475.6462,681.9328 471.7072,683.8619 459.2111,688.9785 452.4604,692.0694 443.8104,696.6062 442.8846,697.4093 443.0485,697.8723 446.2666,697.7112 455.9298,695.5752 467.8314,693.4185 472.4109,692.3088 474.4528,691.5058 473.4026,691.2553 460.9996,691.5761 455.961,691.1653 450.8361,689.848 449.1992,688.9577 448.2306,687.9631 447.8473,686.3556 448.9414,683.2961 454.7984,673.7611 457.0989,668.9128 458.3638,667.7534 459.6221,667.4787 462.2907,667.8171 467.9848,669.909 469.9495,670.9649 471.237,672.0583 471.5952,673.1956 471.3896,673.7863 469.3034,675.6537 460.8851,680.1268 456.183,683.3778 451.7029,687.66 439.7094,701.484 436.0507,704.3626 434.5378,704.536 434.1863,704.0608 434.1461,703.2272 435.0356,700.5987 437.1276,696.9473 440.1629,692.633 443.8573,688.0329 448.0329,683.507 455.1252,677.4893 460.4651,674.2273 463.2953,672.8543 469.0974,670.6904 474.6715,669.3662 479.3513,668.8746 482.4279,669.0917 483.1901,669.4065 483.3872,669.8251 483.0187,670.3236 480.6968,671.4699 474.1795,673.2741 452.8913,677.085"/>
    <polyline points="566.2771,677.085 543.5596,681.289 534.8818,682.2844 537.3459,681.3614 555.8974,676.8366 570.7827,672.7944 585.698,668.1837 600.0426,663.2067 594.3109,665.1717 588.5487,667.5732 579.0463,672.546 573.2685,676.5426 570.6983,678.7072 566.2626,683.3686 564.3937,685.8549 561.3475,691.0378 559.2889,696.2259 558.3244,700.9625 558.5188,704.7229 559.0432,706.0822 559.8277,707.028 560.8403,707.5273 562.0436,707.564 564.8752,706.2848 568.0933,703.4883 576.9272,693.8737 584.7448,686.0188 565.675,697.6035 557.4173,701.6287 551.7616,703.4696 546.41,704.3291 541.9458,704.0946 540.2461,703.5824 538.9934,702.8374 538.2358,701.8926 538.0012,700.7872 538.2993,699.5654 539.1204,698.2738 542.1732,695.6625 544.2797,694.4234 549.27,692.2366 557.5541,689.9596 565.6391,688.9883 570.797,688.9692 575.8062,689.3482 580.5145,690.0538 586.2492,691.4999 588.5433,692.5272 589.1892,693.5143 588.846,693.9861 586.882,694.8801 581.3685,696.0246 571.3658,696.9708 563.3139,697.0641 558.0424,696.7092 550.8426,695.5343 545.5662,693.9752 543.4455,692.6974 544.0359,692.2343 546.0943,692.1318 559.1732,693.1596 566.6521,692.863 571.3311,691.7602 573.8791,690.6042 575.8624,689.0352 577.2002,686.9654 577.9468,682.8359 577.6864,679.355 576.9469,675.2451 572.0125,655.9924 570.1367,650.3002 568.0649,645.7045"/>
    <polyline points="566.2771,563.6991 545.4792,579.0027 537.2219,585.868 535.2236,588.0768 537.8246,586.6243 541.6206,583.7833 548.7168,577.6118 555.6486,570.3188 561.2707,562.8869 565.2393,555.6769 567.5916,549.085 568.454,544.0074 568.2345,541.942 567.3952,541.1424 566.7457,541.2248 564.991,542.2887 561.2842,545.7263 555.1296,552.3902 549.4456,559.458 547.534,562.5713 546.5988,565.3207 546.5382,566.5962 547.227,569.0538 550.0553,572.6998 554.406,576.246 561.1643,580.1641 566.1344,581.847 569.2347,582.1012 572.1819,581.5498 574.9898,580.1594 578.7909,576.7113 581.669,572.2561 582.8256,569.0244 583.2248,565.6278 582.785,562.0241 580.6137,556.1866 577.2203,550.244 573.6046,545.1974 570.5421,542.3276 569.0116,542.1107 567.9691,543.3994 567.4879,546.1252 567.4842,547.9581 568.524,554.876 571.1854,563.3332 576.9844,576.5186 582.3598,586.4403 587.4114,593.7698 589.9062,596.035 590.7535,596.2063 591.2916,595.7114 591.5026,594.5657 590.9137,590.5442 589.0412,584.8052 586.1518,578.1563 582.6589,571.3004 568.355,545.7727 565.3913,541.5482 564.5763,540.9948 563.8357,540.9216 563.1657,541.3394 562.0341,543.5948 560.906,549.9003 560.6325,558.4023 561.5466,567.8554 563.0603,574.3116 565.3455,580.4957 568.3059,585.8491 569.9988,588.0055 571.8072,589.7075 573.7099,590.8892 575.6823,591.5025 577.6917,591.5208 579.6971,590.94 581.6517,589.7825 583.5055,588.0992 585.2081,585.9618 587.9681,580.6631 589.5883,574.556 589.8916,571.3729 589.8333,568.1676 588.6266,561.7911 586.0919,555.5475 582.5428,549.6755"/>
    <polyline points="679.6629,563.6991 656.1898,567.3529 650.1686,568.8192 648.7894,569.7919 649.0699,570.2737 650.0167,570.7507 656.3663,572.1243 679.9474,575.0146 690.078,575.7248 709.637,575.9985 706.7761,576.5348 698.5403,577.1868 691.8669,577.2783 682.9369,576.9172 681.657,577.0069 681.1708,577.3108 681.898,578.2032 684.516,579.4774 689.0268,580.7923 692.8309,581.4666 696.9195,581.8135 700.8819,581.7402 705.6298,580.7945 707.4503,579.644 707.8603,578.9269 707.9163,578.1214 706.9745,576.2665 704.7886,574.1279 695.0426,566.6563 691.0549,562.7128 688.5432,558.5585 687.6105,554.185 687.9744,551.3417 689.1795,548.7421 691.1539,546.5621 693.7075,545.0085 696.5603,544.2436 699.3824,544.2741 702.7891,545.3205 704.2384,546.5448 703.7349,546.9914 703.0145,547.0351 700.7508,546.7099 694.4571,544.568 688.9415,541.573 687.2877,540.2421 686.6291,538.9063 688.1738,538.6833 691.5495,539.5639 703.5303,543.8096 706.3791,545.2314 706.2309,545.7904 705.0176,546.339 693.0824,549.7024 691.3888,550.534 691.2321,550.9751 691.4533,551.1676 695.5658,551.9206 701.3391,552.0834 705.1341,551.6626 707.0474,550.7903 706.9457,550.0554 705.6699,549.3071 700.1622,548.1288"/>
    <polyline points="679.6629,450.3133 657.8923,451.0339 651.9594,450.7786 650.2397,450.4128 650.2034,450.1793 651.8292,449.6187 657.9851,448.5935 676.7069,446.555 686.0334,446.1411 694.4611,446.7065 699.1635,447.7355 701.1044,448.4506 703.9235,450.2743 704.7233,451.3644 705.0848,452.5529 705.0047,453.8197 703.6028,456.4974 700.8957,459.2082 697.4825,461.7469 693.9364,463.9175 689.131,466.2021 685.2917,467.2721 683.2111,467.2871 681.3281,466.6442 679.4512,465.2666 675.4124,460.4944 672.3206,455.5989 669.5369,449.8179 668.0499,445.4999 666.5799,438.6308 666.0448,430.595 666.6349,427.2499 667.5492,426.7704 668.1757,427.0798 670.7381,430.1337 681.1241,446.2043 700.863,473.3787 704.6642,479.2521 703.8023,478.8184 693.9799,469.5514 687.9665,464.5069 677.6728,457.4097 673.9292,455.308 666.0614,451.5824 658.1602,448.5194 644.1392,443.7808 649.2329,444.7236 658.5166,447.2526 665.3372,449.5915 671.7617,452.311 677.4557,455.244 684.6357,459.5212 692.8205,464.7382 694.1715,465.8193 694.1587,466.2125 688.6495,464.1139 660.5783,450.5125 658.1098,448.8027 657.4872,447.9702 657.3322,447.1379 657.6715,446.2948 659.8443,444.5295 663.8108,442.5794 672.2333,439.22 682.7407,435.5089 699.4513,430.6941 707.6671,428.8325 714.2339,427.7014"/>
    <polyline points="679.6629,336.9275 691.4577,338.2057 704.2286,340.6571 712.3223,342.9958 715.288,344.5927 715.7821,345.3472 715.5646,346.0453 714.6393,346.6676 710.9082,347.6179 705.4282,348.0988 696.2494,347.886 690.7069,347.1891 686.1547,346.1673 681.4011,344.3755 677.7274,342.2594 683.2895,344.749 696.7871,349.259 701.5485,351.2509 701.1554,351.288 694.7565,349.7694 687.9968,347.5678 680.0942,344.2739 674.4432,341.5043 668.6693,338.3226 663.1292,334.7657 658.317,330.8875 654.7668,326.8324 653.6083,324.8016 652.9128,322.8058 652.6987,320.8771 652.9661,319.0522 653.696,317.3698 654.8467,315.87 656.3575,314.5916 658.1556,313.5704 662.3116,312.3936 666.7641,312.4165 671.0915,313.5641 674.9983,315.6196 678.273,318.1986 681.7743,322.0712 683.1294,324.1206 683.66,325.4787 683.3502,326.04 681.4676,325.3999 670.5026,317.3634 666.6009,315.2789 664.1834,314.825 663.0451,314.9355 660.9498,315.8809 660.0155,316.7167 658.4371,319.0545 657.3138,322.1017 656.6811,325.552 656.5831,330.7754 657.2886,335.4786 660.4465,345.4646 661.3224,350.6691 661.7292,351.5213 662.6327,351.6948 668.933,351.3818 671.6898,350.9746 674.4478,349.7991 676.8179,347.8667 678.2405,345.5519 678.5583,343.9537 678.4026,342.4102 677.3919,340.3607 675.0179,338.2103"/>
    <polyline points="568.5621,319.7853 566.1716,311.3313 564.6004,307.1386 563.1145,305.1437 562.4238,305.1282 561.7751,305.7728 561.1705,307.0409 559.6194,313.8699 558.165,326.5303 556.9421,346.3278 556.3,349.512 555.7417,350.1028 555.1353,349.5885 553.6642,345.0319 552.8693,340.2078 553.1305,336.5842 553.8901,334.1418 557.3005,327.6032 560.7875,322.5762 563.7746,320.234 565.888,319.7149 567.981,320.0334 570.9891,321.8363 585.5859,336.1986 587.3911,338.6607 588.4397,341.2205 588.5033,343.9082 588.1384,345.3033 586.6571,348.1879 582.934,352.6723 578.2448,356.9118 573.5513,360.07 569.4442,361.4928 567.0994,361.3427 565.1052,360.3482 563.5113,358.6896 561.9517,355.6174 561.3079,352.8292 561.4878,350.9055 561.9047,350.8774 562.5128,351.3771 566.2377,355.5083 568.5205,357.5515 570.2357,358.4526 572.0955,358.7342 575.1855,357.99 579.79,355.6093 583.5837,352.8667 584.5155,351.7317 584.6198,350.9904 583.2405,350.9684 580.2969,352.3549 569.7748,359.345 564.7594,361.8942 561.3995,362.6412 559.7346,362.6736 558.1019,362.4774 555.021,361.4291 552.355,359.5911 551.2454,358.4204 549.6004,355.6993 549.1058,354.2129 548.8217,351.1713 549.0235,349.6878 550.0398,346.9431 551.7236,344.6049 555.0574,341.8603 561.0902,338.703 566.2771,336.9275"/>
    <polyline points="590.0416,440.4988 589.3204,437.4407 588.4031,435.06 587.3969,433.6093 586.4608,433.2853 585.7715,434.1759 585.5587,435.0702 585.424,437.6693 586.6009,451.5548 586.3698,457.861 584.9508,463.552 583.3883,466.631 581.517,468.8503 579.5239,470.0449 578.5197,470.2492 576.5052,469.9525 574.434,468.912 566.751,463.5214 564.8123,462.6708 563.0846,462.4122 560.8812,463.0056 559.2607,464.562 558.4635,466.6152 558.4356,467.8791 558.8192,468.8033 560.1974,469.1792 561.6242,468.5286 563.3833,467.0292 566.517,463.2278 573.7426,452.1509 576.0065,447.7502 577.9729,442.8033 580.0571,434.3138 580.6962,428.3059 580.6599,422.6994 579.9494,418.3546 579.3573,416.9102 578.6228,416.0423 577.7611,415.7782 576.7898,416.111 575.7279,417.0091 573.4087,420.2697 565.9518,435.4295 562.4526,441.8504 560.3532,444.8502 558.4184,446.8016 556.5715,447.8411 554.7902,448.1212 553.1371,447.7567 551.6835,446.8482 550.0008,444.7092 549.324,442.9583 549.2536,440.2368 549.8884,438.6529 551.6876,437.1433 554.1735,437.0243 556.972,438.1703 559.6404,440.2048 561.8067,442.7554 563.3026,445.4442 564.2041,449.0048 564.0977,451.6383 563.2211,454.5083 562.1255,456.7366 559.5961,460.6068 557.2811,463.4769 553.1041,467.9399 548.7859,471.9402 545.3129,474.5702 543.9634,475.153 543.6692,475.0401 544.4212,473.1647 547.3217,469.5779 560.3526,456.6386 566.2771,450.3133"/>
    <polyline points="575.7354,223.9174 571.8869,217.3812 568.6718,212.9514 565.023,208.6965 561.0782,204.8959 557.1101,201.8833 553.4853,199.995 550.5492,199.4623 549.4336,199.7032 548.5946,200.2473 548.0551,201.0568 547.9226,203.3121 549.0496,206.1744 552.8749,211.0571 556.598,214.3696 561.0705,217.518 569.0307,221.8243 588.7136,229.8104 594.9254,232.6447 599.4925,235.5615 600.8458,237.0089 601.473,238.4156 601.3585,239.7511 600.5264,240.9794 599.0305,242.0601 594.3878,243.6194 588.2608,244.1764 581.5499,243.6396 575.0276,242.0544 569.1929,239.5682 564.2361,236.3976 560.173,232.7955 557.0488,228.9842 554.9207,225.0875 553.7927,221.1103 553.5841,219.071 553.8028,214.8868 555.4489,208.5693 558.2209,202.9898 560.434,200.3187 561.6023,199.4411 564.0138,198.7509 566.494,199.5073 570.3675,202.957 583.4865,219.5564 583.4389,220.1154 582.3896,219.9615 578.0439,217.57 566.8671,208.2194 563.0496,205.8441 559.7629,205.053 558.1712,205.4154 557.3697,206.3736 557.5336,207.7908 559.5394,210.5216 573.9589,222.6928 576.8491,225.7663 579.2988,229.0485 581.7595,234.0627 582.3848,237.1449 582.102,239.7162 580.9252,241.5086 578.9484,242.2825 577.7056,242.2393 574.8236,241.2949 571.5826,239.3459 566.5471,235.0868 556.9136,225.0315 546.4465,216.0017 545.6881,214.9083 547.4005,215.4366 560.0558,221.5584 563.5651,222.8897 566.2771,223.5416"/>
    <polyline points="671.1062,209.1885 666.8102,205.7836 662.6322,201.6862 658.8979,197.4171 653.4457,190.3881 658.0329,198.7246 661.1441,203.3137 664.5503,207.6497 669.509,212.4959 672.2725,214.1333 674.2865,214.343 674.949,213.9159 675.361,213.1431 675.5163,212.0334 674.4648,206.8028 671.2854,199.2917 668.161,193.8869 664.5125,189.2198 662.6104,187.4851 660.729,186.2982 658.9233,185.7329 657.2445,185.8267 655.738,186.5854 654.4445,187.9858 653.4007,189.9737 652.6402,192.4654 652.0835,198.5089 652.3184,201.8079 652.8951,205.1275 654.998,211.428 656.4566,214.2705 659.9615,219.1758 661.9164,221.2212 666.0249,224.5363 672.1813,227.8675 684.1462,231.8542 694.7377,234.0371 697.7141,235.2124 699.8798,236.9366 701.1238,238.7481 701.1264,240.1226 699.4684,240.598 697.4756,240.2099 695.0311,239.1662 692.4285,237.4878 689.8909,235.2979 685.3152,229.9512 681.7504,224.0252 680.5499,221.0643 679.7585,218.1019 679.3378,213.5712 679.9612,208.9771 681.7419,204.5302 684.674,200.6509 687.2457,198.843 690.2605,198.0334 693.6459,198.3625 695.4428,198.9325 699.1276,200.7456 704.3327,204.5117 708.0843,208.3918 709.2714,210.5001 709.3986,211.3297 709.2022,211.9893 707.8522,212.7709 703.794,212.5823 698.4694,210.8239 694.9667,208.8983 691.9221,206.5667 689.6055,204.1264 688.2417,201.9728 687.9647,200.4948 688.251,200.0933 689.7103,200.0034 692.3955,200.7954 706.4546,207.0217 713.3401,210.9552 714.8297,212.2125 715.7256,213.4189 715.9618,214.5639 715.5171,215.6369 714.409,216.6285 710.4579,218.3556 704.8832,219.7619 698.6353,220.897 679.6629,223.5416"/>
    <polyline points="679.6629,110.1558 680.6551,95.6382 681.651,88.0499 683.1144,80.268 685.0885,73.5127 686.2703,70.928 687.5744,69.0657 688.9889,68.033 690.4969,67.8924 692.0773,68.6555 693.705,70.2726 695.3511,72.6232 700.0604,82.2508 703.651,91.96 704.9747,96.9015 705.2458,100.1969 704.9739,101.2069 704.4413,101.8018 702.6683,101.84 700.1432,100.5593 695.6697,96.8037 692.7678,93.477 690.2808,89.8456 687.7327,84.7741 686.9777,81.5156 687.1654,81.0398 687.5723,80.91 689.0148,81.6866 691.2031,83.6815 701.2082,94.5905 703.9226,98.4706 704.3891,100.1609 704.1523,100.7037 702.7137,101.2109 698.3865,100.7653 692.3657,99.2783 688.0834,97.8773 678.5127,93.7869 667.5852,87.9929 669.6205,88.2821 680.9704,91.8186 685.3463,92.7411 690.0014,93.2887 694.671,93.3681 698.9713,92.9594 702.426,92.1278 704.5308,91.0214 704.9542,90.4246 704.9256,89.8315 704.4451,89.2642 702.2409,88.2795 698.7424,87.5904 692.1964,87.2886 687.5998,87.5657 680.9954,88.5113 674.9413,90.0048 671.2088,91.3182 666.2041,93.6201 662.2412,96.08 659.6778,98.5451 658.614,100.9275 659.0364,103.0462 660.1001,104.2133 661.6766,105.1379 663.6433,105.7573 665.9214,105.9427 669.742,105.1309 673.5485,102.9443 675.7591,100.8209 677.5872,98.3287 681.1635,91.6757 682.1738,90.449 682.0202,95.6447 682.6823,100.4693 684.3589,105.6339 686.5434,109.5752"/>
    <polyline points="570.4541,86.9662 572.1351,86.995 575.7132,87.666 579.3033,89.0633 582.4525,91.0071 584.7118,93.2878 585.7753,95.7226 585.8143,96.9527 584.8965,99.3676 583.955,100.5303 581.2074,102.7283 575.4325,105.68 566.1423,109.0208 550.755,113.2929 546.1261,115.1331 544.1534,116.2392 541.168,118.9086 540.243,120.4922 539.7365,122.2426 539.6629,124.1474 540.0233,126.1815 541.9662,130.4665 545.2601,134.6224 547.2774,136.4601 551.7746,139.2614 554.1631,140.0954 556.5982,140.4947 559.0534,140.4442 561.5062,139.9482 566.3281,137.7142 570.9829,134.0841 577.5073,126.9154 581.3239,121.6482 584.4292,116.4774 586.5466,111.6745 587.4718,107.3 587.4592,105.2467 586.5104,101.3795 584.4716,97.9008 581.6156,95.0351 578.2609,93.0789 576.4915,92.5153 572.9216,92.2549 569.4328,93.0824 564.4252,95.9664 552.1885,106.396 550.5885,107.295 552.3148,104.5025 566.44,85.4633 569.6081,82.6058 571.2031,81.8391 572.7972,81.5879 574.3707,81.867 575.8936,82.6666 577.3275,83.9551 579.7573,87.7851 581.3499,92.8295 581.9157,98.5277 581.401,104.4307 579.8536,110.2896 577.3997,116.0642 574.2703,121.6918 570.7347,126.9212 567.0089,131.3666 563.2225,134.5538 561.3316,135.5399 559.46,136.0766 557.6246,136.1571 555.8441,135.7964 552.5332,133.8917 549.7327,130.7627 548.605,128.8954 547.0534,124.8844 546.6738,122.8681 546.7542,119.0845 547.9291,115.8845 550.0686,113.4451 552.9435,111.8463 556.2837,111.1257 559.8398,111.3297 561.6378,111.8015 565.1978,113.5311 566.9467,114.7967 570.4047,118.0907 575.5458,124.5276 584.0588,137.2598 585.8882,139.4506 585.3931,137.4301 583.8406,134.1954 577.2752,123.3214 571.5742,115.7149 566.2771,110.1558"/>
    <polyline points="452.8913,110.1558 446.932,105.6669 442.766,101.5765 438.9289,96.5615 437.0787,92.9643 436.1373,89.3343 436.2913,85.8997 437.57,83.0351 439.8205,81.1766 441.238,80.7398 442.8157,80.6677 444.5332,80.966 448.3203,82.5964 454.7461,86.9562 469.5751,98.2791 474.1677,102.1321 477.8173,105.9074 480.0471,109.7009 480.5053,111.6608 480.4811,113.6958 479.9615,115.8186 478.9559,118.0288 475.6547,122.6403 471.1093,127.2548 465.9724,131.4164 460.786,134.5714 458.2909,135.6007 455.8989,136.1888 453.6259,136.2978 451.479,135.9079 449.4607,135.0202 447.578,133.6613 445.8411,131.8788 444.2613,129.7346 441.6132,124.6023 440.5617,121.7185 439.0415,115.5201 438.3483,108.9338 438.3275,105.5275 438.527,102.0654 439.5595,95.1392 441.3127,88.632 443.5751,83.1655 446.1314,79.3696 447.4606,78.2621 448.7964,77.7388 450.1185,77.8154 451.4065,78.4827 453.8035,81.3988 455.8461,85.8531 457.417,91.0653 458.7306,99.0419 458.7669,103.9617 457.9947,108.3918 456.3607,112.3447 453.892,115.8479 450.6324,118.8005 446.6162,121.0122 441.9846,122.3161 437.0209,122.6119 432.1359,121.8472 427.874,120.0396 426.1669,118.7755 424.8378,117.2982 423.9453,115.6297 423.5325,113.7877 423.6239,111.7827 424.2235,109.6151 426.8517,104.7644 431.026,99.2667 436.1381,93.3971 441.5436,87.7084 446.7328,82.8883 451.4044,79.6136 453.5068,78.7279 455.4473,78.4056 457.2175,78.669 458.8046,79.517 460.1947,80.9156 461.3764,82.7996 463.0973,87.6563 464.0029,93.2948 464.0657,101.7567 462.881,109.0646 460.8444,114.6875 458.2913,118.4983 456.4208,119.9463 454.4828,120.4928 452.486,120.1835 450.3714,119.1214 448.1181,117.4315 444.5872,113.9568 441.0464,109.6115 438.8204,106.3592 436.0203,101.3411 434.687,98.1727 433.7237,94.005 433.8943,91.7647 434.719,90.0719 436.1114,89.0116 437.8959,88.6279 439.8046,88.898 441.5493,89.6808 443.3437,91.3666 443.7359,92.6109 443.6271,93.2273 442.7229,94.3845"/>
    <polyline points="339.5055,110.1558 332.5798,107.6931 324.4807,104.1861 318.5861,101.1278 313.1909,97.7199 309.1782,94.2456 307.9493,92.5927 307.3431,91.0607 307.4029,89.6973 308.1379,88.5461 309.5141,87.6437 311.4535,87.0212 316.5669,86.7051 319.4908,87.0332 325.5315,88.626 331.3656,91.262 339.1986,96.3523 350.0895,105.5441 353.6582,109.0871 356.4708,112.4529 358.2654,115.5793 358.7128,117.0131 358.5981,119.504 358.007,120.508 355.773,121.9111 354.1759,122.2729 352.3077,122.3931 347.9432,121.9045 340.4335,119.5723 324.2818,112.108 319.6278,109.5204 316.1222,107.0628 314.1857,104.8531 313.8902,103.8845 314.0602,103.0264 315.7513,101.6859 318.9706,100.9435 325.4794,101.1907 330.0741,102.2746 336.3059,104.9085 341.1512,108.2893 343.3868,110.9173 344.1353,112.3624 344.7658,115.4913 344.1047,118.7939 342.0501,122.0193 338.5611,124.8792 333.6178,127.0823 327.3414,128.3413 320.1614,128.4665 312.8592,127.4317 306.4371,125.3441 303.8871,123.9703 301.9397,122.4212 300.692,120.7347 300.2109,118.952 300.527,117.1139 301.6309,115.2565 303.4581,113.4071 305.8946,111.5812 311.9993,108.0088 330.9713,98.1155 337.5115,94.0987 344.1198,89.4835 344.2583,89.7469 343.8074,90.6179 341.7749,93.5251 336.2195,100.8444 334.7959,102.1189 334.8684,101.245 335.8379,99.7662 338.8455,97.1841 343.5207,94.8822 347.5278,94.0107 351.184,94.0303 353.0082,94.5743 353.6345,95.0369 354.1693,96.4042 354.0409,97.318 352.9561,99.5887 350.7679,102.4227 347.5438,105.7725 338.6291,113.6362 327.5684,122.0701 316.2204,129.631"/>
    <polyline points="238.2389,117.5794 248.5184,109.3795 252.4121,105.0737 253.7333,102.8406 254.5413,100.5657 254.8009,98.2669 254.5102,95.9695 253.6901,93.7078 252.3781,91.5263 250.622,89.4794 248.4753,87.6295 245.9984,86.0429 243.256,84.7829 240.3134,83.902 237.233,83.4334 234.0719,83.3848 227.693,84.458 221.4243,86.7781 212.6114,91.4686 203.7776,97.4248 201.5048,99.5428 200.9672,100.9129 201.3266,101.3147 203.1294,101.5703 207.8072,100.6272 213.4482,98.1215 216.9726,95.6731 219.9161,92.7943 222.7952,88.291 223.289,86.9261 223.5749,84.7123 223.0366,83.4928 221.8356,83.489 219.0157,85.7168 212.1005,93.3088 207.1215,98.1384 202.2127,101.5962 199.5427,102.7862 197.8754,103.0402 197.5302,102.8205 197.5376,102.371 198.5684,100.7977 205.4034,93.7064 213.766,85.9975 217.5137,83.6883 219.2655,83.6319 219.9236,84.0337 220.8267,85.555 221.2154,89.0083 220.4993,92.8061 218.6896,95.9889 216.8973,97.4402 215.849,97.9035 213.5513,98.2121 212.3536,98.0291 209.9823,96.9569 206.7478,93.7651 204.9769,90.9468 203.7037,87.9613 203.0917,83.962 203.6707,82.1812 204.2576,81.6944 205.9986,81.659 208.4083,82.9016 212.7761,86.9484 217.0085,92.9982 220.1803,100.1078 222.0608,107.3371 222.6554,111.9109 222.8089,116.1805 222.6345,119.9837 221.9348,124.2612 221.196,125.824 220.7398,126.1729 219.6387,126.0116 218.2705,124.7725 216.6445,122.5638 212.9647,115.7249 210.4011,108.9321 208.5938,100.9011 208.1341,92.0447 208.741,86.4145 210.0146,81.8993 210.8461,80.3255 211.7705,79.3206 212.7615,78.931 213.7977,79.1637 214.862,79.9939 215.939,81.3691 218.0734,85.4345 221.0228,93.3413 226.1196,110.1558"/>
    <polyline points="112.7338,110.1558 96.521,104.7221 89.9866,102.1366 84.0434,99.117 81.609,97.4863 79.6876,95.8161 78.3743,94.1466 77.739,92.5228 77.821,90.9919 78.6268,89.5996 80.1202,88.3879 82.218,87.3932 87.7333,86.1633 90.8747,85.9585 97.3062,86.3617 100.4148,86.9327 106.1441,88.6522 113.2612,92.0662 117.0689,94.4557 121.4348,97.7246 124.0403,100.2456 124.7642,101.6148 123.5633,101.5863 120.6124,100.1567 109.6875,93.1523 102.5091,89.3114 99.0914,87.9734 96.0695,87.194 92.8457,87.2645 92.223,87.612 91.7449,88.7248 92.3187,90.2779 92.993,91.165 96.3445,93.9803 102.4807,97.3703 108.0804,99.7221 111.343,100.4009 113.0797,100.1933 114.3805,99.5276 115.1122,98.6136 115.1847,97.6707 114.6204,96.8244 113.5273,96.1151 110.0935,95.1913 105.2486,95.0864 100.0475,96.0216 97.9739,97.0263 96.1556,99.0803 95.9442,99.8456 96.1161,101.397 97.6713,103.5801 101.8214,106.3712 104.9523,107.2832 106.185,106.9385 106.6826,106.4886 107.6436,103.7868 107.8088,100.805 107.5726,97.0402 106.0631,88.5945 104.9523,84.888 103.7275,82.2209 102.4767,80.9985 101.8664,80.997 101.2783,81.4071 100.1958,83.3718 96.3741,98.8731 94.5728,104.0423 92.8989,107.6217 95.6199,97.9349 97.2596,89.7275 98.0079,82.0177 97.8086,78.5537 97.5119,77.602 97.0991,77.2484 96.5826,77.5167 95.3065,79.8554 93.8617,84.1599 92.4908,89.6643 91.1353,98.5786 90.9513,104.2054"/>
    <polyline points="339.5055,450.3133 330.126,446.1947 322.7986,442.5917 318.7148,440.0777 317.52,438.7324 317.5041,438.2039 318.6821,437.5351 321.2822,437.5413 324.8779,438.3861 329.061,440.1232 336.0252,444.2077 346.6704,451.7447 355.5067,458.7761 363.6858,466.523 367.6119,471.4519 368.8241,473.6477 369.4364,475.5693 369.4074,477.1491 368.7224,478.3279 367.3999,479.0598 365.4954,479.3151 363.0943,479.0829 357.2311,477.2208 350.7091,473.8166 344.3491,469.3945 338.6965,464.4982 332.0111,457.2472 328.9801,452.8892 327.2889,449.0315 326.9847,447.2834 327.0497,445.6539 327.4814,444.1469 329.3953,441.5293 332.5654,439.4978 336.7954,438.138 341.9227,437.5367 344.783,437.5378 354.0258,438.7134 359.888,440.3321 362.4106,441.3377 366.1204,443.668 367.1431,444.9738 367.5352,446.3651 367.2673,447.8369 366.333,449.3838 364.7565,451.0004 362.5917,452.6839 356.8114,456.2283 345.8034,461.8127 333.4437,467.281 320.6016,471.8905 312.8274,473.958 306.9377,474.8303 305.0532,474.7455 304.0256,474.2997 303.9246,473.5038 304.7771,472.386 309.1732,469.3643 316.3425,465.6626 325.0374,461.7184 343.5166,454.4268 371.8398,445.7028 375.5322,443.848 376.1935,442.9538 376.0379,442.0593 375.0891,441.1501 373.4163,440.2155 355.4873,433.7321 347.0627,430.055 341.7013,426.9693 340.1426,425.6984 339.9687,425.3704 340.1873,425.2679 351.7476,430.0354 367.7244,435.7044 370.3944,437.3024 370.7796,438.0728 370.4744,438.8236 367.8206,440.2563 362.8699,441.5724 356.4428,442.7393 341.9841,444.3544 319.685,445.4232 313.0046,446.0749 307.7362,447.1929 305.86,447.9685 304.5847,448.9037 303.952,450.0071 303.975,451.2863 304.6424,452.7516 305.9119,454.4115 327.3747,473.9809"/>
    <polyline points="339.5055,563.6991 337.6795,564.5151 336.8194,564.3603 336.9048,563.1792 340.4068,549.5753 342.5985,543.1403 344.5884,539.5998 347.0245,537.3017 348.3847,536.7555 349.8122,536.653 351.278,536.9995 352.7464,537.7763 355.5204,540.4215 357.7633,544.0231 359.1231,547.9155 359.3444,551.508 358.9834,553.0425 358.3068,554.3447 357.3314,555.3877 356.0874,556.1576 354.6138,556.6529 351.1474,556.8656 347.2747,556.177 343.3187,554.7776 337.8097,551.7509 334.6807,549.4239 329.6049,544.8784 328.8669,544.5178 328.7886,544.784 334.2297,559.0723 335.9215,564.2751 337.3641,570.1473 338.4635,576.7101 339.3451,587.1888 339.2479,593.589 338.927,596.2698 338.3945,598.449 337.6331,600.0253 336.6327,600.9205 335.3903,601.0861 333.9105,600.5081 332.2061,599.2139 328.2182,594.827 314.9121,576.8377 310.6981,569.8325 310.0933,568.0138 309.9628,566.4369 310.3265,565.0802 311.1839,563.9182 314.2441,562.0593 339.7939,554.6593 347.6449,551.7653 355.3864,548.3119 362.1668,544.3921 365.4417,541.7712 367.266,539.3951 367.5645,538.3741 367.4475,537.5048 366.9307,536.8145 366.0483,536.3263 363.3945,536.0114 358.1207,537.1615 354.4104,538.763 350.963,540.6997 345.8791,544.5927 344.2262,547.0612 344.1797,548.2745 344.9005,549.0149 347.1858,549.2318 354.1186,547.9388 357.5616,547.8579 359.3256,548.5669 360.3641,549.9613 360.4617,551.929 360.1117,553.0725 357.445,556.9148 352.8002,561.1632 335.4214,574.9235 328.2487,579.9636"/>
    <polyline points="339.5055,677.085 348.8399,647.9894 351.1847,642.7999 351.7786,642.2571 352.2508,642.3836 352.7564,644.6269 352.7541,646.6435 351.5775,655.0736 348.6996,664.5983 346.0619,670.3024 343.0564,675.0213 341.4568,676.9615 338.1062,679.9761 334.5728,681.795 330.9071,682.3423 327.2234,681.5235 325.4308,680.5701 322.0852,677.5576 319.2615,673.1336 317.1858,667.5248 316.0396,661.1897 315.8547,657.9424 316.2838,651.729 317.6946,646.5067 318.7059,644.497 319.8794,643.0028 321.1818,642.0969 322.5776,641.8341 324.0308,642.2459 325.5071,643.3347 326.9753,645.0612 329.7851,650.0874 332.2998,656.4313 334.421,663.1574 337.3156,675.6681 338.0572,681.3773 338.307,686.9241 338.0647,692.1953 337.4116,696.8964 336.4401,700.6485 335.1597,703.0645 334.3908,703.6578 333.5286,703.7951 331.5154,702.6541 327.8276,697.8078 322.026,688.0891 317.8463,680.183 315.7315,674.9012 314.497,669.6312 314.2874,664.5514 315.0775,660.0123 315.8003,658.0786 317.7499,655.1361 320.1225,653.6753 321.374,653.553 322.6259,653.8409 323.8517,654.5278 326.1345,657.0125 327.1531,658.7487 328.876,662.997 330.5977,670.5219 331.5887,680.9641 331.5257,692.672 331.1553,697.2038 330.7144,698.4332 330.2333,694.589 330.223,688.7803 330.6624,682.0753 331.5124,675.5749 332.661,669.63 334.0878,664.4278 335.2811,661.5423 336.7809,659.2694 338.6742,657.72 340.9884,656.9925 343.6622,657.1494 347.9772,658.9544 352.0033,662.2009 354.19,664.9147 356.2645,669.4651 356.6148,672.5826 356.04,675.6266 355.3982,677.1028 353.4152,679.956 352.0812,681.3254 346.8234,685.0889 340.0966,688.0105 335.0535,689.161 332.4105,689.4214 327.0297,689.2567 321.8211,688.1714 317.2421,686.2315"/>
    <polyline points="112.7338,677.085 113.7148,675.7296 114.1362,674.1177 114.1238,672.5579 113.5039,670.5141 112.031,667.7327 109.7824,664.4595 105.7913,660.3275 102.0261,658.1031 99.1852,657.3574 97.7248,657.2716 94.92,657.7422 93.6689,658.3029 91.6914,660.0152 90.6601,662.3439 90.794,665.0305 92.1636,667.8188 94.6133,670.5018 97.7662,672.933 102.9197,675.9363 107.722,678.0516 111.5353,679.1441 113.3192,679.2642 114.6756,678.6098 114.6373,677.7006 113.2438,675.7325 108.367,671.4308 104.7886,669.2042 100.0289,667.0559 99.2971,666.4754 99.5219,665.9821 101.7495,665.4901 106.0426,665.2965 116.0877,665.6218 131.4034,667.369 135.5759,668.2529 136.5669,668.8218 135.888,669.2348 134.9219,669.3351 131.8665,669.2643 105.7419,665.8029 93.5015,665.223 85.6337,665.8601 82.2819,666.9486 81.3911,667.6762 81.0766,668.4948 81.3485,669.372 82.1916,670.2738 85.3797,672.039 92.6398,674.3783 100.8102,676.2075 108.2375,677.3312 112.3287,677.5258 115.6334,677.1852 118.1634,676.3063 119.1451,675.6824 120.5619,674.1325 121.2776,672.3055 121.1082,669.4671 119.6078,667.1243 117.1403,665.8157 115.1961,665.6833 113.1086,666.1082 105.9798,668.9402 102.2035,670.0303 98.6353,670.1879 95.6046,669.2324 93.4963,667.1845 92.4708,664.2439 92.5746,659.9925 93.7409,656.9989"/>
    <polyline points="112.7338,563.6991 111.1797,560.7922 109.8267,556.3651 108.8762,549.8082 108.7096,544.6118 109.0819,539.3838 110.1181,534.919 110.914,533.2223 111.9048,531.9874 113.0956,531.2637 114.4914,531.0741 116.0937,531.4148 119.8995,533.5428 136.8816,547.7071 144.6927,553.633 138.8083,549.331 132.5872,544.1538 121.7653,533.5846 122.6165,535.7372 124.3814,538.578 128.4704,543.6118 133.4218,548.2194 139.8379,553.1977 139.4022,553.7272 137.4711,553.932 132.4646,553.5968 128.4261,552.7763 124.4132,551.4114 120.8478,549.6071 116.9247,546.5788 114.9288,543.9666 114.6832,543.3069 114.8059,542.396 115.7279,542.1091 118.5185,542.9312 127.7412,547.877 133.6016,551.9498 135.3428,553.8124 135.9524,555.3735 135.8102,555.9938 134.6668,556.8254 132.5288,557.0025 129.6954,556.3778 126.5399,554.8022 123.4037,552.2124 119.2882,546.7674 116.4557,540.8122 115.5255,537.6352 115.3724,535.8402 115.553,535.6135 115.8785,535.8836 116.328,536.6621 118.246,541.7654 124.3518,560.958 127.1873,571.9042 128.2436,579.4587 128.2609,583.6333 127.7039,586.6563 127.227,587.6201 126.6317,588.1726 125.9322,588.2926 124.303,587.2082 122.5516,584.4544 120.9188,580.3237 119.6282,575.2361 118.7319,566.8101 119.0058,561.1896 119.4243,558.4496 120.0258,555.7811 121.7358,550.7492 122.8158,548.4343 125.3284,544.3427 128.1391,541.1849 129.5793,540.0445 132.3545,538.8003 133.615,538.7378 134.7402,539.0559 135.6946,539.7414 136.4488,540.7627 136.9815,542.0733 137.3374,545.3364 137.1564,547.1732 136.1174,551.0083 134.3062,554.8203 131.9561,558.4225"/>
    <polyline points="679.6629,677.085 699.0856,649.262 694.3834,656.2679 687.747,664.9615 679.527,674.4885 673.2188,680.8234 666.2253,687.0308 655.3886,695.4154 646.6742,701.1927 643.1272,702.8289 646.2346,699.9106 665.0284,685.0873 671.6138,679.186 677.3085,673.3367 681.8405,667.7538 686.1851,660.75 686.9195,659.0248 687.2467,656.8222 686.8317,656.4259 686.0371,656.5332 683.3869,658.2777 679.5104,661.9094 669.0193,673.2218 660.2251,683.8872 655.0697,691.6616 651.3411,699.3323 650.2152,702.8397 649.6622,705.9545 649.7189,708.5532 650.4002,710.53 651.6891,711.8021 653.5348,712.3165 655.8614,712.0543 658.5784,711.0321 661.5923,709.3138 668.1874,704.2464 682.5249,691.657 690.1951,686.0393 694.0996,683.6313 697.9622,681.5221 705.1669,678.2226 712.9571,675.5336 714.9458,675.2416 714.7869,675.5577 695.9922,686.1464 688.2342,691.3178 673.3061,702.0281 666.1971,706.1698 662.8093,707.5987 659.6068,708.4917 656.6597,708.7944 654.0441,708.4806 651.837,707.5564 650.1104,706.0676 648.9257,704.0942 648.3281,701.7385 648.3413,699.1113 648.9649,696.3191 650.1674,693.454 651.8823,690.5885 656.4476,685.0489 669.5023,672.9093 675.766,666.5578 680.1161,661.1588 683.382,656.0404 677.4139,664.2222 662.4924,680.5707 657.6305,687.2466 655.7506,691.5632 655.3647,693.5632 655.3888,695.3924 655.8346,697.0008 656.6971,698.3407 657.9559,699.3697 659.578,700.0518 661.5226,700.3589 663.7456,700.2718 668.8626,698.8879 671.6889,697.6145 677.7694,694.076 687.9183,687.0802 702.4455,676.6352 708.7836,671.3289 711.3424,668.6819 713.358,666.065 714.7512,663.5081 715.4679,661.0505 715.4828,658.7406"/>
    <polyline points="679.6629,790.4708 679.7513,788.4257 680.5911,785.3141 683.4791,779.2986 687.2577,774.2627 690.5741,771.325 692.4311,770.1308 694.3803,769.1715 698.3903,768.0385 702.226,767.9623 705.4698,768.8304 707.7233,770.4435 708.6645,772.5464 708.1604,774.8652 706.3508,777.154 702.0335,780.2278 697.1908,782.6118 692.0068,784.281 690.4298,784.3492 689.7231,783.765 690.5234,781.4087 693.4624,777.4769 697.8592,772.7969 705.8375,765.0753 703.2146,767.6103 699.1306,772.3029 694.4553,778.5975 691.4718,783.2622 685.2964,794.8879 677.8212,812.9555 676.4671,814.9153 675.8399,815.3125 675.2609,815.2787 674.3018,813.8862 673.6912,810.8728 673.4949,806.6551 673.9957,799.2101 674.8211,794.0725 676.7009,786.5918 678.412,781.9555 680.5572,777.8949 683.1064,774.6709 684.4864,773.4499 687.3064,771.9313 688.6769,771.6767 689.9756,771.7752 692.2183,773.0136 693.0954,774.1085 694.2328,777.0666 694.4843,780.7815 693.9244,784.9641 687.7233,806.0929 686.3829,812.4437 685.904,816.5621 694.4141,783.6773 694.5589,781.5765 694.4145,780.9463 693.739,780.568 691.972,782.2093 688.4943,788.2542 683.9704,798.0293 676.0338,817.1775 674.3309,819.9837 673.6852,820.5246 673.202,820.4409 672.8934,819.7204 672.8264,816.4597 674.1535,808.0796 677.2619,797.8043 680.3177,790.8679"/>
  </g>
</svg>
