<?xml version="1.0" encoding="utf-8" ?>
<svg xmlns="http://www.w3.org/2000/svg" xmlns:cc="http://creativecommons.org/ns#" xmlns:dc="http://purl.org/dc/elements/1.1/" xmlns:ev="http://www.w3.org/2001/xml-events" xmlns:inkscape="http://www.inkscape.org/namespaces/inkscape" xmlns:rdf="http://www.w3.org/1999/02/22-rdf-syntax-ns#" xmlns:sodipodi="http://sodipodi.sourceforge.net/DTD/sodipodi-0.dtd" xmlns:xlink="http://www.w3.org/1999/xlink" baseProfile="tiny" height="29.7cm" version="1.2" viewBox="0 0 793.7007874015749 1122.5196850393702" width="21.0cm">
  <metadata>
    <rdf:RDF>
      <cc:Work>
        <dc:format>image/svg+xml</dc:format>
        <dc:source/>
        <dc:date>2021-11-14T16:59:24.332277</dc:date>
      </cc:Work>
    </rdf:RDF>
  </metadata>
  <defs/>
  <g fill="none" id="layer1" inkscape:groupmode="layer" inkscape:label="1" stroke="#00f" style="display:inline">
    <polyline points="455.6576,576.53 450.2747,579.8364 444.457,582.7964 438.2545,585.3745 433.0512,587.1412 426.2918,588.9578 419.3028,590.3188 412.1431,591.2078 406.3328,591.5717 400.4829,591.6235 393.162,591.2486 385.8878,590.389 378.7195,589.0544 373.1,587.6546 366.2663,585.5066 359.6943,582.9394 353.4344,579.9828 347.5338,576.671 340.9876,572.2829 336.0229,568.3313 330.7033,563.3055 326.8344,558.9387 322.9015,553.5622 319.7682,548.1246 317.4502,542.7207 315.9516,537.4454 315.2646,532.3925 315.3701,527.6533 316.454,522.6366 318.159,518.8683 320.9802,515.1954 324.6036,512.3984 328.2629,510.7629 333.0688,509.8022 337.5528,509.8248 343.0867,510.8611 347.9865,512.6188 353.7579,515.6688 358.6488,519.1121 363.395,523.2816 367.9122,528.128 372.1208,533.5908 375.9472,539.599 379.325,546.0722 382.1957,552.9215 384.5099,560.0512 386.2278,567.3595 387.3201,574.7405 387.7386,580.8685 387.6434,588.0995 386.8982,595.0933 385.516,601.7419 383.5203,607.9409 380.9453,613.5907 377.2687,619.3645 373.603,623.516 369.5293,626.8526 365.1187,629.3109 360.4486,630.8389 355.6019,631.3972 350.6651,630.9599 345.7277,629.5146 340.8805,627.0631 336.2143,623.6217 331.8183,619.2205 328.424,614.8511 325.9193,610.9193 321.5706,601.9778 319.3618,595.7266 317.908,590.4004 315.908,579.0058 315.2127,566.8352 315.9072,554.165 318.0423,541.2881 321.1048,530.0888 325.9517,517.6411 331.3302,507.2828 337.7093,497.6261 345.0095,488.8544 349.5577,484.3052 354.354,480.1298 363.2759,473.8023 372.7555,468.8296 382.6482,465.3165 388.4275,463.9962 392.7995,463.3427 398.6544,462.9272 403.048,462.9604 408.8843,463.467 413.2283,464.1936 421.7741,466.5333 427.3244,468.7414 431.3886,470.7311 436.6525,473.8191 440.4683,476.453 445.3578,480.3746 448.8614,483.6122 455.4015,490.8075 462.1548,500.3172 467.8553,510.8775 472.4058,522.3119 475.3316,532.6622 477.3186,543.3832 478.4173,556.1792 478.1857,569.0753 476.9308,580.0396 474.2564,592.5303 470.3229,604.4898 465.1974,615.7093 458.9673,625.9925 451.7384,635.1589 443.6332,643.0479 438.6601,646.9281 434.7881,649.521 426.7299,653.8555 421.1648,656.0924 416.9111,657.4179 411.1573,658.7075 406.7974,659.3125 398.0194,659.5834 393.6276,659.2485 387.7982,658.3166 379.1719,655.8908 374.939,654.2238 369.4057,651.5423 365.354,649.1954 360.1041,645.6334 351.4078,638.2693 343.4442,629.5805 336.3251,619.7208 330.1451,608.8641 327.0651,602.2857 324.3277,595.4817 320.3872,583.1497 317.2388,568.6338 315.5451,553.9841 315.2804,539.5319 316.3831,525.6019 317.4187,518.9305 319.1384,510.9408 320.8336,504.8713 323.3213,497.742 325.5812,492.4421 328.7072,486.3681 331.4203,481.9811 335.0368,477.1248 338.0792,473.7659 342.0254,470.2519 345.2647,468.0047 349.3723,465.9168 353.4959,464.6415 357.5834,464.184 361.5836,464.5417 365.4469,465.7045 369.8357,468.1378 373.2347,471.001 376.9417,475.3905 379.6776,479.7964 382.0569,484.8333 384.0512,490.4493 385.9031,497.8727 386.9736,504.5569 387.6007,511.6239 387.7767,519.0053 387.4997,526.63 386.773,534.4255 385.6051,542.3184 383.6412,551.8145 381.5588,559.6628 378.5621,568.8953 375.6851,576.353 371.8288,584.9196 368.324,591.6662 363.8326,599.2042 359.1045,606.0476 354.2236,612.1153 349.2776,617.3385 344.3563,621.6606 339.5507,625.0385 334.211,627.7476 329.964,628.9977 325.5132,629.2069 321.7252,628.0962 318.7155,625.7161 317.3846,623.8137 316.358,621.5378 315.3365,616.7153 315.4463,610.0296 316.709,603.3049 319.084,595.9213 322.5711,588.0399 327.1488,579.8288 332.7739,571.4595 339.3822,563.1038 345.7659,556.0801 352.7469,549.2922 360.2522,542.837 368.2009,536.8051 376.5045,531.2792 385.0691,526.333 393.7956,522.0302 402.5818,518.424 411.3236,515.5556 419.9162,513.4546 429.6137,511.9952 437.5297,511.5986 444.9773,511.9806 451.8645,513.1192 459.0779,515.358 464.4686,518.0052 469.739,521.8636 473.3185,525.7546 476.3374,530.8696 478.0616,536.4797 478.4616,542.4449 477.5305,548.6189 475.6845,553.9639 472.8952,559.2584 469.1975,564.4098 464.6378,569.3286 460.2206,573.1882 454.2362,577.4634 447.5766,581.2807 440.3245,584.5744 433.8929,586.8781 425.7915,589.0721 418.7881,590.3994 410.1697,591.3667 402.8799,591.6402 395.5567,591.425 388.2607,590.7233 381.0513,589.5428 372.5963,587.5133 364.4467,584.8472 356.6941,581.5887 349.4235,577.7921 342.7123,573.5212 336.6293,568.848 331.2337,563.8515 326.5743,558.6169 322.1188,552.329 318.7575,545.9872 316.5095,539.742 315.3724,533.7438 315.3221,528.139 316.3141,523.0671 318.6406,518.0891 321.6262,514.5792 323.69,512.9693 325.9884,511.6675 330.5068,510.171 335.5467,509.7172 340.9719,510.3423 345.8217,511.7478 351.5851,514.3953 356.5119,517.5068 361.3323,521.3625 365.9603,525.9182 370.3139,531.1183 374.317,536.8961 377.8996,543.1754 380.9998,549.8708 383.5641,556.8895 385.5483,564.1321 386.9185,571.4944 387.5741,577.6435 387.7656,584.9442 387.3052,592.0556 386.2007,598.869 384.471,605.2782 382.1458,611.1813 379.2649,616.4822 375.2683,621.7876 371.3656,625.4908 367.0939,628.3423 362.5279,630.2847 357.7484,631.2732 352.8402,631.2758 347.892,630.2741 342.994,628.2638 338.2371,625.2546 333.7115,621.2706 330.1803,617.233 327.5481,613.5539 324.5382,608.4231 322.3826,603.9182 320.0385,597.8253 318.468,592.6131 316.9151,585.7219 316.0208,579.9451 315.3608,572.4474 315.2136,566.2691 315.9726,553.5831 318.1737,540.7039 321.83,527.9341 324.1977,521.6856 326.9174,515.5783 329.9802,509.6494 333.3752,503.9353 337.0893,498.471 341.1071,493.2908 348.8161,485.0055 353.5744,480.7686 358.562,476.9285 367.7692,471.2372 373.2596,468.6107 378.8826,466.463 384.6094,464.8095 388.955,463.9017 394.7924,463.1424 400.6512,462.9055 406.5004,463.1957 410.8624,463.7603 416.6202,464.9745 420.878,466.2292 426.4499,468.3554 430.5334,470.285 435.827,473.2945 439.6682,475.8713 444.5952,479.7194 448.1297,482.904 455.7758,491.2722 462.4772,500.8403 468.1202,511.4505 472.6088,522.925 475.8665,535.0698 477.8375,547.6777 478.4881,560.5324 477.8072,573.4119 475.8065,586.093 472.5201,598.3553 469.4159,606.7387 466.4986,613.1624 463.2129,619.2946 459.5773,625.1002 454.5715,631.8475 450.2249,636.7998 445.6002,641.3251 440.7229,645.3975 434.312,649.8157 428.9661,652.7878 423.4586,655.2412 417.8194,657.1619 410.6316,658.7973 404.808,659.4841 398.9528,659.6141 393.0971,659.1868 387.2716,658.2047 381.5068,656.6737 375.8325,654.6027 368.9108,651.2735 363.5445,648.0365 358.3593,644.3099 353.3804,640.1154 347.4832,634.2514 343.0534,629.0966 338.9015,623.562 335.0456,617.6793 330.6666,609.8885 327.533,603.3495 324.7404,596.5789 322.298,589.6153 319.748,580.7004"/>
  </g>
</svg>
