<?xml version="1.0" encoding="utf-8" ?>
<svg xmlns="http://www.w3.org/2000/svg" xmlns:cc="http://creativecommons.org/ns#" xmlns:dc="http://purl.org/dc/elements/1.1/" xmlns:ev="http://www.w3.org/2001/xml-events" xmlns:inkscape="http://www.inkscape.org/namespaces/inkscape" xmlns:rdf="http://www.w3.org/1999/02/22-rdf-syntax-ns#" xmlns:sodipodi="http://sodipodi.sourceforge.net/DTD/sodipodi-0.dtd" xmlns:xlink="http://www.w3.org/1999/xlink" baseProfile="tiny" height="29.7cm" version="1.2" viewBox="0 0 793.7007874015749 1122.5196850393702" width="21.0cm">
  <metadata>
    <rdf:RDF>
      <cc:Work>
        <dc:format>image/svg+xml</dc:format>
        <dc:source/>
        <dc:date>2021-11-14T21:35:28.743498</dc:date>
      </cc:Work>
    </rdf:RDF>
  </metadata>
  <defs/>
  <g fill="none" id="layer1" inkscape:groupmode="layer" inkscape:label="1" stroke="#00f" style="display:inline">
    <polyline points="87.6632,1002.5657 95.3536,1001.0077 101.1695,1000.2397 111.8812,999.7583 116.1951,1000.0191 121.2377,1000.8618 124.4859,1001.9461 125.5664,1002.6292 125.7791,1003.1787 124.4926,1003.4948 121.3326,1002.8961 82.4728,991.3184 90.2508,993.7925 107.9611,1000.6033 112.4128,1001.8576 116.4502,1002.4077 120.1736,1002.2092 125.2545,1000.7096 130.5789,997.5613 132.2726,996.0651 133.2477,994.5718 132.8445,994.3116 132.3697,994.436 130.9917,995.1933 124.8212,999.9744 122.4391,1001.3807 118.8258,1002.4413 116.422,1002.3296 112.7374,1000.8362 108.858,997.8088 104.9828,993.8336 100.0609,987.8344 105.2249,993.361 110.6847,998.5422 114.8947,1001.9018 119.3436,1004.6542 123.8618,1006.4349 126.0819,1006.8897 130.3196,1006.8842 134.1544,1005.6944 137.4,1003.4125 138.7191,1001.8981 140.5715,998.2029 141.0498,996.0715 141.0549,991.4781 139.8605,987.0067 138.8724,985.0923 137.6679,983.5489 136.2856,982.4769 134.7663,981.9462 133.1519,981.9865 131.4816,982.5928 128.1117,985.3482 124.8989,989.6774 120.8122,997.4506 118.118,1004.5938 117.1973,1009.4971 117.5911,1011.1075 118.0735,1011.3674 118.742,1011.2582 121.9094,1008.7461 133.9999,995.482 141.5481,987.9163 145.7188,984.5532 147.2426,983.6849 148.2802,983.4261 148.777,983.7786 148.7094,984.715 148.0805,986.1824 146.9176,988.1071 143.2257,992.9559 138.2796,998.4614 127.5698,1008.6409 121.1111,1013.8994 116.2301,1017.3945"/>
    <polyline points="208.5343,1028.3502 210.3956,1027.8827 213.8957,1026.0956 218.2433,1023.153 221.2085,1020.7293 226.5937,1015.2673 232.031,1007.8256 233.1759,1006.652 234.0629,1006.6222 234.9127,1008.8289 235.0088,1015.2914 234.06,1021.8326 232.0769,1028.9357 229.0498,1035.5113 226.4332,1038.9031 223.4153,1041.0152 221.8135,1041.4993 220.1912,1041.5799 218.5837,1041.2587 217.0269,1040.5486 215.5551,1039.4722 212.9955,1036.3568 211.1402,1032.2484 210.5376,1029.9396 210.0703,1025.0314 210.2253,1022.5063 211.317,1017.4554 213.3656,1012.4966 216.1437,1007.7301 219.3127,1003.3108 224.0108,997.8313 226.7002,995.4245 228.8599,994.4234 229.7272,994.5068 230.4552,994.9701 231.5073,996.8982 232.0335,999.8019 232.0528,1003.1806 231.6044,1006.5786 230.7542,1009.6012 229.5652,1011.9429 228.0674,1013.4226 226.326,1013.9658 224.4596,1013.5683 222.5869,1012.2578 220.812,1010.0878 219.2357,1007.1518 217.9584,1003.5976 217.0535,999.6369 216.4659,993.6239 216.6306,990.2278 217.2683,987.9452 217.7619,987.3638 218.3634,987.1988 219.8354,988.121 221.5229,990.5494 223.2313,994.1 225.541,1000.4243 229.53,1013.1425 229.7641,1014.8226 229.2953,1015.08 226.275,1013.3816 222.0783,1010.0473 214.4513,1002.5868 210.324,997.7927 206.6023,992.8808 203.8468,988.5872 202.9901,986.9317 202.5322,985.0748 202.961,984.9964 203.8186,985.5147 205.0771,986.6184 208.6176,990.4194 220.6708,1005.6848 232.092,1021.648 243.7353,1040.3536 236.4881,1027.7685 229.6159,1017.3945"/>
    <polyline points="343.0017,1017.3945 343.2072,1011.057 342.7845,1006.9502 341.8922,1002.3913 339.5367,995.7952 337.1578,992.3237 335.7072,991.0521 334.0908,990.1551 332.3273,989.6643 330.4466,989.5944 328.4855,989.9438 324.494,991.8038 322.5584,993.222 319.0552,996.7202 316.3591,1000.6396 314.7926,1004.4591 314.5409,1007.7829 315.5986,1010.3833 317.7587,1012.1758 319.1437,1012.7605 322.2723,1013.2775 325.5619,1012.8416 328.6946,1011.3289 331.4329,1008.6606 332.6023,1006.9014 333.6239,1004.8851 335.2082,1000.2419 336.1663,995.1907 336.4511,990.388 335.9537,986.6013 335.3834,985.3203 334.6016,984.5482 333.6259,984.336 332.4851,984.709 329.8634,987.1622 327.0819,991.4854 324.476,996.9178 322.3589,1002.6577 321.019,1008.0695 320.7177,1010.5155 320.9427,1014.7086 321.4733,1016.4055 323.3099,1018.9309 324.5744,1019.7532 327.6899,1020.5132 331.475,1020.0591 335.8047,1018.3308 338.1319,1016.9731 340.5518,1015.2822 345.6694,1010.9263 354.0354,1002.3124 369.8127,984.4479 372.9792,981.5287 373.8936,981.0748 374.3152,981.339 373.6485,983.9284 371.1078,988.6651 367.078,994.4863 362.0973,1000.355 359.4297,1003.0649 354.0301,1007.7426 351.3774,1009.6488 346.2901,1012.5483 341.5871,1014.2755 337.3719,1014.9167 333.8429,1014.5435 331.2203,1013.2114 329.644,1010.9764 329.1527,1007.9381 329.7107,1004.3106 331.2135,1000.4625 333.4762,996.8937 336.2633,994.1551 337.7876,993.2601 339.3786,992.7547 341.0284,992.6775 342.7323,993.049 346.2831,995.1016 348.106,996.7043 351.7229,1000.754 356.5469,1007.9576 358.9074,1012.9586 360.2149,1017.9127 360.4023,1020.3644 359.8119,1025.1883 358.0841,1029.7254 355.5823,1033.6278 352.7123,1036.5012 349.8085,1038.0447 347.1124,1038.1265 344.7548,1036.7398 343.7175,1035.5247 341.9273,1032.1795 340.5094,1027.8324 339.0877,1019.9226 338.4886,1010.5065 338.8071,996.3229 339.9082,984.7936 340.683,982.0478 341.1495,981.6896 341.6805,982.0386 342.9568,984.7316 347.3378,998.0543 349.4574,1003.4642 351.7053,1007.9562 353.986,1011.2363"/>
    <polyline points="343.1303,921.9438 342.6162,919.3529 341.4391,917.7855 338.6061,916.1377 336.2563,915.7085 333.8513,915.9113 330.724,917.2773 328.6112,919.2443 327.8295,920.4055 327.595,921.416 328.3663,921.2998 329.3249,920.5912 333.1912,916.4793 335.1462,913.6181 335.4884,912.6206 335.1637,912.114 333.56,913.7248 331.9198,916.3752 327.2622,927.0956 330.9726,920.0173 343.6135,898.5703 354.1042,879.696 356.0492,876.8206 356.8001,875.9928 357.7371,875.6848 357.8117,877.1141 357.513,878.4016 356.2827,881.8723 353.1096,888.3967 350.3465,892.8818 347.3197,896.9175 344.2454,900.1615 341.2281,902.4729 338.2378,903.8768 335.2286,904.4714 330.7742,904.0155 328.0167,902.8519 325.6082,901.0435 323.7201,898.7131 323.0299,897.4114 322.25,894.6847 322.3047,892.0152 322.6285,890.7925 323.7912,888.7613 325.4997,887.4967 326.4994,887.2046 328.6512,887.3413 330.8067,888.4221 332.7491,890.3569 334.3053,892.992 335.3378,896.143 335.7532,899.6505 335.5016,903.4237 334.5569,907.4519 332.9307,911.7266 330.7086,916.1172 328.0784,920.377 323.9264,925.729 321.4066,928.006 319.397,928.8806 318.6635,928.7599 318.1482,928.2816 317.8564,926.3612 318.1038,924.9962 319.3807,921.7049 322.954,916.2423 326.0575,912.9373 329.3855,910.2976 334.2118,907.7695 338.2021,906.719 342.9195,906.2955 343.4104,905.2846 343.0017,904.0087"/>
    <polyline points="446.6292,915.7282 455.9117,917.6894 464.6665,921.1972 469.9687,924.1546 474.4557,927.1756 477.6552,929.766 478.6352,930.7427 479.1992,931.8011 476.6118,930.7295 472.975,928.2538 465.8511,922.5612 460.822,918.0071 451.7725,908.6479 448.0276,904.2345 444.998,900.0038 442.9113,895.8547 442.2958,893.7933 442.0161,889.7213 442.3577,887.7483 443.9394,884.0809 446.5522,881.0337 448.1817,879.8314 452.008,878.1918 456.5481,877.6322 461.8281,878.1092 467.8242,879.5012 477.5805,882.9741 483.7332,885.9439 488.5254,889.1553 490.0968,890.7694 490.9884,892.3479 491.1512,893.8627 490.5796,895.2885 489.3014,896.6027 487.3747,897.7834 481.9296,899.6657 478.628,900.3359 471.4419,901.0964 464.1409,901.1147 457.2423,900.5103 450.9403,899.4126 445.3634,897.8947 440.826,895.9842 439.065,894.8869 437.6934,893.7008 436.7325,892.4347 436.1882,891.1022 436.0508,889.7228 436.297,888.3231 437.813,885.606 440.4428,883.2977 442.0683,882.4143 445.7221,881.3978 449.6777,881.5862 451.7079,882.1746 455.8112,884.3182 462.0395,889.5474 468.1572,896.2184 473.5477,903.2186 476.2457,907.7076 477.209,909.8545 478.2343,913.8501 478.2763,915.6488 477.442,918.7182 476.5867,919.9408 474.0747,921.6678 472.4598,922.1501 468.6469,922.3414 464.265,921.5336 459.5343,919.8163 438.9408,908.8657 432.9482,906.0028 430.457,905.1371 438.3857,911.5705 442.2493,915.3343 447.7796,921.8662 454.318,931.1852 455.738,932.5645 456.1885,932.5033 456.4565,931.9222 456.5302,930.8328 455.4608,924.8693 452.2761,915.9964 448.9318,909.2499 442.0831,898.6081 436.468,891.2633 422.9508,875.0348 420.4261,871.4594 420.2097,870.6509 420.714,870.5363 423.7196,872.3223 431.8686,879.162 441.5864,888.5324 456.3876,904.0087"/>
    <polyline points="445.1149,995.9747 450.5661,1003.3756 451.9594,1004.5486 450.2276,1001.3135 446.9428,997.5478 443.3482,994.7454 440.5276,993.2538 436.2733,992.1185 433.8668,992.2845 432.0638,993.1959 431.4365,993.9123 430.7853,995.8012 431.3056,999.4666 433.1452,1003.3631 435.4928,1006.5841 438.5203,1009.487 434.3862,1004.0123 433.0674,1000.8414 433.1545,998.9125 433.5778,998.0875 435.1998,996.8599 437.6719,996.3568 439.1046,996.4168 442.0653,997.1803 443.4843,997.8703 444.8056,998.7442 447.0485,1000.924 448.6587,1003.4261 449.553,1005.9412 449.6296,1008.2157 448.7795,1010.0687 447.9897,1010.8006 445.722,1011.8373 440.9791,1012.3373 437.3735,1012.0162 433.878,1011.2022 430.9688,1009.9502 429.8856,1009.184 428.7103,1007.4205 428.6761,1006.4432 429.0198,1005.4187 430.7776,1003.3023 433.7324,1001.2814 437.4829,999.6242 443.5415,998.2938 447.1696,998.3825 448.7149,998.753 451.128,1000.1763 451.9674,1001.2258 452.8911,1003.9394 452.7991,1007.299 452.3712,1009.1415 450.7834,1013.0262 448.3561,1017.1219 440.6337,1028.5761 437.8011,1033.5173 435.5933,1038.2981 434.2776,1042.4771 434.0187,1044.1772 434.3653,1046.4985 434.9716,1047.0325 435.8512,1047.1179 438.3263,1045.9504 441.5306,1043.1891 445.1716,1039.2717 452.6837,1030.0376 463.9328,1014.6696 469.2418,1008.567 465.0372,1010.5897 462.4012,1012.2337 456.3876,1017.3945"/>
    <polyline points="551.6727,1037.0355 557.4258,1046.9861 558.8267,1048.3425 559.2401,1048.196 559.4234,1046.2593 558.683,1042.4006 555.7982,1034.2067 551.1497,1024.949 541.2029,1008.4301 539.4712,1004.202 539.156,1002.4691 539.2401,1001.043 539.7236,999.9593 540.5876,999.2449 541.7959,998.9134 543.2963,998.9627 546.8974,1000.1346 548.8354,1001.2015 552.5754,1004.1101 554.2397,1005.8654 555.7002,1007.7623 557.906,1011.8094 558.6326,1013.884 559.3543,1018.0002 559.3711,1020.0155 558.7788,1023.8949 557.4332,1027.4039 555.4452,1030.2855 554.2572,1031.411 551.6343,1032.8927 548.9295,1033.2321 547.649,1032.9617 545.4398,1031.5999 543.9605,1029.3491 543.5756,1027.9863 543.6103,1024.9535 544.033,1023.3313 545.5888,1019.9605 552.9789,1009.3754 556.1371,1004.3059 557.8503,1000.2538 558.0318,999.2939 557.7914,998.1254 556.7717,998.0043 555.02,998.8355 541.5602,1008.2623 547.2401,1003.7924 551.6852,999.4141 555.4229,994.8245 557.843,990.8166 552.6441,998.7194 550.3035,1003.1403 548.2532,1007.9127 546.8109,1012.7474 546.3954,1015.124 546.2803,1019.7538 546.6035,1022.019 547.9911,1026.4878 551.5771,1033.0166 554.5981,1037.0023 557.8187,1040.3053 561.0009,1042.5658 562.5077,1043.2223 563.9251,1043.5427 566.4157,1043.1949 568.3622,1041.6605 569.7085,1039.1875 570.5085,1034.307 570.1815,1030.6169 569.1913,1026.815 566.5663,1021.1386 562.7411,1015.5656 547.2823,998.1898 561.2629,1009.7849 569.7734,1017.3945"/>
    <polyline points="579.3574,929.9932 580.6323,933.155 577.031,920.1949 571.701,903.6826 570.0832,900.0749 568.2992,898.4027 567.1224,898.4344 565.8443,899.9899 565.5895,902.9333 566.0972,905.4848 569.4227,913.5247 574.4119,922.4836 577.3833,926.2323 579.0441,927.1956 579.7396,927.1468 580.3299,926.7527 581.1563,925.0282 581.4151,920.6669 580.6044,915.1699 579.0876,909.5831 577.0873,904.8273 575.5125,902.3914 572.8942,899.8093 570.0743,898.2551 566.8996,897.6995 563.0138,898.4038 556.5104,901.1884 549.0732,905.1562 544.0827,908.5422 541.7789,910.8691 540.7366,913.1892 541.1813,915.4891 543.0943,917.7093 546.2138,919.6756 548.1115,920.4877 552.3359,921.6232 556.8098,921.986 561.1537,921.5402 565.0291,920.3363 568.2488,918.4819 570.8161,916.1164 572.8266,913.3938 574.8451,908.9959 575.4246,906.1214 575.0287,902.2947 573.2243,899.1249 570.2503,896.5399 566.4018,894.5615 561.9127,893.2562 558.6965,892.8141 555.4642,892.7782 551.0305,893.5443 548.6728,894.5227 547.0667,895.726 546.4119,897.0252 546.4795,897.6886 547.4363,899.0496 549.4681,900.5166 558.1508,905.2476 564.3935,909.1952 579.3379,921.1059 583.4607,924.0138 586.948,925.9335 588.3229,926.4262 590.1503,926.4155 590.5678,925.9314 590.6546,925.1605 589.9058,922.9074 588.102,919.9972 585.4949,916.771 582.3718,913.5266 577.438,909.1738 573.2059,906.0382 569.7734,904.0087"/>
    <polyline points="584.2254,794.2499 582.3173,791.1528 573.1312,778.952 567.1363,772.8228 562.0584,768.8516 556.8739,766.0539 553.5682,765.1349 550.6072,765.0972 549.3432,765.4101 547.4471,766.6295 546.88,767.4832 546.5753,769.493 546.8208,770.5622 547.9829,772.6119 550.8509,774.915 554.159,775.8136 556.9645,775.4363 558.1273,774.662 558.4247,774.1382 558.3932,772.8386 558.0595,772.0867 555.8152,769.7059 551.9228,767.7712 548.8474,767.0697 544.7391,767.2045 543.1214,768.1613 542.8083,768.8916 542.8692,769.7666 543.3178,770.7601 545.3456,772.9855 548.6423,775.3551 561.0141,782.4629 565.8114,785.6399 568.5524,788.3371 568.9484,789.1467 568.9557,790.6862 567.9357,792.1759 565.8964,793.6417 561.0144,795.737 554.3607,797.6431 538.9183,801.2001 537.4054,801.8577 537.4727,802.1227 539.2414,802.5028 542.9247,802.6398 550.8455,802.3532 577.1029,799.5639 572.0907,802.0583 562.4933,809.9903 560.5528,811.1217 558.967,811.5523 557.8762,811.22 557.5467,810.7743 557.345,809.3621 557.7403,807.3262 559.3322,803.333 561.9621,798.6055 564.2782,795.2155 570.64,787.6368 580.3096,778.1323 589.6527,770.3734 598.9539,763.9145 603.4618,761.3541 605.4424,760.7233 604.5227,762.1223 600.9611,765.334 569.7734,790.6229"/>
    <polyline points="538.8505,700.9459 539.9262,699.7429 541.2784,698.8804 548.0329,695.5691 572.2658,685.7819 579.5966,683.5088 583.5474,682.74 586.549,682.6289 588.4359,683.1956 589.1296,684.4338 589.0349,685.2969 588.0407,687.4807 578.5085,700.4735 573.1842,708.7037 578.9764,700.8895 584.9117,694.6069 589.4741,690.6643 599.9885,683.248 600.5222,682.5115 599.0783,682.5373 593.6461,683.7914 571.7651,690.0091 564.767,691.1098 560.7766,691.1107 556.1597,690.0645 554.354,688.7839 553.9085,688.0129 553.9675,686.3057 554.4563,685.4126 556.2636,683.6563 559.0003,682.0785 562.4178,680.8277 566.2584,680.0265 570.3198,679.76 576.6549,680.4158 580.8677,681.5109 584.7691,683.0583 589.3292,686.0526 591.1746,688.3242 591.9434,690.6067 591.6637,692.6461 590.5187,694.1421 589.7171,694.6031 587.8959,694.8582 586.9648,694.6486 585.2382,693.6128 583.3966,690.8203 582.9515,688.3561 583.0266,686.9855 583.8178,684.0284 585.4159,680.869 594.0533,668.9642 596.6683,664.2644 597.2034,661.8259 597.0338,660.8904 596.5661,660.1721 594.7923,659.4483 592.1159,659.7232 588.9038,660.9567 585.5786,663.013 582.5929,665.7333 580.3965,668.9823 579.7172,670.7688 579.354,674.6025 579.6929,676.6282 580.3786,678.7208 582.7496,683.1132 588.4307,690.0409 593.0678,694.5016 597.6173,698.3186 601.228,700.9838 603.3055,702.0818 600.7648,699.7761 594.6063,695.093 569.7734,677.237"/>
    <polyline points="480.334,675.0408 489.4805,677.0444 490.7082,677.5375 472.7798,678.2602 460.2847,679.6135 455.5256,680.6744 452.073,681.989 450.0506,683.536 449.6111,684.3859 449.5628,685.2807 450.6166,687.1844 454.7797,690.2147 459.0498,692.2247 464.4493,694.1067 470.8529,695.7717 481.4072,697.6582 490.5541,698.6034 494.6055,698.6444 488.9414,697.8626 466.0981,696.2089 432.5458,693.1783 434.3154,692.6251 447.3922,690.1828 453.2657,689.3788 456.7168,689.2104 461.0956,689.4472 464.4085,690.1032 466.5288,691.3374 467.2345,692.6641 467.0516,695.361 466.0012,697.3302 464.2172,699.1264 460.4528,701.1153 455.8667,701.9915 452.475,701.7934 448.8596,700.8827 445.1362,699.3031 439.7609,696.0152 436.6688,693.462 434.3691,690.8387 433.6359,689.5706 433.1794,687.2635 434.1407,685.3806 436.3953,683.932 446.8918,680.8297 449.9466,679.4071 451.1472,678.4507 452.7267,675.9045 453.0919,672.4198 452.2163,668.0159 451.3226,665.5183 448.6531,660.1231 444.8661,654.626 440.1164,649.7596 437.4817,647.8325 434.7634,646.3792 432.0541,645.4779 429.4645,645.1755 427.1174,645.4834 425.1375,646.385 423.6397,647.8382 422.7168,649.7786 422.4307,652.1236 422.8066,654.7799 423.8407,657.6514 425.5006,660.6469 427.7283,663.687 430.4439,666.709 436.9135,672.5463 464.8671,694.113 470.6879,697.5228 472.059,697.943 473.1065,697.9944 473.8177,697.6911 474.1903,697.058 473.9545,694.9529 472.5128,692.0613 470.0814,688.8077 463.7461,682.5843 456.3876,677.237"/>
    <polyline points="375.9309,649.3178 374.2772,648.8208 372.0993,648.6716 369.4792,648.8788 363.2832,650.334 359.8968,651.5412 356.4371,653.0274 349.596,656.6837 343.2149,660.9653 337.4908,665.5107 332.5332,669.9631 328.5529,674.0104 325.8099,677.4291 324.5128,680.1132 324.6911,682.0457 325.2869,682.7377 327.3363,683.5913 330.279,683.7601 335.6112,682.8941 340.9936,680.9857 344.0914,679.2634 347.4664,676.1286 348.7049,673.7547 349.0058,672.5138 348.9719,669.9823 348.0892,667.4456 345.2307,663.7477 342.3647,661.4941 338.7313,659.6507 334.3609,658.5085 329.4058,658.3136 326.8014,658.6053 321.6289,659.9193 317.0258,662.0239 313.6974,664.6663 312.7086,666.1184 312.2357,667.6215 312.2936,669.1508 312.8735,670.6851 313.9481,672.208 315.4746,673.7087 319.6348,676.6275 360.224,698.3005 370.3968,702.9521 373.8119,704.1721 375.3983,704.3963 374.965,703.5971 371.0028,700.7416 359.9193,694.0911 353.5929,691.1361 350.2422,690.0904 347.7124,689.7526 345.9781,690.0281 345.3767,690.3772 344.5918,691.4792 344.1083,694.0166 344.1109,701.6545 343.7385,702.3384 340.5696,697.0761 337.3896,692.6013 333.6721,688.4343 328.7413,683.9999 332.3065,685.8183 336.5908,689.2231 339.7957,692.3783 347.7845,701.488 351.9084,705.6769 354.024,707.0373 355.5684,706.9752 356.1427,706.3963 356.9419,704.2255 357.2816,699.0886 356.3966,693.0971 355.0621,689.3213 352.2563,684.5416 349.1998,681.0188 345.685,678.2753 343.0017,677.237"/>
    <polyline points="342.4267,773.7926 340.0592,786.0088 340.0178,788.2635 340.5314,790.1506 341.2489,791.1328 342.8741,792.1876 351.0636,793.828 351.9961,794.5265 351.8095,795.1192 349.3433,796.5536 342.6965,798.8434 337.0268,800.3422 319.7096,804.106 316.3276,805.3904 316.0393,805.7254 316.2036,806.0064 317.819,806.4154 322.7196,806.6876 330.8285,806.2886 334.2569,805.6934 336.7409,804.8486 337.5726,804.3361 338.3976,803.1136 338.1703,801.6066 337.0242,799.8148 326.8016,789.3516 323.7164,785.8033 320.8801,781.8331 318.7078,777.5131 317.623,773.0872 317.8557,768.9839 318.4698,767.2193 319.3952,765.7352 320.6044,764.5908 322.0618,763.8346 323.726,763.4995 325.5526,763.5991 327.4969,764.1272 329.5163,765.0597 333.6278,767.9644 337.6283,771.8545 341.3306,776.2025 351.4224,790.3339 353.0832,792.0491 352.4784,789.0981 349.936,781.3901 344.2839,767.5187 340.246,760.2041 337.6206,757.4646 336.3677,756.976 335.1681,757.1083 334.0324,757.848 332.9737,759.158 331.1545,763.2439 329.8642,768.7386 329.466,771.7892 329.2388,778.0894 329.4271,781.2146 330.4178,787.2202 332.2046,792.8237 334.7532,798.0845 336.3059,800.5889 339.9561,805.2699 344.3449,809.3013 349.5432,812.3172 352.4585,813.3216 355.5698,813.9391 358.8438,814.1501 362.2221,813.9545 365.6178,813.3692 371.9887,811.179 374.6881,809.6833 376.8762,808.0076 378.433,806.22 379.2746,804.3853 379.3645,802.5613 378.7088,800.7984 377.3463,799.138 375.347,797.6117 369.8439,795.0384 363.1698,793.1435 356.4054,791.875 350.4974,791.1189 343.0017,790.6229"/>
    <polyline points="452.9544,779.3439 461.3852,785.0039 467.1406,787.8269 472.7272,789.7782 484.1003,792.1243 484.5767,792.5758 470.6305,797.2724 462.8983,801.1572 455.7692,806.2742 442.5058,818.9346 439.877,820.5014 438.8345,820.6563 437.9958,820.3794 437.3705,819.6866 436.9617,818.6114 436.774,815.5156 437.3464,811.5711 438.5676,807.2724 440.3152,803.052 442.4212,799.2834 444.6148,796.233 448.668,791.7445 444.8843,792.8109 439.2928,795.2591 435.0712,798.2284 433.0313,800.7866 431.966,803.6443 431.8465,805.1018 432.4345,807.8588 434.0128,810.0895 435.1019,810.8919 437.6946,811.6805 439.1174,811.625 442.0156,810.6221 443.4159,809.7194 445.9491,807.2986 447.9332,804.3753 449.1763,801.3383 449.4889,798.4982 449.2424,797.218 447.8897,795.022 446.7927,794.1271 443.8667,792.7431 438.279,791.4886 428.7764,790.2043 427.9466,789.7766 428.6649,789.1372 435.4377,785.8702 438.8319,783.8003 441.8451,781.2987 443.0927,779.8954 444.8831,776.8525 445.3653,775.2599 445.4085,772.0816 444.958,770.5624 443.1574,767.848 441.8519,766.7314 438.5836,765.1672 436.6928,764.782 432.6389,764.8875 430.6061,765.3753 426.9282,767.1355 424.3373,769.7256 423.6265,771.227 423.3592,772.8029 423.5441,774.4061 424.1701,775.9916 425.2084,777.5184 426.6157,778.9519 430.3112,781.439 436.9927,783.9991 443.1217,784.9441 445.9432,784.5566 446.8333,784.029 447.348,783.2684 447.4781,782.2701 446.5714,779.5535 444.1136,775.9034 440.1865,771.4342 435.0603,766.4259 429.3056,761.4203 423.8295,757.2397 419.743,754.7644 418.543,754.3646 418.023,754.5661 418.2187,755.3628 420.7076,758.5935 428.5873,766.4697 444.9318,781.2125 456.3876,790.6229"/>
    <polyline points="450.6609,588.1603 452.9697,592.6131 455.3165,595.8843 456.4504,596.8623 457.5307,597.3244 458.5398,597.2452 459.4634,596.6248 461.0191,593.8899 462.5704,587.0405 463.1279,578.8262 462.7446,571.0538 461.6539,564.6774 459.957,559.7172 457.5814,556.0448 455.5157,554.5049 454.2893,554.0658 452.9097,553.8614 449.6476,554.1541 443.5771,556.2424 436.6275,560.0425 429.8524,565.1538 426.259,569.1132 424.9842,571.2271 424.1642,573.4072 423.8583,575.627 424.097,577.8512 424.8823,580.0344 426.1866,582.1211 427.9522,584.0484 430.0956,585.7504 432.515,587.1625 435.1012,588.2281 437.7469,588.904 440.3563,589.1652 442.8489,589.0087 445.1587,588.453 447.2347,587.5346 449.0414,586.3029 451.7721,583.1268 453.3149,579.3733 453.6731,577.4148 453.6865,573.5796 452.9549,570.1241 451.7032,567.2722 450.1353,565.1068 448.4013,563.6404 446.5905,562.8774 444.7796,562.7804 442.1387,563.7031 439.5321,565.6986 437.0241,568.6886 435.5698,571.1583 434.0382,575.3426 433.6341,578.1952 433.8348,580.7922 434.6609,582.8325 436.0252,584.0509 437.7162,584.2653 439.455,583.4152 441.0131,581.5911 442.2822,578.9927 443.6082,574.1377 444.0704,570.5868 444.1066,567.0172 443.6295,563.5474 441.8815,558.4914 439.1177,553.5895 433.591,545.8832 432.8945,544.1757 433.9272,544.1275 437.974,545.6069 455.2372,553.7359 460.8922,555.9848 464.0862,556.7496 467.6696,556.7773 468.4611,556.5327 469.3275,555.7533 469.1323,554.7079 466.6806,553.0013 459.7975,551.0652 452.6932,549.9876 444.0793,549.4374 434.4467,549.8424 428.4005,550.7254 423.7422,552.0445 422.2366,552.8389 421.4018,553.7037 421.2816,554.6216 421.8764,555.5703 423.1526,556.5242 425.0441,557.4579 430.2778,559.178 439.9106,561.2252 456.3876,563.8512"/>
    <polyline points="552.4055,567.8432 546.9431,569.1916 544.4348,569.174 543.339,568.5318 543.3875,568.0097 544.6314,566.6087 554.248,559.844 559.7548,555.257 564.397,550.3265 570.2233,543.0127 571.1729,542.4416 571.4794,542.6064 571.7603,543.835 571.359,547.7059 570.1202,553.3056 563.9357,574.13 563.4578,565.5777 562.6472,561.4578 560.5052,555.8248 557.3922,550.7725 555.6164,548.9063 553.8018,547.6715 551.9997,547.1185 550.2522,547.2356 548.6454,547.9716 546.8618,549.9575 546.3304,551.5808 546.5996,553.854 547.8191,555.1587 549.5649,554.9035 551.3818,553.0349 552.7834,549.8431 553.3665,546.0727 552.9301,542.8264 552.1807,541.4408 551.2328,540.9321 550.728,541.0464 549.7386,541.9837 548.9119,543.7065 548.4677,545.9421 548.6074,548.3848 549.4203,550.753 550.8607,552.837 552.7651,554.5362 559.187,558.311 559.9805,559.3638 560.0812,560.5841 559.3916,561.9503 557.8389,563.4106 555.4563,564.8774 552.4135,566.1916 547.3073,567.4755 544.1797,567.7566 541.8339,567.5617 540.6946,566.8839 540.6722,566.361 541.8176,564.9634 555.9947,556.2863 563.3262,550.3723 569.3479,543.4765 575.6195,533.789 576.8102,532.3353 577.1451,532.3427 577.3479,533.8473 577.0029,537.1368 575.0391,546.9811 572.3069,556.8873 569.7734,563.8512"/>
    <polyline points="569.7734,450.4654 569.268,452.2417 567.8212,455.1788 564.881,459.3399 560.1704,464.1658 556.1386,467.3873 549.3607,471.3749 544.9353,472.9504 541.1634,473.3468 539.6802,473.0655 538.5378,472.469 537.7753,471.5822 537.415,470.4474 537.4618,469.1195 538.7059,466.1216 539.8216,464.5602 542.7376,461.5244 547.8043,457.6416 552.1712,455.0008 554.8605,453.9257 552.9837,456.1339 544.9708,463.1701 539.8059,468.22 537.5583,470.984 536.9627,472.0244 536.757,472.778 536.9477,473.2105 538.4555,473.0235 539.6957,472.3876 542.8677,470.1023 546.5382,466.7073 550.2253,462.5523 553.5199,457.9482 556.093,453.1232 557.7231,448.1825 558.1492,445.6719 558.3134,443.1464 557.8866,438.1542 556.5467,433.4996 554.4516,429.5635 551.8031,426.7255 548.8718,425.287 547.409,425.1499 546.0085,425.4081 543.5495,427.0446 541.753,429.9078 540.7921,433.5391 540.7452,437.4216 541.0584,439.3105 542.2731,442.7768 544.088,445.7035 547.4561,449.1474 550.9713,451.7124 556.6715,455.037 556.4632,455.2764 554.6407,455.4301 550.0212,455.1872 546.1946,454.5102 544.3243,453.7035 543.4938,452.5434 543.9504,451.0507 547.0924,448.3646 558.4964,441.6588 564.1099,437.815 568.3504,434.1932 572.2971,430.0062 571.1524,434.1637 569.5482,437.9393 566.9979,441.7299 564.7285,443.9686 560.7457,446.6964 556.5726,448.6282 551.6727,450.1241 547.2315,450.9279 550.7531,448.8647"/>
    <polyline points="456.3876,450.4654 480.483,437.2269 475.664,437.7824 470.218,439.0779 464.4963,441.3518 461.0141,443.4021 456.5553,447.05 453.0408,450.9668 450.1194,455.741 449.4636,457.5422 449.3769,458.922 449.8697,458.7791 450.727,457.7382 452.4366,454.4258 460.1277,433.7783 463.9585,425.9192 466.8142,421.8933 469.6519,419.5061 470.9655,419.0395 472.1581,419.0802 473.1993,419.6203 474.068,420.6276 475.2536,423.7968 475.722,427.965 475.5458,432.4806 474.8215,436.8198 473.6689,440.6269 472.2032,443.7232 469.5859,446.9468 467.6297,448.161 465.5866,448.6389 463.5534,448.3945 460.7134,446.7344 459.0574,444.8267 457.6489,442.3822 453.5537,431.3526 452.5385,429.7404 451.5492,429.0531 450.662,429.3583 450.2851,429.8905 449.7413,431.7004 449.6015,434.4197 449.986,437.8308 451.5837,443.4944 454.2087,448.8391 457.8578,453.3258 460.9946,455.8051 466.687,458.6185 472.838,459.9882 476.5203,459.8841 478.0504,459.4846 479.2958,458.8392 480.2091,457.9429 480.7554,456.7965 480.9137,455.4077 480.6788,453.7909 479.0836,449.9508 476.2366,445.4414 465.3365,430.8182 460.3969,423.6414 463.8172,427.8147 468.9003,433.0593 482.1401,444.6019 483.6218,446.8268 483.691,447.7156 483.2917,448.4573 481.1517,449.5168 477.5334,450.0452 472.952,450.0952 462.9151,448.9711 458.2174,447.8455 454.0109,446.3316"/>
    <polyline points="456.3876,337.0795 466.9049,328.9512 476.8947,320.477 482.6256,314.808 483.7542,313.4504 484.4893,311.9884 483.0559,312.5167 479.6293,315.1182 474.7429,319.5403 469.046,325.3002 457.0886,338.892 437.3722,363.0605 431.4936,368.712 430.2586,369.3854 429.4512,369.4023 429.0926,368.7728 429.1906,367.5404 429.74,365.784 432.1009,361.1235 435.8542,355.6952 442.9725,347.777 450.2141,341.3611 458.1039,335.5968 462.5865,333.304 464.9728,332.8177 465.9686,332.9111 467.5177,333.8087 468.4184,335.7029 468.6269,338.6686 468.1473,342.7898 466.2931,350.9795 464.4713,357.2275 462.2952,363.3315 459.8316,368.4347 458.512,370.3342 457.1417,371.6693 455.7235,372.3675 454.2587,372.3843 452.7527,371.7074 451.2165,370.3653 448.1263,366.0049 445.1834,360.1472 441.6438,350.4711 440.3186,344.336 440.1243,338.828 440.4912,336.3394 441.1628,334.0236 443.3268,329.9165 446.348,326.5773 449.8926,324.1464 453.6576,322.802 455.5553,322.5935 459.3139,323.1866 461.1581,323.9982 464.7059,326.6026 467.918,330.4029 469.3364,332.7084 471.6966,338.0672 473.3539,344.3867 474.5118,355.1415 474.0993,365.4501 472.963,370.4565 472.1607,372.0327 471.2254,372.8711 470.1806,372.9201 469.0522,372.1593 467.8666,370.6105 465.4217,365.4797 463.0072,358.5039 459.6828,346.9001 456.9366,335.7703 452.3804,314.1724 451.3675,310.7048 450.4643,309.4107 450.0439,309.6744 449.2468,312.0212 448.1866,319.315 445.4694,359.1883 444.5079,365.4404 444.2842,365.4845 444.09,364.8627 443.9373,363.5839 444.0081,352.9334 445.2999,341.3024 446.9541,332.6764 450.585,318.6702 453.7063,309.3887 457.3966,301.4664 459.4729,298.4348 461.706,296.2205 464.0827,294.9298"/>
    <polyline points="456.3876,223.6937 442.9804,216.2934 437.7888,212.927 433.1173,209.3029 429.695,205.7464 428.6445,204.1285 428.1075,202.6979 428.1163,201.5124 428.6844,200.6217 429.8018,200.0635 431.4294,199.8651 435.9414,200.5997 438.6584,201.521 444.6023,204.3123 450.8026,208.0072 478.6346,226.5807 481.9363,228.9825 483.5835,230.7641 483.6942,231.3982 483.3146,231.848 481.1827,232.1611 475.5802,231.1018 469.0886,228.2955 463.1719,224.0414 459.8081,220.5343 456.9398,216.5638 454.5366,212.3254 449.165,200.9956 449.2185,202.9181 451.0502,211.1942 460.8826,247.5892 463.4743,255.5885 465.0133,258.16 465.7253,258.4045 466.4039,257.9286 467.0539,256.7598 468.2862,252.6802 469.9875,244.1288 471.6861,233.0205 472.0158,228.6581 471.825,225.2604 471.0416,222.8252 469.6689,221.2941 468.7811,220.8518 466.6601,220.5852 462.7336,221.5445 456.389,224.5851 439.3861,234.1682 435.2553,235.8205 433.8191,235.8836 433.5584,235.561 434.6754,233.124 443.3255,222.1675 448.4383,213.9126 452.7941,204.5563 457.8808,190.7436 456.0852,197.1186 453.9346,202.4277 450.8056,208.0632 446.7213,213.3884 444.395,215.8096 439.4515,220.018 434.5997,223.2881 426.3619,227.9178 427.1563,228.0062 429.8376,227.4409 436.4458,225.3929 441.7044,223.2689 447.003,220.6216 454.3152,215.9518 464.5706,207.7062"/>
    <polyline points="456.3876,110.3079 449.3415,103.8102 440.6712,97.3653 430.77,91.3721 425.405,88.7963 423.838,88.4752 423.7596,88.7867 424.9908,90.3626 433.4976,98.8416 439.2731,105.7783 442.3802,110.7424 444.4995,115.8482 445.4238,120.9812 445.4084,123.4929 444.4203,128.2015 442.2419,132.1435 440.7712,133.6898 439.1037,134.8898 437.2996,135.7123 435.4298,136.1395 433.5698,136.1671 431.7944,135.8021 430.172,135.0631 428.7629,133.9812 427.6176,132.5988 426.7765,130.9657 426.2692,129.137 426.3248,125.1217 426.8969,123.0458 427.8121,120.9904 430.516,117.0939 434.0273,113.6472 439.7961,109.4743 446.2986,105.8739 448.4031,105.025 449.5085,104.9021 449.5271,105.5317 449.1255,106.113 447.5507,107.7271 436.8248,116.3557 432.4293,120.7327 430.6078,123.6203 430.1437,125.0038 430.2182,127.55 430.7761,128.6746 432.8986,130.5516 436.1694,131.8678 440.1979,132.5543 444.4938,132.5316 446.5977,132.2353 450.4961,131.0793 453.8013,129.2671 456.4133,126.9772 458.324,124.389 459.5771,121.658 460.2349,118.9131 460.3541,116.2462 460.0059,113.6654 457.3176,104.445 456.7014,100.2278 456.9058,96.0412 457.9431,92.6597 458.9674,91.3503 460.1773,90.9697 461.5055,91.4923 462.8559,92.7752 464.6717,95.58 465.97,98.4461 466.5775,100.5466 466.5516,101.39 466.195,101.7868 465.2311,101.6474 463.8509,100.7286 462.9449,99.5915 462.8253,98.568 463.8076,97.9188 470.022,95.9013 472.9734,94.2326 474.6682,92.776 476.0528,91.0956 478.8449,85.9974 479.3647,85.5761 479.8483,85.7304"/>
    <polyline points="559.1601,80.058 557.9628,80.012 556.6948,80.4066 555.3848,81.2272 552.7774,83.9967 549.4529,90.0253 547.5177,96.4579 547.1822,100.1021 547.3137,101.6085 548.1521,103.8855 548.8315,104.6373 550.6077,105.3804 553.9418,104.8509 556.3421,103.657 558.6808,101.9721 560.7716,99.9371 562.453,97.7617 563.5924,95.6686 564.0808,93.7996 563.8547,92.2286 562.8751,91.0042 561.0927,90.1651 556.7642,89.4852 535.463,88.4656 544.4457,89.6738 550.1249,90.7601 556.2768,92.2777 562.4259,94.2198 568.326,96.5866 574.0327,99.4028 579.7018,102.7145 585.2687,106.5667 590.4215,110.9862 592.7025,113.4096 596.3786,118.6228 597.6634,121.3538 598.5167,124.1145 598.9078,126.8558 598.8288,129.5171 598.291,132.0278 597.3221,134.3104 595.9645,136.2848 594.2722,137.8751 592.3065,139.0171 590.1272,139.6708 587.7899,139.8252 585.3453,139.4963 580.3196,137.5469 575.3982,134.27 568.8727,128.1658 565.3811,124.1665 561.7198,119.3149 560.4635,117.0716 560.2106,115.6022 560.4588,115.1342 561.6761,114.6884 565.1311,115.1089 585.9036,121.4143 588.9991,123.0646 589.2631,123.4872 589.1043,123.8208 586.1975,124.2423 580.505,123.9469 561.7252,121.691 555.3438,120.4705 551.9316,119.4821 549.6049,118.3447 548.6707,117.0922 549.2508,115.7189 551.2597,114.1776 562.6927,108.0052 569.1793,103.6177 575.6625,98.0507 588.5109,85.9621 592.886,82.5342 594.113,82.1936 593.7219,83.5067 592.9255,84.729 588.6149,90.074 580.8246,98.7357 569.7734,110.3079"/>
    <polyline points="587.3208,194.9089 582.4156,194.0384 579.8553,194.0013 574.7723,194.7309 569.9585,196.4594 565.5152,199.0533 561.5359,202.3023 558.2179,205.9291 555.7787,209.6476 554.371,213.2709 554.0447,216.7105 554.7536,219.8877 556.3599,222.7106 558.6494,225.1131 562.8323,227.9004 567.0361,229.6231 569.3602,230.092 571.0755,229.9647 572.089,229.2192 572.3104,228.6191 571.7232,226.0114 569.0923,222.4503 564.3177,218.1752 557.5778,213.5258 552.3414,210.5133 544.6016,206.7354 540.5836,205.1002 537.8738,204.3843 538.5861,205.0389 542.8839,207.364 574.7775,223.3121 580.944,225.9107 582.4111,226.0035 582.3553,225.2913 580.1554,222.2599 566.9505,207.1207 565.2379,205.6399 563.577,204.842 561.9265,204.8922 561.0934,205.2585 558.4959,207.6089 549.8634,218.7088 547.0441,223.3086 545.3796,227.9805 544.9431,231.1918 545.0074,234.4634 546.0433,239.2364 547.3013,241.9878 548.8546,244.03 550.5484,245.1016 551.4034,245.2251 552.2422,245.0669 553.8085,243.9275 555.6535,240.4075 556.5763,235.4085 556.2951,229.8299 555.3411,226.0731 553.7501,222.2655 544.9059,206.9205 542.6144,202.4495 541.158,198.5928 540.8696,197.0612 540.9213,195.8851 541.3292,195.1196 542.0928,194.7983 543.1931,194.9279 546.2446,196.46 550.0473,199.3942 554.092,203.2385 557.9511,207.4669 562.8422,213.4944 567.9644,220.3458 569.7734,223.6937"/>
    <polyline points="538.9516,317.2077 570.4461,313.7433 573.7539,314.0735 574.919,314.5203 575.741,315.1639 576.2106,316.0062 576.3256,317.0443 575.5228,319.6681 573.4586,322.8909 570.2909,326.4637 566.1148,330.1024 558.1075,335.2819 540.2727,344.0283 536.4714,346.1734 535.1018,347.6589 535.4387,348.1125 536.4474,348.3665 540.2857,348.309 546.0138,347.5919 552.8262,346.3055 559.8991,344.4678 566.5669,342.0595 569.6191,340.6455 575.0635,337.4426 579.5208,333.8148 581.3163,331.8711 583.8964,327.8063 585.0176,323.6713 585.0373,321.6654 584.0923,317.9931 583.1785,316.4159 580.6283,313.9866 577.3653,312.7221 573.6742,312.6925 571.7309,313.1022 567.6685,314.5885 556.422,319.9839 549.7897,322.6892 544.5863,324.1039 542.5735,324.2871 542.0626,323.9512 549.6484,319.1821 554.1703,315.5884 556.636,312.8759 558.3704,310.2565 559.2005,308.2084 559.0274,307.2176 557.8409,307.6014 556.8989,308.3409 554.4735,310.8596 548.6694,318.9778 545.9742,323.7419 543.8265,328.4965 542.5098,333.0724 542.2377,335.2896 542.2474,337.4766 543.116,341.8415 543.9444,344.0406 546.2348,348.437 549.112,352.6625 552.2595,356.4215 555.3971,359.3912 558.2945,361.2736 559.5917,361.7423 561.7694,361.707 563.2145,360.4707 563.5828,359.4656 563.4625,356.8453 562.9317,355.299 560.8712,351.9234 559.3394,350.1793 555.3351,346.7849 552.9216,345.2036 547.5375,342.4053 539.4586,339.4118 533.9199,338.1457 538.7519,339.8927 563.7691,347.5947 571.7568,349.8194 579.4777,351.4787 586.6543,352.3679 592.7376,352.4625 597.0235,351.8633 598.2926,351.3453 598.9141,350.701 598.8814,349.9424 598.2184,349.0801 593.0343,345.9891 582.1682,341.4215 569.7734,337.0795"/>
    <polyline points="683.1592,337.0795 682.9717,335.6738 683.1803,333.3458 684.9746,326.7429 687.801,320.7543 690.8649,316.3186 694.4726,312.816 696.8642,311.3182 698.9625,310.5637 700.628,310.5125 701.8335,311.0563 702.5925,312.0158 702.8408,313.7204 702.362,314.7382 701.4003,315.5013 700.0938,315.9095 698.6544,315.8667 697.2863,315.3328 696.11,314.3805 693.1829,310.7211 692.0268,310.765 691.2701,311.6593 690.6702,313.0452 690.4214,315.2974 690.9357,316.4906 691.4638,316.9365 693.1325,317.4958 697.0207,317.4544 700.1252,316.8436 704.5067,315.3666 708.2517,313.6654 694.3115,322.4131 693.9896,322.4973 696.142,319.133 696.2114,318.1943 695.1809,318.2 693.0996,319.1745 689.2626,322.2848 686.1243,325.9316 683.4001,330.6544 681.7124,336.4166 681.4402,340.8068 682.1247,345.6013 684.0012,350.5791 687.1857,355.3119 689.2487,357.4201 691.5883,359.266 694.1629,360.7891 696.9213,361.9402 699.8,362.6829 702.7206,362.9958 705.591,362.8735 708.3089,362.3281 710.7656,361.3927 712.8529,360.1199 714.47,358.5767 715.5316,356.8383 715.9746,354.9815 715.7638,353.0784 714.8952,351.1919 713.4063,349.3725 711.3747,347.658 706.1305,344.6479 697.145,341.3624 689.0297,339.4734 677.8272,337.5978 676.0455,336.8295 676.2936,336.4764 677.2978,336.1884 683.1133,335.3717 688.9789,334.005 696.6965,331.471 702.5714,329.171"/>
    <polyline points="677.3932,235.9029 677.4842,238.8102 677.0241,241.4667 676.021,243.6248 675.3193,244.448 673.5259,245.4846 672.4425,245.6794 668.5656,245.0025 664.2346,242.6781 661.6517,240.3627 660.6,239.0166 659.1515,236.0713 658.7919,234.5316 658.6828,232.9868 659.1888,229.9797 660.5797,227.1831 664.023,223.4062 676.8713,213.9767 684.2613,207.9616 686.932,206.1176 689.3812,204.9444 691.4966,204.5733 693.1571,205.0335 694.2383,206.2843 694.6036,208.2441 693.6621,212.1977 691.1669,216.6949 688.9126,219.6055 686.3183,222.303 683.447,224.7309 680.3603,226.821 677.1713,228.4655 674.0934,229.5761 671.4028,230.1161 669.3699,230.0674 668.1794,229.4433 667.9205,228.9359 668.0415,227.5985 669.5197,224.9962 677.8771,213.2039 680.5921,210.233 682.5224,208.8472 685.6311,207.9336 688.8703,208.6747 691.8749,210.9022 694.0834,213.8814 694.8477,215.9519 694.9855,218.0411 693.729,222.6815 683.3808,247.4304 680.6279,252.2143 677.6301,255.422 676.0777,256.2465 674.5219,256.5013 672.9893,256.1848 671.5054,255.3161 670.0909,253.9332 668.7615,252.0919 666.4147,247.3317 664.6069,241.7373 663.5445,236.0571 663.429,230.8852 663.7595,228.6173 665.1689,224.8706 667.4247,222.2679 668.7911,221.4045 671.833,220.5402 675.1033,220.7622 678.4558,221.9808 681.8076,224.1357 685.1006,227.2213 689.8056,233.5097 692.6446,238.5476 695.1031,243.8254 697.726,250.9035 698.607,255.0313 688.1204,232.4147 683.1592,223.6937"/>
    <polyline points="683.1592,110.3079 679.0889,106.6159 662.1827,93.0945 659.7836,90.9574 658.5305,89.4304 660.3647,90.5882 664.541,94.5007 671.4019,102.7362 677.6241,112.2277 688.1393,131.434 689.7975,133.9555 691.1159,135.3185 692.0514,135.4027 692.6919,133.1589 692.5288,128.6624 692.0229,125.0257 690.0515,117.8774 685.3695,108.3785 685.0562,106.965 685.2927,105.9673 686.1542,105.4256 687.7078,105.3354 691.3108,106.0075 694.4014,106.9843 701.2989,110.1417 705.8544,113.5445 707.9756,116.397 708.6655,118.0105 709.1969,121.5596 709.0189,123.4542 708.5484,125.3906 706.8144,129.2308 704.273,132.6953 701.2893,135.3357 698.2216,136.7389 696.7619,136.8843 695.4052,136.6332 694.1905,135.9794 693.1536,134.9316 692.3242,133.5154 691.7227,131.7731 691.2287,127.5476 691.6237,122.7994 693.5134,115.8105 696.2809,109.8441 702.2652,100.1016 700.6727,101.6451 698.4173,105.4076 697.0471,109.2542 696.4621,112.2639 695.8889,119.2765 695.8574,126.5559 696.6321,132.0581 697.207,133.4873 697.689,133.8597 697.8689,132.5175 696.9982,129.344 693.9399,123.5466 689.4973,117.3203 678.0994,103.2131 674.4453,97.5304 667.562,84.4144 666.1381,82.3988 665.573,81.8724 664.7992,81.8332"/>
    <polyline points="371.0492,88.8966 364.7999,90.787 357.9554,93.4776 350.9482,96.9597 346.789,99.6697 343.2378,102.6782 340.2219,105.8986 328.384,120.6052 322.6375,127.0987 322.8078,123.2318 322.492,120.7292 321.4308,118.0676 318.6892,113.5143 318.7194,112.5565 319.0905,112.219 321.8867,111.8167 338.4231,112.7744 343.3554,112.4972 348.3671,111.5607 353.3707,109.7909 358.1265,107.0678 362.259,103.2875 363.9474,100.9795 365.3038,98.3936 366.2717,95.549 366.8047,92.4849 366.8734,89.2642 366.4676,85.9746 365.5954,82.7284 364.2825,79.6587 362.5701,76.9097 360.51,74.6245 358.1601,72.9316 355.5779,71.9304 352.8151,71.6782 349.9129,72.1879 346.8999,73.4338 343.7909,75.3528 340.5855,77.8495 333.8775,84.0833 320.4199,97.9051 315.0495,104.0245 313.093,106.7389 311.7505,109.214 311.0806,111.4624 311.101,113.5067 311.7947,115.3655 313.1181,117.0517 315.0046,118.573 317.3693,119.9333 323.1243,122.1934 329.5187,123.8962 338.6251,125.5632 345.6478,126.2591 348.7632,126.2063 350.4903,125.8309 350.8992,125.2435 350.1864,124.5366 347.4209,123.3846 344.6665,122.6599 339.3563,121.7759 319.3139,119.5424 316.5558,119.0187 315.5174,118.5402 316.3208,118.2211 318.7517,118.1861 326.626,119.1346 334.9641,121.2222 345.3491,125.04 347.3502,125.3057 348.9467,124.9419 350.1074,123.9473 350.7523,122.4408 350.8301,120.6007 350.0147,117.5985 349.0159,115.7114 347.1462,113.4095 343.0017,110.3079"/>
    <polyline points="229.6159,110.3079 247.5308,93.8412 262.169,79.1897 246.5899,95.5181 219.1603,125.349 212.3546,131.2314 208.989,132.8686 207.7426,132.892 206.8084,132.3665 206.1917,131.3006 205.8914,129.7254 206.2089,125.2592 207.6438,119.4793 211.3621,109.3947 222.8212,82.2338 224.8094,78.833 225.6173,78.1094 226.2985,78.0786 226.8485,78.7401 227.5294,81.9695 227.6338,87.1107 226.7002,96.2886 224.4315,104.8982 222.1666,109.6956 219.3312,113.682 217.7207,115.3903 214.1838,118.2578 208.4623,121.1865 204.8017,122.1833 201.6892,122.3713 200.4605,122.1647 198.8761,121.2145 198.6176,119.7301 199.6883,117.9646 203.2556,115.1762 213.0675,109.5041 214.6031,108.1694 215.2559,106.9018 215.0095,105.6352 213.9588,104.2728 205.8878,97.1436 205.2074,95.9718 205.3303,95.2541 206.9217,95.2953 208.7168,96.1952 213.162,100.0602 217.7637,105.8414 221.7722,112.7801 223.3538,116.8413 224.5928,121.3256 225.6687,128.3931 225.7667,132.7655 225.3556,136.2507 224.4789,138.2867 223.8809,138.633 223.1798,138.5079 221.4616,136.9368 213.951,126.8449 209.4886,122.3175 206.6448,120.2202 204.2447,119.0312 202.6,118.8686 201.9541,119.7806 202.4294,121.6761 203.0877,122.9259 205.1423,125.8331 207.9026,128.9564 212.4233,132.996 215.1208,134.5451 216.2772,134.8533 218.1315,134.487 218.8176,133.8362 219.703,131.7527 219.8188,127.3128 218.4514,122.3788"/>
    <polyline points="140.5704,93.5803 101.5435,98.0975 95.4916,98.2908 94.1436,97.8367 94.8974,96.9336 97.3014,95.6354 112.5321,88.6885 118.3121,86.3284 121.1267,85.7538 122.2484,85.9894 122.7803,87.1978 121.8824,89.2085 120.4274,90.8091 118.2773,92.4188 115.4025,93.8639 109.5547,95.4448 101.9762,96.0243 93.6146,95.4545 86.4992,94.0372 83.7287,92.9517 83.1665,92.4487 83.196,92.0035 84.9919,91.3754 86.682,91.233 94.0807,91.6622 103.1905,93.4872 109.2905,95.4737 114.99,98.0322 120.1105,101.1053 124.5614,104.6393 128.1722,108.6214 130.729,113.0786 131.5511,115.4948 132.2223,120.6717 131.6432,126.177 130.0161,131.675 127.6543,136.5869 126.3044,138.5917 124.8931,140.1704 123.4516,141.2453 122.005,141.7627 120.5721,141.699 119.1669,141.0572 117.7987,139.8621 115.1885,136.0157 112.7299,130.7317 106.7877,115.9056 104.1951,110.9377 100.0136,105.4071 97.3566,102.9531 93.7289,100.4581 103.4696,105.4884 110.8415,110.2153 117.5091,116.05 127.2479,126.798 129.616,128.7789 131.7502,129.7461 133.5032,129.5637 134.1547,129.0322 134.8061,127.1199 134.3833,124.2081 132.81,120.5631 130.2004,116.48 124.8443,109.9569 118.3395,103.0517 110.8625,95.9728 102.609,89.4109 97.2637,85.8633 92.7158,83.4599 90.9275,82.7987 88.622,82.6463 88.179,83.141 88.7581,85.1482 92.908,90.1387 102.0277,98.4965 116.2301,110.3079"/>
    <polyline points="116.2301,223.6937 123.1074,220.1676 128.0759,217.1991 133.4223,213.5368 138.3984,209.5023 142.2058,205.4963 143.4429,203.6283 144.1439,201.9099 144.2656,200.3816 143.787,199.0806 142.7125,198.0412 141.0765,197.2939 136.3764,196.7389 130.3104,197.4062 123.488,199.1002 112.6466,202.9212 97.9715,208.9808 86.4624,214.1061 83.5874,215.7916 83.0987,216.3989 83.2757,216.8663 84.1087,217.2125 89.8988,217.7009 98.2475,217.5804 106.0993,216.9348 110.2224,216.2449 114.5064,214.983 117.1313,213.3413 117.4095,212.6794 117.1527,212.1907 116.4196,211.9706 115.2247,212.1581 112.6217,213.4283 109.2509,215.8663 105.5098,219.2183 103.1595,221.8615 101.2494,224.7899 100.0421,227.9738 99.7635,229.6371 99.9237,233.015 100.368,234.6795 101.9413,237.8085 104.3043,240.4502 107.2648,242.3517 110.5835,243.3135 112.2952,243.4065 115.6829,242.8308 117.3213,242.1951 120.4416,240.3551 124.6228,236.5916 126.9682,233.7064 128.882,230.7228 131.3438,224.9813 131.9188,222.3203 132.0235,218.4012 129.807,205.0554 129.4216,199.1973 130.5619,214.2571 130.4604,223.8219 129.3984,232.9381 126.9614,243.4165 135.7434,231.9204 135.7012,231.3718 135.0637,231.038 131.9149,230.8574 117.7748,232.2996"/>
    <polyline points="138.1933,334.431 133.2955,336.3264 126.6319,338.1333 121.7819,338.7053 119.0974,338.2672 118.6827,337.9732 118.522,337.2554 119.6816,335.9797 123.6804,333.6973 128.5765,331.7762 128.7631,331.1156 124.6228,328.6343 102.7425,318.2871 99.5143,317.073 99.5809,317.9177 100.8489,319.9774 104.0428,323.2762 107.1881,324.9831 110.2613,325.3968 112.6457,324.3548 113.5799,322.9909 113.7841,322.1673 113.5782,320.3187 113.1422,319.313 111.5556,317.1703 108.9863,314.9433 105.4715,312.8762 101.2401,311.3254 96.7634,310.6348 92.6985,311.0061 91.0537,311.603 89.7871,312.4598 88.9705,313.5526 88.6513,314.8473 88.8472,316.3015 89.5501,317.8649 90.7281,319.4815 94.2829,322.6399 96.5145,324.0718 101.4933,326.4196 106.6462,327.9037 111.4387,328.4463 113.584,328.3658 117.2685,327.5244 118.8,326.786 121.2439,324.773 122.864,322.2486 123.6855,319.5371 123.8029,317.0211 122.9452,314.4419 121.8503,313.9297 121.1804,314.0812 118.8067,316.027 111.497,325.649 105.6463,332.3864 104.7391,333.9059 104.4893,335.2181 105.3052,336.6442 106.5052,337.076 109.0988,336.6894 111.3403,335.6102 123.2069,327.0252 127.9123,324.1734 132.9785,321.7141 140.2606,319.307 143.9426,318.8302 145.8993,319.3469 146.1012,319.9616 144.9506,321.7964 139.9671,325.5292 132.7012,329.5029 116.2301,337.0795"/>
    <polyline points="215.5998,325.9548 214.7596,324.5798 212.7098,323.1115 210.4294,322.6233 208.9661,323.2087 208.882,324.1322 209.6422,325.426 220.8535,335.9173 223.5316,339.1089 225.7909,342.501 227.5864,346.0079 229.4219,351.1156 230.4791,356.4088 230.5578,357.8499 230.3384,358.2126 227.8229,354.2135 223.8846,346.7627 216.9814,331.5648 214.9474,325.8815 212.6355,317.5439 211.365,311.0986 211.159,308.8016 211.2507,308.3653 211.4634,308.3975 212.6768,310.9447 214.964,318.0459 217.0616,325.8645 217.9671,330.4601 218.1001,332.7475 217.7723,334.5454 216.9237,336.0137 215.5469,337.2661 212.6523,338.7511 209.2106,339.5923 204.9593,339.6745 203.5488,339.3457 203.0058,338.819 204.2527,337.8078 214.045,334.2734 216.9634,332.6422 219.3489,330.678 221.0173,328.423 221.5453,327.2066 221.9451,324.6571 221.4455,322.0708 220.0473,319.6389 217.7964,317.5774 214.8009,316.0889 211.2448,315.3463 209.34,315.293 205.5088,315.8489 202.0557,317.2513 199.5389,319.3613 198.7887,320.601 198.4317,321.9076 198.4819,323.2381 198.932,324.5539 199.7557,325.8233 202.3361,328.1237 207.5595,330.7178 211.1241,331.7494 214.2068,332.2196 217.2777,332.0652 218.0374,331.4632 218.0066,331.0133 217.1446,329.8176 214.0228,327.375 198.3873,318.1717 221.4169,331.6152 229.6159,337.0795"/>
    <polyline points="235.6583,227.326 236.9313,227.4838 237.3779,228.5919 237.0831,230.54 236.1471,233.1744 234.6258,236.2898 232.5482,239.5956 228.5555,244.0917 225.5394,246.1905 222.5041,247.1925 219.6763,246.9851 218.4053,246.4535 216.2813,244.6698 214.8871,242.1477 214.5183,240.6892 214.3794,239.1392 214.7614,235.8762 216.7397,230.917 219.8937,226.2184 229.83,214.9734 238.8081,207.1612 243.6672,203.6787 246.5519,202.0466 249.5643,201.183 250.0838,201.3437 250.278,202.2534 249.3484,203.7587 247.4364,205.5992 244.7951,207.5592 240.1325,210.3301 236.9963,211.7438 234.1592,212.524 231.8263,212.4771 230.8899,212.1095 229.5457,210.6612 228.9753,208.2955 229.1909,205.1716 230.8011,199.9033 232.5766,196.8598 234.8603,194.8879 236.1794,194.4329 237.6011,194.3635 239.1085,194.6816 240.6815,195.3769 243.9293,197.8062 248.6428,203.3798 252.2984,209.8268 253.6047,213.8323 253.8403,215.6195 253.7923,217.2255 252.9064,219.8243 252.1209,220.8033 250.0379,222.1477 247.5425,222.7434 244.9659,222.642 242.5725,221.8345 240.5341,220.2969 238.9678,218.0747 238.0175,215.3105 237.838,212.2336 238.0611,210.6694 239.1227,207.6948 240.9607,205.2001 243.4886,203.5075 244.9704,203.0528 248.237,203.0369 249.9457,203.4866 253.269,205.256 254.7687,206.533 257.1277,209.735 257.8655,211.6027 258.2469,213.6118 258.2497,215.7377 257.1328,220.2651 254.6951,225.1364 237.3454,251.2712 236.8844,251.6491 236.7094,251.3985 237.1966,249.0601 238.7668,244.5758 241.3759,238.5042 246.9804,227.7696 255.8321,212.6197 259.4898,205.359 261.6793,199.1229 262.0631,196.6629 261.9379,194.7831 261.3075,193.5619 260.1954,193.0401 258.6445,193.2142 256.7167,194.0456 254.4889,195.4671 249.4762,199.7072 244.2818,205.0915 239.4696,210.7493 229.6159,223.6937"/>
    <polyline points="319.7025,254.6773 319.3631,254.7993 319.0808,254.3893 318.8723,253.4621 318.8561,248.0482 319.4821,243.0114 320.6628,237.6673 322.3384,232.6138 324.3463,228.2367 329.5555,219.9666 330.1559,218.4969 329.7679,217.0728 328.1757,216.3522 326.0195,216.3153 324.2897,217.0218 323.8702,217.8012 323.9513,218.2352 324.7464,219.1129 327.4954,220.2422 330.2183,220.7193 339.1029,220.7267 350.0664,219.6046 356.7134,218.2173 360.3593,216.8223 361.7629,215.9567 362.8118,214.969 363.4625,213.8554 363.6872,212.6175 363.4758,211.2632 362.8363,209.8091 360.3824,206.7125 356.6512,203.6239 354.4303,202.1988 349.5134,199.8345 346.8962,198.9874 341.4654,198.1385 335.8136,198.519 332.9331,199.1638 327.226,201.2508 324.5073,202.6164 319.7052,205.7377 316.2726,209.0099 315.2314,210.5772 314.6935,212.0463 314.6725,213.3894 315.1628,214.5885 316.1416,215.6298 319.391,217.2039 321.5383,217.7305 326.4922,218.2853 331.7683,218.2384 336.7706,217.6462 342.9349,215.8172 345.9855,214.0785 348.2218,212.0987 349.6279,210.0392 350.1215,208.0175 349.6279,206.1294 349.0096,205.279 347.095,203.9022 345.8458,203.4371 342.8974,203.0891 339.4833,203.6203 333.7742,206.0496 327.989,210.0468 324.5928,213.2875 321.9435,216.7739 320.9904,218.5586 319.9779,222.1434 319.9612,223.9389 320.9506,227.5872 323.2394,231.366 326.5791,235.23 330.5915,239.0178 336.9996,244.0184 341.047,246.4782 344.6309,247.8817 347.6123,248.0163 349.8848,246.8474 351.3363,244.4915 351.7285,242.9336 351.841,239.2142 351.1123,234.934 348.6425,228.1018 346.158,223.5007 342.9964,218.8556 339.0902,214.1585 334.3779,209.5343 328.9002,205.2383 325.9379,203.3247 322.898,201.6366 316.9397,199.1458 311.9373,198.0837 310.1209,198.1248 308.9097,198.5376 308.3715,199.3016 308.528,200.3882 309.364,201.7612 310.8329,203.378 315.3486,207.1474 327.5997,215.2873 336.077,220.1896 343.0017,223.6937"/>
    <polyline points="343.0017,337.0795 324.2447,347.95 312.6874,355.4329 306.4238,360.3888 304.1805,362.592 302.6826,364.4781 302.0016,365.9525 302.1688,366.9358 303.1751,367.3714 304.9585,367.23 310.3805,365.2395 317.2512,361.3136 324.3398,356.1149 330.6643,350.3026 335.5956,344.3083 337.4331,341.3042 338.8299,338.2996 339.7852,335.2835 340.3047,332.2403 340.3971,329.1707 340.0732,326.091 339.3459,323.0309 338.2338,320.0295 334.9697,314.3975 330.6416,309.6475 325.8089,306.2585 323.4157,305.201 321.1576,304.614 319.1215,304.5143 317.3867,304.9009 316.0213,305.7518 315.0784,307.0193 314.5933,308.6341 314.5789,310.5111 315.0232,312.556 315.8885,314.6744 317.1128,316.7789 320.318,320.663 322.1284,322.3388 325.7784,324.9753 329.0733,326.519 331.6832,326.9471 333.4201,326.3677 334.2224,324.9463 334.1115,322.9131 333.1758,320.5748 330.6347,317.3425 328.5372,315.9394 326.421,315.5269 324.577,316.3555 323.349,318.5369 323.0808,320.1244 323.4325,324.2061 324.1046,326.648 326.4647,332.1804 332.2476,341.7318 339.9874,352.3036 345.8946,359.2104 352.2576,365.114 355.5275,367.4199 358.7816,369.17 361.9444,370.2981 364.9256,370.7688 367.6257,370.5788 369.9421,369.7548 371.7771,368.3582 373.0453,366.479 373.6795,364.2238 373.6338,361.7046 372.8872,359.0293 371.4531,356.2959 369.3847,353.5889 366.7666,350.9796 363.7039,348.5252 360.3069,346.2666 352.91,342.4257 349.0645,340.8571 341.2878,338.3883 329.6218,336.0837 322.3853,335.2573 316.3253,334.9216 312.0791,335.1305 310.7872,335.4744 310.0991,335.997 310.031,336.7081 311.7141,338.7158 328.6883,351.1591 342.7225,363.4717 344.9027,364.7103 345.6937,364.8134 346.2826,364.5607 346.6601,363.9517 346.8137,362.9974 346.4014,360.1665 345.8232,358.3802 343.956,354.3666 341.2811,350.1933 338.0171,346.2566 326.2502,335.1443 324.414,332.2719 323.9719,330.8147 324.142,327.8424 325.7625,324.8607 328.7441,322.0508 330.6756,320.7905 335.2463,318.7516 337.8229,318.0544 343.4806,317.5088 346.5682,317.7287 353.2478,319.2301 356.7693,320.4857 363.8334,323.8205 370.2713,327.9215 372.9759,330.1463 375.1908,332.4472 376.8206,334.8093 377.7907,337.2287 378.0543,339.711 377.5967,342.2586 376.4413,344.8603"/>
    <polyline points="343.0017,450.4654 355.707,467.6169 358.7499,470.971 359.944,471.7185 360.2368,471.5698 360.1829,470.2029 359.2866,467.5145 355.3097,459.2647 349.1777,449.006 339.9269,435.2014 334.2004,428.1216 330.6525,424.8358 327.6223,423.1892 326.3832,423.0657 325.3627,423.4239 324.5793,424.2515 324.0464,425.5125 323.7639,429.0942 324.5211,433.5947 326.177,438.4614 328.4602,443.2875 331.0621,447.8352 343.0979,466.6844 344.1061,467.7604 344.5222,467.547 344.8154,466.6763 345.6164,460.2355 346.8809,456.3894 348.5454,454.2374 353.2222,450.2385 355.0773,448.065 356.4774,445.4844 356.9935,442.6603 356.6508,440.7047 355.6474,438.6855 352.8567,435.6065 348.6254,432.904 343.1778,431.186 336.9017,430.7143 330.3052,431.5063 323.8826,433.4882 318.3733,436.5211 315.8188,438.9818 315.02,440.2864 314.531,442.9391 315.5571,445.5396 317.947,448.0002 321.3415,450.2572 325.25,452.2349 332.7487,454.9069 335.699,455.4237 337.8982,455.4095 339.2851,454.9654 339.8266,454.1943 339.766,453.7147 338.9356,452.6377 337.1298,451.5003 330.9596,449.3886 321.3214,447.6932 318.3956,447.5868 316.765,447.8927 316.5178,448.1977 317.1663,449.0952 328.1717,455.6361 330.5646,457.5431 332.123,459.415 332.7479,461.2707 332.4386,463.0822 331.2602,464.7193 330.3807,465.4168 328.1447,466.464"/>
    <polyline points="343.0017,563.8512 310.9053,563.7535 303.852,564.1331 302.9202,564.3491 302.8144,564.6161 305.0795,565.3171 326.8027,569.4843 334.4771,571.5459 339.267,573.3913 336.3294,571.9963 331.1853,568.8657 325.0138,563.9802 321.1553,559.7701 319.4923,557.3957 316.981,552.2315 315.8299,546.815 315.8126,544.17 316.8384,539.4028 317.8098,537.4455 319.0193,535.8731 320.4091,534.7468 321.9189,534.1118 323.4907,533.995 325.072,534.404 326.6185,535.3258 329.4758,538.5372 331.8784,543.1497 333.7364,548.6186 335.036,554.4825 335.8449,560.4488 337.2293,581.5985 337.9364,587.0273 339.1239,591.391 340.9165,594.1955 342.0619,594.8964 343.3814,595.0988 344.8813,594.8038 348.4306,592.8383 371.623,573.2093 372.9387,571.8317 372.8866,571.5207 372.3373,571.4333 367.9362,572.2767 345.2972,579.1988 340.5917,580.3522 336.0406,580.9633 331.7489,580.8613 327.9762,579.9554 325.0113,578.2811 323.077,576.0076 322.2956,573.389 322.6882,570.6832 324.135,568.0601 327.6318,564.3697 333.2162,560.001 337.4992,557.5748 341.725,556.1965 345.9529,555.9885 348.7641,556.4891 351.45,557.3602 356.0017,559.5731 359.1937,561.978 360.2071,563.2668 360.7989,564.6857 360.9803,566.3155 360.7545,568.2022 360.1346,570.3 358.5908,573.5772 353.833,580.3895 351.614,582.8739 350.3637,583.5539 350.3182,582.0828 351.8204,577.9247"/>
    <polyline points="246.4578,534.1838 244.4994,534.9552 240.0041,537.4559 226.9011,546.5681 221.1524,550.1762 215.2249,553.3746 202.4611,559.2841 199.8046,561.0326 199.2598,561.8658 199.2655,562.7073 200.8762,564.5156 214.4299,572.3103 222.0352,577.912 227.9081,584.1007 231.6786,589.6122 233.4762,593.1092 226.2458,583.3284 222.5424,579.5728 218.2247,576.22 213.5201,573.488 206.5467,570.8185 201.2537,570.0133 199.6139,570.4705 199.5067,570.9672 199.8874,571.6198 202.0319,573.3024 210.4953,577.4789 223.8193,582.447 231.3497,584.1904 238.5418,584.4842 245.3222,583.3536 250.9137,581.1236 254.1746,578.647 254.626,577.3802 253.6878,576.7254 251.5817,576.8478 248.659,577.8129 245.3049,579.5798 241.8591,582.0201 232.8736,590.0683 230.3827,591.103 229.172,591.0213 227.9606,590.5212 225.4815,588.326 222.8794,584.7857 218.7972,577.9331 213.8056,568.5826 211.2245,562.9406 209.8617,558.7456 209.5503,556.0478 209.824,555.1466 210.4098,554.9742 212.3539,556.5287 215.1395,559.984 218.4658,564.7762 220.9332,569.1019 222.2705,572.1658 223.1231,575.1058 223.3211,577.643 222.7851,579.4869 221.4916,580.4196 220.5537,580.5219 218.0844,580.0505 214.8659,578.8334 205.5137,574.1242 202.7557,572.1708 201.4452,570.4073 201.4187,569.6172 202.5829,568.2344 206.7672,566.6528 212.5929,565.6253 226.6561,564.3925 229.6159,563.8512"/>
    <polyline points="234.6477,670.215 233.6195,671.8376 232.7559,672.5365 230.9896,672.8969 229.3376,672.6374 222.7046,670.152 213.1087,665.5662 207.8887,662.3601 205.6331,660.1268 204.7945,657.9818 204.946,657.0204 206.3302,655.4824 208.9233,654.6518 210.5482,654.5587 214.15,655.0802 217.8185,656.5492 221.1768,658.8523 223.9918,661.7501 226.893,666.5283 227.8652,669.5525 227.9666,673.3098 227.2258,675.1417 225.8586,676.363 223.8577,676.9103 222.6269,676.9176 219.768,676.4078 216.5525,675.2807 213.2774,673.6929 210.2728,671.7728 206.9083,668.4085 205.7527,665.953 205.5544,664.7088 205.9489,662.3078 206.5386,661.2095 208.4401,659.3769 211.1157,658.2324 214.2306,657.9632 217.3804,658.6579 218.8397,659.3683 221.2955,661.4584 222.8931,664.2603 223.4432,667.5173 223.2991,669.2532 222.8736,671.0379 221.2016,674.7069 216.8748,680.341 211.1149,685.866 200.442,694.8065 201.0876,694.868 203.2566,694.031 208.8395,691.303 215.9306,687.1677 220.6968,683.7935 227.1644,678.0544 239.2021,664.3582 242.0701,661.5261 244.6233,659.7211 245.7351,659.2661 247.5172,659.2787 248.15,659.727 248.8467,661.4295 248.7856,664.1041 247.9763,667.6265 246.4538,671.8744 239.577,688.2643 233.2109,708.0646 234.314,702.6699 236.184,696.8999 240.7338,686.6135 242.677,683.1418 247.0623,676.4897 259.6187,659.9816 261.2649,656.5901 261.3028,655.5394 260.8074,654.9686 259.8048,654.8854 258.3443,655.2718 254.3311,657.2791 249.4153,660.4941 239.3922,668.2282 229.6159,677.237"/>
    <polyline points="146.8239,694.2966 146.4154,691.6608 145.5657,689.0321 142.6835,684.0057 138.5787,679.5145 131.2307,673.957 119.4389,667.227 113.726,664.4883 110.3745,663.2199 105.9479,662.1285 102.4527,661.9681 99.7208,662.8128 99.1867,663.3916 99.2111,664.0326 99.8658,663.859 100.6593,662.4095 102.3291,655.4252 102.5889,651.1653 102.2643,649.7429 101.6839,649.1997 100.3541,650.3113 95.2716,657.4492 89.1179,664.9594 87.6104,667.5921 87.6119,668.9443 89.0193,668.7935 91.8778,667.283 108.097,656.6792 110.2127,655.6935 111.6808,655.4916 112.5077,656.2198 112.7173,657.8986 112.3014,660.363 111.2037,663.3613 108.1166,668.3525 105.0456,671.7734 99.0918,676.7942 86.507,686.0768 84.2216,688.683 83.7644,689.8435 83.8136,690.9005 84.377,691.8487 86.9651,693.3919 93.5936,694.7419 98.7411,695.0307 103.5827,694.923 107.5697,694.5229 111.2054,693.6208 111.8461,692.9692 110.344,692.0542 91.7817,688.2642 88.3231,687.0178 87.7042,686.2743 88.5581,685.7002 90.7532,685.3641 107.7527,685.0709 114.9501,683.8921 116.9075,683.1411 118.2797,682.2396 119.0943,681.2382 119.4332,680.2247 119.2106,678.8239 118.357,677.7297 117.3012,677.1832 116.2301,677.237"/>
    <polyline points="116.2301,790.6229 129.6719,797.5466 134.8472,800.6153 139.5538,803.8617 143.054,806.9583 144.1402,808.3198 144.699,809.483 144.6925,810.3977 144.1078,811.0225 142.9621,811.3285 141.3059,811.297 136.7828,810.1965 131.2592,807.7983 125.3572,804.3624 93.4719,781.8773 89.7899,778.5089 88.6385,777.0476 88.0264,775.7677 87.9917,774.6885 88.5488,773.8244 89.6821,773.1848 91.3419,772.7772 95.9182,772.6849 101.5285,773.5626 107.4714,775.3164 113.223,777.7339 118.4521,780.5463 122.9939,783.5026 126.6561,786.4193 129.205,789.1863 130.4625,791.7334 130.5835,792.9051 129.8362,794.9917 127.9075,796.6679 125.059,797.895 121.5855,798.6526 115.7419,798.8583 111.6804,798.3902 107.772,797.5507 104.3952,796.4748 101.9417,795.2455 100.75,793.8938 100.7053,793.1715 101.7995,791.6198 104.457,789.8788 126.7138,779.1965 140.3889,771.8198 147.7479,767.1594 149.763,765.2178 149.6851,764.6978 147.2634,764.6198 138.9141,766.7333 131.5747,769.2308 112.5243,776.4474 101.5344,779.9378 94.7731,781.5926 89.1827,782.572 85.531,782.8029 84.631,782.6354 84.4062,782.2891 84.8612,781.7788 87.6482,780.3461 97.9747,776.5481 111.6112,772.17 115.903,771.0472 119.4652,770.5173 122.4065,770.6908 124.7245,771.5684 126.3156,773.0293 127.0836,774.8646 127.0552,776.8068 125.9067,779.3279 124.1361,780.784 122.4423,780.9199 121.3743,779.9183 121.3573,778.2204 122.7398,776.3143 124.5067,775.2884 126.8912,774.8073 129.7697,775.1281 132.9548,776.3567 134.5753,777.3035 137.6454,779.8027 140.1655,783.0377 141.8062,786.9839 142.363,791.7024 142.2016,794.3942 140.9851,800.4749 138.692,807.2637 135.6191,814.1602"/>
    <polyline points="197.7282,793.758 197.8561,792.1425 198.4562,790.6062 199.5091,789.15 202.8165,786.4775 207.3397,784.1532 212.5265,782.2397 217.8541,780.7737 225.3018,779.3872 236.5282,778.1559 239.0764,777.5009 240.9964,776.4817 242.2623,775.0588 242.8481,773.3015 242.78,771.4057 241.6231,768.8654 240.2839,767.7093 238.5997,767.1837 236.7029,767.32 234.782,768.0072 233.0533,769.0602 231.2272,770.8674 230.746,771.9379 231.0164,772.7113 232.9401,773.1034 238.0287,772.081 244.4501,769.7951 249.5789,767.2825 246.2372,770.208 243.5545,773.0354 232.7291,787.0933 227.19,792.77 222.8506,795.9965 217.8796,798.6088 212.3466,800.4355 206.5615,801.3056 203.7458,801.3364 198.7256,800.5303 196.7202,799.6806 195.1779,798.5311 194.1745,797.0847 193.7596,795.3456 193.9502,793.3179 194.7372,791.0026 197.9499,785.5033 205.8278,775.34 215.3061,764.3049 221.5093,758.0132 224.4358,755.6594 227.2173,754.0315 229.8492,753.2331 232.3391,753.3078 234.6933,754.2472 236.9099,756.0023 238.9809,758.4904 240.8943,761.6035 242.6364,765.2199 244.1934,769.2103 246.704,777.8135 247.6378,782.2142 248.8237,790.8698 249.0649,799.2238 248.8243,803.278 247.6473,810.9429 245.6812,817.4551 243.2298,821.9523 241.9424,823.2119 240.6743,823.7444 239.4599,823.5487 238.3221,822.6546 237.2755,821.12 236.3272,819.0282 234.7218,813.5971 231.3945,795.435 230.3008,790.9887 228.5298,786.7541 227.4555,785.5862 226.6769,785.6723 226.3822,786.8357 226.7653,788.8246 227.9878,791.4233 230.174,794.4769 233.4431,797.7547 235.5086,799.3796 240.4724,802.3776 246.295,804.7531 249.3541,805.6151 255.263,806.5612 260.1179,806.4249 261.8716,805.9856 263.0605,805.3383 263.6339,804.5195 263.5766,803.5666 262.9023,802.5164 261.6478,801.407 259.8708,800.2753 255.0683,798.0744 249.2457,796.1084 229.6159,790.6229"/>
    <polyline points="212.6279,886.166 204.078,897.4533 201.7348,901.1852 200.7179,904.3219 200.7803,905.6659 201.2245,906.8598 203.18,908.8046 208.2386,910.7929 230.3808,914.8234 233.0236,915.5456 234.1319,916.3607 233.371,917.2268 231.6423,917.7202 227.1562,918.0233 222.9407,917.7606 215.1223,916.4928 209.5076,915.0671 204.3785,913.2517 200.556,911.1291 199.3627,909.9581 198.7292,908.7084 198.6791,907.3742 199.2073,905.9513 200.2867,904.4365 201.869,902.8259 206.2687,899.3061 226.5718,885.0282 234.6554,880.1007 239.6339,878.1951 244.1181,877.6404 247.8146,878.4192 250.4541,880.3477 251.3318,881.6479 252.1823,884.6747 251.8748,887.9142 250.5788,890.983 248.5606,893.5907 246.1228,895.5457 243.5108,896.7328 240.8957,897.0909 238.419,896.5981 236.1776,895.2606 234.2222,893.1224 232.6019,890.2917 230.9174,885.2602 230.2574,880.4438 230.7052,877.3683 231.0981,876.9475 232.2234,877.1127 233.7446,878.4886 236.5171,881.9772 241.7,889.164 242.9235,891.4684 241.6202,890.883 229.4792,881.4392 225.2498,879.0426 220.8069,877.4055 216.3844,876.8384 214.2731,877.0061 210.4718,878.2199 207.5768,880.4355 206.6032,881.8246 206.0064,883.3432 205.8162,884.9468 206.0451,886.5915 206.6902,888.235 209.1378,891.3597 210.8596,892.7745 215.0258,895.1953 219.7617,896.9915 227.0902,898.483 234.1213,898.861 246.3868,898.8087 250.172,899.2506 251.1746,899.7947 251.1612,900.1314 250.1155,900.893 244.8168,902.4124 236.3296,903.6367 229.6159,904.0087"/>
    <polyline points="143.6405,917.2713 143.0681,916.3858 140.6273,915.148 136.7435,914.7649 131.894,915.3575 126.6117,916.9561 123.9571,918.1136 118.8299,921.045 114.0691,924.5769 104.1358,933.1044 101.4167,934.8303 100.4616,935.0686 99.82,934.8556 99.5135,934.1922 99.9215,931.6165 101.5902,927.6959 105.8929,920.3647 109.4333,915.2744 114.7587,908.5383 119.1554,903.8013 122.8397,900.6501 119.6946,902.5817 101.4473,911.3769 90.4591,917.51 86.082,920.5119 83.528,923.0514 83.1123,924.0447 83.2993,924.8059 84.0697,925.3079 85.3764,925.5344 89.2933,925.1538 94.3078,923.7398 99.6371,921.4791 104.6076,918.6644 108.7304,915.6531 112.8741,911.3988 114.8207,907.9243 115.1741,905.4837 114.6325,904.5225 113.4549,904.1232 109.446,904.8281 102.635,907.3722 99.9475,908.8623 97.6796,910.7288 96.0638,912.9323 95.5618,914.1226 95.2869,915.3431 95.433,917.7669 95.8335,918.9091 97.1474,920.8824 98.8499,922.2136 100.5709,922.6979 102.026,922.265 102.5978,921.7189 103.3689,920.0509 103.4987,916.4877 102.3305,912.4992 99.9256,909.1521 97.7267,907.7406 95.1988,907.2511 92.6354,907.8441 90.4866,909.5967 89.2422,912.5175 89.2517,916.5674 90.6349,921.6198 93.2821,927.3366 96.8676,933.0251 100.9235,937.6227 102.9693,939.1466 104.9465,939.9985 106.8016,940.1186 108.4873,939.498 109.9607,938.167 111.1844,936.1908 112.1282,933.6623 112.7698,930.6905 113.1015,923.8695 112.1288,916.5558 111.1356,912.9135 108.1087,905.8806 106.0816,902.514 101.113,896.0191 92.2695,886.989 86.5696,881.9534 79.8655,876.6697 104.3969,895.4074 116.2301,904.0087"/>
    <polyline points="116.2301,563.8512 109.3149,557.2995 98.8431,548.1552 90.198,541.2523 85.2729,538.009 94.3006,546.5768 99.984,553.019 104.3083,559.7424 106.102,564.1995 106.656,566.4188 107.0644,570.8058 106.9082,572.9294 105.8733,576.8921 103.973,580.3033 101.4206,583.021 98.4985,584.9392 95.5413,585.9203 92.953,585.8407 91.169,584.6875 90.5204,582.5945 91.1632,579.7785 93.0585,576.4523 95.9347,572.8285 107.83,559.7762 117.4313,546.9015 120.1514,544.1553 121.7119,543.2117 122.3922,543.037 123.5136,543.3013 124.5934,545.0382 125.1412,548.4933 124.9223,551.3542 124.5034,551.0051 124.0706,548.9935 124.135,544.6826 125.0228,541.835 126.0562,540.9861 127.3906,541.3002 128.9545,542.8254 130.646,545.4364 133.1209,550.8505 134.4923,555.0079 135.4112,559.2827 135.6297,563.5048 135.3976,565.573 134.9103,567.6073 133.172,571.518 130.5461,575.065 127.2911,578.0152 123.6843,580.1203 121.8199,580.7878 118.0652,581.2643 116.1962,581.0596 114.338,580.5639 110.6683,578.7691 105.4053,574.5517 100.8469,569.3713 98.5777,565.7033 97.7636,563.8296 97.1904,561.9301 96.785,558.0803 96.9324,556.1624 97.7976,552.4548 99.1747,549.1096 100.7565,546.3806 102.2483,544.5301 102.8752,544.0019 103.7455,543.8004 103.9764,544.6914 103.5294,546.4755 100.8651,551.5094 96.956,556.5244 91.7803,562.0165 94.1532,561.4579 98.0993,559.2565"/>
    <polyline points="116.2301,450.4654 96.7634,461.0824 86.473,467.1336 79.2693,472.4358 78.1187,473.7652 77.7261,474.7914 78.1188,475.476 79.2813,475.7913 81.1448,475.7248 86.4855,474.4758 92.9647,471.9471 96.2605,470.3199 102.3818,466.5965 105.0453,464.5926 109.347,460.4924 112.2057,456.4715 113.7255,452.7092 114.1126,449.3001 113.5438,446.2677 112.1279,443.6536 109.9681,441.5508 107.2131,440.0695 104.0768,439.2998 100.8108,439.2901 99.2187,439.5716 96.3133,440.6813 95.0704,441.4943 93.1369,443.598 92.0594,446.2863 91.8737,447.828 92.2419,451.2422 93.5808,454.9965 97.1287,460.9016 102.0426,466.3633 105.8828,469.2037 110.0395,471.0285 112.1982,471.4812 114.3964,471.6013 118.914,470.8303 121.2491,469.9645 126.0832,467.4278 131.0472,464.0948 135.8553,460.2692 140.0539,456.1454 143.1581,451.8151 144.174,449.5901 144.7896,447.3359 144.9885,445.0708 144.7679,442.8245 144.1405,440.6363 143.1381,438.5529 141.8102,436.6252 138.4329,433.4505 134.5234,431.5614 132.5146,431.2216 130.5374,431.322 128.6366,431.8644 126.8502,432.8276 123.7212,435.841 121.2616,439.9127 119.4569,444.5778 118.2385,449.4928 117.3852,456.9351 117.4835,463.8344 117.9135,467.5053 118.552,469.9357 119.3828,470.8227 119.8641,470.6487 120.9421,469.1001 128.4902,447.9447 135.4292,430.8474 138.3125,424.6668 140.9425,420.021 142.0762,418.5049 143.0333,417.6159 143.7699,417.3914 144.246,417.8419 144.4295,418.9469 144.3015,420.6461 143.1208,425.4307 139.6121,434.2756 133.4337,447.3093 131.6171,452.3696 131.4431,453.5553 131.7321,455.1563 132.1589,455.5549 133.4289,455.5059 135.8843,453.2934 137.5308,450.4788 139.4443,444.4543 140.095,439.4692 139.9242,431.5138 139.052,426.724 137.6524,423.0471 135.8494,421.0007 134.851,420.6959 133.8233,420.891 132.7919,421.5707 130.804,424.1767 129.0169,427.9218 127.4957,432.1501 125.524,440.2555"/>
    <polyline points="224.5364,454.7221 218.0206,447.8229 211.0086,439.7417 207.9229,435.6582 207.0082,433.4179 207.9029,433.256 209.8921,434.2702 212.6733,436.4972 215.8866,439.8977 220.8748,446.8826 223.999,452.5198 227.9317,462.2843 229.8215,469.3603 231.35,479.1288 231.5302,483.558 231.1817,485.3106 230.8576,485.0795 229.9825,482.5024 225.7911,464.0417 222.8436,453.8389 219.451,445.132 212.0021,430.0989 214.1483,433.0982 216.3419,435.269 220.9814,438.299 224.7816,439.8196 228.9938,440.7686 233.5519,441.0089 235.9343,440.8293 240.7686,439.8396 245.4303,438.0354 249.5373,435.545 251.2485,434.1131 252.6609,432.6087 254.4142,429.577 254.6987,428.1583 254.5802,426.8802 254.072,425.7974 253.1987,424.9583 251.9942,424.4017 250.4986,424.153 248.7589,424.2233 244.7685,425.3042 240.4704,427.5182 234.2157,432.4575 228.7339,438.4463 222.8655,446.3765 218.7604,453.03 217.5447,455.7216 217.0677,457.9086 217.3962,459.542 218.4698,460.6175 220.1471,461.1463 223.4236,460.9656 228.5619,459.1404 243.4016,451.4275 246.8854,450.3973 248.3617,450.5311 248.9311,451.3171 248.8395,451.94 247.8887,453.6115 245.9654,455.8041 241.5669,459.9057 235.8446,464.5904 229.1133,469.1951 224.0643,471.7854 218.6232,473.624 213.0443,474.4446 207.7995,474.1246 203.5351,472.7178 201.98,471.6686 200.9002,470.438 200.3364,469.0686 200.3013,467.6049 200.7826,466.0888 201.7529,464.5532 204.9774,461.5174 209.4776,458.6473 214.6012,456.087 221.9544,453.0747 229.6159,450.4654"/>
    <polyline points="683.1592,450.4654 659.7171,439.4508 654.6131,436.3717 653.8466,435.5349 653.6379,434.8007 654.0087,434.1762 656.44,433.3078 660.7742,433.066 669.4105,434.1563 675.6517,435.8545 684.8188,439.3906 696.3294,444.6517 703.3865,448.153 707.5694,451.067 708.1579,451.9636 708.3216,452.8528 708.0666,453.751 706.3967,455.6303 694.5036,463.7968 683.8615,471.716 682.603,472.3779 681.8746,472.1863 682.3407,471.1088 683.6518,469.8291 685.5927,468.8925 687.1864,468.6384 689.949,468.8852 698.3106,471.237 700.8336,471.2637 702.331,470.568 702.6823,469.5472 702.3942,469.0639 701.8053,468.971 700.5356,469.5957 695.9781,473.0087 694.9033,473.1378 694.5054,472.5833 694.7008,469.7483 695.9818,465.708 697.3433,463.0321 698.9214,461.4874 699.8859,461.329 700.5471,461.9333 700.5885,464.2307 699.1708,467.9375 696.254,472.4536 692.4157,476.6915 689.8144,478.642 687.412,479.4865 685.2949,479.0605 683.5173,477.3671 682.1191,474.5981 681.1437,471.0886 680.6473,467.2218 680.6893,463.309 681.2919,459.5099 682.4052,455.8291 683.9915,452.2046 686.0796,448.5927 688.6987,445.015 691.8195,441.5624 695.3145,438.3238 700.7241,434.0811 703.9739,431.9532 706.5738,430.7502 708.3036,430.7578 708.802,431.2643 709.0483,432.1032 708.8161,434.7033 703.5915,450.0837 702.2443,455.3194"/>
    <polyline points="683.1592,563.8512 675.8321,562.6447 668.2766,560.805 662.7284,559.1088 657.5765,557.0889 653.5343,554.8083 652.1312,553.6067 651.2255,552.3904 650.8619,551.181 651.0659,550.0009 651.8401,548.8692 654.9552,546.8087 662.3368,544.4363 670.5596,543.3776 675.4317,543.6341 677.5511,544.0682 679.436,544.6954 682.4783,546.4791 683.6374,547.6025 685.2696,550.1848 686.0691,552.9643 686.1499,555.5937 685.6326,557.7634 684.6449,559.2796 683.3385,560.0226 681.8551,559.9074 680.2637,558.9091 678.5977,557.0839 676.0521,553.0666 669.9021,541.4631 668.2195,539.0957 666.9012,537.8781 666.4427,537.7931 666.1377,538.0819 666.0196,539.7581 667.1348,544.47 669.7517,550.3856 673.5796,555.9505 676.6237,558.9581 679.9887,561.1885 683.6708,562.5288 687.7228,562.9566 692.1789,562.5304 696.9904,561.3442 704.3791,558.4489 708.7501,556.0326 711.9713,553.4448 713.5398,550.8688 713.6126,549.6453 713.1967,548.4993 712.3083,547.455 710.9899,546.5328 707.3388,545.1088 700.6939,544.1064 694.6096,544.3774 684.8918,546.8028 682.2458,546.5134 674.8713,544.425 672.8297,544.522 671.0904,545.3775 669.7903,547.0804 668.6893,551.1058 668.261,556.3969 668.2382,564.3899 668.8988,573.0145 669.8391,579.2186 671.0948,583.9638 672.3595,586.469 672.9952,586.7939 673.2261,586.5508 673.547,583.002 672.3158,569.0627 672.1458,560.8615 672.6198,556.9949 673.402,555.202 673.9778,554.6365 674.6878,554.3205 676.5123,554.458 680.1855,556.4903 684.7457,560.3385 691.7271,567.5917"/>
    <polyline points="683.1592,677.237 672.1834,662.2737 663.1231,651.3328 659.017,647.3055 657.2959,646.0422 655.8819,645.3972 654.8326,645.423 654.1957,646.1364 654.0037,647.5109 654.9892,651.9248 657.6315,657.7895 661.4403,664.1785 668.0396,673.3547 680.6198,689.2232 683.6901,692.6908 684.9859,693.4765 685.6373,692.9504 685.4498,689.7803 684.0482,684.0984 681.6039,676.5798 673.3611,654.4069 670.8131,649.2299 670.1352,648.3432 669.5779,647.9351 669.1625,648.0165 668.8297,649.5883 668.9367,650.9869 670.3749,656.6864 672.1866,660.8494 674.5844,664.6406 677.48,667.7217 680.7629,669.8928 684.3171,671.0234 686.173,671.1716 690.0161,670.6195 693.9622,668.9611 697.8512,666.2797 701.4375,662.7369 704.4263,658.6276 706.526,654.4236 707.1524,652.475 707.407,649.2828 707.0077,648.1771 706.2686,647.4652 705.2236,647.1728 703.9234,647.3051 700.814,648.7621 697.4815,651.4899 694.4218,654.9692 691.194,660.4437 690.2911,663.6322 690.4466,666.0534 691.5529,667.4153 693.4158,667.5237 695.8186,666.3251 698.5451,663.9121 701.3339,660.5236 704.9242,654.5425 706.4909,650.8896 707.1058,647.5589 706.797,647.2561 706.228,647.4058 704.3746,649.0409 691.746,665.8008 689.3725,668.2739 687.2677,669.6925 685.4758,670.0164 684.7165,669.777 683.495,668.5655 682.6543,666.561 682.1374,664.0962 681.5358,657.395 681.1439,657.0177 680.8429,657.1454 680.0273,658.0426 677.6845,662.0794 672.193,673.2811 669.8559,678.9652 668.5813,683.0439 667.3931,689.4599 667.2003,693.7067 667.73,699.3044 668.3979,701.9518 669.0997,703.3392"/>
    <polyline points="683.1592,790.6229 686.4338,788.4217 690.0086,784.613 693.6708,778.6151 695.6618,773.6567 696.9797,768.3924 697.3242,765.824 697.2955,761.2335 696.2304,757.928 695.3072,756.933 694.14,756.4385 692.7475,756.4641 691.1495,757.0061 687.4037,759.4891 675.1958,770.4953 666.4958,777.3067 660.8751,780.9279 651.427,786.0254 652.3318,786.2325 655.299,785.9104 662.2844,784.5121 667.512,783.0173 672.4355,781.1329 676.6441,778.9339 679.9352,776.5655 682.989,773.2708 683.7409,771.7272 683.5166,771.0242 682.3887,771.3011 680.4295,772.5572 662.8916,786.4364 658.7278,790.5014 657.5133,792.822 657.5028,793.855 657.9223,794.7931 658.7728,795.6249 661.648,796.9128 665.7136,797.6265 670.4331,797.7488 675.3456,797.2935 682.4845,795.5762 689.0631,792.7905 693.0442,790.4173 696.5456,787.5751 699.3657,784.1947 701.2513,780.3256 701.9509,776.1758 701.3161,772.1071 700.5057,770.2476 698.0371,767.1841 696.4604,766.0931 694.7131,765.3607 692.8337,765.0242 690.8529,765.1096 688.7924,765.631 686.6657,766.5855 682.2361,769.6859 675.231,776.5046 668.3772,784.4554 664.4509,789.8598 661.524,795.2486 660.5586,797.931 659.9758,800.5807 659.798,803.165 660.033,805.6417 660.6722,807.9618 661.6902,810.0719 663.0466,811.9177 664.6905,813.4457 666.5646,814.6056 668.6102,815.3529 670.771,815.6513 673.0003,815.4739 675.2638,814.806 677.5378,813.6537 682.064,810.0405 686.5185,805.1237 690.8183,799.5373 694.7556,793.8008 698.0838,788.17 700.5796,782.6743 701.4558,779.9988 702.0627,777.4041 702.4493,772.6173 702.2435,770.524 701.153,767.2018 699.4231,765.3524 698.4343,765.0717 697.4263,765.2485 695.5326,766.9756 694.7243,768.4741 694.0484,770.326 693.1652,774.7843 693.0901,782.0831 693.8332,786.5124 695.1554,790.1969 696.0197,791.7167 698.112,794.0813 700.5743,795.5111 703.1637,796.0069 705.5345,795.6638 707.3438,794.6399 708.3595,793.1135 708.5389,792.2161 708.2504,790.2318"/>
    <polyline points="688.5016,882.9708 694.1199,881.4082 698.7591,880.8065 700.9321,881.112 701.6516,881.4954 702.2126,882.7369 701.5128,884.6001 699.6257,887.0309 686.2005,900.381 681.4225,905.7002 678.7495,909.1615 675.6179,914.0858 673.611,918.3126 672.7234,922.1315 672.9764,922.9714 673.5443,922.9538 674.994,920.3661 676.4416,914.3176 676.9293,908.6819 676.7252,907.0378 676.1467,905.8181 675.1083,905.0291 673.5613,904.6801 671.5182,904.7881 669.0878,905.3673 665.1534,907.2055 661.5837,910.2949 659.7846,913.007 658.6689,916.1751 658.3955,917.8977 658.4118,921.4992 659.1219,925.0447 660.4099,928.1182 662.0939,930.2831 663.9421,931.1985 665.7091,930.7576 666.4936,930.0751 667.7538,927.9896 668.6441,923.8142 668.1692,919.5665 666.4186,916.3361 663.8706,914.7091 661.3449,914.7838 660.1626,915.7027 659.8287,916.386 659.7753,918.1079 661.1647,921.1845 663.6925,923.997 666.3745,925.4105 667.7869,925.0959 668.3045,924.5139 668.8706,922.5619 668.6816,919.8169 667.621,916.6748 665.683,913.4809 663.0147,910.4738 659.8954,907.784 652.775,902.5835 651.4571,901.0196 651.3088,900.3352 652.0738,899.1865 655.5217,898.1359 666.9176,897.9167 669.0678,897.5489 670.1287,896.6614 669.971,895.1115 667.47,891.3986 662.5357,886.1821 656.2082,880.4169 648.4947,874.3176 668.657,890.7642 683.1592,904.0087"/>
    <polyline points="660.064,1013.4975 656.1713,1015.6883 655.6101,1016.671 655.7398,1017.0974 656.8368,1017.7957 660.4031,1018.4835 677.6539,1019.9813 681.5685,1020.7353 685.4773,1021.9512 689.4928,1023.7099 695.7881,1027.1721 707.3624,1034.1179 710.2759,1036.3864 708.8776,1035.5723 706.6826,1033.5577 703.9655,1030.5065 701.1869,1026.7241 697.7564,1020.3258 696.3588,1015.8106 695.9925,1013.4936 695.8599,1011.142 696.2792,1006.393 698.3366,999.5205 700.293,995.5505 702.3677,992.5909 704.2068,991.0971 704.9201,990.9893 705.4403,991.3155 705.7875,993.1768 705.5857,994.621 704.4383,998.2112 702.4176,1002.2488 699.7825,1006.2149 695.5317,1011.3299 691.0736,1015.5855 689.6812,1016.1609 689.2019,1015.984 688.6839,1014.6676 688.7408,1012.114 689.7773,1006.2464 691.6632,998.5383 694.0654,990.4978 696.6475,984.7676 697.4907,983.8297 698.308,983.4751 699.0917,983.7143 699.8362,984.5303 701.1893,987.691 702.3347,992.3555 703.2354,997.7708 704.2667,1010.4282 704.2168,1015.7206 703.8197,1019.9307 703.0238,1021.6838 700.0407,1023.1033 698.442,1024.5386 695.7092,1028.4787 693.0175,1034.4111 688.854,1047.6428 687.44,1050.8185 687.1162,1050.8415 686.8937,1050.2942 686.7888,1049.1865 687.3096,1043.006 688.4784,1037.3569 690.3759,1031.373 694.3862,1022.9129 704.156,1007.8113 705.7144,1003.8256 705.3197,1002.3679 703.8939,1001.9321 701.6783,1002.437 698.9199,1003.7272 695.8787,1005.6254 689.9945,1010.4354 683.1592,1017.3945"/>
  </g>
</svg>
