<?xml version="1.0" encoding="utf-8" ?>
<svg xmlns="http://www.w3.org/2000/svg" xmlns:cc="http://creativecommons.org/ns#" xmlns:dc="http://purl.org/dc/elements/1.1/" xmlns:ev="http://www.w3.org/2001/xml-events" xmlns:inkscape="http://www.inkscape.org/namespaces/inkscape" xmlns:rdf="http://www.w3.org/1999/02/22-rdf-syntax-ns#" xmlns:sodipodi="http://sodipodi.sourceforge.net/DTD/sodipodi-0.dtd" xmlns:xlink="http://www.w3.org/1999/xlink" baseProfile="tiny" height="29.7cm" version="1.2" viewBox="0 0 793.7007874015749 1122.5196850393702" width="21.0cm">
  <metadata>
    <rdf:RDF>
      <cc:Work>
        <dc:format>image/svg+xml</dc:format>
        <dc:source/>
        <dc:date>2021-11-14T17:09:04.667230</dc:date>
      </cc:Work>
    </rdf:RDF>
  </metadata>
  <defs/>
  <g fill="none" id="layer1" inkscape:groupmode="layer" inkscape:label="1" stroke="#00f" style="display:inline">
    <polyline points="460.3465,575.9224 442.2411,580.6463 407.7975,588.2722 376.5416,596.8171 366.4255,598.9134 333.9139,604.6778 326.4633,606.5876 313.7237,610.4851 306.9695,611.9518 290.2235,613.8541 270.3376,615.1658 261.4529,614.8657 252.5317,614.0627 247.4807,613.2034 242.6334,611.8245 238.9209,610.3382 233.7479,607.6984 228.7496,604.5663 224.6058,601.344 222.1084,598.9107 219.249,595.4825 216.0523,590.7578 212.9985,585.5013 210.4242,579.9739 209.028,574.5226 208.993,571.3649 209.6519,564.9039 210.1952,552.2089 211.1223,547.7209 212.8573,543.3731 218.0224,533.9546 221.9238,525.4489 225.1751,521.2537 235.8809,511.8918 239.3558,509.6181 243.2502,508.0194 247.607,506.6918 255.9842,505.0806 263.2014,504.3764 269.4008,504.1423 274.6752,504.4151 278.7813,505.2089 283.1301,506.7559 289.0248,509.7081 294.5979,513.533 298.2689,516.7806 300.4599,520.5122 302.4241,526.3411 305.1919,532.7837 305.8236,535.7486 305.8456,538.8126 305.1829,543.0226 303.1107,551.8541 301.153,557.5987 298.6029,562.1969 289.7243,573.4942 282.7054,583.9155 279.0312,588.357 274.9852,592.5908 270.6773,596.5892 266.0163,600.254 244.5173,613.7072 232.9794,619.1572 229.012,620.0998 224.9699,620.1075 219.877,618.7262 214.8302,616.0344 212.5659,614.1292 211.2066,612.5661 210.2488,610.9688 209.6097,608.7938 209.5415,605.7999 210.2287,601.6138 214.265,592.6574 216.6008,580.0273 219.7815,571.8388 222.9832,566.0321 226.2688,561.4721 230.4557,557.0339 237.9146,550.489 243.6282,546.2147 252.1231,541.0344 266.6285,533.0976 276.2973,528.5017 285.4194,525.0454 298.1043,521.0122 308.8418,518.0589 322.971,514.7473 339.9151,511.4653 355.0024,509.2527 377.081,506.9714 397.2278,505.5318 412.195,504.894 429.5114,504.7144 462.1583,505.1335 486.275,505.8285 503.5041,506.9239 518.2397,508.4988 539.3265,511.4781 561.0008,515.1008 574.1569,517.9442 582.1628,520.3254 587.8856,522.912 589.1156,523.8176 590.532,525.6845 590.7882,526.6414 590.6376,528.5925 588.59,534.6812 587.6711,541.162 586.8657,543.4142 585.2663,545.6976 584.091,546.846 578.7946,550.2911 570.8041,553.6928 544.9465,562.6577 524.4472,570.7681 514.9388,574.2224 477.9558,585.0629 458.2127,590.0789 445.1559,592.7503 400.0412,600.0385 374.3438,605.0035 363.3764,606.7566 343.8387,608.6728 308.6514,610.8691 280.1017,613.5458 272.0127,613.8548 264.1039,613.6222 251.433,612.2298 242.1053,610.2487 232.6394,606.775 223.1137,601.8446 219.9616,599.7197 216.3034,596.7326 213.1677,593.5428 211.4542,591.1826 210.3869,588.8974 209.7561,586.5778 208.9486,578.7357 209.5467,572.959 212.121,562.4383 221.3316,538.6745 224.03,530.2278 225.5946,527.311 227.9596,524.4974 231.0728,521.7626 244.5696,512.1844 249.7769,509.1016 255.3801,506.275 259.3859,504.6991 263.1185,503.7743 265.7145,503.6266 279.9871,505.7147 283.5176,506.5504 287.2792,508.0654 289.7795,509.4316 292.5192,511.5578 294.0455,513.3709 294.7361,514.6813 295.3058,516.7821 295.4983,522.1493 295.2333,523.7879 293.323,528.9331 292.7377,531.5971 292.8592,534.3392 293.954,541.1426 293.7083,543.1674 292.9668,545.2003 290.676,549.2859 284.2787,558.6085 274.7193,573.6614 267.2891,583.1167 261.2945,591.4765 256.9623,596.2741 252.8563,599.64 238.3849,610.0515 228.5275,616.1273 225.7849,617.173 222.8355,617.5543 219.1755,617.2599 215.2533,616.1672 213.9149,615.3283 213.216,614.0312 212.8644,612.4827 213.1261,610.7674 214.8771,606.3904 217.1211,599.0156 220.0903,591.0044 222.0981,586.6606 224.6752,582.2165 229.5003,575.3424 235.4047,568.2568 241.4373,562.3158 258.5095,546.6636 264.9408,542.0852 272.8955,537.6942 281.9876,533.4478 296.3923,527.3883 306.0792,523.6404 316.2464,520.1636 327.4538,516.9444 339.2079,514.0261 354.1576,510.87 370.951,508.1479 389.3361,505.8845 407.7646,504.2286 430.6328,502.9781 451.8003,502.4122 467.7348,502.4704 484.7777,503.2701 508.2665,505.2604 525.9637,507.1948 538.462,509.1701 545.9108,510.9275 549.9293,512.2182 554.8876,514.3003 568.3842,521.2718 572.7877,523.8306 575.2768,525.6124 577.2028,527.4551 578.3978,529.3556 578.7359,531.3081 578.5154,532.3014 577.2609,534.3157 573.6748,537.3875 556.1839,547.9537 541.8585,555.6541 525.2115,563.5352 514.8298,568.0968 506.1077,571.4805 496.461,574.7905 468.8683,583.3385 437.0872,594.0466 396.958,606.952 387.4868,609.5255 373.8735,612.3715 356.4452,615.1473 336.7382,617.7256 320.9119,619.0255 303.4378,619.7853 290.398,619.8576 280.549,619.3743 268.6096,617.9165 255.2834,615.1437 242.7505,611.4694 234.3373,608.0257 229.8473,605.4054 225.0876,602.0792 220.5867,598.3777 217.8429,595.623 215.8253,592.9874 214.4618,590.4303 213.5658,587.8558 212.5485,583.2726 212.1777,577.3741 212.706,568.8252 212.6094,560.5554 213.1289,555.8636 213.9966,552.4121 217.0072,543.3232 219.5751,533.5956 220.6986,530.6039 222.2524,527.743 225.1597,524.1035 232.4916,516.8236 235.5807,514.1105 239.1615,511.6722 244.7821,508.9345 250.6438,506.7035 256.8433,504.9785 262.4211,503.9033 275.1128,502.604 281.3864,502.5324 287.1938,502.9103 294.2207,503.9313 299.768,505.1598 304.9196,506.7877 309.1791,508.8527 313.5007,511.9663 317.4868,515.5509 324.1843,522.168 327.0966,525.9192 328.1854,528.9352 328.4327,533.162 327.9017,537.5713 326.3159,543.2872 323.9428,547.9565 314.9275,561.0328 309.9717,566.9958 302.3976,575.2494 297.8803,579.8873 292.9145,584.3477 272.3362,600.4678 252.6201,611.4559 245.2117,614.4789 234.3121,617.0092 228.4051,617.9828 221.9655,618.2443 219.387,617.9485 217.0918,617.2698 214.3946,615.7249 211.1652,612.6966 208.2443,608.6574 205.4315,603.5818 203.9468,599.9045 203.0756,596.209 202.9126,592.552 203.303,587.8116 204.3986,584.0464 206.6058,580.4619 227.5641,554.7953 233.2573,549.4785 238.8952,545.3724 247.3593,540.3968 256.9129,535.5674 265.9989,531.8322 278.8895,527.3143 294.7498,522.2454 308.3405,518.4273 326.9344,514.2905 346.0857,510.8393 365.5679,508.1556 385.9433,506.2127 406.9397,505.0337 427.0123,504.7325 451.5376,505.2417 471.9878,506.4948 484.9622,508.3093 506.7514,512.6258 516.6311,514.9123 524.0757,517.5219 526.3115,518.9525 527.4145,520.4582 527.5564,522.0234 526.0795,526.0964 525.7859,528.6139 526.8395,531.1991 529.861,535.7342 530.3417,537.6318 530.2468,538.5948 529.2694,540.5415 527.1687,542.5043 512.1836,551.5302 509.6327,553.65 503.0527,560.3274 498.0087,563.6966 493.2341,565.8725 482.0666,570.1287 463.6742,576.3768 442.7083,582.2134 387.3367,594.7579 369.0621,598.1264 328.4087,604.4719 296.914,610.6908 281.3884,612.3826 265.3107,612.8396 253.8353,611.8067 243.3699,610.2615 238.7245,609.2332 234.4727,607.8164 231.4762,606.469 228.0282,604.4608 225.2809,602.2643 222.8572,599.692 220.7432,596.7574 216.858,588.8484"/>
  </g>
</svg>
