<?xml version="1.0" encoding="utf-8" ?>
<svg xmlns="http://www.w3.org/2000/svg" xmlns:cc="http://creativecommons.org/ns#" xmlns:dc="http://purl.org/dc/elements/1.1/" xmlns:ev="http://www.w3.org/2001/xml-events" xmlns:inkscape="http://www.inkscape.org/namespaces/inkscape" xmlns:rdf="http://www.w3.org/1999/02/22-rdf-syntax-ns#" xmlns:sodipodi="http://sodipodi.sourceforge.net/DTD/sodipodi-0.dtd" xmlns:xlink="http://www.w3.org/1999/xlink" baseProfile="tiny" height="29.7cm" version="1.2" viewBox="0 0 793.7007874015749 1122.5196850393702" width="21.0cm">
  <metadata>
    <rdf:RDF>
      <cc:Work>
        <dc:format>image/svg+xml</dc:format>
        <dc:source/>
        <dc:date>2021-11-14T16:55:52.953085</dc:date>
      </cc:Work>
    </rdf:RDF>
  </metadata>
  <defs/>
  <g fill="none" id="layer1" inkscape:groupmode="layer" inkscape:label="1" stroke="#00f" style="display:inline">
    <polyline points="228.5054,617.7667 225.0427,617.9347 222.035,617.5364 219.4984,616.5757 217.0951,614.6944 215.4109,612.0445 214.5722,609.2763 214.2639,605.3239 214.6069,601.5433 215.5149,597.3601 217.0094,592.8162 219.1156,587.9569 221.8623,582.8308 225.2823,577.4892 228.5275,573.0964 233.254,567.5022 237.5977,562.9793 246.4761,555.0549 255.4611,548.3534 265.7981,541.8373 277.5589,535.6006 290.8025,529.7328 302.9997,525.1858 316.2598,520.9993 330.5701,517.215 349.0767,513.2576 365.5329,510.485 386.3687,507.8295 404.473,506.2023 423.0577,505.1252 445.6776,504.5734 468.213,504.8369 490.1425,505.9118 510.8946,507.7826 526.8578,509.9306 543.9019,513.1829 555.9621,516.4235 562.1294,518.5852 567.4259,520.9004 571.803,523.3608 574.1897,525.0774 576.9478,527.76 578.2272,529.616 579.2937,532.4938 579.4319,534.4706 579.1109,536.4902 577.7719,539.5928 575.416,542.7734 572.0657,546.0205 567.7527,549.3225 562.5171,552.6673 549.4782,559.4376 533.4125,566.234 514.8633,572.9588 490.8696,580.5849 465.2451,587.8328 435.1167,595.4713 405.2221,602.2358 376.5228,607.9534 349.7294,612.478 325.3097,615.694 306.0949,617.3692 288.9579,617.9462 280.0953,617.7778 271.8964,617.2477 259.0965,615.4616 248.1739,612.6148 244.0374,611.0831 239.0065,608.7629 235.5835,606.8224 231.4679,603.9814 227.8443,600.867 224.6911,597.4992 221.9882,593.8995 219.7171,590.0911 217.8607,586.0981 216.4035,581.9463 215.3316,577.6621 214.5149,572.1625 214.2601,566.5539 214.5492,560.8924 215.3666,555.2345 216.6989,549.6367 218.5335,544.155 220.8582,538.8441 223.66,533.7571 226.2353,529.883 229.857,525.3253 233.9066,521.1267 238.3582,517.3289 242.1877,514.605 247.2776,511.6216 251.5634,509.5907 256.0101,507.8903 261.7469,506.2458 267.6172,505.1509 273.543,504.6166 280.6055,504.7225 286.3407,505.4322 291.834,506.6997 296.9841,508.5123 301.6906,510.8519 305.8571,513.695 309.3943,517.0134 312.2238,520.7737 314.2813,524.9386 315.3385,528.5338 315.898,533.3194 315.7277,537.3512 315.0103,541.5358 313.3616,546.9409 310.9145,552.4889 307.7252,558.1245 303.8657,563.7913 298.4685,570.5531 292.3896,577.1811 285.8015,583.5801 278.8787,589.6579 270.6047,596.2265 263.5233,601.3166 255.4715,606.5221 247.827,610.8418 240.7464,614.1911 234.3532,616.5046 228.741,617.7369 224.6056,617.9137 220.6152,617.0906 218.3368,615.8319 216.5497,614.0279 215.266,611.6965 214.4985,608.8612 214.2607,605.5502 214.5684,601.7965 215.4398,597.6378 216.8962,593.1156 221.074,584.2057 226.59,575.6536 233.9579,566.7337 242.0587,558.806 250.3294,552.0431 259.9092,545.4127 270.8742,539.0101 281.1187,533.9152 292.4024,529.0935 304.7445,524.5931 318.1489,520.4589 332.6002,516.7325 351.2665,512.8508 367.843,510.1458 385.2361,507.9515 403.3032,506.2897 421.8635,505.1772 444.4746,504.5823 467.0271,504.8024 485.4038,505.6066 506.4654,507.3045 522.7874,509.3134 540.3806,512.4071 552.9901,515.5241 563.4109,519.0979 571.3831,523.0929 574.9035,525.6757 576.7024,527.4693 578.5596,530.2601 579.2293,532.1832 579.4407,534.1528 579.1927,536.1658 578.4866,538.2189 577.3253,540.3089 573.6589,544.5859 566.6428,550.0789 559.1969,554.5564 547.7963,560.2101 537.1758,564.7432 522.2886,570.3749 505.9249,575.9154 484.8279,582.3659 466.4335,587.5132 443.873,593.3393 421.2668,598.7038 399.0631,603.5298 374.158,608.3871 353.9917,611.8196 338.1771,614.1262 323.3489,615.9046 309.5561,617.1369 299.2841,617.7211 289.6925,617.9441 278.6519,617.7129 270.5647,617.1216 261.3605,615.8805 254.697,614.4938 247.2063,612.2829 240.6049,609.562 234.8466,606.3585 229.886,602.7043 225.6797,598.636 222.1874,594.1941 218.8871,588.4336"/>
  </g>
</svg>
