<?xml version="1.0" encoding="utf-8" ?>
<svg xmlns="http://www.w3.org/2000/svg" xmlns:cc="http://creativecommons.org/ns#" xmlns:dc="http://purl.org/dc/elements/1.1/" xmlns:ev="http://www.w3.org/2001/xml-events" xmlns:inkscape="http://www.inkscape.org/namespaces/inkscape" xmlns:rdf="http://www.w3.org/1999/02/22-rdf-syntax-ns#" xmlns:sodipodi="http://sodipodi.sourceforge.net/DTD/sodipodi-0.dtd" xmlns:xlink="http://www.w3.org/1999/xlink" baseProfile="tiny" height="29.7cm" version="1.2" viewBox="0 0 793.7007874015749 1122.5196850393702" width="21.0cm">
  <metadata>
    <rdf:RDF>
      <cc:Work>
        <dc:format>image/svg+xml</dc:format>
        <dc:source/>
        <dc:date>2021-12-08T20:36:29.374928</dc:date>
      </cc:Work>
    </rdf:RDF>
  </metadata>
  <defs/>
  <g fill="none" id="layer1" inkscape:groupmode="layer" inkscape:label="1" stroke="#00f" style="display:inline">
    <polyline points="120.3597,1014.5543 115.3557,1016.746 108.3648,1019.2604 102.5272,1020.8578 97.9727,1021.6823 103.3747,1020.9959 110.8788,1021.0616 116.7844,1022.2073 122.4843,1024.6564 126.1374,1026.9925 129.5467,1029.8108 133.6542,1034.6282 134.6076,1036.267 135.7101,1039.3352 135.8288,1040.6667 135.2021,1042.6908 134.4817,1043.3073 133.5174,1043.6258 132.3357,1043.6356 129.4518,1042.7305 127.8241,1041.8354 122.6362,1037.7004 112.9091,1027.4278 107.254,1022.4888 101.7811,1019.2481 99.1788,1018.4023 96.8024,1018.3044 94.7784,1019.061 93.947,1019.7753 92.7542,1021.8939 92.2971,1024.9245 92.611,1028.7942 94.3498,1035.7468 96.1768,1040.5958 98.4287,1044.8898 101.0284,1047.8236 102.4189,1048.5607 103.836,1048.7445 105.251,1048.3668 106.6362,1047.4464 109.2185,1044.1578 110.3776,1041.913 112.3767,1036.5644 113.9286,1030.5271 115.428,1021.2224 115.9447,1012.5025 115.4988,1004.6109 114.6443,1000.1012 113.2516,996.5457 111.2305,994.2363 109.982,993.6148 108.5901,993.3695 105.4712,994.0178 102.1314,996.0954 98.9101,999.3073 96.1922,1003.2194 94.36,1007.3764 93.7182,1011.372 94.4046,1014.8398 95.2346,1016.2726 96.3598,1017.4647 99.3487,1019.0711 103.014,1019.6279 106.9745,1019.1926 110.9435,1017.8126 114.808,1015.454 116.7152,1013.879 120.5269,1009.9018 124.2898,1004.901 127.8338,999.2147 130.8978,993.4849 133.1711,988.5676 134.4787,984.6439 134.2701,984.5668 132.8902,986.3414 118.7598,1008.876 111.7355,1018.0484 106.5815,1023.605 98.4238,1031.0741 90.9644,1036.9871 87.3923,1039.4962 85.5499,1040.4146 114.6533,1016.9399"/>
    <polyline points="228.0392,1016.9399 216.4261,1012.1613 210.7103,1009.3383 205.1076,1005.7641 202.6192,1003.7137 200.4765,1001.5298 198.7695,999.2581 197.5726,996.9532 196.9418,994.6774 196.9124,992.4995 197.4991,990.4922 198.691,988.7289 200.4456,987.2791 202.6933,986.2042 205.3456,985.553 208.3047,985.3586 211.4724,985.6361 214.7571,986.3802 218.0795,987.5634 224.5959,991.0524 230.7222,995.6027 236.3928,1000.6411 243.8172,1008.0934 247.762,1012.6031 250.6053,1016.6266 252.0948,1020.1729 252.1011,1023.2481 251.5686,1024.5895 249.6288,1026.8041 248.3421,1027.6395 245.4577,1028.6813 243.9691,1028.867 241.0902,1028.5585 238.4895,1027.395 236.244,1025.5125 234.35,1023.1033 231.9642,1018.964 229.2556,1013.1531 227.2702,1007.5271 226.6096,1004.0379 226.9654,1001.7162 227.8938,1000.9656 229.4859,1000.8829 242.1761,1004.4876 249.7276,1005.6467 252.9463,1005.6069 255.438,1005.1512 256.964,1004.3537 257.3757,1003.3067 256.642,1002.1147 254.8423,1000.9365 252.1696,999.97 248.9395,999.3327 242.1687,998.9002 230.939,999.1803 224.6431,997.4939 222.5008,997.231 220.1077,997.3357 217.6209,997.8339 214.1784,999.1902 212.372,1000.418 210.8423,1002.6085 210.7739,1004.2318 212.0846,1006.9339 214.709,1009.9651 218.1969,1012.8728 220.8793,1014.4133 223.7397,1015.5054 226.643,1016.1391 229.4643,1016.3319 232.1121,1016.0568 234.4241,1015.1892 235.385,1014.4794 236.7924,1012.4313 237.2087,1011.0901 237.459,1007.8528 236.9941,1004.087 235.9114,1000.107 234.3445,996.2821 232.4857,993.047 230.5489,990.8626 228.6967,990.1109 227.828,990.3369 226.2462,991.9724 224.9788,994.9267 224.2294,998.6835 224.2138,1002.6537 225.064,1006.3379 225.829,1007.9644 228.0398,1010.6663 229.4802,1011.7169"/>
    <polyline points="316.4995,993.9532 317.6442,996.0031 324.2069,1003.6897 326.1258,1007.3463 326.3979,1009.7469 325.8887,1011.6912 323.847,1015.2912 323.1308,1015.9773 322.5228,1016.0575 324.1583,1015.896 326.4769,1016.2694 334.5935,1019.0551 332.643,1018.222 330.4538,1017.7831 322.4314,1017.6061 324.81,1016.6813 326.5714,1015.5831 328.3281,1013.9614 329.6812,1011.8169 330.3075,1009.1608 330.2724,1007.6545 329.4007,1004.3611 327.4206,1000.8753 326.0442,999.1549 322.6777,995.9892 320.7836,994.6428 316.8825,992.6638 315.0204,992.1136 311.8931,992.0116 310.7982,992.468 310.1097,993.2497 309.8697,994.3355 310.0911,995.698 311.8517,999.1444 315.0592,1003.3777 327.8192,1018.4273 331.3941,1023.6201 332.831,1026.2035 334.8428,1031.2563 335.3753,1033.6714 335.5781,1035.9651 334.9984,1040.0154 334.2244,1041.6829 333.1334,1043.0583 331.7314,1044.1098 330.028,1044.815 328.0392,1045.1623 323.3218,1044.8015 317.9787,1043.1949 312.6793,1040.6729 308.2703,1037.6483 305.5518,1034.5226 304.9994,1033.0315 305.0231,1031.6402 305.6197,1030.3841 306.7618,1029.2942 308.3945,1028.3942 312.803,1027.2258 315.3777,1026.9731 320.7308,1027.129 325.6968,1028.0955 327.8296,1028.8354 331.0978,1030.7136 332.1508,1031.8068 332.7842,1032.9711 332.991,1034.1787 332.7735,1035.3978 332.1363,1036.5924 329.6216,1038.7438 325.5004,1040.3126 319.9486,1041.0722 316.774,1041.1096 310.1687,1040.4725 307.0462,1039.8023 304.2821,1038.9111 302.0576,1037.8179 300.5306,1036.5495 299.813,1035.1405 299.9549,1033.6302 300.9511,1032.0563 302.7499,1030.4535 308.3474,1027.2819 315.6637,1024.3199 323.4344,1021.7354 341.425,1016.9399"/>
    <polyline points="443.817,1033.9547 444.9993,1031.971 446.5533,1030.169 449.183,1027.974 451.5918,1026.4612 453.3779,1025.7626 454.8421,1025.9683 456.0572,1025.223 459.3327,1024.1827 463.0784,1023.6522 466.1735,1023.6983 469.6936,1024.1974 473.4259,1025.1969 476.9177,1026.7119 479.5706,1028.6943 480.4156,1029.8092 480.8833,1030.9619 480.9586,1032.1124 480.6465,1033.2185 478.9484,1035.1365 476.055,1036.4494 472.3496,1037.0063 468.2831,1036.7908 464.2761,1035.9157 459.0151,1033.8029 455.0346,1031.406 451.1047,1028.2074 451.0475,1027.8507 453.7842,1029.0222 457.3841,1031.7388 460.7458,1035.1327 466.374,1041.8636 468.3337,1043.6938 470.0391,1044.2664 471.4754,1043.3634 473.2155,1039.4483 474.3465,1033.503 474.31,1026.9848 473.4548,1022.9207 472.0527,1019.3825 470.3513,1016.5287 467.7732,1013.5272 463.4513,1009.9662 461.0845,1004.2431 460.0878,1003.1864 458.6483,1002.4027 455.5099,1001.9327 452.6365,1002.1477 446.9581,1003.2797 440.0014,1005.2952 435.286,1007.0044 431.1516,1008.893 428.2317,1010.9084 427.4084,1011.961 427.0778,1013.0458 427.2633,1014.1653 427.9664,1015.32 429.1684,1016.5094 432.9019,1018.9884 440.8642,1022.9075 452.9421,1028.0828 461.607,1031.3389 469.4047,1033.6341 475.2903,1034.6837 477.551,1034.4747 478.0892,1034.0523 478.2153,1033.4143 477.256,1031.5492 474.8604,1029.1057 471.4163,1026.4124 463.4217,1021.4136 454.8108,1016.9399"/>
    <polyline points="568.1966,1016.9399 561.1746,1021.9352 552.0851,1026.8623 542.3762,1030.6714 537.5253,1031.7254 536.7602,1031.6307 536.4912,1031.2971 536.728,1030.7263 538.6335,1028.918 548.4663,1021.3895 552.6222,1017.573 556.1431,1013.4366 558.7918,1009.0185 559.7465,1006.7314 560.8833,1002.1197 561.0678,999.8707 560.7069,995.7533 559.4606,992.5582 558.5474,991.4445 557.4664,990.7011 556.2415,990.3439 554.9022,990.3733 552.0211,991.5214 549.1328,993.8738 546.5598,997.0145 544.6011,1000.4554 543.4987,1003.7573 543.4154,1006.6287 543.7849,1007.8638 545.3355,1009.9257 547.8272,1011.4518 552.6234,1012.7828 557.5618,1013.2132 566.5774,1013.1366 571.6012,1013.7886 575.5986,1015.1263 582.1577,1017.9468 583.5741,1019.0458 583.2943,1019.9071 576.1874,1024.5982 566.1882,1034.4605 568.3549,1030.7611 569.9527,1027.2687 581.5793,994.268 584.416,987.2878 583.6412,990.2079 581.4665,996.4814 578.4443,1003.7186 571.4437,1017.3857 574.2019,1009.2975 581.7526,983.0641"/>
    <polyline points="649.4983,992.472 645.5707,992.2865 644.2668,992.7462 643.5416,993.5574 643.4571,994.6921 644.034,996.1115 645.2566,997.7692 647.0736,999.6134 652.1502,1003.6519 670.8611,1015.7026 677.8362,1021.0254 679.5576,1022.7442 682.0813,1026.0895 683.392,1029.1994 683.4961,1031.8784 682.417,1033.9344 680.2015,1035.2535 676.8632,1035.8059 672.3885,1035.619 666.8715,1034.7672 657.5219,1032.5739 649.4305,1029.9476 646.5326,1028.3083 646.1466,1027.6022 646.5137,1027.0096 647.6146,1026.5576 651.7699,1026.164 661.3841,1027.0082 668.7239,1028.548 675.9228,1030.8625 682.6071,1033.8492 701.4156,1044.6937 704.5146,1045.8832 705.4756,1045.8957 706.0136,1045.5002 706.1219,1044.7036 705.8059,1043.5304 703.9658,1040.2285 700.7309,1036.0372 694.2122,1029.1327 673.3607,1009.4704 668.5176,1006.1514 667.4874,1005.9855 666.674,1006.9212 666.5896,1010.055 667.325,1013.3155 668.8323,1016.8159 671.2323,1020.3833 674.5645,1023.9756 678.5136,1027.2531 681.3465,1028.9744 684.3567,1030.1242 687.5566,1030.5445 690.8791,1030.1547 694.2035,1029.0047 697.4237,1027.2806 701.7707,1024.1607 704.9504,1021.0341 706.3718,1018.4099 706.4086,1017.7086 705.852,1016.6298 704.5396,1016.0327 701.4324,1016.0894 698.7692,1016.7819 695.8179,1018.0204 692.8497,1019.7895 690.159,1021.9688 687.1602,1025.6498 686.0834,1028.1833 685.8663,1029.4173 686.1185,1031.6974 686.5948,1032.6872 688.2803,1034.2613 689.5123,1034.8265 691.0172,1035.2395 694.8454,1035.606 702.214,1035.0605 709.7757,1033.499 713.5145,1032.1123 714.6807,1031.3549 715.2814,1030.5668 715.2836,1029.7555 714.6858,1028.9288 713.5136,1028.0935 709.6953,1026.406 688.5818,1019.8033 681.5825,1016.9399"/>
    <polyline points="681.5825,903.554 674.1486,894.0146 665.4525,881.4322 663.267,878.7406 664.1328,880.5429 667.2476,885.1519 679.5275,901.0497 685.3439,909.0441 700.8025,932.853 702.7397,935.0011 703.3931,935.303 703.8242,935.0768 703.9832,933.1265 703.1607,929.5924 700.2212,922.9082 695.9836,916.4521 691.4086,911.3291 687.1598,907.9642 684.7554,906.869 683.7173,906.6995 682.7902,906.7879 681.2558,907.7281 680.1315,909.6229 679.4319,912.3545 679.2171,915.7488 679.5618,919.4843 681.2324,924.7258 683.0805,927.2592 684.188,928.0703 685.3989,928.5243 686.704,928.5986 688.0993,928.2861 691.1487,926.5569 694.5064,923.6133 706.5586,910.3493 709.8617,905.9873 710.4817,903.8358 710.2064,902.9738 709.5301,902.2468 707.0769,901.1909 701.4567,900.6278 695.1212,901.3581 689.4821,903.284 685.1293,906.1022 682.0393,909.5178 679.2966,914.3011 676.8255,920.1252 677.2197,912.3498 676.6436,905.2539 675.7459,901.6237 670.4421,885.3756 668.852,883.1249 667.4966,882.5485 665.9291,882.6936 664.3144,883.4476 662.9136,884.6267 662.0066,886.0105 661.8112,887.3687 662.4457,888.4484 663.9205,889.0193 667.5008,888.6384 672.225,886.7632 684.1079,880.5437"/>
    <polyline points="681.4804,807.4083 684.1191,805.2207 685.8489,803.0355 686.6199,801.1278 686.6416,800.3581 685.9824,799.3103 684.4567,799.0045 683.4032,799.1433 680.7866,800.0121 677.5936,801.6593 674.0234,804.0115 670.3818,806.8858 665.6194,811.4357 663.4595,813.97 662.4221,815.9985 664.0275,815.3284 669.0078,810.8401 683.3942,796.1436 684.5516,794.738 684.2886,794.625 669.5388,803.6686 666.2361,805.2296 664.3772,805.578 665.9752,803.8784 669.1084,801.5471 675.4772,798.1333 681.5663,796.1625 688.5088,794.9135 696.0603,794.5244 701.0122,794.9629 703.2844,795.445 707.0314,796.9765 708.3558,798.0343 709.2337,799.2883 709.6279,800.7333 709.5237,802.3558 708.9245,804.1323 706.3409,807.9939 702.2395,811.8974 699.789,813.6936 694.4803,816.6098 689.1419,818.1757 686.6278,818.3236 684.2798,818.0177 682.1237,817.2608 680.1684,816.0759 678.413,814.5043 675.4986,810.4301 673.3719,805.5463 672.0174,800.3162 671.293,792.4668 671.8388,784.8836 673.4761,777.5493 676.1625,770.9454 678.4274,767.5461 680.9724,765.4421 682.3384,764.9651 683.7709,764.8842 686.8349,765.854 690.1159,768.1157 693.499,771.261 698.3324,776.5868 701.9772,781.4906 703.4586,785.0459 703.4007,785.7932 702.4819,786.5144 700.5535,786.1945 695.9744,783.9134 689.8027,779.8206 677.3234,770.6808 671.746,767.2189 668.9033,765.794 663.3643,763.8977 660.8078,763.5195 658.5002,763.5444 656.5244,763.9594 654.9562,764.7326 653.8569,765.8181 653.2652,767.1618 653.1927,768.7077 653.6269,770.4021 655.8904,774.0427 659.671,777.7441 664.4037,781.22 669.4238,784.241 681.5825,790.1682"/>
    <polyline points="578.4812,787.8837 574.481,770.5171 572.542,763.801 570.4988,759.5752 569.8021,759.0703 569.0956,759.0766 568.3824,759.5906 566.9719,762.0164 565.6771,765.8836 564.6315,770.5274 563.945,775.3291 563.6716,779.8923 564.0633,785.9896 565.5016,791.1942 568.1661,795.6314 572.0036,799.4252 576.4273,802.6905 582.8653,806.621 584.6064,807.4134 585.7592,807.5238 583.7985,805.7844 571.3561,798.435 566.9042,795.1605 565.2183,792.6157 565.0898,790.8685 565.7941,789.0573 567.2922,787.1186 570.9069,783.9396 574.1896,781.7917 578.1302,779.857 582.5938,778.3187 587.2775,777.2828 593.6317,776.8001 596.5694,777.2008 597.4636,777.6019 597.929,778.1238 597.9557,778.7545 597.5508,779.4816 595.5304,781.1719 592.1323,783.0447 587.7541,784.9082 580.4553,787.41 564.8654,791.9991 567.343,791.9299 570.9156,790.927 574.3315,789.2572 576.9159,787.5876 579.6779,785.4238 582.4295,782.721 584.8651,779.4758 585.8566,777.673 587.2073,773.8192 587.523,771.8342 587.5895,769.8607 587.0059,766.1327 585.5688,763.0808 584.5774,761.9745 583.4343,761.2324 582.1646,760.9026 580.7949,761.0131 577.8614,762.5667 574.8173,765.7157 563.4916,782.2054 558.128,788.4764 554.6017,791.7156 551.3885,794.1082 547.8501,796.0783 546.6964,796.2242 548.2573,795.0683 550.5431,793.9504 556.6879,791.8161 561.4397,790.8288 568.1966,790.1682"/>
    <polyline points="577.6885,888.7267 580.3032,889.0754 585.1331,890.4598 595.4077,894.0717 598.0803,895.3981 595.8185,895.4463 590.1302,894.8625 577.8299,892.8365 569.9076,890.8449 562.5397,888.2725 563.8881,890.0223 566.9184,892.4632 570.4267,894.864 575.146,897.5398 583.3751,900.7477 596.1026,904.2294 598.3123,905.3152 598.707,905.9194 598.583,906.5911 597.939,907.3483 595.2054,909.1738 580.1695,917.1914 564.3675,926.7793 559.6556,929.2593 555.2398,930.8435 553.1955,931.2243 549.6371,931.083 548.2237,930.5486 547.1203,929.708 546.366,928.5741 545.9844,927.1702 546.338,923.6898 547.0257,921.6915 549.2091,917.3857 552.1469,912.9503 555.5216,908.7162 560.9092,903.3036 564.4424,900.499 567.7354,898.378 570.7038,896.967 573.2975,896.2368 576.2014,896.205 576.798,896.4206 577.2968,897.0993 576.2155,898.4679 573.0382,899.7601 568.0171,900.3861 563.8037,900.0372 559.017,898.8094 553.8726,896.5604 548.7595,893.2226 546.3753,891.1505 542.3096,886.2855 540.7738,883.5624 539.6552,880.7193 538.9991,877.8366 538.8285,875.0157 539.1432,872.3769 539.9221,870.0516 541.1249,868.1713 542.6949,866.8524 544.5645,866.1815 546.6608,866.2021 548.9108,866.9175 551.243,868.2972 553.5866,870.2803 555.8762,872.7806 560.0707,878.9054 563.4834,885.7692 564.8271,889.216 566.6916,895.7455 567.3791,901.4863 566.8577,906.3337 565.1369,910.3943 562.2058,913.7689 558.0015,916.481 555.4171,917.5761 549.4024,919.2057 546.0875,919.7305 539.3468,920.2094 533.4385,919.9655 531.2123,919.5896 529.6739,919.0571 528.9286,918.3813 529.0225,917.5787 529.9445,916.6671 531.6359,915.6657 536.9036,913.4715 568.1966,903.554"/>
    <polyline points="454.8108,903.554 479.5914,889.1724 485.3039,884.9234 486.6107,883.076 486.3798,882.5634 484.1821,882.4871 480.0403,883.7578 471.7363,888.0442 465.8816,892.1584 463.0801,894.4973 457.9474,899.6324 455.6526,902.4115 453.5367,905.3361 449.7738,911.6407 445.154,921.8446 442.8333,928.4608 441.331,934.1692 440.8185,938.2713 440.9484,939.5209 441.3204,940.1551 441.9098,940.1398 443.6136,938.1726 451.1583,923.0836 454.2495,918.0303 457.6817,913.9669 461.5297,911.1403 463.6065,910.2278 467.9642,909.3973 470.1683,909.4491 474.3647,910.3541 476.2317,911.1363 479.1762,913.168 480.1295,914.3386 480.662,915.5544 480.7324,916.7705 480.3195,917.9445 479.4292,919.0392 478.1016,920.0256 474.4261,921.5994 470.002,922.5975 465.5367,923.0511 461.5415,923.0388 458.3323,922.6436 455.2702,921.513 454.3663,920.5628 454.2751,919.6516 454.8872,918.9146 456.0756,918.3755 462.0008,917.3716 468.4011,917.3951 472.1464,918.0306 475.1146,919.1958 476.9063,920.8337 477.4745,922.1315 477.6112,923.5229 477.0451,925.6007 475.653,927.3107 473.9261,928.0666 472.9131,927.732 472.102,926.5978 471.456,924.6811 468.777,913.0023 467.5516,910.1199 465.8357,907.4261 462.2071,903.6442 455.9964,899.2433 451.0357,897.163 447.9553,896.7469 445.4209,897.2956 443.7168,898.8726 443.0179,901.4177 443.0793,903.0083 444.0537,906.7252 444.9627,908.8086 449.2022,915.6161 453.0403,920.2139 457.4685,924.3107 462.3462,927.3162 464.8834,928.2344 467.4276,928.6916 469.9208,928.6564 472.2951,928.1166 474.4759,927.081 476.3858,925.5806 477.9498,923.6653 479.101,921.3974 479.7849,918.8455 479.9638,916.0776 479.6196,913.1573 478.7551,910.139 477.3988,907.0639 475.5997,903.9574 473.4206,900.8276 468.1978,894.5204 462.2632,888.3197 456.0189,882.6151"/>
    <polyline points="454.8108,790.1682 449.6754,792.6819 444.0449,795.8937 440.1236,798.4982 436.6421,801.258 434.1311,803.9641 433.3988,805.2268 433.0849,806.3903 433.224,807.4259 433.8327,808.3067 436.4007,809.5185 440.4421,809.953 445.4357,809.653 450.9915,808.6717 456.976,807.056 463.4339,804.893 477.0428,799.5096 483.1599,796.5084 485.7185,794.9479 487.8033,793.3492 489.3136,791.7121 490.1633,790.0345 490.2902,788.3115 489.6633,786.539 488.2941,784.7178 483.6322,780.9534 473.807,775.2361 463.7195,770.1616 457.8549,767.7311 455.2431,766.9474 450.6438,766.4365 448.6645,766.7572 446.919,767.4725 445.4273,768.5705 444.2104,770.0254 443.2876,771.801 442.6749,773.8554 442.4326,778.6298 442.8358,781.2721 444.7499,786.9205 448.1042,792.96 455.4223,802.6464 461.5194,809.1617 464.8349,812.2494 471.6522,817.6751 474.9429,819.8561 480.6499,822.8307 482.8073,823.537 484.3485,823.6923 485.1848,823.2936 485.2547,822.3577 484.5273,820.93 483.0107,819.0832 477.8712,814.5282 474.4631,812.0414 466.606,807.1675 462.3828,804.9445 453.7086,801.1927 449.3066,799.7194 444.887,798.5357 436.2342,797.0674 432.1839,796.79 425.2181,797.1487 422.5418,797.7685 420.5412,798.6571 419.29,799.7881 418.831,801.132 419.1724,802.6576 420.2872,804.3316 424.5115,807.96 430.5585,811.6241 437.3409,814.8466 440.7214,816.1427 447.0722,817.8814 452.6229,818.3011 455.0797,817.9803 457.3483,817.3035 459.453,816.284 463.237,813.3372 464.9298,811.5038 467.8851,807.4285 470.1899,803.2237 471.7959,799.2796 473.1933,793.0111 473.2372,790.808 472.6165,786.7882 474.0177,786.0915 476.1521,786.0625 476.2538,786.6378 475.3516,787.328 469.8238,789.6666 458.4454,793.1433 448.5142,795.6374 439.819,797.2059 431.1202,798.2128 424.5205,798.4273 422.3508,798.04 422.0813,797.6731 423.2052,796.576 433.0165,791.4641 437.7896,788.3654 442.1013,784.6607 445.6308,780.4542"/>
    <polyline points="454.8108,676.7824 461.0556,677.5042 468.7767,678.8444 474.6076,680.3162 480.0879,682.3181 484.3858,684.8528 485.8509,686.2981 486.7564,687.8378 487.0502,689.4459 486.7058,691.0912 485.7259,692.7385 484.1517,694.352 482.0583,695.8971 476.7241,698.6476 470.5936,700.7231 467.4724,701.4288 461.4494,702.0653 455.9327,701.6241 450.9452,700.1953 444.3122,696.7097 438.874,692.4611 436.2075,689.6268 434.5937,686.9515 434.1995,684.5124 435.01,682.3976 436.8047,680.6979 439.2592,679.4774 442.0805,678.7585 446.5139,678.6304 449.3567,679.187 451.984,680.2926 454.3765,682.0065 456.5217,684.331 458.3249,687.1391 459.5868,690.1653 460.1153,693.0536 459.8156,695.4348 458.6793,696.9941 457.8063,697.3886 455.4589,697.3023 452.3176,696.0137 448.4349,693.6496 439.276,686.9188 432.6608,681.4009 429.2583,677.8411 427.1889,674.3661 426.7478,672.6377 426.7185,670.9144 427.8249,667.5301 430.1995,664.3732 433.3523,661.6694 436.7691,659.6441 438.4383,658.942 441.4908,658.2219 443.9861,658.4137 444.9861,658.8232 446.4493,660.1514 447.1661,661.9645 447.1258,664.0532 445.6553,667.3263 442.6564,670.3509 435.4116,675.9199 433.7679,677.9572 432.8015,680.0862 432.576,683.2494 433.4685,686.0317 434.4405,687.4081 435.5262,688.2282 436.5902,688.4009 437.5446,687.8953 438.6515,685.9481 439.0835,684.0084 438.9907,679.1585 437.5615,673.8809 434.2931,666.0992 434.2706,664.223 435.2205,663.5598 436.9498,663.354 440.5104,663.9758 445.6398,666.3629 452.4035,670.9315 453.588,671.4517 454.3923,671.3003 454.7008,669.6074 453.6712,666.0756 451.0684,661.0212 448.3762,657.2957"/>
    <polyline points="454.8108,563.3966 467.7302,557.4996 473.6896,554.231 477.0289,551.959 479.3546,549.8623 480.332,548.166 480.2523,547.5298 478.9418,546.782 476.2646,546.834 472.6065,547.7552 468.4409,549.5026 464.1959,551.9137 460.1768,554.7964 456.52,558.017 453.2025,561.5256 450.1642,565.3199 447.4452,569.3936 445.1717,573.6449 443.472,577.8765 442.4305,581.8321 442.1143,585.2165 442.5524,587.7045 443.7018,588.9937 445.4375,588.9301 447.6079,587.5796 457.7487,577.45 461.3481,574.5648 464.9997,572.3247 468.3865,570.9159 471.1955,570.3572 473.1418,570.5833 473.7226,570.9637 474.0296,572.2032 472.5111,574.9356 470.5464,576.9623 468.1641,578.8208 464.2205,580.7019 461.528,581.049 460.2167,580.9173 457.778,580.1124 455.7141,578.7838 454.0952,577.1922 452.9358,575.5692 452.0888,573.4557 452.2759,571.9682 453.2196,570.938 459.4901,566.7662 463.7196,565.1535 467.6307,564.6172 471.5141,564.5272 474.5864,564.7986 475.955,565.3694 475.5627,565.8154 474.1047,566.2093 466.9976,566.6835 440.9919,565.5926 438.0976,565.2584 443.6332,565.5146 449.4201,566.4941 455.647,568.1171 472.2726,573.1749 476.1616,573.8714 476.1212,573.4407 470.5941,567.6625 466.5039,561.3279"/>
    <polyline points="568.1966,563.3966 564.4673,569.8962 556.6674,584.7865 555.1695,587.1026 554.1655,587.8652 553.7768,586.7946 553.8337,585.5504 555.012,579.3768 557.5341,570.9102 560.9712,561.827 564.9172,552.8293 567.7983,547.1689 570.9163,542.2482 574.2337,538.634 575.9223,537.489 577.5962,536.8551 579.227,536.7614 580.7864,537.215 582.2464,538.2013 583.5799,539.6808 584.761,541.5935 586.5707,546.4106 587.5089,552.0015 587.6109,554.9046 587.035,560.6767 585.4472,566.2472 583.0087,571.5301 579.9707,576.2789 576.5948,580.094 573.1011,582.5595 571.3723,583.1746 569.6861,583.334 568.0608,583.0178 566.5096,582.219 565.0439,580.9486 563.6783,579.234 561.318,574.6398 560.3584,571.8572 558.9494,565.5445 558.2601,558.4209 558.2713,550.6828 559.4044,539.1414 560.7078,532.8206 561.468,530.4622 562.2781,528.7856 563.1236,527.8644 563.9936,527.7339 564.8807,528.3905 566.6938,531.8227 574.9051,556.781 576.7698,561.0665 577.9875,562.4492 578.3462,561.8299 578.3325,561.0737 577.8154,558.7152 574.7064,550.9715 570.8862,543.2961 567.8089,538.0799 564.35,533.5592 560.5609,530.4322 558.5821,529.5659 556.5835,529.2212 554.606,529.4133 552.6993,530.1335 550.9188,531.3433 549.3219,532.9764 547.9634,534.9463 546.1628,539.4957 545.8112,541.8713 545.8708,544.1923 546.3585,546.3869 547.2713,548.402 548.5842,550.2036 550.2552,551.7757 554.4552,554.2348 559.4285,555.858 567.6385,556.9634 573.4152,556.9611 582.2376,556.0162 587.6557,554.754 591.9966,552.9277 593.5691,551.8061 594.6599,550.5665 595.2249,549.2395 595.2377,547.8657 594.6907,546.4917 593.6002,545.1661 592.0088,543.9349 587.5885,541.9161 584.9162,541.1993 579.0286,540.4874 575.9382,540.5264 569.67,541.4193 566.5318,542.2524 560.2828,544.5737 551.4137,549.2417 546.4652,552.8185 544.4932,554.682 542.9479,556.5832 541.8837,558.5247 541.3371,560.5198 541.3224,562.5931 541.832,564.7775 544.278,569.606 548.2046,575.0836 555.4915,583.8843 562.6664,591.6092 566.7138,595.0597 568.4365,596.0882 569.9444,596.6075 571.2324,596.606"/>
    <polyline points="568.1966,676.7824 539.0944,673.8966 533.7322,673.1259 530.6717,672.2915 534.6176,672.4412 540.3533,673.3289 550.9954,675.9573 558.0698,678.5843 561.3614,680.164 567.2603,683.8402 572.19,688.1256 574.2981,690.4411 577.7665,695.2152 579.1005,697.5595 580.9054,701.8219 581.5284,705.0542 581.0633,706.8333 580.4896,707.1038 579.7333,706.9475 577.8067,705.3931 574.397,700.6306 567.5657,689.07 563.6,684.646 560.5313,682.5293 555.5543,680.7574 550.7152,680.6182 546.8277,681.8769 545.1688,683.3116 544.4616,685.0635 544.7722,686.9792 546.0379,688.8799 549.306,691.2657 552.0539,692.2399 555.0364,692.4682 558.1634,691.7277 559.7679,690.9446 563.028,688.5516 566.3026,685.1831 569.5588,681.0564 576.1616,671.1257 582.8705,659.6794 587.0482,651.9225 588.5898,648.3357 588.8146,647.2431 588.6283,646.6861 588.0194,646.6939 585.5978,648.4056 574.3445,659.6516 568.5202,664.8683 562.1592,669.4496 558.8165,671.3639 552.0039,674.2741 548.6572,675.2322 542.4945,676.1054 539.87,676.0085 537.6779,675.5415 536.0024,674.6916 534.9094,673.4498 534.4403,671.8151 534.6072,669.7985 535.3943,667.4248 536.7548,664.7294 540.8671,658.5881 548.8716,648.7632 554.1575,643.1733 558.6604,639.5899 560.5055,638.805 562.0491,638.7547 563.2793,639.4356 564.1883,640.799 564.7714,642.7483 564.9489,647.869 563.808,653.6567 562.7551,656.4773 559.7553,661.5029 555.7531,665.3675 553.4886,666.8179 548.7728,668.7727 546.4913,669.3001 542.5397,669.5252 539.9715,668.7405 539.3816,668.0082 539.3184,667.0734 539.8068,665.9566 540.8487,664.6806 542.4179,663.2723 546.9032,660.2073 555.7684,655.749 562.2215,653.5088 568.6999,652.2664 575.1321,652.2157 578.3052,652.6607 584.3876,654.4652 589.7654,657.3539 593.9606,661.0522 595.4758,663.0915 596.5476,665.1971 597.1533,667.332 597.2876,669.4674 596.9643,671.5833 595.0978,675.7187 592.0269,679.7187 586.441,685.3823"/>
    <polyline points="681.5825,676.7824 686.1578,676.3616 691.4702,676.5622 695.3855,677.1684 699.0925,678.2406 702.1089,679.8028 703.999,681.7733 704.4188,682.8596 704.4539,683.9826 704.0924,685.1219 703.3371,686.2615 700.738,688.497 694.7502,691.5901 687.3544,694.0429 679.2856,695.5369 670.8443,695.8171 665.4595,695.2205 663.0098,694.6892 658.8849,693.2329 656.1185,691.3805 655.3366,690.3595 654.9854,689.3073 655.0744,688.2494 655.5964,687.2109 657.8047,685.2818 661.1808,683.6681 665.1825,682.4577 669.3053,681.6943 674.8797,681.4368 677.8395,681.8729 680.0595,682.824 680.8838,683.4992 681.9821,685.2282 682.5174,688.5554 682.2823,696.9074 682.5443,697.6645 683.0052,697.5446 684.6059,693.2624 686.9257,683.0523 688.0507,677.369 688.6406,671.7923 688.4879,666.6637 687.9403,663.8255 686.5497,660.9216 685.3964,660.1115 684.7832,660.0839 683.4778,660.7966 681.9962,662.4283 675.7199,670.5431 667.764,679.9144 664.2702,685.0677 662.6014,688.6662 661.7626,692.0748 661.9965,694.9053 662.5754,695.9935 663.4806,696.8219 666.2669,697.6342 670.2421,697.2938 675.1622,695.8488 683.9021,691.9424 704.5377,681.4138 712.8766,676.6433 714.6733,675.2087 715.819,673.839 716.2501,672.5284 715.9348,671.2769 714.8776,670.0921 710.7806,667.9943 704.7443,666.443 697.7567,665.6682 690.6725,665.8144 687.278,666.2515 680.9653,667.8433 675.3314,670.3295 670.4443,673.5978 666.4934,677.513 663.7256,681.9676 662.8573,684.3524 662.3539,686.8 662.432,691.6996 663.8154,696.2253 666.1917,699.872 667.6452,701.21 669.224,702.1543 670.8916,702.6683 672.6131,702.7321 674.3534,702.3441 677.7421,700.3013 680.7825,696.8973 683.311,692.655 685.3083,688.0859 687.4089,681.4233"/>
    <polyline points="681.5825,563.3966 666.3753,565.6973 658.3327,567.3515 655.3161,568.4161 653.5508,569.6533 653.2303,570.3002 653.7685,571.5291 655.7492,572.521 658.7784,573.1461 664.077,573.0412 667.3736,572.0053 668.8182,571.1467 671.1836,568.7403 672.0807,567.2036 673.2767,563.4872 673.5721,561.3094 673.6659,558.923 673.2584,553.6099 671.2591,545.0105 669.1419,539.7132 667.9014,537.4524 665.189,534.1064 663.7839,533.1435 662.3943,532.7 661.057,532.7795 659.8083,533.3606 657.7153,535.8061 656.3708,539.4027 656.0515,541.4049 656.2151,545.409 656.703,547.2754 658.3932,550.4687 659.5206,551.7147 662.1126,553.3718 663.4889,553.7598 666.2257,553.6673 667.5323,553.2066 669.9224,551.5322 670.9779,550.3592 672.7644,547.4712 675.1318,540.7361 676.2744,534.6858 675.7501,535.6345 672.0821,547.0689 669.6096,552.8377 665.9806,558.4049 664.5276,559.8 663.5806,560.0351 663.1835,558.9921 663.3001,556.6315 664.6989,548.5288 666.9326,538.5581 669.1187,531.7871 669.7931,531.0797 670.0615,532.4424 669.9709,535.6718 669.2889,542.774 667.8645,550.5148 666.4527,555.1601 664.7882,559.0326 662.2813,562.959 660.4419,564.2761 659.8587,563.6011 659.7843,562.7748 660.9034,556.2723 663.1866,548.6452 666.4833,540.0205 670.1211,532.3266 672.3488,528.8313 674.2042,527.3209 674.941,527.4095 675.5266,528.0625 675.9469,529.2387 676.2591,532.8288 675.8883,537.3529 674.925,541.9472 673.4492,545.9236 672.5332,547.5279 670.375,549.7826 669.1535,550.3982 667.8593,550.6712 665.153,550.2415 662.4959,548.647 660.1615,546.1423 658.3935,543.0958 656.9943,538.6033 656.9479,535.7059 657.493,535.2477 658.3171,536.1369"/>
    <polyline points="681.5825,450.0107 663.2953,440.7681 651.8929,434.5635 643.295,428.9355 640.9505,426.433 641.0314,425.748 641.9597,425.4935 643.6783,425.6836 649.0045,427.3461 655.7872,430.4353 662.759,434.4963 668.9612,439.1264 673.863,444.0285 675.7556,446.5229 678.3999,451.5524 679.5711,456.6421 679.3608,461.7141 677.863,466.5504 675.2111,470.8573 671.6336,474.3489 667.4784,476.7773 663.2023,477.9801 659.312,477.9516 657.6687,477.511 655.2587,475.9027 654.5716,474.8078 654.2606,473.5782 654.3314,472.2615 654.7765,470.9046 656.6851,468.2412 658.0654,467.0092 661.4119,464.8962 667.0547,462.9138 670.6525,462.5068 673.7802,462.8077 676.2992,463.7141 678.2034,465.0558 680.0578,467.3326 681.4578,470.4997 683.7603,467.1559 686.935,464.1223 691.4329,461.0381 701.1273,455.2498 698.5084,456.9726 695.0955,460.0671 686.2335,470.6456 683.9541,472.9273 681.884,474.2903 680.0578,474.5997 679.2338,474.3449 677.7305,473.0425 676.3453,470.8195 674.3763,466.3048 672.4817,459.4735 672.3873,454.6545 673.0751,451.7536 674.3107,449.0618 677.0282,445.356 680.6864,442.1439 685.3676,439.6076 689.0189,438.3969 694.862,437.4428 700.3988,437.5407 704.5836,438.4233 706.1499,439.1884 706.5796,439.8924 705.9115,440.3997 704.3222,440.6393 699.4974,440.3886 693.6573,439.3557 691.7534,438.323 691.9033,437.8897 692.7024,437.5913 697.2878,437.0794"/>
    <polyline points="681.5825,336.6249 668.2072,334.4446 645.1079,332.0006 641.8263,331.4074 645.4469,330.916 653.9219,330.7169 666.1249,331.3785 670.7743,332.2532 674.0227,333.5947 675.0951,334.4484 676.1284,336.4813 675.6889,338.8576 674.924,340.1465 672.3536,342.9012 666.2647,347.4827 650.406,357.8181 648.3215,359.6902 650.8808,358.8597 654.7177,356.7401 661.8636,351.7624 668.4932,345.7432 673.2167,339.87 675.0789,336.4679 675.869,333.6565 675.561,331.5498 674.9897,330.7939 674.1439,330.249 671.6747,329.8084 666.3435,330.8 662.1195,332.5107 657.8813,334.909 654.2075,337.8451 652.7685,339.4799 651.6825,341.2072 651.0003,343.0081 650.7581,344.8543 650.9751,346.7082 651.6505,348.5262 652.7582,350.2622 656.0499,353.3147 660.2546,355.5678 664.689,356.8157 668.7841,356.9532 672.1752,355.9813 674.6775,354.046 676.2347,351.4033 676.8866,348.331 676.494,343.3972 674.9217,338.5573 673.3083,335.5729 670.0485,331.5891 666.1149,328.4382 662.2317,326.5271 660.1818,326.0464 658.985,326.1944 658.9241,326.9317 659.3569,327.4995 661.1247,328.9471 667.5054,332.4498 683.9876,339.4372 687.7754,340.7532 690.6425,341.3487 690.9696,341.1402 690.8324,340.9038 689.2807,339.6871 682.2353,335.6667 677.2086,333.3888 663.7116,328.1866 661.9804,327.2604 661.4335,326.5435 663.0652,325.7672 682.0161,322.7107 693.2466,319.7829"/>
    <polyline points="681.5825,223.2391 666.6787,216.189 651.9572,208.3915 646.0367,204.6275 643.9525,202.9842 642.6027,201.5818 642.0571,200.4776 642.3447,199.7211 643.4509,199.349 645.3049,199.3834 650.7414,200.6816 657.4205,203.4613 664.1548,207.3491 670.1085,211.8892 674.8177,216.6537 678.0968,221.3433 679.9307,225.846 680.3763,230.1888 679.4916,234.3404 678.5648,236.2992 675.8032,239.8319 671.991,242.6101 667.4238,244.3556 662.5299,244.8671 657.8768,244.0717 654.0894,242.0716 652.6961,240.7025 651.7024,239.1477 651.1343,237.457 650.9995,235.6808 651.2887,233.8669 653.0209,230.2959 654.3651,228.604 657.6819,225.5022 670.0225,217.112 671.3637,215.9219 671.7578,214.9876 671.162,214.213 668.4834,213.3146 655.1528,211.8697 653.8299,211.1152 653.824,210.0416 656.0724,208.1058 661.6247,205.668 668.413,203.6171 670.1712,203.4025 671.1425,203.7082 671.182,204.5968 670.1708,206.0996 666.6759,209.403 653.448,218.8622 650.5448,221.2504 649.1209,223.3725 649.0642,224.3359 649.4503,225.2357 651.4254,226.8399 656.4469,228.742 665.7702,230.7099 670.834,231.2953 672.2417,231.1308 671.3783,230.4272 669.6007,229.7235 656.099,225.5243 653.4759,223.7696 653.2866,222.3955 653.706,221.6137 655.5173,219.7969 665.8989,211.9203 673.226,205.3101 678.3961,199.4529 679.7048,197.3103 680.0246,195.9113 679.3224,195.4003 677.6097,195.8333 665.8335,201.6959 662.0427,203.1541 657.3991,204.2595"/>
    <polyline points="568.1966,223.2391 570.6846,206.2275 572.6594,197.2086 573.8234,194.3141 574.4403,193.4825 575.0673,193.1181 575.6909,193.2451 576.2966,193.8685 577.3994,196.4925 578.2862,200.5189 579.1692,207.6472 579.8049,216.2927 579.8825,220.937 579.5795,222.9817 578.9271,224.2047 577.9618,224.6655 576.7573,224.3915 575.3483,223.338 571.6841,218.7135 566.7816,211.0917 558.7589,196.8581 557.1472,194.6766 557.0627,196.1348 558.5921,202.0639 560.7544,208.629 562.4714,212.6527 562.9586,213.0695 563.0968,212.7971 563.0819,210.0566 562.3679,204.9793 561.4389,200.8905 559.1821,194.8809 556.9847,191.7559 555.6672,190.6649 554.2129,189.9643 552.6391,189.6925 550.9733,189.8677 547.5287,191.5104 544.3152,194.5314 541.9139,198.2961 540.8811,202.1603 540.9937,203.9765 541.5447,205.6588 542.5165,207.1775 543.8691,208.5121 545.5475,209.6499 549.6413,211.3149 551.9471,211.844 556.8746,212.3284 564.7014,211.7911 572.7553,210.1476 589.9304,205.7655 592.9716,205.2654 594.3881,205.3376 593.8282,205.9516 591.2226,206.9942 581.6504,209.709 573.2032,211.4649 565.1443,212.3486 557.8936,212.1031 552.0575,210.7494 549.3754,209.3585 548.4956,208.5643 547.9598,207.7321 547.9609,206.0687 549.3461,204.6109 551.9362,203.5404 555.497,202.9295 559.8023,202.7821 569.7983,203.6763 592.8979,207.5527 578.8932,205.7692 569.554,205.414 559.2251,206.1355 551.9906,207.3832"/>
    <polyline points="454.8108,223.2391 452.2827,233.3909 449.3526,242.2525 447.2333,245.9281 445.7621,246.6794 445.0208,246.4602 444.2785,245.8478 442.8078,243.5449 440.8202,237.9649 439.658,230.9409 439.6088,226.0054 440.6342,218.537 442.6907,211.0338 446.0062,202.3445 447.9381,198.3563 448.8378,197.236 447.5954,201.0133 442.2595,212.2561 441.5806,214.3973 441.5054,216.3457 442.0337,216.4881 442.4444,216.165 443.4799,214.7584 444.6489,212.4982 446.3021,208.1169 448.2019,201.1594 448.3121,199.5216 446.8719,201.0784 433.2666,219.9452 430.0093,225.2042 428.707,227.8738 427.0089,233.2173 426.6709,235.8088 427.0562,240.5112 427.7576,242.4764 428.7655,244.0944 430.044,245.312 431.5477,246.0897 433.225,246.4032 435.0234,246.2415 436.8936,245.6052 438.7925,244.5082 442.5556,241.0424 446.2057,236.1212 449.7805,230.0591 462.6692,203.7523 468.2654,193.508 471.4042,189.0406 472.6596,187.8112 473.6598,187.3295 474.3799,187.6123 474.8027,188.6395 474.9195,190.3443 474.241,195.3299 472.442,201.4977 469.7445,207.839 466.4201,213.6585 462.7051,218.5781 458.7578,222.394 456.7252,223.8502 454.6606,224.9979 450.4479,226.3766 448.3224,226.6314 444.1554,226.3819 440.3378,225.2799 438.658,224.4539 435.9219,222.2943 434.9113,220.9671 434.1576,219.482 433.4365,216.1016 433.4595,214.2545 434.1875,210.3942 435.6008,206.5424 437.3246,202.998 440.9816,197.1609 440.6496,198.2388 439.3292,200.3932 435.8833,204.9256 425.2774,216.3035 427.0324,215.4202 429.7119,213.4057"/>
    <polyline points="341.425,223.2391 334.5472,222.2927 327.0009,219.9489 320.9547,216.8208 317.5178,214.0768 315.1082,210.864 314.0683,207.3289 314.489,203.7415 316.2176,200.469 318.9305,197.928 322.2653,196.5506 324.0542,196.4062 325.8646,196.6548 329.3858,198.3109 332.5733,201.2871 335.2827,205.1391 338.2905,211.5016 339.4241,215.5679 339.7188,219.2522 339.5333,220.9397 338.4885,224.0328 336.5723,226.8034 333.8645,229.2546 330.5675,231.3253 327.0462,232.923 323.7527,233.9321 320.1708,234.1496 319.1562,233.4001 319.1389,232.7649 321.1678,229.8153 332.6493,218.8878 352.6768,197.2418 357.0592,193.4523 358.9038,192.24 360.4531,191.5697 361.6664,191.4827 362.51,191.9921 362.9585,193.0757 362.6229,196.6829 360.7272,201.527 359.2858,204.1379 355.6766,209.2718 353.609,211.6562 349.1267,215.8118 346.757,217.5198 344.3233,218.957 339.3214,220.9997 336.7902,221.6082 331.8598,222.0301 329.5694,221.8635 325.6199,220.8472 322.8381,219.0536 321.9826,217.924 321.5223,216.6753 321.4779,215.3374 321.8641,213.9432 322.6869,212.5334 325.5992,209.857 327.6322,208.6894 332.6196,206.9128 335.4664,206.3683 341.6538,206.0655 344.9502,206.3212 348.361,206.8436 355.3714,208.6215 362.1652,211.1792 367.9792,214.208 372.0674,217.4074 373.2916,218.9993 373.9145,220.5614 373.9233,222.0828 373.3285,223.5565 372.1682,224.9779 368.4424,227.6266 363.5033,229.9025 358.1751,231.6366 350.8534,232.9245 346.9852,232.8385 344.1295,232.0256 343.0934,231.3642 341.7864,229.5838 341.4963,228.4921 341.5582,225.9896 342.3009,223.1757 347.3605,209.4674 347.8021,206.9705 347.3776,206.5954 346.894,206.8182 341.4408,211.884 333.769,220.4262 326.8588,229.222 322.3579,236.0939 318.4648,243.3634 315.5779,250.2763 313.9623,255.8456 313.6637,257.8333 313.6955,259.1714 314.0338,259.8067 314.6427,259.7189 316.4892,257.4697"/>
    <polyline points="341.425,336.6249 345.6814,354.6196 346.3627,357.0776 346.8378,357.7745 347.1643,354.0695 346.5534,346.8616 345.0654,337.0625 342.7905,325.2081 340.5947,315.6831 338.1485,307.5741 336.5225,304.0904 335.7401,303.1443 334.9831,302.7881 334.2474,303.0355 332.8054,305.254 330.6214,311.8241 325.5587,331.9833 324.9859,335.7732 324.9221,339.1703 325.3735,342.3941 326.7821,347.2289 329.8474,354.8752 331.818,358.3478 332.5152,358.6681 333.385,357.5058 334.8748,350.7436 335.5148,349.4581 336.5412,349.5139 337.2356,350.2598 337.7578,352.1178 337.5631,353.5689 336.8825,354.9716 335.7048,356.1254 333.9881,356.8094 331.6676,356.8349 328.7712,356.1213 325.525,354.7568 320.9245,352.0328 318.6582,350.1548 317.363,348.4429 317.1781,347.008 318.1516,345.9469 319.0649,345.5916 321.6676,345.3051 325.1004,345.6557 330.992,347.3711 336.5588,350.1569 340.9516,353.4905 344.4627,357.6541 345.1615,359.0905 345.0543,359.9544 343.7676,359.0864 338.3338,353.5114 328.938,344.7619 327.442,342.0692 327.4193,341.2918 328.0805,339.8985 330.5252,338.1289 334.2248,336.6401 340.6848,334.8293 346.7005,333.6299 356.4375,332.78 361.6248,332.8921 366.4273,333.4837"/>
    <polyline points="446.578,336.2118 447.4405,351.2435 447.357,358.4278 447.013,360.6978 446.9009,357.3697 447.388,352.0727 448.4171,346.0481 449.3567,342.3726 451.7093,336.6718 453.191,334.635 454.9846,333.0597 458.4541,331.5145 461.3518,331.047 464.6931,331.0458 470.3269,331.8752 474.1478,332.9444 477.4839,334.4173 479.7442,336.3039 480.3228,337.4062 480.4939,338.6135 480.2539,339.9177 478.6033,342.7597 473.7108,347.3732 464.6823,353.4639 457.7014,356.908 453.3366,358.0839 451.2473,358.2517 447.2508,357.6585 443.5515,355.7321 440.2881,352.4048 437.68,347.7374 436.701,344.9647 435.5028,338.7022 435.3621,331.6026 436.2409,323.699 438.0525,315.2624 439.27,311.0558 442.2091,303.3919 443.8633,300.303 445.5898,297.9539 447.3503,296.4865 449.1098,295.9808 450.8381,296.4451 452.5119,297.8352 454.1152,300.0609 457.0525,306.4742 459.5089,314.3924 461.3283,322.4915 462.4159,329.7688 462.7411,335.7231 462.624,338.1693 461.8643,342.0512 461.2386,343.5027 459.5413,345.4661 457.3007,346.2624 454.5617,346.0573 449.7138,344.3858 438.4075,339.0438 435.7336,338.0417 445.5802,346.8726 455.4393,356.2353 459.4391,359.3648 463.3156,361.454 465.1439,362.0006 466.8549,362.1811 468.4119,361.9891 469.7779,361.4305 470.918,360.5268 471.803,359.3159 472.4101,357.8476 472.7378,354.3568 472.4487,352.433 470.9876,348.4004 466.8915,342.0964 461.1656,335.5118 454.3643,328.4517 440.8663,315.749 435.0755,310.9765 429.7635,307.1152 425.6917,304.8374 424.3527,304.469 423.5703,304.6595 423.3791,305.4066 424.7537,308.4222 428.1857,312.9802 433.0538,318.3093 444.0127,328.3896 454.8108,336.6249"/>
    <polyline points="568.1966,336.6249 564.5951,345.6453 562.5533,349.6158 560.9347,352.0527 558.1732,354.5454 556.273,354.8998 555.3795,354.5748 553.8264,352.8637 552.6793,349.8619 551.9647,345.8578 551.6325,338.6205 552.0279,330.3107 553.5138,315.3259 554.6584,308.5347 555.5584,306.4086 556.0416,306.2497 557.024,307.8068 557.9534,311.5754 558.7779,316.8381 560.376,331.7546 560.595,337.3243 560.2672,342.499 559.8468,344.9327 558.4858,349.4333 557.5752,351.4542 555.4182,354.8765 552.984,357.2261 551.7116,357.9108 549.1201,358.1785 547.8284,357.744 546.5677,356.9426 544.2779,354.3739 542.5947,350.8675 542.096,348.9155 541.9552,344.8964 542.3422,342.9158 544.001,339.1459 546.6543,335.6927 549.9707,332.5447 555.359,328.4413 560.2294,325.3384 563.8844,323.5561 565.5256,323.2767 566.5143,323.7757 566.7521,325.6785 565.5456,328.1681 563.2613,330.5055 560.4081,332.2279 558.2122,332.9198 552.5803,333.2599 537.8803,332.3137 550.2235,333.437 556.0017,334.8831 558.8144,336.5839 559.7794,337.7054 560.402,339.0239 560.6512,340.5445 559.9452,344.1721 558.9807,346.2431 555.9456,350.7254 551.8046,355.2995 547.1924,359.3933 542.8501,362.346 539.5097,363.5357 538.413,363.3294 537.7793,362.5557 537.6483,361.2263 538.0435,359.3843 538.9677,357.0959 542.2775,351.4988 558.4886,330.6234 573.841,308.1588 578.3979,303.1878 580.5423,301.7011 582.5449,300.9876 584.3543,301.0888 585.9169,302.0097 587.1838,303.7047 588.1168,306.0756 588.692,308.9854 588.8952,312.2762 588.181,319.378 586.0893,326.3529 582.9274,332.65 579.1169,338.1595 575.0646,342.9943"/>
    <polyline points="568.1966,450.0107 569.6126,454.254 570.5434,460.2377 571.0766,467.9227 570.8723,469.3233 570.3599,469.6827 569.5566,468.9442 568.5629,467.2179 562.5651,453.0236 560.0821,449.4821 558.0109,447.6767 554.3423,445.9754 551.6911,445.6168 549.1327,445.9184 547.0284,446.8685 546.2818,447.5759 545.6278,449.4244 545.7719,450.5514 547.0031,453.1585 549.3032,456.1173 554.0032,460.8132 559.2194,465.1466 562.5634,467.343 565.5961,468.5841 568.2239,468.6176 569.3698,468.1435 571.2866,466.2385 572.619,463.2151 573.2337,459.3621 572.9614,455.0199 571.5973,450.4873 570.4422,448.2067 567.1036,443.6633 564.9103,441.4225 562.3817,439.2257 556.4607,435.0769 549.7844,431.4875 543.0105,428.7595 539.8345,427.8112 534.4404,426.8964 532.4318,426.9629 531.0061,427.3801 530.2355,428.127 530.1691,429.1613 530.8279,430.4259 534.2066,433.3911 539.7281,436.5618 546.3533,439.6047 553.0899,442.2938 562.077,445.3414 569.0888,446.8771 572.6618,446.8917 575.3759,445.9703 577.2075,444.0141 578.1427,441.0154 578.2115,437.1295 577.5199,432.6942 575.4312,426.1622 573.6286,422.8298 571.748,421.0427 570.8305,420.8568 569.9441,421.1662 569.0984,421.9611 567.5655,424.8458 565.783,431.3435 564.7744,438.4922 564.6337,444.6386 565.3645,449.0667 566.8604,451.5312 568.1852,451.982 568.9088,451.8287 570.3916,450.7484 571.7986,448.6269 573.4549,443.4962 574.092,436.3315 573.6434,430.8882 572.3148,425.4321 570.0464,420.5888 568.5678,418.6313 566.8718,417.1099 564.9709,416.1068 562.8859,415.6838 560.6457,415.8754 558.2874,416.6841 555.8557,418.0714 553.4011,419.9601 550.9796,422.2455 546.4768,427.5261 542.8333,433.0032 541.4724,435.5916 539.8724,440.1809 539.6709,442.1131 539.8643,443.7751 540.4269,445.154 541.3106,446.2394 542.4499,447.0225 543.7695,447.4953 546.6501,447.4864"/>
    <polyline points="454.8108,450.0107 480.1992,433.915 483.8489,431.3922 485.7024,429.6919 480.6107,432.4321 473.089,437.7471 467.6425,442.243 462.422,447.1877 455.4354,455.2055 451.3797,460.8154 442.448,474.4804 440.5936,476.3517 440.6193,475.0308 441.6542,471.759 446.2306,461.3926 451.0495,452.507 459.7263,438.1949 464.5807,431.0304 468.4594,426.4785 469.4314,425.7252 470.7925,425.4534 471.1595,425.9215 471.2247,427.9189 470.3678,430.9646 468.6386,434.5287 466.2249,438.0953 463.4298,441.2165 460.5619,443.5323 457.8383,444.7819 455.3883,444.8437 454.2871,444.415 452.3481,442.6194 451.5125,441.2465 450.1002,437.5665 449.0173,432.7988 447.8545,422.0553 447.843,415.9298 448.2369,414.1409 448.5619,414.105 448.9748,414.6582 450.0439,417.3713 453.5613,429.007 455.8058,435.3652 457.7255,439.3536 458.6054,440.5538 459.045,440.664 458.2085,437.9729 455.9408,434.0772 453.7504,431.188 451.0996,428.5186 448.0503,426.3855 446.4044,425.5938 442.9704,424.6777 441.2435,424.5949 437.9639,425.2353 436.4955,425.9478 434.0952,428.0358 432.5927,430.7241 432.0829,433.5908 432.5363,436.2314 433.8435,438.3674 435.8393,439.8648 438.3318,440.6882 441.1367,440.8501 444.1099,440.4086 447.159,439.4764 451.738,437.3542 454.7933,435.4628 466.0939,426.5977 470.2553,423.7008 472.3098,422.8677 473.0672,422.8666 473.9625,423.7602 474.0671,424.6467 473.507,427.187 471.8733,430.4947 469.2767,434.2105 465.9957,438.0026 460.4319,443.3115 456.5904,446.3458 452.7591,448.8201 448.9871,450.6512"/>
    <polyline points="364.6801,424.0313 359.692,430.0413 343.986,446.4117 329.0655,464.2875 326.8344,466.3474 325.0368,467.5293 323.7692,467.7811 323.3516,467.5735 322.9535,466.5726 323.3857,463.9591 324.2949,461.8592 326.3943,458.8619 331.2209,453.7114 332.8898,450.7357 333.4787,448.5297 333.5908,446.1714 333.2134,443.6915 331.7403,439.9638 329.3107,436.9453 327.38,435.8698 326.3896,435.7152 325.4103,435.8375 323.5772,436.8999 322.0838,438.9345 321.5304,440.2562 320.9258,443.404 320.9081,445.2006 321.4823,449.2023 322.8543,453.7565 324.8996,458.8703 333.784,479.4324 335.3328,481.913 335.6883,479.2732 335.145,461.3125 334.0436,446.8911 332.6518,449.1111 331.5444,452.1184 330.9608,455.2616 330.9076,458.973 331.5541,462.8511 332.399,465.2425 333.6011,467.2509 335.2032,468.7104 338.4161,469.7672 345.812,469.5688 360.8955,467.4016 369.0179,465.5701 369.397,465.2505 369.248,464.9416 365.7194,464.0388 335.0787,460.2529 317.7569,457.5469 310.6133,455.7465 308.7826,454.5261 308.9055,453.9351 311.1569,452.8376 318.4698,451.5001 330.7985,450.397 341.425,450.0107"/>
    <polyline points="244.2753,452.7633 246.8217,449.3882 249.1079,445.2195 250.6854,440.3226 251.1882,434.9493 250.5007,429.6188 248.767,425.1058 247.5927,423.419 246.2623,422.2297 244.8075,421.5917 243.2558,421.5239 241.6314,422.0136 238.2658,424.5103 234.9413,428.6309 230.5099,436.6088 227.1544,445.218 225.0933,453.491 224.4665,461.2626 224.8621,465.9592 225.9165,469.8849 227.5851,472.595 228.6111,473.3697 229.7341,473.7206 230.9266,473.6437 232.1608,473.1498 234.6613,471.0036 238.2954,465.434 241.6117,458.1146 243.4201,452.7944 244.6424,447.2617 244.9691,444.3968 244.9913,438.4948 244.6838,435.5231 243.4604,429.8533 241.5399,425.1369 240.3899,423.3679 239.1661,422.094 237.9146,421.3627 236.6838,421.1927 235.5215,421.5758 234.4729,422.4862 232.8736,425.7127 232.3945,427.9074 232.2205,433.0986 232.562,435.9505 234.1313,441.8596 235.3395,444.8229 238.471,450.6179 242.2716,456.1787 252.9558,469.8206 254.5176,472.3017 254.6878,472.9988 254.4305,473.3294 253.7553,473.3082 251.2935,472.3026 247.7696,470.205 243.8317,467.3001 240.0784,463.9092 236.8875,460.3551 234.4318,456.9192 232.777,453.8128 231.9714,451.1711 232.0378,449.07 232.3958,448.2291 233.7433,446.9472 235.876,446.1033 244.9555,444.189 248.6309,442.4368 249.7875,440.7201 249.6042,438.6586 248.9877,437.568 246.7758,435.4268 241.6109,432.6829 235.5413,430.8604 231.5367,430.2857 225.6709,430.4509 219.7031,431.7613 214.1113,434.0758 211.2048,436.0496 210.1346,437.1087 208.9302,439.2581 209.0927,441.292 209.6908,442.1993 211.8354,443.6341 213.309,444.0865 216.8272,444.2908 218.7835,444.0003 222.935,442.6053 227.3239,440.1426 231.979,436.6905 249.0377,421.3799 252.613,418.6266 254.6884,417.7449 255.0526,418.0826 254.9469,418.9299 253.3793,421.9955 250.2679,426.458 246.117,431.6707 237.0574,441.7766 231.5297,447.1044 228.0392,450.0107"/>
    <polyline points="243.5431,548.8549 247.1479,547.7799 248.7957,547.5869 251.5344,547.9158 253.2409,549.1363 253.6268,550.0242 253.4079,552.1745 251.9281,554.5475 247.7407,557.9269 243.9452,559.808 239.5758,561.2794 234.8546,562.3136 227.5437,563.1918 217.7442,563.6884 205.9695,563.8191 204.3923,564.1071 204.2265,564.3922 206.2159,565.9576 220.8231,573.6849 225.4164,576.7924 231.1169,581.8052 237.3436,588.9072 227.7837,566.3922 225.8312,559.5884 222.8876,545.4205 221.7636,542.4299 220.7371,541.2572 220.3063,541.6064 220.1198,542.8745 220.2217,549.4058 221.7473,566.4948 221.3107,570.19 220.1907,573.4145 219.019,574.99 217.4162,575.9018 216.4374,576.072 214.1745,575.8322 211.6789,574.9067 209.2542,573.4716 207.2661,571.6822 206.0887,569.5878 206.0168,567.1352 206.4308,565.7491 208.0909,562.6204 224.2808,539.8151 226.4865,537.2664 228.1071,536.4366 228.6641,536.737 229.0366,537.5107 229.1909,540.3446 227.8367,546.8644 225.808,551.8879 224.449,554.4268 221.086,559.3467 216.9846,563.8645 212.3532,567.8435 205.2101,572.6211 197.5744,576.8349 215.4426,569.7005 223.6005,565.8374 228.0392,563.3966"/>
    <polyline points="141.4911,562.0063 134.1374,561.0442 127.7492,559.442 124.6296,558.0363 123.4668,557.2198 122.5741,556.3143 121.5888,554.2028 121.6313,551.7046 122.6446,548.958 124.5574,546.2039 127.2533,543.7335 130.5126,541.8463 133.9558,540.8264 137.0794,540.8232 139.3644,541.7817 140.4159,543.5153 140.4131,544.592 139.3353,546.9796 136.9227,549.4304 133.4,551.671 129.0867,553.4752 124.3257,554.6588 119.3948,555.0642 114.4691,554.5816 109.6259,553.1572 104.9927,550.798 100.8436,547.6107 99.0601,545.7805 96.2929,541.9035 94.8114,538.2246 94.728,535.4274 95.1906,534.5558 95.9572,534.1048 96.9944,534.0964 98.2649,534.5307 99.7312,535.3915 103.107,538.2559 106.8461,542.309 120.4973,558.9491 126.057,564.7564 133.5454,571.951 121.2544,563.7085 96.973,544.637 92.2718,541.6141 90.2848,540.9207 90.8073,541.8654 92.7099,543.7723 97.5287,547.6973 103.5416,551.872 118.3366,561.3462 120.4856,563.4298 120.8752,564.7366 119.9291,566.8295 117.1932,569.3962 110.8288,574.1509 104.0469,578.6254 96.1298,583.1465 90.9774,585.6379 86.7351,587.3023 85.1901,587.7424 83.6259,587.7697 84.3096,586.6996 85.4793,585.8014 89.2739,583.44 94.5914,580.5924 104.1508,576.0996 117.4864,570.7495 140.0639,563.6278 142.2116,562.648 142.43,562.2686 141.1964,561.7459 135.8831,561.5999 125.743,562.247 114.6533,563.3966"/>
    <polyline points="112.2521,668.9472 104.0598,661.8564 99.4194,658.4532 94.1602,655.1702 88.7229,652.559 83.8344,651.1111 81.8865,650.9308 80.422,651.1442 79.5309,651.757 79.2693,652.7583 79.6538,654.1195 82.2645,657.7274 89.6908,664.432 107.2683,677.9182 114.0524,683.8585 120.28,690.694 122.7354,694.3537 123.2543,696.153 122.5812,696.2644 121.1781,695.5851 112.1403,689.1423 106.736,685.8478 91.8541,678.2547 89.6727,676.511 89.0266,675.6118 88.6733,673.6965 88.9503,672.6625 90.308,670.4106 100.8911,659.3762 104.8889,653.8019 100.7319,658.9772 96.9172,662.9109 93.1455,666.1081 89.8792,668.0153 91.3235,666.5813 101.6541,658.4148 105.0656,656.4969 107.0432,656.0549 108.6922,656.3828 109.3726,656.8404 110.7562,659.2893 111.0297,662.9111 110.0051,667.094 108.4398,670.0522 106.1165,673.1069 101.4201,677.7555 89.5936,687.7811 88.0452,689.7949 87.8358,690.542 88.019,691.0815 89.5149,691.4437 92.3191,690.765 96.1005,689.0747 100.5124,686.5155 109.9821,679.5785 127.741,663.9045 130.1459,662.3664 130.9929,662.0338 131.8971,662.1908 131.7409,663.2373 130.6192,664.8899 126.2978,669.0288 120.9723,672.9805 114.6533,676.7824"/>
    <polyline points="216.1718,680.2595 207.2594,680.4192 199.1258,680.1188 193.252,679.2783 192.4294,678.8464 192.3227,678.3262 192.9543,677.7076 196.3297,676.1299 209.1873,671.4157 220.7197,666.5953 243.9654,655.2763 248.7816,653.6335 250.6619,653.294 252.1177,653.3016 253.1058,653.6547 253.6011,654.3372 253.601,655.322 253.1252,656.5751 249.3249,661.5656 239.8516,671.2775 235.6576,676.1746 233.8107,679.8294 234.0148,681.5248 235.4342,682.6143 238.0932,683.1202 244.1471,682.8445 249.0856,682.004 254.0499,680.6659 258.1958,678.869 259.6825,677.8135 260.6513,676.6576 261.0385,675.3992 260.8141,674.0324 259.9782,672.5474 258.559,670.9311 254.2064,667.2615 238.5167,656.1751 228.7011,650.2313 222.5353,647.681 216.83,646.6697 214.2538,646.7644 211.9337,647.237 209.9242,648.0536 208.2768,649.1644 207.0344,650.5059 206.2272,652.0056 205.8692,653.5876 205.9566,655.1774 206.4721,656.7062 207.3852,658.1131 210.2252,660.3646 214.0663,661.6371 216.236,661.8548 220.8848,661.4316 225.8081,659.9419 241.7897,652.2565 246.8816,650.4131 251.1145,649.7296 252.7417,649.8546 253.9667,650.2695 254.7512,650.9435 255.0784,651.8407 254.9543,652.9246 253.4645,655.496 250.6311,658.3343 244.8284,662.3991 240.5168,664.6101 236.2358,666.2431 232.1777,667.1663 228.3987,667.2032 224.8551,666.172 223.1557,665.2281 221.5089,664.0106 218.4054,660.8765 214.3907,655.1916 209.4642,646.0388 213.9553,656.1205 218.466,663.8176 224.3091,671.4225 228.6758,675.9665 235.6633,681.7164 242.6673,685.8883 248.3666,688.0534 250.7087,688.3451 251.6063,687.8369 251.0594,686.7074 249.1973,685.1745 244.5509,682.6205 237.0524,679.6429 228.0392,676.7824"/>
    <polyline points="228.1941,769.3995 232.0872,766.1511 234.2066,765.0461 236.4191,764.3561 238.698,764.111 241.0099,764.3196 243.316,764.9739 247.7416,767.5085 251.6244,771.3631 254.5821,776.074 256.2194,781.2108 256.449,783.8393 256.2679,786.4747 255.6862,789.1035 253.4639,794.3232 250.2364,799.4456 243.1164,808.6018 238.9269,812.9957 237.0613,814.0577 236.4154,813.9903 235.9502,813.5485 235.4988,810.351 236.0956,805.4042 238.4421,794.567 238.433,792.8506 237.7251,792.0227 237.0865,791.9594 235.2888,792.5285 231.6304,794.9955 227.5044,798.9434 219.6894,807.8664 219.7215,807.1043 223.7036,799.4338 228.961,790.8286 241.3905,772.3598 247.9704,763.4658 249.9846,761.121 250.7207,760.6561 248.2778,765.2786 243.7778,772.2146 238.2632,779.8484 229.2987,791.1308 227.9166,793.2302 227.5313,794.8406 228.2401,794.9747 230.4527,793.9358 234.8129,790.6001 240.2885,785.2771 246.8771,778.0831 251.4832,772.1371 253.5895,768.4609 254.5001,765.5176 254.4476,764.4566 254.0542,763.7247 253.3359,763.3447 252.3228,763.3202 251.0559,763.6416 247.9629,765.2362 242.7442,769.4667 238.0501,774.7273 235.8151,778.0849 234.552,780.9009 234.2832,782.9272 234.9224,783.9937 236.3976,783.9973 237.4441,783.5858 241.8003,780.7223 247.6034,775.6347 251.6953,771.2944 255.3342,766.5987 257.889,762.1392 258.8269,758.7258 258.6029,757.6774 257.9164,757.1759 256.7942,757.2605 255.2823,757.9354 251.3375,760.9171 246.6477,765.5918 237.2822,776.92 228.0392,790.1682"/>
    <polyline points="334.5674,760.1081 335.2993,762.7017 335.5029,765.7398 334.9409,771.1057 333.8272,774.5625 333.0202,776.1252 330.887,778.7738 329.5689,779.8166 326.511,781.2586 324.8325,781.6382 321.3997,781.7209 319.7568,781.4548 316.9205,780.456 315.0579,779.1094 314.482,777.7379 315.2843,776.5802 317.37,775.8159 320.4523,775.557 324.0688,775.8294 327.7101,776.589 330.9557,777.7598 333.5518,779.2678 335.3953,781.037 336.7578,784.0452 336.8173,786.2605 336.2953,788.6722 333.7505,794.1571 330.7362,798.4433 328.3896,800.9514 324.7181,803.728 321.3488,805.0934 319.6899,805.1819 318.868,804.6676 318.8396,804.2138 319.5607,802.9751 325.8659,796.6286 329.5437,791.8964 332.541,786.0687 333.8868,781.5533 334.5606,776.6895 334.617,774.2127 334.1339,769.4134 332.8232,765.2771 331.8499,763.6471 330.6654,762.3988 329.2754,761.578 327.6936,761.2083 325.9441,761.2892 324.0619,761.8017 320.0962,763.9766 316.2845,767.3587 313.179,771.4878 312.0469,773.6832 310.8482,778.0695 310.8278,780.1722 311.199,782.1625 311.9499,784.0059 313.054,785.6742 316.1423,788.4134 319.9748,790.338 323.9412,791.573 328.9554,792.5402 332.6632,792.736 313.3654,789.9041 311.4912,789.3438 311.1251,788.9871 311.1678,788.5637 312.4386,787.5008 325.7735,780.6745 328.5927,778.5956 330.3713,776.5219 330.9601,774.5323 330.8095,773.5983 329.6696,771.9328 327.5022,770.6775 326.0815,770.2552 322.7203,769.8956 317.1127,770.618 313.7596,771.8609 312.4184,772.6684 310.7401,774.5535 310.4976,775.5858 310.6811,776.6522 311.2861,777.7381 312.291,778.8314 315.3407,780.9975 321.6595,784.0241 330.616,787.1792 341.425,790.1682"/>
    <polyline points="341.425,903.554 327.8675,895.1444 321.6731,890.6838 317.6306,886.6672 316.8369,884.8369 317.0968,884.2914 318.9626,884.0147 324.7219,885.5799 329.9423,887.7184 347.9999,896.0578 357.1111,899.431 362.4738,900.9586 366.6775,901.7861 369.2855,901.8634 369.9027,901.6157 370.0451,901.1783 367.7939,898.7665 358.5597,891.7271 347.9942,882.7258 345.5671,881.1966 343.7325,880.7705 342.443,881.4142 341.6272,882.9843 341.2435,885.2779 341.4327,889.5056 341.9772,892.3793 343.1376,896.0085 344.5445,898.2508 345.6981,898.8239 347.9292,898.247 350.7026,896.0699 354.6282,891.3528 360.1033,883.3243 360.6031,882.8586 360.7492,883.2072 359.6052,886.1968 357.2319,889.972 353.9002,894.2482 350.1466,898.2254 347.5591,900.446 344.925,902.1796 342.2375,903.3465 339.4776,903.9276 335.1456,903.7758 330.6229,902.5881 325.0289,900.0181 322.07,897.6844 321.045,895.9298 320.993,893.0802 323.9572,886.3889 323.0163,889.5873 322.8244,893.4849 323.5978,896.3309 326.6358,902.5914 327.468,905.7032 327.8924,909.192 327.93,913.4679 327.5714,915.9219 326.939,916.2233 326.2516,915.3035 326.2391,913.5613 327.4074,911.5333 328.8714,910.2332"/>
    <polyline points="228.0392,903.554 219.5149,905.8812 212.1768,908.9044 207.4391,911.7282 203.628,915.1531 202.2908,917.0505 201.4346,919.0426 201.1158,921.1011 201.3683,923.1898 202.1998,925.2624 203.5841,927.2637 205.4647,929.1315 207.7645,930.8005 210.3963,932.2073 213.2739,933.2951 216.3213,934.0189 219.4795,934.3488 222.7092,934.2707 225.9912,933.7853 232.7276,931.6823 236.1982,930.1483 243.2376,926.3922 250.0138,922.1082 255.8262,917.7111 259.8808,913.525 261.0323,911.5815 261.5203,909.7564 261.317,908.0557 260.4242,906.4825 258.8839,905.0406 256.7768,903.7364 254.2094,902.581 248.1709,900.789 244.9302,900.1948 238.4834,899.681 235.4175,899.7619 229.8373,900.5298 227.3762,901.168 223.1644,902.8242 219.9723,904.8619 217.9278,907.1771 217.1464,909.6546 217.6728,912.1238 219.4553,914.3966 222.3331,916.291 226.0812,917.6252 228.2116,918.0243 232.8727,918.1809 235.348,917.9071 240.3778,916.6249 242.8104,915.6264 247.1275,912.9787 248.8518,911.3611 250.1912,909.5664 251.0898,907.6049 251.5062,905.4851 251.4151,903.2116 250.8071,900.784 249.6939,898.206 246.0952,892.6715 241.0333,886.868 234.9864,881.2313 228.306,876.3449 224.7709,874.38 221.1071,872.8261 217.3367,871.7353 213.5066,871.1434 209.6894,871.0681 205.9819,871.5082 202.4993,872.4389 199.3667,873.8062 196.7102,875.5328 194.6471,877.5259 193.2764,879.6864 192.6707,881.9161 192.8723,884.1236 193.8938,886.227 195.7019,888.1564 198.2142,889.8567 201.3095,891.2874 204.8426,892.4234 208.6615,893.2521 216.6171,893.9742 224.3657,893.4807 228.0478,892.8115 235.0485,890.766 241.5583,888.0934 247.345,885.2627 253.7533,881.6199 256.2913,879.4286 256.1719,879.0953 255.5818,878.9787 254.558,879.0867 251.4517,879.9867 247.4452,881.7308 243.1578,884.1003 233.8458,890.6463 230.1874,894.0147 228.717,895.9892 228.0318,897.7278 228.0963,899.1413 228.8334,900.1521 230.1263,900.7577 233.9612,901.0169 242.2317,900.2404 244.0907,900.32 245.3365,900.7224 245.7632,901.5238 245.6302,902.0895 244.6594,903.5467 242.8089,905.3819 226.0818,918.2598 219.9071,922.2559 215.6284,924.2094 211.4236,925.3337 209.4329,925.546 205.8899,925.2524"/>
    <polyline points="114.6533,903.554 128.9254,905.0175 141.0928,906.8785 147.7447,908.7794 148.9276,909.4821 149.4706,910.2041 149.3424,910.9345 147.1205,912.3675 140.0459,914.18 131.2954,915.1277 125.8644,915.0711 121.25,914.3597 117.5834,912.9642 114.8555,910.9159 113.0079,908.2798 111.9846,905.1176 111.8779,899.4708 113.2993,892.9348 116.1215,886.1004 118.7293,881.906 120.2283,880.0814 123.5504,877.2555 127.1762,875.7777 130.8629,875.7851 132.6188,876.3414 135.6729,878.4412 137.7301,881.5657 138.2671,883.3792 138.2454,887.2415 137.6961,889.2032 135.6714,893.0438 131.0176,898.4717 119.5977,909.0729 106.3777,922.8591 103.7439,924.7446 101.5124,925.454 99.8453,925.0381 99.2726,924.4818 98.7198,922.9125 98.9933,921.1086 99.4363,920.2588 100.8869,918.9 102.9728,918.1925 105.5296,918.2328 108.4511,919.0581 111.6779,920.6154 120.5849,926.1306 125.8194,928.8364 128.7933,929.6952 130.0027,929.7415 130.9718,929.5034 131.665,928.9712 132.0586,928.1457 131.9191,925.6727 129.5457,920.4105 125.0949,914.476 121.3541,910.7804 117.2977,907.5539 111.0096,903.7275 106.7817,901.814 95.9005,897.7696 92.9508,895.7733 92.2132,894.3277 92.2174,893.5813 92.9519,892.0921 95.7167,890.0698 99.9633,888.7029 103.1727,888.452 106.3633,888.9674 109.3155,890.3577 110.6465,891.3788 112.9105,894.0477 114.5264,897.5047 115.0648,899.5068 115.5964,904.0215 115.4372,909.2033 114.6442,914.9505 113.2605,920.9305 111.3386,926.5445 108.9609,931.0538 107.636,932.6788 106.2393,933.795 104.7851,934.3593 103.2897,934.3503 101.7743,933.7685 100.2659,932.6402 97.4124,928.9873 95.0632,924.0752 93.5544,918.6912 93.1089,913.4783 93.3171,911.0746 93.8136,908.853 95.6069,905.0252"/>
    <polyline points="93.4404,813.9662 90.7916,812.8156 89.8507,811.8895 89.2309,810.7581 88.967,809.4472 89.0774,807.9846 90.4189,804.7184 91.6195,802.964 94.9379,799.2949 111.0181,785.5237 117.1557,779.1743 120.65,774.7369 124.9425,768.1751 127.7987,762.8352 128.9353,759.7063 127.6988,761.1425 121.5369,770.598 119.0221,773.8139 115.2979,777.2263 112.9878,778.2415 111.9035,778.3314 110.8736,778.1389 108.9958,776.9125 106.6822,773.104 105.5118,769.5816 104.6905,765.8411 104.264,760.6392 104.401,760.3101 104.6269,760.4698 105.3333,762.275 108.2211,773.8156 114.7618,807.8251 116.8591,814.5606 118.3146,816.8917 119.0606,817.2556 119.8218,817.068 120.5997,816.3437 123.0113,811.3629 126.0818,800.6554 127.8044,791.88 128.6926,783.3408 128.7422,777.8147 127.9341,770.4247 126.8652,766.7509 125.4774,764.5842 124.6921,764.151 123.8567,764.1674 122.0658,765.5013 119.2546,770.1641 112.8099,785.1188 110.5703,787.6611 108.9214,788.0705 107.0944,787.5443 104.0687,785.2308 101.9958,782.7902 100.0813,779.74 98.5352,776.2527 97.5386,772.6472 97.3141,768.126 98.0399,766.4283 99.375,766.0978 100.2224,766.4498 102.1703,768.1056 105.4766,772.5904 108.9875,778.7586 112.3593,785.6621 115.1494,792.44 117.1369,798.5325 118.9718,805.5079 116.4906,795.4647 114.6533,790.1682"/>
    <polyline points="322.0055,664.3881 320.682,662.1092 320.455,659.6931 321.3239,657.3963 323.1925,655.4816 325.9144,654.1526 329.2987,653.5232 333.1146,653.6511 335.1091,654.0119 339.1511,655.348 341.1653,656.3243 347.0563,660.3943 352.2538,665.8058 354.8699,669.8666 355.8263,671.9731 356.9397,676.2688 356.9601,680.6563 355.96,685.1649 354.0841,689.7883 350.031,696.6853 346.7929,700.8142 343.3878,704.0461 341.6915,705.1814 340.025,705.9312 338.4005,706.2611 336.8342,706.1532 335.3482,705.604 333.9682,704.6257 332.7209,703.2465 330.7214,699.481 329.4793,694.8078 328.9762,689.7705 329.3341,682.5539 330.6484,676.6472 331.8836,673.5786 333.2917,671.1504 335.634,668.6563 337.3906,667.7266 339.3847,667.3072 342.9884,667.4571 352.88,669.14 358.3725,669.6631 362.9079,669.6192 365.2826,668.9545 365.4645,668.5998 364.9013,667.7063 362.0491,665.9036 347.6616,658.2677 345.392,657.6041 344.7495,658.2006 345.002,660.8081 345.9481,663.46 347.5318,666.4774 349.7444,669.5375 354.0626,673.7826 363.4847,680.6568 365.2583,682.4975 365.6171,683.3294 365.588,684.1035 365.1721,684.818 364.3901,685.4679 361.8814,686.5448 358.4391,687.2702 352.3969,687.6526 346.3433,687.292 341.1555,686.1708 337.2705,684.219 334.9286,681.5668 334.3208,679.5249 334.8824,676.1831 337.1844,672.5223 341.1373,668.6375 346.6187,664.8279 351.0627,662.5008 356.0224,660.4986 363.7728,658.3921 370.1471,657.6583 372.4297,658.054 372.7749,658.5335 371.7868,660.0345 366.6442,663.4069 341.425,676.7824"/>
    <polyline points="363.6929,568.6129 348.1062,562.9747 339.603,558.8556 334.5575,555.7433 330.0418,552.3668 324.7182,547.0724 322.5528,543.761 321.9728,542.2985 321.8762,539.9599 322.3463,539.1428 324.1909,538.296 325.4833,538.2691 328.5766,538.943 332.0504,540.432 337.2717,543.7465 341.8454,547.707 350.0191,556.2388 350.9858,557.0332 351.492,557.0774 351.4208,555.787 349.8726,551.9267 346.885,546.0012 343.8312,540.9509 341.4045,538.0588 340.069,536.9449 337.1777,535.6402 335.6524,535.5267 334.1043,535.8037 332.5609,536.4801 331.0505,537.5517 329.601,539.0022 327.0022,542.9099 325.0055,547.8594 324.3016,550.6041 323.5734,556.4342 323.7296,562.5436 324.5963,568.8767 327.6627,582.0669 331.3907,593.4644 333.1038,596.6402 333.8611,597.2771 334.5338,597.2345 335.5836,595.1919 336.38,588.2042 336.3915,578.7694 335.6514,569.4391 334.5933,564.1217 332.9807,559.7356 330.7993,556.3216 329.5074,555.0095 328.0952,553.9777 324.9753,552.7761 323.3144,552.5918 319.9666,552.9281 316.9009,553.9568 314.551,555.3852 313.3428,557.0074 313.2626,557.8524 314.1919,559.5502 316.4221,561.1885 328.5443,566.945 332.6772,570.0958 334.3346,572.5011 334.9188,575.0396 334.3361,577.4967 332.5518,579.5911 329.5932,581.0244 325.5869,581.5568 323.2749,581.4487 318.3145,580.5081 313.4311,578.7423 311.2563,577.6181 307.9479,575.0056 306.9933,573.551 306.5906,572.0138 306.7665,570.4005 307.5204,568.7127 310.633,565.0942 330.596,548.9835 346.6143,533.0198 349.1591,531.6278 350.0457,531.7661 350.6712,532.4554 351.1723,535.3201 350.7721,539.6821 349.6411,544.8241 348.0007,550.0678 346.109,554.8483 343.3955,560.289 341.425,563.3966"/>
    <polyline points="114.6533,450.0107 110.6576,454.8861 106.144,462.2628 102.1805,471.0172 100.9919,474.5724 100.6632,476.9828 102.2369,474.9119 110.2952,461.3708 116.0975,453.4044 125.0806,443.4288 140.2982,428.5237 136.4372,431.138 130.3213,436.1343 123.5229,442.3726 119.3276,446.7911 115.5537,451.3764 112.1342,456.1919 102.1661,472.0063 100.0311,474.3393 99.1573,474.8727 98.4419,474.9628 97.9025,474.6144 97.5491,473.8474 97.561,469.4612 98.7756,463.3159 102.3163,451.1181 102.705,449.1187 102.5888,447.8318 102.3152,447.4444 101.3066,447.1507 97.5631,448.2384 93.8721,450.2363 90.5646,453.2609 89.2075,455.9521 88.9052,459.1539 89.2187,460.9078 90.805,464.59 93.4908,468.2507 96.8223,471.5159 101.7934,474.8524 104.4475,475.6493 106.2961,475.1752 106.8845,474.4744 107.36,472.2853 106.8886,469.3629 106.3045,467.7632 104.4832,464.5357 101.8914,461.4983 98.7293,458.7999 95.3206,456.5069 88.5805,452.6667 87.7605,451.7788 88.4446,451.1391 92.1794,450.5623 102.2736,450.7007 107.7808,451.752 110.4814,453.0522 111.4766,453.9056 112.2157,454.8959 112.8923,457.2525 112.49,459.9784 111.0478,462.8257 108.6523,465.4695 107.1315,466.6031 103.544,468.2678 101.5383,468.7168 97.3135,468.7115 95.2008,468.2442 91.2802,466.4468 88.1855,463.6679 87.0873,461.9913 86.3429,460.172 85.9763,458.247 85.999,456.2505 86.4085,454.2124 87.1844,452.1573 89.6587,448.0639 96.4148,440.3381 102.1261,434.5466 104.0961,432.9799"/>
    <polyline points="86.9357,347.8602 87.4043,345.1513 89.2309,340.1618 91.9886,335.8286 95.2846,332.1343 98.7266,329.1597 102.0056,327.1368 104.9243,326.2992 107.3895,326.7133 108.4542,327.3522 110.299,329.3476 111.841,332.1085 113.1502,335.4989 117.7013,354.6549 119.8246,361.9238 121.4849,365.3358 122.3913,366.3865 123.3422,366.9342 124.3285,366.9606 125.3385,366.4719 126.3629,365.4911 127.3943,364.0567 129.4409,360.0445 132.1839,352.1721 133.7805,343.7602 133.83,338.6146 133.0123,334.1171 131.4246,330.396 130.3919,328.8788 127.9606,326.6292 126.6091,325.9184 123.7568,325.3154 122.2978,325.3956 119.3792,326.2122 115.0699,328.6486 106.4494,335.062 101.8958,338.0442 93.5265,342.3928 90.9741,343.4277 90.3071,343.4395 91.5271,341.7964 99.7588,334.0009 103.2939,329.2234 104.3425,326.8634 104.9615,323.5351 104.7521,320.5524 103.9785,316.6798 104.1845,315.7179 105.25,316.3346 110.7044,321.6709 115.185,325.4162 125.6802,332.4922 127.1074,333.8215 127.8101,335.1553 127.6862,336.4679 127.3068,337.0884 124.9753,338.715 121.263,340.052 114.2862,341.8864 110.535,342.4291 106.4981,342.3867 103.8194,341.7692 102.3131,340.5082 102.4046,339.7303 103.5592,339.0865 114.6533,336.6249"/>
    <polyline points="135.4769,244.8449 135.2542,239.4723 134.6835,236.6729 132.7245,231.2222 129.8979,226.3357 128.2559,224.1839 124.6915,220.5032 120.9298,217.6356 115.1984,214.7758 109.5082,213.3051 97.9012,211.6436 95.8943,210.9524 94.8249,210.0529 94.6452,209.5305 94.9331,208.3858 96.6585,206.6495 100.0165,204.9214 102.649,204.4422 101.4375,204.9021 98.2576,204.6618 85.5466,201.885 86.8454,202.9795 91.531,205.2783 101.0888,208.8892 108.7546,210.6438 113.5112,210.8874 115.7393,210.7017 119.8686,209.7576 124.9732,207.2245 127.361,205.129 128.7623,203.0311 129.115,201.2224 128.4007,199.9649 126.6422,199.4704 125.4007,199.5487 122.3186,200.3558 116.6939,202.9622 106.061,209.2152 99.7317,212.4261 94.7462,214.1023 92.7698,214.3141 92.1637,213.9541 93.8623,212.6449 98.0005,210.7252 103.2271,208.8395 106.614,208.1095 109.5625,208.0945 110.8213,208.385 111.9254,208.8764 113.6745,210.4431 114.8661,212.7088 115.8175,217.0694 115.9501,222.0291 115.448,227.1802 114.4285,232.1839 112.9342,236.4427 111.2506,239.1427 110.71,239.5633 109.6831,239.6105 108.2595,237.8106 106.9109,234.1638 103.82,222.73 102.349,215.1775 101.7591,209.6225 101.6174,203.9494 102.2679,196.3718 103.2037,193.0006 103.7883,192.0671 104.428,191.6887 105.1047,191.8652 105.8015,192.5725 107.2033,195.3933 109.2358,202.0598 114.6533,223.2391"/>
    <polyline points="82.725,136.0151 82.3199,135.2828 82.5836,134.2248 85.0119,131.2746 89.5103,127.5065 107.3518,114.7245 114.7032,108.8534 119.9347,103.6754 122.1815,100.7153 123.4039,98.3316 123.6313,97.4188 123.3429,96.2595 122.8431,96.0368 121.2135,96.305 117.6802,98.2866 107.4756,106.2387 104.9282,107.1642 103.9264,106.7556 103.5157,105.5389 103.8585,102.2825 106.2445,93.8498 107.7875,90.1315 109.6261,86.8401 111.6161,84.4478 112.6091,83.7168 114.4788,83.3516 115.3217,83.7448 116.7816,85.6505 118.3746,90.8414 119.118,97.6974 118.6134,104.9974 117.3864,109.7465 115.386,114.3711 112.5773,118.9208 108.8821,123.3142 104.2357,127.2893 98.6969,130.4524 95.6767,131.6131 92.5759,132.4534 86.5044,133.1386 81.368,132.5749 79.4557,131.8892 78.1245,130.9792 77.4507,129.8822 77.4728,128.637 78.1935,127.2827 79.5838,125.8579 84.1013,122.9447 93.5591,118.8736 114.12,112.1194 116.3327,111.2815 117.6551,110.3919 117.5333,110.0328 116.8478,109.8205 110.4492,109.1273 107.3608,107.9888 104.4255,105.5675 102.8003,102.9272 101.2407,97.219 100.9569,89.955 101.466,85.041 102.4396,80.9138 103.7137,78.3139 104.4088,77.7623 105.1214,77.7571 105.8431,78.304 107.3094,80.9879 113.4673,100.8276 115.9373,106.9855 118.9486,112.7162 122.5205,118.0839 128.6325,125.4149 132.7867,129.5268 136.4688,132.6377 139.1362,134.4308 140.3563,134.7482 139.2566,132.6998 133.5917,126.8329 114.6533,109.8532"/>
    <polyline points="228.0392,109.8532 218.7899,102.6076 207.013,91.9668 198.9049,83.5454 195.4772,79.3931 194.4324,77.5045 196.0062,78.4433 197.7018,79.9972 202.4887,84.9775 211.511,95.5189 217.6065,103.3435 223.1914,111.1602 228.0905,118.8258 238.8686,137.7455 240.9835,140.675 241.6802,141.1868 242.1083,141.0212 242.2542,140.1802 241.6946,136.6707 239.0076,128.3462 234.8818,119.0187 229.9894,110.6787 226.406,106.1599 224.5163,104.279 220.5762,101.4074 216.5298,99.9222 214.53,99.7621 212.5928,100.0094 210.7612,100.6646 209.0864,101.7073 207.624,103.0987 206.4282,104.7889 205.5459,106.7258 205.0111,108.8632 205.04,113.6121 206.4835,118.7806 207.6622,121.4137 210.6879,126.499 214.2085,130.9293 217.7141,134.2231 219.32,135.3128 220.7727,135.976 222.0444,136.1841 223.114,135.9218 223.9665,135.1893 224.5922,134.008 225.1477,130.4811 224.3159,123.3134 221.975,115.7717 218.832,109.1834 211.8359,97.9916 210.0426,95.612 209.2846,95.0592 210.6949,97.1841 214.7081,101.1737 216.4163,102.1925 217.3655,102.0566 218.1538,101.1564 218.8217,99.461 222.4873,85.5474 224.2547,82.3169 225.6205,81.7498 226.3603,82.0084 227.9489,83.5225 234.5427,93.4029 239.2399,99.1802 237.9504,98.6708 228.6665,93.0208 224.9833,91.3541 221.0086,90.1833 216.9423,89.6629 213.1106,89.8361 209.9505,90.6614 207.9471,92.0533 207.5126,92.9395 207.5071,93.9395 207.9513,95.0362 210.179,97.4053 213.9913,99.7502 218.9975,101.7477 224.8106,103.1448 231.2024,103.7982 238.0764,103.6353 241.6123,103.2403"/>
    <polyline points="339.7079,103.0855 333.389,107.8371 316.3426,118.1393 313.3481,120.811 313.1272,121.4453 313.3101,121.9322 313.8799,122.2644 316.0423,122.4561 322.9165,121.1867 329.863,118.6677 333.5622,116.2326 335.1602,114.2777 336.1882,112.0098 338.8954,98.9471 340.7549,93.271 342.4817,90.0966 343.4947,88.828 345.8,87.1109 347.0801,86.7197 348.4374,86.665 351.3703,87.5706 354.5602,89.7164 357.8952,92.7852 362.6659,98.0685 366.1993,102.7887 367.3234,105.1424 367.2229,106.6746 366.7072,107.1055 364.8421,107.2828 360.5801,105.8626 355.8132,102.5079 352.9989,99.3173 350.7943,95.5586 348.8867,89.5498 348.6124,84.5411 349.1967,82.6218 349.6815,82.2234 350.2779,82.2232 351.7576,83.3889 353.5492,85.9121 360.7227,99.2178 362.6577,103.9873 362.8097,106.2931 362.469,107.1756 360.9241,108.4381 356.6361,109.2681 348.7092,109.001 333.9503,107.3373 331.5256,107.8154 330.8558,108.652 330.8338,109.2407 331.4078,110.7704 333.6672,113.9904 348.4956,131.6157 351.816,134.8849 354.9211,137.245 357.5418,138.2928 358.5548,138.2476 359.3068,137.8165 359.7615,137.0153 359.7145,134.4417 358.4331,130.8776 356.0901,126.707 352.8727,122.3106 348.9192,118.0325 341.8612,112.3512 336.4214,109.2042 333.449,107.837 330.3077,106.6184 323.6278,104.6725 313.7453,103.0518 308.6773,102.7559 307.0045,102.7962 305.8136,103.1684 307.566,103.8451 311.8649,104.7569 341.425,109.8532"/>
    <polyline points="454.8108,109.8532 450.6295,109.3068 445.0567,108.0826 433.3814,104.535 429.3159,102.7916 426.5087,101.044 425.4489,99.4823 425.6475,98.84 427.4475,97.9842 430.7666,97.8759 434.9959,98.6337 439.542,100.2621 443.9786,102.6936 446.0713,104.1828 449.8991,107.6584 451.5979,109.626 453.1343,111.7398 455.7002,116.3864 458.3609,124.1061 459.397,129.2312 459.8459,133.7055 459.6929,136.9218 458.9549,138.3531 458.3793,138.3021 456.8426,136.6802 448.2407,122.5328 440.1951,111.9625 439.2468,110.317 439.6439,110.0331 440.7877,110.3008 444.8502,112.2296 460.4389,122.2648 465.5353,125.1121 468.6011,126.1718 469.9487,126.3351 472.1361,125.8101 472.9295,125.1088 473.8276,122.882 473.9117,121.4052 473.7488,119.7275 472.7138,115.8985 458.4292,84.9102 457.8006,84.0293 458.0811,86.514 459.2134,90.3628 461.1584,95.2909 463.8939,100.6714 469.2871,108.6744 480.7869,122.1047 482.7195,124.8236 483.0331,125.684 482.8823,126.1873 482.2743,126.3244 479.8347,125.504 474.047,121.8026 469.5473,118.1279 465.0502,113.9322 458.9725,107.1428 455.63,102.3469 451.8341,95.0486 450.1349,90.5842 449.1279,86.9336 448.8283,84.481 449.219,83.4325 449.6522,83.4277 450.9269,84.3274 458.377,92.6154 467.2275,100.5784 468.9699,102.5623 470.002,104.6317 470.2065,106.8777 469.0032,110.69 466.4236,115.2444 460.6414,124.0194"/>
    <polyline points="546.8419,97.067 544.9756,98.5122 544.614,99.5165 545.163,100.4609 546.6708,101.2624 549.0251,101.7827 551.9879,101.8703 555.2788,101.4473 558.6336,100.5272 563.3608,98.3096 566.1955,96.2595 568.8526,93.6941 575.405,86.0616 578.0134,83.6631 580.5158,82.377 581.6981,82.2404 582.8193,82.4552 584.8282,83.8913 585.6858,85.0571 587.0085,88.0714 587.6349,91.636 587.6275,93.4803 586.9209,97.0144 586.235,98.604 585.3553,100.016 583.1435,102.1666 581.8807,102.8546 579.1939,103.3937 576.4687,102.8258 573.8913,101.2428 571.6004,98.8277 569.6881,95.8873 566.0558,87.2678 565.5964,89.9842 565.4566,94.7422 565.9187,105.5968 567.0108,115.3902 568.7407,123.2519 570.5151,128.4695 572.8249,133.233 574.1867,135.2817 577.3151,138.3546 579.059,139.2475 580.8878,139.644 582.7603,139.5189 584.6267,138.8684 586.4324,137.7106 588.1214,136.0858 590.9473,131.6945 592.0028,129.0894 593.2599,123.4749 593.2882,117.7515 592.1248,112.2087 591.1595,109.5304 588.673,104.3179 581.6381,92.8095 578.726,88.7766 577.8169,88.0243 578.1163,89.8219 579.3965,92.621 582.7719,98.1485 587.3592,103.8873 594.2557,111.3149 595.6707,113.7708 595.5209,114.178 595.0643,114.3558 594.3202,114.2907 592.1078,113.3965 589.2542,111.4623 586.1938,108.4766 583.3234,104.4068 582.0679,101.968 580.098,96.3709 579.0406,90.1132 578.9048,86.9184 579.4576,80.9169 580.1432,78.3602 581.0888,76.2719 582.2756,74.7665 583.6769,73.9232 585.2579,73.7752 586.975,74.3107 588.7765,75.4849 592.3902,79.4356 595.5569,84.8166 596.7893,87.7465 598.2314,93.523 598.3561,96.1846 598.0619,98.6068 597.3603,100.7577 596.2816,102.6298 593.1834,105.5875 591.2767,106.7175 587.048,108.3961 582.6785,109.4321 578.5994,109.9718 572.3256,110.1939 568.1966,109.8532"/>
    <polyline points="665.9256,91.3634 668.9224,88.3465 669.8839,86.7568 670.0662,85.8927 669.2145,86.4492 667.5932,89.3661 665.3592,96.2052 664.4355,102.6093 664.6185,109.2617 665.8011,115.7174 668.5805,123.6341 670.3044,126.9065 672.0797,129.4152 673.7636,130.9979 675.2655,131.5547 676.6031,130.9997 677.9172,129.2745 683.3216,118.3586 687.3917,111.6539 692.3438,105.1465 702.0309,93.6903 703.8406,91.063 704.3124,89.5034 703.9932,89.204 702.2418,89.6211 697.1433,92.605 665.0805,115.5216 658.4457,120.5946 652.8703,125.7772 650.8282,128.2887 649.4505,130.6558 648.8171,132.8004 648.9548,134.6445 649.8451,136.1194 651.4328,137.1729 653.6312,137.7724 656.3315,137.9079 659.4139,137.5888 666.2464,135.6895 673.2308,132.3638 679.691,128.0121 685.2883,123.1153 691.8836,115.686 694.9418,111.0057 696.7601,106.525 697.174,104.321 697.0259,99.9721 695.6834,95.7979 693.3294,92.0271 691.8373,90.3877 688.3769,87.8172 686.4833,86.9716 682.5585,86.3207 678.6449,87.1187 676.7492,88.0311 673.2068,90.7031 671.6209,92.3568 668.9921,95.9869 668.0155,97.8344 666.8673,101.3018 666.8907,104.1584 667.3557,105.2721 668.119,106.1456 669.171,106.7638 670.4971,107.1177 673.8927,107.0378 680.5277,105.1053 685.8089,102.7792 694.6847,98.0596 703.4397,92.4484 708.093,88.7542 710.9412,85.6229 711.5182,84.4203 711.4925,83.5342 710.8751,83.015 709.7023,82.902 708.0311,83.2182 703.4866,85.14 697.8638,88.5727 679.3955,102.3165 673.365,106.2714 664.6953,110.6126 659.7337,112.3889 654.4883,113.8458 681.5825,109.8532"/>
    <polyline points="242.5924,216.1276 237.9516,213.9063 235.8008,212.4152 232.0238,208.7783 230.4452,206.7077 227.9639,202.3596 226.3753,198.2888 225.5436,193.8855 226.0581,194.5248 227.7663,199.0637 233.0957,215.6333 235.5919,224.6183 237.2657,233.3922 237.6559,241.503 236.997,245.8973 235.5187,248.8989 234.4812,249.7467 233.2656,250.1242 231.8957,250.0362 228.7964,248.5777 225.3513,245.732 221.6458,241.9633 211.9224,231.1281 207.1315,225.263 205.1537,221.9714 204.4588,219.1751 205.1063,216.8732 206.991,215.1105 209.8908,213.9732 211.6319,213.6749 215.5036,213.6853 219.6465,214.5448 223.8079,216.2193 227.8233,218.5974 231.6313,221.565 235.1954,225.0989 238.4212,229.294 241.1636,234.1847 242.2999,236.8375 243.9945,242.2708 244.8089,247.2703 244.6955,251.0054 244.3041,252.1711 243.705,252.7904 242.9156,252.8415 240.8612,251.2821 238.3788,247.7614 235.7353,242.8199 229.7107,228.492 222.9585,209.2915 220.4625,204.9639 218.6411,203.6452 217.6858,203.5047 216.7109,203.7008 214.7669,204.9922 212.2641,208.4535 211.2394,211.0812 210.9377,213.4751 211.3809,215.3101 212.4849,216.3033 214.1335,216.2551 216.2083,215.0914 218.5796,212.8487 221.126,209.5988 229.2209,196.1894 232.1263,192.4007 233.6495,191.0696 235.2218,190.2233 236.8357,189.912 238.4739,190.1537 240.1062,190.9384 241.6891,192.2288 244.4842,196.0709 246.3949,201.0627 246.8967,203.7898 246.8649,209.3616 246.3223,212.0973 244.232,217.2814 240.932,221.9705 236.6213,226.2316 228.6428,232.1538 222.394,235.7838 215.4298,238.9931 208.0666,241.5838 200.9874,243.3611 197.8557,243.8799 193.095,244.0804 191.7145,243.7514 191.1145,243.1464 191.3194,242.2819 192.3105,241.1808 199.2771,236.7722 213.1649,229.8842 228.0392,223.2391"/>
    <polyline points="216.4178,317.6409 206.6764,325.7459 201.323,330.7954 196.7636,336.1636 195.0841,338.9252 193.9468,341.7305 193.4252,344.5619 193.5548,347.3888 194.3373,350.1665 195.7443,352.837 197.7151,355.3294 200.1625,357.5644 202.9818,359.4613 206.0617,360.9475 209.2954,361.9671 212.5891,362.4882 215.8689,362.5026 219.0835,362.0218 222.2024,361.0718 225.2126,359.6919 230.9173,355.8493 236.2215,350.9746 243.041,342.8701 246.4213,337.484 248.6513,332.2387 249.7224,327.1347 249.8579,324.6794 249.44,320.1538 248.9413,318.1814 247.5351,315.0756 246.7146,314.0362 245.1022,313.1452 244.4215,313.3075 243.8919,313.8574 243.5528,314.7676 243.4293,316.0035 243.8481,319.2945 245.0324,323.3709 249.0318,334.548 249.9304,338.7149 249.889,342.5356 249.4647,344.286 247.8384,347.4068 245.3675,349.9681 242.3443,351.9029 239.0362,353.1211 237.3547,353.4368 234.0762,353.4656 231.05,352.7393 227.1809,350.6091 224.2682,348.0136 223.0501,346.4592 222.5908,345.3217 222.964,344.8029 224.1135,345.0396 226.9524,346.921 230.7741,350.6639 241.9731,363.1559 245.0117,365.6644 246.3367,366.4064 248.4122,366.6958 249.1035,366.2501 249.5391,365.4474 249.7137,364.3309 249.3164,361.3504 247.2549,355.7715 242.3866,345.3868 241.9655,343.138 242.1107,342.3072 243.0554,341.2669 243.7883,341.0684 245.542,341.3179 247.3534,342.3762 248.875,344.1358 249.8305,346.4851 250.0381,347.841 249.5123,352.3255 248.3349,355.2092 246.6976,357.5129 244.7662,358.9038 243.7385,359.1985 242.6956,359.2171 240.6485,358.4486 239.6884,357.6847 237.995,355.4867 236.2983,350.8986 235.9715,347.3463 236.1223,345.5093 237.1555,341.8006 239.189,338.0745 248.834,325.7456 252.9813,318.6895 254.4107,314.2095 254.5985,312.2286 254.4191,310.5165 253.8863,309.1439 253.0303,308.1726 251.893,307.6485 250.5214,307.5963 248.962,308.0183 245.4599,310.1981 241.7527,313.831 238.176,318.3652 234.9918,323.2119 231.2659,329.8912 228.0392,336.6249"/>
  </g>
</svg>
