<?xml version="1.0" encoding="utf-8" ?>
<svg xmlns="http://www.w3.org/2000/svg" xmlns:cc="http://creativecommons.org/ns#" xmlns:dc="http://purl.org/dc/elements/1.1/" xmlns:ev="http://www.w3.org/2001/xml-events" xmlns:inkscape="http://www.inkscape.org/namespaces/inkscape" xmlns:rdf="http://www.w3.org/1999/02/22-rdf-syntax-ns#" xmlns:sodipodi="http://sodipodi.sourceforge.net/DTD/sodipodi-0.dtd" xmlns:xlink="http://www.w3.org/1999/xlink" baseProfile="tiny" height="29.7cm" version="1.2" viewBox="0 0 793.7007874015749 1122.5196850393702" width="21.0cm">
  <metadata>
    <rdf:RDF>
      <cc:Work>
        <dc:format>image/svg+xml</dc:format>
        <dc:source/>
        <dc:date>2022-05-22T14:55:16.816656</dc:date>
      </cc:Work>
    </rdf:RDF>
  </metadata>
  <defs/>
  <g fill="none" id="layer1" inkscape:groupmode="layer" inkscape:label="1" stroke="#00f" style="display:inline">
    <polyline points="275.7724,926.0925 268.4305,925.7555 259.6526,926.5297 253.2992,928.0078 246.591,930.7681 242.448,933.5656 240.8373,935.116 239.0388,937.5808 238.014,940.1549 237.7734,941.8981 238.0872,944.5014 238.7483,946.1982 240.4159,948.6319 242.8823,950.869 246.1219,952.8421 250.0927,954.4898 254.7337,955.7592 259.9633,956.6091 265.6813,957.0148 271.7671,956.9691 278.0779,956.4826 284.4492,955.5819 290.6965,954.3085 298.4871,952.1261 305.2122,949.5354 309.2727,947.4315 313.0489,944.5628 314.4855,942.4674 314.7337,941.1402 314.4033,939.8942 313.4958,938.7497 312.0214,937.7255 307.4545,936.1054 302.7346,935.3205 294.9727,934.9157 285.8789,935.2891 275.8518,936.4549 267.9517,937.8377 251.7938,941.8058 235.877,947.099 223.169,952.1802 194.8684,964.5686 181.6569,969.5272 175.3277,971.4145 169.2387,972.8203 159.7817,973.9646 154.6312,973.8864 151.4592,973.5105 147.145,972.4688 143.4191,970.877 141.2886,969.53 138.6526,967.1203 136.7087,964.3022 135.4596,961.1515 134.8853,957.7523 134.9418,954.1946 135.5642,950.5714 137.1287,945.8001 139.3136,941.2952 142.5044,936.352 145.6818,932.5207 148.7041,929.8557 149.9949,929.5684 149.949,930.7584 146.4874,937.2325 118.5113,978.2131 110.5737,990.5059 105.0263,999.7557 100.6933,1007.8261 98.4839,1012.7512 97.3113,1016.4745 97.2554,1018.8423 97.8547,1019.6237 99.6991,1019.5882 102.6293,1018.1532 106.5503,1015.4369 114.9119,1008.573 139.7196,986.8216 151.6299,977.5406 156.8256,974.1673 161.3152,971.8711 164.9751,970.7677 166.9027,970.7295 168.9642,971.7375 169.7573,973.1161 170.0692,975.0464 169.8908,977.5075 168.0467,983.8934 164.2264,991.9226 160.1013,998.7234 156.7811,1003.4817 151.0077,1010.7266 146.6796,1015.4815 142.0182,1020.0525 137.0758,1024.3321 131.9137,1028.2148 126.6022,1031.6011 121.2203,1034.4013 115.8551,1036.5394 110.6006,1037.9564 105.5559,1038.613 103.1441,1038.6498 98.6052,1038.139 94.5294,1036.8613 91.0116,1034.8463 88.1376,1032.1408 85.9804,1028.8063 84.5967,1024.9178 84.0248,1020.5608 84.2819,1015.8291 85.3668,1010.8217 87.2613,1005.6403 89.931,1000.3864 95.277,992.5851 99.6392,987.5724 104.5486,982.8092 109.9172,978.3704 115.6515,974.3217 121.6547,970.7182 127.83,967.6047 137.2097,963.9257 143.4108,962.1652 149.4743,960.9705 155.3258,960.3408 160.8986,960.2666 166.1342,960.7298 170.9817,961.7058 175.3982,963.1637 179.3477,965.0665 182.8008,967.371 187.0001,971.4708 189.1211,974.5495 190.6849,977.8304 191.6837,981.2436 192.1127,986.448 191.2549,991.517 189.1106,996.178 185.6835,1000.1644 180.9838,1003.2318 175.0333,1005.1751 167.8727,1005.8414 159.5697,1005.1397 153.4505,1003.8944 143.5049,1000.8722 132.8188,996.5228 121.6571,990.9548 110.3574,984.3157 99.3277,976.7809 92.3523,971.3541 82.8213,962.7529 77.3029,956.7939 72.6159,950.7174 68.8843,944.5727 66.2113,938.404 65.2968,935.3229 64.3452,929.1888 64.3153,926.1431 64.5842,923.1159 66.0129,917.1269 67.1664,914.1692 70.3247,908.3347 72.3147,905.4595 77.0693,899.7943 85.9633,891.5037 92.9095,886.103 100.5285,880.7905 112.9381,872.9724 130.6405,862.8367 153.2842,850.7514 183.3039,835.5346 202.2725,826.5272 215.649,820.8373 227.4109,816.7484 235.1698,814.8324 239.8221,814.1239 245.9896,813.9167 251.1418,814.7094 255.2329,816.4451 257.3524,818.0867 259.6032,821.202 260.7366,824.9981 260.7701,829.3479 259.7429,834.1167 257.7106,839.168 254.7418,844.3682 250.9157,849.5914 246.3178,854.7224 241.0361,859.6597 235.1559,864.3166 228.7555,868.6223 221.9016,872.5212 217.1063,874.8736 207.0185,878.9484 193.5708,882.8158 179.4784,885.3193 170.9412,886.1909 162.5516,886.6167 154.5245,886.6249 147.105,886.2474 138.6157,885.2022 133.6468,884.0564 130.1498,882.6386 128.3272,880.9818 128.1162,879.7602 128.3229,879.1176 130.2175,877.0756 134.0388,874.8822 137.6493,873.3476 144.6209,870.9527 153.3888,868.4614 175.9382,863.2419 204.6659,857.7612 239.6391,852.0479 273.8499,847.1119 350.5111,836.7837 385.2021,831.4484 401.4176,828.2304 409.4704,826.0924 414.94,823.9703 416.6349,822.9183 417.6133,821.8741 417.8681,820.8392 417.3997,819.815 416.2135,818.8031 411.7334,816.8222 404.564,814.908 394.9102,813.0711 369.2511,809.6643 337.3411,806.6579 293.0054,803.5093 239.8138,800.6288 177.9538,798.1626 119.4473,796.6042"/>
    <polyline points="230.3722,552.371 301.1047,560.5145 335.1456,564.7179 359.8521,568.4086 365.8712,569.7658 367.0249,570.472 363.9266,570.9063 355.8374,570.6605 343.6116,569.6315 332.4501,568.2906 311.7017,564.8769 298.8133,562.0795 290.3135,559.89 273.9957,554.7116 266.3336,551.7148 259.0796,548.4413 252.2731,544.8873 245.9416,541.051 237.3697,534.7724 232.2824,530.2489 227.697,525.4713 223.6088,520.4602 220.0097,515.2424 216.8902,509.8515 214.2396,504.3279 212.0467,498.7187 209.5926,490.2627 208.5,484.6857 207.6568,476.5767 207.747,468.9892 208.7474,462.1695 210.6317,456.3598 212.3645,453.1596 215.6556,449.5163 218.2969,447.9305 221.2826,447.0641 224.5989,446.9432 230.1561,448.1881 234.2193,449.964 238.5403,452.4725 243.0891,455.6771 247.8317,459.5289 257.7366,468.9316 267.8843,480.1389 277.8333,492.5768 287.0863,505.7092 293.2544,515.7411 298.519,525.7634 302.6781,535.6694 305.5561,545.3917 307.0138,554.8996 306.9561,564.1776 306.0517,570.2157 303.4024,579.0016 300.8016,584.6386 297.5705,590.0619 293.7526,595.2356 287.0398,602.4442 281.9922,606.824 273.7166,612.6558 264.7804,617.4909 258.5535,620.105 248.9397,623.0446 242.4133,624.3214 235.8356,625.0383 229.2346,625.1916 222.6306,624.7855 212.744,623.1577 206.1713,621.4281 196.3497,617.9523 186.6139,613.547 173.9085,606.5142 161.7768,598.5416 150.5751,590.0401 140.7071,581.3792 132.5828,572.8644 129.2934,568.7373 126.5736,564.7282 124.4565,560.8544 122.9675,557.1296 121.9466,551.8416 122.395,546.9293 124.2822,542.4024 126.2988,539.6039 128.8781,536.9863 131.9723,534.5548 135.5267,532.3153 143.7742,528.4369 153.1176,525.3996 163.0614,523.2476 173.1607,522.0163 183.0465,521.7294 192.435,522.3974 201.1239,524.0146 207.0997,525.8377 214.2797,529.0553 220.5171,533.1287 225.7654,537.9929 229.9624,543.5726 233.0388,549.7926 234.9263,556.585 235.5639,563.8647 234.9013,571.5078 232.9036,579.3505 229.5553,587.1917 226.1559,592.9333 220.4399,600.2027 215.262,605.2249 211.3809,608.309 207.1514,611.1469 200.1531,614.8816 192.389,617.9163 183.9106,620.184 174.8062,621.6373 165.205,622.2512 155.2786,622.0242 141.9116,620.4579 132.1186,618.4045 119.9134,614.6457 114.3746,612.3935 109.3277,609.935 102.8575,605.9326 97.9232,601.6514 94.719,597.1983 93.6108,594.1833 93.3503,591.1626 93.9418,588.1602 95.3714,585.1978 97.6058,582.2951 100.5934,579.4701 104.2667,576.7391 108.5459,574.1166 113.342,571.6156 121.2978,568.1167 135.7921,563.0353 153.5406,558.3084 169.9221,555.1931 177.1994,554.2627 185.7355,553.6819 192.8213,553.8555 198.3958,554.7742 202.4472,556.4151 204.9896,558.7417 205.7002,560.1482 206.039,561.7081 205.6031,565.2582 203.6825,569.3234 201.2715,572.6607 196.779,577.4155 192.4746,581.1474 185.5508,586.2392 179.5378,590.0647 170.5748,595.0469 163.283,598.6028 155.6562,601.9237 145.2604,605.8639 135.0385,609.1022 125.5178,611.491 117.2521,612.8858 112.1991,613.1991 109.49,613.0316 107.3689,612.5492 105.3798,611.2164 104.9075,609.1389 105.4597,607.3393 106.704,605.2121 109.8256,601.4229 120.0808,591.8324 150.565,566.0894 166.9899,550.797 174.7913,542.679 182.1245,534.2789 188.8789,525.6514 194.968,516.8865 201.9384,505.2061 207.489,493.8867 211.5305,483.3844 212.9618,478.5945 214.3476,472.1623 214.794,466.8122 214.555,463.9369 213.8769,461.6692 212.7528,460.0469 211.1772,459.0989 209.1464,458.8442 206.6593,459.2913 203.7176,460.4371 198.4649,463.4262 192.2365,467.8446 185.092,473.5446 174.3011,482.8268 146.468,508.5337 127.482,527.6599 115.9247,540.8031 110.7417,547.4578 106.0696,554.1708 100.1887,564.36 95.8597,574.6801 93.9227,581.6081 92.7861,588.5453 92.5244,592.007 92.6183,598.8915 92.9727,602.303 94.2837,609.0328 96.3661,615.5907 99.1657,621.9143 102.6116,627.9364 106.6194,633.5867 111.0948,638.7935 115.9371,643.4859 121.0429,647.5958 126.3089,651.0602 131.635,653.8228 136.9259,655.8364 142.0931,657.0638 147.0557,657.4797 151.7409,657.0712 153.9589,656.5576 158.1096,654.9205 161.8364,652.4946 165.094,649.3226 167.844,645.461 170.0538,640.9774 171.6964,635.9474 172.7496,630.4518 173.196,624.5731 173.0224,618.3932 172.2201,611.9907 170.7874,605.4386 168.7295,598.8038 164.5005,588.8223 158.9727,578.9473 152.267,569.2981 144.5507,559.9518 138.9497,553.9098 130.0518,545.1372 94.5225,513.6375 87.4093,506.8552 81.6783,500.6418 77.5959,495.0751 75.357,490.2302 74.9464,487.4351 75.071,486.1745 75.9763,483.9364"/>
    <polyline points="313.1887,283.1397 270.0665,280.876 225.0103,278.0186 173.574,274.2115 127.2771,270.3416 97.1538,267.4396 72.9748,264.5735 57.7053,261.8951 54.6049,260.9113 53.3578,259.9914 53.4422,259.5581 54.0002,259.1441 56.5213,258.3774 66.8535,257.1144 83.1408,256.2536 109.1731,255.8028 132.287,255.9749 155.7604,256.6347 178.5301,257.7795 200.0049,259.3906 219.9999,261.4325 238.583,263.8531 255.7267,266.5832 271.213,269.5321 287.7137,273.3401 300.3222,277.0106 308.3558,280.2169 310.7917,281.7794 311.399,282.9884 310.2104,283.7842 308.4663,284.0604 301.1378,283.781 290.4227,282.0491 280.2327,279.6329 269.2781,276.3777 260.8925,273.4561 249.8513,269.0409 239.2911,264.1885 227.1365,257.7833 216.3959,251.3234 203.9296,242.778 194.6245,235.4335 188.8245,229.7772 187.5125,227.9489 186.9475,226.501 186.9984,225.7518 187.3985,225.1779 188.6617,224.6509 190.7233,224.5326 193.5771,224.8342 201.5996,226.7468 210.5517,229.7301 221.4974,234.0173 234.3768,239.6081 248.9787,246.4396 264.8612,254.3606 281.3188,263.109 294.2615,270.4491 306.3797,277.8273 314.551,283.2228 321.6445,288.3689 327.4189,293.1491 331.6698,297.4526 334.2443,301.179 335.0526,304.2429 334.9241,305.1049 334.0755,306.578 332.4592,307.7073 328.688,308.7424 323.4841,308.9871 317.1076,308.4651 309.8547,307.2261 302.0342,305.3446 293.9468,302.9151 285.8691,300.0458 270.673,293.452 263.9174,289.9577 256.0725,285.3318 249.7301,280.9387 245.0022,276.9482 241.9389,273.483 240.5471,270.6198 240.5871,268.8901 241.1202,267.9375 242.0491,267.1432 245.0489,266.0123 249.4709,265.4489 255.1563,265.3852 261.8989,265.7393 293.8844,269.0311 306.6911,269.7133 312.6363,269.4223 317.2239,268.4907 320.2437,266.8487 321.4019,265.1355 321.6349,263.7678 321.183,261.3943 319.8055,258.6666 317.5737,255.6331 314.5881,252.3535 309.6505,247.7163 299.3246,239.3744 285.3901,229.598 278.3968,225.2974 273.5279,222.7058 269.4501,221.0219 266.9668,220.4315 264.4722,220.6331 263.2349,221.5802 262.4467,223.9641 262.6456,227.6683 263.802,232.7026 265.8417,239.0354 270.2906,250.76 287.77,294.0484 296.9108,318.47 286.8713,283.6492 279.6463,254.1033 277.2485,242.0707 275.3355,230.2678 273.9932,218.7879 273.2678,207.634 273.1696,196.7407 273.8976,183.4359 275.4754,170.5969 277.7392,158.539 281.0499,145.7632 284.5757,135.7311 286.2643,132.0318 288.2992,128.6757 289.5872,127.4226 290.3028,127.2085 290.8875,127.4933 291.493,128.8408 291.7013,130.3295 291.6175,134.608 290.5453,142.0235 288.9306,149.1884 286.7008,157.0468 283.9415,165.2404 280.7597,173.4489 276.3689,183.3289 272.6719,190.6812 268.0022,198.9487 263.4489,206.0293 259.1498,211.828 255.1891,216.2876 252.2822,218.8427 248.9527,220.6997 246.4892,221.0655 244.1496,220.3984 241.3097,218.0814 238.4519,214.1121 235.4637,208.5154 230.1866,196.2944 211.7956,148.9972 206.3514,136.7162 202.0808,128.4785 198.3257,122.8616 196.4359,121.0067 195.3646,120.4616 194.0836,120.7255 193.4707,121.6337 192.95,124.0839 192.8883,126.4194"/>
    <polyline points="566.12,251.6783 510.2931,222.6451 495.412,214.5823 481.3265,206.0709 473.7873,200.7645 469.3117,197.1474 463.6161,191.6128 460.5991,187.8598 457.3931,182.1586 456.2059,178.3289 455.8211,174.4948 455.9373,172.5821 456.7958,168.7786 458.4884,165.0238 461.0003,161.3431 464.3014,157.7635 468.3482,154.3137 473.0862,151.023 478.4529,147.9214 484.3809,145.0383 490.8008,142.4025 497.6446,140.041 504.8477,137.979 512.3518,136.2386 520.1063,134.8387 528.0699,133.7945 536.212,133.1166 552.9639,132.8802 570.3329,134.1201 579.2462,135.2671 592.8433,137.5925 606.5855,140.5647 620.264,144.0778 633.605,148.013 650.2991,153.6986 661.5289,158.1284 671.2429,162.5658 679.0985,166.8999 683.1573,169.6826 687.3107,173.6313 688.7257,176.0805 689.0336,178.3604 688.7728,179.4317 687.4363,181.4277 683.4925,184.0336 677.4678,186.1464 672.4771,187.2707 663.8525,188.5227 647.5963,189.4501 630.7892,188.9688 615.1869,187.1755 609.588,186.123 602.0809,184.2217 597.7426,182.7588 592.3329,180.3087 589.5032,178.5282 586.4843,175.6801 584.9922,172.6735 584.8706,170.6123 586.0255,167.4832 588.7985,164.367 593.1742,161.3268 599.0992,158.423 603.8639,156.5903 612.1298,154.033 621.5699,151.7437 631.9413,149.7593 642.9428,148.1123 657.97,146.485 672.5202,145.5437 685.5667,145.3003 696.1166,145.7341 703.3264,146.7885 705.4835,147.5208 706.6118,148.3707 706.6921,149.3216 705.7294,150.3552 702.4118,152.0166 697.0645,153.7467 681.7771,157.1039 663.3969,159.7891 645.428,161.1802 632.7099,160.9525 624.7469,159.6754 620.269,158.0176 618.037,156.5666 616.4212,154.8364 615.4262,152.8293 615.0507,150.5515 615.6345,146.6518 617.5528,142.2239 620.7272,137.3479 625.0459,132.1288 630.3645,126.6954 636.5076,121.1976 643.2711,115.8026 650.4253,110.687 657.7197,106.0263 664.8904,101.9866 671.671,98.716 679.6634,95.7591 684.5744,94.704 688.3484,94.6937 690.8525,95.7278 692.0135,97.7609 691.8229,100.7048 690.3392,104.4364 687.6906,108.807 684.0657,113.654 678.1197,120.5705 658.436,141.1286 651.979,148.396 647.7299,154.4487 646.4387,157.4419 646.1385,159.1646 646.2949,160.6692 646.9069,161.9576 647.9653,163.0333 649.4526,163.901 653.6036,165.0348 660.5857,165.3912 668.7842,164.6717 675.5436,163.398 683.3304,161.0301 688.3706,158.5933 691.1424,156.4996 692.873,154.2197 693.4546,151.7952 693.1753,150.1208 692.36,148.4164 690.1636,145.8354 688.0931,144.1205 684.1869,141.5948 679.4894,139.1708 672.3796,136.1831 664.8239,133.5755 655.605,130.9949 649.0246,129.5622 642.4704,128.6337 638.3291,128.6947 637.172,129.2061 636.9864,129.7403 637.278,130.4247 638.6091,131.7211 644.3303,135.1982 674.3694,149.3597 681.4273,153.0634 685.9265,155.8041 690.423,159.3324 692.4246,161.8348 693.0317,163.415 693.0304,164.9137 691.8746,166.9896 690.3513,168.2475 687.0124,169.9276 682.5537,171.3425 677.1853,172.4764 664.7101,173.8628 658.1163,174.1088 649.4928,173.983 637.856,172.8917 632.9428,171.9921 627.5505,170.5027 624.4457,169.2248 621.596,167.4024 620.4107,166.0189 620.0251,164.2647 620.5505,163.0955 621.6811,162.1188 623.315,161.3918 625.3367,160.9672 627.6215,160.8914 630.0397,161.2027 634.0149,162.6536 637.4361,165.313 639.4537,168.2911 640.6385,171.9655 640.8902,176.2491 639.8651,182.2831 636.8601,190.1559 631.6154,199.5622 621.1016,215.2303 618.2349,219.9791 616.4973,224.3495 616.4628,225.9223 617.0359,227.0631 617.765,227.5805 619.3821,227.9936 624.4422,227.566 631.653,225.6516 640.401,222.5835 651.325,218.0842 660.008,213.8942 665.8581,210.4196 669.8035,207.0984 671.0684,205.2085 671.4144,203.9956 671.3522,202.8217 670.8806,201.6875 668.7411,199.5406 664.0273,197.0861 658.927,195.3014 652.9912,193.6645 625.1527,187.4669 620.4755,186.1128 616.8201,184.652"/>
    <polyline points="482.176,580.0475 494.9242,579.8888 506.1631,580.1424 517.0674,580.888 526.4409,582.076 535.6934,583.9295 542.8401,585.9716 549.674,588.5587 556.1568,591.7125 562.2781,595.4293 569.4036,600.8139 574.6589,605.6282 580.629,612.1021 586.8395,620.1536 592.6421,629.1399 597.5806,638.3479 599.1637,642.0584 599.2985,643.3427 597.9724,642.0904 594.7394,637.6845 565.0326,594.4024 562.3583,590.1031 562.4172,589.5305 564.9454,590.4738 565.7231,589.4612 566.5606,574.2629 567.3961,570.045 568.8668,565.8567 571.2434,561.8095 574.2917,558.5362 578.5547,555.5047 584.26,552.7497 590.2053,550.6672 597.2073,548.7565 627.4693,542.4224 636.7065,540.108 641.6948,538.4204 644.5915,537.0611 646.6333,535.6099 647.7268,534.0556 647.8069,532.3862 646.8408,530.5883 644.8341,528.6471 641.8326,526.5465 634.8559,522.644 611.2802,510.8063 597.9672,503.4767 580.527,492.5554 546.2589,468.5466 536.3703,463.0577 528.7326,460.2521 524.4768,459.4574 520.5191,459.364 516.9098,459.9734 513.7024,461.2612 510.9516,463.1788 508.7105,465.6561 507.0283,468.607 505.9481,471.9347 505.5048,475.5374 505.7236,479.3141 506.6181,483.1691 508.1882,487.0162 510.4199,490.7813 512.2627,493.2157 515.5332,496.7186 519.3736,500.0135 523.7366,503.0807 530.2857,506.8083 537.588,510.1446 545.5866,513.1461 561.2515,517.8558 596.1004,526.5615 610.8381,530.5516 625.4485,535.1797 636.4624,539.4294 646.3271,544.2172 650.6657,546.8239 654.5252,549.578 657.849,552.4837 660.5866,555.5435 662.6955,558.7575 664.1426,562.1231 664.9054,565.6349 664.9726,569.2842 664.3446,573.0594 662.1353,578.9242 659.8653,582.9408 655.3871,589.0675 649.8115,595.2334 643.3866,601.3321 636.3804,607.2461 626.6025,614.6263 616.8835,621.1517 607.7667,626.5344 599.7131,630.5268 593.0973,632.9373 588.2098,633.6366 585.8138,633.0023 584.59,631.3841 584.5993,628.8256 585.8896,625.4002 588.4886,621.207 592.3975,616.3644 597.5874,611.0029 608.8899,601.2848 619.9882,593.1638 632.4331,585.056 652.2565,573.4855 688.1022,553.9561 694.8012,549.487 695.9503,548.3021 696.1777,547.497 695.4787,547.0968 693.8711,547.1275 689.8543,548.0402 684.1265,550.0706 677.007,553.3008 665.9961,559.5931 660.1006,563.6229 654.0955,568.2514 648.0857,573.4764 642.1676,579.2873 633.6483,589.0523 625.7733,599.9629 618.7376,611.8329 612.6891,624.4082 609.2595,633.0267 606.3401,641.7043 602.9534,654.56 601.3731,662.8285 600.3418,670.6933 599.8612,678.0143 599.9294,684.6554 600.5408,690.4883 601.6849,695.3975 603.3454,699.284 605.5002,702.0689 608.1214,703.6967 609.5965,704.0663 612.8515,703.9104 616.4758,702.5734 620.4198,700.1002 624.6273,696.5693 629.0364,692.0883 635.8793,683.875 640.4873,677.6224 647.2748,667.4698 653.6763,656.8522 659.4299,646.2514 664.2906,636.0847 666.9269,629.72 669.8402,620.9986 671.0271,615.8292 671.604,609.1645 671.1669,605.4997 670.7018,603.9105 669.2874,601.2306 668.3444,600.1432 666.009,598.4793 664.6278,597.9042 661.471,597.2688 655.8654,597.5988 651.6464,598.664 647.1256,600.3885 639.9376,604.1601 632.4734,609.2554 624.9535,615.5277"/>
    <polyline points="591.9253,843.8139 590.0641,840.1367 587.8247,833.4355 586.7089,828.2298 585.6078,819.4314 585.2546,812.9943 585.2877,802.6729 585.9776,791.8409 587.2969,780.8894 589.2101,770.2771 590.7948,763.6398 593.5985,754.7292 595.7274,749.7072 599.262,743.8959 601.8141,741.3343 604.4947,739.919 607.2774,739.696 608.6983,740.0368 611.5805,741.618 614.4906,744.373 617.396,748.25 620.2628,753.175 623.0567,759.054 625.7428,765.7775 628.2866,773.2245 632.8155,789.7736 636.4004,807.6671 638.8484,825.9475 640.0357,843.825 640.1403,852.4255 639.6921,864.7593 638.546,876.3232 636.7536,887.0764 634.3855,897.0341 631.5276,906.2301 628.2769,914.6736 623.5116,924.7313 618.483,933.3387 612.192,941.8921 606.2819,947.8247 604.1029,949.4445 601.0891,951.0755 598.423,951.7803 596.1411,951.6183 594.2682,950.6711 592.8186,949.0371 591.7971,946.8286 591.1998,944.1675 591.0158,941.1821 591.3819,936.9215 593.1253,930.5372 595.5206,925.8101 597.2963,923.4401 599.2762,921.5215 602.9024,919.5081 605.1889,919.095 606.725,919.1744 609.0039,919.8443 610.4812,920.6656 612.5918,922.4656 613.9051,924.044 616.754,929.2873 618.4891,934.7451 619.6714,941.1983 620.2795,948.4648 620.2699,958.3028 619.5391,968.3694 618.3149,977.8639 616.3297,988.4766 614.6187,994.2721 614.8103,992.0648 616.1339,986.6109 620.0294,974.5088 625.2726,961.4959 630.7971,950.0174 637.0454,938.9214 643.5573,928.941 649.7523,920.6058 660.2705,907.8259 656.5656,910.3317 650.2981,915.4515 638.869,926.0416 629.4774,936.2849 622.092,945.8843 615.7907,955.9791 611.1016,965.9976 609.2308,971.6913 608.4155,975.257 607.8741,981.6196 608.1599,984.3238 608.8185,986.6526 610.4976,989.3615 612.9814,991.0414 616.2232,991.6279 620.1542,991.0984 626.3019,988.6968 631.4308,985.7127 638.6632,980.3692 644.143,975.5278 649.4411,970.1598 654.3389,964.4472 657.2736,960.5391 661.0252,954.6621 663.0113,950.8097 664.5293,947.0667 665.5411,943.4782 666.0191,940.0856 665.9472,936.9263 665.3202,934.0338 664.1435,931.4372 662.4319,929.1617 660.21,927.2281 657.5109,925.6536 652.6591,923.9929 648.9605,923.3656 642.8529,923.1538 636.249,923.8127 629.3499,925.3242 622.3522,927.6555 617.7241,929.6421 613.1851,931.9535 606.6436,935.9807 602.5197,938.9997 596.7757,943.9495 593.2825,947.4757 588.6035,952.9975 584.6469,958.6523 581.4499,964.2591 579.0316,969.6228 577.3949,974.5416 576.408,980.0666 576.7309,984.023 577.3576,985.3047 578.2804,986.0803 579.4891,986.3304 580.9737,986.0461 583.6959,984.6204 586.9812,982.0316 590.7903,978.3569 596.6041,971.966 612.0228,953.1021 632.0865,926.9814 638.5203,917.9211 643.902,909.4661 647.03,903.6054 649.2323,898.1984 650.1339,894.8571 650.5556,891.7312 650.2592,887.4493 648.8357,883.656 646.3019,880.3534 644.019,878.4269 641.2855,876.723 638.1285,875.2434 632.6675,873.4479 624.2195,871.8471 612.2159,871.1055 601.8298,871.4817 588.3149,873.0763 574.5937,875.7848 560.9202,879.4314 541.9216,885.7768 520.219,894.3156 499.1171,903.7074 482.5122,912.1052 474.4726,916.7555 469.3824,920.0829 465.2301,923.215 462.107,926.0997 460.0683,928.6856 459.1311,930.9215 459.2745,932.7546 459.9438,933.727 461.0446,934.4824 463.4387,935.1786 465.4782,935.3334 470.4355,934.8551 477.8024,932.7037 484.1526,929.6975 490.4778,925.5422 494.9743,921.682 500.3525,915.571 503.7439,910.2877 506.4457,904.4239 508.3468,897.9931 509.3496,891.0001 509.4776,886.0216 508.8062,878.0655 507.7565,872.4336 505.24,863.5086 502.9169,857.261 498.4444,847.503 494.8008,840.791 488.3545,830.5301 483.4229,823.6476 475.1359,813.4401 469.0733,806.8335 459.3048,797.4506 452.4446,791.6884 441.8521,784.0297 434.7428,779.7164 427.7355,776.1348 420.9622,773.3543 414.5615,771.4276 411.545,770.7958 405.9667,770.2057 401.1051,770.5124 398.9813,770.997 395.4135,772.6089 392.8215,775.04 391.2628,778.2314 390.7625,782.1106 391.3119,786.5934 392.8734,791.5866 395.3836,796.9901 398.7552,802.6998 402.8804,808.61 407.6332,814.6158 412.8746,820.6152 418.4558,826.5108 427.1282,834.9623 443.6852,849.4913 462.2549,864.143"/>
  </g>
  <g fill="none" id="layer2" inkscape:groupmode="layer" inkscape:label="2" stroke="#080" style="display:inline">
    <polyline points="187.1578,796.4053 191.535,798.8621 195.8806,801.8637 204.3413,809.195 212.387,817.7035 230.9682,839.2671 235.6522,844.1072 240.2211,848.2459 245.7302,852.2245 249.9233,854.3001 253.8629,855.2691 257.4851,855.0438 259.9582,854.0584 262.199,852.3618 263.5552,850.8357 265.3733,847.9626 267.8083,841.6827 269.747,831.9658 270.7451,818.4752 270.5109,802.2901 269.0641,787.1611 267.9625,781.9319 267.0087,779.9516 266.2717,779.8604 265.5254,780.9705 264.0195,786.5736 262.4943,795.9332 258.1676,829.0188 255.8536,844.0177 253.0877,856.9891 251.9274,860.4785 250.9097,861.8472 250.5434,861.0555 250.4708,859.5884 251.1025,853.3949 252.6727,845.2939 254.7821,836.9443 257.6391,827.6026 260.4362,819.8147 266.2296,806.7662 268.9551,801.886 271.7471,797.71 274.5406,794.4155 277.2649,792.1532 279.8458,791.0366 282.2091,791.1329 284.2832,792.4612 286.003,794.9974 287.3129,798.6773 287.9366,801.7179 288.5623,811.0967 287.8295,822.448 285.8218,835.0093 282.7456,848.0455 278.9026,860.9313 273.7842,875.5542 263.5865,902.4616 259.4974,915.4182 258.0488,921.928 257.3726,927.9496 257.7988,932.3724 258.2842,933.4108 259.1217,934.033 260.3398,933.6832 261.8095,931.8464 263.0159,928.8019 263.6551,925.6062 263.8725,922.0175 263.6383,918.1922 262.9546,914.2567 261.8332,910.3173 259.1895,904.2084 255.1677,897.8592 251.5398,893.4076 243.5213,885.0149 241.1592,882.1655 240.1659,880.0752 240.3478,878.2152 241.1964,877.0461 242.6576,875.892 247.4222,873.5072 257.487,869.8719 285.513,860.9122 290.5817,858.5757 291.6215,857.6662 291.8796,856.8234 291.3746,856.032 290.1533,855.2729 285.1682,853.6037 277.0614,851.8202 267.7747,850.3697 260.5073,849.7053 254.1527,849.6301 248.939,850.231 247.2522,850.7677 246.6058,851.3052 247.1122,851.686 248.8538,851.7306 254.2945,850.6433 260.4262,848.5365 266.6663,845.7586 273.623,841.9845 279.424,838.2543 285.1547,833.9385 289.2379,830.365 293.0024,826.5565 296.3309,822.5753 299.1152,818.4971 301.2625,814.4091 302.7005,810.4087 303.3827,806.6004 303.2906,803.0917 302.4343,799.9882 301.4553,798.1934 299.4153,795.9778 297.7058,794.8504 294.682,793.7253 292.4033,793.368 288.6717,793.4315 284.6666,794.2048 280.5056,795.6547 273.5361,799.4103 269.5095,802.3314 265.7181,805.6298 262.2467,809.1937 259.1684,812.907 256.5442,816.6547 253.8353,821.5171 252.4434,824.935 251.6278,828.0623 251.4606,831.6629 252.0308,833.8712 253.1933,835.6218 254.937,836.9001 257.2432,837.7074 260.0841,838.0592 267.2023,837.5209 277.3634,835.2193 291.5387,830.8099 311.2295,823.8186"/>
    <polyline points="542.0248,966.1492 550.7624,955.7022 559.9104,945.4784 577.8659,927.2181 597.4194,909.2198 634.7993,876.6051 653.0755,859.4529 666.0313,845.6084 671.6577,838.7559 676.5826,832.0196 682.4644,822.2672 686.3309,813.1393 687.7081,807.5195 688.0262,804.8764 688.0957,802.3564 687.4912,797.7207 686.8223,795.6217 684.7763,791.901 683.4138,790.2937 680.0569,787.6176 678.0852,786.5599 673.6188,785.0281 668.5495,784.2967 665.8261,784.2365 660.0785,784.7312 657.0853,785.2847 650.9362,786.9931 644.668,789.4762 638.3915,792.6884 632.2079,796.5711 626.2081,801.0552 620.4718,806.0644 612.508,814.3849 607.7068,820.3499 601.3754,829.7258 597.783,836.1542 593.3971,845.8995 591.1643,852.3834 588.8742,861.9761 588.0581,868.2311 587.8962,877.3403 588.4879,883.2074 590.3965,891.6795 592.3239,897.1055 596.1372,904.8988 599.2498,909.8479 604.682,916.8623 610.898,923.3249 617.7256,929.1574 624.9684,934.276 634.8942,939.8459 642.2371,942.9826 651.4363,945.6577 655.6263,946.3192 659.4568,946.5184 664.4023,945.9418 667.0934,944.9742 669.2534,943.5465 671.4378,940.566 672.1684,938.042 672.1741,933.4982 671.4715,929.9958 669.4318,924.0904 665.1179,915.1226 647.8489,885.1862 639.7077,869.3764 635.3277,859.3403 632.7181,852.4812 629.3626,842.0499 627.5399,835.0807 625.4772,824.7679 624.2515,814.849 623.8683,805.6007 624.3024,797.3126 625.4984,790.2711 627.3705,784.7417 629.806,780.9514 631.6767,779.4788 633.6934,778.8927 635.8089,779.2144 637.9739,780.4491 640.1382,782.5824 642.2516,785.5803 644.2646,789.3914 646.1299,793.9494 647.8028,799.1764 649.2426,804.9868 651.284,817.999 652.0347,832.2807 651.6763,843.4442 649.9535,858.5248 647.7731,869.7818 644.9115,880.8842 640.2187,895.3783 634.8019,909.498 626.054,929.6998 614.95,953.3106 605.7033,971.7465 602.812,976.7661 601.8472,977.6864 602.7759,973.7971 605.7377,966.0703 614.2833,947.0857 623.1682,929.3584 642.0727,893.4755 650.3682,876.4803 657.5823,859.1519 662.1943,845.2384 665.53,831.5988 667.1049,821.7977 667.8543,812.5952 667.5862,801.6489 666.4941,794.7282 665.3857,790.8477 664.0097,787.6197 662.4027,785.0918 660.605,783.3021 658.659,782.2778 656.6088,782.0345 653.4347,783.1368 651.3157,784.8276 649.2425,787.2444 646.3016,792.12 642.8713,800.6097 640.7877,808.135 638.7955,819.1973 637.8038,830.881 637.753,839.7368 638.2996,848.4763 639.4234,856.9669 641.0821,865.1157 643.2106,872.8655 647.5593,884.8372 660.5809,912.5978 662.5441,917.5041 663.9033,922.0122 664.5424,926.0932 664.3703,929.713 663.3271,932.833 662.1354,934.6158 659.6113,936.8149 657.4557,937.9488 654.9454,938.806 648.9721,939.6612 641.9563,939.3428 634.2052,937.8529 628.1,935.9954 619.8125,932.6081 611.6033,928.305 605.6359,924.5777 598.0801,919.0959 591.1122,913.2183 584.8321,907.1537 578.0239,899.6053 572.3798,892.4038 567.0577,884.6198 559.5063,872.3035 558.4414,871.5716 558.021,872.5752 558.0061,876.0568 558.7312,883.8141 562.5685,912.5653 570.5786,968.0966 576.4036,1003.8692 580.3207,1023.4702 583.5339,1035.8108 585.1505,1040.513 586.7662,1044.0978 589.1792,1047.2201 590.7765,1047.7352 591.5711,1047.5172 593.1519,1046.1399 594.7214,1043.5486 597.0568,1037.5728 600.9151,1023.1144 610.2107,979.0734 614.1522,962.4962 616.5225,954.0846 618.8756,947.0792 621.1856,941.6232 623.4192,937.8173 625.5373,935.7304 626.8648,935.3155 627.4985,935.4036 629.2615,936.8516 630.7878,940.0518 632.0425,944.9345 632.9972,951.3785 633.6312,959.2079 633.9335,968.1892 633.9035,978.031 633.3683,991.8859 632.3258,1005.7055 630.8764,1018.4659 629.6018,1026.7287 627.7796,1035.2701 625.9795,1040.3319 625.1461,1041.4122 624.3886,1041.4905 623.7299,1040.5695 623.1923,1038.6788 622.5639,1032.2433 622.6564,1022.9177 623.2748,1014.611 624.4073,1005.6759 626.0766,996.5488 628.2883,987.6276 630.0581,981.9664 633.1333,974.1196 635.4427,969.4216 637.937,965.2171 640.5922,961.5509 643.3802,958.458 647.7398,954.9481 650.7115,953.3845 655.1674,952.2216"/>
    <polyline points="564.5477,463.8017 567.1508,452.4619 571.5801,438.5384 575.9999,427.7179 580.265,419.6266 585.1423,412.8694 589.168,409.1005 592.008,407.3421 594.9574,406.2488 599.5507,405.9237 602.6973,406.5989 605.8847,407.9776 609.0872,410.0341 612.2759,412.7276 615.4198,416.0042 618.4856,419.7983 621.4379,424.0349 625.573,431.0382 628.0791,436.0119 631.3685,443.7066 634.6925,453.9453 636.2549,461.2529 636.8079,465.8116 636.9504,470.0463 636.6725,473.9025 635.4596,478.8774 633.3013,482.7735 631.3539,484.7273 627.7127,486.6511 623.2771,487.3436 618.143,486.8073 612.4208,485.0685 606.2298,482.1729 601.903,479.6317 595.2042,474.9679 588.3601,469.3819 581.4805,463.0204 570.1953,451.2217 547.5998,425.4736 542.1963,420.0347 538.8152,417.0918 534.1146,413.8877 529.9088,412.2995 527.4079,412.1926 526.2543,412.429 524.1502,413.4779 521.5267,416.4521 519.5741,420.9946 518.3152,426.9184 517.7568,433.9834 517.8899,441.911 519.1081,453.298 520.7658,462.049 523.0225,470.6491 525.8376,478.8253 529.1677,486.3373 532.968,492.9826 535.7409,496.8488 540.2288,501.7051 545.0777,505.344 550.2568,507.7007 553.8816,508.5426 557.6389,508.7983 563.5124,508.0922 567.575,506.9082 573.8595,504.0962 578.1527,501.5585 584.6956,496.8196 589.0888,493.0856 595.6497,486.723 602.0698,479.5982 608.2152,471.9202 613.9402,463.942 619.093,455.9589 624.8148,445.8814 628.9306,437.2178 631.1893,430.7775 631.5715,428.6101 631.4439,427.2343 630.8068,426.695 630.299,426.7475 628.0367,428.2063 624.7149,431.5908 618.786,438.916 609.3311,451.9608 580.6365,493.8713 564.7613,516.2847 548.5535,537.506 532.1291,556.7846 523.9031,565.6224 513.0707,576.4957 505.1787,583.8841 495.2077,592.5606 486.1893,599.7089 476.8258,606.2175 470.2292,609.7995 468.4923,610.3898 466.9276,610.3844 466.6413,609.3477 468.2278,606.4697 471.9422,602.0625 477.5559,596.3597 490.9951,584.024 534.6564,545.7208 546.5518,534.4064 557.7664,522.9319 572.1113,506.9711 585.9462,490.0197 596.8213,475.0203 599.6366,470.497 601.1972,467.1282 601.1971,466.5341 600.5334,466.456 597.7181,468.405 576.7557,487.5013 563.5326,498.3372 553.1033,505.5622 541.9645,511.7606 534.9733,514.8168 530.2063,516.5362 522.9386,518.6013 518.0472,519.6192 510.7095,520.5884 505.8659,520.8547 498.7705,520.6759 494.2176,520.1688 487.7742,518.8257 481.9452,516.788 476.9023,514.0675 474.058,511.8844 470.6773,508.0779 468.4664,503.6715 467.5113,498.7226 467.595,495.159 468.8057,489.4866 471.2949,483.5238 475.0056,477.4066 478.1168,473.3199 483.6621,467.3063 490.1555,461.5991 497.4697,456.3929 502.7361,453.2954 511.1226,449.3434 519.981,446.365 529.1985,444.4852 538.6827,443.7837 545.1201,443.9862 554.9184,445.2842 564.8751,447.7256 574.9651,451.2157 588.5055,457.2689 601.8848,464.5597 614.6951,472.6406 629.1127,483.1392 636.4759,489.309 640.6973,493.2577 647.2017,500.5502 649.3809,503.8145 650.7955,506.7808 651.4263,509.423 651.2695,511.7207 650.8985,512.7352 649.5833,514.488 647.528,515.8655 644.7703,516.8627 639.423,517.6441 630.3406,517.3719 619.5143,515.654 607.5034,512.5784 594.8452,508.26 585.2138,504.2919 575.6497,499.78 563.2212,493.07 554.2565,487.6505 542.8783,480.1354 529.7764,470.731 514.3713,458.7828 502.9591,449.0391 500.4859,446.3923 500.2418,445.5098 501.4406,445.5857 505.3282,447.1255 526.4216,457.0434 539.2919,462.7439 558.9576,470.5616 582.8614,478.5479 599.2791,483.168 611.0282,486.1035 623.3391,488.8871 642.6114,492.7171 662.3636,496.0615 681.8531,498.8535 700.1406,501.0412 720.7877,502.9533 734.8377,503.6677 738.7382,503.5684 740.343,503.1649 740.2656,502.8497 738.3578,501.9944 727.7987,499.4021 648.0794,483.7631 594.423,472.1078 545.1843,459.9417 468.8119,439.4775"/>
    <polyline points="533.8698,268.1187 538.5385,259.3948 544.1749,249.8444 549.2127,242.0875 555.3291,233.515 566.666,219.6082 580.6807,204.9168 597.1538,189.7526 618.5052,172.0603 640.1133,155.5642 673.1418,131.827 676.4162,129.2147 670.6745,132.7378 661.9994,138.6418 643.6668,152.4022 629.3437,164.7367 618.7791,175.4551 613.4759,181.8647 610.473,186.0833 607.9417,190.2404 605.9148,194.3248 604.4196,198.3291 603.4787,202.2493 603.1105,206.084 603.3287,209.8346 604.1423,213.5042 605.5533,217.0942 607.5568,220.6033 611.6421,225.7053 615.0517,228.9879 621.1093,233.7071 625.7094,236.6968 633.3079,240.9061 641.5328,244.7291 650.1056,248.0969 658.7078,250.9391 666.9911,253.187 674.5946,254.777 683.0663,255.7787 687.7585,255.6346 690.7394,254.6902 691.6845,253.6096 691.8311,252.9341 691.4614,251.3151 690.2093,249.3441 686.732,245.7487 679.406,239.8304 652.2721,220.2183 640.2169,210.7911 631.5162,203.223 626.0457,197.9563 620.9282,192.5266 616.2296,186.9517 612.007,181.2543 608.3095,175.4627 605.1793,169.6106 602.6523,163.7372 600.759,157.887 599.5255,152.1095 598.9733,146.4583 599.1205,140.9906 599.9805,135.766 600.6802,133.2639 602.6192,128.5185 603.8572,126.2904 606.8622,122.1603 608.6242,120.2725 612.6501,116.8853 617.3142,114.0569 619.8711,112.8661 625.3997,110.9553 634.5998,109.3212 641.219,109.0832 651.6341,110.0234 662.2966,112.4968 672.7908,116.421 679.4777,119.7792 688.72,125.8063 694.1745,130.4032 698.9295,135.3946 701.0127,138.0196 704.5347,143.4922 707.1373,149.2147 708.0758,152.1531 709.2037,158.1538 709.3878,161.2049 709.3178,164.283 708.4216,170.5021 707.6033,173.6351 705.2597,179.931 700.1269,189.4112 695.7759,195.7352 690.8231,202.0542 682.5589,211.5247 661.7588,233.6219 650.5078,246.0976 640.7093,258.1657 632.9066,269.4709 629.8676,274.7095 626.4637,281.8965 624.9843,286.1612 623.9574,291.6379 624.0575,294.6061 624.3375,295.8693 625.3427,297.9316 626.9152,299.3502 627.9022,299.8108 630.2483,300.2245 634.5954,299.5634 637.9541,298.2737 643.5046,295.1116 647.4316,292.2321 653.4514,286.8642 657.4228,282.6624 663.0957,275.5673 666.5617,270.3953 669.6789,264.9379 672.3714,259.2502 674.5716,253.3836 676.2213,247.3841 677.2736,241.2916 677.6941,235.1395 677.4613,228.9541 676.5681,222.7549 674.0148,213.4554 671.5459,207.2608 668.5161,201.0669 661.0178,188.683 649.6997,173.3291 639.8559,161.3785 629.9694,150.0359 618.3519,137.2713 608.3139,126.8128 601.8205,120.6198 596.9218,116.706 594.3832,115.3901 593.2571,115.3054 592.5961,115.8527 592.4938,117.8248 593.4744,121.0895 597.5153,128.9917 604.4544,139.1954 613.9953,150.7312 623.1605,160.308 635.9107,172.0871 646.5484,181.0151 668.685,198.6222 676.3166,205.1898 680.6701,209.5931 682.8228,212.2825 684.8381,215.9493 685.3436,218.1478 684.8371,221.0712 683.6784,222.7664 681.9015,224.2548 679.556,225.5331 676.704,226.598 669.7775,228.0778 661.7722,228.6799 651.2859,228.1978 643.2858,226.8465 636.2135,224.6792 631.7757,222.5523 628.2372,220.0281 625.7043,217.1386 624.2532,213.9172 623.9319,210.3966 624.3566,207.8986 625.9479,203.9466 628.649,199.7777 631.031,196.8972 635.3972,192.4594 644.4244,184.887 657.034,175.8842 683.2731,158.5951 687.9053,154.8646 688.8702,153.4818 688.7013,152.9512 687.2163,152.7737 685.4251,153.0805 680.0756,154.7321 672.7375,157.7501 663.9741,162.0614 656.8452,166.0705 649.5355,170.6717 642.2949,175.7917 635.3476,181.3545 628.8874,187.2851 624.9325,191.4084 618.0453,199.9792 613.8968,206.6369 611.6601,211.169 609.8669,215.771 608.5302,220.4371 607.659,225.1578 607.2587,229.9202 607.3314,234.7079 608.3215,241.8916 609.5569,246.6462 611.2357,251.3399 613.3366,255.9403 617.2184,262.5889 620.2418,266.7978 625.3225,272.6759 628.9989,276.245 634.8005,280.9729 638.764,283.651 644.675,286.8676 650.318,289.0305 655.4315,290.0556 659.7596,289.8847 663.0689,288.4885 664.6095,286.8787 665.1612,285.8736 665.8833,282.0828 665.1352,277.1904 662.8799,271.2948 659.1517,264.5097 654.0515,256.9544 647.7346,248.7448 637.7559,236.9594 604.981,200.8244 592.3958,186.5098 546.7421,131.7589 534.9166,119.1719 529.0103,113.6261 523.1119,108.6922 517.232,104.4496 511.3874,100.9697 505.6006,98.3143 502.7375,97.3118 497.0919,95.9822 491.5835,95.5757 488.8929,95.7235 483.6653,96.7222 481.1392,97.5696 476.2906,99.9417 471.7516,103.1781 467.5681,107.2172 463.7843,111.9831 460.4421,117.3896 457.5792,123.3441 455.2284,129.751"/>
    <polyline points="225.2572,296.1403 252.6588,275.0268 307.8888,234.9644 328.3829,219.4327 338.2267,211.4138 347.533,203.2372 360.0475,190.6793 367.1513,182.1302 373.0646,173.4699 377.6435,164.7389 380.7731,155.9901 381.7678,151.6287 382.3728,147.288 382.5837,142.9777 382.3987,138.7081 381.8183,134.4902 380.8465,130.3353 379.4908,126.2552 377.7616,122.2618 375.6727,118.3674 370.484,110.9244 367.4244,107.4005 360.4893,100.8083 356.664,97.7633 348.4292,92.2306 344.0732,89.7631 335.017,85.4715 330.3681,83.663 320.9506,80.7526 316.2273,79.6603 306.8548,78.2177 302.2428,77.87 293.2489,77.92 284.6541,78.9465 276.5501,80.9077 269.0081,83.7383 262.0819,87.3531 255.8101,91.6503 250.219,96.517 245.3248,101.8332 241.1364,107.4771 237.6567,113.3286 233.7637,122.246 232.0472,128.1321 230.7779,136.6432 230.7938,141.9916 232.095,149.3634 233.8003,153.7675 234.8994,155.8001 237.5798,159.5042 240.8853,162.7025 242.7647,164.1043 246.9575,166.5006 251.6993,168.3411 259.7464,170.034 268.7544,170.4227 275.1861,169.9507 285.2813,168.1485 292.1814,166.2279 299.1045,163.747 305.9461,160.725 315.8156,155.2339 321.9698,150.9824 327.6534,146.3054 332.7592,141.2514 337.1868,135.8757 340.846,130.241 343.659,124.4168 345.5633,118.4787 346.5132,112.5077 346.481,106.5884 345.4587,100.8082 343.4616,95.2548 340.5301,90.015 336.7267,85.1719 332.1331,80.8035 326.8454,76.9799 320.97,73.7616 314.6186,71.1976 307.9035,69.3237 300.9342,68.1615 293.8143,67.7177 286.6385,67.9837 279.4916,68.9348 272.4474,70.5295 265.5688,72.7104 255.6715,76.9238 249.4109,80.2402 240.5963,85.7512 232.5264,91.6295 225.2335,97.5741 199.5145,120.9111 196.5844,123.0156 195.6749,123.436 195.0276,123.3052 195.5413,121.8168 197.6695,119.0503 203.9207,113.2221 211.9007,107.6628 220.0558,103.3323 229.7271,99.5262 237.899,97.2171 249.8443,95.0726 259.4168,94.2573 272.6579,94.2843 285.9524,95.5491 298.6681,97.9057 310.1106,101.1142 319.5818,104.8732 323.3763,106.8573 327.6997,109.8505 329.5916,111.8019 330.6458,113.6773 330.8395,115.4456 330.1651,117.0799 327.554,119.2326 324.7976,120.4444 321.2924,121.4648 312.3264,122.9136 301.3168,123.5891 292.1457,123.6333 279.2385,123.1819 228.7403,119.4858 217.5185,119.2519 209.4909,119.5223 199.219,120.5888 191.8059,121.963 184.6447,123.8404 175.5376,127.0976 169.0989,130.0575 163.0619,133.4008 157.495,137.0611 150.9278,142.3066 146.736,146.4131 142.2469,151.9704 139.7728,156.1035 137.7315,161.4382 137.1634,165.229 137.6771,169.9049 138.9759,173.0717 141.821,176.7731 145.7715,179.8175 150.6118,182.1525 156.1112,183.7419 162.0453,184.5702 169.7708,184.5418 177.5468,183.3697 185.1544,181.1258 193.8981,177.1561 200.8347,172.9176 208.8193,166.8999 216.623,160.0763 241.0167,137.3487 249.5857,130.2267 258.0634,124.0816 267.3146,118.714 270.8932,117.128 275.1525,115.7367 277.8847,115.243 280.8079,115.2988 282.8136,116.1117 283.8369,117.5713 283.8655,119.52 282.573,122.3508 280.6031,124.6782 277.9652,126.8401 274.8424,128.6531 271.4306,129.9674 267.9234,130.676 264.4994,130.7219 261.3127,130.1029 258.4868,128.8747 256.1118,127.1496 254.2423,125.081 252.6409,122.2703 251.7396,119.0079 251.8443,116.013 252.2976,114.9311 252.9129,114.4043 253.5885,114.4641 254.2284,115.101 255.0207,117.4334 255.1464,120.8559 254.4425,124.7407 253.3674,127.5148 251.7778,130.1476 249.6477,132.567 246.9539,134.7334 243.672,136.6206 240.6028,137.9087 233.186,139.7745 225.125,140.3836 215.3779,139.6762 205.5221,137.7493 194.1972,134.4253 183.7334,130.5533 170.2895,124.6966 154.246,116.6534 139.2263,108.2313 122.8518,98.0894 117.3977,94.3312 115.7493,92.8205 119.0969,94.1861 141.0094,105.2957"/>
    <polyline points="131.1375,568.9813 131.0167,565.9911 130.0148,562.5533 128.1769,558.7078 125.5767,554.4995 119.8386,546.806 101.4736,524.4585 96.6006,517.5993 92.9043,511.1516 90.743,505.3672 90.3132,502.7994 90.3369,500.4845 90.8156,498.4465 91.7406,496.7054 93.0937,495.2774 94.848,494.1738 96.969,493.4014 100.7466,492.8669 103.5923,492.9204 108.2195,493.5909 116.4148,496.1477 121.3063,498.4278 125.9505,501.1609 132.6866,506.4575 135.8911,509.9164 137.6056,512.2784 139.4771,515.8368 140.2284,518.1824 140.577,521.6035 140.2804,523.7907 139.0396,526.8898 137.6883,528.8153 135.9289,530.6166 131.2555,533.8205 125.2238,536.4747 118.1484,538.5898 108.4952,540.5413 98.9292,541.85 83.9718,543.3193 82.1443,543.7418 85.8418,544.4459 116.3812,547.6776 132.0838,550.3122 138.1426,552.039 142.4348,554.1141 143.8264,555.3021 144.6824,556.6017 144.9335,558.7791 144.4068,560.3955 143.3295,562.1539 141.7133,564.0627 138.3213,567.2256 132.1505,572.0398 113.2821,585.5438 103.9514,592.7301 95.026,600.5619 87.2786,608.905 84.08,613.2078 81.4426,617.5571 79.4352,621.9164 78.1119,626.2455 77.4845,632.5853 77.9904,636.6401 79.2278,640.4998 81.1725,644.1145 85.3254,648.9709 88.8357,651.7651 95.0367,655.1923 99.6749,656.9215 107.1646,658.6278 112.3759,659.159 120.2859,659.0504 125.4891,658.3935 132.9763,656.5884 139.8532,653.8972 145.8957,650.4577 149.3677,647.8281 153.6295,643.5098 156.6544,638.9071 158.3632,634.207 158.7485,631.1098 158.525,628.1018 157.0512,623.8617 155.3188,621.2801 152.9995,618.9401 148.4585,615.9561 144.758,614.3583 140.5556,613.0996 133.4009,611.8827 125.3815,611.5006 113.7345,612.2994 101.6203,614.5344 89.8597,618.061 84.3975,620.2403 79.3709,622.6503 72.8941,626.6063 69.4338,629.4028 66.7595,632.2669 64.9354,635.144 64.3561,636.5696 63.8767,639.3591 64.3033,642.0176 65.6169,644.4881 67.7788,646.7157 70.7315,648.6495 76.477,650.9014 81.0512,651.9165 86.0996,652.5109 94.3149,652.5806 100.051,652.0731 105.8587,651.1298 111.6251,649.7669 117.2421,648.0089 122.6085,645.8878 127.6318,643.4425 132.2289,640.7177 136.3274,637.7629 139.8654,634.6313 142.7924,631.3786 145.9532,626.3977 147.2025,623.0925 147.7488,619.8649 147.5891,616.7686 146.7289,613.8542 145.1804,611.1686 142.9626,608.7548 140.1014,606.6508 136.6311,604.8896 132.5943,603.4989 128.0432,602.5011 123.0405,601.9125 117.6597,601.7437 111.9861,601.9996 106.1162,602.6796 97.1816,604.4822 88.4521,607.1873 82.9597,609.4611 77.8813,612.0817 73.344,615.0174 69.4662,618.2305 66.3527,621.6773 64.0895,625.308 62.7396,629.0671 62.3396,632.8935 62.8985,636.7213 64.401,640.4809 66.8101,644.1001 70.068,647.5056 76.3751,652.0558 81.3867,654.6176 86.9161,656.7302 92.844,658.3408 99.0469,659.4071 105.3998,659.8987 111.7793,659.7983 118.0669,659.1014 124.1508,657.8148 129.9283,655.9567 135.3064,653.556 142.4495,649.0227 146.498,645.4473 149.9129,641.4913 152.6537,637.2125 154.6912,632.6711 156.007,627.9284 156.5929,623.0456 156.4509,618.0824 155.5905,613.0961 154.0277,608.1404 151.7842,603.2654 148.8884,598.5163 145.3759,593.9338 141.2901,589.5535 134.204,583.4282 128.936,579.6778 120.4134,574.6006 114.4522,571.6025 105.3554,567.7114 96.4284,564.5666 85.5351,561.5519 76.7382,559.8843 70.9477,559.55 68.9737,560.1613 68.867,560.9745 69.7354,562.1094 72.8178,564.4097 79.9839,568.5771 105.4577,582.3375 118.8599,590.2023 135.4193,601.2047 147.4967,610.618 157.8075,620.1819 165.8645,629.4413 168.9414,633.7971 171.3456,637.8825 173.0587,641.6327 174.3113,646.4958 173.9805,650.2829 172.8897,652.1366 171.115,653.4166 168.671,654.1046 165.5767,654.1944 159.7717,653.2236 155.174,651.867 147.2941,648.844 132.0375,641.5337 122.0456,636.0784 111.846,630.0702 95.5393,619.4053 84.3796,610.8335 79.8177,606.6869 76.1061,602.6976 72.3623,597.0985 71.1946,593.6729 71.1412,590.5261 71.5368,589.0645 73.1678,586.3762 74.397,585.1533 77.6563,582.9572 81.9332,581.1002 87.1502,579.5866 93.2139,578.4174 100.0177,577.5902 115.3772,576.9398 132.2613,577.5705 149.7312,579.395 166.9686,582.3126 183.3329,586.2099 198.3822,590.9591 211.8653,596.4139 223.6894,602.4036 228.9679,605.5375 236.0668,610.334 240.2339,613.5513 245.5997,618.3255 248.5662,621.4243 252.0696,625.8593 253.7617,628.6228 255.3247,632.3933 255.724,635.6191 254.9878,638.2061 253.888,639.5379 252.3203,640.5354 250.304,641.1875 247.8603,641.4885 241.7822,641.0425 232.1934,638.6192 218.2122,633.3626 180.6183,616.8437 158.1815,607.6258 137.2725,599.8809 113.9147,592.1796"/>
  </g>
  <g fill="none" id="layer3" inkscape:groupmode="layer" inkscape:label="3" stroke="#f00" style="display:inline">
    <polyline points="151.9958,962.5458 150.1734,973.1016 148.4303,980.5541 143.7443,995.9422 139.2678,1007.3605 135.8809,1014.6189 132.216,1021.3959 128.3181,1027.519 124.2382,1032.8216 120.0342,1037.1502 115.7699,1040.3731 113.6367,1041.5365 109.4134,1042.919 105.3115,1043.0062 101.4091,1041.7866 99.5573,1040.6916 96.1016,1037.5559 93.0388,1033.2124 90.4395,1027.7463 89.3336,1024.6248 87.5442,1017.6799 86.3559,1009.9093 85.7709,997.015 86.203,987.8068 87.2945,978.2786 90.1385,963.6881 94.3475,949.1108 97.8447,939.5747 101.8353,930.2817 108.6172,916.9329 113.5758,908.4886 118.8065,900.4352 129.8172,885.5125 141.1374,872.0849 157.7403,854.5854 172.934,840.3029 186.1242,829.4761 191.9144,825.4439 197.1894,822.3641 203.493,819.7475 209.0916,818.7975 211.6811,818.9195 214.1641,819.4175 218.9177,821.4592 222.4012,823.8122 225.9093,826.77 244.7515,845.6303 251.39,851.6005 256.8083,855.9855 264.5945,861.5438 270.8014,865.3919 279.4264,869.9524 286.0179,872.8533 292.5621,875.233 298.8957,877.0249 304.8371,878.1638 310.1954,878.5863 314.7812,878.231 318.4196,877.0382 320.9643,874.9488 321.9989,873.0301 322.5103,869.3256 321.7595,864.5929 319.776,858.8047 315.3472,849.4417 309.145,838.2784 301.5479,825.5376 277.0701,786.4491 265.9826,770.0505 259.7665,761.8209 255.8747,757.2739 250.4821,752.1401 247.2153,749.9683 244.2314,748.8646 241.5438,748.8544 240.3146,749.2592 238.0906,750.8757 237.0976,752.0779 235.3528,755.2368 233.3454,761.7231 232.4169,767.0805 231.8172,773.1402 231.6028,786.887 232.2994,798.1236 233.7264,809.681 235.8797,821.1605 238.7539,832.2101 242.3407,842.5342 246.6257,851.8975 249.8591,857.5164 255.2486,864.9119 259.1804,869.1136 263.3612,872.7107 270.0451,876.95 277.1296,879.79 284.4805,881.235 291.9323,881.3042 296.8608,880.5991 301.683,879.302 308.5661,876.2618 314.8132,871.9292 320.183,866.3316 324.4511,859.5063 327.4297,851.5092 328.6309,845.5672 329.1762,839.1763 328.7506,828.8482 327.6509,821.5539 324.8363,810.1868 320.7394,798.5914 315.5336,787.1505 309.4299,776.3079 302.6641,766.547 295.4841,758.3561 290.5903,753.9923 285.6941,750.6404 283.2665,749.3729 278.4931,747.6975 276.1626,747.3007 271.6498,747.4011 269.481,747.8978 265.3491,749.7707 263.3973,751.1372 259.747,754.6954 258.0576,756.8692 254.9701,761.9523 251.1167,771.2241 248.2575,782.1271 246.4379,794.2401 245.6802,807.1354 245.9861,820.405 247.3414,833.6826 249.7202,846.6596 251.8563,855.0207 254.4159,863.083 259.0094,874.5265 262.5414,881.6823 268.4746,891.6712 272.8039,897.8281 279.7566,906.2955 287.1133,913.803 292.1483,918.2457 297.2137,922.2151 304.7159,927.2355 309.5455,929.9306 314.1483,932.0835 320.4616,934.2701 324.1716,935.0242 327.4065,935.217 330.1109,934.8568 332.2403,933.9568 333.7636,932.5342 334.6638,930.6098 334.9393,928.2079 334.2145,923.7683 333.0159,920.293 330.2545,914.3809 325.0797,905.3452 308.2725,878.138 300.0863,862.5414 295.8783,852.7531 293.4839,846.1324 291.4709,839.4967 289.8753,832.9068 288.3211,823.2571 287.8681,817.0902 288.0764,808.44 289.3332,800.7578 291.5869,794.3146 293.6018,790.8289 294.7508,789.3526 297.3072,786.9645 298.7035,786.063 301.7009,784.8624 303.2884,784.5675 306.6041,784.5904 311.807,786.1351 317.0741,789.4166 322.152,794.299 326.7814,800.6003 330.7119,808.1057 333.7185,816.5823 335.6184,825.7943 336.2855,835.5168 336.0123,842.1805 335.1599,848.9272 332.8186,859.1044 330.5829,865.875 326.3062,875.9455 322.908,882.5806 317.1294,892.4054 310.7212,902.0889 303.9081,911.6288 273.1374,952.2743 254.4702,977.9222 262.4768,964.785 274.5075,947.3038 285.8589,931.9796 307.4317,903.9522 315.412,892.6535 320.0594,884.6483 322.2563,879.3413 323.2032,874.7064 322.8226,870.82 321.0884,867.761 319.1884,866.2195 316.7116,865.1009 313.6831,864.4243 310.1351,864.2062 306.1059,864.4603 301.6388,865.1981 296.7808,866.4299 286.0907,870.409 274.4341,876.4559 268.3622,880.2722 262.1854,884.6282 252.8045,892.2003 243.3761,901.0619 233.9776,911.2475 224.659,922.757 215.4422,935.5389 209.3523,944.7097 200.2881,959.2917 191.318,974.5964 165.577,1020.0379 157.743,1032.8549 152.8494,1040.1116 146.1212,1048.5482 142.1124,1052.2922 138.5372,1054.3909 136.9249,1054.8019 135.4356,1054.7834 134.0733,1054.3362 132.8416,1053.4639 131.7435,1052.1723 130.7815,1050.4698 129.2727,1045.8764 128.3229,1039.7944 127.9362,1028.1972 128.3475,1019.0663 129.9021,1003.7486 131.512,992.7479 134.6783,975.5589 137.2168,963.9143 141.5282,946.5912 146.2674,929.8682 151.2312,914.1274 156.2189,899.642 162.5777,882.5689 178.232,844.0785"/>
    <polyline points="425.5394,777.0224 421.576,779.7724 419.6286,781.532 417.866,784.027 417.5047,785.5781 417.8068,787.0294 418.7667,788.3749 420.3649,789.6108 423.8857,791.2566 430.419,793.0719 440.811,794.79 452.5569,796.0235 477.1441,797.9685 485.4458,798.9755 489.1167,799.737 491.6907,800.6573 493.1154,801.7557 493.4164,802.5901 493.2006,803.5045 492.4759,804.4946 489.5551,806.6736 484.8141,809.0513 478.5002,811.5291 470.9599,813.9978 460.5136,816.9073 433.0067,823.3082 431.1461,823.9466 430.8156,824.4441 432.0745,824.8289 436.1902,825.2204 470.8637,826.7561 491.8651,828.2884 511.916,830.7515 526.8295,833.703 535.2287,836.1026 540.6496,838.1214 545.3048,840.3288 549.1994,842.7318 552.3493,845.3432 554.7775,848.1813 556.5106,851.2692 557.7847,855.8226 557.996,859.6058 557.3329,865.2079 556.1563,869.8785 553.7168,876.8132 547.1367,891.2356 534.5338,915.1021 505.2248,967.7126 494.53,986.1538 486.36,999.552 478.9885,1010.6755 474.2492,1016.9494 471.5659,1019.9575 469.3209,1021.9393 468.3764,1022.5299 466.8674,1022.895 465.8911,1022.1718 465.6105,1021.4072 465.622,1017.5581 466.9286,1011.5321 469.5153,1003.6006 473.3261,994.0981 476.5017,987.0738 486.3957,967.9348 498.5316,947.9042 509.3611,932.2291 520.7989,917.485 526.649,910.5886 535.5004,900.9319 547.3302,889.4357 559.1076,879.5634 570.8069,871.343 582.3599,864.8361 588.0377,862.2488 593.6165,860.1175 599.0663,858.4487 604.3538,857.2462 609.4426,856.5104 614.2945,856.2385 618.8702,856.4238 625.1296,857.5387 630.5507,859.6225 635.0197,862.6283 638.4452,866.5042 640.1179,869.5452 641.6873,874.7542 642.1328,880.7008 641.4932,887.3517 639.8374,894.6907 636.213,905.5294 631.2195,917.5021 623.5135,933.7989 614.7417,950.9995 605.4807,968.1437 596.2376,983.9202 589.1315,994.5282 584.0754,1000.7947 580.8632,1004.0058 577.7914,1006.3637 574.869,1007.8192 573.4661,1008.1988 572.1031,1008.3437 569.4992,1007.9295 568.2594,1007.3732 565.9059,1005.5762 562.6961,1001.2394 560.7728,997.3282 559.0247,992.6755 556.735,984.4701 554.3146,971.6736 552.6393,957.3804 551.7397,942.2429 551.6525,926.8257 552.4196,911.561 554.0901,896.7243 556.7206,882.4286 560.3716,868.6789 563.814,858.7635 567.8819,849.268 572.5873,840.3009 577.9314,831.9983 581.8429,826.9082 588.2115,820.0604 592.7701,816.0893 600.0242,811.1332 605.0953,808.5507 610.3107,806.5788 618.3008,804.8022 623.6566,804.4117 631.5688,804.9928 636.6542,806.1265 643.7974,808.8669 650.1077,812.7296 655.308,817.5451 658.0327,821.1905 660.0882,825.1136 661.4235,829.2522 661.8091,831.3828 662.0008,835.7274 661.8038,837.9262 660.0409,844.5396 656.5567,851.0305 651.45,857.223 644.8744,862.9604 639.7704,866.4644 634.1666,869.6695 624.9778,873.8482 618.4341,876.1745 611.6375,878.105 601.112,880.2137 590.3666,881.3246 579.5685,881.3882 568.8448,880.3632 558.2794,878.2121 547.9116,874.9003 537.7546,870.3994 531.1178,866.7285 521.417,860.2129 515.1629,855.2023 506.1956,846.7151 500.5579,840.4411 492.7342,830.1922 488.0149,822.8731 483.7523,815.2411 478.3198,803.3915 475.4009,795.3745 472.1625,783.4809 470.7986,775.8457 469.975,765.2197 470.6113,756.0652 471.8236,751.0376 473.6392,747.0317 474.7637,745.4484 477.4237,743.179 480.5974,742.1584 484.2399,742.4176 488.3028,743.955 490.476,745.1949 495.0733,748.5866 499.9618,753.1356 507.7276,761.9277 515.8661,772.739 527.0391,789.5227 538.3094,807.9796 560.3454,845.6948 573.4377,867.4139 587.92,889.9163 611.0659,923.6177 613.4394,927.547 613.7481,928.4506 613.4453,928.6327 610.9593,926.8217 604.2809,920.5004 582.4045,897.9884 560.9372,874.9699 512.1083,821.6716 481.494,789.4117 454.9729,762.9041 434.7689,743.9386 421.6024,732.3233 409.0223,721.9309 397.3557,713.1004 386.9417,706.1419 378.1117,701.3129 374.3864,699.7575 371.1661,698.7961 368.4795,698.4373 366.3507,698.6833 364.7983,699.5324 363.8352,700.9789 363.4681,703.0133 363.6976,705.6229 364.5201,708.791 367.9104,716.7207 373.5348,726.6084 385.7969,744.5887 396.202,758.281 408.0867,773.0035 428.0512,796.3913 449.6733,820.5357 521.7045,897.6369 546.288,924.6769 571.3683,953.7179 599.4827,988.2302"/>
    <polyline points="480.3913,534.8275 506.0832,513.8574 555.7318,471.4237 575.6004,455.3946 591.2634,443.7804 601.9433,436.4978 612.7067,429.7501 623.4428,423.6751 639.215,416.1028 649.3011,412.2452 658.8668,409.4481 663.4057,408.4696 671.898,407.385 679.4835,407.4887 682.8909,407.9895 688.8516,409.8788 691.3744,411.2568 693.5741,412.9133 695.4388,414.8384 696.9581,417.0201 698.1234,419.4452 698.9277,422.0992 699.3658,424.9663 699.4345,428.03 698.4596,434.6775 697.4202,438.2257 694.2688,445.6811 692.1771,449.5526 687.0294,457.4976 684.0066,461.5385 677.1578,469.681 665.191,481.8453 651.7175,493.6787 637.3129,504.9474 617.5353,518.8256 597.9686,531.2142 574.748,544.5395 553.4246,555.6023 534.0585,564.6388 513.5077,573.042 494.1861,579.7345 476.9758,584.485 491.111,582.0504 508.1857,579.9666 525.5894,578.6992 540.86,578.4238 556.1171,579.1308 568.0169,580.5342 579.3979,582.7541 589.9549,585.8215 599.3333,589.7309 603.4645,591.9886 607.1634,594.436 610.3877,597.0606 613.0989,599.8468 615.2635,602.776 616.8539,605.827 617.8493,608.9754 618.2358,612.1943 618.0075,615.4544 617.1663,618.7248 615.7236,621.9735 613.7001,625.1678 611.1249,628.2746 608.0342,631.261 602.5246,635.4446 593.7966,640.3116 586.4291,643.3099 578.535,645.6653 570.2569,647.3213 561.7136,648.2418 552.9946,648.4124 541.1994,647.49 532.3082,645.9807 520.5683,642.9907 509.22,639.0555 498.5983,634.3901 489.0737,629.2166 481.026,623.7441 474.8071,618.1547 471.5193,613.9766 469.5101,609.8666 468.907,607.1841 468.8997,604.5585 469.4844,601.9976 470.6477,599.5075 472.366,597.0936 474.6065,594.7602 478.8552,591.4199 484.0218,588.2825 489.9214,585.3615 503.1495,580.2374 517.074,576.2273 526.137,574.2832 532.6191,573.2542 540.6758,572.5055 546.1939,572.4451 552.7606,573.0811 557.0459,574.1247 561.8412,576.3064 564.6941,578.5508 566.8557,581.321 568.273,584.6113 568.7775,587.086 568.9104,589.7763 568.3769,594.1911 566.9167,599.0152 564.481,604.1813 561.0267,609.6064 556.5151,615.1951 550.9094,620.8407 546.5467,624.5793 536.2955,631.834 530.4131,635.2761 524.0435,638.5455 517.2113,641.6065 509.9522,644.4248 502.3138,646.9685 494.3565,649.2089 481.9869,651.9468 465.1712,654.3378 448.7998,655.2138 441.0917,655.0799 433.876,654.5741 427.2824,653.7107 418.8272,651.7912 414.3098,650.1336 410.7988,648.2097 408.3673,646.0533 407.0659,643.6992 406.9209,641.1829 407.9325,638.5392 410.0703,635.8019 415.243,631.5896 419.8589,628.7527 428.2218,624.5179 437.8846,620.3712 451.9317,615.0755 495.318,600.4712 509.7526,595.1434 516.6937,592.0211 520.453,589.8726 522.9924,587.8657 524.3542,585.9766 524.6367,584.7704 524.1759,583.0223 522.7308,581.3249 520.4046,579.653 514.9025,576.855 498.6539,570.1351 492.5251,567.3122 486.8927,564.187 482.1091,560.6904 478.4716,556.7468 476.6338,553.4449 475.8713,551.0573 475.4942,548.5053 475.664,544.3368 476.266,541.3103 477.8788,536.3689 480.2895,530.9176 483.4124,524.9373 510.4974,479.4531 534.0815,437.3733 538.7981,430.0157 541.6581,426.666 542.7658,425.8884 544.0085,425.8433 544.5495,426.5371 544.9163,428.584 544.5464,432.9317 543.6022,437.1301 542.0697,441.859 539.938,446.8587 537.2008,451.8725 535.0394,455.1027 531.2978,459.6144 528.4772,462.3134 523.7768,465.7704 520.3487,467.6183 516.7055,469.0603 512.8697,470.0697 508.8687,470.6265 504.7341,470.7177 500.5022,470.3367 496.2135,469.4847 489.7711,467.3455 483.462,464.2335 477.4578,460.253 471.9324,455.5457 467.0546,450.2871 462.9781,444.681 459.833,438.9523 458.3037,435.1819 457.2527,431.5333 456.5955,426.4401 456.7709,423.3932 457.4256,420.6949 458.538,418.397 460.0771,416.5431 462.0031,415.1679 464.2687,414.2954 468.1859,413.9557 471.0575,414.3738 474.0653,415.2905 480.2378,418.492 486.2098,423.1989 490.279,427.4234 493.8012,431.9829 497.3813,438.1654 499.0593,442.5785 499.6369,445.2951 499.7503,447.7654 499.0026,450.9017 497.1098,453.2311 494.0541,454.6444 491.3788,455.0391 488.2101,454.9784 482.588,454.0179 476.0342,452.0208 468.7169,449.0306 460.8498,445.1306 452.6876,440.4433 444.5181,435.1286 436.6502,429.3798 427.1715,421.424 421.2077,415.552 416.5146,410.0367 413.2935,405.1175 411.6749,401.0112 411.7082,397.8991 412.0825,397.1073 413.3545,395.9147 415.2847,395.2589 417.8099,395.1473"/>
    <polyline points="546.7591,281.3897 517.0445,267.4655 450.1852,236.9568 421.7929,223.254 407.9055,216.0388 394.6441,208.6074 382.3284,200.9691 371.2689,193.1335 361.7541,185.1204 354.0387,176.961 350.9234,172.8394 348.3328,168.6981 346.2844,164.5445 344.7924,160.3863 343.8666,156.2321 343.5129,152.0912 343.7331,147.9732 344.5245,143.8888 345.8785,139.8489 347.7805,135.8648 350.2095,131.9485 353.1396,128.1122 356.5397,124.3683 360.3747,120.7294 369.1928,113.817 379.258,107.4751 390.2153,101.8007 401.7122,96.8844 413.4154,92.8076 425.0238,89.64 436.2747,87.4369 446.9471,86.2377 456.8606,86.0645 465.8728,86.9209 473.8746,88.7888 480.7849,91.6258 486.5461,95.3677 491.1188,99.9323 494.4779,105.2238 495.6977,108.1096 497.213,114.293 497.4951,120.9345 496.5486,127.927 494.3901,135.1691 491.0524,142.5687 486.5856,150.0443 481.0582,157.5265 470.974,168.6424 463.2189,175.9225 454.7962,183.0667 441.2625,193.5004 400.2549,222.9581 392.4044,229.2334 385.4598,235.4341 379.602,241.5594 377.1305,244.5919 373.1865,250.5899 370.6609,256.4854 369.6253,262.2586 369.6777,265.0919 370.1112,267.8851 370.9228,270.6346 373.6504,275.9871 377.768,281.1165 380.306,283.5869 386.234,288.317 396.884,294.819 408.994,300.5067 421.8204,305.2759 434.6685,309.0417 446.9373,311.7439 454.5495,312.9379 461.5704,313.6434 467.9063,313.8662 473.4835,313.6189 478.2456,312.9213 482.1512,311.8014 485.1716,310.2939 487.2891,308.4402 488.4951,306.2864 488.789,303.8825 488.1778,301.2813 485.6036,297.1272 482.8295,294.2684 479.2634,291.3992 474.9662,288.57 470.0114,285.8284 458.4862,280.7815 445.5166,276.5694 438.7936,274.8571 428.7855,272.8541 419.2823,271.5925 413.4543,271.1922 408.1832,271.1606 403.5871,271.5083 399.77,272.2422 396.8183,273.3649 394.7984,274.8744 393.7541,276.7641 393.605,277.848 394.0537,280.2837 396.5447,284.5664 401.0399,289.5191 409.5893,296.9472 422.9642,307.0159 442.9114,320.9142 459.7778,332.0328 469.2402,337.4007 471.8471,338.2794 472.3821,338.2899 472.9434,337.8871 472.5112,336.2521 471.3845,334.517 467.2183,329.7028 460.7689,323.5004 452.5072,316.473 440.6021,307.4258 428.3545,299.0807 415.5243,291.2158 405.2108,285.7818 415.6602,291.9644 440.245,305.207 457.041,313.7555 467.6056,318.6469 477.0407,322.3488 484.9681,324.4968 488.2824,324.9091 491.1322,324.8569 494.5007,323.9005 496.7529,321.9236 497.6289,320.0804 498.0082,317.861 497.8986,315.3129 497.3127,312.4899 494.7886,306.259 490.6433,299.669 486.6417,294.7933 480.4,288.7573 475.2635,284.8047 469.9481,281.5083 462.9304,278.3344 456.4323,276.7372 452.1746,276.6462 449.7257,277.1233 447.6403,278.0274 445.2716,280.1578 443.8925,283.1564 443.5479,285.5903 443.6673,288.3297 445.2597,294.5489 448.4918,301.4106 453.045,308.4467 459.9529,316.7225 467.359,323.5298 473.0401,327.3662 478.063,329.4479 480.2201,329.7792 482.914,329.3775 484.8754,327.9353 485.7409,326.4408 486.2357,324.5667 486.0823,319.8865 484.408,314.3565 481.3017,308.4766 478.1404,304.1329 473.0306,298.7897 468.7128,295.3314 464.1643,292.4955 458.0607,289.8634 452.3333,288.7028 448.5568,288.8566 446.3851,289.4531 444.5452,290.4389 442.4944,292.6192 441.6469,294.5109 441.2424,296.7214 441.4944,300.5594 443.4323,306.4325 447.0674,312.8214 452.1043,319.3145 459.7329,326.9352 466.3125,332.1514 474.3318,337.027 480.0427,339.3315 482.5325,339.9091 485.7012,340.0517 488.0986,339.3554 489.647,337.8907 490.1817,336.5389 490.3086,334.9317 489.7307,332.1378 488.2506,329.0254 485.9217,325.7567 482.831,322.4882 479.0976,319.363 474.8708,316.5049 470.3258,314.015 465.6586,311.9695 461.0792,310.4195 456.803,309.3913 451.9359,308.8343 448.437,309.1566 447.3201,309.6151 446.6742,310.2478 446.6441,311.4755 447.7803,312.9646 450.0761,314.6264 453.4682,316.3691 461.2313,319.2087 470.9665,321.6312 481.7998,323.312 492.8769,324.0282 501.4211,323.8343 511.2343,322.6445 518.1526,321.0089 524.1177,318.8745 529.0865,316.3659 533.0724,313.6141 536.7699,310.0187 539.2354,306.4328 540.9675,302.33 543.1516,293.9856 544.206,291.8505 545.8177,289.7672 548.8869,287.191 552.3748,285.1314 556.9212,283.0731 562.6232,281.0364 573.4244,278.1113 584.418,275.8994 596.9814,273.9914 613.4928,272.2124 630.4322,271.0754 648.6194,270.5907 662.4839,270.9104 667.5356,271.3571 670.1302,271.9068"/>
    <polyline points="174.5701,460.0741 154.7199,458.6109 146.7028,457.6061 138.9801,456.2447 133.6275,454.8925 129.4948,453.3234 126.9726,451.5757 126.414,450.6529 126.3629,449.7096 126.8394,448.7565 127.8543,447.8052 131.4932,445.9565 137.1721,444.2593 142.6307,443.1397 151.2534,441.9134 161.0842,441.0465 180.1532,440.4928 194.5328,440.8456 209.1793,441.7393 263.5465,446.9616 283.905,448.5821 305.6312,449.6641 320.4235,449.6977 309.346,449.8669 294.5029,450.7722 280.1586,452.1859 268.7079,453.8776 259.1543,455.991 253.1454,458.0258 249.1846,460.2362 247.8615,461.6069 247.4346,462.5239 247.4924,463.8833 248.4014,465.1962 250.1695,466.4305 252.7938,467.5531 260.5411,469.3414 271.3534,470.3642 282.2847,470.549 294.3843,470.1083 306.8996,469.0727 318.9085,467.5168 329.3989,465.5531 337.3948,463.3232 340.6536,461.9234 342.1043,460.9866 342.9493,460.059 343.1757,459.1505 342.3555,457.8407 340.1896,456.6125 336.7887,455.4782 332.3182,454.4421 318.9276,452.3786 279.6875,447.8355 271.0929,446.1802 269.0501,445.4823 268.6147,445.1924 268.6905,444.8526 272.9473,444.6529 282.0677,445.6857 292.3521,447.6326 301.3314,449.9648 307.8858,452.2504 312.7893,454.7202 314.6731,456.238 315.4232,457.2482 315.7447,458.2479 315.6261,459.2295 315.0648,460.1858 313.4097,461.558 308.6601,463.628 301.8987,465.3579 292.156,466.9048 281.9296,467.8253 271.0377,468.1033 262.6771,467.5906 257.7733,466.425 256.7108,465.5516 256.961,464.6044 258.5207,463.6573 260.5246,462.9933 267.7459,461.7809 276.2852,461.2963 284.5137,461.3544 294.9202,461.9419 320.0282,464.8799 322.2045,464.8501 320.8826,463.7577 304.2142,455.1085 283.004,443.2016 278.4134,441.3772 276.9174,441.3509 276.2215,441.7085 275.7628,442.3817 275.5036,443.9974 276.1152,448.2908 284.3617,476.1252 287.0553,488.9129 287.7054,495.8959 287.6427,500.8424 287.0601,505.4815 285.9366,509.7762 284.2725,513.7022 281.2493,518.3404 277.3942,522.2892 272.8374,525.5568 267.73,528.1634 260.8058,530.5314 255.0052,531.7461 247.6107,532.4534 240.1864,532.2906 231.2832,530.9637 222.2406,528.389 212.7128,524.5372 198.4008,517.407 136.0258,483.7378 112.5323,471.7681 102.2228,466.9619 124.9522,481.5426 132.2585,486.753 139.2339,492.2365 145.4069,497.7926 149.2709,501.9033 153.1457,507.1953 154.9576,510.9613 155.5998,513.3543 155.769,515.6432 155.1111,518.8663 153.3462,521.8213 150.4916,524.495 146.6009,526.8777 139.9663,529.589 134.0836,531.2644 125.3787,533.0071"/>
    <polyline points="116.8549,300.6487 169.1124,278.8534 275.6441,232.4812 310.8541,216.6371 330.3878,207.0611 342.2577,200.6437 352.9264,194.1955 362.1655,187.7211 366.1827,184.4777 372.8948,177.9898 375.5489,174.7513 377.7117,171.5212 379.3691,168.3035 380.5096,165.1029 381.1246,161.9243 381.2083,158.7731 380.758,155.655 379.7747,152.5761 378.2642,149.5429 376.2373,146.5619 373.7089,143.6401 370.6986,140.7847 363.3279,135.3023 354.346,130.174 344.0087,125.4598 338.4164,123.2763 326.5552,119.2919 314.0109,115.8618 301.0268,113.034 287.8161,110.8497 274.5563,109.3419 254.8706,108.3977 235.6961,109.0637 217.1746,111.318 199.3,115.0716 182.0276,120.1758 165.4127,126.436 154.7752,131.1421 144.5649,136.1938 134.862,141.5221 125.756,147.0616 117.3428,152.7518 109.7202,158.5388 99.9765,167.3007 94.7346,173.1421 90.5824,178.9508 88.9335,181.8364 86.5177,187.5615 85.3002,193.2188 85.1442,196.0212 85.7329,201.5753 87.4969,207.0688 88.8028,209.7966 92.2139,215.2241 99.1363,223.3171 107.8574,231.3686 117.9131,239.3717 132.5733,249.9039 162.4233,269.822 193.4884,289.6945 206.5307,296.9387 211.2601,298.8363 213.726,299.4001 215.6328,299.3829 216.9713,298.7756 217.7313,297.5786 217.8909,296.7616 217.762,294.7015 217.0258,292.0939 214.7599,287.2276 211.0753,281.3374 205.9512,274.581 199.3835,267.127 191.3943,259.1431 178.6386,247.9435 171.4329,242.1977 159.7304,233.4907 142.836,221.8466 103.425,195.9797 91.404,187.514 84.1146,181.9429 74.6125,173.7464 69.4155,168.4263 65.2545,163.2563 63.5903,160.7377 61.1369,155.8544 59.8892,151.2058 59.7256,148.9805 60.3204,144.7499 61.0734,142.753 63.4599,139.0168 65.0744,137.2851 69.084,134.1118 71.4489,132.6765 76.8136,130.1219 86.1612,127.1097 96.5857,125.1082 103.8641,124.3375 111.2259,124.0099 122.1196,124.317 129.1022,125.0217 135.737,126.0917 141.9347,127.4902 147.6208,129.1757 152.7339,131.1027 157.2246,133.2229 161.0535,135.4865 164.1899,137.8432 166.6104,140.2429 168.8622,143.8177 169.4275,147.2262 168.8586,149.3367 167.5347,151.2737 165.466,153.004 161.01,155.1485 155.0244,156.6797 147.6602,157.5348 142.0834,157.7074 132.9026,157.3495 123.0098,156.2414 112.7508,154.3903 105.8981,152.7567 95.9033,149.7411 89.6118,147.3823 81.0393,143.3833 76.0702,140.4547 69.9944,135.7572 66.9883,132.4819 64.8955,129.144 63.7606,125.7916 63.6064,122.4752 64.4329,119.2469 66.2142,116.1594 67.4471,114.6848 70.552,111.9064 74.4319,109.3971 78.9791,107.2039 84.0722,105.3702 92.4521,103.3753 101.3261,102.3771 107.3052,102.3004 113.198,102.7083 118.8992,103.6024 124.3148,104.9749 129.3631,106.8086 133.9742,109.0781 139.9465,113.2248 143.2325,116.4249 147.034,121.763 149.4153,127.5971 150.3334,133.7562 149.7769,140.0736 147.7688,146.3939 144.3753,152.5777 139.707,158.5035 133.9196,164.0681 129.5366,167.5344 124.8139,170.7806 117.2641,175.1971 106.7864,180.1615 94.093,184.7503 83.2513,187.416 78.21,188.0479 75.612,188.0538 72.9942,187.427 72.1544,186.5799 72.0602,185.3868 72.7114,183.8472 76.1555,179.7368 101.4115,157.6909 110.8818,148.8203 122.0318,137.0521 129.7504,127.5718 137.2872,116.3895 140.5137,110.4012 142.7105,105.1985 143.8686,100.9625 144.008,97.8447 143.1746,95.9585 141.4424,95.3705 139.8373,95.7097 136.8445,97.2918 133.2758,100.0833 129.2899,103.945 125.0589,108.6929 120.7635,114.1125 113.9568,124.0116 108.2955,134.0758 104.5019,143.3396 103.3555,148.1726 103.1121,151.0013 103.3008,153.4724 103.9257,155.5541 104.9818,157.2181 106.4555,158.4404 109.3983,159.4009 111.8029,159.4351 114.5174,158.9696 119.0744,157.3185 125.8073,153.3414 131.1363,149.0688 136.5258,143.768 141.8269,137.5484 146.9055,130.5586 153.128,120.3683 158.5032,109.6813 162.8324,99.1212 165.9577,89.3581 167.9922,79.2767 168.1535,74.7947 167.8069,72.5795 167.0949,71.0296 166.0198,70.1704 163.7414,70.1967 161.7957,71.0797 159.528,72.624 154.1208,77.5011 147.7573,84.3082 133.499,101.0145 114.5959,124.0663 109.3515,131.3294 108.2616,133.5486 108.1534,134.4837 108.938,135.0722 111.7159,134.3827 120.7649,129.5538 131.5695,122.6244 155.7565,106.1202 166.7462,99.3329 174.5835,95.6611 179.824,94.3832 183.115,94.481 184.9983,95.0551 186.6323,96.0264 188.0177,97.3766 189.1561,99.0796 190.7024,103.4059 191.2968,108.678 190.9683,114.5159 189.75,120.5255 187.6851,126.3296 185.617,130.3408 183.1408,133.9173 180.2976,136.9508 178.222,138.6262 174.8795,140.5635 171.3179,141.7584 167.6072,142.1693 165.0884,141.9954 161.3039,141.0576 158.8141,139.9863 155.1958,137.7345 152.9004,135.8262 150.7297,133.6171 147.7648,129.7994 145.2232,125.477 143.181,120.7835"/>
  </g>
</svg>
