<?xml version="1.0" encoding="utf-8" ?>
<svg xmlns="http://www.w3.org/2000/svg" xmlns:cc="http://creativecommons.org/ns#" xmlns:dc="http://purl.org/dc/elements/1.1/" xmlns:ev="http://www.w3.org/2001/xml-events" xmlns:inkscape="http://www.inkscape.org/namespaces/inkscape" xmlns:rdf="http://www.w3.org/1999/02/22-rdf-syntax-ns#" xmlns:sodipodi="http://sodipodi.sourceforge.net/DTD/sodipodi-0.dtd" xmlns:xlink="http://www.w3.org/1999/xlink" baseProfile="tiny" height="29.7cm" version="1.2" viewBox="0 0 793.7007874015749 1122.5196850393702" width="21.0cm">
  <metadata>
    <rdf:RDF>
      <cc:Work>
        <dc:format>image/svg+xml</dc:format>
        <dc:source/>
        <dc:date>2022-05-22T14:26:51.486425</dc:date>
      </cc:Work>
    </rdf:RDF>
  </metadata>
  <defs/>
  <g fill="none" id="layer1" inkscape:groupmode="layer" inkscape:label="1" stroke="#00f" style="display:inline">
    <polyline points="309.7865,691.98 311.7281,699.7497 313.4109,703.7553 314.9494,706.4738 316.7236,708.9019 318.7304,711.0019 320.965,712.7396 323.4212,714.0849 326.0911,715.0128 328.9659,715.5037 332.0353,715.5441 335.2885,715.1261 341.087,713.408 348.5962,709.6991 353.8898,706.2814 360.779,701.0381 366.474,696.1477 373.7799,689.2911 387.3207,675.3676 426.246,633.2372 438.9163,620.6706 450.1386,610.5372 463.2748,600.0966 477.0103,590.9375 489.8222,583.9641 503.6397,577.9141 516.4068,573.4264 532.4181,568.9677 549.5345,565.3057 567.4789,562.3925 588.3772,559.9048 608.6893,558.2097 629.2063,557.0813 658.3233,556.1605 637.4662,552.8015 622.9266,549.3031 616.3142,547.1783 609.9088,544.6579 603.9071,541.7142 599.78,539.2142 594.9063,535.4756 591.8013,532.3601 589.2261,528.9735 587.2245,525.3149 585.8321,521.3864 585.0762,517.1934 584.9757,512.7447 585.541,508.053 586.7755,503.1355 588.6749,498.0135 591.2271,492.7126 595.6092,485.417 599.5903,479.8176 604.1213,474.1496 609.1512,468.4539 616.5271,460.8925 630.7718,448.0684 647.8327,434.7587 658.0577,427.5733 667.3034,421.5146 677.6111,415.2478 685.0973,411.1867 676.2568,415.9619 658.8339,424.5933 615.5558,444.7257 575.1829,462.3322 563.959,466.7282 560.5927,467.8026 559.389,467.8768 560.8143,466.6832 565.2927,464.1917 580.7602,456.8486 599.0789,449.0852 617.957,441.7873 637.2814,434.9885 654.726,429.511 669.0783,425.7939 673.579,425.0925 675.0783,425.2861 674.9114,425.8753 673.6219,426.8393 667.7281,429.8395 644.0613,439.472 621.6217,447.7279 599.4519,455.4497 576.338,463.0718 556.6822,469.1385 537.8075,474.4727 522.9949,478.1845 509.1973,481.1112 496.51,483.1704 482.7917,484.4233 470.6714,484.3154 460.0355,482.8789 455.238,481.6932 449.3521,479.6719 441.558,475.8264 434.9164,471.2445 431.0764,467.9392 426.8773,463.7157 415.2866,450.2745 413.6624,449.0787 412.5324,448.6509 411.4583,448.657 410.4234,449.1185 408.7427,450.9386 407.0598,454.0948 403.0894,465.5783 398.4766,482.4143 382.2196,545.231 377.0485,566.0654 374.0234,579.8796 371.874,592.3914 370.7687,603.5494 370.7284,612.1397 371.7382,620.5185 373.778,627.2674 375.1277,630.0111 377.0624,632.8475 378.7641,634.6497 381.0213,636.3422 383.3526,637.4538 385.6832,638.0458 387.9412,638.1959 390.4602,637.9234 393.0047,637.2131 396.5568,635.6877 396.9209,635.8533 388.8013,653.7399 381.9567,672.3173 375.9769,692.6843 371.8564,711.2798 370.3478,720.5459 369.3267,729.4386 368.872,737.6734 368.9605,743.597 369.68,749.9472 370.7658,754.0379 372.3175,757.144 374.3388,759.1977 376.8264,760.1626 378.2421,760.2348 380.5756,759.838 384.066,758.3969 389.005,755.2322 398.1079,747.502 418.3424,727.7467 428.8356,718.147 438.248,710.6634 448.0267,704.3946 453.0591,701.8523 458.1955,699.7669 467.016,697.4113 472.4877,696.7211 476.2214,696.5771 481.9671,696.848 485.9036,697.3582 494.057,699.1781 504.8217,702.9487 513.9232,707.1343 525.9276,713.749 538.6093,721.7581 551.8997,730.9473 568.4703,743.1279 610.3921,774.8455 623.4123,784.2159 633.0355,790.7186 645.6433,798.2864 654.0338,802.1942 657.9865,803.3781 660.1328,803.6645 661.8713,803.5446 663.692,802.606 664.3717,801.4818 664.6212,799.9691 664.4422,798.0806 663.3816,794.5781 659.5822,787.1227 653.4446,777.9782 645.2863,767.5923 635.5004,756.4554 624.5294,745.0713 615.2125,736.1164 603.2827,725.4997 593.7916,717.7267 582.3429,709.2144 573.7494,703.556 563.9873,698.1235 557.1329,695.2005 552.6264,693.8794 549.9469,693.4225 545.4128,693.5348 543.5747,694.1037 542.031,695.0114 540.7866,696.2539 539.8449,697.8255 538.8763,701.9243 538.8497,704.4315 539.3781,708.7295 541.7474,717.1934 544.9395,724.9617 549.2253,733.4141 554.532,742.3297 560.767,751.4574 565.9848,758.2768 571.6046,764.9366 577.5621,771.3096 583.7851,777.2678 590.1935,782.6861 596.6997,787.4454 601.0451,790.198 607.5009,793.624 613.7895,796.133 619.8033,797.6601 623.6059,798.1105 628.9197,797.9169 633.6711,796.6769 637.7591,794.4057 640.0697,792.3351 642.8512,788.432 644.7475,783.6313 645.7003,778.0139 645.7903,773.8614 645.0873,767.0979 644.0539,762.2804 641.6556,754.6779 639.4958,749.4104 635.4317,741.3014 632.1875,735.81 626.5519,727.5352 622.3053,722.0455 615.247,713.9372 610.1119,708.6641 601.8193,701.0317 595.9306,696.1713 583.3925,687.1211 569.9933,679.129 555.9086,672.368 541.2974,666.9835 533.8377,664.8454 526.2949,663.0938 518.6813,661.7392 511.0071,660.7907 503.28,660.2557 495.5056,660.14 483.7612,660.7617 475.8763,661.7103 467.9437,663.0881 459.9602,664.8954 451.9253,667.131 443.8415,669.7926 435.7143,672.8761 419.3676,680.2837 402.993,689.2836 386.7502,699.768 370.8502,711.5837 363.1076,717.9289 351.8537,727.9075 337.7255,741.8792 331.1292,749.0561 321.937,759.9253 316.3373,767.1636 308.8295,777.867 304.4729,784.8122 298.9938,794.7884 296.0863,801.0523 292.8993,809.7105 291.5806,814.9017 290.8335,821.674 291.5656,827.0747 292.8658,829.8398 294.8025,831.8952 296.0045,832.6482 298.8639,833.5921 302.3113,833.7762 304.2475,833.5816 308.5271,832.6196 315.9057,829.7597 324.3322,825.2475 330.4709,821.3618 340.3639,814.2982 350.9604,805.8728 362.127,796.2417 381.6538,777.9888 401.8445,757.7453 422.2159,736.4067 465.9326,689.7025 488.5287,666.4414 502.9989,652.3933 513.4983,642.7587 523.6519,633.9631 533.4112,626.0515 545.7114,616.934 557.0583,609.4977 567.2885,603.7687 576.2371,599.7518 583.7484,597.4339 586.9214,596.9043 590.9113,596.8842 593.0408,597.3798 594.735,598.2765 595.9878,599.5692 597.0322,602.2387 597.0756,605.768 595.6013,611.7751 592.4348,619.2172 587.6695,628.0252 581.4257,638.1115 571.7586,652.3432 562.7263,664.8479 550.0804,681.5652 527.4406,709.6679 515.3099,723.684 505.9524,733.8829 496.4135,743.6263 486.7197,752.7402 476.8875,761.0504 470.2588,766.0602 463.5715,770.5899 456.8273,774.595 450.0296,778.0347 443.1834,780.8731 436.2955,783.0793 429.3746,784.6285 422.4312,785.5025 415.4777,785.6895 405.0603,784.6731 398.1483,783.1341 391.2843,780.9155 384.4893,778.0313 377.7855,774.5002 371.1969,770.3456 364.7486,765.5952 358.467,760.28 349.4168,751.3248 343.672,744.7546 335.5574,734.0995 330.5228,726.5236 323.5996,714.5567 317.5037,701.9917 313.936,693.3506 309.375,680.089 306.883,671.1007 304.8428,662.0333 303.2616,652.9171 302.1425,643.7792 301.3278,630.0828 301.3525,620.9875 302.2155,607.4358 303.321,598.4779 305.7297,585.1712 308.9746,572.0259 312.9717,559.0497 317.627,546.2654 322.838,533.7116 328.4963,521.442 336.5423,505.6435 344.9145,490.6664 355.4347,473.4452 365.5574,458.3392 374.8343,445.829 382.8742,436.3456 389.3496,430.2204 391.441,428.7584 393.9992,427.6423 395.8286,427.8132 396.8985,429.2459 397.1866,431.8972 396.937,434.3127 395.3678,440.6005 392.37,448.6562 387.9597,458.2405 382.1757,469.0901 376.9736,477.8913 368.9566,490.2876 362.1968,499.9306 347.0328,519.63 338.7882,529.4843 327.3246,542.425 306.7455,564.0238 269.8501,600.7273 258.6472,613.0039 252.466,621.3085 249.8423,626.5475 249.3354,628.6651 249.3676,630.4328 249.9333,631.8405 251.0221,632.8786 253.6013,633.7251 257.2504,633.6983 261.8761,632.7803 267.3659,630.957 273.5908,628.2175 280.409,624.5535 287.6691,619.9589 292.6771,616.3763 300.3229,610.2189 305.4404,605.5889 315.5149,595.056 320.3818,589.1446 325.0775,582.7955 331.711,572.4346 337.7381,561.0515 343.0411,548.6373 347.5152,535.1983 351.0692,520.7602 353.6263,505.3729 355.1245,489.1148 355.5168,472.0984 354.7715,454.4739 353.6328,442.4794 351.9773,430.3668 348.5252,412.1458 343.9207,394.1264 338.1888,376.6413 331.3705,360.0544 323.5246,344.7493 317.761,335.4498 314.7295,331.1135 308.3874,323.1356 305.0856,319.5196 298.2446,313.0931 294.7162,310.3042 287.4722,305.6231 283.7692,303.7472 276.2346,300.9572 272.4171,300.0528 264.7195,299.2408 256.9914,299.7643 253.1366,300.5255 245.4887,303.0368 237.9829,306.8436 230.692,311.9068 227.1503,314.894 220.3207,321.7425 213.8902,329.6992 207.9299,338.6873 202.5075,348.6225 197.6856,359.414 193.5208,370.9662 190.0618,383.1808 188.6099,389.5054 186.2819,402.5264 184.7413,415.9612 184.2712,422.8035 183.9348,436.6792 184.4003,450.7348 185.6553,464.8851 187.6784,479.0515 190.4397,493.162 195.8797,514.0842 200.3021,527.7903 205.2965,541.2497 210.801,554.4258 216.7485,567.2897 223.0684,579.8203 229.6869,592.0036 236.5279,603.8302 247.0388,620.8701 264.5845,647.2171 287.3029,678.9594 320.4189,722.8788"/>
  </g>
  <g fill="none" id="layer2" inkscape:groupmode="layer" inkscape:label="2" stroke="#080" style="display:inline">
    <polyline points="313.169,798.5932 311.1405,776.3902 308.479,755.3947 305.0437,733.1077 300.9751,710.3926 296.446,688.0096 290.6861,662.4553 272.5214,590.0263 269.9012,576.7717 268.7176,566.0723 268.8678,558.9698 269.4409,555.4507 270.3553,552.4586 271.5862,549.9674 273.1021,547.9499 274.8659,546.3773 276.8357,545.219 279.7026,544.2637 282.7369,543.9087 286.5792,544.182 290.2544,545.0968 293.5397,546.4871 296.6963,548.5557 298.4923,550.4307 299.4908,552.6423 299.1498,554.5894 297.4847,556.0556 294.6073,556.8454 290.7187,556.7834 286.9048,555.9679 282.7753,554.3704 278.5444,551.9167 275.2366,549.2923 272.1197,546.0472 269.972,543.1903 268.0331,539.9606 266.34,536.3511 264.9238,532.3569 263.8094,527.976 262.6679,519.8193 262.4173,512.5412 262.7458,504.6259 263.6181,496.1201 264.9748,487.0896 268.2608,470.297 277.7188,428.3111 279.8636,417.104 281.0835,409.0013 281.8331,400.2731 281.7233,394.6226 280.6194,389.4512 278.9363,386.9384 277.2094,386.0289 274.3112,386.1074 271.7197,387.1042 267.7685,389.6073 263.3432,393.3295 258.567,398.1037 248.5599,410.0019 239.0809,423.528 234.982,430.3196 231.5311,436.8306 228.8672,442.8523 227.0982,448.1955 226.4025,451.6564 226.3435,455.4268 226.9486,457.556 228.0928,459.0411 230.4051,459.9685 232.6742,459.8499 235.3423,459.0237 238.3461,457.4904 241.6155,455.259 245.0748,452.3475 248.6452,448.7829 252.246,444.6018 258.0974,436.3947 263.4548,426.888 267.9982,416.4416 271.4608,405.4923 273.3159,396.707 274.2825,388.201 274.192,378.4018 273.4459,373.1808 272.6678,370.0449 270.469,364.7384 268.2963,361.7072 266.6214,360.1793 264.7826,359.0652 262.7964,358.3769 259.5809,358.158 256.1423,358.9198 252.5542,360.6481 248.8952,363.3096 245.2477,366.8521 241.6954,371.2066 236.2132,380.0345 233.3171,386.1104 230.8058,392.6356 227.6458,404.1902 225.9606,416.114 225.717,423.2196 225.8827,427.8674 226.9973,436.8106 229.1213,445.097 232.178,452.5296 236.0538,458.9452 240.6045,464.2156 243.0811,466.3911 246.9841,469.0559 252.4149,471.4658 255.1733,472.1765 259.2968,472.6278 264.6463,472.1053 267.2072,471.3776 270.8479,469.7288 273.1136,468.2749 276.2275,465.5954 278.0918,463.499 280.5389,459.933 281.9224,457.3029 283.6063,453.0316 285.333,445.2392 285.7039,436.9569 284.7835,428.6303 283.2066,422.2552 280.9882,416.4023 278.2509,411.3124 274.3179,406.3636 270.9567,403.7718 267.5879,402.5619 265.9548,402.5099 264.3844,402.8388 262.8975,403.5541 261.5144,404.6585 259.1346,408.0313 257.7553,411.5609 256.5498,417.5437 256.1697,422.9315 256.4086,431.2105 257.162,438.1571 258.4067,445.6564 260.1296,453.6329 264.9033,470.7095 271.1714,488.782 278.4881,507.2998 298.9686,555.8298 304.4714,570.313 308.241,581.6691 311.9916,595.6678 314.5351,609.5763 315.7801,623.5004 315.6982,637.4999 314.3214,651.5848 311.7376,665.7119 308.0873,679.7816 302.5701,696.3642 295.0949,714.8118 287.2432,731.5715 277.9559,749.2874 268.1485,766.1972 290.4839,732.1251 303.3235,710.89 307.7025,702.7096 311.1149,695.39 313.3558,689.1942 314.2812,684.3386 314.1703,682.1411 313.5523,680.5165 312.4313,679.4873 310.82,679.0703 308.74,679.2761 306.2219,680.1104 301.1617,682.898 295.2306,687.4074 288.7228,693.5743 281.9801,701.2919 276.6666,708.4805 271.6383,716.46 268.1716,722.8874 264.1041,731.9269 261.5622,738.9639 258.9689,748.5329 257.6853,755.7314 257.0092,762.8401 256.9624,769.7562 257.8908,778.4965 259.9328,786.4593 263.0299,793.4078 264.9454,796.4339 268.2351,800.3458 270.6801,802.5065 273.3036,804.29 276.0846,805.6837 280.5017,807.0245 283.5757,807.4124 286.7246,807.396 289.9234,806.9798 294.7603,805.6241 299.5681,803.4279 304.2637,800.4469 308.767,796.7509 313.002,792.4213 316.898,787.5497 320.3904,782.2349 323.4219,776.5808 326.6617,768.6981 328.8987,760.654 329.876,754.6637 330.2314,748.8212 329.9554,743.2202 328.6046,736.2764 326.8648,731.5612 324.5212,727.3427 321.5996,723.6771 318.1347,720.6105 314.1696,718.1784 309.7563,716.4064 303.2808,715.0947 298.0725,714.9033 292.6509,715.3826 287.1034,716.5159 279.6727,718.9998 272.4179,722.5198 267.2367,725.7766 262.3901,729.5029 257.9755,733.6368 252.9172,739.662 249.8478,744.4656 247.4736,749.4195 245.8451,754.4338 245.1913,757.7639 244.8724,762.6687 245.3496,767.3787 246.6097,771.7977 248.6232,775.8324 251.3452,779.3947 254.7171,782.4045 258.6676,784.7915 263.1144,786.4969 267.9653,787.4739 273.1211,787.6892 278.4775,787.1243 283.9274,785.7738 289.3634,783.6455 294.6801,780.7602 298.1077,778.4317 303.0017,774.3627 306.0596,771.2876 311.5712,764.3458 315.0878,758.5236 317.1011,754.3885 320.2597,745.61 321.8174,738.6721 322.451,733.9216 322.7189,724.2231 321.6388,714.4081 320.5953,709.5094 318.4125,702.227 316.5559,697.4423 313.1936,690.4117 310.5852,685.8445 306.1611,679.2072 302.897,674.9422 297.5817,668.8109 287.8106,659.3734 281.5558,654.2174 275.1375,649.4624 268.6725,645.1203 260.1934,639.9865 244.8491,631.9927 227.8191,624.7155 247.8862,631.9073 263.2482,637.8375 277.4443,643.9454 288.8634,649.6049 298.6012,655.4257 304.87,660.236 307.6675,663.0452 309.6735,665.7619 310.8491,668.3585 311.1596,670.0096 311.0873,671.5878 310.2619,673.8025 308.5863,675.8138 306.0846,677.6006 302.7942,679.1448 298.7662,680.4307 288.7733,682.1819 276.8033,682.8005 261.5778,682.1051 248.7192,680.3772 237.314,677.7391 232.5283,676.1316 228.5343,674.3646 225.4474,672.465 223.9408,671.1388 222.5625,669.0816 222.2531,667.6775 222.7225,665.545 223.6594,664.1187 225.0899,662.6991 228.1368,660.6013 235.4667,657.2608 245.2554,654.2252 259.4847,651.1497 275.3692,648.8587 291.7086,647.4957 307.319,647.1661 318.9878,647.7288 325.1578,648.4401 330.5803,649.432 337.7322,651.701 340.7865,653.4221 342.8558,655.4022 343.9111,657.629 344.0441,659.2434 343.3869,661.8469 341.7105,664.6509 339.0359,667.6328 333.9761,671.8406 329.1231,675.1329 321.3634,679.6433 304.8107,687.6307 282.8668,696.3543 260.3657,703.8982 247.4704,707.676 236.4658,710.534 228.1076,712.3381 222.4103,712.9768 221.5286,712.6439 222.0044,711.8706 228.289,708.3788 276.8196,687.1391 301.5895,675.384 319.13,665.9828 332.0684,658.0022 338.8267,653.2209 344.6976,648.4832 349.5902,643.8174 353.4302,639.2492 356.1596,634.8015 357.737,630.4939 358.1372,626.3433 357.3507,622.3633 356.1683,619.8101 354.4636,617.3399 352.2429,614.9545 347.9641,611.5381 344.4975,609.3689 338.4157,606.2777 326.1021,601.5508 311.4399,597.3297 294.9969,593.5685 273.9513,589.5729 233.7569,582.7162 218.2058,579.4964 210.6697,577.2875 206.7776,575.5505 204.5161,573.712 203.9446,571.7414 204.5091,570.339 206.7539,568.0792 209.156,566.4548 214.0479,563.8182 222.7751,559.8807 253.0427,547.4885 267.222,541.3448 281.7746,534.4446 292.6093,528.7511 303.1338,522.6032 313.1446,515.9986 322.4548,508.9424 330.8967,501.4486 335.9684,496.2206 340.5497,490.8179 346.4289,482.4126 351.0322,473.6913 354.2846,464.7166 356.1332,455.5644 356.5466,446.3241 355.5138,437.0973 353.04,427.9978 350.5997,422.063 347.5372,416.2784 341.8068,407.9699 334.7657,400.2248 326.4924,393.1777 317.0872,386.9576 306.675,381.6834 295.407,377.4589 283.4628,374.3687 271.0509,372.4743 258.4081,371.8116 249.9799,372.0593 241.6486,372.8549 229.5235,375.0563 221.8183,377.1758 214.5206,379.7953 204.5316,384.6112 195.9437,390.408 191.1254,394.7649 189.014,397.0781 185.4237,401.9511 183.9575,404.5014 181.7091,409.8049 180.3984,415.3455 180.1011,418.1919 180.228,424.0114 181.3149,429.9652 182.215,432.9795 184.7161,439.0577 188.1275,445.1685 194.8662,454.3101 200.3676,460.3335 209.9836,469.1727 217.2034,474.8862 229.0573,483.11 241.8954,490.8329 255.4302,497.9688 269.3691,504.442 283.4223,510.1864 301.8563,516.6157 319.3806,521.5404 335.4458,524.8767 342.7807,525.9296 352.7655,526.7255 361.3973,526.5726 366.3377,525.9416 370.5905,524.8874 374.1299,523.4113 376.9349,521.5152 378.9891,519.2026 380.2804,516.4777 380.8012,513.3465 380.5481,509.816 379.5208,505.8951 377.721,501.5945 375.1531,496.9267 371.8237,491.9064 367.7423,486.5509 360.2387,477.9329 347.7503,465.4768 332.611,452.1301 315.1084,438.1742 300.6634,427.5067 280.0496,413.3195 258.4651,399.5569 236.666,386.6637 215.5298,375.0942 191.5125,363.1563 171.9545,354.7114 165.7797,352.4417 158.5837,350.302 155.2721,349.7385 154.0833,349.7176 152.6626,350.1958 152.5337,351.3603 154.7618,354.3614 157.835,357.1662 164.7341,362.5056 181.8409,374.1074 210.0263,391.598 238.0048,408.1745 280.4164,432.6559 400.7763,501.1389 415.8051,509.3427 410.4139,505.5433 393.3532,494.5424 278.9463,422.1303 234.7674,393.7977 198.0498,369.5908 164.2761,346.2143 146.6576,333.1886 136.4073,325.1214 127.5571,317.658 120.2618,310.8889 114.653,304.8987 112.5144,302.22 109.6181,297.539 108.8737,295.5519 108.6035,293.8094 108.8085,292.3171 109.4881,291.0798 110.64,290.1013 112.2605,289.3847 114.3445,288.9317 116.8853,288.7435 123.3034,289.1602 136.1092,291.7454 146.6104,294.7404 158.5352,298.7097 178.7758,306.3813 209.3219,319.4858 234.1649,331.1437 268.7721,348.5791 295.1184,362.6712 329.7909,382.2062 354.8644,397.0051 386.3222,416.3567 414.8567,434.6668 445.5882,455.2018 474.3187,475.1656 503.6775,496.2469"/>
  </g>
  <g fill="none" id="layer3" inkscape:groupmode="layer" inkscape:label="3" stroke="#f00" style="display:inline">
    <polyline points="518.7852,467.118 523.9606,469.449 528.7732,471.149 533.188,472.119 537.1765,472.2791 540.7187,471.5694 543.2244,470.3487 545.4384,468.5368 547.8047,465.442 549.3908,462.3174 550.7228,458.6427 552.7214,449.806 554.0428,439.3869 556.3682,412.51 558.1701,401.4133 559.6497,396.4007 561.153,393.1449 563.495,390.1311 565.7779,388.6152 568.4485,387.9077 571.5186,387.9896 574.9885,388.8134 578.8473,390.3069 586.4587,394.2356 610.6334,408.364 618.3787,412.1265 624.4666,414.4495 630.0125,415.8249 634.8322,416.1078 638.7652,415.208 640.6459,414.0842 641.6871,413.0921 642.92,411.2466 643.7516,408.9863 644.1811,406.3347 644.1415,402.2452 643.6722,398.814 642.5043,393.8453 640.783,388.5497 638.5949,383.0806 633.2166,372.3193 629.4893,366.2485 626.4834,362.0494 622.8765,357.8982 620.2384,355.6273 617.9237,354.4045 616.0168,354.2933 614.8983,354.9531 614.0752,356.243 613.4142,359.7328 613.6944,364.7427 614.942,371.019 617.1452,378.2407 619.5635,384.4528 623.3352,392.4332 626.8776,398.7433 630.8042,404.7744 635.0243,410.3422 639.435,415.2797 643.9237,419.4409 648.3705,422.7041 651.6041,424.5046 655.6822,425.989 659.3862,426.3941 661.0638,426.1893 663.3274,425.3791 665.2553,423.9799 666.8167,422.0168 668.5436,417.5885 669.0325,414.3126 669.1062,410.6411 668.3256,403.8246 665.9994,394.9337 662.377,385.9196 657.778,377.5202 654.357,372.6234 651.6915,369.463 648.9992,366.8245 646.3325,364.7713 643.7427,363.3537 641.2786,362.6078 638.9864,362.5536 636.9082,363.1955 635.0819,364.5225 633.5404,366.5091 632.3112,369.1159 631.4161,372.2907 630.8707,375.9697 630.6845,380.0791 631.3959,389.2554 633.5051,399.0949 636.8767,408.8266 641.2894,417.6935 645.5485,423.922 648.2664,426.9954 651.0465,429.4928 653.8371,431.361 656.585,432.5569 659.2363,433.0484 661.738,432.8143 664.0385,431.8442 665.436,430.7881 667.844,427.7055 669.2644,424.5678 670.3159,420.757 670.9716,416.3168 671.198,409.5155 670.8691,403.8445 668.9319,391.4104 666.7304,382.6412 664.6377,376.0079 659.4548,363.1508 656.4433,357.1927 653.2113,351.7245 649.8081,346.8719 646.2845,342.7505 642.6933,339.4613 639.0871,337.0873 635.5185,335.6897 633.1857,335.3197 630.9069,335.4053 627.6208,336.3866 624.5332,338.3725 621.6853,341.3219 619.1145,345.1731 616.8534,349.8459 614.9299,355.2436 613.3668,361.2561 612.1812,367.7627 611.3851,374.6359 610.9848,381.7439 610.9809,388.9543 611.3686,396.1369 612.1382,403.1662 613.2747,409.9238 614.7585,416.3007 616.5647,422.1983 618.6641,427.5298 621.0226,432.2212 624.5035,437.3777 627.3104,440.3625 630.2332,442.5573 633.2217,443.9462 637.217,444.5423 640.1507,444.0635 643.8737,442.2391 646.4537,440.0298 649.5113,436.0558 652.027,431.0406 653.498,426.6997 654.5739,421.9554 655.2278,416.9011 655.4118,409.8567 655.0221,404.4867 654.18,399.1703 652.8936,394.0266 651.1788,389.1747 649.0588,384.7319 646.563,380.8104 643.7271,377.5141 640.5913,374.9355 637.2002,373.153 633.6015,372.2281 631.1115,372.11 627.2777,372.7 624.678,373.6098 620.7505,375.7469 618.135,377.6787 612.9747,382.7158 610.4571,385.7932 606.7947,391.0581 602.1847,399.1756 596.9751,410.8081 592.4988,423.6919 588.8479,437.3795 585.6284,454.2472 583.691,470.9415 582.979,486.8711 583.5307,503.8675 584.4128,512.6093 585.6273,520.5526 588.7569,533.8619 590.9535,540.367 593.5536,546.317 596.4819,551.1661 597.5312,552.3177 598.3083,552.6217 598.3027,551.4088 597.1313,548.5919 592.3731,540.7019 585.1117,530.7086 575.3515,518.6611 565.0279,506.905 553.6363,494.9146 544.6488,486.2688 535.4452,478.3402 527.6906,472.5544 521.4636,468.6134 515.2309,465.3874 508.9981,462.9582 502.7633,461.3909 496.5177,460.7309 491.8174,460.8469 485.5119,461.8206 477.5298,464.335 469.376,468.2305 459.2755,474.5804 448.7662,482.5275 435.9771,493.4292 418.8701,509.2511 399.6394,528.0371 383.1604,545.0676 374.8069,554.3381 367.3153,563.3908 360.9141,572.1967 356.7219,579.0623 352.7984,587.439 350.8049,594.002 349.8863,600.4649 350.0688,606.8426 350.9302,611.575 353.0307,617.8185 355.2998,622.4493 359.2069,628.5462 364.0564,634.5391 369.7631,640.4044 376.2293,646.1118 383.3492,651.6244 391.0122,656.8998 401.1848,663.0878 411.8194,668.7302 420.5262,672.7808 431.5081,677.177 440.2785,680.101 448.9722,682.4567 457.5509,684.2181 468.084,685.5663 480.4517,685.9438 492.5872,685.0397 504.5532,682.9883 516.3755,679.9762 529.9656,675.5532 543.2446,670.5417 574.5372,657.9421 588.7195,652.9974 595.5814,651.2452 600.1728,650.6085 604.1891,650.9145 606.2177,652.0958 606.959,653.6494 606.7952,656.3311 605.8227,659.0368 603.6229,663.0554 600.4321,667.6846 596.3855,672.7942 585.2572,684.9199 574.9198,694.5825 564.5583,702.6945 560.1884,705.4915 556.0655,707.6622 552.2525,709.1337 548.8053,709.8506 545.0834,709.6338 542.624,708.5552 540.6599,706.6825 538.9381,703.2726 538.1675,699.7514 537.9766,694.4673 538.6417,688.3427 540.1436,681.54 542.4456,674.2277 546.1863,665.014 550.031,657.1541 555.3744,647.7146 560.2985,639.9827 566.5675,631.0097 589.2312,601.2522 593.3505,594.7755 595.8084,589.7165 597.0468,585.8499 597.519,583.0322 597.513,579.3547 597.0214,576.6354 596.109,573.9315 594.2413,570.3242 592.36,567.599 589.2297,563.9154 585.4181,560.1513 579.757,555.3009 564.2436,543.9357 539.8599,528.0247 512.113,511.0334 493.0405,500.1552 475.2923,491.0009 459.0011,483.7191 444.3856,478.2308 426.6255,472.9154 410.9754,469.4236 392.6219,466.6897 374.7961,465.4188 365.164,465.3246 356.1528,465.6569 347.9458,466.378 340.725,467.4416 334.6623,468.7943 328.9427,470.8009 326.0004,472.5801 325.1034,473.5046 324.493,474.9105 324.5798,475.848 325.0608,476.7756 327.1904,478.5672 330.8295,480.2183 335.8916,481.6656 342.261,482.8499 349.7975,483.7174 365.312,484.3353 382.9979,483.6438 399.193,481.9139 418.5632,478.5279 435.084,474.4741 445.8893,471.2094 459.056,466.5423 469.2799,462.3835 481.6647,456.7282 495.9789,449.4174 509.7023,441.7503 553.5301,415.1518 567.1596,407.3481 574.3115,403.799 578.9172,401.9796 582.1915,401.23 583.4885,401.2886 584.2736,401.7154 584.5182,402.827 583.8502,404.5082 582.2862,406.6911 579.8559,409.2979 573.6508,414.6234 565.2265,420.5131 556.516,425.6576 546.692,430.6095 535.9986,435.1434 526.5853,438.4733 516.8348,441.3155 506.8368,443.6226 498.7047,445.0671 488.4062,446.3705 477.9719,447.1333 467.3874,447.3917 456.6303,447.1961 445.7052,446.608 423.5418,444.5296 397.4069,441.1187 361.6253,435.5159 351.2727,433.5933 347.9812,432.5877 349.214,432.2925 353.1617,432.2565 393.8382,433.4023 422.1537,433.522 449.9027,432.7667 475.4519,431.2136 510.892,427.7633 550.6686,422.4126 567.8104,419.577 579.2069,417.3014 586.0027,415.3737 587.4623,414.5573 587.6703,414.0096 587.112,413.5146 585.1834,412.9293 577.4104,411.9576 515.407,407.9976 492.5571,406.019 468.3751,403.4982 420.3091,397.5714 320.8311,384.1197"/>
  </g>
</svg>
