<?xml version="1.0" encoding="utf-8" ?>
<svg xmlns="http://www.w3.org/2000/svg" xmlns:cc="http://creativecommons.org/ns#" xmlns:dc="http://purl.org/dc/elements/1.1/" xmlns:ev="http://www.w3.org/2001/xml-events" xmlns:inkscape="http://www.inkscape.org/namespaces/inkscape" xmlns:rdf="http://www.w3.org/1999/02/22-rdf-syntax-ns#" xmlns:sodipodi="http://sodipodi.sourceforge.net/DTD/sodipodi-0.dtd" xmlns:xlink="http://www.w3.org/1999/xlink" baseProfile="tiny" height="29.7cm" version="1.2" viewBox="0 0 793.7007874015749 1122.5196850393702" width="21.0cm">
  <metadata>
    <rdf:RDF>
      <cc:Work>
        <dc:format>image/svg+xml</dc:format>
        <dc:source/>
        <dc:date>2022-05-22T14:46:24.968762</dc:date>
      </cc:Work>
    </rdf:RDF>
  </metadata>
  <defs/>
  <g fill="none" id="layer1" inkscape:groupmode="layer" inkscape:label="1" stroke="#00f" style="display:inline">
    <polyline points="303.6876,959.8118 301.2429,959.6837 296.0384,958.5713 290.5029,956.344 284.7334,953.0492 278.8138,948.7489 272.813,943.5163 266.7842,937.4314 260.7654,930.5769 254.7798,923.0327 248.8369,914.8712 237.0934,896.9194 225.6789,876.9677 220.1999,866.2054 214.9533,854.8557 210.0103,842.9059 205.4488,830.3981 199.4969,810.8406 196.236,797.5577 193.6217,784.4076 191.71,771.7522 190.5406,760.0091 190.1336,749.6258 190.4885,741.0416 191.5853,734.6436 192.3996,732.3587 193.3812,730.7163 194.5205,729.7293 195.8064,729.3997 197.2266,729.7196 198.7674,730.673 202.1509,734.3807 205.8289,740.2565 211.5977,752.3319 217.2503,766.9939 222.3388,782.6425 226.4697,797.7512 229.3259,811.0245 230.6912,821.4871 230.4794,828.5093 229.4735,831.1143 228.7217,831.7803 227.8108,832.0231 226.7471,831.8465 224.1894,830.2586 221.1106,827.0733 217.5795,822.365 211.5946,812.6571 205.0084,800.1589 193.3872,774.8353 184.2945,752.957 170.1495,717.4999 167.2432,711.0 166.6388,709.9268 166.0048,709.4762 166.5071,712.9143 167.7861,717.7014 172.3392,731.9159 178.8321,749.5857 184.2953,762.9224 189.6801,774.7177 194.4797,783.7803 198.2597,789.2625 199.2331,790.2032 200.0469,790.6847 200.6937,790.7046 201.1676,790.2648 201.464,789.3694 201.5792,788.0256 200.8188,781.4165 198.4011,771.3139 195.8994,762.9857 190.9172,748.8591 186.8711,738.9255 182.3477,729.1265 177.4579,719.9858 172.3334,712.0425 169.7293,708.6819 164.5394,703.4696 161.9964,701.7124 159.5167,700.5695 157.1218,700.0647 154.8323,700.2104 152.6682,701.0101 150.6486,702.4586 148.7912,704.5425 147.1121,707.2402 145.6259,710.5224 144.3449,714.353 143.2795,718.6891 141.8252,728.6798 141.445,734.2245 141.382,746.1153 142.226,758.6608 142.9722,765.0239 145.0654,777.6321 146.3887,783.7647 149.5194,795.4296 151.296,800.8699 155.189,810.7684 159.422,819.1508 161.6234,822.7137 166.1127,828.5023 170.6112,832.4454 172.8262,833.7141 174.9997,834.5146 177.1185,834.8502 179.17,834.7265 181.1425,834.1499 183.0251,833.1278 184.8076,831.6676 186.4802,829.7775 188.0342,827.4663 190.7538,821.6192 191.9047,818.1054 193.7561,809.9629 194.9702,800.4445 195.3271,795.2205 195.3803,778.0228 193.9593,759.3335 191.2317,740.5138 187.472,723.2867 184.5672,713.6266 183.0402,709.5504 179.9167,703.2046 178.3529,701.031 176.8095,699.5707 175.3025,698.845 173.8475,698.8621 172.4596,699.6201 171.1531,701.1077 169.9412,703.3052 167.8496,709.707 166.9914,713.8291 165.6951,723.6559 164.8923,741.4108 165.5225,761.1177 166.7238,774.3992 169.6003,793.2405 172.1423,804.4389 175.0897,814.1357 176.6863,818.3362 180.0628,825.3155 183.5965,830.2854 185.3888,831.9905 187.1795,833.1706 188.9541,833.8274 190.698,833.9663 192.3961,833.5963 194.0336,832.7282 195.5957,831.3747 197.0678,829.5502 198.4358,827.271 200.8049,821.4237 201.7806,817.8985 203.2568,809.7713 204.0349,800.4081 204.0544,790.0922 203.2755,779.1594 202.5801,773.5811 200.5763,762.465 199.2721,757.0399 196.0822,746.7476 194.2093,741.999 189.9484,733.5886 187.58,730.0364 185.0684,726.9855 182.4267,724.4779 179.6694,722.5487 176.8125,721.2244 173.8734,720.5228 170.8708,720.452 167.8247,721.0118 164.7567,722.1952 161.6891,723.9886 158.6454,726.3723 155.6499,729.321 152.7273,732.804 149.9028,736.7866 144.6473,746.0926 142.2649,751.3311 138.1037,762.7566 136.3655,768.8543 133.6585,781.604 132.717,788.1746 131.708,801.5194 131.6522,808.2268 132.4463,821.5699 133.2922,828.1601 135.8531,841.093 137.5496,847.4138 141.7111,859.7391 146.7894,871.6528 152.6307,883.216 159.0594,894.5079 165.8857,905.5707 196.3034,951.5858 206.8719,968.2917 215.4941,983.322 217.3152,987.0686 218.2323,990.0289 218.0576,990.3052 217.6478,990.2361 215.0559,988.0772 196.7962,968.8225 184.9754,958.0127 178.5988,953.0243 172.1008,948.6195 162.5013,943.5302 156.481,941.3772 151.0058,940.349 146.286,940.5148 144.2723,941.0564 142.5196,941.9054 141.0477,943.0601 139.8732,944.5169 139.0095,946.2695 138.251,950.6256 138.3649,953.2044 139.5759,959.0825 140.6625,962.341 143.7507,969.3739 150.4523,980.762 156.0819,988.5035 162.4359,995.9958 165.8252,999.5439 172.9078,1006.0357 180.2374,1011.4596 187.6354,1015.5371 191.3098,1016.9986 194.9443,1018.0451 198.5235,1018.6604 202.0337,1018.8339 205.463,1018.5606 208.8012,1017.8402 212.0398,1016.6771 215.1721,1015.0799 218.1927,1013.062 221.0975,1010.6407 226.5504,1004.6765 231.5215,997.3969 233.8272,993.3416 238.0862,984.5714 241.8888,975.1627 245.2538,965.4063 250.7446,945.9483 255.4716,924.0047 257.275,912.9609 258.3714,903.7552 258.7915,892.4023 258.3169,887.7008 257.4041,884.269 256.1564,881.8165 254.1739,879.6128 251.6047,877.9317 248.1061,876.446"/>
    <polyline points="519.6443,808.107 517.8592,814.4903 514.9658,820.4752 510.9877,825.9666 508.6019,828.5054 503.0644,833.1406 496.5568,837.1645 489.1628,840.5687 480.9983,843.3596 472.2186,845.5534 458.3456,847.7712 444.4224,848.7635 431.532,848.5799 420.8644,847.2428 415.5444,845.7288 411.9725,843.7414 410.9009,842.5795 410.3246,841.3114 410.249,839.9422 410.6733,838.4776 412.9922,835.2868 414.8592,833.5741 419.9045,829.9511 430.3191,824.1442 443.3056,818.1008 462.7923,810.1083 487.2796,801.0018 529.1405,786.5934 535.5856,784.5596 538.2792,784.1158 538.2973,784.5591 536.7625,786.1284 528.4768,792.6943 470.8268,835.708 458.4073,845.5152 450.742,852.533 446.6893,857.0635 443.6189,861.5006 441.6142,865.8735 440.7233,870.2153 440.7001,872.3857 441.4872,876.748 443.349,881.1654 447.9801,887.9289 452.1124,892.5215 459.4694,899.4681 467.6362,906.341 485.9011,920.892 491.7798,925.978 494.6197,928.8699 496.4365,931.3423 497.1236,933.3954 496.6064,935.04 494.8378,936.2972 489.7956,937.5256 481.9273,938.0858 471.4257,938.1326 419.3913,936.1826 394.8872,934.8264 385.5875,933.9246 385.2747,933.7866 391.2964,933.3736 407.4144,933.5076 428.1888,934.248 460.9998,936.1393 464.981,936.0706 465.7859,935.6752 465.1025,934.9387 461.3563,933.1026 433.3395,921.7522 420.4029,916.1262 407.3001,909.7507 399.118,905.1448 391.8582,900.2901 388.6993,897.7761 383.5497,892.582 381.6356,889.9017 380.2031,887.1643 379.2742,884.367 378.8631,881.506 378.9751,878.5765 379.6075,875.5734 380.7501,872.4907 382.3852,869.3221 387.0281,862.7053 396.87,852.0296 417.6808,832.2609 430.3696,819.4681 438.0177,810.7522 444.5918,802.0567 449.8035,793.5633 453.4418,785.4796 455.3777,778.032 455.6889,774.6204 455.5621,771.4563 455.0022,768.568 454.0175,765.9828 452.6197,763.7255 450.824,761.8187 448.649,760.2818 446.1168,759.1303 443.2534,758.3762 440.0882,758.0267 436.6545,758.0849 432.9893,758.5499 425.1306,760.6792 416.8782,764.3398 412.7317,766.7071 404.6708,772.4173 400.868,775.7139 393.9917,783.061 391.0214,787.0563 388.4257,791.2275 386.246,795.5447 384.5175,799.9771 383.2687,804.4935 382.5207,809.0632 382.2857,813.6555 382.5679,818.2405 383.3642,822.7894 384.6646,827.2744 386.4522,831.6695 388.7032,835.9499 391.3879,840.093 394.4706,844.0777 397.9103,847.8852 405.6735,854.9027 409.8944,858.085 418.7382,863.7431 423.2456,866.2033 432.1394,870.3608 440.491,873.4889 447.8687,875.5942 453.8873,876.6997 458.2232,876.8369 460.6252,876.0442 461.0441,875.3115 460.9218,874.3611 460.2489,873.1979 457.2311,870.2507 451.9904,866.5049 440.1387,859.4661 398.295,837.1319 384.8055,829.4762 371.9049,821.4013 365.9333,817.2435 360.42,813.0292 355.4652,808.7785 351.1628,804.5137 347.5963,800.2591 344.8364,796.0408 342.9383,791.8864 341.9389,787.8251 341.8563,783.8871 342.6906,780.1034 344.428,776.5052 347.0404,773.1236 350.4867,769.989 354.7126,767.1305 359.6527,764.5751 365.2309,762.3476 371.3627,760.4698 377.9561,758.9598 384.914,757.8319 392.1355,757.0961 399.518,756.7577 406.9589,756.8172 414.3571,757.2717 421.6149,758.1151 428.6394,759.3385 435.3434,760.9301 441.6463,762.8757 447.475,765.1585 452.7642,767.7594 457.4567,770.6574 461.5039,773.8296 464.8653,777.2518 467.509,780.8985 469.4111,784.7433 470.5561,788.7591 470.936,792.9185 470.5503,797.1939 469.4024,801.558 467.4992,805.9837 464.8515,810.4442 461.474,814.9137 457.3864,819.367 452.6136,823.7797 447.1868,828.1285 441.1442,832.3911 427.4063,840.573 411.8838,848.1696 403.6489,851.7074 386.7183,858.1966 361.9382,866.3182 327.6535,876.1901 324.0984,877.5173 324.0767,877.8096 327.5264,877.6554 335.3867,876.5246 354.2146,873.0221 379.0033,867.3833 397.1821,862.4426 415.4545,856.5497 424.3074,853.2436 432.8129,849.6969 440.8618,845.91 448.3543,841.8841 455.2,837.6218 461.3194,833.1277 466.6436,828.4083 471.1144,823.473 474.6845,818.3338 477.3172,813.0064 478.9864,807.5103 479.6761,801.8689 479.3802,796.1102 478.0975,790.2671 475.8299,784.3768 472.583,778.4819 468.3666,772.6292 463.1958,766.8703 457.0922,761.2603 450.0852,755.8572 442.2137,750.7201 433.5279,745.9084 424.0918,741.4805 413.9848,737.4922 403.3047,733.9956 392.1689,731.0373 380.7161,728.6576 369.1069,726.8888 357.5233,725.7544 346.1668,725.2683 335.2547,725.4345 325.0146,726.2489 315.6775,727.7005 307.468,729.7712 300.5947,732.4363 295.2396,735.665 291.548,739.4208 289.6202,743.6623 289.5058,748.3438 291.2112,753.4162 294.7118,758.8279 299.9532,764.5254 306.8513,770.4544 315.2953,776.5605 325.1496,782.7898 336.2571,789.0893 348.4433,795.4078 361.5201,801.6965 389.5535,814.0016 404.1076,819.9345 433.3083,831.1771 461.4274,841.3833 487.2086,850.3533 554.513,872.6683"/>
    <polyline points="580.3558,602.1922 592.0855,585.5717 596.3369,578.7041 600.2432,571.6722 603.7538,564.4127 606.8293,556.8518 609.4427,548.9283 611.58,540.6005 613.2413,531.8535 614.4401,522.7066 615.2028,513.2206 615.5672,503.5041 615.3101,484.0711 613.2137,449.7251 613.4251,444.5166 614.1419,443.3748 614.7045,443.5266 616.275,445.26 619.7983,451.2486 640.2969,491.6997 647.9982,506.0463 655.6879,519.5072 662.8581,531.1913 668.9905,540.403 674.7529,548.0193 676.3673,549.6395 677.0533,549.7553 676.7831,548.3734 675.5563,545.5214 670.3619,535.6161 623.0419,451.1181 613.0388,434.2773 610.6025,430.8953 609.2514,429.7403 609.0139,430.0173 609.0815,430.8604 610.1623,434.1995 612.5395,439.6135 616.2307,446.8821 624.1852,460.6381 630.9992,471.2372 638.8752,482.5847 652.2489,500.3025 685.3795,540.3678 697.1617,555.6406 703.1471,565.0123 705.4432,569.4561 707.228,573.7442 708.4762,577.8831 709.1707,581.8781 709.3039,585.7334 708.8766,589.4519 707.8972,593.0357 706.3807,596.4859 704.3487,599.8026 701.8286,602.9848 698.8533,606.0309 691.693,611.7049 687.5962,614.3269 678.6122,619.1231 668.9194,623.2988 653.9654,628.3447 644.3003,630.8744 631.1329,633.4184 620.3901,634.5297 612.7237,634.3667 610.9204,634.0686 608.4805,633.166 607.5916,631.9261 608.2056,630.4365 610.2389,628.7866 613.5812,627.0646 618.0979,625.3559 623.6304,623.741 636.9922,621.0803 651.953,619.5732 659.424,619.3632 666.5474,619.5543 676.0096,620.6383 681.1383,621.9152 685.0707,623.6458 687.6452,625.8304 688.39,627.0903 688.7646,628.4593 688.405,631.511 687.6821,633.185 685.2056,636.7994 679.1809,642.7661 673.8966,646.9869 667.8592,651.282 654.5166,659.6069 641.1361,666.7112 629.4853,671.6137 624.7481,672.9957 620.9089,673.5836 619.3554,673.5713 617.0219,672.9344 616.253,672.3153 615.5251,670.5026 615.5666,669.3246 616.4509,666.4758 619.7274,661.161 625.2447,654.9542 632.8569,648.3039 642.3398,641.6752 649.5321,637.4917 661.2495,631.8803 669.3828,628.7439 677.4766,626.2047 688.8811,623.6908 698.4163,622.9151 703.2134,623.4321 706.4724,624.8012 707.4721,625.8072 708.0354,627.0266 708.1581,628.4573 707.8425,630.096 705.9308,633.9774 702.4198,638.6175 694.5941,646.8202 680.831,659.4384 648.4727,687.5282 638.8451,695.4365 635.9369,697.4368 634.4634,697.9179 634.4875,696.7997 635.0686,695.6334 637.3642,692.1056 646.3171,680.6094 660.3595,664.2963 691.5198,629.3941 700.0829,618.9333 707.6096,608.5381 713.6138,598.3049 715.9093,593.2689 717.6737,588.2926 718.8722,583.3778 719.4793,578.524 719.4798,573.7287 718.868,568.9877 717.6465,564.2952 715.8261,559.647 713.4258,555.0411 710.4725,550.4777 707.0004,545.9593 703.0498,541.4899 693.8996,532.7225 688.8027,528.4404 677.8425,520.1283 666.2438,512.2319 654.4632,504.8589 642.9319,498.1257 626.9346,489.4822 613.4202,482.9027 603.1354,478.647 596.5215,476.8201 595.1696,476.7423 594.2478,476.9194 593.7551,477.3421 594.0457,478.8803 594.8208,479.97 597.6072,482.7172 602.002,486.1117 607.9426,490.0117 615.3408,494.2682 624.0704,498.7303 639.2563,505.4868 656.1423,511.9055 679.0415,519.2354 702.5537,525.3578 710.7919,526.9913 713.0131,527.1325 713.0679,526.908 706.2541,523.9999 664.6671,508.7784 636.017,497.2001 606.5797,484.0698 553.7233,458.8061 536.9043,451.8522 526.5914,448.5138 521.7136,447.2875 512.5502,445.7769 508.2837,445.5039 500.4387,445.9208 496.8855,446.6002 490.5825,448.86 487.8573,450.4197 485.4314,452.2496 483.3144,454.3361 481.5144,456.6646 480.0375,459.2194 478.8876,461.9841 477.5727,468.0748 477.552,474.7953 478.7697,482.0007 481.1392,489.5456 484.5453,497.2872 488.8486,505.0874 493.8902,512.8136 499.4975,520.34 508.5728,531.0039 517.8918,540.637 526.8513,549.0043 537.3008,557.9222 550.1557,567.9126"/>
    <polyline points="498.7122,356.1144 473.6713,353.058 455.6208,351.8871 448.6216,352.0782 445.1459,352.5667 442.0777,353.858 441.5835,355.0648 441.811,355.757 443.1963,357.2806 447.466,359.7774 454.0384,362.2936 462.4211,364.5603 472.033,366.3249 478.8193,367.1167 489.1138,367.6123 495.8034,367.4435 502.1697,366.8681 508.0701,365.8995 513.3765,364.568 519.982,361.9793 524.6942,358.8148 526.6684,356.4636 527.6516,353.9769 527.6141,351.4065 526.5426,348.8078 525.6186,347.5161 521.3171,343.7664 514.8227,340.385 506.3771,337.6241 496.3774,335.7523 489.1089,335.1311 477.7889,335.3227 470.2955,336.2911 463.1373,337.9903 456.5778,340.4518 450.878,343.6851 446.2795,347.6726 444.4594,349.9348 442.988,352.364 441.8825,354.9478 441.1562,357.6714 440.8175,360.5175 440.8707,363.4658 441.3156,366.4933 443.3648,372.6847 444.9547,375.7937 449.2096,381.8929 451.8458,384.8223 458.0492,390.2871 461.5772,392.7621 469.3791,397.055 473.6085,398.8214 482.6107,401.4853 487.3387,402.349 497.1412,403.0844 507.2728,402.4706 512.417,401.6622 522.7849,399.0817 527.9826,397.3351 538.3543,393.0162 548.649,387.7409 558.8456,381.7094 573.9651,371.7282 612.1886,344.942 632.1984,332.1788 638.7288,328.5251 646.5097,324.839 650.2092,323.6317 651.5919,323.4042 653.4216,323.6799 654.0426,324.8783 653.5484,326.913 652.0765,329.671 649.7995,333.015 641.9294,342.8452 627.1404,359.7385 639.6486,346.977 669.6573,318.1869 681.2603,306.6255 692.1109,294.5833 698.3406,286.3765 701.0212,282.2302 705.3114,273.855 706.8508,269.6227 707.9483,265.3557 708.5827,261.0494 708.7396,256.701 708.4115,252.3092 707.597,247.8746 706.3004,243.3999 704.5321,238.8897 702.3083,234.3506 696.5857,225.2239 689.3667,216.1178 685.2884,211.613 676.4057,202.7983 666.8508,194.3931 656.98,186.5926 647.1354,179.6005 637.6309,173.6164 628.7426,168.8207 620.7041,165.3596 617.0643,164.1625 610.6423,162.8708 607.8918,162.7786 605.4655,163.051 603.3739,163.6805 601.6251,164.6566 600.2256,165.9663 599.1804,167.5936 598.4924,169.5201 598.1937,174.1864 599.3271,179.7772 601.876,186.0803 605.8106,192.8699 611.0828,199.9164 614.1992,203.4657 621.3327,210.4828 625.3189,213.9008 634.0312,220.4414 638.7081,223.5234 643.56,226.4557 653.6493,231.8091 669.1219,238.3776 679.0938,241.6807 688.281,244.0761 696.2388,245.5466 702.5632,246.0883 706.9292,245.7083 708.3062,245.1767 709.1241,244.4201 709.3777,243.4409 709.0707,242.2418 708.2136,240.8259 706.8235,239.1968 702.5438,235.3157 692.8861,228.0181 671.1004,212.4559 656.78,201.6167 643.0803,190.2409 631.099,178.9789 621.7162,168.5984 615.5739,159.9159 614.3246,157.5342 613.0874,153.6899 613.1125,152.2675 613.572,151.1992 614.4686,150.4957 615.8037,150.1632 619.7895,150.6149 629.018,153.9985 641.9636,160.3214 658.161,169.0799 683.2451,183.5067 702.7878,195.5721 715.0806,203.8732 726.007,212.1899 734.9005,220.3752 738.3957,224.3767 741.1722,228.297 743.1806,232.1218 744.3855,235.8375 744.766,239.4311 744.3164,242.8905 743.0421,246.2042 740.9595,249.3615 738.0953,252.3525 734.4859,255.1681 730.1772,257.7996 725.2232,260.2391 719.6849,262.4789 707.1291,266.3312 693.0952,269.3024 678.2016,271.3421 663.0585,272.4003 648.2347,272.4297 634.2314,271.3849 621.468,269.2199 615.6583,267.7022 610.2761,265.886 605.3498,263.7651 600.9027,261.3335 596.9537,258.5857 593.5175,255.5172 590.6048,252.1241 588.2228,248.4039 586.3756,244.3557 585.0642,239.9802 584.2871,235.2805 584.0403,230.2623 584.3178,224.9343 585.1128,219.3086 586.4183,213.4013 588.2267,207.233 590.5296,200.829 593.3177,194.2199 600.3041,180.5375 609.0751,166.5472 619.475,152.7049 625.2203,146.005 631.2849,139.5493 637.6285,133.4135 644.2047,127.674 650.9606,122.406 657.8371,117.6815 664.7693,113.5658 671.6869,110.1164 678.5145,107.3806 685.1725,105.3938 691.5781,104.1785 697.6468,103.743 703.2943,104.0821 708.4379,105.1796 712.9994,107.0098 716.9066,109.5376 720.0964,112.7191 722.5159,116.5027 724.1249,120.8295 724.8971,125.6351 724.8206,130.8499 723.8957,136.4011 722.1325,142.2133 719.5507,148.2101 716.1789,154.3152 712.0544,160.4533 707.2218,166.5513 701.7322,172.5391 695.6422,178.3502 689.0124,183.9225 681.9063,189.1986 674.389,194.1256 666.526,198.6556 658.3819,202.7456 650.019,206.3579 641.4968,209.4593 632.8706,212.0219 624.1909,214.0222 615.5027,215.4417 606.845,216.2659 598.2508,216.4849 589.7463,216.0925 581.3513,215.0841 573.0791,213.4569 564.9366,211.2094 556.9242,208.3422 549.0364,204.8581 541.2641,200.7626 533.6028,196.0642 526.0531,190.7757 518.6212,184.9143 511.3183,178.503 504.1608,171.5714 497.1697,164.1566 490.371,156.3045 483.7947,148.0714 471.4465,130.747 460.4253,112.8811 451.0514,95.3702 443.6315,79.2731 438.4222,65.724 435.5955,55.7988 435.0996,52.4758 435.2126,50.3542 435.9245,49.4825 437.2198,49.8804 439.0774,51.5462 444.3714,58.5807 451.5437,70.2041 460.2688,85.7738 480.8712,125.2365 532.6901,227.7065 555.9623,272.0267"/>
    <polyline points="281.4314,204.5569 288.3272,182.4529 290.7454,175.962 293.397,170.3138 296.3973,165.7514 298.0648,163.9471 299.8631,162.4932 301.806,161.4098 303.9067,160.7134 306.1772,160.4161 308.6288,160.5254 311.2712,161.0452 317.1584,163.3124 323.8787,167.1738 335.5097,175.7217 344.2073,183.0245 353.5069,191.3844 373.0102,210.4329 382.5989,220.7096 391.5827,231.2403 399.5587,241.8718 403.0457,247.1864 408.797,257.7546 410.9874,262.9918 412.6825,268.1909 413.863,273.3494 414.5182,278.4658 414.6462,283.536 414.2538,288.5537 413.355,293.5101 411.9708,298.3944 410.129,303.1932 407.8633,307.8912 402.2223,316.9125 395.4176,325.2973 387.8742,332.8638 380.0464,339.4214 372.3901,344.785 365.3376,348.7909 359.2752,351.3119 354.5247,352.2708 352.7211,352.156 351.3304,351.6474 350.3694,350.7503 349.8495,349.4729 349.7758,347.826 350.9628,343.4788 353.8806,337.8419 358.4221,331.0785 364.4237,323.3729 371.6606,314.9189 397.5627,286.9263 410.2897,272.4012 417.6036,262.7589 420.7339,257.9706 423.4434,253.2143 425.6866,248.4989 427.4256,243.8349 428.6305,239.2341 429.2807,234.709 429.3651,230.274 428.8812,225.945 427.8341,221.7394 426.2361,217.6762 424.1063,213.7751 421.4709,210.0569 418.3619,206.5428 414.8172,203.254 410.8796,200.2112 406.596,197.4345 402.0166,194.9427 397.1942,192.7529 387.0387,189.337 381.8157,188.1331 371.3499,186.7657 361.1971,186.7892 356.3552,187.3113 347.3447,189.3293 343.246,190.7983 339.458,192.5518 336.0052,194.5704 332.9073,196.8328 330.1794,199.3163 327.8316,201.997 325.8693,204.8501 324.2936,207.8502 323.1015,210.9714 322.2859,214.1878 321.8359,217.4739 321.973,224.1539 322.5236,227.4992 324.4813,234.0859 325.8398,237.2849 329.181,243.3982 333.156,249.0206 337.5083,254.0393 341.9658,258.3651 348.2396,263.4157 353.2121,266.6198 356.1087,267.8879 356.6091,267.6266 356.3919,267.1584 353.8128,264.3824 330.175,243.5207 314.0758,228.5135 267.7883,182.2931 257.9872,173.3182 247.9503,165.1455 237.585,158.1143 232.2539,155.1276 226.8155,152.5425 221.267,150.3909 215.6092,148.7001 209.8462,147.492 203.9862,146.7827 198.0415,146.5817 192.0287,146.8923 185.969,147.7129 179.8883,149.0367 173.8172,150.8519 167.791,153.1415 161.8491,155.8842 156.0353,159.0543 150.3967,162.6224 144.9833,166.5557 139.847,170.8189 135.0407,175.3746 130.6169,180.184 126.627,185.2074 123.1192,190.4048 120.1376,195.7369 117.7209,201.1651 115.901,206.6524 114.7021,212.1635 114.1399,217.6656 114.2208,223.1283 114.944,228.5244 116.302,233.8294 118.2809,239.0222 120.8607,244.0848 124.0155,249.0027 127.7141,253.7644 131.9205,258.3617 136.5947,262.7894 141.694,267.0457 147.1738,271.1315 159.0902,278.8049 171.9747,285.8367 185.4738,292.2532 199.2697,298.0822 213.0951,303.3527 226.744,308.0952 246.5994,314.2855 259.3434,317.8381 277.6973,322.366 294.9726,325.9848 310.7907,328.7525 346.2593,333.5857 349.9955,334.4997 350.5533,335.185 348.6461,336.4869 343.7958,338.2797 298.0187,353.8099 282.4232,358.6466 270.8745,361.5397 263.3408,362.96 252.3734,364.1863 245.3056,364.3622 235.0586,363.6761 225.2278,361.9563 215.8124,359.4023 206.8184,356.266 192.7887,350.4381 170.7259,340.2414 160.814,335.0013 154.9166,330.8018 152.0779,327.508 151.0424,325.1945 150.7165,322.7608 151.5163,318.849 152.8283,316.0521 154.662,313.0981 166.4495,297.6312 171.7929,289.3582 174.1562,284.8084 176.2405,279.9375 178.0157,274.7036 179.4723,269.0571 181.0876,259.6849 182.1226,249.067 184.2131,199.0452 185.3005,183.5253 186.9324,168.4584 189.1678,154.9325 191.9763,144.1601 194.0967,139.0696 195.2033,137.2531 196.3243,135.9544 197.4457,135.1895 198.5524,134.9671 199.6281,135.2887 200.6559,136.1508 202.4983,139.456 203.2777,141.8672 204.467,148.0949 204.8443,151.8562 205.0903,160.5153 204.5753,170.4605 203.2216,181.4104 200.9798,193.0947 197.8343,205.2724 191.4818,224.0342 183.4115,242.9787 177.3061,255.5932 157.8403,293.6278 149.1098,313.027 144.31,326.0115 142.3141,332.465 139.2658,345.1567 137.611,357.3263 137.3396,363.1127 137.4468,368.6404 137.9327,373.8631 138.7937,378.7342 140.0219,383.2081 141.6055,387.2414 143.5294,390.7937 145.7749,393.829 148.3205,396.3167 151.1421,398.2324 154.2135,399.5592 157.5067,400.2876 160.9927,400.4163 164.6414,399.9514 168.4228,398.9047 172.3068,397.2936 176.2639,395.1406 180.2657,392.4734 188.2961,385.7283 196.2016,377.3591 203.8188,367.7107 211.0209,357.1521 217.714,346.0612 223.8299,334.8123 231.8285,318.4115 238.3584,303.5059 244.7787,287.3985 250.1471,272.6953"/>
    <polyline points="302.4095,532.4914 292.4963,523.5841 286.0128,516.6983 279.7196,509.0882 273.6803,500.8172 267.9457,491.9868 259.991,478.0237 252.8614,463.8355 242.7381,442.2924 237.5796,432.4379 234.4448,427.8047 232.9511,426.1637 231.4983,425.004 230.0802,424.3414 228.6905,424.1855 227.3226,424.5392 225.9701,425.4004 224.6265,426.762 221.9407,430.9322 219.215,436.8946 214.9506,448.6929 203.5543,484.1362 197.9003,499.9539 191.812,514.5941 185.4,527.2444 178.8444,537.3597 174.5128,542.5358 170.3111,546.4045 166.3327,548.9556 162.6741,550.2028 159.431,550.1785 156.6925,548.9267 154.5362,546.4945 153.6962,544.8514 152.5207,540.745 152.1914,538.2974 152.2293,529.4958 153.064,522.5389 154.4719,514.8611 156.3632,506.6275 159.8686,493.6845 166.4914,472.6747 170.29,462.0299 173.5549,454.0756 176.0632,449.5964 177.2534,448.7507 178.0456,449.6231 178.517,453.9298 178.2262,461.2744 177.3338,470.7981 173.9664,496.009 168.3929,528.5914 168.2998,531.065 169.3106,530.2687 177.2796,520.8963 183.0377,515.2342 190.3124,509.0928 198.9666,502.9631 206.2032,498.7154 213.9029,495.0613 221.8735,492.2688 229.9175,490.5503 237.8578,490.0075 245.5473,490.6247 252.8745,492.2846 259.7602,494.7935 268.1001,499.0389 276.7732,504.9382 280.7952,508.3757 283.7252,511.4878 285.3798,514.1001 285.6905,515.4872 285.3199,516.5407 284.8694,516.9291 282.4264,517.4768 278.3287,516.9793 272.6055,515.2702 265.3403,512.1687 259.6996,509.2472 246.6812,501.2303 231.6172,490.3468 215.0554,477.0139 202.1816,465.9617 170.2363,437.5821 160.85,429.7513 155.8347,426.0072 151.9636,423.6161 149.3208,422.6459 148.4733,422.6933 147.9423,423.0861 147.8117,424.8559 149.8025,429.6816 154.0667,436.495 157.9168,441.7319 164.7519,449.9672 169.736,455.3303 177.378,462.5854 182.3229,466.5965 189.1185,470.9747 193.0384,472.6418 194.7728,473.0748 197.7338,473.1246 198.9416,472.7427 200.7751,471.1845 201.3898,470.0218 201.9973,466.9791 201.3348,460.8316 198.8032,453.2261 196.1132,447.6452 192.666,441.896 188.518,436.2014 183.7462,430.7915 178.4512,425.8927 172.7605,421.7159 166.8304,418.4428 160.8458,416.2134 155.0182,415.1151 152.2349,415.0013 147.0797,415.6343 144.7684,416.3672 140.8231,418.609 137.9459,421.7828 136.9581,423.673 135.9522,427.9532 136.2811,432.7443 136.947,435.2703 139.252,440.4579 140.8694,443.0696 144.9559,448.2067 147.3859,450.6853 152.9049,455.3518 155.9426,457.4986 162.4375,461.3256 169.301,464.4215 176.3031,466.6758 179.7858,467.4605 186.5833,468.3145 192.9983,468.2103 196.0088,467.8079 201.5434,466.3436 204.0351,465.3055 208.398,462.6951 210.2456,461.1605 213.2235,457.7422 214.3373,455.908 215.7797,452.1244 216.1388,448.3791 215.9007,446.5948 214.569,443.3505 213.4676,441.947 210.375,439.7076 206.0752,438.3709 203.4666,438.0829 197.3284,438.3168 189.9725,439.6508 181.4389,442.0581 166.6258,447.4915 144.0263,457.3747 120.3526,468.9037 103.9863,477.6823 90.7787,485.9181 84.5816,490.8743 82.4251,493.1503 80.9485,495.2765 80.1777,497.2439 80.1268,499.0448 80.7992,500.6731 82.1898,502.1243 84.2846,503.3953 87.0611,504.4843 94.5288,506.1159 104.2583,507.0297 122.1209,507.1195 135.4508,506.3907 149.2692,505.0961 163.0196,503.3008 176.1718,501.0776 193.7426,497.1105 203.4342,494.1617 211.1296,491.067 216.5774,487.9127 218.3963,486.3411 219.586,484.7884 220.1312,483.2661 220.0202,481.7861 219.2427,480.3601 217.7888,479.0 215.6493,477.7178 212.8157,476.5253 209.2809,475.434 200.0893,473.6011 188.0686,472.3059 181.0146,471.8849 164.9108,471.5398 146.3717,471.9059 125.8314,473.03 103.9585,474.9441 81.6951,477.6627 60.2576,481.1802 41.0741,485.4695 32.7978,487.8889 25.6394,490.4806 19.7603,493.2349 15.2961,496.1405 12.3505,499.1848 10.9888,502.3541 11.2347,505.6331 13.0808,509.0059 16.4947,512.455 21.4193,515.9624 27.7746,519.5093 35.4587,523.0759 44.3507,526.6425 65.1913,533.7002 76.8257,537.1548 101.6813,543.831 140.3728,553.035 188.0601,563.2585 247.9546,575.2424"/>
  </g>
  <g fill="none" id="layer2" inkscape:groupmode="layer" inkscape:label="2" stroke="#080" style="display:inline">
    <polyline points="128.0844,832.3444 127.4093,830.6828 127.8145,828.6143 129.2775,826.1198 131.7366,823.185 137.0719,817.9433 154.6386,802.012 162.9598,793.9273 170.9097,785.4678 177.9749,777.0295 183.7283,769.0782 187.8312,762.0856 190.0396,756.4711 190.3845,753.6536 190.2109,752.5464 189.8057,751.6457 188.3055,750.4673 185.905,750.1013 182.6462,750.4943 173.8452,753.1972 147.8797,763.7166 137.4418,767.4134 131.7998,768.7279 129.4841,768.7029 128.818,768.3922 128.496,767.8747 128.9049,766.2079 130.7102,763.7008 133.8457,760.388 146.5339,749.1792 163.3253,735.9072 176.8862,726.3162 185.7581,721.1033 190.6445,718.987 192.7143,718.3944 196.0243,718.1912 197.2396,718.5859 198.1498,719.3074 198.7492,720.347 199.0047,723.3254 198.66,725.2272 197.0336,729.7384 194.1836,735.0046 190.1605,740.7722 185.039,746.7693 178.922,752.721 171.944,758.3632 164.2751,763.455 156.1225,767.7884 151.94,769.6165 147.7312,771.1955 139.3798,773.5542 135.3135,774.3151 127.5972,774.9765 120.709,774.4941 114.9752,772.9082 112.6371,771.7244 110.6971,770.2969 109.1843,768.6411 108.1228,766.7744 107.5311,764.7165 107.4214,762.489 107.8,760.1154 108.6679,757.6208 111.8504,752.3776 116.8754,746.9878 123.5736,741.6917 131.7093,736.7297 140.9955,732.3277 145.9705,730.3997 156.3743,727.1931 161.7191,725.9467 167.1045,724.9542 177.8418,723.7553 183.1215,723.5516 193.34,723.9117 198.222,724.4552 207.412,726.1936 215.712,728.6659 223.0147,731.6761 229.258,734.9997 234.4212,738.3956 240.1849,743.0921 245.5903,748.4717 227.9739,703.4808 224.1633,695.9349 222.7061,694.1895 222.1162,693.8958 221.6274,693.9992 221.2454,694.5007 220.9753,695.3955 220.8773,700.3132 221.907,708.1072 224.104,717.9016 226.2194,725.0136 228.8486,732.197 231.9811,739.1212 235.6066,745.4796 239.7213,750.9991 241.9635,753.3702 246.8274,757.2147 249.4553,758.6498 252.2196,759.7408 255.1259,760.4778 258.1798,760.8547 264.7506,760.5228 268.2758,759.8194 275.8187,757.374 279.8378,755.6557 288.3624,751.3118 302.2745,742.8791 342.9898,715.7937 357.5139,707.3485 366.1744,703.2411 373.6396,700.6893 376.8285,700.0584 379.6094,699.8759 381.953,700.1464 383.8346,700.8676 385.2353,702.0307 386.142,703.6205 386.548,705.6155 386.4534,707.9883 385.8635,710.7059 383.2437,717.0195 378.8256,724.2047 376.0036,728.0008 369.2863,735.742 365.4604,739.584 357.0615,746.9625 352.5669,750.4053 343.186,756.5858 338.3781,759.2488 328.7158,763.5629 323.9324,765.1638 319.225,766.3681 314.6242,767.1621 310.1582,767.5366 305.8533,767.4875 301.7331,767.0142 297.819,766.12 294.1305,764.8113 290.6844,763.0982 287.4961,760.9945 284.5787,758.5178 281.9436,755.6897 279.6008,752.5357 277.5582,749.0855 274.3963,741.4346 272.4848,733.053 271.9994,728.704 271.9595,719.9517 273.137,711.508 275.4965,703.8489 277.1064,700.4614 278.9951,697.4433 281.1561,694.8456 283.5819,692.7142 286.2648,691.088 289.1957,689.9986 292.3649,689.4687 295.7615,689.5121 299.3733,690.1346 303.1866,691.3345 307.1864,693.1032 311.3557,695.4254 315.6756,698.279 324.6841,705.4629 329.3271,709.7212 338.7648,719.3591 348.218,730.1741 357.4419,741.7619 370.2682,759.7016 377.7494,771.4711 384.0708,782.6839 386.7238,787.9868 390.894,797.8216 393.4346,806.4425 394.0676,810.2379 394.2713,813.6628 394.0489,816.6993 393.407,819.3316 392.3564,821.5461 390.9113,823.3313 389.0898,824.6782 386.9128,825.58 384.4047,826.0317 381.5922,826.0308 378.5043,825.576 375.1722,824.6664 367.9059,821.4848 360.0636,816.5002 351.9207,809.7508 343.7465,801.3118 335.7954,791.3099 328.3004,779.942 321.4689,767.4925 315.4807,754.348 310.4878,741.0044 306.6117,728.0516 303.9417,716.1408 302.5362,705.9392 302.4234,698.068 302.853,695.1702 303.6047,693.0313 304.6756,691.6853 306.0614,691.1518 307.7562,691.4359 309.7526,692.531 314.6119,697.0763 320.541,704.5358 331.1312,720.3062 343.1625,740.0093 359.8682,769.0239 371.4293,790.4606 380.7951,809.9784 385.2522,821.4083 387.9635,831.3354 388.6063,835.6955 388.7557,839.6396 388.4066,843.1618 387.5594,846.2588 386.22,848.9296 384.3995,851.175 382.1144,852.9974 379.386,854.4002 376.2398,855.3876 372.7058,855.9648 368.8172,856.1371 360.1223,855.2911 350.4608,852.8982 340.1481,849.0089 329.4913,843.6788 318.7743,836.9756 308.2464,828.9871 303.1201,824.5464 298.1153,819.8316 288.5431,809.6687 284.0048,804.2736 275.4769,793.0167 267.7221,781.4009 260.7599,769.7999 240.4137,732.6519 237.0722,727.9439 235.6553,726.5186 234.4074,725.7412 233.3282,725.6208 232.4174,726.1572 231.6742,727.3429 230.6853,731.5966 230.3443,738.1843 230.6212,746.8141 232.0962,762.7749 235.699,787.4714 239.258,806.6984 244.5214,830.8609 250.8052,855.5492 257.3454,877.7576"/>
    <polyline points="438.7006,934.2256 455.2869,930.1682 465.2735,927.1185 474.0386,923.8554 481.3746,920.4497 487.1636,916.9833 491.367,913.5456 494.0134,910.2291 494.7764,908.645 495.2535,905.6804 494.4477,903.0552 493.6108,901.8932 491.1675,899.9098 489.6016,899.1018 485.8836,897.8793 479.1604,897.0707 471.6075,897.4725 463.884,898.9521 456.6758,901.2752 452.491,903.1416 449.0205,905.1412 446.427,907.1649 444.8429,909.1038 444.3624,910.8545 444.554,911.6294 445.8151,912.9254 448.237,913.8257 453.9158,914.3382 461.7064,913.8097 471.0629,912.3006 484.8357,909.0079 495.2469,905.8053 505.0116,902.1515 510.8856,899.5178 518.4022,895.2949 522.3922,892.2815 525.4652,889.077 527.5565,885.6388 528.6188,881.9125 528.6212,877.834 527.5461,873.331 523.8972,865.6119 517.821,856.536 509.403,845.9787 498.8357,833.9766 486.4698,820.7709 445.6501,779.193 434.3473,767.2927 428.5202,760.6976 424.4386,755.4646 422.3429,751.7876 422.087,750.5739 422.37,749.7886 423.1925,749.4334 426.4302,749.9929 431.6933,752.1663 438.7932,755.8027 452.31,763.5341 508.887,797.6789 525.2574,806.6887 535.2771,811.6137 548.6283,816.9603 556.2981,818.9916 562.9538,819.7081 568.595,819.0746 571.0382,818.2482 573.2329,817.0832 575.1829,815.5821 576.8926,813.749 578.3677,811.5898 580.6407,806.3247 581.4542,803.2394 582.4788,796.2313 582.7648,788.2255 582.3933,779.4034 581.4441,769.9943 579.0991,755.4033 577.0174,745.8482 574.5856,736.8693 571.8487,728.8572 568.8421,722.1859 565.5931,717.1793 563.8846,715.3799 562.1229,714.0793 560.31,713.2905 558.4477,713.0186 556.5379,713.2607 554.5822,714.0077 552.5824,715.2442 548.4604,719.0958 546.3452,721.6526 542.0324,727.8475 535.4698,739.194 526.9667,756.1359 516.357,779.2628 510.8606,792.5154 510.7583,793.9733 514.9725,788.2907 532.5396,760.8247 545.3402,742.0031 556.2547,727.9307 564.078,719.4206 572.3027,712.1588 576.5531,709.1343 580.8876,706.5796 585.2994,704.5359 589.7808,703.0371 594.3234,702.1086 598.9179,701.7663 603.554,702.0164 608.2204,702.8563 612.9045,704.275 617.5923,706.2537 622.2689,708.7658 626.9179,711.7776 636.0618,719.1319 640.5182,723.3767 649.0961,732.7236 653.1738,737.7053 660.7944,747.9724 667.5523,758.2252 673.2767,767.98 677.8179,776.7942 681.0585,784.2836 682.9235,790.1331 683.3304,792.3652 683.3883,794.104 683.1022,795.3325 682.4799,796.0391 681.5316,796.2176 680.2699,795.8665 676.8682,793.5867 674.7643,791.6719 667.0936,782.9848 661.0847,774.9511 654.5975,765.404 644.431,748.9982 617.0582,700.8052 610.8775,691.7921 609.2845,690.1308 607.9437,689.1983 606.8637,689.0095 606.0519,689.566 605.5138,690.8595 605.2729,695.5746 605.5733,698.9317 608.1488,712.4471 611.2257,723.7412 615.327,736.244 620.3643,749.4013 626.2137,762.6789 632.7129,775.5935 639.6689,787.7358 646.8675,798.7836 654.076,808.5053 661.0483,816.7548 667.5326,823.4614 675.8098,830.6219 681.7015,834.4547 684.0288,835.3007 684.6732,835.2484 684.9635,834.8962 684.4817,833.3396 682.6186,830.7199 675.1302,822.6246 653.2447,801.442 623.813,773.6212 613.8729,764.8585 607.9925,760.1876 600.5896,755.4784 596.7404,754.0958 595.1707,753.9635 593.8479,754.207 592.7783,754.8236 591.9671,755.8069 591.4182,757.1465 591.1173,760.8364 591.3674,763.1497 592.6667,768.6006 593.7123,771.6865 598.3862,782.0464 605.2155,793.4342 610.8154,801.2061 620.4391,812.5989 627.3952,819.7483 638.0412,829.4245 648.08,837.4987 662.1232,847.8346 663.9797,849.3974 664.2615,849.8116 664.0935,849.9785 658.8237,848.1451 646.4581,842.2411 622.6319,829.1651 598.6019,814.6067 556.8535,788.3113 533.5963,774.771 517.0765,766.2765 508.5154,762.3147 490.8598,755.1729 481.8161,752.0735 472.6776,749.3384 463.4932,747.0007 454.3222,745.0893 445.2335,743.6281 436.3058,742.6353 427.6261,742.1229 419.2886,742.0966 411.3924,742.5563 404.0396,743.4971 397.3317,744.9093 391.367,746.7785 386.2362,749.0863 382.0198,751.8099 378.784,754.9235 376.5782,758.3976 375.4323,762.2006 375.3557,766.2985 376.3398,770.6559 378.3625,775.2364 381.3888,780.0033 385.3706,784.9197 390.2482,789.9496 395.9509,795.0577 402.3988,800.2103 409.5037,805.3749 417.1713,810.52 433.7951,820.6327 451.4533,830.3264 469.3356,839.406 502.8301,855.0891 550.317,875.5095"/>
    <polyline points="556.8854,571.1802 559.5672,573.0319 562.99,574.3644 567.1291,575.1582 572.7229,575.3778 579.864,574.7202 586.1873,573.4605 593.1985,571.3774 598.1526,569.452 603.239,567.0406 608.367,564.0969 613.4385,560.5796 618.3522,556.4544 625.2088,549.0793 631.1744,540.27 635.9971,530.112 638.4921,522.6998 640.3811,514.9008 642.0777,502.7992 642.4816,494.7215 642.3494,486.8679 641.7338,479.4469 640.6959,472.6633 639.3009,466.7061 636.6775,459.6619 634.6581,456.3883 632.4801,454.3186 630.1922,453.4537 629.0229,453.4598 626.665,454.2966 624.3236,456.1273 620.9498,460.3683 618.8613,463.9001 616.0791,469.7182 613.8368,475.5411 611.8914,482.2921 611.3556,486.9985 612.0024,488.909 612.975,489.4146 615.2858,489.146 628.3185,484.0804 634.4049,482.3692 638.7805,481.5769 643.3078,481.177 647.8839,481.2504 654.5899,482.3844 658.7788,483.8803 662.5988,485.9843 665.9312,488.6844 668.6663,491.9471 670.7086,495.7201 671.9816,499.9353 672.4309,504.5131 672.3365,506.9109 671.5037,511.8681 668.6819,519.5338 665.8098,524.6521 662.2077,529.6498 657.9407,534.413 653.0813,538.8273 647.708,542.7812 641.9043,546.1688 635.7579,548.8927 629.3603,550.8663 622.8065,552.0155 619.5017,552.2617 612.8994,552.0672 606.3928,550.9304 600.0838,548.8375 597.0316,547.4324 591.1788,543.9122 588.3941,541.8031 583.1412,536.9112 578.3444,531.1682 576.1273,528.001 572.0709,521.1367 568.5326,513.6679 565.5243,505.7428 563.0531,497.5383 560.3609,485.158 559.2443,477.1888 558.5909,466.2656 559.2214,457.291 560.4284,452.7465 562.3388,449.5539 563.5805,448.5044 565.0261,447.8341 566.6849,447.5499 570.6782,448.1476 575.6234,450.2732 581.5636,453.8315 592.3568,461.4926 630.3058,489.9914 670.4973,518.8021 681.8708,527.6806 687.4243,532.7905 691.0651,537.1897 692.1156,539.1076 692.6364,540.8295 692.6228,542.3492 692.0767,543.6602 691.0072,544.7554 689.4319,545.6272 687.3752,546.2676 681.9454,546.8185 675.0198,546.3308 666.9536,544.7207 658.1241,541.9055 648.9037,537.8111 644.2562,535.2653 635.0843,529.1521 630.63,525.5812 622.1373,517.4223 614.3665,507.9606 610.8039,502.7756 604.4053,491.604 601.595,485.674 596.8019,473.3026 594.834,466.9458 591.7831,454.1291 590.7076,447.774 589.4693,435.4488 589.4552,424.0193 590.6627,413.9368 591.7188,409.5327 593.0704,405.6167 594.7109,402.2302 596.632,399.4089 598.8239,397.1818 601.2748,395.571 603.9708,394.5909 606.8962,394.248 610.0332,394.5409 613.362,395.4599 616.8605,396.9849 620.5044,399.0859 624.2677,401.7237 632.0374,408.4149 635.9819,412.3556 643.8236,421.115 654.9335,435.4684 664.3859,449.7804 669.2976,458.5736 671.2406,462.6118 673.9643,469.7952 674.6995,472.8835 674.9919,475.6054 674.8276,477.9429 674.1961,479.8818 673.0923,481.4115 671.5163,482.5247 669.4733,483.2173 666.9737,483.4882 660.6682,482.7759 652.7636,480.4441 643.4666,476.6181 627.4037,468.529 583.5511,444.1327 570.0029,437.4424 556.1027,431.5961 541.8239,426.9428 534.5324,425.1569 527.1443,423.7721 519.67,422.8123 512.1264,422.2957 504.5358,422.2344 496.9265,422.6343 489.3321,423.4953 481.7911,424.8105 474.3466,426.5668 467.0454,428.745 459.9379,431.3206 453.0769,434.2644 446.5169,437.5429 440.3132,441.1198 434.521,444.9563 429.1941,449.0122 424.3841,453.2464 420.1392,457.6182 416.5035,462.0875 413.5157,466.6155 411.2086,471.1652 409.6082,475.7018 408.7332,480.1929 408.5947,484.6088 409.196,488.9224 410.531,493.1094 412.5819,497.1482 415.3201,501.0198 418.7067,504.7079 422.6938,508.1982 427.2263,511.4788 432.2439,514.5394 437.6835,517.3707 449.5714,522.3136 462.3871,526.2501 475.6706,529.1326 489.0309,530.9201 502.1577,531.578 514.8232,531.0784 520.9327,530.3888 526.8752,529.4052 538.2263,526.563 543.6265,524.7122 553.8746,520.1848 558.7281,517.5281 567.9084,511.4956 572.2345,508.1538 580.3443,500.9218 587.7035,493.1188 594.2753,484.9637 600.0238,476.701 604.9197,468.5934 610.6296,457.3142 614.3909,447.8713 615.863,442.9741 616.57,439.3978 616.5889,437.2518 616.0163,436.5799 614.9663,437.3565 613.5665,439.4882 611.1071,444.8701 608.6274,452.2086 606.57,460.6393 605.3322,469.2836 605.13,474.7653 605.522,479.7794 606.5702,484.1522 608.3154,487.7413 610.7749,490.4356 613.9372,492.1518 617.7497,492.8272 622.1165,492.4174 626.9011,490.9001 631.9328,488.2825 634.4806,486.5725 639.5082,482.3936 641.9338,479.9494 646.4734,474.4323 650.4254,468.2156 653.6038,461.5016 655.8558,454.5298 657.0725,447.5708 657.1953,440.9159 656.2175,434.8575 655.3284,432.1386 652.8048,427.4775 649.3956,424.029 647.4092,422.8134 645.2657,421.9584 642.9901,421.4751 640.6082,421.3706 635.6323,422.3043 630.5505,424.7259 628.0348,426.463 623.176,430.8899 618.6968,436.4151 616.6504,439.5165 613.0327,446.2401"/>
    <polyline points="556.6523,263.9664 541.7536,223.2349 529.2631,191.7189 517.2296,164.4601 510.7431,151.3011 504.0789,139.0815 497.3614,128.2724 494.0272,123.5374 487.5066,115.6597 484.3621,112.6043 481.3238,110.1862 478.4136,108.4336 475.6536,107.3671 473.0653,106.9999 470.6699,107.3372 468.4874,108.3758 466.5369,110.1018 464.836,112.4903 463.4005,115.5068 462.2443,119.1076 460.8148,127.8529 460.6131,138.2595 461.6632,149.821 463.9407,162.0387 467.3716,174.4558 471.8418,186.6691 477.2083,198.3382 483.3095,209.1897 489.977,219.0135 497.0458,227.6559 504.3637,235.0109 511.7973,241.0105 519.2373,245.6175 526.6003,248.8184 530.2342,249.8928 537.3838,251.0006 540.895,251.0414 547.7904,250.122 551.1787,249.1755 557.8567,246.354 561.1566,244.5016 567.6998,239.9812 577.4106,231.4082 583.8231,224.7246 590.1728,217.4765 599.5086,205.9924 624.1374,174.1368 631.8878,164.8949 634.6668,162.074 636.6134,160.6184 637.6738,160.6046 637.8607,161.1504 637.5389,163.3427 636.297,166.9549 631.2205,177.9878 623.2261,193.0071 610.4969,215.1308 593.5753,243.0745 547.6816,316.7773 541.7883,325.6389 539.7136,328.1479 538.9961,328.5597 538.843,327.9378 539.2823,326.2808 541.1117,321.9005 547.5029,309.9197 555.8681,296.663 567.3761,280.6644 578.1401,267.0588 590.6438,252.1191 644.9426,190.0584 666.8485,164.4111 676.3833,152.568 680.6737,146.7735 683.0801,142.9414 683.4813,141.2434 682.9132,141.228 681.8352,141.7761 680.2574,142.8861 675.6762,146.7489 661.6322,160.3904 643.1647,179.9993 623.0068,202.8274 603.5422,226.3763 590.4479,243.4362 579.1671,259.5133 569.9663,274.4738 565.0552,283.8478 559.556,297.0227 557.1311,305.1829 556.2874,309.0604 555.3285,316.374 555.2095,319.7935 555.6821,326.1119 556.2691,328.9915 558.1308,334.1419 560.8856,338.4152 562.5876,340.1992 566.6157,343.0178 571.4364,344.7854 574.1264,345.2583 580.0246,345.3551 586.5477,344.2951 593.603,342.0668 601.0836,338.686 604.9464,336.5765 612.836,331.5598 620.8264,325.5482 628.7659,318.6359 636.4922,310.9237 643.8362,302.5103 650.6272,293.4857 656.6986,283.924 661.8949,273.8786 666.0797,263.3771 669.1421,252.4339 670.2265,246.8103 671.4689,235.3114 671.6199,229.464 670.981,217.6614 669.1171,205.8587 666.1032,194.2585 662.0567,183.0925 657.1294,172.612 651.4987,163.0768 645.358,154.7405 638.907,147.8355 632.344,142.5572 629.0806,140.5755 625.8599,139.0502 622.704,137.9893 619.6341,137.3969 616.6701,137.2724 613.8306,137.6107 611.1332,138.4016 608.5937,139.6293 606.227,141.2725 604.0468,143.3047 600.2952,148.4087 597.4275,154.6525 595.5187,161.7095 594.6315,169.2386 594.8175,176.9029 596.1158,184.3854 598.547,191.3975 600.1876,194.646 604.3046,200.4833 606.7702,203.0206 609.4965,205.2722 612.4732,207.2174 615.6873,208.838 619.124,210.1187 622.7656,211.0464 626.5925,211.6104 630.5825,211.8023 638.9511,211.0466 643.2742,210.0938 652.0446,207.0487 656.4255,204.9701 665.0052,199.7592 669.1326,196.6601 676.885,189.5825 680.4413,185.6568 686.7545,177.1868 689.454,172.7134 691.8157,168.1325 695.446,158.8164 696.6851,154.169 697.5275,149.5896 697.9693,145.1246 698.011,140.8207 697.6577,136.7243 696.9196,132.8803 695.8119,129.3321 694.355,126.1205 692.574,123.2831 690.4978,120.8538 688.1584,118.8621 685.591,117.3327 682.8321,116.2849 679.92,115.7326 676.893,115.6837 673.7896,116.1401 670.6477,117.0971 667.5038,118.542 664.393,120.4552 661.3483,122.8099 655.5783,128.7075 652.9074,132.1701 648.1097,139.8963 646.0213,144.0629 642.5432,152.7577 641.1777,157.1905 639.2389,166.0029 638.3927,174.477 638.3856,178.4984 639.1987,185.9606 640.0103,189.3512 642.4032,195.3481 643.9611,197.9214 647.7228,202.1535 652.2165,205.1054 654.6813,206.0854 659.9167,207.0366 665.3687,206.637 668.0998,205.9344 673.4138,203.5488 675.9331,201.8832 680.5417,197.6684 682.5721,195.1515 685.9511,189.3988 687.2526,186.2103 688.9823,179.345 689.3808,175.7291 689.1971,168.2974 687.6857,160.8383 686.4407,157.1919 683.0269,150.2553 680.8918,147.0402 675.8748,141.2957 673.0446,138.833 666.8841,134.875 663.6146,133.4299 660.2605,132.368 656.8531,131.7042 653.4234,131.4487 650.002,131.6068 646.6183,132.1788 643.3008,133.1592 640.0764,134.5367 636.9707,136.2944 634.0074,138.4104 628.5953,143.6074 626.1855,146.6249 622.0428,153.3195 618.8953,160.6417 617.7231,164.4429 616.2248,172.1417 615.8924,179.7437 616.1717,183.4319 617.6221,190.4513 618.7865,193.7379 620.235,196.8504 623.9412,202.4924 628.626,207.28 634.1297,211.1513 640.2513,214.0752 646.7546,216.0463 653.376,217.0811 659.8364,217.2143 665.8536,216.4962 668.6106,215.8382 673.4635,213.9738 677.2507,211.4555 679.7933,208.3878"/>
    <polyline points="256.211,263.5569 226.2399,268.941 211.3005,272.1665 194.469,276.3196 182.6466,279.632 170.7233,283.3838 159.0655,287.5639 148.0622,292.1446 138.1053,297.0747 129.5685,302.2726 122.7852,307.6283 120.1396,310.3241 118.0293,313.0071 116.4764,315.6576 115.4973,318.2552 115.1028,320.7789 115.2976,323.2075 116.0804,325.5202 117.4422,327.6962 119.3663,329.716 121.8283,331.5606 124.7977,333.2126 132.1086,335.8776 136.3651,336.8647 145.8491,338.1003 156.312,338.3159 161.7953,338.0374 173.0518,336.7185 178.7478,335.689 190.1077,332.9311 195.7152,331.2247 206.6717,327.2225 211.9857,324.9563 222.2212,319.9735 231.8813,314.5003 240.9361,308.6688 249.3852,302.6048 257.2502,296.4228 264.5556,290.2227 274.4603,281.0659 280.3251,275.1468 287.9328,266.6554 292.1682,261.2976 297.2125,253.7999 299.6868,249.2232 302.0697,243.111 302.7936,239.6103 302.647,235.3371 302.2871,234.194 301.133,232.3548 300.3512,231.6651 298.4105,230.7571 296.0067,230.4902 293.1778,230.8799 288.1932,232.724 282.3602,236.1 273.2866,242.9746 265.5101,249.8638 253.8668,261.2509 240.8519,275.0283 230.3611,286.8459 219.545,299.738 208.8099,313.3465 198.655,327.1511 189.6231,340.4997 182.237,352.6648 176.9309,362.9218 173.9895,370.6384 173.5573,372.5608 173.5218,375.3543 173.9172,376.209 174.5853,376.6961 176.7214,376.5669 179.8809,374.9974 183.9945,372.0751 191.7639,365.4764 219.4876,339.7757 231.5928,329.1948 239.9758,322.3746 248.5591,315.9219 261.7786,307.222 270.8059,302.2405 279.9587,298.0255 289.164,294.6569 293.7555,293.3114 302.8396,291.3339 307.297,290.7141 315.9442,290.2374 320.0917,290.3882 327.9239,291.4804 334.9882,293.6279 341.1068,296.8116 343.7564,298.7808 346.1029,300.9939 348.1243,303.444 349.7993,306.1232 351.1075,309.0225 352.0298,312.1318 352.5489,315.4396 352.6495,318.9331 352.3186,322.5981 351.5457,326.4189 350.3246,330.3784 348.653,334.458 343.9696,342.8958 340.9735,347.2098 333.7388,355.9081 329.536,360.2414 320.0659,368.7438 314.8457,372.8589 303.5573,380.6823 291.2971,387.7916 278.2382,393.997 264.5204,399.1373 250.2388,403.0892 242.9019,404.5933 227.8693,406.6335 212.464,407.3891 196.888,406.9149 181.4233,405.3187 166.42,402.7607 152.2782,399.4419 139.4236,395.5895 133.6122,393.5375 123.4725,389.3295 119.2357,387.231 112.6277,383.1816 110.3217,381.2822 108.715,379.4983 107.8247,377.8517 107.6615,376.3621 108.2286,375.0477 109.5214,373.9241 111.5245,373.005 114.2124,372.3016 121.4959,371.5755 131.0058,371.7883 136.4574,372.2488 154.8804,374.9871 168.2984,377.834 189.0873,383.2895 235.799,397.972 253.9309,403.2203 265.333,405.8226 276.1925,407.506 286.4642,408.1468 291.3544,408.0515 300.5747,407.0107 304.8723,406.0697 312.7524,403.3877 316.2967,401.6747 322.4961,397.599 325.1129,395.2826 329.2921,390.2228 331.9698,384.7794 332.718,381.9849 333.0629,379.1795 333.0005,376.3906 332.5296,373.6448 331.6523,370.9674 330.3747,368.3827 328.7063,365.9133 326.66,363.5806 321.4999,359.4028 318.4253,357.5929 311.3985,354.6071 307.4942,353.4575 299.026,351.8994 294.5101,351.5088 285.0274,351.5383 280.1016,351.968 275.0771,352.6775 264.789,354.9325 254.2432,358.2686 243.4661,362.6072 232.4577,367.8248 221.2427,373.7548 176.1272,399.9945 165.5909,405.8345 155.8031,410.8338 147.0329,414.7499 139.5539,417.3821 133.6244,418.5865 131.3126,418.6263 129.4685,418.2857 128.1121,417.5664 127.2596,416.4757 126.9227,415.0259 127.1088,413.2341 129.0543,408.7143 130.8003,406.0401 135.7578,400.0165 138.9201,396.7336 150.7512,386.2087 165.2826,375.3506 181.4058,364.921 198.0873,355.4975 209.094,349.9756 219.7824,345.1579 230.0129,341.0969 244.3028,336.4852 257.1947,333.67 268.6388,332.6166 272.1177,332.6441 278.541,333.2446 281.4735,333.8081 286.7487,335.4343 289.0789,336.4844 293.0951,339.0228 296.2085,342.0826 298.3585,345.5655 299.4788,349.3494 299.6314,351.3108 299.0793,355.278 298.3586,357.2443 295.9942,361.0427 294.3398,362.8356 290.0665,366.116 287.442,367.5695 281.2087,370.0287 277.5978,371.0101 269.3824,372.4309 259.833,373.095 242.9495,372.6642 222.9037,370.6182 191.5935,365.7596 147.725,357.3076 113.1331,349.6412 90.6029,343.8557 73.3245,338.3156 65.5957,334.8469 63.014,333.1944 61.3301,331.6015 60.5631,330.0714 60.7205,328.6068 61.7986,327.2097 63.7784,325.8818 70.2848,323.438 79.7817,321.2795 98.2206,318.5689 119.4989,316.4571 148.2985,314.4577 197.2227,312.2343 207.9886,311.8939 211.4577,312.0647 205.9196,313.3128 186.6956,316.5505"/>
    <polyline points="250.4328,568.2193 204.4917,594.1879 170.3007,614.4093 140.218,633.4207 118.468,648.4004 99.4559,663.0744 89.2082,672.2001 84.9955,676.449 78.6399,684.1251 76.573,687.4776 75.2827,690.4598 74.7839,693.0399 75.0814,695.1893 76.1696,696.8831 78.0294,698.1005 80.6274,698.8252 83.9177,699.0455 87.8428,698.7547 92.3361,697.9515 102.7251,694.8362 114.4423,689.8208 126.8271,683.1195 139.2557,675.0151 151.1834,665.8282 162.1617,655.8884 171.8405,645.5094 179.9584,634.9708 183.3715,629.7164 186.3299,624.5053 188.8199,619.3585 190.8306,614.2932 192.354,609.3236 193.3843,604.4604 193.9177,599.7114 193.9527,595.0812 193.4893,590.5717 192.5306,586.1821 191.083,581.9093 189.1566,577.7476 186.7653,573.6896 183.9271,569.7255 180.6635,565.8441 172.9658,558.2886 168.594,554.5967 158.9885,547.3491 148.5206,540.2479 111.0358,516.3483 101.9332,509.8682 94.3359,503.638 88.5958,497.7415 86.5092,494.9493 84.9786,492.2795 84.0209,489.7468 83.6453,487.3662 83.8536,485.1534 84.64,483.1235 85.9898,481.291 87.879,479.6689 90.2753,478.2694 96.4233,476.1787 100.0775,475.5038 108.2719,474.9225 117.2587,475.381 121.9033,475.9983 131.216,477.9846 135.7809,479.3375 144.4958,482.7068 148.5646,484.6958 155.9522,489.2043 159.2136,491.6895 162.1547,494.3046 167.0006,499.852 168.8757,502.7478 171.4788,508.6963 172.1959,511.7167 172.521,514.7482 172.4558,517.7774 171.1757,523.782 168.4329,529.6489 166.5525,532.5107 161.8823,538.0613 156.1795,543.3535 146.2546,550.767 119.0855,567.4872 113.8435,571.0496 108.2253,576.0291 106.2183,579.1525 105.7719,580.6674 105.7016,582.1564 106.6754,585.0737 107.6995,586.5108 110.7346,589.3649 117.3667,593.6704 140.9577,606.3596 149.5015,612.0248 154.5452,616.1928 158.9129,620.708 162.5174,625.5847 164.0162,628.1585 166.3893,633.5652 167.2618,636.3892 168.3848,642.2438 168.6415,645.2557 168.5673,651.3883 167.0792,660.6282 164.1247,669.465 159.9544,677.3067 156.6449,681.6829 154.8693,683.554 151.1463,686.5749 149.2283,687.6952 145.3564,689.0993 143.4339,689.3677 139.6959,689.0182 137.912,688.4012 134.5922,686.3084 131.7014,683.1404 129.3481,679.0181 128.4029,676.6463 127.0259,671.3896 126.6103,668.5507 126.3542,662.5698 126.5186,659.4755 128.1519,650.058 131.3114,640.8975 135.6065,632.5129 140.5261,625.3195 143.882,621.3421 147.1174,618.0986 150.0957,615.6357 152.7039,613.9824 154.8572,613.1516 156.5017,613.14 157.1263,613.4343 157.9899,614.5897 158.4229,617.5755 156.9482,631.1831 156.9455,634.055 157.3494,636.4903 158.2553,638.3364 159.7247,639.4656 161.782,639.7813 163.0298,639.6127 167.6072,637.7518 173.3023,633.8823 179.8802,628.1778 189.5416,618.2495 199.6197,606.4647 211.9892,590.3153 223.4837,573.4467 231.6325,559.5087 235.2057,552.3279 238.3584,544.9901 242.1522,533.7111 244.6301,522.2079 245.5996,510.6955 245.3322,503.1714 244.912,499.4982 243.4877,492.4124 241.2772,485.7915 238.2776,479.7794 234.4949,474.5161 232.3151,472.206 227.3968,468.2999 221.7708,465.4222 215.4994,463.6366 208.668,462.9698 201.387,463.4085 193.7927,464.8957 189.9277,466.0018 182.1747,468.8541 174.5558,472.4205 163.8504,478.688 157.5339,483.1751 149.8803,489.845 146.3158,493.9625 144.2057,497.6078 143.7441,499.2043 143.6979,500.6269 144.0779,501.8601 144.8911,502.8903 146.1395,503.7056 147.8205,504.2956 152.4462,504.7679 158.6581,504.2611 162.3082,503.6346 175.1281,500.2892 184.9576,496.9026 195.5698,492.6863 212.5751,485.0639 249.1754,467.1335 268.5782,458.1509 288.7256,450.1248 302.4205,445.6507 316.11,442.0902 322.8721,440.6997 336.0348,438.7701 342.347,438.2506 348.4167,438.0359 359.6306,438.5238 369.2788,440.2042 373.3953,441.4659 376.9805,442.988 379.9942,444.751 382.4004,446.7329 384.1686,448.9097 385.274,451.2556 385.6978,453.7434 385.428,456.3455 384.4597,459.0338 382.7976,461.7803 380.4565,464.5574 377.4607,467.3386 369.6457,472.8122 364.9147,475.4577 354.0658,480.4617 341.7469,484.9663 335.1795,486.9965 321.5003,490.5642 307.4181,493.4372 293.2587,495.6 279.2695,497.0677 258.9526,498.0645 239.6422,497.8308 221.4266,496.6858 166.9448,490.7326 160.5177,490.7525 158.293,491.4153 157.8198,491.9652 157.775,492.6696 158.1561,493.5339 161.7728,497.1334 189.9582,517.7053 198.2533,524.3759 206.7504,531.8326 219.4132,544.5123 227.5439,553.9861 231.4627,559.0399 238.9389,569.8098 242.475,575.5416 249.1029,587.7391 252.1836,594.2105 255.1038,600.9262 260.4504,615.0477 262.8705,622.418 267.1895,637.6463"/>
  </g>
  <g fill="none" id="layer3" inkscape:groupmode="layer" inkscape:label="3" stroke="#f00" style="display:inline">
    <polyline points="230.4267,828.9351 230.9704,827.1263 230.5421,823.5844 228.0897,815.1395 223.5031,803.2687 216.8634,788.6104 208.3181,772.1535 201.6799,760.8452 194.4087,749.8338 186.6427,739.6596 178.5557,730.8756 174.4561,727.1699 170.3577,724.001 166.2921,721.4203 162.2917,719.4716 158.3903,718.1897 154.6222,717.5993 151.0217,717.7142 147.6229,718.5392 144.4593,720.0716 141.5626,722.3009 138.9626,725.209 136.6867,728.7711 134.7588,732.956 133.1993,737.7265 132.0244,743.0407 131.2458,748.8525 130.8704,755.1127 130.9002,761.7701 132.162,776.0668 134.9679,791.3267 139.1984,807.1602 144.6857,823.2271 151.2237,839.2549 162.4976,862.8264 174.8294,885.617 195.7649,921.7505 214.903,953.928 227.7623,974.2802 233.2044,981.8655 237.9436,987.3936 241.9619,990.7043 243.6982,991.5036 245.2525,991.7321 246.6255,991.3978 247.8179,990.5133 248.8311,989.0953 250.3255,984.7474 251.1221,978.5661 251.2353,970.8117 250.679,961.7768 249.4642,951.7687 247.5988,941.0916 245.0883,930.031 241.9367,918.84 236.0176,902.2577 228.6749,886.3399 219.8918,871.2855 209.6509,857.0354 197.9801,843.4862 185.0094,830.634 171.0318,818.5914 161.3958,811.1236 151.745,804.2154 142.3382,797.9836 133.4732,792.5551 125.4693,788.0503 115.7702,783.2436 111.2512,781.4403 109.6589,780.9726 107.8946,780.9044 107.7385,781.2971 108.8705,782.9062 114.0014,787.2411 156.1945,817.3213 169.5032,827.6249 181.7556,838.1865 192.2972,848.7988 198.1554,855.8426 202.9856,862.8469 205.002,866.3357 208.2273,873.2981 209.4374,876.7792 211.0653,883.7615 211.4919,887.2674 211.6005,894.3101 211.2986,897.8436 210.0333,904.9157 206.6742,915.4374 203.6395,922.2849 200.1356,928.8851 196.3236,935.1218 192.3764,940.8679 188.4741,945.9919 183.0992,952.2349 178.8076,956.4221 176.7933,957.9423 175.5879,958.4042 175.2633,957.8221 175.4428,957.1559 176.4886,955.126 179.7247,950.557 182.9164,946.7017 191.4304,937.7764 202.1929,928.3151 211.362,921.5517 221.2893,915.4605 231.9234,910.2445 239.4109,907.2973 247.2419,904.7734 255.4576,902.6508 264.1135,900.8929 273.2489,899.4522 292.9569,897.3004 346.1367,893.6182 364.4889,891.8982 371.8469,890.8471 377.6002,889.6295 381.5176,888.2178 383.4472,886.5847 383.6451,885.6765 383.3327,884.7025 382.5172,883.6589 381.2102,882.542 377.1889,880.0716 367.9922,875.7074 336.3086,861.724 320.8577,853.8185 310.7143,847.8735 301.0184,841.404 292.0058,834.447 283.873,827.0653 280.1871,823.2425 273.6565,815.4045 268.3285,807.4289 264.2727,799.4864 262.7361,795.5891 260.6584,788.0781 259.9044,781.1349 260.0163,777.9482 261.192,772.2846 262.2435,769.8601 263.5947,767.7391 265.2376,765.9427 267.1636,764.4889 269.3632,763.3929 271.8262,762.6662 274.5414,762.3167 277.4966,762.3483 284.0729,763.5555 291.4347,766.2615 299.4396,770.3991 307.9205,775.8668 316.6843,782.5364 321.1047,786.2767 329.8745,794.4704 334.1609,798.8829 342.3733,808.2373 346.2329,813.1398 353.2948,823.3032 356.4345,828.5309 361.7889,839.2068 363.954,844.6317 365.7503,850.1025 367.1618,855.6127 368.1767,861.158 368.7878,866.7363 368.9922,872.3483 368.7918,877.9967 368.1916,883.6853 365.8297,895.1828 362.0112,906.8054 359.6004,912.6371 353.8868,924.2567 347.1575,935.6692 343.4835,941.2306 335.6685,951.9062 327.4379,961.7514 319.0358,970.4696 310.6929,977.7655 306.61,980.7943 298.7401,985.4674 294.9951,987.0657 291.4015,988.1497 287.9755,988.7097 284.7316,988.7421 281.682,988.2484 278.8375,987.2346 276.207,985.7104 273.7977,983.6895 271.6153,981.1893 269.664,978.2307 267.9467,974.8374 265.2184,966.8544 264.2066,962.3236 262.8784,952.3397 262.5551,946.9507 262.5675,935.5372 263.4214,923.4763 265.0672,910.9835 268.8991,891.8144 272.2713,878.927 276.2151,866.0299 280.6502,853.1568 288.0215,834.0907 293.2542,821.7798 301.235,804.4931 308.8703,789.4887 315.5259,777.8172 320.5526,770.4303 321.7618,769.0438 323.3673,767.9716 323.7335,768.2933 323.7931,769.1831 323.5377,770.6328 320.8335,778.2 315.2149,790.1549 309.8961,800.209 303.3743,811.6536 295.7046,824.2549 286.9385,837.8043 277.114,852.1365 266.2434,867.1472 254.3012,882.8085 234.1996,907.5564 211.2182,933.5931 194.289,951.3209 176.2107,968.9231 166.8197,977.5258 147.5852,993.9753 128.2194,1008.885 118.7084,1015.5557 109.4516,1021.5955 100.5646,1026.9289 92.169,1031.4879 84.3892,1035.2148 77.3481,1038.064 71.1633,1040.0042 65.9425,1041.0196 61.7786,1041.1108 58.7458,1040.2922 56.8957,1038.5885 56.2555,1036.0344 56.8269,1032.6737 58.5938,1028.5588 61.5242,1023.7497 65.5698,1018.3126 70.6678,1012.3189 83.7013,998.9649 91.4483,991.7613 108.8651,976.6977 138.0322,953.6125 168.0051,931.5998 204.2697,906.4749 249.442,876.7753"/>
    <polyline points="438.0812,933.5555 440.0058,942.8017 442.1434,948.6051 444.913,953.9281 446.5153,956.358 450.1085,960.6565 454.1491,964.089 456.3091,965.4425 460.8495,967.3669 465.6048,968.2015 470.4827,967.9309 475.3961,966.5831 480.2668,964.2252 485.0265,960.9609 489.6195,956.9248 494.0051,952.2744 500.1508,944.5202 515.8346,920.9442 520.5537,914.5672 523.7077,911.0132 526.9337,908.0755 530.2876,905.7773 533.824,904.1182 539.5902,902.773 546.0835,902.649 553.5157,903.4982 579.728,908.0369 592.4552,909.5541 601.8411,910.2238 611.8838,910.5131 627.9274,910.0689 644.5822,908.3952 660.9271,905.3583 671.07,902.5406 675.7684,900.8905 684.1671,897.1079 687.7702,894.9767 690.9154,892.6867 693.563,890.239 695.6785,887.6347 697.2341,884.8745 698.2096,881.9591 698.5925,878.8886 698.3787,875.6624 697.5707,872.2794 696.177,868.7377 694.2118,865.0361 691.6956,861.1747 685.1222,852.9798 676.7345,844.1834 661.5268,830.0025 581.7859,760.4824 572.0376,752.8651 567.2941,749.9579 563.9751,748.8793 562.8454,749.0181 562.0637,749.5931 561.6241,750.5863 561.7436,753.7325 563.143,758.2297 567.5018,766.8906 574.3683,776.901 580.2139,783.7878 583.4848,787.1809 590.6603,793.6954 594.5361,796.7563 602.7806,802.3559 611.553,807.1232 616.0821,809.1555 625.2995,812.4651 629.9312,813.7306 639.0847,815.4735 643.5393,815.9544 652.0258,816.1606 655.9844,815.9014 663.1487,814.7065 669.0761,812.6852 673.5171,809.9387 675.1161,808.3277 676.2749,806.5773 676.9801,804.7024 677.2237,802.718 677.0027,800.6394 676.3183,798.4819 675.1759,796.2617 671.5615,791.7028 666.2886,787.1118 659.5454,782.6511 651.5673,778.4905 647.1979,776.5764 637.8746,773.1845 628.0112,770.5033 622.9656,769.4726 612.8149,768.1028 602.7925,767.7256 597.9004,767.9267 588.4783,769.1235 579.6795,771.3753 575.5588,772.8875 567.9429,776.6495 561.2163,781.3309 558.1962,783.9881 552.8397,789.8708 548.3688,796.4199 546.4518,799.9095 543.2226,807.2514 541.8958,811.0783 539.7785,818.9875 537.8201,831.3546 537.1296,844.1892 537.5185,857.4655 538.3095,866.6194 540.2362,880.9923 543.0304,896.4074 546.7234,913.0255 551.4035,930.7595 555.1391,943.0252 559.4273,955.4261 564.3213,967.6991 569.868,979.5202 572.8976,985.1465 579.4841,995.5856 583.0427,1000.299 586.7775,1004.6103 590.6863,1008.4733 594.7658,1011.8449 599.0113,1014.6867 603.4162,1016.9657 607.9722,1018.656 612.6688,1019.7391 617.4934,1020.2049 622.4306,1020.0518 627.4626,1019.2851 632.5687,1017.9164 637.7256,1015.9633 642.9067,1013.449 648.0831,1010.4024 653.223,1006.8572 658.292,1002.8515 663.2538,998.4275 672.7024,988.5075 681.2542,977.484 688.5981,965.7599 694.4525,953.7335 696.748,947.7257 698.5928,941.7817 699.9718,935.9442 700.8763,930.2537 701.3041,924.7485 701.2599,919.4642 700.754,914.4339 699.8017,909.6881 698.423,905.2547 696.6427,901.1592 694.4894,897.4245 691.9957,894.0714 689.1972,891.1184 686.1323,888.5818 682.8415,886.476 679.3667,884.8134 675.7509,883.6046 672.0373,882.8581 668.2688,882.581 664.4879,882.7784 660.7353,883.4546 657.0505,884.614 653.4706,886.26 650.0303,888.3957 646.7617,891.023 643.694,894.1434 640.8542,897.758 638.2663,901.867 635.9517,906.4695 633.9287,911.5629 632.2131,917.1418 630.8173,923.1977 629.7511,929.7181 629.0213,936.6855 628.6317,944.0765 628.8742,960.0 629.501,968.4474 631.7364,986.0292 635.2161,1004.0267 637.3897,1012.9538 642.5169,1030.1242 645.4275,1038.1295 648.5363,1045.5829 651.8149,1052.3606 655.232,1058.3434 658.7538,1063.4213 662.3441,1067.4978 665.9648,1070.4939 669.5764,1072.3517 673.1379,1073.0372 676.6079,1072.5404 679.9447,1070.8688 683.1071,1068.0457 686.055,1064.1095 688.7501,1059.1129 691.1568,1053.1219 693.2427,1046.2139 694.9796,1038.4762 696.3437,1030.0041 697.3166,1020.8984 697.8857,1011.2634 698.044,1001.2048 697.7909,990.8272 697.1303,980.2326 696.0714,969.518 694.628,958.7745 690.6654,937.5253 685.4387,917.0444 679.1994,897.7374 672.2327,879.8526 668.5687,871.4808 661.063,855.8898 649.8842,835.4664 642.8596,823.9538 636.4399,814.2544 630.8157,806.4767 624.2126,798.58 621.2147,795.8621 620.1743,795.2539 619.4528,795.131 619.0585,795.4777 619.2777,797.5067 620.8762,801.1725 623.8867,806.2718 628.3272,812.5732 637.6502,823.7324 650.0047,836.1794 659.7234,844.7909 675.9739,857.6478 687.4401,865.9223 719.6432,887.9449 727.7367,894.0327 733.5714,899.3346 735.5031,901.6613 736.7237,903.7572 737.208,905.612 736.9437,907.2168 735.9292,908.5634 734.1726,909.6452 731.6921,910.457 728.5152,910.995 720.2272,911.2434 709.6984,910.3918 703.7456,909.5594 690.8111,907.102 683.9784,905.4881 669.9656,901.5236 655.9986,896.628 649.217,893.8513 636.4011,887.6821 624.9887,880.7468 619.9433,877.0111 615.4002,873.1057 611.3992,869.0358 607.9753,864.8077 605.1584,860.4288 602.9738,855.9088 601.4418,851.2591 600.5785,846.4933 600.395,841.6272 600.8989,836.6788 602.0962,831.6687 603.9915,826.6195 606.5876,821.5566 609.8853,816.5074 613.8824,811.5014 618.5735,806.5701 623.9489,801.7469 629.9933,797.066 636.6853,792.5629 643.9955,788.2733 651.8856,784.2324 660.307,780.475 669.2005,777.0339 678.4944,773.9401 688.1039,771.2214 697.9301,768.9022 707.8598,767.0026 717.7656,765.5384 727.5072,764.5199 736.9336,763.9524 745.8857,763.8356 754.201,764.1642 761.7182,764.9288 768.2833,766.1162 773.7558,767.7096 778.0149,769.6889 780.9651,772.0308 782.5414,774.7095 782.712,777.6968 781.4748,780.9628 778.8488,784.4761 774.8741,788.2044 769.6109,792.1148 763.138,796.1745 755.5512,800.3509 746.9612,804.6122 727.2734,813.2654 693.5537,826.1298 658.2356,838.2169 614.6772,852.102 554.4952,870.4549"/>
    <polyline points="548.6622,572.6543 533.4536,552.9815 517.7447,531.1297 503.491,509.7393 492.9311,492.6903 480.4991,470.7109 475.4902,460.8806 471.5535,452.3365 468.8571,445.4441 467.5348,440.5262 467.4203,438.8915 467.6818,437.8416 468.3247,437.3959 469.3506,437.5684 470.7582,438.3667 472.5424,439.7906 480.063,447.684 529.5855,509.0904 547.2175,529.4329 566.0829,549.5865 579.2855,562.7218 592.8819,575.5776 659.1056,635.2132 669.8693,645.5736 679.0371,655.0475 686.3364,663.4428 689.2187,667.1761 693.3594,673.6012 695.2839,678.5058 695.4185,680.3468 695.0151,681.7638 694.0919,682.7481 692.6745,683.2944 690.7949,683.4011 685.8059,682.3061 679.4792,679.5279 672.2103,675.2026 664.4025,669.5266 656.4385,662.7395 644.9338,651.0664 637.9624,642.7144 631.8,634.2492 626.6014,625.9491 622.4732,618.0667 619.4809,610.8232 617.6552,604.4055 616.9977,598.9657 617.4855,594.6225 618.1454,592.8907 619.0719,591.4634 620.2549,590.3472 621.6827,589.5468 623.3421,589.0652 627.2944,589.0643 631.9677,590.3479 634.5196,591.469 639.925,594.6554 642.7219,596.7112 648.353,601.7144 651.124,604.6436 656.4177,611.2992 658.8775,614.9966 663.2736,623.0433 665.1549,627.351 668.1628,636.4143 670.0363,645.8885 670.5118,650.702 670.5007,660.3104 669.2,669.6502 666.6651,678.4159 663.026,686.2929 658.4778,692.9711 655.9376,695.7698 653.2646,698.1644 650.4938,700.1256 647.6611,701.6283 644.8026,702.6511 641.9543,703.1773 639.1511,703.1951 636.427,702.6976 633.8147,701.6838 631.345,700.1601 629.0468,698.1395 626.947,695.6415 625.0702,692.6917 623.4388,689.321 620.9895,681.4622 619.7301,672.3862 619.5768,667.5008 620.2659,657.2568 621.1202,651.9842 623.8619,641.3386 625.7473,636.0389 630.5219,625.648 636.5667,615.7161 643.7547,606.4195 651.9045,597.8905 656.2681,593.9444 665.3993,586.7318 670.0883,583.477 679.4966,577.6887 692.9802,570.829 700.985,567.4672 707.7631,565.0654 712.9775,563.622 714.9087,563.2607 717.2811,563.2627 717.6836,563.6282 717.5477,564.2378 713.9088,567.5355 684.6783,587.0124 669.6323,598.1058 654.3619,610.9102 639.9322,624.9689 627.1167,639.6418 619.7216,649.3684 613.3498,658.7308 608.0464,667.4334 602.118,678.5949 598.5688,686.6381 597.4603,689.8642 597.2946,691.1692 598.0058,690.4392 599.5143,687.6322 604.5046,676.0439 609.4572,662.7657 613.0469,652.1489 616.6678,640.4017 620.1409,627.7448 624.6786,607.4397 627.0003,593.1934 627.8883,585.8785 629.0257,570.8588 629.2028,555.2673 628.8963,547.2412 627.4401,530.7428 624.8179,513.7356 623.0632,505.0961 618.6742,487.7075 613.1472,470.456 609.9766,462.007 602.8709,445.7494 594.8214,430.7592 590.4716,423.8981 585.9199,417.543 581.1768,411.7534 576.2513,406.5851 571.1515,402.0887 565.8836,398.3088 560.4522,395.2828 554.8599,393.0401 549.107,391.6016 543.1935,390.9789 537.1228,391.174 530.9022,392.1788 524.5422,393.9717 518.0578,396.5177 511.4674,399.7687 504.794,403.6658 498.0641,408.1411 484.5622,418.5223 471.2522,430.271 458.4767,442.7381 441.1529,461.4847 431.4106,473.2823 427.2271,478.8192 420.4561,488.9762 417.9461,493.5353 416.064,497.7157 414.8365,501.4983 414.2845,504.8678 414.4228,507.8127 415.2598,510.3247 416.7951,512.3992 419.0185,514.034 421.9106,515.2296 425.4434,515.9887 429.5814,516.3161 434.2827,516.2181 439.5005,515.7029 445.1846,514.7812 457.7415,511.7739 464.509,509.7226 478.7708,504.6272 501.3211,494.8765 524.4477,483.2952 570.646,458.2999 585.9345,450.4832 608.5181,440.1989 623.0551,434.6506 636.8643,430.368 643.3978,428.7429 649.628,427.476 661.0091,426.0343 666.0769,425.8571 670.6771,426.0337 674.7739,426.5522 678.3351,427.396 681.3328,428.5441 683.7446,429.9713 685.5531,431.6492 686.7474,433.5465 687.3226,435.6294 687.2804,437.8629 686.6291,440.2106 685.3851,442.6357 683.5738,445.1015 681.2288,447.5716 678.3909,450.0108 671.4289,454.6622 667.4122,456.8121 658.5943,460.6207 649.1196,463.617 644.2774,464.7611 634.6437,466.2665 629.946,466.6061 620.9922,466.4256 612.8492,465.0887 605.7235,462.6302 599.7588,459.1402 597.2411,457.051 593.17,452.2976 590.4122,446.9602 589.5315,444.1501 588.7685,438.418 589.3291,432.7774 590.0988,430.0831 592.5896,425.1259 596.2921,420.9664 598.5696,419.2611 601.1124,417.8397 603.9038,416.7235 610.1555,415.4727 617.1499,415.5963 624.6787,417.1071 632.5024,419.9348 640.3552,423.9279 647.9533,428.8684 655.0055,434.4903 658.2366,437.4658 663.9364,443.5576 668.4098,449.5908 670.1167,452.497 672.3569,457.9266 672.855,460.3915 672.9211,462.6544 672.5472,464.6921 671.7299,466.4837 670.471,468.0109 668.7775,469.258 666.6617,470.2115 664.1404,470.8609 657.9685,471.2167 650.4681,470.2892 641.8726,468.083 637.2375,466.5132 627.4298,462.4891 617.0681,457.3832 606.3149,451.351 595.2912,444.5903 561.1661,422.4608 543.4654,412.1525 531.3237,406.2408 518.9174,401.4068 506.3286,397.8645 500.0077,396.6273 487.4262,395.2795 481.2201,395.1771 475.1115,395.4528 463.3224,397.0966 457.7138,398.4293 447.2547,401.9894 442.4786,404.1527 434.0117,409.0618 430.3868,411.7277 424.4968,417.2756 422.2778,420.0754 420.5664,422.8392 419.3742,425.5292 418.7076,428.1098 418.5679,430.5478 418.9508,432.8129"/>
    <polyline points="360.3854,589.12 355.0035,582.7424 349.2937,576.6169 343.2968,570.7446 330.6036,559.7472 317.2366,549.733 303.4783,540.7067 289.5647,532.6871 275.6732,525.6974 268.7733,522.5948 255.1015,517.1797 241.5971,512.8118 228.2342,509.4627 215.0318,507.0763 202.0654,505.5676 189.465,504.8235 171.6567,504.8281 133.553,507.1167 129.6251,506.8027 128.3838,506.3901 127.6269,505.7798 127.35,504.9531 127.5429,503.8935 128.1914,502.5863 130.7811,499.1821 154.4143,474.5648 170.4692,456.7028 182.5488,442.2216 208.8896,409.3898 215.1337,403.2309 216.6821,402.2496 217.9534,401.8358 218.9431,401.9951 219.6481,402.7253 220.0665,404.0171 220.0429,408.214 217.8758,418.1085 213.2172,431.3411 206.1997,446.5395 200.3136,457.027 197.0404,462.2129 189.9044,472.2108 186.0755,476.9271 177.9979,485.5783 173.7967,489.437 165.2064,496.0573 160.8792,498.7647 156.5755,501.0405 152.3319,502.8669 148.1866,504.2303 144.1794,505.1205 140.3509,505.5313 136.742,505.4598 133.3929,504.9059 130.3429,503.8715 127.6291,502.3605 125.2858,500.379 123.3436,497.9356 121.8289,495.0414 120.7629,491.7109 120.1614,487.9616 120.0342,483.815 120.3853,479.2964 121.214,474.4362 124.2785,463.8364 126.4903,458.1833 132.1823,446.4294 135.6152,440.4493 143.5149,428.6234 147.9187,422.9268 152.5809,417.4786 157.4672,412.3583 162.543,407.6448 167.7743,403.4139 173.1278,399.7366 178.5714,396.6767 184.0747,394.2894 189.6094,392.6188 195.1493,391.6968 200.6709,391.5419 206.1534,392.1602 211.5786,393.5476 216.9316,395.6904 222.2002,398.5654 227.3754,402.1404 232.4509,406.3748 237.4236,411.2209 242.2928,416.6242 247.0611,422.525 251.7333,428.8593 260.82,442.5597 269.6113,457.1769 302.4141,514.8564 310.044,527.1835 317.4042,538.2039 324.4502,547.8181 334.3027,559.5287 340.2924,565.5484 348.2174,572.0128 354.6402,575.5836 357.9718,576.4584 360.4741,576.1996 361.3993,575.6639 362.5772,573.8145 362.8471,570.9695 362.2176,567.172 360.7213,562.4609 356.9854,553.7738 333.9146,509.0482 327.4255,495.3216 323.6431,486.4928 319.1979,474.3983 316.6476,464.5018 316.1812,459.5455 316.3458,457.6384 316.7833,456.1385 317.4971,455.0604 318.4883,454.4139 319.756,454.2036 321.2969,454.4294 325.1722,456.1689 330.035,459.5555 335.7625,464.4611 342.1935,470.723 352.7158,482.2521 363.5465,495.7589 373.7196,510.6118 379.629,520.9883 382.2107,526.2678 386.4621,536.9415 389.3134,547.7007 390.1612,553.0943 390.6054,558.4916 390.6393,563.8907 390.261,569.2919 389.4735,574.6974 388.2836,580.1107 384.741,590.962 379.7532,601.8214 373.4841,612.6191 366.1319,623.2402 357.9172,633.5278 353.5588,638.4873 344.4854,647.9034 335.1255,656.458 330.4058,660.3398 321.0116,667.1738 311.8277,672.6059 307.3649,674.746 298.7845,677.8071 294.697,678.7143 290.7623,679.2044 286.9922,679.2811 283.3972,678.9514 279.9868,678.2252 276.7697,677.1148 273.7537,675.6348 270.9459,673.8022 268.3526,671.6361 265.9796,669.1573 261.9153,663.3524 260.2333,660.075 257.5898,652.8971 255.9298,645.0626 255.2754,636.7777 255.6431,628.2398 257.0459,619.6306 259.4945,611.1116 261.1135,606.9301 265.1429,598.7978 267.5536,594.872 273.1653,587.3518 276.3635,583.773 279.8201,580.3232 287.4923,573.8263 291.6962,570.7841 300.7972,565.1167 305.671,562.4934 315.9884,557.674 332.571,551.5349 344.0413,548.1825 355.516,545.4261 366.6591,543.2594 377.0991,541.666 386.4472,540.6207 397.6027,540.0092 404.399,540.424 405.5771,540.7633 406.1939,541.1925 406.2511,541.7049 405.7582,542.2937 403.1897,543.6715 395.781,546.1265 385.0002,548.8609 367.5479,552.5674 349.4775,555.8819 330.3063,558.8522 318.5543,559.9947 316.4245,559.8387 315.8407,559.288 316.7933,558.308 319.2421,556.8578 334.7414,549.1908 346.1659,543.1395 354.606,538.1517 363.3215,532.3461 371.9259,525.695 379.9973,518.1971 387.1027,509.8882 390.1627,505.4534 392.8302,500.8513 395.0629,496.1016 396.8244,491.2278 398.0851,486.2581 398.8229,481.2249 399.0241,476.1655 398.6833,471.121 397.8017,466.1371 396.3876,461.2628 394.4565,456.5498 392.0305,452.0515 389.1382,447.8226 385.8143,443.9176 382.0985,440.3899 378.0353,437.2904 373.6728,434.6663 369.0625,432.56 364.2578,431.0076 359.3137,430.038 354.2855,429.6722 349.2286,429.9228 344.1972,430.7955 339.244,432.2897 334.4196,434.3985 329.7717,437.1087 325.3449,440.4012 321.1804,444.2516 317.3156,448.6301 313.784,453.5028 310.6147,458.832 307.8332,464.5768 305.4603,470.6944 303.5131,477.1403 302.0046,483.8696 300.9445,490.8378 300.3392,498.0015 300.1916,505.3191 300.502,512.7515 301.2686,520.2627 302.4881,527.8199 304.1552,535.3944 306.2628,542.9619 308.8017,550.5022 311.7602,558.0001 318.8766,572.8316 322.997,580.1589 332.2426,594.6216 337.3079,601.7386 348.1408,615.6645 365.4523,635.4212 377.0505,647.4751 388.0875,658.294 416.5588,684.4802 406.311,677.3874 342.2469,631.1143 255.9075,568.2725"/>
    <polyline points="257.043,268.5407 309.5674,257.5533 351.9634,247.7811 386.9816,238.6542 409.9349,231.8217 420.8602,228.2106 440.8745,220.6599 449.6818,216.7487 457.5151,212.768 464.2583,208.7352 469.8098,204.669 474.0854,200.5893 477.0199,196.5174 478.5682,192.4752 478.7067,188.4858 477.4333,184.5729 474.773,180.7606 470.7853,177.0734 465.5607,173.5358 459.2164,170.172 451.8907,167.0056 443.7366,164.0594 434.9157,161.3552 425.5914,158.9133 406.0685,154.8887 396.1657,153.3372 376.7242,151.2163 358.4629,150.4548 342.0148,151.0739 334.6117,151.8944 327.8088,153.0452 321.6342,154.5139 316.1084,156.2842 311.2451,158.3366 307.0528,160.6486 303.5356,163.195 300.6941,165.9489 298.5262,168.8819 297.0277,171.9645 296.1927,175.1669 296.0142,178.4594 296.4838,181.8128 297.5915,185.1987 299.3235,188.59 301.6619,191.9612 304.5852,195.2884 308.0679,198.5495 312.0805,201.7248 321.5567,207.7487 332.695,213.2434 345.1097,218.1259 358.3508,222.345 371.9096,225.8763 391.6068,229.8738 408.7605,232.3453 417.8412,233.1828 424.4754,233.4083 428.3037,233.0583 429.0912,232.68 429.1068,232.1736 428.3478,231.5449 424.5562,229.9455 413.7205,226.7897 354.6295,212.2154 309.877,200.2479 304.7453,199.1469 303.7129,199.2883 304.5786,200.1616 307.2836,201.7595 321.1878,208.5673 384.6371,236.747 391.9069,240.603 394.518,242.5265 395.1089,243.2873 395.217,243.9142 394.8445,244.4086 393.9998,244.7729 390.9625,245.1268 383.4549,244.8006 373.3206,243.6162 357.8076,241.1122 342.5288,238.1171 326.9799,234.5729 315.4963,231.4362 333.5284,237.2163 353.6439,245.059 364.1944,249.9338 370.7959,253.4087 376.727,256.9757 381.7267,260.5505 385.5674,264.0433 388.0693,267.3616 389.1134,270.4118 389.0706,271.807 388.6506,273.0995 386.709,275.3273 383.4034,276.9967 381.2968,277.5913 376.3283,278.2408 370.585,278.0929 364.3624,277.0576 361.1643,276.1809 354.7739,273.6614 351.6488,272.0012 345.6924,267.8388 342.9157,265.3213 337.884,259.3819 333.6768,252.2098 331.9215,248.1582 329.1648,239.137 327.4624,228.941 327.0169,223.4329 326.9393,211.6882 327.3018,205.5002 328.801,192.6444 329.9217,186.0494 332.8533,172.7366 334.6388,166.1135 338.774,153.1911 343.5428,141.0639 346.1146,135.4368 351.52,125.3247 354.3041,120.9404 359.9031,113.7392 362.6624,110.997 365.3567,108.8668 367.957,107.3702 370.4342,106.5213 372.7594,106.3268 374.9046,106.7856 376.8425,107.888 378.5472,109.6142 379.9944,111.9342 381.162,114.8095 382.031,118.1938 382.813,126.2749 382.7047,130.8542 381.4648,140.7803 380.3361,146.002 377.103,156.6618 372.6724,167.2406 370.0604,172.3746 364.1732,182.1166 357.5984,190.9167 354.1315,194.887 346.9992,201.8442 343.3974,204.7895 336.276,209.526 329.4563,212.6276 326.2264,213.535 323.1489,214.0016 320.2457,214.0216 317.5369,213.5918 315.041,212.7116 312.7748,211.3844 310.7537,209.6173 308.9915,207.4213 307.5008,204.8112 306.2928,201.8058 305.3777,198.4276 304.7645,194.7031 304.4747,186.3399 304.811,181.7729 306.4679,172.073 309.4445,161.9265 311.4227,156.8103 316.3289,146.7553 319.2376,141.9237 325.8978,132.9176 329.6132,128.8447 333.5553,125.1221 337.697,121.7933 342.0074,118.8975 346.4522,116.4691 350.9938,114.5369 355.5918,113.1241 360.2033,112.2476 364.7834,111.9178 369.2858,112.1387 373.6631,112.9073 377.8681,114.2128 381.8539,116.0358 385.575,118.3497 388.988,121.1211 392.052,124.3106 394.7298,127.8745 396.9883,131.7656 398.799,135.9341 400.1389,140.3297 400.9904,144.9015 401.342,149.5999 401.1885,154.3769 400.5309,159.1872 399.378,163.9881 397.7466,168.74 395.6614,173.4055 393.1542,177.9495 390.2633,182.34 383.5086,190.5441 379.7434,194.3063 371.6998,201.0409 367.5287,203.976 359.1496,208.9036 355.0407,210.8701 347.2112,213.7555 340.1628,215.1894 337.0164,215.3463 334.1598,215.1241 331.6166,214.5201 329.4068,213.534 327.5471,212.1679 326.0505,210.4268 324.9269,208.3183 324.1829,205.8526 323.8227,203.0436 323.8484,199.9079 324.2602,196.4659 326.2296,188.7613 327.7734,184.5565 331.9216,175.6106 337.3713,166.2104 340.5303,161.4471 347.5823,152.0253 351.4128,147.4625 359.5071,138.8732 363.6935,134.9404 372.1378,128.0178 380.3875,122.6099 384.3292,120.5553 388.0906,118.9672 391.6298,117.8639 394.9063,117.258 397.882,117.1561 400.5202,117.5592 402.787,118.4619 404.6515,119.8513 406.0862,121.7076 407.0679,124.0046 407.578,126.7101 407.6024,129.7869 407.1325,133.1939 406.1658,136.8869 404.7066,140.8195 400.3643,149.2132 394.2769,157.9968 386.7055,166.8104 377.9765,175.3296 368.4529,183.2737 358.5079,190.4096 353.4909,193.6142 343.5809,199.199 334.0872,203.5807 325.2658,206.6601 321.1729,207.6874 313.7286,208.6817 310.4114,208.6381 307.3833,208.2292 304.6561,207.4534 302.2397,206.3117 300.1427,204.8073 298.3724,202.946 296.9348,200.7363 295.8351,198.1893 295.0776,195.3193 294.6657,192.1433 294.8895,184.9571 296.5192,176.8296 297.8594,172.4885 301.5716,163.4284 306.6143,154.1298 309.6109,149.4986 316.4904,140.4996 324.4399,132.1598 333.2909,124.8384 337.9902,121.6639 342.8325,118.8632 347.7846,116.4689 352.8109,114.5089 357.8733,113.0061 362.9316,111.978 367.9439,111.4362 372.8668,111.3863 377.656,111.8275 382.2667,112.7525 386.6543,114.146 390.7748,115.9853 394.5858,118.2412 398.0468,120.8783 401.12,123.856 403.7708,127.1297 405.9689,130.6514 407.6883,134.3705 408.9083,138.2347 409.6137,142.1913 409.7949,146.1879 409.4483,150.173 408.5767,154.0969 407.1904,157.9124 405.3073,161.5748 402.9525,165.0425 400.1573,168.2773 396.9582,171.2444 393.3966,173.9127 389.5171,176.2544 385.3667,178.2455 380.9938,179.8657 376.4473,181.0981 371.7753,181.9292 367.0249,182.3495 362.2412,182.3525 357.4667,181.9359 352.7414,181.1011 348.1018,179.8548 343.5813,178.2086"/>
    <polyline points="398.8888,144.1822 397.9233,145.7803 397.3685,147.513 397.2305,149.3669 397.5095,151.3278 399.2943,155.5107 400.7761,157.7022 404.8239,162.2087 413.2031,169.0509 419.9402,173.5008 427.2427,177.74 442.2552,185.2315 452.6518,189.7038 461.2974,192.9931 467.5083,194.9843 470.0918,195.5618 471.3789,195.537 471.5414,195.3019 470.9433,194.3986 467.9291,192.0193 446.0676,177.5802 434.144,169.2606 427.2167,163.8666 425.1236,161.9513 424.0243,160.3586 425.4949,160.5096 427.8684,161.627 435.5788,166.2091 443.4233,171.4284 465.058,187.1106 487.0901,204.4496 495.1904,211.4202 496.7766,212.979 497.2462,213.8546 494.2813,212.2235 487.3082,207.364 469.9805,194.0268 450.7886,177.9002 434.2737,162.8279 419.0388,147.532 409.9733,137.2258 405.631,131.4512 402.9414,126.8551 402.0686,123.6413 402.3387,122.5979 403.0816,121.944 404.2921,121.6837 405.9599,121.8151 410.6001,123.2237 416.8211,126.0679 428.5562,132.6518 442.2264,141.3207 456.649,151.1504 502.4351,184.2578 508.1568,187.7696 511.3099,188.7584 511.8154,188.5258 512.0599,187.2397 510.6751,183.3644 507.4641,177.4234 502.7203,169.8956 496.7292,161.4504 492.1919,155.7145 487.3389,150.2075 482.2893,145.2041 474.6541,139.2067 469.7626,136.5303 467.4454,135.6497 465.2467,135.0912 461.3078,134.9636 459.6188,135.3936 458.1491,136.1448 456.9207,137.206 455.2646,140.1931 454.777,144.187 455.5376,148.9694 456.3988,151.5773 459.0851,157.0542 463.0296,162.6416 468.1665,168.0559 471.1524,170.6134 477.8844,175.2735 481.5969,177.3203 489.6236,180.7276 493.9001,182.0488 502.8849,183.8521 507.5567,184.3143 517.177,184.3342 522.0974,183.8906 532.1026,182.1127 542.2767,179.1991 552.592,175.249 563.0586,170.4044 573.697,164.8497 617.0384,140.5386 627.4408,135.4064 637.2608,131.2479 646.2347,128.3157 650.3192,127.3742 657.5172,126.6328 660.5692,126.8553 663.2198,127.4804 665.4459,128.5081 667.2286,129.9341 668.5538,131.75 669.4126,133.9431 669.8015,136.4971 669.7227,139.3918 669.1828,142.604 666.7671,149.8738 662.6861,158.0695 657.1265,166.9285 650.319,176.1759 642.5254,185.5378 634.0255,194.7507 625.1058,203.5652 616.0487,211.7503 602.7819,222.3997 590.5931,230.578 583.3882,234.4267 577.0981,236.8713 571.8394,237.8398 569.6254,237.756 567.7,237.2889 566.0701,236.4363 564.7411,235.197 563.717,233.5714 563.0007,231.5609 562.5934,229.1688 562.7061,223.2619 564.045,215.9182 565.168,211.7404 570.305,197.4201 577.9735,181.0233 584.385,169.4571 587.948,163.6314 595.7182,152.1833 599.8919,146.6858 608.7174,136.4702 618.0223,127.7251 622.7866,124.0562 627.5845,120.928 632.3826,118.3852 637.1455,116.4641 641.8362,115.191 646.4167,114.5817 650.848,114.641 655.0914,115.3646 659.1083,116.7398 662.8611,118.7462 666.3141,121.356 669.4341,124.5343 672.1906,128.2399 674.5572,132.4258 676.5119,137.0403 678.0372,142.0278 679.1211,147.3296 679.7574,152.8851 679.945,158.6323 679.6888,164.5095 678.9977,170.4551 677.8847,176.4094 676.3665,182.3146 674.4633,188.1155 672.1987,193.7605 669.5987,199.2012 666.6919,204.3932 663.5089,209.2961 660.0815,213.8735 656.4427,218.0934 652.6255,221.9284 648.6632,225.3553 644.5883,228.355 640.4324,230.9127 636.2262,233.0169 631.9988,234.6597 627.7776,235.8364 623.5881,236.5454 619.4542,236.7875 615.3973,236.5661 611.4369,235.8856 607.5906,234.7512 603.8739,233.1689 600.3001,231.1456 596.8811,228.689 593.6268,225.808 590.5457,222.5129 587.6447,218.8152 584.9295,214.7285 580.0744,205.4541 576.0067,194.8494 574.2732,189.1127 571.4122,176.9373 569.3618,164.1093 568.1205,151.0473 567.6824,138.2559 568.0376,126.3094 569.1734,115.8167 571.0734,107.3717 572.3034,104.0831 573.7153,101.4904 575.3049,99.6356 577.0667,98.5488 578.9946,98.247 581.0811,98.7342 583.3177,100.0047 585.6943,102.0435 588.1994,104.8265 593.5409,112.4866 596.3461,117.275 602.1358,128.4946 610.9548,148.4536 619.3637,170.4663 626.6563,192.633 632.1248,213.2824 634.4451,225.5448 635.5346,236.2603 635.2986,245.2229 634.667,249.0019 633.6895,252.2967 632.3669,255.0994 630.7022,257.4054 628.7005,259.2125 626.3681,260.5203 623.712,261.3307 620.7402,261.6468 617.4611,261.4732 613.8831,260.8146 610.0147,259.6751 601.4386,255.9689 591.7873,250.3851 581.0934,242.9575 569.3564,233.7334 556.5294,222.7875 510.4023,181.1638 482.7281,157.2181 462.8625,141.1807 452.6449,133.3867 432.0049,118.7213 421.7697,112.0491 411.7376,105.9499 402.0329,100.5193 392.7888,95.8457 384.1435,92.0073 376.2367,89.0691 369.2045,87.0804 363.1738,86.0727 358.2573,86.0585 354.5478,87.034 352.1142,88.9825 350.9974,91.8751 351.2085,95.6707 352.7359,100.3172 355.5497,105.7524 359.6018,111.905 364.8267,118.6965 371.1432,126.0425 378.4553,133.8541 386.6549,142.0401 405.2359,159.1666 415.3604,167.9261 436.6115,185.407 469.0295,210.3868 508.3582,238.8089 531.7422,254.9864 557.3728,272.2295"/>
  </g>
</svg>
