<?xml version="1.0" encoding="utf-8" ?>
<svg xmlns="http://www.w3.org/2000/svg" xmlns:cc="http://creativecommons.org/ns#" xmlns:dc="http://purl.org/dc/elements/1.1/" xmlns:ev="http://www.w3.org/2001/xml-events" xmlns:inkscape="http://www.inkscape.org/namespaces/inkscape" xmlns:rdf="http://www.w3.org/1999/02/22-rdf-syntax-ns#" xmlns:sodipodi="http://sodipodi.sourceforge.net/DTD/sodipodi-0.dtd" xmlns:xlink="http://www.w3.org/1999/xlink" baseProfile="tiny" height="29.7cm" version="1.2" viewBox="0 0 793.7007874015749 1122.5196850393702" width="21.0cm">
  <metadata>
    <rdf:RDF>
      <cc:Work>
        <dc:format>image/svg+xml</dc:format>
        <dc:source/>
        <dc:date>2022-05-22T14:25:01.619417</dc:date>
      </cc:Work>
    </rdf:RDF>
  </metadata>
  <defs/>
  <g fill="none" id="layer1" inkscape:groupmode="layer" inkscape:label="1" stroke="#00f" style="display:inline">
    <polyline points="477.7332,539.3388 480.9088,536.6756 485.2864,532.3322 493.8742,522.5314 501.0207,513.087 508.5845,501.5219 514.9964,489.999 520.0114,479.3699 524.498,467.9521 528.25,455.938 531.0824,443.5777 532.8424,431.1807 533.4188,419.1114 532.9834,409.9637 531.301,399.5214 529.0569,392.2248 526.8679,387.5018 525.1773,384.7523 521.271,380.2968 517.9121,377.9266 515.4846,376.8287 512.9173,376.1233 508.8256,375.8038 505.9518,376.0789 501.4477,377.2068 496.7419,379.16 491.8682,381.8889 483.4596,387.9866 473.0657,397.4118 462.5283,408.4519 431.2566,443.5681 422.7445,452.0412 414.2437,459.336 409.1142,463.0433 403.9404,466.1942 398.706,468.7529 395.1758,470.115 389.8108,471.6257 386.1834,472.2702 380.6611,472.6844 376.9234,472.5893 371.2316,471.8888 363.4872,469.9182 355.5807,466.7822 347.5429,462.5177 339.4202,457.1808 331.276,450.8496 323.1902,443.6274 315.2585,435.6447 307.5913,427.0626 298.5653,415.7873 290.396,404.3191 283.3383,393.163 277.6309,382.8665 272.8448,372.4262 270.5315,364.9072 270.337,362.4702 270.7817,361.0025 271.8521,360.5442 273.5256,361.1131 275.7713,362.7064 278.5508,365.3029 285.5247,373.3309 294.024,384.6944 303.5715,398.6924 313.6732,414.5085 325.5252,434.1309 336.8043,453.8215 345.5843,469.9469 353.2454,484.8306 359.5752,498.1058 364.4234,509.5386 367.6936,519.0062 369.3351,526.4706 369.4487,531.1746 368.973,533.3492 368.0944,535.0489 366.3069,536.5952 363.1111,537.4113 359.8185,537.2084 354.8422,535.9374 348.9952,533.5928 342.3933,530.2356 335.1813,525.9287 329.0893,521.8445 316.4985,512.1411 310.2436,506.6144 304.1937,500.7111 298.4894,494.4964 294.5227,489.6757 289.7592,483.1021 286.6509,478.1128 283.2187,471.4624 280.6894,464.914 279.1369,458.5829 278.6066,452.5889 279.113,447.0529 280.6411,442.093 283.1491,437.8198 286.57,434.3319 288.5959,432.9089 291.993,431.2006 297.1163,429.7537 302.8045,429.2882 308.9261,429.8162 315.3462,431.3268 321.9304,433.7881 328.5488,437.1489 335.0787,441.3403 339.8498,444.9791 345.96,450.4159 351.6991,456.428 356.9871,462.9088 360.616,468.0115 364.959,475.0515 368.693,482.266 371.781,489.5561 373.6561,495.018 375.5521,502.2257 376.7456,509.279 377.2301,516.1119 377.0053,522.6678 376.076,528.899 374.4511,534.7659 372.1437,540.2358 368.3276,546.4736 363.5213,551.9946 357.7892,556.7358 351.2162,560.6292 343.9118,563.6066 336.0142,565.6037 327.6923,566.5646 319.1471,566.4438 310.6097,565.2075 302.3355,562.8304 294.5952,559.2942 288.9707,555.6213 283.996,551.1911 279.7924,545.9956 276.4629,540.0233 274.0865,533.2572 272.9613,527.6523 272.4107,521.59 272.4339,515.0726 273.3364,505.6899 274.6384,498.1544 276.4416,490.2201 278.7061,481.9227 282.361,470.3774 287.7694,455.3808 293.8472,440.1045 301.594,422.0598 309.3222,405.2311 316.5019,390.6679 322.6433,379.4077 327.3187,372.331 328.4881,371.013 329.8386,370.0592 330.6766,370.347 330.9372,371.2256 330.7158,374.5936 329.0035,381.6658 326.4641,389.3982 322.8877,398.7288 318.2982,409.3944 307.9845,430.4179 297.1312,449.8458 282.7427,472.9208 269.6331,492.2255 242.7277,530.1911 232.9688,545.4176 228.0022,554.7243 225.2303,561.2585 222.9237,569.3631 222.2856,574.9722 222.5994,580.1647 223.3338,583.388 224.4802,586.4156 226.9467,590.5809 229.0662,593.1012 231.5432,595.4118 237.4754,599.3913 244.5292,602.4992 252.4574,604.7247 260.9907,606.0688 269.8493,606.5447 280.9554,605.9589 289.5413,604.5913 299.497,601.8352 308.1981,598.0163 314.0169,594.2751 318.6623,589.993 322.0222,585.2342 323.6493,581.3903 324.4858,577.3391 324.5197,573.1045 323.7486,568.7088 322.1782,564.1728 319.8221,559.5153 316.7021,554.7531 311.4086,548.2648 306.6428,543.3089 301.2541,538.2853 288.8815,528.0596 277.3516,519.4017 246.0497,496.895 233.2137,486.9326 224.4323,479.0987 218.0002,471.8766 215.454,467.913 214.3452,465.449 213.7213,463.1412 213.705,459.9965 214.3049,458.1267 216.1012,455.6867 217.8765,454.316 221.3571,452.6633 227.3892,451.2456 236.8054,450.7849 245.4714,451.4846 254.7821,453.1307 264.387,455.7035 273.9364,459.166 283.0941,463.4654 291.5479,468.536 299.017,474.302 303.8248,479.0332 307.8535,484.0728 311.0288,489.3844 312.6412,493.0588 313.8329,496.8277 314.8071,502.6368 314.7821,508.6048 313.7443,514.7028 312.4878,518.8278 310.7814,522.9927 306.0382,531.4202 299.5771,539.9506 295.7336,544.2476 289.2511,550.7276 276.7283,561.5944 262.4665,572.4795 247.077,583.2767 210.3809,607.9336 199.9122,615.4291 193.1549,620.7052 185.9607,627.1941 182.1294,631.5954 180.387,634.2855 179.3222,636.7672 179.0219,640.0769 180.2788,642.8646 181.9655,644.4208 184.3081,645.7284 188.9889,647.2152 197.2086,648.3027 204.6523,648.4502 215.9286,647.7788 228.299,646.1607 237.9837,644.3665 251.0195,641.2681 260.6089,638.469 272.7567,634.1919 281.1461,630.6409 291.0523,625.5496 297.3353,621.5347 302.5005,617.4124 306.4498,613.2374 309.1069,609.0632 310.1329,606.3064 310.527,602.2474 310.0188,599.613 308.0966,595.8024 306.0454,593.3749 303.385,591.0519 300.1251,588.845 291.8624,584.8221 286.8979,583.0261 278.4808,580.6271 265.6227,578.0221 247.4132,575.8005 227.6592,574.8159 207.4797,575.1453 188.1998,576.8525 177.6628,578.5609 171.2616,579.9909 165.4631,581.6565 160.3506,583.5596 155.9993,585.7015 152.4747,588.0827 149.8308,590.7033 148.1082,593.5625 147.333,596.6584 147.5164,599.9882 148.6554,603.548 150.7356,607.3324 153.7306,611.3346 157.6035,615.5464 167.783,624.5565 180.7861,634.2589 192.0301,641.9089 208.4671,652.4711 284.5896,699.1118 326.724,725.9646"/>
  </g>
  <g fill="none" id="layer2" inkscape:groupmode="layer" inkscape:label="2" stroke="#080" style="display:inline">
    <polyline points="458.7184,409.1485 460.8096,406.8866 461.3555,404.3446 460.4874,401.7476 458.3574,399.3275 455.1297,397.3052 450.9723,395.8719 446.0481,395.1724 441.4674,395.2135 434.4772,396.2491 425.8571,398.733 416.7444,402.3133 395.0825,411.8162 387.7446,414.5558 381.7095,416.3809 374.6789,417.8502 369.0988,418.3684 363.8729,418.1798 359.0993,417.2552 355.6716,415.986 352.6438,414.2631 350.0603,412.1167 347.9605,409.5912 346.3773,406.7445 345.3359,403.6477 344.8528,400.3839 344.9354,397.0464 345.5807,393.7366 346.7749,390.5607 348.4928,387.626 350.6987,385.0373 353.3472,382.8925 356.385,381.2786 359.7519,380.2678 362.4538,379.9385 367.2079,380.2492 372.1558,381.6539 376.16,383.5514 381.1073,386.8331 385.8668,391.0224 390.3136,395.9718 394.3321,401.5043 397.8168,407.4231 400.6733,413.5223 403.1551,420.7908 404.3509,426.5776 404.6898,431.9303 404.1229,436.6962 402.6111,440.7487 400.1236,443.9912 397.4156,445.9586 393.122,447.608 387.8181,448.3583 381.5198,448.2409 372.7048,447.0425 364.3927,445.2678 353.4199,442.3806 311.0031,429.461 294.478,424.863 286.8065,423.1246 280.6201,422.1546 276.1818,422.0647 274.0173,422.679 273.1425,423.9288 273.5643,425.8214 275.2482,428.3494 279.0151,432.368 286.9879,439.4598 312.6749,460.5294 324.8168,471.001 336.0885,481.6964 344.4029,490.7867 350.9959,499.6157 353.5319,503.8854 355.5117,508.038 356.9056,512.0605 357.6904,515.942 357.8486,519.6734 357.3688,523.2474 356.2447,526.658 353.7414,530.9438 351.1165,533.9579 346.6412,537.7059 342.5775,540.3124 336.2679,543.5142 329.0217,546.4014 320.9559,548.9702 309.9522,551.7266 298.2729,553.9723 286.371,555.7038 274.775,556.9224 262.0845,557.7165 251.7043,557.801 243.7688,557.0432 242.0211,556.4498 241.3557,555.7029 242.2026,554.4775 245.0394,553.0024 249.8146,551.291 258.3356,548.8395 339.6429,529.5879 362.7893,523.4843 381.903,517.9019 399.9738,512.0273 416.8287,505.8921 432.44,499.5326 446.8016,492.9932 463.8353,484.0915 476.4575,476.2545 482.5748,471.8135 487.8138,467.4386 492.1148,463.1646 494.6947,460.0479 496.7027,457.0257 498.4725,453.1732 499.1969,449.5612 498.8849,446.2314 497.9863,443.9439 495.9341,441.2045 492.9542,438.8527 489.1105,436.9195 484.4769,435.4302 479.1346,434.4034 473.1685,433.8499 464.9646,433.8255 457.9051,434.3294 448.5855,435.584 440.8149,437.0543 430.7975,439.4181 412.1256,444.8901 386.3001,453.7654 319.9331,477.8968 310.5369,481.7105 308.4243,482.8783 308.0494,483.4423 309.221,483.6802 312.1526,483.4019 322.757,481.3472 336.619,477.9225 353.1225,473.2377 378.7729,464.9305 422.0767,449.3724 436.6031,444.9533 445.2322,443.2241 451.492,442.8172 455.0354,443.145 457.3464,443.7169 459.3524,444.5719 461.0485,445.7098 462.432,447.1281 463.503,448.8214 464.2639,450.7817 464.806,453.7933 464.5173,460.0718 462.8009,467.467 460.3612,474.5321 456.6191,483.4299 441.1354,515.4696 434.7729,530.073 432.0417,537.5138 429.7169,545.0916 427.8677,552.854 426.7712,559.2207 425.9215,567.3922 425.6872,575.8043 426.0972,584.4431 426.9022,591.4943 428.5144,600.4358 430.291,607.6419 433.1165,616.63 435.8525,623.7276 440.7219,634.0454 445.4439,642.1643 451.8362,651.074 457.6945,657.603 463.9515,663.1486 470.5111,667.5786 477.261,670.7981 484.073,672.7586 488.1317,673.33 492.1296,673.4589 496.0333,673.1625 499.8089,672.4642 503.4225,671.393 506.8409,669.9829 510.0318,668.2727 513.8803,665.5999 516.4264,663.3616 519.3222,660.1591 521.6068,656.8188 523.2487,653.463 524.2325,650.2126 524.5594,647.1837 524.2479,644.4855 523.3316,642.2178 521.8582,640.4693 520.4233,639.5448 518.1258,638.8795 516.1567,638.8337 513.2698,639.4073 510.9563,640.327 506.1116,643.4439 501.2287,648.2398 496.5982,654.6106 492.4857,662.3597 489.6218,669.6602 487.027,679.0983 485.6671,687.2087 485.0894,696.7707 485.5322,704.2098 486.8373,710.8199 489.0073,716.3036 492.0262,720.4164 494.2307,722.152 495.8574,722.9891 497.6049,723.5663 500.4416,723.9445 505.6945,723.3058 511.5047,721.1914 519.0145,716.9935 526.8318,711.4357 535.8796,703.9934 546.4585,694.3964 560.1138,681.1604"/>
  </g>
  <g fill="none" id="layer3" inkscape:groupmode="layer" inkscape:label="3" stroke="#f00" style="display:inline">
    <polyline points="235.7577,633.1027 236.8246,638.589 239.3066,645.4361 242.9113,651.6288 247.5075,657.0411 251.5083,660.5174 257.4322,664.2923 263.845,667.0068 270.5355,668.6002 277.2903,669.0403 283.9006,668.3247 290.1691,666.4783 295.9149,663.55 300.9776,659.6105 305.2202,654.749 308.53,649.0699 310.3462,644.3434 311.8265,637.5166 312.2068,632.071 311.7233,624.4755 310.617,618.5933 308.8807,612.6052 306.5285,606.5557 303.5819,600.4854 298.7798,592.4216 294.5729,586.4367 289.9001,580.5346 284.8183,574.7363 277.5218,567.1941 265.8383,556.3332 239.0477,533.1426 229.7607,524.0123 224.8843,518.1636 222.0503,513.9015 219.4785,508.3901 218.5014,504.3918 218.312,501.7946 218.7174,498.0081 219.9302,494.3619 221.912,490.8674 224.6077,487.5375 227.9469,484.3851 231.8457,481.4234 237.7487,477.7939 244.2282,474.5563 251.0193,471.7374 257.8514,469.3601 266.0458,467.0358 273.4045,465.4498 280.534,464.5257 285.2532,464.6423 286.5736,465.0724 287.1542,465.7364 286.976,466.6215 286.4322,467.3274 284.3296,468.9963 280.9066,470.974 274.8849,473.8143 258.0126,480.3785 225.0275,491.7598 214.0182,495.8267 204.331,500.1814 200.8537,502.4284 199.3809,503.9825 198.9362,505.4171 199.5394,506.7273 201.185,507.9097 204.9456,509.2842 215.4158,511.1333 229.796,512.2949 251.5075,512.8597 273.4772,512.5278 292.3774,511.4956 306.7322,509.7909 311.1366,508.6073 312.0681,507.9952 312.1461,507.3798 310.4091,506.3655 306.4313,505.3914 292.5196,503.6555 270.5969,502.1593 225.8523,500.0947 220.0086,499.5926 218.1531,499.0091 220.5335,498.2941 227.0029,497.4031 285.3605,490.9197 311.6384,487.0016 324.8991,484.3321 333.2209,482.0415 338.3148,479.84 339.578,478.8018 339.967,477.8212 339.4802,476.9104 338.6719,476.3477 334.9857,475.1226 329.0006,474.1978 322.6581,473.706 303.9911,473.5161 283.615,474.5208 261.7801,476.6912 243.5423,479.5413 234.2848,481.5518 228.1785,483.2322 222.9481,485.053 218.7186,487.0063 215.5929,489.0836 213.6474,491.2759 212.9279,493.5745 213.1376,495.1616 213.8957,496.7899 216.041,499.3043 219.3492,501.8987 223.7457,504.5668 231.1302,508.2289 242.4053,512.9596 286.255,529.1164 302.4739,535.5796 316.9178,542.302 323.2116,545.7747 328.7727,549.329 333.5318,552.9683 336.2305,555.4424 339.5337,559.2253 341.2237,561.794 342.971,565.7144 343.6036,568.37 343.8075,571.0565 343.3097,575.1372 341.8537,579.2677 338.4462,584.8253 333.4136,590.3985 326.8372,595.9336 320.959,600.0224 311.9768,605.3348 301.8538,610.4179 290.8127,615.1901 279.1233,619.5663 264.0881,624.3489 249.2563,628.2164 235.4241,631.0213 223.4159,632.6405 214.0109,632.9836 209.8955,632.5533 207.8583,631.9975 206.4146,631.226 205.5806,630.2393 205.4905,628.3588 206.2038,626.8417 207.5274,625.1177 210.6248,622.1527 216.7128,617.5187 229.5257,609.2064 264.1715,588.3678 283.377,576.2197 302.1211,563.1332 316.5896,551.5867 324.529,544.3919 329.4539,539.4835 338.3166,529.3897 344.0257,521.5731 347.3569,516.2465 350.2946,510.8309 352.8301,505.3313 355.8654,496.9393 357.9684,488.4037 359.1359,479.7644 359.3746,471.0717 358.6993,462.3862 357.1307,453.7785 354.695,445.3292 351.4238,437.1272 347.3552,429.2683 342.5341,421.8538 337.0138,414.9869 330.8563,408.7705 324.1341,403.3035 316.9304,398.6774 309.3405,394.9725 301.4716,392.2549 296.129,391.0166 290.7534,390.2491 285.3849,389.958 280.0657,390.1451 274.8394,390.8084 269.7507,391.9425 264.8449,393.5393 260.1678,395.5874 255.7642,398.0725 251.6784,400.9778 247.9524,404.2839 244.626,407.9694 241.7358,412.011 239.3145,416.3838 237.3903,421.0618 235.9865,426.018 235.1206,431.2248 234.8046,436.6547 235.3731,445.1569 237.1886,454.0065 239.0797,460.0554 241.5003,466.1944 246.0834,475.5206 253.8467,488.0634 263.2832,500.594 274.1188,512.9926 282.9829,522.1507 292.332,531.1587 315.2932,551.5223 354.6792,583.9537 403.205,622.6765 416.8371,632.5443 423.1971,636.4864 427.2851,638.5662 430.7893,639.8668 433.7109,640.3743 436.0524,640.0849 437.2931,639.4517 438.2798,638.4706 439.0148,637.1468 439.652,634.5338 439.504,628.5815 437.9032,620.7859 434.172,609.2936 428.6004,595.8444 422.6554,583.4278 415.6098,570.1341 407.5326,556.1344 398.5029,541.5503 388.6276,526.4471 375.866,507.7341 360.1524,485.4374 339.7664,457.2349 317.296,426.861 302.5002,407.5348 296.0193,399.976 296.1832,400.7382 297.9995,403.7046 306.5535,415.9982 330.7636,448.3007 359.6345,484.8106 390.9539,522.8409 426.7289,564.8905 457.8092,600.344 486.6919,632.1577 517.1471,664.2473 543.0224,690.0689 563.4365,709.2787 578.2171,722.3933 587.6704,730.3545 605.234,744.0135 613.1704,749.552 620.4285,754.1363 626.9266,757.7091 632.5886,760.225 637.3465,761.6526 641.1426,761.9755 643.9308,761.1914 644.9362,760.3869 645.6786,759.3099 646.3678,756.3503 645.9951,752.3421 644.5699,747.324 640.5048,738.0085 636.5571,730.6884 631.6696,722.5544 625.895,713.6755 615.7038,699.1198 599.6269,677.7963 576.3983,648.8998 550.8718,618.5169 482.3172,538.323 462.5619,514.1902 444.0861,490.5214 423.1441,461.9501 401.5487,430.1257 381.7125,398.5433 361.5182,363.883"/>
  </g>
</svg>
