<?xml version="1.0" encoding="utf-8" ?>
<svg xmlns="http://www.w3.org/2000/svg" xmlns:cc="http://creativecommons.org/ns#" xmlns:dc="http://purl.org/dc/elements/1.1/" xmlns:ev="http://www.w3.org/2001/xml-events" xmlns:inkscape="http://www.inkscape.org/namespaces/inkscape" xmlns:rdf="http://www.w3.org/1999/02/22-rdf-syntax-ns#" xmlns:sodipodi="http://sodipodi.sourceforge.net/DTD/sodipodi-0.dtd" xmlns:xlink="http://www.w3.org/1999/xlink" baseProfile="tiny" height="29.7cm" version="1.2" viewBox="0 0 793.7007874015749 1122.5196850393702" width="21.0cm">
  <metadata>
    <rdf:RDF>
      <cc:Work>
        <dc:format>image/svg+xml</dc:format>
        <dc:source/>
        <dc:date>2022-05-22T14:21:51.144258</dc:date>
      </cc:Work>
    </rdf:RDF>
  </metadata>
  <defs/>
  <g fill="none" id="layer1" inkscape:groupmode="layer" inkscape:label="1" stroke="#00f" style="display:inline">
    <polyline points="330.8485,444.4763 317.0362,449.633 278.0644,465.7418 258.9836,472.8861 234.9958,480.5803 224.4783,483.4026 214.0431,485.8073 200.5852,488.2268 191.105,489.3722 182.3962,489.9037 172.369,489.6409 164.6051,488.2778 160.524,486.5527 158.7113,485.0803 157.6603,483.3603 157.3899,481.4036 157.5506,480.3405 159.2183,476.8331 161.3094,474.2505 165.8754,470.0564 172.073,465.5426 179.7644,460.7931 188.7692,455.9027 198.8747,450.975 209.8475,446.118 221.4466,441.4409 233.4351,437.0496 253.6885,430.6311 273.5221,425.7167 284.9108,423.6892 292.2076,422.7877 299.2288,422.2815 305.945,422.1984 312.3304,422.5623 318.3616,423.3937 324.0181,424.7088 329.2813,426.5189 336.4027,430.1743 342.5548,434.9536 346.0994,438.7499 349.189,443.0168 352.9566,450.2565 354.8842,455.6094 356.3415,461.3549 357.3271,467.4687 357.9215,477.2796 357.7304,484.2174 356.5683,495.1798 355.215,502.8409 352.3352,514.8361 349.8649,523.1564 345.3709,536.1076 338.0076,554.2447 326.8661,578.3525 313.987,604.1066 273.51,682.8418 259.6208,711.4024 249.5826,733.2725 238.9932,758.2105 233.9305,771.3075 229.9771,782.5986 228.002,788.9691 226.0777,796.5882 225.4313,801.6938 225.5019,802.8105 226.0699,804.1466 227.2004,804.2807 229.9231,802.2514 233.8224,797.6288 238.8087,790.5612 249.206,773.9141 264.2984,747.4042 278.2329,721.4833 292.7331,693.5748 365.8991,549.4824 378.0203,526.7279 387.4333,510.4866 392.9034,502.0583 398.3029,494.6995 403.6638,488.4701 408.9982,483.4171 414.3024,479.5707 419.5584,476.942 424.7361,475.5231 429.7944,475.2883 433.076,475.7704 436.2664,476.7475 439.3486,478.2049 443.731,481.2585 447.7724,485.3069 450.2484,488.531 454.5977,496.1558 457.2667,502.8243 458.7357,507.683 460.8767,518.2999 461.9083,529.99 462.0034,536.1966 461.6315,545.9229 460.669,556.1233 458.5381,570.4387 455.5527,585.5599 450.8443,605.527 441.8101,639.4068 415.964,731.8693 412.3791,744.211 410.4192,749.3577 410.1158,749.3769 409.9793,748.5466 410.3383,742.8508 413.4631,720.8511 417.4053,699.5822 422.8723,675.0079 428.5641,653.2779 433.8232,635.7096 439.6691,618.3472 446.0761,601.4399 453.033,585.1616 458.6045,573.4274 464.4658,562.1172 472.6861,547.6783 479.097,537.3044 487.8463,524.0484 519.2887,479.4007 526.2387,468.6611 530.7737,460.9344 535.7563,451.1369 539.371,442.0493 541.4927,433.8654 542.0414,426.8038 541.3965,422.3712 539.8411,418.7618 537.3797,416.0283 535.2415,414.7084 532.7127,413.7966 528.2066,413.197 522.8799,413.51 516.7815,414.7102 505.0686,418.565 497.2295,421.892 488.8822,425.886 471.0201,435.4915 436.1477,455.8553 420.1369,464.7489 404.3411,472.4826 391.9408,477.4325 382.7937,480.2519 376.7672,481.6556 367.8326,482.9932 361.9459,483.3483 353.2196,483.0451 347.47,482.2744 341.773,481.0436 336.1265,479.3519 330.5275,477.2009 322.2127,473.1156 316.723,469.8202 308.5672,464.0204 303.1836,459.5857 295.1934,452.0944 287.3169,443.6286 279.5738,434.2516 267.0441,416.888 255.1354,397.9966 241.9192,374.6806 215.3286,324.5113 210.86,316.9828 209.3315,315.034 208.8265,314.8651 208.8657,316.3312 209.4309,318.4498 211.8556,325.3503 217.2454,338.6289 223.3125,352.5115 239.3953,386.9383 256.6106,421.636 275.3045,457.7858 296.8396,498.0709 349.2969,591.9655 356.925,606.5828 363.6876,620.5894 369.4765,633.9528 373.1263,643.5046 376.1539,652.5946 378.5453,661.1594 380.2996,669.1358 381.6686,678.7552 381.9951,685.1421 381.5464,692.4789 380.5796,697.0621 379.0952,700.8424 377.106,703.8207 374.6136,706.0145 371.6053,707.4595 368.0578,708.2076 363.9435,708.3242 359.2367,707.8839 345.8957,705.1345 299.6359,692.7142 250.8896,680.5854 239.1266,676.9338 234.8659,674.9906 232.9862,673.6095 232.3843,672.7339 232.3103,671.9032 232.7649,671.1271 233.7448,670.4174 237.2489,669.2494 242.7252,668.5113 250.0278,668.3123 256.5939,668.572 266.6347,669.5124 275.004,670.6744 290.2298,673.4352 306.5962,677.0691 368.3111,693.1772 391.9505,698.785 405.3014,701.3823 415.2215,702.9501 425.0118,704.1431 434.598,704.9238 446.8957,705.2752 458.3976,704.8035 468.8212,703.4959 475.7667,701.9713 483.6758,699.2312 487.0002,697.5667 489.8838,695.7119 493.3634,692.5841 495.1117,690.2771 496.4018,687.8003 497.2365,685.1604 497.6497,680.9101 497.3808,677.8926 496.1936,673.1058 494.9015,669.7487 492.254,664.4749 486.0994,655.0741 479.7913,647.0252 470.4879,636.3454 427.282,590.535 415.3055,577.2964 405.8831,566.3325 394.4861,552.1128 385.7936,540.3096 377.5744,528.1768 369.9194,515.8342 361.2926,500.3977 353.8867,485.3931 347.8682,471.3455 343.3639,458.7637 340.4605,448.1104 339.5159,442.8326 339.1847,438.5041 339.4764,435.2079 340.3991,433.0132 341.9597,431.9727 343.3575,431.9374 345.0431,432.4352 347.0158,433.467 351.8004,437.1166 357.6348,442.8152 366.2395,452.6284 380.4142,470.8166 419.3789,523.358 435.3471,543.8479 449.2025,561.0121 471.5656,587.876 495.3105,615.7289 568.2568,699.169 585.1867,719.2186 593.3414,729.7625 597.5442,735.9953 599.3758,739.3077 600.4102,741.9271 600.6263,742.9739 600.4573,744.5383 599.4955,745.3981 596.6056,745.3832 592.0583,743.8547 585.9708,740.9019 569.7722,731.2227 545.6947,714.9743 510.3689,689.6198 471.3972,660.5734 438.9185,635.4568 406.8415,609.7474"/>
  </g>
  <g fill="none" id="layer2" inkscape:groupmode="layer" inkscape:label="2" stroke="#080" style="display:inline">
    <polyline points="326.841,535.6788 320.2956,546.2957 313.2563,556.3956 305.7823,566.0046 295.2656,578.1276 287.0786,586.7571 275.9668,597.7083 237.7448,633.3115 226.9842,644.7675 223.1248,649.7764 221.1825,652.8231 219.7695,655.6211 218.9006,658.1572 218.5848,660.4178 218.8262,662.3887 219.6258,664.0557 220.9816,665.4043 222.8894,666.421 225.342,667.0934 228.3293,667.4109 231.8388,667.3655 240.3605,666.1695 247.9907,664.3074 259.6699,660.5817 272.8758,655.5379 287.3657,649.3295 302.88,642.1402 336.0069,625.601 402.1692,590.7996 429.8171,576.6132 457.9172,562.6919 520.6831,532.3409 546.7006,518.9808 561.3031,510.575 571.6875,503.4189 574.5277,500.9722 577.3147,497.8049 578.1815,496.053 578.3189,495.2909 578.0103,494.003 576.1268,492.6845 572.62,492.1304 567.6052,492.3612 563.4908,492.9555 556.2742,494.5066 547.9515,496.8361 532.1108,502.3718 514.5714,509.8207 496.2306,519.0012 481.5731,527.5036 467.3906,537.0097 457.291,544.8058 447.7995,553.1929 439.0258,562.2003 431.0604,571.8667 423.9768,582.2274 417.8348,593.3039 412.6826,605.099 408.5582,617.5936 405.4826,630.7494 404.017,639.8592 403.0163,649.2134 402.4757,658.7828 402.3885,668.5314 402.7475,678.4162 403.546,688.3864 404.7779,698.3835 406.4389,708.3404 408.526,718.1824 411.0379,727.827 413.9739,737.1848 417.3325,746.1604 423.1565,758.6889 429.9099,769.7916 434.9169,776.2369 437.5683,779.1379 443.1593,784.2444 446.0953,786.4311 452.2376,790.0311 455.4389,791.4311 462.088,793.4066 465.5293,793.9755 472.6269,794.2681 476.275,793.9926 483.7474,792.6061 487.5617,791.5012 495.3192,788.4892 499.2507,786.593 507.1873,782.0524 519.1716,773.4878 531.0688,763.0325 542.6546,750.9539 553.689,737.5342 563.9226,723.0554 573.1063,707.7869 581.0058,691.9851 587.4177,675.8967 592.1797,659.7517 594.3799,649.061 595.1791,643.7588 596.1687,633.2726 596.3451,622.9827 596.1304,617.9244 595.1046,608.004 594.2986,603.1498 592.1167,593.6707 590.7487,589.0515 587.482,580.0655 581.3378,567.2402 576.486,559.1351 571.0956,551.3869 565.2275,543.9948 558.9452,536.9594 552.3136,530.2833 545.3976,523.9704 538.2612,518.0259 530.9661,512.4564 523.5709,507.2695 512.4087,500.2249 497.6498,492.2423 490.4189,488.8619 479.8586,484.5483 473.0517,482.1671 463.2498,479.3102 457.0134,477.8613 448.1371,476.3296 442.5495,475.7084 434.671,475.3256 427.3934,475.5371 420.7041,476.2675 414.5831,477.4392 409.0058,478.974 402.37,481.4514 396.5947,484.2589 390.5117,487.9783 385.6306,491.6527 380.7174,496.1807 377.1941,500.3681 388.9821,486.1316 399.1647,474.6889 412.5312,460.6163 426.5624,446.5656 437.738,435.9161 449.7378,425.2138 459.8311,416.9835 470.2535,409.3985 480.872,402.7875 488.8637,398.6496 499.3916,394.4207 507.061,392.3075 514.4159,391.147 521.3455,390.9508 527.7393,391.7062 531.6508,392.7236 535.2457,394.1376 538.4946,395.9334 541.3703,398.0949 544.93,401.9855 546.769,404.9863 548.1598,408.2927 549.3804,413.7903 549.5482,419.8894 548.6719,426.5432 546.7827,433.704 542.7761,443.9468 538.7423,452.0642 532.1428,463.3075 524.3374,474.802 515.5383,486.2691 505.9565,497.4187 495.8001,507.9658 485.2764,517.6482 477.2693,524.2062 463.9757,533.5711 453.6397,539.4823 446.2137,542.8941 441.4724,544.6475 436.9313,545.9635 432.617,546.8262 426.625,547.2399 422.9826,546.9119 419.6451,546.0901 416.6291,544.7675 413.9485,542.9394 411.6121,540.6033 409.624,537.76 407.984,534.4126 406.688,530.5672 405.7293,526.2324 405.0995,521.4192 404.7513,513.3332 404.904,507.3892 405.6936,497.692 407.7784,483.4267 412.0678,463.7894 416.9058,447.0582 423.0666,429.9205 430.6121,412.9329 437.2007,400.6576 442.0343,392.8426 449.9292,381.865 455.6056,375.151 464.707,366.1628 471.1441,360.9877 477.8567,356.5348 481.3101,354.5953 488.3968,351.3182 495.7015,348.874 499.4265,347.9736 507.0005,346.829 514.7081,346.5694 522.506,347.1978 526.4237,347.844 534.2633,349.7943 542.0597,352.609 549.749,356.2666 557.262,360.7394 564.5249,365.9935 571.4609,371.9897 577.9911,378.6833 584.0366,386.0254 589.5206,393.9629 594.37,402.4395 598.5175,411.3965 601.904,420.7731 604.4795,430.5074 606.2054,440.5372 607.0543,450.7997 607.1446,455.9983 606.6527,466.4901 606.0704,471.7675 604.2376,482.3461 601.5257,492.9063 599.8466,498.1613 595.8594,508.5877 591.0625,518.8607 585.4966,528.9362 579.2088,538.7763 572.2516,548.3508 564.6819,557.6374 556.5602,566.6215 547.9479,575.2927 538.9061,583.638 529.4942,591.6417 519.7691,599.286 509.7843,606.5511 499.5894,613.4163 489.2296,619.8602 473.4672,628.6899 462.8598,633.9891 452.2054,638.7965 441.5251,643.0957 430.8344,646.8726 420.1422,650.1168 409.4501,652.8219 393.398,655.8659 382.6657,657.2249 371.8842,658.0575 361.0345,658.3765 350.1034,658.1983 339.0835,657.5417 327.9741,656.427 316.7814,654.8756 305.5192,652.9098 294.2093,650.5524 277.2282,646.3353 265.9653,643.1085 249.3113,637.7167 233.1727,631.7532 217.8427,625.3226 203.6397,618.5294 194.9575,613.8496 183.345,606.6756 176.6668,601.8298 168.4235,594.5294 164.1913,589.6767 161.0142,584.8622 158.9122,580.1081 157.8883,575.4353 157.7772,573.1356 158.3416,568.6214 159.9272,564.2359 161.0903,562.0966 164.1283,557.9351 170.3638,552.0139 178.4364,546.525 188.1286,541.5213 199.2032,537.0527 211.4082,533.164 224.4847,529.8934 238.1744,527.2724 252.2262,525.3259 266.402,524.0714 285.1174,523.4934 298.7612,523.8849 311.8819,524.9786 324.3421,526.7624 339.7409,530.1791 350.2733,533.4828 359.8699,537.3796 368.4922,541.8227 373.687,545.0616 378.4339,548.5015 384.7111,553.9939 388.3343,557.8434 391.5108,561.8133 395.4453,567.9341 397.5205,572.0823 399.1632,576.2491 400.3793,580.4039 401.1762,584.5167 401.5627,588.5594 401.5489,592.506 401.1463,596.3338 400.3672,600.0225 399.2241,603.5544 397.7298,606.9136 395.8973,610.0858 393.7397,613.0586 388.5039,618.3642 382.1347,622.7564 374.7583,626.1714 366.528,628.5467 359.9029,629.6074 352.9811,630.0225 345.8491,629.7708 336.1702,628.3665 328.9095,626.4925 321.7618,623.903 314.8354,620.5916 308.2433,616.556 302.1022,611.7982 296.533,606.324 293.1979,602.2808 288.8502,595.634 286.4373,590.8206 283.6229,583.0384 282.3223,577.4824 281.2896,568.6083 281.237,562.3389 281.706,555.7913 282.7042,548.9697 285.2068,538.2412 287.5514,530.7764 290.439,523.0814 293.8691,515.1779 300.0232,502.9895 304.7884,494.6869 310.0713,486.2841 315.8578,477.8209 322.1305,469.3405 328.8692,460.89 336.0514,452.5196 343.6537,444.2832 351.6528,436.2388 360.0263,428.4472 373.2437,417.3719 387.1983,407.2231 401.8494,398.2131 417.1583,390.5405 433.0646,384.3793 443.9589,381.1826 449.4813,379.8701 460.6523,377.832 471.953,376.5898 477.6355,376.2699 489.0271,376.2318 494.7195,376.512 506.0521,377.6629 511.6725,378.5293 522.7689,380.8304 528.2226,382.2587 538.8827,385.652 549.132,389.7332 554.0716,392.0205 563.5177,397.0643 567.9991,399.8107 576.4173,405.7265 580.33,408.8853 587.5052,415.5772 593.7417,422.7307 598.9616,430.3001 601.169,434.2263 604.7432,442.3334 607.1601,450.742 608.3904,459.4079 608.5561,463.8239 608.4219,468.2883 607.2584,477.3421 604.9159,486.5307 601.4224,495.8177 596.8166,505.1695 591.1479,514.5558 584.4758,523.9491 576.869,533.3245 568.4043,542.6606 559.1646,551.9393 549.2377,561.1463 533.2572,574.7997 522.01,583.7802 504.4721,597.0279 474.1552,618.3405 455.7151,630.5354 437.3383,642.172 419.1866,653.1449 401.3806,663.3415 383.9971,672.6467 367.0733,680.948 350.6446,688.1413 339.9928,692.2757 324.5157,697.4295 314.5652,700.1419 304.9401,702.2623 291.1811,704.3231 282.5111,704.9531 270.354,704.8036 259.3339,703.3834 249.5889,700.7542 241.255,696.9881 238.8132,695.4937 234.4604,692.1644 230.8422,688.402 229.3177,686.3661 226.853,682.0012 225.1842,677.2671 224.6529,674.7698 224.2025,669.531 224.5712,663.9885 226.6565,655.162 230.5577,645.7966 234.1447,639.2951 238.498,632.6156 246.4097,622.3135 252.5618,615.2896 259.3744,608.1671 274.8019,593.7179 292.2821,579.1511 311.3531,564.6374 331.5524,550.3102 357.7705,532.8113 384.5283,515.9339 411.5312,499.8263 438.5969,484.6055 465.3426,470.4015 496.0129,454.9938 527.4377,440.0181 563.12,423.8204"/>
  </g>
  <g fill="none" id="layer3" inkscape:groupmode="layer" inkscape:label="3" stroke="#f00" style="display:inline">
    <polyline points="288.4446,526.4767 303.266,524.1449 317.9513,520.838 332.3236,516.6304 341.655,513.369 350.7402,509.7772 363.8326,503.8405 380.1447,495.0776 391.4249,488.0197 405.0828,478.1755 417.0267,468.0681 427.103,457.9443 435.1676,448.0462 438.4058,443.2569 441.0968,438.6142 443.2297,434.1482 444.7958,429.8893 445.7886,425.8675 446.204,422.1128 446.041,418.6543 445.3024,415.519 443.1315,411.4749 440.9922,409.2485 436.784,406.6568 431.4344,405.002 425.0181,404.3162 420.1877,404.407 412.1744,405.3736 403.3117,407.3405 396.9693,409.2063 386.8568,412.8253 379.7427,415.7728 368.5592,420.9668 356.8259,427.0419 344.6285,433.9361 332.0667,441.5777 319.2555,449.8884 306.325,458.7857 293.4177,468.1858 272.3628,484.7551 252.5025,502.1675 241.4701,512.9026 234.5859,520.148 228.1364,527.45 222.1711,534.7984 216.7388,542.1849 211.8865,549.6033 207.6586,557.0501 204.0955,564.5245 201.2329,572.0276 199.1002,579.5582 197.7201,587.1125 197.3171,590.8966 197.0906,598.4727 197.6373,606.0501 198.9519,613.6147 201.0217,621.1495 203.8272,628.6351 207.3419,636.049 211.5326,643.3668 216.3615,650.5629 221.7861,657.6114 227.7609,664.4861 234.237,671.1603 241.1638,677.607 248.4892,683.7987 256.1607,689.7076 264.1258,695.3057 276.5112,703.0575 289.2734,709.9493 297.9129,714.0193 306.6068,717.6379 315.3146,720.78 323.9984,723.4226 332.6239,725.5457 341.1599,727.1328 349.5786,728.1718 357.8559,728.6555 365.971,728.5817 373.9069,727.9538 381.6499,726.7796 389.1898,725.0718 396.5192,722.8477 403.6301,720.1298 413.8603,715.1894 423.5179,709.3183 432.5338,702.654 440.8284,695.3477 445.9154,690.1974 450.6185,684.877 456.8998,676.6726 460.5386,671.1126 463.7149,665.5224 466.4117,659.9335 468.6147,654.3736 470.9705,646.1396 472.1684,638.0905 472.2021,630.2776 471.0796,622.7417 469.6972,617.8886 467.8151,613.1834 464.0725,606.424 460.9769,602.1319 457.4115,598.0238 451.205,592.2232 446.5116,588.6028 441.3877,585.1804 432.9213,580.4119 420.2383,574.7085 406.0384,569.7025 390.3813,565.3352 373.2895,561.5555 354.8052,558.3249 335.0739,555.6174 314.3505,553.4166 287.5934,551.3551 255.3709,549.8259 224.6615,549.2151 197.5122,549.5123 179.2221,550.5517 170.6999,551.5773 166.1861,552.4477 161.3076,554.056 159.3772,555.343 158.5329,556.8123 158.7812,558.4723 160.1149,560.3316 164.1078,563.5121 170.3955,567.1858 178.8301,571.3763 263.0325,608.2066 292.5771,622.0007 323.1019,637.1333 347.7805,650.0119 372.4177,663.3562 472.9217,719.2519 499.3483,733.2129 523.0926,744.8838 535.7467,750.4963 547.0294,754.8868 556.8147,757.9293 562.4535,759.1608 569.5211,759.7691 573.2778,759.341 576.255,758.2519 577.449,757.4641 579.2462,755.4153 580.2605,752.7583 580.5045,749.5253 579.9984,745.7537 578.7683,741.4859 576.8447,736.7677 574.2622,731.648 571.0587,726.1776 565.1784,717.4283 555.5564,705.0196 541.1551,688.8733 528.1369,675.9232 514.1009,663.379 499.2896,651.6344 487.7966,643.5682 476.0586,636.2845 464.1444,629.8889 452.1182,624.4603 440.0432,620.0513 427.9831,616.6912 419.9819,615.0385 412.0312,613.853 404.1449,613.1288 392.4581,612.8868 380.956,613.621 369.6363,615.2833 362.1878,616.8806 351.1561,619.9685 340.2874,623.8344 329.5775,628.4177 319.0266,633.6528 308.6412,639.4653 298.4366,645.769 288.4391,652.4619 269.2371,666.5161 235.6109,692.8871 222.1594,702.4353 214.8256,706.6268 210.3303,708.4641 207.8611,709.0359 205.8399,709.0752 203.6867,708.1315 202.6251,705.9971 202.5356,703.9293 203.8433,698.3216 206.1074,692.919 208.211,688.8009 213.7817,679.4777 221.0552,668.955 229.8774,657.5475 240.0715,645.5729 251.429,633.3397 260.5614,624.1701 273.3219,612.1649 286.4393,600.6326 299.5394,589.7975 324.1078,571.0201 339.6317,560.0616 359.0861,546.9985 361.7426,544.7497 358.3852,545.8542 347.7333,550.6031 320.69,563.7662 295.2147,577.3049 274.9593,589.0049 253.9676,602.1848 237.2895,613.5583 221.2891,625.389 206.5293,637.3679 193.5911,649.1683 187.9861,654.9018 183.05,660.4745 178.8472,665.8529 175.4356,671.0075 171.9087,678.2646 170.6733,682.7565 170.3607,686.9524 170.9841,690.84 171.6484,692.6652 172.5473,694.4101 175.0454,697.6555 176.6411,699.1548 180.5135,701.9044 187.9724,705.4006 197.3031,708.1375 208.3556,710.1172 220.9566,711.3548 234.918,711.8773 250.0454,711.7215 266.1463,710.9311 283.0382,709.5537 300.5561,707.6389 324.6481,704.3366 343.1346,701.3607 368.2342,696.8123 420.064,686.0579 481.1668,671.8375 522.1535,661.2888 541.9863,655.7056 560.9255,649.9165 578.582,643.9244 589.4388,639.8209 604.0499,633.514 612.5057,629.2188 623.0008,622.6645 628.4085,618.2378 632.4607,613.7793 635.1054,609.3003 636.3109,604.8118 636.0679,600.3238 634.3866,595.8458 631.2925,591.386 626.8264,586.9514 621.0439,582.5476 614.015,578.1785 605.8231,573.8464 596.5633,569.5521 586.3412,565.2946 575.2714,561.0723 557.343,554.8007 538.2039,548.5996 511.5311,540.4452 419.2859,513.3968 373.2613,499.5766 274.1554,468.4026 260.3508,464.7802 257.6717,464.4704 256.642,464.59 256.2134,464.9702 257.1354,466.5166 261.5345,469.9778 294.0381,491.8701 316.7903,508.3786 334.7262,522.4739 353.3427,538.3255 372.0984,555.8267 390.6225,574.9722 408.7446,595.83 422.9019,613.7599 440.0911,637.6421 456.552,662.9015 471.9791,689.035 480.5575,704.8205 488.4993,720.4231 495.7017,735.5871 502.068,750.0291 507.5114,763.4489 513.209,779.2308 516.2419,789.1161 518.5723,799.2368 519.0195,804.3017 518.6975,806.4133 517.8817,807.4973 517.2898,807.6546 515.742,807.2085 513.7154,805.7686 511.2212,803.3677 504.893,795.8579 496.9241,785.1062 477.0543,756.0515 424.771,676.8724 410.8361,657.0039 400.1484,642.9343 392.377,633.6323 387.2922,628.0736 377.2895,618.5765 369.8815,612.9159 364.9682,609.8514 360.0677,607.3577 355.1763,605.4353 347.8514,603.6167 340.5375,603.0575 333.2349,603.7247 328.376,604.8307 323.529,606.4493 316.293,609.8042 311.5035,612.6332 306.7531,615.913 299.7279,621.6295 290.6264,630.6076 281.9544,640.9351 273.8678,652.3683 266.5415,664.6225 260.1667,677.3585 254.9461,690.1722 251.0846,702.5963 248.776,714.1341 248.2574,719.4186 248.1858,724.3028 248.9437,730.7623 250.7639,736.0372 253.6537,739.99 256.1675,741.8368 259.1392,743.0251 260.7921,743.3672 264.42,743.5406 270.6238,742.5099 275.2287,740.955 282.7634,737.3173 288.1561,734.0266 296.7122,727.8139 302.6755,722.8432 308.8053,717.2349 318.2385,707.6918 324.6403,700.6296 334.3418,689.0957 344.0933,676.578 353.8404,663.2424 373.2167,634.7603 402.0172,589.5486 436.8767,533.0455 458.0127,497.2432 477.097,463.096 494.901,429.1921 512.1854,394.0904"/>
  </g>
</svg>
