<?xml version="1.0" encoding="utf-8" ?>
<svg xmlns="http://www.w3.org/2000/svg" xmlns:cc="http://creativecommons.org/ns" xmlns:dc="http://purl.org/dc/elements/1.1/" xmlns:ev="http://www.w3.org/2001/xml-events" xmlns:inkscape="http://www.inkscape.org/namespaces/inkscape" xmlns:rdf="http://www.w3.org/1999/02/22-rdf-syntax-ns" xmlns:sodipodi="http://sodipodi.sourceforge.net/DTD/sodipodi-0.dtd" xmlns:xlink="http://www.w3.org/1999/xlink" baseProfile="tiny" height="29.7cm" version="1.2" viewBox="0 0 793.7007874015749 1122.5196850393702" width="21.0cm">
  <metadata>
    <rdf:RDF>
      <cc:Work>
        <dc:format>image/svg+xml</dc:format>
        <dc:source/>
        <dc:date>2022-06-15T21:20:18.951743</dc:date>
      </cc:Work>
    </rdf:RDF>
  </metadata>
  <defs/>
  <g fill="none" id="layer1" inkscape:groupmode="layer" inkscape:label="1" stroke="#0000ff" style="display:inline">
    <polyline points="179.0667,952.4809 179.0667,923.4184 127.7748,923.4184 127.7748,952.4809"/>
    <polyline points="127.7748,955.4813 127.7748,987.5442 138.3336,987.5442 138.3336,1005.2324"/>
    <line x1="138.3336" x2="132.4714" y1="1003.8269" y2="1003.8269"/>
    <polyline points="132.4714,1005.2324 132.4714,987.5442 179.0667,987.5442 179.0667,955.4813"/>
    <polygon points="166.6665,955.4813 166.3642,955.4813"/>
    <polygon points="163.063,954.0115 163.8769,952.7548 165.1015,951.8934 166.5593,951.5523 168.0389,951.7808 169.5429,952.7548 170.3567,954.0115 170.6418,955.4813 170.3567,956.9511 169.5429,958.2078 168.3183,959.0692 166.8605,959.4103 165.3808,959.1818 163.8769,958.2078 163.063,956.9511 162.778,955.4813"/>
    <polygon points="140.2821,951.5523 138.8025,951.7808 137.2985,952.7548 136.4847,954.0115 136.1996,955.4813 136.4847,956.9511 137.2985,958.2078 138.5231,959.0692 139.9809,959.4103 141.4606,959.1818 142.9645,958.2078 143.7784,956.9511 144.0634,955.4813 143.7784,954.0115 142.9645,952.7548 141.7399,951.8934"/>
    <polygon points="140.1749,955.4813 140.4773,955.4813"/>
    <polyline points="117.5357,937.4007 129.1691,954.5346 126.3804,956.428 114.746,939.2927"/>
    <polygon points="117.7523,936.5356 117.6358,935.3471 117.0734,934.2936 116.1506,933.5355 115.008,933.1883 113.8195,933.3047 112.766,933.8671 112.0079,934.7899 111.6607,935.9325 111.7771,937.121 112.3395,938.1745 113.2623,938.9326 114.4049,939.2799 115.5934,939.1634 116.6469,938.601 117.405,937.6782"/>
    <polyline points="113.25,933.5431 101.1625,927.0742 99.572,930.0462 111.6595,936.515"/>
    <line x1="132.4714" x2="138.3336" y1="989.8703" y2="989.8703"/>
    <line x1="138.3336" x2="132.4714" y1="992.1964" y2="992.1964"/>
    <line x1="132.4714" x2="138.3336" y1="994.5225" y2="994.5225"/>
    <line x1="138.3336" x2="132.4714" y1="996.8486" y2="996.8486"/>
    <line x1="132.4714" x2="138.3336" y1="999.1747" y2="999.1747"/>
    <line x1="138.3336" x2="132.4714" y1="1001.5008" y2="1001.5008"/>
    <polygon points="127.8434,1010.8052 128.3224,1008.6868 129.9004,1006.6585 132.3371,1005.2775 135.2522,1004.7591 138.1907,1005.1844 140.6941,1006.4868 142.3717,1008.4633 142.9615,1010.8052"/>
    <polyline points="168.5079,1005.2324 168.5079,987.5442 174.37,987.5442 174.37,1005.2324"/>
    <polygon points="174.2272,1005.1844 176.7306,1006.4868 178.4081,1008.4633 178.998,1010.8052 163.8799,1010.8052 164.3589,1008.6868 165.9369,1006.6585 168.3736,1005.2775 171.2887,1004.7591"/>
    <line x1="174.37" x2="168.5079" y1="1003.8269" y2="1003.8269"/>
    <line x1="168.5079" x2="174.37" y1="1001.5008" y2="1001.5008"/>
    <line x1="174.37" x2="168.5079" y1="999.1747" y2="999.1747"/>
    <line x1="168.5079" x2="174.37" y1="996.8486" y2="996.8486"/>
    <line x1="174.37" x2="168.5079" y1="994.5225" y2="994.5225"/>
    <line x1="168.5079" x2="174.37" y1="992.1964" y2="992.1964"/>
    <line x1="174.37" x2="168.5079" y1="989.8703" y2="989.8703"/>
    <polyline points="192.0954,939.2927 180.461,956.428 177.6723,954.5346 189.3057,937.4007"/>
    <polygon points="189.2056,935.3471 189.768,934.2936 190.6908,933.5355 191.8334,933.1883 193.0219,933.3047 194.0754,933.8671 194.8335,934.7899 195.1807,935.9325 195.0643,937.121 194.5019,938.1745 193.5791,938.9326 192.4365,939.2799 191.248,939.1634 190.1945,938.601 189.4364,937.6782 189.0892,936.5356"/>
    <polyline points="193.5914,933.5431 205.6789,927.0742 207.2694,930.0462 195.1819,936.515"/>
    <polyline points="319.9874,949.3958 305.1196,948.4627 304.9291,951.4985 319.7969,952.4316"/>
    <polygon points="321.4645,948.0619 320.486,948.7465 319.8105,949.7313 319.5241,950.8906 319.6633,952.0767 320.2104,953.1382 321.0956,953.9398 322.5025,954.4248 323.9806,954.2513 325.0165,953.6571 325.7776,952.7369 326.199,951.3095 326.0598,950.1235 325.3193,948.8325 324.3658,948.1135 322.921,947.7566"/>
    <polyline points="326.1033,950.2931 342.0301,954.0 341.3405,956.9626 325.4159,953.2562"/>
    <polyline points="341.6853,953.9198 341.6853,908.5559 448.9356,908.5559 448.9356,953.9198"/>
    <polyline points="448.9356,955.4813 448.9356,1002.4067 413.0952,1002.4067 413.0952,1049.8943"/>
    <line x1="413.0952" x2="417.4856" y1="1049.0213" y2="1049.0213"/>
    <polyline points="417.4856,1049.8943 417.4856,1002.4067 373.1354,1002.4067 373.1354,1049.8943"/>
    <line x1="373.1354" x2="377.5257" y1="1049.0213" y2="1049.0213"/>
    <polyline points="377.5257,1049.8943 377.5257,1002.4067 341.6853,1002.4067 341.6853,955.4813"/>
    <polygon points="365.4418,955.4813 365.1394,955.4813"/>
    <line x1="373.1354" x2="377.5257" y1="1005.7363" y2="1005.7363"/>
    <line x1="377.5257" x2="373.1354" y1="1009.066" y2="1009.066"/>
    <line x1="373.1354" x2="377.5257" y1="1012.3956" y2="1012.3956"/>
    <line x1="377.5257" x2="373.1354" y1="1015.7252" y2="1015.7252"/>
    <line x1="373.1354" x2="377.5257" y1="1019.0548" y2="1019.0548"/>
    <line x1="377.5257" x2="373.1354" y1="1022.3844" y2="1022.3844"/>
    <line x1="373.1354" x2="377.5257" y1="1025.714" y2="1025.714"/>
    <line x1="377.5257" x2="373.1354" y1="1029.0436" y2="1029.0436"/>
    <line x1="373.1354" x2="377.5257" y1="1032.3733" y2="1032.3733"/>
    <line x1="377.5257" x2="373.1354" y1="1035.7029" y2="1035.7029"/>
    <line x1="373.1354" x2="377.5257" y1="1039.0325" y2="1039.0325"/>
    <line x1="377.5257" x2="373.1354" y1="1042.3621" y2="1042.3621"/>
    <line x1="373.1354" x2="377.5257" y1="1045.6917" y2="1045.6917"/>
    <polygon points="378.1188,1050.0597 380.6222,1051.3622 382.2997,1053.3386 382.8896,1055.6806 367.7715,1055.6806 368.3614,1053.3386 369.8285,1051.5339 372.2652,1050.1529 375.1803,1049.6345"/>
    <line x1="413.0952" x2="417.4856" y1="1045.6917" y2="1045.6917"/>
    <line x1="417.4856" x2="413.0952" y1="1042.3621" y2="1042.3621"/>
    <line x1="413.0952" x2="417.4856" y1="1039.0325" y2="1039.0325"/>
    <line x1="417.4856" x2="413.0952" y1="1035.7029" y2="1035.7029"/>
    <line x1="413.0952" x2="417.4856" y1="1032.3733" y2="1032.3733"/>
    <line x1="417.4856" x2="413.0952" y1="1029.0436" y2="1029.0436"/>
    <line x1="413.0952" x2="417.4856" y1="1025.714" y2="1025.714"/>
    <line x1="417.4856" x2="413.0952" y1="1022.3844" y2="1022.3844"/>
    <line x1="413.0952" x2="417.4856" y1="1019.0548" y2="1019.0548"/>
    <line x1="417.4856" x2="413.0952" y1="1015.7252" y2="1015.7252"/>
    <line x1="413.0952" x2="417.4856" y1="1012.3956" y2="1012.3956"/>
    <line x1="417.4856" x2="413.0952" y1="1009.066" y2="1009.066"/>
    <line x1="413.0952" x2="417.4856" y1="1005.7363" y2="1005.7363"/>
    <polygon points="415.1401,1049.6345 418.0786,1050.0597 420.582,1051.3622 422.2596,1053.3386 422.8494,1055.6806 407.7313,1055.6806 408.3212,1053.3386 409.7883,1051.5339 412.225,1050.1529"/>
    <polygon points="425.1791,955.4813 425.4815,955.4813"/>
    <polyline points="464.5176,950.2931 448.5909,954.0 449.2804,956.9626 465.205,953.2562"/>
    <polygon points="466.2551,948.1135 467.6999,947.7566 469.1565,948.0619 470.1349,948.7465 470.8105,949.7313 471.0969,950.8906 470.9576,952.0767 470.4106,953.1382 469.5254,953.9398 468.1184,954.4248 466.6403,954.2513 465.6044,953.6571 464.8433,952.7369 464.4219,951.3095 464.5612,950.1235 465.3016,948.8325"/>
    <polyline points="470.6335,949.3958 485.5013,948.4627 485.6918,951.4985 470.824,952.4316"/>
    <line x1="572.0687" x2="574.8681" y1="940.946" y2="940.5415"/>
    <line x1="575.2431" x2="572.4824" y1="942.6089" y2="943.2247"/>
    <line x1="573.0463" x2="575.737" y1="945.3077" y2="944.4355"/>
    <line x1="576.3524" x2="573.7773" y1="946.0338" y2="947.2041"/>
    <line x1="574.692" x2="577.0925" y1="948.918" y2="947.422"/>
    <line x1="577.9647" x2="575.8024" y1="948.624" y2="950.4474"/>
    <line x1="577.1127" x2="578.9845" y1="951.7873" y2="949.6668"/>
    <line x1="580.1746" x2="578.6196" y1="950.5738" y2="952.9365"/>
    <line x1="580.3173" x2="581.5605" y1="953.9012" y2="951.3605"/>
    <line x1="583.1638" x2="582.2037" y1="952.035" y2="954.6956"/>
    <line x1="584.2825" x2="585.0006" y1="955.3374" y2="952.6016"/>
    <line x1="587.0817" x2="586.5621" y1="953.0642" y2="955.8446"/>
    <line x1="589.0541" x2="589.4154" y1="956.2337" y2="953.4284"/>
    <line x1="592.0086" x2="591.7709" y1="953.7012" y2="956.5197"/>
    <line x1="594.7253" x2="594.8683" y1="956.716" y2="953.8911"/>
    <line x1="598.0016" x2="597.9297" y1="954.0077" y2="956.8352"/>
    <line x1="601.3961" x2="601.4161" y1="956.8893" y2="954.0609"/>
    <polyline points="603.2312,954.0671 603.2312,943.6497 612.37,943.6497 612.37,967.313 603.2312,967.313 603.2312,956.8956 593.2177,956.6282 586.5621,955.8446 581.2369,954.3186 578.6196,952.9365 577.1127,951.7873 574.692,948.918 572.7445,944.29 571.9132,939.7293 571.5807,932.8041 574.4092,932.8041 574.7241,939.4144 575.737,944.4355 577.0925,947.422 579.5566,950.1361 583.1638,952.035 588.2166,953.2582 594.8683,953.8911 603.2312,954.0671 603.2312,956.8956"/>
    <polygon points="619.6802,955.4813 620.04,957.2324 621.0613,958.6997 622.3008,959.5317 624.0456,959.9211 625.8025,959.5909 627.2869,958.5945 628.1397,957.3692 628.5585,955.6313 628.258,953.869 627.2869,952.3681 625.8025,951.3718 624.0456,951.0415 622.3008,951.4309 621.0613,952.2629 620.04,953.7302"/>
    <polygon points="625.139,955.4813 624.8366,955.4813"/>
    <polygon points="649.5638,955.4813 649.2615,955.4813"/>
    <polygon points="652.0996,951.4309 653.3392,952.2629 654.3604,953.7302 654.7203,955.4813 654.3604,957.2324 653.3392,958.6997 652.0996,959.5317 650.3549,959.9211 648.5979,959.5909 647.1136,958.5945 646.2608,957.3692 645.842,955.6313 646.1425,953.869 647.1136,952.3681 648.5979,951.3718 650.3549,951.0415"/>
    <polyline points="671.1692,954.0671 671.1692,943.6497 662.0304,943.6497 662.0304,967.313 671.1692,967.313 671.1692,956.8956 681.1828,956.6282 687.8384,955.8446 693.1636,954.3186 695.7809,952.9365 697.2878,951.7873 699.7085,948.918 701.6559,944.29 702.4873,939.7293 702.8197,932.8041 699.9912,932.8041 699.6763,939.4144 698.6635,944.4355 697.308,947.422 694.8438,950.1361 691.2366,952.035 686.1839,953.2582 679.5321,953.8911 671.1692,954.0671 671.1692,956.8956"/>
    <line x1="673.0043" x2="672.9844" y1="956.8893" y2="954.0609"/>
    <line x1="676.3988" x2="676.4707" y1="954.0077" y2="956.8352"/>
    <line x1="679.6751" x2="679.5321" y1="956.716" y2="953.8911"/>
    <line x1="682.3918" x2="682.6295" y1="953.7012" y2="956.5197"/>
    <line x1="685.3464" x2="684.985" y1="956.2337" y2="953.4284"/>
    <line x1="687.3187" x2="687.8384" y1="953.0642" y2="955.8446"/>
    <line x1="690.118" x2="689.3998" y1="955.3374" y2="952.6016"/>
    <line x1="691.2366" x2="692.1967" y1="952.035" y2="954.6956"/>
    <line x1="694.0831" x2="692.84" y1="953.9012" y2="951.3605"/>
    <line x1="694.2258" x2="695.7809" y1="950.5738" y2="952.9365"/>
    <line x1="697.2878" x2="695.416" y1="951.7873" y2="949.6668"/>
    <line x1="696.4357" x2="698.5981" y1="948.624" y2="950.4474"/>
    <line x1="699.7085" x2="697.308" y1="948.918" y2="947.422"/>
    <line x1="698.0481" x2="700.6231" y1="946.0338" y2="947.2041"/>
    <line x1="701.3542" x2="698.6635" y1="945.3077" y2="944.4355"/>
    <line x1="699.1574" x2="701.918" y1="942.6089" y2="943.2247"/>
    <line x1="702.3318" x2="699.5323" y1="940.946" y2="940.5415"/>
    <line x1="699.7922" x2="702.6109" y1="938.2236" y2="938.4589"/>
    <line x1="702.7695" x2="699.9428" y1="935.7496" y2="935.6472"/>
    <line x1="699.9912" x2="702.8197" y1="932.8041" y2="932.8041"/>
    <line x1="656.3328" x2="653.5113" y1="980.3115" y2="980.3115"/>
    <line x1="653.5113" x2="656.3328" y1="982.823" y2="982.823"/>
    <line x1="656.3328" x2="653.5113" y1="985.3344" y2="985.3344"/>
    <line x1="653.5113" x2="656.3328" y1="987.8459" y2="987.8459"/>
    <line x1="656.3328" x2="653.5113" y1="990.3573" y2="990.3573"/>
    <line x1="653.5113" x2="656.3328" y1="992.8688" y2="992.8688"/>
    <line x1="656.3328" x2="653.5113" y1="995.3802" y2="995.3802"/>
    <polyline points="653.5113,996.9744 653.5113,980.3115 656.3328,980.3115 656.3328,996.9744"/>
    <polygon points="647.363,1002.9146 647.9529,1000.5726 649.6304,998.5962 652.1338,997.2937 654.7718,996.8685 657.7103,997.2937 660.2137,998.5962 661.8912,1000.5726 662.4811,1002.9146"/>
    <polygon points="637.2947,980.3113 632.414,979.8459 627.7199,978.4304 623.3955,976.1203 619.8779,973.2711 616.7201,969.5206 614.3608,965.2228 612.8919,960.5452 612.3708,955.6702 612.8177,950.7878 614.075,946.4391 616.3025,942.0715 619.3447,938.2268 623.0831,935.0547 627.3719,932.6791 632.0439,931.1924 636.9169,930.6527 641.801,931.0811 646.5057,932.4607 650.8476,934.7379 654.6574,937.8238 657.7866,941.5982 660.1131,945.9138 661.5464,950.6025 662.0304,955.4813 661.5464,960.3602 660.1131,965.0488 657.7866,969.3644 654.6574,973.1388 650.8476,976.2247 646.8548,978.3577 642.1717,979.8087"/>
    <line x1="620.8892" x2="618.0676" y1="980.3115" y2="980.3115"/>
    <line x1="618.0676" x2="620.8892" y1="982.823" y2="982.823"/>
    <line x1="620.8892" x2="618.0676" y1="985.3344" y2="985.3344"/>
    <line x1="618.0676" x2="620.8892" y1="987.8459" y2="987.8459"/>
    <line x1="620.8892" x2="618.0676" y1="990.3573" y2="990.3573"/>
    <line x1="618.0676" x2="620.8892" y1="992.8688" y2="992.8688"/>
    <line x1="620.8892" x2="618.0676" y1="995.3802" y2="995.3802"/>
    <polyline points="618.0676,996.9744 618.0676,980.3115 620.8892,980.3115 620.8892,996.9744"/>
    <polygon points="612.5092,1000.5726 614.1868,998.5962 616.6901,997.2937 619.3281,996.8685 622.2667,997.2937 624.7701,998.5962 626.4476,1000.5726 627.0375,1002.9146 611.9194,1002.9146"/>
    <line x1="574.6082" x2="571.7895" y1="938.2236" y2="938.4589"/>
    <line x1="571.631" x2="574.4577" y1="935.7496" y2="935.6472"/>
    <line x1="574.4092" x2="571.5807" y1="932.8041" y2="932.8041"/>
    <polygon points="616.5818,772.8365 618.049,771.0318 620.4856,769.6508 623.4007,769.1324 626.3393,769.5577 628.8427,770.8601 630.5202,772.8365 631.1101,775.1785 615.992,775.1785"/>
    <polyline points="622.7675,769.1643 622.7675,760.14 680.9336,760.14 680.9336,743.8278"/>
    <polyline points="680.9336,743.0055 680.9336,727.5155 593.4669,727.5155 593.4669,743.0055"/>
    <polyline points="593.4669,743.8278 593.4669,760.14 624.3345,760.14 624.3345,769.1643"/>
    <line x1="624.3345" x2="622.7675" y1="768.7334" y2="768.7334"/>
    <line x1="622.7675" x2="624.3345" y1="768.0173" y2="768.0173"/>
    <line x1="624.3345" x2="622.7675" y1="767.3012" y2="767.3012"/>
    <line x1="622.7675" x2="624.3345" y1="766.5851" y2="766.5851"/>
    <line x1="624.3345" x2="622.7675" y1="765.869" y2="765.869"/>
    <line x1="622.7675" x2="624.3345" y1="765.1528" y2="765.1528"/>
    <line x1="624.3345" x2="622.7675" y1="764.4367" y2="764.4367"/>
    <line x1="622.7675" x2="624.3345" y1="763.7206" y2="763.7206"/>
    <line x1="624.3345" x2="622.7675" y1="763.0045" y2="763.0045"/>
    <line x1="622.7675" x2="624.3345" y1="762.2884" y2="762.2884"/>
    <line x1="624.3345" x2="622.7675" y1="761.5723" y2="761.5723"/>
    <line x1="622.7675" x2="624.3345" y1="760.8562" y2="760.8562"/>
    <polygon points="622.3743,743.8278 622.6766,743.8278"/>
    <polygon points="626.8343,738.633 628.325,740.8884 628.925,743.8278 628.325,746.7671 626.8343,749.0225 624.3654,750.7267 621.4261,751.3268 618.7669,750.8394 616.2313,749.2361 614.5272,746.7671 613.9271,743.8278 614.5272,740.8884 616.0178,738.633 618.4867,736.9289 621.4261,736.3288 624.3654,736.9289"/>
    <polygon points="650.035,750.7267 647.7797,749.2361 646.0755,746.7671 645.4754,743.8278 646.0755,740.8884 647.7797,738.4195 650.035,736.9289 652.9744,736.3288 655.9138,736.9289 658.3827,738.633 659.8733,740.8884 660.4734,743.8278 659.8733,746.7671 658.1691,749.2361 655.9138,750.7267 652.9744,751.3268"/>
    <polygon points="653.9226,743.8278 654.225,743.8278"/>
    <line x1="651.6329" x2="650.0659" y1="760.8562" y2="760.8562"/>
    <line x1="650.0659" x2="651.6329" y1="761.5723" y2="761.5723"/>
    <line x1="651.6329" x2="650.0659" y1="762.2884" y2="762.2884"/>
    <line x1="650.0659" x2="651.6329" y1="763.0045" y2="763.0045"/>
    <line x1="651.6329" x2="650.0659" y1="763.7206" y2="763.7206"/>
    <line x1="650.0659" x2="651.6329" y1="764.4367" y2="764.4367"/>
    <line x1="651.6329" x2="650.0659" y1="765.1528" y2="765.1528"/>
    <line x1="650.0659" x2="651.6329" y1="765.869" y2="765.869"/>
    <line x1="651.6329" x2="650.0659" y1="766.5851" y2="766.5851"/>
    <line x1="650.0659" x2="651.6329" y1="767.3012" y2="767.3012"/>
    <line x1="651.6329" x2="650.0659" y1="768.0173" y2="768.0173"/>
    <line x1="650.0659" x2="651.6329" y1="768.7334" y2="768.7334"/>
    <polyline points="651.6329,769.1643 651.6329,760.14 650.0659,760.14 650.0659,769.1643"/>
    <polygon points="653.6377,769.5577 656.1411,770.8601 657.8186,772.8365 658.4085,775.1785 643.2904,775.1785 643.8802,772.8365 645.3474,771.0318 647.784,769.6508 650.6991,769.1324"/>
    <polyline points="690.0287,729.9338 680.5481,743.5595 681.3191,744.096 690.799,730.4713"/>
    <polygon points="691.3872,730.6985 690.3093,730.1714 689.4946,729.2905 689.0532,728.1748 689.1115,726.6809 689.6386,725.603 690.5195,724.7883 691.9336,724.303 693.1292,724.4052 694.4404,725.1233 695.1704,726.0756 695.507,727.2273 695.4048,728.4228 694.8777,729.5007 693.9968,730.3154 692.5827,730.8007"/>
    <polyline points="692.6666,724.316 696.2501,711.3696 697.1553,711.6202 693.5718,724.5665"/>
    <polygon points="585.3911,727.8764 585.2889,726.6809 584.7618,725.603 583.8809,724.7883 582.4668,724.303 581.2713,724.4052 580.1934,724.9323 579.3787,725.8132 578.9373,726.9289 578.9956,728.4228 579.5227,729.5007 580.4037,730.3154 581.8178,730.8007 583.0133,730.6985 584.0912,730.1714 584.9058,729.2905"/>
    <polyline points="584.3718,729.9338 593.8524,743.5595 593.0813,744.096 583.6015,730.4713"/>
    <polyline points="581.7339,724.316 578.1504,711.3696 577.2451,711.6202 580.8287,724.5665"/>
    <line x1="446.3987" x2="445.6365" y1="743.4866" y2="738.0924"/>
    <line x1="444.5049" x2="445.2671" y1="738.2523" y2="743.6465"/>
    <line x1="444.1355" x2="443.3733" y1="743.8064" y2="738.4122"/>
    <line x1="442.2417" x2="443.0039" y1="738.5721" y2="743.9664"/>
    <line x1="441.8723" x2="441.1101" y1="744.1263" y2="738.7321"/>
    <line x1="439.9785" x2="440.7407" y1="738.892" y2="744.2862"/>
    <line x1="439.6091" x2="438.8469" y1="744.4461" y2="739.0519"/>
    <line x1="437.7153" x2="438.4775" y1="739.2118" y2="744.606"/>
    <line x1="437.3459" x2="436.5837" y1="744.7659" y2="739.3717"/>
    <line x1="435.4521" x2="436.2144" y1="739.5316" y2="744.9258"/>
    <line x1="435.0828" x2="434.3205" y1="745.0857" y2="739.6915"/>
    <line x1="433.1889" x2="433.9512" y1="739.8514" y2="745.2456"/>
    <line x1="432.8196" x2="432.0573" y1="745.4055" y2="740.0113"/>
    <line x1="430.9257" x2="431.688" y1="740.1712" y2="745.5654"/>
    <line x1="430.5564" x2="429.7941" y1="745.7253" y2="740.3311"/>
    <line x1="428.6625" x2="429.4248" y1="740.491" y2="745.8852"/>
    <line x1="428.2932" x2="427.5309" y1="746.0452" y2="740.6509"/>
    <line x1="426.3993" x2="427.1616" y1="740.8109" y2="746.2051"/>
    <line x1="426.03" x2="425.2677" y1="746.365" y2="740.9708"/>
    <polyline points="424.3886,741.095 423.3438,735.6322 421.4106,730.7198 418.3953,725.9357 414.7974,722.0724 410.5629,718.92 405.8301,716.5812 400.3822,715.0647 395.1217,714.6216 389.8673,715.1327 384.4395,716.7195 379.7373,719.1192 375.5439,722.3262 371.9963,726.2356 369.2103,730.7198 367.2771,735.6322 366.2323,741.095"/>
    <polyline points="366.4848,741.1307 343.8529,737.9325 343.0906,743.3267 365.7226,746.5249 366.4848,741.1307 365.7226,746.5249"/>
    <line x1="364.591" x2="365.3532" y1="746.365" y2="740.9708"/>
    <line x1="364.2216" x2="363.4594" y1="740.8109" y2="746.2051"/>
    <line x1="362.3278" x2="363.09" y1="746.0452" y2="740.6509"/>
    <line x1="361.9584" x2="361.1962" y1="740.491" y2="745.8852"/>
    <line x1="360.0646" x2="360.8268" y1="745.7253" y2="740.3311"/>
    <line x1="359.6952" x2="358.933" y1="740.1712" y2="745.5654"/>
    <line x1="357.8014" x2="358.5636" y1="745.4055" y2="740.0113"/>
    <line x1="357.432" x2="356.6698" y1="739.8514" y2="745.2456"/>
    <line x1="355.5382" x2="356.3004" y1="745.0857" y2="739.6915"/>
    <line x1="355.1688" x2="354.4066" y1="739.5316" y2="744.9258"/>
    <line x1="353.275" x2="354.0372" y1="744.7659" y2="739.3717"/>
    <line x1="352.9056" x2="352.1434" y1="739.2118" y2="744.606"/>
    <line x1="351.0118" x2="351.774" y1="744.4461" y2="739.0519"/>
    <line x1="350.6425" x2="349.8802" y1="738.892" y2="744.2862"/>
    <line x1="348.7486" x2="349.5109" y1="744.1263" y2="738.7321"/>
    <line x1="348.3793" x2="347.617" y1="738.5721" y2="743.9664"/>
    <line x1="346.4854" x2="347.2477" y1="743.8064" y2="738.4122"/>
    <line x1="346.1161" x2="345.3538" y1="738.2523" y2="743.6465"/>
    <line x1="344.2222" x2="344.9845" y1="743.4866" y2="738.0924"/>
    <polyline points="366.1037,743.8278 366.6512,749.4563 368.2731,754.8738 370.9086,759.8772 374.725,764.5467 379.1037,768.1254 384.0899,770.7932 389.4968,772.4501 395.4993,773.0339 401.1241,772.4501 406.8787,770.6459 411.83,767.9139 416.162,764.2789 419.7124,759.8772 422.3479,754.8738 423.9698,749.4563 424.5172,743.8278"/>
    <polyline points="424.8984,746.5249 424.1361,741.1307 424.8984,746.5249 447.5303,743.3267 446.7681,737.9325 424.1361,741.1307"/>
    <polygon points="410.4184,743.8278 410.116,743.8278"/>
    <polyline points="412.0886,773.0345 408.1249,773.0345 408.1249,789.8153"/>
    <line x1="408.1249" x2="412.0886" y1="788.6916" y2="788.6916"/>
    <polyline points="412.0886,789.8153 412.0886,773.0345 408.1249,773.0345"/>
    <line x1="408.1249" x2="412.0886" y1="774.7742" y2="774.7742"/>
    <line x1="412.0886" x2="408.1249" y1="776.5139" y2="776.5139"/>
    <line x1="408.1249" x2="412.0886" y1="778.2536" y2="778.2536"/>
    <line x1="412.0886" x2="408.1249" y1="779.9932" y2="779.9932"/>
    <line x1="408.1249" x2="412.0886" y1="781.7329" y2="781.7329"/>
    <line x1="412.0886" x2="408.1249" y1="783.4726" y2="783.4726"/>
    <line x1="408.1249" x2="412.0886" y1="785.2123" y2="785.2123"/>
    <line x1="412.0886" x2="408.1249" y1="786.9519" y2="786.9519"/>
    <polygon points="415.3984,791.332 417.0759,793.3084 417.6658,795.6503 402.5477,795.6503 403.1376,793.3084 404.8151,791.332 407.3185,790.0295 409.9565,789.6043 412.895,790.0295"/>
    <polygon points="388.0732,795.6503 372.9551,795.6503 373.545,793.3084 375.2225,791.332 377.7259,790.0295 380.3639,789.6043 383.3024,790.0295 385.8058,791.332 387.4834,793.3084"/>
    <polyline points="382.4961,789.8153 382.4961,773.0345 378.5323,773.0345"/>
    <line x1="378.5323" x2="382.4961" y1="774.7742" y2="774.7742"/>
    <polyline points="382.4961,773.0345 378.5323,773.0345 378.5323,789.8153"/>
    <line x1="378.5323" x2="382.4961" y1="788.6916" y2="788.6916"/>
    <line x1="382.4961" x2="378.5323" y1="786.9519" y2="786.9519"/>
    <line x1="378.5323" x2="382.4961" y1="785.2123" y2="785.2123"/>
    <line x1="382.4961" x2="378.5323" y1="783.4726" y2="783.4726"/>
    <line x1="378.5323" x2="382.4961" y1="781.7329" y2="781.7329"/>
    <line x1="382.4961" x2="378.5323" y1="779.9932" y2="779.9932"/>
    <line x1="378.5323" x2="382.4961" y1="778.2536" y2="778.2536"/>
    <line x1="382.4961" x2="378.5323" y1="776.5139" y2="776.5139"/>
    <polygon points="380.2026,743.8278 380.5049,743.8278"/>
    <polygon points="402.1671,612.8117 403.7451,610.7835 406.1818,609.4024 409.0969,608.8841 412.0354,609.3093 414.5388,610.6118 416.2164,612.5882 416.8062,614.9301 401.6881,614.9301"/>
    <polyline points="407.0842,609.1365 407.0842,572.4366 411.4102,572.4366 411.4102,609.1365"/>
    <line x1="411.4102" x2="407.0842" y1="600.7656" y2="600.7656"/>
    <line x1="407.0842" x2="411.4102" y1="586.6011" y2="586.6011"/>
    <line x1="383.5367" x2="379.2108" y1="586.6011" y2="586.6011"/>
    <line x1="379.2108" x2="383.5367" y1="600.7656" y2="600.7656"/>
    <polyline points="383.5367,609.1365 383.5367,572.4366 352.4392,572.4366 352.4392,534.0921 342.3923,533.8237 335.6775,533.0325 330.2495,531.4757 326.7446,529.479 324.0226,526.6948 322.9744,525.0138 321.7752,522.1559 320.6207,516.4783 320.2851,509.4971 324.1208,509.4971 324.4325,516.0512 325.1691,520.1131 326.7279,523.8485 329.0699,526.4284 332.5427,528.2542 337.5021,529.4535 344.1017,530.081 352.4392,530.2564 352.4392,534.0921"/>
    <line x1="350.6005" x2="350.6276" y1="534.0859" y2="530.2502"/>
    <polyline points="352.4392,532.1742 352.6567,530.2374 353.2746,528.3926 355.6854,524.8266 359.5813,521.5361 365.0833,518.5241 371.508,516.1647 378.8249,514.4054 386.7596,513.3121 395.3928,512.9254 403.6522,513.2933 411.9479,514.434 419.2497,516.2059 425.6542,518.5763 430.9213,521.4564 434.9981,524.895 437.3783,528.4651 437.9804,530.3109 438.1818,532.1742"/>
    <polyline points="438.1818,534.0921 438.1818,530.2564 446.5192,530.081 453.1188,529.4535 458.0782,528.2542 461.5511,526.4284 463.8931,523.8485 465.4519,520.1131 466.1884,516.0512 466.5001,509.4971 470.3359,509.4971 470.0003,516.4783 468.8458,522.1559 467.6465,525.0138 466.5983,526.6948 463.8763,529.479 460.3714,531.4757 454.9434,533.0325 448.2286,533.8237 438.1818,534.0921 438.1818,572.4366 379.2108,572.4366 379.2108,609.1365"/>
    <polygon points="378.3084,609.4024 381.2235,608.8841 384.162,609.3093 386.6654,610.6118 388.3429,612.5882 388.9328,614.9301 373.8147,614.9301 374.2937,612.8117 375.8717,610.7835"/>
    <line x1="382.9111" x2="382.9111" y1="546.1077" y2="540.2267"/>
    <polyline points="370.5116,540.2267 420.1093,540.2267 420.1093,546.1077 370.5116,546.1077 370.5116,540.2267 370.5116,546.1077"/>
    <polygon points="371.976,533.2695 371.5847,533.2695 371.1257,532.7412 371.0502,531.8808 371.5847,531.079 372.3148,531.3725 372.5362,532.1742"/>
    <line x1="395.3105" x2="395.3105" y1="540.2267" y2="546.1077"/>
    <line x1="407.7099" x2="407.7099" y1="546.1077" y2="540.2267"/>
    <polygon points="418.1105,531.8808 418.645,531.079 419.3751,531.3725 419.5965,532.1742 419.0363,533.2695 418.645,533.2695 418.186,532.7412"/>
    <line x1="439.9934" x2="440.0204" y1="530.2502" y2="534.0859"/>
    <line x1="443.496" x2="443.3986" y1="534.0316" y2="530.1971"/>
    <line x1="446.5192" x2="446.7131" y1="530.081" y2="533.9119"/>
    <line x1="449.6844" x2="449.362" y1="533.7144" y2="529.8922"/>
    <line x1="451.9332" x2="452.4233" y1="529.6218" y2="533.4261"/>
    <line x1="454.9434" x2="454.2387" y1="533.0325" y2="529.2621"/>
    <line x1="456.2845" x2="457.2584" y1="528.8074" y2="532.5174"/>
    <line x1="459.3802" x2="458.0782" y1="531.8622" y2="528.2542"/>
    <line x1="459.6312" x2="461.317" y1="527.6011" y2="531.0465"/>
    <line x1="463.0703" x2="460.9615" y1="530.0501" y2="526.846"/>
    <line x1="462.0952" x2="464.6336" y1="525.9821" y2="528.8578"/>
    <line x1="465.9956" x2="463.0632" y1="527.4649" y2="524.9923"/>
    <line x1="463.8931" x2="467.1484" y1="523.8485" y2="525.8773"/>
    <line x1="468.0941" x2="464.6021" y1="524.1054" y2="522.5184"/>
    <line x1="465.197" x2="468.8458" y1="520.9731" y2="522.1559"/>
    <line x1="469.4221" x2="465.6784" y1="520.0273" y2="519.1922"/>
    <line x1="466.0464" x2="469.8427" y1="517.1624" y2="517.7109"/>
    <line x1="470.1253" x2="466.3029" y1="515.1937" y2="514.8746"/>
    <line x1="466.4521" x2="470.2853" y1="512.3218" y2="512.4608"/>
    <line x1="470.3359" x2="466.5001" y1="509.4971" y2="509.4971"/>
    <polygon points="586.041,527.3232 586.9554,528.0786 588.7079,528.1651 590.027,527.008 590.1696,525.2591 589.0554,523.9036 587.312,523.705 585.9215,524.7752 585.6671,526.5114"/>
    <polyline points="586.7158,523.9681 581.5615,505.4359 582.8041,505.0903 587.9584,523.6225"/>
    <polyline points="590.2272,526.4302 600.0847,531.6032 599.4853,532.7453 589.6248,527.5707"/>
    <polyline points="599.7925,531.4498 600.6611,524.1247 602.863,517.3131 606.3218,511.0455 610.9109,505.5514 616.4625,501.0319 622.7732,497.6523 629.612,495.5366 633.3393,494.9587 637.1059,494.7591 644.2334,495.426 647.8976,496.3208 651.453,497.58 657.7807,500.9277 663.3549,505.4192 665.9158,508.1885 668.1848,511.2015 671.612,517.4864 673.7795,524.3091 674.6083,531.4497"/>
    <polyline points="674.6155,532.1742 673.9307,539.3 673.0266,542.9619 671.7584,546.5142 670.139,549.9208 668.1848,553.1469 663.6234,558.6641 658.0948,563.2116 654.8636,565.1576 651.453,566.7684 644.6036,568.8497 640.8734,569.4087 637.1059,569.5894 629.9819,568.8866 626.3222,567.9732 622.7732,566.6961 619.3707,565.0681 616.1495,563.1059 610.6438,558.5306 606.1103,552.9904 604.1724,549.7544 602.5702,546.3398 600.5062,539.4851 599.7855,532.1733"/>
    <polygon points="625.8208,532.1742 626.1231,532.1742"/>
    <polygon points="648.5797,532.1742 648.2773,532.1742"/>
    <polyline points="684.1733,526.4302 674.3158,531.6032 674.9151,532.7453 684.7757,527.5707"/>
    <polygon points="685.6925,528.1651 684.3735,527.008 684.2309,525.2591 685.3451,523.9036 687.0885,523.705 687.8879,524.1047 688.6136,525.0429 688.6438,526.7973 687.4451,528.0786"/>
    <polyline points="686.442,523.6225 691.5963,505.0903 692.839,505.4359 687.6847,523.9681"/>
    <line x1="664.4168" x2="659.7451" y1="569.5895" y2="569.5895"/>
    <line x1="659.7451" x2="664.4168" y1="571.6452" y2="571.6452"/>
    <line x1="664.4168" x2="659.7451" y1="573.7008" y2="573.7008"/>
    <line x1="659.7451" x2="664.4168" y1="575.7565" y2="575.7565"/>
    <line x1="664.4168" x2="659.7451" y1="577.8122" y2="577.8122"/>
    <line x1="659.7451" x2="664.4168" y1="579.8679" y2="579.8679"/>
    <line x1="664.4168" x2="659.7451" y1="581.9236" y2="581.9236"/>
    <line x1="659.7451" x2="664.4168" y1="583.9792" y2="583.9792"/>
    <line x1="664.4168" x2="659.7451" y1="586.0349" y2="586.0349"/>
    <line x1="659.7451" x2="664.4168" y1="588.0906" y2="588.0906"/>
    <polyline points="664.4168,588.5076 664.4168,569.5895 659.7451,569.5895 659.7451,588.5076"/>
    <polygon points="669.0501,591.9157 669.64,594.2576 654.5219,594.2576 655.1117,591.9157 656.5789,590.111 659.0155,588.7299 661.9306,588.2116 664.8692,588.6368 667.3726,589.9393"/>
    <polygon points="619.8786,594.2576 604.7605,594.2576 605.2395,592.1392 606.8175,590.111 609.2541,588.7299 612.1692,588.2116 615.1078,588.6368 617.6112,589.9393 619.2887,591.9157"/>
    <polyline points="614.6554,588.5076 614.6554,569.5895 609.9837,569.5895 609.9837,588.5076"/>
    <line x1="609.9837" x2="614.6554" y1="588.0906" y2="588.0906"/>
    <line x1="614.6554" x2="609.9837" y1="586.0349" y2="586.0349"/>
    <line x1="609.9837" x2="614.6554" y1="583.9792" y2="583.9792"/>
    <line x1="614.6554" x2="609.9837" y1="581.9236" y2="581.9236"/>
    <line x1="609.9837" x2="614.6554" y1="579.8679" y2="579.8679"/>
    <line x1="614.6554" x2="609.9837" y1="577.8122" y2="577.8122"/>
    <line x1="609.9837" x2="614.6554" y1="575.7565" y2="575.7565"/>
    <line x1="614.6554" x2="609.9837" y1="573.7008" y2="573.7008"/>
    <line x1="609.9837" x2="614.6554" y1="571.6452" y2="571.6452"/>
    <line x1="614.6554" x2="609.9837" y1="569.5895" y2="569.5895"/>
    <polyline points="623.3796,358.0072 623.3796,340.0307 626.4066,340.0307 626.4066,358.0072"/>
    <line x1="626.4066" x2="623.3796" y1="357.1022" y2="357.1022"/>
    <line x1="623.3796" x2="626.4066" y1="355.9641" y2="355.9641"/>
    <line x1="626.4066" x2="623.3796" y1="354.826" y2="354.826"/>
    <line x1="623.3796" x2="626.4066" y1="353.6879" y2="353.6879"/>
    <line x1="626.4066" x2="623.3796" y1="352.5498" y2="352.5498"/>
    <line x1="623.3796" x2="626.4066" y1="351.4117" y2="351.4117"/>
    <line x1="626.4066" x2="623.3796" y1="350.2736" y2="350.2736"/>
    <line x1="623.3796" x2="626.4066" y1="349.1355" y2="349.1355"/>
    <line x1="626.4066" x2="623.3796" y1="347.9974" y2="347.9974"/>
    <line x1="623.3796" x2="626.4066" y1="346.8593" y2="346.8593"/>
    <line x1="626.4066" x2="623.3796" y1="345.7212" y2="345.7212"/>
    <line x1="623.3796" x2="626.4066" y1="344.5831" y2="344.5831"/>
    <line x1="626.4066" x2="623.3796" y1="343.445" y2="343.445"/>
    <line x1="623.3796" x2="626.4066" y1="342.3069" y2="342.3069"/>
    <line x1="626.4066" x2="623.3796" y1="341.1688" y2="341.1688"/>
    <line x1="623.3796" x2="626.4066" y1="340.0307" y2="340.0307"/>
    <polygon points="627.6814,358.31 630.1848,359.6125 631.8623,361.5889 632.4522,363.9308 617.3341,363.9308 617.9239,361.5889 619.391,359.7842 621.8277,358.4031 624.7428,357.8848"/>
    <polygon points="646.442,358.4031 649.3571,357.8848 652.2956,358.31 654.799,359.6125 656.4765,361.5889 657.0664,363.9308 641.9483,363.9308 642.4273,361.8124 644.0053,359.7842"/>
    <polyline points="647.9938,358.0072 647.9938,340.0307 651.0209,340.0307"/>
    <line x1="651.0209" x2="647.9938" y1="341.1688" y2="341.1688"/>
    <polyline points="647.9938,340.0307 651.0209,340.0307 651.0209,358.0072"/>
    <line x1="651.0209" x2="647.9938" y1="357.1022" y2="357.1022"/>
    <line x1="647.9938" x2="651.0209" y1="355.9641" y2="355.9641"/>
    <line x1="651.0209" x2="647.9938" y1="354.826" y2="354.826"/>
    <line x1="647.9938" x2="651.0209" y1="353.6879" y2="353.6879"/>
    <line x1="651.0209" x2="647.9938" y1="352.5498" y2="352.5498"/>
    <line x1="647.9938" x2="651.0209" y1="351.4117" y2="351.4117"/>
    <line x1="651.0209" x2="647.9938" y1="350.2736" y2="350.2736"/>
    <line x1="647.9938" x2="651.0209" y1="349.1355" y2="349.1355"/>
    <line x1="651.0209" x2="647.9938" y1="347.9974" y2="347.9974"/>
    <line x1="647.9938" x2="651.0209" y1="346.8593" y2="346.8593"/>
    <line x1="651.0209" x2="647.9938" y1="345.7212" y2="345.7212"/>
    <line x1="647.9938" x2="651.0209" y1="344.5831" y2="344.5831"/>
    <line x1="651.0209" x2="647.9938" y1="343.445" y2="343.445"/>
    <line x1="647.9938" x2="651.0209" y1="342.3069" y2="342.3069"/>
    <polyline points="656.7102,320.5207 656.3468,324.2691 655.2699,327.8778 653.5198,331.2124 651.1616,334.1486 648.2832,336.5771 644.9918,338.4073 641.4102,339.5711 637.2945,340.0305 633.5444,339.6851 629.9305,338.6257 626.273,336.6835 623.3713,334.283 620.9848,331.3697 619.2025,328.0521 618.0908,324.454 617.6911,320.5196"/>
    <polyline points="618.0119,316.9944 618.9248,313.6906 620.3832,310.6299 622.3494,307.8679 624.7641,305.488 627.5543,303.562 630.6358,302.1482 633.9156,301.2892 637.2945,301.0109 640.6706,301.3218 643.9419,302.2125 647.0096,303.656 649.7811,305.6089 652.1727,308.012 654.1121,310.7929 655.5408,313.8676 656.3881,316.9948"/>
    <polygon points="644.5098,320.5207 644.2075,320.5207"/>
    <polygon points="630.193,320.5207 629.8906,320.5207"/>
    <polyline points="601.9775,304.4255 602.5174,304.1899 594.945,286.8336 589.6406,289.1479 597.213,306.5042 597.753,306.2686"/>
    <polyline points="598.3746,307.0981 597.9896,307.5505 615.8146,322.7241 619.5659,318.3173 602.25,303.5771"/>
    <polygon points="600.7072,303.2019 598.9437,303.2348 597.72,304.5051 597.753,306.2686 599.0233,307.4923 600.7868,307.4593 602.0104,306.189 601.9775,304.4255"/>
    <polyline points="672.1504,303.5771 654.8346,318.3173 658.5859,322.7241 676.4109,307.5505 676.0258,307.0981"/>
    <polyline points="676.6475,306.2686 677.1874,306.5042 684.7599,289.1479 679.4555,286.8336 671.8831,304.1899 672.423,304.4255"/>
    <polygon points="672.39,306.189 672.423,304.4255 673.6933,303.2019 675.4568,303.2348 676.6804,304.5051 676.6475,306.2686 675.3772,307.4923 673.6137,307.4593"/>
    <polygon points="652.6133,157.4964 637.4952,157.4964 638.0851,155.1544 639.5522,153.3497 641.9889,151.9687 644.904,151.4503 647.8425,151.8755 650.3459,153.178 652.0235,155.1544"/>
    <polyline points="647.1023,151.6765 647.1023,126.4553 643.0062,126.4553 643.0062,151.6765"/>
    <line x1="643.0062" x2="647.1023" y1="150.5983" y2="150.5983"/>
    <line x1="647.1023" x2="643.0062" y1="148.8738" y2="148.8738"/>
    <line x1="643.0062" x2="647.1023" y1="147.1493" y2="147.1493"/>
    <line x1="647.1023" x2="643.0062" y1="145.4248" y2="145.4248"/>
    <line x1="643.0062" x2="647.1023" y1="143.7003" y2="143.7003"/>
    <line x1="647.1023" x2="643.0062" y1="141.9758" y2="141.9758"/>
    <line x1="643.0062" x2="647.1023" y1="140.2513" y2="140.2513"/>
    <line x1="647.1023" x2="643.0062" y1="138.5268" y2="138.5268"/>
    <line x1="643.0062" x2="647.1023" y1="136.8023" y2="136.8023"/>
    <line x1="647.1023" x2="643.0062" y1="135.0778" y2="135.0778"/>
    <line x1="643.0062" x2="647.1023" y1="133.3533" y2="133.3533"/>
    <line x1="647.1023" x2="643.0062" y1="131.6288" y2="131.6288"/>
    <line x1="643.0062" x2="647.1023" y1="129.9043" y2="129.9043"/>
    <line x1="647.1023" x2="643.0062" y1="128.1798" y2="128.1798"/>
    <line x1="631.3942" x2="627.2981" y1="128.1798" y2="128.1798"/>
    <line x1="627.2981" x2="631.3942" y1="129.9043" y2="129.9043"/>
    <line x1="631.3942" x2="627.2981" y1="131.6288" y2="131.6288"/>
    <line x1="627.2981" x2="631.3942" y1="133.3533" y2="133.3533"/>
    <line x1="631.3942" x2="627.2981" y1="135.0778" y2="135.0778"/>
    <line x1="627.2981" x2="631.3942" y1="136.8023" y2="136.8023"/>
    <line x1="631.3942" x2="627.2981" y1="138.5268" y2="138.5268"/>
    <line x1="627.2981" x2="631.3942" y1="140.2513" y2="140.2513"/>
    <line x1="631.3942" x2="627.2981" y1="141.9758" y2="141.9758"/>
    <line x1="627.2981" x2="631.3942" y1="143.7003" y2="143.7003"/>
    <line x1="631.3942" x2="627.2981" y1="145.4248" y2="145.4248"/>
    <line x1="627.2981" x2="631.3942" y1="147.1493" y2="147.1493"/>
    <line x1="631.3942" x2="627.2981" y1="148.8738" y2="148.8738"/>
    <line x1="627.2981" x2="631.3942" y1="150.5983" y2="150.5983"/>
    <polyline points="631.3942,151.6765 631.3942,126.4553 627.2981,126.4553 627.2981,151.6765"/>
    <polygon points="629.1959,151.4503 632.1345,151.8755 634.6378,153.178 636.3154,155.1544 636.9052,157.4964 621.7871,157.4964 622.2661,155.3779 623.8441,153.3497 626.2808,151.9687"/>
    <polyline points="613.0239,118.8285 613.0239,126.4553 647.1023,126.4553 661.3765,126.4553 661.3765,118.8285"/>
    <polyline points="661.3765,108.8671 660.9329,104.0013 659.6185,99.314 657.2849,94.6628 654.3503,90.8811 650.7864,87.7594 646.395,85.2664 641.9627,83.8488 637.3557,83.3494 632.7429,83.7863 628.2938,85.1436 624.1714,87.3714 620.2707,90.6498 617.2903,94.3914 614.9002,99.0105 613.5288,103.6796 613.0239,108.8671"/>
    <polyline points="603.7691,107.4196 603.7691,98.9058 613.0239,98.9058 613.0239,118.8285 603.7691,118.8285 603.7691,110.3147 593.7533,110.0473 587.0939,109.2631 581.7619,107.7352 578.3597,105.7979 575.7332,103.1114 573.5525,98.7038 572.418,93.1189 572.0853,86.19 574.9804,86.19 575.2951,92.7965 576.3065,97.811 577.6587,100.7902 580.1147,103.4954 583.713,105.3895 588.7596,106.6111 595.4079,107.2437 603.7691,107.4196 603.7691,110.3147"/>
    <line x1="601.9338" x2="601.9542" y1="110.3085" y2="107.4134"/>
    <line x1="598.5403" x2="598.4668" y1="107.3602" y2="110.2544"/>
    <line x1="595.2616" x2="595.4079" y1="110.1351" y2="107.2437"/>
    <line x1="592.5493" x2="592.306" y1="107.0538" y2="109.9387"/>
    <line x1="589.5877" x2="589.9576" y1="109.6526" y2="106.7812"/>
    <line x1="587.6258" x2="587.0939" y1="106.4173" y2="109.2631"/>
    <line x1="584.8119" x2="585.547" y1="108.7554" y2="105.9552"/>
    <line x1="583.713" x2="582.7303" y1="105.3895" y2="108.1128"/>
    <line x1="580.8406" x2="582.113" y1="107.3169" y2="104.7164"/>
    <line x1="580.7308" x2="579.1392" y1="103.9318" y2="106.3501"/>
    <line x1="577.6285" x2="579.5444" y1="105.1981" y2="103.0276"/>
    <line x1="578.5281" x2="576.3148" y1="101.9884" y2="103.8546"/>
    <line x1="575.2016" x2="577.6587" y1="102.3214" y2="100.7902"/>
    <line x1="576.9206" x2="574.2849" y1="99.4059" y2="100.6037"/>
    <line x1="573.5525" x2="576.3065" y1="98.7038" y2="97.811"/>
    <line x1="575.8135" x2="572.9878" y1="95.9875" y2="96.6178"/>
    <line x1="572.5736" x2="575.439" y1="94.3366" y2="93.9226"/>
    <line x1="575.1793" x2="572.2942" y1="91.6067" y2="91.8475"/>
    <line x1="572.1356" x2="575.0288" y1="89.1367" y2="89.0318"/>
    <line x1="574.9804" x2="572.0853" y1="86.19" y2="86.19"/>
    <polygon points="624.0773,108.8671 623.517,109.9624 623.1257,109.9624 622.6667,109.4341 622.5912,108.5737 623.1257,107.7719 623.6993,107.8852"/>
    <polygon points="650.8834,107.7719 651.457,107.8852 651.835,108.8671 651.2747,109.9624 650.8834,109.9624 650.4245,109.4341 650.3489,108.5737"/>
    <polyline points="670.6314,107.4196 670.6314,98.9058 661.3765,98.9058 661.3765,118.8285 670.6314,118.8285 670.6314,110.3147 680.6471,110.0473 687.3066,109.2631 692.6386,107.7352 696.0408,105.7979 698.6673,103.1114 700.848,98.7038 701.9825,93.1189 702.3151,86.19 699.42,86.19 699.1054,92.7965 698.0939,97.811 696.7418,100.7902 694.2857,103.4954 690.6874,105.3895 685.6409,106.6111 678.9926,107.2437 670.6314,107.4196 670.6314,110.3147"/>
    <line x1="672.4667" x2="672.4463" y1="110.3085" y2="107.4134"/>
    <line x1="675.8601" x2="675.9337" y1="107.3602" y2="110.2544"/>
    <line x1="679.1389" x2="678.9926" y1="110.1351" y2="107.2437"/>
    <line x1="681.8511" x2="682.0944" y1="107.0538" y2="109.9387"/>
    <line x1="684.8127" x2="684.4429" y1="109.6526" y2="106.7812"/>
    <line x1="686.7747" x2="687.3066" y1="106.4173" y2="109.2631"/>
    <line x1="689.5886" x2="688.8535" y1="108.7554" y2="105.9552"/>
    <line x1="690.6874" x2="691.6701" y1="105.3895" y2="108.1128"/>
    <line x1="693.5599" x2="692.2875" y1="107.3169" y2="104.7164"/>
    <line x1="693.6696" x2="695.2613" y1="103.9318" y2="106.3501"/>
    <line x1="696.7719" x2="694.8561" y1="105.1981" y2="103.0276"/>
    <line x1="695.8724" x2="698.0857" y1="101.9884" y2="103.8546"/>
    <line x1="699.1988" x2="696.7418" y1="102.3214" y2="100.7902"/>
    <line x1="697.4799" x2="700.1155" y1="99.4059" y2="100.6037"/>
    <line x1="700.848" x2="698.0939" y1="98.7038" y2="97.811"/>
    <line x1="698.587" x2="701.4127" y1="95.9875" y2="96.6178"/>
    <line x1="701.8268" x2="698.9615" y1="94.3366" y2="93.9226"/>
    <line x1="699.2212" x2="702.1062" y1="91.6067" y2="91.8475"/>
    <line x1="702.2648" x2="699.3716" y1="89.1367" y2="89.0318"/>
    <line x1="699.42" x2="702.3151" y1="86.19" y2="86.19"/>
    <line x1="453.337" x2="451.5637" y1="86.19" y2="86.19"/>
    <line x1="451.515" x2="453.2871" y1="89.0521" y2="89.1164"/>
    <line x1="453.13" x2="451.3629" y1="91.8008" y2="91.6533"/>
    <line x1="451.0994" x2="452.8545" y1="94.0028" y2="94.2564"/>
    <line x1="452.448" x2="450.7172" y1="96.4957" y2="96.1096"/>
    <line x1="450.2103" x2="451.8972" y1="97.984" y2="98.5308"/>
    <line x1="451.1877" x2="449.5733" y1="100.3716" y2="99.6379"/>
    <line x1="448.8006" x2="450.3056" y1="101.0869" y2="102.0248"/>
    <line x1="449.2396" x2="447.884" y1="103.4931" y2="102.35"/>
    <line x1="446.81" x2="447.9835" y1="103.4482" y2="104.7776"/>
    <line x1="446.5357" x2="445.5608" y1="105.8816" y2="104.4003"/>
    <line x1="444.1168" x2="444.8961" y1="105.2203" y2="106.8131"/>
    <line x1="443.0625" x2="442.4606" y1="107.5852" y2="105.9172"/>
    <line x1="440.5787" x2="441.0289" y1="106.4977" y2="108.2129"/>
    <line x1="438.7863" x2="438.4605" y1="108.7118" y2="106.9687"/>
    <line x1="436.0973" x2="436.3239" y1="107.3375" y2="109.0962"/>
    <line x1="433.6301" x2="433.481" y1="109.3797" y2="107.6127"/>
    <line x1="430.6037" x2="430.6933" y1="107.8039" y2="109.5749"/>
    <line x1="427.5022" x2="427.4571" y1="109.6936" y2="107.9209"/>
    <line x1="424.033" x2="424.0455" y1="107.9743" y2="109.7476"/>
    <polyline points="422.2141,109.7538 422.2141,107.9805 430.6037,107.8039 437.3101,107.1653 442.4606,105.9172 446.2086,103.9415 448.8006,101.0869 450.2103,97.984 451.2456,92.859 451.5637,86.19 453.337,86.19 453.0078,93.0564 451.8972,98.5308 449.7961,102.7819 448.6355,104.1582 446.5357,105.8816 443.0625,107.5852 437.5833,108.9174 430.6933,109.5749 422.2141,109.7538 422.2141,115.2439 417.4617,115.2439 417.4617,102.4903 422.2141,102.4903 422.2141,107.9805"/>
    <polyline points="417.4617,108.8671 416.8125,98.7649 414.9031,89.2548 411.8453,80.8943 409.8645,77.1772 407.6535,73.9613 405.2473,71.2975 402.6839,69.2278 400.004,67.785 397.4481,67.0267 394.863,66.8391 392.0869,67.278 389.3618,68.3747 386.7308,70.1118 382.8857,74.0659 379.525,79.3765 376.7795,85.8366 374.7564,93.1944 373.7388,99.3142 373.2239,105.6566 373.1592,133.7445 406.7501,133.7445 406.7501,152.1971"/>
    <line x1="406.7501" x2="401.6647" y1="151.3059" y2="151.3059"/>
    <polyline points="401.6647,152.1971 401.6647,133.7445 417.4617,133.7445 417.4617,115.2439"/>
    <polygon points="402.0921,107.4056 402.4071,108.8671 402.0921,110.3287 401.4205,111.3224 400.1818,112.1596 399.0094,112.4123 397.5358,112.1596 396.2971,111.3224 395.5132,110.0492 395.3105,108.8671 395.5132,107.6851 396.2971,106.4119 397.5358,105.5747 398.7082,105.322 400.1818,105.5747 401.2031,106.2035"/>
    <polygon points="399.5234,108.8671 399.2211,108.8671"/>
    <polygon points="394.3239,106.4119 393.0852,105.5747 391.9127,105.322 390.4391,105.5747 389.2004,106.4119 388.4165,107.6851 388.2138,108.8671 388.4165,110.0492 389.2004,111.3224 390.4391,112.1596 391.6115,112.4123 393.0852,112.1596 394.3239,111.3224 395.1078,110.0492 395.3105,108.8671 395.1078,107.6851"/>
    <polygon points="391.0975,108.8671 391.3999,108.8671"/>
    <polyline points="392.2868,117.3909 392.4949,119.1853 393.1827,120.7256 394.1628,121.6225 395.4781,121.9202 396.7641,121.4241 397.6312,120.4263 398.1261,119.1853 398.3341,117.3909"/>
    <line x1="401.6647" x2="406.7501" y1="135.9396" y2="135.9396"/>
    <line x1="406.7501" x2="401.6647" y1="138.1348" y2="138.1348"/>
    <line x1="401.6647" x2="406.7501" y1="140.33" y2="140.33"/>
    <line x1="406.7501" x2="401.6647" y1="142.5252" y2="142.5252"/>
    <line x1="401.6647" x2="406.7501" y1="144.7203" y2="144.7203"/>
    <line x1="406.7501" x2="401.6647" y1="146.9155" y2="146.9155"/>
    <line x1="401.6647" x2="406.7501" y1="149.1107" y2="149.1107"/>
    <polygon points="404.0571,151.8454 406.9956,152.2706 409.499,153.5731 411.1766,155.5495 411.7664,157.8914 396.6483,157.8914 397.2382,155.5495 398.9157,153.5731 401.142,152.3637"/>
    <polygon points="391.7052,153.5731 393.3827,155.5495 393.9726,157.8914 378.8545,157.8914 379.4444,155.5495 381.1219,153.5731 383.3482,152.3637 386.2633,151.8454 389.2018,152.2706"/>
    <polyline points="388.9563,152.1971 388.9563,133.7445 383.8708,133.7445 383.8708,152.1971"/>
    <line x1="383.8708" x2="388.9563" y1="151.3059" y2="151.3059"/>
    <line x1="388.9563" x2="383.8708" y1="149.1107" y2="149.1107"/>
    <line x1="383.8708" x2="388.9563" y1="146.9155" y2="146.9155"/>
    <line x1="388.9563" x2="383.8708" y1="144.7203" y2="144.7203"/>
    <line x1="383.8708" x2="388.9563" y1="142.5252" y2="142.5252"/>
    <line x1="388.9563" x2="383.8708" y1="140.33" y2="140.33"/>
    <line x1="383.8708" x2="388.9563" y1="138.1348" y2="138.1348"/>
    <line x1="388.9563" x2="383.8708" y1="135.9396" y2="135.9396"/>
    <polyline points="368.4068,109.7538 368.4068,107.9805 360.0172,107.8039 353.3109,107.1653 348.1603,105.9172 344.4124,103.9415 341.8203,101.0869 340.4106,97.984 339.3754,92.859 339.0572,86.19 337.2839,86.19 337.6131,93.0564 338.7238,98.5308 340.8248,102.7819 341.9854,104.1582 344.0852,105.8816 347.5584,107.5852 353.0376,108.9174 359.9276,109.5749 368.4068,109.7538 368.4068,115.2439 373.1592,115.2439 373.1592,102.4903 368.4068,102.4903 368.4068,107.9805"/>
    <line x1="366.5879" x2="366.5754" y1="107.9743" y2="109.7476"/>
    <line x1="363.1187" x2="363.1638" y1="109.6936" y2="107.9209"/>
    <line x1="360.0172" x2="359.9276" y1="107.8039" y2="109.5749"/>
    <line x1="356.9909" x2="357.1399" y1="109.3797" y2="107.6127"/>
    <line x1="354.5236" x2="354.2971" y1="107.3375" y2="109.0962"/>
    <line x1="351.8346" x2="352.1604" y1="108.7118" y2="106.9687"/>
    <line x1="350.0422" x2="349.592" y1="106.4977" y2="108.2129"/>
    <line x1="347.5584" x2="348.1603" y1="107.5852" y2="105.9172"/>
    <line x1="346.5042" x2="345.7248" y1="105.2203" y2="106.8131"/>
    <line x1="344.0852" x2="345.0601" y1="105.8816" y2="104.4003"/>
    <line x1="343.8109" x2="342.6374" y1="103.4482" y2="104.7776"/>
    <line x1="341.3813" x2="342.737" y1="103.4931" y2="102.35"/>
    <line x1="341.8203" x2="340.3154" y1="101.0869" y2="102.0248"/>
    <line x1="339.4333" x2="341.0476" y1="100.3716" y2="99.6379"/>
    <line x1="340.4106" x2="338.7238" y1="97.984" y2="98.5308"/>
    <line x1="338.173" x2="339.9037" y1="96.4957" y2="96.1096"/>
    <line x1="339.5215" x2="337.7665" y1="94.0028" y2="94.2564"/>
    <line x1="337.4909" x2="339.258" y1="91.8008" y2="91.6533"/>
    <line x1="339.106" x2="337.3339" y1="89.0521" y2="89.1164"/>
    <line x1="337.2839" x2="339.0572" y1="86.19" y2="86.19"/>
    <polyline points="190.8199,116.4612 196.4295,101.3691 193.2363,100.1822 187.6267,115.2743"/>
    <polyline points="186.9148,115.4929 175.8667,107.4878 173.8679,110.2465 184.916,118.2515"/>
    <polygon points="185.8147,116.2552 186.7739,115.5536 187.9185,115.2338 189.3867,115.428 190.6253,116.2399 191.2831,117.2297 191.5522,118.686 191.2914,119.8455 190.4247,121.0464 189.4065,121.6591 188.2379,121.875 187.0679,121.6666 185.8293,120.8546 185.1715,119.8649 184.9024,118.4085 185.1632,117.2491"/>
    <polyline points="174.7699,110.9 174.0225,114.827 172.6608,118.3421 170.7045,121.5645 167.9388,124.6526 164.9506,126.9508 161.256,128.8312 157.2687,129.9657 153.5151,130.3135 149.7585,129.9987 145.7614,128.8994 142.3722,127.2488 139.0421,124.7798 136.4781,122.0164 134.2648,118.5111 132.7672,114.6455 132.071,110.9003"/>
    <polyline points="131.975,108.8683 132.4119,104.5559 133.6339,100.5946 135.5951,96.9423 138.2224,93.7355 141.4175,91.0942 145.41,88.9728 149.3872,87.8033 153.5151,87.4208 157.6394,87.8396 161.6061,89.0441 165.267,90.9892 168.4853,93.6024 171.1407,96.7859 173.134,100.4208 174.3907,104.3712 174.8673,108.8671"/>
    <polygon points="163.7507,108.8671 164.0531,108.8671"/>
    <polyline points="156.4443,113.1565 156.2363,114.9508 155.7415,116.1918 154.8743,117.1896 153.5883,117.6857 152.273,117.388 151.293,116.4911 150.6051,114.9508 150.3971,113.1565"/>
    <polygon points="142.7883,108.8671 143.0907,108.8671"/>
    <line x1="144.5511" x2="148.1943" y1="130.3137" y2="130.3137"/>
    <line x1="148.1943" x2="144.5511" y1="132.7154" y2="132.7154"/>
    <line x1="144.5511" x2="148.1943" y1="135.117" y2="135.117"/>
    <line x1="148.1943" x2="144.5511" y1="137.5187" y2="137.5187"/>
    <line x1="144.5511" x2="148.1943" y1="139.9204" y2="139.9204"/>
    <line x1="148.1943" x2="144.5511" y1="142.322" y2="142.322"/>
    <line x1="144.5511" x2="148.1943" y1="144.7237" y2="144.7237"/>
    <line x1="148.1943" x2="144.5511" y1="147.1253" y2="147.1253"/>
    <line x1="144.5511" x2="148.1943" y1="149.527" y2="149.527"/>
    <line x1="148.1943" x2="144.5511" y1="151.9287" y2="151.9287"/>
    <line x1="144.5511" x2="148.1943" y1="154.3303" y2="154.3303"/>
    <line x1="148.1943" x2="144.5511" y1="156.732" y2="156.732"/>
    <line x1="144.5511" x2="148.1943" y1="159.1337" y2="159.1337"/>
    <line x1="148.1943" x2="144.5511" y1="161.5353" y2="161.5353"/>
    <line x1="144.5511" x2="148.1943" y1="163.937" y2="163.937"/>
    <line x1="148.1943" x2="144.5511" y1="166.3387" y2="166.3387"/>
    <line x1="144.5511" x2="148.1943" y1="168.7403" y2="168.7403"/>
    <line x1="148.1943" x2="144.5511" y1="171.142" y2="171.142"/>
    <line x1="144.5511" x2="148.1943" y1="173.5436" y2="173.5436"/>
    <polyline points="148.1943,174.8808 148.1943,130.3137 144.5511,130.3137 144.5511,174.8808"/>
    <polyline points="153.4207,178.5656 154.7649,176.7803 156.8641,175.4333 159.1232,174.798 161.8142,174.798 164.0734,175.4333 166.1725,176.7803 167.5488,178.6302 168.0278,180.7486 153.9317,180.7486 153.3419,178.4067 151.6643,176.4303 149.1609,175.1278 146.2224,174.7026 143.3073,175.2209 140.8706,176.602 139.2926,178.6302 138.8136,180.7486 153.9317,180.7486"/>
    <polyline points="158.6472,174.8808 158.6472,130.3137 162.2903,130.3137 162.2903,174.8808"/>
    <line x1="162.2903" x2="158.6472" y1="173.5436" y2="173.5436"/>
    <line x1="158.6472" x2="162.2903" y1="171.142" y2="171.142"/>
    <line x1="162.2903" x2="158.6472" y1="168.7403" y2="168.7403"/>
    <line x1="158.6472" x2="162.2903" y1="166.3387" y2="166.3387"/>
    <line x1="162.2903" x2="158.6472" y1="163.937" y2="163.937"/>
    <line x1="158.6472" x2="162.2903" y1="161.5353" y2="161.5353"/>
    <line x1="162.2903" x2="158.6472" y1="159.1337" y2="159.1337"/>
    <line x1="158.6472" x2="162.2903" y1="156.732" y2="156.732"/>
    <line x1="162.2903" x2="158.6472" y1="154.3303" y2="154.3303"/>
    <line x1="158.6472" x2="162.2903" y1="151.9287" y2="151.9287"/>
    <line x1="162.2903" x2="158.6472" y1="149.527" y2="149.527"/>
    <line x1="158.6472" x2="162.2903" y1="147.1253" y2="147.1253"/>
    <line x1="162.2903" x2="158.6472" y1="144.7237" y2="144.7237"/>
    <line x1="158.6472" x2="162.2903" y1="142.322" y2="142.322"/>
    <line x1="162.2903" x2="158.6472" y1="139.9204" y2="139.9204"/>
    <line x1="158.6472" x2="162.2903" y1="137.5187" y2="137.5187"/>
    <line x1="162.2903" x2="158.6472" y1="135.117" y2="135.117"/>
    <line x1="158.6472" x2="162.2903" y1="132.7154" y2="132.7154"/>
    <line x1="162.2903" x2="158.6472" y1="130.3137" y2="130.3137"/>
    <polyline points="121.9254,118.2515 132.9735,110.2465 130.9747,107.4878 119.9266,115.4929"/>
    <polyline points="119.2147,115.2743 113.6051,100.1822 110.412,101.3691 116.0215,116.4612"/>
    <polygon points="116.0057,120.6138 117.1607,121.5409 118.3053,121.8607 119.7735,121.6666 121.0121,120.8546 121.6699,119.8649 121.938,118.7071 121.6782,117.2491 121.0267,116.2552 120.0675,115.5536 118.9229,115.2338 117.4547,115.428 116.2161,116.2399 115.5583,117.2297 115.2901,118.3874 115.4459,119.5656"/>
    <line x1="96.2824" x2="90.8811" y1="297.8435" y2="297.8435"/>
    <line x1="90.9322" x2="96.33" y1="300.8356" y2="300.6399"/>
    <line x1="96.4769" x2="91.0943" y1="303.156" y2="303.6053"/>
    <line x1="91.3823" x2="96.7281" y1="306.1693" y2="305.3969"/>
    <line x1="97.0854" x2="91.8136" y1="307.3682" y2="308.5442"/>
    <line x1="92.4093" x2="97.5475" y1="310.7437" y2="309.0782"/>
    <line x1="98.1103" x2="93.1929" y1="310.5409" y2="312.7757"/>
    <line x1="94.187" x2="98.771" y1="314.6377" y2="311.781"/>
    <line x1="99.535" x2="95.4057" y1="312.8341" y2="316.316"/>
    <line x1="96.8481" x2="100.4225" y1="317.7912" y2="313.7417"/>
    <line x1="101.4686" x2="98.4991" y1="314.5386" y2="319.0504"/>
    <line x1="100.3387" x2="102.7126" y1="320.0961" y2="315.2444"/>
    <line x1="104.1873" x2="102.3538" y1="315.8644" y2="320.945"/>
    <line x1="104.5426" x2="105.914" y1="321.621" y2="316.3967"/>
    <line x1="107.9048" x2="106.9125" y1="316.8391" y2="322.1485"/>
    <line x1="109.4765" x2="110.1665" y1="322.549" y2="317.1919"/>
    <line x1="112.7035" x2="112.2496" y1="317.4587" y2="322.8409"/>
    <line x1="115.2471" x2="115.5201" y1="323.0401" y2="317.6457"/>
    <line x1="118.621" x2="118.4838" y1="317.761" y2="323.1606"/>
    <line x1="121.9738" x2="122.0119" y1="323.2151" y2="317.8139"/>
    <polyline points="123.818,317.82 123.818,312.888 134.7191,312.888 134.7191,328.1534 123.818,328.1534 123.818,323.2214 115.2471,323.0401 108.1693,322.3634 102.3538,320.945 98.4991,319.0504 95.4057,316.316 94.187,314.6377 92.7761,311.7805 91.3823,306.1693 90.8811,297.8435 96.2824,297.8435 96.5893,304.3105 97.3035,308.2552 98.771,311.781 100.9232,314.1523 104.1873,315.8644 109.0015,317.0265 115.5201,317.6457 123.818,317.82 123.818,323.2214"/>
    <polygon points="137.7345,310.3377 140.0969,307.3972 143.0012,304.9906 146.3294,303.2157 149.9461,302.1447 153.3262,301.8194 157.0808,302.1808 160.3368,303.145 163.6828,304.8862 166.6113,307.2633 169.0032,310.1798 170.7613,313.5169 171.7419,316.768 172.1223,320.5207 171.7419,324.2733 170.7613,327.5245 169.0032,330.8616 166.6113,333.778 163.6828,336.1552 160.3368,337.8964 157.0808,338.8606 153.3262,339.222 149.9461,338.8966 146.3294,337.8257 143.0012,336.0508 140.0969,333.6441 137.9435,331.0185 136.1518,327.6993 135.1384,324.4582 134.7201,320.7096 135.0625,316.9533 136.0103,313.6924"/>
    <polygon points="150.7163,321.6159 150.1427,321.5026 149.866,321.0876 149.866,319.9538 150.325,319.4255 150.8986,319.5387 151.2765,320.5207"/>
    <polygon points="156.1252,319.4255 156.6988,319.5387 157.0767,320.5207 156.5164,321.6159 155.9428,321.5026 155.6662,321.0876 155.5906,320.2272"/>
    <polyline points="163.7695,339.2222 168.5419,339.2222 168.5419,347.3991"/>
    <line x1="168.5419" x2="163.7695" y1="346.8115" y2="346.8115"/>
    <polyline points="163.7695,347.3991 163.7695,339.2222 168.5419,339.2222"/>
    <line x1="168.5419" x2="163.7695" y1="340.4871" y2="340.4871"/>
    <line x1="163.7695" x2="168.5419" y1="341.752" y2="341.752"/>
    <line x1="168.5419" x2="163.7695" y1="343.0169" y2="343.0169"/>
    <line x1="163.7695" x2="168.5419" y1="344.2818" y2="344.2818"/>
    <line x1="168.5419" x2="163.7695" y1="345.5467" y2="345.5467"/>
    <polygon points="171.4474,348.8176 173.1249,350.794 173.7148,353.1359 158.5966,353.1359 159.0756,351.0175 160.6536,348.9893 163.0903,347.6083 166.0054,347.0899 168.944,347.5151"/>
    <polygon points="147.6549,350.794 148.2448,353.1359 133.1267,353.1359 133.6056,351.0175 135.1836,348.9893 137.6203,347.6083 140.5354,347.0899 143.474,347.5151 145.9774,348.8176"/>
    <polyline points="143.0719,347.3991 143.0719,339.2222 138.2995,339.2222"/>
    <line x1="138.2995" x2="143.0719" y1="340.4871" y2="340.4871"/>
    <line x1="143.0719" x2="138.2995" y1="341.752" y2="341.752"/>
    <line x1="138.2995" x2="143.0719" y1="343.0169" y2="343.0169"/>
    <line x1="143.0719" x2="138.2995" y1="344.2818" y2="344.2818"/>
    <line x1="138.2995" x2="143.0719" y1="345.5467" y2="345.5467"/>
    <line x1="143.0719" x2="138.2995" y1="346.8115" y2="346.8115"/>
    <polyline points="138.2995,347.3991 138.2995,339.2222 143.0719,339.2222"/>
    <polyline points="183.0234,323.2214 183.0234,317.82 191.3213,317.6457 197.8399,317.0265 202.6541,315.8644 205.9182,314.1523 208.0704,311.781 209.5379,308.2552 210.2521,304.3105 210.559,297.8435 215.9603,297.8435 215.4592,306.1693 214.0653,311.7805 212.6544,314.6377 211.4357,316.316 208.3423,319.0504 204.4876,320.945 198.6721,322.3634 191.5943,323.0401 183.0234,323.2214 183.0234,328.1534 172.1223,328.1534 172.1223,312.888 183.0234,312.888 183.0234,317.82"/>
    <line x1="184.8295" x2="184.8676" y1="317.8139" y2="323.2151"/>
    <line x1="188.3576" x2="188.2204" y1="323.1606" y2="317.761"/>
    <line x1="191.3213" x2="191.5943" y1="317.6457" y2="323.0401"/>
    <line x1="194.5918" x2="194.1379" y1="322.8409" y2="317.4587"/>
    <line x1="196.6749" x2="197.3649" y1="317.1919" y2="322.549"/>
    <line x1="199.9289" x2="198.9366" y1="322.1485" y2="316.8391"/>
    <line x1="200.9274" x2="202.2988" y1="316.3967" y2="321.621"/>
    <line x1="204.4876" x2="202.6541" y1="320.945" y2="315.8644"/>
    <line x1="204.1288" x2="206.5027" y1="315.2444" y2="320.0961"/>
    <line x1="208.3423" x2="205.3728" y1="319.0504" y2="314.5386"/>
    <line x1="206.4189" x2="209.9933" y1="313.7417" y2="317.7912"/>
    <line x1="211.4357" x2="207.3064" y1="316.316" y2="312.8341"/>
    <line x1="208.0704" x2="212.6544" y1="311.781" y2="314.6377"/>
    <line x1="213.6485" x2="208.7311" y1="312.7757" y2="310.5409"/>
    <line x1="209.294" x2="214.4321" y1="309.0782" y2="310.7437"/>
    <line x1="215.0278" x2="209.756" y1="308.5442" y2="307.3682"/>
    <line x1="210.1133" x2="215.4592" y1="305.3969" y2="306.1693"/>
    <line x1="215.7471" x2="210.3645" y1="303.6053" y2="303.156"/>
    <line x1="210.5114" x2="215.9092" y1="300.6399" y2="300.8356"/>
    <line x1="215.9603" x2="210.559" y1="297.8435" y2="297.8435"/>
    <polyline points="348.41,322.0621 333.1181,313.353 335.8637,308.5363 351.1523,317.2513"/>
    <polygon points="351.0187,317.1828 350.163,316.9168 348.9759,317.0092 347.9373,317.5916 347.3734,318.2881 347.0615,319.1281 347.0895,320.3185 347.4407,321.1429 348.2797,321.9878 349.3959,322.4024 350.2918,322.3813 351.3872,321.9146 352.1855,321.0311 352.539,319.8941 352.3824,318.7137 351.7447,317.7082"/>
    <line x1="350.5673" x2="370.6062" y1="316.9178" y2="317.7509"/>
    <polyline points="370.4915,320.5115 370.4911,358.7207 420.1299,358.7207 420.1299,320.5207"/>
    <line x1="420.0147" x2="440.0536" y1="317.7509" y2="316.9178"/>
    <polyline points="439.4686,317.2513 454.7572,308.5363 457.5029,313.353 442.211,322.0621"/>
    <polyline points="440.9564,322.4252 420.245,323.2904 419.8798,316.011 418.6812,309.799 416.5391,304.02 413.5398,298.9072 409.5651,294.4486 405.2155,291.318 400.466,289.3665 395.2145,288.6721 390.2546,289.3397 385.4989,291.2661 380.8991,294.5909 377.1503,298.8114 374.1348,303.9084 371.8758,310.0314 370.7558,315.8817 370.3759,323.2904 349.6645,322.4252"/>
    <polygon points="380.2223,321.9732 379.9003,320.5207 380.2223,319.0682 380.9069,318.0904 381.8847,317.4058 383.3372,317.0837 384.7897,317.4058 385.7675,318.0904 386.4521,319.0682 386.7741,320.5207 386.4521,321.9732 385.7675,322.951 384.7897,323.6356 383.3372,323.9576 381.8847,323.6356 380.9069,322.951"/>
    <polygon points="383.26,320.5207 383.5623,320.5207"/>
    <polyline points="392.2868,331.5976 392.4949,333.3919 393.1827,334.9323 394.1628,335.8292 395.4781,336.1268 396.7641,335.6308 397.6312,334.633 398.1261,333.3919 398.3341,331.5976"/>
    <polygon points="408.7362,323.6356 407.2837,323.9576 405.8312,323.6356 404.8534,322.951 404.1688,321.9732 403.8468,320.5207 404.1688,319.0682 404.8534,318.0904 405.8312,317.4058 407.2837,317.0837 408.7362,317.4058 409.714,318.0904 410.3986,319.0682 410.7207,320.5207 410.3986,321.9732 409.714,322.951"/>
    <polygon points="407.2065,320.5207 407.5088,320.5207"/>
    <polygon points="443.2475,318.2881 443.601,319.4251 443.5314,320.3185 443.1802,321.1429 442.3412,321.9878 441.225,322.4024 440.3291,322.3813 439.2337,321.9146 438.4354,321.0311 438.1235,320.1911 438.1515,319.0007 438.6768,317.9321 439.6022,317.1828 440.4579,316.9168 441.645,317.0092 442.4492,317.4046"/>
    <line x1="408.7448" x2="405.6431" y1="364.9249" y2="364.9249"/>
    <line x1="405.6431" x2="408.7448" y1="371.1292" y2="371.1292"/>
    <line x1="408.7448" x2="405.6431" y1="377.3335" y2="377.3335"/>
    <line x1="405.6431" x2="408.7448" y1="383.5378" y2="383.5378"/>
    <line x1="408.7448" x2="405.6431" y1="389.742" y2="389.742"/>
    <polyline points="405.6431,390.0287 405.6431,358.7207 408.7448,358.7207 408.7448,390.0287"/>
    <polygon points="401.9023,391.628 404.4057,390.3255 407.0436,389.9003 409.9822,390.3255 412.4856,391.628 414.1631,393.6044 414.753,395.9463 399.6349,395.9463 400.2247,393.6044"/>
    <polyline points="384.9778,390.0287 384.9778,358.7207 381.8762,358.7207 381.8762,390.0287"/>
    <line x1="381.8762" x2="384.9778" y1="389.742" y2="389.742"/>
    <polygon points="380.3616,390.4186 383.2767,389.9003 386.2153,390.3255 388.7186,391.628 390.3962,393.6044 390.986,395.9463 375.8679,395.9463 376.3469,393.8279 377.9249,391.7997"/>
    <line x1="381.8762" x2="384.9778" y1="383.5378" y2="383.5378"/>
    <line x1="384.9778" x2="381.8762" y1="377.3335" y2="377.3335"/>
    <line x1="381.8762" x2="384.9778" y1="371.1292" y2="371.1292"/>
    <line x1="384.9778" x2="381.8762" y1="364.9249" y2="364.9249"/>
    <line x1="324.1208" x2="320.2851" y1="509.4971" y2="509.4971"/>
    <line x1="320.3357" x2="324.1689" y1="512.4608" y2="512.3218"/>
    <line x1="324.318" x2="320.4956" y1="514.8746" y2="515.1937"/>
    <line x1="320.7782" x2="324.5745" y1="517.7109" y2="517.1624"/>
    <line x1="324.9425" x2="321.1988" y1="519.1922" y2="520.0273"/>
    <line x1="321.7752" x2="325.424" y1="522.1559" y2="520.9731"/>
    <line x1="326.0188" x2="322.5268" y1="522.5184" y2="524.1054"/>
    <line x1="323.4725" x2="326.7279" y1="525.8773" y2="523.8485"/>
    <line x1="327.5577" x2="324.6253" y1="524.9923" y2="527.4649"/>
    <line x1="325.9874" x2="328.5257" y1="528.8578" y2="525.9821"/>
    <line x1="329.6594" x2="327.5507" y1="526.846" y2="530.0501"/>
    <line x1="329.3039" x2="330.9898" y1="531.0465" y2="527.6011"/>
    <line x1="332.5427" x2="331.2407" y1="528.2542" y2="531.8622"/>
    <line x1="333.3625" x2="334.3364" y1="532.5174" y2="528.8074"/>
    <line x1="336.3822" x2="335.6775" y1="529.2621" y2="533.0325"/>
    <line x1="338.1977" x2="338.6877" y1="533.4261" y2="529.6218"/>
    <line x1="341.2589" x2="340.9365" y1="529.8922" y2="533.7144"/>
    <line x1="343.9078" x2="344.1017" y1="533.9119" y2="530.081"/>
    <line x1="347.2223" x2="347.1249" y1="530.1971" y2="534.0316"/>
    <polygon points="195.0654,523.41 194.9945,524.9005 194.3309,526.2371 193.1863,527.1945 191.7535,527.6115 190.2739,527.4178 189.2248,526.8417 188.2674,525.6971 187.8858,524.5627 187.9566,523.0722 188.6202,521.7356 189.7648,520.7782 191.1976,520.3612 192.6772,520.5549 193.7263,521.131 194.6837,522.2756"/>
    <polyline points="195.029,523.2312 206.3097,517.2158 205.3633,515.4409 194.0826,521.4564"/>
    <polyline points="188.0491,525.1967 179.4214,531.3557 180.5901,532.9928 189.2166,526.8346"/>
    <polyline points="180.0057,530.9386 180.0057,508.3204 126.8357,508.3204 126.8357,530.9386"/>
    <polyline points="126.8357,532.1742 126.8357,556.0281 135.0913,556.0281 135.0913,563.7888"/>
    <line x1="135.0913" x2="133.1176" y1="563.3104" y2="563.3104"/>
    <polyline points="133.1176,563.7888 133.1176,556.0281 180.0057,556.0281 180.0057,532.1742"/>
    <polygon points="158.7783,532.1742 159.0806,532.1742"/>
    <polyline points="156.4443,536.945 156.2363,538.7393 155.7415,539.9804 154.8743,540.9782 153.5883,541.4742 152.273,541.1766 151.293,540.2797 150.6051,538.7393 150.3971,536.945"/>
    <polygon points="147.7608,532.1742 148.0631,532.1742"/>
    <line x1="135.0913" x2="133.1176" y1="556.8372" y2="556.8372"/>
    <line x1="133.1176" x2="135.0913" y1="557.6464" y2="557.6464"/>
    <line x1="135.0913" x2="133.1176" y1="558.4555" y2="558.4555"/>
    <line x1="133.1176" x2="135.0913" y1="559.2647" y2="559.2647"/>
    <line x1="135.0913" x2="133.1176" y1="560.0738" y2="560.0738"/>
    <line x1="133.1176" x2="135.0913" y1="560.8829" y2="560.8829"/>
    <line x1="135.0913" x2="133.1176" y1="561.6921" y2="561.6921"/>
    <line x1="133.1176" x2="135.0913" y1="562.5012" y2="562.5012"/>
    <polygon points="139.3961,565.4651 141.0736,567.4416 141.6635,569.7835 126.5454,569.7835 127.1352,567.4416 128.6024,565.6369 131.039,564.2558 133.9541,563.7374 136.8927,564.1627"/>
    <polyline points="171.7501,563.7888 171.7501,556.0281 173.7238,556.0281 173.7238,563.7888"/>
    <line x1="173.7238" x2="171.7501" y1="563.3104" y2="563.3104"/>
    <line x1="171.7501" x2="173.7238" y1="562.5012" y2="562.5012"/>
    <line x1="173.7238" x2="171.7501" y1="561.6921" y2="561.6921"/>
    <line x1="171.7501" x2="173.7238" y1="560.8829" y2="560.8829"/>
    <line x1="173.7238" x2="171.7501" y1="560.0738" y2="560.0738"/>
    <line x1="171.7501" x2="173.7238" y1="559.2647" y2="559.2647"/>
    <line x1="173.7238" x2="171.7501" y1="558.4555" y2="558.4555"/>
    <line x1="171.7501" x2="173.7238" y1="557.6464" y2="557.6464"/>
    <line x1="173.7238" x2="171.7501" y1="556.8372" y2="556.8372"/>
    <polygon points="178.0286,565.4651 179.7062,567.4416 180.296,569.7835 165.1779,569.7835 165.6569,567.6651 167.2349,565.6369 169.6716,564.2558 172.5867,563.7374 175.5252,564.1627"/>
    <polyline points="118.7923,525.1967 127.42,531.3557 126.2513,532.9928 117.6248,526.8346"/>
    <polygon points="118.7973,522.7847 118.0256,521.5075 117.0766,520.7782 115.6438,520.3612 114.1642,520.5549 113.1151,521.131 112.1577,522.2756 111.7407,523.7084 111.8469,524.9005 112.5105,526.2371 113.6551,527.1945 115.0879,527.6115 116.5675,527.4178 117.6166,526.8417 118.574,525.6971 118.991,524.2643"/>
    <polyline points="112.7588,521.4564 101.4781,515.4409 100.5317,517.2158 111.8124,523.2312"/>
    <polyline points="111.904,734.3923 128.101,742.1498 126.4937,745.5057 110.2978,737.7487"/>
    <polygon points="110.9846,737.1449 111.7322,735.8436 111.902,734.3525 111.4663,732.9164 110.4966,731.7711 109.152,731.1045 107.6533,731.0262 106.2466,731.5489 105.3441,732.3452 104.7445,733.3888 104.514,734.8717 104.8907,736.3244 105.813,737.5083 107.1292,738.2292 108.322,738.3898 109.7821,738.0427"/>
    <polyline points="107.5569,738.3297 96.8474,750.9153 94.0136,748.5039 104.7231,735.9183"/>
    <polyline points="127.3285,741.7799 128.0352,733.9235 129.643,726.4469 132.0954,719.5877 135.3055,713.5897 139.3564,708.4614 143.7371,704.8499 148.4617,702.6231 153.3626,701.8601 158.2655,702.588 162.9963,704.781 167.5848,708.5643 171.452,713.4605 174.6786,719.4355 177.1501,726.277 178.7785,733.7421 179.5127,741.7799"/>
    <polyline points="179.5441,743.8278 179.5441,785.6819 140.4733,785.6819 140.4733,799.8101"/>
    <polygon points="142.3749,799.583 145.3135,800.0082 147.8169,801.3107 149.4944,803.2871 150.0843,805.629 134.9661,805.629 135.4451,803.5106 137.0231,801.4824 139.4598,800.1014"/>
    <polyline points="144.5771,799.8101 144.5771,785.6819 127.2973,785.6819 127.2976,743.8272"/>
    <polygon points="144.2673,743.2608 144.544,742.8458 145.1176,742.7325 145.6778,743.8278 145.2999,744.8097 144.7263,744.923 144.2673,744.3947"/>
    <polyline points="150.3971,752.1986 150.6051,753.9929 151.293,755.5333 152.273,756.4302 153.5883,756.7278 154.8743,756.2318 155.7415,755.234 156.2363,753.9929 156.4443,752.1986"/>
    <polygon points="162.2974,744.8097 161.7239,744.923 161.2649,744.3947 161.2649,743.2608 161.5415,742.8458 162.1151,742.7325 162.6754,743.8278"/>
    <polyline points="194.9374,734.3923 178.7404,742.1498 180.3477,745.5057 196.5437,737.7487"/>
    <polygon points="195.8568,737.1449 195.1093,735.8436 194.9394,734.3525 195.3751,732.9164 196.3448,731.7711 197.6894,731.1045 199.1881,731.0262 200.5948,731.5489 201.4973,732.3452 202.0969,733.3888 202.3274,734.8717 201.9507,736.3244 201.0285,737.5083 199.7122,738.2292 198.5194,738.3898 197.0593,738.0427"/>
    <polyline points="199.2845,738.3297 209.994,750.9153 212.8278,748.5039 202.1183,735.9183"/>
    <line x1="166.3681" x2="162.2643" y1="789.6713" y2="789.6713"/>
    <line x1="162.2643" x2="166.3681" y1="793.6608" y2="793.6608"/>
    <line x1="166.3681" x2="162.2643" y1="797.6502" y2="797.6502"/>
    <polyline points="162.2643,799.8101 162.2643,785.6819 166.3681,785.6819 166.3681,799.8101"/>
    <polygon points="164.1659,799.583 167.1045,800.0082 169.6079,801.3107 171.2854,803.2871 171.8753,805.629 156.7571,805.629 157.347,803.2871 158.8141,801.4824 161.2508,800.1014"/>
    <line x1="144.5771" x2="140.4733" y1="797.6502" y2="797.6502"/>
    <line x1="140.4733" x2="144.5771" y1="793.6608" y2="793.6608"/>
    <line x1="144.5771" x2="140.4733" y1="789.6713" y2="789.6713"/>
  </g>
</svg>
