<?xml version="1.0" encoding="utf-8" ?>
<svg xmlns="http://www.w3.org/2000/svg" xmlns:cc="http://creativecommons.org/ns" xmlns:dc="http://purl.org/dc/elements/1.1/" xmlns:ev="http://www.w3.org/2001/xml-events" xmlns:inkscape="http://www.inkscape.org/namespaces/inkscape" xmlns:rdf="http://www.w3.org/1999/02/22-rdf-syntax-ns" xmlns:sodipodi="http://sodipodi.sourceforge.net/DTD/sodipodi-0.dtd" xmlns:xlink="http://www.w3.org/1999/xlink" baseProfile="tiny" height="29.7cm" version="1.2" viewBox="0 0 793.7007874015749 1122.5196850393702" width="21.0cm">
  <metadata>
    <rdf:RDF>
      <cc:Work>
        <dc:format>image/svg+xml</dc:format>
        <dc:source/>
        <dc:date>2022-06-06T21:20:51.311604</dc:date>
      </cc:Work>
    </rdf:RDF>
  </metadata>
  <defs/>
  <g fill="none" id="layer1" inkscape:groupmode="layer" inkscape:label="1" stroke="#0000ff" style="display:inline">
    <polygon points="510.2362,637.7935 283.4646,637.7935 283.4646,524.4077 510.2362,524.4077"/>
    <polyline points="493.2283,637.7935 493.2283,705.825 459.2126,705.825 459.2126,637.7935 493.2283,637.7935 459.2126,637.7935"/>
    <line x1="459.2126" x2="493.2283" y1="645.3526" y2="645.3526"/>
    <line x1="493.2283" x2="459.2126" y1="652.9116" y2="652.9116"/>
    <line x1="459.2126" x2="493.2283" y1="660.4707" y2="660.4707"/>
    <line x1="493.2283" x2="459.2126" y1="668.0297" y2="668.0297"/>
    <line x1="459.2126" x2="493.2283" y1="675.5888" y2="675.5888"/>
    <line x1="493.2283" x2="459.2126" y1="683.1478" y2="683.1478"/>
    <line x1="459.2126" x2="493.2283" y1="690.7069" y2="690.7069"/>
    <line x1="493.2283" x2="459.2126" y1="698.266" y2="698.266"/>
    <polyline points="440.497,587.9037 443.9124,587.9037 445.0682,586.7699 439.3413,586.7699 438.6554,585.636 445.7541,585.636 446.2126,584.5022 438.1968,584.5022 437.8969,583.3683 446.5125,583.3683 446.6833,582.2345 437.7262,582.2345 437.6694,581.1006 446.74,581.1006 446.6833,579.9667 437.7262,579.9667 437.8969,578.8329 446.5125,578.8329 446.2126,577.699 438.1968,577.699 438.6554,576.5652 445.7541,576.5652 445.0682,575.4313 439.3413,575.4313 440.497,574.2975 443.9124,574.2975"/>
    <polygon points="441.672,573.2082 442.9499,573.2507 444.2025,573.8081 445.1746,574.6654 446.7874,577.6302 447.307,581.1006 447.1175,583.2307 446.4412,585.5019 445.3556,587.3234 443.9981,588.5221 442.5245,589.0214 441.0365,588.8224 439.6117,587.9204 438.5462,586.6108 437.292,583.2307 437.2343,579.3186 438.3903,575.8517 439.2348,574.6654 440.4113,573.6791"/>
    <polygon points="438.0651,575.2902 439.016,574.0693 440.3577,573.0607 441.5789,572.6486 443.0792,572.6984 444.2871,573.1911 445.5976,574.2877 447.328,577.4594 447.874,581.1006 447.6042,583.6926 446.8206,586.038 445.5976,587.9135 444.0518,589.1405 442.3301,589.6025 440.5966,589.2552 439.016,588.1319 437.739,586.3394 436.6736,582.9667 436.7341,578.8693"/>
    <polyline points="408.189,581.1006 408.0151,584.4206 407.4447,587.6864 406.5274,590.5054 405.1471,593.1411 403.4876,595.1952 401.4094,596.8224 399.2971,597.7515 397.0159,598.1069 394.7207,597.839 392.5793,596.9872 390.4457,595.421 388.7399,593.4182 387.2986,590.8007 386.3375,588.0052 385.7243,584.7565 385.5118,581.1006"/>
    <polyline points="353.2038,574.2975 349.7884,574.2975 348.6326,575.4313 354.3595,575.4313 355.0454,576.5652 347.9467,576.5652 347.4882,577.699 355.504,577.699 355.8038,578.8329 347.1883,578.8329 347.0175,579.9667 355.9746,579.9667 356.0314,581.1006 346.9608,581.1006 347.0175,582.2345 355.9746,582.2345 355.8038,583.3683 347.1883,583.3683 347.4882,584.5022 355.504,584.5022 355.0454,585.636 347.9467,585.636 348.6326,586.7699 354.3595,586.7699 353.2038,587.9037 349.7884,587.9037"/>
    <polygon points="347.8375,586.6108 346.5833,583.2307 346.5257,579.3186 347.6816,575.8517 348.5262,574.6654 349.7027,573.6791 350.9634,573.2082 352.2413,573.2507 353.4939,573.8081 354.466,574.6654 356.0787,577.6302 356.5984,581.1006 356.4088,583.2307 355.7326,585.5019 354.647,587.3234 353.2895,588.5221 351.8158,589.0214 350.3278,588.8224 348.9031,587.9204"/>
    <polygon points="348.3074,574.0693 349.649,573.0607 350.8702,572.6486 352.3705,572.6984 353.5784,573.1911 354.889,574.2877 356.6194,577.4594 357.1654,581.1006 356.8956,583.6926 356.1119,586.038 354.889,587.9135 353.3431,589.1405 351.6215,589.6025 349.8879,589.2552 348.3074,588.1319 347.0303,586.3394 345.9153,582.5979 346.0965,578.5086 347.3565,575.2902"/>
    <polygon points="342.9921,524.4077 314.6457,524.4077 314.6457,507.3998 342.9921,507.3998"/>
    <polygon points="333.0709,507.3998 324.5669,507.3998 324.5669,439.3683 333.0709,439.3683"/>
    <polygon points="334.9706,437.5544 332.9613,438.5845 330.7878,439.1961 328.5362,439.3648 326.2958,439.084 324.1555,438.3649 322.2001,437.236 320.5071,435.7419 318.6032,432.9494 317.8309,430.8276 317.4944,428.5949 317.607,426.3398 318.1641,424.1517 319.1438,422.1174 320.5071,420.3175 322.2001,418.8235 324.1555,417.6945 326.2958,416.9754 328.5362,416.6947 330.7878,416.8634 332.9613,417.4749 334.9706,418.505 336.7359,419.9128 338.1873,421.6425 339.2671,423.6254 339.9327,425.783 340.1575,428.0297 339.9327,430.2764 339.2671,432.434 338.1873,434.417 336.7359,436.1466"/>
    <polygon points="475.9957,425.783 476.2205,428.0297 475.9957,430.2764 475.3301,432.434 474.2503,434.417 472.7989,436.1466 471.0336,437.5544 469.0243,438.5845 466.8508,439.1961 464.5992,439.3648 462.3588,439.084 460.2185,438.3649 458.2631,437.236 456.5701,435.7419 455.2068,433.9421 454.2271,431.9078 453.6699,429.7197 453.5574,427.4646 453.8939,425.2319 454.6662,423.1101 456.5701,420.3175 458.2631,418.8235 460.2185,417.6945 462.3588,416.9754 464.5992,416.6947 466.8508,416.8634 469.0243,417.4749 471.0336,418.505 472.7989,419.9128 474.2503,421.6425 475.3301,423.6254"/>
    <polygon points="460.6299,507.3998 460.6299,439.3683 469.1339,439.3683 469.1339,507.3998"/>
    <polygon points="479.0551,524.4077 450.7087,524.4077 450.7087,507.3998 479.0551,507.3998"/>
    <polygon points="510.2362,586.7699 510.2362,575.4313 527.2441,575.4313 527.2441,586.7699"/>
    <line x1="534.1682" x2="534.0083" y1="592.4157" y2="569.7391"/>
    <line x1="546.7018" x2="547.2779" y1="569.5412" y2="592.211"/>
    <line x1="559.4462" x2="558.2998" y1="591.7581" y2="569.1099"/>
    <line x1="568.8215" x2="570.7274" y1="568.4113" y2="591.0082"/>
    <line x1="581.1793" x2="578.2824" y1="589.9077" y2="567.4164"/>
    <line x1="586.6958" x2="590.862" y1="566.1041" y2="588.3953"/>
    <line x1="599.8342" x2="594.0765" y1="586.3983" y2="564.4643"/>
    <polygon points="600.4482,562.5003 605.8569,560.2266 612.3651,556.2562 617.3795,551.4953 620.1423,547.6861 623.6193,540.6097 625.5041,534.7888 627.0193,527.9914 628.1481,520.1776 628.8874,511.325 629.2913,496.0612 651.9685,496.0612 651.5261,512.6456 650.6842,522.7027 648.4425,536.4524 646.1786,544.8104 643.1904,552.558 641.3957,556.2002 637.1619,562.9883 632.0537,569.045 626.1124,574.2913 619.423,578.698 612.0634,582.3033 604.0701,585.1919 590.862,588.3953 581.1793,589.9077 565.1941,591.4235 547.2779,592.211 527.2441,592.4392 527.2441,569.762 558.2998,569.1099 573.6837,567.9524 582.6192,566.8008 590.5141,565.3252"/>
    <line x1="600.4482" x2="608.1457" y1="562.5003" y2="583.831"/>
    <line x1="615.8235" x2="605.8569" y1="580.5962" y2="560.2266"/>
    <line x1="610.3884" x2="622.8556" y1="557.6561" y2="576.5987"/>
    <line x1="629.1823" x2="614.1756" y1="571.7729" y2="554.7714"/>
    <line x1="617.3795" x2="634.7161" y1="551.4953" y2="566.1137"/>
    <line x1="639.3881" x2="620.1423" y1="559.6801" y2="547.6861"/>
    <line x1="622.5453" x2="643.1904" y1="543.1754" y2="552.558"/>
    <line x1="646.1786" x2="624.6065" y1="544.8104" y2="537.8177"/>
    <line x1="626.3092" x2="648.4425" y1="531.5153" y2="536.4524"/>
    <line x1="650.0766" x2="627.6325" y1="527.4562" y2="524.2132"/>
    <line x1="628.566" x2="651.1646" y1="515.8823" y2="517.7686"/>
    <line x1="651.776" x2="629.1138" y1="507.3255" y2="506.5039"/>
    <line x1="629.2913" x2="651.9685" y1="496.0612" y2="496.0612"/>
    <polyline points="334.4882,637.7935 334.4882,705.825 300.4724,705.825 300.4724,637.7935 334.4882,637.7935 300.4724,637.7935"/>
    <line x1="300.4724" x2="334.4882" y1="645.3526" y2="645.3526"/>
    <line x1="334.4882" x2="300.4724" y1="652.9116" y2="652.9116"/>
    <line x1="300.4724" x2="334.4882" y1="660.4707" y2="660.4707"/>
    <line x1="334.4882" x2="300.4724" y1="668.0297" y2="668.0297"/>
    <line x1="300.4724" x2="334.4882" y1="675.5888" y2="675.5888"/>
    <line x1="334.4882" x2="300.4724" y1="683.1478" y2="683.1478"/>
    <line x1="300.4724" x2="334.4882" y1="690.7069" y2="690.7069"/>
    <line x1="334.4882" x2="300.4724" y1="698.266" y2="698.266"/>
    <polygon points="283.4646,586.7699 283.4646,575.4313 266.4567,575.4313 266.4567,586.7699"/>
    <polygon points="266.4567,569.762 235.4009,569.1099 220.0171,567.9524 211.0816,566.8008 203.1867,565.3252 193.2526,562.5003 187.8439,560.2266 181.3356,556.2562 176.3213,551.4953 173.5585,547.6861 170.0815,540.6097 168.1967,534.7888 166.6815,527.9914 165.5527,520.1776 164.8134,511.325 164.4094,496.0612 141.7323,496.0612 142.1747,512.6456 143.0166,522.7027 145.2583,536.4524 147.5222,544.8104 150.5104,552.558 152.3051,556.2002 156.5388,562.9883 161.6471,569.045 167.5884,574.2913 174.2778,578.698 181.6373,582.3033 189.6307,585.1919 202.8387,588.3953 212.5215,589.9077 228.5067,591.4235 246.4228,592.211 266.4567,592.4392"/>
    <line x1="259.6924" x2="259.5326" y1="569.7391" y2="592.4157"/>
    <line x1="246.4228" x2="246.999" y1="592.211" y2="569.5412"/>
    <line x1="235.4009" x2="234.2546" y1="569.1099" y2="591.7581"/>
    <line x1="222.9734" x2="224.8793" y1="591.0082" y2="568.4113"/>
    <line x1="215.4184" x2="212.5215" y1="567.4164" y2="589.9077"/>
    <line x1="202.8387" x2="207.005" y1="588.3953" y2="566.1041"/>
    <line x1="199.6243" x2="193.8666" y1="564.4643" y2="586.3983"/>
    <line x1="185.5551" x2="193.2526" y1="583.831" y2="562.5003"/>
    <line x1="187.8439" x2="177.8773" y1="560.2266" y2="580.5962"/>
    <line x1="170.8452" x2="183.3124" y1="576.5987" y2="557.6561"/>
    <line x1="179.5252" x2="164.5184" y1="554.7714" y2="571.7729"/>
    <line x1="158.9847" x2="176.3213" y1="566.1137" y2="551.4953"/>
    <line x1="173.5585" x2="154.3127" y1="547.6861" y2="559.6801"/>
    <line x1="150.5104" x2="171.1555" y1="552.558" y2="543.1754"/>
    <line x1="169.0943" x2="147.5222" y1="537.8177" y2="544.8104"/>
    <line x1="145.2583" x2="167.3915" y1="536.4524" y2="531.5153"/>
    <line x1="166.0683" x2="143.6242" y1="524.2132" y2="527.4562"/>
    <line x1="142.5362" x2="165.1347" y1="517.7686" y2="515.8823"/>
    <line x1="164.587" x2="141.9248" y1="506.5039" y2="507.3255"/>
    <line x1="141.7323" x2="164.4094" y1="496.0612" y2="496.0612"/>
  </g>
</svg>
