<?xml version="1.0" encoding="utf-8" ?>
<svg xmlns="http://www.w3.org/2000/svg" xmlns:cc="http://creativecommons.org/ns" xmlns:dc="http://purl.org/dc/elements/1.1/" xmlns:ev="http://www.w3.org/2001/xml-events" xmlns:inkscape="http://www.inkscape.org/namespaces/inkscape" xmlns:rdf="http://www.w3.org/1999/02/22-rdf-syntax-ns" xmlns:sodipodi="http://sodipodi.sourceforge.net/DTD/sodipodi-0.dtd" xmlns:xlink="http://www.w3.org/1999/xlink" baseProfile="tiny" height="29.7cm" version="1.2" viewBox="0 0 793.7007874015749 1122.5196850393702" width="21.0cm">
  <metadata>
    <rdf:RDF>
      <cc:Work>
        <dc:format>image/svg+xml</dc:format>
        <dc:source/>
        <dc:date>2022-06-25T17:35:27.922190</dc:date>
      </cc:Work>
    </rdf:RDF>
  </metadata>
  <defs/>
  <g fill="none" id="layer1" inkscape:groupmode="layer" inkscape:label="1" stroke="#0000ff" style="display:inline">
    <polygon points="345.2598,496.4409 448.4409,496.4409 448.4409,626.0787 345.2598,626.0787"/>
    <polygon points="369.0709,500.4094 369.0709,557.2913 349.2283,557.2913 349.2283,500.4094"/>
    <polygon points="373.0394,557.2913 373.0394,500.4094 392.8819,500.4094 392.8819,557.2913"/>
    <polygon points="394.8661,559.2756 347.2441,559.2756 347.2441,498.4252 394.8661,498.4252"/>
    <polygon points="398.8346,563.2441 446.4567,563.2441 446.4567,624.0945 398.8346,624.0945"/>
    <polygon points="419.0865,583.8205 417.6547,585.5715 414.515,587.6318 410.8346,588.3775 407.1406,587.702 403.9624,585.7019 401.7551,582.6639 401.1213,580.8874 400.8207,578.6456 401.461,574.9454 403.4308,571.7482 406.4476,569.5121 408.218,568.8614 410.4568,568.5395 414.163,569.1446 415.8635,569.9606 417.6547,571.3418 419.8037,574.4214 420.4821,576.5791 420.6614,578.4567 419.9507,582.1441"/>
    <polygon points="444.4724,565.2283 444.4724,622.1102 424.6299,622.1102 424.6299,565.2283"/>
    <polygon points="431.8449,550.8126 427.1519,552.2311 422.6457,552.6614 418.1394,552.2311 413.4464,550.8126 409.4563,548.6747 405.9428,545.8204 402.8213,542.0398 400.6835,538.0497 399.2649,533.3567 398.8346,528.8504 399.2649,524.3441 400.5403,520.0007 402.6146,515.9772 405.6757,512.1476 409.4563,509.0261 413.4464,506.8882 417.769,505.5441 422.6457,505.0394 427.5223,505.5441 431.8449,506.8882 435.8351,509.0261 439.6156,512.1476 442.6768,515.9772 444.7511,520.0007 446.0264,524.3441 446.4567,528.8504 446.0264,533.3567 444.6079,538.0497 442.47,542.0398 439.6156,545.5532 435.8351,548.6747"/>
    <polygon points="414.515,618.0569 410.8346,618.8027 407.1406,618.1272 403.9624,616.1271 401.7551,613.0891 401.0357,610.9446 400.8207,609.0708 401.461,605.3706 403.4308,602.1734 406.4476,599.9373 408.5851,599.1975 410.4568,598.9647 414.163,599.5698 415.8635,600.3858 417.6547,601.767 419.8037,604.8465 420.4821,607.0043 420.6614,608.8819 419.9507,612.5692 419.0865,614.2457 417.6547,615.9967"/>
    <polygon points="354.0851,576.9665 357.8657,573.845 361.8558,571.7071 366.5489,570.2886 371.0551,569.8583 375.5614,570.2886 380.2544,571.7071 384.2445,573.845 388.0251,576.9665 390.8795,580.4799 393.1605,584.8196 394.4358,589.163 394.8661,593.6693 394.4358,598.1756 393.1605,602.519 391.0862,606.5425 388.0251,610.3721 384.5574,613.2819 380.2544,615.6315 375.5614,617.05 371.0551,617.4803 366.5489,617.05 361.8558,615.6315 357.5528,613.2819 354.0851,610.3721 351.024,606.5425 348.9497,602.519 347.6744,598.1756 347.2441,593.6693 347.6744,589.163 348.9497,584.8196 351.2308,580.4799"/>
  </g>
</svg>
