<?xml version="1.0" encoding="utf-8" ?>
<svg xmlns="http://www.w3.org/2000/svg" xmlns:cc="http://creativecommons.org/ns" xmlns:dc="http://purl.org/dc/elements/1.1/" xmlns:ev="http://www.w3.org/2001/xml-events" xmlns:inkscape="http://www.inkscape.org/namespaces/inkscape" xmlns:rdf="http://www.w3.org/1999/02/22-rdf-syntax-ns" xmlns:sodipodi="http://sodipodi.sourceforge.net/DTD/sodipodi-0.dtd" xmlns:xlink="http://www.w3.org/1999/xlink" baseProfile="tiny" height="29.7cm" version="1.2" viewBox="0 0 793.7007874015749 1122.5196850393702" width="21.0cm">
  <metadata>
    <rdf:RDF>
      <cc:Work>
        <dc:format>image/svg+xml</dc:format>
        <dc:source/>
        <dc:date>2022-06-11T22:30:57.462877</dc:date>
      </cc:Work>
    </rdf:RDF>
  </metadata>
  <defs/>
  <g fill="none" id="layer1" inkscape:groupmode="layer" inkscape:label="1" stroke="#0000ff" style="display:inline">
    <polyline points="179.9903,965.792 179.4538,960.8885 178.0136,956.5128 175.5085,952.1752 172.3849,948.6484 168.2931,945.5378 163.9623,943.3977 159.278,942.0569 154.03,941.5612 148.7832,942.0682 144.1022,943.4191 139.4632,945.7649 135.6926,948.6879 132.3686,952.515 130.0833,956.5644 128.6539,960.9433 128.1294,965.792"/>
    <polyline points="128.1294,971.9346 128.1294,1012.5034 140.444,1012.5034 140.444,1025.8086"/>
    <line x1="140.444" x2="131.3731" y1="1024.5979" y2="1024.5979"/>
    <polyline points="131.3731,1025.8086 131.3731,1012.5034 176.7466,1012.5034 176.7466,1025.8086"/>
    <line x1="176.7466" x2="167.6757" y1="1024.5979" y2="1024.5979"/>
    <polyline points="167.6757,1025.8086 167.6757,1012.5034 179.9903,1012.5034 179.9903,971.9346"/>
    <polyline points="188.8727,971.3484 188.8727,960.2356 200.9919,959.7669 205.1953,959.1128 208.723,957.9505 210.9725,956.2645 212.4267,953.4689 213.2634,949.2638 213.5525,943.1148 224.6653,943.1148 224.1348,951.849 223.3579,955.6819 222.0975,959.2285 220.2339,962.4498 218.6328,964.348 216.773,965.9905 213.607,967.9325 208.8731,969.6545 203.579,970.6526 197.588,971.1635 188.8727,971.3484 188.8727,971.9346 179.9903,971.9346 179.9903,959.6493 188.8727,959.6493 188.8727,960.2356"/>
    <line x1="190.6587" x2="190.737" y1="960.2295" y2="971.342"/>
    <line x1="194.2794" x2="193.9971" y1="971.2867" y2="960.1775"/>
    <line x1="197.0262" x2="197.588" y1="960.0649" y2="971.1635"/>
    <line x1="200.6811" x2="199.7472" y1="970.9578" y2="959.8843"/>
    <line x1="202.1594" x2="203.579" y1="959.6308" y2="970.6526"/>
    <line x1="206.3028" x2="204.2612" y1="970.2269" y2="959.3032"/>
    <line x1="206.0516" x2="208.8731" y1="958.9058" y2="969.6545"/>
    <line x1="211.3062" x2="207.5341" y1="968.9025" y2="958.4495"/>
    <line x1="208.723" x2="213.607" y1="957.9505" y2="967.9325"/>
    <line x1="215.7615" x2="209.6521" y1="966.7071" y2="957.4244"/>
    <line x1="210.3784" x2="217.7323" y1="956.872" y2="965.2034"/>
    <line x1="219.4682" x2="210.9725" y1="963.4282" y2="956.2645"/>
    <line x1="211.4961" x2="220.9273" y1="955.5419" y2="961.4194"/>
    <line x1="222.0975" x2="211.9806" y1="959.2285" y2="954.6307"/>
    <line x1="212.4267" x2="222.9979" y1="953.4689" y2="956.8956"/>
    <line x1="223.6643" x2="212.8181" y1="954.4372" y2="952.0178"/>
    <line x1="213.1362" x2="224.1348" y1="950.2598" y2="951.849"/>
    <line x1="224.4422" x2="213.3679" y1="949.1141" y2="948.1897"/>
    <line x1="213.5069" x2="224.6123" y1="945.8077" y2="946.2104"/>
    <line x1="224.6653" x2="213.5525" y1="943.1148" y2="943.1148"/>
    <polygon points="164.4323,966.3344 164.4323,965.2495"/>
    <polygon points="164.1284,966.8303 163.7672,966.3316 163.7672,965.2523 164.3696,964.662 165.0285,965.0955 165.1879,965.792 164.6176,966.8911"/>
    <polyline points="157.0835,975.1343 156.8754,976.9286 156.3806,978.1697 155.5134,979.1674 154.2275,979.6635 152.9122,979.3658 151.9321,978.4689 151.2443,976.9286 151.0362,975.1343"/>
    <polygon points="144.2842,965.0955 144.4436,965.792 143.8732,966.8911 143.384,966.8303 143.0229,966.3316 143.0229,965.2523 143.6253,964.662"/>
    <polygon points="143.688,965.2495 143.688,966.3344"/>
    <polyline points="119.247,960.2356 119.247,959.6493 128.1294,959.6493 128.1294,971.9346 119.247,971.9346 119.247,971.3484 110.5317,971.1635 104.5407,970.6526 99.2466,969.6545 94.5127,967.9325 91.3467,965.9905 89.4869,964.348 87.8858,962.4498 86.0222,959.2285 84.7618,955.6819 83.9849,951.849 83.4544,943.1148 94.5672,943.1148 94.8563,949.2638 95.693,953.4689 97.1472,956.2645 99.3967,957.9505 102.9244,959.1128 107.1278,959.7669 119.247,960.2356 119.247,971.3484"/>
    <line x1="117.3827" x2="117.461" y1="971.342" y2="960.2295"/>
    <line x1="114.1226" x2="113.8403" y1="960.1775" y2="971.2867"/>
    <line x1="110.5317" x2="111.0935" y1="971.1635" y2="960.0649"/>
    <line x1="108.3725" x2="107.4386" y1="959.8843" y2="970.9578"/>
    <line x1="104.5407" x2="105.9603" y1="970.6526" y2="959.6308"/>
    <line x1="103.8585" x2="101.8169" y1="959.3032" y2="970.2269"/>
    <line x1="99.2466" x2="102.0681" y1="969.6545" y2="958.9058"/>
    <line x1="100.5856" x2="96.8135" y1="958.4495" y2="968.9025"/>
    <line x1="94.5127" x2="99.3967" y1="967.9325" y2="957.9505"/>
    <line x1="98.4676" x2="92.3581" y1="957.4244" y2="966.7071"/>
    <line x1="90.3874" x2="97.7413" y1="965.2034" y2="956.872"/>
    <line x1="97.1472" x2="88.6515" y1="956.2645" y2="963.4282"/>
    <line x1="87.1924" x2="96.6236" y1="961.4194" y2="955.5419"/>
    <line x1="96.1391" x2="86.0222" y1="954.6307" y2="959.2285"/>
    <line x1="85.1218" x2="95.693" y1="956.8956" y2="953.4689"/>
    <line x1="95.3016" x2="84.4554" y1="952.0178" y2="954.4372"/>
    <line x1="83.9849" x2="94.9835" y1="951.849" y2="950.2598"/>
    <line x1="94.7518" x2="83.6775" y1="948.1897" y2="949.1141"/>
    <line x1="83.5074" x2="94.6128" y1="946.2104" y2="945.8077"/>
    <line x1="94.5672" x2="83.4544" y1="943.1148" y2="943.1148"/>
    <line x1="131.3731" x2="140.444" y1="1014.5191" y2="1014.5191"/>
    <line x1="140.444" x2="131.3731" y1="1016.5349" y2="1016.5349"/>
    <line x1="131.3731" x2="140.444" y1="1018.5506" y2="1018.5506"/>
    <line x1="140.444" x2="131.3731" y1="1020.5664" y2="1020.5664"/>
    <line x1="131.3731" x2="140.444" y1="1022.5821" y2="1022.5821"/>
    <polygon points="128.9394,1028.3032 130.6169,1026.3268 132.8432,1025.1174 135.7583,1024.5991 138.6968,1025.0243 141.2002,1026.3268 142.8777,1028.3032 143.4676,1030.6451 128.3495,1030.6451"/>
    <polygon points="165.242,1028.3032 166.9195,1026.3268 169.1458,1025.1174 172.0609,1024.5991 174.9994,1025.0243 177.5028,1026.3268 179.1803,1028.3032 179.7702,1030.6451 164.6521,1030.6451"/>
    <line x1="167.6757" x2="176.7466" y1="1022.5821" y2="1022.5821"/>
    <line x1="176.7466" x2="167.6757" y1="1020.5664" y2="1020.5664"/>
    <line x1="167.6757" x2="176.7466" y1="1018.5506" y2="1018.5506"/>
    <line x1="176.7466" x2="167.6757" y1="1016.5349" y2="1016.5349"/>
    <line x1="167.6757" x2="176.7466" y1="1014.5191" y2="1014.5191"/>
    <line x1="330.4888" x2="341.7521" y1="957.0078" y2="953.3567"/>
    <line x1="342.1834" x2="331.404" y1="954.4802" y2="959.379"/>
    <line x1="332.5968" x2="342.6454" y1="961.6118" y2="955.3495"/>
    <line x1="343.1383" x2="334.0865" y1="956.03" y2="963.6627"/>
    <line x1="335.8597" x2="343.6951" y1="965.4762" y2="956.5993"/>
    <line x1="344.3807" x2="337.8712" y1="957.1206" y2="967.011"/>
    <line x1="340.0658" x2="345.2697" y1="968.2593" y2="957.6238"/>
    <line x1="346.4222" x2="342.4031" y1="958.1073" y2="969.2447"/>
    <line x1="344.8673" x2="347.8735" y1="970.0063" y2="958.554"/>
    <line x1="349.6384" x2="347.4631" y1="958.9457" y2="970.5844"/>
    <line x1="350.2073" x2="351.7199" y1="971.0133" y2="959.27"/>
    <line x1="354.1162" x2="353.1211" y1="959.5219" y2="971.3203"/>
    <line x1="356.2264" x2="356.8249" y1="971.5268" y2="959.7016"/>
    <line x1="359.8449" x2="359.5441" y1="959.8139" y2="971.6504"/>
    <line x1="363.0932" x2="363.1767" y1="971.7058" y2="959.8658"/>
    <polyline points="364.9601,959.8718 364.9601,955.6125 371.9661,955.6125 371.9661,975.9714 364.9601,975.9714 364.9601,971.7121 356.2264,971.5268 350.2073,971.0133 344.8673,970.0063 340.0658,968.2593 336.8392,966.2798 334.9399,964.6023 333.3045,962.6634 331.404,959.379 330.1237,955.7769 329.338,951.901 328.8037,943.1148 340.644,943.1148 340.9309,949.2233 341.7521,953.3567 343.1383,956.03 345.2697,957.6238 348.7164,958.7576 352.8788,959.4051 364.9601,959.8718 364.9601,971.7121"/>
    <line x1="374.6257" x2="383.6966" y1="989.7755" y2="989.7755"/>
    <line x1="383.6966" x2="374.6257" y1="991.7912" y2="991.7912"/>
    <line x1="374.6257" x2="383.6966" y1="993.807" y2="993.807"/>
    <line x1="383.6966" x2="374.6257" y1="995.8227" y2="995.8227"/>
    <line x1="374.6257" x2="383.6966" y1="997.8384" y2="997.8384"/>
    <line x1="383.6966" x2="374.6257" y1="999.8542" y2="999.8542"/>
    <line x1="374.6257" x2="383.6966" y1="1001.8699" y2="1001.8699"/>
    <polyline points="383.6966,1003.0807 383.6966,989.7755 374.6257,989.7755 374.6257,1003.0807"/>
    <polygon points="381.9494,1002.2964 384.4528,1003.5988 386.1304,1005.5753 386.7202,1007.9172 371.6021,1007.9172 372.0811,1005.7988 373.6591,1003.7706 376.0958,1002.3895 379.0109,1001.8711"/>
    <polygon points="405.7689,1005.5753 407.4464,1003.5988 409.9498,1002.2964 412.5878,1001.8711 415.5263,1002.2964 418.0297,1003.5988 419.7072,1005.5753 420.2971,1007.9172 405.179,1007.9172"/>
    <polyline points="408.2026,1003.0807 408.2026,989.7755 417.2735,989.7755"/>
    <line x1="417.2735" x2="408.2026" y1="991.7912" y2="991.7912"/>
    <polyline points="408.2026,989.7755 417.2735,989.7755 417.2735,1003.0807"/>
    <line x1="417.2735" x2="408.2026" y1="1001.8699" y2="1001.8699"/>
    <line x1="408.2026" x2="417.2735" y1="999.8542" y2="999.8542"/>
    <line x1="417.2735" x2="408.2026" y1="997.8384" y2="997.8384"/>
    <line x1="408.2026" x2="417.2735" y1="995.8227" y2="995.8227"/>
    <line x1="417.2735" x2="408.2026" y1="993.807" y2="993.807"/>
    <polyline points="398.9732,970.5887 398.7652,972.383 398.2704,973.6241 397.4032,974.6218 396.1172,975.1179 394.8019,974.8203 393.8219,973.9233 393.134,972.383 392.926,970.5887"/>
    <polygon points="386.9527,965.0955 387.1121,965.792 386.5418,966.8911 386.0526,966.8303 385.6914,966.3316 385.6914,965.2523 386.2938,964.662"/>
    <polygon points="386.3565,965.2495 386.3565,966.3344"/>
    <polygon points="404.8782,966.3316 404.8782,965.2523 405.4806,964.662 406.1395,965.0955 406.2989,965.792 405.7286,966.8911 405.2394,966.8303"/>
    <polygon points="405.5433,966.3344 405.5433,965.2495"/>
    <polygon points="418.0984,956.5921 419.4323,960.9164 419.9331,965.792 419.4323,970.6675 418.0984,974.9919 415.7657,979.3023 412.8751,982.7842 409.3819,985.6611 405.0622,987.9768 400.362,989.3661 395.8552,989.7753 391.3517,989.3306 387.0119,988.0479 382.6742,985.7662 379.1585,982.9169 376.0278,979.1459 373.8739,975.166 372.4293,970.4825 371.9669,965.9808 372.3583,961.4724 373.7291,956.7668 376.0278,952.438 378.8909,948.9335 382.3613,946.0292 386.6626,943.6796 390.9816,942.3287 395.8552,941.8087 400.362,942.2179 405.0622,943.6071 409.3819,945.9228 412.8751,948.7997 415.7657,952.2816"/>
    <polyline points="426.9392,959.8718 426.9392,955.6125 419.9331,955.6125 419.9331,975.9714 426.9392,975.9714 426.9392,971.7121 435.6728,971.5268 441.6919,971.0133 447.032,970.0063 451.8334,968.2593 455.06,966.2798 456.9593,964.6023 458.5948,962.6634 460.4952,959.379 461.7755,955.7769 462.5613,951.901 463.0955,943.1148 451.2552,943.1148 450.9684,949.2233 450.1471,953.3567 448.7609,956.03 446.6296,957.6238 443.1828,958.7576 439.0204,959.4051 426.9392,959.8718 426.9392,971.7121"/>
    <line x1="428.806" x2="428.7226" y1="971.7058" y2="959.8658"/>
    <line x1="432.0543" x2="432.3551" y1="959.8139" y2="971.6504"/>
    <line x1="435.6728" x2="435.0743" y1="971.5268" y2="959.7016"/>
    <line x1="437.783" x2="438.7781" y1="959.5219" y2="971.3203"/>
    <line x1="441.6919" x2="440.1793" y1="971.0133" y2="959.27"/>
    <line x1="442.2608" x2="444.4361" y1="958.9457" y2="970.5844"/>
    <line x1="447.032" x2="444.0257" y1="970.0063" y2="958.554"/>
    <line x1="445.4771" x2="449.4961" y1="958.1073" y2="969.2447"/>
    <line x1="451.8334" x2="446.6296" y1="968.2593" y2="957.6238"/>
    <line x1="447.5186" x2="454.028" y1="957.1206" y2="967.011"/>
    <line x1="456.0395" x2="448.2041" y1="965.4762" y2="956.5993"/>
    <line x1="448.7609" x2="457.8127" y1="956.03" y2="963.6627"/>
    <line x1="459.3025" x2="449.2538" y1="961.6118" y2="955.3495"/>
    <line x1="449.7158" x2="460.4952" y1="954.4802" y2="959.379"/>
    <line x1="461.4104" x2="450.1471" y1="957.0078" y2="953.3567"/>
    <line x1="450.5295" x2="462.0858" y1="951.9386" y2="954.5164"/>
    <line x1="462.5613" x2="450.8426" y1="951.901" y2="950.2078"/>
    <line x1="451.0719" x2="462.8711" y1="948.1595" y2="949.1444"/>
    <line x1="463.0423" x2="451.2098" y1="946.2236" y2="945.7946"/>
    <line x1="451.2552" x2="463.0955" y1="943.1148" y2="943.1148"/>
    <line x1="575.5788" x2="580.5739" y1="943.1148" y2="943.1148"/>
    <line x1="580.6216" x2="575.6298" y1="945.9186" y2="946.0996"/>
    <line x1="575.7914" x2="580.7692" y1="948.8597" y2="948.4442"/>
    <line x1="581.0217" x2="576.0779" y1="950.6972" y2="951.4116"/>
    <line x1="576.5065" x2="581.3818" y1="953.7712" y2="952.6837"/>
    <line x1="581.8489" x2="577.0972" y1="954.4121" y2="955.9524"/>
    <line x1="577.8725" x2="582.42" y1="957.963" y2="955.8963"/>
    <line x1="583.0933" x2="578.854" y1="957.1597" y2="959.8016"/>
    <line x1="580.0556" x2="583.8743" y1="961.4563" y2="958.2363"/>
    <line x1="584.7828" x2="581.4772" y1="959.1653" y2="962.9102"/>
    <line x1="583.1054" x2="585.8516" y1="964.152" y2="959.9795"/>
    <line x1="587.118" x2="584.9226" y1="960.6981" y2="965.1849"/>
    <line x1="586.9174" x2="588.613" y1="966.0252" y2="961.3267"/>
    <line x1="590.3571" x2="589.0888" y1="961.8645" y2="966.6959"/>
    <line x1="591.4445" x2="592.3622" y1="967.2201" y2="962.31"/>
    <line x1="594.6352" x2="593.9971" y1="962.6646" y2="967.6188"/>
    <line x1="596.7613" x2="597.1811" y1="967.9098" y2="962.9324"/>
    <line x1="600.0045" x2="599.752" y1="963.1199" y2="968.1086"/>
    <line x1="602.9836" x2="603.1105" y1="968.2288" y2="963.2354"/>
    <line x1="606.5051" x2="606.4699" y1="963.2883" y2="968.2833"/>
    <polyline points="608.3126,968.2895 608.3126,963.2944 600.0045,963.1199 593.4649,962.4985 588.613,961.3267 585.2947,959.5852 583.0933,957.1597 581.6021,953.5795 580.8821,949.6044 580.5739,943.1148 575.5788,943.1148 576.0779,951.4116 577.4603,956.9788 578.854,959.8016 580.0556,961.4563 583.1054,964.152 586.9174,966.0252 592.6953,967.4339 599.752,968.1086 608.3126,968.2895 608.3126,970.9767 616.128,970.9767 616.128,960.6072 608.3126,960.6072 608.3126,963.2944"/>
    <polyline points="616.128,965.792 616.569,960.9283 617.8767,956.2553 619.9978,951.971 622.6034,948.5124 626.0201,945.4462 629.605,943.3494 633.8072,941.9592 637.836,941.5373 642.1963,942.0307 646.3791,943.4923 649.9349,945.6499 653.3094,948.7739 656.0535,952.5913 657.9299,956.5964 659.1736,961.2911 659.5507,965.792"/>
    <polyline points="659.5507,970.9767 659.5507,1015.0494 616.128,1015.0494 616.128,970.9767"/>
    <polygon points="628.49,966.3316 628.49,965.2523 629.0924,964.662 629.7514,965.0955 629.9107,965.792 629.3404,966.8911 628.8512,966.8303"/>
    <polygon points="629.1551,966.3344 629.1551,965.2495"/>
    <polyline points="634.8158,975.6435 635.0238,977.4378 635.7116,978.9781 636.6917,979.8751 638.007,980.1727 639.293,979.6766 640.1601,978.6789 640.655,977.4378 640.863,975.6435"/>
    <polygon points="646.5242,966.3344 646.5242,965.2495"/>
    <polygon points="647.2798,965.792 646.7095,966.8911 646.2203,966.8303 645.8591,966.3316 645.8591,965.2523 646.4615,964.662 647.1204,965.0955"/>
    <polyline points="667.3661,963.2944 667.3661,960.6072 659.5507,960.6072 659.5507,970.9767 667.3661,970.9767 667.3661,968.2895 675.9268,968.1086 682.9835,967.4339 688.7613,966.0252 692.5733,964.152 695.6231,961.4563 696.8247,959.8016 698.2184,956.9788 699.6008,951.4116 700.0999,943.1148 695.1048,943.1148 694.7967,949.6044 694.0767,953.5795 692.5855,957.1597 690.384,959.5852 687.0658,961.3267 682.2139,962.4985 675.6743,963.1199 667.3661,963.2944 667.3661,968.2895"/>
    <line x1="669.2089" x2="669.1736" y1="968.2833" y2="963.2883"/>
    <line x1="672.5682" x2="672.6951" y1="963.2354" y2="968.2288"/>
    <line x1="675.9268" x2="675.6743" y1="968.1086" y2="963.1199"/>
    <line x1="678.4977" x2="678.9175" y1="962.9324" y2="967.9098"/>
    <line x1="681.6817" x2="681.0435" y1="967.6188" y2="962.6646"/>
    <line x1="683.3166" x2="684.2343" y1="962.31" y2="967.2201"/>
    <line x1="686.5899" x2="685.3217" y1="966.6959" y2="961.8645"/>
    <line x1="687.0658" x2="688.7613" y1="961.3267" y2="966.0252"/>
    <line x1="690.7561" x2="688.5608" y1="965.1849" y2="960.6981"/>
    <line x1="689.8272" x2="692.5733" y1="959.9795" y2="964.152"/>
    <line x1="694.2015" x2="690.896" y1="962.9102" y2="959.1653"/>
    <line x1="691.8044" x2="695.6231" y1="958.2363" y2="961.4563"/>
    <line x1="696.8247" x2="692.5855" y1="959.8016" y2="957.1597"/>
    <line x1="693.2587" x2="697.8062" y1="955.8963" y2="957.963"/>
    <line x1="698.5816" x2="693.8299" y1="955.9524" y2="954.4121"/>
    <line x1="694.297" x2="699.1722" y1="952.6837" y2="953.7712"/>
    <line x1="699.6008" x2="694.6571" y1="951.4116" y2="950.6972"/>
    <line x1="694.9096" x2="699.8874" y1="948.4442" y2="948.8597"/>
    <line x1="700.0489" x2="695.0571" y1="946.0996" y2="945.9186"/>
    <line x1="695.1048" x2="700.0999" y1="943.1148" y2="943.1148"/>
    <line x1="657.5727" x2="648.5019" y1="1017.0652" y2="1017.0652"/>
    <line x1="648.5019" x2="657.5727" y1="1019.0809" y2="1019.0809"/>
    <line x1="657.5727" x2="648.5019" y1="1021.0967" y2="1021.0967"/>
    <line x1="648.5019" x2="657.5727" y1="1023.1124" y2="1023.1124"/>
    <line x1="657.5727" x2="648.5019" y1="1025.1282" y2="1025.1282"/>
    <line x1="648.5019" x2="657.5727" y1="1027.1439" y2="1027.1439"/>
    <polyline points="657.5727,1028.3546 657.5727,1015.0494 648.5019,1015.0494 648.5019,1028.3546"/>
    <polygon points="660.0065,1030.8492 660.5964,1033.1911 645.4783,1033.1911 646.0681,1030.8492 647.5352,1029.0445 649.9719,1027.6635 652.887,1027.1451 655.8256,1027.5703 658.329,1028.8728"/>
    <polygon points="629.6106,1030.8492 630.2005,1033.1911 615.0824,1033.1911 615.6723,1030.8492 617.1394,1029.0445 619.5761,1027.6635 622.4912,1027.1451 625.4297,1027.5703 627.9331,1028.8728"/>
    <polyline points="627.1769,1028.3546 627.1769,1015.0494 618.106,1015.0494 618.106,1028.3546"/>
    <line x1="618.106" x2="627.1769" y1="1027.1439" y2="1027.1439"/>
    <line x1="627.1769" x2="618.106" y1="1025.1282" y2="1025.1282"/>
    <line x1="618.106" x2="627.1769" y1="1023.1124" y2="1023.1124"/>
    <line x1="627.1769" x2="618.106" y1="1021.0967" y2="1021.0967"/>
    <line x1="618.106" x2="627.1769" y1="1019.0809" y2="1019.0809"/>
    <line x1="627.1769" x2="618.106" y1="1017.0652" y2="1017.0652"/>
    <polyline points="619.5543,809.6638 619.5543,796.3586 605.2387,796.3586 605.2387,711.9183 670.4401,711.9183 670.4401,761.94 675.2658,761.94 675.2658,758.6367 685.4834,758.3626 692.5015,757.5332 698.4562,755.8184 702.5247,753.4954 705.7707,750.1747 707.0075,748.1923 708.3845,744.9158 709.6487,738.7298 710.0004,731.4613 701.0038,731.4613 700.7081,737.7281 699.8263,742.1416 698.1746,745.293 695.5811,747.2474 692.7134,748.2757 688.6876,749.0267 683.4728,749.4681 675.2658,749.6401 675.2658,758.6367"/>
    <line x1="677.1227" x2="677.0592" y1="758.6304" y2="749.634"/>
    <polyline points="675.2658,749.6401 675.2658,746.3368 670.4401,746.3368"/>
    <line x1="680.4171" x2="680.6457" y1="749.5817" y2="758.5754"/>
    <line x1="683.9276" x2="683.4728" y1="758.4532" y2="749.4681"/>
    <line x1="686.2292" x2="686.9853" y1="749.2851" y2="758.2499"/>
    <line x1="689.837" x2="688.6876" y1="757.9496" y2="749.0267"/>
    <line x1="690.8487" x2="692.5015" y1="748.6898" y2="757.5332"/>
    <line x1="694.9976" x2="692.7134" y1="756.9775" y2="748.2757"/>
    <line x1="694.2864" x2="697.3401" y1="747.7912" y2="756.2537"/>
    <line x1="699.5351" x2="695.5811" y1="755.3285" y2="747.2474"/>
    <line x1="696.6269" x2="701.573" y1="746.6547" y2="754.1697"/>
    <line x1="703.4252" x2="697.4717" y1="752.7566" y2="746.0117"/>
    <line x1="698.1746" x2="705.0524" y1="745.293" y2="751.0925"/>
    <line x1="706.4224" x2="698.7872" y1="749.2063" y2="744.4479"/>
    <line x1="699.337" x2="707.5274" y1="743.4149" y2="747.1372"/>
    <line x1="708.3845" x2="699.8263" y1="744.9158" y2="742.1416"/>
    <line x1="700.2439" x2="709.0247" y1="740.5946" y2="742.5533"/>
    <line x1="709.4807" x2="700.5766" y1="740.0441" y2="738.7576"/>
    <line x1="700.8155" x2="709.7809" y1="736.6242" y2="737.3725"/>
    <line x1="709.9481" x2="700.9574" y1="734.5185" y2="734.1925"/>
    <line x1="701.0038" x2="710.0004" y1="731.4613" y2="731.4613"/>
    <polyline points="670.4401,761.94 670.4401,796.3586 656.1244,796.3586 656.1244,809.6638"/>
    <line x1="656.1244" x2="665.1953" y1="808.4531" y2="808.4531"/>
    <polyline points="665.1953,809.6638 665.1953,796.3586 610.4835,796.3586 610.4835,809.6638"/>
    <line x1="610.4835" x2="619.5543" y1="808.4531" y2="808.4531"/>
    <line x1="619.5543" x2="610.4835" y1="806.4373" y2="806.4373"/>
    <line x1="610.4835" x2="619.5543" y1="804.4216" y2="804.4216"/>
    <line x1="619.5543" x2="610.4835" y1="802.4058" y2="802.4058"/>
    <line x1="610.4835" x2="619.5543" y1="800.3901" y2="800.3901"/>
    <line x1="619.5543" x2="610.4835" y1="798.3743" y2="798.3743"/>
    <polygon points="611.9535,808.9726 614.8686,808.4543 617.8072,808.8795 620.3106,810.182 621.9881,812.1584 622.578,814.5003 607.4598,814.5003 607.9388,812.3819 609.5168,810.3537"/>
    <line x1="656.1244" x2="665.1953" y1="806.4373" y2="806.4373"/>
    <line x1="665.1953" x2="656.1244" y1="804.4216" y2="804.4216"/>
    <line x1="656.1244" x2="665.1953" y1="802.4058" y2="802.4058"/>
    <line x1="665.1953" x2="656.1244" y1="800.3901" y2="800.3901"/>
    <line x1="656.1244" x2="665.1953" y1="798.3743" y2="798.3743"/>
    <polygon points="663.4481,808.8795 665.9515,810.182 667.629,812.1584 668.2189,814.5003 653.1008,814.5003 653.6907,812.1584 655.1578,810.3537 657.5945,808.9726 660.5096,808.4543"/>
    <polyline points="640.863,762.5825 640.655,764.3768 640.1601,765.6179 639.293,766.6156 638.007,767.1117 636.6917,766.814 635.7116,765.9171 635.0238,764.3768 634.8158,762.5825"/>
    <polygon points="624.9847,755.2376 624.4955,755.1768 624.1343,754.6781 624.1343,753.5988 624.7367,753.0084 625.3956,753.442 625.555,754.1384"/>
    <polygon points="624.7994,753.596 624.7994,754.6809"/>
    <polyline points="600.4129,749.6401 600.4129,746.3368 605.2387,746.3368 605.2387,761.94 600.4129,761.94 600.4129,758.6367 591.7512,758.4532 585.8418,757.9496 580.6811,756.9775 576.1436,755.3285 573.1541,753.4954 571.4094,751.9547 569.908,750.1747 568.1514,747.1372 566.9491,743.7522 566.1981,740.0441 565.6784,731.4613 574.675,731.4613 574.9707,737.7281 575.8524,742.1416 577.5042,745.293 580.0976,747.2474 582.9654,748.2757 586.9911,749.0267 592.2059,749.4681 600.4129,749.6401 600.4129,758.6367"/>
    <line x1="598.5561" x2="598.6195" y1="758.6304" y2="749.634"/>
    <line x1="595.2617" x2="595.0331" y1="749.5817" y2="758.5754"/>
    <line x1="591.7512" x2="592.2059" y1="758.4532" y2="749.4681"/>
    <line x1="589.4495" x2="588.6934" y1="749.2851" y2="758.2499"/>
    <line x1="585.8418" x2="586.9911" y1="757.9496" y2="749.0267"/>
    <line x1="584.8301" x2="583.1772" y1="748.6898" y2="757.5332"/>
    <line x1="580.6811" x2="582.9654" y1="756.9775" y2="748.2757"/>
    <line x1="581.3924" x2="578.3386" y1="747.7912" y2="756.2537"/>
    <line x1="576.1436" x2="580.0976" y1="755.3285" y2="747.2474"/>
    <line x1="579.0518" x2="574.1058" y1="746.6547" y2="754.1697"/>
    <line x1="572.2535" x2="578.2071" y1="752.7566" y2="746.0117"/>
    <line x1="577.5042" x2="570.6263" y1="745.293" y2="751.0925"/>
    <line x1="569.2563" x2="576.8916" y1="749.2063" y2="744.4479"/>
    <line x1="576.3418" x2="568.1514" y1="743.4149" y2="747.1372"/>
    <line x1="567.2942" x2="575.8524" y1="744.9158" y2="742.1416"/>
    <line x1="575.4349" x2="566.654" y1="740.5946" y2="742.5533"/>
    <line x1="566.1981" x2="575.1022" y1="740.0441" y2="738.7576"/>
    <line x1="574.8633" x2="565.8979" y1="736.6242" y2="737.3725"/>
    <line x1="565.7307" x2="574.7214" y1="734.5185" y2="734.1925"/>
    <line x1="574.675" x2="565.6784" y1="731.4613" y2="731.4613"/>
    <polygon points="650.2148,753.5988 650.8172,753.0084 651.4762,753.442 651.6356,754.1384 651.0652,755.2376 650.576,755.1768 650.2148,754.6781"/>
    <polygon points="650.8799,754.6809 650.8799,753.596"/>
    <polygon points="613.466,584.6471 614.0558,582.3052 615.523,580.5005 617.9596,579.1194 620.8747,578.6011 623.8133,579.0263 626.3167,580.3288 627.9942,582.3052 628.5841,584.6471"/>
    <polyline points="616.4896,579.8106 616.4896,566.5054 625.5605,566.5054 625.5605,579.8106"/>
    <line x1="625.5605" x2="616.4896" y1="578.5999" y2="578.5999"/>
    <line x1="616.4896" x2="625.5605" y1="576.5841" y2="576.5841"/>
    <line x1="625.5605" x2="616.4896" y1="574.5684" y2="574.5684"/>
    <line x1="616.4896" x2="625.5605" y1="572.5526" y2="572.5526"/>
    <line x1="625.5605" x2="616.4896" y1="570.5369" y2="570.5369"/>
    <line x1="616.4896" x2="625.5605" y1="568.5211" y2="568.5211"/>
    <line x1="625.5605" x2="616.4896" y1="566.5054" y2="566.5054"/>
    <polygon points="632.9683,566.0063 628.6471,564.6769 624.3379,562.3518 620.8543,559.4699 617.7629,555.6727 615.6473,551.6771 614.318,547.3559 613.8189,542.4849 614.318,537.6138 615.6473,533.2926 617.7629,529.2971 620.8543,525.4998 624.6516,522.4084 628.6471,520.2928 632.9683,518.9635 637.8394,518.4644 642.7104,518.9635 647.0316,520.2928 651.0272,522.4084 654.8244,525.4998 657.9159,529.2971 660.0314,533.2926 661.3608,537.6138 661.8599,542.4849 661.3608,547.3559 660.0314,551.6771 657.9159,555.6727 654.8244,559.4699 651.0272,562.5614 647.0316,564.6769 642.7104,566.0063 637.8394,566.5054"/>
    <polyline points="650.1183,566.5054 659.1891,566.5054 659.1891,579.8106"/>
    <line x1="659.1891" x2="650.1183" y1="578.5999" y2="578.5999"/>
    <polyline points="650.1183,579.8106 650.1183,566.5054 659.1891,566.5054"/>
    <line x1="659.1891" x2="650.1183" y1="568.5211" y2="568.5211"/>
    <line x1="650.1183" x2="659.1891" y1="570.5369" y2="570.5369"/>
    <line x1="659.1891" x2="650.1183" y1="572.5526" y2="572.5526"/>
    <line x1="650.1183" x2="659.1891" y1="574.5684" y2="574.5684"/>
    <line x1="659.1891" x2="650.1183" y1="576.5841" y2="576.5841"/>
    <polygon points="651.5883,579.1194 654.5034,578.6011 657.442,579.0263 659.9454,580.3288 661.6229,582.3052 662.2128,584.6471 647.0947,584.6471 647.6845,582.3052 649.1516,580.5005"/>
    <polyline points="640.863,547.289 640.655,549.0833 640.1601,550.3244 639.293,551.3221 638.007,551.8182 636.6917,551.5206 635.7116,550.6236 635.0238,549.0833 634.8158,547.289"/>
    <polygon points="628.2315,543.0273 628.2315,541.9425"/>
    <polygon points="628.1688,541.3549 628.8277,541.7885 628.9871,542.4849 628.4167,543.584 627.9275,543.5232 627.5664,543.0245 627.5664,541.9452"/>
    <line x1="612.0108" x2="611.9767" y1="540.0581" y2="544.8993"/>
    <line x1="608.4918" x2="608.6149" y1="544.8449" y2="540.0051"/>
    <line x1="605.5069" x2="605.2621" y1="539.8895" y2="544.7247"/>
    <line x1="602.274" x2="602.6809" y1="544.5261" y2="539.7019"/>
    <line x1="600.1317" x2="599.5132" y1="539.4338" y2="544.2354"/>
    <line x1="596.9649" x2="597.8543" y1="543.8374" y2="539.0785"/>
    <line x1="595.8438" x2="594.6146" y1="538.6317" y2="543.3144"/>
    <line x1="592.4498" x2="594.0931" y1="542.6458" y2="538.092"/>
    <line x1="592.5905" x2="590.4627" y1="537.4601" y2="541.8088"/>
    <line x1="588.654" x2="591.3156" y1="540.7807" y2="536.7367"/>
    <line x1="590.2382" x2="587.0344" y1="535.9158" y2="539.5454"/>
    <line x1="585.6207" x2="589.3218" y1="538.0997" y2="534.9788"/>
    <line x1="588.5343" x2="584.4256" y1="533.8933" y2="536.4538"/>
    <polygon points="584.9954,537.3008 587.8195,540.1895 591.4342,542.2498 596.9649,543.8374 603.7388,544.636 613.8189,544.9055 613.8189,540.0642 605.5069,539.8895 598.9593,539.2674 594.0931,538.092 590.7544,536.3392 588.5343,533.8933 587.0342,530.2925 586.312,526.3059 586.0033,519.8077 581.162,519.8077 581.5007,526.845 582.6766,532.6216 583.9105,535.561"/>
    <line x1="583.4488" x2="587.8563" y1="534.6241" y2="532.621"/>
    <line x1="587.282" x2="582.6766" y1="531.1287" y2="532.6216"/>
    <line x1="582.0878" x2="586.813" y1="530.4474" y2="529.3934"/>
    <line x1="586.4519" x2="581.6603" y1="527.4011" y2="528.0935"/>
    <line x1="581.3743" x2="586.1988" y1="525.5462" y2="525.1435"/>
    <line x1="586.0511" x2="581.2129" y1="522.6143" y2="522.7897"/>
    <line x1="581.162" x2="586.0033" y1="519.8077" y2="519.8077"/>
    <polygon points="647.3851,541.3549 648.0441,541.7885 648.2035,542.4849 647.6331,543.584 647.1439,543.5232 646.7828,543.0245 646.7828,541.9452"/>
    <polygon points="647.4479,543.0273 647.4479,541.9425"/>
    <line x1="663.702" x2="663.6679" y1="544.8993" y2="540.0581"/>
    <line x1="667.0639" x2="667.1869" y1="540.0051" y2="544.8449"/>
    <line x1="670.4166" x2="670.1719" y1="544.7247" y2="539.8895"/>
    <line x1="672.9978" x2="673.4047" y1="539.7019" y2="544.5261"/>
    <line x1="676.1656" x2="675.5471" y1="544.2354" y2="539.4338"/>
    <line x1="677.8244" x2="678.7139" y1="539.0785" y2="543.8374"/>
    <line x1="681.0641" x2="679.8349" y1="543.3144" y2="538.6317"/>
    <line x1="681.5856" x2="683.2289" y1="538.092" y2="542.6458"/>
    <line x1="685.216" x2="683.0883" y1="541.8088" y2="537.4601"/>
    <line x1="684.3632" x2="687.0248" y1="536.7367" y2="540.7807"/>
    <line x1="688.6444" x2="685.4406" y1="539.5454" y2="535.9158"/>
    <line x1="686.3569" x2="690.0581" y1="534.9788" y2="538.0997"/>
    <line x1="691.2532" x2="687.1444" y1="536.4538" y2="533.8933"/>
    <line x1="687.8224" x2="692.23" y1="532.621" y2="534.6241"/>
    <line x1="693.0021" x2="688.3967" y1="532.6216" y2="531.1287"/>
    <line x1="688.8657" x2="693.5909" y1="529.3934" y2="530.4474"/>
    <line x1="694.0184" x2="689.2269" y1="528.0935" y2="527.4011"/>
    <line x1="689.4799" x2="694.3045" y1="525.1435" y2="525.5462"/>
    <line x1="694.4658" x2="689.6277" y1="522.7897" y2="522.6143"/>
    <line x1="689.6754" x2="694.5167" y1="519.8077" y2="519.8077"/>
    <polygon points="694.5167,519.8077 694.178,526.845 693.0021,532.6216 691.7683,535.561 690.6833,537.3008 687.8592,540.1895 684.2445,542.2498 678.7139,543.8374 671.94,544.636 661.8599,544.9055 661.8599,540.0642 670.1719,539.8895 676.7195,539.2674 681.5856,538.092 684.9243,536.3392 687.1444,533.8933 688.6446,530.2925 689.3668,526.3059 689.6754,519.8077"/>
    <polygon points="642.8734,393.2413 643.4632,390.8994 645.1408,388.923 647.367,387.7136 650.2821,387.1953 653.2207,387.6205 655.7241,388.923 657.4016,390.8994 657.9915,393.2413"/>
    <polyline points="645.897,388.4048 645.897,375.0996 654.9679,375.0996 654.9679,388.4048"/>
    <line x1="654.9679" x2="645.897" y1="387.1941" y2="387.1941"/>
    <line x1="645.897" x2="654.9679" y1="385.1783" y2="385.1783"/>
    <line x1="654.9679" x2="645.897" y1="383.1626" y2="383.1626"/>
    <line x1="645.897" x2="654.9679" y1="381.1468" y2="381.1468"/>
    <line x1="654.9679" x2="645.897" y1="379.1311" y2="379.1311"/>
    <line x1="645.897" x2="654.9679" y1="377.1153" y2="377.1153"/>
    <line x1="629.7817" x2="620.7109" y1="377.1153" y2="377.1153"/>
    <line x1="620.7109" x2="629.7817" y1="379.1311" y2="379.1311"/>
    <line x1="629.7817" x2="620.7109" y1="381.1468" y2="381.1468"/>
    <line x1="620.7109" x2="629.7817" y1="383.1626" y2="383.1626"/>
    <line x1="629.7817" x2="620.7109" y1="385.1783" y2="385.1783"/>
    <line x1="620.7109" x2="629.7817" y1="387.1941" y2="387.1941"/>
    <polyline points="629.7817,388.4048 629.7817,375.0996 619.8493,375.0996 619.8493,333.6253 609.7445,333.355 602.9267,332.5508 597.3199,330.9404 593.6236,328.8329 590.7237,325.8665 589.6115,324.0832 588.3519,321.0831 587.1601,315.233 586.8191,308.1542 592.407,308.1542 592.7133,314.6108 593.4249,318.5415 594.8815,322.0423 597.0111,324.3888 600.2503,326.0873 605.0472,327.245 611.5561,327.8632 619.8493,328.0374 619.8493,333.6253"/>
    <line x1="618.0045" x2="618.0439" y1="333.6191" y2="328.0312"/>
    <polyline points="619.8493,330.8313 620.2147,325.9637 621.2982,321.287 622.8981,317.3111 625.2148,313.5378 628.0459,310.4691 631.0163,308.3706 634.2238,307.0523 637.8366,306.557 641.4495,307.0508 644.6573,308.3678 647.8618,310.6729 650.6579,313.7995 652.9317,317.62 654.4864,321.6284 655.517,326.3269 655.8295,330.8313"/>
    <polyline points="655.8295,333.6253 655.8295,328.0374 664.1226,327.8632 670.6315,327.245 675.4285,326.0873 678.6676,324.3888 680.7972,322.0423 682.2538,318.5415 682.9654,314.6108 683.2717,308.1542 688.8597,308.1542 688.5186,315.233 687.3269,321.0831 686.0673,324.0832 684.955,325.8665 682.0551,328.8329 678.3589,330.9404 672.7521,332.5508 665.9343,333.355 655.8295,333.6253 655.8295,375.0996 620.7109,375.0996 620.7109,388.4048"/>
    <polygon points="630.538,388.923 632.2155,390.8994 632.8054,393.2413 617.6873,393.2413 618.2771,390.8994 619.9547,388.923 622.1809,387.7136 625.096,387.1953 628.0346,387.6205"/>
    <polyline points="634.8158,339.685 635.0238,341.4793 635.7116,343.0196 636.6917,343.9166 638.007,344.2142 639.293,343.7182 640.1601,342.7204 640.655,341.4793 640.863,339.685"/>
    <polygon points="645.0357,331.3738 645.0357,330.2889"/>
    <polygon points="645.4489,329.8821 645.7913,330.8313 645.221,331.9305 644.7318,331.8697 644.3706,331.371 644.3706,330.2917 644.973,329.7014"/>
    <line x1="657.6349" x2="657.6743" y1="328.0312" y2="333.6191"/>
    <line x1="661.166" x2="661.024" y1="333.5645" y2="327.9784"/>
    <line x1="664.1226" x2="664.4051" y1="327.8632" y2="333.444"/>
    <line x1="667.4057" x2="666.9361" y1="333.2445" y2="327.6763"/>
    <line x1="669.469" x2="670.1829" y1="327.41" y2="332.9521"/>
    <line x1="672.7521" x2="671.7254" y1="332.5508" y2="327.058"/>
    <line x1="673.7098" x2="675.1285" y1="326.6171" y2="332.022"/>
    <line x1="677.3253" x2="675.4285" y1="331.3434" y2="326.0873"/>
    <line x1="676.8938" x2="679.3497" y1="325.4712" y2="330.4906"/>
    <line x1="681.1996" x2="678.1275" y1="329.439" y2="324.7713"/>
    <line x1="679.1632" x2="682.861" y1="323.9824" y2="328.1718"/>
    <line x1="684.3131" x2="680.0411" y1="326.6868" y2="323.0846"/>
    <line x1="680.7972" x2="685.5396" y1="322.0423" y2="324.9977"/>
    <line x1="686.5394" x2="681.4522" y1="323.125" y2="320.813"/>
    <line x1="682.0112" x2="687.3269" y1="319.36" y2="321.0831"/>
    <line x1="687.9249" x2="682.471" y1="318.8751" y2="317.6586"/>
    <line x1="682.827" x2="688.3575" y1="315.6942" y2="316.4933"/>
    <line x1="688.6461" x2="683.0775" y1="313.9237" y2="313.4589"/>
    <line x1="683.2242" x2="688.8085" y1="310.9472" y2="311.1497"/>
    <line x1="688.8597" x2="683.2717" y1="308.1542" y2="308.1542"/>
    <polygon points="630.5809,329.7014 631.0568,329.8821 631.3992,330.8313 630.8289,331.9305 630.3397,331.8697 629.9785,331.371 629.9785,330.2917"/>
    <polygon points="630.6436,330.2889 630.6436,331.3738"/>
    <line x1="614.6547" x2="614.5128" y1="327.9784" y2="333.5645"/>
    <line x1="611.2737" x2="611.5561" y1="333.444" y2="327.8632"/>
    <line x1="608.7427" x2="608.273" y1="327.6763" y2="333.2445"/>
    <line x1="605.4959" x2="606.2098" y1="332.9521" y2="327.41"/>
    <line x1="603.9533" x2="602.9267" y1="327.058" y2="332.5508"/>
    <line x1="600.5502" x2="601.969" y1="332.022" y2="326.6171"/>
    <line x1="600.2503" x2="598.3535" y1="326.0873" y2="331.3434"/>
    <line x1="596.329" x2="598.7849" y1="330.4906" y2="325.4712"/>
    <line x1="597.5512" x2="594.4791" y1="324.7713" y2="329.439"/>
    <line x1="592.8177" x2="596.5156" y1="328.1718" y2="323.9824"/>
    <line x1="595.6376" x2="591.3657" y1="323.0846" y2="326.6868"/>
    <line x1="590.1391" x2="594.8815" y1="324.9977" y2="322.0423"/>
    <line x1="594.2266" x2="589.1393" y1="320.813" y2="323.125"/>
    <line x1="588.3519" x2="593.6675" y1="321.0831" y2="319.36"/>
    <line x1="593.2078" x2="587.7539" y1="317.6586" y2="318.8751"/>
    <line x1="587.3212" x2="592.8518" y1="316.4933" y2="315.6942"/>
    <line x1="592.6013" x2="587.0327" y1="313.4589" y2="313.9237"/>
    <line x1="586.8703" x2="592.4546" y1="311.1497" y2="310.9472"/>
    <line x1="592.407" x2="586.8191" y1="308.1542" y2="308.1542"/>
    <polygon points="626.8023,196.6807 611.6842,196.6807 612.274,194.3388 613.9516,192.3624 616.1778,191.153 619.0929,190.6347 622.0315,191.0599 624.5349,192.3624 626.2124,194.3388"/>
    <polyline points="623.7787,191.8442 623.7787,178.539 614.7078,178.539 614.7078,191.8442"/>
    <line x1="614.7078" x2="623.7787" y1="190.6335" y2="190.6335"/>
    <line x1="623.7787" x2="614.7078" y1="188.6177" y2="188.6177"/>
    <line x1="614.7078" x2="623.7787" y1="186.602" y2="186.602"/>
    <line x1="623.7787" x2="614.7078" y1="184.5862" y2="184.5862"/>
    <line x1="614.7078" x2="623.7787" y1="182.5705" y2="182.5705"/>
    <line x1="623.7787" x2="614.7078" y1="180.5547" y2="180.5547"/>
    <line x1="651.9001" x2="660.971" y1="180.5547" y2="180.5547"/>
    <line x1="660.971" x2="651.9001" y1="182.5705" y2="182.5705"/>
    <line x1="651.9001" x2="660.971" y1="184.5862" y2="184.5862"/>
    <line x1="660.971" x2="651.9001" y1="186.602" y2="186.602"/>
    <line x1="651.9001" x2="660.971" y1="188.6177" y2="188.6177"/>
    <line x1="660.971" x2="651.9001" y1="190.6335" y2="190.6335"/>
    <polyline points="651.9001,191.8442 651.9001,178.539 664.4053,178.539 664.4053,130.1034"/>
    <polyline points="664.4053,119.1778 663.8983,113.936 662.3964,108.8943 659.9572,104.2451 656.6737,100.166 652.6711,96.8126 648.1024,94.313 643.142,92.7625 637.9791,92.2204 632.8109,92.7074 627.8346,94.2048 623.2402,96.6555 619.2032,99.966 615.8775,104.0099 613.3903,108.6327 611.8363,113.6581 611.2734,119.1778"/>
    <polyline points="611.2734,130.1034 611.2734,178.539 660.971,178.539 660.971,191.8442"/>
    <polygon points="659.2238,191.0599 661.7272,192.3624 663.4047,194.3388 663.9946,196.6807 648.8765,196.6807 649.4663,194.3388 651.1439,192.3624 653.3701,191.153 656.2852,190.6347"/>
    <polyline points="640.863,131.05 640.655,132.8444 640.1601,134.0854 639.293,135.0832 638.007,135.5793 636.6917,135.2816 635.7116,134.3847 635.0238,132.8444 634.8158,131.05"/>
    <polygon points="627.2133,118.6354 627.2133,119.7202"/>
    <polygon points="626.5482,118.6381 627.1506,118.0478 627.6264,118.2286 627.9689,119.1778 627.3986,120.277 626.9094,120.2162 626.5482,119.7175"/>
    <polygon points="647.801,118.6381 648.4033,118.0478 648.8792,118.2286 649.2217,119.1778 648.6513,120.277 648.1621,120.2162 647.801,119.7175"/>
    <polygon points="648.466,118.6354 648.466,119.7202"/>
    <polyline points="674.1591,113.3267 674.1591,108.2521 664.4053,108.2521 664.4053,130.1034 674.1591,130.1034 674.1591,125.0289 684.4661,124.7518 691.6434,123.9024 697.8742,122.1047 702.2381,119.6106 705.7588,116.0087 707.0944,113.8682 708.5647,110.3723 709.8864,103.9198 710.2464,96.5006 698.5443,96.5006 698.257,102.6168 697.4328,106.7638 696.0337,109.4604 693.8799,111.0717 690.4178,112.2109 686.2476,112.8596 674.1591,113.3267 674.1591,125.0289"/>
    <line x1="676.0255" x2="675.943" y1="125.0225" y2="113.3207"/>
    <line x1="679.276" x2="679.5733" y1="113.2688" y2="124.9671"/>
    <line x1="682.8893" x2="682.2977" y1="124.8436" y2="113.1564"/>
    <line x1="685.0088" x2="685.9923" y1="112.9765" y2="124.6373"/>
    <line x1="688.9031" x2="687.4081" y1="124.3306" y2="112.7244"/>
    <line x1="689.4935" x2="691.6434" y1="112.3994" y2="123.9024"/>
    <line x1="694.2344" x2="691.2632" y1="123.3253" y2="112.0067"/>
    <line x1="692.7205" x2="696.6926" y1="111.5581" y2="122.5655"/>
    <line x1="699.023" x2="693.8799" y1="121.583" y2="111.0717"/>
    <line x1="694.7765" x2="701.21" y1="110.5641" y2="120.3391"/>
    <line x1="703.2137" x2="695.4698" y1="118.8102" y2="110.0369"/>
    <line x1="696.0337" x2="704.9799" y1="109.4604" y2="117.0039"/>
    <line x1="706.4638" x2="696.5324" y1="114.9611" y2="108.7718"/>
    <line x1="696.9987" x2="707.6522" y1="107.8946" y2="112.7363"/>
    <line x1="708.5647" x2="697.4328" y1="110.3723" y2="106.7638"/>
    <line x1="697.8169" x2="709.2383" y1="105.3395" y2="107.8872"/>
    <line x1="709.7128" x2="698.131" y1="105.277" y2="103.6035"/>
    <line x1="698.3607" x2="710.0222" y1="101.551" y2="102.5244"/>
    <line x1="710.1932" x2="698.4988" y1="99.6069" y2="99.1829"/>
    <line x1="698.5443" x2="710.2464" y1="96.5006" y2="96.5006"/>
    <polyline points="601.5196,113.3267 601.5196,108.2521 611.2734,108.2521 611.2734,130.1034 601.5196,130.1034 601.5196,125.0289 591.2126,124.7518 584.0354,123.9024 577.8046,122.1047 573.4407,119.6106 569.92,116.0087 568.5844,113.8682 567.1141,110.3723 565.7924,103.9198 565.4323,96.5006 577.1345,96.5006 577.4218,102.6168 578.246,106.7638 579.6451,109.4604 581.7989,111.0717 585.261,112.2109 589.4312,112.8596 601.5196,113.3267 601.5196,125.0289"/>
    <line x1="599.6533" x2="599.7358" y1="125.0225" y2="113.3207"/>
    <line x1="596.4028" x2="596.1054" y1="113.2688" y2="124.9671"/>
    <line x1="592.7895" x2="593.381" y1="124.8436" y2="113.1564"/>
    <line x1="590.6699" x2="589.6865" y1="112.9765" y2="124.6373"/>
    <line x1="586.7757" x2="588.2706" y1="124.3306" y2="112.7244"/>
    <line x1="586.1853" x2="584.0354" y1="112.3994" y2="123.9024"/>
    <line x1="581.4444" x2="584.4155" y1="123.3253" y2="112.0067"/>
    <line x1="582.9583" x2="578.9861" y1="111.5581" y2="122.5655"/>
    <line x1="576.6558" x2="581.7989" y1="121.583" y2="111.0717"/>
    <line x1="580.9023" x2="574.4688" y1="110.5641" y2="120.3391"/>
    <line x1="572.465" x2="580.209" y1="118.8102" y2="110.0369"/>
    <line x1="579.6451" x2="570.6989" y1="109.4604" y2="117.0039"/>
    <line x1="569.215" x2="579.1464" y1="114.9611" y2="108.7718"/>
    <line x1="578.6801" x2="568.0265" y1="107.8946" y2="112.7363"/>
    <line x1="567.1141" x2="578.246" y1="110.3723" y2="106.7638"/>
    <line x1="577.8619" x2="566.4404" y1="105.3395" y2="107.8872"/>
    <line x1="565.9659" x2="577.5478" y1="105.277" y2="103.6035"/>
    <line x1="577.3181" x2="565.6565" y1="101.551" y2="102.5244"/>
    <line x1="565.4855" x2="577.18" y1="99.6069" y2="99.1829"/>
    <line x1="577.1345" x2="565.4323" y1="96.5006" y2="96.5006"/>
    <line x1="458.0229" x2="450.6388" y1="96.5006" y2="96.5006"/>
    <line x1="450.5919" x2="457.9711" y1="99.2611" y2="99.5287"/>
    <line x1="457.8062" x2="450.4477" y1="102.3449" y2="101.7306"/>
    <line x1="450.2033" x2="457.5115" y1="103.9122" y2="104.9682"/>
    <line x1="457.0666" x2="449.8596" y1="107.4171" y2="105.8095"/>
    <line x1="449.4221" x2="456.4464" y1="107.4296" y2="109.7065"/>
    <line x1="455.6222" x2="448.8998" y1="111.843" y2="108.7879"/>
    <line x1="448.3002" x2="454.567" y1="109.9137" y2="113.8192"/>
    <line x1="453.2648" x2="447.6197" y1="115.6122" y2="110.8521"/>
    <line x1="446.834" x2="451.7205" y1="111.6555" y2="117.1915"/>
    <line x1="449.9585" x2="445.899" y1="118.5356" y2="112.3676"/>
    <line x1="444.7643" x2="448.0096" y1="113.011" y2="119.6437"/>
    <line x1="445.8953" x2="443.3888" y1="120.5347" y2="113.589"/>
    <line x1="441.7469" x2="443.6217" y1="114.0949" y2="121.2371"/>
    <line x1="441.1822" x2="439.8256" y1="121.7801" y2="114.5217"/>
    <line x1="437.6194" x2="438.5628" y1="114.8657" y2="122.1893"/>
    <line x1="435.7464" x2="435.1258" y1="122.4859" y2="115.1279"/>
    <line x1="432.3424" x2="432.7156" y1="115.3127" y2="122.6874"/>
    <line x1="429.454" x2="429.2664" y1="122.8088" y2="115.4271"/>
    <line x1="425.8937" x2="425.9458" y1="115.4796" y2="122.8636"/>
    <polyline points="424.0946,122.8699 424.0946,115.4857 432.3424,115.3127 437.6194,114.8657 441.7469,114.0949 445.3595,112.6973 446.834,111.6555 447.9711,110.4031 449.4221,107.4296 450.3381,102.8572 450.6388,96.5006 458.0229,96.5006 457.6763,103.6794 456.4464,109.7065 455.1249,112.8522 453.947,114.7405 450.8647,117.8936 446.9724,120.1146 441.1822,121.7801 434.2589,122.5975 424.0946,122.8699 424.0946,166.3861 371.7127,166.3861 367.8046,166.3861 367.8046,122.8699 357.6404,122.5975 350.717,121.7801 344.9269,120.1146 341.0345,117.8936 337.9522,114.7405 336.7744,112.8522 335.4529,109.7065 334.2229,103.6794 333.8763,96.5006 341.2604,96.5006 341.5611,102.8572 342.4772,107.4296 343.9282,110.4031 345.0652,111.6555 346.5397,112.6973 350.1523,114.0949 354.2798,114.8657 359.5568,115.3127 367.8046,115.4857 367.8046,122.8699"/>
    <line x1="365.9535" x2="366.0055" y1="122.8636" y2="115.4796"/>
    <line x1="362.6329" x2="362.4452" y1="115.4271" y2="122.8088"/>
    <line x1="359.1836" x2="359.5568" y1="122.6874" y2="115.3127"/>
    <line x1="356.7735" x2="356.1529" y1="115.1279" y2="122.4859"/>
    <line x1="353.3365" x2="354.2798" y1="122.1893" y2="114.8657"/>
    <line x1="352.0736" x2="350.717" y1="114.5217" y2="121.7801"/>
    <line x1="348.2775" x2="350.1523" y1="121.2371" y2="114.0949"/>
    <line x1="348.5104" x2="346.0039" y1="113.589" y2="120.5347"/>
    <line x1="343.8896" x2="347.1349" y1="119.6437" y2="113.011"/>
    <line x1="346.0003" x2="341.9407" y1="112.3676" y2="118.5356"/>
    <line x1="340.1787" x2="345.0652" y1="117.1915" y2="111.6555"/>
    <line x1="344.2795" x2="338.6344" y1="110.8521" y2="115.6122"/>
    <line x1="337.3322" x2="343.599" y1="113.8192" y2="109.9137"/>
    <line x1="342.9995" x2="336.277" y1="108.7879" y2="111.843"/>
    <line x1="335.4529" x2="342.4772" y1="109.7065" y2="107.4296"/>
    <line x1="342.0396" x2="334.8326" y1="105.8095" y2="107.4171"/>
    <line x1="334.3877" x2="341.6959" y1="104.9682" y2="103.9122"/>
    <line x1="341.4515" x2="334.093" y1="101.7306" y2="102.3449"/>
    <line x1="333.9281" x2="341.3073" y1="99.5287" y2="99.2611"/>
    <line x1="341.2604" x2="333.8763" y1="96.5006" y2="96.5006"/>
    <polyline points="367.8046,119.1778 368.3445,114.5775 369.9936,110.0527 372.6861,105.8947 376.0454,102.4925 380.102,99.6747 385.0602,97.416 390.456,96.032 396.0727,95.5783 401.3151,96.0108 406.7185,97.3739 411.3754,99.4384 415.7613,102.4152 419.3508,106.0658 421.8548,109.9518 423.529,114.4702 424.0946,119.1778"/>
    <polygon points="407.2079,119.7202 407.2079,118.6354"/>
    <polygon points="406.5428,118.6381 407.1452,118.0478 407.6211,118.2286 407.9635,119.1778 407.3932,120.277 406.904,120.2162 406.5428,119.7175"/>
    <polyline points="398.9732,128.6195 398.7652,130.4138 398.2704,131.6549 397.4032,132.6526 396.1172,133.1487 394.8019,132.8511 393.8219,131.9541 393.134,130.4138 392.926,128.6195"/>
    <polygon points="384.6919,118.6354 384.6919,119.7202"/>
    <polygon points="384.6292,118.0478 385.2881,118.4814 385.4475,119.1778 384.8772,120.277 384.388,120.2162 384.0268,119.7175 384.0268,118.6381"/>
    <line x1="380.7835" x2="371.7127" y1="168.4018" y2="168.4018"/>
    <line x1="371.7127" x2="380.7835" y1="170.4176" y2="170.4176"/>
    <line x1="380.7835" x2="371.7127" y1="172.4333" y2="172.4333"/>
    <line x1="371.7127" x2="380.7835" y1="174.4491" y2="174.4491"/>
    <line x1="380.7835" x2="371.7127" y1="176.4648" y2="176.4648"/>
    <line x1="371.7127" x2="380.7835" y1="178.4806" y2="178.4806"/>
    <polyline points="380.7835,179.6913 380.7835,166.3861 371.7127,166.3861 371.7127,179.6913"/>
    <polygon points="381.5398,180.2095 383.2173,182.1859 383.8072,184.5278 368.689,184.5278 369.2789,182.1859 370.9564,180.2095 373.1827,179.0001 376.0978,178.4818 379.0364,178.907"/>
    <polygon points="410.3595,180.2095 412.5857,179.0001 415.5008,178.4818 418.4394,178.907 420.9428,180.2095 422.6203,182.1859 423.2102,184.5278 408.0921,184.5278 408.6819,182.1859"/>
    <polyline points="411.1157,179.6913 411.1157,166.3861 420.1866,166.3861 420.1866,179.6913"/>
    <line x1="420.1866" x2="411.1157" y1="178.4806" y2="178.4806"/>
    <line x1="411.1157" x2="420.1866" y1="176.4648" y2="176.4648"/>
    <line x1="420.1866" x2="411.1157" y1="174.4491" y2="174.4491"/>
    <line x1="411.1157" x2="420.1866" y1="172.4333" y2="172.4333"/>
    <line x1="420.1866" x2="411.1157" y1="170.4176" y2="170.4176"/>
    <line x1="411.1157" x2="420.1866" y1="168.4018" y2="168.4018"/>
    <line x1="450.7698" x2="454.0007" y1="308.1542" y2="308.1542"/>
    <line x1="453.9503" x2="450.7216" y1="311.107" y2="310.9899"/>
    <line x1="450.5716" x2="453.7912" y1="313.5569" y2="313.8257"/>
    <line x1="453.5107" x2="450.313" y1="316.3248" y2="315.8627"/>
    <line x1="449.9408" x2="453.0942" y1="317.9152" y2="318.6186"/>
    <line x1="452.5253" x2="449.4519" y1="320.7197" y2="319.7235"/>
    <line x1="448.8447" x2="451.7861" y1="321.3006" y2="322.6373"/>
    <line x1="450.859" x2="448.117" y1="324.3744" y2="322.6656"/>
    <line x1="447.2617" x2="449.7317" y1="323.8444" y2="325.9271"/>
    <line x1="448.4007" x2="446.2627" y1="327.2882" y2="324.866"/>
    <line x1="445.095" x2="446.8713" y1="325.7558" y2="328.4545"/>
    <polygon points="447.6603,327.8956 444.2214,329.8541 438.8551,331.3924 432.1759,332.179 422.149,332.4468 422.149,329.2159 430.5018,329.0402 437.1327,328.4095 442.1481,327.1958 445.7017,325.3261 448.117,322.6656 449.7111,318.8491 450.4562,314.742 450.7698,308.1542 454.0007,308.1542 453.667,315.1018 452.5253,320.7197 451.347,323.5285 450.3208,325.1742"/>
    <line x1="445.1513" x2="443.7314" y1="329.4319" y2="326.5299"/>
    <line x1="442.1481" x2="443.2448" y1="327.1958" y2="330.2349"/>
    <line x1="441.1489" x2="440.3286" y1="330.882" y2="327.757"/>
    <line x1="438.2616" x2="438.8551" y1="328.2165" y2="331.3924"/>
    <line x1="436.3519" x2="435.9391" y1="331.7832" y2="328.5789"/>
    <line x1="433.3547" x2="433.6262" y1="328.8507" y2="332.0701"/>
    <line x1="430.6651" x2="430.5018" y1="332.2669" y2="329.0402"/>
    <line x1="427.3735" x2="427.4556" y1="329.1566" y2="332.3864"/>
    <line x1="423.9855" x2="423.9628" y1="332.4405" y2="329.2098"/>
    <polygon points="415.0496,338.5641 413.3214,341.9139 410.7518,345.1665 407.5833,347.839 403.944,349.8233 400.3507,350.9618 396.2327,351.4353 392.4747,351.1421 388.48,350.0357 384.7876,348.1522 381.5468,345.5678 379.1034,342.6976 377.0693,339.0859 375.7993,335.1402 375.3446,331.0201 375.7237,326.8923 376.9213,322.924 378.8889,319.2757 381.2793,316.3612 384.4722,313.7178 387.7816,311.9134 391.7331,310.6615 395.8552,310.2257 399.9812,310.6237 403.944,311.8394 407.5833,313.8237 410.4868,316.2274 413.1155,319.4324 414.9047,322.7501 416.1386,326.7073 416.5555,330.8313 416.1386,334.9554"/>
    <polygon points="406.8428,329.8821 407.1853,330.8313 406.615,331.9305 406.1257,331.8697 405.7646,331.371 405.7646,330.2917 406.367,329.7014"/>
    <polygon points="406.4297,330.2889 406.4297,331.3738"/>
    <polyline points="398.9732,336.0712 398.7652,337.8656 398.2704,339.1066 397.4032,340.1044 396.1172,340.6005 394.8019,340.3028 393.8219,339.4059 393.134,337.8656 392.926,336.0712"/>
    <polygon points="386.2257,330.8313 385.6554,331.9305 385.1662,331.8697 384.805,331.371 384.805,330.2917 385.4074,329.7014 386.0664,330.1349"/>
    <polygon points="385.4701,331.3738 385.4701,330.2889"/>
    <line x1="367.9137" x2="367.9365" y1="332.4405" y2="329.2098"/>
    <line x1="364.5257" x2="364.4436" y1="329.1566" y2="332.3864"/>
    <line x1="361.2341" x2="361.3975" y1="332.2669" y2="329.0402"/>
    <line x1="358.5445" x2="358.273" y1="328.8507" y2="332.0701"/>
    <line x1="355.5473" x2="355.9601" y1="331.7832" y2="328.5789"/>
    <line x1="353.6377" x2="353.0441" y1="328.2165" y2="331.3924"/>
    <line x1="350.7503" x2="351.5707" y1="330.882" y2="327.757"/>
    <line x1="349.7511" x2="348.6544" y1="327.1958" y2="330.2349"/>
    <line x1="346.7479" x2="348.1679" y1="329.4319" y2="326.5299"/>
    <line x1="346.8042" x2="345.028" y1="325.7558" y2="328.4545"/>
    <line x1="343.4985" x2="345.6366" y1="327.2882" y2="324.866"/>
    <line x1="344.6375" x2="342.1675" y1="323.8444" y2="325.9271"/>
    <line x1="341.0402" x2="343.7822" y1="324.3744" y2="322.6656"/>
    <polygon points="343.7822,322.6656 342.1881,318.8491 341.443,314.742 341.1294,308.1542 337.8985,308.1542 338.2323,315.1018 339.3739,320.7197 340.5523,323.5285 341.5784,325.1742 344.239,327.8956 347.6778,329.8541 353.0441,331.3924 359.7233,332.179 369.7502,332.4468 369.7502,329.2159 361.3975,329.0402 354.7665,328.4095 349.7511,327.1958 346.1976,325.3261"/>
    <line x1="343.0545" x2="340.1132" y1="321.3006" y2="322.6373"/>
    <line x1="339.3739" x2="342.4473" y1="320.7197" y2="319.7235"/>
    <line x1="341.9584" x2="338.805" y1="317.9152" y2="318.6186"/>
    <line x1="338.3886" x2="341.5862" y1="316.3248" y2="315.8627"/>
    <line x1="341.3277" x2="338.108" y1="313.5569" y2="313.8257"/>
    <line x1="337.9489" x2="341.1777" y1="311.107" y2="310.9899"/>
    <line x1="341.1294" x2="337.8985" y1="308.1542" y2="308.1542"/>
    <polygon points="381.3548,309.0736 386.0108,306.5903 391.07,305.0903 395.9496,304.6319 400.8292,305.0903 405.8884,306.5903 410.5445,309.0736 414.3414,312.1725 417.7074,316.2365 420.1907,320.8925 421.6176,325.5813 422.149,330.8313 421.6176,336.0814 420.045,341.1185 417.4948,345.7382 414.3414,349.4901 410.5445,352.5891 405.8884,355.0724 400.8292,356.5724 395.9496,357.0308 391.07,356.5724 386.0108,355.0724 381.3548,352.5891 377.5578,349.4901 374.4044,345.7382 371.8543,341.1185 370.2816,336.0814 369.7502,330.8313 370.2816,325.5813 371.7085,320.8925 374.1918,316.2365 377.5578,312.1725"/>
    <line x1="382.1454" x2="373.0746" y1="357.0308" y2="357.0308"/>
    <line x1="373.0746" x2="382.1454" y1="359.0465" y2="359.0465"/>
    <line x1="382.1454" x2="373.0746" y1="361.0623" y2="361.0623"/>
    <line x1="373.0746" x2="382.1454" y1="363.078" y2="363.078"/>
    <line x1="382.1454" x2="373.0746" y1="365.0938" y2="365.0938"/>
    <line x1="373.0746" x2="382.1454" y1="367.1095" y2="367.1095"/>
    <line x1="382.1454" x2="373.0746" y1="369.1253" y2="369.1253"/>
    <polyline points="373.0746,370.336 373.0746,357.0308 382.1454,357.0308 382.1454,370.336"/>
    <polygon points="374.5446,369.6448 377.4597,369.1265 380.3983,369.5517 382.9017,370.8542 384.5792,372.8306 385.1691,375.1725 370.051,375.1725 370.6408,372.8306 372.3183,370.8542"/>
    <line x1="409.7538" x2="418.8247" y1="369.1253" y2="369.1253"/>
    <polyline points="418.8247,370.336 418.8247,357.0308 409.7538,357.0308"/>
    <line x1="409.7538" x2="418.8247" y1="359.0465" y2="359.0465"/>
    <polyline points="418.8247,357.0308 409.7538,357.0308 409.7538,370.336"/>
    <line x1="409.7538" x2="418.8247" y1="367.1095" y2="367.1095"/>
    <line x1="418.8247" x2="409.7538" y1="365.0938" y2="365.0938"/>
    <line x1="409.7538" x2="418.8247" y1="363.078" y2="363.078"/>
    <line x1="418.8247" x2="409.7538" y1="361.0623" y2="361.0623"/>
    <polygon points="421.8483,375.1725 406.7302,375.1725 407.32,372.8306 408.9976,370.8542 411.2238,369.6448 414.1389,369.1265 417.0775,369.5517 419.5809,370.8542 421.2584,372.8306"/>
    <line x1="456.916" x2="468.3838" y1="519.8077" y2="519.8077"/>
    <line x1="468.3307" x2="456.8704" y1="522.9097" y2="522.4942"/>
    <line x1="456.732" x2="468.16" y1="524.8679" y2="525.8218"/>
    <line x1="467.8514" x2="456.5015" y1="528.5673" y2="526.9273"/>
    <line x1="456.1858" x2="467.3785" y1="528.6721" y2="531.1687"/>
    <line x1="466.7077" x2="455.7988" y1="533.6432" y2="530.107"/>
    <line x1="455.3599" x2="465.8001" y1="531.2501" y2="535.9949"/>
    <line x1="464.6189" x2="454.8864" y1="538.2062" y2="532.1409"/>
    <line x1="454.3778" x2="463.1448" y1="532.843" y2="540.2355"/>
    <line x1="461.3907" x2="453.8018" y1="542.0294" y2="533.4318"/>
    <line x1="453.0954" x2="459.4001" y1="533.9691" y2="543.5483"/>
    <line x1="457.226" x2="452.1859" y1="544.7849" y2="534.484"/>
    <line x1="451.0148" x2="454.9074" y1="534.9754" y2="545.7624"/>
    <line x1="452.4592" x2="449.5475" y1="546.5191" y2="535.4271"/>
    <line x1="447.7695" x2="449.8764" y1="535.8217" y2="547.0943"/>
    <line x1="447.1426" x2="445.6776" y1="547.5215" y2="536.1477"/>
    <line x1="443.2732" x2="444.237" y1="536.4004" y2="547.8276"/>
    <line x1="441.1379" x2="440.5582" y1="548.0337" y2="536.5806"/>
    <line x1="437.5335" x2="437.8249" y1="536.693" y2="548.1571"/>
    <line x1="434.2792" x2="434.1983" y1="548.2124" y2="536.7449"/>
    <polyline points="432.4137,536.751 432.4137,535.0586 425.73,535.0586 425.73,549.9111 432.4137,549.9111 432.4137,548.2188 441.1379,548.0337 448.5296,547.3246 453.6994,546.1658 457.226,544.7849 460.4216,542.8245 462.3006,541.165 463.9185,539.2469 465.8001,535.9949 467.0702,532.4212 467.8514,528.5673 468.3838,519.8077 456.916,519.8077 456.628,525.937 455.7988,530.107 454.3778,532.843 452.1859,534.484 448.6977,535.6324 444.5143,536.2833 432.4137,536.751 432.4137,548.2188"/>
    <polyline points="425.73,549.9111 425.73,587.6262 370.5679,587.6262 370.5679,600.9314"/>
    <line x1="370.5679" x2="379.6388" y1="599.7207" y2="599.7207"/>
    <polyline points="379.6388,600.9314 379.6388,587.6262 366.1692,587.6262 366.1692,549.9111"/>
    <polyline points="359.4856,548.2188 359.4856,536.751 347.3849,536.2833 343.2015,535.6324 339.7133,534.484 337.5214,532.843 336.1005,530.107 335.2713,525.937 334.9832,519.8077 323.5155,519.8077 324.0478,528.5673 324.829,532.4212 326.0991,535.9949 327.9807,539.2469 329.5986,541.165 331.4777,542.8245 334.6732,544.7849 338.1998,546.1658 343.3696,547.3246 350.7613,548.0337 359.4856,548.2188 359.4856,549.9111 366.1692,549.9111 366.1692,535.0586 359.4856,535.0586 359.4856,536.751"/>
    <line x1="357.7009" x2="357.62" y1="536.7449" y2="548.2124"/>
    <line x1="354.0743" x2="354.3657" y1="548.1571" y2="536.693"/>
    <line x1="351.341" x2="350.7613" y1="536.5806" y2="548.0337"/>
    <line x1="347.6622" x2="348.626" y1="547.8276" y2="536.4004"/>
    <line x1="346.2216" x2="344.7566" y1="536.1477" y2="547.5215"/>
    <line x1="342.0229" x2="344.1297" y1="547.0943" y2="535.8217"/>
    <line x1="342.3517" x2="339.4401" y1="535.4271" y2="546.5191"/>
    <line x1="336.9919" x2="340.8845" y1="545.7624" y2="534.9754"/>
    <line x1="339.7133" x2="334.6732" y1="534.484" y2="544.7849"/>
    <line x1="332.4991" x2="338.8038" y1="543.5483" y2="533.9691"/>
    <line x1="338.0974" x2="330.5085" y1="533.4318" y2="542.0294"/>
    <line x1="328.7544" x2="337.5214" y1="540.2355" y2="532.843"/>
    <line x1="337.0129" x2="327.2804" y1="532.1409" y2="538.2062"/>
    <line x1="326.0991" x2="336.5393" y1="535.9949" y2="531.2501"/>
    <line x1="336.1005" x2="325.1915" y1="530.107" y2="533.6432"/>
    <line x1="324.5207" x2="335.7135" y1="531.1687" y2="528.6721"/>
    <line x1="335.3977" x2="324.0478" y1="526.9273" y2="528.5673"/>
    <line x1="323.7392" x2="335.1673" y1="525.8218" y2="524.8679"/>
    <line x1="335.0288" x2="323.5686" y1="522.4942" y2="522.9097"/>
    <line x1="323.5155" x2="334.9832" y1="519.8077" y2="519.8077"/>
    <polyline points="366.1692,542.4849 366.7402,537.2561 368.5015,532.076 371.1711,527.6012 374.9948,523.4199 379.6728,520.0158 384.6652,517.6544 390.0621,516.1831 396.0465,515.6537 401.658,516.1511 407.4132,517.7211 412.3884,520.1117 417.0417,523.5432 420.8351,527.7468 423.4723,532.2371 425.1962,537.4275 425.73,542.4849"/>
    <polygon points="408.4583,541.7885 408.6177,542.4849 408.0473,543.584 407.5581,543.5232 407.197,543.0245 407.197,541.9452 407.7993,541.3549"/>
    <polygon points="407.862,543.0273 407.862,541.9425"/>
    <polyline points="398.9732,551.5131 398.7652,553.3075 398.2704,554.5485 397.4032,555.5463 396.1172,556.0424 394.8019,555.7447 393.8219,554.8478 393.134,553.3075 392.926,551.5131"/>
    <polygon points="384.0378,543.0273 384.0378,541.9425"/>
    <polygon points="383.3727,543.0245 383.3727,541.9452 383.975,541.3549 384.634,541.7885 384.7934,542.4849 384.223,543.584 383.7338,543.5232"/>
    <line x1="379.6388" x2="370.5679" y1="589.6419" y2="589.6419"/>
    <line x1="370.5679" x2="379.6388" y1="591.6577" y2="591.6577"/>
    <line x1="379.6388" x2="370.5679" y1="593.6734" y2="593.6734"/>
    <line x1="370.5679" x2="379.6388" y1="595.6892" y2="595.6892"/>
    <line x1="379.6388" x2="370.5679" y1="597.7049" y2="597.7049"/>
    <polygon points="372.038,600.2402 374.9531,599.7219 377.8916,600.1471 380.395,601.4496 382.0725,603.426 382.6624,605.7679 367.5443,605.7679 368.0233,603.6495 369.6013,601.6213"/>
    <line x1="412.2604" x2="421.3313" y1="599.7207" y2="599.7207"/>
    <polyline points="421.3313,600.9314 421.3313,587.6262 412.2604,587.6262 412.2604,600.9314"/>
    <line x1="412.2604" x2="421.3313" y1="597.7049" y2="597.7049"/>
    <line x1="421.3313" x2="412.2604" y1="595.6892" y2="595.6892"/>
    <line x1="412.2604" x2="421.3313" y1="593.6734" y2="593.6734"/>
    <line x1="421.3313" x2="412.2604" y1="591.6577" y2="591.6577"/>
    <line x1="412.2604" x2="421.3313" y1="589.6419" y2="589.6419"/>
    <polygon points="416.6456,599.7219 419.5841,600.1471 422.0875,601.4496 423.7651,603.426 424.3549,605.7679 409.2368,605.7679 409.8267,603.426 411.2938,601.6213 413.7305,600.2402"/>
    <line x1="448.8462" x2="458.1655" y1="731.4613" y2="731.4613"/>
    <line x1="458.1131" x2="448.8" y1="734.5243" y2="734.1867"/>
    <line x1="448.6585" x2="457.9454" y1="736.6108" y2="737.386"/>
    <line x1="457.6441" x2="448.4207" y1="740.0672" y2="738.7345"/>
    <line x1="448.0903" x2="457.1859" y1="740.5595" y2="742.5884"/>
    <line x1="456.5418" x2="447.6767" y1="744.9655" y2="742.0919"/>
    <line x1="447.1939" x2="455.678" y1="743.3482" y2="747.204"/>
    <line x1="454.5631" x2="446.6541" y1="749.2916" y2="744.3626"/>
    <line x1="446.055" x2="453.1795" y1="745.1891" y2="751.1965"/>
    <line x1="451.5358" x2="445.3687" y1="752.8776" y2="745.8908"/>
    <line x1="444.542" x2="449.6654" y1="746.52" y2="754.3045"/>
    <line x1="447.6098" x2="443.514" y1="755.4734" y2="747.1025"/>
    <polygon points="443.514,747.1025 446.055,745.1891 447.6767,742.0919 448.5515,737.7101 448.8462,731.4613 458.1655,731.4613 457.8128,738.7478 456.5418,744.9655 455.1536,748.2682 453.9051,750.2695 450.6263,753.6237 446.5226,755.9671 440.535,757.6918 433.4978,758.5236 423.2696,758.798 423.2696,749.4788 431.4685,749.307 436.6708,748.8667 440.6762,748.1197"/>
    <line x1="442.2354" x2="445.3987" y1="747.6395" y2="756.4054"/>
    <line x1="443.0424" x2="440.6762" y1="757.1335" y2="748.1197"/>
    <line x1="438.8229" x2="440.535" y1="748.5312" y2="757.6918"/>
    <line x1="437.8614" x2="436.6708" y1="758.1096" y2="748.8667"/>
    <line x1="434.2194" x2="435.0027" y1="749.1244" y2="758.4106"/>
    <line x1="431.9395" x2="431.4685" y1="758.6143" y2="749.307"/>
    <line x1="428.4168" x2="428.6536" y1="749.4205" y2="758.7367"/>
    <line x1="425.1276" x2="425.0619" y1="758.7917" y2="749.4727"/>
    <polygon points="406.8779,754.6809 406.8779,753.596"/>
    <polygon points="406.2128,754.6781 406.2128,753.5988 406.8152,753.0084 407.4741,753.442 407.6335,754.1384 407.0632,755.2376 406.574,755.1768"/>
    <polyline points="398.9732,759.6024 398.7652,761.3968 398.2704,762.6378 397.4032,763.6356 396.1172,764.1317 394.8019,763.834 393.8219,762.9371 393.134,761.3968 392.926,759.6024"/>
    <polygon points="385.2072,755.2376 384.718,755.1768 384.3568,754.6781 384.3568,753.5988 384.9592,753.0084 385.6181,753.442 385.7775,754.1384"/>
    <polygon points="385.0219,753.596 385.0219,754.6809"/>
    <polygon points="370.7182,743.6617 373.2012,739.0093 376.5317,734.9206 380.5857,731.5479 385.5601,728.871 390.6082,727.3457 395.8553,726.8186 401.1059,727.3094 406.5134,728.9434 411.1572,731.4423 415.2344,734.7869 418.5931,738.8526 421.108,743.4878 422.7607,748.8895 423.2696,754.1384 422.7607,759.3873 421.108,764.7891 418.5931,769.4243 415.2344,773.4899 410.8423,777.0424 406.1644,779.4769 401.1059,780.9674 395.8553,781.4583 390.2387,780.8549 385.2122,779.2599 380.5857,776.729 376.5317,773.3563 373.2012,769.2676 370.7182,764.6151 369.1754,759.5723 368.6303,754.3271 369.1754,748.7045"/>
    <line x1="366.8373" x2="366.7716" y1="749.4727" y2="758.7917"/>
    <line x1="363.2457" x2="363.4825" y1="758.7367" y2="749.4205"/>
    <line x1="360.4308" x2="359.9597" y1="749.307" y2="758.6143"/>
    <line x1="356.8966" x2="357.6798" y1="758.4106" y2="749.1244"/>
    <line x1="355.2284" x2="354.0379" y1="748.8667" y2="758.1096"/>
    <line x1="351.3643" x2="353.0764" y1="757.6918" y2="748.5312"/>
    <line x1="351.223" x2="348.8569" y1="748.1197" y2="757.1335"/>
    <line x1="346.5005" x2="349.6638" y1="756.4054" y2="747.6395"/>
    <line x1="348.3852" x2="344.2894" y1="747.1025" y2="755.4734"/>
    <line x1="342.2338" x2="347.3572" y1="754.3045" y2="746.52"/>
    <line x1="346.5305" x2="340.3634" y1="745.8908" y2="752.8776"/>
    <line x1="338.7197" x2="345.8442" y1="751.1965" y2="745.1891"/>
    <line x1="345.2452" x2="337.3361" y1="744.3626" y2="749.2916"/>
    <line x1="336.2212" x2="344.7053" y1="747.204" y2="743.3482"/>
    <line x1="344.2226" x2="335.3575" y1="742.0919" y2="744.9655"/>
    <line x1="334.7133" x2="343.809" y1="742.5884" y2="740.5595"/>
    <line x1="343.4785" x2="334.2551" y1="738.7345" y2="740.0672"/>
    <line x1="333.9538" x2="343.2407" y1="737.386" y2="736.6108"/>
    <line x1="343.0993" x2="333.7862" y1="734.1867" y2="734.5243"/>
    <line x1="333.7338" x2="343.053" y1="731.4613" y2="731.4613"/>
    <polygon points="355.2284,748.8667 351.223,748.1197 348.3852,747.1025 345.8442,745.1891 344.2226,742.0919 343.3477,737.7101 343.053,731.4613 333.7338,731.4613 334.0864,738.7478 335.3575,744.9655 336.7457,748.2682 337.9942,750.2695 341.2729,753.6237 345.3766,755.9671 351.3643,757.6918 358.4014,758.5236 368.6296,758.798 368.6296,749.4788 360.4308,749.307"/>
    <line x1="372.2902" x2="381.361" y1="781.4584" y2="781.4584"/>
    <line x1="381.361" x2="372.2902" y1="783.4742" y2="783.4742"/>
    <line x1="372.2902" x2="381.361" y1="785.4899" y2="785.4899"/>
    <line x1="381.361" x2="372.2902" y1="787.5057" y2="787.5057"/>
    <line x1="372.2902" x2="381.361" y1="789.5214" y2="789.5214"/>
    <line x1="381.361" x2="372.2902" y1="791.5372" y2="791.5372"/>
    <line x1="372.2902" x2="381.361" y1="793.5529" y2="793.5529"/>
    <polyline points="381.361,794.7637 381.361,781.4584 372.2902,781.4584 372.2902,794.7637"/>
    <polygon points="373.7602,794.0725 376.6753,793.5541 379.6139,793.9794 382.1173,795.2818 383.7948,797.2582 384.3847,799.6002 369.2665,799.6002 369.7455,797.4818 371.3235,795.4535"/>
    <polygon points="395.9496,774.5701 392.1953,774.2222 388.218,773.0508 384.5592,771.1005 381.6363,768.7187 378.9876,765.5289 377.0373,761.87 375.8658,757.8927 375.5179,754.1384 375.9386,750.0136 377.0373,746.4069 378.78,743.0634 381.3694,739.8252 384.5592,737.1764 387.8699,735.3722 391.8248,734.1274 395.9496,733.7067 399.7039,734.0546 403.6812,735.2261 407.3401,737.1764 410.2629,739.5582 412.9117,742.748 414.8619,746.4069 416.0334,750.3841 416.3813,754.1384 416.0334,757.8927 414.8619,761.87 412.9117,765.5289 410.2629,768.7187 407.3401,771.1005 403.6812,773.0508 399.7039,774.2222"/>
    <polyline points="410.5382,781.4584 419.6091,781.4584 419.6091,794.7637"/>
    <line x1="419.6091" x2="410.5382" y1="793.5529" y2="793.5529"/>
    <polyline points="410.5382,794.7637 410.5382,781.4584 419.6091,781.4584"/>
    <line x1="419.6091" x2="410.5382" y1="783.4742" y2="783.4742"/>
    <line x1="410.5382" x2="419.6091" y1="785.4899" y2="785.4899"/>
    <line x1="419.6091" x2="410.5382" y1="787.5057" y2="787.5057"/>
    <line x1="410.5382" x2="419.6091" y1="789.5214" y2="789.5214"/>
    <line x1="419.6091" x2="410.5382" y1="791.5372" y2="791.5372"/>
    <polygon points="407.9936,797.4818 409.5715,795.4535 412.0082,794.0725 414.9233,793.5541 417.8619,793.9794 420.3653,795.2818 422.0428,797.2582 422.6327,799.6002 407.5146,799.6002"/>
    <line x1="340.644" x2="328.8037" y1="943.1148" y2="943.1148"/>
    <line x1="328.8569" x2="340.6894" y1="946.2236" y2="945.7946"/>
    <line x1="340.8274" x2="329.0281" y1="948.1595" y2="949.1444"/>
    <line x1="329.338" x2="341.0566" y1="951.901" y2="950.2078"/>
    <line x1="341.3697" x2="329.8134" y1="951.9386" y2="954.5164"/>
    <polyline points="179.1523,826.8336 179.1523,813.5284 128.9674,813.5284 128.9674,826.8336"/>
    <line x1="128.9674" x2="138.0382" y1="825.6229" y2="825.6229"/>
    <polyline points="138.0382,826.8336 138.0382,813.5284 124.6926,813.5284 124.6926,758.1638 114.5064,757.8908 107.5438,757.0684 101.6856,755.3825 97.7204,753.1193 94.5705,749.8969 93.3683,747.9697 92.0238,744.77 90.7797,738.6772 90.431,731.4613 98.4818,731.4613 98.7805,737.7807 99.6823,742.2874 101.086,745.1679 103.5924,747.368 107.125,748.7331 111.2104,749.4957 116.4617,749.9404 124.6926,750.113 124.6926,758.1638"/>
    <line x1="122.8391" x2="122.8959" y1="758.1576" y2="750.1069"/>
    <line x1="119.5294" x2="119.3248" y1="750.0544" y2="758.1027"/>
    <line x1="116.0548" x2="116.4617" y1="757.9809" y2="749.9404"/>
    <line x1="113.6895" x2="113.0129" y1="749.7563" y2="757.7787"/>
    <line x1="110.1819" x2="111.2104" y1="757.4806" y2="749.4957"/>
    <line x1="109.0229" x2="107.5438" y1="749.1546" y2="757.0684"/>
    <line x1="105.0809" x2="107.125" y1="756.5201" y2="748.7331"/>
    <line x1="105.5116" x2="102.7788" y1="748.236" y2="755.8089"/>
    <line x1="100.6312" x2="104.1695" y1="754.9038" y2="747.6722"/>
    <line x1="103.0716" x2="98.6455" y1="747.0497" y2="753.7747"/>
    <line x1="96.8462" x2="102.1739" y1="752.4021" y2="746.3662"/>
    <line x1="101.4224" x2="95.2676" y1="745.5979" y2="750.7877"/>
    <line x1="93.9374" x2="100.77" y1="748.9561" y2="744.698"/>
    <line x1="100.191" x2="92.8616" y1="743.6106" y2="746.9416"/>
    <line x1="92.0238" x2="99.6823" y1="744.77" y2="742.2874"/>
    <line x1="99.253" x2="91.3953" y1="740.6976" y2="742.4503"/>
    <line x1="90.9458" x2="98.9139" y1="739.9765" y2="738.8252"/>
    <line x1="98.6718" x2="90.6488" y1="736.6635" y2="737.3332"/>
    <line x1="90.483" x2="98.5285" y1="734.5014" y2="734.2097"/>
    <line x1="98.4818" x2="90.431" y1="731.4613" y2="731.4613"/>
    <polyline points="124.6926,754.1384 125.2769,748.3087 126.9259,742.904 129.5793,737.9151 133.4053,733.2597 137.7855,729.6903 143.1172,726.883 148.5386,725.2917 154.1644,724.7681 159.7864,725.3317 165.5445,727.107 170.5079,729.8068 174.8625,733.4074 178.6553,738.0899 181.2731,743.0976 182.8835,748.5139 183.4271,754.1384"/>
    <polyline points="183.4271,758.1638 183.4271,750.113 191.658,749.9404 196.9093,749.4957 200.9947,748.7331 204.5273,747.368 207.0337,745.1679 208.4374,742.2874 209.3392,737.7807 209.6379,731.4613 217.6887,731.4613 217.34,738.6772 216.0959,744.77 214.7514,747.9697 213.5492,749.8969 210.3993,753.1193 206.4341,755.3825 200.5759,757.0684 193.6133,757.8908 183.4271,758.1638 183.4271,813.5284 170.0815,813.5284 170.0815,826.8336"/>
    <line x1="170.0815" x2="179.1523" y1="825.6229" y2="825.6229"/>
    <line x1="179.1523" x2="170.0815" y1="823.6071" y2="823.6071"/>
    <line x1="170.0815" x2="179.1523" y1="821.5914" y2="821.5914"/>
    <line x1="179.1523" x2="170.0815" y1="819.5756" y2="819.5756"/>
    <line x1="170.0815" x2="179.1523" y1="817.5599" y2="817.5599"/>
    <line x1="179.1523" x2="170.0815" y1="815.5441" y2="815.5441"/>
    <polygon points="167.0578,831.6701 167.6477,829.3282 169.3252,827.3517 171.5515,826.1424 174.4666,825.624 177.4052,826.0493 179.9086,827.3517 181.5861,829.3282 182.176,831.6701"/>
    <line x1="138.0382" x2="128.9674" y1="823.6071" y2="823.6071"/>
    <line x1="128.9674" x2="138.0382" y1="821.5914" y2="821.5914"/>
    <line x1="138.0382" x2="128.9674" y1="819.5756" y2="819.5756"/>
    <line x1="128.9674" x2="138.0382" y1="817.5599" y2="817.5599"/>
    <line x1="138.0382" x2="128.9674" y1="815.5441" y2="815.5441"/>
    <polygon points="126.5336,829.3282 128.2111,827.3517 130.4374,826.1424 133.3525,825.624 136.2911,826.0493 138.7945,827.3517 140.472,829.3282 141.0619,831.6701 125.9437,831.6701"/>
    <polyline points="151.0362,766.0164 151.2443,767.8107 151.9321,769.3511 152.9122,770.248 154.2275,770.5456 155.5134,770.0496 156.3806,769.0518 156.8754,767.8107 157.0835,766.0164"/>
    <polygon points="165.807,753.596 165.807,754.6809"/>
    <polygon points="165.7443,753.0084 166.4033,753.442 166.5626,754.1384 165.9923,755.2376 165.5031,755.1768 165.1419,754.6781 165.1419,753.5988"/>
    <line x1="185.2238" x2="185.2805" y1="750.1069" y2="758.1576"/>
    <line x1="188.7949" x2="188.5903" y1="758.1027" y2="750.0544"/>
    <line x1="191.658" x2="192.0649" y1="749.9404" y2="757.9809"/>
    <line x1="195.1068" x2="194.4302" y1="757.7787" y2="749.7563"/>
    <line x1="196.9093" x2="197.9378" y1="749.4957" y2="757.4806"/>
    <line x1="200.5759" x2="199.0968" y1="757.0684" y2="749.1546"/>
    <line x1="200.9947" x2="203.0388" y1="748.7331" y2="756.5201"/>
    <line x1="205.3409" x2="202.6081" y1="755.8089" y2="748.236"/>
    <line x1="203.9502" x2="207.4885" y1="747.6722" y2="754.9038"/>
    <line x1="209.4742" x2="205.0481" y1="753.7747" y2="747.0497"/>
    <line x1="205.9458" x2="211.2735" y1="746.3662" y2="752.4021"/>
    <line x1="212.8521" x2="206.6973" y1="750.7877" y2="745.5979"/>
    <line x1="207.3497" x2="214.1823" y1="744.698" y2="748.9561"/>
    <line x1="215.2581" x2="207.9287" y1="746.9416" y2="743.6106"/>
    <line x1="208.4374" x2="216.0959" y1="742.2874" y2="744.77"/>
    <line x1="216.7244" x2="208.8667" y1="742.4503" y2="740.6976"/>
    <line x1="209.2058" x2="217.1739" y1="738.8252" y2="739.9765"/>
    <line x1="217.4709" x2="209.4479" y1="737.3332" y2="736.6635"/>
    <line x1="209.5912" x2="217.6367" y1="734.2097" y2="734.5014"/>
    <line x1="217.6887" x2="209.6379" y1="731.4613" y2="731.4613"/>
    <polygon points="142.2505,753.0084 142.9095,753.442 143.0689,754.1384 142.4985,755.2376 142.0093,755.1768 141.6482,754.6781 141.6482,753.5988"/>
    <polygon points="142.3132,753.596 142.3132,754.6809"/>
    <polygon points="127.5371,602.624 129.9738,601.243 132.8889,600.7246 135.8274,601.1498 138.3308,602.4523 140.0084,604.4287 140.5982,606.7706 125.4801,606.7706 126.07,604.4287"/>
    <polyline points="128.5037,601.9341 128.5037,588.6289 137.5746,588.6289 137.5746,601.9341"/>
    <line x1="137.5746" x2="128.5037" y1="600.7234" y2="600.7234"/>
    <line x1="128.5037" x2="137.5746" y1="598.7077" y2="598.7077"/>
    <line x1="137.5746" x2="128.5037" y1="596.6919" y2="596.6919"/>
    <line x1="128.5037" x2="137.5746" y1="594.6762" y2="594.6762"/>
    <line x1="137.5746" x2="128.5037" y1="592.6604" y2="592.6604"/>
    <line x1="128.5037" x2="137.5746" y1="590.6447" y2="590.6447"/>
    <line x1="170.5451" x2="179.6159" y1="590.6447" y2="590.6447"/>
    <line x1="179.6159" x2="170.5451" y1="592.6604" y2="592.6604"/>
    <line x1="170.5451" x2="179.6159" y1="594.6762" y2="594.6762"/>
    <line x1="179.6159" x2="170.5451" y1="596.6919" y2="596.6919"/>
    <line x1="170.5451" x2="179.6159" y1="598.7077" y2="598.7077"/>
    <line x1="179.6159" x2="170.5451" y1="600.7234" y2="600.7234"/>
    <polyline points="170.5451,601.9341 170.5451,588.6289 184.0894,588.6289 184.0894,546.9653 194.3057,546.6913 201.3218,545.8621 207.2729,544.1484 211.3374,541.8277 214.5798,538.5107 215.8152,536.5303 217.1911,533.2567 218.4545,527.0743 218.806,519.8077 209.8452,519.8077 209.5493,526.0765 208.6668,530.4936 207.0118,533.651 204.4125,535.6099 201.5415,536.6395 197.5135,537.3909 192.2973,537.8324 184.0894,538.0044 184.0894,546.9653"/>
    <line x1="185.9461" x2="185.8829" y1="546.959" y2="537.9984"/>
    <line x1="189.2411" x2="189.4687" y1="537.946" y2="546.904"/>
    <line x1="192.7502" x2="192.2973" y1="546.7818" y2="537.8324"/>
    <line x1="195.0542" x2="195.8074" y1="537.6494" y2="546.5786"/>
    <line x1="198.6582" x2="197.5135" y1="546.2783" y2="537.3909"/>
    <line x1="199.6755" x2="201.3218" y1="537.0538" y2="545.8621"/>
    <line x1="203.8166" x2="201.5415" y1="545.3067" y2="536.6395"/>
    <line x1="203.116" x2="206.1576" y1="536.1545" y2="544.5833"/>
    <line x1="208.3508" x2="204.4125" y1="543.659" y2="535.6099"/>
    <line x1="205.4603" x2="210.3867" y1="535.0161" y2="542.5013"/>
    <line x1="212.237" x2="206.307" y1="541.0897" y2="534.3716"/>
    <line x1="207.0118" x2="213.8623" y1="533.651" y2="539.4275"/>
    <line x1="215.2308" x2="207.6259" y1="537.5433" y2="532.8038"/>
    <line x1="208.1768" x2="216.3347" y1="531.7688" y2="535.4763"/>
    <line x1="217.1911" x2="208.6668" y1="533.2567" y2="530.4936"/>
    <line x1="209.0849" x2="217.8308" y1="528.945" y2="530.8959"/>
    <line x1="218.2866" x2="209.4178" y1="528.388" y2="527.1066"/>
    <line x1="209.6568" x2="218.5866" y1="524.9721" y2="525.7175"/>
    <line x1="218.7538" x2="209.7988" y1="522.8643" y2="522.5396"/>
    <line x1="209.8452" x2="218.806" y1="519.8077" y2="519.8077"/>
    <polyline points="184.0894,542.4849 183.4868,537.0755 181.7033,531.8832 178.8104,527.1164 175.1935,523.2043 170.5171,519.7842 165.5293,517.4032 159.7674,515.8405 154.1531,515.3459 148.1657,515.8737 142.763,517.3394 137.4438,519.8789 132.7915,523.3256 128.9927,527.5413 126.3427,532.0416 124.5956,537.244 124.0303,542.4849"/>
    <polyline points="124.0303,546.9653 124.0303,538.0044 115.8224,537.8324 110.6062,537.3909 106.5782,536.6395 103.7072,535.6099 101.1079,533.651 99.4528,530.4936 98.5704,526.0765 98.2745,519.8077 89.3137,519.8077 89.6652,527.0743 90.9286,533.2567 92.3045,536.5303 93.5399,538.5107 96.7823,541.8277 100.8468,544.1484 106.7979,545.8621 113.814,546.6913 124.0303,546.9653 124.0303,588.6289 179.6159,588.6289 179.6159,601.9341"/>
    <polygon points="174.9302,600.7246 177.8688,601.1498 180.3722,602.4523 182.0497,604.4287 182.6396,606.7706 167.5215,606.7706 168.1113,604.4287 169.5784,602.624 172.0151,601.243"/>
    <polyline points="157.0835,551.7137 156.8754,553.508 156.3806,554.7491 155.5134,555.7469 154.2275,556.2429 152.9122,555.9453 151.9321,555.0483 151.2443,553.508 151.0362,551.7137"/>
    <polygon points="141.7444,543.5232 141.3832,543.0245 141.3832,541.9452 141.9856,541.3549 142.6446,541.7885 142.8039,542.4849 142.2336,543.584"/>
    <polygon points="142.0483,543.0273 142.0483,541.9425"/>
    <line x1="122.1736" x2="122.2368" y1="546.959" y2="537.9984"/>
    <line x1="118.8786" x2="118.6509" y1="537.946" y2="546.904"/>
    <line x1="115.3695" x2="115.8224" y1="546.7818" y2="537.8324"/>
    <line x1="113.0654" x2="112.3123" y1="537.6494" y2="546.5786"/>
    <line x1="109.4615" x2="110.6062" y1="546.2783" y2="537.3909"/>
    <line x1="108.4442" x2="106.7979" y1="537.0538" y2="545.8621"/>
    <line x1="104.3031" x2="106.5782" y1="545.3067" y2="536.6395"/>
    <line x1="105.0037" x2="101.9621" y1="536.1545" y2="544.5833"/>
    <line x1="99.7689" x2="103.7072" y1="543.659" y2="535.6099"/>
    <line x1="102.6594" x2="97.733" y1="535.0161" y2="542.5013"/>
    <line x1="95.8827" x2="101.8127" y1="541.0897" y2="534.3716"/>
    <line x1="101.1079" x2="94.2574" y1="533.651" y2="539.4275"/>
    <line x1="92.8889" x2="100.4938" y1="537.5433" y2="532.8038"/>
    <line x1="99.9429" x2="91.785" y1="531.7688" y2="535.4763"/>
    <line x1="90.9286" x2="99.4528" y1="533.2567" y2="530.4936"/>
    <line x1="99.0348" x2="90.2889" y1="528.945" y2="530.8959"/>
    <line x1="89.8331" x2="98.7019" y1="528.388" y2="527.1066"/>
    <line x1="98.4629" x2="89.5331" y1="524.9721" y2="525.7175"/>
    <line x1="89.3659" x2="98.3209" y1="522.8643" y2="522.5396"/>
    <line x1="98.2745" x2="89.3137" y1="519.8077" y2="519.8077"/>
    <polygon points="166.0719,543.0273 166.0719,541.9425"/>
    <polygon points="166.2572,543.584 165.768,543.5232 165.4069,543.0245 165.4069,541.9452 166.0092,541.3549 166.6682,541.7885 166.8276,542.4849"/>
    <polygon points="183.6527,375.0066 184.2426,377.3485 169.1244,377.3485 169.7143,375.0066 171.3918,373.0302 173.6181,371.8208 176.5332,371.3025 179.4718,371.7277 181.9752,373.0302"/>
    <polyline points="181.2189,372.512 181.2189,359.2068 172.1481,359.2068 172.1481,372.512"/>
    <line x1="172.1481" x2="181.2189" y1="371.3013" y2="371.3013"/>
    <line x1="181.2189" x2="172.1481" y1="369.2855" y2="369.2855"/>
    <line x1="172.1481" x2="181.2189" y1="367.2698" y2="367.2698"/>
    <line x1="181.2189" x2="172.1481" y1="365.254" y2="365.254"/>
    <line x1="172.1481" x2="181.2189" y1="363.2383" y2="363.2383"/>
    <line x1="181.2189" x2="172.1481" y1="361.2225" y2="361.2225"/>
    <polyline points="157.0835,336.5064 156.8754,338.3008 156.3806,339.5418 155.5134,340.5396 154.2275,341.0357 152.9122,340.738 151.9321,339.8411 151.2443,338.3008 151.0362,336.5064"/>
    <polygon points="140.8284,331.8697 140.4672,331.371 140.4672,330.2917 141.0696,329.7014 141.7286,330.1349 141.888,330.8313 141.3176,331.9305"/>
    <polygon points="141.1323,330.2889 141.1323,331.3738"/>
    <polyline points="121.7403,329.2293 121.7403,302.4559 186.3793,302.4559 186.3793,329.2293"/>
    <line x1="188.1932" x2="188.2158" y1="329.2232" y2="332.4271"/>
    <polyline points="186.3793,332.4334 186.3793,329.2293 194.7327,329.0536 201.3651,328.4227 206.383,327.2084 209.9401,325.3367 212.3587,322.6727 213.9543,318.8526 214.6998,314.7435 215.0135,308.1542 218.2176,308.1542 217.884,315.1003 216.7429,320.7156 215.5654,323.5222 214.5403,325.1664 211.8824,327.8849 208.4465,329.8417 203.083,331.3792 196.4053,332.1656 186.3793,332.4334 186.3793,359.2068 121.7403,359.2068 121.7403,332.4334 111.7144,332.1656 105.0367,331.3792 99.6732,329.8417 96.2373,327.8849 93.5794,325.1664 92.5543,323.5222 91.3768,320.7156 90.2357,315.1003 89.9021,308.1542 93.1062,308.1542 93.4199,314.7435 94.1654,318.8526 95.761,322.6727 98.1796,325.3367 101.7367,327.2084 106.7546,328.4227 113.387,329.0536 121.7403,329.2293 121.7403,332.4334"/>
    <line x1="119.9039" x2="119.9265" y1="332.4271" y2="329.2232"/>
    <line x1="116.5155" x2="116.4341" y1="329.17" y2="332.373"/>
    <line x1="113.225" x2="113.387" y1="332.2536" y2="329.0536"/>
    <line x1="110.5336" x2="110.2643" y1="328.8641" y2="332.0568"/>
    <line x1="107.5392" x2="107.9485" y1="331.77" y2="328.5922"/>
    <line x1="105.6254" x2="105.0367" y1="328.2297" y2="331.3792"/>
    <line x1="102.7439" x2="103.5574" y1="330.8691" y2="327.77"/>
    <line x1="101.7367" x2="100.6491" y1="327.2084" y2="330.2223"/>
    <line x1="98.744" x2="100.1521" y1="329.4199" y2="326.5419"/>
    <line x1="98.787" x2="97.0255" y1="325.7669" y2="328.4433"/>
    <line x1="95.4976" x2="97.6179" y1="327.2782" y2="324.876"/>
    <line x1="96.6174" x2="94.168" y1="323.853" y2="325.9184"/>
    <line x1="93.0418" x2="95.761" y1="324.3673" y2="322.6727"/>
    <line x1="95.0325" x2="92.1155" y1="321.3061" y2="322.6318"/>
    <line x1="91.3768" x2="94.4247" y1="320.7156" y2="319.7276"/>
    <line x1="93.9355" x2="90.8083" y1="317.9181" y2="318.6156"/>
    <line x1="90.392" x2="93.5631" y1="316.3229" y2="315.8647"/>
    <line x1="93.3045" x2="90.1115" y1="313.558" y2="313.8245"/>
    <line x1="89.9525" x2="93.1544" y1="311.1065" y2="310.9904"/>
    <line x1="93.1062" x2="89.9021" y1="308.1542" y2="308.1542"/>
    <line x1="126.9008" x2="135.9716" y1="361.2225" y2="361.2225"/>
    <line x1="135.9716" x2="126.9008" y1="363.2383" y2="363.2383"/>
    <line x1="126.9008" x2="135.9716" y1="365.254" y2="365.254"/>
    <line x1="135.9716" x2="126.9008" y1="367.2698" y2="367.2698"/>
    <line x1="126.9008" x2="135.9716" y1="369.2855" y2="369.2855"/>
    <line x1="135.9716" x2="126.9008" y1="371.3013" y2="371.3013"/>
    <polyline points="126.9008,372.512 126.9008,359.2068 135.9716,359.2068 135.9716,372.512"/>
    <polygon points="138.4054,375.0066 138.9953,377.3485 123.8771,377.3485 124.467,375.0066 126.1445,373.0302 128.3708,371.8208 131.2859,371.3025 134.2245,371.7277 136.7279,373.0302"/>
    <polygon points="166.3228,331.371 166.3228,330.2917 166.9252,329.7014 167.5842,330.1349 167.7436,330.8313 167.1732,331.9305 166.684,331.8697"/>
    <polygon points="166.9879,330.2889 166.9879,331.3738"/>
    <polygon points="178.2282,310.607 178.2282,351.0557 129.8915,351.0557 129.8915,310.607"/>
    <line x1="191.6042" x2="191.6856" y1="329.17" y2="332.373"/>
    <line x1="194.8947" x2="194.7327" y1="332.2536" y2="329.0536"/>
    <line x1="197.5861" x2="197.8554" y1="328.8641" y2="332.0568"/>
    <line x1="200.5805" x2="200.1712" y1="331.77" y2="328.5922"/>
    <line x1="202.4943" x2="203.083" y1="328.2297" y2="331.3792"/>
    <line x1="205.3758" x2="204.5623" y1="330.8691" y2="327.77"/>
    <line x1="206.383" x2="207.4706" y1="327.2084" y2="330.2223"/>
    <line x1="209.3757" x2="207.9676" y1="329.4199" y2="326.5419"/>
    <line x1="209.3327" x2="211.0942" y1="325.7669" y2="328.4433"/>
    <line x1="212.6221" x2="210.5018" y1="327.2782" y2="324.876"/>
    <line x1="211.5023" x2="213.9517" y1="323.853" y2="325.9184"/>
    <line x1="215.0779" x2="212.3587" y1="324.3673" y2="322.6727"/>
    <line x1="213.0872" x2="216.0042" y1="321.3061" y2="322.6318"/>
    <line x1="216.7429" x2="213.695" y1="320.7156" y2="319.7276"/>
    <line x1="214.1842" x2="217.3114" y1="317.9181" y2="318.6156"/>
    <line x1="217.7277" x2="214.5566" y1="316.3229" y2="315.8647"/>
    <line x1="214.8152" x2="218.0082" y1="313.558" y2="313.8245"/>
    <line x1="218.1672" x2="214.9652" y1="311.1065" y2="310.9904"/>
    <line x1="215.0135" x2="218.2176" y1="308.1542" y2="308.1542"/>
    <polyline points="179.4907,162.3336 179.4907,149.0284 170.4198,149.0284 170.4198,162.3336"/>
    <line x1="170.4198" x2="179.4907" y1="161.1229" y2="161.1229"/>
    <line x1="179.4907" x2="170.4198" y1="159.1071" y2="159.1071"/>
    <line x1="170.4198" x2="179.4907" y1="157.0914" y2="157.0914"/>
    <line x1="179.4907" x2="170.4198" y1="155.0756" y2="155.0756"/>
    <line x1="170.4198" x2="179.4907" y1="153.0599" y2="153.0599"/>
    <line x1="179.4907" x2="170.4198" y1="151.0441" y2="151.0441"/>
    <line x1="170.4198" x2="179.4907" y1="149.0284" y2="149.0284"/>
    <polygon points="174.805,161.1241 177.7435,161.5493 180.2469,162.8518 181.9245,164.8282 182.5143,167.1701 167.3962,167.1701 167.9861,164.8282 169.6636,162.8518 171.8899,161.6424"/>
    <polygon points="159.7793,148.4753 154.1542,149.0282 148.5257,148.5109 142.7456,146.8011 137.7414,144.1731 133.0526,140.3852 129.2203,135.7325 126.5451,130.7535 124.8563,125.3595 124.2098,119.3665 124.7094,113.7364 126.401,107.9509 129.2203,102.6231 132.7862,98.2377 137.1147,94.603 142.3973,91.6998 148.1553,89.917 153.7768,89.3285 159.4084,89.8103 165.1993,91.4836 170.5359,94.2861 174.9326,97.838 178.7942,102.4664 181.6472,107.7763 183.3019,113.1808 183.9104,119.1778 183.3019,125.1748 181.6472,130.5793 179.0035,135.5751 175.2007,140.252 170.8493,143.8592 165.5485,146.729"/>
    <polyline points="137.6999,149.0284 128.629,149.0284 128.629,162.3336"/>
    <line x1="128.629" x2="137.6999" y1="161.1229" y2="161.1229"/>
    <polyline points="137.6999,162.3336 137.6999,149.0284 128.629,149.0284"/>
    <line x1="128.629" x2="137.6999" y1="151.0441" y2="151.0441"/>
    <line x1="137.6999" x2="128.629" y1="153.0599" y2="153.0599"/>
    <line x1="128.629" x2="137.6999" y1="155.0756" y2="155.0756"/>
    <line x1="137.6999" x2="128.629" y1="157.0914" y2="157.0914"/>
    <line x1="128.629" x2="137.6999" y1="159.1071" y2="159.1071"/>
    <polygon points="138.4561,162.8518 140.1336,164.8282 140.7235,167.1701 125.6054,167.1701 126.1952,164.8282 127.8728,162.8518 130.099,161.6424 133.0141,161.1241 135.9527,161.5493"/>
    <polyline points="151.0362,125.1479 151.2443,126.9422 151.9321,128.4826 152.9122,129.3795 154.2275,129.6771 155.5134,129.1811 156.3806,128.1833 156.8754,126.9422 157.0835,125.1479"/>
    <polygon points="165.6964,120.2162 165.3353,119.7175 165.3353,118.6381 165.9377,118.0478 166.5966,118.4814 166.756,119.1778 166.1857,120.277"/>
    <polygon points="166.0004,119.7202 166.0004,118.6354"/>
    <polygon points="178.9047,124.4202 177.4369,129.0905 175.1002,133.3924 171.9813,137.1659 168.1962,140.2708 163.8857,142.5915 158.8401,144.1157 153.9656,144.5696 149.0946,144.0795 144.4081,142.6639 140.0805,140.3752 136.0053,137.0323 132.9145,133.2358 130.6098,128.9167 129.1767,124.2355 128.6686,119.3664 129.1043,114.4902 130.6098,109.4389 132.9145,105.1198 136.0053,101.3233 139.7672,98.1904 144.0604,95.8377 149.0946,94.276 153.9656,93.786 158.8401,94.2399 163.8857,95.764 168.1962,98.0848 171.9813,101.1897 175.1002,104.9632 177.4369,109.265 178.9047,113.9354 179.4518,119.1778"/>
    <line x1="185.7776" x2="185.6935" y1="125.1404" y2="113.2028"/>
    <line x1="189.0243" x2="189.3276" y1="113.1509" y2="125.0849"/>
    <line x1="192.6466" x2="192.0431" y1="124.9613" y2="113.0387"/>
    <line x1="194.7502" x2="195.7535" y1="112.8591" y2="124.7547"/>
    <line x1="198.6694" x2="197.1444" y1="124.4476" y2="112.6075"/>
    <polygon points="195.9866,112.7424 200.1435,112.0959 203.5794,110.9658 205.6949,109.3844 207.072,106.7275 207.8912,102.6037 208.1777,96.5006 220.1156,96.5006 219.7548,103.933 218.4281,110.4086 216.9497,113.9237 215.6055,116.0779 212.0608,119.7044 207.6712,122.2133 201.4163,124.0182 194.2253,124.8694 183.9104,125.1467 183.9104,113.2089"/>
    <line x1="199.2231" x2="201.4163" y1="112.2835" y2="124.0182"/>
    <line x1="204.0156" x2="200.9846" y1="123.4393" y2="111.8926"/>
    <line x1="202.4318" x2="206.484" y1="111.4473" y2="122.6764"/>
    <line x1="208.8261" x2="203.5794" y1="121.6889" y2="110.9658"/>
    <line x1="204.463" x2="211.0261" y1="110.4656" y2="120.4376"/>
    <line x1="213.0431" x2="205.1431" y1="118.8986" y2="109.9485"/>
    <line x1="205.6949" x2="214.8213" y1="109.3844" y2="117.0799"/>
    <line x1="216.3152" x2="206.1837" y1="115.0234" y2="108.7095"/>
    <line x1="206.6427" x2="217.5109" y1="107.8458" y2="112.7851"/>
    <line x1="218.4281" x2="207.072" y1="110.4086" y2="106.7275"/>
    <line x1="207.4532" x2="219.1047" y1="105.3138" y2="107.9128"/>
    <line x1="219.5808" x2="207.7656" y1="105.2938" y2="103.5866"/>
    <line x1="207.9945" x2="219.891" y1="101.5412" y2="102.5342"/>
    <line x1="220.0624" x2="208.1323" y1="99.6112" y2="99.1786"/>
    <line x1="208.1777" x2="220.1156" y1="96.5006" y2="96.5006"/>
    <polygon points="142.7161,118.4814 142.8755,119.1778 142.3052,120.277 141.816,120.2162 141.4548,119.7175 141.4548,118.6381 142.0572,118.0478"/>
    <polygon points="142.1199,118.6354 142.1199,119.7202"/>
    <line x1="122.4262" x2="122.3421" y1="113.2028" y2="125.1404"/>
    <line x1="118.7921" x2="119.0954" y1="125.0849" y2="113.1509"/>
    <line x1="116.0766" x2="115.4731" y1="113.0387" y2="124.9613"/>
    <line x1="112.3662" x2="113.3695" y1="124.7547" y2="112.8591"/>
    <line x1="110.9753" x2="109.4503" y1="112.6075" y2="124.4476"/>
    <line x1="106.7034" x2="108.8966" y1="124.0182" y2="112.2835"/>
    <line x1="107.1351" x2="104.1041" y1="111.8926" y2="123.4393"/>
    <line x1="101.6357" x2="105.6879" y1="122.6764" y2="111.4473"/>
    <polygon points="104.5403,110.9658 102.4248,109.3844 101.0477,106.7275 100.2285,102.6037 99.942,96.5006 88.0041,96.5006 88.3649,103.933 89.6916,110.4086 91.17,113.9237 92.5142,116.0779 96.0589,119.7044 100.4485,122.2133 106.7034,124.0182 113.8944,124.8694 124.2092,125.1467 124.2092,113.2089 112.1331,112.7424 107.9762,112.0959"/>
    <line x1="104.5403" x2="99.2936" y1="110.9658" y2="121.6889"/>
    <line x1="97.0936" x2="103.6567" y1="120.4376" y2="110.4656"/>
    <line x1="102.9766" x2="95.0766" y1="109.9485" y2="118.8986"/>
    <line x1="93.2984" x2="102.4248" y1="117.0799" y2="109.3844"/>
    <line x1="101.936" x2="91.8045" y1="108.7095" y2="115.0234"/>
    <line x1="90.6088" x2="101.477" y1="112.7851" y2="107.8458"/>
    <line x1="101.0477" x2="89.6916" y1="106.7275" y2="110.4086"/>
    <line x1="89.015" x2="100.6665" y1="107.9128" y2="105.3138"/>
    <line x1="100.354" x2="88.5389" y1="103.5866" y2="105.2938"/>
    <line x1="88.2287" x2="100.1252" y1="102.5342" y2="101.5412"/>
    <line x1="99.9874" x2="88.0573" y1="99.1786" y2="99.6112"/>
    <line x1="88.0041" x2="99.942" y1="96.5006" y2="96.5006"/>
  </g>
</svg>
