<?xml version="1.0" encoding="utf-8" ?>
<svg xmlns="http://www.w3.org/2000/svg" xmlns:cc="http://creativecommons.org/ns" xmlns:dc="http://purl.org/dc/elements/1.1/" xmlns:ev="http://www.w3.org/2001/xml-events" xmlns:inkscape="http://www.inkscape.org/namespaces/inkscape" xmlns:rdf="http://www.w3.org/1999/02/22-rdf-syntax-ns" xmlns:sodipodi="http://sodipodi.sourceforge.net/DTD/sodipodi-0.dtd" xmlns:xlink="http://www.w3.org/1999/xlink" baseProfile="tiny" height="29.7cm" version="1.2" viewBox="0 0 793.7007874015749 1122.5196850393702" width="21.0cm">
  <metadata>
    <rdf:RDF>
      <cc:Work>
        <dc:format>image/svg+xml</dc:format>
        <dc:source/>
        <dc:date>2022-06-06T21:45:25.377477</dc:date>
      </cc:Work>
    </rdf:RDF>
  </metadata>
  <defs/>
  <g fill="none" id="layer1" inkscape:groupmode="layer" inkscape:label="1" stroke="#0000ff" style="display:inline">
    <polyline points="232.7669,833.9054 218.1449,833.9054 218.1449,874.8976 212.4756,874.8976"/>
    <line x1="210.1676" x2="210.2209" y1="876.7796" y2="869.2207"/>
    <line x1="212.4756" x2="218.1449" y1="871.1181" y2="871.1181"/>
    <polyline points="218.1449,874.8976 218.1449,912.1103 306.0365,912.1103 306.0365,928.7419"/>
    <polygon points="306.9817,929.3896 309.0786,931.8601 309.816,934.7875 290.9183,934.7875 291.6557,931.8601 293.4896,929.6042 296.5354,927.8779 300.1793,927.2299 303.8525,927.7615"/>
    <line x1="306.0365" x2="294.6979" y1="927.2284" y2="927.2284"/>
    <polyline points="294.6979,928.7419 294.6979,912.1103 314.877,912.1103 314.877,874.8976"/>
    <line x1="314.877" x2="320.5463" y1="871.1181" y2="871.1181"/>
    <line x1="322.801" x2="322.8543" y1="869.2207" y2="876.7796"/>
    <polyline points="320.5463,874.8976 314.877,874.8976 314.877,833.9054 300.255,833.9054"/>
    <polyline points="296.9479,828.2361 300.255,828.2361 300.255,833.9054 290.8061,833.9054 290.8061,828.2361 294.1132,828.2361"/>
    <line x1="290.8061" x2="242.2157" y1="833.9054" y2="833.9054"/>
    <polyline points="238.9086,828.2361 242.2157,828.2361 242.2157,833.9054 232.7669,833.9054 232.7669,828.2361 236.074,828.2361"/>
    <polygon points="236.074,828.2361 236.074,805.559 238.9086,805.559 238.9086,828.2361"/>
    <polygon points="234.9905,804.6133 234.0861,803.4193 233.7165,801.9678 233.9397,800.4868 234.7207,799.2087 235.9369,798.3344 237.3971,798.0011 238.8721,798.2612 240.1303,799.0738 240.9741,800.3113 241.2709,801.7794 241.1029,802.8935 240.3866,804.2089 239.2156,805.1427 237.7738,805.5484 236.2876,805.3622"/>
    <polygon points="293.9761,798.3344 295.4363,798.0011 296.9114,798.2612 298.1696,799.0738 299.0133,800.3113 299.3101,801.7794 299.1422,802.8935 298.4258,804.2089 297.2548,805.1427 295.813,805.5484 294.3268,805.3622 293.0297,804.6133 292.1253,803.4193 291.7557,801.9678 291.979,800.4868 292.76,799.2087"/>
    <polygon points="296.9479,805.559 296.9479,828.2361 294.1132,828.2361 294.1132,805.559"/>
    <polygon points="309.2077,839.5747 309.2077,906.441 223.8142,906.441 223.8142,839.5747"/>
    <line x1="327.0321" x2="327.2242" y1="869.1547" y2="876.7114"/>
    <line x1="331.2803" x2="330.8982" y1="876.5604" y2="869.011"/>
    <line x1="334.4054" x2="335.0407" y1="868.7781" y2="876.3104"/>
    <line x1="338.5247" x2="337.559" y1="875.9436" y2="868.4465"/>
    <line x1="340.3635" x2="341.7522" y1="868.009" y2="875.4394"/>
    <line x1="344.743" x2="342.8237" y1="874.7738" y2="867.4624"/>
    <line x1="344.9476" x2="347.5134" y1="866.8078" y2="873.918"/>
    <polygon points="346.1549,874.3716 341.7522,875.4394 333.1963,876.4488 320.5463,876.7874 320.5463,869.2284 330.8982,869.011 339.0046,868.2413 344.9476,866.8078 348.9199,864.7264 351.5123,861.8697 353.2996,857.5706 354.1809,852.7002 354.562,844.6614 362.1211,844.6614 361.693,853.5419 360.1911,860.9112 358.5968,864.7077 357.1855,866.9705 355.4828,868.9894 353.5024,870.7381 348.8194,873.4088"/>
    <line x1="350.0727" x2="346.7505" y1="872.8398" y2="866.0499"/>
    <line x1="348.261" x2="352.4168" y1="865.193" y2="871.5072"/>
    <line x1="354.5257" x2="349.5234" y1="869.8986" y2="864.2315"/>
    <line x1="350.5914" x2="356.3702" y1="863.1394" y2="868.0122"/>
    <line x1="357.9276" x2="351.5123" y1="865.8677" y2="861.8697"/>
    <line x1="352.3133" x2="359.195" y1="860.3662" y2="863.4937"/>
    <line x1="360.1911" x2="353.0004" y1="860.9112" y2="858.5803"/>
    <line x1="353.568" x2="360.9457" y1="856.4794" y2="858.1251"/>
    <line x1="361.4904" x2="354.0091" y1="855.1264" y2="854.0454"/>
    <line x1="354.3202" x2="361.8531" y1="851.2684" y2="851.8972"/>
    <line x1="362.0569" x2="354.5028" y1="848.4162" y2="848.1423"/>
    <line x1="354.562" x2="362.1211" y1="844.6614" y2="844.6614"/>
    <line x1="430.8686" x2="438.4277" y1="844.6614" y2="844.6614"/>
    <line x1="438.4869" x2="430.9328" y1="848.1423" y2="848.4162"/>
    <line x1="431.1366" x2="438.6694" y1="851.8972" y2="851.2684"/>
    <line x1="438.9806" x2="431.4992" y1="854.0454" y2="855.1264"/>
    <line x1="432.044" x2="439.4217" y1="858.1251" y2="856.4794"/>
    <line x1="439.9893" x2="432.7986" y1="858.5803" y2="860.9112"/>
    <line x1="433.7946" x2="440.6763" y1="863.4937" y2="860.3662"/>
    <line x1="441.4773" x2="435.0621" y1="861.8697" y2="865.8677"/>
    <line x1="436.6194" x2="442.3983" y1="868.0122" y2="863.1394"/>
    <line x1="443.4662" x2="438.464" y1="864.2315" y2="869.8986"/>
    <line x1="440.5729" x2="444.7286" y1="871.5072" y2="865.193"/>
    <line x1="446.2391" x2="442.9169" y1="866.0499" y2="872.8398"/>
    <line x1="445.4762" x2="448.042" y1="873.918" y2="866.8078"/>
    <line x1="450.1659" x2="448.2467" y1="867.4624" y2="874.7738"/>
    <polygon points="446.8347,874.3716 451.2374,875.4394 459.7934,876.4488 472.4434,876.7874 472.4434,869.2284 462.0915,869.011 453.985,868.2413 448.042,866.8078 444.0697,864.7264 441.4773,861.8697 439.6901,857.5706 438.8087,852.7002 438.4277,844.6614 430.8686,844.6614 431.2967,853.5419 432.7986,860.9112 434.3929,864.7077 435.8041,866.9705 437.5069,868.9894 439.4873,870.7381 444.1703,873.4088"/>
    <line x1="451.2374" x2="452.6262" y1="875.4394" y2="868.009"/>
    <line x1="455.4307" x2="454.465" y1="868.4465" y2="875.9436"/>
    <line x1="457.949" x2="458.5843" y1="876.3104" y2="868.7781"/>
    <line x1="462.0915" x2="461.7094" y1="869.011" y2="876.5604"/>
    <line x1="465.7655" x2="465.9575" y1="876.7114" y2="869.1547"/>
    <line x1="470.1887" x2="470.1354" y1="869.2207" y2="876.7796"/>
    <polyline points="472.4434,874.8976 478.1127,874.8976 478.1127,839.253 494.5744,839.253"/>
    <polyline points="497.8814,833.5837 494.5744,833.5837 494.5744,839.253 504.0232,839.253 504.0232,833.5837 500.7161,833.5837"/>
    <polygon points="497.8814,833.5837 497.8814,810.9066 500.7161,810.9066 500.7161,833.5837"/>
    <line x1="504.0232" x2="558.1326" y1="839.253" y2="839.253"/>
    <polyline points="561.4397,833.5837 558.1326,833.5837 558.1326,839.253 567.5814,839.253 567.5814,833.5837 564.2743,833.5837"/>
    <polyline points="567.5814,839.253 584.043,839.253 584.043,874.8976 589.7123,874.8976"/>
    <line x1="592.0204" x2="591.9671" y1="876.7796" y2="869.2207"/>
    <line x1="589.7123" x2="584.043" y1="871.1181" y2="871.1181"/>
    <polyline points="584.043,874.8976 584.043,906.7628 562.4842,906.7628 562.4842,923.3943"/>
    <line x1="562.4842" x2="573.8228" y1="921.8809" y2="921.8809"/>
    <polyline points="573.8228,923.3943 573.8228,906.7628 499.6715,906.7628 488.333,906.7628 488.333,923.3943"/>
    <line x1="488.333" x2="499.6715" y1="921.8809" y2="921.8809"/>
    <polyline points="499.6715,923.3943 499.6715,906.7628 478.1127,906.7628 478.1127,874.8976"/>
    <line x1="478.1127" x2="472.4434" y1="871.1181" y2="871.1181"/>
    <polygon points="483.782,844.9223 578.3738,844.9223 578.3738,901.0935 483.782,901.0935"/>
    <polygon points="509.0735,872.2992 509.6472,871.6389 510.3642,871.7804 510.8367,873.0079 510.7101,873.7165 510.1364,874.3769 509.4194,874.2353 509.0735,873.7165"/>
    <polygon points="509.8586,873.8408 509.516,873.0079 509.8586,872.175 510.2676,873.0079"/>
    <polyline points="527.2983,879.7589 527.5925,882.1307 528.4327,883.9473 529.6537,885.0541 531.2456,885.4232 532.7867,884.8781 533.9033,883.6786 534.6387,881.831 534.8574,879.7589"/>
    <polygon points="551.8882,873.0079 552.2307,872.175 552.6397,873.0079 552.2307,873.8408"/>
    <polygon points="552.9321,872.0057 553.2088,873.0079 552.9321,874.0101 552.5085,874.3769 551.7915,874.2353 551.4456,873.7165 551.4456,872.2992 552.0194,871.6389"/>
    <line x1="562.4842" x2="573.8228" y1="909.2824" y2="909.2824"/>
    <line x1="573.8228" x2="562.4842" y1="911.8021" y2="911.8021"/>
    <line x1="562.4842" x2="573.8228" y1="914.3218" y2="914.3218"/>
    <line x1="573.8228" x2="562.4842" y1="916.8415" y2="916.8415"/>
    <line x1="562.4842" x2="573.8228" y1="919.3612" y2="919.3612"/>
    <polygon points="559.442,926.5125 561.2759,924.2566 564.3218,922.5303 567.9656,921.8824 571.6388,922.4139 574.7681,924.042 576.865,926.5125 577.6023,929.4399 558.7047,929.4399"/>
    <line x1="499.6715" x2="488.333" y1="919.3612" y2="919.3612"/>
    <line x1="488.333" x2="499.6715" y1="916.8415" y2="916.8415"/>
    <line x1="499.6715" x2="488.333" y1="914.3218" y2="914.3218"/>
    <line x1="488.333" x2="499.6715" y1="911.8021" y2="911.8021"/>
    <line x1="499.6715" x2="488.333" y1="909.2824" y2="909.2824"/>
    <polygon points="497.4876,922.4139 500.6168,924.042 502.7137,926.5125 503.4511,929.4399 484.5534,929.4399 485.2908,926.5125 487.1247,924.2566 490.1705,922.5303 493.8144,921.8824"/>
    <line x1="596.3903" x2="596.1982" y1="876.7114" y2="869.1547"/>
    <line x1="600.0642" x2="600.4464" y1="869.011" y2="876.5604"/>
    <line x1="604.2068" x2="603.5715" y1="876.3104" y2="868.7781"/>
    <line x1="606.7251" x2="607.6907" y1="868.4465" y2="875.9436"/>
    <line x1="610.9183" x2="609.5296" y1="875.4394" y2="868.009"/>
    <line x1="611.9898" x2="613.909" y1="867.4624" y2="874.7738"/>
    <line x1="616.6795" x2="614.1137" y1="873.918" y2="866.8078"/>
    <line x1="615.9166" x2="619.2388" y1="866.0499" y2="872.8398"/>
    <line x1="621.5828" x2="617.4271" y1="871.5072" y2="865.193"/>
    <line x1="618.6895" x2="623.6918" y1="864.2315" y2="869.8986"/>
    <line x1="625.5363" x2="619.7575" y1="868.0122" y2="863.1394"/>
    <line x1="620.6784" x2="627.0937" y1="861.8697" y2="865.8677"/>
    <line x1="628.3611" x2="621.4794" y1="863.4937" y2="860.3662"/>
    <line x1="622.1665" x2="629.3572" y1="858.5803" y2="860.9112"/>
    <polygon points="629.3572,860.9112 627.7629,864.7077 626.3516,866.9705 624.6489,868.9894 622.6684,870.7381 617.9854,873.4088 615.321,874.3716 610.9183,875.4394 602.3623,876.4488 589.7123,876.7874 589.7123,869.2284 600.0642,869.011 608.1707,868.2413 614.1137,866.8078 618.086,864.7264 620.6784,861.8697 622.4657,857.5706 623.347,852.7002 623.7281,844.6614 631.2871,844.6614 630.859,853.5419"/>
    <line x1="630.1118" x2="622.7341" y1="858.1251" y2="856.4794"/>
    <line x1="623.1751" x2="630.6565" y1="854.0454" y2="855.1264"/>
    <line x1="631.0192" x2="623.4863" y1="851.8972" y2="851.2684"/>
    <line x1="623.6689" x2="631.223" y1="848.1423" y2="848.4162"/>
    <line x1="631.2871" x2="623.7281" y1="844.6614" y2="844.6614"/>
    <polygon points="562.7627,810.9054 561.3025,810.5721 560.3561,809.9608 559.4517,808.7669 559.0821,807.3154 559.3054,805.8344 560.0864,804.5563 561.3025,803.682 562.7627,803.3487 564.2378,803.6088 565.496,804.4214 566.3397,805.6589 566.6365,807.127 566.3397,808.5951 565.496,809.8327 564.2378,810.6453"/>
    <polygon points="561.4397,810.9066 564.2743,810.9066 564.2743,833.5837 561.4397,833.5837"/>
    <polygon points="495.5239,807.3154 495.7472,805.8344 496.5282,804.5563 497.7443,803.682 499.2045,803.3487 500.6796,803.6088 501.9378,804.4214 502.7815,805.6589 503.0783,807.127 502.7815,808.5951 501.9378,809.8327 500.6796,810.6453 499.2045,810.9054 498.095,810.7097 496.7979,809.9608 495.8935,808.7669"/>
    <polygon points="493.3994,652.1568 495.4963,654.6274 496.2337,657.5548 477.336,657.5548 478.0734,654.6274 480.1703,652.1568 482.9531,650.6451 486.597,649.9972 490.2702,650.5287"/>
    <polyline points="492.4541,651.5091 492.4541,634.8776 467.8021,634.8776 467.8021,572.5354"/>
    <line x1="467.8021" x2="462.1328" y1="568.7559" y2="568.7559"/>
    <line x1="459.8781" x2="459.8248" y1="566.8585" y2="574.4174"/>
    <polyline points="462.1328,572.5354 467.8021,572.5354 467.8021,506.4138 594.3536,506.4138 594.3536,634.8776 581.0402,634.8776 581.0402,651.5091"/>
    <line x1="581.0402" x2="569.7016" y1="649.9957" y2="649.9957"/>
    <polyline points="569.7016,651.5091 569.7016,634.8776 581.0402,634.8776 481.1156,634.8776 481.1156,651.5091"/>
    <line x1="481.1156" x2="492.4541" y1="649.9957" y2="649.9957"/>
    <line x1="492.4541" x2="481.1156" y1="647.476" y2="647.476"/>
    <line x1="481.1156" x2="492.4541" y1="644.9563" y2="644.9563"/>
    <line x1="492.4541" x2="481.1156" y1="642.4366" y2="642.4366"/>
    <line x1="481.1156" x2="492.4541" y1="639.917" y2="639.917"/>
    <line x1="492.4541" x2="481.1156" y1="637.3973" y2="637.3973"/>
    <line x1="455.4549" x2="455.6469" y1="574.3492" y2="566.7925"/>
    <line x1="451.7809" x2="451.3988" y1="566.6488" y2="574.1982"/>
    <line x1="447.6384" x2="448.2737" y1="573.9482" y2="566.4159"/>
    <line x1="445.1201" x2="444.1544" y1="566.0843" y2="573.5814"/>
    <line x1="440.9269" x2="442.3156" y1="573.0772" y2="565.6468"/>
    <line x1="439.8554" x2="437.9361" y1="565.1002" y2="572.4116"/>
    <line x1="435.1656" x2="437.7315" y1="571.5558" y2="564.4456"/>
    <line x1="435.9286" x2="432.6064" y1="563.6877" y2="570.4776"/>
    <line x1="430.2623" x2="434.4181" y1="569.145" y2="562.8308"/>
    <line x1="433.1557" x2="428.1534" y1="561.8693" y2="567.5364"/>
    <line x1="426.3088" x2="432.0877" y1="565.65" y2="560.7772"/>
    <polygon points="431.1668,559.5075 429.3795,555.2084 428.4982,550.338 428.1171,542.2992 420.558,542.2992 420.9861,551.1797 422.488,558.5489 424.0823,562.3455 425.4936,564.6083 427.1963,566.6271 429.1767,568.3759 433.8597,571.0466 436.5242,572.0094 440.9269,573.0772 449.4828,574.0866 462.1328,574.4252 462.1328,566.8661 451.7809,566.6488 443.6745,565.8791 437.7315,564.4456 433.7592,562.3642"/>
    <line x1="431.1668" x2="424.7515" y1="559.5075" y2="563.5055"/>
    <line x1="423.4841" x2="430.3658" y1="561.1315" y2="558.004"/>
    <line x1="429.6787" x2="422.488" y1="556.218" y2="558.5489"/>
    <line x1="421.7334" x2="429.1111" y1="555.7629" y2="554.1172"/>
    <line x1="428.67" x2="421.1887" y1="551.6832" y2="552.7642"/>
    <line x1="420.826" x2="428.3588" y1="549.535" y2="548.9062"/>
    <line x1="428.1763" x2="420.6222" y1="545.7801" y2="546.054"/>
    <line x1="420.558" x2="428.1171" y1="542.2992" y2="542.2992"/>
    <line x1="377.526" x2="369.967" y1="542.2992" y2="542.2992"/>
    <line x1="369.9078" x2="377.4619" y1="545.7801" y2="546.054"/>
    <line x1="377.2581" x2="369.7252" y1="549.535" y2="548.9062"/>
    <line x1="369.414" x2="376.8954" y1="551.6832" y2="552.7642"/>
    <line x1="376.3507" x2="368.9729" y1="555.7629" y2="554.1172"/>
    <line x1="368.4053" x2="375.596" y1="556.218" y2="558.5489"/>
    <line x1="374.6" x2="367.7183" y1="561.1315" y2="558.004"/>
    <line x1="366.9173" x2="373.3325" y1="559.5075" y2="563.5055"/>
    <polygon points="374.0018,562.3455 372.5905,564.6083 370.8878,566.6271 368.9073,568.3759 364.2243,571.0466 361.5599,572.0094 357.1572,573.0772 348.6012,574.0866 335.9512,574.4252 335.9512,566.8661 346.3031,566.6488 354.4096,565.8791 360.3526,564.4456 364.3249,562.3642 366.9173,559.5075 368.7046,555.2084 369.5859,550.338 369.967,542.2992 377.526,542.2992 377.0979,551.1797 375.596,558.5489"/>
    <line x1="371.7752" x2="365.9964" y1="565.65" y2="560.7772"/>
    <line x1="364.9284" x2="369.9306" y1="561.8693" y2="567.5364"/>
    <line x1="367.8217" x2="363.666" y1="569.145" y2="562.8308"/>
    <line x1="362.1555" x2="365.4777" y1="563.6877" y2="570.4776"/>
    <line x1="362.9184" x2="360.3526" y1="571.5558" y2="564.4456"/>
    <line x1="358.2287" x2="360.1479" y1="565.1002" y2="572.4116"/>
    <line x1="357.1572" x2="355.7685" y1="573.0772" y2="565.6468"/>
    <line x1="352.964" x2="353.9296" y1="566.0843" y2="573.5814"/>
    <line x1="350.4456" x2="349.8104" y1="573.9482" y2="566.4159"/>
    <line x1="346.3031" x2="346.6852" y1="566.6488" y2="574.1982"/>
    <line x1="342.6292" x2="342.4371" y1="574.3492" y2="566.7925"/>
    <line x1="338.206" x2="338.2593" y1="566.8585" y2="574.4174"/>
    <polyline points="335.9512,572.5354 330.2819,572.5354 330.2819,518.8619 309.4979,518.8619"/>
    <polyline points="306.1909,513.1926 309.4979,513.1926 309.4979,518.8619 300.0491,518.8619 300.0491,513.1926 303.3562,513.1926"/>
    <line x1="300.0491" x2="232.9728" y1="518.8619" y2="518.8619"/>
    <polyline points="229.6657,513.1926 232.9728,513.1926 232.9728,518.8619 223.5239,518.8619 223.5239,513.1926 226.831,513.1926"/>
    <polyline points="223.5239,518.8619 202.74,518.8619 202.74,572.5354 197.0707,572.5354"/>
    <line x1="194.7626" x2="194.8159" y1="574.4174" y2="566.8585"/>
    <line x1="197.0707" x2="202.74" y1="568.7559" y2="568.7559"/>
    <polyline points="202.74,572.5354 202.74,622.4295 227.5405,622.4295 227.5405,639.061"/>
    <line x1="227.5405" x2="216.202" y1="637.5476" y2="637.5476"/>
    <polyline points="216.202,639.061 216.202,622.4295 330.2819,622.4295 330.2819,572.5354"/>
    <line x1="330.2819" x2="335.9512" y1="568.7559" y2="568.7559"/>
    <polygon points="292.9642,570.6457 292.8376,571.3543 292.2639,572.0147 291.7748,572.0147 291.201,571.3543 291.201,569.937 291.7748,569.2766 292.4918,569.4182"/>
    <polygon points="291.6436,570.6457 291.9861,569.8128 292.3951,570.6457 291.9861,571.4786"/>
    <polyline points="270.2905,581.0024 270.0717,583.0745 269.3363,584.9222 268.2198,586.1217 266.6787,586.6668 265.0868,586.2977 263.8657,585.1909 263.0255,583.3743 262.7314,581.0024"/>
    <polygon points="240.9693,571.4786 240.6268,570.6457 240.9693,569.8128 241.3783,570.6457"/>
    <polygon points="240.758,569.2766 241.475,569.4182 241.9474,570.6457 241.8208,571.3543 241.2471,572.0147 240.758,572.0147 240.1843,571.3543 240.1843,569.937"/>
    <line x1="190.5848" x2="190.3927" y1="566.7925" y2="574.3492"/>
    <line x1="186.3366" x2="186.7187" y1="574.1982" y2="566.6488"/>
    <line x1="183.2115" x2="182.5762" y1="566.4159" y2="573.9482"/>
    <line x1="179.0922" x2="180.0579" y1="573.5814" y2="566.0843"/>
    <line x1="177.2534" x2="175.8647" y1="565.6468" y2="573.0772"/>
    <line x1="172.8739" x2="174.7932" y1="572.4116" y2="565.1002"/>
    <line x1="172.6693" x2="170.1035" y1="564.4456" y2="571.5558"/>
    <line x1="167.5442" x2="170.8664" y1="570.4776" y2="563.6877"/>
    <line x1="169.3559" x2="165.2002" y1="562.8308" y2="569.145"/>
    <line x1="163.0912" x2="168.0935" y1="567.5364" y2="561.8693"/>
    <line x1="167.0255" x2="161.2467" y1="560.7772" y2="565.65"/>
    <line x1="159.6893" x2="166.1046" y1="563.5055" y2="559.5075"/>
    <line x1="165.3036" x2="158.4219" y1="558.004" y2="561.1315"/>
    <line x1="157.4258" x2="164.6165" y1="558.5489" y2="556.218"/>
    <line x1="164.0489" x2="156.6712" y1="554.1172" y2="555.7629"/>
    <line x1="156.1265" x2="163.6079" y1="552.7642" y2="551.6832"/>
    <line x1="163.2967" x2="155.7638" y1="548.9062" y2="549.535"/>
    <polygon points="155.924,551.1797 157.4258,558.5489 159.0201,562.3455 160.4314,564.6083 162.1341,566.6271 164.1145,568.3759 168.7975,571.0466 171.462,572.0094 175.8647,573.0772 184.4207,574.0866 197.0707,574.4252 197.0707,566.8661 186.7187,566.6488 178.6123,565.8791 172.6693,564.4456 168.697,562.3642 166.1046,559.5075 164.3173,555.2084 163.436,550.338 163.0549,542.2992 155.4959,542.2992"/>
    <line x1="155.56" x2="163.1141" y1="546.054" y2="545.7801"/>
    <line x1="163.0549" x2="155.4959" y1="542.2992" y2="542.2992"/>
    <polygon points="229.6657,490.5154 229.6657,513.1926 226.831,513.1926 226.831,490.5154"/>
    <polygon points="232.0279,486.7359 231.7311,488.204 230.8874,489.4415 229.6292,490.2542 228.1541,490.5143 226.6939,490.181 225.4778,489.3066 224.6968,488.0286 224.4735,486.5475 224.8431,485.096 225.7475,483.9021 227.0446,483.1532 228.1541,482.9576 229.6292,483.2176 230.8874,484.0303 231.7311,485.2678"/>
    <polygon points="303.3562,490.5154 306.1909,490.5154 306.1909,513.1926 303.3562,513.1926"/>
    <polygon points="307.4125,484.0303 308.2563,485.2678 308.5531,486.7359 308.2563,488.204 307.4125,489.4415 306.1544,490.2542 304.6793,490.5143 303.2191,490.181 302.0029,489.3066 301.2219,488.0286 300.9987,486.5475 301.3683,485.096 302.2727,483.9021 303.2191,483.2908 304.6793,482.9576 306.1544,483.2176"/>
    <line x1="305.4813" x2="316.8199" y1="624.9491" y2="624.9491"/>
    <line x1="316.8199" x2="305.4813" y1="627.4688" y2="627.4688"/>
    <line x1="305.4813" x2="316.8199" y1="629.9885" y2="629.9885"/>
    <line x1="316.8199" x2="305.4813" y1="632.5082" y2="632.5082"/>
    <line x1="305.4813" x2="316.8199" y1="635.0279" y2="635.0279"/>
    <line x1="316.8199" x2="305.4813" y1="637.5476" y2="637.5476"/>
    <polyline points="305.4813,639.061 305.4813,622.4295 316.8199,622.4295 316.8199,639.061"/>
    <polygon points="304.273,639.9233 307.3189,638.197 310.9628,637.5491 314.636,638.0806 317.7652,639.7087 319.8621,642.1792 320.5995,645.1066 301.7018,645.1066 302.4391,642.1792"/>
    <line x1="227.5405" x2="216.202" y1="635.0279" y2="635.0279"/>
    <line x1="216.202" x2="227.5405" y1="632.5082" y2="632.5082"/>
    <line x1="227.5405" x2="216.202" y1="629.9885" y2="629.9885"/>
    <line x1="216.202" x2="227.5405" y1="627.4688" y2="627.4688"/>
    <line x1="227.5405" x2="216.202" y1="624.9491" y2="624.9491"/>
    <polygon points="208.4092,616.7602 208.4092,524.5312 324.6126,524.5312 324.6126,616.7602"/>
    <polygon points="225.3566,638.0806 228.4858,639.7087 230.5827,642.1792 231.3201,645.1066 212.4224,645.1066 213.0212,642.4586 214.9937,639.9233 218.0395,638.197 221.6834,637.5491"/>
    <line x1="178.4599" x2="170.9008" y1="844.6614" y2="844.6614"/>
    <line x1="170.965" x2="178.5191" y1="848.4162" y2="848.1423"/>
    <line x1="178.7016" x2="171.1688" y1="851.2684" y2="851.8972"/>
    <line x1="171.5315" x2="179.0128" y1="855.1264" y2="854.0454"/>
    <line x1="179.4539" x2="172.0762" y1="856.4794" y2="858.1251"/>
    <line x1="172.8308" x2="180.0215" y1="860.9112" y2="858.5803"/>
    <line x1="180.7086" x2="173.8268" y1="860.3662" y2="863.4937"/>
    <line x1="175.0943" x2="181.5095" y1="865.8677" y2="861.8697"/>
    <polygon points="181.5095,861.8697 179.7223,857.5706 178.841,852.7002 178.4599,844.6614 170.9008,844.6614 171.3289,853.5419 172.8308,860.9112 174.4251,864.7077 175.8363,866.9705 177.5391,868.9894 179.5195,870.7381 184.2025,873.4088 186.867,874.3716 191.2696,875.4394 199.8256,876.4488 212.4756,876.7874 212.4756,869.2284 202.1237,869.011 194.0173,868.2413 188.0743,866.8078 184.1019,864.7264"/>
    <line x1="182.4305" x2="176.6516" y1="863.1394" y2="868.0122"/>
    <line x1="178.4962" x2="183.4985" y1="869.8986" y2="864.2315"/>
    <line x1="184.7609" x2="180.6051" y1="865.193" y2="871.5072"/>
    <line x1="182.9491" x2="186.2713" y1="872.8398" y2="866.0499"/>
    <line x1="188.0743" x2="185.5084" y1="866.8078" y2="873.918"/>
    <line x1="188.2789" x2="190.1981" y1="874.7738" y2="867.4624"/>
    <line x1="192.6584" x2="191.2696" y1="868.009" y2="875.4394"/>
    <line x1="194.4972" x2="195.4629" y1="875.9436" y2="868.4465"/>
    <line x1="198.6165" x2="197.9812" y1="868.7781" y2="876.3104"/>
    <line x1="201.7416" x2="202.1237" y1="876.5604" y2="869.011"/>
    <line x1="205.9897" x2="205.7977" y1="869.1547" y2="876.7114"/>
    <polygon points="247.1313,872.175 247.5403,873.0079 247.1313,873.8408 246.7888,873.0079"/>
    <polygon points="247.8327,872.0057 248.1094,873.0079 247.9828,873.7165 247.4091,874.3769 246.6921,874.2353 246.3462,873.7165 246.3462,872.2992 246.92,871.6389"/>
    <polyline points="262.7314,880.8284 263.0255,883.2002 263.8657,885.0168 265.0868,886.1236 266.6787,886.4927 268.2198,885.9476 269.3363,884.7482 270.0717,882.9005 270.2905,880.8284"/>
    <polygon points="285.3849,874.2353 285.0391,873.7165 285.0391,872.2992 285.6128,871.6389 286.3298,871.7804 286.8022,873.0079 286.6756,873.7165 286.1019,874.3769"/>
    <polygon points="285.8241,872.175 286.2331,873.0079 285.8241,873.8408 285.4816,873.0079"/>
    <line x1="294.6979" x2="306.0365" y1="914.63" y2="914.63"/>
    <line x1="306.0365" x2="294.6979" y1="917.1497" y2="917.1497"/>
    <line x1="294.6979" x2="306.0365" y1="919.6694" y2="919.6694"/>
    <line x1="306.0365" x2="294.6979" y1="922.1891" y2="922.1891"/>
    <line x1="294.6979" x2="306.0365" y1="924.7088" y2="924.7088"/>
    <line x1="238.324" x2="226.9854" y1="924.7088" y2="924.7088"/>
    <line x1="226.9854" x2="238.324" y1="927.2284" y2="927.2284"/>
    <polyline points="238.324,928.7419 238.324,912.1103 226.9854,912.1103 226.9854,928.7419"/>
    <line x1="226.9854" x2="238.324" y1="922.1891" y2="922.1891"/>
    <line x1="238.324" x2="226.9854" y1="919.6694" y2="919.6694"/>
    <line x1="226.9854" x2="238.324" y1="917.1497" y2="917.1497"/>
    <line x1="238.324" x2="226.9854" y1="914.63" y2="914.63"/>
    <polygon points="236.1401,927.7615 239.2693,929.3896 241.3662,931.8601 242.1035,934.7875 223.2059,934.7875 223.9432,931.8601 225.7771,929.6042 228.823,927.8779 232.4669,927.2299"/>
    <line x1="569.7016" x2="581.0402" y1="647.476" y2="647.476"/>
    <line x1="581.0402" x2="569.7016" y1="644.9563" y2="644.9563"/>
    <line x1="569.7016" x2="581.0402" y1="642.4366" y2="642.4366"/>
    <line x1="581.0402" x2="569.7016" y1="639.917" y2="639.917"/>
    <line x1="569.7016" x2="581.0402" y1="637.3973" y2="637.3973"/>
    <polygon points="588.6843,629.2083 473.4714,629.2083 473.4714,512.0831 588.6843,512.0831"/>
    <polygon points="575.183,649.9972 578.8562,650.5287 581.9855,652.1568 584.0824,654.6274 584.8197,657.5548 565.9221,657.5548 566.5208,654.9067 568.4933,652.3715 571.5392,650.6451"/>
    <polyline points="534.8574,583.4921 534.6387,585.5642 533.9033,587.4118 532.7867,588.6113 531.2456,589.1564 529.6537,588.7873 528.4327,587.6805 527.5925,585.8639 527.2983,583.4921"/>
    <polygon points="505.7343,571.4786 505.3918,570.6457 505.7343,569.8128 506.1433,570.6457"/>
    <polygon points="504.9493,571.3543 504.9493,569.937 505.523,569.2766 506.24,569.4182 506.7125,570.6457 506.5859,571.3543 506.0121,572.0147 505.523,572.0147"/>
    <polygon points="555.5699,569.937 556.1436,569.2766 556.8606,569.4182 557.333,570.6457 557.2065,571.3543 556.6327,572.0147 556.1436,572.0147 555.5699,571.3543"/>
    <polygon points="556.3549,571.4786 556.0124,570.6457 556.3549,569.8128 556.7639,570.6457"/>
    <polyline points="600.0229,572.5354 594.3536,572.5354 594.3536,568.7559 600.0229,568.7559"/>
    <line x1="602.2777" x2="602.3309" y1="566.8585" y2="574.4174"/>
    <line x1="606.7009" x2="606.5088" y1="574.3492" y2="566.7925"/>
    <polygon points="610.3748,566.6488 618.4813,565.8791 624.4243,564.4456 628.3966,562.3642 630.989,559.5075 632.7762,555.2084 633.6576,550.338 634.0387,542.2992 641.5977,542.2992 641.1696,551.1797 639.6677,558.5489 638.0734,562.3455 636.6622,564.6083 634.9594,566.6271 632.979,568.3759 628.296,571.0466 625.6316,572.0094 621.2289,573.0772 612.6729,574.0866 600.0229,574.4252 600.0229,566.8661"/>
    <line x1="610.3748" x2="610.7569" y1="566.6488" y2="574.1982"/>
    <line x1="614.5173" x2="613.882" y1="573.9482" y2="566.4159"/>
    <line x1="617.0357" x2="618.0013" y1="566.0843" y2="573.5814"/>
    <line x1="621.2289" x2="619.8401" y1="573.0772" y2="565.6468"/>
    <line x1="622.3004" x2="624.2196" y1="565.1002" y2="572.4116"/>
    <line x1="626.9901" x2="624.4243" y1="571.5558" y2="564.4456"/>
    <line x1="626.2272" x2="629.5494" y1="563.6877" y2="570.4776"/>
    <line x1="631.8934" x2="627.7377" y1="569.145" y2="562.8308"/>
    <line x1="629.0001" x2="634.0023" y1="561.8693" y2="567.5364"/>
    <line x1="635.8469" x2="630.068" y1="565.65" y2="560.7772"/>
    <line x1="630.989" x2="637.4042" y1="559.5075" y2="563.5055"/>
    <line x1="638.6717" x2="631.79" y1="561.1315" y2="558.004"/>
    <line x1="632.477" x2="639.6677" y1="556.218" y2="558.5489"/>
    <line x1="640.4224" x2="633.0446" y1="555.7629" y2="554.1172"/>
    <line x1="633.4857" x2="640.9671" y1="551.6832" y2="552.7642"/>
    <line x1="641.3297" x2="633.7969" y1="549.535" y2="548.9062"/>
    <line x1="633.9795" x2="641.5335" y1="545.7801" y2="546.054"/>
    <line x1="641.5977" x2="634.0387" y1="542.2992" y2="542.2992"/>
    <polygon points="570.4606,500.7445 567.626,500.7445 567.626,478.0673 570.4606,478.0673"/>
    <polyline points="570.4606,500.7445 573.7677,500.7445 573.7677,506.4138 564.3189,506.4138 564.3189,500.7445 567.626,500.7445"/>
    <polygon points="567.4888,470.8427 568.9491,470.5094 570.4241,470.7695 571.6823,471.5821 572.5261,472.8197 572.8228,474.2878 572.5261,475.7559 571.6823,476.9934 570.4241,477.806 568.9491,478.0661 567.4888,477.7328 566.2727,476.8585 565.4917,475.5805 565.2685,474.0994 565.6381,472.6479 566.5425,471.454"/>
    <polygon points="494.4932,477.806 493.0182,478.0661 491.558,477.7328 490.3418,476.8585 489.5608,475.5805 489.3376,474.0994 489.7072,472.6479 490.6116,471.454 491.558,470.8427 493.0182,470.5094 494.4932,470.7695 495.7514,471.5821 496.5952,472.8197 496.892,474.2878 496.5952,475.7559 495.7514,476.9934"/>
    <polyline points="494.5297,500.7445 497.8368,500.7445 497.8368,506.4138 488.388,506.4138 488.388,500.7445 491.6951,500.7445"/>
    <polygon points="491.6951,500.7445 491.6951,478.0673 494.5297,478.0673 494.5297,500.7445"/>
    <polygon points="506.415,335.6076 507.1523,332.6802 509.2493,330.2097 512.0321,328.698 515.676,328.05 519.3492,328.5816 522.4784,330.2097 524.5753,332.6802 525.3126,335.6076"/>
    <polyline points="510.1945,329.562 510.1945,312.9304 552.8122,312.9304 552.8122,223.6365 548.8429,223.6365"/>
    <polyline points="545.5358,217.9672 548.8429,217.9672 548.8429,223.6365 539.3941,223.6365 539.3941,217.9672 542.7012,217.9672"/>
    <line x1="539.3941" x2="522.7617" y1="223.6365" y2="223.6365"/>
    <polyline points="519.4546,217.9672 522.7617,217.9672 522.7617,223.6365 513.3129,223.6365 513.3129,217.9672 516.6199,217.9672"/>
    <polygon points="516.6199,217.9672 516.6199,195.2901 519.4546,195.2901 519.4546,217.9672"/>
    <polyline points="513.3129,223.6365 509.3435,223.6365 509.3435,270.1732 503.6742,270.1732"/>
    <line x1="501.3662" x2="501.4195" y1="272.0552" y2="264.4963"/>
    <line x1="503.6742" x2="509.3435" y1="266.3937" y2="266.3937"/>
    <polyline points="509.3435,270.1732 509.3435,312.9304 521.5331,312.9304 521.5331,329.562"/>
    <line x1="521.5331" x2="510.1945" y1="328.0485" y2="328.0485"/>
    <line x1="510.1945" x2="521.5331" y1="325.5289" y2="325.5289"/>
    <line x1="521.5331" x2="510.1945" y1="323.0092" y2="323.0092"/>
    <line x1="510.1945" x2="521.5331" y1="320.4895" y2="320.4895"/>
    <line x1="521.5331" x2="510.1945" y1="317.9698" y2="317.9698"/>
    <line x1="510.1945" x2="521.5331" y1="315.4501" y2="315.4501"/>
    <polygon points="515.0128,307.2611 515.0128,229.3058 547.1429,229.3058 547.1429,307.2611"/>
    <line x1="540.6226" x2="551.9612" y1="315.4501" y2="315.4501"/>
    <line x1="551.9612" x2="540.6226" y1="317.9698" y2="317.9698"/>
    <line x1="540.6226" x2="551.9612" y1="320.4895" y2="320.4895"/>
    <line x1="551.9612" x2="540.6226" y1="323.0092" y2="323.0092"/>
    <line x1="540.6226" x2="551.9612" y1="325.5289" y2="325.5289"/>
    <line x1="551.9612" x2="540.6226" y1="328.0485" y2="328.0485"/>
    <polyline points="540.6226,329.562 540.6226,312.9304 551.9612,312.9304 551.9612,329.562"/>
    <polygon points="537.4418,332.9596 539.4143,330.4243 542.4602,328.698 546.104,328.05 549.7772,328.5816 552.9065,330.2097 555.0034,332.6802 555.7407,335.6076 536.8431,335.6076"/>
    <polyline points="534.8574,277.2129 534.6387,279.285 533.9033,281.1326 532.7867,282.3321 531.2456,282.8772 529.6537,282.5081 528.4327,281.4013 527.5925,279.5847 527.2983,277.2129"/>
    <polygon points="523.2024,268.9921 522.6287,269.6525 521.9117,269.5109 521.5658,268.9921 521.5658,267.5748 522.1396,266.9144 522.8566,267.056 523.329,268.2835"/>
    <polygon points="522.3509,269.1164 522.0084,268.2835 522.3509,267.4506 522.7599,268.2835"/>
    <polygon points="539.7384,269.1164 539.3958,268.2835 539.7384,267.4506 540.1474,268.2835"/>
    <polygon points="540.7165,268.2835 540.4397,269.2857 540.0162,269.6525 539.2992,269.5109 538.9533,268.9921 538.9533,267.5748 539.5271,266.9144 540.4397,267.2813"/>
    <polyline points="558.4815,266.3937 552.8122,266.3937 552.8122,270.1732 558.4815,270.1732"/>
    <line x1="560.7895" x2="560.7363" y1="272.0552" y2="264.4963"/>
    <line x1="564.9674" x2="565.1595" y1="264.4303" y2="271.9869"/>
    <line x1="569.2155" x2="568.8334" y1="271.836" y2="264.2866"/>
    <line x1="572.3406" x2="572.9759" y1="264.0537" y2="271.586"/>
    <line x1="576.4599" x2="575.4943" y1="271.2192" y2="263.7221"/>
    <line x1="578.2987" x2="579.6875" y1="263.2846" y2="270.715"/>
    <line x1="582.6782" x2="580.759" y1="270.0494" y2="262.738"/>
    <line x1="582.8829" x2="585.4487" y1="262.0834" y2="269.1936"/>
    <line x1="588.008" x2="584.6858" y1="268.1154" y2="261.3255"/>
    <line x1="586.1963" x2="590.352" y1="260.4686" y2="266.7828"/>
    <line x1="592.4609" x2="587.4587" y1="265.1742" y2="259.5071"/>
    <line x1="588.5266" x2="594.3055" y1="258.415" y2="263.2878"/>
    <line x1="595.8628" x2="589.4476" y1="261.1433" y2="257.1453"/>
    <polygon points="589.4476,257.1453 591.2349,252.8462 592.1162,247.9758 592.4973,239.937 600.0563,239.937 599.6282,248.8175 598.1263,256.1867 596.532,259.9833 595.1208,262.246 593.418,264.2649 591.4376,266.0137 586.7546,268.6844 584.0902,269.6472 579.6875,270.715 571.1315,271.7244 558.4815,272.063 558.4815,264.5039 568.8334,264.2866 576.9399,263.5169 582.8829,262.0834 586.8552,260.002"/>
    <line x1="590.2486" x2="597.1303" y1="255.6418" y2="258.7693"/>
    <line x1="598.1263" x2="590.9356" y1="256.1867" y2="253.8558"/>
    <line x1="591.5032" x2="598.881" y1="251.755" y2="253.4007"/>
    <line x1="599.4257" x2="591.9443" y1="250.402" y2="249.321"/>
    <line x1="592.2555" x2="599.7884" y1="246.544" y2="247.1728"/>
    <line x1="599.9922" x2="592.4381" y1="243.6918" y2="243.4179"/>
    <line x1="592.4973" x2="600.0563" y1="239.937" y2="239.937"/>
    <polygon points="542.7012,195.2901 545.5358,195.2901 545.5358,217.9672 542.7012,217.9672"/>
    <polygon points="542.564,188.0655 544.0243,187.7322 545.4993,187.9923 546.7575,188.8049 547.6012,190.0424 547.898,191.5105 547.6012,192.9786 546.7575,194.2162 545.4993,195.0288 544.0243,195.2889 542.564,194.9556 541.3479,194.0813 540.7132,193.1504 540.3436,191.6989 540.5669,190.2179 541.3479,188.9398"/>
    <polygon points="514.632,193.1504 514.2624,191.6989 514.4857,190.2179 515.2667,188.9398 516.4828,188.0655 517.943,187.7322 519.4181,187.9923 520.6763,188.8049 521.52,190.0424 521.8168,191.5105 521.52,192.9786 520.6763,194.2162 519.4181,195.0288 517.943,195.2889 516.4828,194.9556 515.2667,194.0813"/>
    <line x1="469.6585" x2="462.0994" y1="239.937" y2="239.937"/>
    <line x1="462.1636" x2="469.7177" y1="243.6918" y2="243.4179"/>
    <line x1="469.9002" x2="462.3674" y1="246.544" y2="247.1728"/>
    <line x1="462.7301" x2="470.2114" y1="250.402" y2="249.321"/>
    <line x1="470.6525" x2="463.2748" y1="251.755" y2="253.4007"/>
    <line x1="464.0294" x2="471.2201" y1="256.1867" y2="253.8558"/>
    <line x1="471.9072" x2="465.0255" y1="255.6418" y2="258.7693"/>
    <line x1="466.2929" x2="472.7082" y1="261.1433" y2="257.1453"/>
    <line x1="473.6291" x2="467.8502" y1="258.415" y2="263.2878"/>
    <line x1="469.6948" x2="474.6971" y1="265.1742" y2="259.5071"/>
    <line x1="475.9595" x2="471.8037" y1="260.4686" y2="266.7828"/>
    <line x1="474.1478" x2="477.47" y1="268.1154" y2="261.3255"/>
    <line x1="479.2729" x2="476.707" y1="262.0834" y2="269.1936"/>
    <line x1="479.4775" x2="481.3968" y1="270.0494" y2="262.738"/>
    <line x1="483.857" x2="482.4683" y1="263.2846" y2="270.715"/>
    <polygon points="482.4683,270.715 491.0242,271.7244 503.6742,272.063 503.6742,264.5039 493.3223,264.2866 485.2159,263.5169 479.2729,262.0834 475.3005,260.002 472.7082,257.1453 470.9209,252.8462 470.0396,247.9758 469.6585,239.937 462.0994,239.937 462.5275,248.8175 464.0294,256.1867 465.6237,259.9833 467.035,262.246 468.7377,264.2649 470.7181,266.0137 475.4011,268.6844 478.0656,269.6472"/>
    <line x1="485.6958" x2="486.6615" y1="271.2192" y2="263.7221"/>
    <line x1="489.8151" x2="489.1798" y1="264.0537" y2="271.586"/>
    <line x1="492.9402" x2="493.3223" y1="271.836" y2="264.2866"/>
    <line x1="497.1883" x2="496.9963" y1="264.4303" y2="271.9869"/>
    <line x1="380.2882" x2="372.8068" y1="250.402" y2="249.321"/>
    <line x1="372.3657" x2="379.7435" y1="251.755" y2="253.4007"/>
    <line x1="378.9888" x2="371.7981" y1="256.1867" y2="253.8558"/>
    <line x1="371.1111" x2="377.9928" y1="255.6418" y2="258.7693"/>
    <line x1="376.7253" x2="370.3101" y1="261.1433" y2="257.1453"/>
    <line x1="369.3891" x2="375.168" y1="258.415" y2="263.2878"/>
    <line x1="373.3234" x2="368.3212" y1="265.1742" y2="259.5071"/>
    <line x1="367.0588" x2="371.2145" y1="260.4686" y2="266.7828"/>
    <line x1="368.8705" x2="365.5483" y1="268.1154" y2="261.3255"/>
    <line x1="363.7454" x2="366.3112" y1="262.0834" y2="269.1936"/>
    <polygon points="367.6171,268.6844 364.9527,269.6472 360.55,270.715 351.994,271.7244 339.344,272.063 339.344,264.5039 349.6959,264.2866 357.8024,263.5169 363.7454,262.0834 367.7177,260.002 370.3101,257.1453 372.0973,252.8462 372.9787,247.9758 373.3597,239.937 380.9188,239.937 380.4907,248.8175 378.9888,256.1867 377.3945,259.9833 375.9833,262.246 374.2805,264.2649 372.3001,266.0137"/>
    <line x1="363.5407" x2="361.6215" y1="270.0494" y2="262.738"/>
    <line x1="359.1612" x2="360.55" y1="263.2846" y2="270.715"/>
    <line x1="357.3224" x2="356.3567" y1="271.2192" y2="263.7221"/>
    <line x1="353.2031" x2="353.8384" y1="264.0537" y2="271.586"/>
    <line x1="350.078" x2="349.6959" y1="271.836" y2="264.2866"/>
    <line x1="345.8299" x2="346.0219" y1="264.4303" y2="271.9869"/>
    <line x1="341.652" x2="341.5987" y1="272.0552" y2="264.4963"/>
    <line x1="339.344" x2="333.6747" y1="266.3937" y2="266.3937"/>
    <polyline points="333.6747,270.1732 333.6747,304.4692 199.3472,304.4692 199.3472,270.1732"/>
    <line x1="199.3472" x2="193.6779" y1="266.3937" y2="266.3937"/>
    <line x1="191.4231" x2="191.3699" y1="264.4963" y2="272.0552"/>
    <polyline points="193.6779,270.1732 199.3472,270.1732 199.3472,232.0978 221.4883,232.0978"/>
    <polyline points="224.7954,226.4285 221.4883,226.4285 221.4883,232.0978 230.9371,232.0978 230.9371,226.4285 227.63,226.4285"/>
    <polygon points="227.63,226.4285 224.7954,226.4285 224.7954,203.7513 227.63,203.7513"/>
    <line x1="230.9371" x2="302.0848" y1="232.0978" y2="232.0978"/>
    <polyline points="305.3919,226.4285 302.0848,226.4285 302.0848,232.0978 311.5336,232.0978 311.5336,226.4285 308.2265,226.4285"/>
    <polygon points="308.2265,226.4285 305.3919,226.4285 305.3919,203.7513 308.2265,203.7513"/>
    <polyline points="311.5336,232.0978 333.6747,232.0978 333.6747,270.1732 339.344,270.1732"/>
    <line x1="373.118" x2="380.6508" y1="246.544" y2="247.1728"/>
    <line x1="380.8546" x2="373.3006" y1="243.6918" y2="243.4179"/>
    <line x1="373.3597" x2="380.9188" y1="239.937" y2="239.937"/>
    <polygon points="310.2919,198.5037 310.5887,199.9718 310.2919,201.4399 309.4482,202.6774 308.19,203.49 306.715,203.7501 305.6055,203.5545 304.3083,202.8056 303.404,201.6117 303.0344,200.1602 303.2576,198.6791 304.0386,197.401 305.2547,196.5267 306.715,196.1934 308.19,196.4535 309.4482,197.2661"/>
    <polygon points="293.3432,267.4506 293.7522,268.2835 293.3432,269.1164 293.0007,268.2835"/>
    <polygon points="292.5582,268.9921 292.5582,267.5748 293.1319,266.9144 293.8489,267.056 294.3213,268.2835 294.1947,268.9921 293.621,269.6525 292.904,269.5109"/>
    <polyline points="270.2905,275.5206 270.0717,277.5927 269.3363,279.4404 268.2198,280.6398 266.6787,281.1849 265.0868,280.8159 263.8657,279.7091 263.0255,277.8924 262.7314,275.5206"/>
    <polygon points="239.6122,267.4506 240.0212,268.2835 239.6122,269.1164 239.2697,268.2835"/>
    <polygon points="238.8271,268.9921 238.7327,267.9166 239.4009,266.9144 240.3136,267.2813 240.5903,268.2835 240.3136,269.2857 239.89,269.6525 239.173,269.5109"/>
    <line x1="225.1656" x2="213.827" y1="306.9889" y2="306.9889"/>
    <line x1="213.827" x2="225.1656" y1="309.5086" y2="309.5086"/>
    <line x1="225.1656" x2="213.827" y1="312.0282" y2="312.0282"/>
    <line x1="213.827" x2="225.1656" y1="314.5479" y2="314.5479"/>
    <line x1="225.1656" x2="213.827" y1="317.0676" y2="317.0676"/>
    <line x1="213.827" x2="225.1656" y1="319.5873" y2="319.5873"/>
    <polyline points="225.1656,321.1007 225.1656,304.4692 213.827,304.4692 213.827,321.1007"/>
    <polygon points="228.2078,324.2189 228.9451,327.1464 210.0475,327.1464 210.7848,324.2189 212.8817,321.7484 215.6646,320.2367 219.3084,319.5888 222.9816,320.1203 226.1109,321.7484"/>
    <polygon points="205.0165,298.7999 205.0165,237.7671 328.0054,237.7671 328.0054,298.7999"/>
    <line x1="186.9999" x2="187.192" y1="271.9869" y2="264.4303"/>
    <line x1="183.326" x2="182.9439" y1="264.2866" y2="271.836"/>
    <line x1="179.1835" x2="179.8187" y1="271.586" y2="264.0537"/>
    <line x1="176.6651" x2="175.6995" y1="263.7221" y2="271.2192"/>
    <line x1="172.4719" x2="173.8606" y1="270.715" y2="263.2846"/>
    <line x1="171.4004" x2="169.4812" y1="262.738" y2="270.0494"/>
    <line x1="166.7107" x2="169.2765" y1="269.1936" y2="262.0834"/>
    <line x1="167.4736" x2="164.1514" y1="261.3255" y2="268.1154"/>
    <line x1="161.8074" x2="165.9631" y1="266.7828" y2="260.4686"/>
    <polygon points="165.3042,260.002 162.7118,257.1453 160.9245,252.8462 160.0432,247.9758 159.6621,239.937 152.1031,239.937 152.5312,248.8175 154.0331,256.1867 155.6273,259.9833 157.0386,262.246 158.7413,264.2649 160.7218,266.0137 165.4048,268.6844 168.0692,269.6472 172.4719,270.715 181.0279,271.7244 193.6779,272.063 193.6779,264.5039 183.326,264.2866 175.2195,263.5169 169.2765,262.0834"/>
    <line x1="164.7007" x2="159.6985" y1="259.5071" y2="265.1742"/>
    <line x1="157.8539" x2="163.6327" y1="263.2878" y2="258.415"/>
    <line x1="162.7118" x2="156.2966" y1="257.1453" y2="261.1433"/>
    <line x1="155.0291" x2="161.9108" y1="258.7693" y2="255.6418"/>
    <line x1="161.2238" x2="154.0331" y1="253.8558" y2="256.1867"/>
    <line x1="153.2784" x2="160.6562" y1="253.4007" y2="251.755"/>
    <line x1="160.2151" x2="152.7337" y1="249.321" y2="250.402"/>
    <line x1="152.371" x2="159.9039" y1="247.1728" y2="246.544"/>
    <line x1="159.7213" x2="152.1672" y1="243.4179" y2="243.6918"/>
    <line x1="152.1031" x2="159.6621" y1="239.937" y2="239.937"/>
    <polygon points="228.8517,202.6774 227.5935,203.49 226.1185,203.7501 225.009,203.5545 223.7118,202.8056 222.8074,201.6117 222.4379,200.1602 222.6611,198.6791 223.4421,197.401 224.6582,196.5267 226.1185,196.1934 227.5935,196.4535 228.8517,197.2661 229.6954,198.5037 229.9922,199.9718 229.6954,201.4399"/>
    <line x1="307.8563" x2="319.1949" y1="306.9889" y2="306.9889"/>
    <line x1="319.1949" x2="307.8563" y1="309.5086" y2="309.5086"/>
    <line x1="307.8563" x2="319.1949" y1="312.0282" y2="312.0282"/>
    <line x1="319.1949" x2="307.8563" y1="314.5479" y2="314.5479"/>
    <line x1="307.8563" x2="319.1949" y1="317.0676" y2="317.0676"/>
    <line x1="319.1949" x2="307.8563" y1="319.5873" y2="319.5873"/>
    <polyline points="307.8563,321.1007 307.8563,304.4692 319.1949,304.4692 319.1949,321.1007"/>
    <polygon points="322.9744,327.1464 304.0768,327.1464 304.8141,324.2189 306.911,321.7484 309.6938,320.2367 313.3377,319.5888 317.0109,320.1203 320.1401,321.7484 322.2371,324.2189"/>
  </g>
</svg>
