<?xml version="1.0" encoding="utf-8" ?>
<svg xmlns="http://www.w3.org/2000/svg" xmlns:cc="http://creativecommons.org/ns" xmlns:dc="http://purl.org/dc/elements/1.1/" xmlns:ev="http://www.w3.org/2001/xml-events" xmlns:inkscape="http://www.inkscape.org/namespaces/inkscape" xmlns:rdf="http://www.w3.org/1999/02/22-rdf-syntax-ns" xmlns:sodipodi="http://sodipodi.sourceforge.net/DTD/sodipodi-0.dtd" xmlns:xlink="http://www.w3.org/1999/xlink" baseProfile="tiny" height="29.7cm" version="1.2" viewBox="0 0 793.7007874015749 1122.5196850393702" width="21.0cm">
  <metadata>
    <rdf:RDF>
      <cc:Work>
        <dc:format>image/svg+xml</dc:format>
        <dc:source/>
        <dc:date>2022-06-19T17:59:23.951157</dc:date>
      </cc:Work>
    </rdf:RDF>
  </metadata>
  <defs/>
  <g fill="none" id="layer1" inkscape:groupmode="layer" inkscape:label="1" stroke="#0000ff" style="display:inline">
    <polygon points="205.1849,981.4848 200.0991,981.4848"/>
    <line x1="205.1849" x2="205.1849" y1="976.6012" y2="943.9069"/>
    <line x1="200.0991" x2="200.0991" y1="943.9069" y2="976.6012"/>
    <line x1="200.0991" x2="205.1849" y1="972.0903" y2="972.0903"/>
    <line x1="205.1849" x2="200.0991" y1="962.6958" y2="962.6958"/>
    <line x1="200.0991" x2="205.1849" y1="953.3014" y2="953.3014"/>
    <line x1="183.1399" x2="178.0542" y1="953.3014" y2="953.3014"/>
    <line x1="178.0542" x2="178.0542" y1="943.9069" y2="976.6012"/>
    <line x1="178.0542" x2="183.1399" y1="972.0903" y2="972.0903"/>
    <line x1="183.1399" x2="183.1399" y1="976.6012" y2="943.9069"/>
    <line x1="183.1399" x2="178.0542" y1="962.6958" y2="962.6958"/>
    <polygon points="174.402,979.6311 175.7827,977.8565 177.9149,976.648 180.4656,976.1945 183.0368,976.5666 185.2273,977.7062 186.6951,979.4356 187.2112,981.4848 173.9829,981.4848"/>
    <polygon points="183.1399,981.4848 178.0542,981.4848"/>
    <polygon points="196.0279,981.4848 196.447,979.6311 197.8277,977.8565 199.9598,976.648 202.5105,976.1945 205.0818,976.5666 207.2722,977.7062 208.7401,979.4356 209.2562,981.4848"/>
    <polygon points="159.7162,943.9069 159.7162,894.1794 223.5229,894.1794 223.5229,943.9069"/>
    <polyline points="159.7162,930.9178 146.9742,930.9178 146.9742,923.322 159.7162,923.322"/>
    <line x1="145.9383" x2="145.8137" y1="924.0884" y2="930.1288"/>
    <line x1="143.7211" x2="144.0689" y1="930.0466" y2="924.0149"/>
    <line x1="142.4374" x2="141.9239" y1="923.8971" y2="929.917"/>
    <line x1="140.4174" x2="140.999" y1="929.7776" y2="923.7639"/>
    <line x1="139.6983" x2="139.2076" y1="923.6443" y2="929.6661"/>
    <line x1="138.3177" x2="138.4629" y1="929.6136" y2="923.5736"/>
    <polyline points="137.1998,923.6131 137.7913,929.6258 134.4338,924.5538"/>
    <polyline points="135.8322,923.8859 137.7661,929.6864 132.438,926.8379"/>
    <line x1="131.8471" x2="137.5063" y1="928.1664" y2="930.2822"/>
    <line x1="137.8798" x2="133.2642" y1="929.5032" y2="925.6046"/>
    <line x1="131.368" x2="137.1744" y1="929.6386" y2="931.3086"/>
    <line x1="136.7971" x2="130.9246" y1="932.7534" y2="931.3335"/>
    <line x1="130.4702" x2="136.3718" y1="933.3203" y2="934.6138"/>
    <line x1="135.8831" x2="129.9708" y1="936.8999" y2="935.6557"/>
    <line x1="129.3978" x2="135.3104" y1="938.3877" y2="939.6303"/>
    <line x1="134.631" x2="128.7244" y1="942.8293" y2="941.5586"/>
    <line x1="127.9249" x2="133.8213" y1="945.2075" y2="946.5243"/>
    <polyline points="132.8574,950.7451 136.7971,932.7534 137.8798,929.5032 137.6559,929.6458 146.9742,930.1407 146.9742,924.099 137.1998,923.6131 135.1223,924.1641 133.2642,925.6046 132.1221,927.4889 131.1452,930.4536 126.9739,949.3714"/>
    <polyline points="129.6236,949.9901 126.9739,949.3714 113.4266,955.775 116.9317,963.5358 117.2598,959.0811 126.6676,954.6342"/>
    <polygon points="126.5349,954.4049 127.3667,955.4007 128.538,955.9587 129.5772,956.0182 130.8046,955.5977 131.5889,954.9134 132.172,953.7543 132.2538,952.7166 131.8598,951.4804 131.1925,950.6816 130.0462,950.0737 129.0106,949.9696 127.7662,950.3369 126.9532,950.9869 126.3208,952.1198 126.2188,953.4132"/>
    <polyline points="130.8016,955.5993 137.2677,963.7524 135.5893,967.8919 142.1685,962.4854 132.8574,950.7451 130.2077,950.1264"/>
    <polygon points="187.4789,919.0432 187.2143,919.0432"/>
    <polygon points="195.7602,919.0432 196.0248,919.0432"/>
    <polyline points="223.5229,923.322 236.2649,923.322 236.2649,930.9178 223.5229,930.9178"/>
    <line x1="237.4254" x2="237.3008" y1="930.1288" y2="924.0884"/>
    <line x1="239.1701" x2="239.518" y1="924.0149" y2="930.0466"/>
    <line x1="241.3152" x2="240.8017" y1="929.917" y2="923.8971"/>
    <line x1="242.2401" x2="242.8217" y1="923.7639" y2="929.7776"/>
    <line x1="244.0315" x2="243.5408" y1="929.6661" y2="923.6443"/>
    <line x1="244.7762" x2="244.9214" y1="923.5736" y2="929.6136"/>
    <line x1="245.3593" x2="249.9749" y1="929.5032" y2="925.6046"/>
    <polyline points="250.8011,926.8379 245.473,929.6864 247.4069,923.8859"/>
    <polyline points="246.0392,923.6131 245.4478,929.6258 248.8053,924.5538"/>
    <line x1="251.3919" x2="245.7328" y1="928.1664" y2="930.2822"/>
    <line x1="246.0647" x2="251.8711" y1="931.3086" y2="929.6386"/>
    <line x1="252.3145" x2="246.442" y1="931.3335" y2="932.7534"/>
    <line x1="246.8673" x2="252.7689" y1="934.6138" y2="933.3203"/>
    <line x1="253.2683" x2="247.356" y1="935.6557" y2="936.8999"/>
    <line x1="247.9287" x2="253.8413" y1="939.6303" y2="938.3877"/>
    <line x1="254.5147" x2="248.6081" y1="941.5586" y2="942.8293"/>
    <line x1="249.4178" x2="255.3142" y1="946.5243" y2="945.2075"/>
    <polyline points="256.2652,949.3714 252.0939,930.4536 251.117,927.4889 249.9749,925.6046 248.1168,924.1641 246.0392,923.6131 236.2649,924.099 236.2649,930.1407 245.5832,929.6458 245.3593,929.5032 246.442,932.7534 250.3817,950.7451"/>
    <polygon points="251.3793,951.4804 252.0466,950.6816 253.1929,950.0737 254.2285,949.9696 255.4729,950.3369 256.2859,950.9869 256.9183,952.1198 257.0203,953.4132 256.7042,954.4049 255.8724,955.4007 254.7011,955.9587 253.6619,956.0182 252.4345,955.5977 251.6502,954.9134 251.0671,953.7543 250.9853,952.7166"/>
    <polyline points="253.0314,950.1264 250.3817,950.7451 241.0706,962.4854 247.6498,967.8919 245.9714,963.7524 252.4375,955.5993"/>
    <polyline points="256.5715,954.6342 265.9793,959.0811 266.3074,963.5358 269.8125,955.775 256.2652,949.3714 253.6155,949.9901"/>
    <polygon points="345.8594,948.4764 349.3322,954.5228 348.0724,959.2533 354.2586,952.9971 349.2949,944.355 346.8041,943.1947 336.9946,944.9551 336.1854,953.716 338.9963,949.7081"/>
    <line x1="349.2949" x2="357.262" y1="944.355" y2="927.2519"/>
    <polygon points="358.5257,926.6279 359.1138,925.7652 359.1185,923.9676 357.8857,922.6592 356.0909,922.5572 355.1949,923.0932 354.6067,923.9558 354.602,925.7534 355.8349,927.0618 357.6297,927.1638"/>
    <line x1="358.6442" x2="370.7386" y1="926.5034" y2="928.0714"/>
    <line x1="370.7471" x2="359.0339" y1="925.4578" y2="923.7834"/>
    <line x1="354.7712" x2="346.8041" y1="926.0916" y2="943.1947"/>
    <polygon points="392.5211,931.9103 394.8102,932.4328 396.8679,932.0644 398.6445,930.9627 399.8891,929.2832 400.4386,927.0004 400.0945,924.9385 398.8336,922.9578 397.1111,921.7735 394.8102,921.3052 392.7618,921.7221 390.827,923.0524 389.7044,924.8158 389.3118,926.869 389.7044,928.9222 390.827,930.6856"/>
    <polygon points="395.641,926.869 395.9055,926.869"/>
    <polygon points="407.7126,922.9578 409.4351,921.7735 411.7359,921.3052 413.7844,921.7221 415.5344,922.8654 416.739,924.5739 417.2344,926.869 416.739,929.1641 415.5344,930.8726 413.7844,932.0159 411.7359,932.4328 409.6782,932.0644 407.9017,930.9627 406.5486,929.0438 406.1076,927.0004 406.4517,924.9385"/>
    <polygon points="410.6407,926.869 410.9052,926.869"/>
    <line x1="435.8076" x2="447.902" y1="928.0714" y2="926.5034"/>
    <polygon points="448.9165,927.1638 448.0205,926.6279 447.4323,925.7652 447.4276,923.9676 448.6605,922.6592 450.4553,922.5572 451.3513,923.0932 451.9394,923.9558 451.9441,925.7534 450.7113,927.0618"/>
    <line x1="449.2842" x2="457.2513" y1="927.2519" y2="944.355"/>
    <line x1="459.7421" x2="451.775" y1="943.1947" y2="926.0916"/>
    <line x1="447.5123" x2="435.7991" y1="923.7834" y2="925.4578"/>
    <polygon points="460.6868,948.4764 457.214,954.5228 458.4738,959.2533 452.2876,952.9971 457.2513,944.355 459.7421,943.1947 469.5516,944.9551 470.3607,953.716 467.5499,949.7081"/>
    <polygon points="417.989,971.13 388.5571,971.13 381.2995,959.426 425.2467,959.426"/>
    <polyline points="413.6279,971.13 412.8772,975.0008 410.734,978.3103 407.5089,980.5788 405.5035,981.2417 403.4053,981.4839 399.5253,980.7827 397.6446,979.8214 395.998,978.4985 393.771,975.2448 393.1337,973.2311 392.9183,971.13"/>
    <polyline points="401.8435,971.13 402.4116,972.2708 403.405,972.5534 404.3296,972.0931 404.7027,971.13"/>
    <polygon points="409.4626,894.9057 415.6013,896.7363 421.2626,899.7335 426.2276,903.7811 430.3039,908.7225 433.3338,914.3664 435.1999,920.4943 435.8301,926.869 435.1999,933.2437 433.4767,939.0223 430.5124,944.701 426.4937,949.6893 421.576,953.7942 415.9497,956.8567 409.8327,958.7584 403.4618,959.4255 397.0836,958.8323 390.9449,957.0017 385.2836,954.0045 380.3186,949.9569 376.2423,945.0155 373.2124,939.3716 371.3462,933.2437 370.7161,926.869 371.3462,920.4943 373.2124,914.3664 376.2423,908.7225 380.3186,903.7811 384.9702,899.9438 390.5964,896.8813 396.7134,894.9796 403.0844,894.3125"/>
    <polygon points="403.7404,743.3745 404.1596,741.5209 405.5403,739.7462 407.6724,738.5378 410.2231,738.0842 412.7943,738.4563 414.9848,739.596 416.4526,741.3253 416.9688,743.3745"/>
    <polygon points="400.8218,739.596 402.2896,741.3253 402.8057,743.3745 389.5774,743.3745 389.9965,741.5209 391.3773,739.7462 393.5094,738.5378 396.0601,738.0842 398.6313,738.4563"/>
    <polyline points="397.5728,738.2006 397.5728,711.6431 394.8103,711.6431 394.8103,738.2006"/>
    <line x1="394.8103" x2="397.5728" y1="736.6942" y2="736.6942"/>
    <line x1="397.5728" x2="394.8103" y1="735.0241" y2="735.0241"/>
    <line x1="394.8103" x2="397.5728" y1="733.3541" y2="733.3541"/>
    <line x1="397.5728" x2="394.8103" y1="731.684" y2="731.684"/>
    <line x1="394.8103" x2="397.5728" y1="730.0139" y2="730.0139"/>
    <line x1="397.5728" x2="394.8103" y1="728.3438" y2="728.3438"/>
    <line x1="394.8103" x2="397.5728" y1="726.6738" y2="726.6738"/>
    <line x1="397.5728" x2="394.8103" y1="725.0037" y2="725.0037"/>
    <line x1="394.8103" x2="397.5728" y1="723.3336" y2="723.3336"/>
    <line x1="397.5728" x2="394.8103" y1="721.6635" y2="721.6635"/>
    <line x1="394.8103" x2="397.5728" y1="719.9935" y2="719.9935"/>
    <line x1="397.5728" x2="394.8103" y1="718.3234" y2="718.3234"/>
    <line x1="394.8103" x2="397.5728" y1="716.6533" y2="716.6533"/>
    <line x1="397.5728" x2="394.8103" y1="714.9832" y2="714.9832"/>
    <line x1="394.8103" x2="397.5728" y1="713.3132" y2="713.3132"/>
    <line x1="408.9734" x2="411.7358" y1="713.3132" y2="713.3132"/>
    <line x1="411.7358" x2="408.9734" y1="714.9832" y2="714.9832"/>
    <line x1="408.9734" x2="411.7358" y1="716.6533" y2="716.6533"/>
    <line x1="411.7358" x2="408.9734" y1="718.3234" y2="718.3234"/>
    <line x1="408.9734" x2="411.7358" y1="719.9935" y2="719.9935"/>
    <line x1="411.7358" x2="408.9734" y1="721.6635" y2="721.6635"/>
    <line x1="408.9734" x2="411.7358" y1="723.3336" y2="723.3336"/>
    <line x1="411.7358" x2="408.9734" y1="725.0037" y2="725.0037"/>
    <line x1="408.9734" x2="411.7358" y1="726.6738" y2="726.6738"/>
    <line x1="411.7358" x2="408.9734" y1="728.3438" y2="728.3438"/>
    <line x1="408.9734" x2="411.7358" y1="730.0139" y2="730.0139"/>
    <line x1="411.7358" x2="408.9734" y1="731.684" y2="731.684"/>
    <line x1="408.9734" x2="411.7358" y1="733.3541" y2="733.3541"/>
    <line x1="411.7358" x2="408.9734" y1="735.0241" y2="735.0241"/>
    <line x1="408.9734" x2="411.7358" y1="736.6942" y2="736.6942"/>
    <polyline points="411.7358,738.2006 411.7358,711.6431 408.9734,711.6431 408.9734,738.2006"/>
    <line x1="434.8559" x2="442.6735" y1="713.7324" y2="706.988"/>
    <line x1="440.4667" x2="432.6492" y1="704.4301" y2="711.1745"/>
    <line x1="430.4424" x2="438.2599" y1="708.6166" y2="701.8721"/>
    <line x1="436.0532" x2="428.2356" y1="699.3142" y2="706.0587"/>
    <line x1="426.0288" x2="433.8464" y1="703.5007" y2="696.7563"/>
    <line x1="431.6396" x2="423.822" y1="694.1984" y2="700.9428"/>
    <line x1="422.7081" x2="441.4763" y1="699.6516" y2="721.4061"/>
    <line x1="439.2695" x2="447.087" y1="718.8482" y2="712.1038"/>
    <line x1="444.8803" x2="437.0627" y1="709.5459" y2="716.2903"/>
    <polyline points="446.8157,723.2339 446.4305,723.5663 446.7482,732.2399 453.2705,734.3961 451.7414,739.0217 442.0036,735.8026 441.4763,721.4061 449.2938,714.6617 463.4574,717.2938 465.2143,727.3983 460.4145,728.2328 459.2378,721.4648 450.7044,719.8791 450.3192,720.2114"/>
    <polygon points="448.8437,722.0428 448.6708,721.8425"/>
    <polygon points="446.9906,723.4668 446.4303,721.7712 447.2331,720.1761 448.9287,719.6158 450.5239,720.4186 451.0842,722.1142 450.2814,723.7093 448.5858,724.2696"/>
    <polyline points="449.2938,714.6617 425.0193,686.5247 424.786,686.7259 425.0193,686.5247"/>
    <line x1="427.2261" x2="424.9906" y1="689.0826" y2="691.0112"/>
    <line x1="429.4328" x2="424.063" y1="691.6405" y2="696.2732"/>
    <polygon points="413.9712,689.8969 414.2358,689.8969"/>
    <polyline points="405.9188,694.2461 405.739,695.8072 405.2074,697.0581 404.4417,697.8483 403.455,698.2063 402.3947,698.0135 401.3388,697.0581 400.8072,695.8072 400.6274,694.2461"/>
    <polygon points="392.3104,689.8969 392.575,689.8969"/>
    <line x1="381.5556" x2="379.3201" y1="691.0112" y2="689.0826"/>
    <polyline points="381.5269,686.5247 381.7601,686.7259 381.5269,686.5247 357.2524,714.6617"/>
    <line x1="359.4591" x2="367.2767" y1="712.1038" y2="718.8482"/>
    <line x1="369.4835" x2="361.6659" y1="716.2903" y2="709.5459"/>
    <line x1="363.8727" x2="371.6903" y1="706.988" y2="713.7324"/>
    <line x1="373.897" x2="366.0795" y1="711.1745" y2="704.4301"/>
    <line x1="368.2862" x2="376.1038" y1="701.8721" y2="708.6166"/>
    <line x1="378.3106" x2="370.493" y1="706.0587" y2="699.3142"/>
    <line x1="372.6998" x2="380.5174" y1="696.7563" y2="703.5007"/>
    <line x1="382.7241" x2="374.9066" y1="700.9428" y2="694.1984"/>
    <line x1="377.1133" x2="382.4831" y1="691.6405" y2="696.2732"/>
    <line x1="383.8381" x2="365.0699" y1="699.6516" y2="721.4061"/>
    <polyline points="359.7305,723.2339 360.1157,723.5663 359.798,732.2399 353.2756,734.3961 354.8048,739.0217 364.5426,735.8026 365.0699,721.4061 357.2524,714.6617 343.0888,717.2938 341.3319,727.3983 346.1317,728.2328 347.3084,721.4648 355.8418,719.8791 356.227,720.2114"/>
    <polygon points="356.0223,720.4186 355.462,722.1142 356.2648,723.7093 357.9604,724.2696 359.5556,723.4668 360.1158,721.7712 359.3131,720.1761 357.6175,719.6158"/>
    <polygon points="357.7025,722.0428 357.8753,721.8425"/>
    <polygon points="393.453,676.1559 396.3978,674.4703 399.6201,673.4074 402.9899,673.01 405.9991,673.229 409.2757,674.1103 412.3101,675.6287 414.9797,677.723 417.1768,680.3087 418.8128,683.2813 419.8216,686.521 420.1624,689.8969 419.8216,693.2728 418.8128,696.5125 417.1768,699.4851 415.249,701.806 412.6268,703.9595 409.6272,705.5454 406.371,706.4996 403.3675,706.7859 399.9897,706.464 396.7445,705.4733 393.7627,703.854 391.4311,701.9392 389.4774,699.64 387.8083,696.6858 386.7634,693.4576 386.3848,690.0857 386.6879,686.7062 387.6604,683.4555 389.263,680.4647 391.1648,678.1224"/>
    <polygon points="394.647,669.9347 398.5919,668.6605 403.0844,668.1515 407.2144,668.5108 411.5514,669.788 415.217,671.7244 418.4485,674.3212 421.3413,677.7958 423.3094,681.4444 424.6241,685.7702 425.0193,689.8969 424.6241,694.0236 423.453,698.0004 421.5486,701.6826 418.7165,705.2069 415.217,708.0694 411.5514,710.0058 407.585,711.2113 403.4618,711.6423 398.9612,711.2113 394.9948,710.0058 391.3292,708.0694 387.8296,705.2069 384.9976,701.6826 383.0931,698.0004 381.9221,694.0236 381.5269,689.8969 381.9221,685.7702 383.2368,681.4444 385.2049,677.7958 387.8296,674.5869 391.0156,671.9344"/>
    <polygon points="247.1046,703.014 246.8187,704.019 246.01,705.04 245.0971,705.5485 244.0654,705.7141 242.7983,705.4127 241.9517,704.8002 241.2688,703.6911 241.1187,702.3973 241.4047,701.3923 242.0171,700.5456 243.1262,699.8628 244.158,699.6972 245.425,699.9986 246.446,700.8073 246.9545,701.7202"/>
    <polyline points="246.9902,703.5754 257.2985,700.0021 256.1426,696.6676 245.8343,700.2409"/>
    <line x1="244.1525" x2="234.0504" y1="699.6974" y2="685.3412"/>
    <line x1="234.0504" x2="241.268" y1="691.4738" y2="701.7309"/>
    <polygon points="231.1256,714.7483 152.1135,714.7483 152.1135,641.2252 231.1256,641.2252"/>
    <line x1="219.7972" x2="219.7972" y1="717.673" y2="738.7132"/>
    <line x1="219.7972" x2="218.2317" y1="738.2342" y2="738.2342"/>
    <polygon points="219.1079,738.4563 221.2984,739.596 222.7662,741.3253 223.2824,743.3745 210.054,743.3745 210.4731,741.5209 211.8539,739.7462 213.986,738.5378 216.5367,738.0842"/>
    <line x1="219.7972" x2="213.5392" y1="736.9492" y2="736.9492"/>
    <line x1="213.5392" x2="219.7972" y1="735.6641" y2="735.6641"/>
    <line x1="219.7972" x2="213.5392" y1="734.379" y2="734.379"/>
    <line x1="213.5392" x2="219.7972" y1="733.0939" y2="733.0939"/>
    <line x1="219.7972" x2="213.5392" y1="731.8088" y2="731.8088"/>
    <line x1="213.5392" x2="219.7972" y1="730.5238" y2="730.5238"/>
    <line x1="219.7972" x2="213.5392" y1="729.2387" y2="729.2387"/>
    <line x1="213.5392" x2="219.7972" y1="727.9536" y2="727.9536"/>
    <line x1="219.7972" x2="213.5392" y1="726.6685" y2="726.6685"/>
    <line x1="213.5392" x2="219.7972" y1="725.3835" y2="725.3835"/>
    <line x1="219.7972" x2="213.5392" y1="724.0984" y2="724.0984"/>
    <line x1="213.5392" x2="219.7972" y1="722.8133" y2="722.8133"/>
    <line x1="219.7972" x2="213.5392" y1="721.5282" y2="721.5282"/>
    <line x1="213.5392" x2="219.7972" y1="720.2432" y2="720.2432"/>
    <line x1="219.7972" x2="213.5392" y1="718.9581" y2="718.9581"/>
    <line x1="213.5392" x2="213.5392" y1="717.673" y2="738.7132"/>
    <line x1="213.5392" x2="215.1047" y1="738.2342" y2="738.2342"/>
    <line x1="169.6999" x2="168.1344" y1="738.2342" y2="738.2342"/>
    <line x1="169.6999" x2="169.6999" y1="738.7132" y2="717.673"/>
    <line x1="169.6999" x2="163.4419" y1="718.9581" y2="718.9581"/>
    <line x1="163.4419" x2="169.6999" y1="720.2432" y2="720.2432"/>
    <line x1="169.6999" x2="163.4419" y1="721.5282" y2="721.5282"/>
    <line x1="163.4419" x2="169.6999" y1="722.8133" y2="722.8133"/>
    <line x1="169.6999" x2="163.4419" y1="724.0984" y2="724.0984"/>
    <line x1="163.4419" x2="169.6999" y1="725.3835" y2="725.3835"/>
    <line x1="169.6999" x2="163.4419" y1="726.6685" y2="726.6685"/>
    <line x1="163.4419" x2="169.6999" y1="727.9536" y2="727.9536"/>
    <line x1="169.6999" x2="163.4419" y1="729.2387" y2="729.2387"/>
    <line x1="163.4419" x2="169.6999" y1="730.5238" y2="730.5238"/>
    <line x1="169.6999" x2="163.4419" y1="731.8088" y2="731.8088"/>
    <line x1="163.4419" x2="169.6999" y1="733.0939" y2="733.0939"/>
    <line x1="169.6999" x2="163.4419" y1="734.379" y2="734.379"/>
    <line x1="163.4419" x2="169.6999" y1="735.6641" y2="735.6641"/>
    <line x1="169.6999" x2="163.4419" y1="736.9492" y2="736.9492"/>
    <line x1="163.4419" x2="165.0074" y1="738.2342" y2="738.2342"/>
    <line x1="163.4419" x2="163.4419" y1="738.7132" y2="717.673"/>
    <polygon points="160.3758,741.5209 161.7566,739.7462 163.8887,738.5378 166.4394,738.0842 169.0106,738.4563 171.2011,739.596 172.6689,741.3253 173.1851,743.3745 159.9567,743.3745"/>
    <line x1="141.9711" x2="149.1887" y1="701.7309" y2="691.4738"/>
    <line x1="149.1887" x2="139.0866" y1="685.3412" y2="699.6974"/>
    <polyline points="137.4048,700.2409 127.0965,696.6676 125.9406,700.0021 136.2489,703.5754"/>
    <polygon points="136.1345,703.014 136.4204,704.019 137.2291,705.04 138.142,705.5485 139.1737,705.7141 140.4408,705.4127 141.2874,704.8002 141.9703,703.6911 142.1204,702.3973 141.8344,701.3923 141.222,700.5456 140.1129,699.8628 139.0811,699.6972 137.8141,699.9986 136.7931,700.8073 136.2846,701.7202"/>
    <polygon points="169.7978,618.4403 169.7978,571.3205 213.4413,571.3205 213.4413,618.4403"/>
    <polyline points="174.9852,610.4789 174.9852,600.5704 174.9852,610.4789 208.2539,610.4789 208.2539,600.5704 174.9852,600.5704"/>
    <line x1="183.3024" x2="183.3024" y1="600.5704" y2="610.4789"/>
    <polyline points="185.5215,618.4403 185.5215,638.3005 234.0504,638.3005 234.0504,717.673 149.1887,717.673 149.1887,638.3005 197.7176,638.3005 197.7176,618.4403"/>
    <line x1="199.9367" x2="199.9367" y1="610.4789" y2="600.5704"/>
    <polygon points="201.1814,594.8804 200.8949,595.572 200.2034,595.8584 199.5118,595.572 199.2254,594.8804 199.5118,594.1888 200.2034,593.9024 200.8949,594.1888"/>
    <line x1="191.6195" x2="191.6195" y1="600.5704" y2="610.4789"/>
    <polygon points="182.3442,594.1888 183.0357,593.9024 183.7273,594.1888 184.0137,594.8804 183.7273,595.572 183.0357,595.8584 182.3442,595.572 182.0577,594.8804"/>
    <polygon points="186.9349,505.2643 173.7066,505.2643 174.2227,503.2151 175.5064,501.636 177.6385,500.4276 180.1892,499.974 182.7605,500.3461 184.9509,501.4857 186.4188,503.2151"/>
    <polyline points="181.9929,500.1451 182.6982,500.3274 182.6982,482.2281"/>
    <line x1="182.6982" x2="177.9433" y1="484.7876" y2="484.7876"/>
    <polyline points="177.9433,482.2281 177.9433,500.3274 178.6486,500.1451"/>
    <line x1="177.9433" x2="182.6982" y1="497.5855" y2="497.5855"/>
    <line x1="182.6982" x2="177.9433" y1="495.026" y2="495.026"/>
    <line x1="177.9433" x2="182.6982" y1="492.4664" y2="492.4664"/>
    <line x1="182.6982" x2="177.9433" y1="489.9068" y2="489.9068"/>
    <line x1="177.9433" x2="182.6982" y1="487.3472" y2="487.3472"/>
    <line x1="200.5409" x2="205.2958" y1="487.3472" y2="487.3472"/>
    <line x1="205.2958" x2="200.5409" y1="489.9068" y2="489.9068"/>
    <line x1="200.5409" x2="205.2958" y1="492.4664" y2="492.4664"/>
    <line x1="205.2958" x2="200.5409" y1="495.026" y2="495.026"/>
    <line x1="200.5409" x2="205.2958" y1="497.5855" y2="497.5855"/>
    <polyline points="204.5905,500.1451 205.2958,500.3274 205.2958,482.2281"/>
    <line x1="205.2958" x2="200.5409" y1="484.7876" y2="484.7876"/>
    <polyline points="200.5409,482.2281 200.5409,500.3274 201.2462,500.1451"/>
    <polygon points="196.8203,503.2151 198.1041,501.636 200.2362,500.4276 202.7869,499.974 205.3581,500.3461 207.5486,501.4857 209.0164,503.2151 209.5325,505.2643 196.3042,505.2643"/>
    <polyline points="211.9447,449.7763 216.4967,450.8862 217.3145,447.532"/>
    <polyline points="217.747,445.7579 218.9988,440.6241 211.9447,438.9042"/>
    <polygon points="208.2518,426.7656 209.7967,429.354 210.9418,432.1424 211.6619,435.0695 211.9412,438.0709 211.9447,482.2281 171.2944,482.2281 171.3929,436.4498 171.9109,433.4803 173.0108,430.2733 174.6286,427.2938 176.7191,424.6246 178.9274,422.5729 181.415,420.8703 184.127,419.5544 187.0037,418.654 189.9821,418.189 192.9964,418.1696 195.9804,418.5963 198.8686,419.4596 201.5972,420.7405 204.1065,422.411 206.341,424.4342"/>
    <polygon points="197.7916,438.4481 198.0562,438.4481"/>
    <polyline points="194.2652,447.2041 194.0855,448.7651 193.5538,450.016 192.7882,450.8062 191.8014,451.1642 190.7411,450.9714 189.6853,450.016 189.1536,448.7651 188.9739,447.2041"/>
    <polygon points="185.1829,438.4481 185.4475,438.4481"/>
    <polyline points="171.2944,438.9042 164.2403,440.6241 165.4921,445.7579"/>
    <polyline points="165.9246,447.532 166.7424,450.8862 171.2944,449.7763"/>
    <polyline points="156.8612,449.7418 165.9246,447.532 165.0582,443.9783 155.9946,446.1882"/>
    <polyline points="151.9706,446.5851 133.2398,445.7879 133.0842,449.4423 151.8151,450.2395"/>
    <polygon points="154.9814,451.3447 156.133,450.7215 156.7863,449.8984 157.1317,448.6353 156.4881,446.6702 155.6952,445.9807 154.4488,445.579 153.4025,445.6756 152.2508,446.2989 151.4836,447.3601 151.2522,448.385 151.8958,450.3501 152.6887,451.0396 153.9351,451.4413"/>
    <polyline points="226.3779,449.7418 217.3145,447.532 218.1809,443.9783 227.2445,446.1882"/>
    <polyline points="231.2685,446.5851 249.9993,445.7879 250.1549,449.4423 231.424,450.2395"/>
    <polygon points="229.304,451.4413 228.2577,451.3447 227.1061,450.7215 226.4528,449.8984 226.1074,448.6353 226.751,446.6702 227.5439,445.9807 228.7903,445.579 229.8366,445.6756 230.9883,446.2989 231.7555,447.3601 231.9869,448.385 231.3433,450.3501 230.5504,451.0396"/>
    <polygon points="318.2009,452.308 314.7722,451.1343 316.76,448.104 319.7477,449.4289"/>
    <polygon points="325.8192,448.5464 325.7528,447.5089 325.2635,446.5916 324.439,445.9584 322.6523,445.8347 321.2555,446.9557 320.9396,447.9462 321.0612,448.9787 322.219,450.3451 323.9966,450.5637 325.4511,449.5186"/>
    <polyline points="338.6609,444.807 325.6082,449.2313 320.6466,458.5395 312.4759,455.7426 313.9578,451.4134 310.1318,448.9036 314.8687,441.6825 324.4971,445.9898 337.5194,441.4765"/>
    <line x1="340.4477" x2="354.4446" y1="440.5922" y2="436.9239"/>
    <polyline points="355.3372,440.3295 355.9793,442.7797 364.7854,440.4718"/>
    <polyline points="364.7854,431.5953 353.8025,434.4737 355.3372,440.3295 341.3424,443.9973"/>
    <polygon points="340.5725,440.6512 338.7952,440.4761 337.4309,441.6287 337.3067,443.4103 338.4978,444.7411 340.2822,444.8144 341.5784,443.5858 341.6857,442.0478"/>
    <polygon points="368.3017,421.1604 438.2445,421.1604 438.2445,460.9441 368.3017,460.9441"/>
    <line x1="400.1993" x2="406.3469" y1="415.2516" y2="415.2516"/>
    <line x1="406.3469" x2="400.1993" y1="412.8591" y2="412.8591"/>
    <line x1="400.1993" x2="406.3469" y1="410.4666" y2="410.4666"/>
    <polyline points="406.3469,408.074 406.3469,417.6441 400.1993,417.6441 400.1993,408.074"/>
    <line x1="400.3926" x2="400.3926" y1="394.3757" y2="388.0519"/>
    <line x1="403.2731" x2="403.2731" y1="388.0519" y2="394.3757"/>
    <line x1="406.1536" x2="406.1536" y1="394.3757" y2="388.0519"/>
    <line x1="409.0341" x2="409.0341" y1="388.0519" y2="394.3757"/>
    <polygon points="407.7429,383.0463 408.0075,383.0463"/>
    <polygon points="398.5387,383.0463 398.8033,383.0463"/>
    <line x1="397.5121" x2="397.5121" y1="388.0519" y2="394.3757"/>
    <polyline points="394.6316,394.3757 394.6316,388.0519 394.6316,394.3757 411.9146,394.3757 411.9146,388.0519 394.6316,388.0519"/>
    <polygon points="385.8444,375.5773 387.4473,372.6018 389.8152,369.6885 392.7107,367.2989 397.0748,365.1264 402.2237,364.1137 407.0855,364.4719 412.0304,366.2281 416.029,369.0167 419.3858,373.0502 421.402,377.4886 422.231,382.6703 422.2347,408.074 384.3114,408.074 384.3121,382.89 384.7145,379.1574"/>
    <polygon points="441.7608,417.6441 441.7608,464.4604 364.7854,464.4604 364.7854,417.6441"/>
    <polyline points="441.7608,431.5953 452.7437,434.4737 451.209,440.3295 465.2037,443.9973"/>
    <polyline points="467.8852,444.807 480.938,449.2313 485.8995,458.5395 494.0703,455.7426 492.5884,451.4134 496.4144,448.9036 491.6775,441.6825 482.0491,445.9898 469.0268,441.4765"/>
    <polygon points="469.1152,441.6287 469.2395,443.4103 468.0484,444.7411 466.264,444.8144 464.9677,443.5858 464.9454,441.8 466.2105,440.5394 467.751,440.4761"/>
    <line x1="466.0985" x2="452.1016" y1="440.5922" y2="436.9239"/>
    <polyline points="451.209,440.3295 450.5669,442.7797 441.7608,440.4718"/>
    <line x1="430.681" x2="430.681" y1="464.4604" y2="500.9487"/>
    <line x1="430.681" x2="428.6106" y1="500.1638" y2="500.1638"/>
    <polygon points="431.4843,501.4857 432.9521,503.2151 433.4682,505.2643 420.2399,505.2643 420.659,503.4107 422.0398,501.636 424.1719,500.4276 426.7226,499.974 429.2938,500.3461"/>
    <line x1="430.681" x2="423.0272" y1="497.6136" y2="497.6136"/>
    <line x1="423.0272" x2="425.0975" y1="500.1638" y2="500.1638"/>
    <line x1="423.0272" x2="423.0272" y1="500.9487" y2="464.4604"/>
    <line x1="423.0272" x2="430.681" y1="467.0106" y2="467.0106"/>
    <line x1="430.681" x2="423.0272" y1="469.5608" y2="469.5608"/>
    <line x1="423.0272" x2="430.681" y1="472.1111" y2="472.1111"/>
    <line x1="430.681" x2="423.0272" y1="474.6613" y2="474.6613"/>
    <line x1="423.0272" x2="430.681" y1="477.2116" y2="477.2116"/>
    <line x1="430.681" x2="423.0272" y1="479.7618" y2="479.7618"/>
    <line x1="423.0272" x2="430.681" y1="482.3121" y2="482.3121"/>
    <line x1="430.681" x2="423.0272" y1="484.8623" y2="484.8623"/>
    <line x1="423.0272" x2="430.681" y1="487.4126" y2="487.4126"/>
    <line x1="430.681" x2="423.0272" y1="489.9628" y2="489.9628"/>
    <line x1="423.0272" x2="430.681" y1="492.5131" y2="492.5131"/>
    <line x1="430.681" x2="423.0272" y1="495.0633" y2="495.0633"/>
    <line x1="383.519" x2="375.8652" y1="495.0633" y2="495.0633"/>
    <line x1="375.8652" x2="383.519" y1="497.6136" y2="497.6136"/>
    <line x1="383.519" x2="381.4487" y1="500.1638" y2="500.1638"/>
    <line x1="383.519" x2="383.519" y1="500.9487" y2="464.4604"/>
    <line x1="383.519" x2="375.8652" y1="467.0106" y2="467.0106"/>
    <line x1="375.8652" x2="383.519" y1="469.5608" y2="469.5608"/>
    <line x1="383.519" x2="375.8652" y1="472.1111" y2="472.1111"/>
    <line x1="375.8652" x2="383.519" y1="474.6613" y2="474.6613"/>
    <line x1="383.519" x2="375.8652" y1="477.2116" y2="477.2116"/>
    <line x1="375.8652" x2="383.519" y1="479.7618" y2="479.7618"/>
    <line x1="383.519" x2="375.8652" y1="482.3121" y2="482.3121"/>
    <line x1="375.8652" x2="383.519" y1="484.8623" y2="484.8623"/>
    <line x1="383.519" x2="375.8652" y1="487.4126" y2="487.4126"/>
    <line x1="375.8652" x2="383.519" y1="489.9628" y2="489.9628"/>
    <line x1="383.519" x2="375.8652" y1="492.5131" y2="492.5131"/>
    <line x1="375.8652" x2="377.9355" y1="500.1638" y2="500.1638"/>
    <polygon points="377.0099,500.4276 379.5606,499.974 382.1318,500.3461 384.3223,501.4857 385.7901,503.2151 386.3063,505.2643 373.0779,505.2643 373.4971,503.4107 374.8778,501.636"/>
    <line x1="375.8652" x2="375.8652" y1="500.9487" y2="464.4604"/>
    <polygon points="480.7934,447.5089 481.8769,446.0828 482.8586,445.7406 483.8939,445.8347 485.2907,446.9557 485.6066,447.9462 485.485,448.9787 484.3272,450.3451 482.5496,450.5637 481.0951,449.5186 480.727,448.5464"/>
    <polygon points="489.7862,448.104 486.7985,449.4289 488.3452,452.308 491.774,451.1343"/>
    <polyline points="564.1253,435.2095 549.9766,426.8356 551.2387,424.7032 565.3874,433.0772"/>
    <polygon points="565.996,434.877 566.2236,435.0118"/>
    <line x1="566.4079" x2="577.4605" y1="436.9227" y2="447.2898"/>
    <line x1="577.4605" x2="568.102" y1="443.8925" y2="435.1144"/>
    <polygon points="566.6074,436.8853 567.8341,435.9649 568.0506,434.4468 567.1303,433.2202 565.6122,433.0036 564.3855,433.9239 564.169,435.442 565.0893,436.6687"/>
    <line x1="609.823" x2="620.0303" y1="414.6196" y2="414.6196"/>
    <line x1="620.0303" x2="609.823" y1="409.2828" y2="409.2828"/>
    <polyline points="609.823,403.9461 609.823,419.9563 620.0303,419.9563 620.0303,403.9461"/>
    <polyline points="617.5723,389.7218 617.3925,391.2829 616.8609,392.5338 616.0953,393.324 615.1085,393.682 614.0482,393.4892 612.9924,392.5338 612.4607,391.2829 612.281,389.7218"/>
    <polygon points="609.9045,382.6125 607.9992,383.9967 605.4553,384.5934 603.1333,384.2006 600.927,382.8005 599.583,380.8667 599.0397,378.3108 599.481,375.9975 600.7429,374.0091 602.6481,372.6249 605.1921,372.0282 607.5141,372.421 609.7203,373.8211 611.0644,375.7549 611.6076,378.3108 611.1663,380.6241"/>
    <polygon points="604.4939,378.3108 604.2294,378.3108"/>
    <polygon points="618.2456,378.3108 618.6869,375.9975 619.9488,374.0091 621.854,372.6249 624.398,372.0282 626.72,372.421 628.9263,373.8211 630.2703,375.7549 630.8136,378.3108 630.3723,380.6241 629.1104,382.6125 627.2052,383.9967 624.6612,384.5934 622.3392,384.2006 620.1329,382.8005 618.7889,380.8667"/>
    <polygon points="623.4353,378.3108 623.6999,378.3108"/>
    <polygon points="596.2458,363.6125 599.6517,360.0985 603.3741,357.537 606.0965,356.2418 608.961,355.3016 611.9215,354.7315 614.9304,354.5408 617.9391,354.7325 621.2637,355.4011 624.1126,356.3875 626.8138,357.7266 629.3237,359.3969 631.602,361.3714 633.6121,363.6184 635.5127,366.4269 636.8514,369.1283 637.8373,371.9773 638.4547,374.9283 638.6936,377.9337 638.6966,403.9461 591.1566,403.9461 591.1688,377.5492 591.9202,372.3344 593.6317,367.7496"/>
    <polygon points="652.3927,419.9563 652.3927,484.2618 577.4605,484.2618 577.4605,419.9563"/>
    <line x1="661.7513" x2="652.3927" y1="435.1144" y2="443.8925"/>
    <line x1="652.3927" x2="663.4453" y1="447.2898" y2="436.9227"/>
    <polygon points="663.6296,435.0118 663.8573,434.877"/>
    <polygon points="665.6843,435.442 664.764,436.6687 663.2458,436.8853 662.0192,435.9649 661.8026,434.4468 662.723,433.2202 664.2411,433.0036 665.4677,433.9239"/>
    <polyline points="665.728,435.2095 679.8766,426.8356 678.6146,424.7032 664.4659,433.0772"/>
    <polyline points="641.7698,484.2618 629.8607,497.2434 599.9925,497.2434 588.0834,484.2618"/>
    <polyline points="606.9068,497.2434 607.4729,500.2059 609.1855,502.8446 611.7812,504.6218 614.8607,505.264 617.9503,504.6725 620.5749,502.9383 622.3307,500.3281 622.9475,497.2434"/>
    <polyline points="616.9758,497.2434 616.3987,498.669 614.9923,499.2915 613.549,498.7604 612.8817,497.2434"/>
    <polygon points="631.0459,671.5886 633.8939,675.0995 635.9897,679.1051 637.2502,683.4466 637.6286,687.5744 637.2502,691.7023 635.9897,696.0438 633.8939,700.0494 631.0459,703.5603 627.5588,706.4373 623.9184,708.4198 619.6097,709.7881 615.1153,710.2756 610.6134,709.8629 606.2826,708.5663 602.2945,706.4373 598.8073,703.5603 595.9594,700.0494 593.8636,696.0438 592.6031,691.7023 592.2246,687.5744 592.6031,683.4466 593.8636,679.1051 595.9594,675.0995 598.8073,671.5886 602.2945,668.7115 605.9348,666.7291 610.2435,665.3607 614.738,664.8732 619.2399,665.286 623.5707,666.5825 627.5588,668.7115"/>
    <polyline points="637.2153,683.2665 637.6286,681.3283 649.8032,683.9242 648.8592,688.3519 667.1559,692.2532 666.3805,695.8901 648.0837,691.9889 648.8592,688.3519 647.1396,696.4165 636.6461,694.179"/>
    <line x1="649.3906" x2="650.1661" y1="692.2675" y2="688.6305"/>
    <line x1="651.473" x2="650.6975" y1="688.9092" y2="692.5462"/>
    <line x1="652.0044" x2="652.7799" y1="692.8248" y2="689.1878"/>
    <line x1="654.0868" x2="653.3113" y1="689.4665" y2="693.1035"/>
    <line x1="654.6182" x2="655.3937" y1="693.3822" y2="689.7452"/>
    <line x1="656.7006" x2="655.9252" y1="690.0238" y2="693.6608"/>
    <line x1="657.2321" x2="658.0076" y1="693.9395" y2="690.3025"/>
    <line x1="659.3145" x2="658.539" y1="690.5812" y2="694.2182"/>
    <line x1="659.8459" x2="660.6214" y1="694.4968" y2="690.8598"/>
    <line x1="661.9283" x2="661.1528" y1="691.1385" y2="694.7755"/>
    <line x1="662.4597" x2="663.2352" y1="695.0542" y2="691.4172"/>
    <line x1="664.5421" x2="663.7666" y1="691.6958" y2="695.3328"/>
    <line x1="665.0735" x2="665.849" y1="695.6115" y2="691.9745"/>
    <line x1="633.8722" x2="625.9119" y1="712.6406" y2="712.6406"/>
    <line x1="625.9119" x2="633.8722" y1="715.0047" y2="715.0047"/>
    <line x1="633.8722" x2="625.9119" y1="717.3689" y2="717.3689"/>
    <line x1="625.9119" x2="633.8722" y1="719.733" y2="719.733"/>
    <line x1="633.8722" x2="625.9119" y1="722.0972" y2="722.0972"/>
    <line x1="625.9119" x2="633.8722" y1="724.4613" y2="724.4613"/>
    <line x1="633.8722" x2="625.9119" y1="726.8255" y2="726.8255"/>
    <line x1="625.9119" x2="633.8722" y1="729.1896" y2="729.1896"/>
    <line x1="633.8722" x2="625.9119" y1="731.5538" y2="731.5538"/>
    <line x1="625.9119" x2="633.8722" y1="733.9179" y2="733.9179"/>
    <line x1="633.8722" x2="625.9119" y1="736.2821" y2="736.2821"/>
    <line x1="625.9119" x2="626.9249" y1="738.6462" y2="738.6462"/>
    <polyline points="625.9119,739.1495 625.9119,710.2764 633.8722,710.2764 633.8722,739.1495"/>
    <line x1="633.8722" x2="632.8591" y1="738.6462" y2="738.6462"/>
    <polygon points="629.7605,738.0842 632.3318,738.4563 634.5222,739.596 635.9901,741.3253 636.5062,743.3745 623.2779,743.3745 623.697,741.5209 625.0777,739.7462 627.2098,738.5378"/>
    <line x1="603.9414" x2="602.9283" y1="738.6462" y2="738.6462"/>
    <polyline points="603.9414,739.1495 603.9414,710.2764 595.9811,710.2764 595.9811,739.1495"/>
    <line x1="595.9811" x2="596.9941" y1="738.6462" y2="738.6462"/>
    <polygon points="595.1469,739.7462 597.279,738.5378 599.8297,738.0842 602.401,738.4563 604.5914,739.596 606.0593,741.3253 606.5754,743.3745 593.3471,743.3745 593.7662,741.5209"/>
    <line x1="595.9811" x2="603.9414" y1="736.2821" y2="736.2821"/>
    <line x1="603.9414" x2="595.9811" y1="733.9179" y2="733.9179"/>
    <line x1="595.9811" x2="603.9414" y1="731.5538" y2="731.5538"/>
    <line x1="603.9414" x2="595.9811" y1="729.1896" y2="729.1896"/>
    <line x1="595.9811" x2="603.9414" y1="726.8255" y2="726.8255"/>
    <line x1="603.9414" x2="595.9811" y1="724.4613" y2="724.4613"/>
    <line x1="595.9811" x2="603.9414" y1="722.0972" y2="722.0972"/>
    <line x1="603.9414" x2="595.9811" y1="719.733" y2="719.733"/>
    <line x1="595.9811" x2="603.9414" y1="717.3689" y2="717.3689"/>
    <line x1="603.9414" x2="595.9811" y1="715.0047" y2="715.0047"/>
    <line x1="595.9811" x2="603.9414" y1="712.6406" y2="712.6406"/>
    <line x1="606.5759" x2="606.5759" y1="697.3555" y2="692.1148"/>
    <polygon points="612.7548,687.0784 612.3532,686.6161 611.7143,686.8729 611.5206,687.5744 612.0108,688.5328 612.7548,688.0705"/>
    <polygon points="617.5001,686.6161 618.139,686.8729 618.3327,687.5744 617.8425,688.5328 617.0985,688.0705 617.0985,687.0784"/>
    <line x1="614.9266" x2="614.9266" y1="692.1148" y2="697.3555"/>
    <line x1="623.2774" x2="623.2774" y1="697.3555" y2="692.1148"/>
    <polyline points="598.2252,692.1148 631.6281,692.1148 631.6281,697.3555 598.2252,697.3555 598.2252,692.1148 598.2252,697.3555"/>
    <polyline points="593.2072,694.179 582.7137,696.4165 580.9941,688.3519 581.7696,691.9889 563.4728,695.8901 562.6973,692.2532 580.9941,688.3519 580.05,683.9242 592.2246,681.3283 592.6379,683.2665"/>
    <line x1="579.6872" x2="580.4627" y1="688.6305" y2="692.2675"/>
    <line x1="579.1558" x2="578.3803" y1="692.5462" y2="688.9092"/>
    <line x1="577.0734" x2="577.8489" y1="689.1878" y2="692.8248"/>
    <line x1="576.5419" x2="575.7665" y1="693.1035" y2="689.4665"/>
    <line x1="574.4595" x2="575.235" y1="689.7452" y2="693.3822"/>
    <line x1="573.9281" x2="573.1526" y1="693.6608" y2="690.0238"/>
    <line x1="571.8457" x2="572.6212" y1="690.3025" y2="693.9395"/>
    <line x1="571.3143" x2="570.5388" y1="694.2182" y2="690.5812"/>
    <line x1="569.2319" x2="570.0074" y1="690.8598" y2="694.4968"/>
    <line x1="568.7005" x2="567.925" y1="694.7755" y2="691.1385"/>
    <line x1="566.6181" x2="567.3936" y1="691.4172" y2="695.0542"/>
    <line x1="566.0866" x2="565.3112" y1="695.3328" y2="691.6958"/>
    <line x1="564.0042" x2="564.7797" y1="691.9745" y2="695.6115"/>
    <polygon points="603.993,887.145 603.7284,887.145"/>
    <polyline points="612.281,890.5248 612.4607,892.0859 612.9924,893.3367 614.0482,894.2921 615.1085,894.485 616.0953,894.127 616.8609,893.3367 617.3925,892.0859 617.5723,890.5248"/>
    <polygon points="625.8603,887.145 626.1249,887.145"/>
    <polygon points="636.7952,881.5493 637.4966,886.768 637.4997,904.0442 592.3535,904.0442 592.4069,885.5935 592.8931,882.239 593.8761,878.9951 595.9197,874.9679 598.9888,871.1596 602.4898,868.3069 606.8395,866.0703 611.942,864.77 617.5817,864.7285 623.0556,866.0864 627.7132,868.5426 631.9254,872.2928 634.9038,876.6352"/>
    <polyline points="622.4176,904.0442 622.4176,919.4949 607.4357,919.4949"/>
    <line x1="607.4357" x2="622.4176" y1="916.4047" y2="916.4047"/>
    <line x1="622.4176" x2="607.4357" y1="913.3146" y2="913.3146"/>
    <line x1="607.4357" x2="622.4176" y1="910.2245" y2="910.2245"/>
    <line x1="622.4176" x2="607.4357" y1="907.1343" y2="907.1343"/>
    <polyline points="607.4357,904.0442 607.4357,919.4949 622.4176,919.4949"/>
    <polyline points="644.2895,948.6826 656.1681,948.6826 656.1681,950.553"/>
    <line x1="657.1699" x2="657.0598" y1="950.5644" y2="955.2796"/>
    <polyline points="656.1681,955.2695 656.1681,950.553 659.9462,950.7413 663.1819,951.3468 665.9558,952.4473 667.7306,953.6297 670.0513,956.2051 671.6787,959.3474 673.1126,963.7871 674.8588,971.0348"/>
    <line x1="674.3994" x2="669.8057" y1="969.0654" y2="970.1344"/>
    <line x1="669.374" x2="673.9636" y1="968.2904" y2="967.2041"/>
    <line x1="673.539" x2="668.9611" y1="965.4463" y2="966.5811"/>
    <line x1="668.5568" x2="673.1126" y1="965.0077" y2="963.7871"/>
    <line x1="672.6706" x2="668.1516" y1="962.2211" y2="963.5716"/>
    <line x1="667.7373" x2="672.1982" y1="962.2745" y2="960.7429"/>
    <line x1="671.6787" x2="667.307" y1="959.3474" y2="961.1177"/>
    <line x1="666.856" x2="671.094" y1="960.1009" y2="958.0311"/>
    <line x1="670.4243" x2="666.3806" y1="956.7933" y2="959.221"/>
    <line x1="665.8772" x2="669.6499" y1="958.4693" y2="955.6388"/>
    <line x1="668.7549" x2="665.3388" y1="954.5789" y2="957.8308"/>
    <line x1="664.7505" x2="667.7306" y1="957.2854" y2="953.6297"/>
    <line x1="666.578" x2="664.0883" y1="952.8075" y2="956.8133"/>
    <line x1="663.3216" x2="665.3045" y1="956.4011" y2="952.1217"/>
    <line x1="663.9173" x2="662.4199" y1="951.5724" y2="956.0449"/>
    <line x1="661.3582" x2="662.4181" y1="955.7481" y2="951.1523"/>
    <line x1="660.8016" x2="660.1186" y1="950.8508" y2="955.5176"/>
    <line x1="658.6888" x2="659.0569" y1="955.3598" y2="950.6577"/>
    <polyline points="644.2895,957.1399 656.1681,957.1399 656.1681,955.2695 660.7615,955.6241 663.7201,956.6002 665.8772,958.4693 667.307,961.1177 668.5568,965.0077 670.2671,972.1125"/>
    <polygon points="673.7736,974.8379 672.931,975.0357 671.1859,980.2445 675.3233,983.3343 677.6539,978.7264"/>
    <polygon points="667.1163,981.5168 670.2671,972.1125 674.8588,971.0348 681.8646,978.0554 677.8919,985.9097 675.6631,984.7824 674.1686,986.7836"/>
    <polyline points="633.658,962.4086 626.498,977.299 603.3553,977.299 596.1953,962.4086"/>
    <polyline points="585.5637,957.1399 573.6851,957.1399 573.6851,955.2695 569.0918,955.6241 566.1332,956.6002 563.976,958.4693 562.5462,961.1177 561.2965,965.0077 559.5862,972.1125"/>
    <line x1="560.0476" x2="555.4538" y1="970.1344" y2="969.0654"/>
    <line x1="555.8896" x2="560.4793" y1="967.2041" y2="968.2904"/>
    <line x1="560.8922" x2="556.3143" y1="966.5811" y2="965.4463"/>
    <line x1="556.7407" x2="561.2965" y1="963.7871" y2="965.0077"/>
    <line x1="561.7017" x2="557.1827" y1="963.5716" y2="962.2211"/>
    <line x1="557.6551" x2="562.116" y1="960.7429" y2="962.2745"/>
    <line x1="562.5462" x2="558.1745" y1="961.1177" y2="959.3474"/>
    <line x1="558.7593" x2="562.9973" y1="958.0311" y2="960.1009"/>
    <line x1="563.4727" x2="559.429" y1="959.221" y2="956.7933"/>
    <line x1="560.2033" x2="563.976" y1="955.6388" y2="958.4693"/>
    <line x1="564.5145" x2="561.0984" y1="957.8308" y2="954.5789"/>
    <line x1="562.1226" x2="565.1027" y1="953.6297" y2="957.2854"/>
    <line x1="565.7649" x2="563.2752" y1="956.8133" y2="952.8075"/>
    <line x1="564.5488" x2="566.5316" y1="952.1217" y2="956.4011"/>
    <line x1="567.4334" x2="565.936" y1="956.0449" y2="951.5724"/>
    <line x1="567.4352" x2="568.4951" y1="951.1523" y2="955.7481"/>
    <line x1="569.7347" x2="569.0516" y1="955.5176" y2="950.8508"/>
    <line x1="570.7963" x2="571.1645" y1="950.6577" y2="955.3598"/>
    <line x1="572.7935" x2="572.6834" y1="955.2796" y2="950.5644"/>
    <polyline points="573.6851,950.553 573.6851,948.6826 585.5637,948.6826"/>
    <polyline points="573.6851,955.2695 573.6851,950.553 569.9071,950.7413 566.6714,951.3468 563.8974,952.4473 562.1226,953.6297 559.802,956.2051 558.1745,959.3474 556.7407,963.7871 554.9944,971.0348"/>
    <polygon points="552.1993,978.7264 556.0797,974.8379 556.9222,975.0357 558.6674,980.2445 554.53,983.3343"/>
    <polygon points="555.6846,986.7836 562.7369,981.5168 559.5862,972.1125 554.9944,971.0348 547.9887,978.0554 551.9613,985.9097 554.1901,984.7824"/>
    <polyline points="610.7408,977.299 611.0348,978.8399 611.8753,980.1643 613.1444,981.0864 614.9266,981.4848 616.7089,981.0864 617.978,980.1643 618.8185,978.8399 619.1124,977.299"/>
    <polyline points="616.5341,977.299 616.0401,978.4582 614.8619,978.9051 613.7235,978.3649 613.3244,977.299"/>
    <polygon points="589.0921,934.9023 592.4841,929.9233 597.1194,925.5108 602.6005,922.2073 608.2992,920.2526 614.654,919.4961 621.0218,920.1344 624.2946,921.0293 627.4423,922.2958 632.8998,925.6382 635.4583,927.8666 637.7428,930.3752 641.2052,935.7574 642.541,938.8763 643.5081,942.1285 644.2871,948.4806 644.2895,962.4086 585.5637,962.4086 585.7846,945.2629 586.8977,940.108"/>
    <polygon points="592.1242,267.1541 592.5433,265.3004 593.9241,263.5258 596.0562,262.3173 598.6069,261.8638 601.1781,262.2358 603.3686,263.3755 604.8364,265.1049 605.3526,267.1541"/>
    <line x1="597.3187" x2="597.3187" y1="261.9863" y2="236.7477"/>
    <line x1="600.1581" x2="600.1581" y1="236.7477" y2="261.9863"/>
    <line x1="600.1581" x2="597.3187" y1="251.9509" y2="251.9509"/>
    <polyline points="583.3747,226.1432 576.3014,226.5321 574.14,227.0425 572.8742,227.7396 571.9392,229.0882 568.9463,236.542 566.4086,241.2642"/>
    <line x1="567.5664" x2="562.0606" y1="239.2763" y2="236.2533"/>
    <line x1="562.8861" x2="568.5293" y1="234.6616" y2="237.4197"/>
    <line x1="569.3251" x2="563.5702" y1="235.6992" y2="233.1824"/>
    <line x1="564.1453" x2="569.9823" y1="231.8019" y2="234.1219"/>
    <line x1="570.5291" x2="564.6433" y1="232.6972" y2="230.504"/>
    <line x1="565.0975" x2="570.9933" y1="229.2704" y2="231.4367"/>
    <line x1="571.3995" x2="565.5437" y1="230.3536" y2="228.0813"/>
    <line x1="566.0235" x2="571.7666" y1="226.917" y2="229.4606"/>
    <line x1="572.1052" x2="566.5872" y1="228.7648" y2="225.7639"/>
    <line x1="567.2919" x2="572.4186" y1="224.6262" y2="228.2553"/>
    <line x1="572.718" x2="568.1871" y1="227.8897" y2="223.5395"/>
    <line x1="569.2897" x2="573.047" y1="222.5658" y2="227.5993"/>
    <line x1="573.49" x2="570.5761" y1="227.3234" y2="221.759"/>
    <line x1="572.0138" x2="574.14" y1="221.1321" y2="227.0425"/>
    <line x1="575.0645" x2="573.5959" y1="226.7709" y2="220.6639"/>
    <line x1="575.3451" x2="576.3014" y1="220.3242" y2="226.5321"/>
    <line x1="577.8722" x2="577.3006" y1="226.3438" y2="220.0887"/>
    <line x1="579.5059" x2="579.794" y1="219.941" y2="226.2155"/>
    <line x1="582.0847" x2="582.0036" y1="226.1512" y2="219.8706"/>
    <polyline points="583.3747,220.8948 583.3747,219.862 576.2944,220.1946 572.0138,221.1321 569.2897,222.5658 567.7136,224.0729 566.5872,225.7639 563.2438,233.9087 561.061,237.9692"/>
    <polygon points="551.9592,251.3566 553.6531,244.5847 560.2361,243.0439 562.2467,244.2828 563.8304,250.8556 558.5433,255.4135 561.6469,259.0136 569.1307,252.5618 566.4086,241.2642 561.061,237.9692 549.7458,240.6176 547.3481,250.2032"/>
    <polygon points="624.5007,267.1541 624.9198,265.3004 626.3006,263.5258 628.4327,262.3173 630.9834,261.8638 633.5546,262.2358 635.7451,263.3755 637.2129,265.1049 637.7291,267.1541"/>
    <line x1="629.6952" x2="629.6952" y1="261.9863" y2="236.7477"/>
    <line x1="632.5346" x2="632.5346" y1="236.7477" y2="261.9863"/>
    <line x1="632.5346" x2="629.6952" y1="251.9509" y2="251.9509"/>
    <polyline points="646.4786,226.1432 653.5519,226.5321 655.7133,227.0425 656.979,227.7396 657.9141,229.0882 660.9069,236.542 663.4447,241.2642"/>
    <line x1="662.2868" x2="667.7927" y1="239.2763" y2="236.2533"/>
    <line x1="666.9672" x2="661.324" y1="234.6616" y2="237.4197"/>
    <line x1="660.5281" x2="666.283" y1="235.6992" y2="233.1824"/>
    <line x1="665.708" x2="659.871" y1="231.8019" y2="234.1219"/>
    <line x1="659.3241" x2="665.2099" y1="232.6972" y2="230.504"/>
    <line x1="664.7558" x2="658.86" y1="229.2704" y2="231.4367"/>
    <line x1="658.4538" x2="664.3096" y1="230.3536" y2="228.0813"/>
    <line x1="663.8297" x2="658.0867" y1="226.917" y2="229.4606"/>
    <line x1="657.7481" x2="663.266" y1="228.7648" y2="225.7639"/>
    <line x1="662.5614" x2="657.4347" y1="224.6262" y2="228.2553"/>
    <line x1="657.1353" x2="661.6661" y1="227.8897" y2="223.5395"/>
    <line x1="660.5635" x2="656.8062" y1="222.5658" y2="227.5993"/>
    <line x1="656.3633" x2="659.2771" y1="227.3234" y2="221.759"/>
    <line x1="657.8394" x2="655.7133" y1="221.1321" y2="227.0425"/>
    <line x1="654.7888" x2="656.2574" y1="226.7709" y2="220.6639"/>
    <line x1="654.5082" x2="653.5519" y1="220.3242" y2="226.5321"/>
    <line x1="651.9811" x2="652.5527" y1="226.3438" y2="220.0887"/>
    <line x1="650.3474" x2="650.0593" y1="219.941" y2="226.2155"/>
    <line x1="647.7686" x2="647.8497" y1="226.1512" y2="219.8706"/>
    <polyline points="646.4786,220.8948 646.4786,219.862 653.5589,220.1946 657.8394,221.1321 660.5635,222.5658 662.1397,224.0729 663.266,225.7639 666.6095,233.9087 668.7922,237.9692"/>
    <polygon points="668.7922,237.9692 680.1075,240.6176 682.5052,250.2032 677.8941,251.3566 676.2002,244.5847 669.6172,243.0439 667.6066,244.2828 666.0228,250.8556 671.3099,255.4135 668.2064,259.0136 660.7225,252.5618 663.4447,241.2642"/>
    <polygon points="631.1774,193.8498 633.992,195.7545 636.5853,197.9509 639.1709,200.7023 641.2021,203.427 643.1005,206.6907 644.5955,210.1578 645.5782,213.411 646.2527,217.126 646.4763,220.5171 646.4786,236.7477 583.3747,236.7477 583.5733,217.36 584.7091,211.8159 586.8171,206.5639 590.5322,200.8839 595.081,196.3658 600.786,192.6891 607.1452,190.3175 610.8534,189.6069 614.2422,189.3504 617.6389,189.4597 621.3744,190.0088 627.8305,192.1023"/>
    <polyline points="620.0937,189.3429 609.7595,189.3429 609.7595,183.6218"/>
    <line x1="609.7595" x2="620.0937" y1="184.766" y2="184.766"/>
    <polyline points="620.0937,183.6218 620.0937,189.3429 609.7595,189.3429"/>
    <line x1="609.7595" x2="620.0937" y1="188.1987" y2="188.1987"/>
    <line x1="620.0937" x2="609.7595" y1="187.0545" y2="187.0545"/>
    <line x1="609.7595" x2="620.0937" y1="185.9103" y2="185.9103"/>
    <polygon points="598.8034,183.6218 598.8034,135.7361 631.0499,135.7361 631.0499,183.6218"/>
    <polygon points="607.1043,159.6789 607.5945,160.6373 608.3385,160.175 608.3385,159.1829 607.9369,158.7206 607.298,158.9774"/>
    <polygon points="622.5553,158.9774 622.749,159.6789 622.2588,160.6373 621.5148,160.175 621.5148,159.1829 621.9164,158.7206"/>
    <polyline points="459.5181,205.0374 466.1071,205.1825 469.1337,200.5317 473.2082,203.1833 468.7056,210.1023 456.6166,209.8361 452.894,204.3848 457.0459,193.0279 465.1291,191.3524 466.1159,196.1125 460.6825,197.2388 458.4195,203.4288"/>
    <polygon points="459.4404,205.852 458.4691,207.0453 456.9412,207.2269 455.7173,206.2944 455.4869,204.7731 456.3797,203.52 457.8928,203.2409 459.1739,204.093 459.484,204.8129"/>
    <polyline points="456.6166,209.8361 447.8288,215.8371 447.2606,215.005 447.7286,215.9029 437.0764,222.623"/>
    <polyline points="437.0764,214.8181 444.1557,210.352 444.6744,211.2179"/>
    <line x1="444.1062" x2="452.894" y1="210.3858" y2="204.3848"/>
    <polygon points="447.2075,215.0435 445.4461,215.3472 444.0008,214.2957 443.6953,212.7833 444.6192,211.2533 446.3604,210.8495 447.8634,211.8168 448.2172,213.5687"/>
    <polyline points="405.9188,216.4503 405.739,218.0114 405.2074,219.2622 404.4417,220.0524 403.455,220.4104 402.3947,220.2176 401.3388,219.2622 400.8072,218.0114 400.6274,216.4503"/>
    <polygon points="398.6989,204.5586 397.2474,202.3803 396.7725,200.0696 397.2474,197.4954 398.6989,195.3171 400.6486,193.9892 403.2072,193.4363 405.7765,193.9372 407.7527,195.2253 409.2481,197.3738 409.775,199.9378 409.2481,202.5019 407.7527,204.6504 405.7765,205.9385 403.2072,206.4394 400.6486,205.8865"/>
    <polygon points="402.1615,199.9378 401.8969,199.9378"/>
    <polygon points="422.0128,171.8044 425.6052,174.5618 429.0428,178.0612 431.7358,181.7021 433.9179,185.6704 435.6602,190.2559 436.7205,195.0454 437.0743,199.5602 437.0764,249.9905 369.4697,249.9905 369.4727,199.4891 369.9553,194.2292 371.6322,188.0417 374.4471,182.282 378.2988,177.1574 383.0487,172.852 386.8508,170.3917 390.9475,168.4617 395.633,167.0092 400.1031,166.2835 404.6301,166.1617 409.1328,166.6462 413.8895,167.8449 418.084,169.552"/>
    <polyline points="369.4697,214.8181 362.3905,210.352 361.8718,211.2179"/>
    <line x1="362.44" x2="353.6522" y1="210.3858" y2="204.3848"/>
    <polyline points="348.1267,203.4288 345.8637,197.2388 340.4303,196.1125 341.417,191.3524 349.5002,193.0279 353.6522,204.3848 349.9296,209.8361 337.8406,210.1023 333.338,203.1833 337.4125,200.5317 340.439,205.1825 347.0281,205.0374"/>
    <polygon points="347.3723,204.093 347.0448,205.5964 347.8555,206.9042 349.3476,207.2797 350.6807,206.5113 351.1038,205.032 350.7349,204.0596 350.1665,203.52 348.6534,203.2409"/>
    <polyline points="349.9296,209.8361 358.7174,215.8371 359.2856,215.005 358.8176,215.9029 369.4697,222.623"/>
    <polygon points="359.3387,215.0435 361.1001,215.3472 362.5454,214.2957 362.8509,212.7833 361.927,211.2533 360.1858,210.8495 358.6828,211.8168 358.3289,213.5687"/>
    <line x1="384.4528" x2="384.4528" y1="249.9905" y2="263.5512"/>
    <line x1="384.4528" x2="384.7129" y1="263.3399" y2="263.3399"/>
    <line x1="384.4528" x2="394.139" y1="261.4329" y2="261.4329"/>
    <line x1="394.139" x2="384.4528" y1="259.5258" y2="259.5258"/>
    <line x1="384.4528" x2="394.139" y1="257.6187" y2="257.6187"/>
    <line x1="394.139" x2="384.4528" y1="255.7117" y2="255.7117"/>
    <line x1="384.4528" x2="394.139" y1="253.8046" y2="253.8046"/>
    <line x1="394.139" x2="384.4528" y1="251.8976" y2="251.8976"/>
    <line x1="394.139" x2="394.139" y1="249.9905" y2="263.5512"/>
    <line x1="394.139" x2="393.8789" y1="263.3399" y2="263.3399"/>
    <polygon points="389.1644,261.8638 391.7356,262.2358 393.9261,263.3755 395.3939,265.1049 395.9101,267.1541 382.6817,267.1541 383.1008,265.3004 384.4816,263.5258 386.6137,262.3173"/>
    <polygon points="410.6361,267.1541 411.0552,265.3004 412.436,263.5258 414.5681,262.3173 417.1188,261.8638 419.69,262.2358 421.8805,263.3755 423.3483,265.1049 423.8645,267.1541"/>
    <line x1="412.4072" x2="412.4072" y1="263.5512" y2="249.9905"/>
    <line x1="412.4072" x2="422.0934" y1="251.8976" y2="251.8976"/>
    <line x1="422.0934" x2="422.0934" y1="249.9905" y2="263.5512"/>
    <line x1="422.0934" x2="421.8333" y1="263.3399" y2="263.3399"/>
    <line x1="422.0934" x2="412.4072" y1="261.4329" y2="261.4329"/>
    <line x1="412.4072" x2="422.0934" y1="259.5258" y2="259.5258"/>
    <line x1="422.0934" x2="412.4072" y1="257.6187" y2="257.6187"/>
    <line x1="412.4072" x2="422.0934" y1="255.7117" y2="255.7117"/>
    <line x1="422.0934" x2="412.4072" y1="253.8046" y2="253.8046"/>
    <line x1="412.4072" x2="412.6673" y1="263.3399" y2="263.3399"/>
    <polygon points="268.3161,249.7174 262.8052,246.1923 260.8613,252.4387 263.4021,257.9691 255.5707,251.9436 258.8816,241.3042 262.6569,239.926 272.0435,245.9303 269.9357,255.584"/>
    <polyline points="262.6569,239.926 259.1663,230.8833 256.1123,224.1459 253.2916,219.3151 250.4551,216.014 248.0231,214.306 245.4592,213.3452 242.8521,212.9529 238.0639,212.8748 238.0639,216.8937"/>
    <line x1="238.7969" x2="238.7837" y1="216.8923" y2="212.8734"/>
    <polyline points="238.0639,212.8748 238.0639,211.9332 228.4936,211.9332"/>
    <polyline points="228.4936,217.8353 238.0639,217.8353 238.0639,216.8937 242.0017,216.9274 244.9361,217.3673 247.3575,218.6544 249.9902,221.6069 252.5281,225.964 255.4534,232.4214 258.8816,241.3042"/>
    <line x1="257.4412" x2="261.1965" y1="237.4388" y2="236.0073"/>
    <line x1="259.8236" x2="256.0945" y1="232.4949" y2="233.9934"/>
    <line x1="254.8323" x2="258.5266" y1="230.9464" y2="229.3641"/>
    <line x1="257.2937" x2="253.6461" y1="226.5896" y2="228.2769"/>
    <line x1="252.5281" x2="256.1123" y1="225.964" y2="224.1459"/>
    <line x1="254.9688" x2="251.4715" y1="222.0072" y2="223.9872"/>
    <line x1="250.4708" x2="253.8483" y1="222.3259" y2="220.1478"/>
    <line x1="252.7342" x2="249.5221" y1="218.5431" y2="220.9585"/>
    <line x1="248.6227" x2="251.6088" y1="219.8607" y2="217.1709"/>
    <line x1="250.4551" x2="247.7692" y1="216.014" y2="219.0035"/>
    <line x1="246.9535" x2="249.2608" y1="218.3518" y2="215.0612"/>
    <line x1="248.0231" x2="246.1579" y1="214.306" y2="217.8658"/>
    <line x1="245.3531" x2="246.7509" y1="217.5078" y2="213.7398"/>
    <line x1="245.4592" x2="244.5036" y1="213.3452" y2="217.2488"/>
    <line x1="243.578" x2="244.1592" y1="217.0708" y2="213.0941"/>
    <line x1="242.8521" x2="242.5544" y1="212.9529" y2="216.9608"/>
    <line x1="241.4205" x2="241.5301" y1="216.9059" y2="212.8885"/>
    <line x1="240.1793" x2="240.1694" y1="212.8708" y2="216.8897"/>
    <line x1="199.6202" x2="199.6202" y1="241.0339" y2="241.0339"/>
    <polyline points="193.6864,252.8685 193.1262,254.2834 191.7493,254.9313 190.3021,254.4611 189.8083,253.8642 189.5527,252.8685"/>
    <polyline points="177.334,252.8685 177.6281,255.7525 178.4984,258.5177 179.9091,261.0503 181.6119,263.0628 183.876,264.8733 186.2137,266.0917 188.9946,266.9108 191.6195,267.1541 194.2445,266.9108 197.0254,266.0917 199.3631,264.8733 201.6272,263.0628 203.33,261.0503 204.7407,258.5177 205.611,255.7525 205.9051,252.8685"/>
    <line x1="183.6189" x2="183.6189" y1="241.0339" y2="241.0339"/>
    <polygon points="163.5498,241.0339 219.6893,241.0339 206.4346,252.8685 176.8045,252.8685"/>
    <polyline points="154.7455,217.8353 145.1752,217.8353 145.1752,216.8937 141.2374,216.9274 138.303,217.3673 135.8816,218.6544 133.2489,221.6069 130.7109,225.964 127.7857,232.4214 124.3575,241.3042"/>
    <polyline points="120.5822,239.926 124.0728,230.8833 127.1268,224.1459 129.9475,219.3151 132.784,216.014 135.216,214.306 137.7799,213.3452 140.387,212.9529 145.1752,212.8748 145.1752,216.8937"/>
    <line x1="144.4422" x2="144.4554" y1="216.8923" y2="212.8734"/>
    <polyline points="145.1752,212.8748 145.1752,211.9332 154.7455,211.9332"/>
    <line x1="143.0598" x2="143.0697" y1="212.8708" y2="216.8897"/>
    <line x1="141.8186" x2="141.709" y1="216.9059" y2="212.8885"/>
    <line x1="140.387" x2="140.6847" y1="212.9529" y2="216.9608"/>
    <line x1="139.6611" x2="139.0799" y1="217.0708" y2="213.0941"/>
    <line x1="137.7799" x2="138.7355" y1="213.3452" y2="217.2488"/>
    <line x1="137.886" x2="136.4882" y1="217.5078" y2="213.7398"/>
    <line x1="135.216" x2="137.0812" y1="214.306" y2="217.8658"/>
    <line x1="136.2856" x2="133.9783" y1="218.3518" y2="215.0612"/>
    <line x1="132.784" x2="135.4699" y1="216.014" y2="219.0035"/>
    <line x1="134.6164" x2="131.6303" y1="219.8607" y2="217.1709"/>
    <line x1="130.5049" x2="133.717" y1="218.5431" y2="220.9585"/>
    <line x1="132.7683" x2="129.3908" y1="222.3259" y2="220.1478"/>
    <line x1="128.2703" x2="131.7676" y1="222.0072" y2="223.9872"/>
    <line x1="130.7109" x2="127.1268" y1="225.964" y2="224.1459"/>
    <line x1="125.9454" x2="129.593" y1="226.5896" y2="228.2769"/>
    <line x1="128.4068" x2="124.7125" y1="230.9464" y2="229.3641"/>
    <line x1="123.4155" x2="127.1446" y1="232.4949" y2="233.9934"/>
    <line x1="125.7979" x2="122.0426" y1="237.4388" y2="236.0073"/>
    <polygon points="111.1956,245.9303 113.3034,255.584 114.923,249.7174 120.4339,246.1923 122.3778,252.4387 119.837,257.9691 127.6684,251.9436 124.3575,241.3042 120.5822,239.926"/>
    <polygon points="177.4209,191.3109 180.6518,143.8826 202.5873,143.8826 205.8182,191.3109"/>
    <polyline points="187.1443,191.3109 187.1443,200.0011 228.4936,200.0011 228.4936,241.0339 154.7455,241.0339 154.7455,200.0011 196.0948,200.0011 196.0948,191.3109"/>
    <line x1="196.0948" x2="187.1443" y1="194.2076" y2="194.2076"/>
    <line x1="187.1443" x2="196.0948" y1="197.1044" y2="197.1044"/>
    <line x1="195.7173" x2="195.7173" y1="176.4851" y2="172.3396"/>
    <line x1="197.3564" x2="197.3564" y1="172.3396" y2="176.4851"/>
    <line x1="194.0782" x2="194.0782" y1="176.4851" y2="172.3396"/>
    <line x1="192.4391" x2="192.4391" y1="172.3396" y2="176.4851"/>
    <line x1="190.8" x2="190.8" y1="176.4851" y2="172.3396"/>
    <line x1="189.1609" x2="189.1609" y1="172.3396" y2="176.4851"/>
    <line x1="187.5218" x2="187.5218" y1="176.4851" y2="172.3396"/>
    <line x1="185.8827" x2="185.8827" y1="172.3396" y2="176.4851"/>
    <polyline points="184.2435,176.4851 184.2435,172.3396 184.2435,176.4851 198.9956,176.4851 198.9956,172.3396 184.2435,172.3396"/>
    <polygon points="187.4575,167.5967 187.1929,167.5967"/>
    <polygon points="195.7816,167.5967 196.0462,167.5967"/>
  </g>
</svg>
