<?xml version="1.0" encoding="utf-8" ?>
<svg xmlns="http://www.w3.org/2000/svg" xmlns:cc="http://creativecommons.org/ns#" xmlns:dc="http://purl.org/dc/elements/1.1/" xmlns:ev="http://www.w3.org/2001/xml-events" xmlns:inkscape="http://www.inkscape.org/namespaces/inkscape" xmlns:rdf="http://www.w3.org/1999/02/22-rdf-syntax-ns#" xmlns:sodipodi="http://sodipodi.sourceforge.net/DTD/sodipodi-0.dtd" xmlns:xlink="http://www.w3.org/1999/xlink" baseProfile="tiny" height="29.7cm" version="1.2" viewBox="0 0 793.7007874015749 1122.5196850393702" width="21.0cm">
  <metadata>
    <rdf:RDF>
      <cc:Work>
        <dc:format>image/svg+xml</dc:format>
        <dc:source/>
        <dc:date>2022-01-09T12:55:23.963178</dc:date>
      </cc:Work>
    </rdf:RDF>
  </metadata>
  <defs/>
  <g fill="none" id="layer2" inkscape:groupmode="layer" inkscape:label="2" stroke="#00f" style="display:inline">
    <polyline points="386.426,445.3886 396.8504,439.3701 412.3867,448.34"/>
    <polyline points="411.5144,448.8436 396.8504,440.3774 387.2722,445.9074 380.4846,441.9583 367.6179,449.4171 364.1187,447.3968 350.8998,455.0288"/>
    <polyline points="351.5662,455.4135 347.7529,453.2119 331.3871,462.6607 331.3871,477.1654"/>
    <polyline points="331.3871,477.8096 347.7529,487.2584 364.1187,477.8096 364.1187,471.4674 380.4846,462.0185 389.8161,467.4061"/>
    <line x1="388.6675" x2="388.6675" y1="468.0693" y2="468.0693"/>
    <line x1="385.1605" x2="385.1605" y1="459.4326" y2="458.1865"/>
    <line x1="387.4985" x2="387.4985" y1="458.0828" y2="456.8367"/>
    <line x1="389.8365" x2="389.8365" y1="456.733" y2="455.4868"/>
    <line x1="392.1744" x2="392.1744" y1="455.3832" y2="454.137"/>
    <line x1="394.5124" x2="394.5124" y1="454.0333" y2="452.7872"/>
    <polyline points="396.8504,452.6835 396.8504,451.4373 380.4846,441.9885 366.9515,449.8018"/>
    <line x1="373.4706" x2="373.4706" y1="461.6646" y2="466.068"/>
    <line x1="371.1327" x2="371.1327" y1="467.4179" y2="463.0144"/>
    <line x1="368.7947" x2="368.7947" y1="464.3643" y2="468.7677"/>
    <line x1="366.4567" x2="366.4567" y1="470.1175" y2="465.7141"/>
    <line x1="364.1187" x2="380.4846" y1="467.0639" y2="457.6151"/>
    <line x1="378.1466" x2="378.1466" y1="458.9649" y2="463.3684"/>
    <line x1="375.8086" x2="375.8086" y1="464.7182" y2="460.3148"/>
    <line x1="380.4846" x2="396.8504" y1="460.8862" y2="451.4373"/>
    <polyline points="400.857,454.9967 413.2162,447.8611 429.5821,457.3099 429.5821,465.2769"/>
    <line x1="427.2441" x2="427.2441" y1="466.6267" y2="458.6597"/>
    <line x1="429.5821" x2="445.9479" y1="458.2677" y2="467.7165"/>
    <polyline points="439.8778,471.2211 445.9479,467.7165 462.3137,477.1654"/>
    <line x1="459.9758" x2="459.9758" y1="478.5152" y2="478.5152"/>
    <line x1="455.2998" x2="455.2998" y1="481.2148" y2="481.2148"/>
    <line x1="452.9618" x2="452.9618" y1="490.6637" y2="490.6637"/>
    <line x1="456.4688" x2="456.4688" y1="492.6884" y2="492.6884"/>
    <line x1="457.6378" x2="457.6378" y1="493.3633" y2="493.3633"/>
    <line x1="461.1447" x2="461.1447" y1="495.3881" y2="495.3881"/>
    <line x1="459.9758" x2="459.9758" y1="497.4128" y2="497.4128"/>
    <line x1="464.6517" x2="464.6517" y1="497.4128" y2="497.4128"/>
    <line x1="466.9897" x2="466.9897" y1="493.3633" y2="493.3633"/>
    <line x1="471.6656" x2="471.6656" y1="490.6637" y2="490.6637"/>
    <line x1="474.0036" x2="474.0036" y1="489.3138" y2="489.3138"/>
    <polyline points="478.6796,486.6142 462.3137,477.1654 445.9479,486.6142 445.9479,474.7257 429.5821,465.2769 414.4378,474.0204"/>
    <line x1="415.5542" x2="415.5542" y1="473.3758" y2="465.4089"/>
    <line x1="417.8922" x2="417.8922" y1="464.0591" y2="472.026"/>
    <line x1="420.2302" x2="420.2302" y1="470.6762" y2="462.7092"/>
    <line x1="422.5681" x2="422.5681" y1="461.3594" y2="469.3263"/>
    <line x1="424.9061" x2="424.9061" y1="467.9765" y2="460.0096"/>
    <line x1="429.5821" x2="413.2162" y1="457.3099" y2="466.7587"/>
    <line x1="410.8783" x2="410.8783" y1="463.4821" y2="474.6649"/>
    <line x1="408.5403" x2="408.5403" y1="476.0147" y2="464.832"/>
    <polyline points="406.2023,466.1818 406.1298,477.4065 413.2162,473.3151 429.5821,482.7639 429.5821,496.063 445.9479,486.6142 462.3137,496.063 478.6796,486.6142 495.0454,496.063"/>
    <line x1="492.7074" x2="492.7074" y1="497.4128" y2="497.4128"/>
    <line x1="485.6935" x2="485.6935" y1="509.5613" y2="509.5613"/>
    <line x1="490.3694" x2="490.3694" y1="512.261" y2="512.261"/>
    <line x1="493.8764" x2="493.8764" y1="514.2857" y2="514.2857"/>
    <line x1="492.7074" x2="492.7074" y1="516.3105" y2="516.3105"/>
    <line x1="497.3834" x2="497.3834" y1="516.3105" y2="516.3105"/>
    <line x1="499.7214" x2="499.7214" y1="512.261" y2="512.261"/>
    <line x1="504.3973" x2="504.3973" y1="509.5613" y2="509.5613"/>
    <line x1="506.7353" x2="506.7353" y1="508.2115" y2="508.2115"/>
    <polyline points="511.4112,505.5118 495.0454,496.063 478.6796,505.5118 462.3137,496.063 445.9479,505.5118 429.5821,496.063 415.5606,504.1583 415.5542,490.8629"/>
    <line x1="417.8922" x2="417.8922" y1="489.5131" y2="502.8121"/>
    <line x1="420.2302" x2="420.2302" y1="501.4623" y2="488.1632"/>
    <line x1="422.5681" x2="422.5681" y1="486.8134" y2="500.1125"/>
    <line x1="424.9061" x2="424.9061" y1="498.7627" y2="485.4636"/>
    <line x1="427.2441" x2="427.2441" y1="484.1137" y2="497.4128"/>
    <line x1="431.92" x2="431.92" y1="497.4128" y2="497.4128"/>
    <line x1="431.92" x2="431.92" y1="494.7132" y2="482.8247"/>
    <polyline points="429.5821,482.7639 413.2162,492.2127 413.2162,493.6662 408.5403,496.3659"/>
    <line x1="410.8783" x2="410.8783" y1="495.016" y2="497.9006"/>
    <line x1="410.8783" x2="410.8783" y1="500.6002" y2="504.1546"/>
    <line x1="408.5403" x2="408.5403" y1="505.5044" y2="501.9501"/>
    <line x1="406.2023" x2="406.2023" y1="503.2999" y2="506.8542"/>
    <line x1="403.8643" x2="403.8643" y1="508.2041" y2="504.6497"/>
    <polyline points="403.3967,503.0299 401.7601,502.085 401.7601,486.9669"/>
    <line x1="402.5784" x2="402.5784" y1="486.4945" y2="502.5575"/>
    <line x1="401.7601" x2="387.0309" y1="502.085" y2="510.589"/>
    <line x1="387.7323" x2="387.7323" y1="510.184" y2="495.0659"/>
    <polyline points="387.0309,495.4709 387.0309,512.4787 385.3943,513.4236 385.3943,496.4157 377.2114,491.6913 377.2114,474.6835 400.1236,461.4551 408.3065,483.1874 385.3943,496.4157 377.2114,474.6835 369.0285,486.9669 377.2114,491.6913"/>
    <line x1="376.6659" x2="376.6659" y1="491.3764" y2="506.4945"/>
    <polyline points="375.5748,505.8646 373.9382,506.8094 373.9382,489.8016"/>
    <line x1="373.7044" x2="373.7044" y1="489.6666" y2="479.9478"/>
    <line x1="373.4706" x2="373.4706" y1="480.2988" y2="476.8667"/>
    <line x1="372.3016" x2="372.3016" y1="476.1918" y2="482.0535"/>
    <line x1="372.5354" x2="372.5354" y1="481.7026" y2="488.9917"/>
    <polyline points="372.3016,488.8567 372.3016,505.8646 373.9382,506.8094"/>
    <line x1="373.1199" x2="373.1199" y1="506.337" y2="489.3291"/>
    <line x1="374.8734" x2="374.8734" y1="490.3415" y2="478.193"/>
    <line x1="374.6396" x2="374.6396" y1="478.544" y2="477.5416"/>
    <polyline points="375.1219,477.82 364.1187,471.4674 364.1187,467.0639 347.7529,457.6151"/>
    <line x1="348.9219" x2="348.9219" y1="458.29" y2="469.0357"/>
    <line x1="350.0909" x2="350.0909" y1="469.7106" y2="458.9649"/>
    <line x1="351.2599" x2="351.2599" y1="459.6399" y2="470.3855"/>
    <line x1="352.4288" x2="352.4288" y1="471.0605" y2="460.3148"/>
    <line x1="353.5978" x2="353.5978" y1="460.9897" y2="471.7354"/>
    <line x1="354.7668" x2="354.7668" y1="472.4103" y2="461.6646"/>
    <line x1="355.9358" x2="355.9358" y1="462.3395" y2="473.0852"/>
    <line x1="357.1048" x2="357.1048" y1="473.7601" y2="463.0144"/>
    <line x1="358.2738" x2="358.2738" y1="463.6894" y2="474.435"/>
    <line x1="359.4428" x2="359.4428" y1="475.11" y2="464.3643"/>
    <line x1="360.6118" x2="360.6118" y1="465.0392" y2="475.7849"/>
    <line x1="361.7807" x2="361.7807" y1="476.4598" y2="465.7141"/>
    <line x1="362.9497" x2="362.9497" y1="466.389" y2="477.1347"/>
    <line x1="361.7807" x2="361.7807" y1="479.1595" y2="480.7353"/>
    <line x1="359.4428" x2="359.4428" y1="480.5093" y2="482.0851"/>
    <line x1="357.1048" x2="357.1048" y1="481.8591" y2="483.435"/>
    <line x1="354.7668" x2="354.7668" y1="483.2089" y2="484.7848"/>
    <line x1="352.4288" x2="352.4288" y1="484.5588" y2="486.1346"/>
    <line x1="350.0909" x2="350.0909" y1="485.9086" y2="487.4845"/>
    <line x1="348.9219" x2="348.9219" y1="489.5092" y2="491.0389"/>
    <polyline points="347.7529,490.364 347.7529,488.8343 364.1187,479.3855 371.3665,483.4574 371.3665,488.3168"/>
    <line x1="370.1975" x2="370.1975" y1="487.6418" y2="485.2121"/>
    <line x1="371.1327" x2="371.1327" y1="483.435" y2="475.5169"/>
    <line x1="369.9637" x2="369.9637" y1="474.8419" y2="482.7601"/>
    <line x1="368.7947" x2="368.7947" y1="482.0851" y2="474.167"/>
    <line x1="367.6257" x2="367.6257" y1="473.4921" y2="481.4102"/>
    <line x1="366.4567" x2="366.4567" y1="480.7353" y2="472.8172"/>
    <line x1="365.2877" x2="365.2877" y1="472.1423" y2="480.0604"/>
    <polyline points="364.1187,479.3855 364.1187,477.8096 347.7529,468.3608 331.3871,477.8096 331.3871,485.9149"/>
    <line x1="332.556" x2="332.556" y1="486.5898" y2="478.4845"/>
    <polyline points="331.945,477.4875 331.3871,477.1654 315.0212,486.6142"/>
    <line x1="318.5282" x2="318.5282" y1="488.6389" y2="488.6389"/>
    <line x1="319.6972" x2="319.6972" y1="489.3138" y2="489.3138"/>
    <line x1="322.0352" x2="322.0352" y1="490.6637" y2="490.6637"/>
    <polyline points="322.5986,490.9889 315.0212,486.6142 298.6554,496.063"/>
    <line x1="300.9934" x2="300.9934" y1="497.4128" y2="497.4128"/>
    <line x1="302.1624" x2="302.1624" y1="498.0877" y2="498.0877"/>
    <line x1="306.8383" x2="306.8383" y1="500.7874" y2="500.7874"/>
    <line x1="313.8522" x2="313.8522" y1="504.8369" y2="504.8369"/>
    <line x1="315.0212" x2="331.3871" y1="504.2201" y2="513.6689"/>
    <line x1="330.2181" x2="330.2181" y1="512.994" y2="519.8279"/>
    <line x1="329.0491" x2="329.0491" y1="520.5028" y2="512.3191"/>
    <line x1="327.8801" x2="327.8801" y1="511.6442" y2="521.1777"/>
    <line x1="326.7111" x2="326.7111" y1="521.8526" y2="510.9692"/>
    <line x1="325.5421" x2="325.5421" y1="510.2943" y2="522.5275"/>
    <line x1="323.2041" x2="323.2041" y1="522.5786" y2="508.9445"/>
    <polyline points="324.3731,509.6194 324.3731,523.2025 315.0212,517.8542 298.6554,527.303 298.6554,533.8583 282.2896,524.4094 265.9237,533.8583 249.5579,524.4094 233.192,533.8583"/>
    <line x1="230.8541" x2="230.8541" y1="551.4061" y2="551.4061"/>
    <line x1="242.544" x2="242.544" y1="558.1552" y2="558.1552"/>
    <line x1="251.8959" x2="251.8959" y1="560.8549" y2="560.8549"/>
    <line x1="240.206" x2="240.206" y1="567.604" y2="567.604"/>
    <line x1="236.699" x2="236.699" y1="573.6783" y2="590.6862"/>
    <line x1="237.868" x2="237.868" y1="591.3611" y2="574.3532"/>
    <line x1="239.037" x2="239.037" y1="575.0281" y2="592.036"/>
    <line x1="240.206" x2="240.206" y1="592.7109" y2="575.703"/>
    <line x1="241.375" x2="241.375" y1="576.378" y2="593.3858"/>
    <line x1="242.544" x2="242.544" y1="594.0607" y2="577.0529"/>
    <line x1="243.7129" x2="243.7129" y1="577.7278" y2="594.7357"/>
    <line x1="244.8819" x2="244.8819" y1="595.4106" y2="578.4027"/>
    <line x1="246.0509" x2="246.0509" y1="579.0776" y2="596.0855"/>
    <line x1="247.2199" x2="247.2199" y1="596.7604" y2="579.7525"/>
    <line x1="248.3889" x2="248.3889" y1="580.4274" y2="597.4353"/>
    <polyline points="249.5579,598.1102 233.192,588.6614 233.192,571.6535 249.5579,562.2047 265.9237,571.6535 282.2896,562.2047 298.6554,571.6535 315.0212,562.2047 331.3871,571.6535 347.7529,562.2047 353.6486,565.6086 353.5978,536.2849"/>
    <line x1="352.4288" x2="352.4288" y1="535.61" y2="564.9044"/>
    <line x1="351.2599" x2="351.2599" y1="564.2295" y2="534.935"/>
    <line x1="350.0909" x2="350.0909" y1="534.2601" y2="563.5546"/>
    <line x1="348.9219" x2="348.9219" y1="562.8796" y2="533.5852"/>
    <polyline points="347.7529,532.9103 364.1187,542.3591 364.1187,559.5636 364.1187,536.7542 380.4846,527.3054 396.8504,536.7542 396.8504,550.6196"/>
    <line x1="398.0194" x2="398.0194" y1="551.2946" y2="540.7635"/>
    <line x1="399.1884" x2="399.1884" y1="541.4384" y2="551.9695"/>
    <line x1="400.3574" x2="400.3574" y1="552.6444" y2="542.1133"/>
    <line x1="401.5263" x2="401.5263" y1="542.7882" y2="553.3193"/>
    <line x1="402.6953" x2="402.6953" y1="553.9942" y2="543.4631"/>
    <line x1="403.8643" x2="403.8643" y1="544.138" y2="554.6691"/>
    <line x1="405.0333" x2="405.0333" y1="555.3441" y2="544.813"/>
    <line x1="406.2023" x2="406.2023" y1="545.4879" y2="556.019"/>
    <line x1="407.3713" x2="407.3713" y1="556.6939" y2="546.1628"/>
    <line x1="408.5403" x2="408.5403" y1="546.8377" y2="557.3688"/>
    <line x1="409.7093" x2="409.7093" y1="558.0437" y2="547.5126"/>
    <line x1="410.8783" x2="410.8783" y1="548.1875" y2="558.7186"/>
    <line x1="412.0472" x2="412.0472" y1="559.3936" y2="548.8625"/>
    <polyline points="413.2162,549.5374 413.2162,560.0685 396.8504,569.5173 380.4846,560.0685 380.4846,546.2031"/>
    <line x1="379.3156" x2="379.3156" y1="545.5281" y2="568.3375"/>
    <line x1="378.1466" x2="378.1466" y1="567.6626" y2="544.8532"/>
    <line x1="376.9776" x2="376.9776" y1="544.1783" y2="566.9877"/>
    <line x1="375.8086" x2="375.8086" y1="566.3128" y2="543.5034"/>
    <line x1="374.6396" x2="374.6396" y1="542.8285" y2="565.6379"/>
    <line x1="373.4706" x2="373.4706" y1="564.963" y2="542.1536"/>
    <line x1="372.3016" x2="372.3016" y1="541.4787" y2="564.288"/>
    <line x1="371.1327" x2="371.1327" y1="563.6131" y2="540.8037"/>
    <line x1="369.9637" x2="369.9637" y1="540.1288" y2="562.9382"/>
    <line x1="368.7947" x2="368.7947" y1="562.2633" y2="539.4539"/>
    <line x1="367.6257" x2="367.6257" y1="538.779" y2="561.5884"/>
    <line x1="366.4567" x2="366.4567" y1="560.9135" y2="538.1041"/>
    <line x1="365.2877" x2="365.2877" y1="537.4292" y2="560.2385"/>
    <line x1="362.9497" x2="362.9497" y1="560.2385" y2="541.6842"/>
    <line x1="361.7807" x2="361.7807" y1="541.0093" y2="560.9135"/>
    <line x1="360.6118" x2="360.6118" y1="561.5884" y2="540.3344"/>
    <line x1="359.4428" x2="359.4428" y1="539.6595" y2="562.2633"/>
    <line x1="358.2738" x2="358.2738" y1="562.9382" y2="538.9845"/>
    <line x1="357.1048" x2="357.1048" y1="538.3096" y2="563.6131"/>
    <line x1="355.9358" x2="355.9358" y1="564.288" y2="537.6347"/>
    <line x1="354.7668" x2="354.7668" y1="536.9598" y2="564.963"/>
    <line x1="351.2599" x2="351.2599" y1="571.0372" y2="583.1271"/>
    <line x1="352.4288" x2="352.4288" y1="583.802" y2="571.7121"/>
    <line x1="353.5978" x2="353.5978" y1="572.387" y2="584.4769"/>
    <line x1="354.7668" x2="354.7668" y1="585.1519" y2="573.0619"/>
    <line x1="355.9358" x2="355.9358" y1="573.7369" y2="585.8268"/>
    <line x1="357.1048" x2="357.1048" y1="586.5017" y2="574.4118"/>
    <line x1="358.2738" x2="358.2738" y1="575.0867" y2="587.1766"/>
    <line x1="359.4428" x2="359.4428" y1="587.8515" y2="575.7616"/>
    <line x1="360.6118" x2="360.6118" y1="576.4365" y2="588.5264"/>
    <line x1="361.7807" x2="361.7807" y1="589.2013" y2="577.1114"/>
    <line x1="362.9497" x2="362.9497" y1="577.7864" y2="589.8763"/>
    <line x1="365.2877" x2="365.2877" y1="591.2261" y2="584.1269"/>
    <line x1="366.4567" x2="366.4567" y1="584.8018" y2="591.901"/>
    <line x1="367.6257" x2="367.6257" y1="592.5759" y2="585.4767"/>
    <line x1="368.7947" x2="368.7947" y1="586.1516" y2="593.2508"/>
    <line x1="369.9637" x2="369.9637" y1="593.9258" y2="586.8265"/>
    <line x1="371.1327" x2="371.1327" y1="587.5015" y2="594.6007"/>
    <line x1="372.3016" x2="372.3016" y1="595.2756" y2="588.1764"/>
    <line x1="373.4706" x2="373.4706" y1="588.8513" y2="595.9505"/>
    <line x1="374.6396" x2="374.6396" y1="596.6254" y2="589.5262"/>
    <line x1="375.8086" x2="375.8086" y1="590.2011" y2="597.3003"/>
    <line x1="376.9776" x2="376.9776" y1="597.9753" y2="590.876"/>
    <line x1="378.1466" x2="378.1466" y1="591.5509" y2="598.6502"/>
    <line x1="379.3156" x2="379.3156" y1="599.3251" y2="592.2259"/>
    <polyline points="380.4846,592.9008 380.4846,593.7035 396.8504,603.1523 413.2162,593.7035 413.2162,591.5383"/>
    <line x1="412.0472" x2="412.0472" y1="590.8634" y2="593.0286"/>
    <line x1="410.8783" x2="410.8783" y1="592.3537" y2="590.1885"/>
    <line x1="409.7093" x2="409.7093" y1="589.5136" y2="591.6788"/>
    <line x1="408.5403" x2="408.5403" y1="591.0038" y2="588.8387"/>
    <line x1="407.3713" x2="407.3713" y1="588.1637" y2="590.3289"/>
    <line x1="406.2023" x2="406.2023" y1="589.654" y2="587.4888"/>
    <line x1="405.0333" x2="405.0333" y1="586.8139" y2="588.9791"/>
    <line x1="403.8643" x2="403.8643" y1="588.3042" y2="586.139"/>
    <line x1="402.6953" x2="402.6953" y1="585.4641" y2="587.6293"/>
    <line x1="401.5263" x2="401.5263" y1="586.9543" y2="584.7892"/>
    <line x1="400.3574" x2="400.3574" y1="584.1143" y2="586.2794"/>
    <line x1="399.1884" x2="399.1884" y1="585.6045" y2="583.4393"/>
    <line x1="398.0194" x2="398.0194" y1="582.7644" y2="584.9296"/>
    <polyline points="396.8504,584.2547 396.8504,583.452 380.4846,574.0031 364.1187,583.452 364.1187,590.5512 347.7529,581.1024 331.3871,590.5512 315.0212,581.1024 298.6554,590.5512 282.2896,581.1024 265.9237,590.5512 265.9237,607.5591 282.2896,617.0079"/>
    <line x1="283.4585" x2="283.4585" y1="617.6828" y2="600.6749"/>
    <line x1="284.6275" x2="284.6275" y1="601.3498" y2="618.3577"/>
    <line x1="285.7965" x2="285.7965" y1="619.0326" y2="602.0247"/>
    <line x1="286.9655" x2="286.9655" y1="602.6997" y2="619.7075"/>
    <line x1="288.1345" x2="288.1345" y1="620.3825" y2="603.3746"/>
    <line x1="289.3035" x2="289.3035" y1="604.0495" y2="621.0574"/>
    <line x1="290.4725" x2="290.4725" y1="621.7323" y2="604.7244"/>
    <line x1="291.6415" x2="291.6415" y1="605.3993" y2="622.4072"/>
    <line x1="292.8104" x2="292.8104" y1="623.0821" y2="606.0742"/>
    <line x1="293.9794" x2="293.9794" y1="606.7492" y2="623.757"/>
    <line x1="295.1484" x2="295.1484" y1="624.4319" y2="607.4241"/>
    <line x1="296.3174" x2="296.3174" y1="608.099" y2="625.1069"/>
    <line x1="297.4864" x2="297.4864" y1="625.7818" y2="608.7739"/>
    <line x1="299.8244" x2="299.8244" y1="610.1237" y2="627.1316"/>
    <polyline points="298.6554,626.4567 282.2896,617.0079 282.2896,600.0 298.6554,590.5512 315.0212,600.0 331.3871,590.5512 347.7529,600.0 364.1187,590.5512 380.4846,600.0 380.4846,593.7035 396.8504,584.2547 413.2162,593.7035 413.2162,600.0 429.5821,590.5512 440.4567,596.8297"/>
    <line x1="440.103" x2="440.103" y1="596.6254" y2="585.4982"/>
    <line x1="441.2719" x2="441.2719" y1="586.1731" y2="596.359"/>
    <line x1="442.4409" x2="442.4409" y1="595.6841" y2="586.848"/>
    <line x1="443.6099" x2="443.6099" y1="587.5229" y2="595.0092"/>
    <line x1="444.7789" x2="444.7789" y1="594.3343" y2="588.1979"/>
    <polyline points="445.9479,588.8728 429.5821,579.424 429.5821,574.2396"/>
    <line x1="428.4131" x2="428.4131" y1="573.5646" y2="581.4146"/>
    <line x1="427.2441" x2="427.2441" y1="580.7397" y2="572.8897"/>
    <line x1="426.0751" x2="426.0751" y1="572.2148" y2="580.0648"/>
    <line x1="424.9061" x2="424.9061" y1="579.3898" y2="571.5399"/>
    <line x1="423.7371" x2="423.7371" y1="570.865" y2="578.7149"/>
    <line x1="422.5681" x2="422.5681" y1="578.04" y2="570.1901"/>
    <line x1="421.3991" x2="421.3991" y1="569.5151" y2="577.3651"/>
    <line x1="420.2302" x2="420.2302" y1="576.6902" y2="568.8402"/>
    <line x1="419.0612" x2="419.0612" y1="568.1653" y2="576.0153"/>
    <line x1="417.8922" x2="417.8922" y1="575.3403" y2="567.4904"/>
    <line x1="416.7232" x2="416.7232" y1="566.8155" y2="574.6654"/>
    <line x1="415.5542" x2="415.5542" y1="573.9905" y2="566.1406"/>
    <line x1="414.3852" x2="414.3852" y1="565.4657" y2="573.3156"/>
    <polyline points="413.2162,572.6407 413.2162,560.0685 396.8504,550.6196 380.4846,560.0685 380.4846,569.0125 364.1187,578.4613 347.7529,569.0125"/>
    <line x1="348.9219" x2="348.9219" y1="569.6874" y2="581.7773"/>
    <line x1="350.0909" x2="350.0909" y1="582.4522" y2="570.3623"/>
    <line x1="345.4149" x2="345.4149" y1="563.5546" y2="563.5546"/>
    <line x1="346.5839" x2="346.5839" y1="561.5298" y2="538.0791"/>
    <line x1="347.7529" x2="331.3871" y1="538.754" y2="529.3052"/>
    <line x1="332.556" x2="332.556" y1="529.9801" y2="553.4308"/>
    <polyline points="331.3871,552.7559 331.3871,529.3052 347.7529,519.8564 359.0579,526.3833"/>
    <line x1="359.4428" x2="359.4428" y1="526.1611" y2="513.3909"/>
    <line x1="358.2738" x2="358.2738" y1="512.716" y2="525.9306"/>
    <line x1="357.1048" x2="357.1048" y1="525.2557" y2="512.0411"/>
    <line x1="355.9358" x2="355.9358" y1="511.3662" y2="524.5808"/>
    <line x1="354.7668" x2="354.7668" y1="523.9059" y2="510.6913"/>
    <line x1="353.5978" x2="353.5978" y1="510.0164" y2="523.231"/>
    <line x1="352.4288" x2="352.4288" y1="522.5561" y2="509.3415"/>
    <line x1="351.2599" x2="351.2599" y1="508.6665" y2="521.8811"/>
    <line x1="350.0909" x2="350.0909" y1="521.2062" y2="507.9916"/>
    <line x1="348.9219" x2="348.9219" y1="507.3167" y2="520.5313"/>
    <polyline points="347.7529,519.8564 347.7529,506.6418 364.1187,497.193 372.3016,501.9174"/>
    <polyline points="372.3016,503.9748 364.1187,508.6992 364.1187,523.4615"/>
    <line x1="365.2877" x2="365.2877" y1="524.1364" y2="509.3741"/>
    <line x1="366.4567" x2="366.4567" y1="510.049" y2="524.8113"/>
    <line x1="367.6257" x2="367.6257" y1="525.4862" y2="510.724"/>
    <line x1="368.7947" x2="368.7947" y1="511.3989" y2="526.1611"/>
    <line x1="369.9637" x2="369.9637" y1="526.8361" y2="512.0738"/>
    <line x1="371.1327" x2="371.1327" y1="512.7487" y2="527.511"/>
    <line x1="372.3016" x2="372.3016" y1="528.1859" y2="513.4236"/>
    <line x1="373.4706" x2="373.4706" y1="514.0985" y2="528.8608"/>
    <line x1="374.6396" x2="374.6396" y1="529.5357" y2="514.7735"/>
    <line x1="375.8086" x2="375.8086" y1="515.4484" y2="530.0051"/>
    <polyline points="375.6306,530.1079 364.1187,523.4615 347.7529,532.9103 347.7529,562.2047 331.3871,552.7559 315.0212,562.2047 298.6554,552.7559 282.2896,562.2047 265.9237,552.7559 249.5579,562.2047 233.192,552.7559 216.8262,562.2047 216.8262,579.2126 233.192,588.6614"/>
    <line x1="234.361" x2="234.361" y1="589.3363" y2="572.3285"/>
    <line x1="235.53" x2="235.53" y1="573.0034" y2="590.0112"/>
    <line x1="232.0231" x2="232.0231" y1="587.9865" y2="570.9786"/>
    <line x1="230.8541" x2="230.8541" y1="570.3037" y2="587.3116"/>
    <line x1="229.6851" x2="229.6851" y1="586.6367" y2="569.6288"/>
    <line x1="228.5161" x2="228.5161" y1="568.9539" y2="585.9618"/>
    <line x1="227.3471" x2="227.3471" y1="585.2868" y2="568.279"/>
    <line x1="226.1781" x2="226.1781" y1="567.604" y2="584.6119"/>
    <line x1="225.0091" x2="225.0091" y1="583.937" y2="566.9291"/>
    <line x1="223.8401" x2="223.8401" y1="566.2542" y2="583.2621"/>
    <line x1="222.6712" x2="222.6712" y1="582.5872" y2="565.5793"/>
    <line x1="221.5022" x2="221.5022" y1="564.9044" y2="581.9123"/>
    <line x1="220.3332" x2="220.3332" y1="581.2373" y2="564.2295"/>
    <line x1="219.1642" x2="219.1642" y1="563.5546" y2="580.5624"/>
    <line x1="217.9952" x2="217.9952" y1="579.8875" y2="562.8796"/>
    <line x1="215.6572" x2="215.6572" y1="561.5298" y2="578.5377"/>
    <line x1="214.4882" x2="214.4882" y1="577.8628" y2="560.8549"/>
    <line x1="213.3193" x2="213.3193" y1="560.18" y2="577.1879"/>
    <line x1="212.1503" x2="212.1503" y1="576.5129" y2="559.5051"/>
    <line x1="210.9813" x2="210.9813" y1="558.8301" y2="575.838"/>
    <line x1="209.8123" x2="209.8123" y1="575.1631" y2="558.1552"/>
    <line x1="208.6433" x2="208.6433" y1="557.4803" y2="574.4882"/>
    <line x1="207.4743" x2="207.4743" y1="573.8133" y2="556.8054"/>
    <line x1="206.3053" x2="206.3053" y1="556.1305" y2="573.1384"/>
    <line x1="205.1363" x2="205.1363" y1="572.4634" y2="555.4556"/>
    <line x1="203.9673" x2="203.9673" y1="554.7807" y2="571.7885"/>
    <line x1="202.7984" x2="202.7984" y1="571.1136" y2="554.1057"/>
    <line x1="201.6294" x2="201.6294" y1="553.4308" y2="570.4387"/>
    <polyline points="216.8262,579.2126 200.4604,569.7638 200.4604,552.7559 216.8262,543.3071 233.192,552.7559 249.5579,543.3071 265.9237,552.7559 282.2896,543.3071 298.6554,552.7559 315.0212,543.3071 331.3871,552.7559 331.3871,538.0506 315.0212,528.6018"/>
    <line x1="316.1902" x2="316.1902" y1="529.2767" y2="543.982"/>
    <line x1="317.3592" x2="317.3592" y1="544.6569" y2="529.9516"/>
    <line x1="318.5282" x2="318.5282" y1="530.6265" y2="545.3318"/>
    <line x1="319.6972" x2="319.6972" y1="546.0067" y2="531.3014"/>
    <line x1="320.8662" x2="320.8662" y1="531.9764" y2="546.6817"/>
    <line x1="322.0352" x2="322.0352" y1="547.3566" y2="532.6513"/>
    <line x1="323.2041" x2="323.2041" y1="533.3262" y2="548.0315"/>
    <line x1="324.3731" x2="324.3731" y1="548.7064" y2="534.0011"/>
    <line x1="325.5421" x2="325.5421" y1="534.676" y2="549.3813"/>
    <line x1="326.7111" x2="326.7111" y1="550.0562" y2="535.3509"/>
    <line x1="327.8801" x2="327.8801" y1="536.0259" y2="550.7312"/>
    <line x1="329.0491" x2="329.0491" y1="551.4061" y2="536.7008"/>
    <line x1="330.2181" x2="330.2181" y1="537.3757" y2="552.081"/>
    <line x1="333.725" x2="333.725" y1="554.1057" y2="530.655"/>
    <line x1="334.894" x2="334.894" y1="531.33" y2="554.7807"/>
    <line x1="336.063" x2="336.063" y1="555.4556" y2="532.0049"/>
    <line x1="337.232" x2="337.232" y1="532.6798" y2="556.1305"/>
    <line x1="338.401" x2="338.401" y1="556.8054" y2="533.3547"/>
    <line x1="339.57" x2="339.57" y1="534.0296" y2="557.4803"/>
    <line x1="340.739" x2="340.739" y1="558.1552" y2="534.7045"/>
    <line x1="341.9079" x2="341.9079" y1="535.3795" y2="558.8301"/>
    <line x1="343.0769" x2="343.0769" y1="559.5051" y2="536.0544"/>
    <line x1="344.2459" x2="344.2459" y1="536.7293" y2="560.18"/>
    <line x1="345.4149" x2="345.4149" y1="560.8549" y2="537.4042"/>
    <polyline points="340.1792,524.2291 331.3871,519.153 315.0212,528.6018 315.0212,543.3071 298.6554,533.8583 282.2896,543.3071 265.9237,533.8583 249.5579,543.3071 233.192,533.8583 216.8262,543.3071"/>
    <polyline points="200.4604,552.7559 396.8504,666.1417 462.3137,628.3465 462.3137,619.2697 445.9479,609.8208"/>
    <line x1="447.1169" x2="447.1169" y1="610.4958" y2="619.5726"/>
    <line x1="448.2859" x2="448.2859" y1="620.2475" y2="611.1707"/>
    <line x1="449.4549" x2="449.4549" y1="611.8456" y2="620.9224"/>
    <line x1="450.6238" x2="450.6238" y1="621.5973" y2="612.5205"/>
    <line x1="451.7928" x2="451.7928" y1="613.1954" y2="622.2722"/>
    <line x1="452.9618" x2="452.9618" y1="622.9471" y2="613.8703"/>
    <line x1="454.1308" x2="454.1308" y1="614.5452" y2="623.622"/>
    <line x1="455.2998" x2="455.2998" y1="624.297" y2="615.2202"/>
    <line x1="456.4688" x2="456.4688" y1="615.8951" y2="624.9719"/>
    <line x1="457.6378" x2="457.6378" y1="625.6468" y2="616.57"/>
    <line x1="458.8068" x2="458.8068" y1="617.2449" y2="626.3217"/>
    <line x1="459.9758" x2="459.9758" y1="626.9966" y2="617.9198"/>
    <line x1="461.1447" x2="461.1447" y1="618.5947" y2="627.6715"/>
    <line x1="459.9758" x2="459.9758" y1="629.6963" y2="646.7042"/>
    <line x1="457.6378" x2="457.6378" y1="648.054" y2="631.0461"/>
    <line x1="455.2998" x2="455.2998" y1="632.396" y2="649.4038"/>
    <line x1="452.9618" x2="452.9618" y1="650.7537" y2="633.7458"/>
    <line x1="450.6238" x2="450.6238" y1="635.0956" y2="652.1035"/>
    <line x1="448.2859" x2="448.2859" y1="653.4533" y2="636.4454"/>
    <line x1="443.6099" x2="443.6099" y1="636.4454" y2="636.4454"/>
    <line x1="443.6099" x2="443.6099" y1="639.1451" y2="656.153"/>
    <polyline points="445.9479,654.8031 462.3137,645.3543 462.3137,628.3465 445.9479,618.8976 429.5821,628.3465 413.2162,618.8976 396.8504,628.3465 380.4846,618.8976 364.1187,628.3465 347.7529,618.8976 331.3871,628.3465 331.3871,645.3543 347.7529,654.8031"/>
    <line x1="346.5839" x2="346.5839" y1="654.1282" y2="637.1204"/>
    <line x1="345.4149" x2="345.4149" y1="636.4454" y2="653.4533"/>
    <line x1="344.2459" x2="344.2459" y1="652.7784" y2="635.7705"/>
    <line x1="343.0769" x2="343.0769" y1="635.0956" y2="652.1035"/>
    <line x1="341.9079" x2="341.9079" y1="651.4286" y2="634.4207"/>
    <line x1="340.739" x2="340.739" y1="633.7458" y2="650.7537"/>
    <line x1="339.57" x2="339.57" y1="650.0787" y2="633.0709"/>
    <line x1="338.401" x2="338.401" y1="632.396" y2="649.4038"/>
    <line x1="337.232" x2="337.232" y1="648.7289" y2="631.721"/>
    <line x1="336.063" x2="336.063" y1="631.0461" y2="648.054"/>
    <line x1="334.894" x2="334.894" y1="647.3791" y2="630.3712"/>
    <line x1="333.725" x2="333.725" y1="629.6963" y2="646.7042"/>
    <line x1="332.556" x2="332.556" y1="646.0292" y2="629.0214"/>
    <line x1="330.2181" x2="330.2181" y1="627.6715" y2="644.6794"/>
    <polyline points="331.3871,645.3543 315.0212,635.9055 315.0212,618.8976 331.3871,609.4488 347.7529,618.8976 364.1187,609.4488 380.4846,618.8976 396.8504,609.4488 413.2162,618.8976 429.5821,609.4488 445.9479,618.8976 445.9479,609.8208 462.3137,600.372 478.6796,609.8208 478.6796,635.9055 462.3137,645.3543"/>
    <line x1="464.6517" x2="464.6517" y1="644.0045" y2="617.9198"/>
    <polyline points="462.3137,619.2697 478.6796,609.8208 478.6796,600.1019 462.3137,590.6531"/>
    <line x1="463.4827" x2="463.4827" y1="591.328" y2="601.0469"/>
    <line x1="464.6517" x2="464.6517" y1="601.7219" y2="592.0029"/>
    <line x1="465.8207" x2="465.8207" y1="592.6778" y2="602.3968"/>
    <line x1="466.9897" x2="466.9897" y1="603.0717" y2="593.3527"/>
    <line x1="468.1587" x2="468.1587" y1="594.0277" y2="603.7466"/>
    <line x1="469.3277" x2="469.3277" y1="604.4215" y2="594.7026"/>
    <line x1="470.4966" x2="470.4966" y1="595.3775" y2="605.0964"/>
    <line x1="471.6656" x2="471.6656" y1="605.7713" y2="596.0524"/>
    <line x1="472.8346" x2="472.8346" y1="596.7273" y2="606.4463"/>
    <line x1="474.0036" x2="474.0036" y1="607.1212" y2="597.4022"/>
    <line x1="475.1726" x2="475.1726" y1="598.0772" y2="607.7961"/>
    <line x1="476.3416" x2="476.3416" y1="608.471" y2="598.7521"/>
    <line x1="477.5106" x2="477.5106" y1="599.427" y2="609.1459"/>
    <line x1="476.3416" x2="476.3416" y1="611.1707" y2="637.2553"/>
    <polyline points="478.6796,635.9055 495.0454,626.4567 495.0454,590.6531 478.6796,581.2043 462.3137,590.6531 462.3137,600.372"/>
    <line x1="461.1447" x2="461.1447" y1="601.0469" y2="594.6432"/>
    <line x1="462.3137" x2="445.9479" y1="595.3181" y2="585.8693"/>
    <line x1="447.1169" x2="447.1169" y1="586.5442" y2="594.3343"/>
    <polyline points="445.9479,593.6594 445.9479,585.8693 462.3137,576.4205 474.6395,583.5368"/>
    <line x1="475.1726" x2="475.1726" y1="583.229" y2="579.9133"/>
    <line x1="476.3416" x2="476.3416" y1="580.5882" y2="582.5541"/>
    <line x1="477.5106" x2="477.5106" y1="581.8792" y2="581.2631"/>
    <line x1="478.0441" x2="462.3137" y1="581.5711" y2="572.4892"/>
    <line x1="463.4827" x2="463.4827" y1="573.1641" y2="577.0954"/>
    <polyline points="462.3137,576.4205 462.3137,572.4892 478.6796,563.0404 495.0454,572.4892 495.0454,574.5544 511.4112,564.9176"/>
    <polyline points="511.4112,566.3613 511.4112,564.9176 495.0454,555.4687 480.3052,563.979"/>
    <polyline points="484.9098,558.6077 495.0454,552.7559 501.4803,556.4711"/>
    <polyline points="499.1309,557.8275 511.4112,550.7375 527.0495,559.7662"/>
    <polyline points="532.5854,562.1222 544.1429,555.4495 560.5087,564.8983 560.5087,588.6614 544.1429,598.1102"/>
    <line x1="541.8049" x2="541.8049" y1="599.4601" y2="570.1448"/>
    <line x1="544.1429" x2="527.7771" y1="568.795" y2="578.2438"/>
    <line x1="527.7771" x2="511.4112" y1="575.8101" y2="585.2589"/>
    <line x1="511.4112" x2="495.0454" y1="584.0032" y2="593.452"/>
    <line x1="497.3834" x2="497.3834" y1="592.1022" y2="625.1069"/>
    <line x1="499.7214" x2="499.7214" y1="623.757" y2="590.7524"/>
    <line x1="502.0593" x2="502.0593" y1="589.4025" y2="622.4072"/>
    <line x1="504.3973" x2="504.3973" y1="621.0574" y2="588.0527"/>
    <line x1="506.7353" x2="506.7353" y1="586.7029" y2="619.7075"/>
    <line x1="509.0733" x2="509.0733" y1="618.3577" y2="585.3531"/>
    <line x1="513.7492" x2="513.7492" y1="583.9091" y2="615.658"/>
    <polyline points="511.4112,617.0079 527.7771,607.5591 527.7771,575.8101 511.4112,566.3613 496.1328,575.1822"/>
    <line x1="497.3834" x2="497.3834" y1="574.4602" y2="573.0165"/>
    <line x1="499.7214" x2="499.7214" y1="573.1104" y2="571.6667"/>
    <line x1="502.0593" x2="502.0593" y1="571.7606" y2="570.3169"/>
    <line x1="504.3973" x2="504.3973" y1="570.4107" y2="568.967"/>
    <line x1="506.7353" x2="506.7353" y1="569.0609" y2="567.6172"/>
    <line x1="509.0733" x2="509.0733" y1="567.7111" y2="566.2674"/>
    <polyline points="513.5189,567.5781 527.7771,559.3461 544.1429,568.795 544.1429,598.1102 527.7771,607.5591"/>
    <line x1="530.115" x2="530.115" y1="606.2092" y2="576.8939"/>
    <line x1="532.453" x2="532.453" y1="575.5441" y2="604.8594"/>
    <line x1="534.791" x2="534.791" y1="603.5096" y2="574.1943"/>
    <line x1="537.129" x2="537.129" y1="572.8444" y2="602.1597"/>
    <line x1="539.467" x2="539.467" y1="600.8099" y2="571.4946"/>
    <line x1="544.1429" x2="560.5087" y1="574.3472" y2="564.8983"/>
    <line x1="558.1708" x2="558.1708" y1="566.2482" y2="590.0112"/>
    <line x1="555.8328" x2="555.8328" y1="591.3611" y2="567.598"/>
    <line x1="553.4948" x2="553.4948" y1="568.9478" y2="592.7109"/>
    <line x1="551.1568" x2="551.1568" y1="594.0607" y2="570.2977"/>
    <line x1="548.8189" x2="548.8189" y1="571.6475" y2="595.4106"/>
    <line x1="546.4809" x2="546.4809" y1="596.7604" y2="572.9973"/>
    <line x1="560.5087" x2="593.2404" y1="571.6535" y2="552.7559"/>
    <line x1="590.9024" x2="590.9024" y1="554.1057" y2="571.1136"/>
    <line x1="588.5645" x2="588.5645" y1="572.4634" y2="555.4556"/>
    <line x1="586.2265" x2="586.2265" y1="556.8054" y2="573.8133"/>
    <line x1="583.8885" x2="583.8885" y1="575.1631" y2="558.1552"/>
    <line x1="581.5505" x2="581.5505" y1="559.5051" y2="576.5129"/>
    <line x1="579.2125" x2="579.2125" y1="577.8628" y2="560.8549"/>
    <line x1="574.5366" x2="574.5366" y1="563.5546" y2="580.5624"/>
    <polyline points="576.8746,579.2126 593.2404,569.7638 593.2404,552.7559 576.8746,543.3071 560.5087,552.7559 560.5087,546.2832 544.1429,536.8344 527.7771,546.2832 527.7771,552.7559 511.4112,543.3071 495.0454,552.7559 478.6796,543.3071 462.3137,552.7559 445.9479,543.3071 462.3137,533.8583 478.6796,543.3071 495.0454,533.8583 511.4112,543.3071 527.7771,533.8583 538.5374,540.0707"/>
    <line x1="533.622" x2="533.622" y1="549.6578" y2="556.1305"/>
    <line x1="532.453" x2="532.453" y1="555.4556" y2="548.9829"/>
    <line x1="531.284" x2="531.284" y1="548.3079" y2="554.7807"/>
    <line x1="530.115" x2="530.115" y1="554.1057" y2="547.633"/>
    <line x1="528.9461" x2="528.9461" y1="546.9581" y2="553.4308"/>
    <line x1="534.791" x2="534.791" y1="550.3327" y2="556.8054"/>
    <line x1="535.96" x2="535.96" y1="557.4803" y2="551.0076"/>
    <line x1="537.129" x2="537.129" y1="551.6825" y2="558.1552"/>
    <line x1="539.467" x2="539.467" y1="558.1492" y2="553.0324"/>
    <line x1="540.6359" x2="540.6359" y1="553.7073" y2="557.4743"/>
    <line x1="541.8049" x2="541.8049" y1="556.7994" y2="554.3822"/>
    <line x1="542.9739" x2="542.9739" y1="555.0571" y2="556.1244"/>
    <line x1="543.8983" x2="527.7771" y1="555.5908" y2="546.2832"/>
    <polyline points="521.3422,556.4711 527.7771,552.7559 538.2927,558.8271 538.298,552.3574"/>
    <line x1="544.3876" x2="560.5087" y1="555.5908" y2="546.2832"/>
    <line x1="558.1708" x2="558.1708" y1="547.633" y2="554.1057"/>
    <line x1="555.8328" x2="555.8328" y1="555.4556" y2="548.9829"/>
    <line x1="553.4948" x2="553.4948" y1="550.3327" y2="556.8054"/>
    <line x1="551.1568" x2="551.1568" y1="558.1552" y2="551.6825"/>
    <line x1="548.8189" x2="548.8189" y1="553.0324" y2="558.1492"/>
    <polyline points="549.9931,558.8271 560.5087,552.7559 576.8746,562.2047 576.8746,579.2126 560.5087,588.6614"/>
    <line x1="562.8467" x2="562.8467" y1="587.3116" y2="570.3037"/>
    <line x1="565.1847" x2="565.1847" y1="568.9539" y2="585.9618"/>
    <line x1="567.5227" x2="567.5227" y1="584.6119" y2="567.604"/>
    <line x1="569.8606" x2="569.8606" y1="566.2542" y2="583.2621"/>
    <line x1="572.1986" x2="572.1986" y1="581.9123" y2="564.9044"/>
    <line x1="562.8467" x2="562.8467" y1="551.4061" y2="551.4061"/>
    <polyline points="576.8746,543.3071 560.5087,533.8583 549.7484,540.0707"/>
    <polyline points="560.5087,533.8583 544.1429,524.4094 527.7771,533.8583 511.4112,524.4094 495.0454,533.8583 478.6796,524.4094 462.3137,533.8583 445.9479,524.4094 438.3841,528.7764"/>
    <line x1="438.934" x2="438.934" y1="528.4589" y2="528.4589"/>
    <line x1="440.103" x2="440.103" y1="521.0349" y2="521.0349"/>
    <line x1="444.7789" x2="444.7789" y1="523.7345" y2="523.7345"/>
    <line x1="452.9618" x2="452.9618" y1="528.4589" y2="528.4589"/>
    <line x1="445.9479" x2="442.9669" y1="533.1434" y2="534.8644"/>
    <line x1="443.6099" x2="443.6099" y1="534.4932" y2="535.2357"/>
    <line x1="443.6099" x2="443.6099" y1="537.9353" y2="553.7489"/>
    <polyline points="445.9479,552.3991 445.9479,536.5855 429.5821,527.1367 418.3654,533.6126"/>
    <line x1="417.8922" x2="417.8922" y1="533.3394" y2="519.0027"/>
    <line x1="420.2302" x2="420.2302" y1="517.6529" y2="532.536"/>
    <line x1="422.5681" x2="422.5681" y1="531.1862" y2="516.3031"/>
    <line x1="424.9061" x2="424.9061" y1="514.9532" y2="529.8363"/>
    <line x1="427.2441" x2="427.2441" y1="528.4865" y2="513.6034"/>
    <line x1="429.5821" x2="413.2162" y1="512.2536" y2="521.7024"/>
    <polyline points="413.2162,520.8871 396.8504,530.3359 380.4846,520.8871 380.4846,518.148"/>
    <line x1="379.3156" x2="379.3156" y1="517.4731" y2="527.9803"/>
    <polyline points="380.4846,527.3054 380.4846,520.8871 396.8504,511.4383 413.2162,520.8871 413.2162,530.6397"/>
    <line x1="415.5542" x2="415.5542" y1="531.9896" y2="520.3526"/>
    <line x1="410.8783" x2="410.8783" y1="522.237" y2="531.9896"/>
    <line x1="408.5403" x2="408.5403" y1="533.3394" y2="523.5868"/>
    <line x1="406.2023" x2="406.2023" y1="524.9366" y2="534.6892"/>
    <line x1="403.8643" x2="403.8643" y1="536.0391" y2="526.2865"/>
    <line x1="401.5263" x2="401.5263" y1="527.6363" y2="537.3889"/>
    <line x1="399.1884" x2="399.1884" y1="538.7387" y2="528.9861"/>
    <polyline points="396.8504,530.3359 396.8504,536.7542 380.4846,546.2031 364.1187,536.7542"/>
    <line x1="360.6118" x2="360.6118" y1="525.4862" y2="514.0659"/>
    <line x1="361.7807" x2="361.7807" y1="514.7408" y2="524.8113"/>
    <line x1="362.9497" x2="362.9497" y1="524.1364" y2="515.4157"/>
    <line x1="364.1187" x2="347.7529" y1="516.0906" y2="506.6418"/>
    <line x1="344.2459" x2="344.2459" y1="513.5786" y2="521.8811"/>
    <line x1="345.4149" x2="345.4149" y1="521.2062" y2="514.2535"/>
    <line x1="346.5839" x2="346.5839" y1="514.9285" y2="520.5313"/>
    <line x1="343.0769" x2="343.0769" y1="522.5561" y2="512.9037"/>
    <line x1="341.9079" x2="341.9079" y1="512.2288" y2="523.231"/>
    <line x1="340.739" x2="340.739" y1="523.9059" y2="511.5539"/>
    <line x1="339.57" x2="339.57" y1="510.879" y2="523.8774"/>
    <line x1="338.401" x2="338.401" y1="523.2025" y2="510.2041"/>
    <line x1="337.232" x2="337.232" y1="509.5291" y2="522.5275"/>
    <line x1="336.063" x2="336.063" y1="521.8526" y2="508.8542"/>
    <line x1="334.894" x2="334.894" y1="508.1793" y2="521.1777"/>
    <line x1="333.725" x2="333.725" y1="520.5028" y2="507.5044"/>
    <line x1="332.556" x2="332.556" y1="506.8295" y2="519.8279"/>
    <polyline points="331.3871,519.153 331.3871,506.1546 347.7529,496.7057 356.3578,501.6738"/>
    <polyline points="352.1434,499.2406 364.1187,492.3266 372.3016,497.051"/>
    <line x1="371.1327" x2="371.1327" y1="496.3761" y2="494.2336"/>
    <line x1="372.3016" x2="369.2772" y1="493.5587" y2="495.3049"/>
    <line x1="372.3016" x2="370.2544" y1="499.5535" y2="500.7354"/>
    <line x1="377.7569" x2="377.7569" y1="507.1244" y2="492.0063"/>
    <line x1="378.3804" x2="378.3804" y1="492.3663" y2="477.7881"/>
    <line x1="376.0424" x2="376.0424" y1="476.4382" y2="491.0164"/>
    <polyline points="375.5748,490.7465 375.5748,505.8646 383.7577,510.589"/>
    <line x1="383.2122" x2="383.0563" y1="510.274" y2="490.2065"/>
    <line x1="381.8873" x2="381.8873" y1="487.1019" y2="494.391"/>
    <line x1="382.1211" x2="382.1211" y1="494.526" y2="509.6441"/>
    <line x1="381.0301" x2="381.0301" y1="509.0142" y2="493.8961"/>
    <line x1="380.7184" x2="380.7184" y1="493.7161" y2="483.9973"/>
    <line x1="379.5494" x2="379.5494" y1="480.8927" y2="493.0412"/>
    <line x1="379.939" x2="379.939" y1="493.2661" y2="508.3843"/>
    <line x1="378.848" x2="378.848" y1="507.7543" y2="492.6362"/>
    <line x1="384.2253" x2="384.2253" y1="493.3111" y2="495.7408"/>
    <line x1="384.576" x2="384.576" y1="495.9433" y2="512.9512"/>
    <polyline points="385.3943,513.4236 383.7577,512.4787 383.7577,495.4709"/>
    <line x1="390.0703" x2="390.0703" y1="493.7161" y2="508.8342"/>
    <line x1="392.4082" x2="392.4082" y1="507.4844" y2="492.3663"/>
    <line x1="394.7462" x2="394.7462" y1="491.0164" y2="506.1345"/>
    <polyline points="393.5772,506.8094 396.8504,508.6992 396.8504,511.4383"/>
    <polyline points="397.5564,511.8459 413.2162,502.8047 429.5821,512.2536 429.5821,527.1367"/>
    <polyline points="429.5821,523.6945 445.9479,533.1434 445.9479,536.5855 429.5821,546.0343"/>
    <line x1="431.92" x2="431.92" y1="544.6845" y2="556.6917"/>
    <line x1="434.258" x2="434.258" y1="558.0416" y2="543.3346"/>
    <line x1="436.596" x2="436.596" y1="541.9848" y2="557.7984"/>
    <polyline points="435.2164,558.5949 445.9479,552.3991 462.3137,561.8479 462.3137,563.8604"/>
    <polyline points="462.8326,564.16 478.6796,555.0107 487.2591,559.9641"/>
    <line x1="495.0454" x2="479.315" y1="572.4892" y2="581.5711"/>
    <polyline points="481.0175,580.5882 481.1035,582.6037 495.0454,574.5544 511.4112,584.0032 511.4112,617.0079 495.0454,626.4567"/>
    <line x1="492.7074" x2="492.7074" y1="627.8065" y2="592.0029"/>
    <line x1="490.3694" x2="490.3694" y1="593.3527" y2="629.1564"/>
    <line x1="488.0315" x2="488.0315" y1="630.5062" y2="594.7026"/>
    <line x1="485.6935" x2="485.6935" y1="596.0524" y2="631.856"/>
    <line x1="483.3555" x2="483.3555" y1="633.2058" y2="597.4022"/>
    <line x1="481.0175" x2="481.0175" y1="598.7521" y2="634.5557"/>
    <line x1="474.0036" x2="474.0036" y1="638.6052" y2="612.5205"/>
    <line x1="471.6656" x2="471.6656" y1="613.8703" y2="639.955"/>
    <line x1="469.3277" x2="469.3277" y1="641.3048" y2="615.2202"/>
    <line x1="466.9897" x2="466.9897" y1="616.57" y2="642.6547"/>
    <line x1="441.2719" x2="441.2719" y1="640.4949" y2="657.5028"/>
    <line x1="438.934" x2="438.934" y1="658.8526" y2="641.8448"/>
    <line x1="436.596" x2="436.596" y1="643.1946" y2="660.2025"/>
    <line x1="434.258" x2="434.258" y1="661.5523" y2="644.5444"/>
    <line x1="431.92" x2="431.92" y1="645.8943" y2="662.9021"/>
    <polyline points="429.5821,664.252 445.9479,654.8031 445.9479,637.7953 429.5821,628.3465 413.2162,637.7953 396.8504,628.3465 380.4846,637.7953 364.1187,628.3465 347.7529,637.7953 347.7529,654.8031 364.1187,664.252"/>
    <line x1="362.9497" x2="362.9497" y1="663.5771" y2="646.5692"/>
    <line x1="361.7807" x2="361.7807" y1="645.8943" y2="662.9021"/>
    <line x1="360.6118" x2="360.6118" y1="662.2272" y2="645.2193"/>
    <line x1="359.4428" x2="359.4428" y1="644.5444" y2="661.5523"/>
    <line x1="358.2738" x2="358.2738" y1="660.8774" y2="643.8695"/>
    <line x1="357.1048" x2="357.1048" y1="643.1946" y2="660.2025"/>
    <line x1="355.9358" x2="355.9358" y1="659.5276" y2="642.5197"/>
    <line x1="354.7668" x2="354.7668" y1="641.8448" y2="658.8526"/>
    <line x1="353.5978" x2="353.5978" y1="658.1777" y2="641.1699"/>
    <line x1="352.4288" x2="352.4288" y1="640.4949" y2="657.5028"/>
    <line x1="351.2599" x2="351.2599" y1="656.8279" y2="639.82"/>
    <line x1="350.0909" x2="350.0909" y1="639.1451" y2="656.153"/>
    <line x1="348.9219" x2="348.9219" y1="655.4781" y2="638.4702"/>
    <line x1="350.0909" x2="350.0909" y1="636.4454" y2="636.4454"/>
    <line x1="353.5978" x2="353.5978" y1="622.2722" y2="622.2722"/>
    <line x1="345.4149" x2="345.4149" y1="620.2475" y2="620.2475"/>
    <line x1="329.0491" x2="329.0491" y1="626.9966" y2="644.0045"/>
    <line x1="327.8801" x2="327.8801" y1="643.3296" y2="626.3217"/>
    <line x1="326.7111" x2="326.7111" y1="625.6468" y2="642.6547"/>
    <line x1="325.5421" x2="325.5421" y1="641.9798" y2="624.9719"/>
    <line x1="324.3731" x2="324.3731" y1="624.297" y2="641.3048"/>
    <line x1="323.2041" x2="323.2041" y1="640.6299" y2="623.622"/>
    <line x1="322.0352" x2="322.0352" y1="622.9471" y2="639.955"/>
    <line x1="320.8662" x2="320.8662" y1="639.2801" y2="622.2722"/>
    <line x1="319.6972" x2="319.6972" y1="621.5973" y2="638.6052"/>
    <line x1="318.5282" x2="318.5282" y1="637.9303" y2="620.9224"/>
    <line x1="317.3592" x2="317.3592" y1="620.2475" y2="637.2553"/>
    <line x1="316.1902" x2="316.1902" y1="636.5804" y2="619.5726"/>
    <line x1="313.8522" x2="313.8522" y1="618.2227" y2="635.2306"/>
    <line x1="312.6832" x2="312.6832" y1="634.5557" y2="617.5478"/>
    <line x1="311.5143" x2="311.5143" y1="616.8729" y2="633.8808"/>
    <line x1="310.3453" x2="310.3453" y1="633.2058" y2="616.198"/>
    <line x1="309.1763" x2="309.1763" y1="615.5231" y2="632.5309"/>
    <line x1="308.0073" x2="308.0073" y1="631.856" y2="614.8481"/>
    <line x1="306.8383" x2="306.8383" y1="614.1732" y2="631.1811"/>
    <line x1="305.6693" x2="305.6693" y1="630.5062" y2="613.4983"/>
    <line x1="304.5003" x2="304.5003" y1="612.8234" y2="629.8313"/>
    <line x1="303.3313" x2="303.3313" y1="629.1564" y2="612.1485"/>
    <line x1="302.1624" x2="302.1624" y1="611.4736" y2="628.4814"/>
    <line x1="300.9934" x2="300.9934" y1="627.8065" y2="610.7987"/>
    <line x1="303.3313" x2="303.3313" y1="606.7492" y2="606.7492"/>
    <line x1="305.6693" x2="305.6693" y1="605.3993" y2="605.3993"/>
    <line x1="312.6832" x2="312.6832" y1="601.3498" y2="601.3498"/>
    <line x1="313.8522" x2="313.8522" y1="599.3251" y2="599.3251"/>
    <line x1="312.6832" x2="312.6832" y1="598.6502" y2="598.6502"/>
    <line x1="309.1763" x2="309.1763" y1="596.6254" y2="596.6254"/>
    <line x1="305.6693" x2="305.6693" y1="594.6007" y2="594.6007"/>
    <line x1="303.3313" x2="303.3313" y1="593.2508" y2="593.2508"/>
    <line x1="300.9934" x2="300.9934" y1="591.901" y2="591.901"/>
    <line x1="303.3313" x2="303.3313" y1="587.8515" y2="587.8515"/>
    <line x1="296.3174" x2="296.3174" y1="591.901" y2="591.901"/>
    <line x1="293.9794" x2="293.9794" y1="593.2508" y2="593.2508"/>
    <line x1="291.6415" x2="291.6415" y1="594.6007" y2="594.6007"/>
    <line x1="292.8104" x2="292.8104" y1="587.1766" y2="587.1766"/>
    <line x1="289.3035" x2="289.3035" y1="585.1519" y2="585.1519"/>
    <line x1="279.9516" x2="279.9516" y1="579.7525" y2="579.7525"/>
    <line x1="278.7826" x2="278.7826" y1="579.0776" y2="579.0776"/>
    <line x1="276.4446" x2="276.4446" y1="577.7278" y2="577.7278"/>
    <line x1="268.2617" x2="268.2617" y1="591.901" y2="608.9089"/>
    <line x1="269.4307" x2="269.4307" y1="609.5838" y2="592.5759"/>
    <line x1="270.5997" x2="270.5997" y1="593.2508" y2="610.2587"/>
    <line x1="271.7687" x2="271.7687" y1="610.9336" y2="593.9258"/>
    <line x1="272.9376" x2="272.9376" y1="594.6007" y2="611.6085"/>
    <line x1="274.1066" x2="274.1066" y1="612.2835" y2="595.2756"/>
    <line x1="275.2756" x2="275.2756" y1="595.9505" y2="612.9584"/>
    <line x1="276.4446" x2="276.4446" y1="613.6333" y2="596.6254"/>
    <line x1="277.6136" x2="277.6136" y1="597.3003" y2="614.3082"/>
    <line x1="278.7826" x2="278.7826" y1="614.9831" y2="597.9753"/>
    <line x1="279.9516" x2="279.9516" y1="598.6502" y2="615.658"/>
    <line x1="281.1206" x2="281.1206" y1="616.333" y2="599.3251"/>
    <line x1="284.6275" x2="284.6275" y1="598.6502" y2="598.6502"/>
    <line x1="267.0927" x2="267.0927" y1="591.2261" y2="608.234"/>
    <polyline points="265.9237,607.5591 249.5579,598.1102 249.5579,581.1024 265.9237,571.6535 282.2896,581.1024 298.6554,571.6535 315.0212,581.1024 331.3871,571.6535 347.7529,581.1024 347.7529,569.0125 364.1187,559.5636 380.4846,569.0125 380.4846,574.0031"/>
    <line x1="381.6535" x2="381.6535" y1="574.6781" y2="560.7434"/>
    <line x1="382.8225" x2="382.8225" y1="561.4183" y2="575.353"/>
    <line x1="383.9915" x2="383.9915" y1="576.0279" y2="562.0932"/>
    <line x1="385.1605" x2="385.1605" y1="562.7681" y2="576.7028"/>
    <line x1="386.3295" x2="386.3295" y1="577.3777" y2="563.443"/>
    <line x1="387.4985" x2="387.4985" y1="564.118" y2="578.0526"/>
    <line x1="388.6675" x2="388.6675" y1="578.7276" y2="564.7929"/>
    <line x1="389.8365" x2="389.8365" y1="565.4678" y2="579.4025"/>
    <line x1="391.0055" x2="391.0055" y1="580.0774" y2="566.1427"/>
    <line x1="392.1744" x2="392.1744" y1="566.8176" y2="580.7523"/>
    <line x1="393.3434" x2="393.3434" y1="581.4272" y2="567.4925"/>
    <line x1="394.5124" x2="394.5124" y1="568.1675" y2="582.1021"/>
    <line x1="395.6814" x2="395.6814" y1="582.777" y2="568.8424"/>
    <polyline points="396.8504,569.5173 396.8504,582.0895 413.2162,591.5383 429.5821,582.0895 429.5821,579.424 445.9479,569.9751 459.7126,577.9222"/>
    <line x1="464.6517" x2="464.6517" y1="577.7703" y2="573.839"/>
    <line x1="465.8207" x2="465.8207" y1="574.514" y2="578.4452"/>
    <line x1="466.9897" x2="466.9897" y1="579.1201" y2="575.1889"/>
    <line x1="468.1587" x2="468.1587" y1="575.8638" y2="579.7951"/>
    <line x1="469.3277" x2="469.3277" y1="580.47" y2="576.5387"/>
    <line x1="470.4966" x2="470.4966" y1="577.2136" y2="581.1449"/>
    <line x1="471.6656" x2="471.6656" y1="581.8198" y2="577.8885"/>
    <line x1="472.8346" x2="472.8346" y1="578.5634" y2="582.4947"/>
    <line x1="474.0036" x2="474.0036" y1="583.1696" y2="579.2384"/>
    <line x1="483.3555" x2="483.3555" y1="579.2384" y2="581.3036"/>
    <line x1="485.6935" x2="485.6935" y1="579.9537" y2="577.8885"/>
    <line x1="488.0315" x2="488.0315" y1="578.6039" y2="576.5387"/>
    <line x1="490.3694" x2="490.3694" y1="577.2541" y2="575.1889"/>
    <line x1="492.7074" x2="492.7074" y1="575.9042" y2="573.839"/>
    <line x1="495.0454" x2="478.6796" y1="590.6531" y2="600.1019"/>
    <polyline points="459.9758,593.9683 459.9441,601.7401 445.9479,593.6594 429.5821,603.1082 429.5821,609.4488 413.2162,600.0 396.8504,609.4488 396.8504,603.1523"/>
    <line x1="395.6814" x2="395.6814" y1="602.4774" y2="608.7739"/>
    <line x1="394.5124" x2="394.5124" y1="608.099" y2="601.8025"/>
    <line x1="393.3434" x2="393.3434" y1="601.1276" y2="607.4241"/>
    <line x1="392.1744" x2="392.1744" y1="606.7492" y2="600.4527"/>
    <line x1="391.0055" x2="391.0055" y1="599.7777" y2="606.0742"/>
    <line x1="389.8365" x2="389.8365" y1="605.3993" y2="599.1028"/>
    <line x1="388.6675" x2="388.6675" y1="598.4279" y2="604.7244"/>
    <line x1="387.4985" x2="387.4985" y1="604.0495" y2="597.753"/>
    <line x1="386.3295" x2="386.3295" y1="597.0781" y2="603.3746"/>
    <line x1="385.1605" x2="385.1605" y1="602.6997" y2="596.4032"/>
    <line x1="383.9915" x2="383.9915" y1="595.7283" y2="602.0247"/>
    <line x1="382.8225" x2="382.8225" y1="601.3498" y2="595.0533"/>
    <line x1="381.6535" x2="381.6535" y1="594.3784" y2="600.6749"/>
    <line x1="382.8225" x2="382.8225" y1="592.3537" y2="591.5509"/>
    <line x1="385.1605" x2="385.1605" y1="591.0038" y2="590.2011"/>
    <line x1="387.4985" x2="387.4985" y1="589.654" y2="588.8513"/>
    <line x1="389.8365" x2="389.8365" y1="588.3042" y2="587.5015"/>
    <line x1="392.1744" x2="392.1744" y1="586.9543" y2="586.1516"/>
    <line x1="394.5124" x2="394.5124" y1="585.6045" y2="584.8018"/>
    <line x1="399.1884" x2="399.1884" y1="580.7397" y2="568.1675"/>
    <line x1="401.5263" x2="401.5263" y1="566.8176" y2="579.3898"/>
    <line x1="403.8643" x2="403.8643" y1="578.04" y2="565.4678"/>
    <line x1="406.2023" x2="406.2023" y1="564.118" y2="576.6902"/>
    <line x1="408.5403" x2="408.5403" y1="575.3403" y2="562.7681"/>
    <line x1="410.8783" x2="410.8783" y1="561.4183" y2="573.9905"/>
    <line x1="415.5542" x2="415.5542" y1="563.4409" y2="548.1875"/>
    <line x1="417.8922" x2="417.8922" y1="546.8377" y2="562.0911"/>
    <line x1="420.2302" x2="420.2302" y1="560.7412" y2="545.4879"/>
    <line x1="422.5681" x2="422.5681" y1="544.138" y2="559.3914"/>
    <line x1="424.9061" x2="424.9061" y1="558.0416" y2="542.7882"/>
    <line x1="427.2441" x2="427.2441" y1="541.4384" y2="556.6917"/>
    <polyline points="429.5821,555.3419 429.5821,540.0886 413.2162,530.6397 396.8504,540.0886 413.2162,549.5374 429.5821,540.0886"/>
    <line x1="438.934" x2="438.934" y1="540.635" y2="556.4486"/>
    <line x1="441.2719" x2="441.2719" y1="555.0988" y2="539.2851"/>
    <polyline points="454.4398,557.3019 462.3137,552.7559 472.4494,558.6077"/>
    <polyline points="469.7865,568.1748 462.3137,563.8604 448.8353,571.6422"/>
    <line x1="448.2859" x2="448.2859" y1="571.325" y2="569.9469"/>
    <line x1="447.0924" x2="462.3137" y1="570.6359" y2="561.8479"/>
    <line x1="459.9758" x2="459.9758" y1="563.1978" y2="565.2102"/>
    <line x1="457.6378" x2="457.6378" y1="564.5476" y2="566.56"/>
    <line x1="455.2998" x2="455.2998" y1="565.8974" y2="567.9099"/>
    <line x1="452.9618" x2="452.9618" y1="567.2473" y2="569.2597"/>
    <line x1="450.6238" x2="450.6238" y1="568.5971" y2="570.6095"/>
    <polyline points="445.9479,569.9751 445.9479,564.7907 429.5821,555.3419 413.2162,564.7907 429.5821,574.2396 445.9479,564.7907"/>
    <line x1="443.6099" x2="443.6099" y1="566.1406" y2="571.325"/>
    <line x1="441.2719" x2="441.2719" y1="572.6748" y2="567.4904"/>
    <line x1="438.934" x2="438.934" y1="568.8402" y2="574.0246"/>
    <line x1="436.596" x2="436.596" y1="575.3745" y2="570.1901"/>
    <line x1="434.258" x2="434.258" y1="571.5399" y2="576.7243"/>
    <line x1="431.92" x2="431.92" y1="578.0741" y2="572.8897"/>
    <line x1="430.7511" x2="430.7511" y1="580.0989" y2="591.2261"/>
    <polyline points="429.5821,590.5512 429.5821,582.0895 413.2162,572.6407 396.8504,582.0895 396.8504,583.452 380.4846,592.9008 364.1187,583.452 364.1187,578.4613"/>
    <line x1="366.4567" x2="366.4567" y1="577.1114" y2="582.1021"/>
    <line x1="368.7947" x2="368.7947" y1="580.7523" y2="575.7616"/>
    <line x1="371.1327" x2="371.1327" y1="574.4118" y2="579.4025"/>
    <line x1="373.4706" x2="373.4706" y1="578.0526" y2="573.0619"/>
    <line x1="375.8086" x2="375.8086" y1="571.7121" y2="576.7028"/>
    <line x1="378.1466" x2="378.1466" y1="575.353" y2="570.3623"/>
    <line x1="382.8225" x2="382.8225" y1="558.7186" y2="544.8532"/>
    <line x1="385.1605" x2="385.1605" y1="543.5034" y2="557.3688"/>
    <line x1="387.4985" x2="387.4985" y1="556.019" y2="542.1536"/>
    <line x1="389.8365" x2="389.8365" y1="540.8037" y2="554.6691"/>
    <line x1="392.1744" x2="392.1744" y1="553.3193" y2="539.4539"/>
    <line x1="394.5124" x2="394.5124" y1="538.1041" y2="551.9695"/>
    <line x1="395.6814" x2="395.6814" y1="536.0793" y2="529.661"/>
    <line x1="394.5124" x2="394.5124" y1="528.9861" y2="535.4044"/>
    <line x1="393.3434" x2="393.3434" y1="534.7295" y2="528.3112"/>
    <line x1="392.1744" x2="392.1744" y1="527.6363" y2="534.0546"/>
    <line x1="391.0055" x2="391.0055" y1="533.3797" y2="526.9614"/>
    <line x1="389.8365" x2="389.8365" y1="526.2865" y2="532.7048"/>
    <line x1="388.6675" x2="388.6675" y1="532.0298" y2="525.6115"/>
    <line x1="387.4985" x2="387.4985" y1="524.9366" y2="531.3549"/>
    <line x1="386.3295" x2="386.3295" y1="530.68" y2="524.2617"/>
    <line x1="385.1605" x2="385.1605" y1="523.5868" y2="530.0051"/>
    <line x1="383.9915" x2="383.9915" y1="529.3302" y2="522.9119"/>
    <line x1="382.8225" x2="382.8225" y1="522.237" y2="528.6553"/>
    <line x1="381.6535" x2="381.6535" y1="527.9803" y2="521.562"/>
    <line x1="382.8225" x2="382.8225" y1="519.5373" y2="516.7982"/>
    <line x1="385.1605" x2="385.1605" y1="515.4484" y2="518.1875"/>
    <line x1="387.4985" x2="387.4985" y1="516.8376" y2="514.0985"/>
    <line x1="389.8365" x2="389.8365" y1="512.7487" y2="515.4878"/>
    <line x1="392.1744" x2="392.1744" y1="514.138" y2="511.3989"/>
    <line x1="394.5124" x2="394.5124" y1="510.049" y2="512.7881"/>
    <line x1="399.1884" x2="399.1884" y1="510.9037" y2="507.3494"/>
    <line x1="401.5263" x2="401.5263" y1="505.9995" y2="509.5539"/>
    <line x1="399.4222" x2="399.4222" y1="503.4349" y2="488.3168"/>
    <line x1="397.0842" x2="397.0842" y1="489.6666" y2="504.7847"/>
    <polyline points="405.0333,494.526 413.2162,499.2504 413.2162,502.8047"/>
    <line x1="412.0472" x2="412.0472" y1="492.9913" y2="491.5378"/>
    <polyline points="413.2162,492.2127 405.0333,487.4883 405.0333,488.9418 413.2162,493.6662 413.2162,499.2504 380.4846,518.148 364.1187,508.6992"/>
    <polyline points="357.6355,496.0697 347.7529,490.364 335.7532,497.292"/>
    <line x1="330.2181" x2="330.2181" y1="495.3881" y2="495.3881"/>
    <line x1="322.6911" x2="315.0212" y1="499.7919" y2="495.3637"/>
    <line x1="316.1902" x2="316.1902" y1="496.0386" y2="503.5452"/>
    <line x1="317.3592" x2="317.3592" y1="502.8703" y2="496.7136"/>
    <line x1="318.5282" x2="318.5282" y1="497.3885" y2="502.1953"/>
    <line x1="319.6972" x2="319.6972" y1="501.5204" y2="498.0634"/>
    <line x1="320.8662" x2="320.8662" y1="498.7383" y2="500.8455"/>
    <line x1="322.0352" x2="322.0352" y1="500.1706" y2="499.4132"/>
    <line x1="318.5282" x2="318.5282" y1="506.2448" y2="519.8789"/>
    <line x1="319.6972" x2="319.6972" y1="520.5538" y2="506.9197"/>
    <line x1="320.8662" x2="320.8662" y1="507.5947" y2="521.2288"/>
    <line x1="322.0352" x2="322.0352" y1="521.9037" y2="508.2696"/>
    <line x1="317.3592" x2="317.3592" y1="505.5699" y2="519.204"/>
    <line x1="316.1902" x2="316.1902" y1="518.5291" y2="504.895"/>
    <polyline points="315.0212,505.5118 298.6554,514.9606 282.2896,505.5118 265.9237,514.9606"/>
    <line x1="268.2617" x2="268.2617" y1="516.3105" y2="516.3105"/>
    <line x1="269.4307" x2="269.4307" y1="516.9854" y2="516.9854"/>
    <line x1="276.4446" x2="276.4446" y1="521.0349" y2="521.0349"/>
    <line x1="281.1206" x2="281.1206" y1="523.7345" y2="523.7345"/>
    <line x1="275.2756" x2="275.2756" y1="528.4589" y2="528.4589"/>
    <line x1="288.1345" x2="288.1345" y1="527.784" y2="527.784"/>
    <line x1="289.3035" x2="289.3035" y1="528.4589" y2="528.4589"/>
    <line x1="298.6554" x2="315.0212" y1="527.303" y2="536.7518"/>
    <line x1="313.8522" x2="313.8522" y1="536.0769" y2="542.6322"/>
    <line x1="312.6832" x2="312.6832" y1="541.9573" y2="535.402"/>
    <line x1="311.5143" x2="311.5143" y1="534.7271" y2="541.2823"/>
    <line x1="310.3453" x2="310.3453" y1="540.6074" y2="534.0522"/>
    <line x1="309.1763" x2="309.1763" y1="533.3772" y2="539.9325"/>
    <line x1="308.0073" x2="308.0073" y1="539.2576" y2="532.7023"/>
    <line x1="306.8383" x2="306.8383" y1="532.0274" y2="538.5827"/>
    <line x1="305.6693" x2="305.6693" y1="537.9078" y2="531.3525"/>
    <line x1="304.5003" x2="304.5003" y1="530.6776" y2="537.2328"/>
    <line x1="303.3313" x2="303.3313" y1="536.5579" y2="530.0027"/>
    <line x1="302.1624" x2="302.1624" y1="529.3277" y2="535.883"/>
    <line x1="300.9934" x2="300.9934" y1="535.2081" y2="528.6528"/>
    <line x1="299.8244" x2="299.8244" y1="527.9779" y2="534.5332"/>
    <polyline points="309.3442,521.1318 298.6554,514.9606 282.2896,524.4094 265.9237,514.9606 249.5579,524.4094"/>
    <line x1="278.7826" x2="278.7826" y1="541.2823" y2="541.2823"/>
    <line x1="276.4446" x2="276.4446" y1="558.8301" y2="558.8301"/>
    <line x1="278.7826" x2="278.7826" y1="560.18" y2="560.18"/>
    <line x1="279.9516" x2="279.9516" y1="560.8549" y2="560.8549"/>
    <line x1="285.7965" x2="285.7965" y1="564.2295" y2="564.2295"/>
    <line x1="288.1345" x2="288.1345" y1="565.5793" y2="565.5793"/>
    <line x1="312.6832" x2="312.6832" y1="563.5546" y2="563.5546"/>
    <line x1="318.5282" x2="318.5282" y1="583.1271" y2="583.1271"/>
    <line x1="325.5421" x2="325.5421" y1="587.1766" y2="587.1766"/>
    <line x1="326.7111" x2="326.7111" y1="593.2508" y2="593.2508"/>
    <line x1="324.3731" x2="324.3731" y1="594.6007" y2="594.6007"/>
    <line x1="317.3592" x2="317.3592" y1="598.6502" y2="598.6502"/>
    <line x1="316.1902" x2="316.1902" y1="600.6749" y2="600.6749"/>
    <line x1="317.3592" x2="317.3592" y1="601.3498" y2="601.3498"/>
    <line x1="318.5282" x2="318.5282" y1="602.0247" y2="602.0247"/>
    <line x1="319.6972" x2="319.6972" y1="602.6997" y2="602.6997"/>
    <line x1="323.2041" x2="323.2041" y1="604.7244" y2="604.7244"/>
    <line x1="326.7111" x2="326.7111" y1="606.7492" y2="606.7492"/>
    <line x1="326.7111" x2="326.7111" y1="612.1485" y2="612.1485"/>
    <line x1="338.401" x2="338.401" y1="594.6007" y2="594.6007"/>
    <line x1="341.9079" x2="341.9079" y1="596.6254" y2="596.6254"/>
    <line x1="345.4149" x2="345.4149" y1="601.3498" y2="601.3498"/>
    <line x1="350.0909" x2="350.0909" y1="598.6502" y2="598.6502"/>
    <line x1="352.4288" x2="352.4288" y1="602.6997" y2="602.6997"/>
    <line x1="357.1048" x2="357.1048" y1="594.6007" y2="594.6007"/>
    <line x1="362.9497" x2="362.9497" y1="608.7739" y2="608.7739"/>
    <line x1="368.7947" x2="368.7947" y1="612.1485" y2="612.1485"/>
    <polyline points="396.8504,609.4488 380.4846,600.0 364.1187,609.4488 347.7529,600.0 331.3871,609.4488 315.0212,600.0 298.6554,609.4488 298.6554,626.4567 315.0212,635.9055"/>
    <line x1="365.2877" x2="365.2877" y1="647.919" y2="664.9269"/>
    <line x1="366.4567" x2="366.4567" y1="665.6018" y2="648.5939"/>
    <line x1="367.6257" x2="367.6257" y1="649.2688" y2="666.2767"/>
    <line x1="368.7947" x2="368.7947" y1="666.9516" y2="649.9438"/>
    <line x1="369.9637" x2="369.9637" y1="650.6187" y2="667.6265"/>
    <line x1="371.1327" x2="371.1327" y1="668.3015" y2="651.2936"/>
    <line x1="372.3016" x2="372.3016" y1="651.9685" y2="668.9764"/>
    <line x1="373.4706" x2="373.4706" y1="669.6513" y2="652.6434"/>
    <line x1="374.6396" x2="374.6396" y1="653.3183" y2="670.3262"/>
    <line x1="375.8086" x2="375.8086" y1="671.0011" y2="653.9933"/>
    <line x1="376.9776" x2="376.9776" y1="654.6682" y2="671.676"/>
    <line x1="378.1466" x2="378.1466" y1="672.351" y2="655.3431"/>
    <line x1="379.3156" x2="379.3156" y1="656.018" y2="673.0259"/>
    <polyline points="380.4846,673.7008 364.1187,664.252 364.1187,647.2441 380.4846,637.7953 396.8504,647.2441 413.2162,637.7953 429.5821,647.2441 429.5821,664.252 413.2162,673.7008"/>
    <line x1="415.5542" x2="415.5542" y1="672.351" y2="655.3431"/>
    <line x1="417.8922" x2="417.8922" y1="653.9933" y2="671.0011"/>
    <line x1="420.2302" x2="420.2302" y1="669.6513" y2="652.6434"/>
    <line x1="422.5681" x2="422.5681" y1="651.2936" y2="668.3015"/>
    <line x1="424.9061" x2="424.9061" y1="666.9516" y2="649.9438"/>
    <line x1="427.2441" x2="427.2441" y1="648.5939" y2="665.6018"/>
    <line x1="410.8783" x2="410.8783" y1="658.0427" y2="675.0506"/>
    <line x1="408.5403" x2="408.5403" y1="676.4004" y2="659.3926"/>
    <line x1="406.2023" x2="406.2023" y1="660.7424" y2="677.7503"/>
    <line x1="403.8643" x2="403.8643" y1="679.1001" y2="662.0922"/>
    <line x1="401.5263" x2="401.5263" y1="663.4421" y2="680.4499"/>
    <line x1="399.1884" x2="399.1884" y1="681.7998" y2="664.7919"/>
    <polyline points="396.8504,666.1417 396.8504,683.1496 380.4846,673.7008 380.4846,656.6929 396.8504,647.2441 413.2162,656.6929 413.2162,673.7008 396.8504,683.1496"/>
    <line x1="395.6814" x2="395.6814" y1="682.4747" y2="665.4668"/>
    <line x1="394.5124" x2="394.5124" y1="664.7919" y2="681.7998"/>
    <line x1="393.3434" x2="393.3434" y1="681.1249" y2="664.117"/>
    <line x1="392.1744" x2="392.1744" y1="663.4421" y2="680.4499"/>
    <line x1="391.0055" x2="391.0055" y1="679.775" y2="662.7672"/>
    <line x1="389.8365" x2="389.8365" y1="662.0922" y2="679.1001"/>
    <line x1="388.6675" x2="388.6675" y1="678.4252" y2="661.4173"/>
    <line x1="387.4985" x2="387.4985" y1="660.7424" y2="677.7503"/>
    <line x1="386.3295" x2="386.3295" y1="677.0754" y2="660.0675"/>
    <line x1="385.1605" x2="385.1605" y1="659.3926" y2="676.4004"/>
    <line x1="383.9915" x2="383.9915" y1="675.7255" y2="658.7177"/>
    <line x1="382.8225" x2="382.8225" y1="658.0427" y2="675.0506"/>
    <line x1="381.6535" x2="381.6535" y1="674.3757" y2="657.3678"/>
    <line x1="385.1605" x2="385.1605" y1="653.9933" y2="653.9933"/>
    <line x1="387.4985" x2="387.4985" y1="652.6434" y2="652.6434"/>
    <line x1="392.1744" x2="392.1744" y1="644.5444" y2="644.5444"/>
    <line x1="393.3434" x2="393.3434" y1="645.2193" y2="645.2193"/>
    <line x1="398.0194" x2="398.0194" y1="647.919" y2="647.919"/>
    <line x1="401.5263" x2="401.5263" y1="644.5444" y2="644.5444"/>
    <line x1="406.2023" x2="406.2023" y1="641.8448" y2="641.8448"/>
    <line x1="409.7093" x2="409.7093" y1="635.7705" y2="635.7705"/>
    <line x1="406.2023" x2="406.2023" y1="652.6434" y2="652.6434"/>
    <line x1="408.5403" x2="408.5403" y1="653.9933" y2="653.9933"/>
    <line x1="424.9061" x2="424.9061" y1="644.5444" y2="644.5444"/>
    <line x1="424.9061" x2="424.9061" y1="612.1485" y2="612.1485"/>
    <line x1="423.7371" x2="423.7371" y1="606.0742" y2="606.0742"/>
    <line x1="429.5821" x2="445.9479" y1="603.1082" y2="612.557"/>
    <line x1="444.7789" x2="444.7789" y1="611.8821" y2="618.2227"/>
    <line x1="443.6099" x2="443.6099" y1="617.5478" y2="611.2072"/>
    <line x1="442.4409" x2="442.4409" y1="610.5323" y2="616.8729"/>
    <line x1="441.2719" x2="441.2719" y1="616.198" y2="609.8573"/>
    <line x1="440.103" x2="440.103" y1="609.1824" y2="615.5231"/>
    <line x1="438.934" x2="438.934" y1="614.8481" y2="608.5075"/>
    <line x1="437.765" x2="437.765" y1="607.8326" y2="614.1732"/>
    <line x1="436.596" x2="436.596" y1="613.4983" y2="607.1577"/>
    <line x1="435.427" x2="435.427" y1="606.4828" y2="612.8234"/>
    <line x1="434.258" x2="434.258" y1="612.1485" y2="605.8078"/>
    <line x1="433.089" x2="433.089" y1="605.1329" y2="611.4736"/>
    <line x1="431.92" x2="431.92" y1="610.7987" y2="604.458"/>
    <line x1="430.7511" x2="430.7511" y1="603.7831" y2="610.1237"/>
    <line x1="438.934" x2="438.934" y1="595.9505" y2="584.8233"/>
    <line x1="437.765" x2="437.765" y1="584.1484" y2="595.2756"/>
    <line x1="436.596" x2="436.596" y1="594.6007" y2="583.4735"/>
    <line x1="435.427" x2="435.427" y1="582.7985" y2="593.9258"/>
    <line x1="434.258" x2="434.258" y1="593.2508" y2="582.1236"/>
    <line x1="433.089" x2="433.089" y1="581.4487" y2="592.5759"/>
    <line x1="431.92" x2="431.92" y1="591.901" y2="580.7738"/>
    <line x1="427.2441" x2="427.2441" y1="583.4393" y2="591.901"/>
    <line x1="424.9061" x2="424.9061" y1="593.2508" y2="584.7892"/>
    <line x1="422.5681" x2="422.5681" y1="586.139" y2="594.6007"/>
    <line x1="420.2302" x2="420.2302" y1="595.9505" y2="587.4888"/>
    <line x1="417.8922" x2="417.8922" y1="588.8387" y2="597.3003"/>
    <line x1="415.5542" x2="415.5542" y1="598.6502" y2="590.1885"/>
    <line x1="410.8783" x2="410.8783" y1="595.0533" y2="601.3498"/>
    <line x1="408.5403" x2="408.5403" y1="602.6997" y2="596.4032"/>
    <line x1="406.2023" x2="406.2023" y1="597.753" y2="604.0495"/>
    <line x1="403.8643" x2="403.8643" y1="605.3993" y2="599.1028"/>
    <line x1="401.5263" x2="401.5263" y1="600.4527" y2="606.7492"/>
    <line x1="399.1884" x2="399.1884" y1="608.099" y2="601.8025"/>
    <line x1="387.4985" x2="387.4985" y1="641.8448" y2="641.8448"/>
    <line x1="368.7947" x2="368.7947" y1="644.5444" y2="644.5444"/>
    <line x1="340.739" x2="340.739" y1="585.1519" y2="585.1519"/>
    <line x1="376.9776" x2="376.9776" y1="529.3302" y2="516.1233"/>
    <line x1="378.1466" x2="378.1466" y1="516.7982" y2="528.6553"/>
    <line x1="347.7529" x2="331.3871" y1="515.6034" y2="506.1546"/>
    <line x1="331.3871" x2="331.3871" y1="504.8125" y2="504.8125"/>
    <polyline points="341.2453,500.4629 331.3871,494.7713 315.0212,504.2201 315.0212,517.8542"/>
    <line x1="308.0073" x2="308.0073" y1="509.5613" y2="509.5613"/>
    <line x1="303.3313" x2="303.3313" y1="512.261" y2="512.261"/>
    <line x1="300.9934" x2="300.9934" y1="516.3105" y2="516.3105"/>
    <line x1="302.1624" x2="302.1624" y1="516.9854" y2="516.9854"/>
    <line x1="297.4864" x2="297.4864" y1="514.2857" y2="514.2857"/>
    <line x1="296.3174" x2="296.3174" y1="516.3105" y2="516.3105"/>
    <line x1="293.9794" x2="293.9794" y1="512.261" y2="512.261"/>
    <line x1="289.3035" x2="289.3035" y1="509.5613" y2="509.5613"/>
    <line x1="288.1345" x2="288.1345" y1="508.8864" y2="508.8864"/>
    <line x1="286.9655" x2="286.9655" y1="508.2115" y2="508.2115"/>
    <polyline points="282.2896,505.5118 298.6554,496.063 315.0212,505.5118 315.0212,495.3637 331.3871,485.9149 343.423,492.8639"/>
    <line x1="343.0769" x2="343.0769" y1="492.6641" y2="484.5588"/>
    <line x1="344.2459" x2="344.2459" y1="485.2337" y2="492.3887"/>
    <line x1="345.4149" x2="345.4149" y1="491.7138" y2="485.9086"/>
    <line x1="346.5839" x2="346.5839" y1="486.5835" y2="491.0389"/>
    <line x1="350.0909" x2="350.0909" y1="491.7138" y2="490.1841"/>
    <line x1="351.2599" x2="351.2599" y1="490.859" y2="492.3887"/>
    <line x1="352.4288" x2="352.4288" y1="493.0637" y2="491.534"/>
    <line x1="353.5978" x2="353.5978" y1="492.2089" y2="493.7386"/>
    <line x1="354.7668" x2="354.7668" y1="494.4135" y2="492.8838"/>
    <line x1="355.9358" x2="355.9358" y1="493.5587" y2="495.0884"/>
    <line x1="357.1048" x2="357.1048" y1="495.7633" y2="494.2336"/>
    <line x1="358.2738" x2="358.2738" y1="494.9085" y2="495.7012"/>
    <polyline points="358.9602,495.3049 347.7529,488.8343 347.7529,487.2584"/>
    <line x1="341.9079" x2="341.9079" y1="483.8839" y2="491.9891"/>
    <line x1="340.739" x2="340.739" y1="491.3142" y2="483.2089"/>
    <line x1="339.57" x2="339.57" y1="482.534" y2="490.6393"/>
    <line x1="338.401" x2="338.401" y1="489.9644" y2="481.8591"/>
    <line x1="337.232" x2="337.232" y1="481.1842" y2="489.2895"/>
    <line x1="336.063" x2="336.063" y1="488.6146" y2="480.5093"/>
    <line x1="334.894" x2="334.894" y1="479.8344" y2="487.9396"/>
    <line x1="333.725" x2="333.725" y1="487.2647" y2="479.1595"/>
    <line x1="332.556" x2="332.556" y1="477.1347" y2="463.3356"/>
    <line x1="331.3871" x2="344.5064" y1="462.6607" y2="470.2352"/>
    <line x1="344.2459" x2="344.2459" y1="470.0848" y2="470.3855"/>
    <line x1="343.0769" x2="343.0769" y1="471.0605" y2="469.4099"/>
    <line x1="341.9079" x2="341.9079" y1="468.7349" y2="471.7354"/>
    <line x1="340.739" x2="340.739" y1="472.4103" y2="468.06"/>
    <line x1="339.57" x2="339.57" y1="467.3851" y2="473.0852"/>
    <line x1="338.401" x2="338.401" y1="473.7601" y2="466.7102"/>
    <line x1="337.232" x2="337.232" y1="466.0353" y2="474.435"/>
    <line x1="336.063" x2="336.063" y1="475.11" y2="465.3604"/>
    <line x1="334.894" x2="334.894" y1="464.6854" y2="475.7849"/>
    <line x1="333.725" x2="333.725" y1="476.4598" y2="464.0105"/>
    <polyline points="347.7529,468.3608 347.7529,457.6151 364.1187,448.1663 380.4846,457.6151 380.5831,462.0754 396.8504,452.6835 413.2162,462.1323 413.2162,473.3151"/>
    <line x1="403.8643" x2="403.8643" y1="471.3899" y2="467.5316"/>
    <line x1="402.671" x2="413.2162" y1="468.2206" y2="462.1323"/>
    <line x1="397.8323" x2="397.8323" y1="462.778" y2="462.778"/>
    <line x1="382.8225" x2="382.8225" y1="460.7825" y2="459.5363"/>
    <polyline points="403.3967,486.022 403.3967,503.0299 405.0333,502.085 405.0333,485.0772"/>
    <line x1="406.2023" x2="406.2023" y1="488.1632" y2="489.6167"/>
    <line x1="407.3713" x2="407.3713" y1="490.2916" y2="488.8381"/>
    <line x1="408.5403" x2="408.5403" y1="489.5131" y2="490.9665"/>
    <line x1="409.7093" x2="409.7093" y1="491.6415" y2="490.188"/>
    <line x1="410.8783" x2="410.8783" y1="490.8629" y2="492.3164"/>
    <line x1="429.5821" x2="445.9479" y1="484.1745" y2="474.7257"/>
    <line x1="443.6099" x2="443.6099" y1="476.0755" y2="487.964"/>
    <line x1="441.2719" x2="441.2719" y1="489.3138" y2="477.4253"/>
    <line x1="438.934" x2="438.934" y1="478.7752" y2="490.6637"/>
    <line x1="436.596" x2="436.596" y1="492.0135" y2="480.125"/>
    <line x1="434.258" x2="434.258" y1="481.4748" y2="493.3633"/>
    <line x1="437.765" x2="437.765" y1="500.7874" y2="500.7874"/>
    <line x1="440.103" x2="440.103" y1="502.1372" y2="502.1372"/>
    <line x1="444.7789" x2="444.7789" y1="504.8369" y2="504.8369"/>
    <line x1="438.934" x2="438.934" y1="509.5613" y2="509.5613"/>
    <line x1="434.258" x2="434.258" y1="512.261" y2="512.261"/>
    <line x1="431.92" x2="431.92" y1="516.3105" y2="516.3105"/>
    <line x1="452.9618" x2="452.9618" y1="509.5613" y2="509.5613"/>
    <line x1="457.6378" x2="457.6378" y1="512.261" y2="512.261"/>
    <line x1="461.1447" x2="461.1447" y1="514.2857" y2="514.2857"/>
    <line x1="459.9758" x2="459.9758" y1="516.3105" y2="516.3105"/>
    <line x1="464.6517" x2="464.6517" y1="516.3105" y2="516.3105"/>
    <line x1="466.9897" x2="466.9897" y1="512.261" y2="512.261"/>
    <line x1="471.6656" x2="471.6656" y1="509.5613" y2="509.5613"/>
    <line x1="474.0036" x2="474.0036" y1="508.2115" y2="508.2115"/>
    <line x1="472.8346" x2="472.8346" y1="502.1372" y2="502.1372"/>
    <line x1="472.8346" x2="472.8346" y1="521.0349" y2="521.0349"/>
    <line x1="471.6656" x2="471.6656" y1="528.4589" y2="528.4589"/>
    <line x1="485.6935" x2="485.6935" y1="528.4589" y2="528.4589"/>
    <line x1="504.3973" x2="504.3973" y1="528.4589" y2="528.4589"/>
    <line x1="505.5663" x2="505.5663" y1="521.0349" y2="521.0349"/>
    <line x1="518.4252" x2="518.4252" y1="528.4589" y2="528.4589"/>
    <line x1="525.4391" x2="525.4391" y1="516.3105" y2="516.3105"/>
    <polyline points="527.7771,514.9606 511.4112,505.5118 495.0454,514.9606 478.6796,505.5118 462.3137,514.9606 445.9479,505.5118 429.5821,514.9606 445.9479,524.4094 462.3137,514.9606 478.6796,524.4094 495.0454,514.9606 511.4112,524.4094 527.7771,514.9606 544.1429,524.4094"/>
    <line x1="546.4809" x2="546.4809" y1="554.3822" y2="556.7994"/>
    <line x1="525.4391" x2="525.4391" y1="577.1599" y2="608.9089"/>
    <line x1="523.1011" x2="523.1011" y1="610.2587" y2="578.5097"/>
    <line x1="520.7631" x2="520.7631" y1="579.8596" y2="611.6085"/>
    <line x1="518.4252" x2="518.4252" y1="612.9584" y2="581.2094"/>
    <line x1="516.0872" x2="516.0872" y1="582.5592" y2="614.3082"/>
    <line x1="513.7492" x2="513.7492" y1="560.8549" y2="560.8549"/>
    <line x1="458.8068" x2="458.8068" y1="593.2934" y2="601.0834"/>
    <line x1="457.6378" x2="457.6378" y1="600.4085" y2="592.6185"/>
    <line x1="456.4688" x2="456.4688" y1="591.9435" y2="599.7336"/>
    <line x1="455.2998" x2="455.2998" y1="599.0587" y2="591.2686"/>
    <line x1="454.1308" x2="454.1308" y1="590.5937" y2="598.3838"/>
    <line x1="452.9618" x2="452.9618" y1="597.7089" y2="589.9188"/>
    <line x1="451.7928" x2="451.7928" y1="589.2439" y2="597.0339"/>
    <line x1="450.6238" x2="450.6238" y1="596.359" y2="588.569"/>
    <line x1="449.4549" x2="449.4549" y1="587.894" y2="595.6841"/>
    <line x1="448.2859" x2="448.2859" y1="595.0092" y2="587.2191"/>
    <line x1="264.7547" x2="264.7547" y1="589.8763" y2="606.8841"/>
    <line x1="263.5857" x2="263.5857" y1="606.2092" y2="589.2013"/>
    <line x1="262.4168" x2="262.4168" y1="588.5264" y2="605.5343"/>
    <line x1="261.2478" x2="261.2478" y1="604.8594" y2="587.8515"/>
    <line x1="260.0788" x2="260.0788" y1="587.1766" y2="604.1845"/>
    <line x1="258.9098" x2="258.9098" y1="603.5096" y2="586.5017"/>
    <line x1="257.7408" x2="257.7408" y1="585.8268" y2="602.8346"/>
    <line x1="256.5718" x2="256.5718" y1="602.1597" y2="585.1519"/>
    <line x1="255.4028" x2="255.4028" y1="584.4769" y2="601.4848"/>
    <line x1="254.2338" x2="254.2338" y1="600.8099" y2="583.802"/>
    <line x1="253.0648" x2="253.0648" y1="583.1271" y2="600.135"/>
    <line x1="251.8959" x2="251.8959" y1="599.4601" y2="582.4522"/>
    <line x1="250.7269" x2="250.7269" y1="581.7773" y2="598.7852"/>
    <line x1="251.8959" x2="251.8959" y1="579.7525" y2="579.7525"/>
  </g>
</svg>
