<?xml version="1.0" encoding="utf-8" ?>
<svg xmlns="http://www.w3.org/2000/svg" xmlns:cc="http://creativecommons.org/ns#" xmlns:dc="http://purl.org/dc/elements/1.1/" xmlns:ev="http://www.w3.org/2001/xml-events" xmlns:inkscape="http://www.inkscape.org/namespaces/inkscape" xmlns:rdf="http://www.w3.org/1999/02/22-rdf-syntax-ns#" xmlns:sodipodi="http://sodipodi.sourceforge.net/DTD/sodipodi-0.dtd" xmlns:xlink="http://www.w3.org/1999/xlink" baseProfile="tiny" height="29.7cm" version="1.2" viewBox="0 0 793.7007874015749 1122.5196850393702" width="21.0cm">
  <metadata>
    <rdf:RDF>
      <cc:Work>
        <dc:format>image/svg+xml</dc:format>
        <dc:source/>
        <dc:date>2022-01-09T12:57:08.970363</dc:date>
      </cc:Work>
    </rdf:RDF>
  </metadata>
  <defs/>
  <g fill="none" id="layer2" inkscape:groupmode="layer" inkscape:label="2" stroke="#00f" style="display:inline">
    <polyline points="380.4846,461.5158 396.8504,452.067 413.2162,461.5158"/>
    <line x1="410.8783" x2="410.8783" y1="462.8657" y2="462.8657"/>
    <line x1="403.8643" x2="403.8643" y1="475.0141" y2="475.0141"/>
    <line x1="395.6814" x2="395.6814" y1="470.2897" y2="470.2897"/>
    <line x1="389.8365" x2="389.8365" y1="475.0141" y2="475.0141"/>
    <line x1="383.9915" x2="383.9915" y1="482.4382" y2="482.4382"/>
    <line x1="387.4985" x2="387.4985" y1="484.463" y2="484.463"/>
    <line x1="391.0055" x2="391.0055" y1="486.4877" y2="486.4877"/>
    <line x1="392.1744" x2="392.1744" y1="487.1626" y2="487.1626"/>
    <line x1="395.6814" x2="395.6814" y1="489.1874" y2="489.1874"/>
    <line x1="396.8504" x2="406.4059" y1="490.562" y2="496.0789"/>
    <line x1="406.2023" x2="406.2023" y1="495.9613" y2="496.1965"/>
    <line x1="405.0333" x2="405.0333" y1="496.8714" y2="495.2864"/>
    <polyline points="403.8643,494.6115 403.7575,497.608 396.8504,493.6201 380.4846,503.0689 380.4846,504.1731"/>
    <line x1="380.4846" x2="391.9224" y1="503.0689" y2="509.6726"/>
    <polyline points="391.0055,509.1432 390.9662,510.2247 380.4846,504.1731 364.3817,513.4701"/>
    <line x1="366.4567" x2="366.4567" y1="510.1097" y2="510.1097"/>
    <line x1="367.6257" x2="367.6257" y1="510.7847" y2="510.7847"/>
    <polyline points="368.3294,511.1909 364.1187,508.7599 347.7529,518.2087 331.3871,508.7599 315.0212,518.2087 298.6554,508.7599 282.2896,518.2087"/>
    <line x1="286.9655" x2="286.9655" y1="520.9084" y2="520.9084"/>
    <line x1="288.1345" x2="288.1345" y1="521.5833" y2="521.5833"/>
    <line x1="289.3035" x2="289.3035" y1="522.2582" y2="522.2582"/>
    <line x1="293.9794" x2="293.9794" y1="524.9579" y2="524.9579"/>
    <line x1="297.4864" x2="297.4864" y1="526.9826" y2="526.9826"/>
    <line x1="300.9934" x2="300.9934" y1="529.0074" y2="529.0074"/>
    <line x1="302.1624" x2="302.1624" y1="529.6823" y2="529.6823"/>
    <line x1="303.3313" x2="303.3313" y1="524.9579" y2="524.9579"/>
    <line x1="308.0073" x2="308.0073" y1="522.2582" y2="522.2582"/>
    <line x1="313.8522" x2="313.8522" y1="517.5338" y2="517.5338"/>
    <line x1="319.6972" x2="319.6972" y1="520.9084" y2="520.9084"/>
    <line x1="322.0352" x2="322.0352" y1="522.2582" y2="522.2582"/>
    <line x1="326.7111" x2="326.7111" y1="524.9579" y2="524.9579"/>
    <line x1="330.2181" x2="330.2181" y1="526.9826" y2="526.9826"/>
    <line x1="329.0491" x2="329.0491" y1="529.0074" y2="529.0074"/>
    <line x1="333.725" x2="333.725" y1="529.0074" y2="529.0074"/>
    <line x1="334.894" x2="334.894" y1="529.6823" y2="529.6823"/>
    <polyline points="337.1538,531.9372 347.7529,525.8178 361.173,533.5659"/>
    <line x1="360.6118" x2="360.6118" y1="533.2419" y2="530.1912"/>
    <line x1="361.7807" x2="361.7807" y1="530.8661" y2="533.215"/>
    <line x1="362.9497" x2="362.9497" y1="532.5401" y2="531.541"/>
    <line x1="363.815" x2="347.7529" y1="532.0405" y2="522.7671"/>
    <line x1="348.9219" x2="348.9219" y1="523.442" y2="526.4927"/>
    <polyline points="347.7529,525.8178 347.7529,522.7671 364.1187,513.3183 377.4365,521.0073"/>
    <polyline points="380.4846,519.2475 380.4846,516.2763 396.8504,506.8275 413.1131,516.2167 413.2162,505.8835 429.5821,496.4347 444.3267,504.9475"/>
    <line x1="444.7789" x2="444.7789" y1="504.6864" y2="493.344"/>
    <line x1="443.6099" x2="443.6099" y1="492.6691" y2="504.5337"/>
    <line x1="442.4409" x2="442.4409" y1="503.8588" y2="491.9942"/>
    <line x1="441.2719" x2="441.2719" y1="491.3192" y2="503.1839"/>
    <line x1="440.103" x2="440.103" y1="502.509" y2="490.6443"/>
    <line x1="438.934" x2="438.934" y1="489.9694" y2="501.834"/>
    <line x1="437.765" x2="437.765" y1="501.1591" y2="489.2945"/>
    <line x1="436.596" x2="436.596" y1="488.6196" y2="500.4842"/>
    <line x1="435.427" x2="435.427" y1="499.8093" y2="487.9447"/>
    <line x1="434.258" x2="434.258" y1="487.1626" y2="499.1344"/>
    <line x1="433.089" x2="433.089" y1="498.4595" y2="486.5948"/>
    <line x1="431.92" x2="431.92" y1="485.9199" y2="497.7845"/>
    <line x1="430.7511" x2="430.7511" y1="497.1096" y2="485.245"/>
    <line x1="429.5821" x2="445.9479" y1="484.5701" y2="494.0189"/>
    <line x1="447.1169" x2="447.1169" y1="491.4915" y2="504.6864"/>
    <polyline points="445.9479,504.0115 445.9479,490.8166 462.3137,481.3677 478.6796,490.8166 478.6796,491.509"/>
    <line x1="477.5106" x2="477.5106" y1="490.1416" y2="482.6912"/>
    <polyline points="478.6796,483.3661 478.6796,490.8166 462.3137,500.2654 445.9479,490.8166"/>
    <line x1="448.2859" x2="448.2859" y1="492.1664" y2="505.3613"/>
    <line x1="449.4549" x2="449.4549" y1="506.0363" y2="492.8413"/>
    <line x1="450.6238" x2="450.6238" y1="493.5162" y2="506.7112"/>
    <line x1="451.7928" x2="451.7928" y1="507.3861" y2="494.1911"/>
    <line x1="452.9618" x2="452.9618" y1="494.8661" y2="508.061"/>
    <line x1="454.1308" x2="454.1308" y1="508.7359" y2="495.541"/>
    <line x1="455.2998" x2="455.2998" y1="496.2159" y2="509.4108"/>
    <line x1="456.4688" x2="456.4688" y1="510.0858" y2="496.8908"/>
    <line x1="457.6378" x2="457.6378" y1="497.5657" y2="510.7607"/>
    <line x1="458.8068" x2="458.8068" y1="511.4356" y2="498.2406"/>
    <line x1="459.9758" x2="459.9758" y1="498.9156" y2="512.1105"/>
    <polyline points="460.4188,512.3663 445.9479,504.0115 429.5821,513.4603 429.5821,523.2038"/>
    <line x1="428.4131" x2="428.4131" y1="523.8787" y2="514.6574"/>
    <line x1="427.2441" x2="427.2441" y1="513.9825" y2="524.2561"/>
    <polyline points="427.5017,524.4049 413.2162,516.1572 396.8504,525.606 396.8504,528.6963 380.4846,538.1451 364.1187,528.6963"/>
    <line x1="365.2877" x2="365.2877" y1="529.3712" y2="532.5401"/>
    <line x1="366.4567" x2="366.4567" y1="533.215" y2="530.0462"/>
    <line x1="367.6257" x2="367.6257" y1="530.7211" y2="533.8899"/>
    <line x1="368.7947" x2="368.7947" y1="534.5648" y2="531.396"/>
    <line x1="369.9637" x2="369.9637" y1="532.0709" y2="535.2397"/>
    <line x1="371.1327" x2="371.1327" y1="535.9146" y2="532.7458"/>
    <line x1="372.3016" x2="372.3016" y1="533.4207" y2="536.5896"/>
    <line x1="373.4706" x2="373.4706" y1="537.2645" y2="534.0957"/>
    <line x1="374.6396" x2="374.6396" y1="534.7706" y2="537.9394"/>
    <line x1="375.8086" x2="375.8086" y1="538.6143" y2="535.4455"/>
    <line x1="376.9776" x2="376.9776" y1="536.1204" y2="539.2892"/>
    <line x1="378.1466" x2="378.1466" y1="539.9641" y2="536.7953"/>
    <line x1="379.3156" x2="379.3156" y1="537.4702" y2="540.6391"/>
    <line x1="378.1466" x2="378.1466" y1="542.6638" y2="548.2179"/>
    <line x1="375.8086" x2="375.8086" y1="549.5677" y2="544.0136"/>
    <line x1="373.4706" x2="373.4706" y1="545.3635" y2="550.9176"/>
    <line x1="371.1327" x2="371.1327" y1="552.2674" y2="546.7133"/>
    <line x1="368.7947" x2="368.7947" y1="548.0631" y2="553.6172"/>
    <line x1="366.4567" x2="366.4567" y1="554.967" y2="549.413"/>
    <polyline points="364.1187,550.7628 380.4846,541.314 380.4846,538.1451"/>
    <line x1="382.8225" x2="382.8225" y1="536.7953" y2="542.6144"/>
    <line x1="381.6535" x2="381.6535" y1="544.6392" y2="547.543"/>
    <line x1="382.8225" x2="382.8225" y1="548.2179" y2="545.3141"/>
    <line x1="383.9915" x2="383.9915" y1="545.989" y2="548.8928"/>
    <line x1="385.1605" x2="385.1605" y1="549.5677" y2="546.6639"/>
    <line x1="386.3295" x2="386.3295" y1="547.3388" y2="550.2426"/>
    <line x1="387.4985" x2="387.4985" y1="550.9176" y2="548.0138"/>
    <line x1="388.6675" x2="388.6675" y1="548.6887" y2="551.5925"/>
    <line x1="389.8365" x2="389.8365" y1="552.2674" y2="549.3636"/>
    <line x1="391.0055" x2="391.0055" y1="550.0385" y2="552.9423"/>
    <line x1="392.1744" x2="392.1744" y1="553.6172" y2="550.7134"/>
    <line x1="393.3434" x2="393.3434" y1="551.3883" y2="554.2921"/>
    <line x1="394.5124" x2="394.5124" y1="554.967" y2="552.0632"/>
    <line x1="395.6814" x2="395.6814" y1="552.7382" y2="555.642"/>
    <polyline points="396.3853,556.0483 380.4846,546.8681 364.1187,556.3169 380.4846,565.7657"/>
    <line x1="380.4846" x2="396.8504" y1="565.2286" y2="574.6774"/>
    <line x1="395.6814" x2="395.6814" y1="574.0025" y2="583.6756"/>
    <line x1="394.5124" x2="394.5124" y1="583.0006" y2="573.3276"/>
    <line x1="393.3434" x2="393.3434" y1="572.6527" y2="582.3257"/>
    <line x1="392.1744" x2="392.1744" y1="581.6508" y2="571.9778"/>
    <line x1="391.0055" x2="391.0055" y1="571.3029" y2="580.9759"/>
    <line x1="389.8365" x2="389.8365" y1="580.301" y2="570.6279"/>
    <line x1="388.6675" x2="388.6675" y1="569.953" y2="579.6261"/>
    <line x1="387.4985" x2="387.4985" y1="578.9511" y2="569.2781"/>
    <line x1="386.3295" x2="386.3295" y1="568.6032" y2="578.2762"/>
    <line x1="385.1605" x2="385.1605" y1="577.6013" y2="567.9283"/>
    <line x1="383.9915" x2="383.9915" y1="567.2534" y2="576.9264"/>
    <line x1="382.8225" x2="382.8225" y1="576.2515" y2="566.5784"/>
    <line x1="381.6535" x2="381.6535" y1="565.9035" y2="575.5766"/>
    <polyline points="380.4846,574.9016 380.4846,566.3963 364.1187,556.9475 347.7529,566.3963 347.7529,574.9016 347.7529,559.3278 331.3871,549.879 315.0212,559.3278 315.0212,567.3015 315.0212,556.1878 298.6554,546.7389 282.2896,556.1878 282.2896,563.692 265.9237,573.1409 249.5579,563.692 249.5579,558.6808"/>
    <line x1="248.3889" x2="248.3889" y1="558.0059" y2="574.2267"/>
    <line x1="247.2199" x2="247.2199" y1="573.5518" y2="557.331"/>
    <line x1="246.0509" x2="246.0509" y1="556.6561" y2="572.8769"/>
    <line x1="244.8819" x2="244.8819" y1="572.202" y2="555.9811"/>
    <line x1="243.7129" x2="243.7129" y1="555.3062" y2="571.5271"/>
    <line x1="242.544" x2="242.544" y1="570.8522" y2="554.6313"/>
    <line x1="241.375" x2="241.375" y1="553.9564" y2="570.1772"/>
    <line x1="240.206" x2="240.206" y1="569.5023" y2="553.2815"/>
    <line x1="239.037" x2="239.037" y1="552.6066" y2="568.8274"/>
    <line x1="237.868" x2="237.868" y1="568.1525" y2="551.9317"/>
    <line x1="236.699" x2="236.699" y1="551.2567" y2="567.4776"/>
    <line x1="235.53" x2="235.53" y1="566.8027" y2="550.5818"/>
    <line x1="234.361" x2="234.361" y1="549.9069" y2="566.1277"/>
    <line x1="230.8541" x2="230.8541" y1="564.103" y2="564.103"/>
    <polyline points="233.192,549.232 249.5579,558.6808 265.9237,549.232 265.9237,544.8771 282.2896,535.4283 298.6554,544.8771 298.6554,546.7389"/>
    <line x1="299.8244" x2="299.8244" y1="547.4139" y2="545.3912"/>
    <line x1="300.9934" x2="300.9934" y1="546.0661" y2="548.0888"/>
    <line x1="302.1624" x2="302.1624" y1="548.7637" y2="546.741"/>
    <line x1="303.3313" x2="303.3313" y1="547.416" y2="549.4386"/>
    <line x1="304.5003" x2="304.5003" y1="550.1135" y2="548.0909"/>
    <line x1="305.6693" x2="305.6693" y1="548.7658" y2="550.7884"/>
    <line x1="306.8383" x2="306.8383" y1="551.4634" y2="549.4407"/>
    <line x1="308.0073" x2="308.0073" y1="550.1156" y2="552.1383"/>
    <line x1="309.1763" x2="309.1763" y1="552.8132" y2="550.7905"/>
    <line x1="310.3453" x2="310.3453" y1="551.4655" y2="553.4881"/>
    <line x1="311.5143" x2="311.5143" y1="554.163" y2="552.1404"/>
    <line x1="312.6832" x2="312.6832" y1="552.8153" y2="554.8379"/>
    <line x1="313.8522" x2="313.8522" y1="555.5129" y2="553.4902"/>
    <line x1="315.0212" x2="298.6554" y1="554.1651" y2="544.7163"/>
    <line x1="296.3174" x2="296.3174" y1="546.2269" y2="548.0888"/>
    <line x1="293.9794" x2="293.9794" y1="547.5767" y2="549.4386"/>
    <line x1="291.6415" x2="291.6415" y1="548.9266" y2="550.7884"/>
    <line x1="289.3035" x2="289.3035" y1="550.2764" y2="552.1383"/>
    <line x1="286.9655" x2="286.9655" y1="551.6262" y2="553.4881"/>
    <line x1="284.6275" x2="284.6275" y1="552.9761" y2="554.8379"/>
    <line x1="283.4585" x2="283.4585" y1="556.8627" y2="575.5766"/>
    <line x1="284.6275" x2="284.6275" y1="576.2515" y2="557.5376"/>
    <line x1="285.7965" x2="285.7965" y1="558.2125" y2="576.9264"/>
    <line x1="286.9655" x2="286.9655" y1="577.6013" y2="558.8874"/>
    <line x1="288.1345" x2="288.1345" y1="559.5623" y2="578.2762"/>
    <line x1="289.3035" x2="289.3035" y1="578.9511" y2="560.2373"/>
    <line x1="290.4725" x2="290.4725" y1="560.9122" y2="579.6261"/>
    <line x1="291.6415" x2="291.6415" y1="580.301" y2="561.5871"/>
    <line x1="292.8104" x2="292.8104" y1="562.262" y2="580.9759"/>
    <line x1="293.9794" x2="293.9794" y1="581.6508" y2="562.9369"/>
    <line x1="295.1484" x2="295.1484" y1="563.6118" y2="582.3257"/>
    <line x1="296.3174" x2="296.3174" y1="583.0006" y2="564.2868"/>
    <line x1="297.4864" x2="297.4864" y1="564.9617" y2="583.6756"/>
    <line x1="299.8244" x2="299.8244" y1="585.0254" y2="577.4253"/>
    <line x1="300.9934" x2="300.9934" y1="578.1002" y2="585.7003"/>
    <line x1="302.1624" x2="302.1624" y1="586.3752" y2="578.7751"/>
    <line x1="303.3313" x2="303.3313" y1="579.45" y2="587.0501"/>
    <line x1="304.5003" x2="304.5003" y1="587.725" y2="580.1249"/>
    <line x1="305.6693" x2="305.6693" y1="580.7998" y2="588.4"/>
    <line x1="306.8383" x2="306.8383" y1="589.0749" y2="581.4747"/>
    <line x1="308.0073" x2="308.0073" y1="582.1497" y2="589.7498"/>
    <line x1="309.1763" x2="309.1763" y1="590.4247" y2="582.8246"/>
    <line x1="310.3453" x2="310.3453" y1="583.4995" y2="591.0996"/>
    <line x1="311.5143" x2="311.5143" y1="591.7745" y2="584.1744"/>
    <line x1="312.6832" x2="312.6832" y1="584.8493" y2="592.4495"/>
    <line x1="313.8522" x2="313.8522" y1="593.1244" y2="585.5242"/>
    <polyline points="315.0212,586.1992 315.0212,593.7993 298.6554,584.3505 282.2896,593.7993 265.9237,584.3505 249.5579,593.7993 249.5579,610.8072 265.9237,620.256"/>
    <line x1="264.7547" x2="264.7547" y1="619.5811" y2="602.5732"/>
    <line x1="263.5857" x2="263.5857" y1="601.8983" y2="618.9061"/>
    <line x1="262.4168" x2="262.4168" y1="618.2312" y2="601.2234"/>
    <line x1="261.2478" x2="261.2478" y1="600.5484" y2="617.5563"/>
    <line x1="260.0788" x2="260.0788" y1="616.8814" y2="599.8735"/>
    <line x1="258.9098" x2="258.9098" y1="599.1986" y2="616.2065"/>
    <line x1="257.7408" x2="257.7408" y1="615.5316" y2="598.5237"/>
    <line x1="256.5718" x2="256.5718" y1="597.8488" y2="614.8567"/>
    <line x1="255.4028" x2="255.4028" y1="614.1817" y2="597.1739"/>
    <line x1="254.2338" x2="254.2338" y1="596.4989" y2="613.5068"/>
    <line x1="253.0648" x2="253.0648" y1="612.8319" y2="595.824"/>
    <line x1="251.8959" x2="251.8959" y1="595.1491" y2="612.157"/>
    <line x1="250.7269" x2="250.7269" y1="611.4821" y2="594.4742"/>
    <line x1="251.8959" x2="251.8959" y1="592.4495" y2="592.4495"/>
    <line x1="248.3889" x2="248.3889" y1="593.1244" y2="610.1322"/>
    <polyline points="249.5579,610.8072 233.192,601.3583 233.192,584.3505 249.5579,574.9016 265.9237,584.3505 282.2896,574.9016 298.6554,584.3505 298.6554,576.7503 315.0212,567.3015 331.3871,576.7503 331.3871,584.3505 347.7529,574.9016 364.1187,584.3505 364.1187,575.8451"/>
    <line x1="362.9497" x2="362.9497" y1="575.1702" y2="583.6756"/>
    <polyline points="364.1187,584.3505 380.4846,574.9016 396.8504,584.3505 396.8504,572.7282 413.2162,563.2794 428.0771,571.8593"/>
    <polyline points="429.5821,570.9904 429.5821,569.6873 445.9479,560.2385 462.3137,569.6873 462.3137,584.3505"/>
    <line x1="463.4827" x2="463.4827" y1="585.0254" y2="578.2849"/>
    <polyline points="462.3137,577.61 478.6796,587.0588 495.0454,577.61 495.0454,575.6709"/>
    <line x1="493.8764" x2="493.8764" y1="574.996" y2="576.9351"/>
    <line x1="492.7074" x2="492.7074" y1="576.2601" y2="574.3211"/>
    <line x1="491.5384" x2="491.5384" y1="573.6461" y2="575.5852"/>
    <line x1="490.3694" x2="490.3694" y1="574.9103" y2="572.9712"/>
    <line x1="489.2005" x2="489.2005" y1="572.2963" y2="574.2354"/>
    <line x1="488.0315" x2="488.0315" y1="573.5605" y2="571.6214"/>
    <line x1="486.8625" x2="486.8625" y1="570.9465" y2="572.8856"/>
    <line x1="485.6935" x2="485.6935" y1="572.2106" y2="570.2716"/>
    <line x1="484.5245" x2="484.5245" y1="569.5967" y2="571.5357"/>
    <line x1="483.3555" x2="483.3555" y1="570.8608" y2="568.9217"/>
    <line x1="482.1865" x2="482.1865" y1="568.2468" y2="570.1859"/>
    <line x1="481.0175" x2="481.0175" y1="569.511" y2="567.5719"/>
    <line x1="479.8486" x2="479.8486" y1="566.897" y2="568.8361"/>
    <polyline points="478.6796,568.1612 478.6796,553.2765 462.3137,543.8277 445.9479,553.2765 445.9479,560.2385"/>
    <line x1="447.1169" x2="447.1169" y1="560.9134" y2="553.9514"/>
    <line x1="448.2859" x2="448.2859" y1="554.6263" y2="561.5883"/>
    <line x1="449.4549" x2="449.4549" y1="562.2633" y2="555.3012"/>
    <line x1="450.6238" x2="450.6238" y1="555.9762" y2="562.9382"/>
    <line x1="451.7928" x2="451.7928" y1="563.6131" y2="556.6511"/>
    <line x1="452.9618" x2="452.9618" y1="557.326" y2="564.288"/>
    <line x1="454.1308" x2="454.1308" y1="564.9629" y2="558.0009"/>
    <line x1="455.2998" x2="455.2998" y1="558.6758" y2="565.6378"/>
    <line x1="456.4688" x2="456.4688" y1="566.3127" y2="559.3507"/>
    <line x1="457.6378" x2="457.6378" y1="560.0257" y2="566.9877"/>
    <line x1="458.8068" x2="458.8068" y1="567.6626" y2="560.7006"/>
    <line x1="459.9758" x2="459.9758" y1="561.3755" y2="568.3375"/>
    <line x1="461.1447" x2="461.1447" y1="569.0124" y2="562.0504"/>
    <polyline points="462.3137,562.7253 462.3137,584.3505 462.3137,577.61 478.6796,568.1612 495.0454,577.61 495.0454,584.3505 511.4112,593.7993 495.0454,584.3505 478.6796,593.7993 478.6796,587.0588"/>
    <line x1="477.5106" x2="477.5106" y1="586.3839" y2="593.1244"/>
    <line x1="476.3416" x2="476.3416" y1="592.4495" y2="585.709"/>
    <line x1="475.1726" x2="475.1726" y1="585.034" y2="591.7745"/>
    <line x1="474.0036" x2="474.0036" y1="591.0996" y2="584.3591"/>
    <line x1="472.8346" x2="472.8346" y1="583.6842" y2="590.4247"/>
    <line x1="471.6656" x2="471.6656" y1="589.7498" y2="583.0093"/>
    <line x1="470.4966" x2="470.4966" y1="582.3344" y2="589.0749"/>
    <line x1="469.3277" x2="469.3277" y1="588.4" y2="581.6595"/>
    <line x1="468.1587" x2="468.1587" y1="580.9846" y2="587.725"/>
    <line x1="466.9897" x2="466.9897" y1="587.0501" y2="580.3096"/>
    <line x1="465.8207" x2="465.8207" y1="579.6347" y2="586.3752"/>
    <line x1="464.6517" x2="464.6517" y1="585.7003" y2="578.9598"/>
    <line x1="464.6517" x2="464.6517" y1="576.2601" y2="561.3755"/>
    <line x1="466.9897" x2="466.9897" y1="560.0257" y2="574.9103"/>
    <line x1="469.3277" x2="469.3277" y1="573.5605" y2="558.6758"/>
    <line x1="471.6656" x2="471.6656" y1="557.326" y2="572.2106"/>
    <line x1="474.0036" x2="474.0036" y1="570.8608" y2="555.9762"/>
    <line x1="476.3416" x2="476.3416" y1="554.6263" y2="569.511"/>
    <polyline points="478.6796,566.2221 495.0454,556.7733 511.4112,566.2221 511.4112,574.9016 527.7771,565.4528 544.1429,574.9016 560.5087,565.4528 576.8746,574.9016 576.8746,591.9095 560.5087,601.3583"/>
    <line x1="562.8467" x2="562.8467" y1="600.0085" y2="583.0006"/>
    <line x1="565.1847" x2="565.1847" y1="581.6508" y2="598.6587"/>
    <line x1="567.5227" x2="567.5227" y1="597.3088" y2="580.301"/>
    <line x1="569.8606" x2="569.8606" y1="578.9511" y2="595.959"/>
    <line x1="572.1986" x2="572.1986" y1="594.6092" y2="577.6013"/>
    <line x1="574.5366" x2="574.5366" y1="576.2515" y2="593.2594"/>
    <polyline points="576.8746,591.9095 593.2404,582.4607 593.2404,565.4528 576.8746,556.004 560.5087,565.4528 544.1429,556.004 527.7771,565.4528 527.7771,558.4314 511.4112,548.9825 496.4814,557.6023"/>
    <line x1="497.3834" x2="497.3834" y1="557.0815" y2="532.9118"/>
    <line x1="499.7214" x2="499.7214" y1="531.5619" y2="555.7317"/>
    <line x1="502.0593" x2="502.0593" y1="554.3819" y2="530.2121"/>
    <line x1="504.3973" x2="504.3973" y1="528.8623" y2="553.032"/>
    <line x1="506.7353" x2="506.7353" y1="551.6822" y2="527.5124"/>
    <line x1="509.0733" x2="509.0733" y1="526.1626" y2="550.3324"/>
    <polyline points="511.4112,548.9825 511.4112,524.8128 495.0454,515.364 478.6796,524.8128 495.0454,534.2616 511.4112,524.8128"/>
    <line x1="516.0872" x2="516.0872" y1="530.5604" y2="551.6822"/>
    <polyline points="517.492,552.4933 527.7771,546.5552 544.1429,556.004 560.5087,546.5552 576.8746,556.004"/>
    <line x1="562.8467" x2="562.8467" y1="564.103" y2="564.103"/>
    <line x1="551.1568" x2="551.1568" y1="570.8522" y2="570.8522"/>
    <line x1="541.8049" x2="541.8049" y1="573.5518" y2="573.5518"/>
    <line x1="538.298" x2="538.298" y1="571.5271" y2="571.5271"/>
    <line x1="525.4391" x2="525.4391" y1="566.8027" y2="559.7812"/>
    <line x1="527.7771" x2="511.4112" y1="558.4314" y2="567.8802"/>
    <polyline points="511.4112,566.2221 495.0454,575.6709 478.6796,566.2221 478.6796,546.1664"/>
    <line x1="477.5106" x2="477.5106" y1="545.4915" y2="552.6016"/>
    <polyline points="478.6796,553.2765 462.3137,562.7253 445.9479,553.2765 445.9479,552.281"/>
    <line x1="444.7789" x2="444.7789" y1="551.6061" y2="560.9134"/>
    <line x1="443.6099" x2="443.6099" y1="561.5883" y2="550.9312"/>
    <line x1="442.4409" x2="442.4409" y1="550.2562" y2="562.2633"/>
    <polyline points="441.9297,562.5584 429.5821,555.4294 414.6009,564.0788"/>
    <line x1="415.5542" x2="415.5542" y1="563.5284" y2="558.5956"/>
    <line x1="413.2162" x2="413.2162" y1="559.9455" y2="563.2794"/>
    <line x1="412.0472" x2="412.0472" y1="563.9543" y2="559.2705"/>
    <line x1="410.8783" x2="410.8783" y1="558.5956" y2="563.8788"/>
    <polyline points="411.5281,564.254 396.8504,555.7798 380.4846,565.2286 380.4846,566.3963 364.1187,575.8451 347.7529,566.3963"/>
    <line x1="348.9219" x2="348.9219" y1="567.0712" y2="575.5766"/>
    <line x1="350.0909" x2="350.0909" y1="576.2515" y2="567.7461"/>
    <line x1="351.2599" x2="351.2599" y1="568.4211" y2="576.9264"/>
    <line x1="352.4288" x2="352.4288" y1="577.6013" y2="569.096"/>
    <line x1="353.5978" x2="353.5978" y1="569.7709" y2="578.2762"/>
    <line x1="354.7668" x2="354.7668" y1="578.9511" y2="570.4458"/>
    <line x1="355.9358" x2="355.9358" y1="571.1207" y2="579.6261"/>
    <line x1="357.1048" x2="357.1048" y1="580.301" y2="571.7956"/>
    <line x1="358.2738" x2="358.2738" y1="572.4706" y2="580.9759"/>
    <line x1="359.4428" x2="359.4428" y1="581.6508" y2="573.1455"/>
    <line x1="360.6118" x2="360.6118" y1="573.8204" y2="582.3257"/>
    <line x1="361.7807" x2="361.7807" y1="583.0006" y2="574.4953"/>
    <line x1="366.4567" x2="366.4567" y1="574.4953" y2="583.0006"/>
    <line x1="368.7947" x2="368.7947" y1="581.6508" y2="573.1455"/>
    <line x1="371.1327" x2="371.1327" y1="571.7956" y2="580.301"/>
    <line x1="373.4706" x2="373.4706" y1="578.9511" y2="570.4458"/>
    <line x1="375.8086" x2="375.8086" y1="569.096" y2="577.6013"/>
    <line x1="378.1466" x2="378.1466" y1="576.2515" y2="567.7461"/>
    <line x1="379.3156" x2="379.3156" y1="565.7214" y2="565.0908"/>
    <line x1="378.1466" x2="378.1466" y1="565.0465" y2="564.4159"/>
    <line x1="376.9776" x2="376.9776" y1="564.3716" y2="563.7409"/>
    <line x1="375.8086" x2="375.8086" y1="563.6967" y2="563.066"/>
    <line x1="374.6396" x2="374.6396" y1="563.0217" y2="562.3911"/>
    <line x1="373.4706" x2="373.4706" y1="562.3468" y2="561.7162"/>
    <line x1="372.3016" x2="372.3016" y1="561.6719" y2="561.0413"/>
    <line x1="371.1327" x2="371.1327" y1="560.997" y2="560.3664"/>
    <line x1="369.9637" x2="369.9637" y1="560.3221" y2="559.6915"/>
    <line x1="368.7947" x2="368.7947" y1="559.6472" y2="559.0165"/>
    <line x1="367.6257" x2="367.6257" y1="558.9722" y2="558.3416"/>
    <line x1="366.4567" x2="366.4567" y1="558.2973" y2="557.6667"/>
    <line x1="365.2877" x2="365.2877" y1="557.6224" y2="556.9918"/>
    <polyline points="364.1187,556.9475 364.1187,547.2795 347.7529,537.8306 331.3871,547.2795 347.7529,556.7283 364.1187,547.2795"/>
    <line x1="361.7807" x2="361.7807" y1="548.6293" y2="558.2973"/>
    <line x1="359.4428" x2="359.4428" y1="559.6472" y2="549.9791"/>
    <line x1="357.1048" x2="357.1048" y1="551.329" y2="560.997"/>
    <line x1="354.7668" x2="354.7668" y1="562.3468" y2="552.6788"/>
    <line x1="352.4288" x2="352.4288" y1="554.0286" y2="563.6967"/>
    <line x1="350.0909" x2="350.0909" y1="565.0465" y2="555.3784"/>
    <polyline points="347.7529,556.7283 347.7529,559.3278 331.3871,568.7766 315.0212,559.3278"/>
    <line x1="316.1902" x2="316.1902" y1="560.0027" y2="567.9764"/>
    <line x1="317.3592" x2="317.3592" y1="568.6513" y2="560.6776"/>
    <line x1="318.5282" x2="318.5282" y1="561.3525" y2="569.3263"/>
    <line x1="319.6972" x2="319.6972" y1="570.0012" y2="562.0275"/>
    <line x1="320.8662" x2="320.8662" y1="562.7024" y2="570.6761"/>
    <line x1="322.0352" x2="322.0352" y1="571.351" y2="563.3773"/>
    <line x1="323.2041" x2="323.2041" y1="564.0522" y2="572.0259"/>
    <line x1="324.3731" x2="324.3731" y1="572.7008" y2="564.7271"/>
    <line x1="325.5421" x2="325.5421" y1="565.402" y2="573.3758"/>
    <line x1="326.7111" x2="326.7111" y1="574.0507" y2="566.077"/>
    <line x1="327.8801" x2="327.8801" y1="566.7519" y2="574.7256"/>
    <line x1="329.0491" x2="329.0491" y1="575.4005" y2="567.4268"/>
    <line x1="330.2181" x2="330.2181" y1="568.1017" y2="576.0754"/>
    <polyline points="331.3871,576.7503 315.0212,586.1992 298.6554,576.7503 298.6554,565.6366"/>
    <line x1="300.9934" x2="300.9934" y1="564.2868" y2="575.4005"/>
    <line x1="303.3313" x2="303.3313" y1="574.0507" y2="562.9369"/>
    <line x1="305.6693" x2="305.6693" y1="561.5871" y2="572.7008"/>
    <line x1="308.0073" x2="308.0073" y1="571.351" y2="560.2373"/>
    <line x1="310.3453" x2="310.3453" y1="558.8874" y2="570.0012"/>
    <line x1="312.6832" x2="312.6832" y1="568.6513" y2="557.5376"/>
    <line x1="317.3592" x2="317.3592" y1="557.978" y2="552.8153"/>
    <line x1="319.6972" x2="319.6972" y1="551.4655" y2="556.6281"/>
    <line x1="322.0352" x2="322.0352" y1="555.2783" y2="550.1156"/>
    <line x1="324.3731" x2="324.3731" y1="548.7658" y2="553.9285"/>
    <line x1="326.7111" x2="326.7111" y1="552.5786" y2="547.416"/>
    <line x1="329.0491" x2="329.0491" y1="546.0661" y2="551.2288"/>
    <polyline points="331.3871,549.879 331.3871,544.7163 315.0212,535.2675 282.2896,554.3259 265.9237,544.8771 265.9237,541.6881 282.2896,532.2392"/>
    <line x1="279.9516" x2="279.9516" y1="533.5891" y2="536.7781"/>
    <polyline points="282.2896,535.4283 282.2896,532.2392 265.9237,522.7904 249.5579,532.2392 249.5579,539.7832"/>
    <line x1="250.7269" x2="250.7269" y1="540.4581" y2="532.9142"/>
    <line x1="251.8959" x2="251.8959" y1="533.5891" y2="541.133"/>
    <line x1="253.0648" x2="253.0648" y1="541.8079" y2="534.264"/>
    <line x1="254.2338" x2="254.2338" y1="534.9389" y2="542.4828"/>
    <line x1="255.4028" x2="255.4028" y1="543.1578" y2="535.6138"/>
    <line x1="256.5718" x2="256.5718" y1="536.2887" y2="543.8327"/>
    <line x1="257.7408" x2="257.7408" y1="544.5076" y2="536.9637"/>
    <line x1="258.9098" x2="258.9098" y1="537.6386" y2="545.1825"/>
    <line x1="260.0788" x2="260.0788" y1="545.8574" y2="538.3135"/>
    <line x1="261.2478" x2="261.2478" y1="538.9884" y2="546.5323"/>
    <line x1="262.4168" x2="262.4168" y1="547.2072" y2="539.6633"/>
    <line x1="263.5857" x2="263.5857" y1="540.3382" y2="547.8822"/>
    <line x1="264.7547" x2="264.7547" y1="548.5571" y2="541.0132"/>
    <line x1="265.9237" x2="249.5579" y1="541.6881" y2="532.2392"/>
    <line x1="249.5579" x2="233.192" y1="537.1064" y2="546.5552"/>
    <polyline points="235.5102,547.8936 233.192,546.5552 216.8262,556.004"/>
    <line x1="208.6433" x2="208.6433" y1="570.1772" y2="587.1851"/>
    <line x1="209.8123" x2="209.8123" y1="587.86" y2="570.8522"/>
    <line x1="210.9813" x2="210.9813" y1="571.5271" y2="588.5349"/>
    <line x1="212.1503" x2="212.1503" y1="589.2099" y2="572.202"/>
    <line x1="213.3193" x2="213.3193" y1="572.8769" y2="589.8848"/>
    <line x1="214.4882" x2="214.4882" y1="590.5597" y2="573.5518"/>
    <line x1="215.6572" x2="215.6572" y1="574.2267" y2="591.2346"/>
    <polyline points="216.8262,591.9095 200.4604,582.4607 200.4604,565.4528 216.8262,556.004 233.192,565.4528 233.192,549.232 249.5579,539.7832 265.9237,549.232 265.9237,554.2432"/>
    <line x1="267.0927" x2="267.0927" y1="554.9181" y2="545.552"/>
    <line x1="268.2617" x2="268.2617" y1="546.2269" y2="555.5931"/>
    <line x1="269.4307" x2="269.4307" y1="556.268" y2="546.9018"/>
    <line x1="270.5997" x2="270.5997" y1="547.5767" y2="556.9429"/>
    <line x1="271.7687" x2="271.7687" y1="557.6178" y2="548.2517"/>
    <line x1="272.9376" x2="272.9376" y1="548.9266" y2="558.2927"/>
    <line x1="274.1066" x2="274.1066" y1="558.9676" y2="549.6015"/>
    <line x1="275.2756" x2="275.2756" y1="550.2764" y2="559.6425"/>
    <line x1="276.4446" x2="276.4446" y1="560.3175" y2="550.9513"/>
    <line x1="277.6136" x2="277.6136" y1="551.6262" y2="560.9924"/>
    <line x1="278.7826" x2="278.7826" y1="561.6673" y2="552.3011"/>
    <line x1="279.9516" x2="279.9516" y1="552.9761" y2="562.3422"/>
    <line x1="281.1206" x2="281.1206" y1="563.0171" y2="553.651"/>
    <polyline points="282.2896,554.3259 282.2896,556.1878 298.6554,565.6366 315.0212,556.1878 315.0212,554.1651 331.3871,544.7163"/>
    <line x1="332.556" x2="332.556" y1="547.9544" y2="550.5539"/>
    <line x1="333.725" x2="333.725" y1="551.2288" y2="548.6293"/>
    <line x1="334.894" x2="334.894" y1="549.3042" y2="551.9037"/>
    <line x1="336.063" x2="336.063" y1="552.5786" y2="549.9791"/>
    <line x1="337.232" x2="337.232" y1="550.654" y2="553.2536"/>
    <line x1="338.401" x2="338.401" y1="553.9285" y2="551.329"/>
    <line x1="339.57" x2="339.57" y1="552.0039" y2="554.6034"/>
    <line x1="340.739" x2="340.739" y1="555.2783" y2="552.6788"/>
    <line x1="341.9079" x2="341.9079" y1="553.3537" y2="555.9532"/>
    <line x1="343.0769" x2="343.0769" y1="556.6281" y2="554.0286"/>
    <line x1="344.2459" x2="344.2459" y1="554.7035" y2="557.303"/>
    <line x1="345.4149" x2="345.4149" y1="557.978" y2="555.3784"/>
    <line x1="346.5839" x2="346.5839" y1="556.0534" y2="558.6529"/>
    <line x1="345.4149" x2="345.4149" y1="560.6776" y2="576.2515"/>
    <line x1="343.0769" x2="343.0769" y1="577.6013" y2="562.0275"/>
    <line x1="340.739" x2="340.739" y1="563.3773" y2="578.9511"/>
    <line x1="338.401" x2="338.401" y1="580.301" y2="564.7271"/>
    <line x1="336.063" x2="336.063" y1="566.077" y2="581.6508"/>
    <line x1="333.725" x2="333.725" y1="583.0006" y2="567.4268"/>
    <line x1="331.3871" x2="331.3871" y1="568.7766" y2="584.3505"/>
    <line x1="329.0491" x2="329.0491" y1="585.7003" y2="578.1002"/>
    <line x1="326.7111" x2="326.7111" y1="579.45" y2="587.0501"/>
    <line x1="324.3731" x2="324.3731" y1="588.4" y2="580.7998"/>
    <line x1="322.0352" x2="322.0352" y1="582.1497" y2="589.7498"/>
    <line x1="319.6972" x2="319.6972" y1="591.0996" y2="583.4995"/>
    <line x1="317.3592" x2="317.3592" y1="584.8493" y2="592.4495"/>
    <polyline points="315.0212,593.7993 331.3871,584.3505 347.7529,593.7993 364.1187,584.3505 380.4846,593.7993 396.8504,584.3505 413.2162,593.7993 413.2162,580.4393 429.5821,570.9904 445.9479,580.4393 445.9479,593.7993 462.3137,584.3505 478.6796,593.7993"/>
    <line x1="481.0175" x2="481.0175" y1="592.4495" y2="585.709"/>
    <line x1="483.3555" x2="483.3555" y1="584.3591" y2="591.0996"/>
    <line x1="485.6935" x2="485.6935" y1="589.7498" y2="583.0093"/>
    <line x1="488.0315" x2="488.0315" y1="581.6595" y2="588.4"/>
    <line x1="490.3694" x2="490.3694" y1="587.0501" y2="580.3096"/>
    <line x1="492.7074" x2="492.7074" y1="578.9598" y2="585.7003"/>
    <polyline points="495.0454,584.3505 511.4112,574.9016 527.7771,584.3505 544.1429,574.9016 560.5087,584.3505 560.5087,601.3583 544.1429,610.8072"/>
    <line x1="541.8049" x2="541.8049" y1="612.157" y2="595.1491"/>
    <line x1="539.467" x2="539.467" y1="596.4989" y2="613.5068"/>
    <line x1="537.129" x2="537.129" y1="614.8567" y2="597.8488"/>
    <line x1="534.791" x2="534.791" y1="599.1986" y2="616.2065"/>
    <line x1="532.453" x2="532.453" y1="617.5563" y2="600.5484"/>
    <line x1="530.115" x2="530.115" y1="601.8983" y2="618.9061"/>
    <polyline points="527.7771,620.256 544.1429,610.8072 544.1429,593.7993 527.7771,584.3505 511.4112,593.7993"/>
    <line x1="513.7492" x2="513.7492" y1="592.4495" y2="592.4495"/>
    <line x1="504.3973" x2="504.3973" y1="597.8488" y2="597.8488"/>
    <line x1="499.7214" x2="499.7214" y1="605.9478" y2="605.9478"/>
    <line x1="497.3834" x2="497.3834" y1="604.5979" y2="604.5979"/>
    <line x1="496.2144" x2="496.2144" y1="603.923" y2="603.923"/>
    <line x1="493.8764" x2="493.8764" y1="602.5732" y2="602.5732"/>
    <line x1="490.3694" x2="490.3694" y1="600.5484" y2="600.5484"/>
    <line x1="489.2005" x2="489.2005" y1="599.8735" y2="599.8735"/>
    <line x1="490.3694" x2="490.3694" y1="605.9478" y2="605.9478"/>
    <line x1="488.0315" x2="488.0315" y1="607.2976" y2="607.2976"/>
    <line x1="481.0175" x2="481.0175" y1="611.3471" y2="611.3471"/>
    <line x1="479.8486" x2="479.8486" y1="613.3718" y2="613.3718"/>
    <line x1="481.0175" x2="481.0175" y1="614.0468" y2="614.0468"/>
    <line x1="476.3416" x2="476.3416" y1="614.0468" y2="614.0468"/>
    <line x1="476.3416" x2="476.3416" y1="611.3471" y2="611.3471"/>
    <line x1="472.8346" x2="472.8346" y1="609.3223" y2="609.3223"/>
    <line x1="469.3277" x2="469.3277" y1="607.2976" y2="607.2976"/>
    <line x1="466.9897" x2="466.9897" y1="605.9478" y2="605.9478"/>
    <line x1="474.0036" x2="474.0036" y1="615.3966" y2="615.3966"/>
    <line x1="466.9897" x2="466.9897" y1="619.4461" y2="619.4461"/>
    <line x1="466.9897" x2="466.9897" y1="624.8454" y2="624.8454"/>
    <line x1="474.0036" x2="474.0036" y1="634.2942" y2="651.3021"/>
    <line x1="471.6656" x2="471.6656" y1="652.6519" y2="635.6441"/>
    <line x1="469.3277" x2="469.3277" y1="636.9939" y2="654.0018"/>
    <line x1="466.9897" x2="466.9897" y1="655.3516" y2="638.3437"/>
    <line x1="464.6517" x2="464.6517" y1="639.6936" y2="656.7014"/>
    <polyline points="462.3137,658.0513 478.6796,648.6024 478.6796,631.5946 462.3137,622.1457 445.9479,631.5946 429.5821,622.1457 413.2162,631.5946 396.8504,622.1457 380.4846,631.5946 364.1187,622.1457 347.7529,631.5946 331.3871,622.1457 315.0212,631.5946 315.0212,648.6024 331.3871,658.0513"/>
    <line x1="330.2181" x2="330.2181" y1="657.3763" y2="640.3685"/>
    <line x1="329.0491" x2="329.0491" y1="639.6936" y2="656.7014"/>
    <line x1="327.8801" x2="327.8801" y1="656.0265" y2="639.0186"/>
    <line x1="326.7111" x2="326.7111" y1="638.3437" y2="655.3516"/>
    <line x1="325.5421" x2="325.5421" y1="654.6767" y2="637.6688"/>
    <line x1="324.3731" x2="324.3731" y1="636.9939" y2="654.0018"/>
    <line x1="323.2041" x2="323.2041" y1="653.3268" y2="636.319"/>
    <line x1="322.0352" x2="322.0352" y1="635.6441" y2="652.6519"/>
    <line x1="320.8662" x2="320.8662" y1="651.977" y2="634.9691"/>
    <line x1="319.6972" x2="319.6972" y1="634.2942" y2="651.3021"/>
    <line x1="318.5282" x2="318.5282" y1="650.6272" y2="633.6193"/>
    <line x1="317.3592" x2="317.3592" y1="632.9444" y2="649.9523"/>
    <line x1="316.1902" x2="316.1902" y1="649.2774" y2="632.2695"/>
    <line x1="313.8522" x2="313.8522" y1="630.9196" y2="647.9275"/>
    <line x1="312.6832" x2="312.6832" y1="647.2526" y2="630.2447"/>
    <line x1="311.5143" x2="311.5143" y1="629.5698" y2="646.5777"/>
    <line x1="310.3453" x2="310.3453" y1="645.9028" y2="628.8949"/>
    <line x1="309.1763" x2="309.1763" y1="628.22" y2="645.2279"/>
    <line x1="308.0073" x2="308.0073" y1="644.5529" y2="627.5451"/>
    <line x1="306.8383" x2="306.8383" y1="626.8702" y2="643.878"/>
    <line x1="305.6693" x2="305.6693" y1="643.2031" y2="626.1952"/>
    <line x1="304.5003" x2="304.5003" y1="625.5203" y2="642.5282"/>
    <line x1="303.3313" x2="303.3313" y1="641.8533" y2="624.8454"/>
    <line x1="302.1624" x2="302.1624" y1="624.1705" y2="641.1784"/>
    <line x1="300.9934" x2="300.9934" y1="640.5034" y2="623.4956"/>
    <line x1="299.8244" x2="299.8244" y1="622.8207" y2="639.8285"/>
    <polyline points="298.6554,639.1536 282.2896,629.7048 282.2896,612.6969 298.6554,603.2481 315.0212,612.6969 331.3871,603.2481 347.7529,612.6969 364.1187,603.2481 380.4846,612.6969 396.8504,603.2481 413.2162,612.6969 429.5821,603.2481 445.9479,612.6969 462.3137,603.2481 478.6796,612.6969 495.0454,603.2481 511.4112,612.6969 511.4112,629.7048 495.0454,639.1536"/>
    <line x1="492.7074" x2="492.7074" y1="640.5034" y2="623.4956"/>
    <line x1="493.8764" x2="493.8764" y1="621.4708" y2="621.4708"/>
    <line x1="497.3834" x2="497.3834" y1="620.7959" y2="637.8038"/>
    <line x1="499.7214" x2="499.7214" y1="636.454" y2="619.4461"/>
    <line x1="502.0593" x2="502.0593" y1="618.0963" y2="635.1041"/>
    <line x1="504.3973" x2="504.3973" y1="633.7543" y2="616.7464"/>
    <line x1="506.7353" x2="506.7353" y1="615.3966" y2="632.4045"/>
    <line x1="509.0733" x2="509.0733" y1="631.0546" y2="614.0468"/>
    <line x1="509.0733" x2="509.0733" y1="611.3471" y2="611.3471"/>
    <line x1="505.5663" x2="505.5663" y1="609.3223" y2="609.3223"/>
    <line x1="502.0593" x2="502.0593" y1="607.2976" y2="607.2976"/>
    <line x1="513.7492" x2="513.7492" y1="611.3471" y2="628.355"/>
    <polyline points="511.4112,629.7048 527.7771,620.256 527.7771,603.2481 511.4112,593.7993 495.0454,603.2481 478.6796,593.7993 462.3137,603.2481 445.9479,593.7993 429.5821,603.2481"/>
    <line x1="428.4131" x2="428.4131" y1="602.5732" y2="589.2132"/>
    <line x1="427.2441" x2="427.2441" y1="588.5382" y2="601.8983"/>
    <line x1="426.0751" x2="426.0751" y1="601.2234" y2="587.8633"/>
    <line x1="424.9061" x2="424.9061" y1="587.1884" y2="600.5484"/>
    <line x1="423.7371" x2="423.7371" y1="599.8735" y2="586.5135"/>
    <line x1="422.5681" x2="422.5681" y1="585.8386" y2="599.1986"/>
    <line x1="421.3991" x2="421.3991" y1="598.5237" y2="585.1637"/>
    <line x1="420.2302" x2="420.2302" y1="584.4888" y2="597.8488"/>
    <line x1="419.0612" x2="419.0612" y1="597.1739" y2="583.8138"/>
    <line x1="417.8922" x2="417.8922" y1="583.1389" y2="596.4989"/>
    <line x1="416.7232" x2="416.7232" y1="595.824" y2="582.464"/>
    <line x1="415.5542" x2="415.5542" y1="581.7891" y2="595.1491"/>
    <line x1="414.3852" x2="414.3852" y1="594.4742" y2="581.1142"/>
    <polyline points="413.2162,580.4393 429.5821,589.8881 445.9479,580.4393 445.9479,579.1361 462.3137,569.6873"/>
    <line x1="459.9758" x2="459.9758" y1="571.0372" y2="585.7003"/>
    <line x1="457.6378" x2="457.6378" y1="587.0501" y2="572.387"/>
    <line x1="455.2998" x2="455.2998" y1="573.7368" y2="588.4"/>
    <line x1="452.9618" x2="452.9618" y1="589.7498" y2="575.0866"/>
    <line x1="450.6238" x2="450.6238" y1="576.4365" y2="591.0996"/>
    <line x1="448.2859" x2="448.2859" y1="592.4495" y2="577.7863"/>
    <line x1="445.9479" x2="429.5821" y1="579.1361" y2="569.6873"/>
    <line x1="430.7511" x2="430.7511" y1="570.3622" y2="571.6654"/>
    <line x1="431.92" x2="431.92" y1="571.0372" y2="572.3403"/>
    <line x1="433.089" x2="433.089" y1="571.7121" y2="573.0152"/>
    <line x1="434.258" x2="434.258" y1="572.387" y2="573.6901"/>
    <line x1="435.427" x2="435.427" y1="573.0619" y2="574.365"/>
    <line x1="436.596" x2="436.596" y1="573.7368" y2="575.0399"/>
    <line x1="437.765" x2="437.765" y1="574.4117" y2="575.7149"/>
    <line x1="438.934" x2="438.934" y1="575.0866" y2="576.3898"/>
    <line x1="440.103" x2="440.103" y1="575.7616" y2="577.0647"/>
    <line x1="441.2719" x2="441.2719" y1="576.4365" y2="577.7396"/>
    <line x1="442.4409" x2="442.4409" y1="577.1114" y2="578.4145"/>
    <line x1="443.6099" x2="443.6099" y1="577.7863" y2="579.0894"/>
    <line x1="444.7789" x2="444.7789" y1="578.4612" y2="579.7643"/>
    <line x1="443.6099" x2="443.6099" y1="581.7891" y2="595.1491"/>
    <line x1="441.2719" x2="441.2719" y1="596.4989" y2="583.1389"/>
    <line x1="438.934" x2="438.934" y1="584.4888" y2="597.8488"/>
    <line x1="436.596" x2="436.596" y1="599.1986" y2="585.8386"/>
    <line x1="434.258" x2="434.258" y1="587.1884" y2="600.5484"/>
    <line x1="431.92" x2="431.92" y1="601.8983" y2="588.5382"/>
    <polyline points="429.5821,589.8881 429.5821,603.2481 413.2162,593.7993 396.8504,603.2481 380.4846,593.7993 364.1187,603.2481 347.7529,593.7993 331.3871,603.2481 315.0212,593.7993 298.6554,603.2481 282.2896,593.7993 265.9237,603.2481 265.9237,620.256 282.2896,629.7048"/>
    <line x1="283.4585" x2="283.4585" y1="630.3797" y2="613.3718"/>
    <line x1="284.6275" x2="284.6275" y1="614.0468" y2="631.0546"/>
    <line x1="285.7965" x2="285.7965" y1="631.7295" y2="614.7217"/>
    <line x1="286.9655" x2="286.9655" y1="615.3966" y2="632.4045"/>
    <line x1="288.1345" x2="288.1345" y1="633.0794" y2="616.0715"/>
    <line x1="289.3035" x2="289.3035" y1="616.7464" y2="633.7543"/>
    <line x1="290.4725" x2="290.4725" y1="634.4292" y2="617.4213"/>
    <line x1="291.6415" x2="291.6415" y1="618.0963" y2="635.1041"/>
    <line x1="292.8104" x2="292.8104" y1="635.779" y2="618.7712"/>
    <line x1="293.9794" x2="293.9794" y1="619.4461" y2="636.454"/>
    <line x1="295.1484" x2="295.1484" y1="637.1289" y2="620.121"/>
    <line x1="296.3174" x2="296.3174" y1="620.7959" y2="637.8038"/>
    <line x1="297.4864" x2="297.4864" y1="638.4787" y2="621.4708"/>
    <line x1="303.3313" x2="303.3313" y1="619.4461" y2="619.4461"/>
    <line x1="305.6693" x2="305.6693" y1="618.0963" y2="618.0963"/>
    <line x1="312.6832" x2="312.6832" y1="614.0468" y2="614.0468"/>
    <line x1="313.8522" x2="313.8522" y1="612.022" y2="612.022"/>
    <line x1="312.6832" x2="312.6832" y1="611.3471" y2="611.3471"/>
    <line x1="309.1763" x2="309.1763" y1="609.3223" y2="609.3223"/>
    <line x1="305.6693" x2="305.6693" y1="607.2976" y2="607.2976"/>
    <line x1="303.3313" x2="303.3313" y1="605.9478" y2="605.9478"/>
    <line x1="300.9934" x2="300.9934" y1="604.5979" y2="604.5979"/>
    <line x1="303.3313" x2="303.3313" y1="600.5484" y2="600.5484"/>
    <line x1="296.3174" x2="296.3174" y1="604.5979" y2="604.5979"/>
    <line x1="293.9794" x2="293.9794" y1="605.9478" y2="605.9478"/>
    <line x1="291.6415" x2="291.6415" y1="607.2976" y2="607.2976"/>
    <line x1="292.8104" x2="292.8104" y1="599.8735" y2="599.8735"/>
    <line x1="289.3035" x2="289.3035" y1="597.8488" y2="597.8488"/>
    <line x1="279.9516" x2="279.9516" y1="592.4495" y2="592.4495"/>
    <line x1="278.7826" x2="278.7826" y1="591.7745" y2="591.7745"/>
    <line x1="276.4446" x2="276.4446" y1="590.4247" y2="590.4247"/>
    <line x1="270.5997" x2="270.5997" y1="581.6508" y2="570.4412"/>
    <line x1="268.2617" x2="268.2617" y1="571.791" y2="583.0006"/>
    <line x1="265.9237" x2="265.9237" y1="584.3505" y2="573.1409"/>
    <line x1="264.7547" x2="264.7547" y1="572.4659" y2="583.6756"/>
    <line x1="263.5857" x2="263.5857" y1="583.0006" y2="571.791"/>
    <line x1="262.4168" x2="262.4168" y1="571.1161" y2="582.3257"/>
    <line x1="261.2478" x2="261.2478" y1="581.6508" y2="570.4412"/>
    <line x1="260.0788" x2="260.0788" y1="569.7663" y2="580.9759"/>
    <line x1="258.9098" x2="258.9098" y1="580.301" y2="569.0914"/>
    <line x1="257.7408" x2="257.7408" y1="568.4164" y2="579.6261"/>
    <line x1="256.5718" x2="256.5718" y1="578.9511" y2="567.7415"/>
    <line x1="255.4028" x2="255.4028" y1="567.0666" y2="578.2762"/>
    <line x1="254.2338" x2="254.2338" y1="577.6013" y2="566.3917"/>
    <line x1="253.0648" x2="253.0648" y1="565.7168" y2="576.9264"/>
    <line x1="251.8959" x2="251.8959" y1="576.2515" y2="565.0419"/>
    <line x1="250.7269" x2="250.7269" y1="564.367" y2="575.5766"/>
    <line x1="240.206" x2="240.206" y1="580.301" y2="580.301"/>
    <line x1="236.699" x2="236.699" y1="586.3752" y2="603.3831"/>
    <line x1="237.868" x2="237.868" y1="604.058" y2="587.0501"/>
    <line x1="239.037" x2="239.037" y1="587.725" y2="604.7329"/>
    <line x1="240.206" x2="240.206" y1="605.4078" y2="588.4"/>
    <line x1="241.375" x2="241.375" y1="589.0749" y2="606.0828"/>
    <line x1="242.544" x2="242.544" y1="606.7577" y2="589.7498"/>
    <line x1="243.7129" x2="243.7129" y1="590.4247" y2="607.4326"/>
    <line x1="244.8819" x2="244.8819" y1="608.1075" y2="591.0996"/>
    <line x1="246.0509" x2="246.0509" y1="591.7745" y2="608.7824"/>
    <line x1="247.2199" x2="247.2199" y1="609.4573" y2="592.4495"/>
    <line x1="235.53" x2="235.53" y1="585.7003" y2="602.7082"/>
    <line x1="234.361" x2="234.361" y1="602.0333" y2="585.0254"/>
    <line x1="232.0231" x2="232.0231" y1="583.6756" y2="600.6834"/>
    <polyline points="233.192,601.3583 216.8262,591.9095 216.8262,574.9016 233.192,565.4528 249.5579,574.9016 249.5579,563.692 265.9237,554.2432 282.2896,563.692 282.2896,574.9016"/>
    <line x1="279.9516" x2="279.9516" y1="576.2515" y2="565.0419"/>
    <line x1="277.6136" x2="277.6136" y1="566.3917" y2="577.6013"/>
    <line x1="275.2756" x2="275.2756" y1="578.9511" y2="567.7415"/>
    <line x1="272.9376" x2="272.9376" y1="569.0914" y2="580.301"/>
    <line x1="267.0927" x2="267.0927" y1="603.923" y2="620.9309"/>
    <line x1="268.2617" x2="268.2617" y1="621.6058" y2="604.5979"/>
    <line x1="269.4307" x2="269.4307" y1="605.2729" y2="622.2807"/>
    <line x1="270.5997" x2="270.5997" y1="622.9556" y2="605.9478"/>
    <line x1="271.7687" x2="271.7687" y1="606.6227" y2="623.6306"/>
    <line x1="272.9376" x2="272.9376" y1="624.3055" y2="607.2976"/>
    <line x1="274.1066" x2="274.1066" y1="607.9725" y2="624.9804"/>
    <line x1="275.2756" x2="275.2756" y1="625.6553" y2="608.6474"/>
    <line x1="276.4446" x2="276.4446" y1="609.3223" y2="626.3302"/>
    <line x1="277.6136" x2="277.6136" y1="627.0051" y2="609.9973"/>
    <line x1="278.7826" x2="278.7826" y1="610.6722" y2="627.6801"/>
    <line x1="279.9516" x2="279.9516" y1="628.355" y2="611.3471"/>
    <line x1="281.1206" x2="281.1206" y1="612.022" y2="629.0299"/>
    <line x1="284.6275" x2="284.6275" y1="611.3471" y2="611.3471"/>
    <line x1="316.1902" x2="316.1902" y1="613.3718" y2="613.3718"/>
    <line x1="317.3592" x2="317.3592" y1="614.0468" y2="614.0468"/>
    <line x1="318.5282" x2="318.5282" y1="614.7217" y2="614.7217"/>
    <line x1="319.6972" x2="319.6972" y1="615.3966" y2="615.3966"/>
    <line x1="323.2041" x2="323.2041" y1="617.4213" y2="617.4213"/>
    <line x1="326.7111" x2="326.7111" y1="619.4461" y2="619.4461"/>
    <line x1="326.7111" x2="326.7111" y1="624.8454" y2="624.8454"/>
    <line x1="317.3592" x2="317.3592" y1="611.3471" y2="611.3471"/>
    <line x1="324.3731" x2="324.3731" y1="607.2976" y2="607.2976"/>
    <line x1="326.7111" x2="326.7111" y1="605.9478" y2="605.9478"/>
    <line x1="325.5421" x2="325.5421" y1="599.8735" y2="599.8735"/>
    <line x1="318.5282" x2="318.5282" y1="595.824" y2="595.824"/>
    <line x1="340.739" x2="340.739" y1="597.8488" y2="597.8488"/>
    <line x1="338.401" x2="338.401" y1="607.2976" y2="607.2976"/>
    <line x1="341.9079" x2="341.9079" y1="609.3223" y2="609.3223"/>
    <line x1="345.4149" x2="345.4149" y1="614.0468" y2="614.0468"/>
    <line x1="350.0909" x2="350.0909" y1="611.3471" y2="611.3471"/>
    <line x1="352.4288" x2="352.4288" y1="615.3966" y2="615.3966"/>
    <line x1="357.1048" x2="357.1048" y1="607.2976" y2="607.2976"/>
    <line x1="361.7807" x2="361.7807" y1="601.8983" y2="601.8983"/>
    <line x1="365.2877" x2="365.2877" y1="603.923" y2="603.923"/>
    <line x1="368.7947" x2="368.7947" y1="605.9478" y2="605.9478"/>
    <line x1="371.1327" x2="371.1327" y1="607.2976" y2="607.2976"/>
    <line x1="372.3016" x2="372.3016" y1="607.9725" y2="607.9725"/>
    <line x1="374.6396" x2="374.6396" y1="609.3223" y2="609.3223"/>
    <line x1="375.8086" x2="375.8086" y1="609.9973" y2="609.9973"/>
    <line x1="378.1466" x2="378.1466" y1="611.3471" y2="611.3471"/>
    <line x1="385.1605" x2="385.1605" y1="615.3966" y2="615.3966"/>
    <line x1="389.8365" x2="389.8365" y1="607.2976" y2="607.2976"/>
    <line x1="392.1744" x2="392.1744" y1="605.9478" y2="605.9478"/>
    <line x1="394.5124" x2="394.5124" y1="604.5979" y2="604.5979"/>
    <line x1="394.5124" x2="394.5124" y1="601.8983" y2="601.8983"/>
    <line x1="391.0055" x2="391.0055" y1="599.8735" y2="599.8735"/>
    <line x1="399.1884" x2="399.1884" y1="601.8983" y2="601.8983"/>
    <line x1="401.5263" x2="401.5263" y1="605.9478" y2="605.9478"/>
    <line x1="403.8643" x2="403.8643" y1="607.2976" y2="607.2976"/>
    <line x1="407.3713" x2="407.3713" y1="609.3223" y2="609.3223"/>
    <line x1="408.5403" x2="408.5403" y1="615.3966" y2="615.3966"/>
    <line x1="415.5542" x2="415.5542" y1="611.3471" y2="611.3471"/>
    <line x1="417.8922" x2="417.8922" y1="609.9973" y2="609.9973"/>
    <line x1="422.5681" x2="422.5681" y1="607.2976" y2="607.2976"/>
    <line x1="424.9061" x2="424.9061" y1="605.9478" y2="605.9478"/>
    <line x1="436.596" x2="436.596" y1="607.2976" y2="607.2976"/>
    <line x1="437.765" x2="437.765" y1="607.9725" y2="607.9725"/>
    <line x1="440.103" x2="440.103" y1="609.3223" y2="609.3223"/>
    <line x1="441.2719" x2="441.2719" y1="615.3966" y2="615.3966"/>
    <line x1="448.2859" x2="448.2859" y1="614.0468" y2="614.0468"/>
    <line x1="454.1308" x2="454.1308" y1="617.4213" y2="617.4213"/>
    <line x1="456.4688" x2="456.4688" y1="618.7712" y2="618.7712"/>
    <line x1="455.2998" x2="455.2998" y1="607.2976" y2="607.2976"/>
    <line x1="456.4688" x2="456.4688" y1="599.8735" y2="599.8735"/>
    <line x1="452.9618" x2="452.9618" y1="597.8488" y2="597.8488"/>
    <line x1="437.765" x2="437.765" y1="626.8702" y2="626.8702"/>
    <line x1="448.2859" x2="448.2859" y1="632.9444" y2="632.9444"/>
    <line x1="455.2998" x2="455.2998" y1="645.0929" y2="662.1007"/>
    <line x1="452.9618" x2="452.9618" y1="663.4506" y2="646.4427"/>
    <line x1="450.6238" x2="450.6238" y1="647.7925" y2="664.8004"/>
    <line x1="448.2859" x2="448.2859" y1="666.1502" y2="649.1424"/>
    <line x1="443.6099" x2="443.6099" y1="649.1424" y2="649.1424"/>
    <line x1="443.6099" x2="443.6099" y1="651.842" y2="668.8499"/>
    <polyline points="445.9479,667.5001 462.3137,658.0513 462.3137,641.0434 445.9479,631.5946 429.5821,641.0434 413.2162,631.5946 396.8504,641.0434 380.4846,631.5946 364.1187,641.0434 347.7529,631.5946 331.3871,641.0434 331.3871,658.0513 347.7529,667.5001"/>
    <line x1="346.5839" x2="346.5839" y1="666.8252" y2="649.8173"/>
    <line x1="345.4149" x2="345.4149" y1="649.1424" y2="666.1502"/>
    <line x1="344.2459" x2="344.2459" y1="665.4753" y2="648.4675"/>
    <line x1="343.0769" x2="343.0769" y1="647.7925" y2="664.8004"/>
    <line x1="341.9079" x2="341.9079" y1="664.1255" y2="647.1176"/>
    <line x1="340.739" x2="340.739" y1="646.4427" y2="663.4506"/>
    <line x1="339.57" x2="339.57" y1="662.7757" y2="645.7678"/>
    <line x1="338.401" x2="338.401" y1="645.0929" y2="662.1007"/>
    <line x1="337.232" x2="337.232" y1="661.4258" y2="644.418"/>
    <line x1="336.063" x2="336.063" y1="643.743" y2="660.7509"/>
    <line x1="334.894" x2="334.894" y1="660.076" y2="643.0681"/>
    <line x1="333.725" x2="333.725" y1="642.3932" y2="659.4011"/>
    <line x1="332.556" x2="332.556" y1="658.7262" y2="641.7183"/>
    <line x1="345.4149" x2="345.4149" y1="632.9444" y2="632.9444"/>
    <line x1="353.5978" x2="353.5978" y1="634.9691" y2="634.9691"/>
    <line x1="350.0909" x2="350.0909" y1="649.1424" y2="649.1424"/>
    <line x1="348.9219" x2="348.9219" y1="651.1671" y2="668.175"/>
    <line x1="350.0909" x2="350.0909" y1="668.8499" y2="651.842"/>
    <line x1="351.2599" x2="351.2599" y1="652.5169" y2="669.5248"/>
    <line x1="352.4288" x2="352.4288" y1="670.1997" y2="653.1919"/>
    <line x1="353.5978" x2="353.5978" y1="653.8668" y2="670.8747"/>
    <line x1="354.7668" x2="354.7668" y1="671.5496" y2="654.5417"/>
    <line x1="355.9358" x2="355.9358" y1="655.2166" y2="672.2245"/>
    <line x1="357.1048" x2="357.1048" y1="672.8994" y2="655.8915"/>
    <line x1="358.2738" x2="358.2738" y1="656.5664" y2="673.5743"/>
    <line x1="359.4428" x2="359.4428" y1="674.2492" y2="657.2414"/>
    <line x1="360.6118" x2="360.6118" y1="657.9163" y2="674.9241"/>
    <line x1="361.7807" x2="361.7807" y1="675.5991" y2="658.5912"/>
    <line x1="362.9497" x2="362.9497" y1="659.2661" y2="676.274"/>
    <polyline points="364.1187,676.9489 347.7529,667.5001 347.7529,650.4922 364.1187,641.0434 380.4846,650.4922 396.8504,641.0434 413.2162,650.4922 429.5821,641.0434 445.9479,650.4922 445.9479,667.5001 429.5821,676.9489"/>
    <line x1="431.92" x2="431.92" y1="675.5991" y2="658.5912"/>
    <line x1="434.258" x2="434.258" y1="657.2414" y2="674.2492"/>
    <line x1="436.596" x2="436.596" y1="672.8994" y2="655.8915"/>
    <line x1="438.934" x2="438.934" y1="654.5417" y2="671.5496"/>
    <line x1="441.2719" x2="441.2719" y1="670.1997" y2="653.1919"/>
    <line x1="427.2441" x2="427.2441" y1="661.2909" y2="678.2987"/>
    <line x1="424.9061" x2="424.9061" y1="679.6486" y2="662.6407"/>
    <line x1="422.5681" x2="422.5681" y1="663.9905" y2="680.9984"/>
    <line x1="420.2302" x2="420.2302" y1="682.3482" y2="665.3403"/>
    <line x1="417.8922" x2="417.8922" y1="666.6902" y2="683.698"/>
    <line x1="415.5542" x2="415.5542" y1="685.0479" y2="668.04"/>
    <line x1="410.8783" x2="410.8783" y1="670.7397" y2="687.7475"/>
    <line x1="408.5403" x2="408.5403" y1="689.0974" y2="672.0895"/>
    <line x1="406.2023" x2="406.2023" y1="673.4393" y2="690.4472"/>
    <line x1="403.8643" x2="403.8643" y1="691.797" y2="674.7892"/>
    <line x1="401.5263" x2="401.5263" y1="676.139" y2="693.1469"/>
    <line x1="399.1884" x2="399.1884" y1="694.4967" y2="677.4888"/>
    <polyline points="396.8504,678.8387 396.8504,695.8465 380.4846,686.3977 380.4846,669.3898 396.8504,659.941 413.2162,669.3898 413.2162,686.3977 396.8504,695.8465"/>
    <line x1="395.6814" x2="395.6814" y1="695.1716" y2="678.1637"/>
    <line x1="394.5124" x2="394.5124" y1="677.4888" y2="694.4967"/>
    <line x1="393.3434" x2="393.3434" y1="693.8218" y2="676.8139"/>
    <line x1="392.1744" x2="392.1744" y1="676.139" y2="693.1469"/>
    <line x1="391.0055" x2="391.0055" y1="692.472" y2="675.4641"/>
    <line x1="389.8365" x2="389.8365" y1="674.7892" y2="691.797"/>
    <line x1="388.6675" x2="388.6675" y1="691.1221" y2="674.1142"/>
    <line x1="387.4985" x2="387.4985" y1="673.4393" y2="690.4472"/>
    <line x1="386.3295" x2="386.3295" y1="689.7723" y2="672.7644"/>
    <line x1="385.1605" x2="385.1605" y1="672.0895" y2="689.0974"/>
    <line x1="383.9915" x2="383.9915" y1="688.4225" y2="671.4146"/>
    <line x1="382.8225" x2="382.8225" y1="670.7397" y2="687.7475"/>
    <line x1="381.6535" x2="381.6535" y1="687.0726" y2="670.0648"/>
    <line x1="379.3156" x2="379.3156" y1="668.7149" y2="685.7228"/>
    <polyline points="380.4846,686.3977 364.1187,676.9489 364.1187,659.941 380.4846,650.4922 396.8504,659.941 413.2162,650.4922 429.5821,659.941 429.5821,676.9489 413.2162,686.3977"/>
    <line x1="408.5403" x2="408.5403" y1="666.6902" y2="666.6902"/>
    <line x1="406.2023" x2="406.2023" y1="665.3403" y2="665.3403"/>
    <line x1="401.5263" x2="401.5263" y1="657.2414" y2="657.2414"/>
    <line x1="398.0194" x2="398.0194" y1="660.6159" y2="660.6159"/>
    <line x1="393.3434" x2="393.3434" y1="657.9163" y2="657.9163"/>
    <line x1="392.1744" x2="392.1744" y1="657.2414" y2="657.2414"/>
    <line x1="387.4985" x2="387.4985" y1="654.5417" y2="654.5417"/>
    <line x1="387.4985" x2="387.4985" y1="665.3403" y2="665.3403"/>
    <line x1="385.1605" x2="385.1605" y1="666.6902" y2="666.6902"/>
    <line x1="378.1466" x2="378.1466" y1="668.04" y2="685.0479"/>
    <line x1="376.9776" x2="376.9776" y1="684.373" y2="667.3651"/>
    <line x1="375.8086" x2="375.8086" y1="666.6902" y2="683.698"/>
    <line x1="374.6396" x2="374.6396" y1="683.0231" y2="666.0153"/>
    <line x1="373.4706" x2="373.4706" y1="665.3403" y2="682.3482"/>
    <line x1="372.3016" x2="372.3016" y1="681.6733" y2="664.6654"/>
    <line x1="371.1327" x2="371.1327" y1="663.9905" y2="680.9984"/>
    <line x1="369.9637" x2="369.9637" y1="680.3235" y2="663.3156"/>
    <line x1="368.7947" x2="368.7947" y1="662.6407" y2="679.6486"/>
    <line x1="367.6257" x2="367.6257" y1="678.9736" y2="661.9658"/>
    <line x1="366.4567" x2="366.4567" y1="661.2909" y2="678.2987"/>
    <line x1="365.2877" x2="365.2877" y1="677.6238" y2="660.6159"/>
    <line x1="368.7947" x2="368.7947" y1="657.2414" y2="657.2414"/>
    <line x1="368.7947" x2="368.7947" y1="624.8454" y2="624.8454"/>
    <line x1="362.9497" x2="362.9497" y1="621.4708" y2="621.4708"/>
    <line x1="398.0194" x2="398.0194" y1="585.0254" y2="573.4031"/>
    <line x1="399.1884" x2="399.1884" y1="574.078" y2="585.7003"/>
    <line x1="400.3574" x2="400.3574" y1="586.3752" y2="574.7529"/>
    <line x1="401.5263" x2="401.5263" y1="575.4278" y2="587.0501"/>
    <line x1="402.6953" x2="402.6953" y1="587.725" y2="576.1027"/>
    <line x1="403.8643" x2="403.8643" y1="576.7777" y2="588.4"/>
    <line x1="405.0333" x2="405.0333" y1="589.0749" y2="577.4526"/>
    <line x1="406.2023" x2="406.2023" y1="578.1275" y2="589.7498"/>
    <line x1="407.3713" x2="407.3713" y1="590.4247" y2="578.8024"/>
    <line x1="408.5403" x2="408.5403" y1="579.4773" y2="591.0996"/>
    <line x1="409.7093" x2="409.7093" y1="591.7745" y2="580.1522"/>
    <line x1="410.8783" x2="410.8783" y1="580.8272" y2="592.4495"/>
    <line x1="412.0472" x2="412.0472" y1="593.1244" y2="581.5021"/>
    <line x1="413.2162" x2="396.8504" y1="582.177" y2="572.7282"/>
    <line x1="403.8643" x2="403.8643" y1="559.8293" y2="554.5461"/>
    <line x1="402.6953" x2="402.6953" y1="553.8712" y2="559.1544"/>
    <line x1="401.5263" x2="401.5263" y1="558.4795" y2="553.1963"/>
    <line x1="400.3574" x2="400.3574" y1="552.5214" y2="557.8045"/>
    <line x1="399.1884" x2="399.1884" y1="557.1296" y2="551.8465"/>
    <line x1="398.0194" x2="398.0194" y1="551.1716" y2="556.4547"/>
    <polyline points="396.8504,555.7798 396.8504,550.4966 413.2162,541.0478 429.5821,550.4966 429.5821,555.4294"/>
    <line x1="430.7511" x2="430.7511" y1="556.1044" y2="543.5071"/>
    <line x1="431.92" x2="431.92" y1="544.182" y2="556.7793"/>
    <line x1="433.089" x2="433.089" y1="557.4542" y2="544.8569"/>
    <line x1="434.258" x2="434.258" y1="545.5318" y2="558.1291"/>
    <line x1="435.427" x2="435.427" y1="558.804" y2="546.2068"/>
    <line x1="436.596" x2="436.596" y1="546.8817" y2="559.4789"/>
    <line x1="437.765" x2="437.765" y1="560.1539" y2="547.5566"/>
    <line x1="438.934" x2="438.934" y1="548.2315" y2="560.8288"/>
    <line x1="440.103" x2="440.103" y1="561.5037" y2="548.9064"/>
    <line x1="441.2719" x2="441.2719" y1="549.5813" y2="562.1786"/>
    <line x1="448.2859" x2="448.2859" y1="551.9267" y2="550.9312"/>
    <line x1="450.6238" x2="450.6238" y1="550.5768" y2="549.5813"/>
    <line x1="452.9618" x2="452.9618" y1="549.227" y2="548.2315"/>
    <line x1="455.2998" x2="455.2998" y1="547.8772" y2="546.8817"/>
    <line x1="457.6378" x2="457.6378" y1="546.5273" y2="545.5318"/>
    <line x1="459.9758" x2="459.9758" y1="545.1775" y2="544.182"/>
    <line x1="461.1447" x2="461.1447" y1="542.1573" y2="529.495"/>
    <line x1="459.9758" x2="459.9758" y1="528.8201" y2="541.4823"/>
    <line x1="458.8068" x2="458.8068" y1="540.8074" y2="528.1451"/>
    <line x1="457.6378" x2="457.6378" y1="527.4702" y2="540.1325"/>
    <line x1="456.4688" x2="456.4688" y1="539.4576" y2="526.7953"/>
    <line x1="455.2998" x2="455.2998" y1="526.1204" y2="538.7827"/>
    <line x1="454.1308" x2="454.1308" y1="538.1078" y2="525.4455"/>
    <line x1="452.9618" x2="452.9618" y1="524.7706" y2="537.4329"/>
    <line x1="451.7928" x2="451.7928" y1="536.7579" y2="524.0957"/>
    <line x1="450.6238" x2="450.6238" y1="523.4207" y2="536.083"/>
    <line x1="449.4549" x2="449.4549" y1="535.4081" y2="522.7458"/>
    <line x1="448.2859" x2="448.2859" y1="522.0709" y2="534.7332"/>
    <line x1="447.1169" x2="447.1169" y1="534.0583" y2="521.396"/>
    <polyline points="445.9479,520.7211 462.3137,530.1699 478.6796,520.7211 478.6796,510.4067"/>
    <line x1="477.5106" x2="477.5106" y1="509.7317" y2="520.0462"/>
    <line x1="476.3416" x2="476.3416" y1="519.3712" y2="509.0568"/>
    <line x1="475.1726" x2="475.1726" y1="508.3819" y2="518.6963"/>
    <line x1="474.0036" x2="474.0036" y1="518.0214" y2="507.707"/>
    <line x1="472.8346" x2="472.8346" y1="507.0321" y2="517.3465"/>
    <line x1="471.6656" x2="471.6656" y1="516.6716" y2="506.3572"/>
    <line x1="470.4966" x2="470.4966" y1="505.6823" y2="515.9967"/>
    <line x1="469.3277" x2="469.3277" y1="515.3218" y2="505.0073"/>
    <line x1="468.1587" x2="468.1587" y1="504.3324" y2="514.6468"/>
    <line x1="466.9897" x2="466.9897" y1="513.9719" y2="503.6575"/>
    <line x1="465.8207" x2="465.8207" y1="502.9826" y2="513.297"/>
    <line x1="464.6517" x2="464.6517" y1="512.6221" y2="502.3077"/>
    <line x1="463.4827" x2="463.4827" y1="501.6328" y2="511.9472"/>
    <polyline points="462.3137,511.2723 462.3137,500.9578 478.6796,491.509 495.0454,500.9578 495.0454,515.364"/>
    <line x1="497.3834" x2="497.3834" y1="516.7138" y2="505.0218"/>
    <line x1="499.7214" x2="499.7214" y1="503.6719" y2="518.0636"/>
    <line x1="502.0593" x2="502.0593" y1="519.4135" y2="502.3221"/>
    <line x1="504.3973" x2="504.3973" y1="500.9723" y2="518.412"/>
    <polyline points="502.361,519.5876 511.4112,514.3625 527.7771,523.8113 527.7771,546.5552 544.1429,537.1064 560.5087,546.5552"/>
    <polyline points="544.1429,537.1064 544.1429,529.4684 527.7771,520.0195 524.4933,521.9154"/>
    <line x1="525.4391" x2="525.4391" y1="521.3694" y2="500.3849"/>
    <line x1="523.1011" x2="523.1011" y1="501.7348" y2="521.1116"/>
    <line x1="520.7631" x2="520.7631" y1="519.7618" y2="503.0846"/>
    <line x1="518.4252" x2="518.4252" y1="504.4344" y2="518.412"/>
    <line x1="516.0872" x2="516.0872" y1="517.0621" y2="505.7843"/>
    <line x1="513.7492" x2="513.7492" y1="507.1341" y2="515.7123"/>
    <polyline points="511.4112,514.3625 511.4112,496.9228 495.0454,487.474 483.3555,494.2087 483.3555,480.6664"/>
    <polyline points="483.5893,478.6417 481.9527,477.6968 481.9527,460.6889"/>
    <line x1="482.4203" x2="482.4203" y1="460.9589" y2="458.5292"/>
    <line x1="480.3161" x2="480.3161" y1="459.744" y2="474.8621"/>
    <line x1="481.4072" x2="481.2513" y1="475.4921" y2="455.4246"/>
    <line x1="480.0824" x2="480.0824" y1="452.3199" y2="459.609"/>
    <line x1="479.2251" x2="479.2251" y1="459.1141" y2="474.2322"/>
    <line x1="478.134" x2="478.134" y1="473.6023" y2="458.4842"/>
    <line x1="477.7444" x2="477.7444" y1="458.2592" y2="446.1107"/>
    <line x1="476.5754" x2="476.5754" y1="443.0061" y2="457.5843"/>
    <line x1="477.043" x2="477.043" y1="457.8543" y2="472.9724"/>
    <line x1="475.9519" x2="475.9519" y1="472.3424" y2="457.2243"/>
    <polyline points="475.4064,456.9094 467.2235,452.185 475.4064,439.9015 483.5893,461.6338 506.5015,448.4054 498.3186,426.6732 475.4064,439.9015 475.4064,456.9094 483.5893,461.6338 483.5893,478.6417 485.2259,477.6968 485.2259,460.6889"/>
    <line x1="485.9273" x2="485.9273" y1="460.284" y2="475.4021"/>
    <line x1="485.2259" x2="499.9552" y1="475.807" y2="467.3031"/>
    <line x1="500.7734" x2="500.7734" y1="467.7755" y2="451.7125"/>
    <polyline points="499.9552,452.185 499.9552,467.3031 501.5917,468.248"/>
    <line x1="502.0593" x2="502.0593" y1="469.8678" y2="491.5235"/>
    <line x1="499.7214" x2="499.7214" y1="490.1736" y2="471.2176"/>
    <line x1="497.3834" x2="497.3834" y1="472.5674" y2="488.8238"/>
    <polyline points="495.0454,487.474 495.0454,473.9172 491.7722,472.0275"/>
    <line x1="492.9412" x2="492.9412" y1="471.3526" y2="456.2345"/>
    <line x1="490.6032" x2="490.6032" y1="457.5843" y2="472.7024"/>
    <line x1="488.2653" x2="488.2653" y1="474.0522" y2="458.9341"/>
    <line x1="482.771" x2="482.771" y1="461.1613" y2="478.1692"/>
    <polyline points="481.9527,475.807 473.7698,471.0826 473.7698,455.9645"/>
    <line x1="474.2374" x2="474.2374" y1="456.2345" y2="441.6563"/>
    <line x1="473.0684" x2="473.0684" y1="443.4111" y2="455.5595"/>
    <polyline points="472.1332,455.0196 472.1332,472.0275 473.7698,471.0826"/>
    <line x1="474.8609" x2="474.8609" y1="471.7125" y2="456.5944"/>
    <line x1="471.8994" x2="471.8994" y1="454.8846" y2="445.1658"/>
    <line x1="470.7304" x2="470.7304" y1="446.9206" y2="454.2097"/>
    <polyline points="470.4966,454.0747 470.4966,471.0826 472.1332,472.0275"/>
    <line x1="471.3149" x2="471.3149" y1="471.555" y2="454.5472"/>
    <line x1="469.5615" x2="469.5615" y1="453.5348" y2="448.6754"/>
    <line x1="468.3925" x2="468.3925" y1="450.4302" y2="452.8599"/>
    <line x1="478.9134" x2="478.9134" y1="449.2153" y2="458.9341"/>
    <line x1="483.3555" x2="483.3555" y1="467.1681" y2="467.1681"/>
    <line x1="488.0315" x2="488.0315" y1="477.9667" y2="491.5235"/>
    <line x1="485.6935" x2="485.6935" y1="492.8733" y2="479.3166"/>
    <line x1="481.0175" x2="481.0175" y1="482.0162" y2="492.8589"/>
    <line x1="476.3416" x2="476.3416" y1="492.8589" y2="492.1664"/>
    <line x1="476.3416" x2="476.3416" y1="489.4667" y2="482.0162"/>
    <line x1="475.1726" x2="475.1726" y1="481.3413" y2="488.7918"/>
    <line x1="474.0036" x2="474.0036" y1="488.1169" y2="480.6664"/>
    <line x1="472.8346" x2="472.8346" y1="479.9915" y2="487.442"/>
    <line x1="471.6656" x2="471.6656" y1="486.7671" y2="479.3166"/>
    <line x1="470.4966" x2="470.4966" y1="478.6417" y2="486.0922"/>
    <line x1="469.3277" x2="469.3277" y1="485.4172" y2="477.9667"/>
    <line x1="468.1587" x2="468.1587" y1="477.2918" y2="484.7423"/>
    <line x1="466.9897" x2="466.9897" y1="484.0674" y2="476.6169"/>
    <line x1="465.8207" x2="465.8207" y1="475.942" y2="483.3925"/>
    <line x1="464.6517" x2="464.6517" y1="482.7176" y2="475.2671"/>
    <line x1="463.4827" x2="463.4827" y1="474.5922" y2="482.0427"/>
    <polyline points="462.3137,481.3677 462.3137,473.9172 470.4966,469.1928"/>
    <polyline points="470.4966,465.9371 462.3137,461.2127 445.9479,470.6615 445.9479,475.1213"/>
    <line x1="447.1169" x2="447.1169" y1="475.7962" y2="471.3365"/>
    <line x1="448.2859" x2="448.2859" y1="472.0114" y2="476.4711"/>
    <line x1="449.4549" x2="449.4549" y1="477.146" y2="472.6863"/>
    <line x1="450.6238" x2="450.6238" y1="473.3612" y2="477.8209"/>
    <line x1="451.7928" x2="451.7928" y1="478.4958" y2="474.0361"/>
    <line x1="452.9618" x2="452.9618" y1="474.711" y2="479.1708"/>
    <line x1="454.1308" x2="454.1308" y1="479.8457" y2="475.386"/>
    <line x1="455.2998" x2="455.2998" y1="476.0609" y2="480.5206"/>
    <line x1="456.4688" x2="456.4688" y1="481.1955" y2="476.7358"/>
    <line x1="457.6378" x2="457.6378" y1="477.4107" y2="481.8704"/>
    <line x1="458.8068" x2="458.8068" y1="482.5453" y2="478.0856"/>
    <line x1="459.9758" x2="459.9758" y1="478.7605" y2="482.7176"/>
    <polyline points="459.5404,482.9689 445.9479,475.1213 429.5821,484.5701 429.5821,496.4347"/>
    <line x1="429.5821" x2="413.2162" y1="495.1764" y2="485.7276"/>
    <line x1="414.3852" x2="414.3852" y1="486.4025" y2="492.8219"/>
    <polyline points="413.2162,492.147 413.2162,485.7276 429.5821,476.2787 436.7626,480.4244"/>
    <line x1="436.596" x2="436.596" y1="480.3282" y2="479.0465"/>
    <line x1="435.427" x2="435.427" y1="479.6533" y2="478.3716"/>
    <line x1="434.258" x2="434.258" y1="478.9784" y2="477.6967"/>
    <line x1="433.089" x2="433.089" y1="478.3035" y2="477.0217"/>
    <line x1="431.92" x2="431.92" y1="477.6286" y2="476.3468"/>
    <line x1="430.7511" x2="430.7511" y1="476.9537" y2="475.6719"/>
    <polyline points="429.9698,474.7731 429.5821,474.5493 415.7146,482.5556"/>
    <polyline points="416.3206,482.2058 413.2162,480.4135 396.8504,489.8623 380.4846,480.4135 364.1187,489.8623 347.7529,480.4135 331.3871,489.8623"/>
    <line x1="333.725" x2="333.725" y1="491.2121" y2="491.2121"/>
    <line x1="334.894" x2="334.894" y1="491.887" y2="491.887"/>
    <line x1="338.401" x2="338.401" y1="493.9118" y2="493.9118"/>
    <line x1="346.5839" x2="346.5839" y1="498.6362" y2="498.6362"/>
    <line x1="350.0909" x2="350.0909" y1="497.9613" y2="497.9613"/>
    <line x1="351.2599" x2="351.2599" y1="501.3358" y2="501.3358"/>
    <line x1="354.7668" x2="354.7668" y1="503.3606" y2="503.3606"/>
    <line x1="358.2738" x2="358.2738" y1="505.3853" y2="505.3853"/>
    <line x1="359.4428" x2="359.4428" y1="506.0603" y2="506.0603"/>
    <line x1="362.9497" x2="362.9497" y1="508.085" y2="508.085"/>
    <line x1="361.7807" x2="361.7807" y1="510.1097" y2="510.1097"/>
    <line x1="368.7947" x2="368.7947" y1="506.0603" y2="506.0603"/>
    <line x1="373.4706" x2="373.4706" y1="503.3606" y2="503.3606"/>
    <line x1="379.3156" x2="379.3156" y1="498.6362" y2="498.6362"/>
    <polyline points="383.739,501.19 380.4846,499.3111 364.1187,508.7599 347.7529,499.3111 331.3871,508.7599 315.0212,499.3111 298.6554,508.7599"/>
    <line x1="300.9934" x2="300.9934" y1="510.1097" y2="510.1097"/>
    <line x1="302.1624" x2="302.1624" y1="510.7847" y2="510.7847"/>
    <line x1="306.8383" x2="306.8383" y1="513.4843" y2="513.4843"/>
    <polyline points="315.0212,499.3111 331.3871,489.8623 347.7529,499.3111 364.1187,489.8623 380.4846,499.3111 396.8504,489.8623 397.4564,490.2121"/>
    <line x1="398.0194" x2="398.0194" y1="491.2369" y2="494.295"/>
    <polyline points="396.8504,493.6201 396.8504,490.562 413.2162,481.1132 417.2124,483.4204"/>
    <line x1="415.5542" x2="415.5542" y1="487.0774" y2="493.4968"/>
    <line x1="416.7232" x2="416.7232" y1="494.1717" y2="487.7523"/>
    <line x1="417.8922" x2="417.8922" y1="488.4272" y2="494.8466"/>
    <line x1="419.0612" x2="419.0612" y1="495.5215" y2="489.1021"/>
    <line x1="420.2302" x2="420.2302" y1="489.7771" y2="496.1965"/>
    <line x1="421.3991" x2="421.3991" y1="496.8714" y2="490.452"/>
    <line x1="422.5681" x2="422.5681" y1="491.1269" y2="497.5463"/>
    <line x1="423.7371" x2="423.7371" y1="498.2212" y2="491.8018"/>
    <line x1="424.9061" x2="424.9061" y1="492.4767" y2="498.8961"/>
    <polyline points="425.1124,499.0152 413.2162,492.147 396.8504,501.5958 396.8504,506.8275"/>
    <line x1="398.0194" x2="398.0194" y1="507.5024" y2="502.2707"/>
    <line x1="399.1884" x2="399.1884" y1="502.9456" y2="508.1773"/>
    <line x1="400.3574" x2="400.3574" y1="508.8522" y2="503.6205"/>
    <line x1="401.5263" x2="401.5263" y1="504.2954" y2="509.5271"/>
    <line x1="402.6953" x2="402.6953" y1="510.202" y2="504.9704"/>
    <line x1="403.8643" x2="403.8643" y1="505.6453" y2="510.8769"/>
    <line x1="405.0333" x2="405.0333" y1="511.5519" y2="506.3202"/>
    <line x1="406.2023" x2="406.2023" y1="506.9951" y2="512.2268"/>
    <line x1="407.3713" x2="407.3713" y1="512.9017" y2="507.67"/>
    <line x1="408.5403" x2="408.5403" y1="508.3449" y2="513.5766"/>
    <line x1="409.7093" x2="409.7093" y1="514.2515" y2="509.0199"/>
    <line x1="410.8783" x2="410.8783" y1="509.6948" y2="514.9264"/>
    <line x1="412.0472" x2="412.0472" y1="515.6014" y2="510.3697"/>
    <line x1="413.2162" x2="396.8504" y1="511.0446" y2="501.5958"/>
    <line x1="400.3574" x2="400.3574" y1="495.6449" y2="492.5867"/>
    <line x1="399.1884" x2="399.1884" y1="491.9118" y2="494.97"/>
    <line x1="401.5263" x2="401.5263" y1="496.3198" y2="493.2617"/>
    <line x1="402.6953" x2="402.6953" y1="493.9366" y2="496.9947"/>
    <line x1="401.5263" x2="401.5263" y1="487.1626" y2="487.1626"/>
    <line x1="406.2023" x2="406.2023" y1="484.463" y2="484.463"/>
    <line x1="412.0472" x2="412.0472" y1="479.7385" y2="479.7385"/>
    <line x1="422.5681" x2="422.5681" y1="475.0141" y2="475.0141"/>
    <line x1="429.5821" x2="437.765" y1="474.997" y2="479.8457"/>
    <polyline points="433.0742,472.9808 429.5821,470.9646 413.2162,480.4135 396.8504,470.9646 380.4846,480.4135 364.1187,470.9646 347.7529,480.4135"/>
    <line x1="351.2599" x2="351.2599" y1="482.4382" y2="482.4382"/>
    <line x1="354.7668" x2="354.7668" y1="484.463" y2="484.463"/>
    <line x1="358.2738" x2="358.2738" y1="486.4877" y2="486.4877"/>
    <line x1="359.4428" x2="359.4428" y1="487.1626" y2="487.1626"/>
    <line x1="362.9497" x2="362.9497" y1="489.1874" y2="489.1874"/>
    <line x1="361.7807" x2="361.7807" y1="491.2121" y2="491.2121"/>
    <line x1="366.4567" x2="366.4567" y1="491.2121" y2="491.2121"/>
    <line x1="367.6257" x2="367.6257" y1="491.887" y2="491.887"/>
    <line x1="371.1327" x2="371.1327" y1="493.9118" y2="493.9118"/>
    <line x1="372.3016" x2="372.3016" y1="494.5867" y2="494.5867"/>
    <line x1="368.7947" x2="368.7947" y1="487.1626" y2="487.1626"/>
    <line x1="373.4706" x2="373.4706" y1="484.463" y2="484.463"/>
    <line x1="379.3156" x2="379.3156" y1="479.7385" y2="479.7385"/>
    <line x1="371.1327" x2="371.1327" y1="475.0141" y2="475.0141"/>
    <polyline points="364.1187,470.9646 380.4846,461.5158 396.8504,470.9646 413.2162,461.5158 429.5821,470.9646"/>
    <polyline points="429.5821,476.2787 429.5821,474.997 445.9479,465.5482 450.3762,468.1049"/>
    <line x1="445.9479" x2="462.3137" y1="470.6615" y2="480.1104"/>
    <line x1="461.1447" x2="461.1447" y1="479.4354" y2="482.0427"/>
    <polyline points="462.3137,473.9172 478.6796,483.3661 511.4112,464.4684"/>
    <line x1="509.0733" x2="509.0733" y1="465.8183" y2="490.9361"/>
    <polyline points="511.4112,489.5863 511.4112,464.4684 503.2283,459.744"/>
    <line x1="506.7353" x2="506.7353" y1="467.1681" y2="492.286"/>
    <polyline points="505.0576,493.2545 511.4112,489.5863 527.7771,499.0351 527.7771,520.0195"/>
    <line x1="527.7771" x2="511.4112" y1="523.8113" y2="533.2601"/>
    <line x1="513.7492" x2="513.7492" y1="531.9103" y2="550.3324"/>
    <line x1="518.4252" x2="518.4252" y1="551.9545" y2="529.2106"/>
    <line x1="520.7631" x2="520.7631" y1="527.8608" y2="550.6047"/>
    <line x1="523.1011" x2="523.1011" y1="549.2549" y2="526.5109"/>
    <line x1="525.4391" x2="525.4391" y1="525.1611" y2="547.905"/>
    <line x1="530.115" x2="530.115" y1="545.2054" y2="537.5673"/>
    <line x1="527.7771" x2="544.1429" y1="538.9172" y2="529.4684"/>
    <line x1="541.8049" x2="541.8049" y1="530.8182" y2="538.4562"/>
    <line x1="539.467" x2="539.467" y1="539.806" y2="532.168"/>
    <line x1="537.129" x2="537.129" y1="533.5178" y2="541.1559"/>
    <line x1="534.791" x2="534.791" y1="542.5057" y2="534.8677"/>
    <line x1="532.453" x2="532.453" y1="536.2175" y2="543.8555"/>
    <line x1="523.1011" x2="523.1011" y1="561.131" y2="568.1525"/>
    <line x1="520.7631" x2="520.7631" y1="569.5023" y2="562.4809"/>
    <line x1="518.4252" x2="518.4252" y1="563.8307" y2="570.8522"/>
    <line x1="516.0872" x2="516.0872" y1="572.202" y2="565.1805"/>
    <line x1="513.7492" x2="513.7492" y1="566.5304" y2="573.5518"/>
    <line x1="509.0733" x2="509.0733" y1="576.2515" y2="567.5719"/>
    <line x1="506.7353" x2="506.7353" y1="568.9217" y2="577.6013"/>
    <line x1="504.3973" x2="504.3973" y1="578.9511" y2="570.2716"/>
    <line x1="502.0593" x2="502.0593" y1="571.6214" y2="580.301"/>
    <line x1="499.7214" x2="499.7214" y1="581.6508" y2="572.9712"/>
    <line x1="497.3834" x2="497.3834" y1="574.3211" y2="583.0006"/>
    <line x1="485.6935" x2="485.6935" y1="562.1726" y2="542.1169"/>
    <line x1="488.0315" x2="488.0315" y1="540.7671" y2="560.8228"/>
    <line x1="490.3694" x2="490.3694" y1="559.4729" y2="539.4173"/>
    <line x1="492.7074" x2="492.7074" y1="538.0674" y2="558.1231"/>
    <polyline points="495.0454,556.7733 495.0454,536.7176 478.6796,527.2688 462.3137,536.7176 462.3137,543.8277 462.3137,542.8322 445.9479,533.3834 429.5821,542.8322 429.5821,550.4966 413.2162,559.9455 396.8504,550.4966"/>
    <line x1="396.8504" x2="380.4846" y1="553.4131" y2="543.9643"/>
    <line x1="385.1605" x2="385.1605" y1="541.2646" y2="535.4455"/>
    <line x1="387.4985" x2="387.4985" y1="534.0957" y2="539.9148"/>
    <line x1="389.8365" x2="389.8365" y1="538.5649" y2="532.7458"/>
    <line x1="392.1744" x2="392.1744" y1="531.396" y2="537.2151"/>
    <line x1="394.5124" x2="394.5124" y1="535.8653" y2="530.0462"/>
    <line x1="395.6814" x2="395.6814" y1="528.0214" y2="525.0502"/>
    <line x1="394.5124" x2="394.5124" y1="524.3753" y2="527.3465"/>
    <line x1="393.3434" x2="393.3434" y1="526.6716" y2="523.7003"/>
    <line x1="392.1744" x2="392.1744" y1="523.0254" y2="525.9967"/>
    <line x1="391.0055" x2="391.0055" y1="525.3218" y2="522.3505"/>
    <line x1="389.8365" x2="389.8365" y1="521.6756" y2="524.6468"/>
    <line x1="388.6675" x2="388.6675" y1="523.9719" y2="521.0007"/>
    <line x1="387.4985" x2="387.4985" y1="520.3258" y2="523.297"/>
    <line x1="386.3295" x2="386.3295" y1="522.6221" y2="519.6508"/>
    <line x1="385.1605" x2="385.1605" y1="518.9759" y2="521.9472"/>
    <line x1="383.9915" x2="383.9915" y1="521.2723" y2="518.301"/>
    <line x1="382.8225" x2="382.8225" y1="517.6261" y2="520.5973"/>
    <line x1="381.6535" x2="381.6535" y1="519.9224" y2="516.9512"/>
    <line x1="380.4846" x2="413.2162" y1="516.2763" y2="535.0548"/>
    <line x1="412.0472" x2="412.0472" y1="534.3799" y2="541.7227"/>
    <polyline points="413.2162,541.0478 413.2162,532.6526 429.5821,523.2038 445.9479,532.6526 445.9479,533.3834"/>
    <line x1="444.7789" x2="444.7789" y1="531.9777" y2="522.2342"/>
    <line x1="445.9479" x2="429.5821" y1="522.9092" y2="513.4603"/>
    <line x1="430.7511" x2="430.7511" y1="514.1352" y2="523.8787"/>
    <line x1="431.92" x2="431.92" y1="524.5536" y2="514.8102"/>
    <line x1="433.089" x2="433.089" y1="515.4851" y2="525.2285"/>
    <line x1="434.258" x2="434.258" y1="525.9034" y2="516.16"/>
    <line x1="435.427" x2="435.427" y1="516.8349" y2="526.5783"/>
    <line x1="436.596" x2="436.596" y1="527.2532" y2="517.5098"/>
    <line x1="437.765" x2="437.765" y1="518.1847" y2="527.9282"/>
    <line x1="438.934" x2="438.934" y1="528.6031" y2="518.8597"/>
    <line x1="440.103" x2="440.103" y1="519.5346" y2="529.278"/>
    <line x1="441.2719" x2="441.2719" y1="529.9529" y2="520.2095"/>
    <line x1="442.4409" x2="442.4409" y1="520.8844" y2="530.6278"/>
    <line x1="443.6099" x2="443.6099" y1="531.3027" y2="521.5593"/>
    <line x1="443.6099" x2="443.6099" y1="534.0024" y2="534.7332"/>
    <line x1="441.2719" x2="441.2719" y1="535.3522" y2="536.083"/>
    <line x1="438.934" x2="438.934" y1="536.7021" y2="537.4329"/>
    <line x1="436.596" x2="436.596" y1="538.0519" y2="538.7827"/>
    <line x1="434.258" x2="434.258" y1="539.4017" y2="540.1325"/>
    <line x1="431.92" x2="431.92" y1="540.7516" y2="541.4823"/>
    <polyline points="429.5821,542.1014 429.5821,542.8322 445.9479,552.281 462.3137,542.8322 462.3137,530.1699"/>
    <line x1="464.6517" x2="464.6517" y1="528.8201" y2="535.3678"/>
    <line x1="463.4827" x2="463.4827" y1="537.3925" y2="544.5026"/>
    <line x1="464.6517" x2="464.6517" y1="545.1775" y2="538.0674"/>
    <line x1="465.8207" x2="465.8207" y1="538.7423" y2="545.8524"/>
    <line x1="466.9897" x2="466.9897" y1="546.5273" y2="539.4173"/>
    <line x1="468.1587" x2="468.1587" y1="540.0922" y2="547.2023"/>
    <line x1="469.3277" x2="469.3277" y1="547.8772" y2="540.7671"/>
    <line x1="470.4966" x2="470.4966" y1="541.442" y2="548.5521"/>
    <line x1="471.6656" x2="471.6656" y1="549.227" y2="542.1169"/>
    <line x1="472.8346" x2="472.8346" y1="542.7918" y2="549.9019"/>
    <line x1="474.0036" x2="474.0036" y1="550.5768" y2="543.4668"/>
    <line x1="475.1726" x2="475.1726" y1="544.1417" y2="551.2517"/>
    <line x1="476.3416" x2="476.3416" y1="551.9267" y2="544.8166"/>
    <line x1="481.0175" x2="481.0175" y1="544.8166" y2="564.8722"/>
    <line x1="483.3555" x2="483.3555" y1="563.5224" y2="543.4668"/>
    <line x1="489.2005" x2="489.2005" y1="533.343" y2="530.887"/>
    <line x1="488.0315" x2="488.0315" y1="530.2121" y2="532.6681"/>
    <line x1="486.8625" x2="486.8625" y1="531.9932" y2="529.5372"/>
    <line x1="485.6935" x2="485.6935" y1="528.8623" y2="531.3183"/>
    <line x1="484.5245" x2="484.5245" y1="530.6434" y2="528.1874"/>
    <line x1="483.3555" x2="483.3555" y1="527.5124" y2="529.9684"/>
    <line x1="482.1865" x2="482.1865" y1="529.2935" y2="526.8375"/>
    <line x1="481.0175" x2="481.0175" y1="526.1626" y2="528.6186"/>
    <line x1="479.8486" x2="479.8486" y1="527.9437" y2="525.4877"/>
    <polyline points="478.6796,527.2688 478.6796,520.7211 462.3137,511.2723 445.9479,520.7211 445.9479,532.6526 429.5821,542.1014 413.2162,532.6526"/>
    <line x1="414.3852" x2="414.3852" y1="533.3275" y2="541.7227"/>
    <line x1="415.5542" x2="415.5542" y1="542.3977" y2="534.0024"/>
    <line x1="416.7232" x2="416.7232" y1="534.6773" y2="543.0726"/>
    <line x1="417.8922" x2="417.8922" y1="543.7475" y2="535.3522"/>
    <line x1="419.0612" x2="419.0612" y1="536.0271" y2="544.4224"/>
    <line x1="420.2302" x2="420.2302" y1="545.0973" y2="536.7021"/>
    <line x1="421.3991" x2="421.3991" y1="537.377" y2="545.7722"/>
    <line x1="422.5681" x2="422.5681" y1="546.4471" y2="538.0519"/>
    <line x1="423.7371" x2="423.7371" y1="538.7268" y2="547.1221"/>
    <line x1="424.9061" x2="424.9061" y1="547.797" y2="539.4017"/>
    <line x1="426.0751" x2="426.0751" y1="540.0766" y2="548.4719"/>
    <line x1="427.2441" x2="427.2441" y1="549.1468" y2="540.7516"/>
    <line x1="428.4131" x2="428.4131" y1="541.4265" y2="549.8217"/>
    <line x1="427.2441" x2="427.2441" y1="551.8465" y2="556.7793"/>
    <line x1="424.9061" x2="424.9061" y1="558.1291" y2="553.1963"/>
    <line x1="422.5681" x2="422.5681" y1="554.5461" y2="559.4789"/>
    <line x1="420.2302" x2="420.2302" y1="560.8288" y2="555.896"/>
    <line x1="417.8922" x2="417.8922" y1="557.2458" y2="562.1786"/>
    <line x1="409.7093" x2="409.7093" y1="563.2039" y2="557.9207"/>
    <line x1="408.5403" x2="408.5403" y1="557.2458" y2="562.529"/>
    <line x1="407.3713" x2="407.3713" y1="561.854" y2="556.5709"/>
    <line x1="406.2023" x2="406.2023" y1="555.896" y2="561.1791"/>
    <line x1="405.0333" x2="405.0333" y1="560.5042" y2="555.221"/>
    <polyline points="410.6905,542.506 396.8504,534.5154 380.4846,543.9643 380.4846,546.8681 380.4846,541.314 364.1187,531.8652 350.7695,539.5723"/>
    <polyline points="347.5572,537.9436 331.3871,528.6078 317.4367,536.662"/>
    <polyline points="313.3395,536.2384 298.6554,527.7606 283.8321,536.3188"/>
    <line x1="277.6136" x2="277.6136" y1="534.9389" y2="538.1279"/>
    <line x1="275.2756" x2="275.2756" y1="539.4778" y2="536.2887"/>
    <line x1="272.9376" x2="272.9376" y1="537.6386" y2="540.8276"/>
    <line x1="270.5997" x2="270.5997" y1="542.1774" y2="538.9884"/>
    <line x1="268.2617" x2="268.2617" y1="540.3382" y2="543.5272"/>
    <line x1="263.5857" x2="263.5857" y1="550.5818" y2="555.5931"/>
    <line x1="261.2478" x2="261.2478" y1="556.9429" y2="551.9317"/>
    <line x1="258.9098" x2="258.9098" y1="553.2815" y2="558.2927"/>
    <line x1="256.5718" x2="256.5718" y1="559.6425" y2="554.6313"/>
    <line x1="254.2338" x2="254.2338" y1="555.9811" y2="560.9924"/>
    <line x1="251.8959" x2="251.8959" y1="562.3422" y2="557.331"/>
    <line x1="230.8541" x2="230.8541" y1="583.0006" y2="600.0085"/>
    <line x1="229.6851" x2="229.6851" y1="599.3336" y2="582.3257"/>
    <line x1="228.5161" x2="228.5161" y1="581.6508" y2="598.6587"/>
    <line x1="227.3471" x2="227.3471" y1="597.9838" y2="580.9759"/>
    <line x1="226.1781" x2="226.1781" y1="580.301" y2="597.3088"/>
    <line x1="225.0091" x2="225.0091" y1="596.6339" y2="579.6261"/>
    <line x1="223.8401" x2="223.8401" y1="578.9511" y2="595.959"/>
    <line x1="222.6712" x2="222.6712" y1="595.2841" y2="578.2762"/>
    <line x1="221.5022" x2="221.5022" y1="577.6013" y2="594.6092"/>
    <line x1="220.3332" x2="220.3332" y1="593.9343" y2="576.9264"/>
    <line x1="219.1642" x2="219.1642" y1="576.2515" y2="593.2594"/>
    <line x1="217.9952" x2="217.9952" y1="592.5844" y2="575.5766"/>
    <line x1="207.4743" x2="207.4743" y1="569.5023" y2="586.5102"/>
    <line x1="206.3053" x2="206.3053" y1="585.8353" y2="568.8274"/>
    <line x1="205.1363" x2="205.1363" y1="568.1525" y2="585.1604"/>
    <line x1="203.9673" x2="203.9673" y1="584.4855" y2="567.4776"/>
    <line x1="202.7984" x2="202.7984" y1="566.8027" y2="583.8105"/>
    <line x1="201.6294" x2="201.6294" y1="583.1356" y2="566.1277"/>
    <polyline points="200.4604,565.4528 396.8504,678.8387 593.2404,565.4528"/>
    <line x1="590.9024" x2="590.9024" y1="566.8027" y2="583.8105"/>
    <line x1="588.5645" x2="588.5645" y1="585.1604" y2="568.1525"/>
    <line x1="586.2265" x2="586.2265" y1="569.5023" y2="586.5102"/>
    <line x1="583.8885" x2="583.8885" y1="587.86" y2="570.8522"/>
    <line x1="581.5505" x2="581.5505" y1="572.202" y2="589.2099"/>
    <line x1="579.2125" x2="579.2125" y1="590.5597" y2="573.5518"/>
    <line x1="558.1708" x2="558.1708" y1="585.7003" y2="602.7082"/>
    <line x1="555.8328" x2="555.8328" y1="604.058" y2="587.0501"/>
    <line x1="553.4948" x2="553.4948" y1="588.4" y2="605.4078"/>
    <line x1="551.1568" x2="551.1568" y1="606.7577" y2="589.7498"/>
    <line x1="548.8189" x2="548.8189" y1="591.0996" y2="608.1075"/>
    <line x1="546.4809" x2="546.4809" y1="609.4573" y2="592.4495"/>
    <line x1="541.8049" x2="541.8049" y1="592.4495" y2="592.4495"/>
    <line x1="538.298" x2="538.298" y1="590.4247" y2="590.4247"/>
    <line x1="526.6081" x2="526.6081" y1="602.5732" y2="602.5732"/>
    <line x1="525.4391" x2="525.4391" y1="604.5979" y2="621.6058"/>
    <line x1="523.1011" x2="523.1011" y1="622.9556" y2="605.9478"/>
    <line x1="520.7631" x2="520.7631" y1="607.2976" y2="624.3055"/>
    <line x1="518.4252" x2="518.4252" y1="625.6553" y2="608.6474"/>
    <line x1="516.0872" x2="516.0872" y1="609.9973" y2="627.0051"/>
    <line x1="490.3694" x2="490.3694" y1="624.8454" y2="641.8533"/>
    <line x1="488.0315" x2="488.0315" y1="643.2031" y2="626.1952"/>
    <line x1="485.6935" x2="485.6935" y1="627.5451" y2="644.5529"/>
    <line x1="483.3555" x2="483.3555" y1="645.9028" y2="628.8949"/>
    <line x1="481.0175" x2="481.0175" y1="630.2447" y2="647.2526"/>
    <polyline points="478.6796,648.6024 495.0454,639.1536 495.0454,622.1457 478.6796,612.6969 462.3137,622.1457 445.9479,612.6969 429.5821,622.1457 413.2162,612.6969 396.8504,622.1457 380.4846,612.6969 364.1187,622.1457 347.7529,612.6969 331.3871,622.1457 315.0212,612.6969 298.6554,622.1457 298.6554,639.1536 315.0212,648.6024"/>
    <line x1="406.2023" x2="406.2023" y1="654.5417" y2="654.5417"/>
    <line x1="409.7093" x2="409.7093" y1="648.4675" y2="648.4675"/>
    <line x1="424.9061" x2="424.9061" y1="657.2414" y2="657.2414"/>
    <line x1="424.9061" x2="424.9061" y1="624.8454" y2="624.8454"/>
    <line x1="423.7371" x2="423.7371" y1="618.7712" y2="618.7712"/>
    <line x1="457.6378" x2="457.6378" y1="643.743" y2="660.7509"/>
    <line x1="459.9758" x2="459.9758" y1="659.4011" y2="642.3932"/>
    <line x1="476.3416" x2="476.3416" y1="649.9523" y2="632.9444"/>
    <line x1="486.8625" x2="486.8625" y1="617.4213" y2="617.4213"/>
    <line x1="488.0315" x2="488.0315" y1="618.0963" y2="618.0963"/>
    <line x1="489.2005" x2="489.2005" y1="618.7712" y2="618.7712"/>
    <line x1="490.3694" x2="490.3694" y1="619.4461" y2="619.4461"/>
    <line x1="521.9321" x2="521.9321" y1="599.8735" y2="599.8735"/>
    <line x1="553.4948" x2="553.4948" y1="580.301" y2="580.301"/>
    <line x1="493.8764" x2="493.8764" y1="536.0427" y2="533.5867"/>
    <line x1="492.7074" x2="492.7074" y1="532.9118" y2="535.3678"/>
    <line x1="491.5384" x2="491.5384" y1="534.6929" y2="532.2369"/>
    <line x1="490.3694" x2="490.3694" y1="531.5619" y2="534.0179"/>
    <polyline points="495.0454,534.2616 495.0454,536.7176 478.6796,546.1664 462.3137,536.7176"/>
    <line x1="466.9897" x2="466.9897" y1="534.0179" y2="527.4702"/>
    <line x1="469.3277" x2="469.3277" y1="526.1204" y2="532.6681"/>
    <line x1="471.6656" x2="471.6656" y1="531.3183" y2="524.7706"/>
    <line x1="474.0036" x2="474.0036" y1="523.4207" y2="529.9684"/>
    <line x1="476.3416" x2="476.3416" y1="528.6186" y2="522.0709"/>
    <line x1="481.0175" x2="481.0175" y1="523.4629" y2="509.0568"/>
    <line x1="483.3555" x2="483.3555" y1="507.707" y2="522.1131"/>
    <line x1="485.6935" x2="485.6935" y1="520.7633" y2="506.3572"/>
    <line x1="488.0315" x2="488.0315" y1="505.0073" y2="519.4135"/>
    <line x1="490.3694" x2="490.3694" y1="518.0636" y2="503.6575"/>
    <line x1="492.7074" x2="492.7074" y1="502.3077" y2="516.7138"/>
    <line x1="495.0454" x2="511.4112" y1="506.3716" y2="496.9228"/>
    <line x1="509.0733" x2="509.0733" y1="498.2726" y2="515.7123"/>
    <line x1="506.7353" x2="506.7353" y1="517.0621" y2="499.6224"/>
    <line x1="504.3973" x2="504.3973" y1="492.8733" y2="468.5179"/>
    <line x1="497.6172" x2="497.6172" y1="468.6529" y2="453.5348"/>
    <line x1="495.2792" x2="495.2792" y1="454.8846" y2="470.0027"/>
    <line x1="492.7074" x2="492.7074" y1="475.2671" y2="488.8238"/>
    <line x1="490.3694" x2="490.3694" y1="490.1736" y2="476.6169"/>
    <line x1="474.0036" x2="474.0036" y1="493.5162" y2="494.2087"/>
    <line x1="471.6656" x2="471.6656" y1="494.8661" y2="495.5585"/>
    <line x1="469.3277" x2="469.3277" y1="496.2159" y2="496.9083"/>
    <line x1="466.9897" x2="466.9897" y1="497.5657" y2="498.2582"/>
    <line x1="464.6517" x2="464.6517" y1="498.9156" y2="499.608"/>
    <polyline points="462.3137,500.2654 462.3137,500.9578 478.6796,510.4067 495.0454,500.9578"/>
    <line x1="511.4112" x2="527.7771" y1="508.4839" y2="499.0351"/>
    <polyline points="501.5917,451.2401 501.5917,468.248 503.2283,467.3031 503.2283,450.2952"/>
    <line x1="461.1447" x2="461.1447" y1="499.5905" y2="511.9472"/>
    <line x1="429.5821" x2="413.2162" y1="515.3324" y2="505.8835"/>
    <line x1="414.3852" x2="414.3852" y1="506.5584" y2="516.8321"/>
    <line x1="415.5542" x2="415.5542" y1="517.507" y2="507.2334"/>
    <line x1="416.7232" x2="416.7232" y1="507.9083" y2="518.1819"/>
    <line x1="417.8922" x2="417.8922" y1="518.8568" y2="508.5832"/>
    <line x1="419.0612" x2="419.0612" y1="509.2581" y2="519.5317"/>
    <line x1="420.2302" x2="420.2302" y1="520.2067" y2="509.933"/>
    <line x1="421.3991" x2="421.3991" y1="510.6079" y2="520.8816"/>
    <line x1="422.5681" x2="422.5681" y1="521.5565" y2="511.2829"/>
    <line x1="423.7371" x2="423.7371" y1="511.9578" y2="522.2314"/>
    <line x1="424.9061" x2="424.9061" y1="522.9063" y2="512.6327"/>
    <line x1="426.0751" x2="426.0751" y1="513.3076" y2="523.5812"/>
    <line x1="410.8783" x2="410.8783" y1="533.705" y2="542.3977"/>
    <line x1="409.7093" x2="409.7093" y1="541.9395" y2="533.03"/>
    <line x1="408.5403" x2="408.5403" y1="532.3551" y2="541.2646"/>
    <line x1="407.3713" x2="407.3713" y1="540.5897" y2="531.6802"/>
    <line x1="406.2023" x2="406.2023" y1="531.0053" y2="539.9148"/>
    <line x1="405.0333" x2="405.0333" y1="539.2399" y2="530.3304"/>
    <line x1="403.8643" x2="403.8643" y1="529.6555" y2="538.5649"/>
    <line x1="402.6953" x2="402.6953" y1="537.89" y2="528.9806"/>
    <line x1="401.5263" x2="401.5263" y1="528.3056" y2="537.2151"/>
    <line x1="400.3574" x2="400.3574" y1="536.5402" y2="527.6307"/>
    <line x1="399.1884" x2="399.1884" y1="526.9558" y2="535.8653"/>
    <line x1="398.0194" x2="398.0194" y1="535.1904" y2="526.2809"/>
    <polyline points="396.8504,534.5154 396.8504,528.6963 380.4846,519.2475 364.1187,528.6963 364.1187,531.8652"/>
    <line x1="359.4428" x2="359.4428" y1="532.5669" y2="529.5162"/>
    <line x1="358.2738" x2="358.2738" y1="528.8413" y2="531.892"/>
    <line x1="357.1048" x2="357.1048" y1="531.2171" y2="528.1664"/>
    <line x1="355.9358" x2="355.9358" y1="527.4915" y2="530.5422"/>
    <line x1="354.7668" x2="354.7668" y1="529.8673" y2="526.8166"/>
    <line x1="353.5978" x2="353.5978" y1="526.1417" y2="529.1924"/>
    <line x1="352.4288" x2="352.4288" y1="528.5175" y2="525.4668"/>
    <line x1="351.2599" x2="351.2599" y1="524.7918" y2="527.8425"/>
    <line x1="350.0909" x2="350.0909" y1="527.1676" y2="524.1169"/>
    <polyline points="351.7005,520.4879 347.7529,518.2087 331.3871,527.6576 315.0212,518.2087 298.6554,527.6576 282.2896,518.2087 270.1388,525.224"/>
    <polyline points="271.718,526.1358 282.2896,520.0323 297.1654,528.6208 298.6554,527.6576 306.1138,532.0667 315.0212,526.924 324.6623,532.4903"/>
    <polyline points="323.8394,532.0152 331.3871,527.6576 337.9767,531.4621"/>
    <line x1="336.063" x2="336.063" y1="524.9579" y2="524.9579"/>
    <line x1="340.739" x2="340.739" y1="522.2582" y2="522.2582"/>
    <line x1="346.5839" x2="346.5839" y1="517.5338" y2="517.5338"/>
    <line x1="334.894" x2="334.894" y1="510.7847" y2="510.7847"/>
    <line x1="333.725" x2="333.725" y1="510.1097" y2="510.1097"/>
    <line x1="330.2181" x2="330.2181" y1="508.085" y2="508.085"/>
    <line x1="329.0491" x2="329.0491" y1="510.1097" y2="510.1097"/>
    <line x1="326.7111" x2="326.7111" y1="506.0603" y2="506.0603"/>
    <line x1="325.5421" x2="325.5421" y1="505.3853" y2="505.3853"/>
    <line x1="322.0352" x2="322.0352" y1="503.3606" y2="503.3606"/>
    <line x1="319.6972" x2="319.6972" y1="502.0108" y2="502.0108"/>
    <line x1="318.5282" x2="318.5282" y1="501.3358" y2="501.3358"/>
    <line x1="336.063" x2="336.063" y1="506.0603" y2="506.0603"/>
    <line x1="340.739" x2="340.739" y1="503.3606" y2="503.3606"/>
    <line x1="357.1048" x2="357.1048" y1="493.9118" y2="493.9118"/>
    <line x1="381.6535" x2="381.6535" y1="503.7439" y2="504.848"/>
    <line x1="382.8225" x2="382.8225" y1="504.4188" y2="505.5229"/>
    <line x1="383.9915" x2="383.9915" y1="505.0937" y2="506.1979"/>
    <line x1="385.1605" x2="385.1605" y1="505.7686" y2="506.8728"/>
    <line x1="386.3295" x2="386.3295" y1="506.4435" y2="507.5477"/>
    <line x1="387.4985" x2="387.4985" y1="507.1184" y2="508.2226"/>
    <line x1="388.6675" x2="388.6675" y1="507.7934" y2="508.8975"/>
    <line x1="389.8365" x2="389.8365" y1="508.4683" y2="509.5724"/>
    <line x1="389.8365" x2="389.8365" y1="493.9118" y2="493.9118"/>
    <line x1="394.5124" x2="394.5124" y1="491.2121" y2="491.2121"/>
    <line x1="383.9915" x2="383.9915" y1="463.5406" y2="463.5406"/>
    <line x1="382.8225" x2="382.8225" y1="462.8657" y2="462.8657"/>
    <line x1="426.0751" x2="426.0751" y1="493.1516" y2="498.4595"/>
    <line x1="427.2441" x2="427.2441" y1="497.7845" y2="493.8266"/>
    <line x1="428.4131" x2="428.4131" y1="494.5015" y2="497.1096"/>
    <line x1="362.9497" x2="362.9497" y1="526.9826" y2="526.9826"/>
    <line x1="359.4428" x2="359.4428" y1="524.9579" y2="524.9579"/>
    <line x1="346.5839" x2="346.5839" y1="536.4315" y2="536.4315"/>
    <line x1="276.4446" x2="276.4446" y1="533.7318" y2="533.7318"/>
  </g>
</svg>
