<?xml version="1.0" encoding="utf-8" ?>
<svg xmlns="http://www.w3.org/2000/svg" xmlns:cc="http://creativecommons.org/ns#" xmlns:dc="http://purl.org/dc/elements/1.1/" xmlns:ev="http://www.w3.org/2001/xml-events" xmlns:inkscape="http://www.inkscape.org/namespaces/inkscape" xmlns:rdf="http://www.w3.org/1999/02/22-rdf-syntax-ns#" xmlns:sodipodi="http://sodipodi.sourceforge.net/DTD/sodipodi-0.dtd" xmlns:xlink="http://www.w3.org/1999/xlink" baseProfile="tiny" height="29.7cm" version="1.2" viewBox="0 0 793.7007874015749 1122.5196850393702" width="21.0cm">
  <metadata>
    <rdf:RDF>
      <cc:Work>
        <dc:format>image/svg+xml</dc:format>
        <dc:source/>
        <dc:date>2022-01-09T12:52:31.255347</dc:date>
      </cc:Work>
    </rdf:RDF>
  </metadata>
  <defs/>
  <g fill="none" id="layer2" inkscape:groupmode="layer" inkscape:label="2" stroke="#00f" style="display:inline">
    <polyline points="429.5821,491.4662 413.2162,482.0174 396.8504,491.4662 380.4846,482.0174 396.8504,472.5686 413.2162,482.0174"/>
    <line x1="406.2023" x2="406.2023" y1="486.0669" y2="486.0669"/>
    <line x1="401.5263" x2="401.5263" y1="488.7665" y2="488.7665"/>
    <line x1="399.1884" x2="399.1884" y1="492.816" y2="492.816"/>
    <line x1="400.3574" x2="400.3574" y1="493.491" y2="493.491"/>
    <line x1="396.8504" x2="385.8748" y1="497.2813" y2="503.6181"/>
    <line x1="387.4985" x2="387.4985" y1="502.6807" y2="504.5556"/>
    <line x1="389.8365" x2="389.8365" y1="505.9054" y2="501.3308"/>
    <line x1="392.1744" x2="392.1744" y1="499.981" y2="507.2552"/>
    <line x1="394.5124" x2="394.5124" y1="508.6051" y2="498.6312"/>
    <polyline points="391.8143,494.3738 396.8504,491.4662 413.2162,500.915 429.5821,491.4662 445.9479,500.915"/>
    <line x1="438.934" x2="438.934" y1="504.9645" y2="504.9645"/>
    <line x1="434.258" x2="434.258" y1="507.6642" y2="507.6642"/>
    <line x1="431.92" x2="431.92" y1="511.7137" y2="511.7137"/>
    <line x1="428.4131" x2="428.4131" y1="509.6889" y2="509.6889"/>
    <line x1="427.2441" x2="427.2441" y1="511.7137" y2="511.7137"/>
    <line x1="424.9061" x2="424.9061" y1="507.6642" y2="507.6642"/>
    <line x1="420.2302" x2="420.2302" y1="504.9645" y2="504.9645"/>
    <line x1="412.0472" x2="412.0472" y1="500.2401" y2="500.2401"/>
    <line x1="406.2023" x2="406.2023" y1="504.9645" y2="504.9645"/>
    <line x1="401.5263" x2="401.5263" y1="507.6642" y2="507.6642"/>
    <line x1="399.1884" x2="399.1884" y1="511.7137" y2="511.7137"/>
    <line x1="394.5124" x2="394.5124" y1="511.3047" y2="530.6113"/>
    <line x1="392.1744" x2="392.1744" y1="531.9611" y2="512.6546"/>
    <line x1="389.8365" x2="389.8365" y1="514.0044" y2="533.311"/>
    <line x1="387.4985" x2="387.4985" y1="534.6608" y2="515.3542"/>
    <line x1="385.1605" x2="385.1605" y1="516.7041" y2="536.0106"/>
    <line x1="382.8225" x2="382.8225" y1="537.3605" y2="518.0539"/>
    <line x1="378.1466" x2="378.1466" y1="510.5578" y2="540.0601"/>
    <polyline points="380.4846,538.7103 396.8504,529.2615 413.2162,538.7103 429.5821,529.2615 436.042,532.9911"/>
    <line x1="433.089" x2="433.089" y1="538.7455" y2="550.1839"/>
    <line x1="431.92" x2="431.92" y1="549.509" y2="538.0706"/>
    <line x1="430.7511" x2="430.7511" y1="537.3957" y2="548.834"/>
    <line x1="434.258" x2="434.258" y1="550.8588" y2="539.4204"/>
    <line x1="435.427" x2="435.427" y1="540.0953" y2="551.5337"/>
    <line x1="436.596" x2="436.596" y1="552.2086" y2="540.7703"/>
    <line x1="437.765" x2="437.765" y1="541.4452" y2="551.9231"/>
    <polyline points="436.9332,552.4033 429.5821,548.1591 413.2162,557.6079 396.8504,548.1591 386.174,554.3232"/>
    <polyline points="380.4846,556.315 380.4846,547.2885 364.1187,537.8396 355.9501,542.5558"/>
    <polyline points="355.2573,542.1558 364.1187,537.0396 364.1187,517.4489 347.7529,508.0001 331.7212,517.256"/>
    <line x1="333.725" x2="333.725" y1="516.0991" y2="499.3099"/>
    <line x1="331.3871" x2="347.7529" y1="500.6598" y2="491.211"/>
    <line x1="347.7529" x2="364.1187" y1="492.2326" y2="482.7838"/>
    <line x1="361.7807" x2="361.7807" y1="484.1336" y2="501.1089"/>
    <line x1="359.4428" x2="359.4428" y1="502.4588" y2="485.4834"/>
    <line x1="357.1048" x2="357.1048" y1="486.8333" y2="503.8086"/>
    <line x1="354.7668" x2="354.7668" y1="505.1584" y2="488.1831"/>
    <line x1="354.2992" x2="352.6626" y1="485.5417" y2="484.5968"/>
    <line x1="353.4809" x2="353.4809" y1="485.0692" y2="469.0062"/>
    <polyline points="352.6626,469.4787 352.6626,484.5968 337.9334,493.1007"/>
    <line x1="338.6348" x2="338.6348" y1="492.6958" y2="477.5777"/>
    <polyline points="337.9334,477.9826 337.9334,494.9905 336.2968,495.9354 336.2968,478.9275 328.1139,474.2031 328.1139,457.1952 351.0261,443.9669 359.209,465.6991 336.2968,478.9275 328.1139,457.1952 319.931,469.4787 328.1139,474.2031"/>
    <line x1="328.6594" x2="328.6594" y1="474.518" y2="489.6362"/>
    <line x1="327.5684" x2="327.5684" y1="489.0062" y2="473.8881"/>
    <line x1="326.9449" x2="326.9449" y1="473.5282" y2="458.95"/>
    <line x1="325.7759" x2="325.7759" y1="460.7048" y2="472.8532"/>
    <polyline points="326.4773,473.2582 326.4773,488.3763 334.6602,493.1007"/>
    <line x1="334.1147" x2="333.9588" y1="492.7858" y2="472.7183"/>
    <line x1="335.1278" x2="335.1278" y1="475.8229" y2="478.2526"/>
    <line x1="335.4785" x2="335.4785" y1="478.455" y2="495.4629"/>
    <polyline points="336.2968,495.9354 334.6602,494.9905 334.6602,477.9826"/>
    <line x1="333.0236" x2="333.0236" y1="477.0377" y2="492.1558"/>
    <line x1="331.9326" x2="331.9326" y1="491.5259" y2="476.4078"/>
    <line x1="331.6209" x2="331.6209" y1="476.2278" y2="466.509"/>
    <line x1="330.4519" x2="330.4519" y1="463.4044" y2="475.5529"/>
    <line x1="330.8415" x2="330.8415" y1="475.7779" y2="490.896"/>
    <line x1="329.7505" x2="329.7505" y1="490.2661" y2="475.148"/>
    <line x1="329.2829" x2="329.2829" y1="474.878" y2="460.2998"/>
    <line x1="330.4051" x2="330.4051" y1="455.8724" y2="455.8724"/>
    <line x1="324.6069" x2="324.6069" y1="462.4595" y2="472.1783"/>
    <polyline points="324.8407,472.3133 324.8407,489.3212 326.4773,488.3763"/>
    <polyline points="324.8407,489.3212 323.2041,488.3763 323.2041,471.3684"/>
    <line x1="323.4379" x2="323.4379" y1="471.5034" y2="464.2143"/>
    <line x1="322.2689" x2="322.2689" y1="465.9691" y2="470.8285"/>
    <line x1="321.1" x2="321.1" y1="470.1536" y2="467.7239"/>
    <polyline points="320.4681,469.7888 315.0212,472.9336 315.0212,473.3198"/>
    <polyline points="315.0212,472.9336 323.2041,477.658 323.2041,478.0442 315.0212,473.3198 298.6554,482.7686 298.6554,501.395"/>
    <line x1="299.8244" x2="299.8244" y1="502.07" y2="483.4435"/>
    <line x1="298.6554" x2="315.0212" y1="482.7686" y2="492.2174"/>
    <polyline points="315.0212,491.211 331.3871,500.6598 331.3871,517.0631 331.3871,513.3371 315.0212,503.8883 298.6554,513.3371 298.6554,519.6091"/>
    <line x1="298.0633" x2="282.2896" y1="519.9509" y2="510.8439"/>
    <line x1="283.4585" x2="283.4585" y1="511.5188" y2="525.9141"/>
    <line x1="284.6275" x2="284.6275" y1="526.589" y2="512.1937"/>
    <line x1="285.7965" x2="285.7965" y1="512.8686" y2="527.0331"/>
    <polyline points="285.5966,527.1485 282.2896,525.2392 265.9237,534.688 265.9237,536.6758 280.7363,545.2279"/>
    <line x1="279.9516" x2="279.9516" y1="544.7748" y2="545.681"/>
    <line x1="278.7826" x2="278.7826" y1="546.3559" y2="544.0999"/>
    <line x1="277.6136" x2="277.6136" y1="543.425" y2="547.0308"/>
    <line x1="276.4446" x2="276.4446" y1="547.7057" y2="542.7501"/>
    <line x1="275.2756" x2="275.2756" y1="542.0752" y2="548.3807"/>
    <line x1="274.1066" x2="274.1066" y1="549.0556" y2="541.4002"/>
    <line x1="272.9376" x2="272.9376" y1="540.7253" y2="549.5133"/>
    <polyline points="273.1258,549.6219 265.9237,545.4638 249.5579,554.9126 249.5579,593.5135 265.9237,602.9623"/>
    <line x1="264.7547" x2="264.7547" y1="602.2874" y2="563.6865"/>
    <line x1="265.9237" x2="249.5579" y1="564.3614" y2="554.9126"/>
    <line x1="250.7269" x2="250.7269" y1="555.5875" y2="594.1884"/>
    <polyline points="249.5579,593.5135 233.192,584.0646 233.192,567.0568 249.5579,557.6079"/>
    <line x1="251.8959" x2="251.8959" y1="556.2624" y2="594.8633"/>
    <line x1="253.0648" x2="253.0648" y1="595.5382" y2="556.9373"/>
    <line x1="254.2338" x2="254.2338" y1="557.6123" y2="596.2131"/>
    <line x1="255.4028" x2="255.4028" y1="596.888" y2="558.2872"/>
    <line x1="256.5718" x2="256.5718" y1="558.9621" y2="597.5629"/>
    <line x1="257.7408" x2="257.7408" y1="598.2379" y2="559.637"/>
    <line x1="258.9098" x2="258.9098" y1="560.3119" y2="598.9128"/>
    <line x1="260.0788" x2="260.0788" y1="599.5877" y2="560.9868"/>
    <line x1="261.2478" x2="261.2478" y1="561.6618" y2="600.2626"/>
    <line x1="262.4168" x2="262.4168" y1="600.9375" y2="562.3367"/>
    <line x1="263.5857" x2="263.5857" y1="563.0116" y2="601.6124"/>
    <line x1="267.0927" x2="267.0927" y1="603.6372" y2="554.4549"/>
    <line x1="268.2617" x2="268.2617" y1="555.1298" y2="604.3121"/>
    <line x1="269.4307" x2="269.4307" y1="604.987" y2="555.8047"/>
    <line x1="270.5997" x2="270.5997" y1="556.4796" y2="605.6619"/>
    <line x1="271.7687" x2="271.7687" y1="606.3369" y2="557.1546"/>
    <line x1="272.9376" x2="272.9376" y1="557.8295" y2="607.0118"/>
    <line x1="274.1066" x2="274.1066" y1="607.6867" y2="558.5044"/>
    <line x1="275.2756" x2="275.2756" y1="559.1793" y2="608.3616"/>
    <line x1="276.4446" x2="276.4446" y1="609.0365" y2="559.8542"/>
    <line x1="277.6136" x2="277.6136" y1="560.5291" y2="609.7114"/>
    <line x1="278.7826" x2="278.7826" y1="610.3863" y2="561.2041"/>
    <line x1="279.9516" x2="279.9516" y1="561.879" y2="611.0613"/>
    <line x1="281.1206" x2="281.1206" y1="611.7362" y2="562.5539"/>
    <line x1="282.2896" x2="265.9237" y1="563.2288" y2="553.78"/>
    <line x1="269.4307" x2="269.4307" y1="547.4885" y2="538.7006"/>
    <line x1="268.2617" x2="268.2617" y1="538.0257" y2="546.8136"/>
    <line x1="267.0927" x2="267.0927" y1="546.1387" y2="537.3508"/>
    <line x1="267.0927" x2="267.0927" y1="536.0009" y2="535.3629"/>
    <line x1="267.6452" x2="265.9237" y1="535.6819" y2="534.688"/>
    <line x1="270.5997" x2="270.5997" y1="539.3755" y2="548.1634"/>
    <line x1="271.7687" x2="271.7687" y1="548.8384" y2="540.0504"/>
    <polyline points="265.9237,545.4638 265.9237,536.6758 282.2896,527.227 292.2825,532.9964"/>
    <line x1="288.1345" x2="288.1345" y1="525.6833" y2="514.2184"/>
    <line x1="286.9655" x2="286.9655" y1="513.5435" y2="526.3582"/>
    <line x1="289.3035" x2="289.3035" y1="525.0084" y2="514.8934"/>
    <line x1="290.4725" x2="290.4725" y1="515.5683" y2="524.3335"/>
    <line x1="291.6415" x2="291.6415" y1="523.6586" y2="516.2432"/>
    <line x1="292.8104" x2="292.8104" y1="516.9181" y2="522.9836"/>
    <line x1="293.9794" x2="293.9794" y1="522.3087" y2="517.593"/>
    <line x1="295.1484" x2="295.1484" y1="518.2679" y2="521.6338"/>
    <line x1="296.3174" x2="296.3174" y1="520.9589" y2="518.9429"/>
    <line x1="297.4864" x2="297.4864" y1="519.6178" y2="520.284"/>
    <line x1="299.8244" x2="299.8244" y1="520.284" y2="514.012"/>
    <polyline points="298.6554,513.3371 315.0212,522.7859 315.0212,523.863"/>
    <line x1="315.0212" x2="331.3871" y1="522.7859" y2="513.3371"/>
    <line x1="330.2181" x2="330.2181" y1="512.6622" y2="499.9849"/>
    <line x1="329.0491" x2="329.0491" y1="499.3099" y2="511.9873"/>
    <line x1="327.8801" x2="327.8801" y1="511.3124" y2="498.635"/>
    <line x1="326.7111" x2="326.7111" y1="497.9601" y2="510.6375"/>
    <line x1="325.5421" x2="325.5421" y1="509.9625" y2="497.2852"/>
    <line x1="324.3731" x2="324.3731" y1="496.6103" y2="509.2876"/>
    <line x1="323.2041" x2="323.2041" y1="508.6127" y2="495.9354"/>
    <line x1="322.0352" x2="322.0352" y1="495.2604" y2="507.9378"/>
    <line x1="320.8662" x2="320.8662" y1="507.2629" y2="494.5855"/>
    <line x1="319.6972" x2="319.6972" y1="493.9106" y2="506.588"/>
    <line x1="318.5282" x2="318.5282" y1="505.913" y2="493.2357"/>
    <line x1="317.3592" x2="317.3592" y1="492.5608" y2="505.2381"/>
    <line x1="316.1902" x2="316.1902" y1="504.5632" y2="491.8859"/>
    <line x1="313.8522" x2="313.8522" y1="491.5425" y2="504.5632"/>
    <line x1="312.6832" x2="312.6832" y1="505.2381" y2="490.8676"/>
    <line x1="311.5143" x2="311.5143" y1="490.1927" y2="505.913"/>
    <line x1="310.3453" x2="310.3453" y1="506.588" y2="489.5178"/>
    <line x1="309.1763" x2="309.1763" y1="488.8429" y2="507.2629"/>
    <polyline points="308.9975,507.3661 298.6554,501.395 282.2896,510.8439 282.2896,525.2392"/>
    <polyline points="283.8751,528.1424 298.6554,519.6091 310.5224,526.4605"/>
    <line x1="310.3453" x2="310.3453" y1="526.3582" y2="520.0863"/>
    <line x1="309.1763" x2="309.1763" y1="519.4114" y2="525.6833"/>
    <line x1="308.0073" x2="308.0073" y1="525.0084" y2="518.7364"/>
    <line x1="306.8383" x2="306.8383" y1="518.0615" y2="524.3335"/>
    <line x1="305.6693" x2="305.6693" y1="523.6586" y2="517.3866"/>
    <line x1="304.5003" x2="304.5003" y1="516.7117" y2="522.9836"/>
    <line x1="303.3313" x2="303.3313" y1="522.3087" y2="516.0368"/>
    <line x1="302.1624" x2="302.1624" y1="515.3619" y2="521.6338"/>
    <line x1="300.9934" x2="300.9934" y1="520.9589" y2="514.6869"/>
    <line x1="305.6693" x2="305.6693" y1="505.4445" y2="486.8181"/>
    <line x1="304.5003" x2="304.5003" y1="486.1432" y2="504.7696"/>
    <line x1="303.3313" x2="303.3313" y1="504.0947" y2="485.4683"/>
    <line x1="302.1624" x2="302.1624" y1="484.7934" y2="503.4198"/>
    <line x1="300.9934" x2="300.9934" y1="502.7449" y2="484.1184"/>
    <line x1="306.8383" x2="306.8383" y1="487.493" y2="506.1195"/>
    <line x1="308.0073" x2="308.0073" y1="506.7944" y2="488.1679"/>
    <polyline points="323.2041,486.4865 315.0212,491.211 315.0212,503.8883"/>
    <line x1="324.3731" x2="324.3731" y1="517.3866" y2="521.1126"/>
    <line x1="326.7111" x2="326.7111" y1="519.7628" y2="516.0368"/>
    <line x1="329.0491" x2="329.0491" y1="514.6869" y2="518.4129"/>
    <line x1="322.0352" x2="322.0352" y1="518.7364" y2="522.4624"/>
    <line x1="319.6972" x2="319.6972" y1="523.8123" y2="520.0863"/>
    <polyline points="317.3592,521.4361 317.3152,525.1875 331.3871,517.0631 347.7529,526.5119 347.7529,527.5908"/>
    <line x1="347.7529" x2="364.1187" y1="526.8977" y2="517.4489"/>
    <line x1="364.1187" x2="380.4846" y1="518.6567" y2="509.2079"/>
    <line x1="375.8086" x2="375.8086" y1="511.9076" y2="541.41"/>
    <line x1="373.4706" x2="373.4706" y1="542.7598" y2="513.2574"/>
    <line x1="371.1327" x2="371.1327" y1="514.6073" y2="541.8891"/>
    <polyline points="373.0557,542.9994 380.4846,538.7103 396.8504,548.1591 413.2162,538.7103 429.5821,548.1591 429.5821,536.7208 445.9479,527.2719 460.7269,535.8046"/>
    <line x1="466.9897" x2="466.9897" y1="535.7136" y2="535.7136"/>
    <line x1="469.3277" x2="469.3277" y1="534.3638" y2="534.3638"/>
    <line x1="471.6656" x2="471.6656" y1="533.014" y2="533.014"/>
    <line x1="474.0036" x2="474.0036" y1="531.6641" y2="531.6641"/>
    <line x1="476.3416" x2="476.3416" y1="530.3143" y2="530.3143"/>
    <line x1="471.6656" x2="471.6656" y1="523.8622" y2="523.8622"/>
    <polyline points="470.7686,524.3801 478.6796,519.8127 495.0454,529.2615"/>
    <polyline points="491.1606,536.1875 478.6796,528.9815 465.3516,536.6424 478.6796,528.9474 462.3137,519.4986 447.3989,528.1097"/>
    <line x1="452.9618" x2="452.9618" y1="523.8622" y2="523.8622"/>
    <polyline points="453.8588,524.3801 445.9479,519.8127 429.5821,529.2615 413.2162,519.8127 396.8504,529.2615 396.8504,509.9549 380.4846,500.5061 372.9485,504.857"/>
    <line x1="373.4706" x2="373.4706" y1="504.5556" y2="486.8607"/>
    <line x1="371.1327" x2="371.1327" y1="488.2105" y2="503.8086"/>
    <line x1="368.7947" x2="368.7947" y1="502.4588" y2="489.5604"/>
    <line x1="366.4567" x2="366.4567" y1="490.9102" y2="501.1089"/>
    <polyline points="364.1187,499.7591 364.1187,482.7838 355.9358,478.0594 364.1187,473.3624 380.4846,482.8112 380.4846,500.5061"/>
    <line x1="378.1466" x2="378.1466" y1="501.8559" y2="484.1611"/>
    <line x1="375.8086" x2="375.8086" y1="485.5109" y2="503.2057"/>
    <line x1="368.7947" x2="368.7947" y1="515.9571" y2="540.5393"/>
    <line x1="366.4567" x2="366.4567" y1="539.1895" y2="517.3069"/>
    <line x1="361.7807" x2="361.7807" y1="518.7987" y2="535.6898"/>
    <line x1="359.4428" x2="359.4428" y1="534.3399" y2="520.1486"/>
    <line x1="357.1048" x2="357.1048" y1="521.4984" y2="532.9901"/>
    <line x1="354.7668" x2="354.7668" y1="531.6403" y2="522.8482"/>
    <line x1="352.4288" x2="352.4288" y1="524.1981" y2="530.2905"/>
    <line x1="350.0909" x2="350.0909" y1="528.9406" y2="525.5479"/>
    <line x1="347.7529" x2="338.8461" y1="526.5119" y2="531.6543"/>
    <polyline points="339.7804,532.1937 347.7529,527.5908 364.1187,537.0396 364.1187,537.8396"/>
    <line x1="361.7807" x2="361.7807" y1="538.3894" y2="539.1895"/>
    <line x1="359.4428" x2="359.4428" y1="539.7393" y2="540.5393"/>
    <line x1="357.1048" x2="357.1048" y1="541.0891" y2="541.8891"/>
    <line x1="361.7807" x2="361.7807" y1="548.6218" y2="556.1267"/>
    <line x1="359.4428" x2="359.4428" y1="557.4765" y2="549.9716"/>
    <line x1="357.1048" x2="357.1048" y1="551.3214" y2="558.8263"/>
    <line x1="354.7668" x2="354.7668" y1="560.1762" y2="552.6712"/>
    <line x1="352.4288" x2="352.4288" y1="554.0211" y2="561.526"/>
    <line x1="350.0909" x2="350.0909" y1="562.8758" y2="555.3709"/>
    <polyline points="347.7529,556.7207 347.7529,561.1337 331.3871,570.5825 315.0212,561.0162"/>
    <line x1="313.8522" x2="313.8522" y1="560.3413" y2="564.2873"/>
    <polyline points="315.0212,564.9622 298.6554,574.4111 282.2896,564.9622 282.2896,563.2288 298.6554,553.78"/>
    <line x1="297.4864" x2="297.4864" y1="553.1051" y2="547.5397"/>
    <line x1="296.3174" x2="296.3174" y1="546.8648" y2="552.4301"/>
    <line x1="295.1484" x2="295.1484" y1="551.7552" y2="546.1899"/>
    <line x1="293.9794" x2="293.9794" y1="545.515" y2="551.0803"/>
    <line x1="292.8104" x2="292.8104" y1="550.4054" y2="544.8401"/>
    <line x1="291.6415" x2="291.6415" y1="544.1652" y2="549.7305"/>
    <line x1="290.4725" x2="290.4725" y1="549.0556" y2="543.4902"/>
    <line x1="289.3035" x2="289.3035" y1="542.8153" y2="548.3807"/>
    <line x1="288.1345" x2="288.1345" y1="547.7057" y2="542.1404"/>
    <line x1="286.9655" x2="286.9655" y1="541.4655" y2="547.0308"/>
    <line x1="285.7965" x2="285.7965" y1="546.3559" y2="540.7906"/>
    <line x1="284.6275" x2="284.6275" y1="540.1157" y2="545.681"/>
    <line x1="283.4585" x2="283.4585" y1="545.0061" y2="539.4407"/>
    <polyline points="282.2896,538.7658 298.6554,548.2147 298.6554,551.5674 315.0212,561.0162 331.3871,551.5674 315.0212,542.1186 298.6554,551.5674 298.6554,555.5134 298.6554,553.78 282.2896,544.3312 265.9237,553.78 265.9237,602.9623 282.2896,612.4111"/>
    <line x1="283.4585" x2="283.4585" y1="613.086" y2="565.6372"/>
    <line x1="284.6275" x2="284.6275" y1="566.3121" y2="613.7609"/>
    <line x1="285.7965" x2="285.7965" y1="614.4358" y2="566.987"/>
    <line x1="286.9655" x2="286.9655" y1="567.6619" y2="615.1108"/>
    <line x1="288.1345" x2="288.1345" y1="615.7857" y2="568.3368"/>
    <line x1="289.3035" x2="289.3035" y1="569.0117" y2="616.4606"/>
    <line x1="290.4725" x2="290.4725" y1="617.1355" y2="569.6866"/>
    <line x1="291.6415" x2="291.6415" y1="570.3616" y2="617.8104"/>
    <line x1="292.8104" x2="292.8104" y1="618.4853" y2="571.0365"/>
    <line x1="293.9794" x2="293.9794" y1="571.7114" y2="619.1602"/>
    <line x1="295.1484" x2="295.1484" y1="619.8352" y2="572.3863"/>
    <line x1="296.3174" x2="296.3174" y1="573.0612" y2="620.5101"/>
    <line x1="297.4864" x2="297.4864" y1="621.185" y2="573.7361"/>
    <polyline points="298.6554,574.4111 298.6554,621.8599 282.2896,612.4111 282.2896,564.9622 298.6554,555.5134 315.0212,564.9622 315.0212,570.9544 315.0212,561.1337 331.3871,551.6848 347.7529,561.1337 347.7529,563.2133"/>
    <polyline points="348.6297,563.7195 364.1187,554.7769 380.4846,564.2257 380.4846,595.4032 396.8504,585.9544 413.2162,595.4032 413.2162,581.2226 429.5821,571.7738 438.6201,576.9919"/>
    <line x1="438.934" x2="438.934" y1="576.8106" y2="575.2158"/>
    <line x1="437.765" x2="437.765" y1="574.5409" y2="576.4982"/>
    <line x1="436.596" x2="436.596" y1="575.8233" y2="573.866"/>
    <line x1="435.427" x2="435.427" y1="573.191" y2="575.1483"/>
    <line x1="434.258" x2="434.258" y1="574.4734" y2="572.5161"/>
    <line x1="433.089" x2="433.089" y1="571.8412" y2="573.7985"/>
    <line x1="431.92" x2="431.92" y1="573.1236" y2="571.1663"/>
    <line x1="430.7511" x2="430.7511" y1="570.4914" y2="572.4487"/>
    <polyline points="429.5821,571.7738 429.5821,569.8165 445.9479,560.3677 455.3941,565.8214 455.2998,564.2022"/>
    <line x1="456.4688" x2="456.4688" y1="564.8771" y2="565.2009"/>
    <line x1="456.7492" x2="445.9479" y1="565.039" y2="558.8029"/>
    <line x1="447.1169" x2="447.1169" y1="559.4778" y2="561.0426"/>
    <line x1="448.2859" x2="448.2859" y1="561.7175" y2="560.1527"/>
    <line x1="449.4549" x2="449.4549" y1="560.8276" y2="562.3924"/>
    <line x1="450.6238" x2="450.6238" y1="563.0673" y2="561.5025"/>
    <line x1="451.7928" x2="451.7928" y1="562.1775" y2="563.7422"/>
    <line x1="452.9618" x2="452.9618" y1="564.4171" y2="562.8524"/>
    <line x1="454.1308" x2="454.1308" y1="563.5273" y2="565.0921"/>
    <line x1="449.4549" x2="449.4549" y1="573.2999" y2="574.7859"/>
    <line x1="450.6238" x2="450.6238" y1="575.4608" y2="573.9748"/>
    <line x1="451.7928" x2="451.7928" y1="574.6497" y2="576.1357"/>
    <line x1="452.9618" x2="452.9618" y1="576.8106" y2="575.3246"/>
    <line x1="454.1308" x2="454.1308" y1="575.9996" y2="577.4855"/>
    <line x1="455.2998" x2="455.2998" y1="578.1605" y2="576.6745"/>
    <line x1="456.4688" x2="456.4688" y1="577.3494" y2="578.8354"/>
    <line x1="457.6378" x2="457.6378" y1="579.5103" y2="578.0243"/>
    <line x1="458.8068" x2="458.8068" y1="578.6992" y2="580.1852"/>
    <line x1="459.9758" x2="459.9758" y1="580.8601" y2="579.3741"/>
    <line x1="461.1447" x2="461.1447" y1="580.0491" y2="581.535"/>
    <line x1="462.3137" x2="445.9479" y1="580.724" y2="571.2751"/>
    <line x1="447.1169" x2="447.1169" y1="571.9501" y2="573.4361"/>
    <line x1="448.2859" x2="448.2859" y1="574.111" y2="572.625"/>
    <polyline points="445.9479,572.7611 445.9479,571.2751 462.3137,561.8263 477.32,570.4478 462.3137,561.7839 478.6796,552.3351 495.0454,561.7839 495.0454,564.8566"/>
    <line x1="496.2144" x2="496.2144" y1="565.1951" y2="565.5315"/>
    <line x1="497.3834" x2="497.3834" y1="565.87" y2="566.2065"/>
    <line x1="498.5524" x2="498.5524" y1="566.545" y2="566.8814"/>
    <line x1="499.7214" x2="499.7214" y1="567.2199" y2="567.5563"/>
    <line x1="500.8903" x2="500.8903" y1="567.8948" y2="568.2312"/>
    <line x1="502.0593" x2="502.0593" y1="568.5697" y2="568.9061"/>
    <line x1="503.2283" x2="503.2283" y1="569.2446" y2="569.581"/>
    <line x1="504.3973" x2="504.3973" y1="569.9195" y2="570.256"/>
    <line x1="505.5663" x2="505.5663" y1="570.5944" y2="570.9309"/>
    <line x1="506.7353" x2="506.7353" y1="571.2694" y2="571.6058"/>
    <line x1="507.9043" x2="507.9043" y1="571.9443" y2="572.2807"/>
    <line x1="509.0733" x2="509.0733" y1="572.6192" y2="572.9556"/>
    <line x1="510.2422" x2="510.2422" y1="573.2941" y2="573.6305"/>
    <polyline points="511.4112,573.969 511.4112,574.3054 495.0454,583.7543"/>
    <line x1="497.3834" x2="497.3834" y1="582.4044" y2="620.5101"/>
    <line x1="499.7214" x2="499.7214" y1="619.1602" y2="581.0546"/>
    <line x1="502.0593" x2="502.0593" y1="579.7048" y2="617.8104"/>
    <line x1="504.3973" x2="504.3973" y1="616.4606" y2="578.3549"/>
    <line x1="506.7353" x2="506.7353" y1="577.0051" y2="615.1108"/>
    <line x1="509.0733" x2="509.0733" y1="613.7609" y2="575.6553"/>
    <line x1="513.7492" x2="513.7492" y1="572.6192" y2="611.0613"/>
    <polyline points="511.4112,612.4111 527.7771,602.9623 527.7771,564.5202 511.4112,555.0714 495.0454,564.5202 511.4112,573.969 527.7771,564.5202"/>
    <line x1="525.4391" x2="525.4391" y1="565.87" y2="604.3121"/>
    <line x1="523.1011" x2="523.1011" y1="605.6619" y2="567.2199"/>
    <line x1="520.7631" x2="520.7631" y1="568.5697" y2="607.0118"/>
    <line x1="518.4252" x2="518.4252" y1="608.3616" y2="569.9195"/>
    <line x1="516.0872" x2="516.0872" y1="571.2694" y2="609.7114"/>
    <polyline points="527.7771,602.9623 544.1429,593.5135 544.1429,559.4093 527.7771,549.9604 515.1679,557.2403"/>
    <line x1="516.0872" x2="516.0872" y1="556.7096" y2="554.3747"/>
    <line x1="518.4252" x2="518.4252" y1="555.3598" y2="553.0249"/>
    <line x1="520.7631" x2="520.7631" y1="554.0099" y2="551.6751"/>
    <line x1="523.1011" x2="523.1011" y1="552.6601" y2="550.3252"/>
    <line x1="525.4391" x2="525.4391" y1="551.3103" y2="548.9754"/>
    <line x1="527.7771" x2="544.1429" y1="548.1591" y2="557.6079"/>
    <polyline points="542.5829,558.5086 544.1429,557.6079 560.5087,567.0568 560.5087,584.0646 544.1429,593.5135"/>
    <line x1="541.8049" x2="541.8049" y1="594.8633" y2="560.7591"/>
    <line x1="544.1429" x2="527.7771" y1="559.4093" y2="568.8581"/>
    <line x1="530.115" x2="530.115" y1="567.5082" y2="601.6124"/>
    <line x1="532.453" x2="532.453" y1="600.2626" y2="566.1584"/>
    <line x1="534.791" x2="534.791" y1="564.8086" y2="598.9128"/>
    <line x1="537.129" x2="537.129" y1="597.5629" y2="563.4588"/>
    <line x1="539.467" x2="539.467" y1="562.1089" y2="596.2131"/>
    <line x1="546.4809" x2="546.4809" y1="592.1636" y2="575.1557"/>
    <line x1="548.8189" x2="548.8189" y1="573.8059" y2="590.8138"/>
    <line x1="551.1568" x2="551.1568" y1="589.464" y2="572.4561"/>
    <line x1="553.4948" x2="553.4948" y1="571.1063" y2="588.1141"/>
    <line x1="555.8328" x2="555.8328" y1="586.7643" y2="569.7564"/>
    <line x1="558.1708" x2="558.1708" y1="568.4066" y2="585.4145"/>
    <line x1="544.1429" x2="560.5087" y1="576.5056" y2="567.0568"/>
    <polyline points="527.7771,549.9604 527.7771,547.6256 511.4112,538.1767 499.5294,545.0367"/>
    <polyline points="506.8935,540.7851 495.0454,533.9446 482.6708,541.0891"/>
    <polyline points="487.105,533.8459 495.0454,529.2615 510.9492,538.4435"/>
    <polyline points="511.4112,551.8967 495.0454,561.3455 495.0454,561.7839 480.0391,570.4478"/>
    <line x1="481.0175" x2="481.0175" y1="571.0127" y2="569.8829"/>
    <polyline points="482.7002,571.9841 495.0454,564.8566 511.4112,574.3054 511.4112,612.4111 495.0454,621.8599"/>
    <line x1="492.7074" x2="492.7074" y1="623.2097" y2="580.4615"/>
    <polyline points="495.0454,579.1117 478.6796,588.5605 478.6796,593.0581 462.3137,602.5069 445.9479,593.0581 445.9479,591.6588"/>
    <line x1="444.7789" x2="444.7789" y1="590.9839" y2="606.7719"/>
    <line x1="443.6099" x2="443.6099" y1="606.097" y2="590.3089"/>
    <line x1="442.4409" x2="442.4409" y1="589.634" y2="605.4221"/>
    <line x1="441.2719" x2="441.2719" y1="604.7471" y2="588.9591"/>
    <line x1="440.103" x2="440.103" y1="588.2842" y2="604.0722"/>
    <line x1="438.934" x2="438.934" y1="603.3973" y2="587.6093"/>
    <line x1="437.765" x2="437.765" y1="586.9344" y2="602.7224"/>
    <line x1="436.596" x2="436.596" y1="602.0475" y2="586.2595"/>
    <line x1="435.427" x2="435.427" y1="585.5845" y2="601.3726"/>
    <line x1="434.258" x2="434.258" y1="600.6976" y2="584.9096"/>
    <line x1="433.089" x2="433.089" y1="584.2347" y2="600.0227"/>
    <line x1="431.92" x2="431.92" y1="599.3478" y2="583.5598"/>
    <line x1="430.7511" x2="430.7511" y1="582.8849" y2="598.6729"/>
    <polyline points="429.5821,597.998 429.5821,582.21 445.9479,572.7611 462.3137,582.21 462.3137,583.6093"/>
    <line x1="463.4827" x2="463.4827" y1="584.2842" y2="579.7866"/>
    <line x1="462.3137" x2="478.6796" y1="579.1117" y2="588.5605"/>
    <line x1="477.5106" x2="477.5106" y1="587.8856" y2="592.3832"/>
    <line x1="476.3416" x2="476.3416" y1="591.7083" y2="587.2107"/>
    <line x1="475.1726" x2="475.1726" y1="586.5357" y2="591.0334"/>
    <line x1="474.0036" x2="474.0036" y1="590.3585" y2="585.8608"/>
    <line x1="472.8346" x2="472.8346" y1="585.1859" y2="589.6836"/>
    <line x1="471.6656" x2="471.6656" y1="589.0086" y2="584.511"/>
    <line x1="470.4966" x2="470.4966" y1="583.8361" y2="588.3337"/>
    <line x1="469.3277" x2="469.3277" y1="587.6588" y2="583.1612"/>
    <line x1="468.1587" x2="468.1587" y1="582.4862" y2="586.9839"/>
    <line x1="466.9897" x2="466.9897" y1="586.309" y2="581.8113"/>
    <line x1="465.8207" x2="465.8207" y1="581.1364" y2="585.6341"/>
    <line x1="464.6517" x2="464.6517" y1="584.9591" y2="580.4615"/>
    <line x1="459.9758" x2="459.9758" y1="583.5598" y2="584.9591"/>
    <line x1="457.6378" x2="457.6378" y1="584.9096" y2="586.309"/>
    <line x1="455.2998" x2="455.2998" y1="586.2595" y2="587.6588"/>
    <line x1="452.9618" x2="452.9618" y1="587.6093" y2="589.0086"/>
    <line x1="450.6238" x2="450.6238" y1="588.9591" y2="590.3585"/>
    <line x1="448.2859" x2="448.2859" y1="590.3089" y2="591.7083"/>
    <line x1="447.1169" x2="447.1169" y1="593.733" y2="608.4342"/>
    <polyline points="445.9479,607.7593 445.9479,607.4468 429.5821,597.998 413.2162,607.4468 413.2162,614.3009 396.8504,604.852 380.4846,614.3009 380.4846,597.142 364.1187,587.6932 347.7529,597.142 364.1187,606.5908 380.4846,597.142"/>
    <polyline points="378.9788,596.2726 380.4846,595.4032 396.8504,604.852 413.2162,595.4032 423.6463,601.425 423.7371,587.2968"/>
    <line x1="424.9061" x2="424.9061" y1="587.9717" y2="600.6976"/>
    <line x1="426.0751" x2="426.0751" y1="600.0227" y2="588.6467"/>
    <line x1="427.2441" x2="427.2441" y1="589.3216" y2="599.3478"/>
    <line x1="428.4131" x2="428.4131" y1="598.6729" y2="589.9965"/>
    <line x1="429.5821" x2="413.2162" y1="590.6714" y2="581.2226"/>
    <line x1="414.3852" x2="414.3852" y1="581.8975" y2="596.0781"/>
    <line x1="415.5542" x2="415.5542" y1="596.753" y2="582.5724"/>
    <line x1="416.7232" x2="416.7232" y1="583.2473" y2="597.428"/>
    <line x1="417.8922" x2="417.8922" y1="598.1029" y2="583.9222"/>
    <line x1="419.0612" x2="419.0612" y1="584.5972" y2="598.7778"/>
    <line x1="420.2302" x2="420.2302" y1="599.4527" y2="585.2721"/>
    <line x1="421.3991" x2="421.3991" y1="585.947" y2="600.1276"/>
    <line x1="422.5681" x2="422.5681" y1="600.8025" y2="586.6219"/>
    <polyline points="429.5821,582.21 445.9479,591.6588 462.3137,582.21 462.3137,579.1117 478.6796,569.6629 495.0454,579.1117 495.0454,621.8599 478.6796,631.3087"/>
    <line x1="476.3416" x2="476.3416" y1="632.6586" y2="594.408"/>
    <line x1="474.0036" x2="474.0036" y1="595.7578" y2="634.0084"/>
    <line x1="471.6656" x2="471.6656" y1="635.3582" y2="597.1076"/>
    <line x1="469.3277" x2="469.3277" y1="598.4575" y2="636.7081"/>
    <line x1="466.9897" x2="466.9897" y1="638.0579" y2="599.8073"/>
    <line x1="464.6517" x2="464.6517" y1="601.1571" y2="639.4077"/>
    <polyline points="462.3137,640.7575 478.6796,631.3087 478.6796,593.0581 462.3137,583.6093 445.9479,593.0581 445.9479,607.4468 429.5821,616.8956 413.2162,607.4468"/>
    <line x1="414.3852" x2="414.3852" y1="608.1217" y2="614.9758"/>
    <line x1="415.5542" x2="415.5542" y1="615.6507" y2="608.7966"/>
    <line x1="416.7232" x2="416.7232" y1="609.4715" y2="616.3256"/>
    <line x1="417.8922" x2="417.8922" y1="617.0005" y2="610.1465"/>
    <line x1="419.0612" x2="419.0612" y1="610.8214" y2="617.6754"/>
    <line x1="420.2302" x2="420.2302" y1="618.3503" y2="611.4963"/>
    <line x1="421.3991" x2="421.3991" y1="612.1712" y2="619.0253"/>
    <line x1="422.5681" x2="422.5681" y1="619.7002" y2="612.8461"/>
    <line x1="423.7371" x2="423.7371" y1="613.521" y2="620.3751"/>
    <line x1="424.9061" x2="424.9061" y1="621.05" y2="614.196"/>
    <line x1="426.0751" x2="426.0751" y1="614.8709" y2="621.7249"/>
    <line x1="427.2441" x2="427.2441" y1="622.3998" y2="615.5458"/>
    <line x1="428.4131" x2="428.4131" y1="616.2207" y2="623.0748"/>
    <line x1="430.7511" x2="430.7511" y1="624.4246" y2="617.883"/>
    <line x1="431.92" x2="431.92" y1="618.5579" y2="625.0995"/>
    <line x1="433.089" x2="433.089" y1="625.7744" y2="619.2328"/>
    <line x1="434.258" x2="434.258" y1="619.9078" y2="626.4493"/>
    <line x1="435.427" x2="435.427" y1="627.1243" y2="620.5827"/>
    <line x1="436.596" x2="436.596" y1="621.2576" y2="627.7992"/>
    <line x1="437.765" x2="437.765" y1="628.4741" y2="621.9325"/>
    <line x1="438.934" x2="438.934" y1="622.6074" y2="629.149"/>
    <line x1="440.103" x2="440.103" y1="629.8239" y2="623.2823"/>
    <line x1="441.2719" x2="441.2719" y1="623.9572" y2="630.4988"/>
    <line x1="442.4409" x2="442.4409" y1="631.1737" y2="624.6322"/>
    <line x1="443.6099" x2="443.6099" y1="625.3071" y2="631.8487"/>
    <line x1="444.7789" x2="444.7789" y1="632.5236" y2="625.982"/>
    <polyline points="445.9479,626.6569 445.9479,633.1985 396.8504,661.545 347.7529,633.1985 347.7529,620.5644"/>
    <line x1="346.5839" x2="346.5839" y1="619.8895" y2="649.5315"/>
    <polyline points="347.7529,650.2064 331.3871,640.7575 331.3871,611.1156 347.7529,601.6668 364.1187,611.1156 364.1187,623.7497 380.4846,614.3009 396.8504,623.7497 413.2162,614.3009 429.5821,623.7497 429.5821,617.2081 445.9479,607.7593 462.3137,617.2081 462.3137,640.7575 445.9479,650.2064"/>
    <line x1="448.2859" x2="448.2859" y1="648.8565" y2="625.3071"/>
    <line x1="450.6238" x2="450.6238" y1="623.9572" y2="647.5067"/>
    <line x1="452.9618" x2="452.9618" y1="646.1569" y2="622.6074"/>
    <line x1="455.2998" x2="455.2998" y1="621.2576" y2="644.807"/>
    <line x1="457.6378" x2="457.6378" y1="643.4572" y2="619.9078"/>
    <line x1="459.9758" x2="459.9758" y1="618.5579" y2="642.1074"/>
    <line x1="443.6099" x2="443.6099" y1="634.5483" y2="651.5562"/>
    <line x1="441.2719" x2="441.2719" y1="652.906" y2="635.8982"/>
    <line x1="438.934" x2="438.934" y1="637.248" y2="654.2559"/>
    <line x1="436.596" x2="436.596" y1="655.6057" y2="638.5978"/>
    <line x1="434.258" x2="434.258" y1="639.9477" y2="656.9555"/>
    <line x1="431.92" x2="431.92" y1="658.3054" y2="641.2975"/>
    <line x1="427.2441" x2="427.2441" y1="643.9971" y2="661.005"/>
    <polyline points="429.5821,659.6552 445.9479,650.2064 445.9479,633.1985 429.5821,623.7497 413.2162,633.1985 396.8504,623.7497 380.4846,633.1985"/>
    <line x1="387.4985" x2="387.4985" y1="637.248" y2="637.248"/>
    <line x1="392.1744" x2="392.1744" y1="639.9477" y2="639.9477"/>
    <line x1="393.3434" x2="393.3434" y1="640.6226" y2="640.6226"/>
    <line x1="398.0194" x2="398.0194" y1="643.3222" y2="643.3222"/>
    <line x1="401.5263" x2="401.5263" y1="639.9477" y2="639.9477"/>
    <line x1="406.2023" x2="406.2023" y1="637.248" y2="637.248"/>
    <line x1="409.7093" x2="409.7093" y1="631.1737" y2="631.1737"/>
    <line x1="406.2023" x2="406.2023" y1="648.0466" y2="648.0466"/>
    <line x1="408.5403" x2="408.5403" y1="649.3965" y2="649.3965"/>
    <line x1="410.8783" x2="410.8783" y1="653.446" y2="670.4538"/>
    <line x1="408.5403" x2="408.5403" y1="671.8037" y2="654.7958"/>
    <line x1="406.2023" x2="406.2023" y1="656.1456" y2="673.1535"/>
    <line x1="403.8643" x2="403.8643" y1="674.5033" y2="657.4955"/>
    <line x1="401.5263" x2="401.5263" y1="658.8453" y2="675.8532"/>
    <line x1="399.1884" x2="399.1884" y1="677.203" y2="660.1951"/>
    <polyline points="396.8504,661.545 396.8504,678.5528 380.4846,669.104 380.4846,652.0961 396.8504,642.6473 413.2162,652.0961 413.2162,669.104 396.8504,678.5528"/>
    <line x1="395.6814" x2="395.6814" y1="677.8779" y2="660.87"/>
    <line x1="394.5124" x2="394.5124" y1="660.1951" y2="677.203"/>
    <line x1="393.3434" x2="393.3434" y1="676.5281" y2="659.5202"/>
    <line x1="392.1744" x2="392.1744" y1="658.8453" y2="675.8532"/>
    <line x1="391.0055" x2="391.0055" y1="675.1782" y2="658.1704"/>
    <line x1="389.8365" x2="389.8365" y1="657.4955" y2="674.5033"/>
    <line x1="388.6675" x2="388.6675" y1="673.8284" y2="656.8205"/>
    <line x1="387.4985" x2="387.4985" y1="656.1456" y2="673.1535"/>
    <line x1="386.3295" x2="386.3295" y1="672.4786" y2="655.4707"/>
    <line x1="385.1605" x2="385.1605" y1="654.7958" y2="671.8037"/>
    <line x1="383.9915" x2="383.9915" y1="671.1288" y2="654.1209"/>
    <line x1="382.8225" x2="382.8225" y1="653.446" y2="670.4538"/>
    <line x1="381.6535" x2="381.6535" y1="669.7789" y2="652.771"/>
    <line x1="379.3156" x2="379.3156" y1="651.4212" y2="668.4291"/>
    <polyline points="380.4846,669.104 364.1187,659.6552 364.1187,642.6473 380.4846,633.1985 396.8504,642.6473 413.2162,633.1985 429.5821,642.6473 429.5821,659.6552 413.2162,669.104"/>
    <line x1="415.5542" x2="415.5542" y1="667.7542" y2="650.7463"/>
    <line x1="417.8922" x2="417.8922" y1="649.3965" y2="666.4043"/>
    <line x1="420.2302" x2="420.2302" y1="665.0545" y2="648.0466"/>
    <line x1="422.5681" x2="422.5681" y1="646.6968" y2="663.7047"/>
    <line x1="424.9061" x2="424.9061" y1="662.3548" y2="645.347"/>
    <line x1="424.9061" x2="424.9061" y1="639.9477" y2="639.9477"/>
    <polyline points="429.5821,616.8956 429.5821,617.2081 445.9479,626.6569 462.3137,617.2081 462.3137,602.5069"/>
    <line x1="461.1447" x2="461.1447" y1="601.832" y2="616.5332"/>
    <line x1="459.9758" x2="459.9758" y1="615.8583" y2="601.1571"/>
    <line x1="458.8068" x2="458.8068" y1="600.4822" y2="615.1833"/>
    <line x1="457.6378" x2="457.6378" y1="614.5084" y2="599.8073"/>
    <line x1="456.4688" x2="456.4688" y1="599.1324" y2="613.8335"/>
    <line x1="455.2998" x2="455.2998" y1="613.1586" y2="598.4575"/>
    <line x1="454.1308" x2="454.1308" y1="597.7825" y2="612.4837"/>
    <line x1="452.9618" x2="452.9618" y1="611.8088" y2="597.1076"/>
    <line x1="451.7928" x2="451.7928" y1="596.4327" y2="611.1339"/>
    <line x1="450.6238" x2="450.6238" y1="610.4589" y2="595.7578"/>
    <line x1="449.4549" x2="449.4549" y1="595.0829" y2="609.784"/>
    <line x1="448.2859" x2="448.2859" y1="609.1091" y2="594.408"/>
    <line x1="443.6099" x2="443.6099" y1="608.7966" y2="609.1091"/>
    <line x1="441.2719" x2="441.2719" y1="610.1465" y2="610.4589"/>
    <line x1="438.934" x2="438.934" y1="611.4963" y2="611.8088"/>
    <line x1="436.596" x2="436.596" y1="612.8461" y2="613.1586"/>
    <line x1="434.258" x2="434.258" y1="614.196" y2="614.5084"/>
    <line x1="431.92" x2="431.92" y1="615.5458" y2="615.8583"/>
    <line x1="412.0472" x2="412.0472" y1="594.7283" y2="588.8668"/>
    <line x1="410.8783" x2="410.8783" y1="588.1919" y2="594.0534"/>
    <line x1="409.7093" x2="409.7093" y1="593.3785" y2="587.517"/>
    <line x1="408.5403" x2="408.5403" y1="586.8421" y2="592.7036"/>
    <line x1="407.3713" x2="407.3713" y1="592.0286" y2="586.1672"/>
    <line x1="406.2023" x2="406.2023" y1="585.4922" y2="591.3537"/>
    <line x1="405.0333" x2="405.0333" y1="590.6788" y2="584.8173"/>
    <line x1="403.8643" x2="403.8643" y1="584.1424" y2="590.0039"/>
    <line x1="402.6953" x2="402.6953" y1="589.329" y2="583.4675"/>
    <line x1="401.5263" x2="401.5263" y1="582.7926" y2="588.6541"/>
    <line x1="400.3574" x2="400.3574" y1="587.9791" y2="582.1177"/>
    <line x1="399.1884" x2="399.1884" y1="581.4428" y2="587.3042"/>
    <line x1="398.0194" x2="398.0194" y1="586.6293" y2="580.7678"/>
    <polyline points="396.8504,585.9544 396.8504,565.7639 380.4846,556.315 373.4706,560.1762 373.4706,551.338"/>
    <line x1="375.8086" x2="375.8086" y1="549.9881" y2="559.0147"/>
    <line x1="378.1466" x2="378.1466" y1="557.6649" y2="548.6383"/>
    <line x1="380.4846" x2="365.8165" y1="547.2885" y2="555.7571"/>
    <line x1="366.4567" x2="366.4567" y1="555.3874" y2="556.1267"/>
    <line x1="368.7947" x2="368.7947" y1="557.4765" y2="554.0376"/>
    <line x1="371.1327" x2="371.1327" y1="552.6878" y2="558.8263"/>
    <polyline points="364.1187,554.7769 364.1187,547.2719 347.7529,537.8231 331.3871,547.2719 331.3871,551.6848"/>
    <line x1="332.556" x2="332.556" y1="552.3598" y2="547.9468"/>
    <line x1="333.725" x2="333.725" y1="548.6218" y2="553.0347"/>
    <line x1="334.894" x2="334.894" y1="553.7096" y2="549.2967"/>
    <line x1="336.063" x2="336.063" y1="549.9716" y2="554.3845"/>
    <line x1="337.232" x2="337.232" y1="555.0594" y2="550.6465"/>
    <line x1="338.401" x2="338.401" y1="551.3214" y2="555.7343"/>
    <line x1="339.57" x2="339.57" y1="556.4093" y2="551.9963"/>
    <line x1="340.739" x2="340.739" y1="552.6712" y2="557.0842"/>
    <line x1="341.9079" x2="341.9079" y1="557.7591" y2="553.3462"/>
    <line x1="343.0769" x2="343.0769" y1="554.0211" y2="558.434"/>
    <line x1="344.2459" x2="344.2459" y1="559.1089" y2="554.696"/>
    <line x1="345.4149" x2="345.4149" y1="555.3709" y2="559.7838"/>
    <line x1="346.5839" x2="346.5839" y1="560.4587" y2="556.0458"/>
    <line x1="345.4149" x2="345.4149" y1="562.4835" y2="564.5631"/>
    <line x1="343.0769" x2="343.0769" y1="563.8333" y2="565.9129"/>
    <line x1="340.739" x2="340.739" y1="565.1832" y2="567.2628"/>
    <line x1="338.401" x2="338.401" y1="566.533" y2="568.6126"/>
    <line x1="336.063" x2="336.063" y1="567.8828" y2="569.9624"/>
    <line x1="333.725" x2="333.725" y1="569.2326" y2="571.3123"/>
    <line x1="332.556" x2="332.556" y1="573.337" y2="576.9136"/>
    <line x1="333.725" x2="333.725" y1="577.5885" y2="574.0119"/>
    <line x1="334.894" x2="334.894" y1="574.6868" y2="578.2634"/>
    <line x1="336.063" x2="336.063" y1="578.9383" y2="575.3618"/>
    <line x1="337.232" x2="337.232" y1="576.0367" y2="579.6133"/>
    <line x1="338.401" x2="338.401" y1="580.2882" y2="576.7116"/>
    <line x1="339.57" x2="339.57" y1="577.3865" y2="580.9631"/>
    <line x1="340.739" x2="340.739" y1="581.638" y2="578.0614"/>
    <line x1="341.9079" x2="341.9079" y1="578.7363" y2="582.3129"/>
    <line x1="343.0769" x2="343.0769" y1="582.9878" y2="579.4112"/>
    <line x1="344.2459" x2="344.2459" y1="580.0862" y2="583.6628"/>
    <line x1="345.4149" x2="345.4149" y1="584.3377" y2="580.7611"/>
    <line x1="346.5839" x2="346.5839" y1="581.436" y2="585.0126"/>
    <line x1="345.4149" x2="345.4149" y1="587.0373" y2="603.0166"/>
    <polyline points="347.7529,601.6668 347.7529,585.6875 331.3871,576.2387 315.0212,585.6875 315.0212,631.3087 331.3871,640.7575 331.3871,595.1363"/>
    <line x1="330.2181" x2="330.2181" y1="594.4614" y2="640.0826"/>
    <line x1="329.0491" x2="329.0491" y1="639.4077" y2="593.7865"/>
    <line x1="327.8801" x2="327.8801" y1="593.1116" y2="638.7328"/>
    <line x1="326.7111" x2="326.7111" y1="638.0579" y2="592.4367"/>
    <line x1="325.5421" x2="325.5421" y1="591.7617" y2="637.383"/>
    <line x1="324.3731" x2="324.3731" y1="636.7081" y2="591.0868"/>
    <line x1="323.2041" x2="323.2041" y1="590.4119" y2="636.0331"/>
    <line x1="322.0352" x2="322.0352" y1="635.3582" y2="589.737"/>
    <line x1="320.8662" x2="320.8662" y1="589.0621" y2="634.6833"/>
    <line x1="319.6972" x2="319.6972" y1="634.0084" y2="588.3872"/>
    <line x1="318.5282" x2="318.5282" y1="587.7122" y2="633.3335"/>
    <line x1="317.3592" x2="317.3592" y1="632.6586" y2="587.0373"/>
    <line x1="316.1902" x2="316.1902" y1="586.3624" y2="631.9836"/>
    <polyline points="315.0212,631.3087 298.6554,621.8599 298.6554,580.4033 315.0212,570.9544 327.7804,578.321 327.8801,568.5577"/>
    <line x1="326.7111" x2="326.7111" y1="567.8828" y2="577.7036"/>
    <line x1="325.5421" x2="325.5421" y1="577.0287" y2="567.2079"/>
    <line x1="324.3731" x2="324.3731" y1="566.533" y2="576.3538"/>
    <line x1="323.2041" x2="323.2041" y1="575.6789" y2="565.8581"/>
    <line x1="322.0352" x2="322.0352" y1="565.1832" y2="575.0039"/>
    <line x1="320.8662" x2="320.8662" y1="574.329" y2="564.5082"/>
    <line x1="319.6972" x2="319.6972" y1="563.8333" y2="573.6541"/>
    <line x1="318.5282" x2="318.5282" y1="572.9792" y2="563.1584"/>
    <line x1="317.3592" x2="317.3592" y1="562.4835" y2="572.3043"/>
    <line x1="316.1902" x2="316.1902" y1="571.6294" y2="561.8086"/>
    <line x1="317.3592" x2="317.3592" y1="559.7251" y2="559.7251"/>
    <line x1="319.6972" x2="319.6972" y1="558.3753" y2="558.3753"/>
    <line x1="322.0352" x2="322.0352" y1="557.0254" y2="557.0254"/>
    <line x1="324.3731" x2="324.3731" y1="555.6756" y2="555.6756"/>
    <line x1="326.7111" x2="326.7111" y1="554.3258" y2="554.3258"/>
    <line x1="329.0491" x2="329.0491" y1="552.9759" y2="552.9759"/>
    <line x1="330.2181" x2="330.2181" y1="550.8925" y2="545.5706"/>
    <line x1="329.0491" x2="329.0491" y1="544.8956" y2="550.2175"/>
    <line x1="327.8801" x2="327.8801" y1="549.5426" y2="544.2207"/>
    <line x1="326.7111" x2="326.7111" y1="543.5458" y2="548.8677"/>
    <line x1="325.5421" x2="325.5421" y1="548.1928" y2="542.8709"/>
    <line x1="324.3731" x2="324.3731" y1="542.196" y2="547.5179"/>
    <line x1="323.2041" x2="323.2041" y1="546.843" y2="541.5211"/>
    <line x1="322.0352" x2="322.0352" y1="540.8461" y2="546.1681"/>
    <line x1="320.8662" x2="320.8662" y1="545.4931" y2="540.1712"/>
    <line x1="319.6972" x2="319.6972" y1="539.4963" y2="544.8182"/>
    <line x1="318.5282" x2="318.5282" y1="544.1433" y2="538.8214"/>
    <line x1="317.3592" x2="317.3592" y1="538.1465" y2="543.4684"/>
    <line x1="316.1902" x2="316.1902" y1="542.7935" y2="537.4716"/>
    <line x1="315.0212" x2="331.3871" y1="536.7966" y2="546.2455"/>
    <line x1="333.725" x2="333.725" y1="545.9221" y2="544.8956"/>
    <line x1="336.063" x2="336.063" y1="544.5723" y2="543.5458"/>
    <line x1="338.401" x2="338.401" y1="543.2224" y2="542.196"/>
    <line x1="340.739" x2="340.739" y1="541.8726" y2="540.8461"/>
    <line x1="343.0769" x2="343.0769" y1="540.5228" y2="539.4963"/>
    <line x1="345.4149" x2="345.4149" y1="539.1729" y2="538.1465"/>
    <polyline points="347.7529,537.8231 347.7529,536.7966 331.3871,527.3478 315.0212,536.7966 315.0212,542.1186 315.0212,538.7658 298.6554,529.317 282.2896,538.7658 282.2896,544.3312"/>
    <line x1="291.6415" x2="291.6415" y1="557.8295" y2="559.5629"/>
    <line x1="289.3035" x2="289.3035" y1="559.1793" y2="560.9127"/>
    <line x1="286.9655" x2="286.9655" y1="560.5291" y2="562.2626"/>
    <line x1="284.6275" x2="284.6275" y1="561.879" y2="563.6124"/>
    <line x1="293.9794" x2="293.9794" y1="558.2131" y2="556.4796"/>
    <line x1="296.3174" x2="296.3174" y1="556.8632" y2="555.1298"/>
    <line x1="299.8244" x2="299.8244" y1="556.1883" y2="552.2423"/>
    <line x1="300.9934" x2="300.9934" y1="552.9172" y2="556.8632"/>
    <line x1="302.1624" x2="302.1624" y1="557.5382" y2="553.5921"/>
    <line x1="303.3313" x2="303.3313" y1="554.267" y2="558.2131"/>
    <line x1="304.5003" x2="304.5003" y1="558.888" y2="554.942"/>
    <line x1="305.6693" x2="305.6693" y1="555.6169" y2="559.5629"/>
    <line x1="306.8383" x2="306.8383" y1="560.2378" y2="556.2918"/>
    <line x1="308.0073" x2="308.0073" y1="556.9667" y2="560.9127"/>
    <line x1="309.1763" x2="309.1763" y1="561.5877" y2="557.6416"/>
    <line x1="310.3453" x2="310.3453" y1="558.3165" y2="562.2626"/>
    <line x1="311.5143" x2="311.5143" y1="562.9375" y2="558.9914"/>
    <line x1="312.6832" x2="312.6832" y1="559.6664" y2="563.6124"/>
    <line x1="312.6832" x2="312.6832" y1="566.3121" y2="572.3043"/>
    <line x1="310.3453" x2="310.3453" y1="573.6541" y2="567.6619"/>
    <line x1="308.0073" x2="308.0073" y1="569.0117" y2="575.0039"/>
    <line x1="305.6693" x2="305.6693" y1="576.3538" y2="570.3616"/>
    <line x1="303.3313" x2="303.3313" y1="571.7114" y2="577.7036"/>
    <line x1="300.9934" x2="300.9934" y1="579.0534" y2="573.0612"/>
    <line x1="298.6554" x2="315.0212" y1="580.4033" y2="589.8521"/>
    <line x1="313.8522" x2="313.8522" y1="589.1772" y2="630.6338"/>
    <line x1="312.6832" x2="312.6832" y1="629.9589" y2="588.5023"/>
    <line x1="311.5143" x2="311.5143" y1="587.8273" y2="629.284"/>
    <line x1="310.3453" x2="310.3453" y1="628.6091" y2="587.1524"/>
    <line x1="309.1763" x2="309.1763" y1="586.4775" y2="627.9342"/>
    <line x1="308.0073" x2="308.0073" y1="627.2592" y2="585.8026"/>
    <line x1="306.8383" x2="306.8383" y1="585.1277" y2="626.5843"/>
    <line x1="305.6693" x2="305.6693" y1="625.9094" y2="584.4528"/>
    <line x1="304.5003" x2="304.5003" y1="583.7778" y2="625.2345"/>
    <line x1="303.3313" x2="303.3313" y1="624.5596" y2="583.1029"/>
    <line x1="302.1624" x2="302.1624" y1="582.428" y2="623.8847"/>
    <line x1="300.9934" x2="300.9934" y1="623.2097" y2="581.7531"/>
    <line x1="299.8244" x2="299.8244" y1="581.0782" y2="622.5348"/>
    <polyline points="331.3871,611.1156 347.7529,620.5644 364.1187,611.1156 364.1187,606.5908"/>
    <line x1="362.9497" x2="362.9497" y1="605.9159" y2="610.4407"/>
    <line x1="361.7807" x2="361.7807" y1="609.7657" y2="605.241"/>
    <line x1="360.6118" x2="360.6118" y1="604.566" y2="609.0908"/>
    <line x1="359.4428" x2="359.4428" y1="608.4159" y2="603.8911"/>
    <line x1="358.2738" x2="358.2738" y1="603.2162" y2="607.741"/>
    <line x1="357.1048" x2="357.1048" y1="607.0661" y2="602.5413"/>
    <line x1="355.9358" x2="355.9358" y1="601.8664" y2="606.3912"/>
    <line x1="354.7668" x2="354.7668" y1="605.7162" y2="601.1915"/>
    <line x1="353.5978" x2="353.5978" y1="600.5166" y2="605.0413"/>
    <line x1="352.4288" x2="352.4288" y1="604.3664" y2="599.8416"/>
    <line x1="351.2599" x2="351.2599" y1="599.1667" y2="603.6915"/>
    <line x1="350.0909" x2="350.0909" y1="603.0166" y2="598.4918"/>
    <line x1="348.9219" x2="348.9219" y1="597.8169" y2="602.3417"/>
    <line x1="343.0769" x2="343.0769" y1="604.3664" y2="588.3872"/>
    <line x1="340.739" x2="340.739" y1="589.737" y2="605.7162"/>
    <line x1="338.401" x2="338.401" y1="607.0661" y2="591.0868"/>
    <line x1="336.063" x2="336.063" y1="592.4367" y2="608.4159"/>
    <line x1="333.725" x2="333.725" y1="609.7657" y2="593.7865"/>
    <line x1="350.0909" x2="350.0909" y1="595.7921" y2="580.7611"/>
    <polyline points="347.7529,582.1109 347.7529,585.6875 331.3871,595.1363 315.0212,585.6875"/>
    <line x1="329.0491" x2="329.0491" y1="577.5885" y2="569.2326"/>
    <line x1="330.2181" x2="330.2181" y1="569.9076" y2="576.9136"/>
    <polyline points="331.3871,576.2387 331.3871,572.6621 347.7529,563.2133 364.1187,572.6621 364.1187,587.6932"/>
    <line x1="366.4567" x2="366.4567" y1="589.043" y2="572.3247"/>
    <polyline points="364.1187,572.6621 347.7529,582.1109 331.3871,572.6621 331.3871,570.5825"/>
    <line x1="352.4288" x2="352.4288" y1="579.4112" y2="594.4423"/>
    <line x1="354.7668" x2="354.7668" y1="593.0925" y2="578.0614"/>
    <line x1="357.1048" x2="357.1048" y1="576.7116" y2="591.7426"/>
    <line x1="359.4428" x2="359.4428" y1="590.3928" y2="575.3618"/>
    <line x1="361.7807" x2="361.7807" y1="574.0119" y2="589.043"/>
    <line x1="368.7947" x2="368.7947" y1="590.3928" y2="570.9748"/>
    <line x1="371.1327" x2="371.1327" y1="569.625" y2="591.7426"/>
    <line x1="373.4706" x2="373.4706" y1="593.0925" y2="568.2752"/>
    <line x1="375.8086" x2="375.8086" y1="566.9253" y2="594.4423"/>
    <line x1="378.1466" x2="378.1466" y1="595.7921" y2="565.5755"/>
    <line x1="380.4846" x2="364.1187" y1="564.2257" y2="573.6745"/>
    <polyline points="380.4846,575.2127 396.8504,565.7639 396.8504,560.4872 380.4846,551.0384"/>
    <polyline points="364.1187,547.2719 347.7529,556.7207 331.3871,547.2719 331.3871,546.2455 347.7529,536.7966"/>
    <line x1="343.0769" x2="343.0769" y1="530.2905" y2="529.2116"/>
    <line x1="345.4149" x2="345.4149" y1="528.9406" y2="527.8617"/>
    <line x1="340.739" x2="340.739" y1="530.5614" y2="531.6403"/>
    <polyline points="326.2221,530.3298 315.0212,523.863 302.115,531.3144"/>
    <line x1="311.5143" x2="311.5143" y1="525.8878" y2="520.7612"/>
    <line x1="312.6832" x2="312.6832" y1="521.4361" y2="525.2129"/>
    <line x1="313.8522" x2="313.8522" y1="524.5379" y2="522.111"/>
    <line x1="315.0212" x2="298.6554" y1="538.7658" y2="548.2147"/>
    <line x1="300.9934" x2="300.9934" y1="546.8648" y2="550.2175"/>
    <line x1="303.3313" x2="303.3313" y1="548.8677" y2="545.515"/>
    <line x1="305.6693" x2="305.6693" y1="544.1652" y2="547.5179"/>
    <line x1="308.0073" x2="308.0073" y1="546.1681" y2="542.8153"/>
    <line x1="310.3453" x2="310.3453" y1="541.4655" y2="544.8182"/>
    <line x1="312.6832" x2="312.6832" y1="543.4684" y2="540.1157"/>
    <line x1="336.063" x2="336.063" y1="514.7492" y2="497.9601"/>
    <line x1="338.401" x2="338.401" y1="496.6103" y2="513.3994"/>
    <line x1="340.739" x2="340.739" y1="512.0496" y2="495.2604"/>
    <line x1="343.0769" x2="343.0769" y1="493.9106" y2="510.6998"/>
    <line x1="345.4149" x2="345.4149" y1="509.3499" y2="492.5608"/>
    <line x1="343.3107" x2="343.3107" y1="489.9961" y2="474.878"/>
    <line x1="345.6487" x2="345.6487" y1="473.5282" y2="488.6463"/>
    <polyline points="344.4797,489.3212 347.7529,491.211 347.7529,508.0001"/>
    <polyline points="348.7989,508.604 364.1187,499.7591 380.4846,509.2079 380.4846,538.7103 380.4846,519.4037 396.8504,509.9549 396.8504,497.2813 380.4846,487.8325"/>
    <line x1="383.9915" x2="383.9915" y1="484.0421" y2="484.0421"/>
    <line x1="387.4985" x2="387.4985" y1="486.0669" y2="486.0669"/>
    <line x1="391.0055" x2="391.0055" y1="488.0916" y2="488.0916"/>
    <line x1="392.1744" x2="392.1744" y1="488.7665" y2="488.7665"/>
    <line x1="395.6814" x2="395.6814" y1="490.7913" y2="490.7913"/>
    <line x1="394.5124" x2="394.5124" y1="492.816" y2="492.816"/>
    <line x1="405.0333" x2="405.0333" y1="496.1906" y2="496.1906"/>
    <line x1="407.3713" x2="407.3713" y1="516.4381" y2="516.4381"/>
    <line x1="412.0472" x2="412.0472" y1="519.1378" y2="519.1378"/>
    <line x1="406.2023" x2="406.2023" y1="523.8622" y2="523.8622"/>
    <line x1="420.2302" x2="420.2302" y1="523.8622" y2="523.8622"/>
    <line x1="429.5821" x2="445.9479" y1="536.7208" y2="546.1696"/>
    <polyline points="445.9479,547.1987 445.9479,544.3373 462.3137,534.8884 473.8709,541.561"/>
    <line x1="478.6796" x2="495.0454" y1="551.8967" y2="561.3455"/>
    <line x1="493.8764" x2="493.8764" y1="561.109" y2="560.6706"/>
    <line x1="492.7074" x2="492.7074" y1="560.4341" y2="559.9957"/>
    <line x1="491.5384" x2="491.5384" y1="559.7592" y2="559.3207"/>
    <line x1="490.3694" x2="490.3694" y1="559.0843" y2="558.6458"/>
    <line x1="489.2005" x2="489.2005" y1="558.4093" y2="557.9709"/>
    <line x1="488.0315" x2="488.0315" y1="557.7344" y2="557.296"/>
    <line x1="486.8625" x2="486.8625" y1="557.0595" y2="556.6211"/>
    <line x1="485.6935" x2="485.6935" y1="556.3846" y2="555.9462"/>
    <line x1="484.5245" x2="484.5245" y1="555.7097" y2="555.2713"/>
    <line x1="483.3555" x2="483.3555" y1="555.0348" y2="554.5963"/>
    <line x1="482.1865" x2="482.1865" y1="554.3599" y2="553.9214"/>
    <line x1="481.0175" x2="481.0175" y1="553.6849" y2="553.2465"/>
    <line x1="479.8486" x2="479.8486" y1="553.01" y2="552.5716"/>
    <polyline points="478.6796,552.3351 478.6796,551.8967 495.0454,542.4479 511.4112,551.8967 511.4112,555.0714"/>
    <line x1="513.1459" x2="527.7771" y1="556.0729" y2="547.6256"/>
    <line x1="513.7492" x2="513.7492" y1="555.7245" y2="556.2581"/>
    <line x1="509.0733" x2="509.0733" y1="556.4212" y2="553.2465"/>
    <line x1="506.7353" x2="506.7353" y1="554.5963" y2="557.771"/>
    <line x1="504.3973" x2="504.3973" y1="559.1209" y2="555.9462"/>
    <line x1="502.0593" x2="502.0593" y1="557.296" y2="560.4707"/>
    <line x1="499.7214" x2="499.7214" y1="561.8205" y2="558.6458"/>
    <line x1="497.3834" x2="497.3834" y1="559.9957" y2="563.1704"/>
    <line x1="492.7074" x2="492.7074" y1="563.1338" y2="566.2065"/>
    <line x1="490.3694" x2="490.3694" y1="567.5563" y2="564.4836"/>
    <line x1="488.0315" x2="488.0315" y1="565.8334" y2="568.9061"/>
    <line x1="485.6935" x2="485.6935" y1="570.256" y2="567.1832"/>
    <line x1="483.3555" x2="483.3555" y1="568.5331" y2="571.6058"/>
    <line x1="476.3416" x2="476.3416" y1="569.9041" y2="569.9041"/>
    <line x1="475.1726" x2="475.1726" y1="569.2292" y2="569.2292"/>
    <line x1="474.0036" x2="474.0036" y1="568.5543" y2="568.5543"/>
    <line x1="472.8346" x2="472.8346" y1="567.8794" y2="567.8794"/>
    <line x1="471.6656" x2="471.6656" y1="567.2045" y2="567.2045"/>
    <line x1="470.4966" x2="470.4966" y1="566.5295" y2="566.5295"/>
    <line x1="469.3277" x2="469.3277" y1="565.8546" y2="565.8546"/>
    <line x1="468.1587" x2="468.1587" y1="565.1797" y2="565.1797"/>
    <line x1="466.9897" x2="466.9897" y1="564.5048" y2="564.5048"/>
    <line x1="465.8207" x2="465.8207" y1="563.8299" y2="563.8299"/>
    <line x1="464.6517" x2="464.6517" y1="563.155" y2="563.155"/>
    <line x1="463.4827" x2="463.4827" y1="562.48" y2="562.48"/>
    <line x1="469.3277" x2="469.3277" y1="553.4036" y2="552.2831"/>
    <line x1="468.1587" x2="468.1587" y1="552.7286" y2="551.6081"/>
    <line x1="466.9897" x2="466.9897" y1="552.0537" y2="550.9332"/>
    <line x1="465.8207" x2="465.8207" y1="551.3788" y2="550.2583"/>
    <line x1="464.6517" x2="464.6517" y1="550.7039" y2="549.5834"/>
    <line x1="463.4827" x2="463.4827" y1="550.029" y2="548.9085"/>
    <polyline points="462.3137,549.3541 462.3137,548.2336 478.6796,538.7848 490.0348,545.3407"/>
    <line x1="474.0036" x2="462.3137" y1="555.0348" y2="548.2336"/>
    <line x1="458.4755" x2="445.9479" y1="551.5701" y2="544.3373"/>
    <line x1="447.1169" x2="447.1169" y1="545.0122" y2="547.8736"/>
    <line x1="448.2859" x2="448.2859" y1="548.5485" y2="545.6871"/>
    <line x1="449.4549" x2="449.4549" y1="546.362" y2="549.2234"/>
    <line x1="450.6238" x2="450.6238" y1="549.8983" y2="547.0369"/>
    <line x1="451.7928" x2="451.7928" y1="547.7118" y2="550.5732"/>
    <line x1="452.9618" x2="452.9618" y1="551.2481" y2="548.3868"/>
    <line x1="454.1308" x2="454.1308" y1="549.0617" y2="551.9231"/>
    <line x1="455.2998" x2="455.2998" y1="552.598" y2="549.7366"/>
    <line x1="456.4688" x2="456.4688" y1="550.4115" y2="552.7286"/>
    <polyline points="455.9975,553.0008 445.9479,547.1987 429.5821,556.6475 429.5821,558.5246"/>
    <line x1="430.7511" x2="430.7511" y1="559.1996" y2="557.3224"/>
    <line x1="429.5821" x2="440.9868" y1="556.6475" y2="563.232"/>
    <line x1="440.103" x2="440.103" y1="563.7422" y2="562.7217"/>
    <line x1="438.934" x2="438.934" y1="562.0468" y2="563.924"/>
    <polyline points="439.3611,564.1706 429.5821,558.5246 413.2162,567.9735 413.2162,570.6441"/>
    <line x1="414.3852" x2="414.3852" y1="571.319" y2="568.6484"/>
    <line x1="413.2162" x2="424.6903" y1="567.9735" y2="574.598"/>
    <line x1="423.7371" x2="423.7371" y1="575.1483" y2="574.0477"/>
    <line x1="422.5681" x2="422.5681" y1="573.3728" y2="575.8233"/>
    <polyline points="422.3775,575.9333 413.2162,570.6441 396.8504,580.0929 413.2162,589.5417"/>
    <line x1="408.5403" x2="408.5403" y1="598.1029" y2="598.1029"/>
    <line x1="396.8504" x2="380.4846" y1="604.852" y2="595.4032"/>
    <line x1="382.8225" x2="382.8225" y1="594.0534" y2="573.8628"/>
    <line x1="385.1605" x2="385.1605" y1="572.513" y2="592.7036"/>
    <line x1="387.4985" x2="387.4985" y1="591.3537" y2="571.1632"/>
    <line x1="389.8365" x2="389.8365" y1="569.8133" y2="590.0039"/>
    <line x1="392.1744" x2="392.1744" y1="588.6541" y2="568.4635"/>
    <line x1="394.5124" x2="394.5124" y1="567.1137" y2="587.3042"/>
    <line x1="385.1605" x2="385.1605" y1="598.1029" y2="598.1029"/>
    <line x1="378.1466" x2="378.1466" y1="598.4918" y2="615.6507"/>
    <line x1="375.8086" x2="375.8086" y1="617.0005" y2="599.8416"/>
    <line x1="373.4706" x2="373.4706" y1="601.1915" y2="618.3503"/>
    <line x1="371.1327" x2="371.1327" y1="619.7002" y2="602.5413"/>
    <line x1="368.7947" x2="368.7947" y1="603.8911" y2="621.05"/>
    <line x1="366.4567" x2="366.4567" y1="622.3998" y2="605.241"/>
    <line x1="361.7807" x2="361.7807" y1="612.4654" y2="625.0995"/>
    <line x1="359.4428" x2="359.4428" y1="626.4493" y2="613.8152"/>
    <line x1="357.1048" x2="357.1048" y1="615.1651" y2="627.7992"/>
    <line x1="354.7668" x2="354.7668" y1="629.149" y2="616.5149"/>
    <line x1="352.4288" x2="352.4288" y1="617.8647" y2="630.4988"/>
    <line x1="350.0909" x2="350.0909" y1="631.8487" y2="619.2146"/>
    <line x1="345.4149" x2="345.4149" y1="619.2146" y2="648.8565"/>
    <line x1="344.2459" x2="344.2459" y1="648.1816" y2="618.5396"/>
    <line x1="343.0769" x2="343.0769" y1="617.8647" y2="647.5067"/>
    <line x1="341.9079" x2="341.9079" y1="646.8318" y2="617.1898"/>
    <line x1="340.739" x2="340.739" y1="616.5149" y2="646.1569"/>
    <line x1="339.57" x2="339.57" y1="645.482" y2="615.84"/>
    <line x1="338.401" x2="338.401" y1="615.1651" y2="644.807"/>
    <line x1="337.232" x2="337.232" y1="644.1321" y2="614.4901"/>
    <line x1="336.063" x2="336.063" y1="613.8152" y2="643.4572"/>
    <line x1="334.894" x2="334.894" y1="642.7823" y2="613.1403"/>
    <line x1="333.725" x2="333.725" y1="612.4654" y2="642.1074"/>
    <line x1="332.556" x2="332.556" y1="641.4325" y2="611.7905"/>
    <line x1="348.9219" x2="348.9219" y1="633.8734" y2="650.8813"/>
    <line x1="350.0909" x2="350.0909" y1="651.5562" y2="634.5483"/>
    <line x1="351.2599" x2="351.2599" y1="635.2232" y2="652.2311"/>
    <line x1="352.4288" x2="352.4288" y1="652.906" y2="635.8982"/>
    <line x1="353.5978" x2="353.5978" y1="636.5731" y2="653.5809"/>
    <line x1="354.7668" x2="354.7668" y1="654.2559" y2="637.248"/>
    <line x1="355.9358" x2="355.9358" y1="637.9229" y2="654.9308"/>
    <line x1="357.1048" x2="357.1048" y1="655.6057" y2="638.5978"/>
    <line x1="358.2738" x2="358.2738" y1="639.2727" y2="656.2806"/>
    <line x1="359.4428" x2="359.4428" y1="656.9555" y2="639.9477"/>
    <line x1="360.6118" x2="360.6118" y1="640.6226" y2="657.6304"/>
    <line x1="361.7807" x2="361.7807" y1="658.3054" y2="641.2975"/>
    <line x1="362.9497" x2="362.9497" y1="641.9724" y2="658.9803"/>
    <polyline points="364.1187,659.6552 347.7529,650.2064 347.7529,633.1985 364.1187,623.7497 380.4846,633.1985 364.1187,623.7497"/>
    <line x1="368.7947" x2="368.7947" y1="639.9477" y2="639.9477"/>
    <line x1="366.4567" x2="366.4567" y1="643.9971" y2="661.005"/>
    <line x1="367.6257" x2="367.6257" y1="661.6799" y2="644.6721"/>
    <line x1="368.7947" x2="368.7947" y1="645.347" y2="662.3548"/>
    <line x1="369.9637" x2="369.9637" y1="663.0298" y2="646.0219"/>
    <line x1="371.1327" x2="371.1327" y1="646.6968" y2="663.7047"/>
    <line x1="372.3016" x2="372.3016" y1="664.3796" y2="647.3717"/>
    <line x1="373.4706" x2="373.4706" y1="648.0466" y2="665.0545"/>
    <line x1="374.6396" x2="374.6396" y1="665.7294" y2="648.7216"/>
    <line x1="375.8086" x2="375.8086" y1="649.3965" y2="666.4043"/>
    <line x1="376.9776" x2="376.9776" y1="667.0793" y2="650.0714"/>
    <line x1="378.1466" x2="378.1466" y1="650.7463" y2="667.7542"/>
    <line x1="365.2877" x2="365.2877" y1="660.3301" y2="643.3222"/>
    <line x1="385.1605" x2="385.1605" y1="649.3965" y2="649.3965"/>
    <line x1="387.4985" x2="387.4985" y1="648.0466" y2="648.0466"/>
    <polyline points="408.14,573.5748 396.8504,567.0568 413.2162,557.6079 422.193,562.7907"/>
    <line x1="417.8922" x2="417.8922" y1="570.6731" y2="573.3438"/>
    <line x1="416.7232" x2="416.7232" y1="572.6688" y2="569.9982"/>
    <line x1="415.5542" x2="415.5542" y1="569.3233" y2="571.9939"/>
    <line x1="419.0612" x2="419.0612" y1="571.348" y2="574.0187"/>
    <line x1="420.2302" x2="420.2302" y1="574.6936" y2="572.023"/>
    <line x1="421.3991" x2="421.3991" y1="572.6979" y2="575.3685"/>
    <line x1="429.5821" x2="440.3151" y1="569.8165" y2="576.0132"/>
    <line x1="440.103" x2="440.103" y1="575.8907" y2="576.1357"/>
    <line x1="437.765" x2="437.765" y1="563.2491" y2="561.3719"/>
    <line x1="436.596" x2="436.596" y1="560.697" y2="562.5741"/>
    <line x1="435.427" x2="435.427" y1="561.8992" y2="560.022"/>
    <line x1="434.258" x2="434.258" y1="559.3471" y2="561.2243"/>
    <line x1="433.089" x2="433.089" y1="560.5494" y2="558.6722"/>
    <line x1="431.92" x2="431.92" y1="557.9973" y2="559.8745"/>
    <line x1="438.934" x2="438.934" y1="551.2481" y2="542.1201"/>
    <line x1="440.103" x2="440.103" y1="542.795" y2="550.5732"/>
    <line x1="441.2719" x2="441.2719" y1="549.8983" y2="543.4699"/>
    <line x1="442.4409" x2="442.4409" y1="544.1448" y2="549.2234"/>
    <line x1="443.6099" x2="443.6099" y1="548.5485" y2="544.8197"/>
    <line x1="444.7789" x2="444.7789" y1="545.4947" y2="547.8736"/>
    <line x1="445.9479" x2="445.9479" y1="538.7103" y2="538.7103"/>
    <line x1="438.934" x2="438.934" y1="523.8622" y2="523.8622"/>
    <line x1="440.103" x2="440.103" y1="516.4381" y2="516.4381"/>
    <line x1="444.7789" x2="444.7789" y1="519.1378" y2="519.1378"/>
    <line x1="459.9758" x2="459.9758" y1="511.7137" y2="511.7137"/>
    <polyline points="462.3137,510.3638 445.9479,500.915 429.5821,510.3638 413.2162,500.915 396.8504,510.3638 413.2162,519.8127 429.5821,510.3638 445.9479,519.8127 462.3137,510.3638 478.6796,519.8127"/>
    <line x1="470.4966" x2="470.4966" y1="552.958" y2="554.0785"/>
    <line x1="471.6656" x2="471.6656" y1="553.6329" y2="554.7534"/>
    <line x1="472.8346" x2="472.8346" y1="554.3078" y2="555.4283"/>
    <polyline points="473.0783,555.569 462.3137,549.3541 445.9479,558.8029 445.9479,560.3677"/>
    <line x1="457.6378" x2="457.6378" y1="552.0537" y2="551.0864"/>
    <line x1="481.0175" x2="481.0175" y1="587.2107" y2="629.9589"/>
    <line x1="483.3555" x2="483.3555" y1="628.6091" y2="585.8608"/>
    <line x1="485.6935" x2="485.6935" y1="584.511" y2="627.2592"/>
    <line x1="488.0315" x2="488.0315" y1="625.9094" y2="583.1612"/>
    <line x1="490.3694" x2="490.3694" y1="581.8113" y2="624.5596"/>
    <line x1="394.5124" x2="394.5124" y1="564.414" y2="561.837"/>
    <line x1="392.2807" x2="396.8504" y1="563.1255" y2="560.4872"/>
    <line x1="352.4288" x2="352.4288" y1="506.5083" y2="489.5329"/>
    <line x1="350.0909" x2="350.0909" y1="490.8828" y2="507.8581"/>
    <line x1="340.9728" x2="340.9728" y1="491.3459" y2="476.2278"/>
    <line x1="347.9867" x2="347.9867" y1="472.1783" y2="487.2964"/>
    <line x1="350.3247" x2="350.3247" y1="485.9466" y2="470.8285"/>
    <polyline points="354.2992,468.5338 354.2992,485.5417 355.9358,484.5968 355.9358,467.5889"/>
    <line x1="357.1048" x2="357.1048" y1="468.3439" y2="477.4119"/>
    <line x1="359.4428" x2="359.4428" y1="476.0621" y2="466.9941"/>
    <line x1="361.7807" x2="361.7807" y1="465.6443" y2="474.7122"/>
    <polyline points="364.1187,473.3624 364.1187,464.2944 357.1693,460.2822"/>
    <polyline points="355.9358,469.0188 364.1187,464.2944 380.4846,473.8755 380.4846,482.8112 364.1187,492.26"/>
    <line x1="372.746" x2="380.4846" y1="478.3434" y2="473.8755"/>
    <line x1="378.1466" x2="378.1466" y1="475.2253" y2="481.4614"/>
    <line x1="375.8086" x2="375.8086" y1="480.1116" y2="476.5752"/>
    <line x1="373.4706" x2="373.4706" y1="477.925" y2="478.7617"/>
    <line x1="332.7898" x2="332.7898" y1="476.9027" y2="469.6137"/>
    <line x1="324.0224" x2="324.0224" y1="471.8409" y2="488.8488"/>
    <line x1="322.0352" x2="322.0352" y1="477.3693" y2="476.9831"/>
    <line x1="320.8662" x2="320.8662" y1="476.6944" y2="476.3082"/>
    <line x1="319.6972" x2="319.6972" y1="476.0195" y2="475.6333"/>
    <line x1="318.5282" x2="318.5282" y1="475.3445" y2="474.9583"/>
    <line x1="317.3592" x2="317.3592" y1="474.6696" y2="474.2834"/>
    <line x1="316.1902" x2="316.1902" y1="473.9947" y2="473.6085"/>
    <line x1="339.57" x2="339.57" y1="450.581" y2="450.581"/>
    <line x1="341.8612" x2="341.8612" y1="449.2582" y2="449.2582"/>
    <line x1="346.4436" x2="346.4436" y1="446.6125" y2="446.6125"/>
    <line x1="427.2441" x2="427.2441" y1="492.816" y2="492.816"/>
    <line x1="249.5579" x2="233.192" y1="576.5056" y2="567.0568"/>
    <line x1="234.361" x2="234.361" y1="567.7317" y2="584.7396"/>
    <line x1="235.53" x2="235.53" y1="585.4145" y2="568.4066"/>
    <line x1="236.699" x2="236.699" y1="569.0815" y2="586.0894"/>
    <line x1="237.868" x2="237.868" y1="586.7643" y2="569.7564"/>
    <line x1="239.037" x2="239.037" y1="570.4313" y2="587.4392"/>
    <line x1="240.206" x2="240.206" y1="588.1141" y2="571.1063"/>
    <line x1="241.375" x2="241.375" y1="571.7812" y2="588.789"/>
    <line x1="242.544" x2="242.544" y1="589.464" y2="572.4561"/>
    <line x1="243.7129" x2="243.7129" y1="573.131" y2="590.1389"/>
    <line x1="244.8819" x2="244.8819" y1="590.8138" y2="573.8059"/>
    <line x1="246.0509" x2="246.0509" y1="574.4808" y2="591.4887"/>
    <line x1="247.2199" x2="247.2199" y1="592.1636" y2="575.1557"/>
    <line x1="248.3889" x2="248.3889" y1="575.8307" y2="592.8385"/>
  </g>
</svg>
