<?xml version="1.0" encoding="utf-8" ?>
<svg xmlns="http://www.w3.org/2000/svg" xmlns:cc="http://creativecommons.org/ns#" xmlns:dc="http://purl.org/dc/elements/1.1/" xmlns:ev="http://www.w3.org/2001/xml-events" xmlns:inkscape="http://www.inkscape.org/namespaces/inkscape" xmlns:rdf="http://www.w3.org/1999/02/22-rdf-syntax-ns#" xmlns:sodipodi="http://sodipodi.sourceforge.net/DTD/sodipodi-0.dtd" xmlns:xlink="http://www.w3.org/1999/xlink" baseProfile="tiny" height="29.7cm" version="1.2" viewBox="0 0 793.7007874015749 1122.5196850393702" width="21.0cm">
  <metadata>
    <rdf:RDF>
      <cc:Work>
        <dc:format>image/svg+xml</dc:format>
        <dc:source/>
        <dc:date>2022-01-09T12:57:54.553200</dc:date>
      </cc:Work>
    </rdf:RDF>
  </metadata>
  <defs/>
  <g fill="none" id="layer2" inkscape:groupmode="layer" inkscape:label="2" stroke="#00f" style="display:inline">
    <polyline points="380.4846,448.8189 396.8504,439.3701 413.2162,448.8189"/>
    <line x1="410.8783" x2="410.8783" y1="450.1687" y2="450.1687"/>
    <polyline points="409.4145,459.7494 396.8504,452.4955 380.4846,461.9443 380.4846,467.7165 364.1187,458.2677 347.7529,467.7165"/>
    <line x1="351.2599" x2="351.2599" y1="469.7413" y2="469.7413"/>
    <line x1="354.7668" x2="354.7668" y1="471.766" y2="471.766"/>
    <line x1="358.2738" x2="358.2738" y1="473.7908" y2="473.7908"/>
    <line x1="359.4428" x2="359.4428" y1="474.4657" y2="474.4657"/>
    <line x1="362.9497" x2="362.9497" y1="476.4904" y2="476.4904"/>
    <line x1="361.7807" x2="361.7807" y1="478.5152" y2="478.5152"/>
    <line x1="366.4567" x2="366.4567" y1="478.5152" y2="478.5152"/>
    <line x1="367.6257" x2="367.6257" y1="479.1901" y2="479.1901"/>
    <line x1="371.1327" x2="371.1327" y1="481.2148" y2="481.2148"/>
    <line x1="372.3016" x2="372.3016" y1="481.8898" y2="481.8898"/>
    <line x1="379.3156" x2="379.3156" y1="485.9393" y2="485.9393"/>
    <line x1="381.6535" x2="381.6535" y1="487.2891" y2="476.3837"/>
    <line x1="380.4846" x2="394.7503" y1="475.7088" y2="483.9451"/>
    <line x1="394.5124" x2="394.5124" y1="483.8078" y2="484.0825"/>
    <line x1="393.3434" x2="393.3434" y1="484.9734" y2="483.1329"/>
    <line x1="392.1744" x2="392.1744" y1="482.458" y2="486.7282"/>
    <line x1="392.4082" x2="392.4082" y1="486.3772" y2="500.9554"/>
    <polyline points="391.9406,500.6854 391.9406,515.8035 400.1236,520.5279"/>
    <line x1="399.578" x2="399.4222" y1="520.213" y2="500.1455"/>
    <line x1="398.2532" x2="398.2532" y1="497.0409" y2="504.33"/>
    <line x1="398.487" x2="398.487" y1="504.4649" y2="519.583"/>
    <line x1="397.3959" x2="397.3959" y1="518.9531" y2="503.835"/>
    <line x1="397.0842" x2="397.0842" y1="503.655" y2="493.9363"/>
    <line x1="395.9152" x2="395.9152" y1="490.8316" y2="502.9801"/>
    <line x1="396.3049" x2="396.3049" y1="503.2051" y2="518.3232"/>
    <line x1="395.2138" x2="395.2138" y1="517.6933" y2="502.5752"/>
    <line x1="394.7462" x2="394.7462" y1="502.3052" y2="487.727"/>
    <line x1="391.2393" x2="391.2393" y1="488.132" y2="500.2805"/>
    <polyline points="390.3041,499.7405 390.3041,516.7484 391.9406,515.8035"/>
    <line x1="393.0317" x2="393.0317" y1="516.4334" y2="501.3153"/>
    <polyline points="393.5772,501.6303 385.3943,496.9059 393.5772,484.6224 401.7601,506.3547 424.6723,493.1264 416.4894,471.3941 393.5772,484.6224 393.5772,501.6303 401.7601,506.3547 401.7601,523.3626 403.3967,522.4177 403.3967,505.4098"/>
    <line x1="404.0981" x2="404.0981" y1="505.0049" y2="520.123"/>
    <line x1="403.3967" x2="418.126" y1="520.5279" y2="512.024"/>
    <line x1="418.9443" x2="418.9443" y1="512.4964" y2="496.4334"/>
    <polyline points="419.7626,495.961 419.7626,512.9689 421.3991,512.024 421.3991,495.0161"/>
    <line x1="421.3991" x2="425.8183" y1="497.4408" y2="499.9922"/>
    <polyline points="423.6093,498.7168 429.5821,495.2684 443.3644,503.2257"/>
    <polyline points="441.1554,504.501 445.9479,501.7341 462.3137,511.1829 462.3137,524.9848 478.6796,515.3233"/>
    <line x1="478.6796" x2="495.0454" y1="516.2024" y2="506.7536"/>
    <line x1="492.7074" x2="492.7074" y1="508.1034" y2="516.3105"/>
    <line x1="490.3694" x2="490.3694" y1="517.6603" y2="509.4532"/>
    <line x1="488.0315" x2="488.0315" y1="510.803" y2="519.0101"/>
    <line x1="485.6935" x2="485.6935" y1="520.36" y2="512.1529"/>
    <line x1="483.3555" x2="483.3555" y1="513.5027" y2="521.7098"/>
    <line x1="481.0175" x2="481.0175" y1="523.0596" y2="514.8525"/>
    <line x1="476.3416" x2="476.3416" y1="516.6732" y2="525.7593"/>
    <line x1="474.0036" x2="474.0036" y1="527.1091" y2="518.023"/>
    <line x1="471.6656" x2="471.6656" y1="519.3728" y2="528.4589"/>
    <polyline points="469.9984,529.4215 478.6796,524.4094 495.0454,533.8583 478.6796,524.4094"/>
    <line x1="485.6935" x2="485.6935" y1="528.4589" y2="528.4589"/>
    <polyline points="478.6796,534.4336 462.3137,543.8824 462.3137,552.7559"/>
    <line x1="464.6517" x2="464.6517" y1="551.4061" y2="542.5326"/>
    <line x1="466.9897" x2="466.9897" y1="541.1828" y2="550.0562"/>
    <line x1="469.3277" x2="469.3277" y1="548.7064" y2="539.8329"/>
    <line x1="471.6656" x2="471.6656" y1="538.4831" y2="547.3566"/>
    <line x1="474.0036" x2="474.0036" y1="546.0067" y2="537.1333"/>
    <line x1="476.3416" x2="476.3416" y1="535.7834" y2="544.6569"/>
    <polyline points="478.6796,543.3071 495.0454,552.7559 478.6796,543.3071 462.3137,552.7559 462.3137,531.0421 445.9479,521.5933 439.2198,525.4777"/>
    <line x1="438.934" x2="438.934" y1="525.3127" y2="511.3175"/>
    <line x1="436.596" x2="436.596" y1="512.6673" y2="523.9629"/>
    <line x1="434.258" x2="434.258" y1="522.613" y2="514.0172"/>
    <line x1="431.92" x2="431.92" y1="515.367" y2="521.2632"/>
    <polyline points="429.5821,519.9134 429.5821,509.1893 421.3991,504.4649"/>
    <polyline points="421.3991,502.5436 429.5821,497.8192 445.9479,507.268 445.9479,521.5933"/>
    <line x1="445.9479" x2="462.3137" y1="520.6317" y2="511.1829"/>
    <line x1="459.9758" x2="459.9758" y1="512.5327" y2="526.3346"/>
    <line x1="457.6378" x2="457.6378" y1="527.6844" y2="513.8825"/>
    <line x1="455.2998" x2="455.2998" y1="515.2324" y2="526.9926"/>
    <polyline points="457.0679,528.0134 462.3137,524.9848 478.6796,534.4336 478.6796,543.3071 495.0454,533.8583 511.4112,543.3071 527.7771,533.8583 544.1429,543.3071 560.5087,533.8583 576.8746,543.3071"/>
    <line x1="562.8467" x2="562.8467" y1="551.4061" y2="551.4061"/>
    <line x1="551.1568" x2="551.1568" y1="558.1552" y2="558.1552"/>
    <line x1="541.8049" x2="541.8049" y1="560.8549" y2="560.8549"/>
    <line x1="538.298" x2="538.298" y1="558.8301" y2="558.8301"/>
    <line x1="553.4948" x2="553.4948" y1="567.604" y2="567.604"/>
    <line x1="555.8328" x2="555.8328" y1="574.3532" y2="591.3611"/>
    <line x1="558.1708" x2="558.1708" y1="590.0112" y2="573.0034"/>
    <line x1="562.8467" x2="562.8467" y1="570.3037" y2="587.3116"/>
    <polyline points="560.5087,588.6614 576.8746,579.2126 576.8746,562.2047 560.5087,552.7559 544.1429,562.2047 527.7771,552.7559 511.4112,562.2047 495.0454,552.7559 478.6796,562.2047 462.3137,552.7559 458.3291,555.0565"/>
    <line x1="457.6378" x2="457.6378" y1="554.6573" y2="533.7418"/>
    <line x1="455.2998" x2="455.2998" y1="535.0916" y2="553.3075"/>
    <line x1="452.9618" x2="452.9618" y1="551.9577" y2="536.4414"/>
    <line x1="450.6238" x2="450.6238" y1="537.7913" y2="550.6079"/>
    <line x1="448.2859" x2="448.2859" y1="549.258" y2="539.1411"/>
    <line x1="445.9479" x2="462.3137" y1="540.4909" y2="531.0421"/>
    <line x1="459.9758" x2="459.9758" y1="532.3919" y2="554.1057"/>
    <line x1="462.3137" x2="445.9479" y1="557.357" y2="566.8058"/>
    <line x1="448.2859" x2="448.2859" y1="565.456" y2="572.8366"/>
    <line x1="450.6238" x2="450.6238" y1="574.1864" y2="564.1062"/>
    <line x1="452.9618" x2="452.9618" y1="562.7563" y2="575.5363"/>
    <polyline points="454.2752,576.2946 462.3137,571.6535 478.6796,581.1024 495.0454,571.6535 511.4112,581.1024 527.7771,571.6535 544.1429,581.1024 544.1429,598.1102 527.7771,607.5591"/>
    <line x1="530.115" x2="530.115" y1="606.2092" y2="589.2013"/>
    <line x1="532.453" x2="532.453" y1="587.8515" y2="604.8594"/>
    <line x1="534.791" x2="534.791" y1="603.5096" y2="586.5017"/>
    <line x1="537.129" x2="537.129" y1="585.1519" y2="602.1597"/>
    <line x1="539.467" x2="539.467" y1="600.8099" y2="583.802"/>
    <line x1="541.8049" x2="541.8049" y1="582.4522" y2="599.4601"/>
    <polyline points="544.1429,598.1102 560.5087,588.6614 560.5087,571.6535 544.1429,562.2047 527.7771,571.6535 511.4112,562.2047 495.0454,571.6535 478.6796,562.2047 462.3137,571.6535 462.3137,557.357 445.9479,547.9082 437.0892,553.0228"/>
    <line x1="436.596" x2="436.596" y1="552.738" y2="534.7615"/>
    <line x1="438.934" x2="438.934" y1="533.4117" y2="551.9577"/>
    <line x1="441.2719" x2="441.2719" y1="550.6079" y2="532.0618"/>
    <line x1="443.6099" x2="443.6099" y1="530.712" y2="549.258"/>
    <polyline points="445.9479,547.9082 445.9479,529.3622 429.5821,519.9134 416.9146,527.2269"/>
    <line x1="417.8922" x2="417.8922" y1="526.6625" y2="515.9385"/>
    <line x1="420.2302" x2="420.2302" y1="514.5887" y2="525.3127"/>
    <line x1="422.5681" x2="422.5681" y1="523.9629" y2="513.2388"/>
    <line x1="424.9061" x2="424.9061" y1="511.889" y2="522.613"/>
    <line x1="427.2441" x2="427.2441" y1="521.2632" y2="510.5392"/>
    <polyline points="429.5821,509.1893 396.8504,528.087 380.4846,518.6382"/>
    <line x1="381.6535" x2="381.6535" y1="519.3131" y2="534.8426"/>
    <polyline points="380.4846,534.1677 380.4846,518.6382 388.6675,513.9138"/>
    <line x1="389.4858" x2="389.4858" y1="516.276" y2="499.2681"/>
    <line x1="390.0703" x2="390.0703" y1="499.6055" y2="489.8868"/>
    <line x1="389.8365" x2="389.8365" y1="490.2377" y2="481.1081"/>
    <line x1="391.0055" x2="391.0055" y1="481.7831" y2="488.4829"/>
    <line x1="388.6675" x2="388.6675" y1="491.3386" y2="480.4332"/>
    <line x1="387.4985" x2="387.4985" y1="479.7583" y2="490.6637"/>
    <line x1="386.3295" x2="386.3295" y1="489.9888" y2="479.0834"/>
    <line x1="385.1605" x2="385.1605" y1="478.4085" y2="489.3138"/>
    <line x1="383.9915" x2="383.9915" y1="488.6389" y2="477.7336"/>
    <line x1="382.8225" x2="382.8225" y1="477.0586" y2="487.964"/>
    <line x1="387.7323" x2="387.7323" y1="493.3963" y2="498.2557"/>
    <polyline points="388.6675,498.7956 388.6675,515.8035 390.3041,516.7484"/>
    <line x1="394.1228" x2="394.1228" y1="517.0634" y2="501.9453"/>
    <polyline points="388.9013,498.9306 388.9821,491.5202 380.4846,486.6142 364.1187,496.063 347.7529,486.6142 331.3871,496.063 315.0212,486.6142 298.6554,496.063"/>
    <line x1="300.9934" x2="300.9934" y1="497.4128" y2="497.4128"/>
    <line x1="302.1624" x2="302.1624" y1="498.0877" y2="498.0877"/>
    <line x1="306.8383" x2="306.8383" y1="500.7874" y2="500.7874"/>
    <line x1="313.8522" x2="313.8522" y1="504.8369" y2="504.8369"/>
    <line x1="319.6972" x2="319.6972" y1="508.2115" y2="508.2115"/>
    <line x1="322.0352" x2="322.0352" y1="509.5613" y2="509.5613"/>
    <line x1="326.7111" x2="326.7111" y1="512.261" y2="512.261"/>
    <line x1="330.2181" x2="330.2181" y1="514.2857" y2="514.2857"/>
    <line x1="329.0491" x2="329.0491" y1="516.3105" y2="516.3105"/>
    <polyline points="332.2678,519.6712 347.7529,510.7309 350.8023,512.4915"/>
    <line x1="348.9219" x2="348.9219" y1="514.927" y2="518.0648"/>
    <polyline points="347.7529,517.3899 347.7529,514.2521 364.1187,504.8033 371.7928,509.2339"/>
    <polyline points="369.1663,507.7175 380.4846,501.1828 388.6675,506.0181"/>
    <line x1="387.4985" x2="387.4985" y1="505.3432" y2="508.2652"/>
    <polyline points="388.6675,508.9401 380.4846,504.2157 364.1187,513.6645 364.1187,526.3579"/>
    <polyline points="363.7926,526.6504 347.7529,517.3899 331.3871,526.8387 331.3871,531.8841"/>
    <line x1="332.556" x2="332.556" y1="532.559" y2="527.5136"/>
    <line x1="333.725" x2="333.725" y1="528.1885" y2="533.2339"/>
    <line x1="334.894" x2="334.894" y1="533.9088" y2="528.8634"/>
    <line x1="336.063" x2="336.063" y1="529.5384" y2="534.5837"/>
    <line x1="337.232" x2="337.232" y1="535.2586" y2="530.2133"/>
    <line x1="338.401" x2="338.401" y1="530.8882" y2="535.9336"/>
    <line x1="339.57" x2="339.57" y1="536.6085" y2="531.5631"/>
    <line x1="340.739" x2="340.739" y1="532.238" y2="537.2834"/>
    <line x1="341.9079" x2="341.9079" y1="537.9583" y2="532.9129"/>
    <line x1="343.0769" x2="343.0769" y1="533.5879" y2="538.6332"/>
    <line x1="344.2459" x2="344.2459" y1="539.3081" y2="534.2628"/>
    <line x1="345.4149" x2="345.4149" y1="534.9377" y2="539.983"/>
    <line x1="346.5839" x2="346.5839" y1="540.658" y2="535.6126"/>
    <polyline points="347.7529,535.9109 364.1187,545.3597 364.1187,557.3536 364.1187,543.6165 380.4846,534.1677 396.8504,543.6165 396.8504,549.9481"/>
    <line x1="398.0194" x2="398.0194" y1="550.623" y2="535.2154"/>
    <line x1="399.1884" x2="399.1884" y1="535.8903" y2="551.2979"/>
    <line x1="400.3574" x2="400.3574" y1="551.9729" y2="536.5652"/>
    <line x1="401.5263" x2="401.5263" y1="537.2401" y2="552.6478"/>
    <line x1="402.6953" x2="402.6953" y1="553.3227" y2="537.915"/>
    <line x1="403.8643" x2="403.8643" y1="538.5899" y2="553.9976"/>
    <line x1="405.0333" x2="405.0333" y1="554.6725" y2="539.2648"/>
    <line x1="406.2023" x2="406.2023" y1="539.9398" y2="555.3474"/>
    <line x1="407.3713" x2="407.3713" y1="556.0224" y2="540.6147"/>
    <line x1="408.5403" x2="408.5403" y1="541.2896" y2="556.6973"/>
    <line x1="409.7093" x2="409.7093" y1="557.3722" y2="541.9645"/>
    <line x1="410.8783" x2="410.8783" y1="542.6394" y2="558.0471"/>
    <line x1="412.0472" x2="412.0472" y1="558.722" y2="543.3143"/>
    <polyline points="413.2162,543.9893 413.2162,558.1374 429.5821,567.5862 445.9479,558.1374"/>
    <line x1="443.6099" x2="443.6099" y1="559.4872" y2="572.8366"/>
    <line x1="441.2719" x2="441.2719" y1="574.1864" y2="560.837"/>
    <line x1="438.934" x2="438.934" y1="562.1868" y2="575.5363"/>
    <line x1="436.596" x2="436.596" y1="576.8861" y2="563.5367"/>
    <line x1="434.258" x2="434.258" y1="564.8865" y2="578.2359"/>
    <line x1="431.92" x2="431.92" y1="579.5858" y2="566.2363"/>
    <polyline points="429.5821,567.5862 429.5821,574.8866 413.2162,584.3355 396.8504,574.8866 396.8504,568.8457"/>
    <line x1="395.6814" x2="395.6814" y1="568.1708" y2="576.9576"/>
    <line x1="394.5124" x2="394.5124" y1="576.2827" y2="567.4959"/>
    <line x1="393.3434" x2="393.3434" y1="566.821" y2="575.6078"/>
    <line x1="392.1744" x2="392.1744" y1="574.9328" y2="566.1461"/>
    <line x1="391.0055" x2="391.0055" y1="565.4712" y2="574.2579"/>
    <line x1="389.8365" x2="389.8365" y1="573.583" y2="564.7963"/>
    <line x1="388.6675" x2="388.6675" y1="564.1213" y2="572.9081"/>
    <line x1="387.4985" x2="387.4985" y1="572.2332" y2="563.4464"/>
    <line x1="386.3295" x2="386.3295" y1="562.7715" y2="571.5583"/>
    <line x1="385.1605" x2="385.1605" y1="570.8833" y2="562.0966"/>
    <line x1="383.9915" x2="383.9915" y1="561.4217" y2="570.2084"/>
    <line x1="382.8225" x2="382.8225" y1="569.5335" y2="560.7468"/>
    <line x1="381.6535" x2="381.6535" y1="560.0718" y2="568.8586"/>
    <polyline points="380.4846,568.1837 380.4846,567.1942 364.1187,557.7454 347.7529,567.1942 347.7529,581.1024 331.3871,571.6535 315.0212,581.1024 315.0212,571.7699 298.6554,562.3211 282.2896,571.7699 282.2896,581.1024 265.9237,571.6535 249.5579,581.1024 249.5579,598.1102 265.9237,607.5591"/>
    <line x1="264.7547" x2="264.7547" y1="606.8841" y2="589.8763"/>
    <line x1="263.5857" x2="263.5857" y1="589.2013" y2="606.2092"/>
    <line x1="262.4168" x2="262.4168" y1="605.5343" y2="588.5264"/>
    <line x1="261.2478" x2="261.2478" y1="587.8515" y2="604.8594"/>
    <line x1="260.0788" x2="260.0788" y1="604.1845" y2="587.1766"/>
    <line x1="258.9098" x2="258.9098" y1="586.5017" y2="603.5096"/>
    <line x1="257.7408" x2="257.7408" y1="602.8346" y2="585.8268"/>
    <line x1="256.5718" x2="256.5718" y1="585.1519" y2="602.1597"/>
    <line x1="255.4028" x2="255.4028" y1="601.4848" y2="584.4769"/>
    <line x1="254.2338" x2="254.2338" y1="583.802" y2="600.8099"/>
    <line x1="253.0648" x2="253.0648" y1="600.135" y2="583.1271"/>
    <line x1="251.8959" x2="251.8959" y1="582.4522" y2="599.4601"/>
    <line x1="250.7269" x2="250.7269" y1="598.7852" y2="581.7773"/>
    <line x1="251.8959" x2="251.8959" y1="579.7525" y2="579.7525"/>
    <line x1="248.3889" x2="248.3889" y1="580.4274" y2="597.4353"/>
    <polyline points="249.5579,598.1102 233.192,588.6614 233.192,571.6535 249.5579,562.2047 265.9237,571.6535 265.9237,560.2329 282.2896,550.7841 298.6554,560.2329 298.6554,562.3211"/>
    <line x1="299.8244" x2="299.8244" y1="562.996" y2="556.5231"/>
    <line x1="300.9934" x2="300.9934" y1="557.198" y2="563.6709"/>
    <line x1="302.1624" x2="302.1624" y1="564.3458" y2="557.8729"/>
    <line x1="303.3313" x2="303.3313" y1="558.5478" y2="565.0207"/>
    <line x1="304.5003" x2="304.5003" y1="565.6956" y2="559.2227"/>
    <line x1="305.6693" x2="305.6693" y1="559.8977" y2="566.3706"/>
    <line x1="306.8383" x2="306.8383" y1="567.0455" y2="560.5726"/>
    <line x1="308.0073" x2="308.0073" y1="561.2475" y2="567.7204"/>
    <line x1="309.1763" x2="309.1763" y1="568.3953" y2="561.9224"/>
    <line x1="310.3453" x2="310.3453" y1="562.5973" y2="569.0702"/>
    <line x1="311.5143" x2="311.5143" y1="569.7451" y2="563.2722"/>
    <line x1="312.6832" x2="312.6832" y1="563.9472" y2="570.4201"/>
    <line x1="313.8522" x2="313.8522" y1="571.095" y2="564.6221"/>
    <line x1="315.0212" x2="331.3871" y1="565.297" y2="555.8482"/>
    <line x1="330.2181" x2="330.2181" y1="555.1732" y2="550.1068"/>
    <line x1="329.0491" x2="329.0491" y1="549.4319" y2="554.4983"/>
    <line x1="327.8801" x2="327.8801" y1="553.8234" y2="548.757"/>
    <line x1="326.7111" x2="326.7111" y1="548.082" y2="553.1485"/>
    <line x1="325.5421" x2="325.5421" y1="552.4736" y2="547.4071"/>
    <line x1="324.3731" x2="324.3731" y1="546.7322" y2="551.7987"/>
    <line x1="323.2041" x2="323.2041" y1="551.1238" y2="546.0573"/>
    <line x1="322.0352" x2="322.0352" y1="545.3824" y2="550.4488"/>
    <line x1="320.8662" x2="320.8662" y1="549.7739" y2="544.7075"/>
    <line x1="319.6972" x2="319.6972" y1="544.0325" y2="549.099"/>
    <line x1="318.5282" x2="318.5282" y1="548.4241" y2="543.3576"/>
    <line x1="317.3592" x2="317.3592" y1="542.6827" y2="547.7492"/>
    <line x1="316.1902" x2="316.1902" y1="547.0743" y2="542.0078"/>
    <line x1="315.0212" x2="331.3871" y1="541.3329" y2="550.7817"/>
    <line x1="333.725" x2="333.725" y1="549.4319" y2="556.0038"/>
    <line x1="332.556" x2="332.556" y1="558.0285" y2="572.3285"/>
    <polyline points="331.3871,571.6535 331.3871,557.3536 347.7529,547.9048 364.1187,557.3536 364.1187,557.7454"/>
    <line x1="364.1187" x2="347.7529" y1="557.3536" y2="566.8024"/>
    <line x1="346.5839" x2="346.5839" y1="566.1275" y2="580.4274"/>
    <line x1="345.4149" x2="345.4149" y1="579.7525" y2="565.4526"/>
    <line x1="344.2459" x2="344.2459" y1="564.7777" y2="579.0776"/>
    <line x1="343.0769" x2="343.0769" y1="578.4027" y2="564.1028"/>
    <line x1="341.9079" x2="341.9079" y1="563.4279" y2="577.7278"/>
    <line x1="340.739" x2="340.739" y1="577.0529" y2="562.753"/>
    <line x1="339.57" x2="339.57" y1="562.078" y2="576.378"/>
    <line x1="338.401" x2="338.401" y1="575.703" y2="561.4031"/>
    <line x1="337.232" x2="337.232" y1="560.7282" y2="575.0281"/>
    <line x1="336.063" x2="336.063" y1="574.3532" y2="560.0533"/>
    <line x1="334.894" x2="334.894" y1="559.3784" y2="573.6783"/>
    <line x1="333.725" x2="333.725" y1="573.0034" y2="558.7035"/>
    <polyline points="331.3871,557.3536 364.1187,576.643 380.4846,567.1942 380.4846,559.3969 396.8504,549.9481 413.2162,559.3969 413.2162,565.4378"/>
    <line x1="414.3852" x2="414.3852" y1="566.1127" y2="558.8123"/>
    <line x1="415.5542" x2="415.5542" y1="559.4872" y2="566.7877"/>
    <line x1="416.7232" x2="416.7232" y1="567.4626" y2="560.1621"/>
    <line x1="417.8922" x2="417.8922" y1="560.837" y2="568.1375"/>
    <line x1="419.0612" x2="419.0612" y1="568.8124" y2="561.5119"/>
    <line x1="420.2302" x2="420.2302" y1="562.1868" y2="569.4873"/>
    <line x1="421.3991" x2="421.3991" y1="570.1622" y2="562.8618"/>
    <line x1="422.5681" x2="422.5681" y1="563.5367" y2="570.8371"/>
    <line x1="423.7371" x2="423.7371" y1="571.5121" y2="564.2116"/>
    <line x1="424.9061" x2="424.9061" y1="564.8865" y2="572.187"/>
    <line x1="426.0751" x2="426.0751" y1="572.8619" y2="565.5614"/>
    <line x1="427.2441" x2="427.2441" y1="566.2363" y2="573.5368"/>
    <line x1="428.4131" x2="428.4131" y1="574.2117" y2="566.9113"/>
    <line x1="427.2441" x2="427.2441" y1="576.2365" y2="591.901"/>
    <line x1="424.9061" x2="424.9061" y1="593.2508" y2="577.5863"/>
    <line x1="422.5681" x2="422.5681" y1="578.9361" y2="594.6007"/>
    <line x1="420.2302" x2="420.2302" y1="595.9505" y2="580.286"/>
    <line x1="417.8922" x2="417.8922" y1="581.6358" y2="597.3003"/>
    <line x1="415.5542" x2="415.5542" y1="598.6502" y2="582.9856"/>
    <polyline points="413.2162,584.3355 413.2162,590.1227 396.8504,599.5716 380.4846,590.1227 380.4846,587.0813"/>
    <line x1="379.3156" x2="379.3156" y1="586.4064" y2="599.3251"/>
    <line x1="378.1466" x2="378.1466" y1="598.6502" y2="585.7315"/>
    <line x1="376.9776" x2="376.9776" y1="585.0566" y2="597.9753"/>
    <line x1="375.8086" x2="375.8086" y1="597.3003" y2="584.3817"/>
    <line x1="374.6396" x2="374.6396" y1="583.7067" y2="596.6254"/>
    <line x1="373.4706" x2="373.4706" y1="595.9505" y2="583.0318"/>
    <line x1="372.3016" x2="372.3016" y1="582.3569" y2="595.2756"/>
    <line x1="371.1327" x2="371.1327" y1="594.6007" y2="581.682"/>
    <line x1="369.9637" x2="369.9637" y1="581.0071" y2="593.9258"/>
    <line x1="368.7947" x2="368.7947" y1="593.2508" y2="580.3322"/>
    <line x1="367.6257" x2="367.6257" y1="579.6572" y2="592.5759"/>
    <line x1="366.4567" x2="366.4567" y1="591.901" y2="578.9823"/>
    <line x1="365.2877" x2="365.2877" y1="578.3074" y2="591.2261"/>
    <line x1="362.9497" x2="362.9497" y1="589.8763" y2="575.9681"/>
    <line x1="361.7807" x2="361.7807" y1="575.2932" y2="589.2013"/>
    <line x1="360.6118" x2="360.6118" y1="588.5264" y2="574.6183"/>
    <line x1="359.4428" x2="359.4428" y1="573.9433" y2="587.8515"/>
    <line x1="358.2738" x2="358.2738" y1="587.1766" y2="573.2684"/>
    <line x1="357.1048" x2="357.1048" y1="572.5935" y2="586.5017"/>
    <line x1="355.9358" x2="355.9358" y1="585.8268" y2="571.9186"/>
    <line x1="354.7668" x2="354.7668" y1="571.2437" y2="585.1519"/>
    <line x1="353.5978" x2="353.5978" y1="584.4769" y2="570.5688"/>
    <line x1="352.4288" x2="352.4288" y1="569.8939" y2="583.802"/>
    <line x1="351.2599" x2="351.2599" y1="583.1271" y2="569.2189"/>
    <line x1="350.0909" x2="350.0909" y1="568.544" y2="582.4522"/>
    <line x1="348.9219" x2="348.9219" y1="581.7773" y2="567.8691"/>
    <line x1="350.0909" x2="350.0909" y1="565.8444" y2="565.4526"/>
    <line x1="352.4288" x2="352.4288" y1="564.4945" y2="564.1028"/>
    <line x1="354.7668" x2="354.7668" y1="563.1447" y2="562.753"/>
    <line x1="357.1048" x2="357.1048" y1="561.7949" y2="561.4031"/>
    <line x1="359.4428" x2="359.4428" y1="560.445" y2="560.0533"/>
    <line x1="361.7807" x2="361.7807" y1="559.0952" y2="558.7035"/>
    <line x1="362.9497" x2="362.9497" y1="556.6787" y2="544.6848"/>
    <line x1="361.7807" x2="361.7807" y1="544.0099" y2="556.0038"/>
    <line x1="360.6118" x2="360.6118" y1="555.3289" y2="543.335"/>
    <line x1="359.4428" x2="359.4428" y1="542.6601" y2="554.654"/>
    <line x1="358.2738" x2="358.2738" y1="553.9791" y2="541.9851"/>
    <line x1="357.1048" x2="357.1048" y1="541.3102" y2="553.3041"/>
    <line x1="355.9358" x2="355.9358" y1="552.6292" y2="540.6353"/>
    <line x1="354.7668" x2="354.7668" y1="539.9604" y2="551.9543"/>
    <line x1="353.5978" x2="353.5978" y1="551.2794" y2="539.2855"/>
    <line x1="352.4288" x2="352.4288" y1="538.6106" y2="550.6045"/>
    <line x1="351.2599" x2="351.2599" y1="549.9296" y2="537.9356"/>
    <line x1="350.0909" x2="350.0909" y1="537.2607" y2="549.2546"/>
    <line x1="348.9219" x2="348.9219" y1="548.5797" y2="536.5858"/>
    <polyline points="347.7529,541.3329 331.3871,550.7817 331.3871,571.6535 331.3871,555.8482 315.0212,546.3993 298.6554,555.8482 298.6554,560.2329 282.2896,569.6817 265.9237,560.2329"/>
    <line x1="267.0927" x2="267.0927" y1="560.9078" y2="572.3285"/>
    <line x1="268.2617" x2="268.2617" y1="573.0034" y2="561.5828"/>
    <line x1="269.4307" x2="269.4307" y1="562.2577" y2="573.6783"/>
    <line x1="270.5997" x2="270.5997" y1="574.3532" y2="562.9326"/>
    <line x1="271.7687" x2="271.7687" y1="563.6075" y2="575.0281"/>
    <line x1="272.9376" x2="272.9376" y1="575.703" y2="564.2824"/>
    <line x1="274.1066" x2="274.1066" y1="564.9573" y2="576.378"/>
    <line x1="275.2756" x2="275.2756" y1="577.0529" y2="565.6323"/>
    <line x1="276.4446" x2="276.4446" y1="566.3072" y2="577.7278"/>
    <line x1="277.6136" x2="277.6136" y1="578.4027" y2="566.9821"/>
    <line x1="278.7826" x2="278.7826" y1="567.657" y2="579.0776"/>
    <line x1="279.9516" x2="279.9516" y1="579.7525" y2="568.3319"/>
    <line x1="281.1206" x2="281.1206" y1="569.0068" y2="580.4274"/>
    <line x1="283.4585" x2="283.4585" y1="581.7773" y2="572.4448"/>
    <line x1="284.6275" x2="284.6275" y1="573.1197" y2="582.4522"/>
    <line x1="285.7965" x2="285.7965" y1="583.1271" y2="573.7946"/>
    <line x1="286.9655" x2="286.9655" y1="574.4695" y2="583.802"/>
    <line x1="288.1345" x2="288.1345" y1="584.4769" y2="575.1445"/>
    <line x1="289.3035" x2="289.3035" y1="575.8194" y2="585.1519"/>
    <line x1="290.4725" x2="290.4725" y1="585.8268" y2="576.4943"/>
    <line x1="291.6415" x2="291.6415" y1="577.1692" y2="586.5017"/>
    <line x1="292.8104" x2="292.8104" y1="587.1766" y2="577.8441"/>
    <line x1="293.9794" x2="293.9794" y1="578.519" y2="587.8515"/>
    <line x1="295.1484" x2="295.1484" y1="588.5264" y2="579.194"/>
    <line x1="296.3174" x2="296.3174" y1="579.8689" y2="589.2013"/>
    <line x1="297.4864" x2="297.4864" y1="589.8763" y2="580.5438"/>
    <polyline points="298.6554,581.2187 298.6554,590.5512 282.2896,581.1024 265.9237,590.5512 265.9237,607.5591 282.2896,617.0079"/>
    <line x1="283.4585" x2="283.4585" y1="617.6828" y2="600.6749"/>
    <line x1="284.6275" x2="284.6275" y1="601.3498" y2="618.3577"/>
    <line x1="285.7965" x2="285.7965" y1="619.0326" y2="602.0247"/>
    <line x1="286.9655" x2="286.9655" y1="602.6997" y2="619.7075"/>
    <line x1="288.1345" x2="288.1345" y1="620.3825" y2="603.3746"/>
    <line x1="289.3035" x2="289.3035" y1="604.0495" y2="621.0574"/>
    <line x1="290.4725" x2="290.4725" y1="621.7323" y2="604.7244"/>
    <line x1="291.6415" x2="291.6415" y1="605.3993" y2="622.4072"/>
    <line x1="292.8104" x2="292.8104" y1="623.0821" y2="606.0742"/>
    <line x1="293.9794" x2="293.9794" y1="606.7492" y2="623.757"/>
    <line x1="295.1484" x2="295.1484" y1="624.4319" y2="607.4241"/>
    <line x1="296.3174" x2="296.3174" y1="608.099" y2="625.1069"/>
    <line x1="297.4864" x2="297.4864" y1="625.7818" y2="608.7739"/>
    <line x1="299.8244" x2="299.8244" y1="610.1237" y2="627.1316"/>
    <polyline points="298.6554,626.4567 282.2896,617.0079 282.2896,600.0 298.6554,590.5512 315.0212,600.0 331.3871,590.5512 347.7529,600.0 364.1187,590.5512 380.4846,600.0 380.4846,590.1227 396.8504,580.6739 413.2162,590.1227 413.2162,600.0 429.5821,590.5512 445.9479,600.0 445.9479,590.3844"/>
    <line x1="444.7789" x2="444.7789" y1="589.7095" y2="599.3251"/>
    <line x1="443.6099" x2="443.6099" y1="598.6502" y2="589.0346"/>
    <line x1="442.4409" x2="442.4409" y1="588.3597" y2="597.9753"/>
    <line x1="441.2719" x2="441.2719" y1="597.3003" y2="587.6847"/>
    <line x1="440.103" x2="440.103" y1="587.0098" y2="596.6254"/>
    <line x1="438.934" x2="438.934" y1="595.9505" y2="586.3349"/>
    <line x1="437.765" x2="437.765" y1="585.66" y2="595.2756"/>
    <line x1="436.596" x2="436.596" y1="594.6007" y2="584.9851"/>
    <line x1="435.427" x2="435.427" y1="584.3102" y2="593.9258"/>
    <line x1="434.258" x2="434.258" y1="593.2508" y2="583.6352"/>
    <line x1="433.089" x2="433.089" y1="582.9603" y2="592.5759"/>
    <line x1="431.92" x2="431.92" y1="591.901" y2="582.2854"/>
    <line x1="430.7511" x2="430.7511" y1="581.6105" y2="591.2261"/>
    <polyline points="429.5821,590.5512 429.5821,574.8866 413.2162,565.4378 396.8504,574.8866 396.8504,577.6325 380.4846,587.0813 364.1187,577.6325 364.1187,576.643"/>
    <line x1="366.4567" x2="366.4567" y1="576.2827" y2="575.2932"/>
    <line x1="368.7947" x2="368.7947" y1="574.9328" y2="573.9433"/>
    <line x1="371.1327" x2="371.1327" y1="573.583" y2="572.5935"/>
    <line x1="373.4706" x2="373.4706" y1="572.2332" y2="571.2437"/>
    <line x1="375.8086" x2="375.8086" y1="570.8833" y2="569.8939"/>
    <line x1="378.1466" x2="378.1466" y1="569.5335" y2="568.544"/>
    <line x1="379.3156" x2="379.3156" y1="566.5193" y2="552.3904"/>
    <polyline points="380.4846,553.0654 380.4846,559.3969 396.8504,568.8457 413.2162,559.3969 413.2162,558.1374 429.5821,548.6885 445.9479,558.1374 445.9479,571.4868"/>
    <line x1="455.2998" x2="455.2998" y1="575.703" y2="561.4065"/>
    <line x1="457.6378" x2="457.6378" y1="560.0567" y2="574.3532"/>
    <line x1="459.9758" x2="459.9758" y1="573.0034" y2="558.7068"/>
    <polyline points="462.3137,580.9356 445.9479,590.3844 429.5821,580.9356 445.9479,571.4868 462.3137,580.9356 462.3137,590.5512 478.6796,581.1024 495.0454,590.5512 511.4112,581.1024 527.7771,590.5512 527.7771,607.5591 511.4112,617.0079"/>
    <line x1="509.0733" x2="509.0733" y1="618.3577" y2="601.3498"/>
    <line x1="509.0733" x2="509.0733" y1="598.6502" y2="598.6502"/>
    <line x1="505.5663" x2="505.5663" y1="596.6254" y2="596.6254"/>
    <line x1="502.0593" x2="502.0593" y1="594.6007" y2="594.6007"/>
    <line x1="499.7214" x2="499.7214" y1="593.2508" y2="593.2508"/>
    <line x1="497.3834" x2="497.3834" y1="591.901" y2="591.901"/>
    <line x1="496.2144" x2="496.2144" y1="591.2261" y2="591.2261"/>
    <line x1="493.8764" x2="493.8764" y1="589.8763" y2="589.8763"/>
    <line x1="490.3694" x2="490.3694" y1="587.8515" y2="587.8515"/>
    <line x1="489.2005" x2="489.2005" y1="587.1766" y2="587.1766"/>
    <line x1="490.3694" x2="490.3694" y1="593.2508" y2="593.2508"/>
    <line x1="488.0315" x2="488.0315" y1="594.6007" y2="594.6007"/>
    <line x1="481.0175" x2="481.0175" y1="598.6502" y2="598.6502"/>
    <line x1="479.8486" x2="479.8486" y1="600.6749" y2="600.6749"/>
    <line x1="481.0175" x2="481.0175" y1="601.3498" y2="601.3498"/>
    <line x1="476.3416" x2="476.3416" y1="601.3498" y2="601.3498"/>
    <line x1="476.3416" x2="476.3416" y1="598.6502" y2="598.6502"/>
    <line x1="472.8346" x2="472.8346" y1="596.6254" y2="596.6254"/>
    <line x1="469.3277" x2="469.3277" y1="594.6007" y2="594.6007"/>
    <line x1="466.9897" x2="466.9897" y1="593.2508" y2="593.2508"/>
    <line x1="459.9758" x2="459.9758" y1="591.901" y2="582.2854"/>
    <line x1="457.6378" x2="457.6378" y1="583.6352" y2="593.2508"/>
    <line x1="455.2998" x2="455.2998" y1="594.6007" y2="584.9851"/>
    <line x1="452.9618" x2="452.9618" y1="586.3349" y2="595.9505"/>
    <line x1="450.6238" x2="450.6238" y1="597.3003" y2="587.6847"/>
    <line x1="448.2859" x2="448.2859" y1="589.0346" y2="598.6502"/>
    <line x1="448.2859" x2="448.2859" y1="601.3498" y2="601.3498"/>
    <polyline points="445.9479,600.0 462.3137,590.5512 478.6796,600.0 495.0454,590.5512 511.4112,600.0 511.4112,617.0079 495.0454,626.4567"/>
    <line x1="492.7074" x2="492.7074" y1="627.8065" y2="610.7987"/>
    <line x1="493.8764" x2="493.8764" y1="608.7739" y2="608.7739"/>
    <line x1="497.3834" x2="497.3834" y1="608.099" y2="625.1069"/>
    <line x1="499.7214" x2="499.7214" y1="623.757" y2="606.7492"/>
    <line x1="502.0593" x2="502.0593" y1="605.3993" y2="622.4072"/>
    <line x1="504.3973" x2="504.3973" y1="621.0574" y2="604.0495"/>
    <line x1="506.7353" x2="506.7353" y1="602.6997" y2="619.7075"/>
    <line x1="513.7492" x2="513.7492" y1="615.658" y2="598.6502"/>
    <line x1="516.0872" x2="516.0872" y1="597.3003" y2="614.3082"/>
    <line x1="518.4252" x2="518.4252" y1="612.9584" y2="595.9505"/>
    <line x1="520.7631" x2="520.7631" y1="594.6007" y2="611.6085"/>
    <line x1="523.1011" x2="523.1011" y1="610.2587" y2="593.2508"/>
    <line x1="525.4391" x2="525.4391" y1="591.901" y2="608.9089"/>
    <line x1="526.6081" x2="526.6081" y1="589.8763" y2="589.8763"/>
    <line x1="521.9321" x2="521.9321" y1="587.1766" y2="587.1766"/>
    <line x1="513.7492" x2="513.7492" y1="579.7525" y2="579.7525"/>
    <line x1="504.3973" x2="504.3973" y1="585.1519" y2="585.1519"/>
    <line x1="490.3694" x2="490.3694" y1="606.7492" y2="606.7492"/>
    <line x1="489.2005" x2="489.2005" y1="606.0742" y2="606.0742"/>
    <line x1="488.0315" x2="488.0315" y1="605.3993" y2="605.3993"/>
    <line x1="486.8625" x2="486.8625" y1="604.7244" y2="604.7244"/>
    <line x1="490.3694" x2="490.3694" y1="612.1485" y2="629.1564"/>
    <line x1="488.0315" x2="488.0315" y1="630.5062" y2="613.4983"/>
    <line x1="485.6935" x2="485.6935" y1="614.8481" y2="631.856"/>
    <line x1="483.3555" x2="483.3555" y1="633.2058" y2="616.198"/>
    <line x1="481.0175" x2="481.0175" y1="617.5478" y2="634.5557"/>
    <polyline points="478.6796,635.9055 495.0454,626.4567 495.0454,609.4488 478.6796,600.0 462.3137,609.4488 445.9479,600.0 429.5821,609.4488 413.2162,600.0 396.8504,609.4488"/>
    <line x1="395.6814" x2="395.6814" y1="608.7739" y2="598.8966"/>
    <polyline points="396.8504,599.5716 396.8504,609.4488 380.4846,600.0 364.1187,609.4488 347.7529,600.0 331.3871,609.4488 315.0212,600.0 298.6554,609.4488 298.6554,626.4567 315.0212,635.9055"/>
    <line x1="316.1902" x2="316.1902" y1="636.5804" y2="619.5726"/>
    <line x1="317.3592" x2="317.3592" y1="620.2475" y2="637.2553"/>
    <line x1="318.5282" x2="318.5282" y1="637.9303" y2="620.9224"/>
    <line x1="319.6972" x2="319.6972" y1="621.5973" y2="638.6052"/>
    <line x1="320.8662" x2="320.8662" y1="639.2801" y2="622.2722"/>
    <line x1="322.0352" x2="322.0352" y1="622.9471" y2="639.955"/>
    <line x1="323.2041" x2="323.2041" y1="640.6299" y2="623.622"/>
    <line x1="324.3731" x2="324.3731" y1="624.297" y2="641.3048"/>
    <line x1="325.5421" x2="325.5421" y1="641.9798" y2="624.9719"/>
    <line x1="326.7111" x2="326.7111" y1="625.6468" y2="642.6547"/>
    <line x1="327.8801" x2="327.8801" y1="643.3296" y2="626.3217"/>
    <line x1="329.0491" x2="329.0491" y1="626.9966" y2="644.0045"/>
    <line x1="330.2181" x2="330.2181" y1="644.6794" y2="627.6715"/>
    <line x1="332.556" x2="332.556" y1="629.0214" y2="646.0292"/>
    <line x1="333.725" x2="333.725" y1="646.7042" y2="629.6963"/>
    <line x1="334.894" x2="334.894" y1="630.3712" y2="647.3791"/>
    <line x1="336.063" x2="336.063" y1="648.054" y2="631.0461"/>
    <line x1="337.232" x2="337.232" y1="631.721" y2="648.7289"/>
    <line x1="338.401" x2="338.401" y1="649.4038" y2="632.396"/>
    <line x1="339.57" x2="339.57" y1="633.0709" y2="650.0787"/>
    <line x1="340.739" x2="340.739" y1="650.7537" y2="633.7458"/>
    <line x1="341.9079" x2="341.9079" y1="634.4207" y2="651.4286"/>
    <line x1="343.0769" x2="343.0769" y1="652.1035" y2="635.0956"/>
    <line x1="344.2459" x2="344.2459" y1="635.7705" y2="652.7784"/>
    <line x1="345.4149" x2="345.4149" y1="653.4533" y2="636.4454"/>
    <line x1="346.5839" x2="346.5839" y1="637.1204" y2="654.1282"/>
    <polyline points="347.7529,654.8031 331.3871,645.3543 331.3871,628.3465 347.7529,618.8976 364.1187,628.3465 380.4846,618.8976 396.8504,628.3465 413.2162,618.8976 429.5821,628.3465 445.9479,618.8976 462.3137,628.3465 462.3137,645.3543 445.9479,654.8031"/>
    <line x1="448.2859" x2="448.2859" y1="653.4533" y2="636.4454"/>
    <line x1="450.6238" x2="450.6238" y1="635.0956" y2="652.1035"/>
    <line x1="452.9618" x2="452.9618" y1="650.7537" y2="633.7458"/>
    <line x1="455.2998" x2="455.2998" y1="632.396" y2="649.4038"/>
    <line x1="457.6378" x2="457.6378" y1="648.054" y2="631.0461"/>
    <line x1="459.9758" x2="459.9758" y1="629.6963" y2="646.7042"/>
    <polyline points="462.3137,645.3543 478.6796,635.9055 478.6796,618.8976 462.3137,609.4488 445.9479,618.8976 429.5821,609.4488 413.2162,618.8976 396.8504,609.4488 380.4846,618.8976 364.1187,609.4488 347.7529,618.8976 331.3871,609.4488 315.0212,618.8976 315.0212,635.9055 331.3871,645.3543"/>
    <line x1="348.9219" x2="348.9219" y1="638.4702" y2="655.4781"/>
    <line x1="350.0909" x2="350.0909" y1="656.153" y2="639.1451"/>
    <line x1="351.2599" x2="351.2599" y1="639.82" y2="656.8279"/>
    <line x1="352.4288" x2="352.4288" y1="657.5028" y2="640.4949"/>
    <line x1="353.5978" x2="353.5978" y1="641.1699" y2="658.1777"/>
    <line x1="354.7668" x2="354.7668" y1="658.8526" y2="641.8448"/>
    <line x1="355.9358" x2="355.9358" y1="642.5197" y2="659.5276"/>
    <line x1="357.1048" x2="357.1048" y1="660.2025" y2="643.1946"/>
    <line x1="358.2738" x2="358.2738" y1="643.8695" y2="660.8774"/>
    <line x1="359.4428" x2="359.4428" y1="661.5523" y2="644.5444"/>
    <line x1="360.6118" x2="360.6118" y1="645.2193" y2="662.2272"/>
    <line x1="361.7807" x2="361.7807" y1="662.9021" y2="645.8943"/>
    <line x1="362.9497" x2="362.9497" y1="646.5692" y2="663.5771"/>
    <polyline points="364.1187,664.252 347.7529,654.8031 347.7529,637.7953 364.1187,628.3465 380.4846,637.7953 396.8504,628.3465 413.2162,637.7953 429.5821,628.3465 445.9479,637.7953 445.9479,654.8031 429.5821,664.252"/>
    <line x1="431.92" x2="431.92" y1="662.9021" y2="645.8943"/>
    <line x1="434.258" x2="434.258" y1="644.5444" y2="661.5523"/>
    <line x1="436.596" x2="436.596" y1="660.2025" y2="643.1946"/>
    <line x1="438.934" x2="438.934" y1="641.8448" y2="658.8526"/>
    <line x1="441.2719" x2="441.2719" y1="657.5028" y2="640.4949"/>
    <line x1="443.6099" x2="443.6099" y1="639.1451" y2="656.153"/>
    <line x1="427.2441" x2="427.2441" y1="648.5939" y2="665.6018"/>
    <line x1="424.9061" x2="424.9061" y1="666.9516" y2="649.9438"/>
    <line x1="422.5681" x2="422.5681" y1="651.2936" y2="668.3015"/>
    <line x1="420.2302" x2="420.2302" y1="669.6513" y2="652.6434"/>
    <line x1="417.8922" x2="417.8922" y1="653.9933" y2="671.0011"/>
    <line x1="415.5542" x2="415.5542" y1="672.351" y2="655.3431"/>
    <line x1="410.8783" x2="410.8783" y1="658.0427" y2="675.0506"/>
    <line x1="408.5403" x2="408.5403" y1="676.4004" y2="659.3926"/>
    <line x1="406.2023" x2="406.2023" y1="660.7424" y2="677.7503"/>
    <line x1="403.8643" x2="403.8643" y1="679.1001" y2="662.0922"/>
    <line x1="401.5263" x2="401.5263" y1="663.4421" y2="680.4499"/>
    <line x1="399.1884" x2="399.1884" y1="681.7998" y2="664.7919"/>
    <polyline points="396.8504,666.1417 396.8504,683.1496 380.4846,673.7008 380.4846,656.6929 396.8504,647.2441 413.2162,656.6929 413.2162,673.7008 396.8504,683.1496"/>
    <line x1="395.6814" x2="395.6814" y1="682.4747" y2="665.4668"/>
    <line x1="394.5124" x2="394.5124" y1="664.7919" y2="681.7998"/>
    <line x1="393.3434" x2="393.3434" y1="681.1249" y2="664.117"/>
    <line x1="392.1744" x2="392.1744" y1="663.4421" y2="680.4499"/>
    <line x1="391.0055" x2="391.0055" y1="679.775" y2="662.7672"/>
    <line x1="389.8365" x2="389.8365" y1="662.0922" y2="679.1001"/>
    <line x1="388.6675" x2="388.6675" y1="678.4252" y2="661.4173"/>
    <line x1="387.4985" x2="387.4985" y1="660.7424" y2="677.7503"/>
    <line x1="386.3295" x2="386.3295" y1="677.0754" y2="660.0675"/>
    <line x1="385.1605" x2="385.1605" y1="659.3926" y2="676.4004"/>
    <line x1="383.9915" x2="383.9915" y1="675.7255" y2="658.7177"/>
    <line x1="382.8225" x2="382.8225" y1="658.0427" y2="675.0506"/>
    <line x1="381.6535" x2="381.6535" y1="674.3757" y2="657.3678"/>
    <line x1="379.3156" x2="379.3156" y1="656.018" y2="673.0259"/>
    <polyline points="380.4846,673.7008 364.1187,664.252 364.1187,647.2441 380.4846,637.7953 396.8504,647.2441 413.2162,637.7953 429.5821,647.2441 429.5821,664.252 413.2162,673.7008"/>
    <line x1="408.5403" x2="408.5403" y1="653.9933" y2="653.9933"/>
    <line x1="406.2023" x2="406.2023" y1="652.6434" y2="652.6434"/>
    <line x1="401.5263" x2="401.5263" y1="644.5444" y2="644.5444"/>
    <line x1="398.0194" x2="398.0194" y1="647.919" y2="647.919"/>
    <line x1="393.3434" x2="393.3434" y1="645.2193" y2="645.2193"/>
    <line x1="392.1744" x2="392.1744" y1="644.5444" y2="644.5444"/>
    <line x1="387.4985" x2="387.4985" y1="641.8448" y2="641.8448"/>
    <line x1="387.4985" x2="387.4985" y1="652.6434" y2="652.6434"/>
    <line x1="385.1605" x2="385.1605" y1="653.9933" y2="653.9933"/>
    <line x1="378.1466" x2="378.1466" y1="655.3431" y2="672.351"/>
    <line x1="376.9776" x2="376.9776" y1="671.676" y2="654.6682"/>
    <line x1="375.8086" x2="375.8086" y1="653.9933" y2="671.0011"/>
    <line x1="374.6396" x2="374.6396" y1="670.3262" y2="653.3183"/>
    <line x1="373.4706" x2="373.4706" y1="652.6434" y2="669.6513"/>
    <line x1="372.3016" x2="372.3016" y1="668.9764" y2="651.9685"/>
    <line x1="371.1327" x2="371.1327" y1="651.2936" y2="668.3015"/>
    <line x1="369.9637" x2="369.9637" y1="667.6265" y2="650.6187"/>
    <line x1="368.7947" x2="368.7947" y1="649.9438" y2="666.9516"/>
    <line x1="367.6257" x2="367.6257" y1="666.2767" y2="649.2688"/>
    <line x1="366.4567" x2="366.4567" y1="648.5939" y2="665.6018"/>
    <line x1="365.2877" x2="365.2877" y1="664.9269" y2="647.919"/>
    <line x1="368.7947" x2="368.7947" y1="644.5444" y2="644.5444"/>
    <line x1="350.0909" x2="350.0909" y1="636.4454" y2="636.4454"/>
    <line x1="353.5978" x2="353.5978" y1="622.2722" y2="622.2722"/>
    <line x1="345.4149" x2="345.4149" y1="620.2475" y2="620.2475"/>
    <line x1="352.4288" x2="352.4288" y1="602.6997" y2="602.6997"/>
    <line x1="350.0909" x2="350.0909" y1="598.6502" y2="598.6502"/>
    <line x1="345.4149" x2="345.4149" y1="601.3498" y2="601.3498"/>
    <line x1="341.9079" x2="341.9079" y1="596.6254" y2="596.6254"/>
    <line x1="338.401" x2="338.401" y1="594.6007" y2="594.6007"/>
    <line x1="340.739" x2="340.739" y1="585.1519" y2="585.1519"/>
    <line x1="325.5421" x2="325.5421" y1="587.1766" y2="587.1766"/>
    <line x1="326.7111" x2="326.7111" y1="593.2508" y2="593.2508"/>
    <line x1="324.3731" x2="324.3731" y1="594.6007" y2="594.6007"/>
    <line x1="317.3592" x2="317.3592" y1="598.6502" y2="598.6502"/>
    <line x1="316.1902" x2="316.1902" y1="600.6749" y2="600.6749"/>
    <line x1="317.3592" x2="317.3592" y1="601.3498" y2="601.3498"/>
    <line x1="318.5282" x2="318.5282" y1="602.0247" y2="602.0247"/>
    <line x1="319.6972" x2="319.6972" y1="602.6997" y2="602.6997"/>
    <line x1="323.2041" x2="323.2041" y1="604.7244" y2="604.7244"/>
    <line x1="326.7111" x2="326.7111" y1="606.7492" y2="606.7492"/>
    <line x1="326.7111" x2="326.7111" y1="612.1485" y2="612.1485"/>
    <line x1="313.8522" x2="313.8522" y1="618.2227" y2="635.2306"/>
    <line x1="312.6832" x2="312.6832" y1="634.5557" y2="617.5478"/>
    <line x1="311.5143" x2="311.5143" y1="616.8729" y2="633.8808"/>
    <line x1="310.3453" x2="310.3453" y1="633.2058" y2="616.198"/>
    <line x1="309.1763" x2="309.1763" y1="615.5231" y2="632.5309"/>
    <line x1="308.0073" x2="308.0073" y1="631.856" y2="614.8481"/>
    <line x1="306.8383" x2="306.8383" y1="614.1732" y2="631.1811"/>
    <line x1="305.6693" x2="305.6693" y1="630.5062" y2="613.4983"/>
    <line x1="304.5003" x2="304.5003" y1="612.8234" y2="629.8313"/>
    <line x1="303.3313" x2="303.3313" y1="629.1564" y2="612.1485"/>
    <line x1="302.1624" x2="302.1624" y1="611.4736" y2="628.4814"/>
    <line x1="300.9934" x2="300.9934" y1="627.8065" y2="610.7987"/>
    <line x1="303.3313" x2="303.3313" y1="606.7492" y2="606.7492"/>
    <line x1="305.6693" x2="305.6693" y1="605.3993" y2="605.3993"/>
    <line x1="312.6832" x2="312.6832" y1="601.3498" y2="601.3498"/>
    <line x1="313.8522" x2="313.8522" y1="599.3251" y2="599.3251"/>
    <line x1="312.6832" x2="312.6832" y1="598.6502" y2="598.6502"/>
    <line x1="309.1763" x2="309.1763" y1="596.6254" y2="596.6254"/>
    <line x1="305.6693" x2="305.6693" y1="594.6007" y2="594.6007"/>
    <line x1="303.3313" x2="303.3313" y1="593.2508" y2="593.2508"/>
    <line x1="300.9934" x2="300.9934" y1="591.901" y2="591.901"/>
    <polyline points="298.6554,590.5512 315.0212,581.1024 331.3871,590.5512 347.7529,581.1024 364.1187,590.5512 364.1187,577.6325 380.4846,568.1837 396.8504,577.6325 396.8504,580.6739"/>
    <line x1="398.0194" x2="398.0194" y1="581.3488" y2="575.5616"/>
    <line x1="399.1884" x2="399.1884" y1="576.2365" y2="582.0237"/>
    <line x1="400.3574" x2="400.3574" y1="582.6987" y2="576.9114"/>
    <line x1="401.5263" x2="401.5263" y1="577.5863" y2="583.3736"/>
    <line x1="402.6953" x2="402.6953" y1="584.0485" y2="578.2612"/>
    <line x1="403.8643" x2="403.8643" y1="578.9361" y2="584.7234"/>
    <line x1="405.0333" x2="405.0333" y1="585.3983" y2="579.6111"/>
    <line x1="406.2023" x2="406.2023" y1="580.286" y2="586.0732"/>
    <line x1="407.3713" x2="407.3713" y1="586.7482" y2="580.9609"/>
    <line x1="408.5403" x2="408.5403" y1="581.6358" y2="587.4231"/>
    <line x1="409.7093" x2="409.7093" y1="588.098" y2="582.3107"/>
    <line x1="410.8783" x2="410.8783" y1="582.9856" y2="588.7729"/>
    <line x1="412.0472" x2="412.0472" y1="589.4478" y2="583.6605"/>
    <line x1="410.8783" x2="410.8783" y1="591.4726" y2="601.3498"/>
    <line x1="408.5403" x2="408.5403" y1="602.6997" y2="592.8224"/>
    <line x1="406.2023" x2="406.2023" y1="594.1722" y2="604.0495"/>
    <line x1="403.8643" x2="403.8643" y1="605.3993" y2="595.5221"/>
    <line x1="401.5263" x2="401.5263" y1="596.8719" y2="606.7492"/>
    <line x1="399.1884" x2="399.1884" y1="608.099" y2="598.2217"/>
    <line x1="394.5124" x2="394.5124" y1="598.2217" y2="608.099"/>
    <line x1="393.3434" x2="393.3434" y1="607.4241" y2="597.5468"/>
    <line x1="392.1744" x2="392.1744" y1="596.8719" y2="606.7492"/>
    <line x1="391.0055" x2="391.0055" y1="606.0742" y2="596.197"/>
    <line x1="389.8365" x2="389.8365" y1="595.5221" y2="605.3993"/>
    <line x1="388.6675" x2="388.6675" y1="604.7244" y2="594.8471"/>
    <line x1="387.4985" x2="387.4985" y1="594.1722" y2="604.0495"/>
    <line x1="386.3295" x2="386.3295" y1="603.3746" y2="593.4973"/>
    <line x1="385.1605" x2="385.1605" y1="592.8224" y2="602.6997"/>
    <line x1="383.9915" x2="383.9915" y1="602.0247" y2="592.1475"/>
    <line x1="382.8225" x2="382.8225" y1="591.4726" y2="601.3498"/>
    <line x1="381.6535" x2="381.6535" y1="600.6749" y2="590.7977"/>
    <line x1="382.8225" x2="382.8225" y1="588.7729" y2="585.7315"/>
    <line x1="385.1605" x2="385.1605" y1="584.3817" y2="587.4231"/>
    <line x1="387.4985" x2="387.4985" y1="586.0732" y2="583.0318"/>
    <line x1="389.8365" x2="389.8365" y1="581.682" y2="584.7234"/>
    <line x1="392.1744" x2="392.1744" y1="583.3736" y2="580.3322"/>
    <line x1="394.5124" x2="394.5124" y1="578.9823" y2="582.0237"/>
    <line x1="399.1884" x2="399.1884" y1="573.5368" y2="567.4959"/>
    <line x1="401.5263" x2="401.5263" y1="566.1461" y2="572.187"/>
    <line x1="403.8643" x2="403.8643" y1="570.8371" y2="564.7963"/>
    <line x1="406.2023" x2="406.2023" y1="563.4464" y2="569.4873"/>
    <line x1="408.5403" x2="408.5403" y1="568.1375" y2="562.0966"/>
    <line x1="410.8783" x2="410.8783" y1="560.7468" y2="566.7877"/>
    <line x1="415.5542" x2="415.5542" y1="556.7875" y2="542.6394"/>
    <line x1="417.8922" x2="417.8922" y1="541.2896" y2="555.4377"/>
    <line x1="420.2302" x2="420.2302" y1="554.0879" y2="539.9398"/>
    <line x1="422.5681" x2="422.5681" y1="538.5899" y2="552.738"/>
    <line x1="424.9061" x2="424.9061" y1="551.3882" y2="537.2401"/>
    <line x1="427.2441" x2="427.2441" y1="535.8903" y2="550.0384"/>
    <polyline points="429.5821,548.6885 429.5821,534.5404 413.2162,525.0916 396.8504,534.5404 396.8504,543.6165 380.4846,553.0654 364.1187,543.6165"/>
    <line x1="365.2877" x2="365.2877" y1="544.2915" y2="558.4203"/>
    <line x1="366.4567" x2="366.4567" y1="559.0952" y2="544.9664"/>
    <line x1="367.6257" x2="367.6257" y1="545.6413" y2="559.7701"/>
    <line x1="368.7947" x2="368.7947" y1="560.445" y2="546.3162"/>
    <line x1="369.9637" x2="369.9637" y1="546.9911" y2="561.1199"/>
    <line x1="371.1327" x2="371.1327" y1="561.7949" y2="547.666"/>
    <line x1="372.3016" x2="372.3016" y1="548.3409" y2="562.4698"/>
    <line x1="373.4706" x2="373.4706" y1="563.1447" y2="549.0159"/>
    <line x1="374.6396" x2="374.6396" y1="549.6908" y2="563.8196"/>
    <line x1="375.8086" x2="375.8086" y1="564.4945" y2="550.3657"/>
    <line x1="376.9776" x2="376.9776" y1="551.0406" y2="565.1694"/>
    <line x1="378.1466" x2="378.1466" y1="565.8444" y2="551.7155"/>
    <line x1="382.8225" x2="382.8225" y1="551.7155" y2="558.0471"/>
    <line x1="385.1605" x2="385.1605" y1="556.6973" y2="550.3657"/>
    <line x1="387.4985" x2="387.4985" y1="549.0159" y2="555.3474"/>
    <line x1="389.8365" x2="389.8365" y1="553.9976" y2="547.666"/>
    <line x1="392.1744" x2="392.1744" y1="546.3162" y2="552.6478"/>
    <line x1="394.5124" x2="394.5124" y1="551.2979" y2="544.9664"/>
    <line x1="395.6814" x2="395.6814" y1="542.9416" y2="527.4121"/>
    <polyline points="396.8504,528.087 396.8504,534.5404 413.2162,543.9893 429.5821,534.5404"/>
    <line x1="431.92" x2="431.92" y1="537.4612" y2="550.0384"/>
    <line x1="434.258" x2="434.258" y1="551.3882" y2="536.1113"/>
    <line x1="429.5821" x2="445.9479" y1="538.811" y2="529.3622"/>
    <line x1="448.2859" x2="448.2859" y1="522.9431" y2="519.2819"/>
    <line x1="450.6238" x2="450.6238" y1="517.932" y2="524.293"/>
    <line x1="452.9618" x2="452.9618" y1="525.6428" y2="516.5822"/>
    <line x1="455.4542" x2="462.3137" y1="507.2226" y2="503.2622"/>
    <polyline points="462.3137,505.8745 462.3137,503.2622 445.9479,493.8134 436.5049,499.2653"/>
    <polyline points="445.6474,493.9869 429.5821,484.7115 422.9464,488.5426"/>
    <polyline points="422.612,487.6544 429.5821,483.6302 429.5821,482.2514 418.0763,475.6085"/>
    <line x1="419.0612" x2="419.0612" y1="476.1771" y2="477.556"/>
    <polyline points="418.7397,477.3704 429.5821,483.6302 429.5821,484.7115"/>
    <polyline points="430.6789,485.3448 445.9479,476.5292 462.3137,485.978 462.3137,496.063 478.6796,486.6142 495.0454,496.063"/>
    <line x1="492.7074" x2="492.7074" y1="497.4128" y2="497.4128"/>
    <polyline points="485.7871,501.4083 495.0454,496.063 511.4112,505.5118"/>
    <line x1="506.7353" x2="506.7353" y1="508.2115" y2="508.2115"/>
    <line x1="504.3973" x2="504.3973" y1="509.5613" y2="509.5613"/>
    <line x1="499.7214" x2="499.7214" y1="512.261" y2="512.261"/>
    <line x1="497.3834" x2="497.3834" y1="516.3105" y2="516.3105"/>
    <line x1="505.5663" x2="505.5663" y1="521.0349" y2="521.0349"/>
    <line x1="504.3973" x2="504.3973" y1="528.4589" y2="528.4589"/>
    <polyline points="495.0454,533.8583 511.4112,524.4094 527.7771,533.8583 544.1429,524.4094 560.5087,533.8583"/>
    <polyline points="544.1429,524.4094 527.7771,514.9606 511.4112,524.4094 495.0454,514.9606 478.6796,524.4094 478.6796,515.3233 462.3137,505.8745 457.7166,508.5287 457.6378,505.9619"/>
    <line x1="459.9758" x2="459.9758" y1="507.2244" y2="504.6121"/>
    <polyline points="463.075,506.314 478.6796,497.3047 495.0454,506.7536 495.0454,514.9606 511.4112,505.5118 527.7771,514.9606"/>
    <line x1="525.4391" x2="525.4391" y1="516.3105" y2="516.3105"/>
    <line x1="518.4252" x2="518.4252" y1="528.4589" y2="528.4589"/>
    <line x1="513.7492" x2="513.7492" y1="560.8549" y2="560.8549"/>
    <polyline points="495.0454,552.7559 511.4112,543.3071 527.7771,552.7559 544.1429,543.3071 560.5087,552.7559 576.8746,543.3071 593.2404,552.7559 593.2404,569.7638 576.8746,579.2126"/>
    <line x1="579.2125" x2="579.2125" y1="577.8628" y2="560.8549"/>
    <line x1="581.5505" x2="581.5505" y1="559.5051" y2="576.5129"/>
    <line x1="583.8885" x2="583.8885" y1="575.1631" y2="558.1552"/>
    <line x1="586.2265" x2="586.2265" y1="556.8054" y2="573.8133"/>
    <line x1="588.5645" x2="588.5645" y1="572.4634" y2="555.4556"/>
    <line x1="590.9024" x2="590.9024" y1="554.1057" y2="571.1136"/>
    <line x1="574.5366" x2="574.5366" y1="563.5546" y2="580.5624"/>
    <line x1="572.1986" x2="572.1986" y1="581.9123" y2="564.9044"/>
    <line x1="569.8606" x2="569.8606" y1="566.2542" y2="583.2621"/>
    <line x1="567.5227" x2="567.5227" y1="584.6119" y2="567.604"/>
    <line x1="565.1847" x2="565.1847" y1="568.9539" y2="585.9618"/>
    <line x1="553.4948" x2="553.4948" y1="592.7109" y2="575.703"/>
    <line x1="551.1568" x2="551.1568" y1="577.0529" y2="594.0607"/>
    <line x1="548.8189" x2="548.8189" y1="595.4106" y2="578.4027"/>
    <line x1="546.4809" x2="546.4809" y1="579.7525" y2="596.7604"/>
    <line x1="541.8049" x2="541.8049" y1="579.7525" y2="579.7525"/>
    <line x1="538.298" x2="538.298" y1="577.7278" y2="577.7278"/>
    <polyline points="593.2404,552.7559 396.8504,666.1417 200.4604,552.7559"/>
    <line x1="201.6294" x2="201.6294" y1="553.4308" y2="570.4387"/>
    <line x1="202.7984" x2="202.7984" y1="571.1136" y2="554.1057"/>
    <line x1="203.9673" x2="203.9673" y1="554.7807" y2="571.7885"/>
    <line x1="205.1363" x2="205.1363" y1="572.4634" y2="555.4556"/>
    <line x1="206.3053" x2="206.3053" y1="556.1305" y2="573.1384"/>
    <line x1="207.4743" x2="207.4743" y1="573.8133" y2="556.8054"/>
    <line x1="208.6433" x2="208.6433" y1="557.4803" y2="574.4882"/>
    <line x1="209.8123" x2="209.8123" y1="575.1631" y2="558.1552"/>
    <line x1="210.9813" x2="210.9813" y1="558.8301" y2="575.838"/>
    <line x1="212.1503" x2="212.1503" y1="576.5129" y2="559.5051"/>
    <line x1="213.3193" x2="213.3193" y1="560.18" y2="577.1879"/>
    <line x1="214.4882" x2="214.4882" y1="577.8628" y2="560.8549"/>
    <line x1="215.6572" x2="215.6572" y1="561.5298" y2="578.5377"/>
    <polyline points="216.8262,579.2126 200.4604,569.7638 200.4604,552.7559 216.8262,543.3071 233.192,552.7559 249.5579,543.3071 265.9237,552.7559 282.2896,543.3071 286.8862,545.961"/>
    <line x1="284.6275" x2="284.6275" y1="549.9647" y2="552.1339"/>
    <line x1="283.4585" x2="283.4585" y1="551.459" y2="549.2898"/>
    <line x1="282.2896" x2="298.6554" y1="548.6148" y2="558.0637"/>
    <line x1="297.4864" x2="297.4864" y1="557.3887" y2="559.558"/>
    <line x1="296.3174" x2="296.3174" y1="558.8831" y2="556.7138"/>
    <line x1="295.1484" x2="295.1484" y1="556.0389" y2="558.2082"/>
    <line x1="293.9794" x2="293.9794" y1="557.5333" y2="555.364"/>
    <line x1="292.8104" x2="292.8104" y1="554.6891" y2="556.8583"/>
    <line x1="291.6415" x2="291.6415" y1="556.1834" y2="554.0142"/>
    <line x1="290.4725" x2="290.4725" y1="553.3393" y2="555.5085"/>
    <line x1="289.3035" x2="289.3035" y1="554.8336" y2="552.6643"/>
    <line x1="288.1345" x2="288.1345" y1="551.9894" y2="554.1587"/>
    <line x1="286.9655" x2="286.9655" y1="553.4838" y2="551.3145"/>
    <line x1="285.7965" x2="285.7965" y1="550.6396" y2="552.8089"/>
    <polyline points="282.2896,550.7841 282.2896,548.6148 298.6554,539.166 313.1025,547.5071"/>
    <polyline points="315.0212,546.3993 315.0212,541.3329 331.3871,531.8841 347.7529,541.3329 347.7529,547.9048"/>
    <line x1="345.4149" x2="345.4149" y1="549.2546" y2="542.6827"/>
    <line x1="343.0769" x2="343.0769" y1="544.0325" y2="550.6045"/>
    <line x1="340.739" x2="340.739" y1="551.9543" y2="545.3824"/>
    <line x1="338.401" x2="338.401" y1="546.7322" y2="553.3041"/>
    <line x1="336.063" x2="336.063" y1="554.654" y2="548.082"/>
    <line x1="329.0491" x2="329.0491" y1="557.198" y2="573.0034"/>
    <line x1="326.7111" x2="326.7111" y1="574.3532" y2="558.5478"/>
    <line x1="324.3731" x2="324.3731" y1="559.8977" y2="575.703"/>
    <line x1="322.0352" x2="322.0352" y1="577.0529" y2="561.2475"/>
    <line x1="319.6972" x2="319.6972" y1="562.5973" y2="578.4027"/>
    <line x1="317.3592" x2="317.3592" y1="579.7525" y2="563.9472"/>
    <line x1="312.6832" x2="312.6832" y1="573.1197" y2="582.4522"/>
    <line x1="310.3453" x2="310.3453" y1="583.802" y2="574.4695"/>
    <line x1="308.0073" x2="308.0073" y1="575.8194" y2="585.1519"/>
    <line x1="305.6693" x2="305.6693" y1="586.5017" y2="577.1692"/>
    <line x1="303.3313" x2="303.3313" y1="578.519" y2="587.8515"/>
    <line x1="300.9934" x2="300.9934" y1="589.2013" y2="579.8689"/>
    <line x1="296.3174" x2="296.3174" y1="591.901" y2="591.901"/>
    <line x1="293.9794" x2="293.9794" y1="593.2508" y2="593.2508"/>
    <line x1="291.6415" x2="291.6415" y1="594.6007" y2="594.6007"/>
    <line x1="284.6275" x2="284.6275" y1="598.6502" y2="598.6502"/>
    <line x1="281.1206" x2="281.1206" y1="599.3251" y2="616.333"/>
    <line x1="279.9516" x2="279.9516" y1="615.658" y2="598.6502"/>
    <line x1="278.7826" x2="278.7826" y1="597.9753" y2="614.9831"/>
    <line x1="277.6136" x2="277.6136" y1="614.3082" y2="597.3003"/>
    <line x1="276.4446" x2="276.4446" y1="596.6254" y2="613.6333"/>
    <line x1="275.2756" x2="275.2756" y1="612.9584" y2="595.9505"/>
    <line x1="274.1066" x2="274.1066" y1="595.2756" y2="612.2835"/>
    <line x1="272.9376" x2="272.9376" y1="611.6085" y2="594.6007"/>
    <line x1="271.7687" x2="271.7687" y1="593.9258" y2="610.9336"/>
    <line x1="270.5997" x2="270.5997" y1="610.2587" y2="593.2508"/>
    <line x1="269.4307" x2="269.4307" y1="592.5759" y2="609.5838"/>
    <line x1="268.2617" x2="268.2617" y1="608.9089" y2="591.901"/>
    <line x1="267.0927" x2="267.0927" y1="591.2261" y2="608.234"/>
    <line x1="247.2199" x2="247.2199" y1="596.7604" y2="579.7525"/>
    <line x1="246.0509" x2="246.0509" y1="579.0776" y2="596.0855"/>
    <line x1="244.8819" x2="244.8819" y1="595.4106" y2="578.4027"/>
    <line x1="243.7129" x2="243.7129" y1="577.7278" y2="594.7357"/>
    <line x1="242.544" x2="242.544" y1="594.0607" y2="577.0529"/>
    <line x1="241.375" x2="241.375" y1="576.378" y2="593.3858"/>
    <line x1="240.206" x2="240.206" y1="592.7109" y2="575.703"/>
    <line x1="239.037" x2="239.037" y1="575.0281" y2="592.036"/>
    <line x1="237.868" x2="237.868" y1="591.3611" y2="574.3532"/>
    <line x1="236.699" x2="236.699" y1="573.6783" y2="590.6862"/>
    <line x1="235.53" x2="235.53" y1="590.0112" y2="573.0034"/>
    <line x1="234.361" x2="234.361" y1="572.3285" y2="589.3363"/>
    <polyline points="233.192,588.6614 216.8262,579.2126 216.8262,562.2047 233.192,552.7559 249.5579,562.2047 265.9237,552.7559 272.399,556.4944"/>
    <line x1="279.9516" x2="279.9516" y1="560.8549" y2="560.8549"/>
    <line x1="284.6275" x2="284.6275" y1="568.3319" y2="570.4201"/>
    <polyline points="282.2896,569.6817 282.2896,571.7699 298.6554,581.2187 315.0212,571.7699 315.0212,565.297 298.6554,555.8482"/>
    <line x1="298.6554" x2="298.6554" y1="552.7559" y2="552.7559"/>
    <line x1="296.3174" x2="296.3174" y1="561.5828" y2="563.6709"/>
    <line x1="293.9794" x2="293.9794" y1="562.9326" y2="565.0207"/>
    <line x1="291.6415" x2="291.6415" y1="564.2824" y2="566.3706"/>
    <line x1="289.3035" x2="289.3035" y1="565.6323" y2="567.7204"/>
    <line x1="286.9655" x2="286.9655" y1="566.9821" y2="569.0702"/>
    <line x1="278.7826" x2="278.7826" y1="541.2823" y2="541.2823"/>
    <line x1="275.2756" x2="275.2756" y1="528.4589" y2="528.4589"/>
    <line x1="276.4446" x2="276.4446" y1="521.0349" y2="521.0349"/>
    <line x1="281.1206" x2="281.1206" y1="523.7345" y2="523.7345"/>
    <line x1="288.1345" x2="288.1345" y1="527.784" y2="527.784"/>
    <line x1="289.3035" x2="289.3035" y1="528.4589" y2="528.4589"/>
    <line x1="296.3174" x2="296.3174" y1="516.3105" y2="516.3105"/>
    <line x1="297.4864" x2="297.4864" y1="514.2857" y2="514.2857"/>
    <line x1="293.9794" x2="293.9794" y1="512.261" y2="512.261"/>
    <line x1="289.3035" x2="289.3035" y1="509.5613" y2="509.5613"/>
    <line x1="288.1345" x2="288.1345" y1="508.8864" y2="508.8864"/>
    <line x1="286.9655" x2="286.9655" y1="508.2115" y2="508.2115"/>
    <polyline points="282.2896,505.5118 298.6554,496.063 315.0212,505.5118 331.3871,496.063 347.7529,505.5118 364.1187,496.063 376.7356,503.3473"/>
    <polyline points="380.4846,504.2157 380.4846,501.2937 386.7394,497.6825"/>
    <line x1="386.5633" x2="386.5633" y1="497.5808" y2="495.1511"/>
    <line x1="382.8225" x2="382.8225" y1="502.6435" y2="505.5655"/>
    <line x1="383.9915" x2="383.9915" y1="506.2404" y2="503.3185"/>
    <line x1="385.1605" x2="385.1605" y1="503.9934" y2="506.9153"/>
    <line x1="386.3295" x2="386.3295" y1="507.5903" y2="504.6683"/>
    <line x1="381.6535" x2="381.6535" y1="504.8906" y2="501.9686"/>
    <line x1="372.3016" x2="372.3016" y1="500.7874" y2="500.7874"/>
    <line x1="367.6257" x2="367.6257" y1="498.0877" y2="498.0877"/>
    <line x1="366.4567" x2="366.4567" y1="497.4128" y2="497.4128"/>
    <line x1="362.9497" x2="362.9497" y1="495.3881" y2="495.3881"/>
    <line x1="361.7807" x2="361.7807" y1="497.4128" y2="497.4128"/>
    <line x1="359.4428" x2="359.4428" y1="493.3633" y2="493.3633"/>
    <line x1="358.2738" x2="358.2738" y1="492.6884" y2="492.6884"/>
    <line x1="354.7668" x2="354.7668" y1="490.6637" y2="490.6637"/>
    <line x1="351.2599" x2="351.2599" y1="488.6389" y2="488.6389"/>
    <line x1="350.0909" x2="350.0909" y1="485.2643" y2="485.2643"/>
    <line x1="346.5839" x2="346.5839" y1="485.9393" y2="485.9393"/>
    <line x1="340.739" x2="340.739" y1="490.6637" y2="490.6637"/>
    <line x1="336.063" x2="336.063" y1="493.3633" y2="493.3633"/>
    <line x1="333.725" x2="333.725" y1="497.4128" y2="497.4128"/>
    <line x1="334.894" x2="334.894" y1="498.0877" y2="498.0877"/>
    <line x1="330.2181" x2="330.2181" y1="495.3881" y2="495.3881"/>
    <line x1="329.0491" x2="329.0491" y1="497.4128" y2="497.4128"/>
    <line x1="326.7111" x2="326.7111" y1="493.3633" y2="493.3633"/>
    <line x1="325.5421" x2="325.5421" y1="492.6884" y2="492.6884"/>
    <line x1="322.0352" x2="322.0352" y1="490.6637" y2="490.6637"/>
    <line x1="319.6972" x2="319.6972" y1="489.3138" y2="489.3138"/>
    <line x1="318.5282" x2="318.5282" y1="488.6389" y2="488.6389"/>
    <polyline points="315.0212,486.6142 331.3871,477.1654 347.7529,486.6142 364.1187,477.1654 380.4846,486.6142 380.4846,475.7088 396.8504,466.26 411.1161,474.4963"/>
    <polyline points="413.2162,473.2838 413.2162,472.8026 429.5821,463.3537 445.9479,472.8026 445.9479,476.5292"/>
    <line x1="443.6099" x2="443.6099" y1="477.879" y2="474.1524"/>
    <line x1="441.2719" x2="441.2719" y1="475.5022" y2="479.2289"/>
    <line x1="438.934" x2="438.934" y1="480.5787" y2="476.852"/>
    <line x1="436.596" x2="436.596" y1="478.2019" y2="481.9285"/>
    <line x1="434.258" x2="434.258" y1="483.2784" y2="479.5517"/>
    <line x1="431.92" x2="431.92" y1="480.9015" y2="484.6282"/>
    <line x1="429.5821" x2="445.9479" y1="482.2514" y2="472.8026"/>
    <polyline points="441.5433,470.2595 445.9479,467.7165 462.3137,477.1654"/>
    <line x1="459.9758" x2="459.9758" y1="478.5152" y2="478.5152"/>
    <line x1="455.2998" x2="455.2998" y1="481.2148" y2="481.2148"/>
    <polyline points="454.6817,481.5717 462.3137,477.1654 478.6796,486.6142"/>
    <line x1="474.0036" x2="474.0036" y1="489.3138" y2="489.3138"/>
    <line x1="471.6656" x2="471.6656" y1="490.6637" y2="490.6637"/>
    <line x1="466.9897" x2="466.9897" y1="493.3633" y2="493.3633"/>
    <line x1="464.6517" x2="464.6517" y1="497.4128" y2="497.4128"/>
    <line x1="459.9758" x2="459.9758" y1="497.4128" y2="487.3278"/>
    <line x1="457.6378" x2="457.6378" y1="488.6777" y2="498.7627"/>
    <polyline points="456.079,499.6626 462.3137,496.063 471.572,501.4083"/>
    <line x1="455.2998" x2="455.2998" y1="499.2127" y2="490.0275"/>
    <line x1="452.9618" x2="452.9618" y1="491.3773" y2="497.8629"/>
    <line x1="450.6238" x2="450.6238" y1="496.5131" y2="492.7272"/>
    <line x1="448.2859" x2="448.2859" y1="494.077" y2="495.1632"/>
    <line x1="447.3452" x2="462.3137" y1="494.6201" y2="485.978"/>
    <polyline points="445.9479,467.7165 429.5821,458.2677 422.0168,462.6355"/>
    <line x1="422.5681" x2="422.5681" y1="462.3172" y2="462.3172"/>
    <polyline points="426.4214,465.1785 413.2162,457.5545 397.4941,466.6317"/>
    <line x1="392.405" x2="380.4846" y1="468.8266" y2="461.9443"/>
    <line x1="381.6535" x2="381.6535" y1="462.6192" y2="468.3915"/>
    <line x1="382.8225" x2="382.8225" y1="469.0664" y2="463.2942"/>
    <line x1="383.9915" x2="383.9915" y1="463.9691" y2="469.7413"/>
    <line x1="385.1605" x2="385.1605" y1="470.4162" y2="464.644"/>
    <line x1="386.3295" x2="386.3295" y1="465.3189" y2="471.0911"/>
    <line x1="388.6675" x2="388.6675" y1="470.9844" y2="466.6687"/>
    <polyline points="387.4985,465.9938 387.4061,471.7127 380.4846,467.7165 364.1187,477.1654 347.7529,467.7165 331.3871,477.1654"/>
    <line x1="333.725" x2="333.725" y1="478.5152" y2="478.5152"/>
    <line x1="334.894" x2="334.894" y1="479.1901" y2="479.1901"/>
    <line x1="338.401" x2="338.401" y1="481.2148" y2="481.2148"/>
    <line x1="357.1048" x2="357.1048" y1="481.2148" y2="481.2148"/>
    <line x1="368.7947" x2="368.7947" y1="474.4657" y2="474.4657"/>
    <line x1="373.4706" x2="373.4706" y1="471.766" y2="471.766"/>
    <line x1="379.3156" x2="379.3156" y1="467.0416" y2="467.0416"/>
    <line x1="371.1327" x2="371.1327" y1="462.3172" y2="462.3172"/>
    <polyline points="364.1187,458.2677 380.4846,448.8189 391.8515,455.3816"/>
    <line x1="383.9915" x2="383.9915" y1="450.8436" y2="450.8436"/>
    <line x1="382.8225" x2="382.8225" y1="450.1687" y2="450.1687"/>
    <line x1="389.8365" x2="389.8365" y1="467.3437" y2="470.3095"/>
    <line x1="391.0055" x2="391.0055" y1="469.6346" y2="468.0186"/>
    <line x1="392.1744" x2="392.1744" y1="468.6935" y2="468.9597"/>
    <line x1="398.1597" x2="398.1597" y1="481.9768" y2="481.9768"/>
    <line x1="413.2162" x2="413.633" y1="472.8026" y2="473.0432"/>
    <line x1="420.2302" x2="420.2302" y1="476.852" y2="478.2309"/>
    <line x1="421.3991" x2="421.3991" y1="478.9058" y2="477.527"/>
    <line x1="422.5681" x2="422.5681" y1="478.2019" y2="479.5807"/>
    <line x1="423.7371" x2="423.7371" y1="480.2557" y2="478.8768"/>
    <line x1="424.9061" x2="424.9061" y1="479.5517" y2="480.9306"/>
    <line x1="426.0751" x2="426.0751" y1="481.6055" y2="480.2266"/>
    <line x1="427.2441" x2="427.2441" y1="480.9015" y2="482.2804"/>
    <line x1="428.4131" x2="428.4131" y1="482.9553" y2="481.5765"/>
    <line x1="427.2441" x2="427.2441" y1="484.9801" y2="486.0614"/>
    <line x1="424.9061" x2="424.9061" y1="486.3299" y2="487.4112"/>
    <polyline points="418.126,496.9059 418.126,512.024 419.7626,512.9689"/>
    <line x1="415.788" x2="415.788" y1="513.3738" y2="498.2557"/>
    <line x1="413.45" x2="413.45" y1="499.6055" y2="514.7237"/>
    <line x1="411.112" x2="411.112" y1="516.0735" y2="500.9554"/>
    <line x1="408.7741" x2="408.7741" y1="502.3052" y2="517.4233"/>
    <polyline points="409.9431,516.7484 413.2162,518.6382 413.2162,525.0916"/>
    <line x1="415.5542" x2="415.5542" y1="526.4414" y2="517.2883"/>
    <line x1="412.0472" x2="412.0472" y1="517.9633" y2="517.9633"/>
    <line x1="410.8783" x2="410.8783" y1="519.988" y2="526.4414"/>
    <line x1="408.5403" x2="408.5403" y1="527.7913" y2="521.3378"/>
    <line x1="406.2023" x2="406.2023" y1="522.6877" y2="529.1411"/>
    <line x1="403.8643" x2="403.8643" y1="530.4909" y2="524.0375"/>
    <polyline points="401.7601,523.3626 400.1236,522.4177 400.1236,505.4098"/>
    <line x1="400.5912" x2="400.5912" y1="505.6798" y2="503.2501"/>
    <line x1="400.9419" x2="400.9419" y1="505.8823" y2="522.8901"/>
    <line x1="401.5263" x2="401.5263" y1="525.3873" y2="531.8408"/>
    <line x1="399.1884" x2="399.1884" y1="533.1906" y2="526.7372"/>
    <line x1="394.5124" x2="394.5124" y1="526.7372" y2="542.2667"/>
    <line x1="393.3434" x2="393.3434" y1="541.5918" y2="526.0622"/>
    <line x1="392.1744" x2="392.1744" y1="525.3873" y2="540.9169"/>
    <line x1="391.0055" x2="391.0055" y1="540.242" y2="524.7124"/>
    <line x1="389.8365" x2="389.8365" y1="524.0375" y2="539.567"/>
    <line x1="388.6675" x2="388.6675" y1="538.8921" y2="523.3626"/>
    <line x1="387.4985" x2="387.4985" y1="522.6877" y2="538.2172"/>
    <line x1="386.3295" x2="386.3295" y1="537.5423" y2="522.0127"/>
    <line x1="385.1605" x2="385.1605" y1="521.3378" y2="536.8674"/>
    <line x1="383.9915" x2="383.9915" y1="536.1925" y2="520.6629"/>
    <line x1="382.8225" x2="382.8225" y1="519.988" y2="535.5176"/>
    <line x1="379.3156" x2="379.3156" y1="534.8426" y2="522.4384"/>
    <line x1="378.1466" x2="378.1466" y1="521.7635" y2="534.5611"/>
    <polyline points="378.9749,535.0393 364.1187,526.4621 347.7529,535.9109 347.7529,541.3329 347.7529,536.2875 331.3871,526.8387"/>
    <polyline points="338.0346,523.0007 331.3871,519.1627 315.0212,528.6115 315.0212,530.3171"/>
    <line x1="316.1902" x2="316.1902" y1="530.992" y2="529.2865"/>
    <line x1="315.0212" x2="326.0382" y1="528.6115" y2="534.9722"/>
    <line x1="325.5421" x2="325.5421" y1="534.6858" y2="535.2586"/>
    <polyline points="324.5611,535.825 315.0212,530.3171 299.1749,539.466"/>
    <polyline points="303.7716,536.8121 298.6554,533.8583 282.2896,543.3071 265.9237,533.8583 249.5579,543.3071 233.192,533.8583 216.8262,543.3071"/>
    <line x1="230.8541" x2="230.8541" y1="551.4061" y2="551.4061"/>
    <line x1="242.544" x2="242.544" y1="558.1552" y2="558.1552"/>
    <line x1="251.8959" x2="251.8959" y1="560.8549" y2="560.8549"/>
    <line x1="240.206" x2="240.206" y1="567.604" y2="567.604"/>
    <line x1="232.0231" x2="232.0231" y1="570.9786" y2="587.9865"/>
    <line x1="230.8541" x2="230.8541" y1="587.3116" y2="570.3037"/>
    <line x1="229.6851" x2="229.6851" y1="569.6288" y2="586.6367"/>
    <line x1="228.5161" x2="228.5161" y1="585.9618" y2="568.9539"/>
    <line x1="227.3471" x2="227.3471" y1="568.279" y2="585.2868"/>
    <line x1="226.1781" x2="226.1781" y1="584.6119" y2="567.604"/>
    <line x1="225.0091" x2="225.0091" y1="566.9291" y2="583.937"/>
    <line x1="223.8401" x2="223.8401" y1="583.2621" y2="566.2542"/>
    <line x1="222.6712" x2="222.6712" y1="565.5793" y2="582.5872"/>
    <line x1="221.5022" x2="221.5022" y1="581.9123" y2="564.9044"/>
    <line x1="220.3332" x2="220.3332" y1="564.2295" y2="581.2373"/>
    <line x1="219.1642" x2="219.1642" y1="580.5624" y2="563.5546"/>
    <line x1="217.9952" x2="217.9952" y1="562.8796" y2="579.8875"/>
    <polyline points="233.192,533.8583 249.5579,524.4094 265.9237,533.8583 282.2896,524.4094 298.6554,533.8583 315.0212,524.4094 318.6603,526.5105"/>
    <line x1="317.3592" x2="317.3592" y1="529.9614" y2="531.667"/>
    <line x1="318.5282" x2="318.5282" y1="532.3419" y2="530.6363"/>
    <line x1="319.6972" x2="319.6972" y1="531.3112" y2="533.0168"/>
    <line x1="320.8662" x2="320.8662" y1="533.6917" y2="531.9861"/>
    <line x1="322.0352" x2="322.0352" y1="532.661" y2="534.3666"/>
    <line x1="323.2041" x2="323.2041" y1="535.0415" y2="533.3359"/>
    <line x1="324.3731" x2="324.3731" y1="534.0109" y2="535.7164"/>
    <line x1="313.8522" x2="313.8522" y1="523.7345" y2="523.7345"/>
    <line x1="308.0073" x2="308.0073" y1="528.4589" y2="528.4589"/>
    <line x1="302.1624" x2="302.1624" y1="516.9854" y2="516.9854"/>
    <line x1="300.9934" x2="300.9934" y1="516.3105" y2="516.3105"/>
    <line x1="303.3313" x2="303.3313" y1="512.261" y2="512.261"/>
    <line x1="308.0073" x2="308.0073" y1="509.5613" y2="509.5613"/>
    <line x1="333.725" x2="333.725" y1="516.3105" y2="516.3105"/>
    <line x1="334.894" x2="334.894" y1="516.9854" y2="516.9854"/>
    <polyline points="335.9069,517.5702 331.3871,514.9606 315.0212,524.4094 298.6554,514.9606 282.2896,524.4094 265.9237,514.9606 249.5579,524.4094"/>
    <polyline points="265.9237,514.9606 282.2896,505.5118 298.6554,514.9606 315.0212,505.5118 331.3871,514.9606 347.7529,505.5118 355.3222,509.8819"/>
    <line x1="354.7668" x2="354.7668" y1="509.5613" y2="509.5613"/>
    <line x1="351.2599" x2="351.2599" y1="516.2768" y2="519.4146"/>
    <line x1="352.4288" x2="352.4288" y1="520.0895" y2="516.9517"/>
    <line x1="353.5978" x2="353.5978" y1="517.6266" y2="520.7645"/>
    <line x1="354.7668" x2="354.7668" y1="521.4394" y2="518.3016"/>
    <line x1="355.9358" x2="355.9358" y1="518.9765" y2="522.1143"/>
    <line x1="357.1048" x2="357.1048" y1="522.7892" y2="519.6514"/>
    <line x1="358.2738" x2="358.2738" y1="520.3263" y2="523.4641"/>
    <line x1="359.4428" x2="359.4428" y1="524.139" y2="521.0012"/>
    <line x1="360.6118" x2="360.6118" y1="521.6761" y2="524.8139"/>
    <line x1="361.7807" x2="361.7807" y1="525.4889" y2="522.3511"/>
    <line x1="362.9497" x2="362.9497" y1="523.026" y2="526.1638"/>
    <line x1="365.2877" x2="365.2877" y1="527.137" y2="514.3394"/>
    <line x1="364.1187" x2="380.4846" y1="513.6645" y2="523.1133"/>
    <line x1="376.9776" x2="376.9776" y1="521.0886" y2="533.8862"/>
    <line x1="375.8086" x2="375.8086" y1="533.2112" y2="520.4137"/>
    <line x1="374.6396" x2="374.6396" y1="519.7387" y2="532.5363"/>
    <line x1="373.4706" x2="373.4706" y1="531.8614" y2="519.0638"/>
    <line x1="372.3016" x2="372.3016" y1="518.3889" y2="531.1865"/>
    <line x1="371.1327" x2="371.1327" y1="530.5116" y2="517.714"/>
    <line x1="369.9637" x2="369.9637" y1="517.0391" y2="529.8367"/>
    <line x1="368.7947" x2="368.7947" y1="529.1617" y2="516.3642"/>
    <line x1="367.6257" x2="367.6257" y1="515.6892" y2="528.4868"/>
    <line x1="366.4567" x2="366.4567" y1="527.8119" y2="515.0143"/>
    <line x1="364.1187" x2="347.7529" y1="523.7009" y2="514.2521"/>
    <line x1="350.0909" x2="350.0909" y1="515.6019" y2="518.7397"/>
    <line x1="340.739" x2="340.739" y1="509.5613" y2="509.5613"/>
    <line x1="336.063" x2="336.063" y1="512.261" y2="512.261"/>
    <line x1="346.5839" x2="346.5839" y1="504.8369" y2="504.8369"/>
    <line x1="368.7947" x2="368.7947" y1="493.3633" y2="493.3633"/>
    <line x1="373.4706" x2="373.4706" y1="490.6637" y2="490.6637"/>
    <line x1="406.4361" x2="406.4361" y1="503.655" y2="518.7732"/>
    <line x1="429.5821" x2="445.9479" y1="516.7168" y2="507.268"/>
    <line x1="443.6099" x2="443.6099" y1="508.6179" y2="522.9431"/>
    <line x1="441.2719" x2="441.2719" y1="524.293" y2="509.9677"/>
    <line x1="464.6517" x2="464.6517" y1="523.4223" y2="526.3346"/>
    <line x1="466.9897" x2="466.9897" y1="527.6844" y2="522.0725"/>
    <line x1="469.3277" x2="469.3277" y1="520.7227" y2="529.0343"/>
    <line x1="434.258" x2="434.258" y1="474.4657" y2="474.4657"/>
    <polyline points="429.5821,458.2677 413.2162,448.8189 401.8493,455.3816"/>
    <line x1="269.4307" x2="269.4307" y1="516.9854" y2="516.9854"/>
    <line x1="268.2617" x2="268.2617" y1="516.3105" y2="516.3105"/>
    <line x1="318.5282" x2="318.5282" y1="583.1271" y2="583.1271"/>
    <line x1="357.1048" x2="357.1048" y1="594.6007" y2="594.6007"/>
    <line x1="362.9497" x2="362.9497" y1="608.7739" y2="608.7739"/>
    <line x1="368.7947" x2="368.7947" y1="612.1485" y2="612.1485"/>
    <line x1="409.7093" x2="409.7093" y1="635.7705" y2="635.7705"/>
    <line x1="406.2023" x2="406.2023" y1="641.8448" y2="641.8448"/>
    <line x1="424.9061" x2="424.9061" y1="644.5444" y2="644.5444"/>
    <line x1="443.6099" x2="443.6099" y1="636.4454" y2="636.4454"/>
    <line x1="448.2859" x2="448.2859" y1="620.2475" y2="620.2475"/>
    <line x1="437.765" x2="437.765" y1="614.1732" y2="614.1732"/>
    <line x1="441.2719" x2="441.2719" y1="602.6997" y2="602.6997"/>
    <line x1="454.1308" x2="454.1308" y1="604.7244" y2="604.7244"/>
    <line x1="456.4688" x2="456.4688" y1="606.0742" y2="606.0742"/>
    <line x1="466.9897" x2="466.9897" y1="606.7492" y2="606.7492"/>
    <line x1="466.9897" x2="466.9897" y1="612.1485" y2="612.1485"/>
    <line x1="474.0036" x2="474.0036" y1="602.6997" y2="602.6997"/>
    <line x1="476.3416" x2="476.3416" y1="620.2475" y2="637.2553"/>
    <line x1="474.0036" x2="474.0036" y1="638.6052" y2="621.5973"/>
    <line x1="471.6656" x2="471.6656" y1="622.9471" y2="639.955"/>
    <line x1="469.3277" x2="469.3277" y1="641.3048" y2="624.297"/>
    <line x1="466.9897" x2="466.9897" y1="625.6468" y2="642.6547"/>
    <line x1="464.6517" x2="464.6517" y1="644.0045" y2="626.9966"/>
    <line x1="424.9061" x2="424.9061" y1="612.1485" y2="612.1485"/>
    <line x1="423.7371" x2="423.7371" y1="606.0742" y2="606.0742"/>
  </g>
</svg>
