<?xml version="1.0" encoding="utf-8" ?>
<svg xmlns="http://www.w3.org/2000/svg" xmlns:cc="http://creativecommons.org/ns#" xmlns:dc="http://purl.org/dc/elements/1.1/" xmlns:ev="http://www.w3.org/2001/xml-events" xmlns:inkscape="http://www.inkscape.org/namespaces/inkscape" xmlns:rdf="http://www.w3.org/1999/02/22-rdf-syntax-ns#" xmlns:sodipodi="http://sodipodi.sourceforge.net/DTD/sodipodi-0.dtd" xmlns:xlink="http://www.w3.org/1999/xlink" baseProfile="tiny" height="29.7cm" version="1.2" viewBox="0 0 793.7007874015749 1122.5196850393702" width="21.0cm">
  <metadata>
    <rdf:RDF>
      <cc:Work>
        <dc:format>image/svg+xml</dc:format>
        <dc:source/>
        <dc:date>2022-01-09T12:58:47.448971</dc:date>
      </cc:Work>
    </rdf:RDF>
  </metadata>
  <defs/>
  <g fill="none" id="layer2" inkscape:groupmode="layer" inkscape:label="2" stroke="#00f" style="display:inline">
    <polyline points="380.4846,448.8189 396.8504,439.3701 413.2162,448.8189"/>
    <line x1="410.8783" x2="410.8783" y1="450.1687" y2="450.1687"/>
    <line x1="403.8643" x2="403.8643" y1="462.3172" y2="462.3172"/>
    <line x1="395.6814" x2="395.6814" y1="457.5928" y2="457.5928"/>
    <line x1="389.8365" x2="389.8365" y1="462.3172" y2="462.3172"/>
    <line x1="383.9915" x2="383.9915" y1="469.7413" y2="469.7413"/>
    <line x1="387.4985" x2="387.4985" y1="471.766" y2="471.766"/>
    <line x1="391.0055" x2="391.0055" y1="473.7908" y2="473.7908"/>
    <line x1="392.1744" x2="392.1744" y1="474.4657" y2="474.4657"/>
    <line x1="395.6814" x2="395.6814" y1="476.4904" y2="476.4904"/>
    <line x1="394.5124" x2="394.5124" y1="478.5152" y2="478.5152"/>
    <line x1="399.1884" x2="399.1884" y1="478.5152" y2="478.5152"/>
    <line x1="400.3574" x2="400.3574" y1="479.1901" y2="479.1901"/>
    <line x1="403.8643" x2="403.8643" y1="481.2148" y2="481.2148"/>
    <line x1="401.5263" x2="401.5263" y1="474.4657" y2="474.4657"/>
    <line x1="406.2023" x2="406.2023" y1="471.766" y2="471.766"/>
    <line x1="412.0472" x2="412.0472" y1="467.0416" y2="467.0416"/>
    <line x1="416.7232" x2="416.7232" y1="469.7413" y2="469.7413"/>
    <line x1="420.2302" x2="420.2302" y1="471.766" y2="471.766"/>
    <line x1="423.7371" x2="423.7371" y1="473.7908" y2="473.7908"/>
    <line x1="424.9061" x2="424.9061" y1="474.4657" y2="474.4657"/>
    <line x1="428.4131" x2="428.4131" y1="476.4904" y2="476.4904"/>
    <line x1="427.2441" x2="427.2441" y1="478.5152" y2="478.5152"/>
    <line x1="431.92" x2="431.92" y1="478.5152" y2="478.5152"/>
    <line x1="433.089" x2="433.089" y1="479.1901" y2="479.1901"/>
    <line x1="436.596" x2="436.596" y1="481.2148" y2="481.2148"/>
    <line x1="437.765" x2="437.765" y1="481.8898" y2="481.8898"/>
    <line x1="443.6099" x2="443.6099" y1="485.2643" y2="485.2643"/>
    <line x1="444.7789" x2="444.7789" y1="485.9393" y2="485.9393"/>
    <line x1="438.934" x2="438.934" y1="490.6637" y2="490.6637"/>
    <line x1="434.258" x2="434.258" y1="493.3633" y2="493.3633"/>
    <line x1="431.92" x2="431.92" y1="497.4128" y2="497.4128"/>
    <line x1="428.4131" x2="428.4131" y1="495.3881" y2="495.3881"/>
    <line x1="427.2441" x2="427.2441" y1="497.4128" y2="497.4128"/>
    <line x1="424.9061" x2="424.9061" y1="493.3633" y2="493.3633"/>
    <line x1="423.7371" x2="423.7371" y1="492.6884" y2="492.6884"/>
    <line x1="420.2302" x2="420.2302" y1="490.6637" y2="490.6637"/>
    <line x1="416.7232" x2="416.7232" y1="488.6389" y2="488.6389"/>
    <line x1="412.0472" x2="412.0472" y1="485.9393" y2="485.9393"/>
    <line x1="406.2023" x2="406.2023" y1="490.6637" y2="490.6637"/>
    <line x1="401.5263" x2="401.5263" y1="493.3633" y2="493.3633"/>
    <line x1="399.1884" x2="399.1884" y1="497.4128" y2="497.4128"/>
    <line x1="400.3574" x2="400.3574" y1="498.0877" y2="498.0877"/>
    <line x1="395.6814" x2="395.6814" y1="495.3881" y2="495.3881"/>
    <line x1="394.5124" x2="394.5124" y1="497.4128" y2="497.4128"/>
    <line x1="392.1744" x2="392.1744" y1="493.3633" y2="493.3633"/>
    <line x1="391.0055" x2="391.0055" y1="492.6884" y2="492.6884"/>
    <line x1="387.4985" x2="387.4985" y1="490.6637" y2="490.6637"/>
    <line x1="383.9915" x2="383.9915" y1="488.6389" y2="488.6389"/>
    <line x1="379.3156" x2="379.3156" y1="485.9393" y2="485.9393"/>
    <line x1="373.4706" x2="373.4706" y1="490.6637" y2="490.6637"/>
    <line x1="368.7947" x2="368.7947" y1="493.3633" y2="493.3633"/>
    <line x1="366.4567" x2="366.4567" y1="497.4128" y2="497.4128"/>
    <line x1="367.6257" x2="367.6257" y1="498.0877" y2="498.0877"/>
    <line x1="372.3016" x2="372.3016" y1="500.7874" y2="500.7874"/>
    <line x1="379.3156" x2="379.3156" y1="504.8369" y2="504.8369"/>
    <line x1="373.4706" x2="373.4706" y1="509.5613" y2="509.5613"/>
    <line x1="368.7947" x2="368.7947" y1="512.261" y2="512.261"/>
    <line x1="366.4567" x2="366.4567" y1="516.3105" y2="516.3105"/>
    <line x1="367.6257" x2="367.6257" y1="516.9854" y2="516.9854"/>
    <line x1="361.7807" x2="361.7807" y1="516.3105" y2="508.4258"/>
    <line x1="364.1187" x2="347.7529" y1="507.076" y2="516.5248"/>
    <line x1="346.5839" x2="346.5839" y1="515.8499" y2="523.7345"/>
    <line x1="345.4149" x2="345.4149" y1="523.0596" y2="515.175"/>
    <line x1="344.2459" x2="344.2459" y1="514.5" y2="522.3847"/>
    <line x1="343.0769" x2="343.0769" y1="521.7098" y2="513.8251"/>
    <line x1="341.9079" x2="341.9079" y1="513.1502" y2="521.0349"/>
    <line x1="340.739" x2="340.739" y1="520.36" y2="512.4753"/>
    <line x1="339.57" x2="339.57" y1="511.8004" y2="519.685"/>
    <line x1="338.401" x2="338.401" y1="519.0101" y2="511.1255"/>
    <line x1="337.232" x2="337.232" y1="510.4505" y2="518.3352"/>
    <line x1="336.063" x2="336.063" y1="517.6603" y2="509.7756"/>
    <line x1="334.894" x2="334.894" y1="509.1007" y2="516.9854"/>
    <line x1="333.725" x2="333.725" y1="516.3105" y2="508.4258"/>
    <line x1="332.556" x2="332.556" y1="507.7509" y2="515.6355"/>
    <polyline points="331.3871,514.9606 331.3871,508.9801 315.0212,499.5312 302.0463,507.0223"/>
    <line x1="306.8383" x2="306.8383" y1="500.7874" y2="500.7874"/>
    <polyline points="309.8419,502.5215 298.6554,496.063 282.5514,505.3606"/>
    <polyline points="290.3469,509.8614 298.6554,505.0645 315.0212,514.5133 315.0212,516.5433"/>
    <polyline points="316.6542,517.4861 331.3871,508.9801 331.3871,507.076 347.7529,497.6271 364.1187,507.076 364.1187,514.9606 380.4846,505.5118 396.8504,514.9606 413.2162,505.5118 429.5821,514.9606 445.9479,505.5118 462.3137,514.9606 478.6796,505.5118 495.0454,514.9606 511.4112,505.5118 527.7771,514.9606"/>
    <line x1="525.4391" x2="525.4391" y1="516.3105" y2="516.3105"/>
    <line x1="518.4252" x2="518.4252" y1="528.4589" y2="528.4589"/>
    <line x1="504.3973" x2="504.3973" y1="528.4589" y2="528.4589"/>
    <line x1="505.5663" x2="505.5663" y1="521.0349" y2="521.0349"/>
    <line x1="497.3834" x2="497.3834" y1="516.3105" y2="516.3105"/>
    <line x1="493.8764" x2="493.8764" y1="514.2857" y2="514.2857"/>
    <line x1="492.7074" x2="492.7074" y1="516.3105" y2="516.3105"/>
    <line x1="490.3694" x2="490.3694" y1="512.261" y2="512.261"/>
    <line x1="485.6935" x2="485.6935" y1="509.5613" y2="509.5613"/>
    <line x1="474.0036" x2="474.0036" y1="508.2115" y2="508.2115"/>
    <line x1="471.6656" x2="471.6656" y1="509.5613" y2="509.5613"/>
    <line x1="466.9897" x2="466.9897" y1="512.261" y2="512.261"/>
    <line x1="464.6517" x2="464.6517" y1="516.3105" y2="516.3105"/>
    <line x1="461.1447" x2="461.1447" y1="514.2857" y2="514.2857"/>
    <line x1="459.9758" x2="459.9758" y1="516.3105" y2="516.3105"/>
    <line x1="457.6378" x2="457.6378" y1="512.261" y2="512.261"/>
    <line x1="452.9618" x2="452.9618" y1="509.5613" y2="509.5613"/>
    <line x1="444.7789" x2="444.7789" y1="504.8369" y2="504.8369"/>
    <line x1="440.103" x2="440.103" y1="502.1372" y2="502.1372"/>
    <line x1="437.765" x2="437.765" y1="500.7874" y2="500.7874"/>
    <line x1="438.934" x2="438.934" y1="509.5613" y2="509.5613"/>
    <line x1="434.258" x2="434.258" y1="512.261" y2="512.261"/>
    <line x1="431.92" x2="431.92" y1="516.3105" y2="516.3105"/>
    <line x1="428.4131" x2="428.4131" y1="514.2857" y2="514.2857"/>
    <line x1="427.2441" x2="427.2441" y1="516.3105" y2="516.3105"/>
    <line x1="424.9061" x2="424.9061" y1="512.261" y2="512.261"/>
    <line x1="420.2302" x2="420.2302" y1="509.5613" y2="509.5613"/>
    <line x1="412.0472" x2="412.0472" y1="504.8369" y2="504.8369"/>
    <line x1="406.2023" x2="406.2023" y1="509.5613" y2="509.5613"/>
    <line x1="401.5263" x2="401.5263" y1="512.261" y2="512.261"/>
    <line x1="399.1884" x2="399.1884" y1="516.3105" y2="516.3105"/>
    <line x1="395.6814" x2="395.6814" y1="514.2857" y2="514.2857"/>
    <line x1="394.5124" x2="394.5124" y1="516.3105" y2="516.3105"/>
    <line x1="392.1744" x2="392.1744" y1="512.261" y2="512.261"/>
    <line x1="387.4985" x2="387.4985" y1="509.5613" y2="509.5613"/>
    <line x1="379.3156" x2="379.3156" y1="523.7345" y2="523.7345"/>
    <line x1="373.4706" x2="373.4706" y1="528.4589" y2="528.4589"/>
    <line x1="387.4985" x2="387.4985" y1="528.4589" y2="528.4589"/>
    <line x1="396.8504" x2="412.6704" y1="528.0895" y2="537.2232"/>
    <polyline points="413.2162,536.908 413.2162,534.4232 429.5821,524.9743 445.9479,534.4232 445.9479,543.3071 462.3137,533.8583 464.6783,535.2234"/>
    <line x1="460.2096" x2="460.2096" y1="541.583" y2="556.1612"/>
    <line x1="460.6771" x2="460.6771" y1="556.4311" y2="571.5492"/>
    <line x1="459.5861" x2="459.5861" y1="570.9193" y2="555.8012"/>
    <polyline points="459.0406,555.4863 450.8576,550.7618 459.0406,538.4784 467.2235,560.2107 490.1356,546.9823 481.9527,525.25 459.0406,538.4784 459.0406,555.4863 467.2235,560.2107 467.2235,577.2185 468.8601,576.2737 468.8601,559.2658"/>
    <line x1="469.5615" x2="469.5615" y1="558.8608" y2="573.9789"/>
    <line x1="468.8601" x2="483.5893" y1="574.3839" y2="565.88"/>
    <line x1="484.4076" x2="484.4076" y1="566.3524" y2="550.2894"/>
    <polyline points="483.5893,550.7618 483.5893,565.88 485.2259,566.8248"/>
    <line x1="485.6935" x2="485.6935" y1="568.4446" y2="579.7067"/>
    <line x1="488.0315" x2="488.0315" y1="581.0565" y2="567.0948"/>
    <polyline points="490.3694,565.745 490.3529,582.3968 495.0454,579.6876 511.4112,589.1364 511.4112,617.0079 495.0454,626.4567"/>
    <line x1="492.7074" x2="492.7074" y1="627.8065" y2="586.4559"/>
    <line x1="490.3694" x2="490.3694" y1="587.8057" y2="629.1564"/>
    <line x1="488.0315" x2="488.0315" y1="630.5062" y2="589.1555"/>
    <line x1="485.6935" x2="485.6935" y1="590.5054" y2="631.856"/>
    <line x1="483.3555" x2="483.3555" y1="633.2058" y2="591.8552"/>
    <line x1="481.0175" x2="481.0175" y1="593.205" y2="634.5557"/>
    <polyline points="478.6796,635.9055 495.0454,626.4567 495.0454,585.106 478.6796,575.6572 462.3137,585.106 462.3137,587.9911 445.9479,597.4399 429.5821,587.9911"/>
    <line x1="430.7511" x2="430.7511" y1="588.666" y2="602.2113"/>
    <line x1="431.92" x2="431.92" y1="602.8862" y2="589.3409"/>
    <line x1="433.089" x2="433.089" y1="590.0158" y2="603.5611"/>
    <line x1="434.258" x2="434.258" y1="604.236" y2="590.6907"/>
    <line x1="435.427" x2="435.427" y1="591.3657" y2="604.9109"/>
    <line x1="436.596" x2="436.596" y1="605.5858" y2="592.0406"/>
    <line x1="437.765" x2="437.765" y1="592.7155" y2="606.2608"/>
    <line x1="438.934" x2="438.934" y1="606.9357" y2="593.3904"/>
    <line x1="440.103" x2="440.103" y1="594.0653" y2="607.6106"/>
    <line x1="441.2719" x2="441.2719" y1="608.2855" y2="594.7402"/>
    <line x1="442.4409" x2="442.4409" y1="595.4151" y2="608.9604"/>
    <line x1="443.6099" x2="443.6099" y1="609.6353" y2="596.0901"/>
    <line x1="444.7789" x2="444.7789" y1="596.765" y2="610.3103"/>
    <line x1="447.1169" x2="447.1169" y1="611.5033" y2="603.9582"/>
    <line x1="448.2859" x2="448.2859" y1="604.6331" y2="612.1783"/>
    <line x1="449.4549" x2="449.4549" y1="612.8532" y2="605.308"/>
    <line x1="450.6238" x2="450.6238" y1="605.9829" y2="613.5281"/>
    <line x1="451.7928" x2="451.7928" y1="614.203" y2="606.6578"/>
    <line x1="452.9618" x2="452.9618" y1="607.3328" y2="614.8779"/>
    <line x1="454.1308" x2="454.1308" y1="615.5528" y2="608.0077"/>
    <line x1="455.2998" x2="455.2998" y1="608.6826" y2="616.2277"/>
    <line x1="456.4688" x2="456.4688" y1="616.9027" y2="609.3575"/>
    <line x1="457.6378" x2="457.6378" y1="610.0324" y2="617.5776"/>
    <line x1="458.8068" x2="458.8068" y1="618.2525" y2="610.7073"/>
    <line x1="459.9758" x2="459.9758" y1="611.3823" y2="618.9274"/>
    <line x1="461.1447" x2="461.1447" y1="619.6023" y2="612.0572"/>
    <polyline points="462.3137,612.7321 445.9479,603.2833 445.9479,597.4399"/>
    <line x1="448.2859" x2="448.2859" y1="596.0901" y2="601.9334"/>
    <line x1="450.6238" x2="450.6238" y1="600.5836" y2="594.7402"/>
    <line x1="452.9618" x2="452.9618" y1="593.3904" y2="599.2338"/>
    <line x1="455.2998" x2="455.2998" y1="597.8839" y2="592.0406"/>
    <line x1="457.6378" x2="457.6378" y1="590.6907" y2="596.5341"/>
    <line x1="459.9758" x2="459.9758" y1="595.1843" y2="589.3409"/>
    <line x1="461.1447" x2="461.1447" y1="587.3162" y2="581.268"/>
    <polyline points="462.3137,581.9429 462.3137,585.106 478.6796,594.5549"/>
    <line x1="477.5106" x2="477.5106" y1="593.8799" y2="602.6084"/>
    <line x1="476.3416" x2="476.3416" y1="601.9334" y2="593.205"/>
    <line x1="475.1726" x2="475.1726" y1="592.5301" y2="601.2585"/>
    <line x1="474.0036" x2="474.0036" y1="600.5836" y2="591.8552"/>
    <line x1="472.8346" x2="472.8346" y1="591.1803" y2="599.9087"/>
    <line x1="471.6656" x2="471.6656" y1="599.2338" y2="590.5054"/>
    <line x1="470.4966" x2="470.4966" y1="589.8305" y2="598.5589"/>
    <line x1="469.3277" x2="469.3277" y1="597.8839" y2="589.1555"/>
    <line x1="468.1587" x2="468.1587" y1="588.4806" y2="597.209"/>
    <line x1="466.9897" x2="466.9897" y1="596.5341" y2="587.8057"/>
    <line x1="465.8207" x2="465.8207" y1="587.1308" y2="595.8592"/>
    <line x1="464.6517" x2="464.6517" y1="595.1843" y2="586.4559"/>
    <line x1="463.4827" x2="463.4827" y1="585.781" y2="594.5094"/>
    <polyline points="462.3137,593.8345 462.3137,587.9911 445.9479,578.5423 429.5821,587.9911 429.5821,601.5363"/>
    <line x1="428.4131" x2="428.4131" y1="602.2113" y2="597.8981"/>
    <line x1="427.2441" x2="427.2441" y1="597.2232" y2="602.8862"/>
    <line x1="426.0751" x2="426.0751" y1="603.5611" y2="596.5483"/>
    <line x1="424.9061" x2="424.9061" y1="595.8733" y2="604.236"/>
    <line x1="423.7371" x2="423.7371" y1="604.9109" y2="595.1984"/>
    <polyline points="422.5681,594.5235 422.7297,605.4926 413.2162,600.0 396.8504,609.4488 380.4846,600.0 364.1187,609.4488 347.7529,600.0"/>
    <line x1="345.4149" x2="345.4149" y1="601.3498" y2="592.6002"/>
    <line x1="347.7529" x2="331.3871" y1="591.2504" y2="600.6992"/>
    <line x1="330.2181" x2="330.2181" y1="600.0243" y2="608.7739"/>
    <line x1="329.0491" x2="329.0491" y1="608.099" y2="599.3494"/>
    <line x1="327.8801" x2="327.8801" y1="598.6744" y2="607.4241"/>
    <line x1="326.7111" x2="326.7111" y1="606.7492" y2="597.9995"/>
    <line x1="325.5421" x2="325.5421" y1="597.3246" y2="606.0742"/>
    <line x1="324.3731" x2="324.3731" y1="605.3993" y2="596.6497"/>
    <line x1="323.2041" x2="323.2041" y1="595.9748" y2="604.7244"/>
    <line x1="322.0352" x2="322.0352" y1="604.0495" y2="595.2999"/>
    <line x1="320.8662" x2="320.8662" y1="594.6249" y2="603.3746"/>
    <line x1="319.6972" x2="319.6972" y1="602.6997" y2="593.95"/>
    <line x1="318.5282" x2="318.5282" y1="593.2751" y2="602.0247"/>
    <line x1="317.3592" x2="317.3592" y1="601.3498" y2="592.6002"/>
    <line x1="316.1902" x2="316.1902" y1="591.9253" y2="600.6749"/>
    <line x1="313.8522" x2="313.8522" y1="599.3251" y2="599.3251"/>
    <line x1="312.6832" x2="312.6832" y1="598.6502" y2="598.6502"/>
    <line x1="312.6832" x2="312.6832" y1="601.3498" y2="601.3498"/>
    <line x1="309.1763" x2="309.1763" y1="596.6254" y2="596.6254"/>
    <line x1="305.6693" x2="305.6693" y1="594.6007" y2="594.6007"/>
    <line x1="303.3313" x2="303.3313" y1="593.2508" y2="593.2508"/>
    <line x1="300.9934" x2="300.9934" y1="591.901" y2="591.901"/>
    <line x1="303.3313" x2="303.3313" y1="587.8515" y2="587.8515"/>
    <line x1="296.3174" x2="296.3174" y1="591.901" y2="591.901"/>
    <line x1="293.9794" x2="293.9794" y1="593.2508" y2="593.2508"/>
    <line x1="291.6415" x2="291.6415" y1="594.6007" y2="594.6007"/>
    <line x1="292.8104" x2="292.8104" y1="587.1766" y2="587.1766"/>
    <line x1="289.3035" x2="289.3035" y1="585.1519" y2="585.1519"/>
    <line x1="284.6275" x2="284.6275" y1="579.7525" y2="571.1249"/>
    <polyline points="282.2896,572.4748 282.2896,581.1024 298.6554,571.6535 315.0212,581.1024 331.3871,571.6535 347.7529,581.1024 364.1187,571.6535 380.4846,581.1024 396.8504,571.6535 413.2162,581.1024 429.5821,571.6535 435.3723,574.9965 435.427,568.4887"/>
    <line x1="434.258" x2="434.258" y1="567.8138" y2="574.3532"/>
    <line x1="433.089" x2="433.089" y1="573.6783" y2="567.1389"/>
    <line x1="431.92" x2="431.92" y1="566.464" y2="573.0034"/>
    <line x1="430.7511" x2="430.7511" y1="572.3285" y2="565.7891"/>
    <line x1="429.5821" x2="441.0356" y1="565.1142" y2="571.7269"/>
    <line x1="440.103" x2="440.103" y1="571.1884" y2="572.2653"/>
    <line x1="438.934" x2="438.934" y1="572.9402" y2="570.5135"/>
    <line x1="437.765" x2="437.765" y1="569.8386" y2="573.6151"/>
    <line x1="436.596" x2="436.596" y1="574.2901" y2="569.1637"/>
    <polyline points="445.9479,568.8907 445.9479,564.4591 454.1308,559.7347"/>
    <line x1="453.8549" x2="445.9479" y1="559.894" y2="555.3289"/>
    <polyline points="445.9479,555.6653 445.9479,555.3289 452.358,551.6281"/>
    <line x1="452.0266" x2="452.0266" y1="551.4368" y2="549.0071"/>
    <polyline points="453.0805,547.4251 445.9479,543.3071 429.5821,552.7559 429.5821,546.3568 413.2162,536.908 396.8504,546.3568 396.8504,552.7559 380.4846,543.3071 364.1187,552.7559 347.7529,543.3071 331.3871,552.7559 331.3871,545.4339 315.0212,535.9851 301.5267,543.7761"/>
    <line x1="300.9934" x2="300.9934" y1="543.4682" y2="536.646"/>
    <line x1="303.3313" x2="303.3313" y1="535.2962" y2="542.7342"/>
    <line x1="305.6693" x2="305.6693" y1="541.3844" y2="533.9463"/>
    <line x1="308.0073" x2="308.0073" y1="532.5965" y2="540.0346"/>
    <line x1="310.3453" x2="310.3453" y1="538.6847" y2="531.2467"/>
    <line x1="312.6832" x2="312.6832" y1="529.8968" y2="537.3349"/>
    <polyline points="315.0212,535.9851 315.0212,528.547 298.6554,519.0982 287.9845,525.259"/>
    <line x1="286.9655" x2="286.9655" y1="524.6707" y2="521.4074"/>
    <line x1="284.6275" x2="284.6275" y1="522.7573" y2="523.3209"/>
    <line x1="284.1394" x2="298.6554" y1="523.0391" y2="514.6583"/>
    <line x1="296.3174" x2="296.3174" y1="516.0081" y2="520.448"/>
    <polyline points="298.6554,519.0982 298.6554,514.6583 282.2896,505.2095 270.1265,512.2318"/>
    <line x1="276.4446" x2="276.4446" y1="521.0349" y2="521.0349"/>
    <line x1="277.6136" x2="277.6136" y1="521.9538" y2="524.6707"/>
    <line x1="275.2756" x2="275.2756" y1="526.0206" y2="523.3036"/>
    <line x1="272.9376" x2="272.9376" y1="524.6535" y2="527.3704"/>
    <line x1="270.5997" x2="270.5997" y1="528.7202" y2="526.0033"/>
    <line x1="268.2617" x2="268.2617" y1="527.3531" y2="530.07"/>
    <polyline points="267.6219,530.4394 282.2896,521.9711 298.6554,531.4199 298.6554,542.1184"/>
    <line x1="296.3174" x2="296.3174" y1="543.4682" y2="532.7697"/>
    <line x1="293.9794" x2="293.9794" y1="534.1195" y2="544.818"/>
    <line x1="291.6415" x2="291.6415" y1="546.1679" y2="535.4694"/>
    <line x1="289.3035" x2="289.3035" y1="536.8192" y2="547.5177"/>
    <line x1="286.9655" x2="286.9655" y1="548.8675" y2="538.169"/>
    <line x1="284.6275" x2="284.6275" y1="539.5189" y2="550.2174"/>
    <line x1="283.4585" x2="283.4585" y1="552.2421" y2="554.252"/>
    <line x1="284.6275" x2="284.6275" y1="554.9269" y2="552.917"/>
    <line x1="285.7965" x2="285.7965" y1="553.5919" y2="555.6019"/>
    <line x1="286.9655" x2="286.9655" y1="556.2768" y2="554.2669"/>
    <line x1="288.1345" x2="288.1345" y1="554.9418" y2="556.9517"/>
    <line x1="289.3035" x2="289.3035" y1="557.6266" y2="555.6167"/>
    <line x1="290.4725" x2="290.4725" y1="556.2916" y2="558.3015"/>
    <line x1="291.6415" x2="291.6415" y1="558.9764" y2="556.9665"/>
    <line x1="292.8104" x2="292.8104" y1="557.6414" y2="559.6514"/>
    <line x1="293.9794" x2="293.9794" y1="560.3263" y2="558.3163"/>
    <line x1="295.1484" x2="295.1484" y1="558.9913" y2="561.0012"/>
    <line x1="296.3174" x2="296.3174" y1="561.6761" y2="559.6662"/>
    <line x1="297.4864" x2="297.4864" y1="560.3411" y2="562.351"/>
    <polyline points="298.6554,563.0259 282.2896,572.4748 265.9237,563.0259 282.2896,553.5771 298.6554,563.0259 298.6554,571.6535 298.6554,561.016"/>
    <line x1="300.9934" x2="300.9934" y1="559.6662" y2="570.3037"/>
    <line x1="303.3313" x2="303.3313" y1="568.9539" y2="558.3163"/>
    <line x1="305.6693" x2="305.6693" y1="556.9665" y2="567.604"/>
    <line x1="308.0073" x2="308.0073" y1="566.2542" y2="555.6167"/>
    <line x1="310.3453" x2="310.3453" y1="554.2669" y2="564.9044"/>
    <line x1="312.6832" x2="312.6832" y1="563.5546" y2="552.917"/>
    <polyline points="315.0212,551.5672 298.6554,561.016 282.2896,551.5672 298.6554,542.1184 315.0212,551.5672 315.0212,562.2047 331.3871,552.7559 347.7529,562.2047 364.1187,552.7559 380.4846,562.2047 396.8504,552.7559 413.2162,562.2047 413.2162,555.8056"/>
    <line x1="412.0472" x2="412.0472" y1="555.1307" y2="561.5298"/>
    <polyline points="413.2162,562.2047 429.5821,552.7559 440.2846,558.935"/>
    <line x1="447.1169" x2="447.1169" y1="556.3403" y2="556.0038"/>
    <line x1="448.2859" x2="448.2859" y1="556.6788" y2="557.0152"/>
    <line x1="449.4549" x2="449.4549" y1="557.3537" y2="557.6901"/>
    <line x1="450.6238" x2="450.6238" y1="558.0286" y2="558.365"/>
    <line x1="451.7928" x2="451.7928" y1="558.7035" y2="559.0399"/>
    <line x1="452.9618" x2="452.9618" y1="559.3784" y2="559.7148"/>
    <polyline points="453.5635,560.0622 445.9479,555.6653 429.5821,565.1142 429.5821,571.6535 413.2162,562.2047 396.8504,571.6535 380.4846,562.2047 364.1187,571.6535 347.7529,562.2047 331.3871,571.6535 315.0212,562.2047 298.6554,571.6535"/>
    <line x1="296.3174" x2="296.3174" y1="573.0034" y2="564.3758"/>
    <line x1="293.9794" x2="293.9794" y1="565.7256" y2="574.3532"/>
    <line x1="291.6415" x2="291.6415" y1="575.703" y2="567.0754"/>
    <line x1="289.3035" x2="289.3035" y1="568.4253" y2="577.0529"/>
    <line x1="286.9655" x2="286.9655" y1="578.4027" y2="569.7751"/>
    <line x1="281.1206" x2="281.1206" y1="571.7998" y2="580.4274"/>
    <polyline points="282.2896,581.1024 265.9237,571.6535 249.5579,581.1024 249.5579,598.1102 265.9237,607.5591"/>
    <line x1="264.7547" x2="264.7547" y1="606.8841" y2="589.8763"/>
    <line x1="263.5857" x2="263.5857" y1="589.2013" y2="606.2092"/>
    <line x1="262.4168" x2="262.4168" y1="605.5343" y2="588.5264"/>
    <line x1="261.2478" x2="261.2478" y1="587.8515" y2="604.8594"/>
    <line x1="260.0788" x2="260.0788" y1="604.1845" y2="587.1766"/>
    <line x1="258.9098" x2="258.9098" y1="586.5017" y2="603.5096"/>
    <line x1="257.7408" x2="257.7408" y1="602.8346" y2="585.8268"/>
    <line x1="256.5718" x2="256.5718" y1="585.1519" y2="602.1597"/>
    <line x1="255.4028" x2="255.4028" y1="601.4848" y2="584.4769"/>
    <line x1="254.2338" x2="254.2338" y1="583.802" y2="600.8099"/>
    <line x1="253.0648" x2="253.0648" y1="600.135" y2="583.1271"/>
    <line x1="251.8959" x2="251.8959" y1="582.4522" y2="599.4601"/>
    <line x1="250.7269" x2="250.7269" y1="598.7852" y2="581.7773"/>
    <line x1="251.8959" x2="251.8959" y1="579.7525" y2="564.9641"/>
    <line x1="254.2338" x2="254.2338" y1="563.6142" y2="578.4027"/>
    <line x1="256.5718" x2="256.5718" y1="577.0529" y2="562.2644"/>
    <line x1="258.9098" x2="258.9098" y1="560.9146" y2="575.703"/>
    <line x1="261.2478" x2="261.2478" y1="574.3532" y2="559.5647"/>
    <line x1="263.5857" x2="263.5857" y1="558.2149" y2="573.0034"/>
    <polyline points="265.9237,571.6535 265.9237,556.8651 249.5579,547.4163 233.192,556.8651 233.192,588.6614 249.5579,598.1102"/>
    <line x1="248.3889" x2="248.3889" y1="597.4353" y2="565.639"/>
    <line x1="247.2199" x2="247.2199" y1="564.9641" y2="596.7604"/>
    <line x1="246.0509" x2="246.0509" y1="596.0855" y2="564.2891"/>
    <line x1="244.8819" x2="244.8819" y1="563.6142" y2="595.4106"/>
    <line x1="243.7129" x2="243.7129" y1="594.7357" y2="562.9393"/>
    <line x1="242.544" x2="242.544" y1="562.2644" y2="594.0607"/>
    <line x1="241.375" x2="241.375" y1="593.3858" y2="561.5895"/>
    <line x1="240.206" x2="240.206" y1="560.9146" y2="592.7109"/>
    <line x1="239.037" x2="239.037" y1="592.036" y2="560.2397"/>
    <line x1="237.868" x2="237.868" y1="559.5647" y2="591.3611"/>
    <line x1="236.699" x2="236.699" y1="590.6862" y2="558.8898"/>
    <line x1="235.53" x2="235.53" y1="558.2149" y2="590.0112"/>
    <line x1="234.361" x2="234.361" y1="589.3363" y2="557.54"/>
    <polyline points="233.192,556.8651 249.5579,566.3139 265.9237,556.8651 265.9237,548.3566 249.5579,538.9078"/>
    <line x1="250.7269" x2="250.7269" y1="539.5827" y2="548.0912"/>
    <polyline points="249.5579,547.4163 249.5579,538.9078 265.9237,529.459 282.2896,538.9078 282.2896,553.5771"/>
    <line x1="279.9516" x2="279.9516" y1="554.9269" y2="540.2577"/>
    <line x1="282.2896" x2="298.6554" y1="540.8687" y2="531.4199"/>
    <line x1="298.6554" x2="315.0212" y1="537.9958" y2="528.547"/>
    <line x1="317.3592" x2="317.3592" y1="534.0911" y2="535.6318"/>
    <polyline points="315.8843,536.4834 331.3871,527.5328 347.7529,536.9816 347.7529,543.3071 364.1187,533.8583 380.4846,543.3071 396.8504,533.8583 407.6745,540.1075"/>
    <line x1="407.3713" x2="407.3713" y1="539.9325" y2="534.1637"/>
    <line x1="408.5403" x2="408.5403" y1="534.8387" y2="539.6077"/>
    <line x1="409.7093" x2="409.7093" y1="538.9328" y2="535.5136"/>
    <line x1="410.8783" x2="410.8783" y1="536.1885" y2="538.2578"/>
    <line x1="412.0472" x2="412.0472" y1="537.5829" y2="536.8634"/>
    <line x1="414.3852" x2="414.3852" y1="537.5829" y2="535.0981"/>
    <line x1="413.2162" x2="429.5821" y1="534.4232" y2="543.872"/>
    <line x1="428.4131" x2="428.4131" y1="543.1971" y2="545.6819"/>
    <line x1="427.2441" x2="427.2441" y1="545.007" y2="542.5221"/>
    <line x1="426.0751" x2="426.0751" y1="541.8472" y2="544.3321"/>
    <line x1="424.9061" x2="424.9061" y1="543.6572" y2="541.1723"/>
    <line x1="423.7371" x2="423.7371" y1="540.4974" y2="542.9823"/>
    <line x1="422.5681" x2="422.5681" y1="542.3073" y2="539.8225"/>
    <line x1="421.3991" x2="421.3991" y1="539.1476" y2="541.6324"/>
    <line x1="420.2302" x2="420.2302" y1="540.9575" y2="538.4727"/>
    <line x1="419.0612" x2="419.0612" y1="537.7977" y2="540.2826"/>
    <line x1="417.8922" x2="417.8922" y1="539.6077" y2="537.1228"/>
    <line x1="416.7232" x2="416.7232" y1="536.4479" y2="538.9328"/>
    <line x1="415.5542" x2="415.5542" y1="538.2578" y2="535.773"/>
    <line x1="406.2023" x2="406.2023" y1="533.4888" y2="539.2576"/>
    <line x1="405.0333" x2="405.0333" y1="538.5827" y2="532.8139"/>
    <line x1="403.8643" x2="403.8643" y1="532.139" y2="537.9078"/>
    <line x1="402.6953" x2="402.6953" y1="537.2328" y2="531.4641"/>
    <line x1="401.5263" x2="401.5263" y1="530.7892" y2="536.5579"/>
    <line x1="400.3574" x2="400.3574" y1="535.883" y2="530.1142"/>
    <line x1="399.1884" x2="399.1884" y1="529.4393" y2="535.2081"/>
    <line x1="398.0194" x2="398.0194" y1="534.5332" y2="528.7644"/>
    <line x1="407.3713" x2="407.3713" y1="521.0349" y2="521.0349"/>
    <polyline points="408.2203,521.5251 396.8504,514.9606 380.4846,524.4094 364.1187,514.9606 347.7529,524.4094"/>
    <line x1="350.0909" x2="350.0909" y1="523.0596" y2="515.175"/>
    <line x1="352.4288" x2="352.4288" y1="513.8251" y2="521.7098"/>
    <line x1="354.7668" x2="354.7668" y1="520.36" y2="512.4753"/>
    <line x1="357.1048" x2="357.1048" y1="511.1255" y2="519.0101"/>
    <line x1="359.4428" x2="359.4428" y1="517.6603" y2="509.7756"/>
    <polyline points="354.5812,501.5695 364.1187,496.063 380.4846,505.5118 396.8504,496.063 413.2162,505.5118 429.5821,496.063 445.9479,505.5118 462.3137,496.063 478.6796,505.5118 495.0454,496.063 511.4112,505.5118"/>
    <line x1="506.7353" x2="506.7353" y1="508.2115" y2="508.2115"/>
    <line x1="504.3973" x2="504.3973" y1="509.5613" y2="509.5613"/>
    <line x1="499.7214" x2="499.7214" y1="512.261" y2="512.261"/>
    <line x1="492.7074" x2="492.7074" y1="497.4128" y2="497.4128"/>
    <polyline points="495.0454,496.063 478.6796,486.6142 462.3137,496.063 445.9479,486.6142 429.5821,496.063 413.2162,486.6142 396.8504,496.063 380.4846,486.6142 364.1187,496.063 347.7529,486.6142 331.3871,496.063 315.0212,486.6142 298.6554,496.063"/>
    <line x1="300.9934" x2="300.9934" y1="497.4128" y2="497.4128"/>
    <line x1="302.1624" x2="302.1624" y1="498.0877" y2="498.0877"/>
    <polyline points="315.0212,486.6142 331.3871,477.1654 347.7529,486.6142 364.1187,477.1654 380.4846,486.6142 396.8504,477.1654 413.2162,486.6142 429.5821,477.1654 445.9479,486.6142 462.3137,477.1654 478.6796,486.6142"/>
    <line x1="474.0036" x2="474.0036" y1="489.3138" y2="489.3138"/>
    <line x1="471.6656" x2="471.6656" y1="490.6637" y2="490.6637"/>
    <line x1="466.9897" x2="466.9897" y1="493.3633" y2="493.3633"/>
    <line x1="464.6517" x2="464.6517" y1="497.4128" y2="497.4128"/>
    <line x1="461.1447" x2="461.1447" y1="495.3881" y2="495.3881"/>
    <line x1="459.9758" x2="459.9758" y1="497.4128" y2="497.4128"/>
    <line x1="457.6378" x2="457.6378" y1="493.3633" y2="493.3633"/>
    <line x1="456.4688" x2="456.4688" y1="492.6884" y2="492.6884"/>
    <line x1="452.9618" x2="452.9618" y1="490.6637" y2="490.6637"/>
    <line x1="455.2998" x2="455.2998" y1="481.2148" y2="481.2148"/>
    <line x1="459.9758" x2="459.9758" y1="478.5152" y2="478.5152"/>
    <polyline points="462.3137,477.1654 445.9479,467.7165 429.5821,477.1654 413.2162,467.7165 396.8504,477.1654 380.4846,467.7165 364.1187,477.1654 347.7529,467.7165 331.3871,477.1654"/>
    <line x1="333.725" x2="333.725" y1="478.5152" y2="478.5152"/>
    <line x1="334.894" x2="334.894" y1="479.1901" y2="479.1901"/>
    <line x1="338.401" x2="338.401" y1="481.2148" y2="481.2148"/>
    <line x1="346.5839" x2="346.5839" y1="485.9393" y2="485.9393"/>
    <line x1="350.0909" x2="350.0909" y1="485.2643" y2="485.2643"/>
    <line x1="351.2599" x2="351.2599" y1="488.6389" y2="488.6389"/>
    <line x1="354.7668" x2="354.7668" y1="490.6637" y2="490.6637"/>
    <line x1="358.2738" x2="358.2738" y1="492.6884" y2="492.6884"/>
    <line x1="359.4428" x2="359.4428" y1="493.3633" y2="493.3633"/>
    <line x1="362.9497" x2="362.9497" y1="495.3881" y2="495.3881"/>
    <line x1="361.7807" x2="361.7807" y1="497.4128" y2="497.4128"/>
    <line x1="357.1048" x2="357.1048" y1="481.2148" y2="481.2148"/>
    <line x1="361.7807" x2="361.7807" y1="478.5152" y2="478.5152"/>
    <line x1="362.9497" x2="362.9497" y1="476.4904" y2="476.4904"/>
    <line x1="359.4428" x2="359.4428" y1="474.4657" y2="474.4657"/>
    <line x1="358.2738" x2="358.2738" y1="473.7908" y2="473.7908"/>
    <line x1="354.7668" x2="354.7668" y1="471.766" y2="471.766"/>
    <line x1="351.2599" x2="351.2599" y1="469.7413" y2="469.7413"/>
    <polyline points="347.7529,467.7165 364.1187,458.2677 380.4846,467.7165 396.8504,458.2677 413.2162,467.7165 429.5821,458.2677 445.9479,467.7165"/>
    <line x1="438.934" x2="438.934" y1="471.766" y2="471.766"/>
    <line x1="434.258" x2="434.258" y1="474.4657" y2="474.4657"/>
    <line x1="422.5681" x2="422.5681" y1="481.2148" y2="481.2148"/>
    <line x1="422.5681" x2="422.5681" y1="462.3172" y2="462.3172"/>
    <polyline points="429.5821,458.2677 413.2162,448.8189 396.8504,458.2677 380.4846,448.8189 364.1187,458.2677"/>
    <line x1="371.1327" x2="371.1327" y1="462.3172" y2="462.3172"/>
    <line x1="379.3156" x2="379.3156" y1="467.0416" y2="467.0416"/>
    <line x1="373.4706" x2="373.4706" y1="471.766" y2="471.766"/>
    <line x1="368.7947" x2="368.7947" y1="474.4657" y2="474.4657"/>
    <line x1="366.4567" x2="366.4567" y1="478.5152" y2="478.5152"/>
    <line x1="367.6257" x2="367.6257" y1="479.1901" y2="479.1901"/>
    <line x1="371.1327" x2="371.1327" y1="481.2148" y2="481.2148"/>
    <line x1="372.3016" x2="372.3016" y1="481.8898" y2="481.8898"/>
    <line x1="389.8365" x2="389.8365" y1="481.2148" y2="481.2148"/>
    <line x1="405.0333" x2="405.0333" y1="500.7874" y2="500.7874"/>
    <polyline points="418.2121,521.5251 429.5821,514.9606 445.9479,524.4094 462.3137,514.9606 478.6796,524.4094 495.0454,514.9606 511.4112,524.4094 527.7771,514.9606 544.1429,524.4094"/>
    <polyline points="560.5087,533.8583 544.1429,524.4094 527.7771,533.8583 511.4112,524.4094 495.0454,533.8583 482.4575,526.5907"/>
    <polyline points="481.0441,525.7746 478.6796,524.4094 462.3137,533.8583 445.9479,524.4094 437.2758,529.4163"/>
    <line x1="438.934" x2="438.934" y1="528.4589" y2="528.4589"/>
    <line x1="440.103" x2="440.103" y1="521.0349" y2="521.0349"/>
    <line x1="444.7789" x2="444.7789" y1="523.7345" y2="523.7345"/>
    <line x1="452.9618" x2="452.9618" y1="528.4589" y2="528.4589"/>
    <polyline points="445.9479,534.4232 429.5821,543.872 429.5821,546.3568 413.2162,555.8056 396.8504,546.3568"/>
    <line x1="398.0194" x2="398.0194" y1="547.0317" y2="553.4308"/>
    <line x1="399.1884" x2="399.1884" y1="554.1057" y2="547.7067"/>
    <line x1="400.3574" x2="400.3574" y1="548.3816" y2="554.7807"/>
    <line x1="401.5263" x2="401.5263" y1="555.4556" y2="549.0565"/>
    <line x1="402.6953" x2="402.6953" y1="549.7314" y2="556.1305"/>
    <line x1="403.8643" x2="403.8643" y1="556.8054" y2="550.4063"/>
    <line x1="405.0333" x2="405.0333" y1="551.0812" y2="557.4803"/>
    <line x1="406.2023" x2="406.2023" y1="558.1552" y2="551.7562"/>
    <line x1="407.3713" x2="407.3713" y1="552.4311" y2="558.8301"/>
    <line x1="408.5403" x2="408.5403" y1="559.5051" y2="553.106"/>
    <line x1="409.7093" x2="409.7093" y1="553.7809" y2="560.18"/>
    <line x1="410.8783" x2="410.8783" y1="560.8549" y2="554.4558"/>
    <line x1="415.5542" x2="415.5542" y1="554.4558" y2="560.8549"/>
    <line x1="417.8922" x2="417.8922" y1="559.5051" y2="553.106"/>
    <line x1="420.2302" x2="420.2302" y1="551.7562" y2="558.1552"/>
    <line x1="422.5681" x2="422.5681" y1="556.8054" y2="550.4063"/>
    <line x1="424.9061" x2="424.9061" y1="549.0565" y2="555.4556"/>
    <line x1="427.2441" x2="427.2441" y1="554.1057" y2="547.7067"/>
    <line x1="431.92" x2="431.92" y1="551.4061" y2="542.5221"/>
    <line x1="434.258" x2="434.258" y1="541.1723" y2="550.0562"/>
    <line x1="436.596" x2="436.596" y1="548.7064" y2="539.8225"/>
    <line x1="438.934" x2="438.934" y1="538.4727" y2="547.3566"/>
    <line x1="441.2719" x2="441.2719" y1="546.0067" y2="537.1228"/>
    <line x1="443.6099" x2="443.6099" y1="535.773" y2="544.6569"/>
    <line x1="453.1956" x2="453.1956" y1="547.2523" y2="552.1117"/>
    <polyline points="454.1308,552.6516 454.1308,569.6595 455.7674,570.6044"/>
    <line x1="454.9491" x2="454.9491" y1="570.1319" y2="553.1241"/>
    <line x1="455.5336" x2="455.5336" y1="553.4615" y2="543.7427"/>
    <line x1="456.7026" x2="456.7026" y1="541.9879" y2="554.1364"/>
    <polyline points="457.404,554.5414 457.404,569.6595 465.5869,574.3839"/>
    <line x1="465.0414" x2="464.8855" y1="574.0689" y2="554.0014"/>
    <line x1="463.7165" x2="463.7165" y1="550.8968" y2="558.1859"/>
    <line x1="463.9503" x2="463.9503" y1="558.3209" y2="573.439"/>
    <line x1="462.8593" x2="462.8593" y1="572.8091" y2="557.691"/>
    <line x1="462.5475" x2="462.5475" y1="557.511" y2="547.7922"/>
    <line x1="461.3785" x2="461.3785" y1="544.6876" y2="556.8361"/>
    <line x1="461.7682" x2="461.7682" y1="557.0611" y2="572.1792"/>
    <line x1="458.495" x2="458.495" y1="570.2894" y2="555.1713"/>
    <line x1="457.8716" x2="457.8716" y1="554.8113" y2="540.2332"/>
    <line x1="454.3646" x2="454.3646" y1="545.4975" y2="552.7866"/>
    <polyline points="455.7674,553.5965 455.7674,570.6044 457.404,569.6595"/>
    <polyline points="454.1308,567.7697 445.9479,572.4941 445.9479,578.5423"/>
    <line x1="447.1169" x2="447.1169" y1="579.2172" y2="573.169"/>
    <line x1="448.2859" x2="448.2859" y1="573.844" y2="579.8921"/>
    <line x1="449.4549" x2="449.4549" y1="580.567" y2="574.5189"/>
    <line x1="450.6238" x2="450.6238" y1="575.1938" y2="581.2419"/>
    <line x1="451.7928" x2="451.7928" y1="581.9168" y2="575.8687"/>
    <line x1="452.9618" x2="452.9618" y1="576.5436" y2="582.5917"/>
    <line x1="454.1308" x2="454.1308" y1="583.2667" y2="577.2185"/>
    <line x1="455.2998" x2="455.2998" y1="577.8935" y2="583.9416"/>
    <line x1="456.4688" x2="456.4688" y1="584.6165" y2="578.5684"/>
    <line x1="457.6378" x2="457.6378" y1="579.2433" y2="585.2914"/>
    <line x1="458.8068" x2="458.8068" y1="585.9663" y2="579.9182"/>
    <line x1="459.9758" x2="459.9758" y1="580.5931" y2="586.6412"/>
    <line x1="464.6517" x2="464.6517" y1="583.7562" y2="580.5931"/>
    <line x1="466.9897" x2="466.9897" y1="579.2433" y2="582.4064"/>
    <line x1="469.3277" x2="469.3277" y1="581.0565" y2="577.8935"/>
    <polyline points="467.2235,577.2185 465.5869,576.2737 465.5869,559.2658"/>
    <line x1="466.0545" x2="466.0545" y1="559.5357" y2="557.1061"/>
    <line x1="466.4052" x2="466.4052" y1="559.7382" y2="576.7461"/>
    <line x1="471.6656" x2="471.6656" y1="576.5436" y2="579.7067"/>
    <line x1="474.0036" x2="474.0036" y1="578.3569" y2="575.1938"/>
    <line x1="476.3416" x2="476.3416" y1="573.844" y2="577.0071"/>
    <polyline points="478.6796,575.6572 478.6796,572.4941 475.4064,570.6044"/>
    <line x1="476.5754" x2="476.5754" y1="569.9295" y2="554.8113"/>
    <line x1="478.9134" x2="478.9134" y1="553.4615" y2="568.5796"/>
    <line x1="481.2513" x2="481.2513" y1="567.2298" y2="552.1117"/>
    <polyline points="485.2259,549.817 485.2259,566.8248 486.8625,565.88 486.8625,548.8721"/>
    <polyline points="487.5905,548.4518 495.0454,552.7559 511.4112,543.3071 527.7771,552.7559 544.1429,543.3071 560.5087,552.7559 576.8746,543.3071 593.2404,552.7559 593.2404,569.7638 576.8746,579.2126"/>
    <line x1="579.2125" x2="579.2125" y1="577.8628" y2="560.8549"/>
    <line x1="581.5505" x2="581.5505" y1="559.5051" y2="576.5129"/>
    <line x1="583.8885" x2="583.8885" y1="575.1631" y2="558.1552"/>
    <line x1="586.2265" x2="586.2265" y1="556.8054" y2="573.8133"/>
    <line x1="588.5645" x2="588.5645" y1="572.4634" y2="555.4556"/>
    <line x1="590.9024" x2="590.9024" y1="554.1057" y2="571.1136"/>
    <line x1="574.5366" x2="574.5366" y1="563.5546" y2="580.5624"/>
    <line x1="572.1986" x2="572.1986" y1="581.9123" y2="564.9044"/>
    <line x1="569.8606" x2="569.8606" y1="566.2542" y2="583.2621"/>
    <line x1="567.5227" x2="567.5227" y1="584.6119" y2="567.604"/>
    <line x1="565.1847" x2="565.1847" y1="568.9539" y2="585.9618"/>
    <line x1="562.8467" x2="562.8467" y1="587.3116" y2="570.3037"/>
    <line x1="558.1708" x2="558.1708" y1="573.0034" y2="590.0112"/>
    <line x1="555.8328" x2="555.8328" y1="591.3611" y2="574.3532"/>
    <line x1="553.4948" x2="553.4948" y1="575.703" y2="592.7109"/>
    <line x1="551.1568" x2="551.1568" y1="594.0607" y2="577.0529"/>
    <line x1="548.8189" x2="548.8189" y1="578.4027" y2="595.4106"/>
    <line x1="546.4809" x2="546.4809" y1="596.7604" y2="579.7525"/>
    <line x1="541.8049" x2="541.8049" y1="579.7525" y2="579.7525"/>
    <line x1="541.8049" x2="541.8049" y1="582.4522" y2="599.4601"/>
    <polyline points="544.1429,598.1102 560.5087,588.6614 560.5087,571.6535 544.1429,562.2047 527.7771,571.6535 511.4112,562.2047 504.3202,566.2988"/>
    <line x1="506.7353" x2="506.7353" y1="573.0925" y2="583.802"/>
    <line x1="509.0733" x2="509.0733" y1="582.4522" y2="571.7426"/>
    <polyline points="511.4112,570.3928 495.1788,579.7646 495.0454,563.0453 486.8625,558.3209"/>
    <line x1="489.7999" x2="495.0454" y1="560.0168" y2="556.9884"/>
    <line x1="492.7074" x2="492.7074" y1="558.3382" y2="561.6955"/>
    <polyline points="493.2256,561.9946 495.0454,560.944 511.4112,570.3928 511.4112,581.1024 527.7771,571.6535 544.1429,581.1024 544.1429,598.1102 527.7771,607.5591"/>
    <line x1="530.115" x2="530.115" y1="606.2092" y2="589.2013"/>
    <line x1="532.453" x2="532.453" y1="587.8515" y2="604.8594"/>
    <line x1="534.791" x2="534.791" y1="603.5096" y2="586.5017"/>
    <line x1="537.129" x2="537.129" y1="585.1519" y2="602.1597"/>
    <line x1="539.467" x2="539.467" y1="600.8099" y2="583.802"/>
    <line x1="538.298" x2="538.298" y1="577.7278" y2="577.7278"/>
    <line x1="526.6081" x2="526.6081" y1="589.8763" y2="589.8763"/>
    <line x1="525.4391" x2="525.4391" y1="591.901" y2="608.9089"/>
    <line x1="523.1011" x2="523.1011" y1="610.2587" y2="593.2508"/>
    <line x1="520.7631" x2="520.7631" y1="594.6007" y2="611.6085"/>
    <line x1="518.4252" x2="518.4252" y1="612.9584" y2="595.9505"/>
    <line x1="516.0872" x2="516.0872" y1="597.3003" y2="614.3082"/>
    <line x1="513.7492" x2="513.7492" y1="615.658" y2="598.6502"/>
    <line x1="511.4112" x2="593.2404" y1="600.0" y2="552.7559"/>
    <polyline points="576.8746,543.3071 560.5087,533.8583 544.1429,543.3071 527.7771,533.8583 511.4112,543.3071 495.0454,533.8583 486.9532,538.5303"/>
    <line x1="485.6935" x2="485.6935" y1="528.4589" y2="528.4589"/>
    <line x1="479.6615" x2="479.6615" y1="526.5729" y2="526.5729"/>
    <line x1="477.3703" x2="477.3703" y1="527.8957" y2="527.8957"/>
    <line x1="475.0791" x2="475.0791" y1="529.2185" y2="529.2185"/>
    <line x1="471.6656" x2="471.6656" y1="528.4589" y2="528.4589"/>
    <line x1="472.8346" x2="472.8346" y1="521.0349" y2="521.0349"/>
    <line x1="472.8346" x2="472.8346" y1="502.1372" y2="502.1372"/>
    <polyline points="426.8843,526.5319 413.2162,518.6407 396.8504,528.0895 396.8504,533.8583 380.4846,524.4094 364.1187,533.8583 347.7529,524.4094 336.8651,530.6955"/>
    <line x1="340.739" x2="340.739" y1="528.4589" y2="528.4589"/>
    <polyline points="331.3871,527.5328 331.3871,525.9921 315.0212,516.5433 304.6257,522.5452"/>
    <line x1="305.6693" x2="305.6693" y1="521.9426" y2="519.9127"/>
    <line x1="308.0073" x2="308.0073" y1="520.5928" y2="518.5628"/>
    <line x1="310.3453" x2="310.3453" y1="519.2429" y2="517.213"/>
    <line x1="312.6832" x2="312.6832" y1="517.8931" y2="515.8632"/>
    <line x1="315.0212" x2="302.8677" y1="514.5133" y2="521.5302"/>
    <line x1="303.3313" x2="303.3313" y1="521.7979" y2="521.2625"/>
    <line x1="293.9794" x2="293.9794" y1="521.7979" y2="517.3579"/>
    <line x1="291.6415" x2="291.6415" y1="518.7078" y2="523.1477"/>
    <line x1="289.3035" x2="289.3035" y1="524.4975" y2="520.0576"/>
    <line x1="282.2896" x2="265.9237" y1="519.2541" y2="528.703"/>
    <polyline points="265.9237,529.459 265.9237,528.703 249.5579,519.2541"/>
    <line x1="250.7269" x2="250.7269" y1="519.9291" y2="522.3782"/>
    <line x1="251.8959" x2="251.8959" y1="523.0531" y2="520.604"/>
    <line x1="253.0648" x2="253.0648" y1="521.2789" y2="523.728"/>
    <line x1="254.2338" x2="254.2338" y1="524.4029" y2="521.9538"/>
    <line x1="255.4028" x2="255.4028" y1="522.6287" y2="525.0779"/>
    <line x1="256.5718" x2="256.5718" y1="525.7528" y2="523.3036"/>
    <line x1="257.7408" x2="257.7408" y1="523.9785" y2="526.4277"/>
    <line x1="258.9098" x2="258.9098" y1="527.1026" y2="524.6535"/>
    <line x1="260.0788" x2="260.0788" y1="525.3284" y2="527.7775"/>
    <line x1="261.2478" x2="261.2478" y1="528.4524" y2="526.0033"/>
    <line x1="262.4168" x2="262.4168" y1="526.6782" y2="529.1273"/>
    <line x1="263.5857" x2="263.5857" y1="529.8023" y2="527.3531"/>
    <line x1="264.7547" x2="264.7547" y1="528.028" y2="530.1339"/>
    <polyline points="264.4575,530.3055 249.5579,521.7033 233.192,531.1521 233.192,541.5173"/>
    <line x1="234.361" x2="234.361" y1="542.1922" y2="531.827"/>
    <line x1="233.192" x2="249.5579" y1="531.1521" y2="540.6009"/>
    <line x1="248.3889" x2="248.3889" y1="539.926" y2="548.0912"/>
    <line x1="247.2199" x2="247.2199" y1="548.7661" y2="539.2511"/>
    <line x1="246.0509" x2="246.0509" y1="538.5762" y2="548.9414"/>
    <polyline points="246.4836,549.1912 233.192,541.5173 216.8262,550.9661 216.8262,579.2126 233.192,588.6614"/>
    <line x1="232.0231" x2="232.0231" y1="587.9865" y2="559.74"/>
    <line x1="230.8541" x2="230.8541" y1="559.0651" y2="587.3116"/>
    <line x1="229.6851" x2="229.6851" y1="586.6367" y2="558.3902"/>
    <line x1="228.5161" x2="228.5161" y1="557.7153" y2="585.9618"/>
    <line x1="227.3471" x2="227.3471" y1="585.2868" y2="557.0404"/>
    <line x1="226.1781" x2="226.1781" y1="556.3654" y2="584.6119"/>
    <line x1="225.0091" x2="225.0091" y1="583.937" y2="555.6905"/>
    <line x1="223.8401" x2="223.8401" y1="555.0156" y2="583.2621"/>
    <line x1="222.6712" x2="222.6712" y1="582.5872" y2="554.3407"/>
    <line x1="221.5022" x2="221.5022" y1="553.6658" y2="581.9123"/>
    <line x1="220.3332" x2="220.3332" y1="581.2373" y2="552.9909"/>
    <line x1="219.1642" x2="219.1642" y1="552.316" y2="580.5624"/>
    <line x1="217.9952" x2="217.9952" y1="579.8875" y2="551.641"/>
    <line x1="216.8262" x2="233.192" y1="550.9661" y2="560.4149"/>
    <line x1="225.0091" x2="225.0091" y1="546.2417" y2="541.2642"/>
    <line x1="226.1781" x2="226.1781" y1="541.9392" y2="545.5668"/>
    <line x1="227.3471" x2="227.3471" y1="544.8919" y2="542.6141"/>
    <line x1="228.5161" x2="228.5161" y1="543.289" y2="544.217"/>
    <line x1="229.3198" x2="216.8262" y1="543.753" y2="536.5398"/>
    <line x1="217.9952" x2="217.9952" y1="537.2147" y2="543.982"/>
    <line x1="219.1642" x2="219.1642" y1="544.6569" y2="537.8897"/>
    <line x1="220.3332" x2="220.3332" y1="538.5646" y2="545.3318"/>
    <line x1="221.5022" x2="221.5022" y1="546.0067" y2="539.2395"/>
    <line x1="222.6712" x2="222.6712" y1="539.9144" y2="546.6817"/>
    <polyline points="223.4591,547.1366 216.8262,543.3071 200.4604,552.7559 200.4604,569.7638 216.8262,579.2126"/>
    <line x1="215.6572" x2="215.6572" y1="578.5377" y2="561.5298"/>
    <line x1="214.4882" x2="214.4882" y1="560.8549" y2="577.8628"/>
    <line x1="213.3193" x2="213.3193" y1="577.1879" y2="560.18"/>
    <line x1="212.1503" x2="212.1503" y1="559.5051" y2="576.5129"/>
    <line x1="210.9813" x2="210.9813" y1="575.838" y2="558.8301"/>
    <line x1="209.8123" x2="209.8123" y1="558.1552" y2="575.1631"/>
    <line x1="208.6433" x2="208.6433" y1="574.4882" y2="557.4803"/>
    <line x1="207.4743" x2="207.4743" y1="556.8054" y2="573.8133"/>
    <line x1="206.3053" x2="206.3053" y1="573.1384" y2="556.1305"/>
    <line x1="205.1363" x2="205.1363" y1="555.4556" y2="572.4634"/>
    <line x1="203.9673" x2="203.9673" y1="571.7885" y2="554.7807"/>
    <line x1="202.7984" x2="202.7984" y1="554.1057" y2="571.1136"/>
    <line x1="201.6294" x2="201.6294" y1="570.4387" y2="553.4308"/>
    <line x1="200.4604" x2="216.8262" y1="552.7559" y2="562.2047"/>
    <line x1="223.8401" x2="223.8401" y1="546.9166" y2="540.5893"/>
    <polyline points="216.8262,543.3071 216.8262,536.5398 233.192,527.091 236.7091,529.1216"/>
    <line x1="235.53" x2="235.53" y1="532.5019" y2="542.8671"/>
    <line x1="236.699" x2="236.699" y1="543.542" y2="533.1768"/>
    <line x1="237.868" x2="237.868" y1="533.8518" y2="544.217"/>
    <line x1="239.037" x2="239.037" y1="544.8919" y2="534.5267"/>
    <line x1="240.206" x2="240.206" y1="535.2016" y2="545.5668"/>
    <line x1="241.375" x2="241.375" y1="546.2417" y2="535.8765"/>
    <line x1="242.544" x2="242.544" y1="536.5514" y2="546.9166"/>
    <line x1="243.7129" x2="243.7129" y1="547.5915" y2="537.2263"/>
    <line x1="244.8819" x2="244.8819" y1="537.9013" y2="548.2665"/>
    <line x1="251.8959" x2="251.8959" y1="548.7661" y2="540.2577"/>
    <line x1="253.0648" x2="253.0648" y1="540.9326" y2="549.441"/>
    <line x1="254.2338" x2="254.2338" y1="550.1159" y2="541.6075"/>
    <line x1="255.4028" x2="255.4028" y1="542.2824" y2="550.7908"/>
    <line x1="256.5718" x2="256.5718" y1="551.4658" y2="542.9573"/>
    <line x1="257.7408" x2="257.7408" y1="543.6322" y2="552.1407"/>
    <line x1="258.9098" x2="258.9098" y1="552.8156" y2="544.3071"/>
    <line x1="260.0788" x2="260.0788" y1="544.9821" y2="553.4905"/>
    <line x1="261.2478" x2="261.2478" y1="554.1654" y2="545.657"/>
    <line x1="262.4168" x2="262.4168" y1="546.3319" y2="554.8403"/>
    <line x1="263.5857" x2="263.5857" y1="555.5152" y2="547.0068"/>
    <line x1="264.7547" x2="264.7547" y1="547.6817" y2="556.1902"/>
    <line x1="268.2617" x2="268.2617" y1="561.6761" y2="547.0068"/>
    <line x1="270.5997" x2="270.5997" y1="545.657" y2="560.3263"/>
    <line x1="272.9376" x2="272.9376" y1="558.9764" y2="544.3071"/>
    <line x1="275.2756" x2="275.2756" y1="542.9573" y2="557.6266"/>
    <line x1="277.6136" x2="277.6136" y1="556.2768" y2="541.6075"/>
    <line x1="282.2896" x2="265.9237" y1="538.9078" y2="548.3566"/>
    <line x1="267.0927" x2="267.0927" y1="563.7009" y2="572.3285"/>
    <line x1="268.2617" x2="268.2617" y1="573.0034" y2="564.3758"/>
    <line x1="269.4307" x2="269.4307" y1="565.0507" y2="573.6783"/>
    <line x1="270.5997" x2="270.5997" y1="574.3532" y2="565.7256"/>
    <line x1="271.7687" x2="271.7687" y1="566.4005" y2="575.0281"/>
    <line x1="272.9376" x2="272.9376" y1="575.703" y2="567.0754"/>
    <line x1="274.1066" x2="274.1066" y1="567.7503" y2="576.378"/>
    <line x1="275.2756" x2="275.2756" y1="577.0529" y2="568.4253"/>
    <line x1="276.4446" x2="276.4446" y1="569.1002" y2="577.7278"/>
    <line x1="277.6136" x2="277.6136" y1="578.4027" y2="569.7751"/>
    <line x1="278.7826" x2="278.7826" y1="570.45" y2="579.0776"/>
    <line x1="279.9516" x2="279.9516" y1="579.7525" y2="571.1249"/>
    <line x1="268.2617" x2="268.2617" y1="591.901" y2="608.9089"/>
    <line x1="269.4307" x2="269.4307" y1="609.5838" y2="592.5759"/>
    <line x1="270.5997" x2="270.5997" y1="593.2508" y2="610.2587"/>
    <line x1="271.7687" x2="271.7687" y1="610.9336" y2="593.9258"/>
    <line x1="272.9376" x2="272.9376" y1="594.6007" y2="611.6085"/>
    <line x1="274.1066" x2="274.1066" y1="612.2835" y2="595.2756"/>
    <line x1="275.2756" x2="275.2756" y1="595.9505" y2="612.9584"/>
    <line x1="276.4446" x2="276.4446" y1="613.6333" y2="596.6254"/>
    <line x1="277.6136" x2="277.6136" y1="597.3003" y2="614.3082"/>
    <line x1="278.7826" x2="278.7826" y1="614.9831" y2="597.9753"/>
    <line x1="279.9516" x2="279.9516" y1="598.6502" y2="615.658"/>
    <line x1="281.1206" x2="281.1206" y1="616.333" y2="599.3251"/>
    <line x1="283.4585" x2="283.4585" y1="600.6749" y2="617.6828"/>
    <line x1="284.6275" x2="284.6275" y1="618.3577" y2="601.3498"/>
    <line x1="285.7965" x2="285.7965" y1="602.0247" y2="619.0326"/>
    <line x1="286.9655" x2="286.9655" y1="619.7075" y2="602.6997"/>
    <line x1="288.1345" x2="288.1345" y1="603.3746" y2="620.3825"/>
    <line x1="289.3035" x2="289.3035" y1="621.0574" y2="604.0495"/>
    <line x1="290.4725" x2="290.4725" y1="604.7244" y2="621.7323"/>
    <line x1="291.6415" x2="291.6415" y1="622.4072" y2="605.3993"/>
    <line x1="292.8104" x2="292.8104" y1="606.0742" y2="623.0821"/>
    <line x1="293.9794" x2="293.9794" y1="623.757" y2="606.7492"/>
    <line x1="295.1484" x2="295.1484" y1="607.4241" y2="624.4319"/>
    <line x1="296.3174" x2="296.3174" y1="625.1069" y2="608.099"/>
    <line x1="297.4864" x2="297.4864" y1="608.7739" y2="625.7818"/>
    <polyline points="298.6554,626.4567 282.2896,617.0079 282.2896,600.0 298.6554,590.5512 315.0212,600.0 315.0212,591.2504 331.3871,581.8015 347.7529,591.2504 347.7529,600.0 364.1187,590.5512 380.4846,600.0 396.8504,590.5512 413.2162,600.0 413.2162,589.1242 429.5821,579.6754 436.7837,583.8332"/>
    <line x1="436.596" x2="436.596" y1="583.7249" y2="582.389"/>
    <line x1="435.427" x2="435.427" y1="583.0499" y2="581.7141"/>
    <line x1="434.258" x2="434.258" y1="582.375" y2="581.0392"/>
    <line x1="433.089" x2="433.089" y1="581.7001" y2="580.3643"/>
    <line x1="431.92" x2="431.92" y1="581.0252" y2="579.6894"/>
    <line x1="430.7511" x2="430.7511" y1="580.3503" y2="579.0145"/>
    <polyline points="429.5821,579.6754 429.5821,578.3396 445.9479,568.8907 449.0685,570.6924"/>
    <line x1="449.4549" x2="449.4549" y1="570.4694" y2="566.4839"/>
    <line x1="450.6238" x2="450.6238" y1="567.1588" y2="569.7945"/>
    <line x1="451.7928" x2="451.7928" y1="569.1196" y2="567.8337"/>
    <line x1="452.9064" x2="445.9479" y1="568.4766" y2="564.4591"/>
    <line x1="447.1169" x2="447.1169" y1="565.134" y2="569.5657"/>
    <line x1="448.2859" x2="448.2859" y1="570.2406" y2="565.8089"/>
    <polyline points="445.9479,572.4941 462.3137,581.9429 495.0454,563.0453"/>
    <polyline points="495.0454,560.944 495.0454,556.9884 486.8625,552.264"/>
    <polyline points="491.38,554.8721 495.0454,552.7559 511.4112,562.2047 527.7771,552.7559 544.1429,562.2047 560.5087,552.7559 576.8746,562.2047 576.8746,579.2126 560.5087,588.6614"/>
    <line x1="553.4948" x2="553.4948" y1="567.604" y2="567.604"/>
    <line x1="551.1568" x2="551.1568" y1="558.1552" y2="558.1552"/>
    <line x1="541.8049" x2="541.8049" y1="560.8549" y2="560.8549"/>
    <line x1="538.298" x2="538.298" y1="558.8301" y2="558.8301"/>
    <line x1="513.7492" x2="513.7492" y1="560.8549" y2="560.8549"/>
    <polyline points="504.3973,574.4423 504.3973,585.0869 511.4112,581.1024 527.7771,590.5512 527.7771,607.5591 511.4112,617.0079"/>
    <line x1="509.0733" x2="509.0733" y1="618.3577" y2="590.4862"/>
    <line x1="506.7353" x2="506.7353" y1="591.8361" y2="619.7075"/>
    <line x1="504.3973" x2="504.3973" y1="621.0574" y2="593.1859"/>
    <line x1="502.0593" x2="502.0593" y1="594.5357" y2="622.4072"/>
    <line x1="499.7214" x2="499.7214" y1="623.757" y2="595.8856"/>
    <line x1="497.3834" x2="497.3834" y1="597.2354" y2="625.1069"/>
    <line x1="476.3416" x2="476.3416" y1="637.2553" y2="604.6331"/>
    <line x1="474.0036" x2="474.0036" y1="605.9829" y2="638.6052"/>
    <line x1="471.6656" x2="471.6656" y1="639.955" y2="607.3328"/>
    <line x1="469.3277" x2="469.3277" y1="608.6826" y2="641.3048"/>
    <line x1="466.9897" x2="466.9897" y1="642.6547" y2="610.0324"/>
    <line x1="464.6517" x2="464.6517" y1="611.3823" y2="644.0045"/>
    <polyline points="462.3137,645.3543 478.6796,635.9055 478.6796,603.2833 462.3137,593.8345 445.9479,603.2833 445.8122,610.9068 429.5821,601.5363 413.2162,610.9852 413.2162,618.8976 396.8504,609.4488 380.4846,618.8976 364.1187,609.4488 347.7529,618.8976 331.3871,609.4488 315.0212,618.8976 315.0212,635.9055 331.3871,645.3543"/>
    <line x1="330.2181" x2="330.2181" y1="644.6794" y2="627.6715"/>
    <line x1="329.0491" x2="329.0491" y1="626.9966" y2="644.0045"/>
    <line x1="327.8801" x2="327.8801" y1="643.3296" y2="626.3217"/>
    <line x1="326.7111" x2="326.7111" y1="625.6468" y2="642.6547"/>
    <line x1="325.5421" x2="325.5421" y1="641.9798" y2="624.9719"/>
    <line x1="324.3731" x2="324.3731" y1="624.297" y2="641.3048"/>
    <line x1="323.2041" x2="323.2041" y1="640.6299" y2="623.622"/>
    <line x1="322.0352" x2="322.0352" y1="622.9471" y2="639.955"/>
    <line x1="320.8662" x2="320.8662" y1="639.2801" y2="622.2722"/>
    <line x1="319.6972" x2="319.6972" y1="621.5973" y2="638.6052"/>
    <line x1="318.5282" x2="318.5282" y1="637.9303" y2="620.9224"/>
    <line x1="317.3592" x2="317.3592" y1="620.2475" y2="637.2553"/>
    <line x1="316.1902" x2="316.1902" y1="636.5804" y2="619.5726"/>
    <line x1="313.8522" x2="313.8522" y1="618.2227" y2="635.2306"/>
    <line x1="312.6832" x2="312.6832" y1="634.5557" y2="617.5478"/>
    <line x1="311.5143" x2="311.5143" y1="616.8729" y2="633.8808"/>
    <line x1="310.3453" x2="310.3453" y1="633.2058" y2="616.198"/>
    <line x1="309.1763" x2="309.1763" y1="615.5231" y2="632.5309"/>
    <line x1="308.0073" x2="308.0073" y1="631.856" y2="614.8481"/>
    <line x1="306.8383" x2="306.8383" y1="614.1732" y2="631.1811"/>
    <line x1="305.6693" x2="305.6693" y1="630.5062" y2="613.4983"/>
    <line x1="304.5003" x2="304.5003" y1="612.8234" y2="629.8313"/>
    <line x1="303.3313" x2="303.3313" y1="629.1564" y2="612.1485"/>
    <line x1="302.1624" x2="302.1624" y1="611.4736" y2="628.4814"/>
    <line x1="300.9934" x2="300.9934" y1="627.8065" y2="610.7987"/>
    <line x1="299.8244" x2="299.8244" y1="610.1237" y2="627.1316"/>
    <polyline points="315.0212,635.9055 298.6554,626.4567 298.6554,609.4488 315.0212,600.0 331.3871,609.4488 331.3871,600.6992 315.0212,591.2504"/>
    <line x1="318.5282" x2="318.5282" y1="583.1271" y2="583.1271"/>
    <polyline points="323.8096,586.1764 315.0212,581.1024 298.6554,590.5512 282.2896,581.1024 265.9237,590.5512 265.9237,607.5591 282.2896,617.0079"/>
    <line x1="267.0927" x2="267.0927" y1="608.234" y2="591.2261"/>
    <line x1="284.6275" x2="284.6275" y1="598.6502" y2="598.6502"/>
    <line x1="303.3313" x2="303.3313" y1="606.7492" y2="606.7492"/>
    <line x1="305.6693" x2="305.6693" y1="605.3993" y2="605.3993"/>
    <line x1="326.7111" x2="326.7111" y1="612.1485" y2="612.1485"/>
    <polyline points="331.3871,609.4488 347.7529,600.0 364.1187,609.4488"/>
    <line x1="362.9497" x2="362.9497" y1="608.7739" y2="608.7739"/>
    <line x1="368.7947" x2="368.7947" y1="612.1485" y2="612.1485"/>
    <line x1="378.1466" x2="378.1466" y1="598.6502" y2="598.6502"/>
    <line x1="375.8086" x2="375.8086" y1="597.3003" y2="597.3003"/>
    <line x1="374.6396" x2="374.6396" y1="596.6254" y2="596.6254"/>
    <line x1="372.3016" x2="372.3016" y1="595.2756" y2="595.2756"/>
    <line x1="371.1327" x2="371.1327" y1="594.6007" y2="594.6007"/>
    <line x1="368.7947" x2="368.7947" y1="593.2508" y2="593.2508"/>
    <line x1="365.2877" x2="365.2877" y1="591.2261" y2="591.2261"/>
    <line x1="361.7807" x2="361.7807" y1="589.2013" y2="589.2013"/>
    <line x1="357.1048" x2="357.1048" y1="594.6007" y2="594.6007"/>
    <line x1="350.0909" x2="350.0909" y1="598.6502" y2="598.6502"/>
    <line x1="352.4288" x2="352.4288" y1="602.6997" y2="602.6997"/>
    <line x1="343.0769" x2="343.0769" y1="602.6997" y2="593.95"/>
    <line x1="340.739" x2="340.739" y1="595.2999" y2="604.0495"/>
    <line x1="338.401" x2="338.401" y1="605.3993" y2="596.6497"/>
    <line x1="336.063" x2="336.063" y1="597.9995" y2="606.7492"/>
    <line x1="333.725" x2="333.725" y1="608.099" y2="599.3494"/>
    <polyline points="338.9645,586.1764 347.7529,581.1024 364.1187,590.5512 380.4846,581.1024 396.8504,590.5512 413.2162,581.1024 420.1633,585.1133"/>
    <line x1="416.7232" x2="416.7232" y1="591.1489" y2="602.0247"/>
    <line x1="417.8922" x2="417.8922" y1="602.6997" y2="591.8238"/>
    <line x1="419.0612" x2="419.0612" y1="592.4988" y2="603.3746"/>
    <line x1="420.2302" x2="420.2302" y1="604.0495" y2="593.1737"/>
    <line x1="421.3991" x2="421.3991" y1="593.8486" y2="604.7244"/>
    <line x1="415.5542" x2="415.5542" y1="601.3498" y2="590.474"/>
    <line x1="414.3852" x2="414.3852" y1="589.7991" y2="600.6749"/>
    <line x1="408.5403" x2="408.5403" y1="602.6997" y2="602.6997"/>
    <line x1="407.3713" x2="407.3713" y1="596.6254" y2="596.6254"/>
    <line x1="403.8643" x2="403.8643" y1="594.6007" y2="594.6007"/>
    <line x1="401.5263" x2="401.5263" y1="593.2508" y2="593.2508"/>
    <line x1="399.1884" x2="399.1884" y1="589.2013" y2="589.2013"/>
    <line x1="394.5124" x2="394.5124" y1="589.2013" y2="589.2013"/>
    <line x1="394.5124" x2="394.5124" y1="591.901" y2="591.901"/>
    <line x1="392.1744" x2="392.1744" y1="593.2508" y2="593.2508"/>
    <line x1="389.8365" x2="389.8365" y1="594.6007" y2="594.6007"/>
    <line x1="391.0055" x2="391.0055" y1="587.1766" y2="587.1766"/>
    <line x1="385.1605" x2="385.1605" y1="602.6997" y2="602.6997"/>
    <line x1="413.2162" x2="445.9479" y1="610.9852" y2="629.7261"/>
    <line x1="444.7789" x2="444.7789" y1="629.0511" y2="637.1204"/>
    <line x1="443.6099" x2="443.6099" y1="636.4454" y2="628.3762"/>
    <line x1="442.4409" x2="442.4409" y1="627.7013" y2="635.7705"/>
    <line x1="441.2719" x2="441.2719" y1="635.0956" y2="627.0264"/>
    <line x1="440.103" x2="440.103" y1="626.3515" y2="634.4207"/>
    <line x1="438.934" x2="438.934" y1="633.7458" y2="625.6766"/>
    <line x1="437.765" x2="437.765" y1="625.0017" y2="633.0709"/>
    <line x1="436.596" x2="436.596" y1="632.396" y2="624.3267"/>
    <line x1="435.427" x2="435.427" y1="623.6518" y2="631.721"/>
    <line x1="434.258" x2="434.258" y1="631.0461" y2="622.9769"/>
    <line x1="433.089" x2="433.089" y1="622.302" y2="630.3712"/>
    <line x1="431.92" x2="431.92" y1="629.6963" y2="621.6271"/>
    <line x1="430.7511" x2="430.7511" y1="620.9522" y2="629.0214"/>
    <line x1="428.4131" x2="428.4131" y1="627.6715" y2="619.7591"/>
    <line x1="427.2441" x2="427.2441" y1="619.0842" y2="626.9966"/>
    <line x1="426.0751" x2="426.0751" y1="626.3217" y2="618.4092"/>
    <line x1="424.9061" x2="424.9061" y1="617.7343" y2="625.6468"/>
    <line x1="423.7371" x2="423.7371" y1="624.9719" y2="617.0594"/>
    <line x1="422.5681" x2="422.5681" y1="616.3845" y2="624.297"/>
    <line x1="421.3991" x2="421.3991" y1="623.622" y2="615.7096"/>
    <line x1="420.2302" x2="420.2302" y1="615.0347" y2="622.9471"/>
    <line x1="419.0612" x2="419.0612" y1="622.2722" y2="614.3597"/>
    <line x1="417.8922" x2="417.8922" y1="613.6848" y2="621.5973"/>
    <line x1="416.7232" x2="416.7232" y1="620.9224" y2="613.0099"/>
    <line x1="415.5542" x2="415.5542" y1="612.335" y2="620.2475"/>
    <line x1="414.3852" x2="414.3852" y1="619.5726" y2="611.6601"/>
    <line x1="429.5821" x2="413.2162" y1="598.573" y2="589.1242"/>
    <line x1="429.5821" x2="437.9405" y1="578.3396" y2="583.1653"/>
    <line x1="437.765" x2="437.765" y1="583.064" y2="583.2667"/>
    <line x1="464.6517" x2="464.6517" y1="564.3951" y2="564.3951"/>
    <line x1="466.9897" x2="466.9897" y1="565.745" y2="565.745"/>
    <line x1="471.8994" x2="471.8994" y1="572.6291" y2="557.511"/>
    <line x1="474.2374" x2="474.2374" y1="556.1612" y2="571.2793"/>
    <line x1="481.0175" x2="481.0175" y1="571.1443" y2="577.0071"/>
    <line x1="483.3555" x2="483.3555" y1="578.3569" y2="569.7945"/>
    <line x1="492.7074" x2="492.7074" y1="564.3951" y2="581.0374"/>
    <line x1="497.3834" x2="497.3834" y1="581.0374" y2="578.4918"/>
    <line x1="499.7214" x2="499.7214" y1="577.142" y2="582.3873"/>
    <line x1="502.0593" x2="502.0593" y1="583.7371" y2="575.7921"/>
    <polyline points="495.0454,585.106 478.6796,594.5549 478.6796,603.2833 462.3137,612.7321 462.3137,620.2772 445.9479,629.7261 445.9479,637.7953 396.8504,666.1417 249.5579,581.1024 249.5579,566.3139"/>
    <polyline points="249.5579,521.7033 249.5579,519.2541 265.9237,509.8053 282.2896,519.2541 282.2896,521.9711"/>
    <line x1="279.9516" x2="279.9516" y1="523.3209" y2="520.604"/>
    <line x1="317.3592" x2="317.3592" y1="517.8931" y2="517.079"/>
    <line x1="319.6972" x2="319.6972" y1="515.7292" y2="519.2429"/>
    <polyline points="321.8335,520.4764 331.3871,514.9606 347.7529,524.4094 347.7529,516.5248 331.3871,507.076"/>
    <line x1="329.0491" x2="329.0491" y1="510.3299" y2="516.3105"/>
    <line x1="326.7111" x2="326.7111" y1="517.6603" y2="511.6797"/>
    <line x1="324.3731" x2="324.3731" y1="513.0296" y2="519.0101"/>
    <line x1="322.0352" x2="322.0352" y1="520.36" y2="514.3794"/>
    <polyline points="320.2005,502.5215 331.3871,496.063 340.9246,501.5695"/>
    <line x1="334.894" x2="334.894" y1="498.0877" y2="498.0877"/>
    <line x1="333.725" x2="333.725" y1="497.4128" y2="497.4128"/>
    <line x1="330.2181" x2="330.2181" y1="495.3881" y2="495.3881"/>
    <line x1="329.0491" x2="329.0491" y1="497.4128" y2="497.4128"/>
    <line x1="326.7111" x2="326.7111" y1="493.3633" y2="493.3633"/>
    <line x1="325.5421" x2="325.5421" y1="492.6884" y2="492.6884"/>
    <line x1="322.0352" x2="322.0352" y1="490.6637" y2="490.6637"/>
    <line x1="319.6972" x2="319.6972" y1="489.3138" y2="489.3138"/>
    <line x1="318.5282" x2="318.5282" y1="488.6389" y2="488.6389"/>
    <line x1="336.063" x2="336.063" y1="493.3633" y2="493.3633"/>
    <line x1="340.739" x2="340.739" y1="490.6637" y2="490.6637"/>
    <line x1="331.3871" x2="315.0212" y1="525.9921" y2="535.4409"/>
    <line x1="319.6972" x2="319.6972" y1="534.282" y2="532.7413"/>
    <line x1="322.0352" x2="322.0352" y1="532.9321" y2="531.3914"/>
    <line x1="324.3731" x2="324.3731" y1="531.5823" y2="530.0416"/>
    <line x1="326.7111" x2="326.7111" y1="530.2325" y2="528.6918"/>
    <line x1="329.0491" x2="329.0491" y1="528.8826" y2="527.3419"/>
    <line x1="338.401" x2="338.401" y1="542.381" y2="548.7064"/>
    <line x1="340.739" x2="340.739" y1="547.3566" y2="541.0311"/>
    <line x1="343.0769" x2="343.0769" y1="539.6813" y2="546.0067"/>
    <line x1="345.4149" x2="345.4149" y1="544.6569" y2="538.3315"/>
    <line x1="347.7529" x2="331.3871" y1="536.9816" y2="546.4304"/>
    <polyline points="331.3871,545.4339 315.0212,554.8827 315.0212,562.2047"/>
    <line x1="317.3592" x2="317.3592" y1="560.8549" y2="553.5329"/>
    <line x1="319.6972" x2="319.6972" y1="552.183" y2="559.5051"/>
    <line x1="322.0352" x2="322.0352" y1="558.1552" y2="550.8332"/>
    <line x1="324.3731" x2="324.3731" y1="549.4834" y2="556.8054"/>
    <line x1="326.7111" x2="326.7111" y1="555.4556" y2="548.1336"/>
    <line x1="329.0491" x2="329.0491" y1="546.7837" y2="554.1057"/>
    <line x1="333.725" x2="333.725" y1="551.4061" y2="545.0806"/>
    <line x1="336.063" x2="336.063" y1="543.7308" y2="550.0562"/>
    <line x1="345.4149" x2="345.4149" y1="563.5546" y2="563.5546"/>
    <line x1="340.739" x2="340.739" y1="585.1519" y2="585.1519"/>
    <line x1="345.4149" x2="345.4149" y1="620.2475" y2="620.2475"/>
    <line x1="353.5978" x2="353.5978" y1="622.2722" y2="622.2722"/>
    <line x1="350.0909" x2="350.0909" y1="636.4454" y2="636.4454"/>
    <line x1="348.9219" x2="348.9219" y1="638.4702" y2="655.4781"/>
    <line x1="350.0909" x2="350.0909" y1="656.153" y2="639.1451"/>
    <line x1="351.2599" x2="351.2599" y1="639.82" y2="656.8279"/>
    <line x1="352.4288" x2="352.4288" y1="657.5028" y2="640.4949"/>
    <line x1="353.5978" x2="353.5978" y1="641.1699" y2="658.1777"/>
    <line x1="354.7668" x2="354.7668" y1="658.8526" y2="641.8448"/>
    <line x1="355.9358" x2="355.9358" y1="642.5197" y2="659.5276"/>
    <line x1="357.1048" x2="357.1048" y1="660.2025" y2="643.1946"/>
    <line x1="358.2738" x2="358.2738" y1="643.8695" y2="660.8774"/>
    <line x1="359.4428" x2="359.4428" y1="661.5523" y2="644.5444"/>
    <line x1="360.6118" x2="360.6118" y1="645.2193" y2="662.2272"/>
    <line x1="361.7807" x2="361.7807" y1="662.9021" y2="645.8943"/>
    <line x1="362.9497" x2="362.9497" y1="646.5692" y2="663.5771"/>
    <polyline points="364.1187,664.252 347.7529,654.8031 347.7529,637.7953 364.1187,628.3465 380.4846,637.7953 396.8504,628.3465 413.2162,637.7953 429.5821,628.3465 445.9479,637.7953 445.9479,654.8031 429.5821,664.252"/>
    <line x1="431.92" x2="431.92" y1="662.9021" y2="645.8943"/>
    <line x1="434.258" x2="434.258" y1="644.5444" y2="661.5523"/>
    <line x1="436.596" x2="436.596" y1="660.2025" y2="643.1946"/>
    <line x1="438.934" x2="438.934" y1="641.8448" y2="658.8526"/>
    <line x1="441.2719" x2="441.2719" y1="657.5028" y2="640.4949"/>
    <line x1="443.6099" x2="443.6099" y1="639.1451" y2="656.153"/>
    <polyline points="445.9479,654.8031 462.3137,645.3543 462.3137,620.2772 445.9479,610.8284 429.5821,620.2772 429.5821,628.3465 413.2162,618.8976 396.8504,628.3465 380.4846,618.8976 364.1187,628.3465 347.7529,618.8976 331.3871,628.3465 331.3871,645.3543 347.7529,654.8031"/>
    <line x1="346.5839" x2="346.5839" y1="654.1282" y2="637.1204"/>
    <line x1="345.4149" x2="345.4149" y1="636.4454" y2="653.4533"/>
    <line x1="344.2459" x2="344.2459" y1="652.7784" y2="635.7705"/>
    <line x1="343.0769" x2="343.0769" y1="635.0956" y2="652.1035"/>
    <line x1="341.9079" x2="341.9079" y1="651.4286" y2="634.4207"/>
    <line x1="340.739" x2="340.739" y1="633.7458" y2="650.7537"/>
    <line x1="339.57" x2="339.57" y1="650.0787" y2="633.0709"/>
    <line x1="338.401" x2="338.401" y1="632.396" y2="649.4038"/>
    <line x1="337.232" x2="337.232" y1="648.7289" y2="631.721"/>
    <line x1="336.063" x2="336.063" y1="631.0461" y2="648.054"/>
    <line x1="334.894" x2="334.894" y1="647.3791" y2="630.3712"/>
    <line x1="333.725" x2="333.725" y1="629.6963" y2="646.7042"/>
    <line x1="332.556" x2="332.556" y1="646.0292" y2="629.0214"/>
    <line x1="365.2877" x2="365.2877" y1="647.919" y2="664.9269"/>
    <line x1="366.4567" x2="366.4567" y1="665.6018" y2="648.5939"/>
    <line x1="367.6257" x2="367.6257" y1="649.2688" y2="666.2767"/>
    <line x1="368.7947" x2="368.7947" y1="666.9516" y2="649.9438"/>
    <line x1="369.9637" x2="369.9637" y1="650.6187" y2="667.6265"/>
    <line x1="371.1327" x2="371.1327" y1="668.3015" y2="651.2936"/>
    <line x1="372.3016" x2="372.3016" y1="651.9685" y2="668.9764"/>
    <line x1="373.4706" x2="373.4706" y1="669.6513" y2="652.6434"/>
    <line x1="374.6396" x2="374.6396" y1="653.3183" y2="670.3262"/>
    <line x1="375.8086" x2="375.8086" y1="671.0011" y2="653.9933"/>
    <line x1="376.9776" x2="376.9776" y1="654.6682" y2="671.676"/>
    <line x1="378.1466" x2="378.1466" y1="672.351" y2="655.3431"/>
    <line x1="379.3156" x2="379.3156" y1="656.018" y2="673.0259"/>
    <polyline points="380.4846,673.7008 364.1187,664.252 364.1187,647.2441 380.4846,637.7953 396.8504,647.2441 413.2162,637.7953 429.5821,647.2441 429.5821,664.252 413.2162,673.7008"/>
    <line x1="415.5542" x2="415.5542" y1="672.351" y2="655.3431"/>
    <line x1="417.8922" x2="417.8922" y1="653.9933" y2="671.0011"/>
    <line x1="420.2302" x2="420.2302" y1="669.6513" y2="652.6434"/>
    <line x1="422.5681" x2="422.5681" y1="651.2936" y2="668.3015"/>
    <line x1="424.9061" x2="424.9061" y1="666.9516" y2="649.9438"/>
    <line x1="427.2441" x2="427.2441" y1="648.5939" y2="665.6018"/>
    <line x1="410.8783" x2="410.8783" y1="658.0427" y2="675.0506"/>
    <line x1="408.5403" x2="408.5403" y1="676.4004" y2="659.3926"/>
    <line x1="406.2023" x2="406.2023" y1="660.7424" y2="677.7503"/>
    <line x1="403.8643" x2="403.8643" y1="679.1001" y2="662.0922"/>
    <line x1="401.5263" x2="401.5263" y1="663.4421" y2="680.4499"/>
    <line x1="399.1884" x2="399.1884" y1="681.7998" y2="664.7919"/>
    <polyline points="396.8504,666.1417 396.8504,683.1496 380.4846,673.7008 380.4846,656.6929 396.8504,647.2441 413.2162,656.6929 413.2162,673.7008 396.8504,683.1496"/>
    <line x1="395.6814" x2="395.6814" y1="682.4747" y2="665.4668"/>
    <line x1="394.5124" x2="394.5124" y1="664.7919" y2="681.7998"/>
    <line x1="393.3434" x2="393.3434" y1="681.1249" y2="664.117"/>
    <line x1="392.1744" x2="392.1744" y1="663.4421" y2="680.4499"/>
    <line x1="391.0055" x2="391.0055" y1="679.775" y2="662.7672"/>
    <line x1="389.8365" x2="389.8365" y1="662.0922" y2="679.1001"/>
    <line x1="388.6675" x2="388.6675" y1="678.4252" y2="661.4173"/>
    <line x1="387.4985" x2="387.4985" y1="660.7424" y2="677.7503"/>
    <line x1="386.3295" x2="386.3295" y1="677.0754" y2="660.0675"/>
    <line x1="385.1605" x2="385.1605" y1="659.3926" y2="676.4004"/>
    <line x1="383.9915" x2="383.9915" y1="675.7255" y2="658.7177"/>
    <line x1="382.8225" x2="382.8225" y1="658.0427" y2="675.0506"/>
    <line x1="381.6535" x2="381.6535" y1="674.3757" y2="657.3678"/>
    <line x1="385.1605" x2="385.1605" y1="653.9933" y2="653.9933"/>
    <line x1="387.4985" x2="387.4985" y1="652.6434" y2="652.6434"/>
    <line x1="392.1744" x2="392.1744" y1="644.5444" y2="644.5444"/>
    <line x1="393.3434" x2="393.3434" y1="645.2193" y2="645.2193"/>
    <line x1="398.0194" x2="398.0194" y1="647.919" y2="647.919"/>
    <line x1="401.5263" x2="401.5263" y1="644.5444" y2="644.5444"/>
    <line x1="406.2023" x2="406.2023" y1="641.8448" y2="641.8448"/>
    <line x1="409.7093" x2="409.7093" y1="635.7705" y2="635.7705"/>
    <line x1="406.2023" x2="406.2023" y1="652.6434" y2="652.6434"/>
    <line x1="408.5403" x2="408.5403" y1="653.9933" y2="653.9933"/>
    <line x1="424.9061" x2="424.9061" y1="644.5444" y2="644.5444"/>
    <line x1="448.2859" x2="448.2859" y1="653.4533" y2="628.3762"/>
    <line x1="450.6238" x2="450.6238" y1="627.0264" y2="652.1035"/>
    <line x1="452.9618" x2="452.9618" y1="650.7537" y2="625.6766"/>
    <line x1="455.2998" x2="455.2998" y1="624.3267" y2="649.4038"/>
    <line x1="457.6378" x2="457.6378" y1="648.054" y2="622.9769"/>
    <line x1="459.9758" x2="459.9758" y1="621.6271" y2="646.7042"/>
    <line x1="495.0454" x2="511.4112" y1="598.5852" y2="589.1364"/>
    <line x1="513.7492" x2="513.7492" y1="579.7525" y2="579.7525"/>
    <line x1="521.9321" x2="521.9321" y1="587.1766" y2="587.1766"/>
    <line x1="490.3694" x2="490.3694" y1="560.3456" y2="559.688"/>
    <line x1="562.8467" x2="562.8467" y1="551.4061" y2="551.4061"/>
    <line x1="387.4985" x2="387.4985" y1="641.8448" y2="641.8448"/>
    <line x1="368.7947" x2="368.7947" y1="644.5444" y2="644.5444"/>
    <line x1="315.0212" x2="315.0212" y1="554.8827" y2="554.8827"/>
    <line x1="354.7668" x2="354.7668" y1="528.4589" y2="528.4589"/>
    <line x1="383.9915" x2="383.9915" y1="450.8436" y2="450.8436"/>
    <line x1="382.8225" x2="382.8225" y1="450.1687" y2="450.1687"/>
  </g>
</svg>
