<?xml version="1.0" encoding="utf-8" ?>
<svg xmlns="http://www.w3.org/2000/svg" xmlns:cc="http://creativecommons.org/ns#" xmlns:dc="http://purl.org/dc/elements/1.1/" xmlns:ev="http://www.w3.org/2001/xml-events" xmlns:inkscape="http://www.inkscape.org/namespaces/inkscape" xmlns:rdf="http://www.w3.org/1999/02/22-rdf-syntax-ns#" xmlns:sodipodi="http://sodipodi.sourceforge.net/DTD/sodipodi-0.dtd" xmlns:xlink="http://www.w3.org/1999/xlink" baseProfile="tiny" height="29.7cm" version="1.2" viewBox="0 0 793.7007874015749 1122.5196850393702" width="21.0cm">
  <metadata>
    <rdf:RDF>
      <cc:Work>
        <dc:format>image/svg+xml</dc:format>
        <dc:source/>
        <dc:date>2022-01-09T12:56:03.916779</dc:date>
      </cc:Work>
    </rdf:RDF>
  </metadata>
  <defs/>
  <g fill="none" id="layer2" inkscape:groupmode="layer" inkscape:label="2" stroke="#00f" style="display:inline">
    <polyline points="380.4846,448.8189 396.8504,439.3701 413.2162,448.8189"/>
    <line x1="410.8783" x2="410.8783" y1="450.1687" y2="450.1687"/>
    <line x1="403.8643" x2="403.8643" y1="462.3172" y2="462.3172"/>
    <line x1="395.6814" x2="395.6814" y1="457.5928" y2="457.5928"/>
    <line x1="389.8365" x2="389.8365" y1="462.3172" y2="462.3172"/>
    <line x1="383.9915" x2="383.9915" y1="469.7413" y2="469.7413"/>
    <line x1="387.4985" x2="387.4985" y1="471.766" y2="471.766"/>
    <line x1="391.0055" x2="391.0055" y1="473.7908" y2="473.7908"/>
    <line x1="392.1744" x2="392.1744" y1="474.4657" y2="474.4657"/>
    <line x1="395.6814" x2="395.6814" y1="476.4904" y2="476.4904"/>
    <line x1="394.5124" x2="394.5124" y1="478.5152" y2="478.5152"/>
    <line x1="399.1884" x2="399.1884" y1="478.5152" y2="478.5152"/>
    <line x1="400.3574" x2="400.3574" y1="479.1901" y2="479.1901"/>
    <line x1="403.8643" x2="403.8643" y1="481.2148" y2="481.2148"/>
    <line x1="401.5263" x2="401.5263" y1="474.4657" y2="474.4657"/>
    <line x1="406.2023" x2="406.2023" y1="471.766" y2="471.766"/>
    <line x1="412.0472" x2="412.0472" y1="467.0416" y2="467.0416"/>
    <line x1="416.7232" x2="416.7232" y1="469.7413" y2="469.7413"/>
    <line x1="420.2302" x2="420.2302" y1="471.766" y2="471.766"/>
    <line x1="423.7371" x2="423.7371" y1="473.7908" y2="473.7908"/>
    <line x1="424.9061" x2="424.9061" y1="474.4657" y2="474.4657"/>
    <line x1="428.4131" x2="428.4131" y1="476.4904" y2="476.4904"/>
    <line x1="427.2441" x2="427.2441" y1="478.5152" y2="478.5152"/>
    <line x1="431.92" x2="431.92" y1="478.5152" y2="478.5152"/>
    <line x1="433.089" x2="433.089" y1="479.1901" y2="479.1901"/>
    <line x1="436.596" x2="436.596" y1="481.2148" y2="481.2148"/>
    <line x1="437.765" x2="437.765" y1="481.8898" y2="481.8898"/>
    <line x1="443.6099" x2="443.6099" y1="485.2643" y2="485.2643"/>
    <line x1="444.7789" x2="444.7789" y1="485.9393" y2="485.9393"/>
    <line x1="438.934" x2="438.934" y1="490.6637" y2="490.6637"/>
    <line x1="434.258" x2="434.258" y1="493.3633" y2="493.3633"/>
    <line x1="431.92" x2="431.92" y1="497.4128" y2="497.4128"/>
    <line x1="428.4131" x2="428.4131" y1="495.3881" y2="495.3881"/>
    <line x1="427.2441" x2="427.2441" y1="497.4128" y2="497.4128"/>
    <line x1="424.9061" x2="424.9061" y1="493.3633" y2="493.3633"/>
    <line x1="423.7371" x2="423.7371" y1="492.6884" y2="492.6884"/>
    <line x1="420.2302" x2="420.2302" y1="490.6637" y2="490.6637"/>
    <line x1="416.7232" x2="416.7232" y1="488.6389" y2="488.6389"/>
    <line x1="412.0472" x2="412.0472" y1="485.9393" y2="485.9393"/>
    <line x1="406.2023" x2="406.2023" y1="490.6637" y2="490.6637"/>
    <line x1="401.5263" x2="401.5263" y1="493.3633" y2="493.3633"/>
    <line x1="399.1884" x2="399.1884" y1="497.4128" y2="497.4128"/>
    <line x1="400.3574" x2="400.3574" y1="498.0877" y2="498.0877"/>
    <line x1="395.6814" x2="395.6814" y1="495.3881" y2="495.3881"/>
    <line x1="394.5124" x2="394.5124" y1="497.4128" y2="497.4128"/>
    <line x1="392.1744" x2="392.1744" y1="493.3633" y2="493.3633"/>
    <line x1="391.0055" x2="391.0055" y1="492.6884" y2="492.6884"/>
    <line x1="387.4985" x2="387.4985" y1="490.6637" y2="490.6637"/>
    <line x1="383.9915" x2="383.9915" y1="488.6389" y2="488.6389"/>
    <line x1="379.3156" x2="379.3156" y1="485.9393" y2="485.9393"/>
    <line x1="373.4706" x2="373.4706" y1="490.6637" y2="490.6637"/>
    <line x1="368.7947" x2="368.7947" y1="493.3633" y2="493.3633"/>
    <line x1="366.4567" x2="366.4567" y1="497.4128" y2="497.4128"/>
    <line x1="367.6257" x2="367.6257" y1="498.0877" y2="498.0877"/>
    <line x1="362.9497" x2="362.9497" y1="495.3881" y2="495.3881"/>
    <line x1="361.7807" x2="361.7807" y1="497.4128" y2="497.4128"/>
    <line x1="359.4428" x2="359.4428" y1="493.3633" y2="493.3633"/>
    <line x1="358.2738" x2="358.2738" y1="492.6884" y2="492.6884"/>
    <line x1="354.7668" x2="354.7668" y1="490.6637" y2="490.6637"/>
    <line x1="351.2599" x2="351.2599" y1="488.6389" y2="488.6389"/>
    <line x1="350.0909" x2="350.0909" y1="485.2643" y2="485.2643"/>
    <line x1="346.5839" x2="346.5839" y1="485.9393" y2="485.9393"/>
    <line x1="340.739" x2="340.739" y1="490.6637" y2="490.6637"/>
    <line x1="336.063" x2="336.063" y1="493.3633" y2="493.3633"/>
    <line x1="333.725" x2="333.725" y1="497.4128" y2="497.4128"/>
    <line x1="334.894" x2="334.894" y1="498.0877" y2="498.0877"/>
    <line x1="330.2181" x2="330.2181" y1="495.3881" y2="495.3881"/>
    <line x1="329.0491" x2="329.0491" y1="497.4128" y2="497.4128"/>
    <line x1="326.7111" x2="326.7111" y1="493.3633" y2="493.3633"/>
    <line x1="325.5421" x2="325.5421" y1="492.6884" y2="492.6884"/>
    <line x1="322.0352" x2="322.0352" y1="490.6637" y2="490.6637"/>
    <line x1="319.6972" x2="319.6972" y1="489.3138" y2="489.3138"/>
    <line x1="318.5282" x2="318.5282" y1="488.6389" y2="488.6389"/>
    <polyline points="315.0212,486.6142 331.3871,477.1654 347.7529,486.6142 364.1187,477.1654 380.4846,486.6142 396.8504,477.1654 413.2162,486.6142 429.5821,477.1654 445.9479,486.6142 462.3137,477.1654 478.6796,486.6142"/>
    <line x1="474.0036" x2="474.0036" y1="489.3138" y2="489.3138"/>
    <line x1="471.6656" x2="471.6656" y1="490.6637" y2="490.6637"/>
    <polyline points="468.6758,492.3899 478.6796,486.6142 495.0454,496.063"/>
    <line x1="492.7074" x2="492.7074" y1="497.4128" y2="497.4128"/>
    <line x1="485.6935" x2="485.6935" y1="509.5613" y2="509.5613"/>
    <line x1="490.3694" x2="490.3694" y1="512.261" y2="512.261"/>
    <line x1="493.8764" x2="493.8764" y1="514.2857" y2="514.2857"/>
    <line x1="492.7074" x2="492.7074" y1="516.3105" y2="516.3105"/>
    <line x1="497.3834" x2="497.3834" y1="516.3105" y2="516.3105"/>
    <line x1="499.7214" x2="499.7214" y1="512.261" y2="512.261"/>
    <line x1="504.3973" x2="504.3973" y1="509.5613" y2="509.5613"/>
    <line x1="506.7353" x2="506.7353" y1="508.2115" y2="508.2115"/>
    <polyline points="511.4112,505.5118 495.0454,496.063 478.6796,505.5118 472.2102,501.7767"/>
    <line x1="472.8346" x2="472.8346" y1="502.1372" y2="502.1372"/>
    <polyline points="470.4966,507.8085 470.4966,524.8163 468.8601,525.7612 468.8601,508.7534"/>
    <line x1="468.0418" x2="468.0418" y1="509.2258" y2="525.2888"/>
    <line x1="467.2235" x2="452.4942" y1="524.8163" y2="533.3203"/>
    <line x1="453.1956" x2="453.1956" y1="532.9153" y2="517.7972"/>
    <polyline points="452.4942,518.2022 452.4942,535.21 450.8576,536.1549 450.8576,519.1471 442.6747,514.4226 442.6747,497.4148 465.5869,484.1864 473.7698,505.9187 450.8576,519.1471 442.6747,497.4148 434.4918,509.6982 442.6747,514.4226"/>
    <line x1="442.1292" x2="442.1292" y1="514.1077" y2="529.2258"/>
    <polyline points="441.0381,528.5959 439.4016,529.5408 439.4016,512.5329"/>
    <line x1="439.1678" x2="439.1678" y1="512.3979" y2="502.6791"/>
    <polyline points="439.3013,501.6744 429.5821,496.063 413.2162,505.5118 396.8504,496.063 386.5219,502.0261"/>
    <polyline points="395.8299,507.4001 380.4846,498.5404 365.4684,507.21"/>
    <polyline points="361.7857,507.7777 347.7529,499.6759 331.3871,509.1247 331.3871,514.9606 315.0212,505.5118 298.6554,514.9606 282.2896,505.5118 265.9237,514.9606"/>
    <line x1="268.2617" x2="268.2617" y1="516.3105" y2="516.3105"/>
    <line x1="269.4307" x2="269.4307" y1="516.9854" y2="516.9854"/>
    <line x1="276.4446" x2="276.4446" y1="521.0349" y2="521.0349"/>
    <line x1="281.1206" x2="281.1206" y1="523.7345" y2="523.7345"/>
    <line x1="275.2756" x2="275.2756" y1="528.4589" y2="528.4589"/>
    <line x1="288.1345" x2="288.1345" y1="527.784" y2="527.784"/>
    <line x1="289.3035" x2="289.3035" y1="528.4589" y2="528.4589"/>
    <line x1="296.3174" x2="296.3174" y1="516.3105" y2="516.3105"/>
    <line x1="297.4864" x2="297.4864" y1="514.2857" y2="514.2857"/>
    <line x1="293.9794" x2="293.9794" y1="512.261" y2="512.261"/>
    <line x1="289.3035" x2="289.3035" y1="509.5613" y2="509.5613"/>
    <line x1="288.1345" x2="288.1345" y1="508.8864" y2="508.8864"/>
    <line x1="286.9655" x2="286.9655" y1="508.2115" y2="508.2115"/>
    <polyline points="282.2896,505.5118 298.6554,496.063 315.0212,505.5118 331.3871,496.063 342.6988,502.5938"/>
    <polyline points="352.807,502.5938 364.1187,496.063 374.4472,502.0261"/>
    <line x1="372.3016" x2="372.3016" y1="500.7874" y2="500.7874"/>
    <line x1="380.4846" x2="367.8666" y1="515.8796" y2="523.1646"/>
    <polyline points="368.2559,523.3893 380.4846,516.3291 395.1217,524.7105 380.4846,516.2598 396.8504,506.811 408.606,513.598"/>
    <line x1="406.2023" x2="406.2023" y1="509.5613" y2="509.5613"/>
    <polyline points="403.9082,510.8858 413.2162,505.5118 419.7497,509.2839"/>
    <polyline points="415.0519,511.9961 429.5821,503.6072 436.0586,507.3464"/>
    <line x1="435.6608" x2="435.6608" y1="507.9435" y2="510.3731"/>
    <line x1="436.8298" x2="436.8298" y1="511.0481" y2="506.1887"/>
    <line x1="437.9988" x2="437.9988" y1="504.4339" y2="511.723"/>
    <polyline points="437.765,511.588 437.765,528.5959 439.4016,529.5408"/>
    <line x1="438.5833" x2="438.5833" y1="529.0683" y2="512.0604"/>
    <line x1="440.3368" x2="440.3368" y1="513.0728" y2="500.9243"/>
    <line x1="440.1719" x2="432.7679" y1="501.1718" y2="505.4465"/>
    <line x1="437.765" x2="437.765" y1="500.7874" y2="500.7874"/>
    <line x1="441.5057" x2="441.5057" y1="499.1695" y2="513.7477"/>
    <polyline points="441.0381,513.4778 441.0381,528.5959 449.2211,533.3203"/>
    <line x1="448.6755" x2="448.5197" y1="533.0053" y2="512.9378"/>
    <line x1="449.6887" x2="449.6887" y1="516.0424" y2="518.4721"/>
    <line x1="450.0394" x2="450.0394" y1="518.6746" y2="535.6825"/>
    <polyline points="450.8576,536.1549 449.2211,535.21 449.2211,518.2022"/>
    <line x1="447.5845" x2="447.5845" y1="517.2573" y2="532.3754"/>
    <line x1="446.4934" x2="446.4934" y1="531.7455" y2="516.6274"/>
    <line x1="446.1817" x2="446.1817" y1="516.4474" y2="506.7286"/>
    <line x1="445.0127" x2="445.0127" y1="503.624" y2="515.7725"/>
    <line x1="445.4024" x2="445.4024" y1="515.9974" y2="531.1156"/>
    <line x1="444.3113" x2="444.3113" y1="530.4856" y2="515.3675"/>
    <line x1="443.8437" x2="443.8437" y1="515.0976" y2="500.5194"/>
    <line x1="447.3507" x2="447.3507" y1="509.8332" y2="517.1223"/>
    <line x1="443.2203" x2="443.2203" y1="514.7376" y2="529.8557"/>
    <polyline points="437.765,526.7061 429.5821,531.4305 429.5821,543.7854"/>
    <line x1="430.7511" x2="430.7511" y1="544.4603" y2="532.1054"/>
    <line x1="431.92" x2="431.92" y1="532.7803" y2="545.1352"/>
    <line x1="433.089" x2="433.089" y1="545.8101" y2="533.4553"/>
    <line x1="434.258" x2="434.258" y1="534.1302" y2="546.485"/>
    <line x1="435.427" x2="435.427" y1="547.1599" y2="534.8051"/>
    <line x1="436.596" x2="436.596" y1="535.48" y2="547.8349"/>
    <line x1="437.765" x2="437.765" y1="548.5098" y2="536.1549"/>
    <line x1="438.934" x2="438.934" y1="536.8298" y2="549.1847"/>
    <line x1="440.103" x2="440.103" y1="549.8596" y2="537.5048"/>
    <line x1="441.2719" x2="441.2719" y1="538.1797" y2="550.5345"/>
    <line x1="442.4409" x2="442.4409" y1="551.2094" y2="538.8546"/>
    <line x1="443.6099" x2="443.6099" y1="539.5295" y2="551.8843"/>
    <line x1="444.7789" x2="444.7789" y1="552.5593" y2="540.2044"/>
    <line x1="445.9479" x2="462.3137" y1="540.8793" y2="531.4305"/>
    <line x1="464.6517" x2="464.6517" y1="530.0807" y2="536.1416"/>
    <line x1="466.9897" x2="466.9897" y1="537.4914" y2="528.7309"/>
    <line x1="469.3277" x2="469.3277" y1="527.381" y2="536.6503"/>
    <polyline points="467.4302,537.7457 478.6796,531.2509 495.0454,540.6997 495.0454,552.7559 511.4112,543.3071 527.7771,552.7559 544.1429,543.3071 560.5087,552.7559 576.8746,543.3071 593.2404,552.7559 593.2404,569.7638 576.8746,579.2126"/>
    <line x1="579.2125" x2="579.2125" y1="577.8628" y2="560.8549"/>
    <line x1="581.5505" x2="581.5505" y1="559.5051" y2="576.5129"/>
    <line x1="583.8885" x2="583.8885" y1="575.1631" y2="558.1552"/>
    <line x1="586.2265" x2="586.2265" y1="556.8054" y2="573.8133"/>
    <line x1="588.5645" x2="588.5645" y1="572.4634" y2="555.4556"/>
    <line x1="590.9024" x2="590.9024" y1="554.1057" y2="571.1136"/>
    <line x1="574.5366" x2="574.5366" y1="563.5546" y2="580.5624"/>
    <line x1="572.1986" x2="572.1986" y1="581.9123" y2="564.9044"/>
    <line x1="569.8606" x2="569.8606" y1="566.2542" y2="583.2621"/>
    <line x1="567.5227" x2="567.5227" y1="584.6119" y2="567.604"/>
    <line x1="565.1847" x2="565.1847" y1="568.9539" y2="585.9618"/>
    <line x1="562.8467" x2="562.8467" y1="587.3116" y2="570.3037"/>
    <line x1="558.1708" x2="558.1708" y1="573.0034" y2="590.0112"/>
    <line x1="555.8328" x2="555.8328" y1="591.3611" y2="574.3532"/>
    <line x1="553.4948" x2="553.4948" y1="575.703" y2="592.7109"/>
    <line x1="551.1568" x2="551.1568" y1="594.0607" y2="577.0529"/>
    <line x1="548.8189" x2="548.8189" y1="578.4027" y2="595.4106"/>
    <line x1="546.4809" x2="546.4809" y1="596.7604" y2="579.7525"/>
    <line x1="541.8049" x2="541.8049" y1="579.7525" y2="579.7525"/>
    <line x1="541.8049" x2="541.8049" y1="582.4522" y2="599.4601"/>
    <polyline points="544.1429,598.1102 560.5087,588.6614 560.5087,571.6535 544.1429,562.2047 527.7771,571.6535 511.4112,562.2047 495.0454,571.6535 495.0454,560.1962 478.6796,550.7474 462.3137,560.1962 462.3137,564.7412 445.9479,574.19 429.5821,564.7412 429.5821,562.683"/>
    <line x1="428.4131" x2="428.4131" y1="562.0081" y2="570.9786"/>
    <line x1="427.2441" x2="427.2441" y1="570.3037" y2="561.3332"/>
    <line x1="426.0751" x2="426.0751" y1="560.6583" y2="569.6288"/>
    <line x1="424.9061" x2="424.9061" y1="568.9539" y2="559.9833"/>
    <line x1="423.7371" x2="423.7371" y1="559.3084" y2="568.279"/>
    <line x1="422.5681" x2="422.5681" y1="567.604" y2="558.6335"/>
    <line x1="421.3991" x2="421.3991" y1="557.9586" y2="566.9291"/>
    <line x1="420.2302" x2="420.2302" y1="566.2542" y2="557.2837"/>
    <line x1="419.0612" x2="419.0612" y1="556.6088" y2="565.5793"/>
    <line x1="417.8922" x2="417.8922" y1="564.9044" y2="555.9338"/>
    <line x1="416.7232" x2="416.7232" y1="555.2589" y2="564.2295"/>
    <line x1="415.5542" x2="415.5542" y1="563.5546" y2="554.584"/>
    <line x1="414.3852" x2="414.3852" y1="553.9091" y2="562.8796"/>
    <line x1="412.0472" x2="412.0472" y1="561.5298" y2="550.1754"/>
    <line x1="413.2162" x2="429.5821" y1="550.8503" y2="541.4015"/>
    <line x1="428.4131" x2="428.4131" y1="540.7266" y2="534.5208"/>
    <line x1="427.2441" x2="427.2441" y1="533.8459" y2="540.0517"/>
    <line x1="426.0751" x2="426.0751" y1="539.3767" y2="533.171"/>
    <line x1="424.9061" x2="424.9061" y1="532.4961" y2="538.7018"/>
    <line x1="423.7371" x2="423.7371" y1="538.0269" y2="531.8212"/>
    <line x1="422.5681" x2="422.5681" y1="531.1462" y2="537.352"/>
    <line x1="421.3991" x2="421.3991" y1="536.6771" y2="530.4713"/>
    <line x1="420.2302" x2="420.2302" y1="529.7964" y2="536.0022"/>
    <line x1="419.0612" x2="419.0612" y1="535.3273" y2="529.1215"/>
    <line x1="417.8922" x2="417.8922" y1="528.4466" y2="534.6523"/>
    <line x1="416.7232" x2="416.7232" y1="533.9774" y2="527.7717"/>
    <line x1="415.5542" x2="415.5542" y1="527.0967" y2="533.3025"/>
    <line x1="414.3852" x2="414.3852" y1="532.6276" y2="526.4218"/>
    <polyline points="413.2162,525.7469 429.5821,535.1957 429.5821,543.7854 429.5821,541.4015 413.2162,531.9527 396.8504,541.4015 396.8504,552.7559 380.4846,543.3071 364.1187,552.7559 364.1187,544.4541 347.7529,535.0052 331.3871,544.4541 331.3871,545.0707 315.0212,554.5196 298.6554,545.0707"/>
    <line x1="299.8244" x2="299.8244" y1="545.7457" y2="553.4308"/>
    <line x1="300.9934" x2="300.9934" y1="554.1057" y2="546.4206"/>
    <line x1="302.1624" x2="302.1624" y1="547.0955" y2="554.7807"/>
    <line x1="303.3313" x2="303.3313" y1="555.4556" y2="547.7704"/>
    <line x1="304.5003" x2="304.5003" y1="548.4453" y2="556.1305"/>
    <line x1="305.6693" x2="305.6693" y1="556.8054" y2="549.1202"/>
    <line x1="306.8383" x2="306.8383" y1="549.7951" y2="557.4803"/>
    <line x1="308.0073" x2="308.0073" y1="558.1552" y2="550.4701"/>
    <line x1="309.1763" x2="309.1763" y1="551.145" y2="558.8301"/>
    <line x1="310.3453" x2="310.3453" y1="559.5051" y2="551.8199"/>
    <line x1="311.5143" x2="311.5143" y1="552.4948" y2="560.18"/>
    <line x1="312.6832" x2="312.6832" y1="560.8549" y2="553.1697"/>
    <line x1="313.8522" x2="313.8522" y1="553.8446" y2="561.5298"/>
    <line x1="315.0212" x2="315.0212" y1="562.2047" y2="554.5196"/>
    <line x1="317.3592" x2="317.3592" y1="553.1697" y2="560.8549"/>
    <line x1="319.6972" x2="319.6972" y1="559.5051" y2="551.8199"/>
    <line x1="322.0352" x2="322.0352" y1="550.4701" y2="558.1552"/>
    <line x1="324.3731" x2="324.3731" y1="556.8054" y2="549.1202"/>
    <line x1="326.7111" x2="326.7111" y1="547.7704" y2="555.4556"/>
    <line x1="329.0491" x2="329.0491" y1="554.1057" y2="546.4206"/>
    <line x1="330.2181" x2="330.2181" y1="544.3958" y2="541.2013"/>
    <line x1="329.0491" x2="329.0491" y1="540.5264" y2="543.7209"/>
    <line x1="327.8801" x2="327.8801" y1="543.046" y2="539.8515"/>
    <line x1="326.7111" x2="326.7111" y1="539.1766" y2="542.3711"/>
    <line x1="325.5421" x2="325.5421" y1="541.6962" y2="538.5017"/>
    <line x1="324.3731" x2="324.3731" y1="537.8268" y2="541.0212"/>
    <line x1="323.2041" x2="323.2041" y1="540.3463" y2="537.1519"/>
    <line x1="322.0352" x2="322.0352" y1="536.4769" y2="539.6714"/>
    <line x1="320.8662" x2="320.8662" y1="538.9965" y2="535.802"/>
    <line x1="319.6972" x2="319.6972" y1="535.1271" y2="538.3216"/>
    <line x1="318.5282" x2="318.5282" y1="537.6467" y2="534.4522"/>
    <line x1="317.3592" x2="317.3592" y1="533.7773" y2="536.9717"/>
    <line x1="316.1902" x2="316.1902" y1="536.2968" y2="533.1024"/>
    <polyline points="315.0212,532.4274 331.3871,541.8763 347.7529,532.4274 347.7529,526.9372 331.3871,517.4884"/>
    <line x1="332.556" x2="332.556" y1="518.1633" y2="523.6535"/>
    <line x1="333.725" x2="333.725" y1="524.3285" y2="518.8382"/>
    <line x1="334.894" x2="334.894" y1="519.5131" y2="525.0034"/>
    <line x1="336.063" x2="336.063" y1="525.6783" y2="520.1881"/>
    <line x1="337.232" x2="337.232" y1="520.863" y2="526.3532"/>
    <line x1="338.401" x2="338.401" y1="527.0281" y2="521.5379"/>
    <line x1="339.57" x2="339.57" y1="522.2128" y2="527.703"/>
    <line x1="340.739" x2="340.739" y1="528.378" y2="522.8877"/>
    <line x1="341.9079" x2="341.9079" y1="523.5626" y2="529.0529"/>
    <line x1="343.0769" x2="343.0769" y1="529.7278" y2="524.2376"/>
    <line x1="344.2459" x2="344.2459" y1="524.9125" y2="530.4027"/>
    <line x1="345.4149" x2="345.4149" y1="531.0776" y2="525.5874"/>
    <line x1="346.5839" x2="346.5839" y1="526.2623" y2="531.7525"/>
    <polyline points="347.7529,532.4274 347.7529,530.4495 364.1187,521.0007 380.4846,530.4495 380.4846,543.3071"/>
    <line x1="381.6535" x2="381.6535" y1="543.982" y2="533.8362"/>
    <line x1="382.8225" x2="382.8225" y1="534.5111" y2="544.6569"/>
    <line x1="383.9915" x2="383.9915" y1="545.3318" y2="535.186"/>
    <line x1="385.1605" x2="385.1605" y1="535.861" y2="546.0067"/>
    <line x1="386.3295" x2="386.3295" y1="546.6817" y2="536.5359"/>
    <line x1="387.4985" x2="387.4985" y1="537.2108" y2="547.3566"/>
    <line x1="388.6675" x2="388.6675" y1="548.0315" y2="537.8857"/>
    <line x1="389.8365" x2="389.8365" y1="538.5606" y2="548.7064"/>
    <line x1="391.0055" x2="391.0055" y1="549.3813" y2="539.2355"/>
    <line x1="392.1744" x2="392.1744" y1="539.9105" y2="550.0562"/>
    <line x1="393.3434" x2="393.3434" y1="550.7312" y2="540.5854"/>
    <line x1="394.5124" x2="394.5124" y1="541.2603" y2="551.4061"/>
    <line x1="395.6814" x2="395.6814" y1="552.081" y2="541.9352"/>
    <polyline points="396.8504,541.4015 413.2162,550.8503 413.2162,553.2342 429.5821,562.683 445.9479,553.2342 445.9479,544.2406 462.3137,534.7917 478.6796,544.2406 478.6796,550.7474"/>
    <line x1="478.6796" x2="495.0454" y1="550.1486" y2="540.6997"/>
    <line x1="492.7074" x2="492.7074" y1="542.0496" y2="554.1057"/>
    <line x1="490.3694" x2="490.3694" y1="555.4556" y2="543.3994"/>
    <line x1="488.0315" x2="488.0315" y1="544.7492" y2="556.1467"/>
    <polyline points="488.6019,556.4761 495.0454,552.7559 511.4112,562.2047 527.7771,552.7559 544.1429,562.2047 560.5087,552.7559 576.8746,562.2047 576.8746,579.2126 560.5087,588.6614"/>
    <line x1="539.467" x2="539.467" y1="583.802" y2="600.8099"/>
    <line x1="537.129" x2="537.129" y1="602.1597" y2="585.1519"/>
    <line x1="534.791" x2="534.791" y1="586.5017" y2="603.5096"/>
    <line x1="532.453" x2="532.453" y1="604.8594" y2="587.8515"/>
    <line x1="530.115" x2="530.115" y1="589.2013" y2="606.2092"/>
    <polyline points="527.7771,607.5591 544.1429,598.1102 544.1429,581.1024 527.7771,571.6535 511.4112,581.1024 495.0454,571.6535 478.6796,581.1024"/>
    <line x1="477.5106" x2="477.5106" y1="580.4274" y2="568.9701"/>
    <line x1="476.3416" x2="476.3416" y1="568.2952" y2="579.7525"/>
    <line x1="475.1726" x2="475.1726" y1="579.0776" y2="567.6203"/>
    <line x1="474.0036" x2="474.0036" y1="566.9454" y2="578.4027"/>
    <line x1="472.8346" x2="472.8346" y1="577.7278" y2="566.2705"/>
    <line x1="471.6656" x2="471.6656" y1="565.5956" y2="577.0529"/>
    <line x1="470.4966" x2="470.4966" y1="576.378" y2="564.9206"/>
    <line x1="469.3277" x2="469.3277" y1="564.2457" y2="575.703"/>
    <line x1="468.1587" x2="468.1587" y1="575.0281" y2="563.5708"/>
    <line x1="466.9897" x2="466.9897" y1="562.8959" y2="574.3532"/>
    <line x1="465.8207" x2="465.8207" y1="573.6783" y2="562.221"/>
    <line x1="464.6517" x2="464.6517" y1="561.5461" y2="573.0034"/>
    <line x1="463.4827" x2="463.4827" y1="572.3285" y2="560.8711"/>
    <line x1="464.6517" x2="464.6517" y1="558.8464" y2="552.3396"/>
    <polyline points="462.3137,553.6894 462.3137,560.1962 478.6796,569.645 495.0454,560.1962"/>
    <line x1="492.7074" x2="492.7074" y1="561.5461" y2="573.0034"/>
    <line x1="490.3694" x2="490.3694" y1="574.3532" y2="562.8959"/>
    <line x1="488.0315" x2="488.0315" y1="564.2457" y2="575.703"/>
    <line x1="485.6935" x2="485.6935" y1="577.0529" y2="565.5956"/>
    <line x1="483.3555" x2="483.3555" y1="566.9454" y2="578.4027"/>
    <line x1="481.0175" x2="481.0175" y1="579.7525" y2="568.2952"/>
    <polyline points="478.6796,569.645 478.6796,581.1024 462.3137,571.6535 445.9479,581.1024 445.9479,574.19"/>
    <line x1="444.7789" x2="444.7789" y1="573.5151" y2="580.4274"/>
    <line x1="443.6099" x2="443.6099" y1="579.7525" y2="572.8401"/>
    <line x1="442.4409" x2="442.4409" y1="572.1652" y2="579.0776"/>
    <line x1="441.2719" x2="441.2719" y1="578.4027" y2="571.4903"/>
    <line x1="440.103" x2="440.103" y1="570.8154" y2="577.7278"/>
    <line x1="438.934" x2="438.934" y1="577.0529" y2="570.1405"/>
    <line x1="437.765" x2="437.765" y1="569.4656" y2="576.378"/>
    <line x1="436.596" x2="436.596" y1="575.703" y2="568.7906"/>
    <line x1="435.427" x2="435.427" y1="568.1157" y2="575.0281"/>
    <line x1="434.258" x2="434.258" y1="574.3532" y2="567.4408"/>
    <line x1="433.089" x2="433.089" y1="566.7659" y2="573.6783"/>
    <line x1="431.92" x2="431.92" y1="573.0034" y2="566.091"/>
    <line x1="430.7511" x2="430.7511" y1="565.4161" y2="572.3285"/>
    <line x1="431.92" x2="431.92" y1="563.3913" y2="561.3332"/>
    <line x1="434.258" x2="434.258" y1="562.0415" y2="559.9833"/>
    <line x1="436.596" x2="436.596" y1="560.6917" y2="558.6335"/>
    <line x1="438.934" x2="438.934" y1="559.3418" y2="557.2837"/>
    <line x1="441.2719" x2="441.2719" y1="557.992" y2="555.9338"/>
    <line x1="443.6099" x2="443.6099" y1="556.6422" y2="554.584"/>
    <polyline points="445.9479,555.2923 445.9479,553.2342 429.5821,543.7854 413.2162,553.2342 413.2162,562.2047 396.8504,552.7559 380.4846,562.2047 364.1187,552.7559 347.7529,562.2047"/>
    <line x1="346.5839" x2="346.5839" y1="561.5298" y2="553.228"/>
    <line x1="345.4149" x2="345.4149" y1="552.5531" y2="560.8549"/>
    <line x1="344.2459" x2="344.2459" y1="560.18" y2="551.8781"/>
    <line x1="343.0769" x2="343.0769" y1="551.2032" y2="559.5051"/>
    <line x1="341.9079" x2="341.9079" y1="558.8301" y2="550.5283"/>
    <line x1="340.739" x2="340.739" y1="549.8534" y2="558.1552"/>
    <line x1="339.57" x2="339.57" y1="557.4803" y2="549.1785"/>
    <line x1="338.401" x2="338.401" y1="548.5036" y2="556.8054"/>
    <line x1="337.232" x2="337.232" y1="556.1305" y2="547.8286"/>
    <line x1="336.063" x2="336.063" y1="547.1537" y2="555.4556"/>
    <line x1="334.894" x2="334.894" y1="554.7807" y2="546.4788"/>
    <line x1="333.725" x2="333.725" y1="545.8039" y2="554.1057"/>
    <line x1="332.556" x2="332.556" y1="553.4308" y2="545.129"/>
    <line x1="333.725" x2="333.725" y1="543.1042" y2="540.5264"/>
    <line x1="336.063" x2="336.063" y1="541.7544" y2="539.1766"/>
    <line x1="338.401" x2="338.401" y1="540.4046" y2="537.8268"/>
    <line x1="340.739" x2="340.739" y1="539.0547" y2="536.4769"/>
    <line x1="343.0769" x2="343.0769" y1="537.7049" y2="535.1271"/>
    <line x1="345.4149" x2="345.4149" y1="536.3551" y2="533.7773"/>
    <polyline points="347.7529,535.0052 347.7529,532.4274 331.3871,522.9786 315.0212,532.4274 315.0212,535.6219"/>
    <polyline points="308.3657,539.4645 298.6554,533.8583 282.2896,543.3071 265.9237,533.8583 249.5579,543.3071 233.192,533.8583 216.8262,543.3071"/>
    <line x1="230.8541" x2="230.8541" y1="551.4061" y2="551.4061"/>
    <line x1="242.544" x2="242.544" y1="558.1552" y2="558.1552"/>
    <line x1="251.8959" x2="251.8959" y1="560.8549" y2="560.8549"/>
    <line x1="240.206" x2="240.206" y1="567.604" y2="567.604"/>
    <line x1="236.699" x2="236.699" y1="573.6783" y2="590.6862"/>
    <line x1="237.868" x2="237.868" y1="591.3611" y2="574.3532"/>
    <line x1="239.037" x2="239.037" y1="575.0281" y2="592.036"/>
    <line x1="240.206" x2="240.206" y1="592.7109" y2="575.703"/>
    <line x1="241.375" x2="241.375" y1="576.378" y2="593.3858"/>
    <line x1="242.544" x2="242.544" y1="594.0607" y2="577.0529"/>
    <line x1="243.7129" x2="243.7129" y1="577.7278" y2="594.7357"/>
    <line x1="244.8819" x2="244.8819" y1="595.4106" y2="578.4027"/>
    <line x1="246.0509" x2="246.0509" y1="579.0776" y2="596.0855"/>
    <line x1="247.2199" x2="247.2199" y1="596.7604" y2="579.7525"/>
    <line x1="248.3889" x2="248.3889" y1="580.4274" y2="597.4353"/>
    <polyline points="249.5579,598.1102 233.192,588.6614 233.192,571.6535 249.5579,562.2047 265.9237,571.6535 282.2896,562.2047 298.6554,571.6535 315.0212,562.2047 331.3871,571.6535 347.7529,562.2047 364.1187,571.6535 380.4846,562.2047 396.8504,571.6535 413.2162,562.2047 429.5821,571.6535 429.5821,564.7412 445.9479,555.2923 462.3137,564.7412 462.3137,571.6535"/>
    <line x1="459.9758" x2="459.9758" y1="573.0034" y2="566.091"/>
    <line x1="461.1447" x2="461.1447" y1="564.0662" y2="553.0145"/>
    <line x1="459.9758" x2="459.9758" y1="552.3396" y2="563.3913"/>
    <line x1="458.8068" x2="458.8068" y1="562.7164" y2="551.6646"/>
    <line x1="457.6378" x2="457.6378" y1="550.9897" y2="562.0415"/>
    <line x1="456.4688" x2="456.4688" y1="561.3666" y2="550.3148"/>
    <line x1="455.2998" x2="455.2998" y1="549.6399" y2="560.6917"/>
    <line x1="454.1308" x2="454.1308" y1="560.0167" y2="548.965"/>
    <line x1="452.9618" x2="452.9618" y1="548.2901" y2="559.3418"/>
    <line x1="451.7928" x2="451.7928" y1="558.6669" y2="547.6151"/>
    <line x1="450.6238" x2="450.6238" y1="546.9402" y2="557.992"/>
    <line x1="449.4549" x2="449.4549" y1="557.3171" y2="546.2653"/>
    <line x1="448.2859" x2="448.2859" y1="545.5904" y2="556.6422"/>
    <line x1="447.1169" x2="447.1169" y1="555.9672" y2="544.9155"/>
    <line x1="448.2859" x2="448.2859" y1="542.8907" y2="539.5295"/>
    <line x1="450.6238" x2="450.6238" y1="538.1797" y2="541.5409"/>
    <line x1="452.9618" x2="452.9618" y1="540.1911" y2="536.8298"/>
    <line x1="455.2998" x2="455.2998" y1="535.48" y2="538.8412"/>
    <line x1="457.6378" x2="457.6378" y1="537.4914" y2="534.1302"/>
    <line x1="459.9758" x2="459.9758" y1="532.7803" y2="536.1416"/>
    <line x1="457.8716" x2="457.8716" y1="530.2157" y2="515.0976"/>
    <line x1="460.2096" x2="460.2096" y1="513.7477" y2="528.8658"/>
    <polyline points="459.0406,529.5408 462.3137,531.4305 462.3137,534.7917 462.3137,531.4305 478.6796,521.9817"/>
    <line x1="476.3416" x2="476.3416" y1="523.3315" y2="532.6008"/>
    <polyline points="478.6796,531.2509 478.6796,521.9817 470.4966,517.2573"/>
    <line x1="466.9897" x2="466.9897" y1="512.261" y2="512.261"/>
    <line x1="464.8855" x2="464.8855" y1="511.0481" y2="526.1662"/>
    <line x1="462.5475" x2="462.5475" y1="527.516" y2="512.3979"/>
    <polyline points="467.2235,509.6982 467.2235,524.8163 468.8601,525.7612"/>
    <line x1="471.6656" x2="471.6656" y1="526.0312" y2="535.3004"/>
    <line x1="474.0036" x2="474.0036" y1="533.9506" y2="524.6814"/>
    <line x1="471.6656" x2="471.6656" y1="528.4589" y2="528.4589"/>
    <line x1="485.6935" x2="485.6935" y1="528.4589" y2="528.4589"/>
    <polyline points="489.1205,537.279 495.0454,533.8583 511.4112,543.3071 527.7771,533.8583 544.1429,543.3071 560.5087,533.8583 576.8746,543.3071"/>
    <line x1="562.8467" x2="562.8467" y1="551.4061" y2="551.4061"/>
    <line x1="551.1568" x2="551.1568" y1="558.1552" y2="558.1552"/>
    <line x1="541.8049" x2="541.8049" y1="560.8549" y2="560.8549"/>
    <line x1="538.298" x2="538.298" y1="558.8301" y2="558.8301"/>
    <line x1="553.4948" x2="553.4948" y1="567.604" y2="567.604"/>
    <line x1="538.298" x2="538.298" y1="577.7278" y2="577.7278"/>
    <line x1="526.6081" x2="526.6081" y1="589.8763" y2="589.8763"/>
    <line x1="525.4391" x2="525.4391" y1="591.901" y2="608.9089"/>
    <line x1="523.1011" x2="523.1011" y1="610.2587" y2="593.2508"/>
    <line x1="520.7631" x2="520.7631" y1="594.6007" y2="611.6085"/>
    <line x1="518.4252" x2="518.4252" y1="612.9584" y2="595.9505"/>
    <line x1="516.0872" x2="516.0872" y1="597.3003" y2="614.3082"/>
    <line x1="513.7492" x2="513.7492" y1="615.658" y2="598.6502"/>
    <line x1="509.0733" x2="509.0733" y1="598.6502" y2="598.6502"/>
    <line x1="509.0733" x2="509.0733" y1="601.3498" y2="618.3577"/>
    <polyline points="511.4112,617.0079 527.7771,607.5591 527.7771,590.5512 511.4112,581.1024 495.0454,590.5512 478.6796,581.1024 462.3137,590.5512 445.9479,581.1024 429.5821,590.5512 413.2162,581.1024 396.8504,590.5512 380.4846,581.1024 364.1187,590.5512 347.7529,581.1024 331.3871,590.5512 315.0212,581.1024 298.6554,590.5512 282.2896,581.1024 265.9237,590.5512 265.9237,607.5591 282.2896,617.0079"/>
    <line x1="283.4585" x2="283.4585" y1="617.6828" y2="600.6749"/>
    <line x1="284.6275" x2="284.6275" y1="601.3498" y2="618.3577"/>
    <line x1="285.7965" x2="285.7965" y1="619.0326" y2="602.0247"/>
    <line x1="286.9655" x2="286.9655" y1="602.6997" y2="619.7075"/>
    <line x1="288.1345" x2="288.1345" y1="620.3825" y2="603.3746"/>
    <line x1="289.3035" x2="289.3035" y1="604.0495" y2="621.0574"/>
    <line x1="290.4725" x2="290.4725" y1="621.7323" y2="604.7244"/>
    <line x1="291.6415" x2="291.6415" y1="605.3993" y2="622.4072"/>
    <line x1="292.8104" x2="292.8104" y1="623.0821" y2="606.0742"/>
    <line x1="293.9794" x2="293.9794" y1="606.7492" y2="623.757"/>
    <line x1="295.1484" x2="295.1484" y1="624.4319" y2="607.4241"/>
    <line x1="296.3174" x2="296.3174" y1="608.099" y2="625.1069"/>
    <line x1="297.4864" x2="297.4864" y1="625.7818" y2="608.7739"/>
    <line x1="299.8244" x2="299.8244" y1="610.1237" y2="627.1316"/>
    <polyline points="298.6554,626.4567 282.2896,617.0079 282.2896,600.0 298.6554,590.5512 315.0212,600.0 331.3871,590.5512 347.7529,600.0 364.1187,590.5512 380.4846,600.0 396.8504,590.5512 413.2162,600.0 429.5821,590.5512 445.9479,600.0 462.3137,590.5512 478.6796,600.0 495.0454,590.5512 511.4112,600.0 511.4112,617.0079 495.0454,626.4567"/>
    <line x1="492.7074" x2="492.7074" y1="627.8065" y2="610.7987"/>
    <line x1="493.8764" x2="493.8764" y1="608.7739" y2="608.7739"/>
    <line x1="497.3834" x2="497.3834" y1="608.099" y2="625.1069"/>
    <line x1="499.7214" x2="499.7214" y1="623.757" y2="606.7492"/>
    <line x1="502.0593" x2="502.0593" y1="605.3993" y2="622.4072"/>
    <line x1="504.3973" x2="504.3973" y1="621.0574" y2="604.0495"/>
    <line x1="506.7353" x2="506.7353" y1="602.6997" y2="619.7075"/>
    <line x1="490.3694" x2="490.3694" y1="612.1485" y2="629.1564"/>
    <line x1="488.0315" x2="488.0315" y1="630.5062" y2="613.4983"/>
    <line x1="485.6935" x2="485.6935" y1="614.8481" y2="631.856"/>
    <line x1="483.3555" x2="483.3555" y1="633.2058" y2="616.198"/>
    <line x1="481.0175" x2="481.0175" y1="617.5478" y2="634.5557"/>
    <polyline points="478.6796,635.9055 495.0454,626.4567 495.0454,609.4488 478.6796,600.0 462.3137,609.4488 445.9479,600.0 429.5821,609.4488 413.2162,600.0 396.8504,609.4488 380.4846,600.0 364.1187,609.4488 347.7529,600.0 331.3871,609.4488 315.0212,600.0 298.6554,609.4488 298.6554,626.4567 315.0212,635.9055"/>
    <line x1="316.1902" x2="316.1902" y1="636.5804" y2="619.5726"/>
    <line x1="317.3592" x2="317.3592" y1="620.2475" y2="637.2553"/>
    <line x1="318.5282" x2="318.5282" y1="637.9303" y2="620.9224"/>
    <line x1="319.6972" x2="319.6972" y1="621.5973" y2="638.6052"/>
    <line x1="320.8662" x2="320.8662" y1="639.2801" y2="622.2722"/>
    <line x1="322.0352" x2="322.0352" y1="622.9471" y2="639.955"/>
    <line x1="323.2041" x2="323.2041" y1="640.6299" y2="623.622"/>
    <line x1="324.3731" x2="324.3731" y1="624.297" y2="641.3048"/>
    <line x1="325.5421" x2="325.5421" y1="641.9798" y2="624.9719"/>
    <line x1="326.7111" x2="326.7111" y1="625.6468" y2="642.6547"/>
    <line x1="327.8801" x2="327.8801" y1="643.3296" y2="626.3217"/>
    <line x1="329.0491" x2="329.0491" y1="626.9966" y2="644.0045"/>
    <line x1="330.2181" x2="330.2181" y1="644.6794" y2="627.6715"/>
    <line x1="332.556" x2="332.556" y1="629.0214" y2="646.0292"/>
    <line x1="333.725" x2="333.725" y1="646.7042" y2="629.6963"/>
    <line x1="334.894" x2="334.894" y1="630.3712" y2="647.3791"/>
    <line x1="336.063" x2="336.063" y1="648.054" y2="631.0461"/>
    <line x1="337.232" x2="337.232" y1="631.721" y2="648.7289"/>
    <line x1="338.401" x2="338.401" y1="649.4038" y2="632.396"/>
    <line x1="339.57" x2="339.57" y1="633.0709" y2="650.0787"/>
    <line x1="340.739" x2="340.739" y1="650.7537" y2="633.7458"/>
    <line x1="341.9079" x2="341.9079" y1="634.4207" y2="651.4286"/>
    <line x1="343.0769" x2="343.0769" y1="652.1035" y2="635.0956"/>
    <line x1="344.2459" x2="344.2459" y1="635.7705" y2="652.7784"/>
    <line x1="345.4149" x2="345.4149" y1="653.4533" y2="636.4454"/>
    <line x1="346.5839" x2="346.5839" y1="637.1204" y2="654.1282"/>
    <polyline points="347.7529,654.8031 331.3871,645.3543 331.3871,628.3465 347.7529,618.8976 364.1187,628.3465 380.4846,618.8976 396.8504,628.3465 413.2162,618.8976 429.5821,628.3465 445.9479,618.8976 462.3137,628.3465 462.3137,645.3543 445.9479,654.8031"/>
    <line x1="448.2859" x2="448.2859" y1="653.4533" y2="636.4454"/>
    <line x1="450.6238" x2="450.6238" y1="635.0956" y2="652.1035"/>
    <line x1="452.9618" x2="452.9618" y1="650.7537" y2="633.7458"/>
    <line x1="455.2998" x2="455.2998" y1="632.396" y2="649.4038"/>
    <line x1="457.6378" x2="457.6378" y1="648.054" y2="631.0461"/>
    <line x1="459.9758" x2="459.9758" y1="629.6963" y2="646.7042"/>
    <polyline points="462.3137,645.3543 478.6796,635.9055 478.6796,618.8976 462.3137,609.4488 445.9479,618.8976 429.5821,609.4488 413.2162,618.8976 396.8504,609.4488 380.4846,618.8976 364.1187,609.4488 347.7529,618.8976 331.3871,609.4488 315.0212,618.8976 315.0212,635.9055 331.3871,645.3543"/>
    <line x1="348.9219" x2="348.9219" y1="638.4702" y2="655.4781"/>
    <line x1="350.0909" x2="350.0909" y1="656.153" y2="639.1451"/>
    <line x1="351.2599" x2="351.2599" y1="639.82" y2="656.8279"/>
    <line x1="352.4288" x2="352.4288" y1="657.5028" y2="640.4949"/>
    <line x1="353.5978" x2="353.5978" y1="641.1699" y2="658.1777"/>
    <line x1="354.7668" x2="354.7668" y1="658.8526" y2="641.8448"/>
    <line x1="355.9358" x2="355.9358" y1="642.5197" y2="659.5276"/>
    <line x1="357.1048" x2="357.1048" y1="660.2025" y2="643.1946"/>
    <line x1="358.2738" x2="358.2738" y1="643.8695" y2="660.8774"/>
    <line x1="359.4428" x2="359.4428" y1="661.5523" y2="644.5444"/>
    <line x1="360.6118" x2="360.6118" y1="645.2193" y2="662.2272"/>
    <line x1="361.7807" x2="361.7807" y1="662.9021" y2="645.8943"/>
    <line x1="362.9497" x2="362.9497" y1="646.5692" y2="663.5771"/>
    <polyline points="364.1187,664.252 347.7529,654.8031 347.7529,637.7953 364.1187,628.3465 380.4846,637.7953 396.8504,628.3465 413.2162,637.7953 429.5821,628.3465 445.9479,637.7953 445.9479,654.8031 429.5821,664.252"/>
    <line x1="431.92" x2="431.92" y1="662.9021" y2="645.8943"/>
    <line x1="434.258" x2="434.258" y1="644.5444" y2="661.5523"/>
    <line x1="436.596" x2="436.596" y1="660.2025" y2="643.1946"/>
    <line x1="438.934" x2="438.934" y1="641.8448" y2="658.8526"/>
    <line x1="441.2719" x2="441.2719" y1="657.5028" y2="640.4949"/>
    <line x1="443.6099" x2="443.6099" y1="639.1451" y2="656.153"/>
    <line x1="427.2441" x2="427.2441" y1="648.5939" y2="665.6018"/>
    <line x1="424.9061" x2="424.9061" y1="666.9516" y2="649.9438"/>
    <line x1="422.5681" x2="422.5681" y1="651.2936" y2="668.3015"/>
    <line x1="420.2302" x2="420.2302" y1="669.6513" y2="652.6434"/>
    <line x1="417.8922" x2="417.8922" y1="653.9933" y2="671.0011"/>
    <line x1="415.5542" x2="415.5542" y1="672.351" y2="655.3431"/>
    <line x1="410.8783" x2="410.8783" y1="658.0427" y2="675.0506"/>
    <line x1="408.5403" x2="408.5403" y1="676.4004" y2="659.3926"/>
    <line x1="406.2023" x2="406.2023" y1="660.7424" y2="677.7503"/>
    <line x1="403.8643" x2="403.8643" y1="679.1001" y2="662.0922"/>
    <line x1="401.5263" x2="401.5263" y1="663.4421" y2="680.4499"/>
    <line x1="399.1884" x2="399.1884" y1="681.7998" y2="664.7919"/>
    <polyline points="396.8504,666.1417 396.8504,683.1496 380.4846,673.7008 380.4846,656.6929 396.8504,647.2441 413.2162,656.6929 413.2162,673.7008 396.8504,683.1496"/>
    <line x1="395.6814" x2="395.6814" y1="682.4747" y2="665.4668"/>
    <line x1="394.5124" x2="394.5124" y1="664.7919" y2="681.7998"/>
    <line x1="393.3434" x2="393.3434" y1="681.1249" y2="664.117"/>
    <line x1="392.1744" x2="392.1744" y1="663.4421" y2="680.4499"/>
    <line x1="391.0055" x2="391.0055" y1="679.775" y2="662.7672"/>
    <line x1="389.8365" x2="389.8365" y1="662.0922" y2="679.1001"/>
    <line x1="388.6675" x2="388.6675" y1="678.4252" y2="661.4173"/>
    <line x1="387.4985" x2="387.4985" y1="660.7424" y2="677.7503"/>
    <line x1="386.3295" x2="386.3295" y1="677.0754" y2="660.0675"/>
    <line x1="385.1605" x2="385.1605" y1="659.3926" y2="676.4004"/>
    <line x1="383.9915" x2="383.9915" y1="675.7255" y2="658.7177"/>
    <line x1="382.8225" x2="382.8225" y1="658.0427" y2="675.0506"/>
    <line x1="381.6535" x2="381.6535" y1="674.3757" y2="657.3678"/>
    <line x1="379.3156" x2="379.3156" y1="656.018" y2="673.0259"/>
    <polyline points="380.4846,673.7008 364.1187,664.252 364.1187,647.2441 380.4846,637.7953 396.8504,647.2441 413.2162,637.7953 429.5821,647.2441 429.5821,664.252 413.2162,673.7008"/>
    <line x1="408.5403" x2="408.5403" y1="653.9933" y2="653.9933"/>
    <line x1="406.2023" x2="406.2023" y1="652.6434" y2="652.6434"/>
    <line x1="401.5263" x2="401.5263" y1="644.5444" y2="644.5444"/>
    <line x1="398.0194" x2="398.0194" y1="647.919" y2="647.919"/>
    <line x1="393.3434" x2="393.3434" y1="645.2193" y2="645.2193"/>
    <line x1="392.1744" x2="392.1744" y1="644.5444" y2="644.5444"/>
    <line x1="387.4985" x2="387.4985" y1="641.8448" y2="641.8448"/>
    <line x1="387.4985" x2="387.4985" y1="652.6434" y2="652.6434"/>
    <line x1="385.1605" x2="385.1605" y1="653.9933" y2="653.9933"/>
    <line x1="378.1466" x2="378.1466" y1="655.3431" y2="672.351"/>
    <line x1="376.9776" x2="376.9776" y1="671.676" y2="654.6682"/>
    <line x1="375.8086" x2="375.8086" y1="653.9933" y2="671.0011"/>
    <line x1="374.6396" x2="374.6396" y1="670.3262" y2="653.3183"/>
    <line x1="373.4706" x2="373.4706" y1="652.6434" y2="669.6513"/>
    <line x1="372.3016" x2="372.3016" y1="668.9764" y2="651.9685"/>
    <line x1="371.1327" x2="371.1327" y1="651.2936" y2="668.3015"/>
    <line x1="369.9637" x2="369.9637" y1="667.6265" y2="650.6187"/>
    <line x1="368.7947" x2="368.7947" y1="649.9438" y2="666.9516"/>
    <line x1="367.6257" x2="367.6257" y1="666.2767" y2="649.2688"/>
    <line x1="366.4567" x2="366.4567" y1="648.5939" y2="665.6018"/>
    <line x1="365.2877" x2="365.2877" y1="664.9269" y2="647.919"/>
    <line x1="368.7947" x2="368.7947" y1="644.5444" y2="644.5444"/>
    <line x1="350.0909" x2="350.0909" y1="636.4454" y2="636.4454"/>
    <line x1="353.5978" x2="353.5978" y1="622.2722" y2="622.2722"/>
    <line x1="345.4149" x2="345.4149" y1="620.2475" y2="620.2475"/>
    <line x1="352.4288" x2="352.4288" y1="602.6997" y2="602.6997"/>
    <line x1="350.0909" x2="350.0909" y1="598.6502" y2="598.6502"/>
    <line x1="345.4149" x2="345.4149" y1="601.3498" y2="601.3498"/>
    <line x1="341.9079" x2="341.9079" y1="596.6254" y2="596.6254"/>
    <line x1="338.401" x2="338.401" y1="594.6007" y2="594.6007"/>
    <line x1="340.739" x2="340.739" y1="585.1519" y2="585.1519"/>
    <line x1="325.5421" x2="325.5421" y1="587.1766" y2="587.1766"/>
    <line x1="326.7111" x2="326.7111" y1="593.2508" y2="593.2508"/>
    <line x1="324.3731" x2="324.3731" y1="594.6007" y2="594.6007"/>
    <line x1="317.3592" x2="317.3592" y1="598.6502" y2="598.6502"/>
    <line x1="316.1902" x2="316.1902" y1="600.6749" y2="600.6749"/>
    <line x1="317.3592" x2="317.3592" y1="601.3498" y2="601.3498"/>
    <line x1="318.5282" x2="318.5282" y1="602.0247" y2="602.0247"/>
    <line x1="319.6972" x2="319.6972" y1="602.6997" y2="602.6997"/>
    <line x1="323.2041" x2="323.2041" y1="604.7244" y2="604.7244"/>
    <line x1="326.7111" x2="326.7111" y1="606.7492" y2="606.7492"/>
    <line x1="326.7111" x2="326.7111" y1="612.1485" y2="612.1485"/>
    <line x1="313.8522" x2="313.8522" y1="618.2227" y2="635.2306"/>
    <line x1="312.6832" x2="312.6832" y1="634.5557" y2="617.5478"/>
    <line x1="311.5143" x2="311.5143" y1="616.8729" y2="633.8808"/>
    <line x1="310.3453" x2="310.3453" y1="633.2058" y2="616.198"/>
    <line x1="309.1763" x2="309.1763" y1="615.5231" y2="632.5309"/>
    <line x1="308.0073" x2="308.0073" y1="631.856" y2="614.8481"/>
    <line x1="306.8383" x2="306.8383" y1="614.1732" y2="631.1811"/>
    <line x1="305.6693" x2="305.6693" y1="630.5062" y2="613.4983"/>
    <line x1="304.5003" x2="304.5003" y1="612.8234" y2="629.8313"/>
    <line x1="303.3313" x2="303.3313" y1="629.1564" y2="612.1485"/>
    <line x1="302.1624" x2="302.1624" y1="611.4736" y2="628.4814"/>
    <line x1="300.9934" x2="300.9934" y1="627.8065" y2="610.7987"/>
    <line x1="303.3313" x2="303.3313" y1="606.7492" y2="606.7492"/>
    <line x1="305.6693" x2="305.6693" y1="605.3993" y2="605.3993"/>
    <line x1="312.6832" x2="312.6832" y1="601.3498" y2="601.3498"/>
    <line x1="313.8522" x2="313.8522" y1="599.3251" y2="599.3251"/>
    <line x1="312.6832" x2="312.6832" y1="598.6502" y2="598.6502"/>
    <line x1="309.1763" x2="309.1763" y1="596.6254" y2="596.6254"/>
    <line x1="305.6693" x2="305.6693" y1="594.6007" y2="594.6007"/>
    <line x1="303.3313" x2="303.3313" y1="593.2508" y2="593.2508"/>
    <line x1="300.9934" x2="300.9934" y1="591.901" y2="591.901"/>
    <line x1="303.3313" x2="303.3313" y1="587.8515" y2="587.8515"/>
    <line x1="296.3174" x2="296.3174" y1="591.901" y2="591.901"/>
    <line x1="293.9794" x2="293.9794" y1="593.2508" y2="593.2508"/>
    <line x1="291.6415" x2="291.6415" y1="594.6007" y2="594.6007"/>
    <line x1="292.8104" x2="292.8104" y1="587.1766" y2="587.1766"/>
    <line x1="289.3035" x2="289.3035" y1="585.1519" y2="585.1519"/>
    <line x1="279.9516" x2="279.9516" y1="579.7525" y2="579.7525"/>
    <line x1="278.7826" x2="278.7826" y1="579.0776" y2="579.0776"/>
    <line x1="276.4446" x2="276.4446" y1="577.7278" y2="577.7278"/>
    <line x1="268.2617" x2="268.2617" y1="591.901" y2="608.9089"/>
    <line x1="269.4307" x2="269.4307" y1="609.5838" y2="592.5759"/>
    <line x1="270.5997" x2="270.5997" y1="593.2508" y2="610.2587"/>
    <line x1="271.7687" x2="271.7687" y1="610.9336" y2="593.9258"/>
    <line x1="272.9376" x2="272.9376" y1="594.6007" y2="611.6085"/>
    <line x1="274.1066" x2="274.1066" y1="612.2835" y2="595.2756"/>
    <line x1="275.2756" x2="275.2756" y1="595.9505" y2="612.9584"/>
    <line x1="276.4446" x2="276.4446" y1="613.6333" y2="596.6254"/>
    <line x1="277.6136" x2="277.6136" y1="597.3003" y2="614.3082"/>
    <line x1="278.7826" x2="278.7826" y1="614.9831" y2="597.9753"/>
    <line x1="279.9516" x2="279.9516" y1="598.6502" y2="615.658"/>
    <line x1="281.1206" x2="281.1206" y1="616.333" y2="599.3251"/>
    <line x1="284.6275" x2="284.6275" y1="598.6502" y2="598.6502"/>
    <line x1="267.0927" x2="267.0927" y1="591.2261" y2="608.234"/>
    <polyline points="265.9237,607.5591 249.5579,598.1102 249.5579,581.1024 265.9237,571.6535 282.2896,581.1024 298.6554,571.6535 315.0212,581.1024 331.3871,571.6535 347.7529,581.1024 364.1187,571.6535 380.4846,581.1024 396.8504,571.6535 413.2162,581.1024 429.5821,571.6535 445.9479,581.1024"/>
    <line x1="448.2859" x2="448.2859" y1="579.7525" y2="572.8401"/>
    <line x1="450.6238" x2="450.6238" y1="571.4903" y2="578.4027"/>
    <line x1="452.9618" x2="452.9618" y1="577.0529" y2="570.1405"/>
    <line x1="455.2998" x2="455.2998" y1="568.7906" y2="575.703"/>
    <line x1="457.6378" x2="457.6378" y1="574.3532" y2="567.4408"/>
    <line x1="466.9897" x2="466.9897" y1="557.4966" y2="550.9897"/>
    <line x1="469.3277" x2="469.3277" y1="549.6399" y2="556.1467"/>
    <line x1="471.6656" x2="471.6656" y1="554.7969" y2="548.2901"/>
    <line x1="474.0036" x2="474.0036" y1="546.9402" y2="553.4471"/>
    <line x1="476.3416" x2="476.3416" y1="552.0972" y2="545.5904"/>
    <polyline points="478.6796,544.2406 462.3137,553.6894 445.9479,544.2406 445.9479,540.8793 429.5821,531.4305"/>
    <line x1="427.2441" x2="427.2441" y1="542.7513" y2="545.1352"/>
    <line x1="424.9061" x2="424.9061" y1="544.1012" y2="546.485"/>
    <line x1="422.5681" x2="422.5681" y1="545.451" y2="547.8349"/>
    <line x1="420.2302" x2="420.2302" y1="546.8008" y2="549.1847"/>
    <line x1="417.8922" x2="417.8922" y1="548.1507" y2="550.5345"/>
    <line x1="415.5542" x2="415.5542" y1="549.5005" y2="551.8843"/>
    <line x1="410.8783" x2="410.8783" y1="549.5005" y2="560.8549"/>
    <line x1="409.7093" x2="409.7093" y1="560.18" y2="548.8256"/>
    <line x1="408.5403" x2="408.5403" y1="548.1507" y2="559.5051"/>
    <line x1="407.3713" x2="407.3713" y1="558.8301" y2="547.4757"/>
    <line x1="406.2023" x2="406.2023" y1="546.8008" y2="558.1552"/>
    <line x1="405.0333" x2="405.0333" y1="557.4803" y2="546.1259"/>
    <line x1="403.8643" x2="403.8643" y1="545.451" y2="556.8054"/>
    <line x1="402.6953" x2="402.6953" y1="556.1305" y2="544.7761"/>
    <line x1="401.5263" x2="401.5263" y1="544.1012" y2="555.4556"/>
    <line x1="400.3574" x2="400.3574" y1="554.7807" y2="543.4262"/>
    <line x1="399.1884" x2="399.1884" y1="542.7513" y2="554.1057"/>
    <line x1="398.0194" x2="398.0194" y1="553.4308" y2="542.0764"/>
    <polyline points="396.8504,542.6101 380.4846,533.1613 396.8504,523.7125 412.1695,532.557 412.0472,529.159"/>
    <line x1="410.8783" x2="410.8783" y1="528.4841" y2="531.8115"/>
    <line x1="409.7093" x2="409.7093" y1="531.1366" y2="527.8092"/>
    <line x1="408.5403" x2="408.5403" y1="527.1343" y2="530.4616"/>
    <line x1="407.3713" x2="407.3713" y1="529.7867" y2="526.4593"/>
    <line x1="406.2023" x2="406.2023" y1="525.7844" y2="529.1118"/>
    <line x1="405.0333" x2="405.0333" y1="528.4369" y2="525.1095"/>
    <line x1="403.8643" x2="403.8643" y1="524.4346" y2="527.762"/>
    <line x1="402.6953" x2="402.6953" y1="527.0871" y2="523.7597"/>
    <line x1="401.5263" x2="401.5263" y1="523.0848" y2="526.4121"/>
    <line x1="400.3574" x2="400.3574" y1="525.7372" y2="522.4098"/>
    <line x1="399.1884" x2="399.1884" y1="521.7349" y2="525.0623"/>
    <line x1="398.0194" x2="398.0194" y1="524.3874" y2="521.06"/>
    <line x1="396.8504" x2="413.2162" y1="520.3851" y2="529.8339"/>
    <polyline points="413.2162,531.9527 413.2162,525.7469 429.5821,516.2981 437.765,521.0225"/>
    <line x1="433.1898" x2="437.765" y1="518.381" y2="515.7395"/>
    <polyline points="426.0426,518.3416 413.2162,510.9363 396.8504,520.3851 396.8504,523.7125"/>
    <line x1="394.5124" x2="394.5124" y1="524.3934" y2="524.3934"/>
    <line x1="393.3434" x2="393.3434" y1="523.7185" y2="523.7185"/>
    <line x1="392.1744" x2="392.1744" y1="523.0436" y2="523.0436"/>
    <line x1="391.0055" x2="391.0055" y1="522.3687" y2="522.3687"/>
    <line x1="389.8365" x2="389.8365" y1="521.6938" y2="521.6938"/>
    <line x1="388.6675" x2="388.6675" y1="521.0189" y2="521.0189"/>
    <line x1="387.4985" x2="387.4985" y1="520.3439" y2="520.3439"/>
    <line x1="386.3295" x2="386.3295" y1="519.669" y2="519.669"/>
    <line x1="385.1605" x2="385.1605" y1="518.9941" y2="518.9941"/>
    <line x1="383.9915" x2="383.9915" y1="518.3192" y2="518.3192"/>
    <line x1="382.8225" x2="382.8225" y1="517.6443" y2="517.6443"/>
    <line x1="381.6535" x2="381.6535" y1="516.9694" y2="516.9694"/>
    <polyline points="380.4846,516.3291 380.4846,515.8796 364.1187,506.4308 354.5425,511.9596"/>
    <line x1="359.4428" x2="359.4428" y1="520.1881" y2="523.7004"/>
    <line x1="357.1048" x2="357.1048" y1="525.0502" y2="521.5379"/>
    <line x1="354.7668" x2="354.7668" y1="522.8877" y2="526.4"/>
    <line x1="352.4288" x2="352.4288" y1="527.7499" y2="524.2376"/>
    <line x1="350.0909" x2="350.0909" y1="525.5874" y2="529.0997"/>
    <line x1="348.9219" x2="348.9219" y1="531.1244" y2="535.6802"/>
    <line x1="350.0909" x2="350.0909" y1="536.3551" y2="531.7994"/>
    <line x1="351.2599" x2="351.2599" y1="532.4743" y2="537.03"/>
    <line x1="352.4288" x2="352.4288" y1="537.7049" y2="533.1492"/>
    <line x1="353.5978" x2="353.5978" y1="533.8241" y2="538.3798"/>
    <line x1="354.7668" x2="354.7668" y1="539.0547" y2="534.499"/>
    <line x1="355.9358" x2="355.9358" y1="535.1739" y2="539.7297"/>
    <line x1="357.1048" x2="357.1048" y1="540.4046" y2="535.8488"/>
    <line x1="358.2738" x2="358.2738" y1="536.5238" y2="541.0795"/>
    <line x1="359.4428" x2="359.4428" y1="541.7544" y2="537.1987"/>
    <line x1="360.6118" x2="360.6118" y1="537.8736" y2="542.4293"/>
    <line x1="361.7807" x2="361.7807" y1="543.1042" y2="538.5485"/>
    <line x1="362.9497" x2="362.9497" y1="539.2234" y2="543.7791"/>
    <line x1="361.7807" x2="361.7807" y1="545.8039" y2="554.1057"/>
    <line x1="359.4428" x2="359.4428" y1="555.4556" y2="547.1537"/>
    <line x1="357.1048" x2="357.1048" y1="548.5036" y2="556.8054"/>
    <line x1="354.7668" x2="354.7668" y1="558.1552" y2="549.8534"/>
    <line x1="352.4288" x2="352.4288" y1="551.2032" y2="559.5051"/>
    <line x1="350.0909" x2="350.0909" y1="560.8549" y2="552.5531"/>
    <polyline points="347.7529,553.9029 347.7529,562.2047 331.3871,552.7559 315.0212,562.2047 298.6554,552.7559 282.2896,562.2047 265.9237,552.7559 249.5579,562.2047 233.192,552.7559 216.8262,562.2047 216.8262,579.2126 233.192,588.6614"/>
    <line x1="234.361" x2="234.361" y1="589.3363" y2="572.3285"/>
    <line x1="235.53" x2="235.53" y1="573.0034" y2="590.0112"/>
    <line x1="232.0231" x2="232.0231" y1="587.9865" y2="570.9786"/>
    <line x1="230.8541" x2="230.8541" y1="570.3037" y2="587.3116"/>
    <line x1="229.6851" x2="229.6851" y1="586.6367" y2="569.6288"/>
    <line x1="228.5161" x2="228.5161" y1="568.9539" y2="585.9618"/>
    <line x1="227.3471" x2="227.3471" y1="585.2868" y2="568.279"/>
    <line x1="226.1781" x2="226.1781" y1="567.604" y2="584.6119"/>
    <line x1="225.0091" x2="225.0091" y1="583.937" y2="566.9291"/>
    <line x1="223.8401" x2="223.8401" y1="566.2542" y2="583.2621"/>
    <line x1="222.6712" x2="222.6712" y1="582.5872" y2="565.5793"/>
    <line x1="221.5022" x2="221.5022" y1="564.9044" y2="581.9123"/>
    <line x1="220.3332" x2="220.3332" y1="581.2373" y2="564.2295"/>
    <line x1="219.1642" x2="219.1642" y1="563.5546" y2="580.5624"/>
    <line x1="217.9952" x2="217.9952" y1="579.8875" y2="562.8796"/>
    <line x1="215.6572" x2="215.6572" y1="561.5298" y2="578.5377"/>
    <line x1="214.4882" x2="214.4882" y1="577.8628" y2="560.8549"/>
    <line x1="213.3193" x2="213.3193" y1="560.18" y2="577.1879"/>
    <line x1="212.1503" x2="212.1503" y1="576.5129" y2="559.5051"/>
    <line x1="210.9813" x2="210.9813" y1="558.8301" y2="575.838"/>
    <line x1="209.8123" x2="209.8123" y1="575.1631" y2="558.1552"/>
    <line x1="208.6433" x2="208.6433" y1="557.4803" y2="574.4882"/>
    <line x1="207.4743" x2="207.4743" y1="573.8133" y2="556.8054"/>
    <line x1="206.3053" x2="206.3053" y1="556.1305" y2="573.1384"/>
    <line x1="205.1363" x2="205.1363" y1="572.4634" y2="555.4556"/>
    <line x1="203.9673" x2="203.9673" y1="554.7807" y2="571.7885"/>
    <line x1="202.7984" x2="202.7984" y1="571.1136" y2="554.1057"/>
    <line x1="201.6294" x2="201.6294" y1="553.4308" y2="570.4387"/>
    <polyline points="216.8262,579.2126 200.4604,569.7638 200.4604,552.7559 216.8262,543.3071 233.192,552.7559 249.5579,543.3071 265.9237,552.7559 282.2896,543.3071 298.6554,552.7559 298.6554,545.0707 315.0212,535.6219 331.3871,545.0707 331.3871,552.7559"/>
    <polyline points="331.3871,541.8763 331.3871,544.4541 347.7529,553.9029 364.1187,544.4541 364.1187,539.8983 347.7529,530.4495"/>
    <line x1="347.7529" x2="364.1187" y1="526.9372" y2="517.4884"/>
    <line x1="361.7807" x2="361.7807" y1="518.8382" y2="522.3505"/>
    <polyline points="364.1187,521.0007 364.1187,517.4884 347.7529,508.0396 331.3871,517.4884 331.3871,522.9786"/>
    <line x1="329.0491" x2="329.0491" y1="516.3105" y2="516.3105"/>
    <line x1="330.2181" x2="330.2181" y1="514.2857" y2="514.2857"/>
    <line x1="332.556" x2="332.556" y1="515.6355" y2="509.7996"/>
    <polyline points="333.725,510.4745 333.725,516.1386 331.3871,514.9606 315.0212,524.4094 298.6554,514.9606 282.2896,524.4094 265.9237,514.9606 249.5579,524.4094"/>
    <polyline points="233.192,533.8583 249.5579,524.4094 265.9237,533.8583 282.2896,524.4094 298.6554,533.8583 315.0212,524.4094 321.965,528.4184"/>
    <line x1="313.8522" x2="313.8522" y1="523.7345" y2="523.7345"/>
    <line x1="308.0073" x2="308.0073" y1="528.4589" y2="528.4589"/>
    <line x1="302.1624" x2="302.1624" y1="516.9854" y2="516.9854"/>
    <line x1="300.9934" x2="300.9934" y1="516.3105" y2="516.3105"/>
    <line x1="303.3313" x2="303.3313" y1="512.261" y2="512.261"/>
    <line x1="308.0073" x2="308.0073" y1="509.5613" y2="509.5613"/>
    <line x1="313.8522" x2="313.8522" y1="504.8369" y2="504.8369"/>
    <line x1="319.6972" x2="319.6972" y1="508.2115" y2="508.2115"/>
    <line x1="322.0352" x2="322.0352" y1="509.5613" y2="509.5613"/>
    <line x1="326.7111" x2="326.7111" y1="512.261" y2="512.261"/>
    <line x1="331.3871" x2="338.6302" y1="509.1247" y2="513.3065"/>
    <line x1="338.401" x2="338.401" y1="513.4389" y2="513.1742"/>
    <line x1="337.232" x2="337.232" y1="512.4993" y2="514.1138"/>
    <line x1="336.063" x2="336.063" y1="514.7887" y2="511.8243"/>
    <line x1="334.894" x2="334.894" y1="511.1494" y2="515.4637"/>
    <line x1="306.8383" x2="306.8383" y1="500.7874" y2="500.7874"/>
    <line x1="302.1624" x2="302.1624" y1="498.0877" y2="498.0877"/>
    <line x1="300.9934" x2="300.9934" y1="497.4128" y2="497.4128"/>
    <polyline points="298.6554,496.063 315.0212,486.6142 331.3871,496.063 347.7529,486.6142 364.1187,496.063 380.4846,486.6142 396.8504,496.063 413.2162,486.6142 429.5821,496.063 445.9479,486.6142 453.6649,491.0696"/>
    <line x1="452.9618" x2="452.9618" y1="490.6637" y2="490.6637"/>
    <line x1="458.7132" x2="458.7132" y1="488.1549" y2="488.1549"/>
    <line x1="461.0045" x2="461.0045" y1="486.8321" y2="486.8321"/>
    <line x1="463.2957" x2="463.2957" y1="485.5093" y2="485.5093"/>
    <line x1="459.9758" x2="459.9758" y1="478.5152" y2="478.5152"/>
    <polyline points="462.3137,477.1654 445.9479,467.7165 429.5821,477.1654 413.2162,467.7165 396.8504,477.1654 380.4846,467.7165 364.1187,477.1654 347.7529,467.7165 331.3871,477.1654"/>
    <line x1="333.725" x2="333.725" y1="478.5152" y2="478.5152"/>
    <line x1="334.894" x2="334.894" y1="479.1901" y2="479.1901"/>
    <line x1="338.401" x2="338.401" y1="481.2148" y2="481.2148"/>
    <polyline points="347.7529,467.7165 364.1187,458.2677 380.4846,467.7165 396.8504,458.2677 413.2162,467.7165 429.5821,458.2677 445.9479,467.7165"/>
    <line x1="438.934" x2="438.934" y1="471.766" y2="471.766"/>
    <line x1="434.258" x2="434.258" y1="474.4657" y2="474.4657"/>
    <line x1="422.5681" x2="422.5681" y1="481.2148" y2="481.2148"/>
    <line x1="422.5681" x2="422.5681" y1="462.3172" y2="462.3172"/>
    <polyline points="429.5821,458.2677 413.2162,448.8189 396.8504,458.2677 380.4846,448.8189 364.1187,458.2677"/>
    <line x1="371.1327" x2="371.1327" y1="462.3172" y2="462.3172"/>
    <line x1="379.3156" x2="379.3156" y1="467.0416" y2="467.0416"/>
    <line x1="373.4706" x2="373.4706" y1="471.766" y2="471.766"/>
    <line x1="368.7947" x2="368.7947" y1="474.4657" y2="474.4657"/>
    <line x1="366.4567" x2="366.4567" y1="478.5152" y2="478.5152"/>
    <line x1="367.6257" x2="367.6257" y1="479.1901" y2="479.1901"/>
    <line x1="371.1327" x2="371.1327" y1="481.2148" y2="481.2148"/>
    <line x1="372.3016" x2="372.3016" y1="481.8898" y2="481.8898"/>
    <line x1="362.9497" x2="362.9497" y1="476.4904" y2="476.4904"/>
    <line x1="361.7807" x2="361.7807" y1="478.5152" y2="478.5152"/>
    <line x1="359.4428" x2="359.4428" y1="474.4657" y2="474.4657"/>
    <line x1="358.2738" x2="358.2738" y1="473.7908" y2="473.7908"/>
    <line x1="354.7668" x2="354.7668" y1="471.766" y2="471.766"/>
    <line x1="351.2599" x2="351.2599" y1="469.7413" y2="469.7413"/>
    <line x1="357.1048" x2="357.1048" y1="481.2148" y2="481.2148"/>
    <line x1="389.8365" x2="389.8365" y1="481.2148" y2="481.2148"/>
    <line x1="405.0333" x2="405.0333" y1="500.7874" y2="500.7874"/>
    <line x1="412.0472" x2="412.0472" y1="504.8369" y2="504.8369"/>
    <line x1="378.1466" x2="378.1466" y1="517.2294" y2="517.6789"/>
    <line x1="375.8086" x2="375.8086" y1="518.5792" y2="519.0288"/>
    <line x1="373.4706" x2="373.4706" y1="519.9291" y2="520.3786"/>
    <line x1="371.1327" x2="371.1327" y1="521.2789" y2="521.7284"/>
    <line x1="368.7947" x2="368.7947" y1="522.6287" y2="523.0783"/>
    <line x1="375.8086" x2="375.8086" y1="533.1492" y2="546.0067"/>
    <line x1="373.4706" x2="373.4706" y1="547.3566" y2="534.499"/>
    <line x1="371.1327" x2="371.1327" y1="535.8488" y2="548.7064"/>
    <line x1="368.7947" x2="368.7947" y1="550.0562" y2="537.1987"/>
    <line x1="366.4567" x2="366.4567" y1="538.5485" y2="551.4061"/>
    <line x1="364.1187" x2="380.4846" y1="539.8983" y2="530.4495"/>
    <line x1="378.1466" x2="378.1466" y1="531.7994" y2="544.6569"/>
    <line x1="345.4149" x2="345.4149" y1="563.5546" y2="563.5546"/>
    <line x1="361.7807" x2="361.7807" y1="589.2013" y2="589.2013"/>
    <line x1="365.2877" x2="365.2877" y1="591.2261" y2="591.2261"/>
    <line x1="368.7947" x2="368.7947" y1="593.2508" y2="593.2508"/>
    <line x1="371.1327" x2="371.1327" y1="594.6007" y2="594.6007"/>
    <line x1="372.3016" x2="372.3016" y1="595.2756" y2="595.2756"/>
    <line x1="374.6396" x2="374.6396" y1="596.6254" y2="596.6254"/>
    <line x1="375.8086" x2="375.8086" y1="597.3003" y2="597.3003"/>
    <line x1="378.1466" x2="378.1466" y1="598.6502" y2="598.6502"/>
    <line x1="385.1605" x2="385.1605" y1="602.6997" y2="602.6997"/>
    <line x1="389.8365" x2="389.8365" y1="594.6007" y2="594.6007"/>
    <line x1="392.1744" x2="392.1744" y1="593.2508" y2="593.2508"/>
    <line x1="394.5124" x2="394.5124" y1="591.901" y2="591.901"/>
    <line x1="394.5124" x2="394.5124" y1="589.2013" y2="589.2013"/>
    <line x1="391.0055" x2="391.0055" y1="587.1766" y2="587.1766"/>
    <line x1="399.1884" x2="399.1884" y1="589.2013" y2="589.2013"/>
    <line x1="401.5263" x2="401.5263" y1="593.2508" y2="593.2508"/>
    <line x1="403.8643" x2="403.8643" y1="594.6007" y2="594.6007"/>
    <line x1="407.3713" x2="407.3713" y1="596.6254" y2="596.6254"/>
    <line x1="408.5403" x2="408.5403" y1="602.6997" y2="602.6997"/>
    <line x1="415.5542" x2="415.5542" y1="598.6502" y2="598.6502"/>
    <line x1="417.8922" x2="417.8922" y1="597.3003" y2="597.3003"/>
    <line x1="422.5681" x2="422.5681" y1="594.6007" y2="594.6007"/>
    <line x1="424.9061" x2="424.9061" y1="593.2508" y2="593.2508"/>
    <line x1="423.7371" x2="423.7371" y1="587.1766" y2="587.1766"/>
    <line x1="431.92" x2="431.92" y1="589.2013" y2="589.2013"/>
    <line x1="436.596" x2="436.596" y1="594.6007" y2="594.6007"/>
    <line x1="437.765" x2="437.765" y1="595.2756" y2="595.2756"/>
    <line x1="440.103" x2="440.103" y1="596.6254" y2="596.6254"/>
    <line x1="441.2719" x2="441.2719" y1="602.6997" y2="602.6997"/>
    <line x1="448.2859" x2="448.2859" y1="601.3498" y2="601.3498"/>
    <line x1="454.1308" x2="454.1308" y1="604.7244" y2="604.7244"/>
    <line x1="456.4688" x2="456.4688" y1="606.0742" y2="606.0742"/>
    <line x1="466.9897" x2="466.9897" y1="606.7492" y2="606.7492"/>
    <line x1="466.9897" x2="466.9897" y1="612.1485" y2="612.1485"/>
    <line x1="474.0036" x2="474.0036" y1="621.5973" y2="638.6052"/>
    <line x1="471.6656" x2="471.6656" y1="639.955" y2="622.9471"/>
    <line x1="469.3277" x2="469.3277" y1="624.297" y2="641.3048"/>
    <line x1="466.9897" x2="466.9897" y1="642.6547" y2="625.6468"/>
    <line x1="464.6517" x2="464.6517" y1="626.9966" y2="644.0045"/>
    <line x1="476.3416" x2="476.3416" y1="637.2553" y2="620.2475"/>
    <line x1="474.0036" x2="474.0036" y1="602.6997" y2="602.6997"/>
    <line x1="476.3416" x2="476.3416" y1="601.3498" y2="601.3498"/>
    <line x1="476.3416" x2="476.3416" y1="598.6502" y2="598.6502"/>
    <line x1="472.8346" x2="472.8346" y1="596.6254" y2="596.6254"/>
    <line x1="469.3277" x2="469.3277" y1="594.6007" y2="594.6007"/>
    <line x1="466.9897" x2="466.9897" y1="593.2508" y2="593.2508"/>
    <line x1="455.2998" x2="455.2998" y1="594.6007" y2="594.6007"/>
    <line x1="456.4688" x2="456.4688" y1="587.1766" y2="587.1766"/>
    <line x1="452.9618" x2="452.9618" y1="585.1519" y2="585.1519"/>
    <line x1="479.8486" x2="479.8486" y1="600.6749" y2="600.6749"/>
    <line x1="481.0175" x2="481.0175" y1="601.3498" y2="601.3498"/>
    <line x1="481.0175" x2="481.0175" y1="598.6502" y2="598.6502"/>
    <line x1="488.0315" x2="488.0315" y1="594.6007" y2="594.6007"/>
    <line x1="490.3694" x2="490.3694" y1="593.2508" y2="593.2508"/>
    <line x1="493.8764" x2="493.8764" y1="589.8763" y2="589.8763"/>
    <line x1="496.2144" x2="496.2144" y1="591.2261" y2="591.2261"/>
    <line x1="497.3834" x2="497.3834" y1="591.901" y2="591.901"/>
    <line x1="499.7214" x2="499.7214" y1="593.2508" y2="593.2508"/>
    <line x1="502.0593" x2="502.0593" y1="594.6007" y2="594.6007"/>
    <line x1="505.5663" x2="505.5663" y1="596.6254" y2="596.6254"/>
    <line x1="504.3973" x2="504.3973" y1="585.1519" y2="585.1519"/>
    <line x1="513.7492" x2="513.7492" y1="579.7525" y2="579.7525"/>
    <line x1="521.9321" x2="521.9321" y1="587.1766" y2="587.1766"/>
    <line x1="513.7492" x2="513.7492" y1="560.8549" y2="560.8549"/>
    <line x1="485.6935" x2="485.6935" y1="554.7969" y2="546.0991"/>
    <line x1="483.3555" x2="483.3555" y1="547.4489" y2="553.4471"/>
    <line x1="481.0175" x2="481.0175" y1="552.0972" y2="548.7987"/>
    <line x1="455.5336" x2="455.5336" y1="531.5655" y2="516.4474"/>
    <line x1="448.2859" x2="448.2859" y1="523.3315" y2="523.3315"/>
    <polyline points="470.4966,510.2362 478.6796,505.5118 495.0454,514.9606 511.4112,505.5118 527.7771,514.9606"/>
    <line x1="525.4391" x2="525.4391" y1="516.3105" y2="516.3105"/>
    <line x1="518.4252" x2="518.4252" y1="528.4589" y2="528.4589"/>
    <line x1="504.3973" x2="504.3973" y1="528.4589" y2="528.4589"/>
    <line x1="505.5663" x2="505.5663" y1="521.0349" y2="521.0349"/>
    <line x1="474.0036" x2="474.0036" y1="508.2115" y2="508.2115"/>
    <line x1="471.6656" x2="471.6656" y1="509.5613" y2="509.5613"/>
    <line x1="455.2998" x2="455.2998" y1="481.2148" y2="481.2148"/>
    <line x1="383.9915" x2="383.9915" y1="450.8436" y2="450.8436"/>
    <line x1="382.8225" x2="382.8225" y1="450.1687" y2="450.1687"/>
    <line x1="312.6832" x2="312.6832" y1="563.5546" y2="563.5546"/>
    <line x1="318.5282" x2="318.5282" y1="583.1271" y2="583.1271"/>
    <line x1="288.1345" x2="288.1345" y1="565.5793" y2="565.5793"/>
    <line x1="285.7965" x2="285.7965" y1="564.2295" y2="564.2295"/>
    <line x1="279.9516" x2="279.9516" y1="560.8549" y2="560.8549"/>
    <line x1="278.7826" x2="278.7826" y1="560.18" y2="560.18"/>
    <line x1="276.4446" x2="276.4446" y1="558.8301" y2="558.8301"/>
    <line x1="278.7826" x2="278.7826" y1="541.2823" y2="541.2823"/>
    <line x1="251.8959" x2="251.8959" y1="579.7525" y2="579.7525"/>
    <line x1="250.7269" x2="250.7269" y1="581.7773" y2="598.7852"/>
    <line x1="251.8959" x2="251.8959" y1="599.4601" y2="582.4522"/>
    <line x1="253.0648" x2="253.0648" y1="583.1271" y2="600.135"/>
    <line x1="254.2338" x2="254.2338" y1="600.8099" y2="583.802"/>
    <line x1="255.4028" x2="255.4028" y1="584.4769" y2="601.4848"/>
    <line x1="256.5718" x2="256.5718" y1="602.1597" y2="585.1519"/>
    <line x1="257.7408" x2="257.7408" y1="585.8268" y2="602.8346"/>
    <line x1="258.9098" x2="258.9098" y1="603.5096" y2="586.5017"/>
    <line x1="260.0788" x2="260.0788" y1="587.1766" y2="604.1845"/>
    <line x1="261.2478" x2="261.2478" y1="604.8594" y2="587.8515"/>
    <line x1="262.4168" x2="262.4168" y1="588.5264" y2="605.5343"/>
    <line x1="263.5857" x2="263.5857" y1="606.2092" y2="589.2013"/>
    <line x1="264.7547" x2="264.7547" y1="589.8763" y2="606.8841"/>
    <polyline points="200.4604,552.7559 396.8504,666.1417 593.2404,552.7559"/>
    <polyline points="560.5087,533.8583 544.1429,524.4094 527.7771,533.8583 511.4112,524.4094 495.0454,533.8583 478.6796,524.4094 495.0454,514.9606 511.4112,524.4094 527.7771,514.9606 544.1429,524.4094"/>
    <line x1="490.3694" x2="490.3694" y1="587.8515" y2="587.8515"/>
    <line x1="489.2005" x2="489.2005" y1="587.1766" y2="587.1766"/>
    <line x1="486.8625" x2="486.8625" y1="604.7244" y2="604.7244"/>
    <line x1="488.0315" x2="488.0315" y1="605.3993" y2="605.3993"/>
    <line x1="489.2005" x2="489.2005" y1="606.0742" y2="606.0742"/>
    <line x1="490.3694" x2="490.3694" y1="606.7492" y2="606.7492"/>
    <line x1="448.2859" x2="448.2859" y1="620.2475" y2="620.2475"/>
    <line x1="437.765" x2="437.765" y1="614.1732" y2="614.1732"/>
    <line x1="424.9061" x2="424.9061" y1="612.1485" y2="612.1485"/>
    <line x1="423.7371" x2="423.7371" y1="606.0742" y2="606.0742"/>
    <line x1="409.7093" x2="409.7093" y1="635.7705" y2="635.7705"/>
    <line x1="406.2023" x2="406.2023" y1="641.8448" y2="641.8448"/>
    <line x1="424.9061" x2="424.9061" y1="644.5444" y2="644.5444"/>
    <line x1="443.6099" x2="443.6099" y1="636.4454" y2="636.4454"/>
    <line x1="368.7947" x2="368.7947" y1="612.1485" y2="612.1485"/>
    <line x1="362.9497" x2="362.9497" y1="608.7739" y2="608.7739"/>
    <line x1="357.1048" x2="357.1048" y1="594.6007" y2="594.6007"/>
  </g>
</svg>
