<?xml version="1.0" encoding="utf-8" ?>
<svg xmlns="http://www.w3.org/2000/svg" xmlns:cc="http://creativecommons.org/ns#" xmlns:dc="http://purl.org/dc/elements/1.1/" xmlns:ev="http://www.w3.org/2001/xml-events" xmlns:inkscape="http://www.inkscape.org/namespaces/inkscape" xmlns:rdf="http://www.w3.org/1999/02/22-rdf-syntax-ns#" xmlns:sodipodi="http://sodipodi.sourceforge.net/DTD/sodipodi-0.dtd" xmlns:xlink="http://www.w3.org/1999/xlink" baseProfile="tiny" height="29.7cm" version="1.2" viewBox="0 0 793.7007874015749 1122.5196850393702" width="21.0cm">
  <metadata>
    <rdf:RDF>
      <cc:Work>
        <dc:format>image/svg+xml</dc:format>
        <dc:source/>
        <dc:date>2022-01-09T12:53:35.166819</dc:date>
      </cc:Work>
    </rdf:RDF>
  </metadata>
  <defs/>
  <g fill="none" id="layer2" inkscape:groupmode="layer" inkscape:label="2" stroke="#00f" style="display:inline">
    <polyline points="380.4846,448.8189 396.8504,439.3701 413.2162,448.8189"/>
    <line x1="410.8783" x2="410.8783" y1="450.1687" y2="450.1687"/>
    <line x1="403.8643" x2="403.8643" y1="462.3172" y2="462.3172"/>
    <line x1="395.6814" x2="395.6814" y1="457.5928" y2="457.5928"/>
    <line x1="389.8365" x2="389.8365" y1="462.3172" y2="462.3172"/>
    <line x1="383.9915" x2="383.9915" y1="469.7413" y2="469.7413"/>
    <line x1="387.4985" x2="387.4985" y1="471.766" y2="471.766"/>
    <line x1="391.0055" x2="391.0055" y1="473.7908" y2="473.7908"/>
    <line x1="392.1744" x2="392.1744" y1="474.4657" y2="474.4657"/>
    <line x1="395.6814" x2="395.6814" y1="476.4904" y2="476.4904"/>
    <line x1="394.5124" x2="394.5124" y1="478.5152" y2="478.5152"/>
    <line x1="399.1884" x2="399.1884" y1="478.5152" y2="478.5152"/>
    <line x1="400.3574" x2="400.3574" y1="479.1901" y2="479.1901"/>
    <line x1="403.8643" x2="403.8643" y1="481.2148" y2="481.2148"/>
    <polyline points="405.3126,482.051 396.8504,477.1654 387.8264,482.3754"/>
    <line x1="389.8365" x2="389.8365" y1="481.2148" y2="481.2148"/>
    <polyline points="389.853,483.5455 380.4846,478.1366 372.8433,482.5482"/>
    <polyline points="373.1427,482.3754 364.1187,477.1654 361.7807,478.5152"/>
    <polyline points="362.02,478.7228 347.7529,470.4856 342.7813,473.356"/>
    <polyline points="340.3832,471.9715 347.7529,467.7165 364.1187,477.1654 380.4846,467.7165 396.8504,477.1654 413.2162,467.7165 425.4262,474.766"/>
    <line x1="424.9061" x2="424.9061" y1="474.4657" y2="474.4657"/>
    <line x1="423.7371" x2="423.7371" y1="473.7908" y2="473.7908"/>
    <line x1="420.2302" x2="420.2302" y1="471.766" y2="471.766"/>
    <line x1="416.7232" x2="416.7232" y1="469.7413" y2="469.7413"/>
    <line x1="412.0472" x2="412.0472" y1="467.0416" y2="467.0416"/>
    <line x1="406.2023" x2="406.2023" y1="471.766" y2="471.766"/>
    <line x1="401.5263" x2="401.5263" y1="474.4657" y2="474.4657"/>
    <polyline points="403.2859,483.2211 413.2162,477.4878 416.964,479.6516"/>
    <polyline points="415.1787,480.6824 429.5821,472.3666 432.3166,473.9454"/>
    <line x1="430.2862" x2="435.3662" y1="475.1176" y2="472.1846"/>
    <line x1="435.6608" x2="435.6608" y1="472.3547" y2="469.925"/>
    <line x1="436.8298" x2="436.8298" y1="468.1702" y2="473.0296"/>
    <polyline points="437.765,473.5695 437.765,490.5774 439.4016,491.5223"/>
    <line x1="438.5833" x2="438.5833" y1="491.0499" y2="474.042"/>
    <line x1="439.1678" x2="439.1678" y1="474.3794" y2="464.6607"/>
    <polyline points="439.5809,464.0405 429.5821,458.2677 413.2162,467.7165 396.8504,458.2677 380.4846,467.7165 364.1187,458.2677 347.7529,467.7165"/>
    <line x1="351.2599" x2="351.2599" y1="469.7413" y2="469.7413"/>
    <line x1="354.7668" x2="354.7668" y1="471.766" y2="471.766"/>
    <line x1="358.2738" x2="358.2738" y1="473.7908" y2="473.7908"/>
    <line x1="359.4428" x2="359.4428" y1="474.4657" y2="474.4657"/>
    <line x1="362.9497" x2="362.9497" y1="476.4904" y2="476.4904"/>
    <line x1="366.4567" x2="366.4567" y1="478.5152" y2="478.5152"/>
    <line x1="367.6257" x2="367.6257" y1="479.1901" y2="479.1901"/>
    <line x1="371.1327" x2="371.1327" y1="481.2148" y2="481.2148"/>
    <line x1="372.3016" x2="372.3016" y1="481.8898" y2="481.8898"/>
    <polyline points="377.3032,485.1232 364.1187,477.5111 356.6176,481.8419"/>
    <line x1="357.1048" x2="357.1048" y1="481.2148" y2="481.2148"/>
    <line x1="361.7807" x2="361.7807" y1="487.5225" y2="488.3355"/>
    <line x1="359.4428" x2="359.4428" y1="488.8723" y2="489.6854"/>
    <line x1="357.1048" x2="357.1048" y1="490.2222" y2="491.0352"/>
    <line x1="354.7668" x2="354.7668" y1="491.572" y2="492.385"/>
    <line x1="352.4288" x2="352.4288" y1="492.9218" y2="493.7349"/>
    <line x1="350.0909" x2="350.0909" y1="494.2717" y2="495.0847"/>
    <line x1="348.9219" x2="348.9219" y1="497.1094" y2="499.2221"/>
    <line x1="350.0909" x2="350.0909" y1="499.897" y2="497.7844"/>
    <line x1="351.2599" x2="351.2599" y1="498.4593" y2="500.5719"/>
    <line x1="352.4288" x2="352.4288" y1="501.2468" y2="499.1342"/>
    <line x1="353.5978" x2="353.5978" y1="499.8091" y2="501.9217"/>
    <line x1="354.7668" x2="354.7668" y1="502.5967" y2="500.484"/>
    <line x1="355.9358" x2="355.9358" y1="501.1589" y2="503.2716"/>
    <line x1="357.1048" x2="357.1048" y1="503.9465" y2="501.8339"/>
    <line x1="358.2738" x2="358.2738" y1="502.5088" y2="504.6214"/>
    <line x1="359.4428" x2="359.4428" y1="505.2963" y2="503.1837"/>
    <line x1="360.6118" x2="360.6118" y1="503.8586" y2="505.9712"/>
    <line x1="361.7807" x2="361.7807" y1="506.6462" y2="504.5335"/>
    <line x1="362.9497" x2="362.9497" y1="505.2084" y2="507.3211"/>
    <polyline points="364.1187,505.8833 364.1187,507.996 347.7529,517.4448 331.3871,507.996 347.7529,498.5472 364.1187,507.996 364.1187,523.9652"/>
    <line x1="365.2877" x2="365.2877" y1="524.6401" y2="514.552"/>
    <line x1="366.4567" x2="366.4567" y1="515.227" y2="525.315"/>
    <line x1="367.6257" x2="367.6257" y1="525.99" y2="515.9019"/>
    <line x1="368.7947" x2="368.7947" y1="516.5768" y2="526.6649"/>
    <line x1="369.9637" x2="369.9637" y1="527.3398" y2="517.2517"/>
    <line x1="371.1327" x2="371.1327" y1="517.9266" y2="528.0147"/>
    <line x1="372.3016" x2="372.3016" y1="528.6896" y2="518.6015"/>
    <line x1="373.4706" x2="373.4706" y1="519.2764" y2="529.3645"/>
    <line x1="374.6396" x2="374.6396" y1="530.0395" y2="519.9514"/>
    <line x1="375.8086" x2="375.8086" y1="520.6263" y2="530.7144"/>
    <line x1="376.9776" x2="376.9776" y1="531.3893" y2="521.3012"/>
    <line x1="378.1466" x2="378.1466" y1="521.9761" y2="532.0642"/>
    <line x1="379.3156" x2="379.3156" y1="532.7391" y2="522.651"/>
    <polyline points="380.4846,523.3259 380.4846,531.2144 396.8504,540.6632 413.2162,531.2144 413.2162,521.1205 429.5821,511.6716 445.4708,520.845"/>
    <polyline points="445.9479,520.5696 445.9479,506.698 462.3137,497.2491 478.6796,506.698 478.6796,523.6227"/>
    <line x1="476.3416" x2="476.3416" y1="524.9725" y2="508.0478"/>
    <line x1="474.0036" x2="474.0036" y1="509.3976" y2="526.3223"/>
    <line x1="471.6656" x2="471.6656" y1="527.6722" y2="510.7475"/>
    <line x1="469.3277" x2="469.3277" y1="512.0973" y2="529.022"/>
    <line x1="466.9897" x2="466.9897" y1="530.3718" y2="513.4471"/>
    <line x1="464.6517" x2="464.6517" y1="514.797" y2="531.7217"/>
    <line x1="463.4827" x2="463.4827" y1="533.7464" y2="536.8104"/>
    <polyline points="462.3137,536.1355 462.3137,530.0184 445.9479,520.5696 429.5821,530.0184 429.5821,546.0924 429.5821,530.5693 413.2162,521.1205 413.2162,515.8802"/>
    <line x1="412.0472" x2="412.0472" y1="515.2053" y2="530.5395"/>
    <line x1="410.8783" x2="410.8783" y1="529.8646" y2="514.5303"/>
    <line x1="409.7093" x2="409.7093" y1="513.8554" y2="529.1897"/>
    <line x1="408.5403" x2="408.5403" y1="528.5148" y2="513.1805"/>
    <line x1="407.3713" x2="407.3713" y1="512.5056" y2="527.8398"/>
    <line x1="406.2023" x2="406.2023" y1="527.1649" y2="511.8307"/>
    <line x1="405.0333" x2="405.0333" y1="511.1558" y2="526.49"/>
    <line x1="403.8643" x2="403.8643" y1="525.8151" y2="510.4809"/>
    <line x1="402.6953" x2="402.6953" y1="509.8059" y2="525.1402"/>
    <line x1="401.5263" x2="401.5263" y1="524.4653" y2="509.131"/>
    <line x1="400.3574" x2="400.3574" y1="508.4561" y2="523.7903"/>
    <line x1="399.1884" x2="399.1884" y1="523.1154" y2="507.7812"/>
    <line x1="398.0194" x2="398.0194" y1="507.1063" y2="522.4405"/>
    <polyline points="396.8504,521.7656 396.8504,513.8771 380.4846,504.4283 364.1187,513.8771 380.4846,523.3259 396.8504,513.8771 396.8504,506.4314 413.2162,496.9825 429.5821,506.4314 429.5821,511.6716"/>
    <line x1="430.7511" x2="430.7511" y1="512.3466" y2="494.087"/>
    <line x1="429.5821" x2="413.2162" y1="493.6087" y2="484.1598"/>
    <line x1="414.3852" x2="414.3852" y1="484.8348" y2="497.6575"/>
    <polyline points="413.2162,496.9825 413.2162,484.1598 429.5821,474.711 437.765,479.4354"/>
    <line x1="440.3368" x2="440.3368" y1="475.0544" y2="462.9059"/>
    <line x1="441.5057" x2="441.5057" y1="461.1511" y2="475.7293"/>
    <polyline points="441.0381,475.4593 441.0381,490.5774 449.2211,495.3018"/>
    <line x1="448.6755" x2="448.5197" y1="494.9869" y2="474.9194"/>
    <line x1="447.3507" x2="447.3507" y1="471.8148" y2="479.1038"/>
    <line x1="447.5845" x2="447.5845" y1="479.2388" y2="494.3569"/>
    <line x1="446.4934" x2="446.4934" y1="493.727" y2="478.6089"/>
    <line x1="446.1817" x2="446.1817" y1="478.4289" y2="468.7101"/>
    <line x1="445.0127" x2="445.0127" y1="465.6055" y2="477.754"/>
    <line x1="445.4024" x2="445.4024" y1="477.979" y2="493.0971"/>
    <line x1="444.3113" x2="444.3113" y1="492.4672" y2="477.3491"/>
    <line x1="443.8437" x2="443.8437" y1="477.0791" y2="462.5009"/>
    <line x1="447.2572" x2="447.2572" y1="456.7506" y2="456.7506"/>
    <line x1="449.5484" x2="449.5484" y1="455.4278" y2="455.4278"/>
    <line x1="451.8396" x2="451.8396" y1="454.105" y2="454.105"/>
    <line x1="454.1308" x2="454.1308" y1="452.7821" y2="452.7821"/>
    <line x1="456.422" x2="456.422" y1="451.4593" y2="451.4593"/>
    <line x1="463.2957" x2="463.2957" y1="447.4908" y2="447.4908"/>
    <polyline points="470.4966,469.79 470.4966,486.7979 468.8601,487.7428 468.8601,470.7349"/>
    <line x1="468.0418" x2="468.0418" y1="471.2073" y2="487.2703"/>
    <line x1="467.2235" x2="452.4942" y1="486.7979" y2="495.3018"/>
    <line x1="453.1956" x2="453.1956" y1="494.8969" y2="479.7788"/>
    <polyline points="452.4942,480.1837 452.4942,497.1916 450.8576,498.1365 450.8576,481.1286 442.6747,476.4042 442.6747,459.3963 465.5869,446.168 473.7698,467.9002 450.8576,481.1286 442.6747,459.3963 434.4918,471.6798 442.6747,476.4042"/>
    <line x1="443.2203" x2="443.2203" y1="476.7191" y2="491.8373"/>
    <line x1="442.1292" x2="442.1292" y1="491.2073" y2="476.0892"/>
    <polyline points="439.4016,474.5144 439.4016,491.5223 441.0381,490.5774"/>
    <polyline points="437.765,488.6877 429.5821,493.4121 429.5821,506.4314 413.2162,515.8802 396.8504,506.4314"/>
    <line x1="394.5124" x2="394.5124" y1="509.7214" y2="512.5273"/>
    <line x1="395.6814" x2="395.6814" y1="513.2022" y2="510.3964"/>
    <polyline points="396.8504,511.0713 380.4846,501.6225 396.8504,492.1736 409.1979,499.3025"/>
    <line x1="409.7093" x2="409.7093" y1="499.0073" y2="496.4222"/>
    <line x1="408.5403" x2="408.5403" y1="495.7473" y2="498.9228"/>
    <line x1="407.3713" x2="407.3713" y1="498.2479" y2="495.0724"/>
    <line x1="406.2023" x2="406.2023" y1="494.3974" y2="497.573"/>
    <line x1="405.0333" x2="405.0333" y1="496.898" y2="493.7225"/>
    <line x1="403.8643" x2="403.8643" y1="493.0476" y2="496.2231"/>
    <line x1="402.6953" x2="402.6953" y1="495.5482" y2="492.3727"/>
    <line x1="401.5263" x2="401.5263" y1="491.6978" y2="494.8733"/>
    <line x1="400.3574" x2="400.3574" y1="494.1984" y2="491.0229"/>
    <line x1="399.1884" x2="399.1884" y1="490.348" y2="493.5235"/>
    <line x1="398.0194" x2="398.0194" y1="492.8485" y2="489.673"/>
    <line x1="396.8504" x2="411.948" y1="488.9981" y2="497.7147"/>
    <line x1="410.8783" x2="410.8783" y1="497.0971" y2="498.3324"/>
    <line x1="415.5542" x2="415.5542" y1="498.3324" y2="485.5097"/>
    <line x1="416.7232" x2="416.7232" y1="486.1846" y2="499.0073"/>
    <line x1="417.8922" x2="417.8922" y1="499.6822" y2="486.8595"/>
    <line x1="419.0612" x2="419.0612" y1="487.5344" y2="500.3571"/>
    <line x1="420.2302" x2="420.2302" y1="501.032" y2="488.2093"/>
    <line x1="421.3991" x2="421.3991" y1="488.8843" y2="501.707"/>
    <line x1="422.5681" x2="422.5681" y1="502.3819" y2="489.5592"/>
    <line x1="423.7371" x2="423.7371" y1="490.2341" y2="503.0568"/>
    <line x1="424.9061" x2="424.9061" y1="503.7317" y2="490.909"/>
    <line x1="426.0751" x2="426.0751" y1="491.5839" y2="504.4066"/>
    <line x1="427.2441" x2="427.2441" y1="505.0815" y2="492.2588"/>
    <line x1="428.4131" x2="428.4131" y1="492.9337" y2="505.7564"/>
    <line x1="427.2441" x2="427.2441" y1="507.7812" y2="513.0215"/>
    <line x1="424.9061" x2="424.9061" y1="514.3713" y2="509.131"/>
    <line x1="422.5681" x2="422.5681" y1="510.4809" y2="515.7211"/>
    <line x1="420.2302" x2="420.2302" y1="517.071" y2="511.8307"/>
    <line x1="417.8922" x2="417.8922" y1="513.1805" y2="518.4208"/>
    <line x1="415.5542" x2="415.5542" y1="519.7706" y2="514.5303"/>
    <line x1="414.3852" x2="414.3852" y1="521.7954" y2="543.982"/>
    <line x1="415.5542" x2="415.5542" y1="544.6569" y2="522.4703"/>
    <line x1="416.7232" x2="416.7232" y1="523.1452" y2="545.3318"/>
    <line x1="417.8922" x2="417.8922" y1="546.0067" y2="523.8201"/>
    <line x1="419.0612" x2="419.0612" y1="524.495" y2="546.6817"/>
    <line x1="420.2302" x2="420.2302" y1="547.3566" y2="525.17"/>
    <line x1="421.3991" x2="421.3991" y1="525.8449" y2="548.0315"/>
    <line x1="422.5681" x2="422.5681" y1="548.7064" y2="526.5198"/>
    <polyline points="423.7371,527.1947 423.8113,549.4242 413.2162,543.3071 396.8504,552.7559 396.8504,540.6632"/>
    <line x1="395.6814" x2="395.6814" y1="539.9883" y2="552.081"/>
    <polyline points="396.8504,552.7559 380.4846,543.3071 364.1187,552.7559 364.1187,541.4791 347.7529,532.0303 331.3871,541.4791 347.7529,550.9279 364.1187,541.4791"/>
    <polyline points="364.1187,542.8629 380.4846,533.414 380.4846,531.2144 396.8504,521.7656 413.2162,531.2144 413.2162,543.3071"/>
    <line x1="410.8783" x2="410.8783" y1="544.6569" y2="532.5642"/>
    <line x1="408.5403" x2="408.5403" y1="533.9141" y2="546.0067"/>
    <line x1="406.2023" x2="406.2023" y1="547.3566" y2="535.2639"/>
    <line x1="403.8643" x2="403.8643" y1="536.6137" y2="548.7064"/>
    <line x1="401.5263" x2="401.5263" y1="550.0562" y2="537.9636"/>
    <line x1="399.1884" x2="399.1884" y1="539.3134" y2="551.4061"/>
    <line x1="394.5124" x2="394.5124" y1="551.4061" y2="539.3134"/>
    <line x1="393.3434" x2="393.3434" y1="538.6385" y2="550.7312"/>
    <line x1="392.1744" x2="392.1744" y1="550.0562" y2="537.9636"/>
    <line x1="391.0055" x2="391.0055" y1="537.2887" y2="549.3813"/>
    <line x1="389.8365" x2="389.8365" y1="548.7064" y2="536.6137"/>
    <line x1="388.6675" x2="388.6675" y1="535.9388" y2="548.0315"/>
    <line x1="387.4985" x2="387.4985" y1="547.3566" y2="535.2639"/>
    <line x1="386.3295" x2="386.3295" y1="534.589" y2="546.6817"/>
    <line x1="385.1605" x2="385.1605" y1="546.0067" y2="533.9141"/>
    <line x1="383.9915" x2="383.9915" y1="533.2392" y2="545.3318"/>
    <line x1="382.8225" x2="382.8225" y1="544.6569" y2="532.5642"/>
    <line x1="381.6535" x2="381.6535" y1="531.8893" y2="543.982"/>
    <polyline points="380.4846,543.3071 380.4846,533.414 364.1187,523.9652 348.9512,532.7222"/>
    <line x1="350.0909" x2="350.0909" y1="532.0642" y2="516.095"/>
    <line x1="352.4288" x2="352.4288" y1="514.7451" y2="530.7144"/>
    <line x1="354.7668" x2="354.7668" y1="529.3645" y2="513.3953"/>
    <line x1="357.1048" x2="357.1048" y1="512.0455" y2="528.0147"/>
    <line x1="359.4428" x2="359.4428" y1="526.6649" y2="510.6956"/>
    <line x1="361.7807" x2="361.7807" y1="509.3458" y2="525.315"/>
    <line x1="366.4567" x2="366.4567" y1="512.5273" y2="504.5335"/>
    <line x1="368.7947" x2="368.7947" y1="503.1837" y2="511.1775"/>
    <line x1="371.1327" x2="371.1327" y1="509.8276" y2="501.8339"/>
    <line x1="373.4706" x2="373.4706" y1="500.484" y2="508.4778"/>
    <line x1="375.8086" x2="375.8086" y1="507.128" y2="499.1342"/>
    <line x1="378.1466" x2="378.1466" y1="497.7844" y2="505.7781"/>
    <polyline points="380.4846,504.4283 380.4846,496.4345 364.1187,486.9857 347.7529,496.4345 364.1187,505.8833 380.4846,496.4345"/>
    <line x1="381.6535" x2="381.6535" y1="502.2974" y2="505.1032"/>
    <line x1="382.8225" x2="382.8225" y1="505.7781" y2="502.9723"/>
    <line x1="383.9915" x2="383.9915" y1="503.6472" y2="506.453"/>
    <line x1="385.1605" x2="385.1605" y1="507.128" y2="504.3221"/>
    <line x1="386.3295" x2="386.3295" y1="504.997" y2="507.8029"/>
    <line x1="387.4985" x2="387.4985" y1="508.4778" y2="505.6719"/>
    <line x1="388.6675" x2="388.6675" y1="506.3469" y2="509.1527"/>
    <line x1="389.8365" x2="389.8365" y1="509.8276" y2="507.0218"/>
    <line x1="391.0055" x2="391.0055" y1="507.6967" y2="510.5025"/>
    <line x1="392.1744" x2="392.1744" y1="511.1775" y2="508.3716"/>
    <line x1="393.3434" x2="393.3434" y1="509.0465" y2="511.8524"/>
    <line x1="394.5124" x2="394.5124" y1="515.227" y2="523.1154"/>
    <line x1="392.1744" x2="392.1744" y1="524.4653" y2="516.5768"/>
    <line x1="389.8365" x2="389.8365" y1="517.9266" y2="525.8151"/>
    <line x1="387.4985" x2="387.4985" y1="527.1649" y2="519.2764"/>
    <line x1="385.1605" x2="385.1605" y1="520.6263" y2="528.5148"/>
    <line x1="382.8225" x2="382.8225" y1="529.8646" y2="521.9761"/>
    <line x1="378.1466" x2="378.1466" y1="534.7639" y2="544.6569"/>
    <line x1="375.8086" x2="375.8086" y1="546.0067" y2="536.1137"/>
    <line x1="373.4706" x2="373.4706" y1="537.4635" y2="547.3566"/>
    <line x1="371.1327" x2="371.1327" y1="548.7064" y2="538.8134"/>
    <line x1="368.7947" x2="368.7947" y1="540.1632" y2="550.0562"/>
    <line x1="366.4567" x2="366.4567" y1="551.4061" y2="541.513"/>
    <line x1="361.7807" x2="361.7807" y1="542.8289" y2="554.1057"/>
    <line x1="359.4428" x2="359.4428" y1="555.4556" y2="544.1788"/>
    <line x1="357.1048" x2="357.1048" y1="545.5286" y2="556.8054"/>
    <line x1="354.7668" x2="354.7668" y1="558.1552" y2="546.8784"/>
    <line x1="352.4288" x2="352.4288" y1="548.2283" y2="557.1711"/>
    <polyline points="354.4501,558.3381 364.1187,552.7559 380.4846,562.2047 396.8504,552.7559 413.2162,562.2047 413.2162,555.5413 429.5821,546.0924 442.0055,553.2651"/>
    <line x1="442.4409" x2="442.4409" y1="553.0137" y2="537.4425"/>
    <line x1="441.2719" x2="441.2719" y1="536.7676" y2="552.8416"/>
    <line x1="440.103" x2="440.103" y1="552.1667" y2="536.0927"/>
    <line x1="438.934" x2="438.934" y1="535.4177" y2="551.4918"/>
    <line x1="437.765" x2="437.765" y1="550.8169" y2="534.7428"/>
    <line x1="436.596" x2="436.596" y1="534.0679" y2="550.1419"/>
    <line x1="435.427" x2="435.427" y1="549.467" y2="533.393"/>
    <line x1="434.258" x2="434.258" y1="532.7181" y2="548.7921"/>
    <line x1="433.089" x2="433.089" y1="548.1172" y2="532.0432"/>
    <line x1="431.92" x2="431.92" y1="531.3683" y2="547.4423"/>
    <line x1="430.7511" x2="430.7511" y1="546.7674" y2="530.6933"/>
    <polyline points="429.5821,530.0184 445.9479,539.4672 462.3137,530.0184 462.3137,516.1468"/>
    <line x1="461.1447" x2="461.1447" y1="515.4719" y2="529.3435"/>
    <line x1="459.9758" x2="459.9758" y1="528.6686" y2="514.797"/>
    <line x1="458.8068" x2="458.8068" y1="514.122" y2="527.9937"/>
    <line x1="457.6378" x2="457.6378" y1="527.3188" y2="513.4471"/>
    <line x1="456.4688" x2="456.4688" y1="512.7722" y2="526.6438"/>
    <line x1="455.2998" x2="455.2998" y1="525.9689" y2="512.0973"/>
    <line x1="454.1308" x2="454.1308" y1="511.4224" y2="525.294"/>
    <line x1="452.9618" x2="452.9618" y1="524.6191" y2="510.7475"/>
    <line x1="451.7928" x2="451.7928" y1="510.0725" y2="523.9442"/>
    <line x1="450.6238" x2="450.6238" y1="523.2693" y2="509.3976"/>
    <line x1="449.4549" x2="449.4549" y1="508.7227" y2="522.5944"/>
    <line x1="448.2859" x2="448.2859" y1="521.9194" y2="508.0478"/>
    <line x1="447.1169" x2="447.1169" y1="507.3729" y2="521.2445"/>
    <line x1="444.7789" x2="444.7789" y1="520.4455" y2="502.186"/>
    <line x1="443.6099" x2="443.6099" y1="501.511" y2="519.7706"/>
    <line x1="442.4409" x2="442.4409" y1="519.0957" y2="500.8361"/>
    <line x1="441.2719" x2="441.2719" y1="500.1612" y2="518.4208"/>
    <line x1="440.103" x2="440.103" y1="517.7459" y2="499.4863"/>
    <line x1="438.934" x2="438.934" y1="498.8114" y2="517.071"/>
    <line x1="437.765" x2="437.765" y1="516.3961" y2="498.1365"/>
    <line x1="436.596" x2="436.596" y1="497.4616" y2="515.7211"/>
    <line x1="435.427" x2="435.427" y1="515.0462" y2="496.7866"/>
    <line x1="434.258" x2="434.258" y1="496.1117" y2="514.3713"/>
    <line x1="433.089" x2="433.089" y1="513.6964" y2="495.4368"/>
    <line x1="431.92" x2="431.92" y1="494.7619" y2="513.0215"/>
    <line x1="424.9061" x2="424.9061" y1="527.8696" y2="548.7921"/>
    <line x1="426.0751" x2="426.0751" y1="548.1172" y2="528.5445"/>
    <line x1="427.2441" x2="427.2441" y1="529.2194" y2="547.4423"/>
    <line x1="428.4131" x2="428.4131" y1="546.7674" y2="529.8944"/>
    <line x1="443.6099" x2="443.6099" y1="538.1174" y2="552.3388"/>
    <line x1="444.7789" x2="444.7789" y1="551.6639" y2="538.7923"/>
    <polyline points="445.9479,539.4672 445.9479,545.5843 462.3137,555.0331 478.6796,545.5843 478.6796,542.5203"/>
    <line x1="477.5106" x2="477.5106" y1="541.8454" y2="544.9094"/>
    <line x1="476.3416" x2="476.3416" y1="544.2345" y2="541.1705"/>
    <line x1="475.1726" x2="475.1726" y1="540.4956" y2="543.5595"/>
    <line x1="474.0036" x2="474.0036" y1="542.8846" y2="539.8207"/>
    <line x1="472.8346" x2="472.8346" y1="539.1457" y2="542.2097"/>
    <line x1="471.6656" x2="471.6656" y1="541.5348" y2="538.4708"/>
    <line x1="470.4966" x2="470.4966" y1="537.7959" y2="540.8599"/>
    <line x1="469.3277" x2="469.3277" y1="540.185" y2="537.121"/>
    <line x1="468.1587" x2="468.1587" y1="536.4461" y2="539.51"/>
    <line x1="466.9897" x2="466.9897" y1="538.8351" y2="535.7712"/>
    <line x1="465.8207" x2="465.8207" y1="535.0962" y2="538.1602"/>
    <line x1="464.6517" x2="464.6517" y1="537.4853" y2="534.4213"/>
    <line x1="459.9758" x2="459.9758" y1="531.3683" y2="537.4853"/>
    <line x1="457.6378" x2="457.6378" y1="538.8351" y2="532.7181"/>
    <line x1="455.2998" x2="455.2998" y1="534.0679" y2="540.185"/>
    <line x1="452.9618" x2="452.9618" y1="541.5348" y2="535.4177"/>
    <line x1="450.6238" x2="450.6238" y1="536.7676" y2="542.8846"/>
    <line x1="448.2859" x2="448.2859" y1="544.2345" y2="538.1174"/>
    <line x1="447.1169" x2="447.1169" y1="546.2592" y2="551.6639"/>
    <line x1="448.2859" x2="448.2859" y1="552.3388" y2="546.9341"/>
    <line x1="449.4549" x2="449.4549" y1="547.609" y2="553.0137"/>
    <line x1="450.6238" x2="450.6238" y1="553.6887" y2="548.284"/>
    <line x1="451.7928" x2="451.7928" y1="548.9589" y2="554.3636"/>
    <line x1="452.9618" x2="452.9618" y1="555.0385" y2="549.6338"/>
    <line x1="454.1308" x2="454.1308" y1="550.3087" y2="555.7134"/>
    <line x1="455.2998" x2="455.2998" y1="556.3883" y2="550.9836"/>
    <line x1="456.4688" x2="456.4688" y1="551.6585" y2="557.0632"/>
    <line x1="457.6378" x2="457.6378" y1="557.7382" y2="552.3334"/>
    <line x1="458.8068" x2="458.8068" y1="553.0084" y2="558.4131"/>
    <line x1="459.9758" x2="459.9758" y1="559.088" y2="553.6833"/>
    <line x1="461.1447" x2="461.1447" y1="554.3582" y2="559.7629"/>
    <line x1="459.9758" x2="459.9758" y1="561.7876" y2="563.8158"/>
    <line x1="457.6378" x2="457.6378" y1="563.1375" y2="565.1657"/>
    <line x1="455.2998" x2="455.2998" y1="564.4873" y2="566.5155"/>
    <line x1="452.9618" x2="452.9618" y1="565.8371" y2="567.8653"/>
    <line x1="450.6238" x2="450.6238" y1="567.187" y2="569.2152"/>
    <line x1="448.2859" x2="448.2859" y1="568.5368" y2="570.565"/>
    <line x1="447.1169" x2="447.1169" y1="572.5897" y2="581.7773"/>
    <line x1="448.2859" x2="448.2859" y1="582.4522" y2="573.2647"/>
    <line x1="449.4549" x2="449.4549" y1="573.9396" y2="583.1271"/>
    <line x1="450.6238" x2="450.6238" y1="583.802" y2="574.6145"/>
    <line x1="451.7928" x2="451.7928" y1="575.2894" y2="584.4769"/>
    <line x1="452.9618" x2="452.9618" y1="585.1519" y2="575.9643"/>
    <line x1="454.1308" x2="454.1308" y1="576.6392" y2="585.8268"/>
    <line x1="455.2998" x2="455.2998" y1="586.5017" y2="577.3142"/>
    <line x1="456.4688" x2="456.4688" y1="577.9891" y2="587.1766"/>
    <line x1="457.6378" x2="457.6378" y1="587.8515" y2="578.664"/>
    <line x1="458.8068" x2="458.8068" y1="579.3389" y2="588.5264"/>
    <line x1="459.9758" x2="459.9758" y1="589.2013" y2="580.0138"/>
    <line x1="461.1447" x2="461.1447" y1="580.6887" y2="589.8763"/>
    <polyline points="462.3137,590.5512 478.6796,581.1024 495.0454,590.5512 511.4112,581.1024 527.7771,590.5512 527.7771,607.5591 511.4112,617.0079"/>
    <line x1="509.0733" x2="509.0733" y1="618.3577" y2="601.3498"/>
    <line x1="509.0733" x2="509.0733" y1="598.6502" y2="598.6502"/>
    <line x1="505.5663" x2="505.5663" y1="596.6254" y2="596.6254"/>
    <line x1="502.0593" x2="502.0593" y1="594.6007" y2="594.6007"/>
    <line x1="499.7214" x2="499.7214" y1="593.2508" y2="593.2508"/>
    <line x1="497.3834" x2="497.3834" y1="591.901" y2="591.901"/>
    <line x1="496.2144" x2="496.2144" y1="591.2261" y2="591.2261"/>
    <line x1="493.8764" x2="493.8764" y1="589.8763" y2="589.8763"/>
    <line x1="490.3694" x2="490.3694" y1="587.8515" y2="587.8515"/>
    <line x1="489.2005" x2="489.2005" y1="587.1766" y2="587.1766"/>
    <line x1="490.3694" x2="490.3694" y1="593.2508" y2="593.2508"/>
    <line x1="488.0315" x2="488.0315" y1="594.6007" y2="594.6007"/>
    <line x1="481.0175" x2="481.0175" y1="598.6502" y2="598.6502"/>
    <line x1="479.8486" x2="479.8486" y1="600.6749" y2="600.6749"/>
    <line x1="481.0175" x2="481.0175" y1="601.3498" y2="601.3498"/>
    <line x1="476.3416" x2="476.3416" y1="601.3498" y2="601.3498"/>
    <line x1="476.3416" x2="476.3416" y1="598.6502" y2="598.6502"/>
    <line x1="472.8346" x2="472.8346" y1="596.6254" y2="596.6254"/>
    <line x1="469.3277" x2="469.3277" y1="594.6007" y2="594.6007"/>
    <line x1="466.9897" x2="466.9897" y1="593.2508" y2="593.2508"/>
    <line x1="464.6517" x2="464.6517" y1="589.2013" y2="580.0138"/>
    <line x1="466.9897" x2="466.9897" y1="578.664" y2="587.8515"/>
    <line x1="469.3277" x2="469.3277" y1="586.5017" y2="577.3142"/>
    <line x1="471.6656" x2="471.6656" y1="575.9643" y2="585.1519"/>
    <line x1="474.0036" x2="474.0036" y1="583.802" y2="574.6145"/>
    <line x1="476.3416" x2="476.3416" y1="573.2647" y2="582.4522"/>
    <polyline points="478.6796,571.9148 462.3137,581.3637 445.9479,571.9148 445.9479,569.8866"/>
    <line x1="444.7789" x2="444.7789" y1="569.2117" y2="580.4274"/>
    <line x1="443.6099" x2="443.6099" y1="579.7525" y2="568.5368"/>
    <line x1="442.4409" x2="442.4409" y1="567.8619" y2="579.0776"/>
    <line x1="441.2719" x2="441.2719" y1="578.4027" y2="567.187"/>
    <line x1="440.103" x2="440.103" y1="566.5121" y2="577.7278"/>
    <line x1="438.934" x2="438.934" y1="577.0529" y2="565.8371"/>
    <line x1="437.765" x2="437.765" y1="565.1622" y2="576.378"/>
    <line x1="436.596" x2="436.596" y1="575.703" y2="564.4873"/>
    <line x1="435.427" x2="435.427" y1="563.8124" y2="575.0281"/>
    <line x1="434.258" x2="434.258" y1="574.3532" y2="563.1375"/>
    <line x1="433.089" x2="433.089" y1="562.4626" y2="573.6783"/>
    <line x1="431.92" x2="431.92" y1="573.0034" y2="561.7876"/>
    <line x1="430.7511" x2="430.7511" y1="561.1127" y2="572.3285"/>
    <line x1="428.4131" x2="428.4131" y1="570.9786" y2="564.3152"/>
    <line x1="429.5821" x2="413.2162" y1="564.9901" y2="555.5413"/>
    <line x1="414.3852" x2="414.3852" y1="556.2162" y2="562.8796"/>
    <line x1="415.5542" x2="415.5542" y1="563.5546" y2="556.8911"/>
    <line x1="416.7232" x2="416.7232" y1="557.566" y2="564.2295"/>
    <line x1="417.8922" x2="417.8922" y1="564.9044" y2="558.2409"/>
    <line x1="419.0612" x2="419.0612" y1="558.9158" y2="565.5793"/>
    <line x1="420.2302" x2="420.2302" y1="566.2542" y2="559.5908"/>
    <line x1="421.3991" x2="421.3991" y1="560.2657" y2="566.9291"/>
    <line x1="422.5681" x2="422.5681" y1="567.604" y2="560.9406"/>
    <line x1="423.7371" x2="423.7371" y1="561.6155" y2="568.279"/>
    <line x1="424.9061" x2="424.9061" y1="568.9539" y2="562.2904"/>
    <line x1="426.0751" x2="426.0751" y1="562.9653" y2="569.6288"/>
    <line x1="427.2441" x2="427.2441" y1="570.3037" y2="563.6402"/>
    <polyline points="429.5821,560.4378 445.9479,569.8866 462.3137,560.4378 462.3137,555.0331"/>
    <line x1="464.6517" x2="464.6517" y1="553.6833" y2="563.8158"/>
    <polyline points="462.3137,562.466 462.3137,560.4378 445.9479,550.989 429.5821,560.4378 429.5821,571.6535 413.2162,562.2047 396.8504,571.6535 380.4846,562.2047 369.473,568.5622"/>
    <polyline points="364.1187,565.4709 364.1187,563.9202 347.7529,554.4714 334.7318,561.9892"/>
    <polyline points="326.7111,562.7577 315.0212,555.8329 315.0212,548.471"/>
    <line x1="313.8522" x2="313.8522" y1="547.7961" y2="561.5298"/>
    <line x1="312.6832" x2="312.6832" y1="560.8549" y2="547.1212"/>
    <line x1="311.5143" x2="311.5143" y1="546.4462" y2="560.18"/>
    <line x1="310.3453" x2="310.3453" y1="559.5051" y2="545.7713"/>
    <line x1="309.1763" x2="309.1763" y1="545.0964" y2="558.8301"/>
    <line x1="308.0073" x2="308.0073" y1="558.1552" y2="544.4215"/>
    <line x1="306.8383" x2="306.8383" y1="543.7466" y2="557.4803"/>
    <line x1="305.6693" x2="305.6693" y1="556.8054" y2="543.0717"/>
    <line x1="304.5003" x2="304.5003" y1="542.3967" y2="556.1305"/>
    <line x1="303.3313" x2="303.3313" y1="555.4556" y2="541.7218"/>
    <line x1="302.1624" x2="302.1624" y1="541.0469" y2="554.7807"/>
    <line x1="300.9934" x2="300.9934" y1="554.1057" y2="540.372"/>
    <line x1="299.8244" x2="299.8244" y1="539.6971" y2="553.4308"/>
    <polyline points="298.6554,552.7559 298.6554,541.7074 282.2896,532.2586 265.9237,541.7074 265.9237,552.7559 249.5579,543.3071 233.192,552.7559 216.8262,543.3071 200.4604,552.7559 200.4604,569.7638 216.8262,579.2126"/>
    <line x1="215.6572" x2="215.6572" y1="578.5377" y2="561.5298"/>
    <line x1="214.4882" x2="214.4882" y1="560.8549" y2="577.8628"/>
    <line x1="213.3193" x2="213.3193" y1="577.1879" y2="560.18"/>
    <line x1="212.1503" x2="212.1503" y1="559.5051" y2="576.5129"/>
    <line x1="210.9813" x2="210.9813" y1="575.838" y2="558.8301"/>
    <line x1="209.8123" x2="209.8123" y1="558.1552" y2="575.1631"/>
    <line x1="208.6433" x2="208.6433" y1="574.4882" y2="557.4803"/>
    <line x1="207.4743" x2="207.4743" y1="556.8054" y2="573.8133"/>
    <line x1="206.3053" x2="206.3053" y1="573.1384" y2="556.1305"/>
    <line x1="205.1363" x2="205.1363" y1="555.4556" y2="572.4634"/>
    <line x1="203.9673" x2="203.9673" y1="571.7885" y2="554.7807"/>
    <line x1="202.7984" x2="202.7984" y1="554.1057" y2="571.1136"/>
    <line x1="201.6294" x2="201.6294" y1="570.4387" y2="553.4308"/>
    <polyline points="200.4604,552.7559 396.8504,666.1417 593.2404,552.7559"/>
    <line x1="590.9024" x2="590.9024" y1="554.1057" y2="571.1136"/>
    <line x1="588.5645" x2="588.5645" y1="572.4634" y2="555.4556"/>
    <line x1="586.2265" x2="586.2265" y1="556.8054" y2="573.8133"/>
    <line x1="583.8885" x2="583.8885" y1="575.1631" y2="558.1552"/>
    <line x1="581.5505" x2="581.5505" y1="559.5051" y2="576.5129"/>
    <line x1="579.2125" x2="579.2125" y1="577.8628" y2="560.8549"/>
    <line x1="574.5366" x2="574.5366" y1="563.5546" y2="580.5624"/>
    <polyline points="576.8746,579.2126 593.2404,569.7638 593.2404,552.7559 576.8746,543.3071 560.5087,552.7559 544.1429,543.3071 527.7771,552.7559 511.4112,543.3071 495.0454,552.7559"/>
    <line x1="497.3834" x2="497.3834" y1="551.4061" y2="544.8201"/>
    <line x1="499.7214" x2="499.7214" y1="543.4703" y2="550.0562"/>
    <line x1="502.0593" x2="502.0593" y1="548.7064" y2="542.1204"/>
    <line x1="504.3973" x2="504.3973" y1="540.7706" y2="547.3566"/>
    <line x1="506.7353" x2="506.7353" y1="546.0067" y2="539.4208"/>
    <line x1="509.0733" x2="509.0733" y1="538.071" y2="544.6569"/>
    <polyline points="511.4112,536.7211 495.0454,546.1699 495.0454,552.7559 495.0454,533.0715 478.6796,523.6227 462.3137,533.0715 478.6796,542.5203 495.0454,533.0715"/>
    <line x1="492.7074" x2="492.7074" y1="534.4213" y2="554.1057"/>
    <line x1="490.3694" x2="490.3694" y1="555.4556" y2="535.7712"/>
    <line x1="488.0315" x2="488.0315" y1="537.121" y2="556.8054"/>
    <line x1="485.6935" x2="485.6935" y1="558.1552" y2="538.4708"/>
    <line x1="483.3555" x2="483.3555" y1="539.8207" y2="559.5051"/>
    <line x1="481.0175" x2="481.0175" y1="560.8549" y2="541.1705"/>
    <line x1="476.3416" x2="476.3416" y1="546.9341" y2="563.5546"/>
    <line x1="474.0036" x2="474.0036" y1="564.9044" y2="548.284"/>
    <line x1="471.6656" x2="471.6656" y1="549.6338" y2="566.2542"/>
    <polyline points="470.2704,567.0598 478.6796,562.2047 495.0454,571.6535 511.4112,562.2047 527.7771,571.6535 544.1429,562.2047 560.5087,571.6535 560.5087,588.6614 544.1429,598.1102"/>
    <line x1="541.8049" x2="541.8049" y1="599.4601" y2="582.4522"/>
    <line x1="539.467" x2="539.467" y1="583.802" y2="600.8099"/>
    <line x1="537.129" x2="537.129" y1="602.1597" y2="585.1519"/>
    <line x1="534.791" x2="534.791" y1="586.5017" y2="603.5096"/>
    <line x1="532.453" x2="532.453" y1="604.8594" y2="587.8515"/>
    <line x1="530.115" x2="530.115" y1="589.2013" y2="606.2092"/>
    <polyline points="527.7771,607.5591 544.1429,598.1102 544.1429,581.1024 527.7771,571.6535 511.4112,581.1024 495.0454,571.6535 478.6796,581.1024 478.6796,571.9148 462.3137,562.466 445.9479,571.9148 445.9479,581.1024 429.5821,571.6535 413.2162,581.1024 396.8504,571.6535 380.4846,581.1024 380.4846,574.9198 364.1187,565.4709 354.803,570.8494 354.7668,569.3196"/>
    <line x1="353.46" x2="364.1187" y1="570.074" y2="563.9202"/>
    <line x1="361.7807" x2="361.7807" y1="565.2701" y2="566.8208"/>
    <line x1="359.4428" x2="359.4428" y1="566.6199" y2="568.1706"/>
    <line x1="357.1048" x2="357.1048" y1="567.9697" y2="569.5204"/>
    <line x1="361.7807" x2="361.7807" y1="577.5777" y2="591.901"/>
    <line x1="359.4428" x2="359.4428" y1="593.2508" y2="578.9275"/>
    <line x1="357.1048" x2="357.1048" y1="580.2773" y2="594.6007"/>
    <line x1="354.7668" x2="354.7668" y1="595.9505" y2="581.6272"/>
    <line x1="352.4288" x2="352.4288" y1="582.977" y2="597.3003"/>
    <line x1="350.0909" x2="350.0909" y1="598.6502" y2="584.3268"/>
    <line x1="347.7529" x2="331.3871" y1="585.6767" y2="576.2278"/>
    <line x1="332.556" x2="332.556" y1="576.9028" y2="578.8202"/>
    <line x1="333.725" x2="333.725" y1="579.4951" y2="577.5777"/>
    <line x1="334.894" x2="334.894" y1="578.2526" y2="580.17"/>
    <line x1="336.063" x2="336.063" y1="580.8449" y2="578.9275"/>
    <line x1="337.232" x2="337.232" y1="579.6024" y2="581.5199"/>
    <line x1="338.401" x2="338.401" y1="582.1948" y2="580.2773"/>
    <line x1="339.57" x2="339.57" y1="580.9523" y2="582.8697"/>
    <line x1="340.739" x2="340.739" y1="583.5446" y2="581.6272"/>
    <line x1="341.9079" x2="341.9079" y1="582.3021" y2="584.2195"/>
    <line x1="343.0769" x2="343.0769" y1="584.8944" y2="582.977"/>
    <line x1="344.2459" x2="344.2459" y1="583.6519" y2="585.5694"/>
    <line x1="345.4149" x2="345.4149" y1="586.2443" y2="584.3268"/>
    <line x1="346.5839" x2="346.5839" y1="585.0017" y2="586.9192"/>
    <line x1="345.4149" x2="345.4149" y1="588.9439" y2="601.3498"/>
    <polyline points="347.7529,600.0 364.1187,609.4488 347.7529,600.0 331.3871,609.4488 331.3871,597.0429"/>
    <line x1="330.2181" x2="330.2181" y1="596.368" y2="608.7739"/>
    <line x1="329.0491" x2="329.0491" y1="608.099" y2="595.6931"/>
    <line x1="327.8801" x2="327.8801" y1="595.0182" y2="607.4241"/>
    <line x1="326.7111" x2="326.7111" y1="606.7492" y2="594.3433"/>
    <line x1="325.5421" x2="325.5421" y1="593.6683" y2="606.0742"/>
    <line x1="324.3731" x2="324.3731" y1="605.3993" y2="592.9934"/>
    <line x1="323.2041" x2="323.2041" y1="592.3185" y2="604.7244"/>
    <line x1="322.0352" x2="322.0352" y1="604.0495" y2="591.6436"/>
    <line x1="320.8662" x2="320.8662" y1="590.9687" y2="603.3746"/>
    <line x1="319.6972" x2="319.6972" y1="602.6997" y2="590.2938"/>
    <line x1="318.5282" x2="318.5282" y1="589.6188" y2="602.0247"/>
    <line x1="317.3592" x2="317.3592" y1="601.3498" y2="588.9439"/>
    <line x1="316.1902" x2="316.1902" y1="588.269" y2="600.6749"/>
    <line x1="313.8522" x2="313.8522" y1="599.3251" y2="588.6186"/>
    <line x1="315.0212" x2="298.6554" y1="589.2936" y2="579.8447"/>
    <line x1="299.8244" x2="299.8244" y1="580.5197" y2="591.2261"/>
    <line x1="300.9934" x2="300.9934" y1="591.901" y2="581.1946"/>
    <line x1="302.1624" x2="302.1624" y1="581.8695" y2="592.5759"/>
    <line x1="303.3313" x2="303.3313" y1="593.2508" y2="582.5444"/>
    <line x1="304.5003" x2="304.5003" y1="583.2193" y2="593.9258"/>
    <line x1="305.6693" x2="305.6693" y1="594.6007" y2="583.8942"/>
    <line x1="306.8383" x2="306.8383" y1="584.5692" y2="595.2756"/>
    <line x1="308.0073" x2="308.0073" y1="595.9505" y2="585.2441"/>
    <line x1="309.1763" x2="309.1763" y1="585.919" y2="596.6254"/>
    <line x1="310.3453" x2="310.3453" y1="597.3003" y2="586.5939"/>
    <line x1="311.5143" x2="311.5143" y1="587.2688" y2="597.9753"/>
    <line x1="312.6832" x2="312.6832" y1="598.6502" y2="587.9437"/>
    <polyline points="315.0212,587.5941 331.3871,597.0429 347.7529,587.5941 347.7529,585.6767 364.1187,576.2278"/>
    <line x1="368.7947" x2="368.7947" y1="581.6689" y2="587.8515"/>
    <line x1="371.1327" x2="371.1327" y1="586.5017" y2="580.3191"/>
    <line x1="373.4706" x2="373.4706" y1="578.9692" y2="585.1519"/>
    <line x1="375.8086" x2="375.8086" y1="583.802" y2="577.6194"/>
    <line x1="378.1466" x2="378.1466" y1="576.2696" y2="582.4522"/>
    <line x1="380.4846" x2="364.1187" y1="574.9198" y2="584.3686"/>
    <line x1="366.4567" x2="366.4567" y1="583.0187" y2="589.2013"/>
    <line x1="365.2877" x2="365.2877" y1="591.2261" y2="591.2261"/>
    <polyline points="364.1187,590.5512 380.4846,600.0 364.1187,590.5512 347.7529,600.0 347.7529,587.5941 331.3871,578.1453 315.0212,587.5941 315.0212,600.0 298.6554,590.5512 282.2896,600.0 282.2896,617.0079 298.6554,626.4567"/>
    <line x1="299.8244" x2="299.8244" y1="627.1316" y2="610.1237"/>
    <line x1="300.9934" x2="300.9934" y1="610.7987" y2="627.8065"/>
    <line x1="302.1624" x2="302.1624" y1="628.4814" y2="611.4736"/>
    <line x1="303.3313" x2="303.3313" y1="612.1485" y2="629.1564"/>
    <line x1="304.5003" x2="304.5003" y1="629.8313" y2="612.8234"/>
    <line x1="305.6693" x2="305.6693" y1="613.4983" y2="630.5062"/>
    <line x1="306.8383" x2="306.8383" y1="631.1811" y2="614.1732"/>
    <line x1="308.0073" x2="308.0073" y1="614.8481" y2="631.856"/>
    <line x1="309.1763" x2="309.1763" y1="632.5309" y2="615.5231"/>
    <line x1="310.3453" x2="310.3453" y1="616.198" y2="633.2058"/>
    <line x1="311.5143" x2="311.5143" y1="633.8808" y2="616.8729"/>
    <line x1="312.6832" x2="312.6832" y1="617.5478" y2="634.5557"/>
    <line x1="313.8522" x2="313.8522" y1="635.2306" y2="618.2227"/>
    <line x1="316.1902" x2="316.1902" y1="619.5726" y2="636.5804"/>
    <polyline points="315.0212,635.9055 298.6554,626.4567 298.6554,609.4488 315.0212,600.0 331.3871,609.4488"/>
    <line x1="333.725" x2="333.725" y1="608.099" y2="595.6931"/>
    <line x1="336.063" x2="336.063" y1="594.3433" y2="606.7492"/>
    <line x1="338.401" x2="338.401" y1="605.3993" y2="592.9934"/>
    <line x1="340.739" x2="340.739" y1="591.6436" y2="604.0495"/>
    <line x1="343.0769" x2="343.0769" y1="602.6997" y2="590.2938"/>
    <line x1="352.4288" x2="352.4288" y1="602.6997" y2="602.6997"/>
    <line x1="362.9497" x2="362.9497" y1="608.7739" y2="608.7739"/>
    <polyline points="364.1187,609.4488 380.4846,600.0 396.8504,609.4488 413.2162,600.0 429.5821,609.4488 445.9479,600.0 462.3137,609.4488 478.6796,600.0 495.0454,609.4488 495.0454,626.4567 478.6796,635.9055"/>
    <line x1="476.3416" x2="476.3416" y1="637.2553" y2="620.2475"/>
    <line x1="474.0036" x2="474.0036" y1="621.5973" y2="638.6052"/>
    <line x1="471.6656" x2="471.6656" y1="639.955" y2="622.9471"/>
    <line x1="469.3277" x2="469.3277" y1="624.297" y2="641.3048"/>
    <line x1="466.9897" x2="466.9897" y1="642.6547" y2="625.6468"/>
    <line x1="464.6517" x2="464.6517" y1="626.9966" y2="644.0045"/>
    <polyline points="462.3137,645.3543 478.6796,635.9055 478.6796,618.8976 462.3137,609.4488 445.9479,618.8976 429.5821,609.4488 413.2162,618.8976 396.8504,609.4488 380.4846,618.8976 364.1187,609.4488 347.7529,618.8976 331.3871,609.4488 315.0212,618.8976 315.0212,635.9055 331.3871,645.3543"/>
    <line x1="330.2181" x2="330.2181" y1="644.6794" y2="627.6715"/>
    <line x1="329.0491" x2="329.0491" y1="626.9966" y2="644.0045"/>
    <line x1="327.8801" x2="327.8801" y1="643.3296" y2="626.3217"/>
    <line x1="326.7111" x2="326.7111" y1="625.6468" y2="642.6547"/>
    <line x1="325.5421" x2="325.5421" y1="641.9798" y2="624.9719"/>
    <line x1="324.3731" x2="324.3731" y1="624.297" y2="641.3048"/>
    <line x1="323.2041" x2="323.2041" y1="640.6299" y2="623.622"/>
    <line x1="322.0352" x2="322.0352" y1="622.9471" y2="639.955"/>
    <line x1="320.8662" x2="320.8662" y1="639.2801" y2="622.2722"/>
    <line x1="319.6972" x2="319.6972" y1="621.5973" y2="638.6052"/>
    <line x1="318.5282" x2="318.5282" y1="637.9303" y2="620.9224"/>
    <line x1="317.3592" x2="317.3592" y1="620.2475" y2="637.2553"/>
    <line x1="332.556" x2="332.556" y1="629.0214" y2="646.0292"/>
    <line x1="333.725" x2="333.725" y1="646.7042" y2="629.6963"/>
    <line x1="334.894" x2="334.894" y1="630.3712" y2="647.3791"/>
    <line x1="336.063" x2="336.063" y1="648.054" y2="631.0461"/>
    <line x1="337.232" x2="337.232" y1="631.721" y2="648.7289"/>
    <line x1="338.401" x2="338.401" y1="649.4038" y2="632.396"/>
    <line x1="339.57" x2="339.57" y1="633.0709" y2="650.0787"/>
    <line x1="340.739" x2="340.739" y1="650.7537" y2="633.7458"/>
    <line x1="341.9079" x2="341.9079" y1="634.4207" y2="651.4286"/>
    <line x1="343.0769" x2="343.0769" y1="652.1035" y2="635.0956"/>
    <line x1="344.2459" x2="344.2459" y1="635.7705" y2="652.7784"/>
    <line x1="345.4149" x2="345.4149" y1="653.4533" y2="636.4454"/>
    <line x1="346.5839" x2="346.5839" y1="637.1204" y2="654.1282"/>
    <polyline points="347.7529,654.8031 331.3871,645.3543 331.3871,628.3465 347.7529,618.8976 364.1187,628.3465 380.4846,618.8976 396.8504,628.3465 413.2162,618.8976 429.5821,628.3465 445.9479,618.8976 462.3137,628.3465 462.3137,645.3543 445.9479,654.8031"/>
    <line x1="448.2859" x2="448.2859" y1="653.4533" y2="636.4454"/>
    <line x1="450.6238" x2="450.6238" y1="635.0956" y2="652.1035"/>
    <line x1="452.9618" x2="452.9618" y1="650.7537" y2="633.7458"/>
    <line x1="455.2998" x2="455.2998" y1="632.396" y2="649.4038"/>
    <line x1="457.6378" x2="457.6378" y1="648.054" y2="631.0461"/>
    <line x1="459.9758" x2="459.9758" y1="629.6963" y2="646.7042"/>
    <line x1="443.6099" x2="443.6099" y1="639.1451" y2="656.153"/>
    <line x1="441.2719" x2="441.2719" y1="657.5028" y2="640.4949"/>
    <line x1="438.934" x2="438.934" y1="641.8448" y2="658.8526"/>
    <line x1="436.596" x2="436.596" y1="660.2025" y2="643.1946"/>
    <line x1="434.258" x2="434.258" y1="644.5444" y2="661.5523"/>
    <line x1="431.92" x2="431.92" y1="662.9021" y2="645.8943"/>
    <line x1="427.2441" x2="427.2441" y1="648.5939" y2="665.6018"/>
    <polyline points="429.5821,664.252 445.9479,654.8031 445.9479,637.7953 429.5821,628.3465 413.2162,637.7953 396.8504,628.3465 380.4846,637.7953 364.1187,628.3465 347.7529,637.7953 347.7529,654.8031 364.1187,664.252"/>
    <line x1="362.9497" x2="362.9497" y1="663.5771" y2="646.5692"/>
    <line x1="361.7807" x2="361.7807" y1="645.8943" y2="662.9021"/>
    <line x1="360.6118" x2="360.6118" y1="662.2272" y2="645.2193"/>
    <line x1="359.4428" x2="359.4428" y1="644.5444" y2="661.5523"/>
    <line x1="358.2738" x2="358.2738" y1="660.8774" y2="643.8695"/>
    <line x1="357.1048" x2="357.1048" y1="643.1946" y2="660.2025"/>
    <line x1="355.9358" x2="355.9358" y1="659.5276" y2="642.5197"/>
    <line x1="354.7668" x2="354.7668" y1="641.8448" y2="658.8526"/>
    <line x1="353.5978" x2="353.5978" y1="658.1777" y2="641.1699"/>
    <line x1="352.4288" x2="352.4288" y1="640.4949" y2="657.5028"/>
    <line x1="351.2599" x2="351.2599" y1="656.8279" y2="639.82"/>
    <line x1="350.0909" x2="350.0909" y1="639.1451" y2="656.153"/>
    <line x1="348.9219" x2="348.9219" y1="655.4781" y2="638.4702"/>
    <line x1="350.0909" x2="350.0909" y1="636.4454" y2="636.4454"/>
    <line x1="353.5978" x2="353.5978" y1="622.2722" y2="622.2722"/>
    <line x1="345.4149" x2="345.4149" y1="620.2475" y2="620.2475"/>
    <line x1="326.7111" x2="326.7111" y1="612.1485" y2="612.1485"/>
    <line x1="312.6832" x2="312.6832" y1="601.3498" y2="601.3498"/>
    <line x1="305.6693" x2="305.6693" y1="605.3993" y2="605.3993"/>
    <line x1="303.3313" x2="303.3313" y1="606.7492" y2="606.7492"/>
    <line x1="297.4864" x2="297.4864" y1="608.7739" y2="625.7818"/>
    <line x1="296.3174" x2="296.3174" y1="625.1069" y2="608.099"/>
    <line x1="295.1484" x2="295.1484" y1="607.4241" y2="624.4319"/>
    <line x1="293.9794" x2="293.9794" y1="623.757" y2="606.7492"/>
    <line x1="292.8104" x2="292.8104" y1="606.0742" y2="623.0821"/>
    <line x1="291.6415" x2="291.6415" y1="622.4072" y2="605.3993"/>
    <line x1="290.4725" x2="290.4725" y1="604.7244" y2="621.7323"/>
    <line x1="289.3035" x2="289.3035" y1="621.0574" y2="604.0495"/>
    <line x1="288.1345" x2="288.1345" y1="603.3746" y2="620.3825"/>
    <line x1="286.9655" x2="286.9655" y1="619.7075" y2="602.6997"/>
    <line x1="285.7965" x2="285.7965" y1="602.0247" y2="619.0326"/>
    <line x1="284.6275" x2="284.6275" y1="618.3577" y2="601.3498"/>
    <line x1="283.4585" x2="283.4585" y1="600.6749" y2="617.6828"/>
    <polyline points="282.2896,617.0079 265.9237,607.5591 265.9237,590.5512 282.2896,581.1024 298.6554,590.5512 298.6554,579.8447 315.0212,570.3959 329.9153,578.995"/>
    <line x1="330.2181" x2="330.2181" y1="578.8202" y2="578.2808"/>
    <line x1="330.6852" x2="315.0212" y1="578.5505" y2="569.5069"/>
    <polyline points="315.0212,570.3959 315.0212,569.5069 331.3871,560.0581 345.3905,568.143"/>
    <line x1="350.0909" x2="350.0909" y1="555.8212" y2="549.5781"/>
    <line x1="347.7529" x2="347.7529" y1="550.9279" y2="554.4714"/>
    <line x1="345.4149" x2="345.4149" y1="554.483" y2="549.5781"/>
    <line x1="344.2459" x2="344.2459" y1="548.9032" y2="553.8081"/>
    <line x1="343.0769" x2="343.0769" y1="553.1332" y2="548.2283"/>
    <line x1="341.9079" x2="341.9079" y1="547.5534" y2="552.4583"/>
    <line x1="340.739" x2="340.739" y1="551.7834" y2="546.8784"/>
    <line x1="339.57" x2="339.57" y1="546.2035" y2="551.1085"/>
    <line x1="338.401" x2="338.401" y1="550.4335" y2="545.5286"/>
    <line x1="337.232" x2="337.232" y1="544.8537" y2="549.7586"/>
    <line x1="336.063" x2="336.063" y1="549.0837" y2="544.1788"/>
    <line x1="334.894" x2="334.894" y1="543.5039" y2="548.4088"/>
    <line x1="333.725" x2="333.725" y1="547.7339" y2="542.8289"/>
    <line x1="332.556" x2="332.556" y1="542.154" y2="547.059"/>
    <polyline points="331.3871,546.384 331.3871,539.0222 315.0212,529.5733 298.6554,539.0222 298.6554,541.7074 298.6554,527.3386 282.2896,517.8898"/>
    <line x1="283.4585" x2="283.4585" y1="518.5647" y2="532.9335"/>
    <line x1="284.6275" x2="284.6275" y1="533.6084" y2="519.2397"/>
    <line x1="285.7965" x2="285.7965" y1="519.9146" y2="534.2833"/>
    <line x1="286.9655" x2="286.9655" y1="534.9582" y2="520.5895"/>
    <line x1="288.1345" x2="288.1345" y1="521.2644" y2="535.6331"/>
    <line x1="289.3035" x2="289.3035" y1="536.308" y2="521.9393"/>
    <line x1="290.4725" x2="290.4725" y1="522.6142" y2="536.983"/>
    <line x1="291.6415" x2="291.6415" y1="537.6579" y2="523.2892"/>
    <line x1="292.8104" x2="292.8104" y1="523.9641" y2="538.3328"/>
    <line x1="293.9794" x2="293.9794" y1="539.0077" y2="524.639"/>
    <line x1="295.1484" x2="295.1484" y1="525.3139" y2="539.6826"/>
    <line x1="296.3174" x2="296.3174" y1="540.3575" y2="525.9888"/>
    <line x1="297.4864" x2="297.4864" y1="526.6637" y2="541.0325"/>
    <polyline points="298.6554,541.7074 282.2896,551.1562 282.2896,562.2047"/>
    <line x1="281.1206" x2="281.1206" y1="561.5298" y2="550.4813"/>
    <line x1="279.9516" x2="279.9516" y1="549.8064" y2="560.8549"/>
    <line x1="278.7826" x2="278.7826" y1="560.18" y2="549.1314"/>
    <line x1="277.6136" x2="277.6136" y1="548.4565" y2="559.5051"/>
    <line x1="276.4446" x2="276.4446" y1="558.8301" y2="547.7816"/>
    <line x1="275.2756" x2="275.2756" y1="547.1067" y2="558.1552"/>
    <line x1="274.1066" x2="274.1066" y1="557.4803" y2="546.4318"/>
    <line x1="272.9376" x2="272.9376" y1="545.7569" y2="556.8054"/>
    <line x1="271.7687" x2="271.7687" y1="556.1305" y2="545.082"/>
    <line x1="270.5997" x2="270.5997" y1="544.407" y2="555.4556"/>
    <line x1="269.4307" x2="269.4307" y1="554.7807" y2="543.7321"/>
    <line x1="268.2617" x2="268.2617" y1="543.0572" y2="554.1057"/>
    <line x1="267.0927" x2="267.0927" y1="553.4308" y2="542.3823"/>
    <line x1="265.9237" x2="282.2896" y1="541.7074" y2="551.1562"/>
    <line x1="284.6275" x2="284.6275" y1="549.8064" y2="560.8549"/>
    <line x1="286.9655" x2="286.9655" y1="559.5051" y2="548.4565"/>
    <line x1="289.3035" x2="289.3035" y1="547.1067" y2="558.1552"/>
    <line x1="291.6415" x2="291.6415" y1="556.8054" y2="545.7569"/>
    <line x1="293.9794" x2="293.9794" y1="544.407" y2="555.4556"/>
    <line x1="296.3174" x2="296.3174" y1="554.1057" y2="543.0572"/>
    <polyline points="298.6554,539.0222 315.0212,548.471 331.3871,539.0222 331.3871,529.1309"/>
    <line x1="330.2181" x2="330.2181" y1="528.4559" y2="538.3473"/>
    <line x1="329.0491" x2="329.0491" y1="537.6723" y2="527.781"/>
    <line x1="327.8801" x2="327.8801" y1="527.1061" y2="536.9974"/>
    <line x1="326.7111" x2="326.7111" y1="536.3225" y2="526.4312"/>
    <line x1="325.5421" x2="325.5421" y1="525.7563" y2="535.6476"/>
    <line x1="324.3731" x2="324.3731" y1="534.9727" y2="525.0814"/>
    <line x1="323.2041" x2="323.2041" y1="524.4064" y2="534.2978"/>
    <line x1="322.0352" x2="322.0352" y1="533.6228" y2="523.7315"/>
    <line x1="320.8662" x2="320.8662" y1="523.0566" y2="532.9479"/>
    <line x1="319.6972" x2="319.6972" y1="532.273" y2="522.3817"/>
    <line x1="318.5282" x2="318.5282" y1="521.7068" y2="531.5981"/>
    <line x1="317.3592" x2="317.3592" y1="530.9232" y2="521.0319"/>
    <line x1="316.1902" x2="316.1902" y1="520.3569" y2="530.2483"/>
    <line x1="312.6832" x2="312.6832" y1="530.9232" y2="519.2397"/>
    <line x1="313.8522" x2="313.8522" y1="517.2149" y2="509.0835"/>
    <polyline points="315.0212,509.7585 315.0212,519.682 331.3871,529.1309 347.7529,519.682 347.7529,517.4448"/>
    <line x1="346.5839" x2="346.5839" y1="516.7699" y2="519.0071"/>
    <line x1="345.4149" x2="345.4149" y1="518.3322" y2="516.095"/>
    <line x1="344.2459" x2="344.2459" y1="515.4201" y2="517.6573"/>
    <line x1="343.0769" x2="343.0769" y1="516.9824" y2="514.7451"/>
    <line x1="341.9079" x2="341.9079" y1="514.0702" y2="516.3075"/>
    <line x1="340.739" x2="340.739" y1="515.6325" y2="513.3953"/>
    <line x1="339.57" x2="339.57" y1="512.7204" y2="514.9576"/>
    <line x1="338.401" x2="338.401" y1="514.2827" y2="512.0455"/>
    <line x1="337.232" x2="337.232" y1="511.3706" y2="513.6078"/>
    <line x1="336.063" x2="336.063" y1="512.9329" y2="510.6956"/>
    <line x1="334.894" x2="334.894" y1="510.0207" y2="512.258"/>
    <line x1="333.725" x2="333.725" y1="511.583" y2="509.3458"/>
    <line x1="332.556" x2="332.556" y1="508.6709" y2="510.9081"/>
    <polyline points="331.3871,510.2332 331.3871,500.3096 315.0212,490.8608 298.6554,500.3096 298.6554,508.441"/>
    <line x1="299.8244" x2="299.8244" y1="509.1159" y2="500.9846"/>
    <polyline points="298.6554,500.3096 315.0212,509.7585 331.3871,500.3096 331.3871,497.3935 347.7529,487.9447"/>
    <line x1="345.4149" x2="345.4149" y1="489.2946" y2="499.897"/>
    <line x1="343.0769" x2="343.0769" y1="501.2468" y2="490.6444"/>
    <line x1="340.739" x2="340.739" y1="491.9942" y2="502.5967"/>
    <line x1="338.401" x2="338.401" y1="503.9465" y2="493.344"/>
    <line x1="336.063" x2="336.063" y1="494.6939" y2="505.2963"/>
    <line x1="333.725" x2="333.725" y1="506.6462" y2="496.0437"/>
    <line x1="331.3871" x2="315.0212" y1="497.3935" y2="487.9447"/>
    <line x1="316.1902" x2="316.1902" y1="488.6196" y2="491.5357"/>
    <polyline points="315.0212,490.8608 315.0212,487.9447 331.3871,478.4959 347.7529,487.9447 347.7529,498.5472"/>
    <line x1="347.7529" x2="364.1187" y1="495.6215" y2="486.1727"/>
    <polyline points="364.1187,486.9857 364.1187,486.1727 347.7529,476.7239 338.0353,482.3343"/>
    <line x1="338.401" x2="338.401" y1="482.1232" y2="481.6257"/>
    <line x1="338.401" x2="338.401" y1="481.2148" y2="481.2148"/>
    <line x1="337.6045" x2="347.7529" y1="482.0855" y2="476.2264"/>
    <polyline points="347.7529,476.7239 347.7529,476.2264 331.3871,466.7775 315.0212,476.2264 315.0212,479.866"/>
    <line x1="315.0212" x2="302.5597" y1="478.6133" y2="485.8079"/>
    <polyline points="303.6446,486.4343 315.0212,479.866 322.0176,483.9054 322.0352,480.2759"/>
    <line x1="320.8662" x2="320.8662" y1="479.6009" y2="483.2406"/>
    <line x1="319.6972" x2="319.6972" y1="482.5657" y2="478.926"/>
    <line x1="318.5282" x2="318.5282" y1="478.2511" y2="481.8908"/>
    <line x1="317.3592" x2="317.3592" y1="481.2158" y2="477.5762"/>
    <line x1="316.1902" x2="316.1902" y1="476.9013" y2="480.5409"/>
    <line x1="315.0212" x2="325.1696" y1="476.2264" y2="482.0855"/>
    <line x1="324.3731" x2="324.3731" y1="481.6257" y2="482.5454"/>
    <line x1="323.2041" x2="323.2041" y1="483.2203" y2="480.9508"/>
    <line x1="318.5282" x2="318.5282" y1="489.9695" y2="492.8856"/>
    <line x1="317.3592" x2="317.3592" y1="492.2107" y2="489.2946"/>
    <line x1="319.6972" x2="319.6972" y1="490.6444" y2="493.5605"/>
    <line x1="320.8662" x2="320.8662" y1="494.2354" y2="491.3193"/>
    <line x1="322.0352" x2="322.0352" y1="491.9942" y2="494.9103"/>
    <line x1="323.2041" x2="323.2041" y1="495.5852" y2="492.6691"/>
    <line x1="324.3731" x2="324.3731" y1="493.344" y2="496.2601"/>
    <line x1="325.5421" x2="325.5421" y1="496.9351" y2="494.019"/>
    <line x1="326.7111" x2="326.7111" y1="494.6939" y2="497.61"/>
    <line x1="327.8801" x2="327.8801" y1="498.2849" y2="495.3688"/>
    <line x1="329.0491" x2="329.0491" y1="496.0437" y2="498.9598"/>
    <line x1="330.2181" x2="330.2181" y1="499.6347" y2="496.7186"/>
    <line x1="329.0491" x2="329.0491" y1="501.6595" y2="511.583"/>
    <line x1="326.7111" x2="326.7111" y1="512.9329" y2="503.0093"/>
    <line x1="324.3731" x2="324.3731" y1="504.3591" y2="514.2827"/>
    <line x1="322.0352" x2="322.0352" y1="515.6325" y2="505.709"/>
    <line x1="319.6972" x2="319.6972" y1="507.0588" y2="516.9824"/>
    <line x1="317.3592" x2="317.3592" y1="518.3322" y2="508.4086"/>
    <line x1="312.6832" x2="312.6832" y1="508.4086" y2="516.54"/>
    <line x1="311.5143" x2="311.5143" y1="515.8651" y2="507.7337"/>
    <line x1="310.3453" x2="310.3453" y1="507.0588" y2="515.1902"/>
    <line x1="309.1763" x2="309.1763" y1="514.5152" y2="506.3839"/>
    <line x1="308.0073" x2="308.0073" y1="505.709" y2="513.8403"/>
    <line x1="306.8383" x2="306.8383" y1="513.1654" y2="505.0341"/>
    <line x1="305.6693" x2="305.6693" y1="504.3591" y2="512.4905"/>
    <line x1="304.5003" x2="304.5003" y1="511.8156" y2="503.6842"/>
    <line x1="303.3313" x2="303.3313" y1="503.0093" y2="511.1407"/>
    <line x1="302.1624" x2="302.1624" y1="510.4658" y2="502.3344"/>
    <line x1="300.9934" x2="300.9934" y1="501.6595" y2="509.7908"/>
    <line x1="297.4864" x2="297.4864" y1="509.1159" y2="501.7765"/>
    <line x1="296.3174" x2="296.3174" y1="501.1016" y2="509.7908"/>
    <polyline points="295.586,510.2131 282.2896,502.5365 265.9237,511.9853 265.9237,533.8583 249.5579,524.4094 233.192,533.8583"/>
    <line x1="230.8541" x2="230.8541" y1="551.4061" y2="551.4061"/>
    <line x1="242.544" x2="242.544" y1="558.1552" y2="558.1552"/>
    <line x1="251.8959" x2="251.8959" y1="560.8549" y2="560.8549"/>
    <line x1="240.206" x2="240.206" y1="567.604" y2="567.604"/>
    <line x1="236.699" x2="236.699" y1="573.6783" y2="590.6862"/>
    <line x1="237.868" x2="237.868" y1="591.3611" y2="574.3532"/>
    <line x1="239.037" x2="239.037" y1="575.0281" y2="592.036"/>
    <line x1="240.206" x2="240.206" y1="592.7109" y2="575.703"/>
    <line x1="241.375" x2="241.375" y1="576.378" y2="593.3858"/>
    <line x1="242.544" x2="242.544" y1="594.0607" y2="577.0529"/>
    <line x1="243.7129" x2="243.7129" y1="577.7278" y2="594.7357"/>
    <line x1="244.8819" x2="244.8819" y1="595.4106" y2="578.4027"/>
    <line x1="246.0509" x2="246.0509" y1="579.0776" y2="596.0855"/>
    <line x1="247.2199" x2="247.2199" y1="596.7604" y2="579.7525"/>
    <line x1="248.3889" x2="248.3889" y1="580.4274" y2="597.4353"/>
    <polyline points="249.5579,598.1102 233.192,588.6614 233.192,571.6535 249.5579,562.2047 265.9237,571.6535 282.2896,562.2047 298.6554,571.6535 315.0212,562.2047 321.3451,565.8558"/>
    <line x1="320.8662" x2="320.8662" y1="565.5793" y2="559.2074"/>
    <line x1="322.0352" x2="322.0352" y1="559.8824" y2="565.4574"/>
    <line x1="323.2041" x2="323.2041" y1="564.7825" y2="560.5573"/>
    <line x1="324.3731" x2="324.3731" y1="561.2322" y2="564.1076"/>
    <line x1="325.5421" x2="325.5421" y1="563.4327" y2="561.9071"/>
    <line x1="319.6972" x2="319.6972" y1="564.9044" y2="558.5325"/>
    <line x1="318.5282" x2="318.5282" y1="557.8576" y2="564.2295"/>
    <line x1="317.3592" x2="317.3592" y1="563.5546" y2="557.1827"/>
    <line x1="316.1902" x2="316.1902" y1="556.5078" y2="562.8796"/>
    <line x1="312.6832" x2="312.6832" y1="563.5546" y2="563.5546"/>
    <line x1="316.1902" x2="316.1902" y1="570.1818" y2="571.0708"/>
    <line x1="317.3592" x2="317.3592" y1="570.8567" y2="571.7458"/>
    <line x1="318.5282" x2="318.5282" y1="571.5317" y2="572.4207"/>
    <line x1="319.6972" x2="319.6972" y1="572.2066" y2="573.0956"/>
    <line x1="320.8662" x2="320.8662" y1="572.8815" y2="573.7705"/>
    <line x1="322.0352" x2="322.0352" y1="573.5564" y2="574.4454"/>
    <line x1="323.2041" x2="323.2041" y1="574.2313" y2="575.1203"/>
    <line x1="324.3731" x2="324.3731" y1="574.9062" y2="575.7952"/>
    <line x1="325.5421" x2="325.5421" y1="575.5811" y2="576.4702"/>
    <line x1="326.7111" x2="326.7111" y1="576.2561" y2="577.1451"/>
    <line x1="327.8801" x2="327.8801" y1="576.931" y2="577.82"/>
    <line x1="329.0491" x2="329.0491" y1="577.6059" y2="578.4949"/>
    <polyline points="331.3871,578.1453 331.3871,576.2278 347.7529,566.779 364.1187,576.2278 364.1187,590.5512 380.4846,581.1024 396.8504,590.5512 413.2162,581.1024 429.5821,590.5512 445.9479,581.1024 462.3137,590.5512 462.3137,581.3637"/>
    <line x1="455.2998" x2="455.2998" y1="594.6007" y2="594.6007"/>
    <line x1="448.2859" x2="448.2859" y1="601.3498" y2="601.3498"/>
    <line x1="454.1308" x2="454.1308" y1="604.7244" y2="604.7244"/>
    <line x1="456.4688" x2="456.4688" y1="606.0742" y2="606.0742"/>
    <line x1="466.9897" x2="466.9897" y1="606.7492" y2="606.7492"/>
    <line x1="466.9897" x2="466.9897" y1="612.1485" y2="612.1485"/>
    <line x1="474.0036" x2="474.0036" y1="602.6997" y2="602.6997"/>
    <line x1="486.8625" x2="486.8625" y1="604.7244" y2="604.7244"/>
    <line x1="488.0315" x2="488.0315" y1="605.3993" y2="605.3993"/>
    <line x1="489.2005" x2="489.2005" y1="606.0742" y2="606.0742"/>
    <line x1="490.3694" x2="490.3694" y1="606.7492" y2="606.7492"/>
    <line x1="493.8764" x2="493.8764" y1="608.7739" y2="608.7739"/>
    <line x1="492.7074" x2="492.7074" y1="610.7987" y2="627.8065"/>
    <polyline points="495.0454,626.4567 511.4112,617.0079 511.4112,600.0 495.0454,590.5512 478.6796,600.0 462.3137,590.5512 445.9479,600.0 429.5821,590.5512 413.2162,600.0 396.8504,590.5512 380.4846,600.0"/>
    <line x1="378.1466" x2="378.1466" y1="598.6502" y2="598.6502"/>
    <line x1="375.8086" x2="375.8086" y1="597.3003" y2="597.3003"/>
    <line x1="374.6396" x2="374.6396" y1="596.6254" y2="596.6254"/>
    <line x1="372.3016" x2="372.3016" y1="595.2756" y2="595.2756"/>
    <line x1="371.1327" x2="371.1327" y1="594.6007" y2="594.6007"/>
    <line x1="368.7947" x2="368.7947" y1="593.2508" y2="593.2508"/>
    <line x1="385.1605" x2="385.1605" y1="602.6997" y2="602.6997"/>
    <line x1="389.8365" x2="389.8365" y1="594.6007" y2="594.6007"/>
    <line x1="392.1744" x2="392.1744" y1="593.2508" y2="593.2508"/>
    <line x1="394.5124" x2="394.5124" y1="591.901" y2="591.901"/>
    <line x1="394.5124" x2="394.5124" y1="589.2013" y2="589.2013"/>
    <line x1="391.0055" x2="391.0055" y1="587.1766" y2="587.1766"/>
    <line x1="399.1884" x2="399.1884" y1="589.2013" y2="589.2013"/>
    <line x1="401.5263" x2="401.5263" y1="593.2508" y2="593.2508"/>
    <line x1="403.8643" x2="403.8643" y1="594.6007" y2="594.6007"/>
    <line x1="407.3713" x2="407.3713" y1="596.6254" y2="596.6254"/>
    <line x1="408.5403" x2="408.5403" y1="602.6997" y2="602.6997"/>
    <line x1="415.5542" x2="415.5542" y1="598.6502" y2="598.6502"/>
    <line x1="417.8922" x2="417.8922" y1="597.3003" y2="597.3003"/>
    <line x1="422.5681" x2="422.5681" y1="594.6007" y2="594.6007"/>
    <line x1="424.9061" x2="424.9061" y1="593.2508" y2="593.2508"/>
    <line x1="423.7371" x2="423.7371" y1="587.1766" y2="587.1766"/>
    <line x1="431.92" x2="431.92" y1="589.2013" y2="589.2013"/>
    <line x1="436.596" x2="436.596" y1="594.6007" y2="594.6007"/>
    <line x1="437.765" x2="437.765" y1="595.2756" y2="595.2756"/>
    <line x1="440.103" x2="440.103" y1="596.6254" y2="596.6254"/>
    <line x1="441.2719" x2="441.2719" y1="602.6997" y2="602.6997"/>
    <line x1="437.765" x2="437.765" y1="614.1732" y2="614.1732"/>
    <line x1="448.2859" x2="448.2859" y1="620.2475" y2="620.2475"/>
    <line x1="443.6099" x2="443.6099" y1="636.4454" y2="636.4454"/>
    <line x1="424.9061" x2="424.9061" y1="644.5444" y2="644.5444"/>
    <line x1="424.9061" x2="424.9061" y1="649.9438" y2="666.9516"/>
    <line x1="422.5681" x2="422.5681" y1="668.3015" y2="651.2936"/>
    <line x1="420.2302" x2="420.2302" y1="652.6434" y2="669.6513"/>
    <line x1="417.8922" x2="417.8922" y1="671.0011" y2="653.9933"/>
    <line x1="415.5542" x2="415.5542" y1="655.3431" y2="672.351"/>
    <polyline points="413.2162,673.7008 429.5821,664.252 429.5821,647.2441 413.2162,637.7953 396.8504,647.2441 380.4846,637.7953 364.1187,647.2441 364.1187,664.252 380.4846,673.7008"/>
    <line x1="379.3156" x2="379.3156" y1="673.0259" y2="656.018"/>
    <line x1="378.1466" x2="378.1466" y1="655.3431" y2="672.351"/>
    <line x1="376.9776" x2="376.9776" y1="671.676" y2="654.6682"/>
    <line x1="375.8086" x2="375.8086" y1="653.9933" y2="671.0011"/>
    <line x1="374.6396" x2="374.6396" y1="670.3262" y2="653.3183"/>
    <line x1="373.4706" x2="373.4706" y1="652.6434" y2="669.6513"/>
    <line x1="372.3016" x2="372.3016" y1="668.9764" y2="651.9685"/>
    <line x1="371.1327" x2="371.1327" y1="651.2936" y2="668.3015"/>
    <line x1="369.9637" x2="369.9637" y1="667.6265" y2="650.6187"/>
    <line x1="368.7947" x2="368.7947" y1="649.9438" y2="666.9516"/>
    <line x1="367.6257" x2="367.6257" y1="666.2767" y2="649.2688"/>
    <line x1="366.4567" x2="366.4567" y1="648.5939" y2="665.6018"/>
    <line x1="365.2877" x2="365.2877" y1="664.9269" y2="647.919"/>
    <line x1="368.7947" x2="368.7947" y1="644.5444" y2="644.5444"/>
    <line x1="381.6535" x2="381.6535" y1="657.3678" y2="674.3757"/>
    <line x1="382.8225" x2="382.8225" y1="675.0506" y2="658.0427"/>
    <line x1="383.9915" x2="383.9915" y1="658.7177" y2="675.7255"/>
    <line x1="385.1605" x2="385.1605" y1="676.4004" y2="659.3926"/>
    <line x1="386.3295" x2="386.3295" y1="660.0675" y2="677.0754"/>
    <line x1="387.4985" x2="387.4985" y1="677.7503" y2="660.7424"/>
    <line x1="388.6675" x2="388.6675" y1="661.4173" y2="678.4252"/>
    <line x1="389.8365" x2="389.8365" y1="679.1001" y2="662.0922"/>
    <line x1="391.0055" x2="391.0055" y1="662.7672" y2="679.775"/>
    <line x1="392.1744" x2="392.1744" y1="680.4499" y2="663.4421"/>
    <line x1="393.3434" x2="393.3434" y1="664.117" y2="681.1249"/>
    <line x1="394.5124" x2="394.5124" y1="681.7998" y2="664.7919"/>
    <line x1="395.6814" x2="395.6814" y1="665.4668" y2="682.4747"/>
    <polyline points="396.8504,683.1496 413.2162,673.7008 413.2162,656.6929 396.8504,647.2441 380.4846,656.6929 380.4846,673.7008 396.8504,683.1496 396.8504,666.1417"/>
    <line x1="399.1884" x2="399.1884" y1="664.7919" y2="681.7998"/>
    <line x1="401.5263" x2="401.5263" y1="680.4499" y2="663.4421"/>
    <line x1="403.8643" x2="403.8643" y1="662.0922" y2="679.1001"/>
    <line x1="406.2023" x2="406.2023" y1="677.7503" y2="660.7424"/>
    <line x1="408.5403" x2="408.5403" y1="659.3926" y2="676.4004"/>
    <line x1="410.8783" x2="410.8783" y1="675.0506" y2="658.0427"/>
    <line x1="408.5403" x2="408.5403" y1="653.9933" y2="653.9933"/>
    <line x1="406.2023" x2="406.2023" y1="652.6434" y2="652.6434"/>
    <line x1="401.5263" x2="401.5263" y1="644.5444" y2="644.5444"/>
    <line x1="398.0194" x2="398.0194" y1="647.919" y2="647.919"/>
    <line x1="393.3434" x2="393.3434" y1="645.2193" y2="645.2193"/>
    <line x1="392.1744" x2="392.1744" y1="644.5444" y2="644.5444"/>
    <line x1="387.4985" x2="387.4985" y1="641.8448" y2="641.8448"/>
    <line x1="387.4985" x2="387.4985" y1="652.6434" y2="652.6434"/>
    <line x1="385.1605" x2="385.1605" y1="653.9933" y2="653.9933"/>
    <line x1="406.2023" x2="406.2023" y1="641.8448" y2="641.8448"/>
    <line x1="409.7093" x2="409.7093" y1="635.7705" y2="635.7705"/>
    <line x1="424.9061" x2="424.9061" y1="612.1485" y2="612.1485"/>
    <line x1="423.7371" x2="423.7371" y1="606.0742" y2="606.0742"/>
    <line x1="368.7947" x2="368.7947" y1="612.1485" y2="612.1485"/>
    <polyline points="346.5839,550.253 346.5738,555.1521 331.3871,546.384 315.0212,555.8329 315.0212,562.2047 298.6554,552.7559 282.2896,562.2047 265.9237,552.7559 249.5579,562.2047 233.192,552.7559 216.8262,562.2047 216.8262,579.2126 233.192,588.6614"/>
    <line x1="234.361" x2="234.361" y1="589.3363" y2="572.3285"/>
    <line x1="235.53" x2="235.53" y1="573.0034" y2="590.0112"/>
    <line x1="232.0231" x2="232.0231" y1="587.9865" y2="570.9786"/>
    <line x1="230.8541" x2="230.8541" y1="570.3037" y2="587.3116"/>
    <line x1="229.6851" x2="229.6851" y1="586.6367" y2="569.6288"/>
    <line x1="228.5161" x2="228.5161" y1="568.9539" y2="585.9618"/>
    <line x1="227.3471" x2="227.3471" y1="585.2868" y2="568.279"/>
    <line x1="226.1781" x2="226.1781" y1="567.604" y2="584.6119"/>
    <line x1="225.0091" x2="225.0091" y1="583.937" y2="566.9291"/>
    <line x1="223.8401" x2="223.8401" y1="566.2542" y2="583.2621"/>
    <line x1="222.6712" x2="222.6712" y1="582.5872" y2="565.5793"/>
    <line x1="221.5022" x2="221.5022" y1="564.9044" y2="581.9123"/>
    <line x1="220.3332" x2="220.3332" y1="581.2373" y2="564.2295"/>
    <line x1="219.1642" x2="219.1642" y1="563.5546" y2="580.5624"/>
    <line x1="217.9952" x2="217.9952" y1="579.8875" y2="562.8796"/>
    <polyline points="216.8262,543.3071 233.192,533.8583 249.5579,543.3071 265.9237,533.8583 272.7212,537.7828"/>
    <line x1="272.9376" x2="272.9376" y1="537.6579" y2="516.0348"/>
    <line x1="271.7687" x2="271.7687" y1="515.3599" y2="537.2328"/>
    <line x1="270.5997" x2="270.5997" y1="536.5579" y2="514.6849"/>
    <line x1="269.4307" x2="269.4307" y1="514.01" y2="535.883"/>
    <line x1="268.2617" x2="268.2617" y1="535.2081" y2="513.3351"/>
    <line x1="267.0927" x2="267.0927" y1="512.6602" y2="534.5332"/>
    <line x1="264.7547" x2="264.7547" y1="533.1834" y2="526.6196"/>
    <line x1="263.5857" x2="263.5857" y1="525.9447" y2="532.5084"/>
    <line x1="262.4168" x2="262.4168" y1="531.8335" y2="525.2698"/>
    <line x1="261.2478" x2="261.2478" y1="524.5949" y2="531.1586"/>
    <line x1="260.0788" x2="260.0788" y1="530.4837" y2="523.9199"/>
    <line x1="258.9098" x2="258.9098" y1="523.245" y2="529.8088"/>
    <line x1="257.7408" x2="257.7408" y1="529.1339" y2="522.5701"/>
    <line x1="256.5718" x2="256.5718" y1="521.8952" y2="528.4589"/>
    <line x1="255.4028" x2="255.4028" y1="527.784" y2="521.2203"/>
    <line x1="254.2338" x2="254.2338" y1="520.5454" y2="527.1091"/>
    <line x1="253.0648" x2="253.0648" y1="526.4342" y2="519.8704"/>
    <line x1="251.8959" x2="251.8959" y1="519.1955" y2="525.7593"/>
    <line x1="250.7269" x2="250.7269" y1="525.0844" y2="518.5206"/>
    <line x1="249.5579" x2="265.9237" y1="517.8457" y2="527.2945"/>
    <line x1="274.1066" x2="274.1066" y1="536.983" y2="516.7097"/>
    <line x1="275.2756" x2="275.2756" y1="517.3846" y2="536.308"/>
    <line x1="276.4446" x2="276.4446" y1="535.6331" y2="518.0595"/>
    <line x1="277.6136" x2="277.6136" y1="518.7344" y2="534.9582"/>
    <line x1="278.7826" x2="278.7826" y1="534.2833" y2="519.4094"/>
    <line x1="279.9516" x2="279.9516" y1="520.0843" y2="533.6084"/>
    <line x1="281.1206" x2="281.1206" y1="532.9335" y2="520.7592"/>
    <line x1="282.2896" x2="265.9237" y1="521.4341" y2="511.9853"/>
    <line x1="267.0927" x2="267.0927" y1="509.0718" y2="507.3902"/>
    <line x1="265.9237" x2="270.4877" y1="506.7153" y2="509.3503"/>
    <line x1="269.4307" x2="269.4307" y1="508.74" y2="509.9605"/>
    <polyline points="269.0314,510.1911 265.9237,508.3969 249.5579,517.8457 249.5579,524.4094"/>
    <polyline points="265.9237,508.3969 265.9237,506.7153 282.2896,497.2664"/>
    <line x1="284.6275" x2="284.6275" y1="494.3524" y2="503.8863"/>
    <line x1="283.4585" x2="283.4585" y1="503.2114" y2="493.6775"/>
    <line x1="282.2896" x2="298.6554" y1="493.0026" y2="502.4514"/>
    <line x1="295.1484" x2="295.1484" y1="500.4267" y2="509.9605"/>
    <line x1="293.9794" x2="293.9794" y1="509.2856" y2="499.7518"/>
    <line x1="292.8104" x2="292.8104" y1="499.0768" y2="508.6107"/>
    <line x1="291.6415" x2="291.6415" y1="507.9358" y2="498.4019"/>
    <line x1="290.4725" x2="290.4725" y1="497.727" y2="507.2609"/>
    <line x1="289.3035" x2="289.3035" y1="506.586" y2="497.0521"/>
    <line x1="288.1345" x2="288.1345" y1="496.3772" y2="505.911"/>
    <line x1="286.9655" x2="286.9655" y1="505.2361" y2="495.7023"/>
    <line x1="285.7965" x2="285.7965" y1="495.0274" y2="504.5612"/>
    <polyline points="282.2896,502.5365 282.2896,493.0026 298.6554,483.5538 313.1664,491.9317"/>
    <line x1="333.725" x2="333.725" y1="478.5152" y2="478.5152"/>
    <line x1="340.739" x2="340.739" y1="480.2759" y2="480.7734"/>
    <line x1="343.0769" x2="343.0769" y1="479.4235" y2="478.926"/>
    <line x1="345.4149" x2="345.4149" y1="478.0737" y2="477.5762"/>
    <line x1="368.7947" x2="368.7947" y1="474.4657" y2="474.4657"/>
    <line x1="373.4706" x2="373.4706" y1="471.766" y2="471.766"/>
    <line x1="379.3156" x2="379.3156" y1="467.0416" y2="467.0416"/>
    <line x1="371.1327" x2="371.1327" y1="462.3172" y2="462.3172"/>
    <polyline points="364.1187,458.2677 380.4846,448.8189 396.8504,458.2677 413.2162,448.8189 429.5821,458.2677"/>
    <line x1="422.5681" x2="422.5681" y1="462.3172" y2="462.3172"/>
    <line x1="437.9988" x2="437.9988" y1="466.4154" y2="473.7045"/>
    <line x1="449.6887" x2="449.6887" y1="478.024" y2="480.4537"/>
    <line x1="450.0394" x2="450.0394" y1="480.6562" y2="497.664"/>
    <polyline points="450.8576,498.1365 449.2211,497.1916 449.2211,480.1837"/>
    <line x1="455.5336" x2="455.5336" y1="478.4289" y2="493.547"/>
    <line x1="457.8716" x2="457.8716" y1="492.1972" y2="477.0791"/>
    <line x1="460.2096" x2="460.2096" y1="475.7293" y2="490.8474"/>
    <polyline points="459.0406,491.5223 462.3137,493.4121 462.3137,497.2491"/>
    <line x1="459.9758" x2="459.9758" y1="498.599" y2="494.7619"/>
    <line x1="462.3137" x2="478.6796" y1="494.5369" y2="485.0881"/>
    <line x1="476.3416" x2="476.3416" y1="486.4379" y2="491.9218"/>
    <polyline points="478.6796,490.572 478.6796,485.0881 470.4966,480.3637"/>
    <polyline points="471.8911,481.1688 478.6796,477.2494 495.0454,486.6982 495.0454,497.5695"/>
    <line x1="495.0454" x2="478.6796" y1="500.0208" y2="509.4696"/>
    <line x1="481.0175" x2="481.0175" y1="508.1198" y2="524.9725"/>
    <line x1="483.3555" x2="483.3555" y1="526.3223" y2="506.7699"/>
    <line x1="485.6935" x2="485.6935" y1="505.4201" y2="527.6722"/>
    <line x1="488.0315" x2="488.0315" y1="529.022" y2="504.0703"/>
    <line x1="490.3694" x2="490.3694" y1="502.7205" y2="529.972"/>
    <polyline points="490.0232,530.1719 495.0454,527.2723 511.4112,536.7211 511.4112,543.3071 527.7771,533.8583 544.1429,543.3071 560.5087,533.8583 576.8746,543.3071"/>
    <line x1="562.8467" x2="562.8467" y1="551.4061" y2="551.4061"/>
    <line x1="551.1568" x2="551.1568" y1="558.1552" y2="558.1552"/>
    <line x1="541.8049" x2="541.8049" y1="560.8549" y2="560.8549"/>
    <line x1="538.298" x2="538.298" y1="558.8301" y2="558.8301"/>
    <line x1="553.4948" x2="553.4948" y1="567.604" y2="567.604"/>
    <line x1="555.8328" x2="555.8328" y1="574.3532" y2="591.3611"/>
    <line x1="558.1708" x2="558.1708" y1="590.0112" y2="573.0034"/>
    <line x1="562.8467" x2="562.8467" y1="570.3037" y2="587.3116"/>
    <polyline points="560.5087,588.6614 576.8746,579.2126 576.8746,562.2047 560.5087,552.7559 544.1429,562.2047 527.7771,552.7559 511.4112,562.2047 495.0454,552.7559 478.6796,562.2047 478.6796,545.5843 462.3137,536.1355 445.9479,545.5843 445.9479,550.989"/>
    <line x1="466.9897" x2="466.9897" y1="552.3334" y2="565.1657"/>
    <line x1="469.3277" x2="469.3277" y1="566.5155" y2="550.9836"/>
    <line x1="492.7074" x2="492.7074" y1="528.6221" y2="501.3706"/>
    <polyline points="492.9225,498.7952 495.0454,497.5695 511.4112,507.0183 511.4112,524.4094 511.4112,512.8311 527.7771,503.3823"/>
    <line x1="525.4391" x2="525.4391" y1="504.7321" y2="516.3105"/>
    <polyline points="527.7771,514.9606 527.7771,503.3823 511.4112,493.9335 500.0794,500.4759"/>
    <line x1="499.7214" x2="499.7214" y1="500.2692" y2="486.6564"/>
    <line x1="497.3834" x2="497.3834" y1="488.0063" y2="498.9194"/>
    <line x1="492.7074" x2="492.7074" y1="498.671" y2="488.0481"/>
    <line x1="495.0454" x2="511.4112" y1="489.3561" y2="479.9073"/>
    <line x1="509.0733" x2="509.0733" y1="481.2571" y2="495.2833"/>
    <line x1="506.7353" x2="506.7353" y1="496.6332" y2="482.6069"/>
    <line x1="504.3973" x2="504.3973" y1="483.9568" y2="497.983"/>
    <line x1="502.0593" x2="502.0593" y1="499.3328" y2="485.3066"/>
    <line x1="495.0454" x2="483.5077" y1="486.6982" y2="493.3595"/>
    <line x1="485.6935" x2="485.6935" y1="492.0976" y2="494.6215"/>
    <line x1="488.0315" x2="488.0315" y1="495.9713" y2="490.7477"/>
    <line x1="490.3694" x2="490.3694" y1="489.3979" y2="497.3211"/>
    <polyline points="478.6796,506.698 462.3137,516.1468 445.9479,506.698 445.9479,502.8609 429.5821,493.4121"/>
    <line x1="443.6099" x2="443.6099" y1="485.2643" y2="485.2643"/>
    <line x1="452.9618" x2="452.9618" y1="498.8114" y2="502.6485"/>
    <line x1="455.2998" x2="455.2998" y1="501.2986" y2="497.4616"/>
    <line x1="457.6378" x2="457.6378" y1="496.1117" y2="499.9488"/>
    <line x1="450.6238" x2="450.6238" y1="500.1612" y2="503.9983"/>
    <line x1="448.2859" x2="448.2859" y1="505.3481" y2="501.511"/>
    <line x1="445.9479" x2="462.3137" y1="502.8609" y2="493.4121"/>
    <polyline points="464.6517,493.1871 464.714,498.635 478.6796,490.572 495.0454,500.0208 495.0454,527.2723"/>
    <line x1="497.3834" x2="497.3834" y1="528.6221" y2="515.1173"/>
    <line x1="495.0454" x2="511.4112" y1="516.4672" y2="507.0183"/>
    <line x1="509.0733" x2="509.0733" y1="508.3682" y2="525.7593"/>
    <polyline points="511.4112,524.4094 527.7771,514.9606 544.1429,524.4094"/>
    <polyline points="560.5087,533.8583 544.1429,524.4094 527.7771,533.8583 511.4112,524.4094 500.749,530.5653"/>
    <line x1="499.7214" x2="499.7214" y1="529.972" y2="513.7675"/>
    <line x1="502.0593" x2="502.0593" y1="512.4177" y2="529.8088"/>
    <line x1="504.3973" x2="504.3973" y1="528.4589" y2="511.0678"/>
    <line x1="506.7353" x2="506.7353" y1="509.718" y2="527.1091"/>
    <line x1="513.7492" x2="513.7492" y1="523.0596" y2="511.4813"/>
    <line x1="516.0872" x2="516.0872" y1="510.1315" y2="521.7098"/>
    <line x1="518.4252" x2="518.4252" y1="520.36" y2="508.7816"/>
    <line x1="520.7631" x2="520.7631" y1="507.4318" y2="519.0101"/>
    <line x1="523.1011" x2="523.1011" y1="517.6603" y2="506.082"/>
    <polyline points="511.4112,493.9335 511.4112,479.9073 495.0454,470.4585 480.9813,478.5783"/>
    <line x1="476.8914" x2="470.4966" y1="478.2818" y2="474.5898"/>
    <polyline points="470.5952,470.4506 478.6796,465.7831 490.9114,472.8452"/>
    <line x1="474.0036" x2="474.0036" y1="487.7878" y2="493.2716"/>
    <line x1="471.6656" x2="471.6656" y1="494.6215" y2="489.1376"/>
    <line x1="469.3277" x2="469.3277" y1="490.4874" y2="495.9713"/>
    <line x1="466.9897" x2="466.9897" y1="497.3211" y2="491.8372"/>
    <line x1="464.8855" x2="464.8855" y1="488.1477" y2="473.0296"/>
    <line x1="462.5475" x2="462.5475" y1="474.3794" y2="489.4975"/>
    <polyline points="468.8601,487.7428 467.2235,486.7979 467.2235,471.6798"/>
    <polyline points="417.2091,481.8546 413.2162,479.5493 396.8504,488.9981 396.8504,492.1736"/>
    <polyline points="396.364,492.4544 380.4846,483.2864 369.098,489.8605"/>
    <polyline points="385.3931,486.1204 396.8504,479.5055 405.0712,484.2518"/>
    <line x1="383.9915" x2="383.9915" y1="450.8436" y2="450.8436"/>
    <line x1="382.8225" x2="382.8225" y1="450.1687" y2="450.1687"/>
    <line x1="345.4149" x2="345.4149" y1="521.0319" y2="533.3801"/>
    <line x1="343.0769" x2="343.0769" y1="534.73" y2="522.3817"/>
    <line x1="340.739" x2="340.739" y1="523.7315" y2="536.0798"/>
    <line x1="338.401" x2="338.401" y1="537.4296" y2="525.0814"/>
    <line x1="336.063" x2="336.063" y1="526.4312" y2="538.7794"/>
    <line x1="333.725" x2="333.725" y1="540.1293" y2="527.781"/>
    <line x1="329.0491" x2="329.0491" y1="540.372" y2="547.7339"/>
    <line x1="326.7111" x2="326.7111" y1="549.0837" y2="541.7218"/>
    <line x1="324.3731" x2="324.3731" y1="543.0717" y2="550.4335"/>
    <line x1="322.0352" x2="322.0352" y1="551.7834" y2="544.4215"/>
    <line x1="319.6972" x2="319.6972" y1="545.7713" y2="553.1332"/>
    <line x1="317.3592" x2="317.3592" y1="554.483" y2="547.1212"/>
    <line x1="308.0073" x2="308.0073" y1="533.6228" y2="521.9393"/>
    <line x1="305.6693" x2="305.6693" y1="523.2892" y2="534.9727"/>
    <line x1="303.3313" x2="303.3313" y1="536.3225" y2="524.639"/>
    <line x1="300.9934" x2="300.9934" y1="525.9888" y2="537.6723"/>
    <line x1="298.6554" x2="315.0212" y1="527.3386" y2="517.8898"/>
    <line x1="310.3453" x2="310.3453" y1="520.5895" y2="532.273"/>
    <polyline points="282.2896,532.2586 282.2896,517.8898 298.6554,508.441 315.0212,517.8898 315.0212,529.5733 315.0212,519.682 331.3871,510.2332 347.7529,519.682 347.7529,532.0303"/>
    <polyline points="305.7492,575.7491 298.6554,571.6535 282.2896,581.1024 265.9237,571.6535 249.5579,581.1024 249.5579,598.1102 265.9237,607.5591"/>
    <line x1="264.7547" x2="264.7547" y1="606.8841" y2="589.8763"/>
    <line x1="263.5857" x2="263.5857" y1="589.2013" y2="606.2092"/>
    <line x1="262.4168" x2="262.4168" y1="605.5343" y2="588.5264"/>
    <line x1="261.2478" x2="261.2478" y1="587.8515" y2="604.8594"/>
    <line x1="260.0788" x2="260.0788" y1="604.1845" y2="587.1766"/>
    <line x1="258.9098" x2="258.9098" y1="586.5017" y2="603.5096"/>
    <line x1="257.7408" x2="257.7408" y1="602.8346" y2="585.8268"/>
    <line x1="256.5718" x2="256.5718" y1="585.1519" y2="602.1597"/>
    <line x1="255.4028" x2="255.4028" y1="601.4848" y2="584.4769"/>
    <line x1="254.2338" x2="254.2338" y1="583.802" y2="600.8099"/>
    <line x1="253.0648" x2="253.0648" y1="600.135" y2="583.1271"/>
    <line x1="251.8959" x2="251.8959" y1="582.4522" y2="599.4601"/>
    <line x1="250.7269" x2="250.7269" y1="598.7852" y2="581.7773"/>
    <line x1="251.8959" x2="251.8959" y1="579.7525" y2="579.7525"/>
    <line x1="267.0927" x2="267.0927" y1="591.2261" y2="608.234"/>
    <line x1="268.2617" x2="268.2617" y1="608.9089" y2="591.901"/>
    <line x1="269.4307" x2="269.4307" y1="592.5759" y2="609.5838"/>
    <line x1="270.5997" x2="270.5997" y1="610.2587" y2="593.2508"/>
    <line x1="271.7687" x2="271.7687" y1="593.9258" y2="610.9336"/>
    <line x1="272.9376" x2="272.9376" y1="611.6085" y2="594.6007"/>
    <line x1="274.1066" x2="274.1066" y1="595.2756" y2="612.2835"/>
    <line x1="275.2756" x2="275.2756" y1="612.9584" y2="595.9505"/>
    <line x1="276.4446" x2="276.4446" y1="596.6254" y2="613.6333"/>
    <line x1="277.6136" x2="277.6136" y1="614.3082" y2="597.3003"/>
    <line x1="278.7826" x2="278.7826" y1="597.9753" y2="614.9831"/>
    <line x1="279.9516" x2="279.9516" y1="615.658" y2="598.6502"/>
    <line x1="281.1206" x2="281.1206" y1="599.3251" y2="616.333"/>
    <line x1="284.6275" x2="284.6275" y1="598.6502" y2="598.6502"/>
    <line x1="291.6415" x2="291.6415" y1="594.6007" y2="594.6007"/>
    <line x1="293.9794" x2="293.9794" y1="593.2508" y2="593.2508"/>
    <line x1="296.3174" x2="296.3174" y1="591.901" y2="591.901"/>
    <line x1="292.8104" x2="292.8104" y1="587.1766" y2="587.1766"/>
    <line x1="289.3035" x2="289.3035" y1="585.1519" y2="585.1519"/>
    <line x1="279.9516" x2="279.9516" y1="579.7525" y2="579.7525"/>
    <line x1="278.7826" x2="278.7826" y1="579.0776" y2="579.0776"/>
    <line x1="276.4446" x2="276.4446" y1="577.7278" y2="577.7278"/>
    <line x1="285.7965" x2="285.7965" y1="564.2295" y2="564.2295"/>
    <line x1="288.1345" x2="288.1345" y1="565.5793" y2="565.5793"/>
    <line x1="268.2617" x2="268.2617" y1="509.7467" y2="508.0651"/>
    <line x1="481.0175" x2="481.0175" y1="617.5478" y2="634.5557"/>
    <line x1="483.3555" x2="483.3555" y1="633.2058" y2="616.198"/>
    <line x1="485.6935" x2="485.6935" y1="614.8481" y2="631.856"/>
    <line x1="488.0315" x2="488.0315" y1="630.5062" y2="613.4983"/>
    <line x1="490.3694" x2="490.3694" y1="612.1485" y2="629.1564"/>
    <line x1="497.3834" x2="497.3834" y1="625.1069" y2="608.099"/>
    <line x1="499.7214" x2="499.7214" y1="606.7492" y2="623.757"/>
    <line x1="502.0593" x2="502.0593" y1="622.4072" y2="605.3993"/>
    <line x1="504.3973" x2="504.3973" y1="604.0495" y2="621.0574"/>
    <line x1="506.7353" x2="506.7353" y1="619.7075" y2="602.6997"/>
    <line x1="513.7492" x2="513.7492" y1="598.6502" y2="615.658"/>
    <line x1="516.0872" x2="516.0872" y1="614.3082" y2="597.3003"/>
    <line x1="518.4252" x2="518.4252" y1="595.9505" y2="612.9584"/>
    <line x1="520.7631" x2="520.7631" y1="611.6085" y2="594.6007"/>
    <line x1="523.1011" x2="523.1011" y1="593.2508" y2="610.2587"/>
    <line x1="525.4391" x2="525.4391" y1="608.9089" y2="591.901"/>
    <line x1="526.6081" x2="526.6081" y1="589.8763" y2="589.8763"/>
    <line x1="521.9321" x2="521.9321" y1="587.1766" y2="587.1766"/>
    <line x1="513.7492" x2="513.7492" y1="579.7525" y2="579.7525"/>
    <line x1="504.3973" x2="504.3973" y1="585.1519" y2="585.1519"/>
    <line x1="513.7492" x2="513.7492" y1="560.8549" y2="560.8549"/>
    <line x1="538.298" x2="538.298" y1="577.7278" y2="577.7278"/>
    <line x1="541.8049" x2="541.8049" y1="579.7525" y2="579.7525"/>
    <line x1="546.4809" x2="546.4809" y1="579.7525" y2="596.7604"/>
    <line x1="548.8189" x2="548.8189" y1="595.4106" y2="578.4027"/>
    <line x1="551.1568" x2="551.1568" y1="577.0529" y2="594.0607"/>
    <line x1="553.4948" x2="553.4948" y1="592.7109" y2="575.703"/>
    <line x1="565.1847" x2="565.1847" y1="568.9539" y2="585.9618"/>
    <line x1="567.5227" x2="567.5227" y1="584.6119" y2="567.604"/>
    <line x1="569.8606" x2="569.8606" y1="566.2542" y2="583.2621"/>
    <line x1="572.1986" x2="572.1986" y1="581.9123" y2="564.9044"/>
    <line x1="518.4252" x2="518.4252" y1="528.4589" y2="528.4589"/>
  </g>
</svg>
