<?xml version="1.0" encoding="utf-8" ?>
<svg xmlns="http://www.w3.org/2000/svg" xmlns:cc="http://creativecommons.org/ns#" xmlns:dc="http://purl.org/dc/elements/1.1/" xmlns:ev="http://www.w3.org/2001/xml-events" xmlns:inkscape="http://www.inkscape.org/namespaces/inkscape" xmlns:rdf="http://www.w3.org/1999/02/22-rdf-syntax-ns#" xmlns:sodipodi="http://sodipodi.sourceforge.net/DTD/sodipodi-0.dtd" xmlns:xlink="http://www.w3.org/1999/xlink" baseProfile="tiny" height="29.7cm" version="1.2" viewBox="0 0 793.7007874015749 1122.5196850393702" width="21.0cm">
  <metadata>
    <rdf:RDF>
      <cc:Work>
        <dc:format>image/svg+xml</dc:format>
        <dc:source/>
        <dc:date>2021-11-01T21:33:01.699114</dc:date>
      </cc:Work>
    </rdf:RDF>
  </metadata>
  <defs/>
  <g fill="none" id="layer1" inkscape:groupmode="layer" inkscape:label="1" stroke="#00f" style="display:inline">
    <polygon points="321.67,532.945 324.2559,540.6015 331.9124,538.0155 329.3264,530.3591"/>
    <polygon points="332.616,523.7141 315.025,529.6554 320.9663,547.2464 338.5573,541.3051"/>
    <polygon points="301.7351,523.0762 314.3871,560.5363 351.8472,547.8843 339.1952,510.4242"/>
    <polygon points="317.6767,553.8914 345.2022,544.5947 335.9056,517.0692 308.3801,526.3658"/>
    <polygon points="358.4921,551.1739 342.4848,503.7793 295.0902,519.7866 311.0975,567.1813"/>
    <polygon points="384.7623,534.2656 389.2057,559.6919 414.632,555.2485 410.1886,529.8222"/>
    <polygon points="402.4469,540.8427 395.7829,542.0073 396.9474,548.6713 403.6115,547.5068"/>
    <polygon points="406.3178,535.3325 390.2726,538.1365 393.0766,554.1816 409.1217,551.3776"/>
    <polygon points="408.2532,532.5773 387.5175,536.201 391.1411,556.9368 411.8769,553.3131"/>
    <polygon points="406.3666,549.4422 404.3823,538.0876 393.0277,540.0719 395.012,551.4265"/>
    <polygon points="412.075,552.302 393.7348,596.0356 437.4684,614.3758 455.8086,570.6422"/>
    <polygon points="422.978,578.9543 420.3871,585.1326 426.5654,587.7235 429.1563,581.5452"/>
    <polygon points="430.1997,596.6076 438.0404,577.9109 419.3437,570.0702 411.503,588.7669"/>
    <polygon points="446.9245,574.2765 415.7093,561.1861 402.6189,592.4013 433.834,605.4917"/>
    <polygon points="469.7278,577.7986 433.0823,597.0722 452.3559,633.7178 489.0014,614.4442"/>
    <polygon points="477.6552,610.9193 466.203,589.1449 444.4286,600.5971 455.8807,622.3715"/>
    <polygon points="459.4056,611.0252 466.3089,607.3945 462.6781,600.4912 455.7748,604.1219"/>
    <polygon points="441.1027,623.2599 464.6927,567.0079 408.4406,543.4179 384.8507,599.67"/>
    <polygon points="448.831,645.064 500.3477,617.969 473.2527,566.4524 421.736,593.5474"/>
    <polygon points="511.6939,621.4939 476.7775,555.1061 410.3898,590.0225 445.3062,656.4103"/>
    <polygon points="452.686,757.4149 454.9963,769.6819 467.2634,767.3715 464.953,755.1045"/>
    <polygon points="455.7644,759.5175 457.0989,766.6035 464.185,765.2689 462.8504,758.1829"/>
    <polygon points="450.7911,775.8387 473.4201,771.5767 469.1582,748.9477 446.5292,753.2097"/>
    <polygon points="448.6885,778.9171 476.4985,773.6793 471.2608,745.8694 443.4508,751.1071"/>
    <polygon points="470.3417,769.4741 467.0556,752.0261 449.6076,755.3123 452.8937,772.7603"/>
    <polygon points="354.4173,743.8598 329.4158,750.9581 336.5142,775.9596 361.5157,768.8612"/>
    <polygon points="340.9551,757.394 342.95,764.4203 349.9763,762.4254 347.9814,755.3991"/>
    <polygon points="330.0783,787.4989 373.055,775.2971 360.8531,732.3204 317.8765,744.5223"/>
    <polygon points="317.2066,810.5776 396.1336,788.1688 373.7249,709.2418 294.7978,731.6506"/>
    <polygon points="306.3372,738.0864 323.6425,799.0382 384.5943,781.733 367.289,720.7811"/>
    <polygon points="282.0068,470.0076 325.2427,471.6993 326.9344,428.4634 283.6985,426.7718"/>
    <polygon points="291.1977,461.5089 316.7439,462.5084 317.7435,436.9622 292.1973,435.9626"/>
    <polygon points="300.696,445.1535 300.3886,453.0101 308.2452,453.3175 308.5526,445.4609"/>
    <polygon points="312.4946,457.9129 313.148,441.2115 296.4466,440.5581 295.7932,457.2595"/>
    <polygon points="325.2813,424.4532 326.6387,452.0405 354.226,450.6831 352.8686,423.0958"/>
    <polygon points="314.7694,414.9272 317.1127,462.5524 364.7379,460.2091 362.3946,412.584"/>
    <polygon points="287.9479,431.3672 286.6023,465.7582 320.9933,467.1038 322.3389,432.7128"/>
    <polygon points="343.3427,433.6077 335.7932,433.9791 336.1646,441.5287 343.7141,441.1572"/>
    <polygon points="375.2497,469.735 371.9205,402.0721 304.2576,405.4013 307.5868,473.0642"/>
    <polygon points="385.7616,479.261 381.4465,391.5602 293.7457,395.8754 298.0608,483.5761"/>
    <polygon points="412.5842,380.424 453.006,367.0747 439.6567,326.6529 399.2349,340.0022"/>
    <polygon points="410.4114,364.3567 411.5822,313.1129 360.3384,311.9421 359.1675,363.1859"/>
    <polygon points="405.1007,358.7977 406.0231,318.4236 365.6491,317.5012 364.7266,357.8752"/>
    <polygon points="406.7884,343.8052 416.3872,372.8705 445.4525,363.2717 435.8537,334.2064"/>
    <polygon points="421.8954,351.4113 423.9932,357.7635 430.3454,355.6657 428.2476,349.3135"/>
    <polygon points="420.1902,365.317 437.899,359.4687 432.0506,341.7599 414.3419,347.6083"/>
    <polygon points="389.1686,342.1205 389.346,334.3557 381.5812,334.1783 381.4038,341.9431"/>
    <polygon points="376.2705,328.6193 375.8447,347.2538 394.4793,347.6796 394.905,329.045"/>
    <polygon points="400.4641,323.7343 370.9598,323.0602 370.2857,352.5645 399.79,353.2386"/>
    <polygon points="460.5595,370.8777 443.4597,319.0994 391.6814,336.1992 408.7811,387.9775"/>
  </g>
</svg>
