<?xml version="1.0" encoding="utf-8" ?>
<svg xmlns="http://www.w3.org/2000/svg" xmlns:cc="http://creativecommons.org/ns#" xmlns:dc="http://purl.org/dc/elements/1.1/" xmlns:ev="http://www.w3.org/2001/xml-events" xmlns:inkscape="http://www.inkscape.org/namespaces/inkscape" xmlns:rdf="http://www.w3.org/1999/02/22-rdf-syntax-ns#" xmlns:sodipodi="http://sodipodi.sourceforge.net/DTD/sodipodi-0.dtd" xmlns:xlink="http://www.w3.org/1999/xlink" baseProfile="tiny" height="29.7cm" version="1.2" viewBox="0 0 793.7007874015749 1122.5196850393702" width="21.0cm">
  <metadata>
    <rdf:RDF>
      <cc:Work>
        <dc:format>image/svg+xml</dc:format>
        <dc:source/>
        <dc:date>2021-11-01T21:32:23.360532</dc:date>
      </cc:Work>
    </rdf:RDF>
  </metadata>
  <defs/>
  <g fill="none" id="layer1" inkscape:groupmode="layer" inkscape:label="1" stroke="#00f" style="display:inline">
    <polygon points="486.2578,464.0003 485.4668,467.6138 487.1835,470.8903 490.6047,472.2967 494.1295,471.175 496.1087,468.0501 495.6161,464.384 492.8823,461.8923 489.1864,461.7407"/>
    <polygon points="487.4924,456.4174 481.5383,461.0113 479.9301,468.3577 483.4204,475.019 490.3759,477.8784 497.5421,475.598 501.5659,469.2447 500.5645,461.7913 495.0064,456.7254"/>
    <polygon points="476.8188,458.0222 474.3935,469.1016 479.6572,479.1478 490.147,483.4602 500.9547,480.0209 507.0231,470.4393 505.5128,459.1986 497.1305,451.5586 485.7984,451.094"/>
    <polygon points="467.3798,452.0442 463.3201,470.5894 472.1309,487.4053 489.6894,494.6236 507.7798,488.8668 517.9375,472.8285 515.4095,454.0132 501.3787,441.2249 482.4103,440.4472"/>
    <polygon points="463.4834,435.9439 471.6584,428.2782 472.9934,417.1511 466.8637,407.7692 456.1375,404.5223 445.8337,408.9297 440.7735,418.9291 443.3247,429.8417 452.2936,436.5614"/>
    <polygon points="461.3338,430.9184 466.7814,425.8102 467.671,418.3954 463.5863,412.1435 456.4387,409.9799 449.5725,412.9169 446.2005,419.5802 447.9006,426.8521 453.8772,431.3299"/>
    <polygon points="451.6275,420.2313 452.4764,423.8625 455.4608,426.0984 459.1842,425.8929 461.9044,423.3422 462.3486,419.6397 460.309,416.5179 456.7398,415.4375 453.3113,416.904"/>
    <polygon points="438.7489,432.8313 450.71,441.7929 465.633,440.9694 476.5354,430.7462 478.3158,415.9068 470.1411,403.3948 455.8363,399.0646 442.0949,404.9425 435.3465,418.278"/>
    <polygon points="439.0628,434.1099 430.1001,475.0528 449.5519,512.1779 488.3164,528.114 528.2552,515.4045 550.6807,479.9962 545.0995,438.4571 514.1233,410.2238 472.2461,408.5069"/>
    <polygon points="448.5018,440.088 441.1734,473.565 457.0782,503.9204 488.774,516.9506 521.4301,506.5586 539.7663,477.607 535.2029,443.6425 509.8751,420.5575 475.6342,419.1537"/>
    <polygon points="452.2468,472.0772 464.6045,495.6628 489.2317,505.7871 514.605,497.7127 528.8519,475.2178 525.3062,448.8279 505.6269,430.8912 479.0222,429.8005 457.9408,446.0661"/>
    <polygon points="460.8414,499.7916 489.0029,511.3688 518.0175,502.1357 534.3091,476.4124 530.2545,446.2352 507.751,425.7243 477.3282,424.4771 453.2213,443.077 446.7101,472.8211"/>
    <polygon points="489.4605,500.2054 511.1924,493.2898 523.3947,474.0231 520.3578,451.4206 503.5028,436.058 480.7163,435.1238 462.6603,449.0551 457.7835,471.3333 468.3677,491.5341"/>
    <polygon points="512.4803,471.6339 510.4612,456.6059 499.2546,446.3917 484.1043,445.7706 472.0993,455.0332 468.8568,469.8455 475.894,483.2766 489.9182,489.0419 504.3672,484.4439"/>
    <polygon points="540.1512,441.0498 511.9992,415.3906 473.9402,413.8303 443.7823,437.0989 435.6368,474.3089 453.315,508.0491 488.5452,522.5323 524.8427,510.9816 545.2235,478.8016"/>
    <polygon points="554.9962,433.2717 518.3715,399.8901 468.8581,397.8602 429.6238,428.1318 419.0268,476.5406 442.0255,520.4354 487.8587,539.2775 535.0804,524.2504 561.5951,482.3854"/>
    <polygon points="531.6678,519.8274 556.1379,481.1908 550.0479,435.8644 516.2474,405.0569 470.5521,403.1836 434.3433,431.1209 424.5634,475.7967 445.7887,516.3067 488.0875,533.6958"/>
    <polygon points="464.8217,546.2735 466.1548,526.1577 454.2458,509.8913 434.6672,505.0854 416.5798,513.9888 408.4471,532.4355 414.0745,551.7941 430.8287,563.0065 450.8704,560.8262"/>
    <polygon points="447.8602,538.7956 448.3548,531.332 443.9362,525.2966 436.6719,523.5135 429.9609,526.8169 426.9434,533.6613 429.0313,540.8439 435.2477,545.004 442.6838,544.1951"/>
    <polygon points="440.4996,530.4318 437.3401,529.6562 434.4213,531.093 433.1088,534.0698 434.017,537.1938 436.7207,539.0032 439.9549,538.6514 442.2063,536.3029 442.4214,533.0568"/>
    <polygon points="433.7747,551.0048 445.4126,549.7388 453.514,541.2882 454.2881,529.6073 447.3727,520.1615 436.0036,517.3708 425.5005,522.5409 420.778,533.2527 424.0457,544.494"/>
    <polygon points="426.9182,567.239 395.3644,566.6566 370.8185,586.4928 364.7657,617.466 380.0382,645.0835 409.4898,656.4228 439.3398,646.1781 455.6211,619.1429 450.7154,587.9674"/>
    <polygon points="419.4286,596.63 400.0987,599.9727 387.4397,614.9585 387.3751,634.5753 399.935,649.6441 419.2425,653.1142 436.2634,643.3618 443.0335,624.9502 436.3849,606.4943"/>
    <polygon points="413.7399,614.5 415.6482,611.3314 415.0732,607.6776 412.2841,605.2481 408.5859,605.1799 405.7091,607.5047 404.9997,611.1349 406.7896,614.3717 410.2414,615.7007"/>
    <polygon points="410.1475,620.791 416.9399,618.4598 420.6448,612.3079 419.5285,605.2138 414.1133,600.497 406.9332,600.3645 401.3477,604.8782 399.9704,611.9263 403.4457,618.2107"/>
    <polygon points="410.0535,625.8813 420.1399,622.4195 425.6414,613.2843 423.9837,602.75 415.9426,595.7458 405.2805,595.549 396.9864,602.2517 394.9412,612.7177 400.1018,622.0497"/>
    <polygon points="403.7399,628.6799 408.6818,634.6089 416.2785,635.9742 422.9755,632.1371 425.6393,624.8928 423.0233,617.6312 416.3517,613.75 408.7462,615.0652 403.7654,620.9615"/>
    <polygon points="409.7717,641.152 429.7399,634.2988 440.6312,616.2136 437.3495,595.3587 421.4304,581.4924 400.3225,581.1028 383.9025,594.3723 379.8534,615.0918 390.07,633.5666"/>
    <polygon points="415.1203,646.2003 392.3426,674.1188 392.8395,710.1468 416.3785,737.4265 451.9455,743.1934 482.8983,724.749 494.7537,690.7238 481.9645,657.0384 450.5148,639.4547"/>
    <polygon points="423.2218,659.7958 407.2877,679.3261 407.6353,704.5293 424.1019,723.6127 448.9827,727.6469 470.6355,714.7442 478.9289,690.942 469.9822,667.3776 447.9818,655.077"/>
    <polygon points="409.3959,661.5131 442.5398,650.1378 460.6177,620.1194 455.1706,585.5037 428.7474,562.4878 393.7117,561.8411 366.4572,583.8663 359.7365,618.2574 376.6943,648.9225"/>
    <polygon points="409.3019,666.6033 445.7398,654.0976 465.6143,621.0958 459.6259,583.0399 430.5767,557.7367 392.059,557.0257 362.0959,581.2398 354.7072,619.0488 373.3503,652.7615"/>
    <polygon points="394.1038,659.6676 421.2185,664.5408 445.1221,650.8449 454.6297,624.9884 445.2927,599.0697 421.4799,585.2166 394.3337,589.911 376.556,610.9564 376.4652,638.5055"/>
    <polygon points="387.3609,672.383 387.9075,712.0193 413.8041,742.0311 452.9332,748.3756 486.9859,728.084 500.0287,690.651 485.9585,653.592 451.3591,634.2473 412.4199,641.6684"/>
    <polygon points="382.3792,670.6472 382.9756,713.8918 411.2296,746.6358 453.9208,753.5577 491.0735,731.4189 505.3036,690.5783 489.9526,650.1456 452.2034,629.0398 409.7194,637.1365"/>
    <polygon points="366.6625,660.4394 409.114,676.7839 452.1398,662.0171 475.6075,623.0487 468.5364,578.1124 434.2352,548.2344 388.7537,547.3949 353.3732,575.9868 344.6487,620.6316"/>
    <polygon points="376.597,646.3756 392.559,614.5942 384.3578,579.9881 355.831,558.7498 320.3265,560.8171 294.4573,585.2226 290.3278,620.5467 309.8704,650.2608 343.9408,660.4615"/>
    <polygon points="368.4764,637.7679 380.8052,613.2202 374.4707,586.4906 352.4368,570.0864 325.0134,571.6831 305.0322,590.5338 301.8427,617.8178 316.9372,640.7688 343.2529,648.6477"/>
    <polygon points="355.6491,621.7024 349.2491,580.0283 317.5589,552.2178 275.4066,551.2839 242.5157,577.6635 234.2763,619.0132 254.5437,655.9852 293.8345,671.2797 333.7641,657.7404"/>
    <polygon points="350.1002,620.5967 344.2878,582.748 315.5065,557.4904 277.2235,556.6422 247.3518,580.6003 239.8687,618.1544 258.2756,651.7326 293.9598,665.6232 330.2242,653.3266"/>
    <polygon points="357.2978,610.4721 354.6966,599.4958 345.6485,592.7595 334.3872,593.4152 326.1821,601.1561 324.8723,612.3601 331.0708,621.7848 341.8772,625.0202 352.235,620.5525"/>
    <polygon points="344.8095,605.9984 342.2543,604.0961 339.0742,604.2812 336.757,606.4673 336.3871,609.6313 338.1376,612.2928 341.1893,613.2065 344.1144,611.9448 345.5441,609.0981"/>
    <polygon points="334.6042,617.0388 341.5332,619.1133 348.1747,616.2486 351.4209,609.7851 349.753,602.7471 343.9514,598.4278 336.7307,598.8482 331.4696,603.8117 330.6297,610.9957"/>
    <polygon points="320.8946,598.5005 319.1149,613.7245 327.5374,626.5308 342.2211,630.9271 356.2954,624.8563 363.1747,611.1591 359.6401,596.2445 347.3456,587.0912 332.0438,587.9822"/>
    <polygon points="314.5195,599.0664 303.192,589.1257 288.1248,588.7918 276.368,598.2211 273.4229,613.0014 280.6674,626.2169 294.7118,631.6839 308.9845,626.8443 316.8072,613.9627"/>
    <polygon points="310.3197,593.1893 307.6001,616.4534 320.4706,636.0228 342.909,642.7408 364.416,633.464 374.9284,612.5331 369.5272,589.7419 350.7397,575.7547 327.3568,577.1162"/>
    <polygon points="304.5968,604.5059 299.0871,599.6707 291.7585,599.5084 286.0401,604.0947 284.6076,611.2838 288.1313,617.7117 294.9624,620.3708 301.9046,618.0169 305.7095,611.7513"/>
    <polygon points="297.0347,604.9433 293.5754,604.8666 290.8762,607.0315 290.2,610.425 291.8633,613.4591 295.0877,614.7143 298.3646,613.6032 300.1607,610.6457 299.6354,607.2256"/>
    <polygon points="305.4445,622.4306 311.2583,612.857 309.5582,601.7861 301.1396,594.3982 289.9417,594.1501 281.2041,601.1579 279.0153,612.1426 284.3993,621.9643 294.8371,626.0274"/>
    <polygon points="319.6043,640.0855 333.4537,617.2797 329.4037,590.9072 309.3492,573.308 282.6741,572.717 261.8599,589.4107 256.6458,615.5779 269.4715,638.9747 294.3358,648.6535"/>
    <polygon points="344.3839,670.9815 372.2956,625.0194 364.1332,571.8691 323.7162,536.4002 269.9559,535.2091 228.0076,568.8531 217.4992,621.5897 243.3478,668.743 293.4585,688.2493"/>
    <polygon points="355.2178,683.1727 346.3997,697.0318 348.553,713.3167 360.6703,724.4075 377.0817,725.1147 390.1081,715.1074 393.6544,699.0681 386.0612,684.5018 370.8814,678.2242"/>
    <polygon points="370.3508,690.5358 362.7251,692.9449 358.432,699.6921 359.4804,707.6204 365.3796,713.0199 373.3695,713.3642 379.7113,708.4922 381.4378,700.6835 377.7411,693.592"/>
    <polygon points="367.7343,707.3261 371.5133,707.4889 374.5129,705.1846 375.3295,701.4912 373.581,698.1371 370.0856,696.6915 366.4788,697.831 364.4482,701.0223 364.9441,704.7722"/>
    <polygon points="378.0437,715.7643 408.6551,751.2404 454.9084,758.7399 495.1611,734.7538 510.5785,690.5055 493.9467,646.6992 453.0478,623.8324 407.0189,632.6047 377.3975,668.9115"/>
    <polygon points="358.3156,730.1013 378.9378,730.9899 395.3066,718.415 399.7627,698.2604 390.2212,679.9567 371.1466,672.0685 351.4642,678.2866 340.3835,695.7016 343.0894,716.1648"/>
    <polygon points="355.961,735.7951 380.794,736.8652 400.505,721.7226 405.871,697.4527 394.3813,675.4117 371.4119,665.9127 347.7105,673.4005 334.3673,694.3715 337.6257,719.013"/>
    <polygon points="354.0167,710.4685 363.025,718.7137 375.2256,719.2394 384.9097,711.7998 387.5461,699.8758 381.9011,689.0469 370.6161,684.38 358.9715,688.0588 352.4159,698.362"/>
    <polygon points="293.5838,682.5928 340.844,666.5678 366.7467,623.9137 359.1719,574.5888 321.6637,541.6728 271.7728,540.5674 232.8436,571.7899 223.0916,620.7309 247.0798,664.4904"/>
    <polygon points="276.9354,630.4695 294.5864,637.3405 312.5244,631.2581 322.356,615.0683 319.4809,596.3467 305.2444,583.8531 286.3079,583.4336 271.532,595.2843 267.8305,613.8603"/>
    <polygon points="278.813,623.2755 302.8036,659.7528 344.6286,672.2752 384.7177,654.9833 404.3127,615.9682 394.2449,573.4855 359.2251,547.4133 315.6395,549.9511 283.8823,579.9114"/>
    <polygon points="307.2968,578.5806 284.491,578.0753 266.696,592.3475 262.2382,614.7191 273.2035,634.7221 294.4611,642.997 316.0644,635.6718 327.9049,616.174 324.4423,593.6269"/>
    <polygon points="329.7003,582.5492 315.6071,595.8449 313.3575,615.089 324.004,631.2768 342.565,636.834 360.3557,629.1602 369.0515,611.8461 364.5836,592.9932 349.0426,581.4229"/>
    <polygon points="334.365,588.1875 311.4016,568.0355 280.8572,567.3587 257.0239,586.4739 251.0534,616.4367 265.7396,643.2273 294.2104,654.3101 323.1443,644.4992 339.0025,618.3853"/>
    <polygon points="357.7345,578.6133 349.678,619.8402 370.0064,656.6005 409.208,671.6936 448.9398,658.0573 470.6109,622.0723 464.0812,580.5761 432.4059,552.9855 390.4064,552.2103"/>
    <polygon points="379.5411,591.7458 374.8242,615.8832 386.7261,637.4056 409.6777,646.2423 432.9399,638.2586 445.6278,617.1901 441.8048,592.895 423.2596,576.7412 398.6698,576.2874"/>
    <polygon points="388.2638,596.9988 384.8827,614.3004 393.4139,629.7276 409.8656,636.0618 426.5399,630.339 435.6346,615.2372 432.8943,597.8225 419.6011,586.2435 401.9752,585.9182"/>
    <polygon points="386.6821,613.9072 379.4143,583.2393 354.1339,564.4181 322.6699,566.2501 299.7447,587.8782 296.0853,619.1822 313.4038,645.5148 343.5968,654.5546 372.5367,642.0718"/>
    <polygon points="392.8816,616.9595 392.83,632.6101 402.8506,644.6324 418.2545,647.4009 431.8341,639.6202 437.2354,624.9311 431.9311,610.2066 418.403,602.3366 402.9812,605.0036"/>
    <polygon points="405.8637,610.0344 398.3235,618.9605 398.285,630.645 405.7662,639.6206 417.2665,641.6876 427.4048,635.8786 431.4373,624.912 427.4772,613.9189 417.3773,608.0433"/>
    <polygon points="419.8412,624.8737 418.5694,621.3435 415.3261,619.4567 411.6286,620.0961 409.2073,622.9625 409.1949,626.7148 411.5973,629.5972 415.2905,630.2609 418.5462,628.3955"/>
    <polygon points="430.638,614.2607 428.439,600.2863 417.7719,590.9947 403.6278,590.7336 392.6251,599.6252 389.9119,613.5091 396.7578,625.8887 409.9596,630.9715 423.3399,626.3793"/>
    <polygon points="440.8388,602.782 420.4543,590.9233 397.2162,594.9419 381.9978,612.9575 381.9201,636.5404 397.0194,654.6559 420.2305,658.8275 440.6928,647.1034 448.8316,624.9693"/>
    <polygon points="436.1398,642.2183 450.6245,618.1665 446.2601,590.4312 425.0889,571.9901 397.0171,571.472 375.1798,589.1193 369.7949,616.6746 383.3821,641.2446 409.5838,651.3326"/>
    <polygon points="445.4488,670.6993 431.3232,673.3914 422.2328,684.5334 422.4311,698.9118 431.8253,709.7989 446.0198,712.1004 458.3727,704.7394 463.1041,691.1603 458.0,677.7168"/>
    <polygon points="461.9941,674.2704 446.2931,665.4919 428.6227,668.8595 417.2511,682.7976 417.4992,700.7843 429.2509,714.4035 447.0074,717.2825 462.4603,708.0743 468.379,691.0875"/>
    <polygon points="458.1384,690.7276 412.0893,708.0542 387.951,750.9269 397.018,799.2852 435.0478,830.5015 484.2458,829.9696 521.5918,797.9382 529.6111,749.3952 504.5514,707.0545"/>
    <polygon points="447.2792,691.3785 446.0178,688.056 442.9157,686.3216 439.4246,686.987 437.178,689.7407 437.227,693.2943 439.5487,695.985 443.0569,696.5539 446.1099,694.7346"/>
    <polygon points="436.9743,700.5897 444.0445,701.736 450.1975,698.0695 452.5542,691.3058 450.0118,684.6096 443.7601,681.1142 436.7242,682.4551 432.1962,688.0049 432.295,695.1668"/>
    <polygon points="427.2145,686.2692 427.3631,697.0393 434.3998,705.1943 445.0321,706.9182 454.2851,701.4045 457.8291,691.233 454.0059,681.1632 444.6044,675.9068 434.0237,677.9233"/>
    <polygon points="421.5275,728.2173 449.9703,732.8291 474.7231,718.0792 484.2038,690.8693 473.9763,663.9312 448.8261,649.8696 420.5213,655.264 402.306,677.5903 402.7034,706.4018"/>
    <polygon points="450.9579,738.0112 478.8107,721.4141 489.4788,690.7965 477.9704,660.4848 449.6704,644.6621 417.8208,650.7321 397.3243,675.8545 397.7714,708.2743 418.953,732.8219"/>
    <polygon points="448.1448,750.0919 442.5924,759.9537 444.6781,771.0772 453.4258,778.2577 464.7425,778.1353 473.333,770.7674 475.1776,759.6014 469.4133,749.862 458.7372,746.1064"/>
    <polygon points="455.3559,758.4995 453.5207,761.759 454.2101,765.4356 457.1014,767.8089 460.8419,767.7685 463.6812,765.3332 464.2909,761.6426 462.3856,758.4235 458.857,757.1822"/>
    <polygon points="469.7342,760.622 465.8995,754.1427 458.7971,751.6443 451.7504,754.2957 448.0566,760.8564 449.4441,768.2564 455.2636,773.0333 462.7922,772.9519 468.5071,768.0503"/>
    <polygon points="478.1588,773.4845 480.6209,758.5807 472.9271,745.5812 458.6773,740.5685 444.5393,745.8882 437.1283,759.051 439.9121,773.898 451.588,783.4821 466.6929,783.3188"/>
    <polygon points="487.6918,767.9928 466.6565,785.8889 462.0459,813.1193 476.0173,836.9427 502.0334,846.2118 527.921,836.5895 541.5669,812.5782 536.5861,785.413 515.3092,767.8049"/>
    <polygon points="485.652,762.505 461.5664,782.9962 456.2872,814.1752 472.2846,841.4531 502.0732,852.0662 531.7147,841.0487 547.3393,813.5556 541.6363,782.4513 517.2741,762.2899"/>
    <polygon points="497.4624,784.3528 502.3943,754.4983 486.9823,728.4582 458.4378,718.417 430.1171,729.0731 415.2717,755.4403 420.848,785.1812 444.2368,804.3796 474.4942,804.0525"/>
    <polygon points="499.9305,800.9195 497.1967,803.2453 496.5975,806.7842 498.4133,809.8803 501.7944,811.085 505.1588,809.8344 506.9322,806.7139 506.2849,803.1834 503.5197,800.8951"/>
    <polygon points="487.0166,797.4598 485.0803,808.8959 490.9479,818.9011 501.874,822.7939 512.7462,818.7528 518.4771,808.6686 516.3853,797.26 507.4495,789.865 495.8509,789.9439"/>
    <polygon points="470.5935,793.6856 487.8106,778.9186 491.5076,756.5395 479.9547,737.0197 458.5576,729.4928 437.3282,737.4806 426.2,757.2457 430.3801,779.5396 447.9124,793.9309"/>
    <polygon points="456.4764,780.1034 450.5286,815.231 468.552,845.9635 502.1131,857.9207 535.5084,845.5078 553.1118,814.5329 546.6865,779.4895 519.239,756.7748 483.6122,757.0173"/>
    <polygon points="449.7502,788.7065 468.6432,788.5022 482.9847,776.2015 486.0643,757.5601 476.4409,741.3005 458.6174,735.0307 440.9337,741.6844 431.6642,758.1483 435.1461,776.7188"/>
    <polygon points="446.0746,799.1552 472.5439,798.869 492.6365,781.6357 496.951,755.5189 483.4685,732.739 458.4977,723.9549 433.7226,733.2769 420.7359,756.343 425.6141,782.3604"/>
    <polygon points="442.399,809.604 476.4445,809.2359 502.2883,787.0699 507.8377,753.4777 490.4961,724.1775 458.3779,712.8791 426.5115,724.8693 409.8076,754.5376 416.082,788.002"/>
    <polygon points="427.4942,819.4544 453.6213,864.0051 502.2724,881.3386 550.6832,863.3445 576.2016,818.4425 566.8873,767.6426 527.0986,734.7147 475.4531,735.0662 436.1162,768.5325"/>
    <polygon points="406.55,793.6436 438.7234,820.0528 480.3452,819.6027 511.94,792.504 518.7244,751.4365 497.5238,715.616 458.2582,701.8034 419.3004,716.4618 398.8793,752.7323"/>
    <polygon points="461.0866,854.9843 502.1928,869.6297 543.0958,854.4262 564.6567,816.4877 556.7869,773.5661 523.1688,745.7448 479.5327,746.0417 446.2963,774.318 439.0114,817.3427"/>
    <polygon points="479.75,832.4323 501.9936,840.3573 524.1273,832.1303 535.7944,811.6008 531.5359,788.3748 513.3443,773.3199 489.7316,773.4806 471.7465,788.7816 467.8045,812.0635"/>
    <polygon points="483.4826,827.9219 501.9537,834.5028 520.3336,827.6711 530.022,810.6234 526.4857,791.3365 511.3793,778.8349 491.7714,778.9684 476.8366,791.6744 473.5631,811.0076"/>
    <polygon points="512.7046,807.6913 511.3351,800.2217 505.4846,795.38 497.8907,795.4317 492.1067,800.3526 490.8389,807.8401 494.6806,814.3907 501.8342,816.9394 508.9525,814.2936"/>
    <polygon points="524.2495,809.646 521.4355,794.2982 509.4144,784.35 493.8112,784.4562 481.9266,794.5671 479.3217,809.9518 487.2153,823.4115 501.9139,828.6484 516.5399,823.212"/>
    <polygon points="558.8842,815.5103 551.7367,776.5278 521.2039,751.2598 481.5724,751.5295 451.3864,777.2107 444.77,816.2869 464.8193,850.4739 502.1529,863.7752 539.3021,849.967"/>
    <polygon points="570.4291,817.4651 561.8371,770.6043 525.1337,740.2297 477.4929,740.5539 441.2063,771.4252 433.2528,818.3986 457.354,859.4947 502.2326,875.4841 546.8895,858.8854"/>
    <polygon points="494.0099,719.8967 458.3181,707.3413 422.906,720.6655 404.3434,753.635 411.316,790.8228 440.5612,814.8284 478.3948,814.4193 507.1141,789.787 513.281,752.4571"/>
    <polygon points="501.0376,711.3352 458.1983,696.2655 415.6949,712.258 393.4151,751.8296 401.784,796.4644 436.8856,825.2772 482.2955,824.7862 516.7659,795.2211 524.1677,750.4159"/>
    <polygon points="466.5479,711.4093 473.6539,691.0148 465.9881,670.824 447.1374,660.2844 425.9222,664.3277 412.2694,681.0619 412.5673,702.6568 426.6764,719.0081 447.995,722.4647"/>
    <polygon points="481.691,672.5814 491.3327,686.4571 507.6378,690.8889 522.977,683.8032 530.1728,668.5154 525.8584,652.1788 512.0524,642.4376 495.2148,643.8497 483.2242,655.7544"/>
    <polygon points="477.3342,652.982 475.397,674.2436 487.5797,691.7761 508.1818,697.3759 527.5635,688.4228 536.6557,669.1061 531.2043,648.4642 513.7598,636.1557 492.4849,637.94"/>
    <polygon points="500.6747,655.6691 495.0041,661.2991 494.279,669.2569 498.8387,675.819 506.5497,677.9149 513.8039,674.5639 517.207,667.334 515.1666,659.6082 508.6374,655.0013"/>
    <polygon points="503.4046,661.5789 500.894,664.0715 500.573,667.5947 502.5917,670.4999 506.0057,671.4279 509.2174,669.9443 510.724,666.7433 509.8207,663.3228 506.93,661.2832"/>
    <polygon points="523.6899,667.9247 520.5125,655.8935 510.3449,648.7195 497.9447,649.7594 489.1141,658.5268 487.985,670.9191 495.0857,681.138 507.0938,684.4019 518.3904,679.1835"/>
    <polygon points="536.7365,697.6621 549.6216,670.2874 541.896,641.0349 517.1747,623.592 487.0251,626.1205 465.5544,647.4373 462.8091,677.5681 480.0737,702.4142 509.2699,710.3499"/>
    <polygon points="515.4673,629.8739 489.755,632.0303 471.4443,650.2097 469.103,675.9058 483.8267,697.0951 508.7259,703.8629 532.15,693.0424 543.1387,669.6967 536.5501,644.7495"/>
    <polygon points="414.6126,532.8441 419.0601,548.144 432.3017,557.0057 448.1415,555.2825 459.1679,543.7809 460.2215,527.8825 450.8093,515.0264 435.3354,511.2281 421.0402,518.2648"/>
    <polygon points="412.1195,509.7127 402.2817,532.0269 409.0888,555.4442 429.3557,569.0073 453.5992,566.3699 470.4756,548.7662 472.0882,524.433 457.6824,504.7561 433.9989,498.9427"/>
    <polygon points="413.4901,477.2845 438.2624,524.5642 487.6299,544.8592 538.493,528.6733 567.0523,483.5801 559.9445,430.679 520.4956,394.7233 467.164,392.5368 424.9043,425.1428"/>
    <polygon points="352.3811,494.5869 330.4427,490.8926 311.2622,502.1643 303.8145,523.1279 311.5843,543.9743 330.9361,554.9492 352.815,550.9174 366.9835,533.7653 366.8122,511.5187"/>
    <polygon points="333.43,507.1033 323.9707,512.6622 320.2976,523.0009 324.1295,533.2819 333.6733,538.6944 344.4634,536.706 351.451,528.2471 351.3665,517.2756 344.2495,508.9253"/>
    <polygon points="346.218,519.1945 341.5389,513.7047 334.4258,512.5069 328.2068,516.1615 325.792,522.9586 328.3112,529.7177 334.5857,533.2761 341.6796,531.9689 346.2735,526.4076"/>
    <polygon points="338.8957,527.2318 341.096,524.5682 341.0694,521.1135 338.8284,518.4841 335.4215,517.9104 332.443,519.6608 331.2864,522.9163 332.493,526.1536 335.4981,527.8579"/>
    <polygon points="356.6285,530.0865 356.5151,515.3566 346.96,504.1458 332.4342,501.6997 319.7345,509.1629 314.8032,523.0433 319.9477,536.846 332.7609,544.1127 347.2473,541.4431"/>
    <polygon points="317.983,555.3841 289.1698,582.567 284.5704,621.9111 306.337,655.0068 344.2847,666.3683 380.6574,650.6795 398.4358,615.2812 389.3013,576.7368 357.528,553.0816"/>
    <polygon points="310.893,523.1293 342.5504,497.4909 350.3213,457.5017 330.5697,421.8732 292.5375,407.2763 254.0204,420.5411 233.041,455.4608 239.4158,495.6961 270.162,522.4205"/>
    <polygon points="309.3088,523.0856 315.766,540.4101 331.8485,549.5309 350.0311,546.1802 361.806,531.9259 361.6636,513.4377 349.6705,499.3664 331.4385,496.2962 315.4984,505.6636"/>
    <polygon points="308.92,517.4001 337.3563,494.3703 344.3365,458.4499 326.5946,426.4465 292.432,413.3348 257.834,425.2499 238.9892,456.6166 244.7154,492.7581 272.3332,516.7634"/>
    <polygon points="306.9469,511.6708 332.1622,491.2497 338.3517,459.3982 322.6194,431.0199 292.3266,419.3934 261.6476,429.9588 244.9374,457.7725 250.015,489.8202 274.5044,511.1063"/>
    <polygon points="282.8666,521.4458 279.0593,515.4495 272.2884,513.3034 265.7221,516.0116 262.4328,522.3069 263.9596,529.2437 269.5881,533.5762 276.6847,533.2771 281.9287,528.4865"/>
    <polygon points="272.5113,518.5921 269.2924,519.9197 267.6799,523.0058 268.4284,526.4063 271.1876,528.5302 274.6664,528.3836 277.2372,526.0351 277.6969,522.5837 275.8305,519.6442"/>
    <polygon points="257.1858,521.608 259.4909,532.081 267.9887,538.6222 278.703,538.1707 286.6203,530.9378 288.0362,520.308 282.2881,511.2549 272.0656,508.0147 262.1519,512.1034"/>
    <polygon points="266.3893,543.6682 280.7212,543.0642 291.3119,533.3892 293.2059,519.1701 285.5169,507.0602 271.8427,502.7259 258.5817,508.1953 251.9387,520.9091 255.0222,534.9184"/>
    <polygon points="273.5897,545.9256 237.6797,574.7267 228.684,619.872 250.8117,660.2378 293.7091,676.9362 337.3041,662.1541 361.1979,622.808 354.2105,577.3085 319.6113,546.9453"/>
    <polygon points="279.0404,562.0005 252.1878,583.5371 245.4611,617.2956 262.0076,647.48 294.0851,659.9666 326.6842,648.9129 344.5514,619.491 339.3264,585.4677 313.4541,562.7629"/>
    <polygon points="255.3145,486.8822 276.6757,505.4491 304.9738,505.9416 326.968,488.1291 332.3669,460.3464 318.6443,435.5932 292.2212,425.4519 265.4612,434.6677 250.8856,458.9284"/>
    <polygon points="265.9137,481.0063 281.0181,494.1349 301.0277,494.4832 316.5798,481.888 320.3973,462.2428 310.6941,444.7399 292.0103,437.569 273.0883,444.0855 262.782,461.2402"/>
    <polygon points="268.7302,462.3961 271.2132,478.0683 283.1893,488.4778 299.0546,488.7539 311.3856,478.7674 314.4125,463.1911 306.719,449.3132 291.9049,443.6275 276.9019,448.7944"/>
    <polygon points="269.345,452.7815 278.6454,446.5233 281.7472,435.751 277.1991,425.5052 267.1291,420.5799 256.2491,423.2797 249.65,432.3415 250.4196,443.525 258.1978,451.5974"/>
    <polygon points="260.5894,446.7076 268.034,447.4984 274.2452,443.3189 276.3167,436.1247 273.2793,429.2821 266.5541,425.9928 259.288,427.7959 254.8809,433.8477 255.3948,441.3165"/>
    <polygon points="262.981,441.8178 266.723,442.2152 269.845,440.1145 270.8862,436.4984 269.3595,433.059 265.9791,431.4057 262.3269,432.312 260.1117,435.3539 260.37,439.108"/>
    <polygon points="291.7994,449.6861 280.7155,453.5032 274.6783,463.552 276.5128,475.1303 285.3605,482.8207 297.0816,483.0247 306.1915,475.6468 308.4277,464.1393 302.7438,453.8866"/>
    <polygon points="298.7687,458.4599 291.694,455.7446 284.5291,458.2121 280.6265,464.7078 281.8124,472.1924 287.5317,477.1636 295.1085,477.2955 300.9974,472.5262 302.4429,465.0875"/>
    <polygon points="295.8032,469.4057 296.4581,466.0357 294.7936,463.0333 291.5886,461.8032 288.3427,462.921 286.5747,465.8637 287.1119,469.2544 289.703,471.5065 293.1354,471.5663"/>
    <polygon points="326.3821,461.2946 314.6692,440.1666 292.1157,431.5105 269.2747,439.3766 256.8338,460.0843 260.6141,483.9442 278.8469,499.792 303.0008,500.2124 321.7739,485.0086"/>
    <polygon points="329.4469,485.489 307.0261,498.665 298.3201,523.1702 307.4025,547.5384 330.0237,560.3675 355.5988,555.6545 372.1611,535.6047 371.9608,509.5997 355.0916,489.8075"/>
    <polygon points="335.485,382.1661 355.4278,357.0125 354.5365,324.9248 333.2282,300.9171 301.4731,296.2228 274.13,313.0386 263.9929,343.4961 275.8051,373.3438 304.0395,388.6158"/>
    <polygon points="326.1173,366.9337 338.4606,351.3653 337.9089,331.5051 324.7204,316.6459 305.0662,313.7405 288.1426,324.1484 281.8684,342.9995 289.1793,361.4733 306.6546,370.9257"/>
    <polygon points="327.149,347.6005 326.8238,335.892 319.0486,327.1319 307.4615,325.419 297.4843,331.5549 293.7854,342.6685 298.0955,353.5597 308.398,359.1322 319.8721,356.7788"/>
    <polygon points="315.8375,343.8357 315.7387,340.2789 313.3768,337.6178 309.8569,337.0975 306.826,338.9614 305.7024,342.3375 307.0117,345.646 310.1413,347.3388 313.6269,346.6239"/>
    <polygon points="308.6592,331.2582 302.1551,335.2582 299.7439,342.503 302.5536,349.6028 309.2697,353.2355 316.7495,351.7013 321.4933,345.7181 321.2813,338.0855 316.2127,332.3748"/>
    <polygon points="292.8134,327.8516 287.8269,342.834 293.6374,357.5165 307.5263,365.029 322.9947,361.8563 332.8048,349.4829 332.3663,333.6986 321.8845,321.8889 306.2638,319.5798"/>
    <polygon points="252.0759,343.8271 266.8889,381.2575 302.2962,400.4092 341.7302,392.321 366.7394,360.7773 365.6216,320.5379 338.9,290.4311 299.0778,284.5444 264.7883,305.6321"/>
    <polygon points="305.7829,376.8224 329.2398,372.0112 344.1163,353.2477 343.4514,329.3117 327.5563,311.403 303.8685,307.9013 283.4717,320.4451 275.9099,343.165 284.7212,365.4302"/>
    <polygon points="304.9112,382.7191 332.3624,377.0886 349.7721,355.1301 348.994,327.1182 330.3922,306.16 302.6708,302.0621 278.8008,316.7419 269.9514,343.3305 280.2632,369.387"/>
    <polygon points="372.3951,362.6597 371.1642,318.3444 341.7359,285.1882 297.8801,278.7051 260.1174,301.9288 246.1174,343.9926 262.4308,385.2143 301.4245,406.3059 344.8528,397.3984"/>
    <polygon points="405.0991,373.4468 417.5091,395.7454 441.3489,404.8501 465.4636,396.5009 478.5698,374.6043 474.5348,349.406 455.2468,332.6966 429.7307,332.2947 409.9258,348.3882"/>
    <polygon points="421.0346,391.6758 441.4337,399.4665 462.0681,392.3222 473.2827,373.5859 469.8301,352.0244 453.3257,337.7266 431.4923,337.3826 414.5458,351.1534 410.4157,372.5955"/>
    <polygon points="441.8577,372.5483 445.0903,371.4291 446.8471,368.494 446.3062,365.1162 443.7207,362.8764 440.3003,362.8225 437.6456,364.9798 436.9986,368.3388 438.6621,371.3279"/>
    <polygon points="452.3693,366.9067 462.3276,373.283 474.0546,371.7664 482.0632,363.0667 482.6062,351.2545 475.4293,341.8568 463.8908,339.271 453.3897,344.7069 448.8395,355.6211"/>
    <polygon points="445.6417,357.8464 438.5387,357.7345 433.0256,362.2145 431.682,369.1902 435.1366,375.3975 441.7729,377.932 448.4858,375.6078 452.1342,369.5123 451.011,362.4978"/>
    <polygon points="447.5627,352.8165 436.7771,352.6465 428.4056,359.4492 426.3654,370.0415 431.6111,379.4671 441.6881,383.3156 451.8814,379.7864 457.4213,370.5307 455.7158,359.8795"/>
    <polygon points="461.1291,356.186 462.1468,359.4397 465.0179,361.2781 468.399,360.8409 470.708,358.3326 470.8645,354.927 468.7953,352.2175 465.4686,351.472 462.441,353.0393"/>
    <polygon points="465.1253,354.6427 451.4047,342.7565 433.2539,342.4706 419.1657,353.9187 415.7323,371.7442 424.5601,387.6062 441.5185,394.0829 458.6725,388.1436 467.9956,372.5675"/>
    <polygon points="476.3856,360.6997 476.7353,353.0908 472.1123,347.0372 464.6797,345.3715 457.9153,348.8731 454.9843,355.9035 457.2581,363.1732 463.6727,367.2805 471.2268,366.3037"/>
    <polygon points="455.2769,383.965 462.7085,371.5491 460.4205,357.2611 449.4837,347.7865 435.0155,347.5586 423.7857,356.684 421.0488,370.8928 428.0856,383.5366 441.6033,388.6992"/>
    <polygon points="430.0718,324.5628 455.8506,315.063 469.4919,291.2155 464.6128,264.1788 443.4964,246.6037 416.0232,246.7137 395.0483,264.4574 390.3859,291.5324 404.2178,315.2698"/>
    <polygon points="430.0257,313.0384 448.4074,306.2645 458.1345,289.2598 454.6555,269.981 439.5982,257.4489 420.0082,257.5273 405.0518,270.1797 401.7273,289.4857 411.5902,306.4119"/>
    <polygon points="429.9795,301.514 440.9643,297.4659 446.7772,287.3041 444.6981,275.7832 435.7,268.2941 423.9931,268.341 415.0553,275.9019 413.0686,287.4391 418.9626,297.5541"/>
    <polygon points="444.6859,301.8652 452.4558,288.2819 449.6768,272.8821 437.6491,262.8715 422.0007,262.9342 410.0535,273.0408 407.3979,288.4624 415.2764,301.983 430.0026,307.2762"/>
    <polygon points="431.8018,279.1393 427.9781,279.1546 425.0588,281.6241 424.4099,285.3924 426.335,288.6962 429.9334,289.9896 433.5212,288.6674 435.4198,285.3483 434.7407,281.5854"/>
    <polygon points="433.7509,273.7167 425.9856,273.7478 420.0571,278.763 418.7393,286.4157 422.6488,293.1251 429.9564,295.7518 437.2428,293.0667 441.0985,286.3262 439.7194,278.6843"/>
    <polygon points="445.4455,241.1811 414.0307,241.3069 390.0465,261.5963 384.7153,292.5557 400.5316,319.6988 430.0949,330.325 459.5721,319.4623 475.1705,292.1934 469.5915,261.2777"/>
    <polygon points="407.904,310.8409 430.0488,318.8006 452.129,310.6638 463.8132,290.2377 459.6342,267.0799 441.5473,252.0263 418.0157,252.1205 400.05,267.3186 396.0566,290.509"/>
    <polygon points="336.0641,295.6741 300.2755,290.3836 269.4591,309.3353 258.0344,343.6616 271.347,377.3007 303.1678,394.5125 338.6076,387.2435 361.0836,358.8949 360.0791,322.7313"/>
    <polygon points="518.024,319.6126 533.0441,313.8353 540.8367,299.7548 537.7553,283.9596 525.2419,273.8404 509.1516,274.1322 497.0132,284.6983 494.5065,300.5948 502.8043,314.3835"/>
    <polygon points="529.0323,309.2265 534.8009,298.803 532.5199,287.1102 523.2565,279.6192 511.3452,279.8351 502.3594,287.657 500.5037,299.4248 506.6464,309.6323 517.9132,313.5033"/>
    <polygon points="525.0205,304.6177 528.7652,297.8512 527.2845,290.2607 521.2711,285.3979 513.5388,285.5381 507.7056,290.6157 506.501,298.2549 510.4885,304.8812 517.8025,307.394"/>
    <polygon points="522.0491,293.4113 519.2857,291.1766 515.7324,291.241 513.0518,293.5744 512.4982,297.0849 514.3306,300.13 517.6917,301.2847 521.0087,300.0089 522.7295,296.8994"/>
    <polygon points="323.8162,828.4344 306.6444,821.8714 289.2714,827.8817 279.8263,843.6531 282.7285,861.8058 296.6201,873.8461 315.001,874.1401 329.2706,862.5503 332.752,844.4997"/>
    <polygon points="316.3842,847.1166 312.9598,840.96 306.3792,838.445 299.7216,840.7483 296.102,846.7921 297.2142,853.7486 302.5377,858.3627 309.5816,858.4754 315.05,854.0339"/>
    <polygon points="319.7902,856.8727 321.8401,846.2443 316.5786,836.7848 306.4676,832.9205 296.2382,836.4594 290.6768,845.7458 292.3856,856.4343 300.5652,863.5238 311.3881,863.6969"/>
    <polygon points="303.205,845.0371 301.5273,847.8385 302.0428,851.0629 304.5103,853.2015 307.7752,853.2538 310.3098,851.1951 310.9282,847.9889 309.341,845.1353 306.2908,843.9695"/>
    <polygon points="285.2515,844.6994 287.5571,859.1201 298.5926,868.6849 313.1945,868.9185 324.5304,859.7115 327.2961,845.372 320.1974,832.6096 306.556,827.3959 292.7548,832.1706"/>
  </g>
</svg>
