<?xml version="1.0" encoding="utf-8" ?>
<svg xmlns="http://www.w3.org/2000/svg" xmlns:cc="http://creativecommons.org/ns#" xmlns:dc="http://purl.org/dc/elements/1.1/" xmlns:ev="http://www.w3.org/2001/xml-events" xmlns:inkscape="http://www.inkscape.org/namespaces/inkscape" xmlns:rdf="http://www.w3.org/1999/02/22-rdf-syntax-ns#" xmlns:sodipodi="http://sodipodi.sourceforge.net/DTD/sodipodi-0.dtd" xmlns:xlink="http://www.w3.org/1999/xlink" baseProfile="tiny" height="29.7cm" version="1.2" viewBox="0 0 793.7007874015749 1122.5196850393702" width="21.0cm">
  <metadata>
    <rdf:RDF>
      <cc:Work>
        <dc:format>image/svg+xml</dc:format>
        <dc:source/>
        <dc:date>2021-11-01T21:31:44.213666</dc:date>
      </cc:Work>
    </rdf:RDF>
  </metadata>
  <defs/>
  <g fill="none" id="layer1" inkscape:groupmode="layer" inkscape:label="1" stroke="#00f" style="display:inline">
    <polygon points="432.0914,510.8854 440.2052,501.9288 448.8822,494.0684 458.2802,487.0862 468.644,480.8695 479.2286,475.8653 490.2485,471.9108 501.5998,469.0432 513.1757,467.2896 525.2448,466.6653 536.9398,467.2151 548.8972,468.9691 560.2574,471.8011 571.2896,475.7211 581.8898,480.6922 592.273,486.8763 601.9853,494.0684 610.6623,501.9288 618.5363,510.5935 625.7436,520.2945 631.7661,530.3346 636.9316,541.2604 640.8689,552.2864 643.7187,563.6422 645.4541,575.2208 646.0595,587.2909 645.4541,599.3611 643.7187,610.9397 640.8689,622.2955 636.7869,633.6705 631.7661,644.2473 625.7436,654.2874 618.5363,663.9884 610.6623,672.653 601.9853,680.5135 592.273,687.7056 582.2234,693.7123 571.6389,698.7166 560.619,702.6711 549.2677,705.5387 537.6918,707.2923 525.6226,707.9166 513.5516,707.3301 501.9703,705.6128 490.61,702.7808 479.2286,698.7166 468.644,693.7123 458.5944,687.7056 448.8822,680.5135 440.2052,672.653 432.0914,663.6964 425.1239,654.2874 419.1014,644.2473 413.9359,633.3215 409.9986,622.2955 407.1488,610.9397 405.4133,599.3611 404.8079,587.2909 405.3761,575.5968 407.1488,563.6422 409.9986,552.2864 413.9359,541.2604 419.1014,530.3346 425.1239,520.2945"/>
    <polygon points="455.0057,520.137 447.2303,524.7941 438.6942,528.8268 430.1588,531.8753 421.37,534.0892 412.0331,535.4855 402.981,535.9399 393.5512,535.4855 384.5849,534.1629 375.4255,531.8753 366.8901,528.8268 358.354,524.7941 350.5786,520.137 342.9947,514.5146 336.2788,508.4284 330.1791,501.7247 324.5415,494.1521 319.8688,486.386 315.819,477.858 312.7533,469.3288 310.4474,460.174 309.1068,451.2103 308.6335,441.7815 309.1068,432.3526 310.4474,423.3889 312.7533,414.2341 315.819,405.7049 319.8688,397.1769 324.5415,389.4108 330.1791,381.8382 336.2788,375.1345 342.9947,369.0483 350.2647,363.636 358.0213,358.9478 366.5412,354.8809 375.4255,351.6876 384.2143,349.4738 393.5512,348.0774 402.6033,347.623 412.0331,348.0774 420.9995,349.4 429.7971,351.5785 438.6942,354.7361 446.8968,358.5912 455.0057,363.4259 462.2973,368.809 469.3055,375.1345 475.6451,382.13 481.0428,389.4108 485.7155,397.1769 489.7653,405.7049 492.9408,414.5956 495.1369,423.3889 496.4775,432.3526 496.9508,441.7815 496.4775,451.2103 495.1369,460.174 492.9408,468.9674 489.7653,477.858 485.7155,486.386 481.0428,494.1521 475.4052,501.7247 469.3055,508.4284 462.5896,514.5146"/>
    <polygon points="441.2637,534.0429 432.024,537.373 422.5021,539.7802 412.7898,541.2414 402.9811,541.7425 393.1705,541.2785 383.4529,539.854 373.9219,537.4828 364.6696,534.1877 355.7854,530.0005 347.3549,524.9617 339.4596,519.1199 332.1758,512.5315 325.5736,505.26 319.7169,497.3758 314.6621,488.9549 310.4582,480.0786 307.1456,470.8326 304.7563,461.3061 303.3135,451.5911 302.831,441.7815 303.2771,432.3479 304.6832,422.6276 307.0364,413.0922 310.314,403.8337 314.4844,394.9415 319.5073,386.5016 325.3342,378.5953 331.9088,371.2989 339.1677,364.683 347.0409,358.8114 355.4522,353.7407 364.3206,349.52 373.5603,346.1899 383.0823,343.7827 392.7945,342.3215 402.6032,341.8205 412.4138,342.2844 422.1314,343.7089 431.6624,346.0801 440.9147,349.3752 449.7989,353.5624 458.2294,358.6012 466.1247,364.443 473.4085,371.0315 480.0107,378.3029 485.8674,386.1871 490.9222,394.608 495.1262,403.4843 498.4387,412.7304 500.828,422.2568 502.2708,431.9718 502.7533,441.7815 502.2708,451.5911 500.828,461.3061 498.4387,470.8326 495.1262,480.0786 490.9222,488.9549 485.8674,497.3758 480.0107,505.26 473.6755,512.264 466.4166,518.8799 458.5434,524.7515 450.1321,529.8222"/>
    <polygon points="406.4997,574.5583 414.0032,570.9869 421.8174,568.1591 430.239,566.0264 438.4573,564.7943 446.7562,564.364 455.0578,564.7394 463.284,565.9171 471.7196,567.9941 479.5522,570.7702 487.0792,574.2918 494.5447,578.7347 501.2298,583.671 507.4053,589.2315 513.0134,595.364 518.0011,602.0108 522.5014,609.4418 526.0811,616.9414 529.0284,625.1136 531.0595,633.1717 532.338,641.7646 532.7409,650.0649 532.338,658.3652 531.1331,666.5874 529.0284,675.0161 526.2263,682.8395 522.5014,690.6879 518.2123,697.8056 513.2539,704.4743 507.673,710.6315 501.522,716.2192 494.8587,721.1849 487.4129,725.6606 479.9015,729.2155 472.0812,732.0261 463.6548,734.1402 455.4339,735.3541 447.1341,735.7662 438.8333,735.3724 430.6097,734.1766 422.5406,732.1899 414.3522,729.2877 406.4997,725.5714 399.3774,721.2901 392.7032,716.3391 386.5399,710.765 380.9454,704.6202 375.9723,697.9624 371.6675,690.8542 367.9253,683.014 365.106,675.1968 362.9827,666.7728 361.7596,658.5532 361.3384,650.2538 361.723,641.9526 362.9098,633.7277 364.8876,625.6565 367.7808,617.4649 371.4884,609.6083 375.7618,602.4812 380.7055,595.8016 386.2728,589.6321 392.4115,584.0309 399.3774,578.8396"/>
    <polygon points="415.7738,624.1936 406.3766,613.8493 398.2605,602.939 391.0549,590.9645 385.0709,578.335 380.4773,565.5364 377.0642,551.9842 375.0104,538.1605 374.3361,524.5793 375.0104,510.6202 376.9907,497.1672 380.2585,483.9677 384.9267,470.795 390.6996,458.4833 397.8409,446.4702 406.1371,435.2237 415.5065,424.8542 425.8571,415.464 437.0869,407.1452 449.0856,399.9797 461.3857,394.1821 474.1873,389.597 487.7419,386.1931 501.1908,384.1857 515.1486,383.4833 529.1072,384.167 542.5589,386.1563 556.118,389.5421 569.2749,394.2544 581.5672,400.0686 593.5563,407.2501 604.4829,415.3442 614.846,424.7206 624.2293,435.0775 632.5406,446.3129 639.698,458.3163 645.4874,470.6203 650.1732,483.7867 653.4587,496.9818 655.4571,510.4322 656.1501,524.3904 655.4571,538.3486 653.4587,551.7989 650.1732,564.994 645.4874,578.1604 639.5204,590.7979 632.5406,602.4678 624.2293,613.7033 614.846,624.0601 604.775,633.1968 593.5563,641.5306 581.9004,648.5339 569.2749,654.5263 556.118,659.2386 542.5589,662.6244 529.1072,664.6137 515.1486,665.2974 501.1908,664.595 487.7419,662.5877 474.1873,659.1837 461.3857,654.5986 448.7522,648.6231 437.0869,641.6355 426.1495,633.5561"/>
    <polygon points="401.0922,638.6748 395.6181,632.9316 390.4325,626.9266 385.5481,620.6742 380.9767,614.1895 376.7291,607.4881 372.8158,600.5863 369.246,593.5006 366.0286,586.2481 363.1711,578.8465 360.6805,571.3134 358.5628,563.6671 356.8232,555.9261 355.4658,548.109 354.4938,540.2346 353.9097,532.3221 353.7149,524.3904 353.9097,516.4586 354.4938,508.5461 355.4658,500.6717 356.8232,492.8546 358.5628,485.1136 360.6805,477.4673 363.1711,469.9342 366.0286,462.5326 369.246,455.2801 372.8158,448.1944 376.7291,441.2926 380.9767,434.5912 385.5481,428.1065 390.4325,421.8541 400.8252,410.3733 406.5619,404.8924 412.5609,399.6999 418.8076,394.8082 425.2869,390.2291 431.9833,385.9737 438.8806,382.0523 445.9621,378.4743 453.2108,375.2483 460.6091,372.3822 468.1392,369.8828 475.783,367.7562 483.522,366.0075 491.3376,364.6409 499.2108,363.6598 507.1226,363.0664 515.0541,362.8623 522.986,363.0479 530.8993,363.6227 538.7748,364.5855 546.5935,365.9337 554.3365,367.6643 561.9853,369.773 569.5212,372.2548 576.9263,375.1036 584.1825,378.3126 591.2723,381.874 598.1787,385.7793 604.8851,390.019 611.3751,394.5829 617.6333,399.46 623.6443,404.6385 629.3939,410.1059 634.868,415.8491 640.0536,421.8541 644.9379,428.1065 649.5094,434.5912 653.757,441.2926 657.6703,448.1944 661.24,455.2801 664.4575,462.5326 667.315,469.9342 669.8056,477.4673 671.9232,485.1136 673.6629,492.8546 675.0203,500.6717 675.9922,508.5461 676.5764,516.4586 676.7712,524.3904 676.5764,532.3221 675.9922,540.2346 675.0203,548.109 673.6629,555.9261 671.9232,563.6671 669.8056,571.3134 667.315,578.8465 664.4575,586.2481 661.24,593.5006 657.6703,600.5863 653.757,607.4881 649.5094,614.1895 640.2931,626.6344 635.1216,632.6515 629.6609,638.4075 623.9242,643.8883 617.9252,649.0809 611.6785,653.9726 605.1992,658.5516 598.5028,662.807 591.6055,666.7284 584.524,670.3064 577.2753,673.5324 569.877,676.3985 562.3468,678.8979 554.703,681.0245 546.9641,682.7732 539.1485,684.1398 531.2753,685.1209 523.3634,685.7143 515.432,685.9184 507.5,685.7328 499.5868,685.158 491.7113,684.1953 483.8926,682.847 476.1495,681.1164 468.5008,679.0077 460.9648,676.5259 453.5598,673.6771 446.3036,670.4681 439.2138,666.9067 432.3073,663.0014 425.601,658.7617 419.1109,654.1978 412.8528,649.3207 406.8417,644.1422"/>
    <polygon points="367.4353,642.1415 368.5379,634.6667 370.449,626.9671 373.1133,619.4948 376.5047,612.323 380.38,605.8368 385.0883,599.452 390.406,593.5649 395.989,588.4739 402.3403,583.7204 409.1312,579.6193 416.2949,576.2111 423.761,573.5291 431.456,571.5998 439.3042,570.4421 446.8506,570.0675 454.7749,570.4421 462.6232,571.5998 469.9564,573.42 477.435,576.0666 484.6147,579.441 491.425,583.5099 497.7987,588.2334 503.6732,593.5649 508.9908,599.452 513.6992,605.8368 517.5745,612.323 520.9658,619.4948 523.6302,626.9671 525.5413,634.6667 526.6804,642.5176 527.0372,650.0649 526.6439,657.9883 525.5413,665.4631 523.6302,673.1626 520.9658,680.635 517.5745,687.8067 513.4895,694.6073 508.9908,700.6778 503.6732,706.5649 497.7987,711.8964 491.425,716.6198 484.6147,720.6887 477.7842,723.9187 470.6795,726.4899 462.9937,728.4555 455.151,729.6502 447.2286,730.0623 439.3042,729.6877 431.456,728.53 424.1228,726.7098 416.6442,724.0631 409.4644,720.6887 402.6542,716.6198 396.2805,711.8964 390.406,706.5649 385.0883,700.6778 380.38,694.2929 376.3272,687.4731 373.1133,680.635 370.449,673.1626 368.5379,665.4631 367.4353,657.9883 367.042,650.0649"/>
    <polygon points="406.0637,691.6194 397.0637,690.5155 388.5018,689.0306 379.6556,687.0396 371.2831,684.713 363.0335,681.9824 354.9264,678.8541 346.9808,675.3356 338.8824,671.2571 331.3249,666.968 323.9847,662.3168 316.5759,657.0891 309.7332,651.7329 303.1588,646.0505 296.8683,640.0554 290.8766,633.7617 285.1977,627.1844 279.8451,620.3388 274.6213,612.9272 269.78,605.2604 265.5109,597.6916 261.6146,589.9243 258.1003,581.9769 254.9763,573.8681 252.2501,565.6171 249.8362,556.8768 247.9416,548.3961 246.4612,539.8334 245.3987,531.2089 244.7566,522.5429 244.5362,513.8559 244.7382,505.1685 245.3621,496.5012 246.4063,487.8744 247.8686,479.3086 249.8362,470.4572 252.1406,462.0786 254.8495,453.8218 257.9563,445.7064 261.6146,437.4097 265.5109,429.6424 269.78,422.0736 274.4119,414.7212 279.3955,407.6026 284.7191,400.7345 290.623,393.8524 296.6015,387.5461 302.8793,381.5377 309.4417,375.8415 316.2731,370.4708 323.6708,365.2275 331.0011,360.5608 338.8824,356.0769 346.6393,352.1601 354.5774,348.6248 362.6779,345.4794 371.2831,342.621 379.6556,340.2944 388.1312,338.3774 396.69,336.8744 405.3117,335.7891 413.976,335.1241 423.0402,334.8798 432.1051,335.0953 440.7714,335.7329 449.3965,336.7909 457.96,338.2667 466.8083,340.2483 475.1833,342.5661 483.4357,345.288 491.5461,348.4077 499.4954,351.9178 507.2647,355.81 514.8358,360.0751 522.5052,364.9123 529.616,369.9072 536.4756,375.2417 543.068,380.9032 549.6451,387.145 555.6436,393.4324 561.5693,400.2956 566.9147,407.1468 571.9208,414.2497 576.5759,421.5873 581.0473,429.4757 584.9518,437.2388 588.4745,445.1825 591.6071,453.288 594.3421,461.5361 596.7652,470.2739 598.6688,478.7525 600.2134,487.6875 601.2668,496.3132 601.8998,504.9798 602.111,513.667 601.8998,522.3542 601.2668,531.0208 600.2134,539.6465 598.6688,548.5814 596.7652,557.0601 594.4519,565.4363 591.7343,573.6902 588.4745,582.1514 584.9518,590.0951 581.0473,597.8583 576.7702,605.4226 572.1306,612.7701 567.1395,619.8835 561.8086,626.7459 556.1506,633.3413 549.9123,639.9217 543.6281,645.9235 537.0597,651.6128 529.9196,657.2018 522.8194,662.2117 515.4842,666.8707 507.9312,671.1678 500.1784,675.0928 491.8953,678.7817 483.7914,681.9186 475.5448,684.6579 466.8083,687.0857 458.3306,688.9937 449.3965,690.5431 440.7714,691.6011 432.1051,692.2387 423.418,692.4544 414.7307,692.2478"/>
    <polygon points="411.8045,704.5725 407.2286,709.5986 402.1773,714.1467 396.7005,718.1722 390.8518,721.6355 385.0385,724.3593 378.6344,726.637 372.0362,728.2693 365.6848,729.2036 358.896,729.5406 352.1073,729.2036 345.3853,728.1958 338.7962,726.5272 332.7535,724.3593 326.6065,721.4584 320.777,717.963 315.3224,713.9074 310.2963,709.3315 305.7482,704.2802 301.9319,699.1179 298.4365,693.2884 295.5356,687.1414 293.3677,681.0988 291.6991,674.5096 290.6913,667.7877 290.3543,660.9989 290.6913,654.2102 291.6991,647.4882 293.3677,640.899 295.5356,634.8564 298.4365,628.7094 301.9319,622.8799 305.9875,617.4253 310.5634,612.3992 315.6147,607.8511 320.777,604.0348 326.6065,600.5394 332.7535,597.6385 339.1576,595.3608 345.3853,593.802 352.1073,592.7942 358.896,592.4572 365.6848,592.7942 372.4068,593.802 378.6344,595.3608 385.0385,597.6385 391.1855,600.5394 397.015,604.0348 402.1773,607.8511 407.2286,612.3992 411.8045,617.4253 415.8601,622.8799 419.3555,628.7094 422.2564,634.8564 424.4243,640.899 426.0929,647.4882 427.1007,654.2102 427.4377,660.9989 427.1371,667.4116 426.1664,674.1391 424.5341,680.7373 422.2564,687.1414 419.3555,693.2884 415.8601,699.1179"/>
    <polygon points="413.5964,713.4136 403.7982,712.6948 394.0471,711.4957 384.3667,709.8192 374.7803,707.6692 365.311,705.051 355.9818,701.971 346.8151,698.4365 337.833,694.456 329.0573,690.0393 320.5091,685.1969 312.209,679.9404 304.1771,674.2828 296.4327,668.2374 288.9946,661.819 281.8806,655.0431 275.1081,647.926 268.6932,640.4848 262.6515,632.7376 256.9976,624.703 251.7451,616.4004 246.9068,607.8499 242.6559,599.4137 238.6627,590.4372 235.1152,581.2756 232.0219,571.9507 229.3903,562.4852 227.2268,552.9018 225.5365,543.2238 224.3236,533.4744 223.591,523.6773 223.3404,513.8559 223.5546,504.4116 224.2502,494.6118 225.4262,484.8579 227.0799,475.1735 229.2072,465.5821 231.803,456.1067 234.861,446.7702 238.3739,437.5952 242.3331,428.6038 246.7291,419.8176 251.5513,411.258 256.7881,402.9455 262.4268,394.9002 268.4538,387.1416 274.8546,379.6883 281.6137,372.5584 288.7148,365.769 296.1408,359.3366 303.8738,353.2767 311.895,347.6038 320.1851,342.3317 328.7242,337.4732 337.4916,333.0398 346.4661,329.0424 355.6261,325.4906 364.9495,322.3929 374.4138,319.7569 383.9961,317.5888 393.6733,315.894 403.4221,314.6764 413.2189,313.9392 423.0401,313.6839 432.862,313.9113 442.6609,314.6208 452.4131,315.8107 462.0951,317.4781 471.6835,319.619 481.1552,322.2282 490.4874,325.2994 499.6574,328.8253 508.6432,332.7973 517.4231,337.2057 525.9759,342.0401 534.281,347.2886 542.3182,352.9387 550.0683,358.9767 557.5125,365.3881 564.6328,372.1573 571.4121,379.268 577.834,386.7031 583.883,394.4446 589.5445,402.4739 594.8048,410.7715 599.6513,419.3174 604.0722,428.0911 608.0569,437.0713 611.5957,446.2363 614.6802,455.5641 617.3028,465.0321 619.4573,474.6174 621.1384,484.2971 622.3421,494.0476 623.0655,503.8454 623.3068,513.667 623.0655,523.4886 622.3421,533.2864 621.1384,543.0369 619.4573,552.7165 617.3028,562.3019 614.6802,571.7699 611.5957,581.0977 608.0569,590.2627 604.0722,599.2429 599.6513,608.0166 594.8048,616.5625 589.5445,624.8601 583.883,632.8894 577.834,640.6309 571.4121,648.066 564.6328,655.1767 557.5125,661.9459 550.0683,668.3572 542.3182,674.3953 534.281,680.0454 525.9759,685.2939 517.4231,690.1283 508.6432,694.5367 499.6574,698.5087 490.4874,702.0345 481.1552,705.1058 471.6835,707.715 462.0951,709.8559 452.4131,711.5233 442.6609,712.7132 433.2395,713.4043 423.418,713.6502"/>
    <polygon points="396.0351,741.0713 402.4797,727.4074 410.2365,714.4433 419.2304,702.3048 429.3742,691.1093 440.5696,680.9655 452.7082,671.9716 465.6722,664.2148 478.987,657.9149 493.2059,652.81 507.8577,649.128 522.8006,646.9043 537.8897,646.1607 552.9788,646.9043 567.9217,649.128 582.5736,652.81 596.7924,657.9149 610.4404,664.3931 623.3853,672.1818 635.2098,680.9655 646.4053,691.1093 656.3091,702.0129 665.3329,714.1293 673.1216,727.0742 679.5997,740.7222 684.7046,754.941 688.3867,769.5929 690.6103,784.5358 691.3539,799.6249 690.6103,814.714 688.3867,829.6569 684.7046,844.3088 679.5997,858.5276 673.1216,872.1756 665.543,884.8065 656.5491,896.945 646.4053,908.1404 635.2098,918.2842 623.0713,927.2781 610.1072,935.0349 596.7924,941.3349 582.5736,946.4397 567.9217,950.1218 552.9788,952.3454 537.8897,953.089 522.8006,952.3454 507.8577,950.1218 493.2059,946.4397 478.987,941.3349 465.339,934.8567 452.3941,927.068 440.2778,918.0443 429.3742,908.1404 419.4703,897.2369 410.4466,885.1205 402.6579,872.1756 396.1797,858.5276 391.0749,844.3088 387.3928,829.6569 385.1692,814.714 384.4256,799.6249 385.1692,784.5358 387.3193,769.9635 390.9653,755.3026"/>
    <polygon points="447.0396,741.4699 437.9863,741.0205 429.3927,739.7503 420.5965,737.5614 412.0604,734.5122 403.8683,730.6324 396.1007,725.9603 389.1259,720.7818 382.4064,714.698 376.3226,707.9786 370.9343,700.6896 366.4721,693.2362 362.5923,685.0441 359.543,676.508 357.4279,668.0824 356.084,659.1181 355.6345,650.0649 356.0473,641.3877 357.3542,632.418 359.543,623.6218 362.5923,615.0857 366.4721,606.8935 371.1442,599.126 376.3226,592.1512 382.4064,585.4317 388.8341,579.5879 396.1007,574.1695 403.8683,569.4974 412.0604,565.6176 420.5965,562.5683 429.3927,560.3795 438.3624,559.0726 447.0396,558.6598 455.7168,559.0726 464.6865,560.3795 473.4827,562.5683 482.0188,565.6176 490.2109,569.4974 497.9785,574.1695 505.2451,579.5879 511.6727,585.4317 517.5165,591.8593 522.935,599.126 527.6071,606.8935 531.4869,615.0857 534.5362,623.6218 536.6513,632.0474 537.9952,641.0116 538.4447,650.0649 537.9952,659.1181 536.6513,668.0824 534.5362,676.508 531.4869,685.0441 527.6071,693.2362 522.935,701.0038 517.5165,708.2704 511.6727,714.698 504.9533,720.7818 497.9785,725.9603 490.2109,730.6324 482.0188,734.5122 473.4827,737.5614 464.6865,739.7503 456.0929,741.0205"/>
    <polygon points="453.013,723.3068 440.0396,715.5599 427.8874,706.5796 416.6732,696.4523 406.5047,685.2754 397.4798,673.1563 389.6852,660.2116 383.196,646.5657 378.0744,632.3498 375.9502,624.7042 374.2956,617.3301 372.0802,602.3831 371.3394,587.2909 372.0802,572.1988 374.2956,557.2518 377.9643,542.5936 383.051,528.3652 389.5068,514.7034 397.2696,501.7396 406.2648,489.5984 416.4058,478.3966 427.5952,468.2418 439.7253,459.2318 452.6796,451.4531 466.3335,444.9806 480.5556,439.8765 495.2093,436.1898 510.1536,433.956 525.2448,433.1967 540.3378,433.919 548.2134,434.8896 555.6582,436.1898 570.3119,439.8765 584.534,444.9806 598.1879,451.4531 611.1421,459.2318 623.2723,468.2418 634.4617,478.3966 644.6027,489.5984 653.5979,501.7396 661.3607,514.7034 667.8164,528.3652 672.9031,542.5936 676.5718,557.2518 678.7873,572.1988 679.5281,587.2909 678.7873,602.3831 676.5718,617.3301 672.9031,631.9883 667.8164,646.2167 661.3607,659.8784 653.5979,672.8423 644.6027,684.9835 634.4617,696.1853 623.2723,706.34 611.1421,715.3501 598.1879,723.1288 584.534,729.6013 570.3119,734.7054 555.6582,738.3921 540.7139,740.6258 525.6227,741.3852 510.5297,740.6629 495.5799,738.4658 480.9173,734.815 466.6827,729.7458"/>
    <polygon points="447.6983,708.525 442.6485,716.9463 436.8025,724.8359 430.2161,732.1187 422.9519,738.7255 414.7648,744.8038 406.3388,749.8458 397.4618,754.0433 388.2183,757.3565 378.6961,759.7539 368.9857,761.2126 358.8016,761.7192 348.9943,761.2313 339.2812,759.7908 329.7545,757.4113 320.5048,754.1155 311.62,749.9346 303.1845,744.9084 294.986,738.8455 287.7094,732.2523 281.1094,724.9819 275.2486,717.1033 270.0047,708.3583 265.8155,699.4774 262.511,690.2308 260.1225,680.7064 258.6729,670.9946 258.1759,661.1878 258.6361,651.3792 260.0493,641.6621 262.511,631.767 265.8155,622.5204 270.0047,613.6395 275.0388,605.2087 280.8699,597.3082 287.4426,590.013 294.6945,583.3926 302.5565,577.5097 310.9541,572.4204 320.1558,568.027 329.7545,564.5865 339.2812,562.207 348.9943,560.7665 358.8016,560.2786 368.6097,560.7481 378.3255,562.1704 387.8566,564.532 397.4618,567.9545 406.3388,572.152 414.7648,577.194 422.6599,583.0325 430.2161,589.8791 436.8025,597.1619 442.6485,605.0515 447.6983,613.4728 451.9042,622.3458 455.2261,631.5863 457.6324,641.1062 459.1002,650.8153 459.6163,660.9989 459.1002,671.1825 457.6324,680.8916 455.2261,690.4115 451.9042,699.652"/>
    <polygon points="434.7266,684.0883 432.1841,691.2025 428.7985,698.376 424.9227,704.8609 420.2084,711.2403 415.1469,716.849 409.5745,721.9504 403.229,726.7103 396.4396,730.8121 389.6229,734.0692 382.527,736.6625 374.8466,738.6454 367.0064,739.8508 359.085,740.2666 351.1617,739.8886 343.6865,738.794 335.9875,736.8844 328.5179,734.2148 321.3524,730.8121 314.8768,726.9209 308.8009,722.4309 302.912,717.1165 297.5836,711.2403 293.0791,705.1752 289.1725,698.7088 285.7527,691.5515 283.0654,684.0883 281.2117,676.7643 280.025,668.9213 279.6281,660.9989 280.025,653.0765 281.1374,645.604 283.0654,637.9095 285.6079,630.7954 288.9935,623.6218 292.8693,617.1369 297.5836,610.7575 302.6451,605.1488 308.5086,599.8065 314.563,595.2875 321.3524,591.1857 328.1692,587.9286 335.626,585.2235 342.9455,583.3524 350.7857,582.147 358.7071,581.7312 366.6304,582.1092 374.1055,583.2038 381.8045,585.1134 389.2742,587.783 396.4396,591.1857 402.9153,595.0769 409.2834,599.8065 414.8801,604.8813 419.9682,610.4658 424.7129,616.8226 428.7985,623.6218 432.0393,630.4463 434.6157,637.5483 436.5803,645.2335 437.767,653.0765 438.1639,660.9989 437.767,668.9213 436.6546,676.3938"/>
    <polygon points="432.417,680.6418 423.7712,671.1434 416.0912,660.8484 409.4498,649.8547 403.7646,637.9181 399.304,625.4718 396.1862,613.0119 394.2962,600.3077 393.6519,587.4799 394.2594,574.6503 396.113,561.9407 399.304,549.1101 403.6199,537.0129 409.2709,525.06 415.8807,514.0473 423.5312,503.7304 432.1496,494.2073 441.6542,485.5683 452.2687,477.6854 463.2861,471.0835 474.8939,465.5855 486.9817,461.2436 499.4348,458.099 512.511,456.1441 525.3393,455.509 538.5445,456.1628 551.2474,458.0619 563.705,461.1886 575.7991,465.5132 587.4147,470.9945 598.7559,477.7904 609.0673,485.4483 618.5843,494.0736 627.2164,503.5844 634.8816,513.8903 641.5072,524.8935 647.1754,536.8383 651.5086,548.9293 654.6443,561.3847 656.5898,574.4622 657.2157,587.2909 656.5898,600.1197 654.6443,613.1972 651.5086,625.6526 647.1754,637.7436 641.5072,649.6884 634.8816,660.6916 627.2164,670.9975 618.5843,680.5083 609.0673,689.1336 598.7559,696.7914 587.7479,703.4091 576.1481,708.9238 564.0665,713.283 551.2474,716.52 538.5445,718.4191 525.7172,719.0726 512.8871,718.4743 500.1762,716.6299 487.7053,713.5568 475.2431,709.1408 463.6196,703.6761 452.5833,697.1058 442.239,689.4924"/>
    <polygon points="441.8986,677.5212 439.8777,685.5829 437.0758,693.4076 433.52,700.9197 429.2444,708.0468 424.2904,714.7202 418.7058,720.8755 412.5443,726.4533 405.8654,731.3998 398.7335,735.6674 391.2174,739.2149 383.3896,742.008 375.3256,744.0198 367.1031,745.231 358.8015,745.6299 350.5008,745.2125 342.2811,743.983 334.2216,741.9531 326.4,739.1425 318.8919,735.5783 311.7696,731.2948 305.1017,726.3333 298.9527,720.7418 293.3818,714.5741 288.4427,707.8896 284.1831,700.753 280.644,693.233 277.8596,685.4021 275.8568,677.3358 274.6918,669.4881 274.2652,661.1879 274.6548,652.8858 275.8568,644.662 277.8596,636.5957 280.644,628.7648 284.1831,621.2448 288.4427,614.1082 293.3818,607.4238 298.9527,601.256 305.1017,595.6645 311.7696,590.703 318.8919,586.4195 326.4,582.8553 334.2216,580.0447 342.2811,578.0148 350.5008,576.7853 358.8015,576.3679 367.1031,576.7668 375.3256,577.978 383.3896,579.9898 391.2174,582.7829 398.7335,586.3304 405.8654,590.598 412.5443,595.5445 418.7058,601.1223 424.2904,607.2776 429.2444,613.951 433.52,621.0781 437.0758,628.5902 439.8777,636.4149 441.8986,644.4766 443.1189,652.6977 443.527,660.9989 443.1189,669.3001"/>
    <polygon points="441.571,662.3212 434.6691,658.4065 428.2884,654.3572 421.8075,649.7789 415.8587,645.1183 404.6707,634.9627 399.2041,629.2113 394.2753,623.4827 385.2762,611.345 377.4906,598.3955 374.0761,591.6538 370.8457,584.4062 367.9872,577.0041 365.6172,569.8282 361.9303,555.1751 360.6221,547.7321 359.6371,539.8586 359.0715,532.3227 358.8701,524.3904 359.0715,516.458 359.6371,508.9221 360.6221,501.0486 361.9303,493.6056 363.6893,485.8681 365.7275,478.591 370.8457,464.3745 373.9139,457.4683 377.4906,450.3852 385.2762,437.4357 394.2753,425.298 399.4577,419.2893 404.6707,413.818 410.142,408.605 416.1507,403.4226 422.4146,398.5517 428.6027,394.2138 435.3177,389.9864 441.9046,386.2819 455.5763,379.8484 462.6293,377.1345 470.1669,374.6552 484.8289,371.0037 499.7748,368.7844 507.6881,368.2001 515.243,368.0175 522.7979,368.2001 530.7113,368.7844 538.2111,369.7134 546.0278,371.0777 553.3989,372.744 561.0424,374.8748 575.2589,379.993 588.9151,386.4595 595.817,390.3743 602.1977,394.4236 614.3354,403.4226 620.064,408.3514 625.8154,413.818 635.971,425.006 640.857,431.2581 645.2098,437.4357 649.2591,443.8164 653.1739,450.7183 656.5722,457.4683 659.785,464.7236 664.8689,478.9525 666.9811,486.6011 668.6297,493.9762 669.975,501.7962 670.8859,509.2982 671.6159,524.3904 670.8859,539.4825 669.975,546.9845 668.6297,554.8045 666.9811,562.1796 664.8689,569.8282 659.785,584.0571 656.5722,591.3124 653.1739,598.0624 649.2591,604.9643 645.2098,611.345 640.6316,617.8259 635.971,623.7747 625.8154,634.9627 614.6274,645.1183 608.3753,650.0043 602.1977,654.3572 595.817,658.4065 588.9151,662.3212 581.8234,665.8808 574.9098,668.9323 560.6809,674.0162 553.3989,676.0367 545.6572,677.777 537.8372,679.1223 530.3352,680.0332 515.243,680.7633 500.1509,680.0332 492.6489,679.1223 484.8289,677.777 477.4538,676.1285 469.8052,674.0162 455.5763,668.9323 448.6627,665.8808"/>
    <polygon points="485.7651,672.707 471.4712,669.1343 457.2436,664.0429 443.9283,657.7357 431.29,650.1626 419.1565,641.1557 408.2492,631.2505 398.3577,620.3309 389.366,608.1862 381.8087,595.5384 375.5181,582.2152 370.5539,568.343 366.8897,553.6829 364.7432,539.1065 364.0254,524.3904 364.7804,509.2981 366.9634,494.7271 370.5539,480.4377 375.5181,466.5655 381.8087,453.2423 389.366,440.5945 398.3577,428.4498 408.2492,417.5302 419.1565,407.625 430.9759,398.8284 443.9283,391.045 457.2436,384.7378 471.1096,379.7563 485.3945,376.1479 499.9628,373.9467 515.0541,373.1728 529.7711,373.8722 544.3502,376.0005 558.653,379.5375 572.8932,384.5933 586.2243,390.8672 599.1961,398.6181 611.0375,407.3852 621.9694,417.2631 631.8882,428.1579 640.6996,439.9664 648.3201,452.5762 654.823,466.2165 659.8218,480.0762 663.5227,494.7271 665.7429,509.6742 666.4607,524.3904 665.7429,539.1065 663.5227,554.0536 659.9321,568.343 654.968,582.2152 648.6774,595.5384 641.1201,608.1862 632.3678,620.0385 622.2368,631.2505 611.3296,641.1557 599.5102,649.9524 586.8908,657.557 573.2424,664.0429 559.0149,669.1343 544.721,672.707 530.1472,674.8717 515.432,675.6079 500.3388,674.8717"/>
    <polygon points="494.408,707.2997 488.3543,711.8118 481.874,715.6861 475.3834,718.7396 468.6286,721.1529 461.6725,722.9035 454.58,723.9752 447.0396,724.3588 439.4992,723.9752 432.4067,722.9035 425.4506,721.1529 418.6958,718.7396 411.872,715.5082 405.7249,711.8118 399.9628,707.5398 394.6396,702.732 389.8048,697.4332 385.5035,691.693 381.5963,685.2324 378.5099,678.7574 375.9516,671.6539 374.201,664.6978 373.1293,657.6053 372.7457,650.0649 373.1293,642.5244 374.201,635.432 376.0623,628.1148 378.5099,621.3723 381.7759,614.5651 385.5035,608.4368 389.8048,602.6965 394.6396,597.3978 399.9628,592.59 405.7249,588.318 411.872,584.6215 418.6958,581.3902 425.4506,578.9769 432.4067,577.2263 439.875,576.1172 447.0396,575.771 454.2042,576.1172 461.6725,577.2263 468.6286,578.9769 475.3834,581.3902 482.2071,584.6215 488.3543,588.318 494.1164,592.59 499.4396,597.3978 504.2744,602.6965 508.5757,608.4368 512.3033,614.5651 515.5693,621.3723 518.0169,628.1148 519.8782,635.432 520.9872,642.9003 521.3335,650.0649 520.9872,657.2295 519.8782,664.6978 518.1276,671.6539 515.7143,678.4087 512.6609,684.8993 508.9957,691.0652 504.5145,697.1417 499.7067,702.4649"/>
    <polygon points="496.2067,732.5409 499.4913,741.7983 501.8599,751.3312 503.2901,761.0493 503.7683,770.8604 503.2901,780.6715 501.8599,790.3895 499.4913,799.9224 496.2067,809.1798 492.0374,818.0738 486.8137,826.8349 480.9717,834.7316 474.3895,842.0227 466.8374,848.8792 458.9462,854.7285 450.5234,859.7826 441.649,863.9936 432.4072,867.3214 422.8855,869.7347 412.7982,871.2482 402.9875,871.7356 393.176,871.2666 383.4565,869.8455 373.9214,867.4858 364.661,864.2099 355.7631,860.0489 347.3121,855.0422 339.3881,849.2374 331.7976,842.4234 325.1745,835.1694 319.2883,827.3057 314.0154,818.574 309.7961,809.7036 306.4596,800.4649 304.0375,790.9454 302.5145,780.8595 302.0179,771.0493 302.4778,761.2374 303.8898,751.5166 306.2405,741.9793 309.6513,732.3662 314.0154,723.1467 319.0774,714.7287 324.9341,706.8429 331.53,699.5642 338.8026,692.9614 346.9971,686.8873 355.4293,681.849 364.3115,677.6547 373.5596,674.3442 383.0858,671.9488 393.176,670.4542 402.9875,669.9851 412.7982,670.4725 422.5149,671.9118 432.4072,674.3993 441.649,677.7271 450.8562,682.1172 459.26,687.2028 467.1293,693.0816 474.3895,699.698 480.9717,706.9891 486.8137,714.8858 492.0374,723.6469"/>
    <polygon points="568.3705,729.4652 554.4426,732.9466 540.2436,735.067 525.5282,735.8072 510.812,735.0857 496.6103,732.9834 482.3161,729.4104 468.7955,724.5833 455.4705,718.2956 443.1485,710.9284 431.5954,702.4059 420.651,692.5414 410.9783,681.9326 402.1639,670.126 394.5628,657.5041 388.395,644.54 383.3968,630.6798 379.7966,616.3924 377.6297,601.8187 376.9176,587.4799 377.5932,573.1394 379.723,558.5602 383.2868,544.2637 388.1054,530.7401 394.3845,517.4111 401.9535,504.7699 410.7378,492.9409 420.3835,482.3075 431.3028,472.4152 442.8342,463.8633 455.4705,456.2862 468.7955,449.9986 482.3161,445.1714 496.6103,441.5985 510.812,439.4962 525.5282,438.7747 539.8675,439.4777 554.4426,441.6353 568.7322,445.2264 582.2466,450.0708 595.2302,456.1973 607.8762,463.7583 619.7108,472.535 630.6175,482.4412 640.489,493.3794 649.0188,504.9271 656.3939,517.2444 662.69,530.5654 667.5258,544.0829 671.1078,558.3748 673.2561,572.9513 673.95,587.2909 673.2561,601.6306 671.1078,616.2071 667.6353,630.1373 662.69,644.0165 656.5717,657.004 649.0188,669.6548 640.489,681.2025 630.6175,692.1406 619.7108,702.0469 608.1903,710.6134 595.5636,718.2065 582.2466,724.5111"/>
    <polygon points="580.3737,719.249 567.2258,723.9831 553.6785,727.4107 539.8612,729.4991 525.5282,730.2291 511.5702,729.5552 497.7448,727.5216 484.184,724.1477 471.0174,719.4658 458.371,713.5205 446.051,706.1594 434.8232,697.8398 424.4614,688.4636 415.0647,678.1205 406.5129,666.5951 399.3374,654.6038 393.367,641.9692 388.659,628.812 385.2582,615.2579 383.1972,601.4365 382.4957,587.4799 383.1603,573.5215 385.1848,559.6947 388.5497,546.1316 393.223,532.962 399.3374,519.978 406.5129,507.9868 414.825,496.7535 424.1943,486.3855 434.5313,476.982 445.7371,468.6328 457.7046,461.4177 470.6682,455.2604 483.8224,450.5437 497.3742,447.1339 511.5702,445.0267 525.5282,444.3528 539.4853,445.0451 553.308,447.097 566.8644,450.4888 580.3737,455.3329 592.9965,461.3283 604.9735,468.5275 616.1903,476.8619 626.5397,486.2518 635.9227,496.6074 644.2497,507.8297 651.441,519.8114 657.4281,532.4382 662.1535,545.5892 665.5722,559.1388 667.6888,573.3334 668.3719,587.2909 667.6888,601.2485 665.5722,615.4431 662.1535,628.9927 657.4281,642.1437 651.441,654.7704 644.2497,666.7522 635.9227,677.9745 626.5397,688.3301 616.1903,697.72 604.9735,706.0544 592.9965,713.2536"/>
    <polygon points="632.2193,685.1494 642.8439,694.8043 652.7249,705.7335 661.2636,717.2743 668.8246,729.92 674.9498,742.9039 679.9007,756.7808 683.3773,770.7097 685.4911,784.9094 686.2229,799.6249 685.4911,814.3404 683.3773,828.5401 679.9007,842.4689 674.9498,856.3459 668.8246,869.3298 661.2636,881.9754 652.4853,893.8086 642.8439,904.4454 631.9274,914.3404 620.3974,922.8937 608.0946,930.2924 594.7853,936.6125 580.9147,941.5811 566.9902,945.0755 552.7932,947.2074 538.0787,947.9579 523.3623,947.2449 509.1599,945.1492 494.8648,941.5811 480.9942,936.6125 467.6849,930.2924 455.3821,922.8937 443.5601,914.1004 432.9356,904.4454 423.2941,893.8086 414.5159,881.9754 406.9548,869.3298 400.8297,856.3459 395.9884,842.8306 392.4022,828.5401 390.2883,814.3404 389.5566,799.6249 390.2883,784.9094 392.4022,770.7097 395.8788,756.7808 400.8297,742.9039 407.1329,729.5866 414.5159,717.2743 423.2941,705.4412 432.9356,694.8043 443.5601,685.1494 455.3821,676.356 468.0181,668.7789 480.9942,662.6372 494.8648,657.6686 508.7892,654.1743 523.3623,652.0049 537.7008,651.2919 552.4172,652.0049 566.6196,654.1006 580.9147,657.6686 594.7853,662.6372 607.7614,668.7789 620.3974,676.356"/>
    <polygon points="653.461,683.6527 658.9447,689.389 664.3843,695.6759 669.2726,701.9274 673.8523,708.4083 678.1125,715.1036 682.2221,722.3303 685.7978,729.4148 689.0262,736.6642 691.8994,744.0615 694.5213,751.9508 696.6474,759.5964 698.4746,767.7067 699.8878,775.8992 700.8471,783.7767 701.4236,791.6915 701.6159,799.6249 701.4236,807.5583 700.8471,815.473 699.8878,823.3506 698.4746,831.5431 696.6474,839.6534 694.5213,847.299 692.0272,854.8326 689.1711,862.2365 685.9595,869.4934 682.4001,876.5861 678.5012,883.4979 674.0624,890.5274 669.4978,897.0189 664.3843,903.5738 659.1989,909.5811 653.7284,915.33 647.9858,920.807 641.9846,925.9994 635.7388,930.8949 628.9493,935.6926 622.2491,939.9451 615.3508,943.8679 607.9291,947.6139 600.6759,950.8339 593.2753,953.6986 585.7446,956.2013 577.735,958.4286 569.9933,960.1728 561.8024,961.5954 553.9259,962.5639 546.0119,963.1495 538.0787,963.351 530.1451,963.1678 522.2297,962.6004 513.9771,961.5954 506.1569,960.2465 498.0445,958.4286 490.3964,956.3114 482.8599,953.826 475.4527,950.9784 468.1922,947.7752 461.0954,944.224 454.179,940.333 447.1445,935.9024 440.6477,931.3453 434.3794,926.4787 428.3542,921.314 422.3184,915.597 416.8347,909.8608 411.3951,903.5738 406.5068,897.3224 401.9272,890.8414 397.667,884.1462 393.7362,877.2524 389.9816,869.835 386.7533,862.5856 383.8801,855.1883 381.2582,847.299 379.1321,839.6534 377.379,831.9137 376.003,824.0982 374.9694,815.8492 374.3559,807.5583 374.1635,799.6249 374.3559,791.6915 374.9324,783.7767 375.9469,775.5253 377.3049,767.7067 379.0401,759.963 381.2582,751.9508 383.7522,744.4172 386.6084,737.0132 389.8199,729.7564 393.5574,722.3303 397.4723,715.4275 401.717,708.7224 406.5068,701.9274 411.3951,695.6759 416.5806,689.6687 422.051,683.9198 427.7936,678.4427 434.0868,673.0104 440.3439,668.1293 446.8302,663.5572 453.5303,659.3047 460.4287,655.3819 467.509,651.7979 475.1035,648.4159 482.5041,645.5512 490.0349,643.0484 498.0445,640.8212 505.7862,639.077 513.9771,637.6544 521.8535,636.6859 529.7676,636.1003 537.7008,635.8988 546.0119,636.1003 553.9259,636.6859 561.8024,637.6544 569.6226,639.0033 577.735,640.8212 585.383,642.9384 592.9195,645.4238 600.3267,648.2714 607.5873,651.4746 615.0176,655.2034 621.925,659.1103 628.635,663.3473 635.1317,667.9045 641.4001,672.7711 647.7058,678.1889"/>
    <polygon points="668.4481,692.5395 673.5593,699.0937 678.3418,705.8914 682.7841,712.9162 686.8752,720.1511 690.4439,727.2371 693.8211,734.8315 696.8205,742.583 699.4348,750.4727 701.6578,758.4814 703.4839,766.5898 704.9089,774.7783 705.9292,783.027 706.5424,791.3159 706.7469,799.6249 706.5424,807.9339 705.9292,816.2228 704.9089,824.4715 703.4839,832.6599 701.6578,840.7684 699.5444,848.4155 696.9477,856.311 693.9657,864.0692 690.6054,871.6712 686.8752,879.0986 682.7841,886.3335 678.3418,893.3584 673.5593,900.1561 668.4481,906.7103 663.0205,913.005 657.2898,919.025 651.2698,924.7557 644.9751,930.1832 638.4209,935.2945 631.6232,940.077 624.5984,944.5192 617.3635,948.6104 609.936,952.3406 602.334,955.7008 594.5759,958.6829 586.6804,961.2796 578.6667,963.4846 570.5542,965.2926 562.3625,966.6992 554.4876,967.6644 546.1987,968.2775 537.8897,968.4821 529.9581,968.2957 521.6679,967.7011 513.4169,966.6992 505.2253,965.2926 497.1128,963.4846 489.0991,961.2796 481.2036,958.6829 473.4454,955.7008 465.8434,952.3406 458.416,948.6104 451.1811,944.5192 444.1562,940.077 437.3585,935.2945 430.8044,930.1832 424.5097,924.7557 418.4896,919.025 412.7589,913.005 407.3314,906.7103 402.2202,900.1561 397.4376,893.3584 392.9954,886.3335 388.9042,879.0986 385.174,871.6712 381.8138,864.0692 378.8317,856.311 376.2351,848.4155 374.03,840.4018 372.222,832.2893 370.8154,824.0977 369.8135,815.8467 369.2189,807.5565 369.0325,799.6249 369.2189,791.6933 369.8135,783.403 370.8154,775.1521 372.222,766.9605 374.03,758.848 376.2351,750.8343 378.8317,742.9388 381.8138,735.1806 385.174,727.5786 388.9042,720.1511 392.9954,712.9162 397.4376,705.8914 402.2202,699.0937 407.3314,692.5395 412.7589,686.2448 418.4896,680.2248 424.5097,674.4941 430.8044,669.0665 437.3585,663.9553 444.1562,659.1728 451.1811,654.7306 458.416,650.6394 465.8434,646.9092 473.0964,643.6936 480.8478,640.6941 488.7375,638.0798 496.7462,635.8568 504.8547,634.0307 513.0432,632.6057 521.2918,631.5854 529.5807,630.9722 537.8897,630.7677 546.1987,630.9722 554.4876,631.5854 562.7363,632.6057 570.9248,634.0307 579.0332,635.8568 587.042,638.0798 594.9316,640.6941 602.6831,643.6936 609.936,646.9092 617.3635,650.6394 624.5984,654.7306 631.6232,659.1728 638.4209,663.9553 644.9751,669.0665 651.2698,674.4941 657.2898,680.2248 663.0205,686.2448"/>
    <polygon points="648.6875,708.9017 657.0039,720.1348 664.1855,732.1251 670.1641,744.7584 674.8827,757.9143 678.2963,771.4675 680.3725,785.289 681.0919,799.6249 680.3725,813.9608 678.2963,827.7823 674.8827,841.3355 670.1641,854.4914 664.1855,867.1247 656.7937,879.429 648.4477,890.6401 639.0487,900.9842 628.3934,910.602 617.1439,918.8961 605.1394,926.054 592.4944,932.0076 579.3291,936.7001 565.7692,940.0869 551.9436,942.1357 537.9842,942.827 524.0239,942.1541 509.825,940.05 496.2695,936.6453 483.1105,931.9354 470.1401,925.7868 458.164,918.5815 446.9474,910.2429 436.5971,900.8507 427.2117,890.4942 418.8806,879.2721 411.6831,867.2913 405.6879,854.6659 400.9519,841.5162 397.5204,827.9675 395.3882,813.7728 394.6877,799.8138 395.3514,785.8531 397.3728,772.0235 400.7327,758.4569 405.3992,745.2824 411.505,732.2918 418.6708,720.292 426.9723,709.048 436.3304,698.6668 446.9474,689.0069 458.164,680.6683 470.1401,673.4629 482.7615,667.4594 495.9081,662.7147 509.4545,659.2743 523.6478,657.1327 537.6063,656.423 551.9436,657.1141 565.7692,659.1628 579.3291,662.5496 592.4944,667.2422 605.1394,673.1958 617.1439,680.3537 628.686,688.887 639.0487,698.2655"/>
    <polygon points="695.7287,784.1562 696.2864,791.6926 696.4849,799.6249 696.3049,807.1797 695.7287,815.0935 694.7575,822.9686 693.4674,830.4147 691.7327,838.1575 689.7225,845.4422 687.2409,852.9789 684.5298,860.0329 681.3249,867.2916 677.9387,874.0474 674.0411,880.959 670.0121,887.3523 665.459,893.8508 660.5865,900.1133 655.407,906.1243 650.2003,911.6015 644.4592,917.0787 638.4512,922.2618 632.1916,927.138 626.0103,931.4854 619.3049,935.7278 612.7291,939.4516 605.6419,943.0197 598.7342,946.0844 591.3327,948.9443 583.7975,951.4304 576.1474,953.5365 568.7722,955.1842 560.9531,956.5341 553.4524,957.4547 545.5389,958.0355 537.9842,958.22 530.0518,958.0263 522.139,957.436 514.2657,956.4507 506.822,955.1473 499.0822,953.3988 491.8011,951.3756 484.6247,949.0078 477.2198,946.1568 469.9668,942.9389 463.217,939.5406 456.3125,935.6307 449.6121,931.3803 443.436,927.0256 437.1822,922.1419 431.4603,917.2055 425.7126,911.7352 420.4995,906.2643 415.3127,900.2594 410.4328,894.0027 406.0817,887.824 402.0299,881.4451 398.1076,874.5475 394.5353,867.4624 391.4665,860.5566 388.6022,853.1568 386.1116,845.6231 384.0927,838.3408 382.3488,830.6 381.0499,823.1555 380.0693,815.2816 379.4837,807.3685 379.2947,799.8138 379.4837,791.8813 380.0324,784.3443 380.9395,776.8419 382.2755,769.0205 384.0009,761.2756 386.1116,753.6267 388.6022,746.0929 391.3217,739.0423 394.5353,731.7874 397.9295,725.0355 401.8353,718.1287 406.0817,711.4258 410.6581,704.9437 415.3127,698.9904 420.2457,693.2655 425.7126,687.5146 431.4603,682.0442 437.1822,677.1079 443.436,672.2242 449.9263,667.6595 456.3125,663.6191 463.217,659.7091 469.9668,656.3109 477.2198,653.093 484.6247,650.2419 491.8011,647.8742 499.0822,645.851 506.822,644.1025 514.2657,642.7991 522.139,641.8138 530.0518,641.2235 537.9842,641.0297 545.9164,641.233 553.4524,641.7951 560.9531,642.7156 568.7722,644.0656 576.514,645.8049 584.1591,647.9292 591.6884,650.4333 598.7342,653.1654 605.9833,656.3919 612.7291,659.7982 619.3049,663.522 626.0103,667.7644 632.4951,672.3368 638.4512,676.988 644.179,681.9175 649.9332,687.381 655.1529,692.8457 660.3468,698.8444 665.2341,705.0953 669.5926,711.2688 673.8469,717.9666 677.761,724.8688 681.3249,731.9582 684.3854,738.8677 687.2409,746.2708 689.6129,753.4459 691.7327,761.0923 693.4674,768.8351 694.7575,776.2811"/>
    <polygon points="536.7474,612.8811 539.9343,621.7684 542.2431,630.9231 543.652,640.2587 544.1484,650.0649 543.6894,659.4951 542.3168,668.8361 539.9343,678.3614 536.7474,687.2486 532.534,696.1173 527.6578,704.202 522.0195,711.7749 515.6725,718.7645 508.6767,725.1048 500.784,730.9454 492.6757,735.7822 484.1361,739.8088 475.2457,742.9871 465.7182,745.3603 456.3758,746.7238 446.9451,747.1736 437.1395,746.6677 427.8052,745.2497 418.6527,742.932 409.7686,739.7365 401.2368,735.6933 393.1379,730.8407 385.5486,725.2245 378.5405,718.8979 372.1799,711.9207 366.3163,704.0451 361.4558,695.9509 357.4043,687.4231 354.09,678.1806 351.799,669.0214 350.4083,659.6831 349.931,650.2538 350.3716,640.8227 351.726,631.479 354.09,621.9491 357.2596,613.0557 361.4558,604.1788 366.3163,596.0847 371.9398,588.5008 378.2732,581.4989 385.2566,575.145 392.8241,569.4994 400.904,564.6153 409.7686,560.3933 419.0143,557.088 428.1757,554.8059 437.5154,553.4243 446.9451,552.9561 456.3758,553.4059 465.7182,554.7694 474.884,557.0337 484.1361,560.321 492.6757,564.3476 500.784,569.1844 508.3843,574.7858 515.6725,581.3652 522.0195,588.3548 527.6578,595.9278 532.7125,604.3454"/>
    <polygon points="630.3225,517.1071 636.7329,527.7936 642.058,539.0602 646.2461,550.7971 649.2562,562.8898 651.0591,575.2204 651.6376,587.2909 651.0224,599.7375 649.1826,612.0626 646.2461,623.7848 642.058,635.5216 636.7329,646.7883 630.3225,657.4748 623.1291,667.1849 614.7735,676.4303 605.5468,684.8067 595.5391,692.2322 585.1808,698.4562 573.9261,703.8067 562.1987,708.0211 550.1128,711.0583 538.1622,712.8513 525.7171,713.4945 513.2692,712.9072 500.94,711.0951 488.8495,708.076 477.1158,703.8791 465.8531,698.5455 455.4856,692.337 445.4667,684.9265 436.2275,676.564 427.8581,667.331 420.44,657.3177 414.0457,646.6216 408.8818,635.6961 404.6761,623.9655 401.7221,612.2478 399.8639,599.9254 399.23,587.4798 399.7905,575.4085 401.5749,563.0752 404.5669,550.978 408.7374,539.2349 413.8686,528.294 420.2309,517.5788 427.6189,507.5433 435.9607,498.2854 444.8836,490.1359 454.8579,482.6655 465.5204,476.2152 476.767,470.8479 488.4881,466.616 500.5695,463.5606 512.8932,461.7116 525.3393,461.0871 537.7863,461.693 550.1128,463.5235 562.1987,466.5608 573.5771,470.6306 584.8477,475.9473 595.2246,482.1403 605.2546,489.5358 614.5063,497.8845 622.8895,507.1049"/>
    <polygon points="686.2409,507.4121 686.862,515.7021 687.0817,524.3904 686.862,533.0786 686.2409,541.3686 685.2197,549.6189 683.8006,557.8102 681.8953,566.2898 679.6739,574.3008 677.0676,582.1949 674.0825,589.9537 670.5644,597.9009 666.8274,605.3269 662.7356,612.5634 658.0889,619.9079 653.3021,626.7047 648.1922,633.2621 642.7711,639.5647 636.7848,645.8653 630.7675,651.6014 624.4799,657.0397 617.6333,662.3931 610.8391,667.1837 603.8212,671.64 596.5959,675.7517 588.839,679.6713 581.2428,683.049 573.4922,686.0554 565.6053,688.6833 557.2341,691.0196 549.1261,692.8554 540.9388,694.297 532.3153,695.3789 523.6482,696.0234 515.3375,696.229 507.0266,696.0325 498.7349,695.4343 490.1079,694.3808 481.9159,692.9663 473.8019,691.1572 465.4231,688.8486 457.5275,686.2466 449.767,683.2659 441.8179,679.7522 434.3899,676.0192 427.1511,671.9314 419.804,667.2887 413.0046,662.5057 406.4444,657.3994 399.8585,651.7283 393.835,645.9988 388.0956,639.9847 382.4137,633.4082 377.2966,626.8565 372.5023,620.0649 368.0421,613.0495 363.9265,605.8265 360.0026,598.0717 356.6207,590.4774 353.6101,582.7284 350.8672,574.4815 348.637,566.473 346.7966,558.366 345.3505,550.1795 344.2639,541.5567 343.6338,533.2673 343.4044,524.5793 343.6147,515.8908 344.2266,507.6001 345.2388,499.3487 346.7223,490.7852 348.5448,482.6742 350.8672,474.2992 353.4822,466.4079 356.4757,458.6524 359.8409,451.0506 363.5698,443.6206 367.6536,436.3796 372.2923,429.0299 377.0716,422.2278 382.4137,415.3725 387.8417,409.0759 393.5678,403.0492 399.5788,397.3065 405.8604,391.8612 412.3981,386.7261 419.49,381.7023 426.8269,377.0434 434.0566,372.9397 441.4764,369.1904 449.0688,365.8044 457.1717,362.6614 465.0615,360.0421 473.0688,357.8074 481.5452,355.8881 489.7341,354.4556 497.9827,353.4207 506.6491,352.7667 514.9596,352.5519 523.2707,352.7393 531.5631,353.3284 539.8173,354.3179 548.3848,355.7779 556.5008,357.5781 564.8822,359.8774 573.1365,362.5976 580.8937,365.5869 588.839,369.1094 596.2629,372.8505 603.4971,376.9463 610.8391,381.597 617.6333,386.3876 624.1879,391.5011 630.7675,397.1794 636.7848,402.9155 642.7711,409.216 648.1922,415.5186 653.3021,422.076 658.0889,428.8728 662.7356,436.2173 666.8274,443.4539 670.5644,450.8798 673.938,458.4778 677.0676,466.5858 679.6739,474.48 681.8953,482.4909 683.8006,490.9705 685.2197,499.1618"/>
    <polygon points="563.9394,364.9788 571.8277,367.6053 579.2264,370.4764 586.8215,373.8583 593.9056,377.436 600.8113,381.3469 607.8376,385.7916 614.3298,390.3561 620.89,395.4637 627.1874,400.892 633.2062,406.6276 638.9316,412.6562 644.1098,418.6703 649.2211,425.2276 653.7893,431.7173 658.238,438.741 662.3309,445.9778 666.0579,453.4097 669.2656,460.6688 672.1241,468.0724 674.7371,475.9652 676.8614,483.6118 678.6937,491.7215 680.1193,499.9124 681.1348,508.1642 681.7375,516.4564 681.9265,524.3904 681.7375,532.3243 681.1348,540.6165 680.1193,548.8683 678.6937,557.0593 676.9534,564.8023 674.7371,572.8156 672.2514,580.3524 669.2656,588.1119 665.8966,595.7128 662.3309,602.8029 658.238,610.0397 653.7893,617.0634 648.9959,623.8566 644.1098,630.1104 638.6779,636.4047 632.9389,642.4203 626.907,648.1422 620.5974,653.5563 614.3298,658.4246 607.5231,663.1987 600.4868,667.6275 593.5722,671.5227 586.1382,675.2454 578.8772,678.449 571.1161,681.4304 563.5778,683.9119 555.93,686.0318 547.8193,687.8595 539.6276,689.2805 531.3752,690.2913 523.4601,690.8711 515.1486,691.0738 506.8372,690.8617 498.9228,690.2729 491.0455,689.3081 482.8522,687.8963 475.1061,686.1692 467.0891,683.9666 459.192,681.3669 451.4342,678.3767 443.8353,675.0034 436.7471,671.4338 429.5126,667.3367 422.8057,663.094 416.0044,658.3122 409.7423,653.4367 403.4388,648.0155 397.4135,642.2867 391.6813,636.2646 386.2565,629.9642 381.1526,623.4011 376.5918,616.9063 372.3453,610.2018 368.2442,602.9696 364.5088,595.5419 361.2929,588.2864 358.426,580.8861 355.8039,572.9964 353.5786,564.9856 351.8295,557.2445 350.4509,549.429 349.4074,541.1807 348.7765,532.8906 348.5597,524.5793 348.7397,516.6451 349.333,508.3523 350.3391,500.0993 351.6822,492.2776 353.3962,484.5286 355.5852,476.5079 358.1714,468.6063 361.1484,460.8435 364.5088,453.2388 368.2442,445.8111 372.3453,438.5789 376.5918,431.8744 381.3775,425.0758 386.2565,418.8165 391.6813,412.5161 397.4135,406.494 403.4388,400.7652 409.45,395.5835 415.701,390.6939 422.4914,385.8967 429.5126,381.444 436.4139,377.5253 443.8353,373.7773 451.4342,370.404 458.8362,367.5413 466.7274,364.9237 474.3729,362.7952 482.4815,360.9583 490.6716,359.528 498.9228,358.5078 506.8372,357.919 515.1486,357.7069 523.4601,357.9096 531.7513,358.5264 540.0014,359.5559 547.8193,360.9212 555.93,362.749"/>
    <polygon points="557.4161,325.4946 552.3776,330.0574 546.9236,334.1144 541.1046,337.628 534.6261,340.7113 528.2297,343.0115 521.2712,344.7601 514.5472,345.7569 507.7585,346.1024 500.592,345.7569 493.8681,344.7601 486.9096,343.0115 480.5131,340.7113 474.0346,337.628 468.2157,334.1144 462.7617,330.0574 457.7231,325.4946 452.9071,320.1764 448.8647,314.7115 445.189,308.5498 442.3007,302.3965 440.0176,295.9939 438.361,289.4014 437.3462,282.6801 436.9815,275.5145 437.3462,268.349 438.361,261.6277 440.0176,255.0352 442.3007,248.6326 445.189,242.4793 448.8647,236.3175 452.9071,230.8527 457.4564,225.802 462.4704,221.2123 468.2157,216.9147 474.3675,213.2225 480.5131,210.3177 486.9096,208.0176 493.8681,206.269 500.592,205.2722 507.3807,204.9267 514.5472,205.2722 521.2712,206.269 528.2297,208.0176 534.6261,210.3177 540.7717,213.2225 546.6094,216.7049 552.3776,220.9717 557.4161,225.5345 562.2322,230.8527 566.2746,236.3175 569.9503,242.4793 572.8386,248.6326 575.1217,255.0352 576.7783,261.6277 577.7931,268.349 578.1577,275.5145 577.7931,282.6801 576.7783,289.4014 575.1217,295.9939 572.6938,302.7454 569.5931,309.2156 566.064,315.0252 561.9924,320.4683"/>
    <polygon points="585.6103,327.546 579.9847,335.1273 573.8931,341.838 566.8902,348.1691 559.6011,353.5552 551.8262,358.2126 543.6381,362.0979 535.1132,365.1748 525.9609,367.4894 516.9982,368.835 507.5696,369.3101 498.1411,368.835 489.1784,367.4894 480.3874,365.285 471.8502,362.2425 463.6465,358.3902 455.5381,353.5552 447.9569,347.9296 441.2461,341.838 434.9151,334.8351 429.529,327.546 424.694,319.4377 420.8417,311.234 417.7991,302.6968 415.5948,293.9058 414.2491,284.9431 413.774,275.5145 414.2491,266.086 415.5948,257.1233 417.9093,247.9709 420.9863,239.4461 424.8716,231.2579 429.529,223.483 435.1546,215.9018 441.2461,209.191 447.9569,203.0995 455.2242,197.6841 462.9803,192.9954 471.5012,188.9311 480.0261,185.8542 489.1784,183.5397 498.1411,182.194 507.5696,181.7189 516.6222,182.1568 525.5903,183.4663 534.7519,185.744 543.2891,188.7866 551.4928,192.6389 559.6011,197.4739 566.8902,202.86 573.8931,209.191 579.9847,215.9018 585.6103,223.483 590.2677,231.2579 594.2976,239.7951 597.3401,248.3323 599.6178,257.4939 600.9274,266.4619 601.3652,275.5145 600.9274,284.5671 599.6178,293.5352 597.3401,302.6968 594.2976,311.234 590.2677,319.7711"/>
    <polygon points="586.2309,299.3453 583.4234,307.1642 580.0202,314.3272 575.9424,321.1288 571.2282,327.5058 565.6546,333.6663 559.78,338.9935 553.4193,343.7297 546.6318,347.8308 539.1321,351.4046 531.6714,354.0932 523.616,356.1248 515.7727,357.296 507.853,357.7059 499.9306,357.3506 491.7085,356.1614 484.0102,354.2575 476.5311,351.6204 469.341,348.2749 462.1914,344.0442 455.7982,339.3519 449.6184,333.7997 444.271,327.9434 439.5129,321.5991 435.3884,314.8257 431.7888,307.3384 428.9634,299.526 427.0152,291.8387 425.7788,283.6236 425.378,275.7034 425.7788,267.4055 426.941,259.5608 428.9634,251.503 431.6433,244.0393 435.0301,236.8685 439.0922,230.0575 443.7918,223.6697 449.3511,217.4964 455.2135,212.1557 461.5633,207.4049 468.3414,203.2882 475.8328,199.6972 483.2873,196.9915 491.338,194.9414 499.5545,193.7144 507.4752,193.3227 515.7727,193.7331 523.616,194.9043 531.31,196.8259 539.1321,199.6244 546.299,203.0194 553.1053,207.0894 559.78,212.0356 565.6546,217.3627 570.9885,223.2313 575.7321,229.5865 580.0202,236.7019 583.4234,243.8649 586.2309,251.6837 588.1614,259.3755 589.3789,267.5934 589.7615,275.5145 589.3789,283.4356 588.1614,291.6536"/>
    <polygon points="519.6291,332.3771 528.5176,337.386 537.1463,342.8303 545.4938,348.6966 553.5395,354.9704 560.9835,361.3826 568.3798,368.4104 575.4177,375.7969 581.8402,383.232 588.1251,391.2691 593.7927,399.2945 599.2648,407.9055 604.3023,416.7779 608.8927,425.8895 612.88,434.8689 616.4331,444.0288 619.6546,453.7095 622.3912,463.5384 624.636,473.491 626.3835,483.5429 627.5922,493.2931 628.3522,503.4675 628.6058,513.667 628.3707,523.4891 627.6294,533.6648 626.3835,543.7911 624.7096,553.4723 622.4831,563.4291 619.7647,573.2629 616.6882,582.5937 613.0248,592.116 608.8927,601.4445 604.3023,610.5561 599.2648,619.4284 594.0029,627.7255 588.1251,636.0649 582.08,643.8099 575.4177,651.537 568.6469,658.6563 561.5432,665.4435 553.8315,672.1235 545.7973,678.4122 537.4606,684.2939 529.166,689.5595 520.296,694.6011 511.1864,699.1957 502.2089,703.1872 492.6951,706.8725 483.0099,710.0807 473.1773,712.8036 463.5922,714.9609 453.5411,716.713 443.4153,717.9636 433.24,718.7096 423.418,718.9492 413.2184,718.7004 403.0437,717.945 393.2929,716.7408 383.2402,714.9979 373.6531,712.8494 363.818,710.1355 354.1299,706.9363 344.9619,703.4043 335.6315,699.2765 326.8512,694.8682 317.9673,689.8511 309.6581,684.6084 301.3052,678.7497 293.2537,672.4833 285.5235,665.8246 278.4011,659.0571 271.3563,651.677 264.687,643.956 258.6348,636.2165 252.7492,627.8826 247.2851,619.2665 242.4341,610.7227 237.9975,601.9566 233.8397,592.6395 230.2782,583.4829 227.0477,573.8052 224.3022,563.9788 222.0482,554.0283 220.2914,543.978 219.0362,533.8528 218.2856,523.6778 218.0414,513.856 218.2856,503.6562 219.0362,493.4812 220.2914,483.356 221.9743,473.6763 224.1183,464.0883 226.8277,454.2519 229.8955,444.9183 233.5502,435.3927 237.5127,426.4023 242.078,417.278 247.091,408.3918 252.3299,400.0802 257.9605,392.0289 264.2083,383.963 270.8492,376.2175 277.8668,368.8115 285.2436,361.7633 292.9616,355.0904 300.6982,349.0346 309.0295,343.1453 317.6431,337.6771 326.1846,332.8222 335.29,328.2192 344.6127,324.0743 353.7742,320.5254 363.4564,317.3083 372.9201,314.6688 382.8697,312.4103 392.9191,310.6489 403.0437,309.3889 413.2184,308.6336 423.0401,308.385 433.24,308.6244 443.4153,309.3704 453.1672,310.5657 463.2215,312.2993 473.1773,314.5304 482.6482,317.1438 492.3393,320.3341 501.5105,323.8576 510.5027,327.816"/>
    <polygon points="431.1797,275.5145 431.5533,267.9682 432.6706,260.4958 434.411,253.5319 436.9404,246.4123 440.1608,239.5775 444.0406,233.0942 448.3027,227.3185 453.3537,221.6995 458.6443,216.8482 464.679,212.302 471.1333,208.3742 477.9441,205.1032 485.0447,202.521 492.3656,200.6529 499.8353,199.5171 507.3807,199.1248 514.9279,199.4798 522.4031,200.5786 529.7332,202.4105 536.8464,204.9575 543.6733,208.1948 549.8327,211.8807 555.9121,216.367 561.5186,221.4319 566.5974,227.0259 571.0987,233.0942 574.9785,239.5775 578.1989,246.4123 580.7283,253.5319 582.4687,260.4958 583.586,267.9682 583.9596,275.5145 583.586,283.0608 582.4687,290.5333 580.7283,297.4972 578.1989,304.6167 574.9785,311.4516 571.0987,317.9349 566.5974,324.0032 561.7856,329.3296 556.2042,334.4222 550.147,338.9385 543.6733,342.8343 536.8464,346.0716 529.7332,348.6186 522.4031,350.4505 515.3039,351.5119 507.7586,351.9043 500.2114,351.5493 492.7362,350.4505 485.4061,348.6186 478.2928,346.0716 471.4659,342.8343 465.3066,339.1483 459.2271,334.6621 453.6206,329.5972 448.5419,324.0032 444.0406,317.9349 440.1608,311.4516 436.9404,304.6167 434.411,297.4972 432.6706,290.5333 431.5533,283.0608"/>
    <polygon points="426.2831,241.819 429.8246,234.3004 434.268,226.8342 439.4261,219.8427 445.2485,213.3939 451.6786,207.5507 458.6535,202.3701 466.1053,197.9026 473.9614,194.1918 482.1451,191.2739 490.5767,189.1772 499.1739,187.9222 507.4752,187.5209 516.1534,187.9405 524.7479,189.2139 533.175,191.3287 541.3525,194.2642 548.8672,197.8138 556.3286,202.2652 563.3146,207.4308 569.7572,213.2602 575.5935,219.6965 580.7665,226.6769 585.226,234.1336 588.9284,241.9936 591.8375,250.1804 593.9252,258.6143 595.1709,267.2129 595.5634,275.5145 595.1709,283.8162 593.9252,292.4148 591.8375,300.8486 588.9284,309.0355 585.226,316.8955 580.7665,324.3521 575.5935,331.3326 569.7572,337.7689 563.3146,343.5982 556.3286,348.7638 548.8672,353.2153 541.0032,356.9092 532.8132,359.8096 524.3771,361.8882 515.7772,363.1246 507.4752,363.5082 499.1739,363.1068 490.5767,361.8519 482.1451,359.7552 473.9614,356.8372 466.1053,353.1264 458.6535,348.659 451.6786,343.4784 445.2485,337.6352 439.4261,331.1864 434.4778,324.5092 430.0023,317.0622 426.2831,309.2101 423.4667,301.3909 421.3248,292.9707 420.0237,284.3803 419.5761,275.7035 419.9864,267.0248 421.2506,258.4289 423.3563,249.9996"/>
    <polygon points="457.2728,234.6797 461.559,229.9045 466.2966,225.5766 471.4391,221.7387 476.936,218.4283 482.7334,215.678 488.7745,213.5146 494.9999,211.9594 500.9729,211.065 507.3808,210.7286 513.7906,211.0277 520.1393,211.9594 526.3648,213.5146 532.0567,215.5342 537.87,218.2508 543.3861,221.529 548.5509,225.3369 553.3136,229.6371 557.6276,234.3872 561.4505,239.5409 564.7449,245.0474 567.4783,250.8528 569.6241,256.9001 571.0879,262.7597 572.0381,269.1057 572.3558,275.5145 572.0381,281.9234 571.0879,288.2694 569.5146,294.4903 567.3336,300.525 564.5663,306.3144 561.2399,311.8016 557.6276,316.6418 553.3136,321.392 548.5509,325.6921 543.3861,329.5 537.87,332.7783 532.4058,335.3511 526.3648,337.5145 520.1393,339.0697 513.7906,340.0014 507.7584,340.3005 501.3487,340.0014 495.3706,339.1418 489.1362,337.623 483.0826,335.4948 477.2693,332.7783 471.7531,329.5 466.5884,325.6921 461.8257,321.392 457.5117,316.6418 453.6888,311.4882 450.3944,305.9817 447.6609,300.1763 445.5152,294.1289 444.0514,288.2694 443.1012,281.9234 442.7834,275.5145 443.1012,269.1057 443.9781,263.1301 445.5152,256.9001 447.6609,250.8528 450.3944,245.0474 453.6888,239.5409"/>
    <polygon points="571.0089,198.7348 577.9957,205.0885 584.5895,212.3671 590.4344,220.2597 595.4735,228.6896 599.6579,237.5749 602.8373,246.4673 605.2349,255.9914 606.6829,265.7053 607.1671,275.5145 606.7194,284.9477 605.3083,294.667 602.9468,304.2001 599.6579,313.4542 595.4735,322.3394 590.4344,330.7694 584.5895,338.662 577.9957,345.9406 570.7171,352.5344 562.8245,358.3793 554.3945,363.4184 545.8584,367.4581 536.6168,370.7821 527.0928,373.1798 517.3789,374.6278 507.5696,375.112 497.7604,374.6278 488.0465,373.1798 478.5224,370.7821 469.2808,367.4581 460.4115,363.2401 452.0008,358.169 444.1304,352.2942 437.1436,345.9406 430.7899,338.9538 424.9151,331.0834 419.8441,322.6726 415.626,313.8033 412.302,304.5617 409.9044,295.0377 408.4564,285.3238 407.9721,275.5145 408.4564,265.7053 409.9044,255.9914 412.302,246.4673 415.626,237.2257 419.6658,228.6896 424.7049,220.2597 430.5498,212.3671 437.1436,205.0885 444.4222,198.4947 452.3148,192.6498 460.7447,187.6107 469.63,183.4263 478.8841,180.1374 488.0465,177.8493 497.7604,176.4013 507.5696,175.917 517.3789,176.4013 527.0928,177.8493 536.6168,180.2469 545.8584,183.5709 554.7277,187.789 563.1385,192.86"/>
    <polygon points="418.5825,398.78 421.4817,404.928 423.766,411.3301 425.4134,417.9248 426.4082,424.649 426.7409,431.4382 426.4082,438.2275 425.4134,444.9516 423.766,451.5464 421.4817,457.9484 418.5825,464.0965 415.0961,469.9317 411.056,475.3981 406.5008,480.4433 401.4742,485.0191 395.7102,489.2913 389.8702,492.7698 383.7182,495.6606 377.313,497.9361 370.7161,499.5746 363.9906,500.5602 357.2009,500.8837 350.4121,500.5418 343.6893,499.5378 337.0968,497.8814 330.6979,495.5885 324.5537,492.6809 318.7233,489.1866 313.2624,485.1391 308.2234,480.577 303.6545,475.5442 299.5995,470.0888 296.0972,464.2631 293.1813,458.1229 290.8797,451.7271 289.2143,445.1369 288.2012,438.4154 287.8501,431.6271 288.2012,424.461 289.2143,417.7396 290.8797,411.1494 293.1813,404.7536 296.0972,398.6134 299.5995,392.7877 303.6545,387.3323 308.2234,382.2995 313.2624,377.7374 318.7233,373.6898 324.5537,370.1955 330.6979,367.288 337.0968,364.995 343.6893,363.3386 350.4121,362.3347 357.2009,361.9928 363.9906,362.3162 370.7161,363.3019 377.313,364.9403 384.0672,367.3606 390.2034,370.2848 396.0243,373.795 401.4742,377.8574 406.5008,382.4331 411.056,387.4784 415.0961,392.9448"/>
    <polygon points="344.4377,347.3395 352.724,343.6567 361.1816,340.3863 369.4286,337.6467 378.1619,335.2063 387.0048,333.1988 395.9358,331.6293 404.9333,330.5015 413.9754,329.8181 423.0402,329.5808 432.1056,329.7902 441.1498,330.4457 450.1507,331.5458 459.0865,333.0879 467.9355,335.068 476.3145,337.3724 484.9316,340.1958 493.3993,343.4401 501.6969,347.0974 509.8043,351.1589 517.702,355.6147 525.3706,360.454 532.7916,365.6651 539.9469,371.2353 546.8193,377.1511 553.3921,383.3981 559.6492,389.9612 565.5756,396.8245 571.1568,403.9713 576.3793,411.3842 581.2304,419.0454 585.6983,426.9361 589.7723,435.0373 593.2976,442.9802 596.5723,451.4362 599.4266,460.0431 601.8536,468.7802 603.8474,477.6261 605.4032,486.5595 606.5172,495.5587 607.1866,504.6019 607.41,513.667 607.1866,522.7321 606.5172,531.7752 605.4032,540.7744 603.8474,549.7079 601.8536,558.5538 599.4266,567.2909 596.5723,575.8978 593.2976,584.3538 589.6105,592.6382 585.52,600.731 581.0358,608.6125 576.169,616.2637 571.1568,623.3627 565.5756,630.5095 559.6492,637.3728 553.3921,643.9359 546.8193,650.1829 539.9469,656.0987 532.7916,661.6689 525.6848,666.6702 518.0262,671.5252 510.1377,675.9972 502.0386,680.0754 493.7486,683.7497 485.2876,687.0114 476.6763,689.8524 467.9355,692.2659 459.0865,694.2461 450.1507,695.7881 441.5258,696.8513 432.483,697.5254 423.418,697.7534 414.3528,697.5347 405.3093,696.8699 396.3095,695.7605 387.3753,694.2093 378.5283,692.2201 370.1517,689.9071 361.5375,687.0749 353.0732,683.8219 344.7793,680.1561 336.676,676.0862 328.783,671.6223 321.1194,666.7752 313.7037,661.5565 306.5541,655.979 299.6877,650.0561 293.1214,643.8023 286.871,637.2328 280.9517,630.3634 275.3778,623.2109 270.3729,616.1068 265.5139,608.4506 261.0379,600.5645 256.9556,592.4675 253.277,584.1793 250.011,575.72 247.1656,567.1101 244.7475,558.3706 242.7628,549.5226 241.2718,540.9613 240.1486,531.9633 239.4699,522.9208 239.2372,513.8559 239.4513,504.7906 240.1115,495.7468 241.2162,486.7464 242.7628,477.8114 244.6561,469.3301 247.0562,460.5856 249.884,451.9699 253.1326,443.5039 256.7942,435.2082 260.6825,427.4365 265.1262,419.532 269.9537,411.856 275.1533,404.427 280.7125,397.263 286.6177,390.3815 292.8546,383.7992 299.408,377.5319 306.2622,371.595 313.4004,366.0028 320.8053,360.7689 328.459,355.906 336.3428,351.4259"/>
    <polygon points="324.8218,400.2193 329.2809,392.7622 334.4508,385.7792 340.2816,379.3377 346.7168,373.5 353.6943,368.3226 361.1466,363.8556 369.0016,360.1421 377.1833,357.218 385.6127,355.1116 394.2081,353.8434 402.8866,353.4254 411.5642,353.8619 420.157,355.1486 428.5818,357.2729 436.7572,360.2145 444.6043,363.9448 452.047,368.4278 459.0134,373.6201 465.4361,379.4715 471.2531,385.9255 476.4081,392.9195 480.8512,400.3861 484.5395,408.2529 487.3282,416.0822 489.4436,424.5093 490.721,433.1034 491.1482,441.7815 490.721,450.4595 489.4436,459.0536 487.4373,467.1189 484.5395,475.31 480.8512,483.1768 476.4081,490.6434 471.2531,497.6374 465.4361,504.0914 459.0134,509.9428 452.047,515.1351 444.6043,519.6181 436.7572,523.3484 428.5818,526.29 420.157,528.4143 411.5642,529.701 402.8866,530.1375 394.2081,529.7196 385.6127,528.4513 377.1833,526.3449 369.0016,523.4208 361.1466,519.7073 353.6943,515.2403 346.7168,510.0629 340.2816,504.2252 334.4508,497.7837 329.2809,490.8007 324.8218,483.3437 321.1167,475.4847 318.2013,467.2999 316.1779,459.2389 314.882,450.6475 314.4363,441.9704 314.8449,433.2915 316.104,424.6946 318.2013,416.263 321.1167,408.0782"/>
    <polygon points="308.991,398.8642 312.3826,394.3273 316.1987,390.1412 320.6964,386.1073 325.2715,382.7674 330.1492,379.8876 335.2836,377.4951 340.626,375.6125 346.126,374.2576 351.7316,373.4432 357.3898,373.177 363.0471,373.4616 368.65,374.2941 374.1456,375.6668 379.4819,377.5668 384.9416,380.1541 389.7911,383.0812 394.3334,386.4654 398.5257,390.2747 402.3282,394.4731 405.705,399.0209 408.6242,403.8752 411.2027,409.3391 413.094,414.6784 414.4578,420.1762 415.2813,425.7805 415.5566,431.4382 415.2813,437.096 414.4578,442.7002 413.094,448.198 411.2027,453.5374 408.8019,458.6679 405.9142,463.541 402.5669,468.1106 398.5257,472.6018 394.3334,476.4111 389.7911,479.7953 384.9416,482.7224 379.4819,485.3097 374.1456,487.2096 368.65,488.5823 363.0471,489.4149 357.3898,489.6994 351.3557,489.396 345.7555,488.5452 340.2644,487.1547 334.9343,485.2375 329.8155,482.8118 324.9566,479.9004 320.4033,476.5309 316.1987,472.7352 312.3826,468.5492 308.7808,463.6984 305.8773,458.8347 303.4599,453.712 301.5513,448.3788 300.1697,442.8855 299.3281,437.2839 299.0344,431.6271 299.2914,425.9685 300.0967,420.3616 301.4427,414.8594 303.4599,409.1644 305.8773,404.0418"/>
    <polygon points="304.0854,396.1401 307.66,391.2687 311.9443,386.4879 316.6869,382.1614 321.5264,378.5437 326.6861,375.3996 332.4676,372.6093 338.5,370.4137 344.7224,368.8349 351.0719,367.8888 357.1065,367.5851 363.5188,367.8888 369.4977,368.7616 375.3673,370.1956 381.4253,372.3197 387.2393,375.0413 392.7508,378.333 397.9038,382.1614 402.3797,386.2203 406.6921,390.9757 410.2955,395.8259 413.4243,400.9949 416.1974,406.7846 418.3752,412.8235 419.9356,419.0505 420.8629,425.4028 421.1487,431.4382 420.8629,437.4737 419.9356,443.8259 418.3752,450.053 416.3423,455.7429 413.6034,461.5489 410.5053,466.7364 406.6921,471.9008 402.6464,476.3886 398.1946,480.474 393.0643,484.3328 387.9046,487.4769 382.1231,490.2671 376.0907,492.4628 369.8683,494.0416 363.5188,494.9876 357.4842,495.2914 351.0719,494.9876 345.093,494.1149 338.8614,492.5729 332.8161,490.413 327.0182,487.657 321.8399,484.5435 316.6869,480.7151 312.211,476.6561 307.8986,471.9008 304.2952,467.0506 300.9872,461.5489 298.3933,456.0918 296.2155,450.053 294.6551,443.8259 293.7646,437.8497 293.4419,431.4382 293.7646,425.0268 294.6551,419.0505 296.2155,412.8235 298.2484,407.1335 300.9872,401.3275"/>
    <polygon points="261.456,405.4964 266.8936,397.7719 272.6995,390.3204 279.1136,382.8791 285.6276,376.0378 292.4657,369.5206 299.6119,363.3427 307.0493,357.5187 315.0744,351.852 323.3751,346.5973 331.5969,341.9457 340.0346,337.6984 348.6684,333.8655 357.4779,330.4558 366.804,327.3674 376.274,324.7534 385.4931,322.6936 395.1751,321.0283 404.5526,319.8897 413.9743,319.2073 423.418,318.9827 432.8615,319.2165 442.2826,319.908 451.659,321.0558 461.3393,322.7304 470.5564,324.7992 480.0239,327.4224 488.9913,330.392 497.8042,333.7931 506.7833,337.7794 515.2169,342.0348 523.4341,346.6943 531.7297,351.9571 539.4462,357.4059 547.1811,363.4628 554.3213,369.6476 561.1531,376.1715 567.6603,383.0191 573.8278,390.1743 579.6409,397.6202 585.296,405.6535 590.5386,413.9619 595.1782,422.1904 599.4132,430.6343 603.2336,439.2736 606.7574,448.4441 609.7052,457.4187 612.2142,466.5258 614.2786,475.7439 615.8933,485.0512 617.0547,494.4259 617.7787,504.2234 618.0079,513.667 617.7787,523.1106 617.0547,532.908 615.8933,542.2828 614.2786,551.5901 612.2142,560.8082 609.7052,569.9152 606.7574,578.8899 603.2336,588.0603 599.4132,596.6997 595.1782,605.1436 590.5386,613.3721 585.296,621.6805 579.8659,629.4102 574.0672,636.8674 567.9137,644.0345 561.1531,651.1625 554.3213,657.6864 547.1811,663.8712 539.4462,669.928 531.7297,675.3769 523.758,680.445 515.5498,685.1205 507.1245,689.3923 498.1532,693.396 488.9913,696.942 480.0239,699.9116 470.9229,702.4428 461.7099,704.5294 452.4065,706.1668 442.6586,707.3888 433.2389,708.0987 423.418,708.3513 413.9743,708.1267 404.1765,707.4075 394.8012,706.2506 385.1225,704.5666 375.541,702.3965 366.4425,699.8565 357.4779,696.8782 348.6684,693.4685 339.6932,689.4735 331.2637,685.2099 323.051,680.5424 315.0744,675.482 307.3526,670.0407 299.9039,664.2312 292.7457,658.0672 285.6276,651.2962 279.1136,644.4549 272.9392,637.3057 266.8936,629.562 261.456,621.8376 256.2053,613.5343 251.5578,605.3103 247.3146,596.8706 243.4858,588.2349 240.0804,579.4237 237.1065,570.4577 234.4787,560.9915 232.4054,551.7754 230.7816,542.4696 229.6112,533.0961 228.8777,523.2993 228.6393,513.8559 228.8777,504.0347 229.5738,494.614 230.7261,485.2381 232.3318,475.9292 234.3872,466.7092 236.9966,457.2379 239.9531,448.2661 243.4858,439.0991 247.4764,430.1219 251.736,421.6904 256.3995,413.4754"/>
    <polygon points="267.097,372.466 274.1198,365.0646 281.4929,358.0119 289.4905,351.0843 297.826,344.5671 306.164,338.6868 314.7772,333.2172 323.6451,328.1713 332.747,323.5609 342.4104,319.2512 352.278,315.4324 361.9634,312.2238 371.7928,309.4881 382.1138,307.1575 392.165,305.4038 402.2893,304.139 412.463,303.3661 423.0401,303.086 433.6179,303.3376 443.7937,304.0831 454.2952,305.3759 464.348,307.1206 474.671,309.4419 484.5029,312.1688 494.1912,315.3687 503.713,319.0341 513.0462,323.1564 522.5023,327.9037 531.3838,332.9257 540.0116,338.372 548.3655,344.2298 556.7185,350.7246 564.7347,357.6307 572.1267,364.6634 579.1694,372.046 585.8462,379.761 592.3672,388.0935 598.2512,396.429 603.9192,405.3636 608.9532,414.2383 613.5514,423.3464 617.8481,433.0156 621.5263,442.5325 624.8492,452.5781 627.5716,462.4112 629.8884,472.7352 631.6285,482.7888 632.8797,492.9148 633.6576,503.467 633.9047,513.667 633.6576,523.867 632.8797,534.4192 631.6285,544.5452 629.8884,554.5988 627.6633,564.5562 624.9585,574.3942 621.6536,584.4456 617.9925,593.9691 613.7132,603.646 609.1314,612.7624 603.9192,621.9704 598.4613,630.5909 592.5923,638.9369 586.0863,647.2811 579.4233,655.0081 572.3939,662.4033 565.0145,669.4493 557.3025,676.1296 549.2759,682.4285 540.64,688.542 531.708,694.2141 522.8355,699.252 513.7294,703.8543 504.0622,708.1553 494.1912,711.9653 484.5029,715.1652 474.671,717.892 464.348,720.2134 454.2952,721.9581 444.1698,723.2138 433.6179,723.9964 423.418,724.2482 413.2179,724.0056 402.6654,723.2324 392.5388,721.9858 382.4845,720.2502 372.5261,718.0295 362.6869,715.3292 352.6339,712.0288 343.1088,708.3719 333.43,704.097 324.3116,699.5192 315.1012,694.3113 306.4783,688.8572 297.826,682.7669 289.7825,676.4896 282.0525,669.8301 274.6542,662.804 267.6049,655.4278 260.9211,647.7188 254.3927,639.3921 248.5012,631.0619 242.8251,622.1324 237.7832,613.2622 233.1768,604.1582 228.8715,594.4929 225.0571,584.6236 221.8528,574.9367 219.1216,565.1061 216.8697,555.1547 215.1024,545.1059 213.7861,534.6072 213.0178,524.4332 212.7425,513.856 212.9988,503.2782 213.7489,493.1028 214.9909,482.9757 216.7221,472.9206 218.9382,462.9612 221.6342,453.1208 224.8037,443.4225 228.5826,433.5396 232.6924,424.2009 237.4269,414.7384 242.437,405.8501 248.0809,396.9003 253.9425,388.5491 260.2017,380.4915"/>
    <polygon points="244.4665,342.9439 250.9692,346.7864 257.0506,351.2662 262.3808,356.0704 267.4661,361.6553 271.7512,367.4112 275.643,373.8846 278.7167,380.3688 281.2641,387.4795 283.0071,394.4404 284.1113,401.9124 284.456,409.08 284.1113,416.2475 283.0802,423.3489 281.2641,430.6805 278.8611,437.442 275.8202,443.9417 271.9612,450.4346 267.7052,456.2121 262.6483,461.8227 257.3424,466.6539 251.2839,471.1643 244.8007,475.0397 238.3087,478.097 231.5533,480.5172 224.5968,482.2778 217.5035,483.3627 209.9609,483.7637 202.7926,483.4371 195.3177,482.3519 187.9908,480.5172 181.2354,478.097 174.7434,475.0397 168.2602,471.1643 162.4935,466.8938 156.8957,461.8227 151.8388,456.2121 147.5829,450.4346 143.9011,444.2754 140.8274,437.7911 138.28,430.6805 136.5369,423.7196 135.4328,416.2475 135.0881,409.08 135.4328,401.9124 136.4638,394.8111 138.28,387.4795 140.683,380.718 143.9011,373.8846 147.5829,367.7253 152.078,361.6553 156.8957,356.3373 162.4935,351.2662 168.2602,346.9956 174.7434,343.1202 181.2354,340.0629 188.3524,337.5335 195.3177,335.8081 202.4165,334.7591 209.5831,334.3962 216.7515,334.7229 224.2263,335.8081 231.1916,337.5335 237.9592,339.9194"/>
    <polygon points="290.3117,289.6885 286.8896,299.2951 282.5166,308.5077 277.4482,316.9191 271.5871,324.7988 264.9887,332.0722 257.423,338.91 249.5214,344.7416 241.0911,349.7785 232.2115,353.9732 222.9667,357.2859 213.4439,359.6854 203.3571,361.1865 193.5483,361.6638 183.7394,361.1865 173.6526,359.6854 164.1299,357.2859 154.885,353.9732 146.0055,349.7785 137.2609,344.5317 129.3813,338.6706 122.1079,332.0722 115.5095,324.7988 109.6484,316.9191 104.58,308.5077 100.2069,299.2951 96.7848,289.6885 94.4209,280.1568 92.9936,270.4407 92.5163,260.6318 92.9936,250.8229 94.4946,240.7362 96.8942,231.2134 100.2069,221.9685 104.58,212.7559 109.6484,204.3445 115.5095,196.4648 122.1079,189.1914 129.3813,182.593 137.2609,176.7319 146.0055,171.4851 154.885,167.2904 164.1299,163.9777 173.6526,161.5782 183.7394,160.0771 193.5483,159.5998 203.3571,160.0771 213.4439,161.5782 222.9667,163.9777 232.2115,167.2904 241.0911,171.4851 249.8356,176.7319 257.7153,182.593 264.9887,189.1914 271.8265,196.7571 277.6581,204.6586 282.695,213.089 286.8896,221.9685 290.3117,231.5751 292.6756,241.1068 294.103,250.8229 294.5802,260.6318 294.103,270.4407 292.6756,280.1568"/>
    <polygon points="95.0226,219.9489 99.5374,210.3887 104.7675,201.637 111.0485,193.1322 118.1411,185.2914 125.9756,178.1919 134.4748,171.9034 143.2219,166.6655 152.7781,162.1422 162.7354,158.5878 172.6254,156.1108 183.0825,154.5522 193.265,154.0376 203.826,154.5338 214.2859,156.0739 224.1803,158.5334 234.1439,162.0701 243.7081,166.5765 252.7789,172.0082 261.2669,178.3118 268.8218,185.1579 275.688,192.6946 282.0141,201.1659 287.4699,210.2222 292.0017,219.7744 295.4548,229.3672 298.0507,239.6163 299.6185,250.0721 300.1429,260.6318 299.6185,271.1915 298.0507,281.6473 295.5649,291.535 292.0017,301.4892 287.4699,311.0414 282.2243,319.7839 275.9283,328.2775 268.8218,336.1057 261.2669,342.9518 252.7789,349.2554 243.7081,354.6871 234.1439,359.1935 224.5419,362.621 214.2859,365.1897 203.826,366.7298 193.6427,367.2264 183.0825,366.7114 172.6254,365.1528 162.374,362.566 152.7781,359.1214 143.2219,354.5981 134.4748,349.3602 125.9756,343.0717 118.1411,335.9722 111.0485,328.1314 104.9772,319.9409 99.7161,311.2078 95.1674,301.6636 91.6973,292.0769 89.0832,281.8324 87.4969,271.3794 86.9538,260.8207 87.4595,250.2601 88.9356,240.1721 91.477,229.9094"/>
    <polygon points="183.3395,473.4491 176.8502,470.3843 171.0244,466.8786 165.5685,462.8211 160.5347,458.2506 155.9709,453.2105 151.9208,447.7491 148.4231,441.9185 145.5111,435.7744 143.2126,429.3755 141.5496,422.7827 140.538,416.0591 140.1873,409.2689 140.5011,402.4769 141.4762,395.7479 143.1034,389.1463 145.3671,382.7349 148.2457,376.5751 151.7117,370.7256 155.9709,364.9495 160.5347,359.9094 165.5685,355.3388 171.0244,351.2813 176.8502,347.7757 182.9904,344.8553 189.3862,342.5482 195.9767,340.8762 202.6989,339.8555 209.4886,339.4956 216.2811,339.8001 223.0113,340.7661 229.6152,342.3843 236.0297,344.6393 242.1934,347.5095 248.0476,350.9676 253.5363,354.9805 258.8757,359.7759 263.4531,364.8035 267.518,370.2539 271.0316,376.075 273.9603,382.2111 276.2761,388.6039 277.957,395.1921 278.9869,401.9129 279.357,409.08 278.9869,416.2471 277.957,422.9679 276.2761,429.5561 273.9603,435.9488 271.0316,442.085 267.518,447.9061 263.4531,453.3564 258.8757,458.3841 253.8295,462.941 248.3626,466.9836 242.5273,470.4735 236.3792,473.3771 229.9771,475.6669 223.3821,477.321 216.6572,478.3235 209.8665,478.6649 203.0749,478.3419 196.3473,477.3577 189.7478,475.7215"/>
    <polygon points="234.8612,532.3416 234.1644,522.9214 233.9383,513.8559 234.1644,504.4126 234.8243,495.3684 235.9163,486.3662 237.5107,477.0557 239.5673,467.8363 241.9718,459.0926 244.9186,450.118 248.3091,441.3015 252.1351,432.665 256.3869,424.23 261.0541,416.0175 265.9144,408.3618 271.3609,400.6441 276.9454,393.4994 283.1193,386.3502 289.3745,379.7847 296.2167,373.2723 303.0829,367.3488 310.2248,361.7608 317.9398,356.3104 325.917,351.2516 334.1364,346.5967 342.2361,342.519 350.8707,338.6887 359.6856,335.2937 368.6587,332.3425 377.7679,329.8424 386.6196,327.8724 395.5554,326.3284 404.931,325.1769 413.9748,324.5125 423.418,324.2817 432.4836,324.5033 441.9042,325.1953 451.2786,326.3562 460.2129,327.9091 469.0626,329.8879 478.1693,332.3971 487.1395,335.3573 495.9509,338.7611 504.2402,342.4382 512.6773,346.6858 520.8921,351.3488 528.5502,356.2054 535.9671,361.423 543.4181,367.2289 550.2903,373.1456 557.139,379.6512 563.6548,386.4901 569.8215,393.6455 575.3989,400.7957 580.8376,408.5189 585.6904,416.1794 590.3493,424.3966 594.4311,432.4942 598.2657,441.1269 601.5376,449.5843 604.5111,458.5501 607.034,467.653 609.026,476.4997 610.6483,485.8054 611.8045,495.1804 612.4918,504.6013 612.7089,513.667 612.4918,522.7326 611.8045,532.1536 610.6483,541.5286 609.0998,550.4637 607.1254,559.3144 604.6208,568.4223 601.7919,577.038 598.4101,585.8579 594.5927,594.4982 590.3493,602.9374 585.6904,611.1546 580.8376,618.8151 575.3989,626.5383 569.8215,633.6885 563.9083,640.5636 557.4061,647.4156 550.5704,653.9348 543.7101,659.8651 536.2707,665.686 528.5502,671.1286 520.8921,675.9852 512.6773,680.6482 504.2402,684.8958 495.9509,688.5729 487.1395,691.9767 478.1693,694.9369 469.4292,697.3545 460.2129,699.4249 451.2786,700.9778 441.9042,702.1387 432.861,702.8121 423.418,703.0523 414.3523,702.8398 404.931,702.1571 395.5554,701.0056 386.6196,699.4616 377.7679,697.4916 368.6587,694.9915 359.6856,692.0403 351.22,688.7895 342.9198,685.1372 334.47,680.9149 326.5659,676.4699 318.5686,671.4428 311.1362,666.2475 303.6678,660.4638 296.4971,654.315 289.6419,647.8163 283.1193,640.9838 276.9454,633.8346 271.3609,626.6899 265.9144,618.9722 261.0541,611.3165 256.3869,603.104 252.1351,594.669 248.4539,586.3816 245.1736,577.9274 242.191,568.9646 239.6591,559.8643 237.5841,550.649 235.9711,541.3417"/>
    <polygon points="324.7405,577.7382 332.9246,574.8338 341.3506,572.7317 350.3159,571.4147 358.9904,571.0048 368.04,571.4705 376.6266,572.7687 385.0482,574.8885 393.575,577.9549 401.4178,581.6841 409.1783,586.3622 416.1381,591.5562 422.5648,597.3968 428.6381,604.1219 433.7954,611.1089 438.4328,618.8938 442.1208,626.756 445.0338,634.9371 447.218,643.7314 448.4711,652.3248 448.8901,660.9989 448.4339,670.0489 447.1448,678.6369 445.0338,687.0607 441.9764,695.5908 438.2554,703.4375 433.7954,710.8889 428.3987,718.1681 422.5648,724.601 416.1381,730.4416 408.8646,735.8459 401.4178,740.3137 393.2262,744.1877 385.0482,747.1093 376.6266,749.2291 368.04,750.5273 358.9904,750.993 349.94,750.5463 341.3506,749.2661 332.5632,747.0543 324.3913,744.1155 316.5408,740.4028 309.0846,735.9506 301.7998,730.5616 295.3608,724.7344 289.2735,718.0221 284.1014,711.046 279.6259,703.6039 275.8884,695.7651 272.8131,687.2414 270.6845,678.8221 269.3773,670.2368 268.9021,661.1878 269.3029,652.5128 270.6104,643.5461 272.8131,634.7564 275.7433,626.5815 279.4477,618.727 284.1014,610.9518 289.2735,603.9757 295.3608,597.2634 301.7998,591.4362 309.0846,586.0472 316.8744,581.418"/>
    <polygon points="369.9044,538.9126 369.1808,524.5793 369.8673,510.2441 371.9574,496.0456 375.4307,482.1206 380.2539,468.6038 386.2028,455.9591 393.5414,443.6257 402.0549,432.0721 411.6612,421.4097 422.2675,411.7415 433.7715,403.1608 446.0619,395.7506 459.0203,389.5823 472.5215,384.7154 486.4351,381.1971 500.6268,379.0611 514.9597,378.3283 529.2953,379.0055 543.4952,381.0864 557.4223,384.5507 570.9423,389.3651 583.9245,395.4831 596.2436,402.8456 607.7808,411.3816 618.4245,421.0085 628.0721,431.6336 636.6304,443.1541 644.0168,455.459 650.1599,468.4293 655.0006,481.9399 658.4919,495.8603 660.6003,510.0561 661.3054,524.3904 660.6003,538.7246 658.5653,552.5498 655.1099,566.4792 650.3042,580.0023 644.1947,592.9884 636.8401,605.3123 628.3116,616.855 618.6916,627.5049 608.0728,637.1594 596.5578,645.7251 584.2577,653.1195 571.2914,659.271 557.7839,664.1204 543.8658,667.6208 529.6713,669.7384 515.3375,670.4527 501.0028,669.7569 486.8056,667.6577 472.8829,664.1753 459.3692,659.3434 446.3949,653.2086 434.0853,645.8302 422.5592,637.2794 411.928,627.6386 402.2941,617.0011 393.7507,605.4695 386.3803,593.1552 380.3986,580.5259 375.5405,567.0216 372.0312,553.1057"/>
    <polygon points="498.7751,452.5426 512.2287,450.5671 525.4337,449.9309 539.0149,450.6039 552.463,452.6165 565.6461,455.9488 578.0864,460.4229 590.3722,466.2505 602.0216,473.2642 612.6288,481.1551 622.6955,490.2964 631.809,500.3882 639.6707,511.017 646.4742,522.3525 652.3017,534.6382 656.886,547.44 660.1821,560.6323 662.1208,573.7098 662.7938,587.2909 662.1208,600.8721 660.1821,613.9496 656.886,627.1419 652.3017,639.9436 646.4742,652.2294 639.6707,663.5648 631.809,674.1937 622.6955,684.2855 612.9205,693.1865 602.0216,701.3177 590.3722,708.3314 578.0864,714.1589 565.2847,718.7432 552.0924,722.0393 539.0149,723.978 525.4337,724.651 511.8526,723.978 498.7751,722.0393 485.5828,718.7432 472.781,714.1589 460.8285,708.5096 449.1598,701.5279 438.2387,693.4268 428.4392,684.5527 419.2979,674.486 411.1968,663.5648 404.3933,652.2294 398.5657,639.9436 393.9815,627.1419 390.6854,613.9496 388.7099,600.496 388.0736,587.2909 388.7099,574.0859 390.6854,560.6323 393.9815,547.44 398.5657,534.6382 404.3933,522.3525 411.1968,511.017 419.2979,500.0959 428.4392,490.0292 438.2387,481.1551 449.1598,473.054 460.8285,466.0723 473.1302,460.2786 485.9446,455.7295"/>
    <polygon points="263.5388,660.9989 264.0061,651.57 265.3298,642.6041 267.6072,633.4425 270.7794,624.5509 274.6376,616.35 279.4654,608.2374 285.0717,600.6419 291.4015,593.638 298.3929,587.2943 305.6634,581.8832 313.7472,577.0073 322.2735,572.9546 331.1588,569.7649 340.3159,567.4693 349.6551,566.0905 358.7071,565.6419 368.1369,566.0905 377.4761,567.4693 386.6332,569.7649 395.1694,572.8102 403.3779,576.6522 411.5001,581.4639 419.1067,587.0551 426.1231,593.3711 432.4807,600.3499 438.117,607.9231 442.9769,616.0166 447.0127,624.5509 450.1848,633.4425 452.4622,642.6041 453.7859,651.57 454.2532,660.9989 453.7859,670.4278 452.3886,679.7642 450.1848,688.5553 447.0127,697.4469 442.9769,705.9812 438.3266,713.7604 432.7204,721.3559 426.3905,728.3598 419.3991,734.7035 411.8147,740.3249 404.0448,744.9905 395.5185,749.0432 386.6332,752.2329 377.8465,754.4541 368.5128,755.87 359.0849,756.3559 349.6551,755.9073 340.3159,754.5285 331.1588,752.2329 322.6226,749.1876 314.0803,745.1687 305.9773,740.3249 298.3929,734.7035 291.4015,728.3598 285.0717,721.3559 279.4654,713.7604 274.6376,705.6478 270.7794,697.4469 267.6072,688.5553 265.3298,679.3937 264.0061,670.4278"/>
    <polygon points="337.7535,731.815 330.6357,729.2871 324.1461,726.2244 317.9841,722.5467 312.2078,718.2888 306.8717,713.4907 302.0261,708.1978 297.5055,702.1465 293.8043,695.9987 290.7167,689.5209 288.2719,682.7741 286.493,675.8221 285.3967,668.7303 284.9914,661.1878 285.3215,654.0194 286.3452,646.9168 288.053,639.9469 290.5718,632.8259 293.6262,626.3323 297.2959,620.1657 301.5465,614.384 306.3377,609.0417 311.6245,604.1894 317.3569,599.8726 323.8131,595.9519 330.2869,592.8561 337.0305,590.4027 343.9803,588.6149 351.0707,587.5095 358.6126,587.0946 365.7815,587.4155 372.8854,588.4302 380.2195,590.2371 386.9817,592.6387 393.4791,595.6848 399.6505,599.3467 405.7305,603.8285 411.0543,608.6402 415.8864,613.9455 420.3915,620.0083 424.077,626.1656 427.148,632.6513 429.685,639.7659 431.4106,646.7314 432.4524,653.8313 432.8008,660.9989 432.4524,668.1665 431.4106,675.2664 429.5755,682.5935 427.148,689.3465 424.077,695.8322 420.3915,701.9895 416.1262,707.7603 411.3213,713.0903 406.0222,717.9291 400.2787,722.2312 394.1451,725.956 387.3308,729.2146 380.581,731.6508 373.6267,733.4208 366.1576,734.5461 358.9905,734.9037 351.8225,734.5644 344.7212,733.5316"/>
    <polygon points="307.8133,761.6204 309.1894,752.2817 311.3715,743.4862 314.52,734.5872 318.5314,726.0425 323.3664,717.9354 328.9781,710.345 335.3114,703.3455 342.3046,697.0053 349.8894,691.3861 357.9918,686.543 366.5326,682.5232 375.0668,679.4753 384.2218,677.1752 393.559,675.7898 402.9875,675.3328 412.4149,675.8085 421.379,677.1384 430.5385,679.4204 439.4281,682.5953 447.9609,686.632 456.0536,691.4911 463.3353,696.8856 470.341,703.212 476.6882,710.199 482.3148,717.7782 487.1659,725.8758 491.1942,734.4126 494.3602,743.3053 496.5597,752.0965 497.9543,761.4324 498.4207,770.8604 497.9908,779.9124 496.6332,789.2537 494.3602,798.4154 491.1942,807.3081 487.1659,815.8449 482.3148,823.9425 476.9275,831.2295 470.608,838.2415 463.6273,844.5955 456.0536,850.2296 447.9609,855.0887 439.4281,859.1254 430.5385,862.3003 421.379,864.5823 412.4149,865.9123 402.9875,866.388 393.559,865.9309 384.2218,864.5456 375.0668,862.2454 366.5326,859.1975 357.9918,855.1777 349.8894,850.3346 342.3046,844.7155 335.3114,838.3752 329.2179,831.6675 323.5763,824.0994 318.7092,816.0115 314.6641,807.4826 311.4805,798.5962 309.1894,789.439 307.8133,780.1004 307.3656,771.0492"/>
    <polygon points="318.4861,779.3457 318.0609,771.0492 318.4861,762.375 319.7208,754.1599 321.753,746.1049 324.5634,738.2874 328.1249,730.7822 332.4034,723.6613 337.3579,716.9931 342.9409,710.8414 349.0988,705.2653 355.7725,700.3183 362.8981,696.0477 370.4073,692.4945 378.228,689.6929 386.2852,687.6696 394.5016,686.4441 402.7986,686.0281 411.0964,686.4256 419.3156,687.6328 427.3773,689.6381 435.2042,692.4224 442.7213,695.9588 449.8564,700.2135 456.5411,705.1457 462.7114,710.7081 468.308,716.8473 473.2773,723.5045 477.5717,730.6158 481.1499,738.1131 483.9777,745.9244 486.0279,753.9748 487.3186,762.563 487.7254,770.8604 487.3186,779.1578 486.1023,787.3756 484.0879,795.4351 481.295,803.2588 477.7502,810.772 473.4875,817.9023 468.5479,824.5816 462.9786,830.7456 456.8332,836.3354 450.1705,841.2974 443.0544,845.5838 435.5532,849.1537 427.7387,851.9727 419.3156,854.0879 411.0964,855.2951 402.7986,855.6927 394.5016,855.2767 386.2852,854.0512 378.228,852.0279 370.4073,849.2262 362.8981,845.673 355.7725,841.4024 349.0988,836.4554 342.9409,830.8793 337.3579,824.7276 332.4034,818.0594 328.1249,810.9385 324.5634,803.4333 321.753,795.6158 319.7208,787.5608"/>
    <polygon points="402.893,861.0404 394.2183,860.6222 385.2535,859.2984 376.8281,857.1914 368.2954,854.1396 360.112,850.2469 352.674,845.7635 345.4101,840.3452 338.9927,834.4936 332.929,827.7591 327.7802,820.7652 323.1509,812.9748 319.4696,805.1088 316.5619,796.9253 314.455,788.4999 313.1312,779.5351 312.713,770.8604 313.1312,762.1857 314.455,753.2208 316.5619,744.7955 319.6137,736.2627 323.328,728.4123 327.9899,720.6413 333.4081,713.3775 339.2598,706.9601 345.7017,701.1353 352.9882,695.7475 360.4449,691.2953 368.6445,687.4369 376.8281,684.5293 385.2535,682.4224 393.8424,681.1357 402.893,680.6804 411.9436,681.1357 420.5326,682.4224 428.9579,684.5293 437.1415,687.4369 445.3411,691.2953 452.7979,695.7475 460.0844,701.1353 466.5262,706.9601 472.6181,713.669 477.7962,720.6413 482.458,728.4123 486.1723,736.2627 489.2241,744.7955 491.331,753.2208 492.6548,762.1857 493.073,770.8604 492.6548,779.5351 491.331,788.4999 489.2241,796.9253 486.1723,805.458 482.458,813.3084 477.7962,821.0794 472.6181,828.0517 466.7933,834.4936 460.3759,840.3452 453.1121,845.7635 445.674,850.2469 437.4906,854.1396 428.9579,857.1914 420.5326,859.2984 411.5677,860.6222"/>
    <polygon points="459.1639,826.9977 453.2902,832.3253 447.2289,836.8312 440.7673,840.7414 433.6156,844.1675 426.1582,846.864 418.8395,848.729 411.001,849.9304 403.0819,850.3448 395.537,850.0039 387.6875,848.8771 379.9893,846.9737 372.8686,844.4562 366.019,841.2743 359.1862,837.2496 352.7885,832.5642 346.8895,827.2645 341.548,821.4035 337.0277,815.3529 332.9222,808.5684 329.5131,801.4087 326.8343,793.9449 324.9867,786.6217 323.8039,778.7804 323.4083,770.8604 323.7671,763.3163 324.9126,755.4695 326.8343,747.7759 329.5131,740.312 332.9222,733.1523 336.817,726.6814 341.3085,720.6094 346.6221,714.723 352.4958,709.3954 358.5572,704.8895 365.0188,700.9793 372.1704,697.5532 379.6279,694.8567 387.3169,692.9168 395.1609,691.7526 402.7041,691.3759 410.2491,691.7168 418.0986,692.8436 425.7967,694.747 433.2669,697.408 440.4347,700.8001 446.9148,704.6796 453.2902,709.3954 458.8965,714.4562 463.9971,720.0263 468.7583,726.3678 472.8639,733.1523 476.273,740.312 478.9517,747.7759 480.8734,755.4695 482.0189,763.3163 482.3777,770.8604 481.9822,778.7804 480.7994,786.6217 478.9517,793.9449 476.273,801.4087 473.0423,808.2355 468.969,815.0393 464.2381,821.4035"/>
  </g>
</svg>
