<?xml version="1.0" encoding="utf-8" ?>
<svg xmlns="http://www.w3.org/2000/svg" xmlns:cc="http://creativecommons.org/ns" xmlns:dc="http://purl.org/dc/elements/1.1/" xmlns:ev="http://www.w3.org/2001/xml-events" xmlns:inkscape="http://www.inkscape.org/namespaces/inkscape" xmlns:rdf="http://www.w3.org/1999/02/22-rdf-syntax-ns" xmlns:sodipodi="http://sodipodi.sourceforge.net/DTD/sodipodi-0.dtd" xmlns:xlink="http://www.w3.org/1999/xlink" baseProfile="tiny" height="29.7cm" version="1.2" viewBox="0 0 793.7007874015749 1122.5196850393702" width="21.0cm">
  <metadata>
    <rdf:RDF>
      <cc:Work>
        <dc:format>image/svg+xml</dc:format>
        <dc:source>Vsketch with params {'__seed__': 0, 'debug': True, 'mode': 'circle', 'border': 'simple', 'N_stars': 150, 'inner_padding': 1.0, 'border_padding': 0.5, 'eps': 1.0}</dc:source>
        <dc:date>2023-06-26T20:26:42.099307</dc:date>
      </cc:Work>
    </rdf:RDF>
  </metadata>
  <defs/>
  <g fill="none" id="layer1" inkscape:groupmode="layer" inkscape:label="1" stroke="#0000ff" style="display:inline">
    <polygon points="601.2363,617.0783 600.7742,616.7098 600.5178,617.2423 600.7742,617.4468"/>
    <polygon points="613.2503,671.6927 611.8085,671.287 610.3223,671.4733 609.0252,672.2222 608.1208,673.4161 607.7512,674.8676 607.9744,676.3486 608.7554,677.6267 609.9716,678.501 611.4318,678.8343 612.9068,678.5742 614.165,677.7616 615.0088,676.5241 615.3055,675.056 615.0088,673.5879 614.4213,672.6265"/>
    <line x1="677.1648" x2="680.9443" y1="717.2994" y2="717.2994"/>
    <line x1="679.0546" x2="679.0546" y1="715.4096" y2="719.1891"/>
    <line x1="602.2121" x2="602.2121" y1="824.2047" y2="827.9843"/>
    <line x1="600.3223" x2="604.1018" y1="826.0945" y2="826.0945"/>
    <line x1="476.1573" x2="472.3778" y1="723.4636" y2="723.4636"/>
    <line x1="474.2675" x2="474.2675" y1="721.5738" y2="725.3534"/>
    <line x1="468.9458" x2="465.1663" y1="721.7546" y2="721.7546"/>
    <line x1="467.0561" x2="467.0561" y1="719.8648" y2="723.6443"/>
    <line x1="483.2435" x2="483.2435" y1="664.5277" y2="660.7482"/>
    <line x1="481.3537" x2="485.1332" y1="662.6379" y2="662.6379"/>
    <line x1="449.7624" x2="445.9829" y1="633.6615" y2="633.6615"/>
    <line x1="447.8727" x2="447.8727" y1="631.7717" y2="635.5513"/>
    <line x1="402.7853" x2="399.0058" y1="591.3829" y2="591.3829"/>
    <line x1="400.8956" x2="400.8956" y1="589.4931" y2="593.2727"/>
    <line x1="366.6186" x2="362.8391" y1="620.9663" y2="620.9663"/>
    <line x1="364.7289" x2="364.7289" y1="619.0765" y2="622.8561"/>
    <line x1="308.5405" x2="304.761" y1="656.5286" y2="656.5286"/>
    <line x1="306.6508" x2="306.6508" y1="654.6388" y2="658.4183"/>
    <line x1="270.3002" x2="266.5206" y1="624.3834" y2="624.3834"/>
    <line x1="268.4104" x2="268.4104" y1="622.4937" y2="626.2732"/>
    <line x1="225.658" x2="221.8785" y1="603.3382" y2="603.3382"/>
    <line x1="223.7682" x2="223.7682" y1="601.4485" y2="605.228"/>
    <line x1="223.8001" x2="223.8001" y1="598.0662" y2="594.2867"/>
    <line x1="221.9103" x2="225.6898" y1="596.1764" y2="596.1764"/>
    <line x1="217.0749" x2="217.0749" y1="644.2002" y2="647.9797"/>
    <line x1="215.1852" x2="218.9647" y1="646.09" y2="646.09"/>
    <line x1="227.9603" x2="227.9603" y1="715.8495" y2="719.629"/>
    <line x1="226.0706" x2="229.8501" y1="717.7392" y2="717.7392"/>
    <line x1="237.0207" x2="237.0207" y1="751.6991" y2="755.4787"/>
    <line x1="235.1309" x2="238.9104" y1="753.5889" y2="753.5889"/>
    <line x1="240.4173" x2="240.4173" y1="814.5411" y2="818.3207"/>
    <line x1="238.5275" x2="242.3071" y1="816.4309" y2="816.4309"/>
    <line x1="293.487" x2="293.487" y1="881.355" y2="885.1345"/>
    <line x1="291.5972" x2="295.3767" y1="883.2448" y2="883.2448"/>
    <line x1="360.7453" x2="364.5248" y1="898.6773" y2="898.6773"/>
    <line x1="362.635" x2="362.635" y1="896.7875" y2="900.5671"/>
    <line x1="340.6295" x2="340.6295" y1="556.3646" y2="552.5851"/>
    <line x1="338.7398" x2="342.5193" y1="554.4748" y2="554.4748"/>
    <line x1="364.7688" x2="364.7688" y1="515.7605" y2="511.981"/>
    <line x1="362.879" x2="366.6586" y1="513.8708" y2="513.8708"/>
    <line x1="377.6142" x2="381.3938" y1="522.937" y2="522.937"/>
    <line x1="379.504" x2="379.504" y1="521.0472" y2="524.8268"/>
    <line x1="293.1364" x2="289.3569" y1="473.7348" y2="473.7348"/>
    <line x1="291.2466" x2="291.2466" y1="471.8451" y2="475.6246"/>
    <line x1="245.4163" x2="241.6368" y1="430.0727" y2="430.0727"/>
    <line x1="243.5265" x2="243.5265" y1="428.1829" y2="431.9625"/>
    <line x1="267.7682" x2="267.7682" y1="406.0941" y2="402.3146"/>
    <line x1="269.6579" x2="265.8784" y1="404.2044" y2="404.2044"/>
    <line x1="268.4872" x2="268.4872" y1="361.8939" y2="358.1144"/>
    <line x1="266.5975" x2="270.377" y1="360.0042" y2="360.0042"/>
    <line x1="288.7828" x2="288.7828" y1="298.6899" y2="294.9104"/>
    <line x1="286.893" x2="290.6725" y1="296.8001" y2="296.8001"/>
    <line x1="275.21" x2="275.21" y1="266.332" y2="262.5525"/>
    <line x1="273.3202" x2="277.0998" y1="264.4423" y2="264.4423"/>
    <line x1="353.9686" x2="357.7481" y1="263.2643" y2="263.2643"/>
    <line x1="355.8584" x2="355.8584" y1="265.154" y2="261.3745"/>
    <line x1="407.7433" x2="407.7433" y1="362.7946" y2="366.5742"/>
    <line x1="405.8536" x2="409.6331" y1="364.6844" y2="364.6844"/>
    <line x1="443.6998" x2="447.4793" y1="341.0926" y2="341.0926"/>
    <line x1="445.5895" x2="445.5895" y1="339.2029" y2="342.9824"/>
    <line x1="544.9654" x2="548.745" y1="376.6465" y2="376.6465"/>
    <line x1="546.8552" x2="546.8552" y1="374.7568" y2="378.5363"/>
    <line x1="559.529" x2="559.529" y1="352.6503" y2="348.8707"/>
    <line x1="557.6392" x2="561.4188" y1="350.7605" y2="350.7605"/>
    <line x1="567.3028" x2="567.3028" y1="297.6016" y2="293.8221"/>
    <line x1="565.4131" x2="569.1926" y1="295.7119" y2="295.7119"/>
    <line x1="649.7201" x2="653.4997" y1="350.215" y2="350.215"/>
    <line x1="651.6099" x2="651.6099" y1="348.3252" y2="352.1047"/>
    <line x1="641.7238" x2="641.7238" y1="376.1586" y2="379.9381"/>
    <line x1="639.8341" x2="643.6136" y1="378.0483" y2="378.0483"/>
    <line x1="674.0425" x2="674.0425" y1="431.2222" y2="435.0017"/>
    <line x1="672.1527" x2="675.9322" y1="433.112" y2="433.112"/>
    <line x1="717.2987" x2="717.2987" y1="478.2803" y2="482.0598"/>
    <line x1="715.4089" x2="719.1884" y1="480.17" y2="480.17"/>
    <line x1="719.2341" x2="719.2341" y1="571.3064" y2="575.0859"/>
    <line x1="717.3443" x2="721.1238" y1="573.1961" y2="573.1961"/>
    <line x1="717.187" x2="713.4075" y1="578.2757" y2="578.2757"/>
    <line x1="715.2972" x2="715.2972" y1="576.3859" y2="580.1654"/>
    <line x1="120.5034" x2="116.7238" y1="612.2859" y2="612.2859"/>
    <line x1="118.6136" x2="118.6136" y1="610.3961" y2="614.1756"/>
    <line x1="113.4785" x2="113.4785" y1="580.9992" y2="577.2197"/>
    <line x1="111.5887" x2="115.3682" y1="579.1095" y2="579.1095"/>
    <line x1="76.1229" x2="72.3433" y1="553.3099" y2="553.3099"/>
    <line x1="74.2331" x2="74.2331" y1="551.4202" y2="555.1997"/>
    <line x1="65.7278" x2="65.7278" y1="583.5806" y2="587.3601"/>
    <line x1="63.8381" x2="67.6176" y1="585.4703" y2="585.4703"/>
    <line x1="86.2305" x2="86.2305" y1="637.5978" y2="641.3774"/>
    <line x1="84.3408" x2="88.1203" y1="639.4876" y2="639.4876"/>
    <line x1="113.6133" x2="113.6133" y1="481.4106" y2="477.631"/>
    <line x1="111.7235" x2="115.503" y1="479.5208" y2="479.5208"/>
    <line x1="99.6721" x2="99.6721" y1="402.6907" y2="398.9112"/>
    <line x1="97.7824" x2="101.5619" y1="400.8009" y2="400.8009"/>
    <line x1="112.2154" x2="115.9949" y1="398.2416" y2="398.2416"/>
    <line x1="114.1052" x2="114.1052" y1="396.3518" y2="400.1313"/>
    <polygon points="104.6141,321.5805 93.2267,336.1801 82.5679,351.3198 72.6634,366.9634 63.537,383.0733 55.2104,399.6108 47.7037,416.5363 41.035,433.8091 35.2202,451.3877 30.2732,469.2301 26.1323,487.6639 22.9728,505.9078 20.7106,524.2845 19.3512,542.75 18.8976,561.2598 19.3512,579.7697 20.7106,598.2352 22.9728,616.6119 26.1323,634.8558 30.1814,652.923 35.1105,670.7703 40.9077,688.3548 47.7037,705.9834 55.2104,722.9088 63.7153,739.7795 72.8579,755.8803 82.778,771.514 93.4519,786.6431 104.8539,801.2313 116.9566,815.2436 129.7311,828.6464 143.1466,841.4074 157.171,853.4962 171.7706,864.8836 186.9104,875.5423 202.8782,885.6409 218.9972,894.7513 235.5431,903.0613 252.476,910.551 269.7555,917.2025 287.3399,922.9997 305.1872,927.9288 323.2545,931.978 341.4983,935.1374 359.8751,937.3996 378.3405,938.7591 396.8504,939.2126 415.3603,938.7591 433.8257,937.3996 452.5762,935.0819 470.817,931.9042 488.8802,927.837 506.7225,922.8901 524.3011,917.0752 541.5739,910.4065 558.4994,902.8998 575.0369,894.5733 591.1468,885.4468 606.7904,875.5423 621.9302,864.8836 636.8219,853.2564 650.8342,841.1536 664.2369,828.3792 676.998,814.9636 689.0867,800.9392 700.4741,786.3396 711.1329,771.1999 721.0374,755.5563 730.1638,739.4464 738.4904,722.9088 745.997,705.9834 752.6658,688.7106 758.4806,671.1319 763.4275,653.2896 767.5685,634.8558 770.728,616.6119 772.9901,598.2352 774.3496,579.7697 774.8031,561.2598 774.3496,542.75 772.9901,524.2845 770.6724,505.534 767.4947,487.2933 763.4275,469.2301 758.4806,451.3877 752.6658,433.8091 745.997,416.5363 738.3286,399.2693 729.9855,382.7401 720.8429,366.6394 710.9228,351.0057 700.2489,335.8766 688.8469,321.2884 676.7442,307.2761 663.9697,293.8733 650.5542,281.1122 636.5298,269.0235 621.9302,257.6361 606.7904,246.9774 591.1468,237.0729 575.0369,227.9464 558.4994,219.6198 541.5739,212.1132 524.3011,205.4445 506.3609,199.52 488.5136,194.5909 470.4463,190.5417 452.2024,187.3823 433.8257,185.1201 415.3603,183.7606 396.8504,183.3071 378.3405,183.7606 359.8751,185.1201 341.4983,187.3823 323.2545,190.5417 305.1872,194.5909 287.3399,199.52 269.7555,205.3172 252.476,211.9687 235.5431,219.4584 218.9972,227.7684 202.8782,236.8788 187.2247,246.7676 171.7706,257.6361 157.171,269.0235 143.1466,281.1122 129.7311,293.8733 116.7028,307.5561"/>
  </g>
  <g fill="none" id="layer3" inkscape:groupmode="layer" inkscape:label="3" stroke="#008800" style="display:inline">
    <polygon points="613.4158,675.056 612.8623,673.7197 611.526,673.1662 610.1898,673.7197 609.6363,675.056 610.1898,676.3922 611.526,676.9457 612.8623,676.3922"/>
    <polyline points="611.526,675.056 606.8196,660.6295 600.4075,659.3795 586.4687,627.9441 597.4926,610.7433 605.6451,601.4903 586.5136,587.9312 569.6854,599.1376 617.7237,565.6751 626.3008,582.7965"/>
    <polygon points="627.6371,584.1327 628.1906,582.7965 627.6371,581.4602 626.3008,580.9067 624.9645,581.4602 624.411,582.7965 624.9645,584.1327 626.3008,584.6862"/>
    <polygon points="619.06,564.3389 617.7237,563.7854 616.3874,564.3389 615.8339,565.6751 616.3874,567.0114 617.7237,567.5649 619.06,567.0114 619.6135,565.6751"/>
    <polygon points="606.9814,602.8266 607.5349,601.4903 606.9814,600.1541 605.6451,599.6006 604.3089,600.1541 603.7554,601.4903 604.3089,602.8266 605.6451,603.3801"/>
    <polygon points="598.8289,609.4071 597.4926,608.8536 596.1563,609.4071 595.6028,610.7433 596.1563,612.0796 597.4926,612.6331 598.8289,612.0796 599.3824,610.7433"/>
    <polygon points="586.4687,629.8339 587.8049,629.2804 588.3584,627.9441 587.8049,626.6078 586.4687,626.0543 585.1324,626.6078 584.5789,627.9441 585.1324,629.2804"/>
    <polygon points="600.4075,657.4898 599.0712,658.0433 598.5177,659.3795 599.0712,660.7158 600.4075,661.2693 601.7437,660.7158 602.2972,659.3795 601.7437,658.0433"/>
    <polygon points="608.7093,660.6295 608.1558,659.2932 606.8196,658.7397 605.4833,659.2932 604.9298,660.6295 605.4833,661.9658 606.8196,662.5193 608.1558,661.9658"/>
    <polygon points="571.0217,600.4739 571.5752,599.1376 571.0217,597.8013 569.6854,597.2478 568.3491,597.8013 567.7956,599.1376 568.3491,600.4739 569.6854,601.0274"/>
    <polygon points="585.1774,586.5949 584.6239,587.9312 585.1774,589.2674 586.5136,589.8209 587.8499,589.2674 588.4034,587.9312 587.8499,586.5949 586.5136,586.0414"/>
    <polyline points="490.9465,580.7782 483.6388,569.1747 489.6188,550.4969 499.8097,531.2766 503.1614,527.0684 487.6693,516.7025 457.0966,499.6918"/>
    <polygon points="458.4328,501.028 458.9863,499.6918 458.4328,498.3555 457.0966,497.802 455.7603,498.3555 455.2068,499.6918 455.7603,501.028 457.0966,501.5815"/>
    <polygon points="460.5793,501.1599 460.8761,499.6918 460.5793,498.2237 459.7356,496.9861 458.4774,496.1735 457.0023,495.9134 455.5421,496.2467 454.326,497.121 453.6913,498.0519 453.3217,499.5034 453.545,500.9844 454.326,502.2625 455.5421,503.1368 457.0023,503.4701 458.4774,503.21 459.7356,502.3974"/>
    <polygon points="485.7795,516.7025 486.333,518.0388 487.6693,518.5923 489.0055,518.0388 489.559,516.7025 489.0055,515.3662 487.6693,514.8127 486.333,515.3662"/>
    <polygon points="499.8097,533.1663 501.1459,532.6128 501.6994,531.2766 501.1459,529.9403 499.8097,529.3868 498.4734,529.9403 497.9199,531.2766 498.4734,532.6128"/>
    <polygon points="505.0512,527.0684 504.4977,525.7321 503.1614,525.1786 501.8251,525.7321 501.2717,527.0684 501.8251,528.4046 503.1614,528.9581 504.4977,528.4046"/>
    <polygon points="487.6558,539.0172 487.0796,539.1487 487.3361,539.6812 487.7981,539.3127"/>
    <polygon points="487.729,550.4969 488.2825,551.8331 489.6188,552.3866 490.9551,551.8331 491.5086,550.4969 490.9551,549.1606 489.6188,548.6071 488.2825,549.1606"/>
    <polygon points="482.3026,567.8385 481.7491,569.1747 482.3026,570.511 483.6388,571.0645 484.9751,570.511 485.5286,569.1747 484.9751,567.8385 483.6388,567.285"/>
    <polygon points="490.9465,578.8885 489.6103,579.442 489.0568,580.7782 489.6103,582.1145 490.9465,582.668 492.2828,582.1145 492.8363,580.7782 492.2828,579.442"/>
    <polygon points="426.229,679.8987 425.6755,678.5624 424.3392,678.0089 423.003,678.5624 422.4495,679.8987 423.003,681.2349 424.3392,681.7884 425.6755,681.2349"/>
    <polygon points="422.6156,694.7029 422.0621,696.0392 422.6156,697.3754 423.9519,697.9289 425.2881,697.3754 425.8416,696.0392 425.2881,694.7029 423.9519,694.1494"/>
    <polygon points="411.725,690.9264 413.0613,690.3729 413.6148,689.0366 413.0613,687.7004 411.725,687.1469 410.3888,687.7004 409.8353,689.0366 410.3888,690.3729"/>
    <polygon points="411.6321,672.9575 412.9684,672.404 413.5219,671.0677 412.9684,669.7314 411.6321,669.1779 410.2959,669.7314 409.7424,671.0677 410.2959,672.404"/>
    <polyline points="411.6321,671.0677 424.3392,679.8987 411.725,689.0366 423.9519,696.0392 403.2982,725.2378 389.1097,724.0415 385.9716,707.7077 371.1225,713.9102 351.0545,719.0597 355.0903,711.3812 336.6228,706.0383"/>
    <polygon points="334.7331,706.0383 335.2866,707.3746 336.6228,707.9281 337.9591,707.3746 338.5126,706.0383 337.9591,704.7021 336.6228,704.1486 335.2866,704.7021"/>
    <polygon points="340.1056,704.5702 339.2618,703.3327 338.0036,702.5201 336.5286,702.26 335.0684,702.5933 333.8522,703.4676 333.0712,704.7457 332.848,706.2267 333.2176,707.6782 333.8522,708.6091 335.0684,709.4834 336.5286,709.8167 338.0036,709.5566 339.2618,708.744 340.1056,707.5064 340.4024,706.0383"/>
    <polygon points="353.2006,711.3812 353.7541,712.7175 355.0903,713.271 356.4266,712.7175 356.9801,711.3812 356.4266,710.0449 355.0903,709.4914 353.7541,710.0449"/>
    <polygon points="349.7182,717.7234 349.1647,719.0597 349.7182,720.3959 351.0545,720.9494 352.3907,720.3959 352.9442,719.0597 352.3907,717.7234 351.0545,717.1699"/>
    <polygon points="371.1225,715.7999 372.4588,715.2464 373.0123,713.9102 372.4588,712.5739 371.1225,712.0204 369.7863,712.5739 369.2328,713.9102 369.7863,715.2464"/>
    <polygon points="384.6354,709.044 385.9716,709.5975 387.3079,709.044 387.8614,707.7077 387.3079,706.3714 385.9716,705.8179 384.6354,706.3714 384.0819,707.7077"/>
    <polygon points="388.0069,703.9471 387.5448,703.5787 387.2884,703.7832 387.5448,704.3156"/>
    <polygon points="390.9995,724.0415 390.446,722.7053 389.1097,722.1518 387.7735,722.7053 387.22,724.0415 387.7735,725.3778 389.1097,725.9313 390.446,725.3778"/>
    <polygon points="401.9619,726.574 403.2982,727.1275 404.6344,726.574 405.1879,725.2378 404.6344,723.9015 403.2982,723.348 401.9619,723.9015 401.4084,725.2378"/>
    <polyline points="425.913,789.2565 446.6372,806.6588 447.9917,832.6847 430.5567,856.4987 419.8029,862.7387 407.0564,883.7353"/>
    <polygon points="407.0564,885.6251 408.3927,885.0716 408.9462,883.7353 408.3927,882.399 407.0564,881.8455 405.7201,882.399 405.1666,883.7353 405.7201,885.0716"/>
    <polygon points="403.5048,885.028 404.2858,886.306 405.5019,887.1804 406.9622,887.5136 408.4372,887.2536 409.6954,886.4409 410.5391,885.2034 410.8359,883.7353 410.5391,882.2672 409.6954,881.0297 408.4372,880.217 406.9622,879.9569 405.5019,880.2902 404.2858,881.1646 403.6512,882.0954 403.2816,883.5469"/>
    <polygon points="421.1391,861.4024 419.8029,860.8489 418.4666,861.4024 417.9131,862.7387 418.4666,864.0749 419.8029,864.6284 421.1391,864.0749 421.6926,862.7387"/>
    <polygon points="431.893,855.1624 430.5567,854.6089 429.2205,855.1624 428.667,856.4987 429.2205,857.8349 430.5567,858.3884 431.893,857.8349 432.4465,856.4987"/>
    <polygon points="429.5755,838.9639 430.0376,838.5954 429.5755,838.2269 429.3191,838.4314"/>
    <polygon points="449.3279,834.0209 449.8814,832.6847 449.3279,831.3484 447.9917,830.7949 446.6554,831.3484 446.1019,832.6847 446.6554,834.0209 447.9917,834.5744"/>
    <polygon points="445.3009,807.995 446.6372,808.5485 447.9734,807.995 448.5269,806.6588 447.9734,805.3225 446.6372,804.769 445.3009,805.3225 444.7474,806.6588"/>
    <polygon points="427.2492,790.5927 427.8027,789.2565 427.2492,787.9202 425.913,787.3667 424.5767,787.9202 424.0232,789.2565 424.5767,790.5927 425.913,791.1462"/>
    <polygon points="488.9439,761.3791 489.4974,762.7154 490.8337,763.2688 492.1699,762.7154 492.7234,761.3791 492.1699,760.0428 490.8337,759.4893 489.4974,760.0428"/>
    <polyline points="490.8337,761.3791 504.3152,767.7629 526.3346,743.1521"/>
    <polygon points="524.9983,744.4883 526.3346,745.0418 527.6709,744.4883 528.2244,743.1521 527.6709,741.8158 526.3346,741.2623 524.9983,741.8158 524.4448,743.1521"/>
    <polygon points="523.564,740.5813 522.783,741.8594 522.5598,742.9637 522.783,744.4447 523.564,745.7228 524.7801,746.5971 526.2404,746.9304 527.7154,746.6703 528.9736,745.8577 529.8173,744.6202 530.1141,743.1521 529.8173,741.684 528.9736,740.4464 527.7154,739.6338 526.2404,739.3737 524.7801,739.707"/>
    <polygon points="507.3968,757.1358 506.8206,757.2674 507.0771,757.7998 507.5391,757.4313"/>
    <polygon points="502.979,769.0992 504.3152,769.6527 505.6515,769.0992 506.205,767.7629 505.6515,766.4266 504.3152,765.8731 502.979,766.4266 502.4255,767.7629"/>
    <polygon points="520.1526,804.808 518.8164,805.3615 518.2629,806.6978 518.8164,808.034 520.1526,808.5875 521.4889,808.034 522.0424,806.6978 521.4889,805.3615"/>
    <polygon points="522.2425,820.4998 521.689,819.1635 520.3527,818.61 519.0165,819.1635 518.463,820.4998 519.0165,821.836 520.3527,822.3895 521.689,821.836"/>
    <polygon points="520.5335,842.1272 521.087,840.791 520.5335,839.4547 519.1973,838.9012 517.861,839.4547 517.3075,840.791 517.861,842.1272 519.1973,842.6807"/>
    <polyline points="561.1087,823.1029 519.1973,840.791 520.3527,820.4998 520.1526,806.6978 535.3924,798.588 569.4385,782.8302 605.3059,776.8846"/>
    <polygon points="606.6421,778.2208 607.1956,776.8846 606.6421,775.5483 605.3059,774.9948 603.9696,775.5483 603.4161,776.8846 603.9696,778.2208 605.3059,778.7743"/>
    <polygon points="608.7886,778.3527 609.0854,776.8846 608.7886,775.4165 607.9449,774.1789 606.6867,773.3663 605.2116,773.1062 603.7514,773.4395 602.5353,774.3138 601.9006,775.2447 601.531,776.6962 601.7543,778.1772 602.5353,779.4553 603.7514,780.3296 605.2116,780.6629 606.6867,780.4028 607.9449,779.5902"/>
    <polygon points="568.1022,781.4939 567.5487,782.8302 568.1022,784.1665 569.4385,784.72 570.7747,784.1665 571.3282,782.8302 570.7747,781.4939 569.4385,780.9404"/>
    <polygon points="563.6019,784.7714 562.2657,784.2179 560.9294,784.7714 560.3759,786.1077 560.9294,787.4439 562.2657,787.9974 563.6019,787.4439 564.1554,786.1077"/>
    <polygon points="549.0676,804.8062 549.5297,804.4377 549.3874,804.1422 548.8112,804.2737"/>
    <polygon points="536.7287,799.9242 537.2822,798.588 536.7287,797.2517 535.3924,796.6982 534.0562,797.2517 533.5027,798.588 534.0562,799.9242 535.3924,800.4777"/>
    <polygon points="562.445,821.7666 561.1087,821.2131 559.7724,821.7666 559.2189,823.1029 559.7724,824.4391 561.1087,824.9926 562.445,824.4391 562.9985,823.1029"/>
    <polyline points="370.65,839.1417 355.68,856.5913 345.3195,852.569"/>
    <polygon points="346.6558,853.9053 347.2093,852.569 346.6558,851.2328 345.3195,850.6793 343.9833,851.2328 343.4298,852.569 343.9833,853.9053 345.3195,854.4588"/>
    <polygon points="356.876,849.598 357.1324,849.8025 357.5945,849.434 357.1324,849.0655"/>
    <polygon points="357.0163,857.9275 357.5698,856.5913 357.0163,855.255 355.68,854.7015 354.3438,855.255 353.7903,856.5913 354.3438,857.9275 355.68,858.481"/>
    <polygon points="370.65,841.0314 371.9862,840.4779 372.5397,839.1417 371.9862,837.8054 370.65,837.2519 369.3137,837.8054 368.7602,839.1417 369.3137,840.4779"/>
    <polygon points="367.0984,837.849 366.8751,839.3301 367.2447,840.7815 368.1491,841.9755 369.4462,842.7244 370.9324,842.9106 372.3742,842.505 373.5453,841.5711 374.1327,840.6098 374.4295,839.1417 374.1327,837.6736 373.289,836.436 372.0308,835.6234 370.5557,835.3633 369.0955,835.6966 367.8794,836.5709"/>
    <polygon points="309.2246,817.8793 310.0683,816.6418 310.3651,815.1737 310.0683,813.7056 309.4808,812.7442 308.3098,811.8104 306.868,811.4047 305.3818,811.591 304.0847,812.3399 303.1803,813.5338 302.8107,814.9853 303.034,816.4664 303.815,817.7444 305.0311,818.6187 306.4913,818.952 307.9664,818.6919"/>
    <polyline points="306.5855,815.1737 289.9399,792.69 307.1714,767.41 326.2594,766.169"/>
    <polygon points="324.3697,766.169 324.9232,767.5053 326.2594,768.0588 327.5957,767.5053 328.1492,766.169 327.5957,764.8327 326.2594,764.2792 324.9232,764.8327"/>
    <polygon points="305.8352,766.0737 305.2817,767.41 305.8352,768.7462 307.1714,769.2997 308.5077,768.7462 309.0612,767.41 308.5077,766.0737 307.1714,765.5202"/>
    <polygon points="307.405,784.9922 307.1486,785.1967 307.405,785.7291 307.867,785.3607"/>
    <polygon points="288.6036,794.0263 289.9399,794.5798 291.2762,794.0263 291.8297,792.69 291.2762,791.3537 289.9399,790.8002 288.6036,791.3537 288.0501,792.69"/>
    <polygon points="304.6958,815.1737 305.2493,816.5099 306.5855,817.0634 307.9218,816.5099 308.4753,815.1737 307.9218,813.8374 306.5855,813.2839 305.2493,813.8374"/>
    <polygon points="168.5629,739.8297 168.8597,738.3616 168.5629,736.8935 167.7191,735.656 166.461,734.8433 164.9859,734.5833 163.5257,734.9165 162.3096,735.7909 161.5285,737.0689 161.3053,738.55 161.6749,740.0015 162.5793,741.1954 163.8764,741.9443 165.3626,742.1306 166.8044,741.7249 167.9754,740.791"/>
    <polygon points="166.9699,738.3616 166.4164,737.0253 165.0801,736.4718 163.7439,737.0253 163.1904,738.3616 163.7439,739.6979 165.0801,740.2514 166.4164,739.6979"/>
    <polyline points="165.0801,738.3616 153.4972,718.7357 130.2359,689.1703 136.3783,669.2653 166.3211,679.8701"/>
    <polygon points="166.3211,677.9803 164.9848,678.5338 164.4313,679.8701 164.9848,681.2063 166.3211,681.7598 167.6573,681.2063 168.2108,679.8701 167.6573,678.5338"/>
    <polygon points="141.7804,697.8564 141.9227,697.5609 141.4607,697.1925 141.2043,697.7249"/>
    <polygon points="131.5722,687.8341 130.2359,687.2806 128.8997,687.8341 128.3462,689.1703 128.8997,690.5066 130.2359,691.0601 131.5722,690.5066 132.1257,689.1703"/>
    <polygon points="135.0421,667.929 134.4886,669.2653 135.0421,670.6015 136.3783,671.155 137.7146,670.6015 138.2681,669.2653 137.7146,667.929 136.3783,667.3755"/>
    <polygon points="154.8335,720.072 155.387,718.7357 154.8335,717.3995 153.4972,716.846 152.161,717.3995 151.6075,718.7357 152.161,720.072 153.4972,720.6255"/>
    <polygon points="178.7691,582.2036 180.1053,582.7571 181.4416,582.2036 181.9951,580.8673 181.4416,579.531 180.1053,578.9775 178.7691,579.531 178.2156,580.8673"/>
    <polyline points="180.1053,580.8673 166.7225,564.4571 165.7069,562.0052 178.1548,536.1902 184.6661,524.8565"/>
    <polygon points="184.6661,522.9668 183.3298,523.5203 182.7763,524.8565 183.3298,526.1928 184.6661,526.7463 186.0023,526.1928 186.5558,524.8565 186.0023,523.5203"/>
    <polygon points="181.1145,526.1492 181.8955,527.4273 183.1116,528.3016 184.5718,528.6349 186.0469,528.3748 187.3051,527.5622 188.1488,526.3246 188.4456,524.8565 188.1488,523.3884 187.3051,522.1509 186.0469,521.3383 184.5718,521.0782 183.4623,521.2738 182.1652,522.0227 181.2608,523.2166 180.8912,524.6681"/>
    <polygon points="176.265,536.1902 176.8185,537.5265 178.1548,538.08 179.491,537.5265 180.0445,536.1902 179.491,534.854 178.1548,534.3005 176.8185,534.854"/>
    <polygon points="174.987,554.0437 175.4491,553.6753 174.987,553.3068 174.7306,553.5113"/>
    <polygon points="167.0432,560.669 165.7069,560.1155 164.3706,560.669 163.8172,562.0052 164.3706,563.3415 165.7069,563.895 167.0432,563.3415 167.5967,562.0052"/>
    <polygon points="168.0587,565.7933 168.6122,564.4571 168.0587,563.1208 166.7225,562.5673 165.3862,563.1208 164.8327,564.4571 165.3862,565.7933 166.7225,566.3468"/>
    <polygon points="170.1506,474.5951 171.4869,475.1486 172.8231,474.5951 173.3766,473.2588 172.8231,471.9226 171.4869,471.3691 170.1506,471.9226 169.5971,473.2588"/>
    <polyline points="171.4869,473.2588 208.6954,478.3047 228.6606,474.3974 211.5741,455.2332"/>
    <polygon points="213.4639,455.2332 212.9104,453.897 211.5741,453.3435 210.2378,453.897 209.6843,455.2332 210.2378,456.5695 211.5741,457.123 212.9104,456.5695"/>
    <polygon points="204.7637,470.1346 205.0201,470.667 205.4822,470.2986 205.0201,469.9301"/>
    <polygon points="210.5852,478.3047 210.0317,476.9684 208.6954,476.4149 207.3591,476.9684 206.8056,478.3047 207.3591,479.641 208.6954,480.1945 210.0317,479.641"/>
    <polygon points="228.6606,472.5077 227.3244,473.0612 226.7709,474.3974 227.3244,475.7337 228.6606,476.2872 229.9969,475.7337 230.5504,474.3974 229.9969,473.0612"/>
    <polygon points="174.9696,474.7269 175.2664,473.2588 174.9696,471.7907 174.1259,470.5532 172.8677,469.7406 171.3926,469.4805 169.9324,469.8138 168.7163,470.6881 167.9353,471.9662 167.712,473.0704 167.9353,474.5515 168.7163,475.8296 169.9324,476.7039 171.3926,477.0372 172.8677,476.7771 174.1259,475.9645"/>
    <polygon points="192.7074,358.8921 191.3711,359.4456 190.8176,360.7819 191.3711,362.1182 192.7074,362.6717 194.0436,362.1182 194.5971,360.7819 194.0436,359.4456"/>
    <polyline points="193.8454,345.2442 192.7074,360.7819 163.239,351.3809 161.8043,324.6312"/>
    <polygon points="163.1406,325.9675 163.6941,324.6312 163.1406,323.2949 161.8043,322.7414 160.4681,323.2949 159.9146,324.6312 160.4681,325.9675 161.8043,326.521"/>
    <polygon points="165.2871,326.0993 165.5839,324.6312 165.2871,323.1631 164.4433,321.9256 163.1852,321.1129 161.7101,320.8528 160.2499,321.1861 159.0338,322.0605 158.2527,323.3385 158.0295,324.4428 158.2527,325.9239 159.0338,327.2019 160.2499,328.0763 161.7101,328.4095 163.1852,328.1495 164.4433,327.3368"/>
    <polygon points="177.8149,345.878 178.277,345.5096 178.1347,345.2141 177.5585,345.3456"/>
    <polygon points="164.5752,350.0447 163.239,349.4912 161.9027,350.0447 161.3492,351.3809 161.9027,352.7172 163.239,353.2707 164.5752,352.7172 165.1287,351.3809"/>
    <polygon points="195.1817,343.9079 193.8454,343.3544 192.5092,343.9079 191.9557,345.2442 192.5092,346.5805 193.8454,347.134 195.1817,346.5805 195.7352,345.2442"/>
    <polygon points="375.4299,419.5382 375.9834,418.202 375.4299,416.8657 374.0936,416.3122 372.7573,416.8657 372.2038,418.202 372.7573,419.5382 374.0936,420.0917"/>
    <polyline points="390.8163,404.4384 374.0936,418.202 390.5867,444.5419 385.0042,463.7858 356.0142,475.2873"/>
    <polygon points="357.9039,475.2873 357.3504,473.951 356.0142,473.3975 354.6779,473.951 354.1244,475.2873 354.6779,476.6235 356.0142,477.177 357.3504,476.6235"/>
    <polygon points="355.9199,479.0656 357.395,478.8055 358.6532,477.9929 359.4969,476.7554 359.7937,475.2873 359.4969,473.8192 358.6532,472.5816 357.395,471.769 355.9199,471.5089 354.4597,471.8422 353.2436,472.7165 352.6089,473.6474 352.2393,475.0989 352.4626,476.5799 353.2436,477.858 354.4597,478.7323"/>
    <polygon points="386.8939,463.7858 386.3404,462.4495 385.0042,461.896 383.6679,462.4495 383.1144,463.7858 383.6679,465.122 385.0042,465.6755 386.3404,465.122"/>
    <polygon points="391.9229,443.2056 390.5867,442.6521 389.2504,443.2056 388.6969,444.5419 389.2504,445.8782 390.5867,446.4317 391.9229,445.8782 392.4764,444.5419"/>
    <polygon points="378.9624,441.0871 379.2189,441.6195 379.6809,441.2511 379.5386,440.9556"/>
    <polygon points="392.706,404.4384 392.1525,403.1021 390.8163,402.5486 389.48,403.1021 388.9265,404.4384 389.48,405.7747 390.8163,406.3282 392.1525,405.7747"/>
    <polygon points="445.9205,393.9059 446.474,395.2422 447.8103,395.7957 449.1465,395.2422 449.7,393.9059 449.1465,392.5696 447.8103,392.0161 446.474,392.5696"/>
    <polygon points="447.4335,400.7292 446.0973,401.2827 445.5438,402.619 446.0973,403.9553 447.4335,404.5088 448.7698,403.9553 449.3233,402.619 448.7698,401.2827"/>
    <polyline points="447.4335,402.619 447.8103,393.9059 474.3233,369.1984 479.5386,397.0453 486.5927,409.7363 501.8917,441.6454 508.9854,435.8696 523.0296,418.539 542.6791,448.7646"/>
    <polygon points="542.6791,450.6543 544.0153,450.1008 544.5688,448.7646 544.0153,447.4283 542.6791,446.8748 541.3428,447.4283 540.7893,448.7646 541.3428,450.1008"/>
    <polygon points="540.1782,445.9308 539.2738,447.1247 538.9042,448.5762 539.1275,450.0573 539.9085,451.3353 541.1246,452.2096 542.5848,452.5429 544.0599,452.2828 545.3181,451.4702 546.1618,450.2327 546.4586,448.7646 546.1618,447.2965 545.5744,446.3351 544.4033,445.4013 542.9615,444.9956 541.4753,445.1819"/>
    <polygon points="523.0296,420.4287 524.3658,419.8752 524.9193,418.539 524.3658,417.2027 523.0296,416.6492 521.6933,417.2027 521.1398,418.539 521.6933,419.8752"/>
    <polygon points="508.9854,437.7593 510.3217,437.2058 510.8752,435.8696 510.3217,434.5333 508.9854,433.9798 507.6491,434.5333 507.0956,435.8696 507.6491,437.2058"/>
    <polygon points="501.8917,443.5351 503.228,442.9816 503.7815,441.6454 503.228,440.3091 501.8917,439.7556 500.5555,440.3091 500.002,441.6454 500.5555,442.9816"/>
    <polygon points="490.1697,412.6675 489.9133,412.8719 490.1697,413.4044 490.6317,413.0359"/>
    <polygon points="484.703,409.7363 485.2565,411.0726 486.5927,411.6261 487.929,411.0726 488.4825,409.7363 487.929,408.4 486.5927,407.8465 485.2565,408.4"/>
    <polygon points="480.8748,398.3816 481.4283,397.0453 480.8748,395.7091 479.5386,395.1556 478.2023,395.7091 477.6488,397.0453 478.2023,398.3816 479.5386,398.9351"/>
    <polygon points="474.3233,371.0882 475.6596,370.5347 476.2131,369.1984 475.6596,367.8622 474.3233,367.3087 472.9871,367.8622 472.4336,369.1984 472.9871,370.5347"/>
    <polygon points="508.3269,285.6716 508.8804,287.0078 510.2167,287.5613 511.5529,287.0078 512.1064,285.6716 511.5529,284.3353 510.2167,283.7818 508.8804,284.3353"/>
    <polyline points="510.2167,285.6716 535.5171,265.3947 521.4426,258.2865 498.641,240.0582"/>
    <polygon points="499.9772,241.3945 500.5307,240.0582 499.9772,238.7219 498.641,238.1684 497.3047,238.7219 496.7512,240.0582 497.3047,241.3945 498.641,241.948"/>
    <polygon points="495.8704,237.4875 495.0894,238.7655 494.8661,239.8698 495.0894,241.3509 495.8704,242.6289 497.0865,243.5033 498.5467,243.8365 500.0218,243.5765 501.28,242.7638 502.1237,241.5263 502.4205,240.0582 502.1237,238.5901 501.28,237.3526 500.0218,236.5399 498.5467,236.2798 497.0865,236.6131"/>
    <polygon points="516.3702,261.9843 516.1138,262.1888 516.3702,262.7212 516.8323,262.3528"/>
    <polygon points="522.7789,256.9503 521.4426,256.3968 520.1064,256.9503 519.5529,258.2865 520.1064,259.6228 521.4426,260.1763 522.7789,259.6228 523.3324,258.2865"/>
    <polygon points="535.5171,263.505 534.1808,264.0585 533.6273,265.3947 534.1808,266.731 535.5171,267.2845 536.8533,266.731 537.4068,265.3947 536.8533,264.0585"/>
    <polyline points="426.4561,247.2986 410.5023,226.0884 396.1312,240.5398 376.3184,229.7618"/>
    <polygon points="378.2081,229.7618 377.6546,228.4255 376.3184,227.872 374.9821,228.4255 374.4286,229.7618 374.9821,231.098 376.3184,231.6515 377.6546,231.098"/>
    <polygon points="379.8011,228.2937 378.9574,227.0561 377.6992,226.2435 376.2241,225.9834 374.7639,226.3167 373.5478,227.1911 372.7668,228.4691 372.5435,229.5734 372.7668,231.0545 373.5478,232.3325 374.7639,233.2068 376.2241,233.5401 377.6992,233.28 378.9574,232.4674 379.8011,231.2299 380.0979,229.7618"/>
    <polygon points="396.1312,242.4295 397.4675,241.876 398.021,240.5398 397.4675,239.2035 396.1312,238.65 394.7949,239.2035 394.2414,240.5398 394.7949,241.876"/>
    <polygon points="402.2679,235.5536 402.0115,236.0861 402.2679,236.2906 402.7299,235.9221"/>
    <polygon points="408.6125,226.0884 409.166,227.4246 410.5023,227.9781 411.8386,227.4246 412.3921,226.0884 411.8386,224.7521 410.5023,224.1986 409.166,224.7521"/>
    <polygon points="425.1199,248.6348 426.4561,249.1883 427.7924,248.6348 428.3459,247.2986 427.7924,245.9623 426.4561,245.4088 425.1199,245.9623 424.5664,247.2986"/>
    <polygon points="595.4934,448.7455 594.9399,447.4092 593.6037,446.8557 592.2674,447.4092 591.7139,448.7455 592.2674,450.0817 593.6037,450.6352 594.9399,450.0817"/>
    <polygon points="600.7807,453.6789 601.3342,455.0152 602.6705,455.5687 604.0068,455.0152 604.5603,453.6789 604.0068,452.3426 602.6705,451.7891 601.3342,452.3426"/>
    <polygon points="610.1376,451.3994 610.5997,451.0309 610.1376,450.6624 609.8812,450.8669"/>
    <polygon points="617.1918,436.9885 617.7453,435.6523 617.1918,434.316 615.8555,433.7625 614.5193,434.316 613.9658,435.6523 614.5193,436.9885 615.8555,437.542"/>
    <polygon points="628.1145,432.0465 629.4507,432.6 630.787,432.0465 631.3405,430.7102 630.787,429.3739 629.4507,428.8204 628.1145,429.3739 627.561,430.7102"/>
    <polyline points="629.4507,430.7102 615.8555,435.6523 593.6037,448.7455 602.6705,453.6789 609.5281,486.3677"/>
    <polygon points="608.1919,487.7039 609.5281,488.2574 610.8644,487.7039 611.4179,486.3677 610.8644,485.0314 609.5281,484.4779 608.1919,485.0314 607.6384,486.3677"/>
    <polygon points="612.1671,483.662 610.909,482.8494 609.4339,482.5893 608.3244,482.7849 607.0273,483.5338 606.1229,484.7278 605.7533,486.1793 605.9765,487.6603 606.7575,488.9384 607.9737,489.8127 609.4339,490.146 610.909,489.8859 612.1671,489.0733 613.0109,487.8358 613.3077,486.3677 613.0109,484.8996"/>
    <polygon points="306.0308,531.9054 304.5557,531.6453 303.0955,531.9786 301.8794,532.8529 301.0984,534.131 300.8751,535.2353 301.0984,536.7164 301.8794,537.9944 303.0955,538.8687 304.5557,539.202 306.0308,538.9419 307.289,538.1293 308.1327,536.8918 308.4295,535.4237 308.1327,533.9556 307.289,532.718"/>
    <polyline points="304.65,535.4237 275.9654,544.4941 272.3269,551.0892 270.978,563.8687 269.7078,586.0515"/>
    <polygon points="271.0441,584.7152 269.7078,584.1617 268.3716,584.7152 267.8181,586.0515 268.3716,587.3878 269.7078,587.9413 271.0441,587.3878 271.5976,586.0515"/>
    <polygon points="272.8678,563.8687 272.3143,562.5324 270.978,561.9789 269.6417,562.5324 269.0882,563.8687 269.6417,565.2049 270.978,565.7584 272.3143,565.2049"/>
    <polygon points="278.3851,556.0214 278.6415,556.5539 279.1036,556.1854 278.9613,555.8899"/>
    <polygon points="273.6632,552.4254 274.2167,551.0892 273.6632,549.7529 272.3269,549.1994 270.9906,549.7529 270.4371,551.0892 270.9906,552.4254 272.3269,552.9789"/>
    <polygon points="277.8552,544.4941 277.3017,543.1579 275.9654,542.6044 274.6292,543.1579 274.0757,544.4941 274.6292,545.8304 275.9654,546.3839 277.3017,545.8304"/>
    <polygon points="305.9862,536.7599 306.5397,535.4237 305.9862,534.0874 304.65,533.5339 303.3137,534.0874 302.7602,535.4237 303.3137,536.7599 304.65,537.3134"/>
  </g>
</svg>
