<?xml version="1.0" encoding="utf-8" ?>
<svg xmlns="http://www.w3.org/2000/svg" xmlns:cc="http://creativecommons.org/ns#" xmlns:dc="http://purl.org/dc/elements/1.1/" xmlns:ev="http://www.w3.org/2001/xml-events" xmlns:inkscape="http://www.inkscape.org/namespaces/inkscape" xmlns:rdf="http://www.w3.org/1999/02/22-rdf-syntax-ns#" xmlns:sodipodi="http://sodipodi.sourceforge.net/DTD/sodipodi-0.dtd" xmlns:xlink="http://www.w3.org/1999/xlink" baseProfile="tiny" height="29.7cm" version="1.2" viewBox="0 0 793.7007874015749 1122.5196850393702" width="21.0cm">
  <metadata>
    <rdf:RDF>
      <cc:Work>
        <dc:format>image/svg+xml</dc:format>
        <dc:source/>
        <dc:date>2021-11-13T14:26:09.407152</dc:date>
      </cc:Work>
    </rdf:RDF>
  </metadata>
  <defs/>
  <g fill="none" id="layer1" inkscape:groupmode="layer" inkscape:label="1" stroke="#00f" style="display:inline">
    <polyline points="164.2143,943.9549 161.1387,949.4061 158.7522,955.6407 157.3725,961.8282 156.8725,968.54 178.2145,968.54 177.7684,962.1982 176.3349,955.6407 173.9483,949.4061 170.8727,943.9549"/>
    <line x1="178.2145" x2="156.8725" y1="943.9549" y2="943.9549"/>
    <line x1="156.8725" x2="178.2145" y1="941.4503" y2="941.4503"/>
    <polygon points="179.5917,943.0942 181.0863,943.0942 182.8169,947.5833 177.8611,947.5833"/>
    <polygon points="181.0863,943.0942 179.5917,943.0942 178.2145,941.5466 182.4635,941.5466"/>
    <line x1="178.2145" x2="156.8725" y1="938.9457" y2="938.9457"/>
    <line x1="156.8725" x2="178.2145" y1="936.4411" y2="936.4411"/>
    <line x1="178.2145" x2="156.8725" y1="933.9364" y2="933.9364"/>
    <line x1="156.8725" x2="178.2145" y1="931.4318" y2="931.4318"/>
    <line x1="178.2145" x2="156.8725" y1="919.9489" y2="919.9489"/>
    <polygon points="156.8725,919.9489 156.8725,928.9272 178.2145,928.9272 178.2145,943.9549 156.8725,943.9549 156.8725,928.9272 178.2145,928.9272 178.2145,919.9489"/>
    <line x1="156.8725" x2="178.2145" y1="917.3733" y2="917.3733"/>
    <line x1="178.2145" x2="156.8725" y1="914.7977" y2="914.7977"/>
    <line x1="156.8725" x2="178.2145" y1="912.2221" y2="912.2221"/>
    <line x1="178.2145" x2="156.8725" y1="909.6465" y2="909.6465"/>
    <line x1="156.8725" x2="178.2145" y1="907.0709" y2="907.0709"/>
    <line x1="178.2145" x2="156.8725" y1="904.4953" y2="904.4953"/>
    <line x1="156.8725" x2="178.2145" y1="901.9197" y2="901.9197"/>
    <line x1="178.2145" x2="156.8725" y1="899.3441" y2="899.3441"/>
    <polygon points="156.8725,896.7685 156.8725,874.3574 178.2145,874.3574 176.9012,868.5595 158.1859,868.5595 156.8725,874.3574 178.2145,874.3574 178.2145,896.7685"/>
    <polyline points="156.8725,896.7685 156.8725,919.9489 178.2145,919.9489 178.2145,896.7685 156.8725,896.7685 178.2145,896.7685"/>
    <line x1="178.2145" x2="156.8725" y1="893.9671" y2="893.9671"/>
    <line x1="156.8725" x2="178.2145" y1="891.1657" y2="891.1657"/>
    <line x1="178.2145" x2="156.8725" y1="888.3643" y2="888.3643"/>
    <line x1="156.8725" x2="178.2145" y1="885.5629" y2="885.5629"/>
    <line x1="178.2145" x2="156.8725" y1="882.7616" y2="882.7616"/>
    <line x1="156.8725" x2="178.2145" y1="879.9602" y2="879.9602"/>
    <line x1="178.2145" x2="156.8725" y1="877.1588" y2="877.1588"/>
    <polygon points="156.8725,878.455 156.8725,880.9274 152.6236,880.9274 156.8725,880.9274 156.8725,941.5466 152.6236,941.5466 152.6236,880.9274"/>
    <polygon points="182.4635,880.9274 178.2145,880.9274 178.2145,941.5466 182.4635,941.5466 182.4635,880.9274 178.2145,878.455 178.2145,880.9274"/>
    <line x1="216.0282" x2="235.1659" y1="884.9454" y2="884.9454"/>
    <line x1="235.1659" x2="216.0282" y1="887.624" y2="887.624"/>
    <line x1="216.0282" x2="235.1659" y1="890.3026" y2="890.3026"/>
    <line x1="235.1659" x2="216.0282" y1="892.9811" y2="892.9811"/>
    <polyline points="216.0282,895.6597 216.0282,907.3203 235.1659,907.3203 235.1659,895.6597 216.0282,895.6597 235.1659,895.6597"/>
    <polygon points="235.1659,882.2669 235.1659,895.6597 216.0282,895.6597 216.0282,882.2669 235.1659,882.2669 234.6964,877.4342 216.4977,877.4342 216.0282,882.2669"/>
    <line x1="232.4215" x2="232.4215" y1="877.4342" y2="872.5102"/>
    <line x1="230.1467" x2="230.1467" y1="872.5102" y2="877.4342"/>
    <line x1="227.8719" x2="227.8719" y1="877.4342" y2="872.5102"/>
    <line x1="225.597" x2="225.597" y1="872.5102" y2="877.4342"/>
    <line x1="223.3222" x2="223.3222" y1="877.4342" y2="872.5102"/>
    <line x1="221.0474" x2="221.0474" y1="872.5102" y2="877.4342"/>
    <line x1="218.7725" x2="218.7725" y1="877.4342" y2="872.5102"/>
    <polygon points="216.4977,872.5102 216.4977,862.6029 234.6964,862.6029 234.6964,872.5102"/>
    <polyline points="216.4977,872.5102 216.4977,877.4342 234.6964,877.4342 234.6964,872.5102 216.4977,872.5102 216.4977,877.4342"/>
    <polygon points="216.0282,907.3203 215.1638,910.9726 236.0303,910.9726 236.0303,923.6979 215.1638,923.6979 215.1638,910.9726 236.0303,910.9726 235.1659,907.3203"/>
    <polygon points="215.1638,923.6979 206.0677,943.4679 206.0677,950.6057 215.1638,947.0368"/>
    <polygon points="215.1638,923.6979 236.0303,923.6979 236.0303,947.0368 215.1638,947.0368"/>
    <polygon points="219.4554,951.8017 215.547,968.54 235.6471,968.54 231.7387,951.8017"/>
    <polygon points="231.7387,951.8017 236.0303,947.0368 215.1638,947.0368 219.4554,951.8017"/>
    <polygon points="245.1264,943.4679 245.1264,950.6057 236.0303,947.0368 236.0303,923.6979"/>
    <line x1="276.439" x2="290.8622" y1="944.3577" y2="944.3577"/>
    <polyline points="290.8622,946.5356 276.439,946.5356 290.8622,946.5356 290.8622,964.8239 276.439,964.8239 276.439,946.5356"/>
    <line x1="276.439" x2="290.8622" y1="942.1798" y2="942.1798"/>
    <line x1="290.8622" x2="276.439" y1="940.0019" y2="940.0019"/>
    <line x1="276.439" x2="290.8622" y1="937.824" y2="937.824"/>
    <line x1="290.8622" x2="276.439" y1="935.6461" y2="935.6461"/>
    <line x1="277.5169" x2="289.7843" y1="925.1678" y2="925.1678"/>
    <polygon points="289.7843,925.1678 277.5169,925.1678 276.439,933.4682 290.8622,933.4682 290.8622,946.5356 276.439,946.5356 276.439,933.4682 290.8622,933.4682"/>
    <line x1="289.7843" x2="277.5169" y1="922.0268" y2="922.0268"/>
    <line x1="277.5169" x2="289.7843" y1="918.8858" y2="918.8858"/>
    <line x1="289.7843" x2="277.5169" y1="915.7448" y2="915.7448"/>
    <line x1="277.5169" x2="289.7843" y1="912.6039" y2="912.6039"/>
    <polyline points="289.7843,909.4629 277.5169,909.4629 289.7843,909.4629 289.7843,925.1678 277.5169,925.1678 277.5169,909.4629"/>
    <polyline points="277.5169,904.0964 277.5169,909.4629 289.7843,909.4629 289.7843,904.0964 277.5169,904.0964 277.9196,901.4688 279.0288,899.0337 280.9648,896.5267 283.6506,894.1421 286.3364,896.5267 288.2724,899.0337 289.3816,901.4688 289.7843,904.0964"/>
    <polygon points="348.5381,914.4165 348.5381,930.5688 334.8702,930.5688 334.8702,914.4165"/>
    <polygon points="348.5381,890.6106 348.5381,914.4165 334.8702,914.4165 334.8702,890.6106"/>
    <polygon points="348.5381,868.4807 348.5381,890.6106 334.8702,890.6106 334.8702,868.4807"/>
    <line x1="345.1211" x2="345.1211" y1="849.1272" y2="838.3538"/>
    <line x1="341.7041" x2="341.7041" y1="838.3538" y2="849.1272"/>
    <line x1="338.2872" x2="338.2872" y1="849.1272" y2="838.3538"/>
    <polyline points="334.8702,838.3538 348.5381,838.3538 348.5381,849.1272 334.8702,849.1272 334.8702,838.3538 334.8702,849.1272 348.5381,849.1272 348.5381,868.4807 334.8702,868.4807 334.8702,849.1272"/>
    <polygon points="348.5381,833.5032 334.8702,833.5032 348.5381,833.5032 348.5381,838.3538 334.8702,838.3538 334.8702,833.5032 341.7041,810.13"/>
    <polyline points="390.4247,830.3971 390.4247,853.6537 409.0906,853.6537 409.0906,830.3971 390.4247,830.3971 391.1284,828.1339 392.9237,826.2977 395.9577,824.738 399.7577,823.8343 403.5577,824.738 406.5917,826.2977 408.387,828.1339 409.0906,830.3971"/>
    <polygon points="390.4247,853.6537 389.9905,862.2187 409.5249,862.2187 409.5249,873.7464 389.9905,873.7464 389.9905,862.2187 409.5249,862.2187 409.0906,853.6537"/>
    <polygon points="389.3471,901.8092 410.1682,901.8092 410.1682,919.3074 389.3471,919.3074"/>
    <polygon points="410.1682,901.8092 389.3471,901.8092 389.3471,882.7003 410.1682,882.7003 409.5249,873.7464 389.9905,873.7464 389.3471,882.7003 410.1682,882.7003"/>
    <polygon points="410.6606,928.1737 410.1682,919.3074 389.3471,919.3074 388.8547,928.1737 410.6606,928.1737 410.6606,951.841 388.8547,951.841 388.8547,928.1737"/>
    <polygon points="407.5431,959.6812 401.9682,959.6812 400.06,968.54 409.4512,968.54"/>
    <polygon points="399.4553,968.54 397.5472,959.6812 391.9723,959.6812 390.0642,968.54"/>
    <polygon points="388.8547,951.841 410.6606,951.841 410.6606,959.6812 388.8547,959.6812"/>
    <polygon points="358.0218,949.7229 348.5381,949.7229 348.5381,930.5688"/>
    <polygon points="348.5381,949.7229 334.8702,949.7229 340.3196,954.2042 343.0886,954.2042"/>
    <polygon points="340.3196,954.2042 335.8475,968.54 347.5608,968.54 343.0886,954.2042"/>
    <polygon points="334.8702,949.7229 334.8702,930.5688 348.5381,930.5688 348.5381,949.7229"/>
    <polygon points="334.8702,949.7229 334.8702,930.5688 325.3864,949.7229"/>
    <polygon points="288.883,964.8239 287.8749,964.8239 287.1052,968.54 289.6527,968.54"/>
    <polygon points="285.7307,964.8239 284.7227,964.8239 283.953,968.54 286.5005,968.54"/>
    <polygon points="280.8007,968.54 283.3482,968.54 282.5785,964.8239 281.5704,964.8239"/>
    <polygon points="280.196,968.54 279.4262,964.8239 278.4182,964.8239 277.6485,968.54"/>
    <polygon points="154.0007,943.0942 152.2701,947.5833 157.2259,947.5833 155.4953,943.0942"/>
    <polygon points="152.6236,941.5466 154.0007,943.0942 155.4953,943.0942 156.8725,941.5466"/>
    <polygon points="176.9012,845.0861 158.1859,845.0861 176.9012,845.0861 176.9012,868.5595 158.1859,868.5595 158.1859,845.0861 166.371,830.8656 168.716,830.8656"/>
    <polygon points="166.371,830.8656 166.371,823.6951 168.716,823.6951 168.716,830.8656"/>
    <polygon points="166.371,823.6951 166.371,820.2006 168.716,820.2006 168.716,823.6951"/>
    <polygon points="224.4688,826.044 226.7253,826.044 234.6964,856.606 216.4977,856.606 234.6964,856.606 234.6964,862.6029 216.4977,862.6029 216.4977,856.606"/>
    <polygon points="224.4688,821.2912 226.7253,821.2912 226.7253,826.044 224.4688,826.044"/>
    <polygon points="226.7253,815.1905 226.7253,821.2912 224.4688,821.2912 224.4688,815.1905"/>
    <polygon points="226.7253,808.0487 226.7253,815.1905 224.4688,815.1905 224.4688,808.0487"/>
    <polygon points="226.7253,808.0487 224.4688,808.0487 224.4688,801.9642 226.7253,801.9642"/>
    <polygon points="217.3374,750.8392 233.8567,750.8392 228.7047,738.292 222.4894,738.292"/>
    <polyline points="216.128,738.292 216.128,715.3723 211.6159,734.6846 211.6159,738.292 216.128,738.292 216.128,715.3723 235.0661,715.3723 234.8578,710.3574 216.3363,710.3574 216.128,715.3723 235.0661,715.3723 235.0661,738.292 216.128,738.292 216.128,715.3723"/>
    <line x1="218.8334" x2="218.8334" y1="715.3723" y2="738.292"/>
    <line x1="221.5389" x2="221.5389" y1="738.292" y2="715.3723"/>
    <line x1="224.2443" x2="224.2443" y1="715.3723" y2="738.292"/>
    <line x1="226.9498" x2="226.9498" y1="738.292" y2="715.3723"/>
    <line x1="229.6552" x2="229.6552" y1="715.3723" y2="738.292"/>
    <line x1="232.3607" x2="232.3607" y1="738.292" y2="715.3723"/>
    <polygon points="234.8578,699.7645 234.8578,710.3574 216.3363,710.3574 216.3363,699.7645 234.8578,699.7645 234.7118,690.9407 216.4823,690.9407 216.3363,699.7645"/>
    <line x1="234.7118" x2="216.4823" y1="690.9407" y2="690.9407"/>
    <line x1="216.4823" x2="234.7118" y1="688.6709" y2="688.6709"/>
    <line x1="234.7118" x2="216.4823" y1="686.4012" y2="686.4012"/>
    <line x1="216.4823" x2="234.7118" y1="684.1314" y2="684.1314"/>
    <line x1="234.7118" x2="216.4823" y1="681.8616" y2="681.8616"/>
    <line x1="216.4823" x2="234.7118" y1="679.5918" y2="679.5918"/>
    <line x1="234.7118" x2="216.4823" y1="677.3221" y2="677.3221"/>
    <line x1="216.4823" x2="234.7118" y1="675.0523" y2="675.0523"/>
    <line x1="234.7118" x2="216.4823" y1="672.7825" y2="672.7825"/>
    <line x1="216.4823" x2="234.7118" y1="670.5128" y2="670.5128"/>
    <polygon points="234.7118,668.243 234.7118,690.9407 216.4823,690.9407 216.4823,668.243"/>
    <polygon points="228.0139,660.9674 227.1196,661.6248 225.69,661.9868 224.2426,661.7041 223.3133,661.097 222.473,659.8851 222.2303,658.8019 222.3524,657.6987 223.0543,656.4017 224.2426,655.5283 225.69,655.2456 227.1196,655.6076 228.0139,656.265 228.6464,657.1772 228.9689,658.6162 228.6464,660.0552"/>
    <polygon points="216.4823,648.9894 234.7118,648.9894 234.7118,668.243 216.4823,668.243 216.4823,648.9894 234.7118,648.9894 233.4013,645.1871 217.7928,645.1871"/>
    <polygon points="225.597,642.6343 226.8735,645.1871 224.3206,645.1871"/>
    <polyline points="233.4013,631.9048 217.7928,631.9048 233.4013,631.9048 233.4013,645.1871 217.7928,645.1871 217.7928,631.9048"/>
    <line x1="217.7928" x2="233.4013" y1="629.3466" y2="629.3466"/>
    <line x1="233.4013" x2="217.7928" y1="626.7884" y2="626.7884"/>
    <line x1="217.7928" x2="233.4013" y1="624.2302" y2="624.2302"/>
    <line x1="233.4013" x2="217.7928" y1="621.6721" y2="621.6721"/>
    <polygon points="233.4013,619.1139 233.4013,631.9048 217.7928,631.9048 217.7928,619.1139 233.4013,619.1139 233.0348,614.2259 218.1593,614.2259 217.7928,619.1139"/>
    <polygon points="226.8845,578.8482 233.0348,600.8164 218.1593,600.8164 233.0348,600.8164 233.0348,614.2259 218.1593,614.2259 218.1593,600.8164 224.3096,578.8482"/>
    <polygon points="224.3096,578.8482 224.3096,573.8404 226.8845,573.8404 226.8845,578.8482"/>
    <polygon points="226.8845,566.9438 226.8845,573.8404 224.3096,573.8404 224.3096,566.9438"/>
    <polygon points="226.8845,560.3363 226.8845,566.9438 224.3096,566.9438 224.3096,560.3363"/>
    <polygon points="224.3096,556.7245 226.8845,556.7245 226.8845,560.3363 224.3096,560.3363"/>
    <polygon points="222.6391,524.5952 218.0651,533.1384 233.129,533.1384 228.555,524.5952"/>
    <polygon points="234.3384,504.3468 234.3384,524.5952 216.8557,524.5952 216.8557,504.3468"/>
    <polygon points="233.941,495.459 217.2531,495.459 217.2531,475.3834 233.941,475.3834 231.0839,467.0609 220.1102,467.0609 217.2531,475.3834 233.941,475.3834"/>
    <polygon points="216.8557,495.459 234.3384,495.459 234.3384,504.3468 216.8557,504.3468"/>
    <polygon points="225.597,465.5085 226.3733,467.0609 224.8208,467.0609"/>
    <polyline points="231.0839,460.1173 230.7605,459.1716 229.7332,458.1892 225.597,456.2697 221.4609,458.1892 220.4336,459.1716 220.1102,460.1173 231.0839,460.1173 231.0839,467.0609 220.1102,467.0609 220.1102,460.1173"/>
    <polyline points="272.7852,449.2389 272.7852,456.7166 294.516,456.7166 294.516,449.2389 272.7852,449.2389 294.516,449.2389"/>
    <line x1="294.516" x2="272.7852" y1="445.7876" y2="445.7876"/>
    <line x1="272.7852" x2="294.516" y1="442.3363" y2="442.3363"/>
    <line x1="294.516" x2="272.7852" y1="438.885" y2="438.885"/>
    <line x1="272.7852" x2="294.516" y1="435.4337" y2="435.4337"/>
    <line x1="294.516" x2="272.7852" y1="431.9824" y2="431.9824"/>
    <line x1="272.7852" x2="294.516" y1="428.5311" y2="428.5311"/>
    <polygon points="295.9838,414.5286 295.9838,423.1844 294.516,423.1844 294.516,414.5286"/>
    <line x1="292.3429" x2="292.3429" y1="412.6332" y2="400.9228"/>
    <line x1="290.1698" x2="290.1698" y1="400.9228" y2="412.6332"/>
    <line x1="287.9968" x2="287.9968" y1="412.6332" y2="400.9228"/>
    <line x1="285.8237" x2="285.8237" y1="400.9228" y2="412.6332"/>
    <line x1="283.6506" x2="283.6506" y1="412.6332" y2="400.9228"/>
    <line x1="281.4775" x2="281.4775" y1="400.9228" y2="412.6332"/>
    <line x1="279.3044" x2="279.3044" y1="412.6332" y2="400.9228"/>
    <line x1="277.1313" x2="277.1313" y1="400.9228" y2="412.6332"/>
    <line x1="274.9583" x2="274.9583" y1="412.6332" y2="400.9228"/>
    <polyline points="272.7852,400.9228 283.6506,366.4751 294.516,400.9228 272.7852,400.9228 294.516,400.9228 294.516,412.6332 272.7852,412.6332 272.7852,400.9228 272.7852,412.6332 294.516,412.6332 294.516,425.0798 272.7852,425.0798 272.7852,412.6332"/>
    <polygon points="271.3174,423.1844 271.3174,414.5286 272.7852,414.5286 272.7852,423.1844"/>
    <polygon points="272.7852,425.0798 294.516,425.0798 294.516,449.2389 272.7852,449.2389"/>
    <polygon points="294.516,480.1513 272.7852,480.1513 272.7852,456.7166 294.516,456.7166"/>
    <polygon points="294.5749,497.2897 272.7263,497.2897 272.7263,485.2854 294.5749,485.2854 294.516,480.1513 272.7852,480.1513 272.7263,485.2854 294.5749,485.2854"/>
    <polygon points="272.7263,497.2897 294.5749,497.2897 294.5749,519.3552 272.7263,519.3552"/>
    <polygon points="273.9357,533.1384 293.3654,533.1384 287.1493,519.3552 280.1519,519.3552"/>
    <polyline points="336.216,498.4971 336.216,486.2404 347.1923,486.2404 346.3655,482.4764 337.0427,482.4764 336.216,486.2404 347.1923,486.2404 347.1923,498.4971 336.216,498.4971 336.216,486.2404"/>
    <line x1="339.8748" x2="339.8748" y1="486.2404" y2="498.4971"/>
    <line x1="343.5335" x2="343.5335" y1="498.4971" y2="486.2404"/>
    <polygon points="346.3655,482.4764 337.0427,482.4764 337.0427,463.9754 346.3655,463.9754"/>
    <polygon points="347.1923,498.4971 336.216,498.4971 334.6853,503.1959 348.7229,503.1959 348.7229,523.2145 334.6853,523.2145 334.6853,503.1959 348.7229,503.1959"/>
    <polygon points="347.5135,533.1384 344.5026,523.2145 338.9057,523.2145 335.8948,533.1384"/>
    <polygon points="387.9615,525.2399 387.9615,511.2917 379.3251,523.5495 379.3251,526.9304"/>
    <polygon points="403.2598,525.2399 396.2556,525.2399 389.171,533.1384 410.3444,533.1384"/>
    <polygon points="411.5538,525.2399 411.5538,511.2917 420.1902,523.5495 420.1902,526.9304"/>
    <polygon points="410.7167,505.9166 388.7987,505.9166 387.9615,511.2917 411.5538,511.2917 411.5538,525.2399 387.9615,525.2399 387.9615,511.2917 411.5538,511.2917"/>
    <polygon points="390.1398,477.7302 388.7987,485.6519 410.7167,485.6519 410.7167,505.9166 388.7987,505.9166 388.7987,485.6519 410.7167,485.6519 409.3756,477.7302"/>
    <polygon points="387.2145,477.6537 387.2145,469.8534 390.1398,469.8534 390.1398,477.6537"/>
    <polyline points="391.4052,466.0414 391.4052,455.4111 408.1101,455.4111 405.7782,448.23 393.7372,448.23 391.4052,455.4111 408.1101,455.4111 408.1101,466.0414 391.4052,466.0414 391.4052,455.4111"/>
    <line x1="394.7462" x2="394.7462" y1="455.4111" y2="466.0414"/>
    <polygon points="391.4052,466.0414 390.1398,469.7769 409.3756,469.7769 409.3756,477.7302 390.1398,477.7302 390.1398,469.7769 409.3756,469.7769 408.1101,466.0414"/>
    <line x1="398.0872" x2="398.0872" y1="466.0414" y2="455.4111"/>
    <line x1="401.4282" x2="401.4282" y1="455.4111" y2="466.0414"/>
    <line x1="404.7691" x2="404.7691" y1="466.0414" y2="455.4111"/>
    <polygon points="412.3009,469.8534 412.3009,477.6537 409.3756,477.6537 409.3756,469.8534"/>
    <polygon points="451.4445,469.4191 448.3169,469.4191 448.3169,464.6311 451.4445,464.6311"/>
    <polygon points="451.4445,460.4679 464.178,460.4679 464.178,473.5823 451.4445,473.5823 451.4445,460.4679 464.178,460.4679 461.594,451.5966 454.0285,451.5966"/>
    <polygon points="467.3055,464.6311 467.3055,469.4191 464.178,469.4191 464.178,464.6311"/>
    <polygon points="464.178,479.9348 464.178,501.9726 451.4445,501.9726 451.4445,479.9348"/>
    <polygon points="464.178,479.9348 451.4445,479.9348 451.4445,473.5823 464.178,473.5823"/>
    <polygon points="464.178,501.9726 464.178,510.368 451.4445,510.368 451.4445,501.9726"/>
    <polygon points="464.178,510.368 472.1239,523.2233 472.1239,525.6358 464.178,524.4296"/>
    <polygon points="455.8842,504.204 459.7383,504.204 459.7383,504.7749 455.8842,504.7749"/>
    <polygon points="455.7426,524.4296 454.4202,524.4296 452.6539,533.1384 457.5089,533.1384"/>
    <polygon points="459.8798,524.4296 458.1136,533.1384 462.9685,533.1384 461.2023,524.4296"/>
    <polygon points="451.4445,524.4296 451.4445,510.368 464.178,510.368 464.178,524.4296"/>
    <polygon points="443.4985,525.6358 451.4445,524.4296 451.4445,510.368 443.4985,523.2233"/>
    <polyline points="513.8227,515.8291 511.2802,519.548 509.5213,523.6931 508.4305,528.2979 508.0609,533.1384 523.6686,533.1384 523.299,528.2979 522.0958,523.3552 520.2886,519.2542 517.9068,515.8291"/>
    <polygon points="515.7748,506.3398 516.7248,506.7565 516.9547,507.4259 516.7248,508.0954 515.7748,508.5121 515.1266,508.2278 514.7897,507.6053 514.9062,506.9072"/>
    <polygon points="523.6686,499.0228 523.4299,490.7543 508.2996,490.7543 508.0609,499.0228 523.6686,499.0228 523.6686,515.8291 508.0609,515.8291 508.0609,499.0228"/>
    <polygon points="523.4299,490.7543 508.2996,490.7543 508.2996,472.611 523.4299,472.611 520.9302,465.7355 510.7993,465.7355 508.2996,472.611 523.4299,472.611"/>
    <polygon points="563.2065,499.9896 584.6302,499.9896 584.6302,506.3922 563.2065,506.3922"/>
    <polyline points="560.1496,517.0117 562.4334,520.5074 563.0126,522.3287 563.2065,524.1712 555.3912,524.1712 555.585,522.3287 556.1643,520.5074 558.4481,517.0117"/>
    <polyline points="571.4512,520.5428 568.1261,522.8964 565.3899,526.0466 563.717,529.6322 563.2065,533.1384 584.6302,533.1384 584.1197,529.6322 582.4467,526.0466 579.7105,522.8964 576.3854,520.5428"/>
    <polygon points="584.6302,520.5428 563.2065,520.5428 563.2065,506.3922 584.6302,506.3922"/>
    <polyline points="587.687,517.0117 585.4032,520.5074 584.824,522.3287 584.6302,524.1712 592.4455,524.1712 592.2516,522.3287 591.6724,520.5074 589.3886,517.0117"/>
    <polygon points="584.6302,499.9896 563.2065,499.9896 563.2065,494.1224 584.6302,494.1224"/>
    <polygon points="592.4455,473.8284 588.5378,469.7202 584.6302,473.8284 592.4455,473.8284 584.6302,473.8284 584.6302,517.0117 592.4455,517.0117"/>
    <polygon points="563.2065,473.8284 555.3912,473.8284 563.2065,473.8284 563.2065,517.0117 555.3912,517.0117 555.3912,473.8284 559.2988,469.7202"/>
    <polygon points="563.2065,477.3596 573.9183,441.0999 584.6302,477.3596 563.2065,477.3596 584.6302,477.3596 584.6302,494.1224 563.2065,494.1224"/>
    <polygon points="511.647,449.8825 510.7993,458.0797 520.9302,458.0797 520.9302,465.7355 510.7993,465.7355 510.7993,458.0797 520.9302,458.0797 520.0825,449.8825"/>
    <polygon points="518.8298,432.1667 512.8997,432.1667 511.647,437.4129 520.0825,437.4129 520.0825,449.8825 511.647,449.8825 511.647,437.4129 520.0825,437.4129"/>
    <polygon points="518.7636,413.6161 512.9659,413.6161 512.8997,422.2774 518.8298,422.2774 518.8298,432.1667 512.8997,432.1667 512.8997,422.2774 518.8298,422.2774"/>
    <polygon points="518.7636,401.3423 521.0766,401.3423 521.0766,408.9717 518.7636,408.9717"/>
    <polygon points="518.7636,396.698 518.7422,390.8775 512.9873,390.8775 512.9659,396.698 518.7636,396.698 518.7636,413.6161 512.9659,413.6161 512.9659,396.698"/>
    <polygon points="510.653,401.3423 512.9659,401.3423 512.9659,408.9717 510.653,408.9717"/>
    <polygon points="518.7422,369.0655 512.9873,369.0655 518.7422,369.0655 518.7422,390.8775 512.9873,390.8775 512.9873,369.0655 515.3716,362.5049 516.358,362.5049"/>
    <polygon points="516.358,358.4244 516.358,362.5049 515.3716,362.5049 515.3716,358.4244"/>
    <polygon points="515.3716,358.4244 515.3716,351.4178 516.358,351.4178 516.358,358.4244"/>
    <polygon points="513.447,315.4376 512.4605,309.5192 510.8075,309.5192 509.821,315.4376"/>
    <line x1="512.0368" x2="512.0368" y1="309.5192" y2="298.1107"/>
    <line x1="508.2088" x2="508.2088" y1="298.1107" y2="309.5192"/>
    <polygon points="506.5767,309.5192 505.5903,315.4376 509.2163,315.4376 508.2298,309.5192"/>
    <polyline points="504.3808,309.5192 504.3808,298.1107 527.3487,298.1107 525.6724,292.1643 506.0572,292.1643 504.3808,298.1107 527.3487,298.1107 527.3487,309.5192 504.3808,309.5192 504.3808,298.1107"/>
    <line x1="515.8648" x2="515.8648" y1="298.1107" y2="309.5192"/>
    <polygon points="515.0382,309.5192 514.0518,315.4376 517.6778,315.4376 516.6913,309.5192"/>
    <line x1="519.6928" x2="519.6928" y1="309.5192" y2="298.1107"/>
    <line x1="523.5207" x2="523.5207" y1="298.1107" y2="309.5192"/>
    <polygon points="525.1528,309.5192 523.4997,309.5192 522.5133,315.4376 526.1393,315.4376"/>
    <polygon points="520.922,309.5192 519.269,309.5192 518.2825,315.4376 521.9085,315.4376"/>
    <polygon points="506.0572,285.972 525.6724,285.972 525.6724,292.1643 506.0572,292.1643 506.0572,285.972 525.6724,285.972 524.3237,277.602 507.4059,277.602"/>
    <polygon points="507.4059,265.5378 524.3237,265.5378 524.3237,277.602 507.4059,277.602"/>
    <polygon points="515.8648,259.8352 514.8552,259.417 514.4371,258.4075 514.8552,257.398 515.8648,256.9798 516.8743,257.398 517.2924,258.4075 516.8743,259.417"/>
    <polyline points="507.4059,251.2771 507.4059,265.5378 524.3237,265.5378 524.3237,251.2771 507.4059,251.2771 524.3237,251.2771"/>
    <line x1="524.3237" x2="507.4059" y1="249.187" y2="249.187"/>
    <line x1="507.4059" x2="524.3237" y1="247.0969" y2="247.0969"/>
    <line x1="524.3237" x2="507.4059" y1="245.0068" y2="245.0068"/>
    <polyline points="507.4059,242.9167 507.4059,251.2771 524.3237,251.2771 524.3237,242.9167 507.4059,242.9167 507.9815,241.0102 509.6698,239.2315 512.3576,237.6998 515.8648,236.5177 519.3719,237.6998 522.0597,239.2315 523.748,241.0102 524.3237,242.9167"/>
    <polygon points="568.8845,248.4133 578.9521,248.4133 577.2153,244.5756 570.6213,244.5756 568.8845,248.4133 578.9521,248.4133 578.9521,257.8335 568.8845,257.8335"/>
    <polygon points="570.6213,244.5756 570.6213,230.0436 577.2153,230.0436 577.2153,244.5756"/>
    <line x1="572.2404" x2="572.2404" y1="257.8335" y2="270.8812"/>
    <polyline points="568.8845,270.8812 568.8845,257.8335 578.9521,257.8335 578.9521,270.8812 568.8845,270.8812 568.8845,257.8335"/>
    <line x1="575.5962" x2="575.5962" y1="257.8335" y2="270.8812"/>
    <line x1="575.5128" x2="575.5128" y1="278.2975" y2="301.3302"/>
    <polyline points="576.0259,301.3302 578.5411,304.2495 580.2754,307.4258 581.4813,311.322 581.8905,315.4376 565.9461,315.4376 566.3553,311.322 567.5612,307.4258 569.2955,304.2495 571.8108,301.3302"/>
    <line x1="572.3239" x2="572.3239" y1="301.3302" y2="278.2975"/>
    <line x1="569.135" x2="569.135" y1="278.2975" y2="301.3302"/>
    <polyline points="565.9461,301.3302 565.9461,278.2975 560.0672,301.3302 565.9461,301.3302 565.9461,278.2975 581.8905,278.2975 578.9521,270.8812 568.8845,270.8812 565.9461,278.2975 581.8905,278.2975 581.8905,301.3302 565.9461,301.3302 565.9461,278.2975"/>
    <line x1="578.7016" x2="578.7016" y1="278.2975" y2="301.3302"/>
    <polygon points="587.7694,301.3302 581.8905,301.3302 581.8905,278.2975"/>
    <polygon points="624.147,298.6359 639.7967,298.6359 639.7967,305.863 624.147,305.863"/>
    <polygon points="624.147,298.6359 624.147,277.695 639.7967,277.695 637.3036,269.4895 626.6401,269.4895 624.147,277.695 639.7967,277.695 639.7967,298.6359"/>
    <polygon points="634.5866,291.7105 629.3571,291.7105 629.3571,292.339 634.5866,292.339"/>
    <line x1="635.1709" x2="635.1709" y1="269.4895" y2="263.5278"/>
    <line x1="633.0382" x2="633.0382" y1="263.5278" y2="269.4895"/>
    <line x1="630.9055" x2="630.9055" y1="269.4895" y2="263.5278"/>
    <line x1="628.7728" x2="628.7728" y1="263.5278" y2="269.4895"/>
    <polyline points="626.6401,269.4895 626.6401,263.5278 637.3036,263.5278 636.7987,256.445 627.145,256.445 626.6401,263.5278 637.3036,263.5278 637.3036,269.4895 626.6401,269.4895 626.6401,263.5278"/>
    <polygon points="627.145,256.445 627.145,240.284 636.7987,240.284 636.7987,256.445"/>
    <line x1="627.145" x2="636.7987" y1="256.445" y2="256.445"/>
    <line x1="636.7987" x2="627.145" y1="253.7515" y2="253.7515"/>
    <line x1="627.145" x2="636.7987" y1="251.058" y2="251.058"/>
    <line x1="636.7987" x2="627.145" y1="248.3645" y2="248.3645"/>
    <line x1="627.145" x2="636.7987" y1="245.671" y2="245.671"/>
    <line x1="636.7987" x2="627.145" y1="242.9775" y2="242.9775"/>
    <polyline points="629.1738,218.3186 629.1738,240.284 634.7699,240.284 634.7699,218.3186 629.1738,218.3186 634.7699,218.3186"/>
    <line x1="634.7699" x2="629.1738" y1="215.4707" y2="215.4707"/>
    <line x1="629.1738" x2="634.7699" y1="212.6227" y2="212.6227"/>
    <line x1="634.7699" x2="629.1738" y1="209.7748" y2="209.7748"/>
    <line x1="629.1738" x2="634.7699" y1="206.9269" y2="206.9269"/>
    <polygon points="629.1738,204.079 631.444,196.7547 632.4997,196.7547 634.7699,204.079 629.1738,204.079 634.7699,204.079 634.7699,218.3186 629.1738,218.3186"/>
    <polygon points="631.444,190.5806 632.4997,190.5806 632.4997,196.7547 631.444,196.7547"/>
    <polygon points="631.444,190.5806 631.444,185.4542 632.4997,185.4542 632.4997,190.5806"/>
    <polygon points="578.9913,184.8102 568.8453,184.8102 570.6855,191.0085 577.1512,191.0085 577.1512,211.9759 570.6855,211.9759 570.6855,191.0085 577.1512,191.0085"/>
    <polyline points="578.9913,184.8102 578.9913,167.2217 578.7359,164.6422 577.9951,162.3224 577.0294,160.7192 575.6172,159.4647 574.0338,158.9915 572.4388,159.3472 570.9928,160.4961 569.8415,162.3224 569.1008,164.6422 568.8453,167.2217 568.8453,184.8102"/>
    <polygon points="577.2153,230.0436 570.6213,230.0436 570.6213,220.3383 577.2153,220.3383 577.1512,211.9759 570.6855,211.9759 570.6213,220.3383 577.2153,220.3383"/>
    <polygon points="625.3564,315.4376 638.5873,315.4376 634.6226,305.863 629.3211,305.863"/>
    <polygon points="630.8209,431.6662 630.8209,428.269 633.1228,428.269 633.1228,431.6662"/>
    <polygon points="630.8209,436.2 630.8209,431.6662 633.1228,431.6662 633.1228,436.2"/>
    <polygon points="633.1228,436.2 633.1228,441.9624 630.8209,441.9624 630.8209,436.2"/>
    <polygon points="633.1228,448.0789 637.7822,457.8464 626.1615,457.8464 637.7822,457.8464 637.7822,479.8453 626.1615,479.8453 626.1615,457.8464 630.8209,448.0789"/>
    <polygon points="633.1228,448.0789 630.8209,448.0789 630.8209,441.9624 633.1228,441.9624"/>
    <polygon points="626.1615,479.8453 624.5459,486.9231 639.3978,486.9231 639.3978,492.954 624.5459,492.954 624.5459,486.9231 639.3978,486.9231 637.7822,479.8453"/>
    <polygon points="632.1373,490.2251 631.641,489.9385 631.8064,489.652 632.3027,489.9385"/>
    <polygon points="639.3978,492.954 639.3978,501.4183 624.5459,501.4183 624.5459,492.954"/>
    <polygon points="622.3127,505.1 641.6311,505.1 639.3978,501.4183 624.5459,501.4183 622.3127,505.1 641.6311,505.1 641.6311,518.0194 622.3127,518.0194"/>
    <polygon points="631.8818,519.3612 632.5683,519.5351 633.0623,520.448 632.8324,521.1177 631.8818,521.5347 631.2333,521.2502 630.8963,520.6274 631.2333,519.6457"/>
    <polygon points="622.3127,522.8765 622.3127,518.0194 641.6311,518.0194 641.6311,522.8765"/>
    <polygon points="631.6695,533.1384 628.8276,522.8765 626.364,522.8765 623.5221,533.1384"/>
    <polygon points="632.2742,533.1384 640.4216,533.1384 637.5797,522.8765 635.1161,522.8765"/>
    <polygon points="629.0737,595.9825 634.87,595.9825 634.87,607.3172 629.0737,607.3172 629.0737,595.9825 631.9719,585.0164 634.87,595.9825"/>
    <polygon points="634.87,607.3172 634.87,627.0924 629.0737,627.0924 629.0737,607.3172"/>
    <polygon points="629.0737,627.0924 634.87,627.0924 634.87,639.5856 629.0737,639.5856"/>
    <polygon points="634.87,639.5856 634.87,654.8972 629.0737,654.8972 629.0737,639.5856"/>
    <polygon points="628.8536,663.895 635.0901,663.895 635.0901,678.7961 628.8536,678.7961 628.8536,663.895 635.0901,663.895 634.87,654.8972 629.0737,654.8972"/>
    <polygon points="626.5785,666.7451 628.8536,666.7451 628.8536,675.946 626.5785,675.946"/>
    <polygon points="635.0901,675.946 635.0901,666.7451 637.3652,666.7451 637.3652,675.946"/>
    <polygon points="635.0901,678.7961 628.8536,678.7961 627.9155,686.3935 636.0282,686.3935 636.0282,708.5662 627.9155,708.5662 627.9155,686.3935 636.0282,686.3935"/>
    <polygon points="627.9155,708.5662 625.1851,712.8702 638.7586,712.8702 638.7586,731.5233 625.1851,731.5233 625.1851,712.8702 638.7586,712.8702 636.0282,708.5662"/>
    <polygon points="627.9291,723.3215 636.0146,723.3215 636.0146,723.7362 627.9291,723.7362"/>
    <polygon points="634.6286,735.0038 638.7586,731.5233 625.1851,731.5233 629.3151,735.0038"/>
    <polygon points="634.6286,735.0038 629.3151,735.0038 624.5767,750.8392 639.367,750.8392"/>
    <polygon points="585.6189,730.6171 585.0056,725.727 562.831,725.727 562.2177,730.6171 585.6189,730.6171 585.6189,744.941 562.2177,744.941 562.2177,730.6171"/>
    <line x1="582.5418" x2="582.5418" y1="725.727" y2="711.3113"/>
    <line x1="580.0779" x2="580.0779" y1="711.3113" y2="725.727"/>
    <line x1="577.6141" x2="577.6141" y1="725.727" y2="711.3113"/>
    <line x1="575.1502" x2="575.1502" y1="711.3113" y2="725.727"/>
    <line x1="572.6864" x2="572.6864" y1="725.727" y2="711.3113"/>
    <line x1="570.2225" x2="570.2225" y1="711.3113" y2="725.727"/>
    <line x1="567.7587" x2="567.7587" y1="725.727" y2="711.3113"/>
    <line x1="565.2948" x2="565.2948" y1="711.3113" y2="725.727"/>
    <polyline points="562.831,725.727 562.831,711.3113 562.831,725.727 585.0056,725.727 585.0056,711.3113 562.831,711.3113 585.0056,711.3113"/>
    <line x1="585.0056" x2="562.831" y1="708.1615" y2="708.1615"/>
    <line x1="562.831" x2="585.0056" y1="705.0117" y2="705.0117"/>
    <line x1="585.0056" x2="562.831" y1="701.862" y2="701.862"/>
    <line x1="562.831" x2="585.0056" y1="698.7122" y2="698.7122"/>
    <polygon points="584.0929,687.9734 563.7437,687.9734 562.831,695.5625 585.0056,695.5625 585.0056,711.3113 562.831,711.3113 562.831,695.5625 585.0056,695.5625"/>
    <polygon points="575.5036,644.5057 584.0929,668.1716 563.7437,668.1716 584.0929,668.1716 584.0929,687.9734 563.7437,687.9734 563.7437,668.1716 572.333,644.5057"/>
    <polygon points="572.333,644.5057 572.333,639.7971 575.5036,639.7971 575.5036,644.5057"/>
    <polygon points="572.333,634.6171 575.5036,634.6171 575.5036,639.7971 572.333,639.7971"/>
    <polygon points="572.333,630.3334 575.5036,630.3334 575.5036,634.6171 572.333,634.6171"/>
    <polygon points="523.2736,673.0053 523.2736,694.9412 508.456,694.9412 508.456,673.0053 515.8648,662.9853 523.2736,673.0053 508.456,673.0053"/>
    <polygon points="506.2988,698.6745 525.4307,698.6745 525.4307,709.821 506.2988,709.821 506.2988,698.6745 525.4307,698.6745 523.2736,694.9412 508.456,694.9412"/>
    <polygon points="514.6827,704.2478 515.17,703.2914 515.8648,703.0657 516.5596,703.2914 517.0469,704.2478 516.8211,704.9426 515.8648,705.4298 514.9084,704.9426"/>
    <line x1="506.2988" x2="525.4307" y1="716.5722" y2="716.5722"/>
    <polygon points="525.4307,716.5722 506.2988,716.5722 506.2988,709.821 525.4307,709.821"/>
    <line x1="524.9542" x2="524.9542" y1="723.5177" y2="732.8243"/>
    <line x1="524.6296" x2="524.6296" y1="732.8243" y2="741.6088"/>
    <polygon points="522.2897,741.6088 520.2192,741.6088 516.1671,750.8392 526.3418,750.8392"/>
    <line x1="521.708" x2="521.708" y1="741.6088" y2="732.8243"/>
    <line x1="522.3572" x2="522.3572" y1="732.8243" y2="723.5177"/>
    <line x1="519.7603" x2="519.7603" y1="723.5177" y2="732.8243"/>
    <line x1="518.7864" x2="518.7864" y1="732.8243" y2="741.6088"/>
    <line x1="515.8648" x2="515.8648" y1="741.6088" y2="732.8243"/>
    <line x1="514.5663" x2="514.5663" y1="732.8243" y2="723.5177"/>
    <line x1="511.9693" x2="511.9693" y1="723.5177" y2="732.8243"/>
    <line x1="512.9432" x2="512.9432" y1="732.8243" y2="741.6088"/>
    <polygon points="511.5104,741.6088 509.4398,741.6088 505.3878,750.8392 515.5624,750.8392"/>
    <line x1="510.0215" x2="510.0215" y1="741.6088" y2="732.8243"/>
    <line x1="509.3723" x2="509.3723" y1="732.8243" y2="723.5177"/>
    <line x1="506.7753" x2="506.7753" y1="723.5177" y2="732.8243"/>
    <line x1="507.0999" x2="507.0999" y1="732.8243" y2="741.6088"/>
    <polyline points="504.1783,741.6088 504.1783,732.8243 504.1783,741.6088 527.5512,741.6088 527.5512,732.8243 504.1783,732.8243 504.1783,723.5177 506.2988,716.5722 525.4307,716.5722 527.5512,723.5177 504.1783,723.5177 504.1783,732.8243 527.5512,732.8243 527.5512,723.5177 504.1783,723.5177"/>
    <line x1="517.1633" x2="517.1633" y1="723.5177" y2="732.8243"/>
    <line x1="468.2945" x2="447.3279" y1="728.0219" y2="728.0219"/>
    <polyline points="454.9468,728.0219 451.6318,733.5796 449.2465,739.2626 447.8084,745.0298 447.3279,750.8392 468.2945,750.8392 467.814,745.0298 466.3759,739.2626 463.9907,733.5796 460.6757,728.0219"/>
    <polygon points="468.2945,722.7763 468.2945,728.0219 447.3279,728.0219 447.3279,722.7763 468.2945,722.7763 465.9521,716.7701 449.6703,716.7701 447.3279,722.7763"/>
    <polygon points="449.6703,708.0964 465.9521,708.0964 465.9521,716.7701 449.6703,716.7701"/>
    <polygon points="465.9521,689.8642 465.9521,708.0964 449.6703,708.0964 449.6703,689.8642"/>
    <polygon points="465.9521,674.6678 465.9521,689.8642 449.6703,689.8642 449.6703,674.6678 465.9521,674.6678 463.5171,665.054 452.1053,665.054 449.6703,674.6678"/>
    <line x1="463.5171" x2="452.1053" y1="665.054" y2="665.054"/>
    <line x1="452.1053" x2="463.5171" y1="661.2704" y2="661.2704"/>
    <polygon points="463.5171,665.054 452.1053,665.054 452.1053,657.4869 456.7367,648.4318 458.8857,648.4318 463.5171,657.4869 452.1053,657.4869 463.5171,657.4869"/>
    <polygon points="458.8857,644.2577 456.7367,644.2577 456.7367,637.0868 458.8857,637.0868"/>
    <polygon points="458.8857,644.2577 458.8857,648.4318 456.7367,648.4318 456.7367,644.2577"/>
    <polyline points="411.3077,653.2747 410.5516,648.1575 408.311,643.2284 404.6684,638.6689 399.7577,634.6465 394.847,638.6689 391.2043,643.2284 388.9638,648.1575 388.2076,653.2747 411.3077,653.2747 411.3077,670.9733 388.2076,670.9733 388.2076,653.2747"/>
    <polygon points="388.2076,689.9202 388.2076,670.9733 411.3077,670.9733 411.3077,689.9202"/>
    <polygon points="388.2076,705.3344 388.2076,689.9202 411.3077,689.9202 411.3077,705.3344"/>
    <polygon points="388.2076,713.7189 411.3077,713.7189 411.3077,732.5592 388.2076,732.5592"/>
    <polygon points="411.3077,705.3344 411.3077,713.7189 388.2076,713.7189 388.2076,705.3344"/>
    <polygon points="411.3077,732.5592 388.2076,732.5592 393.688,736.8442 405.8274,736.8442"/>
    <polygon points="389.4551,750.8392 410.0602,750.8392 405.8274,736.8442 393.688,736.8442"/>
    <polygon points="349.7422,720.3695 333.666,720.3695 333.666,709.5926 349.7422,709.5926"/>
    <polygon points="340.0748,709.5926 341.7041,706.3339 343.3334,709.5926"/>
    <polygon points="333.666,709.5926 333.666,687.5381 349.7422,687.5381 349.7422,709.5926"/>
    <polygon points="332.4451,728.2102 350.9632,728.2102 349.7422,720.3695 333.666,720.3695 332.4451,728.2102 350.9632,728.2102 350.9632,742.8721 332.4451,742.8721"/>
    <polygon points="333.6545,750.8392 349.7537,750.8392 344.7053,742.8721 338.703,742.8721"/>
    <polygon points="289.9292,736.8865 294.3531,733.0503 272.948,733.0503 277.372,736.8865"/>
    <polygon points="289.9292,736.8865 277.372,736.8865 272.7876,750.8392 294.5136,750.8392"/>
    <polygon points="294.3531,722.936 294.3531,733.0503 272.948,733.0503 272.948,722.936 294.3531,722.936 292.211,718.0532 275.0902,718.0532 272.948,722.936"/>
    <polygon points="292.211,718.0532 275.0902,718.0532 275.0902,708.1965 292.211,708.1965"/>
    <polygon points="275.0902,708.1965 275.0902,701.3386 292.211,701.3386 290.4604,695.3689 276.8408,695.3689 275.0902,701.3386 292.211,701.3386 292.211,708.1965"/>
    <polygon points="283.6506,690.8166 284.3091,691.0894 284.5818,691.7478 284.3091,692.4063 283.6506,692.6791 282.9921,692.4063 282.7194,691.7478 282.9921,691.0894"/>
    <polygon points="290.4604,688.1268 290.4604,695.3689 276.8408,695.3689 276.8408,688.1268 283.6506,676.3905 290.4604,688.1268 276.8408,688.1268"/>
    <polygon points="349.7422,687.5381 333.666,687.5381 333.666,674.3945 340.1772,652.3326 343.231,652.3326 349.7422,674.3945 333.666,674.3945 349.7422,674.3945"/>
    <polygon points="340.1772,652.3326 340.1772,645.5786 343.231,645.5786 343.231,652.3326"/>
    <polygon points="343.231,640.8294 343.231,645.5786 340.1772,645.5786 340.1772,640.8294"/>
    <polygon points="239.5782,734.6846 239.5782,738.292 235.0661,738.292 235.0661,715.3723"/>
    <polyline points="180.4006,737.6818 181.8119,739.7485 182.7094,742.2597 183.0173,745.0029 176.058,745.0029 176.3658,742.2597 177.2634,739.7485 178.6746,737.6818"/>
    <line x1="176.058" x2="159.029" y1="737.6584" y2="737.6584"/>
    <line x1="159.029" x2="176.058" y1="735.8003" y2="735.8003"/>
    <line x1="176.058" x2="159.029" y1="733.9423" y2="733.9423"/>
    <line x1="159.029" x2="176.058" y1="732.0842" y2="732.0842"/>
    <line x1="176.058" x2="159.029" y1="730.2261" y2="730.2261"/>
    <polyline points="156.4124,737.6818 157.8237,739.7485 158.7212,742.2597 159.029,745.0029 152.0697,745.0029 152.3776,742.2597 153.2751,739.7485 154.6864,737.6818"/>
    <line x1="159.029" x2="176.058" y1="739.5165" y2="739.5165"/>
    <line x1="176.058" x2="159.029" y1="741.3745" y2="741.3745"/>
    <polygon points="159.029,741.3745 159.029,728.3681 176.058,728.3681 176.058,721.8636 159.029,721.8636 159.029,728.3681 176.058,728.3681 176.058,741.3745"/>
    <polygon points="174.8485,750.8392 170.0606,741.3745 165.0264,741.3745 160.2385,750.8392"/>
    <polygon points="159.029,721.8636 159.029,711.5328 176.058,711.5328 176.058,721.8636"/>
    <polygon points="159.029,711.5328 159.029,694.356 176.058,694.356 174.3379,685.0469 160.7491,685.0469 159.029,694.356 176.058,694.356 176.058,711.5328"/>
    <polyline points="159.029,697.1677 158.5983,695.531 157.3741,694.1522 155.5494,693.2486 153.7246,694.1522 152.5004,695.531 152.0697,697.1677 159.029,697.1677 159.029,737.6818 152.0697,737.6818 152.0697,697.1677"/>
    <polyline points="176.058,697.1677 176.4887,695.531 177.7129,694.1522 179.5376,693.2486 181.3624,694.1522 182.5866,695.531 183.0173,697.1677 176.058,697.1677 176.058,737.6818 183.0173,737.6818 183.0173,697.1677"/>
    <polygon points="174.3379,685.0469 160.7491,685.0469 160.7491,674.2307 166.2226,651.4367 168.8644,651.4367 174.3379,674.2307 160.7491,674.2307 174.3379,674.2307"/>
    <polygon points="168.8644,651.4367 166.2226,651.4367 166.2226,647.6511 168.8644,647.6511"/>
    <polygon points="166.2226,647.6511 166.2226,644.031 168.8644,644.031 168.8644,647.6511"/>
    <polygon points="156.8046,533.1384 178.2824,533.1384 169.8471,523.1374 165.2399,523.1374"/>
    <line x1="155.5952" x2="179.4918" y1="523.1374" y2="523.1374"/>
    <line x1="179.4918" x2="155.5952" y1="520.6809" y2="520.6809"/>
    <line x1="155.5952" x2="179.4918" y1="518.2243" y2="518.2243"/>
    <line x1="179.4918" x2="155.5952" y1="515.7678" y2="515.7678"/>
    <polygon points="155.5952,513.3112 179.4918,513.3112 179.4918,523.1374 155.5952,523.1374"/>
    <polygon points="155.5952,505.5868 179.4918,505.5868 176.472,500.7295 158.615,500.7295 155.5952,505.5868 179.4918,505.5868 179.4918,513.3112 155.5952,513.3112"/>
    <polygon points="167.5435,507.3736 170.5123,513.3112 164.5747,513.3112"/>
    <polygon points="160.4942,475.968 158.615,480.5593 176.472,480.5593 176.472,500.7295 158.615,500.7295 158.615,480.5593 176.472,480.5593 174.5928,475.968"/>
    <polygon points="160.4942,475.968 160.4942,462.6653 166.6129,453.7437 168.4741,453.7437 174.5928,462.6653 160.4942,462.6653 174.5928,462.6653 174.5928,475.968"/>
    <polygon points="164.7044,466.62 164.7044,472.2364 170.3826,472.2364 170.3826,466.62"/>
    <polygon points="166.6129,453.7437 166.6129,450.0477 168.4741,450.0477 168.4741,453.7437"/>
    <polygon points="166.6129,450.0477 166.6129,442.9996 168.4741,442.9996 168.4741,450.0477"/>
    <polygon points="166.6129,442.9996 166.6129,439.7568 168.4741,439.7568 168.4741,442.9996"/>
    <line x1="214.4813" x2="236.7128" y1="311.9398" y2="311.9398"/>
    <line x1="236.7128" x2="214.4813" y1="309.124" y2="309.124"/>
    <line x1="214.4813" x2="236.7128" y1="306.3083" y2="306.3083"/>
    <line x1="236.7128" x2="214.4813" y1="303.4925" y2="303.4925"/>
    <line x1="214.4813" x2="236.7128" y1="300.6768" y2="300.6768"/>
    <line x1="236.7128" x2="214.4813" y1="297.8611" y2="297.8611"/>
    <line x1="214.4813" x2="236.7128" y1="295.0453" y2="295.0453"/>
    <line x1="236.7128" x2="214.4813" y1="292.2296" y2="292.2296"/>
    <polyline points="214.4813,289.4139 214.4813,311.9398 236.7128,311.9398 236.7128,289.4139 214.4813,289.4139 236.7128,289.4139"/>
    <line x1="236.7128" x2="214.4813" y1="285.619" y2="285.619"/>
    <polygon points="214.4813,281.8241 236.7128,281.8241 236.7128,289.4139 214.4813,289.4139"/>
    <line x1="216.7665" x2="234.4276" y1="263.4125" y2="263.4125"/>
    <line x1="234.4276" x2="216.7665" y1="260.2157" y2="260.2157"/>
    <line x1="216.7665" x2="234.4276" y1="257.019" y2="257.019"/>
    <polygon points="234.4276,253.8223 233.1389,248.8552 218.0552,248.8552 216.7665,253.8223 234.4276,253.8223 234.4276,263.4125 216.7665,263.4125 216.7665,253.8223"/>
    <polygon points="236.7128,269.6751 234.4276,263.4125 216.7665,263.4125 214.4813,269.6751 236.7128,269.6751 236.7128,281.8241 214.4813,281.8241 214.4813,269.6751"/>
    <polygon points="218.0552,236.6387 233.1389,236.6387 230.8883,228.3839 220.3058,228.3839 218.0552,236.6387 233.1389,236.6387 233.1389,248.8552 218.0552,248.8552"/>
    <polygon points="220.3058,208.89 230.8883,208.89 228.8611,200.5296 222.333,200.5296 220.3058,208.89 230.8883,208.89 230.8883,228.3839 220.3058,228.3839"/>
    <polygon points="228.8611,179.2933 231.0814,173.8445 220.1127,173.8445 222.333,179.2933 228.8611,179.2933 228.8611,200.5296 222.333,200.5296 222.333,179.2933"/>
    <polyline points="231.0814,173.8445 230.878,157.552 230.283,156.33 229.0582,155.077 227.4337,154.2622 225.597,153.9797 223.7604,154.2622 222.1359,155.077 220.9111,156.33 220.3161,157.552 220.1127,173.8445"/>
    <polygon points="169.1128,184.4202 169.1128,189.5956 165.9742,189.5956 165.9742,184.4202"/>
    <polygon points="165.9742,194.0759 165.9742,189.5956 169.1128,189.5956 169.1128,194.0759"/>
    <polygon points="165.9742,201.1969 165.9742,194.0759 169.1128,194.0759 169.1128,201.1969"/>
    <line x1="165.7137" x2="165.7137" y1="230.9585" y2="244.3197"/>
    <line x1="169.3734" x2="169.3734" y1="244.3197" y2="230.9585"/>
    <line x1="173.0331" x2="173.0331" y1="230.9585" y2="244.3197"/>
    <line x1="162.0539" x2="162.0539" y1="244.3197" y2="230.9585"/>
    <polyline points="158.3942,230.9585 176.6928,230.9585 176.6928,244.3197 158.3942,244.3197 158.3942,230.9585 165.9742,201.1969 169.1128,201.1969 176.6928,230.9585 158.3942,230.9585 158.3942,244.3197 176.6928,244.3197 176.6928,254.9101 158.3942,254.9101 158.3942,244.3197"/>
    <polygon points="177.1881,261.8598 177.1881,271.7047 157.8989,271.7047 157.8989,261.8598 177.1881,261.8598 176.6928,254.9101 158.3942,254.9101 157.8989,261.8598"/>
    <polygon points="178.5033,281.5351 177.1881,277.6594 157.8989,277.6594 156.5837,281.5351 178.5033,281.5351 178.5033,302.7851 156.5837,302.7851 156.5837,281.5351"/>
    <polygon points="166.0883,288.6468 167.5435,288.3573 168.9988,288.6468 170.2325,289.4711 171.0568,290.7048 171.3463,292.1601 171.0568,293.6153 170.2325,294.849 168.9988,295.6734 167.5435,295.9628 166.0883,295.6734 164.8546,294.849 164.0302,293.6153 163.7408,292.1601 164.0302,290.7048 164.8546,289.4711"/>
    <polyline points="163.3687,302.7851 160.3804,305.6513 158.3418,308.6329 157.0632,311.837 156.5837,315.4376 178.5033,315.4376 178.0238,311.837 176.7452,308.6329 174.7066,305.6513 171.7183,302.7851"/>
    <polygon points="157.8989,271.7047 177.1881,271.7047 177.1881,277.6594 157.8989,277.6594"/>
    <polygon points="217.0215,311.9398 215.6907,315.4376 220.1903,315.4376 218.8595,311.9398"/>
    <polygon points="222.1258,311.9398 220.7951,315.4376 225.2947,315.4376 223.9639,311.9398"/>
    <polygon points="227.2302,311.9398 225.8994,315.4376 230.399,315.4376 229.0682,311.9398"/>
    <polygon points="231.0038,315.4376 235.5034,315.4376 234.1726,311.9398 232.3346,311.9398"/>
    <polygon points="276.2073,305.726 274.1421,305.726 274.1421,301.2406 276.2073,301.2406"/>
    <polygon points="276.2073,299.7536 291.0939,299.7536 291.0939,307.2129 276.2073,307.2129"/>
    <polygon points="285.6799,307.2129 281.6213,307.2129 277.4167,315.4376 289.8845,315.4376"/>
    <polygon points="291.0939,305.726 291.0939,301.2406 293.1591,301.2406 293.1591,305.726"/>
    <polygon points="276.2073,280.3767 291.0939,280.3767 291.0939,299.7536 276.2073,299.7536 276.2073,280.3767 291.0939,280.3767 288.3588,275.8221 278.9424,275.8221"/>
    <polyline points="278.9424,275.8221 278.9424,252.2259 288.3588,252.2259 287.0576,246.2832 280.2436,246.2832 278.9424,252.2259 288.3588,252.2259 288.3588,275.8221 278.9424,275.8221 278.9424,252.2259"/>
    <line x1="282.0812" x2="282.0812" y1="252.2259" y2="275.8221"/>
    <line x1="285.22" x2="285.22" y1="275.8221" y2="252.2259"/>
    <polyline points="287.0576,223.7863 280.2436,223.7863 287.0576,223.7863 287.0576,246.2832 280.2436,246.2832 280.2436,223.7863"/>
    <line x1="280.2436" x2="287.0576" y1="219.847" y2="219.847"/>
    <line x1="287.0576" x2="280.2436" y1="215.9076" y2="215.9076"/>
    <line x1="280.2436" x2="287.0576" y1="211.9683" y2="211.9683"/>
    <line x1="287.0576" x2="280.2436" y1="208.029" y2="208.029"/>
    <polygon points="283.6506,191.7878 287.0576,204.0897 280.2436,204.0897 287.0576,204.0897 287.0576,223.7863 280.2436,223.7863 280.2436,204.0897"/>
    <polygon points="338.9327,195.4685 338.9327,187.1195 341.3481,183.8563 342.0602,183.8563 344.4756,187.1195 338.9327,187.1195 344.4756,187.1195 344.4756,195.4685"/>
    <polygon points="340.9705,195.4685 341.7041,194.0013 342.4378,195.4685"/>
    <polygon points="337.7763,213.4429 337.7763,203.3985 345.632,203.3985 344.4756,195.4685 338.9327,195.4685 337.7763,203.3985 345.632,203.3985 345.632,213.4429"/>
    <polygon points="336.9844,217.6322 346.4239,217.6322 345.632,213.4429 337.7763,213.4429 336.9844,217.6322 346.4239,217.6322 346.4239,232.8668 336.9844,232.8668"/>
    <polygon points="347.3453,247.1683 336.063,247.1683 336.063,236.9171 347.3453,236.9171 346.4239,232.8668 336.9844,232.8668 336.063,236.9171 347.3453,236.9171"/>
    <polygon points="347.4805,251.4566 347.4805,268.1217 335.9278,268.1217 335.9278,251.4566 347.4805,251.4566 347.3453,247.1683 336.063,247.1683 335.9278,251.4566"/>
    <polygon points="347.4805,268.1217 335.9278,268.1217 333.5477,274.1042 349.8606,274.1042 349.8606,284.6358 333.5477,284.6358 333.5477,274.1042 349.8606,274.1042"/>
    <polygon points="349.8606,276.6898 351.5491,276.6898 351.5491,282.0503 349.8606,282.0503"/>
    <polygon points="349.8606,284.6358 349.8606,306.7714 333.5477,306.7714 333.5477,284.6358"/>
    <polygon points="345.9355,291.2036 337.4728,291.2036 337.4728,292.9085 345.9355,292.9085"/>
    <polygon points="343.621,306.7714 342.0065,315.4376 348.6511,315.4376 347.0367,306.7714"/>
    <polygon points="341.4018,315.4376 339.7873,306.7714 336.3716,306.7714 334.7571,315.4376"/>
    <polygon points="331.8592,282.0503 331.8592,276.6898 333.5477,276.6898 333.5477,282.0503"/>
    <polygon points="384.2669,299.1156 385.7255,300.3694 388.5406,300.3694 389.9992,299.1156"/>
    <polygon points="389.9992,294.722 389.9992,286.6629 409.5161,286.6629 409.5161,294.722"/>
    <polygon points="395.9554,301.2311 391.2087,315.4376 408.3067,315.4376 403.56,301.2311"/>
    <polygon points="390.1433,304.8595 388.5406,300.3694 385.7255,300.3694 384.1228,304.8595"/>
    <polygon points="409.3721,304.8595 410.9748,300.3694 413.7898,300.3694 415.3925,304.8595"/>
    <polygon points="409.5161,299.1156 415.2485,299.1156 413.7898,300.3694 410.9748,300.3694"/>
    <polygon points="409.5161,294.722 409.5161,301.2311 389.9992,301.2311 389.9992,294.722"/>
    <polygon points="409.5161,275.0503 409.5161,265.6374 389.9992,265.6374 389.9992,275.0503 409.5161,275.0503 409.5161,286.6629 389.9992,286.6629 389.9992,275.0503"/>
    <line x1="406.728" x2="406.728" y1="265.6374" y2="250.0933"/>
    <line x1="407.5644" x2="407.5644" y1="250.0933" y2="234.7299"/>
    <line x1="405.6127" x2="405.6127" y1="234.7299" y2="250.0933"/>
    <line x1="403.9399" x2="403.9399" y1="250.0933" y2="265.6374"/>
    <line x1="401.1517" x2="401.1517" y1="265.6374" y2="250.0933"/>
    <line x1="401.7094" x2="401.7094" y1="250.0933" y2="234.7299"/>
    <line x1="403.6611" x2="403.6611" y1="234.7299" y2="250.0933"/>
    <line x1="399.7577" x2="399.7577" y1="250.0933" y2="234.7299"/>
    <line x1="397.806" x2="397.806" y1="234.7299" y2="250.0933"/>
    <line x1="398.3636" x2="398.3636" y1="250.0933" y2="265.6374"/>
    <line x1="395.5755" x2="395.5755" y1="265.6374" y2="250.0933"/>
    <line x1="395.8543" x2="395.8543" y1="250.0933" y2="234.7299"/>
    <line x1="393.9026" x2="393.9026" y1="234.7299" y2="250.0933"/>
    <line x1="392.7874" x2="392.7874" y1="250.0933" y2="265.6374"/>
    <polyline points="389.9992,265.6374 389.9992,250.0933 389.9992,265.6374 409.5161,265.6374 409.5161,250.0933 389.9992,250.0933 389.9992,234.7299 389.9992,250.0933 409.5161,250.0933 409.5161,234.7299 389.9992,234.7299"/>
    <polygon points="389.9992,234.7299 389.9992,224.416 399.7577,193.5975 409.5161,224.416 389.9992,224.416 409.5161,224.416 409.5161,234.7299"/>
    <line x1="391.9509" x2="391.9509" y1="234.7299" y2="250.0933"/>
    <polygon points="389.9992,253.2647 389.9992,257.3906 384.2669,257.3906 389.9992,257.3906 389.9992,299.1156 384.2669,299.1156 384.2669,257.3906"/>
    <polygon points="409.5161,257.3906 409.5161,299.1156 415.2485,299.1156 415.2485,257.3906 409.5161,253.2647 409.5161,257.3906 415.2485,257.3906"/>
    <polyline points="449.9301,268.4755 449.9301,280.3301 465.6923,280.3301 465.6923,268.4755 449.9301,268.4755 449.9301,280.3301"/>
    <line x1="452.1819" x2="452.1819" y1="280.3301" y2="268.4755"/>
    <line x1="454.4336" x2="454.4336" y1="268.4755" y2="280.3301"/>
    <line x1="456.6854" x2="456.6854" y1="280.3301" y2="268.4755"/>
    <line x1="458.9371" x2="458.9371" y1="268.4755" y2="280.3301"/>
    <line x1="461.1888" x2="461.1888" y1="280.3301" y2="268.4755"/>
    <line x1="463.4406" x2="463.4406" y1="268.4755" y2="280.3301"/>
    <polygon points="465.6923,289.8097 465.6923,306.1972 449.9301,306.1972 449.9301,289.8097 465.6923,289.8097 465.6923,280.3301 449.9301,280.3301 449.9301,289.8097"/>
    <polygon points="469.9723,303.975 469.0973,305.3203 466.5673,305.3203 465.6923,303.975"/>
    <polygon points="469.991,309.8256 465.6736,309.8256 466.5673,305.3203 469.0973,305.3203"/>
    <polygon points="451.1396,315.4376 464.4829,315.4376 460.4718,306.1972 455.1506,306.1972"/>
    <polygon points="449.0551,305.3203 446.5251,305.3203 445.6315,309.8256 449.9488,309.8256"/>
    <polygon points="446.5251,305.3203 449.0551,305.3203 449.9301,303.975 445.6501,303.975"/>
    <polygon points="465.6923,251.5188 465.6923,268.4755 449.9301,268.4755 449.9301,251.5188 465.6923,251.5188 465.6923,243.3821 449.9301,243.3821 449.9301,251.5188"/>
    <polygon points="469.9723,237.0525 465.6923,237.0525 465.6923,303.975 469.9723,303.975 469.9723,237.0525 465.6923,233.0655 465.6923,237.0525"/>
    <polygon points="449.9301,237.0525 449.9301,303.975 445.6501,303.975 445.6501,237.0525 449.9301,233.0655 449.9301,237.0525 445.6501,237.0525"/>
    <polygon points="449.9301,221.6586 465.6923,221.6586 465.6923,243.3821 449.9301,243.3821"/>
    <polygon points="465.6923,211.4981 465.6923,221.6586 449.9301,221.6586 449.9301,211.4981 456.9964,197.4304 458.626,197.4304 465.6923,211.4981 449.9301,211.4981"/>
    <polygon points="458.626,192.8123 456.9964,192.8123 456.9964,187.8843 458.626,187.8843"/>
    <polygon points="456.9964,192.8123 458.626,192.8123 458.626,197.4304 456.9964,197.4304"/>
    <polygon points="342.0602,176.8838 342.0602,183.8563 341.3481,183.8563 341.3481,176.8838"/>
    <polygon points="342.0602,172.1198 342.0602,176.8838 341.3481,176.8838 341.3481,172.1198"/>
    <polygon points="342.0602,165.1253 341.3481,165.1253 341.3481,160.212 342.0602,160.212"/>
    <polygon points="342.0602,165.1253 342.0602,172.1198 341.3481,172.1198 341.3481,165.1253"/>
    <polyline points="344.1326,387.2002 343.5179,385.5744 341.7041,384.029 339.9747,385.468 339.3004,386.8724 339.2757,387.2002 344.1326,387.2002 344.1326,409.9213 339.2757,409.9213 339.2757,387.2002 339.2757,409.9213 344.1326,409.9213 344.1326,415.8676 339.2757,415.8676 339.2757,409.9213 339.2757,415.8676"/>
    <line x1="339.2736" x2="344.1347" y1="425.7645" y2="425.7645"/>
    <line x1="344.1347" x2="339.2736" y1="427.9121" y2="427.9121"/>
    <line x1="339.2736" x2="344.1347" y1="430.0597" y2="430.0597"/>
    <line x1="344.1347" x2="339.2736" y1="432.2074" y2="432.2074"/>
    <line x1="339.2736" x2="344.1347" y1="434.355" y2="434.355"/>
    <line x1="344.1347" x2="339.2736" y1="436.5026" y2="436.5026"/>
    <line x1="339.2736" x2="344.1347" y1="438.6503" y2="438.6503"/>
    <line x1="344.1347" x2="339.2736" y1="440.7979" y2="440.7979"/>
    <polygon points="339.2736,442.9455 338.6756,452.455 344.7326,452.455 344.7326,463.9754 338.6756,463.9754 338.6756,452.455 344.7326,452.455 344.1347,442.9455"/>
    <polygon points="339.2736,442.9455 339.2736,423.6168 344.1347,423.6168 344.1326,415.8676 339.2757,415.8676 339.2736,423.6168 344.1347,423.6168 344.1347,442.9455"/>
    <line x1="339.2736" x2="344.1347" y1="442.9455" y2="442.9455"/>
    <polygon points="398.58,416.3675 400.9354,416.3675 400.9354,420.8584 398.58,420.8584"/>
    <polygon points="400.9354,416.3675 398.58,416.3675 398.58,410.8159 400.9354,410.8159"/>
    <polygon points="400.9354,420.8584 405.7782,430.4581 393.7372,430.4581 405.7782,430.4581 405.7782,448.23 393.7372,448.23 393.7372,430.4581 398.58,420.8584"/>
    <polygon points="400.9354,410.8159 398.58,410.8159 398.58,407.323 400.9354,407.323"/>
    <polyline points="451.2195,428.7238 451.2363,414.8359 451.8152,411.2229 452.8295,408.7086 454.2475,406.7514 455.9541,405.5098 457.8112,405.0844 459.6683,405.5098 461.375,406.7514 462.7929,408.7086 463.8073,411.2229 464.3861,414.8359 464.4029,428.7238"/>
    <polygon points="454.0285,433.9697 461.594,433.9697 461.594,451.5966 454.0285,451.5966 454.0285,433.9697 461.594,433.9697 464.4029,428.7238 451.2195,428.7238"/>
    <polygon points="563.4272,750.8392 573.6159,750.8392 571.4266,744.941 565.6165,744.941"/>
    <polygon points="584.4095,750.8392 582.2201,744.941 576.41,744.941 574.2207,750.8392"/>
    <polygon points="574.9908,795.8113 574.9908,799.4782 572.8458,799.4782 572.8458,795.8113"/>
    <polygon points="572.8458,799.4782 574.9908,799.4782 574.9908,804.6382 572.8458,804.6382"/>
    <polygon points="572.8458,804.6382 574.9908,804.6382 574.9908,809.5299 572.8458,809.5299"/>
    <polygon points="574.9908,812.76 572.8458,812.76 572.8458,809.5299 574.9908,809.5299"/>
    <polygon points="565.5744,845.4443 572.8458,812.76 574.9908,812.76 582.2622,845.4443 565.5744,845.4443 582.2622,845.4443 582.2622,857.2407 565.5744,857.2407"/>
    <polygon points="582.9418,861.8543 582.2622,857.2407 565.5744,857.2407 564.8949,861.8543 582.9418,861.8543 582.9418,876.2947 564.8949,876.2947 564.8949,861.8543"/>
    <polygon points="564.8949,889.271 564.8949,876.2947 582.9418,876.2947 582.9418,889.271"/>
    <polygon points="564.8949,897.2096 564.8949,889.271 582.9418,889.271 582.9418,897.2096"/>
    <line x1="564.8949" x2="582.9418" y1="900.2253" y2="900.2253"/>
    <line x1="582.9418" x2="564.8949" y1="903.241" y2="903.241"/>
    <line x1="564.8949" x2="582.9418" y1="906.2568" y2="906.2568"/>
    <line x1="582.9418" x2="564.8949" y1="909.2725" y2="909.2725"/>
    <polygon points="582.9418,897.2096 582.9418,909.2725 564.8949,909.2725 564.8949,897.2096"/>
    <polygon points="584.4818,923.0022 584.4818,939.08 563.3548,939.08 563.3548,923.0022"/>
    <polygon points="584.4818,923.0022 563.3548,923.0022 563.3548,914.9876 584.4818,914.9876 582.9418,909.2725 564.8949,909.2725 563.3548,914.9876 584.4818,914.9876"/>
    <polygon points="570.0784,945.0433 577.7583,945.0433 584.4818,939.08 563.3548,939.08"/>
    <polygon points="570.0784,945.0433 562.9221,968.54 584.9146,968.54 577.7583,945.0433"/>
    <polygon points="519.4118,962.052 522.3447,957.2347 509.3849,957.2347 512.3178,962.052"/>
    <polygon points="512.3178,962.052 509.4313,968.54 522.2983,968.54 519.4118,962.052"/>
    <polygon points="509.3849,957.2347 509.3849,937.4796 522.3447,937.4796 522.3447,957.2347"/>
    <polygon points="522.3447,920.5279 522.3447,937.4796 509.3849,937.4796 509.3849,920.5279"/>
    <polygon points="521.0356,908.5866 521.0356,920.5279 510.6939,920.5279 510.6939,908.5866 521.0356,908.5866 518.9607,904.4181 512.7688,904.4181 510.6939,908.5866"/>
    <polygon points="518.9607,904.4181 512.7688,904.4181 512.7688,883.2399 518.9607,883.2399"/>
    <polyline points="513.2735,866.1541 513.2735,850.6865 515.4674,844.6871 516.2621,844.6871 518.456,850.6865 513.2735,850.6865 518.456,850.6865 518.456,866.1541 513.2735,866.1541 513.2735,850.6865"/>
    <polygon points="516.2621,844.6871 515.4674,844.6871 515.4674,839.3183 516.2621,839.3183"/>
    <polygon points="515.4674,839.3183 515.4674,835.6985 516.2621,835.6985 516.2621,839.3183"/>
    <polygon points="513.2735,866.1541 512.7688,873.6793 518.9607,873.6793 518.9607,883.2399 512.7688,883.2399 512.7688,873.6793 518.9607,873.6793 518.456,866.1541"/>
    <line x1="465.0167" x2="450.6057" y1="875.8876" y2="875.8876"/>
    <line x1="450.6057" x2="465.0167" y1="878.9709" y2="878.9709"/>
    <line x1="465.0167" x2="450.6057" y1="882.0542" y2="882.0542"/>
    <line x1="450.6057" x2="465.0167" y1="885.1374" y2="885.1374"/>
    <line x1="465.0167" x2="450.6057" y1="888.2207" y2="888.2207"/>
    <polygon points="465.0167,888.2207 450.6057,888.2207 450.6057,872.8044 457.8112,853.0847 465.0167,872.8044 450.6057,872.8044 465.0167,872.8044"/>
    <polygon points="466.9577,895.1102 466.9577,914.1826 448.6647,914.1826 448.6647,895.1102 466.9577,895.1102 465.0167,888.2207 450.6057,888.2207 448.6647,895.1102"/>
    <polygon points="466.9577,914.1826 466.9577,928.6936 448.6647,928.6936 448.6647,914.1826"/>
    <polygon points="466.9577,928.6936 466.9577,939.6913 448.6647,939.6913 448.6647,928.6936"/>
    <polygon points="448.6647,939.6913 466.9577,939.6913 466.9577,960.3452 448.6647,960.3452"/>
    <polygon points="459.798,960.3452 455.8244,960.3452 449.8742,968.54 465.7483,968.54"/>
    <polygon points="624.094,920.857 624.094,908.055 639.8498,908.055 638.3249,902.1006 625.6188,902.1006 624.094,908.055 639.8498,908.055 639.8498,920.857"/>
    <polygon points="630.9727,933.5545 632.0646,933.378 633.1429,933.6241 634.05,934.2569 634.6534,935.1839 634.8648,936.2695 634.6534,937.3551 634.05,938.2821 633.1429,938.9149 632.0646,939.161 630.9727,938.9845 630.0269,938.4111 629.3654,937.5247 629.0848,936.4549 629.2263,935.3579 629.769,934.3942"/>
    <polygon points="640.9106,943.5053 623.0331,943.5053 627.6646,950.0151 636.2791,950.0151"/>
    <polygon points="640.9106,943.5053 623.0331,943.5053 623.0331,929.0337 640.9106,929.0337 639.8498,920.857 624.094,920.857 623.0331,929.0337 640.9106,929.0337"/>
    <polygon points="636.2791,950.0151 627.6646,950.0151 624.6665,968.54 639.2772,968.54"/>
    <polygon points="625.6188,890.8442 638.3249,890.8442 638.3249,902.1006 625.6188,902.1006 625.6188,890.8442 638.3249,890.8442 637.8105,886.1063 626.1332,886.1063"/>
    <polygon points="626.1332,870.1843 626.1332,862.7532 637.8105,862.7532 635.4883,858.2573 628.4554,858.2573 626.1332,862.7532 637.8105,862.7532 637.8105,870.1843"/>
    <polygon points="637.8105,870.1843 637.8105,886.1063 626.1332,886.1063 626.1332,870.1843"/>
    <polygon points="628.4554,834.4074 635.4883,834.4074 635.4883,858.2573 628.4554,858.2573"/>
    <polygon points="626.3575,831.2937 626.3575,823.4084 628.4554,823.4084 628.4554,831.2937"/>
    <polygon points="628.4554,820.2947 635.4883,820.2947 637.3542,814.0739 626.5895,814.0739 628.4554,820.2947 635.4883,820.2947 635.4883,834.4074 628.4554,834.4074"/>
    <polyline points="626.5895,814.0739 626.5986,802.789 626.9141,800.9664 627.8487,799.0353 629.0142,797.798 630.4282,797.0115 631.9719,796.7417 633.5155,797.0115 634.9295,797.798 636.2892,799.3282 637.0296,800.9664 637.3451,802.789 637.3542,814.0739"/>
    <polygon points="637.5862,831.2937 635.4883,831.2937 635.4883,823.4084 637.5862,823.4084"/>
  </g>
</svg>
