<?xml version="1.0" encoding="utf-8" ?>
<svg xmlns="http://www.w3.org/2000/svg" xmlns:cc="http://creativecommons.org/ns#" xmlns:dc="http://purl.org/dc/elements/1.1/" xmlns:ev="http://www.w3.org/2001/xml-events" xmlns:inkscape="http://www.inkscape.org/namespaces/inkscape" xmlns:rdf="http://www.w3.org/1999/02/22-rdf-syntax-ns#" xmlns:sodipodi="http://sodipodi.sourceforge.net/DTD/sodipodi-0.dtd" xmlns:xlink="http://www.w3.org/1999/xlink" baseProfile="tiny" height="29.7cm" version="1.2" viewBox="0 0 793.7007874015749 1122.5196850393702" width="21.0cm">
  <metadata>
    <rdf:RDF>
      <cc:Work>
        <dc:format>image/svg+xml</dc:format>
        <dc:source/>
        <dc:date>2021-11-13T21:40:45.659665</dc:date>
      </cc:Work>
    </rdf:RDF>
  </metadata>
  <defs/>
  <g fill="none" id="layer1" inkscape:groupmode="layer" inkscape:label="1" stroke="#00f" style="display:inline">
    <polygon points="212.0503,1014.0408 204.5674,1001.9427 199.0226,1001.9427 191.5398,1014.0408"/>
    <polygon points="213.2597,1001.9427 213.2597,990.9596 224.6082,1000.8981 224.6082,1001.9427"/>
    <polygon points="213.2597,990.9596 213.2597,983.8694 216.4078,983.8694 216.4078,990.9596"/>
    <polygon points="213.2597,983.8694 190.3303,983.8694 190.3303,962.6245 213.2597,962.6245"/>
    <polygon points="213.2597,962.6245 190.3303,962.6245 190.3303,942.4499 213.2597,942.4499"/>
    <polygon points="190.3303,983.8694 213.2597,983.8694 213.2597,990.9596 190.3303,990.9596"/>
    <polygon points="190.3303,983.8694 190.3303,990.9596 187.1823,990.9596 187.1823,983.8694"/>
    <polygon points="190.3303,990.9596 213.2597,990.9596 213.2597,1001.9427 190.3303,1001.9427"/>
    <polygon points="190.3303,990.9596 178.9819,1000.8981 178.9819,1001.9427 190.3303,1001.9427"/>
    <polygon points="255.1855,998.0967 259.0857,1001.0558 264.4932,1001.0558 268.3934,998.0967"/>
    <polygon points="259.0857,1001.0558 256.2814,1011.2453 267.2975,1011.2453 264.4932,1001.0558"/>
    <line x1="268.3934" x2="290.0061" y1="1002.3067" y2="1002.3067"/>
    <line x1="290.0061" x2="268.3934" y1="1004.9618" y2="1004.9618"/>
    <line x1="268.3934" x2="290.0061" y1="1007.6169" y2="1007.6169"/>
    <line x1="290.0061" x2="268.3934" y1="999.6516" y2="999.6516"/>
    <polygon points="268.3934,998.0967 255.1855,998.0967 255.1855,901.9293 268.3934,877.4537 268.3934,901.9293 255.1855,901.9293 268.3934,901.9293"/>
    <line x1="268.3934" x2="290.0061" y1="996.9965" y2="996.9965"/>
    <line x1="290.0061" x2="268.3934" y1="994.3414" y2="994.3414"/>
    <polygon points="275.4826,1007.6169 269.6029,1014.0408 288.7966,1014.0408 282.917,1007.6169"/>
    <polygon points="290.0061,991.6862 290.0061,1007.6169 268.3934,1007.6169 268.3934,991.6862"/>
    <polygon points="290.0061,979.401 290.0061,991.6862 268.3934,991.6862 268.3934,979.401 290.0061,979.401 290.0061,969.7747 268.3934,969.7747 268.3934,979.401"/>
    <line x1="286.404" x2="286.404" y1="969.7747" y2="952.0701"/>
    <line x1="285.6836" x2="285.6836" y1="952.0701" y2="938.157"/>
    <line x1="281.361" x2="281.361" y1="938.157" y2="952.0701"/>
    <line x1="282.8019" x2="282.8019" y1="952.0701" y2="969.7747"/>
    <line x1="279.1998" x2="279.1998" y1="969.7747" y2="952.0701"/>
    <line x1="277.0385" x2="277.0385" y1="952.0701" y2="938.157"/>
    <line x1="272.716" x2="272.716" y1="938.157" y2="952.0701"/>
    <line x1="271.9955" x2="271.9955" y1="952.0701" y2="969.7747"/>
    <line x1="275.5976" x2="275.5976" y1="969.7747" y2="952.0701"/>
    <polyline points="268.3934,938.157 290.0061,938.157 290.0061,952.0701 268.3934,952.0701 268.3934,938.157 268.3934,952.0701 290.0061,952.0701 290.0061,969.7747 268.3934,969.7747 268.3934,952.0701 268.3934,969.7747"/>
    <polygon points="299.3138,1001.0558 302.1181,1011.2453 291.102,1011.2453 293.9063,1001.0558"/>
    <polygon points="303.214,998.0967 299.3138,1001.0558 293.9063,1001.0558 290.0061,998.0967"/>
    <line x1="339.8172" x2="373.3918" y1="996.4015" y2="996.4015"/>
    <line x1="373.3918" x2="339.8172" y1="992.4036" y2="992.4036"/>
    <polygon points="339.8172,988.4058 373.3918,988.4058 372.1926,983.2992 341.0163,983.2992 339.8172,988.4058 373.3918,988.4058 373.3918,1000.3993 339.8172,1000.3993"/>
    <line x1="341.0163" x2="372.1926" y1="983.2992" y2="983.2992"/>
    <line x1="372.1926" x2="341.0163" y1="980.5345" y2="980.5345"/>
    <line x1="341.0163" x2="372.1926" y1="977.7698" y2="977.7698"/>
    <line x1="369.2019" x2="344.0071" y1="966.0621" y2="966.0621"/>
    <line x1="344.0071" x2="369.2019" y1="962.3333" y2="962.3333"/>
    <polygon points="369.2019,966.0621 344.0071,966.0621 341.0163,975.0051 372.1926,975.0051 372.1926,983.2992 341.0163,983.2992 341.0163,975.0051 372.1926,975.0051"/>
    <line x1="369.2019" x2="344.0071" y1="958.6045" y2="958.6045"/>
    <polygon points="344.0071,954.8757 369.2019,954.8757 367.8992,948.7639 345.3098,948.7639 344.0071,954.8757 369.2019,954.8757 369.2019,966.0621 344.0071,966.0621"/>
    <polygon points="345.3098,941.5133 367.8992,941.5133 367.8992,948.7639 345.3098,948.7639"/>
    <polygon points="356.6045,942.4697 359.7516,948.7639 353.4574,948.7639"/>
    <polygon points="367.1483,920.5911 346.0607,920.5911 346.0607,906.5665 367.1483,906.5665 366.1256,902.3891 347.0833,902.3891 346.0607,906.5665 367.1483,906.5665"/>
    <polygon points="345.3098,920.5911 367.8992,920.5911 367.8992,941.5133 345.3098,941.5133"/>
    <polygon points="361.3321,898.4448 351.8768,898.4448 351.8768,897.9708 361.3321,897.9708"/>
    <polygon points="366.1256,894.9488 366.1256,902.3891 347.0833,902.3891 347.0833,894.9488"/>
    <line x1="363.4053" x2="363.4053" y1="879.479" y2="870.4178"/>
    <line x1="360.685" x2="360.685" y1="870.4178" y2="879.479"/>
    <line x1="357.9646" x2="357.9646" y1="879.479" y2="870.4178"/>
    <line x1="355.2443" x2="355.2443" y1="870.4178" y2="879.479"/>
    <line x1="352.524" x2="352.524" y1="879.479" y2="870.4178"/>
    <line x1="349.8037" x2="349.8037" y1="870.4178" y2="879.479"/>
    <polyline points="347.0833,879.479 347.0833,894.9488 366.1256,894.9488 366.1256,879.479 347.0833,879.479 347.0833,870.4178 347.8224,866.134 365.3866,866.134 366.1256,870.4178 347.0833,870.4178 347.0833,879.479 366.1256,879.479 366.1256,870.4178 347.0833,870.4178"/>
    <polygon points="354.7262,859.152 356.3253,858.2825 357.4274,858.4097 358.3587,859.0128 359.0392,860.7011 358.3587,862.3894 356.6977,863.134 354.9846,862.5187 354.177,860.8875"/>
    <polygon points="365.3866,866.134 347.8224,866.134 347.8224,855.2682 365.3866,855.2682"/>
    <polygon points="347.8224,845.5774 356.6045,830.5016 365.3866,845.5774 347.8224,845.5774 365.3866,845.5774 365.3866,855.2682 347.8224,855.2682"/>
    <polygon points="286.6278,862.7421 271.7717,862.7421 271.7717,845.2198 286.6278,845.2198 286.2067,841.5828 272.1928,841.5828 271.7717,845.2198 286.6278,845.2198"/>
    <polygon points="286.6278,862.7421 271.7717,862.7421 269.2156,870.3803 289.1839,870.3803 289.1839,879.0638 269.2156,879.0638 269.2156,870.3803 289.1839,870.3803"/>
    <polygon points="280.8243,873.6781 281.1309,874.7221 280.5974,876.0547 279.2916,876.651 277.9352,876.1815 277.2774,874.9056 277.6818,873.5284 278.9249,872.8106 280.3199,873.1491"/>
    <line x1="280.4005" x2="280.4005" y1="882.9442" y2="901.8232"/>
    <line x1="277.9991" x2="277.9991" y1="901.8232" y2="882.9442"/>
    <line x1="275.5976" x2="275.5976" y1="882.9442" y2="901.8232"/>
    <line x1="273.1962" x2="273.1962" y1="901.8232" y2="882.9442"/>
    <line x1="270.7948" x2="270.7948" y1="882.9442" y2="901.8232"/>
    <polyline points="268.3934,901.8232 268.3934,917.811 290.0061,917.811 290.0061,901.8232 268.3934,901.8232 268.3934,882.9442 269.2156,879.0638 289.1839,879.0638 290.0061,882.9442 268.3934,882.9442 268.3934,901.8232 290.0061,901.8232 290.0061,882.9442 268.3934,882.9442"/>
    <line x1="282.8019" x2="282.8019" y1="882.9442" y2="901.8232"/>
    <line x1="285.2033" x2="285.2033" y1="901.8232" y2="882.9442"/>
    <line x1="287.6047" x2="287.6047" y1="882.9442" y2="901.8232"/>
    <polygon points="290.0061,877.4537 290.0061,901.9293 303.214,901.9293 290.0061,901.9293 290.0061,998.0967 303.214,998.0967 303.214,901.9293"/>
    <polygon points="268.3934,917.811 290.0061,917.811 290.0061,938.157 268.3934,938.157"/>
    <polygon points="213.2597,929.5331 213.2597,942.4499 190.3303,942.4499 190.3303,929.5331 213.2597,929.5331 211.4226,920.5911 192.1674,920.5911 190.3303,929.5331"/>
    <polygon points="211.4226,918.1949 211.4226,908.9107 213.6119,908.9107 213.6119,918.1949"/>
    <polygon points="211.4226,906.5145 192.1674,906.5145 192.1674,888.4457 211.4226,888.4457"/>
    <polygon points="192.1674,906.5145 211.4226,906.5145 211.4226,920.5911 192.1674,920.5911"/>
    <polygon points="189.9782,918.1949 189.9782,908.9107 192.1674,908.9107 192.1674,918.1949"/>
    <polygon points="192.1674,869.9045 211.4226,869.9045 210.8689,864.3167 192.7212,864.3167 192.1674,869.9045 211.4226,869.9045 211.4226,888.4457 192.1674,888.4457"/>
    <polygon points="192.7212,864.3167 192.7212,851.0699 210.8689,851.0699 210.8689,864.3167"/>
    <polygon points="210.8689,834.6326 210.8689,851.0699 192.7212,851.0699 192.7212,834.6326"/>
    <polygon points="210.8689,820.1799 192.7212,820.1799 210.8689,820.1799 210.8689,834.6326 192.7212,834.6326 192.7212,820.1799 201.795,799.4665"/>
    <polyline points="272.1928,820.3191 272.1928,841.5828 286.2067,841.5828 286.2067,820.3191 272.1928,820.3191 272.5027,818.437 273.4321,816.5562 275.7459,813.9521 279.1998,811.3866 282.2719,813.6195 284.4651,815.8591 285.7771,818.1032 286.2067,820.3191"/>
    <polygon points="283.4082,687.4896 290.6157,687.4896 288.3741,683.5714 285.6498,683.5714"/>
    <polygon points="277.8376,683.5714 275.596,687.4896 282.8035,687.4896 280.5619,683.5714"/>
    <polygon points="280.861,676.998 281.5491,678.6593 280.861,680.3205 279.1998,681.0086 277.5385,680.3205 276.8504,678.6593 277.5385,676.998 279.1998,676.3099"/>
    <polygon points="270.0254,683.5714 267.7839,687.4896 274.9913,687.4896 272.7498,683.5714"/>
    <polygon points="266.5744,683.5714 266.5744,673.7471 291.8251,673.7471 291.8251,683.5714"/>
    <polygon points="266.5744,656.34 266.5744,641.6267 291.8251,641.6267 291.8251,656.34"/>
    <polygon points="266.5744,656.34 291.8251,656.34 291.8251,673.7471 266.5744,673.7471"/>
    <polygon points="266.5744,641.6267 266.5744,624.6062 291.8251,624.6062 291.2419,620.483 267.1576,620.483 266.5744,624.6062 291.8251,624.6062 291.8251,641.6267"/>
    <polygon points="279.1998,638.0531 280.9865,641.6267 277.413,641.6267"/>
    <polygon points="272.316,617.2905 272.316,616.4628 286.0835,616.4628 286.0835,617.2905"/>
    <polygon points="267.8107,605.5718 267.8107,595.6137 290.5889,595.6137 290.5889,605.5718"/>
    <polygon points="267.8509,595.6137 267.8509,585.7689 290.5487,585.7689 288.5245,580.6735 269.875,580.6735 267.8509,585.7689 290.5487,585.7689 290.5487,595.6137"/>
    <polygon points="269.875,580.6735 269.875,558.5777 288.5245,558.5777 288.5245,580.6735"/>
    <polygon points="276.8333,543.7282 281.5662,543.7282 281.5662,545.1887 276.8333,545.1887"/>
    <polygon points="280.9816,499.99 288.5245,536.8921 269.875,536.8921 288.5245,536.8921 288.5245,558.5777 269.875,558.5777 269.875,536.8921 277.4179,499.99"/>
    <polygon points="280.9816,494.7795 280.9816,499.99 277.4179,499.99 277.4179,494.7795"/>
    <polygon points="280.9816,489.8149 280.9816,494.7795 277.4179,494.7795 277.4179,489.8149"/>
    <polygon points="280.9816,482.8496 280.9816,489.8149 277.4179,489.8149 277.4179,482.8496"/>
    <polyline points="350.251,488.3639 356.6045,476.7155 362.9579,488.3639 350.251,488.3639 362.9579,488.3639 362.9579,511.1053 350.251,511.1053 350.251,488.3639 350.251,511.1053 362.9579,511.1053 362.9579,521.8704 350.251,521.8704 350.251,511.1053"/>
    <line x1="352.3689" x2="352.3689" y1="511.1053" y2="488.3639"/>
    <line x1="354.4867" x2="354.4867" y1="488.3639" y2="511.1053"/>
    <line x1="356.6045" x2="356.6045" y1="511.1053" y2="488.3639"/>
    <line x1="358.7223" x2="358.7223" y1="488.3639" y2="511.1053"/>
    <line x1="360.8401" x2="360.8401" y1="511.1053" y2="488.3639"/>
    <line x1="364.4376" x2="348.7713" y1="532.3094" y2="532.3094"/>
    <line x1="348.7713" x2="364.4376" y1="535.1664" y2="535.1664"/>
    <line x1="364.4376" x2="348.7713" y1="538.0234" y2="538.0234"/>
    <polyline points="348.4745,546.3395 364.7345,546.3395 364.4376,538.0234 348.7713,538.0234 348.4745,546.3395 364.7345,546.3395 364.7345,560.4382 348.4745,560.4382 348.4745,546.3395 348.4745,560.4382 364.7345,560.4382 364.7345,580.752 348.4745,580.752 348.4745,560.4382"/>
    <line x1="350.7973" x2="350.7973" y1="560.4382" y2="546.3395"/>
    <line x1="353.1202" x2="353.1202" y1="546.3395" y2="560.4382"/>
    <line x1="355.4431" x2="355.4431" y1="560.4382" y2="546.3395"/>
    <line x1="357.7659" x2="357.7659" y1="546.3395" y2="560.4382"/>
    <line x1="360.0888" x2="360.0888" y1="560.4382" y2="546.3395"/>
    <line x1="362.4116" x2="362.4116" y1="546.3395" y2="560.4382"/>
    <polygon points="358.4753,570.5951 357.9274,571.918 356.6045,572.4659 355.2816,571.918 354.7337,570.5951 355.2816,569.2723 356.6045,568.7243 357.9274,569.2723"/>
    <polygon points="364.7345,580.752 364.7345,589.9372 348.4745,589.9372 348.4745,580.752"/>
    <polygon points="357.1158,584.7035 357.4245,585.3446 356.787,586.1441 356.0932,585.9858 355.7844,585.3446 356.422,584.5451"/>
    <line x1="367.1676" x2="346.0414" y1="601.5757" y2="601.5757"/>
    <line x1="346.0414" x2="367.1676" y1="604.7178" y2="604.7178"/>
    <polyline points="367.1676,607.8598 346.0414,607.8598 367.1676,607.8598 367.1676,628.2309 346.0414,628.2309 346.0414,607.8598"/>
    <polygon points="346.0414,607.8598 346.0414,598.4336 367.1676,598.4336 364.7345,589.9372 348.4745,589.9372 346.0414,598.4336 367.1676,598.4336 367.1676,607.8598"/>
    <polygon points="354.2559,619.9353 353.7318,618.9593 353.5957,617.8598 353.8659,616.7854 354.506,615.8812 355.7795,615.1459 356.8826,615.0437 357.9482,615.3469 358.8322,616.0145 359.4154,616.9564 359.619,618.0454 359.2603,619.4715 358.5658,620.3346 357.6064,620.8886 356.5117,621.0585 355.0972,620.656"/>
    <polygon points="359.1749,651.5261 354.034,651.5261 356.6045,646.3852"/>
    <polygon points="367.1676,651.5261 346.0414,651.5261 346.0414,628.2309 367.1676,628.2309"/>
    <polygon points="367.1678,660.9261 367.1678,677.2253 346.0411,677.2253 346.0411,660.9261 367.1678,660.9261 367.1676,651.5261 346.0414,651.5261 346.0411,660.9261"/>
    <line x1="367.1678" x2="346.0411" y1="663.2546" y2="663.2546"/>
    <line x1="346.0411" x2="367.1678" y1="665.583" y2="665.583"/>
    <line x1="367.1678" x2="346.0411" y1="667.9115" y2="667.9115"/>
    <line x1="346.0411" x2="367.1678" y1="670.2399" y2="670.2399"/>
    <line x1="367.1678" x2="346.0411" y1="672.5684" y2="672.5684"/>
    <line x1="346.0411" x2="367.1678" y1="674.8968" y2="674.8968"/>
    <polyline points="367.1678,677.2253 367.1678,660.9261 375.3353,676.1229 375.3353,678.3277 367.1678,677.2253 346.0411,677.2253 337.8737,678.3277 337.8737,676.1229 346.0411,660.9261 346.0411,677.2253"/>
    <polygon points="347.2506,687.4896 365.9584,687.4896 358.9052,677.2253 354.3037,677.2253"/>
    <line x1="418.5429" x2="449.4755" y1="682.8062" y2="682.8062"/>
    <line x1="449.4755" x2="418.5429" y1="680.7649" y2="680.7649"/>
    <line x1="418.5429" x2="449.4755" y1="678.7236" y2="678.7236"/>
    <line x1="449.4755" x2="418.5429" y1="676.6822" y2="676.6822"/>
    <line x1="418.5429" x2="449.4755" y1="674.6409" y2="674.6409"/>
    <line x1="449.4755" x2="418.5429" y1="672.5996" y2="672.5996"/>
    <line x1="418.5429" x2="449.4755" y1="670.5583" y2="670.5583"/>
    <line x1="449.4755" x2="418.5429" y1="668.517" y2="668.517"/>
    <line x1="418.5429" x2="449.4755" y1="666.4757" y2="666.4757"/>
    <polygon points="449.4755,662.4907 449.4755,654.6469 451.0319,654.6469 451.0319,662.4907"/>
    <polygon points="447.4359,646.7976 420.5825,646.7976 418.5429,652.7033 449.4755,652.7033 449.4755,664.4344 418.5429,664.4344 418.5429,652.7033 449.4755,652.7033"/>
    <line x1="445.5178" x2="445.5178" y1="646.7976" y2="623.918"/>
    <line x1="443.5997" x2="443.5997" y1="623.918" y2="646.7976"/>
    <line x1="441.6816" x2="441.6816" y1="646.7976" y2="623.918"/>
    <line x1="439.7635" x2="439.7635" y1="623.918" y2="646.7976"/>
    <line x1="437.8454" x2="437.8454" y1="646.7976" y2="623.918"/>
    <line x1="435.9273" x2="435.9273" y1="623.918" y2="646.7976"/>
    <line x1="434.0092" x2="434.0092" y1="646.7976" y2="623.918"/>
    <line x1="432.0911" x2="432.0911" y1="623.918" y2="646.7976"/>
    <line x1="430.173" x2="430.173" y1="646.7976" y2="623.918"/>
    <line x1="428.2549" x2="428.2549" y1="623.918" y2="646.7976"/>
    <line x1="426.3368" x2="426.3368" y1="646.7976" y2="623.918"/>
    <line x1="424.4187" x2="424.4187" y1="623.918" y2="646.7976"/>
    <line x1="422.5006" x2="422.5006" y1="646.7976" y2="623.918"/>
    <polyline points="420.5825,623.918 420.5825,646.7976 447.4359,646.7976 447.4359,623.918 420.5825,623.918 421.1022,616.2652 446.9162,616.2652 447.4359,623.918 420.5825,623.918 420.5825,646.7976"/>
    <polygon points="416.9865,654.6469 418.5429,654.6469 418.5429,662.4907 416.9865,662.4907"/>
    <polygon points="418.5429,664.4344 449.4755,664.4344 449.4755,682.8062 418.5429,682.8062"/>
    <polygon points="430.0023,682.8062 423.4569,682.8062 419.7523,687.4896 433.7068,687.4896"/>
    <polygon points="438.0162,682.8062 434.3116,687.4896 448.2661,687.4896 444.5615,682.8062"/>
    <polygon points="490.5135,672.1147 489.2013,685.3164 497.6832,685.3164 496.3709,672.1147"/>
    <polygon points="496.3709,672.1147 499.0324,668.5052 487.8521,668.5052 490.5135,672.1147"/>
    <polygon points="505.1035,681.688 502.425,681.688 500.2418,687.4896 507.2867,687.4896"/>
    <polygon points="510.0747,681.688 507.8915,687.4896 514.9364,687.4896 512.7532,681.688"/>
    <polygon points="517.7244,681.688 515.5411,687.4896 522.5861,687.4896 520.4028,681.688"/>
    <polygon points="523.7955,669.5432 523.7955,681.688 499.0324,681.688 499.0324,669.5432"/>
    <polygon points="532.3143,672.1147 526.4569,672.1147 523.7955,668.5052 534.9758,668.5052"/>
    <polygon points="533.6266,685.3164 525.1447,685.3164 526.4569,672.1147 532.3143,672.1147"/>
    <polygon points="576.8997,664.8407 566.8684,677.5665 566.8684,680.77 576.8997,679.1682"/>
    <polygon points="585.3834,679.1682 581.2421,679.1682 578.1092,687.4896 588.5163,687.4896"/>
    <polygon points="599.5281,687.4896 596.3952,679.1682 592.2539,679.1682 589.121,687.4896"/>
    <polygon points="600.7376,664.8407 610.7689,677.5665 610.7689,680.77 600.7376,679.1682"/>
    <polygon points="600.7376,664.8407 598.0236,655.6776 579.6137,655.6776 576.8997,664.8407 600.7376,664.8407 600.7376,679.1682 576.8997,679.1682 576.8997,664.8407"/>
    <polygon points="598.0236,655.6776 579.6137,655.6776 579.6137,649.6202 598.0236,649.6202 597.1412,640.9375 580.4961,640.9375 579.6137,649.6202 598.0236,649.6202"/>
    <polygon points="594.0884,652.6128 583.5489,652.4587"/>
    <polygon points="580.4961,640.9375 580.4961,633.1794 597.1412,633.1794 594.4098,627.0436 583.2276,627.0436 580.4961,633.1794 597.1412,633.1794 597.1412,640.9375"/>
    <polygon points="581.2461,617.5892 583.2276,617.5892 583.2276,625.458 581.2461,625.458"/>
    <polygon points="588.8187,608.2426 587.8567,607.7524 587.6296,607.0536 587.8567,606.3547 588.8187,605.8646 589.5175,606.0916 590.0077,607.0536 589.7806,607.7524"/>
    <polygon points="594.4098,616.0035 594.4098,627.0436 583.2276,627.0436 583.2276,616.0035"/>
    <polygon points="594.4098,616.0035 583.2276,616.0035 583.2276,598.1036 594.4098,598.1036"/>
    <polygon points="596.3912,617.5892 596.3912,625.458 594.4098,625.458 594.4098,617.5892"/>
    <line x1="590.5047" x2="590.5047" y1="598.1036" y2="574.7085"/>
    <line x1="587.1326" x2="587.1326" y1="574.7085" y2="598.1036"/>
    <polyline points="583.7605,598.1036 583.7605,574.7085 593.8768,574.7085 593.8768,598.1036 583.7605,598.1036 583.7605,574.7085"/>
    <polygon points="583.7605,574.7085 583.7605,559.61 593.8768,559.61 593.8768,574.7085"/>
    <polygon points="583.7605,535.5244 593.8768,535.5244 593.8768,559.61 583.7605,559.61"/>
    <polygon points="588.8187,504.0099 593.8768,521.2168 583.7605,521.2168 593.8768,521.2168 593.8768,535.5244 583.7605,535.5244 583.7605,521.2168"/>
    <polygon points="513.0675,508.4759 513.0675,512.8554 509.7604,512.8554 509.7604,508.4759"/>
    <polygon points="513.0675,512.8554 513.0675,517.9974 509.7604,517.9974 509.7604,512.8554"/>
    <polygon points="513.0675,525.254 521.3018,536.1377 501.5261,536.1377 521.3018,536.1377 521.3018,546.8427 501.5261,546.8427 501.5261,536.1377 509.7604,525.254"/>
    <polygon points="513.0675,525.254 509.7604,525.254 509.7604,517.9974 513.0675,517.9974"/>
    <polygon points="515.3191,540.0255 515.3191,543.0834 507.5087,543.0834 507.5087,540.0255"/>
    <polygon points="501.5261,546.8427 499.0324,554.7054 523.7955,554.7054 523.7955,568.4511 499.0324,568.4511 499.0324,554.7054 523.7955,554.7054 521.3018,546.8427"/>
    <polygon points="487.8521,583.8373 499.0324,583.8373 499.0324,668.5052 487.8521,668.5052 487.8521,583.8373 493.4422,569.5391 499.0324,583.8373"/>
    <polygon points="523.7955,583.8373 534.9758,583.8373 523.7955,583.8373 523.7955,668.5052 534.9758,668.5052 534.9758,583.8373 529.3856,569.5391"/>
    <polygon points="523.7955,580.3614 499.0324,580.3614 499.0324,568.4511 523.7955,568.4511"/>
    <polygon points="523.7955,595.9663 499.0324,595.9663 499.0324,580.3614 523.7955,580.3614"/>
    <polygon points="499.0324,618.9377 523.7955,618.9377 523.7955,626.249 499.0324,626.249"/>
    <polygon points="499.0324,618.9377 499.0324,595.9663 523.7955,595.9663 523.7955,618.9377"/>
    <polygon points="523.7955,634.3119 523.7955,642.5517 499.0324,642.5517 499.0324,634.3119 523.7955,634.3119 523.7955,626.249 499.0324,626.249 499.0324,634.3119"/>
    <polygon points="499.0324,651.1475 523.7955,651.1475 523.7955,642.5517 499.0324,642.5517 499.0324,651.1475 523.7955,651.1475 523.7955,669.5432 499.0324,669.5432"/>
    <line x1="444.3348" x2="444.3348" y1="616.2652" y2="595.8872"/>
    <line x1="441.7534" x2="441.7534" y1="595.8872" y2="616.2652"/>
    <line x1="439.172" x2="439.172" y1="616.2652" y2="595.8872"/>
    <line x1="436.5906" x2="436.5906" y1="595.8872" y2="616.2652"/>
    <line x1="434.0092" x2="434.0092" y1="616.2652" y2="595.8872"/>
    <line x1="431.4278" x2="431.4278" y1="595.8872" y2="616.2652"/>
    <line x1="428.8464" x2="428.8464" y1="616.2652" y2="595.8872"/>
    <line x1="426.265" x2="426.265" y1="595.8872" y2="616.2652"/>
    <line x1="423.6836" x2="423.6836" y1="616.2652" y2="595.8872"/>
    <line x1="421.1022" x2="446.9162" y1="593.0516" y2="593.0516"/>
    <line x1="446.9162" x2="421.1022" y1="590.2159" y2="590.2159"/>
    <polygon points="421.1022,564.2635 446.9162,564.2635 445.5739,556.8107 422.4445,556.8107 421.1022,564.2635 446.9162,564.2635 446.9162,587.3803 421.1022,587.3803"/>
    <polyline points="422.4445,556.8107 422.4445,538.982 445.5739,538.982 445.5739,556.8107 422.4445,556.8107 422.4445,538.982"/>
    <line x1="425.0145" x2="425.0145" y1="538.982" y2="556.8107"/>
    <line x1="427.5844" x2="427.5844" y1="556.8107" y2="538.982"/>
    <line x1="430.1543" x2="430.1543" y1="538.982" y2="556.8107"/>
    <line x1="432.7242" x2="432.7242" y1="556.8107" y2="538.982"/>
    <line x1="435.2942" x2="435.2942" y1="538.982" y2="556.8107"/>
    <line x1="437.8641" x2="437.8641" y1="556.8107" y2="538.982"/>
    <line x1="440.434" x2="440.434" y1="538.982" y2="556.8107"/>
    <line x1="443.004" x2="443.004" y1="556.8107" y2="538.982"/>
    <polygon points="434.0092,534.8918 436.0543,538.982 431.9641,538.982"/>
    <polyline points="422.4445,524.8381 422.4445,538.982 445.5739,538.982 445.5739,524.8381 422.4445,524.8381 445.5739,524.8381"/>
    <line x1="445.5739" x2="422.4445" y1="522.2984" y2="522.2984"/>
    <line x1="422.4445" x2="445.5739" y1="519.7588" y2="519.7588"/>
    <line x1="445.5739" x2="422.4445" y1="517.2191" y2="517.2191"/>
    <line x1="422.4445" x2="445.5739" y1="514.6795" y2="514.6795"/>
    <line x1="445.5739" x2="422.4445" y1="512.1398" y2="512.1398"/>
    <line x1="422.4445" x2="445.5739" y1="509.6001" y2="509.6001"/>
    <line x1="445.5739" x2="422.4445" y1="507.0605" y2="507.0605"/>
    <line x1="422.4445" x2="445.5739" y1="504.5208" y2="504.5208"/>
    <polygon points="436.6578,488.5024 431.3606,488.5024 431.3606,485.4644 436.6578,485.4644"/>
    <polygon points="422.4445,501.9811 445.5739,501.9811 442.864,494.446 425.1544,494.446 422.4445,501.9811 445.5739,501.9811 445.5739,524.8381 422.4445,524.8381"/>
    <polygon points="435.6316,461.4422 442.864,481.28 425.1544,481.28 442.864,481.28 442.864,494.446 425.1544,494.446 425.1544,481.28 432.3868,461.4422"/>
    <polygon points="435.6316,461.4422 432.3868,461.4422 432.3868,456.7386 435.6316,456.7386"/>
    <polygon points="432.3868,452.8696 435.6316,452.8696 435.6316,456.7386 432.3868,456.7386"/>
    <polygon points="364.4376,538.0234 348.7713,538.0234 348.7713,529.4524 364.4376,529.4524 362.9579,521.8704 350.251,521.8704 348.7713,529.4524 364.4376,529.4524"/>
    <polygon points="446.9162,587.3803 446.9162,595.8872 421.1022,595.8872 421.1022,587.3803"/>
    <polyline points="446.9162,595.8872 421.1022,595.8872 446.9162,595.8872 446.9162,616.2652 421.1022,616.2652 421.1022,595.8872 421.1022,616.2652"/>
    <polygon points="291.2419,612.6202 291.2419,620.483 267.1576,620.483 267.1576,612.6202 291.2419,612.6202 290.5889,605.5718 267.8107,605.5718 267.1576,612.6202"/>
    <polygon points="219.7221,624.7613 219.7221,632.1863 217.6228,632.1863 217.6228,624.7613"/>
    <line x1="214.4573" x2="214.4573" y1="624.7613" y2="614.9446"/>
    <line x1="211.2917" x2="211.2917" y1="614.9446" y2="624.7613"/>
    <line x1="208.1262" x2="208.1262" y1="624.7613" y2="614.9446"/>
    <line x1="204.9606" x2="204.9606" y1="614.9446" y2="624.7613"/>
    <line x1="201.795" x2="201.795" y1="624.7613" y2="614.9446"/>
    <line x1="198.6295" x2="198.6295" y1="614.9446" y2="624.7613"/>
    <line x1="195.4639" x2="195.4639" y1="624.7613" y2="614.9446"/>
    <line x1="192.2984" x2="192.2984" y1="614.9446" y2="624.7613"/>
    <line x1="189.1328" x2="189.1328" y1="624.7613" y2="614.9446"/>
    <polyline points="185.9672,614.9446 217.6228,614.9446 217.6228,624.7613 185.9672,624.7613 185.9672,614.9446 185.9672,624.7613 217.6228,624.7613 217.6228,632.1863 185.9672,632.1863 185.9672,624.7613"/>
    <polygon points="183.868,624.7613 185.9672,624.7613 185.9672,632.1863 183.868,632.1863"/>
    <polygon points="203.2432,635.7086 203.987,637.354 203.5004,638.731 201.8881,639.544 200.4916,639.1163 199.611,637.5399 199.979,636.1266 201.5166,635.1798"/>
    <polygon points="217.6228,642.5217 185.9672,642.5217 185.9672,632.1863 217.6228,632.1863"/>
    <polygon points="222.1262,660.8775 218.0143,660.8775 218.0143,654.9065 222.1262,654.9065"/>
    <polygon points="218.6115,680.079 218.6115,670.765 225.5318,678.2878 225.5318,680.079"/>
    <polygon points="186.188,687.4896 217.4021,687.4896 205.6309,680.079 197.9591,680.079"/>
    <polygon points="184.9785,680.079 184.9785,670.765 218.6115,670.765 218.0143,665.6347 185.5758,665.6347 184.9785,670.765 218.6115,670.765 218.6115,680.079"/>
    <polygon points="184.9785,670.765 178.0582,678.2878 178.0582,680.079 184.9785,680.079"/>
    <polygon points="181.4639,654.9065 185.5758,654.9065 185.5758,660.8775 181.4639,660.8775"/>
    <polygon points="185.5758,650.1493 218.0143,650.1493 218.0143,665.6347 185.5758,665.6347 185.5758,650.1493 218.0143,650.1493 217.6228,642.5217 185.9672,642.5217"/>
    <polygon points="202.6045,608.9401 202.8517,609.6193 202.6045,610.2985 201.9785,610.6599 200.9856,610.2985 200.7384,609.6193 200.9856,608.9401 201.6115,608.5787"/>
    <line x1="203.4795" x2="203.4795" y1="597.4637" y2="574.4741"/>
    <line x1="206.8483" x2="206.8483" y1="574.4741" y2="597.4637"/>
    <line x1="210.2172" x2="210.2172" y1="597.4637" y2="574.4741"/>
    <line x1="213.5861" x2="213.5861" y1="574.4741" y2="597.4637"/>
    <polygon points="217.6228,604.2939 216.955,597.4637 186.6351,597.4637 185.9672,604.2939 217.6228,604.2939 217.6228,614.9446 185.9672,614.9446 185.9672,604.2939"/>
    <line x1="200.1106" x2="200.1106" y1="597.4637" y2="574.4741"/>
    <line x1="196.7417" x2="196.7417" y1="574.4741" y2="597.4637"/>
    <line x1="193.3728" x2="193.3728" y1="597.4637" y2="574.4741"/>
    <line x1="190.004" x2="190.004" y1="574.4741" y2="597.4637"/>
    <polyline points="186.6351,597.4637 186.6351,574.4741 186.6351,597.4637 216.955,597.4637 216.955,574.4741 186.6351,574.4741 216.955,574.4741"/>
    <polygon points="216.955,574.4741 186.6351,574.4741 186.6351,563.782 216.955,563.782"/>
    <line x1="216.955" x2="186.6351" y1="571.8011" y2="571.8011"/>
    <line x1="186.6351" x2="216.955" y1="569.1281" y2="569.1281"/>
    <line x1="216.955" x2="186.6351" y1="566.455" y2="566.455"/>
    <polygon points="185.1342,557.4272 185.1342,553.0511 186.6351,553.0511 186.6351,557.4272"/>
    <polygon points="216.955,557.4272 216.955,553.0511 218.4558,553.0511 218.4558,557.4272"/>
    <polygon points="198.8728,511.8015 204.7173,511.8015 216.955,546.6963 186.6351,546.6963 216.955,546.6963 216.955,563.782 186.6351,563.782 186.6351,546.6963"/>
    <polygon points="198.8728,506.1927 204.7173,506.1927 204.7173,511.8015 198.8728,511.8015"/>
    <polygon points="198.8728,506.1927 198.8728,500.038 204.7173,500.038 204.7173,506.1927"/>
    <polygon points="204.7173,493.2411 204.7173,500.038 198.8728,500.038 198.8728,493.2411"/>
    <polygon points="190.8741,360.9384 195.881,360.9384 193.9741,357.3263 192.781,357.3263"/>
    <polygon points="189.6646,357.3263 189.6646,341.97 213.9255,341.97 213.9255,357.3263"/>
    <polygon points="199.5857,357.3263 198.3927,357.3263 196.4857,360.9384 201.4927,360.9384"/>
    <polygon points="205.1974,357.3263 204.0043,357.3263 202.0974,360.9384 207.1043,360.9384"/>
    <polygon points="209.616,357.3263 207.7091,360.9384 212.716,360.9384 210.8091,357.3263"/>
    <polygon points="199.9827,347.9666 201.6103,347.1828 202.6983,347.3468 203.6073,347.9666 204.2673,349.6481 203.6073,351.3297 201.9798,352.1135 200.8918,351.9495 199.9827,351.3297 199.3228,349.6481"/>
    <polygon points="213.9255,341.97 189.6646,341.97 189.6646,335.8582 213.9255,335.8582"/>
    <polygon points="201.795,329.4369 205.0057,335.8582 198.5844,335.8582"/>
    <polygon points="213.9255,317.0537 189.6646,317.0537 189.6646,309.8209 213.9255,309.8209"/>
    <polygon points="218.0336,316.2972 213.9255,316.2972 213.9255,310.5775 218.0336,310.5775"/>
    <polygon points="213.9255,300.6674 213.9255,309.8209 189.6646,309.8209 189.6646,300.6674 213.9255,300.6674 211.8216,294.9758 191.7684,294.9758 189.6646,300.6674"/>
    <polygon points="205.3407,305.8792 198.2494,305.8792 198.2494,304.03 205.3407,304.03"/>
    <polygon points="189.6646,316.2972 185.5564,316.2972 185.5564,310.5775 189.6646,310.5775"/>
    <polygon points="189.6646,317.0537 213.9255,317.0537 213.9255,335.8582 189.6646,335.8582"/>
    <polygon points="207.4121,281.9144 207.4121,288.1293 196.178,288.1293 196.178,281.9144"/>
    <polygon points="211.8216,275.1594 211.8216,294.9758 191.7684,294.9758 191.7684,275.1594"/>
    <polygon points="203.1333,265.6172 203.6876,266.9554 203.1333,268.2936 201.795,268.8479 200.4568,268.2936 199.9025,266.9554 200.4568,265.6172 201.795,265.0629"/>
    <polygon points="191.7684,258.7514 211.8216,258.7514 211.8216,275.1594 191.7684,275.1594 191.7684,258.7514 211.8216,258.7514 211.6443,252.1236 191.9458,252.1236"/>
    <polyline points="191.9458,252.1236 191.9458,230.7936 211.6443,230.7936 211.6443,252.1236 191.9458,252.1236 191.9458,230.7936"/>
    <line x1="194.7598" x2="194.7598" y1="230.7936" y2="252.1236"/>
    <line x1="197.5739" x2="197.5739" y1="252.1236" y2="230.7936"/>
    <line x1="200.388" x2="200.388" y1="230.7936" y2="252.1236"/>
    <line x1="203.2021" x2="203.2021" y1="252.1236" y2="230.7936"/>
    <line x1="206.0161" x2="206.0161" y1="230.7936" y2="252.1236"/>
    <line x1="208.8302" x2="208.8302" y1="252.1236" y2="230.7936"/>
    <polygon points="211.6443,214.57 211.6443,230.7936 191.9458,230.7936 191.9458,214.57 200.5286,183.9262 203.0615,183.9262 211.6443,214.57 191.9458,214.57"/>
    <polygon points="200.5286,179.4048 203.0615,179.4048 203.0615,183.9262 200.5286,183.9262"/>
    <polygon points="200.5286,175.7175 200.5286,172.2888 203.0615,172.2888 203.0615,175.7175"/>
    <polygon points="203.0615,175.7175 203.0615,179.4048 200.5286,179.4048 200.5286,175.7175"/>
    <polygon points="203.0615,168.2722 203.0615,172.2888 200.5286,172.2888 200.5286,168.2722"/>
    <polyline points="268.7794,180.8839 268.7794,204.6409 289.6201,204.6409 289.6201,180.8839 268.7794,180.8839 269.4201,177.1969 271.4152,173.4387 274.7412,169.7702 279.1998,166.34 283.7783,169.8796 286.9843,173.4387 288.9794,177.1969 289.6201,180.8839"/>
    <line x1="289.6201" x2="268.7794" y1="184.2778" y2="184.2778"/>
    <line x1="268.7794" x2="289.6201" y1="187.6716" y2="187.6716"/>
    <line x1="289.6201" x2="268.7794" y1="191.0655" y2="191.0655"/>
    <line x1="268.7794" x2="289.6201" y1="194.4594" y2="194.4594"/>
    <line x1="289.6201" x2="268.7794" y1="197.8532" y2="197.8532"/>
    <line x1="268.7794" x2="289.6201" y1="201.2471" y2="201.2471"/>
    <polyline points="289.6201,204.6409 268.7794,204.6409 289.6201,204.6409 289.6201,211.2562 268.7794,211.2562 268.7794,204.6409"/>
    <polygon points="278.4226,209.0495 277.8647,208.1321 278.1544,207.0981 279.1078,206.6041 280.1196,206.9637 280.5474,207.9486 280.3512,208.6488 279.4739,209.268"/>
    <polygon points="284.3178,217.5969 274.0817,217.5969 274.0817,219.289 284.3178,219.289"/>
    <polygon points="268.7794,225.8069 268.121,229.4491 290.2785,229.4491 290.2785,244.58 268.121,244.58 268.121,229.4491 290.2785,229.4491 289.6201,225.8069"/>
    <polygon points="268.7794,225.8069 268.7794,211.2562 289.6201,211.2562 289.6201,225.8069"/>
    <polygon points="268.121,239.9229 266.7478,239.9229 266.7478,234.1063 268.121,234.1063"/>
    <polygon points="268.121,244.58 266.3103,250.9736 292.0893,250.9736 292.0893,274.3636 266.3103,274.3636 266.3103,250.9736 292.0893,250.9736 290.2785,244.58"/>
    <line x1="266.3103" x2="292.0893" y1="254.872" y2="254.872"/>
    <line x1="292.0893" x2="266.3103" y1="258.7703" y2="258.7703"/>
    <line x1="266.3103" x2="292.0893" y1="262.6686" y2="262.6686"/>
    <line x1="292.0893" x2="266.3103" y1="266.5669" y2="266.5669"/>
    <line x1="266.3103" x2="292.0893" y1="270.4653" y2="270.4653"/>
    <line x1="292.0893" x2="266.3103" y1="274.3636" y2="274.3636"/>
    <polygon points="266.0085,278.2177 292.391,278.2177 292.0893,274.3636 266.3103,274.3636 266.0085,278.2177 292.391,278.2177 292.391,300.7667 266.0085,300.7667"/>
    <polygon points="274.6063,308.0546 274.6063,312.4439 283.7932,312.4439 283.7932,308.0546"/>
    <polygon points="266.0085,321.5777 292.391,321.5777 292.391,344.7497 266.0085,344.7497"/>
    <polyline points="266.0085,344.7497 266.0085,352.2524 292.391,352.2524 292.391,344.7497 266.0085,344.7497 266.0085,352.2524"/>
    <line x1="268.9399" x2="268.9399" y1="352.2524" y2="344.7497"/>
    <line x1="271.8713" x2="271.8713" y1="344.7497" y2="352.2524"/>
    <line x1="274.8027" x2="274.8027" y1="352.2524" y2="344.7497"/>
    <line x1="277.7341" x2="277.7341" y1="344.7497" y2="352.2524"/>
    <line x1="280.6655" x2="280.6655" y1="352.2524" y2="344.7497"/>
    <line x1="283.5968" x2="283.5968" y1="344.7497" y2="352.2524"/>
    <line x1="286.5282" x2="286.5282" y1="352.2524" y2="344.7497"/>
    <line x1="289.4596" x2="289.4596" y1="344.7497" y2="352.2524"/>
    <polygon points="291.1816,360.9384 281.8369,352.2524 276.5626,352.2524 267.2179,360.9384"/>
    <polygon points="343.3098,348.677 343.3098,329.1433 369.8992,329.1433 368.4688,323.7729 344.7402,323.7729 343.3098,329.1433 369.8992,329.1433 369.8992,348.677"/>
    <line x1="343.3098" x2="369.8992" y1="348.677" y2="348.677"/>
    <line x1="369.8992" x2="343.3098" y1="345.4214" y2="345.4214"/>
    <line x1="343.3098" x2="369.8992" y1="342.1658" y2="342.1658"/>
    <line x1="369.8992" x2="343.3098" y1="338.9102" y2="338.9102"/>
    <line x1="343.3098" x2="369.8992" y1="335.6546" y2="335.6546"/>
    <line x1="369.8992" x2="343.3098" y1="332.399" y2="332.399"/>
    <polygon points="362.5674,348.677 350.6416,348.677 344.5192,360.9384 368.6898,360.9384"/>
    <polygon points="368.4688,308.8481 366.6656,302.3055 346.5434,302.3055 344.7402,308.8481 368.4688,308.8481 368.4688,323.7729 344.7402,323.7729 344.7402,308.8481"/>
    <polygon points="366.6656,302.3055 346.5434,302.3055 346.5434,284.1032 366.6656,284.1032 366.4947,274.572 346.7143,274.572 346.5434,284.1032 366.6656,284.1032"/>
    <line x1="363.6689" x2="363.6689" y1="274.572" y2="265.8662"/>
    <line x1="363.198" x2="363.198" y1="265.8662" y2="253.6808"/>
    <line x1="359.9012" x2="359.9012" y1="253.6808" y2="265.8662"/>
    <line x1="360.8431" x2="360.8431" y1="265.8662" y2="274.572"/>
    <line x1="358.0174" x2="358.0174" y1="274.572" y2="265.8662"/>
    <line x1="356.6045" x2="356.6045" y1="265.8662" y2="253.6808"/>
    <line x1="353.3077" x2="353.3077" y1="253.6808" y2="265.8662"/>
    <line x1="352.3658" x2="352.3658" y1="265.8662" y2="274.572"/>
    <line x1="355.1916" x2="355.1916" y1="274.572" y2="265.8662"/>
    <line x1="350.011" x2="350.011" y1="265.8662" y2="253.6808"/>
    <polyline points="346.7143,253.6808 366.4947,253.6808 366.4947,265.8662 346.7143,265.8662 346.7143,253.6808 366.4947,253.6808 366.3268,247.5497 346.8822,247.5497 346.7143,265.8662 366.4947,265.8662 366.4947,274.572 346.7143,274.572 346.7143,265.8662 346.7143,274.572"/>
    <line x1="349.54" x2="349.54" y1="274.572" y2="265.8662"/>
    <polygon points="353.8106,239.128 353.8106,234.342 359.3984,234.342 359.3984,239.128"/>
    <polygon points="346.8822,224.3599 346.8822,206.179 366.3268,206.179 366.3268,224.3599"/>
    <polyline points="346.8822,224.3599 346.8822,247.5497 366.3268,247.5497 366.3268,224.3599 346.8822,224.3599 366.3268,224.3599"/>
    <line x1="366.3268" x2="346.8822" y1="222.3398" y2="222.3398"/>
    <line x1="346.8822" x2="366.3268" y1="220.3197" y2="220.3197"/>
    <line x1="366.3268" x2="346.8822" y1="218.2996" y2="218.2996"/>
    <line x1="346.8822" x2="366.3268" y1="216.2795" y2="216.2795"/>
    <line x1="366.3268" x2="346.8822" y1="214.2594" y2="214.2594"/>
    <line x1="346.8822" x2="366.3268" y1="212.2393" y2="212.2393"/>
    <line x1="366.3268" x2="346.8822" y1="210.2192" y2="210.2192"/>
    <line x1="346.8822" x2="366.3268" y1="208.1991" y2="208.1991"/>
    <polygon points="358.9048,195.9519 354.3042,195.9519 354.3042,199.9773 358.9048,199.9773"/>
    <polygon points="366.3268,183.0633 346.8822,183.0633 346.8822,159.7925 366.3268,159.7925 365.4657,153.5343 347.7433,153.5343 346.8822,159.7925 366.3268,159.7925"/>
    <polyline points="366.3268,183.0633 346.8822,183.0633 366.3268,183.0633 366.3268,206.179 346.8822,206.179 346.8822,183.0633"/>
    <line x1="346.8822" x2="366.3268" y1="181.1241" y2="181.1241"/>
    <line x1="366.3268" x2="346.8822" y1="179.1849" y2="179.1849"/>
    <line x1="346.8822" x2="366.3268" y1="177.2456" y2="177.2456"/>
    <line x1="366.3268" x2="346.8822" y1="175.3064" y2="175.3064"/>
    <line x1="346.8822" x2="366.3268" y1="173.3671" y2="173.3671"/>
    <line x1="366.3268" x2="346.8822" y1="171.4279" y2="171.4279"/>
    <line x1="346.8822" x2="366.3268" y1="169.4887" y2="169.4887"/>
    <line x1="366.3268" x2="346.8822" y1="167.5494" y2="167.5494"/>
    <line x1="346.8822" x2="366.3268" y1="165.6102" y2="165.6102"/>
    <line x1="366.3268" x2="346.8822" y1="163.6709" y2="163.6709"/>
    <line x1="346.8822" x2="366.3268" y1="161.7317" y2="161.7317"/>
    <polygon points="365.4657,153.5343 347.7433,153.5343 347.7433,133.4217 356.6045,108.4789 365.4657,133.4217 347.7433,133.4217 365.4657,133.4217"/>
    <polygon points="421.3492,183.9182 432.4167,133.712 435.6017,133.712 446.6693,183.9182 421.3492,183.9182 446.6693,183.9182 446.6693,200.5898 421.3492,200.5898"/>
    <polygon points="418.9113,212.773 449.1071,212.773 449.1071,228.4058 418.9113,228.4058"/>
    <polygon points="442.539,209.4482 425.4794,209.4482 425.4794,210.046 442.539,210.046"/>
    <polygon points="449.093,205.4882 446.6693,200.5898 421.3492,200.5898 418.9254,205.4882 449.093,205.4882 449.093,212.773 418.9254,212.773 418.9254,205.4882"/>
    <polygon points="449.1071,228.4058 449.1071,239.0776 418.9113,239.0776 418.9113,228.4058"/>
    <polygon points="450.2036,261.395 417.8148,261.395 417.8148,246.2287 450.2036,246.2287 449.1071,239.0776 418.9113,239.0776 417.8148,246.2287 450.2036,246.2287"/>
    <polygon points="450.4803,292.6167 450.4803,287.7887 452.5223,287.7887 452.5223,292.6167"/>
    <polygon points="450.4803,297.1918 417.5381,297.1918 417.5381,283.2136 450.4803,283.2136"/>
    <polygon points="452.5327,303.2442 452.5327,312.2631 450.8601,312.2631 450.8601,303.2442"/>
    <polygon points="450.8601,313.2046 450.8601,323.8614 417.1584,323.8614 417.1584,313.2046"/>
    <polygon points="450.8601,323.8614 450.8601,333.5973 417.1584,333.5973 417.1584,323.8614"/>
    <polygon points="450.8601,333.5973 450.8601,340.0844 417.1584,340.0844 417.1584,333.5973"/>
    <polygon points="453.1759,333.5973 453.1759,340.0844 450.8601,340.0844 450.8601,333.5973"/>
    <polyline points="437.8202,340.0844 443.5132,344.7105 447.5429,349.7689 449.0375,352.5874 450.0229,355.2468 450.6681,358.2031 450.8601,360.9384 417.1584,360.9384 417.3503,358.2031 417.9955,355.2468 418.9809,352.5874 420.4755,349.7689 424.5052,344.7105 430.1982,340.0844"/>
    <polygon points="433.5771,328.2307 433.9153,328.0762 434.2833,328.1291 434.6691,328.7294 434.2833,329.3296 433.9153,329.3825 433.376,328.9153"/>
    <polygon points="429.0119,319.0124 439.0065,319.0124 439.0065,320.2029 429.0119,320.2029"/>
    <polygon points="417.1584,313.2046 417.1584,302.3027 450.8601,302.3027 450.4803,297.1918 417.5381,297.1918 417.1584,302.3027 450.8601,302.3027 450.8601,313.2046"/>
    <polygon points="415.4858,303.2442 417.1584,303.2442 417.1584,312.2631 415.4858,312.2631"/>
    <polygon points="415.4961,287.7887 417.5381,287.7887 417.5381,292.6167 415.4961,292.6167"/>
    <polygon points="417.5381,283.2136 417.5381,269.2197 450.4803,269.2197 450.2036,261.395 417.8148,261.395 417.5381,269.2197 450.4803,269.2197 450.4803,283.2136"/>
    <polygon points="414.8425,333.5973 417.1584,333.5973 417.1584,340.0844 414.8425,340.0844"/>
    <polygon points="490.0328,352.4198 490.0328,354.6687 497.0986,354.6687 497.0986,337.1847"/>
    <polygon points="497.0986,337.1847 525.7292,337.1847 524.9671,332.9235 497.8608,332.9235 497.0986,337.1847 525.7292,337.1847 525.7292,354.6687 497.0986,354.6687"/>
    <polygon points="497.8608,315.7859 524.9671,315.7859 524.9671,332.9235 497.8608,332.9235"/>
    <polygon points="499.7063,294.8636 497.8608,303.3297 524.9671,303.3297 524.9671,315.7859 497.8608,315.7859 497.8608,303.3297 524.9671,303.3297 523.1216,294.8636"/>
    <line x1="499.7063" x2="523.1216" y1="294.8636" y2="294.8636"/>
    <polygon points="523.1216,294.8636 499.7063,294.8636 499.7063,285.276 523.1216,285.276"/>
    <line x1="523.1216" x2="499.7063" y1="291.6677" y2="291.6677"/>
    <line x1="499.7063" x2="523.1216" y1="288.4719" y2="288.4719"/>
    <polygon points="522.5916,267.3149 500.2363,267.3149 500.2363,246.8685 522.5916,246.8685"/>
    <polygon points="524.3834,254.0371 524.3834,260.1463 522.5916,260.1463 522.5916,254.0371"/>
    <polygon points="522.5916,246.8685 500.2363,246.8685 500.2363,232.7811 522.5916,232.7811"/>
    <polygon points="500.2363,260.1463 498.4444,260.1463 498.4444,254.0371 500.2363,254.0371"/>
    <polygon points="499.7063,285.276 499.7063,272.0204 523.1216,272.0204 522.5916,267.3149 500.2363,267.3149 499.7063,272.0204 523.1216,272.0204 523.1216,285.276"/>
    <polygon points="516.5939,354.6687 506.2339,354.6687 498.3081,360.9384 524.5198,360.9384"/>
    <polygon points="525.7292,354.6687 525.7292,337.1847 532.7951,352.4198 532.7951,354.6687"/>
    <polyline points="573.8102,355.9131 573.8102,348.3063 567.5686,355.9131 573.8102,355.9131 573.8102,348.3063 603.8271,348.3063 603.8271,355.9131 573.8102,355.9131 573.8102,348.3063"/>
    <line x1="576.539" x2="576.539" y1="348.3063" y2="355.9131"/>
    <line x1="579.2678" x2="579.2678" y1="355.9131" y2="348.3063"/>
    <line x1="581.9966" x2="581.9966" y1="348.3063" y2="355.9131"/>
    <line x1="584.7255" x2="584.7255" y1="355.9131" y2="348.3063"/>
    <polygon points="587.0496,348.3063 588.8187,344.7682 590.5877,348.3063"/>
    <line x1="587.4543" x2="587.4543" y1="348.3063" y2="355.9131"/>
    <line x1="590.1831" x2="590.1831" y1="355.9131" y2="348.3063"/>
    <line x1="592.9119" x2="592.9119" y1="348.3063" y2="355.9131"/>
    <polygon points="593.9348,355.9131 591.9413,360.9384 596.9771,360.9384 594.9835,355.9131"/>
    <line x1="595.6407" x2="595.6407" y1="355.9131" y2="348.3063"/>
    <line x1="598.3695" x2="598.3695" y1="348.3063" y2="355.9131"/>
    <polygon points="599.5754,355.9131 597.5818,360.9384 602.6176,360.9384 600.6241,355.9131"/>
    <line x1="601.0983" x2="601.0983" y1="355.9131" y2="348.3063"/>
    <polygon points="603.8271,348.3063 610.0687,355.9131 603.8271,355.9131"/>
    <polygon points="586.3008,360.9384 591.3366,360.9384 589.343,355.9131 588.2943,355.9131"/>
    <polygon points="580.6602,360.9384 585.696,360.9384 583.7025,355.9131 582.6538,355.9131"/>
    <polygon points="580.0555,360.9384 578.0619,355.9131 577.0133,355.9131 575.0197,360.9384"/>
    <polygon points="588.2088,322.3607 587.824,321.7391 587.9583,321.0205 588.912,320.5456 589.5665,320.8715 589.8306,321.5532 589.5665,322.2349 588.912,322.5608"/>
    <line x1="587.5829" x2="587.5829" y1="311.6517" y2="303.4762"/>
    <line x1="585.1114" x2="585.1114" y1="303.4762" y2="311.6517"/>
    <line x1="582.6399" x2="582.6399" y1="311.6517" y2="303.4762"/>
    <line x1="580.1684" x2="580.1684" y1="303.4762" y2="311.6517"/>
    <line x1="577.6969" x2="577.6969" y1="311.6517" y2="303.4762"/>
    <polyline points="575.2254,303.4762 575.2254,311.6517 602.4119,311.6517 602.4119,303.4762 575.2254,303.4762 576.1434,297.5765 601.4939,297.5765 602.4119,303.4762 575.2254,303.4762 575.2254,311.6517"/>
    <polygon points="573.8102,316.6829 603.8271,316.6829 603.8271,326.4235 573.8102,326.4235 573.8102,316.6829 603.8271,316.6829 602.4119,311.6517 575.2254,311.6517"/>
    <line x1="590.0544" x2="590.0544" y1="311.6517" y2="303.4762"/>
    <line x1="592.5259" x2="592.5259" y1="303.4762" y2="311.6517"/>
    <line x1="594.9974" x2="594.9974" y1="311.6517" y2="303.4762"/>
    <line x1="597.4689" x2="597.4689" y1="303.4762" y2="311.6517"/>
    <line x1="599.9404" x2="599.9404" y1="311.6517" y2="303.4762"/>
    <polygon points="604.7173,289.7353 604.7173,294.6749 601.4939,294.6749 601.4939,289.7353"/>
    <polygon points="603.7298,271.1563 599.2984,271.1563 599.2984,266.1077 603.7298,266.1077"/>
    <polygon points="599.2984,264.1132 578.3389,264.1132 578.3389,257.4753 599.2984,257.4753 598.6404,247.9301 578.9969,247.9301 578.3389,257.4753 599.2984,257.4753"/>
    <polygon points="601.4241,257.6707 601.4241,263.9178 599.2984,263.9178 599.2984,257.6707"/>
    <line x1="596.185" x2="596.185" y1="247.9301" y2="235.6937"/>
    <line x1="593.7295" x2="593.7295" y1="235.6937" y2="247.9301"/>
    <line x1="591.2741" x2="591.2741" y1="247.9301" y2="235.6937"/>
    <line x1="588.8187" x2="588.8187" y1="235.6937" y2="247.9301"/>
    <line x1="586.3632" x2="586.3632" y1="247.9301" y2="235.6937"/>
    <line x1="583.9078" x2="583.9078" y1="235.6937" y2="247.9301"/>
    <line x1="581.4523" x2="581.4523" y1="247.9301" y2="235.6937"/>
    <polyline points="578.9969,235.6937 578.9969,247.9301 598.6404,247.9301 598.6404,235.6937 578.9969,235.6937 579.8135,228.4367 597.8238,228.4367 598.6404,235.6937 578.9969,235.6937 578.9969,247.9301"/>
    <polygon points="578.3389,257.6707 578.3389,263.9178 576.2132,263.9178 576.2132,257.6707"/>
    <polygon points="573.9075,266.1077 578.3389,266.1077 578.3389,271.1563 573.9075,271.1563"/>
    <polygon points="578.3389,273.1509 578.3389,264.1132 599.2984,264.1132 599.2984,273.1509"/>
    <polygon points="578.3389,273.1509 599.2984,273.1509 599.2984,280.813 578.3389,280.813"/>
    <polygon points="576.1434,286.8337 601.4939,286.8337 601.4939,297.5765 576.1434,297.5765 576.1434,286.8337 601.4939,286.8337 599.2984,280.813 578.3389,280.813"/>
    <polygon points="572.92,294.6749 572.92,289.7353 576.1434,289.7353 576.1434,294.6749"/>
    <polygon points="603.8271,326.4235 603.8271,348.3063 573.8102,348.3063 573.8102,326.4235"/>
    <line x1="595.2509" x2="595.2509" y1="228.4367" y2="204.333"/>
    <line x1="592.678" x2="592.678" y1="204.333" y2="228.4367"/>
    <line x1="590.1051" x2="590.1051" y1="228.4367" y2="204.333"/>
    <line x1="587.5322" x2="587.5322" y1="204.333" y2="228.4367"/>
    <line x1="584.9593" x2="584.9593" y1="228.4367" y2="204.333"/>
    <line x1="582.3864" x2="582.3864" y1="204.333" y2="228.4367"/>
    <polyline points="579.8135,228.4367 579.8135,204.333 597.8238,204.333 596.0077,195.4694 581.6296,195.4694 579.8135,204.333 597.8238,204.333 597.8238,228.4367 579.8135,228.4367 579.8135,204.333"/>
    <polyline points="581.6296,171.7723 581.6296,195.4694 596.0077,195.4694 596.0077,171.7723 581.6296,171.7723 582.0672,170.2355 583.4134,168.6719 585.6655,167.1149 588.8187,165.568 591.9718,167.1149 594.1892,168.6418 595.5528,170.2054 596.0077,171.7723"/>
    <line x1="519.7039" x2="503.124" y1="185.2407" y2="185.2407"/>
    <polygon points="503.124,181.9176 511.4139,153.3669 519.7039,181.9176 503.124,181.9176 519.7039,181.9176 519.7039,195.2103 503.124,195.2103"/>
    <line x1="503.124" x2="519.7039" y1="188.5639" y2="188.5639"/>
    <line x1="519.7039" x2="503.124" y1="191.8871" y2="191.8871"/>
    <polyline points="503.124,195.2103 503.124,205.8417 519.7039,205.8417 519.7039,195.2103 503.124,195.2103 519.7039,195.2103"/>
    <polygon points="519.7039,196.7762 523.7188,196.7762 523.7188,204.2758 519.7039,204.2758"/>
    <polygon points="499.1091,196.7762 503.124,196.7762 503.124,204.2758 499.1091,204.2758"/>
    <polygon points="500.2363,212.1585 522.5916,212.1585 522.5916,232.7811 500.2363,232.7811 500.2363,212.1585 522.5916,212.1585 519.7039,205.8417 503.124,205.8417"/>
    <polygon points="432.4167,133.712 432.4167,127.497 435.6017,127.497 435.6017,133.712"/>
    <polygon points="432.4167,122.4674 435.6017,122.4674 435.6017,127.497 432.4167,127.497"/>
    <polygon points="435.6017,122.4674 432.4167,122.4674 432.4167,116.869 435.6017,116.869"/>
    <polygon points="435.6017,111.7505 435.6017,116.869 432.4167,116.869 432.4167,111.7505"/>
    <polygon points="291.6517,234.1063 291.6517,239.9229 290.2785,239.9229 290.2785,234.1063"/>
    <polygon points="292.391,300.7667 292.391,321.5777 266.0085,321.5777 266.0085,300.7667"/>
    <polygon points="512.3108,728.3956 512.3108,733.9087 510.517,733.9087 510.517,728.3956"/>
    <polygon points="512.3108,733.9087 512.3108,740.238 510.517,740.238 510.517,733.9087"/>
    <polygon points="510.517,740.238 512.3108,740.238 512.3108,745.3489 510.517,745.3489"/>
    <polygon points="510.517,745.3489 512.3108,745.3489 512.3108,748.7572 510.517,748.7572"/>
    <line x1="509.731" x2="509.731" y1="754.4894" y2="779.3885"/>
    <polyline points="506.3651,779.3885 506.3651,763.7395 506.3651,779.3885 516.4628,779.3885 516.4628,763.7395 506.3651,763.7395 506.3651,754.4894 506.3651,763.7395 516.4628,763.7395 516.4628,754.4894 506.3651,754.4894 516.4628,754.4894 512.3108,748.7572 510.517,748.7572 506.3651,754.4894"/>
    <line x1="513.0969" x2="513.0969" y1="754.4894" y2="779.3885"/>
    <polygon points="506.3651,779.3885 506.2305,787.3956 516.5973,787.3956 516.5973,803.2324 506.2305,803.2324 506.2305,787.3956 516.5973,787.3956 516.4628,779.3885"/>
    <line x1="506.2305" x2="516.5973" y1="790.563" y2="790.563"/>
    <line x1="516.5973" x2="506.2305" y1="793.7303" y2="793.7303"/>
    <line x1="506.2305" x2="516.5973" y1="796.8977" y2="796.8977"/>
    <line x1="516.5973" x2="506.2305" y1="800.065" y2="800.065"/>
    <line x1="506.2305" x2="516.5973" y1="803.2324" y2="803.2324"/>
    <polygon points="511.4139,818.0695 512.7348,818.6166 513.282,819.9375 512.7348,821.2584 511.4139,821.8056 510.093,821.2584 509.5459,819.9375 510.093,818.6166"/>
    <polygon points="505.8936,831.3853 505.8936,808.4897 516.9342,808.4897 516.5973,803.2324 506.2305,803.2324 505.8936,808.4897 516.9342,808.4897 516.9342,831.3853"/>
    <polygon points="516.9342,831.3853 505.8936,831.3853 504.8534,835.5878 517.9745,835.5878 517.9745,858.2126 504.8534,858.2126 504.8534,835.5878 517.9745,835.5878"/>
    <polygon points="514.9033,844.4726 507.9246,844.4726 507.9246,851.816 514.9033,851.816"/>
    <polygon points="504.8534,858.2126 517.9745,858.2126 517.9745,881.3626 504.8534,881.3626"/>
    <line x1="504.8534" x2="517.9745" y1="861.5198" y2="861.5198"/>
    <line x1="517.9745" x2="504.8534" y1="864.8269" y2="864.8269"/>
    <line x1="504.8534" x2="517.9745" y1="868.1341" y2="868.1341"/>
    <line x1="517.9745" x2="504.8534" y1="871.4412" y2="871.4412"/>
    <line x1="504.8534" x2="517.9745" y1="874.7483" y2="874.7483"/>
    <line x1="517.9745" x2="504.8534" y1="878.0555" y2="878.0555"/>
    <line x1="504.8534" x2="517.9745" y1="881.3626" y2="881.3626"/>
    <line x1="517.6429" x2="517.6429" y1="891.0116" y2="913.514"/>
    <line x1="515.5666" x2="515.5666" y1="913.514" y2="891.0116"/>
    <line x1="513.4903" x2="513.4903" y1="891.0116" y2="913.514"/>
    <line x1="511.4139" x2="511.4139" y1="913.514" y2="891.0116"/>
    <line x1="509.3376" x2="509.3376" y1="891.0116" y2="913.514"/>
    <line x1="507.2613" x2="507.2613" y1="913.514" y2="891.0116"/>
    <line x1="505.1849" x2="505.1849" y1="891.0116" y2="913.514"/>
    <polyline points="503.1086,913.514 503.1086,920.529 519.7193,920.529 519.7193,913.514 503.1086,913.514 503.1086,891.0116 504.8534,881.3626 517.9745,881.3626 519.7193,891.0116 503.1086,891.0116 503.1086,913.514 519.7193,913.514 519.7193,891.0116 503.1086,891.0116"/>
    <polygon points="515.863,916.6314 506.9648,916.6314 506.9648,916.285 515.863,916.285"/>
    <polygon points="519.7193,920.529 519.7193,944.6345 503.1086,944.6345 503.1086,920.529"/>
    <polygon points="515.274,938.1751 515.274,932.1328 507.5539,932.1328 507.5539,938.1751"/>
    <polygon points="520.7576,952.9073 519.7193,944.6345 503.1086,944.6345 502.0702,952.9073 520.7576,952.9073 520.7576,972.207 502.0702,972.207 502.0702,952.9073"/>
    <line x1="519.098" x2="519.098" y1="981.0294" y2="1003.3045"/>
    <line x1="515.2559" x2="515.2559" y1="1003.3045" y2="981.0294"/>
    <line x1="511.4139" x2="511.4139" y1="981.0294" y2="1003.3045"/>
    <line x1="507.5719" x2="507.5719" y1="1003.3045" y2="981.0294"/>
    <line x1="503.7299" x2="503.7299" y1="981.0294" y2="1003.3045"/>
    <polyline points="499.8879,1003.3045 499.8879,981.0294 493.7241,999.0933 493.7241,1003.3045 499.8879,1003.3045 499.8879,981.0294 522.94,981.0294 520.7576,972.207 502.0702,972.207 499.8879,981.0294 522.94,981.0294 522.94,1003.3045 499.8879,1003.3045 499.8879,981.0294"/>
    <polygon points="529.1037,1003.3045 522.94,1003.3045 522.94,981.0294 529.1037,999.0933"/>
    <polygon points="521.7305,1014.0408 517.0494,1003.3045 505.7784,1003.3045 501.0973,1014.0408"/>
    <polyline points="567.1956,997.6272 564.6637,1002.0588 563.7066,1004.328 562.424,1008.9406 561.9948,1013.6072 575.6332,1013.6072 575.204,1008.9406 573.9214,1004.328 572.9643,1002.0588 570.4324,997.6272"/>
    <polygon points="577.8428,1009.9788 576.8426,1014.0408 581.1493,1014.0408 580.1491,1009.9788"/>
    <polygon points="586.0606,1014.0408 585.0605,1009.9788 582.7541,1009.9788 581.754,1014.0408"/>
    <polygon points="589.9718,1009.9788 587.6655,1009.9788 586.6653,1014.0408 590.972,1014.0408"/>
    <polygon points="595.8833,1014.0408 594.8832,1009.9788 592.5768,1009.9788 591.5767,1014.0408"/>
    <polygon points="597.4882,1009.9788 596.488,1014.0408 600.7947,1014.0408 599.7945,1009.9788"/>
    <polyline points="607.2049,997.6272 604.673,1002.0588 602.9687,1006.6242 602.1115,1011.2705 602.0041,1013.6072 615.6425,1013.6072 615.5352,1011.2705 614.678,1006.6242 612.9736,1002.0588 610.4417,997.6272"/>
    <polygon points="602.0041,989.3685 602.0041,980.9165 575.6332,980.9165 575.6332,989.3685 602.0041,989.3685 602.0041,1009.9788 575.6332,1009.9788 575.6332,989.3685"/>
    <polygon points="575.6332,958.4388 602.0041,958.4388 602.0041,980.9165 575.6332,980.9165 575.6332,958.4388 602.0041,958.4388 602.0041,954.3309 575.6332,954.3309"/>
    <polygon points="575.6332,931.6401 602.0041,931.6401 602.0041,954.3309 575.6332,954.3309 575.6332,931.6401 602.0041,931.6401 602.0041,923.3796 575.6332,923.3796"/>
    <polyline points="575.6332,907.0944 575.6332,923.3796 602.0041,923.3796 602.0041,907.0944 575.6332,907.0944 602.0041,907.0944"/>
    <polygon points="602.0041,907.0944 575.6332,907.0944 575.6332,895.4374 602.0041,895.4374"/>
    <line x1="602.0041" x2="575.6332" y1="904.763" y2="904.763"/>
    <line x1="575.6332" x2="602.0041" y1="902.4316" y2="902.4316"/>
    <line x1="602.0041" x2="575.6332" y1="900.1002" y2="900.1002"/>
    <line x1="575.6332" x2="602.0041" y1="897.7688" y2="897.7688"/>
    <polyline points="602.0041,880.6114 602.8651,878.9927 605.2881,877.6745 608.8233,876.9015 612.3586,877.6745 614.7816,878.9927 615.6425,880.6114 602.0041,880.6114 602.0041,997.6272 615.6425,997.6272 615.6425,880.6114"/>
    <polygon points="602.0041,872.1425 602.0041,895.4374 575.6332,895.4374 575.6332,872.1425"/>
    <polygon points="578.3734,872.1425 578.3734,856.3085 599.2639,856.3085 597.9385,847.2284 579.6988,847.2284 578.3734,856.3085 599.2639,856.3085 599.2639,872.1425"/>
    <polyline points="575.6332,880.6114 574.7723,878.9927 572.3493,877.6745 568.814,876.9015 565.2787,877.6745 562.8557,878.9927 561.9948,880.6114 575.6332,880.6114 575.6332,997.6272 561.9948,997.6272 561.9948,880.6114"/>
    <polygon points="579.6988,834.1151 597.9385,834.1151 595.7988,828.0848 581.8385,828.0848 579.6988,834.1151 597.9385,834.1151 597.9385,847.2284 579.6988,847.2284"/>
    <line x1="581.8385" x2="595.7988" y1="828.0848" y2="828.0848"/>
    <line x1="595.7988" x2="581.8385" y1="824.9708" y2="824.9708"/>
    <line x1="581.8385" x2="595.7988" y1="821.8569" y2="821.8569"/>
    <line x1="595.7988" x2="581.8385" y1="818.7429" y2="818.7429"/>
    <line x1="581.8385" x2="595.7988" y1="815.629" y2="815.629"/>
    <line x1="595.7988" x2="581.8385" y1="812.5151" y2="812.5151"/>
    <line x1="581.8385" x2="595.7988" y1="809.4011" y2="809.4011"/>
    <polygon points="595.7988,806.2872 595.7988,828.0848 581.8385,828.0848 581.8385,806.2872 595.7988,806.2872 594.5672,800.8236 583.0702,800.8236 581.8385,806.2872"/>
    <line x1="590.7348" x2="590.7348" y1="800.8236" y2="792.325"/>
    <line x1="586.9025" x2="586.9025" y1="792.325" y2="800.8236"/>
    <polyline points="583.0702,800.8236 583.0702,792.325 594.5672,792.325 594.5672,800.8236 583.0702,800.8236 583.0702,792.325"/>
    <polygon points="585.8195,786.5627 585.8195,784.9979 591.8178,784.9979 591.8178,786.5627"/>
    <polygon points="594.5672,792.325 583.0702,792.325 583.0702,778.7161 588.8187,761.598 594.5672,778.7161 583.0702,778.7161 594.5672,778.7161"/>
    <polygon points="590.3417,839.6117 590.6743,840.6718 590.0971,842.0167 588.7247,842.525 587.4107,841.8805 586.9725,840.484 587.6828,839.2044 589.0997,838.8375"/>
    <polygon points="443.3053,866.5128 424.7131,866.5128 424.7131,855.5014 443.3053,855.5014"/>
    <line x1="440.2066" x2="440.2066" y1="866.5128" y2="884.5582"/>
    <line x1="437.1079" x2="437.1079" y1="884.5582" y2="866.5128"/>
    <line x1="434.0092" x2="434.0092" y1="866.5128" y2="884.5582"/>
    <line x1="430.9105" x2="430.9105" y1="884.5582" y2="866.5128"/>
    <line x1="427.8118" x2="427.8118" y1="866.5128" y2="884.5582"/>
    <polyline points="424.7131,884.5582 424.7131,897.2553 443.3053,897.2553 443.3053,884.5582 424.7131,884.5582 424.7131,866.5128 424.7131,884.5582 443.3053,884.5582 443.3053,866.5128 424.7131,866.5128"/>
    <polyline points="427.4901,843.1116 427.4901,855.5014 440.5283,855.5014 440.5283,843.1116 427.4901,843.1116 427.9035,841.4898 429.1426,839.872 431.1484,838.2988 434.0092,836.701 436.87,838.2988 438.8758,839.872 440.1149,841.4898 440.5283,843.1116"/>
    <polygon points="424.7131,897.2553 443.3053,897.2553 443.3053,908.3056 424.7131,908.3056"/>
    <polygon points="437.1669,923.3769 437.1669,925.1865 430.8515,925.1865 430.8515,923.3769"/>
    <polygon points="446.0065,930.1145 422.0119,930.1145 422.0119,915.6189 446.0065,915.6189 443.3053,908.3056 424.7131,908.3056 422.0119,915.6189 446.0065,915.6189"/>
    <line x1="446.0065" x2="422.0119" y1="933.624" y2="933.624"/>
    <line x1="422.0119" x2="446.0065" y1="937.1335" y2="937.1335"/>
    <line x1="446.0065" x2="422.0119" y1="940.6431" y2="940.6431"/>
    <line x1="422.0119" x2="446.0065" y1="944.1526" y2="944.1526"/>
    <polygon points="446.0065,947.6621 422.0119,947.6621 422.0119,930.1145 446.0065,930.1145"/>
    <polyline points="446.0065,947.6621 422.0119,947.6621 446.0065,947.6621 446.0065,962.3389 422.0119,962.3389 422.0119,947.6621"/>
    <line x1="422.0119" x2="446.0065" y1="950.1083" y2="950.1083"/>
    <line x1="446.0065" x2="422.0119" y1="952.5544" y2="952.5544"/>
    <line x1="422.0119" x2="446.0065" y1="955.0005" y2="955.0005"/>
    <line x1="446.0065" x2="422.0119" y1="957.4466" y2="957.4466"/>
    <line x1="422.0119" x2="446.0065" y1="959.8928" y2="959.8928"/>
    <polyline points="446.0065,962.3389 422.0119,962.3389 446.0065,962.3389 446.0065,984.8791 422.0119,984.8791 422.0119,962.3389 422.0119,984.8791"/>
    <line x1="424.4114" x2="424.4114" y1="984.8791" y2="962.3389"/>
    <line x1="426.8108" x2="426.8108" y1="962.3389" y2="984.8791"/>
    <line x1="429.2103" x2="429.2103" y1="984.8791" y2="962.3389"/>
    <polyline points="431.6097,962.3389 431.6097,984.8791 429.6876,987.3996 427.5441,991.0239 424.4715,998.3195 422.604,1006.2176 422.0119,1014.0408 446.0065,1014.0408 445.4144,1006.2176 443.5469,998.3195 440.4743,991.0239 438.3308,987.3996 436.4087,984.8791 436.4087,962.3389"/>
    <line x1="438.8081" x2="438.8081" y1="962.3389" y2="984.8791"/>
    <line x1="441.2076" x2="441.2076" y1="984.8791" y2="962.3389"/>
    <line x1="443.6071" x2="443.6071" y1="962.3389" y2="984.8791"/>
    <line x1="434.0092" x2="434.0092" y1="984.8791" y2="962.3389"/>
    <polyline points="373.3918,1000.3993 373.3918,988.4058 380.3448,998.4921 380.3448,1002.3065 373.3918,1000.3993 339.8172,1000.3993 332.8642,1002.3065 332.8642,998.4921 339.8172,988.4058 339.8172,1000.3993"/>
    <polygon points="341.0267,1014.0408 372.1823,1014.0408 361.2023,1000.3993 352.0067,1000.3993"/>
  </g>
</svg>
