<?xml version="1.0" encoding="utf-8" ?>
<svg xmlns="http://www.w3.org/2000/svg" xmlns:cc="http://creativecommons.org/ns#" xmlns:dc="http://purl.org/dc/elements/1.1/" xmlns:ev="http://www.w3.org/2001/xml-events" xmlns:inkscape="http://www.inkscape.org/namespaces/inkscape" xmlns:rdf="http://www.w3.org/1999/02/22-rdf-syntax-ns#" xmlns:sodipodi="http://sodipodi.sourceforge.net/DTD/sodipodi-0.dtd" xmlns:xlink="http://www.w3.org/1999/xlink" baseProfile="tiny" height="29.7cm" version="1.2" viewBox="0 0 793.7007874015749 1122.5196850393702" width="21.0cm">
  <metadata>
    <rdf:RDF>
      <cc:Work>
        <dc:format>image/svg+xml</dc:format>
        <dc:source/>
        <dc:date>2021-11-13T21:41:29.621999</dc:date>
      </cc:Work>
    </rdf:RDF>
  </metadata>
  <defs/>
  <g fill="none" id="layer1" inkscape:groupmode="layer" inkscape:label="1" stroke="#00f" style="display:inline">
    <polyline points="206.2731,993.4247 202.909,996.6588 200.4297,1000.0246 198.9733,1003.3345 198.4699,1006.7473 223.8766,1006.7473 223.3733,1003.3345 221.9169,1000.0246 219.4375,996.6588 216.0735,993.4247"/>
    <line x1="216.6176" x2="216.6176" y1="993.4247" y2="972.825"/>
    <line x1="220.2471" x2="220.2471" y1="972.825" y2="993.4247"/>
    <line x1="212.988" x2="212.988" y1="993.4247" y2="972.825"/>
    <line x1="209.3585" x2="209.3585" y1="972.825" y2="993.4247"/>
    <line x1="205.729" x2="205.729" y1="993.4247" y2="972.825"/>
    <line x1="202.0995" x2="202.0995" y1="972.825" y2="993.4247"/>
    <polyline points="198.4699,993.4247 198.4699,972.825 186.7096,990.2234 186.7096,993.4247 198.4699,993.4247 198.4699,972.825 223.8766,972.825 221.7193,964.5243 200.6273,964.5243 198.4699,972.825 223.8766,972.825 223.8766,993.4247 198.4699,993.4247 198.4699,972.825"/>
    <polygon points="197.1368,956.7292 200.6273,956.7292 200.6273,962.8753 197.1368,962.8753"/>
    <polygon points="221.7193,956.7292 225.2098,956.7292 225.2098,962.8753 221.7193,962.8753"/>
    <polygon points="221.7193,955.0801 221.5302,945.4506 200.8164,945.4506 200.6273,955.0801 221.7193,955.0801 221.7193,964.5243 200.6273,964.5243 200.6273,955.0801"/>
    <polygon points="200.8164,929.0397 221.5302,929.0397 221.5302,945.4506 200.8164,945.4506 200.8164,929.0397 221.5302,929.0397 221.0498,919.8316 201.2968,919.8316"/>
    <polyline points="201.2968,919.8316 201.2968,913.7022 221.0498,913.7022 221.0498,919.8316 201.2968,919.8316 201.2968,913.7022"/>
    <line x1="204.589" x2="204.589" y1="913.7022" y2="919.8316"/>
    <line x1="207.8811" x2="207.8811" y1="919.8316" y2="913.7022"/>
    <line x1="211.1733" x2="211.1733" y1="913.7022" y2="919.8316"/>
    <line x1="214.4654" x2="214.4654" y1="919.8316" y2="913.7022"/>
    <line x1="217.7576" x2="217.7576" y1="913.7022" y2="919.8316"/>
    <polygon points="211.9465,909.0906 210.8973,909.3301 210.056,908.6591 209.947,907.9362 210.2642,907.2775 211.266,906.8844 211.9465,907.1515 212.4134,908.121"/>
    <polygon points="201.2968,902.5398 221.0498,902.5398 221.0498,913.7022 201.2968,913.7022"/>
    <polygon points="201.2968,902.5398 201.2968,887.2436 221.0498,887.2436 221.0498,902.5398"/>
    <polygon points="211.3544,895.9191 210.3741,895.5623 210.13,894.8917 210.3741,894.2211 210.9921,893.8643 211.9725,894.2211 212.2166,894.8917 211.9725,895.5623"/>
    <polygon points="211.1733,883.0018 211.602,883.4306 211.1733,883.8593 210.7446,883.4306"/>
    <polygon points="221.0498,887.2436 201.2968,887.2436 201.2968,879.6175 221.0498,879.6175"/>
    <line x1="217.2915" x2="217.2915" y1="858.8033" y2="848.5312"/>
    <polyline points="219.7388,848.5312 219.1758,845.1708 217.5094,841.9444 214.806,838.9806 211.1733,836.3976 207.5406,838.9806 204.8372,841.9444 203.1708,845.1708 202.6078,848.5312 219.7388,848.5312 219.7388,858.8033 202.6078,858.8033 202.6078,848.5312 202.6078,858.8033 219.7388,858.8033 219.7388,879.6175 202.6078,879.6175 202.6078,858.8033"/>
    <line x1="205.0551" x2="205.0551" y1="858.8033" y2="848.5312"/>
    <line x1="207.5024" x2="207.5024" y1="848.5312" y2="858.8033"/>
    <line x1="209.9496" x2="209.9496" y1="858.8033" y2="848.5312"/>
    <line x1="212.3969" x2="212.3969" y1="848.5312" y2="858.8033"/>
    <line x1="214.8442" x2="214.8442" y1="858.8033" y2="848.5312"/>
    <polygon points="275.198,841.0012 273.3195,841.0012 273.3195,835.6711 275.198,835.6711"/>
    <polygon points="275.198,831.5938 301.958,831.5938 301.958,845.0786 275.198,845.0786"/>
    <polygon points="275.198,824.5593 301.958,824.5593 301.1969,820.1122 275.9591,820.1122 275.198,824.5593 301.958,824.5593 301.958,831.5938 275.198,831.5938"/>
    <polygon points="292.2902,828.5033 284.8658,828.5033 284.8658,826.5967 292.2902,826.5967"/>
    <polygon points="301.958,841.0012 301.958,835.6711 303.8365,835.6711 303.8365,841.0012"/>
    <polygon points="292.4959,861.1926 284.6601,861.1926 284.6601,857.2675 292.4959,857.2675"/>
    <polygon points="301.958,867.0773 301.958,885.5568 275.198,885.5568 275.198,867.0773"/>
    <polygon points="286.8889,875.0899 287.7575,874.3973 288.4843,874.2314 289.2232,874.3314 290.1503,874.9434 290.6658,876.3171 290.1503,877.6907 289.5673,878.1556 288.4843,878.4027 287.1352,877.8261 286.4986,876.5042"/>
    <polygon points="275.198,867.0773 275.198,845.0786 301.958,845.0786 301.958,867.0773"/>
    <polygon points="296.4554,892.346 280.7006,892.346 280.7006,897.5844 296.4554,897.5844"/>
    <polygon points="288.578,908.023 292.4667,915.8005 284.6893,915.8005"/>
    <polygon points="301.958,909.0945 275.198,909.0945 275.198,885.5568 301.958,885.5568"/>
    <polygon points="301.958,915.8005 275.198,915.8005 275.198,909.0945 301.958,909.0945"/>
    <polygon points="304.5152,920.2209 301.958,915.8005 275.198,915.8005 272.6408,920.2209 304.5152,920.2209 304.5152,934.9682 272.6408,934.9682 272.6408,920.2209"/>
    <polygon points="289.228,925.594 290.1621,926.2106 290.6815,927.5946 290.3838,928.6735 289.8895,929.2392 288.4836,929.696 287.1243,929.115 286.6828,928.5073 286.4829,927.406 287.1243,926.0742 288.4836,925.4932"/>
    <polygon points="306.4194,943.3356 314.7116,958.1298 314.7116,960.551 306.4194,959.3404"/>
    <polygon points="306.4194,959.3404 270.7366,959.3404 279.7998,972.9981 297.3562,972.9981"/>
    <polygon points="279.7998,972.9981 269.2522,1006.7473 307.9038,1006.7473 297.3562,972.9981"/>
    <polygon points="270.7366,959.3404 270.7366,943.3356 306.4194,943.3356 304.5152,934.9682 272.6408,934.9682 270.7366,943.3356 306.4194,943.3356 306.4194,959.3404"/>
    <polygon points="262.4444,958.1298 262.4444,960.551 270.7366,959.3404 270.7366,943.3356"/>
    <polygon points="235.6369,993.4247 223.8766,993.4247 223.8766,972.825 235.6369,990.2234"/>
    <polygon points="335.4368,974.6569 342.1924,980.4386 347.1866,980.4386 353.9422,974.6569"/>
    <polygon points="347.1866,980.4386 342.1924,980.4386 335.9475,995.1921 353.4315,995.1921"/>
    <line x1="353.9422" x2="378.0233" y1="981.3868" y2="981.3868"/>
    <polygon points="378.0233,978.8425 378.0233,991.5637 353.9422,991.5637 353.9422,978.8425 378.0233,978.8425 378.0233,969.972 353.9422,969.972 353.9422,978.8425"/>
    <line x1="378.0233" x2="353.9422" y1="983.931" y2="983.931"/>
    <line x1="353.9422" x2="378.0233" y1="986.4753" y2="986.4753"/>
    <line x1="378.0233" x2="353.9422" y1="989.0195" y2="989.0195"/>
    <line x1="353.9422" x2="378.0233" y1="991.5637" y2="991.5637"/>
    <polyline points="370.3607,991.5637 373.7099,995.3431 376.1053,999.1366 377.5436,1002.9396 378.0233,1006.7473 353.9422,1006.7473 354.4218,1002.9396 355.8602,999.1366 358.2555,995.3431 361.6048,991.5637"/>
    <polygon points="384.7788,980.4386 378.0233,974.6569 396.5286,974.6569 389.7731,980.4386"/>
    <polygon points="389.7731,980.4386 396.0179,995.1921 378.534,995.1921 384.7788,980.4386"/>
    <polyline points="378.0233,957.5799 353.9422,957.5799 378.0233,957.5799 378.0233,969.972 353.9422,969.972 353.9422,957.5799"/>
    <line x1="353.9422" x2="378.0233" y1="955.1919" y2="955.1919"/>
    <line x1="378.0233" x2="353.9422" y1="952.8039" y2="952.8039"/>
    <line x1="353.9422" x2="378.0233" y1="950.4159" y2="950.4159"/>
    <line x1="374.5831" x2="374.5831" y1="948.0279" y2="939.3331"/>
    <line x1="371.143" x2="371.143" y1="939.3331" y2="948.0279"/>
    <line x1="367.7028" x2="367.7028" y1="948.0279" y2="939.3331"/>
    <line x1="364.2627" x2="364.2627" y1="939.3331" y2="948.0279"/>
    <line x1="360.8225" x2="360.8225" y1="948.0279" y2="939.3331"/>
    <line x1="357.3823" x2="357.3823" y1="939.3331" y2="948.0279"/>
    <polyline points="353.9422,948.0279 353.9422,957.5799 378.0233,957.5799 378.0233,948.0279 353.9422,948.0279 353.9422,933.5779 378.0233,933.5779 378.0233,939.3331 353.9422,939.3331 353.9422,948.0279 378.0233,948.0279 378.0233,939.3331 353.9422,939.3331"/>
    <polyline points="353.9422,933.5779 353.9422,913.0912 353.9422,933.5779 378.0233,933.5779 378.0233,913.0912 353.9422,913.0912 353.9422,890.7315 353.9422,913.0912 378.0233,913.0912 378.0233,890.7315 353.9422,890.7315"/>
    <polygon points="353.9422,890.7315 353.9422,883.8651 378.0233,883.8651 378.0233,890.7315"/>
    <line x1="356.6178" x2="356.6178" y1="890.7315" y2="913.0912"/>
    <line x1="357.9557" x2="357.9557" y1="913.0912" y2="933.5779"/>
    <line x1="361.9692" x2="361.9692" y1="933.5779" y2="890.7315"/>
    <line x1="359.2935" x2="359.2935" y1="890.7315" y2="913.0912"/>
    <line x1="364.6449" x2="364.6449" y1="913.0912" y2="890.7315"/>
    <line x1="367.3206" x2="367.3206" y1="890.7315" y2="913.0912"/>
    <line x1="365.9827" x2="365.9827" y1="913.0912" y2="933.5779"/>
    <line x1="369.9963" x2="369.9963" y1="933.5779" y2="890.7315"/>
    <line x1="372.6719" x2="372.6719" y1="890.7315" y2="913.0912"/>
    <line x1="374.0098" x2="374.0098" y1="913.0912" y2="933.5779"/>
    <line x1="375.3476" x2="375.3476" y1="913.0912" y2="890.7315"/>
    <polyline points="378.0233,881.584 378.6815,879.6809 380.5895,877.9703 383.5542,876.6252 387.276,875.7817 390.9977,876.6252 393.9624,877.9703 395.8704,879.6809 396.5286,881.584 378.0233,881.584 378.0233,974.6569 396.5286,974.6569 396.5286,881.584"/>
    <line x1="372.0964" x2="372.0964" y1="868.5" y2="846.7869"/>
    <line x1="369.0395" x2="369.0395" y1="846.7869" y2="868.5"/>
    <line x1="365.9827" x2="365.9827" y1="868.5" y2="846.7869"/>
    <line x1="362.9259" x2="362.9259" y1="846.7869" y2="868.5"/>
    <line x1="359.8691" x2="359.8691" y1="868.5" y2="846.7869"/>
    <polyline points="356.8123,846.7869 356.8123,868.5 375.1532,868.5 375.1532,846.7869 356.8123,846.7869 359.5678,840.1581 372.3977,840.1581 375.1532,846.7869 356.8123,846.7869 356.8123,868.5"/>
    <polyline points="353.9422,881.584 353.284,879.6809 351.376,877.9703 348.4112,876.6252 344.6895,875.7817 340.9678,876.6252 338.003,877.9703 336.095,879.6809 335.4368,881.584 353.9422,881.584 353.9422,974.6569 335.4368,974.6569 335.4368,881.584"/>
    <polygon points="353.9422,883.8651 353.9422,877.5759 378.0233,877.5759 375.1532,868.5 356.8123,868.5 353.9422,877.5759 378.0233,877.5759 378.0233,883.8651"/>
    <polygon points="366.6529,835.8922 366.9305,836.5624 366.6529,837.2326 365.9827,837.5102 365.3125,837.2326 365.0349,836.5624 365.3125,835.8922 365.9827,835.6146"/>
    <line x1="368.1211" x2="368.1211" y1="832.9667" y2="811.637"/>
    <polyline points="372.3977,811.637 371.9537,808.2968 370.6574,805.2241 368.6125,802.6649 365.9827,800.8241 363.353,802.6649 361.3081,805.2241 360.0117,808.2968 359.5678,811.637 372.3977,811.637 372.3977,832.9667 359.5678,832.9667 359.5678,811.637 359.5678,832.9667 372.3977,832.9667 372.3977,840.1581 359.5678,840.1581 359.5678,832.9667"/>
    <line x1="363.8444" x2="363.8444" y1="832.9667" y2="811.637"/>
    <line x1="436.4339" x2="450.341" y1="811.89" y2="811.89"/>
    <line x1="450.341" x2="436.4339" y1="808.7563" y2="808.7563"/>
    <line x1="436.4339" x2="450.341" y1="805.6226" y2="805.6226"/>
    <line x1="450.341" x2="436.4339" y1="802.4889" y2="802.4889"/>
    <line x1="436.4339" x2="450.341" y1="815.0237" y2="815.0237"/>
    <line x1="450.341" x2="436.4339" y1="818.1573" y2="818.1573"/>
    <polyline points="436.4339,821.291 436.4339,838.2806 450.341,838.2806 450.341,821.291 436.4339,821.291 450.341,821.291"/>
    <polygon points="450.341,821.291 436.4339,821.291 436.4339,799.3552 450.341,799.3552"/>
    <line x1="448.792" x2="448.792" y1="847.3318" y2="871.2777"/>
    <line x1="448.4317" x2="448.4317" y1="871.2777" y2="886.5008"/>
    <line x1="445.9096" x2="445.9096" y1="886.5008" y2="871.2777"/>
    <line x1="446.6302" x2="446.6302" y1="871.2777" y2="847.3318"/>
    <line x1="444.4684" x2="444.4684" y1="847.3318" y2="871.2777"/>
    <line x1="443.3875" x2="443.3875" y1="871.2777" y2="886.5008"/>
    <line x1="440.8653" x2="440.8653" y1="886.5008" y2="871.2777"/>
    <line x1="440.1447" x2="440.1447" y1="871.2777" y2="847.3318"/>
    <line x1="442.3065" x2="442.3065" y1="847.3318" y2="871.2777"/>
    <line x1="438.3432" x2="438.3432" y1="871.2777" y2="886.5008"/>
    <polyline points="435.821,886.5008 435.821,871.2777 435.821,886.5008 450.9539,886.5008 450.9539,871.2777 435.821,871.2777 435.821,847.3318 435.821,871.2777 450.9539,871.2777 450.9539,847.3318 435.821,847.3318 436.4339,838.2806 450.341,838.2806 450.9539,847.3318 435.821,847.3318"/>
    <line x1="437.9829" x2="437.9829" y1="847.3318" y2="871.2777"/>
    <line x1="437.1815" x2="437.1815" y1="907.2945" y2="928.6399"/>
    <polyline points="435.1128,928.6399 435.1128,907.2945 451.6621,907.2945 451.6621,928.6399 435.1128,928.6399 435.1128,907.2945"/>
    <polygon points="435.3804,907.2945 435.3804,892.5731 451.3945,892.5731 450.9539,886.5008 435.821,886.5008 435.3804,892.5731 451.3945,892.5731 451.3945,907.2945"/>
    <line x1="439.2501" x2="439.2501" y1="907.2945" y2="928.6399"/>
    <line x1="441.3188" x2="441.3188" y1="928.6399" y2="907.2945"/>
    <line x1="443.3875" x2="443.3875" y1="907.2945" y2="928.6399"/>
    <line x1="445.4561" x2="445.4561" y1="928.6399" y2="907.2945"/>
    <line x1="447.5248" x2="447.5248" y1="907.2945" y2="928.6399"/>
    <line x1="449.5934" x2="449.5934" y1="928.6399" y2="907.2945"/>
    <polygon points="451.6621,928.6399 435.1128,928.6399 433.6674,932.7113 453.1075,932.7113 453.1075,953.0313 433.6674,953.0313 433.6674,932.7113 453.1075,932.7113"/>
    <line x1="453.1075" x2="433.6674" y1="936.0979" y2="936.0979"/>
    <line x1="433.6674" x2="453.1075" y1="939.4846" y2="939.4846"/>
    <line x1="453.1075" x2="433.6674" y1="942.8713" y2="942.8713"/>
    <line x1="433.6674" x2="453.1075" y1="946.258" y2="946.258"/>
    <line x1="453.1075" x2="433.6674" y1="949.6446" y2="949.6446"/>
    <line x1="433.6674" x2="453.1075" y1="953.0313" y2="953.0313"/>
    <polygon points="454.0526,957.4049 453.1075,953.0313 433.6674,953.0313 432.7223,957.4049 454.0526,957.4049 454.0526,973.8242 432.7223,973.8242 432.7223,957.4049"/>
    <line x1="454.0526" x2="432.7223" y1="960.6888" y2="960.6888"/>
    <line x1="432.7223" x2="454.0526" y1="963.9726" y2="963.9726"/>
    <line x1="454.0526" x2="432.7223" y1="967.2565" y2="967.2565"/>
    <line x1="432.7223" x2="454.0526" y1="970.5403" y2="970.5403"/>
    <line x1="454.0526" x2="432.7223" y1="973.8242" y2="973.8242"/>
    <line x1="432.0364" x2="454.7385" y1="980.9809" y2="980.9809"/>
    <polygon points="454.7385,978.2954 454.0526,973.8242 432.7223,973.8242 432.0364,978.2954 454.7385,978.2954 454.7385,986.3519 432.0364,986.3519 432.0364,978.2954"/>
    <line x1="454.7385" x2="432.0364" y1="983.6664" y2="983.6664"/>
    <line x1="432.0364" x2="454.7385" y1="986.3519" y2="986.3519"/>
    <polygon points="437.6331,990.6653 449.1418,990.6653 454.7385,986.3519 432.0364,986.3519"/>
    <polygon points="429.9307,1006.7473 456.8442,1006.7473 449.1418,990.6653 437.6331,990.6653"/>
    <line x1="510.2989" x2="531.2855" y1="997.0472" y2="997.0472"/>
    <line x1="531.2855" x2="510.2989" y1="995.1257" y2="995.1257"/>
    <line x1="510.2989" x2="531.2855" y1="993.2042" y2="993.2042"/>
    <line x1="531.2855" x2="510.2989" y1="991.2827" y2="991.2827"/>
    <line x1="510.2989" x2="531.2855" y1="989.3612" y2="989.3612"/>
    <line x1="531.2855" x2="510.2989" y1="987.4397" y2="987.4397"/>
    <line x1="510.2989" x2="531.2855" y1="985.5182" y2="985.5182"/>
    <line x1="531.2855" x2="510.2989" y1="983.5967" y2="983.5967"/>
    <line x1="510.2989" x2="531.2855" y1="981.6752" y2="981.6752"/>
    <line x1="531.2855" x2="510.2989" y1="979.7537" y2="979.7537"/>
    <line x1="510.2989" x2="531.2855" y1="977.8323" y2="977.8323"/>
    <line x1="531.2855" x2="510.2989" y1="975.9108" y2="975.9108"/>
    <polygon points="510.2989,973.9893 531.2855,973.9893 531.2855,997.0472 510.2989,997.0472"/>
    <polygon points="522.7248,968.7192 521.7913,969.3151 520.6993,969.4993 518.9974,968.8438 518.311,967.9747 518.0184,966.9066 518.166,965.809 518.7304,964.8561 519.622,964.1992 520.6993,963.9425 521.7913,964.1267 522.7248,964.7226 523.3515,965.6356 523.5721,966.7209 523.3515,967.8062"/>
    <polyline points="531.2855,959.4525 510.2989,959.4525 531.2855,959.4525 531.2855,973.9893 510.2989,973.9893 510.2989,959.4525"/>
    <line x1="510.2989" x2="531.2855" y1="957.4198" y2="957.4198"/>
    <line x1="531.2855" x2="510.2989" y1="955.3871" y2="955.3871"/>
    <line x1="510.2989" x2="531.2855" y1="953.3545" y2="953.3545"/>
    <line x1="531.2855" x2="510.2989" y1="951.3218" y2="951.3218"/>
    <line x1="510.2989" x2="531.2855" y1="949.2891" y2="949.2891"/>
    <line x1="531.2855" x2="510.2989" y1="947.2564" y2="947.2564"/>
    <line x1="510.2989" x2="531.2855" y1="945.2237" y2="945.2237"/>
    <line x1="531.2855" x2="510.2989" y1="943.1911" y2="943.1911"/>
    <line x1="510.2989" x2="531.2855" y1="941.1584" y2="941.1584"/>
    <polygon points="531.2855,939.1257 531.2855,959.4525 510.2989,959.4525 510.2989,939.1257"/>
    <polygon points="533.018,924.1576 533.018,932.4415 531.2855,932.4415 531.2855,924.1576"/>
    <polyline points="531.2855,917.4734 510.2989,917.4734 531.2855,917.4734 531.2855,939.1257 510.2989,939.1257 510.2989,917.4734"/>
    <polygon points="510.2989,917.4734 510.2989,908.6922 531.2855,908.6922 531.2855,917.4734"/>
    <line x1="510.2989" x2="531.2855" y1="915.2781" y2="915.2781"/>
    <line x1="531.2855" x2="510.2989" y1="913.0828" y2="913.0828"/>
    <line x1="510.2989" x2="531.2855" y1="910.8875" y2="910.8875"/>
    <line x1="526.397" x2="526.397" y1="908.6922" y2="893.9427"/>
    <line x1="522.6605" x2="522.6605" y1="893.9427" y2="908.6922"/>
    <line x1="518.9239" x2="518.9239" y1="908.6922" y2="893.9427"/>
    <line x1="515.1873" x2="515.1873" y1="893.9427" y2="908.6922"/>
    <polyline points="511.4508,908.6922 511.4508,893.9427 511.4508,908.6922 530.1336,908.6922 530.1336,893.9427 511.4508,893.9427 530.1336,893.9427"/>
    <line x1="530.1336" x2="511.4508" y1="890.0554" y2="890.0554"/>
    <line x1="511.4508" x2="530.1336" y1="886.1681" y2="886.1681"/>
    <line x1="530.1336" x2="511.4508" y1="882.2808" y2="882.2808"/>
    <polygon points="511.4508,878.3935 530.1336,878.3935 530.1336,893.9427 511.4508,893.9427"/>
    <polygon points="519.1245,866.8694 520.7922,866.1787 522.4599,866.8694 523.1507,868.5371 522.4599,870.2048 520.7922,870.8956 519.1245,870.2048 518.4337,868.5371"/>
    <line x1="519.6227" x2="519.6227" y1="858.6808" y2="839.0292"/>
    <line x1="519.1548" x2="519.1548" y1="839.0292" y2="832.9458"/>
    <line x1="519.6227" x2="519.6227" y1="832.9458" y2="815.0616"/>
    <line x1="517.2836" x2="517.2836" y1="815.0616" y2="832.9458"/>
    <line x1="515.8802" x2="515.8802" y1="832.9458" y2="839.0292"/>
    <line x1="514.9446" x2="514.9446" y1="839.0292" y2="858.6808"/>
    <line x1="517.2836" x2="517.2836" y1="858.6808" y2="839.0292"/>
    <line x1="521.9617" x2="521.9617" y1="839.0292" y2="858.6808"/>
    <line x1="524.3008" x2="524.3008" y1="858.6808" y2="839.0292"/>
    <line x1="525.7042" x2="525.7042" y1="839.0292" y2="832.9458"/>
    <line x1="526.6398" x2="526.6398" y1="832.9458" y2="815.0616"/>
    <line x1="524.3008" x2="524.3008" y1="815.0616" y2="832.9458"/>
    <line x1="522.4295" x2="522.4295" y1="832.9458" y2="839.0292"/>
    <line x1="526.6398" x2="526.6398" y1="839.0292" y2="858.6808"/>
    <polyline points="512.6055,858.6808 512.6055,878.3935 528.9789,878.3935 528.9789,858.6808 512.6055,858.6808 512.6055,832.9458 512.6055,839.0292 528.9789,839.0292 528.9789,832.9458 512.6055,832.9458 512.6055,815.0616 528.9789,815.0616 522.191,792.9328 519.3934,792.9328 512.6055,815.0616 512.6055,832.9458 528.9789,832.9458 528.9789,815.0616 512.6055,815.0616"/>
    <line x1="514.9446" x2="514.9446" y1="815.0616" y2="832.9458"/>
    <polygon points="512.6055,839.0292 528.9789,839.0292 528.9789,858.6808 512.6055,858.6808"/>
    <line x1="521.9617" x2="521.9617" y1="832.9458" y2="815.0616"/>
    <polygon points="522.191,792.9328 519.3934,792.9328 519.3934,786.6029 522.191,786.6029"/>
    <polygon points="519.3934,782.5425 522.191,782.5425 522.191,786.6029 519.3934,786.6029"/>
    <polyline points="450.341,782.7791 450.0777,779.7914 449.4259,777.3057 448.4088,775.0493 446.8545,772.8722 445.2154,771.4081 443.3875,770.4206 440.5951,772.1899 438.7181,774.4603 437.4728,776.967 436.6972,779.7914 436.4339,782.7791 450.341,782.7791 450.341,799.3552 436.4339,799.3552 436.4339,782.7791"/>
    <polygon points="446.1745,791.0672 445.9534,792.1552 445.325,793.0706 444.3891,793.668 443.2943,793.8527 441.588,793.1955 440.8999,792.3242 440.6066,791.2533 440.7546,790.1529 441.3204,789.1976 442.2143,788.539 443.2943,788.2816 444.3891,788.4663 445.325,789.0637 445.9534,789.9791"/>
    <polygon points="447.9938,669.0096 438.7811,669.0096 429.436,680.1961 457.3389,680.1961"/>
    <polygon points="458.5484,669.0096 428.2265,669.0096 428.2265,652.8737 458.5484,652.8737"/>
    <polyline points="462.7368,661.0766 460.9066,663.9502 459.5972,666.8381 458.8107,669.7356 458.5484,672.638 470.5195,672.638 470.2572,669.7356 469.4707,666.8381 468.1613,663.9502 466.3312,661.0766"/>
    <polygon points="470.5195,661.0766 470.5195,509.8997 458.5484,486.1272 458.5484,509.8997 470.5195,509.8997 458.5484,509.8997 458.5484,661.0766"/>
    <polyline points="458.5484,641.0795 428.2265,641.0795 458.5484,641.0795 458.5484,652.8737 428.2265,652.8737 428.2265,641.0795"/>
    <line x1="428.2265" x2="458.5484" y1="638.5048" y2="638.5048"/>
    <line x1="458.5484" x2="428.2265" y1="635.9301" y2="635.9301"/>
    <line x1="428.2265" x2="458.5484" y1="633.3554" y2="633.3554"/>
    <line x1="458.5484" x2="428.2265" y1="630.7807" y2="630.7807"/>
    <line x1="428.2265" x2="458.5484" y1="628.206" y2="628.206"/>
    <line x1="458.5484" x2="428.2265" y1="625.6313" y2="625.6313"/>
    <line x1="428.2265" x2="458.5484" y1="623.0566" y2="623.0566"/>
    <line x1="458.5484" x2="428.2265" y1="620.4819" y2="620.4819"/>
    <polygon points="428.2265,592.2229 428.2265,571.5702 458.5484,571.5702 458.5484,592.2229"/>
    <polyline points="428.2265,592.2229 428.2265,611.1568 458.5484,611.1568 458.5484,592.2229 428.2265,592.2229 458.5484,592.2229"/>
    <line x1="458.5484" x2="428.2265" y1="589.2725" y2="589.2725"/>
    <line x1="428.2265" x2="458.5484" y1="586.3221" y2="586.3221"/>
    <line x1="458.5484" x2="428.2265" y1="583.3718" y2="583.3718"/>
    <line x1="428.2265" x2="458.5484" y1="580.4214" y2="580.4214"/>
    <line x1="458.5484" x2="428.2265" y1="577.471" y2="577.471"/>
    <line x1="428.2265" x2="458.5484" y1="574.5206" y2="574.5206"/>
    <polygon points="458.5484,547.806 458.5484,571.5702 428.2265,571.5702 428.2265,547.806 458.5484,547.806 458.5484,539.5363 428.2265,539.5363 428.2265,547.806"/>
    <line x1="456.5269" x2="456.5269" y1="539.5363" y2="520.2674"/>
    <polyline points="458.5484,520.2674 428.2265,520.2674 458.5484,520.2674 458.5484,539.5363 428.2265,539.5363 428.2265,520.2674 428.2265,539.5363"/>
    <line x1="430.248" x2="430.248" y1="539.5363" y2="520.2674"/>
    <line x1="432.2694" x2="432.2694" y1="520.2674" y2="539.5363"/>
    <line x1="434.2909" x2="434.2909" y1="539.5363" y2="520.2674"/>
    <line x1="436.3124" x2="436.3124" y1="520.2674" y2="539.5363"/>
    <line x1="438.3338" x2="438.3338" y1="539.5363" y2="520.2674"/>
    <line x1="440.3553" x2="440.3553" y1="520.2674" y2="539.5363"/>
    <line x1="442.3767" x2="442.3767" y1="539.5363" y2="520.2674"/>
    <line x1="444.3982" x2="444.3982" y1="520.2674" y2="539.5363"/>
    <line x1="446.4196" x2="446.4196" y1="539.5363" y2="520.2674"/>
    <line x1="448.4411" x2="448.4411" y1="520.2674" y2="539.5363"/>
    <line x1="450.4626" x2="450.4626" y1="539.5363" y2="520.2674"/>
    <line x1="452.484" x2="452.484" y1="520.2674" y2="539.5363"/>
    <line x1="454.5055" x2="454.5055" y1="539.5363" y2="520.2674"/>
    <line x1="458.5484" x2="428.2265" y1="515.9037" y2="515.9037"/>
    <line x1="428.2265" x2="458.5484" y1="511.54" y2="511.54"/>
    <line x1="458.5484" x2="428.2265" y1="507.1763" y2="507.1763"/>
    <polyline points="428.2265,496.1118 428.2265,502.8126 458.5484,502.8126 458.5484,496.1118 428.2265,496.1118 458.5484,496.1118"/>
    <line x1="458.5484" x2="428.2265" y1="492.6801" y2="492.6801"/>
    <line x1="428.2265" x2="458.5484" y1="489.2484" y2="489.2484"/>
    <line x1="458.5484" x2="428.2265" y1="485.8167" y2="485.8167"/>
    <line x1="428.2265" x2="458.5484" y1="482.385" y2="482.385"/>
    <line x1="458.5484" x2="428.2265" y1="478.9532" y2="478.9532"/>
    <polygon points="428.2265,475.5215 428.2265,461.9339 440.6791,412.0861 446.0958,412.0861 458.5484,461.9339 428.2265,461.9339 458.5484,461.9339 458.5484,475.5215"/>
    <polygon points="458.5484,475.5215 458.5484,496.1118 428.2265,496.1118 428.2265,475.5215"/>
    <polygon points="458.5484,502.8126 458.5484,520.2674 428.2265,520.2674 428.2265,502.8126"/>
    <polygon points="510.2692,514.7906 531.3152,514.7906 531.3152,524.1054 510.2692,524.1054"/>
    <polygon points="531.3152,524.1054 531.3152,539.9014 510.2692,539.9014 510.2692,524.1054"/>
    <polygon points="531.3152,503.6967 531.3152,514.7906 510.2692,514.7906 510.2692,503.6967 520.7922,466.9486 531.3152,503.6967 510.2692,503.6967"/>
    <polygon points="531.3152,555.7792 510.2692,555.7792 510.2692,539.9014 531.3152,539.9014"/>
    <polygon points="531.3152,555.7792 510.2692,555.7792 509.1352,563.179 532.4491,563.179 532.4491,573.063 509.1352,573.063 509.1352,563.179 532.4491,563.179"/>
    <polygon points="514.1117,569.3909 527.4726,569.3909 527.4726,569.8673 514.1117,569.8673"/>
    <polygon points="509.1352,586.0 509.1352,573.063 532.4491,573.063 532.4491,586.0"/>
    <polygon points="534.9932,590.7721 532.4491,586.0 509.1352,586.0 506.5911,590.7721 534.9932,590.7721 534.9932,604.7619 506.5911,604.7619 506.5911,590.7721"/>
    <polygon points="534.9932,604.7619 534.9932,625.4796 506.5911,625.4796 506.5911,604.7619"/>
    <polygon points="534.9932,625.4796 534.9932,638.1432 506.5911,638.1432 506.5911,625.4796"/>
    <polygon points="523.5691,632.9108 522.9693,633.8559 522.0638,634.5138 520.9797,634.7921 519.8693,634.6518 518.8884,634.1126 518.0153,632.9108 517.8056,631.8114 518.0153,630.712 518.615,629.7669 519.5205,629.109 520.6046,628.8307 522.0638,629.109 522.9693,629.7669 523.5691,630.712 523.7788,631.8114"/>
    <polygon points="517.3653,625.4796 520.7922,618.6259 524.219,625.4796"/>
    <polygon points="536.3462,646.2751 534.9932,638.1432 506.5911,638.1432 505.2381,646.2751 536.3462,646.2751 536.3462,666.8048 505.2381,666.8048 505.2381,646.2751"/>
    <polygon points="512.2584,666.8048 506.4476,680.1961 535.1368,680.1961 529.326,666.8048"/>
    <polygon points="586.2034,662.4133 579.9798,673.339 579.9798,677.7634 586.2034,675.5512"/>
    <polygon points="587.4128,680.1961 591.2427,680.1961 590.3563,675.5512 588.2992,675.5512"/>
    <polygon points="595.6773,680.1961 594.7908,675.5512 592.7338,675.5512 591.8474,680.1961"/>
    <polygon points="600.7166,680.1961 604.5464,680.1961 603.66,675.5512 601.603,675.5512"/>
    <polygon points="599.2254,675.5512 597.1684,675.5512 596.282,680.1961 600.1118,680.1961"/>
    <polygon points="608.981,680.1961 608.0946,675.5512 606.0376,675.5512 605.1511,680.1961"/>
    <polygon points="616.414,673.339 616.414,677.7634 610.1904,675.5512 610.1904,662.4133"/>
    <polygon points="610.1904,662.4133 610.1904,675.5512 586.2034,675.5512 586.2034,662.4133"/>
    <polygon points="586.2034,642.6868 610.1904,642.6868 609.617,634.9595 586.7768,634.9595 586.2034,642.6868 610.1904,642.6868 610.1904,662.4133 586.2034,662.4133"/>
    <polygon points="586.7768,634.9595 586.7768,626.6681 609.617,626.6681 609.617,634.9595"/>
    <polygon points="599.2246,632.1025 598.1969,632.4621 596.9082,631.8415 596.5486,630.8138 596.9082,629.7861 598.1969,629.1655 599.2246,629.5251 599.8452,630.8138"/>
    <polygon points="599.8259,626.6681 596.5679,626.6681 598.1969,623.41"/>
    <polygon points="586.7768,611.8082 609.617,611.8082 609.617,626.6681 586.7768,626.6681"/>
    <polyline points="586.7768,602.1024 586.7768,611.8082 609.617,611.8082 609.617,602.1024 586.7768,602.1024 586.7768,591.5889 586.7768,602.1024 609.617,602.1024 609.617,591.5889 586.7768,591.5889"/>
    <line x1="589.6319" x2="589.6319" y1="591.5889" y2="602.1024"/>
    <line x1="592.4869" x2="592.4869" y1="602.1024" y2="591.5889"/>
    <line x1="595.3419" x2="595.3419" y1="591.5889" y2="602.1024"/>
    <line x1="598.1969" x2="598.1969" y1="602.1024" y2="591.5889"/>
    <line x1="601.0519" x2="601.0519" y1="591.5889" y2="602.1024"/>
    <line x1="603.9069" x2="603.9069" y1="602.1024" y2="591.5889"/>
    <line x1="606.7619" x2="606.7619" y1="591.5889" y2="602.1024"/>
    <polygon points="599.4011,605.6179 599.9966,606.9553 599.6529,608.0131 598.385,608.7451 596.9927,608.2927 596.3972,606.9553 596.7409,605.8975 598.0088,605.1655"/>
    <line x1="600.4809" x2="600.4809" y1="580.4245" y2="562.7608"/>
    <line x1="602.7649" x2="602.7649" y1="562.7608" y2="580.4245"/>
    <line x1="605.0489" x2="605.0489" y1="580.4245" y2="562.7608"/>
    <line x1="607.3329" x2="607.3329" y1="562.7608" y2="580.4245"/>
    <line x1="598.1969" x2="598.1969" y1="580.4245" y2="562.7608"/>
    <line x1="595.9129" x2="595.9129" y1="562.7608" y2="580.4245"/>
    <line x1="593.6289" x2="593.6289" y1="580.4245" y2="562.7608"/>
    <line x1="591.3449" x2="591.3449" y1="562.7608" y2="580.4245"/>
    <line x1="589.0609" x2="589.0609" y1="580.4245" y2="562.7608"/>
    <polyline points="586.7768,562.7608 609.617,562.7608 609.617,580.4245 586.7768,580.4245 586.7768,562.7608 586.7768,580.4245 609.617,580.4245 609.617,591.5889 586.7768,591.5889 586.7768,580.4245"/>
    <polygon points="584.2573,560.9569 584.2573,555.205 586.7768,555.205 586.7768,560.9569"/>
    <polygon points="609.617,553.4012 608.1523,545.0036 588.2416,545.0036 586.7768,553.4012 609.617,553.4012 609.617,562.7608 586.7768,562.7608 586.7768,553.4012"/>
    <polygon points="612.1365,560.9569 609.617,560.9569 609.617,555.205 612.1365,555.205"/>
    <polygon points="608.1523,545.0036 588.2416,545.0036 588.2416,525.3668 598.1969,488.378 608.1523,525.3668 588.2416,525.3668 608.1523,525.3668"/>
    <polygon points="596.4574,533.6442 598.1033,532.8632 599.8067,533.5092 600.5208,535.1852 600.0547,536.5813 598.477,537.4922 596.7271,536.9853 595.8805,535.3722"/>
    <polygon points="458.5484,611.1568 428.2265,611.1568 428.2265,617.9072 458.5484,617.9072 458.5484,641.0795 428.2265,641.0795 428.2265,617.9072 458.5484,617.9072"/>
    <polyline points="424.0381,661.0766 425.8683,663.9502 427.1777,666.8381 427.9642,669.7356 428.2265,672.638 416.2554,672.638 416.5177,669.7356 417.3042,666.8381 418.6136,663.9502 420.4438,661.0766"/>
    <polygon points="416.2554,661.0766 416.2554,509.8997 428.2265,486.1272 428.2265,509.8997 416.2554,509.8997 428.2265,509.8997 428.2265,661.0766"/>
    <polygon points="378.5437,661.6109 378.5437,673.8761 353.4218,673.8761 353.4218,661.6109 378.5437,661.6109 375.6894,655.494 356.2761,655.494 353.4218,661.6109"/>
    <polygon points="378.5437,673.8761 378.5437,661.6109 386.149,671.8755 386.149,673.8761"/>
    <polygon points="372.5974,673.8761 359.3681,673.8761 354.6312,680.1961 377.3343,680.1961"/>
    <polygon points="356.2761,655.494 356.2761,634.6725 375.6894,634.6725 375.6894,655.494"/>
    <polygon points="367.2306,646.396 365.891,646.8922 364.8741,646.5155 364.1808,645.2665 364.6084,643.9035 365.891,643.2744 367.2306,643.7705 367.794,645.0833"/>
    <polygon points="356.2761,634.6725 356.2761,617.0582 375.6894,617.0582 375.6894,634.6725"/>
    <polygon points="356.2761,606.1882 356.2761,615.6236 352.5085,615.6236 352.5085,606.1882"/>
    <line x1="356.394" x2="375.5714" y1="598.4881" y2="598.4881"/>
    <polygon points="375.6894,604.7536 375.6894,617.0582 356.2761,617.0582 356.2761,604.7536 375.6894,604.7536 375.5714,598.4881 356.394,598.4881 356.2761,604.7536"/>
    <polygon points="375.6894,606.1882 379.457,606.1882 379.457,615.6236 375.6894,615.6236"/>
    <polygon points="356.394,592.2124 375.5714,592.2124 375.5714,598.4881 356.394,598.4881 356.394,592.2124 375.5714,592.2124 375.5314,588.2424 356.434,588.2424"/>
    <polyline points="356.434,571.5672 356.434,588.2424 375.5314,588.2424 375.5314,571.5672 356.434,571.5672 356.434,558.228 356.434,571.5672 375.5314,571.5672 375.5314,558.228 356.434,558.228"/>
    <line x1="360.2535" x2="360.2535" y1="558.228" y2="571.5672"/>
    <line x1="364.073" x2="364.073" y1="571.5672" y2="558.228"/>
    <line x1="367.8925" x2="367.8925" y1="558.228" y2="571.5672"/>
    <line x1="371.712" x2="371.712" y1="571.5672" y2="558.228"/>
    <polygon points="373.8636,558.228 358.1019,558.228 358.1019,542.5507 373.8636,542.5507"/>
    <polygon points="364.448,537.532 363.7167,535.8649 364.448,534.1977 365.7956,533.6066 367.5174,534.1977 368.2487,535.8649 367.7709,537.2567 366.1699,538.1231"/>
    <polyline points="358.1019,529.1791 358.1019,542.5507 373.8636,542.5507 373.8636,529.1791 358.1019,529.1791 358.6386,525.103 360.2125,521.3029 362.7171,518.0358 365.9827,515.5228 369.2484,518.0358 371.7529,521.3029 373.3268,525.103 373.8636,529.1791"/>
    <line x1="294.4117" x2="282.7443" y1="546.4715" y2="546.4715"/>
    <polyline points="282.7443,543.9021 282.7443,551.6103 294.4117,551.6103 294.4117,543.9021 282.7443,543.9021 282.7443,525.7189 283.2175,521.3518 293.9385,521.3518 294.4117,525.7189 282.7443,525.7189 282.7443,543.9021 294.4117,543.9021 294.4117,525.7189 282.7443,525.7189"/>
    <line x1="286.6335" x2="286.6335" y1="525.7189" y2="543.9021"/>
    <line x1="290.5226" x2="290.5226" y1="543.9021" y2="525.7189"/>
    <polygon points="290.4007,513.9425 286.7554,513.9425 286.7554,517.3083 290.4007,517.3083"/>
    <polygon points="293.9385,508.2346 293.9385,521.3518 283.2175,521.3518 283.2175,508.2346"/>
    <polygon points="293.9385,485.3117 293.9008,476.7004 283.2552,476.7004 283.2175,485.3117 293.9385,485.3117 293.9385,508.2346 283.2175,508.2346 283.2175,485.3117"/>
    <line x1="293.9008" x2="283.2552" y1="476.7004" y2="476.7004"/>
    <line x1="283.2552" x2="293.9008" y1="472.6984" y2="472.6984"/>
    <line x1="293.9008" x2="283.2552" y1="468.6963" y2="468.6963"/>
    <polygon points="283.2552,464.6942 293.9008,464.6942 293.9008,476.7004 283.2552,476.7004 283.2552,464.6942 288.578,453.7963 293.9008,464.6942"/>
    <polyline points="226.3944,494.5104 226.1378,492.1839 225.3727,489.9005 224.1133,487.7025 222.3828,485.6305 220.2134,483.7229 217.3682,481.8566 211.1733,479.2142 204.9784,481.8566 202.1332,483.7229 199.9638,485.6305 198.2333,487.7025 196.9739,489.9005 196.2088,492.1839 195.9521,494.5104 226.3944,494.5104 226.3944,507.6929 195.9521,507.6929 195.9521,494.5104 195.9521,507.6929 226.3944,507.6929 226.3944,516.7513 195.9521,516.7513 195.9521,507.6929"/>
    <line x1="198.489" x2="198.489" y1="507.6929" y2="494.5104"/>
    <line x1="201.0258" x2="201.0258" y1="494.5104" y2="507.6929"/>
    <line x1="203.5627" x2="203.5627" y1="507.6929" y2="494.5104"/>
    <line x1="206.0996" x2="206.0996" y1="494.5104" y2="507.6929"/>
    <line x1="208.6364" x2="208.6364" y1="507.6929" y2="494.5104"/>
    <line x1="211.1733" x2="211.1733" y1="494.5104" y2="507.6929"/>
    <line x1="213.7101" x2="213.7101" y1="507.6929" y2="494.5104"/>
    <line x1="216.247" x2="216.247" y1="494.5104" y2="507.6929"/>
    <line x1="218.7839" x2="218.7839" y1="507.6929" y2="494.5104"/>
    <line x1="221.3207" x2="221.3207" y1="494.5104" y2="507.6929"/>
    <line x1="223.8576" x2="223.8576" y1="507.6929" y2="494.5104"/>
    <polygon points="227.9083,499.8929 227.9083,522.3676 243.7906,522.3676 227.9083,522.3676 227.9083,627.0447 243.7906,627.0447 243.7906,522.3676"/>
    <line x1="226.3944" x2="195.9521" y1="512.2221" y2="512.2221"/>
    <line x1="195.9521" x2="226.3944" y1="516.7513" y2="516.7513"/>
    <line x1="224.5613" x2="224.5613" y1="523.0296" y2="545.1079"/>
    <line x1="221.2143" x2="221.2143" y1="545.1079" y2="523.0296"/>
    <line x1="217.8673" x2="217.8673" y1="523.0296" y2="545.1079"/>
    <line x1="214.5203" x2="214.5203" y1="545.1079" y2="523.0296"/>
    <line x1="211.1733" x2="211.1733" y1="523.0296" y2="545.1079"/>
    <line x1="207.8263" x2="207.8263" y1="545.1079" y2="523.0296"/>
    <line x1="204.4793" x2="204.4793" y1="523.0296" y2="545.1079"/>
    <line x1="201.1323" x2="201.1323" y1="545.1079" y2="523.0296"/>
    <line x1="197.7853" x2="197.7853" y1="523.0296" y2="545.1079"/>
    <polyline points="194.4383,545.1079 194.4383,551.9818 227.9083,551.9818 227.9083,545.1079 194.4383,545.1079 194.4383,523.0296 195.9521,516.7513 226.3944,516.7513 227.9083,523.0296 194.4383,523.0296 194.4383,545.1079 227.9083,545.1079 227.9083,523.0296 194.4383,523.0296"/>
    <polygon points="178.556,522.3676 194.4383,499.8929 194.4383,522.3676 178.556,522.3676 194.4383,522.3676 194.4383,627.0447 178.556,627.0447"/>
    <polygon points="194.4383,573.6054 194.4383,557.4541 227.9083,557.4541 227.9083,551.9818 194.4383,551.9818 194.4383,557.4541 227.9083,557.4541 227.9083,573.6054"/>
    <polygon points="194.4383,595.8883 227.9083,595.8883 227.9083,608.3129 194.4383,608.3129"/>
    <polygon points="194.4383,595.8883 194.4383,573.6054 227.9083,573.6054 227.9083,595.8883"/>
    <line x1="194.4383" x2="227.9083" y1="597.959" y2="597.959"/>
    <line x1="227.9083" x2="194.4383" y1="600.0298" y2="600.0298"/>
    <line x1="194.4383" x2="227.9083" y1="602.1006" y2="602.1006"/>
    <line x1="227.9083" x2="194.4383" y1="604.1714" y2="604.1714"/>
    <line x1="194.4383" x2="227.9083" y1="606.2422" y2="606.2422"/>
    <line x1="227.9083" x2="194.4383" y1="608.3129" y2="608.3129"/>
    <polyline points="194.4383,616.126 227.9083,616.126 227.9083,625.5252 194.4383,625.5252 194.4383,616.126 227.9083,616.126 227.9083,608.3129 194.4383,608.3129 194.4383,625.5252 227.9083,625.5252 227.9083,640.992 194.4383,640.992 194.4383,625.5252"/>
    <line x1="197.481" x2="197.481" y1="625.5252" y2="616.126"/>
    <line x1="200.5237" x2="200.5237" y1="616.126" y2="625.5252"/>
    <line x1="203.5665" x2="203.5665" y1="625.5252" y2="616.126"/>
    <line x1="206.6092" x2="206.6092" y1="616.126" y2="625.5252"/>
    <line x1="209.6519" x2="209.6519" y1="625.5252" y2="616.126"/>
    <line x1="212.6946" x2="212.6946" y1="616.126" y2="625.5252"/>
    <line x1="215.7374" x2="215.7374" y1="625.5252" y2="616.126"/>
    <line x1="218.7801" x2="218.7801" y1="616.126" y2="625.5252"/>
    <line x1="221.8228" x2="221.8228" y1="625.5252" y2="616.126"/>
    <line x1="224.8655" x2="224.8655" y1="616.126" y2="625.5252"/>
    <polygon points="227.9083,627.0447 243.7906,627.0447 240.1442,631.1634 231.5547,631.1634"/>
    <polygon points="240.1442,631.1634 245.0598,644.6204 226.6391,644.6204 231.5547,631.1634"/>
    <polygon points="217.0063,646.787 227.9083,640.992 194.4383,640.992 205.3402,646.787"/>
    <polygon points="182.2024,631.1634 177.2868,644.6204 195.7075,644.6204 190.7918,631.1634"/>
    <polygon points="178.556,627.0447 182.2024,631.1634 190.7918,631.1634 194.4383,627.0447"/>
    <polygon points="197.6923,680.1961 224.6542,680.1961 217.0063,646.787 205.3402,646.787"/>
    <polygon points="277.1032,672.8145 277.1032,650.8056 272.0691,672.8145"/>
    <polygon points="282.9555,672.8145 278.3126,680.1961 298.8434,680.1961 294.2005,672.8145"/>
    <polygon points="278.3516,646.9605 277.1032,650.8056 300.0528,650.8056 300.0528,672.8145 277.1032,672.8145 277.1032,650.8056 300.0528,650.8056 298.8044,646.9605"/>
    <polygon points="287.4015,636.4483 286.8198,635.1416 287.4015,633.835 288.3942,633.393 289.7545,633.835 290.3362,635.1416 289.7545,636.4483 288.7618,636.8902"/>
    <line x1="287.4417" x2="287.4417" y1="623.3228" y2="599.2382"/>
    <line x1="289.7143" x2="289.7143" y1="599.2382" y2="623.3228"/>
    <line x1="291.9868" x2="291.9868" y1="623.3228" y2="599.2382"/>
    <line x1="294.2593" x2="294.2593" y1="599.2382" y2="623.3228"/>
    <line x1="296.5319" x2="296.5319" y1="623.3228" y2="599.2382"/>
    <line x1="285.1692" x2="285.1692" y1="599.2382" y2="623.3228"/>
    <line x1="282.8967" x2="282.8967" y1="623.3228" y2="599.2382"/>
    <line x1="280.6242" x2="280.6242" y1="599.2382" y2="623.3228"/>
    <polyline points="278.3516,623.3228 278.3516,646.9605 298.8044,646.9605 298.8044,623.3228 278.3516,623.3228 278.3516,599.2382 278.3516,623.3228 298.8044,623.3228 298.8044,599.2382 278.3516,599.2382 279.8168,590.9995 297.3392,590.9995 298.8044,599.2382 278.3516,599.2382"/>
    <polygon points="279.8168,583.0276 279.8168,565.8762 297.3392,565.8762 294.4117,560.4992 282.7443,560.4992 279.8168,565.8762 297.3392,565.8762 297.3392,583.0276"/>
    <polygon points="289.4113,577.0165 288.2961,577.1337 287.2297,576.7872 286.3964,576.0369 285.8879,574.2638 286.197,573.1859 286.9178,572.3269 288.6721,571.7569 289.7601,572.0281 290.6438,572.7185 291.2747,574.4519 291.0415,575.5487 290.3824,576.4559"/>
    <polygon points="297.3392,583.0276 297.3392,590.9995 279.8168,590.9995 279.8168,583.0276"/>
    <polygon points="289.6428,560.4992 287.5132,560.4992 288.578,558.3696"/>
    <polyline points="294.4117,551.6103 282.7443,551.6103 294.4117,551.6103 294.4117,560.4992 282.7443,560.4992 282.7443,551.6103"/>
    <line x1="282.7443" x2="294.4117" y1="549.0409" y2="549.0409"/>
    <polygon points="300.0528,650.8056 305.087,672.8145 300.0528,672.8145"/>
    <polygon points="345.8164,673.8761 353.4218,673.8761 353.4218,661.6109 345.8164,671.8755"/>
    <polygon points="287.2513,716.4372 289.9047,716.4372 289.9047,723.0223 287.2513,723.0223"/>
    <polygon points="287.2513,729.0522 287.2513,723.0223 289.9047,723.0223 289.9047,729.0522"/>
    <polygon points="289.9047,735.9947 287.2513,735.9947 287.2513,729.0522 289.9047,729.0522"/>
    <polygon points="287.2513,742.7272 287.2513,735.9947 289.9047,735.9947 289.9047,742.7272"/>
    <polygon points="277.3058,766.0966 299.8502,766.0966 299.8502,788.3095 277.3058,788.3095 277.3058,766.0966 287.2513,742.7272 289.9047,742.7272 299.8502,766.0966"/>
    <polygon points="285.2086,776.4817 285.2086,778.662 291.9474,778.662 291.9474,776.4817"/>
    <polygon points="275.9591,796.4037 301.1969,796.4037 299.8502,788.3095 277.3058,788.3095 275.9591,796.4037 301.1969,796.4037 301.1969,804.1036 275.9591,804.1036"/>
    <polygon points="275.9591,804.1036 301.1969,804.1036 301.1969,820.1122 275.9591,820.1122"/>
    <polygon points="510.2989,924.1576 510.2989,932.4415 508.5664,932.4415 508.5664,924.1576"/>
    <polyline points="582.937,931.7325 613.4568,931.7325 613.4568,951.1419 582.937,951.1419 582.937,931.7325 613.4568,931.7325 610.5429,925.5849 585.8509,925.5849 582.937,931.7325 582.937,951.1419 613.4568,951.1419 613.4568,970.039 582.937,970.039 582.937,951.1419"/>
    <line x1="586.752" x2="586.752" y1="951.1419" y2="931.7325"/>
    <line x1="590.567" x2="590.567" y1="931.7325" y2="951.1419"/>
    <line x1="594.3819" x2="594.3819" y1="951.1419" y2="931.7325"/>
    <line x1="598.1969" x2="598.1969" y1="931.7325" y2="951.1419"/>
    <line x1="602.0119" x2="602.0119" y1="951.1419" y2="931.7325"/>
    <line x1="605.8268" x2="605.8268" y1="931.7325" y2="951.1419"/>
    <line x1="609.6418" x2="609.6418" y1="951.1419" y2="931.7325"/>
    <line x1="610.5429" x2="585.8509" y1="925.5849" y2="925.5849"/>
    <line x1="585.8509" x2="610.5429" y1="922.1929" y2="922.1929"/>
    <line x1="610.5429" x2="585.8509" y1="918.8008" y2="918.8008"/>
    <line x1="585.8509" x2="610.5429" y1="915.4087" y2="915.4087"/>
    <polygon points="610.5429,912.0166 609.6242,904.2337 586.7696,904.2337 585.8509,912.0166 610.5429,912.0166 610.5429,925.5849 585.8509,925.5849 585.8509,912.0166"/>
    <polygon points="609.6242,892.5428 607.1382,885.6265 589.2556,885.6265 586.7696,892.5428 609.6242,892.5428 609.6242,904.2337 586.7696,904.2337 586.7696,892.5428"/>
    <polygon points="593.8777,875.7489 594.1382,874.2717 595.1428,872.6948 596.7197,871.6902 598.1969,871.4297 599.6742,871.6902 601.251,872.6948 602.1114,873.9235 602.5161,875.7489 602.1114,877.5743 601.251,878.803 599.6742,879.8076 598.1969,880.0681 596.7197,879.8076 595.1428,878.803 594.2824,877.5743"/>
    <line x1="593.2295" x2="593.2295" y1="865.8714" y2="841.9357"/>
    <line x1="591.2426" x2="591.2426" y1="841.9357" y2="865.8714"/>
    <polyline points="589.2556,865.8714 589.2556,885.6265 607.1382,885.6265 607.1382,865.8714 589.2556,865.8714 589.2556,841.9357 590.1466,837.4823 606.2472,837.4823 607.1382,841.9357 589.2556,841.9357 589.2556,865.8714 607.1382,865.8714 607.1382,841.9357 589.2556,841.9357"/>
    <line x1="595.2165" x2="595.2165" y1="841.9357" y2="865.8714"/>
    <line x1="597.2034" x2="597.2034" y1="865.8714" y2="841.9357"/>
    <line x1="599.1904" x2="599.1904" y1="841.9357" y2="865.8714"/>
    <line x1="601.1773" x2="601.1773" y1="865.8714" y2="841.9357"/>
    <line x1="603.1643" x2="603.1643" y1="841.9357" y2="865.8714"/>
    <line x1="605.1512" x2="605.1512" y1="865.8714" y2="841.9357"/>
    <polygon points="600.1759,837.4823 596.2179,837.4823 598.1969,833.5243"/>
    <polygon points="590.1466,814.4024 606.2472,814.4024 606.0981,809.4544 590.2957,809.4544 590.1466,814.4024 606.2472,814.4024 606.2472,837.4823 590.1466,837.4823"/>
    <polyline points="590.2957,809.4544 590.2957,794.5405 606.0981,794.5405 604.8927,789.8156 591.5011,789.8156 590.2957,794.5405 606.0981,794.5405 606.0981,809.4544 590.2957,809.4544 590.2957,794.5405"/>
    <line x1="594.2463" x2="594.2463" y1="794.5405" y2="809.4544"/>
    <line x1="598.1969" x2="598.1969" y1="809.4544" y2="794.5405"/>
    <line x1="602.1475" x2="602.1475" y1="794.5405" y2="809.4544"/>
    <polygon points="596.3921,781.419 596.3921,778.9554 600.0017,778.9554 600.0017,781.419"/>
    <polygon points="591.5011,775.0063 604.8927,775.0063 604.8927,789.8156 591.5011,789.8156 591.5011,775.0063 598.1969,756.6384 604.8927,775.0063"/>
    <polygon points="600.1785,962.3075 599.2861,962.9755 598.1969,963.2125 596.4799,962.572 595.8119,961.6797 595.5749,960.5905 596.2153,958.8735 597.1077,958.2054 598.1969,957.9685 599.2861,958.2054 600.1785,958.8735 600.8189,960.5905"/>
    <polygon points="614.6241,975.5279 613.4568,970.039 582.937,970.039 581.7697,975.5279 614.6241,975.5279 614.6241,988.2453 581.7697,988.2453 581.7697,975.5279"/>
    <polygon points="607.3581,981.0622 589.0358,981.0773"/>
    <polyline points="603.7197,988.2453 608.4873,992.7728 611.9097,997.4085 613.9605,1002.1165 614.6241,1006.7473 581.7697,1006.7473 582.466,1002.0038 584.4841,997.4085 587.9065,992.7728 592.6741,988.2453"/>
    <polygon points="524.6329,997.0472 516.9515,997.0472 511.5083,1006.7473 530.0761,1006.7473"/>
    <polygon points="446.0958,408.971 446.0958,412.0861 440.6791,412.0861 440.6791,408.971"/>
    <polygon points="446.0958,408.971 440.6791,408.971 440.6791,403.7561 446.0958,403.7561"/>
    <polygon points="446.0958,403.7561 440.6791,403.7561 440.6791,397.3559 446.0958,397.3559"/>
    <polygon points="446.0958,391.0095 446.0958,397.3559 440.6791,397.3559 440.6791,391.0095"/>
    <polygon points="436.0219,341.3183 427.4858,353.6449 459.2891,353.6449 450.753,341.3183"/>
    <polygon points="441.9008,335.0979 443.2018,334.4501 444.5998,334.8478 445.0979,335.3942 445.3992,336.4532 444.8741,337.8085 443.5731,338.4564 442.8369,338.3882 441.9008,337.8085 441.3757,336.4532"/>
    <polygon points="426.2764,331.5882 460.4985,331.5882 460.4985,341.3183 426.2764,341.3183"/>
    <polygon points="422.9915,315.5475 422.9915,309.2208 426.2764,309.2208 426.2764,315.5475"/>
    <polygon points="426.2764,309.2208 426.2764,297.2025 460.4985,297.2025 457.9823,290.1536 428.7926,290.1536 426.2764,297.2025 460.4985,297.2025 460.4985,309.2208"/>
    <polygon points="448.5369,319.9058 438.238,319.9058 438.238,324.4438 448.5369,324.4438"/>
    <polygon points="463.7834,315.5475 460.4985,315.5475 460.4985,309.2208 463.7834,309.2208"/>
    <polygon points="460.4985,309.2208 460.4985,315.5475 426.2764,315.5475 426.2764,309.2208"/>
    <polygon points="457.9823,290.1536 428.7926,290.1536 428.7926,267.3997 457.9823,267.3997"/>
    <polygon points="435.4957,281.0698 451.2792,281.0698 451.2792,276.9564 435.4957,276.9564"/>
    <polygon points="428.7926,260.1376 428.7926,239.401 457.9823,239.401 457.9823,260.1376"/>
    <polygon points="428.7926,239.401 428.7926,231.3779 457.9823,231.3779 457.9823,239.401"/>
    <polygon points="428.7926,231.3779 428.7926,208.5118 457.9823,208.5118 457.9823,231.3779"/>
    <polygon points="448.7565,219.9448 448.2923,222.1286 447.2496,223.6745 445.7411,224.7705 443.5748,225.3106 441.3762,224.9229 439.5253,223.6745 438.3422,221.7811 438.0184,219.9448 438.3422,218.1085 439.5253,216.2152 441.0338,215.1192 443.2001,214.5791 445.0466,214.8386 446.98,215.9549 448.2923,217.7611"/>
    <polygon points="438.3614,193.1874 448.4135,193.1874 448.4135,194.1666 438.3614,194.1666"/>
    <polyline points="428.7926,186.0553 428.7926,208.5118 457.9823,208.5118 457.9823,186.0553 428.7926,186.0553 429.0142,183.0575 429.7036,179.9798 430.8601,176.9089 432.4825,173.8483 437.042,167.8534 443.3875,161.9381 449.7329,167.8534 452.2685,170.8836 454.3424,173.9309 455.9522,176.9918 457.0713,179.9798 457.7607,183.0575 457.9823,186.0553"/>
    <line x1="514.2917" x2="527.2927" y1="193.6898" y2="193.6898"/>
    <line x1="527.2927" x2="514.2917" y1="196.6049" y2="196.6049"/>
    <line x1="514.2917" x2="527.2927" y1="199.52" y2="199.52"/>
    <line x1="527.2927" x2="514.2917" y1="202.435" y2="202.435"/>
    <polyline points="513.7397,208.9769 527.8447,208.9769 527.2927,202.435 514.2917,202.435 513.7397,208.9769 527.8447,208.9769 527.8447,225.7001 513.7397,225.7001 513.7397,208.9769 513.7397,225.7001 527.8447,225.7001 527.8447,232.3621 513.7397,232.3621 513.7397,225.7001 513.7397,232.3621 527.8447,232.3621 527.8447,242.3838 513.7397,242.3838 513.7397,232.3621"/>
    <line x1="517.2659" x2="517.2659" y1="232.3621" y2="225.7001"/>
    <line x1="518.4413" x2="518.4413" y1="225.7001" y2="208.9769"/>
    <line x1="520.7922" x2="520.7922" y1="208.9769" y2="232.3621"/>
    <line x1="524.3184" x2="524.3184" y1="232.3621" y2="225.7001"/>
    <line x1="525.4938" x2="525.4938" y1="225.7001" y2="208.9769"/>
    <line x1="523.143" x2="523.143" y1="208.9769" y2="225.7001"/>
    <line x1="516.0905" x2="516.0905" y1="225.7001" y2="208.9769"/>
    <line x1="515.2599" x2="526.3244" y1="185.5009" y2="185.5009"/>
    <polygon points="526.3244,185.5009 515.2599,185.5009 514.2917,190.7748 527.2927,190.7748 527.2927,202.435 514.2917,202.435 514.2917,190.7748 527.2927,190.7748"/>
    <line x1="526.3244" x2="515.2599" y1="182.9084" y2="182.9084"/>
    <line x1="515.2599" x2="526.3244" y1="180.3159" y2="180.3159"/>
    <line x1="526.3244" x2="515.2599" y1="177.7234" y2="177.7234"/>
    <polygon points="515.2599,175.1308 526.3244,175.1308 526.3244,185.5009 515.2599,185.5009 515.2599,175.1308 519.7111,157.1451 521.8733,157.1451 526.3244,175.1308"/>
    <polygon points="519.7111,152.2587 521.8733,152.2587 521.8733,157.1451 519.7111,157.1451"/>
    <polygon points="521.8733,152.2587 519.7111,152.2587 519.7111,145.1366 521.8733,145.1366"/>
    <polygon points="593.1929,162.1417 598.1969,150.188 603.201,162.1417 593.1929,162.1417 603.201,162.1417 603.201,185.5982 593.1929,185.5982"/>
    <polygon points="597.3215,174.0561 597.4728,173.3439 598.1034,172.9799 598.7958,173.2049 599.0919,173.87 598.4735,174.7212 597.7494,174.6451"/>
    <polygon points="593.0777,191.358 603.3161,191.358 603.3161,208.8503 593.0777,208.8503 593.0777,191.358 603.3161,191.358 603.201,185.5982 593.1929,185.5982"/>
    <polygon points="597.6374,200.1041 598.024,199.572 598.3698,199.572 598.7564,200.1041 598.3698,200.6363 597.7443,200.433"/>
    <line x1="597.1731" x2="597.1731" y1="208.8503" y2="230.2144"/>
    <line x1="595.1254" x2="595.1254" y1="230.2144" y2="208.8503"/>
    <polyline points="593.0777,208.8503 603.3161,208.8503 603.3161,230.2144 593.0777,230.2144 593.0777,208.8503 593.0777,230.2144 603.3161,230.2144 603.3161,238.5948 593.0777,238.5948 593.0777,230.2144"/>
    <polygon points="597.5685,233.3161 598.2908,233.1512 598.9806,233.4219 599.4538,234.4046 598.9806,235.3873 597.9172,235.63 597.0645,234.9499 596.9541,234.2173"/>
    <line x1="599.2207" x2="599.2207" y1="230.2144" y2="208.8503"/>
    <line x1="601.2684" x2="601.2684" y1="208.8503" y2="230.2144"/>
    <polygon points="604.2632,268.3501 604.2632,275.0684 592.1306,275.0684 592.1306,268.3501"/>
    <line x1="604.2632" x2="592.1306" y1="271.7093" y2="271.7093"/>
    <polygon points="592.1306,268.3501 592.1306,246.8207 604.2632,246.8207 603.3161,238.5948 593.0777,238.5948 592.1306,246.8207 604.2632,246.8207 604.2632,268.3501"/>
    <line x1="592.1306" x2="604.2632" y1="275.0684" y2="275.0684"/>
    <line x1="604.3141" x2="604.3141" y1="294.5489" y2="316.7674"/>
    <line x1="602.275" x2="602.275" y1="316.7674" y2="294.5489"/>
    <line x1="600.236" x2="600.236" y1="294.5489" y2="316.7674"/>
    <line x1="598.1969" x2="598.1969" y1="316.7674" y2="294.5489"/>
    <line x1="596.1578" x2="596.1578" y1="294.5489" y2="316.7674"/>
    <line x1="594.1188" x2="594.1188" y1="316.7674" y2="294.5489"/>
    <line x1="592.0797" x2="592.0797" y1="294.5489" y2="316.7674"/>
    <polyline points="590.0406,316.7674 590.0406,294.5489 606.3532,294.5489 606.3532,316.7674 590.0406,316.7674 590.0406,294.5489"/>
    <polygon points="590.0406,294.5489 590.0406,282.9994 606.3532,282.9994 604.2632,275.0684 592.1306,275.0684 590.0406,282.9994 606.3532,282.9994 606.3532,294.5489"/>
    <line x1="590.5075" x2="590.5075" y1="323.6431" y2="330.3259"/>
    <polyline points="587.4317,330.3259 587.4317,323.6431 608.9621,323.6431 606.3532,316.7674 590.0406,316.7674 587.4317,323.6431 608.9621,323.6431 608.9621,330.3259 587.4317,330.3259 587.4317,323.6431"/>
    <line x1="593.5832" x2="593.5832" y1="323.6431" y2="330.3259"/>
    <line x1="596.659" x2="596.659" y1="330.3259" y2="323.6431"/>
    <line x1="599.7348" x2="599.7348" y1="323.6431" y2="330.3259"/>
    <line x1="602.8106" x2="602.8106" y1="330.3259" y2="323.6431"/>
    <line x1="605.8863" x2="605.8863" y1="323.6431" y2="330.3259"/>
    <polygon points="595.4886,334.356 600.9052,334.356 608.9621,330.3259 587.4317,330.3259"/>
    <polygon points="595.4886,334.356 588.7905,353.6449 607.6033,353.6449 600.9052,334.356"/>
    <line x1="533.0319" x2="533.0319" y1="339.3548" y2="315.7142"/>
    <line x1="530.312" x2="530.312" y1="315.7142" y2="339.3548"/>
    <line x1="527.5921" x2="527.5921" y1="339.3548" y2="315.7142"/>
    <line x1="524.8721" x2="524.8721" y1="315.7142" y2="339.3548"/>
    <line x1="522.1522" x2="522.1522" y1="339.3548" y2="315.7142"/>
    <line x1="519.4322" x2="519.4322" y1="315.7142" y2="339.3548"/>
    <line x1="516.7123" x2="516.7123" y1="339.3548" y2="315.7142"/>
    <line x1="513.9923" x2="513.9923" y1="315.7142" y2="339.3548"/>
    <line x1="511.2724" x2="511.2724" y1="339.3548" y2="315.7142"/>
    <line x1="508.5524" x2="508.5524" y1="315.7142" y2="339.3548"/>
    <polyline points="505.8325,339.3548 505.8325,347.3994 535.7519,347.3994 535.7519,339.3548 505.8325,339.3548 505.8325,315.7142 505.8325,339.3548 535.7519,339.3548 535.7519,315.7142 505.8325,315.7142 507.4873,310.6409 534.097,310.6409 535.7519,315.7142 505.8325,315.7142"/>
    <polygon points="505.9209,307.499 505.9209,300.645 507.4873,300.645 507.4873,307.499"/>
    <polygon points="507.9392,288.1113 507.4873,297.503 534.097,297.503 534.097,310.6409 507.4873,310.6409 507.4873,297.503 534.097,297.503 533.6452,288.1113"/>
    <polygon points="517.4392,288.1113 520.7922,281.4053 524.1452,288.1113"/>
    <line x1="510.8352" x2="530.7491" y1="272.0163" y2="272.0163"/>
    <line x1="530.7491" x2="510.8352" y1="269.1563" y2="269.1563"/>
    <line x1="510.8352" x2="530.7491" y1="266.2964" y2="266.2964"/>
    <line x1="530.7491" x2="510.8352" y1="263.4365" y2="263.4365"/>
    <polygon points="518.2639,249.1259 518.7857,247.3915 519.633,246.6863 520.6996,246.4075 522.4138,246.9923 523.0876,247.8649 523.3273,248.9409 523.0876,250.0169 522.4138,250.8895 520.6996,251.4743 519.0326,250.7659"/>
    <polygon points="527.8447,255.498 513.7397,255.498 513.7397,242.3838 527.8447,242.3838"/>
    <polygon points="527.8447,255.498 513.7397,255.498 510.8352,260.5765 530.7491,260.5765 530.7491,272.0163 510.8352,272.0163 510.8352,260.5765 530.7491,260.5765"/>
    <polygon points="533.6452,277.7436 533.6452,288.1113 507.9392,288.1113 507.9392,277.7436 533.6452,277.7436 530.7491,272.0163 510.8352,272.0163 507.9392,277.7436"/>
    <polygon points="535.6634,307.499 534.097,307.499 534.097,300.645 535.6634,300.645"/>
    <polygon points="532.7671,347.3994 527.5541,347.3994 525.7788,353.6449 534.5424,353.6449"/>
    <polygon points="516.4103,353.6449 525.174,353.6449 523.3986,347.3994 518.1857,347.3994"/>
    <polygon points="507.0419,353.6449 515.8056,353.6449 514.0302,347.3994 508.8173,347.3994"/>
    <polygon points="460.4985,331.5882 426.2764,331.5882 426.2764,315.5475 460.4985,315.5475"/>
    <polygon points="450.6351,264.6142 436.1398,264.6142 436.1398,263.7215 450.6351,263.7215"/>
    <polygon points="457.9823,260.1376 457.9823,267.3997 428.7926,267.3997 428.7926,260.1376"/>
    <polygon points="377.3623,267.0679 377.3623,259.4339 354.6031,259.4339 354.6031,267.0679 377.3623,267.0679 377.3623,273.5026 354.6031,273.5026 354.6031,267.0679"/>
    <line x1="373.5691" x2="373.5691" y1="278.9167" y2="286.639"/>
    <line x1="369.7759" x2="369.7759" y1="286.639" y2="278.9167"/>
    <line x1="365.9827" x2="365.9827" y1="278.9167" y2="286.639"/>
    <line x1="362.1895" x2="362.1895" y1="286.639" y2="278.9167"/>
    <line x1="358.3963" x2="358.3963" y1="278.9167" y2="286.639"/>
    <polyline points="354.6031,286.639 354.6031,298.0265 377.3623,298.0265 377.3623,286.639 354.6031,286.639 354.6031,278.9167 354.6031,286.639 377.3623,286.639 377.3623,278.9167 354.6031,278.9167 354.6031,273.5026 377.3623,273.5026 377.3623,278.9167 354.6031,278.9167"/>
    <line x1="354.6031" x2="377.3623" y1="300.3821" y2="300.3821"/>
    <polygon points="377.3623,298.0265 377.3623,321.5828 354.6031,321.5828 354.6031,298.0265"/>
    <line x1="377.3623" x2="354.6031" y1="302.7378" y2="302.7378"/>
    <line x1="354.6031" x2="377.3623" y1="305.0934" y2="305.0934"/>
    <line x1="377.3623" x2="354.6031" y1="307.449" y2="307.449"/>
    <line x1="354.6031" x2="377.3623" y1="309.8047" y2="309.8047"/>
    <line x1="377.3623" x2="354.6031" y1="312.1603" y2="312.1603"/>
    <line x1="354.6031" x2="377.3623" y1="314.5159" y2="314.5159"/>
    <line x1="377.3623" x2="354.6031" y1="316.8716" y2="316.8716"/>
    <line x1="354.6031" x2="377.3623" y1="319.2272" y2="319.2272"/>
    <line x1="377.3623" x2="354.6031" y1="321.5828" y2="321.5828"/>
    <polyline points="350.1757,341.9316 352.6251,344.4631 353.4884,345.7554 354.479,348.3729 354.6031,349.6899 340.9668,349.6899 341.4629,347.0601 342.0815,345.7554 342.9449,344.4631 345.3943,341.9316"/>
    <polygon points="354.6031,346.0616 354.6031,326.7621 377.3623,326.7621 377.3623,321.5828 354.6031,321.5828 354.6031,326.7621 377.3623,326.7621 377.3623,346.0616"/>
    <polygon points="371.0257,346.0616 360.9397,346.0616 355.8126,353.6449 376.1529,353.6449"/>
    <polygon points="377.3623,341.9316 390.9987,341.9316 390.9987,261.4844 377.3623,249.6414 377.3623,261.4844 390.9987,261.4844 377.3623,261.4844"/>
    <polyline points="381.7898,341.9316 379.3404,344.4631 378.477,345.7554 377.8584,347.0601 377.3623,349.6899 390.9987,349.6899 390.8745,348.3729 389.884,345.7554 389.0206,344.4631 386.5712,341.9316"/>
    <polygon points="312.6586,328.4659 312.6586,329.5666 302.5814,329.5666 302.5814,313.448"/>
    <polygon points="302.5814,329.5666 274.5746,329.5666 274.5746,313.448 302.5814,313.448 300.2558,308.6806 276.9002,308.6806 274.5746,313.448 302.5814,313.448"/>
    <line x1="300.2558" x2="276.9002" y1="308.6806" y2="308.6806"/>
    <line x1="276.9002" x2="300.2558" y1="304.8512" y2="304.8512"/>
    <polygon points="300.2558,308.6806 276.9002,308.6806 276.9002,289.5334 300.2558,289.5334"/>
    <line x1="300.2558" x2="276.9002" y1="301.0218" y2="301.0218"/>
    <line x1="276.9002" x2="300.2558" y1="297.1923" y2="297.1923"/>
    <line x1="300.2558" x2="276.9002" y1="293.3629" y2="293.3629"/>
    <polygon points="289.2711,263.3518 289.7572,264.3058 289.2711,265.2598 288.578,265.485 287.8849,265.2598 287.3988,264.3058 287.8849,263.3518 288.578,263.1266"/>
    <polyline points="300.2558,259.4704 276.9002,259.4704 300.2558,259.4704 300.2558,269.1412 276.9002,269.1412 276.9002,259.4704"/>
    <line x1="276.9002" x2="300.2558" y1="256.1249" y2="256.1249"/>
    <line x1="300.2558" x2="276.9002" y1="252.7795" y2="252.7795"/>
    <line x1="276.9002" x2="300.2558" y1="249.434" y2="249.434"/>
    <line x1="300.2558" x2="276.9002" y1="246.0885" y2="246.0885"/>
    <line x1="276.9002" x2="300.2558" y1="242.743" y2="242.743"/>
    <line x1="300.2558" x2="276.9002" y1="239.3976" y2="239.3976"/>
    <polygon points="276.9002,236.0521 300.2558,236.0521 300.2558,259.4704 276.9002,259.4704 276.9002,236.0521 300.2558,236.0521 299.4877,229.2628 277.6683,229.2628"/>
    <line x1="277.6683" x2="299.4877" y1="229.2628" y2="229.2628"/>
    <line x1="299.4877" x2="277.6683" y1="226.313" y2="226.313"/>
    <line x1="277.6683" x2="299.4877" y1="223.3633" y2="223.3633"/>
    <polyline points="299.4877,220.4136 277.6683,220.4136 299.4877,220.4136 299.4877,229.2628 277.6683,229.2628 277.6683,220.4136"/>
    <polygon points="277.6683,220.4136 277.6683,208.0493 299.4877,208.0493 299.4877,220.4136"/>
    <line x1="277.6683" x2="299.4877" y1="216.2922" y2="216.2922"/>
    <line x1="299.4877" x2="277.6683" y1="212.1708" y2="212.1708"/>
    <polygon points="280.0914,208.0493 280.0914,186.5512 297.0646,186.5512 297.0646,208.0493"/>
    <line x1="280.0914" x2="297.0646" y1="208.0493" y2="208.0493"/>
    <line x1="297.0646" x2="280.0914" y1="205.3621" y2="205.3621"/>
    <line x1="280.0914" x2="297.0646" y1="202.6748" y2="202.6748"/>
    <line x1="297.0646" x2="280.0914" y1="199.9875" y2="199.9875"/>
    <line x1="280.0914" x2="297.0646" y1="197.3003" y2="197.3003"/>
    <line x1="297.0646" x2="280.0914" y1="194.613" y2="194.613"/>
    <line x1="280.0914" x2="297.0646" y1="191.9257" y2="191.9257"/>
    <line x1="297.0646" x2="280.0914" y1="189.2384" y2="189.2384"/>
    <polygon points="297.0646,173.1095 296.0737,163.7165 281.0823,163.7165 280.0914,173.1095 297.0646,173.1095 297.0646,186.5512 280.0914,186.5512 280.0914,173.1095"/>
    <line x1="293.0754" x2="293.0754" y1="163.7165" y2="152.4724"/>
    <line x1="290.0771" x2="290.0771" y1="152.4724" y2="163.7165"/>
    <line x1="287.0789" x2="287.0789" y1="163.7165" y2="152.4724"/>
    <line x1="284.0806" x2="284.0806" y1="152.4724" y2="163.7165"/>
    <polyline points="281.0823,163.7165 281.0823,152.4724 296.0737,152.4724 296.0737,163.7165 281.0823,163.7165 281.0823,152.4724"/>
    <polygon points="285.3388,146.4569 291.8172,146.4569 291.8172,140.4198 285.3388,140.4198"/>
    <polygon points="281.6204,133.8483 295.5356,133.8483 295.5356,152.4724 281.6204,152.4724 281.6204,133.8483 288.578,118.7274 295.5356,133.8483"/>
    <polygon points="216.9995,153.044 216.9995,171.5328 205.347,171.5328 205.347,153.044 216.9995,153.044 216.9472,144.8572 205.3994,144.8572 205.347,153.044"/>
    <polygon points="213.0141,163.9965 211.3609,164.7926 210.2558,164.626 209.3324,163.9965 208.6621,162.2884 209.3324,160.5804 210.9856,159.7842 212.0907,159.9508 213.0141,160.5804 213.6845,162.2884"/>
    <line x1="217.5708" x2="204.7758" y1="173.6943" y2="173.6943"/>
    <polygon points="204.7758,171.5328 217.5708,171.5328 217.5708,188.8243 204.7758,188.8243"/>
    <line x1="204.7758" x2="217.5708" y1="175.8557" y2="175.8557"/>
    <line x1="217.5708" x2="204.7758" y1="178.0171" y2="178.0171"/>
    <line x1="204.7758" x2="217.5708" y1="180.1786" y2="180.1786"/>
    <line x1="217.5708" x2="204.7758" y1="182.34" y2="182.34"/>
    <line x1="204.7758" x2="217.5708" y1="184.5014" y2="184.5014"/>
    <line x1="217.5708" x2="204.7758" y1="186.6628" y2="186.6628"/>
    <line x1="204.7758" x2="217.5708" y1="188.8243" y2="188.8243"/>
    <polygon points="203.3837,210.1228 203.3837,192.5875 218.9628,192.5875 217.5708,188.8243 204.7758,188.8243 203.3837,192.5875 218.9628,192.5875 218.9628,210.1228"/>
    <polygon points="220.8735,219.0844 218.9628,210.1228 203.3837,210.1228 201.473,219.0844 220.8735,219.0844 220.8735,238.1713 201.473,238.1713 201.473,219.0844"/>
    <line x1="220.8735" x2="201.473" y1="241.7262" y2="241.7262"/>
    <polygon points="201.473,238.1713 220.8735,238.1713 220.8735,248.8359 201.473,248.8359"/>
    <line x1="201.473" x2="220.8735" y1="245.281" y2="245.281"/>
    <line x1="220.8735" x2="201.473" y1="248.8359" y2="248.8359"/>
    <polyline points="201.473,256.1075 201.473,271.8901 220.8735,271.8901 220.8735,256.1075 201.473,256.1075 201.473,248.8359 220.8735,248.8359 220.8735,256.1075 201.473,256.1075 201.473,271.8901"/>
    <line x1="203.6286" x2="203.6286" y1="271.8901" y2="256.1075"/>
    <line x1="205.7843" x2="205.7843" y1="256.1075" y2="271.8901"/>
    <line x1="207.9399" x2="207.9399" y1="271.8901" y2="256.1075"/>
    <line x1="210.0955" x2="210.0955" y1="256.1075" y2="271.8901"/>
    <line x1="212.2511" x2="212.2511" y1="271.8901" y2="256.1075"/>
    <line x1="214.4067" x2="214.4067" y1="256.1075" y2="271.8901"/>
    <line x1="216.5623" x2="216.5623" y1="271.8901" y2="256.1075"/>
    <line x1="218.7179" x2="218.7179" y1="256.1075" y2="271.8901"/>
    <polygon points="220.8735,277.0954 220.8735,271.8901 201.473,271.8901 201.473,277.0954 220.8735,277.0954 220.8735,295.2006 201.473,295.2006 201.473,277.0954"/>
    <polygon points="220.8735,304.6226 220.8735,295.2006 201.473,295.2006 201.473,304.6226 220.8735,304.6226 220.8735,313.8782 201.473,313.8782 201.473,304.6226"/>
    <line x1="220.8735" x2="201.473" y1="306.9365" y2="306.9365"/>
    <line x1="201.473" x2="220.8735" y1="309.2504" y2="309.2504"/>
    <line x1="220.8735" x2="201.473" y1="311.5643" y2="311.5643"/>
    <line x1="204.7064" x2="204.7064" y1="313.8782" y2="321.1292"/>
    <line x1="207.9399" x2="207.9399" y1="321.1292" y2="313.8782"/>
    <line x1="211.1733" x2="211.1733" y1="313.8782" y2="321.1292"/>
    <line x1="214.4067" x2="214.4067" y1="321.1292" y2="313.8782"/>
    <line x1="217.6401" x2="217.6401" y1="313.8782" y2="321.1292"/>
    <line x1="218.4485" x2="218.4485" y1="328.0278" y2="341.3743"/>
    <line x1="216.0234" x2="216.0234" y1="341.3743" y2="328.0278"/>
    <line x1="213.5983" x2="213.5983" y1="328.0278" y2="341.3743"/>
    <line x1="211.1733" x2="211.1733" y1="341.3743" y2="328.0278"/>
    <line x1="208.7482" x2="208.7482" y1="328.0278" y2="341.3743"/>
    <line x1="206.3232" x2="206.3232" y1="341.3743" y2="328.0278"/>
    <line x1="203.8981" x2="203.8981" y1="328.0278" y2="341.3743"/>
    <polyline points="201.473,341.3743 201.473,328.0278 220.8735,328.0278 220.8735,321.1292 201.473,321.1292 201.473,328.0278 220.8735,328.0278 220.8735,341.3743 201.473,341.3743 201.473,328.0278"/>
    <polygon points="201.473,333.3157 189.8027,333.3157 189.8027,239.8233 195.6379,220.594 201.473,239.8233 189.8027,239.8233 201.473,239.8233"/>
    <polygon points="193.6486,335.6715 197.6271,335.6715 201.473,333.3157 189.8027,333.3157"/>
    <polygon points="189.6295,345.0026 201.6463,345.0026 197.6271,335.6715 193.6486,335.6715"/>
    <polyline points="201.473,321.1292 201.473,313.8782 201.473,321.1292 220.8735,321.1292 220.8735,313.8782 201.473,313.8782 220.8735,313.8782"/>
    <polygon points="220.8735,333.3157 232.5439,333.3157 232.5439,239.8233 226.7087,220.594 220.8735,239.8233 232.5439,239.8233 220.8735,239.8233"/>
    <polygon points="228.698,335.6715 224.7194,335.6715 220.8735,333.3157 232.5439,333.3157"/>
    <polygon points="220.7003,345.0026 224.7194,335.6715 228.698,335.6715 232.7171,345.0026"/>
    <polygon points="219.6641,353.6449 213.2552,341.3743 209.0914,341.3743 202.6825,353.6449"/>
    <polygon points="264.4974,328.4659 264.4974,329.5666 274.5746,329.5666 274.5746,313.448"/>
    <polygon points="274.5746,329.5666 281.2073,337.1385 295.9487,337.1385 302.5814,329.5666"/>
    <polygon points="281.2073,337.1385 276.1797,353.6449 300.9763,353.6449 295.9487,337.1385"/>
    <polygon points="300.2558,269.1412 300.2558,289.5334 276.9002,289.5334 276.9002,269.1412"/>
    <polygon points="354.6031,249.6414 354.6031,261.4844 340.9668,261.4844 354.6031,261.4844 354.6031,341.9316 340.9668,341.9316 340.9668,261.4844"/>
    <polyline points="354.6031,247.387 354.6031,259.4339 377.3623,259.4339 377.3623,247.387 354.6031,247.387 354.6031,234.4887 354.6031,247.387 377.3623,247.387 377.3623,234.4887 354.6031,234.4887"/>
    <line x1="358.3963" x2="358.3963" y1="234.4887" y2="247.387"/>
    <line x1="362.1895" x2="362.1895" y1="247.387" y2="234.4887"/>
    <line x1="365.9827" x2="365.9827" y1="234.4887" y2="247.387"/>
    <line x1="369.7759" x2="369.7759" y1="247.387" y2="234.4887"/>
    <line x1="373.5691" x2="373.5691" y1="234.4887" y2="247.387"/>
    <polygon points="377.3623,234.4887 354.6031,234.4887 354.6031,222.6602 377.3623,222.6602"/>
    <polygon points="372.2907,216.8025 359.6748,216.8025 359.6748,218.3634 372.2907,218.3634"/>
    <polygon points="377.3623,213.2451 354.6031,213.2451 354.6031,191.0765 377.3623,191.0765"/>
    <polygon points="354.6031,213.2451 377.3623,213.2451 377.3623,222.6602 354.6031,222.6602"/>
    <polygon points="365.9827,187.7171 367.6625,191.0765 364.303,191.0765"/>
    <polygon points="377.3623,178.1886 377.3623,191.0765 354.6031,191.0765 354.6031,178.1886 365.9827,162.5229 377.3623,178.1886 354.6031,178.1886"/>
    <polygon points="205.3994,132.2562 211.1733,115.7724 216.9472,132.2562 205.3994,132.2562 216.9472,132.2562 216.9472,144.8572 205.3994,144.8572"/>
  </g>
</svg>
