<?xml version="1.0" encoding="utf-8" ?>
<svg xmlns="http://www.w3.org/2000/svg" xmlns:cc="http://creativecommons.org/ns#" xmlns:dc="http://purl.org/dc/elements/1.1/" xmlns:ev="http://www.w3.org/2001/xml-events" xmlns:inkscape="http://www.inkscape.org/namespaces/inkscape" xmlns:rdf="http://www.w3.org/1999/02/22-rdf-syntax-ns#" xmlns:sodipodi="http://sodipodi.sourceforge.net/DTD/sodipodi-0.dtd" xmlns:xlink="http://www.w3.org/1999/xlink" baseProfile="tiny" height="29.7cm" version="1.2" viewBox="0 0 793.7007874015749 1122.5196850393702" width="21.0cm">
  <metadata>
    <rdf:RDF>
      <cc:Work>
        <dc:format>image/svg+xml</dc:format>
        <dc:source/>
        <dc:date>2021-11-13T21:41:09.228750</dc:date>
      </cc:Work>
    </rdf:RDF>
  </metadata>
  <defs/>
  <g fill="none" id="layer1" inkscape:groupmode="layer" inkscape:label="1" stroke="#00f" style="display:inline">
    <polygon points="197.0186,993.9315 187.5107,1006.2952 220.1335,1006.2952 210.6256,993.9315"/>
    <line x1="196.8138" x2="196.8138" y1="981.9227" y2="970.1005"/>
    <line x1="195.8581" x2="195.8581" y1="970.1005" y2="959.1994"/>
    <line x1="199.0437" x2="199.0437" y1="959.1994" y2="970.1005"/>
    <line x1="200.3179" x2="200.3179" y1="970.1005" y2="981.9227"/>
    <line x1="203.8221" x2="203.8221" y1="981.9227" y2="970.1005"/>
    <line x1="202.2293" x2="202.2293" y1="970.1005" y2="959.1994"/>
    <line x1="205.4149" x2="205.4149" y1="959.1994" y2="970.1005"/>
    <line x1="207.3263" x2="207.3263" y1="970.1005" y2="981.9227"/>
    <line x1="210.8305" x2="210.8305" y1="981.9227" y2="970.1005"/>
    <line x1="211.7861" x2="211.7861" y1="970.1005" y2="959.1994"/>
    <line x1="208.6005" x2="208.6005" y1="959.1994" y2="970.1005"/>
    <line x1="214.3346" x2="214.3346" y1="970.1005" y2="981.9227"/>
    <line x1="217.8388" x2="217.8388" y1="981.9227" y2="970.1005"/>
    <line x1="218.1574" x2="218.1574" y1="970.1005" y2="959.1994"/>
    <line x1="214.9718" x2="214.9718" y1="959.1994" y2="970.1005"/>
    <polyline points="221.343,951.7794 186.3012,951.7794 221.343,951.7794 221.343,959.1994 186.3012,959.1994 186.3012,951.7794"/>
    <line x1="186.3012" x2="221.343" y1="947.9653" y2="947.9653"/>
    <line x1="221.343" x2="186.3012" y1="944.1512" y2="944.1512"/>
    <line x1="186.3012" x2="221.343" y1="940.337" y2="940.337"/>
    <polygon points="221.343,928.9551 221.343,936.5229 186.3012,936.5229 186.3012,928.9551"/>
    <polygon points="186.3012,936.5229 221.343,936.5229 221.343,951.7794 186.3012,951.7794"/>
    <polygon points="186.3012,920.6868 221.343,920.6868 221.343,928.9551 186.3012,928.9551 186.3012,920.6868 221.343,920.6868 218.5772,911.021 189.067,911.021"/>
    <polygon points="175.6332,915.338 186.3012,895.9821 186.3012,915.338 175.6332,915.338 186.3012,915.338 186.3012,988.5827 175.6332,988.5827"/>
    <polygon points="189.067,886.833 218.5772,886.833 218.2464,879.3434 189.3978,879.3434 189.067,886.833 218.5772,886.833 218.5772,911.021 189.067,911.021"/>
    <polygon points="218.2464,862.8598 189.3978,862.8598 189.3978,841.1809 201.7102,788.5301 205.934,788.5301 218.2464,841.1809 189.3978,841.1809 218.2464,841.1809"/>
    <polygon points="218.2464,862.8598 218.2464,879.3434 189.3978,879.3434 189.3978,862.8598"/>
    <polygon points="199.2029,849.5011 199.2029,854.167 208.4413,854.167 208.4413,849.5011"/>
    <polygon points="205.934,788.5301 201.7102,788.5301 201.7102,784.0514 205.934,784.0514"/>
    <polygon points="205.934,777.4024 205.934,784.0514 201.7102,784.0514 201.7102,777.4024"/>
    <line x1="275.8078" x2="275.8078" y1="840.1269" y2="855.1503"/>
    <polyline points="273.0983,855.1503 273.0983,840.1269 289.3554,840.1269 289.3554,855.1503 273.0983,855.1503 273.1041,839.9456 273.5635,838.5154 274.5483,837.3417 277.6428,835.544 281.5781,834.6473 284.8109,835.544 287.3278,836.8755 288.8901,838.5154 289.3554,840.1269"/>
    <line x1="286.6458" x2="286.6458" y1="840.1269" y2="855.1503"/>
    <line x1="283.9363" x2="283.9363" y1="855.1503" y2="840.1269"/>
    <line x1="281.2268" x2="281.2268" y1="840.1269" y2="855.1503"/>
    <line x1="278.5173" x2="278.5173" y1="855.1503" y2="840.1269"/>
    <polygon points="291.0859,860.5596 291.0859,875.5319 271.3677,875.5319 271.3677,860.5596 291.0859,860.5596 289.3554,855.1503 273.0983,855.1503 271.3677,860.5596"/>
    <polygon points="291.2355,883.8044 294.8648,883.8044 294.8648,893.0458 291.2355,893.0458"/>
    <polygon points="271.2182,879.8627 291.2355,879.8627 291.2355,896.9875 271.2182,896.9875 271.2182,879.8627 291.2355,879.8627 291.0859,875.5319 271.3677,875.5319"/>
    <polygon points="267.5889,883.8044 271.2182,883.8044 271.2182,893.0458 267.5889,893.0458"/>
    <polygon points="269.3756,896.9875 293.078,896.9875 293.078,905.5525 269.3756,905.5525"/>
    <polygon points="294.9282,910.4585 294.9282,928.9572 267.5254,928.9572 267.5254,910.4585 294.9282,910.4585 293.078,905.5525 269.3756,905.5525 267.5254,910.4585"/>
    <line x1="294.9282" x2="267.5254" y1="931.7374" y2="931.7374"/>
    <line x1="267.5254" x2="294.9282" y1="934.5176" y2="934.5176"/>
    <polyline points="294.9282,937.2978 267.5254,937.2978 294.9282,937.2978 294.9282,950.7242 267.5254,950.7242 267.5254,937.2978"/>
    <polygon points="267.5254,937.2978 267.5254,928.9572 294.9282,928.9572 294.9282,937.2978"/>
    <line x1="267.5254" x2="294.9282" y1="941.7732" y2="941.7732"/>
    <line x1="294.9282" x2="267.5254" y1="946.2487" y2="946.2487"/>
    <polyline points="267.5254,950.7242 267.5254,968.0824 294.9282,968.0824 294.9282,950.7242 267.5254,950.7242 294.9282,950.7242"/>
    <line x1="294.9282" x2="267.5254" y1="954.1958" y2="954.1958"/>
    <line x1="267.5254" x2="294.9282" y1="957.6675" y2="957.6675"/>
    <line x1="294.9282" x2="267.5254" y1="961.1391" y2="961.1391"/>
    <line x1="267.5254" x2="294.9282" y1="964.6108" y2="964.6108"/>
    <polyline points="294.9282,968.0824 267.5254,968.0824 294.9282,968.0824 294.9282,976.2024 267.5254,976.2024 267.5254,968.0824 267.5254,976.2024"/>
    <line x1="270.2657" x2="270.2657" y1="976.2024" y2="968.0824"/>
    <line x1="273.006" x2="273.006" y1="968.0824" y2="976.2024"/>
    <line x1="275.7463" x2="275.7463" y1="976.2024" y2="968.0824"/>
    <line x1="278.4866" x2="278.4866" y1="968.0824" y2="976.2024"/>
    <line x1="281.2268" x2="281.2268" y1="976.2024" y2="968.0824"/>
    <line x1="283.9671" x2="283.9671" y1="968.0824" y2="976.2024"/>
    <line x1="286.7074" x2="286.7074" y1="976.2024" y2="968.0824"/>
    <line x1="289.4477" x2="289.4477" y1="968.0824" y2="976.2024"/>
    <line x1="292.188" x2="292.188" y1="976.2024" y2="968.0824"/>
    <polygon points="295.9231,981.3671 294.9282,976.2024 267.5254,976.2024 266.5305,981.3671 295.9231,981.3671 295.9231,993.6429 266.5305,993.6429 266.5305,981.3671"/>
    <polygon points="300.6533,991.3077 295.9231,991.3077 295.9231,983.7022 300.6533,983.7022"/>
    <polygon points="267.74,1006.2952 294.7137,1006.2952 287.1645,993.6429 275.2892,993.6429"/>
    <polygon points="261.8004,983.7022 266.5305,983.7022 266.5305,991.3077 261.8004,991.3077"/>
    <polyline points="227.7534,988.5827 229.0453,990.0329 230.9386,993.0033 231.8916,996.0343 232.0111,997.5599 221.343,997.5599 221.4624,996.0343 222.4154,993.0033 224.3088,990.0329 225.6007,988.5827"/>
    <polygon points="221.343,988.5827 232.0111,988.5827 232.0111,915.338 221.343,895.9821 221.343,915.338 232.0111,915.338 221.343,915.338"/>
    <line x1="193.3096" x2="193.3096" y1="981.9227" y2="970.1005"/>
    <line x1="192.6725" x2="192.6725" y1="970.1005" y2="959.1994"/>
    <line x1="189.4868" x2="189.4868" y1="959.1994" y2="970.1005"/>
    <line x1="189.8054" x2="189.8054" y1="970.1005" y2="981.9227"/>
    <polyline points="186.3012,981.9227 186.3012,993.9315 221.343,993.9315 221.343,981.9227 186.3012,981.9227 186.3012,970.1005 186.3012,981.9227 221.343,981.9227 221.343,970.1005 186.3012,970.1005 186.3012,959.1994 186.3012,970.1005 221.343,970.1005 221.343,959.1994 186.3012,959.1994"/>
    <polyline points="182.0435,988.5827 183.3355,990.0329 185.2288,993.0033 186.1818,996.0343 186.3012,997.5599 175.6332,997.5599 175.7526,996.0343 176.7056,993.0033 178.5989,990.0329 179.8908,988.5827"/>
    <polygon points="352.7095,984.2012 350.3407,1006.2952 366.9224,1006.2952 364.5536,984.2012"/>
    <polygon points="352.7095,984.2012 364.5536,984.2012 369.3233,976.7253 347.9398,976.7253"/>
    <polygon points="352.8729,970.1219 352.8729,972.114 364.3902,972.114 364.3902,970.1219"/>
    <polygon points="369.3233,965.3485 369.3233,976.7253 347.9398,976.7253 347.9398,965.3485 369.3233,965.3485 366.9579,959.35 350.3052,959.35 347.9398,965.3485"/>
    <polygon points="366.9579,953.0608 366.9579,959.35 350.3052,959.35 350.3052,953.0608"/>
    <polygon points="354.2332,941.4696 354.2332,943.5054 363.0299,943.5054 363.0299,941.4696"/>
    <polygon points="366.9579,933.9251 366.3475,929.1783 350.9156,929.1783 350.3052,933.9251 366.9579,933.9251 366.9579,953.0608 350.3052,953.0608 350.3052,933.9251"/>
    <polygon points="358.6316,925.173 360.6342,929.1783 356.6289,929.1783"/>
    <polygon points="365.3883,901.4225 351.8748,901.4225 350.9156,909.8856 366.3475,909.8856 366.3475,929.1783 350.9156,929.1783 350.9156,909.8856 366.3475,909.8856"/>
    <polygon points="365.3883,899.3278 365.3883,892.6796 370.1302,892.6796 370.1302,899.3278"/>
    <polygon points="365.3883,890.5848 365.3883,901.4225 351.8748,901.4225 351.8748,890.5848"/>
    <polygon points="360.3305,885.2731 356.9326,885.2731 356.9326,886.2495 360.3305,886.2495"/>
    <polygon points="351.8748,892.6796 351.8748,899.3278 347.1329,899.3278 347.1329,892.6796"/>
    <polygon points="353.5977,868.7573 351.8748,875.8926 365.3883,875.8926 365.3883,890.5848 351.8748,890.5848 351.8748,875.8926 365.3883,875.8926 363.6654,868.7573"/>
    <polyline points="353.5977,868.7573 353.5977,847.8622 353.5977,868.7573 363.6654,868.7573 363.6654,847.8622 353.5977,847.8622 363.6654,847.8622"/>
    <line x1="363.6654" x2="353.5977" y1="844.6069" y2="844.6069"/>
    <polyline points="353.5977,841.3517 353.5977,847.8622 363.6654,847.8622 363.6654,841.3517 353.5977,841.3517 353.7353,812.9824 363.5278,812.9824 363.6654,818.7607 353.5977,818.7607 353.5977,841.3517 363.6654,841.3517 363.6654,818.7607 353.5977,818.7607"/>
    <line x1="356.9536" x2="356.9536" y1="818.7607" y2="841.3517"/>
    <line x1="360.3095" x2="360.3095" y1="841.3517" y2="818.7607"/>
    <line x1="358.6316" x2="358.6316" y1="812.9824" y2="806.1098"/>
    <line x1="360.2636" x2="360.2636" y1="806.1098" y2="790.9608"/>
    <line x1="356.9995" x2="356.9995" y1="790.9608" y2="806.1098"/>
    <polyline points="353.7353,812.9824 353.7353,806.1098 353.7353,812.9824 363.5278,812.9824 363.5278,806.1098 353.7353,806.1098 353.7353,790.9608 353.7353,806.1098 363.5278,806.1098 363.5278,790.9608 353.7353,790.9608 363.5278,790.9608 358.6316,776.8654 353.7353,790.9608"/>
    <line x1="358.6316" x2="358.6316" y1="847.8622" y2="868.7573"/>
    <polygon points="417.9015,879.6887 454.171,879.6887 454.171,890.6274 417.9015,890.6274"/>
    <polygon points="417.9015,890.6274 454.171,890.6274 454.171,902.5603 417.9015,902.5603"/>
    <polygon points="417.9015,909.3549 454.171,909.3549 454.171,922.1013 417.9015,922.1013"/>
    <polygon points="437.6473,917.4053 435.9426,918.0518 434.2955,917.2703 433.7182,915.5409 434.5654,913.9266 436.3166,913.4194 437.8955,914.331 438.3619,915.7281"/>
    <polygon points="439.03,902.5603 433.0426,902.5603 436.0363,896.5729"/>
    <polygon points="454.171,902.5603 454.171,909.3549 417.9015,909.3549 417.9015,902.5603"/>
    <polygon points="454.171,922.1013 454.171,937.1145 417.9015,937.1145 417.9015,922.1013"/>
    <polygon points="454.171,937.1145 454.171,950.2387 417.9015,950.2387 417.9015,937.1145"/>
    <polygon points="454.171,959.1551 454.171,950.2387 461.1024,958.2894 461.1024,960.0208"/>
    <polygon points="430.6136,970.9889 441.4589,970.9889 454.171,959.1551 417.9015,959.1551"/>
    <polygon points="417.9015,950.2387 410.9702,958.2894 410.9702,960.0208 417.9015,959.1551"/>
    <polygon points="417.9015,950.2387 454.171,950.2387 454.171,959.1551 417.9015,959.1551"/>
    <polygon points="426.2941,945.6954 426.2941,941.6857 445.7785,941.6857 445.7785,945.6954"/>
    <polygon points="452.4769,1006.2952 441.4589,970.9889 430.6136,970.9889 419.5957,1006.2952"/>
    <polyline points="488.429,994.0563 487.0476,995.6675 485.1884,998.9881 484.5643,1002.3804 495.8928,1002.3804 495.7365,1000.6797 494.4916,997.3144 492.028,994.0563"/>
    <polygon points="503.405,998.7521 501.2888,998.7521 497.1022,1006.2952 507.5916,1006.2952"/>
    <polygon points="518.6857,1006.2952 514.4991,998.7521 512.3829,998.7521 508.1963,1006.2952"/>
    <polygon points="519.2904,1006.2952 529.7798,1006.2952 525.5932,998.7521 523.477,998.7521"/>
    <polyline points="534.854,994.0563 533.4725,995.6675 531.6134,998.9881 530.9892,1002.3804 542.3177,1002.3804 542.1615,1000.6797 540.9165,997.3144 538.453,994.0563"/>
    <polygon points="530.9892,982.5398 530.9892,978.4225 495.8928,978.4225 495.8928,982.5398 530.9892,982.5398 530.9892,998.7521 495.8928,998.7521 495.8928,982.5398"/>
    <line x1="528.7957" x2="528.7957" y1="965.4366" y2="949.3989"/>
    <line x1="526.6022" x2="526.6022" y1="949.3989" y2="965.4366"/>
    <line x1="524.4087" x2="524.4087" y1="965.4366" y2="949.3989"/>
    <line x1="522.2151" x2="522.2151" y1="949.3989" y2="965.4366"/>
    <line x1="520.0216" x2="520.0216" y1="965.4366" y2="949.3989"/>
    <line x1="517.8281" x2="517.8281" y1="949.3989" y2="965.4366"/>
    <line x1="515.6345" x2="515.6345" y1="965.4366" y2="949.3989"/>
    <line x1="513.441" x2="513.441" y1="949.3989" y2="965.4366"/>
    <line x1="511.2475" x2="511.2475" y1="965.4366" y2="949.3989"/>
    <line x1="509.0539" x2="509.0539" y1="949.3989" y2="965.4366"/>
    <line x1="506.8604" x2="506.8604" y1="965.4366" y2="949.3989"/>
    <line x1="504.6669" x2="504.6669" y1="949.3989" y2="965.4366"/>
    <line x1="502.4734" x2="502.4734" y1="965.4366" y2="949.3989"/>
    <line x1="500.2798" x2="500.2798" y1="949.3989" y2="965.4366"/>
    <line x1="498.0863" x2="498.0863" y1="965.4366" y2="949.3989"/>
    <polyline points="495.8928,949.3989 530.9892,949.3989 530.9892,940.8818 495.8928,940.8818 495.8928,949.3989 530.9892,949.3989 530.9892,965.4366 495.8928,965.4366 495.8928,949.3989 495.8928,965.4366 530.9892,965.4366 530.9892,978.4225 495.8928,978.4225 495.8928,965.4366"/>
    <polygon points="495.8928,929.297 495.8928,922.6987 530.9892,922.6987 530.9892,913.3825 495.8928,913.3825 495.8928,922.6987 530.9892,922.6987 530.9892,929.297"/>
    <polygon points="495.8928,929.297 530.9892,929.297 530.9892,940.8818 495.8928,940.8818"/>
    <polygon points="530.9892,913.3825 495.8928,913.3825 495.8928,891.0878 530.9892,891.0878 530.9892,887.4273 495.8928,887.4273 495.8928,891.0878 530.9892,891.0878"/>
    <polyline points="563.6238,901.8345 563.6238,988.757 577.741,988.757 577.741,901.8345 563.6238,901.8345 564.2641,899.3318 565.3998,897.6747 567.0977,896.0346 570.6824,893.6212 574.2672,896.0346 575.965,897.6747 577.4564,900.1646 577.741,901.8345"/>
    <polyline points="603.9504,901.8345 604.5906,899.3318 605.7264,897.6747 607.4242,896.0346 611.009,893.6212 614.5938,896.0346 616.2916,897.6747 617.783,900.1646 618.0676,901.8345 603.9504,901.8345 603.9504,988.757 618.0676,988.757 618.0676,901.8345"/>
    <polygon points="603.9504,922.715 577.741,922.715 577.741,930.8519 603.9504,930.8519 603.9504,937.1144 577.741,937.1144 577.741,930.8519 603.9504,930.8519"/>
    <polygon points="603.9504,922.715 577.741,922.715 577.741,902.0397 603.9504,902.0397 603.3149,894.8462 578.3766,894.8462 577.741,902.0397 603.9504,902.0397"/>
    <line x1="603.9504" x2="577.741" y1="939.1027" y2="939.1027"/>
    <line x1="577.741" x2="603.9504" y1="941.091" y2="941.091"/>
    <line x1="603.9504" x2="577.741" y1="943.0793" y2="943.0793"/>
    <line x1="577.741" x2="603.9504" y1="945.0677" y2="945.0677"/>
    <line x1="603.9504" x2="577.741" y1="947.056" y2="947.056"/>
    <line x1="577.741" x2="603.9504" y1="949.0443" y2="949.0443"/>
    <polyline points="603.9504,951.0326 577.741,951.0326 603.9504,951.0326 603.9504,972.4876 577.741,972.4876 577.741,951.0326"/>
    <polygon points="577.741,951.0326 577.741,937.1144 603.9504,937.1144 603.9504,951.0326"/>
    <polygon points="577.741,972.4876 603.9504,972.4876 603.9504,989.6354 577.741,989.6354"/>
    <line x1="577.741" x2="603.9504" y1="974.9373" y2="974.9373"/>
    <line x1="603.9504" x2="577.741" y1="977.387" y2="977.387"/>
    <line x1="577.741" x2="603.9504" y1="979.8367" y2="979.8367"/>
    <line x1="603.9504" x2="577.741" y1="982.2863" y2="982.2863"/>
    <line x1="577.741" x2="603.9504" y1="984.736" y2="984.736"/>
    <line x1="603.9504" x2="577.741" y1="987.1857" y2="987.1857"/>
    <line x1="581.0172" x2="581.0172" y1="989.6354" y2="997.0992"/>
    <polyline points="577.741,997.0992 577.741,989.6354 577.741,997.0992 603.9504,997.0992 603.9504,989.6354 577.741,989.6354 603.9504,989.6354"/>
    <line x1="600.6742" x2="600.6742" y1="989.6354" y2="997.0992"/>
    <line x1="597.3981" x2="597.3981" y1="997.0992" y2="989.6354"/>
    <line x1="594.1219" x2="594.1219" y1="989.6354" y2="997.0992"/>
    <line x1="590.8457" x2="590.8457" y1="997.0992" y2="989.6354"/>
    <line x1="587.5696" x2="587.5696" y1="989.6354" y2="997.0992"/>
    <line x1="584.2934" x2="584.2934" y1="997.0992" y2="989.6354"/>
    <polyline points="572.2996,988.757 574.2226,990.9494 575.746,993.275 576.8493,995.7021 577.5174,998.1976 577.741,1000.7275 563.6238,1000.7275 563.8475,998.1976 564.5156,995.7021 565.6188,993.275 567.1423,990.9494 569.0653,988.757"/>
    <polygon points="578.9505,1006.2952 602.741,1006.2952 597.1712,997.0992 584.5203,997.0992"/>
    <polyline points="609.3919,988.757 607.4689,990.9494 605.9454,993.275 604.8421,995.7021 604.1741,998.1976 603.9504,1000.7275 618.0676,1000.7275 617.8439,998.1976 617.1759,995.7021 616.0726,993.275 614.5491,990.9494 612.6262,988.757"/>
    <polygon points="601.5054,865.2676 580.1861,865.2676 578.3766,870.7137 603.3149,870.7137 603.3149,894.8462 578.3766,894.8462 578.3766,870.7137 603.3149,870.7137"/>
    <polygon points="598.8976,846.9514 582.7939,846.9514 580.1861,851.5799 601.5054,851.5799 601.5054,865.2676 580.1861,865.2676 580.1861,851.5799 601.5054,851.5799"/>
    <polygon points="592.6445,846.9514 589.047,846.9514 590.8457,843.3539"/>
    <polygon points="582.7939,823.0334 589.948,808.6012 591.7434,808.6012 598.8976,823.0334 582.7939,823.0334 598.8976,823.0334 598.8976,846.9514 582.7939,846.9514"/>
    <polygon points="591.7434,808.6012 589.948,808.6012 589.948,805.4662 591.7434,805.4662"/>
    <polygon points="589.948,805.4662 589.948,800.9435 591.7434,800.9435 591.7434,805.4662"/>
    <polyline points="530.0113,837.8826 529.7579,833.8137 528.908,829.4466 527.4748,825.2303 525.4838,821.2401 523.1991,817.842 520.2465,814.4798 517.1621,811.7638 513.441,809.2494 509.7199,811.7638 506.6355,814.4798 503.9113,817.5472 501.3982,821.2401 499.5522,824.8882 498.0714,829.0885 497.1722,833.4459 496.8707,837.8826 530.0113,837.8826 530.0113,850.003 496.8707,850.003 496.8707,837.8826"/>
    <line x1="496.8707" x2="530.0113" y1="841.9227" y2="841.9227"/>
    <line x1="530.0113" x2="496.8707" y1="845.9629" y2="845.9629"/>
    <line x1="496.8707" x2="530.0113" y1="850.003" y2="850.003"/>
    <polygon points="530.9892,866.9547 530.9892,887.4273 495.8928,887.4273 495.8928,866.9547"/>
    <polygon points="542.3177,880.5121 530.9892,880.5121 530.9892,994.0563 542.3177,994.0563 542.3177,880.5121 536.6535,862.1169 530.9892,880.5121"/>
    <polygon points="495.8928,880.5121 484.5643,880.5121 495.8928,880.5121 495.8928,994.0563 484.5643,994.0563 484.5643,880.5121 490.2285,862.1169"/>
    <polygon points="495.8928,859.597 530.9892,859.597 530.9892,866.9547 495.8928,866.9547 495.8928,859.597 530.9892,859.597 530.0113,850.003 496.8707,850.003"/>
    <polygon points="457.9398,844.2279 454.1222,844.2279 454.1222,838.1561 457.9398,838.1561"/>
    <polygon points="456.627,820.7561 456.627,830.1574 454.1222,830.1574 454.1222,820.7561"/>
    <polyline points="454.1222,814.1507 453.8452,810.9982 452.9623,807.7123 451.5581,804.6078 449.5065,801.4059 446.8717,798.2726 443.8257,795.361 440.2761,792.5414 436.0363,789.7014 431.9778,792.4097 428.2469,795.361 425.2008,798.2726 422.566,801.4059 420.5144,804.6078 419.1102,807.7123 418.2544,810.8483 417.9504,814.1507 454.1222,814.1507 454.1222,836.7628 417.9504,836.7628 417.9504,814.1507"/>
    <polygon points="415.4455,830.1574 415.4455,820.7561 417.9504,820.7561 417.9504,830.1574"/>
    <polygon points="417.9504,838.1561 417.9504,844.2279 414.1327,844.2279 414.1327,838.1561"/>
    <polygon points="417.9504,845.6212 417.9504,836.7628 454.1222,836.7628 454.1222,845.6212"/>
    <polygon points="417.9015,849.9378 454.171,849.9378 454.171,860.9284 417.9015,860.9284 417.9015,849.9378 454.171,849.9378 454.1222,845.6212 417.9504,845.6212"/>
    <polygon points="454.171,879.6887 417.9015,879.6887 417.9015,860.9284 454.171,860.9284"/>
    <polygon points="432.3478,679.744 429.9988,672.9228 428.5293,672.9228 426.1803,679.744"/>
    <polygon points="435.3015,672.9228 432.9525,679.744 439.12,679.744 436.771,672.9228"/>
    <polygon points="443.5433,672.9228 442.0738,672.9228 439.7248,679.744 445.8923,679.744"/>
    <polygon points="447.1018,661.4653 447.1018,672.9228 424.9708,672.9228 424.9708,661.4653"/>
    <polygon points="451.5845,662.4552 451.5845,671.9329 447.1018,671.9329 447.1018,662.4552"/>
    <polygon points="447.1018,651.1362 447.1018,661.4653 424.9708,661.4653 424.9708,651.1362"/>
    <polygon points="437.9562,647.3794 437.0445,648.0317 435.9421,648.2353 434.2471,647.515 433.4653,645.8473 433.6285,644.7383 434.2471,643.8034 435.9421,643.0831 437.6852,643.6777 438.3704,644.565 438.6141,645.6592"/>
    <polygon points="424.9708,651.1362 424.9708,640.1821 447.1018,640.1821 447.1018,651.1362"/>
    <polygon points="420.488,662.4552 424.9708,662.4552 424.9708,671.9329 420.488,671.9329"/>
    <polyline points="380.0155,661.7318 382.6796,664.7596 384.6782,668.3424 385.9165,672.3103 386.3359,676.4756 368.5018,676.4756 368.9212,672.3103 370.1595,668.3424 372.1581,664.7596 374.8222,661.7318"/>
    <line x1="368.5018" x2="348.7613" y1="665.3728" y2="665.3728"/>
    <polygon points="348.7613,662.8813 368.5018,662.8813 368.5018,656.2499 348.7613,656.2499 348.7613,662.8813 368.5018,662.8813 368.5018,672.8472 348.7613,672.8472"/>
    <line x1="348.7613" x2="368.5018" y1="667.8643" y2="667.8643"/>
    <line x1="368.5018" x2="348.7613" y1="670.3558" y2="670.3558"/>
    <line x1="348.7613" x2="368.5018" y1="672.8472" y2="672.8472"/>
    <polygon points="360.8507,672.8472 358.9339,679.744 367.2924,679.744 365.3756,672.8472"/>
    <polygon points="358.3292,679.744 356.4124,672.8472 351.8875,672.8472 349.9707,679.744"/>
    <polyline points="342.4409,661.7318 345.105,664.7596 347.1036,668.3424 348.3419,672.3103 348.7613,676.4756 330.9272,676.4756 331.3466,672.3103 332.5849,668.3424 334.5835,664.7596 337.2476,661.7318"/>
    <polygon points="368.5018,656.2499 348.7613,656.2499 348.7613,637.9713 368.5018,637.9713"/>
    <polygon points="368.5018,637.9713 348.7613,637.9713 348.7613,623.6753 368.5018,623.6753"/>
    <polygon points="348.7613,602.9203 368.5018,602.9203 368.5018,597.6233 348.7613,597.6233 348.7613,602.9203 368.5018,602.9203 368.5018,623.6753 348.7613,623.6753"/>
    <line x1="348.7613" x2="368.5018" y1="597.6233" y2="597.6233"/>
    <line x1="368.5018" x2="348.7613" y1="594.2135" y2="594.2135"/>
    <line x1="348.7613" x2="368.5018" y1="590.8037" y2="590.8037"/>
    <line x1="368.5018" x2="348.7613" y1="587.3939" y2="587.3939"/>
    <line x1="348.7613" x2="368.5018" y1="583.9841" y2="583.9841"/>
    <line x1="368.5018" x2="348.7613" y1="580.5743" y2="580.5743"/>
    <line x1="348.7613" x2="368.5018" y1="577.1645" y2="577.1645"/>
    <polyline points="368.5018,565.4541 369.1274,563.5095 370.9474,561.7409 373.7972,560.3083 377.4189,559.3415 381.0405,560.3083 383.8903,561.7409 385.7103,563.5095 386.3359,565.4541 368.5018,565.4541 368.5018,661.7318 386.3359,661.7318 386.3359,565.4541"/>
    <line x1="365.6818" x2="365.6818" y1="564.6411" y2="547.275"/>
    <line x1="362.8617" x2="362.8617" y1="547.275" y2="564.6411"/>
    <line x1="360.0416" x2="360.0416" y1="564.6411" y2="547.275"/>
    <line x1="357.2215" x2="357.2215" y1="547.275" y2="564.6411"/>
    <line x1="354.4014" x2="354.4014" y1="564.6411" y2="547.275"/>
    <line x1="351.5814" x2="351.5814" y1="547.275" y2="564.6411"/>
    <polyline points="348.7613,564.6411 348.7613,573.7547 368.5018,573.7547 368.5018,564.6411 348.7613,564.6411 348.7613,547.275 348.7613,564.6411 368.5018,564.6411 368.5018,547.275 348.7613,547.275 351.4071,539.2011 365.856,539.2011 368.5018,547.275 348.7613,547.275"/>
    <polygon points="351.4071,539.2011 351.4071,527.1677 365.856,527.1677 365.856,539.2011"/>
    <polygon points="346.6594,526.0618 346.6594,521.3168 351.4071,521.3168 351.4071,526.0618"/>
    <polyline points="351.4071,520.2109 351.4071,527.1677 365.856,527.1677 365.856,520.2109 351.4071,520.2109 351.4071,513.327 351.4071,520.2109 365.856,520.2109 365.856,513.327 351.4071,513.327 352.4522,508.4241 364.8109,508.4241 365.856,513.327 351.4071,513.327"/>
    <line x1="355.0193" x2="355.0193" y1="513.327" y2="520.2109"/>
    <line x1="358.6316" x2="358.6316" y1="520.2109" y2="513.327"/>
    <line x1="362.2438" x2="362.2438" y1="513.327" y2="520.2109"/>
    <polygon points="370.6038,521.3168 370.6038,526.0618 365.856,526.0618 365.856,521.3168"/>
    <polygon points="364.8109,493.5262 368.2586,493.5262 368.2586,499.475 364.8109,499.475"/>
    <polyline points="364.8109,484.577 364.3935,482.7562 363.167,481.0467 361.2063,479.5533 358.6316,478.3673 356.0568,479.5533 354.0961,481.0467 352.8696,482.7562 352.4522,484.577 364.8109,484.577 364.8109,508.4241 352.4522,508.4241 352.4522,484.577"/>
    <polygon points="349.0045,493.5262 352.4522,493.5262 352.4522,499.475 349.0045,499.475"/>
    <polygon points="287.7755,493.0391 287.6306,485.9094 274.8231,485.9094 274.6782,493.0391 287.7755,493.0391 287.7755,513.9079 274.6782,513.9079 274.6782,493.0391"/>
    <polyline points="287.6306,479.7332 274.8231,479.7332 287.6306,479.7332 287.6306,485.9094 274.8231,485.9094 274.8231,479.7332"/>
    <line x1="274.8231" x2="287.6306" y1="475.9568" y2="475.9568"/>
    <line x1="287.6306" x2="274.8231" y1="472.1803" y2="472.1803"/>
    <line x1="274.8231" x2="287.6306" y1="468.4038" y2="468.4038"/>
    <polygon points="280.0776,447.7406 282.3761,447.7406 287.6306,464.6274 274.8231,464.6274 287.6306,464.6274 287.6306,479.7332 274.8231,479.7332 274.8231,464.6274"/>
    <polygon points="282.3761,442.55 282.3761,447.7406 280.0776,447.7406 280.0776,442.55"/>
    <polygon points="280.0776,436.2213 282.3761,436.2213 282.3761,442.55 280.0776,442.55"/>
    <line x1="271.7473" x2="290.7064" y1="517.3762" y2="517.3762"/>
    <line x1="290.7064" x2="271.7473" y1="520.8445" y2="520.8445"/>
    <polyline points="271.7473,524.3128 271.7473,532.0656 290.7064,532.0656 290.7064,524.3128 271.7473,524.3128 290.7064,524.3128"/>
    <polygon points="290.7064,524.3128 271.7473,524.3128 271.7473,513.9079 290.7064,513.9079"/>
    <line x1="290.7064" x2="271.7473" y1="528.1892" y2="528.1892"/>
    <line x1="271.7473" x2="290.7064" y1="532.0656" y2="532.0656"/>
    <line x1="287.8184" x2="287.8184" y1="532.0656" y2="545.074"/>
    <line x1="284.5226" x2="284.5226" y1="545.074" y2="532.0656"/>
    <line x1="281.2268" x2="281.2268" y1="532.0656" y2="545.074"/>
    <line x1="277.931" x2="277.931" y1="545.074" y2="532.0656"/>
    <line x1="274.6353" x2="274.6353" y1="532.0656" y2="545.074"/>
    <polyline points="271.3395,545.074 271.3395,532.0656 291.1142,532.0656 291.1142,545.074 271.3395,545.074 271.3395,532.0656"/>
    <polyline points="270.1614,550.576 270.1614,572.5268 292.2923,572.5268 292.2923,550.576 270.1614,550.576 271.3395,545.074 291.1142,545.074 292.2923,550.576 270.1614,550.576 270.1614,572.5268"/>
    <line x1="267.9535" x2="294.5002" y1="574.7929" y2="574.7929"/>
    <polygon points="294.5002,572.5268 294.5002,595.1873 267.9535,595.1873 267.9535,572.5268"/>
    <line x1="294.5002" x2="267.9535" y1="577.0589" y2="577.0589"/>
    <line x1="267.9535" x2="294.5002" y1="579.325" y2="579.325"/>
    <line x1="294.5002" x2="267.9535" y1="581.591" y2="581.591"/>
    <line x1="267.9535" x2="294.5002" y1="583.8571" y2="583.8571"/>
    <line x1="294.5002" x2="267.9535" y1="586.1231" y2="586.1231"/>
    <line x1="267.9535" x2="294.5002" y1="588.3892" y2="588.3892"/>
    <line x1="294.5002" x2="267.9535" y1="590.6552" y2="590.6552"/>
    <line x1="267.9535" x2="294.5002" y1="592.9212" y2="592.9212"/>
    <line x1="294.5002" x2="267.9535" y1="595.1873" y2="595.1873"/>
    <line x1="266.3214" x2="296.1323" y1="603.7828" y2="603.7828"/>
    <line x1="296.1323" x2="266.3214" y1="605.8462" y2="605.8462"/>
    <line x1="266.3214" x2="296.1323" y1="607.9096" y2="607.9096"/>
    <line x1="296.1323" x2="266.3214" y1="609.9729" y2="609.9729"/>
    <line x1="266.3214" x2="296.1323" y1="612.0363" y2="612.0363"/>
    <line x1="296.1323" x2="266.3214" y1="614.0997" y2="614.0997"/>
    <line x1="266.3214" x2="296.1323" y1="616.1631" y2="616.1631"/>
    <line x1="296.1323" x2="266.3214" y1="618.2264" y2="618.2264"/>
    <line x1="266.3214" x2="296.1323" y1="620.2898" y2="620.2898"/>
    <polyline points="296.1323,622.3532 266.3214,622.3532 296.1323,622.3532 296.1323,641.4934 266.3214,641.4934 266.3214,622.3532"/>
    <polyline points="266.3214,641.4934 266.3214,652.28 296.1323,652.28 296.1323,641.4934 266.3214,641.4934 266.3214,652.28 259.0975,652.28 266.3214,641.4934 266.3214,652.28"/>
    <polygon points="266.3214,652.28 275.2408,662.9376 287.2128,662.9376 296.1323,652.28"/>
    <line x1="268.8056" x2="268.8056" y1="652.28" y2="641.4934"/>
    <line x1="271.2899" x2="271.2899" y1="641.4934" y2="652.28"/>
    <line x1="273.7741" x2="273.7741" y1="652.28" y2="641.4934"/>
    <line x1="276.2583" x2="276.2583" y1="641.4934" y2="652.28"/>
    <line x1="278.7426" x2="278.7426" y1="652.28" y2="641.4934"/>
    <line x1="281.2268" x2="281.2268" y1="641.4934" y2="652.28"/>
    <line x1="283.7111" x2="283.7111" y1="652.28" y2="641.4934"/>
    <line x1="286.1953" x2="286.1953" y1="641.4934" y2="652.28"/>
    <line x1="288.6796" x2="288.6796" y1="652.28" y2="641.4934"/>
    <line x1="291.1638" x2="291.1638" y1="641.4934" y2="652.28"/>
    <line x1="293.6481" x2="293.6481" y1="652.28" y2="641.4934"/>
    <polygon points="296.1323,641.4934 303.3562,652.28 296.1323,652.28"/>
    <polygon points="285.4137,631.9233 284.9991,633.7399 284.1202,634.9495 282.8724,635.7732 281.4147,636.106 279.933,635.9052 278.3334,634.9495 277.3069,633.3944 277.0399,631.9233 277.3069,630.4521 278.0738,629.1686 279.5813,628.0733 281.039,627.7406 282.8724,628.0733 284.1202,628.897 284.9991,630.1067"/>
    <polygon points="287.2128,662.9376 275.2408,662.9376 264.9776,679.744 297.476,679.744"/>
    <polygon points="296.1323,601.7194 296.1323,622.3532 266.3214,622.3532 266.3214,601.7194 296.1323,601.7194 294.5002,595.1873 267.9535,595.1873 266.3214,601.7194"/>
    <line x1="288.6038" x2="288.6038" y1="572.5268" y2="550.576"/>
    <line x1="284.9153" x2="284.9153" y1="550.576" y2="572.5268"/>
    <line x1="281.2268" x2="281.2268" y1="572.5268" y2="550.576"/>
    <line x1="277.5384" x2="277.5384" y1="550.576" y2="572.5268"/>
    <line x1="273.8499" x2="273.8499" y1="572.5268" y2="550.576"/>
    <polyline points="330.9272,565.4541 330.9272,661.7318 348.7613,661.7318 348.7613,565.4541 330.9272,565.4541 331.5528,563.5095 333.3728,561.7409 336.2226,560.3083 339.8443,559.3415 343.4659,560.3083 346.3157,561.7409 348.1357,563.5095 348.7613,565.4541"/>
    <polygon points="348.7613,573.7547 368.5018,573.7547 368.5018,597.6233 348.7613,597.6233"/>
    <polygon points="424.1456,564.5622 426.7908,564.5622 426.7908,568.7889 424.1456,568.7889"/>
    <polygon points="445.2817,564.5622 447.927,564.5622 447.927,568.7889 445.2817,568.7889"/>
    <polygon points="445.2817,576.2671 426.7908,576.2671 426.7908,557.0839 445.2817,557.0839"/>
    <polygon points="439.8603,588.6872 439.8603,589.9305 432.2123,589.9305 432.2123,588.6872"/>
    <polygon points="445.5974,596.7973 426.4752,596.7973 426.4752,583.9851 445.5974,583.9851 445.2817,576.2671 426.7908,576.2671 426.4752,583.9851 445.5974,583.9851"/>
    <polygon points="445.5974,596.7973 426.4752,596.7973 424.9708,601.5651 447.1018,601.5651 447.1018,624.1512 424.9708,624.1512 424.9708,601.5651 447.1018,601.5651"/>
    <polygon points="447.1018,624.1512 447.1018,640.1821 424.9708,640.1821 424.9708,624.1512"/>
    <polygon points="501.444,640.3905 525.4381,640.3905 525.4381,647.7123 501.444,647.7123"/>
    <line x1="501.444" x2="525.4381" y1="644.0514" y2="644.0514"/>
    <polyline points="525.4381,647.7123 525.4381,640.3905 532.2004,647.2054 532.2004,648.2192 525.4381,647.7123 501.444,647.7123 494.6816,648.2192 494.6816,647.2054 501.444,640.3905 501.444,647.7123"/>
    <polygon points="516.8517,653.6306 525.4381,647.7123 501.444,647.7123 510.0303,653.6306"/>
    <polygon points="509.0919,631.3077 509.0919,632.191 517.7901,632.191 517.7901,631.3077"/>
    <polygon points="525.4381,622.8546 525.4381,640.3905 501.444,640.3905 501.444,622.8546 525.4381,622.8546 522.9786,615.5226 503.9035,615.5226 501.444,622.8546"/>
    <polygon points="503.9035,593.4972 522.9786,593.4972 522.9786,615.5226 503.9035,615.5226 503.9035,593.4972 522.9786,593.4972 520.812,585.1559 506.07,585.1559"/>
    <line x1="506.07" x2="520.812" y1="585.1559" y2="585.1559"/>
    <line x1="520.812" x2="506.07" y1="581.1953" y2="581.1953"/>
    <polygon points="506.07,577.2347 520.812,577.2347 520.812,585.1559 506.07,585.1559 506.07,577.2347 520.812,577.2347 520.7579,568.7495 506.1241,568.7495"/>
    <polyline points="506.1241,568.7495 506.1241,550.0151 520.7579,550.0151 520.7579,568.7495 506.1241,568.7495 506.1241,550.0151"/>
    <polygon points="506.1241,550.0151 506.1241,534.8868 520.7579,534.8868 520.7579,550.0151"/>
    <line x1="509.7826" x2="509.7826" y1="550.0151" y2="568.7495"/>
    <line x1="513.441" x2="513.441" y1="568.7495" y2="550.0151"/>
    <line x1="517.0994" x2="517.0994" y1="550.0151" y2="568.7495"/>
    <polygon points="506.1241,521.8168 520.7579,521.8168 518.6058,515.3234 508.2762,515.3234 506.1241,521.8168 520.7579,521.8168 520.7579,534.8868 506.1241,534.8868"/>
    <polyline points="508.2762,515.3234 508.2762,491.3454 518.6058,491.3454 518.6058,515.3234 508.2762,515.3234 508.2762,491.3454"/>
    <line x1="510.8586" x2="510.8586" y1="491.3454" y2="515.3234"/>
    <line x1="513.441" x2="513.441" y1="515.3234" y2="491.3454"/>
    <line x1="516.0234" x2="516.0234" y1="491.3454" y2="515.3234"/>
    <polygon points="521.1023,490.0589 518.6058,490.0589 518.6058,481.2662 521.1023,481.2662"/>
    <polygon points="518.6058,479.9797 518.6058,491.3454 508.2762,491.3454 508.2762,479.9797"/>
    <polygon points="513.441,478.3133 514.2742,479.9797 512.6078,479.9797"/>
    <polygon points="505.7797,481.2662 508.2762,481.2662 508.2762,490.0589 505.7797,490.0589"/>
    <polygon points="508.2762,464.7188 518.6058,464.7188 518.6058,479.9797 508.2762,479.9797 508.2762,464.7188 518.6058,464.7188 518.4517,458.7309 508.4303,458.7309"/>
    <polyline points="508.4303,458.7309 508.4303,443.1455 508.4303,458.7309 518.4517,458.7309 518.4517,443.1455 508.4303,443.1455 508.6082,441.8383 509.3131,440.3208 510.4916,439.0615 511.7043,438.3186 513.441,437.7917 514.5051,438.0512 516.1067,438.8514 517.3682,440.0442 518.1745,441.5205 518.4517,443.1455"/>
    <line x1="515.9463" x2="515.9463" y1="443.1455" y2="458.7309"/>
    <line x1="513.441" x2="513.441" y1="458.7309" y2="443.1455"/>
    <line x1="510.9357" x2="510.9357" y1="443.1455" y2="458.7309"/>
    <polygon points="437.5235,475.8335 437.5235,480.3706 434.5491,480.3706 434.5491,475.8335"/>
    <polygon points="434.5491,475.8335 434.5491,472.3285 437.5235,472.3285 437.5235,475.8335"/>
    <polygon points="434.5491,480.3706 437.5235,480.3706 445.2817,509.2962 426.7908,509.2962 445.2817,509.2962 445.2817,525.79 426.7908,525.79 426.7908,509.2962"/>
    <polygon points="426.7908,536.1436 445.2817,536.1436 445.2817,557.0839 426.7908,557.0839"/>
    <polygon points="445.2817,536.1436 426.7908,536.1436 426.7908,525.79 445.2817,525.79"/>
    <polyline points="582.96,534.5284 582.96,557.4591 598.7315,557.4591 598.7315,534.5284 582.96,534.5284 582.96,557.4591"/>
    <line x1="586.9028" x2="586.9028" y1="557.4591" y2="534.5284"/>
    <line x1="590.8457" x2="590.8457" y1="534.5284" y2="557.4591"/>
    <line x1="594.7886" x2="594.7886" y1="557.4591" y2="534.5284"/>
    <polygon points="590.8457,531.6218 592.299,534.5284 589.3924,534.5284"/>
    <polygon points="582.96,521.0175 598.7315,521.0175 596.7906,516.7729 584.9009,516.7729 582.96,521.0175 598.7315,521.0175 598.7315,534.5284 582.96,534.5284"/>
    <polygon points="580.8164,502.921 584.9009,502.921 584.9009,507.5815 580.8164,507.5815"/>
    <polyline points="584.9009,493.7296 584.9009,516.7729 596.7906,516.7729 596.7906,493.7296 584.9009,493.7296 585.2967,491.7823 586.3656,490.0124 588.2476,488.1883 590.8457,486.4891 593.4439,488.1883 595.2161,489.8789 596.3947,491.7823 596.7906,493.7296"/>
    <polygon points="600.875,507.5815 596.7906,507.5815 596.7906,502.921 600.875,502.921"/>
    <polygon points="580.3771,563.8945 601.3143,563.8945 598.7315,557.4591 582.96,557.4591 580.3771,563.8945 601.3143,563.8945 601.3143,581.8982 580.3771,581.8982"/>
    <polygon points="577.7302,586.758 603.9613,586.758 601.3143,581.8982 580.3771,581.8982 577.7302,586.758 603.9613,586.758 603.9613,604.8633 577.7302,604.8633"/>
    <polygon points="588.7924,593.9535 589.6803,593.2992 590.7532,593.0436 591.8408,593.227 592.7705,593.8205 593.3947,594.7298 593.6144,595.8106 593.3947,596.8915 592.7705,597.8008 591.1229,598.5654 590.0254,598.455 589.0582,597.9249 588.3747,597.0593 588.0833,595.9956 588.2303,594.9025"/>
    <polygon points="593.1189,626.4978 588.5725,626.4978 590.8457,621.9514"/>
    <polygon points="590.8457,632.1531 595.467,641.3956 586.2244,641.3956"/>
    <line x1="592.0579" x2="592.0579" y1="641.3956" y2="652.4627"/>
    <line x1="589.6336" x2="589.6336" y1="652.4627" y2="641.3956"/>
    <line x1="587.2093" x2="587.2093" y1="641.3956" y2="652.4627"/>
    <line x1="584.785" x2="584.785" y1="652.4627" y2="641.3956"/>
    <line x1="582.3608" x2="582.3608" y1="641.3956" y2="652.4627"/>
    <line x1="579.9365" x2="579.9365" y1="652.4627" y2="641.3956"/>
    <line x1="577.5122" x2="577.5122" y1="641.3956" y2="652.4627"/>
    <polyline points="575.088,652.4627 575.088,666.0937 606.6035,666.0937 606.6035,652.4627 575.088,652.4627 575.088,641.3956 575.088,652.4627 606.6035,652.4627 606.6035,641.3956 575.088,641.3956"/>
    <polygon points="575.088,641.3956 575.088,632.3709 606.6035,632.3709 603.9613,626.4978 577.7302,626.4978 575.088,632.3709 606.6035,632.3709 606.6035,641.3956"/>
    <polygon points="577.7302,626.4978 577.7302,604.8633 603.9613,604.8633 603.9613,626.4978"/>
    <line x1="594.4821" x2="594.4821" y1="641.3956" y2="652.4627"/>
    <line x1="596.9064" x2="596.9064" y1="652.4627" y2="641.3956"/>
    <line x1="599.3307" x2="599.3307" y1="641.3956" y2="652.4627"/>
    <line x1="601.755" x2="601.755" y1="652.4627" y2="641.3956"/>
    <line x1="604.1792" x2="604.1792" y1="641.3956" y2="652.4627"/>
    <polygon points="606.6035,666.0937 606.6035,652.4627 613.9537,666.0937"/>
    <polygon points="586.7568,666.0937 576.2974,679.744 605.3941,679.744 594.9346,666.0937"/>
    <polygon points="575.088,666.0937 575.088,652.4627 567.7378,666.0937"/>
    <polygon points="524.071,679.744 516.8517,653.6306 510.0303,653.6306 502.811,679.744"/>
    <polygon points="214.7033,628.5413 213.788,624.3635 193.8562,624.3635 192.9409,628.5413 214.7033,628.5413 214.7033,643.3375 192.9409,643.3375 192.9409,628.5413"/>
    <line x1="213.788" x2="193.8562" y1="624.3635" y2="624.3635"/>
    <line x1="193.8562" x2="213.788" y1="621.0062" y2="621.0062"/>
    <line x1="213.788" x2="193.8562" y1="617.6488" y2="617.6488"/>
    <line x1="193.8562" x2="213.788" y1="614.2914" y2="614.2914"/>
    <line x1="213.788" x2="193.8562" y1="610.934" y2="610.934"/>
    <polygon points="193.8562,607.5766 213.788,607.5766 212.1907,603.6445 195.4536,603.6445 193.8562,607.5766 213.788,607.5766 213.788,624.3635 193.8562,624.3635"/>
    <polyline points="195.4536,584.5777 195.4536,603.6445 212.1907,603.6445 212.1907,584.5777 195.4536,584.5777 212.1907,584.5777"/>
    <line x1="212.1907" x2="195.4536" y1="580.2443" y2="580.2443"/>
    <polyline points="195.4536,575.9109 195.4536,584.5777 212.1907,584.5777 212.1907,575.9109 195.4536,575.9109 212.1907,575.9109"/>
    <line x1="212.1907" x2="195.4536" y1="572.488" y2="572.488"/>
    <line x1="195.4536" x2="212.1907" y1="569.0652" y2="569.0652"/>
    <polygon points="212.1907,565.6423 212.1907,575.9109 195.4536,575.9109 195.4536,565.6423 212.1907,565.6423 211.2786,560.8498 196.3656,560.8498 195.4536,565.6423"/>
    <line x1="211.2786" x2="196.3656" y1="560.8498" y2="560.8498"/>
    <line x1="196.3656" x2="211.2786" y1="556.8645" y2="556.8645"/>
    <line x1="211.2786" x2="196.3656" y1="552.8792" y2="552.8792"/>
    <line x1="196.3656" x2="211.2786" y1="548.8938" y2="548.8938"/>
    <line x1="211.2786" x2="196.3656" y1="544.9085" y2="544.9085"/>
    <line x1="196.3656" x2="211.2786" y1="540.9232" y2="540.9232"/>
    <line x1="206.8209" x2="206.8209" y1="527.3363" y2="505.5859"/>
    <line x1="203.8221" x2="203.8221" y1="505.5859" y2="527.3363"/>
    <line x1="200.8234" x2="200.8234" y1="527.3363" y2="505.5859"/>
    <polyline points="209.8196,505.5859 209.3943,504.5868 208.2695,503.7017 203.8221,502.064 199.9518,503.3926 198.014,504.9176 197.8246,505.5859 209.8196,505.5859 209.8196,527.3363 197.8246,527.3363 197.8246,505.5859 197.8246,527.3363"/>
    <polygon points="197.8246,527.3363 196.3656,536.9379 211.2786,536.9379 211.2786,560.8498 196.3656,560.8498 196.3656,536.9379 211.2786,536.9379 209.8196,527.3363"/>
    <polygon points="207.0038,632.7765 207.0038,634.3834 200.6404,634.3834 200.6404,632.7765"/>
    <polygon points="192.9409,643.3375 190.5682,650.4242 217.076,650.4242 217.076,656.6902 190.5682,656.6902 190.5682,650.4242 217.076,650.4242 214.7033,643.3375"/>
    <polygon points="190.5682,656.6902 217.076,656.6902 217.076,672.4612 190.5682,672.4612"/>
    <polygon points="203.8221,653.9854 203.3939,653.5572 203.8221,653.129 204.2503,653.5572"/>
    <polygon points="208.3922,672.4612 204.1245,679.744 215.8666,679.744 211.5989,672.4612"/>
    <polygon points="191.7776,679.744 203.5197,679.744 199.252,672.4612 196.0454,672.4612"/>
    <polygon points="187.5665,353.1928 220.0777,353.1928 213.5096,344.2911 194.1346,344.2911"/>
    <polygon points="186.3571,344.2911 186.3571,332.6014 177.7784,343.7066 177.7784,344.2911"/>
    <polygon points="186.3571,344.2911 186.3571,332.6014 221.2871,332.6014 221.2871,344.2911"/>
    <polygon points="186.3571,313.2547 186.3571,294.0106 221.2871,294.0106 221.2871,313.2547"/>
    <polygon points="186.3571,294.0106 186.3571,280.756 221.2871,280.756 219.5848,274.2025 188.0594,274.2025 186.3571,280.756 221.2871,280.756 221.2871,294.0106"/>
    <polygon points="186.3571,289.8012 183.2979,289.8012 183.2979,284.9653 186.3571,284.9653"/>
    <line x1="188.0594" x2="219.5848" y1="274.2025" y2="274.2025"/>
    <line x1="219.5848" x2="188.0594" y1="270.7822" y2="270.7822"/>
    <line x1="188.0594" x2="219.5848" y1="267.3618" y2="267.3618"/>
    <line x1="219.5848" x2="188.0594" y1="263.9415" y2="263.9415"/>
    <polygon points="189.2679,252.7935 188.0594,260.5212 219.5848,260.5212 219.5848,274.2025 188.0594,274.2025 188.0594,260.5212 219.5848,260.5212 218.3764,252.7935"/>
    <polyline points="189.2679,244.2387 189.2679,252.7935 218.3764,252.7935 218.3764,244.2387 189.2679,244.2387 218.3764,244.2387"/>
    <polygon points="218.3764,244.2387 189.2679,244.2387 189.2679,232.0265 218.3764,232.0265"/>
    <line x1="218.3764" x2="189.2679" y1="240.168" y2="240.168"/>
    <line x1="189.2679" x2="218.3764" y1="236.0973" y2="236.0973"/>
    <polygon points="209.7114,250.3024 209.7114,248.9155 197.9328,248.9155 197.9328,250.3024"/>
    <polygon points="189.934,225.4271 185.2396,225.4271 185.2396,215.8348 189.934,215.8348"/>
    <polygon points="189.934,209.2354 217.7102,209.2354 217.7102,232.0265 189.934,232.0265"/>
    <line x1="191.371" x2="216.2732" y1="209.2354" y2="209.2354"/>
    <line x1="216.2732" x2="191.371" y1="205.6259" y2="205.6259"/>
    <line x1="191.371" x2="216.2732" y1="202.0164" y2="202.0164"/>
    <line x1="216.2732" x2="191.371" y1="198.407" y2="198.407"/>
    <polygon points="192.0001,186.7905 191.371,194.7975 216.2732,194.7975 216.2732,209.2354 191.371,209.2354 191.371,194.7975 216.2732,194.7975 215.6441,186.7905"/>
    <polygon points="192.0001,180.34 215.6441,180.34 215.6441,186.7905 192.0001,186.7905 192.0001,180.34 215.6441,180.34 214.3163,175.809 193.3279,175.809"/>
    <polyline points="193.3279,175.809 193.3279,169.1027 201.9258,143.5411 205.7184,143.5411 214.3163,169.1027 193.3279,169.1027 214.3163,169.1027 214.3163,175.809 193.3279,175.809 193.3279,169.1027"/>
    <line x1="195.4267" x2="195.4267" y1="169.1027" y2="175.809"/>
    <line x1="197.5256" x2="197.5256" y1="175.809" y2="169.1027"/>
    <line x1="199.6244" x2="199.6244" y1="169.1027" y2="175.809"/>
    <line x1="201.7233" x2="201.7233" y1="175.809" y2="169.1027"/>
    <line x1="203.8221" x2="203.8221" y1="169.1027" y2="175.809"/>
    <line x1="205.921" x2="205.921" y1="175.809" y2="169.1027"/>
    <line x1="208.0198" x2="208.0198" y1="169.1027" y2="175.809"/>
    <line x1="210.1186" x2="210.1186" y1="175.809" y2="169.1027"/>
    <line x1="212.2175" x2="212.2175" y1="169.1027" y2="175.809"/>
    <polygon points="205.7184,143.5411 201.9258,143.5411 201.9258,137.4901 205.7184,137.4901"/>
    <polygon points="205.7184,137.4901 201.9258,137.4901 201.9258,133.7649 205.7184,133.7649"/>
    <polygon points="201.9258,129.7614 205.7184,129.7614 205.7184,133.7649 201.9258,133.7649"/>
    <polygon points="205.7184,123.0734 205.7184,129.7614 201.9258,129.7614 201.9258,123.0734"/>
    <polyline points="270.615,174.4515 270.615,188.474 291.8386,188.474 291.8386,174.4515 270.615,174.4515 271.3151,168.9243 272.2447,166.1444 273.5338,163.5721 275.1505,161.2716 277.0541,159.3004 278.918,157.8848 281.2268,156.6564 283.5357,157.8848 285.6517,159.5271 288.9198,163.5721 290.209,166.1444 291.1386,168.9243 291.8386,174.4515"/>
    <polygon points="281.2268,195.0823 282.9967,198.6221 279.4569,198.6221"/>
    <polygon points="270.615,198.6221 270.615,188.474 291.8386,188.474 291.8386,198.6221"/>
    <polygon points="268.21,223.8631 268.21,204.3747 294.2437,204.3747 291.8386,198.6221 270.615,198.6221 268.21,204.3747 294.2437,204.3747 294.2437,223.8631"/>
    <polygon points="267.6352,231.4834 294.8184,231.4834 294.8184,242.8328 267.6352,242.8328 267.6352,231.4834 294.8184,231.4834 294.2437,223.8631 268.21,223.8631"/>
    <polyline points="267.6352,242.8328 267.6352,260.5038 294.8184,260.5038 294.8184,242.8328 267.6352,242.8328 267.6352,260.5038"/>
    <line x1="270.3536" x2="270.3536" y1="260.5038" y2="242.8328"/>
    <line x1="273.0719" x2="273.0719" y1="242.8328" y2="260.5038"/>
    <line x1="275.7902" x2="275.7902" y1="260.5038" y2="242.8328"/>
    <line x1="278.5085" x2="278.5085" y1="242.8328" y2="260.5038"/>
    <line x1="281.2268" x2="281.2268" y1="260.5038" y2="242.8328"/>
    <line x1="283.9452" x2="283.9452" y1="242.8328" y2="260.5038"/>
    <line x1="286.6635" x2="286.6635" y1="260.5038" y2="242.8328"/>
    <line x1="289.3818" x2="289.3818" y1="242.8328" y2="260.5038"/>
    <line x1="292.1001" x2="292.1001" y1="260.5038" y2="242.8328"/>
    <polygon points="294.8184,266.7148 294.8184,260.5038 267.6352,260.5038 267.6352,266.7148 294.8184,266.7148 294.8184,273.2365 267.6352,273.2365 267.6352,266.7148"/>
    <line x1="294.8184" x2="267.6352" y1="275.8869" y2="275.8869"/>
    <line x1="267.6352" x2="294.8184" y1="278.5374" y2="278.5374"/>
    <line x1="294.8184" x2="267.6352" y1="281.1879" y2="281.1879"/>
    <line x1="267.6352" x2="294.8184" y1="283.8384" y2="283.8384"/>
    <polyline points="294.8184,286.4888 267.6352,286.4888 294.8184,286.4888 294.8184,309.5016 267.6352,309.5016 267.6352,286.4888"/>
    <polygon points="267.6352,273.2365 294.8184,273.2365 294.8184,286.4888 267.6352,286.4888"/>
    <polygon points="224.3463,284.9653 224.3463,289.8012 221.2871,289.8012 221.2871,284.9653"/>
    <polygon points="221.2871,332.6014 229.8659,343.7066 229.8659,344.2911 221.2871,344.2911"/>
    <polygon points="221.2871,332.6014 186.3571,332.6014 186.3571,313.2547 221.2871,313.2547"/>
    <polyline points="258.1453,336.3631 255.9042,339.655 254.2945,343.0032 253.325,346.3892 253.0013,349.7941 267.6352,349.7941 267.3115,346.3892 266.342,343.0032 264.7323,339.655 262.4912,336.3631"/>
    <polygon points="267.6352,336.3631 253.0013,336.3631 253.0013,231.5553 267.6352,208.8112 267.6352,231.5553 253.0013,231.5553 267.6352,231.5553"/>
    <line x1="267.6352" x2="294.8184" y1="336.6651" y2="336.6651"/>
    <line x1="294.8184" x2="267.6352" y1="334.765" y2="334.765"/>
    <line x1="267.6352" x2="294.8184" y1="332.8649" y2="332.8649"/>
    <line x1="294.8184" x2="267.6352" y1="330.9647" y2="330.9647"/>
    <line x1="267.6352" x2="294.8184" y1="329.0646" y2="329.0646"/>
    <polygon points="294.8184,323.5009 267.6352,323.5009 267.6352,309.5016 294.8184,309.5016"/>
    <polyline points="299.9625,336.3631 297.7214,339.655 296.1116,343.0032 295.1422,346.3892 294.8184,349.7941 309.4524,349.7941 309.1286,346.3892 308.1592,343.0032 306.5495,339.655 304.3084,336.3631"/>
    <polygon points="309.4524,336.3631 309.4524,231.5553 294.8184,208.8112 294.8184,231.5553 309.4524,231.5553 294.8184,231.5553 294.8184,336.3631"/>
    <line x1="294.8184" x2="267.6352" y1="338.5652" y2="338.5652"/>
    <line x1="267.6352" x2="294.8184" y1="340.4654" y2="340.4654"/>
    <line x1="294.8184" x2="267.6352" y1="342.3655" y2="342.3655"/>
    <line x1="267.6352" x2="294.8184" y1="344.2656" y2="344.2656"/>
    <line x1="294.8184" x2="267.6352" y1="346.1658" y2="346.1658"/>
    <polygon points="270.4689,346.1658 268.8447,353.1928 276.6963,353.1928 275.0721,346.1658"/>
    <polygon points="277.301,353.1928 285.1526,353.1928 283.5285,346.1658 278.9252,346.1658"/>
    <polygon points="293.609,353.1928 291.9848,346.1658 287.3815,346.1658 285.7574,353.1928"/>
    <polygon points="267.6352,327.1645 294.8184,327.1645 294.8184,346.1658 267.6352,346.1658 267.6352,327.1645 294.8184,327.1645 294.8184,323.5009 267.6352,323.5009"/>
    <polyline points="345.499,327.0557 371.7641,327.0557 371.7641,337.5853 345.499,337.5853 345.499,327.0557 371.7641,327.0557 369.4228,319.4592 347.8403,319.4592 345.499,327.0557 345.499,337.5853 371.7641,337.5853 371.7641,350.4072 345.499,350.4072 345.499,337.5853"/>
    <polygon points="345.499,337.5853 336.7091,348.3106 336.7091,352.5039 345.499,350.4072"/>
    <line x1="347.8867" x2="347.8867" y1="337.5853" y2="327.0557"/>
    <line x1="350.2745" x2="350.2745" y1="327.0557" y2="337.5853"/>
    <line x1="352.6622" x2="352.6622" y1="337.5853" y2="327.0557"/>
    <line x1="355.0499" x2="355.0499" y1="327.0557" y2="337.5853"/>
    <line x1="357.4377" x2="357.4377" y1="337.5853" y2="327.0557"/>
    <line x1="359.8254" x2="359.8254" y1="327.0557" y2="337.5853"/>
    <line x1="362.2132" x2="362.2132" y1="337.5853" y2="327.0557"/>
    <line x1="364.6009" x2="364.6009" y1="327.0557" y2="337.5853"/>
    <line x1="366.9887" x2="366.9887" y1="337.5853" y2="327.0557"/>
    <line x1="369.3764" x2="369.3764" y1="327.0557" y2="337.5853"/>
    <polygon points="369.0093,350.4072 367.8146,350.4072 366.2692,353.1928 370.5547,353.1928"/>
    <polygon points="365.6645,353.1928 364.1191,350.4072 362.9244,350.4072 361.379,353.1928"/>
    <polygon points="359.2289,350.4072 358.0342,350.4072 356.4888,353.1928 360.7743,353.1928"/>
    <polygon points="353.144,350.4072 351.5986,353.1928 355.8841,353.1928 354.3387,350.4072"/>
    <polygon points="348.2538,350.4072 346.7084,353.1928 350.9939,353.1928 349.4485,350.4072"/>
    <polyline points="347.8403,319.4592 347.8403,310.94 369.4228,310.94 369.1485,306.6498 348.1146,306.6498 347.8403,310.94 369.4228,310.94 369.4228,319.4592 347.8403,319.4592 347.8403,310.94"/>
    <line x1="349.8023" x2="349.8023" y1="310.94" y2="319.4592"/>
    <line x1="351.7644" x2="351.7644" y1="319.4592" y2="310.94"/>
    <line x1="353.7264" x2="353.7264" y1="310.94" y2="319.4592"/>
    <line x1="355.6885" x2="355.6885" y1="319.4592" y2="310.94"/>
    <line x1="357.6505" x2="357.6505" y1="310.94" y2="319.4592"/>
    <line x1="359.6126" x2="359.6126" y1="319.4592" y2="310.94"/>
    <line x1="361.5746" x2="361.5746" y1="310.94" y2="319.4592"/>
    <line x1="363.5367" x2="363.5367" y1="319.4592" y2="310.94"/>
    <line x1="365.4987" x2="365.4987" y1="310.94" y2="319.4592"/>
    <line x1="367.4608" x2="367.4608" y1="319.4592" y2="310.94"/>
    <line x1="365.6429" x2="365.6429" y1="306.6498" y2="293.8225"/>
    <line x1="362.1372" x2="362.1372" y1="293.8225" y2="306.6498"/>
    <line x1="358.6316" x2="358.6316" y1="306.6498" y2="293.8225"/>
    <line x1="355.1259" x2="355.1259" y1="293.8225" y2="306.6498"/>
    <line x1="351.6202" x2="351.6202" y1="306.6498" y2="293.8225"/>
    <line x1="348.1146" x2="369.1485" y1="291.2352" y2="291.2352"/>
    <line x1="369.1485" x2="348.1146" y1="288.6479" y2="288.6479"/>
    <line x1="348.1146" x2="369.1485" y1="286.0605" y2="286.0605"/>
    <line x1="369.1485" x2="348.1146" y1="283.4732" y2="283.4732"/>
    <line x1="348.1146" x2="369.1485" y1="280.8858" y2="280.8858"/>
    <line x1="369.1485" x2="348.1146" y1="278.2985" y2="278.2985"/>
    <polygon points="345.49,267.7198 348.1146,267.7198 348.1146,274.3027 345.49,274.3027"/>
    <polyline points="348.1146,266.3113 348.1146,275.7111 369.1485,275.7111 369.1485,266.3113 348.1146,266.3113 369.1485,266.3113"/>
    <line x1="369.1485" x2="348.1146" y1="262.4226" y2="262.4226"/>
    <line x1="348.1146" x2="369.1485" y1="258.5339" y2="258.5339"/>
    <polygon points="369.1485,274.3027 369.1485,267.7198 371.7731,267.7198 371.7731,274.3027"/>
    <polygon points="369.1485,275.7111 369.1485,293.8225 348.1146,293.8225 348.1146,275.7111"/>
    <polyline points="369.1485,293.8225 348.1146,293.8225 369.1485,293.8225 369.1485,306.6498 348.1146,306.6498 348.1146,293.8225 348.1146,306.6498"/>
    <polygon points="348.1146,254.6451 369.1485,254.6451 367.8699,249.3166 349.3932,249.3166 348.1146,254.6451 369.1485,254.6451 369.1485,266.3113 348.1146,266.3113"/>
    <polygon points="347.2856,237.0209 349.3932,237.0209 349.3932,242.1815 347.2856,242.1815"/>
    <polygon points="351.4999,222.639 351.4999,209.506 365.7632,209.506 365.7632,222.639"/>
    <polygon points="361.2775,213.7702 355.9856,213.7702 355.9856,218.5957 361.2775,218.5957"/>
    <polygon points="349.774,207.3644 349.774,199.1192 351.4999,199.1192 351.4999,207.3644"/>
    <polygon points="367.4891,199.1192 367.4891,207.3644 365.7632,207.3644 365.7632,199.1192"/>
    <polygon points="358.6316,185.4933 365.7632,196.9775 351.4999,196.9775 365.7632,196.9775 365.7632,209.506 351.4999,209.506 351.4999,196.9775"/>
    <polygon points="367.8699,229.8858 365.7632,222.639 351.4999,222.639 349.3932,229.8858 367.8699,229.8858 367.8699,249.3166 349.3932,249.3166 349.3932,229.8858"/>
    <polygon points="369.9775,237.0209 369.9775,242.1815 367.8699,242.1815 367.8699,237.0209"/>
    <line x1="422.5937" x2="422.5937" y1="238.2276" y2="221.5735"/>
    <line x1="423.0368" x2="423.0368" y1="221.5735" y2="209.2457"/>
    <polyline points="420.6733,209.2457 451.3993,209.2457 451.3993,221.5735 420.6733,221.5735 420.6733,209.2457 420.6733,238.2276 451.3993,238.2276 451.3993,252.4243 420.6733,252.4243 420.6733,238.2276 420.6733,252.4243"/>
    <line x1="423.4666" x2="423.4666" y1="252.4243" y2="238.2276"/>
    <line x1="424.514" x2="424.514" y1="238.2276" y2="221.5735"/>
    <line x1="425.4004" x2="425.4004" y1="221.5735" y2="209.2457"/>
    <line x1="427.7639" x2="427.7639" y1="209.2457" y2="221.5735"/>
    <line x1="428.3548" x2="428.3548" y1="221.5735" y2="238.2276"/>
    <line x1="429.0531" x2="429.0531" y1="238.2276" y2="252.4243"/>
    <line x1="431.8464" x2="431.8464" y1="252.4243" y2="238.2276"/>
    <line x1="432.1955" x2="432.1955" y1="238.2276" y2="221.5735"/>
    <line x1="432.491" x2="432.491" y1="221.5735" y2="209.2457"/>
    <line x1="434.8545" x2="434.8545" y1="209.2457" y2="221.5735"/>
    <line x1="434.1159" x2="434.1159" y1="221.5735" y2="238.2276"/>
    <line x1="434.6396" x2="434.6396" y1="238.2276" y2="252.4243"/>
    <line x1="437.4329" x2="437.4329" y1="252.4243" y2="238.2276"/>
    <line x1="437.9567" x2="437.9567" y1="238.2276" y2="221.5735"/>
    <line x1="437.218" x2="437.218" y1="221.5735" y2="209.2457"/>
    <line x1="439.5816" x2="439.5816" y1="209.2457" y2="221.5735"/>
    <line x1="439.877" x2="439.877" y1="221.5735" y2="238.2276"/>
    <line x1="440.2262" x2="440.2262" y1="238.2276" y2="252.4243"/>
    <line x1="443.0195" x2="443.0195" y1="252.4243" y2="238.2276"/>
    <line x1="443.7178" x2="443.7178" y1="238.2276" y2="221.5735"/>
    <line x1="444.3087" x2="444.3087" y1="221.5735" y2="209.2457"/>
    <line x1="441.9451" x2="441.7974" y1="209.2457" y2="238.2276"/>
    <line x1="436.0363" x2="436.0363" y1="238.2276" y2="221.5735"/>
    <line x1="445.6381" x2="445.8127" y1="221.5735" y2="252.4243"/>
    <line x1="448.606" x2="448.606" y1="252.4243" y2="238.2276"/>
    <line x1="449.4789" x2="449.4789" y1="238.2276" y2="221.5735"/>
    <line x1="449.0357" x2="449.0357" y1="221.5735" y2="209.2457"/>
    <line x1="446.6722" x2="446.6722" y1="209.2457" y2="221.5735"/>
    <line x1="447.5585" x2="447.5585" y1="221.5735" y2="238.2276"/>
    <polygon points="451.3993,221.5735 451.3993,238.2276 420.6733,238.2276 420.6733,221.5735"/>
    <polygon points="440.1054,200.4029 440.1054,203.3083 431.9672,203.3083 431.9672,200.4029"/>
    <polygon points="451.3993,196.063 451.3993,209.2457 420.6733,209.2457 420.6733,196.063"/>
    <line x1="430.1274" x2="430.2752" y1="209.2457" y2="238.2276"/>
    <line x1="426.2598" x2="426.4344" y1="252.4243" y2="221.5735"/>
    <polygon points="420.6733,186.0834 451.3993,186.0834 448.927,181.9568 423.1455,181.9568 420.6733,186.0834 451.3993,186.0834 451.3993,196.063 420.6733,196.063"/>
    <polygon points="438.6922,173.9063 438.069,174.839 437.1364,175.4621 436.0363,175.681 434.9362,175.4621 434.0035,174.839 433.3804,173.9063 433.1615,172.8062 433.3804,171.7061 434.0035,170.7735 434.9362,170.1503 436.0363,169.9315 437.1364,170.1503 438.069,170.7735 438.6922,171.7061 438.911,172.8062"/>
    <polygon points="423.1455,163.6556 448.927,163.6556 448.927,181.9568 423.1455,181.9568 423.1455,163.6556 434.1331,127.7412 437.9395,127.7412 448.927,163.6556"/>
    <polygon points="437.9395,127.7412 434.1331,127.7412 434.1331,121.3971 437.9395,121.3971"/>
    <polygon points="437.9395,121.3971 434.1331,121.3971 434.1331,116.2245 437.9395,116.2245"/>
    <polyline points="504.3851,210.8716 504.3851,226.6249 522.4969,226.6249 522.4969,210.8716 504.3851,210.8716 504.9993,206.491 506.8023,202.3927 509.678,198.8408 513.441,196.0643 517.204,198.8408 520.0797,202.3927 521.8827,206.491 522.4969,210.8716"/>
    <polygon points="517.424,220.2511 517.424,221.3239 509.458,221.3239 509.458,220.2511"/>
    <polygon points="522.4969,226.6249 522.4969,248.2064 504.3851,248.2064 504.3851,226.6249"/>
    <polygon points="522.4969,248.2064 522.4969,259.1424 504.3851,259.1424 504.3851,248.2064"/>
    <polygon points="508.2601,251.1031 518.6219,251.1031 518.6219,251.3224 508.2601,251.3224"/>
    <polygon points="504.3851,259.1424 503.8423,267.9891 523.0397,267.9891 523.0397,276.4728 503.8423,276.4728 503.8423,267.9891 523.0397,267.9891 522.4969,259.1424"/>
    <polygon points="514.1937,272.9171 513.535,273.2451 512.8272,273.0438 512.4399,272.4181 512.5751,271.6948 513.1623,271.2514 513.895,271.3193 514.4595,272.231"/>
    <polygon points="502.309,277.6792 503.8423,277.6792 503.8423,283.9761 502.309,283.9761"/>
    <polygon points="513.3476,289.7068 514.8162,289.936 516.3926,290.9092 517.2556,292.1194 517.6621,293.9268 517.4004,295.39 516.6477,296.6717 515.4974,297.6131 513.721,298.1386 511.8906,297.8528 510.6258,297.072 509.7101,295.9012 509.2241,294.1135 509.4208,292.6402 510.3589,291.0427 511.8906,290.0008"/>
    <polygon points="523.0397,285.1825 503.8423,285.1825 503.8423,276.4728 523.0397,276.4728"/>
    <polygon points="524.573,283.9761 523.0397,283.9761 523.0397,277.6792 524.573,277.6792"/>
    <polygon points="503.8423,302.6711 523.0397,302.6711 523.0397,316.3232 503.8423,316.3232"/>
    <polygon points="503.8423,302.6711 503.8423,285.1825 523.0397,285.1825 523.0397,302.6711"/>
    <polygon points="516.7334,312.2725 516.7334,308.5587 510.1486,308.5587 510.1486,312.2725"/>
    <polygon points="524.8459,324.6851 524.8459,332.0918 502.0361,332.0918 502.0361,324.6851 524.8459,324.6851 523.0397,316.3232 503.8423,316.3232 502.0361,324.6851"/>
    <polygon points="524.8459,332.0918 524.8459,345.4423 502.0361,345.4423 502.0361,332.0918"/>
    <line x1="524.8459" x2="502.0361" y1="334.3169" y2="334.3169"/>
    <line x1="502.0361" x2="524.8459" y1="336.542" y2="336.542"/>
    <line x1="524.8459" x2="502.0361" y1="338.7671" y2="338.7671"/>
    <line x1="502.0361" x2="524.8459" y1="340.9921" y2="340.9921"/>
    <line x1="524.8459" x2="502.0361" y1="343.2172" y2="343.2172"/>
    <polyline points="502.0361,345.4423 502.0361,332.0918 495.2382,343.6695 495.2382,345.4423 531.6438,345.4423 531.6438,343.6695 524.8459,332.0918 524.8459,345.4423"/>
    <polygon points="523.6364,353.1928 520.7961,345.4423 516.5837,345.4423 513.7434,353.1928"/>
    <polygon points="503.2456,353.1928 513.1386,353.1928 510.2983,345.4423 506.0859,345.4423"/>
    <polygon points="443.1896,325.0192 428.8829,325.0192 420.2942,353.1928 451.7784,353.1928"/>
    <polygon points="428.8829,325.0192 443.1896,325.0192 452.6944,317.411 419.3782,317.411"/>
    <polygon points="419.3782,317.411 419.3782,295.5001 452.6944,295.5001 452.6944,317.411"/>
    <polygon points="416.8919,285.9779 419.3782,285.9779 419.3782,294.6013 416.8919,294.6013"/>
    <polygon points="419.3782,285.0791 419.3782,270.1123 452.6944,270.1123 452.6944,285.0791"/>
    <polygon points="419.3782,279.7381 415.1713,279.7381 415.1713,275.4532 419.3782,275.4532"/>
    <polygon points="415.364,269.5575 415.364,260.4399 419.3782,260.4399 419.3782,269.5575"/>
    <polygon points="419.3782,259.8851 452.6944,259.8851 451.3993,252.4243 420.6733,252.4243 419.3782,259.8851 452.6944,259.8851 452.6944,270.1123 419.3782,270.1123"/>
    <polygon points="452.6944,275.4532 456.9012,275.4532 456.9012,279.7381 452.6944,279.7381"/>
    <polygon points="456.7085,269.5575 452.6944,269.5575 452.6944,260.4399 456.7085,260.4399"/>
    <polygon points="455.1806,294.6013 452.6944,294.6013 452.6944,285.9779 455.1806,285.9779"/>
    <polygon points="452.6944,295.5001 419.3782,295.5001 419.3782,285.0791 452.6944,285.0791"/>
    <polygon points="380.554,352.5039 371.7641,350.4072 371.7641,337.5853 380.554,348.3106"/>
    <polygon points="577.0935,331.1819 581.1543,331.1819 581.1543,340.8255 577.0935,340.8255"/>
    <polygon points="581.1543,323.9657 600.5372,323.9657 600.5372,348.0417 581.1543,348.0417"/>
    <polygon points="600.5372,323.9657 581.1543,323.9657 581.1543,305.9581 600.5372,305.9581"/>
    <polygon points="600.5372,340.8255 600.5372,331.1819 604.598,331.1819 604.598,340.8255"/>
    <polygon points="597.0225,348.0417 595.5403,353.1928 599.3277,353.1928 597.8455,348.0417"/>
    <polygon points="594.9355,353.1928 593.4534,348.0417 592.6303,348.0417 591.1481,353.1928"/>
    <polygon points="588.2381,348.0417 586.7559,353.1928 590.5434,353.1928 589.0612,348.0417"/>
    <polygon points="584.669,348.0417 583.8459,348.0417 582.3637,353.1928 586.1512,353.1928"/>
    <polygon points="591.8567,295.1541 593.1257,295.9194 593.7815,296.822 594.1171,298.2654 593.7815,299.7088 593.1257,300.6115 592.2047,301.2412 591.1257,301.5248 589.6588,301.3139 588.7034,300.7378 587.9972,299.8741 587.5797,298.4522 587.7068,297.3438 588.4355,296.0534 589.6588,295.2169 590.7523,294.9953"/>
    <polygon points="600.5372,290.5728 600.5372,305.9581 581.1543,305.9581 581.1543,290.5728"/>
    <polyline points="600.5372,281.1057 581.1543,281.1057 600.5372,281.1057 600.5372,290.5728 581.1543,290.5728 581.1543,281.1057"/>
    <line x1="581.1543" x2="600.5372" y1="278.8079" y2="278.8079"/>
    <line x1="600.5372" x2="581.1543" y1="276.5101" y2="276.5101"/>
    <polygon points="584.1357,265.6749 581.1543,274.2123 600.5372,274.2123 600.5372,281.1057 581.1543,281.1057 581.1543,274.2123 600.5372,274.2123 597.5557,265.6749"/>
    <line x1="584.1357" x2="597.5557" y1="265.6749" y2="265.6749"/>
    <polygon points="597.5557,265.6749 584.1357,265.6749 584.1357,253.3309 597.5557,253.3309"/>
    <line x1="597.5557" x2="584.1357" y1="263.2061" y2="263.2061"/>
    <line x1="584.1357" x2="597.5557" y1="260.7373" y2="260.7373"/>
    <line x1="597.5557" x2="584.1357" y1="258.2685" y2="258.2685"/>
    <line x1="584.1357" x2="597.5557" y1="255.7997" y2="255.7997"/>
    <polygon points="597.5557,251.739 597.5557,245.6259 599.2711,245.6259 599.2711,251.739"/>
    <polygon points="584.1357,253.3309 584.1357,244.0339 597.5557,244.0339 597.5557,253.3309"/>
    <polygon points="584.1357,245.6259 584.1357,251.739 582.4204,251.739 582.4204,245.6259"/>
    <polygon points="584.1357,226.9357 597.5557,226.9357 597.5557,244.0339 584.1357,244.0339"/>
    <polygon points="584.1357,226.9357 584.1357,206.8024 597.5557,206.8024 597.5557,226.9357"/>
    <polygon points="597.5557,201.1628 597.5557,192.3714 600.1007,192.3714 600.1007,201.1628"/>
    <polygon points="581.5908,192.3714 584.1357,192.3714 584.1357,201.1628 581.5908,201.1628"/>
    <polygon points="584.7212,180.6992 584.7212,161.6768 589.6338,140.8791 592.0576,140.8791 596.9702,161.6768 584.7212,161.6768 596.9702,161.6768 596.9702,180.6992"/>
    <polygon points="596.9702,180.6992 584.7212,180.6992 584.1357,186.7317 597.5557,186.7317 597.5557,206.8024 584.1357,206.8024 584.1357,186.7317 597.5557,186.7317"/>
    <polygon points="589.6338,137.434 592.0576,137.434 592.0576,140.8791 589.6338,140.8791"/>
    <polygon points="589.6338,137.434 589.6338,133.8936 592.0576,133.8936 592.0576,137.434"/>
    <polygon points="589.6338,133.8936 589.6338,129.2338 592.0576,129.2338 592.0576,133.8936"/>
    <polygon points="589.6338,125.0605 592.0576,125.0605 592.0576,129.2338 589.6338,129.2338"/>
    <polygon points="217.7102,215.8348 222.4046,215.8348 222.4046,225.4271 217.7102,225.4271"/>
  </g>
</svg>
