<?xml version="1.0" encoding="utf-8" ?>
<svg xmlns="http://www.w3.org/2000/svg" xmlns:cc="http://creativecommons.org/ns#" xmlns:dc="http://purl.org/dc/elements/1.1/" xmlns:ev="http://www.w3.org/2001/xml-events" xmlns:inkscape="http://www.inkscape.org/namespaces/inkscape" xmlns:rdf="http://www.w3.org/1999/02/22-rdf-syntax-ns#" xmlns:sodipodi="http://sodipodi.sourceforge.net/DTD/sodipodi-0.dtd" xmlns:xlink="http://www.w3.org/1999/xlink" baseProfile="tiny" height="29.7cm" version="1.2" viewBox="0 0 793.7007874015749 1122.5196850393702" width="21.0cm">
  <metadata>
    <rdf:RDF>
      <cc:Work>
        <dc:format>image/svg+xml</dc:format>
        <dc:source/>
        <dc:date>2021-11-13T14:26:43.473258</dc:date>
      </cc:Work>
    </rdf:RDF>
  </metadata>
  <defs/>
  <g fill="none" id="layer1" inkscape:groupmode="layer" inkscape:label="1" stroke="#00f" style="display:inline">
    <polygon points="165.5961,959.6358 161.9397,959.6358 158.5979,967.8208 168.9379,967.8208"/>
    <polygon points="172.8845,959.6358 169.5427,967.8208 179.8827,967.8208 176.5409,959.6358"/>
    <polygon points="181.0922,959.6358 157.3885,959.6358 157.3885,952.3642 181.0922,952.3642"/>
    <polygon points="181.0922,952.3642 189.2999,958.8239 189.2999,960.4476 181.0922,959.6358"/>
    <polygon points="175.9987,948.5767 175.9987,947.5417 162.4819,947.5417 162.4819,948.5767"/>
    <polygon points="181.0922,933.0638 181.0922,943.3569 157.3885,943.3569 157.3885,933.0638"/>
    <polygon points="157.3885,933.0638 157.3885,914.8655 181.0922,914.8655 179.4802,907.5026 159.0005,907.5026 157.3885,914.8655 181.0922,914.8655 181.0922,933.0638"/>
    <polygon points="157.3885,952.3642 157.3885,943.3569 181.0922,943.3569 181.0922,952.3642"/>
    <polygon points="157.3885,952.3642 149.1807,958.8239 149.1807,960.4476 157.3885,959.6358"/>
    <polygon points="217.1463,938.6821 213.0953,946.2719 213.0953,948.1366 217.1463,948.1366"/>
    <polyline points="217.1463,938.6821 217.1463,948.1366 237.4414,948.1366 237.4414,938.6821 217.1463,938.6821 237.4414,938.6821"/>
    <polygon points="237.4414,938.6821 217.1463,938.6821 217.1463,932.4881 237.4414,932.4881"/>
    <polygon points="241.4924,946.2719 241.4924,948.1366 237.4414,948.1366 237.4414,938.6821"/>
    <polygon points="230.7242,954.1672 223.8635,954.1672 219.3108,967.8208 235.2769,967.8208"/>
    <polygon points="230.7242,954.1672 237.4414,948.1366 217.1463,948.1366 223.8635,954.1672"/>
    <polygon points="229.9242,932.4881 224.6635,932.4881 227.2939,927.2274"/>
    <polygon points="218.5208,918.2725 236.0669,918.2725 236.0669,932.4881 218.5208,932.4881 218.5208,918.2725 236.0669,918.2725 235.6618,911.6346 218.926,911.6346"/>
    <polygon points="229.6718,911.6346 224.9159,911.6346 227.2939,906.8786"/>
    <polygon points="218.926,895.4709 235.6618,895.4709 234.7927,887.0719 219.795,887.0719 218.926,895.4709 235.6618,895.4709 235.6618,911.6346 218.926,911.6346"/>
    <polygon points="219.795,874.845 227.2939,850.8913 234.7927,874.845 219.795,874.845 234.7927,874.845 234.7927,887.0719 219.795,887.0719"/>
    <polygon points="179.4802,892.1628 178.7076,882.7354 159.7731,882.7354 159.0005,892.1628 179.4802,892.1628 179.4802,907.5026 159.0005,907.5026 159.0005,892.1628"/>
    <polygon points="169.2403,879.6671 170.7745,882.7354 167.7062,882.7354"/>
    <polygon points="169.2403,861.6566 178.7076,873.5045 159.7731,873.5045 178.7076,873.5045 178.7076,882.7354 159.7731,882.7354 159.7731,873.5045"/>
    <polygon points="278.2529,849.9793 292.4419,849.9793 292.4419,862.2011 278.2529,862.2011 278.2529,849.9793 292.4419,849.9793 290.8746,842.1248 279.8202,842.1248"/>
    <polygon points="293.3099,867.3278 293.3099,882.9309 277.3849,882.9309 277.3849,867.3278 293.3099,867.3278 292.4419,862.2011 278.2529,862.2011 277.3849,867.3278"/>
    <polygon points="293.3099,882.9309 293.3099,893.1974 277.3849,893.1974 277.3849,882.9309"/>
    <polygon points="293.3099,904.6998 277.3849,904.6998 277.3849,893.1974 293.3099,893.1974"/>
    <polygon points="295.3803,930.5587 295.3803,945.7665 275.3145,945.7665 275.3145,930.5587"/>
    <polygon points="295.3803,930.5587 275.3145,930.5587 275.3145,912.3044 295.3803,912.3044 293.3099,904.6998 277.3849,904.6998 275.3145,912.3044 295.3803,912.3044"/>
    <polyline points="289.207,945.7665 291.8612,951.0295 293.8585,956.7102 294.999,962.2395 295.3803,967.8208 275.3145,967.8208 275.6958,962.2395 276.8363,956.7102 278.8336,951.0295 281.4878,945.7665"/>
    <polygon points="279.7735,938.3302 290.9213,938.3302 290.9213,934.8618 279.7735,934.8618"/>
    <polygon points="330.6056,955.2745 330.6056,913.7297 333.0078,910.0512 335.4101,913.7297 330.6056,913.7297 335.4101,913.7297 335.4101,955.2745"/>
    <polygon points="334.0755,956.3201 331.9401,956.3201 330.7677,961.4836 335.2479,961.4836"/>
    <polygon points="335.4101,955.2745 330.6056,955.2745 331.9401,956.3201 334.0755,956.3201"/>
    <polygon points="336.6195,967.8208 343.0986,967.8208 341.4348,957.8552 338.2833,957.8552"/>
    <polygon points="343.7033,967.8208 350.1824,967.8208 348.5186,957.8552 345.3671,957.8552"/>
    <polygon points="351.3918,957.8552 335.4101,957.8552 335.4101,938.394 351.3918,938.394"/>
    <polygon points="352.7263,956.3201 354.8618,956.3201 356.0341,961.4836 351.554,961.4836"/>
    <polygon points="351.3918,955.2745 356.1963,955.2745 356.1963,913.7297 353.7941,910.0512 351.3918,913.7297 356.1963,913.7297 351.3918,913.7297"/>
    <polygon points="354.8618,956.3201 352.7263,956.3201 351.3918,955.2745 356.1963,955.2745"/>
    <line x1="351.3918" x2="335.4101" y1="912.6148" y2="912.6148"/>
    <polygon points="335.4101,912.6148 335.4101,921.5421 351.3918,921.5421 351.3918,938.394 335.4101,938.394 335.4101,921.5421 351.3918,921.5421 351.3918,912.6148"/>
    <polyline points="335.4101,907.3832 335.4101,912.6148 351.3918,912.6148 351.3918,907.3832 335.4101,907.3832 335.4101,884.5027 335.4101,907.3832 351.3918,907.3832 351.3918,884.5027 335.4101,884.5027 351.3918,884.5027"/>
    <polygon points="351.3918,884.5027 335.4101,884.5027 335.4101,865.3162 343.4009,852.5835 351.3918,865.3162 335.4101,865.3162 351.3918,865.3162"/>
    <line x1="348.7282" x2="348.7282" y1="884.5027" y2="907.3832"/>
    <line x1="346.0646" x2="346.0646" y1="907.3832" y2="884.5027"/>
    <line x1="343.4009" x2="343.4009" y1="884.5027" y2="907.3832"/>
    <line x1="340.7373" x2="340.7373" y1="907.3832" y2="884.5027"/>
    <line x1="338.0737" x2="338.0737" y1="884.5027" y2="907.3832"/>
    <line x1="335.4101" x2="351.3918" y1="880.6654" y2="880.6654"/>
    <line x1="351.3918" x2="335.4101" y1="876.8281" y2="876.8281"/>
    <line x1="335.4101" x2="351.3918" y1="872.9908" y2="872.9908"/>
    <line x1="351.3918" x2="335.4101" y1="869.1535" y2="869.1535"/>
    <polyline points="397.3912,870.8381 397.3912,884.43 405.5178,884.43 405.5178,870.8381 397.3912,870.8381 397.3912,861.7471 405.5178,861.7471 401.4545,850.8112 397.3912,861.7471 397.3912,870.8381 405.5178,870.8381 405.5178,861.7471 397.3912,861.7471"/>
    <line x1="401.4545" x2="401.4545" y1="861.7471" y2="870.8381"/>
    <line x1="401.4545" x2="401.4545" y1="884.43" y2="899.8381"/>
    <polyline points="397.3912,899.8381 397.3912,884.43 405.5178,884.43 405.5178,899.8381 397.3912,899.8381 397.3912,884.43"/>
    <polygon points="397.3912,899.8381 395.8496,907.3638 407.0593,907.3638 407.0593,919.2341 395.8496,919.2341 395.8496,907.3638 407.0593,907.3638 405.5178,899.8381"/>
    <polygon points="409.383,919.2341 409.383,936.6073 393.526,936.6073 393.526,919.2341"/>
    <polygon points="396.9489,931.9301 396.9489,930.6249 405.9601,930.6249 405.9601,931.9301"/>
    <polygon points="398.7668,957.5341 394.7354,967.8208 408.1736,967.8208 404.1421,957.5341"/>
    <polygon points="409.383,957.5341 393.526,957.5341 393.526,936.6073 409.383,936.6073"/>
    <polyline points="447.8775,959.6726 447.8775,940.3158 471.1386,940.3158 468.135,935.6465 450.8811,935.6465 447.8775,940.3158 471.1386,940.3158 471.1386,959.6726 447.8775,959.6726 447.8775,940.3158"/>
    <line x1="451.2005" x2="451.2005" y1="940.3158" y2="959.6726"/>
    <line x1="454.5235" x2="454.5235" y1="959.6726" y2="940.3158"/>
    <line x1="457.8465" x2="457.8465" y1="940.3158" y2="959.6726"/>
    <line x1="461.1695" x2="461.1695" y1="959.6726" y2="940.3158"/>
    <line x1="464.4926" x2="464.4926" y1="940.3158" y2="959.6726"/>
    <line x1="467.8156" x2="467.8156" y1="959.6726" y2="940.3158"/>
    <polygon points="468.135,913.5742 468.135,935.6465 450.8811,935.6465 450.8811,913.5742 468.135,913.5742 468.0568,903.9908 450.9592,903.9908 450.8811,913.5742"/>
    <polygon points="467.5023,893.4711 451.5138,893.4711 451.5138,875.1297 467.5023,875.1297"/>
    <polygon points="451.5138,893.4711 450.9592,898.6112 468.0568,898.6112 468.0568,903.9908 450.9592,903.9908 450.9592,898.6112 468.0568,898.6112 467.5023,893.4711"/>
    <polygon points="467.5023,869.7118 467.5023,862.9297 470.6235,862.9297 470.6235,869.7118"/>
    <polygon points="451.5138,857.5118 467.5023,857.5118 467.5023,875.1297 451.5138,875.1297 451.5138,857.5118 459.508,839.0882 467.5023,857.5118"/>
    <polygon points="448.3925,862.9297 451.5138,862.9297 451.5138,869.7118 448.3925,869.7118"/>
    <polyline points="511.5011,854.0628 511.5011,873.6654 523.6221,873.6654 523.6221,854.0628 511.5011,854.0628 512.6125,849.1648 522.5107,849.1648 523.6221,854.0628 511.5011,854.0628 511.5011,873.6654"/>
    <line x1="514.5313" x2="514.5313" y1="873.6654" y2="854.0628"/>
    <line x1="517.5616" x2="517.5616" y1="854.0628" y2="873.6654"/>
    <line x1="520.5918" x2="520.5918" y1="873.6654" y2="854.0628"/>
    <polygon points="522.5107,849.1648 512.6125,849.1648 512.6125,837.702 522.5107,837.702"/>
    <polygon points="512.6125,820.5081 522.5107,820.5081 522.5107,837.702 512.6125,837.702 512.6125,820.5081 516.657,815.5389 518.4661,815.5389 522.5107,820.5081"/>
    <polygon points="518.4661,815.5389 516.657,815.5389 516.657,809.6333 518.4661,809.6333"/>
    <polygon points="518.4661,809.6333 516.657,809.6333 516.657,802.5537 518.4661,802.5537"/>
    <polygon points="518.4661,795.5564 518.4661,802.5537 516.657,802.5537 516.657,795.5564"/>
    <polygon points="514.9209,750.12 520.2022,750.12 518.2146,743.4354 516.9085,743.4354"/>
    <polygon points="514.3162,750.12 512.3286,743.4354 511.0225,743.4354 509.0349,750.12"/>
    <polygon points="526.0883,750.12 524.1007,743.4354 522.7946,743.4354 520.807,750.12"/>
    <polygon points="527.2977,735.5904 527.2977,743.4354 507.8254,743.4354 507.8254,735.5904 527.2977,735.5904 524.3835,727.9512 510.7397,727.9512 507.8254,735.5904"/>
    <polygon points="510.7397,727.9512 510.7397,705.3691 524.3835,705.3691 524.3835,727.9512"/>
    <polygon points="520.5467,714.9944 514.5765,714.9944 514.5765,714.0022 520.5467,714.0022"/>
    <polygon points="524.3835,705.3691 510.7397,705.3691 510.7397,688.0389 524.3835,688.0389 522.3385,678.8823 512.7847,678.8823 510.7397,688.0389 524.3835,688.0389"/>
    <polygon points="512.7847,669.6791 522.3385,669.6791 522.3385,678.8823 512.7847,678.8823 512.7847,669.6791 522.3385,669.6791 521.0756,664.9965 514.0475,664.9965"/>
    <polygon points="509.7744,661.2064 509.7744,656.5974 514.0475,656.5974 514.0475,661.2064"/>
    <polygon points="514.0475,652.8073 521.0756,652.8073 521.0756,664.9965 514.0475,664.9965"/>
    <polygon points="514.0475,646.346 512.587,646.346 512.587,639.2184 514.0475,639.2184"/>
    <polygon points="522.5362,646.346 521.0756,646.346 521.0756,639.2184 522.5362,639.2184"/>
    <polyline points="521.0756,632.7571 520.3583,629.5609 519.6168,628.376 518.403,627.2416 517.5616,626.7842 516.2018,627.643 515.2997,628.6519 514.3705,630.5693 514.0475,632.7571 521.0756,632.7571 521.0756,652.8073 514.0475,652.8073 514.0475,632.7571"/>
    <polygon points="525.3488,661.2064 521.0756,661.2064 521.0756,656.5974 525.3488,656.5974"/>
    <polygon points="569.2878,656.3617 571.6295,656.3617 571.6295,665.3572 569.2878,665.3572"/>
    <polyline points="571.9955,644.411 571.9955,628.0805 579.2347,628.0805 582.102,620.8441 569.1282,620.8441 571.9955,628.0805 579.2347,628.0805 579.2347,644.411 571.9955,644.411 571.9955,628.0805"/>
    <line x1="575.6151" x2="575.6151" y1="628.0805" y2="644.411"/>
    <polygon points="579.2347,644.411 571.9955,644.411 571.6295,651.4901 579.6007,651.4901 579.6007,670.2289 571.6295,670.2289 571.6295,651.4901 579.6007,651.4901"/>
    <polygon points="581.9424,656.3617 581.9424,665.3572 579.6007,665.3572 579.6007,656.3617"/>
    <polygon points="579.6007,670.2289 571.6295,670.2289 571.4941,676.8225 579.7361,676.8225 579.7361,698.0644 571.4941,698.0644 571.4941,676.8225 579.7361,676.8225"/>
    <polygon points="584.133,695.9284 582.1004,703.9946 586.1655,703.9946 582.1004,703.9946 582.1004,735.7943 586.1655,735.7943 586.1655,703.9946"/>
    <line x1="576.9888" x2="576.9888" y1="698.0644" y2="705.074"/>
    <line x1="574.2414" x2="574.2414" y1="705.074" y2="698.0644"/>
    <polyline points="571.4941,698.0644 571.4941,705.074 579.7361,705.074 579.7361,698.0644 571.4941,698.0644 571.4941,705.074"/>
    <line x1="572.3725" x2="572.3725" y1="715.0735" y2="725.7158"/>
    <line x1="573.4533" x2="573.4533" y1="725.7158" y2="736.8738"/>
    <polygon points="573.3459,736.8738 570.3393,750.12 580.891,750.12 577.8843,736.8738"/>
    <polyline points="569.1298,736.8738 569.1298,725.7158 569.1298,736.8738 582.1004,736.8738 582.1004,725.7158 569.1298,725.7158 569.1298,715.0735 569.1298,725.7158 582.1004,725.7158 582.1004,715.0735 569.1298,715.0735"/>
    <polygon points="569.1298,715.0735 569.1298,705.074 582.1004,705.074 582.1004,715.0735"/>
    <line x1="575.6151" x2="575.6151" y1="715.0735" y2="725.7158"/>
    <line x1="577.7769" x2="577.7769" y1="725.7158" y2="736.8738"/>
    <polyline points="583.5072,735.7943 582.2647,738.7662 582.1004,740.5021 586.1655,740.5021 586.0013,738.7662 584.7587,735.7943"/>
    <line x1="578.8578" x2="578.8578" y1="725.7158" y2="715.0735"/>
    <polyline points="567.723,735.7943 568.9656,738.7662 569.1298,740.5021 565.0647,740.5021 565.2289,738.7662 566.4715,735.7943"/>
    <polygon points="565.0647,735.7943 565.0647,703.9946 567.0972,695.9284 569.1298,703.9946 565.0647,703.9946 569.1298,703.9946 569.1298,735.7943"/>
    <polygon points="637.0,741.1395 630.3373,741.1395 624.0267,750.12 643.3106,750.12"/>
    <polygon points="641.7682,709.0757 625.5691,709.0757 622.8172,717.8752 644.5201,717.8752 644.5201,741.1395 622.8172,741.1395 622.8172,717.8752 644.5201,717.8752"/>
    <polygon points="641.7682,709.0757 625.5691,709.0757 625.5691,688.38 641.7682,688.38"/>
    <polygon points="641.2296,667.0771 641.2296,688.38 626.1077,688.38 626.1077,667.0771 641.2296,667.0771 640.8697,661.3301 626.4676,661.3301 626.1077,667.0771"/>
    <polygon points="640.8697,661.3301 626.4676,661.3301 626.4676,653.0666 640.8697,653.0666 640.1889,646.5612 627.1484,646.5612 626.4676,653.0666 640.8697,653.0666"/>
    <polygon points="640.1889,646.5612 627.1484,646.5612 627.1484,634.3956 640.1889,634.3956"/>
    <polyline points="640.1889,623.5701 639.7658,622.5136 638.5509,621.4951 633.6687,619.4601 628.7864,621.4951 627.5715,622.5136 627.1484,623.5701 640.1889,623.5701 640.1889,634.3956 627.1484,634.3956 627.1484,623.5701"/>
    <polyline points="582.102,620.8441 582.102,599.1422 581.8949,597.2901 580.9393,594.921 579.5858,593.2991 577.557,592.092 575.6151,591.7531 573.6732,592.092 571.6445,593.2991 570.1101,595.2336 569.3353,597.2901 569.1282,599.1422 569.1282,620.8441"/>
    <polygon points="585.1974,532.4192 580.2249,518.002 571.0053,518.002 566.0328,532.4192"/>
    <polygon points="571.0053,518.002 580.2249,518.002 587.3272,512.737 563.9031,512.737"/>
    <polygon points="587.3272,500.4303 587.3272,512.737 563.9031,512.737 563.9031,500.4303 587.3272,500.4303 586.7668,494.0462 564.4634,494.0462 563.9031,500.4303"/>
    <polygon points="564.4634,485.2957 586.7668,485.2957 586.7668,494.0462 564.4634,494.0462"/>
    <polygon points="564.4634,464.1984 586.7668,464.1984 586.7668,485.2957 564.4634,485.2957"/>
    <polygon points="564.4634,448.8228 564.4634,456.8782 562.5228,456.8782 562.5228,448.8228"/>
    <polygon points="564.4634,441.5026 564.4634,428.9514 586.7668,428.9514 585.7178,422.4719 565.5124,422.4719 564.4634,428.9514 586.7668,428.9514 586.7668,441.5026"/>
    <polygon points="564.4634,441.5026 586.7668,441.5026 586.7668,464.1984 564.4634,464.1984"/>
    <polygon points="580.0104,436.6778 580.0104,435.8842 571.2198,435.8842 571.2198,436.6778"/>
    <polygon points="588.7074,456.8782 586.7668,456.8782 586.7668,448.8228 588.7074,448.8228"/>
    <polygon points="623.9442,458.4751 643.3931,458.4751 642.5728,449.4615 624.7645,449.4615 623.9442,458.4751 643.3931,458.4751 643.3931,474.1281 623.9442,474.1281"/>
    <polygon points="627.9066,469.2988 627.9066,463.871 639.4307,463.871 639.4307,469.2988"/>
    <polygon points="632.4855,480.2602 633.5747,480.0006 634.6789,480.1868 635.6227,480.7894 636.2564,481.7125 636.4794,482.8098 636.2564,483.9071 635.6227,484.8302 634.6789,485.4327 633.5747,485.619 632.4855,485.3594 631.584,484.6952 630.8642,482.9975 631.0134,481.8878 631.584,480.9244"/>
    <polygon points="623.9442,491.4915 623.9442,474.1281 643.3931,474.1281 643.3931,491.4915"/>
    <polygon points="623.9442,491.4915 643.3931,491.4915 643.3931,502.8474 623.9442,502.8474"/>
    <polygon points="623.8485,512.2574 643.4888,512.2574 643.4888,527.8755 623.8485,527.8755 623.8485,512.2574 643.4888,512.2574 643.3931,502.8474 623.9442,502.8474"/>
    <polygon points="630.9024,527.8755 629.3045,527.8755 628.6232,532.4192 631.5837,532.4192"/>
    <polygon points="632.1884,532.4192 635.1489,532.4192 634.4676,527.8755 632.8697,527.8755"/>
    <polygon points="635.7536,532.4192 638.7141,532.4192 638.0328,527.8755 636.435,527.8755"/>
    <polygon points="639.3188,532.4192 642.2793,532.4192 641.598,527.8755 640.0002,527.8755"/>
    <polygon points="625.058,532.4192 628.0185,532.4192 627.3371,527.8755 625.7393,527.8755"/>
    <polygon points="642.5728,439.2432 642.5728,449.4615 624.7645,449.4615 624.7645,439.2432"/>
    <polygon points="630.0104,431.7886 630.241,430.3078 630.7963,429.3266 631.9471,428.3667 633.386,427.9478 634.8722,428.1402 636.1569,428.9117 637.0252,430.1331 637.3318,431.6 637.0252,433.0669 636.4202,434.0182 635.2215,434.9177 633.763,435.2619 632.6449,435.1172 631.3221,434.4129 630.392,433.2378"/>
    <polygon points="642.5728,423.9568 642.5728,439.2432 624.7645,439.2432 624.7645,423.9568"/>
    <polyline points="642.5728,416.8091 642.0067,415.3538 640.3109,413.9052 637.4934,412.4702 633.6687,411.0874 629.844,412.4702 627.0264,413.9052 625.3306,415.3538 624.7645,416.8091 642.5728,416.8091 642.5728,423.9568 624.7645,423.9568 624.7645,416.8091"/>
    <polyline points="585.5833,398.4409 584.9401,394.9854 582.8551,391.5686 579.8172,388.9916 575.6151,387.0752 571.413,388.9916 568.3751,391.5686 566.4009,394.7064 565.6469,398.4409 585.5833,398.4409 585.5833,406.0766 565.6469,406.0766 565.6469,398.4409"/>
    <polygon points="565.5124,415.5902 585.7178,415.5902 585.5833,406.0766 565.6469,406.0766 565.5124,415.5902 585.7178,415.5902 585.7178,422.4719 565.5124,422.4719"/>
    <polygon points="523.8545,466.0973 511.2686,466.0973 523.8545,466.0973 523.8545,481.7726 511.2686,481.7726 511.2686,466.0973 517.5616,446.9413"/>
    <polygon points="526.4409,506.3282 508.6822,506.3282 508.6822,489.7246 526.4409,489.7246 523.8545,481.7726 511.2686,481.7726 508.6822,489.7246 526.4409,489.7246"/>
    <polygon points="526.4409,518.4477 534.3655,525.0202 534.3655,526.5787 526.4409,526.5787"/>
    <polygon points="526.4409,526.5787 508.6822,526.5787 508.6822,518.4477 526.4409,518.4477"/>
    <polygon points="521.6923,526.5787 520.5214,532.4192 525.2315,532.4192 524.0606,526.5787"/>
    <polygon points="513.4309,526.5787 511.0626,526.5787 509.8916,532.4192 514.6018,532.4192"/>
    <polygon points="515.2065,532.4192 519.9166,532.4192 518.7457,526.5787 516.3774,526.5787"/>
    <polygon points="508.6822,518.4477 508.6822,506.3282 526.4409,506.3282 526.4409,518.4477"/>
    <polygon points="508.6822,518.4477 500.7577,525.0202 500.7577,526.5787 508.6822,526.5787"/>
    <polygon points="466.8929,515.8911 466.8929,524.9849 452.1231,524.9849 452.1231,515.8911"/>
    <polyline points="461.0014,524.9849 463.5315,526.68 465.3838,528.5141 466.5133,530.4427 466.8929,532.4192 452.1231,532.4192 452.5027,530.4427 453.6323,528.5141 455.4846,526.68 458.0146,524.9849"/>
    <polygon points="452.1231,499.3782 466.8929,499.3782 465.9478,491.072 453.0683,491.072 452.1231,499.3782 466.8929,499.3782 466.8929,515.8911 452.1231,515.8911"/>
    <polygon points="453.0683,481.9462 465.9478,481.9462 465.9478,491.072 453.0683,491.072 453.0683,481.9462 465.9478,481.9462 464.513,476.976 454.5031,476.976"/>
    <polygon points="455.098,460.4449 455.098,436.5795 459.508,427.0226 463.918,436.5795 455.098,436.5795 463.918,436.5795 463.918,460.4449"/>
    <polygon points="455.098,460.4449 454.5031,465.7164 464.513,465.7164 464.513,476.976 454.5031,476.976 454.5031,465.7164 464.513,465.7164 463.918,460.4449"/>
    <line x1="405.1964" x2="397.7126" y1="456.1121" y2="456.1121"/>
    <polygon points="397.7126,456.1121 395.1328,459.8689 407.7761,459.8689 407.7761,476.9934 395.1328,476.9934 395.1328,459.8689 407.7761,459.8689 405.1964,456.1121"/>
    <line x1="397.7126" x2="405.1964" y1="452.1122" y2="452.1122"/>
    <line x1="405.1964" x2="397.7126" y1="448.1124" y2="448.1124"/>
    <polygon points="405.1964,444.1126 403.913,438.6421 398.9959,438.6421 397.7126,444.1126 405.1964,444.1126 405.1964,456.1121 397.7126,456.1121 397.7126,444.1126"/>
    <polygon points="403.913,438.6421 398.9959,438.6421 398.9959,423.2338 403.913,423.2338 403.8904,419.5785 399.0186,419.5785 398.9959,423.2338 403.913,423.2338"/>
    <polygon points="403.8904,401.3014 399.0186,401.3014 403.8904,401.3014 403.8904,419.5785 399.0186,419.5785 399.0186,401.3014 401.0874,392.1711 401.8215,392.1711"/>
    <polygon points="401.0874,386.2672 401.8215,386.2672 401.8215,392.1711 401.0874,392.1711"/>
    <polygon points="401.0874,383.1368 401.0874,376.8519 401.8215,376.8519 401.8215,383.1368"/>
    <polygon points="401.8215,383.1368 401.8215,386.2672 401.0874,386.2672 401.0874,383.1368"/>
    <polygon points="401.8215,376.8519 401.0874,376.8519 401.0874,372.1027 401.8215,372.1027"/>
    <polygon points="342.5535,403.8397 344.2484,403.8397 344.2484,409.559 342.5535,409.559"/>
    <polygon points="342.5535,416.1425 342.5535,409.559 344.2484,409.559 344.2484,416.1425"/>
    <polygon points="335.8483,424.702 342.5535,416.1425 344.2484,416.1425 350.9535,424.702 335.8483,424.702 350.9535,424.702 350.9535,446.1829 335.8483,446.1829"/>
    <polygon points="335.8483,446.1829 333.3891,449.8514 353.4128,449.8514 353.4128,461.9394 333.3891,461.9394 333.3891,449.8514 353.4128,449.8514 350.9535,446.1829"/>
    <polygon points="333.3891,451.7199 333.3891,456.6188 324.8803,456.6188 333.3891,456.6188 333.3891,521.1017 324.8803,521.1017 324.8803,456.6188"/>
    <polygon points="333.3891,461.9394 353.4128,461.9394 353.4128,483.4411 333.3891,483.4411"/>
    <polygon points="353.4128,456.6188 353.4128,521.1017 361.9215,521.1017 361.9215,456.6188 353.4128,451.7199 353.4128,456.6188 361.9215,456.6188"/>
    <polygon points="333.3891,483.4411 333.3891,489.9723 353.4128,489.9723 353.4128,497.2906 333.3891,497.2906 333.3891,489.9723 353.4128,489.9723 353.4128,483.4411"/>
    <polyline points="333.3891,501.3531 333.3891,524.928 353.4128,524.928 353.4128,501.3531 333.3891,501.3531 333.3891,497.2906 353.4128,497.2906 353.4128,501.3531 333.3891,501.3531 333.3891,524.928"/>
    <line x1="335.614" x2="335.614" y1="524.928" y2="501.3531"/>
    <line x1="337.8388" x2="337.8388" y1="501.3531" y2="524.928"/>
    <line x1="340.0637" x2="340.0637" y1="524.928" y2="501.3531"/>
    <line x1="342.2885" x2="342.2885" y1="501.3531" y2="524.928"/>
    <line x1="344.5134" x2="344.5134" y1="524.928" y2="501.3531"/>
    <line x1="346.7382" x2="346.7382" y1="501.3531" y2="524.928"/>
    <polygon points="348.278,524.928 338.5239,524.928 334.5986,532.4192 352.2033,532.4192"/>
    <line x1="348.9631" x2="348.9631" y1="524.928" y2="501.3531"/>
    <line x1="351.1879" x2="351.1879" y1="501.3531" y2="524.928"/>
    <polyline points="356.1258,521.1017 354.0915,524.824 353.4128,528.5563 361.9215,528.5563 361.2428,524.824 359.2085,521.1017"/>
    <polyline points="330.6761,521.1017 332.7104,524.824 333.3891,528.5563 324.8803,528.5563 325.5591,524.824 327.5933,521.1017"/>
    <line x1="293.4757" x2="277.2191" y1="515.8796" y2="515.8796"/>
    <line x1="277.2191" x2="293.4757" y1="512.7095" y2="512.7095"/>
    <line x1="293.4757" x2="277.2191" y1="509.5394" y2="509.5394"/>
    <line x1="277.2191" x2="293.4757" y1="506.3693" y2="506.3693"/>
    <polyline points="293.4757,503.1992 277.2191,503.1992 293.4757,503.1992 293.4757,515.8796 277.2191,515.8796 277.2191,503.1992"/>
    <line x1="277.2191" x2="293.4757" y1="499.3475" y2="499.3475"/>
    <line x1="293.4757" x2="277.2191" y1="495.4958" y2="495.4958"/>
    <line x1="277.2191" x2="293.4757" y1="491.644" y2="491.644"/>
    <line x1="293.4757" x2="277.2191" y1="487.7923" y2="487.7923"/>
    <line x1="277.2191" x2="293.4757" y1="483.9406" y2="483.9406"/>
    <polygon points="284.335,480.0888 285.3474,478.064 286.3598,480.0888"/>
    <polygon points="277.2191,480.0888 293.4757,480.0888 293.4757,503.1992 277.2191,503.1992"/>
    <polygon points="277.2191,460.2472 277.2191,445.8919 293.4757,445.8919 293.4757,460.2472"/>
    <polygon points="293.4757,460.2472 293.4757,480.0888 277.2191,480.0888 277.2191,460.2472"/>
    <polygon points="280.8287,419.0858 279.6134,425.9345 291.0814,425.9345 291.0814,445.8919 279.6134,445.8919 279.6134,425.9345 291.0814,425.9345 289.8661,419.0858"/>
    <polygon points="289.8661,401.4226 289.8661,419.0858 280.8287,419.0858 280.8287,401.4226 289.8661,401.4226 289.2666,395.8311 281.4282,395.8311 280.8287,401.4226"/>
    <polygon points="289.2666,381.9694 289.2666,395.8311 281.4282,395.8311 281.4282,381.9694 284.9508,370.9678 285.744,370.9678 289.2666,381.9694 281.4282,381.9694"/>
    <polygon points="285.744,370.9678 284.9508,370.9678 284.9508,366.0901 285.744,366.0901"/>
    <polygon points="285.744,362.7866 285.744,366.0901 284.9508,366.0901 284.9508,362.7866"/>
    <polygon points="285.744,356.8097 285.744,362.7866 284.9508,362.7866 284.9508,356.8097"/>
    <polygon points="285.744,350.4915 285.744,356.8097 284.9508,356.8097 284.9508,350.4915"/>
    <polygon points="285.6498,314.7184 291.5036,314.7184 289.342,307.6383 287.8113,307.6383"/>
    <polygon points="282.8835,307.6383 281.3528,307.6383 279.1912,314.7184 285.045,314.7184"/>
    <line x1="277.9818" x2="292.713" y1="307.6383" y2="307.6383"/>
    <polygon points="280.3104,292.8232 280.3104,287.0317 290.3844,287.0317 290.3844,292.8232"/>
    <polygon points="280.3104,292.8232 277.9818,302.2724 292.713,302.2724 292.713,307.6383 277.9818,307.6383 277.9818,302.2724 292.713,302.2724 290.3844,292.8232"/>
    <polygon points="289.9008,270.9688 280.794,270.9688 280.3104,277.845 290.3844,277.845 290.3844,287.0317 280.3104,287.0317 280.3104,277.845 290.3844,277.845"/>
    <polyline points="289.9008,263.4027 289.5963,261.7502 288.6991,260.186 287.2572,258.7935 285.3474,257.6471 283.4376,258.7935 281.9957,260.186 281.0985,261.7502 280.794,263.4027 289.9008,263.4027 289.9008,270.9688 280.794,270.9688 280.794,263.4027"/>
    <line x1="231.2193" x2="231.2193" y1="263.7294" y2="300.4355"/>
    <line x1="227.2939" x2="227.2939" y1="300.4355" y2="263.7294"/>
    <polygon points="226.0855,263.7294 227.2939,261.3126 228.5023,263.7294"/>
    <line x1="223.3684" x2="223.3684" y1="263.7294" y2="300.4355"/>
    <polyline points="219.443,300.4355 219.443,307.1314 235.1447,307.1314 235.1447,300.4355 219.443,300.4355 219.443,277.98 219.443,300.4355 235.1447,300.4355 235.1447,277.98 219.443,277.98 219.443,263.7294 219.443,277.98 235.1447,277.98 235.1447,263.7294 219.443,263.7294"/>
    <polygon points="227.2939,228.441 235.1447,256.1321 219.443,256.1321 235.1447,256.1321 235.1447,263.7294 219.443,263.7294 219.443,256.1321"/>
    <polygon points="176.5236,246.4358 175.9777,240.8594 162.5029,240.8594 161.957,246.4358 176.5236,246.4358 176.5236,258.4452 161.957,258.4452 161.957,246.4358"/>
    <line x1="176.5236" x2="161.957" y1="250.4389" y2="250.4389"/>
    <line x1="161.957" x2="176.5236" y1="254.442" y2="254.442"/>
    <polyline points="176.5236,258.4452 161.957,258.4452 176.5236,258.4452 176.5236,271.3817 161.957,271.3817 161.957,258.4452"/>
    <line x1="161.957" x2="176.5236" y1="261.6793" y2="261.6793"/>
    <line x1="176.5236" x2="161.957" y1="264.9134" y2="264.9134"/>
    <line x1="161.957" x2="176.5236" y1="268.1475" y2="268.1475"/>
    <line x1="176.5236" x2="161.957" y1="271.3817" y2="271.3817"/>
    <polygon points="160.5611,289.462 157.7209,289.462 157.7209,282.9314 160.5611,282.9314"/>
    <polygon points="177.9196,289.462 177.9196,282.9314 180.7597,282.9314 180.7597,289.462"/>
    <polygon points="177.9196,296.6348 160.5611,296.6348 160.5611,275.7586 177.9196,275.7586 176.5236,271.3817 161.957,271.3817 160.5611,275.7586 177.9196,275.7586"/>
    <polygon points="174.1349,300.3509 177.9196,296.6348 160.5611,296.6348 164.3458,300.3509"/>
    <polygon points="178.6596,314.7184 174.1349,300.3509 164.3458,300.3509 159.821,314.7184"/>
    <polygon points="224.3102,307.1314 220.6525,314.7184 233.9352,314.7184 230.2775,307.1314"/>
    <polygon points="168.1302,395.7838 170.3505,395.7838 170.3505,401.6924 168.1302,401.6924"/>
    <polygon points="170.3505,407.562 168.1302,407.562 168.1302,401.6924 170.3505,401.6924"/>
    <polygon points="168.1302,414.6442 168.1302,407.562 170.3505,407.562 170.3505,414.6442"/>
    <polygon points="168.1302,414.6442 170.3505,414.6442 170.3505,421.3224 168.1302,421.3224"/>
    <polygon points="163.1054,437.1598 175.3752,437.1598 175.3752,443.6308 163.1054,443.6308 163.1054,437.1598 168.1302,421.3224 170.3505,421.3224 175.3752,437.1598"/>
    <line x1="163.1054" x2="175.3752" y1="440.3953" y2="440.3953"/>
    <polyline points="175.3752,443.6308 163.1054,443.6308 175.3752,443.6308 175.3752,452.4452 163.1054,452.4452 163.1054,443.6308"/>
    <polyline points="163.1054,452.4452 163.1054,469.7408 175.3752,469.7408 175.3752,452.4452 163.1054,452.4452 163.1054,469.7408"/>
    <line x1="166.1729" x2="166.1729" y1="469.7408" y2="452.4452"/>
    <line x1="169.2403" x2="169.2403" y1="452.4452" y2="469.7408"/>
    <line x1="172.3078" x2="172.3078" y1="469.7408" y2="452.4452"/>
    <line x1="171.4134" x2="171.4134" y1="483.9906" y2="493.8423"/>
    <line x1="169.2403" x2="169.2403" y1="493.8423" y2="483.9906"/>
    <line x1="167.0673" x2="167.0673" y1="483.9906" y2="493.8423"/>
    <line x1="164.8942" x2="164.8942" y1="493.8423" y2="483.9906"/>
    <polygon points="162.7212,483.9906 162.7212,473.602 175.7594,473.602 175.3752,469.7408 163.1054,469.7408 162.7212,473.602 175.7594,473.602 175.7594,483.9906"/>
    <polyline points="162.7212,483.9906 162.7212,493.8423 175.7594,493.8423 175.7594,483.9906 162.7212,483.9906 162.7212,493.8423"/>
    <polygon points="162.7212,502.9972 175.7594,502.9972 175.7594,509.0088 162.7212,509.0088 162.7212,502.9972 175.7594,502.9972 175.7594,493.8423 162.7212,493.8423"/>
    <line x1="162.7212" x2="175.7594" y1="506.003" y2="506.003"/>
    <line x1="175.7594" x2="162.7212" y1="509.0088" y2="509.0088"/>
    <polygon points="162.7212,524.8951 153.0566,524.8951 153.0566,497.7602 162.7212,481.7548 162.7212,497.7602 153.0566,497.7602 162.7212,497.7602"/>
    <polygon points="162.7212,526.8669 162.7212,515.5954 175.7594,515.5954 175.7594,509.0088 162.7212,509.0088 162.7212,515.5954 175.7594,515.5954 175.7594,526.8669"/>
    <polygon points="166.3177,526.8669 164.6802,526.8669 163.9306,532.4192 167.0673,532.4192"/>
    <polyline points="159.5235,524.8951 161.0865,526.4795 162.132,528.0796 162.7212,530.4952 153.0566,530.4952 153.6458,528.0796 154.6912,526.4795 156.2543,524.8951"/>
    <polygon points="170.8086,532.4192 170.0591,526.8669 168.4215,526.8669 167.672,532.4192"/>
    <polygon points="174.55,532.4192 173.8005,526.8669 172.1629,526.8669 171.4134,532.4192"/>
    <polyline points="178.9571,524.8951 177.3941,526.4795 176.3487,528.0796 175.7594,530.4952 185.424,530.4952 184.8348,528.0796 183.7894,526.4795 182.2264,524.8951"/>
    <polygon points="175.7594,497.7602 185.424,497.7602 175.7594,497.7602 175.7594,524.8951 185.424,524.8951 185.424,497.7602 175.7594,481.7548"/>
    <line x1="173.5864" x2="173.5864" y1="493.8423" y2="483.9906"/>
    <polygon points="218.4606,503.2812 218.4606,496.6491 236.1271,496.6491 236.1271,503.2812"/>
    <polygon points="228.838,499.9651 228.4497,500.9891 227.48,501.498 226.138,500.9891 225.7497,499.9651 226.138,498.9412 227.1077,498.4322 228.171,498.6943"/>
    <line x1="227.2939" x2="227.2939" y1="516.8392" y2="525.7241"/>
    <polygon points="226.6441,525.7241 224.2771,532.4192 230.3106,532.4192 227.9436,525.7241"/>
    <line x1="223.6724" x2="223.6724" y1="525.7241" y2="516.8392"/>
    <line x1="220.0509" x2="220.0509" y1="516.8392" y2="525.7241"/>
    <polyline points="216.4294,525.7241 216.4294,516.8392 238.1583,516.8392 238.1583,525.7241 216.4294,525.7241 216.4294,516.8392"/>
    <polygon points="216.4294,516.8392 216.4294,510.1243 238.1583,510.1243 236.1271,503.2812 218.4606,503.2812 216.4294,510.1243 238.1583,510.1243 238.1583,516.8392"/>
    <line x1="230.9154" x2="230.9154" y1="516.8392" y2="525.7241"/>
    <polygon points="233.2823,525.7241 230.9154,532.4192 236.9489,532.4192 234.5819,525.7241"/>
    <line x1="234.5368" x2="234.5368" y1="525.7241" y2="516.8392"/>
    <polygon points="223.6724,532.4192 221.3054,525.7241 220.0058,525.7241 217.6388,532.4192"/>
    <polygon points="236.1271,480.5643 218.4606,480.5643 236.1271,480.5643 236.1271,496.6491 218.4606,496.6491 218.4606,480.5643 227.2939,447.5933"/>
    <polygon points="283.6364,519.2407 287.0584,519.2407 293.4757,515.8796 277.2191,515.8796"/>
    <polygon points="293.0087,532.4192 287.0584,519.2407 283.6364,519.2407 277.6861,532.4192"/>
    <polygon points="387.8568,526.9438 394.9472,526.9438 393.6226,519.7398 389.1815,519.7398"/>
    <polyline points="395.1328,523.3154 395.1328,512.9352 407.7761,512.9352 407.7761,503.629 395.1328,503.629 395.1328,512.9352 407.7761,512.9352 407.7761,523.3154 395.1328,523.3154 395.1328,512.9352"/>
    <line x1="398.2937" x2="398.2937" y1="512.9352" y2="523.3154"/>
    <polygon points="399.6679,523.3154 396.3423,532.4192 406.5667,532.4192 403.2411,523.3154"/>
    <line x1="401.4545" x2="401.4545" y1="523.3154" y2="512.9352"/>
    <line x1="404.6153" x2="404.6153" y1="512.9352" y2="523.3154"/>
    <polygon points="409.2864,519.7398 407.7761,518.2542 415.2378,518.2542 413.7275,519.7398"/>
    <polygon points="415.0522,526.9438 407.9617,526.9438 409.2864,519.7398 413.7275,519.7398"/>
    <polygon points="395.1328,518.2542 387.6712,518.2542 387.6712,487.6543 395.1328,479.7029 395.1328,487.6543 387.6712,487.6543 395.1328,487.6543"/>
    <polygon points="393.6226,519.7398 395.1328,518.2542 387.6712,518.2542 389.1815,519.7398"/>
    <polyline points="395.1328,503.629 395.1328,498.2015 407.7761,498.2015 407.7761,491.7856 395.1328,491.7856 395.1328,498.2015 407.7761,498.2015 407.7761,503.629 395.1328,503.629 395.1328,498.2015"/>
    <line x1="398.2937" x2="398.2937" y1="498.2015" y2="503.629"/>
    <line x1="401.4545" x2="401.4545" y1="503.629" y2="498.2015"/>
    <line x1="404.6153" x2="404.6153" y1="498.2015" y2="503.629"/>
    <polygon points="407.7761,491.7856 395.1328,491.7856 395.1328,476.9934 407.7761,476.9934"/>
    <polygon points="407.7761,487.6543 407.7761,518.2542 415.2378,518.2542 415.2378,487.6543 407.7761,479.7029 407.7761,487.6543 415.2378,487.6543"/>
    <polyline points="457.0257,592.6716 457.0257,598.6105 461.9903,598.6105 461.9903,592.6716 457.0257,592.6716 457.6989,591.6952 459.508,590.8347 461.3171,591.6952 461.9903,592.6716"/>
    <polygon points="462.4639,607.3969 461.9903,598.6105 457.0257,598.6105 456.5522,607.3969 462.4639,607.3969 462.4639,623.4071 456.5522,623.4071 456.5522,607.3969"/>
    <polygon points="459.508,621.9385 460.2423,623.4071 458.7737,623.4071"/>
    <polygon points="456.3839,627.1384 462.6321,627.1384 462.4639,623.4071 456.5522,623.4071 456.3839,627.1384 462.6321,627.1384 462.6321,646.4568 456.3839,646.4568"/>
    <polygon points="462.6321,646.4568 462.6321,668.6025 456.3839,668.6025 456.3839,646.4568"/>
    <polygon points="462.6321,668.6025 462.6321,692.7072 456.3839,692.7072 456.3839,668.6025"/>
    <polygon points="456.3839,715.247 456.3839,692.7072 462.6321,692.7072 462.6321,715.247"/>
    <polygon points="465.6217,719.6784 462.6321,715.247 456.3839,715.247 453.3943,719.6784 465.6217,719.6784 465.6217,737.3036 453.3943,737.3036 453.3943,719.6784"/>
    <polygon points="476.5749,735.1984 476.5749,739.4089 465.6217,737.3036 465.6217,719.6784"/>
    <polygon points="454.6038,750.12 464.4123,750.12 461.2727,737.3036 457.7434,737.3036"/>
    <polygon points="442.4411,735.1984 442.4411,739.4089 453.3943,737.3036 453.3943,719.6784"/>
    <line x1="407.9224" x2="394.9866" y1="732.7719" y2="732.7719"/>
    <polygon points="393.9755,732.7719 408.9334,732.7719 408.9334,741.3314 393.9755,741.3314"/>
    <line x1="394.9866" x2="407.9224" y1="729.3535" y2="729.3535"/>
    <polygon points="394.9866,725.935 407.9224,725.935 407.9224,732.7719 394.9866,732.7719"/>
    <polyline points="396.0507,707.2283 396.0507,725.935 406.8583,725.935 406.8583,707.2283 396.0507,707.2283 406.8583,707.2283"/>
    <line x1="406.8583" x2="396.0507" y1="704.2665" y2="704.2665"/>
    <line x1="396.0507" x2="406.8583" y1="701.3046" y2="701.3046"/>
    <line x1="406.8583" x2="396.0507" y1="698.3428" y2="698.3428"/>
    <line x1="396.0507" x2="406.8583" y1="695.3809" y2="695.3809"/>
    <line x1="406.8583" x2="396.0507" y1="692.4191" y2="692.4191"/>
    <line x1="396.0507" x2="406.8583" y1="689.4572" y2="689.4572"/>
    <polygon points="406.8583,686.4953 396.0507,686.4953 406.8583,686.4953 406.8583,707.2283 396.0507,707.2283 396.0507,686.4953 401.4545,667.187"/>
    <polyline points="350.7677,676.9816 350.1872,673.2938 348.7235,670.3186 346.2193,667.7366 343.4009,666.2966 340.5825,667.7366 338.0784,670.3186 336.6147,673.2938 336.0342,676.9816 350.7677,676.9816 350.7677,700.5482 336.0342,700.5482 336.0342,676.9816"/>
    <polygon points="343.2148,685.0947 344.6772,685.3188 345.9328,686.1014 346.778,687.3157 347.0758,688.7649 346.9073,689.865 346.1893,691.1586 345.0193,692.0642 343.5871,692.435 342.1246,692.211 340.8691,691.4284 340.0239,690.2141 339.7261,688.7649 339.8946,687.6648 340.6126,686.3712 341.7826,685.4656"/>
    <line x1="343.4009" x2="343.4009" y1="712.7851" y2="727.6162"/>
    <line x1="339.7175" x2="339.7175" y1="727.6162" y2="712.7851"/>
    <polygon points="336.0342,712.7851 336.0342,700.5482 350.7677,700.5482 350.7677,712.7851"/>
    <polyline points="336.0342,712.7851 336.0342,727.6162 350.7677,727.6162 350.7677,712.7851 336.0342,712.7851 336.0342,727.6162"/>
    <line x1="333.9047" x2="352.8972" y1="736.4671" y2="736.4671"/>
    <line x1="352.8972" x2="333.9047" y1="740.3221" y2="740.3221"/>
    <polygon points="333.9047,744.1771 333.9047,732.6121 352.8972,732.6121 350.7677,727.6162 336.0342,727.6162 333.9047,732.6121 352.8972,732.6121 352.8972,744.1771"/>
    <line x1="333.9047" x2="352.8972" y1="744.1771" y2="744.1771"/>
    <polygon points="345.6947,744.1771 343.7033,750.12 351.6877,750.12 349.6964,744.1771"/>
    <polygon points="337.1055,744.1771 335.1141,750.12 343.0986,750.12 341.1072,744.1771"/>
    <line x1="347.0843" x2="347.0843" y1="727.6162" y2="712.7851"/>
    <line x1="288.5176" x2="288.5176" y1="715.8405" y2="705.2407"/>
    <line x1="285.3474" x2="285.3474" y1="705.2407" y2="715.8405"/>
    <line x1="282.1772" x2="282.1772" y1="715.8405" y2="705.2407"/>
    <polyline points="279.007,705.2407 291.6878,705.2407 291.6878,715.8405 279.007,715.8405 279.007,705.2407 279.007,715.8405 291.6878,715.8405 291.6878,725.3138 279.007,725.3138 279.007,715.8405"/>
    <polygon points="286.7802,718.6958 286.7802,720.6968 283.9146,720.6968 283.9146,718.6958"/>
    <polygon points="285.3474,703.7561 286.0897,705.2407 284.6051,705.2407"/>
    <polyline points="291.6878,692.6946 279.007,692.6946 291.6878,692.6946 291.6878,705.2407 279.007,705.2407 279.007,692.6946"/>
    <line x1="279.007" x2="291.6878" y1="690.7422" y2="690.7422"/>
    <line x1="291.6878" x2="279.007" y1="688.7898" y2="688.7898"/>
    <line x1="279.007" x2="291.6878" y1="686.8374" y2="686.8374"/>
    <line x1="291.6878" x2="279.007" y1="684.885" y2="684.885"/>
    <line x1="279.007" x2="291.6878" y1="682.9326" y2="682.9326"/>
    <line x1="291.6878" x2="279.007" y1="680.9802" y2="680.9802"/>
    <line x1="279.007" x2="291.6878" y1="679.0278" y2="679.0278"/>
    <polygon points="291.6878,677.0754 279.007,677.0754 291.6878,677.0754 291.6878,692.6946 279.007,692.6946 279.007,677.0754 285.3474,668.104"/>
    <polygon points="235.7877,673.8968 218.8,673.8968 218.8,650.0091 235.7877,650.0091 234.7042,640.6017 219.8835,640.6017 218.8,650.0091 235.7877,650.0091"/>
    <polygon points="218.8,683.2385 235.7877,683.2385 235.7877,694.5066 218.8,694.5066 218.8,683.2385 235.7877,683.2385 235.7877,673.8968 218.8,673.8968"/>
    <polygon points="218.8,694.5066 235.7877,694.5066 235.7877,716.4261 218.8,716.4261"/>
    <polygon points="235.7877,716.4261 235.7877,736.4637 218.8,736.4637 218.8,716.4261"/>
    <polygon points="237.6782,732.972 242.456,732.972 243.4116,740.092 236.7226,740.092"/>
    <polygon points="242.456,732.972 237.6782,732.972 235.7877,730.3319 244.3465,730.3319"/>
    <polygon points="228.9419,736.4637 225.6458,736.4637 220.0094,750.12 234.5783,750.12"/>
    <polygon points="218.8,730.3319 210.2412,730.3319 210.2412,653.219 214.5206,646.1869 218.8,653.219 210.2412,653.219 218.8,653.219"/>
    <polygon points="212.1317,732.972 216.9095,732.972 218.8,730.3319 210.2412,730.3319"/>
    <polygon points="211.1761,740.092 217.8651,740.092 216.9095,732.972 212.1317,732.972"/>
    <line x1="177.1282" x2="177.1282" y1="740.538" y2="729.1861"/>
    <line x1="173.1843" x2="173.1843" y1="729.1861" y2="740.538"/>
    <line x1="169.2403" x2="169.2403" y1="740.538" y2="729.1861"/>
    <line x1="165.2963" x2="165.2963" y1="729.1861" y2="740.538"/>
    <line x1="161.3524" x2="161.3524" y1="740.538" y2="729.1861"/>
    <polyline points="157.4084,729.1861 157.4084,740.538 181.0722,740.538 181.0722,729.1861 157.4084,729.1861 157.6715,723.3446 180.8091,723.3446 181.0722,729.1861 157.4084,729.1861 157.4084,740.538"/>
    <polygon points="158.6179,750.12 179.8628,750.12 173.2903,740.538 165.1903,740.538"/>
    <polyline points="157.6715,723.3446 157.6715,709.5694 180.8091,709.5694 180.3897,701.5372 158.091,701.5372 157.6715,709.5694 180.8091,709.5694 180.8091,723.3446 157.6715,723.3446 157.6715,709.5694"/>
    <line x1="160.5637" x2="160.5637" y1="709.5694" y2="723.3446"/>
    <line x1="163.4559" x2="163.4559" y1="723.3446" y2="709.5694"/>
    <line x1="166.3481" x2="166.3481" y1="709.5694" y2="723.3446"/>
    <line x1="169.2403" x2="169.2403" y1="723.3446" y2="709.5694"/>
    <line x1="172.1325" x2="172.1325" y1="709.5694" y2="723.3446"/>
    <line x1="175.0247" x2="175.0247" y1="723.3446" y2="709.5694"/>
    <line x1="177.9169" x2="177.9169" y1="709.5694" y2="723.3446"/>
    <line x1="180.3897" x2="158.091" y1="701.5372" y2="701.5372"/>
    <line x1="158.091" x2="180.3897" y1="699.3254" y2="699.3254"/>
    <line x1="180.3897" x2="158.091" y1="697.1137" y2="697.1137"/>
    <line x1="158.091" x2="180.3897" y1="694.9019" y2="694.9019"/>
    <line x1="180.3897" x2="158.091" y1="692.6901" y2="692.6901"/>
    <line x1="158.091" x2="180.3897" y1="690.4783" y2="690.4783"/>
    <line x1="178.1598" x2="178.1598" y1="688.2665" y2="677.2265"/>
    <line x1="175.9299" x2="175.9299" y1="677.2265" y2="688.2665"/>
    <line x1="173.7001" x2="173.7001" y1="688.2665" y2="677.2265"/>
    <line x1="171.4702" x2="171.4702" y1="677.2265" y2="688.2665"/>
    <line x1="169.2403" x2="169.2403" y1="688.2665" y2="677.2265"/>
    <line x1="167.0104" x2="167.0104" y1="677.2265" y2="688.2665"/>
    <line x1="164.7806" x2="164.7806" y1="688.2665" y2="677.2265"/>
    <line x1="162.5507" x2="162.5507" y1="677.2265" y2="688.2665"/>
    <line x1="160.3208" x2="160.3208" y1="688.2665" y2="677.2265"/>
    <polyline points="158.091,677.2265 180.3897,677.2265 180.3897,688.2665 158.091,688.2665 158.091,677.2265 180.3897,677.2265 179.6061,669.2008 158.8746,669.2008 158.091,677.2265 158.091,688.2665 180.3897,688.2665 180.3897,701.5372 158.091,701.5372 158.091,688.2665"/>
    <polygon points="164.3053,665.8663 174.1753,665.7846"/>
    <polygon points="166.8836,654.3923 171.5971,654.3923 171.5971,654.8992 166.8836,654.8992"/>
    <polyline points="160.4553,645.9763 160.4553,657.9036 178.0253,657.9036 178.0253,645.9763 160.4553,645.9763 161.0245,644.6453 162.7245,643.3324 165.532,642.0556 169.2403,640.8782 172.9487,642.0556 175.7561,643.3324 177.4561,644.6453 178.0253,645.9763"/>
    <polygon points="179.6061,661.9989 179.6061,669.2008 158.8746,669.2008 158.8746,661.9989 179.6061,661.9989 178.0253,657.9036 160.4553,657.9036 158.8746,661.9989"/>
    <line x1="219.8835" x2="234.7042" y1="640.6017" y2="640.6017"/>
    <line x1="232.8903" x2="221.6974" y1="635.3411" y2="635.3411"/>
    <polygon points="219.8835,635.3411 234.7042,635.3411 234.7042,640.6017 219.8835,640.6017"/>
    <line x1="221.6974" x2="232.8903" y1="632.6807" y2="632.6807"/>
    <line x1="232.8903" x2="221.6974" y1="630.0202" y2="630.0202"/>
    <line x1="221.6974" x2="232.8903" y1="627.3598" y2="627.3598"/>
    <line x1="232.8903" x2="221.6974" y1="624.6994" y2="624.6994"/>
    <polygon points="232.8903,622.039 221.6974,622.039 232.8903,622.039 232.8903,635.3411 221.6974,635.3411 221.6974,622.039 227.2939,615.1631"/>
    <polygon points="235.7877,653.219 235.7877,730.3319 244.3465,730.3319 244.3465,653.219 240.0671,646.1869 235.7877,653.219 244.3465,653.219"/>
    <polygon points="274.4408,740.4851 274.4408,744.5296 279.007,742.5074 279.007,725.3138"/>
    <polyline points="283.8568,742.5074 281.7435,744.3982 280.2104,746.324 279.3079,748.2213 279.007,750.12 291.6878,750.12 291.3869,748.2213 290.4844,746.324 288.9513,744.3982 286.838,742.5074"/>
    <polygon points="291.6878,742.5074 279.007,742.5074 279.007,725.3138 291.6878,725.3138"/>
    <polygon points="296.254,744.5296 291.6878,742.5074 291.6878,725.3138 296.254,740.4851"/>
    <polyline points="290.8746,825.7972 290.4633,824.6429 289.2848,823.6449 287.499,822.9384 285.3474,822.6189 283.1958,822.9384 281.41,823.6449 280.2315,824.6429 279.8202,825.7972 290.8746,825.7972 290.8746,842.1248 279.8202,842.1248 279.8202,825.7972"/>
    <polygon points="407.724,750.12 404.664,741.3314 398.245,741.3314 395.185,750.12"/>
    <polygon points="523.8067,879.9828 523.8067,900.4625 511.3164,900.4625 511.3164,879.9828 523.8067,879.9828 523.6221,873.6654 511.5011,873.6654 511.3164,879.9828"/>
    <polygon points="508.8422,908.0624 526.2809,908.0624 523.8067,900.4625 511.3164,900.4625 508.8422,908.0624 526.2809,908.0624 526.2809,928.7768 508.8422,928.7768"/>
    <polygon points="527.0343,935.4812 527.0343,947.1506 508.0889,947.1506 508.0889,935.4812 527.0343,935.4812 526.2809,928.7768 508.8422,928.7768 508.0889,935.4812"/>
    <polygon points="512.4763,956.8107 512.4763,959.7898 522.6469,959.7898 522.6469,956.8107"/>
    <polygon points="510.8918,963.4025 508.1506,963.4025 507.1434,967.8208 511.899,967.8208"/>
    <polygon points="512.5037,967.8208 517.2592,967.8208 516.2521,963.4025 513.5108,963.4025"/>
    <polygon points="521.6123,963.4025 518.8711,963.4025 517.8639,967.8208 522.6195,967.8208"/>
    <polygon points="524.2313,963.4025 523.2242,967.8208 527.9797,967.8208 526.9726,963.4025"/>
    <polygon points="529.1892,963.4025 505.934,963.4025 505.934,951.7379 529.1892,951.7379 527.0343,947.1506 508.0889,947.1506 505.934,951.7379 529.1892,951.7379"/>
    <polyline points="573.6068,956.4401 571.3582,958.7953 569.6835,961.6475 568.6748,964.8397 568.3831,967.8208 582.8472,967.8208 582.4783,964.4736 581.3922,961.3107 579.872,958.7953 577.6234,956.4401"/>
    <polygon points="582.8472,949.3136 582.8472,956.4401 568.3831,956.4401 568.3831,949.3136"/>
    <line x1="580.4365" x2="580.4365" y1="940.7279" y2="930.0098"/>
    <line x1="578.0258" x2="578.0258" y1="930.0098" y2="940.7279"/>
    <line x1="575.6151" x2="575.6151" y1="940.7279" y2="930.0098"/>
    <line x1="573.2044" x2="573.2044" y1="930.0098" y2="940.7279"/>
    <line x1="570.7938" x2="570.7938" y1="940.7279" y2="930.0098"/>
    <polyline points="568.3831,930.0098 582.8472,930.0098 581.0869,920.5007 570.1434,920.5007 568.3831,930.0098 582.8472,930.0098 582.8472,940.7279 568.3831,940.7279 568.3831,930.0098 568.3831,940.7279 582.8472,940.7279 582.8472,949.3136 568.3831,949.3136 568.3831,940.7279"/>
    <polyline points="570.1434,903.0586 570.1434,920.5007 581.0869,920.5007 581.0869,903.0586 570.1434,903.0586 570.1434,881.2301 571.7846,872.4816 579.4456,872.4816 581.0869,881.2301 570.1434,881.2301 570.1434,903.0586 581.0869,903.0586 581.0869,881.2301 570.1434,881.2301"/>
    <line x1="572.8792" x2="572.8792" y1="881.2301" y2="903.0586"/>
    <line x1="575.6151" x2="575.6151" y1="903.0586" y2="881.2301"/>
    <line x1="578.351" x2="578.351" y1="881.2301" y2="903.0586"/>
    <polygon points="579.4456,872.4816 571.7846,872.4816 571.7846,856.9115 579.4456,856.9115"/>
    <polygon points="578.2386,847.4545 578.2386,856.9115 572.9916,856.9115 572.9916,847.4545 575.1303,841.4134 576.1,841.4134 578.2386,847.4545 572.9916,847.4545"/>
    <polygon points="575.1303,835.9883 576.1,835.9883 576.1,841.4134 575.1303,841.4134"/>
    <polygon points="575.1303,831.0501 576.1,831.0501 576.1,835.9883 575.1303,835.9883"/>
    <polygon points="576.1,827.0682 576.1,831.0501 575.1303,831.0501 575.1303,827.0682"/>
    <polygon points="576.1,820.7069 576.1,827.0682 575.1303,827.0682 575.1303,820.7069"/>
    <polygon points="629.0459,886.1327 638.2914,886.1327 638.2914,898.206 629.0459,898.206"/>
    <polygon points="638.2914,881.0524 629.0459,881.0524 638.2914,881.0524 638.2914,886.1327 629.0459,886.1327 629.0459,881.0524 633.6687,870.638"/>
    <line x1="635.3002" x2="635.3002" y1="907.5691" y2="915.2444"/>
    <line x1="632.0372" x2="632.0372" y1="915.2444" y2="907.5691"/>
    <polyline points="628.7742,907.5691 638.5632,907.5691 638.5632,915.2444 628.7742,915.2444 628.7742,907.5691 638.5632,907.5691 638.2914,898.206 629.0459,898.206 628.7742,915.2444 638.5632,915.2444 638.5632,933.1321 628.7742,933.1321 628.7742,915.2444"/>
    <polygon points="626.824,920.7972 628.7742,920.7972 628.7742,927.5793 626.824,927.5793"/>
    <polygon points="638.5632,920.7972 640.5133,920.7972 640.5133,927.5793 638.5632,927.5793"/>
    <polygon points="631.7524,961.8666 630.0707,961.8666 628.4568,967.8208 633.3663,967.8208"/>
    <polygon points="627.2473,961.8666 627.2473,939.6661 640.09,939.6661 638.5632,933.1321 628.7742,933.1321 627.2473,939.6661 640.09,939.6661 640.09,961.8666"/>
    <polygon points="633.971,967.8208 638.8806,967.8208 637.2666,961.8666 635.5849,961.8666"/>
    <polygon points="469.9292,967.8208 466.8559,959.6726 462.8836,959.6726 459.8104,967.8208"/>
    <polygon points="449.0869,967.8208 459.2057,967.8208 456.1324,959.6726 452.1601,959.6726"/>
    <polygon points="459.8104,314.7184 467.3685,314.7184 464.9533,307.4765 462.2256,307.4765"/>
    <polygon points="454.0628,307.4765 451.6475,314.7184 459.2057,314.7184 456.7904,307.4765"/>
    <polygon points="450.4381,296.8445 446.0082,305.9156 446.0082,309.0373 450.4381,307.4765"/>
    <polygon points="451.2362,287.3894 451.2362,281.4407 467.7798,281.4407 467.7798,287.3894"/>
    <polygon points="466.9868,281.4407 452.0293,281.4407 452.0293,260.4598 466.9868,260.4598"/>
    <polygon points="468.578,296.8445 467.7798,287.3894 451.2362,287.3894 450.4381,296.8445 468.578,296.8445 468.578,307.4765 450.4381,307.4765 450.4381,296.8445"/>
    <polygon points="473.0078,309.0373 468.578,307.4765 468.578,296.8445 473.0078,305.9156"/>
    <polygon points="513.5474,299.6624 521.5757,299.6624 524.3065,296.1127 510.8166,296.1127"/>
    <polygon points="519.1239,296.1127 515.9992,296.1127 517.5616,292.988"/>
    <polygon points="521.5757,299.6624 513.5474,299.6624 511.9417,314.7184 523.1814,314.7184"/>
    <polygon points="524.3065,273.7466 524.3065,296.1127 510.8166,296.1127 510.8166,273.7466"/>
    <polygon points="510.8166,266.1481 524.3065,266.1481 524.3065,273.7466 510.8166,273.7466 510.8166,266.1481 524.3065,266.1481 523.4055,259.0117 511.7176,259.0117"/>
    <polygon points="518.815,259.0117 516.3082,259.0117 517.5616,256.505"/>
    <polygon points="523.4055,253.8274 523.4055,259.0117 511.7176,259.0117 511.7176,253.8274"/>
    <polygon points="517.5616,251.063 518.9438,253.8274 516.1794,253.8274"/>
    <polygon points="511.7176,253.8274 511.7176,243.6493 523.4055,243.6493 523.4055,253.8274"/>
    <polygon points="514.6561,215.9077 514.6561,199.1256 520.4671,199.1256 520.4671,215.9077"/>
    <polygon points="520.4671,215.9077 514.6561,215.9077 514.3125,220.4753 520.8106,220.4753 520.8106,243.6493 514.3125,243.6493 514.3125,220.4753 520.8106,220.4753"/>
    <polyline points="520.4671,179.3666 519.7752,178.1675 517.5616,176.9712 515.3479,178.1675 514.6561,179.3666 520.4671,179.3666 520.4671,199.1256 514.6561,199.1256 514.6561,179.3666"/>
    <polyline points="465.0398,174.3022 464.9882,157.7754 464.4196,156.7679 462.999,155.786 459.508,155.0883 456.017,155.786 454.5965,156.7679 454.0278,157.7754 453.9763,174.3022"/>
    <polygon points="460.5101,185.9044 459.508,186.3195 458.506,185.9044 458.0909,184.9024 458.506,183.9003 459.508,183.4853 460.5101,183.9003 460.9251,184.9024"/>
    <polygon points="462.797,189.0592 456.2191,189.0592 456.2191,180.7455 462.797,180.7455 465.0398,174.3022 453.9763,174.3022 456.2191,180.7455 462.797,180.7455"/>
    <polygon points="462.797,189.0592 462.797,208.1414 456.2191,208.1414 456.2191,189.0592"/>
    <polygon points="454.5887,216.3567 464.4274,216.3567 462.797,208.1414 456.2191,208.1414 454.5887,216.3567 464.4274,216.3567 464.4274,237.5963 454.5887,237.5963"/>
    <polygon points="456.9088,223.544 462.1073,223.6163"/>
    <polygon points="464.4274,237.5963 454.5887,237.5963 452.0293,246.4571 466.9868,246.4571 466.9868,260.4598 452.0293,260.4598 452.0293,246.4571 466.9868,246.4571"/>
    <polygon points="408.2527,246.7914 394.6562,246.7914 394.6562,241.7946 408.2527,241.7946 405.261,237.4783 397.648,237.4783 394.6562,241.7946 408.2527,241.7946"/>
    <line x1="408.2527" x2="394.6562" y1="249.3611" y2="249.3611"/>
    <polygon points="394.6562,246.7914 408.2527,246.7914 408.2527,269.9194 394.6562,269.9194"/>
    <line x1="394.6562" x2="408.2527" y1="251.9309" y2="251.9309"/>
    <line x1="408.2527" x2="394.6562" y1="254.5007" y2="254.5007"/>
    <line x1="394.6562" x2="408.2527" y1="257.0705" y2="257.0705"/>
    <line x1="408.2527" x2="394.6562" y1="259.6403" y2="259.6403"/>
    <line x1="394.6562" x2="408.2527" y1="262.2101" y2="262.2101"/>
    <line x1="408.2527" x2="394.6562" y1="264.7798" y2="264.7798"/>
    <line x1="394.6562" x2="408.2527" y1="267.3496" y2="267.3496"/>
    <line x1="408.2527" x2="394.6562" y1="269.9194" y2="269.9194"/>
    <line x1="392.1404" x2="410.7686" y1="281.8471" y2="281.8471"/>
    <polygon points="410.7686,285.8774 392.1404,285.8774 392.1404,277.8167 410.7686,277.8167 408.2527,269.9194 394.6562,269.9194 392.1404,277.8167 410.7686,277.8167"/>
    <polyline points="410.7686,285.8774 392.1404,285.8774 410.7686,285.8774 410.7686,304.9748 392.1404,304.9748 392.1404,285.8774 392.1404,304.9748 387.8283,304.9748 387.8283,303.9118 392.1404,285.8774 392.1404,304.9748"/>
    <line x1="395.2451" x2="395.2451" y1="304.9748" y2="285.8774"/>
    <line x1="398.3498" x2="398.3498" y1="285.8774" y2="304.9748"/>
    <line x1="401.4545" x2="401.4545" y1="304.9748" y2="285.8774"/>
    <line x1="404.5592" x2="404.5592" y1="285.8774" y2="304.9748"/>
    <polygon points="404.9382,304.9748 397.9708,304.9748 393.3498,314.7184 409.5592,314.7184"/>
    <line x1="407.6639" x2="407.6639" y1="304.9748" y2="285.8774"/>
    <polygon points="415.0806,303.9118 415.0806,304.9748 410.7686,304.9748 410.7686,285.8774"/>
    <polygon points="350.1937,291.2401 350.1937,305.9632 336.6081,305.9632 336.6081,291.2401"/>
    <polygon points="350.1937,281.4281 336.6081,281.4281 336.6081,257.805 350.1937,257.805"/>
    <polygon points="336.6081,281.4281 350.1937,281.4281 350.1937,291.2401 336.6081,291.2401"/>
    <polygon points="336.6081,257.805 336.6081,234.2036 350.1937,234.2036 348.5862,226.6729 338.2157,226.6729 336.6081,234.2036 350.1937,234.2036 350.1937,257.805"/>
    <polygon points="345.779,246.0043 345.0825,247.6859 343.4009,248.3824 341.7194,247.6859 341.0229,246.0043 341.7194,244.3228 343.4009,243.6262 345.0825,244.3228"/>
    <polygon points="341.1197,218.4043 341.6879,216.7025 343.3088,215.9334 344.9863,216.5696 345.6896,218.2202 344.9863,219.8707 343.6768,220.4921 341.9535,219.993"/>
    <polygon points="344.4809,209.7674 342.3209,209.7674 343.4009,207.6074"/>
    <polygon points="348.5862,209.7674 348.5862,226.6729 338.2157,226.6729 338.2157,209.7674"/>
    <polyline points="348.5862,200.5769 348.2621,198.8818 347.2898,197.1867 345.6694,195.4919 343.4009,193.7972 341.1325,195.4919 339.5121,197.1867 338.5398,198.8818 338.2157,200.5769 348.5862,200.5769 348.5862,209.7674 338.2157,209.7674 338.2157,200.5769"/>
    <polyline points="395.3778,190.1312 395.3778,174.5351 395.6428,172.6859 396.4145,170.998 397.9119,169.3908 399.5083,168.5371 401.6346,168.2063 403.7383,168.6677 405.2833,169.6185 406.4945,170.998 407.2662,172.6859 407.5311,174.5351 407.5311,190.1312"/>
    <polygon points="405.261,213.5469 397.648,213.5469 397.648,197.2923 405.261,197.2923 407.5311,190.1312 395.3778,190.1312 397.648,197.2923 405.261,197.2923"/>
    <line x1="405.261" x2="397.648" y1="216.206" y2="216.206"/>
    <line x1="397.648" x2="405.261" y1="218.865" y2="218.865"/>
    <line x1="405.261" x2="397.648" y1="221.524" y2="221.524"/>
    <line x1="397.648" x2="405.261" y1="224.1831" y2="224.1831"/>
    <line x1="405.261" x2="397.648" y1="226.8421" y2="226.8421"/>
    <line x1="397.648" x2="405.261" y1="229.5012" y2="229.5012"/>
    <line x1="405.261" x2="397.648" y1="232.1602" y2="232.1602"/>
    <line x1="397.648" x2="405.261" y1="234.8193" y2="234.8193"/>
    <line x1="405.261" x2="397.648" y1="237.4783" y2="237.4783"/>
    <polygon points="397.648,237.4783 397.648,213.5469 405.261,213.5469 405.261,237.4783"/>
    <polygon points="339.8612,305.9632 337.8176,314.7184 343.0986,314.7184 341.055,305.9632"/>
    <polygon points="348.9843,314.7184 346.9407,305.9632 345.7469,305.9632 343.7033,314.7184"/>
    <polygon points="162.7773,212.3073 162.5029,218.0388 175.9777,218.0388 175.9777,240.8594 162.5029,240.8594 162.5029,218.0388 175.9777,218.0388 175.7034,212.3073"/>
    <polygon points="172.8101,192.0278 165.6705,192.0278 162.7773,201.3716 175.7034,201.3716 175.7034,212.3073 162.7773,212.3073 162.7773,201.3716 175.7034,201.3716"/>
    <polygon points="168.6795,185.7499 168.5128,185.0737 169.3306,184.5092 169.9896,185.253 169.3306,185.9969"/>
    <polygon points="172.292,174.3372 166.1886,174.3372 165.6705,178.4783 172.8101,178.4783 172.8101,192.0278 165.6705,192.0278 165.6705,178.4783 172.8101,178.4783"/>
    <polygon points="169.2403,154.6989 172.292,160.3872 166.1886,160.3872 172.292,160.3872 172.292,174.3372 166.1886,174.3372 166.1886,160.3872"/>
    <polygon points="565.4706,279.8037 565.4706,264.1147 585.7597,264.1147 585.7597,279.8037"/>
    <polygon points="572.6455,279.8037 575.6151,273.8645 578.5847,279.8037"/>
    <polygon points="570.2243,303.1014 565.6444,314.7184 585.5859,314.7184 581.0059,303.1014"/>
    <polygon points="564.4349,303.1014 564.4349,286.7075 586.7953,286.7075 585.7597,279.8037 565.4706,279.8037 564.4349,286.7075 586.7953,286.7075 586.7953,303.1014"/>
    <polygon points="585.7597,253.9315 585.7597,264.1147 565.4706,264.1147 565.4706,253.9315 585.7597,253.9315 585.6714,244.8204 565.5588,244.8204 565.4706,253.9315"/>
    <polygon points="585.6714,225.7822 585.6714,244.8204 565.5588,244.8204 565.5588,225.7822"/>
    <polygon points="583.3991,225.7822 567.8311,225.7822 567.8311,206.7834 583.3991,206.7834"/>
    <polygon points="583.3991,206.7834 567.8311,206.7834 567.8311,194.0631 575.6151,173.1089 583.3991,194.0631 567.8311,194.0631 583.3991,194.0631"/>
    <polyline points="627.2694,238.5309 627.3667,219.5221 628.1268,218.4203 629.5553,217.5221 631.48,216.9358 633.6687,216.7322 635.8573,216.9358 637.782,217.5221 639.2105,218.4203 639.9707,219.5221 640.0679,238.5309"/>
    <polygon points="637.6966,264.0977 629.6407,264.0977 629.6407,245.4364 637.6966,245.4364 640.0679,238.5309 627.2694,238.5309 629.6407,245.4364 637.6966,245.4364"/>
    <polygon points="640.142,271.2715 637.6966,264.0977 629.6407,264.0977 627.1953,271.2715 640.142,271.2715 640.142,279.0974 627.1953,279.0974 627.1953,271.2715"/>
    <polygon points="637.1508,285.8133 630.1866,285.8133 630.1866,286.156 637.1508,286.156"/>
    <polygon points="627.1301,279.0974 640.2072,279.0974 640.2072,293.1563 627.1301,293.1563"/>
    <polygon points="627.1301,293.1563 640.2072,293.1563 640.2072,304.6517 627.1301,304.6517"/>
    <polygon points="635.4903,304.6517 631.847,304.6517 628.3396,314.7184 638.9978,314.7184"/>
  </g>
</svg>
