<?xml version="1.0" encoding="utf-8" ?>
<svg xmlns="http://www.w3.org/2000/svg" xmlns:cc="http://creativecommons.org/ns#" xmlns:dc="http://purl.org/dc/elements/1.1/" xmlns:ev="http://www.w3.org/2001/xml-events" xmlns:inkscape="http://www.inkscape.org/namespaces/inkscape" xmlns:rdf="http://www.w3.org/1999/02/22-rdf-syntax-ns#" xmlns:sodipodi="http://sodipodi.sourceforge.net/DTD/sodipodi-0.dtd" xmlns:xlink="http://www.w3.org/1999/xlink" baseProfile="tiny" height="29.7cm" version="1.2" viewBox="0 0 793.7007874015749 1122.5196850393702" width="21.0cm">
  <metadata>
    <rdf:RDF>
      <cc:Work>
        <dc:format>image/svg+xml</dc:format>
        <dc:source/>
        <dc:date>2021-11-13T21:40:52.029028</dc:date>
      </cc:Work>
    </rdf:RDF>
  </metadata>
  <defs/>
  <g fill="none" id="layer1" inkscape:groupmode="layer" inkscape:label="1" stroke="#00f" style="display:inline">
    <polygon points="205.9025,1019.1683 196.206,1019.1683 192.881,1025.0285 209.2275,1025.0285"/>
    <line x1="191.6716" x2="227.3881" y1="1019.1683" y2="1019.1683"/>
    <polygon points="227.3881,1019.1683 191.6716,1019.1683 191.6716,1008.5713 227.3881,1008.5713"/>
    <line x1="227.3881" x2="191.6716" y1="1015.636" y2="1015.636"/>
    <line x1="191.6716" x2="227.3881" y1="1012.1036" y2="1012.1036"/>
    <polygon points="231.0936,1007.3054 227.3881,1003.6821 242.3143,1003.6821 238.6088,1007.3054"/>
    <polygon points="222.8537,1019.1683 213.1572,1019.1683 209.8322,1025.0285 226.1787,1025.0285"/>
    <polygon points="228.9377,1022.7967 231.0936,1007.3054 238.6088,1007.3054 240.7647,1022.7967"/>
    <polygon points="227.3881,984.7784 191.6716,984.7784 191.6716,989.0918 227.3881,989.0918 227.3881,1008.5713 191.6716,1008.5713 191.6716,989.0918 227.3881,989.0918"/>
    <polygon points="227.3881,960.1414 191.6716,960.1414 191.6716,943.8082 227.3881,943.8082 227.3881,934.6086 191.6716,934.6086 191.6716,943.8082 227.3881,943.8082"/>
    <polygon points="191.6716,964.0388 227.3881,964.0388 227.3881,984.7784 191.6716,984.7784 191.6716,964.0388 227.3881,964.0388 227.3881,960.1414 191.6716,960.1414"/>
    <polygon points="176.7454,1003.6821 180.4509,1007.3054 187.9662,1007.3054 191.6716,1003.6821"/>
    <polygon points="178.295,1022.7967 190.122,1022.7967 187.9662,1007.3054 180.4509,1007.3054"/>
    <polygon points="272.9868,1002.0806 300.8824,1002.0806 300.3277,994.4078 273.5414,994.4078 272.9868,1002.0806 300.8824,1002.0806 300.8824,1020.6808 272.9868,1020.6808"/>
    <polygon points="280.8894,989.3952 280.8894,992.3164 292.9798,992.3164 292.9798,989.3952"/>
    <line x1="279.7296" x2="279.7296" y1="978.7443" y2="969.5107"/>
    <line x1="276.8476" x2="276.8476" y1="969.5107" y2="978.7443"/>
    <polyline points="273.9656,978.7443 273.9656,969.5107 299.9036,969.5107 299.9036,978.7443 273.9656,978.7443 273.9656,969.5107"/>
    <polygon points="269.5569,968.2728 269.5569,961.8959 273.9656,961.8959 273.9656,968.2728"/>
    <line x1="282.6116" x2="282.6116" y1="969.5107" y2="978.7443"/>
    <line x1="285.4936" x2="285.4936" y1="978.7443" y2="969.5107"/>
    <line x1="288.3756" x2="288.3756" y1="969.5107" y2="978.7443"/>
    <line x1="291.2576" x2="291.2576" y1="978.7443" y2="969.5107"/>
    <line x1="294.1396" x2="294.1396" y1="969.5107" y2="978.7443"/>
    <line x1="297.0216" x2="297.0216" y1="978.7443" y2="969.5107"/>
    <polygon points="299.9036,968.2728 299.9036,961.8959 304.3122,961.8959 304.3122,968.2728"/>
    <polygon points="299.9036,960.658 299.9036,969.5107 273.9656,969.5107 273.9656,960.658"/>
    <polygon points="299.9036,953.7307 299.9036,948.6186 302.0469,948.6186 302.0469,953.7307"/>
    <polygon points="299.7589,935.6742 274.1103,935.6742 273.9656,941.6913 299.9036,941.6913 299.9036,960.658 273.9656,960.658 273.9656,941.6913 299.9036,941.6913"/>
    <polygon points="292.8703,931.013 292.8703,932.2538 280.9989,932.2538 280.9989,931.013"/>
    <line x1="293.3288" x2="293.3288" y1="918.6199" y2="900.2459"/>
    <line x1="294.2589" x2="294.2589" y1="900.2459" y2="876.7519"/>
    <line x1="292.1662" x2="292.1662" y1="876.7519" y2="900.2459"/>
    <line x1="290.7711" x2="290.7711" y1="900.2459" y2="918.6199"/>
    <line x1="288.2134" x2="288.2134" y1="918.6199" y2="900.2459"/>
    <line x1="287.9809" x2="287.9809" y1="900.2459" y2="876.7519"/>
    <line x1="290.0736" x2="290.0736" y1="876.7519" y2="900.2459"/>
    <line x1="285.8882" x2="285.8882" y1="900.2459" y2="876.7519"/>
    <line x1="283.7956" x2="283.7956" y1="876.7519" y2="900.2459"/>
    <line x1="283.098" x2="283.098" y1="900.2459" y2="918.6199"/>
    <line x1="280.5403" x2="280.5403" y1="918.6199" y2="900.2459"/>
    <line x1="279.6102" x2="279.6102" y1="900.2459" y2="876.7519"/>
    <line x1="277.5176" x2="277.5176" y1="876.7519" y2="900.2459"/>
    <line x1="277.9826" x2="277.9826" y1="900.2459" y2="918.6199"/>
    <polyline points="275.4249,918.6199 275.4249,900.2459 275.4249,918.6199 298.4443,918.6199 298.4443,900.2459 275.4249,900.2459 275.4249,876.7519 275.4249,900.2459 298.4443,900.2459 298.4443,876.7519 275.4249,876.7519"/>
    <line x1="281.7029" x2="281.7029" y1="876.7519" y2="900.2459"/>
    <line x1="285.6557" x2="285.6557" y1="900.2459" y2="918.6199"/>
    <line x1="295.8865" x2="295.8865" y1="918.6199" y2="900.2459"/>
    <line x1="296.3516" x2="296.3516" y1="900.2459" y2="876.7519"/>
    <polygon points="298.4443,868.8801 298.4443,876.7519 275.4249,876.7519 275.4249,868.8801 298.4443,868.8801 297.1456,859.7105 276.7236,859.7105 275.4249,868.8801"/>
    <line x1="294.5928" x2="294.5928" y1="859.7105" y2="839.6405"/>
    <line x1="292.0401" x2="292.0401" y1="839.6405" y2="859.7105"/>
    <line x1="289.4873" x2="289.4873" y1="859.7105" y2="839.6405"/>
    <line x1="286.9346" x2="286.9346" y1="839.6405" y2="859.7105"/>
    <line x1="284.3818" x2="284.3818" y1="859.7105" y2="839.6405"/>
    <line x1="281.8291" x2="281.8291" y1="839.6405" y2="859.7105"/>
    <line x1="279.2763" x2="279.2763" y1="859.7105" y2="839.6405"/>
    <polyline points="276.7236,839.6405 276.7236,859.7105 297.1456,859.7105 297.1456,839.6405 276.7236,839.6405 297.1456,839.6405 288.7503,826.7042 285.1189,826.7042 276.7236,839.6405 276.7236,859.7105"/>
    <polygon points="285.1189,826.7042 285.1189,820.7317 288.7503,820.7317 288.7503,826.7042"/>
    <polygon points="285.1189,814.1977 288.7503,814.1977 288.7503,820.7317 285.1189,820.7317"/>
    <polygon points="285.1189,808.8898 288.7503,808.8898 288.7503,814.1977 285.1189,814.1977"/>
    <polygon points="225.2263,807.4247 225.2263,818.1742 193.8334,818.1742 193.8334,807.4247 209.5299,786.3288 225.2263,807.4247 193.8334,807.4247"/>
    <polygon points="225.2263,815.0419 225.2263,810.557 229.1418,810.557 229.1418,815.0419"/>
    <polygon points="193.8334,815.0419 189.9179,815.0419 189.9179,810.557 193.8334,810.557"/>
    <polygon points="193.8334,818.1742 225.2263,818.1742 225.2263,829.5334 193.8334,829.5334"/>
    <polygon points="193.8334,849.3755 193.8334,829.5334 225.2263,829.5334 225.2263,849.3755"/>
    <polygon points="225.2263,849.3755 193.8334,849.3755 193.2884,855.486 225.7713,855.486 225.7713,871.5077 193.2884,871.5077 193.2884,855.486 225.7713,855.486"/>
    <polyline points="227.3881,882.4017 227.9481,878.7354 229.5488,875.5879 231.9637,873.4044 234.8512,872.4938 237.7387,873.4044 240.1536,875.5879 241.7543,878.7354 242.3143,882.4017 227.3881,882.4017 227.3881,1003.6821 242.3143,1003.6821 242.3143,882.4017"/>
    <polygon points="227.3881,895.7462 191.6716,895.7462 191.6716,875.9112 227.3881,875.9112 225.7713,871.5077 193.2884,871.5077 191.6716,875.9112 227.3881,875.9112"/>
    <polygon points="191.6716,895.7462 227.3881,895.7462 227.3881,911.1088 191.6716,911.1088"/>
    <polyline points="191.6716,882.4017 191.1116,878.7354 189.511,875.5879 187.096,873.4044 184.2085,872.4938 181.321,873.4044 178.9061,875.5879 177.3054,878.7354 176.7454,882.4017 191.6716,882.4017 191.6716,1003.6821 176.7454,1003.6821 176.7454,882.4017"/>
    <polygon points="191.6716,915.6751 227.3881,915.6751 227.3881,934.6086 191.6716,934.6086 191.6716,915.6751 227.3881,915.6751 227.3881,911.1088 191.6716,911.1088"/>
    <polygon points="274.1103,935.6742 274.1103,927.6754 299.7589,927.6754 298.4443,918.6199 275.4249,918.6199 274.1103,927.6754 299.7589,927.6754 299.7589,935.6742"/>
    <polygon points="271.8222,953.7307 271.8222,948.6186 273.9656,948.6186 273.9656,953.7307"/>
    <polygon points="300.3277,986.6447 299.9036,978.7443 273.9656,978.7443 273.5414,986.6447 300.3277,986.6447 300.3277,994.4078 273.5414,994.4078 273.5414,986.6447"/>
    <polygon points="291.228,1014.8901 291.228,1013.9304 282.6411,1013.9304 282.6411,1014.8901"/>
    <polygon points="295.6992,1020.6808 293.7573,1025.0285 299.6729,1025.0285 297.731,1020.6808"/>
    <polygon points="293.1526,1025.0285 291.2106,1020.6808 289.1789,1020.6808 287.2369,1025.0285"/>
    <polygon points="282.6585,1020.6808 280.7166,1025.0285 286.6322,1025.0285 284.6903,1020.6808"/>
    <polygon points="280.1119,1025.0285 278.1699,1020.6808 276.1382,1020.6808 274.1962,1025.0285"/>
    <polyline points="349.5536,1016.6868 349.5536,1004.0481 345.7383,1016.6868 382.9403,1016.6868 379.125,1004.0481 379.125,1016.6868"/>
    <line x1="379.125" x2="349.5536" y1="1013.5272" y2="1013.5272"/>
    <line x1="349.5536" x2="379.125" y1="1010.3675" y2="1010.3675"/>
    <line x1="379.125" x2="349.5536" y1="1007.2078" y2="1007.2078"/>
    <polyline points="352.0392,994.444 352.0392,983.4641 376.6394,983.4641 376.6394,994.444 352.0392,994.444 352.0392,983.4641"/>
    <line x1="355.1142" x2="355.1142" y1="983.4641" y2="994.444"/>
    <line x1="358.1892" x2="358.1892" y1="994.444" y2="983.4641"/>
    <line x1="361.2643" x2="361.2643" y1="983.4641" y2="994.444"/>
    <line x1="364.3393" x2="364.3393" y1="994.444" y2="983.4641"/>
    <line x1="367.4143" x2="367.4143" y1="983.4641" y2="994.444"/>
    <line x1="370.4894" x2="370.4894" y1="994.444" y2="983.4641"/>
    <line x1="373.5644" x2="373.5644" y1="983.4641" y2="994.444"/>
    <polygon points="376.6394,983.4641 352.0392,983.4641 352.0392,962.1496 376.6394,962.1496"/>
    <polygon points="369.7683,971.9262 369.7683,976.5796 358.9103,976.5796 358.9103,971.9262"/>
    <polygon points="376.6394,962.1496 352.0392,962.1496 352.0392,947.3782 376.6394,947.3782 374.7093,937.7762 353.9693,937.7762 352.0392,947.3782 376.6394,947.3782"/>
    <polygon points="352.0392,994.444 349.5536,1004.0481 379.125,1004.0481 379.125,1016.6868 349.5536,1016.6868 349.5536,1004.0481 379.125,1004.0481 376.6394,994.444"/>
    <polygon points="368.8961,1016.6868 359.7825,1016.6868 350.763,1025.0285 377.9156,1025.0285"/>
    <polygon points="422.6237,1017.5425 422.6237,1010.3808 425.6938,1010.3808 425.6938,1017.5425"/>
    <polygon points="425.6938,1010.238 457.7942,1010.238 457.7942,1017.6853 425.6938,1017.6853 425.6938,1010.238 457.7942,1010.238 455.608,1002.6962 427.8801,1002.6962"/>
    <polygon points="426.9033,1025.0285 441.4417,1025.0285 435.9575,1017.6853 432.3874,1017.6853"/>
    <polygon points="451.1007,1017.6853 447.5305,1017.6853 442.0464,1025.0285 456.5848,1025.0285"/>
    <polygon points="457.7942,1010.3808 460.8644,1010.3808 460.8644,1017.5425 457.7942,1017.5425"/>
    <polyline points="498.2325,1005.5255 495.774,1008.4628 494.2427,1011.775 493.7228,1015.2799 507.9996,1015.2799 507.4797,1011.775 505.9484,1008.4628 503.4899,1005.5255"/>
    <polygon points="507.9996,1002.0791 530.2979,1002.0791 530.2979,1011.6515 507.9996,1011.6515"/>
    <polygon points="507.9996,979.4872 530.2979,979.4872 530.2979,1002.0791 507.9996,1002.0791 507.9996,979.4872 530.2979,979.4872 530.2979,971.9731 507.9996,971.9731"/>
    <polygon points="530.2979,951.5524 530.2979,971.9731 507.9996,971.9731 507.9996,951.5524 530.2979,951.5524 530.2979,947.8355 507.9996,947.8355 507.9996,951.5524"/>
    <polygon points="530.2979,947.8355 507.9996,947.8355 507.9996,941.3945 530.2979,941.3945"/>
    <polygon points="507.9996,930.4862 530.2979,930.4862 530.2979,941.3945 507.9996,941.3945 507.9996,930.4862 530.2979,930.4862 530.2979,923.6787 507.9996,923.6787"/>
    <polygon points="507.9996,916.3376 530.2979,916.3376 530.2979,923.6787 507.9996,923.6787"/>
    <polygon points="493.7228,918.4698 500.8612,893.129 507.9996,918.4698 493.7228,918.4698 507.9996,918.4698 507.9996,1005.5255 493.7228,1005.5255"/>
    <polygon points="507.9996,900.2694 530.2979,900.2694 530.2979,906.5573 507.9996,906.5573 507.9996,900.2694 530.2979,900.2694 530.2603,891.1357 508.0372,891.1357"/>
    <polygon points="530.2979,906.5573 530.2979,916.3376 507.9996,916.3376 507.9996,906.5573"/>
    <polygon points="544.5748,918.4698 530.2979,918.4698 530.2979,1005.5255 544.5748,1005.5255 544.5748,918.4698 537.4363,893.129 530.2979,918.4698"/>
    <polygon points="530.2603,883.8926 530.2603,891.1357 508.0372,891.1357 508.0372,883.8926"/>
    <polygon points="530.2603,864.5348 530.2603,883.8926 508.0372,883.8926 508.0372,864.5348"/>
    <polygon points="514.9565,871.16 523.341,871.16 523.341,870.5422 514.9565,870.5422"/>
    <polyline points="508.0372,845.4287 508.0372,864.5348 530.2603,864.5348 530.2603,845.4287 508.0372,845.4287 508.7807,840.8817 510.9844,836.4986 514.5689,832.4374 519.1488,829.003 523.7286,832.4374 527.3131,836.4986 529.5168,840.8817 530.2603,845.4287"/>
    <polygon points="589.837,848.5137 595.7299,829.9008 597.377,829.9008 603.27,848.5137 589.837,848.5137 603.27,848.5137 603.27,868.2348 589.837,868.2348"/>
    <line x1="589.837" x2="603.27" y1="850.4858" y2="850.4858"/>
    <line x1="603.27" x2="589.837" y1="852.4579" y2="852.4579"/>
    <line x1="589.837" x2="603.27" y1="854.43" y2="854.43"/>
    <line x1="603.27" x2="589.837" y1="856.4021" y2="856.4021"/>
    <line x1="589.837" x2="603.27" y1="858.3742" y2="858.3742"/>
    <line x1="603.27" x2="589.837" y1="860.3463" y2="860.3463"/>
    <line x1="589.837" x2="603.27" y1="862.3184" y2="862.3184"/>
    <line x1="603.27" x2="589.837" y1="864.2905" y2="864.2905"/>
    <line x1="589.837" x2="603.27" y1="866.2626" y2="866.2626"/>
    <polyline points="603.27,868.2348 589.837,868.2348 603.27,868.2348 603.27,889.3696 589.837,889.3696 589.837,868.2348"/>
    <polygon points="599.0876,896.77 594.0193,896.77 594.0193,893.3683 599.0876,893.3683"/>
    <polygon points="604.4753,899.442 588.6317,899.442 585.7652,908.759 607.3418,908.759 607.3418,926.8621 585.7652,926.8621 585.7652,908.759 607.3418,908.759"/>
    <polygon points="588.6317,899.442 588.6317,889.3696 604.4753,889.3696 604.4753,899.442"/>
    <polygon points="585.7652,921.3385 581.4273,921.3385 581.4273,914.2827 585.7652,914.2827"/>
    <polygon points="598.595,936.3273 598.0622,937.7026 596.7418,938.3601 595.3232,937.9565 594.6498,937.0648 594.5119,936.3273 595.0448,934.9519 596.3651,934.2944 597.1122,934.3637 598.0622,934.9519"/>
    <polygon points="607.3418,945.7924 607.3418,954.4495 585.7652,954.4495 585.7652,945.7924"/>
    <polygon points="607.3418,954.4495 607.3418,963.4364 585.7652,963.4364 585.7652,954.4495"/>
    <polygon points="612.1512,962.0061 607.3418,962.0061 607.3418,955.8797 612.1512,955.8797"/>
    <polygon points="607.3418,963.4364 607.3418,977.537 585.7652,977.537 585.7652,963.4364"/>
    <polygon points="596.461,951.0011 595.8375,950.6411 595.6878,949.9369 596.461,949.2408 597.1456,949.4633 597.4385,950.1209 597.1456,950.7786"/>
    <polygon points="580.9558,955.8797 585.7652,955.8797 585.7652,962.0061 580.9558,962.0061"/>
    <polyline points="583.0287,984.0419 583.0287,993.1459 610.0782,993.1459 610.0782,984.0419 583.0287,984.0419 585.7652,977.537 607.3418,977.537 610.0782,984.0419 583.0287,984.0419 583.0287,993.1459"/>
    <line x1="585.2828" x2="585.2828" y1="993.1459" y2="984.0419"/>
    <line x1="587.537" x2="587.537" y1="984.0419" y2="993.1459"/>
    <line x1="589.7911" x2="589.7911" y1="993.1459" y2="984.0419"/>
    <line x1="592.0452" x2="592.0452" y1="984.0419" y2="993.1459"/>
    <line x1="594.2994" x2="594.2994" y1="993.1459" y2="984.0419"/>
    <line x1="596.5535" x2="596.5535" y1="984.0419" y2="993.1459"/>
    <line x1="598.8076" x2="598.8076" y1="993.1459" y2="984.0419"/>
    <line x1="601.0617" x2="601.0617" y1="984.0419" y2="993.1459"/>
    <line x1="603.3159" x2="603.3159" y1="993.1459" y2="984.0419"/>
    <line x1="605.57" x2="605.57" y1="984.0419" y2="993.1459"/>
    <line x1="607.8241" x2="607.8241" y1="993.1459" y2="984.0419"/>
    <polygon points="591.616,1003.7183 601.4909,1003.7183 610.0782,993.1459 583.0287,993.1459"/>
    <polygon points="591.616,1003.7183 583.0712,1025.0285 610.0358,1025.0285 601.4909,1003.7183"/>
    <polyline points="540.0651,1005.5255 542.5235,1008.4628 544.0548,1011.775 544.5748,1015.2799 530.2979,1015.2799 530.8178,1011.775 532.3492,1008.4628 534.8076,1005.5255"/>
    <polygon points="529.0884,1025.0285 522.7728,1011.6515 515.5247,1011.6515 509.2091,1025.0285"/>
    <polygon points="427.8801,979.7826 427.8801,957.6584 455.608,957.6584 455.3553,950.7991 428.1327,950.7991 427.8801,957.6584 455.608,957.6584 455.608,979.7826"/>
    <polygon points="427.8801,979.7826 455.608,979.7826 455.608,1002.6962 427.8801,1002.6962"/>
    <polygon points="428.1327,950.7991 428.1327,937.1349 455.3553,937.1349 455.3553,950.7991"/>
    <polygon points="447.5113,943.7584 435.9767,943.7584 435.9767,946.5292 447.5113,946.5292"/>
    <polygon points="447.4813,934.6528 447.4813,934.146 436.0067,934.146 436.0067,934.6528"/>
    <polygon points="430.0591,921.1384 428.1327,929.6616 455.3553,929.6616 455.3553,937.1349 428.1327,937.1349 428.1327,929.6616 455.3553,929.6616 453.429,921.1384"/>
    <polygon points="430.0591,910.2508 453.429,910.2508 453.429,921.1384 430.0591,921.1384 430.0591,910.2508 453.429,910.2508 451.8473,902.9335 431.6408,902.9335"/>
    <polygon points="431.6408,902.9335 431.6408,880.0019 451.8473,880.0019 451.8473,902.9335"/>
    <polygon points="445.9006,896.0727 437.5874,896.0727 437.5874,894.0682 445.9006,894.0682"/>
    <polygon points="437.7889,868.6797 445.6991,868.6797 445.6991,871.7551 437.7889,871.7551"/>
    <polygon points="434.4592,856.7623 431.6408,862.4917 451.8473,862.4917 451.8473,880.0019 431.6408,880.0019 431.6408,862.4917 451.8473,862.4917 449.0289,856.7623"/>
    <polygon points="443.5796,849.8714 444.248,851.5745 443.5796,853.2777 441.9312,854.0715 440.8292,853.9054 439.9085,853.2777 439.2401,851.5745 439.9085,849.8714 441.5569,849.0776 442.6588,849.2437"/>
    <polygon points="449.0289,846.3868 449.0289,856.7623 434.4592,856.7623 434.4592,846.3868"/>
    <polygon points="449.0289,836.3217 434.4592,836.3217 449.0289,836.3217 449.0289,846.3868 434.4592,846.3868 434.4592,836.3217 440.8522,812.005 442.6359,812.005"/>
    <polygon points="440.9503,840.2298 442.0241,840.0066 442.9201,840.6391 443.1205,841.3543 442.6835,842.3602 441.6501,842.7275 440.6763,842.2229 440.3804,841.1668"/>
    <polygon points="442.6359,812.005 440.8522,812.005 440.8522,807.977 442.6359,807.977"/>
    <polygon points="442.6359,807.977 440.8522,807.977 440.8522,804.0758 442.6359,804.0758"/>
    <line x1="370.4805" x2="370.4805" y1="856.2538" y2="873.6894"/>
    <line x1="366.3864" x2="366.3864" y1="873.6894" y2="856.2538"/>
    <line x1="362.2922" x2="362.2922" y1="856.2538" y2="873.6894"/>
    <line x1="358.1981" x2="358.1981" y1="873.6894" y2="856.2538"/>
    <polyline points="354.104,856.2538 374.5746,856.2538 374.5746,873.6894 354.104,873.6894 354.104,856.2538 364.3393,830.3225 374.5746,856.2538 354.104,856.2538 354.104,873.6894 374.5746,873.6894 374.5746,880.096 354.104,880.096 354.104,873.6894"/>
    <polygon points="354.104,880.096 374.5746,880.096 374.5746,893.2791 354.104,893.2791"/>
    <line x1="354.104" x2="374.5746" y1="882.7326" y2="882.7326"/>
    <line x1="374.5746" x2="354.104" y1="885.3692" y2="885.3692"/>
    <line x1="354.104" x2="374.5746" y1="888.0058" y2="888.0058"/>
    <line x1="374.5746" x2="354.104" y1="890.6424" y2="890.6424"/>
    <polygon points="354.104,893.2791 353.9693,901.0118 374.7093,901.0118 374.7093,921.4811 353.9693,921.4811 353.9693,901.0118 374.7093,901.0118 374.5746,893.2791"/>
    <line x1="354.104" x2="374.5746" y1="893.2791" y2="893.2791"/>
    <polygon points="374.7093,908.1643 377.9812,908.1643 377.9812,914.3285 374.7093,914.3285"/>
    <polygon points="374.7093,921.4811 374.7093,937.7762 353.9693,937.7762 353.9693,921.4811"/>
    <polygon points="353.9693,908.1643 353.9693,914.3285 350.6974,914.3285 350.6974,908.1643"/>
    <polygon points="354.1202,698.4773 374.5584,698.4773 367.817,680.9964 360.8616,680.9964"/>
    <polygon points="354.5759,675.4902 360.8616,680.9964 367.817,680.9964 374.1027,675.4902"/>
    <polygon points="354.5759,675.4902 354.5759,658.054 374.1027,658.054 374.1027,675.4902"/>
    <polygon points="354.5759,658.054 343.8588,675.4902 354.5759,675.4902"/>
    <polygon points="366.9951,643.4666 361.6835,643.4666 361.6835,649.3297 366.9951,649.3297"/>
    <polygon points="354.5759,634.2658 374.1027,634.2658 374.1027,658.054 354.5759,658.054 354.5759,634.2658 374.1027,634.2658 373.049,625.3267 355.6296,625.3267"/>
    <polyline points="355.6296,615.1002 355.6296,625.3267 373.049,625.3267 373.049,615.1002 355.6296,615.1002 373.049,615.1002"/>
    <line x1="373.049" x2="355.6296" y1="611.9536" y2="611.9536"/>
    <line x1="355.6296" x2="373.049" y1="608.8071" y2="608.8071"/>
    <line x1="373.049" x2="355.6296" y1="605.6605" y2="605.6605"/>
    <polygon points="355.6296,602.514 373.049,602.514 373.049,615.1002 355.6296,615.1002 355.6296,602.514 373.049,602.514 372.4598,595.9687 356.2188,595.9687"/>
    <line x1="356.2188" x2="372.4598" y1="595.9687" y2="595.9687"/>
    <line x1="372.4598" x2="356.2188" y1="592.733" y2="592.733"/>
    <line x1="356.2188" x2="372.4598" y1="589.4973" y2="589.4973"/>
    <line x1="372.4598" x2="356.2188" y1="586.2616" y2="586.2616"/>
    <polyline points="356.2188,583.0259 356.2188,595.9687 372.4598,595.9687 372.4598,583.0259 356.2188,583.0259 372.4598,583.0259"/>
    <line x1="372.4598" x2="356.2188" y1="580.3764" y2="580.3764"/>
    <line x1="356.2188" x2="372.4598" y1="577.7268" y2="577.7268"/>
    <line x1="372.4598" x2="356.2188" y1="575.0773" y2="575.0773"/>
    <line x1="356.2188" x2="372.4598" y1="572.4278" y2="572.4278"/>
    <polygon points="359.195,565.6825 359.195,555.6294 369.4837,555.6294 369.4177,548.9926 359.2609,548.9926 359.195,555.6294 369.4837,555.6294 369.4837,565.6825"/>
    <polygon points="359.195,564.4827 354.7442,564.4827 354.7442,556.8292 359.195,556.8292"/>
    <polygon points="356.2188,569.7783 372.4598,569.7783 369.4837,565.6825 359.195,565.6825 356.2188,569.7783 372.4598,569.7783 372.4598,583.0259 356.2188,583.0259"/>
    <polygon points="369.4837,556.8292 373.9344,556.8292 373.9344,564.4827 369.4837,564.4827"/>
    <line x1="366.0321" x2="366.0321" y1="548.9926" y2="527.518"/>
    <line x1="362.6465" x2="362.6465" y1="527.518" y2="548.9926"/>
    <polyline points="359.2609,548.9926 359.2609,527.518 369.4177,527.518 369.3162,520.2748 359.3624,520.2748 359.2609,527.518 369.4177,527.518 369.4177,548.9926 359.2609,548.9926 359.2609,527.518"/>
    <line x1="359.3624" x2="369.3162" y1="520.2748" y2="520.2748"/>
    <line x1="369.3162" x2="359.3624" y1="515.7673" y2="515.7673"/>
    <polygon points="359.3624,511.2598 369.3162,511.2598 369.3162,520.2748 359.3624,520.2748 359.3624,511.2598 369.3162,511.2598 369.2647,503.2156 359.4139,503.2156"/>
    <polyline points="359.4139,496.2546 359.4139,503.2156 369.2647,503.2156 369.2647,496.2546 359.4139,496.2546 359.7049,495.0635 360.6642,493.8 364.3393,491.4943 368.0144,493.8 368.9737,495.0635 369.2647,496.2546"/>
    <line x1="295.0964" x2="278.7728" y1="499.1334" y2="499.1334"/>
    <polygon points="278.7728,495.4616 285.4637,473.9805 288.4054,473.9805 295.0964,495.4616 278.7728,495.4616 295.0964,495.4616 295.0964,510.1489 278.7728,510.1489"/>
    <line x1="278.7728" x2="295.0964" y1="502.8052" y2="502.8052"/>
    <line x1="295.0964" x2="278.7728" y1="506.4771" y2="506.4771"/>
    <polygon points="278.7728,510.1489 295.0964,510.1489 295.0964,531.0132 278.7728,531.0132"/>
    <line x1="280.8132" x2="280.8132" y1="510.1489" y2="531.0132"/>
    <line x1="282.8537" x2="282.8537" y1="531.0132" y2="510.1489"/>
    <line x1="284.8941" x2="284.8941" y1="510.1489" y2="531.0132"/>
    <line x1="286.9346" x2="286.9346" y1="531.0132" y2="510.1489"/>
    <line x1="288.975" x2="288.975" y1="510.1489" y2="531.0132"/>
    <line x1="291.0155" x2="291.0155" y1="531.0132" y2="510.1489"/>
    <line x1="293.0559" x2="293.0559" y1="510.1489" y2="531.0132"/>
    <polyline points="278.7728,531.0132 278.7728,546.759 295.0964,546.759 295.0964,531.0132 278.7728,531.0132 278.7728,510.1489 295.0964,510.1489"/>
    <polygon points="288.4054,473.9805 285.4637,473.9805 285.4637,466.8514 288.4054,466.8514"/>
    <polygon points="285.4637,463.3658 288.4054,463.3658 288.4054,466.8514 285.4637,466.8514"/>
    <polygon points="285.3287,546.759 286.9346,543.5472 288.5405,546.759"/>
    <line x1="285.386" x2="285.386" y1="550.8455" y2="563.0213"/>
    <line x1="282.289" x2="282.289" y1="563.0213" y2="550.8455"/>
    <line x1="279.1919" x2="279.1919" y1="550.8455" y2="563.0213"/>
    <polyline points="276.0948,563.0213 276.0948,550.8455 297.7744,550.8455 295.0964,546.759 278.7728,546.759 276.0948,550.8455 297.7744,550.8455 297.7744,563.0213 276.0948,563.0213 276.0948,550.8455"/>
    <line x1="288.4831" x2="288.4831" y1="550.8455" y2="563.0213"/>
    <line x1="291.5802" x2="291.5802" y1="563.0213" y2="550.8455"/>
    <line x1="294.6773" x2="294.6773" y1="550.8455" y2="563.0213"/>
    <polygon points="298.9352,571.9532 298.9352,590.3217 274.9339,590.3217 274.9339,571.9532 298.9352,571.9532 297.7744,563.0213 276.0948,563.0213 274.9339,571.9532"/>
    <line x1="298.9352" x2="274.9339" y1="575.6269" y2="575.6269"/>
    <line x1="274.9339" x2="298.9352" y1="579.3006" y2="579.3006"/>
    <line x1="298.9352" x2="274.9339" y1="582.9743" y2="582.9743"/>
    <line x1="274.9339" x2="298.9352" y1="586.648" y2="586.648"/>
    <polyline points="298.9352,590.3217 274.9339,590.3217 298.9352,590.3217 298.9352,612.6352 274.9339,612.6352 274.9339,590.3217 274.9339,612.6352 298.9352,612.6352 298.9352,623.2145 274.9339,623.2145 274.9339,612.6352"/>
    <line x1="277.9341" x2="277.9341" y1="612.6352" y2="590.3217"/>
    <line x1="280.9343" x2="280.9343" y1="590.3217" y2="612.6352"/>
    <line x1="283.9344" x2="283.9344" y1="612.6352" y2="590.3217"/>
    <line x1="286.9346" x2="286.9346" y1="590.3217" y2="612.6352"/>
    <line x1="289.9347" x2="289.9347" y1="612.6352" y2="590.3217"/>
    <line x1="292.9349" x2="292.9349" y1="590.3217" y2="612.6352"/>
    <line x1="295.9351" x2="295.9351" y1="612.6352" y2="590.3217"/>
    <polygon points="298.9352,620.6517 298.9352,615.198 300.1582,615.198 300.1582,620.6517"/>
    <polygon points="298.9352,623.2145 274.9339,623.2145 273.8507,632.337 300.0185,632.337 300.0185,649.7816 273.8507,649.7816 273.8507,632.337 300.0185,632.337"/>
    <polygon points="292.9189,643.2428 292.9189,639.602 280.9503,639.602 280.9503,643.2428"/>
    <polygon points="300.0185,649.7816 300.0185,673.2799 273.8507,673.2799 273.8507,649.7816"/>
    <line x1="300.0185" x2="273.8507" y1="652.7189" y2="652.7189"/>
    <line x1="273.8507" x2="300.0185" y1="655.6562" y2="655.6562"/>
    <line x1="300.0185" x2="273.8507" y1="658.5934" y2="658.5934"/>
    <line x1="273.8507" x2="300.0185" y1="661.5307" y2="661.5307"/>
    <line x1="300.0185" x2="273.8507" y1="664.468" y2="664.468"/>
    <line x1="273.8507" x2="300.0185" y1="667.4053" y2="667.4053"/>
    <line x1="300.0185" x2="273.8507" y1="670.3426" y2="670.3426"/>
    <line x1="273.8507" x2="300.0185" y1="673.2799" y2="673.2799"/>
    <polygon points="302.7571,692.2426 271.112,692.2426 271.112,673.2799 302.7571,673.2799"/>
    <polygon points="301.5477,698.4773 298.4295,692.2426 290.3551,692.2426 287.2369,698.4773"/>
    <polygon points="286.6322,698.4773 283.514,692.2426 275.4397,692.2426 272.3215,698.4773"/>
    <polygon points="284.7442,692.2426 286.9346,687.8619 289.1249,692.2426"/>
    <polygon points="233.1015,687.7044 227.8934,687.7044 223.3448,684.2339 237.65,684.2339"/>
    <polygon points="223.3448,682.0239 195.7149,682.0239 195.7149,667.8002 223.3448,667.8002 223.3448,660.8821 195.7149,660.8821 195.7149,667.8002 223.3448,667.8002"/>
    <line x1="220.2749" x2="220.2749" y1="686.2075" y2="692.8747"/>
    <polygon points="218.4305,692.8747 213.5371,692.8747 209.8322,698.4773 222.1354,698.4773"/>
    <line x1="217.2049" x2="217.2049" y1="692.8747" y2="686.2075"/>
    <line x1="214.1349" x2="214.1349" y1="686.2075" y2="692.8747"/>
    <line x1="211.0649" x2="211.0649" y1="692.8747" y2="686.2075"/>
    <line x1="207.9949" x2="207.9949" y1="686.2075" y2="692.8747"/>
    <line x1="204.9249" x2="204.9249" y1="692.8747" y2="686.2075"/>
    <line x1="201.8549" x2="201.8549" y1="686.2075" y2="692.8747"/>
    <line x1="198.7849" x2="198.7849" y1="692.8747" y2="686.2075"/>
    <polyline points="195.7149,686.2075 195.7149,692.8747 223.3448,692.8747 223.3448,686.2075 195.7149,686.2075 195.7149,682.0239 223.3448,682.0239 223.3448,686.2075 195.7149,686.2075 195.7149,692.8747"/>
    <polygon points="185.9583,687.7044 182.9396,696.5031 194.185,696.5031 191.1664,687.7044"/>
    <polygon points="185.9583,687.7044 191.1664,687.7044 195.7149,684.2339 181.4098,684.2339"/>
    <polygon points="209.2275,698.4773 205.5226,692.8747 200.6292,692.8747 196.9243,698.4773"/>
    <polygon points="224.8747,696.5031 227.8934,687.7044 233.1015,687.7044 236.1201,696.5031"/>
    <line x1="223.3448" x2="195.7149" y1="640.5892" y2="640.5892"/>
    <polygon points="195.7149,640.5892 195.7149,647.3504 223.3448,647.3504 223.3448,660.8821 195.7149,660.8821 195.7149,647.3504 223.3448,647.3504 223.3448,640.5892"/>
    <line x1="195.7149" x2="223.3448" y1="637.8668" y2="637.8668"/>
    <line x1="223.3448" x2="195.7149" y1="635.1444" y2="635.1444"/>
    <line x1="195.7149" x2="223.3448" y1="632.4219" y2="632.4219"/>
    <line x1="223.3448" x2="195.7149" y1="629.6995" y2="629.6995"/>
    <line x1="195.7149" x2="223.3448" y1="626.9771" y2="626.9771"/>
    <line x1="223.3448" x2="195.7149" y1="624.2547" y2="624.2547"/>
    <polygon points="195.7149,621.5322 223.3448,621.5322 223.3448,640.5892 195.7149,640.5892 195.7149,621.5322 223.3448,621.5322 223.3448,614.6094 195.7149,614.6094"/>
    <line x1="195.7149" x2="223.3448" y1="614.6094" y2="614.6094"/>
    <line x1="223.3448" x2="195.7149" y1="609.877" y2="609.877"/>
    <polyline points="195.7149,606.4607 195.2664,604.561 193.9222,602.6661 191.6856,600.7809 188.5623,598.9101 185.439,600.7809 183.2024,602.6661 181.8582,604.561 181.4098,606.4607 195.7149,606.4607 195.7149,684.2339 181.4098,684.2339 181.4098,606.4607"/>
    <polygon points="196.621,583.0053 195.7149,590.3156 223.3448,590.3156 223.3448,605.1446 195.7149,605.1446 195.7149,590.3156 223.3448,590.3156 222.4387,583.0053"/>
    <polygon points="196.621,571.6379 222.4387,571.6379 219.7768,563.6078 199.2829,563.6078 196.621,571.6379 222.4387,571.6379 222.4387,583.0053 196.621,583.0053"/>
    <polygon points="209.5299,558.559 212.0543,563.6078 207.0054,563.6078"/>
    <polygon points="219.7768,557.1908 219.7768,563.6078 199.2829,563.6078 199.2829,557.1908 219.7768,557.1908 217.3779,547.5657 201.6818,547.5657 199.2829,557.1908"/>
    <polygon points="210.5579,537.4966 209.5299,537.8564 208.5019,537.4966 207.8811,536.2076 208.2408,535.1796 209.5299,534.5588 210.8189,535.1796 211.1786,536.2076"/>
    <polyline points="217.3779,524.8494 216.8155,520.3979 215.1721,516.293 212.8239,513.1086 209.5299,510.5175 206.2358,513.1086 203.712,516.6138 202.1549,520.7603 201.6818,524.8494 217.3779,524.8494 217.3779,547.5657 201.6818,547.5657 201.6818,524.8494"/>
    <polygon points="223.3448,605.1446 223.3448,614.6094 195.7149,614.6094 195.7149,605.1446"/>
    <polyline points="223.3448,606.4607 223.7933,604.561 225.1375,602.6661 227.3741,600.7809 230.4974,598.9101 233.6207,600.7809 235.8573,602.6661 237.2015,604.561 237.65,606.4607 223.3448,606.4607 223.3448,684.2339 237.65,684.2339 237.65,606.4607"/>
    <polygon points="274.9339,620.6517 273.7109,620.6517 273.7109,615.198 274.9339,615.198"/>
    <polygon points="374.1027,658.054 384.8198,675.4902 374.1027,675.4902"/>
    <line x1="432.6368" x2="450.8512" y1="659.1957" y2="659.1957"/>
    <line x1="450.8512" x2="432.6368" y1="656.5425" y2="656.5425"/>
    <line x1="432.6368" x2="450.8512" y1="653.8893" y2="653.8893"/>
    <line x1="450.8512" x2="432.6368" y1="651.2361" y2="651.2361"/>
    <polygon points="435.2301,644.1123 435.2301,636.2661 448.258,636.2661 448.258,644.1123"/>
    <polygon points="439.4063,640.7172 439.4063,639.7285 444.0818,639.7285 444.0818,640.7172"/>
    <polygon points="440.4881,627.0678 441.5577,626.7681 442.6582,626.9194 443.6073,627.4965 444.2479,628.404 444.4739,629.4916 444.2479,630.5792 443.6073,631.4867 441.9303,632.2151 440.8299,632.0638 439.8808,631.4867 439.2402,630.5792 439.0142,629.4916 439.6264,627.7688"/>
    <polygon points="448.258,622.7171 447.4607,615.4873 436.0274,615.4873 435.2301,622.7171 448.258,622.7171 448.258,636.2661 435.2301,636.2661 435.2301,622.7171"/>
    <polygon points="436.0274,615.4873 436.0274,603.8199 447.4607,603.8199 447.4607,615.4873"/>
    <polygon points="438.8464,600.6066 438.8464,600.3698 444.6417,600.3698 444.6417,600.6066"/>
    <polygon points="436.0274,595.4837 447.4607,595.4837 447.0052,586.862 436.4828,586.862 436.0274,595.4837 447.4607,595.4837 447.4607,603.8199 436.0274,603.8199"/>
    <polygon points="447.0052,586.862 436.4828,586.862 436.4828,574.5777 447.0052,574.5777"/>
    <polygon points="441.6577,581.3205 441.1618,580.5489 441.6577,580.1192 442.3509,580.7199"/>
    <polygon points="447.0052,574.5777 436.4828,574.5777 436.4828,563.4236 440.8883,542.3876 442.5997,542.3876 447.0052,563.4236 436.4828,563.4236 447.0052,563.4236"/>
    <polygon points="447.0052,572.0766 447.0052,565.9247 448.9733,565.9247 448.9733,572.0766"/>
    <polygon points="434.5148,572.0766 434.5148,565.9247 436.4828,565.9247 436.4828,572.0766"/>
    <polygon points="440.8883,537.6664 442.5997,537.6664 442.5997,542.3876 440.8883,542.3876"/>
    <polygon points="442.5997,537.6664 440.8883,537.6664 440.8883,532.2047 442.5997,532.2047"/>
    <polygon points="440.8883,532.2047 440.8883,528.2495 442.5997,528.2495 442.5997,532.2047"/>
    <polygon points="440.8883,521.0496 442.5997,521.0496 442.5997,528.2495 440.8883,528.2495"/>
    <polyline points="508.8387,511.3143 508.8387,534.6813 529.4588,534.6813 529.4588,511.3143 508.8387,511.3143 509.0617,509.3022 509.6192,507.5771 511.704,504.3471 514.9544,501.5923 519.1488,499.5004 523.3431,501.5923 526.5935,504.3471 528.6783,507.5771 529.288,509.5522 529.4588,511.3143"/>
    <polygon points="529.4588,543.5925 508.8387,543.5925 508.8387,534.6813 529.4588,534.6813"/>
    <polygon points="524.2414,547.3255 514.0561,547.2341"/>
    <line x1="529.4588" x2="508.8387" y1="554.0324" y2="554.0324"/>
    <polygon points="508.8387,550.9123 508.8387,543.5925 529.4588,543.5925 529.4588,550.9123"/>
    <line x1="508.8387" x2="529.4588" y1="557.1525" y2="557.1525"/>
    <polygon points="530.9363,556.6109 545.9674,556.6109 530.9363,556.6109 530.9363,657.845 545.9674,657.845 545.9674,556.6109 538.4518,533.5999"/>
    <line x1="529.4588" x2="508.8387" y1="560.2726" y2="560.2726"/>
    <line x1="508.8387" x2="529.4588" y1="563.3927" y2="563.3927"/>
    <polygon points="529.4588,566.5128 508.8387,566.5128 508.8387,550.9123 529.4588,550.9123"/>
    <line x1="529.4588" x2="508.8387" y1="566.5128" y2="566.5128"/>
    <polyline points="507.3612,566.5128 530.9363,566.5128 530.9363,572.829 507.3612,572.829 507.3612,566.5128 507.3612,572.829 530.9363,572.829 530.9363,581.7727 507.3612,581.7727 507.3612,572.829"/>
    <line x1="507.3612" x2="530.9363" y1="575.8102" y2="575.8102"/>
    <line x1="530.9363" x2="507.3612" y1="578.7915" y2="578.7915"/>
    <polyline points="507.3612,581.7727 507.3612,605.5614 530.9363,605.5614 530.9363,581.7727 507.3612,581.7727 530.9363,581.7727"/>
    <line x1="527.5684" x2="527.5684" y1="572.829" y2="566.5128"/>
    <line x1="524.2006" x2="524.2006" y1="566.5128" y2="572.829"/>
    <line x1="520.8327" x2="520.8327" y1="572.829" y2="566.5128"/>
    <line x1="517.4648" x2="517.4648" y1="566.5128" y2="572.829"/>
    <line x1="514.097" x2="514.097" y1="572.829" y2="566.5128"/>
    <line x1="510.7291" x2="510.7291" y1="566.5128" y2="572.829"/>
    <polygon points="507.3612,616.6506 507.3612,605.5614 530.9363,605.5614 530.9363,616.6506"/>
    <polygon points="530.9363,625.1672 507.3612,625.1672 507.3612,616.6506 530.9363,616.6506"/>
    <polygon points="530.9363,646.6251 507.3612,646.6251 507.3612,625.1672 530.9363,625.1672"/>
    <line x1="528.9717" x2="528.9717" y1="646.6251" y2="667.747"/>
    <line x1="527.0071" x2="527.0071" y1="667.747" y2="646.6251"/>
    <line x1="525.0425" x2="525.0425" y1="646.6251" y2="667.747"/>
    <line x1="523.0779" x2="523.0779" y1="667.747" y2="646.6251"/>
    <line x1="521.1133" x2="521.1133" y1="646.6251" y2="667.747"/>
    <line x1="519.1488" x2="519.1488" y1="667.747" y2="646.6251"/>
    <line x1="517.1842" x2="517.1842" y1="646.6251" y2="667.747"/>
    <line x1="515.2196" x2="515.2196" y1="667.747" y2="646.6251"/>
    <line x1="513.255" x2="513.255" y1="646.6251" y2="667.747"/>
    <line x1="511.2904" x2="511.2904" y1="667.747" y2="646.6251"/>
    <line x1="509.3258" x2="509.3258" y1="646.6251" y2="667.747"/>
    <polygon points="507.3612,667.747 513.115,674.4768 525.1825,674.4768 530.9363,667.747"/>
    <polyline points="507.3612,667.747 507.3612,646.6251 530.9363,646.6251 530.9363,667.747 507.3612,667.747 507.3612,646.6251"/>
    <polygon points="501.549,662.3275 507.3612,657.845 492.3301,657.845 498.1423,662.3275"/>
    <polygon points="501.549,662.3275 498.1423,662.3275 492.1737,671.3754 507.5176,671.3754"/>
    <polygon points="492.3301,657.845 492.3301,556.6109 499.8457,533.5999 507.3612,556.6109 492.3301,556.6109 507.3612,556.6109 507.3612,657.845"/>
    <polygon points="513.115,674.4768 505.784,698.4773 532.5135,698.4773 525.1825,674.4768"/>
    <polygon points="530.9363,657.845 545.9674,657.845 540.1552,662.3275 536.7485,662.3275"/>
    <polygon points="536.7485,662.3275 540.1552,662.3275 546.1238,671.3754 530.7799,671.3754"/>
    <polygon points="584.7399,664.6782 584.7399,654.2374 608.3671,654.2374 606.1026,645.3661 587.0044,645.3661 584.7399,654.2374 608.3671,654.2374 608.3671,664.6782"/>
    <polygon points="590.644,672.4704 602.4629,672.4704 608.3671,664.6782 584.7399,664.6782"/>
    <polygon points="598.3097,657.7676 598.991,659.4578 598.3097,661.1481 597.3774,661.7518 596.2739,661.8792 594.673,661.0087 594.1231,659.2712 594.9318,657.6381 596.6468,657.0221"/>
    <polygon points="596.5535,642.9297 597.7717,645.3661 595.3353,645.3661"/>
    <polygon points="589.1316,622.9285 587.0044,628.7005 606.1026,628.7005 606.1026,645.3661 587.0044,645.3661 587.0044,628.7005 606.1026,628.7005 603.9753,622.9285"/>
    <polygon points="589.1316,622.9285 589.1316,602.3498 603.9753,602.3498 602.8998,598.6665 590.2072,598.6665 589.1316,602.3498 603.9753,602.3498 603.9753,622.9285"/>
    <polygon points="594.5153,614.6773 593.8905,613.7422 593.6711,612.6392 593.8905,611.5361 594.5153,610.601 595.4504,609.9762 596.5535,609.7568 597.6565,609.9762 598.5916,610.601 599.2165,611.5361 599.4359,612.6392 599.2165,613.7422 598.5916,614.6773 597.6565,615.3022 596.5535,615.5216 595.4504,615.3022"/>
    <line x1="590.2072" x2="602.8998" y1="598.6665" y2="598.6665"/>
    <line x1="602.8998" x2="590.2072" y1="595.6717" y2="595.6717"/>
    <line x1="590.2072" x2="602.8998" y1="592.6768" y2="592.6768"/>
    <line x1="602.8998" x2="590.2072" y1="589.682" y2="589.682"/>
    <line x1="590.2072" x2="602.8998" y1="586.6872" y2="586.6872"/>
    <line x1="602.8998" x2="590.2072" y1="583.6923" y2="583.6923"/>
    <polygon points="595.7873,578.2131 595.2373,577.3087 595.5229,576.2893 596.4628,575.8023 597.4603,576.1568 597.882,577.1278 597.6886,577.818 596.8238,578.4285"/>
    <polygon points="590.2072,573.558 602.8998,573.558 602.8998,580.6975 590.2072,580.6975"/>
    <polygon points="602.8998,580.6975 602.8998,598.6665 590.2072,598.6665 590.2072,580.6975"/>
    <line x1="598.1716" x2="598.1716" y1="556.1668" y2="543.439"/>
    <line x1="594.9354" x2="594.9354" y1="543.439" y2="556.1668"/>
    <polyline points="591.6991,556.1668 591.6991,573.558 601.4078,573.558 601.4078,556.1668 591.6991,556.1668 591.7029,536.0725 601.4041,536.0725 601.4078,543.439 591.6991,543.439 591.6991,556.1668 601.4078,556.1668 601.4078,543.439 591.6991,543.439"/>
    <polyline points="591.7029,536.0725 591.7029,518.4343 591.7029,536.0725 601.4041,536.0725 601.4041,518.4343 591.7029,518.4343 591.7029,499.9506 591.7029,518.4343 601.4041,518.4343 601.4041,499.9506 591.7029,499.9506 591.7151,475.3085 601.3919,475.3085 601.3963,482.1504 591.7107,482.1504 591.7107,499.9506 601.3963,499.9506 601.3963,482.1504 591.7107,482.1504"/>
    <line x1="594.9392" x2="594.9366" y1="482.1504" y2="518.4343"/>
    <line x1="596.5535" x2="596.5535" y1="518.4343" y2="536.0725"/>
    <line x1="598.1704" x2="598.1678" y1="518.4343" y2="482.1504"/>
    <polygon points="591.7151,461.8109 596.5535,448.5832 601.3919,461.8109 591.7151,461.8109 601.3919,461.8109 601.3919,475.3085 591.7151,475.3085"/>
    <polygon points="580.7222,371.9261 612.3848,371.9261 603.9339,361.5157 589.1731,361.5157"/>
    <polygon points="576.1516,349.0847 579.5127,349.0847 579.5127,355.9107 576.1516,355.9107"/>
    <polygon points="579.5127,334.0059 579.5127,316.3095 613.5942,316.3095 613.5942,334.0059"/>
    <polyline points="579.5127,334.0059 579.5127,343.4796 613.5942,343.4796 613.5942,334.0059 579.5127,334.0059 613.5942,334.0059"/>
    <line x1="613.5942" x2="579.5127" y1="331.4778" y2="331.4778"/>
    <line x1="579.5127" x2="613.5942" y1="328.9498" y2="328.9498"/>
    <line x1="613.5942" x2="579.5127" y1="326.4217" y2="326.4217"/>
    <line x1="579.5127" x2="613.5942" y1="323.8936" y2="323.8936"/>
    <line x1="613.5942" x2="579.5127" y1="321.3656" y2="321.3656"/>
    <line x1="579.5127" x2="613.5942" y1="318.8375" y2="318.8375"/>
    <polygon points="601.2986,316.3095 591.8083,316.3095 596.5535,306.8191"/>
    <polygon points="596.5535,336.6255 599.9806,343.4796 593.1264,343.4796"/>
    <polygon points="616.9554,355.9107 613.5942,355.9107 613.5942,349.0847 616.9554,349.0847"/>
    <polygon points="613.5942,361.5157 579.5127,361.5157 579.5127,343.4796 613.5942,343.4796"/>
    <polygon points="546.0886,354.0894 542.7296,356.7469 538.8743,356.7469 535.5153,354.0894"/>
    <polygon points="538.8743,356.7469 542.7296,356.7469 545.3036,365.5168 536.3004,365.5168"/>
    <polygon points="535.5153,344.2355 502.7822,344.2355 502.7822,350.0829 535.5153,350.0829 535.5153,361.8884 502.7822,361.8884 502.7822,350.0829 535.5153,350.0829"/>
    <polygon points="535.5153,327.0093 535.5153,344.2355 502.7822,344.2355 502.7822,327.0093 535.5153,327.0093 535.5153,318.8557 502.7822,318.8557 502.7822,327.0093"/>
    <polygon points="535.5153,318.8557 502.7822,318.8557 502.7822,304.5533 535.5153,304.5533 535.5153,300.6688 502.7822,300.6688 502.7822,304.5533 535.5153,304.5533"/>
    <polygon points="535.5153,278.6206 535.5153,288.9798 502.7822,288.9798 502.7822,278.6206"/>
    <polyline points="535.5153,271.4778 535.6908,269.7184 536.6112,267.0858 538.3171,264.4696 540.802,261.8796 543.2869,264.4696 544.9927,267.0858 545.9132,269.7184 546.0886,271.4778 535.5153,271.4778 535.5153,354.0894 546.0886,354.0894 546.0886,271.4778"/>
    <polygon points="534.3803,253.3893 503.9172,253.3893 502.7822,261.3913 535.5153,261.3913 535.5153,271.6521 502.7822,271.6521 502.7822,261.3913 535.5153,261.3913"/>
    <polygon points="531.6085,237.4011 506.689,237.4011 506.689,225.7741 531.6085,225.7741"/>
    <polygon points="503.9172,253.3893 503.9172,241.5087 534.3803,241.5087 531.6085,237.4011 506.689,237.4011 503.9172,241.5087 534.3803,241.5087 534.3803,253.3893"/>
    <polyline points="502.7822,271.6521 535.5153,271.6521 535.5153,278.6206 502.7822,278.6206 502.6067,269.7184 501.6863,267.0858 500.636,265.3393 497.4955,261.8796 495.0106,264.4696 493.7864,266.2115 492.6036,268.8397 492.2089,271.4778 502.7822,271.4778 502.7822,354.0894 492.2089,354.0894 492.2089,271.4778"/>
    <polygon points="502.7822,288.9798 535.5153,288.9798 535.5153,300.6688 502.7822,300.6688"/>
    <line x1="450.7466" x2="432.7415" y1="288.1687" y2="288.1687"/>
    <line x1="432.7415" x2="450.7466" y1="291.6491" y2="291.6491"/>
    <line x1="450.7466" x2="432.7415" y1="284.6883" y2="284.6883"/>
    <line x1="432.7415" x2="450.7466" y1="281.2079" y2="281.2079"/>
    <line x1="450.7466" x2="432.7415" y1="277.7274" y2="277.7274"/>
    <line x1="432.7415" x2="450.7466" y1="274.247" y2="274.247"/>
    <polygon points="433.7908,264.5092 432.7415,270.7666 450.7466,270.7666 450.7466,291.6491 432.7415,291.6491 432.7415,270.7666 450.7466,270.7666 449.6972,264.5092"/>
    <polygon points="442.7738,255.7394 441.744,256.0997 440.7143,255.7394 440.0924,254.4481 440.4527,253.4183 441.744,252.7965 443.0353,253.4183 443.3957,254.4481"/>
    <polygon points="449.6972,244.387 448.1816,235.9562 435.3065,235.9562 433.7908,244.387 449.6972,244.387 449.6972,264.5092 433.7908,264.5092 433.7908,244.387"/>
    <polygon points="441.744,234.1784 442.6329,235.9562 440.8551,235.9562"/>
    <polygon points="447.718,205.9203 435.77,205.9203 435.3065,213.3453 448.1816,213.3453 448.1816,235.9562 435.3065,235.9562 435.3065,213.3453 448.1816,213.3453"/>
    <polygon points="444.8678,196.3287 444.8678,197.4491 438.6202,197.4491 438.6202,196.3287"/>
    <polyline points="447.718,191.9486 435.77,191.9486 447.718,191.9486 447.718,205.9203 435.77,205.9203 435.77,191.9486"/>
    <line x1="435.77" x2="447.718" y1="187.6678" y2="187.6678"/>
    <line x1="447.718" x2="435.77" y1="183.3869" y2="183.3869"/>
    <polygon points="435.77,179.1061 447.718,179.1061 446.6605,170.6293 436.8275,170.6293 435.77,179.1061 447.718,179.1061 447.718,191.9486 435.77,191.9486"/>
    <polyline points="436.8275,170.6293 436.8275,150.3932 446.6605,150.3932 446.6309,144.3707 436.8572,144.3707 436.8275,150.3932 446.6605,150.3932 446.6605,170.6293 436.8275,170.6293 436.8275,150.3932"/>
    <line x1="440.1052" x2="440.1052" y1="150.3932" y2="170.6293"/>
    <line x1="443.3829" x2="443.3829" y1="170.6293" y2="150.3932"/>
    <polygon points="446.6309,144.3707 436.8572,144.3707 436.8572,135.4527 446.6309,135.4527"/>
    <polygon points="440.6193,138.337 442.8688,138.337 442.8688,138.6574 440.6193,138.6574"/>
    <polygon points="443.1735,127.2569 440.3146,127.2569 440.3146,129.4552 443.1735,129.4552"/>
    <polyline points="446.6309,123.3384 436.8572,123.3384 446.6309,123.3384 446.6309,135.4527 436.8572,135.4527 436.8572,123.3384"/>
    <line x1="436.8572" x2="446.6309" y1="121.0422" y2="121.0422"/>
    <line x1="446.6309" x2="436.8572" y1="118.7459" y2="118.7459"/>
    <line x1="436.8572" x2="446.6309" y1="116.4497" y2="116.4497"/>
    <line x1="446.6309" x2="436.8572" y1="114.1535" y2="114.1535"/>
    <line x1="436.8572" x2="446.6309" y1="111.8572" y2="111.8572"/>
    <line x1="446.6309" x2="436.8572" y1="109.561" y2="109.561"/>
    <line x1="436.8572" x2="446.6309" y1="107.2648" y2="107.2648"/>
    <line x1="446.6309" x2="436.8572" y1="104.9685" y2="104.9685"/>
    <polyline points="436.8572,102.6723 436.8572,123.3384 446.6309,123.3384 446.6309,102.6723 436.8572,102.6723 437.1579,101.319 438.0524,100.0003 439.5178,98.7498 441.744,97.4912 443.9703,98.7498 445.4357,100.0003 446.3302,101.319 446.6309,102.6723"/>
    <polyline points="507.258,193.1742 507.258,202.7303 531.0395,202.7303 531.0395,193.1742 507.258,193.1742 507.4579,190.4168 508.055,187.6977 509.0408,185.0543 510.4019,182.5235 514.1691,177.9373 519.1488,174.1923 524.1284,177.9373 527.8956,182.5235 529.2567,185.0543 530.2425,187.6977 530.8396,190.4168 531.0395,193.1742"/>
    <polygon points="517.2764,202.7303 519.1488,198.9855 521.0211,202.7303"/>
    <polygon points="507.258,202.7303 506.689,209.3234 531.6085,209.3234 531.6085,225.7741 506.689,225.7741 506.689,209.3234 531.6085,209.3234 531.0395,202.7303"/>
    <polyline points="581.2418,222.4096 581.2418,237.3448 611.8651,237.3448 611.8651,222.4096 581.2418,222.4096 581.2418,206.9876 581.2418,222.4096 611.8651,222.4096 611.8651,206.9876 581.2418,206.9876 581.5834,205.6064 582.5383,204.3046 586.2574,201.7703 590.6604,199.9363 596.5535,198.1677 603.1314,200.1828 607.9448,202.3593 610.8792,204.6457 611.6183,205.8131 611.8651,206.9876"/>
    <line x1="609.3132" x2="609.3132" y1="206.9876" y2="222.4096"/>
    <line x1="606.7612" x2="606.7612" y1="222.4096" y2="206.9876"/>
    <line x1="604.2093" x2="604.2093" y1="206.9876" y2="222.4096"/>
    <line x1="601.6574" x2="601.6574" y1="222.4096" y2="206.9876"/>
    <line x1="599.1054" x2="599.1054" y1="206.9876" y2="222.4096"/>
    <line x1="596.5535" x2="596.5535" y1="222.4096" y2="206.9876"/>
    <line x1="594.0015" x2="594.0015" y1="206.9876" y2="222.4096"/>
    <line x1="591.4496" x2="591.4496" y1="222.4096" y2="206.9876"/>
    <line x1="588.8977" x2="588.8977" y1="206.9876" y2="222.4096"/>
    <line x1="586.3457" x2="586.3457" y1="222.4096" y2="206.9876"/>
    <line x1="583.7938" x2="583.7938" y1="206.9876" y2="222.4096"/>
    <line x1="581.2418" x2="611.8651" y1="225.3966" y2="225.3966"/>
    <line x1="611.8651" x2="581.2418" y1="228.3836" y2="228.3836"/>
    <line x1="581.2418" x2="611.8651" y1="231.3707" y2="231.3707"/>
    <line x1="611.8651" x2="581.2418" y1="234.3577" y2="234.3577"/>
    <line x1="584.6444" x2="584.6444" y1="237.3448" y2="248.9907"/>
    <polyline points="581.2418,248.9907 581.2418,273.112 611.8651,273.112 611.8651,248.9907 581.2418,248.9907 581.2418,237.3448 581.2418,248.9907 611.8651,248.9907 611.8651,237.3448 581.2418,237.3448 611.8651,237.3448"/>
    <line x1="608.4625" x2="608.4625" y1="237.3448" y2="248.9907"/>
    <line x1="605.06" x2="605.06" y1="248.9907" y2="237.3448"/>
    <line x1="601.6574" x2="601.6574" y1="237.3448" y2="248.9907"/>
    <line x1="598.2548" x2="598.2548" y1="248.9907" y2="237.3448"/>
    <line x1="594.8522" x2="594.8522" y1="237.3448" y2="248.9907"/>
    <line x1="591.4496" x2="591.4496" y1="248.9907" y2="237.3448"/>
    <line x1="588.047" x2="588.047" y1="237.3448" y2="248.9907"/>
    <polygon points="596.2726,258.6183 598.0382,259.1035 598.7483,259.9646 599.0026,261.0513 598.3182,262.7497 596.6473,263.4987 594.924,262.8798 594.1115,261.2388 594.664,259.4931"/>
    <polygon points="581.2418,273.112 579.9789,280.7151 613.1281,280.7151 613.1281,301.8664 579.9789,301.8664 579.9789,280.7151 613.1281,280.7151 611.8651,273.112"/>
    <polygon points="579.9789,301.8664 613.1281,301.8664 613.1281,316.3095 579.9789,316.3095"/>
    <polygon points="515.2768,361.8884 503.9916,371.9261 534.3059,371.9261 523.0207,361.8884"/>
    <polygon points="501.9971,365.5168 499.4232,356.7469 495.5679,356.7469 492.994,365.5168"/>
    <polygon points="499.4232,356.7469 502.7822,354.0894 492.2089,354.0894 495.5679,356.7469"/>
    <polygon points="454.5601,350.24 428.9279,350.24 438.9095,355.2276 444.5786,355.2276"/>
    <polygon points="444.5786,355.2276 438.9095,355.2276 427.1762,371.9261 456.3119,371.9261"/>
    <polygon points="452.1803,322.1058 431.3078,322.1058 428.9279,331.7399 454.5601,331.7399 454.5601,350.24 428.9279,350.24 428.9279,331.7399 454.5601,331.7399"/>
    <polygon points="440.0592,311.971 439.3613,310.2861 440.0592,308.6013 441.744,307.9034 443.4289,308.6013 444.1268,310.2861 443.4289,311.971 441.744,312.6689"/>
    <polygon points="431.3078,298.4665 452.1803,298.4665 452.1803,322.1058 431.3078,322.1058 431.3078,298.4665 452.1803,298.4665 450.7466,291.6491 432.7415,291.6491"/>
    <polygon points="378.3498,303.3525 378.3498,308.7696 373.9301,308.7696 373.9301,303.3525"/>
    <line x1="371.5725" x2="357.1061" y1="291.0624" y2="291.0624"/>
    <line x1="357.1061" x2="371.5725" y1="287.5944" y2="287.5944"/>
    <line x1="371.5725" x2="357.1061" y1="284.1264" y2="284.1264"/>
    <line x1="357.1061" x2="371.5725" y1="280.6585" y2="280.6585"/>
    <line x1="371.5725" x2="357.1061" y1="277.1905" y2="277.1905"/>
    <line x1="357.1061" x2="371.5725" y1="273.7225" y2="273.7225"/>
    <line x1="370.7722" x2="357.9064" y1="263.283" y2="263.283"/>
    <polygon points="357.9064,263.283 357.1061,270.2546 371.5725,270.2546 371.5725,291.0624 357.1061,291.0624 357.1061,270.2546 371.5725,270.2546 370.7722,263.283"/>
    <polygon points="357.9064,263.283 357.9064,250.6513 370.7722,250.6513 370.4495,245.103 358.2291,245.103 357.9064,250.6513 370.7722,250.6513 370.7722,263.283"/>
    <line x1="357.9064" x2="370.7722" y1="259.0724" y2="259.0724"/>
    <line x1="370.7722" x2="357.9064" y1="254.8618" y2="254.8618"/>
    <polygon points="358.2291,245.103 358.2291,229.3294 370.4495,229.3294 370.4495,245.103"/>
    <polygon points="358.2291,233.1939 358.2291,241.2385 355.8546,241.2385 355.8546,233.1939"/>
    <polygon points="372.824,233.1939 372.824,241.2385 370.4495,241.2385 370.4495,233.1939"/>
    <polygon points="359.2745,216.2993 369.4042,216.2993 369.4042,229.3294 359.2745,229.3294 359.2745,216.2993 363.4105,199.5976 365.2682,199.5976 369.4042,216.2993"/>
    <polygon points="365.2682,193.5342 365.2682,199.5976 363.4105,199.5976 363.4105,193.5342"/>
    <polygon points="363.4105,187.4686 365.2682,187.4686 365.2682,193.5342 363.4105,193.5342"/>
    <polygon points="363.4105,182.4177 365.2682,182.4177 365.2682,187.4686 363.4105,187.4686"/>
    <polygon points="363.4105,176.9557 365.2682,176.9557 365.2682,182.4177 363.4105,182.4177"/>
    <polyline points="307.7108,192.1284 307.7108,344.8216 296.1983,344.8216 296.1983,192.1284 307.7108,192.1284 307.0109,188.7619 305.0038,185.8402 301.9546,183.7494 298.9053,185.8402 296.8982,188.7619 296.1983,192.1284"/>
    <line x1="296.1983" x2="277.6709" y1="192.8302" y2="192.8302"/>
    <polyline points="277.6709,192.1284 276.971,188.7619 274.9638,185.8402 271.9146,183.7494 268.8654,185.8402 266.8582,188.7619 266.1583,192.1284 277.6709,192.1284 277.6709,344.8216 266.1583,344.8216 266.1583,192.1284"/>
    <line x1="277.6709" x2="296.1983" y1="195.8154" y2="195.8154"/>
    <line x1="296.1983" x2="277.6709" y1="198.8007" y2="198.8007"/>
    <line x1="277.6709" x2="296.1983" y1="201.7859" y2="201.7859"/>
    <line x1="296.1983" x2="277.6709" y1="204.7711" y2="204.7711"/>
    <line x1="277.6709" x2="296.1983" y1="207.7564" y2="207.7564"/>
    <polygon points="296.1983,216.7868 296.1983,233.0091 277.6709,233.0091 277.6709,216.7868 296.1983,216.7868 296.1983,207.7564 277.6709,207.7564 277.6709,216.7868"/>
    <line x1="296.1983" x2="277.6709" y1="220.0312" y2="220.0312"/>
    <line x1="277.6709" x2="296.1983" y1="223.2757" y2="223.2757"/>
    <line x1="296.1983" x2="277.6709" y1="226.5202" y2="226.5202"/>
    <line x1="277.6709" x2="296.1983" y1="229.7646" y2="229.7646"/>
    <line x1="296.1983" x2="277.6709" y1="233.0091" y2="233.0091"/>
    <line x1="277.6709" x2="296.1983" y1="239.8986" y2="239.8986"/>
    <line x1="296.1983" x2="277.6709" y1="241.9281" y2="241.9281"/>
    <line x1="277.6709" x2="296.1983" y1="243.9576" y2="243.9576"/>
    <line x1="296.1983" x2="277.6709" y1="245.9871" y2="245.9871"/>
    <line x1="277.6709" x2="296.1983" y1="248.0166" y2="248.0166"/>
    <line x1="296.1983" x2="277.6709" y1="250.0461" y2="250.0461"/>
    <line x1="277.6709" x2="296.1983" y1="252.0757" y2="252.0757"/>
    <line x1="296.1983" x2="277.6709" y1="254.1052" y2="254.1052"/>
    <polygon points="277.6709,256.1347 277.6709,237.869 296.1983,237.869 296.1983,233.0091 277.6709,233.0091 277.6709,237.869 296.1983,237.869 296.1983,256.1347"/>
    <line x1="277.6709" x2="296.1983" y1="256.1347" y2="256.1347"/>
    <polygon points="296.1983,262.4274 296.1983,256.1347 277.6709,256.1347 277.6709,262.4274 296.1983,262.4274 296.1983,279.9657 277.6709,279.9657 277.6709,262.4274"/>
    <polygon points="296.1983,288.5352 296.1983,279.9657 277.6709,279.9657 277.6709,288.5352 296.1983,288.5352 296.1983,306.7675 277.6709,306.7675 277.6709,288.5352"/>
    <polygon points="296.1983,306.7675 277.6709,306.7675 277.6709,314.4733 296.1983,314.4733 296.1983,336.475 277.6709,336.475 277.6709,314.4733 296.1983,314.4733"/>
    <polygon points="277.6709,336.475 296.1983,336.475 296.1983,355.4526 277.6709,355.4526"/>
    <polyline points="274.1939,344.8216 275.7139,348.3738 276.8007,351.9368 277.4533,355.5071 277.6709,359.0809 266.1583,359.0809 266.3759,355.5071 267.0285,351.9368 268.1153,348.3738 269.6353,344.8216"/>
    <polyline points="283.548,355.4526 281.102,359.0936 279.1734,363.3084 278.077,367.4087 277.6709,371.9261 296.1983,371.9261 295.7921,367.4087 294.6958,363.3084 292.7672,359.0936 290.3211,355.4526"/>
    <polyline points="299.6753,344.8216 298.1553,348.3738 297.0684,351.9368 296.4159,355.5071 296.1983,359.0809 307.7108,359.0809 307.4932,355.5071 306.8407,351.9368 305.7539,348.3738 304.2338,344.8216"/>
    <line x1="353.0614" x2="375.6172" y1="344.5091" y2="344.5091"/>
    <line x1="375.6172" x2="353.0614" y1="342.3364" y2="342.3364"/>
    <line x1="353.0614" x2="375.6172" y1="340.1638" y2="340.1638"/>
    <line x1="373.3617" x2="373.3617" y1="337.9911" y2="331.8205"/>
    <line x1="371.1061" x2="371.1061" y1="331.8205" y2="337.9911"/>
    <line x1="368.8505" x2="368.8505" y1="337.9911" y2="331.8205"/>
    <line x1="366.5949" x2="366.5949" y1="331.8205" y2="337.9911"/>
    <line x1="364.3393" x2="364.3393" y1="337.9911" y2="331.8205"/>
    <line x1="362.0837" x2="362.0837" y1="331.8205" y2="337.9911"/>
    <line x1="359.8281" x2="359.8281" y1="337.9911" y2="331.8205"/>
    <line x1="357.5725" x2="357.5725" y1="331.8205" y2="337.9911"/>
    <line x1="355.317" x2="355.317" y1="337.9911" y2="331.8205"/>
    <polyline points="353.0614,331.8205 375.6172,331.8205 375.6172,337.9911 353.0614,337.9911 353.0614,331.8205 375.6172,331.8205 373.9301,327.6531 354.7485,327.6531 353.0614,331.8205 353.0614,337.9911 375.6172,337.9911 375.6172,351.0271 353.0614,351.0271 353.0614,337.9911"/>
    <line x1="353.0614" x2="375.6172" y1="346.6818" y2="346.6818"/>
    <line x1="375.6172" x2="353.0614" y1="348.8544" y2="348.8544"/>
    <polyline points="353.0614,351.0271 353.0614,358.2889 375.6172,358.2889 375.6172,351.0271 353.0614,351.0271 375.6172,351.0271"/>
    <line x1="375.6172" x2="353.0614" y1="353.4477" y2="353.4477"/>
    <line x1="353.0614" x2="375.6172" y1="355.8683" y2="355.8683"/>
    <polyline points="375.6172,358.2889 375.6172,351.0271 386.6243,358.2889 342.0543,358.2889 353.0614,351.0271 353.0614,358.2889"/>
    <polygon points="359.9275,358.2889 354.2708,371.9261 374.4078,371.9261 368.7511,358.2889"/>
    <polygon points="354.7485,327.6531 354.7485,317.3415 373.9301,317.3415 373.9301,327.6531"/>
    <line x1="354.7485" x2="373.9301" y1="327.6531" y2="327.6531"/>
    <line x1="373.9301" x2="354.7485" y1="324.2159" y2="324.2159"/>
    <line x1="354.7485" x2="373.9301" y1="320.7787" y2="320.7787"/>
    <polygon points="373.9301,317.3415 354.7485,317.3415 354.7485,294.7806 373.9301,294.7806 371.5725,291.0624 357.1061,291.0624 354.7485,294.7806 373.9301,294.7806"/>
    <polygon points="354.7485,308.7696 350.3288,308.7696 350.3288,303.3525 354.7485,303.3525"/>
    <polygon points="223.9544,326.4761 195.1053,326.4761 195.1053,313.8795 223.9544,313.8795"/>
    <polygon points="223.9544,326.4761 223.9544,338.9253 195.1053,338.9253 195.1053,326.4761"/>
    <polygon points="223.9544,338.9253 223.9544,361.1344 195.1053,361.1344 195.1053,338.9253"/>
    <polygon points="223.9544,361.1344 223.9544,338.9253 231.6896,359.8093 231.6896,361.1344"/>
    <polygon points="195.1053,361.1344 195.1053,338.9253 187.3701,359.8093 187.3701,361.1344"/>
    <polygon points="196.3148,371.9261 222.7449,371.9261 215.3411,361.1344 203.7186,361.1344"/>
    <polyline points="195.1053,298.1295 195.1053,313.8795 223.9544,313.8795 223.9544,298.1295 195.1053,298.1295 195.1053,274.3381 195.1053,298.1295 223.9544,298.1295 223.9544,274.3381 195.1053,274.3381"/>
    <line x1="198.7115" x2="198.7115" y1="274.3381" y2="298.1295"/>
    <line x1="202.3176" x2="202.3176" y1="298.1295" y2="274.3381"/>
    <line x1="205.9237" x2="205.9237" y1="274.3381" y2="298.1295"/>
    <line x1="209.5299" x2="209.5299" y1="298.1295" y2="274.3381"/>
    <line x1="213.136" x2="213.136" y1="274.3381" y2="298.1295"/>
    <line x1="216.7421" x2="216.7421" y1="298.1295" y2="274.3381"/>
    <line x1="220.3483" x2="220.3483" y1="274.3381" y2="298.1295"/>
    <polygon points="210.1467,266.2133 210.6576,267.1574 210.4198,267.8501 209.4367,268.2813 208.766,267.9872 208.4175,267.343 208.766,266.3277 209.4367,266.0335"/>
    <polygon points="223.9544,259.9768 223.9544,274.3381 195.1053,274.3381 195.1053,259.9768 223.9544,259.9768 223.1795,255.1715 195.8802,255.1715 195.1053,259.9768"/>
    <polygon points="223.1795,247.1305 223.1795,255.1715 195.8802,255.1715 195.8802,247.1305"/>
    <polygon points="223.1795,236.6544 227.1754,236.6544 227.1754,244.0881 223.1795,244.0881"/>
    <polygon points="223.1795,233.612 221.7515,226.7413 197.3082,226.7413 195.8802,233.612 223.1795,233.612 223.1795,247.1305 195.8802,247.1305 195.8802,233.612"/>
    <line x1="221.7515" x2="197.3082" y1="226.7413" y2="226.7413"/>
    <line x1="197.3082" x2="221.7515" y1="223.5286" y2="223.5286"/>
    <polygon points="197.3082,220.3159 221.7515,220.3159 219.361,214.7348 199.6987,214.7348 197.3082,220.3159 221.7515,220.3159 221.7515,226.7413 197.3082,226.7413"/>
    <polygon points="195.8802,236.6544 195.8802,244.0881 191.8844,244.0881 191.8844,236.6544"/>
    <polygon points="204.3031,249.523 214.7566,249.523 214.7566,249.1451 204.3031,249.1451"/>
    <polygon points="199.6987,197.8615 219.361,197.8615 219.361,214.7348 199.6987,214.7348"/>
    <polygon points="219.361,184.3182 219.361,197.8615 199.6987,197.8615 199.6987,184.3182 209.5299,155.1817 219.361,184.3182 199.6987,184.3182"/>
    <line x1="277.6709" x2="296.1983" y1="184.3923" y2="184.3923"/>
    <polygon points="296.1983,184.3923 277.6709,184.3923 277.6709,189.845 296.1983,189.845 296.1983,207.7564 277.6709,207.7564 277.6709,189.845 296.1983,189.845"/>
    <line x1="296.1983" x2="277.6709" y1="180.4683" y2="180.4683"/>
    <line x1="277.6709" x2="296.1983" y1="176.5443" y2="176.5443"/>
    <line x1="296.1983" x2="277.6709" y1="172.6203" y2="172.6203"/>
    <line x1="277.6709" x2="296.1983" y1="168.6963" y2="168.6963"/>
    <line x1="296.1983" x2="277.6709" y1="164.7722" y2="164.7722"/>
    <polygon points="296.1983,160.8482 296.1983,184.3923 277.6709,184.3923 277.6709,160.8482 296.1983,160.8482 294.8809,156.9526 278.9883,156.9526 277.6709,160.8482"/>
    <polygon points="294.8809,140.7888 294.8809,156.9526 278.9883,156.9526 278.9883,140.7888 286.9346,122.931 294.8809,140.7888 278.9883,140.7888"/>
    <polygon points="450.8512,648.5829 450.8512,667.1553 432.6368,667.1553 432.6368,648.5829 450.8512,648.5829 448.258,644.1123 435.2301,644.1123 432.6368,648.5829"/>
    <line x1="450.8512" x2="432.6368" y1="661.8489" y2="661.8489"/>
    <line x1="432.6368" x2="450.8512" y1="664.5021" y2="664.5021"/>
    <line x1="450.8512" x2="432.6368" y1="667.1553" y2="667.1553"/>
    <polyline points="431.2109,674.8854 452.2772,674.8854 452.2772,683.2372 431.2109,683.2372 431.2109,674.8854 452.2772,674.8854 450.8512,667.1553 432.6368,667.1553 431.2109,674.8854 431.2109,683.2372 452.2772,683.2372 452.2772,694.9905 431.2109,694.9905 431.2109,683.2372"/>
    <line x1="434.2203" x2="434.2203" y1="683.2372" y2="674.8854"/>
    <line x1="437.2298" x2="437.2298" y1="674.8854" y2="683.2372"/>
    <line x1="440.2393" x2="440.2393" y1="683.2372" y2="674.8854"/>
    <line x1="443.2488" x2="443.2488" y1="674.8854" y2="683.2372"/>
    <line x1="446.2582" x2="446.2582" y1="683.2372" y2="674.8854"/>
    <line x1="449.2677" x2="449.2677" y1="674.8854" y2="683.2372"/>
    <line x1="452.2772" x2="431.2109" y1="687.155" y2="687.155"/>
    <line x1="431.2109" x2="452.2772" y1="691.0727" y2="691.0727"/>
    <line x1="452.2772" x2="431.2109" y1="694.9905" y2="694.9905"/>
    <polygon points="432.4203,698.4773 436.6286,698.4773 435.3275,694.9905 433.7214,694.9905"/>
    <polygon points="437.2333,698.4773 441.4417,698.4773 440.1405,694.9905 438.5345,694.9905"/>
    <polygon points="443.3475,694.9905 442.0464,698.4773 446.2547,698.4773 444.9536,694.9905"/>
    <polygon points="446.8594,698.4773 451.0678,698.4773 449.7666,694.9905 448.1606,694.9905"/>
    <polygon points="585.291,698.4773 607.816,698.4773 602.4629,672.4704 590.644,672.4704"/>
    <polygon points="595.7299,822.8047 595.7299,819.0455 597.377,819.0455 597.377,822.8047"/>
    <polygon points="597.377,822.8047 597.377,829.9008 595.7299,829.9008 595.7299,822.8047"/>
    <polygon points="611.6796,914.2827 611.6796,921.3385 607.3418,921.3385 607.3418,914.2827"/>
    <polygon points="607.3418,926.8621 607.3418,945.7924 585.7652,945.7924 585.7652,926.8621"/>
  </g>
</svg>
