<?xml version="1.0" encoding="utf-8" ?>
<svg xmlns="http://www.w3.org/2000/svg" xmlns:cc="http://creativecommons.org/ns#" xmlns:dc="http://purl.org/dc/elements/1.1/" xmlns:ev="http://www.w3.org/2001/xml-events" xmlns:inkscape="http://www.inkscape.org/namespaces/inkscape" xmlns:rdf="http://www.w3.org/1999/02/22-rdf-syntax-ns#" xmlns:sodipodi="http://sodipodi.sourceforge.net/DTD/sodipodi-0.dtd" xmlns:xlink="http://www.w3.org/1999/xlink" baseProfile="tiny" height="29.7cm" version="1.2" viewBox="0 0 793.7007874015749 1122.5196850393702" width="21.0cm">
  <metadata>
    <rdf:RDF>
      <cc:Work>
        <dc:format>image/svg+xml</dc:format>
        <dc:source/>
        <dc:date>2021-11-13T13:10:07.804815</dc:date>
      </cc:Work>
    </rdf:RDF>
  </metadata>
  <defs/>
  <g fill="none" id="layer1" inkscape:groupmode="layer" inkscape:label="1" stroke="#00f" style="display:inline">
    <polygon points="324.0522,620.3404 323.1908,623.8854 325.8071,623.8854 324.9457,620.3404"/>
    <polygon points="327.9779,620.3404 327.0843,620.3404 326.2229,623.8854 328.8393,623.8854"/>
    <polygon points="330.1164,620.3404 329.255,623.8854 331.8714,623.8854 331.01,620.3404"/>
    <polygon points="333.1485,620.3404 332.2871,623.8854 334.9035,623.8854 334.0421,620.3404"/>
    <polygon points="335.3192,623.8854 337.9356,623.8854 337.0742,620.3404 336.1806,620.3404"/>
    <polygon points="323.659,602.4334 322.3593,606.9576 338.7671,606.9576 338.7671,620.3404 322.3593,620.3404 322.3593,606.9576 338.7671,606.9576 337.4674,602.4334"/>
    <polygon points="323.659,596.2914 337.4674,596.2914 337.4674,602.4334 323.659,602.4334 323.659,596.2914 337.4674,596.2914 336.1583,592.2592 324.9681,592.2592"/>
    <polygon points="324.9681,592.2592 324.9681,582.1743 336.1583,582.1743 336.1583,592.2592"/>
    <line x1="324.9681" x2="336.1583" y1="592.2592" y2="592.2592"/>
    <line x1="336.1583" x2="324.9681" y1="589.7379" y2="589.7379"/>
    <line x1="324.9681" x2="336.1583" y1="587.2167" y2="587.2167"/>
    <line x1="336.1583" x2="324.9681" y1="584.6955" y2="584.6955"/>
    <polygon points="324.9681,582.1743 324.9681,571.585 336.1583,571.585 335.353,567.251 325.7733,567.251 324.9681,571.585 336.1583,571.585 336.1583,582.1743"/>
    <polygon points="329.1866,578.5202 328.5507,577.6121 328.4216,576.8796 328.5507,576.1472 329.1866,575.2391 330.5632,574.738 331.9398,575.2391 332.5756,576.1472 332.7048,576.8796 332.5756,577.6121 331.9398,578.5202 330.5632,579.0212"/>
    <polyline points="325.7733,561.8221 325.7733,567.251 335.353,567.251 335.353,561.8221 325.7733,561.8221 335.353,561.8221 335.353,567.251 336.407,567.251 336.407,561.8221 335.353,561.8221"/>
    <line x1="335.353" x2="325.7733" y1="559.7384" y2="559.7384"/>
    <line x1="325.7733" x2="335.353" y1="557.6547" y2="557.6547"/>
    <line x1="335.353" x2="325.7733" y1="555.571" y2="555.571"/>
    <line x1="325.7733" x2="335.353" y1="553.4872" y2="553.4872"/>
    <line x1="335.353" x2="325.7733" y1="551.4035" y2="551.4035"/>
    <polygon points="324.7194,561.8221 325.7733,561.8221 325.7733,567.251 324.7194,567.251"/>
    <polygon points="329.7813,532.9766 331.345,532.9766 335.353,549.3198 325.7733,549.3198 335.353,549.3198 335.353,561.8221 325.7733,561.8221 325.7733,549.3198"/>
    <polygon points="331.345,532.9766 329.7813,532.9766 329.7813,529.0359 331.345,529.0359"/>
    <polygon points="331.345,529.0359 329.7813,529.0359 329.7813,524.9185 331.345,524.9185"/>
    <polygon points="331.345,521.4437 331.345,524.9185 329.7813,524.9185 329.7813,521.4437"/>
    <polygon points="363.3593,530.2573 363.3593,526.2525 364.2867,526.2525 364.2867,530.2573"/>
    <line x1="363.823" x2="363.823" y1="540.8649" y2="554.6907"/>
    <polyline points="361.4183,554.6907 361.4183,562.1544 366.2278,562.1544 366.2278,554.6907 361.4183,554.6907 361.4183,540.8649 366.2278,540.8649 364.2867,530.2573 363.3593,530.2573 361.4183,540.8649 361.4183,554.6907 366.2278,554.6907 366.2278,540.8649 361.4183,540.8649"/>
    <polygon points="366.8111,566.506 366.2278,562.1544 361.4183,562.1544 360.835,566.506 366.8111,566.506 366.8111,575.1417 360.835,575.1417 360.835,566.506"/>
    <polygon points="359.9134,579.3756 367.7327,579.3756 367.7327,587.0385 359.9134,587.0385 359.9134,579.3756 367.7327,579.3756 366.8111,575.1417 360.835,575.1417"/>
    <polygon points="357.8385,591.3038 369.8075,591.3038 369.8075,600.4222 357.8385,600.4222 357.8385,591.3038 369.8075,591.3038 367.7327,587.0385 359.9134,587.0385"/>
    <polyline points="357.8385,600.4222 369.8075,600.4222 369.8075,614.0121 357.8385,614.0121 357.8385,600.4222 357.8385,614.0121 369.8075,614.0121 369.8075,617.6784 357.8385,617.6784 357.8385,614.0121"/>
    <line x1="359.5484" x2="359.5484" y1="614.0121" y2="600.4222"/>
    <line x1="361.2582" x2="361.2582" y1="600.4222" y2="614.0121"/>
    <line x1="362.9681" x2="362.9681" y1="614.0121" y2="600.4222"/>
    <line x1="364.678" x2="364.678" y1="600.4222" y2="614.0121"/>
    <line x1="366.3878" x2="366.3878" y1="614.0121" y2="600.4222"/>
    <line x1="368.0977" x2="368.0977" y1="600.4222" y2="614.0121"/>
    <polygon points="362.7303,617.6784 358.67,623.8854 368.976,623.8854 364.9158,617.6784"/>
    <polygon points="392.6878,621.812 392.6878,613.389 401.4779,613.389 401.4779,621.812"/>
    <polygon points="393.5193,623.8854 394.6121,623.8854 394.3874,621.812 393.744,621.812"/>
    <polygon points="396.1207,623.8854 395.896,621.812 395.2526,621.812 395.0279,623.8854"/>
    <polygon points="397.6293,623.8854 397.4046,621.812 396.7612,621.812 396.5365,623.8854"/>
    <polygon points="399.1379,623.8854 398.9131,621.812 398.2697,621.812 398.045,623.8854"/>
    <polygon points="400.4217,621.812 399.7783,621.812 399.5536,623.8854 400.6464,623.8854"/>
    <polygon points="401.4779,621.812 401.4779,613.389 409.2054,621.812"/>
    <polygon points="392.6878,613.389 384.9603,621.812 392.6878,621.812"/>
    <polyline points="393.202,608.4512 393.202,613.389 400.9638,613.389 400.9638,608.4512 393.202,608.4512 393.202,604.4192 393.202,608.4512 400.9638,608.4512 400.9638,604.4192 393.202,604.4192"/>
    <line x1="395.7892" x2="395.7892" y1="604.4192" y2="608.4512"/>
    <polygon points="397.1721,610.1851 397.8233,610.9201 397.1721,611.6551 396.364,611.0973 396.5287,610.4291"/>
    <line x1="398.3765" x2="398.3765" y1="608.4512" y2="604.4192"/>
    <polygon points="393.202,588.4747 400.9638,588.4747 400.9638,604.4192 393.202,604.4192 393.202,588.4747 400.9638,588.4747 400.8695,583.3397 393.2963,583.3397"/>
    <polygon points="396.0095,579.8448 396.9013,579.2717 397.9184,579.5703 398.3588,580.5346 397.9184,581.4988 397.2644,581.7975 396.2473,581.4988 395.807,580.5346"/>
    <polygon points="400.8695,577.7295 400.8695,583.3397 393.2963,583.3397 393.2963,577.7295 400.8695,577.7295 400.1113,572.4202 394.0544,572.4202 393.2963,577.7295"/>
    <polyline points="400.1113,566.2394 399.3803,561.6108 398.4096,559.3543 397.0829,557.387 395.925,559.0535 394.9006,561.2742 394.2682,563.7035 394.0544,566.2394 400.1113,566.2394 400.1113,572.4202 394.0544,572.4202 394.0544,566.2394"/>
    <polygon points="423.6902,576.5801 423.6902,561.215 436.9952,561.215 436.9952,576.5801"/>
    <polygon points="423.6902,580.6669 423.6902,576.5801 436.9952,576.5801 436.9952,580.6669"/>
    <polygon points="423.6902,594.9593 423.6902,580.6669 436.9952,580.6669 436.9952,594.9593"/>
    <polygon points="422.8134,599.9217 416.8272,609.2678 422.8134,609.2678"/>
    <polyline points="428.8262,609.2678 426.3493,612.1414 424.4663,615.5888 423.1968,619.8056 422.8134,623.8854 437.872,623.8854 437.4887,619.8056 436.2191,615.5888 434.3361,612.1414 431.8592,609.2678"/>
    <polygon points="437.872,599.9217 443.8582,609.2678 437.872,609.2678"/>
    <polygon points="436.9952,594.9593 423.6902,594.9593 422.8134,599.9217 437.872,599.9217 437.872,609.2678 422.8134,609.2678 422.8134,599.9217 437.872,599.9217"/>
    <polygon points="455.8636,591.4826 471.3415,591.4826 470.7073,587.9373 456.4978,587.9373 455.8636,591.4826 471.3415,591.4826 471.3415,602.7302 455.8636,602.7302"/>
    <polygon points="459.6447,606.7591 467.5604,606.7591 471.3415,602.7302 455.8636,602.7302"/>
    <polygon points="470.9166,623.8854 467.5604,606.7591 459.6447,606.7591 456.2885,623.8854"/>
    <polygon points="470.7073,573.0802 470.3749,567.2878 456.8302,567.2878 456.4978,573.0802 470.7073,573.0802 470.7073,587.9373 456.4978,587.9373 456.4978,573.0802"/>
    <line x1="467.666" x2="467.666" y1="567.2878" y2="551.8933"/>
    <line x1="464.957" x2="464.957" y1="551.8933" y2="567.2878"/>
    <line x1="462.2481" x2="462.2481" y1="567.2878" y2="551.8933"/>
    <line x1="459.5391" x2="459.5391" y1="551.8933" y2="567.2878"/>
    <polyline points="456.8302,567.2878 456.8302,551.8933 470.3749,551.8933 470.3749,567.2878 456.8302,567.2878 456.8302,551.8933"/>
    <polygon points="456.8302,546.1892 470.3749,546.1892 470.3749,551.8933 456.8302,551.8933 456.8302,546.1892 470.3749,546.1892 468.6407,543.4948 458.5644,543.4948"/>
    <polygon points="464.0959,548.4227 464.3937,549.0413 463.7786,549.8126 463.1093,549.6598 462.8114,549.0413 463.4265,548.2699"/>
    <polygon points="467.8345,534.3731 459.3706,534.3731 458.5644,539.1987 468.6407,539.1987 468.6407,543.4948 458.5644,543.4948 458.5644,539.1987 468.6407,539.1987"/>
    <polygon points="467.2086,514.6467 459.9965,514.6467 459.3706,518.7037 467.8345,518.7037 467.8345,534.3731 459.3706,534.3731 459.3706,518.7037 467.8345,518.7037"/>
    <polygon points="463.6026,498.6343 467.2086,511.1797 459.9965,511.1797 467.2086,511.1797 467.2086,514.6467 459.9965,514.6467 459.9965,511.1797"/>
    <polygon points="436.9952,561.215 423.6902,561.215 423.6902,553.0416 430.3427,541.1396 436.9952,553.0416 423.6902,553.0416 436.9952,553.0416"/>
  </g>
</svg>
